{
  "header": {
    "PPQ": 480,
    "timeSignature": [
      4,
      4
    ],
    "bpm": 120,
    "name": ""
  },
  "startTime": 0,
  "duration": 293.99895833333335,
  "tracks": [
    {
      "startTime": 0,
      "duration": 293.74895833333335,
      "length": 870,
      "notes": [
        {
          "name": "E5",
          "midi": 76,
          "time": 0,
          "velocity": 0.6299212598425197,
          "duration": 0.24895833333333334
        },
        {
          "name": "D5",
          "midi": 74,
          "time": 0.25,
          "velocity": 0.6299212598425197,
          "duration": 0.24895833333333334
        },
        {
          "name": "A4",
          "midi": 69,
          "time": 0.5,
          "velocity": 0.6299212598425197,
          "duration": 0.2489583333333334
        },
        {
          "name": "E5",
          "midi": 76,
          "time": 0.7500000000000001,
          "velocity": 0.6299212598425197,
          "duration": 0.4989583333333333
        },
        {
          "name": "D5",
          "midi": 74,
          "time": 1.25,
          "velocity": 0.6299212598425197,
          "duration": 0.2489583333333334
        },
        {
          "name": "A4",
          "midi": 69,
          "time": 1.5,
          "velocity": 0.6299212598425197,
          "duration": 0.2489583333333334
        },
        {
          "name": "E5",
          "midi": 76,
          "time": 1.75,
          "velocity": 0.6299212598425197,
          "duration": 0.4989583333333334
        },
        {
          "name": "D5",
          "midi": 74,
          "time": 2.25,
          "velocity": 0.6299212598425197,
          "duration": 0.2489583333333334
        },
        {
          "name": "A4",
          "midi": 69,
          "time": 2.5,
          "velocity": 0.6299212598425197,
          "duration": 0.2489583333333334
        },
        {
          "name": "E5",
          "midi": 76,
          "time": 2.75,
          "velocity": 0.6299212598425197,
          "duration": 0.4989583333333334
        },
        {
          "name": "D5",
          "midi": 74,
          "time": 3.25,
          "velocity": 0.6299212598425197,
          "duration": 0.2489583333333334
        },
        {
          "name": "A4",
          "midi": 69,
          "time": 3.5,
          "velocity": 0.6299212598425197,
          "duration": 0.2489583333333334
        },
        {
          "name": "C4",
          "midi": 60,
          "time": 3.75,
          "velocity": 0.6299212598425197,
          "duration": 0.2489583333333334
        },
        {
          "name": "B3",
          "midi": 59,
          "time": 4,
          "velocity": 0.6299212598425197,
          "duration": 0.4989583333333334
        },
        {
          "name": "D4",
          "midi": 62,
          "time": 4.5,
          "velocity": 0.6299212598425197,
          "duration": 0.2489583333333334
        },
        {
          "name": "G4",
          "midi": 67,
          "time": 4.75,
          "velocity": 0.6299212598425197,
          "duration": 0.4989583333333334
        },
        {
          "name": "F#4",
          "midi": 66,
          "time": 5.25,
          "velocity": 0.6299212598425197,
          "duration": 0.4989583333333334
        },
        {
          "name": "D4",
          "midi": 62,
          "time": 5.75,
          "velocity": 0.6299212598425197,
          "duration": 2.2489583333333334
        },
        {
          "name": "B3",
          "midi": 59,
          "time": 8,
          "velocity": 0.6299212598425197,
          "duration": 0.4989583333333325
        },
        {
          "name": "D4",
          "midi": 62,
          "time": 8.5,
          "velocity": 0.6299212598425197,
          "duration": 0.2489583333333325
        },
        {
          "name": "G4",
          "midi": 67,
          "time": 8.75,
          "velocity": 0.6299212598425197,
          "duration": 0.4989583333333325
        },
        {
          "name": "F#4",
          "midi": 66,
          "time": 9.25,
          "velocity": 0.6299212598425197,
          "duration": 0.4989583333333325
        },
        {
          "name": "A4",
          "midi": 69,
          "time": 9.75,
          "velocity": 0.6299212598425197,
          "duration": 0.4989583333333325
        },
        {
          "name": "G4",
          "midi": 67,
          "time": 10.25,
          "velocity": 0.6299212598425197,
          "duration": 0.2489583333333325
        },
        {
          "name": "F#4",
          "midi": 66,
          "time": 10.5,
          "velocity": 0.6299212598425197,
          "duration": 0.2489583333333325
        },
        {
          "name": "D#4",
          "midi": 63,
          "time": 10.75,
          "velocity": 0.6299212598425197,
          "duration": 1.2489583333333343
        },
        {
          "name": "B3",
          "midi": 59,
          "time": 12.000000000000002,
          "velocity": 0.6299212598425197,
          "duration": 0.4989583333333325
        },
        {
          "name": "D4",
          "midi": 62,
          "time": 12.500000000000002,
          "velocity": 0.6299212598425197,
          "duration": 0.2489583333333325
        },
        {
          "name": "G4",
          "midi": 67,
          "time": 12.750000000000002,
          "velocity": 0.6299212598425197,
          "duration": 0.4989583333333325
        },
        {
          "name": "F#4",
          "midi": 66,
          "time": 13.250000000000002,
          "velocity": 0.6299212598425197,
          "duration": 0.4989583333333325
        },
        {
          "name": "D4",
          "midi": 62,
          "time": 13.750000000000002,
          "velocity": 0.6299212598425197,
          "duration": 2.2489583333333325
        },
        {
          "name": "B3",
          "midi": 59,
          "time": 16,
          "velocity": 0.6299212598425197,
          "duration": 0.4989583333333343
        },
        {
          "name": "D4",
          "midi": 62,
          "time": 16.5,
          "velocity": 0.6299212598425197,
          "duration": 0.24895833333333428
        },
        {
          "name": "G4",
          "midi": 67,
          "time": 16.75,
          "velocity": 0.6299212598425197,
          "duration": 0.4989583333333343
        },
        {
          "name": "F#4",
          "midi": 66,
          "time": 17.25,
          "velocity": 0.6299212598425197,
          "duration": 0.4989583333333343
        },
        {
          "name": "D#4",
          "midi": 63,
          "time": 17.75,
          "velocity": 0.6299212598425197,
          "duration": 0.06145833333333428
        },
        {
          "name": "E4",
          "midi": 64,
          "time": 17.8125,
          "velocity": 0.6299212598425197,
          "duration": 0.06145833333333428
        },
        {
          "name": "D#4",
          "midi": 63,
          "time": 17.875,
          "velocity": 0.6299212598425197,
          "duration": 0.12395833333333428
        },
        {
          "name": "D#4",
          "midi": 63,
          "time": 18,
          "velocity": 0.6299212598425197,
          "duration": 0.24895833333333428
        },
        {
          "name": "E4",
          "midi": 64,
          "time": 18.25,
          "velocity": 0.6299212598425197,
          "duration": 0.24895833333333428
        },
        {
          "name": "D#4",
          "midi": 63,
          "time": 18.5,
          "velocity": 0.6299212598425197,
          "duration": 0.24895833333333428
        },
        {
          "name": "E4",
          "midi": 64,
          "time": 18.75,
          "velocity": 0.6299212598425197,
          "duration": 0.24895833333333428
        },
        {
          "name": "D#4",
          "midi": 63,
          "time": 19,
          "velocity": 0.6299212598425197,
          "duration": 0.24895833333333428
        },
        {
          "name": "E4",
          "midi": 64,
          "time": 19.25,
          "velocity": 0.6299212598425197,
          "duration": 0.24895833333333428
        },
        {
          "name": "D#4",
          "midi": 63,
          "time": 19.5,
          "velocity": 0.6299212598425197,
          "duration": 0.24895833333333428
        },
        {
          "name": "E4",
          "midi": 64,
          "time": 19.75,
          "velocity": 0.6299212598425197,
          "duration": 0.24895833333333428
        },
        {
          "name": "D#4",
          "midi": 63,
          "time": 20,
          "velocity": 0.6299212598425197,
          "duration": 0.24895833333333428
        },
        {
          "name": "E4",
          "midi": 64,
          "time": 20.25,
          "velocity": 0.6299212598425197,
          "duration": 0.24895833333333428
        },
        {
          "name": "D#4",
          "midi": 63,
          "time": 20.5,
          "velocity": 0.6299212598425197,
          "duration": 0.24895833333333428
        },
        {
          "name": "E4",
          "midi": 64,
          "time": 20.75,
          "velocity": 0.6299212598425197,
          "duration": 0.24895833333333428
        },
        {
          "name": "D#4",
          "midi": 63,
          "time": 21,
          "velocity": 0.6299212598425197,
          "duration": 0.9989583333333343
        },
        {
          "name": "E4",
          "midi": 64,
          "time": 23.25,
          "velocity": 0.6299212598425197,
          "duration": 0.24895833333333428
        },
        {
          "name": "F#4",
          "midi": 66,
          "time": 23.5,
          "velocity": 0.6299212598425197,
          "duration": 0.24895833333333428
        },
        {
          "name": "G4",
          "midi": 67,
          "time": 23.75,
          "velocity": 0.6299212598425197,
          "duration": 0.24895833333333428
        },
        {
          "name": "F#4",
          "midi": 66,
          "time": 24,
          "velocity": 0.6299212598425197,
          "duration": 0.24895833333333428
        },
        {
          "name": "G4",
          "midi": 67,
          "time": 24.25,
          "velocity": 0.6299212598425197,
          "duration": 0.4989583333333343
        },
        {
          "name": "F#4",
          "midi": 66,
          "time": 24.75,
          "velocity": 0.6299212598425197,
          "duration": 0.9989583333333343
        },
        {
          "name": "F#4",
          "midi": 66,
          "time": 25.75,
          "velocity": 0.6299212598425197,
          "duration": 0.12395833333333428
        },
        {
          "name": "F#4",
          "midi": 66,
          "time": 25.875,
          "velocity": 0.6299212598425197,
          "duration": 0.12395833333333428
        },
        {
          "name": "G4",
          "midi": 67,
          "time": 26,
          "velocity": 0.6299212598425197,
          "duration": 0.24895833333333428
        },
        {
          "name": "F#4",
          "midi": 66,
          "time": 26.25,
          "velocity": 0.6299212598425197,
          "duration": 0.24895833333333428
        },
        {
          "name": "G4",
          "midi": 67,
          "time": 26.5,
          "velocity": 0.6299212598425197,
          "duration": 0.24895833333333428
        },
        {
          "name": "G4",
          "midi": 67,
          "time": 26.75,
          "velocity": 0.6299212598425197,
          "duration": 0.4989583333333343
        },
        {
          "name": "F#4",
          "midi": 66,
          "time": 27.25,
          "velocity": 0.6299212598425197,
          "duration": 0.4989583333333343
        },
        {
          "name": "B3",
          "midi": 59,
          "time": 27.75,
          "velocity": 0.6299212598425197,
          "duration": 0.4989583333333343
        },
        {
          "name": "C4",
          "midi": 60,
          "time": 28.25,
          "velocity": 0.6299212598425197,
          "duration": 0.24895833333333428
        },
        {
          "name": "B3",
          "midi": 59,
          "time": 28.5,
          "velocity": 0.6299212598425197,
          "duration": 0.24895833333333428
        },
        {
          "name": "C4",
          "midi": 60,
          "time": 28.75,
          "velocity": 0.6299212598425197,
          "duration": 0.24895833333333428
        },
        {
          "name": "B3",
          "midi": 59,
          "time": 29,
          "velocity": 0.6299212598425197,
          "duration": 0.9989583333333343
        },
        {
          "name": "E4",
          "midi": 64,
          "time": 31.25,
          "velocity": 0.6299212598425197,
          "duration": 0.24895833333333428
        },
        {
          "name": "F#4",
          "midi": 66,
          "time": 31.5,
          "velocity": 0.6299212598425197,
          "duration": 0.24895833333333428
        },
        {
          "name": "G4",
          "midi": 67,
          "time": 31.75,
          "velocity": 0.6299212598425197,
          "duration": 0.24895833333333428
        },
        {
          "name": "F#4",
          "midi": 66,
          "time": 32,
          "velocity": 0.6299212598425197,
          "duration": 0.24895833333333428
        },
        {
          "name": "G4",
          "midi": 67,
          "time": 32.25,
          "velocity": 0.6299212598425197,
          "duration": 0.4989583333333343
        },
        {
          "name": "F#4",
          "midi": 66,
          "time": 32.75,
          "velocity": 0.6299212598425197,
          "duration": 0.9989583333333343
        },
        {
          "name": "F#4",
          "midi": 66,
          "time": 33.75,
          "velocity": 0.6299212598425197,
          "duration": 0.12395833333333428
        },
        {
          "name": "F#4",
          "midi": 66,
          "time": 33.875,
          "velocity": 0.6299212598425197,
          "duration": 0.12395833333333428
        },
        {
          "name": "G4",
          "midi": 67,
          "time": 34,
          "velocity": 0.6299212598425197,
          "duration": 0.24895833333333428
        },
        {
          "name": "F#4",
          "midi": 66,
          "time": 34.25,
          "velocity": 0.6299212598425197,
          "duration": 0.24895833333333428
        },
        {
          "name": "G4",
          "midi": 67,
          "time": 34.5,
          "velocity": 0.6299212598425197,
          "duration": 0.24895833333333428
        },
        {
          "name": "B4",
          "midi": 71,
          "time": 34.75,
          "velocity": 0.6299212598425197,
          "duration": 0.4989583333333343
        },
        {
          "name": "E4",
          "midi": 64,
          "time": 35.25,
          "velocity": 0.6299212598425197,
          "duration": 0.4989583333333343
        },
        {
          "name": "E4",
          "midi": 64,
          "time": 35.75,
          "velocity": 0.6299212598425197,
          "duration": 0.4989583333333343
        },
        {
          "name": "F#4",
          "midi": 66,
          "time": 36.25,
          "velocity": 0.6299212598425197,
          "duration": 0.24895833333333428
        },
        {
          "name": "F#4",
          "midi": 66,
          "time": 36.5,
          "velocity": 0.6299212598425197,
          "duration": 0.24895833333333428
        },
        {
          "name": "G4",
          "midi": 67,
          "time": 36.75,
          "velocity": 0.6299212598425197,
          "duration": 0.24895833333333428
        },
        {
          "name": "F#4",
          "midi": 66,
          "time": 37,
          "velocity": 0.6299212598425197,
          "duration": 0.9989583333333343
        },
        {
          "name": "E4",
          "midi": 64,
          "time": 38,
          "velocity": 0.6299212598425197,
          "duration": 0.24895833333333428
        },
        {
          "name": "B4",
          "midi": 71,
          "time": 38.0625,
          "velocity": 0.6299212598425197,
          "duration": 0.24895833333333428
        },
        {
          "name": "E5",
          "midi": 76,
          "time": 38.125,
          "velocity": 0.6299212598425197,
          "duration": 0.24895833333333428
        },
        {
          "name": "A3",
          "midi": 57,
          "time": 38.25,
          "velocity": 0.6299212598425197,
          "duration": 0.24895833333333428
        },
        {
          "name": "B3",
          "midi": 59,
          "time": 38.5,
          "velocity": 0.6299212598425197,
          "duration": 0.24895833333333428
        },
        {
          "name": "A3",
          "midi": 57,
          "time": 38.75,
          "velocity": 0.6299212598425197,
          "duration": 0.12395833333333428
        },
        {
          "name": "B3",
          "midi": 59,
          "time": 38.875,
          "velocity": 0.6299212598425197,
          "duration": 0.3739583333333343
        },
        {
          "name": "B3",
          "midi": 59,
          "time": 39.25,
          "velocity": 0.6299212598425197,
          "duration": 0.24895833333333428
        },
        {
          "name": "B3",
          "midi": 59,
          "time": 39.5,
          "velocity": 0.6299212598425197,
          "duration": 0.24895833333333428
        },
        {
          "name": "A3",
          "midi": 57,
          "time": 39.75,
          "velocity": 0.6299212598425197,
          "duration": 0.24895833333333428
        },
        {
          "name": "D4",
          "midi": 62,
          "time": 40,
          "velocity": 0.6299212598425197,
          "duration": 0.24895833333333428
        },
        {
          "name": "D4",
          "midi": 62,
          "time": 40.25,
          "velocity": 0.6299212598425197,
          "duration": 0.24895833333333428
        },
        {
          "name": "E4",
          "midi": 64,
          "time": 40.5,
          "velocity": 0.6299212598425197,
          "duration": 0.24895833333333428
        },
        {
          "name": "B3",
          "midi": 59,
          "time": 40.75,
          "velocity": 0.6299212598425197,
          "duration": 0.4989583333333343
        },
        {
          "name": "B3",
          "midi": 59,
          "time": 41.25,
          "velocity": 0.6299212598425197,
          "duration": 0.12395833333333428
        },
        {
          "name": "B3",
          "midi": 59,
          "time": 41.375,
          "velocity": 0.6299212598425197,
          "duration": 0.12395833333333428
        },
        {
          "name": "B3",
          "midi": 59,
          "time": 41.5,
          "velocity": 0.6299212598425197,
          "duration": 0.24895833333333428
        },
        {
          "name": "A3",
          "midi": 57,
          "time": 41.75,
          "velocity": 0.6299212598425197,
          "duration": 0.24895833333333428
        },
        {
          "name": "D4",
          "midi": 62,
          "time": 42,
          "velocity": 0.6299212598425197,
          "duration": 0.24895833333333428
        },
        {
          "name": "D4",
          "midi": 62,
          "time": 42.25,
          "velocity": 0.6299212598425197,
          "duration": 0.24895833333333428
        },
        {
          "name": "E4",
          "midi": 64,
          "time": 42.5,
          "velocity": 0.6299212598425197,
          "duration": 0.24895833333333428
        },
        {
          "name": "B3",
          "midi": 59,
          "time": 42.75,
          "velocity": 0.6299212598425197,
          "duration": 0.4989583333333343
        },
        {
          "name": "B3",
          "midi": 59,
          "time": 43.25,
          "velocity": 0.6299212598425197,
          "duration": 0.12395833333333428
        },
        {
          "name": "B3",
          "midi": 59,
          "time": 43.375,
          "velocity": 0.6299212598425197,
          "duration": 0.12395833333333428
        },
        {
          "name": "C4",
          "midi": 60,
          "time": 43.5,
          "velocity": 0.6299212598425197,
          "duration": 0.24895833333333428
        },
        {
          "name": "B3",
          "midi": 59,
          "time": 43.75,
          "velocity": 0.6299212598425197,
          "duration": 0.24895833333333428
        },
        {
          "name": "B3",
          "midi": 59,
          "time": 44.25,
          "velocity": 0.6299212598425197,
          "duration": 0.24895833333333428
        },
        {
          "name": "G4",
          "midi": 67,
          "time": 44.5,
          "velocity": 0.6299212598425197,
          "duration": 0.4989583333333343
        },
        {
          "name": "F#4",
          "midi": 66,
          "time": 45,
          "velocity": 0.6299212598425197,
          "duration": 0.24895833333333428
        },
        {
          "name": "D4",
          "midi": 62,
          "time": 45.25,
          "velocity": 0.6299212598425197,
          "duration": 0.4989583333333343
        },
        {
          "name": "E4",
          "midi": 64,
          "time": 46,
          "velocity": 0.6299212598425197,
          "duration": 0.24895833333333428
        },
        {
          "name": "B4",
          "midi": 71,
          "time": 46.0625,
          "velocity": 0.6299212598425197,
          "duration": 0.24895833333333428
        },
        {
          "name": "E5",
          "midi": 76,
          "time": 46.125,
          "velocity": 0.6299212598425197,
          "duration": 0.24895833333333428
        },
        {
          "name": "A3",
          "midi": 57,
          "time": 46.25,
          "velocity": 0.6299212598425197,
          "duration": 0.24895833333333428
        },
        {
          "name": "B3",
          "midi": 59,
          "time": 46.5,
          "velocity": 0.6299212598425197,
          "duration": 0.24895833333333428
        },
        {
          "name": "A3",
          "midi": 57,
          "time": 46.75,
          "velocity": 0.6299212598425197,
          "duration": 0.12395833333333428
        },
        {
          "name": "B3",
          "midi": 59,
          "time": 46.875,
          "velocity": 0.6299212598425197,
          "duration": 0.3739583333333343
        },
        {
          "name": "B3",
          "midi": 59,
          "time": 47.25,
          "velocity": 0.6299212598425197,
          "duration": 0.24895833333333428
        },
        {
          "name": "B3",
          "midi": 59,
          "time": 47.5,
          "velocity": 0.6299212598425197,
          "duration": 0.24895833333333428
        },
        {
          "name": "A3",
          "midi": 57,
          "time": 47.75,
          "velocity": 0.6299212598425197,
          "duration": 0.24895833333333428
        },
        {
          "name": "D4",
          "midi": 62,
          "time": 48,
          "velocity": 0.6299212598425197,
          "duration": 0.24895833333333428
        },
        {
          "name": "D4",
          "midi": 62,
          "time": 48.25,
          "velocity": 0.6299212598425197,
          "duration": 0.24895833333333428
        },
        {
          "name": "E4",
          "midi": 64,
          "time": 48.5,
          "velocity": 0.6299212598425197,
          "duration": 0.24895833333333428
        },
        {
          "name": "B3",
          "midi": 59,
          "time": 48.75,
          "velocity": 0.6299212598425197,
          "duration": 0.4989583333333343
        },
        {
          "name": "B3",
          "midi": 59,
          "time": 49.25,
          "velocity": 0.6299212598425197,
          "duration": 0.12395833333333428
        },
        {
          "name": "B3",
          "midi": 59,
          "time": 49.375,
          "velocity": 0.6299212598425197,
          "duration": 0.12395833333333428
        },
        {
          "name": "B3",
          "midi": 59,
          "time": 49.5,
          "velocity": 0.6299212598425197,
          "duration": 0.24895833333333428
        },
        {
          "name": "A3",
          "midi": 57,
          "time": 49.75,
          "velocity": 0.6299212598425197,
          "duration": 0.24895833333333428
        },
        {
          "name": "D4",
          "midi": 62,
          "time": 50,
          "velocity": 0.6299212598425197,
          "duration": 0.24895833333333428
        },
        {
          "name": "D4",
          "midi": 62,
          "time": 50.25,
          "velocity": 0.6299212598425197,
          "duration": 0.24895833333333428
        },
        {
          "name": "E4",
          "midi": 64,
          "time": 50.5,
          "velocity": 0.6299212598425197,
          "duration": 0.24895833333333428
        },
        {
          "name": "B3",
          "midi": 59,
          "time": 50.75,
          "velocity": 0.6299212598425197,
          "duration": 0.4989583333333343
        },
        {
          "name": "B3",
          "midi": 59,
          "time": 51.25,
          "velocity": 0.6299212598425197,
          "duration": 0.12395833333333428
        },
        {
          "name": "B3",
          "midi": 59,
          "time": 51.375,
          "velocity": 0.6299212598425197,
          "duration": 0.12395833333333428
        },
        {
          "name": "C4",
          "midi": 60,
          "time": 51.5,
          "velocity": 0.6299212598425197,
          "duration": 0.24895833333333428
        },
        {
          "name": "B3",
          "midi": 59,
          "time": 51.75,
          "velocity": 0.6299212598425197,
          "duration": 0.24895833333333428
        },
        {
          "name": "B3",
          "midi": 59,
          "time": 52.25,
          "velocity": 0.6299212598425197,
          "duration": 0.24895833333333428
        },
        {
          "name": "G4",
          "midi": 67,
          "time": 52.5,
          "velocity": 0.6299212598425197,
          "duration": 0.4989583333333343
        },
        {
          "name": "F#4",
          "midi": 66,
          "time": 53,
          "velocity": 0.6299212598425197,
          "duration": 0.24895833333333428
        },
        {
          "name": "D4",
          "midi": 62,
          "time": 53.25,
          "velocity": 0.6299212598425197,
          "duration": 0.4989583333333343
        },
        {
          "name": "E4",
          "midi": 64,
          "time": 54.25,
          "velocity": 0.6299212598425197,
          "duration": 0.24895833333333428
        },
        {
          "name": "E4",
          "midi": 64,
          "time": 54.5,
          "velocity": 0.6299212598425197,
          "duration": 0.24895833333333428
        },
        {
          "name": "E4",
          "midi": 64,
          "time": 54.75,
          "velocity": 0.6299212598425197,
          "duration": 0.12395833333333428
        },
        {
          "name": "E4",
          "midi": 64,
          "time": 54.875,
          "velocity": 0.6299212598425197,
          "duration": 0.12395833333333428
        },
        {
          "name": "E4",
          "midi": 64,
          "time": 55,
          "velocity": 0.6299212598425197,
          "duration": 0.24895833333333428
        },
        {
          "name": "E4",
          "midi": 64,
          "time": 55.25,
          "velocity": 0.6299212598425197,
          "duration": 0.12395833333333428
        },
        {
          "name": "E4",
          "midi": 64,
          "time": 55.375,
          "velocity": 0.6299212598425197,
          "duration": 0.12395833333333428
        },
        {
          "name": "G4",
          "midi": 67,
          "time": 55.5,
          "velocity": 0.6299212598425197,
          "duration": 0.24895833333333428
        },
        {
          "name": "E4",
          "midi": 64,
          "time": 55.75,
          "velocity": 0.6299212598425197,
          "duration": 0.24895833333333428
        },
        {
          "name": "E4",
          "midi": 64,
          "time": 56.25,
          "velocity": 0.6299212598425197,
          "duration": 0.24895833333333428
        },
        {
          "name": "E4",
          "midi": 64,
          "time": 56.5,
          "velocity": 0.6299212598425197,
          "duration": 0.24895833333333428
        },
        {
          "name": "E4",
          "midi": 64,
          "time": 56.75,
          "velocity": 0.6299212598425197,
          "duration": 0.12395833333333428
        },
        {
          "name": "E4",
          "midi": 64,
          "time": 56.875,
          "velocity": 0.6299212598425197,
          "duration": 0.12395833333333428
        },
        {
          "name": "E4",
          "midi": 64,
          "time": 57,
          "velocity": 0.6299212598425197,
          "duration": 0.24895833333333428
        },
        {
          "name": "E4",
          "midi": 64,
          "time": 57.25,
          "velocity": 0.6299212598425197,
          "duration": 0.12395833333333428
        },
        {
          "name": "E4",
          "midi": 64,
          "time": 57.375,
          "velocity": 0.6299212598425197,
          "duration": 0.12395833333333428
        },
        {
          "name": "B4",
          "midi": 71,
          "time": 57.5,
          "velocity": 0.6299212598425197,
          "duration": 0.24895833333333428
        },
        {
          "name": "A4",
          "midi": 69,
          "time": 57.75,
          "velocity": 0.6299212598425197,
          "duration": 0.24895833333333428
        },
        {
          "name": "E4",
          "midi": 64,
          "time": 58.25,
          "velocity": 0.6299212598425197,
          "duration": 0.24895833333333428
        },
        {
          "name": "E4",
          "midi": 64,
          "time": 58.5,
          "velocity": 0.6299212598425197,
          "duration": 0.24895833333333428
        },
        {
          "name": "E4",
          "midi": 64,
          "time": 58.75,
          "velocity": 0.6299212598425197,
          "duration": 0.12395833333333428
        },
        {
          "name": "E4",
          "midi": 64,
          "time": 58.875,
          "velocity": 0.6299212598425197,
          "duration": 0.12395833333333428
        },
        {
          "name": "E4",
          "midi": 64,
          "time": 59,
          "velocity": 0.6299212598425197,
          "duration": 0.24895833333333428
        },
        {
          "name": "E4",
          "midi": 64,
          "time": 59.25,
          "velocity": 0.6299212598425197,
          "duration": 0.12395833333333428
        },
        {
          "name": "E4",
          "midi": 64,
          "time": 59.375,
          "velocity": 0.6299212598425197,
          "duration": 0.12395833333333428
        },
        {
          "name": "G4",
          "midi": 67,
          "time": 59.5,
          "velocity": 0.6299212598425197,
          "duration": 0.24895833333333428
        },
        {
          "name": "E4",
          "midi": 64,
          "time": 59.75,
          "velocity": 0.6299212598425197,
          "duration": 0.24895833333333428
        },
        {
          "name": "E4",
          "midi": 64,
          "time": 60,
          "velocity": 0.6299212598425197,
          "duration": 0.4989583333333343
        },
        {
          "name": "E4",
          "midi": 64,
          "time": 60.5,
          "velocity": 0.6299212598425197,
          "duration": 0.24895833333333428
        },
        {
          "name": "G4",
          "midi": 67,
          "time": 60.75,
          "velocity": 0.6299212598425197,
          "duration": 0.4989583333333343
        },
        {
          "name": "F#4",
          "midi": 66,
          "time": 61.25,
          "velocity": 0.6299212598425197,
          "duration": 0.24895833333333428
        },
        {
          "name": "E4",
          "midi": 64,
          "time": 61.5,
          "velocity": 0.6299212598425197,
          "duration": 0.24895833333333428
        },
        {
          "name": "D4",
          "midi": 62,
          "time": 61.75,
          "velocity": 0.6299212598425197,
          "duration": 0.24895833333333428
        },
        {
          "name": "E4",
          "midi": 64,
          "time": 62.25,
          "velocity": 0.6299212598425197,
          "duration": 0.24895833333333428
        },
        {
          "name": "E4",
          "midi": 64,
          "time": 62.5,
          "velocity": 0.6299212598425197,
          "duration": 0.24895833333333428
        },
        {
          "name": "E4",
          "midi": 64,
          "time": 62.75,
          "velocity": 0.6299212598425197,
          "duration": 0.12395833333333428
        },
        {
          "name": "E4",
          "midi": 64,
          "time": 62.875,
          "velocity": 0.6299212598425197,
          "duration": 0.12395833333333428
        },
        {
          "name": "E4",
          "midi": 64,
          "time": 63,
          "velocity": 0.6299212598425197,
          "duration": 0.24895833333333428
        },
        {
          "name": "E4",
          "midi": 64,
          "time": 63.25,
          "velocity": 0.6299212598425197,
          "duration": 0.12395833333333428
        },
        {
          "name": "E4",
          "midi": 64,
          "time": 63.375,
          "velocity": 0.6299212598425197,
          "duration": 0.12395833333333428
        },
        {
          "name": "G4",
          "midi": 67,
          "time": 63.5,
          "velocity": 0.6299212598425197,
          "duration": 0.24895833333333428
        },
        {
          "name": "E4",
          "midi": 64,
          "time": 63.75,
          "velocity": 0.6299212598425197,
          "duration": 0.24895833333333428
        },
        {
          "name": "E4",
          "midi": 64,
          "time": 64.25,
          "velocity": 0.6299212598425197,
          "duration": 0.24895833333333428
        },
        {
          "name": "E4",
          "midi": 64,
          "time": 64.5,
          "velocity": 0.6299212598425197,
          "duration": 0.24895833333333428
        },
        {
          "name": "E4",
          "midi": 64,
          "time": 64.75,
          "velocity": 0.6299212598425197,
          "duration": 0.12395833333333428
        },
        {
          "name": "E4",
          "midi": 64,
          "time": 64.875,
          "velocity": 0.6299212598425197,
          "duration": 0.12395833333333428
        },
        {
          "name": "E4",
          "midi": 64,
          "time": 65,
          "velocity": 0.6299212598425197,
          "duration": 0.24895833333333428
        },
        {
          "name": "E4",
          "midi": 64,
          "time": 65.25,
          "velocity": 0.6299212598425197,
          "duration": 0.12395833333333428
        },
        {
          "name": "E4",
          "midi": 64,
          "time": 65.375,
          "velocity": 0.6299212598425197,
          "duration": 0.12395833333333428
        },
        {
          "name": "B4",
          "midi": 71,
          "time": 65.5,
          "velocity": 0.6299212598425197,
          "duration": 0.24895833333333428
        },
        {
          "name": "A4",
          "midi": 69,
          "time": 65.75,
          "velocity": 0.6299212598425197,
          "duration": 0.24895833333333428
        },
        {
          "name": "E4",
          "midi": 64,
          "time": 66.25,
          "velocity": 0.6299212598425197,
          "duration": 0.24895833333333428
        },
        {
          "name": "E4",
          "midi": 64,
          "time": 66.5,
          "velocity": 0.6299212598425197,
          "duration": 0.24895833333333428
        },
        {
          "name": "E4",
          "midi": 64,
          "time": 66.75,
          "velocity": 0.6299212598425197,
          "duration": 0.12395833333333428
        },
        {
          "name": "E4",
          "midi": 64,
          "time": 66.875,
          "velocity": 0.6299212598425197,
          "duration": 0.12395833333333428
        },
        {
          "name": "E4",
          "midi": 64,
          "time": 67,
          "velocity": 0.6299212598425197,
          "duration": 0.24895833333333428
        },
        {
          "name": "E4",
          "midi": 64,
          "time": 67.25,
          "velocity": 0.6299212598425197,
          "duration": 0.12395833333333428
        },
        {
          "name": "E4",
          "midi": 64,
          "time": 67.375,
          "velocity": 0.6299212598425197,
          "duration": 0.12395833333333428
        },
        {
          "name": "G4",
          "midi": 67,
          "time": 67.5,
          "velocity": 0.6299212598425197,
          "duration": 0.24895833333333428
        },
        {
          "name": "E4",
          "midi": 64,
          "time": 67.75,
          "velocity": 0.6299212598425197,
          "duration": 0.24895833333333428
        },
        {
          "name": "B4",
          "midi": 71,
          "time": 68,
          "velocity": 0.6299212598425197,
          "duration": 0.4989583333333343
        },
        {
          "name": "B4",
          "midi": 71,
          "time": 68.5,
          "velocity": 0.6299212598425197,
          "duration": 0.24895833333333428
        },
        {
          "name": "D5",
          "midi": 74,
          "time": 68.75,
          "velocity": 0.6299212598425197,
          "duration": 0.4989583333333343
        },
        {
          "name": "B4",
          "midi": 71,
          "time": 69.25,
          "velocity": 0.6299212598425197,
          "duration": 0.24895833333333428
        },
        {
          "name": "A4",
          "midi": 69,
          "time": 69.5,
          "velocity": 0.6299212598425197,
          "duration": 0.24895833333333428
        },
        {
          "name": "G4",
          "midi": 67,
          "time": 69.75,
          "velocity": 0.6299212598425197,
          "duration": 0.24895833333333428
        },
        {
          "name": "B4",
          "midi": 71,
          "time": 70,
          "velocity": 0.6299212598425197,
          "duration": 0.4989583333333343
        },
        {
          "name": "E4",
          "midi": 64,
          "time": 70.5,
          "velocity": 0.6299212598425197,
          "duration": 0.24895833333333428
        },
        {
          "name": "E4",
          "midi": 64,
          "time": 70.75,
          "velocity": 0.6299212598425197,
          "duration": 0.4989583333333343
        },
        {
          "name": "D4",
          "midi": 62,
          "time": 71.25,
          "velocity": 0.6299212598425197,
          "duration": 0.4989583333333343
        },
        {
          "name": "D4",
          "midi": 62,
          "time": 71.75,
          "velocity": 0.6299212598425197,
          "duration": 0.12395833333333428
        },
        {
          "name": "D4",
          "midi": 62,
          "time": 71.875,
          "velocity": 0.6299212598425197,
          "duration": 0.12395833333333428
        },
        {
          "name": "B4",
          "midi": 71,
          "time": 72,
          "velocity": 0.6299212598425197,
          "duration": 0.24895833333333428
        },
        {
          "name": "E4",
          "midi": 64,
          "time": 72.25,
          "velocity": 0.6299212598425197,
          "duration": 0.4989583333333343
        },
        {
          "name": "E4",
          "midi": 64,
          "time": 72.75,
          "velocity": 0.6299212598425197,
          "duration": 0.4989583333333343
        },
        {
          "name": "F#4",
          "midi": 66,
          "time": 73.25,
          "velocity": 0.6299212598425197,
          "duration": 0.4989583333333343
        },
        {
          "name": "F#4",
          "midi": 66,
          "time": 73.75,
          "velocity": 0.6299212598425197,
          "duration": 0.12395833333333428
        },
        {
          "name": "F#4",
          "midi": 66,
          "time": 73.875,
          "velocity": 0.6299212598425197,
          "duration": 0.12395833333333428
        },
        {
          "name": "F#4",
          "midi": 66,
          "time": 74,
          "velocity": 0.6299212598425197,
          "duration": 0.24895833333333428
        },
        {
          "name": "G4",
          "midi": 67,
          "time": 74.25,
          "velocity": 0.6299212598425197,
          "duration": 0.24895833333333428
        },
        {
          "name": "F#4",
          "midi": 66,
          "time": 74.5,
          "velocity": 0.6299212598425197,
          "duration": 0.24895833333333428
        },
        {
          "name": "G4",
          "midi": 67,
          "time": 74.75,
          "velocity": 0.6299212598425197,
          "duration": 0.24895833333333428
        },
        {
          "name": "F#4",
          "midi": 66,
          "time": 75,
          "velocity": 0.6299212598425197,
          "duration": 0.24895833333333428
        },
        {
          "name": "B3",
          "midi": 59,
          "time": 75.25,
          "velocity": 0.6299212598425197,
          "duration": 0.4989583333333343
        },
        {
          "name": "B3",
          "midi": 59,
          "time": 75.75,
          "velocity": 0.6299212598425197,
          "duration": 0.12395833333333428
        },
        {
          "name": "B3",
          "midi": 59,
          "time": 75.875,
          "velocity": 0.6299212598425197,
          "duration": 0.12395833333333428
        },
        {
          "name": "B3",
          "midi": 59,
          "time": 76,
          "velocity": 0.6299212598425197,
          "duration": 0.24895833333333428
        },
        {
          "name": "D4",
          "midi": 62,
          "time": 76.25,
          "velocity": 0.6299212598425197,
          "duration": 0.4989583333333343
        },
        {
          "name": "E4",
          "midi": 64,
          "time": 76.75,
          "velocity": 0.6299212598425197,
          "duration": 0.4989583333333343
        },
        {
          "name": "F#4",
          "midi": 66,
          "time": 77.25,
          "velocity": 0.6299212598425197,
          "duration": 0.4989583333333343
        },
        {
          "name": "E4",
          "midi": 64,
          "time": 77.75,
          "velocity": 0.6299212598425197,
          "duration": 0.24895833333333428
        },
        {
          "name": "G4",
          "midi": 67,
          "time": 78,
          "velocity": 0.6299212598425197,
          "duration": 0.4989583333333343
        },
        {
          "name": "E4",
          "midi": 64,
          "time": 78.5,
          "velocity": 0.6299212598425197,
          "duration": 0.24895833333333428
        },
        {
          "name": "E4",
          "midi": 64,
          "time": 78.75,
          "velocity": 0.6299212598425197,
          "duration": 0.4989583333333343
        },
        {
          "name": "D4",
          "midi": 62,
          "time": 79.25,
          "velocity": 0.6299212598425197,
          "duration": 0.4989583333333343
        },
        {
          "name": "D4",
          "midi": 62,
          "time": 79.75,
          "velocity": 0.6299212598425197,
          "duration": 0.24895833333333428
        },
        {
          "name": "A4",
          "midi": 69,
          "time": 80,
          "velocity": 0.6299212598425197,
          "duration": 0.24895833333333428
        },
        {
          "name": "A4",
          "midi": 69,
          "time": 80.25,
          "velocity": 0.6299212598425197,
          "duration": 0.24895833333333428
        },
        {
          "name": "A4",
          "midi": 69,
          "time": 80.5,
          "velocity": 0.6299212598425197,
          "duration": 0.3739583333333343
        },
        {
          "name": "A4",
          "midi": 69,
          "time": 80.875,
          "velocity": 0.6299212598425197,
          "duration": 0.12395833333333428
        },
        {
          "name": "A4",
          "midi": 69,
          "time": 81,
          "velocity": 0.6299212598425197,
          "duration": 0.24895833333333428
        },
        {
          "name": "G4",
          "midi": 67,
          "time": 81.25,
          "velocity": 0.6299212598425197,
          "duration": 0.24895833333333428
        },
        {
          "name": "B4",
          "midi": 71,
          "time": 81.5,
          "velocity": 0.6299212598425197,
          "duration": 0.4989583333333343
        },
        {
          "name": "A4",
          "midi": 69,
          "time": 82,
          "velocity": 0.6299212598425197,
          "duration": 0.24895833333333428
        },
        {
          "name": "G4",
          "midi": 67,
          "time": 82.25,
          "velocity": 0.6299212598425197,
          "duration": 0.24895833333333428
        },
        {
          "name": "E4",
          "midi": 64,
          "time": 82.5,
          "velocity": 0.6299212598425197,
          "duration": 0.9989583333333343
        },
        {
          "name": "E4",
          "midi": 64,
          "time": 83.75,
          "velocity": 0.6299212598425197,
          "duration": 0.24895833333333428
        },
        {
          "name": "B4",
          "midi": 71,
          "time": 84,
          "velocity": 0.6299212598425197,
          "duration": 0.4989583333333343
        },
        {
          "name": "B4",
          "midi": 71,
          "time": 84.5,
          "velocity": 0.6299212598425197,
          "duration": 0.24895833333333428
        },
        {
          "name": "D5",
          "midi": 74,
          "time": 84.75,
          "velocity": 0.6299212598425197,
          "duration": 0.4989583333333343
        },
        {
          "name": "B4",
          "midi": 71,
          "time": 85.25,
          "velocity": 0.6299212598425197,
          "duration": 0.24895833333333428
        },
        {
          "name": "A4",
          "midi": 69,
          "time": 85.5,
          "velocity": 0.6299212598425197,
          "duration": 0.24895833333333428
        },
        {
          "name": "G4",
          "midi": 67,
          "time": 85.75,
          "velocity": 0.6299212598425197,
          "duration": 0.24895833333333428
        },
        {
          "name": "B4",
          "midi": 71,
          "time": 86,
          "velocity": 0.6299212598425197,
          "duration": 0.4989583333333343
        },
        {
          "name": "E4",
          "midi": 64,
          "time": 86.5,
          "velocity": 0.6299212598425197,
          "duration": 0.24895833333333428
        },
        {
          "name": "E4",
          "midi": 64,
          "time": 86.75,
          "velocity": 0.6299212598425197,
          "duration": 0.4989583333333343
        },
        {
          "name": "D4",
          "midi": 62,
          "time": 87.25,
          "velocity": 0.6299212598425197,
          "duration": 0.4989583333333343
        },
        {
          "name": "D4",
          "midi": 62,
          "time": 87.75,
          "velocity": 0.6299212598425197,
          "duration": 0.12395833333333428
        },
        {
          "name": "D4",
          "midi": 62,
          "time": 87.875,
          "velocity": 0.6299212598425197,
          "duration": 0.12395833333333428
        },
        {
          "name": "B4",
          "midi": 71,
          "time": 88,
          "velocity": 0.6299212598425197,
          "duration": 0.24895833333333428
        },
        {
          "name": "E4",
          "midi": 64,
          "time": 88.25,
          "velocity": 0.6299212598425197,
          "duration": 0.4989583333333343
        },
        {
          "name": "E4",
          "midi": 64,
          "time": 88.75,
          "velocity": 0.6299212598425197,
          "duration": 0.4989583333333343
        },
        {
          "name": "F#4",
          "midi": 66,
          "time": 89.25,
          "velocity": 0.6299212598425197,
          "duration": 0.4989583333333343
        },
        {
          "name": "F#4",
          "midi": 66,
          "time": 89.75,
          "velocity": 0.6299212598425197,
          "duration": 0.12395833333333428
        },
        {
          "name": "F#4",
          "midi": 66,
          "time": 89.875,
          "velocity": 0.6299212598425197,
          "duration": 0.12395833333333428
        },
        {
          "name": "F#4",
          "midi": 66,
          "time": 90,
          "velocity": 0.6299212598425197,
          "duration": 0.24895833333333428
        },
        {
          "name": "G4",
          "midi": 67,
          "time": 90.25,
          "velocity": 0.6299212598425197,
          "duration": 0.24895833333333428
        },
        {
          "name": "F#4",
          "midi": 66,
          "time": 90.5,
          "velocity": 0.6299212598425197,
          "duration": 0.24895833333333428
        },
        {
          "name": "G4",
          "midi": 67,
          "time": 90.75,
          "velocity": 0.6299212598425197,
          "duration": 0.24895833333333428
        },
        {
          "name": "F#4",
          "midi": 66,
          "time": 91,
          "velocity": 0.6299212598425197,
          "duration": 0.24895833333333428
        },
        {
          "name": "B3",
          "midi": 59,
          "time": 91.25,
          "velocity": 0.6299212598425197,
          "duration": 0.24895833333333428
        },
        {
          "name": "B3",
          "midi": 59,
          "time": 91.5,
          "velocity": 0.6299212598425197,
          "duration": 0.4989583333333343
        },
        {
          "name": "B3",
          "midi": 59,
          "time": 92,
          "velocity": 0.6299212598425197,
          "duration": 0.24895833333333428
        },
        {
          "name": "D4",
          "midi": 62,
          "time": 92.25,
          "velocity": 0.6299212598425197,
          "duration": 0.4989583333333343
        },
        {
          "name": "E4",
          "midi": 64,
          "time": 92.75,
          "velocity": 0.6299212598425197,
          "duration": 0.4989583333333343
        },
        {
          "name": "F#4",
          "midi": 66,
          "time": 93.25,
          "velocity": 0.6299212598425197,
          "duration": 0.4989583333333343
        },
        {
          "name": "E4",
          "midi": 64,
          "time": 93.75,
          "velocity": 0.6299212598425197,
          "duration": 0.24895833333333428
        },
        {
          "name": "G4",
          "midi": 67,
          "time": 94,
          "velocity": 0.6299212598425197,
          "duration": 0.4989583333333343
        },
        {
          "name": "E4",
          "midi": 64,
          "time": 94.5,
          "velocity": 0.6299212598425197,
          "duration": 0.24895833333333428
        },
        {
          "name": "E4",
          "midi": 64,
          "time": 94.75,
          "velocity": 0.6299212598425197,
          "duration": 0.4989583333333343
        },
        {
          "name": "D4",
          "midi": 62,
          "time": 95.25,
          "velocity": 0.6299212598425197,
          "duration": 0.4989583333333343
        },
        {
          "name": "D4",
          "midi": 62,
          "time": 95.75,
          "velocity": 0.6299212598425197,
          "duration": 0.24895833333333428
        },
        {
          "name": "A4",
          "midi": 69,
          "time": 96,
          "velocity": 0.6299212598425197,
          "duration": 0.24895833333333428
        },
        {
          "name": "A4",
          "midi": 69,
          "time": 96.25,
          "velocity": 0.6299212598425197,
          "duration": 0.24895833333333428
        },
        {
          "name": "A4",
          "midi": 69,
          "time": 96.5,
          "velocity": 0.6299212598425197,
          "duration": 0.3739583333333343
        },
        {
          "name": "A4",
          "midi": 69,
          "time": 96.875,
          "velocity": 0.6299212598425197,
          "duration": 0.12395833333333428
        },
        {
          "name": "A4",
          "midi": 69,
          "time": 97,
          "velocity": 0.6299212598425197,
          "duration": 0.24895833333333428
        },
        {
          "name": "G4",
          "midi": 67,
          "time": 97.25,
          "velocity": 0.6299212598425197,
          "duration": 0.24895833333333428
        },
        {
          "name": "B4",
          "midi": 71,
          "time": 97.5,
          "velocity": 0.6299212598425197,
          "duration": 0.4989583333333343
        },
        {
          "name": "E4",
          "midi": 64,
          "time": 98,
          "velocity": 0.6299212598425197,
          "duration": 1.9989583333333343
        },
        {
          "name": "E4",
          "midi": 64,
          "time": 100,
          "velocity": 0.6299212598425197,
          "duration": 1.9989583333333343
        },
        {
          "name": "E4",
          "midi": 64,
          "time": 102,
          "velocity": 0.6299212598425197,
          "duration": 1.9989583333333343
        },
        {
          "name": "E4",
          "midi": 64,
          "time": 104,
          "velocity": 0.6299212598425197,
          "duration": 1.9989583333333343
        },
        {
          "name": "E4",
          "midi": 64,
          "time": 107.25,
          "velocity": 0.6299212598425197,
          "duration": 0.24895833333333428
        },
        {
          "name": "F#4",
          "midi": 66,
          "time": 107.5,
          "velocity": 0.6299212598425197,
          "duration": 0.24895833333333428
        },
        {
          "name": "G4",
          "midi": 67,
          "time": 107.75,
          "velocity": 0.6299212598425197,
          "duration": 0.24895833333333428
        },
        {
          "name": "F#4",
          "midi": 66,
          "time": 108,
          "velocity": 0.6299212598425197,
          "duration": 0.24895833333333428
        },
        {
          "name": "G4",
          "midi": 67,
          "time": 108.25,
          "velocity": 0.6299212598425197,
          "duration": 0.4989583333333343
        },
        {
          "name": "F#4",
          "midi": 66,
          "time": 108.75,
          "velocity": 0.6299212598425197,
          "duration": 0.9989583333333343
        },
        {
          "name": "F#4",
          "midi": 66,
          "time": 109.75,
          "velocity": 0.6299212598425197,
          "duration": 0.12395833333333428
        },
        {
          "name": "F#4",
          "midi": 66,
          "time": 109.875,
          "velocity": 0.6299212598425197,
          "duration": 0.12395833333333428
        },
        {
          "name": "G4",
          "midi": 67,
          "time": 110,
          "velocity": 0.6299212598425197,
          "duration": 0.24895833333333428
        },
        {
          "name": "F#4",
          "midi": 66,
          "time": 110.25,
          "velocity": 0.6299212598425197,
          "duration": 0.24895833333333428
        },
        {
          "name": "G4",
          "midi": 67,
          "time": 110.5,
          "velocity": 0.6299212598425197,
          "duration": 0.24895833333333428
        },
        {
          "name": "G4",
          "midi": 67,
          "time": 110.75,
          "velocity": 0.6299212598425197,
          "duration": 0.4989583333333343
        },
        {
          "name": "F#4",
          "midi": 66,
          "time": 111.25,
          "velocity": 0.6299212598425197,
          "duration": 0.4989583333333343
        },
        {
          "name": "B3",
          "midi": 59,
          "time": 111.75,
          "velocity": 0.6299212598425197,
          "duration": 0.4989583333333343
        },
        {
          "name": "C4",
          "midi": 60,
          "time": 112.25,
          "velocity": 0.6299212598425197,
          "duration": 0.24895833333333428
        },
        {
          "name": "B3",
          "midi": 59,
          "time": 112.5,
          "velocity": 0.6299212598425197,
          "duration": 0.24895833333333428
        },
        {
          "name": "C4",
          "midi": 60,
          "time": 112.75,
          "velocity": 0.6299212598425197,
          "duration": 0.24895833333333428
        },
        {
          "name": "B3",
          "midi": 59,
          "time": 113,
          "velocity": 0.6299212598425197,
          "duration": 0.9989583333333343
        },
        {
          "name": "E4",
          "midi": 64,
          "time": 115.25,
          "velocity": 0.6299212598425197,
          "duration": 0.24895833333333428
        },
        {
          "name": "F#4",
          "midi": 66,
          "time": 115.5,
          "velocity": 0.6299212598425197,
          "duration": 0.24895833333333428
        },
        {
          "name": "G4",
          "midi": 67,
          "time": 115.75,
          "velocity": 0.6299212598425197,
          "duration": 0.24895833333333428
        },
        {
          "name": "F#4",
          "midi": 66,
          "time": 116,
          "velocity": 0.6299212598425197,
          "duration": 0.24895833333333428
        },
        {
          "name": "G4",
          "midi": 67,
          "time": 116.25,
          "velocity": 0.6299212598425197,
          "duration": 0.4989583333333343
        },
        {
          "name": "F#4",
          "midi": 66,
          "time": 116.75,
          "velocity": 0.6299212598425197,
          "duration": 0.9989583333333343
        },
        {
          "name": "F#4",
          "midi": 66,
          "time": 117.75,
          "velocity": 0.6299212598425197,
          "duration": 0.12395833333333428
        },
        {
          "name": "F#4",
          "midi": 66,
          "time": 117.875,
          "velocity": 0.6299212598425197,
          "duration": 0.12395833333333428
        },
        {
          "name": "G4",
          "midi": 67,
          "time": 118,
          "velocity": 0.6299212598425197,
          "duration": 0.24895833333333428
        },
        {
          "name": "F#4",
          "midi": 66,
          "time": 118.25,
          "velocity": 0.6299212598425197,
          "duration": 0.24895833333333428
        },
        {
          "name": "G4",
          "midi": 67,
          "time": 118.5,
          "velocity": 0.6299212598425197,
          "duration": 0.24895833333333428
        },
        {
          "name": "B4",
          "midi": 71,
          "time": 118.75,
          "velocity": 0.6299212598425197,
          "duration": 0.4989583333333343
        },
        {
          "name": "E4",
          "midi": 64,
          "time": 119.25,
          "velocity": 0.6299212598425197,
          "duration": 0.4989583333333343
        },
        {
          "name": "E4",
          "midi": 64,
          "time": 119.75,
          "velocity": 0.6299212598425197,
          "duration": 0.4989583333333343
        },
        {
          "name": "F#4",
          "midi": 66,
          "time": 120.25,
          "velocity": 0.6299212598425197,
          "duration": 0.24895833333333428
        },
        {
          "name": "F#4",
          "midi": 66,
          "time": 120.5,
          "velocity": 0.6299212598425197,
          "duration": 0.24895833333333428
        },
        {
          "name": "G4",
          "midi": 67,
          "time": 120.75,
          "velocity": 0.6299212598425197,
          "duration": 0.24895833333333428
        },
        {
          "name": "F#4",
          "midi": 66,
          "time": 121,
          "velocity": 0.6299212598425197,
          "duration": 0.9989583333333343
        },
        {
          "name": "E4",
          "midi": 64,
          "time": 122,
          "velocity": 0.6299212598425197,
          "duration": 0.24895833333333428
        },
        {
          "name": "B4",
          "midi": 71,
          "time": 122.0625,
          "velocity": 0.6299212598425197,
          "duration": 0.24895833333333428
        },
        {
          "name": "E5",
          "midi": 76,
          "time": 122.125,
          "velocity": 0.6299212598425197,
          "duration": 0.24895833333333428
        },
        {
          "name": "A3",
          "midi": 57,
          "time": 122.25,
          "velocity": 0.6299212598425197,
          "duration": 0.24895833333333428
        },
        {
          "name": "B3",
          "midi": 59,
          "time": 122.5,
          "velocity": 0.6299212598425197,
          "duration": 0.24895833333333428
        },
        {
          "name": "A3",
          "midi": 57,
          "time": 122.75,
          "velocity": 0.6299212598425197,
          "duration": 0.12395833333333428
        },
        {
          "name": "B3",
          "midi": 59,
          "time": 122.875,
          "velocity": 0.6299212598425197,
          "duration": 0.3739583333333343
        },
        {
          "name": "B3",
          "midi": 59,
          "time": 123.25,
          "velocity": 0.6299212598425197,
          "duration": 0.24895833333333428
        },
        {
          "name": "B3",
          "midi": 59,
          "time": 123.5,
          "velocity": 0.6299212598425197,
          "duration": 0.24895833333333428
        },
        {
          "name": "A3",
          "midi": 57,
          "time": 123.75,
          "velocity": 0.6299212598425197,
          "duration": 0.24895833333333428
        },
        {
          "name": "D4",
          "midi": 62,
          "time": 124,
          "velocity": 0.6299212598425197,
          "duration": 0.24895833333333428
        },
        {
          "name": "D4",
          "midi": 62,
          "time": 124.25,
          "velocity": 0.6299212598425197,
          "duration": 0.24895833333333428
        },
        {
          "name": "E4",
          "midi": 64,
          "time": 124.5,
          "velocity": 0.6299212598425197,
          "duration": 0.24895833333333428
        },
        {
          "name": "B3",
          "midi": 59,
          "time": 124.75,
          "velocity": 0.6299212598425197,
          "duration": 0.4989583333333343
        },
        {
          "name": "B3",
          "midi": 59,
          "time": 125.25,
          "velocity": 0.6299212598425197,
          "duration": 0.12395833333333428
        },
        {
          "name": "B3",
          "midi": 59,
          "time": 125.375,
          "velocity": 0.6299212598425197,
          "duration": 0.12395833333333428
        },
        {
          "name": "B3",
          "midi": 59,
          "time": 125.5,
          "velocity": 0.6299212598425197,
          "duration": 0.24895833333333428
        },
        {
          "name": "A3",
          "midi": 57,
          "time": 125.75,
          "velocity": 0.6299212598425197,
          "duration": 0.24895833333333428
        },
        {
          "name": "D4",
          "midi": 62,
          "time": 126,
          "velocity": 0.6299212598425197,
          "duration": 0.24895833333333428
        },
        {
          "name": "D4",
          "midi": 62,
          "time": 126.25,
          "velocity": 0.6299212598425197,
          "duration": 0.24895833333333428
        },
        {
          "name": "E4",
          "midi": 64,
          "time": 126.5,
          "velocity": 0.6299212598425197,
          "duration": 0.24895833333333428
        },
        {
          "name": "B3",
          "midi": 59,
          "time": 126.75,
          "velocity": 0.6299212598425197,
          "duration": 0.4989583333333343
        },
        {
          "name": "B3",
          "midi": 59,
          "time": 127.25,
          "velocity": 0.6299212598425197,
          "duration": 0.12395833333333428
        },
        {
          "name": "B3",
          "midi": 59,
          "time": 127.375,
          "velocity": 0.6299212598425197,
          "duration": 0.12395833333333428
        },
        {
          "name": "C4",
          "midi": 60,
          "time": 127.5,
          "velocity": 0.6299212598425197,
          "duration": 0.24895833333333428
        },
        {
          "name": "B3",
          "midi": 59,
          "time": 127.75,
          "velocity": 0.6299212598425197,
          "duration": 0.24895833333333428
        },
        {
          "name": "B3",
          "midi": 59,
          "time": 128.25,
          "velocity": 0.6299212598425197,
          "duration": 0.24895833333332007
        },
        {
          "name": "G4",
          "midi": 67,
          "time": 128.5,
          "velocity": 0.6299212598425197,
          "duration": 0.49895833333332007
        },
        {
          "name": "F#4",
          "midi": 66,
          "time": 129,
          "velocity": 0.6299212598425197,
          "duration": 0.24895833333332007
        },
        {
          "name": "D4",
          "midi": 62,
          "time": 129.25,
          "velocity": 0.6299212598425197,
          "duration": 0.49895833333332007
        },
        {
          "name": "E4",
          "midi": 64,
          "time": 130,
          "velocity": 0.6299212598425197,
          "duration": 0.24895833333332007
        },
        {
          "name": "B4",
          "midi": 71,
          "time": 130.0625,
          "velocity": 0.6299212598425197,
          "duration": 0.24895833333332007
        },
        {
          "name": "E5",
          "midi": 76,
          "time": 130.125,
          "velocity": 0.6299212598425197,
          "duration": 0.24895833333332007
        },
        {
          "name": "A3",
          "midi": 57,
          "time": 130.25,
          "velocity": 0.6299212598425197,
          "duration": 0.24895833333332007
        },
        {
          "name": "B3",
          "midi": 59,
          "time": 130.5,
          "velocity": 0.6299212598425197,
          "duration": 0.24895833333332007
        },
        {
          "name": "A3",
          "midi": 57,
          "time": 130.75,
          "velocity": 0.6299212598425197,
          "duration": 0.12395833333332007
        },
        {
          "name": "B3",
          "midi": 59,
          "time": 130.875,
          "velocity": 0.6299212598425197,
          "duration": 0.37395833333332007
        },
        {
          "name": "B3",
          "midi": 59,
          "time": 131.25,
          "velocity": 0.6299212598425197,
          "duration": 0.24895833333332007
        },
        {
          "name": "B3",
          "midi": 59,
          "time": 131.5,
          "velocity": 0.6299212598425197,
          "duration": 0.24895833333332007
        },
        {
          "name": "A3",
          "midi": 57,
          "time": 131.75,
          "velocity": 0.6299212598425197,
          "duration": 0.24895833333332007
        },
        {
          "name": "D4",
          "midi": 62,
          "time": 132,
          "velocity": 0.6299212598425197,
          "duration": 0.24895833333332007
        },
        {
          "name": "D4",
          "midi": 62,
          "time": 132.25,
          "velocity": 0.6299212598425197,
          "duration": 0.24895833333332007
        },
        {
          "name": "E4",
          "midi": 64,
          "time": 132.5,
          "velocity": 0.6299212598425197,
          "duration": 0.24895833333332007
        },
        {
          "name": "B3",
          "midi": 59,
          "time": 132.75,
          "velocity": 0.6299212598425197,
          "duration": 0.49895833333332007
        },
        {
          "name": "B3",
          "midi": 59,
          "time": 133.25,
          "velocity": 0.6299212598425197,
          "duration": 0.12395833333332007
        },
        {
          "name": "B3",
          "midi": 59,
          "time": 133.375,
          "velocity": 0.6299212598425197,
          "duration": 0.12395833333332007
        },
        {
          "name": "B3",
          "midi": 59,
          "time": 133.5,
          "velocity": 0.6299212598425197,
          "duration": 0.24895833333332007
        },
        {
          "name": "A3",
          "midi": 57,
          "time": 133.75,
          "velocity": 0.6299212598425197,
          "duration": 0.24895833333332007
        },
        {
          "name": "D4",
          "midi": 62,
          "time": 134,
          "velocity": 0.6299212598425197,
          "duration": 0.24895833333332007
        },
        {
          "name": "D4",
          "midi": 62,
          "time": 134.25,
          "velocity": 0.6299212598425197,
          "duration": 0.24895833333332007
        },
        {
          "name": "E4",
          "midi": 64,
          "time": 134.5,
          "velocity": 0.6299212598425197,
          "duration": 0.24895833333332007
        },
        {
          "name": "B3",
          "midi": 59,
          "time": 134.75,
          "velocity": 0.6299212598425197,
          "duration": 0.49895833333332007
        },
        {
          "name": "B3",
          "midi": 59,
          "time": 135.25,
          "velocity": 0.6299212598425197,
          "duration": 0.12395833333332007
        },
        {
          "name": "B3",
          "midi": 59,
          "time": 135.375,
          "velocity": 0.6299212598425197,
          "duration": 0.12395833333332007
        },
        {
          "name": "C4",
          "midi": 60,
          "time": 135.5,
          "velocity": 0.6299212598425197,
          "duration": 0.24895833333332007
        },
        {
          "name": "B3",
          "midi": 59,
          "time": 135.75,
          "velocity": 0.6299212598425197,
          "duration": 0.24895833333332007
        },
        {
          "name": "B3",
          "midi": 59,
          "time": 136.25,
          "velocity": 0.6299212598425197,
          "duration": 0.24895833333332007
        },
        {
          "name": "G4",
          "midi": 67,
          "time": 136.5,
          "velocity": 0.6299212598425197,
          "duration": 0.49895833333332007
        },
        {
          "name": "F#4",
          "midi": 66,
          "time": 137,
          "velocity": 0.6299212598425197,
          "duration": 0.24895833333332007
        },
        {
          "name": "D4",
          "midi": 62,
          "time": 137.25,
          "velocity": 0.6299212598425197,
          "duration": 0.49895833333332007
        },
        {
          "name": "E4",
          "midi": 64,
          "time": 138.25,
          "velocity": 0.6299212598425197,
          "duration": 0.24895833333332007
        },
        {
          "name": "E4",
          "midi": 64,
          "time": 138.5,
          "velocity": 0.6299212598425197,
          "duration": 0.24895833333332007
        },
        {
          "name": "E4",
          "midi": 64,
          "time": 138.75,
          "velocity": 0.6299212598425197,
          "duration": 0.12395833333332007
        },
        {
          "name": "E4",
          "midi": 64,
          "time": 138.875,
          "velocity": 0.6299212598425197,
          "duration": 0.12395833333332007
        },
        {
          "name": "E4",
          "midi": 64,
          "time": 139,
          "velocity": 0.6299212598425197,
          "duration": 0.24895833333332007
        },
        {
          "name": "E4",
          "midi": 64,
          "time": 139.25,
          "velocity": 0.6299212598425197,
          "duration": 0.12395833333332007
        },
        {
          "name": "E4",
          "midi": 64,
          "time": 139.375,
          "velocity": 0.6299212598425197,
          "duration": 0.12395833333332007
        },
        {
          "name": "G4",
          "midi": 67,
          "time": 139.5,
          "velocity": 0.6299212598425197,
          "duration": 0.24895833333332007
        },
        {
          "name": "E4",
          "midi": 64,
          "time": 139.75,
          "velocity": 0.6299212598425197,
          "duration": 0.24895833333332007
        },
        {
          "name": "E4",
          "midi": 64,
          "time": 140.25,
          "velocity": 0.6299212598425197,
          "duration": 0.24895833333332007
        },
        {
          "name": "E4",
          "midi": 64,
          "time": 140.5,
          "velocity": 0.6299212598425197,
          "duration": 0.24895833333332007
        },
        {
          "name": "E4",
          "midi": 64,
          "time": 140.75,
          "velocity": 0.6299212598425197,
          "duration": 0.12395833333332007
        },
        {
          "name": "E4",
          "midi": 64,
          "time": 140.875,
          "velocity": 0.6299212598425197,
          "duration": 0.12395833333332007
        },
        {
          "name": "E4",
          "midi": 64,
          "time": 141,
          "velocity": 0.6299212598425197,
          "duration": 0.24895833333332007
        },
        {
          "name": "E4",
          "midi": 64,
          "time": 141.25,
          "velocity": 0.6299212598425197,
          "duration": 0.12395833333332007
        },
        {
          "name": "E4",
          "midi": 64,
          "time": 141.375,
          "velocity": 0.6299212598425197,
          "duration": 0.12395833333332007
        },
        {
          "name": "B4",
          "midi": 71,
          "time": 141.5,
          "velocity": 0.6299212598425197,
          "duration": 0.24895833333332007
        },
        {
          "name": "A4",
          "midi": 69,
          "time": 141.75,
          "velocity": 0.6299212598425197,
          "duration": 0.24895833333332007
        },
        {
          "name": "E4",
          "midi": 64,
          "time": 142.25,
          "velocity": 0.6299212598425197,
          "duration": 0.24895833333332007
        },
        {
          "name": "E4",
          "midi": 64,
          "time": 142.5,
          "velocity": 0.6299212598425197,
          "duration": 0.24895833333332007
        },
        {
          "name": "E4",
          "midi": 64,
          "time": 142.75,
          "velocity": 0.6299212598425197,
          "duration": 0.12395833333332007
        },
        {
          "name": "E4",
          "midi": 64,
          "time": 142.875,
          "velocity": 0.6299212598425197,
          "duration": 0.12395833333332007
        },
        {
          "name": "E4",
          "midi": 64,
          "time": 143,
          "velocity": 0.6299212598425197,
          "duration": 0.24895833333332007
        },
        {
          "name": "E4",
          "midi": 64,
          "time": 143.25,
          "velocity": 0.6299212598425197,
          "duration": 0.12395833333332007
        },
        {
          "name": "E4",
          "midi": 64,
          "time": 143.375,
          "velocity": 0.6299212598425197,
          "duration": 0.12395833333332007
        },
        {
          "name": "G4",
          "midi": 67,
          "time": 143.5,
          "velocity": 0.6299212598425197,
          "duration": 0.24895833333332007
        },
        {
          "name": "E4",
          "midi": 64,
          "time": 143.75,
          "velocity": 0.6299212598425197,
          "duration": 0.24895833333332007
        },
        {
          "name": "E4",
          "midi": 64,
          "time": 144,
          "velocity": 0.6299212598425197,
          "duration": 0.49895833333332007
        },
        {
          "name": "E4",
          "midi": 64,
          "time": 144.5,
          "velocity": 0.6299212598425197,
          "duration": 0.24895833333332007
        },
        {
          "name": "G4",
          "midi": 67,
          "time": 144.75,
          "velocity": 0.6299212598425197,
          "duration": 0.49895833333332007
        },
        {
          "name": "F#4",
          "midi": 66,
          "time": 145.25,
          "velocity": 0.6299212598425197,
          "duration": 0.24895833333332007
        },
        {
          "name": "E4",
          "midi": 64,
          "time": 145.5,
          "velocity": 0.6299212598425197,
          "duration": 0.24895833333332007
        },
        {
          "name": "D4",
          "midi": 62,
          "time": 145.75,
          "velocity": 0.6299212598425197,
          "duration": 0.24895833333332007
        },
        {
          "name": "E4",
          "midi": 64,
          "time": 146.25,
          "velocity": 0.6299212598425197,
          "duration": 0.24895833333332007
        },
        {
          "name": "E4",
          "midi": 64,
          "time": 146.5,
          "velocity": 0.6299212598425197,
          "duration": 0.24895833333332007
        },
        {
          "name": "E4",
          "midi": 64,
          "time": 146.75,
          "velocity": 0.6299212598425197,
          "duration": 0.12395833333332007
        },
        {
          "name": "E4",
          "midi": 64,
          "time": 146.875,
          "velocity": 0.6299212598425197,
          "duration": 0.12395833333332007
        },
        {
          "name": "E4",
          "midi": 64,
          "time": 147,
          "velocity": 0.6299212598425197,
          "duration": 0.24895833333332007
        },
        {
          "name": "E4",
          "midi": 64,
          "time": 147.25,
          "velocity": 0.6299212598425197,
          "duration": 0.12395833333332007
        },
        {
          "name": "E4",
          "midi": 64,
          "time": 147.375,
          "velocity": 0.6299212598425197,
          "duration": 0.12395833333332007
        },
        {
          "name": "G4",
          "midi": 67,
          "time": 147.5,
          "velocity": 0.6299212598425197,
          "duration": 0.24895833333332007
        },
        {
          "name": "E4",
          "midi": 64,
          "time": 147.75,
          "velocity": 0.6299212598425197,
          "duration": 0.24895833333332007
        },
        {
          "name": "E4",
          "midi": 64,
          "time": 148.25,
          "velocity": 0.6299212598425197,
          "duration": 0.24895833333332007
        },
        {
          "name": "E4",
          "midi": 64,
          "time": 148.5,
          "velocity": 0.6299212598425197,
          "duration": 0.24895833333332007
        },
        {
          "name": "E4",
          "midi": 64,
          "time": 148.75,
          "velocity": 0.6299212598425197,
          "duration": 0.12395833333332007
        },
        {
          "name": "E4",
          "midi": 64,
          "time": 148.875,
          "velocity": 0.6299212598425197,
          "duration": 0.12395833333332007
        },
        {
          "name": "E4",
          "midi": 64,
          "time": 149,
          "velocity": 0.6299212598425197,
          "duration": 0.24895833333332007
        },
        {
          "name": "E4",
          "midi": 64,
          "time": 149.25,
          "velocity": 0.6299212598425197,
          "duration": 0.12395833333332007
        },
        {
          "name": "E4",
          "midi": 64,
          "time": 149.375,
          "velocity": 0.6299212598425197,
          "duration": 0.12395833333332007
        },
        {
          "name": "B4",
          "midi": 71,
          "time": 149.5,
          "velocity": 0.6299212598425197,
          "duration": 0.24895833333332007
        },
        {
          "name": "A4",
          "midi": 69,
          "time": 149.75,
          "velocity": 0.6299212598425197,
          "duration": 0.24895833333332007
        },
        {
          "name": "E4",
          "midi": 64,
          "time": 150.25,
          "velocity": 0.6299212598425197,
          "duration": 0.24895833333332007
        },
        {
          "name": "E4",
          "midi": 64,
          "time": 150.5,
          "velocity": 0.6299212598425197,
          "duration": 0.24895833333332007
        },
        {
          "name": "E4",
          "midi": 64,
          "time": 150.75,
          "velocity": 0.6299212598425197,
          "duration": 0.12395833333332007
        },
        {
          "name": "E4",
          "midi": 64,
          "time": 150.875,
          "velocity": 0.6299212598425197,
          "duration": 0.12395833333332007
        },
        {
          "name": "E4",
          "midi": 64,
          "time": 151,
          "velocity": 0.6299212598425197,
          "duration": 0.24895833333332007
        },
        {
          "name": "E4",
          "midi": 64,
          "time": 151.25,
          "velocity": 0.6299212598425197,
          "duration": 0.12395833333332007
        },
        {
          "name": "E4",
          "midi": 64,
          "time": 151.375,
          "velocity": 0.6299212598425197,
          "duration": 0.12395833333332007
        },
        {
          "name": "G4",
          "midi": 67,
          "time": 151.5,
          "velocity": 0.6299212598425197,
          "duration": 0.24895833333332007
        },
        {
          "name": "E4",
          "midi": 64,
          "time": 151.75,
          "velocity": 0.6299212598425197,
          "duration": 0.24895833333332007
        },
        {
          "name": "B4",
          "midi": 71,
          "time": 152,
          "velocity": 0.6299212598425197,
          "duration": 0.49895833333332007
        },
        {
          "name": "B4",
          "midi": 71,
          "time": 152.5,
          "velocity": 0.6299212598425197,
          "duration": 0.24895833333332007
        },
        {
          "name": "D5",
          "midi": 74,
          "time": 152.75,
          "velocity": 0.6299212598425197,
          "duration": 0.49895833333332007
        },
        {
          "name": "B4",
          "midi": 71,
          "time": 153.25,
          "velocity": 0.6299212598425197,
          "duration": 0.24895833333332007
        },
        {
          "name": "A4",
          "midi": 69,
          "time": 153.5,
          "velocity": 0.6299212598425197,
          "duration": 0.24895833333332007
        },
        {
          "name": "G4",
          "midi": 67,
          "time": 153.75,
          "velocity": 0.6299212598425197,
          "duration": 0.24895833333332007
        },
        {
          "name": "B4",
          "midi": 71,
          "time": 154,
          "velocity": 0.6299212598425197,
          "duration": 0.49895833333332007
        },
        {
          "name": "E4",
          "midi": 64,
          "time": 154.5,
          "velocity": 0.6299212598425197,
          "duration": 0.24895833333332007
        },
        {
          "name": "E4",
          "midi": 64,
          "time": 154.75,
          "velocity": 0.6299212598425197,
          "duration": 0.49895833333332007
        },
        {
          "name": "D4",
          "midi": 62,
          "time": 155.25,
          "velocity": 0.6299212598425197,
          "duration": 0.49895833333332007
        },
        {
          "name": "D4",
          "midi": 62,
          "time": 155.75,
          "velocity": 0.6299212598425197,
          "duration": 0.12395833333332007
        },
        {
          "name": "D4",
          "midi": 62,
          "time": 155.875,
          "velocity": 0.6299212598425197,
          "duration": 0.12395833333332007
        },
        {
          "name": "B4",
          "midi": 71,
          "time": 156,
          "velocity": 0.6299212598425197,
          "duration": 0.24895833333332007
        },
        {
          "name": "E4",
          "midi": 64,
          "time": 156.25,
          "velocity": 0.6299212598425197,
          "duration": 0.49895833333332007
        },
        {
          "name": "E4",
          "midi": 64,
          "time": 156.75,
          "velocity": 0.6299212598425197,
          "duration": 0.49895833333332007
        },
        {
          "name": "F#4",
          "midi": 66,
          "time": 157.25,
          "velocity": 0.6299212598425197,
          "duration": 0.49895833333332007
        },
        {
          "name": "F#4",
          "midi": 66,
          "time": 157.75,
          "velocity": 0.6299212598425197,
          "duration": 0.12395833333332007
        },
        {
          "name": "F#4",
          "midi": 66,
          "time": 157.875,
          "velocity": 0.6299212598425197,
          "duration": 0.12395833333332007
        },
        {
          "name": "F#4",
          "midi": 66,
          "time": 158,
          "velocity": 0.6299212598425197,
          "duration": 0.24895833333332007
        },
        {
          "name": "G4",
          "midi": 67,
          "time": 158.25,
          "velocity": 0.6299212598425197,
          "duration": 0.24895833333332007
        },
        {
          "name": "F#4",
          "midi": 66,
          "time": 158.5,
          "velocity": 0.6299212598425197,
          "duration": 0.24895833333332007
        },
        {
          "name": "G4",
          "midi": 67,
          "time": 158.75,
          "velocity": 0.6299212598425197,
          "duration": 0.24895833333332007
        },
        {
          "name": "F#4",
          "midi": 66,
          "time": 159,
          "velocity": 0.6299212598425197,
          "duration": 0.24895833333332007
        },
        {
          "name": "B3",
          "midi": 59,
          "time": 159.25,
          "velocity": 0.6299212598425197,
          "duration": 0.49895833333332007
        },
        {
          "name": "B3",
          "midi": 59,
          "time": 159.75,
          "velocity": 0.6299212598425197,
          "duration": 0.12395833333332007
        },
        {
          "name": "B3",
          "midi": 59,
          "time": 159.875,
          "velocity": 0.6299212598425197,
          "duration": 0.12395833333332007
        },
        {
          "name": "B3",
          "midi": 59,
          "time": 160,
          "velocity": 0.6299212598425197,
          "duration": 0.24895833333332007
        },
        {
          "name": "D4",
          "midi": 62,
          "time": 160.25,
          "velocity": 0.6299212598425197,
          "duration": 0.49895833333332007
        },
        {
          "name": "E4",
          "midi": 64,
          "time": 160.75,
          "velocity": 0.6299212598425197,
          "duration": 0.49895833333332007
        },
        {
          "name": "F#4",
          "midi": 66,
          "time": 161.25,
          "velocity": 0.6299212598425197,
          "duration": 0.49895833333332007
        },
        {
          "name": "E4",
          "midi": 64,
          "time": 161.75,
          "velocity": 0.6299212598425197,
          "duration": 0.24895833333332007
        },
        {
          "name": "G4",
          "midi": 67,
          "time": 162,
          "velocity": 0.6299212598425197,
          "duration": 0.49895833333332007
        },
        {
          "name": "E4",
          "midi": 64,
          "time": 162.5,
          "velocity": 0.6299212598425197,
          "duration": 0.24895833333332007
        },
        {
          "name": "E4",
          "midi": 64,
          "time": 162.75,
          "velocity": 0.6299212598425197,
          "duration": 0.49895833333332007
        },
        {
          "name": "D4",
          "midi": 62,
          "time": 163.25,
          "velocity": 0.6299212598425197,
          "duration": 0.49895833333332007
        },
        {
          "name": "D4",
          "midi": 62,
          "time": 163.75,
          "velocity": 0.6299212598425197,
          "duration": 0.24895833333332007
        },
        {
          "name": "A4",
          "midi": 69,
          "time": 164,
          "velocity": 0.6299212598425197,
          "duration": 0.24895833333332007
        },
        {
          "name": "A4",
          "midi": 69,
          "time": 164.25,
          "velocity": 0.6299212598425197,
          "duration": 0.24895833333332007
        },
        {
          "name": "A4",
          "midi": 69,
          "time": 164.5,
          "velocity": 0.6299212598425197,
          "duration": 0.37395833333332007
        },
        {
          "name": "A4",
          "midi": 69,
          "time": 164.875,
          "velocity": 0.6299212598425197,
          "duration": 0.12395833333332007
        },
        {
          "name": "A4",
          "midi": 69,
          "time": 165,
          "velocity": 0.6299212598425197,
          "duration": 0.24895833333332007
        },
        {
          "name": "G4",
          "midi": 67,
          "time": 165.25,
          "velocity": 0.6299212598425197,
          "duration": 0.24895833333332007
        },
        {
          "name": "B4",
          "midi": 71,
          "time": 165.5,
          "velocity": 0.6299212598425197,
          "duration": 0.49895833333332007
        },
        {
          "name": "A4",
          "midi": 69,
          "time": 166,
          "velocity": 0.6299212598425197,
          "duration": 0.24895833333332007
        },
        {
          "name": "G4",
          "midi": 67,
          "time": 166.25,
          "velocity": 0.6299212598425197,
          "duration": 0.24895833333332007
        },
        {
          "name": "E4",
          "midi": 64,
          "time": 166.5,
          "velocity": 0.6299212598425197,
          "duration": 0.9989583333333201
        },
        {
          "name": "E4",
          "midi": 64,
          "time": 167.75,
          "velocity": 0.6299212598425197,
          "duration": 0.24895833333332007
        },
        {
          "name": "B4",
          "midi": 71,
          "time": 168,
          "velocity": 0.6299212598425197,
          "duration": 0.49895833333332007
        },
        {
          "name": "B4",
          "midi": 71,
          "time": 168.5,
          "velocity": 0.6299212598425197,
          "duration": 0.24895833333332007
        },
        {
          "name": "D5",
          "midi": 74,
          "time": 168.75,
          "velocity": 0.6299212598425197,
          "duration": 0.49895833333332007
        },
        {
          "name": "B4",
          "midi": 71,
          "time": 169.25,
          "velocity": 0.6299212598425197,
          "duration": 0.24895833333332007
        },
        {
          "name": "A4",
          "midi": 69,
          "time": 169.5,
          "velocity": 0.6299212598425197,
          "duration": 0.24895833333332007
        },
        {
          "name": "G4",
          "midi": 67,
          "time": 169.75,
          "velocity": 0.6299212598425197,
          "duration": 0.24895833333332007
        },
        {
          "name": "B4",
          "midi": 71,
          "time": 170,
          "velocity": 0.6299212598425197,
          "duration": 0.49895833333332007
        },
        {
          "name": "E4",
          "midi": 64,
          "time": 170.5,
          "velocity": 0.6299212598425197,
          "duration": 0.24895833333332007
        },
        {
          "name": "E4",
          "midi": 64,
          "time": 170.75,
          "velocity": 0.6299212598425197,
          "duration": 0.49895833333332007
        },
        {
          "name": "D4",
          "midi": 62,
          "time": 171.25,
          "velocity": 0.6299212598425197,
          "duration": 0.49895833333332007
        },
        {
          "name": "D4",
          "midi": 62,
          "time": 171.75,
          "velocity": 0.6299212598425197,
          "duration": 0.12395833333332007
        },
        {
          "name": "D4",
          "midi": 62,
          "time": 171.875,
          "velocity": 0.6299212598425197,
          "duration": 0.12395833333332007
        },
        {
          "name": "B4",
          "midi": 71,
          "time": 172,
          "velocity": 0.6299212598425197,
          "duration": 0.24895833333332007
        },
        {
          "name": "E4",
          "midi": 64,
          "time": 172.25,
          "velocity": 0.6299212598425197,
          "duration": 0.49895833333332007
        },
        {
          "name": "E4",
          "midi": 64,
          "time": 172.75,
          "velocity": 0.6299212598425197,
          "duration": 0.49895833333332007
        },
        {
          "name": "F#4",
          "midi": 66,
          "time": 173.25,
          "velocity": 0.6299212598425197,
          "duration": 0.49895833333332007
        },
        {
          "name": "F#4",
          "midi": 66,
          "time": 173.75,
          "velocity": 0.6299212598425197,
          "duration": 0.12395833333332007
        },
        {
          "name": "F#4",
          "midi": 66,
          "time": 173.875,
          "velocity": 0.6299212598425197,
          "duration": 0.12395833333332007
        },
        {
          "name": "F#4",
          "midi": 66,
          "time": 174,
          "velocity": 0.6299212598425197,
          "duration": 0.24895833333332007
        },
        {
          "name": "G4",
          "midi": 67,
          "time": 174.25,
          "velocity": 0.6299212598425197,
          "duration": 0.24895833333332007
        },
        {
          "name": "F#4",
          "midi": 66,
          "time": 174.5,
          "velocity": 0.6299212598425197,
          "duration": 0.24895833333332007
        },
        {
          "name": "G4",
          "midi": 67,
          "time": 174.75,
          "velocity": 0.6299212598425197,
          "duration": 0.24895833333332007
        },
        {
          "name": "F#4",
          "midi": 66,
          "time": 175,
          "velocity": 0.6299212598425197,
          "duration": 0.24895833333332007
        },
        {
          "name": "B3",
          "midi": 59,
          "time": 175.25,
          "velocity": 0.6299212598425197,
          "duration": 0.24895833333332007
        },
        {
          "name": "B3",
          "midi": 59,
          "time": 175.5,
          "velocity": 0.6299212598425197,
          "duration": 0.49895833333332007
        },
        {
          "name": "B3",
          "midi": 59,
          "time": 176,
          "velocity": 0.6299212598425197,
          "duration": 0.24895833333332007
        },
        {
          "name": "D4",
          "midi": 62,
          "time": 176.25,
          "velocity": 0.6299212598425197,
          "duration": 0.49895833333332007
        },
        {
          "name": "E4",
          "midi": 64,
          "time": 176.75,
          "velocity": 0.6299212598425197,
          "duration": 0.49895833333332007
        },
        {
          "name": "F#4",
          "midi": 66,
          "time": 177.25,
          "velocity": 0.6299212598425197,
          "duration": 0.49895833333332007
        },
        {
          "name": "E4",
          "midi": 64,
          "time": 177.75,
          "velocity": 0.6299212598425197,
          "duration": 0.24895833333332007
        },
        {
          "name": "G4",
          "midi": 67,
          "time": 178,
          "velocity": 0.6299212598425197,
          "duration": 0.49895833333332007
        },
        {
          "name": "E4",
          "midi": 64,
          "time": 178.5,
          "velocity": 0.6299212598425197,
          "duration": 0.24895833333332007
        },
        {
          "name": "E4",
          "midi": 64,
          "time": 178.75,
          "velocity": 0.6299212598425197,
          "duration": 0.49895833333332007
        },
        {
          "name": "D4",
          "midi": 62,
          "time": 179.25,
          "velocity": 0.6299212598425197,
          "duration": 0.49895833333332007
        },
        {
          "name": "D4",
          "midi": 62,
          "time": 179.75,
          "velocity": 0.6299212598425197,
          "duration": 0.24895833333332007
        },
        {
          "name": "A4",
          "midi": 69,
          "time": 180,
          "velocity": 0.6299212598425197,
          "duration": 0.24895833333332007
        },
        {
          "name": "A4",
          "midi": 69,
          "time": 180.25,
          "velocity": 0.6299212598425197,
          "duration": 0.24895833333332007
        },
        {
          "name": "A4",
          "midi": 69,
          "time": 180.5,
          "velocity": 0.6299212598425197,
          "duration": 0.37395833333332007
        },
        {
          "name": "A4",
          "midi": 69,
          "time": 180.875,
          "velocity": 0.6299212598425197,
          "duration": 0.12395833333332007
        },
        {
          "name": "A4",
          "midi": 69,
          "time": 181,
          "velocity": 0.6299212598425197,
          "duration": 0.24895833333332007
        },
        {
          "name": "G4",
          "midi": 67,
          "time": 181.25,
          "velocity": 0.6299212598425197,
          "duration": 0.24895833333332007
        },
        {
          "name": "B4",
          "midi": 71,
          "time": 181.5,
          "velocity": 0.6299212598425197,
          "duration": 0.49895833333332007
        },
        {
          "name": "D5",
          "midi": 74,
          "time": 182,
          "velocity": 0.6299212598425197,
          "duration": 0.7489583333333201
        },
        {
          "name": "C5",
          "midi": 72,
          "time": 182.75,
          "velocity": 0.6299212598425197,
          "duration": 0.7489583333333201
        },
        {
          "name": "B4",
          "midi": 71,
          "time": 183.5,
          "velocity": 0.6299212598425197,
          "duration": 0.24895833333332007
        },
        {
          "name": "B4",
          "midi": 71,
          "time": 183.75,
          "velocity": 0.6299212598425197,
          "duration": 0.24895833333332007
        },
        {
          "name": "C5",
          "midi": 72,
          "time": 184,
          "velocity": 0.6299212598425197,
          "duration": 0.24895833333332007
        },
        {
          "name": "B4",
          "midi": 71,
          "time": 184.25,
          "velocity": 0.6299212598425197,
          "duration": 0.49895833333332007
        },
        {
          "name": "G4",
          "midi": 67,
          "time": 184.75,
          "velocity": 0.6299212598425197,
          "duration": 0.49895833333332007
        },
        {
          "name": "E4",
          "midi": 64,
          "time": 185.25,
          "velocity": 0.6299212598425197,
          "duration": 0.49895833333332007
        },
        {
          "name": "E4",
          "midi": 64,
          "time": 185.75,
          "velocity": 0.6299212598425197,
          "duration": 0.24895833333332007
        },
        {
          "name": "E4",
          "midi": 64,
          "time": 186,
          "velocity": 0.6299212598425197,
          "duration": 0.24895833333332007
        },
        {
          "name": "A4",
          "midi": 69,
          "time": 186.25,
          "velocity": 0.6299212598425197,
          "duration": 0.49895833333332007
        },
        {
          "name": "A4",
          "midi": 69,
          "time": 186.75,
          "velocity": 0.6299212598425197,
          "duration": 0.49895833333332007
        },
        {
          "name": "B4",
          "midi": 71,
          "time": 187.25,
          "velocity": 0.6299212598425197,
          "duration": 0.49895833333332007
        },
        {
          "name": "B4",
          "midi": 71,
          "time": 187.75,
          "velocity": 0.6299212598425197,
          "duration": 0.24895833333332007
        },
        {
          "name": "C5",
          "midi": 72,
          "time": 188,
          "velocity": 0.6299212598425197,
          "duration": 0.24895833333332007
        },
        {
          "name": "A4",
          "midi": 69,
          "time": 188.25,
          "velocity": 0.6299212598425197,
          "duration": 0.24895833333332007
        },
        {
          "name": "G4",
          "midi": 67,
          "time": 188.5,
          "velocity": 0.6299212598425197,
          "duration": 0.24895833333332007
        },
        {
          "name": "A4",
          "midi": 69,
          "time": 188.75,
          "velocity": 0.6299212598425197,
          "duration": 0.7489583333333201
        },
        {
          "name": "D5",
          "midi": 74,
          "time": 190,
          "velocity": 0.6299212598425197,
          "duration": 0.7489583333333201
        },
        {
          "name": "C5",
          "midi": 72,
          "time": 190.75,
          "velocity": 0.6299212598425197,
          "duration": 0.7489583333333201
        },
        {
          "name": "B4",
          "midi": 71,
          "time": 191.5,
          "velocity": 0.6299212598425197,
          "duration": 0.24895833333332007
        },
        {
          "name": "B4",
          "midi": 71,
          "time": 191.75,
          "velocity": 0.6299212598425197,
          "duration": 0.49895833333332007
        },
        {
          "name": "C5",
          "midi": 72,
          "time": 192.25,
          "velocity": 0.6299212598425197,
          "duration": 0.24895833333332007
        },
        {
          "name": "B4",
          "midi": 71,
          "time": 192.5,
          "velocity": 0.6299212598425197,
          "duration": 0.24895833333332007
        },
        {
          "name": "B4",
          "midi": 71,
          "time": 192.75,
          "velocity": 0.6299212598425197,
          "duration": 0.24895833333332007
        },
        {
          "name": "G4",
          "midi": 67,
          "time": 193,
          "velocity": 0.6299212598425197,
          "duration": 0.24895833333332007
        },
        {
          "name": "E4",
          "midi": 64,
          "time": 193.25,
          "velocity": 0.6299212598425197,
          "duration": 0.49895833333332007
        },
        {
          "name": "E4",
          "midi": 64,
          "time": 193.75,
          "velocity": 0.6299212598425197,
          "duration": 0.24895833333332007
        },
        {
          "name": "E4",
          "midi": 64,
          "time": 194,
          "velocity": 0.6299212598425197,
          "duration": 0.24895833333332007
        },
        {
          "name": "A4",
          "midi": 69,
          "time": 194.25,
          "velocity": 0.6299212598425197,
          "duration": 0.24895833333332007
        },
        {
          "name": "A4",
          "midi": 69,
          "time": 194.5,
          "velocity": 0.6299212598425197,
          "duration": 0.24895833333332007
        },
        {
          "name": "A4",
          "midi": 69,
          "time": 194.75,
          "velocity": 0.6299212598425197,
          "duration": 0.9989583333333201
        },
        {
          "name": "A4",
          "midi": 69,
          "time": 195.75,
          "velocity": 0.6299212598425197,
          "duration": 0.12395833333332007
        },
        {
          "name": "B4",
          "midi": 71,
          "time": 195.875,
          "velocity": 0.6299212598425197,
          "duration": 0.12395833333332007
        },
        {
          "name": "C5",
          "midi": 72,
          "time": 196,
          "velocity": 0.6299212598425197,
          "duration": 0.24895833333332007
        },
        {
          "name": "A4",
          "midi": 69,
          "time": 196.25,
          "velocity": 0.6299212598425197,
          "duration": 0.24895833333332007
        },
        {
          "name": "G4",
          "midi": 67,
          "time": 196.5,
          "velocity": 0.6299212598425197,
          "duration": 0.24895833333332007
        },
        {
          "name": "A4",
          "midi": 69,
          "time": 196.75,
          "velocity": 0.6299212598425197,
          "duration": 0.7489583333333201
        },
        {
          "name": "C5",
          "midi": 72,
          "time": 198,
          "velocity": 0.6299212598425197,
          "duration": 0.49895833333332007
        },
        {
          "name": "C4",
          "midi": 60,
          "time": 198,
          "velocity": 0.6299212598425197,
          "duration": 0.49895833333332007
        },
        {
          "name": "A4",
          "midi": 69,
          "time": 198.5,
          "velocity": 0.6299212598425197,
          "duration": 0.24895833333332007
        },
        {
          "name": "A3",
          "midi": 57,
          "time": 198.5,
          "velocity": 0.6299212598425197,
          "duration": 0.24895833333332007
        },
        {
          "name": "A4",
          "midi": 69,
          "time": 198.75,
          "velocity": 0.6299212598425197,
          "duration": 0.49895833333332007
        },
        {
          "name": "A3",
          "midi": 57,
          "time": 198.75,
          "velocity": 0.6299212598425197,
          "duration": 0.49895833333332007
        },
        {
          "name": "G4",
          "midi": 67,
          "time": 199.25,
          "velocity": 0.6299212598425197,
          "duration": 0.49895833333332007
        },
        {
          "name": "G3",
          "midi": 55,
          "time": 199.25,
          "velocity": 0.6299212598425197,
          "duration": 0.49895833333332007
        },
        {
          "name": "A4",
          "midi": 69,
          "time": 199.75,
          "velocity": 0.6299212598425197,
          "duration": 2.24895833333332
        },
        {
          "name": "A3",
          "midi": 57,
          "time": 199.75,
          "velocity": 0.6299212598425197,
          "duration": 2.24895833333332
        },
        {
          "name": "C5",
          "midi": 72,
          "time": 202,
          "velocity": 0.6299212598425197,
          "duration": 0.49895833333332007
        },
        {
          "name": "C4",
          "midi": 60,
          "time": 202,
          "velocity": 0.6299212598425197,
          "duration": 0.49895833333332007
        },
        {
          "name": "A4",
          "midi": 69,
          "time": 202.5,
          "velocity": 0.6299212598425197,
          "duration": 0.24895833333332007
        },
        {
          "name": "A3",
          "midi": 57,
          "time": 202.5,
          "velocity": 0.6299212598425197,
          "duration": 0.24895833333332007
        },
        {
          "name": "A4",
          "midi": 69,
          "time": 202.75,
          "velocity": 0.6299212598425197,
          "duration": 0.49895833333332007
        },
        {
          "name": "A3",
          "midi": 57,
          "time": 202.75,
          "velocity": 0.6299212598425197,
          "duration": 0.49895833333332007
        },
        {
          "name": "G4",
          "midi": 67,
          "time": 203.25,
          "velocity": 0.6299212598425197,
          "duration": 0.49895833333332007
        },
        {
          "name": "G3",
          "midi": 55,
          "time": 203.25,
          "velocity": 0.6299212598425197,
          "duration": 0.49895833333332007
        },
        {
          "name": "A4",
          "midi": 69,
          "time": 203.75,
          "velocity": 0.6299212598425197,
          "duration": 2.24895833333332
        },
        {
          "name": "A3",
          "midi": 57,
          "time": 203.75,
          "velocity": 0.6299212598425197,
          "duration": 2.24895833333332
        },
        {
          "name": "D#5",
          "midi": 75,
          "time": 206,
          "velocity": 0.6299212598425197,
          "duration": 0.24895833333332007
        },
        {
          "name": "D#4",
          "midi": 63,
          "time": 206,
          "velocity": 0.6299212598425197,
          "duration": 0.24895833333332007
        },
        {
          "name": "D#5",
          "midi": 75,
          "time": 206.25,
          "velocity": 0.6299212598425197,
          "duration": 0.24895833333332007
        },
        {
          "name": "D#4",
          "midi": 63,
          "time": 206.25,
          "velocity": 0.6299212598425197,
          "duration": 0.24895833333332007
        },
        {
          "name": "D#5",
          "midi": 75,
          "time": 206.5,
          "velocity": 0.6299212598425197,
          "duration": 0.24895833333332007
        },
        {
          "name": "D#4",
          "midi": 63,
          "time": 206.5,
          "velocity": 0.6299212598425197,
          "duration": 0.24895833333332007
        },
        {
          "name": "D5",
          "midi": 74,
          "time": 206.75,
          "velocity": 0.6299212598425197,
          "duration": 0.24895833333332007
        },
        {
          "name": "D4",
          "midi": 62,
          "time": 206.75,
          "velocity": 0.6299212598425197,
          "duration": 0.24895833333332007
        },
        {
          "name": "D5",
          "midi": 74,
          "time": 207,
          "velocity": 0.6299212598425197,
          "duration": 0.24895833333332007
        },
        {
          "name": "D4",
          "midi": 62,
          "time": 207,
          "velocity": 0.6299212598425197,
          "duration": 0.24895833333332007
        },
        {
          "name": "D5",
          "midi": 74,
          "time": 207.25,
          "velocity": 0.6299212598425197,
          "duration": 0.24895833333332007
        },
        {
          "name": "D4",
          "midi": 62,
          "time": 207.25,
          "velocity": 0.6299212598425197,
          "duration": 0.24895833333332007
        },
        {
          "name": "A#4",
          "midi": 70,
          "time": 207.5,
          "velocity": 0.6299212598425197,
          "duration": 0.24895833333332007
        },
        {
          "name": "A#3",
          "midi": 58,
          "time": 207.5,
          "velocity": 0.6299212598425197,
          "duration": 0.24895833333332007
        },
        {
          "name": "A#4",
          "midi": 70,
          "time": 207.75,
          "velocity": 0.6299212598425197,
          "duration": 0.24895833333332007
        },
        {
          "name": "A#3",
          "midi": 58,
          "time": 207.75,
          "velocity": 0.6299212598425197,
          "duration": 0.24895833333332007
        },
        {
          "name": "D#5",
          "midi": 75,
          "time": 208,
          "velocity": 0.6299212598425197,
          "duration": 0.24895833333332007
        },
        {
          "name": "D#4",
          "midi": 63,
          "time": 208,
          "velocity": 0.6299212598425197,
          "duration": 0.24895833333332007
        },
        {
          "name": "D#5",
          "midi": 75,
          "time": 208.25,
          "velocity": 0.6299212598425197,
          "duration": 0.24895833333332007
        },
        {
          "name": "D#4",
          "midi": 63,
          "time": 208.25,
          "velocity": 0.6299212598425197,
          "duration": 0.24895833333332007
        },
        {
          "name": "D#5",
          "midi": 75,
          "time": 208.5,
          "velocity": 0.6299212598425197,
          "duration": 0.24895833333332007
        },
        {
          "name": "D#4",
          "midi": 63,
          "time": 208.5,
          "velocity": 0.6299212598425197,
          "duration": 0.24895833333332007
        },
        {
          "name": "D5",
          "midi": 74,
          "time": 208.75,
          "velocity": 0.6299212598425197,
          "duration": 0.24895833333332007
        },
        {
          "name": "D4",
          "midi": 62,
          "time": 208.75,
          "velocity": 0.6299212598425197,
          "duration": 0.24895833333332007
        },
        {
          "name": "D5",
          "midi": 74,
          "time": 209,
          "velocity": 0.6299212598425197,
          "duration": 0.24895833333332007
        },
        {
          "name": "D4",
          "midi": 62,
          "time": 209,
          "velocity": 0.6299212598425197,
          "duration": 0.24895833333332007
        },
        {
          "name": "D5",
          "midi": 74,
          "time": 209.25,
          "velocity": 0.6299212598425197,
          "duration": 0.24895833333332007
        },
        {
          "name": "D4",
          "midi": 62,
          "time": 209.25,
          "velocity": 0.6299212598425197,
          "duration": 0.24895833333332007
        },
        {
          "name": "A#4",
          "midi": 70,
          "time": 209.5,
          "velocity": 0.6299212598425197,
          "duration": 0.24895833333332007
        },
        {
          "name": "A#3",
          "midi": 58,
          "time": 209.5,
          "velocity": 0.6299212598425197,
          "duration": 0.24895833333332007
        },
        {
          "name": "A#4",
          "midi": 70,
          "time": 209.75,
          "velocity": 0.6299212598425197,
          "duration": 0.24895833333332007
        },
        {
          "name": "A#3",
          "midi": 58,
          "time": 209.75,
          "velocity": 0.6299212598425197,
          "duration": 0.24895833333332007
        },
        {
          "name": "C5",
          "midi": 72,
          "time": 210,
          "velocity": 0.6299212598425197,
          "duration": 0.7489583333333201
        },
        {
          "name": "C4",
          "midi": 60,
          "time": 210,
          "velocity": 0.6299212598425197,
          "duration": 0.7489583333333201
        },
        {
          "name": "D5",
          "midi": 74,
          "time": 210.75,
          "velocity": 0.6299212598425197,
          "duration": 0.24895833333332007
        },
        {
          "name": "D4",
          "midi": 62,
          "time": 210.75,
          "velocity": 0.6299212598425197,
          "duration": 0.24895833333332007
        },
        {
          "name": "D5",
          "midi": 74,
          "time": 211,
          "velocity": 0.6299212598425197,
          "duration": 0.49895833333332007
        },
        {
          "name": "D4",
          "midi": 62,
          "time": 211,
          "velocity": 0.6299212598425197,
          "duration": 0.49895833333332007
        },
        {
          "name": "D5",
          "midi": 74,
          "time": 211.5,
          "velocity": 0.6299212598425197,
          "duration": 0.24895833333332007
        },
        {
          "name": "D4",
          "midi": 62,
          "time": 211.5,
          "velocity": 0.6299212598425197,
          "duration": 0.24895833333332007
        },
        {
          "name": "D#5",
          "midi": 75,
          "time": 211.75,
          "velocity": 0.6299212598425197,
          "duration": 0.24895833333332007
        },
        {
          "name": "D#4",
          "midi": 63,
          "time": 211.75,
          "velocity": 0.6299212598425197,
          "duration": 0.24895833333332007
        },
        {
          "name": "D5",
          "midi": 74,
          "time": 212,
          "velocity": 0.6299212598425197,
          "duration": 1.99895833333332
        },
        {
          "name": "D4",
          "midi": 62,
          "time": 212,
          "velocity": 0.6299212598425197,
          "duration": 1.99895833333332
        },
        {
          "name": "D#5",
          "midi": 75,
          "time": 214,
          "velocity": 0.6299212598425197,
          "duration": 0.24895833333332007
        },
        {
          "name": "D#4",
          "midi": 63,
          "time": 214,
          "velocity": 0.6299212598425197,
          "duration": 0.24895833333332007
        },
        {
          "name": "D#5",
          "midi": 75,
          "time": 214.25,
          "velocity": 0.6299212598425197,
          "duration": 0.24895833333332007
        },
        {
          "name": "D#4",
          "midi": 63,
          "time": 214.25,
          "velocity": 0.6299212598425197,
          "duration": 0.24895833333332007
        },
        {
          "name": "D#5",
          "midi": 75,
          "time": 214.5,
          "velocity": 0.6299212598425197,
          "duration": 0.24895833333332007
        },
        {
          "name": "D#4",
          "midi": 63,
          "time": 214.5,
          "velocity": 0.6299212598425197,
          "duration": 0.24895833333332007
        },
        {
          "name": "F5",
          "midi": 77,
          "time": 214.75,
          "velocity": 0.6299212598425197,
          "duration": 0.24895833333332007
        },
        {
          "name": "F4",
          "midi": 65,
          "time": 214.75,
          "velocity": 0.6299212598425197,
          "duration": 0.24895833333332007
        },
        {
          "name": "F5",
          "midi": 77,
          "time": 215,
          "velocity": 0.6299212598425197,
          "duration": 0.24895833333332007
        },
        {
          "name": "F4",
          "midi": 65,
          "time": 215,
          "velocity": 0.6299212598425197,
          "duration": 0.24895833333332007
        },
        {
          "name": "F5",
          "midi": 77,
          "time": 215.25,
          "velocity": 0.6299212598425197,
          "duration": 0.24895833333332007
        },
        {
          "name": "F4",
          "midi": 65,
          "time": 215.25,
          "velocity": 0.6299212598425197,
          "duration": 0.24895833333332007
        },
        {
          "name": "G5",
          "midi": 79,
          "time": 215.5,
          "velocity": 0.6299212598425197,
          "duration": 0.24895833333332007
        },
        {
          "name": "G4",
          "midi": 67,
          "time": 215.5,
          "velocity": 0.6299212598425197,
          "duration": 0.24895833333332007
        },
        {
          "name": "G5",
          "midi": 79,
          "time": 215.75,
          "velocity": 0.6299212598425197,
          "duration": 0.24895833333332007
        },
        {
          "name": "G4",
          "midi": 67,
          "time": 215.75,
          "velocity": 0.6299212598425197,
          "duration": 0.24895833333332007
        },
        {
          "name": "A5",
          "midi": 81,
          "time": 216,
          "velocity": 0.6299212598425197,
          "duration": 0.24895833333332007
        },
        {
          "name": "A4",
          "midi": 69,
          "time": 216,
          "velocity": 0.6299212598425197,
          "duration": 0.24895833333332007
        },
        {
          "name": "A5",
          "midi": 81,
          "time": 216.25,
          "velocity": 0.6299212598425197,
          "duration": 0.24895833333332007
        },
        {
          "name": "A4",
          "midi": 69,
          "time": 216.25,
          "velocity": 0.6299212598425197,
          "duration": 0.24895833333332007
        },
        {
          "name": "A5",
          "midi": 81,
          "time": 216.5,
          "velocity": 0.6299212598425197,
          "duration": 0.24895833333332007
        },
        {
          "name": "A4",
          "midi": 69,
          "time": 216.5,
          "velocity": 0.6299212598425197,
          "duration": 0.24895833333332007
        },
        {
          "name": "A#5",
          "midi": 82,
          "time": 216.75,
          "velocity": 0.6299212598425197,
          "duration": 0.24895833333332007
        },
        {
          "name": "A#4",
          "midi": 70,
          "time": 216.75,
          "velocity": 0.6299212598425197,
          "duration": 0.24895833333332007
        },
        {
          "name": "A#5",
          "midi": 82,
          "time": 217,
          "velocity": 0.6299212598425197,
          "duration": 0.24895833333332007
        },
        {
          "name": "A#4",
          "midi": 70,
          "time": 217,
          "velocity": 0.6299212598425197,
          "duration": 0.24895833333332007
        },
        {
          "name": "A#5",
          "midi": 82,
          "time": 217.25,
          "velocity": 0.6299212598425197,
          "duration": 0.24895833333332007
        },
        {
          "name": "A#4",
          "midi": 70,
          "time": 217.25,
          "velocity": 0.6299212598425197,
          "duration": 0.24895833333332007
        },
        {
          "name": "C6",
          "midi": 84,
          "time": 217.5,
          "velocity": 0.6299212598425197,
          "duration": 0.24895833333332007
        },
        {
          "name": "C5",
          "midi": 72,
          "time": 217.5,
          "velocity": 0.6299212598425197,
          "duration": 0.24895833333332007
        },
        {
          "name": "C6",
          "midi": 84,
          "time": 217.75,
          "velocity": 0.6299212598425197,
          "duration": 0.24895833333332007
        },
        {
          "name": "C5",
          "midi": 72,
          "time": 217.75,
          "velocity": 0.6299212598425197,
          "duration": 0.24895833333332007
        },
        {
          "name": "D6",
          "midi": 86,
          "time": 218,
          "velocity": 0.6299212598425197,
          "duration": 0.7489583333333201
        },
        {
          "name": "D5",
          "midi": 74,
          "time": 218,
          "velocity": 0.6299212598425197,
          "duration": 0.7489583333333201
        },
        {
          "name": "C6",
          "midi": 84,
          "time": 218.75,
          "velocity": 0.6299212598425197,
          "duration": 0.7489583333333201
        },
        {
          "name": "C5",
          "midi": 72,
          "time": 218.75,
          "velocity": 0.6299212598425197,
          "duration": 0.7489583333333201
        },
        {
          "name": "D#6",
          "midi": 87,
          "time": 219.5,
          "velocity": 0.6299212598425197,
          "duration": 0.49895833333332007
        },
        {
          "name": "D#5",
          "midi": 75,
          "time": 219.5,
          "velocity": 0.6299212598425197,
          "duration": 0.49895833333332007
        },
        {
          "name": "D6",
          "midi": 86,
          "time": 220,
          "velocity": 0.6299212598425197,
          "duration": 1.74895833333332
        },
        {
          "name": "D5",
          "midi": 74,
          "time": 220,
          "velocity": 0.6299212598425197,
          "duration": 1.74895833333332
        },
        {
          "name": "E4",
          "midi": 64,
          "time": 221.75,
          "velocity": 0.6299212598425197,
          "duration": 0.24895833333332007
        },
        {
          "name": "B4",
          "midi": 71,
          "time": 222,
          "velocity": 0.6299212598425197,
          "duration": 0.49895833333332007
        },
        {
          "name": "E4",
          "midi": 64,
          "time": 222.5,
          "velocity": 0.6299212598425197,
          "duration": 0.24895833333332007
        },
        {
          "name": "E4",
          "midi": 64,
          "time": 222.75,
          "velocity": 0.6299212598425197,
          "duration": 0.49895833333332007
        },
        {
          "name": "D4",
          "midi": 62,
          "time": 223.25,
          "velocity": 0.6299212598425197,
          "duration": 0.49895833333332007
        },
        {
          "name": "D4",
          "midi": 62,
          "time": 223.75,
          "velocity": 0.6299212598425197,
          "duration": 0.12395833333332007
        },
        {
          "name": "D4",
          "midi": 62,
          "time": 223.875,
          "velocity": 0.6299212598425197,
          "duration": 0.12395833333332007
        },
        {
          "name": "B4",
          "midi": 71,
          "time": 224,
          "velocity": 0.6299212598425197,
          "duration": 0.24895833333332007
        },
        {
          "name": "E4",
          "midi": 64,
          "time": 224.25,
          "velocity": 0.6299212598425197,
          "duration": 0.49895833333332007
        },
        {
          "name": "E4",
          "midi": 64,
          "time": 224.75,
          "velocity": 0.6299212598425197,
          "duration": 0.49895833333332007
        },
        {
          "name": "F#4",
          "midi": 66,
          "time": 225.25,
          "velocity": 0.6299212598425197,
          "duration": 0.49895833333332007
        },
        {
          "name": "F#4",
          "midi": 66,
          "time": 225.75,
          "velocity": 0.6299212598425197,
          "duration": 0.12395833333332007
        },
        {
          "name": "F#4",
          "midi": 66,
          "time": 225.875,
          "velocity": 0.6299212598425197,
          "duration": 0.12395833333332007
        },
        {
          "name": "F#4",
          "midi": 66,
          "time": 226,
          "velocity": 0.6299212598425197,
          "duration": 0.24895833333332007
        },
        {
          "name": "G4",
          "midi": 67,
          "time": 226.25,
          "velocity": 0.6299212598425197,
          "duration": 0.24895833333332007
        },
        {
          "name": "F#4",
          "midi": 66,
          "time": 226.5,
          "velocity": 0.6299212598425197,
          "duration": 0.24895833333332007
        },
        {
          "name": "G4",
          "midi": 67,
          "time": 226.75,
          "velocity": 0.6299212598425197,
          "duration": 0.24895833333332007
        },
        {
          "name": "F#4",
          "midi": 66,
          "time": 227,
          "velocity": 0.6299212598425197,
          "duration": 0.24895833333332007
        },
        {
          "name": "B3",
          "midi": 59,
          "time": 227.25,
          "velocity": 0.6299212598425197,
          "duration": 0.24895833333332007
        },
        {
          "name": "B3",
          "midi": 59,
          "time": 227.5,
          "velocity": 0.6299212598425197,
          "duration": 0.49895833333332007
        },
        {
          "name": "D5",
          "midi": 74,
          "time": 228.25,
          "velocity": 0.6299212598425197,
          "duration": 0.49895833333332007
        },
        {
          "name": "D4",
          "midi": 62,
          "time": 228.25,
          "velocity": 0.6299212598425197,
          "duration": 0.49895833333332007
        },
        {
          "name": "E5",
          "midi": 76,
          "time": 228.75,
          "velocity": 0.6299212598425197,
          "duration": 0.49895833333332007
        },
        {
          "name": "E4",
          "midi": 64,
          "time": 228.75,
          "velocity": 0.6299212598425197,
          "duration": 0.49895833333332007
        },
        {
          "name": "F#5",
          "midi": 78,
          "time": 229.25,
          "velocity": 0.6299212598425197,
          "duration": 0.49895833333332007
        },
        {
          "name": "F#4",
          "midi": 66,
          "time": 229.25,
          "velocity": 0.6299212598425197,
          "duration": 0.49895833333332007
        },
        {
          "name": "E4",
          "midi": 64,
          "time": 229.75,
          "velocity": 0.6299212598425197,
          "duration": 0.24895833333332007
        },
        {
          "name": "G4",
          "midi": 67,
          "time": 230,
          "velocity": 0.6299212598425197,
          "duration": 0.49895833333332007
        },
        {
          "name": "E4",
          "midi": 64,
          "time": 230.5,
          "velocity": 0.6299212598425197,
          "duration": 0.24895833333332007
        },
        {
          "name": "E4",
          "midi": 64,
          "time": 230.75,
          "velocity": 0.6299212598425197,
          "duration": 0.49895833333332007
        },
        {
          "name": "D4",
          "midi": 62,
          "time": 231.25,
          "velocity": 0.6299212598425197,
          "duration": 0.49895833333332007
        },
        {
          "name": "D4",
          "midi": 62,
          "time": 231.75,
          "velocity": 0.6299212598425197,
          "duration": 0.24895833333332007
        },
        {
          "name": "A4",
          "midi": 69,
          "time": 232,
          "velocity": 0.6299212598425197,
          "duration": 0.24895833333332007
        },
        {
          "name": "A4",
          "midi": 69,
          "time": 232.25,
          "velocity": 0.6299212598425197,
          "duration": 0.24895833333332007
        },
        {
          "name": "A4",
          "midi": 69,
          "time": 232.5,
          "velocity": 0.6299212598425197,
          "duration": 0.37395833333332007
        },
        {
          "name": "A4",
          "midi": 69,
          "time": 232.875,
          "velocity": 0.6299212598425197,
          "duration": 0.12395833333332007
        },
        {
          "name": "A4",
          "midi": 69,
          "time": 233,
          "velocity": 0.6299212598425197,
          "duration": 0.24895833333332007
        },
        {
          "name": "G4",
          "midi": 67,
          "time": 233.25,
          "velocity": 0.6299212598425197,
          "duration": 0.24895833333332007
        },
        {
          "name": "B4",
          "midi": 71,
          "time": 233.5,
          "velocity": 0.6299212598425197,
          "duration": 0.49895833333332007
        },
        {
          "name": "A4",
          "midi": 69,
          "time": 234,
          "velocity": 0.6299212598425197,
          "duration": 0.24895833333332007
        },
        {
          "name": "G4",
          "midi": 67,
          "time": 234.25,
          "velocity": 0.6299212598425197,
          "duration": 0.24895833333332007
        },
        {
          "name": "E4",
          "midi": 64,
          "time": 234.5,
          "velocity": 0.6299212598425197,
          "duration": 0.9989583333333201
        },
        {
          "name": "B4",
          "midi": 71,
          "time": 236,
          "velocity": 0.6299212598425197,
          "duration": 0.49895833333332007
        },
        {
          "name": "B4",
          "midi": 71,
          "time": 236.5,
          "velocity": 0.6299212598425197,
          "duration": 0.24895833333332007
        },
        {
          "name": "D5",
          "midi": 74,
          "time": 236.75,
          "velocity": 0.6299212598425197,
          "duration": 0.49895833333332007
        },
        {
          "name": "B4",
          "midi": 71,
          "time": 237.25,
          "velocity": 0.6299212598425197,
          "duration": 0.24895833333332007
        },
        {
          "name": "A4",
          "midi": 69,
          "time": 237.5,
          "velocity": 0.6299212598425197,
          "duration": 0.24895833333332007
        },
        {
          "name": "G4",
          "midi": 67,
          "time": 237.75,
          "velocity": 0.6299212598425197,
          "duration": 0.24895833333332007
        },
        {
          "name": "B4",
          "midi": 71,
          "time": 238,
          "velocity": 0.6299212598425197,
          "duration": 0.49895833333332007
        },
        {
          "name": "E4",
          "midi": 64,
          "time": 238.5,
          "velocity": 0.6299212598425197,
          "duration": 0.24895833333332007
        },
        {
          "name": "E4",
          "midi": 64,
          "time": 238.75,
          "velocity": 0.6299212598425197,
          "duration": 0.49895833333332007
        },
        {
          "name": "D4",
          "midi": 62,
          "time": 239.25,
          "velocity": 0.6299212598425197,
          "duration": 0.49895833333332007
        },
        {
          "name": "D4",
          "midi": 62,
          "time": 239.75,
          "velocity": 0.6299212598425197,
          "duration": 0.12395833333332007
        },
        {
          "name": "D4",
          "midi": 62,
          "time": 239.875,
          "velocity": 0.6299212598425197,
          "duration": 0.12395833333332007
        },
        {
          "name": "B4",
          "midi": 71,
          "time": 240,
          "velocity": 0.6299212598425197,
          "duration": 0.24895833333332007
        },
        {
          "name": "E4",
          "midi": 64,
          "time": 240.25,
          "velocity": 0.6299212598425197,
          "duration": 0.49895833333332007
        },
        {
          "name": "E4",
          "midi": 64,
          "time": 240.75,
          "velocity": 0.6299212598425197,
          "duration": 0.49895833333332007
        },
        {
          "name": "F#4",
          "midi": 66,
          "time": 241.25,
          "velocity": 0.6299212598425197,
          "duration": 0.49895833333332007
        },
        {
          "name": "F#4",
          "midi": 66,
          "time": 241.75,
          "velocity": 0.6299212598425197,
          "duration": 0.12395833333332007
        },
        {
          "name": "F#4",
          "midi": 66,
          "time": 241.875,
          "velocity": 0.6299212598425197,
          "duration": 0.12395833333332007
        },
        {
          "name": "F#4",
          "midi": 66,
          "time": 242,
          "velocity": 0.6299212598425197,
          "duration": 0.24895833333332007
        },
        {
          "name": "G4",
          "midi": 67,
          "time": 242.25,
          "velocity": 0.6299212598425197,
          "duration": 0.24895833333332007
        },
        {
          "name": "F#4",
          "midi": 66,
          "time": 242.5,
          "velocity": 0.6299212598425197,
          "duration": 0.24895833333332007
        },
        {
          "name": "G4",
          "midi": 67,
          "time": 242.75,
          "velocity": 0.6299212598425197,
          "duration": 0.24895833333332007
        },
        {
          "name": "F#4",
          "midi": 66,
          "time": 243,
          "velocity": 0.6299212598425197,
          "duration": 0.24895833333332007
        },
        {
          "name": "B3",
          "midi": 59,
          "time": 243.25,
          "velocity": 0.6299212598425197,
          "duration": 0.49895833333332007
        },
        {
          "name": "B3",
          "midi": 59,
          "time": 243.75,
          "velocity": 0.6299212598425197,
          "duration": 0.12395833333332007
        },
        {
          "name": "B3",
          "midi": 59,
          "time": 243.875,
          "velocity": 0.6299212598425197,
          "duration": 0.12395833333332007
        },
        {
          "name": "B3",
          "midi": 59,
          "time": 244,
          "velocity": 0.6299212598425197,
          "duration": 0.24895833333332007
        },
        {
          "name": "D4",
          "midi": 62,
          "time": 244.25,
          "velocity": 0.6299212598425197,
          "duration": 0.49895833333332007
        },
        {
          "name": "E4",
          "midi": 64,
          "time": 244.75,
          "velocity": 0.6299212598425197,
          "duration": 0.49895833333332007
        },
        {
          "name": "F#4",
          "midi": 66,
          "time": 245.25,
          "velocity": 0.6299212598425197,
          "duration": 0.49895833333332007
        },
        {
          "name": "E4",
          "midi": 64,
          "time": 245.75,
          "velocity": 0.6299212598425197,
          "duration": 0.24895833333332007
        },
        {
          "name": "G4",
          "midi": 67,
          "time": 246,
          "velocity": 0.6299212598425197,
          "duration": 0.49895833333332007
        },
        {
          "name": "E4",
          "midi": 64,
          "time": 246.5,
          "velocity": 0.6299212598425197,
          "duration": 0.24895833333332007
        },
        {
          "name": "E4",
          "midi": 64,
          "time": 246.75,
          "velocity": 0.6299212598425197,
          "duration": 0.49895833333332007
        },
        {
          "name": "D4",
          "midi": 62,
          "time": 247.25,
          "velocity": 0.6299212598425197,
          "duration": 0.49895833333332007
        },
        {
          "name": "D4",
          "midi": 62,
          "time": 247.75,
          "velocity": 0.6299212598425197,
          "duration": 0.24895833333332007
        },
        {
          "name": "A4",
          "midi": 69,
          "time": 248,
          "velocity": 0.6299212598425197,
          "duration": 0.24895833333332007
        },
        {
          "name": "A4",
          "midi": 69,
          "time": 248.25,
          "velocity": 0.6299212598425197,
          "duration": 0.24895833333332007
        },
        {
          "name": "A4",
          "midi": 69,
          "time": 248.5,
          "velocity": 0.6299212598425197,
          "duration": 0.37395833333332007
        },
        {
          "name": "A4",
          "midi": 69,
          "time": 248.875,
          "velocity": 0.6299212598425197,
          "duration": 0.12395833333332007
        },
        {
          "name": "A4",
          "midi": 69,
          "time": 249,
          "velocity": 0.6299212598425197,
          "duration": 0.24895833333332007
        },
        {
          "name": "G4",
          "midi": 67,
          "time": 249.25,
          "velocity": 0.6299212598425197,
          "duration": 0.24895833333332007
        },
        {
          "name": "B4",
          "midi": 71,
          "time": 249.5,
          "velocity": 0.6299212598425197,
          "duration": 0.49895833333332007
        },
        {
          "name": "A4",
          "midi": 69,
          "time": 250,
          "velocity": 0.6299212598425197,
          "duration": 0.24895833333332007
        },
        {
          "name": "G4",
          "midi": 67,
          "time": 250.25,
          "velocity": 0.6299212598425197,
          "duration": 0.24895833333332007
        },
        {
          "name": "E4",
          "midi": 64,
          "time": 250.5,
          "velocity": 0.6299212598425197,
          "duration": 0.9989583333333201
        },
        {
          "name": "E4",
          "midi": 64,
          "time": 251.75,
          "velocity": 0.6299212598425197,
          "duration": 0.24895833333332007
        },
        {
          "name": "B4",
          "midi": 71,
          "time": 252,
          "velocity": 0.6299212598425197,
          "duration": 0.24895833333332007
        },
        {
          "name": "B4",
          "midi": 71,
          "time": 252.25,
          "velocity": 0.6299212598425197,
          "duration": 0.24895833333332007
        },
        {
          "name": "B4",
          "midi": 71,
          "time": 252.5,
          "velocity": 0.6299212598425197,
          "duration": 0.24895833333332007
        },
        {
          "name": "D5",
          "midi": 74,
          "time": 252.75,
          "velocity": 0.6299212598425197,
          "duration": 0.49895833333332007
        },
        {
          "name": "B4",
          "midi": 71,
          "time": 253.25,
          "velocity": 0.6299212598425197,
          "duration": 0.24895833333332007
        },
        {
          "name": "A4",
          "midi": 69,
          "time": 253.5,
          "velocity": 0.6299212598425197,
          "duration": 0.24895833333332007
        },
        {
          "name": "G4",
          "midi": 67,
          "time": 253.75,
          "velocity": 0.6299212598425197,
          "duration": 0.24895833333332007
        },
        {
          "name": "B4",
          "midi": 71,
          "time": 254,
          "velocity": 0.6299212598425197,
          "duration": 0.49895833333332007
        },
        {
          "name": "E4",
          "midi": 64,
          "time": 254.5,
          "velocity": 0.6299212598425197,
          "duration": 0.24895833333332007
        },
        {
          "name": "E4",
          "midi": 64,
          "time": 254.75,
          "velocity": 0.6299212598425197,
          "duration": 0.49895833333332007
        },
        {
          "name": "D4",
          "midi": 62,
          "time": 255.25,
          "velocity": 0.6299212598425197,
          "duration": 0.49895833333332007
        },
        {
          "name": "D4",
          "midi": 62,
          "time": 255.75,
          "velocity": 0.6299212598425197,
          "duration": 0.12395833333332007
        },
        {
          "name": "D4",
          "midi": 62,
          "time": 255.875,
          "velocity": 0.6299212598425197,
          "duration": 0.12395833333332007
        },
        {
          "name": "B4",
          "midi": 71,
          "time": 256,
          "velocity": 0.6299212598425197,
          "duration": 0.2489583333333485
        },
        {
          "name": "E4",
          "midi": 64,
          "time": 256.25,
          "velocity": 0.6299212598425197,
          "duration": 0.4989583333333485
        },
        {
          "name": "E4",
          "midi": 64,
          "time": 256.75,
          "velocity": 0.6299212598425197,
          "duration": 0.4989583333333485
        },
        {
          "name": "F#4",
          "midi": 66,
          "time": 257.25,
          "velocity": 0.6299212598425197,
          "duration": 0.4989583333333485
        },
        {
          "name": "F#4",
          "midi": 66,
          "time": 257.75,
          "velocity": 0.6299212598425197,
          "duration": 0.12395833333334849
        },
        {
          "name": "F#4",
          "midi": 66,
          "time": 257.875,
          "velocity": 0.6299212598425197,
          "duration": 0.12395833333334849
        },
        {
          "name": "F#4",
          "midi": 66,
          "time": 258,
          "velocity": 0.6299212598425197,
          "duration": 0.2489583333333485
        },
        {
          "name": "G4",
          "midi": 67,
          "time": 258.25,
          "velocity": 0.6299212598425197,
          "duration": 0.2489583333333485
        },
        {
          "name": "F#4",
          "midi": 66,
          "time": 258.5,
          "velocity": 0.6299212598425197,
          "duration": 0.2489583333333485
        },
        {
          "name": "G4",
          "midi": 67,
          "time": 258.75,
          "velocity": 0.6299212598425197,
          "duration": 0.2489583333333485
        },
        {
          "name": "F#4",
          "midi": 66,
          "time": 259,
          "velocity": 0.6299212598425197,
          "duration": 0.2489583333333485
        },
        {
          "name": "B3",
          "midi": 59,
          "time": 259.25,
          "velocity": 0.6299212598425197,
          "duration": 0.2489583333333485
        },
        {
          "name": "B3",
          "midi": 59,
          "time": 259.5,
          "velocity": 0.6299212598425197,
          "duration": 0.4989583333333485
        },
        {
          "name": "B3",
          "midi": 59,
          "time": 260,
          "velocity": 0.6299212598425197,
          "duration": 0.2489583333333485
        },
        {
          "name": "D4",
          "midi": 62,
          "time": 260.25,
          "velocity": 0.6299212598425197,
          "duration": 0.4989583333333485
        },
        {
          "name": "E4",
          "midi": 64,
          "time": 260.75,
          "velocity": 0.6299212598425197,
          "duration": 0.4989583333333485
        },
        {
          "name": "F#4",
          "midi": 66,
          "time": 261.25,
          "velocity": 0.6299212598425197,
          "duration": 0.4989583333333485
        },
        {
          "name": "E4",
          "midi": 64,
          "time": 261.75,
          "velocity": 0.6299212598425197,
          "duration": 0.2489583333333485
        },
        {
          "name": "G4",
          "midi": 67,
          "time": 262,
          "velocity": 0.6299212598425197,
          "duration": 0.4989583333333485
        },
        {
          "name": "E4",
          "midi": 64,
          "time": 262.5,
          "velocity": 0.6299212598425197,
          "duration": 0.2489583333333485
        },
        {
          "name": "E4",
          "midi": 64,
          "time": 262.75,
          "velocity": 0.6299212598425197,
          "duration": 0.4989583333333485
        },
        {
          "name": "D4",
          "midi": 62,
          "time": 263.25,
          "velocity": 0.6299212598425197,
          "duration": 0.4989583333333485
        },
        {
          "name": "D4",
          "midi": 62,
          "time": 263.75,
          "velocity": 0.6299212598425197,
          "duration": 0.2489583333333485
        },
        {
          "name": "A4",
          "midi": 69,
          "time": 264,
          "velocity": 0.6299212598425197,
          "duration": 0.2489583333333485
        },
        {
          "name": "A4",
          "midi": 69,
          "time": 264.25,
          "velocity": 0.6299212598425197,
          "duration": 0.2489583333333485
        },
        {
          "name": "A4",
          "midi": 69,
          "time": 264.5,
          "velocity": 0.6299212598425197,
          "duration": 0.3739583333333485
        },
        {
          "name": "A4",
          "midi": 69,
          "time": 264.875,
          "velocity": 0.6299212598425197,
          "duration": 0.12395833333334849
        },
        {
          "name": "A4",
          "midi": 69,
          "time": 265,
          "velocity": 0.6299212598425197,
          "duration": 0.2489583333333485
        },
        {
          "name": "G4",
          "midi": 67,
          "time": 265.25,
          "velocity": 0.6299212598425197,
          "duration": 0.2489583333333485
        },
        {
          "name": "B4",
          "midi": 71,
          "time": 265.5,
          "velocity": 0.6299212598425197,
          "duration": 0.4989583333333485
        },
        {
          "name": "B3",
          "midi": 59,
          "time": 266,
          "velocity": 0.6299212598425197,
          "duration": 0.4989583333333485
        },
        {
          "name": "D4",
          "midi": 62,
          "time": 266.5,
          "velocity": 0.6299212598425197,
          "duration": 0.2489583333333485
        },
        {
          "name": "G4",
          "midi": 67,
          "time": 266.75,
          "velocity": 0.6299212598425197,
          "duration": 0.4989583333333485
        },
        {
          "name": "F#4",
          "midi": 66,
          "time": 267.25,
          "velocity": 0.6299212598425197,
          "duration": 0.4989583333333485
        },
        {
          "name": "D4",
          "midi": 62,
          "time": 267.75,
          "velocity": 0.6299212598425197,
          "duration": 2.2489583333333485
        },
        {
          "name": "B3",
          "midi": 59,
          "time": 270,
          "velocity": 0.6299212598425197,
          "duration": 0.4989583333333485
        },
        {
          "name": "D4",
          "midi": 62,
          "time": 270.5,
          "velocity": 0.6299212598425197,
          "duration": 0.2489583333333485
        },
        {
          "name": "G4",
          "midi": 67,
          "time": 270.75,
          "velocity": 0.6299212598425197,
          "duration": 0.4989583333333485
        },
        {
          "name": "F#4",
          "midi": 66,
          "time": 271.25,
          "velocity": 0.6299212598425197,
          "duration": 0.4989583333333485
        },
        {
          "name": "A4",
          "midi": 69,
          "time": 271.75,
          "velocity": 0.6299212598425197,
          "duration": 0.4989583333333485
        },
        {
          "name": "G4",
          "midi": 67,
          "time": 272.25,
          "velocity": 0.6299212598425197,
          "duration": 0.2489583333333485
        },
        {
          "name": "F#4",
          "midi": 66,
          "time": 272.5,
          "velocity": 0.6299212598425197,
          "duration": 0.2489583333333485
        },
        {
          "name": "D#4",
          "midi": 63,
          "time": 272.75,
          "velocity": 0.6299212598425197,
          "duration": 1.2489583333333485
        },
        {
          "name": "B3",
          "midi": 59,
          "time": 274,
          "velocity": 0.6299212598425197,
          "duration": 0.4989583333333485
        },
        {
          "name": "D4",
          "midi": 62,
          "time": 274.5,
          "velocity": 0.6299212598425197,
          "duration": 0.2489583333333485
        },
        {
          "name": "G4",
          "midi": 67,
          "time": 274.75,
          "velocity": 0.6299212598425197,
          "duration": 0.4989583333333485
        },
        {
          "name": "F#4",
          "midi": 66,
          "time": 275.25,
          "velocity": 0.6299212598425197,
          "duration": 0.4989583333333485
        },
        {
          "name": "D4",
          "midi": 62,
          "time": 275.75,
          "velocity": 0.6299212598425197,
          "duration": 2.2489583333333485
        },
        {
          "name": "B3",
          "midi": 59,
          "time": 278,
          "velocity": 0.6299212598425197,
          "duration": 0.4989583333333485
        },
        {
          "name": "D4",
          "midi": 62,
          "time": 278.5,
          "velocity": 0.6299212598425197,
          "duration": 0.2489583333333485
        },
        {
          "name": "G4",
          "midi": 67,
          "time": 278.75,
          "velocity": 0.6299212598425197,
          "duration": 0.4989583333333485
        },
        {
          "name": "F#4",
          "midi": 66,
          "time": 279.25,
          "velocity": 0.6299212598425197,
          "duration": 0.4989583333333485
        },
        {
          "name": "A4",
          "midi": 69,
          "time": 279.75,
          "velocity": 0.6299212598425197,
          "duration": 0.4989583333333485
        },
        {
          "name": "G4",
          "midi": 67,
          "time": 280.25,
          "velocity": 0.6299212598425197,
          "duration": 0.2489583333333485
        },
        {
          "name": "F#4",
          "midi": 66,
          "time": 280.5,
          "velocity": 0.6299212598425197,
          "duration": 0.2489583333333485
        },
        {
          "name": "D#4",
          "midi": 63,
          "time": 280.75,
          "velocity": 0.6299212598425197,
          "duration": 1.2489583333333485
        },
        {
          "name": "B3",
          "midi": 59,
          "time": 282,
          "velocity": 0.6299212598425197,
          "duration": 0.4989583333333485
        },
        {
          "name": "D4",
          "midi": 62,
          "time": 282.5,
          "velocity": 0.6299212598425197,
          "duration": 0.2489583333333485
        },
        {
          "name": "G4",
          "midi": 67,
          "time": 282.75,
          "velocity": 0.6299212598425197,
          "duration": 0.4989583333333485
        },
        {
          "name": "F#4",
          "midi": 66,
          "time": 283.25,
          "velocity": 0.6299212598425197,
          "duration": 0.4989583333333485
        },
        {
          "name": "D4",
          "midi": 62,
          "time": 283.75,
          "velocity": 0.6299212598425197,
          "duration": 2.2489583333333485
        },
        {
          "name": "B3",
          "midi": 59,
          "time": 286,
          "velocity": 0.6299212598425197,
          "duration": 0.4989583333333485
        },
        {
          "name": "D4",
          "midi": 62,
          "time": 286.5,
          "velocity": 0.6299212598425197,
          "duration": 0.2489583333333485
        },
        {
          "name": "G4",
          "midi": 67,
          "time": 286.75,
          "velocity": 0.6299212598425197,
          "duration": 0.4989583333333485
        },
        {
          "name": "F#4",
          "midi": 66,
          "time": 287.25,
          "velocity": 0.6299212598425197,
          "duration": 0.4989583333333485
        },
        {
          "name": "D#4",
          "midi": 63,
          "time": 287.75,
          "velocity": 0.6299212598425197,
          "duration": 0.4989583333333485
        },
        {
          "name": "E4",
          "midi": 64,
          "time": 288.25,
          "velocity": 0.6299212598425197,
          "duration": 0.2489583333333485
        },
        {
          "name": "D#4",
          "midi": 63,
          "time": 288.5,
          "velocity": 0.6299212598425197,
          "duration": 0.2489583333333485
        },
        {
          "name": "E4",
          "midi": 64,
          "time": 288.75,
          "velocity": 0.6299212598425197,
          "duration": 0.2489583333333485
        },
        {
          "name": "D#4",
          "midi": 63,
          "time": 289,
          "velocity": 0.6299212598425197,
          "duration": 0.2489583333333485
        },
        {
          "name": "E4",
          "midi": 64,
          "time": 289.25,
          "velocity": 0.6299212598425197,
          "duration": 0.2489583333333485
        },
        {
          "name": "D#4",
          "midi": 63,
          "time": 289.5,
          "velocity": 0.6299212598425197,
          "duration": 0.2489583333333485
        },
        {
          "name": "E4",
          "midi": 64,
          "time": 289.75,
          "velocity": 0.6299212598425197,
          "duration": 0.2489583333333485
        },
        {
          "name": "D#4",
          "midi": 63,
          "time": 290,
          "velocity": 0.6299212598425197,
          "duration": 0.2489583333333485
        },
        {
          "name": "E4",
          "midi": 64,
          "time": 290.25,
          "velocity": 0.6299212598425197,
          "duration": 0.2489583333333485
        },
        {
          "name": "D#4",
          "midi": 63,
          "time": 290.5,
          "velocity": 0.6299212598425197,
          "duration": 0.2489583333333485
        },
        {
          "name": "E4",
          "midi": 64,
          "time": 290.75,
          "velocity": 0.6299212598425197,
          "duration": 0.2489583333333485
        },
        {
          "name": "D#4",
          "midi": 63,
          "time": 291,
          "velocity": 0.6299212598425197,
          "duration": 0.9989583333333485
        },
        {
          "name": "E5",
          "midi": 76,
          "time": 292,
          "velocity": 0.6299212598425197,
          "duration": 1.7489583333333485
        },
        {
          "name": "B4",
          "midi": 71,
          "time": 292,
          "velocity": 0.6299212598425197,
          "duration": 1.7489583333333485
        },
        {
          "name": "E4",
          "midi": 64,
          "time": 292,
          "velocity": 0.6299212598425197,
          "duration": 1.7489583333333485
        }
      ],
      "controlChanges": {
        "7": [
          {
            "number": 7,
            "time": 0.0020833333333333333,
            "value": 0.7874015748031497
          }
        ],
        "10": [
          {
            "number": 10,
            "time": 0.004166666666666667,
            "value": 0.5039370078740157
          }
        ],
        "91": [
          {
            "number": 91,
            "time": 0.00625,
            "value": 0.23622047244094488
          }
        ],
        "93": [
          {
            "number": 93,
            "time": 0.008333333333333333,
            "value": 0.23622047244094488
          }
        ]
      },
      "id": 0,
      "instrumentNumber": 0,
      "instrument": "acoustic grand piano",
      "instrumentFamily": "piano",
      "channelNumber": 0,
      "isPercussion": false
    },
    {
      "startTime": 6,
      "duration": 293.74895833333335,
      "length": 45,
      "notes": [
        {
          "name": "E5",
          "midi": 76,
          "time": 6,
          "velocity": 0.6299212598425197,
          "duration": 0.2489583333333334
        },
        {
          "name": "D5",
          "midi": 74,
          "time": 6.25,
          "velocity": 0.6299212598425197,
          "duration": 0.2489583333333334
        },
        {
          "name": "A4",
          "midi": 69,
          "time": 6.5,
          "velocity": 0.6299212598425197,
          "duration": 0.2489583333333334
        },
        {
          "name": "E5",
          "midi": 76,
          "time": 6.75,
          "velocity": 0.6299212598425197,
          "duration": 0.4989583333333334
        },
        {
          "name": "D5",
          "midi": 74,
          "time": 7.25,
          "velocity": 0.6299212598425197,
          "duration": 0.2489583333333334
        },
        {
          "name": "A4",
          "midi": 69,
          "time": 7.5,
          "velocity": 0.6299212598425197,
          "duration": 0.2489583333333334
        },
        {
          "name": "E5",
          "midi": 76,
          "time": 14,
          "velocity": 0.6299212598425197,
          "duration": 0.2489583333333325
        },
        {
          "name": "D5",
          "midi": 74,
          "time": 14.25,
          "velocity": 0.6299212598425197,
          "duration": 0.2489583333333325
        },
        {
          "name": "A4",
          "midi": 69,
          "time": 14.5,
          "velocity": 0.6299212598425197,
          "duration": 0.2489583333333325
        },
        {
          "name": "E5",
          "midi": 76,
          "time": 14.75,
          "velocity": 0.6299212598425197,
          "duration": 0.4989583333333325
        },
        {
          "name": "D5",
          "midi": 74,
          "time": 15.25,
          "velocity": 0.6299212598425197,
          "duration": 0.2489583333333325
        },
        {
          "name": "A4",
          "midi": 69,
          "time": 15.5,
          "velocity": 0.6299212598425197,
          "duration": 0.2489583333333325
        },
        {
          "name": "E4",
          "midi": 64,
          "time": 38,
          "velocity": 0.6299212598425197,
          "duration": 0.9989583333333343
        },
        {
          "name": "B4",
          "midi": 71,
          "time": 38.0625,
          "velocity": 0.6299212598425197,
          "duration": 0.9989583333333343
        },
        {
          "name": "E5",
          "midi": 76,
          "time": 38.125,
          "velocity": 0.6299212598425197,
          "duration": 0.9989583333333343
        },
        {
          "name": "E4",
          "midi": 64,
          "time": 46,
          "velocity": 0.6299212598425197,
          "duration": 0.9989583333333343
        },
        {
          "name": "B4",
          "midi": 71,
          "time": 46.0625,
          "velocity": 0.6299212598425197,
          "duration": 0.9989583333333343
        },
        {
          "name": "E5",
          "midi": 76,
          "time": 46.125,
          "velocity": 0.6299212598425197,
          "duration": 0.9989583333333343
        },
        {
          "name": "E4",
          "midi": 64,
          "time": 122,
          "velocity": 0.6299212598425197,
          "duration": 0.9989583333333343
        },
        {
          "name": "B4",
          "midi": 71,
          "time": 122.0625,
          "velocity": 0.6299212598425197,
          "duration": 0.9989583333333343
        },
        {
          "name": "E5",
          "midi": 76,
          "time": 122.125,
          "velocity": 0.6299212598425197,
          "duration": 0.9989583333333343
        },
        {
          "name": "E4",
          "midi": 64,
          "time": 130,
          "velocity": 0.6299212598425197,
          "duration": 0.9989583333333201
        },
        {
          "name": "B4",
          "midi": 71,
          "time": 130.0625,
          "velocity": 0.6299212598425197,
          "duration": 0.9989583333333201
        },
        {
          "name": "E5",
          "midi": 76,
          "time": 130.125,
          "velocity": 0.6299212598425197,
          "duration": 0.9989583333333201
        },
        {
          "name": "E5",
          "midi": 76,
          "time": 268,
          "velocity": 0.6299212598425197,
          "duration": 0.2489583333333485
        },
        {
          "name": "D5",
          "midi": 74,
          "time": 268.25,
          "velocity": 0.6299212598425197,
          "duration": 0.2489583333333485
        },
        {
          "name": "A4",
          "midi": 69,
          "time": 268.5,
          "velocity": 0.6299212598425197,
          "duration": 0.2489583333333485
        },
        {
          "name": "E5",
          "midi": 76,
          "time": 268.75,
          "velocity": 0.6299212598425197,
          "duration": 0.4989583333333485
        },
        {
          "name": "D5",
          "midi": 74,
          "time": 269.25,
          "velocity": 0.6299212598425197,
          "duration": 0.2489583333333485
        },
        {
          "name": "A4",
          "midi": 69,
          "time": 269.5,
          "velocity": 0.6299212598425197,
          "duration": 0.4989583333333485
        },
        {
          "name": "E5",
          "midi": 76,
          "time": 276,
          "velocity": 0.6299212598425197,
          "duration": 0.2489583333333485
        },
        {
          "name": "D5",
          "midi": 74,
          "time": 276.25,
          "velocity": 0.6299212598425197,
          "duration": 0.2489583333333485
        },
        {
          "name": "A4",
          "midi": 69,
          "time": 276.5,
          "velocity": 0.6299212598425197,
          "duration": 0.2489583333333485
        },
        {
          "name": "E5",
          "midi": 76,
          "time": 276.75,
          "velocity": 0.6299212598425197,
          "duration": 0.4989583333333485
        },
        {
          "name": "D5",
          "midi": 74,
          "time": 277.25,
          "velocity": 0.6299212598425197,
          "duration": 0.2489583333333485
        },
        {
          "name": "A4",
          "midi": 69,
          "time": 277.5,
          "velocity": 0.6299212598425197,
          "duration": 0.4989583333333485
        },
        {
          "name": "E5",
          "midi": 76,
          "time": 284,
          "velocity": 0.6299212598425197,
          "duration": 0.2489583333333485
        },
        {
          "name": "D5",
          "midi": 74,
          "time": 284.25,
          "velocity": 0.6299212598425197,
          "duration": 0.2489583333333485
        },
        {
          "name": "A4",
          "midi": 69,
          "time": 284.5,
          "velocity": 0.6299212598425197,
          "duration": 0.2489583333333485
        },
        {
          "name": "E5",
          "midi": 76,
          "time": 284.75,
          "velocity": 0.6299212598425197,
          "duration": 0.4989583333333485
        },
        {
          "name": "D5",
          "midi": 74,
          "time": 285.25,
          "velocity": 0.6299212598425197,
          "duration": 0.2489583333333485
        },
        {
          "name": "A4",
          "midi": 69,
          "time": 285.5,
          "velocity": 0.6299212598425197,
          "duration": 0.4989583333333485
        },
        {
          "name": "E5",
          "midi": 76,
          "time": 292,
          "velocity": 0.6299212598425197,
          "duration": 1.7489583333333485
        },
        {
          "name": "B4",
          "midi": 71,
          "time": 292,
          "velocity": 0.6299212598425197,
          "duration": 1.7489583333333485
        },
        {
          "name": "E4",
          "midi": 64,
          "time": 292,
          "velocity": 0.6299212598425197,
          "duration": 1.7489583333333485
        }
      ],
      "controlChanges": {},
      "id": 1,
      "channelNumber": 0,
      "isPercussion": false
    },
    {
      "startTime": 4,
      "duration": 293.99895833333335,
      "length": 1521,
      "notes": [
        {
          "name": "E3",
          "midi": 52,
          "time": 4,
          "velocity": 0.6299212598425197,
          "duration": 0.2489583333333334
        },
        {
          "name": "E2",
          "midi": 40,
          "time": 4,
          "velocity": 0.6299212598425197,
          "duration": 0.2489583333333334
        },
        {
          "name": "E3",
          "midi": 52,
          "time": 4.25,
          "velocity": 0.6299212598425197,
          "duration": 0.2489583333333334
        },
        {
          "name": "E2",
          "midi": 40,
          "time": 4.25,
          "velocity": 0.6299212598425197,
          "duration": 0.2489583333333334
        },
        {
          "name": "E3",
          "midi": 52,
          "time": 4.5,
          "velocity": 0.6299212598425197,
          "duration": 0.2489583333333334
        },
        {
          "name": "E2",
          "midi": 40,
          "time": 4.5,
          "velocity": 0.6299212598425197,
          "duration": 0.2489583333333334
        },
        {
          "name": "E3",
          "midi": 52,
          "time": 4.75,
          "velocity": 0.6299212598425197,
          "duration": 0.2489583333333334
        },
        {
          "name": "E2",
          "midi": 40,
          "time": 4.75,
          "velocity": 0.6299212598425197,
          "duration": 0.2489583333333334
        },
        {
          "name": "E3",
          "midi": 52,
          "time": 5,
          "velocity": 0.6299212598425197,
          "duration": 0.2489583333333334
        },
        {
          "name": "E2",
          "midi": 40,
          "time": 5,
          "velocity": 0.6299212598425197,
          "duration": 0.2489583333333334
        },
        {
          "name": "E3",
          "midi": 52,
          "time": 5.25,
          "velocity": 0.6299212598425197,
          "duration": 0.2489583333333334
        },
        {
          "name": "E2",
          "midi": 40,
          "time": 5.25,
          "velocity": 0.6299212598425197,
          "duration": 0.2489583333333334
        },
        {
          "name": "E3",
          "midi": 52,
          "time": 5.5,
          "velocity": 0.6299212598425197,
          "duration": 0.2489583333333334
        },
        {
          "name": "E2",
          "midi": 40,
          "time": 5.5,
          "velocity": 0.6299212598425197,
          "duration": 0.2489583333333334
        },
        {
          "name": "E3",
          "midi": 52,
          "time": 5.75,
          "velocity": 0.6299212598425197,
          "duration": 0.2489583333333334
        },
        {
          "name": "E2",
          "midi": 40,
          "time": 5.75,
          "velocity": 0.6299212598425197,
          "duration": 0.2489583333333334
        },
        {
          "name": "D3",
          "midi": 50,
          "time": 6,
          "velocity": 0.6299212598425197,
          "duration": 0.2489583333333334
        },
        {
          "name": "D2",
          "midi": 38,
          "time": 6,
          "velocity": 0.6299212598425197,
          "duration": 0.2489583333333334
        },
        {
          "name": "D3",
          "midi": 50,
          "time": 6.25,
          "velocity": 0.6299212598425197,
          "duration": 0.2489583333333334
        },
        {
          "name": "D2",
          "midi": 38,
          "time": 6.25,
          "velocity": 0.6299212598425197,
          "duration": 0.2489583333333334
        },
        {
          "name": "D3",
          "midi": 50,
          "time": 6.5,
          "velocity": 0.6299212598425197,
          "duration": 0.2489583333333334
        },
        {
          "name": "D2",
          "midi": 38,
          "time": 6.5,
          "velocity": 0.6299212598425197,
          "duration": 0.2489583333333334
        },
        {
          "name": "D3",
          "midi": 50,
          "time": 6.75,
          "velocity": 0.6299212598425197,
          "duration": 0.2489583333333334
        },
        {
          "name": "D2",
          "midi": 38,
          "time": 6.75,
          "velocity": 0.6299212598425197,
          "duration": 0.2489583333333334
        },
        {
          "name": "D3",
          "midi": 50,
          "time": 7,
          "velocity": 0.6299212598425197,
          "duration": 0.2489583333333334
        },
        {
          "name": "D2",
          "midi": 38,
          "time": 7,
          "velocity": 0.6299212598425197,
          "duration": 0.2489583333333334
        },
        {
          "name": "D3",
          "midi": 50,
          "time": 7.25,
          "velocity": 0.6299212598425197,
          "duration": 0.2489583333333334
        },
        {
          "name": "D2",
          "midi": 38,
          "time": 7.25,
          "velocity": 0.6299212598425197,
          "duration": 0.2489583333333334
        },
        {
          "name": "D3",
          "midi": 50,
          "time": 7.5,
          "velocity": 0.6299212598425197,
          "duration": 0.2489583333333334
        },
        {
          "name": "D2",
          "midi": 38,
          "time": 7.5,
          "velocity": 0.6299212598425197,
          "duration": 0.2489583333333334
        },
        {
          "name": "D3",
          "midi": 50,
          "time": 7.75,
          "velocity": 0.6299212598425197,
          "duration": 0.2489583333333334
        },
        {
          "name": "D2",
          "midi": 38,
          "time": 7.75,
          "velocity": 0.6299212598425197,
          "duration": 0.2489583333333334
        },
        {
          "name": "C3",
          "midi": 48,
          "time": 8,
          "velocity": 0.6299212598425197,
          "duration": 0.2489583333333325
        },
        {
          "name": "C2",
          "midi": 36,
          "time": 8,
          "velocity": 0.6299212598425197,
          "duration": 0.2489583333333325
        },
        {
          "name": "C3",
          "midi": 48,
          "time": 8.25,
          "velocity": 0.6299212598425197,
          "duration": 0.2489583333333325
        },
        {
          "name": "C2",
          "midi": 36,
          "time": 8.25,
          "velocity": 0.6299212598425197,
          "duration": 0.2489583333333325
        },
        {
          "name": "C3",
          "midi": 48,
          "time": 8.5,
          "velocity": 0.6299212598425197,
          "duration": 0.2489583333333325
        },
        {
          "name": "C2",
          "midi": 36,
          "time": 8.5,
          "velocity": 0.6299212598425197,
          "duration": 0.2489583333333325
        },
        {
          "name": "C3",
          "midi": 48,
          "time": 8.75,
          "velocity": 0.6299212598425197,
          "duration": 0.2489583333333325
        },
        {
          "name": "C2",
          "midi": 36,
          "time": 8.75,
          "velocity": 0.6299212598425197,
          "duration": 0.2489583333333325
        },
        {
          "name": "C3",
          "midi": 48,
          "time": 9,
          "velocity": 0.6299212598425197,
          "duration": 0.2489583333333325
        },
        {
          "name": "C2",
          "midi": 36,
          "time": 9,
          "velocity": 0.6299212598425197,
          "duration": 0.2489583333333325
        },
        {
          "name": "C3",
          "midi": 48,
          "time": 9.25,
          "velocity": 0.6299212598425197,
          "duration": 0.2489583333333325
        },
        {
          "name": "C2",
          "midi": 36,
          "time": 9.25,
          "velocity": 0.6299212598425197,
          "duration": 0.2489583333333325
        },
        {
          "name": "C3",
          "midi": 48,
          "time": 9.5,
          "velocity": 0.6299212598425197,
          "duration": 0.2489583333333325
        },
        {
          "name": "C2",
          "midi": 36,
          "time": 9.5,
          "velocity": 0.6299212598425197,
          "duration": 0.2489583333333325
        },
        {
          "name": "C3",
          "midi": 48,
          "time": 9.75,
          "velocity": 0.6299212598425197,
          "duration": 0.2489583333333325
        },
        {
          "name": "C2",
          "midi": 36,
          "time": 9.75,
          "velocity": 0.6299212598425197,
          "duration": 0.2489583333333325
        },
        {
          "name": "B2",
          "midi": 47,
          "time": 10,
          "velocity": 0.6299212598425197,
          "duration": 0.2489583333333325
        },
        {
          "name": "B1",
          "midi": 35,
          "time": 10,
          "velocity": 0.6299212598425197,
          "duration": 0.2489583333333325
        },
        {
          "name": "B2",
          "midi": 47,
          "time": 10.25,
          "velocity": 0.6299212598425197,
          "duration": 0.2489583333333325
        },
        {
          "name": "B1",
          "midi": 35,
          "time": 10.25,
          "velocity": 0.6299212598425197,
          "duration": 0.2489583333333325
        },
        {
          "name": "B2",
          "midi": 47,
          "time": 10.5,
          "velocity": 0.6299212598425197,
          "duration": 0.2489583333333325
        },
        {
          "name": "B1",
          "midi": 35,
          "time": 10.5,
          "velocity": 0.6299212598425197,
          "duration": 0.2489583333333325
        },
        {
          "name": "B2",
          "midi": 47,
          "time": 10.75,
          "velocity": 0.6299212598425197,
          "duration": 0.2489583333333325
        },
        {
          "name": "B1",
          "midi": 35,
          "time": 10.75,
          "velocity": 0.6299212598425197,
          "duration": 0.2489583333333325
        },
        {
          "name": "B2",
          "midi": 47,
          "time": 11,
          "velocity": 0.6299212598425197,
          "duration": 0.2489583333333325
        },
        {
          "name": "B1",
          "midi": 35,
          "time": 11,
          "velocity": 0.6299212598425197,
          "duration": 0.2489583333333325
        },
        {
          "name": "B2",
          "midi": 47,
          "time": 11.25,
          "velocity": 0.6299212598425197,
          "duration": 0.2489583333333325
        },
        {
          "name": "B1",
          "midi": 35,
          "time": 11.25,
          "velocity": 0.6299212598425197,
          "duration": 0.2489583333333325
        },
        {
          "name": "B2",
          "midi": 47,
          "time": 11.5,
          "velocity": 0.6299212598425197,
          "duration": 0.2489583333333325
        },
        {
          "name": "B1",
          "midi": 35,
          "time": 11.5,
          "velocity": 0.6299212598425197,
          "duration": 0.2489583333333325
        },
        {
          "name": "B2",
          "midi": 47,
          "time": 11.75,
          "velocity": 0.6299212598425197,
          "duration": 0.2489583333333325
        },
        {
          "name": "B1",
          "midi": 35,
          "time": 11.75,
          "velocity": 0.6299212598425197,
          "duration": 0.2489583333333325
        },
        {
          "name": "E3",
          "midi": 52,
          "time": 12,
          "velocity": 0.6299212598425197,
          "duration": 0.2489583333333325
        },
        {
          "name": "E2",
          "midi": 40,
          "time": 12,
          "velocity": 0.6299212598425197,
          "duration": 0.2489583333333325
        },
        {
          "name": "E3",
          "midi": 52,
          "time": 12.25,
          "velocity": 0.6299212598425197,
          "duration": 0.2489583333333325
        },
        {
          "name": "E2",
          "midi": 40,
          "time": 12.25,
          "velocity": 0.6299212598425197,
          "duration": 0.2489583333333325
        },
        {
          "name": "E3",
          "midi": 52,
          "time": 12.5,
          "velocity": 0.6299212598425197,
          "duration": 0.2489583333333325
        },
        {
          "name": "E2",
          "midi": 40,
          "time": 12.5,
          "velocity": 0.6299212598425197,
          "duration": 0.2489583333333325
        },
        {
          "name": "E3",
          "midi": 52,
          "time": 12.75,
          "velocity": 0.6299212598425197,
          "duration": 0.2489583333333325
        },
        {
          "name": "E2",
          "midi": 40,
          "time": 12.75,
          "velocity": 0.6299212598425197,
          "duration": 0.2489583333333325
        },
        {
          "name": "E3",
          "midi": 52,
          "time": 13,
          "velocity": 0.6299212598425197,
          "duration": 0.2489583333333325
        },
        {
          "name": "E2",
          "midi": 40,
          "time": 13,
          "velocity": 0.6299212598425197,
          "duration": 0.2489583333333325
        },
        {
          "name": "E3",
          "midi": 52,
          "time": 13.25,
          "velocity": 0.6299212598425197,
          "duration": 0.2489583333333325
        },
        {
          "name": "E2",
          "midi": 40,
          "time": 13.25,
          "velocity": 0.6299212598425197,
          "duration": 0.2489583333333325
        },
        {
          "name": "E3",
          "midi": 52,
          "time": 13.5,
          "velocity": 0.6299212598425197,
          "duration": 0.2489583333333325
        },
        {
          "name": "E2",
          "midi": 40,
          "time": 13.5,
          "velocity": 0.6299212598425197,
          "duration": 0.2489583333333325
        },
        {
          "name": "E3",
          "midi": 52,
          "time": 13.75,
          "velocity": 0.6299212598425197,
          "duration": 0.2489583333333325
        },
        {
          "name": "E2",
          "midi": 40,
          "time": 13.75,
          "velocity": 0.6299212598425197,
          "duration": 0.2489583333333325
        },
        {
          "name": "D3",
          "midi": 50,
          "time": 14,
          "velocity": 0.6299212598425197,
          "duration": 0.2489583333333325
        },
        {
          "name": "D2",
          "midi": 38,
          "time": 14,
          "velocity": 0.6299212598425197,
          "duration": 0.2489583333333325
        },
        {
          "name": "D3",
          "midi": 50,
          "time": 14.25,
          "velocity": 0.6299212598425197,
          "duration": 0.2489583333333325
        },
        {
          "name": "D2",
          "midi": 38,
          "time": 14.25,
          "velocity": 0.6299212598425197,
          "duration": 0.2489583333333325
        },
        {
          "name": "D3",
          "midi": 50,
          "time": 14.5,
          "velocity": 0.6299212598425197,
          "duration": 0.2489583333333325
        },
        {
          "name": "D2",
          "midi": 38,
          "time": 14.5,
          "velocity": 0.6299212598425197,
          "duration": 0.2489583333333325
        },
        {
          "name": "D3",
          "midi": 50,
          "time": 14.75,
          "velocity": 0.6299212598425197,
          "duration": 0.2489583333333325
        },
        {
          "name": "D2",
          "midi": 38,
          "time": 14.75,
          "velocity": 0.6299212598425197,
          "duration": 0.2489583333333325
        },
        {
          "name": "D3",
          "midi": 50,
          "time": 15,
          "velocity": 0.6299212598425197,
          "duration": 0.2489583333333325
        },
        {
          "name": "D2",
          "midi": 38,
          "time": 15,
          "velocity": 0.6299212598425197,
          "duration": 0.2489583333333325
        },
        {
          "name": "D3",
          "midi": 50,
          "time": 15.25,
          "velocity": 0.6299212598425197,
          "duration": 0.2489583333333325
        },
        {
          "name": "D2",
          "midi": 38,
          "time": 15.25,
          "velocity": 0.6299212598425197,
          "duration": 0.2489583333333325
        },
        {
          "name": "D3",
          "midi": 50,
          "time": 15.5,
          "velocity": 0.6299212598425197,
          "duration": 0.2489583333333325
        },
        {
          "name": "D2",
          "midi": 38,
          "time": 15.5,
          "velocity": 0.6299212598425197,
          "duration": 0.2489583333333325
        },
        {
          "name": "D3",
          "midi": 50,
          "time": 15.75,
          "velocity": 0.6299212598425197,
          "duration": 0.2489583333333325
        },
        {
          "name": "D2",
          "midi": 38,
          "time": 15.75,
          "velocity": 0.6299212598425197,
          "duration": 0.2489583333333325
        },
        {
          "name": "C3",
          "midi": 48,
          "time": 16,
          "velocity": 0.6299212598425197,
          "duration": 0.24895833333333428
        },
        {
          "name": "C2",
          "midi": 36,
          "time": 16,
          "velocity": 0.6299212598425197,
          "duration": 0.24895833333333428
        },
        {
          "name": "C3",
          "midi": 48,
          "time": 16.25,
          "velocity": 0.6299212598425197,
          "duration": 0.24895833333333428
        },
        {
          "name": "C2",
          "midi": 36,
          "time": 16.25,
          "velocity": 0.6299212598425197,
          "duration": 0.24895833333333428
        },
        {
          "name": "C3",
          "midi": 48,
          "time": 16.5,
          "velocity": 0.6299212598425197,
          "duration": 0.24895833333333428
        },
        {
          "name": "C2",
          "midi": 36,
          "time": 16.5,
          "velocity": 0.6299212598425197,
          "duration": 0.24895833333333428
        },
        {
          "name": "C3",
          "midi": 48,
          "time": 16.75,
          "velocity": 0.6299212598425197,
          "duration": 0.24895833333333428
        },
        {
          "name": "C2",
          "midi": 36,
          "time": 16.75,
          "velocity": 0.6299212598425197,
          "duration": 0.24895833333333428
        },
        {
          "name": "C3",
          "midi": 48,
          "time": 17,
          "velocity": 0.6299212598425197,
          "duration": 0.24895833333333428
        },
        {
          "name": "C2",
          "midi": 36,
          "time": 17,
          "velocity": 0.6299212598425197,
          "duration": 0.24895833333333428
        },
        {
          "name": "C3",
          "midi": 48,
          "time": 17.25,
          "velocity": 0.6299212598425197,
          "duration": 0.24895833333333428
        },
        {
          "name": "C2",
          "midi": 36,
          "time": 17.25,
          "velocity": 0.6299212598425197,
          "duration": 0.24895833333333428
        },
        {
          "name": "C3",
          "midi": 48,
          "time": 17.5,
          "velocity": 0.6299212598425197,
          "duration": 0.24895833333333428
        },
        {
          "name": "C2",
          "midi": 36,
          "time": 17.5,
          "velocity": 0.6299212598425197,
          "duration": 0.24895833333333428
        },
        {
          "name": "C3",
          "midi": 48,
          "time": 17.75,
          "velocity": 0.6299212598425197,
          "duration": 0.24895833333333428
        },
        {
          "name": "C2",
          "midi": 36,
          "time": 17.75,
          "velocity": 0.6299212598425197,
          "duration": 0.24895833333333428
        },
        {
          "name": "B2",
          "midi": 47,
          "time": 18,
          "velocity": 0.6299212598425197,
          "duration": 0.24895833333333428
        },
        {
          "name": "B1",
          "midi": 35,
          "time": 18,
          "velocity": 0.6299212598425197,
          "duration": 0.24895833333333428
        },
        {
          "name": "B2",
          "midi": 47,
          "time": 18.25,
          "velocity": 0.6299212598425197,
          "duration": 0.24895833333333428
        },
        {
          "name": "B1",
          "midi": 35,
          "time": 18.25,
          "velocity": 0.6299212598425197,
          "duration": 0.24895833333333428
        },
        {
          "name": "B2",
          "midi": 47,
          "time": 18.5,
          "velocity": 0.6299212598425197,
          "duration": 0.24895833333333428
        },
        {
          "name": "B1",
          "midi": 35,
          "time": 18.5,
          "velocity": 0.6299212598425197,
          "duration": 0.24895833333333428
        },
        {
          "name": "B2",
          "midi": 47,
          "time": 18.75,
          "velocity": 0.6299212598425197,
          "duration": 0.24895833333333428
        },
        {
          "name": "B1",
          "midi": 35,
          "time": 18.75,
          "velocity": 0.6299212598425197,
          "duration": 0.24895833333333428
        },
        {
          "name": "B2",
          "midi": 47,
          "time": 19,
          "velocity": 0.6299212598425197,
          "duration": 0.24895833333333428
        },
        {
          "name": "B1",
          "midi": 35,
          "time": 19,
          "velocity": 0.6299212598425197,
          "duration": 0.24895833333333428
        },
        {
          "name": "B2",
          "midi": 47,
          "time": 19.25,
          "velocity": 0.6299212598425197,
          "duration": 0.24895833333333428
        },
        {
          "name": "B1",
          "midi": 35,
          "time": 19.25,
          "velocity": 0.6299212598425197,
          "duration": 0.24895833333333428
        },
        {
          "name": "B2",
          "midi": 47,
          "time": 19.5,
          "velocity": 0.6299212598425197,
          "duration": 0.24895833333333428
        },
        {
          "name": "B1",
          "midi": 35,
          "time": 19.5,
          "velocity": 0.6299212598425197,
          "duration": 0.24895833333333428
        },
        {
          "name": "B2",
          "midi": 47,
          "time": 19.75,
          "velocity": 0.6299212598425197,
          "duration": 0.24895833333333428
        },
        {
          "name": "B1",
          "midi": 35,
          "time": 19.75,
          "velocity": 0.6299212598425197,
          "duration": 0.24895833333333428
        },
        {
          "name": "B2",
          "midi": 47,
          "time": 20,
          "velocity": 0.6299212598425197,
          "duration": 0.24895833333333428
        },
        {
          "name": "B1",
          "midi": 35,
          "time": 20,
          "velocity": 0.6299212598425197,
          "duration": 0.24895833333333428
        },
        {
          "name": "B2",
          "midi": 47,
          "time": 20.25,
          "velocity": 0.6299212598425197,
          "duration": 0.24895833333333428
        },
        {
          "name": "B1",
          "midi": 35,
          "time": 20.25,
          "velocity": 0.6299212598425197,
          "duration": 0.24895833333333428
        },
        {
          "name": "B2",
          "midi": 47,
          "time": 20.5,
          "velocity": 0.6299212598425197,
          "duration": 0.24895833333333428
        },
        {
          "name": "B1",
          "midi": 35,
          "time": 20.5,
          "velocity": 0.6299212598425197,
          "duration": 0.24895833333333428
        },
        {
          "name": "B2",
          "midi": 47,
          "time": 20.75,
          "velocity": 0.6299212598425197,
          "duration": 0.24895833333333428
        },
        {
          "name": "B1",
          "midi": 35,
          "time": 20.75,
          "velocity": 0.6299212598425197,
          "duration": 0.24895833333333428
        },
        {
          "name": "B2",
          "midi": 47,
          "time": 21,
          "velocity": 0.6299212598425197,
          "duration": 0.24895833333333428
        },
        {
          "name": "B1",
          "midi": 35,
          "time": 21,
          "velocity": 0.6299212598425197,
          "duration": 0.24895833333333428
        },
        {
          "name": "B2",
          "midi": 47,
          "time": 21.25,
          "velocity": 0.6299212598425197,
          "duration": 0.24895833333333428
        },
        {
          "name": "B1",
          "midi": 35,
          "time": 21.25,
          "velocity": 0.6299212598425197,
          "duration": 0.24895833333333428
        },
        {
          "name": "B2",
          "midi": 47,
          "time": 21.5,
          "velocity": 0.6299212598425197,
          "duration": 0.24895833333333428
        },
        {
          "name": "B1",
          "midi": 35,
          "time": 21.5,
          "velocity": 0.6299212598425197,
          "duration": 0.24895833333333428
        },
        {
          "name": "B2",
          "midi": 47,
          "time": 21.75,
          "velocity": 0.6299212598425197,
          "duration": 0.24895833333333428
        },
        {
          "name": "B1",
          "midi": 35,
          "time": 21.75,
          "velocity": 0.6299212598425197,
          "duration": 0.24895833333333428
        },
        {
          "name": "E3",
          "midi": 52,
          "time": 22,
          "velocity": 0.6299212598425197,
          "duration": 0.4989583333333343
        },
        {
          "name": "E2",
          "midi": 40,
          "time": 22,
          "velocity": 0.6299212598425197,
          "duration": 0.4989583333333343
        },
        {
          "name": "E3",
          "midi": 52,
          "time": 22.5,
          "velocity": 0.6299212598425197,
          "duration": 0.7489583333333343
        },
        {
          "name": "E2",
          "midi": 40,
          "time": 22.5,
          "velocity": 0.6299212598425197,
          "duration": 0.7489583333333343
        },
        {
          "name": "E3",
          "midi": 52,
          "time": 23.25,
          "velocity": 0.6299212598425197,
          "duration": 0.24895833333333428
        },
        {
          "name": "E2",
          "midi": 40,
          "time": 23.25,
          "velocity": 0.6299212598425197,
          "duration": 0.24895833333333428
        },
        {
          "name": "E3",
          "midi": 52,
          "time": 23.5,
          "velocity": 0.6299212598425197,
          "duration": 0.24895833333333428
        },
        {
          "name": "E2",
          "midi": 40,
          "time": 23.5,
          "velocity": 0.6299212598425197,
          "duration": 0.24895833333333428
        },
        {
          "name": "E3",
          "midi": 52,
          "time": 23.75,
          "velocity": 0.6299212598425197,
          "duration": 0.24895833333333428
        },
        {
          "name": "E2",
          "midi": 40,
          "time": 23.75,
          "velocity": 0.6299212598425197,
          "duration": 0.24895833333333428
        },
        {
          "name": "D3",
          "midi": 50,
          "time": 24,
          "velocity": 0.6299212598425197,
          "duration": 0.4989583333333343
        },
        {
          "name": "D2",
          "midi": 38,
          "time": 24,
          "velocity": 0.6299212598425197,
          "duration": 0.4989583333333343
        },
        {
          "name": "D3",
          "midi": 50,
          "time": 24.5,
          "velocity": 0.6299212598425197,
          "duration": 0.7489583333333343
        },
        {
          "name": "D2",
          "midi": 38,
          "time": 24.5,
          "velocity": 0.6299212598425197,
          "duration": 0.7489583333333343
        },
        {
          "name": "D3",
          "midi": 50,
          "time": 25.25,
          "velocity": 0.6299212598425197,
          "duration": 0.24895833333333428
        },
        {
          "name": "D2",
          "midi": 38,
          "time": 25.25,
          "velocity": 0.6299212598425197,
          "duration": 0.24895833333333428
        },
        {
          "name": "D3",
          "midi": 50,
          "time": 25.5,
          "velocity": 0.6299212598425197,
          "duration": 0.24895833333333428
        },
        {
          "name": "D2",
          "midi": 38,
          "time": 25.5,
          "velocity": 0.6299212598425197,
          "duration": 0.24895833333333428
        },
        {
          "name": "D3",
          "midi": 50,
          "time": 25.75,
          "velocity": 0.6299212598425197,
          "duration": 0.24895833333333428
        },
        {
          "name": "D2",
          "midi": 38,
          "time": 25.75,
          "velocity": 0.6299212598425197,
          "duration": 0.24895833333333428
        },
        {
          "name": "C3",
          "midi": 48,
          "time": 26,
          "velocity": 0.6299212598425197,
          "duration": 0.4989583333333343
        },
        {
          "name": "C2",
          "midi": 36,
          "time": 26,
          "velocity": 0.6299212598425197,
          "duration": 0.4989583333333343
        },
        {
          "name": "C3",
          "midi": 48,
          "time": 26.5,
          "velocity": 0.6299212598425197,
          "duration": 0.7489583333333343
        },
        {
          "name": "C2",
          "midi": 36,
          "time": 26.5,
          "velocity": 0.6299212598425197,
          "duration": 0.7489583333333343
        },
        {
          "name": "C3",
          "midi": 48,
          "time": 27.25,
          "velocity": 0.6299212598425197,
          "duration": 0.24895833333333428
        },
        {
          "name": "C2",
          "midi": 36,
          "time": 27.25,
          "velocity": 0.6299212598425197,
          "duration": 0.24895833333333428
        },
        {
          "name": "C3",
          "midi": 48,
          "time": 27.5,
          "velocity": 0.6299212598425197,
          "duration": 0.24895833333333428
        },
        {
          "name": "C2",
          "midi": 36,
          "time": 27.5,
          "velocity": 0.6299212598425197,
          "duration": 0.24895833333333428
        },
        {
          "name": "C3",
          "midi": 48,
          "time": 27.75,
          "velocity": 0.6299212598425197,
          "duration": 0.24895833333333428
        },
        {
          "name": "C2",
          "midi": 36,
          "time": 27.75,
          "velocity": 0.6299212598425197,
          "duration": 0.24895833333333428
        },
        {
          "name": "C3",
          "midi": 48,
          "time": 28,
          "velocity": 0.6299212598425197,
          "duration": 0.4989583333333343
        },
        {
          "name": "C2",
          "midi": 36,
          "time": 28,
          "velocity": 0.6299212598425197,
          "duration": 0.4989583333333343
        },
        {
          "name": "C3",
          "midi": 48,
          "time": 28.5,
          "velocity": 0.6299212598425197,
          "duration": 0.7489583333333343
        },
        {
          "name": "C2",
          "midi": 36,
          "time": 28.5,
          "velocity": 0.6299212598425197,
          "duration": 0.7489583333333343
        },
        {
          "name": "C3",
          "midi": 48,
          "time": 29.25,
          "velocity": 0.6299212598425197,
          "duration": 0.24895833333333428
        },
        {
          "name": "C2",
          "midi": 36,
          "time": 29.25,
          "velocity": 0.6299212598425197,
          "duration": 0.24895833333333428
        },
        {
          "name": "C3",
          "midi": 48,
          "time": 29.5,
          "velocity": 0.6299212598425197,
          "duration": 0.24895833333333428
        },
        {
          "name": "C2",
          "midi": 36,
          "time": 29.5,
          "velocity": 0.6299212598425197,
          "duration": 0.24895833333333428
        },
        {
          "name": "C3",
          "midi": 48,
          "time": 29.75,
          "velocity": 0.6299212598425197,
          "duration": 0.24895833333333428
        },
        {
          "name": "C2",
          "midi": 36,
          "time": 29.75,
          "velocity": 0.6299212598425197,
          "duration": 0.24895833333333428
        },
        {
          "name": "E3",
          "midi": 52,
          "time": 30,
          "velocity": 0.6299212598425197,
          "duration": 0.4989583333333343
        },
        {
          "name": "E2",
          "midi": 40,
          "time": 30,
          "velocity": 0.6299212598425197,
          "duration": 0.4989583333333343
        },
        {
          "name": "E3",
          "midi": 52,
          "time": 30.5,
          "velocity": 0.6299212598425197,
          "duration": 0.7489583333333343
        },
        {
          "name": "E2",
          "midi": 40,
          "time": 30.5,
          "velocity": 0.6299212598425197,
          "duration": 0.7489583333333343
        },
        {
          "name": "E3",
          "midi": 52,
          "time": 31.25,
          "velocity": 0.6299212598425197,
          "duration": 0.24895833333333428
        },
        {
          "name": "E2",
          "midi": 40,
          "time": 31.25,
          "velocity": 0.6299212598425197,
          "duration": 0.24895833333333428
        },
        {
          "name": "E3",
          "midi": 52,
          "time": 31.5,
          "velocity": 0.6299212598425197,
          "duration": 0.24895833333333428
        },
        {
          "name": "E2",
          "midi": 40,
          "time": 31.5,
          "velocity": 0.6299212598425197,
          "duration": 0.24895833333333428
        },
        {
          "name": "E3",
          "midi": 52,
          "time": 31.75,
          "velocity": 0.6299212598425197,
          "duration": 0.24895833333333428
        },
        {
          "name": "E2",
          "midi": 40,
          "time": 31.75,
          "velocity": 0.6299212598425197,
          "duration": 0.24895833333333428
        },
        {
          "name": "D3",
          "midi": 50,
          "time": 32,
          "velocity": 0.6299212598425197,
          "duration": 0.4989583333333343
        },
        {
          "name": "D2",
          "midi": 38,
          "time": 32,
          "velocity": 0.6299212598425197,
          "duration": 0.4989583333333343
        },
        {
          "name": "D3",
          "midi": 50,
          "time": 32.5,
          "velocity": 0.6299212598425197,
          "duration": 0.7489583333333343
        },
        {
          "name": "D2",
          "midi": 38,
          "time": 32.5,
          "velocity": 0.6299212598425197,
          "duration": 0.7489583333333343
        },
        {
          "name": "D3",
          "midi": 50,
          "time": 33.25,
          "velocity": 0.6299212598425197,
          "duration": 0.24895833333333428
        },
        {
          "name": "D2",
          "midi": 38,
          "time": 33.25,
          "velocity": 0.6299212598425197,
          "duration": 0.24895833333333428
        },
        {
          "name": "D3",
          "midi": 50,
          "time": 33.5,
          "velocity": 0.6299212598425197,
          "duration": 0.24895833333333428
        },
        {
          "name": "D2",
          "midi": 38,
          "time": 33.5,
          "velocity": 0.6299212598425197,
          "duration": 0.24895833333333428
        },
        {
          "name": "D3",
          "midi": 50,
          "time": 33.75,
          "velocity": 0.6299212598425197,
          "duration": 0.24895833333333428
        },
        {
          "name": "D2",
          "midi": 38,
          "time": 33.75,
          "velocity": 0.6299212598425197,
          "duration": 0.24895833333333428
        },
        {
          "name": "C3",
          "midi": 48,
          "time": 34,
          "velocity": 0.6299212598425197,
          "duration": 0.4989583333333343
        },
        {
          "name": "C2",
          "midi": 36,
          "time": 34,
          "velocity": 0.6299212598425197,
          "duration": 0.4989583333333343
        },
        {
          "name": "C3",
          "midi": 48,
          "time": 34.5,
          "velocity": 0.6299212598425197,
          "duration": 0.7489583333333343
        },
        {
          "name": "C2",
          "midi": 36,
          "time": 34.5,
          "velocity": 0.6299212598425197,
          "duration": 0.7489583333333343
        },
        {
          "name": "C3",
          "midi": 48,
          "time": 35.25,
          "velocity": 0.6299212598425197,
          "duration": 0.24895833333333428
        },
        {
          "name": "C2",
          "midi": 36,
          "time": 35.25,
          "velocity": 0.6299212598425197,
          "duration": 0.24895833333333428
        },
        {
          "name": "C3",
          "midi": 48,
          "time": 35.5,
          "velocity": 0.6299212598425197,
          "duration": 0.24895833333333428
        },
        {
          "name": "C2",
          "midi": 36,
          "time": 35.5,
          "velocity": 0.6299212598425197,
          "duration": 0.24895833333333428
        },
        {
          "name": "C3",
          "midi": 48,
          "time": 35.75,
          "velocity": 0.6299212598425197,
          "duration": 0.24895833333333428
        },
        {
          "name": "C2",
          "midi": 36,
          "time": 35.75,
          "velocity": 0.6299212598425197,
          "duration": 0.24895833333333428
        },
        {
          "name": "C3",
          "midi": 48,
          "time": 36,
          "velocity": 0.6299212598425197,
          "duration": 0.4989583333333343
        },
        {
          "name": "C2",
          "midi": 36,
          "time": 36,
          "velocity": 0.6299212598425197,
          "duration": 0.4989583333333343
        },
        {
          "name": "C3",
          "midi": 48,
          "time": 36.5,
          "velocity": 0.6299212598425197,
          "duration": 0.7489583333333343
        },
        {
          "name": "C2",
          "midi": 36,
          "time": 36.5,
          "velocity": 0.6299212598425197,
          "duration": 0.7489583333333343
        },
        {
          "name": "C3",
          "midi": 48,
          "time": 37.25,
          "velocity": 0.6299212598425197,
          "duration": 0.24895833333333428
        },
        {
          "name": "C2",
          "midi": 36,
          "time": 37.25,
          "velocity": 0.6299212598425197,
          "duration": 0.24895833333333428
        },
        {
          "name": "C3",
          "midi": 48,
          "time": 37.5,
          "velocity": 0.6299212598425197,
          "duration": 0.24895833333333428
        },
        {
          "name": "C2",
          "midi": 36,
          "time": 37.5,
          "velocity": 0.6299212598425197,
          "duration": 0.24895833333333428
        },
        {
          "name": "C3",
          "midi": 48,
          "time": 37.75,
          "velocity": 0.6299212598425197,
          "duration": 0.24895833333333428
        },
        {
          "name": "C2",
          "midi": 36,
          "time": 37.75,
          "velocity": 0.6299212598425197,
          "duration": 0.24895833333333428
        },
        {
          "name": "E3",
          "midi": 52,
          "time": 38,
          "velocity": 0.6299212598425197,
          "duration": 0.4989583333333343
        },
        {
          "name": "E2",
          "midi": 40,
          "time": 38,
          "velocity": 0.6299212598425197,
          "duration": 0.4989583333333343
        },
        {
          "name": "E3",
          "midi": 52,
          "time": 38.5,
          "velocity": 0.6299212598425197,
          "duration": 0.7489583333333343
        },
        {
          "name": "E2",
          "midi": 40,
          "time": 38.5,
          "velocity": 0.6299212598425197,
          "duration": 0.7489583333333343
        },
        {
          "name": "E3",
          "midi": 52,
          "time": 39.25,
          "velocity": 0.6299212598425197,
          "duration": 0.24895833333333428
        },
        {
          "name": "E2",
          "midi": 40,
          "time": 39.25,
          "velocity": 0.6299212598425197,
          "duration": 0.24895833333333428
        },
        {
          "name": "E3",
          "midi": 52,
          "time": 39.5,
          "velocity": 0.6299212598425197,
          "duration": 0.24895833333333428
        },
        {
          "name": "E2",
          "midi": 40,
          "time": 39.5,
          "velocity": 0.6299212598425197,
          "duration": 0.24895833333333428
        },
        {
          "name": "E3",
          "midi": 52,
          "time": 39.75,
          "velocity": 0.6299212598425197,
          "duration": 0.24895833333333428
        },
        {
          "name": "E2",
          "midi": 40,
          "time": 39.75,
          "velocity": 0.6299212598425197,
          "duration": 0.24895833333333428
        },
        {
          "name": "D3",
          "midi": 50,
          "time": 40,
          "velocity": 0.6299212598425197,
          "duration": 0.4989583333333343
        },
        {
          "name": "D2",
          "midi": 38,
          "time": 40,
          "velocity": 0.6299212598425197,
          "duration": 0.4989583333333343
        },
        {
          "name": "D3",
          "midi": 50,
          "time": 40.5,
          "velocity": 0.6299212598425197,
          "duration": 0.7489583333333343
        },
        {
          "name": "D2",
          "midi": 38,
          "time": 40.5,
          "velocity": 0.6299212598425197,
          "duration": 0.7489583333333343
        },
        {
          "name": "D3",
          "midi": 50,
          "time": 41.25,
          "velocity": 0.6299212598425197,
          "duration": 0.24895833333333428
        },
        {
          "name": "D2",
          "midi": 38,
          "time": 41.25,
          "velocity": 0.6299212598425197,
          "duration": 0.24895833333333428
        },
        {
          "name": "D3",
          "midi": 50,
          "time": 41.5,
          "velocity": 0.6299212598425197,
          "duration": 0.24895833333333428
        },
        {
          "name": "D2",
          "midi": 38,
          "time": 41.5,
          "velocity": 0.6299212598425197,
          "duration": 0.24895833333333428
        },
        {
          "name": "D3",
          "midi": 50,
          "time": 41.75,
          "velocity": 0.6299212598425197,
          "duration": 0.24895833333333428
        },
        {
          "name": "D2",
          "midi": 38,
          "time": 41.75,
          "velocity": 0.6299212598425197,
          "duration": 0.24895833333333428
        },
        {
          "name": "C3",
          "midi": 48,
          "time": 42,
          "velocity": 0.6299212598425197,
          "duration": 0.4989583333333343
        },
        {
          "name": "C2",
          "midi": 36,
          "time": 42,
          "velocity": 0.6299212598425197,
          "duration": 0.4989583333333343
        },
        {
          "name": "C3",
          "midi": 48,
          "time": 42.5,
          "velocity": 0.6299212598425197,
          "duration": 0.7489583333333343
        },
        {
          "name": "C2",
          "midi": 36,
          "time": 42.5,
          "velocity": 0.6299212598425197,
          "duration": 0.7489583333333343
        },
        {
          "name": "C3",
          "midi": 48,
          "time": 43.25,
          "velocity": 0.6299212598425197,
          "duration": 0.24895833333333428
        },
        {
          "name": "C2",
          "midi": 36,
          "time": 43.25,
          "velocity": 0.6299212598425197,
          "duration": 0.24895833333333428
        },
        {
          "name": "C3",
          "midi": 48,
          "time": 43.5,
          "velocity": 0.6299212598425197,
          "duration": 0.24895833333333428
        },
        {
          "name": "C2",
          "midi": 36,
          "time": 43.5,
          "velocity": 0.6299212598425197,
          "duration": 0.24895833333333428
        },
        {
          "name": "C3",
          "midi": 48,
          "time": 43.75,
          "velocity": 0.6299212598425197,
          "duration": 0.24895833333333428
        },
        {
          "name": "C2",
          "midi": 36,
          "time": 43.75,
          "velocity": 0.6299212598425197,
          "duration": 0.24895833333333428
        },
        {
          "name": "C3",
          "midi": 48,
          "time": 44,
          "velocity": 0.6299212598425197,
          "duration": 0.4989583333333343
        },
        {
          "name": "C2",
          "midi": 36,
          "time": 44,
          "velocity": 0.6299212598425197,
          "duration": 0.4989583333333343
        },
        {
          "name": "C3",
          "midi": 48,
          "time": 44.5,
          "velocity": 0.6299212598425197,
          "duration": 0.7489583333333343
        },
        {
          "name": "C2",
          "midi": 36,
          "time": 44.5,
          "velocity": 0.6299212598425197,
          "duration": 0.7489583333333343
        },
        {
          "name": "C3",
          "midi": 48,
          "time": 45.25,
          "velocity": 0.6299212598425197,
          "duration": 0.24895833333333428
        },
        {
          "name": "C2",
          "midi": 36,
          "time": 45.25,
          "velocity": 0.6299212598425197,
          "duration": 0.24895833333333428
        },
        {
          "name": "C3",
          "midi": 48,
          "time": 45.5,
          "velocity": 0.6299212598425197,
          "duration": 0.24895833333333428
        },
        {
          "name": "C2",
          "midi": 36,
          "time": 45.5,
          "velocity": 0.6299212598425197,
          "duration": 0.24895833333333428
        },
        {
          "name": "C3",
          "midi": 48,
          "time": 45.75,
          "velocity": 0.6299212598425197,
          "duration": 0.24895833333333428
        },
        {
          "name": "C2",
          "midi": 36,
          "time": 45.75,
          "velocity": 0.6299212598425197,
          "duration": 0.24895833333333428
        },
        {
          "name": "E3",
          "midi": 52,
          "time": 46,
          "velocity": 0.6299212598425197,
          "duration": 0.4989583333333343
        },
        {
          "name": "E2",
          "midi": 40,
          "time": 46,
          "velocity": 0.6299212598425197,
          "duration": 0.4989583333333343
        },
        {
          "name": "E3",
          "midi": 52,
          "time": 46.5,
          "velocity": 0.6299212598425197,
          "duration": 0.7489583333333343
        },
        {
          "name": "E2",
          "midi": 40,
          "time": 46.5,
          "velocity": 0.6299212598425197,
          "duration": 0.7489583333333343
        },
        {
          "name": "E3",
          "midi": 52,
          "time": 47.25,
          "velocity": 0.6299212598425197,
          "duration": 0.24895833333333428
        },
        {
          "name": "E2",
          "midi": 40,
          "time": 47.25,
          "velocity": 0.6299212598425197,
          "duration": 0.24895833333333428
        },
        {
          "name": "E3",
          "midi": 52,
          "time": 47.5,
          "velocity": 0.6299212598425197,
          "duration": 0.24895833333333428
        },
        {
          "name": "E2",
          "midi": 40,
          "time": 47.5,
          "velocity": 0.6299212598425197,
          "duration": 0.24895833333333428
        },
        {
          "name": "E3",
          "midi": 52,
          "time": 47.75,
          "velocity": 0.6299212598425197,
          "duration": 0.24895833333333428
        },
        {
          "name": "E2",
          "midi": 40,
          "time": 47.75,
          "velocity": 0.6299212598425197,
          "duration": 0.24895833333333428
        },
        {
          "name": "D3",
          "midi": 50,
          "time": 48,
          "velocity": 0.6299212598425197,
          "duration": 0.4989583333333343
        },
        {
          "name": "D2",
          "midi": 38,
          "time": 48,
          "velocity": 0.6299212598425197,
          "duration": 0.4989583333333343
        },
        {
          "name": "D3",
          "midi": 50,
          "time": 48.5,
          "velocity": 0.6299212598425197,
          "duration": 0.7489583333333343
        },
        {
          "name": "D2",
          "midi": 38,
          "time": 48.5,
          "velocity": 0.6299212598425197,
          "duration": 0.7489583333333343
        },
        {
          "name": "D3",
          "midi": 50,
          "time": 49.25,
          "velocity": 0.6299212598425197,
          "duration": 0.24895833333333428
        },
        {
          "name": "D2",
          "midi": 38,
          "time": 49.25,
          "velocity": 0.6299212598425197,
          "duration": 0.24895833333333428
        },
        {
          "name": "D3",
          "midi": 50,
          "time": 49.5,
          "velocity": 0.6299212598425197,
          "duration": 0.24895833333333428
        },
        {
          "name": "D2",
          "midi": 38,
          "time": 49.5,
          "velocity": 0.6299212598425197,
          "duration": 0.24895833333333428
        },
        {
          "name": "D3",
          "midi": 50,
          "time": 49.75,
          "velocity": 0.6299212598425197,
          "duration": 0.24895833333333428
        },
        {
          "name": "D2",
          "midi": 38,
          "time": 49.75,
          "velocity": 0.6299212598425197,
          "duration": 0.24895833333333428
        },
        {
          "name": "C3",
          "midi": 48,
          "time": 50,
          "velocity": 0.6299212598425197,
          "duration": 0.4989583333333343
        },
        {
          "name": "C2",
          "midi": 36,
          "time": 50,
          "velocity": 0.6299212598425197,
          "duration": 0.4989583333333343
        },
        {
          "name": "C3",
          "midi": 48,
          "time": 50.5,
          "velocity": 0.6299212598425197,
          "duration": 0.7489583333333343
        },
        {
          "name": "C2",
          "midi": 36,
          "time": 50.5,
          "velocity": 0.6299212598425197,
          "duration": 0.7489583333333343
        },
        {
          "name": "C3",
          "midi": 48,
          "time": 51.25,
          "velocity": 0.6299212598425197,
          "duration": 0.24895833333333428
        },
        {
          "name": "C2",
          "midi": 36,
          "time": 51.25,
          "velocity": 0.6299212598425197,
          "duration": 0.24895833333333428
        },
        {
          "name": "C3",
          "midi": 48,
          "time": 51.5,
          "velocity": 0.6299212598425197,
          "duration": 0.24895833333333428
        },
        {
          "name": "C2",
          "midi": 36,
          "time": 51.5,
          "velocity": 0.6299212598425197,
          "duration": 0.24895833333333428
        },
        {
          "name": "C3",
          "midi": 48,
          "time": 51.75,
          "velocity": 0.6299212598425197,
          "duration": 0.24895833333333428
        },
        {
          "name": "C2",
          "midi": 36,
          "time": 51.75,
          "velocity": 0.6299212598425197,
          "duration": 0.24895833333333428
        },
        {
          "name": "C3",
          "midi": 48,
          "time": 52,
          "velocity": 0.6299212598425197,
          "duration": 0.4989583333333343
        },
        {
          "name": "C2",
          "midi": 36,
          "time": 52,
          "velocity": 0.6299212598425197,
          "duration": 0.4989583333333343
        },
        {
          "name": "C3",
          "midi": 48,
          "time": 52.5,
          "velocity": 0.6299212598425197,
          "duration": 0.7489583333333343
        },
        {
          "name": "C2",
          "midi": 36,
          "time": 52.5,
          "velocity": 0.6299212598425197,
          "duration": 0.7489583333333343
        },
        {
          "name": "C3",
          "midi": 48,
          "time": 53.25,
          "velocity": 0.6299212598425197,
          "duration": 0.24895833333333428
        },
        {
          "name": "C2",
          "midi": 36,
          "time": 53.25,
          "velocity": 0.6299212598425197,
          "duration": 0.24895833333333428
        },
        {
          "name": "C3",
          "midi": 48,
          "time": 53.5,
          "velocity": 0.6299212598425197,
          "duration": 0.24895833333333428
        },
        {
          "name": "C2",
          "midi": 36,
          "time": 53.5,
          "velocity": 0.6299212598425197,
          "duration": 0.24895833333333428
        },
        {
          "name": "C3",
          "midi": 48,
          "time": 53.75,
          "velocity": 0.6299212598425197,
          "duration": 0.24895833333333428
        },
        {
          "name": "C2",
          "midi": 36,
          "time": 53.75,
          "velocity": 0.6299212598425197,
          "duration": 0.24895833333333428
        },
        {
          "name": "E3",
          "midi": 52,
          "time": 54,
          "velocity": 0.6299212598425197,
          "duration": 0.24895833333333428
        },
        {
          "name": "E2",
          "midi": 40,
          "time": 54,
          "velocity": 0.6299212598425197,
          "duration": 0.24895833333333428
        },
        {
          "name": "E3",
          "midi": 52,
          "time": 54.25,
          "velocity": 0.6299212598425197,
          "duration": 0.24895833333333428
        },
        {
          "name": "E2",
          "midi": 40,
          "time": 54.25,
          "velocity": 0.6299212598425197,
          "duration": 0.24895833333333428
        },
        {
          "name": "E3",
          "midi": 52,
          "time": 56,
          "velocity": 0.6299212598425197,
          "duration": 0.24895833333333428
        },
        {
          "name": "E2",
          "midi": 40,
          "time": 56,
          "velocity": 0.6299212598425197,
          "duration": 0.24895833333333428
        },
        {
          "name": "E3",
          "midi": 52,
          "time": 56.25,
          "velocity": 0.6299212598425197,
          "duration": 0.24895833333333428
        },
        {
          "name": "E2",
          "midi": 40,
          "time": 56.25,
          "velocity": 0.6299212598425197,
          "duration": 0.24895833333333428
        },
        {
          "name": "E3",
          "midi": 52,
          "time": 58,
          "velocity": 0.6299212598425197,
          "duration": 0.24895833333333428
        },
        {
          "name": "E2",
          "midi": 40,
          "time": 58,
          "velocity": 0.6299212598425197,
          "duration": 0.24895833333333428
        },
        {
          "name": "E3",
          "midi": 52,
          "time": 58.25,
          "velocity": 0.6299212598425197,
          "duration": 0.24895833333333428
        },
        {
          "name": "E2",
          "midi": 40,
          "time": 58.25,
          "velocity": 0.6299212598425197,
          "duration": 0.24895833333333428
        },
        {
          "name": "C3",
          "midi": 48,
          "time": 60,
          "velocity": 0.6299212598425197,
          "duration": 0.24895833333333428
        },
        {
          "name": "C2",
          "midi": 36,
          "time": 60,
          "velocity": 0.6299212598425197,
          "duration": 0.24895833333333428
        },
        {
          "name": "C3",
          "midi": 48,
          "time": 60.25,
          "velocity": 0.6299212598425197,
          "duration": 0.4989583333333343
        },
        {
          "name": "C2",
          "midi": 36,
          "time": 60.25,
          "velocity": 0.6299212598425197,
          "duration": 0.4989583333333343
        },
        {
          "name": "D3",
          "midi": 50,
          "time": 60.75,
          "velocity": 0.6299212598425197,
          "duration": 0.4989583333333343
        },
        {
          "name": "D2",
          "midi": 38,
          "time": 60.75,
          "velocity": 0.6299212598425197,
          "duration": 0.4989583333333343
        },
        {
          "name": "D3",
          "midi": 50,
          "time": 61.25,
          "velocity": 0.6299212598425197,
          "duration": 0.24895833333333428
        },
        {
          "name": "D2",
          "midi": 38,
          "time": 61.25,
          "velocity": 0.6299212598425197,
          "duration": 0.24895833333333428
        },
        {
          "name": "D3",
          "midi": 50,
          "time": 61.5,
          "velocity": 0.6299212598425197,
          "duration": 0.24895833333333428
        },
        {
          "name": "D2",
          "midi": 38,
          "time": 61.5,
          "velocity": 0.6299212598425197,
          "duration": 0.24895833333333428
        },
        {
          "name": "D3",
          "midi": 50,
          "time": 61.75,
          "velocity": 0.6299212598425197,
          "duration": 0.24895833333333428
        },
        {
          "name": "D2",
          "midi": 38,
          "time": 61.75,
          "velocity": 0.6299212598425197,
          "duration": 0.24895833333333428
        },
        {
          "name": "E3",
          "midi": 52,
          "time": 62,
          "velocity": 0.6299212598425197,
          "duration": 0.24895833333333428
        },
        {
          "name": "E2",
          "midi": 40,
          "time": 62,
          "velocity": 0.6299212598425197,
          "duration": 0.24895833333333428
        },
        {
          "name": "E3",
          "midi": 52,
          "time": 62.25,
          "velocity": 0.6299212598425197,
          "duration": 0.24895833333333428
        },
        {
          "name": "E2",
          "midi": 40,
          "time": 62.25,
          "velocity": 0.6299212598425197,
          "duration": 0.24895833333333428
        },
        {
          "name": "E3",
          "midi": 52,
          "time": 64,
          "velocity": 0.6299212598425197,
          "duration": 0.24895833333333428
        },
        {
          "name": "E2",
          "midi": 40,
          "time": 64,
          "velocity": 0.6299212598425197,
          "duration": 0.24895833333333428
        },
        {
          "name": "E3",
          "midi": 52,
          "time": 64.25,
          "velocity": 0.6299212598425197,
          "duration": 0.24895833333333428
        },
        {
          "name": "E2",
          "midi": 40,
          "time": 64.25,
          "velocity": 0.6299212598425197,
          "duration": 0.24895833333333428
        },
        {
          "name": "E3",
          "midi": 52,
          "time": 66,
          "velocity": 0.6299212598425197,
          "duration": 0.24895833333333428
        },
        {
          "name": "E2",
          "midi": 40,
          "time": 66,
          "velocity": 0.6299212598425197,
          "duration": 0.24895833333333428
        },
        {
          "name": "E3",
          "midi": 52,
          "time": 66.25,
          "velocity": 0.6299212598425197,
          "duration": 0.24895833333333428
        },
        {
          "name": "E2",
          "midi": 40,
          "time": 66.25,
          "velocity": 0.6299212598425197,
          "duration": 0.24895833333333428
        },
        {
          "name": "C3",
          "midi": 48,
          "time": 68,
          "velocity": 0.6299212598425197,
          "duration": 0.24895833333333428
        },
        {
          "name": "C2",
          "midi": 36,
          "time": 68,
          "velocity": 0.6299212598425197,
          "duration": 0.24895833333333428
        },
        {
          "name": "C3",
          "midi": 48,
          "time": 68.25,
          "velocity": 0.6299212598425197,
          "duration": 0.4989583333333343
        },
        {
          "name": "C2",
          "midi": 36,
          "time": 68.25,
          "velocity": 0.6299212598425197,
          "duration": 0.4989583333333343
        },
        {
          "name": "D3",
          "midi": 50,
          "time": 68.75,
          "velocity": 0.6299212598425197,
          "duration": 0.4989583333333343
        },
        {
          "name": "D2",
          "midi": 38,
          "time": 68.75,
          "velocity": 0.6299212598425197,
          "duration": 0.4989583333333343
        },
        {
          "name": "D3",
          "midi": 50,
          "time": 69.25,
          "velocity": 0.6299212598425197,
          "duration": 0.24895833333333428
        },
        {
          "name": "D2",
          "midi": 38,
          "time": 69.25,
          "velocity": 0.6299212598425197,
          "duration": 0.24895833333333428
        },
        {
          "name": "D3",
          "midi": 50,
          "time": 69.5,
          "velocity": 0.6299212598425197,
          "duration": 0.24895833333333428
        },
        {
          "name": "D2",
          "midi": 38,
          "time": 69.5,
          "velocity": 0.6299212598425197,
          "duration": 0.24895833333333428
        },
        {
          "name": "D3",
          "midi": 50,
          "time": 69.75,
          "velocity": 0.6299212598425197,
          "duration": 0.24895833333333428
        },
        {
          "name": "D2",
          "midi": 38,
          "time": 69.75,
          "velocity": 0.6299212598425197,
          "duration": 0.24895833333333428
        },
        {
          "name": "C3",
          "midi": 48,
          "time": 70,
          "velocity": 0.6299212598425197,
          "duration": 0.24895833333333428
        },
        {
          "name": "C2",
          "midi": 36,
          "time": 70,
          "velocity": 0.6299212598425197,
          "duration": 0.24895833333333428
        },
        {
          "name": "G2",
          "midi": 43,
          "time": 70.25,
          "velocity": 0.6299212598425197,
          "duration": 0.24895833333333428
        },
        {
          "name": "C3",
          "midi": 48,
          "time": 70.5,
          "velocity": 0.6299212598425197,
          "duration": 0.24895833333333428
        },
        {
          "name": "E3",
          "midi": 52,
          "time": 70.75,
          "velocity": 0.6299212598425197,
          "duration": 0.24895833333333428
        },
        {
          "name": "C3",
          "midi": 48,
          "time": 71,
          "velocity": 0.6299212598425197,
          "duration": 0.24895833333333428
        },
        {
          "name": "G2",
          "midi": 43,
          "time": 71.25,
          "velocity": 0.6299212598425197,
          "duration": 0.24895833333333428
        },
        {
          "name": "C3",
          "midi": 48,
          "time": 71.5,
          "velocity": 0.6299212598425197,
          "duration": 0.24895833333333428
        },
        {
          "name": "C2",
          "midi": 36,
          "time": 71.5,
          "velocity": 0.6299212598425197,
          "duration": 0.24895833333333428
        },
        {
          "name": "G2",
          "midi": 43,
          "time": 71.75,
          "velocity": 0.6299212598425197,
          "duration": 0.24895833333333428
        },
        {
          "name": "D3",
          "midi": 50,
          "time": 72,
          "velocity": 0.6299212598425197,
          "duration": 0.24895833333333428
        },
        {
          "name": "D2",
          "midi": 38,
          "time": 72,
          "velocity": 0.6299212598425197,
          "duration": 0.24895833333333428
        },
        {
          "name": "A2",
          "midi": 45,
          "time": 72.25,
          "velocity": 0.6299212598425197,
          "duration": 0.24895833333333428
        },
        {
          "name": "D3",
          "midi": 50,
          "time": 72.5,
          "velocity": 0.6299212598425197,
          "duration": 0.24895833333333428
        },
        {
          "name": "F#3",
          "midi": 54,
          "time": 72.75,
          "velocity": 0.6299212598425197,
          "duration": 0.24895833333333428
        },
        {
          "name": "D3",
          "midi": 50,
          "time": 73,
          "velocity": 0.6299212598425197,
          "duration": 0.24895833333333428
        },
        {
          "name": "A2",
          "midi": 45,
          "time": 73.25,
          "velocity": 0.6299212598425197,
          "duration": 0.24895833333333428
        },
        {
          "name": "D3",
          "midi": 50,
          "time": 73.5,
          "velocity": 0.6299212598425197,
          "duration": 0.24895833333333428
        },
        {
          "name": "D2",
          "midi": 38,
          "time": 73.5,
          "velocity": 0.6299212598425197,
          "duration": 0.24895833333333428
        },
        {
          "name": "A2",
          "midi": 45,
          "time": 73.75,
          "velocity": 0.6299212598425197,
          "duration": 0.24895833333333428
        },
        {
          "name": "E3",
          "midi": 52,
          "time": 74,
          "velocity": 0.6299212598425197,
          "duration": 0.24895833333333428
        },
        {
          "name": "E2",
          "midi": 40,
          "time": 74,
          "velocity": 0.6299212598425197,
          "duration": 0.24895833333333428
        },
        {
          "name": "B2",
          "midi": 47,
          "time": 74.25,
          "velocity": 0.6299212598425197,
          "duration": 0.24895833333333428
        },
        {
          "name": "E3",
          "midi": 52,
          "time": 74.5,
          "velocity": 0.6299212598425197,
          "duration": 0.24895833333333428
        },
        {
          "name": "G3",
          "midi": 55,
          "time": 74.75,
          "velocity": 0.6299212598425197,
          "duration": 0.24895833333333428
        },
        {
          "name": "E3",
          "midi": 52,
          "time": 75,
          "velocity": 0.6299212598425197,
          "duration": 0.24895833333333428
        },
        {
          "name": "B2",
          "midi": 47,
          "time": 75.25,
          "velocity": 0.6299212598425197,
          "duration": 0.24895833333333428
        },
        {
          "name": "E3",
          "midi": 52,
          "time": 75.5,
          "velocity": 0.6299212598425197,
          "duration": 0.24895833333333428
        },
        {
          "name": "E2",
          "midi": 40,
          "time": 75.5,
          "velocity": 0.6299212598425197,
          "duration": 0.24895833333333428
        },
        {
          "name": "B2",
          "midi": 47,
          "time": 75.75,
          "velocity": 0.6299212598425197,
          "duration": 0.24895833333333428
        },
        {
          "name": "A3",
          "midi": 57,
          "time": 76,
          "velocity": 0.6299212598425197,
          "duration": 0.24895833333333428
        },
        {
          "name": "A2",
          "midi": 45,
          "time": 76,
          "velocity": 0.6299212598425197,
          "duration": 0.24895833333333428
        },
        {
          "name": "A3",
          "midi": 57,
          "time": 76.25,
          "velocity": 0.6299212598425197,
          "duration": 0.4989583333333343
        },
        {
          "name": "A2",
          "midi": 45,
          "time": 76.25,
          "velocity": 0.6299212598425197,
          "duration": 0.4989583333333343
        },
        {
          "name": "B3",
          "midi": 59,
          "time": 76.75,
          "velocity": 0.6299212598425197,
          "duration": 0.4989583333333343
        },
        {
          "name": "B2",
          "midi": 47,
          "time": 76.75,
          "velocity": 0.6299212598425197,
          "duration": 0.4989583333333343
        },
        {
          "name": "B3",
          "midi": 59,
          "time": 77.25,
          "velocity": 0.6299212598425197,
          "duration": 0.4989583333333343
        },
        {
          "name": "B2",
          "midi": 47,
          "time": 77.25,
          "velocity": 0.6299212598425197,
          "duration": 0.4989583333333343
        },
        {
          "name": "B3",
          "midi": 59,
          "time": 77.75,
          "velocity": 0.6299212598425197,
          "duration": 0.24895833333333428
        },
        {
          "name": "B2",
          "midi": 47,
          "time": 77.75,
          "velocity": 0.6299212598425197,
          "duration": 0.24895833333333428
        },
        {
          "name": "C3",
          "midi": 48,
          "time": 78,
          "velocity": 0.6299212598425197,
          "duration": 0.24895833333333428
        },
        {
          "name": "C2",
          "midi": 36,
          "time": 78,
          "velocity": 0.6299212598425197,
          "duration": 0.24895833333333428
        },
        {
          "name": "G2",
          "midi": 43,
          "time": 78.25,
          "velocity": 0.6299212598425197,
          "duration": 0.24895833333333428
        },
        {
          "name": "C3",
          "midi": 48,
          "time": 78.5,
          "velocity": 0.6299212598425197,
          "duration": 0.24895833333333428
        },
        {
          "name": "E3",
          "midi": 52,
          "time": 78.75,
          "velocity": 0.6299212598425197,
          "duration": 0.24895833333333428
        },
        {
          "name": "C3",
          "midi": 48,
          "time": 79,
          "velocity": 0.6299212598425197,
          "duration": 0.24895833333333428
        },
        {
          "name": "G2",
          "midi": 43,
          "time": 79.25,
          "velocity": 0.6299212598425197,
          "duration": 0.24895833333333428
        },
        {
          "name": "C3",
          "midi": 48,
          "time": 79.5,
          "velocity": 0.6299212598425197,
          "duration": 0.24895833333333428
        },
        {
          "name": "C2",
          "midi": 36,
          "time": 79.5,
          "velocity": 0.6299212598425197,
          "duration": 0.24895833333333428
        },
        {
          "name": "G2",
          "midi": 43,
          "time": 79.75,
          "velocity": 0.6299212598425197,
          "duration": 0.24895833333333428
        },
        {
          "name": "D3",
          "midi": 50,
          "time": 80,
          "velocity": 0.6299212598425197,
          "duration": 0.24895833333333428
        },
        {
          "name": "D2",
          "midi": 38,
          "time": 80,
          "velocity": 0.6299212598425197,
          "duration": 0.24895833333333428
        },
        {
          "name": "A2",
          "midi": 45,
          "time": 80.25,
          "velocity": 0.6299212598425197,
          "duration": 0.24895833333333428
        },
        {
          "name": "D3",
          "midi": 50,
          "time": 80.5,
          "velocity": 0.6299212598425197,
          "duration": 0.24895833333333428
        },
        {
          "name": "F#3",
          "midi": 54,
          "time": 80.75,
          "velocity": 0.6299212598425197,
          "duration": 0.24895833333333428
        },
        {
          "name": "D3",
          "midi": 50,
          "time": 81,
          "velocity": 0.6299212598425197,
          "duration": 0.24895833333333428
        },
        {
          "name": "A2",
          "midi": 45,
          "time": 81.25,
          "velocity": 0.6299212598425197,
          "duration": 0.24895833333333428
        },
        {
          "name": "D3",
          "midi": 50,
          "time": 81.5,
          "velocity": 0.6299212598425197,
          "duration": 0.24895833333333428
        },
        {
          "name": "D2",
          "midi": 38,
          "time": 81.5,
          "velocity": 0.6299212598425197,
          "duration": 0.24895833333333428
        },
        {
          "name": "A2",
          "midi": 45,
          "time": 81.75,
          "velocity": 0.6299212598425197,
          "duration": 0.24895833333333428
        },
        {
          "name": "E3",
          "midi": 52,
          "time": 82,
          "velocity": 0.6299212598425197,
          "duration": 0.24895833333333428
        },
        {
          "name": "E2",
          "midi": 40,
          "time": 82,
          "velocity": 0.6299212598425197,
          "duration": 0.24895833333333428
        },
        {
          "name": "B2",
          "midi": 47,
          "time": 82.25,
          "velocity": 0.6299212598425197,
          "duration": 0.24895833333333428
        },
        {
          "name": "E3",
          "midi": 52,
          "time": 82.5,
          "velocity": 0.6299212598425197,
          "duration": 0.24895833333333428
        },
        {
          "name": "G3",
          "midi": 55,
          "time": 82.75,
          "velocity": 0.6299212598425197,
          "duration": 0.24895833333333428
        },
        {
          "name": "E3",
          "midi": 52,
          "time": 83,
          "velocity": 0.6299212598425197,
          "duration": 0.24895833333333428
        },
        {
          "name": "B2",
          "midi": 47,
          "time": 83.25,
          "velocity": 0.6299212598425197,
          "duration": 0.24895833333333428
        },
        {
          "name": "E3",
          "midi": 52,
          "time": 83.5,
          "velocity": 0.6299212598425197,
          "duration": 0.24895833333333428
        },
        {
          "name": "E2",
          "midi": 40,
          "time": 83.5,
          "velocity": 0.6299212598425197,
          "duration": 0.24895833333333428
        },
        {
          "name": "B2",
          "midi": 47,
          "time": 83.75,
          "velocity": 0.6299212598425197,
          "duration": 0.24895833333333428
        },
        {
          "name": "E3",
          "midi": 52,
          "time": 84,
          "velocity": 0.6299212598425197,
          "duration": 0.24895833333333428
        },
        {
          "name": "E2",
          "midi": 40,
          "time": 84,
          "velocity": 0.6299212598425197,
          "duration": 0.24895833333333428
        },
        {
          "name": "E3",
          "midi": 52,
          "time": 84.25,
          "velocity": 0.6299212598425197,
          "duration": 0.4989583333333343
        },
        {
          "name": "E2",
          "midi": 40,
          "time": 84.25,
          "velocity": 0.6299212598425197,
          "duration": 0.4989583333333343
        },
        {
          "name": "B2",
          "midi": 47,
          "time": 84.75,
          "velocity": 0.6299212598425197,
          "duration": 0.4989583333333343
        },
        {
          "name": "B1",
          "midi": 35,
          "time": 84.75,
          "velocity": 0.6299212598425197,
          "duration": 0.4989583333333343
        },
        {
          "name": "B2",
          "midi": 47,
          "time": 85.25,
          "velocity": 0.6299212598425197,
          "duration": 0.24895833333333428
        },
        {
          "name": "B1",
          "midi": 35,
          "time": 85.25,
          "velocity": 0.6299212598425197,
          "duration": 0.24895833333333428
        },
        {
          "name": "B2",
          "midi": 47,
          "time": 85.5,
          "velocity": 0.6299212598425197,
          "duration": 0.24895833333333428
        },
        {
          "name": "B1",
          "midi": 35,
          "time": 85.5,
          "velocity": 0.6299212598425197,
          "duration": 0.24895833333333428
        },
        {
          "name": "B2",
          "midi": 47,
          "time": 85.75,
          "velocity": 0.6299212598425197,
          "duration": 0.24895833333333428
        },
        {
          "name": "B1",
          "midi": 35,
          "time": 85.75,
          "velocity": 0.6299212598425197,
          "duration": 0.24895833333333428
        },
        {
          "name": "C3",
          "midi": 48,
          "time": 86,
          "velocity": 0.6299212598425197,
          "duration": 0.24895833333333428
        },
        {
          "name": "C2",
          "midi": 36,
          "time": 86,
          "velocity": 0.6299212598425197,
          "duration": 0.24895833333333428
        },
        {
          "name": "G2",
          "midi": 43,
          "time": 86.25,
          "velocity": 0.6299212598425197,
          "duration": 0.24895833333333428
        },
        {
          "name": "C3",
          "midi": 48,
          "time": 86.5,
          "velocity": 0.6299212598425197,
          "duration": 0.24895833333333428
        },
        {
          "name": "E3",
          "midi": 52,
          "time": 86.75,
          "velocity": 0.6299212598425197,
          "duration": 0.24895833333333428
        },
        {
          "name": "C3",
          "midi": 48,
          "time": 87,
          "velocity": 0.6299212598425197,
          "duration": 0.24895833333333428
        },
        {
          "name": "G2",
          "midi": 43,
          "time": 87.25,
          "velocity": 0.6299212598425197,
          "duration": 0.24895833333333428
        },
        {
          "name": "C3",
          "midi": 48,
          "time": 87.5,
          "velocity": 0.6299212598425197,
          "duration": 0.24895833333333428
        },
        {
          "name": "C2",
          "midi": 36,
          "time": 87.5,
          "velocity": 0.6299212598425197,
          "duration": 0.24895833333333428
        },
        {
          "name": "G2",
          "midi": 43,
          "time": 87.75,
          "velocity": 0.6299212598425197,
          "duration": 0.24895833333333428
        },
        {
          "name": "D3",
          "midi": 50,
          "time": 88,
          "velocity": 0.6299212598425197,
          "duration": 0.24895833333333428
        },
        {
          "name": "D2",
          "midi": 38,
          "time": 88,
          "velocity": 0.6299212598425197,
          "duration": 0.24895833333333428
        },
        {
          "name": "A2",
          "midi": 45,
          "time": 88.25,
          "velocity": 0.6299212598425197,
          "duration": 0.24895833333333428
        },
        {
          "name": "D3",
          "midi": 50,
          "time": 88.5,
          "velocity": 0.6299212598425197,
          "duration": 0.24895833333333428
        },
        {
          "name": "F#3",
          "midi": 54,
          "time": 88.75,
          "velocity": 0.6299212598425197,
          "duration": 0.24895833333333428
        },
        {
          "name": "D3",
          "midi": 50,
          "time": 89,
          "velocity": 0.6299212598425197,
          "duration": 0.24895833333333428
        },
        {
          "name": "A2",
          "midi": 45,
          "time": 89.25,
          "velocity": 0.6299212598425197,
          "duration": 0.24895833333333428
        },
        {
          "name": "D3",
          "midi": 50,
          "time": 89.5,
          "velocity": 0.6299212598425197,
          "duration": 0.24895833333333428
        },
        {
          "name": "D2",
          "midi": 38,
          "time": 89.5,
          "velocity": 0.6299212598425197,
          "duration": 0.24895833333333428
        },
        {
          "name": "A2",
          "midi": 45,
          "time": 89.75,
          "velocity": 0.6299212598425197,
          "duration": 0.24895833333333428
        },
        {
          "name": "E3",
          "midi": 52,
          "time": 90,
          "velocity": 0.6299212598425197,
          "duration": 0.24895833333333428
        },
        {
          "name": "E2",
          "midi": 40,
          "time": 90,
          "velocity": 0.6299212598425197,
          "duration": 0.24895833333333428
        },
        {
          "name": "B2",
          "midi": 47,
          "time": 90.25,
          "velocity": 0.6299212598425197,
          "duration": 0.24895833333333428
        },
        {
          "name": "E3",
          "midi": 52,
          "time": 90.5,
          "velocity": 0.6299212598425197,
          "duration": 0.24895833333333428
        },
        {
          "name": "G3",
          "midi": 55,
          "time": 90.75,
          "velocity": 0.6299212598425197,
          "duration": 0.24895833333333428
        },
        {
          "name": "E3",
          "midi": 52,
          "time": 91,
          "velocity": 0.6299212598425197,
          "duration": 0.24895833333333428
        },
        {
          "name": "B2",
          "midi": 47,
          "time": 91.25,
          "velocity": 0.6299212598425197,
          "duration": 0.24895833333333428
        },
        {
          "name": "E3",
          "midi": 52,
          "time": 91.5,
          "velocity": 0.6299212598425197,
          "duration": 0.24895833333333428
        },
        {
          "name": "E2",
          "midi": 40,
          "time": 91.5,
          "velocity": 0.6299212598425197,
          "duration": 0.24895833333333428
        },
        {
          "name": "B2",
          "midi": 47,
          "time": 91.75,
          "velocity": 0.6299212598425197,
          "duration": 0.24895833333333428
        },
        {
          "name": "A3",
          "midi": 57,
          "time": 92,
          "velocity": 0.6299212598425197,
          "duration": 0.24895833333333428
        },
        {
          "name": "A2",
          "midi": 45,
          "time": 92,
          "velocity": 0.6299212598425197,
          "duration": 0.24895833333333428
        },
        {
          "name": "A3",
          "midi": 57,
          "time": 92.25,
          "velocity": 0.6299212598425197,
          "duration": 0.4989583333333343
        },
        {
          "name": "A2",
          "midi": 45,
          "time": 92.25,
          "velocity": 0.6299212598425197,
          "duration": 0.4989583333333343
        },
        {
          "name": "B3",
          "midi": 59,
          "time": 92.75,
          "velocity": 0.6299212598425197,
          "duration": 0.4989583333333343
        },
        {
          "name": "B2",
          "midi": 47,
          "time": 92.75,
          "velocity": 0.6299212598425197,
          "duration": 0.4989583333333343
        },
        {
          "name": "B3",
          "midi": 59,
          "time": 93.25,
          "velocity": 0.6299212598425197,
          "duration": 0.4989583333333343
        },
        {
          "name": "B2",
          "midi": 47,
          "time": 93.25,
          "velocity": 0.6299212598425197,
          "duration": 0.4989583333333343
        },
        {
          "name": "B3",
          "midi": 59,
          "time": 93.75,
          "velocity": 0.6299212598425197,
          "duration": 0.24895833333333428
        },
        {
          "name": "B2",
          "midi": 47,
          "time": 93.75,
          "velocity": 0.6299212598425197,
          "duration": 0.24895833333333428
        },
        {
          "name": "C3",
          "midi": 48,
          "time": 94,
          "velocity": 0.6299212598425197,
          "duration": 0.24895833333333428
        },
        {
          "name": "C2",
          "midi": 36,
          "time": 94,
          "velocity": 0.6299212598425197,
          "duration": 0.24895833333333428
        },
        {
          "name": "G2",
          "midi": 43,
          "time": 94.25,
          "velocity": 0.6299212598425197,
          "duration": 0.24895833333333428
        },
        {
          "name": "C3",
          "midi": 48,
          "time": 94.5,
          "velocity": 0.6299212598425197,
          "duration": 0.24895833333333428
        },
        {
          "name": "E3",
          "midi": 52,
          "time": 94.75,
          "velocity": 0.6299212598425197,
          "duration": 0.24895833333333428
        },
        {
          "name": "C3",
          "midi": 48,
          "time": 95,
          "velocity": 0.6299212598425197,
          "duration": 0.24895833333333428
        },
        {
          "name": "G2",
          "midi": 43,
          "time": 95.25,
          "velocity": 0.6299212598425197,
          "duration": 0.24895833333333428
        },
        {
          "name": "C3",
          "midi": 48,
          "time": 95.5,
          "velocity": 0.6299212598425197,
          "duration": 0.24895833333333428
        },
        {
          "name": "C2",
          "midi": 36,
          "time": 95.5,
          "velocity": 0.6299212598425197,
          "duration": 0.24895833333333428
        },
        {
          "name": "G2",
          "midi": 43,
          "time": 95.75,
          "velocity": 0.6299212598425197,
          "duration": 0.24895833333333428
        },
        {
          "name": "D3",
          "midi": 50,
          "time": 96,
          "velocity": 0.6299212598425197,
          "duration": 0.24895833333333428
        },
        {
          "name": "D2",
          "midi": 38,
          "time": 96,
          "velocity": 0.6299212598425197,
          "duration": 0.24895833333333428
        },
        {
          "name": "A2",
          "midi": 45,
          "time": 96.25,
          "velocity": 0.6299212598425197,
          "duration": 0.24895833333333428
        },
        {
          "name": "D3",
          "midi": 50,
          "time": 96.5,
          "velocity": 0.6299212598425197,
          "duration": 0.24895833333333428
        },
        {
          "name": "F#3",
          "midi": 54,
          "time": 96.75,
          "velocity": 0.6299212598425197,
          "duration": 0.24895833333333428
        },
        {
          "name": "D3",
          "midi": 50,
          "time": 97,
          "velocity": 0.6299212598425197,
          "duration": 0.24895833333333428
        },
        {
          "name": "A2",
          "midi": 45,
          "time": 97.25,
          "velocity": 0.6299212598425197,
          "duration": 0.24895833333333428
        },
        {
          "name": "D3",
          "midi": 50,
          "time": 97.5,
          "velocity": 0.6299212598425197,
          "duration": 0.24895833333333428
        },
        {
          "name": "D2",
          "midi": 38,
          "time": 97.5,
          "velocity": 0.6299212598425197,
          "duration": 0.24895833333333428
        },
        {
          "name": "A2",
          "midi": 45,
          "time": 97.75,
          "velocity": 0.6299212598425197,
          "duration": 0.24895833333333428
        },
        {
          "name": "E3",
          "midi": 52,
          "time": 98,
          "velocity": 0.6299212598425197,
          "duration": 0.4989583333333343
        },
        {
          "name": "E2",
          "midi": 40,
          "time": 98,
          "velocity": 0.6299212598425197,
          "duration": 0.4989583333333343
        },
        {
          "name": "E3",
          "midi": 52,
          "time": 98.5,
          "velocity": 0.6299212598425197,
          "duration": 0.24895833333333428
        },
        {
          "name": "E2",
          "midi": 40,
          "time": 98.5,
          "velocity": 0.6299212598425197,
          "duration": 0.24895833333333428
        },
        {
          "name": "E3",
          "midi": 52,
          "time": 98.75,
          "velocity": 0.6299212598425197,
          "duration": 0.4989583333333343
        },
        {
          "name": "E2",
          "midi": 40,
          "time": 98.75,
          "velocity": 0.6299212598425197,
          "duration": 0.4989583333333343
        },
        {
          "name": "E3",
          "midi": 52,
          "time": 99.25,
          "velocity": 0.6299212598425197,
          "duration": 0.24895833333333428
        },
        {
          "name": "E2",
          "midi": 40,
          "time": 99.25,
          "velocity": 0.6299212598425197,
          "duration": 0.24895833333333428
        },
        {
          "name": "E3",
          "midi": 52,
          "time": 99.5,
          "velocity": 0.6299212598425197,
          "duration": 0.24895833333333428
        },
        {
          "name": "E2",
          "midi": 40,
          "time": 99.5,
          "velocity": 0.6299212598425197,
          "duration": 0.24895833333333428
        },
        {
          "name": "E3",
          "midi": 52,
          "time": 99.75,
          "velocity": 0.6299212598425197,
          "duration": 0.24895833333333428
        },
        {
          "name": "E2",
          "midi": 40,
          "time": 99.75,
          "velocity": 0.6299212598425197,
          "duration": 0.24895833333333428
        },
        {
          "name": "E3",
          "midi": 52,
          "time": 100,
          "velocity": 0.6299212598425197,
          "duration": 0.4989583333333343
        },
        {
          "name": "E2",
          "midi": 40,
          "time": 100,
          "velocity": 0.6299212598425197,
          "duration": 0.4989583333333343
        },
        {
          "name": "E3",
          "midi": 52,
          "time": 100.5,
          "velocity": 0.6299212598425197,
          "duration": 0.24895833333333428
        },
        {
          "name": "E2",
          "midi": 40,
          "time": 100.5,
          "velocity": 0.6299212598425197,
          "duration": 0.24895833333333428
        },
        {
          "name": "E3",
          "midi": 52,
          "time": 100.75,
          "velocity": 0.6299212598425197,
          "duration": 0.4989583333333343
        },
        {
          "name": "E2",
          "midi": 40,
          "time": 100.75,
          "velocity": 0.6299212598425197,
          "duration": 0.4989583333333343
        },
        {
          "name": "E3",
          "midi": 52,
          "time": 101.25,
          "velocity": 0.6299212598425197,
          "duration": 0.24895833333333428
        },
        {
          "name": "E2",
          "midi": 40,
          "time": 101.25,
          "velocity": 0.6299212598425197,
          "duration": 0.24895833333333428
        },
        {
          "name": "E3",
          "midi": 52,
          "time": 101.5,
          "velocity": 0.6299212598425197,
          "duration": 0.24895833333333428
        },
        {
          "name": "E2",
          "midi": 40,
          "time": 101.5,
          "velocity": 0.6299212598425197,
          "duration": 0.24895833333333428
        },
        {
          "name": "E3",
          "midi": 52,
          "time": 101.75,
          "velocity": 0.6299212598425197,
          "duration": 0.24895833333333428
        },
        {
          "name": "E2",
          "midi": 40,
          "time": 101.75,
          "velocity": 0.6299212598425197,
          "duration": 0.24895833333333428
        },
        {
          "name": "E3",
          "midi": 52,
          "time": 102,
          "velocity": 0.6299212598425197,
          "duration": 0.4989583333333343
        },
        {
          "name": "E2",
          "midi": 40,
          "time": 102,
          "velocity": 0.6299212598425197,
          "duration": 0.4989583333333343
        },
        {
          "name": "E3",
          "midi": 52,
          "time": 102.5,
          "velocity": 0.6299212598425197,
          "duration": 0.24895833333333428
        },
        {
          "name": "E2",
          "midi": 40,
          "time": 102.5,
          "velocity": 0.6299212598425197,
          "duration": 0.24895833333333428
        },
        {
          "name": "E3",
          "midi": 52,
          "time": 102.75,
          "velocity": 0.6299212598425197,
          "duration": 0.4989583333333343
        },
        {
          "name": "E2",
          "midi": 40,
          "time": 102.75,
          "velocity": 0.6299212598425197,
          "duration": 0.4989583333333343
        },
        {
          "name": "E3",
          "midi": 52,
          "time": 103.25,
          "velocity": 0.6299212598425197,
          "duration": 0.24895833333333428
        },
        {
          "name": "E2",
          "midi": 40,
          "time": 103.25,
          "velocity": 0.6299212598425197,
          "duration": 0.24895833333333428
        },
        {
          "name": "E3",
          "midi": 52,
          "time": 103.5,
          "velocity": 0.6299212598425197,
          "duration": 0.24895833333333428
        },
        {
          "name": "E2",
          "midi": 40,
          "time": 103.5,
          "velocity": 0.6299212598425197,
          "duration": 0.24895833333333428
        },
        {
          "name": "E3",
          "midi": 52,
          "time": 103.75,
          "velocity": 0.6299212598425197,
          "duration": 0.24895833333333428
        },
        {
          "name": "E2",
          "midi": 40,
          "time": 103.75,
          "velocity": 0.6299212598425197,
          "duration": 0.24895833333333428
        },
        {
          "name": "E3",
          "midi": 52,
          "time": 104,
          "velocity": 0.6299212598425197,
          "duration": 0.4989583333333343
        },
        {
          "name": "E2",
          "midi": 40,
          "time": 104,
          "velocity": 0.6299212598425197,
          "duration": 0.4989583333333343
        },
        {
          "name": "E3",
          "midi": 52,
          "time": 104.5,
          "velocity": 0.6299212598425197,
          "duration": 0.24895833333333428
        },
        {
          "name": "E2",
          "midi": 40,
          "time": 104.5,
          "velocity": 0.6299212598425197,
          "duration": 0.24895833333333428
        },
        {
          "name": "E3",
          "midi": 52,
          "time": 104.75,
          "velocity": 0.6299212598425197,
          "duration": 0.4989583333333343
        },
        {
          "name": "E2",
          "midi": 40,
          "time": 104.75,
          "velocity": 0.6299212598425197,
          "duration": 0.4989583333333343
        },
        {
          "name": "E3",
          "midi": 52,
          "time": 105.25,
          "velocity": 0.6299212598425197,
          "duration": 0.24895833333333428
        },
        {
          "name": "E2",
          "midi": 40,
          "time": 105.25,
          "velocity": 0.6299212598425197,
          "duration": 0.24895833333333428
        },
        {
          "name": "E3",
          "midi": 52,
          "time": 105.5,
          "velocity": 0.6299212598425197,
          "duration": 0.24895833333333428
        },
        {
          "name": "E2",
          "midi": 40,
          "time": 105.5,
          "velocity": 0.6299212598425197,
          "duration": 0.24895833333333428
        },
        {
          "name": "E3",
          "midi": 52,
          "time": 105.75,
          "velocity": 0.6299212598425197,
          "duration": 0.24895833333333428
        },
        {
          "name": "E2",
          "midi": 40,
          "time": 105.75,
          "velocity": 0.6299212598425197,
          "duration": 0.24895833333333428
        },
        {
          "name": "E3",
          "midi": 52,
          "time": 106,
          "velocity": 0.6299212598425197,
          "duration": 0.4989583333333343
        },
        {
          "name": "E2",
          "midi": 40,
          "time": 106,
          "velocity": 0.6299212598425197,
          "duration": 0.4989583333333343
        },
        {
          "name": "E3",
          "midi": 52,
          "time": 106.5,
          "velocity": 0.6299212598425197,
          "duration": 0.7489583333333343
        },
        {
          "name": "E2",
          "midi": 40,
          "time": 106.5,
          "velocity": 0.6299212598425197,
          "duration": 0.7489583333333343
        },
        {
          "name": "E3",
          "midi": 52,
          "time": 107.25,
          "velocity": 0.6299212598425197,
          "duration": 0.24895833333333428
        },
        {
          "name": "E2",
          "midi": 40,
          "time": 107.25,
          "velocity": 0.6299212598425197,
          "duration": 0.24895833333333428
        },
        {
          "name": "E3",
          "midi": 52,
          "time": 107.5,
          "velocity": 0.6299212598425197,
          "duration": 0.24895833333333428
        },
        {
          "name": "E2",
          "midi": 40,
          "time": 107.5,
          "velocity": 0.6299212598425197,
          "duration": 0.24895833333333428
        },
        {
          "name": "E3",
          "midi": 52,
          "time": 107.75,
          "velocity": 0.6299212598425197,
          "duration": 0.24895833333333428
        },
        {
          "name": "E2",
          "midi": 40,
          "time": 107.75,
          "velocity": 0.6299212598425197,
          "duration": 0.24895833333333428
        },
        {
          "name": "D3",
          "midi": 50,
          "time": 108,
          "velocity": 0.6299212598425197,
          "duration": 0.4989583333333343
        },
        {
          "name": "D2",
          "midi": 38,
          "time": 108,
          "velocity": 0.6299212598425197,
          "duration": 0.4989583333333343
        },
        {
          "name": "D3",
          "midi": 50,
          "time": 108.5,
          "velocity": 0.6299212598425197,
          "duration": 0.7489583333333343
        },
        {
          "name": "D2",
          "midi": 38,
          "time": 108.5,
          "velocity": 0.6299212598425197,
          "duration": 0.7489583333333343
        },
        {
          "name": "D3",
          "midi": 50,
          "time": 109.25,
          "velocity": 0.6299212598425197,
          "duration": 0.24895833333333428
        },
        {
          "name": "D2",
          "midi": 38,
          "time": 109.25,
          "velocity": 0.6299212598425197,
          "duration": 0.24895833333333428
        },
        {
          "name": "D3",
          "midi": 50,
          "time": 109.5,
          "velocity": 0.6299212598425197,
          "duration": 0.24895833333333428
        },
        {
          "name": "D2",
          "midi": 38,
          "time": 109.5,
          "velocity": 0.6299212598425197,
          "duration": 0.24895833333333428
        },
        {
          "name": "D3",
          "midi": 50,
          "time": 109.75,
          "velocity": 0.6299212598425197,
          "duration": 0.24895833333333428
        },
        {
          "name": "D2",
          "midi": 38,
          "time": 109.75,
          "velocity": 0.6299212598425197,
          "duration": 0.24895833333333428
        },
        {
          "name": "C3",
          "midi": 48,
          "time": 110,
          "velocity": 0.6299212598425197,
          "duration": 0.4989583333333343
        },
        {
          "name": "C2",
          "midi": 36,
          "time": 110,
          "velocity": 0.6299212598425197,
          "duration": 0.4989583333333343
        },
        {
          "name": "C3",
          "midi": 48,
          "time": 110.5,
          "velocity": 0.6299212598425197,
          "duration": 0.7489583333333343
        },
        {
          "name": "C2",
          "midi": 36,
          "time": 110.5,
          "velocity": 0.6299212598425197,
          "duration": 0.7489583333333343
        },
        {
          "name": "C3",
          "midi": 48,
          "time": 111.25,
          "velocity": 0.6299212598425197,
          "duration": 0.24895833333333428
        },
        {
          "name": "C2",
          "midi": 36,
          "time": 111.25,
          "velocity": 0.6299212598425197,
          "duration": 0.24895833333333428
        },
        {
          "name": "C3",
          "midi": 48,
          "time": 111.5,
          "velocity": 0.6299212598425197,
          "duration": 0.24895833333333428
        },
        {
          "name": "C2",
          "midi": 36,
          "time": 111.5,
          "velocity": 0.6299212598425197,
          "duration": 0.24895833333333428
        },
        {
          "name": "C3",
          "midi": 48,
          "time": 111.75,
          "velocity": 0.6299212598425197,
          "duration": 0.24895833333333428
        },
        {
          "name": "C2",
          "midi": 36,
          "time": 111.75,
          "velocity": 0.6299212598425197,
          "duration": 0.24895833333333428
        },
        {
          "name": "C3",
          "midi": 48,
          "time": 112,
          "velocity": 0.6299212598425197,
          "duration": 0.4989583333333343
        },
        {
          "name": "C2",
          "midi": 36,
          "time": 112,
          "velocity": 0.6299212598425197,
          "duration": 0.4989583333333343
        },
        {
          "name": "C3",
          "midi": 48,
          "time": 112.5,
          "velocity": 0.6299212598425197,
          "duration": 0.7489583333333343
        },
        {
          "name": "C2",
          "midi": 36,
          "time": 112.5,
          "velocity": 0.6299212598425197,
          "duration": 0.7489583333333343
        },
        {
          "name": "C3",
          "midi": 48,
          "time": 113.25,
          "velocity": 0.6299212598425197,
          "duration": 0.24895833333333428
        },
        {
          "name": "C2",
          "midi": 36,
          "time": 113.25,
          "velocity": 0.6299212598425197,
          "duration": 0.24895833333333428
        },
        {
          "name": "C3",
          "midi": 48,
          "time": 113.5,
          "velocity": 0.6299212598425197,
          "duration": 0.24895833333333428
        },
        {
          "name": "C2",
          "midi": 36,
          "time": 113.5,
          "velocity": 0.6299212598425197,
          "duration": 0.24895833333333428
        },
        {
          "name": "C3",
          "midi": 48,
          "time": 113.75,
          "velocity": 0.6299212598425197,
          "duration": 0.24895833333333428
        },
        {
          "name": "C2",
          "midi": 36,
          "time": 113.75,
          "velocity": 0.6299212598425197,
          "duration": 0.24895833333333428
        },
        {
          "name": "E3",
          "midi": 52,
          "time": 114,
          "velocity": 0.6299212598425197,
          "duration": 0.4989583333333343
        },
        {
          "name": "E2",
          "midi": 40,
          "time": 114,
          "velocity": 0.6299212598425197,
          "duration": 0.4989583333333343
        },
        {
          "name": "E3",
          "midi": 52,
          "time": 114.5,
          "velocity": 0.6299212598425197,
          "duration": 0.7489583333333343
        },
        {
          "name": "E2",
          "midi": 40,
          "time": 114.5,
          "velocity": 0.6299212598425197,
          "duration": 0.7489583333333343
        },
        {
          "name": "E3",
          "midi": 52,
          "time": 115.25,
          "velocity": 0.6299212598425197,
          "duration": 0.24895833333333428
        },
        {
          "name": "E2",
          "midi": 40,
          "time": 115.25,
          "velocity": 0.6299212598425197,
          "duration": 0.24895833333333428
        },
        {
          "name": "E3",
          "midi": 52,
          "time": 115.5,
          "velocity": 0.6299212598425197,
          "duration": 0.24895833333333428
        },
        {
          "name": "E2",
          "midi": 40,
          "time": 115.5,
          "velocity": 0.6299212598425197,
          "duration": 0.24895833333333428
        },
        {
          "name": "E3",
          "midi": 52,
          "time": 115.75,
          "velocity": 0.6299212598425197,
          "duration": 0.24895833333333428
        },
        {
          "name": "E2",
          "midi": 40,
          "time": 115.75,
          "velocity": 0.6299212598425197,
          "duration": 0.24895833333333428
        },
        {
          "name": "D3",
          "midi": 50,
          "time": 116,
          "velocity": 0.6299212598425197,
          "duration": 0.4989583333333343
        },
        {
          "name": "D2",
          "midi": 38,
          "time": 116,
          "velocity": 0.6299212598425197,
          "duration": 0.4989583333333343
        },
        {
          "name": "D3",
          "midi": 50,
          "time": 116.5,
          "velocity": 0.6299212598425197,
          "duration": 0.7489583333333343
        },
        {
          "name": "D2",
          "midi": 38,
          "time": 116.5,
          "velocity": 0.6299212598425197,
          "duration": 0.7489583333333343
        },
        {
          "name": "D3",
          "midi": 50,
          "time": 117.25,
          "velocity": 0.6299212598425197,
          "duration": 0.24895833333333428
        },
        {
          "name": "D2",
          "midi": 38,
          "time": 117.25,
          "velocity": 0.6299212598425197,
          "duration": 0.24895833333333428
        },
        {
          "name": "D3",
          "midi": 50,
          "time": 117.5,
          "velocity": 0.6299212598425197,
          "duration": 0.24895833333333428
        },
        {
          "name": "D2",
          "midi": 38,
          "time": 117.5,
          "velocity": 0.6299212598425197,
          "duration": 0.24895833333333428
        },
        {
          "name": "D3",
          "midi": 50,
          "time": 117.75,
          "velocity": 0.6299212598425197,
          "duration": 0.24895833333333428
        },
        {
          "name": "D2",
          "midi": 38,
          "time": 117.75,
          "velocity": 0.6299212598425197,
          "duration": 0.24895833333333428
        },
        {
          "name": "C3",
          "midi": 48,
          "time": 118,
          "velocity": 0.6299212598425197,
          "duration": 0.4989583333333343
        },
        {
          "name": "C2",
          "midi": 36,
          "time": 118,
          "velocity": 0.6299212598425197,
          "duration": 0.4989583333333343
        },
        {
          "name": "C3",
          "midi": 48,
          "time": 118.5,
          "velocity": 0.6299212598425197,
          "duration": 0.7489583333333343
        },
        {
          "name": "C2",
          "midi": 36,
          "time": 118.5,
          "velocity": 0.6299212598425197,
          "duration": 0.7489583333333343
        },
        {
          "name": "C3",
          "midi": 48,
          "time": 119.25,
          "velocity": 0.6299212598425197,
          "duration": 0.24895833333333428
        },
        {
          "name": "C2",
          "midi": 36,
          "time": 119.25,
          "velocity": 0.6299212598425197,
          "duration": 0.24895833333333428
        },
        {
          "name": "C3",
          "midi": 48,
          "time": 119.5,
          "velocity": 0.6299212598425197,
          "duration": 0.24895833333333428
        },
        {
          "name": "C2",
          "midi": 36,
          "time": 119.5,
          "velocity": 0.6299212598425197,
          "duration": 0.24895833333333428
        },
        {
          "name": "C3",
          "midi": 48,
          "time": 119.75,
          "velocity": 0.6299212598425197,
          "duration": 0.24895833333333428
        },
        {
          "name": "C2",
          "midi": 36,
          "time": 119.75,
          "velocity": 0.6299212598425197,
          "duration": 0.24895833333333428
        },
        {
          "name": "C3",
          "midi": 48,
          "time": 120,
          "velocity": 0.6299212598425197,
          "duration": 0.4989583333333343
        },
        {
          "name": "C2",
          "midi": 36,
          "time": 120,
          "velocity": 0.6299212598425197,
          "duration": 0.4989583333333343
        },
        {
          "name": "C3",
          "midi": 48,
          "time": 120.5,
          "velocity": 0.6299212598425197,
          "duration": 0.7489583333333343
        },
        {
          "name": "C2",
          "midi": 36,
          "time": 120.5,
          "velocity": 0.6299212598425197,
          "duration": 0.7489583333333343
        },
        {
          "name": "C3",
          "midi": 48,
          "time": 121.25,
          "velocity": 0.6299212598425197,
          "duration": 0.24895833333333428
        },
        {
          "name": "C2",
          "midi": 36,
          "time": 121.25,
          "velocity": 0.6299212598425197,
          "duration": 0.24895833333333428
        },
        {
          "name": "C3",
          "midi": 48,
          "time": 121.5,
          "velocity": 0.6299212598425197,
          "duration": 0.24895833333333428
        },
        {
          "name": "C2",
          "midi": 36,
          "time": 121.5,
          "velocity": 0.6299212598425197,
          "duration": 0.24895833333333428
        },
        {
          "name": "C3",
          "midi": 48,
          "time": 121.75,
          "velocity": 0.6299212598425197,
          "duration": 0.24895833333333428
        },
        {
          "name": "C2",
          "midi": 36,
          "time": 121.75,
          "velocity": 0.6299212598425197,
          "duration": 0.24895833333333428
        },
        {
          "name": "E3",
          "midi": 52,
          "time": 122,
          "velocity": 0.6299212598425197,
          "duration": 0.4989583333333343
        },
        {
          "name": "E2",
          "midi": 40,
          "time": 122,
          "velocity": 0.6299212598425197,
          "duration": 0.4989583333333343
        },
        {
          "name": "E3",
          "midi": 52,
          "time": 122.5,
          "velocity": 0.6299212598425197,
          "duration": 0.7489583333333343
        },
        {
          "name": "E2",
          "midi": 40,
          "time": 122.5,
          "velocity": 0.6299212598425197,
          "duration": 0.7489583333333343
        },
        {
          "name": "E3",
          "midi": 52,
          "time": 123.25,
          "velocity": 0.6299212598425197,
          "duration": 0.24895833333333428
        },
        {
          "name": "E2",
          "midi": 40,
          "time": 123.25,
          "velocity": 0.6299212598425197,
          "duration": 0.24895833333333428
        },
        {
          "name": "E3",
          "midi": 52,
          "time": 123.5,
          "velocity": 0.6299212598425197,
          "duration": 0.24895833333333428
        },
        {
          "name": "E2",
          "midi": 40,
          "time": 123.5,
          "velocity": 0.6299212598425197,
          "duration": 0.24895833333333428
        },
        {
          "name": "E3",
          "midi": 52,
          "time": 123.75,
          "velocity": 0.6299212598425197,
          "duration": 0.24895833333333428
        },
        {
          "name": "E2",
          "midi": 40,
          "time": 123.75,
          "velocity": 0.6299212598425197,
          "duration": 0.24895833333333428
        },
        {
          "name": "D3",
          "midi": 50,
          "time": 124,
          "velocity": 0.6299212598425197,
          "duration": 0.4989583333333343
        },
        {
          "name": "D2",
          "midi": 38,
          "time": 124,
          "velocity": 0.6299212598425197,
          "duration": 0.4989583333333343
        },
        {
          "name": "D3",
          "midi": 50,
          "time": 124.5,
          "velocity": 0.6299212598425197,
          "duration": 0.7489583333333343
        },
        {
          "name": "D2",
          "midi": 38,
          "time": 124.5,
          "velocity": 0.6299212598425197,
          "duration": 0.7489583333333343
        },
        {
          "name": "D3",
          "midi": 50,
          "time": 125.25,
          "velocity": 0.6299212598425197,
          "duration": 0.24895833333333428
        },
        {
          "name": "D2",
          "midi": 38,
          "time": 125.25,
          "velocity": 0.6299212598425197,
          "duration": 0.24895833333333428
        },
        {
          "name": "D3",
          "midi": 50,
          "time": 125.5,
          "velocity": 0.6299212598425197,
          "duration": 0.24895833333333428
        },
        {
          "name": "D2",
          "midi": 38,
          "time": 125.5,
          "velocity": 0.6299212598425197,
          "duration": 0.24895833333333428
        },
        {
          "name": "D3",
          "midi": 50,
          "time": 125.75,
          "velocity": 0.6299212598425197,
          "duration": 0.24895833333333428
        },
        {
          "name": "D2",
          "midi": 38,
          "time": 125.75,
          "velocity": 0.6299212598425197,
          "duration": 0.24895833333333428
        },
        {
          "name": "C3",
          "midi": 48,
          "time": 126,
          "velocity": 0.6299212598425197,
          "duration": 0.4989583333333343
        },
        {
          "name": "C2",
          "midi": 36,
          "time": 126,
          "velocity": 0.6299212598425197,
          "duration": 0.4989583333333343
        },
        {
          "name": "C3",
          "midi": 48,
          "time": 126.5,
          "velocity": 0.6299212598425197,
          "duration": 0.7489583333333343
        },
        {
          "name": "C2",
          "midi": 36,
          "time": 126.5,
          "velocity": 0.6299212598425197,
          "duration": 0.7489583333333343
        },
        {
          "name": "C3",
          "midi": 48,
          "time": 127.25,
          "velocity": 0.6299212598425197,
          "duration": 0.24895833333333428
        },
        {
          "name": "C2",
          "midi": 36,
          "time": 127.25,
          "velocity": 0.6299212598425197,
          "duration": 0.24895833333333428
        },
        {
          "name": "C3",
          "midi": 48,
          "time": 127.5,
          "velocity": 0.6299212598425197,
          "duration": 0.24895833333333428
        },
        {
          "name": "C2",
          "midi": 36,
          "time": 127.5,
          "velocity": 0.6299212598425197,
          "duration": 0.24895833333333428
        },
        {
          "name": "C3",
          "midi": 48,
          "time": 127.75,
          "velocity": 0.6299212598425197,
          "duration": 0.24895833333333428
        },
        {
          "name": "C2",
          "midi": 36,
          "time": 127.75,
          "velocity": 0.6299212598425197,
          "duration": 0.24895833333333428
        },
        {
          "name": "C3",
          "midi": 48,
          "time": 128,
          "velocity": 0.6299212598425197,
          "duration": 0.49895833333332007
        },
        {
          "name": "C2",
          "midi": 36,
          "time": 128,
          "velocity": 0.6299212598425197,
          "duration": 0.49895833333332007
        },
        {
          "name": "C3",
          "midi": 48,
          "time": 128.5,
          "velocity": 0.6299212598425197,
          "duration": 0.7489583333333201
        },
        {
          "name": "C2",
          "midi": 36,
          "time": 128.5,
          "velocity": 0.6299212598425197,
          "duration": 0.7489583333333201
        },
        {
          "name": "C3",
          "midi": 48,
          "time": 129.25,
          "velocity": 0.6299212598425197,
          "duration": 0.24895833333332007
        },
        {
          "name": "C2",
          "midi": 36,
          "time": 129.25,
          "velocity": 0.6299212598425197,
          "duration": 0.24895833333332007
        },
        {
          "name": "C3",
          "midi": 48,
          "time": 129.5,
          "velocity": 0.6299212598425197,
          "duration": 0.24895833333332007
        },
        {
          "name": "C2",
          "midi": 36,
          "time": 129.5,
          "velocity": 0.6299212598425197,
          "duration": 0.24895833333332007
        },
        {
          "name": "C3",
          "midi": 48,
          "time": 129.75,
          "velocity": 0.6299212598425197,
          "duration": 0.24895833333332007
        },
        {
          "name": "C2",
          "midi": 36,
          "time": 129.75,
          "velocity": 0.6299212598425197,
          "duration": 0.24895833333332007
        },
        {
          "name": "E3",
          "midi": 52,
          "time": 130,
          "velocity": 0.6299212598425197,
          "duration": 0.49895833333332007
        },
        {
          "name": "E2",
          "midi": 40,
          "time": 130,
          "velocity": 0.6299212598425197,
          "duration": 0.49895833333332007
        },
        {
          "name": "E3",
          "midi": 52,
          "time": 130.5,
          "velocity": 0.6299212598425197,
          "duration": 0.7489583333333201
        },
        {
          "name": "E2",
          "midi": 40,
          "time": 130.5,
          "velocity": 0.6299212598425197,
          "duration": 0.7489583333333201
        },
        {
          "name": "E3",
          "midi": 52,
          "time": 131.25,
          "velocity": 0.6299212598425197,
          "duration": 0.24895833333332007
        },
        {
          "name": "E2",
          "midi": 40,
          "time": 131.25,
          "velocity": 0.6299212598425197,
          "duration": 0.24895833333332007
        },
        {
          "name": "E3",
          "midi": 52,
          "time": 131.5,
          "velocity": 0.6299212598425197,
          "duration": 0.24895833333332007
        },
        {
          "name": "E2",
          "midi": 40,
          "time": 131.5,
          "velocity": 0.6299212598425197,
          "duration": 0.24895833333332007
        },
        {
          "name": "E3",
          "midi": 52,
          "time": 131.75,
          "velocity": 0.6299212598425197,
          "duration": 0.24895833333332007
        },
        {
          "name": "E2",
          "midi": 40,
          "time": 131.75,
          "velocity": 0.6299212598425197,
          "duration": 0.24895833333332007
        },
        {
          "name": "D3",
          "midi": 50,
          "time": 132,
          "velocity": 0.6299212598425197,
          "duration": 0.49895833333332007
        },
        {
          "name": "D2",
          "midi": 38,
          "time": 132,
          "velocity": 0.6299212598425197,
          "duration": 0.49895833333332007
        },
        {
          "name": "D3",
          "midi": 50,
          "time": 132.5,
          "velocity": 0.6299212598425197,
          "duration": 0.7489583333333201
        },
        {
          "name": "D2",
          "midi": 38,
          "time": 132.5,
          "velocity": 0.6299212598425197,
          "duration": 0.7489583333333201
        },
        {
          "name": "D3",
          "midi": 50,
          "time": 133.25,
          "velocity": 0.6299212598425197,
          "duration": 0.24895833333332007
        },
        {
          "name": "D2",
          "midi": 38,
          "time": 133.25,
          "velocity": 0.6299212598425197,
          "duration": 0.24895833333332007
        },
        {
          "name": "D3",
          "midi": 50,
          "time": 133.5,
          "velocity": 0.6299212598425197,
          "duration": 0.24895833333332007
        },
        {
          "name": "D2",
          "midi": 38,
          "time": 133.5,
          "velocity": 0.6299212598425197,
          "duration": 0.24895833333332007
        },
        {
          "name": "D3",
          "midi": 50,
          "time": 133.75,
          "velocity": 0.6299212598425197,
          "duration": 0.24895833333332007
        },
        {
          "name": "D2",
          "midi": 38,
          "time": 133.75,
          "velocity": 0.6299212598425197,
          "duration": 0.24895833333332007
        },
        {
          "name": "C3",
          "midi": 48,
          "time": 134,
          "velocity": 0.6299212598425197,
          "duration": 0.49895833333332007
        },
        {
          "name": "C2",
          "midi": 36,
          "time": 134,
          "velocity": 0.6299212598425197,
          "duration": 0.49895833333332007
        },
        {
          "name": "C3",
          "midi": 48,
          "time": 134.5,
          "velocity": 0.6299212598425197,
          "duration": 0.7489583333333201
        },
        {
          "name": "C2",
          "midi": 36,
          "time": 134.5,
          "velocity": 0.6299212598425197,
          "duration": 0.7489583333333201
        },
        {
          "name": "C3",
          "midi": 48,
          "time": 135.25,
          "velocity": 0.6299212598425197,
          "duration": 0.24895833333332007
        },
        {
          "name": "C2",
          "midi": 36,
          "time": 135.25,
          "velocity": 0.6299212598425197,
          "duration": 0.24895833333332007
        },
        {
          "name": "C3",
          "midi": 48,
          "time": 135.5,
          "velocity": 0.6299212598425197,
          "duration": 0.24895833333332007
        },
        {
          "name": "C2",
          "midi": 36,
          "time": 135.5,
          "velocity": 0.6299212598425197,
          "duration": 0.24895833333332007
        },
        {
          "name": "C3",
          "midi": 48,
          "time": 135.75,
          "velocity": 0.6299212598425197,
          "duration": 0.24895833333332007
        },
        {
          "name": "C2",
          "midi": 36,
          "time": 135.75,
          "velocity": 0.6299212598425197,
          "duration": 0.24895833333332007
        },
        {
          "name": "C3",
          "midi": 48,
          "time": 136,
          "velocity": 0.6299212598425197,
          "duration": 0.49895833333332007
        },
        {
          "name": "C2",
          "midi": 36,
          "time": 136,
          "velocity": 0.6299212598425197,
          "duration": 0.49895833333332007
        },
        {
          "name": "C3",
          "midi": 48,
          "time": 136.5,
          "velocity": 0.6299212598425197,
          "duration": 0.7489583333333201
        },
        {
          "name": "C2",
          "midi": 36,
          "time": 136.5,
          "velocity": 0.6299212598425197,
          "duration": 0.7489583333333201
        },
        {
          "name": "C3",
          "midi": 48,
          "time": 137.25,
          "velocity": 0.6299212598425197,
          "duration": 0.24895833333332007
        },
        {
          "name": "C2",
          "midi": 36,
          "time": 137.25,
          "velocity": 0.6299212598425197,
          "duration": 0.24895833333332007
        },
        {
          "name": "C3",
          "midi": 48,
          "time": 137.5,
          "velocity": 0.6299212598425197,
          "duration": 0.24895833333332007
        },
        {
          "name": "C2",
          "midi": 36,
          "time": 137.5,
          "velocity": 0.6299212598425197,
          "duration": 0.24895833333332007
        },
        {
          "name": "C3",
          "midi": 48,
          "time": 137.75,
          "velocity": 0.6299212598425197,
          "duration": 0.24895833333332007
        },
        {
          "name": "C2",
          "midi": 36,
          "time": 137.75,
          "velocity": 0.6299212598425197,
          "duration": 0.24895833333332007
        },
        {
          "name": "E3",
          "midi": 52,
          "time": 138,
          "velocity": 0.6299212598425197,
          "duration": 0.24895833333332007
        },
        {
          "name": "E2",
          "midi": 40,
          "time": 138,
          "velocity": 0.6299212598425197,
          "duration": 0.24895833333332007
        },
        {
          "name": "E3",
          "midi": 52,
          "time": 138.25,
          "velocity": 0.6299212598425197,
          "duration": 0.24895833333332007
        },
        {
          "name": "E2",
          "midi": 40,
          "time": 138.25,
          "velocity": 0.6299212598425197,
          "duration": 0.24895833333332007
        },
        {
          "name": "E3",
          "midi": 52,
          "time": 140,
          "velocity": 0.6299212598425197,
          "duration": 0.24895833333332007
        },
        {
          "name": "E2",
          "midi": 40,
          "time": 140,
          "velocity": 0.6299212598425197,
          "duration": 0.24895833333332007
        },
        {
          "name": "E3",
          "midi": 52,
          "time": 140.25,
          "velocity": 0.6299212598425197,
          "duration": 0.24895833333332007
        },
        {
          "name": "E2",
          "midi": 40,
          "time": 140.25,
          "velocity": 0.6299212598425197,
          "duration": 0.24895833333332007
        },
        {
          "name": "E3",
          "midi": 52,
          "time": 142,
          "velocity": 0.6299212598425197,
          "duration": 0.24895833333332007
        },
        {
          "name": "E2",
          "midi": 40,
          "time": 142,
          "velocity": 0.6299212598425197,
          "duration": 0.24895833333332007
        },
        {
          "name": "E3",
          "midi": 52,
          "time": 142.25,
          "velocity": 0.6299212598425197,
          "duration": 0.24895833333332007
        },
        {
          "name": "E2",
          "midi": 40,
          "time": 142.25,
          "velocity": 0.6299212598425197,
          "duration": 0.24895833333332007
        },
        {
          "name": "C3",
          "midi": 48,
          "time": 144,
          "velocity": 0.6299212598425197,
          "duration": 0.24895833333332007
        },
        {
          "name": "C2",
          "midi": 36,
          "time": 144,
          "velocity": 0.6299212598425197,
          "duration": 0.24895833333332007
        },
        {
          "name": "C3",
          "midi": 48,
          "time": 144.25,
          "velocity": 0.6299212598425197,
          "duration": 0.49895833333332007
        },
        {
          "name": "C2",
          "midi": 36,
          "time": 144.25,
          "velocity": 0.6299212598425197,
          "duration": 0.49895833333332007
        },
        {
          "name": "D3",
          "midi": 50,
          "time": 144.75,
          "velocity": 0.6299212598425197,
          "duration": 0.49895833333332007
        },
        {
          "name": "D2",
          "midi": 38,
          "time": 144.75,
          "velocity": 0.6299212598425197,
          "duration": 0.49895833333332007
        },
        {
          "name": "D3",
          "midi": 50,
          "time": 145.25,
          "velocity": 0.6299212598425197,
          "duration": 0.24895833333332007
        },
        {
          "name": "D2",
          "midi": 38,
          "time": 145.25,
          "velocity": 0.6299212598425197,
          "duration": 0.24895833333332007
        },
        {
          "name": "D3",
          "midi": 50,
          "time": 145.5,
          "velocity": 0.6299212598425197,
          "duration": 0.24895833333332007
        },
        {
          "name": "D2",
          "midi": 38,
          "time": 145.5,
          "velocity": 0.6299212598425197,
          "duration": 0.24895833333332007
        },
        {
          "name": "D3",
          "midi": 50,
          "time": 145.75,
          "velocity": 0.6299212598425197,
          "duration": 0.24895833333332007
        },
        {
          "name": "D2",
          "midi": 38,
          "time": 145.75,
          "velocity": 0.6299212598425197,
          "duration": 0.24895833333332007
        },
        {
          "name": "E3",
          "midi": 52,
          "time": 146,
          "velocity": 0.6299212598425197,
          "duration": 0.24895833333332007
        },
        {
          "name": "E2",
          "midi": 40,
          "time": 146,
          "velocity": 0.6299212598425197,
          "duration": 0.24895833333332007
        },
        {
          "name": "E3",
          "midi": 52,
          "time": 146.25,
          "velocity": 0.6299212598425197,
          "duration": 0.24895833333332007
        },
        {
          "name": "E2",
          "midi": 40,
          "time": 146.25,
          "velocity": 0.6299212598425197,
          "duration": 0.24895833333332007
        },
        {
          "name": "E3",
          "midi": 52,
          "time": 148,
          "velocity": 0.6299212598425197,
          "duration": 0.24895833333332007
        },
        {
          "name": "E2",
          "midi": 40,
          "time": 148,
          "velocity": 0.6299212598425197,
          "duration": 0.24895833333332007
        },
        {
          "name": "E3",
          "midi": 52,
          "time": 148.25,
          "velocity": 0.6299212598425197,
          "duration": 0.24895833333332007
        },
        {
          "name": "E2",
          "midi": 40,
          "time": 148.25,
          "velocity": 0.6299212598425197,
          "duration": 0.24895833333332007
        },
        {
          "name": "E3",
          "midi": 52,
          "time": 150,
          "velocity": 0.6299212598425197,
          "duration": 0.24895833333332007
        },
        {
          "name": "E2",
          "midi": 40,
          "time": 150,
          "velocity": 0.6299212598425197,
          "duration": 0.24895833333332007
        },
        {
          "name": "E3",
          "midi": 52,
          "time": 150.25,
          "velocity": 0.6299212598425197,
          "duration": 0.24895833333332007
        },
        {
          "name": "E2",
          "midi": 40,
          "time": 150.25,
          "velocity": 0.6299212598425197,
          "duration": 0.24895833333332007
        },
        {
          "name": "C3",
          "midi": 48,
          "time": 152,
          "velocity": 0.6299212598425197,
          "duration": 0.24895833333332007
        },
        {
          "name": "C2",
          "midi": 36,
          "time": 152,
          "velocity": 0.6299212598425197,
          "duration": 0.24895833333332007
        },
        {
          "name": "C3",
          "midi": 48,
          "time": 152.25,
          "velocity": 0.6299212598425197,
          "duration": 0.49895833333332007
        },
        {
          "name": "C2",
          "midi": 36,
          "time": 152.25,
          "velocity": 0.6299212598425197,
          "duration": 0.49895833333332007
        },
        {
          "name": "D3",
          "midi": 50,
          "time": 152.75,
          "velocity": 0.6299212598425197,
          "duration": 0.49895833333332007
        },
        {
          "name": "D2",
          "midi": 38,
          "time": 152.75,
          "velocity": 0.6299212598425197,
          "duration": 0.49895833333332007
        },
        {
          "name": "D3",
          "midi": 50,
          "time": 153.25,
          "velocity": 0.6299212598425197,
          "duration": 0.24895833333332007
        },
        {
          "name": "D2",
          "midi": 38,
          "time": 153.25,
          "velocity": 0.6299212598425197,
          "duration": 0.24895833333332007
        },
        {
          "name": "D3",
          "midi": 50,
          "time": 153.5,
          "velocity": 0.6299212598425197,
          "duration": 0.24895833333332007
        },
        {
          "name": "D2",
          "midi": 38,
          "time": 153.5,
          "velocity": 0.6299212598425197,
          "duration": 0.24895833333332007
        },
        {
          "name": "D3",
          "midi": 50,
          "time": 153.75,
          "velocity": 0.6299212598425197,
          "duration": 0.24895833333332007
        },
        {
          "name": "D2",
          "midi": 38,
          "time": 153.75,
          "velocity": 0.6299212598425197,
          "duration": 0.24895833333332007
        },
        {
          "name": "C3",
          "midi": 48,
          "time": 154,
          "velocity": 0.6299212598425197,
          "duration": 0.24895833333332007
        },
        {
          "name": "C2",
          "midi": 36,
          "time": 154,
          "velocity": 0.6299212598425197,
          "duration": 0.24895833333332007
        },
        {
          "name": "G2",
          "midi": 43,
          "time": 154.25,
          "velocity": 0.6299212598425197,
          "duration": 0.24895833333332007
        },
        {
          "name": "C3",
          "midi": 48,
          "time": 154.5,
          "velocity": 0.6299212598425197,
          "duration": 0.24895833333332007
        },
        {
          "name": "E3",
          "midi": 52,
          "time": 154.75,
          "velocity": 0.6299212598425197,
          "duration": 0.24895833333332007
        },
        {
          "name": "C3",
          "midi": 48,
          "time": 155,
          "velocity": 0.6299212598425197,
          "duration": 0.24895833333332007
        },
        {
          "name": "G2",
          "midi": 43,
          "time": 155.25,
          "velocity": 0.6299212598425197,
          "duration": 0.24895833333332007
        },
        {
          "name": "C3",
          "midi": 48,
          "time": 155.5,
          "velocity": 0.6299212598425197,
          "duration": 0.24895833333332007
        },
        {
          "name": "C2",
          "midi": 36,
          "time": 155.5,
          "velocity": 0.6299212598425197,
          "duration": 0.24895833333332007
        },
        {
          "name": "G2",
          "midi": 43,
          "time": 155.75,
          "velocity": 0.6299212598425197,
          "duration": 0.24895833333332007
        },
        {
          "name": "D3",
          "midi": 50,
          "time": 156,
          "velocity": 0.6299212598425197,
          "duration": 0.24895833333332007
        },
        {
          "name": "D2",
          "midi": 38,
          "time": 156,
          "velocity": 0.6299212598425197,
          "duration": 0.24895833333332007
        },
        {
          "name": "A2",
          "midi": 45,
          "time": 156.25,
          "velocity": 0.6299212598425197,
          "duration": 0.24895833333332007
        },
        {
          "name": "D3",
          "midi": 50,
          "time": 156.5,
          "velocity": 0.6299212598425197,
          "duration": 0.24895833333332007
        },
        {
          "name": "F#3",
          "midi": 54,
          "time": 156.75,
          "velocity": 0.6299212598425197,
          "duration": 0.24895833333332007
        },
        {
          "name": "D3",
          "midi": 50,
          "time": 157,
          "velocity": 0.6299212598425197,
          "duration": 0.24895833333332007
        },
        {
          "name": "A2",
          "midi": 45,
          "time": 157.25,
          "velocity": 0.6299212598425197,
          "duration": 0.24895833333332007
        },
        {
          "name": "D3",
          "midi": 50,
          "time": 157.5,
          "velocity": 0.6299212598425197,
          "duration": 0.24895833333332007
        },
        {
          "name": "D2",
          "midi": 38,
          "time": 157.5,
          "velocity": 0.6299212598425197,
          "duration": 0.24895833333332007
        },
        {
          "name": "A2",
          "midi": 45,
          "time": 157.75,
          "velocity": 0.6299212598425197,
          "duration": 0.24895833333332007
        },
        {
          "name": "E3",
          "midi": 52,
          "time": 158,
          "velocity": 0.6299212598425197,
          "duration": 0.24895833333332007
        },
        {
          "name": "E2",
          "midi": 40,
          "time": 158,
          "velocity": 0.6299212598425197,
          "duration": 0.24895833333332007
        },
        {
          "name": "B2",
          "midi": 47,
          "time": 158.25,
          "velocity": 0.6299212598425197,
          "duration": 0.24895833333332007
        },
        {
          "name": "E3",
          "midi": 52,
          "time": 158.5,
          "velocity": 0.6299212598425197,
          "duration": 0.24895833333332007
        },
        {
          "name": "G3",
          "midi": 55,
          "time": 158.75,
          "velocity": 0.6299212598425197,
          "duration": 0.24895833333332007
        },
        {
          "name": "E3",
          "midi": 52,
          "time": 159,
          "velocity": 0.6299212598425197,
          "duration": 0.24895833333332007
        },
        {
          "name": "B2",
          "midi": 47,
          "time": 159.25,
          "velocity": 0.6299212598425197,
          "duration": 0.24895833333332007
        },
        {
          "name": "E3",
          "midi": 52,
          "time": 159.5,
          "velocity": 0.6299212598425197,
          "duration": 0.24895833333332007
        },
        {
          "name": "E2",
          "midi": 40,
          "time": 159.5,
          "velocity": 0.6299212598425197,
          "duration": 0.24895833333332007
        },
        {
          "name": "B2",
          "midi": 47,
          "time": 159.75,
          "velocity": 0.6299212598425197,
          "duration": 0.24895833333332007
        },
        {
          "name": "A3",
          "midi": 57,
          "time": 160,
          "velocity": 0.6299212598425197,
          "duration": 0.24895833333332007
        },
        {
          "name": "A2",
          "midi": 45,
          "time": 160,
          "velocity": 0.6299212598425197,
          "duration": 0.24895833333332007
        },
        {
          "name": "A3",
          "midi": 57,
          "time": 160.25,
          "velocity": 0.6299212598425197,
          "duration": 0.49895833333332007
        },
        {
          "name": "A2",
          "midi": 45,
          "time": 160.25,
          "velocity": 0.6299212598425197,
          "duration": 0.49895833333332007
        },
        {
          "name": "B3",
          "midi": 59,
          "time": 160.75,
          "velocity": 0.6299212598425197,
          "duration": 0.49895833333332007
        },
        {
          "name": "B2",
          "midi": 47,
          "time": 160.75,
          "velocity": 0.6299212598425197,
          "duration": 0.49895833333332007
        },
        {
          "name": "B3",
          "midi": 59,
          "time": 161.25,
          "velocity": 0.6299212598425197,
          "duration": 0.49895833333332007
        },
        {
          "name": "B2",
          "midi": 47,
          "time": 161.25,
          "velocity": 0.6299212598425197,
          "duration": 0.49895833333332007
        },
        {
          "name": "B3",
          "midi": 59,
          "time": 161.75,
          "velocity": 0.6299212598425197,
          "duration": 0.24895833333332007
        },
        {
          "name": "B2",
          "midi": 47,
          "time": 161.75,
          "velocity": 0.6299212598425197,
          "duration": 0.24895833333332007
        },
        {
          "name": "C3",
          "midi": 48,
          "time": 162,
          "velocity": 0.6299212598425197,
          "duration": 0.24895833333332007
        },
        {
          "name": "C2",
          "midi": 36,
          "time": 162,
          "velocity": 0.6299212598425197,
          "duration": 0.24895833333332007
        },
        {
          "name": "G2",
          "midi": 43,
          "time": 162.25,
          "velocity": 0.6299212598425197,
          "duration": 0.24895833333332007
        },
        {
          "name": "C3",
          "midi": 48,
          "time": 162.5,
          "velocity": 0.6299212598425197,
          "duration": 0.24895833333332007
        },
        {
          "name": "E3",
          "midi": 52,
          "time": 162.75,
          "velocity": 0.6299212598425197,
          "duration": 0.24895833333332007
        },
        {
          "name": "C3",
          "midi": 48,
          "time": 163,
          "velocity": 0.6299212598425197,
          "duration": 0.24895833333332007
        },
        {
          "name": "G2",
          "midi": 43,
          "time": 163.25,
          "velocity": 0.6299212598425197,
          "duration": 0.24895833333332007
        },
        {
          "name": "C3",
          "midi": 48,
          "time": 163.5,
          "velocity": 0.6299212598425197,
          "duration": 0.24895833333332007
        },
        {
          "name": "C2",
          "midi": 36,
          "time": 163.5,
          "velocity": 0.6299212598425197,
          "duration": 0.24895833333332007
        },
        {
          "name": "G2",
          "midi": 43,
          "time": 163.75,
          "velocity": 0.6299212598425197,
          "duration": 0.24895833333332007
        },
        {
          "name": "D3",
          "midi": 50,
          "time": 164,
          "velocity": 0.6299212598425197,
          "duration": 0.24895833333332007
        },
        {
          "name": "D2",
          "midi": 38,
          "time": 164,
          "velocity": 0.6299212598425197,
          "duration": 0.24895833333332007
        },
        {
          "name": "A2",
          "midi": 45,
          "time": 164.25,
          "velocity": 0.6299212598425197,
          "duration": 0.24895833333332007
        },
        {
          "name": "D3",
          "midi": 50,
          "time": 164.5,
          "velocity": 0.6299212598425197,
          "duration": 0.24895833333332007
        },
        {
          "name": "F#3",
          "midi": 54,
          "time": 164.75,
          "velocity": 0.6299212598425197,
          "duration": 0.24895833333332007
        },
        {
          "name": "D3",
          "midi": 50,
          "time": 165,
          "velocity": 0.6299212598425197,
          "duration": 0.24895833333332007
        },
        {
          "name": "A2",
          "midi": 45,
          "time": 165.25,
          "velocity": 0.6299212598425197,
          "duration": 0.24895833333332007
        },
        {
          "name": "D3",
          "midi": 50,
          "time": 165.5,
          "velocity": 0.6299212598425197,
          "duration": 0.24895833333332007
        },
        {
          "name": "D2",
          "midi": 38,
          "time": 165.5,
          "velocity": 0.6299212598425197,
          "duration": 0.24895833333332007
        },
        {
          "name": "A2",
          "midi": 45,
          "time": 165.75,
          "velocity": 0.6299212598425197,
          "duration": 0.24895833333332007
        },
        {
          "name": "E3",
          "midi": 52,
          "time": 166,
          "velocity": 0.6299212598425197,
          "duration": 0.24895833333332007
        },
        {
          "name": "E2",
          "midi": 40,
          "time": 166,
          "velocity": 0.6299212598425197,
          "duration": 0.24895833333332007
        },
        {
          "name": "B2",
          "midi": 47,
          "time": 166.25,
          "velocity": 0.6299212598425197,
          "duration": 0.24895833333332007
        },
        {
          "name": "E3",
          "midi": 52,
          "time": 166.5,
          "velocity": 0.6299212598425197,
          "duration": 0.24895833333332007
        },
        {
          "name": "G3",
          "midi": 55,
          "time": 166.75,
          "velocity": 0.6299212598425197,
          "duration": 0.24895833333332007
        },
        {
          "name": "E3",
          "midi": 52,
          "time": 167,
          "velocity": 0.6299212598425197,
          "duration": 0.24895833333332007
        },
        {
          "name": "B2",
          "midi": 47,
          "time": 167.25,
          "velocity": 0.6299212598425197,
          "duration": 0.24895833333332007
        },
        {
          "name": "E3",
          "midi": 52,
          "time": 167.5,
          "velocity": 0.6299212598425197,
          "duration": 0.24895833333332007
        },
        {
          "name": "E2",
          "midi": 40,
          "time": 167.5,
          "velocity": 0.6299212598425197,
          "duration": 0.24895833333332007
        },
        {
          "name": "B2",
          "midi": 47,
          "time": 167.75,
          "velocity": 0.6299212598425197,
          "duration": 0.24895833333332007
        },
        {
          "name": "E3",
          "midi": 52,
          "time": 168,
          "velocity": 0.6299212598425197,
          "duration": 0.24895833333332007
        },
        {
          "name": "E2",
          "midi": 40,
          "time": 168,
          "velocity": 0.6299212598425197,
          "duration": 0.24895833333332007
        },
        {
          "name": "E3",
          "midi": 52,
          "time": 168.25,
          "velocity": 0.6299212598425197,
          "duration": 0.49895833333332007
        },
        {
          "name": "E2",
          "midi": 40,
          "time": 168.25,
          "velocity": 0.6299212598425197,
          "duration": 0.49895833333332007
        },
        {
          "name": "B2",
          "midi": 47,
          "time": 168.75,
          "velocity": 0.6299212598425197,
          "duration": 0.49895833333332007
        },
        {
          "name": "B1",
          "midi": 35,
          "time": 168.75,
          "velocity": 0.6299212598425197,
          "duration": 0.49895833333332007
        },
        {
          "name": "B2",
          "midi": 47,
          "time": 169.25,
          "velocity": 0.6299212598425197,
          "duration": 0.24895833333332007
        },
        {
          "name": "B1",
          "midi": 35,
          "time": 169.25,
          "velocity": 0.6299212598425197,
          "duration": 0.24895833333332007
        },
        {
          "name": "B2",
          "midi": 47,
          "time": 169.5,
          "velocity": 0.6299212598425197,
          "duration": 0.24895833333332007
        },
        {
          "name": "B1",
          "midi": 35,
          "time": 169.5,
          "velocity": 0.6299212598425197,
          "duration": 0.24895833333332007
        },
        {
          "name": "B2",
          "midi": 47,
          "time": 169.75,
          "velocity": 0.6299212598425197,
          "duration": 0.24895833333332007
        },
        {
          "name": "B1",
          "midi": 35,
          "time": 169.75,
          "velocity": 0.6299212598425197,
          "duration": 0.24895833333332007
        },
        {
          "name": "C3",
          "midi": 48,
          "time": 170,
          "velocity": 0.6299212598425197,
          "duration": 0.24895833333332007
        },
        {
          "name": "C2",
          "midi": 36,
          "time": 170,
          "velocity": 0.6299212598425197,
          "duration": 0.24895833333332007
        },
        {
          "name": "G2",
          "midi": 43,
          "time": 170.25,
          "velocity": 0.6299212598425197,
          "duration": 0.24895833333332007
        },
        {
          "name": "C3",
          "midi": 48,
          "time": 170.5,
          "velocity": 0.6299212598425197,
          "duration": 0.24895833333332007
        },
        {
          "name": "E3",
          "midi": 52,
          "time": 170.75,
          "velocity": 0.6299212598425197,
          "duration": 0.24895833333332007
        },
        {
          "name": "C3",
          "midi": 48,
          "time": 171,
          "velocity": 0.6299212598425197,
          "duration": 0.24895833333332007
        },
        {
          "name": "G2",
          "midi": 43,
          "time": 171.25,
          "velocity": 0.6299212598425197,
          "duration": 0.24895833333332007
        },
        {
          "name": "C3",
          "midi": 48,
          "time": 171.5,
          "velocity": 0.6299212598425197,
          "duration": 0.24895833333332007
        },
        {
          "name": "C2",
          "midi": 36,
          "time": 171.5,
          "velocity": 0.6299212598425197,
          "duration": 0.24895833333332007
        },
        {
          "name": "G2",
          "midi": 43,
          "time": 171.75,
          "velocity": 0.6299212598425197,
          "duration": 0.24895833333332007
        },
        {
          "name": "D3",
          "midi": 50,
          "time": 172,
          "velocity": 0.6299212598425197,
          "duration": 0.24895833333332007
        },
        {
          "name": "D2",
          "midi": 38,
          "time": 172,
          "velocity": 0.6299212598425197,
          "duration": 0.24895833333332007
        },
        {
          "name": "A2",
          "midi": 45,
          "time": 172.25,
          "velocity": 0.6299212598425197,
          "duration": 0.24895833333332007
        },
        {
          "name": "D3",
          "midi": 50,
          "time": 172.5,
          "velocity": 0.6299212598425197,
          "duration": 0.24895833333332007
        },
        {
          "name": "F#3",
          "midi": 54,
          "time": 172.75,
          "velocity": 0.6299212598425197,
          "duration": 0.24895833333332007
        },
        {
          "name": "D3",
          "midi": 50,
          "time": 173,
          "velocity": 0.6299212598425197,
          "duration": 0.24895833333332007
        },
        {
          "name": "A2",
          "midi": 45,
          "time": 173.25,
          "velocity": 0.6299212598425197,
          "duration": 0.24895833333332007
        },
        {
          "name": "D3",
          "midi": 50,
          "time": 173.5,
          "velocity": 0.6299212598425197,
          "duration": 0.24895833333332007
        },
        {
          "name": "D2",
          "midi": 38,
          "time": 173.5,
          "velocity": 0.6299212598425197,
          "duration": 0.24895833333332007
        },
        {
          "name": "A2",
          "midi": 45,
          "time": 173.75,
          "velocity": 0.6299212598425197,
          "duration": 0.24895833333332007
        },
        {
          "name": "E3",
          "midi": 52,
          "time": 174,
          "velocity": 0.6299212598425197,
          "duration": 0.24895833333332007
        },
        {
          "name": "E2",
          "midi": 40,
          "time": 174,
          "velocity": 0.6299212598425197,
          "duration": 0.24895833333332007
        },
        {
          "name": "B2",
          "midi": 47,
          "time": 174.25,
          "velocity": 0.6299212598425197,
          "duration": 0.24895833333332007
        },
        {
          "name": "E3",
          "midi": 52,
          "time": 174.5,
          "velocity": 0.6299212598425197,
          "duration": 0.24895833333332007
        },
        {
          "name": "G3",
          "midi": 55,
          "time": 174.75,
          "velocity": 0.6299212598425197,
          "duration": 0.24895833333332007
        },
        {
          "name": "E3",
          "midi": 52,
          "time": 175,
          "velocity": 0.6299212598425197,
          "duration": 0.24895833333332007
        },
        {
          "name": "B2",
          "midi": 47,
          "time": 175.25,
          "velocity": 0.6299212598425197,
          "duration": 0.24895833333332007
        },
        {
          "name": "E3",
          "midi": 52,
          "time": 175.5,
          "velocity": 0.6299212598425197,
          "duration": 0.24895833333332007
        },
        {
          "name": "E2",
          "midi": 40,
          "time": 175.5,
          "velocity": 0.6299212598425197,
          "duration": 0.24895833333332007
        },
        {
          "name": "B2",
          "midi": 47,
          "time": 175.75,
          "velocity": 0.6299212598425197,
          "duration": 0.24895833333332007
        },
        {
          "name": "A3",
          "midi": 57,
          "time": 176,
          "velocity": 0.6299212598425197,
          "duration": 0.24895833333332007
        },
        {
          "name": "A2",
          "midi": 45,
          "time": 176,
          "velocity": 0.6299212598425197,
          "duration": 0.24895833333332007
        },
        {
          "name": "A3",
          "midi": 57,
          "time": 176.25,
          "velocity": 0.6299212598425197,
          "duration": 0.49895833333332007
        },
        {
          "name": "A2",
          "midi": 45,
          "time": 176.25,
          "velocity": 0.6299212598425197,
          "duration": 0.49895833333332007
        },
        {
          "name": "B3",
          "midi": 59,
          "time": 176.75,
          "velocity": 0.6299212598425197,
          "duration": 0.49895833333332007
        },
        {
          "name": "B2",
          "midi": 47,
          "time": 176.75,
          "velocity": 0.6299212598425197,
          "duration": 0.49895833333332007
        },
        {
          "name": "B3",
          "midi": 59,
          "time": 177.25,
          "velocity": 0.6299212598425197,
          "duration": 0.49895833333332007
        },
        {
          "name": "B2",
          "midi": 47,
          "time": 177.25,
          "velocity": 0.6299212598425197,
          "duration": 0.49895833333332007
        },
        {
          "name": "B3",
          "midi": 59,
          "time": 177.75,
          "velocity": 0.6299212598425197,
          "duration": 0.24895833333332007
        },
        {
          "name": "B2",
          "midi": 47,
          "time": 177.75,
          "velocity": 0.6299212598425197,
          "duration": 0.24895833333332007
        },
        {
          "name": "C3",
          "midi": 48,
          "time": 178,
          "velocity": 0.6299212598425197,
          "duration": 0.24895833333332007
        },
        {
          "name": "C2",
          "midi": 36,
          "time": 178,
          "velocity": 0.6299212598425197,
          "duration": 0.24895833333332007
        },
        {
          "name": "G2",
          "midi": 43,
          "time": 178.25,
          "velocity": 0.6299212598425197,
          "duration": 0.24895833333332007
        },
        {
          "name": "C3",
          "midi": 48,
          "time": 178.5,
          "velocity": 0.6299212598425197,
          "duration": 0.24895833333332007
        },
        {
          "name": "E3",
          "midi": 52,
          "time": 178.75,
          "velocity": 0.6299212598425197,
          "duration": 0.24895833333332007
        },
        {
          "name": "C3",
          "midi": 48,
          "time": 179,
          "velocity": 0.6299212598425197,
          "duration": 0.24895833333332007
        },
        {
          "name": "G2",
          "midi": 43,
          "time": 179.25,
          "velocity": 0.6299212598425197,
          "duration": 0.24895833333332007
        },
        {
          "name": "C3",
          "midi": 48,
          "time": 179.5,
          "velocity": 0.6299212598425197,
          "duration": 0.24895833333332007
        },
        {
          "name": "C2",
          "midi": 36,
          "time": 179.5,
          "velocity": 0.6299212598425197,
          "duration": 0.24895833333332007
        },
        {
          "name": "G2",
          "midi": 43,
          "time": 179.75,
          "velocity": 0.6299212598425197,
          "duration": 0.24895833333332007
        },
        {
          "name": "D3",
          "midi": 50,
          "time": 180,
          "velocity": 0.6299212598425197,
          "duration": 0.24895833333332007
        },
        {
          "name": "D2",
          "midi": 38,
          "time": 180,
          "velocity": 0.6299212598425197,
          "duration": 0.24895833333332007
        },
        {
          "name": "A2",
          "midi": 45,
          "time": 180.25,
          "velocity": 0.6299212598425197,
          "duration": 0.24895833333332007
        },
        {
          "name": "D3",
          "midi": 50,
          "time": 180.5,
          "velocity": 0.6299212598425197,
          "duration": 0.24895833333332007
        },
        {
          "name": "F#3",
          "midi": 54,
          "time": 180.75,
          "velocity": 0.6299212598425197,
          "duration": 0.24895833333332007
        },
        {
          "name": "D3",
          "midi": 50,
          "time": 181,
          "velocity": 0.6299212598425197,
          "duration": 0.24895833333332007
        },
        {
          "name": "A2",
          "midi": 45,
          "time": 181.25,
          "velocity": 0.6299212598425197,
          "duration": 0.24895833333332007
        },
        {
          "name": "D3",
          "midi": 50,
          "time": 181.5,
          "velocity": 0.6299212598425197,
          "duration": 0.24895833333332007
        },
        {
          "name": "D2",
          "midi": 38,
          "time": 181.5,
          "velocity": 0.6299212598425197,
          "duration": 0.24895833333332007
        },
        {
          "name": "A2",
          "midi": 45,
          "time": 181.75,
          "velocity": 0.6299212598425197,
          "duration": 0.24895833333332007
        },
        {
          "name": "F3",
          "midi": 53,
          "time": 182,
          "velocity": 0.6299212598425197,
          "duration": 0.24895833333332007
        },
        {
          "name": "F2",
          "midi": 41,
          "time": 182,
          "velocity": 0.6299212598425197,
          "duration": 0.24895833333332007
        },
        {
          "name": "C3",
          "midi": 48,
          "time": 182.25,
          "velocity": 0.6299212598425197,
          "duration": 0.24895833333332007
        },
        {
          "name": "F3",
          "midi": 53,
          "time": 182.5,
          "velocity": 0.6299212598425197,
          "duration": 0.24895833333332007
        },
        {
          "name": "A3",
          "midi": 57,
          "time": 182.75,
          "velocity": 0.6299212598425197,
          "duration": 0.24895833333332007
        },
        {
          "name": "F3",
          "midi": 53,
          "time": 183,
          "velocity": 0.6299212598425197,
          "duration": 0.24895833333332007
        },
        {
          "name": "C3",
          "midi": 48,
          "time": 183.25,
          "velocity": 0.6299212598425197,
          "duration": 0.24895833333332007
        },
        {
          "name": "F3",
          "midi": 53,
          "time": 183.5,
          "velocity": 0.6299212598425197,
          "duration": 0.24895833333332007
        },
        {
          "name": "F2",
          "midi": 41,
          "time": 183.5,
          "velocity": 0.6299212598425197,
          "duration": 0.24895833333332007
        },
        {
          "name": "C3",
          "midi": 48,
          "time": 183.75,
          "velocity": 0.6299212598425197,
          "duration": 0.24895833333332007
        },
        {
          "name": "G3",
          "midi": 55,
          "time": 184,
          "velocity": 0.6299212598425197,
          "duration": 0.24895833333332007
        },
        {
          "name": "G2",
          "midi": 43,
          "time": 184,
          "velocity": 0.6299212598425197,
          "duration": 0.24895833333332007
        },
        {
          "name": "D3",
          "midi": 50,
          "time": 184.25,
          "velocity": 0.6299212598425197,
          "duration": 0.24895833333332007
        },
        {
          "name": "G3",
          "midi": 55,
          "time": 184.5,
          "velocity": 0.6299212598425197,
          "duration": 0.24895833333332007
        },
        {
          "name": "B3",
          "midi": 59,
          "time": 184.75,
          "velocity": 0.6299212598425197,
          "duration": 0.24895833333332007
        },
        {
          "name": "G3",
          "midi": 55,
          "time": 185,
          "velocity": 0.6299212598425197,
          "duration": 0.24895833333332007
        },
        {
          "name": "D3",
          "midi": 50,
          "time": 185.25,
          "velocity": 0.6299212598425197,
          "duration": 0.24895833333332007
        },
        {
          "name": "G3",
          "midi": 55,
          "time": 185.5,
          "velocity": 0.6299212598425197,
          "duration": 0.24895833333332007
        },
        {
          "name": "G2",
          "midi": 43,
          "time": 185.5,
          "velocity": 0.6299212598425197,
          "duration": 0.24895833333332007
        },
        {
          "name": "D3",
          "midi": 50,
          "time": 185.75,
          "velocity": 0.6299212598425197,
          "duration": 0.24895833333332007
        },
        {
          "name": "A3",
          "midi": 57,
          "time": 186,
          "velocity": 0.6299212598425197,
          "duration": 0.24895833333332007
        },
        {
          "name": "A2",
          "midi": 45,
          "time": 186,
          "velocity": 0.6299212598425197,
          "duration": 0.24895833333332007
        },
        {
          "name": "E3",
          "midi": 52,
          "time": 186.25,
          "velocity": 0.6299212598425197,
          "duration": 0.24895833333332007
        },
        {
          "name": "A3",
          "midi": 57,
          "time": 186.5,
          "velocity": 0.6299212598425197,
          "duration": 0.24895833333332007
        },
        {
          "name": "C4",
          "midi": 60,
          "time": 186.75,
          "velocity": 0.6299212598425197,
          "duration": 0.24895833333332007
        },
        {
          "name": "A3",
          "midi": 57,
          "time": 187,
          "velocity": 0.6299212598425197,
          "duration": 0.24895833333332007
        },
        {
          "name": "E3",
          "midi": 52,
          "time": 187.25,
          "velocity": 0.6299212598425197,
          "duration": 0.24895833333332007
        },
        {
          "name": "A3",
          "midi": 57,
          "time": 187.5,
          "velocity": 0.6299212598425197,
          "duration": 0.24895833333332007
        },
        {
          "name": "A2",
          "midi": 45,
          "time": 187.5,
          "velocity": 0.6299212598425197,
          "duration": 0.24895833333332007
        },
        {
          "name": "E3",
          "midi": 52,
          "time": 187.75,
          "velocity": 0.6299212598425197,
          "duration": 0.24895833333332007
        },
        {
          "name": "A3",
          "midi": 57,
          "time": 188,
          "velocity": 0.6299212598425197,
          "duration": 0.24895833333332007
        },
        {
          "name": "A2",
          "midi": 45,
          "time": 188,
          "velocity": 0.6299212598425197,
          "duration": 0.24895833333332007
        },
        {
          "name": "E3",
          "midi": 52,
          "time": 188.25,
          "velocity": 0.6299212598425197,
          "duration": 0.24895833333332007
        },
        {
          "name": "A3",
          "midi": 57,
          "time": 188.5,
          "velocity": 0.6299212598425197,
          "duration": 0.24895833333332007
        },
        {
          "name": "C4",
          "midi": 60,
          "time": 188.75,
          "velocity": 0.6299212598425197,
          "duration": 0.24895833333332007
        },
        {
          "name": "A3",
          "midi": 57,
          "time": 189,
          "velocity": 0.6299212598425197,
          "duration": 0.24895833333332007
        },
        {
          "name": "E3",
          "midi": 52,
          "time": 189.25,
          "velocity": 0.6299212598425197,
          "duration": 0.24895833333332007
        },
        {
          "name": "A3",
          "midi": 57,
          "time": 189.5,
          "velocity": 0.6299212598425197,
          "duration": 0.24895833333332007
        },
        {
          "name": "A2",
          "midi": 45,
          "time": 189.5,
          "velocity": 0.6299212598425197,
          "duration": 0.24895833333332007
        },
        {
          "name": "E3",
          "midi": 52,
          "time": 189.75,
          "velocity": 0.6299212598425197,
          "duration": 0.24895833333332007
        },
        {
          "name": "F3",
          "midi": 53,
          "time": 190,
          "velocity": 0.6299212598425197,
          "duration": 0.24895833333332007
        },
        {
          "name": "F2",
          "midi": 41,
          "time": 190,
          "velocity": 0.6299212598425197,
          "duration": 0.24895833333332007
        },
        {
          "name": "C3",
          "midi": 48,
          "time": 190.25,
          "velocity": 0.6299212598425197,
          "duration": 0.24895833333332007
        },
        {
          "name": "F3",
          "midi": 53,
          "time": 190.5,
          "velocity": 0.6299212598425197,
          "duration": 0.24895833333332007
        },
        {
          "name": "A3",
          "midi": 57,
          "time": 190.75,
          "velocity": 0.6299212598425197,
          "duration": 0.24895833333332007
        },
        {
          "name": "F3",
          "midi": 53,
          "time": 191,
          "velocity": 0.6299212598425197,
          "duration": 0.24895833333332007
        },
        {
          "name": "C3",
          "midi": 48,
          "time": 191.25,
          "velocity": 0.6299212598425197,
          "duration": 0.24895833333332007
        },
        {
          "name": "F3",
          "midi": 53,
          "time": 191.5,
          "velocity": 0.6299212598425197,
          "duration": 0.24895833333332007
        },
        {
          "name": "F2",
          "midi": 41,
          "time": 191.5,
          "velocity": 0.6299212598425197,
          "duration": 0.24895833333332007
        },
        {
          "name": "C3",
          "midi": 48,
          "time": 191.75,
          "velocity": 0.6299212598425197,
          "duration": 0.24895833333332007
        },
        {
          "name": "G3",
          "midi": 55,
          "time": 192,
          "velocity": 0.6299212598425197,
          "duration": 0.24895833333332007
        },
        {
          "name": "G2",
          "midi": 43,
          "time": 192,
          "velocity": 0.6299212598425197,
          "duration": 0.24895833333332007
        },
        {
          "name": "D3",
          "midi": 50,
          "time": 192.25,
          "velocity": 0.6299212598425197,
          "duration": 0.24895833333332007
        },
        {
          "name": "G3",
          "midi": 55,
          "time": 192.5,
          "velocity": 0.6299212598425197,
          "duration": 0.24895833333332007
        },
        {
          "name": "B3",
          "midi": 59,
          "time": 192.75,
          "velocity": 0.6299212598425197,
          "duration": 0.24895833333332007
        },
        {
          "name": "G3",
          "midi": 55,
          "time": 193,
          "velocity": 0.6299212598425197,
          "duration": 0.24895833333332007
        },
        {
          "name": "D3",
          "midi": 50,
          "time": 193.25,
          "velocity": 0.6299212598425197,
          "duration": 0.24895833333332007
        },
        {
          "name": "G3",
          "midi": 55,
          "time": 193.5,
          "velocity": 0.6299212598425197,
          "duration": 0.24895833333332007
        },
        {
          "name": "G2",
          "midi": 43,
          "time": 193.5,
          "velocity": 0.6299212598425197,
          "duration": 0.24895833333332007
        },
        {
          "name": "D3",
          "midi": 50,
          "time": 193.75,
          "velocity": 0.6299212598425197,
          "duration": 0.24895833333332007
        },
        {
          "name": "A3",
          "midi": 57,
          "time": 194,
          "velocity": 0.6299212598425197,
          "duration": 0.24895833333332007
        },
        {
          "name": "A2",
          "midi": 45,
          "time": 194,
          "velocity": 0.6299212598425197,
          "duration": 0.24895833333332007
        },
        {
          "name": "E3",
          "midi": 52,
          "time": 194.25,
          "velocity": 0.6299212598425197,
          "duration": 0.24895833333332007
        },
        {
          "name": "A3",
          "midi": 57,
          "time": 194.5,
          "velocity": 0.6299212598425197,
          "duration": 0.24895833333332007
        },
        {
          "name": "C4",
          "midi": 60,
          "time": 194.75,
          "velocity": 0.6299212598425197,
          "duration": 0.24895833333332007
        },
        {
          "name": "A3",
          "midi": 57,
          "time": 195,
          "velocity": 0.6299212598425197,
          "duration": 0.24895833333332007
        },
        {
          "name": "E3",
          "midi": 52,
          "time": 195.25,
          "velocity": 0.6299212598425197,
          "duration": 0.24895833333332007
        },
        {
          "name": "A3",
          "midi": 57,
          "time": 195.5,
          "velocity": 0.6299212598425197,
          "duration": 0.24895833333332007
        },
        {
          "name": "A2",
          "midi": 45,
          "time": 195.5,
          "velocity": 0.6299212598425197,
          "duration": 0.24895833333332007
        },
        {
          "name": "E3",
          "midi": 52,
          "time": 195.75,
          "velocity": 0.6299212598425197,
          "duration": 0.24895833333332007
        },
        {
          "name": "A3",
          "midi": 57,
          "time": 196,
          "velocity": 0.6299212598425197,
          "duration": 0.24895833333332007
        },
        {
          "name": "A2",
          "midi": 45,
          "time": 196,
          "velocity": 0.6299212598425197,
          "duration": 0.24895833333332007
        },
        {
          "name": "E3",
          "midi": 52,
          "time": 196.25,
          "velocity": 0.6299212598425197,
          "duration": 0.24895833333332007
        },
        {
          "name": "A3",
          "midi": 57,
          "time": 196.5,
          "velocity": 0.6299212598425197,
          "duration": 0.24895833333332007
        },
        {
          "name": "C4",
          "midi": 60,
          "time": 196.75,
          "velocity": 0.6299212598425197,
          "duration": 0.24895833333332007
        },
        {
          "name": "A3",
          "midi": 57,
          "time": 197,
          "velocity": 0.6299212598425197,
          "duration": 0.24895833333332007
        },
        {
          "name": "E3",
          "midi": 52,
          "time": 197.25,
          "velocity": 0.6299212598425197,
          "duration": 0.24895833333332007
        },
        {
          "name": "A3",
          "midi": 57,
          "time": 197.5,
          "velocity": 0.6299212598425197,
          "duration": 0.24895833333332007
        },
        {
          "name": "A2",
          "midi": 45,
          "time": 197.5,
          "velocity": 0.6299212598425197,
          "duration": 0.24895833333332007
        },
        {
          "name": "E3",
          "midi": 52,
          "time": 197.75,
          "velocity": 0.6299212598425197,
          "duration": 0.24895833333332007
        },
        {
          "name": "F3",
          "midi": 53,
          "time": 198,
          "velocity": 0.6299212598425197,
          "duration": 0.24895833333332007
        },
        {
          "name": "F2",
          "midi": 41,
          "time": 198,
          "velocity": 0.6299212598425197,
          "duration": 0.24895833333332007
        },
        {
          "name": "C3",
          "midi": 48,
          "time": 198.25,
          "velocity": 0.6299212598425197,
          "duration": 0.24895833333332007
        },
        {
          "name": "F3",
          "midi": 53,
          "time": 198.5,
          "velocity": 0.6299212598425197,
          "duration": 0.24895833333332007
        },
        {
          "name": "A3",
          "midi": 57,
          "time": 198.75,
          "velocity": 0.6299212598425197,
          "duration": 0.24895833333332007
        },
        {
          "name": "F3",
          "midi": 53,
          "time": 199,
          "velocity": 0.6299212598425197,
          "duration": 0.24895833333332007
        },
        {
          "name": "C3",
          "midi": 48,
          "time": 199.25,
          "velocity": 0.6299212598425197,
          "duration": 0.24895833333332007
        },
        {
          "name": "F3",
          "midi": 53,
          "time": 199.5,
          "velocity": 0.6299212598425197,
          "duration": 0.24895833333332007
        },
        {
          "name": "F2",
          "midi": 41,
          "time": 199.5,
          "velocity": 0.6299212598425197,
          "duration": 0.24895833333332007
        },
        {
          "name": "C3",
          "midi": 48,
          "time": 199.75,
          "velocity": 0.6299212598425197,
          "duration": 0.24895833333332007
        },
        {
          "name": "F3",
          "midi": 53,
          "time": 200,
          "velocity": 0.6299212598425197,
          "duration": 0.24895833333332007
        },
        {
          "name": "F2",
          "midi": 41,
          "time": 200,
          "velocity": 0.6299212598425197,
          "duration": 0.24895833333332007
        },
        {
          "name": "C3",
          "midi": 48,
          "time": 200.25,
          "velocity": 0.6299212598425197,
          "duration": 0.24895833333332007
        },
        {
          "name": "F3",
          "midi": 53,
          "time": 200.5,
          "velocity": 0.6299212598425197,
          "duration": 0.24895833333332007
        },
        {
          "name": "A3",
          "midi": 57,
          "time": 200.75,
          "velocity": 0.6299212598425197,
          "duration": 0.24895833333332007
        },
        {
          "name": "F3",
          "midi": 53,
          "time": 201,
          "velocity": 0.6299212598425197,
          "duration": 0.24895833333332007
        },
        {
          "name": "C3",
          "midi": 48,
          "time": 201.25,
          "velocity": 0.6299212598425197,
          "duration": 0.24895833333332007
        },
        {
          "name": "F3",
          "midi": 53,
          "time": 201.5,
          "velocity": 0.6299212598425197,
          "duration": 0.24895833333332007
        },
        {
          "name": "F2",
          "midi": 41,
          "time": 201.5,
          "velocity": 0.6299212598425197,
          "duration": 0.24895833333332007
        },
        {
          "name": "C3",
          "midi": 48,
          "time": 201.75,
          "velocity": 0.6299212598425197,
          "duration": 0.24895833333332007
        },
        {
          "name": "D3",
          "midi": 50,
          "time": 202,
          "velocity": 0.6299212598425197,
          "duration": 0.24895833333332007
        },
        {
          "name": "D2",
          "midi": 38,
          "time": 202,
          "velocity": 0.6299212598425197,
          "duration": 0.24895833333332007
        },
        {
          "name": "A2",
          "midi": 45,
          "time": 202.25,
          "velocity": 0.6299212598425197,
          "duration": 0.24895833333332007
        },
        {
          "name": "D3",
          "midi": 50,
          "time": 202.5,
          "velocity": 0.6299212598425197,
          "duration": 0.24895833333332007
        },
        {
          "name": "F#3",
          "midi": 54,
          "time": 202.75,
          "velocity": 0.6299212598425197,
          "duration": 0.24895833333332007
        },
        {
          "name": "D3",
          "midi": 50,
          "time": 203,
          "velocity": 0.6299212598425197,
          "duration": 0.24895833333332007
        },
        {
          "name": "A2",
          "midi": 45,
          "time": 203.25,
          "velocity": 0.6299212598425197,
          "duration": 0.24895833333332007
        },
        {
          "name": "D3",
          "midi": 50,
          "time": 203.5,
          "velocity": 0.6299212598425197,
          "duration": 0.24895833333332007
        },
        {
          "name": "D2",
          "midi": 38,
          "time": 203.5,
          "velocity": 0.6299212598425197,
          "duration": 0.24895833333332007
        },
        {
          "name": "A2",
          "midi": 45,
          "time": 203.75,
          "velocity": 0.6299212598425197,
          "duration": 0.24895833333332007
        },
        {
          "name": "D3",
          "midi": 50,
          "time": 204,
          "velocity": 0.6299212598425197,
          "duration": 0.24895833333332007
        },
        {
          "name": "D2",
          "midi": 38,
          "time": 204,
          "velocity": 0.6299212598425197,
          "duration": 0.24895833333332007
        },
        {
          "name": "A2",
          "midi": 45,
          "time": 204.25,
          "velocity": 0.6299212598425197,
          "duration": 0.24895833333332007
        },
        {
          "name": "D3",
          "midi": 50,
          "time": 204.5,
          "velocity": 0.6299212598425197,
          "duration": 0.24895833333332007
        },
        {
          "name": "F#3",
          "midi": 54,
          "time": 204.75,
          "velocity": 0.6299212598425197,
          "duration": 0.24895833333332007
        },
        {
          "name": "D3",
          "midi": 50,
          "time": 205,
          "velocity": 0.6299212598425197,
          "duration": 0.24895833333332007
        },
        {
          "name": "A2",
          "midi": 45,
          "time": 205.25,
          "velocity": 0.6299212598425197,
          "duration": 0.24895833333332007
        },
        {
          "name": "D3",
          "midi": 50,
          "time": 205.5,
          "velocity": 0.6299212598425197,
          "duration": 0.24895833333332007
        },
        {
          "name": "D2",
          "midi": 38,
          "time": 205.5,
          "velocity": 0.6299212598425197,
          "duration": 0.24895833333332007
        },
        {
          "name": "A2",
          "midi": 45,
          "time": 205.75,
          "velocity": 0.6299212598425197,
          "duration": 0.24895833333332007
        },
        {
          "name": "D#3",
          "midi": 51,
          "time": 206,
          "velocity": 0.6299212598425197,
          "duration": 0.24895833333332007
        },
        {
          "name": "D#2",
          "midi": 39,
          "time": 206,
          "velocity": 0.6299212598425197,
          "duration": 0.24895833333332007
        },
        {
          "name": "D#3",
          "midi": 51,
          "time": 206.25,
          "velocity": 0.6299212598425197,
          "duration": 0.24895833333332007
        },
        {
          "name": "D#2",
          "midi": 39,
          "time": 206.25,
          "velocity": 0.6299212598425197,
          "duration": 0.24895833333332007
        },
        {
          "name": "D#3",
          "midi": 51,
          "time": 206.5,
          "velocity": 0.6299212598425197,
          "duration": 0.24895833333332007
        },
        {
          "name": "D#2",
          "midi": 39,
          "time": 206.5,
          "velocity": 0.6299212598425197,
          "duration": 0.24895833333332007
        },
        {
          "name": "D#3",
          "midi": 51,
          "time": 206.75,
          "velocity": 0.6299212598425197,
          "duration": 0.24895833333332007
        },
        {
          "name": "D#2",
          "midi": 39,
          "time": 206.75,
          "velocity": 0.6299212598425197,
          "duration": 0.24895833333332007
        },
        {
          "name": "D#3",
          "midi": 51,
          "time": 207,
          "velocity": 0.6299212598425197,
          "duration": 0.24895833333332007
        },
        {
          "name": "D#2",
          "midi": 39,
          "time": 207,
          "velocity": 0.6299212598425197,
          "duration": 0.24895833333332007
        },
        {
          "name": "D#3",
          "midi": 51,
          "time": 207.25,
          "velocity": 0.6299212598425197,
          "duration": 0.24895833333332007
        },
        {
          "name": "D#2",
          "midi": 39,
          "time": 207.25,
          "velocity": 0.6299212598425197,
          "duration": 0.24895833333332007
        },
        {
          "name": "D#3",
          "midi": 51,
          "time": 207.5,
          "velocity": 0.6299212598425197,
          "duration": 0.24895833333332007
        },
        {
          "name": "D#2",
          "midi": 39,
          "time": 207.5,
          "velocity": 0.6299212598425197,
          "duration": 0.24895833333332007
        },
        {
          "name": "D#3",
          "midi": 51,
          "time": 207.75,
          "velocity": 0.6299212598425197,
          "duration": 0.24895833333332007
        },
        {
          "name": "D#2",
          "midi": 39,
          "time": 207.75,
          "velocity": 0.6299212598425197,
          "duration": 0.24895833333332007
        },
        {
          "name": "F3",
          "midi": 53,
          "time": 208,
          "velocity": 0.6299212598425197,
          "duration": 0.24895833333332007
        },
        {
          "name": "F2",
          "midi": 41,
          "time": 208,
          "velocity": 0.6299212598425197,
          "duration": 0.24895833333332007
        },
        {
          "name": "F3",
          "midi": 53,
          "time": 208.25,
          "velocity": 0.6299212598425197,
          "duration": 0.24895833333332007
        },
        {
          "name": "F2",
          "midi": 41,
          "time": 208.25,
          "velocity": 0.6299212598425197,
          "duration": 0.24895833333332007
        },
        {
          "name": "F3",
          "midi": 53,
          "time": 208.5,
          "velocity": 0.6299212598425197,
          "duration": 0.24895833333332007
        },
        {
          "name": "F2",
          "midi": 41,
          "time": 208.5,
          "velocity": 0.6299212598425197,
          "duration": 0.24895833333332007
        },
        {
          "name": "F3",
          "midi": 53,
          "time": 208.75,
          "velocity": 0.6299212598425197,
          "duration": 0.24895833333332007
        },
        {
          "name": "F2",
          "midi": 41,
          "time": 208.75,
          "velocity": 0.6299212598425197,
          "duration": 0.24895833333332007
        },
        {
          "name": "F3",
          "midi": 53,
          "time": 209,
          "velocity": 0.6299212598425197,
          "duration": 0.24895833333332007
        },
        {
          "name": "F2",
          "midi": 41,
          "time": 209,
          "velocity": 0.6299212598425197,
          "duration": 0.24895833333332007
        },
        {
          "name": "F3",
          "midi": 53,
          "time": 209.25,
          "velocity": 0.6299212598425197,
          "duration": 0.24895833333332007
        },
        {
          "name": "F2",
          "midi": 41,
          "time": 209.25,
          "velocity": 0.6299212598425197,
          "duration": 0.24895833333332007
        },
        {
          "name": "F3",
          "midi": 53,
          "time": 209.5,
          "velocity": 0.6299212598425197,
          "duration": 0.24895833333332007
        },
        {
          "name": "F2",
          "midi": 41,
          "time": 209.5,
          "velocity": 0.6299212598425197,
          "duration": 0.24895833333332007
        },
        {
          "name": "F3",
          "midi": 53,
          "time": 209.75,
          "velocity": 0.6299212598425197,
          "duration": 0.24895833333332007
        },
        {
          "name": "F2",
          "midi": 41,
          "time": 209.75,
          "velocity": 0.6299212598425197,
          "duration": 0.24895833333332007
        },
        {
          "name": "G3",
          "midi": 55,
          "time": 210,
          "velocity": 0.6299212598425197,
          "duration": 0.24895833333332007
        },
        {
          "name": "G2",
          "midi": 43,
          "time": 210,
          "velocity": 0.6299212598425197,
          "duration": 0.24895833333332007
        },
        {
          "name": "G3",
          "midi": 55,
          "time": 210.25,
          "velocity": 0.6299212598425197,
          "duration": 0.24895833333332007
        },
        {
          "name": "G2",
          "midi": 43,
          "time": 210.25,
          "velocity": 0.6299212598425197,
          "duration": 0.24895833333332007
        },
        {
          "name": "G3",
          "midi": 55,
          "time": 210.5,
          "velocity": 0.6299212598425197,
          "duration": 0.24895833333332007
        },
        {
          "name": "G2",
          "midi": 43,
          "time": 210.5,
          "velocity": 0.6299212598425197,
          "duration": 0.24895833333332007
        },
        {
          "name": "G3",
          "midi": 55,
          "time": 210.75,
          "velocity": 0.6299212598425197,
          "duration": 0.24895833333332007
        },
        {
          "name": "G2",
          "midi": 43,
          "time": 210.75,
          "velocity": 0.6299212598425197,
          "duration": 0.24895833333332007
        },
        {
          "name": "G3",
          "midi": 55,
          "time": 211,
          "velocity": 0.6299212598425197,
          "duration": 0.24895833333332007
        },
        {
          "name": "G2",
          "midi": 43,
          "time": 211,
          "velocity": 0.6299212598425197,
          "duration": 0.24895833333332007
        },
        {
          "name": "G3",
          "midi": 55,
          "time": 211.25,
          "velocity": 0.6299212598425197,
          "duration": 0.24895833333332007
        },
        {
          "name": "G2",
          "midi": 43,
          "time": 211.25,
          "velocity": 0.6299212598425197,
          "duration": 0.24895833333332007
        },
        {
          "name": "G3",
          "midi": 55,
          "time": 211.5,
          "velocity": 0.6299212598425197,
          "duration": 0.24895833333332007
        },
        {
          "name": "G2",
          "midi": 43,
          "time": 211.5,
          "velocity": 0.6299212598425197,
          "duration": 0.24895833333332007
        },
        {
          "name": "G3",
          "midi": 55,
          "time": 211.75,
          "velocity": 0.6299212598425197,
          "duration": 0.24895833333332007
        },
        {
          "name": "G2",
          "midi": 43,
          "time": 211.75,
          "velocity": 0.6299212598425197,
          "duration": 0.24895833333332007
        },
        {
          "name": "G3",
          "midi": 55,
          "time": 212,
          "velocity": 0.6299212598425197,
          "duration": 0.24895833333332007
        },
        {
          "name": "G2",
          "midi": 43,
          "time": 212,
          "velocity": 0.6299212598425197,
          "duration": 0.24895833333332007
        },
        {
          "name": "G3",
          "midi": 55,
          "time": 212.25,
          "velocity": 0.6299212598425197,
          "duration": 0.24895833333332007
        },
        {
          "name": "G2",
          "midi": 43,
          "time": 212.25,
          "velocity": 0.6299212598425197,
          "duration": 0.24895833333332007
        },
        {
          "name": "G3",
          "midi": 55,
          "time": 212.5,
          "velocity": 0.6299212598425197,
          "duration": 0.24895833333332007
        },
        {
          "name": "G2",
          "midi": 43,
          "time": 212.5,
          "velocity": 0.6299212598425197,
          "duration": 0.24895833333332007
        },
        {
          "name": "G3",
          "midi": 55,
          "time": 212.75,
          "velocity": 0.6299212598425197,
          "duration": 0.24895833333332007
        },
        {
          "name": "G2",
          "midi": 43,
          "time": 212.75,
          "velocity": 0.6299212598425197,
          "duration": 0.24895833333332007
        },
        {
          "name": "G3",
          "midi": 55,
          "time": 213,
          "velocity": 0.6299212598425197,
          "duration": 0.24895833333332007
        },
        {
          "name": "G2",
          "midi": 43,
          "time": 213,
          "velocity": 0.6299212598425197,
          "duration": 0.24895833333332007
        },
        {
          "name": "G3",
          "midi": 55,
          "time": 213.25,
          "velocity": 0.6299212598425197,
          "duration": 0.24895833333332007
        },
        {
          "name": "G2",
          "midi": 43,
          "time": 213.25,
          "velocity": 0.6299212598425197,
          "duration": 0.24895833333332007
        },
        {
          "name": "G3",
          "midi": 55,
          "time": 213.5,
          "velocity": 0.6299212598425197,
          "duration": 0.24895833333332007
        },
        {
          "name": "G2",
          "midi": 43,
          "time": 213.5,
          "velocity": 0.6299212598425197,
          "duration": 0.24895833333332007
        },
        {
          "name": "G3",
          "midi": 55,
          "time": 213.75,
          "velocity": 0.6299212598425197,
          "duration": 0.24895833333332007
        },
        {
          "name": "G2",
          "midi": 43,
          "time": 213.75,
          "velocity": 0.6299212598425197,
          "duration": 0.24895833333332007
        },
        {
          "name": "D#3",
          "midi": 51,
          "time": 214,
          "velocity": 0.6299212598425197,
          "duration": 0.24895833333332007
        },
        {
          "name": "D#2",
          "midi": 39,
          "time": 214,
          "velocity": 0.6299212598425197,
          "duration": 0.24895833333332007
        },
        {
          "name": "D#3",
          "midi": 51,
          "time": 214.25,
          "velocity": 0.6299212598425197,
          "duration": 0.24895833333332007
        },
        {
          "name": "D#2",
          "midi": 39,
          "time": 214.25,
          "velocity": 0.6299212598425197,
          "duration": 0.24895833333332007
        },
        {
          "name": "D#3",
          "midi": 51,
          "time": 214.5,
          "velocity": 0.6299212598425197,
          "duration": 0.24895833333332007
        },
        {
          "name": "D#2",
          "midi": 39,
          "time": 214.5,
          "velocity": 0.6299212598425197,
          "duration": 0.24895833333332007
        },
        {
          "name": "D#3",
          "midi": 51,
          "time": 214.75,
          "velocity": 0.6299212598425197,
          "duration": 0.24895833333332007
        },
        {
          "name": "D#2",
          "midi": 39,
          "time": 214.75,
          "velocity": 0.6299212598425197,
          "duration": 0.24895833333332007
        },
        {
          "name": "D#3",
          "midi": 51,
          "time": 215,
          "velocity": 0.6299212598425197,
          "duration": 0.24895833333332007
        },
        {
          "name": "D#2",
          "midi": 39,
          "time": 215,
          "velocity": 0.6299212598425197,
          "duration": 0.24895833333332007
        },
        {
          "name": "D#3",
          "midi": 51,
          "time": 215.25,
          "velocity": 0.6299212598425197,
          "duration": 0.24895833333332007
        },
        {
          "name": "D#2",
          "midi": 39,
          "time": 215.25,
          "velocity": 0.6299212598425197,
          "duration": 0.24895833333332007
        },
        {
          "name": "D#3",
          "midi": 51,
          "time": 215.5,
          "velocity": 0.6299212598425197,
          "duration": 0.24895833333332007
        },
        {
          "name": "D#2",
          "midi": 39,
          "time": 215.5,
          "velocity": 0.6299212598425197,
          "duration": 0.24895833333332007
        },
        {
          "name": "D#3",
          "midi": 51,
          "time": 215.75,
          "velocity": 0.6299212598425197,
          "duration": 0.24895833333332007
        },
        {
          "name": "D#2",
          "midi": 39,
          "time": 215.75,
          "velocity": 0.6299212598425197,
          "duration": 0.24895833333332007
        },
        {
          "name": "F3",
          "midi": 53,
          "time": 216,
          "velocity": 0.6299212598425197,
          "duration": 0.24895833333332007
        },
        {
          "name": "F2",
          "midi": 41,
          "time": 216,
          "velocity": 0.6299212598425197,
          "duration": 0.24895833333332007
        },
        {
          "name": "F3",
          "midi": 53,
          "time": 216.25,
          "velocity": 0.6299212598425197,
          "duration": 0.24895833333332007
        },
        {
          "name": "F2",
          "midi": 41,
          "time": 216.25,
          "velocity": 0.6299212598425197,
          "duration": 0.24895833333332007
        },
        {
          "name": "F3",
          "midi": 53,
          "time": 216.5,
          "velocity": 0.6299212598425197,
          "duration": 0.24895833333332007
        },
        {
          "name": "F2",
          "midi": 41,
          "time": 216.5,
          "velocity": 0.6299212598425197,
          "duration": 0.24895833333332007
        },
        {
          "name": "F3",
          "midi": 53,
          "time": 216.75,
          "velocity": 0.6299212598425197,
          "duration": 0.24895833333332007
        },
        {
          "name": "F2",
          "midi": 41,
          "time": 216.75,
          "velocity": 0.6299212598425197,
          "duration": 0.24895833333332007
        },
        {
          "name": "F3",
          "midi": 53,
          "time": 217,
          "velocity": 0.6299212598425197,
          "duration": 0.24895833333332007
        },
        {
          "name": "F2",
          "midi": 41,
          "time": 217,
          "velocity": 0.6299212598425197,
          "duration": 0.24895833333332007
        },
        {
          "name": "F3",
          "midi": 53,
          "time": 217.25,
          "velocity": 0.6299212598425197,
          "duration": 0.24895833333332007
        },
        {
          "name": "F2",
          "midi": 41,
          "time": 217.25,
          "velocity": 0.6299212598425197,
          "duration": 0.24895833333332007
        },
        {
          "name": "F3",
          "midi": 53,
          "time": 217.5,
          "velocity": 0.6299212598425197,
          "duration": 0.24895833333332007
        },
        {
          "name": "F2",
          "midi": 41,
          "time": 217.5,
          "velocity": 0.6299212598425197,
          "duration": 0.24895833333332007
        },
        {
          "name": "F3",
          "midi": 53,
          "time": 217.75,
          "velocity": 0.6299212598425197,
          "duration": 0.24895833333332007
        },
        {
          "name": "F2",
          "midi": 41,
          "time": 217.75,
          "velocity": 0.6299212598425197,
          "duration": 0.24895833333332007
        },
        {
          "name": "D4",
          "midi": 62,
          "time": 218,
          "velocity": 0.6299212598425197,
          "duration": 0.24895833333332007
        },
        {
          "name": "D3",
          "midi": 50,
          "time": 218,
          "velocity": 0.6299212598425197,
          "duration": 0.24895833333332007
        },
        {
          "name": "D4",
          "midi": 62,
          "time": 218.25,
          "velocity": 0.6299212598425197,
          "duration": 0.24895833333332007
        },
        {
          "name": "D3",
          "midi": 50,
          "time": 218.25,
          "velocity": 0.6299212598425197,
          "duration": 0.24895833333332007
        },
        {
          "name": "D4",
          "midi": 62,
          "time": 218.5,
          "velocity": 0.6299212598425197,
          "duration": 0.24895833333332007
        },
        {
          "name": "D3",
          "midi": 50,
          "time": 218.5,
          "velocity": 0.6299212598425197,
          "duration": 0.24895833333332007
        },
        {
          "name": "D4",
          "midi": 62,
          "time": 218.75,
          "velocity": 0.6299212598425197,
          "duration": 0.24895833333332007
        },
        {
          "name": "D3",
          "midi": 50,
          "time": 218.75,
          "velocity": 0.6299212598425197,
          "duration": 0.24895833333332007
        },
        {
          "name": "D4",
          "midi": 62,
          "time": 219,
          "velocity": 0.6299212598425197,
          "duration": 0.24895833333332007
        },
        {
          "name": "D3",
          "midi": 50,
          "time": 219,
          "velocity": 0.6299212598425197,
          "duration": 0.24895833333332007
        },
        {
          "name": "D4",
          "midi": 62,
          "time": 219.25,
          "velocity": 0.6299212598425197,
          "duration": 0.24895833333332007
        },
        {
          "name": "D3",
          "midi": 50,
          "time": 219.25,
          "velocity": 0.6299212598425197,
          "duration": 0.24895833333332007
        },
        {
          "name": "D4",
          "midi": 62,
          "time": 219.5,
          "velocity": 0.6299212598425197,
          "duration": 0.24895833333332007
        },
        {
          "name": "D3",
          "midi": 50,
          "time": 219.5,
          "velocity": 0.6299212598425197,
          "duration": 0.24895833333332007
        },
        {
          "name": "D4",
          "midi": 62,
          "time": 219.75,
          "velocity": 0.6299212598425197,
          "duration": 0.24895833333332007
        },
        {
          "name": "D3",
          "midi": 50,
          "time": 219.75,
          "velocity": 0.6299212598425197,
          "duration": 0.24895833333332007
        },
        {
          "name": "D4",
          "midi": 62,
          "time": 220,
          "velocity": 0.6299212598425197,
          "duration": 0.24895833333332007
        },
        {
          "name": "D3",
          "midi": 50,
          "time": 220,
          "velocity": 0.6299212598425197,
          "duration": 0.24895833333332007
        },
        {
          "name": "D4",
          "midi": 62,
          "time": 220.25,
          "velocity": 0.6299212598425197,
          "duration": 0.24895833333332007
        },
        {
          "name": "D3",
          "midi": 50,
          "time": 220.25,
          "velocity": 0.6299212598425197,
          "duration": 0.24895833333332007
        },
        {
          "name": "D4",
          "midi": 62,
          "time": 220.5,
          "velocity": 0.6299212598425197,
          "duration": 0.24895833333332007
        },
        {
          "name": "D3",
          "midi": 50,
          "time": 220.5,
          "velocity": 0.6299212598425197,
          "duration": 0.24895833333332007
        },
        {
          "name": "D4",
          "midi": 62,
          "time": 220.75,
          "velocity": 0.6299212598425197,
          "duration": 0.24895833333332007
        },
        {
          "name": "D3",
          "midi": 50,
          "time": 220.75,
          "velocity": 0.6299212598425197,
          "duration": 0.24895833333332007
        },
        {
          "name": "D4",
          "midi": 62,
          "time": 221,
          "velocity": 0.6299212598425197,
          "duration": 0.9989583333333201
        },
        {
          "name": "A3",
          "midi": 57,
          "time": 221,
          "velocity": 0.6299212598425197,
          "duration": 0.9989583333333201
        },
        {
          "name": "D3",
          "midi": 50,
          "time": 221,
          "velocity": 0.6299212598425197,
          "duration": 0.9989583333333201
        },
        {
          "name": "C4",
          "midi": 60,
          "time": 222,
          "velocity": 0.6299212598425197,
          "duration": 1.99895833333332
        },
        {
          "name": "G3",
          "midi": 55,
          "time": 222,
          "velocity": 0.6299212598425197,
          "duration": 1.99895833333332
        },
        {
          "name": "C3",
          "midi": 48,
          "time": 222,
          "velocity": 0.6299212598425197,
          "duration": 1.99895833333332
        },
        {
          "name": "D4",
          "midi": 62,
          "time": 224,
          "velocity": 0.6299212598425197,
          "duration": 1.99895833333332
        },
        {
          "name": "A3",
          "midi": 57,
          "time": 224,
          "velocity": 0.6299212598425197,
          "duration": 1.99895833333332
        },
        {
          "name": "D3",
          "midi": 50,
          "time": 224,
          "velocity": 0.6299212598425197,
          "duration": 1.99895833333332
        },
        {
          "name": "E4",
          "midi": 64,
          "time": 226,
          "velocity": 0.6299212598425197,
          "duration": 1.99895833333332
        },
        {
          "name": "B3",
          "midi": 59,
          "time": 226,
          "velocity": 0.6299212598425197,
          "duration": 1.99895833333332
        },
        {
          "name": "E3",
          "midi": 52,
          "time": 226,
          "velocity": 0.6299212598425197,
          "duration": 1.99895833333332
        },
        {
          "name": "E4",
          "midi": 64,
          "time": 228,
          "velocity": 0.6299212598425197,
          "duration": 1.99895833333332
        },
        {
          "name": "B3",
          "midi": 59,
          "time": 228,
          "velocity": 0.6299212598425197,
          "duration": 1.99895833333332
        },
        {
          "name": "E3",
          "midi": 52,
          "time": 228,
          "velocity": 0.6299212598425197,
          "duration": 1.99895833333332
        },
        {
          "name": "C4",
          "midi": 60,
          "time": 230,
          "velocity": 0.6299212598425197,
          "duration": 1.99895833333332
        },
        {
          "name": "G3",
          "midi": 55,
          "time": 230,
          "velocity": 0.6299212598425197,
          "duration": 1.99895833333332
        },
        {
          "name": "C3",
          "midi": 48,
          "time": 230,
          "velocity": 0.6299212598425197,
          "duration": 1.99895833333332
        },
        {
          "name": "D4",
          "midi": 62,
          "time": 232,
          "velocity": 0.6299212598425197,
          "duration": 1.99895833333332
        },
        {
          "name": "A3",
          "midi": 57,
          "time": 232,
          "velocity": 0.6299212598425197,
          "duration": 1.99895833333332
        },
        {
          "name": "D3",
          "midi": 50,
          "time": 232,
          "velocity": 0.6299212598425197,
          "duration": 1.99895833333332
        },
        {
          "name": "E4",
          "midi": 64,
          "time": 234,
          "velocity": 0.6299212598425197,
          "duration": 1.99895833333332
        },
        {
          "name": "B3",
          "midi": 59,
          "time": 234,
          "velocity": 0.6299212598425197,
          "duration": 1.99895833333332
        },
        {
          "name": "E3",
          "midi": 52,
          "time": 234,
          "velocity": 0.6299212598425197,
          "duration": 1.99895833333332
        },
        {
          "name": "E3",
          "midi": 52,
          "time": 236,
          "velocity": 0.6299212598425197,
          "duration": 0.24895833333332007
        },
        {
          "name": "E2",
          "midi": 40,
          "time": 236,
          "velocity": 0.6299212598425197,
          "duration": 0.24895833333332007
        },
        {
          "name": "E3",
          "midi": 52,
          "time": 236.25,
          "velocity": 0.6299212598425197,
          "duration": 0.49895833333332007
        },
        {
          "name": "E2",
          "midi": 40,
          "time": 236.25,
          "velocity": 0.6299212598425197,
          "duration": 0.49895833333332007
        },
        {
          "name": "B2",
          "midi": 47,
          "time": 236.75,
          "velocity": 0.6299212598425197,
          "duration": 0.49895833333332007
        },
        {
          "name": "B1",
          "midi": 35,
          "time": 236.75,
          "velocity": 0.6299212598425197,
          "duration": 0.49895833333332007
        },
        {
          "name": "B2",
          "midi": 47,
          "time": 237.25,
          "velocity": 0.6299212598425197,
          "duration": 0.24895833333332007
        },
        {
          "name": "B1",
          "midi": 35,
          "time": 237.25,
          "velocity": 0.6299212598425197,
          "duration": 0.24895833333332007
        },
        {
          "name": "B2",
          "midi": 47,
          "time": 237.5,
          "velocity": 0.6299212598425197,
          "duration": 0.24895833333332007
        },
        {
          "name": "B1",
          "midi": 35,
          "time": 237.5,
          "velocity": 0.6299212598425197,
          "duration": 0.24895833333332007
        },
        {
          "name": "B2",
          "midi": 47,
          "time": 237.75,
          "velocity": 0.6299212598425197,
          "duration": 0.24895833333332007
        },
        {
          "name": "B1",
          "midi": 35,
          "time": 237.75,
          "velocity": 0.6299212598425197,
          "duration": 0.24895833333332007
        },
        {
          "name": "C3",
          "midi": 48,
          "time": 238,
          "velocity": 0.6299212598425197,
          "duration": 0.24895833333332007
        },
        {
          "name": "C2",
          "midi": 36,
          "time": 238,
          "velocity": 0.6299212598425197,
          "duration": 0.24895833333332007
        },
        {
          "name": "G2",
          "midi": 43,
          "time": 238.25,
          "velocity": 0.6299212598425197,
          "duration": 0.24895833333332007
        },
        {
          "name": "C3",
          "midi": 48,
          "time": 238.5,
          "velocity": 0.6299212598425197,
          "duration": 0.24895833333332007
        },
        {
          "name": "E3",
          "midi": 52,
          "time": 238.75,
          "velocity": 0.6299212598425197,
          "duration": 0.24895833333332007
        },
        {
          "name": "C3",
          "midi": 48,
          "time": 239,
          "velocity": 0.6299212598425197,
          "duration": 0.24895833333332007
        },
        {
          "name": "G2",
          "midi": 43,
          "time": 239.25,
          "velocity": 0.6299212598425197,
          "duration": 0.24895833333332007
        },
        {
          "name": "C3",
          "midi": 48,
          "time": 239.5,
          "velocity": 0.6299212598425197,
          "duration": 0.24895833333332007
        },
        {
          "name": "C2",
          "midi": 36,
          "time": 239.5,
          "velocity": 0.6299212598425197,
          "duration": 0.24895833333332007
        },
        {
          "name": "G2",
          "midi": 43,
          "time": 239.75,
          "velocity": 0.6299212598425197,
          "duration": 0.24895833333332007
        },
        {
          "name": "D3",
          "midi": 50,
          "time": 240,
          "velocity": 0.6299212598425197,
          "duration": 0.24895833333332007
        },
        {
          "name": "D2",
          "midi": 38,
          "time": 240,
          "velocity": 0.6299212598425197,
          "duration": 0.24895833333332007
        },
        {
          "name": "A2",
          "midi": 45,
          "time": 240.25,
          "velocity": 0.6299212598425197,
          "duration": 0.24895833333332007
        },
        {
          "name": "D3",
          "midi": 50,
          "time": 240.5,
          "velocity": 0.6299212598425197,
          "duration": 0.24895833333332007
        },
        {
          "name": "F#3",
          "midi": 54,
          "time": 240.75,
          "velocity": 0.6299212598425197,
          "duration": 0.24895833333332007
        },
        {
          "name": "D3",
          "midi": 50,
          "time": 241,
          "velocity": 0.6299212598425197,
          "duration": 0.24895833333332007
        },
        {
          "name": "A2",
          "midi": 45,
          "time": 241.25,
          "velocity": 0.6299212598425197,
          "duration": 0.24895833333332007
        },
        {
          "name": "D3",
          "midi": 50,
          "time": 241.5,
          "velocity": 0.6299212598425197,
          "duration": 0.24895833333332007
        },
        {
          "name": "D2",
          "midi": 38,
          "time": 241.5,
          "velocity": 0.6299212598425197,
          "duration": 0.24895833333332007
        },
        {
          "name": "A2",
          "midi": 45,
          "time": 241.75,
          "velocity": 0.6299212598425197,
          "duration": 0.24895833333332007
        },
        {
          "name": "E3",
          "midi": 52,
          "time": 242,
          "velocity": 0.6299212598425197,
          "duration": 0.24895833333332007
        },
        {
          "name": "E2",
          "midi": 40,
          "time": 242,
          "velocity": 0.6299212598425197,
          "duration": 0.24895833333332007
        },
        {
          "name": "B2",
          "midi": 47,
          "time": 242.25,
          "velocity": 0.6299212598425197,
          "duration": 0.24895833333332007
        },
        {
          "name": "E3",
          "midi": 52,
          "time": 242.5,
          "velocity": 0.6299212598425197,
          "duration": 0.24895833333332007
        },
        {
          "name": "G3",
          "midi": 55,
          "time": 242.75,
          "velocity": 0.6299212598425197,
          "duration": 0.24895833333332007
        },
        {
          "name": "E3",
          "midi": 52,
          "time": 243,
          "velocity": 0.6299212598425197,
          "duration": 0.24895833333332007
        },
        {
          "name": "B2",
          "midi": 47,
          "time": 243.25,
          "velocity": 0.6299212598425197,
          "duration": 0.24895833333332007
        },
        {
          "name": "E3",
          "midi": 52,
          "time": 243.5,
          "velocity": 0.6299212598425197,
          "duration": 0.24895833333332007
        },
        {
          "name": "E2",
          "midi": 40,
          "time": 243.5,
          "velocity": 0.6299212598425197,
          "duration": 0.24895833333332007
        },
        {
          "name": "B2",
          "midi": 47,
          "time": 243.75,
          "velocity": 0.6299212598425197,
          "duration": 0.24895833333332007
        },
        {
          "name": "A3",
          "midi": 57,
          "time": 244,
          "velocity": 0.6299212598425197,
          "duration": 0.24895833333332007
        },
        {
          "name": "A2",
          "midi": 45,
          "time": 244,
          "velocity": 0.6299212598425197,
          "duration": 0.24895833333332007
        },
        {
          "name": "A3",
          "midi": 57,
          "time": 244.25,
          "velocity": 0.6299212598425197,
          "duration": 0.49895833333332007
        },
        {
          "name": "A2",
          "midi": 45,
          "time": 244.25,
          "velocity": 0.6299212598425197,
          "duration": 0.49895833333332007
        },
        {
          "name": "B3",
          "midi": 59,
          "time": 244.75,
          "velocity": 0.6299212598425197,
          "duration": 0.49895833333332007
        },
        {
          "name": "B2",
          "midi": 47,
          "time": 244.75,
          "velocity": 0.6299212598425197,
          "duration": 0.49895833333332007
        },
        {
          "name": "B3",
          "midi": 59,
          "time": 245.25,
          "velocity": 0.6299212598425197,
          "duration": 0.49895833333332007
        },
        {
          "name": "B2",
          "midi": 47,
          "time": 245.25,
          "velocity": 0.6299212598425197,
          "duration": 0.49895833333332007
        },
        {
          "name": "B3",
          "midi": 59,
          "time": 245.75,
          "velocity": 0.6299212598425197,
          "duration": 0.24895833333332007
        },
        {
          "name": "B2",
          "midi": 47,
          "time": 245.75,
          "velocity": 0.6299212598425197,
          "duration": 0.24895833333332007
        },
        {
          "name": "C3",
          "midi": 48,
          "time": 246,
          "velocity": 0.6299212598425197,
          "duration": 0.24895833333332007
        },
        {
          "name": "C2",
          "midi": 36,
          "time": 246,
          "velocity": 0.6299212598425197,
          "duration": 0.24895833333332007
        },
        {
          "name": "G2",
          "midi": 43,
          "time": 246.25,
          "velocity": 0.6299212598425197,
          "duration": 0.24895833333332007
        },
        {
          "name": "C3",
          "midi": 48,
          "time": 246.5,
          "velocity": 0.6299212598425197,
          "duration": 0.24895833333332007
        },
        {
          "name": "E3",
          "midi": 52,
          "time": 246.75,
          "velocity": 0.6299212598425197,
          "duration": 0.24895833333332007
        },
        {
          "name": "C3",
          "midi": 48,
          "time": 247,
          "velocity": 0.6299212598425197,
          "duration": 0.24895833333332007
        },
        {
          "name": "G2",
          "midi": 43,
          "time": 247.25,
          "velocity": 0.6299212598425197,
          "duration": 0.24895833333332007
        },
        {
          "name": "C3",
          "midi": 48,
          "time": 247.5,
          "velocity": 0.6299212598425197,
          "duration": 0.24895833333332007
        },
        {
          "name": "C2",
          "midi": 36,
          "time": 247.5,
          "velocity": 0.6299212598425197,
          "duration": 0.24895833333332007
        },
        {
          "name": "G2",
          "midi": 43,
          "time": 247.75,
          "velocity": 0.6299212598425197,
          "duration": 0.24895833333332007
        },
        {
          "name": "D3",
          "midi": 50,
          "time": 248,
          "velocity": 0.6299212598425197,
          "duration": 0.24895833333332007
        },
        {
          "name": "D2",
          "midi": 38,
          "time": 248,
          "velocity": 0.6299212598425197,
          "duration": 0.24895833333332007
        },
        {
          "name": "A2",
          "midi": 45,
          "time": 248.25,
          "velocity": 0.6299212598425197,
          "duration": 0.24895833333332007
        },
        {
          "name": "D3",
          "midi": 50,
          "time": 248.5,
          "velocity": 0.6299212598425197,
          "duration": 0.24895833333332007
        },
        {
          "name": "F#3",
          "midi": 54,
          "time": 248.75,
          "velocity": 0.6299212598425197,
          "duration": 0.24895833333332007
        },
        {
          "name": "D3",
          "midi": 50,
          "time": 249,
          "velocity": 0.6299212598425197,
          "duration": 0.24895833333332007
        },
        {
          "name": "A2",
          "midi": 45,
          "time": 249.25,
          "velocity": 0.6299212598425197,
          "duration": 0.24895833333332007
        },
        {
          "name": "D3",
          "midi": 50,
          "time": 249.5,
          "velocity": 0.6299212598425197,
          "duration": 0.24895833333332007
        },
        {
          "name": "D2",
          "midi": 38,
          "time": 249.5,
          "velocity": 0.6299212598425197,
          "duration": 0.24895833333332007
        },
        {
          "name": "A2",
          "midi": 45,
          "time": 249.75,
          "velocity": 0.6299212598425197,
          "duration": 0.24895833333332007
        },
        {
          "name": "E3",
          "midi": 52,
          "time": 250,
          "velocity": 0.6299212598425197,
          "duration": 0.24895833333332007
        },
        {
          "name": "E2",
          "midi": 40,
          "time": 250,
          "velocity": 0.6299212598425197,
          "duration": 0.24895833333332007
        },
        {
          "name": "B2",
          "midi": 47,
          "time": 250.25,
          "velocity": 0.6299212598425197,
          "duration": 0.24895833333332007
        },
        {
          "name": "E3",
          "midi": 52,
          "time": 250.5,
          "velocity": 0.6299212598425197,
          "duration": 0.24895833333332007
        },
        {
          "name": "G3",
          "midi": 55,
          "time": 250.75,
          "velocity": 0.6299212598425197,
          "duration": 0.24895833333332007
        },
        {
          "name": "E3",
          "midi": 52,
          "time": 251,
          "velocity": 0.6299212598425197,
          "duration": 0.24895833333332007
        },
        {
          "name": "B2",
          "midi": 47,
          "time": 251.25,
          "velocity": 0.6299212598425197,
          "duration": 0.24895833333332007
        },
        {
          "name": "E3",
          "midi": 52,
          "time": 251.5,
          "velocity": 0.6299212598425197,
          "duration": 0.24895833333332007
        },
        {
          "name": "E2",
          "midi": 40,
          "time": 251.5,
          "velocity": 0.6299212598425197,
          "duration": 0.24895833333332007
        },
        {
          "name": "B2",
          "midi": 47,
          "time": 251.75,
          "velocity": 0.6299212598425197,
          "duration": 0.24895833333332007
        },
        {
          "name": "E3",
          "midi": 52,
          "time": 252,
          "velocity": 0.6299212598425197,
          "duration": 0.24895833333332007
        },
        {
          "name": "E2",
          "midi": 40,
          "time": 252,
          "velocity": 0.6299212598425197,
          "duration": 0.24895833333332007
        },
        {
          "name": "E3",
          "midi": 52,
          "time": 252.25,
          "velocity": 0.6299212598425197,
          "duration": 0.49895833333332007
        },
        {
          "name": "E2",
          "midi": 40,
          "time": 252.25,
          "velocity": 0.6299212598425197,
          "duration": 0.49895833333332007
        },
        {
          "name": "B2",
          "midi": 47,
          "time": 252.75,
          "velocity": 0.6299212598425197,
          "duration": 0.49895833333332007
        },
        {
          "name": "B1",
          "midi": 35,
          "time": 252.75,
          "velocity": 0.6299212598425197,
          "duration": 0.49895833333332007
        },
        {
          "name": "B2",
          "midi": 47,
          "time": 253.25,
          "velocity": 0.6299212598425197,
          "duration": 0.24895833333332007
        },
        {
          "name": "B1",
          "midi": 35,
          "time": 253.25,
          "velocity": 0.6299212598425197,
          "duration": 0.24895833333332007
        },
        {
          "name": "B2",
          "midi": 47,
          "time": 253.5,
          "velocity": 0.6299212598425197,
          "duration": 0.24895833333332007
        },
        {
          "name": "B1",
          "midi": 35,
          "time": 253.5,
          "velocity": 0.6299212598425197,
          "duration": 0.24895833333332007
        },
        {
          "name": "B2",
          "midi": 47,
          "time": 253.75,
          "velocity": 0.6299212598425197,
          "duration": 0.24895833333332007
        },
        {
          "name": "B1",
          "midi": 35,
          "time": 253.75,
          "velocity": 0.6299212598425197,
          "duration": 0.24895833333332007
        },
        {
          "name": "C3",
          "midi": 48,
          "time": 254,
          "velocity": 0.6299212598425197,
          "duration": 0.24895833333332007
        },
        {
          "name": "C2",
          "midi": 36,
          "time": 254,
          "velocity": 0.6299212598425197,
          "duration": 0.24895833333332007
        },
        {
          "name": "G2",
          "midi": 43,
          "time": 254.25,
          "velocity": 0.6299212598425197,
          "duration": 0.24895833333332007
        },
        {
          "name": "C3",
          "midi": 48,
          "time": 254.5,
          "velocity": 0.6299212598425197,
          "duration": 0.24895833333332007
        },
        {
          "name": "E3",
          "midi": 52,
          "time": 254.75,
          "velocity": 0.6299212598425197,
          "duration": 0.24895833333332007
        },
        {
          "name": "C3",
          "midi": 48,
          "time": 255,
          "velocity": 0.6299212598425197,
          "duration": 0.24895833333332007
        },
        {
          "name": "G2",
          "midi": 43,
          "time": 255.25,
          "velocity": 0.6299212598425197,
          "duration": 0.24895833333332007
        },
        {
          "name": "C3",
          "midi": 48,
          "time": 255.5,
          "velocity": 0.6299212598425197,
          "duration": 0.24895833333332007
        },
        {
          "name": "C2",
          "midi": 36,
          "time": 255.5,
          "velocity": 0.6299212598425197,
          "duration": 0.24895833333332007
        },
        {
          "name": "G2",
          "midi": 43,
          "time": 255.75,
          "velocity": 0.6299212598425197,
          "duration": 0.24895833333332007
        },
        {
          "name": "D3",
          "midi": 50,
          "time": 256,
          "velocity": 0.6299212598425197,
          "duration": 0.2489583333333485
        },
        {
          "name": "D2",
          "midi": 38,
          "time": 256,
          "velocity": 0.6299212598425197,
          "duration": 0.2489583333333485
        },
        {
          "name": "A2",
          "midi": 45,
          "time": 256.25,
          "velocity": 0.6299212598425197,
          "duration": 0.2489583333333485
        },
        {
          "name": "D3",
          "midi": 50,
          "time": 256.5,
          "velocity": 0.6299212598425197,
          "duration": 0.2489583333333485
        },
        {
          "name": "F#3",
          "midi": 54,
          "time": 256.75,
          "velocity": 0.6299212598425197,
          "duration": 0.2489583333333485
        },
        {
          "name": "D3",
          "midi": 50,
          "time": 257,
          "velocity": 0.6299212598425197,
          "duration": 0.2489583333333485
        },
        {
          "name": "A2",
          "midi": 45,
          "time": 257.25,
          "velocity": 0.6299212598425197,
          "duration": 0.2489583333333485
        },
        {
          "name": "D3",
          "midi": 50,
          "time": 257.5,
          "velocity": 0.6299212598425197,
          "duration": 0.2489583333333485
        },
        {
          "name": "D2",
          "midi": 38,
          "time": 257.5,
          "velocity": 0.6299212598425197,
          "duration": 0.2489583333333485
        },
        {
          "name": "A2",
          "midi": 45,
          "time": 257.75,
          "velocity": 0.6299212598425197,
          "duration": 0.2489583333333485
        },
        {
          "name": "E3",
          "midi": 52,
          "time": 258,
          "velocity": 0.6299212598425197,
          "duration": 0.2489583333333485
        },
        {
          "name": "E2",
          "midi": 40,
          "time": 258,
          "velocity": 0.6299212598425197,
          "duration": 0.2489583333333485
        },
        {
          "name": "B2",
          "midi": 47,
          "time": 258.25,
          "velocity": 0.6299212598425197,
          "duration": 0.2489583333333485
        },
        {
          "name": "E3",
          "midi": 52,
          "time": 258.5,
          "velocity": 0.6299212598425197,
          "duration": 0.2489583333333485
        },
        {
          "name": "G3",
          "midi": 55,
          "time": 258.75,
          "velocity": 0.6299212598425197,
          "duration": 0.2489583333333485
        },
        {
          "name": "E3",
          "midi": 52,
          "time": 259,
          "velocity": 0.6299212598425197,
          "duration": 0.2489583333333485
        },
        {
          "name": "B2",
          "midi": 47,
          "time": 259.25,
          "velocity": 0.6299212598425197,
          "duration": 0.2489583333333485
        },
        {
          "name": "E3",
          "midi": 52,
          "time": 259.5,
          "velocity": 0.6299212598425197,
          "duration": 0.2489583333333485
        },
        {
          "name": "E2",
          "midi": 40,
          "time": 259.5,
          "velocity": 0.6299212598425197,
          "duration": 0.2489583333333485
        },
        {
          "name": "B2",
          "midi": 47,
          "time": 259.75,
          "velocity": 0.6299212598425197,
          "duration": 0.2489583333333485
        },
        {
          "name": "A3",
          "midi": 57,
          "time": 260,
          "velocity": 0.6299212598425197,
          "duration": 0.2489583333333485
        },
        {
          "name": "A2",
          "midi": 45,
          "time": 260,
          "velocity": 0.6299212598425197,
          "duration": 0.2489583333333485
        },
        {
          "name": "A3",
          "midi": 57,
          "time": 260.25,
          "velocity": 0.6299212598425197,
          "duration": 0.4989583333333485
        },
        {
          "name": "A2",
          "midi": 45,
          "time": 260.25,
          "velocity": 0.6299212598425197,
          "duration": 0.4989583333333485
        },
        {
          "name": "B3",
          "midi": 59,
          "time": 260.75,
          "velocity": 0.6299212598425197,
          "duration": 0.4989583333333485
        },
        {
          "name": "B2",
          "midi": 47,
          "time": 260.75,
          "velocity": 0.6299212598425197,
          "duration": 0.4989583333333485
        },
        {
          "name": "B3",
          "midi": 59,
          "time": 261.25,
          "velocity": 0.6299212598425197,
          "duration": 0.4989583333333485
        },
        {
          "name": "B2",
          "midi": 47,
          "time": 261.25,
          "velocity": 0.6299212598425197,
          "duration": 0.4989583333333485
        },
        {
          "name": "B3",
          "midi": 59,
          "time": 261.75,
          "velocity": 0.6299212598425197,
          "duration": 0.2489583333333485
        },
        {
          "name": "B2",
          "midi": 47,
          "time": 261.75,
          "velocity": 0.6299212598425197,
          "duration": 0.2489583333333485
        },
        {
          "name": "C3",
          "midi": 48,
          "time": 262,
          "velocity": 0.6299212598425197,
          "duration": 0.2489583333333485
        },
        {
          "name": "C2",
          "midi": 36,
          "time": 262,
          "velocity": 0.6299212598425197,
          "duration": 0.2489583333333485
        },
        {
          "name": "G2",
          "midi": 43,
          "time": 262.25,
          "velocity": 0.6299212598425197,
          "duration": 0.2489583333333485
        },
        {
          "name": "C3",
          "midi": 48,
          "time": 262.5,
          "velocity": 0.6299212598425197,
          "duration": 0.2489583333333485
        },
        {
          "name": "E3",
          "midi": 52,
          "time": 262.75,
          "velocity": 0.6299212598425197,
          "duration": 0.2489583333333485
        },
        {
          "name": "C3",
          "midi": 48,
          "time": 263,
          "velocity": 0.6299212598425197,
          "duration": 0.2489583333333485
        },
        {
          "name": "G2",
          "midi": 43,
          "time": 263.25,
          "velocity": 0.6299212598425197,
          "duration": 0.2489583333333485
        },
        {
          "name": "C3",
          "midi": 48,
          "time": 263.5,
          "velocity": 0.6299212598425197,
          "duration": 0.2489583333333485
        },
        {
          "name": "C2",
          "midi": 36,
          "time": 263.5,
          "velocity": 0.6299212598425197,
          "duration": 0.2489583333333485
        },
        {
          "name": "G2",
          "midi": 43,
          "time": 263.75,
          "velocity": 0.6299212598425197,
          "duration": 0.2489583333333485
        },
        {
          "name": "D3",
          "midi": 50,
          "time": 264,
          "velocity": 0.6299212598425197,
          "duration": 0.2489583333333485
        },
        {
          "name": "D2",
          "midi": 38,
          "time": 264,
          "velocity": 0.6299212598425197,
          "duration": 0.2489583333333485
        },
        {
          "name": "A2",
          "midi": 45,
          "time": 264.25,
          "velocity": 0.6299212598425197,
          "duration": 0.2489583333333485
        },
        {
          "name": "D3",
          "midi": 50,
          "time": 264.5,
          "velocity": 0.6299212598425197,
          "duration": 0.2489583333333485
        },
        {
          "name": "F#3",
          "midi": 54,
          "time": 264.75,
          "velocity": 0.6299212598425197,
          "duration": 0.2489583333333485
        },
        {
          "name": "D3",
          "midi": 50,
          "time": 265,
          "velocity": 0.6299212598425197,
          "duration": 0.2489583333333485
        },
        {
          "name": "A2",
          "midi": 45,
          "time": 265.25,
          "velocity": 0.6299212598425197,
          "duration": 0.2489583333333485
        },
        {
          "name": "D3",
          "midi": 50,
          "time": 265.5,
          "velocity": 0.6299212598425197,
          "duration": 0.2489583333333485
        },
        {
          "name": "D2",
          "midi": 38,
          "time": 265.5,
          "velocity": 0.6299212598425197,
          "duration": 0.2489583333333485
        },
        {
          "name": "A2",
          "midi": 45,
          "time": 265.75,
          "velocity": 0.6299212598425197,
          "duration": 0.2489583333333485
        },
        {
          "name": "E3",
          "midi": 52,
          "time": 266,
          "velocity": 0.6299212598425197,
          "duration": 0.2489583333333485
        },
        {
          "name": "E2",
          "midi": 40,
          "time": 266,
          "velocity": 0.6299212598425197,
          "duration": 0.2489583333333485
        },
        {
          "name": "E3",
          "midi": 52,
          "time": 266.25,
          "velocity": 0.6299212598425197,
          "duration": 0.2489583333333485
        },
        {
          "name": "E2",
          "midi": 40,
          "time": 266.25,
          "velocity": 0.6299212598425197,
          "duration": 0.2489583333333485
        },
        {
          "name": "E3",
          "midi": 52,
          "time": 266.5,
          "velocity": 0.6299212598425197,
          "duration": 0.2489583333333485
        },
        {
          "name": "E2",
          "midi": 40,
          "time": 266.5,
          "velocity": 0.6299212598425197,
          "duration": 0.2489583333333485
        },
        {
          "name": "E3",
          "midi": 52,
          "time": 266.75,
          "velocity": 0.6299212598425197,
          "duration": 0.2489583333333485
        },
        {
          "name": "E2",
          "midi": 40,
          "time": 266.75,
          "velocity": 0.6299212598425197,
          "duration": 0.2489583333333485
        },
        {
          "name": "E3",
          "midi": 52,
          "time": 267,
          "velocity": 0.6299212598425197,
          "duration": 0.2489583333333485
        },
        {
          "name": "E2",
          "midi": 40,
          "time": 267,
          "velocity": 0.6299212598425197,
          "duration": 0.2489583333333485
        },
        {
          "name": "E3",
          "midi": 52,
          "time": 267.25,
          "velocity": 0.6299212598425197,
          "duration": 0.2489583333333485
        },
        {
          "name": "E2",
          "midi": 40,
          "time": 267.25,
          "velocity": 0.6299212598425197,
          "duration": 0.2489583333333485
        },
        {
          "name": "E3",
          "midi": 52,
          "time": 267.5,
          "velocity": 0.6299212598425197,
          "duration": 0.2489583333333485
        },
        {
          "name": "E2",
          "midi": 40,
          "time": 267.5,
          "velocity": 0.6299212598425197,
          "duration": 0.2489583333333485
        },
        {
          "name": "E3",
          "midi": 52,
          "time": 267.75,
          "velocity": 0.6299212598425197,
          "duration": 0.2489583333333485
        },
        {
          "name": "E2",
          "midi": 40,
          "time": 267.75,
          "velocity": 0.6299212598425197,
          "duration": 0.2489583333333485
        },
        {
          "name": "D3",
          "midi": 50,
          "time": 268,
          "velocity": 0.6299212598425197,
          "duration": 0.2489583333333485
        },
        {
          "name": "D2",
          "midi": 38,
          "time": 268,
          "velocity": 0.6299212598425197,
          "duration": 0.2489583333333485
        },
        {
          "name": "D3",
          "midi": 50,
          "time": 268.25,
          "velocity": 0.6299212598425197,
          "duration": 0.2489583333333485
        },
        {
          "name": "D2",
          "midi": 38,
          "time": 268.25,
          "velocity": 0.6299212598425197,
          "duration": 0.2489583333333485
        },
        {
          "name": "D3",
          "midi": 50,
          "time": 268.5,
          "velocity": 0.6299212598425197,
          "duration": 0.2489583333333485
        },
        {
          "name": "D2",
          "midi": 38,
          "time": 268.5,
          "velocity": 0.6299212598425197,
          "duration": 0.2489583333333485
        },
        {
          "name": "D3",
          "midi": 50,
          "time": 268.75,
          "velocity": 0.6299212598425197,
          "duration": 0.2489583333333485
        },
        {
          "name": "D2",
          "midi": 38,
          "time": 268.75,
          "velocity": 0.6299212598425197,
          "duration": 0.2489583333333485
        },
        {
          "name": "D3",
          "midi": 50,
          "time": 269,
          "velocity": 0.6299212598425197,
          "duration": 0.2489583333333485
        },
        {
          "name": "D2",
          "midi": 38,
          "time": 269,
          "velocity": 0.6299212598425197,
          "duration": 0.2489583333333485
        },
        {
          "name": "D3",
          "midi": 50,
          "time": 269.25,
          "velocity": 0.6299212598425197,
          "duration": 0.2489583333333485
        },
        {
          "name": "D2",
          "midi": 38,
          "time": 269.25,
          "velocity": 0.6299212598425197,
          "duration": 0.2489583333333485
        },
        {
          "name": "D3",
          "midi": 50,
          "time": 269.5,
          "velocity": 0.6299212598425197,
          "duration": 0.2489583333333485
        },
        {
          "name": "D2",
          "midi": 38,
          "time": 269.5,
          "velocity": 0.6299212598425197,
          "duration": 0.2489583333333485
        },
        {
          "name": "D3",
          "midi": 50,
          "time": 269.75,
          "velocity": 0.6299212598425197,
          "duration": 0.2489583333333485
        },
        {
          "name": "D2",
          "midi": 38,
          "time": 269.75,
          "velocity": 0.6299212598425197,
          "duration": 0.2489583333333485
        },
        {
          "name": "C3",
          "midi": 48,
          "time": 270,
          "velocity": 0.6299212598425197,
          "duration": 0.2489583333333485
        },
        {
          "name": "C2",
          "midi": 36,
          "time": 270,
          "velocity": 0.6299212598425197,
          "duration": 0.2489583333333485
        },
        {
          "name": "C3",
          "midi": 48,
          "time": 270.25,
          "velocity": 0.6299212598425197,
          "duration": 0.2489583333333485
        },
        {
          "name": "C2",
          "midi": 36,
          "time": 270.25,
          "velocity": 0.6299212598425197,
          "duration": 0.2489583333333485
        },
        {
          "name": "C3",
          "midi": 48,
          "time": 270.5,
          "velocity": 0.6299212598425197,
          "duration": 0.2489583333333485
        },
        {
          "name": "C2",
          "midi": 36,
          "time": 270.5,
          "velocity": 0.6299212598425197,
          "duration": 0.2489583333333485
        },
        {
          "name": "C3",
          "midi": 48,
          "time": 270.75,
          "velocity": 0.6299212598425197,
          "duration": 0.2489583333333485
        },
        {
          "name": "C2",
          "midi": 36,
          "time": 270.75,
          "velocity": 0.6299212598425197,
          "duration": 0.2489583333333485
        },
        {
          "name": "C3",
          "midi": 48,
          "time": 271,
          "velocity": 0.6299212598425197,
          "duration": 0.2489583333333485
        },
        {
          "name": "C2",
          "midi": 36,
          "time": 271,
          "velocity": 0.6299212598425197,
          "duration": 0.2489583333333485
        },
        {
          "name": "C3",
          "midi": 48,
          "time": 271.25,
          "velocity": 0.6299212598425197,
          "duration": 0.2489583333333485
        },
        {
          "name": "C2",
          "midi": 36,
          "time": 271.25,
          "velocity": 0.6299212598425197,
          "duration": 0.2489583333333485
        },
        {
          "name": "C3",
          "midi": 48,
          "time": 271.5,
          "velocity": 0.6299212598425197,
          "duration": 0.2489583333333485
        },
        {
          "name": "C2",
          "midi": 36,
          "time": 271.5,
          "velocity": 0.6299212598425197,
          "duration": 0.2489583333333485
        },
        {
          "name": "C3",
          "midi": 48,
          "time": 271.75,
          "velocity": 0.6299212598425197,
          "duration": 0.2489583333333485
        },
        {
          "name": "C2",
          "midi": 36,
          "time": 271.75,
          "velocity": 0.6299212598425197,
          "duration": 0.2489583333333485
        },
        {
          "name": "B2",
          "midi": 47,
          "time": 272,
          "velocity": 0.6299212598425197,
          "duration": 0.2489583333333485
        },
        {
          "name": "B1",
          "midi": 35,
          "time": 272,
          "velocity": 0.6299212598425197,
          "duration": 0.2489583333333485
        },
        {
          "name": "B2",
          "midi": 47,
          "time": 272.25,
          "velocity": 0.6299212598425197,
          "duration": 0.2489583333333485
        },
        {
          "name": "B1",
          "midi": 35,
          "time": 272.25,
          "velocity": 0.6299212598425197,
          "duration": 0.2489583333333485
        },
        {
          "name": "B2",
          "midi": 47,
          "time": 272.5,
          "velocity": 0.6299212598425197,
          "duration": 0.2489583333333485
        },
        {
          "name": "B1",
          "midi": 35,
          "time": 272.5,
          "velocity": 0.6299212598425197,
          "duration": 0.2489583333333485
        },
        {
          "name": "B2",
          "midi": 47,
          "time": 272.75,
          "velocity": 0.6299212598425197,
          "duration": 0.2489583333333485
        },
        {
          "name": "B1",
          "midi": 35,
          "time": 272.75,
          "velocity": 0.6299212598425197,
          "duration": 0.2489583333333485
        },
        {
          "name": "B2",
          "midi": 47,
          "time": 273,
          "velocity": 0.6299212598425197,
          "duration": 0.2489583333333485
        },
        {
          "name": "B1",
          "midi": 35,
          "time": 273,
          "velocity": 0.6299212598425197,
          "duration": 0.2489583333333485
        },
        {
          "name": "B2",
          "midi": 47,
          "time": 273.25,
          "velocity": 0.6299212598425197,
          "duration": 0.2489583333333485
        },
        {
          "name": "B1",
          "midi": 35,
          "time": 273.25,
          "velocity": 0.6299212598425197,
          "duration": 0.2489583333333485
        },
        {
          "name": "B2",
          "midi": 47,
          "time": 273.5,
          "velocity": 0.6299212598425197,
          "duration": 0.2489583333333485
        },
        {
          "name": "B1",
          "midi": 35,
          "time": 273.5,
          "velocity": 0.6299212598425197,
          "duration": 0.2489583333333485
        },
        {
          "name": "B2",
          "midi": 47,
          "time": 273.75,
          "velocity": 0.6299212598425197,
          "duration": 0.2489583333333485
        },
        {
          "name": "B1",
          "midi": 35,
          "time": 273.75,
          "velocity": 0.6299212598425197,
          "duration": 0.2489583333333485
        },
        {
          "name": "E3",
          "midi": 52,
          "time": 274,
          "velocity": 0.6299212598425197,
          "duration": 0.2489583333333485
        },
        {
          "name": "E2",
          "midi": 40,
          "time": 274,
          "velocity": 0.6299212598425197,
          "duration": 0.2489583333333485
        },
        {
          "name": "E3",
          "midi": 52,
          "time": 274.25,
          "velocity": 0.6299212598425197,
          "duration": 0.2489583333333485
        },
        {
          "name": "E2",
          "midi": 40,
          "time": 274.25,
          "velocity": 0.6299212598425197,
          "duration": 0.2489583333333485
        },
        {
          "name": "E3",
          "midi": 52,
          "time": 274.5,
          "velocity": 0.6299212598425197,
          "duration": 0.2489583333333485
        },
        {
          "name": "E2",
          "midi": 40,
          "time": 274.5,
          "velocity": 0.6299212598425197,
          "duration": 0.2489583333333485
        },
        {
          "name": "E3",
          "midi": 52,
          "time": 274.75,
          "velocity": 0.6299212598425197,
          "duration": 0.2489583333333485
        },
        {
          "name": "E2",
          "midi": 40,
          "time": 274.75,
          "velocity": 0.6299212598425197,
          "duration": 0.2489583333333485
        },
        {
          "name": "E3",
          "midi": 52,
          "time": 275,
          "velocity": 0.6299212598425197,
          "duration": 0.2489583333333485
        },
        {
          "name": "E2",
          "midi": 40,
          "time": 275,
          "velocity": 0.6299212598425197,
          "duration": 0.2489583333333485
        },
        {
          "name": "E3",
          "midi": 52,
          "time": 275.25,
          "velocity": 0.6299212598425197,
          "duration": 0.2489583333333485
        },
        {
          "name": "E2",
          "midi": 40,
          "time": 275.25,
          "velocity": 0.6299212598425197,
          "duration": 0.2489583333333485
        },
        {
          "name": "E3",
          "midi": 52,
          "time": 275.5,
          "velocity": 0.6299212598425197,
          "duration": 0.2489583333333485
        },
        {
          "name": "E2",
          "midi": 40,
          "time": 275.5,
          "velocity": 0.6299212598425197,
          "duration": 0.2489583333333485
        },
        {
          "name": "E3",
          "midi": 52,
          "time": 275.75,
          "velocity": 0.6299212598425197,
          "duration": 0.2489583333333485
        },
        {
          "name": "E2",
          "midi": 40,
          "time": 275.75,
          "velocity": 0.6299212598425197,
          "duration": 0.2489583333333485
        },
        {
          "name": "D3",
          "midi": 50,
          "time": 276,
          "velocity": 0.6299212598425197,
          "duration": 0.2489583333333485
        },
        {
          "name": "D2",
          "midi": 38,
          "time": 276,
          "velocity": 0.6299212598425197,
          "duration": 0.2489583333333485
        },
        {
          "name": "D3",
          "midi": 50,
          "time": 276.25,
          "velocity": 0.6299212598425197,
          "duration": 0.2489583333333485
        },
        {
          "name": "D2",
          "midi": 38,
          "time": 276.25,
          "velocity": 0.6299212598425197,
          "duration": 0.2489583333333485
        },
        {
          "name": "D3",
          "midi": 50,
          "time": 276.5,
          "velocity": 0.6299212598425197,
          "duration": 0.2489583333333485
        },
        {
          "name": "D2",
          "midi": 38,
          "time": 276.5,
          "velocity": 0.6299212598425197,
          "duration": 0.2489583333333485
        },
        {
          "name": "D3",
          "midi": 50,
          "time": 276.75,
          "velocity": 0.6299212598425197,
          "duration": 0.2489583333333485
        },
        {
          "name": "D2",
          "midi": 38,
          "time": 276.75,
          "velocity": 0.6299212598425197,
          "duration": 0.2489583333333485
        },
        {
          "name": "D3",
          "midi": 50,
          "time": 277,
          "velocity": 0.6299212598425197,
          "duration": 0.2489583333333485
        },
        {
          "name": "D2",
          "midi": 38,
          "time": 277,
          "velocity": 0.6299212598425197,
          "duration": 0.2489583333333485
        },
        {
          "name": "D3",
          "midi": 50,
          "time": 277.25,
          "velocity": 0.6299212598425197,
          "duration": 0.2489583333333485
        },
        {
          "name": "D2",
          "midi": 38,
          "time": 277.25,
          "velocity": 0.6299212598425197,
          "duration": 0.2489583333333485
        },
        {
          "name": "D3",
          "midi": 50,
          "time": 277.5,
          "velocity": 0.6299212598425197,
          "duration": 0.2489583333333485
        },
        {
          "name": "D2",
          "midi": 38,
          "time": 277.5,
          "velocity": 0.6299212598425197,
          "duration": 0.2489583333333485
        },
        {
          "name": "D3",
          "midi": 50,
          "time": 277.75,
          "velocity": 0.6299212598425197,
          "duration": 0.2489583333333485
        },
        {
          "name": "D2",
          "midi": 38,
          "time": 277.75,
          "velocity": 0.6299212598425197,
          "duration": 0.2489583333333485
        },
        {
          "name": "C3",
          "midi": 48,
          "time": 278,
          "velocity": 0.6299212598425197,
          "duration": 0.2489583333333485
        },
        {
          "name": "C2",
          "midi": 36,
          "time": 278,
          "velocity": 0.6299212598425197,
          "duration": 0.2489583333333485
        },
        {
          "name": "C3",
          "midi": 48,
          "time": 278.25,
          "velocity": 0.6299212598425197,
          "duration": 0.2489583333333485
        },
        {
          "name": "C2",
          "midi": 36,
          "time": 278.25,
          "velocity": 0.6299212598425197,
          "duration": 0.2489583333333485
        },
        {
          "name": "C3",
          "midi": 48,
          "time": 278.5,
          "velocity": 0.6299212598425197,
          "duration": 0.2489583333333485
        },
        {
          "name": "C2",
          "midi": 36,
          "time": 278.5,
          "velocity": 0.6299212598425197,
          "duration": 0.2489583333333485
        },
        {
          "name": "C3",
          "midi": 48,
          "time": 278.75,
          "velocity": 0.6299212598425197,
          "duration": 0.2489583333333485
        },
        {
          "name": "C2",
          "midi": 36,
          "time": 278.75,
          "velocity": 0.6299212598425197,
          "duration": 0.2489583333333485
        },
        {
          "name": "C3",
          "midi": 48,
          "time": 279,
          "velocity": 0.6299212598425197,
          "duration": 0.2489583333333485
        },
        {
          "name": "C2",
          "midi": 36,
          "time": 279,
          "velocity": 0.6299212598425197,
          "duration": 0.2489583333333485
        },
        {
          "name": "C3",
          "midi": 48,
          "time": 279.25,
          "velocity": 0.6299212598425197,
          "duration": 0.2489583333333485
        },
        {
          "name": "C2",
          "midi": 36,
          "time": 279.25,
          "velocity": 0.6299212598425197,
          "duration": 0.2489583333333485
        },
        {
          "name": "C3",
          "midi": 48,
          "time": 279.5,
          "velocity": 0.6299212598425197,
          "duration": 0.2489583333333485
        },
        {
          "name": "C2",
          "midi": 36,
          "time": 279.5,
          "velocity": 0.6299212598425197,
          "duration": 0.2489583333333485
        },
        {
          "name": "C3",
          "midi": 48,
          "time": 279.75,
          "velocity": 0.6299212598425197,
          "duration": 0.2489583333333485
        },
        {
          "name": "C2",
          "midi": 36,
          "time": 279.75,
          "velocity": 0.6299212598425197,
          "duration": 0.2489583333333485
        },
        {
          "name": "B2",
          "midi": 47,
          "time": 280,
          "velocity": 0.6299212598425197,
          "duration": 0.2489583333333485
        },
        {
          "name": "B1",
          "midi": 35,
          "time": 280,
          "velocity": 0.6299212598425197,
          "duration": 0.2489583333333485
        },
        {
          "name": "B2",
          "midi": 47,
          "time": 280.25,
          "velocity": 0.6299212598425197,
          "duration": 0.2489583333333485
        },
        {
          "name": "B1",
          "midi": 35,
          "time": 280.25,
          "velocity": 0.6299212598425197,
          "duration": 0.2489583333333485
        },
        {
          "name": "B2",
          "midi": 47,
          "time": 280.5,
          "velocity": 0.6299212598425197,
          "duration": 0.2489583333333485
        },
        {
          "name": "B1",
          "midi": 35,
          "time": 280.5,
          "velocity": 0.6299212598425197,
          "duration": 0.2489583333333485
        },
        {
          "name": "B2",
          "midi": 47,
          "time": 280.75,
          "velocity": 0.6299212598425197,
          "duration": 0.2489583333333485
        },
        {
          "name": "B1",
          "midi": 35,
          "time": 280.75,
          "velocity": 0.6299212598425197,
          "duration": 0.2489583333333485
        },
        {
          "name": "B2",
          "midi": 47,
          "time": 281,
          "velocity": 0.6299212598425197,
          "duration": 0.2489583333333485
        },
        {
          "name": "B1",
          "midi": 35,
          "time": 281,
          "velocity": 0.6299212598425197,
          "duration": 0.2489583333333485
        },
        {
          "name": "B2",
          "midi": 47,
          "time": 281.25,
          "velocity": 0.6299212598425197,
          "duration": 0.2489583333333485
        },
        {
          "name": "B1",
          "midi": 35,
          "time": 281.25,
          "velocity": 0.6299212598425197,
          "duration": 0.2489583333333485
        },
        {
          "name": "B2",
          "midi": 47,
          "time": 281.5,
          "velocity": 0.6299212598425197,
          "duration": 0.2489583333333485
        },
        {
          "name": "B1",
          "midi": 35,
          "time": 281.5,
          "velocity": 0.6299212598425197,
          "duration": 0.2489583333333485
        },
        {
          "name": "B2",
          "midi": 47,
          "time": 281.75,
          "velocity": 0.6299212598425197,
          "duration": 0.2489583333333485
        },
        {
          "name": "B1",
          "midi": 35,
          "time": 281.75,
          "velocity": 0.6299212598425197,
          "duration": 0.2489583333333485
        },
        {
          "name": "E3",
          "midi": 52,
          "time": 282,
          "velocity": 0.6299212598425197,
          "duration": 0.2489583333333485
        },
        {
          "name": "E2",
          "midi": 40,
          "time": 282,
          "velocity": 0.6299212598425197,
          "duration": 0.2489583333333485
        },
        {
          "name": "E3",
          "midi": 52,
          "time": 282.25,
          "velocity": 0.6299212598425197,
          "duration": 0.2489583333333485
        },
        {
          "name": "E2",
          "midi": 40,
          "time": 282.25,
          "velocity": 0.6299212598425197,
          "duration": 0.2489583333333485
        },
        {
          "name": "E3",
          "midi": 52,
          "time": 282.5,
          "velocity": 0.6299212598425197,
          "duration": 0.2489583333333485
        },
        {
          "name": "E2",
          "midi": 40,
          "time": 282.5,
          "velocity": 0.6299212598425197,
          "duration": 0.2489583333333485
        },
        {
          "name": "E3",
          "midi": 52,
          "time": 282.75,
          "velocity": 0.6299212598425197,
          "duration": 0.2489583333333485
        },
        {
          "name": "E2",
          "midi": 40,
          "time": 282.75,
          "velocity": 0.6299212598425197,
          "duration": 0.2489583333333485
        },
        {
          "name": "E3",
          "midi": 52,
          "time": 283,
          "velocity": 0.6299212598425197,
          "duration": 0.2489583333333485
        },
        {
          "name": "E2",
          "midi": 40,
          "time": 283,
          "velocity": 0.6299212598425197,
          "duration": 0.2489583333333485
        },
        {
          "name": "E3",
          "midi": 52,
          "time": 283.25,
          "velocity": 0.6299212598425197,
          "duration": 0.2489583333333485
        },
        {
          "name": "E2",
          "midi": 40,
          "time": 283.25,
          "velocity": 0.6299212598425197,
          "duration": 0.2489583333333485
        },
        {
          "name": "E3",
          "midi": 52,
          "time": 283.5,
          "velocity": 0.6299212598425197,
          "duration": 0.2489583333333485
        },
        {
          "name": "E2",
          "midi": 40,
          "time": 283.5,
          "velocity": 0.6299212598425197,
          "duration": 0.2489583333333485
        },
        {
          "name": "E3",
          "midi": 52,
          "time": 283.75,
          "velocity": 0.6299212598425197,
          "duration": 0.2489583333333485
        },
        {
          "name": "E2",
          "midi": 40,
          "time": 283.75,
          "velocity": 0.6299212598425197,
          "duration": 0.2489583333333485
        },
        {
          "name": "D3",
          "midi": 50,
          "time": 284,
          "velocity": 0.6299212598425197,
          "duration": 0.2489583333333485
        },
        {
          "name": "D2",
          "midi": 38,
          "time": 284,
          "velocity": 0.6299212598425197,
          "duration": 0.2489583333333485
        },
        {
          "name": "D3",
          "midi": 50,
          "time": 284.25,
          "velocity": 0.6299212598425197,
          "duration": 0.2489583333333485
        },
        {
          "name": "D2",
          "midi": 38,
          "time": 284.25,
          "velocity": 0.6299212598425197,
          "duration": 0.2489583333333485
        },
        {
          "name": "D3",
          "midi": 50,
          "time": 284.5,
          "velocity": 0.6299212598425197,
          "duration": 0.2489583333333485
        },
        {
          "name": "D2",
          "midi": 38,
          "time": 284.5,
          "velocity": 0.6299212598425197,
          "duration": 0.2489583333333485
        },
        {
          "name": "D3",
          "midi": 50,
          "time": 284.75,
          "velocity": 0.6299212598425197,
          "duration": 0.2489583333333485
        },
        {
          "name": "D2",
          "midi": 38,
          "time": 284.75,
          "velocity": 0.6299212598425197,
          "duration": 0.2489583333333485
        },
        {
          "name": "D3",
          "midi": 50,
          "time": 285,
          "velocity": 0.6299212598425197,
          "duration": 0.2489583333333485
        },
        {
          "name": "D2",
          "midi": 38,
          "time": 285,
          "velocity": 0.6299212598425197,
          "duration": 0.2489583333333485
        },
        {
          "name": "D3",
          "midi": 50,
          "time": 285.25,
          "velocity": 0.6299212598425197,
          "duration": 0.2489583333333485
        },
        {
          "name": "D2",
          "midi": 38,
          "time": 285.25,
          "velocity": 0.6299212598425197,
          "duration": 0.2489583333333485
        },
        {
          "name": "D3",
          "midi": 50,
          "time": 285.5,
          "velocity": 0.6299212598425197,
          "duration": 0.2489583333333485
        },
        {
          "name": "D2",
          "midi": 38,
          "time": 285.5,
          "velocity": 0.6299212598425197,
          "duration": 0.2489583333333485
        },
        {
          "name": "D3",
          "midi": 50,
          "time": 285.75,
          "velocity": 0.6299212598425197,
          "duration": 0.2489583333333485
        },
        {
          "name": "D2",
          "midi": 38,
          "time": 285.75,
          "velocity": 0.6299212598425197,
          "duration": 0.2489583333333485
        },
        {
          "name": "C3",
          "midi": 48,
          "time": 286,
          "velocity": 0.6299212598425197,
          "duration": 0.2489583333333485
        },
        {
          "name": "C2",
          "midi": 36,
          "time": 286,
          "velocity": 0.6299212598425197,
          "duration": 0.2489583333333485
        },
        {
          "name": "C3",
          "midi": 48,
          "time": 286.25,
          "velocity": 0.6299212598425197,
          "duration": 0.2489583333333485
        },
        {
          "name": "C2",
          "midi": 36,
          "time": 286.25,
          "velocity": 0.6299212598425197,
          "duration": 0.2489583333333485
        },
        {
          "name": "C3",
          "midi": 48,
          "time": 286.5,
          "velocity": 0.6299212598425197,
          "duration": 0.2489583333333485
        },
        {
          "name": "C2",
          "midi": 36,
          "time": 286.5,
          "velocity": 0.6299212598425197,
          "duration": 0.2489583333333485
        },
        {
          "name": "C3",
          "midi": 48,
          "time": 286.75,
          "velocity": 0.6299212598425197,
          "duration": 0.2489583333333485
        },
        {
          "name": "C2",
          "midi": 36,
          "time": 286.75,
          "velocity": 0.6299212598425197,
          "duration": 0.2489583333333485
        },
        {
          "name": "C3",
          "midi": 48,
          "time": 287,
          "velocity": 0.6299212598425197,
          "duration": 0.2489583333333485
        },
        {
          "name": "C2",
          "midi": 36,
          "time": 287,
          "velocity": 0.6299212598425197,
          "duration": 0.2489583333333485
        },
        {
          "name": "C3",
          "midi": 48,
          "time": 287.25,
          "velocity": 0.6299212598425197,
          "duration": 0.2489583333333485
        },
        {
          "name": "C2",
          "midi": 36,
          "time": 287.25,
          "velocity": 0.6299212598425197,
          "duration": 0.2489583333333485
        },
        {
          "name": "C3",
          "midi": 48,
          "time": 287.5,
          "velocity": 0.6299212598425197,
          "duration": 0.2489583333333485
        },
        {
          "name": "C2",
          "midi": 36,
          "time": 287.5,
          "velocity": 0.6299212598425197,
          "duration": 0.2489583333333485
        },
        {
          "name": "C3",
          "midi": 48,
          "time": 287.75,
          "velocity": 0.6299212598425197,
          "duration": 0.2489583333333485
        },
        {
          "name": "C2",
          "midi": 36,
          "time": 287.75,
          "velocity": 0.6299212598425197,
          "duration": 0.2489583333333485
        },
        {
          "name": "B2",
          "midi": 47,
          "time": 288,
          "velocity": 0.6299212598425197,
          "duration": 0.2489583333333485
        },
        {
          "name": "B1",
          "midi": 35,
          "time": 288,
          "velocity": 0.6299212598425197,
          "duration": 0.2489583333333485
        },
        {
          "name": "B2",
          "midi": 47,
          "time": 288.25,
          "velocity": 0.6299212598425197,
          "duration": 0.2489583333333485
        },
        {
          "name": "B1",
          "midi": 35,
          "time": 288.25,
          "velocity": 0.6299212598425197,
          "duration": 0.2489583333333485
        },
        {
          "name": "B2",
          "midi": 47,
          "time": 288.5,
          "velocity": 0.6299212598425197,
          "duration": 0.2489583333333485
        },
        {
          "name": "B1",
          "midi": 35,
          "time": 288.5,
          "velocity": 0.6299212598425197,
          "duration": 0.2489583333333485
        },
        {
          "name": "B2",
          "midi": 47,
          "time": 288.75,
          "velocity": 0.6299212598425197,
          "duration": 0.2489583333333485
        },
        {
          "name": "B1",
          "midi": 35,
          "time": 288.75,
          "velocity": 0.6299212598425197,
          "duration": 0.2489583333333485
        },
        {
          "name": "B2",
          "midi": 47,
          "time": 289,
          "velocity": 0.6299212598425197,
          "duration": 0.2489583333333485
        },
        {
          "name": "B1",
          "midi": 35,
          "time": 289,
          "velocity": 0.6299212598425197,
          "duration": 0.2489583333333485
        },
        {
          "name": "B2",
          "midi": 47,
          "time": 289.25,
          "velocity": 0.6299212598425197,
          "duration": 0.2489583333333485
        },
        {
          "name": "B1",
          "midi": 35,
          "time": 289.25,
          "velocity": 0.6299212598425197,
          "duration": 0.2489583333333485
        },
        {
          "name": "B2",
          "midi": 47,
          "time": 289.5,
          "velocity": 0.6299212598425197,
          "duration": 0.2489583333333485
        },
        {
          "name": "B1",
          "midi": 35,
          "time": 289.5,
          "velocity": 0.6299212598425197,
          "duration": 0.2489583333333485
        },
        {
          "name": "B2",
          "midi": 47,
          "time": 289.75,
          "velocity": 0.6299212598425197,
          "duration": 0.2489583333333485
        },
        {
          "name": "B1",
          "midi": 35,
          "time": 289.75,
          "velocity": 0.6299212598425197,
          "duration": 0.2489583333333485
        },
        {
          "name": "B2",
          "midi": 47,
          "time": 290,
          "velocity": 0.6299212598425197,
          "duration": 0.2489583333333485
        },
        {
          "name": "B1",
          "midi": 35,
          "time": 290,
          "velocity": 0.6299212598425197,
          "duration": 0.2489583333333485
        },
        {
          "name": "B2",
          "midi": 47,
          "time": 290.25,
          "velocity": 0.6299212598425197,
          "duration": 0.2489583333333485
        },
        {
          "name": "B1",
          "midi": 35,
          "time": 290.25,
          "velocity": 0.6299212598425197,
          "duration": 0.2489583333333485
        },
        {
          "name": "B2",
          "midi": 47,
          "time": 290.5,
          "velocity": 0.6299212598425197,
          "duration": 0.2489583333333485
        },
        {
          "name": "B1",
          "midi": 35,
          "time": 290.5,
          "velocity": 0.6299212598425197,
          "duration": 0.2489583333333485
        },
        {
          "name": "B2",
          "midi": 47,
          "time": 290.75,
          "velocity": 0.6299212598425197,
          "duration": 0.2489583333333485
        },
        {
          "name": "B1",
          "midi": 35,
          "time": 290.75,
          "velocity": 0.6299212598425197,
          "duration": 0.2489583333333485
        },
        {
          "name": "B2",
          "midi": 47,
          "time": 291,
          "velocity": 0.6299212598425197,
          "duration": 0.2489583333333485
        },
        {
          "name": "B1",
          "midi": 35,
          "time": 291,
          "velocity": 0.6299212598425197,
          "duration": 0.2489583333333485
        },
        {
          "name": "B2",
          "midi": 47,
          "time": 291.25,
          "velocity": 0.6299212598425197,
          "duration": 0.2489583333333485
        },
        {
          "name": "B1",
          "midi": 35,
          "time": 291.25,
          "velocity": 0.6299212598425197,
          "duration": 0.2489583333333485
        },
        {
          "name": "B2",
          "midi": 47,
          "time": 291.5,
          "velocity": 0.6299212598425197,
          "duration": 0.2489583333333485
        },
        {
          "name": "B1",
          "midi": 35,
          "time": 291.5,
          "velocity": 0.6299212598425197,
          "duration": 0.2489583333333485
        },
        {
          "name": "B2",
          "midi": 47,
          "time": 291.75,
          "velocity": 0.6299212598425197,
          "duration": 0.2489583333333485
        },
        {
          "name": "B1",
          "midi": 35,
          "time": 291.75,
          "velocity": 0.6299212598425197,
          "duration": 0.2489583333333485
        },
        {
          "name": "E3",
          "midi": 52,
          "time": 292,
          "velocity": 0.6299212598425197,
          "duration": 1.9989583333333485
        },
        {
          "name": "B2",
          "midi": 47,
          "time": 292,
          "velocity": 0.6299212598425197,
          "duration": 1.9989583333333485
        },
        {
          "name": "E2",
          "midi": 40,
          "time": 292,
          "velocity": 0.6299212598425197,
          "duration": 1.9989583333333485
        }
      ],
      "controlChanges": {},
      "id": 2,
      "channelNumber": 0,
      "isPercussion": false
    }
  ]
}