{
  "header": {
    "PPQ": 120,
    "bpm": 120,
    "timeSignature": [
      4,
      4
    ],
    "name": ""
  },
  "startTime": 1.75,
  "duration": 314,
  "tracks": [
    {
      "startTime": 1.75,
      "duration": 314,
      "length": 1543,
      "notes": [
        {
          "name": "E5",
          "midi": 76,
          "time": 1.75,
          "velocity": 0.6692913385826772,
          "duration": 0.25
        },
        {
          "name": "B5",
          "midi": 83,
          "time": 2,
          "velocity": 0.6692913385826772,
          "duration": 0.5
        },
        {
          "name": "E3",
          "midi": 52,
          "time": 2,
          "velocity": 0.6692913385826772,
          "duration": 0.25
        },
        {
          "name": "B3",
          "midi": 59,
          "time": 2.25,
          "velocity": 0.6692913385826772,
          "duration": 0.25
        },
        {
          "name": "A5",
          "midi": 81,
          "time": 2.5,
          "velocity": 0.6692913385826772,
          "duration": 0.25
        },
        {
          "name": "E4",
          "midi": 64,
          "time": 2.5,
          "velocity": 0.6692913385826772,
          "duration": 0.25
        },
        {
          "name": "B5",
          "midi": 83,
          "time": 2.75,
          "velocity": 0.6692913385826772,
          "duration": 0.75
        },
        {
          "name": "B3",
          "midi": 59,
          "time": 2.75,
          "velocity": 0.6692913385826772,
          "duration": 0.25
        },
        {
          "name": "E4",
          "midi": 64,
          "time": 3,
          "velocity": 0.6692913385826772,
          "duration": 0.25
        },
        {
          "name": "B3",
          "midi": 59,
          "time": 3.25,
          "velocity": 0.6692913385826772,
          "duration": 0.25
        },
        {
          "name": "C6",
          "midi": 84,
          "time": 3.5,
          "velocity": 0.6692913385826772,
          "duration": 0.75
        },
        {
          "name": "E4",
          "midi": 64,
          "time": 3.5,
          "velocity": 0.6692913385826772,
          "duration": 0.25
        },
        {
          "name": "B3",
          "midi": 59,
          "time": 3.75,
          "velocity": 0.6692913385826772,
          "duration": 0.25
        },
        {
          "name": "E4",
          "midi": 64,
          "time": 4,
          "velocity": 0.6692913385826772,
          "duration": 0.25
        },
        {
          "name": "E6",
          "midi": 88,
          "time": 4.25,
          "velocity": 0.6692913385826772,
          "duration": 0.75
        },
        {
          "name": "B3",
          "midi": 59,
          "time": 4.25,
          "velocity": 0.6692913385826772,
          "duration": 0.25
        },
        {
          "name": "E4",
          "midi": 64,
          "time": 4.5,
          "velocity": 0.6692913385826772,
          "duration": 0.25
        },
        {
          "name": "B3",
          "midi": 59,
          "time": 4.75,
          "velocity": 0.6692913385826772,
          "duration": 0.25
        },
        {
          "name": "B5",
          "midi": 83,
          "time": 5,
          "velocity": 0.6692913385826772,
          "duration": 0.75
        },
        {
          "name": "E4",
          "midi": 64,
          "time": 5,
          "velocity": 0.6692913385826772,
          "duration": 0.25
        },
        {
          "name": "B3",
          "midi": 59,
          "time": 5.25,
          "velocity": 0.6692913385826772,
          "duration": 0.25
        },
        {
          "name": "E4",
          "midi": 64,
          "time": 5.5,
          "velocity": 0.6692913385826772,
          "duration": 0.25
        },
        {
          "name": "E5",
          "midi": 76,
          "time": 5.75,
          "velocity": 0.6692913385826772,
          "duration": 0.25
        },
        {
          "name": "B3",
          "midi": 59,
          "time": 5.75,
          "velocity": 0.6692913385826772,
          "duration": 0.25
        },
        {
          "name": "B5",
          "midi": 83,
          "time": 6,
          "velocity": 0.6692913385826772,
          "duration": 0.5
        },
        {
          "name": "E3",
          "midi": 52,
          "time": 6,
          "velocity": 0.6692913385826772,
          "duration": 0.3125
        },
        {
          "name": "C4",
          "midi": 60,
          "time": 6.25,
          "velocity": 0.6692913385826772,
          "duration": 0.3125
        },
        {
          "name": "A5",
          "midi": 81,
          "time": 6.5,
          "velocity": 0.6692913385826772,
          "duration": 0.3125
        },
        {
          "name": "E4",
          "midi": 64,
          "time": 6.5,
          "velocity": 0.6692913385826772,
          "duration": 0.3125
        },
        {
          "name": "B5",
          "midi": 83,
          "time": 6.75,
          "velocity": 0.6692913385826772,
          "duration": 0.75
        },
        {
          "name": "C4",
          "midi": 60,
          "time": 6.75,
          "velocity": 0.6692913385826772,
          "duration": 0.25
        },
        {
          "name": "E4",
          "midi": 64,
          "time": 7,
          "velocity": 0.6692913385826772,
          "duration": 0.25
        },
        {
          "name": "C4",
          "midi": 60,
          "time": 7.25,
          "velocity": 0.6692913385826772,
          "duration": 0.25
        },
        {
          "name": "C6",
          "midi": 84,
          "time": 7.5,
          "velocity": 0.6692913385826772,
          "duration": 0.75
        },
        {
          "name": "E4",
          "midi": 64,
          "time": 7.5,
          "velocity": 0.6692913385826772,
          "duration": 0.25
        },
        {
          "name": "C4",
          "midi": 60,
          "time": 7.75,
          "velocity": 0.6692913385826772,
          "duration": 0.25
        },
        {
          "name": "E4",
          "midi": 64,
          "time": 8,
          "velocity": 0.6692913385826772,
          "duration": 0.25
        },
        {
          "name": "E6",
          "midi": 88,
          "time": 8.25,
          "velocity": 0.6692913385826772,
          "duration": 0.75
        },
        {
          "name": "C4",
          "midi": 60,
          "time": 8.25,
          "velocity": 0.6692913385826772,
          "duration": 0.25
        },
        {
          "name": "E4",
          "midi": 64,
          "time": 8.5,
          "velocity": 0.6692913385826772,
          "duration": 0.25
        },
        {
          "name": "C4",
          "midi": 60,
          "time": 8.75,
          "velocity": 0.6692913385826772,
          "duration": 0.25
        },
        {
          "name": "B5",
          "midi": 83,
          "time": 9,
          "velocity": 0.6692913385826772,
          "duration": 1
        },
        {
          "name": "E4",
          "midi": 64,
          "time": 9,
          "velocity": 0.6692913385826772,
          "duration": 0.25
        },
        {
          "name": "C4",
          "midi": 60,
          "time": 9.25,
          "velocity": 0.6692913385826772,
          "duration": 0.25
        },
        {
          "name": "E4",
          "midi": 64,
          "time": 9.5,
          "velocity": 0.6692913385826772,
          "duration": 0.25
        },
        {
          "name": "C4",
          "midi": 60,
          "time": 9.75,
          "velocity": 0.6692913385826772,
          "duration": 0.25
        },
        {
          "name": "B5",
          "midi": 83,
          "time": 10,
          "velocity": 0.6692913385826772,
          "duration": 0.5
        },
        {
          "name": "E3",
          "midi": 52,
          "time": 10,
          "velocity": 0.6692913385826772,
          "duration": 0.25
        },
        {
          "name": "B3",
          "midi": 59,
          "time": 10.25,
          "velocity": 0.6692913385826772,
          "duration": 0.25
        },
        {
          "name": "A5",
          "midi": 81,
          "time": 10.5,
          "velocity": 0.6692913385826772,
          "duration": 0.25
        },
        {
          "name": "E4",
          "midi": 64,
          "time": 10.5,
          "velocity": 0.6692913385826772,
          "duration": 0.25
        },
        {
          "name": "B5",
          "midi": 83,
          "time": 10.75,
          "velocity": 0.6692913385826772,
          "duration": 0.75
        },
        {
          "name": "B3",
          "midi": 59,
          "time": 10.75,
          "velocity": 0.6692913385826772,
          "duration": 0.25
        },
        {
          "name": "E4",
          "midi": 64,
          "time": 11,
          "velocity": 0.6692913385826772,
          "duration": 0.25
        },
        {
          "name": "B3",
          "midi": 59,
          "time": 11.25,
          "velocity": 0.6692913385826772,
          "duration": 0.25
        },
        {
          "name": "C6",
          "midi": 84,
          "time": 11.5,
          "velocity": 0.6692913385826772,
          "duration": 0.75
        },
        {
          "name": "E4",
          "midi": 64,
          "time": 11.5,
          "velocity": 0.6692913385826772,
          "duration": 0.25
        },
        {
          "name": "B3",
          "midi": 59,
          "time": 11.75,
          "velocity": 0.6692913385826772,
          "duration": 0.25
        },
        {
          "name": "E4",
          "midi": 64,
          "time": 12,
          "velocity": 0.6692913385826772,
          "duration": 0.25
        },
        {
          "name": "E6",
          "midi": 88,
          "time": 12.25,
          "velocity": 0.6692913385826772,
          "duration": 0.75
        },
        {
          "name": "B3",
          "midi": 59,
          "time": 12.25,
          "velocity": 0.6692913385826772,
          "duration": 0.25
        },
        {
          "name": "E4",
          "midi": 64,
          "time": 12.5,
          "velocity": 0.6692913385826772,
          "duration": 0.25
        },
        {
          "name": "B3",
          "midi": 59,
          "time": 12.75,
          "velocity": 0.6692913385826772,
          "duration": 0.25
        },
        {
          "name": "B5",
          "midi": 83,
          "time": 13,
          "velocity": 0.6692913385826772,
          "duration": 0.75
        },
        {
          "name": "E4",
          "midi": 64,
          "time": 13,
          "velocity": 0.6692913385826772,
          "duration": 0.25
        },
        {
          "name": "B3",
          "midi": 59,
          "time": 13.25,
          "velocity": 0.6692913385826772,
          "duration": 0.25
        },
        {
          "name": "E4",
          "midi": 64,
          "time": 13.5,
          "velocity": 0.6692913385826772,
          "duration": 0.25
        },
        {
          "name": "E5",
          "midi": 76,
          "time": 13.75,
          "velocity": 0.6692913385826772,
          "duration": 0.25
        },
        {
          "name": "B3",
          "midi": 59,
          "time": 13.75,
          "velocity": 0.6692913385826772,
          "duration": 0.25
        },
        {
          "name": "B5",
          "midi": 83,
          "time": 14,
          "velocity": 0.6692913385826772,
          "duration": 0.5
        },
        {
          "name": "E3",
          "midi": 52,
          "time": 14,
          "velocity": 0.6692913385826772,
          "duration": 0.3125
        },
        {
          "name": "C4",
          "midi": 60,
          "time": 14.25,
          "velocity": 0.6692913385826772,
          "duration": 0.3125
        },
        {
          "name": "A5",
          "midi": 81,
          "time": 14.5,
          "velocity": 0.6692913385826772,
          "duration": 0.3125
        },
        {
          "name": "E4",
          "midi": 64,
          "time": 14.5,
          "velocity": 0.6692913385826772,
          "duration": 0.3125
        },
        {
          "name": "B5",
          "midi": 83,
          "time": 14.75,
          "velocity": 0.6692913385826772,
          "duration": 0.75
        },
        {
          "name": "C4",
          "midi": 60,
          "time": 14.75,
          "velocity": 0.6692913385826772,
          "duration": 0.25
        },
        {
          "name": "E4",
          "midi": 64,
          "time": 15,
          "velocity": 0.6692913385826772,
          "duration": 0.25
        },
        {
          "name": "C4",
          "midi": 60,
          "time": 15.25,
          "velocity": 0.6692913385826772,
          "duration": 0.25
        },
        {
          "name": "C6",
          "midi": 84,
          "time": 15.5,
          "velocity": 0.6692913385826772,
          "duration": 0.75
        },
        {
          "name": "E4",
          "midi": 64,
          "time": 15.5,
          "velocity": 0.6692913385826772,
          "duration": 0.25
        },
        {
          "name": "C4",
          "midi": 60,
          "time": 15.75,
          "velocity": 0.6692913385826772,
          "duration": 0.25
        },
        {
          "name": "E4",
          "midi": 64,
          "time": 16,
          "velocity": 0.6692913385826772,
          "duration": 0.25
        },
        {
          "name": "E6",
          "midi": 88,
          "time": 16.25,
          "velocity": 0.6692913385826772,
          "duration": 0.75
        },
        {
          "name": "C4",
          "midi": 60,
          "time": 16.25,
          "velocity": 0.6692913385826772,
          "duration": 0.25
        },
        {
          "name": "E4",
          "midi": 64,
          "time": 16.5,
          "velocity": 0.6692913385826772,
          "duration": 0.25
        },
        {
          "name": "C4",
          "midi": 60,
          "time": 16.75,
          "velocity": 0.6692913385826772,
          "duration": 0.25
        },
        {
          "name": "B5",
          "midi": 83,
          "time": 17,
          "velocity": 0.6692913385826772,
          "duration": 1
        },
        {
          "name": "E4",
          "midi": 64,
          "time": 17,
          "velocity": 0.6692913385826772,
          "duration": 0.25
        },
        {
          "name": "C4",
          "midi": 60,
          "time": 17.25,
          "velocity": 0.6692913385826772,
          "duration": 0.25
        },
        {
          "name": "E4",
          "midi": 64,
          "time": 17.5,
          "velocity": 0.6692913385826772,
          "duration": 0.25
        },
        {
          "name": "C4",
          "midi": 60,
          "time": 17.75,
          "velocity": 0.6692913385826772,
          "duration": 0.25
        },
        {
          "name": "G4",
          "midi": 67,
          "time": 18,
          "velocity": 0.6692913385826772,
          "duration": 1
        },
        {
          "name": "B4",
          "midi": 71,
          "time": 18,
          "velocity": 0.6692913385826772,
          "duration": 1
        },
        {
          "name": "E3",
          "midi": 52,
          "time": 18,
          "velocity": 0.6692913385826772,
          "duration": 0.3125
        },
        {
          "name": "G3",
          "midi": 55,
          "time": 18.25,
          "velocity": 0.6692913385826772,
          "duration": 0.3125
        },
        {
          "name": "B3",
          "midi": 59,
          "time": 18.5,
          "velocity": 0.6692913385826772,
          "duration": 0.3125
        },
        {
          "name": "E4",
          "midi": 64,
          "time": 18.75,
          "velocity": 0.6692913385826772,
          "duration": 1.25
        },
        {
          "name": "A4",
          "midi": 69,
          "time": 19,
          "velocity": 0.6692913385826772,
          "duration": 0.25
        },
        {
          "name": "B4",
          "midi": 71,
          "time": 19.25,
          "velocity": 0.6692913385826772,
          "duration": 0.5
        },
        {
          "name": "G4",
          "midi": 67,
          "time": 19.75,
          "velocity": 0.6692913385826772,
          "duration": 0.5
        },
        {
          "name": "C5",
          "midi": 72,
          "time": 19.75,
          "velocity": 0.6692913385826772,
          "duration": 0.5
        },
        {
          "name": "E3",
          "midi": 52,
          "time": 20,
          "velocity": 0.6692913385826772,
          "duration": 0.3125
        },
        {
          "name": "B4",
          "midi": 71,
          "time": 20.25,
          "velocity": 0.6692913385826772,
          "duration": 0.5
        },
        {
          "name": "G3",
          "midi": 55,
          "time": 20.25,
          "velocity": 0.8267716535433071,
          "duration": 0.3874999999999993
        },
        {
          "name": "B3",
          "midi": 59,
          "time": 20.5,
          "velocity": 0.3937007874015748,
          "duration": 0.3874999999999993
        },
        {
          "name": "A4",
          "midi": 69,
          "time": 20.75,
          "velocity": 0.6692913385826772,
          "duration": 0.5
        },
        {
          "name": "E4",
          "midi": 64,
          "time": 20.75,
          "velocity": 0.6692913385826772,
          "duration": 1.25
        },
        {
          "name": "B4",
          "midi": 71,
          "time": 21.25,
          "velocity": 0.6692913385826772,
          "duration": 0.5
        },
        {
          "name": "E4",
          "midi": 64,
          "time": 21.75,
          "velocity": 0.6692913385826772,
          "duration": 1
        },
        {
          "name": "G4",
          "midi": 67,
          "time": 21.75,
          "velocity": 0.6692913385826772,
          "duration": 1
        },
        {
          "name": "C3",
          "midi": 48,
          "time": 22,
          "velocity": 0.6692913385826772,
          "duration": 0.25
        },
        {
          "name": "E3",
          "midi": 52,
          "time": 22.25,
          "velocity": 0.6692913385826772,
          "duration": 0.25
        },
        {
          "name": "G3",
          "midi": 55,
          "time": 22.5,
          "velocity": 0.6692913385826772,
          "duration": 0.25
        },
        {
          "name": "E4",
          "midi": 64,
          "time": 22.75,
          "velocity": 0.6692913385826772,
          "duration": 0.25
        },
        {
          "name": "C4",
          "midi": 60,
          "time": 22.75,
          "velocity": 0.6692913385826772,
          "duration": 1.25
        },
        {
          "name": "F#4",
          "midi": 66,
          "time": 23,
          "velocity": 0.6692913385826772,
          "duration": 0.25
        },
        {
          "name": "G4",
          "midi": 67,
          "time": 23.25,
          "velocity": 0.6692913385826772,
          "duration": 0.5
        },
        {
          "name": "E4",
          "midi": 64,
          "time": 23.75,
          "velocity": 0.6692913385826772,
          "duration": 1.25
        },
        {
          "name": "A4",
          "midi": 69,
          "time": 23.75,
          "velocity": 0.6692913385826772,
          "duration": 1.25
        },
        {
          "name": "C3",
          "midi": 48,
          "time": 24,
          "velocity": 0.6692913385826772,
          "duration": 0.25
        },
        {
          "name": "E3",
          "midi": 52,
          "time": 24.25,
          "velocity": 0.6692913385826772,
          "duration": 0.25
        },
        {
          "name": "G3",
          "midi": 55,
          "time": 24.5,
          "velocity": 0.6692913385826772,
          "duration": 0.25
        },
        {
          "name": "C4",
          "midi": 60,
          "time": 24.75,
          "velocity": 0.6692913385826772,
          "duration": 0.25
        },
        {
          "name": "E4",
          "midi": 64,
          "time": 25,
          "velocity": 0.6692913385826772,
          "duration": 0.25
        },
        {
          "name": "C4",
          "midi": 60,
          "time": 25.25,
          "velocity": 0.6692913385826772,
          "duration": 0.25
        },
        {
          "name": "G3",
          "midi": 55,
          "time": 25.5,
          "velocity": 0.6692913385826772,
          "duration": 0.25
        },
        {
          "name": "E3",
          "midi": 52,
          "time": 25.75,
          "velocity": 0.6692913385826772,
          "duration": 0.25
        },
        {
          "name": "G4",
          "midi": 67,
          "time": 26,
          "velocity": 0.6692913385826772,
          "duration": 1
        },
        {
          "name": "B4",
          "midi": 71,
          "time": 26,
          "velocity": 0.6692913385826772,
          "duration": 1
        },
        {
          "name": "E3",
          "midi": 52,
          "time": 26,
          "velocity": 0.6692913385826772,
          "duration": 0.25
        },
        {
          "name": "G3",
          "midi": 55,
          "time": 26.25,
          "velocity": 0.6692913385826772,
          "duration": 0.25
        },
        {
          "name": "B3",
          "midi": 59,
          "time": 26.5,
          "velocity": 0.6692913385826772,
          "duration": 0.25
        },
        {
          "name": "E4",
          "midi": 64,
          "time": 26.75,
          "velocity": 0.6692913385826772,
          "duration": 1.25
        },
        {
          "name": "A4",
          "midi": 69,
          "time": 27,
          "velocity": 0.6692913385826772,
          "duration": 0.25
        },
        {
          "name": "D5",
          "midi": 74,
          "time": 27.25,
          "velocity": 0.6692913385826772,
          "duration": 0.5
        },
        {
          "name": "G4",
          "midi": 67,
          "time": 27.75,
          "velocity": 0.6692913385826772,
          "duration": 0.5
        },
        {
          "name": "C5",
          "midi": 72,
          "time": 27.75,
          "velocity": 0.6692913385826772,
          "duration": 0.5
        },
        {
          "name": "E3",
          "midi": 52,
          "time": 28,
          "velocity": 0.6692913385826772,
          "duration": 0.25
        },
        {
          "name": "B4",
          "midi": 71,
          "time": 28.25,
          "velocity": 0.6692913385826772,
          "duration": 0.5
        },
        {
          "name": "G3",
          "midi": 55,
          "time": 28.25,
          "velocity": 0.6692913385826772,
          "duration": 0.25
        },
        {
          "name": "B3",
          "midi": 59,
          "time": 28.5,
          "velocity": 0.6692913385826772,
          "duration": 0.25
        },
        {
          "name": "A4",
          "midi": 69,
          "time": 28.75,
          "velocity": 0.6692913385826772,
          "duration": 0.5
        },
        {
          "name": "E4",
          "midi": 64,
          "time": 28.75,
          "velocity": 0.6692913385826772,
          "duration": 1.25
        },
        {
          "name": "B4",
          "midi": 71,
          "time": 29.25,
          "velocity": 0.6692913385826772,
          "duration": 0.5
        },
        {
          "name": "E4",
          "midi": 64,
          "time": 29.75,
          "velocity": 0.6692913385826772,
          "duration": 1
        },
        {
          "name": "G4",
          "midi": 67,
          "time": 29.75,
          "velocity": 0.6692913385826772,
          "duration": 1
        },
        {
          "name": "C3",
          "midi": 48,
          "time": 30,
          "velocity": 0.6692913385826772,
          "duration": 0.25
        },
        {
          "name": "E3",
          "midi": 52,
          "time": 30.25,
          "velocity": 0.6692913385826772,
          "duration": 0.25
        },
        {
          "name": "G3",
          "midi": 55,
          "time": 30.5,
          "velocity": 0.6692913385826772,
          "duration": 0.25
        },
        {
          "name": "E4",
          "midi": 64,
          "time": 30.75,
          "velocity": 0.6692913385826772,
          "duration": 0.25
        },
        {
          "name": "C4",
          "midi": 60,
          "time": 30.75,
          "velocity": 0.6692913385826772,
          "duration": 1.25
        },
        {
          "name": "F#4",
          "midi": 66,
          "time": 31,
          "velocity": 0.6692913385826772,
          "duration": 0.25
        },
        {
          "name": "G4",
          "midi": 67,
          "time": 31.25,
          "velocity": 0.6692913385826772,
          "duration": 0.5
        },
        {
          "name": "E4",
          "midi": 64,
          "time": 31.75,
          "velocity": 0.6692913385826772,
          "duration": 0.5
        },
        {
          "name": "A4",
          "midi": 69,
          "time": 31.75,
          "velocity": 0.6692913385826772,
          "duration": 0.5
        },
        {
          "name": "C3",
          "midi": 48,
          "time": 32,
          "velocity": 0.6692913385826772,
          "duration": 0.25
        },
        {
          "name": "G4",
          "midi": 67,
          "time": 32.25,
          "velocity": 0.6692913385826772,
          "duration": 0.25
        },
        {
          "name": "E3",
          "midi": 52,
          "time": 32.25,
          "velocity": 0.6692913385826772,
          "duration": 0.25
        },
        {
          "name": "F#4",
          "midi": 66,
          "time": 32.5,
          "velocity": 0.6692913385826772,
          "duration": 0.25
        },
        {
          "name": "G3",
          "midi": 55,
          "time": 32.5,
          "velocity": 0.6692913385826772,
          "duration": 0.25
        },
        {
          "name": "G4",
          "midi": 67,
          "time": 32.75,
          "velocity": 0.6692913385826772,
          "duration": 0.25
        },
        {
          "name": "C4",
          "midi": 60,
          "time": 32.75,
          "velocity": 0.6692913385826772,
          "duration": 0.25
        },
        {
          "name": "F#4",
          "midi": 66,
          "time": 33,
          "velocity": 0.6692913385826772,
          "duration": 1
        },
        {
          "name": "C4",
          "midi": 60,
          "time": 33,
          "velocity": 0.6692913385826772,
          "duration": 0.25
        },
        {
          "name": "G3",
          "midi": 55,
          "time": 33.25,
          "velocity": 0.6692913385826772,
          "duration": 0.25
        },
        {
          "name": "E3",
          "midi": 52,
          "time": 33.5,
          "velocity": 0.6692913385826772,
          "duration": 0.25
        },
        {
          "name": "C3",
          "midi": 48,
          "time": 33.75,
          "velocity": 0.6692913385826772,
          "duration": 0.25
        },
        {
          "name": "E2",
          "midi": 40,
          "time": 34,
          "velocity": 0.6692913385826772,
          "duration": 0.25
        },
        {
          "name": "G2",
          "midi": 43,
          "time": 34.25,
          "velocity": 0.6692913385826772,
          "duration": 0.25
        },
        {
          "name": "B2",
          "midi": 47,
          "time": 34.5,
          "velocity": 0.6692913385826772,
          "duration": 0.25
        },
        {
          "name": "E4",
          "midi": 64,
          "time": 34.75,
          "velocity": 0.6692913385826772,
          "duration": 0.25
        },
        {
          "name": "E3",
          "midi": 52,
          "time": 34.75,
          "velocity": 0.6692913385826772,
          "duration": 0.25
        },
        {
          "name": "F#4",
          "midi": 66,
          "time": 35,
          "velocity": 0.6692913385826772,
          "duration": 0.25
        },
        {
          "name": "E3",
          "midi": 52,
          "time": 35,
          "velocity": 0.6692913385826772,
          "duration": 1
        },
        {
          "name": "G4",
          "midi": 67,
          "time": 35.25,
          "velocity": 0.6692913385826772,
          "duration": 0.5
        },
        {
          "name": "E4",
          "midi": 64,
          "time": 35.75,
          "velocity": 0.6692913385826772,
          "duration": 1.25
        },
        {
          "name": "A4",
          "midi": 69,
          "time": 35.75,
          "velocity": 0.6692913385826772,
          "duration": 1.25
        },
        {
          "name": "E2",
          "midi": 40,
          "time": 36,
          "velocity": 0.6692913385826772,
          "duration": 0.25
        },
        {
          "name": "G2",
          "midi": 43,
          "time": 36.25,
          "velocity": 0.6692913385826772,
          "duration": 0.25
        },
        {
          "name": "B2",
          "midi": 47,
          "time": 36.5,
          "velocity": 0.6692913385826772,
          "duration": 0.25
        },
        {
          "name": "E3",
          "midi": 52,
          "time": 36.75,
          "velocity": 0.6692913385826772,
          "duration": 0.25
        },
        {
          "name": "G3",
          "midi": 55,
          "time": 37,
          "velocity": 0.6692913385826772,
          "duration": 0.25
        },
        {
          "name": "E3",
          "midi": 52,
          "time": 37.25,
          "velocity": 0.6692913385826772,
          "duration": 0.25
        },
        {
          "name": "B2",
          "midi": 47,
          "time": 37.5,
          "velocity": 0.6692913385826772,
          "duration": 0.25
        },
        {
          "name": "G2",
          "midi": 43,
          "time": 37.75,
          "velocity": 0.6692913385826772,
          "duration": 0.25
        },
        {
          "name": "C2",
          "midi": 36,
          "time": 38,
          "velocity": 0.6692913385826772,
          "duration": 0.25
        },
        {
          "name": "E2",
          "midi": 40,
          "time": 38.25,
          "velocity": 0.6692913385826772,
          "duration": 0.25
        },
        {
          "name": "G2",
          "midi": 43,
          "time": 38.5,
          "velocity": 0.6692913385826772,
          "duration": 0.25
        },
        {
          "name": "E4",
          "midi": 64,
          "time": 38.75,
          "velocity": 0.6692913385826772,
          "duration": 0.25
        },
        {
          "name": "C3",
          "midi": 48,
          "time": 38.75,
          "velocity": 0.6692913385826772,
          "duration": 1.25
        },
        {
          "name": "F#4",
          "midi": 66,
          "time": 39,
          "velocity": 0.6692913385826772,
          "duration": 0.25
        },
        {
          "name": "G4",
          "midi": 67,
          "time": 39.25,
          "velocity": 0.6692913385826772,
          "duration": 0.5
        },
        {
          "name": "E4",
          "midi": 64,
          "time": 39.75,
          "velocity": 0.6692913385826772,
          "duration": 0.5
        },
        {
          "name": "G4",
          "midi": 67,
          "time": 39.75,
          "velocity": 0.6692913385826772,
          "duration": 0.5
        },
        {
          "name": "C5",
          "midi": 72,
          "time": 39.75,
          "velocity": 0.6692913385826772,
          "duration": 0.5
        },
        {
          "name": "C2",
          "midi": 36,
          "time": 40,
          "velocity": 0.6692913385826772,
          "duration": 0.25
        },
        {
          "name": "G4",
          "midi": 67,
          "time": 40.25,
          "velocity": 0.6692913385826772,
          "duration": 0.5
        },
        {
          "name": "B4",
          "midi": 71,
          "time": 40.25,
          "velocity": 0.6692913385826772,
          "duration": 0.5
        },
        {
          "name": "E2",
          "midi": 40,
          "time": 40.25,
          "velocity": 0.6692913385826772,
          "duration": 0.25
        },
        {
          "name": "G2",
          "midi": 43,
          "time": 40.5,
          "velocity": 0.6692913385826772,
          "duration": 0.25
        },
        {
          "name": "A4",
          "midi": 69,
          "time": 40.75,
          "velocity": 0.6692913385826772,
          "duration": 0.5
        },
        {
          "name": "C3",
          "midi": 48,
          "time": 40.75,
          "velocity": 0.6692913385826772,
          "duration": 1.25
        },
        {
          "name": "C5",
          "midi": 72,
          "time": 41.25,
          "velocity": 0.6692913385826772,
          "duration": 0.5
        },
        {
          "name": "G4",
          "midi": 67,
          "time": 41.75,
          "velocity": 0.6692913385826772,
          "duration": 1
        },
        {
          "name": "B4",
          "midi": 71,
          "time": 41.75,
          "velocity": 0.6692913385826772,
          "duration": 1
        },
        {
          "name": "E2",
          "midi": 40,
          "time": 42,
          "velocity": 0.6692913385826772,
          "duration": 0.25
        },
        {
          "name": "G2",
          "midi": 43,
          "time": 42.25,
          "velocity": 0.6692913385826772,
          "duration": 0.25
        },
        {
          "name": "B2",
          "midi": 47,
          "time": 42.5,
          "velocity": 0.6692913385826772,
          "duration": 0.25
        },
        {
          "name": "B4",
          "midi": 71,
          "time": 42.75,
          "velocity": 0.6692913385826772,
          "duration": 0.25
        },
        {
          "name": "E3",
          "midi": 52,
          "time": 42.75,
          "velocity": 0.6692913385826772,
          "duration": 1.25
        },
        {
          "name": "A4",
          "midi": 69,
          "time": 43,
          "velocity": 0.6692913385826772,
          "duration": 0.25
        },
        {
          "name": "B4",
          "midi": 71,
          "time": 43.25,
          "velocity": 0.6692913385826772,
          "duration": 0.5
        },
        {
          "name": "G4",
          "midi": 67,
          "time": 43.75,
          "velocity": 0.6692913385826772,
          "duration": 0.5
        },
        {
          "name": "C5",
          "midi": 72,
          "time": 43.75,
          "velocity": 0.6692913385826772,
          "duration": 0.5
        },
        {
          "name": "E2",
          "midi": 40,
          "time": 44,
          "velocity": 0.6692913385826772,
          "duration": 0.25
        },
        {
          "name": "B4",
          "midi": 71,
          "time": 44.25,
          "velocity": 0.6692913385826772,
          "duration": 0.5
        },
        {
          "name": "G2",
          "midi": 43,
          "time": 44.25,
          "velocity": 0.6692913385826772,
          "duration": 0.25
        },
        {
          "name": "B2",
          "midi": 47,
          "time": 44.5,
          "velocity": 0.6692913385826772,
          "duration": 0.25
        },
        {
          "name": "A4",
          "midi": 69,
          "time": 44.75,
          "velocity": 0.6692913385826772,
          "duration": 0.5
        },
        {
          "name": "E3",
          "midi": 52,
          "time": 44.75,
          "velocity": 0.6692913385826772,
          "duration": 1.25
        },
        {
          "name": "B4",
          "midi": 71,
          "time": 45.25,
          "velocity": 0.6692913385826772,
          "duration": 0.5
        },
        {
          "name": "E4",
          "midi": 64,
          "time": 45.75,
          "velocity": 0.6692913385826772,
          "duration": 1.25
        },
        {
          "name": "G4",
          "midi": 67,
          "time": 45.75,
          "velocity": 0.6692913385826772,
          "duration": 1.25
        },
        {
          "name": "C2",
          "midi": 36,
          "time": 46,
          "velocity": 0.6692913385826772,
          "duration": 0.25
        },
        {
          "name": "E2",
          "midi": 40,
          "time": 46.25,
          "velocity": 0.6692913385826772,
          "duration": 0.25
        },
        {
          "name": "G2",
          "midi": 43,
          "time": 46.5,
          "velocity": 0.6692913385826772,
          "duration": 0.25
        },
        {
          "name": "C3",
          "midi": 48,
          "time": 46.75,
          "velocity": 0.6692913385826772,
          "duration": 0.5
        },
        {
          "name": "E4",
          "midi": 64,
          "time": 47,
          "velocity": 0.6692913385826772,
          "duration": 1
        },
        {
          "name": "G4",
          "midi": 67,
          "time": 47,
          "velocity": 0.6692913385826772,
          "duration": 1
        },
        {
          "name": "C3",
          "midi": 48,
          "time": 47.25,
          "velocity": 0.6692913385826772,
          "duration": 0.25
        },
        {
          "name": "G2",
          "midi": 43,
          "time": 47.5,
          "velocity": 0.6692913385826772,
          "duration": 0.25
        },
        {
          "name": "E2",
          "midi": 40,
          "time": 47.75,
          "velocity": 0.6692913385826772,
          "duration": 0.25
        },
        {
          "name": "D4",
          "midi": 62,
          "time": 48,
          "velocity": 0.6692913385826772,
          "duration": 1
        },
        {
          "name": "F#4",
          "midi": 66,
          "time": 48,
          "velocity": 0.6692913385826772,
          "duration": 1
        },
        {
          "name": "D2",
          "midi": 38,
          "time": 48,
          "velocity": 0.6692913385826772,
          "duration": 0.25
        },
        {
          "name": "F#2",
          "midi": 42,
          "time": 48.25,
          "velocity": 0.6692913385826772,
          "duration": 0.25
        },
        {
          "name": "A2",
          "midi": 45,
          "time": 48.5,
          "velocity": 0.6692913385826772,
          "duration": 0.25
        },
        {
          "name": "D3",
          "midi": 50,
          "time": 48.75,
          "velocity": 0.6692913385826772,
          "duration": 0.25
        },
        {
          "name": "D4",
          "midi": 62,
          "time": 49,
          "velocity": 0.6692913385826772,
          "duration": 1
        },
        {
          "name": "F#3",
          "midi": 54,
          "time": 49,
          "velocity": 0.6692913385826772,
          "duration": 0.25
        },
        {
          "name": "D3",
          "midi": 50,
          "time": 49.25,
          "velocity": 0.6692913385826772,
          "duration": 0.25
        },
        {
          "name": "A2",
          "midi": 45,
          "time": 49.5,
          "velocity": 0.6692913385826772,
          "duration": 0.25
        },
        {
          "name": "F#2",
          "midi": 42,
          "time": 49.75,
          "velocity": 0.6692913385826772,
          "duration": 0.25
        },
        {
          "name": "B3",
          "midi": 59,
          "time": 50,
          "velocity": 0.6692913385826772,
          "duration": 2
        },
        {
          "name": "E4",
          "midi": 64,
          "time": 50,
          "velocity": 0.6692913385826772,
          "duration": 2
        },
        {
          "name": "E2",
          "midi": 40,
          "time": 50,
          "velocity": 0.6692913385826772,
          "duration": 2
        },
        {
          "name": "G2",
          "midi": 43,
          "time": 50,
          "velocity": 0.6692913385826772,
          "duration": 2
        },
        {
          "name": "B2",
          "midi": 47,
          "time": 50,
          "velocity": 0.6692913385826772,
          "duration": 2
        },
        {
          "name": "E3",
          "midi": 52,
          "time": 52,
          "velocity": 0.6692913385826772,
          "duration": 0.25
        },
        {
          "name": "G3",
          "midi": 55,
          "time": 52.25,
          "velocity": 0.6692913385826772,
          "duration": 0.25
        },
        {
          "name": "B3",
          "midi": 59,
          "time": 52.5,
          "velocity": 0.6692913385826772,
          "duration": 0.25
        },
        {
          "name": "E4",
          "midi": 64,
          "time": 52.75,
          "velocity": 0.6692913385826772,
          "duration": 0.75
        },
        {
          "name": "B4",
          "midi": 71,
          "time": 53,
          "velocity": 0.6692913385826772,
          "duration": 0.25
        },
        {
          "name": "B4",
          "midi": 71,
          "time": 53.25,
          "velocity": 0.6692913385826772,
          "duration": 0.125
        },
        {
          "name": "B4",
          "midi": 71,
          "time": 53.375,
          "velocity": 0.6692913385826772,
          "duration": 0.375
        },
        {
          "name": "E3",
          "midi": 52,
          "time": 53.5,
          "velocity": 0.6692913385826772,
          "duration": 0.5
        },
        {
          "name": "A4",
          "midi": 69,
          "time": 53.75,
          "velocity": 0.6692913385826772,
          "duration": 0.25
        },
        {
          "name": "E4",
          "midi": 64,
          "time": 54,
          "velocity": 0.6692913385826772,
          "duration": 1
        },
        {
          "name": "A4",
          "midi": 69,
          "time": 54,
          "velocity": 0.6692913385826772,
          "duration": 1
        },
        {
          "name": "C3",
          "midi": 48,
          "time": 54,
          "velocity": 0.6692913385826772,
          "duration": 0.25
        },
        {
          "name": "E3",
          "midi": 52,
          "time": 54.25,
          "velocity": 0.6692913385826772,
          "duration": 0.25
        },
        {
          "name": "G3",
          "midi": 55,
          "time": 54.5,
          "velocity": 0.6692913385826772,
          "duration": 0.25
        },
        {
          "name": "C4",
          "midi": 60,
          "time": 54.75,
          "velocity": 0.6692913385826772,
          "duration": 0.75
        },
        {
          "name": "B4",
          "midi": 71,
          "time": 55,
          "velocity": 0.6692913385826772,
          "duration": 0.25
        },
        {
          "name": "B4",
          "midi": 71,
          "time": 55.25,
          "velocity": 0.6692913385826772,
          "duration": 0.125
        },
        {
          "name": "B4",
          "midi": 71,
          "time": 55.375,
          "velocity": 0.6692913385826772,
          "duration": 0.375
        },
        {
          "name": "G3",
          "midi": 55,
          "time": 55.5,
          "velocity": 0.6692913385826772,
          "duration": 0.5
        },
        {
          "name": "A4",
          "midi": 69,
          "time": 55.75,
          "velocity": 0.6692913385826772,
          "duration": 0.25
        },
        {
          "name": "F#4",
          "midi": 66,
          "time": 56,
          "velocity": 0.6692913385826772,
          "duration": 1
        },
        {
          "name": "A4",
          "midi": 69,
          "time": 56,
          "velocity": 0.6692913385826772,
          "duration": 1
        },
        {
          "name": "D3",
          "midi": 50,
          "time": 56,
          "velocity": 0.6692913385826772,
          "duration": 0.25
        },
        {
          "name": "F#3",
          "midi": 54,
          "time": 56.25,
          "velocity": 0.6692913385826772,
          "duration": 0.25
        },
        {
          "name": "A3",
          "midi": 57,
          "time": 56.5,
          "velocity": 0.6692913385826772,
          "duration": 0.25
        },
        {
          "name": "D4",
          "midi": 62,
          "time": 56.75,
          "velocity": 0.6692913385826772,
          "duration": 0.75
        },
        {
          "name": "C5",
          "midi": 72,
          "time": 57,
          "velocity": 0.6692913385826772,
          "duration": 0.25
        },
        {
          "name": "B4",
          "midi": 71,
          "time": 57.25,
          "velocity": 0.6692913385826772,
          "duration": 0.125
        },
        {
          "name": "A4",
          "midi": 69,
          "time": 57.375,
          "velocity": 0.6692913385826772,
          "duration": 0.375
        },
        {
          "name": "D3",
          "midi": 50,
          "time": 57.5,
          "velocity": 0.6692913385826772,
          "duration": 0.5
        },
        {
          "name": "G4",
          "midi": 67,
          "time": 57.75,
          "velocity": 0.6692913385826772,
          "duration": 0.25
        },
        {
          "name": "E4",
          "midi": 64,
          "time": 58,
          "velocity": 0.6692913385826772,
          "duration": 0.5
        },
        {
          "name": "G4",
          "midi": 67,
          "time": 58,
          "velocity": 0.6692913385826772,
          "duration": 0.5
        },
        {
          "name": "C5",
          "midi": 72,
          "time": 58,
          "velocity": 0.6692913385826772,
          "duration": 0.5
        },
        {
          "name": "E3",
          "midi": 52,
          "time": 58,
          "velocity": 0.6692913385826772,
          "duration": 0.25
        },
        {
          "name": "G3",
          "midi": 55,
          "time": 58.25,
          "velocity": 0.6692913385826772,
          "duration": 0.25
        },
        {
          "name": "G4",
          "midi": 67,
          "time": 58.5,
          "velocity": 0.6692913385826772,
          "duration": 0.5
        },
        {
          "name": "B4",
          "midi": 71,
          "time": 58.5,
          "velocity": 0.6692913385826772,
          "duration": 0.5
        },
        {
          "name": "B3",
          "midi": 59,
          "time": 58.5,
          "velocity": 0.6692913385826772,
          "duration": 0.25
        },
        {
          "name": "E4",
          "midi": 64,
          "time": 58.75,
          "velocity": 0.6692913385826772,
          "duration": 1.25
        },
        {
          "name": "A4",
          "midi": 69,
          "time": 59,
          "velocity": 0.6692913385826772,
          "duration": 0.5
        },
        {
          "name": "G4",
          "midi": 67,
          "time": 59.5,
          "velocity": 0.6692913385826772,
          "duration": 0.5
        },
        {
          "name": "B4",
          "midi": 71,
          "time": 59.5,
          "velocity": 0.6692913385826772,
          "duration": 0.5
        },
        {
          "name": "E4",
          "midi": 64,
          "time": 60,
          "velocity": 0.6692913385826772,
          "duration": 1
        },
        {
          "name": "G4",
          "midi": 67,
          "time": 60,
          "velocity": 0.6692913385826772,
          "duration": 1
        },
        {
          "name": "E3",
          "midi": 52,
          "time": 60,
          "velocity": 0.6692913385826772,
          "duration": 0.25
        },
        {
          "name": "G3",
          "midi": 55,
          "time": 60.25,
          "velocity": 0.6692913385826772,
          "duration": 0.25
        },
        {
          "name": "B3",
          "midi": 59,
          "time": 60.5,
          "velocity": 0.6692913385826772,
          "duration": 0.25
        },
        {
          "name": "E4",
          "midi": 64,
          "time": 60.75,
          "velocity": 0.6692913385826772,
          "duration": 0.75
        },
        {
          "name": "B4",
          "midi": 71,
          "time": 61,
          "velocity": 0.6692913385826772,
          "duration": 0.25
        },
        {
          "name": "B4",
          "midi": 71,
          "time": 61.25,
          "velocity": 0.6692913385826772,
          "duration": 0.125
        },
        {
          "name": "B4",
          "midi": 71,
          "time": 61.375,
          "velocity": 0.6692913385826772,
          "duration": 0.375
        },
        {
          "name": "E3",
          "midi": 52,
          "time": 61.5,
          "velocity": 0.6692913385826772,
          "duration": 0.5
        },
        {
          "name": "A4",
          "midi": 69,
          "time": 61.75,
          "velocity": 0.6692913385826772,
          "duration": 0.25
        },
        {
          "name": "E4",
          "midi": 64,
          "time": 62,
          "velocity": 0.6692913385826772,
          "duration": 1
        },
        {
          "name": "A4",
          "midi": 69,
          "time": 62,
          "velocity": 0.6692913385826772,
          "duration": 1
        },
        {
          "name": "C3",
          "midi": 48,
          "time": 62,
          "velocity": 0.6692913385826772,
          "duration": 0.25
        },
        {
          "name": "E3",
          "midi": 52,
          "time": 62.25,
          "velocity": 0.6692913385826772,
          "duration": 0.25
        },
        {
          "name": "G3",
          "midi": 55,
          "time": 62.5,
          "velocity": 0.6692913385826772,
          "duration": 0.25
        },
        {
          "name": "C4",
          "midi": 60,
          "time": 62.75,
          "velocity": 0.6692913385826772,
          "duration": 0.75
        },
        {
          "name": "B4",
          "midi": 71,
          "time": 63,
          "velocity": 0.6692913385826772,
          "duration": 0.25
        },
        {
          "name": "B4",
          "midi": 71,
          "time": 63.25,
          "velocity": 0.6692913385826772,
          "duration": 0.125
        },
        {
          "name": "B4",
          "midi": 71,
          "time": 63.375,
          "velocity": 0.6692913385826772,
          "duration": 0.375
        },
        {
          "name": "G3",
          "midi": 55,
          "time": 63.5,
          "velocity": 0.6692913385826772,
          "duration": 0.5
        },
        {
          "name": "A4",
          "midi": 69,
          "time": 63.75,
          "velocity": 0.6692913385826772,
          "duration": 0.25
        },
        {
          "name": "F#4",
          "midi": 66,
          "time": 64,
          "velocity": 0.6692913385826772,
          "duration": 1
        },
        {
          "name": "A4",
          "midi": 69,
          "time": 64,
          "velocity": 0.6692913385826772,
          "duration": 1
        },
        {
          "name": "D3",
          "midi": 50,
          "time": 64,
          "velocity": 0.6692913385826772,
          "duration": 0.25
        },
        {
          "name": "F#3",
          "midi": 54,
          "time": 64.25,
          "velocity": 0.6692913385826772,
          "duration": 0.25
        },
        {
          "name": "A3",
          "midi": 57,
          "time": 64.5,
          "velocity": 0.6692913385826772,
          "duration": 0.25
        },
        {
          "name": "D4",
          "midi": 62,
          "time": 64.75,
          "velocity": 0.6692913385826772,
          "duration": 0.75
        },
        {
          "name": "C5",
          "midi": 72,
          "time": 65,
          "velocity": 0.6692913385826772,
          "duration": 0.25
        },
        {
          "name": "B4",
          "midi": 71,
          "time": 65.25,
          "velocity": 0.6692913385826772,
          "duration": 0.125
        },
        {
          "name": "A4",
          "midi": 69,
          "time": 65.375,
          "velocity": 0.6692913385826772,
          "duration": 0.375
        },
        {
          "name": "D3",
          "midi": 50,
          "time": 65.5,
          "velocity": 0.6692913385826772,
          "duration": 0.5
        },
        {
          "name": "G4",
          "midi": 67,
          "time": 65.75,
          "velocity": 0.6692913385826772,
          "duration": 0.25
        },
        {
          "name": "G4",
          "midi": 67,
          "time": 66,
          "velocity": 0.6692913385826772,
          "duration": 0.5
        },
        {
          "name": "C5",
          "midi": 72,
          "time": 66,
          "velocity": 0.6692913385826772,
          "duration": 0.5
        },
        {
          "name": "E3",
          "midi": 52,
          "time": 66,
          "velocity": 0.6692913385826772,
          "duration": 0.25
        },
        {
          "name": "G3",
          "midi": 55,
          "time": 66.25,
          "velocity": 0.6692913385826772,
          "duration": 0.25
        },
        {
          "name": "G4",
          "midi": 67,
          "time": 66.5,
          "velocity": 0.6692913385826772,
          "duration": 0.5
        },
        {
          "name": "B4",
          "midi": 71,
          "time": 66.5,
          "velocity": 0.6692913385826772,
          "duration": 0.5
        },
        {
          "name": "B3",
          "midi": 59,
          "time": 66.5,
          "velocity": 0.6692913385826772,
          "duration": 0.25
        },
        {
          "name": "E4",
          "midi": 64,
          "time": 66.75,
          "velocity": 0.6692913385826772,
          "duration": 1.25
        },
        {
          "name": "A4",
          "midi": 69,
          "time": 67,
          "velocity": 0.6692913385826772,
          "duration": 0.5
        },
        {
          "name": "G4",
          "midi": 67,
          "time": 67.5,
          "velocity": 0.6692913385826772,
          "duration": 0.5
        },
        {
          "name": "B4",
          "midi": 71,
          "time": 67.5,
          "velocity": 0.6692913385826772,
          "duration": 0.5
        },
        {
          "name": "E4",
          "midi": 64,
          "time": 68,
          "velocity": 0.6692913385826772,
          "duration": 2
        },
        {
          "name": "E3",
          "midi": 52,
          "time": 68,
          "velocity": 0.6692913385826772,
          "duration": 2
        },
        {
          "name": "G3",
          "midi": 55,
          "time": 68,
          "velocity": 0.6692913385826772,
          "duration": 2
        },
        {
          "name": "B3",
          "midi": 59,
          "time": 68,
          "velocity": 0.6692913385826772,
          "duration": 2
        },
        {
          "name": "G4",
          "midi": 67,
          "time": 70,
          "velocity": 0.6692913385826772,
          "duration": 1
        },
        {
          "name": "B4",
          "midi": 71,
          "time": 70,
          "velocity": 0.6692913385826772,
          "duration": 1
        },
        {
          "name": "E3",
          "midi": 52,
          "time": 70,
          "velocity": 0.6692913385826772,
          "duration": 0.25
        },
        {
          "name": "G3",
          "midi": 55,
          "time": 70.25,
          "velocity": 0.6692913385826772,
          "duration": 0.25
        },
        {
          "name": "B3",
          "midi": 59,
          "time": 70.5,
          "velocity": 0.6692913385826772,
          "duration": 0.25
        },
        {
          "name": "E4",
          "midi": 64,
          "time": 70.75,
          "velocity": 0.6692913385826772,
          "duration": 1.25
        },
        {
          "name": "A4",
          "midi": 69,
          "time": 71,
          "velocity": 0.6692913385826772,
          "duration": 0.25
        },
        {
          "name": "B4",
          "midi": 71,
          "time": 71.25,
          "velocity": 0.6692913385826772,
          "duration": 0.5
        },
        {
          "name": "G4",
          "midi": 67,
          "time": 71.75,
          "velocity": 0.6692913385826772,
          "duration": 0.5
        },
        {
          "name": "C5",
          "midi": 72,
          "time": 71.75,
          "velocity": 0.6692913385826772,
          "duration": 0.5
        },
        {
          "name": "E3",
          "midi": 52,
          "time": 72,
          "velocity": 0.6692913385826772,
          "duration": 0.25
        },
        {
          "name": "B4",
          "midi": 71,
          "time": 72.25,
          "velocity": 0.6692913385826772,
          "duration": 0.5
        },
        {
          "name": "G3",
          "midi": 55,
          "time": 72.25,
          "velocity": 0.6692913385826772,
          "duration": 0.25
        },
        {
          "name": "B3",
          "midi": 59,
          "time": 72.5,
          "velocity": 0.6692913385826772,
          "duration": 0.25
        },
        {
          "name": "A4",
          "midi": 69,
          "time": 72.75,
          "velocity": 0.6692913385826772,
          "duration": 0.5
        },
        {
          "name": "E4",
          "midi": 64,
          "time": 72.75,
          "velocity": 0.6692913385826772,
          "duration": 1.25
        },
        {
          "name": "B4",
          "midi": 71,
          "time": 73.25,
          "velocity": 0.6692913385826772,
          "duration": 0.5
        },
        {
          "name": "E4",
          "midi": 64,
          "time": 73.75,
          "velocity": 0.6692913385826772,
          "duration": 1
        },
        {
          "name": "G4",
          "midi": 67,
          "time": 73.75,
          "velocity": 0.6692913385826772,
          "duration": 1
        },
        {
          "name": "C3",
          "midi": 48,
          "time": 74,
          "velocity": 0.6692913385826772,
          "duration": 0.25
        },
        {
          "name": "E3",
          "midi": 52,
          "time": 74.25,
          "velocity": 0.6692913385826772,
          "duration": 0.25
        },
        {
          "name": "G3",
          "midi": 55,
          "time": 74.5,
          "velocity": 0.6692913385826772,
          "duration": 0.25
        },
        {
          "name": "E4",
          "midi": 64,
          "time": 74.75,
          "velocity": 0.6692913385826772,
          "duration": 0.25
        },
        {
          "name": "C4",
          "midi": 60,
          "time": 74.75,
          "velocity": 0.6692913385826772,
          "duration": 1.25
        },
        {
          "name": "F#4",
          "midi": 66,
          "time": 75,
          "velocity": 0.6692913385826772,
          "duration": 0.25
        },
        {
          "name": "G4",
          "midi": 67,
          "time": 75.25,
          "velocity": 0.6692913385826772,
          "duration": 0.5
        },
        {
          "name": "E4",
          "midi": 64,
          "time": 75.75,
          "velocity": 0.6692913385826772,
          "duration": 0.5
        },
        {
          "name": "A4",
          "midi": 69,
          "time": 75.75,
          "velocity": 0.6692913385826772,
          "duration": 0.5
        },
        {
          "name": "C3",
          "midi": 48,
          "time": 76,
          "velocity": 0.6692913385826772,
          "duration": 0.25
        },
        {
          "name": "G4",
          "midi": 67,
          "time": 76.25,
          "velocity": 0.6692913385826772,
          "duration": 0.5
        },
        {
          "name": "E3",
          "midi": 52,
          "time": 76.25,
          "velocity": 0.6692913385826772,
          "duration": 0.25
        },
        {
          "name": "G3",
          "midi": 55,
          "time": 76.5,
          "velocity": 0.6692913385826772,
          "duration": 0.25
        },
        {
          "name": "F#4",
          "midi": 66,
          "time": 76.75,
          "velocity": 0.6692913385826772,
          "duration": 0.5
        },
        {
          "name": "C4",
          "midi": 60,
          "time": 76.75,
          "velocity": 0.6692913385826772,
          "duration": 1.25
        },
        {
          "name": "E4",
          "midi": 64,
          "time": 77.25,
          "velocity": 0.6692913385826772,
          "duration": 0.5
        },
        {
          "name": "G4",
          "midi": 67,
          "time": 77.25,
          "velocity": 0.6692913385826772,
          "duration": 0.5
        },
        {
          "name": "C5",
          "midi": 72,
          "time": 77.25,
          "velocity": 0.6692913385826772,
          "duration": 0.5
        },
        {
          "name": "G4",
          "midi": 67,
          "time": 77.75,
          "velocity": 0.6692913385826772,
          "duration": 1.25
        },
        {
          "name": "B4",
          "midi": 71,
          "time": 77.75,
          "velocity": 0.6692913385826772,
          "duration": 1.25
        },
        {
          "name": "E3",
          "midi": 52,
          "time": 78,
          "velocity": 0.6692913385826772,
          "duration": 0.25
        },
        {
          "name": "G3",
          "midi": 55,
          "time": 78.25,
          "velocity": 0.6692913385826772,
          "duration": 0.25
        },
        {
          "name": "B3",
          "midi": 59,
          "time": 78.5,
          "velocity": 0.6692913385826772,
          "duration": 0.25
        },
        {
          "name": "E4",
          "midi": 64,
          "time": 78.75,
          "velocity": 0.6692913385826772,
          "duration": 1.25
        },
        {
          "name": "A4",
          "midi": 69,
          "time": 79,
          "velocity": 0.6692913385826772,
          "duration": 0.25
        },
        {
          "name": "D5",
          "midi": 74,
          "time": 79.25,
          "velocity": 0.6692913385826772,
          "duration": 0.5
        },
        {
          "name": "G4",
          "midi": 67,
          "time": 79.75,
          "velocity": 0.6692913385826772,
          "duration": 0.375
        },
        {
          "name": "C5",
          "midi": 72,
          "time": 79.75,
          "velocity": 0.6692913385826772,
          "duration": 0.375
        },
        {
          "name": "E3",
          "midi": 52,
          "time": 80,
          "velocity": 0.6692913385826772,
          "duration": 0.25
        },
        {
          "name": "B4",
          "midi": 71,
          "time": 80.25,
          "velocity": 0.6692913385826772,
          "duration": 0.5
        },
        {
          "name": "G3",
          "midi": 55,
          "time": 80.25,
          "velocity": 0.6692913385826772,
          "duration": 0.25
        },
        {
          "name": "B3",
          "midi": 59,
          "time": 80.5,
          "velocity": 0.6692913385826772,
          "duration": 0.25
        },
        {
          "name": "A4",
          "midi": 69,
          "time": 80.75,
          "velocity": 0.6692913385826772,
          "duration": 0.5
        },
        {
          "name": "E4",
          "midi": 64,
          "time": 80.75,
          "velocity": 0.6692913385826772,
          "duration": 1.25
        },
        {
          "name": "B4",
          "midi": 71,
          "time": 81.25,
          "velocity": 0.6692913385826772,
          "duration": 0.5
        },
        {
          "name": "E4",
          "midi": 64,
          "time": 81.75,
          "velocity": 0.6692913385826772,
          "duration": 1.25
        },
        {
          "name": "G4",
          "midi": 67,
          "time": 81.75,
          "velocity": 0.6692913385826772,
          "duration": 1.25
        },
        {
          "name": "C2",
          "midi": 36,
          "time": 82,
          "velocity": 0.6692913385826772,
          "duration": 0.25
        },
        {
          "name": "E2",
          "midi": 40,
          "time": 82.25,
          "velocity": 0.6692913385826772,
          "duration": 0.25
        },
        {
          "name": "G2",
          "midi": 43,
          "time": 82.5,
          "velocity": 0.6692913385826772,
          "duration": 0.25
        },
        {
          "name": "C3",
          "midi": 48,
          "time": 82.75,
          "velocity": 0.6692913385826772,
          "duration": 0.5
        },
        {
          "name": "E4",
          "midi": 64,
          "time": 83,
          "velocity": 0.6692913385826772,
          "duration": 1
        },
        {
          "name": "G4",
          "midi": 67,
          "time": 83,
          "velocity": 0.6692913385826772,
          "duration": 1
        },
        {
          "name": "C3",
          "midi": 48,
          "time": 83.25,
          "velocity": 0.6692913385826772,
          "duration": 0.25
        },
        {
          "name": "G2",
          "midi": 43,
          "time": 83.5,
          "velocity": 0.6692913385826772,
          "duration": 0.25
        },
        {
          "name": "E2",
          "midi": 40,
          "time": 83.75,
          "velocity": 0.6692913385826772,
          "duration": 0.25
        },
        {
          "name": "D4",
          "midi": 62,
          "time": 84,
          "velocity": 0.6692913385826772,
          "duration": 1.75
        },
        {
          "name": "F#4",
          "midi": 66,
          "time": 84,
          "velocity": 0.6692913385826772,
          "duration": 1.75
        },
        {
          "name": "D2",
          "midi": 38,
          "time": 84,
          "velocity": 0.6692913385826772,
          "duration": 0.25
        },
        {
          "name": "F#2",
          "midi": 42,
          "time": 84.25,
          "velocity": 0.6692913385826772,
          "duration": 0.25
        },
        {
          "name": "A2",
          "midi": 45,
          "time": 84.5,
          "velocity": 0.6692913385826772,
          "duration": 0.25
        },
        {
          "name": "D3",
          "midi": 50,
          "time": 84.75,
          "velocity": 0.6692913385826772,
          "duration": 0.25
        },
        {
          "name": "F#3",
          "midi": 54,
          "time": 85,
          "velocity": 0.6692913385826772,
          "duration": 0.25
        },
        {
          "name": "D3",
          "midi": 50,
          "time": 85.25,
          "velocity": 0.6692913385826772,
          "duration": 0.25
        },
        {
          "name": "A2",
          "midi": 45,
          "time": 85.5,
          "velocity": 0.6692913385826772,
          "duration": 0.25
        },
        {
          "name": "E4",
          "midi": 64,
          "time": 85.75,
          "velocity": 0.6692913385826772,
          "duration": 0.25
        },
        {
          "name": "F#2",
          "midi": 42,
          "time": 85.75,
          "velocity": 0.6692913385826772,
          "duration": 0.25
        },
        {
          "name": "B3",
          "midi": 59,
          "time": 86,
          "velocity": 0.6692913385826772,
          "duration": 2
        },
        {
          "name": "E4",
          "midi": 64,
          "time": 86,
          "velocity": 0.6692913385826772,
          "duration": 2
        },
        {
          "name": "E2",
          "midi": 40,
          "time": 86,
          "velocity": 0.6692913385826772,
          "duration": 2
        },
        {
          "name": "G2",
          "midi": 43,
          "time": 86,
          "velocity": 0.6692913385826772,
          "duration": 2
        },
        {
          "name": "B2",
          "midi": 47,
          "time": 86,
          "velocity": 0.6692913385826772,
          "duration": 2
        },
        {
          "name": "C2",
          "midi": 36,
          "time": 88,
          "velocity": 0.6692913385826772,
          "duration": 0.25
        },
        {
          "name": "G2",
          "midi": 43,
          "time": 88.25,
          "velocity": 0.6692913385826772,
          "duration": 0.25
        },
        {
          "name": "C3",
          "midi": 48,
          "time": 88.5,
          "velocity": 0.6692913385826772,
          "duration": 0.25
        },
        {
          "name": "E3",
          "midi": 52,
          "time": 88.75,
          "velocity": 0.6692913385826772,
          "duration": 0.25
        },
        {
          "name": "C4",
          "midi": 60,
          "time": 89,
          "velocity": 0.6692913385826772,
          "duration": 1
        },
        {
          "name": "E4",
          "midi": 64,
          "time": 89,
          "velocity": 0.6692913385826772,
          "duration": 1
        },
        {
          "name": "G4",
          "midi": 67,
          "time": 89,
          "velocity": 0.6692913385826772,
          "duration": 1
        },
        {
          "name": "G3",
          "midi": 55,
          "time": 89,
          "velocity": 0.6692913385826772,
          "duration": 0.25
        },
        {
          "name": "E3",
          "midi": 52,
          "time": 89.25,
          "velocity": 0.6692913385826772,
          "duration": 0.25
        },
        {
          "name": "C3",
          "midi": 48,
          "time": 89.5,
          "velocity": 0.6692913385826772,
          "duration": 0.25
        },
        {
          "name": "G2",
          "midi": 43,
          "time": 89.75,
          "velocity": 0.6692913385826772,
          "duration": 0.25
        },
        {
          "name": "D4",
          "midi": 62,
          "time": 90,
          "velocity": 0.6692913385826772,
          "duration": 1
        },
        {
          "name": "F#4",
          "midi": 66,
          "time": 90,
          "velocity": 0.6692913385826772,
          "duration": 1
        },
        {
          "name": "D2",
          "midi": 38,
          "time": 90,
          "velocity": 0.6692913385826772,
          "duration": 0.25
        },
        {
          "name": "A2",
          "midi": 45,
          "time": 90.25,
          "velocity": 0.6692913385826772,
          "duration": 0.25
        },
        {
          "name": "D3",
          "midi": 50,
          "time": 90.5,
          "velocity": 0.6692913385826772,
          "duration": 0.25
        },
        {
          "name": "F#3",
          "midi": 54,
          "time": 90.75,
          "velocity": 0.6692913385826772,
          "duration": 0.25
        },
        {
          "name": "D4",
          "midi": 62,
          "time": 91,
          "velocity": 0.6692913385826772,
          "duration": 1
        },
        {
          "name": "A3",
          "midi": 57,
          "time": 91,
          "velocity": 0.6692913385826772,
          "duration": 0.25
        },
        {
          "name": "F#3",
          "midi": 54,
          "time": 91.25,
          "velocity": 0.6692913385826772,
          "duration": 0.25
        },
        {
          "name": "D3",
          "midi": 50,
          "time": 91.5,
          "velocity": 0.6692913385826772,
          "duration": 0.25
        },
        {
          "name": "A2",
          "midi": 45,
          "time": 91.75,
          "velocity": 0.6692913385826772,
          "duration": 0.25
        },
        {
          "name": "B3",
          "midi": 59,
          "time": 92,
          "velocity": 0.6692913385826772,
          "duration": 2
        },
        {
          "name": "E4",
          "midi": 64,
          "time": 92,
          "velocity": 0.6692913385826772,
          "duration": 2
        },
        {
          "name": "E2",
          "midi": 40,
          "time": 92,
          "velocity": 0.6692913385826772,
          "duration": 0.25
        },
        {
          "name": "G2",
          "midi": 43,
          "time": 92.25,
          "velocity": 0.6692913385826772,
          "duration": 0.25
        },
        {
          "name": "B2",
          "midi": 47,
          "time": 92.5,
          "velocity": 0.6692913385826772,
          "duration": 0.25
        },
        {
          "name": "E3",
          "midi": 52,
          "time": 92.75,
          "velocity": 0.6692913385826772,
          "duration": 0.25
        },
        {
          "name": "G3",
          "midi": 55,
          "time": 93,
          "velocity": 0.6692913385826772,
          "duration": 0.25
        },
        {
          "name": "E3",
          "midi": 52,
          "time": 93.25,
          "velocity": 0.6692913385826772,
          "duration": 0.25
        },
        {
          "name": "B2",
          "midi": 47,
          "time": 93.5,
          "velocity": 0.6692913385826772,
          "duration": 0.25
        },
        {
          "name": "G2",
          "midi": 43,
          "time": 93.75,
          "velocity": 0.6692913385826772,
          "duration": 0.25
        },
        {
          "name": "E2",
          "midi": 40,
          "time": 94,
          "velocity": 0.6692913385826772,
          "duration": 0.25
        },
        {
          "name": "G2",
          "midi": 43,
          "time": 94.25,
          "velocity": 0.6692913385826772,
          "duration": 0.25
        },
        {
          "name": "B2",
          "midi": 47,
          "time": 94.5,
          "velocity": 0.6692913385826772,
          "duration": 0.25
        },
        {
          "name": "E3",
          "midi": 52,
          "time": 94.75,
          "velocity": 0.6692913385826772,
          "duration": 0.25
        },
        {
          "name": "G3",
          "midi": 55,
          "time": 95,
          "velocity": 0.6692913385826772,
          "duration": 0.25
        },
        {
          "name": "E3",
          "midi": 52,
          "time": 95.25,
          "velocity": 0.6692913385826772,
          "duration": 0.25
        },
        {
          "name": "B2",
          "midi": 47,
          "time": 95.5,
          "velocity": 0.6692913385826772,
          "duration": 0.25
        },
        {
          "name": "G2",
          "midi": 43,
          "time": 95.75,
          "velocity": 0.6692913385826772,
          "duration": 0.25
        },
        {
          "name": "C2",
          "midi": 36,
          "time": 96,
          "velocity": 0.6692913385826772,
          "duration": 0.25
        },
        {
          "name": "G2",
          "midi": 43,
          "time": 96.25,
          "velocity": 0.6692913385826772,
          "duration": 0.25
        },
        {
          "name": "C3",
          "midi": 48,
          "time": 96.5,
          "velocity": 0.6692913385826772,
          "duration": 0.25
        },
        {
          "name": "E3",
          "midi": 52,
          "time": 96.75,
          "velocity": 0.6692913385826772,
          "duration": 0.25
        },
        {
          "name": "C4",
          "midi": 60,
          "time": 97,
          "velocity": 0.6692913385826772,
          "duration": 1
        },
        {
          "name": "E4",
          "midi": 64,
          "time": 97,
          "velocity": 0.6692913385826772,
          "duration": 1
        },
        {
          "name": "G4",
          "midi": 67,
          "time": 97,
          "velocity": 0.6692913385826772,
          "duration": 1
        },
        {
          "name": "G3",
          "midi": 55,
          "time": 97,
          "velocity": 0.6692913385826772,
          "duration": 0.25
        },
        {
          "name": "E3",
          "midi": 52,
          "time": 97.25,
          "velocity": 0.6692913385826772,
          "duration": 0.25
        },
        {
          "name": "C3",
          "midi": 48,
          "time": 97.5,
          "velocity": 0.6692913385826772,
          "duration": 0.25
        },
        {
          "name": "G2",
          "midi": 43,
          "time": 97.75,
          "velocity": 0.6692913385826772,
          "duration": 0.25
        },
        {
          "name": "D4",
          "midi": 62,
          "time": 98,
          "velocity": 0.6692913385826772,
          "duration": 1
        },
        {
          "name": "F#4",
          "midi": 66,
          "time": 98,
          "velocity": 0.6692913385826772,
          "duration": 1
        },
        {
          "name": "A4",
          "midi": 69,
          "time": 98,
          "velocity": 0.6692913385826772,
          "duration": 1
        },
        {
          "name": "D2",
          "midi": 38,
          "time": 98,
          "velocity": 0.6692913385826772,
          "duration": 0.25
        },
        {
          "name": "A2",
          "midi": 45,
          "time": 98.25,
          "velocity": 0.6692913385826772,
          "duration": 0.25
        },
        {
          "name": "D3",
          "midi": 50,
          "time": 98.5,
          "velocity": 0.6692913385826772,
          "duration": 0.25
        },
        {
          "name": "F#3",
          "midi": 54,
          "time": 98.75,
          "velocity": 0.6692913385826772,
          "duration": 0.25
        },
        {
          "name": "D4",
          "midi": 62,
          "time": 99,
          "velocity": 0.6692913385826772,
          "duration": 1
        },
        {
          "name": "G4",
          "midi": 67,
          "time": 99,
          "velocity": 0.6692913385826772,
          "duration": 1
        },
        {
          "name": "A3",
          "midi": 57,
          "time": 99,
          "velocity": 0.6692913385826772,
          "duration": 0.25
        },
        {
          "name": "F#3",
          "midi": 54,
          "time": 99.25,
          "velocity": 0.6692913385826772,
          "duration": 0.25
        },
        {
          "name": "D3",
          "midi": 50,
          "time": 99.5,
          "velocity": 0.6692913385826772,
          "duration": 0.25
        },
        {
          "name": "A2",
          "midi": 45,
          "time": 99.75,
          "velocity": 0.6692913385826772,
          "duration": 0.25
        },
        {
          "name": "B3",
          "midi": 59,
          "time": 100,
          "velocity": 0.6692913385826772,
          "duration": 2
        },
        {
          "name": "E4",
          "midi": 64,
          "time": 100,
          "velocity": 0.6692913385826772,
          "duration": 2
        },
        {
          "name": "E2",
          "midi": 40,
          "time": 100,
          "velocity": 0.6692913385826772,
          "duration": 0.25
        },
        {
          "name": "G2",
          "midi": 43,
          "time": 100.25,
          "velocity": 0.6692913385826772,
          "duration": 0.25
        },
        {
          "name": "B2",
          "midi": 47,
          "time": 100.5,
          "velocity": 0.6692913385826772,
          "duration": 0.25
        },
        {
          "name": "E3",
          "midi": 52,
          "time": 100.75,
          "velocity": 0.6692913385826772,
          "duration": 0.25
        },
        {
          "name": "G3",
          "midi": 55,
          "time": 101,
          "velocity": 0.6692913385826772,
          "duration": 0.25
        },
        {
          "name": "E3",
          "midi": 52,
          "time": 101.25,
          "velocity": 0.6692913385826772,
          "duration": 0.25
        },
        {
          "name": "B2",
          "midi": 47,
          "time": 101.5,
          "velocity": 0.6692913385826772,
          "duration": 0.25
        },
        {
          "name": "G2",
          "midi": 43,
          "time": 101.75,
          "velocity": 0.6692913385826772,
          "duration": 0.25
        },
        {
          "name": "E4",
          "midi": 64,
          "time": 102,
          "velocity": 0.6692913385826772,
          "duration": 0.5
        },
        {
          "name": "E2",
          "midi": 40,
          "time": 102,
          "velocity": 0.6692913385826772,
          "duration": 0.5
        },
        {
          "name": "F#4",
          "midi": 66,
          "time": 102.5,
          "velocity": 0.6692913385826772,
          "duration": 0.5
        },
        {
          "name": "F#2",
          "midi": 42,
          "time": 102.5,
          "velocity": 0.6692913385826772,
          "duration": 0.5
        },
        {
          "name": "G4",
          "midi": 67,
          "time": 103,
          "velocity": 0.6692913385826772,
          "duration": 0.5
        },
        {
          "name": "G2",
          "midi": 43,
          "time": 103,
          "velocity": 0.6692913385826772,
          "duration": 0.5
        },
        {
          "name": "B4",
          "midi": 71,
          "time": 103.5,
          "velocity": 0.6692913385826772,
          "duration": 0.5
        },
        {
          "name": "B2",
          "midi": 47,
          "time": 103.5,
          "velocity": 0.6692913385826772,
          "duration": 0.5
        },
        {
          "name": "E4",
          "midi": 64,
          "time": 104,
          "velocity": 0.6692913385826772,
          "duration": 1
        },
        {
          "name": "A4",
          "midi": 69,
          "time": 104,
          "velocity": 0.6692913385826772,
          "duration": 1
        },
        {
          "name": "C5",
          "midi": 72,
          "time": 104,
          "velocity": 0.6692913385826772,
          "duration": 1
        },
        {
          "name": "A2",
          "midi": 45,
          "time": 104,
          "velocity": 0.6692913385826772,
          "duration": 0.75
        },
        {
          "name": "C3",
          "midi": 48,
          "time": 104.75,
          "velocity": 0.6692913385826772,
          "duration": 0.25
        },
        {
          "name": "E3",
          "midi": 52,
          "time": 105,
          "velocity": 0.6692913385826772,
          "duration": 1
        },
        {
          "name": "A3",
          "midi": 57,
          "time": 105,
          "velocity": 0.6692913385826772,
          "duration": 1
        },
        {
          "name": "B4",
          "midi": 71,
          "time": 105.25,
          "velocity": 0.6692913385826772,
          "duration": 0.25
        },
        {
          "name": "A4",
          "midi": 69,
          "time": 105.5,
          "velocity": 0.6692913385826772,
          "duration": 0.25
        },
        {
          "name": "G4",
          "midi": 67,
          "time": 105.75,
          "velocity": 0.6692913385826772,
          "duration": 0.75
        },
        {
          "name": "B4",
          "midi": 71,
          "time": 105.75,
          "velocity": 0.6692913385826772,
          "duration": 0.75
        },
        {
          "name": "G2",
          "midi": 43,
          "time": 106,
          "velocity": 0.6692913385826772,
          "duration": 0.75
        },
        {
          "name": "G4",
          "midi": 67,
          "time": 106.5,
          "velocity": 0.6692913385826772,
          "duration": 0.25
        },
        {
          "name": "A4",
          "midi": 69,
          "time": 106.75,
          "velocity": 0.6692913385826772,
          "duration": 0.5
        },
        {
          "name": "B2",
          "midi": 47,
          "time": 106.75,
          "velocity": 0.6692913385826772,
          "duration": 0.25
        },
        {
          "name": "D3",
          "midi": 50,
          "time": 107,
          "velocity": 0.6692913385826772,
          "duration": 1
        },
        {
          "name": "G3",
          "midi": 55,
          "time": 107,
          "velocity": 0.6692913385826772,
          "duration": 1
        },
        {
          "name": "B4",
          "midi": 71,
          "time": 107.25,
          "velocity": 0.6692913385826772,
          "duration": 0.5
        },
        {
          "name": "F#4",
          "midi": 66,
          "time": 107.75,
          "velocity": 0.6692913385826772,
          "duration": 0.75
        },
        {
          "name": "A4",
          "midi": 69,
          "time": 107.75,
          "velocity": 0.6692913385826772,
          "duration": 0.75
        },
        {
          "name": "F#2",
          "midi": 42,
          "time": 108,
          "velocity": 0.6692913385826772,
          "duration": 0.75
        },
        {
          "name": "G4",
          "midi": 67,
          "time": 108.5,
          "velocity": 0.6692913385826772,
          "duration": 0.25
        },
        {
          "name": "A4",
          "midi": 69,
          "time": 108.75,
          "velocity": 0.6692913385826772,
          "duration": 0.5
        },
        {
          "name": "A2",
          "midi": 45,
          "time": 108.75,
          "velocity": 0.6692913385826772,
          "duration": 0.25
        },
        {
          "name": "F#3",
          "midi": 54,
          "time": 109,
          "velocity": 0.6692913385826772,
          "duration": 1
        },
        {
          "name": "A3",
          "midi": 57,
          "time": 109,
          "velocity": 0.6692913385826772,
          "duration": 1
        },
        {
          "name": "B4",
          "midi": 71,
          "time": 109.25,
          "velocity": 0.6692913385826772,
          "duration": 0.5
        },
        {
          "name": "E4",
          "midi": 64,
          "time": 109.75,
          "velocity": 0.6692913385826772,
          "duration": 1
        },
        {
          "name": "G4",
          "midi": 67,
          "time": 109.75,
          "velocity": 0.6692913385826772,
          "duration": 1
        },
        {
          "name": "B4",
          "midi": 71,
          "time": 109.75,
          "velocity": 0.6692913385826772,
          "duration": 1
        },
        {
          "name": "E2",
          "midi": 40,
          "time": 110,
          "velocity": 0.6692913385826772,
          "duration": 0.5
        },
        {
          "name": "F#2",
          "midi": 42,
          "time": 110.5,
          "velocity": 0.6692913385826772,
          "duration": 0.5
        },
        {
          "name": "A4",
          "midi": 69,
          "time": 110.75,
          "velocity": 0.6692913385826772,
          "duration": 0.5
        },
        {
          "name": "G2",
          "midi": 43,
          "time": 111,
          "velocity": 0.6692913385826772,
          "duration": 0.5
        },
        {
          "name": "B4",
          "midi": 71,
          "time": 111.25,
          "velocity": 0.6692913385826772,
          "duration": 0.75
        },
        {
          "name": "B2",
          "midi": 47,
          "time": 111.5,
          "velocity": 0.6692913385826772,
          "duration": 0.5
        },
        {
          "name": "E4",
          "midi": 64,
          "time": 112,
          "velocity": 0.6692913385826772,
          "duration": 1
        },
        {
          "name": "A4",
          "midi": 69,
          "time": 112,
          "velocity": 0.6692913385826772,
          "duration": 1
        },
        {
          "name": "C5",
          "midi": 72,
          "time": 112,
          "velocity": 0.6692913385826772,
          "duration": 1
        },
        {
          "name": "A2",
          "midi": 45,
          "time": 112,
          "velocity": 0.6692913385826772,
          "duration": 0.75
        },
        {
          "name": "C3",
          "midi": 48,
          "time": 112.75,
          "velocity": 0.6692913385826772,
          "duration": 0.25
        },
        {
          "name": "E3",
          "midi": 52,
          "time": 113,
          "velocity": 0.6692913385826772,
          "duration": 1
        },
        {
          "name": "A3",
          "midi": 57,
          "time": 113,
          "velocity": 0.6692913385826772,
          "duration": 1
        },
        {
          "name": "B4",
          "midi": 71,
          "time": 113.25,
          "velocity": 0.6692913385826772,
          "duration": 0.25
        },
        {
          "name": "A4",
          "midi": 69,
          "time": 113.5,
          "velocity": 0.6692913385826772,
          "duration": 0.25
        },
        {
          "name": "G4",
          "midi": 67,
          "time": 113.75,
          "velocity": 0.6692913385826772,
          "duration": 0.75
        },
        {
          "name": "B4",
          "midi": 71,
          "time": 113.75,
          "velocity": 0.6692913385826772,
          "duration": 0.75
        },
        {
          "name": "G2",
          "midi": 43,
          "time": 114,
          "velocity": 0.6692913385826772,
          "duration": 0.75
        },
        {
          "name": "G4",
          "midi": 67,
          "time": 114.5,
          "velocity": 0.6692913385826772,
          "duration": 0.25
        },
        {
          "name": "A4",
          "midi": 69,
          "time": 114.75,
          "velocity": 0.6692913385826772,
          "duration": 0.5
        },
        {
          "name": "B2",
          "midi": 47,
          "time": 114.75,
          "velocity": 0.6692913385826772,
          "duration": 0.25
        },
        {
          "name": "D3",
          "midi": 50,
          "time": 115,
          "velocity": 0.6692913385826772,
          "duration": 1
        },
        {
          "name": "G3",
          "midi": 55,
          "time": 115,
          "velocity": 0.6692913385826772,
          "duration": 1
        },
        {
          "name": "B4",
          "midi": 71,
          "time": 115.25,
          "velocity": 0.6692913385826772,
          "duration": 0.5
        },
        {
          "name": "F#4",
          "midi": 66,
          "time": 115.75,
          "velocity": 0.6692913385826772,
          "duration": 0.75
        },
        {
          "name": "A4",
          "midi": 69,
          "time": 115.75,
          "velocity": 0.6692913385826772,
          "duration": 0.75
        },
        {
          "name": "F#2",
          "midi": 42,
          "time": 116,
          "velocity": 0.6692913385826772,
          "duration": 0.75
        },
        {
          "name": "G4",
          "midi": 67,
          "time": 116.5,
          "velocity": 0.6692913385826772,
          "duration": 0.25
        },
        {
          "name": "A4",
          "midi": 69,
          "time": 116.75,
          "velocity": 0.6692913385826772,
          "duration": 0.5
        },
        {
          "name": "A2",
          "midi": 45,
          "time": 116.75,
          "velocity": 0.6692913385826772,
          "duration": 0.25
        },
        {
          "name": "F#3",
          "midi": 54,
          "time": 117,
          "velocity": 0.6692913385826772,
          "duration": 1
        },
        {
          "name": "A3",
          "midi": 57,
          "time": 117,
          "velocity": 0.6692913385826772,
          "duration": 1
        },
        {
          "name": "C5",
          "midi": 72,
          "time": 117.25,
          "velocity": 0.6692913385826772,
          "duration": 0.5
        },
        {
          "name": "E4",
          "midi": 64,
          "time": 117.75,
          "velocity": 0.6692913385826772,
          "duration": 2.25
        },
        {
          "name": "G4",
          "midi": 67,
          "time": 117.75,
          "velocity": 0.6692913385826772,
          "duration": 2.25
        },
        {
          "name": "B4",
          "midi": 71,
          "time": 117.75,
          "velocity": 0.6692913385826772,
          "duration": 2.25
        },
        {
          "name": "E3",
          "midi": 52,
          "time": 118,
          "velocity": 0.6692913385826772,
          "duration": 2
        },
        {
          "name": "E3",
          "midi": 52,
          "time": 120,
          "velocity": 0.6692913385826772,
          "duration": 0.25
        },
        {
          "name": "G3",
          "midi": 55,
          "time": 120.25,
          "velocity": 0.6692913385826772,
          "duration": 0.25
        },
        {
          "name": "B3",
          "midi": 59,
          "time": 120.5,
          "velocity": 0.6692913385826772,
          "duration": 0.25
        },
        {
          "name": "E4",
          "midi": 64,
          "time": 120.75,
          "velocity": 0.6692913385826772,
          "duration": 0.75
        },
        {
          "name": "B4",
          "midi": 71,
          "time": 121,
          "velocity": 0.6692913385826772,
          "duration": 0.25
        },
        {
          "name": "B4",
          "midi": 71,
          "time": 121.25,
          "velocity": 0.6692913385826772,
          "duration": 0.125
        },
        {
          "name": "B4",
          "midi": 71,
          "time": 121.375,
          "velocity": 0.6692913385826772,
          "duration": 0.375
        },
        {
          "name": "E3",
          "midi": 52,
          "time": 121.5,
          "velocity": 0.6692913385826772,
          "duration": 0.5
        },
        {
          "name": "A4",
          "midi": 69,
          "time": 121.75,
          "velocity": 0.6692913385826772,
          "duration": 0.25
        },
        {
          "name": "E4",
          "midi": 64,
          "time": 122,
          "velocity": 0.6692913385826772,
          "duration": 1
        },
        {
          "name": "A4",
          "midi": 69,
          "time": 122,
          "velocity": 0.6692913385826772,
          "duration": 1
        },
        {
          "name": "C3",
          "midi": 48,
          "time": 122,
          "velocity": 0.6692913385826772,
          "duration": 0.25
        },
        {
          "name": "E3",
          "midi": 52,
          "time": 122.25,
          "velocity": 0.6692913385826772,
          "duration": 0.25
        },
        {
          "name": "G3",
          "midi": 55,
          "time": 122.5,
          "velocity": 0.6692913385826772,
          "duration": 0.25
        },
        {
          "name": "C4",
          "midi": 60,
          "time": 122.75,
          "velocity": 0.6692913385826772,
          "duration": 0.75
        },
        {
          "name": "B4",
          "midi": 71,
          "time": 123,
          "velocity": 0.6692913385826772,
          "duration": 0.25
        },
        {
          "name": "B4",
          "midi": 71,
          "time": 123.25,
          "velocity": 0.6692913385826772,
          "duration": 0.125
        },
        {
          "name": "B4",
          "midi": 71,
          "time": 123.375,
          "velocity": 0.6692913385826772,
          "duration": 0.375
        },
        {
          "name": "G3",
          "midi": 55,
          "time": 123.5,
          "velocity": 0.6692913385826772,
          "duration": 0.5
        },
        {
          "name": "A4",
          "midi": 69,
          "time": 123.75,
          "velocity": 0.6692913385826772,
          "duration": 0.25
        },
        {
          "name": "F#4",
          "midi": 66,
          "time": 124,
          "velocity": 0.6692913385826772,
          "duration": 1
        },
        {
          "name": "A4",
          "midi": 69,
          "time": 124,
          "velocity": 0.6692913385826772,
          "duration": 1
        },
        {
          "name": "D3",
          "midi": 50,
          "time": 124,
          "velocity": 0.6692913385826772,
          "duration": 0.25
        },
        {
          "name": "F#3",
          "midi": 54,
          "time": 124.25,
          "velocity": 0.6692913385826772,
          "duration": 0.25
        },
        {
          "name": "A3",
          "midi": 57,
          "time": 124.5,
          "velocity": 0.6692913385826772,
          "duration": 0.25
        },
        {
          "name": "D4",
          "midi": 62,
          "time": 124.75,
          "velocity": 0.6692913385826772,
          "duration": 0.75
        },
        {
          "name": "C5",
          "midi": 72,
          "time": 125,
          "velocity": 0.6692913385826772,
          "duration": 0.25
        },
        {
          "name": "B4",
          "midi": 71,
          "time": 125.25,
          "velocity": 0.6692913385826772,
          "duration": 0.125
        },
        {
          "name": "A4",
          "midi": 69,
          "time": 125.375,
          "velocity": 0.6692913385826772,
          "duration": 0.375
        },
        {
          "name": "D3",
          "midi": 50,
          "time": 125.5,
          "velocity": 0.6692913385826772,
          "duration": 0.5
        },
        {
          "name": "G4",
          "midi": 67,
          "time": 125.75,
          "velocity": 0.6692913385826772,
          "duration": 0.25
        },
        {
          "name": "E4",
          "midi": 64,
          "time": 126,
          "velocity": 0.6692913385826772,
          "duration": 0.5
        },
        {
          "name": "G4",
          "midi": 67,
          "time": 126,
          "velocity": 0.6692913385826772,
          "duration": 0.5
        },
        {
          "name": "C5",
          "midi": 72,
          "time": 126,
          "velocity": 0.6692913385826772,
          "duration": 0.5
        },
        {
          "name": "E3",
          "midi": 52,
          "time": 126,
          "velocity": 0.6692913385826772,
          "duration": 0.25
        },
        {
          "name": "G3",
          "midi": 55,
          "time": 126.25,
          "velocity": 0.6692913385826772,
          "duration": 0.25
        },
        {
          "name": "G4",
          "midi": 67,
          "time": 126.5,
          "velocity": 0.6692913385826772,
          "duration": 0.5
        },
        {
          "name": "B4",
          "midi": 71,
          "time": 126.5,
          "velocity": 0.6692913385826772,
          "duration": 0.5
        },
        {
          "name": "B3",
          "midi": 59,
          "time": 126.5,
          "velocity": 0.6692913385826772,
          "duration": 0.25
        },
        {
          "name": "E4",
          "midi": 64,
          "time": 126.75,
          "velocity": 0.6692913385826772,
          "duration": 1.25
        },
        {
          "name": "A4",
          "midi": 69,
          "time": 127,
          "velocity": 0.6692913385826772,
          "duration": 0.5
        },
        {
          "name": "G4",
          "midi": 67,
          "time": 127.5,
          "velocity": 0.6692913385826772,
          "duration": 0.5
        },
        {
          "name": "B4",
          "midi": 71,
          "time": 127.5,
          "velocity": 0.6692913385826772,
          "duration": 0.5
        },
        {
          "name": "E4",
          "midi": 64,
          "time": 128,
          "velocity": 0.6692913385826772,
          "duration": 1
        },
        {
          "name": "G4",
          "midi": 67,
          "time": 128,
          "velocity": 0.6692913385826772,
          "duration": 1
        },
        {
          "name": "E3",
          "midi": 52,
          "time": 128,
          "velocity": 0.6692913385826772,
          "duration": 0.25
        },
        {
          "name": "G3",
          "midi": 55,
          "time": 128.25,
          "velocity": 0.6692913385826772,
          "duration": 0.25
        },
        {
          "name": "B3",
          "midi": 59,
          "time": 128.5,
          "velocity": 0.6692913385826772,
          "duration": 0.25
        },
        {
          "name": "E4",
          "midi": 64,
          "time": 128.75,
          "velocity": 0.6692913385826772,
          "duration": 1.25
        },
        {
          "name": "B4",
          "midi": 71,
          "time": 129,
          "velocity": 0.6692913385826772,
          "duration": 0.25
        },
        {
          "name": "B4",
          "midi": 71,
          "time": 129.25,
          "velocity": 0.6692913385826772,
          "duration": 0.125
        },
        {
          "name": "B4",
          "midi": 71,
          "time": 129.375,
          "velocity": 0.6692913385826772,
          "duration": 0.375
        },
        {
          "name": "A4",
          "midi": 69,
          "time": 129.75,
          "velocity": 0.6692913385826772,
          "duration": 0.25
        },
        {
          "name": "E4",
          "midi": 64,
          "time": 130,
          "velocity": 0.6692913385826772,
          "duration": 1
        },
        {
          "name": "A4",
          "midi": 69,
          "time": 130,
          "velocity": 0.6692913385826772,
          "duration": 1
        },
        {
          "name": "C3",
          "midi": 48,
          "time": 130,
          "velocity": 0.6692913385826772,
          "duration": 0.25
        },
        {
          "name": "E3",
          "midi": 52,
          "time": 130.25,
          "velocity": 0.6692913385826772,
          "duration": 0.25
        },
        {
          "name": "G3",
          "midi": 55,
          "time": 130.5,
          "velocity": 0.6692913385826772,
          "duration": 0.25
        },
        {
          "name": "C4",
          "midi": 60,
          "time": 130.75,
          "velocity": 0.6692913385826772,
          "duration": 0.75
        },
        {
          "name": "B4",
          "midi": 71,
          "time": 131,
          "velocity": 0.6692913385826772,
          "duration": 0.25
        },
        {
          "name": "B4",
          "midi": 71,
          "time": 131.25,
          "velocity": 0.6692913385826772,
          "duration": 0.125
        },
        {
          "name": "B4",
          "midi": 71,
          "time": 131.375,
          "velocity": 0.6692913385826772,
          "duration": 0.375
        },
        {
          "name": "G3",
          "midi": 55,
          "time": 131.5,
          "velocity": 0.6692913385826772,
          "duration": 0.5
        },
        {
          "name": "A4",
          "midi": 69,
          "time": 131.75,
          "velocity": 0.6692913385826772,
          "duration": 0.25
        },
        {
          "name": "F#4",
          "midi": 66,
          "time": 132,
          "velocity": 0.6692913385826772,
          "duration": 1
        },
        {
          "name": "A4",
          "midi": 69,
          "time": 132,
          "velocity": 0.6692913385826772,
          "duration": 1
        },
        {
          "name": "D3",
          "midi": 50,
          "time": 132,
          "velocity": 0.6692913385826772,
          "duration": 0.25
        },
        {
          "name": "F#3",
          "midi": 54,
          "time": 132.25,
          "velocity": 0.6692913385826772,
          "duration": 0.25
        },
        {
          "name": "A3",
          "midi": 57,
          "time": 132.5,
          "velocity": 0.6692913385826772,
          "duration": 0.25
        },
        {
          "name": "D4",
          "midi": 62,
          "time": 132.75,
          "velocity": 0.6692913385826772,
          "duration": 0.75
        },
        {
          "name": "C5",
          "midi": 72,
          "time": 133,
          "velocity": 0.6692913385826772,
          "duration": 0.25
        },
        {
          "name": "B4",
          "midi": 71,
          "time": 133.25,
          "velocity": 0.6692913385826772,
          "duration": 0.125
        },
        {
          "name": "A4",
          "midi": 69,
          "time": 133.375,
          "velocity": 0.6692913385826772,
          "duration": 0.375
        },
        {
          "name": "D3",
          "midi": 50,
          "time": 133.5,
          "velocity": 0.6692913385826772,
          "duration": 0.5
        },
        {
          "name": "G4",
          "midi": 67,
          "time": 133.75,
          "velocity": 0.6692913385826772,
          "duration": 0.25
        },
        {
          "name": "G4",
          "midi": 67,
          "time": 134,
          "velocity": 0.6692913385826772,
          "duration": 0.5
        },
        {
          "name": "C5",
          "midi": 72,
          "time": 134,
          "velocity": 0.6692913385826772,
          "duration": 0.5
        },
        {
          "name": "E3",
          "midi": 52,
          "time": 134,
          "velocity": 0.6692913385826772,
          "duration": 0.25
        },
        {
          "name": "G3",
          "midi": 55,
          "time": 134.25,
          "velocity": 0.6692913385826772,
          "duration": 0.25
        },
        {
          "name": "G4",
          "midi": 67,
          "time": 134.5,
          "velocity": 0.6692913385826772,
          "duration": 0.5
        },
        {
          "name": "B4",
          "midi": 71,
          "time": 134.5,
          "velocity": 0.6692913385826772,
          "duration": 0.5
        },
        {
          "name": "B3",
          "midi": 59,
          "time": 134.5,
          "velocity": 0.6692913385826772,
          "duration": 0.25
        },
        {
          "name": "E4",
          "midi": 64,
          "time": 134.75,
          "velocity": 0.6692913385826772,
          "duration": 1.25
        },
        {
          "name": "A4",
          "midi": 69,
          "time": 135,
          "velocity": 0.6692913385826772,
          "duration": 0.5
        },
        {
          "name": "G4",
          "midi": 67,
          "time": 135.5,
          "velocity": 0.6692913385826772,
          "duration": 0.5
        },
        {
          "name": "B4",
          "midi": 71,
          "time": 135.5,
          "velocity": 0.6692913385826772,
          "duration": 0.5
        },
        {
          "name": "E4",
          "midi": 64,
          "time": 136,
          "velocity": 0.6692913385826772,
          "duration": 1
        },
        {
          "name": "G4",
          "midi": 67,
          "time": 136,
          "velocity": 0.6692913385826772,
          "duration": 1
        },
        {
          "name": "C2",
          "midi": 36,
          "time": 136,
          "velocity": 0.6692913385826772,
          "duration": 0.25
        },
        {
          "name": "G2",
          "midi": 43,
          "time": 136.25,
          "velocity": 0.6692913385826772,
          "duration": 0.25
        },
        {
          "name": "C3",
          "midi": 48,
          "time": 136.5,
          "velocity": 0.6692913385826772,
          "duration": 0.25
        },
        {
          "name": "E3",
          "midi": 52,
          "time": 136.75,
          "velocity": 0.6692913385826772,
          "duration": 0.25
        },
        {
          "name": "C4",
          "midi": 60,
          "time": 137,
          "velocity": 0.6692913385826772,
          "duration": 1
        },
        {
          "name": "E4",
          "midi": 64,
          "time": 137,
          "velocity": 0.6692913385826772,
          "duration": 1
        },
        {
          "name": "G4",
          "midi": 67,
          "time": 137,
          "velocity": 0.6692913385826772,
          "duration": 1
        },
        {
          "name": "G3",
          "midi": 55,
          "time": 137,
          "velocity": 0.6692913385826772,
          "duration": 0.25
        },
        {
          "name": "E3",
          "midi": 52,
          "time": 137.25,
          "velocity": 0.6692913385826772,
          "duration": 0.25
        },
        {
          "name": "C3",
          "midi": 48,
          "time": 137.5,
          "velocity": 0.6692913385826772,
          "duration": 0.25
        },
        {
          "name": "G2",
          "midi": 43,
          "time": 137.75,
          "velocity": 0.6692913385826772,
          "duration": 0.25
        },
        {
          "name": "D4",
          "midi": 62,
          "time": 138,
          "velocity": 0.6692913385826772,
          "duration": 1
        },
        {
          "name": "F#4",
          "midi": 66,
          "time": 138,
          "velocity": 0.6692913385826772,
          "duration": 1
        },
        {
          "name": "D2",
          "midi": 38,
          "time": 138,
          "velocity": 0.6692913385826772,
          "duration": 0.25
        },
        {
          "name": "A2",
          "midi": 45,
          "time": 138.25,
          "velocity": 0.6692913385826772,
          "duration": 0.25
        },
        {
          "name": "D3",
          "midi": 50,
          "time": 138.5,
          "velocity": 0.6692913385826772,
          "duration": 0.25
        },
        {
          "name": "F#3",
          "midi": 54,
          "time": 138.75,
          "velocity": 0.6692913385826772,
          "duration": 0.25
        },
        {
          "name": "D4",
          "midi": 62,
          "time": 139,
          "velocity": 0.6692913385826772,
          "duration": 1
        },
        {
          "name": "A3",
          "midi": 57,
          "time": 139,
          "velocity": 0.6692913385826772,
          "duration": 0.25
        },
        {
          "name": "F#3",
          "midi": 54,
          "time": 139.25,
          "velocity": 0.6692913385826772,
          "duration": 0.25
        },
        {
          "name": "D3",
          "midi": 50,
          "time": 139.5,
          "velocity": 0.6692913385826772,
          "duration": 0.25
        },
        {
          "name": "A2",
          "midi": 45,
          "time": 139.75,
          "velocity": 0.6692913385826772,
          "duration": 0.25
        },
        {
          "name": "B3",
          "midi": 59,
          "time": 140,
          "velocity": 0.6692913385826772,
          "duration": 2
        },
        {
          "name": "E4",
          "midi": 64,
          "time": 140,
          "velocity": 0.6692913385826772,
          "duration": 2
        },
        {
          "name": "E2",
          "midi": 40,
          "time": 140,
          "velocity": 0.6692913385826772,
          "duration": 0.25
        },
        {
          "name": "G2",
          "midi": 43,
          "time": 140.25,
          "velocity": 0.6692913385826772,
          "duration": 0.25
        },
        {
          "name": "B2",
          "midi": 47,
          "time": 140.5,
          "velocity": 0.6692913385826772,
          "duration": 0.25
        },
        {
          "name": "E3",
          "midi": 52,
          "time": 140.75,
          "velocity": 0.6692913385826772,
          "duration": 0.25
        },
        {
          "name": "G3",
          "midi": 55,
          "time": 141,
          "velocity": 0.6692913385826772,
          "duration": 0.25
        },
        {
          "name": "E3",
          "midi": 52,
          "time": 141.25,
          "velocity": 0.6692913385826772,
          "duration": 0.25
        },
        {
          "name": "B2",
          "midi": 47,
          "time": 141.5,
          "velocity": 0.6692913385826772,
          "duration": 0.25
        },
        {
          "name": "G2",
          "midi": 43,
          "time": 141.75,
          "velocity": 0.6692913385826772,
          "duration": 0.25
        },
        {
          "name": "E2",
          "midi": 40,
          "time": 142,
          "velocity": 0.6692913385826772,
          "duration": 0.25
        },
        {
          "name": "G2",
          "midi": 43,
          "time": 142.25,
          "velocity": 0.6692913385826772,
          "duration": 0.25
        },
        {
          "name": "B2",
          "midi": 47,
          "time": 142.5,
          "velocity": 0.6692913385826772,
          "duration": 0.25
        },
        {
          "name": "E3",
          "midi": 52,
          "time": 142.75,
          "velocity": 0.6692913385826772,
          "duration": 0.25
        },
        {
          "name": "G3",
          "midi": 55,
          "time": 143,
          "velocity": 0.6692913385826772,
          "duration": 0.25
        },
        {
          "name": "E3",
          "midi": 52,
          "time": 143.25,
          "velocity": 0.6692913385826772,
          "duration": 0.25
        },
        {
          "name": "B2",
          "midi": 47,
          "time": 143.5,
          "velocity": 0.6692913385826772,
          "duration": 0.25
        },
        {
          "name": "G2",
          "midi": 43,
          "time": 143.75,
          "velocity": 0.6692913385826772,
          "duration": 0.25
        },
        {
          "name": "C2",
          "midi": 36,
          "time": 144,
          "velocity": 0.6692913385826772,
          "duration": 0.25
        },
        {
          "name": "G2",
          "midi": 43,
          "time": 144.25,
          "velocity": 0.6692913385826772,
          "duration": 0.25
        },
        {
          "name": "C3",
          "midi": 48,
          "time": 144.5,
          "velocity": 0.6692913385826772,
          "duration": 0.25
        },
        {
          "name": "E3",
          "midi": 52,
          "time": 144.75,
          "velocity": 0.6692913385826772,
          "duration": 0.25
        },
        {
          "name": "C4",
          "midi": 60,
          "time": 145,
          "velocity": 0.6692913385826772,
          "duration": 1
        },
        {
          "name": "E4",
          "midi": 64,
          "time": 145,
          "velocity": 0.6692913385826772,
          "duration": 1
        },
        {
          "name": "G4",
          "midi": 67,
          "time": 145,
          "velocity": 0.6692913385826772,
          "duration": 1
        },
        {
          "name": "G3",
          "midi": 55,
          "time": 145,
          "velocity": 0.6692913385826772,
          "duration": 0.25
        },
        {
          "name": "E3",
          "midi": 52,
          "time": 145.25,
          "velocity": 0.6692913385826772,
          "duration": 0.25
        },
        {
          "name": "C3",
          "midi": 48,
          "time": 145.5,
          "velocity": 0.6692913385826772,
          "duration": 0.25
        },
        {
          "name": "G2",
          "midi": 43,
          "time": 145.75,
          "velocity": 0.6692913385826772,
          "duration": 0.25
        },
        {
          "name": "D4",
          "midi": 62,
          "time": 146,
          "velocity": 0.6692913385826772,
          "duration": 1
        },
        {
          "name": "F#4",
          "midi": 66,
          "time": 146,
          "velocity": 0.6692913385826772,
          "duration": 1
        },
        {
          "name": "A4",
          "midi": 69,
          "time": 146,
          "velocity": 0.6692913385826772,
          "duration": 1
        },
        {
          "name": "D2",
          "midi": 38,
          "time": 146,
          "velocity": 0.6692913385826772,
          "duration": 0.25
        },
        {
          "name": "A2",
          "midi": 45,
          "time": 146.25,
          "velocity": 0.6692913385826772,
          "duration": 0.25
        },
        {
          "name": "D3",
          "midi": 50,
          "time": 146.5,
          "velocity": 0.6692913385826772,
          "duration": 0.25
        },
        {
          "name": "F#3",
          "midi": 54,
          "time": 146.75,
          "velocity": 0.6692913385826772,
          "duration": 0.25
        },
        {
          "name": "A4",
          "midi": 69,
          "time": 147,
          "velocity": 0.6692913385826772,
          "duration": 1
        },
        {
          "name": "C5",
          "midi": 72,
          "time": 147,
          "velocity": 0.6692913385826772,
          "duration": 1
        },
        {
          "name": "A3",
          "midi": 57,
          "time": 147,
          "velocity": 0.6692913385826772,
          "duration": 0.25
        },
        {
          "name": "F#3",
          "midi": 54,
          "time": 147.25,
          "velocity": 0.6692913385826772,
          "duration": 0.25
        },
        {
          "name": "D3",
          "midi": 50,
          "time": 147.5,
          "velocity": 0.6692913385826772,
          "duration": 0.25
        },
        {
          "name": "A2",
          "midi": 45,
          "time": 147.75,
          "velocity": 0.6692913385826772,
          "duration": 0.25
        },
        {
          "name": "E4",
          "midi": 64,
          "time": 148,
          "velocity": 0.6692913385826772,
          "duration": 0.75
        },
        {
          "name": "G4",
          "midi": 67,
          "time": 148,
          "velocity": 0.6692913385826772,
          "duration": 2
        },
        {
          "name": "B4",
          "midi": 71,
          "time": 148,
          "velocity": 0.6692913385826772,
          "duration": 2
        },
        {
          "name": "E3",
          "midi": 52,
          "time": 148,
          "velocity": 0.6692913385826772,
          "duration": 0.25
        },
        {
          "name": "B3",
          "midi": 59,
          "time": 148.25,
          "velocity": 0.6692913385826772,
          "duration": 0.25
        },
        {
          "name": "A5",
          "midi": 81,
          "time": 148.5,
          "velocity": 0.6692913385826772,
          "duration": 0.25
        },
        {
          "name": "E4",
          "midi": 64,
          "time": 148.5,
          "velocity": 0.6692913385826772,
          "duration": 0.75
        },
        {
          "name": "B5",
          "midi": 83,
          "time": 148.75,
          "velocity": 0.6692913385826772,
          "duration": 0.75
        },
        {
          "name": "B3",
          "midi": 59,
          "time": 148.75,
          "velocity": 0.6692913385826772,
          "duration": 0.25
        },
        {
          "name": "E4",
          "midi": 64,
          "time": 149,
          "velocity": 0.6692913385826772,
          "duration": 0.75
        },
        {
          "name": "B3",
          "midi": 59,
          "time": 149.25,
          "velocity": 0.6692913385826772,
          "duration": 0.25
        },
        {
          "name": "C6",
          "midi": 84,
          "time": 149.5,
          "velocity": 0.6692913385826772,
          "duration": 0.75
        },
        {
          "name": "E4",
          "midi": 64,
          "time": 149.5,
          "velocity": 0.6692913385826772,
          "duration": 0.5
        },
        {
          "name": "B3",
          "midi": 59,
          "time": 149.75,
          "velocity": 0.6692913385826772,
          "duration": 0.25
        },
        {
          "name": "E4",
          "midi": 64,
          "time": 150,
          "velocity": 0.6692913385826772,
          "duration": 0.25
        },
        {
          "name": "E6",
          "midi": 88,
          "time": 150.25,
          "velocity": 0.6692913385826772,
          "duration": 0.75
        },
        {
          "name": "B3",
          "midi": 59,
          "time": 150.25,
          "velocity": 0.6692913385826772,
          "duration": 0.25
        },
        {
          "name": "E4",
          "midi": 64,
          "time": 150.5,
          "velocity": 0.6692913385826772,
          "duration": 0.25
        },
        {
          "name": "B3",
          "midi": 59,
          "time": 150.75,
          "velocity": 0.6692913385826772,
          "duration": 0.25
        },
        {
          "name": "B5",
          "midi": 83,
          "time": 151,
          "velocity": 0.6692913385826772,
          "duration": 0.75
        },
        {
          "name": "E4",
          "midi": 64,
          "time": 151,
          "velocity": 0.6692913385826772,
          "duration": 0.25
        },
        {
          "name": "B3",
          "midi": 59,
          "time": 151.25,
          "velocity": 0.6692913385826772,
          "duration": 0.25
        },
        {
          "name": "E4",
          "midi": 64,
          "time": 151.5,
          "velocity": 0.6692913385826772,
          "duration": 0.25
        },
        {
          "name": "E5",
          "midi": 76,
          "time": 151.75,
          "velocity": 0.6692913385826772,
          "duration": 0.25
        },
        {
          "name": "B3",
          "midi": 59,
          "time": 151.75,
          "velocity": 0.6692913385826772,
          "duration": 0.25
        },
        {
          "name": "B5",
          "midi": 83,
          "time": 152,
          "velocity": 0.6692913385826772,
          "duration": 0.5
        },
        {
          "name": "E3",
          "midi": 52,
          "time": 152,
          "velocity": 0.6692913385826772,
          "duration": 0.25
        },
        {
          "name": "C4",
          "midi": 60,
          "time": 152.25,
          "velocity": 0.6692913385826772,
          "duration": 0.25
        },
        {
          "name": "A5",
          "midi": 81,
          "time": 152.5,
          "velocity": 0.6692913385826772,
          "duration": 0.25
        },
        {
          "name": "E4",
          "midi": 64,
          "time": 152.5,
          "velocity": 0.6692913385826772,
          "duration": 0.25
        },
        {
          "name": "B5",
          "midi": 83,
          "time": 152.75,
          "velocity": 0.6692913385826772,
          "duration": 0.75
        },
        {
          "name": "C4",
          "midi": 60,
          "time": 152.75,
          "velocity": 0.6692913385826772,
          "duration": 0.25
        },
        {
          "name": "E4",
          "midi": 64,
          "time": 153,
          "velocity": 0.6692913385826772,
          "duration": 0.25
        },
        {
          "name": "C4",
          "midi": 60,
          "time": 153.25,
          "velocity": 0.6692913385826772,
          "duration": 0.25
        },
        {
          "name": "C6",
          "midi": 84,
          "time": 153.5,
          "velocity": 0.6692913385826772,
          "duration": 0.75
        },
        {
          "name": "E4",
          "midi": 64,
          "time": 153.5,
          "velocity": 0.6692913385826772,
          "duration": 0.25
        },
        {
          "name": "C4",
          "midi": 60,
          "time": 153.75,
          "velocity": 0.6692913385826772,
          "duration": 0.25
        },
        {
          "name": "E4",
          "midi": 64,
          "time": 154,
          "velocity": 0.6692913385826772,
          "duration": 0.25
        },
        {
          "name": "E6",
          "midi": 88,
          "time": 154.25,
          "velocity": 0.6692913385826772,
          "duration": 0.75
        },
        {
          "name": "C4",
          "midi": 60,
          "time": 154.25,
          "velocity": 0.6692913385826772,
          "duration": 0.25
        },
        {
          "name": "E4",
          "midi": 64,
          "time": 154.5,
          "velocity": 0.6692913385826772,
          "duration": 0.25
        },
        {
          "name": "C4",
          "midi": 60,
          "time": 154.75,
          "velocity": 0.6692913385826772,
          "duration": 0.25
        },
        {
          "name": "B5",
          "midi": 83,
          "time": 155,
          "velocity": 0.6692913385826772,
          "duration": 1
        },
        {
          "name": "E4",
          "midi": 64,
          "time": 155,
          "velocity": 0.6692913385826772,
          "duration": 0.25
        },
        {
          "name": "C4",
          "midi": 60,
          "time": 155.25,
          "velocity": 0.6692913385826772,
          "duration": 0.25
        },
        {
          "name": "E4",
          "midi": 64,
          "time": 155.5,
          "velocity": 0.6692913385826772,
          "duration": 0.25
        },
        {
          "name": "C4",
          "midi": 60,
          "time": 155.75,
          "velocity": 0.6692913385826772,
          "duration": 0.25
        },
        {
          "name": "B5",
          "midi": 83,
          "time": 156,
          "velocity": 0.6692913385826772,
          "duration": 0.5
        },
        {
          "name": "E3",
          "midi": 52,
          "time": 156,
          "velocity": 0.6692913385826772,
          "duration": 0.25
        },
        {
          "name": "B3",
          "midi": 59,
          "time": 156.25,
          "velocity": 0.6692913385826772,
          "duration": 0.25
        },
        {
          "name": "A5",
          "midi": 81,
          "time": 156.5,
          "velocity": 0.6692913385826772,
          "duration": 0.25
        },
        {
          "name": "E4",
          "midi": 64,
          "time": 156.5,
          "velocity": 0.6692913385826772,
          "duration": 0.25
        },
        {
          "name": "B5",
          "midi": 83,
          "time": 156.75,
          "velocity": 0.6692913385826772,
          "duration": 0.75
        },
        {
          "name": "B3",
          "midi": 59,
          "time": 156.75,
          "velocity": 0.6692913385826772,
          "duration": 0.25
        },
        {
          "name": "E4",
          "midi": 64,
          "time": 157,
          "velocity": 0.6692913385826772,
          "duration": 0.25
        },
        {
          "name": "B3",
          "midi": 59,
          "time": 157.25,
          "velocity": 0.6692913385826772,
          "duration": 0.25
        },
        {
          "name": "C6",
          "midi": 84,
          "time": 157.5,
          "velocity": 0.6692913385826772,
          "duration": 0.75
        },
        {
          "name": "E4",
          "midi": 64,
          "time": 157.5,
          "velocity": 0.6692913385826772,
          "duration": 0.25
        },
        {
          "name": "B3",
          "midi": 59,
          "time": 157.75,
          "velocity": 0.6692913385826772,
          "duration": 0.25
        },
        {
          "name": "E4",
          "midi": 64,
          "time": 158,
          "velocity": 0.6692913385826772,
          "duration": 0.25
        },
        {
          "name": "E6",
          "midi": 88,
          "time": 158.25,
          "velocity": 0.6692913385826772,
          "duration": 0.75
        },
        {
          "name": "B3",
          "midi": 59,
          "time": 158.25,
          "velocity": 0.6692913385826772,
          "duration": 0.25
        },
        {
          "name": "E4",
          "midi": 64,
          "time": 158.5,
          "velocity": 0.6692913385826772,
          "duration": 0.25
        },
        {
          "name": "B3",
          "midi": 59,
          "time": 158.75,
          "velocity": 0.6692913385826772,
          "duration": 0.25
        },
        {
          "name": "B5",
          "midi": 83,
          "time": 159,
          "velocity": 0.6692913385826772,
          "duration": 0.75
        },
        {
          "name": "E4",
          "midi": 64,
          "time": 159,
          "velocity": 0.6692913385826772,
          "duration": 0.25
        },
        {
          "name": "B3",
          "midi": 59,
          "time": 159.25,
          "velocity": 0.6692913385826772,
          "duration": 0.25
        },
        {
          "name": "E4",
          "midi": 64,
          "time": 159.5,
          "velocity": 0.6692913385826772,
          "duration": 0.25
        },
        {
          "name": "E5",
          "midi": 76,
          "time": 159.75,
          "velocity": 0.6692913385826772,
          "duration": 0.25
        },
        {
          "name": "B3",
          "midi": 59,
          "time": 159.75,
          "velocity": 0.6692913385826772,
          "duration": 0.25
        },
        {
          "name": "B5",
          "midi": 83,
          "time": 160,
          "velocity": 0.6692913385826772,
          "duration": 0.5
        },
        {
          "name": "E3",
          "midi": 52,
          "time": 160,
          "velocity": 0.6692913385826772,
          "duration": 0.25
        },
        {
          "name": "C4",
          "midi": 60,
          "time": 160.25,
          "velocity": 0.6692913385826772,
          "duration": 0.25
        },
        {
          "name": "A5",
          "midi": 81,
          "time": 160.5,
          "velocity": 0.6692913385826772,
          "duration": 0.25
        },
        {
          "name": "E4",
          "midi": 64,
          "time": 160.5,
          "velocity": 0.6692913385826772,
          "duration": 0.25
        },
        {
          "name": "B5",
          "midi": 83,
          "time": 160.75,
          "velocity": 0.6692913385826772,
          "duration": 0.75
        },
        {
          "name": "C4",
          "midi": 60,
          "time": 160.75,
          "velocity": 0.6692913385826772,
          "duration": 0.25
        },
        {
          "name": "E4",
          "midi": 64,
          "time": 161,
          "velocity": 0.6692913385826772,
          "duration": 0.25
        },
        {
          "name": "C4",
          "midi": 60,
          "time": 161.25,
          "velocity": 0.6692913385826772,
          "duration": 0.25
        },
        {
          "name": "C6",
          "midi": 84,
          "time": 161.5,
          "velocity": 0.6692913385826772,
          "duration": 0.75
        },
        {
          "name": "E4",
          "midi": 64,
          "time": 161.5,
          "velocity": 0.6692913385826772,
          "duration": 0.25
        },
        {
          "name": "C4",
          "midi": 60,
          "time": 161.75,
          "velocity": 0.6692913385826772,
          "duration": 0.25
        },
        {
          "name": "E4",
          "midi": 64,
          "time": 162,
          "velocity": 0.6692913385826772,
          "duration": 0.25
        },
        {
          "name": "E6",
          "midi": 88,
          "time": 162.25,
          "velocity": 0.6692913385826772,
          "duration": 0.75
        },
        {
          "name": "C4",
          "midi": 60,
          "time": 162.25,
          "velocity": 0.6692913385826772,
          "duration": 0.25
        },
        {
          "name": "E4",
          "midi": 64,
          "time": 162.5,
          "velocity": 0.6692913385826772,
          "duration": 0.25
        },
        {
          "name": "C4",
          "midi": 60,
          "time": 162.75,
          "velocity": 0.6692913385826772,
          "duration": 0.25
        },
        {
          "name": "B5",
          "midi": 83,
          "time": 163,
          "velocity": 0.6692913385826772,
          "duration": 1
        },
        {
          "name": "E4",
          "midi": 64,
          "time": 163,
          "velocity": 0.6692913385826772,
          "duration": 0.25
        },
        {
          "name": "C4",
          "midi": 60,
          "time": 163.25,
          "velocity": 0.6692913385826772,
          "duration": 0.25
        },
        {
          "name": "E4",
          "midi": 64,
          "time": 163.5,
          "velocity": 0.6692913385826772,
          "duration": 0.25
        },
        {
          "name": "C4",
          "midi": 60,
          "time": 163.75,
          "velocity": 0.6692913385826772,
          "duration": 0.25
        },
        {
          "name": "B5",
          "midi": 83,
          "time": 164,
          "velocity": 0.6692913385826772,
          "duration": 2
        },
        {
          "name": "E3",
          "midi": 52,
          "time": 164,
          "velocity": 0.6692913385826772,
          "duration": 2
        },
        {
          "name": "B3",
          "midi": 59,
          "time": 164,
          "velocity": 0.6692913385826772,
          "duration": 2
        },
        {
          "name": "E4",
          "midi": 64,
          "time": 164,
          "velocity": 0.6692913385826772,
          "duration": 2
        },
        {
          "name": "G4",
          "midi": 67,
          "time": 166,
          "velocity": 0.6692913385826772,
          "duration": 1
        },
        {
          "name": "B4",
          "midi": 71,
          "time": 166,
          "velocity": 0.6692913385826772,
          "duration": 1
        },
        {
          "name": "E3",
          "midi": 52,
          "time": 166,
          "velocity": 0.6692913385826772,
          "duration": 0.3125
        },
        {
          "name": "G3",
          "midi": 55,
          "time": 166.25,
          "velocity": 0.6692913385826772,
          "duration": 0.3125
        },
        {
          "name": "B3",
          "midi": 59,
          "time": 166.5,
          "velocity": 0.6692913385826772,
          "duration": 0.3125
        },
        {
          "name": "E4",
          "midi": 64,
          "time": 166.75,
          "velocity": 0.6692913385826772,
          "duration": 1.25
        },
        {
          "name": "A4",
          "midi": 69,
          "time": 167,
          "velocity": 0.6692913385826772,
          "duration": 0.25
        },
        {
          "name": "B4",
          "midi": 71,
          "time": 167.25,
          "velocity": 0.6692913385826772,
          "duration": 0.5
        },
        {
          "name": "G4",
          "midi": 67,
          "time": 167.75,
          "velocity": 0.6692913385826772,
          "duration": 0.5
        },
        {
          "name": "C5",
          "midi": 72,
          "time": 167.75,
          "velocity": 0.6692913385826772,
          "duration": 0.5
        },
        {
          "name": "E3",
          "midi": 52,
          "time": 168,
          "velocity": 0.6692913385826772,
          "duration": 0.3125
        },
        {
          "name": "B4",
          "midi": 71,
          "time": 168.25,
          "velocity": 0.6692913385826772,
          "duration": 0.5
        },
        {
          "name": "G3",
          "midi": 55,
          "time": 168.25,
          "velocity": 0.8267716535433071,
          "duration": 0.38749999999998863
        },
        {
          "name": "B3",
          "midi": 59,
          "time": 168.5,
          "velocity": 0.3937007874015748,
          "duration": 0.38749999999998863
        },
        {
          "name": "A4",
          "midi": 69,
          "time": 168.75,
          "velocity": 0.6692913385826772,
          "duration": 0.5
        },
        {
          "name": "E4",
          "midi": 64,
          "time": 168.75,
          "velocity": 0.6692913385826772,
          "duration": 1.25
        },
        {
          "name": "B4",
          "midi": 71,
          "time": 169.25,
          "velocity": 0.6692913385826772,
          "duration": 0.5
        },
        {
          "name": "E4",
          "midi": 64,
          "time": 169.75,
          "velocity": 0.6692913385826772,
          "duration": 1
        },
        {
          "name": "G4",
          "midi": 67,
          "time": 169.75,
          "velocity": 0.6692913385826772,
          "duration": 1
        },
        {
          "name": "C3",
          "midi": 48,
          "time": 170,
          "velocity": 0.6692913385826772,
          "duration": 0.25
        },
        {
          "name": "E3",
          "midi": 52,
          "time": 170.25,
          "velocity": 0.6692913385826772,
          "duration": 0.25
        },
        {
          "name": "G3",
          "midi": 55,
          "time": 170.5,
          "velocity": 0.6692913385826772,
          "duration": 0.25
        },
        {
          "name": "E4",
          "midi": 64,
          "time": 170.75,
          "velocity": 0.6692913385826772,
          "duration": 0.25
        },
        {
          "name": "C4",
          "midi": 60,
          "time": 170.75,
          "velocity": 0.6692913385826772,
          "duration": 1.25
        },
        {
          "name": "F#4",
          "midi": 66,
          "time": 171,
          "velocity": 0.6692913385826772,
          "duration": 0.25
        },
        {
          "name": "G4",
          "midi": 67,
          "time": 171.25,
          "velocity": 0.6692913385826772,
          "duration": 0.5
        },
        {
          "name": "E4",
          "midi": 64,
          "time": 171.75,
          "velocity": 0.6692913385826772,
          "duration": 1.25
        },
        {
          "name": "A4",
          "midi": 69,
          "time": 171.75,
          "velocity": 0.6692913385826772,
          "duration": 1.25
        },
        {
          "name": "C3",
          "midi": 48,
          "time": 172,
          "velocity": 0.6692913385826772,
          "duration": 0.25
        },
        {
          "name": "E3",
          "midi": 52,
          "time": 172.25,
          "velocity": 0.6692913385826772,
          "duration": 0.25
        },
        {
          "name": "G3",
          "midi": 55,
          "time": 172.5,
          "velocity": 0.6692913385826772,
          "duration": 0.25
        },
        {
          "name": "C4",
          "midi": 60,
          "time": 172.75,
          "velocity": 0.6692913385826772,
          "duration": 0.25
        },
        {
          "name": "E4",
          "midi": 64,
          "time": 173,
          "velocity": 0.6692913385826772,
          "duration": 0.25
        },
        {
          "name": "C4",
          "midi": 60,
          "time": 173.25,
          "velocity": 0.6692913385826772,
          "duration": 0.25
        },
        {
          "name": "G3",
          "midi": 55,
          "time": 173.5,
          "velocity": 0.6692913385826772,
          "duration": 0.25
        },
        {
          "name": "E3",
          "midi": 52,
          "time": 173.75,
          "velocity": 0.6692913385826772,
          "duration": 0.25
        },
        {
          "name": "G4",
          "midi": 67,
          "time": 174,
          "velocity": 0.6692913385826772,
          "duration": 1
        },
        {
          "name": "B4",
          "midi": 71,
          "time": 174,
          "velocity": 0.6692913385826772,
          "duration": 1
        },
        {
          "name": "E3",
          "midi": 52,
          "time": 174,
          "velocity": 0.6692913385826772,
          "duration": 0.25
        },
        {
          "name": "G3",
          "midi": 55,
          "time": 174.25,
          "velocity": 0.6692913385826772,
          "duration": 0.25
        },
        {
          "name": "B3",
          "midi": 59,
          "time": 174.5,
          "velocity": 0.6692913385826772,
          "duration": 0.25
        },
        {
          "name": "E4",
          "midi": 64,
          "time": 174.75,
          "velocity": 0.6692913385826772,
          "duration": 1.25
        },
        {
          "name": "A4",
          "midi": 69,
          "time": 175,
          "velocity": 0.6692913385826772,
          "duration": 0.25
        },
        {
          "name": "D5",
          "midi": 74,
          "time": 175.25,
          "velocity": 0.6692913385826772,
          "duration": 0.5
        },
        {
          "name": "G4",
          "midi": 67,
          "time": 175.75,
          "velocity": 0.6692913385826772,
          "duration": 0.5
        },
        {
          "name": "C5",
          "midi": 72,
          "time": 175.75,
          "velocity": 0.6692913385826772,
          "duration": 0.5
        },
        {
          "name": "E3",
          "midi": 52,
          "time": 176,
          "velocity": 0.6692913385826772,
          "duration": 0.25
        },
        {
          "name": "B4",
          "midi": 71,
          "time": 176.25,
          "velocity": 0.6692913385826772,
          "duration": 0.5
        },
        {
          "name": "G3",
          "midi": 55,
          "time": 176.25,
          "velocity": 0.6692913385826772,
          "duration": 0.25
        },
        {
          "name": "B3",
          "midi": 59,
          "time": 176.5,
          "velocity": 0.6692913385826772,
          "duration": 0.25
        },
        {
          "name": "A4",
          "midi": 69,
          "time": 176.75,
          "velocity": 0.6692913385826772,
          "duration": 0.5
        },
        {
          "name": "E4",
          "midi": 64,
          "time": 176.75,
          "velocity": 0.6692913385826772,
          "duration": 1.25
        },
        {
          "name": "B4",
          "midi": 71,
          "time": 177.25,
          "velocity": 0.6692913385826772,
          "duration": 0.5
        },
        {
          "name": "E4",
          "midi": 64,
          "time": 177.75,
          "velocity": 0.6692913385826772,
          "duration": 1
        },
        {
          "name": "G4",
          "midi": 67,
          "time": 177.75,
          "velocity": 0.6692913385826772,
          "duration": 1
        },
        {
          "name": "C3",
          "midi": 48,
          "time": 178,
          "velocity": 0.6692913385826772,
          "duration": 0.25
        },
        {
          "name": "E3",
          "midi": 52,
          "time": 178.25,
          "velocity": 0.6692913385826772,
          "duration": 0.25
        },
        {
          "name": "G3",
          "midi": 55,
          "time": 178.5,
          "velocity": 0.6692913385826772,
          "duration": 0.25
        },
        {
          "name": "E4",
          "midi": 64,
          "time": 178.75,
          "velocity": 0.6692913385826772,
          "duration": 0.25
        },
        {
          "name": "C4",
          "midi": 60,
          "time": 178.75,
          "velocity": 0.6692913385826772,
          "duration": 1.25
        },
        {
          "name": "F#4",
          "midi": 66,
          "time": 179,
          "velocity": 0.6692913385826772,
          "duration": 0.25
        },
        {
          "name": "G4",
          "midi": 67,
          "time": 179.25,
          "velocity": 0.6692913385826772,
          "duration": 0.5
        },
        {
          "name": "E4",
          "midi": 64,
          "time": 179.75,
          "velocity": 0.6692913385826772,
          "duration": 0.5
        },
        {
          "name": "A4",
          "midi": 69,
          "time": 179.75,
          "velocity": 0.6692913385826772,
          "duration": 0.5
        },
        {
          "name": "C3",
          "midi": 48,
          "time": 180,
          "velocity": 0.6692913385826772,
          "duration": 0.25
        },
        {
          "name": "G4",
          "midi": 67,
          "time": 180.25,
          "velocity": 0.6692913385826772,
          "duration": 0.25
        },
        {
          "name": "E3",
          "midi": 52,
          "time": 180.25,
          "velocity": 0.6692913385826772,
          "duration": 0.25
        },
        {
          "name": "F#4",
          "midi": 66,
          "time": 180.5,
          "velocity": 0.6692913385826772,
          "duration": 0.25
        },
        {
          "name": "G3",
          "midi": 55,
          "time": 180.5,
          "velocity": 0.6692913385826772,
          "duration": 0.25
        },
        {
          "name": "G4",
          "midi": 67,
          "time": 180.75,
          "velocity": 0.6692913385826772,
          "duration": 0.25
        },
        {
          "name": "C4",
          "midi": 60,
          "time": 180.75,
          "velocity": 0.6692913385826772,
          "duration": 0.25
        },
        {
          "name": "F#4",
          "midi": 66,
          "time": 181,
          "velocity": 0.6692913385826772,
          "duration": 1
        },
        {
          "name": "C4",
          "midi": 60,
          "time": 181,
          "velocity": 0.6692913385826772,
          "duration": 0.25
        },
        {
          "name": "G3",
          "midi": 55,
          "time": 181.25,
          "velocity": 0.6692913385826772,
          "duration": 0.25
        },
        {
          "name": "E3",
          "midi": 52,
          "time": 181.5,
          "velocity": 0.6692913385826772,
          "duration": 0.25
        },
        {
          "name": "C3",
          "midi": 48,
          "time": 181.75,
          "velocity": 0.6692913385826772,
          "duration": 0.25
        },
        {
          "name": "E2",
          "midi": 40,
          "time": 182,
          "velocity": 0.6692913385826772,
          "duration": 0.25
        },
        {
          "name": "G2",
          "midi": 43,
          "time": 182.25,
          "velocity": 0.6692913385826772,
          "duration": 0.25
        },
        {
          "name": "B2",
          "midi": 47,
          "time": 182.5,
          "velocity": 0.6692913385826772,
          "duration": 0.25
        },
        {
          "name": "E4",
          "midi": 64,
          "time": 182.75,
          "velocity": 0.6692913385826772,
          "duration": 0.25
        },
        {
          "name": "E3",
          "midi": 52,
          "time": 182.75,
          "velocity": 0.6692913385826772,
          "duration": 0.25
        },
        {
          "name": "F#4",
          "midi": 66,
          "time": 183,
          "velocity": 0.6692913385826772,
          "duration": 0.25
        },
        {
          "name": "E3",
          "midi": 52,
          "time": 183,
          "velocity": 0.6692913385826772,
          "duration": 1
        },
        {
          "name": "G4",
          "midi": 67,
          "time": 183.25,
          "velocity": 0.6692913385826772,
          "duration": 0.5
        },
        {
          "name": "E4",
          "midi": 64,
          "time": 183.75,
          "velocity": 0.6692913385826772,
          "duration": 1.25
        },
        {
          "name": "A4",
          "midi": 69,
          "time": 183.75,
          "velocity": 0.6692913385826772,
          "duration": 1.25
        },
        {
          "name": "E2",
          "midi": 40,
          "time": 184,
          "velocity": 0.6692913385826772,
          "duration": 0.25
        },
        {
          "name": "G2",
          "midi": 43,
          "time": 184.25,
          "velocity": 0.6692913385826772,
          "duration": 0.25
        },
        {
          "name": "B2",
          "midi": 47,
          "time": 184.5,
          "velocity": 0.6692913385826772,
          "duration": 0.25
        },
        {
          "name": "E3",
          "midi": 52,
          "time": 184.75,
          "velocity": 0.6692913385826772,
          "duration": 0.25
        },
        {
          "name": "G3",
          "midi": 55,
          "time": 185,
          "velocity": 0.6692913385826772,
          "duration": 0.25
        },
        {
          "name": "E3",
          "midi": 52,
          "time": 185.25,
          "velocity": 0.6692913385826772,
          "duration": 0.25
        },
        {
          "name": "B2",
          "midi": 47,
          "time": 185.5,
          "velocity": 0.6692913385826772,
          "duration": 0.25
        },
        {
          "name": "G2",
          "midi": 43,
          "time": 185.75,
          "velocity": 0.6692913385826772,
          "duration": 0.25
        },
        {
          "name": "C2",
          "midi": 36,
          "time": 186,
          "velocity": 0.6692913385826772,
          "duration": 0.25
        },
        {
          "name": "E2",
          "midi": 40,
          "time": 186.25,
          "velocity": 0.6692913385826772,
          "duration": 0.25
        },
        {
          "name": "G2",
          "midi": 43,
          "time": 186.5,
          "velocity": 0.6692913385826772,
          "duration": 0.25
        },
        {
          "name": "E4",
          "midi": 64,
          "time": 186.75,
          "velocity": 0.6692913385826772,
          "duration": 0.25
        },
        {
          "name": "C3",
          "midi": 48,
          "time": 186.75,
          "velocity": 0.6692913385826772,
          "duration": 1.25
        },
        {
          "name": "F#4",
          "midi": 66,
          "time": 187,
          "velocity": 0.6692913385826772,
          "duration": 0.25
        },
        {
          "name": "G4",
          "midi": 67,
          "time": 187.25,
          "velocity": 0.6692913385826772,
          "duration": 0.5
        },
        {
          "name": "E4",
          "midi": 64,
          "time": 187.75,
          "velocity": 0.6692913385826772,
          "duration": 0.5
        },
        {
          "name": "G4",
          "midi": 67,
          "time": 187.75,
          "velocity": 0.6692913385826772,
          "duration": 0.5
        },
        {
          "name": "C5",
          "midi": 72,
          "time": 187.75,
          "velocity": 0.6692913385826772,
          "duration": 0.5
        },
        {
          "name": "C2",
          "midi": 36,
          "time": 188,
          "velocity": 0.6692913385826772,
          "duration": 0.25
        },
        {
          "name": "G4",
          "midi": 67,
          "time": 188.25,
          "velocity": 0.6692913385826772,
          "duration": 0.5
        },
        {
          "name": "B4",
          "midi": 71,
          "time": 188.25,
          "velocity": 0.6692913385826772,
          "duration": 0.5
        },
        {
          "name": "E2",
          "midi": 40,
          "time": 188.25,
          "velocity": 0.6692913385826772,
          "duration": 0.25
        },
        {
          "name": "G2",
          "midi": 43,
          "time": 188.5,
          "velocity": 0.6692913385826772,
          "duration": 0.25
        },
        {
          "name": "A4",
          "midi": 69,
          "time": 188.75,
          "velocity": 0.6692913385826772,
          "duration": 0.5
        },
        {
          "name": "C3",
          "midi": 48,
          "time": 188.75,
          "velocity": 0.6692913385826772,
          "duration": 1.25
        },
        {
          "name": "C5",
          "midi": 72,
          "time": 189.25,
          "velocity": 0.6692913385826772,
          "duration": 0.5
        },
        {
          "name": "G4",
          "midi": 67,
          "time": 189.75,
          "velocity": 0.6692913385826772,
          "duration": 1
        },
        {
          "name": "B4",
          "midi": 71,
          "time": 189.75,
          "velocity": 0.6692913385826772,
          "duration": 1
        },
        {
          "name": "E2",
          "midi": 40,
          "time": 190,
          "velocity": 0.6692913385826772,
          "duration": 0.25
        },
        {
          "name": "G2",
          "midi": 43,
          "time": 190.25,
          "velocity": 0.6692913385826772,
          "duration": 0.25
        },
        {
          "name": "B2",
          "midi": 47,
          "time": 190.5,
          "velocity": 0.6692913385826772,
          "duration": 0.25
        },
        {
          "name": "B4",
          "midi": 71,
          "time": 190.75,
          "velocity": 0.6692913385826772,
          "duration": 0.25
        },
        {
          "name": "E3",
          "midi": 52,
          "time": 190.75,
          "velocity": 0.6692913385826772,
          "duration": 1.25
        },
        {
          "name": "A4",
          "midi": 69,
          "time": 191,
          "velocity": 0.6692913385826772,
          "duration": 0.25
        },
        {
          "name": "B4",
          "midi": 71,
          "time": 191.25,
          "velocity": 0.6692913385826772,
          "duration": 0.5
        },
        {
          "name": "G4",
          "midi": 67,
          "time": 191.75,
          "velocity": 0.6692913385826772,
          "duration": 0.5
        },
        {
          "name": "C5",
          "midi": 72,
          "time": 191.75,
          "velocity": 0.6692913385826772,
          "duration": 0.5
        },
        {
          "name": "E2",
          "midi": 40,
          "time": 192,
          "velocity": 0.6692913385826772,
          "duration": 0.25
        },
        {
          "name": "B4",
          "midi": 71,
          "time": 192.25,
          "velocity": 0.6692913385826772,
          "duration": 0.5
        },
        {
          "name": "G2",
          "midi": 43,
          "time": 192.25,
          "velocity": 0.6692913385826772,
          "duration": 0.25
        },
        {
          "name": "B2",
          "midi": 47,
          "time": 192.5,
          "velocity": 0.6692913385826772,
          "duration": 0.25
        },
        {
          "name": "A4",
          "midi": 69,
          "time": 192.75,
          "velocity": 0.6692913385826772,
          "duration": 0.5
        },
        {
          "name": "E3",
          "midi": 52,
          "time": 192.75,
          "velocity": 0.6692913385826772,
          "duration": 1.25
        },
        {
          "name": "B4",
          "midi": 71,
          "time": 193.25,
          "velocity": 0.6692913385826772,
          "duration": 0.5
        },
        {
          "name": "E4",
          "midi": 64,
          "time": 193.75,
          "velocity": 0.6692913385826772,
          "duration": 1.25
        },
        {
          "name": "G4",
          "midi": 67,
          "time": 193.75,
          "velocity": 0.6692913385826772,
          "duration": 1.25
        },
        {
          "name": "C2",
          "midi": 36,
          "time": 194,
          "velocity": 0.6692913385826772,
          "duration": 0.25
        },
        {
          "name": "E2",
          "midi": 40,
          "time": 194.25,
          "velocity": 0.6692913385826772,
          "duration": 0.25
        },
        {
          "name": "G2",
          "midi": 43,
          "time": 194.5,
          "velocity": 0.6692913385826772,
          "duration": 0.25
        },
        {
          "name": "C3",
          "midi": 48,
          "time": 194.75,
          "velocity": 0.6692913385826772,
          "duration": 0.5
        },
        {
          "name": "E4",
          "midi": 64,
          "time": 195,
          "velocity": 0.6692913385826772,
          "duration": 1
        },
        {
          "name": "G4",
          "midi": 67,
          "time": 195,
          "velocity": 0.6692913385826772,
          "duration": 1
        },
        {
          "name": "C3",
          "midi": 48,
          "time": 195.25,
          "velocity": 0.6692913385826772,
          "duration": 0.25
        },
        {
          "name": "G2",
          "midi": 43,
          "time": 195.5,
          "velocity": 0.6692913385826772,
          "duration": 0.25
        },
        {
          "name": "E2",
          "midi": 40,
          "time": 195.75,
          "velocity": 0.6692913385826772,
          "duration": 0.25
        },
        {
          "name": "D4",
          "midi": 62,
          "time": 196,
          "velocity": 0.6692913385826772,
          "duration": 1
        },
        {
          "name": "F#4",
          "midi": 66,
          "time": 196,
          "velocity": 0.6692913385826772,
          "duration": 1
        },
        {
          "name": "D2",
          "midi": 38,
          "time": 196,
          "velocity": 0.6692913385826772,
          "duration": 0.25
        },
        {
          "name": "F#2",
          "midi": 42,
          "time": 196.25,
          "velocity": 0.6692913385826772,
          "duration": 0.25
        },
        {
          "name": "A2",
          "midi": 45,
          "time": 196.5,
          "velocity": 0.6692913385826772,
          "duration": 0.25
        },
        {
          "name": "D3",
          "midi": 50,
          "time": 196.75,
          "velocity": 0.6692913385826772,
          "duration": 0.25
        },
        {
          "name": "D4",
          "midi": 62,
          "time": 197,
          "velocity": 0.6692913385826772,
          "duration": 1
        },
        {
          "name": "F#3",
          "midi": 54,
          "time": 197,
          "velocity": 0.6692913385826772,
          "duration": 0.25
        },
        {
          "name": "D3",
          "midi": 50,
          "time": 197.25,
          "velocity": 0.6692913385826772,
          "duration": 0.25
        },
        {
          "name": "A2",
          "midi": 45,
          "time": 197.5,
          "velocity": 0.6692913385826772,
          "duration": 0.25
        },
        {
          "name": "F#2",
          "midi": 42,
          "time": 197.75,
          "velocity": 0.6692913385826772,
          "duration": 0.25
        },
        {
          "name": "B3",
          "midi": 59,
          "time": 198,
          "velocity": 0.6692913385826772,
          "duration": 2
        },
        {
          "name": "E4",
          "midi": 64,
          "time": 198,
          "velocity": 0.6692913385826772,
          "duration": 2
        },
        {
          "name": "E2",
          "midi": 40,
          "time": 198,
          "velocity": 0.6692913385826772,
          "duration": 2
        },
        {
          "name": "G2",
          "midi": 43,
          "time": 198,
          "velocity": 0.6692913385826772,
          "duration": 2
        },
        {
          "name": "B2",
          "midi": 47,
          "time": 198,
          "velocity": 0.6692913385826772,
          "duration": 2
        },
        {
          "name": "E3",
          "midi": 52,
          "time": 200,
          "velocity": 0.6692913385826772,
          "duration": 0.25
        },
        {
          "name": "G3",
          "midi": 55,
          "time": 200.25,
          "velocity": 0.6692913385826772,
          "duration": 0.25
        },
        {
          "name": "B3",
          "midi": 59,
          "time": 200.5,
          "velocity": 0.6692913385826772,
          "duration": 0.25
        },
        {
          "name": "E4",
          "midi": 64,
          "time": 200.75,
          "velocity": 0.6692913385826772,
          "duration": 0.75
        },
        {
          "name": "B4",
          "midi": 71,
          "time": 201,
          "velocity": 0.6692913385826772,
          "duration": 0.25
        },
        {
          "name": "B4",
          "midi": 71,
          "time": 201.25,
          "velocity": 0.6692913385826772,
          "duration": 0.125
        },
        {
          "name": "B4",
          "midi": 71,
          "time": 201.375,
          "velocity": 0.6692913385826772,
          "duration": 0.375
        },
        {
          "name": "E3",
          "midi": 52,
          "time": 201.5,
          "velocity": 0.6692913385826772,
          "duration": 0.5
        },
        {
          "name": "A4",
          "midi": 69,
          "time": 201.75,
          "velocity": 0.6692913385826772,
          "duration": 0.25
        },
        {
          "name": "E4",
          "midi": 64,
          "time": 202,
          "velocity": 0.6692913385826772,
          "duration": 1
        },
        {
          "name": "A4",
          "midi": 69,
          "time": 202,
          "velocity": 0.6692913385826772,
          "duration": 1
        },
        {
          "name": "C3",
          "midi": 48,
          "time": 202,
          "velocity": 0.6692913385826772,
          "duration": 0.25
        },
        {
          "name": "E3",
          "midi": 52,
          "time": 202.25,
          "velocity": 0.6692913385826772,
          "duration": 0.25
        },
        {
          "name": "G3",
          "midi": 55,
          "time": 202.5,
          "velocity": 0.6692913385826772,
          "duration": 0.25
        },
        {
          "name": "C4",
          "midi": 60,
          "time": 202.75,
          "velocity": 0.6692913385826772,
          "duration": 0.75
        },
        {
          "name": "B4",
          "midi": 71,
          "time": 203,
          "velocity": 0.6692913385826772,
          "duration": 0.25
        },
        {
          "name": "B4",
          "midi": 71,
          "time": 203.25,
          "velocity": 0.6692913385826772,
          "duration": 0.125
        },
        {
          "name": "B4",
          "midi": 71,
          "time": 203.375,
          "velocity": 0.6692913385826772,
          "duration": 0.375
        },
        {
          "name": "G3",
          "midi": 55,
          "time": 203.5,
          "velocity": 0.6692913385826772,
          "duration": 0.5
        },
        {
          "name": "A4",
          "midi": 69,
          "time": 203.75,
          "velocity": 0.6692913385826772,
          "duration": 0.25
        },
        {
          "name": "F#4",
          "midi": 66,
          "time": 204,
          "velocity": 0.6692913385826772,
          "duration": 1
        },
        {
          "name": "A4",
          "midi": 69,
          "time": 204,
          "velocity": 0.6692913385826772,
          "duration": 1
        },
        {
          "name": "D3",
          "midi": 50,
          "time": 204,
          "velocity": 0.6692913385826772,
          "duration": 0.25
        },
        {
          "name": "F#3",
          "midi": 54,
          "time": 204.25,
          "velocity": 0.6692913385826772,
          "duration": 0.25
        },
        {
          "name": "A3",
          "midi": 57,
          "time": 204.5,
          "velocity": 0.6692913385826772,
          "duration": 0.25
        },
        {
          "name": "D4",
          "midi": 62,
          "time": 204.75,
          "velocity": 0.6692913385826772,
          "duration": 0.75
        },
        {
          "name": "C5",
          "midi": 72,
          "time": 205,
          "velocity": 0.6692913385826772,
          "duration": 0.25
        },
        {
          "name": "B4",
          "midi": 71,
          "time": 205.25,
          "velocity": 0.6692913385826772,
          "duration": 0.125
        },
        {
          "name": "A4",
          "midi": 69,
          "time": 205.375,
          "velocity": 0.6692913385826772,
          "duration": 0.375
        },
        {
          "name": "D3",
          "midi": 50,
          "time": 205.5,
          "velocity": 0.6692913385826772,
          "duration": 0.5
        },
        {
          "name": "G4",
          "midi": 67,
          "time": 205.75,
          "velocity": 0.6692913385826772,
          "duration": 0.25
        },
        {
          "name": "E4",
          "midi": 64,
          "time": 206,
          "velocity": 0.6692913385826772,
          "duration": 0.5
        },
        {
          "name": "G4",
          "midi": 67,
          "time": 206,
          "velocity": 0.6692913385826772,
          "duration": 0.5
        },
        {
          "name": "C5",
          "midi": 72,
          "time": 206,
          "velocity": 0.6692913385826772,
          "duration": 0.5
        },
        {
          "name": "E3",
          "midi": 52,
          "time": 206,
          "velocity": 0.6692913385826772,
          "duration": 0.25
        },
        {
          "name": "G3",
          "midi": 55,
          "time": 206.25,
          "velocity": 0.6692913385826772,
          "duration": 0.25
        },
        {
          "name": "G4",
          "midi": 67,
          "time": 206.5,
          "velocity": 0.6692913385826772,
          "duration": 0.5
        },
        {
          "name": "B4",
          "midi": 71,
          "time": 206.5,
          "velocity": 0.6692913385826772,
          "duration": 0.5
        },
        {
          "name": "B3",
          "midi": 59,
          "time": 206.5,
          "velocity": 0.6692913385826772,
          "duration": 0.25
        },
        {
          "name": "E4",
          "midi": 64,
          "time": 206.75,
          "velocity": 0.6692913385826772,
          "duration": 1.25
        },
        {
          "name": "A4",
          "midi": 69,
          "time": 207,
          "velocity": 0.6692913385826772,
          "duration": 0.5
        },
        {
          "name": "G4",
          "midi": 67,
          "time": 207.5,
          "velocity": 0.6692913385826772,
          "duration": 0.5
        },
        {
          "name": "B4",
          "midi": 71,
          "time": 207.5,
          "velocity": 0.6692913385826772,
          "duration": 0.5
        },
        {
          "name": "E4",
          "midi": 64,
          "time": 208,
          "velocity": 0.6692913385826772,
          "duration": 1
        },
        {
          "name": "G4",
          "midi": 67,
          "time": 208,
          "velocity": 0.6692913385826772,
          "duration": 1
        },
        {
          "name": "E3",
          "midi": 52,
          "time": 208,
          "velocity": 0.6692913385826772,
          "duration": 0.25
        },
        {
          "name": "G3",
          "midi": 55,
          "time": 208.25,
          "velocity": 0.6692913385826772,
          "duration": 0.25
        },
        {
          "name": "B3",
          "midi": 59,
          "time": 208.5,
          "velocity": 0.6692913385826772,
          "duration": 0.25
        },
        {
          "name": "E4",
          "midi": 64,
          "time": 208.75,
          "velocity": 0.6692913385826772,
          "duration": 0.75
        },
        {
          "name": "B4",
          "midi": 71,
          "time": 209,
          "velocity": 0.6692913385826772,
          "duration": 0.25
        },
        {
          "name": "B4",
          "midi": 71,
          "time": 209.25,
          "velocity": 0.6692913385826772,
          "duration": 0.125
        },
        {
          "name": "B4",
          "midi": 71,
          "time": 209.375,
          "velocity": 0.6692913385826772,
          "duration": 0.375
        },
        {
          "name": "E3",
          "midi": 52,
          "time": 209.5,
          "velocity": 0.6692913385826772,
          "duration": 0.5
        },
        {
          "name": "A4",
          "midi": 69,
          "time": 209.75,
          "velocity": 0.6692913385826772,
          "duration": 0.25
        },
        {
          "name": "E4",
          "midi": 64,
          "time": 210,
          "velocity": 0.6692913385826772,
          "duration": 1
        },
        {
          "name": "A4",
          "midi": 69,
          "time": 210,
          "velocity": 0.6692913385826772,
          "duration": 1
        },
        {
          "name": "C3",
          "midi": 48,
          "time": 210,
          "velocity": 0.6692913385826772,
          "duration": 0.25
        },
        {
          "name": "E3",
          "midi": 52,
          "time": 210.25,
          "velocity": 0.6692913385826772,
          "duration": 0.25
        },
        {
          "name": "G3",
          "midi": 55,
          "time": 210.5,
          "velocity": 0.6692913385826772,
          "duration": 0.25
        },
        {
          "name": "C4",
          "midi": 60,
          "time": 210.75,
          "velocity": 0.6692913385826772,
          "duration": 0.75
        },
        {
          "name": "B4",
          "midi": 71,
          "time": 211,
          "velocity": 0.6692913385826772,
          "duration": 0.25
        },
        {
          "name": "B4",
          "midi": 71,
          "time": 211.25,
          "velocity": 0.6692913385826772,
          "duration": 0.125
        },
        {
          "name": "B4",
          "midi": 71,
          "time": 211.375,
          "velocity": 0.6692913385826772,
          "duration": 0.375
        },
        {
          "name": "G3",
          "midi": 55,
          "time": 211.5,
          "velocity": 0.6692913385826772,
          "duration": 0.5
        },
        {
          "name": "A4",
          "midi": 69,
          "time": 211.75,
          "velocity": 0.6692913385826772,
          "duration": 0.25
        },
        {
          "name": "F#4",
          "midi": 66,
          "time": 212,
          "velocity": 0.6692913385826772,
          "duration": 1
        },
        {
          "name": "A4",
          "midi": 69,
          "time": 212,
          "velocity": 0.6692913385826772,
          "duration": 1
        },
        {
          "name": "D3",
          "midi": 50,
          "time": 212,
          "velocity": 0.6692913385826772,
          "duration": 0.25
        },
        {
          "name": "F#3",
          "midi": 54,
          "time": 212.25,
          "velocity": 0.6692913385826772,
          "duration": 0.25
        },
        {
          "name": "A3",
          "midi": 57,
          "time": 212.5,
          "velocity": 0.6692913385826772,
          "duration": 0.25
        },
        {
          "name": "D4",
          "midi": 62,
          "time": 212.75,
          "velocity": 0.6692913385826772,
          "duration": 0.75
        },
        {
          "name": "C5",
          "midi": 72,
          "time": 213,
          "velocity": 0.6692913385826772,
          "duration": 0.25
        },
        {
          "name": "B4",
          "midi": 71,
          "time": 213.25,
          "velocity": 0.6692913385826772,
          "duration": 0.125
        },
        {
          "name": "A4",
          "midi": 69,
          "time": 213.375,
          "velocity": 0.6692913385826772,
          "duration": 0.375
        },
        {
          "name": "D3",
          "midi": 50,
          "time": 213.5,
          "velocity": 0.6692913385826772,
          "duration": 0.5
        },
        {
          "name": "G4",
          "midi": 67,
          "time": 213.75,
          "velocity": 0.6692913385826772,
          "duration": 0.25
        },
        {
          "name": "G4",
          "midi": 67,
          "time": 214,
          "velocity": 0.6692913385826772,
          "duration": 0.5
        },
        {
          "name": "C5",
          "midi": 72,
          "time": 214,
          "velocity": 0.6692913385826772,
          "duration": 0.5
        },
        {
          "name": "E3",
          "midi": 52,
          "time": 214,
          "velocity": 0.6692913385826772,
          "duration": 0.25
        },
        {
          "name": "G3",
          "midi": 55,
          "time": 214.25,
          "velocity": 0.6692913385826772,
          "duration": 0.25
        },
        {
          "name": "G4",
          "midi": 67,
          "time": 214.5,
          "velocity": 0.6692913385826772,
          "duration": 0.5
        },
        {
          "name": "B4",
          "midi": 71,
          "time": 214.5,
          "velocity": 0.6692913385826772,
          "duration": 0.5
        },
        {
          "name": "B3",
          "midi": 59,
          "time": 214.5,
          "velocity": 0.6692913385826772,
          "duration": 0.25
        },
        {
          "name": "E4",
          "midi": 64,
          "time": 214.75,
          "velocity": 0.6692913385826772,
          "duration": 1.25
        },
        {
          "name": "A4",
          "midi": 69,
          "time": 215,
          "velocity": 0.6692913385826772,
          "duration": 0.5
        },
        {
          "name": "G4",
          "midi": 67,
          "time": 215.5,
          "velocity": 0.6692913385826772,
          "duration": 0.5
        },
        {
          "name": "B4",
          "midi": 71,
          "time": 215.5,
          "velocity": 0.6692913385826772,
          "duration": 0.5
        },
        {
          "name": "E4",
          "midi": 64,
          "time": 216,
          "velocity": 0.6692913385826772,
          "duration": 2
        },
        {
          "name": "E3",
          "midi": 52,
          "time": 216,
          "velocity": 0.6692913385826772,
          "duration": 2
        },
        {
          "name": "G3",
          "midi": 55,
          "time": 216,
          "velocity": 0.6692913385826772,
          "duration": 2
        },
        {
          "name": "B3",
          "midi": 59,
          "time": 216,
          "velocity": 0.6692913385826772,
          "duration": 2
        },
        {
          "name": "G4",
          "midi": 67,
          "time": 218,
          "velocity": 0.6692913385826772,
          "duration": 1
        },
        {
          "name": "B4",
          "midi": 71,
          "time": 218,
          "velocity": 0.6692913385826772,
          "duration": 1
        },
        {
          "name": "E3",
          "midi": 52,
          "time": 218,
          "velocity": 0.6692913385826772,
          "duration": 0.25
        },
        {
          "name": "G3",
          "midi": 55,
          "time": 218.25,
          "velocity": 0.6692913385826772,
          "duration": 0.25
        },
        {
          "name": "B3",
          "midi": 59,
          "time": 218.5,
          "velocity": 0.6692913385826772,
          "duration": 0.25
        },
        {
          "name": "E4",
          "midi": 64,
          "time": 218.75,
          "velocity": 0.6692913385826772,
          "duration": 1.25
        },
        {
          "name": "A4",
          "midi": 69,
          "time": 219,
          "velocity": 0.6692913385826772,
          "duration": 0.25
        },
        {
          "name": "B4",
          "midi": 71,
          "time": 219.25,
          "velocity": 0.6692913385826772,
          "duration": 0.5
        },
        {
          "name": "G4",
          "midi": 67,
          "time": 219.75,
          "velocity": 0.6692913385826772,
          "duration": 0.5
        },
        {
          "name": "C5",
          "midi": 72,
          "time": 219.75,
          "velocity": 0.6692913385826772,
          "duration": 0.5
        },
        {
          "name": "E3",
          "midi": 52,
          "time": 220,
          "velocity": 0.6692913385826772,
          "duration": 0.25
        },
        {
          "name": "B4",
          "midi": 71,
          "time": 220.25,
          "velocity": 0.6692913385826772,
          "duration": 0.5
        },
        {
          "name": "G3",
          "midi": 55,
          "time": 220.25,
          "velocity": 0.6692913385826772,
          "duration": 0.25
        },
        {
          "name": "B3",
          "midi": 59,
          "time": 220.5,
          "velocity": 0.6692913385826772,
          "duration": 0.25
        },
        {
          "name": "A4",
          "midi": 69,
          "time": 220.75,
          "velocity": 0.6692913385826772,
          "duration": 0.5
        },
        {
          "name": "E4",
          "midi": 64,
          "time": 220.75,
          "velocity": 0.6692913385826772,
          "duration": 1.25
        },
        {
          "name": "B4",
          "midi": 71,
          "time": 221.25,
          "velocity": 0.6692913385826772,
          "duration": 0.5
        },
        {
          "name": "E4",
          "midi": 64,
          "time": 221.75,
          "velocity": 0.6692913385826772,
          "duration": 1
        },
        {
          "name": "G4",
          "midi": 67,
          "time": 221.75,
          "velocity": 0.6692913385826772,
          "duration": 1
        },
        {
          "name": "C3",
          "midi": 48,
          "time": 222,
          "velocity": 0.6692913385826772,
          "duration": 0.25
        },
        {
          "name": "E3",
          "midi": 52,
          "time": 222.25,
          "velocity": 0.6692913385826772,
          "duration": 0.25
        },
        {
          "name": "G3",
          "midi": 55,
          "time": 222.5,
          "velocity": 0.6692913385826772,
          "duration": 0.25
        },
        {
          "name": "E4",
          "midi": 64,
          "time": 222.75,
          "velocity": 0.6692913385826772,
          "duration": 0.25
        },
        {
          "name": "C4",
          "midi": 60,
          "time": 222.75,
          "velocity": 0.6692913385826772,
          "duration": 1.25
        },
        {
          "name": "F#4",
          "midi": 66,
          "time": 223,
          "velocity": 0.6692913385826772,
          "duration": 0.25
        },
        {
          "name": "G4",
          "midi": 67,
          "time": 223.25,
          "velocity": 0.6692913385826772,
          "duration": 0.5
        },
        {
          "name": "E4",
          "midi": 64,
          "time": 223.75,
          "velocity": 0.6692913385826772,
          "duration": 0.5
        },
        {
          "name": "A4",
          "midi": 69,
          "time": 223.75,
          "velocity": 0.6692913385826772,
          "duration": 0.5
        },
        {
          "name": "C3",
          "midi": 48,
          "time": 224,
          "velocity": 0.6692913385826772,
          "duration": 0.25
        },
        {
          "name": "G4",
          "midi": 67,
          "time": 224.25,
          "velocity": 0.6692913385826772,
          "duration": 0.5
        },
        {
          "name": "E3",
          "midi": 52,
          "time": 224.25,
          "velocity": 0.6692913385826772,
          "duration": 0.25
        },
        {
          "name": "G3",
          "midi": 55,
          "time": 224.5,
          "velocity": 0.6692913385826772,
          "duration": 0.25
        },
        {
          "name": "F#4",
          "midi": 66,
          "time": 224.75,
          "velocity": 0.6692913385826772,
          "duration": 0.5
        },
        {
          "name": "C4",
          "midi": 60,
          "time": 224.75,
          "velocity": 0.6692913385826772,
          "duration": 1.25
        },
        {
          "name": "E4",
          "midi": 64,
          "time": 225.25,
          "velocity": 0.6692913385826772,
          "duration": 0.5
        },
        {
          "name": "G4",
          "midi": 67,
          "time": 225.25,
          "velocity": 0.6692913385826772,
          "duration": 0.5
        },
        {
          "name": "C5",
          "midi": 72,
          "time": 225.25,
          "velocity": 0.6692913385826772,
          "duration": 0.5
        },
        {
          "name": "G4",
          "midi": 67,
          "time": 225.75,
          "velocity": 0.6692913385826772,
          "duration": 1.25
        },
        {
          "name": "B4",
          "midi": 71,
          "time": 225.75,
          "velocity": 0.6692913385826772,
          "duration": 1.25
        },
        {
          "name": "E3",
          "midi": 52,
          "time": 226,
          "velocity": 0.6692913385826772,
          "duration": 0.25
        },
        {
          "name": "G3",
          "midi": 55,
          "time": 226.25,
          "velocity": 0.6692913385826772,
          "duration": 0.25
        },
        {
          "name": "B3",
          "midi": 59,
          "time": 226.5,
          "velocity": 0.6692913385826772,
          "duration": 0.25
        },
        {
          "name": "E4",
          "midi": 64,
          "time": 226.75,
          "velocity": 0.6692913385826772,
          "duration": 1.25
        },
        {
          "name": "A4",
          "midi": 69,
          "time": 227,
          "velocity": 0.6692913385826772,
          "duration": 0.25
        },
        {
          "name": "D5",
          "midi": 74,
          "time": 227.25,
          "velocity": 0.6692913385826772,
          "duration": 0.5
        },
        {
          "name": "G4",
          "midi": 67,
          "time": 227.75,
          "velocity": 0.6692913385826772,
          "duration": 0.375
        },
        {
          "name": "C5",
          "midi": 72,
          "time": 227.75,
          "velocity": 0.6692913385826772,
          "duration": 0.375
        },
        {
          "name": "E3",
          "midi": 52,
          "time": 228,
          "velocity": 0.6692913385826772,
          "duration": 0.25
        },
        {
          "name": "B4",
          "midi": 71,
          "time": 228.25,
          "velocity": 0.6692913385826772,
          "duration": 0.5
        },
        {
          "name": "G3",
          "midi": 55,
          "time": 228.25,
          "velocity": 0.6692913385826772,
          "duration": 0.25
        },
        {
          "name": "B3",
          "midi": 59,
          "time": 228.5,
          "velocity": 0.6692913385826772,
          "duration": 0.25
        },
        {
          "name": "A4",
          "midi": 69,
          "time": 228.75,
          "velocity": 0.6692913385826772,
          "duration": 0.5
        },
        {
          "name": "E4",
          "midi": 64,
          "time": 228.75,
          "velocity": 0.6692913385826772,
          "duration": 1.25
        },
        {
          "name": "B4",
          "midi": 71,
          "time": 229.25,
          "velocity": 0.6692913385826772,
          "duration": 0.5
        },
        {
          "name": "E4",
          "midi": 64,
          "time": 229.75,
          "velocity": 0.6692913385826772,
          "duration": 1.25
        },
        {
          "name": "G4",
          "midi": 67,
          "time": 229.75,
          "velocity": 0.6692913385826772,
          "duration": 1.25
        },
        {
          "name": "C2",
          "midi": 36,
          "time": 230,
          "velocity": 0.6692913385826772,
          "duration": 0.25
        },
        {
          "name": "E2",
          "midi": 40,
          "time": 230.25,
          "velocity": 0.6692913385826772,
          "duration": 0.25
        },
        {
          "name": "G2",
          "midi": 43,
          "time": 230.5,
          "velocity": 0.6692913385826772,
          "duration": 0.25
        },
        {
          "name": "C3",
          "midi": 48,
          "time": 230.75,
          "velocity": 0.6692913385826772,
          "duration": 0.5
        },
        {
          "name": "E4",
          "midi": 64,
          "time": 231,
          "velocity": 0.6692913385826772,
          "duration": 1
        },
        {
          "name": "G4",
          "midi": 67,
          "time": 231,
          "velocity": 0.6692913385826772,
          "duration": 1
        },
        {
          "name": "C3",
          "midi": 48,
          "time": 231.25,
          "velocity": 0.6692913385826772,
          "duration": 0.25
        },
        {
          "name": "G2",
          "midi": 43,
          "time": 231.5,
          "velocity": 0.6692913385826772,
          "duration": 0.25
        },
        {
          "name": "E2",
          "midi": 40,
          "time": 231.75,
          "velocity": 0.6692913385826772,
          "duration": 0.25
        },
        {
          "name": "D4",
          "midi": 62,
          "time": 232,
          "velocity": 0.6692913385826772,
          "duration": 1.75
        },
        {
          "name": "F#4",
          "midi": 66,
          "time": 232,
          "velocity": 0.6692913385826772,
          "duration": 1.75
        },
        {
          "name": "D2",
          "midi": 38,
          "time": 232,
          "velocity": 0.6692913385826772,
          "duration": 0.25
        },
        {
          "name": "F#2",
          "midi": 42,
          "time": 232.25,
          "velocity": 0.6692913385826772,
          "duration": 0.25
        },
        {
          "name": "A2",
          "midi": 45,
          "time": 232.5,
          "velocity": 0.6692913385826772,
          "duration": 0.25
        },
        {
          "name": "D3",
          "midi": 50,
          "time": 232.75,
          "velocity": 0.6692913385826772,
          "duration": 0.25
        },
        {
          "name": "F#3",
          "midi": 54,
          "time": 233,
          "velocity": 0.6692913385826772,
          "duration": 0.25
        },
        {
          "name": "D3",
          "midi": 50,
          "time": 233.25,
          "velocity": 0.6692913385826772,
          "duration": 0.25
        },
        {
          "name": "A2",
          "midi": 45,
          "time": 233.5,
          "velocity": 0.6692913385826772,
          "duration": 0.25
        },
        {
          "name": "E4",
          "midi": 64,
          "time": 233.75,
          "velocity": 0.6692913385826772,
          "duration": 0.25
        },
        {
          "name": "F#2",
          "midi": 42,
          "time": 233.75,
          "velocity": 0.6692913385826772,
          "duration": 0.25
        },
        {
          "name": "B3",
          "midi": 59,
          "time": 234,
          "velocity": 0.6692913385826772,
          "duration": 2
        },
        {
          "name": "E4",
          "midi": 64,
          "time": 234,
          "velocity": 0.6692913385826772,
          "duration": 2
        },
        {
          "name": "E2",
          "midi": 40,
          "time": 234,
          "velocity": 0.6692913385826772,
          "duration": 2
        },
        {
          "name": "G2",
          "midi": 43,
          "time": 234,
          "velocity": 0.6692913385826772,
          "duration": 2
        },
        {
          "name": "B2",
          "midi": 47,
          "time": 234,
          "velocity": 0.6692913385826772,
          "duration": 2
        },
        {
          "name": "C2",
          "midi": 36,
          "time": 236,
          "velocity": 0.6692913385826772,
          "duration": 0.25
        },
        {
          "name": "G2",
          "midi": 43,
          "time": 236.25,
          "velocity": 0.6692913385826772,
          "duration": 0.25
        },
        {
          "name": "C3",
          "midi": 48,
          "time": 236.5,
          "velocity": 0.6692913385826772,
          "duration": 0.25
        },
        {
          "name": "E3",
          "midi": 52,
          "time": 236.75,
          "velocity": 0.6692913385826772,
          "duration": 0.25
        },
        {
          "name": "C4",
          "midi": 60,
          "time": 237,
          "velocity": 0.6692913385826772,
          "duration": 1
        },
        {
          "name": "E4",
          "midi": 64,
          "time": 237,
          "velocity": 0.6692913385826772,
          "duration": 1
        },
        {
          "name": "G4",
          "midi": 67,
          "time": 237,
          "velocity": 0.6692913385826772,
          "duration": 1
        },
        {
          "name": "G3",
          "midi": 55,
          "time": 237,
          "velocity": 0.6692913385826772,
          "duration": 0.25
        },
        {
          "name": "E3",
          "midi": 52,
          "time": 237.25,
          "velocity": 0.6692913385826772,
          "duration": 0.25
        },
        {
          "name": "C3",
          "midi": 48,
          "time": 237.5,
          "velocity": 0.6692913385826772,
          "duration": 0.25
        },
        {
          "name": "G2",
          "midi": 43,
          "time": 237.75,
          "velocity": 0.6692913385826772,
          "duration": 0.25
        },
        {
          "name": "D4",
          "midi": 62,
          "time": 238,
          "velocity": 0.6692913385826772,
          "duration": 1
        },
        {
          "name": "F#4",
          "midi": 66,
          "time": 238,
          "velocity": 0.6692913385826772,
          "duration": 1
        },
        {
          "name": "D2",
          "midi": 38,
          "time": 238,
          "velocity": 0.6692913385826772,
          "duration": 0.25
        },
        {
          "name": "A2",
          "midi": 45,
          "time": 238.25,
          "velocity": 0.6692913385826772,
          "duration": 0.25
        },
        {
          "name": "D3",
          "midi": 50,
          "time": 238.5,
          "velocity": 0.6692913385826772,
          "duration": 0.25
        },
        {
          "name": "F#3",
          "midi": 54,
          "time": 238.75,
          "velocity": 0.6692913385826772,
          "duration": 0.25
        },
        {
          "name": "D4",
          "midi": 62,
          "time": 239,
          "velocity": 0.6692913385826772,
          "duration": 1
        },
        {
          "name": "A3",
          "midi": 57,
          "time": 239,
          "velocity": 0.6692913385826772,
          "duration": 0.25
        },
        {
          "name": "F#3",
          "midi": 54,
          "time": 239.25,
          "velocity": 0.6692913385826772,
          "duration": 0.25
        },
        {
          "name": "D3",
          "midi": 50,
          "time": 239.5,
          "velocity": 0.6692913385826772,
          "duration": 0.25
        },
        {
          "name": "A2",
          "midi": 45,
          "time": 239.75,
          "velocity": 0.6692913385826772,
          "duration": 0.25
        },
        {
          "name": "B3",
          "midi": 59,
          "time": 240,
          "velocity": 0.6692913385826772,
          "duration": 2
        },
        {
          "name": "E4",
          "midi": 64,
          "time": 240,
          "velocity": 0.6692913385826772,
          "duration": 2
        },
        {
          "name": "E2",
          "midi": 40,
          "time": 240,
          "velocity": 0.6692913385826772,
          "duration": 0.25
        },
        {
          "name": "G2",
          "midi": 43,
          "time": 240.25,
          "velocity": 0.6692913385826772,
          "duration": 0.25
        },
        {
          "name": "B2",
          "midi": 47,
          "time": 240.5,
          "velocity": 0.6692913385826772,
          "duration": 0.25
        },
        {
          "name": "E3",
          "midi": 52,
          "time": 240.75,
          "velocity": 0.6692913385826772,
          "duration": 0.25
        },
        {
          "name": "G3",
          "midi": 55,
          "time": 241,
          "velocity": 0.6692913385826772,
          "duration": 0.25
        },
        {
          "name": "E3",
          "midi": 52,
          "time": 241.25,
          "velocity": 0.6692913385826772,
          "duration": 0.25
        },
        {
          "name": "B2",
          "midi": 47,
          "time": 241.5,
          "velocity": 0.6692913385826772,
          "duration": 0.25
        },
        {
          "name": "G2",
          "midi": 43,
          "time": 241.75,
          "velocity": 0.6692913385826772,
          "duration": 0.25
        },
        {
          "name": "E2",
          "midi": 40,
          "time": 242,
          "velocity": 0.6692913385826772,
          "duration": 0.25
        },
        {
          "name": "G2",
          "midi": 43,
          "time": 242.25,
          "velocity": 0.6692913385826772,
          "duration": 0.25
        },
        {
          "name": "B2",
          "midi": 47,
          "time": 242.5,
          "velocity": 0.6692913385826772,
          "duration": 0.25
        },
        {
          "name": "E3",
          "midi": 52,
          "time": 242.75,
          "velocity": 0.6692913385826772,
          "duration": 0.25
        },
        {
          "name": "G3",
          "midi": 55,
          "time": 243,
          "velocity": 0.6692913385826772,
          "duration": 0.25
        },
        {
          "name": "E3",
          "midi": 52,
          "time": 243.25,
          "velocity": 0.6692913385826772,
          "duration": 0.25
        },
        {
          "name": "B2",
          "midi": 47,
          "time": 243.5,
          "velocity": 0.6692913385826772,
          "duration": 0.25
        },
        {
          "name": "G2",
          "midi": 43,
          "time": 243.75,
          "velocity": 0.6692913385826772,
          "duration": 0.25
        },
        {
          "name": "C2",
          "midi": 36,
          "time": 244,
          "velocity": 0.6692913385826772,
          "duration": 0.25
        },
        {
          "name": "G2",
          "midi": 43,
          "time": 244.25,
          "velocity": 0.6692913385826772,
          "duration": 0.25
        },
        {
          "name": "C3",
          "midi": 48,
          "time": 244.5,
          "velocity": 0.6692913385826772,
          "duration": 0.25
        },
        {
          "name": "E3",
          "midi": 52,
          "time": 244.75,
          "velocity": 0.6692913385826772,
          "duration": 0.25
        },
        {
          "name": "C4",
          "midi": 60,
          "time": 245,
          "velocity": 0.6692913385826772,
          "duration": 1
        },
        {
          "name": "E4",
          "midi": 64,
          "time": 245,
          "velocity": 0.6692913385826772,
          "duration": 1
        },
        {
          "name": "G4",
          "midi": 67,
          "time": 245,
          "velocity": 0.6692913385826772,
          "duration": 1
        },
        {
          "name": "G3",
          "midi": 55,
          "time": 245,
          "velocity": 0.6692913385826772,
          "duration": 0.25
        },
        {
          "name": "E3",
          "midi": 52,
          "time": 245.25,
          "velocity": 0.6692913385826772,
          "duration": 0.25
        },
        {
          "name": "C3",
          "midi": 48,
          "time": 245.5,
          "velocity": 0.6692913385826772,
          "duration": 0.25
        },
        {
          "name": "G2",
          "midi": 43,
          "time": 245.75,
          "velocity": 0.6692913385826772,
          "duration": 0.25
        },
        {
          "name": "D4",
          "midi": 62,
          "time": 246,
          "velocity": 0.6692913385826772,
          "duration": 1
        },
        {
          "name": "F#4",
          "midi": 66,
          "time": 246,
          "velocity": 0.6692913385826772,
          "duration": 1
        },
        {
          "name": "A4",
          "midi": 69,
          "time": 246,
          "velocity": 0.6692913385826772,
          "duration": 1
        },
        {
          "name": "D2",
          "midi": 38,
          "time": 246,
          "velocity": 0.6692913385826772,
          "duration": 0.25
        },
        {
          "name": "A2",
          "midi": 45,
          "time": 246.25,
          "velocity": 0.6692913385826772,
          "duration": 0.25
        },
        {
          "name": "D3",
          "midi": 50,
          "time": 246.5,
          "velocity": 0.6692913385826772,
          "duration": 0.25
        },
        {
          "name": "F#3",
          "midi": 54,
          "time": 246.75,
          "velocity": 0.6692913385826772,
          "duration": 0.25
        },
        {
          "name": "D4",
          "midi": 62,
          "time": 247,
          "velocity": 0.6692913385826772,
          "duration": 1
        },
        {
          "name": "G4",
          "midi": 67,
          "time": 247,
          "velocity": 0.6692913385826772,
          "duration": 1
        },
        {
          "name": "A3",
          "midi": 57,
          "time": 247,
          "velocity": 0.6692913385826772,
          "duration": 0.25
        },
        {
          "name": "F#3",
          "midi": 54,
          "time": 247.25,
          "velocity": 0.6692913385826772,
          "duration": 0.25
        },
        {
          "name": "D3",
          "midi": 50,
          "time": 247.5,
          "velocity": 0.6692913385826772,
          "duration": 0.25
        },
        {
          "name": "A2",
          "midi": 45,
          "time": 247.75,
          "velocity": 0.6692913385826772,
          "duration": 0.25
        },
        {
          "name": "B3",
          "midi": 59,
          "time": 248,
          "velocity": 0.6692913385826772,
          "duration": 2
        },
        {
          "name": "E4",
          "midi": 64,
          "time": 248,
          "velocity": 0.6692913385826772,
          "duration": 2
        },
        {
          "name": "E2",
          "midi": 40,
          "time": 248,
          "velocity": 0.6692913385826772,
          "duration": 0.25
        },
        {
          "name": "G2",
          "midi": 43,
          "time": 248.25,
          "velocity": 0.6692913385826772,
          "duration": 0.25
        },
        {
          "name": "B2",
          "midi": 47,
          "time": 248.5,
          "velocity": 0.6692913385826772,
          "duration": 0.25
        },
        {
          "name": "E3",
          "midi": 52,
          "time": 248.75,
          "velocity": 0.6692913385826772,
          "duration": 0.25
        },
        {
          "name": "G3",
          "midi": 55,
          "time": 249,
          "velocity": 0.6692913385826772,
          "duration": 0.25
        },
        {
          "name": "E3",
          "midi": 52,
          "time": 249.25,
          "velocity": 0.6692913385826772,
          "duration": 0.25
        },
        {
          "name": "B2",
          "midi": 47,
          "time": 249.5,
          "velocity": 0.6692913385826772,
          "duration": 0.25
        },
        {
          "name": "G2",
          "midi": 43,
          "time": 249.75,
          "velocity": 0.6692913385826772,
          "duration": 0.25
        },
        {
          "name": "E4",
          "midi": 64,
          "time": 250,
          "velocity": 0.6692913385826772,
          "duration": 0.5
        },
        {
          "name": "E2",
          "midi": 40,
          "time": 250,
          "velocity": 0.6692913385826772,
          "duration": 0.5
        },
        {
          "name": "F#4",
          "midi": 66,
          "time": 250.5,
          "velocity": 0.6692913385826772,
          "duration": 0.5
        },
        {
          "name": "F#2",
          "midi": 42,
          "time": 250.5,
          "velocity": 0.6692913385826772,
          "duration": 0.5
        },
        {
          "name": "G4",
          "midi": 67,
          "time": 251,
          "velocity": 0.6692913385826772,
          "duration": 0.5
        },
        {
          "name": "G2",
          "midi": 43,
          "time": 251,
          "velocity": 0.6692913385826772,
          "duration": 0.5
        },
        {
          "name": "B4",
          "midi": 71,
          "time": 251.5,
          "velocity": 0.6692913385826772,
          "duration": 0.5
        },
        {
          "name": "B2",
          "midi": 47,
          "time": 251.5,
          "velocity": 0.6692913385826772,
          "duration": 0.5
        },
        {
          "name": "E4",
          "midi": 64,
          "time": 252,
          "velocity": 0.6692913385826772,
          "duration": 1
        },
        {
          "name": "A4",
          "midi": 69,
          "time": 252,
          "velocity": 0.6692913385826772,
          "duration": 1
        },
        {
          "name": "C5",
          "midi": 72,
          "time": 252,
          "velocity": 0.6692913385826772,
          "duration": 1
        },
        {
          "name": "A2",
          "midi": 45,
          "time": 252,
          "velocity": 0.6692913385826772,
          "duration": 0.75
        },
        {
          "name": "C3",
          "midi": 48,
          "time": 252.75,
          "velocity": 0.6692913385826772,
          "duration": 0.25
        },
        {
          "name": "E3",
          "midi": 52,
          "time": 253,
          "velocity": 0.6692913385826772,
          "duration": 1
        },
        {
          "name": "A3",
          "midi": 57,
          "time": 253,
          "velocity": 0.6692913385826772,
          "duration": 1
        },
        {
          "name": "B4",
          "midi": 71,
          "time": 253.25,
          "velocity": 0.6692913385826772,
          "duration": 0.25
        },
        {
          "name": "A4",
          "midi": 69,
          "time": 253.5,
          "velocity": 0.6692913385826772,
          "duration": 0.25
        },
        {
          "name": "G4",
          "midi": 67,
          "time": 253.75,
          "velocity": 0.6692913385826772,
          "duration": 0.75
        },
        {
          "name": "B4",
          "midi": 71,
          "time": 253.75,
          "velocity": 0.6692913385826772,
          "duration": 0.75
        },
        {
          "name": "G2",
          "midi": 43,
          "time": 254,
          "velocity": 0.6692913385826772,
          "duration": 0.75
        },
        {
          "name": "G4",
          "midi": 67,
          "time": 254.5,
          "velocity": 0.6692913385826772,
          "duration": 0.25
        },
        {
          "name": "A4",
          "midi": 69,
          "time": 254.75,
          "velocity": 0.6692913385826772,
          "duration": 0.5
        },
        {
          "name": "B2",
          "midi": 47,
          "time": 254.75,
          "velocity": 0.6692913385826772,
          "duration": 0.25
        },
        {
          "name": "D3",
          "midi": 50,
          "time": 255,
          "velocity": 0.6692913385826772,
          "duration": 1
        },
        {
          "name": "G3",
          "midi": 55,
          "time": 255,
          "velocity": 0.6692913385826772,
          "duration": 1
        },
        {
          "name": "B4",
          "midi": 71,
          "time": 255.25,
          "velocity": 0.6692913385826772,
          "duration": 0.5
        },
        {
          "name": "F#4",
          "midi": 66,
          "time": 255.75,
          "velocity": 0.6692913385826772,
          "duration": 0.75
        },
        {
          "name": "A4",
          "midi": 69,
          "time": 255.75,
          "velocity": 0.6692913385826772,
          "duration": 0.75
        },
        {
          "name": "F#2",
          "midi": 42,
          "time": 256,
          "velocity": 0.6692913385826772,
          "duration": 0.75
        },
        {
          "name": "G4",
          "midi": 67,
          "time": 256.5,
          "velocity": 0.6692913385826772,
          "duration": 0.25
        },
        {
          "name": "A4",
          "midi": 69,
          "time": 256.75,
          "velocity": 0.6692913385826772,
          "duration": 0.5
        },
        {
          "name": "A2",
          "midi": 45,
          "time": 256.75,
          "velocity": 0.6692913385826772,
          "duration": 0.25
        },
        {
          "name": "F#3",
          "midi": 54,
          "time": 257,
          "velocity": 0.6692913385826772,
          "duration": 1
        },
        {
          "name": "A3",
          "midi": 57,
          "time": 257,
          "velocity": 0.6692913385826772,
          "duration": 1
        },
        {
          "name": "B4",
          "midi": 71,
          "time": 257.25,
          "velocity": 0.6692913385826772,
          "duration": 0.5
        },
        {
          "name": "E4",
          "midi": 64,
          "time": 257.75,
          "velocity": 0.6692913385826772,
          "duration": 1
        },
        {
          "name": "G4",
          "midi": 67,
          "time": 257.75,
          "velocity": 0.6692913385826772,
          "duration": 1
        },
        {
          "name": "B4",
          "midi": 71,
          "time": 257.75,
          "velocity": 0.6692913385826772,
          "duration": 1
        },
        {
          "name": "E2",
          "midi": 40,
          "time": 258,
          "velocity": 0.6692913385826772,
          "duration": 0.5
        },
        {
          "name": "F#2",
          "midi": 42,
          "time": 258.5,
          "velocity": 0.6692913385826772,
          "duration": 0.5
        },
        {
          "name": "A4",
          "midi": 69,
          "time": 258.75,
          "velocity": 0.6692913385826772,
          "duration": 0.5
        },
        {
          "name": "G2",
          "midi": 43,
          "time": 259,
          "velocity": 0.6692913385826772,
          "duration": 0.5
        },
        {
          "name": "B4",
          "midi": 71,
          "time": 259.25,
          "velocity": 0.6692913385826772,
          "duration": 0.75
        },
        {
          "name": "B2",
          "midi": 47,
          "time": 259.5,
          "velocity": 0.6692913385826772,
          "duration": 0.5
        },
        {
          "name": "E4",
          "midi": 64,
          "time": 260,
          "velocity": 0.6692913385826772,
          "duration": 1
        },
        {
          "name": "A4",
          "midi": 69,
          "time": 260,
          "velocity": 0.6692913385826772,
          "duration": 1
        },
        {
          "name": "C5",
          "midi": 72,
          "time": 260,
          "velocity": 0.6692913385826772,
          "duration": 1
        },
        {
          "name": "A2",
          "midi": 45,
          "time": 260,
          "velocity": 0.6692913385826772,
          "duration": 0.75
        },
        {
          "name": "C3",
          "midi": 48,
          "time": 260.75,
          "velocity": 0.6692913385826772,
          "duration": 0.25
        },
        {
          "name": "E3",
          "midi": 52,
          "time": 261,
          "velocity": 0.6692913385826772,
          "duration": 1
        },
        {
          "name": "A3",
          "midi": 57,
          "time": 261,
          "velocity": 0.6692913385826772,
          "duration": 1
        },
        {
          "name": "B4",
          "midi": 71,
          "time": 261.25,
          "velocity": 0.6692913385826772,
          "duration": 0.25
        },
        {
          "name": "A4",
          "midi": 69,
          "time": 261.5,
          "velocity": 0.6692913385826772,
          "duration": 0.25
        },
        {
          "name": "G4",
          "midi": 67,
          "time": 261.75,
          "velocity": 0.6692913385826772,
          "duration": 0.75
        },
        {
          "name": "B4",
          "midi": 71,
          "time": 261.75,
          "velocity": 0.6692913385826772,
          "duration": 0.75
        },
        {
          "name": "G2",
          "midi": 43,
          "time": 262,
          "velocity": 0.6692913385826772,
          "duration": 0.75
        },
        {
          "name": "G4",
          "midi": 67,
          "time": 262.5,
          "velocity": 0.6692913385826772,
          "duration": 0.25
        },
        {
          "name": "A4",
          "midi": 69,
          "time": 262.75,
          "velocity": 0.6692913385826772,
          "duration": 0.5
        },
        {
          "name": "B2",
          "midi": 47,
          "time": 262.75,
          "velocity": 0.6692913385826772,
          "duration": 0.25
        },
        {
          "name": "D3",
          "midi": 50,
          "time": 263,
          "velocity": 0.6692913385826772,
          "duration": 1
        },
        {
          "name": "G3",
          "midi": 55,
          "time": 263,
          "velocity": 0.6692913385826772,
          "duration": 1
        },
        {
          "name": "B4",
          "midi": 71,
          "time": 263.25,
          "velocity": 0.6692913385826772,
          "duration": 0.5
        },
        {
          "name": "F#4",
          "midi": 66,
          "time": 263.75,
          "velocity": 0.6692913385826772,
          "duration": 0.75
        },
        {
          "name": "A4",
          "midi": 69,
          "time": 263.75,
          "velocity": 0.6692913385826772,
          "duration": 0.75
        },
        {
          "name": "F#2",
          "midi": 42,
          "time": 264,
          "velocity": 0.6692913385826772,
          "duration": 0.75
        },
        {
          "name": "G4",
          "midi": 67,
          "time": 264.5,
          "velocity": 0.6692913385826772,
          "duration": 0.25
        },
        {
          "name": "A4",
          "midi": 69,
          "time": 264.75,
          "velocity": 0.6692913385826772,
          "duration": 0.5
        },
        {
          "name": "A2",
          "midi": 45,
          "time": 264.75,
          "velocity": 0.6692913385826772,
          "duration": 0.25
        },
        {
          "name": "F#3",
          "midi": 54,
          "time": 265,
          "velocity": 0.6692913385826772,
          "duration": 1
        },
        {
          "name": "A3",
          "midi": 57,
          "time": 265,
          "velocity": 0.6692913385826772,
          "duration": 1
        },
        {
          "name": "C5",
          "midi": 72,
          "time": 265.25,
          "velocity": 0.6692913385826772,
          "duration": 0.5
        },
        {
          "name": "E4",
          "midi": 64,
          "time": 265.75,
          "velocity": 0.6692913385826772,
          "duration": 2.25
        },
        {
          "name": "G4",
          "midi": 67,
          "time": 265.75,
          "velocity": 0.6692913385826772,
          "duration": 2.25
        },
        {
          "name": "B4",
          "midi": 71,
          "time": 265.75,
          "velocity": 0.6692913385826772,
          "duration": 2.25
        },
        {
          "name": "E3",
          "midi": 52,
          "time": 266,
          "velocity": 0.6692913385826772,
          "duration": 2
        },
        {
          "name": "E3",
          "midi": 52,
          "time": 268,
          "velocity": 0.6692913385826772,
          "duration": 0.25
        },
        {
          "name": "G3",
          "midi": 55,
          "time": 268.25,
          "velocity": 0.6692913385826772,
          "duration": 0.25
        },
        {
          "name": "B3",
          "midi": 59,
          "time": 268.5,
          "velocity": 0.6692913385826772,
          "duration": 0.25
        },
        {
          "name": "E4",
          "midi": 64,
          "time": 268.75,
          "velocity": 0.6692913385826772,
          "duration": 0.75
        },
        {
          "name": "B4",
          "midi": 71,
          "time": 269,
          "velocity": 0.6692913385826772,
          "duration": 0.25
        },
        {
          "name": "B4",
          "midi": 71,
          "time": 269.25,
          "velocity": 0.6692913385826772,
          "duration": 0.125
        },
        {
          "name": "B4",
          "midi": 71,
          "time": 269.375,
          "velocity": 0.6692913385826772,
          "duration": 0.375
        },
        {
          "name": "E3",
          "midi": 52,
          "time": 269.5,
          "velocity": 0.6692913385826772,
          "duration": 0.5
        },
        {
          "name": "A4",
          "midi": 69,
          "time": 269.75,
          "velocity": 0.6692913385826772,
          "duration": 0.25
        },
        {
          "name": "E4",
          "midi": 64,
          "time": 270,
          "velocity": 0.6692913385826772,
          "duration": 1
        },
        {
          "name": "A4",
          "midi": 69,
          "time": 270,
          "velocity": 0.6692913385826772,
          "duration": 1
        },
        {
          "name": "C3",
          "midi": 48,
          "time": 270,
          "velocity": 0.6692913385826772,
          "duration": 0.25
        },
        {
          "name": "E3",
          "midi": 52,
          "time": 270.25,
          "velocity": 0.6692913385826772,
          "duration": 0.25
        },
        {
          "name": "G3",
          "midi": 55,
          "time": 270.5,
          "velocity": 0.6692913385826772,
          "duration": 0.25
        },
        {
          "name": "C4",
          "midi": 60,
          "time": 270.75,
          "velocity": 0.6692913385826772,
          "duration": 0.75
        },
        {
          "name": "B4",
          "midi": 71,
          "time": 271,
          "velocity": 0.6692913385826772,
          "duration": 0.25
        },
        {
          "name": "B4",
          "midi": 71,
          "time": 271.25,
          "velocity": 0.6692913385826772,
          "duration": 0.125
        },
        {
          "name": "B4",
          "midi": 71,
          "time": 271.375,
          "velocity": 0.6692913385826772,
          "duration": 0.375
        },
        {
          "name": "G3",
          "midi": 55,
          "time": 271.5,
          "velocity": 0.6692913385826772,
          "duration": 0.5
        },
        {
          "name": "A4",
          "midi": 69,
          "time": 271.75,
          "velocity": 0.6692913385826772,
          "duration": 0.25
        },
        {
          "name": "F#4",
          "midi": 66,
          "time": 272,
          "velocity": 0.6692913385826772,
          "duration": 1
        },
        {
          "name": "A4",
          "midi": 69,
          "time": 272,
          "velocity": 0.6692913385826772,
          "duration": 1
        },
        {
          "name": "D3",
          "midi": 50,
          "time": 272,
          "velocity": 0.6692913385826772,
          "duration": 0.25
        },
        {
          "name": "F#3",
          "midi": 54,
          "time": 272.25,
          "velocity": 0.6692913385826772,
          "duration": 0.25
        },
        {
          "name": "A3",
          "midi": 57,
          "time": 272.5,
          "velocity": 0.6692913385826772,
          "duration": 0.25
        },
        {
          "name": "D4",
          "midi": 62,
          "time": 272.75,
          "velocity": 0.6692913385826772,
          "duration": 0.75
        },
        {
          "name": "C5",
          "midi": 72,
          "time": 273,
          "velocity": 0.6692913385826772,
          "duration": 0.25
        },
        {
          "name": "B4",
          "midi": 71,
          "time": 273.25,
          "velocity": 0.6692913385826772,
          "duration": 0.125
        },
        {
          "name": "A4",
          "midi": 69,
          "time": 273.375,
          "velocity": 0.6692913385826772,
          "duration": 0.375
        },
        {
          "name": "D3",
          "midi": 50,
          "time": 273.5,
          "velocity": 0.6692913385826772,
          "duration": 0.5
        },
        {
          "name": "G4",
          "midi": 67,
          "time": 273.75,
          "velocity": 0.6692913385826772,
          "duration": 0.25
        },
        {
          "name": "E4",
          "midi": 64,
          "time": 274,
          "velocity": 0.6692913385826772,
          "duration": 0.5
        },
        {
          "name": "G4",
          "midi": 67,
          "time": 274,
          "velocity": 0.6692913385826772,
          "duration": 0.5
        },
        {
          "name": "C5",
          "midi": 72,
          "time": 274,
          "velocity": 0.6692913385826772,
          "duration": 0.5
        },
        {
          "name": "E3",
          "midi": 52,
          "time": 274,
          "velocity": 0.6692913385826772,
          "duration": 0.25
        },
        {
          "name": "G3",
          "midi": 55,
          "time": 274.25,
          "velocity": 0.6692913385826772,
          "duration": 0.25
        },
        {
          "name": "G4",
          "midi": 67,
          "time": 274.5,
          "velocity": 0.6692913385826772,
          "duration": 0.5
        },
        {
          "name": "B4",
          "midi": 71,
          "time": 274.5,
          "velocity": 0.6692913385826772,
          "duration": 0.5
        },
        {
          "name": "B3",
          "midi": 59,
          "time": 274.5,
          "velocity": 0.6692913385826772,
          "duration": 0.25
        },
        {
          "name": "E4",
          "midi": 64,
          "time": 274.75,
          "velocity": 0.6692913385826772,
          "duration": 1.25
        },
        {
          "name": "A4",
          "midi": 69,
          "time": 275,
          "velocity": 0.6692913385826772,
          "duration": 0.5
        },
        {
          "name": "G4",
          "midi": 67,
          "time": 275.5,
          "velocity": 0.6692913385826772,
          "duration": 0.5
        },
        {
          "name": "B4",
          "midi": 71,
          "time": 275.5,
          "velocity": 0.6692913385826772,
          "duration": 0.5
        },
        {
          "name": "E4",
          "midi": 64,
          "time": 276,
          "velocity": 0.6692913385826772,
          "duration": 1
        },
        {
          "name": "G4",
          "midi": 67,
          "time": 276,
          "velocity": 0.6692913385826772,
          "duration": 1
        },
        {
          "name": "E3",
          "midi": 52,
          "time": 276,
          "velocity": 0.6692913385826772,
          "duration": 0.25
        },
        {
          "name": "G3",
          "midi": 55,
          "time": 276.25,
          "velocity": 0.6692913385826772,
          "duration": 0.25
        },
        {
          "name": "B3",
          "midi": 59,
          "time": 276.5,
          "velocity": 0.6692913385826772,
          "duration": 0.25
        },
        {
          "name": "E4",
          "midi": 64,
          "time": 276.75,
          "velocity": 0.6692913385826772,
          "duration": 1.25
        },
        {
          "name": "B4",
          "midi": 71,
          "time": 277,
          "velocity": 0.6692913385826772,
          "duration": 0.25
        },
        {
          "name": "B4",
          "midi": 71,
          "time": 277.25,
          "velocity": 0.6692913385826772,
          "duration": 0.125
        },
        {
          "name": "B4",
          "midi": 71,
          "time": 277.375,
          "velocity": 0.6692913385826772,
          "duration": 0.375
        },
        {
          "name": "A4",
          "midi": 69,
          "time": 277.75,
          "velocity": 0.6692913385826772,
          "duration": 0.25
        },
        {
          "name": "E4",
          "midi": 64,
          "time": 278,
          "velocity": 0.6692913385826772,
          "duration": 1
        },
        {
          "name": "A4",
          "midi": 69,
          "time": 278,
          "velocity": 0.6692913385826772,
          "duration": 1
        },
        {
          "name": "C3",
          "midi": 48,
          "time": 278,
          "velocity": 0.6692913385826772,
          "duration": 0.25
        },
        {
          "name": "E3",
          "midi": 52,
          "time": 278.25,
          "velocity": 0.6692913385826772,
          "duration": 0.25
        },
        {
          "name": "G3",
          "midi": 55,
          "time": 278.5,
          "velocity": 0.6692913385826772,
          "duration": 0.25
        },
        {
          "name": "C4",
          "midi": 60,
          "time": 278.75,
          "velocity": 0.6692913385826772,
          "duration": 0.75
        },
        {
          "name": "B4",
          "midi": 71,
          "time": 279,
          "velocity": 0.6692913385826772,
          "duration": 0.25
        },
        {
          "name": "B4",
          "midi": 71,
          "time": 279.25,
          "velocity": 0.6692913385826772,
          "duration": 0.125
        },
        {
          "name": "B4",
          "midi": 71,
          "time": 279.375,
          "velocity": 0.6692913385826772,
          "duration": 0.375
        },
        {
          "name": "G3",
          "midi": 55,
          "time": 279.5,
          "velocity": 0.6692913385826772,
          "duration": 0.5
        },
        {
          "name": "A4",
          "midi": 69,
          "time": 279.75,
          "velocity": 0.6692913385826772,
          "duration": 0.25
        },
        {
          "name": "F#4",
          "midi": 66,
          "time": 280,
          "velocity": 0.6692913385826772,
          "duration": 1
        },
        {
          "name": "A4",
          "midi": 69,
          "time": 280,
          "velocity": 0.6692913385826772,
          "duration": 1
        },
        {
          "name": "D3",
          "midi": 50,
          "time": 280,
          "velocity": 0.6692913385826772,
          "duration": 0.25
        },
        {
          "name": "F#3",
          "midi": 54,
          "time": 280.25,
          "velocity": 0.6692913385826772,
          "duration": 0.25
        },
        {
          "name": "A3",
          "midi": 57,
          "time": 280.5,
          "velocity": 0.6692913385826772,
          "duration": 0.25
        },
        {
          "name": "D4",
          "midi": 62,
          "time": 280.75,
          "velocity": 0.6692913385826772,
          "duration": 0.75
        },
        {
          "name": "C5",
          "midi": 72,
          "time": 281,
          "velocity": 0.6692913385826772,
          "duration": 0.25
        },
        {
          "name": "B4",
          "midi": 71,
          "time": 281.25,
          "velocity": 0.6692913385826772,
          "duration": 0.125
        },
        {
          "name": "A4",
          "midi": 69,
          "time": 281.375,
          "velocity": 0.6692913385826772,
          "duration": 0.375
        },
        {
          "name": "D3",
          "midi": 50,
          "time": 281.5,
          "velocity": 0.6692913385826772,
          "duration": 0.5
        },
        {
          "name": "G4",
          "midi": 67,
          "time": 281.75,
          "velocity": 0.6692913385826772,
          "duration": 0.25
        },
        {
          "name": "G4",
          "midi": 67,
          "time": 282,
          "velocity": 0.6692913385826772,
          "duration": 0.5
        },
        {
          "name": "C5",
          "midi": 72,
          "time": 282,
          "velocity": 0.6692913385826772,
          "duration": 0.5
        },
        {
          "name": "E3",
          "midi": 52,
          "time": 282,
          "velocity": 0.6692913385826772,
          "duration": 0.25
        },
        {
          "name": "G3",
          "midi": 55,
          "time": 282.25,
          "velocity": 0.6692913385826772,
          "duration": 0.25
        },
        {
          "name": "G4",
          "midi": 67,
          "time": 282.5,
          "velocity": 0.6692913385826772,
          "duration": 0.5
        },
        {
          "name": "B4",
          "midi": 71,
          "time": 282.5,
          "velocity": 0.6692913385826772,
          "duration": 0.5
        },
        {
          "name": "B3",
          "midi": 59,
          "time": 282.5,
          "velocity": 0.6692913385826772,
          "duration": 0.25
        },
        {
          "name": "E4",
          "midi": 64,
          "time": 282.75,
          "velocity": 0.6692913385826772,
          "duration": 1.25
        },
        {
          "name": "A4",
          "midi": 69,
          "time": 283,
          "velocity": 0.6692913385826772,
          "duration": 0.5
        },
        {
          "name": "G4",
          "midi": 67,
          "time": 283.5,
          "velocity": 0.6692913385826772,
          "duration": 0.5
        },
        {
          "name": "B4",
          "midi": 71,
          "time": 283.5,
          "velocity": 0.6692913385826772,
          "duration": 0.5
        },
        {
          "name": "E4",
          "midi": 64,
          "time": 284,
          "velocity": 0.6692913385826772,
          "duration": 1
        },
        {
          "name": "G4",
          "midi": 67,
          "time": 284,
          "velocity": 0.6692913385826772,
          "duration": 1
        },
        {
          "name": "C2",
          "midi": 36,
          "time": 284,
          "velocity": 0.6692913385826772,
          "duration": 0.25
        },
        {
          "name": "G2",
          "midi": 43,
          "time": 284.25,
          "velocity": 0.6692913385826772,
          "duration": 0.25
        },
        {
          "name": "C3",
          "midi": 48,
          "time": 284.5,
          "velocity": 0.6692913385826772,
          "duration": 0.25
        },
        {
          "name": "E3",
          "midi": 52,
          "time": 284.75,
          "velocity": 0.6692913385826772,
          "duration": 0.25
        },
        {
          "name": "C4",
          "midi": 60,
          "time": 285,
          "velocity": 0.6692913385826772,
          "duration": 1
        },
        {
          "name": "E4",
          "midi": 64,
          "time": 285,
          "velocity": 0.6692913385826772,
          "duration": 1
        },
        {
          "name": "G4",
          "midi": 67,
          "time": 285,
          "velocity": 0.6692913385826772,
          "duration": 1
        },
        {
          "name": "G3",
          "midi": 55,
          "time": 285,
          "velocity": 0.6692913385826772,
          "duration": 0.25
        },
        {
          "name": "E3",
          "midi": 52,
          "time": 285.25,
          "velocity": 0.6692913385826772,
          "duration": 0.25
        },
        {
          "name": "C3",
          "midi": 48,
          "time": 285.5,
          "velocity": 0.6692913385826772,
          "duration": 0.25
        },
        {
          "name": "G2",
          "midi": 43,
          "time": 285.75,
          "velocity": 0.6692913385826772,
          "duration": 0.25
        },
        {
          "name": "D4",
          "midi": 62,
          "time": 286,
          "velocity": 0.6692913385826772,
          "duration": 1
        },
        {
          "name": "F#4",
          "midi": 66,
          "time": 286,
          "velocity": 0.6692913385826772,
          "duration": 1
        },
        {
          "name": "D2",
          "midi": 38,
          "time": 286,
          "velocity": 0.6692913385826772,
          "duration": 0.25
        },
        {
          "name": "A2",
          "midi": 45,
          "time": 286.25,
          "velocity": 0.6692913385826772,
          "duration": 0.25
        },
        {
          "name": "D3",
          "midi": 50,
          "time": 286.5,
          "velocity": 0.6692913385826772,
          "duration": 0.25
        },
        {
          "name": "F#3",
          "midi": 54,
          "time": 286.75,
          "velocity": 0.6692913385826772,
          "duration": 0.25
        },
        {
          "name": "D4",
          "midi": 62,
          "time": 287,
          "velocity": 0.6692913385826772,
          "duration": 1
        },
        {
          "name": "A3",
          "midi": 57,
          "time": 287,
          "velocity": 0.6692913385826772,
          "duration": 0.25
        },
        {
          "name": "F#3",
          "midi": 54,
          "time": 287.25,
          "velocity": 0.6692913385826772,
          "duration": 0.25
        },
        {
          "name": "D3",
          "midi": 50,
          "time": 287.5,
          "velocity": 0.6692913385826772,
          "duration": 0.25
        },
        {
          "name": "A2",
          "midi": 45,
          "time": 287.75,
          "velocity": 0.6692913385826772,
          "duration": 0.25
        },
        {
          "name": "B3",
          "midi": 59,
          "time": 288,
          "velocity": 0.6692913385826772,
          "duration": 2
        },
        {
          "name": "E4",
          "midi": 64,
          "time": 288,
          "velocity": 0.6692913385826772,
          "duration": 2
        },
        {
          "name": "E2",
          "midi": 40,
          "time": 288,
          "velocity": 0.6692913385826772,
          "duration": 0.25
        },
        {
          "name": "G2",
          "midi": 43,
          "time": 288.25,
          "velocity": 0.6692913385826772,
          "duration": 0.25
        },
        {
          "name": "B2",
          "midi": 47,
          "time": 288.5,
          "velocity": 0.6692913385826772,
          "duration": 0.25
        },
        {
          "name": "E3",
          "midi": 52,
          "time": 288.75,
          "velocity": 0.6692913385826772,
          "duration": 0.25
        },
        {
          "name": "G3",
          "midi": 55,
          "time": 289,
          "velocity": 0.6692913385826772,
          "duration": 0.25
        },
        {
          "name": "E3",
          "midi": 52,
          "time": 289.25,
          "velocity": 0.6692913385826772,
          "duration": 0.25
        },
        {
          "name": "B2",
          "midi": 47,
          "time": 289.5,
          "velocity": 0.6692913385826772,
          "duration": 0.25
        },
        {
          "name": "G2",
          "midi": 43,
          "time": 289.75,
          "velocity": 0.6692913385826772,
          "duration": 0.25
        },
        {
          "name": "E2",
          "midi": 40,
          "time": 290,
          "velocity": 0.6692913385826772,
          "duration": 0.25
        },
        {
          "name": "G2",
          "midi": 43,
          "time": 290.25,
          "velocity": 0.6692913385826772,
          "duration": 0.25
        },
        {
          "name": "B2",
          "midi": 47,
          "time": 290.5,
          "velocity": 0.6692913385826772,
          "duration": 0.25
        },
        {
          "name": "E3",
          "midi": 52,
          "time": 290.75,
          "velocity": 0.6692913385826772,
          "duration": 0.25
        },
        {
          "name": "G3",
          "midi": 55,
          "time": 291,
          "velocity": 0.6692913385826772,
          "duration": 0.25
        },
        {
          "name": "E3",
          "midi": 52,
          "time": 291.25,
          "velocity": 0.6692913385826772,
          "duration": 0.25
        },
        {
          "name": "B2",
          "midi": 47,
          "time": 291.5,
          "velocity": 0.6692913385826772,
          "duration": 0.25
        },
        {
          "name": "G2",
          "midi": 43,
          "time": 291.75,
          "velocity": 0.6692913385826772,
          "duration": 0.25
        },
        {
          "name": "C2",
          "midi": 36,
          "time": 292,
          "velocity": 0.6692913385826772,
          "duration": 0.25
        },
        {
          "name": "G2",
          "midi": 43,
          "time": 292.25,
          "velocity": 0.6692913385826772,
          "duration": 0.25
        },
        {
          "name": "C3",
          "midi": 48,
          "time": 292.5,
          "velocity": 0.6692913385826772,
          "duration": 0.25
        },
        {
          "name": "E3",
          "midi": 52,
          "time": 292.75,
          "velocity": 0.6692913385826772,
          "duration": 0.25
        },
        {
          "name": "C4",
          "midi": 60,
          "time": 293,
          "velocity": 0.6692913385826772,
          "duration": 1
        },
        {
          "name": "E4",
          "midi": 64,
          "time": 293,
          "velocity": 0.6692913385826772,
          "duration": 1
        },
        {
          "name": "G4",
          "midi": 67,
          "time": 293,
          "velocity": 0.6692913385826772,
          "duration": 1
        },
        {
          "name": "G3",
          "midi": 55,
          "time": 293,
          "velocity": 0.6692913385826772,
          "duration": 0.25
        },
        {
          "name": "E3",
          "midi": 52,
          "time": 293.25,
          "velocity": 0.6692913385826772,
          "duration": 0.25
        },
        {
          "name": "C3",
          "midi": 48,
          "time": 293.5,
          "velocity": 0.6692913385826772,
          "duration": 0.25
        },
        {
          "name": "G2",
          "midi": 43,
          "time": 293.75,
          "velocity": 0.6692913385826772,
          "duration": 0.25
        },
        {
          "name": "D4",
          "midi": 62,
          "time": 294,
          "velocity": 0.6692913385826772,
          "duration": 1
        },
        {
          "name": "F#4",
          "midi": 66,
          "time": 294,
          "velocity": 0.6692913385826772,
          "duration": 1
        },
        {
          "name": "A4",
          "midi": 69,
          "time": 294,
          "velocity": 0.6692913385826772,
          "duration": 1
        },
        {
          "name": "D2",
          "midi": 38,
          "time": 294,
          "velocity": 0.6692913385826772,
          "duration": 0.25
        },
        {
          "name": "A2",
          "midi": 45,
          "time": 294.25,
          "velocity": 0.6692913385826772,
          "duration": 0.25
        },
        {
          "name": "D3",
          "midi": 50,
          "time": 294.5,
          "velocity": 0.6692913385826772,
          "duration": 0.25
        },
        {
          "name": "F#3",
          "midi": 54,
          "time": 294.75,
          "velocity": 0.6692913385826772,
          "duration": 0.25
        },
        {
          "name": "A4",
          "midi": 69,
          "time": 295,
          "velocity": 0.6692913385826772,
          "duration": 1
        },
        {
          "name": "C5",
          "midi": 72,
          "time": 295,
          "velocity": 0.6692913385826772,
          "duration": 1
        },
        {
          "name": "A3",
          "midi": 57,
          "time": 295,
          "velocity": 0.6692913385826772,
          "duration": 0.25
        },
        {
          "name": "F#3",
          "midi": 54,
          "time": 295.25,
          "velocity": 0.6692913385826772,
          "duration": 0.25
        },
        {
          "name": "D3",
          "midi": 50,
          "time": 295.5,
          "velocity": 0.6692913385826772,
          "duration": 0.25
        },
        {
          "name": "A2",
          "midi": 45,
          "time": 295.75,
          "velocity": 0.6692913385826772,
          "duration": 0.25
        },
        {
          "name": "E4",
          "midi": 64,
          "time": 296,
          "velocity": 0.6692913385826772,
          "duration": 0.75
        },
        {
          "name": "G4",
          "midi": 67,
          "time": 296,
          "velocity": 0.6692913385826772,
          "duration": 2
        },
        {
          "name": "B4",
          "midi": 71,
          "time": 296,
          "velocity": 0.6692913385826772,
          "duration": 2
        },
        {
          "name": "E3",
          "midi": 52,
          "time": 296,
          "velocity": 0.6692913385826772,
          "duration": 0.25
        },
        {
          "name": "B3",
          "midi": 59,
          "time": 296.25,
          "velocity": 0.6692913385826772,
          "duration": 0.25
        },
        {
          "name": "A5",
          "midi": 81,
          "time": 296.5,
          "velocity": 0.6692913385826772,
          "duration": 0.25
        },
        {
          "name": "E4",
          "midi": 64,
          "time": 296.5,
          "velocity": 0.6692913385826772,
          "duration": 0.75
        },
        {
          "name": "B5",
          "midi": 83,
          "time": 296.75,
          "velocity": 0.6692913385826772,
          "duration": 0.75
        },
        {
          "name": "B3",
          "midi": 59,
          "time": 296.75,
          "velocity": 0.6692913385826772,
          "duration": 0.25
        },
        {
          "name": "E4",
          "midi": 64,
          "time": 297,
          "velocity": 0.6692913385826772,
          "duration": 0.75
        },
        {
          "name": "B3",
          "midi": 59,
          "time": 297.25,
          "velocity": 0.6692913385826772,
          "duration": 0.25
        },
        {
          "name": "C6",
          "midi": 84,
          "time": 297.5,
          "velocity": 0.6692913385826772,
          "duration": 0.75
        },
        {
          "name": "E4",
          "midi": 64,
          "time": 297.5,
          "velocity": 0.6692913385826772,
          "duration": 0.5
        },
        {
          "name": "B3",
          "midi": 59,
          "time": 297.75,
          "velocity": 0.6692913385826772,
          "duration": 0.25
        },
        {
          "name": "E4",
          "midi": 64,
          "time": 298,
          "velocity": 0.6692913385826772,
          "duration": 0.25
        },
        {
          "name": "E6",
          "midi": 88,
          "time": 298.25,
          "velocity": 0.6692913385826772,
          "duration": 0.75
        },
        {
          "name": "B3",
          "midi": 59,
          "time": 298.25,
          "velocity": 0.6692913385826772,
          "duration": 0.25
        },
        {
          "name": "E4",
          "midi": 64,
          "time": 298.5,
          "velocity": 0.6692913385826772,
          "duration": 0.25
        },
        {
          "name": "B3",
          "midi": 59,
          "time": 298.75,
          "velocity": 0.6692913385826772,
          "duration": 0.25
        },
        {
          "name": "B5",
          "midi": 83,
          "time": 299,
          "velocity": 0.6692913385826772,
          "duration": 0.75
        },
        {
          "name": "E4",
          "midi": 64,
          "time": 299,
          "velocity": 0.6692913385826772,
          "duration": 0.25
        },
        {
          "name": "B3",
          "midi": 59,
          "time": 299.25,
          "velocity": 0.6692913385826772,
          "duration": 0.25
        },
        {
          "name": "E4",
          "midi": 64,
          "time": 299.5,
          "velocity": 0.6692913385826772,
          "duration": 0.25
        },
        {
          "name": "E5",
          "midi": 76,
          "time": 299.75,
          "velocity": 0.6692913385826772,
          "duration": 0.25
        },
        {
          "name": "B3",
          "midi": 59,
          "time": 299.75,
          "velocity": 0.6692913385826772,
          "duration": 0.25
        },
        {
          "name": "B5",
          "midi": 83,
          "time": 300,
          "velocity": 0.6692913385826772,
          "duration": 0.5
        },
        {
          "name": "E3",
          "midi": 52,
          "time": 300,
          "velocity": 0.6692913385826772,
          "duration": 0.25
        },
        {
          "name": "C4",
          "midi": 60,
          "time": 300.25,
          "velocity": 0.6692913385826772,
          "duration": 0.25
        },
        {
          "name": "A5",
          "midi": 81,
          "time": 300.5,
          "velocity": 0.6692913385826772,
          "duration": 0.25
        },
        {
          "name": "E4",
          "midi": 64,
          "time": 300.5,
          "velocity": 0.6692913385826772,
          "duration": 0.25
        },
        {
          "name": "B5",
          "midi": 83,
          "time": 300.75,
          "velocity": 0.6692913385826772,
          "duration": 0.75
        },
        {
          "name": "C4",
          "midi": 60,
          "time": 300.75,
          "velocity": 0.6692913385826772,
          "duration": 0.25
        },
        {
          "name": "E4",
          "midi": 64,
          "time": 301,
          "velocity": 0.6692913385826772,
          "duration": 0.25
        },
        {
          "name": "C4",
          "midi": 60,
          "time": 301.25,
          "velocity": 0.6692913385826772,
          "duration": 0.25
        },
        {
          "name": "C6",
          "midi": 84,
          "time": 301.5,
          "velocity": 0.6692913385826772,
          "duration": 0.75
        },
        {
          "name": "E4",
          "midi": 64,
          "time": 301.5,
          "velocity": 0.6692913385826772,
          "duration": 0.25
        },
        {
          "name": "C4",
          "midi": 60,
          "time": 301.75,
          "velocity": 0.6692913385826772,
          "duration": 0.25
        },
        {
          "name": "E4",
          "midi": 64,
          "time": 302,
          "velocity": 0.6692913385826772,
          "duration": 0.25
        },
        {
          "name": "E6",
          "midi": 88,
          "time": 302.25,
          "velocity": 0.6692913385826772,
          "duration": 0.75
        },
        {
          "name": "C4",
          "midi": 60,
          "time": 302.25,
          "velocity": 0.6692913385826772,
          "duration": 0.25
        },
        {
          "name": "E4",
          "midi": 64,
          "time": 302.5,
          "velocity": 0.6692913385826772,
          "duration": 0.25
        },
        {
          "name": "C4",
          "midi": 60,
          "time": 302.75,
          "velocity": 0.6692913385826772,
          "duration": 0.25
        },
        {
          "name": "B5",
          "midi": 83,
          "time": 303,
          "velocity": 0.6692913385826772,
          "duration": 1
        },
        {
          "name": "E4",
          "midi": 64,
          "time": 303,
          "velocity": 0.6692913385826772,
          "duration": 0.25
        },
        {
          "name": "C4",
          "midi": 60,
          "time": 303.25,
          "velocity": 0.6692913385826772,
          "duration": 0.25
        },
        {
          "name": "E4",
          "midi": 64,
          "time": 303.5,
          "velocity": 0.6692913385826772,
          "duration": 0.25
        },
        {
          "name": "C4",
          "midi": 60,
          "time": 303.75,
          "velocity": 0.6692913385826772,
          "duration": 0.25
        },
        {
          "name": "B5",
          "midi": 83,
          "time": 304,
          "velocity": 0.6692913385826772,
          "duration": 0.5
        },
        {
          "name": "E3",
          "midi": 52,
          "time": 304,
          "velocity": 0.6692913385826772,
          "duration": 0.25
        },
        {
          "name": "B3",
          "midi": 59,
          "time": 304.25,
          "velocity": 0.6692913385826772,
          "duration": 0.25
        },
        {
          "name": "A5",
          "midi": 81,
          "time": 304.5,
          "velocity": 0.6692913385826772,
          "duration": 0.25
        },
        {
          "name": "E4",
          "midi": 64,
          "time": 304.5,
          "velocity": 0.6692913385826772,
          "duration": 0.25
        },
        {
          "name": "B5",
          "midi": 83,
          "time": 304.75,
          "velocity": 0.6692913385826772,
          "duration": 0.75
        },
        {
          "name": "B3",
          "midi": 59,
          "time": 304.75,
          "velocity": 0.6692913385826772,
          "duration": 0.25
        },
        {
          "name": "E4",
          "midi": 64,
          "time": 305,
          "velocity": 0.6692913385826772,
          "duration": 0.25
        },
        {
          "name": "B3",
          "midi": 59,
          "time": 305.25,
          "velocity": 0.6692913385826772,
          "duration": 0.25
        },
        {
          "name": "C6",
          "midi": 84,
          "time": 305.5,
          "velocity": 0.6692913385826772,
          "duration": 0.75
        },
        {
          "name": "E4",
          "midi": 64,
          "time": 305.5,
          "velocity": 0.6692913385826772,
          "duration": 0.25
        },
        {
          "name": "B3",
          "midi": 59,
          "time": 305.75,
          "velocity": 0.6692913385826772,
          "duration": 0.25
        },
        {
          "name": "E4",
          "midi": 64,
          "time": 306,
          "velocity": 0.6692913385826772,
          "duration": 0.25
        },
        {
          "name": "E6",
          "midi": 88,
          "time": 306.25,
          "velocity": 0.6692913385826772,
          "duration": 0.75
        },
        {
          "name": "B3",
          "midi": 59,
          "time": 306.25,
          "velocity": 0.6692913385826772,
          "duration": 0.25
        },
        {
          "name": "E4",
          "midi": 64,
          "time": 306.5,
          "velocity": 0.6692913385826772,
          "duration": 0.25
        },
        {
          "name": "B3",
          "midi": 59,
          "time": 306.75,
          "velocity": 0.6692913385826772,
          "duration": 0.25
        },
        {
          "name": "B5",
          "midi": 83,
          "time": 307,
          "velocity": 0.6692913385826772,
          "duration": 0.75
        },
        {
          "name": "E4",
          "midi": 64,
          "time": 307,
          "velocity": 0.6692913385826772,
          "duration": 0.25
        },
        {
          "name": "B3",
          "midi": 59,
          "time": 307.25,
          "velocity": 0.6692913385826772,
          "duration": 0.25
        },
        {
          "name": "E4",
          "midi": 64,
          "time": 307.5,
          "velocity": 0.6692913385826772,
          "duration": 0.25
        },
        {
          "name": "E5",
          "midi": 76,
          "time": 307.75,
          "velocity": 0.6692913385826772,
          "duration": 0.25
        },
        {
          "name": "B3",
          "midi": 59,
          "time": 307.75,
          "velocity": 0.6692913385826772,
          "duration": 0.25
        },
        {
          "name": "B5",
          "midi": 83,
          "time": 308,
          "velocity": 0.6692913385826772,
          "duration": 0.5
        },
        {
          "name": "E3",
          "midi": 52,
          "time": 308,
          "velocity": 0.6692913385826772,
          "duration": 0.25
        },
        {
          "name": "C4",
          "midi": 60,
          "time": 308.25,
          "velocity": 0.6692913385826772,
          "duration": 0.25
        },
        {
          "name": "A5",
          "midi": 81,
          "time": 308.5,
          "velocity": 0.6692913385826772,
          "duration": 0.25
        },
        {
          "name": "E4",
          "midi": 64,
          "time": 308.5,
          "velocity": 0.6692913385826772,
          "duration": 0.25
        },
        {
          "name": "B5",
          "midi": 83,
          "time": 308.75,
          "velocity": 0.6692913385826772,
          "duration": 0.75
        },
        {
          "name": "C4",
          "midi": 60,
          "time": 308.75,
          "velocity": 0.6692913385826772,
          "duration": 0.25
        },
        {
          "name": "E4",
          "midi": 64,
          "time": 309,
          "velocity": 0.6692913385826772,
          "duration": 0.25
        },
        {
          "name": "C4",
          "midi": 60,
          "time": 309.25,
          "velocity": 0.6692913385826772,
          "duration": 0.25
        },
        {
          "name": "C6",
          "midi": 84,
          "time": 309.5,
          "velocity": 0.6692913385826772,
          "duration": 0.75
        },
        {
          "name": "E4",
          "midi": 64,
          "time": 309.5,
          "velocity": 0.6692913385826772,
          "duration": 0.25
        },
        {
          "name": "C4",
          "midi": 60,
          "time": 309.75,
          "velocity": 0.6692913385826772,
          "duration": 0.25
        },
        {
          "name": "E4",
          "midi": 64,
          "time": 310,
          "velocity": 0.6692913385826772,
          "duration": 0.25
        },
        {
          "name": "E6",
          "midi": 88,
          "time": 310.25,
          "velocity": 0.6692913385826772,
          "duration": 0.75
        },
        {
          "name": "C4",
          "midi": 60,
          "time": 310.25,
          "velocity": 0.6692913385826772,
          "duration": 0.25
        },
        {
          "name": "E4",
          "midi": 64,
          "time": 310.5,
          "velocity": 0.6692913385826772,
          "duration": 0.25
        },
        {
          "name": "C4",
          "midi": 60,
          "time": 310.75,
          "velocity": 0.6692913385826772,
          "duration": 0.25
        },
        {
          "name": "B5",
          "midi": 83,
          "time": 311,
          "velocity": 0.6692913385826772,
          "duration": 1
        },
        {
          "name": "E4",
          "midi": 64,
          "time": 311,
          "velocity": 0.6692913385826772,
          "duration": 0.25
        },
        {
          "name": "C4",
          "midi": 60,
          "time": 311.25,
          "velocity": 0.6692913385826772,
          "duration": 0.25
        },
        {
          "name": "E4",
          "midi": 64,
          "time": 311.5,
          "velocity": 0.6692913385826772,
          "duration": 0.25
        },
        {
          "name": "C4",
          "midi": 60,
          "time": 311.75,
          "velocity": 0.6692913385826772,
          "duration": 0.25
        },
        {
          "name": "B5",
          "midi": 83,
          "time": 312,
          "velocity": 0.6692913385826772,
          "duration": 2
        },
        {
          "name": "E3",
          "midi": 52,
          "time": 312,
          "velocity": 0.6692913385826772,
          "duration": 2
        },
        {
          "name": "B3",
          "midi": 59,
          "time": 312,
          "velocity": 0.6692913385826772,
          "duration": 2
        },
        {
          "name": "E4",
          "midi": 64,
          "time": 312,
          "velocity": 0.6692913385826772,
          "duration": 2
        }
      ],
      "controlChanges": {
        "10": [
          {
            "number": 10,
            "time": 0,
            "value": 0.11023622047244094
          },
          {
            "number": 10,
            "time": 0,
            "value": 0.11023622047244094
          },
          {
            "number": 10,
            "time": 0,
            "value": 0.11023622047244094
          },
          {
            "number": 10,
            "time": 0,
            "value": 0.11023622047244094
          },
          {
            "number": 10,
            "time": 0,
            "value": 0.8976377952755905
          },
          {
            "number": 10,
            "time": 0,
            "value": 0.8976377952755905
          },
          {
            "number": 10,
            "time": 0,
            "value": 0.8976377952755905
          },
          {
            "number": 10,
            "time": 0,
            "value": 0.8976377952755905
          }
        ]
      },
      "id": 0,
      "name": "PianoL",
      "instrumentNumber": 0,
      "instrument": "acoustic grand piano",
      "instrumentFamily": "piano",
      "channelNumber": 1,
      "isPercussion": false
    }
  ]
}