{
  "header": {
    "PPQ": 96,
    "timeSignature": [
      4,
      4
    ],
    "bpm": 87.00002175000543,
    "name": ""
  },
  "startTime": 0,
  "duration": 202.74420218750055,
  "tracks": [
    {
      "startTime": 0,
      "duration": 0,
      "length": 0,
      "notes": [],
      "controlChanges": {},
      "id": 0
    },
    {
      "startTime": 0,
      "duration": 0,
      "length": 0,
      "notes": [],
      "controlChanges": {},
      "id": 1
    },
    {
      "startTime": 0,
      "duration": 198.62064000000112,
      "length": 634,
      "notes": [
        {
          "name": "G#4",
          "midi": 68,
          "time": 0,
          "velocity": 0.7874015748031497,
          "duration": 0.1580459375
        },
        {
          "name": "F4",
          "midi": 65,
          "time": 0.17241375,
          "velocity": 0.7874015748031497,
          "duration": 0.15804593749999998
        },
        {
          "name": "G#4",
          "midi": 68,
          "time": 0.51724125,
          "velocity": 0.5905511811023622,
          "duration": 0.15804593749999996
        },
        {
          "name": "F4",
          "midi": 65,
          "time": 0.6896549999999999,
          "velocity": 0.5511811023622047,
          "duration": 0.16522984375000005
        },
        {
          "name": "G#4",
          "midi": 68,
          "time": 1.3793099999999998,
          "velocity": 0.7874015748031497,
          "duration": 0.15804593750000007
        },
        {
          "name": "F4",
          "midi": 65,
          "time": 1.5517237499999998,
          "velocity": 0.7874015748031497,
          "duration": 0.15804593750000007
        },
        {
          "name": "G#4",
          "midi": 68,
          "time": 1.89655125,
          "velocity": 0.5590551181102362,
          "duration": 0.15804593749999984
        },
        {
          "name": "F4",
          "midi": 65,
          "time": 2.068965,
          "velocity": 0.49606299212598426,
          "duration": 0.16522984375000016
        },
        {
          "name": "G#4",
          "midi": 68,
          "time": 2.75862,
          "velocity": 0.7874015748031497,
          "duration": 0.15804593749999984
        },
        {
          "name": "F4",
          "midi": 65,
          "time": 2.93103375,
          "velocity": 0.7874015748031497,
          "duration": 0.15804593749999984
        },
        {
          "name": "G#4",
          "midi": 68,
          "time": 3.27586125,
          "velocity": 0.5196850393700787,
          "duration": 0.15804593749999984
        },
        {
          "name": "F4",
          "midi": 65,
          "time": 3.448275,
          "velocity": 0.5039370078740157,
          "duration": 0.16522984375000016
        },
        {
          "name": "A4",
          "midi": 69,
          "time": 4.137930000000001,
          "velocity": 0.7637795275590551,
          "duration": 0.1724137499999996
        },
        {
          "name": "C#5",
          "midi": 73,
          "time": 4.4827575,
          "velocity": 0.7559055118110236,
          "duration": 0.1724137499999996
        },
        {
          "name": "G#5",
          "midi": 80,
          "time": 4.827584999999999,
          "velocity": 0.6929133858267716,
          "duration": 0.1724137499999996
        },
        {
          "name": "F#5",
          "midi": 78,
          "time": 5.172412499999998,
          "velocity": 0.7401574803149606,
          "duration": 0.1724137499999996
        },
        {
          "name": "G#4",
          "midi": 68,
          "time": 5.5172399999999975,
          "velocity": 0.7874015748031497,
          "duration": 0.15804593749999984
        },
        {
          "name": "F4",
          "midi": 65,
          "time": 5.689653749999997,
          "velocity": 0.7874015748031497,
          "duration": 0.15804593749999984
        },
        {
          "name": "G#4",
          "midi": 68,
          "time": 6.034481249999997,
          "velocity": 0.5905511811023622,
          "duration": 0.15804593749999984
        },
        {
          "name": "F4",
          "midi": 65,
          "time": 6.206894999999997,
          "velocity": 0.5511811023622047,
          "duration": 0.16522984374999972
        },
        {
          "name": "G#4",
          "midi": 68,
          "time": 6.896549999999996,
          "velocity": 0.7874015748031497,
          "duration": 0.15804593749999984
        },
        {
          "name": "F4",
          "midi": 65,
          "time": 7.0689637499999955,
          "velocity": 0.7874015748031497,
          "duration": 0.15804593749999984
        },
        {
          "name": "G#4",
          "midi": 68,
          "time": 7.413791249999996,
          "velocity": 0.5590551181102362,
          "duration": 0.15804593749999984
        },
        {
          "name": "F4",
          "midi": 65,
          "time": 7.586204999999995,
          "velocity": 0.49606299212598426,
          "duration": 0.16522984374999972
        },
        {
          "name": "G#4",
          "midi": 68,
          "time": 8.275859999999994,
          "velocity": 0.7874015748031497,
          "duration": 0.15804593750000073
        },
        {
          "name": "F4",
          "midi": 65,
          "time": 8.448273749999995,
          "velocity": 0.7874015748031497,
          "duration": 0.15804593750000073
        },
        {
          "name": "G#4",
          "midi": 68,
          "time": 8.793101249999996,
          "velocity": 0.5905511811023622,
          "duration": 0.15804593750000073
        },
        {
          "name": "F4",
          "midi": 65,
          "time": 8.965514999999996,
          "velocity": 0.5511811023622047,
          "duration": 0.16522984374999972
        },
        {
          "name": "G#4",
          "midi": 68,
          "time": 9.655169999999996,
          "velocity": 0.7874015748031497,
          "duration": 0.15804593750000073
        },
        {
          "name": "F4",
          "midi": 65,
          "time": 9.827583749999997,
          "velocity": 0.7874015748031497,
          "duration": 0.15804593750000073
        },
        {
          "name": "G#4",
          "midi": 68,
          "time": 10.172411249999998,
          "velocity": 0.5590551181102362,
          "duration": 0.5028734374999999
        },
        {
          "name": "C#5",
          "midi": 73,
          "time": 11.034479999999999,
          "velocity": 0.7322834645669292,
          "duration": 0.3448274999999992
        },
        {
          "name": "D#5",
          "midi": 75,
          "time": 11.379307499999998,
          "velocity": 0.7322834645669292,
          "duration": 0.3448274999999992
        },
        {
          "name": "F5",
          "midi": 77,
          "time": 11.724134999999997,
          "velocity": 0.7322834645669292,
          "duration": 0.3448274999999992
        },
        {
          "name": "C#5",
          "midi": 73,
          "time": 12.241376249999997,
          "velocity": 0.7322834645669292,
          "duration": 0.17241375000000048
        },
        {
          "name": "F#5",
          "midi": 78,
          "time": 12.413789999999997,
          "velocity": 0.7322834645669292,
          "duration": 0.17241375000000048
        },
        {
          "name": "F5",
          "midi": 77,
          "time": 12.586203749999997,
          "velocity": 0.7322834645669292,
          "duration": 0.17241375000000048
        },
        {
          "name": "F#5",
          "midi": 78,
          "time": 12.758617499999998,
          "velocity": 0.7322834645669292,
          "duration": 0.17241375000000048
        },
        {
          "name": "F5",
          "midi": 77,
          "time": 12.931031249999998,
          "velocity": 0.7322834645669292,
          "duration": 0.17241375000000048
        },
        {
          "name": "F#5",
          "midi": 78,
          "time": 13.103444999999999,
          "velocity": 0.7322834645669292,
          "duration": 0.17241375000000048
        },
        {
          "name": "F5",
          "midi": 77,
          "time": 13.27585875,
          "velocity": 0.7322834645669292,
          "duration": 0.3448274999999992
        },
        {
          "name": "F#5",
          "midi": 78,
          "time": 13.793099999999999,
          "velocity": 0.7322834645669292,
          "duration": 0.17241375000000048
        },
        {
          "name": "F5",
          "midi": 77,
          "time": 13.96551375,
          "velocity": 0.7322834645669292,
          "duration": 0.17241375000000048
        },
        {
          "name": "F#5",
          "midi": 78,
          "time": 14.1379275,
          "velocity": 0.7322834645669292,
          "duration": 0.17241375000000048
        },
        {
          "name": "F5",
          "midi": 77,
          "time": 14.31034125,
          "velocity": 0.7322834645669292,
          "duration": 0.17241375000000048
        },
        {
          "name": "F#5",
          "midi": 78,
          "time": 14.482755000000001,
          "velocity": 0.7322834645669292,
          "duration": 0.17241375000000048
        },
        {
          "name": "F5",
          "midi": 77,
          "time": 14.655168750000001,
          "velocity": 0.7322834645669292,
          "duration": 0.17241375000000048
        },
        {
          "name": "F#5",
          "midi": 78,
          "time": 14.827582500000002,
          "velocity": 0.7322834645669292,
          "duration": 0.17241375000000048
        },
        {
          "name": "F5",
          "midi": 77,
          "time": 14.999996250000002,
          "velocity": 0.7322834645669292,
          "duration": 0.17241375000000048
        },
        {
          "name": "F#5",
          "midi": 78,
          "time": 15.172410000000003,
          "velocity": 0.7322834645669292,
          "duration": 0.3448274999999992
        },
        {
          "name": "F5",
          "midi": 77,
          "time": 15.517237500000002,
          "velocity": 0.7322834645669292,
          "duration": 0.3448274999999992
        },
        {
          "name": "F#5",
          "midi": 78,
          "time": 15.862065000000001,
          "velocity": 0.7322834645669292,
          "duration": 0.17241375000000048
        },
        {
          "name": "G#5",
          "midi": 80,
          "time": 16.03447875,
          "velocity": 0.7322834645669292,
          "duration": 0.5172412500000014
        },
        {
          "name": "G#5",
          "midi": 80,
          "time": 16.551720000000003,
          "velocity": 0.7322834645669292,
          "duration": 0.17241375000000048
        },
        {
          "name": "G#5",
          "midi": 80,
          "time": 16.724133750000004,
          "velocity": 0.7322834645669292,
          "duration": 0.17241375000000048
        },
        {
          "name": "F5",
          "midi": 77,
          "time": 16.896547500000004,
          "velocity": 0.7322834645669292,
          "duration": 0.34482750000000095
        },
        {
          "name": "C#5",
          "midi": 73,
          "time": 17.241375000000005,
          "velocity": 0.7322834645669292,
          "duration": 0.34482750000000095
        },
        {
          "name": "C#5",
          "midi": 73,
          "time": 17.586202500000006,
          "velocity": 0.7322834645669292,
          "duration": 0.34482750000000095
        },
        {
          "name": "G#5",
          "midi": 80,
          "time": 17.931030000000007,
          "velocity": 0.7322834645669292,
          "duration": 0.17241375000000048
        },
        {
          "name": "G#5",
          "midi": 80,
          "time": 18.103443750000007,
          "velocity": 0.7322834645669292,
          "duration": 0.17241375000000048
        },
        {
          "name": "F5",
          "midi": 77,
          "time": 18.275857500000008,
          "velocity": 0.7322834645669292,
          "duration": 0.34482750000000095
        },
        {
          "name": "C#5",
          "midi": 73,
          "time": 18.62068500000001,
          "velocity": 0.7322834645669292,
          "duration": 0.34482750000000095
        },
        {
          "name": "G#5",
          "midi": 80,
          "time": 19.31034000000001,
          "velocity": 0.7322834645669292,
          "duration": 0.17241375000000048
        },
        {
          "name": "G#5",
          "midi": 80,
          "time": 19.48275375000001,
          "velocity": 0.7322834645669292,
          "duration": 0.17241375000000048
        },
        {
          "name": "F5",
          "midi": 77,
          "time": 19.65516750000001,
          "velocity": 0.7322834645669292,
          "duration": 0.34482750000000095
        },
        {
          "name": "C#5",
          "midi": 73,
          "time": 19.999995000000013,
          "velocity": 0.7322834645669292,
          "duration": 0.34482750000000095
        },
        {
          "name": "A5",
          "midi": 81,
          "time": 20.689650000000015,
          "velocity": 0.7322834645669292,
          "duration": 0.34482750000000095
        },
        {
          "name": "A5",
          "midi": 81,
          "time": 21.034477500000015,
          "velocity": 0.7322834645669292,
          "duration": 0.34482750000000095
        },
        {
          "name": "A5",
          "midi": 81,
          "time": 21.379305000000016,
          "velocity": 0.7322834645669292,
          "duration": 0.17241375000000048
        },
        {
          "name": "G#5",
          "midi": 80,
          "time": 21.551718750000017,
          "velocity": 0.7322834645669292,
          "duration": 0.34482750000000095
        },
        {
          "name": "G#5",
          "midi": 80,
          "time": 22.06896000000002,
          "velocity": 0.7322834645669292,
          "duration": 0.17241375000000048
        },
        {
          "name": "F5",
          "midi": 77,
          "time": 22.24137375000002,
          "velocity": 0.7322834645669292,
          "duration": 0.17241375000000048
        },
        {
          "name": "G#5",
          "midi": 80,
          "time": 22.41378750000002,
          "velocity": 0.7322834645669292,
          "duration": 0.17241375000000048
        },
        {
          "name": "G#5",
          "midi": 80,
          "time": 22.75861500000002,
          "velocity": 0.7322834645669292,
          "duration": 0.17241375000000048
        },
        {
          "name": "F5",
          "midi": 77,
          "time": 22.93102875000002,
          "velocity": 0.7322834645669292,
          "duration": 0.17241375000000048
        },
        {
          "name": "G#5",
          "midi": 80,
          "time": 23.10344250000002,
          "velocity": 0.7322834645669292,
          "duration": 0.17241375000000048
        },
        {
          "name": "G#5",
          "midi": 80,
          "time": 23.448270000000022,
          "velocity": 0.7322834645669292,
          "duration": 0.17241375000000048
        },
        {
          "name": "A#5",
          "midi": 82,
          "time": 23.620683750000023,
          "velocity": 0.7322834645669292,
          "duration": 0.17241375000000048
        },
        {
          "name": "G#5",
          "midi": 80,
          "time": 23.793097500000023,
          "velocity": 0.7322834645669292,
          "duration": 0.17241375000000048
        },
        {
          "name": "F#5",
          "midi": 78,
          "time": 23.965511250000024,
          "velocity": 0.7322834645669292,
          "duration": 0.17241375000000048
        },
        {
          "name": "F5",
          "midi": 77,
          "time": 24.137925000000024,
          "velocity": 0.7322834645669292,
          "duration": 0.17241375000000048
        },
        {
          "name": "F5",
          "midi": 77,
          "time": 24.655166250000025,
          "velocity": 0.7322834645669292,
          "duration": 0.17241375000000048
        },
        {
          "name": "G#5",
          "midi": 80,
          "time": 24.827580000000026,
          "velocity": 0.7322834645669292,
          "duration": 0.17241375000000048
        },
        {
          "name": "A#5",
          "midi": 82,
          "time": 24.999993750000026,
          "velocity": 0.7322834645669292,
          "duration": 0.17241375000000048
        },
        {
          "name": "G#5",
          "midi": 80,
          "time": 25.172407500000027,
          "velocity": 0.7322834645669292,
          "duration": 0.17241375000000048
        },
        {
          "name": "F#5",
          "midi": 78,
          "time": 25.344821250000027,
          "velocity": 0.7322834645669292,
          "duration": 0.17241375000000048
        },
        {
          "name": "F5",
          "midi": 77,
          "time": 25.517235000000028,
          "velocity": 0.7322834645669292,
          "duration": 0.34482750000000095
        },
        {
          "name": "A5",
          "midi": 81,
          "time": 26.20689000000003,
          "velocity": 0.7322834645669292,
          "duration": 0.17241375000000048
        },
        {
          "name": "A5",
          "midi": 81,
          "time": 26.37930375000003,
          "velocity": 0.7322834645669292,
          "duration": 0.17241375000000048
        },
        {
          "name": "A5",
          "midi": 81,
          "time": 26.55171750000003,
          "velocity": 0.7322834645669292,
          "duration": 0.17241375000000048
        },
        {
          "name": "A5",
          "midi": 81,
          "time": 26.72413125000003,
          "velocity": 0.7322834645669292,
          "duration": 0.17241375000000048
        },
        {
          "name": "A5",
          "midi": 81,
          "time": 26.89654500000003,
          "velocity": 0.7322834645669292,
          "duration": 0.34482750000000095
        },
        {
          "name": "G#5",
          "midi": 80,
          "time": 27.068958750000032,
          "velocity": 0.7322834645669292,
          "duration": 0.34482750000000095
        },
        {
          "name": "F#5",
          "midi": 78,
          "time": 27.241372500000033,
          "velocity": 0.7322834645669292,
          "duration": 0.34482750000000095
        },
        {
          "name": "F5",
          "midi": 77,
          "time": 27.586200000000034,
          "velocity": 0.7322834645669292,
          "duration": 0.34482750000000095
        },
        {
          "name": "G#5",
          "midi": 80,
          "time": 28.620682500000033,
          "velocity": 0.7322834645669292,
          "duration": 0.17241375000000048
        },
        {
          "name": "G#5",
          "midi": 80,
          "time": 28.793096250000033,
          "velocity": 0.7322834645669292,
          "duration": 0.17241375000000048
        },
        {
          "name": "G#5",
          "midi": 80,
          "time": 28.965510000000034,
          "velocity": 0.7322834645669292,
          "duration": 0.17241375000000048
        },
        {
          "name": "F5",
          "midi": 77,
          "time": 29.310337500000035,
          "velocity": 0.7322834645669292,
          "duration": 0.17241375000000048
        },
        {
          "name": "F5",
          "midi": 77,
          "time": 29.482751250000035,
          "velocity": 0.7322834645669292,
          "duration": 0.17241375000000048
        },
        {
          "name": "F5",
          "midi": 77,
          "time": 29.655165000000036,
          "velocity": 0.7322834645669292,
          "duration": 0.34482750000000095
        },
        {
          "name": "F5",
          "midi": 77,
          "time": 29.999992500000037,
          "velocity": 0.7322834645669292,
          "duration": 0.34482750000000095
        },
        {
          "name": "F#5",
          "midi": 78,
          "time": 30.344820000000038,
          "velocity": 0.7322834645669292,
          "duration": 0.34482750000000095
        },
        {
          "name": "F#5",
          "midi": 78,
          "time": 30.68964750000004,
          "velocity": 0.7322834645669292,
          "duration": 0.17241375000000048
        },
        {
          "name": "F5",
          "midi": 77,
          "time": 30.86206125000004,
          "velocity": 0.7322834645669292,
          "duration": 0.17241375000000048
        },
        {
          "name": "F#5",
          "midi": 78,
          "time": 31.03447500000004,
          "velocity": 0.7322834645669292,
          "duration": 0.17241375000000048
        },
        {
          "name": "F5",
          "midi": 77,
          "time": 31.20688875000004,
          "velocity": 0.7322834645669292,
          "duration": 0.17241375000000048
        },
        {
          "name": "F#5",
          "midi": 78,
          "time": 31.37930250000004,
          "velocity": 0.7322834645669292,
          "duration": 0.17241375000000048
        },
        {
          "name": "F5",
          "midi": 77,
          "time": 31.55171625000004,
          "velocity": 0.7322834645669292,
          "duration": 0.17241375000000048
        },
        {
          "name": "F#5",
          "midi": 78,
          "time": 31.72413000000004,
          "velocity": 0.7322834645669292,
          "duration": 0.3448274999999974
        },
        {
          "name": "A#5",
          "midi": 82,
          "time": 32.06895750000004,
          "velocity": 0.7322834645669292,
          "duration": 0.34482750000000095
        },
        {
          "name": "A#5",
          "midi": 82,
          "time": 32.41378500000004,
          "velocity": 0.7322834645669292,
          "duration": 0.6896550000000019
        },
        {
          "name": "A#5",
          "midi": 82,
          "time": 33.10344000000004,
          "velocity": 0.7322834645669292,
          "duration": 0.5172412499999979
        },
        {
          "name": "A#5",
          "midi": 82,
          "time": 33.96550875000004,
          "velocity": 0.7874015748031497,
          "duration": 0.17241374999999692
        },
        {
          "name": "A#5",
          "midi": 82,
          "time": 34.13792250000004,
          "velocity": 0.7874015748031497,
          "duration": 0.17241374999999692
        },
        {
          "name": "A#5",
          "midi": 82,
          "time": 34.310336250000034,
          "velocity": 0.7874015748031497,
          "duration": 0.17241374999999692
        },
        {
          "name": "A#5",
          "midi": 82,
          "time": 34.48275000000003,
          "velocity": 0.7874015748031497,
          "duration": 0.17241374999999692
        },
        {
          "name": "F#5",
          "midi": 78,
          "time": 34.65516375000003,
          "velocity": 0.7874015748031497,
          "duration": 0.17241374999999692
        },
        {
          "name": "F#5",
          "midi": 78,
          "time": 34.827577500000025,
          "velocity": 0.7874015748031497,
          "duration": 0.17241374999999692
        },
        {
          "name": "F#5",
          "midi": 78,
          "time": 34.99999125000002,
          "velocity": 0.7874015748031497,
          "duration": 0.17241374999999692
        },
        {
          "name": "A#5",
          "midi": 82,
          "time": 35.17240500000002,
          "velocity": 0.7874015748031497,
          "duration": 0.34482750000000095
        },
        {
          "name": "A#5",
          "midi": 82,
          "time": 35.51723250000002,
          "velocity": 0.7874015748031497,
          "duration": 0.34482750000000095
        },
        {
          "name": "G#5",
          "midi": 80,
          "time": 35.86206000000002,
          "velocity": 0.7874015748031497,
          "duration": 0.34482750000000095
        },
        {
          "name": "C6",
          "midi": 84,
          "time": 36.72412875000002,
          "velocity": 0.7874015748031497,
          "duration": 0.17241374999999692
        },
        {
          "name": "C6",
          "midi": 84,
          "time": 36.89654250000002,
          "velocity": 0.7874015748031497,
          "duration": 0.17241374999999692
        },
        {
          "name": "C6",
          "midi": 84,
          "time": 37.068956250000014,
          "velocity": 0.7874015748031497,
          "duration": 0.17241374999999692
        },
        {
          "name": "C6",
          "midi": 84,
          "time": 37.24137000000001,
          "velocity": 0.7874015748031497,
          "duration": 0.17241374999999692
        },
        {
          "name": "G#5",
          "midi": 80,
          "time": 37.41378375000001,
          "velocity": 0.7874015748031497,
          "duration": 0.17241374999999692
        },
        {
          "name": "G#5",
          "midi": 80,
          "time": 37.586197500000004,
          "velocity": 0.7874015748031497,
          "duration": 0.17241374999999692
        },
        {
          "name": "G#5",
          "midi": 80,
          "time": 37.75861125,
          "velocity": 0.7874015748031497,
          "duration": 0.17241374999999692
        },
        {
          "name": "C6",
          "midi": 84,
          "time": 37.931025,
          "velocity": 0.7874015748031497,
          "duration": 0.34482750000000095
        },
        {
          "name": "C6",
          "midi": 84,
          "time": 38.2758525,
          "velocity": 0.7874015748031497,
          "duration": 0.34482750000000095
        },
        {
          "name": "F#5",
          "midi": 78,
          "time": 38.62068,
          "velocity": 0.7874015748031497,
          "duration": 0.34482750000000095
        },
        {
          "name": "A#5",
          "midi": 82,
          "time": 39.48274875,
          "velocity": 0.7874015748031497,
          "duration": 0.17241374999999692
        },
        {
          "name": "A#5",
          "midi": 82,
          "time": 39.655162499999996,
          "velocity": 0.7874015748031497,
          "duration": 0.17241374999999692
        },
        {
          "name": "A#5",
          "midi": 82,
          "time": 39.82757624999999,
          "velocity": 0.7874015748031497,
          "duration": 0.17241374999999692
        },
        {
          "name": "A#5",
          "midi": 82,
          "time": 39.99998999999999,
          "velocity": 0.7874015748031497,
          "duration": 0.17241374999999692
        },
        {
          "name": "F#5",
          "midi": 78,
          "time": 40.17240374999999,
          "velocity": 0.7874015748031497,
          "duration": 0.17241374999999692
        },
        {
          "name": "F#5",
          "midi": 78,
          "time": 40.344817499999984,
          "velocity": 0.7874015748031497,
          "duration": 0.17241374999999692
        },
        {
          "name": "F#5",
          "midi": 78,
          "time": 40.51723124999998,
          "velocity": 0.7874015748031497,
          "duration": 0.17241374999999692
        },
        {
          "name": "A#5",
          "midi": 82,
          "time": 40.68964499999998,
          "velocity": 0.7874015748031497,
          "duration": 0.34482750000000095
        },
        {
          "name": "A#5",
          "midi": 82,
          "time": 41.03447249999998,
          "velocity": 0.7874015748031497,
          "duration": 0.34482750000000095
        },
        {
          "name": "G#5",
          "midi": 80,
          "time": 41.37929999999998,
          "velocity": 0.7874015748031497,
          "duration": 0.34482750000000095
        },
        {
          "name": "C6",
          "midi": 84,
          "time": 42.41378249999998,
          "velocity": 0.7874015748031497,
          "duration": 0.17241374999999692
        },
        {
          "name": "C6",
          "midi": 84,
          "time": 42.58619624999998,
          "velocity": 0.7874015748031497,
          "duration": 0.17241374999999692
        },
        {
          "name": "C6",
          "midi": 84,
          "time": 42.758609999999976,
          "velocity": 0.7874015748031497,
          "duration": 0.17241374999999692
        },
        {
          "name": "G#5",
          "midi": 80,
          "time": 42.93102374999997,
          "velocity": 0.7874015748031497,
          "duration": 0.17241374999999692
        },
        {
          "name": "G#5",
          "midi": 80,
          "time": 43.10343749999997,
          "velocity": 0.7874015748031497,
          "duration": 0.17241374999999692
        },
        {
          "name": "G#5",
          "midi": 80,
          "time": 43.27585124999997,
          "velocity": 0.7874015748031497,
          "duration": 0.17241374999999692
        },
        {
          "name": "G#5",
          "midi": 80,
          "time": 43.448264999999964,
          "velocity": 0.7874015748031497,
          "duration": 0.34482750000000095
        },
        {
          "name": "A#5",
          "midi": 82,
          "time": 43.793092499999965,
          "velocity": 0.7874015748031497,
          "duration": 0.34482750000000095
        },
        {
          "name": "A5",
          "midi": 81,
          "time": 44.137919999999966,
          "velocity": 0.7874015748031497,
          "duration": 0.34482750000000095
        },
        {
          "name": "A5",
          "midi": 81,
          "time": 44.48274749999997,
          "velocity": 0.7874015748031497,
          "duration": 0.17241374999999692
        },
        {
          "name": "A5",
          "midi": 81,
          "time": 44.65516124999996,
          "velocity": 0.7874015748031497,
          "duration": 0.17241374999999692
        },
        {
          "name": "A5",
          "midi": 81,
          "time": 44.82757499999996,
          "velocity": 0.7874015748031497,
          "duration": 0.34482750000000095
        },
        {
          "name": "A5",
          "midi": 81,
          "time": 45.51722999999996,
          "velocity": 0.7874015748031497,
          "duration": 0.17241374999999692
        },
        {
          "name": "A5",
          "midi": 81,
          "time": 45.68964374999996,
          "velocity": 0.7874015748031497,
          "duration": 0.17241374999999692
        },
        {
          "name": "A5",
          "midi": 81,
          "time": 45.862057499999956,
          "velocity": 0.7874015748031497,
          "duration": 0.34482750000000095
        },
        {
          "name": "A5",
          "midi": 81,
          "time": 46.20688499999996,
          "velocity": 0.7874015748031497,
          "duration": 0.34482750000000095
        },
        {
          "name": "B5",
          "midi": 83,
          "time": 46.55171249999996,
          "velocity": 0.7874015748031497,
          "duration": 0.34482750000000095
        },
        {
          "name": "G#5",
          "midi": 80,
          "time": 46.89653999999996,
          "velocity": 0.7874015748031497,
          "duration": 0.17241374999999692
        },
        {
          "name": "F#5",
          "midi": 78,
          "time": 47.068953749999956,
          "velocity": 0.7874015748031497,
          "duration": 0.17241374999999692
        },
        {
          "name": "G#5",
          "midi": 80,
          "time": 47.24136749999995,
          "velocity": 0.7874015748031497,
          "duration": 0.17241374999999692
        },
        {
          "name": "F#5",
          "midi": 78,
          "time": 47.41378124999995,
          "velocity": 0.7874015748031497,
          "duration": 0.17241374999999692
        },
        {
          "name": "G#5",
          "midi": 80,
          "time": 47.58619499999995,
          "velocity": 0.7874015748031497,
          "duration": 0.34482750000000095
        },
        {
          "name": "B5",
          "midi": 83,
          "time": 47.93102249999995,
          "velocity": 0.7874015748031497,
          "duration": 0.34482750000000095
        },
        {
          "name": "A5",
          "midi": 81,
          "time": 48.27584999999995,
          "velocity": 0.7874015748031497,
          "duration": 0.5172412499999979
        },
        {
          "name": "G#5",
          "midi": 80,
          "time": 48.79309124999995,
          "velocity": 0.7874015748031497,
          "duration": 0.5172412499999979
        },
        {
          "name": "A5",
          "midi": 81,
          "time": 49.655159999999945,
          "velocity": 0.7874015748031497,
          "duration": 0.17241374999999692
        },
        {
          "name": "G#5",
          "midi": 80,
          "time": 49.82757374999994,
          "velocity": 0.7874015748031497,
          "duration": 0.17241374999999692
        },
        {
          "name": "A5",
          "midi": 81,
          "time": 49.99998749999994,
          "velocity": 0.7874015748031497,
          "duration": 0.17241374999999692
        },
        {
          "name": "G#5",
          "midi": 80,
          "time": 50.172401249999936,
          "velocity": 0.7874015748031497,
          "duration": 0.17241374999999692
        },
        {
          "name": "A5",
          "midi": 81,
          "time": 50.34481499999993,
          "velocity": 0.7874015748031497,
          "duration": 0.34482750000000095
        },
        {
          "name": "A5",
          "midi": 81,
          "time": 50.689642499999934,
          "velocity": 0.7874015748031497,
          "duration": 0.34482750000000095
        },
        {
          "name": "A5",
          "midi": 81,
          "time": 51.034469999999935,
          "velocity": 0.7874015748031497,
          "duration": 0.17241374999999692
        },
        {
          "name": "G#5",
          "midi": 80,
          "time": 51.20688374999993,
          "velocity": 0.7874015748031497,
          "duration": 0.17241374999999692
        },
        {
          "name": "A5",
          "midi": 81,
          "time": 51.37929749999993,
          "velocity": 0.7874015748031497,
          "duration": 0.17241374999999692
        },
        {
          "name": "G#5",
          "midi": 80,
          "time": 51.551711249999926,
          "velocity": 0.7874015748031497,
          "duration": 0.17241374999999692
        },
        {
          "name": "A5",
          "midi": 81,
          "time": 51.72412499999992,
          "velocity": 0.7874015748031497,
          "duration": 0.34482750000000095
        },
        {
          "name": "B5",
          "midi": 83,
          "time": 52.068952499999924,
          "velocity": 0.7874015748031497,
          "duration": 0.34482750000000095
        },
        {
          "name": "G#5",
          "midi": 80,
          "time": 52.413779999999925,
          "velocity": 0.7874015748031497,
          "duration": 0.17241374999999692
        },
        {
          "name": "F#5",
          "midi": 78,
          "time": 52.58619374999992,
          "velocity": 0.7874015748031497,
          "duration": 0.17241374999999692
        },
        {
          "name": "G#5",
          "midi": 80,
          "time": 52.75860749999992,
          "velocity": 0.7874015748031497,
          "duration": 0.17241374999999692
        },
        {
          "name": "F#5",
          "midi": 78,
          "time": 52.931021249999915,
          "velocity": 0.7874015748031497,
          "duration": 0.17241374999999692
        },
        {
          "name": "G#5",
          "midi": 80,
          "time": 53.10343499999991,
          "velocity": 0.7874015748031497,
          "duration": 0.17241374999999692
        },
        {
          "name": "F#5",
          "midi": 78,
          "time": 53.27584874999991,
          "velocity": 0.7874015748031497,
          "duration": 0.17241374999999692
        },
        {
          "name": "E5",
          "midi": 76,
          "time": 53.448262499999906,
          "velocity": 0.7874015748031497,
          "duration": 0.17241374999999692
        },
        {
          "name": "G#5",
          "midi": 80,
          "time": 53.6206762499999,
          "velocity": 0.7874015748031497,
          "duration": 0.34482750000000095
        },
        {
          "name": "C#6",
          "midi": 85,
          "time": 55.172399999999904,
          "velocity": 0.7795275590551181,
          "duration": 0.17241374999999692
        },
        {
          "name": "C6",
          "midi": 84,
          "time": 55.3448137499999,
          "velocity": 0.8031496062992126,
          "duration": 0.34482750000000095
        },
        {
          "name": "A#5",
          "midi": 82,
          "time": 55.6896412499999,
          "velocity": 0.8031496062992126,
          "duration": 0.34482750000000095
        },
        {
          "name": "G#5",
          "midi": 80,
          "time": 56.0344687499999,
          "velocity": 0.8031496062992126,
          "duration": 0.34482750000000095
        },
        {
          "name": "C#6",
          "midi": 85,
          "time": 56.5517099999999,
          "velocity": 0.8031496062992126,
          "duration": 0.17241374999999692
        },
        {
          "name": "C6",
          "midi": 84,
          "time": 56.7241237499999,
          "velocity": 0.8031496062992126,
          "duration": 0.34482750000000095
        },
        {
          "name": "A#5",
          "midi": 82,
          "time": 57.0689512499999,
          "velocity": 0.8031496062992126,
          "duration": 0.34482750000000095
        },
        {
          "name": "G#5",
          "midi": 80,
          "time": 57.4137787499999,
          "velocity": 0.8031496062992126,
          "duration": 0.34482750000000095
        },
        {
          "name": "C#6",
          "midi": 85,
          "time": 57.9310199999999,
          "velocity": 0.8031496062992126,
          "duration": 0.17241374999999692
        },
        {
          "name": "C6",
          "midi": 84,
          "time": 58.103433749999894,
          "velocity": 0.7952755905511811,
          "duration": 0.34482750000000095
        },
        {
          "name": "A#5",
          "midi": 82,
          "time": 58.448261249999895,
          "velocity": 0.7952755905511811,
          "duration": 0.34482750000000095
        },
        {
          "name": "G#5",
          "midi": 80,
          "time": 58.793088749999896,
          "velocity": 0.7952755905511811,
          "duration": 0.34482750000000095
        },
        {
          "name": "G#5",
          "midi": 80,
          "time": 59.310329999999894,
          "velocity": 0.7952755905511811,
          "duration": 0.34482750000000095
        },
        {
          "name": "A#5",
          "midi": 82,
          "time": 60.17239874999989,
          "velocity": 0.8188976377952756,
          "duration": 0.17241374999999692
        },
        {
          "name": "C6",
          "midi": 84,
          "time": 60.34481249999989,
          "velocity": 0.8110236220472441,
          "duration": 0.17241374999999692
        },
        {
          "name": "A#5",
          "midi": 82,
          "time": 60.51722624999989,
          "velocity": 0.8031496062992126,
          "duration": 0.17241374999999692
        },
        {
          "name": "C6",
          "midi": 84,
          "time": 60.68963999999988,
          "velocity": 0.7795275590551181,
          "duration": 0.34482750000000095
        },
        {
          "name": "C6",
          "midi": 84,
          "time": 61.034467499999884,
          "velocity": 0.8031496062992126,
          "duration": 0.34482750000000095
        },
        {
          "name": "C6",
          "midi": 84,
          "time": 61.379294999999885,
          "velocity": 0.7874015748031497,
          "duration": 0.34482750000000095
        },
        {
          "name": "C6",
          "midi": 84,
          "time": 61.724122499999886,
          "velocity": 0.7637795275590551,
          "duration": 0.34482750000000095
        },
        {
          "name": "C6",
          "midi": 84,
          "time": 62.06894999999989,
          "velocity": 0.7322834645669292,
          "duration": 0.17241374999999692
        },
        {
          "name": "A#5",
          "midi": 82,
          "time": 62.241363749999884,
          "velocity": 0.7322834645669292,
          "duration": 0.17241374999999692
        },
        {
          "name": "G#5",
          "midi": 80,
          "time": 62.41377749999988,
          "velocity": 0.7322834645669292,
          "duration": 0.17241374999999692
        },
        {
          "name": "D#6",
          "midi": 87,
          "time": 62.58619124999988,
          "velocity": 0.7322834645669292,
          "duration": 0.34482750000000095
        },
        {
          "name": "C6",
          "midi": 84,
          "time": 62.58619124999988,
          "velocity": 0.7322834645669292,
          "duration": 0.34482750000000095
        },
        {
          "name": "F5",
          "midi": 77,
          "time": 62.93101874999988,
          "velocity": 0.7322834645669292,
          "duration": 0.17241374999999692
        },
        {
          "name": "F5",
          "midi": 77,
          "time": 63.103432499999876,
          "velocity": 0.7322834645669292,
          "duration": 0.17241374999999692
        },
        {
          "name": "F5",
          "midi": 77,
          "time": 63.27584624999987,
          "velocity": 0.7559055118110236,
          "duration": 0.17241374999999692
        },
        {
          "name": "F#5",
          "midi": 78,
          "time": 63.44825999999987,
          "velocity": 0.7637795275590551,
          "duration": 0.34482750000000095
        },
        {
          "name": "F#5",
          "midi": 78,
          "time": 63.79308749999987,
          "velocity": 0.7795275590551181,
          "duration": 0.17241374999999692
        },
        {
          "name": "A5",
          "midi": 81,
          "time": 63.96550124999987,
          "velocity": 0.7795275590551181,
          "duration": 0.34482750000000095
        },
        {
          "name": "A5",
          "midi": 81,
          "time": 64.31032874999987,
          "velocity": 0.7795275590551181,
          "duration": 0.34482749999999385
        },
        {
          "name": "C#6",
          "midi": 85,
          "time": 64.65515624999986,
          "velocity": 0.7874015748031497,
          "duration": 0.34482749999999385
        },
        {
          "name": "C#6",
          "midi": 85,
          "time": 64.99998374999986,
          "velocity": 0.8110236220472441,
          "duration": 0.34482749999999385
        },
        {
          "name": "A5",
          "midi": 81,
          "time": 65.34481124999985,
          "velocity": 0.8188976377952756,
          "duration": 0.17241375000000403
        },
        {
          "name": "C#6",
          "midi": 85,
          "time": 65.51722499999985,
          "velocity": 0.8346456692913385,
          "duration": 0.17241375000000403
        },
        {
          "name": "D#6",
          "midi": 87,
          "time": 65.68963874999986,
          "velocity": 0.8346456692913385,
          "duration": 0.34482749999999385
        },
        {
          "name": "C#6",
          "midi": 85,
          "time": 66.20687999999986,
          "velocity": 0.8346456692913385,
          "duration": 0.17241375000000403
        },
        {
          "name": "C6",
          "midi": 84,
          "time": 66.37929374999986,
          "velocity": 0.8188976377952756,
          "duration": 0.34482749999999385
        },
        {
          "name": "A#5",
          "midi": 82,
          "time": 66.72412124999985,
          "velocity": 0.8110236220472441,
          "duration": 0.34482749999999385
        },
        {
          "name": "G#5",
          "midi": 80,
          "time": 67.06894874999985,
          "velocity": 0.8031496062992126,
          "duration": 0.34482749999999385
        },
        {
          "name": "C#6",
          "midi": 85,
          "time": 67.58618999999985,
          "velocity": 0.8031496062992126,
          "duration": 0.17241375000000403
        },
        {
          "name": "C6",
          "midi": 84,
          "time": 67.75860374999985,
          "velocity": 0.8031496062992126,
          "duration": 0.34482749999999385
        },
        {
          "name": "A#5",
          "midi": 82,
          "time": 68.10343124999984,
          "velocity": 0.8031496062992126,
          "duration": 0.34482749999999385
        },
        {
          "name": "G#5",
          "midi": 80,
          "time": 68.44825874999984,
          "velocity": 0.8031496062992126,
          "duration": 0.34482749999999385
        },
        {
          "name": "C#6",
          "midi": 85,
          "time": 68.96549999999984,
          "velocity": 0.8031496062992126,
          "duration": 0.17241375000000403
        },
        {
          "name": "C6",
          "midi": 84,
          "time": 69.13791374999984,
          "velocity": 0.8031496062992126,
          "duration": 0.34482749999999385
        },
        {
          "name": "A#5",
          "midi": 82,
          "time": 69.48274124999983,
          "velocity": 0.8031496062992126,
          "duration": 0.34482749999999385
        },
        {
          "name": "G#5",
          "midi": 80,
          "time": 69.82756874999983,
          "velocity": 0.8110236220472441,
          "duration": 0.34482749999999385
        },
        {
          "name": "G#5",
          "midi": 80,
          "time": 70.34480999999982,
          "velocity": 0.8188976377952756,
          "duration": 0.34482749999999385
        },
        {
          "name": "A#5",
          "midi": 82,
          "time": 71.20687874999982,
          "velocity": 0.8346456692913385,
          "duration": 0.17241375000000403
        },
        {
          "name": "C6",
          "midi": 84,
          "time": 71.37929249999982,
          "velocity": 0.84251968503937,
          "duration": 0.17241375000000403
        },
        {
          "name": "A#5",
          "midi": 82,
          "time": 71.55170624999982,
          "velocity": 0.8188976377952756,
          "duration": 0.17241375000000403
        },
        {
          "name": "C6",
          "midi": 84,
          "time": 71.72411999999983,
          "velocity": 0.7480314960629921,
          "duration": 0.34482749999999385
        },
        {
          "name": "C6",
          "midi": 84,
          "time": 72.06894749999982,
          "velocity": 0.7322834645669292,
          "duration": 0.34482749999999385
        },
        {
          "name": "C6",
          "midi": 84,
          "time": 72.41377499999982,
          "velocity": 0.7322834645669292,
          "duration": 0.34482749999999385
        },
        {
          "name": "C6",
          "midi": 84,
          "time": 72.75860249999981,
          "velocity": 0.7322834645669292,
          "duration": 0.34482749999999385
        },
        {
          "name": "C6",
          "midi": 84,
          "time": 73.1034299999998,
          "velocity": 0.7322834645669292,
          "duration": 0.17241375000000403
        },
        {
          "name": "A#5",
          "midi": 82,
          "time": 73.27584374999981,
          "velocity": 0.7322834645669292,
          "duration": 0.17241375000000403
        },
        {
          "name": "G#5",
          "midi": 80,
          "time": 73.44825749999981,
          "velocity": 0.7322834645669292,
          "duration": 0.17241375000000403
        },
        {
          "name": "C6",
          "midi": 84,
          "time": 73.62067124999982,
          "velocity": 0.7322834645669292,
          "duration": 0.34482749999999385
        },
        {
          "name": "F5",
          "midi": 77,
          "time": 74.13791249999981,
          "velocity": 0.7480314960629921,
          "duration": 0.34482749999999385
        },
        {
          "name": "F#5",
          "midi": 78,
          "time": 74.48273999999981,
          "velocity": 0.7480314960629921,
          "duration": 0.34482749999999385
        },
        {
          "name": "F#5",
          "midi": 78,
          "time": 74.9999812499998,
          "velocity": 0.7165354330708661,
          "duration": 0.34482749999999385
        },
        {
          "name": "F5",
          "midi": 77,
          "time": 75.6896362499998,
          "velocity": 0.6929133858267716,
          "duration": 0.17241375000000403
        },
        {
          "name": "F#5",
          "midi": 78,
          "time": 75.8620499999998,
          "velocity": 0.6771653543307087,
          "duration": 0.34482749999999385
        },
        {
          "name": "F#5",
          "midi": 78,
          "time": 76.20687749999979,
          "velocity": 0.6692913385826772,
          "duration": 0.34482749999999385
        },
        {
          "name": "F#5",
          "midi": 78,
          "time": 76.55170499999979,
          "velocity": 0.6692913385826772,
          "duration": 0.17241375000000403
        },
        {
          "name": "G#5",
          "midi": 80,
          "time": 76.72411874999979,
          "velocity": 0.6692913385826772,
          "duration": 0.5172412499999979
        },
        {
          "name": "A#5",
          "midi": 82,
          "time": 77.24135999999979,
          "velocity": 0.7322834645669292,
          "duration": 0.5172412499999979
        },
        {
          "name": "A#5",
          "midi": 82,
          "time": 78.10342874999978,
          "velocity": 0.7874015748031497,
          "duration": 0.17241375000000403
        },
        {
          "name": "A#5",
          "midi": 82,
          "time": 78.27584249999978,
          "velocity": 0.7874015748031497,
          "duration": 0.17241375000000403
        },
        {
          "name": "A#5",
          "midi": 82,
          "time": 78.44825624999979,
          "velocity": 0.7874015748031497,
          "duration": 0.17241375000000403
        },
        {
          "name": "A#5",
          "midi": 82,
          "time": 78.62066999999979,
          "velocity": 0.7874015748031497,
          "duration": 0.17241375000000403
        },
        {
          "name": "F#5",
          "midi": 78,
          "time": 78.7930837499998,
          "velocity": 0.7874015748031497,
          "duration": 0.17241375000000403
        },
        {
          "name": "F#5",
          "midi": 78,
          "time": 78.9654974999998,
          "velocity": 0.7874015748031497,
          "duration": 0.17241375000000403
        },
        {
          "name": "F#5",
          "midi": 78,
          "time": 79.1379112499998,
          "velocity": 0.7874015748031497,
          "duration": 0.17241375000000403
        },
        {
          "name": "A#5",
          "midi": 82,
          "time": 79.3103249999998,
          "velocity": 0.7874015748031497,
          "duration": 0.34482749999999385
        },
        {
          "name": "A#5",
          "midi": 82,
          "time": 79.6551524999998,
          "velocity": 0.7874015748031497,
          "duration": 0.34482749999999385
        },
        {
          "name": "G#5",
          "midi": 80,
          "time": 79.9999799999998,
          "velocity": 0.7874015748031497,
          "duration": 0.34482749999999385
        },
        {
          "name": "C6",
          "midi": 84,
          "time": 80.86204874999979,
          "velocity": 0.7874015748031497,
          "duration": 0.17241375000000403
        },
        {
          "name": "C6",
          "midi": 84,
          "time": 81.03446249999979,
          "velocity": 0.7874015748031497,
          "duration": 0.17241375000000403
        },
        {
          "name": "C6",
          "midi": 84,
          "time": 81.2068762499998,
          "velocity": 0.7874015748031497,
          "duration": 0.17241375000000403
        },
        {
          "name": "C6",
          "midi": 84,
          "time": 81.3792899999998,
          "velocity": 0.7874015748031497,
          "duration": 0.17241375000000403
        },
        {
          "name": "G#5",
          "midi": 80,
          "time": 81.5517037499998,
          "velocity": 0.7874015748031497,
          "duration": 0.17241375000000403
        },
        {
          "name": "G#5",
          "midi": 80,
          "time": 81.7241174999998,
          "velocity": 0.7874015748031497,
          "duration": 0.17241375000000403
        },
        {
          "name": "G#5",
          "midi": 80,
          "time": 81.89653124999981,
          "velocity": 0.7874015748031497,
          "duration": 0.17241375000000403
        },
        {
          "name": "C6",
          "midi": 84,
          "time": 82.06894499999981,
          "velocity": 0.7874015748031497,
          "duration": 0.34482749999999385
        },
        {
          "name": "C6",
          "midi": 84,
          "time": 82.41377249999981,
          "velocity": 0.7874015748031497,
          "duration": 0.34482749999999385
        },
        {
          "name": "F#5",
          "midi": 78,
          "time": 82.7585999999998,
          "velocity": 0.7874015748031497,
          "duration": 0.34482749999999385
        },
        {
          "name": "A#5",
          "midi": 82,
          "time": 83.6206687499998,
          "velocity": 0.7874015748031497,
          "duration": 0.17241375000000403
        },
        {
          "name": "A#5",
          "midi": 82,
          "time": 83.7930824999998,
          "velocity": 0.7874015748031497,
          "duration": 0.17241375000000403
        },
        {
          "name": "A#5",
          "midi": 82,
          "time": 83.9654962499998,
          "velocity": 0.7874015748031497,
          "duration": 0.17241375000000403
        },
        {
          "name": "A#5",
          "midi": 82,
          "time": 84.1379099999998,
          "velocity": 0.7874015748031497,
          "duration": 0.17241375000000403
        },
        {
          "name": "F#5",
          "midi": 78,
          "time": 84.31032374999981,
          "velocity": 0.7874015748031497,
          "duration": 0.17241375000000403
        },
        {
          "name": "F#5",
          "midi": 78,
          "time": 84.48273749999981,
          "velocity": 0.7874015748031497,
          "duration": 0.17241375000000403
        },
        {
          "name": "F#5",
          "midi": 78,
          "time": 84.65515124999982,
          "velocity": 0.7874015748031497,
          "duration": 0.17241375000000403
        },
        {
          "name": "A#5",
          "midi": 82,
          "time": 84.82756499999982,
          "velocity": 0.7874015748031497,
          "duration": 0.34482749999999385
        },
        {
          "name": "A#5",
          "midi": 82,
          "time": 85.17239249999982,
          "velocity": 0.7874015748031497,
          "duration": 0.34482749999999385
        },
        {
          "name": "G#5",
          "midi": 80,
          "time": 85.51721999999981,
          "velocity": 0.7874015748031497,
          "duration": 0.34482749999999385
        },
        {
          "name": "C6",
          "midi": 84,
          "time": 86.5517024999998,
          "velocity": 0.7874015748031497,
          "duration": 0.17241375000000403
        },
        {
          "name": "C6",
          "midi": 84,
          "time": 86.72411624999981,
          "velocity": 0.7874015748031497,
          "duration": 0.17241375000000403
        },
        {
          "name": "C6",
          "midi": 84,
          "time": 86.89652999999981,
          "velocity": 0.7874015748031497,
          "duration": 0.17241375000000403
        },
        {
          "name": "G#5",
          "midi": 80,
          "time": 87.06894374999982,
          "velocity": 0.7874015748031497,
          "duration": 0.17241375000000403
        },
        {
          "name": "G#5",
          "midi": 80,
          "time": 87.24135749999982,
          "velocity": 0.7874015748031497,
          "duration": 0.17241375000000403
        },
        {
          "name": "G#5",
          "midi": 80,
          "time": 87.41377124999983,
          "velocity": 0.7874015748031497,
          "duration": 0.17241375000000403
        },
        {
          "name": "G#5",
          "midi": 80,
          "time": 87.58618499999983,
          "velocity": 0.7874015748031497,
          "duration": 0.34482749999999385
        },
        {
          "name": "A#5",
          "midi": 82,
          "time": 87.93101249999982,
          "velocity": 0.7874015748031497,
          "duration": 0.34482749999999385
        },
        {
          "name": "A5",
          "midi": 81,
          "time": 88.27583999999982,
          "velocity": 0.7874015748031497,
          "duration": 0.34482749999999385
        },
        {
          "name": "A5",
          "midi": 81,
          "time": 88.62066749999981,
          "velocity": 0.7874015748031497,
          "duration": 0.17241375000000403
        },
        {
          "name": "A5",
          "midi": 81,
          "time": 88.79308124999982,
          "velocity": 0.7874015748031497,
          "duration": 0.17241375000000403
        },
        {
          "name": "A5",
          "midi": 81,
          "time": 88.96549499999982,
          "velocity": 0.7874015748031497,
          "duration": 0.34482749999999385
        },
        {
          "name": "A5",
          "midi": 81,
          "time": 89.65514999999981,
          "velocity": 0.7874015748031497,
          "duration": 0.17241375000000403
        },
        {
          "name": "A5",
          "midi": 81,
          "time": 89.82756374999981,
          "velocity": 0.7874015748031497,
          "duration": 0.17241375000000403
        },
        {
          "name": "A5",
          "midi": 81,
          "time": 89.99997749999982,
          "velocity": 0.7874015748031497,
          "duration": 0.34482749999999385
        },
        {
          "name": "A5",
          "midi": 81,
          "time": 90.34480499999981,
          "velocity": 0.7874015748031497,
          "duration": 0.34482749999999385
        },
        {
          "name": "B5",
          "midi": 83,
          "time": 90.6896324999998,
          "velocity": 0.7874015748031497,
          "duration": 0.34482749999999385
        },
        {
          "name": "G#5",
          "midi": 80,
          "time": 91.0344599999998,
          "velocity": 0.7874015748031497,
          "duration": 0.17241375000000403
        },
        {
          "name": "F#5",
          "midi": 78,
          "time": 91.2068737499998,
          "velocity": 0.7874015748031497,
          "duration": 0.17241375000000403
        },
        {
          "name": "G#5",
          "midi": 80,
          "time": 91.3792874999998,
          "velocity": 0.7874015748031497,
          "duration": 0.17241375000000403
        },
        {
          "name": "F#5",
          "midi": 78,
          "time": 91.55170124999981,
          "velocity": 0.7874015748031497,
          "duration": 0.17241375000000403
        },
        {
          "name": "G#5",
          "midi": 80,
          "time": 91.72411499999981,
          "velocity": 0.7874015748031497,
          "duration": 0.34482749999999385
        },
        {
          "name": "B5",
          "midi": 83,
          "time": 92.0689424999998,
          "velocity": 0.7874015748031497,
          "duration": 0.34482749999999385
        },
        {
          "name": "A5",
          "midi": 81,
          "time": 92.4137699999998,
          "velocity": 0.7874015748031497,
          "duration": 0.5172412499999979
        },
        {
          "name": "G#5",
          "midi": 80,
          "time": 92.9310112499998,
          "velocity": 0.7874015748031497,
          "duration": 0.5172412499999979
        },
        {
          "name": "A5",
          "midi": 81,
          "time": 93.79307999999979,
          "velocity": 0.7874015748031497,
          "duration": 0.17241375000000403
        },
        {
          "name": "G#5",
          "midi": 80,
          "time": 93.9654937499998,
          "velocity": 0.7874015748031497,
          "duration": 0.17241375000000403
        },
        {
          "name": "A5",
          "midi": 81,
          "time": 94.1379074999998,
          "velocity": 0.7874015748031497,
          "duration": 0.17241375000000403
        },
        {
          "name": "G#5",
          "midi": 80,
          "time": 94.3103212499998,
          "velocity": 0.7874015748031497,
          "duration": 0.17241375000000403
        },
        {
          "name": "A5",
          "midi": 81,
          "time": 94.4827349999998,
          "velocity": 0.7874015748031497,
          "duration": 0.34482749999999385
        },
        {
          "name": "A5",
          "midi": 81,
          "time": 94.8275624999998,
          "velocity": 0.7874015748031497,
          "duration": 0.34482749999999385
        },
        {
          "name": "A5",
          "midi": 81,
          "time": 95.1723899999998,
          "velocity": 0.7874015748031497,
          "duration": 0.17241375000000403
        },
        {
          "name": "G#5",
          "midi": 80,
          "time": 95.3448037499998,
          "velocity": 0.7874015748031497,
          "duration": 0.17241375000000403
        },
        {
          "name": "A5",
          "midi": 81,
          "time": 95.5172174999998,
          "velocity": 0.7874015748031497,
          "duration": 0.17241375000000403
        },
        {
          "name": "G#5",
          "midi": 80,
          "time": 95.6896312499998,
          "velocity": 0.7874015748031497,
          "duration": 0.17241375000000403
        },
        {
          "name": "A5",
          "midi": 81,
          "time": 95.86204499999981,
          "velocity": 0.7874015748031497,
          "duration": 0.34482749999999385
        },
        {
          "name": "B5",
          "midi": 83,
          "time": 96.2068724999998,
          "velocity": 0.7874015748031497,
          "duration": 0.34482749999999385
        },
        {
          "name": "G#5",
          "midi": 80,
          "time": 96.5516999999998,
          "velocity": 0.7874015748031497,
          "duration": 0.17241375000000403
        },
        {
          "name": "F#5",
          "midi": 78,
          "time": 96.7241137499998,
          "velocity": 0.7874015748031497,
          "duration": 0.17241375000000403
        },
        {
          "name": "G#5",
          "midi": 80,
          "time": 96.8965274999998,
          "velocity": 0.7874015748031497,
          "duration": 0.17241375000000403
        },
        {
          "name": "F#5",
          "midi": 78,
          "time": 97.06894124999981,
          "velocity": 0.7874015748031497,
          "duration": 0.17241375000000403
        },
        {
          "name": "G#5",
          "midi": 80,
          "time": 97.24135499999981,
          "velocity": 0.7874015748031497,
          "duration": 0.17241375000000403
        },
        {
          "name": "F#5",
          "midi": 78,
          "time": 97.41376874999982,
          "velocity": 0.7874015748031497,
          "duration": 0.17241375000000403
        },
        {
          "name": "E5",
          "midi": 76,
          "time": 97.58618249999982,
          "velocity": 0.7874015748031497,
          "duration": 0.17241375000000403
        },
        {
          "name": "G#5",
          "midi": 80,
          "time": 97.75859624999983,
          "velocity": 0.7874015748031497,
          "duration": 0.34482749999999385
        },
        {
          "name": "C#6",
          "midi": 85,
          "time": 99.31031999999982,
          "velocity": 0.7795275590551181,
          "duration": 0.17241375000000403
        },
        {
          "name": "C6",
          "midi": 84,
          "time": 99.48273374999982,
          "velocity": 0.8031496062992126,
          "duration": 0.34482749999999385
        },
        {
          "name": "A#5",
          "midi": 82,
          "time": 99.82756124999982,
          "velocity": 0.8031496062992126,
          "duration": 0.34482749999999385
        },
        {
          "name": "G#5",
          "midi": 80,
          "time": 100.17238874999981,
          "velocity": 0.8031496062992126,
          "duration": 0.34482749999999385
        },
        {
          "name": "C#6",
          "midi": 85,
          "time": 100.68962999999981,
          "velocity": 0.8031496062992126,
          "duration": 0.17241375000000403
        },
        {
          "name": "C6",
          "midi": 84,
          "time": 100.86204374999981,
          "velocity": 0.8031496062992126,
          "duration": 0.34482749999999385
        },
        {
          "name": "A#5",
          "midi": 82,
          "time": 101.2068712499998,
          "velocity": 0.8031496062992126,
          "duration": 0.34482749999999385
        },
        {
          "name": "G#5",
          "midi": 80,
          "time": 101.5516987499998,
          "velocity": 0.8031496062992126,
          "duration": 0.34482749999999385
        },
        {
          "name": "C#6",
          "midi": 85,
          "time": 102.0689399999998,
          "velocity": 0.8031496062992126,
          "duration": 0.17241375000000403
        },
        {
          "name": "C6",
          "midi": 84,
          "time": 102.2413537499998,
          "velocity": 0.7952755905511811,
          "duration": 0.34482749999999385
        },
        {
          "name": "A#5",
          "midi": 82,
          "time": 102.5861812499998,
          "velocity": 0.7952755905511811,
          "duration": 0.34482749999999385
        },
        {
          "name": "G#5",
          "midi": 80,
          "time": 102.93100874999979,
          "velocity": 0.7952755905511811,
          "duration": 0.34482749999999385
        },
        {
          "name": "G#5",
          "midi": 80,
          "time": 103.44824999999979,
          "velocity": 0.7952755905511811,
          "duration": 0.34482749999999385
        },
        {
          "name": "A#5",
          "midi": 82,
          "time": 104.31031874999978,
          "velocity": 0.8188976377952756,
          "duration": 0.17241375000000403
        },
        {
          "name": "C6",
          "midi": 84,
          "time": 104.48273249999978,
          "velocity": 0.8110236220472441,
          "duration": 0.17241375000000403
        },
        {
          "name": "A#5",
          "midi": 82,
          "time": 104.65514624999979,
          "velocity": 0.8031496062992126,
          "duration": 0.17241375000000403
        },
        {
          "name": "C6",
          "midi": 84,
          "time": 104.82755999999979,
          "velocity": 0.7795275590551181,
          "duration": 0.34482749999999385
        },
        {
          "name": "C6",
          "midi": 84,
          "time": 105.17238749999979,
          "velocity": 0.8031496062992126,
          "duration": 0.34482749999999385
        },
        {
          "name": "C6",
          "midi": 84,
          "time": 105.51721499999978,
          "velocity": 0.7874015748031497,
          "duration": 0.34482749999999385
        },
        {
          "name": "C6",
          "midi": 84,
          "time": 105.86204249999977,
          "velocity": 0.7637795275590551,
          "duration": 0.34482749999999385
        },
        {
          "name": "C6",
          "midi": 84,
          "time": 106.20686999999977,
          "velocity": 0.7322834645669292,
          "duration": 0.17241375000000403
        },
        {
          "name": "A#5",
          "midi": 82,
          "time": 106.37928374999977,
          "velocity": 0.7322834645669292,
          "duration": 0.17241375000000403
        },
        {
          "name": "G#5",
          "midi": 80,
          "time": 106.55169749999978,
          "velocity": 0.7322834645669292,
          "duration": 0.17241375000000403
        },
        {
          "name": "D#6",
          "midi": 87,
          "time": 106.72411124999978,
          "velocity": 0.7322834645669292,
          "duration": 0.34482749999999385
        },
        {
          "name": "C6",
          "midi": 84,
          "time": 106.72411124999978,
          "velocity": 0.7322834645669292,
          "duration": 0.34482749999999385
        },
        {
          "name": "F5",
          "midi": 77,
          "time": 107.06893874999977,
          "velocity": 0.7322834645669292,
          "duration": 0.17241375000000403
        },
        {
          "name": "F5",
          "midi": 77,
          "time": 107.24135249999978,
          "velocity": 0.7322834645669292,
          "duration": 0.17241375000000403
        },
        {
          "name": "F5",
          "midi": 77,
          "time": 107.41376624999978,
          "velocity": 0.7559055118110236,
          "duration": 0.17241375000000403
        },
        {
          "name": "F#5",
          "midi": 78,
          "time": 107.58617999999979,
          "velocity": 0.7637795275590551,
          "duration": 0.34482749999999385
        },
        {
          "name": "F#5",
          "midi": 78,
          "time": 107.93100749999978,
          "velocity": 0.7795275590551181,
          "duration": 0.17241375000000403
        },
        {
          "name": "A5",
          "midi": 81,
          "time": 108.10342124999978,
          "velocity": 0.7795275590551181,
          "duration": 0.34482749999999385
        },
        {
          "name": "A5",
          "midi": 81,
          "time": 108.44824874999978,
          "velocity": 0.7795275590551181,
          "duration": 0.34482749999999385
        },
        {
          "name": "C#6",
          "midi": 85,
          "time": 108.79307624999977,
          "velocity": 0.7874015748031497,
          "duration": 0.34482749999999385
        },
        {
          "name": "C#6",
          "midi": 85,
          "time": 109.13790374999977,
          "velocity": 0.8110236220472441,
          "duration": 0.34482749999999385
        },
        {
          "name": "A5",
          "midi": 81,
          "time": 109.48273124999976,
          "velocity": 0.8188976377952756,
          "duration": 0.17241375000000403
        },
        {
          "name": "C#6",
          "midi": 85,
          "time": 109.65514499999976,
          "velocity": 0.8346456692913385,
          "duration": 0.17241375000000403
        },
        {
          "name": "D#6",
          "midi": 87,
          "time": 109.82755874999977,
          "velocity": 0.8346456692913385,
          "duration": 0.34482749999999385
        },
        {
          "name": "C#6",
          "midi": 85,
          "time": 110.34479999999976,
          "velocity": 0.8346456692913385,
          "duration": 0.17241375000000403
        },
        {
          "name": "C6",
          "midi": 84,
          "time": 110.51721374999977,
          "velocity": 0.8188976377952756,
          "duration": 0.34482749999999385
        },
        {
          "name": "A#5",
          "midi": 82,
          "time": 110.86204124999976,
          "velocity": 0.8110236220472441,
          "duration": 0.34482749999999385
        },
        {
          "name": "G#5",
          "midi": 80,
          "time": 111.20686874999976,
          "velocity": 0.8031496062992126,
          "duration": 0.34482749999999385
        },
        {
          "name": "C#6",
          "midi": 85,
          "time": 111.72410999999975,
          "velocity": 0.8031496062992126,
          "duration": 0.17241375000000403
        },
        {
          "name": "C6",
          "midi": 84,
          "time": 111.89652374999976,
          "velocity": 0.8031496062992126,
          "duration": 0.34482749999999385
        },
        {
          "name": "A#5",
          "midi": 82,
          "time": 112.24135124999975,
          "velocity": 0.8031496062992126,
          "duration": 0.34482749999999385
        },
        {
          "name": "G#5",
          "midi": 80,
          "time": 112.58617874999975,
          "velocity": 0.8031496062992126,
          "duration": 0.34482749999999385
        },
        {
          "name": "C#6",
          "midi": 85,
          "time": 113.10341999999974,
          "velocity": 0.8031496062992126,
          "duration": 0.17241375000000403
        },
        {
          "name": "C6",
          "midi": 84,
          "time": 113.27583374999975,
          "velocity": 0.8031496062992126,
          "duration": 0.34482749999999385
        },
        {
          "name": "A#5",
          "midi": 82,
          "time": 113.62066124999974,
          "velocity": 0.8031496062992126,
          "duration": 0.34482749999999385
        },
        {
          "name": "G#5",
          "midi": 80,
          "time": 113.96548874999974,
          "velocity": 0.8110236220472441,
          "duration": 0.34482749999999385
        },
        {
          "name": "G#5",
          "midi": 80,
          "time": 114.48272999999973,
          "velocity": 0.8188976377952756,
          "duration": 0.34482749999999385
        },
        {
          "name": "A#5",
          "midi": 82,
          "time": 115.34479874999973,
          "velocity": 0.8346456692913385,
          "duration": 0.17241375000000403
        },
        {
          "name": "C6",
          "midi": 84,
          "time": 115.51721249999973,
          "velocity": 0.84251968503937,
          "duration": 0.17241375000000403
        },
        {
          "name": "A#5",
          "midi": 82,
          "time": 115.68962624999973,
          "velocity": 0.8188976377952756,
          "duration": 0.17241375000000403
        },
        {
          "name": "C6",
          "midi": 84,
          "time": 115.86203999999974,
          "velocity": 0.7480314960629921,
          "duration": 0.34482749999999385
        },
        {
          "name": "C6",
          "midi": 84,
          "time": 116.20686749999973,
          "velocity": 0.7322834645669292,
          "duration": 0.34482749999999385
        },
        {
          "name": "C6",
          "midi": 84,
          "time": 116.55169499999973,
          "velocity": 0.7322834645669292,
          "duration": 0.34482749999999385
        },
        {
          "name": "C6",
          "midi": 84,
          "time": 116.89652249999972,
          "velocity": 0.7322834645669292,
          "duration": 0.34482749999999385
        },
        {
          "name": "C6",
          "midi": 84,
          "time": 117.24134999999971,
          "velocity": 0.7322834645669292,
          "duration": 0.17241375000000403
        },
        {
          "name": "A#5",
          "midi": 82,
          "time": 117.41376374999972,
          "velocity": 0.7322834645669292,
          "duration": 0.17241375000000403
        },
        {
          "name": "G#5",
          "midi": 80,
          "time": 117.58617749999972,
          "velocity": 0.7322834645669292,
          "duration": 0.17241375000000403
        },
        {
          "name": "C6",
          "midi": 84,
          "time": 117.75859124999972,
          "velocity": 0.7322834645669292,
          "duration": 0.34482749999999385
        },
        {
          "name": "F5",
          "midi": 77,
          "time": 118.27583249999972,
          "velocity": 0.7480314960629921,
          "duration": 0.34482749999999385
        },
        {
          "name": "F#5",
          "midi": 78,
          "time": 118.62065999999972,
          "velocity": 0.7480314960629921,
          "duration": 0.34482749999999385
        },
        {
          "name": "F#5",
          "midi": 78,
          "time": 119.13790124999971,
          "velocity": 0.7165354330708661,
          "duration": 0.34482749999999385
        },
        {
          "name": "F5",
          "midi": 77,
          "time": 119.8275562499997,
          "velocity": 0.6929133858267716,
          "duration": 0.17241375000000403
        },
        {
          "name": "F#5",
          "midi": 78,
          "time": 119.9999699999997,
          "velocity": 0.6771653543307087,
          "duration": 0.34482749999999385
        },
        {
          "name": "F#5",
          "midi": 78,
          "time": 120.3447974999997,
          "velocity": 0.6692913385826772,
          "duration": 0.34482749999999385
        },
        {
          "name": "F#5",
          "midi": 78,
          "time": 120.6896249999997,
          "velocity": 0.6692913385826772,
          "duration": 0.17241375000000403
        },
        {
          "name": "G#5",
          "midi": 80,
          "time": 120.8620387499997,
          "velocity": 0.6692913385826772,
          "duration": 0.5172412499999979
        },
        {
          "name": "C#6",
          "midi": 85,
          "time": 121.3792799999997,
          "velocity": 0.7322834645669292,
          "duration": 0.34482749999999385
        },
        {
          "name": "G#5",
          "midi": 80,
          "time": 122.41376249999969,
          "velocity": 0.7322834645669292,
          "duration": 0.34482749999999385
        },
        {
          "name": "F5",
          "midi": 77,
          "time": 122.75858999999969,
          "velocity": 0.7322834645669292,
          "duration": 0.5172412499999979
        },
        {
          "name": "G#5",
          "midi": 80,
          "time": 123.27583124999968,
          "velocity": 0.7322834645669292,
          "duration": 0.5172412499999979
        },
        {
          "name": "C#6",
          "midi": 85,
          "time": 123.79307249999968,
          "velocity": 0.7322834645669292,
          "duration": 0.34482749999999385
        },
        {
          "name": "C6",
          "midi": 84,
          "time": 124.13789999999968,
          "velocity": 0.7322834645669292,
          "duration": 0.34482749999999385
        },
        {
          "name": "G#5",
          "midi": 80,
          "time": 125.17238249999967,
          "velocity": 0.7322834645669292,
          "duration": 0.34482749999999385
        },
        {
          "name": "F5",
          "midi": 77,
          "time": 125.51720999999966,
          "velocity": 0.7322834645669292,
          "duration": 0.34482749999999385
        },
        {
          "name": "F5",
          "midi": 77,
          "time": 125.86203749999966,
          "velocity": 0.7322834645669292,
          "duration": 0.17241375000000403
        },
        {
          "name": "G#5",
          "midi": 80,
          "time": 126.03445124999966,
          "velocity": 0.7322834645669292,
          "duration": 0.5172412499999979
        },
        {
          "name": "C6",
          "midi": 84,
          "time": 126.55169249999966,
          "velocity": 0.7322834645669292,
          "duration": 0.34482749999999385
        },
        {
          "name": "A#5",
          "midi": 82,
          "time": 126.89651999999965,
          "velocity": 0.7322834645669292,
          "duration": 0.6896550000000019
        },
        {
          "name": "G#5",
          "midi": 80,
          "time": 127.93100249999965,
          "velocity": 0.7322834645669292,
          "duration": 0.34482749999999385
        },
        {
          "name": "F5",
          "midi": 77,
          "time": 128.27582999999964,
          "velocity": 0.7322834645669292,
          "duration": 0.34482750000000806
        },
        {
          "name": "G#5",
          "midi": 80,
          "time": 128.62065749999965,
          "velocity": 0.7322834645669292,
          "duration": 0.17241375000000403
        },
        {
          "name": "G#5",
          "midi": 80,
          "time": 128.79307124999966,
          "velocity": 0.7322834645669292,
          "duration": 0.34482750000000806
        },
        {
          "name": "C#6",
          "midi": 85,
          "time": 129.13789874999966,
          "velocity": 0.7322834645669292,
          "duration": 0.34482750000000806
        },
        {
          "name": "A5",
          "midi": 81,
          "time": 129.65513999999968,
          "velocity": 0.7322834645669292,
          "duration": 0.34482750000000806
        },
        {
          "name": "A5",
          "midi": 81,
          "time": 129.99996749999968,
          "velocity": 0.7322834645669292,
          "duration": 0.17241375000000403
        },
        {
          "name": "A5",
          "midi": 81,
          "time": 130.1723812499997,
          "velocity": 0.7322834645669292,
          "duration": 0.34482750000000806
        },
        {
          "name": "F#5",
          "midi": 78,
          "time": 130.5172087499997,
          "velocity": 0.7322834645669292,
          "duration": 0.34482750000000806
        },
        {
          "name": "C#6",
          "midi": 85,
          "time": 131.0344499999997,
          "velocity": 0.7322834645669292,
          "duration": 0.34482750000000806
        },
        {
          "name": "C#6",
          "midi": 85,
          "time": 131.37927749999972,
          "velocity": 0.7322834645669292,
          "duration": 0.17241375000000403
        },
        {
          "name": "C#6",
          "midi": 85,
          "time": 131.55169124999972,
          "velocity": 0.7322834645669292,
          "duration": 0.34482750000000806
        },
        {
          "name": "A5",
          "midi": 81,
          "time": 131.89651874999973,
          "velocity": 0.7322834645669292,
          "duration": 0.5172412500000121
        },
        {
          "name": "G#5",
          "midi": 80,
          "time": 132.41375999999974,
          "velocity": 0.7322834645669292,
          "duration": 0.5172412500000121
        },
        {
          "name": "C6",
          "midi": 84,
          "time": 133.62065624999974,
          "velocity": 0.7322834645669292,
          "duration": 0.17241375000000403
        },
        {
          "name": "C#6",
          "midi": 85,
          "time": 133.79306999999974,
          "velocity": 0.7322834645669292,
          "duration": 0.17241375000000403
        },
        {
          "name": "C6",
          "midi": 84,
          "time": 133.96548374999975,
          "velocity": 0.7322834645669292,
          "duration": 0.17241375000000403
        },
        {
          "name": "A#5",
          "midi": 82,
          "time": 134.13789749999975,
          "velocity": 0.7322834645669292,
          "duration": 0.17241375000000403
        },
        {
          "name": "G#5",
          "midi": 80,
          "time": 134.31031124999976,
          "velocity": 0.7322834645669292,
          "duration": 0.17241375000000403
        },
        {
          "name": "C#6",
          "midi": 85,
          "time": 134.48272499999976,
          "velocity": 0.7322834645669292,
          "duration": 0.17241375000000403
        },
        {
          "name": "C6",
          "midi": 84,
          "time": 134.65513874999976,
          "velocity": 0.7322834645669292,
          "duration": 0.17241375000000403
        },
        {
          "name": "A#5",
          "midi": 82,
          "time": 134.82755249999977,
          "velocity": 0.7322834645669292,
          "duration": 0.17241375000000403
        },
        {
          "name": "C#6",
          "midi": 85,
          "time": 134.99996624999977,
          "velocity": 0.7322834645669292,
          "duration": 0.17241375000000403
        },
        {
          "name": "C6",
          "midi": 84,
          "time": 135.17237999999978,
          "velocity": 0.7322834645669292,
          "duration": 0.34482750000000806
        },
        {
          "name": "G#5",
          "midi": 80,
          "time": 136.20686249999977,
          "velocity": 0.7322834645669292,
          "duration": 0.17241375000000403
        },
        {
          "name": "A#5",
          "midi": 82,
          "time": 136.37927624999978,
          "velocity": 0.7322834645669292,
          "duration": 0.17241375000000403
        },
        {
          "name": "C6",
          "midi": 84,
          "time": 136.55168999999978,
          "velocity": 0.7322834645669292,
          "duration": 0.17241375000000403
        },
        {
          "name": "A#5",
          "midi": 82,
          "time": 136.72410374999978,
          "velocity": 0.7322834645669292,
          "duration": 0.17241375000000403
        },
        {
          "name": "G#5",
          "midi": 80,
          "time": 136.8965174999998,
          "velocity": 0.7322834645669292,
          "duration": 0.17241375000000403
        },
        {
          "name": "A#5",
          "midi": 82,
          "time": 137.0689312499998,
          "velocity": 0.7322834645669292,
          "duration": 0.17241375000000403
        },
        {
          "name": "C6",
          "midi": 84,
          "time": 137.2413449999998,
          "velocity": 0.7322834645669292,
          "duration": 0.17241375000000403
        },
        {
          "name": "A#5",
          "midi": 82,
          "time": 137.4137587499998,
          "velocity": 0.7322834645669292,
          "duration": 0.17241375000000403
        },
        {
          "name": "G#5",
          "midi": 80,
          "time": 137.5861724999998,
          "velocity": 0.7322834645669292,
          "duration": 0.17241375000000403
        },
        {
          "name": "C6",
          "midi": 84,
          "time": 137.7585862499998,
          "velocity": 0.7322834645669292,
          "duration": 0.17241375000000403
        },
        {
          "name": "A#5",
          "midi": 82,
          "time": 137.9309999999998,
          "velocity": 0.7322834645669292,
          "duration": 0.34482750000000806
        },
        {
          "name": "G#5",
          "midi": 80,
          "time": 138.79306874999983,
          "velocity": 0.7322834645669292,
          "duration": 0.17241375000000403
        },
        {
          "name": "A#5",
          "midi": 82,
          "time": 138.96548249999984,
          "velocity": 0.7322834645669292,
          "duration": 0.17241375000000403
        },
        {
          "name": "G#5",
          "midi": 80,
          "time": 139.13789624999984,
          "velocity": 0.7322834645669292,
          "duration": 0.17241375000000403
        },
        {
          "name": "A#5",
          "midi": 82,
          "time": 139.31030999999984,
          "velocity": 0.7322834645669292,
          "duration": 0.17241375000000403
        },
        {
          "name": "G#5",
          "midi": 80,
          "time": 139.48272374999985,
          "velocity": 0.7322834645669292,
          "duration": 0.17241375000000403
        },
        {
          "name": "A#5",
          "midi": 82,
          "time": 139.65513749999985,
          "velocity": 0.7322834645669292,
          "duration": 0.17241375000000403
        },
        {
          "name": "G#5",
          "midi": 80,
          "time": 139.82755124999986,
          "velocity": 0.7322834645669292,
          "duration": 0.17241375000000403
        },
        {
          "name": "A#5",
          "midi": 82,
          "time": 139.99996499999986,
          "velocity": 0.7322834645669292,
          "duration": 0.34482750000000806
        },
        {
          "name": "C#6",
          "midi": 85,
          "time": 140.34479249999987,
          "velocity": 0.7322834645669292,
          "duration": 0.6896549999999877
        },
        {
          "name": "A5",
          "midi": 81,
          "time": 141.89651624999985,
          "velocity": 0.7322834645669292,
          "duration": 0.34482750000000806
        },
        {
          "name": "C#6",
          "midi": 85,
          "time": 142.06892999999985,
          "velocity": 0.7322834645669292,
          "duration": 0.34482750000000806
        },
        {
          "name": "C#6",
          "midi": 85,
          "time": 142.41375749999986,
          "velocity": 0.7322834645669292,
          "duration": 0.17241375000000403
        },
        {
          "name": "A5",
          "midi": 81,
          "time": 142.58617124999986,
          "velocity": 0.7322834645669292,
          "duration": 0.17241375000000403
        },
        {
          "name": "C#6",
          "midi": 85,
          "time": 142.75858499999987,
          "velocity": 0.7322834645669292,
          "duration": 0.17241375000000403
        },
        {
          "name": "D#6",
          "midi": 87,
          "time": 142.93099874999987,
          "velocity": 0.7322834645669292,
          "duration": 0.17241375000000403
        },
        {
          "name": "F#5",
          "midi": 78,
          "time": 143.27582624999988,
          "velocity": 0.7322834645669292,
          "duration": 0.17241375000000403
        },
        {
          "name": "F5",
          "midi": 77,
          "time": 143.44823999999988,
          "velocity": 0.7322834645669292,
          "duration": 0.34482750000000806
        },
        {
          "name": "C#5",
          "midi": 73,
          "time": 143.9654812499999,
          "velocity": 0.7322834645669292,
          "duration": 0.34482750000000806
        },
        {
          "name": "F#5",
          "midi": 78,
          "time": 144.4827224999999,
          "velocity": 0.7322834645669292,
          "duration": 0.34482750000000806
        },
        {
          "name": "F5",
          "midi": 77,
          "time": 144.82754999999992,
          "velocity": 0.7322834645669292,
          "duration": 0.34482750000000806
        },
        {
          "name": "C#5",
          "midi": 73,
          "time": 145.34479124999993,
          "velocity": 0.7322834645669292,
          "duration": 0.34482750000000806
        },
        {
          "name": "F#5",
          "midi": 78,
          "time": 145.86203249999994,
          "velocity": 0.7322834645669292,
          "duration": 0.17241375000000403
        },
        {
          "name": "F#5",
          "midi": 78,
          "time": 146.03444624999995,
          "velocity": 0.7322834645669292,
          "duration": 0.17241375000000403
        },
        {
          "name": "F#5",
          "midi": 78,
          "time": 146.20685999999995,
          "velocity": 0.7322834645669292,
          "duration": 0.17241375000000403
        },
        {
          "name": "F#5",
          "midi": 78,
          "time": 146.37927374999995,
          "velocity": 0.7322834645669292,
          "duration": 0.17241375000000403
        },
        {
          "name": "F#5",
          "midi": 78,
          "time": 146.55168749999996,
          "velocity": 0.7322834645669292,
          "duration": 0.17241375000000403
        },
        {
          "name": "F#5",
          "midi": 78,
          "time": 146.72410124999996,
          "velocity": 0.7322834645669292,
          "duration": 0.17241375000000403
        },
        {
          "name": "F#5",
          "midi": 78,
          "time": 146.89651499999997,
          "velocity": 0.7322834645669292,
          "duration": 0.17241375000000403
        },
        {
          "name": "F#5",
          "midi": 78,
          "time": 147.06892874999997,
          "velocity": 0.7322834645669292,
          "duration": 0.17241375000000403
        },
        {
          "name": "F#5",
          "midi": 78,
          "time": 147.24134249999997,
          "velocity": 0.7322834645669292,
          "duration": 0.34482750000000806
        },
        {
          "name": "F5",
          "midi": 77,
          "time": 147.58616999999998,
          "velocity": 0.7322834645669292,
          "duration": 0.34482750000000806
        },
        {
          "name": "F#5",
          "midi": 78,
          "time": 148.79306624999998,
          "velocity": 0.7322834645669292,
          "duration": 0.17241375000000403
        },
        {
          "name": "F5",
          "midi": 77,
          "time": 148.96547999999999,
          "velocity": 0.7322834645669292,
          "duration": 0.34482750000000806
        },
        {
          "name": "C#5",
          "midi": 73,
          "time": 149.48272125,
          "velocity": 0.7322834645669292,
          "duration": 0.34482750000000806
        },
        {
          "name": "F#5",
          "midi": 78,
          "time": 149.9999625,
          "velocity": 0.7322834645669292,
          "duration": 0.34482750000000806
        },
        {
          "name": "F5",
          "midi": 77,
          "time": 150.34479000000002,
          "velocity": 0.7322834645669292,
          "duration": 0.34482750000000806
        },
        {
          "name": "C#5",
          "midi": 73,
          "time": 150.86203125000003,
          "velocity": 0.7322834645669292,
          "duration": 0.34482750000000806
        },
        {
          "name": "F#5",
          "midi": 78,
          "time": 151.37927250000004,
          "velocity": 0.7322834645669292,
          "duration": 0.17241375000000403
        },
        {
          "name": "F#5",
          "midi": 78,
          "time": 151.55168625000005,
          "velocity": 0.7322834645669292,
          "duration": 0.17241375000000403
        },
        {
          "name": "F#5",
          "midi": 78,
          "time": 151.72410000000005,
          "velocity": 0.7322834645669292,
          "duration": 0.17241375000000403
        },
        {
          "name": "F#5",
          "midi": 78,
          "time": 151.89651375000005,
          "velocity": 0.7322834645669292,
          "duration": 0.17241375000000403
        },
        {
          "name": "F#5",
          "midi": 78,
          "time": 152.06892750000006,
          "velocity": 0.7322834645669292,
          "duration": 0.17241375000000403
        },
        {
          "name": "F#5",
          "midi": 78,
          "time": 152.24134125000006,
          "velocity": 0.7322834645669292,
          "duration": 0.17241375000000403
        },
        {
          "name": "F#5",
          "midi": 78,
          "time": 152.41375500000007,
          "velocity": 0.7322834645669292,
          "duration": 0.17241375000000403
        },
        {
          "name": "F#5",
          "midi": 78,
          "time": 152.58616875000007,
          "velocity": 0.7322834645669292,
          "duration": 0.17241375000000403
        },
        {
          "name": "F#5",
          "midi": 78,
          "time": 152.75858250000007,
          "velocity": 0.7322834645669292,
          "duration": 0.34482750000000806
        },
        {
          "name": "F5",
          "midi": 77,
          "time": 153.10341000000008,
          "velocity": 0.7322834645669292,
          "duration": 0.34482750000000806
        },
        {
          "name": "C#6",
          "midi": 85,
          "time": 154.48272000000009,
          "velocity": 0.7795275590551181,
          "duration": 0.17241375000000403
        },
        {
          "name": "C6",
          "midi": 84,
          "time": 154.6551337500001,
          "velocity": 0.8031496062992126,
          "duration": 0.34482750000000806
        },
        {
          "name": "A#5",
          "midi": 82,
          "time": 154.9999612500001,
          "velocity": 0.8031496062992126,
          "duration": 0.34482750000000806
        },
        {
          "name": "G#5",
          "midi": 80,
          "time": 155.3447887500001,
          "velocity": 0.8031496062992126,
          "duration": 0.34482750000000806
        },
        {
          "name": "C#6",
          "midi": 85,
          "time": 155.86203000000012,
          "velocity": 0.8031496062992126,
          "duration": 0.17241375000000403
        },
        {
          "name": "C6",
          "midi": 84,
          "time": 156.03444375000012,
          "velocity": 0.8031496062992126,
          "duration": 0.34482750000000806
        },
        {
          "name": "A#5",
          "midi": 82,
          "time": 156.37927125000013,
          "velocity": 0.8031496062992126,
          "duration": 0.34482750000000806
        },
        {
          "name": "G#5",
          "midi": 80,
          "time": 156.72409875000014,
          "velocity": 0.8031496062992126,
          "duration": 0.34482750000000806
        },
        {
          "name": "C#6",
          "midi": 85,
          "time": 157.24134000000015,
          "velocity": 0.8031496062992126,
          "duration": 0.17241375000000403
        },
        {
          "name": "C6",
          "midi": 84,
          "time": 157.41375375000015,
          "velocity": 0.7952755905511811,
          "duration": 0.34482750000000806
        },
        {
          "name": "A#5",
          "midi": 82,
          "time": 157.75858125000016,
          "velocity": 0.7952755905511811,
          "duration": 0.34482750000000806
        },
        {
          "name": "G#5",
          "midi": 80,
          "time": 158.10340875000017,
          "velocity": 0.7952755905511811,
          "duration": 0.34482750000000806
        },
        {
          "name": "G#5",
          "midi": 80,
          "time": 158.62065000000018,
          "velocity": 0.7952755905511811,
          "duration": 0.34482750000000806
        },
        {
          "name": "A#5",
          "midi": 82,
          "time": 159.4827187500002,
          "velocity": 0.8188976377952756,
          "duration": 0.17241375000000403
        },
        {
          "name": "C6",
          "midi": 84,
          "time": 159.6551325000002,
          "velocity": 0.8110236220472441,
          "duration": 0.17241375000000403
        },
        {
          "name": "A#5",
          "midi": 82,
          "time": 159.8275462500002,
          "velocity": 0.8031496062992126,
          "duration": 0.17241375000000403
        },
        {
          "name": "C6",
          "midi": 84,
          "time": 159.99996000000021,
          "velocity": 0.7795275590551181,
          "duration": 0.34482750000000806
        },
        {
          "name": "C6",
          "midi": 84,
          "time": 160.34478750000022,
          "velocity": 0.8031496062992126,
          "duration": 0.34482750000000806
        },
        {
          "name": "C6",
          "midi": 84,
          "time": 160.68961500000023,
          "velocity": 0.7874015748031497,
          "duration": 0.34482750000000806
        },
        {
          "name": "C6",
          "midi": 84,
          "time": 161.03444250000024,
          "velocity": 0.7637795275590551,
          "duration": 0.34482750000000806
        },
        {
          "name": "C6",
          "midi": 84,
          "time": 161.37927000000025,
          "velocity": 0.7322834645669292,
          "duration": 0.17241375000000403
        },
        {
          "name": "A#5",
          "midi": 82,
          "time": 161.55168375000025,
          "velocity": 0.7322834645669292,
          "duration": 0.17241375000000403
        },
        {
          "name": "G#5",
          "midi": 80,
          "time": 161.72409750000025,
          "velocity": 0.7322834645669292,
          "duration": 0.17241375000000403
        },
        {
          "name": "D#6",
          "midi": 87,
          "time": 161.89651125000026,
          "velocity": 0.7322834645669292,
          "duration": 0.34482750000000806
        },
        {
          "name": "C6",
          "midi": 84,
          "time": 161.89651125000026,
          "velocity": 0.7322834645669292,
          "duration": 0.34482750000000806
        },
        {
          "name": "F5",
          "midi": 77,
          "time": 162.24133875000027,
          "velocity": 0.7322834645669292,
          "duration": 0.17241375000000403
        },
        {
          "name": "F5",
          "midi": 77,
          "time": 162.41375250000027,
          "velocity": 0.7322834645669292,
          "duration": 0.17241375000000403
        },
        {
          "name": "F5",
          "midi": 77,
          "time": 162.58616625000028,
          "velocity": 0.7559055118110236,
          "duration": 0.17241375000000403
        },
        {
          "name": "F#5",
          "midi": 78,
          "time": 162.75858000000028,
          "velocity": 0.7637795275590551,
          "duration": 0.34482750000000806
        },
        {
          "name": "F#5",
          "midi": 78,
          "time": 163.1034075000003,
          "velocity": 0.7795275590551181,
          "duration": 0.17241375000000403
        },
        {
          "name": "A5",
          "midi": 81,
          "time": 163.2758212500003,
          "velocity": 0.7795275590551181,
          "duration": 0.34482750000000806
        },
        {
          "name": "A5",
          "midi": 81,
          "time": 163.6206487500003,
          "velocity": 0.7795275590551181,
          "duration": 0.34482750000000806
        },
        {
          "name": "C#6",
          "midi": 85,
          "time": 163.9654762500003,
          "velocity": 0.7874015748031497,
          "duration": 0.34482750000000806
        },
        {
          "name": "C#6",
          "midi": 85,
          "time": 164.31030375000032,
          "velocity": 0.8110236220472441,
          "duration": 0.34482750000000806
        },
        {
          "name": "A5",
          "midi": 81,
          "time": 164.65513125000032,
          "velocity": 0.8188976377952756,
          "duration": 0.17241375000000403
        },
        {
          "name": "C#6",
          "midi": 85,
          "time": 164.82754500000033,
          "velocity": 0.8346456692913385,
          "duration": 0.17241375000000403
        },
        {
          "name": "D#6",
          "midi": 87,
          "time": 164.99995875000033,
          "velocity": 0.8346456692913385,
          "duration": 0.34482750000000806
        },
        {
          "name": "C#6",
          "midi": 85,
          "time": 165.51720000000034,
          "velocity": 0.8346456692913385,
          "duration": 0.17241375000000403
        },
        {
          "name": "C6",
          "midi": 84,
          "time": 165.68961375000035,
          "velocity": 0.8188976377952756,
          "duration": 0.34482750000000806
        },
        {
          "name": "A#5",
          "midi": 82,
          "time": 166.03444125000036,
          "velocity": 0.8110236220472441,
          "duration": 0.34482750000000806
        },
        {
          "name": "G#5",
          "midi": 80,
          "time": 166.37926875000036,
          "velocity": 0.8031496062992126,
          "duration": 0.34482750000000806
        },
        {
          "name": "C#6",
          "midi": 85,
          "time": 166.89651000000038,
          "velocity": 0.8031496062992126,
          "duration": 0.17241375000000403
        },
        {
          "name": "C6",
          "midi": 84,
          "time": 167.06892375000038,
          "velocity": 0.8031496062992126,
          "duration": 0.34482750000000806
        },
        {
          "name": "A#5",
          "midi": 82,
          "time": 167.4137512500004,
          "velocity": 0.8031496062992126,
          "duration": 0.34482750000000806
        },
        {
          "name": "G#5",
          "midi": 80,
          "time": 167.7585787500004,
          "velocity": 0.8031496062992126,
          "duration": 0.34482750000000806
        },
        {
          "name": "C#6",
          "midi": 85,
          "time": 168.2758200000004,
          "velocity": 0.8031496062992126,
          "duration": 0.17241375000000403
        },
        {
          "name": "C6",
          "midi": 84,
          "time": 168.4482337500004,
          "velocity": 0.8031496062992126,
          "duration": 0.34482750000000806
        },
        {
          "name": "A#5",
          "midi": 82,
          "time": 168.79306125000042,
          "velocity": 0.8031496062992126,
          "duration": 0.34482750000000806
        },
        {
          "name": "G#5",
          "midi": 80,
          "time": 169.13788875000043,
          "velocity": 0.8110236220472441,
          "duration": 0.34482750000000806
        },
        {
          "name": "G#5",
          "midi": 80,
          "time": 169.65513000000044,
          "velocity": 0.8188976377952756,
          "duration": 0.34482750000000806
        },
        {
          "name": "A#5",
          "midi": 82,
          "time": 170.51719875000046,
          "velocity": 0.8346456692913385,
          "duration": 0.17241375000000403
        },
        {
          "name": "C6",
          "midi": 84,
          "time": 170.68961250000046,
          "velocity": 0.84251968503937,
          "duration": 0.17241375000000403
        },
        {
          "name": "A#5",
          "midi": 82,
          "time": 170.86202625000047,
          "velocity": 0.8188976377952756,
          "duration": 0.17241375000000403
        },
        {
          "name": "C6",
          "midi": 84,
          "time": 171.03444000000047,
          "velocity": 0.7480314960629921,
          "duration": 0.34482750000000806
        },
        {
          "name": "C6",
          "midi": 84,
          "time": 171.37926750000048,
          "velocity": 0.7322834645669292,
          "duration": 0.34482750000000806
        },
        {
          "name": "C6",
          "midi": 84,
          "time": 171.7240950000005,
          "velocity": 0.7322834645669292,
          "duration": 0.34482750000000806
        },
        {
          "name": "C6",
          "midi": 84,
          "time": 172.0689225000005,
          "velocity": 0.7322834645669292,
          "duration": 0.34482750000000806
        },
        {
          "name": "C6",
          "midi": 84,
          "time": 172.4137500000005,
          "velocity": 0.7322834645669292,
          "duration": 0.17241375000000403
        },
        {
          "name": "A#5",
          "midi": 82,
          "time": 172.5861637500005,
          "velocity": 0.7322834645669292,
          "duration": 0.17241375000000403
        },
        {
          "name": "G#5",
          "midi": 80,
          "time": 172.7585775000005,
          "velocity": 0.7322834645669292,
          "duration": 0.17241375000000403
        },
        {
          "name": "C6",
          "midi": 84,
          "time": 172.93099125000052,
          "velocity": 0.7322834645669292,
          "duration": 0.34482750000000806
        },
        {
          "name": "F5",
          "midi": 77,
          "time": 173.44823250000053,
          "velocity": 0.7480314960629921,
          "duration": 0.34482750000000806
        },
        {
          "name": "F#5",
          "midi": 78,
          "time": 173.79306000000054,
          "velocity": 0.7480314960629921,
          "duration": 0.34482750000000806
        },
        {
          "name": "F#5",
          "midi": 78,
          "time": 174.31030125000055,
          "velocity": 0.7165354330708661,
          "duration": 0.34482750000000806
        },
        {
          "name": "F5",
          "midi": 77,
          "time": 174.99995625000057,
          "velocity": 0.6929133858267716,
          "duration": 0.17241375000000403
        },
        {
          "name": "F#5",
          "midi": 78,
          "time": 175.17237000000057,
          "velocity": 0.6771653543307087,
          "duration": 0.34482750000000806
        },
        {
          "name": "F#5",
          "midi": 78,
          "time": 175.51719750000058,
          "velocity": 0.6692913385826772,
          "duration": 0.34482750000000806
        },
        {
          "name": "F#5",
          "midi": 78,
          "time": 175.86202500000059,
          "velocity": 0.6692913385826772,
          "duration": 0.17241375000000403
        },
        {
          "name": "G#5",
          "midi": 80,
          "time": 176.0344387500006,
          "velocity": 0.6692913385826772,
          "duration": 0.5172412500000121
        },
        {
          "name": "C#6",
          "midi": 85,
          "time": 176.5516800000006,
          "velocity": 0.7795275590551181,
          "duration": 0.17241375000000403
        },
        {
          "name": "C6",
          "midi": 84,
          "time": 176.7240937500006,
          "velocity": 0.8031496062992126,
          "duration": 0.34482750000000806
        },
        {
          "name": "A#5",
          "midi": 82,
          "time": 177.0689212500006,
          "velocity": 0.8031496062992126,
          "duration": 0.34482750000000806
        },
        {
          "name": "G#5",
          "midi": 80,
          "time": 177.41374875000062,
          "velocity": 0.8031496062992126,
          "duration": 0.34482750000000806
        },
        {
          "name": "C#6",
          "midi": 85,
          "time": 177.93099000000063,
          "velocity": 0.8031496062992126,
          "duration": 0.17241375000000403
        },
        {
          "name": "C6",
          "midi": 84,
          "time": 178.10340375000064,
          "velocity": 0.8031496062992126,
          "duration": 0.34482750000000806
        },
        {
          "name": "A#5",
          "midi": 82,
          "time": 178.44823125000065,
          "velocity": 0.8031496062992126,
          "duration": 0.34482750000000806
        },
        {
          "name": "G#5",
          "midi": 80,
          "time": 178.79305875000065,
          "velocity": 0.8031496062992126,
          "duration": 0.34482750000000806
        },
        {
          "name": "C#6",
          "midi": 85,
          "time": 179.31030000000067,
          "velocity": 0.8031496062992126,
          "duration": 0.17241375000000403
        },
        {
          "name": "C6",
          "midi": 84,
          "time": 179.48271375000067,
          "velocity": 0.7952755905511811,
          "duration": 0.34482750000000806
        },
        {
          "name": "A#5",
          "midi": 82,
          "time": 179.82754125000068,
          "velocity": 0.7952755905511811,
          "duration": 0.34482750000000806
        },
        {
          "name": "G#5",
          "midi": 80,
          "time": 180.1723687500007,
          "velocity": 0.7952755905511811,
          "duration": 0.34482750000000806
        },
        {
          "name": "G#5",
          "midi": 80,
          "time": 180.6896100000007,
          "velocity": 0.7952755905511811,
          "duration": 0.34482750000000806
        },
        {
          "name": "A#5",
          "midi": 82,
          "time": 181.55167875000072,
          "velocity": 0.8188976377952756,
          "duration": 0.17241375000000403
        },
        {
          "name": "C6",
          "midi": 84,
          "time": 181.72409250000072,
          "velocity": 0.8110236220472441,
          "duration": 0.17241375000000403
        },
        {
          "name": "A#5",
          "midi": 82,
          "time": 181.89650625000073,
          "velocity": 0.8031496062992126,
          "duration": 0.17241375000000403
        },
        {
          "name": "C6",
          "midi": 84,
          "time": 182.06892000000073,
          "velocity": 0.7795275590551181,
          "duration": 0.34482750000000806
        },
        {
          "name": "C6",
          "midi": 84,
          "time": 182.41374750000074,
          "velocity": 0.8031496062992126,
          "duration": 0.34482750000000806
        },
        {
          "name": "C6",
          "midi": 84,
          "time": 182.75857500000075,
          "velocity": 0.7874015748031497,
          "duration": 0.34482750000000806
        },
        {
          "name": "C6",
          "midi": 84,
          "time": 183.10340250000075,
          "velocity": 0.7637795275590551,
          "duration": 0.34482750000000806
        },
        {
          "name": "C6",
          "midi": 84,
          "time": 183.44823000000076,
          "velocity": 0.7322834645669292,
          "duration": 0.17241375000000403
        },
        {
          "name": "A#5",
          "midi": 82,
          "time": 183.62064375000077,
          "velocity": 0.7322834645669292,
          "duration": 0.17241375000000403
        },
        {
          "name": "G#5",
          "midi": 80,
          "time": 183.79305750000077,
          "velocity": 0.7322834645669292,
          "duration": 0.17241375000000403
        },
        {
          "name": "D#6",
          "midi": 87,
          "time": 183.96547125000077,
          "velocity": 0.7322834645669292,
          "duration": 0.34482750000000806
        },
        {
          "name": "C6",
          "midi": 84,
          "time": 183.96547125000077,
          "velocity": 0.7322834645669292,
          "duration": 0.34482750000000806
        },
        {
          "name": "F5",
          "midi": 77,
          "time": 184.31029875000078,
          "velocity": 0.7322834645669292,
          "duration": 0.17241375000000403
        },
        {
          "name": "F5",
          "midi": 77,
          "time": 184.4827125000008,
          "velocity": 0.7322834645669292,
          "duration": 0.17241375000000403
        },
        {
          "name": "F5",
          "midi": 77,
          "time": 184.6551262500008,
          "velocity": 0.7559055118110236,
          "duration": 0.17241375000000403
        },
        {
          "name": "F#5",
          "midi": 78,
          "time": 184.8275400000008,
          "velocity": 0.7637795275590551,
          "duration": 0.34482750000000806
        },
        {
          "name": "F#5",
          "midi": 78,
          "time": 185.1723675000008,
          "velocity": 0.7795275590551181,
          "duration": 0.17241375000000403
        },
        {
          "name": "A5",
          "midi": 81,
          "time": 185.3447812500008,
          "velocity": 0.7795275590551181,
          "duration": 0.34482750000000806
        },
        {
          "name": "A5",
          "midi": 81,
          "time": 185.68960875000082,
          "velocity": 0.7795275590551181,
          "duration": 0.34482750000000806
        },
        {
          "name": "C#6",
          "midi": 85,
          "time": 186.03443625000082,
          "velocity": 0.7874015748031497,
          "duration": 0.34482750000000806
        },
        {
          "name": "C#6",
          "midi": 85,
          "time": 186.37926375000083,
          "velocity": 0.8110236220472441,
          "duration": 0.34482750000000806
        },
        {
          "name": "A5",
          "midi": 81,
          "time": 186.72409125000084,
          "velocity": 0.8188976377952756,
          "duration": 0.17241375000000403
        },
        {
          "name": "C#6",
          "midi": 85,
          "time": 186.89650500000084,
          "velocity": 0.8346456692913385,
          "duration": 0.17241375000000403
        },
        {
          "name": "D#6",
          "midi": 87,
          "time": 187.06891875000085,
          "velocity": 0.8346456692913385,
          "duration": 0.34482750000000806
        },
        {
          "name": "C#6",
          "midi": 85,
          "time": 187.58616000000086,
          "velocity": 0.8346456692913385,
          "duration": 0.17241375000000403
        },
        {
          "name": "C6",
          "midi": 84,
          "time": 187.75857375000086,
          "velocity": 0.8188976377952756,
          "duration": 0.34482750000000806
        },
        {
          "name": "A#5",
          "midi": 82,
          "time": 188.10340125000087,
          "velocity": 0.8110236220472441,
          "duration": 0.34482750000000806
        },
        {
          "name": "G#5",
          "midi": 80,
          "time": 188.44822875000088,
          "velocity": 0.8031496062992126,
          "duration": 0.34482750000000806
        },
        {
          "name": "C#6",
          "midi": 85,
          "time": 188.9654700000009,
          "velocity": 0.8031496062992126,
          "duration": 0.17241375000000403
        },
        {
          "name": "C6",
          "midi": 84,
          "time": 189.1378837500009,
          "velocity": 0.8031496062992126,
          "duration": 0.34482750000000806
        },
        {
          "name": "A#5",
          "midi": 82,
          "time": 189.4827112500009,
          "velocity": 0.8031496062992126,
          "duration": 0.34482750000000806
        },
        {
          "name": "G#5",
          "midi": 80,
          "time": 189.8275387500009,
          "velocity": 0.8031496062992126,
          "duration": 0.34482750000000806
        },
        {
          "name": "C#6",
          "midi": 85,
          "time": 190.34478000000092,
          "velocity": 0.8031496062992126,
          "duration": 0.17241375000000403
        },
        {
          "name": "C6",
          "midi": 84,
          "time": 190.51719375000093,
          "velocity": 0.8031496062992126,
          "duration": 0.34482750000000806
        },
        {
          "name": "A#5",
          "midi": 82,
          "time": 190.86202125000094,
          "velocity": 0.8031496062992126,
          "duration": 0.34482750000000806
        },
        {
          "name": "G#5",
          "midi": 80,
          "time": 191.20684875000094,
          "velocity": 0.8110236220472441,
          "duration": 0.34482750000000806
        },
        {
          "name": "G#5",
          "midi": 80,
          "time": 191.72409000000096,
          "velocity": 0.8188976377952756,
          "duration": 0.34482750000000806
        },
        {
          "name": "A#5",
          "midi": 82,
          "time": 192.58615875000098,
          "velocity": 0.8346456692913385,
          "duration": 0.17241375000000403
        },
        {
          "name": "C6",
          "midi": 84,
          "time": 192.75857250000098,
          "velocity": 0.84251968503937,
          "duration": 0.17241375000000403
        },
        {
          "name": "A#5",
          "midi": 82,
          "time": 192.93098625000098,
          "velocity": 0.8188976377952756,
          "duration": 0.17241375000000403
        },
        {
          "name": "C6",
          "midi": 84,
          "time": 193.103400000001,
          "velocity": 0.7480314960629921,
          "duration": 0.34482750000000806
        },
        {
          "name": "C6",
          "midi": 84,
          "time": 193.448227500001,
          "velocity": 0.7322834645669292,
          "duration": 0.34482750000000806
        },
        {
          "name": "C6",
          "midi": 84,
          "time": 193.793055000001,
          "velocity": 0.7322834645669292,
          "duration": 0.34482750000000806
        },
        {
          "name": "C6",
          "midi": 84,
          "time": 194.137882500001,
          "velocity": 0.7322834645669292,
          "duration": 0.34482750000000806
        },
        {
          "name": "C6",
          "midi": 84,
          "time": 194.48271000000102,
          "velocity": 0.7322834645669292,
          "duration": 0.17241375000000403
        },
        {
          "name": "A#5",
          "midi": 82,
          "time": 194.65512375000102,
          "velocity": 0.7322834645669292,
          "duration": 0.17241375000000403
        },
        {
          "name": "G#5",
          "midi": 80,
          "time": 194.82753750000103,
          "velocity": 0.7322834645669292,
          "duration": 0.17241375000000403
        },
        {
          "name": "C6",
          "midi": 84,
          "time": 194.99995125000103,
          "velocity": 0.7322834645669292,
          "duration": 0.34482750000000806
        },
        {
          "name": "F5",
          "midi": 77,
          "time": 195.51719250000104,
          "velocity": 0.7480314960629921,
          "duration": 0.34482750000000806
        },
        {
          "name": "F#5",
          "midi": 78,
          "time": 195.86202000000105,
          "velocity": 0.7480314960629921,
          "duration": 0.34482750000000806
        },
        {
          "name": "F#5",
          "midi": 78,
          "time": 196.37926125000106,
          "velocity": 0.7165354330708661,
          "duration": 0.34482750000000806
        },
        {
          "name": "F5",
          "midi": 77,
          "time": 197.06891625000108,
          "velocity": 0.6929133858267716,
          "duration": 0.17241375000000403
        },
        {
          "name": "F#5",
          "midi": 78,
          "time": 197.24133000000108,
          "velocity": 0.6771653543307087,
          "duration": 0.34482750000000806
        },
        {
          "name": "F#5",
          "midi": 78,
          "time": 197.5861575000011,
          "velocity": 0.6692913385826772,
          "duration": 0.34482750000000806
        },
        {
          "name": "F#5",
          "midi": 78,
          "time": 197.9309850000011,
          "velocity": 0.6692913385826772,
          "duration": 0.17241375000000403
        },
        {
          "name": "G#5",
          "midi": 80,
          "time": 198.1033987500011,
          "velocity": 0.6692913385826772,
          "duration": 0.5172412500000121
        }
      ],
      "controlChanges": {
        "6": [
          {
            "number": 6,
            "time": 0,
            "value": 0.09448818897637795
          },
          {
            "number": 6,
            "time": 0,
            "value": 0.09448818897637795
          },
          {
            "number": 6,
            "time": 0,
            "value": 0.09448818897637795
          },
          {
            "number": 6,
            "time": 204.1378800000011,
            "value": 0.09448818897637795
          },
          {
            "number": 6,
            "time": 204.1450639062511,
            "value": 0.09448818897637795
          },
          {
            "number": 6,
            "time": 204.1450639062511,
            "value": 0.09448818897637795
          }
        ],
        "7": [
          {
            "number": 7,
            "time": 0,
            "value": 0.33858267716535434
          },
          {
            "number": 7,
            "time": 0,
            "value": 0.33858267716535434
          },
          {
            "number": 7,
            "time": 0,
            "value": 0.33858267716535434
          },
          {
            "number": 7,
            "time": 0,
            "value": 0.33858267716535434
          },
          {
            "number": 7,
            "time": 204.1378800000011,
            "value": 0.33858267716535434
          },
          {
            "number": 7,
            "time": 204.1450639062511,
            "value": 0.33858267716535434
          },
          {
            "number": 7,
            "time": 204.1450639062511,
            "value": 0.33858267716535434
          }
        ],
        "10": [
          {
            "number": 10,
            "time": 0,
            "value": 0.5039370078740157
          },
          {
            "number": 10,
            "time": 0,
            "value": 0.5039370078740157
          },
          {
            "number": 10,
            "time": 0,
            "value": 0.5039370078740157
          },
          {
            "number": 10,
            "time": 0,
            "value": 0.5039370078740157
          },
          {
            "number": 10,
            "time": 204.1378800000011,
            "value": 0.5039370078740157
          },
          {
            "number": 10,
            "time": 204.1450639062511,
            "value": 0.5039370078740157
          },
          {
            "number": 10,
            "time": 204.1450639062511,
            "value": 0.5039370078740157
          }
        ],
        "64": [
          {
            "number": 64,
            "time": 0,
            "value": 0.03937007874015748
          },
          {
            "number": 64,
            "time": 0,
            "value": 0.03937007874015748
          },
          {
            "number": 64,
            "time": 0,
            "value": 0.03937007874015748
          },
          {
            "number": 64,
            "time": 204.1378800000011,
            "value": 0.03937007874015748
          },
          {
            "number": 64,
            "time": 204.1450639062511,
            "value": 0.03937007874015748
          },
          {
            "number": 64,
            "time": 204.1450639062511,
            "value": 0.03937007874015748
          }
        ],
        "100": [
          {
            "number": 100,
            "time": 0,
            "value": 0
          },
          {
            "number": 100,
            "time": 0,
            "value": 0
          },
          {
            "number": 100,
            "time": 0,
            "value": 0
          },
          {
            "number": 100,
            "time": 204.1378800000011,
            "value": 0
          },
          {
            "number": 100,
            "time": 204.1450639062511,
            "value": 0
          },
          {
            "number": 100,
            "time": 204.1450639062511,
            "value": 0
          }
        ],
        "101": [
          {
            "number": 101,
            "time": 0,
            "value": 0
          },
          {
            "number": 101,
            "time": 0,
            "value": 0
          },
          {
            "number": 101,
            "time": 0,
            "value": 0
          },
          {
            "number": 101,
            "time": 204.1378800000011,
            "value": 0
          },
          {
            "number": 101,
            "time": 204.1450639062511,
            "value": 0
          },
          {
            "number": 101,
            "time": 204.1450639062511,
            "value": 0
          }
        ]
      },
      "id": 2,
      "name": "MO1",
      "instrumentNumber": 0,
      "instrument": "acoustic grand piano",
      "instrumentFamily": "piano",
      "channelNumber": 0,
      "isPercussion": false
    },
    {
      "startTime": 0,
      "duration": 202.74420218750055,
      "length": 553,
      "notes": [
        {
          "name": "C#3",
          "midi": 49,
          "time": 0,
          "velocity": 0.7322834645669292,
          "duration": 4.13793
        },
        {
          "name": "G#3",
          "midi": 56,
          "time": 0,
          "velocity": 0.7322834645669292,
          "duration": 4.13793
        },
        {
          "name": "F3",
          "midi": 53,
          "time": 0,
          "velocity": 0.7322834645669292,
          "duration": 4.13793
        },
        {
          "name": "C#4",
          "midi": 61,
          "time": 4.13793,
          "velocity": 0.7322834645669292,
          "duration": 1.3793100000000003
        },
        {
          "name": "F#3",
          "midi": 54,
          "time": 4.13793,
          "velocity": 0.7322834645669292,
          "duration": 1.3793100000000003
        },
        {
          "name": "A3",
          "midi": 57,
          "time": 4.13793,
          "velocity": 0.7322834645669292,
          "duration": 1.3793100000000003
        },
        {
          "name": "C#3",
          "midi": 49,
          "time": 5.51724,
          "velocity": 0.7322834645669292,
          "duration": 4.13793
        },
        {
          "name": "F3",
          "midi": 53,
          "time": 6.89655,
          "velocity": 0.7322834645669292,
          "duration": 2.7586199999999996
        },
        {
          "name": "G#3",
          "midi": 56,
          "time": 8.27586,
          "velocity": 0.7322834645669292,
          "duration": 1.3793100000000003
        },
        {
          "name": "C#4",
          "midi": 61,
          "time": 9.65517,
          "velocity": 0.7322834645669292,
          "duration": 1.3793100000000003
        },
        {
          "name": "F#3",
          "midi": 54,
          "time": 9.65517,
          "velocity": 0.7322834645669292,
          "duration": 1.3793100000000003
        },
        {
          "name": "A3",
          "midi": 57,
          "time": 9.65517,
          "velocity": 0.7322834645669292,
          "duration": 1.3793100000000003
        },
        {
          "name": "C#2",
          "midi": 37,
          "time": 11.03448,
          "velocity": 0.7322834645669292,
          "duration": 1.3793099999999967
        },
        {
          "name": "G#2",
          "midi": 44,
          "time": 11.3793075,
          "velocity": 0.7322834645669292,
          "duration": 1.0344824999999975
        },
        {
          "name": "C#3",
          "midi": 49,
          "time": 11.724134999999999,
          "velocity": 0.7322834645669292,
          "duration": 0.6896549999999984
        },
        {
          "name": "F3",
          "midi": 53,
          "time": 12.068962499999998,
          "velocity": 0.7322834645669292,
          "duration": 0.6896549999999984
        },
        {
          "name": "C#2",
          "midi": 37,
          "time": 12.413789999999997,
          "velocity": 0.7322834645669292,
          "duration": 1.0344824999999975
        },
        {
          "name": "G#2",
          "midi": 44,
          "time": 12.758617499999996,
          "velocity": 0.7322834645669292,
          "duration": 1.0344824999999975
        },
        {
          "name": "C#3",
          "midi": 49,
          "time": 13.103444999999995,
          "velocity": 0.7322834645669292,
          "duration": 0.6896549999999984
        },
        {
          "name": "F3",
          "midi": 53,
          "time": 13.448272499999995,
          "velocity": 0.7322834645669292,
          "duration": 0.3448274999999992
        },
        {
          "name": "C#2",
          "midi": 37,
          "time": 13.793099999999994,
          "velocity": 0.7322834645669292,
          "duration": 1.0344824999999975
        },
        {
          "name": "G#2",
          "midi": 44,
          "time": 14.137927499999993,
          "velocity": 0.7322834645669292,
          "duration": 1.0344824999999975
        },
        {
          "name": "C#3",
          "midi": 49,
          "time": 14.482754999999992,
          "velocity": 0.7322834645669292,
          "duration": 0.6896549999999984
        },
        {
          "name": "F3",
          "midi": 53,
          "time": 14.827582499999991,
          "velocity": 0.7322834645669292,
          "duration": 0.3448274999999992
        },
        {
          "name": "F#2",
          "midi": 42,
          "time": 15.17240999999999,
          "velocity": 0.7322834645669292,
          "duration": 1.0344824999999975
        },
        {
          "name": "A2",
          "midi": 45,
          "time": 15.51723749999999,
          "velocity": 0.7322834645669292,
          "duration": 1.0344824999999993
        },
        {
          "name": "C#3",
          "midi": 49,
          "time": 15.862064999999989,
          "velocity": 0.7322834645669292,
          "duration": 0.6896550000000001
        },
        {
          "name": "F#3",
          "midi": 54,
          "time": 16.206892499999988,
          "velocity": 0.7322834645669292,
          "duration": 0.34482750000000095
        },
        {
          "name": "C#2",
          "midi": 37,
          "time": 16.55171999999999,
          "velocity": 0.7322834645669292,
          "duration": 1.3793100000000038
        },
        {
          "name": "G#2",
          "midi": 44,
          "time": 16.89654749999999,
          "velocity": 0.7322834645669292,
          "duration": 1.0344825000000029
        },
        {
          "name": "C#3",
          "midi": 49,
          "time": 17.24137499999999,
          "velocity": 0.7322834645669292,
          "duration": 0.6896550000000019
        },
        {
          "name": "F3",
          "midi": 53,
          "time": 17.58620249999999,
          "velocity": 0.7322834645669292,
          "duration": 0.6896550000000019
        },
        {
          "name": "C#2",
          "midi": 37,
          "time": 17.931029999999993,
          "velocity": 0.7322834645669292,
          "duration": 1.0344825000000029
        },
        {
          "name": "G#2",
          "midi": 44,
          "time": 18.275857499999994,
          "velocity": 0.7322834645669292,
          "duration": 1.0344825000000029
        },
        {
          "name": "C#3",
          "midi": 49,
          "time": 18.620684999999995,
          "velocity": 0.7322834645669292,
          "duration": 0.6896550000000019
        },
        {
          "name": "F3",
          "midi": 53,
          "time": 18.965512499999996,
          "velocity": 0.7322834645669292,
          "duration": 0.34482750000000095
        },
        {
          "name": "C#2",
          "midi": 37,
          "time": 19.310339999999997,
          "velocity": 0.7322834645669292,
          "duration": 1.0344825000000029
        },
        {
          "name": "G#2",
          "midi": 44,
          "time": 19.655167499999997,
          "velocity": 0.7322834645669292,
          "duration": 1.0344825000000029
        },
        {
          "name": "C#3",
          "midi": 49,
          "time": 19.999995,
          "velocity": 0.7322834645669292,
          "duration": 0.6896550000000019
        },
        {
          "name": "F3",
          "midi": 53,
          "time": 20.3448225,
          "velocity": 0.7322834645669292,
          "duration": 0.34482750000000095
        },
        {
          "name": "F#2",
          "midi": 42,
          "time": 20.68965,
          "velocity": 0.7322834645669292,
          "duration": 1.0344825000000029
        },
        {
          "name": "A2",
          "midi": 45,
          "time": 21.0344775,
          "velocity": 0.7322834645669292,
          "duration": 1.0344825000000029
        },
        {
          "name": "C#3",
          "midi": 49,
          "time": 21.379305000000002,
          "velocity": 0.7322834645669292,
          "duration": 0.6896550000000019
        },
        {
          "name": "F#3",
          "midi": 54,
          "time": 21.724132500000003,
          "velocity": 0.7322834645669292,
          "duration": 0.34482750000000095
        },
        {
          "name": "C#2",
          "midi": 37,
          "time": 22.068960000000004,
          "velocity": 0.7322834645669292,
          "duration": 1.3793100000000038
        },
        {
          "name": "G#2",
          "midi": 44,
          "time": 22.413787500000005,
          "velocity": 0.7322834645669292,
          "duration": 1.0344825000000029
        },
        {
          "name": "C#3",
          "midi": 49,
          "time": 22.758615000000006,
          "velocity": 0.7322834645669292,
          "duration": 0.6896550000000019
        },
        {
          "name": "F3",
          "midi": 53,
          "time": 23.103442500000007,
          "velocity": 0.7322834645669292,
          "duration": 0.6896550000000019
        },
        {
          "name": "C#2",
          "midi": 37,
          "time": 23.448270000000008,
          "velocity": 0.7322834645669292,
          "duration": 1.0344825000000029
        },
        {
          "name": "G#2",
          "midi": 44,
          "time": 23.79309750000001,
          "velocity": 0.7322834645669292,
          "duration": 1.0344825000000029
        },
        {
          "name": "C#3",
          "midi": 49,
          "time": 24.13792500000001,
          "velocity": 0.7322834645669292,
          "duration": 0.6896550000000019
        },
        {
          "name": "F3",
          "midi": 53,
          "time": 24.48275250000001,
          "velocity": 0.7322834645669292,
          "duration": 0.34482750000000095
        },
        {
          "name": "C#2",
          "midi": 37,
          "time": 24.82758000000001,
          "velocity": 0.7322834645669292,
          "duration": 1.0344825000000029
        },
        {
          "name": "G#2",
          "midi": 44,
          "time": 25.172407500000013,
          "velocity": 0.7322834645669292,
          "duration": 1.0344825000000029
        },
        {
          "name": "C#3",
          "midi": 49,
          "time": 25.517235000000014,
          "velocity": 0.7322834645669292,
          "duration": 0.6896550000000019
        },
        {
          "name": "F3",
          "midi": 53,
          "time": 25.862062500000015,
          "velocity": 0.7322834645669292,
          "duration": 0.34482750000000095
        },
        {
          "name": "F#2",
          "midi": 42,
          "time": 26.206890000000016,
          "velocity": 0.7322834645669292,
          "duration": 1.0344825000000029
        },
        {
          "name": "A2",
          "midi": 45,
          "time": 26.551717500000017,
          "velocity": 0.7322834645669292,
          "duration": 1.0344825000000029
        },
        {
          "name": "C#3",
          "midi": 49,
          "time": 26.896545000000017,
          "velocity": 0.7322834645669292,
          "duration": 0.6896550000000019
        },
        {
          "name": "F#3",
          "midi": 54,
          "time": 27.24137250000002,
          "velocity": 0.7322834645669292,
          "duration": 0.34482750000000095
        },
        {
          "name": "C#2",
          "midi": 37,
          "time": 27.58620000000002,
          "velocity": 0.7322834645669292,
          "duration": 1.3793100000000038
        },
        {
          "name": "G#2",
          "midi": 44,
          "time": 27.93102750000002,
          "velocity": 0.7322834645669292,
          "duration": 1.0344825000000029
        },
        {
          "name": "C#3",
          "midi": 49,
          "time": 28.27585500000002,
          "velocity": 0.7322834645669292,
          "duration": 0.6896550000000019
        },
        {
          "name": "F3",
          "midi": 53,
          "time": 28.620682500000022,
          "velocity": 0.7322834645669292,
          "duration": 0.6896550000000019
        },
        {
          "name": "C#2",
          "midi": 37,
          "time": 28.965510000000023,
          "velocity": 0.7322834645669292,
          "duration": 1.0344825000000029
        },
        {
          "name": "G#2",
          "midi": 44,
          "time": 29.310337500000024,
          "velocity": 0.7322834645669292,
          "duration": 1.0344825000000029
        },
        {
          "name": "C#3",
          "midi": 49,
          "time": 29.655165000000025,
          "velocity": 0.7322834645669292,
          "duration": 0.6896550000000019
        },
        {
          "name": "F3",
          "midi": 53,
          "time": 29.999992500000026,
          "velocity": 0.7322834645669292,
          "duration": 0.34482750000000095
        },
        {
          "name": "C#2",
          "midi": 37,
          "time": 30.344820000000027,
          "velocity": 0.7322834645669292,
          "duration": 1.0344825000000029
        },
        {
          "name": "G#2",
          "midi": 44,
          "time": 30.689647500000028,
          "velocity": 0.7322834645669292,
          "duration": 1.0344825000000029
        },
        {
          "name": "C#3",
          "midi": 49,
          "time": 31.03447500000003,
          "velocity": 0.7322834645669292,
          "duration": 0.6896550000000019
        },
        {
          "name": "F3",
          "midi": 53,
          "time": 31.37930250000003,
          "velocity": 0.7322834645669292,
          "duration": 0.34482750000000095
        },
        {
          "name": "F#2",
          "midi": 42,
          "time": 31.72413000000003,
          "velocity": 0.7322834645669292,
          "duration": 1.0344825000000029
        },
        {
          "name": "A2",
          "midi": 45,
          "time": 32.06895750000003,
          "velocity": 0.7322834645669292,
          "duration": 1.0344825000000029
        },
        {
          "name": "C#3",
          "midi": 49,
          "time": 32.41378500000003,
          "velocity": 0.7322834645669292,
          "duration": 0.6896550000000019
        },
        {
          "name": "F#3",
          "midi": 54,
          "time": 32.758612500000034,
          "velocity": 0.7322834645669292,
          "duration": 0.34482750000000095
        },
        {
          "name": "F#2",
          "midi": 42,
          "time": 33.103440000000035,
          "velocity": 0.7322834645669292,
          "duration": 0.34482750000000095
        },
        {
          "name": "C#3",
          "midi": 49,
          "time": 33.448267500000036,
          "velocity": 0.7322834645669292,
          "duration": 0.34482750000000095
        },
        {
          "name": "F#3",
          "midi": 54,
          "time": 33.79309500000004,
          "velocity": 0.7322834645669292,
          "duration": 0.34482750000000095
        },
        {
          "name": "A#3",
          "midi": 58,
          "time": 34.13792250000004,
          "velocity": 0.7322834645669292,
          "duration": 0.34482750000000095
        },
        {
          "name": "F#3",
          "midi": 54,
          "time": 34.48275000000004,
          "velocity": 0.7322834645669292,
          "duration": 0.34482750000000095
        },
        {
          "name": "C#3",
          "midi": 49,
          "time": 34.82757750000004,
          "velocity": 0.7322834645669292,
          "duration": 0.34482750000000095
        },
        {
          "name": "F#2",
          "midi": 42,
          "time": 35.17240500000004,
          "velocity": 0.7322834645669292,
          "duration": 0.34482750000000095
        },
        {
          "name": "C#3",
          "midi": 49,
          "time": 35.51723250000004,
          "velocity": 0.7322834645669292,
          "duration": 0.34482750000000095
        },
        {
          "name": "G#2",
          "midi": 44,
          "time": 35.86206000000004,
          "velocity": 0.7322834645669292,
          "duration": 0.34482750000000095
        },
        {
          "name": "D#3",
          "midi": 51,
          "time": 36.20688750000004,
          "velocity": 0.7322834645669292,
          "duration": 0.34482750000000095
        },
        {
          "name": "G#3",
          "midi": 56,
          "time": 36.551715000000044,
          "velocity": 0.7322834645669292,
          "duration": 0.34482750000000095
        },
        {
          "name": "C4",
          "midi": 60,
          "time": 36.896542500000045,
          "velocity": 0.7322834645669292,
          "duration": 0.34482750000000095
        },
        {
          "name": "G#3",
          "midi": 56,
          "time": 37.241370000000046,
          "velocity": 0.7322834645669292,
          "duration": 0.34482750000000095
        },
        {
          "name": "D#3",
          "midi": 51,
          "time": 37.58619750000005,
          "velocity": 0.7322834645669292,
          "duration": 0.34482750000000095
        },
        {
          "name": "G#2",
          "midi": 44,
          "time": 37.93102500000005,
          "velocity": 0.7322834645669292,
          "duration": 0.34482750000000095
        },
        {
          "name": "D#3",
          "midi": 51,
          "time": 38.27585250000005,
          "velocity": 0.7322834645669292,
          "duration": 0.34482750000000095
        },
        {
          "name": "F#2",
          "midi": 42,
          "time": 38.62068000000005,
          "velocity": 0.7322834645669292,
          "duration": 0.34482750000000095
        },
        {
          "name": "C#3",
          "midi": 49,
          "time": 38.96550750000005,
          "velocity": 0.7322834645669292,
          "duration": 0.34482750000000095
        },
        {
          "name": "F#3",
          "midi": 54,
          "time": 39.31033500000005,
          "velocity": 0.7322834645669292,
          "duration": 0.34482750000000095
        },
        {
          "name": "A#3",
          "midi": 58,
          "time": 39.65516250000005,
          "velocity": 0.7322834645669292,
          "duration": 0.34482750000000095
        },
        {
          "name": "F#3",
          "midi": 54,
          "time": 39.999990000000054,
          "velocity": 0.7322834645669292,
          "duration": 0.34482750000000095
        },
        {
          "name": "C#3",
          "midi": 49,
          "time": 40.344817500000055,
          "velocity": 0.7322834645669292,
          "duration": 0.34482750000000095
        },
        {
          "name": "F#2",
          "midi": 42,
          "time": 40.689645000000056,
          "velocity": 0.7322834645669292,
          "duration": 0.34482750000000095
        },
        {
          "name": "C#3",
          "midi": 49,
          "time": 41.03447250000006,
          "velocity": 0.7322834645669292,
          "duration": 0.34482750000000095
        },
        {
          "name": "G#2",
          "midi": 44,
          "time": 41.37930000000006,
          "velocity": 0.7322834645669292,
          "duration": 0.34482750000000095
        },
        {
          "name": "D#3",
          "midi": 51,
          "time": 41.72412750000006,
          "velocity": 0.7322834645669292,
          "duration": 0.34482750000000095
        },
        {
          "name": "G#3",
          "midi": 56,
          "time": 42.06895500000006,
          "velocity": 0.7322834645669292,
          "duration": 0.34482750000000095
        },
        {
          "name": "C4",
          "midi": 60,
          "time": 42.41378250000006,
          "velocity": 0.7322834645669292,
          "duration": 0.34482750000000095
        },
        {
          "name": "G#3",
          "midi": 56,
          "time": 42.75861000000006,
          "velocity": 0.7322834645669292,
          "duration": 0.34482750000000095
        },
        {
          "name": "D#3",
          "midi": 51,
          "time": 43.10343750000006,
          "velocity": 0.7322834645669292,
          "duration": 0.34482750000000095
        },
        {
          "name": "G#2",
          "midi": 44,
          "time": 43.44826500000006,
          "velocity": 0.7322834645669292,
          "duration": 0.34482750000000095
        },
        {
          "name": "D#3",
          "midi": 51,
          "time": 43.793092500000064,
          "velocity": 0.7322834645669292,
          "duration": 0.34482750000000095
        },
        {
          "name": "F#2",
          "midi": 42,
          "time": 44.137920000000065,
          "velocity": 0.7322834645669292,
          "duration": 0.34482750000000095
        },
        {
          "name": "C#3",
          "midi": 49,
          "time": 44.482747500000066,
          "velocity": 0.7322834645669292,
          "duration": 0.34482750000000095
        },
        {
          "name": "F#3",
          "midi": 54,
          "time": 44.82757500000007,
          "velocity": 0.7322834645669292,
          "duration": 0.34482750000000095
        },
        {
          "name": "A#3",
          "midi": 58,
          "time": 45.17240250000007,
          "velocity": 0.7322834645669292,
          "duration": 0.34482750000000095
        },
        {
          "name": "F#3",
          "midi": 54,
          "time": 45.51723000000007,
          "velocity": 0.7322834645669292,
          "duration": 0.34482750000000095
        },
        {
          "name": "C#3",
          "midi": 49,
          "time": 45.86205750000007,
          "velocity": 0.7322834645669292,
          "duration": 0.34482750000000095
        },
        {
          "name": "F#2",
          "midi": 42,
          "time": 46.20688500000007,
          "velocity": 0.7322834645669292,
          "duration": 0.34482750000000095
        },
        {
          "name": "C#3",
          "midi": 49,
          "time": 46.55171250000007,
          "velocity": 0.7322834645669292,
          "duration": 0.34482750000000095
        },
        {
          "name": "C#2",
          "midi": 37,
          "time": 46.89654000000007,
          "velocity": 0.7322834645669292,
          "duration": 0.34482750000000095
        },
        {
          "name": "G#2",
          "midi": 44,
          "time": 47.241367500000074,
          "velocity": 0.7322834645669292,
          "duration": 0.34482750000000095
        },
        {
          "name": "C#3",
          "midi": 49,
          "time": 47.586195000000075,
          "velocity": 0.7322834645669292,
          "duration": 0.34482750000000095
        },
        {
          "name": "F3",
          "midi": 53,
          "time": 47.931022500000076,
          "velocity": 0.7322834645669292,
          "duration": 0.34482750000000095
        },
        {
          "name": "C#3",
          "midi": 49,
          "time": 48.27585000000008,
          "velocity": 0.7322834645669292,
          "duration": 0.34482750000000095
        },
        {
          "name": "G#2",
          "midi": 44,
          "time": 48.62067750000008,
          "velocity": 0.7322834645669292,
          "duration": 0.34482750000000095
        },
        {
          "name": "C#2",
          "midi": 37,
          "time": 48.96550500000008,
          "velocity": 0.7322834645669292,
          "duration": 0.34482750000000095
        },
        {
          "name": "G#2",
          "midi": 44,
          "time": 49.31033250000008,
          "velocity": 0.7322834645669292,
          "duration": 0.34482750000000095
        },
        {
          "name": "F#2",
          "midi": 42,
          "time": 49.65516000000008,
          "velocity": 0.7322834645669292,
          "duration": 0.34482750000000095
        },
        {
          "name": "C#3",
          "midi": 49,
          "time": 49.99998750000008,
          "velocity": 0.7322834645669292,
          "duration": 0.34482750000000095
        },
        {
          "name": "F#3",
          "midi": 54,
          "time": 50.34481500000008,
          "velocity": 0.7322834645669292,
          "duration": 0.34482750000000095
        },
        {
          "name": "A#3",
          "midi": 58,
          "time": 50.68964250000008,
          "velocity": 0.7322834645669292,
          "duration": 0.34482750000000095
        },
        {
          "name": "F#3",
          "midi": 54,
          "time": 51.034470000000084,
          "velocity": 0.7322834645669292,
          "duration": 0.34482750000000095
        },
        {
          "name": "C#3",
          "midi": 49,
          "time": 51.379297500000085,
          "velocity": 0.7322834645669292,
          "duration": 0.34482750000000095
        },
        {
          "name": "F#2",
          "midi": 42,
          "time": 51.724125000000086,
          "velocity": 0.7322834645669292,
          "duration": 0.34482750000000095
        },
        {
          "name": "C#3",
          "midi": 49,
          "time": 52.06895250000009,
          "velocity": 0.7322834645669292,
          "duration": 0.34482750000000095
        },
        {
          "name": "G#2",
          "midi": 44,
          "time": 52.41378000000009,
          "velocity": 0.7322834645669292,
          "duration": 0.34482750000000095
        },
        {
          "name": "D#3",
          "midi": 51,
          "time": 52.75860750000009,
          "velocity": 0.7322834645669292,
          "duration": 0.34482750000000095
        },
        {
          "name": "G#3",
          "midi": 56,
          "time": 53.10343500000009,
          "velocity": 0.7322834645669292,
          "duration": 0.34482750000000095
        },
        {
          "name": "C4",
          "midi": 60,
          "time": 53.44826250000009,
          "velocity": 0.7322834645669292,
          "duration": 0.34482750000000095
        },
        {
          "name": "G#2",
          "midi": 44,
          "time": 53.79309000000009,
          "velocity": 0.7874015748031497,
          "duration": 1.0344825000000029
        },
        {
          "name": "D#3",
          "midi": 51,
          "time": 53.79309000000009,
          "velocity": 0.7874015748031497,
          "duration": 1.0344825000000029
        },
        {
          "name": "G#3",
          "midi": 56,
          "time": 53.79309000000009,
          "velocity": 0.7322834645669292,
          "duration": 1.0344825000000029
        },
        {
          "name": "C#2",
          "midi": 37,
          "time": 55.172400000000096,
          "velocity": 0.7322834645669292,
          "duration": 1.3793100000000038
        },
        {
          "name": "G#2",
          "midi": 44,
          "time": 55.5172275000001,
          "velocity": 0.7322834645669292,
          "duration": 1.0344825000000029
        },
        {
          "name": "C#3",
          "midi": 49,
          "time": 55.8620550000001,
          "velocity": 0.7322834645669292,
          "duration": 0.6896550000000019
        },
        {
          "name": "F3",
          "midi": 53,
          "time": 56.2068825000001,
          "velocity": 0.7322834645669292,
          "duration": 0.6896550000000019
        },
        {
          "name": "C#2",
          "midi": 37,
          "time": 56.5517100000001,
          "velocity": 0.7322834645669292,
          "duration": 1.0344825000000029
        },
        {
          "name": "G#2",
          "midi": 44,
          "time": 56.8965375000001,
          "velocity": 0.7322834645669292,
          "duration": 1.0344825000000029
        },
        {
          "name": "C#3",
          "midi": 49,
          "time": 57.2413650000001,
          "velocity": 0.7322834645669292,
          "duration": 0.6896550000000019
        },
        {
          "name": "F3",
          "midi": 53,
          "time": 57.5861925000001,
          "velocity": 0.7322834645669292,
          "duration": 0.34482750000000095
        },
        {
          "name": "F2",
          "midi": 41,
          "time": 57.9310200000001,
          "velocity": 0.7322834645669292,
          "duration": 1.3793100000000038
        },
        {
          "name": "C3",
          "midi": 48,
          "time": 58.275847500000104,
          "velocity": 0.7322834645669292,
          "duration": 1.0344825000000029
        },
        {
          "name": "F3",
          "midi": 53,
          "time": 58.620675000000105,
          "velocity": 0.7322834645669292,
          "duration": 0.6896550000000019
        },
        {
          "name": "G#3",
          "midi": 56,
          "time": 58.965502500000106,
          "velocity": 0.7322834645669292,
          "duration": 0.6896550000000019
        },
        {
          "name": "F2",
          "midi": 41,
          "time": 59.31033000000011,
          "velocity": 0.7322834645669292,
          "duration": 1.0344825000000029
        },
        {
          "name": "C3",
          "midi": 48,
          "time": 59.65515750000011,
          "velocity": 0.7322834645669292,
          "duration": 1.0344825000000029
        },
        {
          "name": "F3",
          "midi": 53,
          "time": 59.99998500000011,
          "velocity": 0.7322834645669292,
          "duration": 0.6896550000000019
        },
        {
          "name": "G#3",
          "midi": 56,
          "time": 60.34481250000011,
          "velocity": 0.7322834645669292,
          "duration": 0.34482750000000095
        },
        {
          "name": "A#2",
          "midi": 46,
          "time": 60.68964000000011,
          "velocity": 0.7322834645669292,
          "duration": 1.3793100000000038
        },
        {
          "name": "F3",
          "midi": 53,
          "time": 61.03446750000011,
          "velocity": 0.7322834645669292,
          "duration": 1.0344825000000029
        },
        {
          "name": "A#3",
          "midi": 58,
          "time": 61.37929500000011,
          "velocity": 0.7322834645669292,
          "duration": 0.6896550000000019
        },
        {
          "name": "C#4",
          "midi": 61,
          "time": 61.724122500000114,
          "velocity": 0.7322834645669292,
          "duration": 0.6896550000000019
        },
        {
          "name": "A#2",
          "midi": 46,
          "time": 62.068950000000115,
          "velocity": 0.7322834645669292,
          "duration": 1.0344825000000029
        },
        {
          "name": "F3",
          "midi": 53,
          "time": 62.413777500000116,
          "velocity": 0.7322834645669292,
          "duration": 1.0344825000000029
        },
        {
          "name": "A#3",
          "midi": 58,
          "time": 62.75860500000012,
          "velocity": 0.7322834645669292,
          "duration": 0.6896550000000019
        },
        {
          "name": "C#4",
          "midi": 61,
          "time": 63.10343250000012,
          "velocity": 0.7322834645669292,
          "duration": 0.34482750000000095
        },
        {
          "name": "F#2",
          "midi": 42,
          "time": 63.44826000000012,
          "velocity": 0.7322834645669292,
          "duration": 1.3793099999999896
        },
        {
          "name": "C#3",
          "midi": 49,
          "time": 63.79308750000012,
          "velocity": 0.7322834645669292,
          "duration": 1.0344824999999886
        },
        {
          "name": "F#3",
          "midi": 54,
          "time": 64.13791500000012,
          "velocity": 0.7322834645669292,
          "duration": 0.6896549999999877
        },
        {
          "name": "A3",
          "midi": 57,
          "time": 64.48274250000011,
          "velocity": 0.7322834645669292,
          "duration": 0.6896549999999877
        },
        {
          "name": "F#2",
          "midi": 42,
          "time": 64.82757000000011,
          "velocity": 0.7322834645669292,
          "duration": 1.0344824999999815
        },
        {
          "name": "C#3",
          "midi": 49,
          "time": 65.1723975000001,
          "velocity": 0.7322834645669292,
          "duration": 1.0344824999999815
        },
        {
          "name": "F#3",
          "midi": 54,
          "time": 65.5172250000001,
          "velocity": 0.7322834645669292,
          "duration": 0.6896549999999877
        },
        {
          "name": "A3",
          "midi": 57,
          "time": 65.86205250000009,
          "velocity": 0.7322834645669292,
          "duration": 0.34482749999999385
        },
        {
          "name": "C#2",
          "midi": 37,
          "time": 66.20688000000008,
          "velocity": 0.7322834645669292,
          "duration": 1.3793099999999754
        },
        {
          "name": "G#2",
          "midi": 44,
          "time": 66.55170750000008,
          "velocity": 0.7322834645669292,
          "duration": 1.0344824999999815
        },
        {
          "name": "C#3",
          "midi": 49,
          "time": 66.89653500000007,
          "velocity": 0.7322834645669292,
          "duration": 0.6896549999999877
        },
        {
          "name": "F3",
          "midi": 53,
          "time": 67.24136250000006,
          "velocity": 0.7322834645669292,
          "duration": 0.6896549999999877
        },
        {
          "name": "C#2",
          "midi": 37,
          "time": 67.58619000000006,
          "velocity": 0.7322834645669292,
          "duration": 1.0344824999999815
        },
        {
          "name": "G#2",
          "midi": 44,
          "time": 67.93101750000005,
          "velocity": 0.7322834645669292,
          "duration": 1.0344824999999815
        },
        {
          "name": "C#3",
          "midi": 49,
          "time": 68.27584500000005,
          "velocity": 0.7322834645669292,
          "duration": 0.6896549999999877
        },
        {
          "name": "F3",
          "midi": 53,
          "time": 68.62067250000004,
          "velocity": 0.7322834645669292,
          "duration": 0.34482749999999385
        },
        {
          "name": "F2",
          "midi": 41,
          "time": 68.96550000000003,
          "velocity": 0.7322834645669292,
          "duration": 1.3793099999999754
        },
        {
          "name": "C3",
          "midi": 48,
          "time": 69.31032750000003,
          "velocity": 0.7322834645669292,
          "duration": 1.0344824999999815
        },
        {
          "name": "F3",
          "midi": 53,
          "time": 69.65515500000002,
          "velocity": 0.7322834645669292,
          "duration": 0.6896549999999877
        },
        {
          "name": "G#3",
          "midi": 56,
          "time": 69.99998250000002,
          "velocity": 0.7322834645669292,
          "duration": 0.6896549999999877
        },
        {
          "name": "F2",
          "midi": 41,
          "time": 70.34481000000001,
          "velocity": 0.7322834645669292,
          "duration": 1.0344824999999815
        },
        {
          "name": "C3",
          "midi": 48,
          "time": 70.6896375,
          "velocity": 0.7322834645669292,
          "duration": 1.0344824999999815
        },
        {
          "name": "F3",
          "midi": 53,
          "time": 71.034465,
          "velocity": 0.7322834645669292,
          "duration": 0.6896549999999877
        },
        {
          "name": "G#3",
          "midi": 56,
          "time": 71.37929249999999,
          "velocity": 0.7322834645669292,
          "duration": 0.34482749999999385
        },
        {
          "name": "A#2",
          "midi": 46,
          "time": 71.72411999999998,
          "velocity": 0.7322834645669292,
          "duration": 1.3793099999999896
        },
        {
          "name": "F3",
          "midi": 53,
          "time": 72.06894749999998,
          "velocity": 0.7322834645669292,
          "duration": 1.0344824999999958
        },
        {
          "name": "A#3",
          "midi": 58,
          "time": 72.41377499999997,
          "velocity": 0.7322834645669292,
          "duration": 0.6896550000000019
        },
        {
          "name": "A#2",
          "midi": 46,
          "time": 73.10342999999997,
          "velocity": 0.7322834645669292,
          "duration": 1.0344824999999815
        },
        {
          "name": "F3",
          "midi": 53,
          "time": 73.44825749999997,
          "velocity": 0.7322834645669292,
          "duration": 1.0344824999999815
        },
        {
          "name": "A#3",
          "midi": 58,
          "time": 73.79308499999996,
          "velocity": 0.7322834645669292,
          "duration": 0.6896549999999877
        },
        {
          "name": "F#2",
          "midi": 42,
          "time": 74.48273999999995,
          "velocity": 0.7322834645669292,
          "duration": 1.3793099999999754
        },
        {
          "name": "C#3",
          "midi": 49,
          "time": 74.82756749999994,
          "velocity": 0.6850393700787402,
          "duration": 1.0344824999999815
        },
        {
          "name": "F#3",
          "midi": 54,
          "time": 75.17239499999994,
          "velocity": 0.6377952755905512,
          "duration": 0.6896549999999877
        },
        {
          "name": "A3",
          "midi": 57,
          "time": 75.51722249999993,
          "velocity": 0.6062992125984252,
          "duration": 0.6896549999999877
        },
        {
          "name": "F#2",
          "midi": 42,
          "time": 75.86204999999993,
          "velocity": 0.5984251968503937,
          "duration": 1.0344824999999815
        },
        {
          "name": "C#3",
          "midi": 49,
          "time": 76.20687749999992,
          "velocity": 0.7086614173228346,
          "duration": 1.0344824999999815
        },
        {
          "name": "F#3",
          "midi": 54,
          "time": 76.55170499999991,
          "velocity": 0.6535433070866141,
          "duration": 0.6896549999999877
        },
        {
          "name": "A3",
          "midi": 57,
          "time": 76.8965324999999,
          "velocity": 0.6062992125984252,
          "duration": 0.34482749999999385
        },
        {
          "name": "F#2",
          "midi": 42,
          "time": 77.2413599999999,
          "velocity": 0.7322834645669292,
          "duration": 0.34482749999999385
        },
        {
          "name": "C#3",
          "midi": 49,
          "time": 77.5861874999999,
          "velocity": 0.7322834645669292,
          "duration": 0.34482749999999385
        },
        {
          "name": "F#3",
          "midi": 54,
          "time": 77.93101499999989,
          "velocity": 0.7322834645669292,
          "duration": 0.34482749999999385
        },
        {
          "name": "A#3",
          "midi": 58,
          "time": 78.27584249999988,
          "velocity": 0.7322834645669292,
          "duration": 0.34482749999999385
        },
        {
          "name": "F#3",
          "midi": 54,
          "time": 78.62066999999988,
          "velocity": 0.7322834645669292,
          "duration": 0.34482749999999385
        },
        {
          "name": "C#3",
          "midi": 49,
          "time": 78.96549749999987,
          "velocity": 0.7322834645669292,
          "duration": 0.34482749999999385
        },
        {
          "name": "F#2",
          "midi": 42,
          "time": 79.31032499999986,
          "velocity": 0.7322834645669292,
          "duration": 0.34482749999999385
        },
        {
          "name": "C#3",
          "midi": 49,
          "time": 79.65515249999986,
          "velocity": 0.7322834645669292,
          "duration": 0.34482749999999385
        },
        {
          "name": "G#2",
          "midi": 44,
          "time": 79.99997999999985,
          "velocity": 0.7322834645669292,
          "duration": 0.34482749999999385
        },
        {
          "name": "D#3",
          "midi": 51,
          "time": 80.34480749999985,
          "velocity": 0.7322834645669292,
          "duration": 0.34482749999999385
        },
        {
          "name": "G#3",
          "midi": 56,
          "time": 80.68963499999984,
          "velocity": 0.7322834645669292,
          "duration": 0.34482749999999385
        },
        {
          "name": "C4",
          "midi": 60,
          "time": 81.03446249999983,
          "velocity": 0.7322834645669292,
          "duration": 0.34482749999999385
        },
        {
          "name": "G#3",
          "midi": 56,
          "time": 81.37928999999983,
          "velocity": 0.7322834645669292,
          "duration": 0.34482749999999385
        },
        {
          "name": "D#3",
          "midi": 51,
          "time": 81.72411749999982,
          "velocity": 0.7322834645669292,
          "duration": 0.34482749999999385
        },
        {
          "name": "G#2",
          "midi": 44,
          "time": 82.06894499999981,
          "velocity": 0.7322834645669292,
          "duration": 0.34482749999999385
        },
        {
          "name": "D#3",
          "midi": 51,
          "time": 82.41377249999981,
          "velocity": 0.7322834645669292,
          "duration": 0.34482749999999385
        },
        {
          "name": "F#2",
          "midi": 42,
          "time": 82.7585999999998,
          "velocity": 0.7322834645669292,
          "duration": 0.34482749999999385
        },
        {
          "name": "C#3",
          "midi": 49,
          "time": 83.1034274999998,
          "velocity": 0.7322834645669292,
          "duration": 0.34482749999999385
        },
        {
          "name": "F#3",
          "midi": 54,
          "time": 83.44825499999979,
          "velocity": 0.7322834645669292,
          "duration": 0.34482749999999385
        },
        {
          "name": "A#3",
          "midi": 58,
          "time": 83.79308249999978,
          "velocity": 0.7322834645669292,
          "duration": 0.34482749999999385
        },
        {
          "name": "F#3",
          "midi": 54,
          "time": 84.13790999999978,
          "velocity": 0.7322834645669292,
          "duration": 0.34482749999999385
        },
        {
          "name": "C#3",
          "midi": 49,
          "time": 84.48273749999977,
          "velocity": 0.7322834645669292,
          "duration": 0.34482749999999385
        },
        {
          "name": "F#2",
          "midi": 42,
          "time": 84.82756499999977,
          "velocity": 0.7322834645669292,
          "duration": 0.34482749999999385
        },
        {
          "name": "C#3",
          "midi": 49,
          "time": 85.17239249999976,
          "velocity": 0.7322834645669292,
          "duration": 0.34482749999999385
        },
        {
          "name": "G#2",
          "midi": 44,
          "time": 85.51721999999975,
          "velocity": 0.7322834645669292,
          "duration": 0.34482749999999385
        },
        {
          "name": "D#3",
          "midi": 51,
          "time": 85.86204749999975,
          "velocity": 0.7322834645669292,
          "duration": 0.34482749999999385
        },
        {
          "name": "G#3",
          "midi": 56,
          "time": 86.20687499999974,
          "velocity": 0.7322834645669292,
          "duration": 0.34482749999999385
        },
        {
          "name": "C4",
          "midi": 60,
          "time": 86.55170249999973,
          "velocity": 0.7322834645669292,
          "duration": 0.34482749999999385
        },
        {
          "name": "G#3",
          "midi": 56,
          "time": 86.89652999999973,
          "velocity": 0.7322834645669292,
          "duration": 0.34482749999999385
        },
        {
          "name": "D#3",
          "midi": 51,
          "time": 87.24135749999972,
          "velocity": 0.7322834645669292,
          "duration": 0.34482749999999385
        },
        {
          "name": "G#2",
          "midi": 44,
          "time": 87.58618499999972,
          "velocity": 0.7322834645669292,
          "duration": 0.34482749999999385
        },
        {
          "name": "D#3",
          "midi": 51,
          "time": 87.93101249999971,
          "velocity": 0.7322834645669292,
          "duration": 0.34482749999999385
        },
        {
          "name": "F#2",
          "midi": 42,
          "time": 88.2758399999997,
          "velocity": 0.7322834645669292,
          "duration": 0.34482749999999385
        },
        {
          "name": "C#3",
          "midi": 49,
          "time": 88.6206674999997,
          "velocity": 0.7322834645669292,
          "duration": 0.34482749999999385
        },
        {
          "name": "F#3",
          "midi": 54,
          "time": 88.96549499999969,
          "velocity": 0.7322834645669292,
          "duration": 0.34482749999999385
        },
        {
          "name": "A#3",
          "midi": 58,
          "time": 89.31032249999969,
          "velocity": 0.7322834645669292,
          "duration": 0.34482749999999385
        },
        {
          "name": "F#3",
          "midi": 54,
          "time": 89.65514999999968,
          "velocity": 0.7322834645669292,
          "duration": 0.34482749999999385
        },
        {
          "name": "C#3",
          "midi": 49,
          "time": 89.99997749999967,
          "velocity": 0.7322834645669292,
          "duration": 0.34482749999999385
        },
        {
          "name": "F#2",
          "midi": 42,
          "time": 90.34480499999967,
          "velocity": 0.7322834645669292,
          "duration": 0.34482749999999385
        },
        {
          "name": "C#3",
          "midi": 49,
          "time": 90.68963249999966,
          "velocity": 0.7322834645669292,
          "duration": 0.34482749999999385
        },
        {
          "name": "C#2",
          "midi": 37,
          "time": 91.03445999999965,
          "velocity": 0.7322834645669292,
          "duration": 0.34482749999999385
        },
        {
          "name": "G#2",
          "midi": 44,
          "time": 91.37928749999965,
          "velocity": 0.7322834645669292,
          "duration": 0.34482749999999385
        },
        {
          "name": "C#3",
          "midi": 49,
          "time": 91.72411499999964,
          "velocity": 0.7322834645669292,
          "duration": 0.34482749999999385
        },
        {
          "name": "F3",
          "midi": 53,
          "time": 92.06894249999964,
          "velocity": 0.7322834645669292,
          "duration": 0.34482749999999385
        },
        {
          "name": "C#3",
          "midi": 49,
          "time": 92.41376999999963,
          "velocity": 0.7322834645669292,
          "duration": 0.34482749999999385
        },
        {
          "name": "G#2",
          "midi": 44,
          "time": 92.75859749999962,
          "velocity": 0.7322834645669292,
          "duration": 0.34482749999999385
        },
        {
          "name": "C#2",
          "midi": 37,
          "time": 93.10342499999962,
          "velocity": 0.7322834645669292,
          "duration": 0.34482749999999385
        },
        {
          "name": "G#2",
          "midi": 44,
          "time": 93.44825249999961,
          "velocity": 0.7322834645669292,
          "duration": 0.34482749999999385
        },
        {
          "name": "F#2",
          "midi": 42,
          "time": 93.7930799999996,
          "velocity": 0.7322834645669292,
          "duration": 0.34482749999999385
        },
        {
          "name": "C#3",
          "midi": 49,
          "time": 94.1379074999996,
          "velocity": 0.7322834645669292,
          "duration": 0.34482749999999385
        },
        {
          "name": "F#3",
          "midi": 54,
          "time": 94.4827349999996,
          "velocity": 0.7322834645669292,
          "duration": 0.34482749999999385
        },
        {
          "name": "A#3",
          "midi": 58,
          "time": 94.82756249999959,
          "velocity": 0.7322834645669292,
          "duration": 0.34482749999999385
        },
        {
          "name": "F#3",
          "midi": 54,
          "time": 95.17238999999958,
          "velocity": 0.7322834645669292,
          "duration": 0.34482749999999385
        },
        {
          "name": "C#3",
          "midi": 49,
          "time": 95.51721749999957,
          "velocity": 0.7322834645669292,
          "duration": 0.34482749999999385
        },
        {
          "name": "F#2",
          "midi": 42,
          "time": 95.86204499999957,
          "velocity": 0.7322834645669292,
          "duration": 0.34482749999999385
        },
        {
          "name": "C#3",
          "midi": 49,
          "time": 96.20687249999956,
          "velocity": 0.7322834645669292,
          "duration": 0.34482749999999385
        },
        {
          "name": "G#2",
          "midi": 44,
          "time": 96.55169999999956,
          "velocity": 0.7322834645669292,
          "duration": 0.34482749999999385
        },
        {
          "name": "D#3",
          "midi": 51,
          "time": 96.89652749999955,
          "velocity": 0.7322834645669292,
          "duration": 0.34482749999999385
        },
        {
          "name": "G#3",
          "midi": 56,
          "time": 97.24135499999954,
          "velocity": 0.7322834645669292,
          "duration": 0.34482749999999385
        },
        {
          "name": "C4",
          "midi": 60,
          "time": 97.58618249999954,
          "velocity": 0.7322834645669292,
          "duration": 0.34482749999999385
        },
        {
          "name": "G#2",
          "midi": 44,
          "time": 97.93100999999953,
          "velocity": 0.7874015748031497,
          "duration": 1.0344824999999958
        },
        {
          "name": "D#3",
          "midi": 51,
          "time": 97.93100999999953,
          "velocity": 0.7874015748031497,
          "duration": 1.0344824999999958
        },
        {
          "name": "G#3",
          "midi": 56,
          "time": 97.93100999999953,
          "velocity": 0.7322834645669292,
          "duration": 1.0344824999999958
        },
        {
          "name": "C#2",
          "midi": 37,
          "time": 99.31031999999952,
          "velocity": 0.7322834645669292,
          "duration": 1.3793099999999754
        },
        {
          "name": "G#2",
          "midi": 44,
          "time": 99.65514749999952,
          "velocity": 0.7322834645669292,
          "duration": 1.0344824999999815
        },
        {
          "name": "C#3",
          "midi": 49,
          "time": 99.99997499999951,
          "velocity": 0.7322834645669292,
          "duration": 0.6896549999999877
        },
        {
          "name": "F3",
          "midi": 53,
          "time": 100.3448024999995,
          "velocity": 0.7322834645669292,
          "duration": 0.6896549999999877
        },
        {
          "name": "C#2",
          "midi": 37,
          "time": 100.6896299999995,
          "velocity": 0.7322834645669292,
          "duration": 1.0344824999999815
        },
        {
          "name": "G#2",
          "midi": 44,
          "time": 101.03445749999949,
          "velocity": 0.7322834645669292,
          "duration": 1.0344824999999815
        },
        {
          "name": "C#3",
          "midi": 49,
          "time": 101.37928499999948,
          "velocity": 0.7322834645669292,
          "duration": 0.6896549999999877
        },
        {
          "name": "F3",
          "midi": 53,
          "time": 101.72411249999948,
          "velocity": 0.7322834645669292,
          "duration": 0.34482749999999385
        },
        {
          "name": "F2",
          "midi": 41,
          "time": 102.06893999999947,
          "velocity": 0.7322834645669292,
          "duration": 1.3793099999999754
        },
        {
          "name": "C3",
          "midi": 48,
          "time": 102.41376749999947,
          "velocity": 0.7322834645669292,
          "duration": 1.0344824999999815
        },
        {
          "name": "F3",
          "midi": 53,
          "time": 102.75859499999946,
          "velocity": 0.7322834645669292,
          "duration": 0.6896549999999877
        },
        {
          "name": "G#3",
          "midi": 56,
          "time": 103.10342249999945,
          "velocity": 0.7322834645669292,
          "duration": 0.6896549999999877
        },
        {
          "name": "F2",
          "midi": 41,
          "time": 103.44824999999945,
          "velocity": 0.7322834645669292,
          "duration": 1.0344824999999815
        },
        {
          "name": "C3",
          "midi": 48,
          "time": 103.79307749999944,
          "velocity": 0.7322834645669292,
          "duration": 1.0344824999999815
        },
        {
          "name": "F3",
          "midi": 53,
          "time": 104.13790499999944,
          "velocity": 0.7322834645669292,
          "duration": 0.6896549999999877
        },
        {
          "name": "G#3",
          "midi": 56,
          "time": 104.48273249999943,
          "velocity": 0.7322834645669292,
          "duration": 0.34482749999999385
        },
        {
          "name": "A#2",
          "midi": 46,
          "time": 104.82755999999942,
          "velocity": 0.7322834645669292,
          "duration": 1.3793099999999754
        },
        {
          "name": "F3",
          "midi": 53,
          "time": 105.17238749999942,
          "velocity": 0.7322834645669292,
          "duration": 1.0344824999999815
        },
        {
          "name": "A#3",
          "midi": 58,
          "time": 105.51721499999941,
          "velocity": 0.7322834645669292,
          "duration": 0.6896549999999877
        },
        {
          "name": "C#4",
          "midi": 61,
          "time": 105.8620424999994,
          "velocity": 0.7322834645669292,
          "duration": 0.6896549999999877
        },
        {
          "name": "A#2",
          "midi": 46,
          "time": 106.2068699999994,
          "velocity": 0.7322834645669292,
          "duration": 1.0344824999999815
        },
        {
          "name": "F3",
          "midi": 53,
          "time": 106.55169749999939,
          "velocity": 0.7322834645669292,
          "duration": 1.0344824999999815
        },
        {
          "name": "A#3",
          "midi": 58,
          "time": 106.89652499999939,
          "velocity": 0.7322834645669292,
          "duration": 0.6896549999999877
        },
        {
          "name": "C#4",
          "midi": 61,
          "time": 107.24135249999938,
          "velocity": 0.7322834645669292,
          "duration": 0.34482749999999385
        },
        {
          "name": "F#2",
          "midi": 42,
          "time": 107.58617999999937,
          "velocity": 0.7322834645669292,
          "duration": 1.3793099999999754
        },
        {
          "name": "C#3",
          "midi": 49,
          "time": 107.93100749999937,
          "velocity": 0.7322834645669292,
          "duration": 1.0344824999999815
        },
        {
          "name": "F#3",
          "midi": 54,
          "time": 108.27583499999936,
          "velocity": 0.7322834645669292,
          "duration": 0.6896549999999877
        },
        {
          "name": "A3",
          "midi": 57,
          "time": 108.62066249999936,
          "velocity": 0.7322834645669292,
          "duration": 0.6896549999999877
        },
        {
          "name": "F#2",
          "midi": 42,
          "time": 108.96548999999935,
          "velocity": 0.7322834645669292,
          "duration": 1.0344824999999815
        },
        {
          "name": "C#3",
          "midi": 49,
          "time": 109.31031749999934,
          "velocity": 0.7322834645669292,
          "duration": 1.0344824999999815
        },
        {
          "name": "F#3",
          "midi": 54,
          "time": 109.65514499999934,
          "velocity": 0.7322834645669292,
          "duration": 0.6896549999999877
        },
        {
          "name": "A3",
          "midi": 57,
          "time": 109.99997249999933,
          "velocity": 0.7322834645669292,
          "duration": 0.34482749999999385
        },
        {
          "name": "C#2",
          "midi": 37,
          "time": 110.34479999999932,
          "velocity": 0.7322834645669292,
          "duration": 1.3793099999999754
        },
        {
          "name": "G#2",
          "midi": 44,
          "time": 110.68962749999932,
          "velocity": 0.7322834645669292,
          "duration": 1.0344824999999815
        },
        {
          "name": "C#3",
          "midi": 49,
          "time": 111.03445499999931,
          "velocity": 0.7322834645669292,
          "duration": 0.6896549999999877
        },
        {
          "name": "F3",
          "midi": 53,
          "time": 111.3792824999993,
          "velocity": 0.7322834645669292,
          "duration": 0.6896549999999877
        },
        {
          "name": "C#2",
          "midi": 37,
          "time": 111.7241099999993,
          "velocity": 0.7322834645669292,
          "duration": 1.0344824999999815
        },
        {
          "name": "G#2",
          "midi": 44,
          "time": 112.0689374999993,
          "velocity": 0.7322834645669292,
          "duration": 1.0344824999999815
        },
        {
          "name": "C#3",
          "midi": 49,
          "time": 112.41376499999929,
          "velocity": 0.7322834645669292,
          "duration": 0.6896549999999877
        },
        {
          "name": "F3",
          "midi": 53,
          "time": 112.75859249999928,
          "velocity": 0.7322834645669292,
          "duration": 0.34482749999999385
        },
        {
          "name": "F2",
          "midi": 41,
          "time": 113.10341999999928,
          "velocity": 0.7322834645669292,
          "duration": 1.3793099999999754
        },
        {
          "name": "C3",
          "midi": 48,
          "time": 113.44824749999927,
          "velocity": 0.7322834645669292,
          "duration": 1.0344824999999815
        },
        {
          "name": "F3",
          "midi": 53,
          "time": 113.79307499999926,
          "velocity": 0.7322834645669292,
          "duration": 0.6896549999999877
        },
        {
          "name": "G#3",
          "midi": 56,
          "time": 114.13790249999926,
          "velocity": 0.7322834645669292,
          "duration": 0.6896549999999877
        },
        {
          "name": "F2",
          "midi": 41,
          "time": 114.48272999999925,
          "velocity": 0.7322834645669292,
          "duration": 1.0344824999999815
        },
        {
          "name": "C3",
          "midi": 48,
          "time": 114.82755749999924,
          "velocity": 0.7322834645669292,
          "duration": 1.0344824999999815
        },
        {
          "name": "F3",
          "midi": 53,
          "time": 115.17238499999924,
          "velocity": 0.7322834645669292,
          "duration": 0.6896549999999877
        },
        {
          "name": "G#3",
          "midi": 56,
          "time": 115.51721249999923,
          "velocity": 0.7322834645669292,
          "duration": 0.34482749999999385
        },
        {
          "name": "A#2",
          "midi": 46,
          "time": 115.86203999999923,
          "velocity": 0.7322834645669292,
          "duration": 1.3793099999999896
        },
        {
          "name": "F3",
          "midi": 53,
          "time": 116.20686749999922,
          "velocity": 0.7322834645669292,
          "duration": 1.0344824999999958
        },
        {
          "name": "A#3",
          "midi": 58,
          "time": 116.55169499999921,
          "velocity": 0.7322834645669292,
          "duration": 0.6896550000000019
        },
        {
          "name": "A#2",
          "midi": 46,
          "time": 117.24134999999922,
          "velocity": 0.7322834645669292,
          "duration": 1.0344824999999815
        },
        {
          "name": "F3",
          "midi": 53,
          "time": 117.58617749999921,
          "velocity": 0.7322834645669292,
          "duration": 1.0344824999999815
        },
        {
          "name": "A#3",
          "midi": 58,
          "time": 117.9310049999992,
          "velocity": 0.7322834645669292,
          "duration": 0.6896549999999877
        },
        {
          "name": "F#2",
          "midi": 42,
          "time": 118.62065999999919,
          "velocity": 0.7322834645669292,
          "duration": 1.3793099999999754
        },
        {
          "name": "C#3",
          "midi": 49,
          "time": 118.96548749999918,
          "velocity": 0.6850393700787402,
          "duration": 1.0344824999999815
        },
        {
          "name": "F#3",
          "midi": 54,
          "time": 119.31031499999918,
          "velocity": 0.6377952755905512,
          "duration": 0.6896549999999877
        },
        {
          "name": "A3",
          "midi": 57,
          "time": 119.65514249999917,
          "velocity": 0.6062992125984252,
          "duration": 0.6896549999999877
        },
        {
          "name": "F#2",
          "midi": 42,
          "time": 119.99996999999917,
          "velocity": 0.5984251968503937,
          "duration": 1.0344824999999815
        },
        {
          "name": "C#3",
          "midi": 49,
          "time": 120.34479749999916,
          "velocity": 0.7086614173228346,
          "duration": 1.0344824999999815
        },
        {
          "name": "F#3",
          "midi": 54,
          "time": 120.68962499999915,
          "velocity": 0.6535433070866141,
          "duration": 0.6896549999999877
        },
        {
          "name": "A3",
          "midi": 57,
          "time": 121.03445249999915,
          "velocity": 0.6062992125984252,
          "duration": 0.34482749999999385
        },
        {
          "name": "C#3",
          "midi": 49,
          "time": 121.37927999999914,
          "velocity": 0.5748031496062992,
          "duration": 1.0344824999999958
        },
        {
          "name": "C#2",
          "midi": 37,
          "time": 121.37927999999914,
          "velocity": 0.5748031496062992,
          "duration": 2.7586199999999934
        },
        {
          "name": "C#3",
          "midi": 49,
          "time": 122.41376249999914,
          "velocity": 0.6299212598425197,
          "duration": 1.0344824999999958
        },
        {
          "name": "C#3",
          "midi": 49,
          "time": 123.44824499999913,
          "velocity": 0.7322834645669292,
          "duration": 0.6896550000000019
        },
        {
          "name": "F2",
          "midi": 41,
          "time": 124.13789999999914,
          "velocity": 0.7322834645669292,
          "duration": 2.7586199999999934
        },
        {
          "name": "F3",
          "midi": 53,
          "time": 124.13789999999914,
          "velocity": 0.7322834645669292,
          "duration": 1.0344824999999958
        },
        {
          "name": "F3",
          "midi": 53,
          "time": 125.17238249999913,
          "velocity": 0.7322834645669292,
          "duration": 1.0344824999999958
        },
        {
          "name": "F3",
          "midi": 53,
          "time": 126.20686499999913,
          "velocity": 0.7322834645669292,
          "duration": 0.6896550000000019
        },
        {
          "name": "A#2",
          "midi": 46,
          "time": 126.89651999999913,
          "velocity": 0.7322834645669292,
          "duration": 1.0344824999999958
        },
        {
          "name": "A#1",
          "midi": 34,
          "time": 126.89651999999913,
          "velocity": 0.7322834645669292,
          "duration": 2.758619999999979
        },
        {
          "name": "A#2",
          "midi": 46,
          "time": 127.93100249999912,
          "velocity": 0.7322834645669292,
          "duration": 1.0344824999999958
        },
        {
          "name": "A#2",
          "midi": 46,
          "time": 128.96548499999912,
          "velocity": 0.7322834645669292,
          "duration": 0.6896549999999877
        },
        {
          "name": "F#3",
          "midi": 54,
          "time": 129.6551399999991,
          "velocity": 0.7322834645669292,
          "duration": 1.0344824999999958
        },
        {
          "name": "F#2",
          "midi": 42,
          "time": 129.6551399999991,
          "velocity": 0.7322834645669292,
          "duration": 2.758619999999979
        },
        {
          "name": "F#3",
          "midi": 54,
          "time": 130.6896224999991,
          "velocity": 0.7322834645669292,
          "duration": 1.0344824999999958
        },
        {
          "name": "F#3",
          "midi": 54,
          "time": 131.7241049999991,
          "velocity": 0.7322834645669292,
          "duration": 0.6896549999999877
        },
        {
          "name": "C#2",
          "midi": 37,
          "time": 132.4137599999991,
          "velocity": 0.7322834645669292,
          "duration": 0.34482750000000806
        },
        {
          "name": "C#3",
          "midi": 49,
          "time": 132.4137599999991,
          "velocity": 0.7322834645669292,
          "duration": 0.34482750000000806
        },
        {
          "name": "C#2",
          "midi": 37,
          "time": 132.7585874999991,
          "velocity": 0.7322834645669292,
          "duration": 0.34482750000000806
        },
        {
          "name": "C#3",
          "midi": 49,
          "time": 132.7585874999991,
          "velocity": 0.7322834645669292,
          "duration": 0.34482750000000806
        },
        {
          "name": "C#2",
          "midi": 37,
          "time": 133.1034149999991,
          "velocity": 0.7322834645669292,
          "duration": 0.34482750000000806
        },
        {
          "name": "C#3",
          "midi": 49,
          "time": 133.1034149999991,
          "velocity": 0.7322834645669292,
          "duration": 0.34482750000000806
        },
        {
          "name": "C#2",
          "midi": 37,
          "time": 133.4482424999991,
          "velocity": 0.7322834645669292,
          "duration": 0.34482750000000806
        },
        {
          "name": "C#3",
          "midi": 49,
          "time": 133.4482424999991,
          "velocity": 0.7322834645669292,
          "duration": 0.34482750000000806
        },
        {
          "name": "C#3",
          "midi": 49,
          "time": 133.79306999999912,
          "velocity": 0.7322834645669292,
          "duration": 0.34482750000000806
        },
        {
          "name": "C#2",
          "midi": 37,
          "time": 133.79306999999912,
          "velocity": 0.7322834645669292,
          "duration": 0.34482750000000806
        },
        {
          "name": "C#2",
          "midi": 37,
          "time": 134.13789749999913,
          "velocity": 0.7322834645669292,
          "duration": 0.34482750000000806
        },
        {
          "name": "C#3",
          "midi": 49,
          "time": 134.13789749999913,
          "velocity": 0.7322834645669292,
          "duration": 0.34482750000000806
        },
        {
          "name": "C#3",
          "midi": 49,
          "time": 134.48272499999914,
          "velocity": 0.7322834645669292,
          "duration": 0.34482750000000806
        },
        {
          "name": "C#2",
          "midi": 37,
          "time": 134.48272499999914,
          "velocity": 0.7322834645669292,
          "duration": 0.34482750000000806
        },
        {
          "name": "C#2",
          "midi": 37,
          "time": 134.82755249999914,
          "velocity": 0.7322834645669292,
          "duration": 0.34482750000000806
        },
        {
          "name": "C#3",
          "midi": 49,
          "time": 134.82755249999914,
          "velocity": 0.7322834645669292,
          "duration": 0.34482750000000806
        },
        {
          "name": "F3",
          "midi": 53,
          "time": 135.17237999999915,
          "velocity": 0.7322834645669292,
          "duration": 0.34482750000000806
        },
        {
          "name": "F2",
          "midi": 41,
          "time": 135.17237999999915,
          "velocity": 0.7322834645669292,
          "duration": 0.34482750000000806
        },
        {
          "name": "F3",
          "midi": 53,
          "time": 135.51720749999916,
          "velocity": 0.7322834645669292,
          "duration": 0.34482750000000806
        },
        {
          "name": "F2",
          "midi": 41,
          "time": 135.51720749999916,
          "velocity": 0.7322834645669292,
          "duration": 0.34482750000000806
        },
        {
          "name": "F3",
          "midi": 53,
          "time": 135.86203499999917,
          "velocity": 0.7322834645669292,
          "duration": 0.34482750000000806
        },
        {
          "name": "F2",
          "midi": 41,
          "time": 135.86203499999917,
          "velocity": 0.7322834645669292,
          "duration": 0.34482750000000806
        },
        {
          "name": "F2",
          "midi": 41,
          "time": 136.20686249999918,
          "velocity": 0.7322834645669292,
          "duration": 0.34482750000000806
        },
        {
          "name": "F3",
          "midi": 53,
          "time": 136.20686249999918,
          "velocity": 0.7322834645669292,
          "duration": 0.34482750000000806
        },
        {
          "name": "F2",
          "midi": 41,
          "time": 136.55168999999918,
          "velocity": 0.7322834645669292,
          "duration": 0.34482750000000806
        },
        {
          "name": "F3",
          "midi": 53,
          "time": 136.55168999999918,
          "velocity": 0.7322834645669292,
          "duration": 0.34482750000000806
        },
        {
          "name": "F3",
          "midi": 53,
          "time": 136.8965174999992,
          "velocity": 0.7322834645669292,
          "duration": 0.34482750000000806
        },
        {
          "name": "F2",
          "midi": 41,
          "time": 136.8965174999992,
          "velocity": 0.7322834645669292,
          "duration": 0.34482750000000806
        },
        {
          "name": "F2",
          "midi": 41,
          "time": 137.2413449999992,
          "velocity": 0.7322834645669292,
          "duration": 0.34482750000000806
        },
        {
          "name": "F3",
          "midi": 53,
          "time": 137.2413449999992,
          "velocity": 0.7322834645669292,
          "duration": 0.34482750000000806
        },
        {
          "name": "F3",
          "midi": 53,
          "time": 137.5861724999992,
          "velocity": 0.7322834645669292,
          "duration": 0.34482750000000806
        },
        {
          "name": "F2",
          "midi": 41,
          "time": 137.5861724999992,
          "velocity": 0.7322834645669292,
          "duration": 0.34482750000000806
        },
        {
          "name": "A#2",
          "midi": 46,
          "time": 137.93099999999922,
          "velocity": 0.7322834645669292,
          "duration": 0.34482750000000806
        },
        {
          "name": "A#1",
          "midi": 34,
          "time": 137.93099999999922,
          "velocity": 0.7322834645669292,
          "duration": 0.34482750000000806
        },
        {
          "name": "A#1",
          "midi": 34,
          "time": 138.27582749999922,
          "velocity": 0.7322834645669292,
          "duration": 0.34482750000000806
        },
        {
          "name": "A#2",
          "midi": 46,
          "time": 138.27582749999922,
          "velocity": 0.7322834645669292,
          "duration": 0.34482750000000806
        },
        {
          "name": "A#1",
          "midi": 34,
          "time": 138.62065499999923,
          "velocity": 0.7322834645669292,
          "duration": 0.34482750000000806
        },
        {
          "name": "A#2",
          "midi": 46,
          "time": 138.62065499999923,
          "velocity": 0.7322834645669292,
          "duration": 0.34482750000000806
        },
        {
          "name": "A#1",
          "midi": 34,
          "time": 138.96548249999924,
          "velocity": 0.7322834645669292,
          "duration": 0.34482750000000806
        },
        {
          "name": "A#2",
          "midi": 46,
          "time": 138.96548249999924,
          "velocity": 0.7322834645669292,
          "duration": 0.34482750000000806
        },
        {
          "name": "A#1",
          "midi": 34,
          "time": 139.31030999999925,
          "velocity": 0.7322834645669292,
          "duration": 0.34482750000000806
        },
        {
          "name": "A#2",
          "midi": 46,
          "time": 139.31030999999925,
          "velocity": 0.7322834645669292,
          "duration": 0.34482750000000806
        },
        {
          "name": "A#1",
          "midi": 34,
          "time": 139.65513749999926,
          "velocity": 0.7322834645669292,
          "duration": 0.34482750000000806
        },
        {
          "name": "A#2",
          "midi": 46,
          "time": 139.65513749999926,
          "velocity": 0.7322834645669292,
          "duration": 0.34482750000000806
        },
        {
          "name": "A#1",
          "midi": 34,
          "time": 139.99996499999926,
          "velocity": 0.7322834645669292,
          "duration": 0.34482750000000806
        },
        {
          "name": "A#2",
          "midi": 46,
          "time": 139.99996499999926,
          "velocity": 0.7322834645669292,
          "duration": 0.34482750000000806
        },
        {
          "name": "A#1",
          "midi": 34,
          "time": 140.34479249999927,
          "velocity": 0.7322834645669292,
          "duration": 0.34482750000000806
        },
        {
          "name": "A#2",
          "midi": 46,
          "time": 140.34479249999927,
          "velocity": 0.7322834645669292,
          "duration": 0.34482750000000806
        },
        {
          "name": "F#2",
          "midi": 42,
          "time": 140.68961999999928,
          "velocity": 0.7322834645669292,
          "duration": 0.34482750000000806
        },
        {
          "name": "F#3",
          "midi": 54,
          "time": 140.68961999999928,
          "velocity": 0.7322834645669292,
          "duration": 0.34482750000000806
        },
        {
          "name": "F#2",
          "midi": 42,
          "time": 141.0344474999993,
          "velocity": 0.7322834645669292,
          "duration": 0.34482750000000806
        },
        {
          "name": "F#3",
          "midi": 54,
          "time": 141.0344474999993,
          "velocity": 0.7322834645669292,
          "duration": 0.34482750000000806
        },
        {
          "name": "F#2",
          "midi": 42,
          "time": 141.3792749999993,
          "velocity": 0.7322834645669292,
          "duration": 0.34482750000000806
        },
        {
          "name": "F#3",
          "midi": 54,
          "time": 141.3792749999993,
          "velocity": 0.7322834645669292,
          "duration": 0.34482750000000806
        },
        {
          "name": "F#2",
          "midi": 42,
          "time": 141.7241024999993,
          "velocity": 0.7322834645669292,
          "duration": 0.34482750000000806
        },
        {
          "name": "F#3",
          "midi": 54,
          "time": 141.7241024999993,
          "velocity": 0.7322834645669292,
          "duration": 0.34482750000000806
        },
        {
          "name": "F#2",
          "midi": 42,
          "time": 142.0689299999993,
          "velocity": 0.7322834645669292,
          "duration": 0.34482750000000806
        },
        {
          "name": "F#3",
          "midi": 54,
          "time": 142.0689299999993,
          "velocity": 0.7322834645669292,
          "duration": 0.34482750000000806
        },
        {
          "name": "F#2",
          "midi": 42,
          "time": 142.41375749999932,
          "velocity": 0.7322834645669292,
          "duration": 0.34482750000000806
        },
        {
          "name": "F#3",
          "midi": 54,
          "time": 142.41375749999932,
          "velocity": 0.7322834645669292,
          "duration": 0.34482750000000806
        },
        {
          "name": "F#2",
          "midi": 42,
          "time": 142.75858499999933,
          "velocity": 0.7322834645669292,
          "duration": 0.34482750000000806
        },
        {
          "name": "F#3",
          "midi": 54,
          "time": 142.75858499999933,
          "velocity": 0.7322834645669292,
          "duration": 0.34482750000000806
        },
        {
          "name": "C#2",
          "midi": 37,
          "time": 143.44823999999934,
          "velocity": 0.7322834645669292,
          "duration": 1.3793100000000322
        },
        {
          "name": "G#2",
          "midi": 44,
          "time": 143.96548124999936,
          "velocity": 0.7322834645669292,
          "duration": 0.6896550000000161
        },
        {
          "name": "C#3",
          "midi": 49,
          "time": 144.48272249999937,
          "velocity": 0.7322834645669292,
          "duration": 0.6896550000000161
        },
        {
          "name": "C#2",
          "midi": 37,
          "time": 144.82754999999938,
          "velocity": 0.7322834645669292,
          "duration": 1.3793100000000322
        },
        {
          "name": "G#2",
          "midi": 44,
          "time": 145.3447912499994,
          "velocity": 0.7322834645669292,
          "duration": 0.6896550000000161
        },
        {
          "name": "C#3",
          "midi": 49,
          "time": 145.8620324999994,
          "velocity": 0.7322834645669292,
          "duration": 0.34482750000000806
        },
        {
          "name": "C#2",
          "midi": 37,
          "time": 146.2068599999994,
          "velocity": 0.7322834645669292,
          "duration": 1.3793100000000322
        },
        {
          "name": "G#2",
          "midi": 44,
          "time": 146.72410124999942,
          "velocity": 0.7322834645669292,
          "duration": 0.6896550000000161
        },
        {
          "name": "C#3",
          "midi": 49,
          "time": 147.24134249999943,
          "velocity": 0.7322834645669292,
          "duration": 0.34482750000000806
        },
        {
          "name": "F#2",
          "midi": 42,
          "time": 147.58616999999944,
          "velocity": 0.7322834645669292,
          "duration": 1.3793100000000322
        },
        {
          "name": "C#3",
          "midi": 49,
          "time": 148.10341124999945,
          "velocity": 0.7322834645669292,
          "duration": 0.34482750000000806
        },
        {
          "name": "F#3",
          "midi": 54,
          "time": 148.62065249999947,
          "velocity": 0.7322834645669292,
          "duration": 0.34482750000000806
        },
        {
          "name": "C#2",
          "midi": 37,
          "time": 148.96547999999947,
          "velocity": 0.7322834645669292,
          "duration": 1.3793100000000322
        },
        {
          "name": "G#2",
          "midi": 44,
          "time": 149.48272124999949,
          "velocity": 0.7322834645669292,
          "duration": 0.6896550000000161
        },
        {
          "name": "C#3",
          "midi": 49,
          "time": 149.9999624999995,
          "velocity": 0.7322834645669292,
          "duration": 0.6896550000000161
        },
        {
          "name": "C#2",
          "midi": 37,
          "time": 150.3447899999995,
          "velocity": 0.7322834645669292,
          "duration": 1.3793100000000322
        },
        {
          "name": "G#2",
          "midi": 44,
          "time": 150.86203124999952,
          "velocity": 0.7322834645669292,
          "duration": 0.6896550000000161
        },
        {
          "name": "C#3",
          "midi": 49,
          "time": 151.37927249999953,
          "velocity": 0.7322834645669292,
          "duration": 0.34482750000000806
        },
        {
          "name": "C#2",
          "midi": 37,
          "time": 151.72409999999954,
          "velocity": 0.7322834645669292,
          "duration": 1.3793100000000322
        },
        {
          "name": "G#2",
          "midi": 44,
          "time": 152.24134124999955,
          "velocity": 0.7322834645669292,
          "duration": 0.6896550000000161
        },
        {
          "name": "C#3",
          "midi": 49,
          "time": 152.75858249999956,
          "velocity": 0.7322834645669292,
          "duration": 0.34482750000000806
        },
        {
          "name": "F#2",
          "midi": 42,
          "time": 153.10340999999957,
          "velocity": 0.7322834645669292,
          "duration": 1.3793100000000038
        },
        {
          "name": "C#2",
          "midi": 37,
          "time": 154.48271999999957,
          "velocity": 0.7322834645669292,
          "duration": 1.3793100000000322
        },
        {
          "name": "G#2",
          "midi": 44,
          "time": 154.82754749999958,
          "velocity": 0.7322834645669292,
          "duration": 1.0344825000000242
        },
        {
          "name": "C#3",
          "midi": 49,
          "time": 155.1723749999996,
          "velocity": 0.7322834645669292,
          "duration": 0.6896550000000161
        },
        {
          "name": "F3",
          "midi": 53,
          "time": 155.5172024999996,
          "velocity": 0.7322834645669292,
          "duration": 0.6896550000000161
        },
        {
          "name": "C#2",
          "midi": 37,
          "time": 155.8620299999996,
          "velocity": 0.7322834645669292,
          "duration": 1.0344825000000242
        },
        {
          "name": "G#2",
          "midi": 44,
          "time": 156.20685749999961,
          "velocity": 0.7322834645669292,
          "duration": 1.0344825000000242
        },
        {
          "name": "C#3",
          "midi": 49,
          "time": 156.55168499999962,
          "velocity": 0.7322834645669292,
          "duration": 0.6896550000000161
        },
        {
          "name": "F3",
          "midi": 53,
          "time": 156.89651249999963,
          "velocity": 0.7322834645669292,
          "duration": 0.34482750000000806
        },
        {
          "name": "F2",
          "midi": 41,
          "time": 157.24133999999964,
          "velocity": 0.7322834645669292,
          "duration": 1.3793100000000322
        },
        {
          "name": "C3",
          "midi": 48,
          "time": 157.58616749999965,
          "velocity": 0.7322834645669292,
          "duration": 1.0344825000000242
        },
        {
          "name": "F3",
          "midi": 53,
          "time": 157.93099499999965,
          "velocity": 0.7322834645669292,
          "duration": 0.6896550000000161
        },
        {
          "name": "G#3",
          "midi": 56,
          "time": 158.27582249999966,
          "velocity": 0.7322834645669292,
          "duration": 0.6896550000000161
        },
        {
          "name": "F2",
          "midi": 41,
          "time": 158.62064999999967,
          "velocity": 0.7322834645669292,
          "duration": 1.0344825000000242
        },
        {
          "name": "C3",
          "midi": 48,
          "time": 158.96547749999968,
          "velocity": 0.7322834645669292,
          "duration": 1.0344825000000242
        },
        {
          "name": "F3",
          "midi": 53,
          "time": 159.3103049999997,
          "velocity": 0.7322834645669292,
          "duration": 0.6896550000000161
        },
        {
          "name": "G#3",
          "midi": 56,
          "time": 159.6551324999997,
          "velocity": 0.7322834645669292,
          "duration": 0.34482750000000806
        },
        {
          "name": "A#2",
          "midi": 46,
          "time": 159.9999599999997,
          "velocity": 0.7322834645669292,
          "duration": 1.3793100000000322
        },
        {
          "name": "F3",
          "midi": 53,
          "time": 160.3447874999997,
          "velocity": 0.7322834645669292,
          "duration": 1.0344825000000242
        },
        {
          "name": "A#3",
          "midi": 58,
          "time": 160.68961499999972,
          "velocity": 0.7322834645669292,
          "duration": 0.6896550000000161
        },
        {
          "name": "C#4",
          "midi": 61,
          "time": 161.03444249999973,
          "velocity": 0.7322834645669292,
          "duration": 0.6896550000000161
        },
        {
          "name": "A#2",
          "midi": 46,
          "time": 161.37926999999974,
          "velocity": 0.7322834645669292,
          "duration": 1.0344825000000242
        },
        {
          "name": "F3",
          "midi": 53,
          "time": 161.72409749999974,
          "velocity": 0.7322834645669292,
          "duration": 1.0344825000000242
        },
        {
          "name": "A#3",
          "midi": 58,
          "time": 162.06892499999975,
          "velocity": 0.7322834645669292,
          "duration": 0.6896550000000161
        },
        {
          "name": "C#4",
          "midi": 61,
          "time": 162.41375249999976,
          "velocity": 0.7322834645669292,
          "duration": 0.34482750000000806
        },
        {
          "name": "F#2",
          "midi": 42,
          "time": 162.75857999999977,
          "velocity": 0.7322834645669292,
          "duration": 1.3793100000000322
        },
        {
          "name": "C#3",
          "midi": 49,
          "time": 163.10340749999978,
          "velocity": 0.7322834645669292,
          "duration": 1.0344825000000242
        },
        {
          "name": "F#3",
          "midi": 54,
          "time": 163.44823499999978,
          "velocity": 0.7322834645669292,
          "duration": 0.6896550000000161
        },
        {
          "name": "A3",
          "midi": 57,
          "time": 163.7930624999998,
          "velocity": 0.7322834645669292,
          "duration": 0.6896550000000161
        },
        {
          "name": "F#2",
          "midi": 42,
          "time": 164.1378899999998,
          "velocity": 0.7322834645669292,
          "duration": 1.0344825000000242
        },
        {
          "name": "C#3",
          "midi": 49,
          "time": 164.4827174999998,
          "velocity": 0.7322834645669292,
          "duration": 1.0344825000000242
        },
        {
          "name": "F#3",
          "midi": 54,
          "time": 164.82754499999982,
          "velocity": 0.7322834645669292,
          "duration": 0.6896550000000161
        },
        {
          "name": "A3",
          "midi": 57,
          "time": 165.17237249999982,
          "velocity": 0.7322834645669292,
          "duration": 0.34482750000000806
        },
        {
          "name": "C#2",
          "midi": 37,
          "time": 165.51719999999983,
          "velocity": 0.7322834645669292,
          "duration": 1.3793100000000322
        },
        {
          "name": "G#2",
          "midi": 44,
          "time": 165.86202749999984,
          "velocity": 0.7322834645669292,
          "duration": 1.0344825000000242
        },
        {
          "name": "C#3",
          "midi": 49,
          "time": 166.20685499999985,
          "velocity": 0.7322834645669292,
          "duration": 0.6896550000000161
        },
        {
          "name": "F3",
          "midi": 53,
          "time": 166.55168249999986,
          "velocity": 0.7322834645669292,
          "duration": 0.6896550000000161
        },
        {
          "name": "C#2",
          "midi": 37,
          "time": 166.89650999999986,
          "velocity": 0.7322834645669292,
          "duration": 1.0344825000000242
        },
        {
          "name": "G#2",
          "midi": 44,
          "time": 167.24133749999987,
          "velocity": 0.7322834645669292,
          "duration": 1.0344825000000242
        },
        {
          "name": "C#3",
          "midi": 49,
          "time": 167.58616499999988,
          "velocity": 0.7322834645669292,
          "duration": 0.6896550000000161
        },
        {
          "name": "F3",
          "midi": 53,
          "time": 167.9309924999999,
          "velocity": 0.7322834645669292,
          "duration": 0.34482750000000806
        },
        {
          "name": "F2",
          "midi": 41,
          "time": 168.2758199999999,
          "velocity": 0.7322834645669292,
          "duration": 1.3793100000000322
        },
        {
          "name": "C3",
          "midi": 48,
          "time": 168.6206474999999,
          "velocity": 0.7322834645669292,
          "duration": 1.0344825000000242
        },
        {
          "name": "F3",
          "midi": 53,
          "time": 168.9654749999999,
          "velocity": 0.7322834645669292,
          "duration": 0.6896550000000161
        },
        {
          "name": "G#3",
          "midi": 56,
          "time": 169.31030249999992,
          "velocity": 0.7322834645669292,
          "duration": 0.6896550000000161
        },
        {
          "name": "F2",
          "midi": 41,
          "time": 169.65512999999993,
          "velocity": 0.7322834645669292,
          "duration": 1.0344825000000242
        },
        {
          "name": "C3",
          "midi": 48,
          "time": 169.99995749999994,
          "velocity": 0.7322834645669292,
          "duration": 1.0344825000000242
        },
        {
          "name": "F3",
          "midi": 53,
          "time": 170.34478499999994,
          "velocity": 0.7322834645669292,
          "duration": 0.6896550000000161
        },
        {
          "name": "G#3",
          "midi": 56,
          "time": 170.68961249999995,
          "velocity": 0.7322834645669292,
          "duration": 0.34482750000000806
        },
        {
          "name": "A#2",
          "midi": 46,
          "time": 171.03443999999996,
          "velocity": 0.7322834645669292,
          "duration": 1.3793100000000038
        },
        {
          "name": "F3",
          "midi": 53,
          "time": 171.37926749999997,
          "velocity": 0.7322834645669292,
          "duration": 1.0344824999999958
        },
        {
          "name": "A#3",
          "midi": 58,
          "time": 171.72409499999998,
          "velocity": 0.7322834645669292,
          "duration": 0.6896549999999877
        },
        {
          "name": "A#2",
          "midi": 46,
          "time": 172.41374999999996,
          "velocity": 0.7322834645669292,
          "duration": 1.0344825000000242
        },
        {
          "name": "F3",
          "midi": 53,
          "time": 172.75857749999997,
          "velocity": 0.7322834645669292,
          "duration": 1.0344825000000242
        },
        {
          "name": "A#3",
          "midi": 58,
          "time": 173.10340499999998,
          "velocity": 0.7322834645669292,
          "duration": 0.6896550000000161
        },
        {
          "name": "F#2",
          "midi": 42,
          "time": 173.79306,
          "velocity": 0.7322834645669292,
          "duration": 1.3793100000000322
        },
        {
          "name": "C#3",
          "midi": 49,
          "time": 174.1378875,
          "velocity": 0.6850393700787402,
          "duration": 1.0344825000000242
        },
        {
          "name": "F#3",
          "midi": 54,
          "time": 174.482715,
          "velocity": 0.6377952755905512,
          "duration": 0.6896550000000161
        },
        {
          "name": "A3",
          "midi": 57,
          "time": 174.82754250000002,
          "velocity": 0.6062992125984252,
          "duration": 0.6896550000000161
        },
        {
          "name": "F#2",
          "midi": 42,
          "time": 175.17237000000003,
          "velocity": 0.5984251968503937,
          "duration": 1.0344825000000242
        },
        {
          "name": "C#3",
          "midi": 49,
          "time": 175.51719750000004,
          "velocity": 0.7086614173228346,
          "duration": 1.0344825000000242
        },
        {
          "name": "F#3",
          "midi": 54,
          "time": 175.86202500000005,
          "velocity": 0.6535433070866141,
          "duration": 0.6896550000000161
        },
        {
          "name": "A3",
          "midi": 57,
          "time": 176.20685250000005,
          "velocity": 0.6062992125984252,
          "duration": 0.34482750000000806
        },
        {
          "name": "C#2",
          "midi": 37,
          "time": 176.55168000000006,
          "velocity": 0.7322834645669292,
          "duration": 1.3793100000000322
        },
        {
          "name": "G#2",
          "midi": 44,
          "time": 176.89650750000007,
          "velocity": 0.7322834645669292,
          "duration": 1.0344825000000242
        },
        {
          "name": "C#3",
          "midi": 49,
          "time": 177.24133500000008,
          "velocity": 0.7322834645669292,
          "duration": 0.6896550000000161
        },
        {
          "name": "F3",
          "midi": 53,
          "time": 177.58616250000009,
          "velocity": 0.7322834645669292,
          "duration": 0.6896550000000161
        },
        {
          "name": "C#2",
          "midi": 37,
          "time": 177.9309900000001,
          "velocity": 0.7322834645669292,
          "duration": 1.0344825000000242
        },
        {
          "name": "G#2",
          "midi": 44,
          "time": 178.2758175000001,
          "velocity": 0.7322834645669292,
          "duration": 1.0344825000000242
        },
        {
          "name": "C#3",
          "midi": 49,
          "time": 178.6206450000001,
          "velocity": 0.7322834645669292,
          "duration": 0.6896550000000161
        },
        {
          "name": "F3",
          "midi": 53,
          "time": 178.96547250000012,
          "velocity": 0.7322834645669292,
          "duration": 0.34482750000000806
        },
        {
          "name": "F2",
          "midi": 41,
          "time": 179.31030000000013,
          "velocity": 0.7322834645669292,
          "duration": 1.3793100000000322
        },
        {
          "name": "C3",
          "midi": 48,
          "time": 179.65512750000013,
          "velocity": 0.7322834645669292,
          "duration": 1.0344825000000242
        },
        {
          "name": "F3",
          "midi": 53,
          "time": 179.99995500000014,
          "velocity": 0.7322834645669292,
          "duration": 0.6896550000000161
        },
        {
          "name": "G#3",
          "midi": 56,
          "time": 180.34478250000015,
          "velocity": 0.7322834645669292,
          "duration": 0.6896550000000161
        },
        {
          "name": "F2",
          "midi": 41,
          "time": 180.68961000000016,
          "velocity": 0.7322834645669292,
          "duration": 1.0344825000000242
        },
        {
          "name": "C3",
          "midi": 48,
          "time": 181.03443750000017,
          "velocity": 0.7322834645669292,
          "duration": 1.0344825000000242
        },
        {
          "name": "F3",
          "midi": 53,
          "time": 181.37926500000017,
          "velocity": 0.7322834645669292,
          "duration": 0.6896550000000161
        },
        {
          "name": "G#3",
          "midi": 56,
          "time": 181.72409250000018,
          "velocity": 0.7322834645669292,
          "duration": 0.34482750000000806
        },
        {
          "name": "A#2",
          "midi": 46,
          "time": 182.0689200000002,
          "velocity": 0.7322834645669292,
          "duration": 1.3793100000000322
        },
        {
          "name": "F3",
          "midi": 53,
          "time": 182.4137475000002,
          "velocity": 0.7322834645669292,
          "duration": 1.0344825000000242
        },
        {
          "name": "A#3",
          "midi": 58,
          "time": 182.7585750000002,
          "velocity": 0.7322834645669292,
          "duration": 0.6896550000000161
        },
        {
          "name": "C#4",
          "midi": 61,
          "time": 183.10340250000021,
          "velocity": 0.7322834645669292,
          "duration": 0.6896550000000161
        },
        {
          "name": "A#2",
          "midi": 46,
          "time": 183.44823000000022,
          "velocity": 0.7322834645669292,
          "duration": 1.0344825000000242
        },
        {
          "name": "F3",
          "midi": 53,
          "time": 183.79305750000023,
          "velocity": 0.7322834645669292,
          "duration": 1.0344825000000242
        },
        {
          "name": "A#3",
          "midi": 58,
          "time": 184.13788500000024,
          "velocity": 0.7322834645669292,
          "duration": 0.6896550000000161
        },
        {
          "name": "C#4",
          "midi": 61,
          "time": 184.48271250000025,
          "velocity": 0.7322834645669292,
          "duration": 0.34482750000000806
        },
        {
          "name": "F#2",
          "midi": 42,
          "time": 184.82754000000025,
          "velocity": 0.7322834645669292,
          "duration": 1.3793100000000322
        },
        {
          "name": "C#3",
          "midi": 49,
          "time": 185.17236750000026,
          "velocity": 0.7322834645669292,
          "duration": 1.0344825000000242
        },
        {
          "name": "F#3",
          "midi": 54,
          "time": 185.51719500000027,
          "velocity": 0.7322834645669292,
          "duration": 0.6896550000000161
        },
        {
          "name": "A3",
          "midi": 57,
          "time": 185.86202250000028,
          "velocity": 0.7322834645669292,
          "duration": 0.6896550000000161
        },
        {
          "name": "F#2",
          "midi": 42,
          "time": 186.2068500000003,
          "velocity": 0.7322834645669292,
          "duration": 1.0344825000000242
        },
        {
          "name": "C#3",
          "midi": 49,
          "time": 186.5516775000003,
          "velocity": 0.7322834645669292,
          "duration": 1.0344825000000242
        },
        {
          "name": "F#3",
          "midi": 54,
          "time": 186.8965050000003,
          "velocity": 0.7322834645669292,
          "duration": 0.6896550000000161
        },
        {
          "name": "A3",
          "midi": 57,
          "time": 187.2413325000003,
          "velocity": 0.7322834645669292,
          "duration": 0.34482750000000806
        },
        {
          "name": "C#2",
          "midi": 37,
          "time": 187.58616000000032,
          "velocity": 0.7322834645669292,
          "duration": 1.3793100000000322
        },
        {
          "name": "G#2",
          "midi": 44,
          "time": 187.93098750000033,
          "velocity": 0.7322834645669292,
          "duration": 1.0344825000000242
        },
        {
          "name": "C#3",
          "midi": 49,
          "time": 188.27581500000034,
          "velocity": 0.7322834645669292,
          "duration": 0.6896550000000161
        },
        {
          "name": "F3",
          "midi": 53,
          "time": 188.62064250000034,
          "velocity": 0.7322834645669292,
          "duration": 0.6896550000000161
        },
        {
          "name": "C#2",
          "midi": 37,
          "time": 188.96547000000035,
          "velocity": 0.7322834645669292,
          "duration": 1.0344825000000242
        },
        {
          "name": "G#2",
          "midi": 44,
          "time": 189.31029750000036,
          "velocity": 0.7322834645669292,
          "duration": 1.0344825000000242
        },
        {
          "name": "C#3",
          "midi": 49,
          "time": 189.65512500000037,
          "velocity": 0.7322834645669292,
          "duration": 0.6896550000000161
        },
        {
          "name": "F3",
          "midi": 53,
          "time": 189.99995250000038,
          "velocity": 0.7322834645669292,
          "duration": 0.34482750000000806
        },
        {
          "name": "F2",
          "midi": 41,
          "time": 190.34478000000038,
          "velocity": 0.7322834645669292,
          "duration": 1.3793100000000322
        },
        {
          "name": "C3",
          "midi": 48,
          "time": 190.6896075000004,
          "velocity": 0.7322834645669292,
          "duration": 1.0344825000000242
        },
        {
          "name": "F3",
          "midi": 53,
          "time": 191.0344350000004,
          "velocity": 0.7322834645669292,
          "duration": 0.6896550000000161
        },
        {
          "name": "G#3",
          "midi": 56,
          "time": 191.3792625000004,
          "velocity": 0.7322834645669292,
          "duration": 0.6896550000000161
        },
        {
          "name": "F2",
          "midi": 41,
          "time": 191.72409000000042,
          "velocity": 0.7322834645669292,
          "duration": 1.0344825000000242
        },
        {
          "name": "C3",
          "midi": 48,
          "time": 192.06891750000042,
          "velocity": 0.7322834645669292,
          "duration": 1.0344825000000242
        },
        {
          "name": "F3",
          "midi": 53,
          "time": 192.41374500000043,
          "velocity": 0.7322834645669292,
          "duration": 0.6896550000000161
        },
        {
          "name": "G#3",
          "midi": 56,
          "time": 192.75857250000044,
          "velocity": 0.7322834645669292,
          "duration": 0.34482750000000806
        },
        {
          "name": "A#2",
          "midi": 46,
          "time": 193.10340000000045,
          "velocity": 0.7322834645669292,
          "duration": 1.3793100000000038
        },
        {
          "name": "F3",
          "midi": 53,
          "time": 193.44822750000046,
          "velocity": 0.7322834645669292,
          "duration": 1.0344824999999958
        },
        {
          "name": "A#3",
          "midi": 58,
          "time": 193.79305500000046,
          "velocity": 0.7322834645669292,
          "duration": 0.6896549999999877
        },
        {
          "name": "A#2",
          "midi": 46,
          "time": 194.48271000000045,
          "velocity": 0.7322834645669292,
          "duration": 1.0344825000000242
        },
        {
          "name": "F3",
          "midi": 53,
          "time": 194.82753750000046,
          "velocity": 0.7322834645669292,
          "duration": 1.0344825000000242
        },
        {
          "name": "A#3",
          "midi": 58,
          "time": 195.17236500000047,
          "velocity": 0.7322834645669292,
          "duration": 0.6896550000000161
        },
        {
          "name": "F#2",
          "midi": 42,
          "time": 195.86202000000048,
          "velocity": 0.7322834645669292,
          "duration": 1.3793100000000322
        },
        {
          "name": "C#3",
          "midi": 49,
          "time": 196.2068475000005,
          "velocity": 0.6850393700787402,
          "duration": 1.0344825000000242
        },
        {
          "name": "F#3",
          "midi": 54,
          "time": 196.5516750000005,
          "velocity": 0.6377952755905512,
          "duration": 0.6896550000000161
        },
        {
          "name": "A3",
          "midi": 57,
          "time": 196.8965025000005,
          "velocity": 0.6062992125984252,
          "duration": 0.6896550000000161
        },
        {
          "name": "F#2",
          "midi": 42,
          "time": 197.24133000000052,
          "velocity": 0.5984251968503937,
          "duration": 1.0344825000000242
        },
        {
          "name": "C#3",
          "midi": 49,
          "time": 197.58615750000052,
          "velocity": 0.7086614173228346,
          "duration": 1.0344825000000242
        },
        {
          "name": "F#3",
          "midi": 54,
          "time": 197.93098500000053,
          "velocity": 0.6535433070866141,
          "duration": 0.6896550000000161
        },
        {
          "name": "A3",
          "midi": 57,
          "time": 198.27581250000054,
          "velocity": 0.6062992125984252,
          "duration": 0.34482750000000806
        },
        {
          "name": "C#5",
          "midi": 73,
          "time": 198.62064000000055,
          "velocity": 0.6299212598425197,
          "duration": 4.123562187499999
        },
        {
          "name": "G#4",
          "midi": 68,
          "time": 198.62064000000055,
          "velocity": 0.6299212598425197,
          "duration": 4.123562187499999
        },
        {
          "name": "C#4",
          "midi": 61,
          "time": 198.62064000000055,
          "velocity": 0.6299212598425197,
          "duration": 4.123562187499999
        }
      ],
      "controlChanges": {
        "6": [
          {
            "number": 6,
            "time": 0,
            "value": 0.09448818897637795
          },
          {
            "number": 6,
            "time": 0,
            "value": 0.09448818897637795
          },
          {
            "number": 6,
            "time": 0,
            "value": 0.09448818897637795
          },
          {
            "number": 6,
            "time": 204.13788000000054,
            "value": 0.09448818897637795
          },
          {
            "number": 6,
            "time": 204.14506390625053,
            "value": 0.09448818897637795
          },
          {
            "number": 6,
            "time": 204.14506390625053,
            "value": 0.09448818897637795
          }
        ],
        "7": [
          {
            "number": 7,
            "time": 0,
            "value": 0.47244094488188976
          },
          {
            "number": 7,
            "time": 0,
            "value": 0.47244094488188976
          },
          {
            "number": 7,
            "time": 0,
            "value": 0.47244094488188976
          },
          {
            "number": 7,
            "time": 0,
            "value": 0.47244094488188976
          },
          {
            "number": 7,
            "time": 204.13788000000054,
            "value": 0.47244094488188976
          },
          {
            "number": 7,
            "time": 204.14506390625053,
            "value": 0.47244094488188976
          },
          {
            "number": 7,
            "time": 204.14506390625053,
            "value": 0.47244094488188976
          }
        ],
        "10": [
          {
            "number": 10,
            "time": 0,
            "value": 0.5039370078740157
          },
          {
            "number": 10,
            "time": 0,
            "value": 0.5039370078740157
          },
          {
            "number": 10,
            "time": 0,
            "value": 0.5039370078740157
          },
          {
            "number": 10,
            "time": 0,
            "value": 0.5039370078740157
          },
          {
            "number": 10,
            "time": 204.13788000000054,
            "value": 0.5039370078740157
          },
          {
            "number": 10,
            "time": 204.14506390625053,
            "value": 0.5039370078740157
          },
          {
            "number": 10,
            "time": 204.14506390625053,
            "value": 0.5039370078740157
          }
        ],
        "64": [
          {
            "number": 64,
            "time": 0,
            "value": 0.047244094488188976
          },
          {
            "number": 64,
            "time": 0,
            "value": 0.047244094488188976
          },
          {
            "number": 64,
            "time": 0,
            "value": 0.047244094488188976
          },
          {
            "number": 64,
            "time": 204.13788000000054,
            "value": 0.047244094488188976
          },
          {
            "number": 64,
            "time": 204.14506390625053,
            "value": 0.047244094488188976
          },
          {
            "number": 64,
            "time": 204.14506390625053,
            "value": 0.047244094488188976
          }
        ],
        "100": [
          {
            "number": 100,
            "time": 0,
            "value": 0
          },
          {
            "number": 100,
            "time": 0,
            "value": 0
          },
          {
            "number": 100,
            "time": 0,
            "value": 0
          },
          {
            "number": 100,
            "time": 204.13788000000054,
            "value": 0
          },
          {
            "number": 100,
            "time": 204.14506390625053,
            "value": 0
          },
          {
            "number": 100,
            "time": 204.14506390625053,
            "value": 0
          }
        ],
        "101": [
          {
            "number": 101,
            "time": 0,
            "value": 0
          },
          {
            "number": 101,
            "time": 0,
            "value": 0
          },
          {
            "number": 101,
            "time": 0,
            "value": 0
          },
          {
            "number": 101,
            "time": 204.13788000000054,
            "value": 0
          },
          {
            "number": 101,
            "time": 204.14506390625053,
            "value": 0
          },
          {
            "number": 101,
            "time": 204.14506390625053,
            "value": 0
          }
        ]
      },
      "id": 3,
      "name": "MO2",
      "instrumentNumber": 0,
      "instrument": "acoustic grand piano",
      "instrumentFamily": "piano",
      "channelNumber": 0,
      "isPercussion": false
    }
  ]
}