{
  "header": {
    "PPQ": 960,
    "bpm": 175.00007291669704,
    "timeSignature": [
      4,
      4
    ],
    "name": "ClariS - RlNg [GS] by liisnoob"
  },
  "startTime": 0,
  "duration": 89.22853425000415,
  "tracks": [
    {
      "startTime": 0,
      "duration": 0,
      "length": 0,
      "notes": [],
      "controlChanges": {},
      "id": 0,
      "name": "ClariS - RlNg [GS] by liisnoob"
    },
    {
      "startTime": 0.685714,
      "duration": 89.22853425000011,
      "length": 279,
      "notes": [
        {
          "name": "F4",
          "midi": 65,
          "time": 0.685714,
          "velocity": 0.984251968503937,
          "duration": 0.17142849999999998
        },
        {
          "name": "D4",
          "midi": 62,
          "time": 0.685714,
          "velocity": 0.7874015748031497,
          "duration": 0.17142849999999998
        },
        {
          "name": "E4",
          "midi": 64,
          "time": 0.8571425,
          "velocity": 0.984251968503937,
          "duration": 0.1714285000000001
        },
        {
          "name": "C4",
          "midi": 60,
          "time": 0.8571425,
          "velocity": 0.7874015748031497,
          "duration": 0.1714285000000001
        },
        {
          "name": "F4",
          "midi": 65,
          "time": 1.0285710000000001,
          "velocity": 0.984251968503937,
          "duration": 0.17142849999999998
        },
        {
          "name": "D4",
          "midi": 62,
          "time": 1.0285710000000001,
          "velocity": 0.7874015748031497,
          "duration": 0.17142849999999998
        },
        {
          "name": "G4",
          "midi": 67,
          "time": 1.1999995,
          "velocity": 0.984251968503937,
          "duration": 0.17142849999999998
        },
        {
          "name": "E4",
          "midi": 64,
          "time": 1.1999995,
          "velocity": 0.7874015748031497,
          "duration": 0.17142849999999998
        },
        {
          "name": "A4",
          "midi": 69,
          "time": 1.371428,
          "velocity": 0.984251968503937,
          "duration": 0.34285699999999997
        },
        {
          "name": "F4",
          "midi": 65,
          "time": 1.371428,
          "velocity": 0.7874015748031497,
          "duration": 0.34285699999999997
        },
        {
          "name": "F4",
          "midi": 65,
          "time": 1.8857135,
          "velocity": 0.984251968503937,
          "duration": 0.1714285000000002
        },
        {
          "name": "D4",
          "midi": 62,
          "time": 1.8857135,
          "velocity": 0.7874015748031497,
          "duration": 0.1714285000000002
        },
        {
          "name": "G4",
          "midi": 67,
          "time": 2.0571420000000002,
          "velocity": 0.984251968503937,
          "duration": 0.1714285000000002
        },
        {
          "name": "E4",
          "midi": 64,
          "time": 2.0571420000000002,
          "velocity": 0.7874015748031497,
          "duration": 0.1714285000000002
        },
        {
          "name": "A4",
          "midi": 69,
          "time": 2.2285705000000005,
          "velocity": 0.984251968503937,
          "duration": 0.25714274999999986
        },
        {
          "name": "F4",
          "midi": 65,
          "time": 2.2285705000000005,
          "velocity": 0.7874015748031497,
          "duration": 0.25714274999999986
        },
        {
          "name": "F4",
          "midi": 65,
          "time": 2.5714275000000004,
          "velocity": 0.984251968503937,
          "duration": 0.1714285000000002
        },
        {
          "name": "D4",
          "midi": 62,
          "time": 2.5714275000000004,
          "velocity": 0.7874015748031497,
          "duration": 0.1714285000000002
        },
        {
          "name": "G4",
          "midi": 67,
          "time": 2.7428560000000006,
          "velocity": 0.984251968503937,
          "duration": 0.1714285000000002
        },
        {
          "name": "E4",
          "midi": 64,
          "time": 2.7428560000000006,
          "velocity": 0.7874015748031497,
          "duration": 0.1714285000000002
        },
        {
          "name": "A4",
          "midi": 69,
          "time": 2.914284500000001,
          "velocity": 0.984251968503937,
          "duration": 0.25714274999999986
        },
        {
          "name": "F4",
          "midi": 65,
          "time": 2.914284500000001,
          "velocity": 0.7874015748031497,
          "duration": 0.25714274999999986
        },
        {
          "name": "C5",
          "midi": 72,
          "time": 3.257141500000001,
          "velocity": 0.984251968503937,
          "duration": 0.25714274999999986
        },
        {
          "name": "A4",
          "midi": 69,
          "time": 3.257141500000001,
          "velocity": 0.7874015748031497,
          "duration": 0.25714274999999986
        },
        {
          "name": "G4",
          "midi": 67,
          "time": 3.5999985000000008,
          "velocity": 0.984251968503937,
          "duration": 0.25714274999999986
        },
        {
          "name": "E4",
          "midi": 64,
          "time": 3.5999985000000008,
          "velocity": 0.7874015748031497,
          "duration": 0.25714274999999986
        },
        {
          "name": "G4",
          "midi": 67,
          "time": 3.9428555000000007,
          "velocity": 0.984251968503937,
          "duration": 0.5142855000000002
        },
        {
          "name": "E4",
          "midi": 64,
          "time": 3.9428555000000007,
          "velocity": 0.7874015748031497,
          "duration": 0.5142855000000002
        },
        {
          "name": "E4",
          "midi": 64,
          "time": 4.628569500000001,
          "velocity": 0.984251968503937,
          "duration": 0.1714285000000002
        },
        {
          "name": "C4",
          "midi": 60,
          "time": 4.628569500000001,
          "velocity": 0.7874015748031497,
          "duration": 0.1714285000000002
        },
        {
          "name": "F4",
          "midi": 65,
          "time": 4.799998000000001,
          "velocity": 0.984251968503937,
          "duration": 0.1714285000000002
        },
        {
          "name": "D4",
          "midi": 62,
          "time": 4.799998000000001,
          "velocity": 0.7874015748031497,
          "duration": 0.1714285000000002
        },
        {
          "name": "G4",
          "midi": 67,
          "time": 4.9714265000000015,
          "velocity": 0.984251968503937,
          "duration": 0.1714285000000002
        },
        {
          "name": "E4",
          "midi": 64,
          "time": 4.9714265000000015,
          "velocity": 0.7874015748031497,
          "duration": 0.1714285000000002
        },
        {
          "name": "C4",
          "midi": 60,
          "time": 5.314283500000002,
          "velocity": 0.984251968503937,
          "duration": 0.1714285000000002
        },
        {
          "name": "A3",
          "midi": 57,
          "time": 5.314283500000002,
          "velocity": 0.7874015748031497,
          "duration": 0.1714285000000002
        },
        {
          "name": "G4",
          "midi": 67,
          "time": 5.485712000000002,
          "velocity": 0.984251968503937,
          "duration": 0.1714285000000002
        },
        {
          "name": "E4",
          "midi": 64,
          "time": 5.485712000000002,
          "velocity": 0.7874015748031497,
          "duration": 0.1714285000000002
        },
        {
          "name": "F4",
          "midi": 65,
          "time": 5.657140500000002,
          "velocity": 0.984251968503937,
          "duration": 0.1714285000000002
        },
        {
          "name": "D4",
          "midi": 62,
          "time": 5.657140500000002,
          "velocity": 0.7874015748031497,
          "duration": 0.1714285000000002
        },
        {
          "name": "E4",
          "midi": 64,
          "time": 5.8285690000000026,
          "velocity": 0.984251968503937,
          "duration": 0.1714285000000002
        },
        {
          "name": "C4",
          "midi": 60,
          "time": 5.8285690000000026,
          "velocity": 0.7874015748031497,
          "duration": 0.1714285000000002
        },
        {
          "name": "F4",
          "midi": 65,
          "time": 5.999997500000003,
          "velocity": 0.984251968503937,
          "duration": 0.1714285000000002
        },
        {
          "name": "D4",
          "midi": 62,
          "time": 5.999997500000003,
          "velocity": 0.7874015748031497,
          "duration": 0.1714285000000002
        },
        {
          "name": "C4",
          "midi": 60,
          "time": 6.342854500000003,
          "velocity": 0.984251968503937,
          "duration": 0.1714285000000002
        },
        {
          "name": "A3",
          "midi": 57,
          "time": 6.342854500000003,
          "velocity": 0.7874015748031497,
          "duration": 0.1714285000000002
        },
        {
          "name": "F4",
          "midi": 65,
          "time": 6.514283000000003,
          "velocity": 0.984251968503937,
          "duration": 0.1714285000000002
        },
        {
          "name": "D4",
          "midi": 62,
          "time": 6.514283000000003,
          "velocity": 0.7874015748031497,
          "duration": 0.1714285000000002
        },
        {
          "name": "G4",
          "midi": 67,
          "time": 6.685711500000004,
          "velocity": 0.984251968503937,
          "duration": 0.1714285000000002
        },
        {
          "name": "E4",
          "midi": 64,
          "time": 6.685711500000004,
          "velocity": 0.7874015748031497,
          "duration": 0.1714285000000002
        },
        {
          "name": "A4",
          "midi": 69,
          "time": 6.857140000000004,
          "velocity": 0.984251968503937,
          "duration": 0.3428570000000004
        },
        {
          "name": "F4",
          "midi": 65,
          "time": 6.857140000000004,
          "velocity": 0.7874015748031497,
          "duration": 0.3428570000000004
        },
        {
          "name": "F4",
          "midi": 65,
          "time": 7.371425500000004,
          "velocity": 0.984251968503937,
          "duration": 0.1714285000000002
        },
        {
          "name": "D4",
          "midi": 62,
          "time": 7.371425500000004,
          "velocity": 0.7874015748031497,
          "duration": 0.1714285000000002
        },
        {
          "name": "G4",
          "midi": 67,
          "time": 7.542854000000005,
          "velocity": 0.984251968503937,
          "duration": 0.1714285000000002
        },
        {
          "name": "E4",
          "midi": 64,
          "time": 7.542854000000005,
          "velocity": 0.7874015748031497,
          "duration": 0.1714285000000002
        },
        {
          "name": "A4",
          "midi": 69,
          "time": 7.714282500000005,
          "velocity": 0.984251968503937,
          "duration": 0.1714285000000002
        },
        {
          "name": "F4",
          "midi": 65,
          "time": 7.714282500000005,
          "velocity": 0.7874015748031497,
          "duration": 0.1714285000000002
        },
        {
          "name": "F4",
          "midi": 65,
          "time": 8.057139500000005,
          "velocity": 0.984251968503937,
          "duration": 0.17142849999999932
        },
        {
          "name": "D4",
          "midi": 62,
          "time": 8.057139500000005,
          "velocity": 0.7874015748031497,
          "duration": 0.17142849999999932
        },
        {
          "name": "G4",
          "midi": 67,
          "time": 8.228568000000005,
          "velocity": 0.984251968503937,
          "duration": 0.17142849999999932
        },
        {
          "name": "E4",
          "midi": 64,
          "time": 8.228568000000005,
          "velocity": 0.7874015748031497,
          "duration": 0.17142849999999932
        },
        {
          "name": "A4",
          "midi": 69,
          "time": 8.399996500000004,
          "velocity": 0.984251968503937,
          "duration": 0.17142849999999932
        },
        {
          "name": "F4",
          "midi": 65,
          "time": 8.399996500000004,
          "velocity": 0.7874015748031497,
          "duration": 0.17142849999999932
        },
        {
          "name": "C5",
          "midi": 72,
          "time": 8.742853500000002,
          "velocity": 0.984251968503937,
          "duration": 0.17142849999999932
        },
        {
          "name": "A4",
          "midi": 69,
          "time": 8.742853500000002,
          "velocity": 0.7874015748031497,
          "duration": 0.17142849999999932
        },
        {
          "name": "G4",
          "midi": 67,
          "time": 9.085710500000001,
          "velocity": 0.984251968503937,
          "duration": 0.17142849999999932
        },
        {
          "name": "E4",
          "midi": 64,
          "time": 9.085710500000001,
          "velocity": 0.7874015748031497,
          "duration": 0.17142849999999932
        },
        {
          "name": "G4",
          "midi": 67,
          "time": 9.4285675,
          "velocity": 0.984251968503937,
          "duration": 1.0285709999999995
        },
        {
          "name": "E4",
          "midi": 64,
          "time": 9.4285675,
          "velocity": 0.7874015748031497,
          "duration": 1.0285709999999995
        },
        {
          "name": "F#4",
          "midi": 66,
          "time": 10.4571385,
          "velocity": 0.984251968503937,
          "duration": 0.17142849999999932
        },
        {
          "name": "D4",
          "midi": 62,
          "time": 10.4571385,
          "velocity": 0.7874015748031497,
          "duration": 0.17142849999999932
        },
        {
          "name": "G4",
          "midi": 67,
          "time": 10.628566999999999,
          "velocity": 0.984251968503937,
          "duration": 0.17142849999999932
        },
        {
          "name": "E4",
          "midi": 64,
          "time": 10.628566999999999,
          "velocity": 0.7874015748031497,
          "duration": 0.17142849999999932
        },
        {
          "name": "A4",
          "midi": 69,
          "time": 10.799995499999998,
          "velocity": 0.984251968503937,
          "duration": 0.8571425000000001
        },
        {
          "name": "F#4",
          "midi": 66,
          "time": 10.799995499999998,
          "velocity": 0.7874015748031497,
          "duration": 0.8571425000000001
        },
        {
          "name": "G4",
          "midi": 67,
          "time": 23.314276,
          "velocity": 0.984251968503937,
          "duration": 0.25714274999999986
        },
        {
          "name": "C4",
          "midi": 60,
          "time": 23.657132999999998,
          "velocity": 0.984251968503937,
          "duration": 0.1714285000000011
        },
        {
          "name": "D4",
          "midi": 62,
          "time": 23.8285615,
          "velocity": 0.984251968503937,
          "duration": 0.1714285000000011
        },
        {
          "name": "D#4",
          "midi": 63,
          "time": 24.1714185,
          "velocity": 0.984251968503937,
          "duration": 0.42857125000000096
        },
        {
          "name": "D4",
          "midi": 62,
          "time": 24.685704,
          "velocity": 0.984251968503937,
          "duration": 0.1714285000000011
        },
        {
          "name": "D#4",
          "midi": 63,
          "time": 24.857132500000002,
          "velocity": 0.984251968503937,
          "duration": 0.25714274999999986
        },
        {
          "name": "F4",
          "midi": 65,
          "time": 25.1999895,
          "velocity": 0.984251968503937,
          "duration": 0.1714285000000011
        },
        {
          "name": "D4",
          "midi": 62,
          "time": 25.542846500000003,
          "velocity": 0.984251968503937,
          "duration": 0.34285699999999864
        },
        {
          "name": "D4",
          "midi": 62,
          "time": 26.057132000000003,
          "velocity": 0.984251968503937,
          "duration": 0.25714274999999986
        },
        {
          "name": "D4",
          "midi": 62,
          "time": 26.399989,
          "velocity": 0.984251968503937,
          "duration": 0.1714285000000011
        },
        {
          "name": "C4",
          "midi": 60,
          "time": 26.571417500000003,
          "velocity": 0.984251968503937,
          "duration": 0.1714285000000011
        },
        {
          "name": "A#3",
          "midi": 58,
          "time": 26.914274500000005,
          "velocity": 0.984251968503937,
          "duration": 0.6857140000000008
        },
        {
          "name": "A#3",
          "midi": 58,
          "time": 27.942845500000004,
          "velocity": 0.984251968503937,
          "duration": 0.34285699999999864
        },
        {
          "name": "C4",
          "midi": 60,
          "time": 28.285702500000003,
          "velocity": 0.984251968503937,
          "duration": 0.1714285000000011
        },
        {
          "name": "D4",
          "midi": 62,
          "time": 28.457131000000004,
          "velocity": 0.984251968503937,
          "duration": 0.25714274999999986
        },
        {
          "name": "A#3",
          "midi": 58,
          "time": 28.799988000000003,
          "velocity": 0.984251968503937,
          "duration": 0.1714285000000011
        },
        {
          "name": "A#3",
          "midi": 58,
          "time": 29.142845000000005,
          "velocity": 0.984251968503937,
          "duration": 0.1714285000000011
        },
        {
          "name": "D4",
          "midi": 62,
          "time": 29.314273500000006,
          "velocity": 0.984251968503937,
          "duration": 0.1714285000000011
        },
        {
          "name": "G#4",
          "midi": 68,
          "time": 29.657130500000008,
          "velocity": 0.984251968503937,
          "duration": 0.1714285000000011
        },
        {
          "name": "G4",
          "midi": 67,
          "time": 29.99998750000001,
          "velocity": 0.984251968503937,
          "duration": 0.1714285000000011
        },
        {
          "name": "G4",
          "midi": 67,
          "time": 30.17141600000001,
          "velocity": 0.984251968503937,
          "duration": 0.1714285000000011
        },
        {
          "name": "F4",
          "midi": 65,
          "time": 30.342844500000012,
          "velocity": 0.984251968503937,
          "duration": 0.1714285000000011
        },
        {
          "name": "D4",
          "midi": 62,
          "time": 30.685701500000015,
          "velocity": 0.984251968503937,
          "duration": 0.25714274999999986
        },
        {
          "name": "F4",
          "midi": 65,
          "time": 31.028558500000013,
          "velocity": 0.984251968503937,
          "duration": 0.1714285000000011
        },
        {
          "name": "D#4",
          "midi": 63,
          "time": 31.199987000000014,
          "velocity": 0.984251968503937,
          "duration": 0.6857140000000008
        },
        {
          "name": "F4",
          "midi": 65,
          "time": 31.885701000000015,
          "velocity": 0.984251968503937,
          "duration": 0.6857140000000008
        },
        {
          "name": "D#4",
          "midi": 63,
          "time": 32.571415000000016,
          "velocity": 0.984251968503937,
          "duration": 0.6857140000000683
        },
        {
          "name": "D4",
          "midi": 62,
          "time": 33.257129000000084,
          "velocity": 0.984251968503937,
          "duration": 0.5142854999999997
        },
        {
          "name": "G4",
          "midi": 67,
          "time": 34.285700000000084,
          "velocity": 0.984251968503937,
          "duration": 0.25714274999999986
        },
        {
          "name": "C4",
          "midi": 60,
          "time": 34.628557000000086,
          "velocity": 0.984251968503937,
          "duration": 0.17142849999999754
        },
        {
          "name": "D4",
          "midi": 62,
          "time": 34.79998550000008,
          "velocity": 0.984251968503937,
          "duration": 0.17142849999999754
        },
        {
          "name": "D#4",
          "midi": 63,
          "time": 35.14284250000008,
          "velocity": 0.984251968503937,
          "duration": 0.4285712499999974
        },
        {
          "name": "D4",
          "midi": 62,
          "time": 35.65712800000008,
          "velocity": 0.984251968503937,
          "duration": 0.17142849999999754
        },
        {
          "name": "D#4",
          "midi": 63,
          "time": 35.828556500000076,
          "velocity": 0.984251968503937,
          "duration": 0.25714274999999986
        },
        {
          "name": "F4",
          "midi": 65,
          "time": 36.17141350000008,
          "velocity": 0.984251968503937,
          "duration": 0.17142849999999754
        },
        {
          "name": "D4",
          "midi": 62,
          "time": 36.51427050000007,
          "velocity": 0.984251968503937,
          "duration": 0.3428570000000022
        },
        {
          "name": "D4",
          "midi": 62,
          "time": 37.02855600000007,
          "velocity": 0.984251968503937,
          "duration": 0.25714274999999986
        },
        {
          "name": "D4",
          "midi": 62,
          "time": 37.371413000000075,
          "velocity": 0.984251968503937,
          "duration": 0.17142849999999754
        },
        {
          "name": "C4",
          "midi": 60,
          "time": 37.54284150000007,
          "velocity": 0.984251968503937,
          "duration": 0.25714274999999986
        },
        {
          "name": "A#3",
          "midi": 58,
          "time": 37.885698500000075,
          "velocity": 0.984251968503937,
          "duration": 0.6857139999999973
        },
        {
          "name": "A#4",
          "midi": 70,
          "time": 38.914269500000074,
          "velocity": 0.984251968503937,
          "duration": 0.3428570000000022
        },
        {
          "name": "G4",
          "midi": 67,
          "time": 39.257126500000076,
          "velocity": 0.984251968503937,
          "duration": 0.17142849999999754
        },
        {
          "name": "F4",
          "midi": 65,
          "time": 39.428555000000074,
          "velocity": 0.984251968503937,
          "duration": 0.3428570000000022
        },
        {
          "name": "D#4",
          "midi": 63,
          "time": 39.771412000000076,
          "velocity": 0.984251968503937,
          "duration": 0.25714274999999986
        },
        {
          "name": "F4",
          "midi": 65,
          "time": 40.11426900000008,
          "velocity": 0.984251968503937,
          "duration": 0.17142849999999754
        },
        {
          "name": "D#4",
          "midi": 63,
          "time": 40.285697500000076,
          "velocity": 0.984251968503937,
          "duration": 0.25714274999999986
        },
        {
          "name": "F4",
          "midi": 65,
          "time": 40.62855450000008,
          "velocity": 0.984251968503937,
          "duration": 0.25714274999999986
        },
        {
          "name": "F4",
          "midi": 65,
          "time": 40.97141150000008,
          "velocity": 0.984251968503937,
          "duration": 0.25714274999999986
        },
        {
          "name": "F4",
          "midi": 65,
          "time": 41.31426850000008,
          "velocity": 0.984251968503937,
          "duration": 0.17142849999999754
        },
        {
          "name": "A#3",
          "midi": 58,
          "time": 41.48569700000008,
          "velocity": 0.984251968503937,
          "duration": 0.17142849999999754
        },
        {
          "name": "A#3",
          "midi": 58,
          "time": 41.65712550000008,
          "velocity": 0.984251968503937,
          "duration": 0.17142849999999754
        },
        {
          "name": "A#4",
          "midi": 70,
          "time": 41.828554000000075,
          "velocity": 0.984251968503937,
          "duration": 0.3428570000000022
        },
        {
          "name": "G4",
          "midi": 67,
          "time": 42.17141100000008,
          "velocity": 0.984251968503937,
          "duration": 0.4285712499999974
        },
        {
          "name": "F4",
          "midi": 65,
          "time": 42.68569650000008,
          "velocity": 0.984251968503937,
          "duration": 0.4285712499999974
        },
        {
          "name": "D#4",
          "midi": 63,
          "time": 43.19998200000008,
          "velocity": 0.984251968503937,
          "duration": 1.0285709999999995
        },
        {
          "name": "D#4",
          "midi": 63,
          "time": 44.57141000000008,
          "velocity": 0.984251968503937,
          "duration": 0.17142849999999754
        },
        {
          "name": "C4",
          "midi": 60,
          "time": 44.57141000000008,
          "velocity": 0.5905511811023622,
          "duration": 0.17142849999999754
        },
        {
          "name": "F4",
          "midi": 65,
          "time": 44.742838500000076,
          "velocity": 0.984251968503937,
          "duration": 0.17142849999999754
        },
        {
          "name": "D4",
          "midi": 62,
          "time": 44.742838500000076,
          "velocity": 0.5905511811023622,
          "duration": 0.17142849999999754
        },
        {
          "name": "G4",
          "midi": 67,
          "time": 44.91426700000007,
          "velocity": 0.984251968503937,
          "duration": 0.9428567499999971
        },
        {
          "name": "D#4",
          "midi": 63,
          "time": 44.91426700000007,
          "velocity": 0.5905511811023622,
          "duration": 0.9428567499999971
        },
        {
          "name": "F4",
          "midi": 65,
          "time": 45.94283800000007,
          "velocity": 0.984251968503937,
          "duration": 0.17142849999999754
        },
        {
          "name": "D4",
          "midi": 62,
          "time": 45.94283800000007,
          "velocity": 0.5905511811023622,
          "duration": 0.17142849999999754
        },
        {
          "name": "D#4",
          "midi": 63,
          "time": 46.11426650000007,
          "velocity": 0.984251968503937,
          "duration": 0.6857139999999973
        },
        {
          "name": "C4",
          "midi": 60,
          "time": 46.11426650000007,
          "velocity": 0.5905511811023622,
          "duration": 0.6857139999999973
        },
        {
          "name": "D#4",
          "midi": 63,
          "time": 46.971409000000065,
          "velocity": 0.984251968503937,
          "duration": 0.3428570000000022
        },
        {
          "name": "C4",
          "midi": 60,
          "time": 46.971409000000065,
          "velocity": 0.5905511811023622,
          "duration": 0.3428570000000022
        },
        {
          "name": "F4",
          "midi": 65,
          "time": 47.31426600000007,
          "velocity": 0.984251968503937,
          "duration": 0.3428570000000022
        },
        {
          "name": "D4",
          "midi": 62,
          "time": 47.31426600000007,
          "velocity": 0.5905511811023622,
          "duration": 0.3428570000000022
        },
        {
          "name": "A#3",
          "midi": 58,
          "time": 47.65712300000007,
          "velocity": 0.984251968503937,
          "duration": 0.5142854999999997
        },
        {
          "name": "G3",
          "midi": 55,
          "time": 47.65712300000007,
          "velocity": 0.5905511811023622,
          "duration": 0.5142854999999997
        },
        {
          "name": "G4",
          "midi": 67,
          "time": 48.17140850000007,
          "velocity": 0.984251968503937,
          "duration": 0.4285712499999974
        },
        {
          "name": "D#4",
          "midi": 63,
          "time": 48.17140850000007,
          "velocity": 0.5905511811023622,
          "duration": 0.4285712499999974
        },
        {
          "name": "G4",
          "midi": 67,
          "time": 48.68569400000007,
          "velocity": 0.984251968503937,
          "duration": 0.8571425000000019
        },
        {
          "name": "D#4",
          "midi": 63,
          "time": 48.68569400000007,
          "velocity": 0.5905511811023622,
          "duration": 0.8571425000000019
        },
        {
          "name": "G4",
          "midi": 67,
          "time": 50.05712200000007,
          "velocity": 0.984251968503937,
          "duration": 0.17142849999999754
        },
        {
          "name": "D#4",
          "midi": 63,
          "time": 50.05712200000007,
          "velocity": 0.5905511811023622,
          "duration": 0.17142849999999754
        },
        {
          "name": "G#4",
          "midi": 68,
          "time": 50.22855050000007,
          "velocity": 0.984251968503937,
          "duration": 0.17142849999999754
        },
        {
          "name": "F4",
          "midi": 65,
          "time": 50.22855050000007,
          "velocity": 0.5905511811023622,
          "duration": 0.17142849999999754
        },
        {
          "name": "A#4",
          "midi": 70,
          "time": 50.399979000000066,
          "velocity": 0.984251968503937,
          "duration": 0.4285712499999974
        },
        {
          "name": "G4",
          "midi": 67,
          "time": 50.399979000000066,
          "velocity": 0.5905511811023622,
          "duration": 0.4285712499999974
        },
        {
          "name": "G#4",
          "midi": 68,
          "time": 50.914264500000066,
          "velocity": 0.984251968503937,
          "duration": 0.4285712499999974
        },
        {
          "name": "F4",
          "midi": 65,
          "time": 50.914264500000066,
          "velocity": 0.5905511811023622,
          "duration": 0.4285712499999974
        },
        {
          "name": "G4",
          "midi": 67,
          "time": 51.428550000000065,
          "velocity": 0.984251968503937,
          "duration": 0.4285712499999974
        },
        {
          "name": "D#4",
          "midi": 63,
          "time": 51.428550000000065,
          "velocity": 0.5905511811023622,
          "duration": 0.4285712499999974
        },
        {
          "name": "F4",
          "midi": 65,
          "time": 51.942835500000065,
          "velocity": 0.984251968503937,
          "duration": 0.4285712499999974
        },
        {
          "name": "D4",
          "midi": 62,
          "time": 51.942835500000065,
          "velocity": 0.5905511811023622,
          "duration": 0.4285712499999974
        },
        {
          "name": "D#4",
          "midi": 63,
          "time": 52.457121000000065,
          "velocity": 0.984251968503937,
          "duration": 0.25714274999999986
        },
        {
          "name": "C4",
          "midi": 60,
          "time": 52.457121000000065,
          "velocity": 0.5905511811023622,
          "duration": 0.25714274999999986
        },
        {
          "name": "F4",
          "midi": 65,
          "time": 52.79997800000007,
          "velocity": 0.984251968503937,
          "duration": 0.17142849999999754
        },
        {
          "name": "D4",
          "midi": 62,
          "time": 52.79997800000007,
          "velocity": 0.5905511811023622,
          "duration": 0.17142849999999754
        },
        {
          "name": "A#3",
          "midi": 58,
          "time": 52.971406500000064,
          "velocity": 0.984251968503937,
          "duration": 1.1142852500000018
        },
        {
          "name": "G3",
          "midi": 55,
          "time": 52.971406500000064,
          "velocity": 0.5905511811023622,
          "duration": 1.1142852500000018
        },
        {
          "name": "G#3",
          "midi": 56,
          "time": 54.17140600000007,
          "velocity": 0.984251968503937,
          "duration": 0.17142849999999754
        },
        {
          "name": "F3",
          "midi": 53,
          "time": 54.17140600000007,
          "velocity": 0.5905511811023622,
          "duration": 0.17142849999999754
        },
        {
          "name": "A#3",
          "midi": 58,
          "time": 54.342834500000066,
          "velocity": 0.984251968503937,
          "duration": 0.9428567499999971
        },
        {
          "name": "G3",
          "midi": 55,
          "time": 54.342834500000066,
          "velocity": 0.5905511811023622,
          "duration": 0.9428567499999971
        },
        {
          "name": "D#4",
          "midi": 63,
          "time": 55.54283400000006,
          "velocity": 0.984251968503937,
          "duration": 0.17142849999999754
        },
        {
          "name": "C4",
          "midi": 60,
          "time": 55.54283400000006,
          "velocity": 0.5905511811023622,
          "duration": 0.17142849999999754
        },
        {
          "name": "F4",
          "midi": 65,
          "time": 55.71426250000006,
          "velocity": 0.984251968503937,
          "duration": 0.17142849999999754
        },
        {
          "name": "D4",
          "midi": 62,
          "time": 55.71426250000006,
          "velocity": 0.5905511811023622,
          "duration": 0.17142849999999754
        },
        {
          "name": "G4",
          "midi": 67,
          "time": 55.88569100000006,
          "velocity": 0.984251968503937,
          "duration": 0.9428567499999971
        },
        {
          "name": "D#4",
          "midi": 63,
          "time": 55.88569100000006,
          "velocity": 0.5905511811023622,
          "duration": 0.9428567499999971
        },
        {
          "name": "F4",
          "midi": 65,
          "time": 56.91426200000006,
          "velocity": 0.984251968503937,
          "duration": 0.17142849999999754
        },
        {
          "name": "D4",
          "midi": 62,
          "time": 56.91426200000006,
          "velocity": 0.5905511811023622,
          "duration": 0.17142849999999754
        },
        {
          "name": "D#4",
          "midi": 63,
          "time": 57.085690500000055,
          "velocity": 0.984251968503937,
          "duration": 0.6857139999999973
        },
        {
          "name": "C4",
          "midi": 60,
          "time": 57.085690500000055,
          "velocity": 0.5905511811023622,
          "duration": 0.6857139999999973
        },
        {
          "name": "D#4",
          "midi": 63,
          "time": 57.94283300000005,
          "velocity": 0.984251968503937,
          "duration": 0.3428570000000022
        },
        {
          "name": "C4",
          "midi": 60,
          "time": 57.94283300000005,
          "velocity": 0.5905511811023622,
          "duration": 0.3428570000000022
        },
        {
          "name": "F4",
          "midi": 65,
          "time": 58.28569000000005,
          "velocity": 0.984251968503937,
          "duration": 0.3428570000000022
        },
        {
          "name": "D4",
          "midi": 62,
          "time": 58.28569000000005,
          "velocity": 0.5905511811023622,
          "duration": 0.3428570000000022
        },
        {
          "name": "A#4",
          "midi": 70,
          "time": 58.628547000000054,
          "velocity": 0.984251968503937,
          "duration": 0.4285712499999974
        },
        {
          "name": "G4",
          "midi": 67,
          "time": 58.628547000000054,
          "velocity": 0.5905511811023622,
          "duration": 0.4285712499999974
        },
        {
          "name": "A#4",
          "midi": 70,
          "time": 59.142832500000054,
          "velocity": 0.984251968503937,
          "duration": 0.4285712499999974
        },
        {
          "name": "G4",
          "midi": 67,
          "time": 59.142832500000054,
          "velocity": 0.5905511811023622,
          "duration": 0.4285712499999974
        },
        {
          "name": "D4",
          "midi": 62,
          "time": 59.657118000000054,
          "velocity": 0.984251968503937,
          "duration": 0.17142849999999754
        },
        {
          "name": "A#3",
          "midi": 58,
          "time": 59.657118000000054,
          "velocity": 0.5905511811023622,
          "duration": 0.17142849999999754
        },
        {
          "name": "D#4",
          "midi": 63,
          "time": 59.82854650000005,
          "velocity": 0.984251968503937,
          "duration": 0.599999750000002
        },
        {
          "name": "C4",
          "midi": 60,
          "time": 59.82854650000005,
          "velocity": 0.5905511811023622,
          "duration": 0.599999750000002
        },
        {
          "name": "C4",
          "midi": 60,
          "time": 60.68568900000005,
          "velocity": 0.984251968503937,
          "duration": 0.3428570000000022
        },
        {
          "name": "D#4",
          "midi": 63,
          "time": 61.028546000000055,
          "velocity": 0.984251968503937,
          "duration": 0.3428570000000022
        },
        {
          "name": "F4",
          "midi": 65,
          "time": 61.37140300000006,
          "velocity": 0.984251968503937,
          "duration": 0.3428570000000022
        },
        {
          "name": "D#4",
          "midi": 63,
          "time": 61.71426000000006,
          "velocity": 0.984251968503937,
          "duration": 0.17142849999999754
        },
        {
          "name": "F4",
          "midi": 65,
          "time": 61.88568850000006,
          "velocity": 0.984251968503937,
          "duration": 0.3428570000000022
        },
        {
          "name": "D#4",
          "midi": 63,
          "time": 62.22854550000006,
          "velocity": 0.984251968503937,
          "duration": 0.25714274999999986
        },
        {
          "name": "F4",
          "midi": 65,
          "time": 62.57140250000006,
          "velocity": 0.984251968503937,
          "duration": 0.4285712499999974
        },
        {
          "name": "D#4",
          "midi": 63,
          "time": 63.08568800000006,
          "velocity": 0.984251968503937,
          "duration": 0.17142849999999754
        },
        {
          "name": "F4",
          "midi": 65,
          "time": 63.25711650000006,
          "velocity": 0.984251968503937,
          "duration": 0.25714274999999986
        },
        {
          "name": "G4",
          "midi": 67,
          "time": 63.59997350000006,
          "velocity": 0.984251968503937,
          "duration": 0.3428570000000022
        },
        {
          "name": "G#4",
          "midi": 68,
          "time": 63.94283050000006,
          "velocity": 0.984251968503937,
          "duration": 1.7142849999999967
        },
        {
          "name": "F#4",
          "midi": 66,
          "time": 66.17140100000006,
          "velocity": 0.984251968503937,
          "duration": 0.17142850000000465
        },
        {
          "name": "F4",
          "midi": 65,
          "time": 66.34282950000006,
          "velocity": 0.984251968503937,
          "duration": 0.17142850000000465
        },
        {
          "name": "F#4",
          "midi": 66,
          "time": 66.51425800000007,
          "velocity": 0.984251968503937,
          "duration": 0.17142850000000465
        },
        {
          "name": "G#4",
          "midi": 68,
          "time": 66.68568650000007,
          "velocity": 0.984251968503937,
          "duration": 0.17142850000000465
        },
        {
          "name": "A#4",
          "midi": 70,
          "time": 66.85711500000008,
          "velocity": 0.984251968503937,
          "duration": 0.3428569999999951
        },
        {
          "name": "F#4",
          "midi": 66,
          "time": 67.37140050000008,
          "velocity": 0.984251968503937,
          "duration": 0.17142850000000465
        },
        {
          "name": "G#4",
          "midi": 68,
          "time": 67.54282900000008,
          "velocity": 0.984251968503937,
          "duration": 0.17142850000000465
        },
        {
          "name": "A#4",
          "midi": 70,
          "time": 67.71425750000009,
          "velocity": 0.984251968503937,
          "duration": 0.25714274999999986
        },
        {
          "name": "F#4",
          "midi": 66,
          "time": 68.05711450000008,
          "velocity": 0.984251968503937,
          "duration": 0.17142850000000465
        },
        {
          "name": "G#4",
          "midi": 68,
          "time": 68.22854300000009,
          "velocity": 0.984251968503937,
          "duration": 0.17142850000000465
        },
        {
          "name": "A#4",
          "midi": 70,
          "time": 68.39997150000009,
          "velocity": 0.984251968503937,
          "duration": 0.25714274999999986
        },
        {
          "name": "C#5",
          "midi": 73,
          "time": 68.74282850000009,
          "velocity": 0.984251968503937,
          "duration": 0.25714274999999986
        },
        {
          "name": "G#4",
          "midi": 68,
          "time": 69.08568550000008,
          "velocity": 0.984251968503937,
          "duration": 0.25714274999999986
        },
        {
          "name": "G#4",
          "midi": 68,
          "time": 69.42854250000008,
          "velocity": 0.984251968503937,
          "duration": 0.5142854999999997
        },
        {
          "name": "F4",
          "midi": 65,
          "time": 70.11425650000008,
          "velocity": 0.984251968503937,
          "duration": 0.17142850000000465
        },
        {
          "name": "F#4",
          "midi": 66,
          "time": 70.28568500000009,
          "velocity": 0.984251968503937,
          "duration": 0.17142850000000465
        },
        {
          "name": "G#4",
          "midi": 68,
          "time": 70.45711350000009,
          "velocity": 0.984251968503937,
          "duration": 0.25714274999999986
        },
        {
          "name": "F4",
          "midi": 65,
          "time": 70.79997050000009,
          "velocity": 0.984251968503937,
          "duration": 0.17142850000000465
        },
        {
          "name": "F#4",
          "midi": 66,
          "time": 70.97139900000009,
          "velocity": 0.984251968503937,
          "duration": 0.17142850000000465
        },
        {
          "name": "F#4",
          "midi": 66,
          "time": 71.1428275000001,
          "velocity": 0.984251968503937,
          "duration": 0.17142850000000465
        },
        {
          "name": "F4",
          "midi": 65,
          "time": 71.3142560000001,
          "velocity": 0.984251968503937,
          "duration": 0.17142850000000465
        },
        {
          "name": "F#4",
          "midi": 66,
          "time": 71.4856845000001,
          "velocity": 0.984251968503937,
          "duration": 0.17142850000000465
        },
        {
          "name": "F4",
          "midi": 65,
          "time": 71.82854150000011,
          "velocity": 0.984251968503937,
          "duration": 0.17142850000000465
        },
        {
          "name": "F#4",
          "midi": 66,
          "time": 71.99997000000012,
          "velocity": 0.984251968503937,
          "duration": 0.17142850000000465
        },
        {
          "name": "G#4",
          "midi": 68,
          "time": 72.17139850000012,
          "velocity": 0.984251968503937,
          "duration": 0.17142850000000465
        },
        {
          "name": "A#4",
          "midi": 70,
          "time": 72.34282700000013,
          "velocity": 0.984251968503937,
          "duration": 0.3428569999999951
        },
        {
          "name": "F#4",
          "midi": 66,
          "time": 72.85711250000013,
          "velocity": 0.984251968503937,
          "duration": 0.17142850000000465
        },
        {
          "name": "G#4",
          "midi": 68,
          "time": 73.02854100000013,
          "velocity": 0.984251968503937,
          "duration": 0.17142850000000465
        },
        {
          "name": "A#4",
          "midi": 70,
          "time": 73.19996950000014,
          "velocity": 0.984251968503937,
          "duration": 0.25714274999999986
        },
        {
          "name": "F#4",
          "midi": 66,
          "time": 73.54282650000013,
          "velocity": 0.984251968503937,
          "duration": 0.17142850000000465
        },
        {
          "name": "G#4",
          "midi": 68,
          "time": 73.71425500000014,
          "velocity": 0.984251968503937,
          "duration": 0.17142850000000465
        },
        {
          "name": "A#4",
          "midi": 70,
          "time": 73.88568350000014,
          "velocity": 0.984251968503937,
          "duration": 0.25714274999999986
        },
        {
          "name": "C#5",
          "midi": 73,
          "time": 74.22854050000014,
          "velocity": 0.984251968503937,
          "duration": 0.25714274999999986
        },
        {
          "name": "G#4",
          "midi": 68,
          "time": 74.57139750000013,
          "velocity": 0.984251968503937,
          "duration": 0.25714274999999986
        },
        {
          "name": "G#4",
          "midi": 68,
          "time": 74.91425450000013,
          "velocity": 0.984251968503937,
          "duration": 1.0285709999999995
        },
        {
          "name": "G4",
          "midi": 67,
          "time": 75.94282550000013,
          "velocity": 0.984251968503937,
          "duration": 0.17142850000000465
        },
        {
          "name": "G#4",
          "midi": 68,
          "time": 76.11425400000013,
          "velocity": 0.984251968503937,
          "duration": 0.17142850000000465
        },
        {
          "name": "A#4",
          "midi": 70,
          "time": 76.28568250000014,
          "velocity": 0.984251968503937,
          "duration": 0.7714282499999996
        },
        {
          "name": "F#4",
          "midi": 66,
          "time": 77.14282500000013,
          "velocity": 0.984251968503937,
          "duration": 0.17142850000000465
        },
        {
          "name": "F4",
          "midi": 65,
          "time": 77.31425350000013,
          "velocity": 0.984251968503937,
          "duration": 0.17142850000000465
        },
        {
          "name": "F#4",
          "midi": 66,
          "time": 77.48568200000014,
          "velocity": 0.984251968503937,
          "duration": 0.17142850000000465
        },
        {
          "name": "G#4",
          "midi": 68,
          "time": 77.65711050000014,
          "velocity": 0.984251968503937,
          "duration": 0.17142850000000465
        },
        {
          "name": "A#4",
          "midi": 70,
          "time": 77.82853900000015,
          "velocity": 0.984251968503937,
          "duration": 0.3428569999999951
        },
        {
          "name": "F#4",
          "midi": 66,
          "time": 78.34282450000015,
          "velocity": 0.984251968503937,
          "duration": 0.17142850000000465
        },
        {
          "name": "G#4",
          "midi": 68,
          "time": 78.51425300000015,
          "velocity": 0.984251968503937,
          "duration": 0.17142850000000465
        },
        {
          "name": "A#4",
          "midi": 70,
          "time": 78.68568150000016,
          "velocity": 0.984251968503937,
          "duration": 0.25714274999999986
        },
        {
          "name": "F#4",
          "midi": 66,
          "time": 79.02853850000015,
          "velocity": 0.984251968503937,
          "duration": 0.17142850000000465
        },
        {
          "name": "G#4",
          "midi": 68,
          "time": 79.19996700000016,
          "velocity": 0.984251968503937,
          "duration": 0.17142850000000465
        },
        {
          "name": "A#4",
          "midi": 70,
          "time": 79.37139550000016,
          "velocity": 0.984251968503937,
          "duration": 0.25714274999999986
        },
        {
          "name": "C#5",
          "midi": 73,
          "time": 79.71425250000016,
          "velocity": 0.984251968503937,
          "duration": 0.17142850000000465
        },
        {
          "name": "G#4",
          "midi": 68,
          "time": 80.05710950000015,
          "velocity": 0.984251968503937,
          "duration": 0.17142850000000465
        },
        {
          "name": "G#4",
          "midi": 68,
          "time": 80.39996650000012,
          "velocity": 0.984251968503937,
          "duration": 0.5142854999999997
        },
        {
          "name": "F4",
          "midi": 65,
          "time": 81.08568050000012,
          "velocity": 0.984251968503937,
          "duration": 0.17142850000000465
        },
        {
          "name": "F#4",
          "midi": 66,
          "time": 81.25710900000013,
          "velocity": 0.984251968503937,
          "duration": 0.17142850000000465
        },
        {
          "name": "G#4",
          "midi": 68,
          "time": 81.42853750000013,
          "velocity": 0.984251968503937,
          "duration": 0.25714274999999986
        },
        {
          "name": "F4",
          "midi": 65,
          "time": 81.77139450000013,
          "velocity": 0.984251968503937,
          "duration": 0.17142850000000465
        },
        {
          "name": "C#5",
          "midi": 73,
          "time": 81.94282300000013,
          "velocity": 0.984251968503937,
          "duration": 0.17142850000000465
        },
        {
          "name": "B4",
          "midi": 71,
          "time": 82.11425150000014,
          "velocity": 0.984251968503937,
          "duration": 0.17142850000000465
        },
        {
          "name": "A#4",
          "midi": 70,
          "time": 82.28568000000014,
          "velocity": 0.984251968503937,
          "duration": 0.17142850000000465
        },
        {
          "name": "F#4",
          "midi": 66,
          "time": 82.45710850000015,
          "velocity": 0.984251968503937,
          "duration": 0.25714274999999986
        },
        {
          "name": "F4",
          "midi": 65,
          "time": 82.79996550000014,
          "velocity": 0.984251968503937,
          "duration": 0.3428569999999951
        },
        {
          "name": "F#4",
          "midi": 66,
          "time": 83.14282250000014,
          "velocity": 0.984251968503937,
          "duration": 0.6857140000000044
        },
        {
          "name": "A#4",
          "midi": 70,
          "time": 83.99996500000015,
          "velocity": 0.984251968503937,
          "duration": 0.25714274999999986
        },
        {
          "name": "A#4",
          "midi": 70,
          "time": 84.34282200000014,
          "velocity": 0.984251968503937,
          "duration": 0.25714274999999986
        },
        {
          "name": "B4",
          "midi": 71,
          "time": 84.68567900000014,
          "velocity": 0.984251968503937,
          "duration": 0.3428569999999951
        },
        {
          "name": "A#4",
          "midi": 70,
          "time": 85.02853600000013,
          "velocity": 0.984251968503937,
          "duration": 0.17142850000000465
        },
        {
          "name": "G#4",
          "midi": 68,
          "time": 85.19996450000014,
          "velocity": 0.984251968503937,
          "duration": 0.3428569999999951
        },
        {
          "name": "B4",
          "midi": 71,
          "time": 85.54282150000013,
          "velocity": 0.984251968503937,
          "duration": 0.25714274999999986
        },
        {
          "name": "B4",
          "midi": 71,
          "time": 85.88567850000013,
          "velocity": 0.984251968503937,
          "duration": 1.0285709999999995
        },
        {
          "name": "A#4",
          "midi": 70,
          "time": 87.08567800000012,
          "velocity": 0.984251968503937,
          "duration": 0.3428569999999951
        },
        {
          "name": "G#4",
          "midi": 68,
          "time": 87.42853500000011,
          "velocity": 0.984251968503937,
          "duration": 0.6857140000000044
        },
        {
          "name": "C#5",
          "midi": 73,
          "time": 88.11424900000011,
          "velocity": 0.984251968503937,
          "duration": 0.599999749999995
        },
        {
          "name": "A#4",
          "midi": 70,
          "time": 88.7999630000001,
          "velocity": 0.984251968503937,
          "duration": 0.4285712500000045
        }
      ],
      "controlChanges": {
        "7": [
          {
            "number": 7,
            "time": 0.342857,
            "value": 0.9448818897637795
          }
        ],
        "10": [
          {
            "number": 10,
            "time": 0.342857,
            "value": 0.5039370078740157
          }
        ],
        "11": [
          {
            "number": 11,
            "time": 79.88568100000016,
            "value": 0.6220472440944882
          },
          {
            "number": 11,
            "time": 79.88746671354183,
            "value": 0.6456692913385826
          },
          {
            "number": 11,
            "time": 79.8946095677085,
            "value": 0.6535433070866141
          },
          {
            "number": 11,
            "time": 79.89639528125016,
            "value": 0.6456692913385826
          },
          {
            "number": 11,
            "time": 80.04818093229183,
            "value": 0.9921259842519685
          },
          {
            "number": 11,
            "time": 80.05175235937516,
            "value": 0.984251968503937
          },
          {
            "number": 11,
            "time": 80.05353807291682,
            "value": 0.984251968503937
          },
          {
            "number": 11,
            "time": 80.05532378645849,
            "value": 0.9763779527559056
          },
          {
            "number": 11,
            "time": 80.05710950000015,
            "value": 0.984251968503937
          },
          {
            "number": 11,
            "time": 80.23389514062515,
            "value": 0.7637795275590551
          },
          {
            "number": 11,
            "time": 80.23568085416682,
            "value": 0.7559055118110236
          },
          {
            "number": 11,
            "time": 80.23746656770848,
            "value": 0.6299212598425197
          },
          {
            "number": 11,
            "time": 80.23925228125015,
            "value": 0.5196850393700787
          },
          {
            "number": 11,
            "time": 80.24103799479181,
            "value": 0.6299212598425197
          },
          {
            "number": 11,
            "time": 80.26068084375014,
            "value": 0.6299212598425197
          },
          {
            "number": 11,
            "time": 80.38746650520847,
            "value": 0.7637795275590551
          },
          {
            "number": 11,
            "time": 80.38925221875013,
            "value": 0.9921259842519685
          },
          {
            "number": 11,
            "time": 80.39282364583346,
            "value": 0.9921259842519685
          },
          {
            "number": 11,
            "time": 80.39460935937512,
            "value": 0.9921259842519685
          }
        ],
        "32": [
          {
            "number": 32,
            "time": 0.342857,
            "value": 0
          }
        ]
      },
      "id": 1,
      "instrumentNumber": 80,
      "instrument": "lead 1 (square)",
      "instrumentFamily": "synth lead",
      "channelNumber": 0,
      "isPercussion": false
    },
    {
      "startTime": 0.8571425000000001,
      "duration": 89.22853425000002,
      "length": 216,
      "notes": [
        {
          "name": "F4",
          "midi": 65,
          "time": 0.8571425000000001,
          "velocity": 0.5905511811023622,
          "duration": 0.17142849999999998
        },
        {
          "name": "D4",
          "midi": 62,
          "time": 0.8571425000000001,
          "velocity": 0.3937007874015748,
          "duration": 0.17142849999999998
        },
        {
          "name": "E4",
          "midi": 64,
          "time": 1.0285710000000001,
          "velocity": 0.5905511811023622,
          "duration": 0.17142849999999998
        },
        {
          "name": "C4",
          "midi": 60,
          "time": 1.0285710000000001,
          "velocity": 0.3937007874015748,
          "duration": 0.17142849999999998
        },
        {
          "name": "F4",
          "midi": 65,
          "time": 1.1999995,
          "velocity": 0.5905511811023622,
          "duration": 0.17142849999999998
        },
        {
          "name": "D4",
          "midi": 62,
          "time": 1.1999995,
          "velocity": 0.3937007874015748,
          "duration": 0.17142849999999998
        },
        {
          "name": "G4",
          "midi": 67,
          "time": 1.371428,
          "velocity": 0.5905511811023622,
          "duration": 0.17142849999999998
        },
        {
          "name": "E4",
          "midi": 64,
          "time": 1.371428,
          "velocity": 0.3937007874015748,
          "duration": 0.17142849999999998
        },
        {
          "name": "A4",
          "midi": 69,
          "time": 1.5428565,
          "velocity": 0.5905511811023622,
          "duration": 0.34285699999999997
        },
        {
          "name": "F4",
          "midi": 65,
          "time": 1.5428565,
          "velocity": 0.3937007874015748,
          "duration": 0.34285699999999997
        },
        {
          "name": "F4",
          "midi": 65,
          "time": 2.0571420000000002,
          "velocity": 0.5905511811023622,
          "duration": 0.1714285000000002
        },
        {
          "name": "D4",
          "midi": 62,
          "time": 2.0571420000000002,
          "velocity": 0.3937007874015748,
          "duration": 0.1714285000000002
        },
        {
          "name": "G4",
          "midi": 67,
          "time": 2.2285705000000005,
          "velocity": 0.5905511811023622,
          "duration": 0.1714285000000002
        },
        {
          "name": "E4",
          "midi": 64,
          "time": 2.2285705000000005,
          "velocity": 0.3937007874015748,
          "duration": 0.1714285000000002
        },
        {
          "name": "A4",
          "midi": 69,
          "time": 2.3999990000000007,
          "velocity": 0.5905511811023622,
          "duration": 0.25714274999999986
        },
        {
          "name": "F4",
          "midi": 65,
          "time": 2.3999990000000007,
          "velocity": 0.3937007874015748,
          "duration": 0.25714274999999986
        },
        {
          "name": "F4",
          "midi": 65,
          "time": 2.7428560000000006,
          "velocity": 0.5905511811023622,
          "duration": 0.1714285000000002
        },
        {
          "name": "D4",
          "midi": 62,
          "time": 2.7428560000000006,
          "velocity": 0.3937007874015748,
          "duration": 0.1714285000000002
        },
        {
          "name": "G4",
          "midi": 67,
          "time": 2.914284500000001,
          "velocity": 0.5905511811023622,
          "duration": 0.1714285000000002
        },
        {
          "name": "E4",
          "midi": 64,
          "time": 2.914284500000001,
          "velocity": 0.3937007874015748,
          "duration": 0.1714285000000002
        },
        {
          "name": "A4",
          "midi": 69,
          "time": 3.085713000000001,
          "velocity": 0.5905511811023622,
          "duration": 0.25714274999999986
        },
        {
          "name": "F4",
          "midi": 65,
          "time": 3.085713000000001,
          "velocity": 0.3937007874015748,
          "duration": 0.25714274999999986
        },
        {
          "name": "C5",
          "midi": 72,
          "time": 3.428570000000001,
          "velocity": 0.5905511811023622,
          "duration": 0.25714274999999986
        },
        {
          "name": "A4",
          "midi": 69,
          "time": 3.428570000000001,
          "velocity": 0.3937007874015748,
          "duration": 0.25714274999999986
        },
        {
          "name": "G4",
          "midi": 67,
          "time": 3.771427000000001,
          "velocity": 0.5905511811023622,
          "duration": 0.25714274999999986
        },
        {
          "name": "E4",
          "midi": 64,
          "time": 3.771427000000001,
          "velocity": 0.3937007874015748,
          "duration": 0.25714274999999986
        },
        {
          "name": "G4",
          "midi": 67,
          "time": 4.1142840000000005,
          "velocity": 0.5905511811023622,
          "duration": 0.5142854999999997
        },
        {
          "name": "E4",
          "midi": 64,
          "time": 4.1142840000000005,
          "velocity": 0.3937007874015748,
          "duration": 0.5142854999999997
        },
        {
          "name": "E4",
          "midi": 64,
          "time": 4.799998,
          "velocity": 0.5905511811023622,
          "duration": 0.1714285000000002
        },
        {
          "name": "C4",
          "midi": 60,
          "time": 4.799998,
          "velocity": 0.3937007874015748,
          "duration": 0.1714285000000002
        },
        {
          "name": "F4",
          "midi": 65,
          "time": 4.971426500000001,
          "velocity": 0.5905511811023622,
          "duration": 0.1714285000000002
        },
        {
          "name": "D4",
          "midi": 62,
          "time": 4.971426500000001,
          "velocity": 0.3937007874015748,
          "duration": 0.1714285000000002
        },
        {
          "name": "G4",
          "midi": 67,
          "time": 5.142855000000001,
          "velocity": 0.5905511811023622,
          "duration": 0.1714285000000002
        },
        {
          "name": "E4",
          "midi": 64,
          "time": 5.142855000000001,
          "velocity": 0.3937007874015748,
          "duration": 0.1714285000000002
        },
        {
          "name": "C4",
          "midi": 60,
          "time": 5.485712000000001,
          "velocity": 0.5905511811023622,
          "duration": 0.1714285000000002
        },
        {
          "name": "A3",
          "midi": 57,
          "time": 5.485712000000001,
          "velocity": 0.3937007874015748,
          "duration": 0.1714285000000002
        },
        {
          "name": "G4",
          "midi": 67,
          "time": 5.6571405000000015,
          "velocity": 0.5905511811023622,
          "duration": 0.1714285000000002
        },
        {
          "name": "E4",
          "midi": 64,
          "time": 5.6571405000000015,
          "velocity": 0.3937007874015748,
          "duration": 0.1714285000000002
        },
        {
          "name": "F4",
          "midi": 65,
          "time": 5.828569000000002,
          "velocity": 0.5905511811023622,
          "duration": 0.1714285000000002
        },
        {
          "name": "D4",
          "midi": 62,
          "time": 5.828569000000002,
          "velocity": 0.3937007874015748,
          "duration": 0.1714285000000002
        },
        {
          "name": "E4",
          "midi": 64,
          "time": 5.999997500000002,
          "velocity": 0.5905511811023622,
          "duration": 0.1714285000000002
        },
        {
          "name": "C4",
          "midi": 60,
          "time": 5.999997500000002,
          "velocity": 0.3937007874015748,
          "duration": 0.1714285000000002
        },
        {
          "name": "F4",
          "midi": 65,
          "time": 6.171426000000002,
          "velocity": 0.5905511811023622,
          "duration": 0.1714285000000002
        },
        {
          "name": "D4",
          "midi": 62,
          "time": 6.171426000000002,
          "velocity": 0.3937007874015748,
          "duration": 0.1714285000000002
        },
        {
          "name": "C4",
          "midi": 60,
          "time": 6.5142830000000025,
          "velocity": 0.5905511811023622,
          "duration": 0.1714285000000002
        },
        {
          "name": "A3",
          "midi": 57,
          "time": 6.5142830000000025,
          "velocity": 0.3937007874015748,
          "duration": 0.1714285000000002
        },
        {
          "name": "F4",
          "midi": 65,
          "time": 6.685711500000003,
          "velocity": 0.5905511811023622,
          "duration": 0.1714285000000002
        },
        {
          "name": "D4",
          "midi": 62,
          "time": 6.685711500000003,
          "velocity": 0.3937007874015748,
          "duration": 0.1714285000000002
        },
        {
          "name": "G4",
          "midi": 67,
          "time": 6.857140000000003,
          "velocity": 0.5905511811023622,
          "duration": 0.1714285000000002
        },
        {
          "name": "E4",
          "midi": 64,
          "time": 6.857140000000003,
          "velocity": 0.3937007874015748,
          "duration": 0.1714285000000002
        },
        {
          "name": "A4",
          "midi": 69,
          "time": 7.028568500000003,
          "velocity": 0.5905511811023622,
          "duration": 0.3428570000000004
        },
        {
          "name": "F4",
          "midi": 65,
          "time": 7.028568500000003,
          "velocity": 0.3937007874015748,
          "duration": 0.3428570000000004
        },
        {
          "name": "F4",
          "midi": 65,
          "time": 7.542854000000004,
          "velocity": 0.5905511811023622,
          "duration": 0.1714285000000002
        },
        {
          "name": "D4",
          "midi": 62,
          "time": 7.542854000000004,
          "velocity": 0.3937007874015748,
          "duration": 0.1714285000000002
        },
        {
          "name": "G4",
          "midi": 67,
          "time": 7.714282500000004,
          "velocity": 0.5905511811023622,
          "duration": 0.1714285000000002
        },
        {
          "name": "E4",
          "midi": 64,
          "time": 7.714282500000004,
          "velocity": 0.3937007874015748,
          "duration": 0.1714285000000002
        },
        {
          "name": "A4",
          "midi": 69,
          "time": 7.885711000000004,
          "velocity": 0.5905511811023622,
          "duration": 0.17142849999999932
        },
        {
          "name": "F4",
          "midi": 65,
          "time": 7.885711000000004,
          "velocity": 0.3937007874015748,
          "duration": 0.17142849999999932
        },
        {
          "name": "F4",
          "midi": 65,
          "time": 8.228568000000003,
          "velocity": 0.5905511811023622,
          "duration": 0.17142849999999932
        },
        {
          "name": "D4",
          "midi": 62,
          "time": 8.228568000000003,
          "velocity": 0.3937007874015748,
          "duration": 0.17142849999999932
        },
        {
          "name": "G4",
          "midi": 67,
          "time": 8.399996500000002,
          "velocity": 0.5905511811023622,
          "duration": 0.17142849999999932
        },
        {
          "name": "E4",
          "midi": 64,
          "time": 8.399996500000002,
          "velocity": 0.3937007874015748,
          "duration": 0.17142849999999932
        },
        {
          "name": "A4",
          "midi": 69,
          "time": 8.571425000000001,
          "velocity": 0.5905511811023622,
          "duration": 0.17142849999999932
        },
        {
          "name": "F4",
          "midi": 65,
          "time": 8.571425000000001,
          "velocity": 0.3937007874015748,
          "duration": 0.17142849999999932
        },
        {
          "name": "C5",
          "midi": 72,
          "time": 8.914282,
          "velocity": 0.5905511811023622,
          "duration": 0.17142849999999932
        },
        {
          "name": "A4",
          "midi": 69,
          "time": 8.914282,
          "velocity": 0.3937007874015748,
          "duration": 0.17142849999999932
        },
        {
          "name": "G4",
          "midi": 67,
          "time": 9.257138999999999,
          "velocity": 0.5905511811023622,
          "duration": 0.17142849999999932
        },
        {
          "name": "E4",
          "midi": 64,
          "time": 9.257138999999999,
          "velocity": 0.3937007874015748,
          "duration": 0.17142849999999932
        },
        {
          "name": "G4",
          "midi": 67,
          "time": 9.599995999999997,
          "velocity": 0.5905511811023622,
          "duration": 1.0285709999999995
        },
        {
          "name": "E4",
          "midi": 64,
          "time": 9.599995999999997,
          "velocity": 0.3937007874015748,
          "duration": 1.0285709999999995
        },
        {
          "name": "F#4",
          "midi": 66,
          "time": 10.628566999999997,
          "velocity": 0.5905511811023622,
          "duration": 0.17142849999999932
        },
        {
          "name": "D4",
          "midi": 62,
          "time": 10.628566999999997,
          "velocity": 0.3937007874015748,
          "duration": 0.17142849999999932
        },
        {
          "name": "G4",
          "midi": 67,
          "time": 10.799995499999996,
          "velocity": 0.5905511811023622,
          "duration": 0.17142849999999932
        },
        {
          "name": "E4",
          "midi": 64,
          "time": 10.799995499999996,
          "velocity": 0.3937007874015748,
          "duration": 0.17142849999999932
        },
        {
          "name": "A4",
          "midi": 69,
          "time": 10.971423999999995,
          "velocity": 0.5905511811023622,
          "duration": 0.6857140000000008
        },
        {
          "name": "F#4",
          "midi": 66,
          "time": 10.971423999999995,
          "velocity": 0.3937007874015748,
          "duration": 0.6857140000000008
        },
        {
          "name": "A#4",
          "midi": 70,
          "time": 42.171411,
          "velocity": 0.5905511811023622,
          "duration": 0.4285712499999974
        },
        {
          "name": "F4",
          "midi": 65,
          "time": 42.6856965,
          "velocity": 0.5905511811023622,
          "duration": 0.4285712499999974
        },
        {
          "name": "D#4",
          "midi": 63,
          "time": 43.199982,
          "velocity": 0.5905511811023622,
          "duration": 1.0285709999999995
        },
        {
          "name": "D#4",
          "midi": 63,
          "time": 44.7428385,
          "velocity": 0.6299212598425197,
          "duration": 0.17142849999999754
        },
        {
          "name": "C4",
          "midi": 60,
          "time": 44.7428385,
          "velocity": 0.23622047244094488,
          "duration": 0.17142849999999754
        },
        {
          "name": "F4",
          "midi": 65,
          "time": 44.914266999999995,
          "velocity": 0.6299212598425197,
          "duration": 0.17142849999999754
        },
        {
          "name": "D4",
          "midi": 62,
          "time": 44.914266999999995,
          "velocity": 0.23622047244094488,
          "duration": 0.17142849999999754
        },
        {
          "name": "G4",
          "midi": 67,
          "time": 45.08569549999999,
          "velocity": 0.6299212598425197,
          "duration": 0.9428567499999971
        },
        {
          "name": "D#4",
          "midi": 63,
          "time": 45.08569549999999,
          "velocity": 0.23622047244094488,
          "duration": 0.9428567499999971
        },
        {
          "name": "F4",
          "midi": 65,
          "time": 46.11426649999999,
          "velocity": 0.6299212598425197,
          "duration": 0.17142849999999754
        },
        {
          "name": "D4",
          "midi": 62,
          "time": 46.11426649999999,
          "velocity": 0.23622047244094488,
          "duration": 0.17142849999999754
        },
        {
          "name": "D#4",
          "midi": 63,
          "time": 46.28569499999999,
          "velocity": 0.6299212598425197,
          "duration": 0.6857139999999973
        },
        {
          "name": "C4",
          "midi": 60,
          "time": 46.28569499999999,
          "velocity": 0.23622047244094488,
          "duration": 0.6857139999999973
        },
        {
          "name": "D#4",
          "midi": 63,
          "time": 47.142837499999985,
          "velocity": 0.6299212598425197,
          "duration": 0.3428570000000022
        },
        {
          "name": "C4",
          "midi": 60,
          "time": 47.142837499999985,
          "velocity": 0.23622047244094488,
          "duration": 0.3428570000000022
        },
        {
          "name": "F4",
          "midi": 65,
          "time": 47.48569449999999,
          "velocity": 0.6299212598425197,
          "duration": 0.3428570000000022
        },
        {
          "name": "D4",
          "midi": 62,
          "time": 47.48569449999999,
          "velocity": 0.23622047244094488,
          "duration": 0.3428570000000022
        },
        {
          "name": "A#3",
          "midi": 58,
          "time": 47.82855149999999,
          "velocity": 0.6299212598425197,
          "duration": 0.5142854999999997
        },
        {
          "name": "G3",
          "midi": 55,
          "time": 47.82855149999999,
          "velocity": 0.23622047244094488,
          "duration": 0.5142854999999997
        },
        {
          "name": "G4",
          "midi": 67,
          "time": 48.34283699999999,
          "velocity": 0.6299212598425197,
          "duration": 0.4285712499999974
        },
        {
          "name": "D#4",
          "midi": 63,
          "time": 48.34283699999999,
          "velocity": 0.23622047244094488,
          "duration": 0.4285712499999974
        },
        {
          "name": "G4",
          "midi": 67,
          "time": 48.85712249999999,
          "velocity": 0.6299212598425197,
          "duration": 0.8571425000000019
        },
        {
          "name": "D#4",
          "midi": 63,
          "time": 48.85712249999999,
          "velocity": 0.23622047244094488,
          "duration": 0.8571425000000019
        },
        {
          "name": "G4",
          "midi": 67,
          "time": 50.22855049999999,
          "velocity": 0.6299212598425197,
          "duration": 0.17142849999999754
        },
        {
          "name": "D#4",
          "midi": 63,
          "time": 50.22855049999999,
          "velocity": 0.23622047244094488,
          "duration": 0.17142849999999754
        },
        {
          "name": "G#4",
          "midi": 68,
          "time": 50.39997899999999,
          "velocity": 0.6299212598425197,
          "duration": 0.17142849999999754
        },
        {
          "name": "F4",
          "midi": 65,
          "time": 50.39997899999999,
          "velocity": 0.23622047244094488,
          "duration": 0.17142849999999754
        },
        {
          "name": "A#4",
          "midi": 70,
          "time": 50.571407499999985,
          "velocity": 0.6299212598425197,
          "duration": 0.4285712499999974
        },
        {
          "name": "G4",
          "midi": 67,
          "time": 50.571407499999985,
          "velocity": 0.23622047244094488,
          "duration": 0.4285712499999974
        },
        {
          "name": "G#4",
          "midi": 68,
          "time": 51.085692999999985,
          "velocity": 0.6299212598425197,
          "duration": 0.4285712499999974
        },
        {
          "name": "F4",
          "midi": 65,
          "time": 51.085692999999985,
          "velocity": 0.23622047244094488,
          "duration": 0.4285712499999974
        },
        {
          "name": "G4",
          "midi": 67,
          "time": 51.599978499999985,
          "velocity": 0.6299212598425197,
          "duration": 0.4285712499999974
        },
        {
          "name": "D#4",
          "midi": 63,
          "time": 51.599978499999985,
          "velocity": 0.23622047244094488,
          "duration": 0.4285712499999974
        },
        {
          "name": "F4",
          "midi": 65,
          "time": 52.114263999999984,
          "velocity": 0.6299212598425197,
          "duration": 0.4285712499999974
        },
        {
          "name": "D4",
          "midi": 62,
          "time": 52.114263999999984,
          "velocity": 0.23622047244094488,
          "duration": 0.4285712499999974
        },
        {
          "name": "D#4",
          "midi": 63,
          "time": 52.628549499999984,
          "velocity": 0.6299212598425197,
          "duration": 0.25714274999999986
        },
        {
          "name": "C4",
          "midi": 60,
          "time": 52.628549499999984,
          "velocity": 0.23622047244094488,
          "duration": 0.25714274999999986
        },
        {
          "name": "F4",
          "midi": 65,
          "time": 52.971406499999986,
          "velocity": 0.6299212598425197,
          "duration": 0.17142849999999754
        },
        {
          "name": "D4",
          "midi": 62,
          "time": 52.971406499999986,
          "velocity": 0.23622047244094488,
          "duration": 0.17142849999999754
        },
        {
          "name": "A#3",
          "midi": 58,
          "time": 53.142834999999984,
          "velocity": 0.6299212598425197,
          "duration": 1.1142852500000018
        },
        {
          "name": "G3",
          "midi": 55,
          "time": 53.142834999999984,
          "velocity": 0.23622047244094488,
          "duration": 1.1142852500000018
        },
        {
          "name": "G#3",
          "midi": 56,
          "time": 54.34283449999999,
          "velocity": 0.6299212598425197,
          "duration": 0.17142849999999754
        },
        {
          "name": "F3",
          "midi": 53,
          "time": 54.34283449999999,
          "velocity": 0.23622047244094488,
          "duration": 0.17142849999999754
        },
        {
          "name": "A#3",
          "midi": 58,
          "time": 54.514262999999985,
          "velocity": 0.6299212598425197,
          "duration": 0.9428567499999971
        },
        {
          "name": "G3",
          "midi": 55,
          "time": 54.514262999999985,
          "velocity": 0.23622047244094488,
          "duration": 0.9428567499999971
        },
        {
          "name": "D#4",
          "midi": 63,
          "time": 55.71426249999998,
          "velocity": 0.6299212598425197,
          "duration": 0.17142849999999754
        },
        {
          "name": "C4",
          "midi": 60,
          "time": 55.71426249999998,
          "velocity": 0.23622047244094488,
          "duration": 0.17142849999999754
        },
        {
          "name": "F4",
          "midi": 65,
          "time": 55.88569099999998,
          "velocity": 0.6299212598425197,
          "duration": 0.17142849999999754
        },
        {
          "name": "D4",
          "midi": 62,
          "time": 55.88569099999998,
          "velocity": 0.23622047244094488,
          "duration": 0.17142849999999754
        },
        {
          "name": "G4",
          "midi": 67,
          "time": 56.05711949999998,
          "velocity": 0.6299212598425197,
          "duration": 0.9428567499999971
        },
        {
          "name": "D#4",
          "midi": 63,
          "time": 56.05711949999998,
          "velocity": 0.23622047244094488,
          "duration": 0.9428567499999971
        },
        {
          "name": "F4",
          "midi": 65,
          "time": 57.08569049999998,
          "velocity": 0.6299212598425197,
          "duration": 0.17142849999999754
        },
        {
          "name": "D4",
          "midi": 62,
          "time": 57.08569049999998,
          "velocity": 0.23622047244094488,
          "duration": 0.17142849999999754
        },
        {
          "name": "D#4",
          "midi": 63,
          "time": 57.257118999999975,
          "velocity": 0.6299212598425197,
          "duration": 0.6857139999999973
        },
        {
          "name": "C4",
          "midi": 60,
          "time": 57.257118999999975,
          "velocity": 0.23622047244094488,
          "duration": 0.6857139999999973
        },
        {
          "name": "D#4",
          "midi": 63,
          "time": 58.11426149999997,
          "velocity": 0.6299212598425197,
          "duration": 0.3428570000000022
        },
        {
          "name": "C4",
          "midi": 60,
          "time": 58.11426149999997,
          "velocity": 0.23622047244094488,
          "duration": 0.3428570000000022
        },
        {
          "name": "F4",
          "midi": 65,
          "time": 58.45711849999997,
          "velocity": 0.6299212598425197,
          "duration": 0.3428570000000022
        },
        {
          "name": "D4",
          "midi": 62,
          "time": 58.45711849999997,
          "velocity": 0.23622047244094488,
          "duration": 0.3428570000000022
        },
        {
          "name": "A#4",
          "midi": 70,
          "time": 58.799975499999974,
          "velocity": 0.6299212598425197,
          "duration": 0.4285712499999974
        },
        {
          "name": "G4",
          "midi": 67,
          "time": 58.799975499999974,
          "velocity": 0.23622047244094488,
          "duration": 0.4285712499999974
        },
        {
          "name": "A#4",
          "midi": 70,
          "time": 59.31426099999997,
          "velocity": 0.6299212598425197,
          "duration": 0.4285712499999974
        },
        {
          "name": "G4",
          "midi": 67,
          "time": 59.31426099999997,
          "velocity": 0.23622047244094488,
          "duration": 0.4285712499999974
        },
        {
          "name": "D4",
          "midi": 62,
          "time": 59.82854649999997,
          "velocity": 0.6299212598425197,
          "duration": 0.17142849999999754
        },
        {
          "name": "A#3",
          "midi": 58,
          "time": 59.82854649999997,
          "velocity": 0.23622047244094488,
          "duration": 0.17142849999999754
        },
        {
          "name": "D#4",
          "midi": 63,
          "time": 59.99997499999997,
          "velocity": 0.6299212598425197,
          "duration": 0.599999750000002
        },
        {
          "name": "C4",
          "midi": 60,
          "time": 59.99997499999997,
          "velocity": 0.23622047244094488,
          "duration": 0.599999750000002
        },
        {
          "name": "D#4",
          "midi": 63,
          "time": 66.17140099999997,
          "velocity": 0.5905511811023622,
          "duration": 0.17142850000000465
        },
        {
          "name": "C#4",
          "midi": 61,
          "time": 66.34282949999998,
          "velocity": 0.5905511811023622,
          "duration": 0.17142850000000465
        },
        {
          "name": "D#4",
          "midi": 63,
          "time": 66.51425799999998,
          "velocity": 0.5905511811023622,
          "duration": 0.17142850000000465
        },
        {
          "name": "F4",
          "midi": 65,
          "time": 66.68568649999999,
          "velocity": 0.5905511811023622,
          "duration": 0.17142850000000465
        },
        {
          "name": "F#4",
          "midi": 66,
          "time": 66.857115,
          "velocity": 0.5905511811023622,
          "duration": 0.3428569999999951
        },
        {
          "name": "D#4",
          "midi": 63,
          "time": 67.3714005,
          "velocity": 0.5905511811023622,
          "duration": 0.17142850000000465
        },
        {
          "name": "F4",
          "midi": 65,
          "time": 67.542829,
          "velocity": 0.5905511811023622,
          "duration": 0.17142850000000465
        },
        {
          "name": "F#4",
          "midi": 66,
          "time": 67.7142575,
          "velocity": 0.5905511811023622,
          "duration": 0.25714274999999986
        },
        {
          "name": "D#4",
          "midi": 63,
          "time": 68.0571145,
          "velocity": 0.5905511811023622,
          "duration": 0.17142850000000465
        },
        {
          "name": "F4",
          "midi": 65,
          "time": 68.228543,
          "velocity": 0.5905511811023622,
          "duration": 0.17142850000000465
        },
        {
          "name": "F#4",
          "midi": 66,
          "time": 68.3999715,
          "velocity": 0.5905511811023622,
          "duration": 0.25714274999999986
        },
        {
          "name": "A#4",
          "midi": 70,
          "time": 68.7428285,
          "velocity": 0.5905511811023622,
          "duration": 0.25714274999999986
        },
        {
          "name": "F4",
          "midi": 65,
          "time": 69.0856855,
          "velocity": 0.5905511811023622,
          "duration": 0.25714274999999986
        },
        {
          "name": "F4",
          "midi": 65,
          "time": 69.42854249999999,
          "velocity": 0.5905511811023622,
          "duration": 0.5142854999999997
        },
        {
          "name": "C#4",
          "midi": 61,
          "time": 70.1142565,
          "velocity": 0.5905511811023622,
          "duration": 0.17142850000000465
        },
        {
          "name": "D#4",
          "midi": 63,
          "time": 70.285685,
          "velocity": 0.5905511811023622,
          "duration": 0.17142850000000465
        },
        {
          "name": "F4",
          "midi": 65,
          "time": 70.4571135,
          "velocity": 0.5905511811023622,
          "duration": 0.25714274999999986
        },
        {
          "name": "C#4",
          "midi": 61,
          "time": 70.7999705,
          "velocity": 0.5905511811023622,
          "duration": 0.17142850000000465
        },
        {
          "name": "D#4",
          "midi": 63,
          "time": 70.971399,
          "velocity": 0.5905511811023622,
          "duration": 0.17142850000000465
        },
        {
          "name": "D#4",
          "midi": 63,
          "time": 71.14282750000001,
          "velocity": 0.5905511811023622,
          "duration": 0.17142850000000465
        },
        {
          "name": "C#4",
          "midi": 61,
          "time": 71.31425600000001,
          "velocity": 0.5905511811023622,
          "duration": 0.17142850000000465
        },
        {
          "name": "D#4",
          "midi": 63,
          "time": 71.48568450000002,
          "velocity": 0.5905511811023622,
          "duration": 0.17142850000000465
        },
        {
          "name": "C#4",
          "midi": 61,
          "time": 71.82854150000003,
          "velocity": 0.5905511811023622,
          "duration": 0.17142850000000465
        },
        {
          "name": "D#4",
          "midi": 63,
          "time": 71.99997000000003,
          "velocity": 0.5905511811023622,
          "duration": 0.17142850000000465
        },
        {
          "name": "F4",
          "midi": 65,
          "time": 72.17139850000004,
          "velocity": 0.5905511811023622,
          "duration": 0.17142850000000465
        },
        {
          "name": "F#4",
          "midi": 66,
          "time": 72.34282700000004,
          "velocity": 0.5905511811023622,
          "duration": 0.3428569999999951
        },
        {
          "name": "D#4",
          "midi": 63,
          "time": 72.85711250000004,
          "velocity": 0.5905511811023622,
          "duration": 0.17142850000000465
        },
        {
          "name": "F4",
          "midi": 65,
          "time": 73.02854100000005,
          "velocity": 0.5905511811023622,
          "duration": 0.17142850000000465
        },
        {
          "name": "F#4",
          "midi": 66,
          "time": 73.19996950000005,
          "velocity": 0.5905511811023622,
          "duration": 0.25714274999999986
        },
        {
          "name": "D#4",
          "midi": 63,
          "time": 73.54282650000005,
          "velocity": 0.5905511811023622,
          "duration": 0.17142850000000465
        },
        {
          "name": "F4",
          "midi": 65,
          "time": 73.71425500000005,
          "velocity": 0.5905511811023622,
          "duration": 0.17142850000000465
        },
        {
          "name": "F#4",
          "midi": 66,
          "time": 73.88568350000006,
          "velocity": 0.5905511811023622,
          "duration": 0.25714274999999986
        },
        {
          "name": "A#4",
          "midi": 70,
          "time": 74.22854050000005,
          "velocity": 0.5905511811023622,
          "duration": 0.25714274999999986
        },
        {
          "name": "F4",
          "midi": 65,
          "time": 74.57139750000005,
          "velocity": 0.5905511811023622,
          "duration": 0.25714274999999986
        },
        {
          "name": "F4",
          "midi": 65,
          "time": 74.91425450000004,
          "velocity": 0.5905511811023622,
          "duration": 1.0285709999999995
        },
        {
          "name": "D#4",
          "midi": 63,
          "time": 75.94282550000004,
          "velocity": 0.5905511811023622,
          "duration": 0.17142850000000465
        },
        {
          "name": "F4",
          "midi": 65,
          "time": 76.11425400000005,
          "velocity": 0.5905511811023622,
          "duration": 0.17142850000000465
        },
        {
          "name": "G4",
          "midi": 67,
          "time": 76.28568250000005,
          "velocity": 0.5905511811023622,
          "duration": 0.7714282499999996
        },
        {
          "name": "D#4",
          "midi": 63,
          "time": 77.14282500000004,
          "velocity": 0.5905511811023622,
          "duration": 0.17142850000000465
        },
        {
          "name": "C#4",
          "midi": 61,
          "time": 77.31425350000005,
          "velocity": 0.5905511811023622,
          "duration": 0.17142850000000465
        },
        {
          "name": "D#4",
          "midi": 63,
          "time": 77.48568200000005,
          "velocity": 0.5905511811023622,
          "duration": 0.17142850000000465
        },
        {
          "name": "F4",
          "midi": 65,
          "time": 77.65711050000006,
          "velocity": 0.5905511811023622,
          "duration": 0.17142850000000465
        },
        {
          "name": "F#4",
          "midi": 66,
          "time": 77.82853900000006,
          "velocity": 0.5905511811023622,
          "duration": 0.3428569999999951
        },
        {
          "name": "D#4",
          "midi": 63,
          "time": 78.34282450000006,
          "velocity": 0.5905511811023622,
          "duration": 0.17142850000000465
        },
        {
          "name": "F4",
          "midi": 65,
          "time": 78.51425300000007,
          "velocity": 0.5905511811023622,
          "duration": 0.17142850000000465
        },
        {
          "name": "F#4",
          "midi": 66,
          "time": 78.68568150000007,
          "velocity": 0.5905511811023622,
          "duration": 0.25714274999999986
        },
        {
          "name": "D#4",
          "midi": 63,
          "time": 79.02853850000007,
          "velocity": 0.5905511811023622,
          "duration": 0.17142850000000465
        },
        {
          "name": "F4",
          "midi": 65,
          "time": 79.19996700000007,
          "velocity": 0.5905511811023622,
          "duration": 0.17142850000000465
        },
        {
          "name": "F#4",
          "midi": 66,
          "time": 79.37139550000008,
          "velocity": 0.5905511811023622,
          "duration": 0.25714274999999986
        },
        {
          "name": "A#4",
          "midi": 70,
          "time": 79.71425250000007,
          "velocity": 0.5905511811023622,
          "duration": 0.17142850000000465
        },
        {
          "name": "F4",
          "midi": 65,
          "time": 80.05710950000007,
          "velocity": 0.5905511811023622,
          "duration": 0.17142850000000465
        },
        {
          "name": "F4",
          "midi": 65,
          "time": 80.39996650000003,
          "velocity": 0.5905511811023622,
          "duration": 0.5142854999999997
        },
        {
          "name": "C#4",
          "midi": 61,
          "time": 81.08568050000004,
          "velocity": 0.5905511811023622,
          "duration": 0.17142850000000465
        },
        {
          "name": "D#4",
          "midi": 63,
          "time": 81.25710900000004,
          "velocity": 0.5905511811023622,
          "duration": 0.17142850000000465
        },
        {
          "name": "F4",
          "midi": 65,
          "time": 81.42853750000005,
          "velocity": 0.5905511811023622,
          "duration": 0.25714274999999986
        },
        {
          "name": "C#4",
          "midi": 61,
          "time": 81.77139450000004,
          "velocity": 0.5905511811023622,
          "duration": 0.17142850000000465
        },
        {
          "name": "A#4",
          "midi": 70,
          "time": 81.94282300000005,
          "velocity": 0.5905511811023622,
          "duration": 0.17142850000000465
        },
        {
          "name": "G#4",
          "midi": 68,
          "time": 82.11425150000005,
          "velocity": 0.5905511811023622,
          "duration": 0.17142850000000465
        },
        {
          "name": "F#4",
          "midi": 66,
          "time": 82.28568000000006,
          "velocity": 0.5905511811023622,
          "duration": 0.17142850000000465
        },
        {
          "name": "D#4",
          "midi": 63,
          "time": 82.45710850000006,
          "velocity": 0.5905511811023622,
          "duration": 0.25714274999999986
        },
        {
          "name": "C#4",
          "midi": 61,
          "time": 82.79996550000006,
          "velocity": 0.5905511811023622,
          "duration": 0.3428569999999951
        },
        {
          "name": "D#4",
          "midi": 63,
          "time": 83.14282250000005,
          "velocity": 0.5905511811023622,
          "duration": 0.6857140000000044
        },
        {
          "name": "F#4",
          "midi": 66,
          "time": 83.99996500000006,
          "velocity": 0.5905511811023622,
          "duration": 0.25714274999999986
        },
        {
          "name": "F#4",
          "midi": 66,
          "time": 84.34282200000006,
          "velocity": 0.5905511811023622,
          "duration": 0.25714274999999986
        },
        {
          "name": "G#4",
          "midi": 68,
          "time": 84.68567900000005,
          "velocity": 0.5905511811023622,
          "duration": 0.3428569999999951
        },
        {
          "name": "F#4",
          "midi": 66,
          "time": 85.02853600000005,
          "velocity": 0.5905511811023622,
          "duration": 0.17142850000000465
        },
        {
          "name": "F4",
          "midi": 65,
          "time": 85.19996450000005,
          "velocity": 0.5905511811023622,
          "duration": 0.3428569999999951
        },
        {
          "name": "G#4",
          "midi": 68,
          "time": 85.54282150000004,
          "velocity": 0.5905511811023622,
          "duration": 0.25714274999999986
        },
        {
          "name": "G#4",
          "midi": 68,
          "time": 85.88567850000004,
          "velocity": 0.5905511811023622,
          "duration": 1.0285709999999995
        },
        {
          "name": "A#3",
          "midi": 58,
          "time": 87.08567800000003,
          "velocity": 0.5905511811023622,
          "duration": 0.3428569999999951
        },
        {
          "name": "C#4",
          "midi": 61,
          "time": 87.42853500000002,
          "velocity": 0.5905511811023622,
          "duration": 0.6857140000000044
        },
        {
          "name": "G#4",
          "midi": 68,
          "time": 88.11424900000003,
          "velocity": 0.5905511811023622,
          "duration": 0.599999749999995
        },
        {
          "name": "F#4",
          "midi": 66,
          "time": 88.79996300000002,
          "velocity": 0.5905511811023622,
          "duration": 0.4285712500000045
        }
      ],
      "controlChanges": {
        "7": [
          {
            "number": 7,
            "time": 0.342857,
            "value": 0.7874015748031497
          }
        ],
        "10": [
          {
            "number": 10,
            "time": 0.342857,
            "value": 1
          }
        ],
        "11": [
          {
            "number": 11,
            "time": 79.88568100000008,
            "value": 0.6220472440944882
          },
          {
            "number": 11,
            "time": 79.88746671354174,
            "value": 0.6456692913385826
          },
          {
            "number": 11,
            "time": 79.89460956770841,
            "value": 0.6535433070866141
          },
          {
            "number": 11,
            "time": 79.89639528125008,
            "value": 0.6456692913385826
          },
          {
            "number": 11,
            "time": 80.04818093229174,
            "value": 0.9921259842519685
          },
          {
            "number": 11,
            "time": 80.05175235937507,
            "value": 0.984251968503937
          },
          {
            "number": 11,
            "time": 80.05353807291674,
            "value": 0.984251968503937
          },
          {
            "number": 11,
            "time": 80.0553237864584,
            "value": 0.9763779527559056
          },
          {
            "number": 11,
            "time": 80.05710950000007,
            "value": 0.984251968503937
          },
          {
            "number": 11,
            "time": 80.23389514062507,
            "value": 0.7637795275590551
          },
          {
            "number": 11,
            "time": 80.23568085416673,
            "value": 0.7559055118110236
          },
          {
            "number": 11,
            "time": 80.2374665677084,
            "value": 0.6299212598425197
          },
          {
            "number": 11,
            "time": 80.23925228125006,
            "value": 0.5196850393700787
          },
          {
            "number": 11,
            "time": 80.24103799479172,
            "value": 0.6299212598425197
          },
          {
            "number": 11,
            "time": 80.26068084375005,
            "value": 0.6299212598425197
          },
          {
            "number": 11,
            "time": 80.38746650520838,
            "value": 0.7637795275590551
          },
          {
            "number": 11,
            "time": 80.38925221875004,
            "value": 0.9921259842519685
          },
          {
            "number": 11,
            "time": 80.39282364583337,
            "value": 0.9921259842519685
          },
          {
            "number": 11,
            "time": 80.39460935937504,
            "value": 0.9921259842519685
          }
        ],
        "32": [
          {
            "number": 32,
            "time": 0.342857,
            "value": 0
          }
        ]
      },
      "id": 2,
      "instrumentNumber": 80,
      "instrument": "lead 1 (square)",
      "instrumentFamily": "synth lead",
      "channelNumber": 1,
      "isPercussion": false
    },
    {
      "startTime": 1.0285710000000001,
      "duration": 86.91424950000004,
      "length": 212,
      "notes": [
        {
          "name": "F4",
          "midi": 65,
          "time": 1.0285710000000001,
          "velocity": 0.5118110236220472,
          "duration": 0.17142849999999998
        },
        {
          "name": "D4",
          "midi": 62,
          "time": 1.0285710000000001,
          "velocity": 0.31496062992125984,
          "duration": 0.17142849999999998
        },
        {
          "name": "E4",
          "midi": 64,
          "time": 1.1999995,
          "velocity": 0.5118110236220472,
          "duration": 0.17142849999999998
        },
        {
          "name": "C4",
          "midi": 60,
          "time": 1.1999995,
          "velocity": 0.31496062992125984,
          "duration": 0.17142849999999998
        },
        {
          "name": "F4",
          "midi": 65,
          "time": 1.371428,
          "velocity": 0.5118110236220472,
          "duration": 0.17142849999999998
        },
        {
          "name": "D4",
          "midi": 62,
          "time": 1.371428,
          "velocity": 0.31496062992125984,
          "duration": 0.17142849999999998
        },
        {
          "name": "G4",
          "midi": 67,
          "time": 1.5428565,
          "velocity": 0.5118110236220472,
          "duration": 0.17142849999999998
        },
        {
          "name": "E4",
          "midi": 64,
          "time": 1.5428565,
          "velocity": 0.31496062992125984,
          "duration": 0.17142849999999998
        },
        {
          "name": "A4",
          "midi": 69,
          "time": 1.714285,
          "velocity": 0.5118110236220472,
          "duration": 0.3428570000000002
        },
        {
          "name": "F4",
          "midi": 65,
          "time": 1.714285,
          "velocity": 0.31496062992125984,
          "duration": 0.3428570000000002
        },
        {
          "name": "F4",
          "midi": 65,
          "time": 2.2285705000000005,
          "velocity": 0.5118110236220472,
          "duration": 0.1714285000000002
        },
        {
          "name": "D4",
          "midi": 62,
          "time": 2.2285705000000005,
          "velocity": 0.31496062992125984,
          "duration": 0.1714285000000002
        },
        {
          "name": "G4",
          "midi": 67,
          "time": 2.3999990000000007,
          "velocity": 0.5118110236220472,
          "duration": 0.1714285000000002
        },
        {
          "name": "E4",
          "midi": 64,
          "time": 2.3999990000000007,
          "velocity": 0.31496062992125984,
          "duration": 0.1714285000000002
        },
        {
          "name": "A4",
          "midi": 69,
          "time": 2.571427500000001,
          "velocity": 0.5118110236220472,
          "duration": 0.25714274999999986
        },
        {
          "name": "F4",
          "midi": 65,
          "time": 2.571427500000001,
          "velocity": 0.31496062992125984,
          "duration": 0.25714274999999986
        },
        {
          "name": "F4",
          "midi": 65,
          "time": 2.914284500000001,
          "velocity": 0.5118110236220472,
          "duration": 0.1714285000000002
        },
        {
          "name": "D4",
          "midi": 62,
          "time": 2.914284500000001,
          "velocity": 0.31496062992125984,
          "duration": 0.1714285000000002
        },
        {
          "name": "G4",
          "midi": 67,
          "time": 3.085713000000001,
          "velocity": 0.5118110236220472,
          "duration": 0.1714285000000002
        },
        {
          "name": "E4",
          "midi": 64,
          "time": 3.085713000000001,
          "velocity": 0.31496062992125984,
          "duration": 0.1714285000000002
        },
        {
          "name": "A4",
          "midi": 69,
          "time": 3.2571415000000012,
          "velocity": 0.5118110236220472,
          "duration": 0.25714274999999986
        },
        {
          "name": "F4",
          "midi": 65,
          "time": 3.2571415000000012,
          "velocity": 0.31496062992125984,
          "duration": 0.25714274999999986
        },
        {
          "name": "C5",
          "midi": 72,
          "time": 3.599998500000001,
          "velocity": 0.5118110236220472,
          "duration": 0.25714274999999986
        },
        {
          "name": "A4",
          "midi": 69,
          "time": 3.599998500000001,
          "velocity": 0.31496062992125984,
          "duration": 0.25714274999999986
        },
        {
          "name": "G4",
          "midi": 67,
          "time": 3.942855500000001,
          "velocity": 0.5118110236220472,
          "duration": 0.25714274999999986
        },
        {
          "name": "E4",
          "midi": 64,
          "time": 3.942855500000001,
          "velocity": 0.31496062992125984,
          "duration": 0.25714274999999986
        },
        {
          "name": "G4",
          "midi": 67,
          "time": 4.285712500000001,
          "velocity": 0.5118110236220472,
          "duration": 0.5142854999999997
        },
        {
          "name": "E4",
          "midi": 64,
          "time": 4.285712500000001,
          "velocity": 0.31496062992125984,
          "duration": 0.5142854999999997
        },
        {
          "name": "E4",
          "midi": 64,
          "time": 4.971426500000001,
          "velocity": 0.5118110236220472,
          "duration": 0.1714285000000002
        },
        {
          "name": "C4",
          "midi": 60,
          "time": 4.971426500000001,
          "velocity": 0.31496062992125984,
          "duration": 0.1714285000000002
        },
        {
          "name": "F4",
          "midi": 65,
          "time": 5.142855000000001,
          "velocity": 0.5118110236220472,
          "duration": 0.1714285000000002
        },
        {
          "name": "D4",
          "midi": 62,
          "time": 5.142855000000001,
          "velocity": 0.31496062992125984,
          "duration": 0.1714285000000002
        },
        {
          "name": "G4",
          "midi": 67,
          "time": 5.314283500000001,
          "velocity": 0.5118110236220472,
          "duration": 0.1714285000000002
        },
        {
          "name": "E4",
          "midi": 64,
          "time": 5.314283500000001,
          "velocity": 0.31496062992125984,
          "duration": 0.1714285000000002
        },
        {
          "name": "C4",
          "midi": 60,
          "time": 5.6571405000000015,
          "velocity": 0.5118110236220472,
          "duration": 0.1714285000000002
        },
        {
          "name": "A3",
          "midi": 57,
          "time": 5.6571405000000015,
          "velocity": 0.31496062992125984,
          "duration": 0.1714285000000002
        },
        {
          "name": "G4",
          "midi": 67,
          "time": 5.828569000000002,
          "velocity": 0.5118110236220472,
          "duration": 0.1714285000000002
        },
        {
          "name": "E4",
          "midi": 64,
          "time": 5.828569000000002,
          "velocity": 0.31496062992125984,
          "duration": 0.1714285000000002
        },
        {
          "name": "F4",
          "midi": 65,
          "time": 5.999997500000002,
          "velocity": 0.5118110236220472,
          "duration": 0.1714285000000002
        },
        {
          "name": "D4",
          "midi": 62,
          "time": 5.999997500000002,
          "velocity": 0.31496062992125984,
          "duration": 0.1714285000000002
        },
        {
          "name": "E4",
          "midi": 64,
          "time": 6.171426000000002,
          "velocity": 0.5118110236220472,
          "duration": 0.1714285000000002
        },
        {
          "name": "C4",
          "midi": 60,
          "time": 6.171426000000002,
          "velocity": 0.31496062992125984,
          "duration": 0.1714285000000002
        },
        {
          "name": "F4",
          "midi": 65,
          "time": 6.342854500000002,
          "velocity": 0.5118110236220472,
          "duration": 0.1714285000000002
        },
        {
          "name": "D4",
          "midi": 62,
          "time": 6.342854500000002,
          "velocity": 0.31496062992125984,
          "duration": 0.1714285000000002
        },
        {
          "name": "C4",
          "midi": 60,
          "time": 6.685711500000003,
          "velocity": 0.5118110236220472,
          "duration": 0.1714285000000002
        },
        {
          "name": "A3",
          "midi": 57,
          "time": 6.685711500000003,
          "velocity": 0.31496062992125984,
          "duration": 0.1714285000000002
        },
        {
          "name": "F4",
          "midi": 65,
          "time": 6.857140000000003,
          "velocity": 0.5118110236220472,
          "duration": 0.1714285000000002
        },
        {
          "name": "D4",
          "midi": 62,
          "time": 6.857140000000003,
          "velocity": 0.31496062992125984,
          "duration": 0.1714285000000002
        },
        {
          "name": "G4",
          "midi": 67,
          "time": 7.028568500000003,
          "velocity": 0.5118110236220472,
          "duration": 0.1714285000000002
        },
        {
          "name": "E4",
          "midi": 64,
          "time": 7.028568500000003,
          "velocity": 0.31496062992125984,
          "duration": 0.1714285000000002
        },
        {
          "name": "A4",
          "midi": 69,
          "time": 7.199997000000003,
          "velocity": 0.5118110236220472,
          "duration": 0.3428570000000004
        },
        {
          "name": "F4",
          "midi": 65,
          "time": 7.199997000000003,
          "velocity": 0.31496062992125984,
          "duration": 0.3428570000000004
        },
        {
          "name": "F4",
          "midi": 65,
          "time": 7.714282500000004,
          "velocity": 0.5118110236220472,
          "duration": 0.1714285000000002
        },
        {
          "name": "D4",
          "midi": 62,
          "time": 7.714282500000004,
          "velocity": 0.31496062992125984,
          "duration": 0.1714285000000002
        },
        {
          "name": "G4",
          "midi": 67,
          "time": 7.885711000000004,
          "velocity": 0.5118110236220472,
          "duration": 0.17142849999999932
        },
        {
          "name": "E4",
          "midi": 64,
          "time": 7.885711000000004,
          "velocity": 0.31496062992125984,
          "duration": 0.17142849999999932
        },
        {
          "name": "A4",
          "midi": 69,
          "time": 8.057139500000003,
          "velocity": 0.5118110236220472,
          "duration": 0.17142849999999932
        },
        {
          "name": "F4",
          "midi": 65,
          "time": 8.057139500000003,
          "velocity": 0.31496062992125984,
          "duration": 0.17142849999999932
        },
        {
          "name": "F4",
          "midi": 65,
          "time": 8.399996500000002,
          "velocity": 0.5118110236220472,
          "duration": 0.17142849999999932
        },
        {
          "name": "D4",
          "midi": 62,
          "time": 8.399996500000002,
          "velocity": 0.31496062992125984,
          "duration": 0.17142849999999932
        },
        {
          "name": "G4",
          "midi": 67,
          "time": 8.571425000000001,
          "velocity": 0.5118110236220472,
          "duration": 0.17142849999999932
        },
        {
          "name": "E4",
          "midi": 64,
          "time": 8.571425000000001,
          "velocity": 0.31496062992125984,
          "duration": 0.17142849999999932
        },
        {
          "name": "A4",
          "midi": 69,
          "time": 8.7428535,
          "velocity": 0.5118110236220472,
          "duration": 0.17142849999999932
        },
        {
          "name": "F4",
          "midi": 65,
          "time": 8.7428535,
          "velocity": 0.31496062992125984,
          "duration": 0.17142849999999932
        },
        {
          "name": "C5",
          "midi": 72,
          "time": 9.0857105,
          "velocity": 0.5118110236220472,
          "duration": 0.17142849999999932
        },
        {
          "name": "A4",
          "midi": 69,
          "time": 9.0857105,
          "velocity": 0.31496062992125984,
          "duration": 0.17142849999999932
        },
        {
          "name": "G4",
          "midi": 67,
          "time": 9.428567499999998,
          "velocity": 0.5118110236220472,
          "duration": 0.17142849999999932
        },
        {
          "name": "E4",
          "midi": 64,
          "time": 9.428567499999998,
          "velocity": 0.31496062992125984,
          "duration": 0.17142849999999932
        },
        {
          "name": "G4",
          "midi": 67,
          "time": 9.771424499999997,
          "velocity": 0.5118110236220472,
          "duration": 1.0285709999999995
        },
        {
          "name": "E4",
          "midi": 64,
          "time": 9.771424499999997,
          "velocity": 0.31496062992125984,
          "duration": 1.0285709999999995
        },
        {
          "name": "F#4",
          "midi": 66,
          "time": 10.799995499999996,
          "velocity": 0.5118110236220472,
          "duration": 0.17142849999999932
        },
        {
          "name": "D4",
          "midi": 62,
          "time": 10.799995499999996,
          "velocity": 0.31496062992125984,
          "duration": 0.17142849999999932
        },
        {
          "name": "G4",
          "midi": 67,
          "time": 10.971423999999995,
          "velocity": 0.5118110236220472,
          "duration": 0.17142849999999932
        },
        {
          "name": "E4",
          "midi": 64,
          "time": 10.971423999999995,
          "velocity": 0.31496062992125984,
          "duration": 0.17142849999999932
        },
        {
          "name": "A4",
          "midi": 69,
          "time": 11.142852499999995,
          "velocity": 0.5118110236220472,
          "duration": 0.5142854999999997
        },
        {
          "name": "F#4",
          "midi": 66,
          "time": 11.142852499999995,
          "velocity": 0.31496062992125984,
          "duration": 0.5142854999999997
        },
        {
          "name": "A#4",
          "midi": 70,
          "time": 43.542838999999994,
          "velocity": 0.5118110236220472,
          "duration": 0.4285712499999974
        },
        {
          "name": "F4",
          "midi": 65,
          "time": 44.05712449999999,
          "velocity": 0.5118110236220472,
          "duration": 0.4285712499999974
        },
        {
          "name": "D#4",
          "midi": 63,
          "time": 44.57140999999999,
          "velocity": 0.5118110236220472,
          "duration": 0.3428570000000022
        },
        {
          "name": "D#4",
          "midi": 63,
          "time": 44.914266999999995,
          "velocity": 0.5511811023622047,
          "duration": 0.17142849999999754
        },
        {
          "name": "C4",
          "midi": 60,
          "time": 44.914266999999995,
          "velocity": 0.15748031496062992,
          "duration": 0.17142849999999754
        },
        {
          "name": "F4",
          "midi": 65,
          "time": 45.08569549999999,
          "velocity": 0.5511811023622047,
          "duration": 0.17142849999999754
        },
        {
          "name": "D4",
          "midi": 62,
          "time": 45.08569549999999,
          "velocity": 0.15748031496062992,
          "duration": 0.17142849999999754
        },
        {
          "name": "G4",
          "midi": 67,
          "time": 45.25712399999999,
          "velocity": 0.5511811023622047,
          "duration": 0.9428567499999971
        },
        {
          "name": "D#4",
          "midi": 63,
          "time": 45.25712399999999,
          "velocity": 0.15748031496062992,
          "duration": 0.9428567499999971
        },
        {
          "name": "F4",
          "midi": 65,
          "time": 46.28569499999999,
          "velocity": 0.5511811023622047,
          "duration": 0.17142849999999754
        },
        {
          "name": "D4",
          "midi": 62,
          "time": 46.28569499999999,
          "velocity": 0.15748031496062992,
          "duration": 0.17142849999999754
        },
        {
          "name": "D#4",
          "midi": 63,
          "time": 46.45712349999999,
          "velocity": 0.5511811023622047,
          "duration": 0.6857139999999973
        },
        {
          "name": "C4",
          "midi": 60,
          "time": 46.45712349999999,
          "velocity": 0.15748031496062992,
          "duration": 0.6857139999999973
        },
        {
          "name": "D#4",
          "midi": 63,
          "time": 47.31426599999998,
          "velocity": 0.5511811023622047,
          "duration": 0.3428570000000022
        },
        {
          "name": "C4",
          "midi": 60,
          "time": 47.31426599999998,
          "velocity": 0.15748031496062992,
          "duration": 0.3428570000000022
        },
        {
          "name": "F4",
          "midi": 65,
          "time": 47.657122999999984,
          "velocity": 0.5511811023622047,
          "duration": 0.3428570000000022
        },
        {
          "name": "D4",
          "midi": 62,
          "time": 47.657122999999984,
          "velocity": 0.15748031496062992,
          "duration": 0.3428570000000022
        },
        {
          "name": "A#3",
          "midi": 58,
          "time": 47.99997999999999,
          "velocity": 0.5511811023622047,
          "duration": 0.5142854999999997
        },
        {
          "name": "G3",
          "midi": 55,
          "time": 47.99997999999999,
          "velocity": 0.15748031496062992,
          "duration": 0.5142854999999997
        },
        {
          "name": "G4",
          "midi": 67,
          "time": 48.514265499999986,
          "velocity": 0.5511811023622047,
          "duration": 0.4285712499999974
        },
        {
          "name": "D#4",
          "midi": 63,
          "time": 48.514265499999986,
          "velocity": 0.15748031496062992,
          "duration": 0.4285712499999974
        },
        {
          "name": "G4",
          "midi": 67,
          "time": 49.028550999999986,
          "velocity": 0.5511811023622047,
          "duration": 0.8571425000000019
        },
        {
          "name": "D#4",
          "midi": 63,
          "time": 49.028550999999986,
          "velocity": 0.15748031496062992,
          "duration": 0.8571425000000019
        },
        {
          "name": "G4",
          "midi": 67,
          "time": 50.39997899999999,
          "velocity": 0.5511811023622047,
          "duration": 0.17142849999999754
        },
        {
          "name": "D#4",
          "midi": 63,
          "time": 50.39997899999999,
          "velocity": 0.15748031496062992,
          "duration": 0.17142849999999754
        },
        {
          "name": "G#4",
          "midi": 68,
          "time": 50.571407499999985,
          "velocity": 0.5511811023622047,
          "duration": 0.17142849999999754
        },
        {
          "name": "F4",
          "midi": 65,
          "time": 50.571407499999985,
          "velocity": 0.15748031496062992,
          "duration": 0.17142849999999754
        },
        {
          "name": "A#4",
          "midi": 70,
          "time": 50.74283599999998,
          "velocity": 0.5511811023622047,
          "duration": 0.4285712499999974
        },
        {
          "name": "G4",
          "midi": 67,
          "time": 50.74283599999998,
          "velocity": 0.15748031496062992,
          "duration": 0.4285712499999974
        },
        {
          "name": "G#4",
          "midi": 68,
          "time": 51.25712149999998,
          "velocity": 0.5511811023622047,
          "duration": 0.4285712499999974
        },
        {
          "name": "F4",
          "midi": 65,
          "time": 51.25712149999998,
          "velocity": 0.15748031496062992,
          "duration": 0.4285712499999974
        },
        {
          "name": "G4",
          "midi": 67,
          "time": 51.77140699999998,
          "velocity": 0.5511811023622047,
          "duration": 0.4285712499999974
        },
        {
          "name": "D#4",
          "midi": 63,
          "time": 51.77140699999998,
          "velocity": 0.15748031496062992,
          "duration": 0.4285712499999974
        },
        {
          "name": "F4",
          "midi": 65,
          "time": 52.28569249999998,
          "velocity": 0.5511811023622047,
          "duration": 0.4285712499999974
        },
        {
          "name": "D4",
          "midi": 62,
          "time": 52.28569249999998,
          "velocity": 0.15748031496062992,
          "duration": 0.4285712499999974
        },
        {
          "name": "D#4",
          "midi": 63,
          "time": 52.79997799999998,
          "velocity": 0.5511811023622047,
          "duration": 0.25714274999999986
        },
        {
          "name": "C4",
          "midi": 60,
          "time": 52.79997799999998,
          "velocity": 0.15748031496062992,
          "duration": 0.25714274999999986
        },
        {
          "name": "F4",
          "midi": 65,
          "time": 53.142834999999984,
          "velocity": 0.5511811023622047,
          "duration": 0.17142849999999754
        },
        {
          "name": "D4",
          "midi": 62,
          "time": 53.142834999999984,
          "velocity": 0.15748031496062992,
          "duration": 0.17142849999999754
        },
        {
          "name": "A#3",
          "midi": 58,
          "time": 53.31426349999998,
          "velocity": 0.5511811023622047,
          "duration": 1.1142852500000018
        },
        {
          "name": "G3",
          "midi": 55,
          "time": 53.31426349999998,
          "velocity": 0.15748031496062992,
          "duration": 1.1142852500000018
        },
        {
          "name": "G#3",
          "midi": 56,
          "time": 54.514262999999985,
          "velocity": 0.5511811023622047,
          "duration": 0.17142849999999754
        },
        {
          "name": "F3",
          "midi": 53,
          "time": 54.514262999999985,
          "velocity": 0.15748031496062992,
          "duration": 0.17142849999999754
        },
        {
          "name": "A#3",
          "midi": 58,
          "time": 54.68569149999998,
          "velocity": 0.5511811023622047,
          "duration": 0.9428567499999971
        },
        {
          "name": "G3",
          "midi": 55,
          "time": 54.68569149999998,
          "velocity": 0.15748031496062992,
          "duration": 0.9428567499999971
        },
        {
          "name": "D#4",
          "midi": 63,
          "time": 55.88569099999998,
          "velocity": 0.5511811023622047,
          "duration": 0.17142849999999754
        },
        {
          "name": "C4",
          "midi": 60,
          "time": 55.88569099999998,
          "velocity": 0.15748031496062992,
          "duration": 0.17142849999999754
        },
        {
          "name": "F4",
          "midi": 65,
          "time": 56.05711949999998,
          "velocity": 0.5511811023622047,
          "duration": 0.17142849999999754
        },
        {
          "name": "D4",
          "midi": 62,
          "time": 56.05711949999998,
          "velocity": 0.15748031496062992,
          "duration": 0.17142849999999754
        },
        {
          "name": "G4",
          "midi": 67,
          "time": 56.228547999999975,
          "velocity": 0.5511811023622047,
          "duration": 0.9428567499999971
        },
        {
          "name": "D#4",
          "midi": 63,
          "time": 56.228547999999975,
          "velocity": 0.15748031496062992,
          "duration": 0.9428567499999971
        },
        {
          "name": "F4",
          "midi": 65,
          "time": 57.257118999999975,
          "velocity": 0.5511811023622047,
          "duration": 0.17142849999999754
        },
        {
          "name": "D4",
          "midi": 62,
          "time": 57.257118999999975,
          "velocity": 0.15748031496062992,
          "duration": 0.17142849999999754
        },
        {
          "name": "D#4",
          "midi": 63,
          "time": 57.42854749999997,
          "velocity": 0.5511811023622047,
          "duration": 0.6857139999999973
        },
        {
          "name": "C4",
          "midi": 60,
          "time": 57.42854749999997,
          "velocity": 0.15748031496062992,
          "duration": 0.6857139999999973
        },
        {
          "name": "D#4",
          "midi": 63,
          "time": 58.28568999999997,
          "velocity": 0.5511811023622047,
          "duration": 0.3428570000000022
        },
        {
          "name": "C4",
          "midi": 60,
          "time": 58.28568999999997,
          "velocity": 0.15748031496062992,
          "duration": 0.3428570000000022
        },
        {
          "name": "F4",
          "midi": 65,
          "time": 58.62854699999997,
          "velocity": 0.5511811023622047,
          "duration": 0.3428570000000022
        },
        {
          "name": "D4",
          "midi": 62,
          "time": 58.62854699999997,
          "velocity": 0.15748031496062992,
          "duration": 0.3428570000000022
        },
        {
          "name": "A#4",
          "midi": 70,
          "time": 58.97140399999997,
          "velocity": 0.5511811023622047,
          "duration": 0.4285712499999974
        },
        {
          "name": "G4",
          "midi": 67,
          "time": 58.97140399999997,
          "velocity": 0.15748031496062992,
          "duration": 0.4285712499999974
        },
        {
          "name": "A#4",
          "midi": 70,
          "time": 59.48568949999997,
          "velocity": 0.5511811023622047,
          "duration": 0.4285712499999974
        },
        {
          "name": "G4",
          "midi": 67,
          "time": 59.48568949999997,
          "velocity": 0.15748031496062992,
          "duration": 0.4285712499999974
        },
        {
          "name": "D4",
          "midi": 62,
          "time": 59.99997499999997,
          "velocity": 0.5511811023622047,
          "duration": 0.17142849999999754
        },
        {
          "name": "A#3",
          "midi": 58,
          "time": 59.99997499999997,
          "velocity": 0.15748031496062992,
          "duration": 0.17142849999999754
        },
        {
          "name": "D#4",
          "midi": 63,
          "time": 60.17140349999997,
          "velocity": 0.5511811023622047,
          "duration": 0.599999750000002
        },
        {
          "name": "C4",
          "midi": 60,
          "time": 60.17140349999997,
          "velocity": 0.15748031496062992,
          "duration": 0.599999750000002
        },
        {
          "name": "A#4",
          "midi": 70,
          "time": 66.17140099999997,
          "velocity": 0.7874015748031497,
          "duration": 0.17142850000000465
        },
        {
          "name": "G#4",
          "midi": 68,
          "time": 66.34282949999998,
          "velocity": 0.7874015748031497,
          "duration": 0.17142850000000465
        },
        {
          "name": "A#4",
          "midi": 70,
          "time": 66.51425799999998,
          "velocity": 0.7874015748031497,
          "duration": 0.17142850000000465
        },
        {
          "name": "B4",
          "midi": 71,
          "time": 66.68568649999999,
          "velocity": 0.7874015748031497,
          "duration": 0.17142850000000465
        },
        {
          "name": "C#5",
          "midi": 73,
          "time": 66.857115,
          "velocity": 0.7874015748031497,
          "duration": 0.3428569999999951
        },
        {
          "name": "A#4",
          "midi": 70,
          "time": 67.3714005,
          "velocity": 0.7874015748031497,
          "duration": 0.17142850000000465
        },
        {
          "name": "B4",
          "midi": 71,
          "time": 67.542829,
          "velocity": 0.7874015748031497,
          "duration": 0.17142850000000465
        },
        {
          "name": "C#5",
          "midi": 73,
          "time": 67.7142575,
          "velocity": 0.7874015748031497,
          "duration": 0.25714274999999986
        },
        {
          "name": "A#4",
          "midi": 70,
          "time": 68.0571145,
          "velocity": 0.7874015748031497,
          "duration": 0.17142850000000465
        },
        {
          "name": "B4",
          "midi": 71,
          "time": 68.228543,
          "velocity": 0.7874015748031497,
          "duration": 0.17142850000000465
        },
        {
          "name": "C#5",
          "midi": 73,
          "time": 68.3999715,
          "velocity": 0.7874015748031497,
          "duration": 0.25714274999999986
        },
        {
          "name": "F#5",
          "midi": 78,
          "time": 68.7428285,
          "velocity": 0.7874015748031497,
          "duration": 0.25714274999999986
        },
        {
          "name": "C#5",
          "midi": 73,
          "time": 69.0856855,
          "velocity": 0.7874015748031497,
          "duration": 0.25714274999999986
        },
        {
          "name": "C#5",
          "midi": 73,
          "time": 69.42854249999999,
          "velocity": 0.7874015748031497,
          "duration": 0.5142854999999997
        },
        {
          "name": "A#4",
          "midi": 70,
          "time": 70.1142565,
          "velocity": 0.7874015748031497,
          "duration": 0.17142850000000465
        },
        {
          "name": "B4",
          "midi": 71,
          "time": 70.285685,
          "velocity": 0.7874015748031497,
          "duration": 0.17142850000000465
        },
        {
          "name": "C#5",
          "midi": 73,
          "time": 70.4571135,
          "velocity": 0.7874015748031497,
          "duration": 0.25714274999999986
        },
        {
          "name": "B4",
          "midi": 71,
          "time": 70.7999705,
          "velocity": 0.7874015748031497,
          "duration": 0.17142850000000465
        },
        {
          "name": "C#5",
          "midi": 73,
          "time": 70.971399,
          "velocity": 0.7874015748031497,
          "duration": 0.17142850000000465
        },
        {
          "name": "B4",
          "midi": 71,
          "time": 71.14282750000001,
          "velocity": 0.7874015748031497,
          "duration": 0.17142850000000465
        },
        {
          "name": "A#4",
          "midi": 70,
          "time": 71.31425600000001,
          "velocity": 0.7874015748031497,
          "duration": 0.17142850000000465
        },
        {
          "name": "B4",
          "midi": 71,
          "time": 71.48568450000002,
          "velocity": 0.7874015748031497,
          "duration": 0.17142850000000465
        },
        {
          "name": "G#4",
          "midi": 68,
          "time": 71.82854150000003,
          "velocity": 0.7874015748031497,
          "duration": 0.17142850000000465
        },
        {
          "name": "A#4",
          "midi": 70,
          "time": 71.99997000000003,
          "velocity": 0.7874015748031497,
          "duration": 0.17142850000000465
        },
        {
          "name": "B4",
          "midi": 71,
          "time": 72.17139850000004,
          "velocity": 0.7874015748031497,
          "duration": 0.17142850000000465
        },
        {
          "name": "C#5",
          "midi": 73,
          "time": 72.34282700000004,
          "velocity": 0.7874015748031497,
          "duration": 0.3428569999999951
        },
        {
          "name": "A#4",
          "midi": 70,
          "time": 72.85711250000004,
          "velocity": 0.7874015748031497,
          "duration": 0.17142850000000465
        },
        {
          "name": "B4",
          "midi": 71,
          "time": 73.02854100000005,
          "velocity": 0.7874015748031497,
          "duration": 0.17142850000000465
        },
        {
          "name": "C#5",
          "midi": 73,
          "time": 73.19996950000005,
          "velocity": 0.7874015748031497,
          "duration": 0.25714274999999986
        },
        {
          "name": "A#4",
          "midi": 70,
          "time": 73.54282650000005,
          "velocity": 0.7874015748031497,
          "duration": 0.17142850000000465
        },
        {
          "name": "B4",
          "midi": 71,
          "time": 73.71425500000005,
          "velocity": 0.7874015748031497,
          "duration": 0.17142850000000465
        },
        {
          "name": "C#5",
          "midi": 73,
          "time": 73.88568350000006,
          "velocity": 0.7874015748031497,
          "duration": 0.25714274999999986
        },
        {
          "name": "F#5",
          "midi": 78,
          "time": 74.22854050000005,
          "velocity": 0.7874015748031497,
          "duration": 0.25714274999999986
        },
        {
          "name": "C#5",
          "midi": 73,
          "time": 74.57139750000005,
          "velocity": 0.7874015748031497,
          "duration": 0.25714274999999986
        },
        {
          "name": "A#4",
          "midi": 70,
          "time": 74.91425450000004,
          "velocity": 0.7874015748031497,
          "duration": 1.0285709999999995
        },
        {
          "name": "A#4",
          "midi": 70,
          "time": 75.94282550000004,
          "velocity": 0.7874015748031497,
          "duration": 0.17142850000000465
        },
        {
          "name": "C#5",
          "midi": 73,
          "time": 76.11425400000005,
          "velocity": 0.7874015748031497,
          "duration": 0.17142850000000465
        },
        {
          "name": "D#5",
          "midi": 75,
          "time": 76.28568250000005,
          "velocity": 0.7874015748031497,
          "duration": 0.7714282499999996
        },
        {
          "name": "A#4",
          "midi": 70,
          "time": 77.14282500000004,
          "velocity": 0.7874015748031497,
          "duration": 0.17142850000000465
        },
        {
          "name": "G#4",
          "midi": 68,
          "time": 77.31425350000005,
          "velocity": 0.7874015748031497,
          "duration": 0.17142850000000465
        },
        {
          "name": "A#4",
          "midi": 70,
          "time": 77.48568200000005,
          "velocity": 0.7874015748031497,
          "duration": 0.17142850000000465
        },
        {
          "name": "B4",
          "midi": 71,
          "time": 77.65711050000006,
          "velocity": 0.7874015748031497,
          "duration": 0.17142850000000465
        },
        {
          "name": "C#5",
          "midi": 73,
          "time": 77.82853900000006,
          "velocity": 0.7874015748031497,
          "duration": 0.3428569999999951
        },
        {
          "name": "A#4",
          "midi": 70,
          "time": 78.34282450000006,
          "velocity": 0.7874015748031497,
          "duration": 0.17142850000000465
        },
        {
          "name": "B4",
          "midi": 71,
          "time": 78.51425300000007,
          "velocity": 0.7874015748031497,
          "duration": 0.17142850000000465
        },
        {
          "name": "C#5",
          "midi": 73,
          "time": 78.68568150000007,
          "velocity": 0.7874015748031497,
          "duration": 0.25714274999999986
        },
        {
          "name": "A#4",
          "midi": 70,
          "time": 79.02853850000007,
          "velocity": 0.7874015748031497,
          "duration": 0.17142850000000465
        },
        {
          "name": "B4",
          "midi": 71,
          "time": 79.19996700000007,
          "velocity": 0.7874015748031497,
          "duration": 0.17142850000000465
        },
        {
          "name": "C#5",
          "midi": 73,
          "time": 79.37139550000008,
          "velocity": 0.7874015748031497,
          "duration": 0.25714274999999986
        },
        {
          "name": "F#5",
          "midi": 78,
          "time": 79.71425250000007,
          "velocity": 0.7874015748031497,
          "duration": 0.17142850000000465
        },
        {
          "name": "C#5",
          "midi": 73,
          "time": 80.05710950000007,
          "velocity": 0.7874015748031497,
          "duration": 0.17142850000000465
        },
        {
          "name": "C#5",
          "midi": 73,
          "time": 80.39996650000003,
          "velocity": 0.7874015748031497,
          "duration": 0.5142854999999997
        },
        {
          "name": "A#4",
          "midi": 70,
          "time": 81.08568050000004,
          "velocity": 0.7874015748031497,
          "duration": 0.17142850000000465
        },
        {
          "name": "B4",
          "midi": 71,
          "time": 81.25710900000004,
          "velocity": 0.7874015748031497,
          "duration": 0.17142850000000465
        },
        {
          "name": "C#5",
          "midi": 73,
          "time": 81.42853750000005,
          "velocity": 0.7874015748031497,
          "duration": 0.25714274999999986
        },
        {
          "name": "A#4",
          "midi": 70,
          "time": 81.77139450000004,
          "velocity": 0.7874015748031497,
          "duration": 0.17142850000000465
        },
        {
          "name": "F#5",
          "midi": 78,
          "time": 81.94282300000005,
          "velocity": 0.7874015748031497,
          "duration": 0.17142850000000465
        },
        {
          "name": "D#5",
          "midi": 75,
          "time": 82.11425150000005,
          "velocity": 0.7874015748031497,
          "duration": 0.17142850000000465
        },
        {
          "name": "C#5",
          "midi": 73,
          "time": 82.28568000000006,
          "velocity": 0.7874015748031497,
          "duration": 0.17142850000000465
        },
        {
          "name": "A#4",
          "midi": 70,
          "time": 82.45710850000006,
          "velocity": 0.7874015748031497,
          "duration": 0.25714274999999986
        },
        {
          "name": "G#4",
          "midi": 68,
          "time": 82.79996550000006,
          "velocity": 0.7874015748031497,
          "duration": 0.3428569999999951
        },
        {
          "name": "A#4",
          "midi": 70,
          "time": 83.14282250000005,
          "velocity": 0.7874015748031497,
          "duration": 0.6857140000000044
        },
        {
          "name": "C#5",
          "midi": 73,
          "time": 83.99996500000006,
          "velocity": 0.7874015748031497,
          "duration": 0.25714274999999986
        },
        {
          "name": "C#5",
          "midi": 73,
          "time": 84.34282200000006,
          "velocity": 0.7874015748031497,
          "duration": 0.25714274999999986
        },
        {
          "name": "D#5",
          "midi": 75,
          "time": 84.68567900000005,
          "velocity": 0.7874015748031497,
          "duration": 0.3428569999999951
        },
        {
          "name": "C#5",
          "midi": 73,
          "time": 85.02853600000005,
          "velocity": 0.7874015748031497,
          "duration": 0.17142850000000465
        },
        {
          "name": "B4",
          "midi": 71,
          "time": 85.19996450000005,
          "velocity": 0.7874015748031497,
          "duration": 0.3428569999999951
        },
        {
          "name": "D#5",
          "midi": 75,
          "time": 85.54282150000004,
          "velocity": 0.7874015748031497,
          "duration": 0.25714274999999986
        },
        {
          "name": "D#5",
          "midi": 75,
          "time": 85.88567850000004,
          "velocity": 0.7874015748031497,
          "duration": 1.0285709999999995
        }
      ],
      "controlChanges": {
        "7": [
          {
            "number": 7,
            "time": 0.342857,
            "value": 0.7874015748031497
          }
        ],
        "10": [
          {
            "number": 10,
            "time": 0.342857,
            "value": 0
          }
        ],
        "11": [
          {
            "number": 11,
            "time": 79.88568100000008,
            "value": 0.6220472440944882
          },
          {
            "number": 11,
            "time": 79.88746671354174,
            "value": 0.6456692913385826
          },
          {
            "number": 11,
            "time": 79.89460956770841,
            "value": 0.6535433070866141
          },
          {
            "number": 11,
            "time": 79.89639528125008,
            "value": 0.6456692913385826
          },
          {
            "number": 11,
            "time": 80.04818093229174,
            "value": 0.9921259842519685
          },
          {
            "number": 11,
            "time": 80.05175235937507,
            "value": 0.984251968503937
          },
          {
            "number": 11,
            "time": 80.05353807291674,
            "value": 0.984251968503937
          },
          {
            "number": 11,
            "time": 80.0553237864584,
            "value": 0.9763779527559056
          },
          {
            "number": 11,
            "time": 80.05710950000007,
            "value": 0.984251968503937
          },
          {
            "number": 11,
            "time": 80.23389514062507,
            "value": 0.7637795275590551
          },
          {
            "number": 11,
            "time": 80.23568085416673,
            "value": 0.7559055118110236
          },
          {
            "number": 11,
            "time": 80.2374665677084,
            "value": 0.6299212598425197
          },
          {
            "number": 11,
            "time": 80.23925228125006,
            "value": 0.5196850393700787
          },
          {
            "number": 11,
            "time": 80.24103799479172,
            "value": 0.6299212598425197
          },
          {
            "number": 11,
            "time": 80.26068084375005,
            "value": 0.6299212598425197
          },
          {
            "number": 11,
            "time": 80.38746650520838,
            "value": 0.7637795275590551
          },
          {
            "number": 11,
            "time": 80.38925221875004,
            "value": 0.9921259842519685
          },
          {
            "number": 11,
            "time": 80.39282364583337,
            "value": 0.9921259842519685
          },
          {
            "number": 11,
            "time": 80.39460935937504,
            "value": 0.9921259842519685
          }
        ],
        "32": [
          {
            "number": 32,
            "time": 0.342857,
            "value": 0
          }
        ]
      },
      "id": 3,
      "instrumentNumber": 80,
      "instrument": "lead 1 (square)",
      "instrumentFamily": "synth lead",
      "channelNumber": 2,
      "isPercussion": false
    },
    {
      "startTime": 1.371428,
      "duration": 88.45710599999994,
      "length": 396,
      "notes": [
        {
          "name": "A#4",
          "midi": 70,
          "time": 1.371428,
          "velocity": 0.968503937007874,
          "duration": 0.1714285000000002
        },
        {
          "name": "A#3",
          "midi": 58,
          "time": 1.371428,
          "velocity": 0.8582677165354331,
          "duration": 1.371428000000001
        },
        {
          "name": "D5",
          "midi": 74,
          "time": 1.5428565000000003,
          "velocity": 0.937007874015748,
          "duration": 0.17142849999999998
        },
        {
          "name": "A5",
          "midi": 81,
          "time": 1.7142850000000003,
          "velocity": 0.952755905511811,
          "duration": 0.17142849999999998
        },
        {
          "name": "A#4",
          "midi": 70,
          "time": 1.8857135000000003,
          "velocity": 0.8188976377952756,
          "duration": 0.17142849999999998
        },
        {
          "name": "D5",
          "midi": 74,
          "time": 2.0571420000000002,
          "velocity": 0.937007874015748,
          "duration": 0.1714285000000002
        },
        {
          "name": "A5",
          "midi": 81,
          "time": 2.2285705000000005,
          "velocity": 0.952755905511811,
          "duration": 0.1714285000000002
        },
        {
          "name": "A#4",
          "midi": 70,
          "time": 2.3999990000000007,
          "velocity": 0.8976377952755905,
          "duration": 0.1714285000000002
        },
        {
          "name": "D5",
          "midi": 74,
          "time": 2.571427500000001,
          "velocity": 0.8976377952755905,
          "duration": 0.1714285000000002
        },
        {
          "name": "C5",
          "midi": 72,
          "time": 2.742856000000001,
          "velocity": 0.937007874015748,
          "duration": 0.1714285000000002
        },
        {
          "name": "C4",
          "midi": 60,
          "time": 2.742856000000001,
          "velocity": 0.8267716535433071,
          "duration": 1.3714280000000012
        },
        {
          "name": "E5",
          "midi": 76,
          "time": 2.9142845000000013,
          "velocity": 0.9763779527559056,
          "duration": 0.1714285000000002
        },
        {
          "name": "A5",
          "midi": 81,
          "time": 3.0857130000000015,
          "velocity": 0.9133858267716536,
          "duration": 0.1714285000000002
        },
        {
          "name": "C5",
          "midi": 72,
          "time": 3.2571415000000017,
          "velocity": 0.8110236220472441,
          "duration": 0.1714285000000002
        },
        {
          "name": "E5",
          "midi": 76,
          "time": 3.428570000000002,
          "velocity": 0.952755905511811,
          "duration": 0.1714285000000002
        },
        {
          "name": "A5",
          "midi": 81,
          "time": 3.599998500000002,
          "velocity": 0.8740157480314961,
          "duration": 0.1714285000000002
        },
        {
          "name": "C5",
          "midi": 72,
          "time": 3.7714270000000023,
          "velocity": 0.8976377952755905,
          "duration": 0.1714285000000002
        },
        {
          "name": "E5",
          "midi": 76,
          "time": 3.9428555000000025,
          "velocity": 0.8740157480314961,
          "duration": 0.17142849999999976
        },
        {
          "name": "A4",
          "midi": 69,
          "time": 4.114284000000002,
          "velocity": 0.8740157480314961,
          "duration": 0.1714285000000002
        },
        {
          "name": "A3",
          "midi": 57,
          "time": 4.114284000000002,
          "velocity": 0.8503937007874016,
          "duration": 1.3714280000000008
        },
        {
          "name": "C5",
          "midi": 72,
          "time": 4.2857125000000025,
          "velocity": 0.8976377952755905,
          "duration": 0.1714285000000002
        },
        {
          "name": "G5",
          "midi": 79,
          "time": 4.457141000000003,
          "velocity": 1,
          "duration": 0.1714285000000002
        },
        {
          "name": "A4",
          "midi": 69,
          "time": 4.628569500000003,
          "velocity": 0.9133858267716536,
          "duration": 0.1714285000000002
        },
        {
          "name": "C5",
          "midi": 72,
          "time": 4.799998000000003,
          "velocity": 0.8976377952755905,
          "duration": 0.1714285000000002
        },
        {
          "name": "G5",
          "midi": 79,
          "time": 4.971426500000003,
          "velocity": 1,
          "duration": 0.1714285000000002
        },
        {
          "name": "A4",
          "midi": 69,
          "time": 5.1428550000000035,
          "velocity": 0.937007874015748,
          "duration": 0.1714285000000002
        },
        {
          "name": "G5",
          "midi": 79,
          "time": 5.314283500000004,
          "velocity": 1,
          "duration": 0.17142849999999932
        },
        {
          "name": "F5",
          "midi": 77,
          "time": 5.485712000000003,
          "velocity": 0.8267716535433071,
          "duration": 0.17142849999999932
        },
        {
          "name": "D4",
          "midi": 62,
          "time": 5.485712000000003,
          "velocity": 0.7007874015748031,
          "duration": 0.685713999999999
        },
        {
          "name": "E5",
          "midi": 76,
          "time": 5.657140500000002,
          "velocity": 0.952755905511811,
          "duration": 0.1714285000000002
        },
        {
          "name": "D5",
          "midi": 74,
          "time": 5.8285690000000026,
          "velocity": 0.952755905511811,
          "duration": 0.1714285000000002
        },
        {
          "name": "C5",
          "midi": 72,
          "time": 5.999997500000003,
          "velocity": 0.8110236220472441,
          "duration": 0.17142849999999932
        },
        {
          "name": "A4",
          "midi": 69,
          "time": 6.171426000000002,
          "velocity": 0.9763779527559056,
          "duration": 0.17142849999999932
        },
        {
          "name": "A3",
          "midi": 57,
          "time": 6.171426000000002,
          "velocity": 0.8031496062992126,
          "duration": 0.6857139999999999
        },
        {
          "name": "C5",
          "midi": 72,
          "time": 6.342854500000001,
          "velocity": 0.9133858267716536,
          "duration": 0.1714285000000002
        },
        {
          "name": "D5",
          "midi": 74,
          "time": 6.514283000000002,
          "velocity": 0.8976377952755905,
          "duration": 0.1714285000000002
        },
        {
          "name": "E5",
          "midi": 76,
          "time": 6.685711500000002,
          "velocity": 0.8976377952755905,
          "duration": 0.1714285000000002
        },
        {
          "name": "A#4",
          "midi": 70,
          "time": 6.857140000000002,
          "velocity": 0.968503937007874,
          "duration": 0.1714285000000002
        },
        {
          "name": "A#3",
          "midi": 58,
          "time": 6.857140000000002,
          "velocity": 0.889763779527559,
          "duration": 1.3714280000000025
        },
        {
          "name": "D5",
          "midi": 74,
          "time": 7.028568500000002,
          "velocity": 0.9763779527559056,
          "duration": 0.1714285000000002
        },
        {
          "name": "A5",
          "midi": 81,
          "time": 7.199997000000002,
          "velocity": 0.9133858267716536,
          "duration": 0.1714285000000002
        },
        {
          "name": "A#4",
          "midi": 70,
          "time": 7.371425500000003,
          "velocity": 0.968503937007874,
          "duration": 0.1714285000000002
        },
        {
          "name": "D5",
          "midi": 74,
          "time": 7.542854000000003,
          "velocity": 1,
          "duration": 0.1714285000000002
        },
        {
          "name": "A5",
          "midi": 81,
          "time": 7.714282500000003,
          "velocity": 0.8976377952755905,
          "duration": 0.1714285000000002
        },
        {
          "name": "A#4",
          "midi": 70,
          "time": 7.885711000000003,
          "velocity": 0.9448818897637795,
          "duration": 0.1714285000000002
        },
        {
          "name": "D5",
          "midi": 74,
          "time": 8.057139500000003,
          "velocity": 0.9763779527559056,
          "duration": 0.1714285000000011
        },
        {
          "name": "C5",
          "midi": 72,
          "time": 8.228568000000005,
          "velocity": 0.8976377952755905,
          "duration": 0.1714285000000011
        },
        {
          "name": "C4",
          "midi": 60,
          "time": 8.228568000000005,
          "velocity": 0.8740157480314961,
          "duration": 1.371427999999998
        },
        {
          "name": "E5",
          "midi": 76,
          "time": 8.399996500000006,
          "velocity": 0.9133858267716536,
          "duration": 0.17142849999999932
        },
        {
          "name": "A5",
          "midi": 81,
          "time": 8.571425000000005,
          "velocity": 0.8582677165354331,
          "duration": 0.17142849999999932
        },
        {
          "name": "C5",
          "midi": 72,
          "time": 8.742853500000004,
          "velocity": 0.9133858267716536,
          "duration": 0.17142849999999932
        },
        {
          "name": "E5",
          "midi": 76,
          "time": 8.914282000000004,
          "velocity": 0.952755905511811,
          "duration": 0.17142849999999932
        },
        {
          "name": "A5",
          "midi": 81,
          "time": 9.085710500000003,
          "velocity": 0.937007874015748,
          "duration": 0.17142849999999932
        },
        {
          "name": "C5",
          "midi": 72,
          "time": 9.257139000000002,
          "velocity": 0.8582677165354331,
          "duration": 0.17142849999999932
        },
        {
          "name": "E5",
          "midi": 76,
          "time": 9.428567500000002,
          "velocity": 0.952755905511811,
          "duration": 0.1714285000000011
        },
        {
          "name": "D5",
          "midi": 74,
          "time": 9.599996000000003,
          "velocity": 0.8582677165354331,
          "duration": 0.17142849999999932
        },
        {
          "name": "D4",
          "midi": 62,
          "time": 9.599996000000003,
          "velocity": 0.8031496062992126,
          "duration": 1.1999994999999952
        },
        {
          "name": "G5",
          "midi": 79,
          "time": 9.771424500000002,
          "velocity": 0.84251968503937,
          "duration": 0.17142849999999932
        },
        {
          "name": "A5",
          "midi": 81,
          "time": 9.942853000000001,
          "velocity": 0.937007874015748,
          "duration": 0.17142849999999932
        },
        {
          "name": "D5",
          "midi": 74,
          "time": 10.1142815,
          "velocity": 0.7007874015748031,
          "duration": 0.17142849999999932
        },
        {
          "name": "G5",
          "midi": 79,
          "time": 10.28571,
          "velocity": 0.8267716535433071,
          "duration": 0.17142849999999932
        },
        {
          "name": "A5",
          "midi": 81,
          "time": 10.4571385,
          "velocity": 0.952755905511811,
          "duration": 0.17142849999999932
        },
        {
          "name": "D5",
          "midi": 74,
          "time": 10.628566999999999,
          "velocity": 0.7874015748031497,
          "duration": 0.17142849999999932
        },
        {
          "name": "D3",
          "midi": 50,
          "time": 10.799995499999998,
          "velocity": 0.7401574803149606,
          "duration": 0.8571425000000001
        },
        {
          "name": "D2",
          "midi": 38,
          "time": 10.799995499999998,
          "velocity": 0.8740157480314961,
          "duration": 0.8571425000000001
        },
        {
          "name": "A4",
          "midi": 69,
          "time": 10.799995499999998,
          "velocity": 0.8740157480314961,
          "duration": 0.8571425000000001
        },
        {
          "name": "D5",
          "midi": 74,
          "time": 10.799995499999998,
          "velocity": 0.8503937007874016,
          "duration": 0.8571425000000001
        },
        {
          "name": "F#5",
          "midi": 78,
          "time": 10.799995499999998,
          "velocity": 0.889763779527559,
          "duration": 0.8571425000000001
        },
        {
          "name": "F#4",
          "midi": 66,
          "time": 11.999994999999998,
          "velocity": 0.8582677165354331,
          "duration": 0.17142849999999932
        },
        {
          "name": "B3",
          "midi": 59,
          "time": 11.999994999999998,
          "velocity": 0.7007874015748031,
          "duration": 0.17142849999999932
        },
        {
          "name": "D#4",
          "midi": 63,
          "time": 11.999994999999998,
          "velocity": 0.8582677165354331,
          "duration": 0.17142849999999932
        },
        {
          "name": "D#4",
          "midi": 63,
          "time": 12.342851999999997,
          "velocity": 0.8031496062992126,
          "duration": 0.3428570000000004
        },
        {
          "name": "F#4",
          "midi": 66,
          "time": 12.342851999999997,
          "velocity": 0.8267716535433071,
          "duration": 0.3428570000000004
        },
        {
          "name": "B3",
          "midi": 59,
          "time": 12.342851999999997,
          "velocity": 0.7244094488188977,
          "duration": 0.3428570000000004
        },
        {
          "name": "F#4",
          "midi": 66,
          "time": 12.857137499999997,
          "velocity": 0.8582677165354331,
          "duration": 0.08571425000000055
        },
        {
          "name": "D#4",
          "midi": 63,
          "time": 12.857137499999997,
          "velocity": 0.8267716535433071,
          "duration": 0.08571425000000055
        },
        {
          "name": "B3",
          "midi": 59,
          "time": 12.857137499999997,
          "velocity": 0.7401574803149606,
          "duration": 0.08571425000000055
        },
        {
          "name": "C#4",
          "midi": 61,
          "time": 13.199994499999997,
          "velocity": 0.7795275590551181,
          "duration": 0.17142849999999932
        },
        {
          "name": "F4",
          "midi": 65,
          "time": 13.199994499999997,
          "velocity": 0.8031496062992126,
          "duration": 0.17142849999999932
        },
        {
          "name": "G#3",
          "midi": 56,
          "time": 13.199994499999997,
          "velocity": 0.7086614173228346,
          "duration": 0.17142849999999932
        },
        {
          "name": "F5",
          "midi": 77,
          "time": 13.542851499999996,
          "velocity": 0.8503937007874016,
          "duration": 0.17142849999999932
        },
        {
          "name": "C#5",
          "midi": 73,
          "time": 13.542851499999996,
          "velocity": 0.7086614173228346,
          "duration": 0.17142849999999932
        },
        {
          "name": "G#5",
          "midi": 80,
          "time": 13.542851499999996,
          "velocity": 0.7322834645669292,
          "duration": 0.17142849999999932
        },
        {
          "name": "F4",
          "midi": 65,
          "time": 13.885708499999994,
          "velocity": 0.8740157480314961,
          "duration": 0.17142849999999932
        },
        {
          "name": "C#4",
          "midi": 61,
          "time": 13.885708499999994,
          "velocity": 0.6456692913385826,
          "duration": 0.17142849999999932
        },
        {
          "name": "G#4",
          "midi": 68,
          "time": 13.885708499999994,
          "velocity": 0.8267716535433071,
          "duration": 0.17142849999999932
        },
        {
          "name": "F5",
          "midi": 77,
          "time": 14.228565499999993,
          "velocity": 0.7401574803149606,
          "duration": 0.3428570000000004
        },
        {
          "name": "C#5",
          "midi": 73,
          "time": 14.228565499999993,
          "velocity": 0.7322834645669292,
          "duration": 0.3428570000000004
        },
        {
          "name": "G#5",
          "midi": 80,
          "time": 14.228565499999993,
          "velocity": 0.7322834645669292,
          "duration": 0.3428570000000004
        },
        {
          "name": "F4",
          "midi": 65,
          "time": 14.742850999999993,
          "velocity": 0.9212598425196851,
          "duration": 0.17142849999999932
        },
        {
          "name": "C#4",
          "midi": 61,
          "time": 14.742850999999993,
          "velocity": 0.7322834645669292,
          "duration": 0.17142849999999932
        },
        {
          "name": "G#4",
          "midi": 68,
          "time": 14.742850999999993,
          "velocity": 0.8582677165354331,
          "duration": 0.17142849999999932
        },
        {
          "name": "F4",
          "midi": 65,
          "time": 15.085707999999991,
          "velocity": 0.8976377952755905,
          "duration": 0.3428570000000004
        },
        {
          "name": "C#4",
          "midi": 61,
          "time": 15.085707999999991,
          "velocity": 0.7795275590551181,
          "duration": 0.3428570000000004
        },
        {
          "name": "G#4",
          "midi": 68,
          "time": 15.085707999999991,
          "velocity": 0.8818897637795275,
          "duration": 0.3428570000000004
        },
        {
          "name": "F4",
          "midi": 65,
          "time": 15.599993499999991,
          "velocity": 0.7244094488188977,
          "duration": 0.17142849999999932
        },
        {
          "name": "G#4",
          "midi": 68,
          "time": 15.599993499999991,
          "velocity": 0.6692913385826772,
          "duration": 0.17142849999999932
        },
        {
          "name": "C#4",
          "midi": 61,
          "time": 15.599993499999991,
          "velocity": 0.6850393700787402,
          "duration": 0.17142849999999932
        },
        {
          "name": "A#3",
          "midi": 58,
          "time": 15.94285049999999,
          "velocity": 0.8267716535433071,
          "duration": 1.1999994999999988
        },
        {
          "name": "D#4",
          "midi": 63,
          "time": 15.94285049999999,
          "velocity": 0.8267716535433071,
          "duration": 1.1999994999999988
        },
        {
          "name": "F#4",
          "midi": 66,
          "time": 15.94285049999999,
          "velocity": 0.9133858267716536,
          "duration": 1.1999994999999988
        },
        {
          "name": "D#4",
          "midi": 63,
          "time": 17.485706999999987,
          "velocity": 0.8582677165354331,
          "duration": 0.1714285000000011
        },
        {
          "name": "F#4",
          "midi": 66,
          "time": 17.485706999999987,
          "velocity": 0.8031496062992126,
          "duration": 0.1714285000000011
        },
        {
          "name": "A#3",
          "midi": 58,
          "time": 17.485706999999987,
          "velocity": 0.7322834645669292,
          "duration": 0.1714285000000011
        },
        {
          "name": "D#4",
          "midi": 63,
          "time": 17.82856399999999,
          "velocity": 0.8582677165354331,
          "duration": 0.34285699999999864
        },
        {
          "name": "A#3",
          "midi": 58,
          "time": 17.82856399999999,
          "velocity": 0.8031496062992126,
          "duration": 0.34285699999999864
        },
        {
          "name": "F#4",
          "midi": 66,
          "time": 17.82856399999999,
          "velocity": 0.8582677165354331,
          "duration": 0.34285699999999864
        },
        {
          "name": "D#4",
          "midi": 63,
          "time": 18.34284949999999,
          "velocity": 0.7795275590551181,
          "duration": 0.1714285000000011
        },
        {
          "name": "A#3",
          "midi": 58,
          "time": 18.34284949999999,
          "velocity": 0.7559055118110236,
          "duration": 0.1714285000000011
        },
        {
          "name": "F#4",
          "midi": 66,
          "time": 18.34284949999999,
          "velocity": 0.8031496062992126,
          "duration": 0.1714285000000011
        },
        {
          "name": "B3",
          "midi": 59,
          "time": 18.68570649999999,
          "velocity": 0.9212598425196851,
          "duration": 0.1714285000000011
        },
        {
          "name": "D#4",
          "midi": 63,
          "time": 18.68570649999999,
          "velocity": 0.8582677165354331,
          "duration": 0.1714285000000011
        },
        {
          "name": "F#4",
          "midi": 66,
          "time": 18.68570649999999,
          "velocity": 0.8582677165354331,
          "duration": 0.1714285000000011
        },
        {
          "name": "B4",
          "midi": 71,
          "time": 19.028563499999994,
          "velocity": 0.8976377952755905,
          "duration": 0.1714285000000011
        },
        {
          "name": "D#4",
          "midi": 63,
          "time": 19.028563499999994,
          "velocity": 0.8582677165354331,
          "duration": 0.1714285000000011
        },
        {
          "name": "F#4",
          "midi": 66,
          "time": 19.028563499999994,
          "velocity": 0.8818897637795275,
          "duration": 0.1714285000000011
        },
        {
          "name": "D#5",
          "midi": 75,
          "time": 19.371420499999996,
          "velocity": 0.8818897637795275,
          "duration": 0.5142854999999997
        },
        {
          "name": "B4",
          "midi": 71,
          "time": 19.371420499999996,
          "velocity": 0.8740157480314961,
          "duration": 0.5142854999999997
        },
        {
          "name": "F#5",
          "midi": 78,
          "time": 19.371420499999996,
          "velocity": 0.8818897637795275,
          "duration": 0.5142854999999997
        },
        {
          "name": "C#2",
          "midi": 37,
          "time": 20.228562999999994,
          "velocity": 0.7559055118110236,
          "duration": 1.1999995000000006
        },
        {
          "name": "C#3",
          "midi": 49,
          "time": 20.228562999999994,
          "velocity": 0.6850393700787402,
          "duration": 1.1999995000000006
        },
        {
          "name": "D#4",
          "midi": 63,
          "time": 22.971418999999994,
          "velocity": 0.8818897637795275,
          "duration": 1.1999995000000006
        },
        {
          "name": "C4",
          "midi": 60,
          "time": 22.971418999999994,
          "velocity": 0.8740157480314961,
          "duration": 1.1999995000000006
        },
        {
          "name": "G#3",
          "midi": 56,
          "time": 22.971418999999994,
          "velocity": 0.7795275590551181,
          "duration": 1.1999995000000006
        },
        {
          "name": "G#2",
          "midi": 44,
          "time": 22.971418999999994,
          "velocity": 0.6692913385826772,
          "duration": 2.571427500000002
        },
        {
          "name": "G#1",
          "midi": 32,
          "time": 22.971418999999994,
          "velocity": 0.7244094488188977,
          "duration": 2.571427500000002
        },
        {
          "name": "G#3",
          "midi": 56,
          "time": 24.342846999999995,
          "velocity": 0.7559055118110236,
          "duration": 0.34285699999999864
        },
        {
          "name": "C4",
          "midi": 60,
          "time": 24.342846999999995,
          "velocity": 0.8740157480314961,
          "duration": 0.34285699999999864
        },
        {
          "name": "D#4",
          "midi": 63,
          "time": 24.857132499999995,
          "velocity": 0.7874015748031497,
          "duration": 0.6857140000000008
        },
        {
          "name": "C4",
          "midi": 60,
          "time": 24.857132499999995,
          "velocity": 0.8503937007874016,
          "duration": 0.6857140000000008
        },
        {
          "name": "G4",
          "midi": 67,
          "time": 24.857132499999995,
          "velocity": 0.8031496062992126,
          "duration": 0.6857140000000008
        },
        {
          "name": "D4",
          "midi": 62,
          "time": 25.714274999999997,
          "velocity": 0.8031496062992126,
          "duration": 1.1999995000000006
        },
        {
          "name": "F4",
          "midi": 65,
          "time": 25.714274999999997,
          "velocity": 0.8976377952755905,
          "duration": 1.1999995000000006
        },
        {
          "name": "A#4",
          "midi": 70,
          "time": 25.714274999999997,
          "velocity": 0.8818897637795275,
          "duration": 1.1999995000000006
        },
        {
          "name": "A#2",
          "midi": 46,
          "time": 25.714274999999997,
          "velocity": 0.6692913385826772,
          "duration": 2.571427500000002
        },
        {
          "name": "A#1",
          "midi": 34,
          "time": 25.714274999999997,
          "velocity": 0.6456692913385826,
          "duration": 2.571427500000002
        },
        {
          "name": "F4",
          "midi": 65,
          "time": 27.085703,
          "velocity": 0.8503937007874016,
          "duration": 0.34285699999999864
        },
        {
          "name": "A#4",
          "midi": 70,
          "time": 27.085703,
          "velocity": 0.8582677165354331,
          "duration": 0.34285699999999864
        },
        {
          "name": "D#4",
          "midi": 63,
          "time": 27.085703,
          "velocity": 0.7795275590551181,
          "duration": 0.34285699999999864
        },
        {
          "name": "D4",
          "midi": 62,
          "time": 27.5999885,
          "velocity": 0.7874015748031497,
          "duration": 0.6857140000000008
        },
        {
          "name": "F4",
          "midi": 65,
          "time": 27.5999885,
          "velocity": 0.8031496062992126,
          "duration": 0.6857140000000008
        },
        {
          "name": "A#4",
          "midi": 70,
          "time": 27.5999885,
          "velocity": 0.7559055118110236,
          "duration": 0.6857140000000008
        },
        {
          "name": "G3",
          "midi": 55,
          "time": 28.457131,
          "velocity": 0.7401574803149606,
          "duration": 1.1999995000000006
        },
        {
          "name": "A#3",
          "midi": 58,
          "time": 28.457131,
          "velocity": 0.8582677165354331,
          "duration": 1.1999995000000006
        },
        {
          "name": "D4",
          "midi": 62,
          "time": 28.457131,
          "velocity": 0.8031496062992126,
          "duration": 1.1999995000000006
        },
        {
          "name": "G1",
          "midi": 31,
          "time": 28.457131,
          "velocity": 0.7637795275590551,
          "duration": 2.571427500000002
        },
        {
          "name": "G2",
          "midi": 43,
          "time": 28.457131,
          "velocity": 0.6929133858267716,
          "duration": 2.571427500000002
        },
        {
          "name": "F4",
          "midi": 65,
          "time": 29.828559000000002,
          "velocity": 0.6850393700787402,
          "duration": 0.34285699999999864
        },
        {
          "name": "A#3",
          "midi": 58,
          "time": 29.828559000000002,
          "velocity": 0.7795275590551181,
          "duration": 0.34285699999999864
        },
        {
          "name": "D4",
          "midi": 62,
          "time": 29.828559000000002,
          "velocity": 0.8031496062992126,
          "duration": 0.34285699999999864
        },
        {
          "name": "F4",
          "midi": 65,
          "time": 30.3428445,
          "velocity": 0.8740157480314961,
          "duration": 0.6857140000000008
        },
        {
          "name": "A#4",
          "midi": 70,
          "time": 30.3428445,
          "velocity": 0.8818897637795275,
          "duration": 0.6857140000000008
        },
        {
          "name": "D4",
          "midi": 62,
          "time": 30.3428445,
          "velocity": 0.8503937007874016,
          "duration": 0.6857140000000008
        },
        {
          "name": "C3",
          "midi": 48,
          "time": 31.199987000000004,
          "velocity": 0.5669291338582677,
          "duration": 1.1999995000000006
        },
        {
          "name": "C2",
          "midi": 36,
          "time": 31.199987000000004,
          "velocity": 0.5275590551181102,
          "duration": 1.1999995000000006
        },
        {
          "name": "C4",
          "midi": 60,
          "time": 31.199987000000004,
          "velocity": 0.8740157480314961,
          "duration": 1.1999995000000006
        },
        {
          "name": "D#4",
          "midi": 63,
          "time": 31.199987000000004,
          "velocity": 0.8582677165354331,
          "duration": 1.1999995000000006
        },
        {
          "name": "G3",
          "midi": 55,
          "time": 31.199987000000004,
          "velocity": 0.7874015748031497,
          "duration": 1.1999995000000006
        },
        {
          "name": "C3",
          "midi": 48,
          "time": 32.571415,
          "velocity": 0.6299212598425197,
          "duration": 0.5142854999999997
        },
        {
          "name": "D#4",
          "midi": 63,
          "time": 32.571415,
          "velocity": 0.8267716535433071,
          "duration": 0.5142854999999997
        },
        {
          "name": "C4",
          "midi": 60,
          "time": 32.571415,
          "velocity": 0.8267716535433071,
          "duration": 0.5142854999999997
        },
        {
          "name": "C2",
          "midi": 36,
          "time": 32.571415,
          "velocity": 0.5826771653543307,
          "duration": 0.5142854999999997
        },
        {
          "name": "G3",
          "midi": 55,
          "time": 32.571415,
          "velocity": 0.6850393700787402,
          "duration": 0.5142854999999997
        },
        {
          "name": "A#1",
          "midi": 34,
          "time": 33.257129,
          "velocity": 0.5748031496062992,
          "duration": 0.5142854999999997
        },
        {
          "name": "A#2",
          "midi": 46,
          "time": 33.257129,
          "velocity": 0.5511811023622047,
          "duration": 0.5142854999999997
        },
        {
          "name": "A#3",
          "midi": 58,
          "time": 33.257129,
          "velocity": 0.8267716535433071,
          "duration": 0.5142854999999997
        },
        {
          "name": "F3",
          "midi": 53,
          "time": 33.257129,
          "velocity": 0.7244094488188977,
          "duration": 0.5142854999999997
        },
        {
          "name": "D4",
          "midi": 62,
          "time": 33.257129,
          "velocity": 0.8503937007874016,
          "duration": 0.5142854999999997
        },
        {
          "name": "D#3",
          "midi": 51,
          "time": 33.942842999999996,
          "velocity": 0.7795275590551181,
          "duration": 1.199999499999997
        },
        {
          "name": "C4",
          "midi": 60,
          "time": 33.942842999999996,
          "velocity": 0.8976377952755905,
          "duration": 1.199999499999997
        },
        {
          "name": "G#3",
          "midi": 56,
          "time": 33.942842999999996,
          "velocity": 0.9133858267716536,
          "duration": 1.199999499999997
        },
        {
          "name": "G#2",
          "midi": 44,
          "time": 33.942842999999996,
          "velocity": 0.6692913385826772,
          "duration": 2.5714274999999915
        },
        {
          "name": "G#1",
          "midi": 32,
          "time": 33.942842999999996,
          "velocity": 0.7244094488188977,
          "duration": 2.5714274999999915
        },
        {
          "name": "G#3",
          "midi": 56,
          "time": 35.31427099999999,
          "velocity": 0.8031496062992126,
          "duration": 0.3428570000000022
        },
        {
          "name": "C4",
          "midi": 60,
          "time": 35.31427099999999,
          "velocity": 0.8818897637795275,
          "duration": 0.3428570000000022
        },
        {
          "name": "F4",
          "midi": 65,
          "time": 35.31427099999999,
          "velocity": 0.8031496062992126,
          "duration": 0.3428570000000022
        },
        {
          "name": "A#4",
          "midi": 70,
          "time": 35.82855649999999,
          "velocity": 0.8582677165354331,
          "duration": 0.6857139999999973
        },
        {
          "name": "C4",
          "midi": 60,
          "time": 35.82855649999999,
          "velocity": 0.8031496062992126,
          "duration": 0.6857139999999973
        },
        {
          "name": "F4",
          "midi": 65,
          "time": 35.82855649999999,
          "velocity": 0.8503937007874016,
          "duration": 0.6857139999999973
        },
        {
          "name": "D4",
          "midi": 62,
          "time": 36.685698999999985,
          "velocity": 0.8031496062992126,
          "duration": 1.199999499999997
        },
        {
          "name": "F4",
          "midi": 65,
          "time": 36.685698999999985,
          "velocity": 0.8976377952755905,
          "duration": 1.199999499999997
        },
        {
          "name": "A#4",
          "midi": 70,
          "time": 36.685698999999985,
          "velocity": 0.8818897637795275,
          "duration": 1.199999499999997
        },
        {
          "name": "A#2",
          "midi": 46,
          "time": 36.685698999999985,
          "velocity": 0.6692913385826772,
          "duration": 2.5714274999999915
        },
        {
          "name": "A#1",
          "midi": 34,
          "time": 36.685698999999985,
          "velocity": 0.6456692913385826,
          "duration": 2.5714274999999915
        },
        {
          "name": "D#4",
          "midi": 63,
          "time": 38.05712699999998,
          "velocity": 0.8818897637795275,
          "duration": 0.5142854999999997
        },
        {
          "name": "A#3",
          "midi": 58,
          "time": 38.05712699999998,
          "velocity": 0.8818897637795275,
          "duration": 0.5142854999999997
        },
        {
          "name": "F3",
          "midi": 53,
          "time": 38.05712699999998,
          "velocity": 0.7401574803149606,
          "duration": 0.5142854999999997
        },
        {
          "name": "F3",
          "midi": 53,
          "time": 38.57141249999998,
          "velocity": 0.6614173228346457,
          "duration": 0.6857139999999973
        },
        {
          "name": "A#3",
          "midi": 58,
          "time": 38.57141249999998,
          "velocity": 0.8031496062992126,
          "duration": 0.6857139999999973
        },
        {
          "name": "D4",
          "midi": 62,
          "time": 38.57141249999998,
          "velocity": 0.8267716535433071,
          "duration": 0.6857139999999973
        },
        {
          "name": "G3",
          "midi": 55,
          "time": 39.428554999999974,
          "velocity": 0.8031496062992126,
          "duration": 1.199999499999997
        },
        {
          "name": "A#3",
          "midi": 58,
          "time": 39.428554999999974,
          "velocity": 0.8818897637795275,
          "duration": 1.199999499999997
        },
        {
          "name": "D4",
          "midi": 62,
          "time": 39.428554999999974,
          "velocity": 0.7874015748031497,
          "duration": 1.199999499999997
        },
        {
          "name": "G1",
          "midi": 31,
          "time": 39.428554999999974,
          "velocity": 0.7637795275590551,
          "duration": 2.5714274999999915
        },
        {
          "name": "G2",
          "midi": 43,
          "time": 39.428554999999974,
          "velocity": 0.6929133858267716,
          "duration": 2.5714274999999915
        },
        {
          "name": "G4",
          "midi": 67,
          "time": 40.79998299999997,
          "velocity": 0.8267716535433071,
          "duration": 0.5142854999999997
        },
        {
          "name": "F4",
          "midi": 65,
          "time": 40.79998299999997,
          "velocity": 0.8031496062992126,
          "duration": 0.5142854999999997
        },
        {
          "name": "B3",
          "midi": 59,
          "time": 40.79998299999997,
          "velocity": 0.7637795275590551,
          "duration": 0.5142854999999997
        },
        {
          "name": "G#4",
          "midi": 68,
          "time": 41.485696999999966,
          "velocity": 0.9133858267716536,
          "duration": 0.5142854999999997
        },
        {
          "name": "B3",
          "midi": 59,
          "time": 41.485696999999966,
          "velocity": 0.7007874015748031,
          "duration": 0.5142854999999997
        },
        {
          "name": "D4",
          "midi": 62,
          "time": 41.485696999999966,
          "velocity": 0.7244094488188977,
          "duration": 0.5142854999999997
        },
        {
          "name": "C3",
          "midi": 48,
          "time": 42.171410999999964,
          "velocity": 0.5669291338582677,
          "duration": 1.199999499999997
        },
        {
          "name": "C2",
          "midi": 36,
          "time": 42.171410999999964,
          "velocity": 0.5275590551181102,
          "duration": 1.199999499999997
        },
        {
          "name": "G3",
          "midi": 55,
          "time": 42.171410999999964,
          "velocity": 0.8976377952755905,
          "duration": 1.199999499999997
        },
        {
          "name": "A#3",
          "midi": 58,
          "time": 42.171410999999964,
          "velocity": 0.8582677165354331,
          "duration": 1.199999499999997
        },
        {
          "name": "D#3",
          "midi": 51,
          "time": 42.171410999999964,
          "velocity": 0.7559055118110236,
          "duration": 1.199999499999997
        },
        {
          "name": "C2",
          "midi": 36,
          "time": 43.54283899999996,
          "velocity": 0.5826771653543307,
          "duration": 0.5142854999999997
        },
        {
          "name": "C3",
          "midi": 48,
          "time": 43.54283899999996,
          "velocity": 0.6299212598425197,
          "duration": 0.5142854999999997
        },
        {
          "name": "G3",
          "midi": 55,
          "time": 43.54283899999996,
          "velocity": 0.8976377952755905,
          "duration": 0.5142854999999997
        },
        {
          "name": "A#3",
          "midi": 58,
          "time": 43.54283899999996,
          "velocity": 0.9133858267716536,
          "duration": 0.5142854999999997
        },
        {
          "name": "D#3",
          "midi": 51,
          "time": 43.54283899999996,
          "velocity": 0.7795275590551181,
          "duration": 0.5142854999999997
        },
        {
          "name": "A#1",
          "midi": 34,
          "time": 44.228552999999955,
          "velocity": 0.5748031496062992,
          "duration": 0.5142854999999997
        },
        {
          "name": "A#2",
          "midi": 46,
          "time": 44.228552999999955,
          "velocity": 0.5511811023622047,
          "duration": 0.5142854999999997
        },
        {
          "name": "G3",
          "midi": 55,
          "time": 44.228552999999955,
          "velocity": 0.8267716535433071,
          "duration": 0.5142854999999997
        },
        {
          "name": "D#3",
          "midi": 51,
          "time": 44.228552999999955,
          "velocity": 0.6062992125984252,
          "duration": 0.5142854999999997
        },
        {
          "name": "A#3",
          "midi": 58,
          "time": 44.228552999999955,
          "velocity": 0.8267716535433071,
          "duration": 0.5142854999999997
        },
        {
          "name": "G4",
          "midi": 67,
          "time": 44.91426699999995,
          "velocity": 0.8976377952755905,
          "duration": 1.0285709999999995
        },
        {
          "name": "C4",
          "midi": 60,
          "time": 44.91426699999995,
          "velocity": 0.8031496062992126,
          "duration": 1.0285709999999995
        },
        {
          "name": "D#4",
          "midi": 63,
          "time": 44.91426699999995,
          "velocity": 0.9133858267716536,
          "duration": 1.0285709999999995
        },
        {
          "name": "C4",
          "midi": 60,
          "time": 46.11426649999995,
          "velocity": 0.8031496062992126,
          "duration": 0.6857139999999973
        },
        {
          "name": "D#4",
          "midi": 63,
          "time": 46.11426649999995,
          "velocity": 0.9133858267716536,
          "duration": 0.6857139999999973
        },
        {
          "name": "G4",
          "midi": 67,
          "time": 46.11426649999995,
          "velocity": 0.9448818897637795,
          "duration": 0.6857139999999973
        },
        {
          "name": "C4",
          "midi": 60,
          "time": 46.971408999999944,
          "velocity": 0.8031496062992126,
          "duration": 0.3428570000000022
        },
        {
          "name": "D#4",
          "midi": 63,
          "time": 46.971408999999944,
          "velocity": 0.8818897637795275,
          "duration": 0.3428570000000022
        },
        {
          "name": "G4",
          "midi": 67,
          "time": 46.971408999999944,
          "velocity": 0.8740157480314961,
          "duration": 0.3428570000000022
        },
        {
          "name": "D4",
          "midi": 62,
          "time": 47.31426599999995,
          "velocity": 0.7480314960629921,
          "duration": 0.3428570000000022
        },
        {
          "name": "A#3",
          "midi": 58,
          "time": 47.31426599999995,
          "velocity": 0.6299212598425197,
          "duration": 0.3428570000000022
        },
        {
          "name": "F4",
          "midi": 65,
          "time": 47.31426599999995,
          "velocity": 0.7401574803149606,
          "duration": 0.3428570000000022
        },
        {
          "name": "G4",
          "midi": 67,
          "time": 47.65712299999995,
          "velocity": 0.9212598425196851,
          "duration": 0.8571425000000019
        },
        {
          "name": "G#3",
          "midi": 56,
          "time": 47.65712299999995,
          "velocity": 0.8740157480314961,
          "duration": 0.8571425000000019
        },
        {
          "name": "D#4",
          "midi": 63,
          "time": 47.65712299999995,
          "velocity": 0.8818897637795275,
          "duration": 0.8571425000000019
        },
        {
          "name": "D#4",
          "midi": 63,
          "time": 48.68569399999995,
          "velocity": 0.9133858267716536,
          "duration": 0.5142854999999997
        },
        {
          "name": "G4",
          "midi": 67,
          "time": 48.68569399999995,
          "velocity": 0.9212598425196851,
          "duration": 0.5142854999999997
        },
        {
          "name": "G#3",
          "midi": 56,
          "time": 48.68569399999995,
          "velocity": 0.8740157480314961,
          "duration": 0.5142854999999997
        },
        {
          "name": "C4",
          "midi": 60,
          "time": 49.19997949999995,
          "velocity": 0.7874015748031497,
          "duration": 0.5142854999999997
        },
        {
          "name": "G#3",
          "midi": 56,
          "time": 49.19997949999995,
          "velocity": 0.7874015748031497,
          "duration": 0.5142854999999997
        },
        {
          "name": "F4",
          "midi": 65,
          "time": 49.19997949999995,
          "velocity": 0.8503937007874016,
          "duration": 0.5142854999999997
        },
        {
          "name": "D#4",
          "midi": 63,
          "time": 49.71426499999995,
          "velocity": 0.937007874015748,
          "duration": 0.5142854999999997
        },
        {
          "name": "C4",
          "midi": 60,
          "time": 49.71426499999995,
          "velocity": 0.7874015748031497,
          "duration": 0.5142854999999997
        },
        {
          "name": "G#3",
          "midi": 56,
          "time": 49.71426499999995,
          "velocity": 0.7874015748031497,
          "duration": 0.5142854999999997
        },
        {
          "name": "D4",
          "midi": 62,
          "time": 50.399978999999945,
          "velocity": 0.8740157480314961,
          "duration": 1.0285709999999995
        },
        {
          "name": "A#3",
          "midi": 58,
          "time": 50.399978999999945,
          "velocity": 0.7874015748031497,
          "duration": 1.0285709999999995
        },
        {
          "name": "G3",
          "midi": 55,
          "time": 50.399978999999945,
          "velocity": 0.7874015748031497,
          "duration": 1.0285709999999995
        },
        {
          "name": "F4",
          "midi": 65,
          "time": 51.428549999999944,
          "velocity": 0.8503937007874016,
          "duration": 0.5142854999999997
        },
        {
          "name": "D4",
          "midi": 62,
          "time": 51.428549999999944,
          "velocity": 0.7874015748031497,
          "duration": 0.5142854999999997
        },
        {
          "name": "A#3",
          "midi": 58,
          "time": 51.428549999999944,
          "velocity": 0.7874015748031497,
          "duration": 0.5142854999999997
        },
        {
          "name": "A#4",
          "midi": 70,
          "time": 51.942835499999944,
          "velocity": 0.9133858267716536,
          "duration": 0.3428570000000022
        },
        {
          "name": "F4",
          "midi": 65,
          "time": 51.942835499999944,
          "velocity": 0.8976377952755905,
          "duration": 0.3428570000000022
        },
        {
          "name": "D4",
          "midi": 62,
          "time": 51.942835499999944,
          "velocity": 0.8503937007874016,
          "duration": 0.3428570000000022
        },
        {
          "name": "D4",
          "midi": 62,
          "time": 52.457120999999944,
          "velocity": 0.8740157480314961,
          "duration": 0.5142854999999997
        },
        {
          "name": "A#3",
          "midi": 58,
          "time": 52.457120999999944,
          "velocity": 0.7874015748031497,
          "duration": 0.5142854999999997
        },
        {
          "name": "G3",
          "midi": 55,
          "time": 52.457120999999944,
          "velocity": 0.7874015748031497,
          "duration": 0.5142854999999997
        },
        {
          "name": "D#3",
          "midi": 51,
          "time": 53.14283499999994,
          "velocity": 0.8031496062992126,
          "duration": 0.3428570000000022
        },
        {
          "name": "G3",
          "midi": 55,
          "time": 53.14283499999994,
          "velocity": 0.8740157480314961,
          "duration": 0.3428570000000022
        },
        {
          "name": "C4",
          "midi": 60,
          "time": 53.14283499999994,
          "velocity": 0.8976377952755905,
          "duration": 0.3428570000000022
        },
        {
          "name": "G3",
          "midi": 55,
          "time": 53.65712049999994,
          "velocity": 0.8031496062992126,
          "duration": 0.3428570000000022
        },
        {
          "name": "C4",
          "midi": 60,
          "time": 53.65712049999994,
          "velocity": 0.8267716535433071,
          "duration": 0.3428570000000022
        },
        {
          "name": "D#4",
          "midi": 63,
          "time": 53.65712049999994,
          "velocity": 0.7086614173228346,
          "duration": 0.3428570000000022
        },
        {
          "name": "G4",
          "midi": 67,
          "time": 54.17140599999994,
          "velocity": 0.8031496062992126,
          "duration": 0.3428570000000022
        },
        {
          "name": "D#4",
          "midi": 63,
          "time": 54.17140599999994,
          "velocity": 0.8031496062992126,
          "duration": 0.3428570000000022
        },
        {
          "name": "C4",
          "midi": 60,
          "time": 54.17140599999994,
          "velocity": 0.7637795275590551,
          "duration": 0.3428570000000022
        },
        {
          "name": "A#4",
          "midi": 70,
          "time": 54.68569149999994,
          "velocity": 0.9133858267716536,
          "duration": 0.3428570000000022
        },
        {
          "name": "G4",
          "midi": 67,
          "time": 54.68569149999994,
          "velocity": 0.8976377952755905,
          "duration": 0.3428570000000022
        },
        {
          "name": "D#4",
          "midi": 63,
          "time": 54.68569149999994,
          "velocity": 0.7795275590551181,
          "duration": 0.3428570000000022
        },
        {
          "name": "F4",
          "midi": 65,
          "time": 55.19997699999994,
          "velocity": 0.9212598425196851,
          "duration": 0.5142854999999997
        },
        {
          "name": "D#4",
          "midi": 63,
          "time": 55.19997699999994,
          "velocity": 0.8582677165354331,
          "duration": 0.5142854999999997
        },
        {
          "name": "A#4",
          "midi": 70,
          "time": 55.19997699999994,
          "velocity": 0.8582677165354331,
          "duration": 0.5142854999999997
        },
        {
          "name": "A3",
          "midi": 57,
          "time": 55.88569099999994,
          "velocity": 0.8503937007874016,
          "duration": 1.0285709999999995
        },
        {
          "name": "C4",
          "midi": 60,
          "time": 55.88569099999994,
          "velocity": 0.9212598425196851,
          "duration": 1.0285709999999995
        },
        {
          "name": "D#4",
          "midi": 63,
          "time": 55.88569099999994,
          "velocity": 0.9133858267716536,
          "duration": 1.0285709999999995
        },
        {
          "name": "C4",
          "midi": 60,
          "time": 57.085690499999934,
          "velocity": 0.8267716535433071,
          "duration": 1.3714280000000016
        },
        {
          "name": "D#4",
          "midi": 63,
          "time": 57.085690499999934,
          "velocity": 0.8818897637795275,
          "duration": 1.3714280000000016
        },
        {
          "name": "A4",
          "midi": 69,
          "time": 57.085690499999934,
          "velocity": 0.7874015748031497,
          "duration": 1.3714280000000016
        },
        {
          "name": "C4",
          "midi": 60,
          "time": 58.628546999999934,
          "velocity": 0.9448818897637795,
          "duration": 1.0285709999999995
        },
        {
          "name": "D#4",
          "midi": 63,
          "time": 58.628546999999934,
          "velocity": 0.9133858267716536,
          "duration": 1.0285709999999995
        },
        {
          "name": "G#3",
          "midi": 56,
          "time": 58.628546999999934,
          "velocity": 0.8267716535433071,
          "duration": 1.0285709999999995
        },
        {
          "name": "G#3",
          "midi": 56,
          "time": 59.82854649999993,
          "velocity": 0.8267716535433071,
          "duration": 1.3714280000000016
        },
        {
          "name": "C4",
          "midi": 60,
          "time": 59.82854649999993,
          "velocity": 0.9212598425196851,
          "duration": 1.3714280000000016
        },
        {
          "name": "D#4",
          "midi": 63,
          "time": 59.82854649999993,
          "velocity": 0.9133858267716536,
          "duration": 1.3714280000000016
        },
        {
          "name": "C4",
          "midi": 60,
          "time": 61.37140299999993,
          "velocity": 0.6850393700787402,
          "duration": 0.3428570000000022
        },
        {
          "name": "F4",
          "midi": 65,
          "time": 61.37140299999993,
          "velocity": 0.7637795275590551,
          "duration": 0.3428570000000022
        },
        {
          "name": "G#3",
          "midi": 56,
          "time": 61.37140299999993,
          "velocity": 0.7795275590551181,
          "duration": 0.3428570000000022
        },
        {
          "name": "C4",
          "midi": 60,
          "time": 61.88568849999993,
          "velocity": 0.7637795275590551,
          "duration": 0.6857139999999973
        },
        {
          "name": "F4",
          "midi": 65,
          "time": 61.88568849999993,
          "velocity": 0.8031496062992126,
          "duration": 0.6857139999999973
        },
        {
          "name": "G#4",
          "midi": 68,
          "time": 61.88568849999993,
          "velocity": 0.8267716535433071,
          "duration": 0.6857139999999973
        },
        {
          "name": "A#3",
          "midi": 58,
          "time": 62.742830999999924,
          "velocity": 0.7322834645669292,
          "duration": 0.3428570000000022
        },
        {
          "name": "D4",
          "midi": 62,
          "time": 62.742830999999924,
          "velocity": 0.7874015748031497,
          "duration": 0.3428570000000022
        },
        {
          "name": "G4",
          "midi": 67,
          "time": 62.742830999999924,
          "velocity": 0.8267716535433071,
          "duration": 0.3428570000000022
        },
        {
          "name": "A#4",
          "midi": 70,
          "time": 63.257116499999924,
          "velocity": 0.8267716535433071,
          "duration": 0.6857139999999973
        },
        {
          "name": "G4",
          "midi": 67,
          "time": 63.257116499999924,
          "velocity": 0.8740157480314961,
          "duration": 0.6857139999999973
        },
        {
          "name": "D4",
          "midi": 62,
          "time": 63.257116499999924,
          "velocity": 0.8031496062992126,
          "duration": 0.6857139999999973
        },
        {
          "name": "C5",
          "midi": 72,
          "time": 64.11425899999992,
          "velocity": 0.7874015748031497,
          "duration": 0.5142854999999997
        },
        {
          "name": "G#4",
          "midi": 68,
          "time": 64.11425899999992,
          "velocity": 0.8818897637795275,
          "duration": 0.5142854999999997
        },
        {
          "name": "D#4",
          "midi": 63,
          "time": 64.11425899999992,
          "velocity": 0.7322834645669292,
          "duration": 0.5142854999999997
        },
        {
          "name": "C5",
          "midi": 72,
          "time": 64.62854449999992,
          "velocity": 0.8267716535433071,
          "duration": 0.3428569999999951
        },
        {
          "name": "G#4",
          "midi": 68,
          "time": 64.62854449999992,
          "velocity": 0.8267716535433071,
          "duration": 0.3428569999999951
        },
        {
          "name": "D#4",
          "midi": 63,
          "time": 64.62854449999992,
          "velocity": 0.7086614173228346,
          "duration": 0.3428569999999951
        },
        {
          "name": "D#4",
          "midi": 63,
          "time": 65.14282999999992,
          "velocity": 0.6456692913385826,
          "duration": 0.17142850000000465
        },
        {
          "name": "G#4",
          "midi": 68,
          "time": 65.14282999999992,
          "velocity": 0.8582677165354331,
          "duration": 0.17142850000000465
        },
        {
          "name": "C5",
          "midi": 72,
          "time": 65.14282999999992,
          "velocity": 0.8031496062992126,
          "duration": 0.17142850000000465
        },
        {
          "name": "G#4",
          "midi": 68,
          "time": 65.48568699999993,
          "velocity": 0.8818897637795275,
          "duration": 0.6857140000000044
        },
        {
          "name": "F4",
          "midi": 65,
          "time": 65.48568699999993,
          "velocity": 0.8503937007874016,
          "duration": 0.6857140000000044
        },
        {
          "name": "B4",
          "midi": 71,
          "time": 65.48568699999993,
          "velocity": 0.8031496062992126,
          "duration": 0.6857140000000044
        },
        {
          "name": "A#3",
          "midi": 58,
          "time": 66.85711499999994,
          "velocity": 0.49606299212598426,
          "duration": 0.3428569999999951
        },
        {
          "name": "F#4",
          "midi": 66,
          "time": 66.85711499999994,
          "velocity": 0.6456692913385826,
          "duration": 0.3428569999999951
        },
        {
          "name": "D#4",
          "midi": 63,
          "time": 66.85711499999994,
          "velocity": 0.6456692913385826,
          "duration": 0.3428569999999951
        },
        {
          "name": "A#3",
          "midi": 58,
          "time": 67.37140049999994,
          "velocity": 0.5433070866141733,
          "duration": 0.3428569999999951
        },
        {
          "name": "D#4",
          "midi": 63,
          "time": 67.37140049999994,
          "velocity": 0.6456692913385826,
          "duration": 0.3428569999999951
        },
        {
          "name": "F#4",
          "midi": 66,
          "time": 67.37140049999994,
          "velocity": 0.6456692913385826,
          "duration": 0.3428569999999951
        },
        {
          "name": "G#4",
          "midi": 68,
          "time": 68.22854299999993,
          "velocity": 0.6771653543307087,
          "duration": 0.3428569999999951
        },
        {
          "name": "F4",
          "midi": 65,
          "time": 68.22854299999993,
          "velocity": 0.6141732283464567,
          "duration": 0.3428569999999951
        },
        {
          "name": "C#4",
          "midi": 61,
          "time": 68.22854299999993,
          "velocity": 0.49606299212598426,
          "duration": 0.3428569999999951
        },
        {
          "name": "F4",
          "midi": 65,
          "time": 68.74282849999993,
          "velocity": 0.6141732283464567,
          "duration": 0.5142854999999997
        },
        {
          "name": "G#4",
          "midi": 68,
          "time": 68.74282849999993,
          "velocity": 0.6220472440944882,
          "duration": 0.5142854999999997
        },
        {
          "name": "C#4",
          "midi": 61,
          "time": 68.74282849999993,
          "velocity": 0.47244094488188976,
          "duration": 0.5142854999999997
        },
        {
          "name": "F4",
          "midi": 65,
          "time": 69.42854249999993,
          "velocity": 0.6377952755905512,
          "duration": 0.5142854999999997
        },
        {
          "name": "G#4",
          "midi": 68,
          "time": 69.42854249999993,
          "velocity": 0.6771653543307087,
          "duration": 0.5142854999999997
        },
        {
          "name": "C#4",
          "midi": 61,
          "time": 69.42854249999993,
          "velocity": 0.5433070866141733,
          "duration": 0.5142854999999997
        },
        {
          "name": "G#4",
          "midi": 68,
          "time": 70.11425649999994,
          "velocity": 0.5905511811023622,
          "duration": 0.5142854999999997
        },
        {
          "name": "F4",
          "midi": 65,
          "time": 70.11425649999994,
          "velocity": 0.6141732283464567,
          "duration": 0.5142854999999997
        },
        {
          "name": "C#4",
          "midi": 61,
          "time": 70.11425649999994,
          "velocity": 0.3700787401574803,
          "duration": 0.5142854999999997
        },
        {
          "name": "D#4",
          "midi": 63,
          "time": 70.97139899999993,
          "velocity": 0.5196850393700787,
          "duration": 0.3428569999999951
        },
        {
          "name": "F#4",
          "midi": 66,
          "time": 70.97139899999993,
          "velocity": 0.6220472440944882,
          "duration": 0.3428569999999951
        },
        {
          "name": "A#3",
          "midi": 58,
          "time": 70.97139899999993,
          "velocity": 0.49606299212598426,
          "duration": 0.3428569999999951
        },
        {
          "name": "D#4",
          "midi": 63,
          "time": 71.48568449999993,
          "velocity": 0.5669291338582677,
          "duration": 0.6857140000000044
        },
        {
          "name": "A#3",
          "midi": 58,
          "time": 71.48568449999993,
          "velocity": 0.47244094488188976,
          "duration": 0.6857140000000044
        },
        {
          "name": "F#4",
          "midi": 66,
          "time": 71.48568449999993,
          "velocity": 0.5905511811023622,
          "duration": 0.6857140000000044
        },
        {
          "name": "D#4",
          "midi": 63,
          "time": 72.34282699999994,
          "velocity": 0.6220472440944882,
          "duration": 0.3428569999999951
        },
        {
          "name": "F#4",
          "midi": 66,
          "time": 72.34282699999994,
          "velocity": 0.6456692913385826,
          "duration": 0.3428569999999951
        },
        {
          "name": "A#3",
          "midi": 58,
          "time": 72.34282699999994,
          "velocity": 0.5196850393700787,
          "duration": 0.3428569999999951
        },
        {
          "name": "A#3",
          "midi": 58,
          "time": 72.85711249999994,
          "velocity": 0.47244094488188976,
          "duration": 0.5142854999999997
        },
        {
          "name": "D#4",
          "midi": 63,
          "time": 72.85711249999994,
          "velocity": 0.5905511811023622,
          "duration": 0.5142854999999997
        },
        {
          "name": "F#4",
          "midi": 66,
          "time": 72.85711249999994,
          "velocity": 0.6220472440944882,
          "duration": 0.5142854999999997
        },
        {
          "name": "F4",
          "midi": 65,
          "time": 73.71425499999994,
          "velocity": 0.5039370078740157,
          "duration": 0.3428569999999951
        },
        {
          "name": "G#4",
          "midi": 68,
          "time": 73.71425499999994,
          "velocity": 0.6456692913385826,
          "duration": 0.3428569999999951
        },
        {
          "name": "C#4",
          "midi": 61,
          "time": 73.71425499999994,
          "velocity": 0.47244094488188976,
          "duration": 0.3428569999999951
        },
        {
          "name": "F4",
          "midi": 65,
          "time": 74.22854049999994,
          "velocity": 0.5669291338582677,
          "duration": 0.5142854999999997
        },
        {
          "name": "G#4",
          "midi": 68,
          "time": 74.22854049999994,
          "velocity": 0.6456692913385826,
          "duration": 0.5142854999999997
        },
        {
          "name": "C#4",
          "midi": 61,
          "time": 74.22854049999994,
          "velocity": 0.49606299212598426,
          "duration": 0.5142854999999997
        },
        {
          "name": "A#3",
          "midi": 58,
          "time": 75.08568299999993,
          "velocity": 0.5433070866141733,
          "duration": 0.6857140000000044
        },
        {
          "name": "G#4",
          "midi": 68,
          "time": 75.08568299999993,
          "velocity": 0.6220472440944882,
          "duration": 0.6857140000000044
        },
        {
          "name": "D#4",
          "midi": 63,
          "time": 75.08568299999993,
          "velocity": 0.5669291338582677,
          "duration": 0.6857140000000044
        },
        {
          "name": "D#4",
          "midi": 63,
          "time": 75.94282549999994,
          "velocity": 0.5433070866141733,
          "duration": 0.17142850000000465
        },
        {
          "name": "A#3",
          "midi": 58,
          "time": 75.94282549999994,
          "velocity": 0.5669291338582677,
          "duration": 0.17142850000000465
        },
        {
          "name": "G#4",
          "midi": 68,
          "time": 75.94282549999994,
          "velocity": 0.5905511811023622,
          "duration": 0.17142850000000465
        },
        {
          "name": "A#3",
          "midi": 58,
          "time": 76.28568249999995,
          "velocity": 0.5433070866141733,
          "duration": 1.3714279999999945
        },
        {
          "name": "D#4",
          "midi": 63,
          "time": 76.28568249999995,
          "velocity": 0.5669291338582677,
          "duration": 1.3714279999999945
        },
        {
          "name": "G4",
          "midi": 67,
          "time": 76.28568249999995,
          "velocity": 0.5905511811023622,
          "duration": 1.3714279999999945
        },
        {
          "name": "D#4",
          "midi": 63,
          "time": 77.82853899999995,
          "velocity": 0.6771653543307087,
          "duration": 0.3428569999999951
        },
        {
          "name": "F#3",
          "midi": 54,
          "time": 77.82853899999995,
          "velocity": 0.6456692913385826,
          "duration": 0.3428569999999951
        },
        {
          "name": "A#3",
          "midi": 58,
          "time": 77.82853899999995,
          "velocity": 0.44881889763779526,
          "duration": 0.3428569999999951
        },
        {
          "name": "F#3",
          "midi": 54,
          "time": 78.34282449999995,
          "velocity": 0.6220472440944882,
          "duration": 0.5142854999999997
        },
        {
          "name": "D#4",
          "midi": 63,
          "time": 78.34282449999995,
          "velocity": 0.6456692913385826,
          "duration": 0.5142854999999997
        },
        {
          "name": "A#3",
          "midi": 58,
          "time": 78.34282449999995,
          "velocity": 0.5433070866141733,
          "duration": 0.5142854999999997
        },
        {
          "name": "F3",
          "midi": 53,
          "time": 79.19996699999994,
          "velocity": 0.6377952755905512,
          "duration": 0.3428569999999951
        },
        {
          "name": "G#3",
          "midi": 56,
          "time": 79.19996699999994,
          "velocity": 0.5433070866141733,
          "duration": 0.3428569999999951
        },
        {
          "name": "C#4",
          "midi": 61,
          "time": 79.19996699999994,
          "velocity": 0.6456692913385826,
          "duration": 0.3428569999999951
        },
        {
          "name": "F3",
          "midi": 53,
          "time": 79.71425249999994,
          "velocity": 0.6141732283464567,
          "duration": 0.17142850000000465
        },
        {
          "name": "C#4",
          "midi": 61,
          "time": 79.71425249999994,
          "velocity": 0.6771653543307087,
          "duration": 0.17142850000000465
        },
        {
          "name": "G#3",
          "midi": 56,
          "time": 79.71425249999994,
          "velocity": 0.5669291338582677,
          "duration": 0.17142850000000465
        },
        {
          "name": "G#3",
          "midi": 56,
          "time": 80.05710949999994,
          "velocity": 0.5669291338582677,
          "duration": 0.17142850000000465
        },
        {
          "name": "C#4",
          "midi": 61,
          "time": 80.05710949999994,
          "velocity": 0.6456692913385826,
          "duration": 0.17142850000000465
        },
        {
          "name": "F3",
          "midi": 53,
          "time": 80.05710949999994,
          "velocity": 0.6850393700787402,
          "duration": 0.17142850000000465
        },
        {
          "name": "F3",
          "midi": 53,
          "time": 80.3999664999999,
          "velocity": 0.5905511811023622,
          "duration": 0.5142854999999997
        },
        {
          "name": "A#3",
          "midi": 58,
          "time": 80.3999664999999,
          "velocity": 0.49606299212598426,
          "duration": 0.5142854999999997
        },
        {
          "name": "C#4",
          "midi": 61,
          "time": 80.3999664999999,
          "velocity": 0.5669291338582677,
          "duration": 0.5142854999999997
        },
        {
          "name": "A#3",
          "midi": 58,
          "time": 81.08568049999991,
          "velocity": 0.49606299212598426,
          "duration": 0.6857140000000044
        },
        {
          "name": "C#4",
          "midi": 61,
          "time": 81.08568049999991,
          "velocity": 0.5905511811023622,
          "duration": 0.6857140000000044
        },
        {
          "name": "F3",
          "midi": 53,
          "time": 81.08568049999991,
          "velocity": 0.6614173228346457,
          "duration": 0.6857140000000044
        },
        {
          "name": "D#4",
          "midi": 63,
          "time": 81.94282299999992,
          "velocity": 0.5905511811023622,
          "duration": 0.3428569999999951
        },
        {
          "name": "F#3",
          "midi": 54,
          "time": 81.94282299999992,
          "velocity": 0.5669291338582677,
          "duration": 0.3428569999999951
        },
        {
          "name": "A#3",
          "midi": 58,
          "time": 81.94282299999992,
          "velocity": 0.5433070866141733,
          "duration": 0.3428569999999951
        },
        {
          "name": "D#4",
          "midi": 63,
          "time": 82.45710849999992,
          "velocity": 0.6220472440944882,
          "duration": 0.6857140000000044
        },
        {
          "name": "A#3",
          "midi": 58,
          "time": 82.45710849999992,
          "velocity": 0.5433070866141733,
          "duration": 0.6857140000000044
        },
        {
          "name": "F#3",
          "midi": 54,
          "time": 82.45710849999992,
          "velocity": 0.5905511811023622,
          "duration": 0.6857140000000044
        },
        {
          "name": "D#3",
          "midi": 51,
          "time": 83.31425099999993,
          "velocity": 0.7795275590551181,
          "duration": 0.3428569999999951
        },
        {
          "name": "B3",
          "midi": 59,
          "time": 83.31425099999993,
          "velocity": 0.8267716535433071,
          "duration": 0.3428569999999951
        },
        {
          "name": "F#3",
          "midi": 54,
          "time": 83.31425099999993,
          "velocity": 0.8267716535433071,
          "duration": 0.3428569999999951
        },
        {
          "name": "B3",
          "midi": 59,
          "time": 83.82853649999993,
          "velocity": 0.8267716535433071,
          "duration": 0.6857140000000044
        },
        {
          "name": "D#4",
          "midi": 63,
          "time": 83.82853649999993,
          "velocity": 0.8582677165354331,
          "duration": 0.6857140000000044
        },
        {
          "name": "F#3",
          "midi": 54,
          "time": 83.82853649999993,
          "velocity": 0.8267716535433071,
          "duration": 0.6857140000000044
        },
        {
          "name": "F3",
          "midi": 53,
          "time": 84.68567899999994,
          "velocity": 0.8503937007874016,
          "duration": 0.3428569999999951
        },
        {
          "name": "C#4",
          "midi": 61,
          "time": 84.68567899999994,
          "velocity": 0.8818897637795275,
          "duration": 0.3428569999999951
        },
        {
          "name": "G#3",
          "midi": 56,
          "time": 84.68567899999994,
          "velocity": 0.8031496062992126,
          "duration": 0.3428569999999951
        },
        {
          "name": "C#4",
          "midi": 61,
          "time": 85.19996449999994,
          "velocity": 0.8818897637795275,
          "duration": 0.5142854999999997
        },
        {
          "name": "G#3",
          "midi": 56,
          "time": 85.19996449999994,
          "velocity": 0.8582677165354331,
          "duration": 0.5142854999999997
        },
        {
          "name": "F4",
          "midi": 65,
          "time": 85.19996449999994,
          "velocity": 0.8031496062992126,
          "duration": 0.5142854999999997
        },
        {
          "name": "F#3",
          "midi": 54,
          "time": 86.05710699999993,
          "velocity": 0.8582677165354331,
          "duration": 0.3428569999999951
        },
        {
          "name": "B3",
          "midi": 59,
          "time": 86.05710699999993,
          "velocity": 0.8503937007874016,
          "duration": 0.3428569999999951
        },
        {
          "name": "D#4",
          "midi": 63,
          "time": 86.05710699999993,
          "velocity": 0.8582677165354331,
          "duration": 0.3428569999999951
        },
        {
          "name": "F#4",
          "midi": 66,
          "time": 86.57139249999993,
          "velocity": 0.8818897637795275,
          "duration": 0.6857140000000044
        },
        {
          "name": "B3",
          "midi": 59,
          "time": 86.57139249999993,
          "velocity": 0.8740157480314961,
          "duration": 0.6857140000000044
        },
        {
          "name": "D#4",
          "midi": 63,
          "time": 86.57139249999993,
          "velocity": 0.8818897637795275,
          "duration": 0.6857140000000044
        },
        {
          "name": "C#4",
          "midi": 61,
          "time": 87.42853499999994,
          "velocity": 0.7795275590551181,
          "duration": 1.0285709999999995
        },
        {
          "name": "G#3",
          "midi": 56,
          "time": 87.42853499999994,
          "velocity": 0.8818897637795275,
          "duration": 1.0285709999999995
        },
        {
          "name": "F4",
          "midi": 65,
          "time": 87.42853499999994,
          "velocity": 0.8031496062992126,
          "duration": 1.0285709999999995
        }
      ],
      "controlChanges": {
        "7": [
          {
            "number": 7,
            "time": 0.342857,
            "value": 0.9133858267716536
          }
        ],
        "10": [
          {
            "number": 10,
            "time": 0.342857,
            "value": 0.5669291338582677
          }
        ],
        "11": [
          {
            "number": 11,
            "time": 79.88568099999995,
            "value": 0.6220472440944882
          },
          {
            "number": 11,
            "time": 79.88746671354161,
            "value": 0.6456692913385826
          },
          {
            "number": 11,
            "time": 79.89460956770829,
            "value": 0.6535433070866141
          },
          {
            "number": 11,
            "time": 79.89639528124995,
            "value": 0.6456692913385826
          },
          {
            "number": 11,
            "time": 80.04818093229161,
            "value": 0.9921259842519685
          },
          {
            "number": 11,
            "time": 80.05175235937494,
            "value": 0.984251968503937
          },
          {
            "number": 11,
            "time": 80.05353807291661,
            "value": 0.984251968503937
          },
          {
            "number": 11,
            "time": 80.05532378645827,
            "value": 0.9763779527559056
          },
          {
            "number": 11,
            "time": 80.05710949999994,
            "value": 0.984251968503937
          },
          {
            "number": 11,
            "time": 80.23389514062494,
            "value": 0.7637795275590551
          },
          {
            "number": 11,
            "time": 80.2356808541666,
            "value": 0.7559055118110236
          },
          {
            "number": 11,
            "time": 80.23746656770827,
            "value": 0.6299212598425197
          },
          {
            "number": 11,
            "time": 80.23925228124993,
            "value": 0.5196850393700787
          },
          {
            "number": 11,
            "time": 80.2410379947916,
            "value": 0.6299212598425197
          },
          {
            "number": 11,
            "time": 80.26068084374992,
            "value": 0.6299212598425197
          },
          {
            "number": 11,
            "time": 80.38746650520825,
            "value": 0.7637795275590551
          },
          {
            "number": 11,
            "time": 80.38925221874992,
            "value": 0.9921259842519685
          },
          {
            "number": 11,
            "time": 80.39282364583325,
            "value": 0.9921259842519685
          },
          {
            "number": 11,
            "time": 80.39460935937491,
            "value": 0.9921259842519685
          }
        ],
        "32": [
          {
            "number": 32,
            "time": 0.342857,
            "value": 0
          }
        ],
        "64": [
          {
            "number": 64,
            "time": 1.4571422500000002,
            "value": 1
          },
          {
            "number": 64,
            "time": 2.657141750000001,
            "value": 0
          },
          {
            "number": 64,
            "time": 2.828570250000001,
            "value": 1
          },
          {
            "number": 64,
            "time": 4.028569750000003,
            "value": 0
          },
          {
            "number": 64,
            "time": 4.114284000000002,
            "value": 1
          },
          {
            "number": 64,
            "time": 5.399997750000003,
            "value": 0
          },
          {
            "number": 64,
            "time": 5.571426250000003,
            "value": 1
          },
          {
            "number": 64,
            "time": 6.085711750000002,
            "value": 0
          },
          {
            "number": 64,
            "time": 6.257140250000002,
            "value": 1
          },
          {
            "number": 64,
            "time": 6.685711500000002,
            "value": 0
          },
          {
            "number": 64,
            "time": 6.857140000000002,
            "value": 1
          },
          {
            "number": 64,
            "time": 8.142853750000004,
            "value": 0
          },
          {
            "number": 64,
            "time": 8.314282250000005,
            "value": 1
          },
          {
            "number": 64,
            "time": 9.514281750000002,
            "value": 0
          },
          {
            "number": 64,
            "time": 9.599996000000003,
            "value": 1
          },
          {
            "number": 64,
            "time": 10.628566999999999,
            "value": 0
          },
          {
            "number": 64,
            "time": 10.799995499999998,
            "value": 1
          },
          {
            "number": 64,
            "time": 11.571423749999997,
            "value": 0
          }
        ]
      },
      "id": 4,
      "instrumentNumber": 0,
      "instrument": "acoustic grand piano",
      "instrumentFamily": "piano",
      "channelNumber": 3,
      "isPercussion": false
    },
    {
      "startTime": 11.999995,
      "duration": 88.78567729166622,
      "length": 224,
      "notes": [
        {
          "name": "B1",
          "midi": 35,
          "time": 11.999995,
          "velocity": 0.9921259842519685,
          "duration": 0.3285712916666661
        },
        {
          "name": "B1",
          "midi": 35,
          "time": 12.342851999999999,
          "velocity": 0.9291338582677166,
          "duration": 0.3285712916666661
        },
        {
          "name": "B1",
          "midi": 35,
          "time": 12.685708999999997,
          "velocity": 0.968503937007874,
          "duration": 0.15714279166666678
        },
        {
          "name": "F#2",
          "midi": 42,
          "time": 12.857137499999997,
          "velocity": 0.9448818897637795,
          "duration": 0.15714279166666678
        },
        {
          "name": "B1",
          "midi": 35,
          "time": 13.028565999999996,
          "velocity": 0.937007874015748,
          "duration": 0.15714279166666678
        },
        {
          "name": "C#2",
          "midi": 37,
          "time": 13.199994499999995,
          "velocity": 1,
          "duration": 0.3285712916666661
        },
        {
          "name": "C#2",
          "midi": 37,
          "time": 13.542851499999994,
          "velocity": 0.968503937007874,
          "duration": 0.3285712916666661
        },
        {
          "name": "F#2",
          "midi": 42,
          "time": 13.885708499999993,
          "velocity": 0.937007874015748,
          "duration": 0.15714279166666678
        },
        {
          "name": "F2",
          "midi": 41,
          "time": 14.057136999999992,
          "velocity": 0.984251968503937,
          "duration": 0.15714279166666678
        },
        {
          "name": "C#2",
          "midi": 37,
          "time": 14.228565499999991,
          "velocity": 0.9921259842519685,
          "duration": 0.15714279166666678
        },
        {
          "name": "G#1",
          "midi": 32,
          "time": 14.39999399999999,
          "velocity": 0.984251968503937,
          "duration": 0.15714279166666678
        },
        {
          "name": "C#2",
          "midi": 37,
          "time": 14.57142249999999,
          "velocity": 0.937007874015748,
          "duration": 0.15714279166666678
        },
        {
          "name": "A#1",
          "midi": 34,
          "time": 14.74285099999999,
          "velocity": 0.9763779527559056,
          "duration": 0.3285712916666661
        },
        {
          "name": "A#1",
          "midi": 34,
          "time": 15.085707999999988,
          "velocity": 0.952755905511811,
          "duration": 0.3285712916666661
        },
        {
          "name": "A#1",
          "midi": 34,
          "time": 15.428564999999987,
          "velocity": 0.984251968503937,
          "duration": 0.15714279166666678
        },
        {
          "name": "F2",
          "midi": 41,
          "time": 15.599993499999986,
          "velocity": 0.9448818897637795,
          "duration": 0.15714279166666678
        },
        {
          "name": "A#1",
          "midi": 34,
          "time": 15.771421999999985,
          "velocity": 0.968503937007874,
          "duration": 0.15714279166666678
        },
        {
          "name": "D#2",
          "midi": 39,
          "time": 15.942850499999984,
          "velocity": 0.9291338582677166,
          "duration": 0.3285712916666661
        },
        {
          "name": "D#2",
          "midi": 39,
          "time": 16.285707499999983,
          "velocity": 0.952755905511811,
          "duration": 0.3285712916666661
        },
        {
          "name": "A#1",
          "midi": 34,
          "time": 16.62856449999998,
          "velocity": 1,
          "duration": 0.157142791666665
        },
        {
          "name": "D#2",
          "midi": 39,
          "time": 16.79999299999998,
          "velocity": 0.968503937007874,
          "duration": 0.157142791666665
        },
        {
          "name": "F#2",
          "midi": 42,
          "time": 16.971421499999977,
          "velocity": 0.984251968503937,
          "duration": 0.157142791666665
        },
        {
          "name": "F2",
          "midi": 41,
          "time": 17.142849999999974,
          "velocity": 0.9606299212598425,
          "duration": 0.157142791666665
        },
        {
          "name": "C#2",
          "midi": 37,
          "time": 17.314278499999972,
          "velocity": 0.9763779527559056,
          "duration": 0.157142791666665
        },
        {
          "name": "C2",
          "midi": 36,
          "time": 17.48570699999997,
          "velocity": 0.9448818897637795,
          "duration": 0.3285712916666661
        },
        {
          "name": "C3",
          "midi": 48,
          "time": 17.828563999999968,
          "velocity": 0.937007874015748,
          "duration": 0.3285712916666661
        },
        {
          "name": "C2",
          "midi": 36,
          "time": 18.171420999999967,
          "velocity": 0.9606299212598425,
          "duration": 0.157142791666665
        },
        {
          "name": "G#1",
          "midi": 32,
          "time": 18.342849499999964,
          "velocity": 0.952755905511811,
          "duration": 0.157142791666665
        },
        {
          "name": "C2",
          "midi": 36,
          "time": 18.514277999999962,
          "velocity": 0.9291338582677166,
          "duration": 0.157142791666665
        },
        {
          "name": "B1",
          "midi": 35,
          "time": 18.68570649999996,
          "velocity": 0.9606299212598425,
          "duration": 0.3285712916666661
        },
        {
          "name": "B1",
          "midi": 35,
          "time": 19.028563499999958,
          "velocity": 0.9921259842519685,
          "duration": 0.3285712916666661
        },
        {
          "name": "B2",
          "midi": 47,
          "time": 19.371420499999957,
          "velocity": 0.968503937007874,
          "duration": 0.157142791666665
        },
        {
          "name": "B1",
          "midi": 35,
          "time": 19.542848999999954,
          "velocity": 0.952755905511811,
          "duration": 0.157142791666665
        },
        {
          "name": "B1",
          "midi": 35,
          "time": 19.71427749999995,
          "velocity": 1,
          "duration": 0.157142791666665
        },
        {
          "name": "B1",
          "midi": 35,
          "time": 19.88570599999995,
          "velocity": 0.952755905511811,
          "duration": 0.157142791666665
        },
        {
          "name": "C2",
          "midi": 36,
          "time": 20.057134499999947,
          "velocity": 0.9921259842519685,
          "duration": 0.157142791666665
        },
        {
          "name": "C#2",
          "midi": 37,
          "time": 20.228562999999944,
          "velocity": 0.968503937007874,
          "duration": 0.8428567916666658
        },
        {
          "name": "G#1",
          "midi": 32,
          "time": 21.085705499999943,
          "velocity": 0.984251968503937,
          "duration": 0.157142791666665
        },
        {
          "name": "C#2",
          "midi": 37,
          "time": 21.25713399999994,
          "velocity": 0.968503937007874,
          "duration": 0.157142791666665
        },
        {
          "name": "D2",
          "midi": 38,
          "time": 21.428562499999938,
          "velocity": 0.952755905511811,
          "duration": 0.157142791666665
        },
        {
          "name": "D#2",
          "midi": 39,
          "time": 21.599990999999935,
          "velocity": 0.9606299212598425,
          "duration": 0.6714282916666541
        },
        {
          "name": "D#3",
          "midi": 51,
          "time": 22.285704999999922,
          "velocity": 0.9448818897637795,
          "duration": 0.6714282916666683
        },
        {
          "name": "G#2",
          "midi": 44,
          "time": 22.971418999999923,
          "velocity": 0.9448818897637795,
          "duration": 1.185713791666668
        },
        {
          "name": "D#2",
          "midi": 39,
          "time": 24.171418499999923,
          "velocity": 0.9606299212598425,
          "duration": 0.157142791666665
        },
        {
          "name": "G#2",
          "midi": 44,
          "time": 24.34284699999992,
          "velocity": 0.984251968503937,
          "duration": 0.8428567916666658
        },
        {
          "name": "D#2",
          "midi": 39,
          "time": 25.19998949999992,
          "velocity": 0.984251968503937,
          "duration": 0.157142791666665
        },
        {
          "name": "G#2",
          "midi": 44,
          "time": 25.371417999999917,
          "velocity": 1,
          "duration": 0.157142791666665
        },
        {
          "name": "A2",
          "midi": 45,
          "time": 25.542846499999914,
          "velocity": 0.9921259842519685,
          "duration": 0.157142791666665
        },
        {
          "name": "A#2",
          "midi": 46,
          "time": 25.714274999999912,
          "velocity": 0.9291338582677166,
          "duration": 1.185713791666668
        },
        {
          "name": "F2",
          "midi": 41,
          "time": 26.914274499999912,
          "velocity": 0.9291338582677166,
          "duration": 0.157142791666665
        },
        {
          "name": "A#2",
          "midi": 46,
          "time": 27.08570299999991,
          "velocity": 0.9448818897637795,
          "duration": 0.8428567916666658
        },
        {
          "name": "F2",
          "midi": 41,
          "time": 27.94284549999991,
          "velocity": 0.937007874015748,
          "duration": 0.157142791666665
        },
        {
          "name": "A#2",
          "midi": 46,
          "time": 28.114273999999906,
          "velocity": 0.952755905511811,
          "duration": 0.157142791666665
        },
        {
          "name": "G#2",
          "midi": 44,
          "time": 28.285702499999903,
          "velocity": 0.9921259842519685,
          "duration": 0.157142791666665
        },
        {
          "name": "G2",
          "midi": 43,
          "time": 28.4571309999999,
          "velocity": 0.937007874015748,
          "duration": 1.185713791666668
        },
        {
          "name": "D2",
          "midi": 38,
          "time": 29.6571304999999,
          "velocity": 0.9291338582677166,
          "duration": 0.157142791666665
        },
        {
          "name": "G1",
          "midi": 31,
          "time": 29.8285589999999,
          "velocity": 1,
          "duration": 1.0999995416666657
        },
        {
          "name": "G1",
          "midi": 31,
          "time": 31.0285584999999,
          "velocity": 0.984251968503937,
          "duration": 0.157142791666665
        },
        {
          "name": "C2",
          "midi": 36,
          "time": 31.199986999999897,
          "velocity": 0.984251968503937,
          "duration": 1.185713791666668
        },
        {
          "name": "G1",
          "midi": 31,
          "time": 32.3999864999999,
          "velocity": 0.9921259842519685,
          "duration": 0.157142791666665
        },
        {
          "name": "C2",
          "midi": 36,
          "time": 32.571414999999895,
          "velocity": 0.937007874015748,
          "duration": 0.6714282916666647
        },
        {
          "name": "A#1",
          "midi": 34,
          "time": 33.25712899999989,
          "velocity": 0.9448818897637795,
          "duration": 0.6714282916666647
        },
        {
          "name": "G#2",
          "midi": 44,
          "time": 33.94284299999989,
          "velocity": 1,
          "duration": 1.1857137916666645
        },
        {
          "name": "D#2",
          "midi": 39,
          "time": 35.14284249999989,
          "velocity": 0.9448818897637795,
          "duration": 0.157142791666665
        },
        {
          "name": "G#2",
          "midi": 44,
          "time": 35.314270999999884,
          "velocity": 0.9921259842519685,
          "duration": 0.8428567916666694
        },
        {
          "name": "D#2",
          "midi": 39,
          "time": 36.171413499999886,
          "velocity": 0.9763779527559056,
          "duration": 0.157142791666665
        },
        {
          "name": "G#2",
          "midi": 44,
          "time": 36.342841999999884,
          "velocity": 0.984251968503937,
          "duration": 0.157142791666665
        },
        {
          "name": "A2",
          "midi": 45,
          "time": 36.51427049999988,
          "velocity": 0.9291338582677166,
          "duration": 0.157142791666665
        },
        {
          "name": "A#2",
          "midi": 46,
          "time": 36.68569899999988,
          "velocity": 0.984251968503937,
          "duration": 1.1857137916666645
        },
        {
          "name": "D3",
          "midi": 50,
          "time": 37.885698499999876,
          "velocity": 0.984251968503937,
          "duration": 0.46428552083333585
        },
        {
          "name": "F2",
          "midi": 41,
          "time": 38.399983999999876,
          "velocity": 0.984251968503937,
          "duration": 0.157142791666665
        },
        {
          "name": "A#2",
          "midi": 46,
          "time": 38.57141249999987,
          "velocity": 0.9921259842519685,
          "duration": 0.32857129166666965
        },
        {
          "name": "F2",
          "midi": 41,
          "time": 38.914269499999875,
          "velocity": 0.937007874015748,
          "duration": 0.157142791666665
        },
        {
          "name": "A#2",
          "midi": 46,
          "time": 39.08569799999987,
          "velocity": 0.937007874015748,
          "duration": 0.157142791666665
        },
        {
          "name": "G#2",
          "midi": 44,
          "time": 39.25712649999987,
          "velocity": 0.9921259842519685,
          "duration": 0.157142791666665
        },
        {
          "name": "G2",
          "midi": 43,
          "time": 39.42855499999987,
          "velocity": 0.9606299212598425,
          "duration": 0.8142853749999972
        },
        {
          "name": "D#2",
          "midi": 39,
          "time": 40.28569749999986,
          "velocity": 1,
          "duration": 0.157142791666665
        },
        {
          "name": "G2",
          "midi": 43,
          "time": 40.45712599999986,
          "velocity": 0.9291338582677166,
          "duration": 0.157142791666665
        },
        {
          "name": "A#2",
          "midi": 46,
          "time": 40.62855449999986,
          "velocity": 0.984251968503937,
          "duration": 0.157142791666665
        },
        {
          "name": "B2",
          "midi": 47,
          "time": 40.799982999999855,
          "velocity": 0.9921259842519685,
          "duration": 0.6714282916666647
        },
        {
          "name": "B1",
          "midi": 35,
          "time": 41.48569699999985,
          "velocity": 0.9606299212598425,
          "duration": 0.6714282916666647
        },
        {
          "name": "C3",
          "midi": 48,
          "time": 42.17141099999985,
          "velocity": 0.9606299212598425,
          "duration": 0.9857138750000018
        },
        {
          "name": "G2",
          "midi": 43,
          "time": 43.19998199999985,
          "velocity": 0.952755905511811,
          "duration": 0.32857129166665544
        },
        {
          "name": "C2",
          "midi": 36,
          "time": 43.54283899999984,
          "velocity": 0.952755905511811,
          "duration": 0.6428568749999997
        },
        {
          "name": "A#1",
          "midi": 34,
          "time": 44.228552999999835,
          "velocity": 0.968503937007874,
          "duration": 0.6428568749999997
        },
        {
          "name": "G#1",
          "midi": 32,
          "time": 44.91426699999983,
          "velocity": 0.937007874015748,
          "duration": 0.157142791666665
        },
        {
          "name": "G#1",
          "midi": 32,
          "time": 45.25712399999983,
          "velocity": 0.952755905511811,
          "duration": 0.157142791666665
        },
        {
          "name": "G#1",
          "midi": 32,
          "time": 45.59998099999982,
          "velocity": 0.937007874015748,
          "duration": 0.157142791666665
        },
        {
          "name": "G#1",
          "midi": 32,
          "time": 45.94283799999982,
          "velocity": 0.9763779527559056,
          "duration": 0.157142791666665
        },
        {
          "name": "G#1",
          "midi": 32,
          "time": 46.28569499999981,
          "velocity": 0.937007874015748,
          "duration": 0.157142791666665
        },
        {
          "name": "G#1",
          "midi": 32,
          "time": 46.62855199999981,
          "velocity": 0.9606299212598425,
          "duration": 0.157142791666665
        },
        {
          "name": "G#1",
          "midi": 32,
          "time": 46.9714089999998,
          "velocity": 0.9291338582677166,
          "duration": 0.157142791666665
        },
        {
          "name": "G#1",
          "midi": 32,
          "time": 47.3142659999998,
          "velocity": 0.952755905511811,
          "duration": 0.157142791666665
        },
        {
          "name": "G#1",
          "midi": 32,
          "time": 47.65712299999979,
          "velocity": 0.9448818897637795,
          "duration": 0.157142791666665
        },
        {
          "name": "G#1",
          "midi": 32,
          "time": 47.99997999999979,
          "velocity": 0.952755905511811,
          "duration": 0.157142791666665
        },
        {
          "name": "G#1",
          "midi": 32,
          "time": 48.34283699999978,
          "velocity": 0.9291338582677166,
          "duration": 0.157142791666665
        },
        {
          "name": "G#1",
          "midi": 32,
          "time": 48.68569399999978,
          "velocity": 1,
          "duration": 0.157142791666665
        },
        {
          "name": "G#1",
          "midi": 32,
          "time": 49.02855099999977,
          "velocity": 0.9291338582677166,
          "duration": 0.157142791666665
        },
        {
          "name": "G#1",
          "midi": 32,
          "time": 49.37140799999977,
          "velocity": 0.9921259842519685,
          "duration": 0.157142791666665
        },
        {
          "name": "G#1",
          "midi": 32,
          "time": 49.71426499999976,
          "velocity": 0.9448818897637795,
          "duration": 0.157142791666665
        },
        {
          "name": "C2",
          "midi": 36,
          "time": 49.88569349999976,
          "velocity": 1,
          "duration": 0.1142856666666674
        },
        {
          "name": "G#2",
          "midi": 44,
          "time": 50.05712199999976,
          "velocity": 0.937007874015748,
          "duration": 0.30714272916665664
        },
        {
          "name": "G2",
          "midi": 43,
          "time": 50.399978999999746,
          "velocity": 0.9291338582677166,
          "duration": 0.157142791666665
        },
        {
          "name": "G2",
          "midi": 43,
          "time": 50.74283599999974,
          "velocity": 0.968503937007874,
          "duration": 0.157142791666665
        },
        {
          "name": "G2",
          "midi": 43,
          "time": 51.085692999999736,
          "velocity": 0.937007874015748,
          "duration": 0.157142791666665
        },
        {
          "name": "G2",
          "midi": 43,
          "time": 51.42854999999973,
          "velocity": 0.968503937007874,
          "duration": 0.157142791666665
        },
        {
          "name": "G2",
          "midi": 43,
          "time": 51.771406999999726,
          "velocity": 1,
          "duration": 0.157142791666665
        },
        {
          "name": "G2",
          "midi": 43,
          "time": 52.11426399999972,
          "velocity": 0.9921259842519685,
          "duration": 0.157142791666665
        },
        {
          "name": "G2",
          "midi": 43,
          "time": 52.45712099999972,
          "velocity": 0.952755905511811,
          "duration": 0.157142791666665
        },
        {
          "name": "D2",
          "midi": 38,
          "time": 52.628549499999714,
          "velocity": 0.952755905511811,
          "duration": 0.157142791666665
        },
        {
          "name": "G2",
          "midi": 43,
          "time": 52.79997799999971,
          "velocity": 0.9606299212598425,
          "duration": 0.157142791666665
        },
        {
          "name": "D2",
          "midi": 38,
          "time": 52.97140649999971,
          "velocity": 0.937007874015748,
          "duration": 0.157142791666665
        },
        {
          "name": "C2",
          "midi": 36,
          "time": 53.14283499999971,
          "velocity": 0.9291338582677166,
          "duration": 0.157142791666665
        },
        {
          "name": "C2",
          "midi": 36,
          "time": 53.4856919999997,
          "velocity": 0.952755905511811,
          "duration": 0.157142791666665
        },
        {
          "name": "C2",
          "midi": 36,
          "time": 53.8285489999997,
          "velocity": 0.968503937007874,
          "duration": 0.157142791666665
        },
        {
          "name": "C2",
          "midi": 36,
          "time": 54.17140599999969,
          "velocity": 0.9291338582677166,
          "duration": 0.157142791666665
        },
        {
          "name": "G1",
          "midi": 31,
          "time": 54.34283449999969,
          "velocity": 0.937007874015748,
          "duration": 0.157142791666665
        },
        {
          "name": "C2",
          "midi": 36,
          "time": 54.51426299999969,
          "velocity": 0.984251968503937,
          "duration": 0.157142791666665
        },
        {
          "name": "C2",
          "midi": 36,
          "time": 54.85711999999968,
          "velocity": 0.9763779527559056,
          "duration": 0.157142791666665
        },
        {
          "name": "C2",
          "midi": 36,
          "time": 55.19997699999968,
          "velocity": 0.952755905511811,
          "duration": 0.2928570208333312
        },
        {
          "name": "A#1",
          "midi": 34,
          "time": 55.54283399999967,
          "velocity": 0.9921259842519685,
          "duration": 0.2928570208333312
        },
        {
          "name": "A1",
          "midi": 33,
          "time": 55.88569099999967,
          "velocity": 0.937007874015748,
          "duration": 0.157142791666665
        },
        {
          "name": "A1",
          "midi": 33,
          "time": 56.22854799999966,
          "velocity": 0.9763779527559056,
          "duration": 0.157142791666665
        },
        {
          "name": "A1",
          "midi": 33,
          "time": 56.57140499999966,
          "velocity": 0.9606299212598425,
          "duration": 0.157142791666665
        },
        {
          "name": "A1",
          "midi": 33,
          "time": 56.91426199999965,
          "velocity": 0.9291338582677166,
          "duration": 0.157142791666665
        },
        {
          "name": "A1",
          "midi": 33,
          "time": 57.25711899999965,
          "velocity": 0.9763779527559056,
          "duration": 0.157142791666665
        },
        {
          "name": "A1",
          "midi": 33,
          "time": 57.59997599999964,
          "velocity": 0.984251968503937,
          "duration": 0.157142791666665
        },
        {
          "name": "A1",
          "midi": 33,
          "time": 57.94283299999964,
          "velocity": 0.937007874015748,
          "duration": 0.12142852083333366
        },
        {
          "name": "E1",
          "midi": 28,
          "time": 58.114261499999635,
          "velocity": 0.952755905511811,
          "duration": 0.157142791666665
        },
        {
          "name": "A1",
          "midi": 33,
          "time": 58.28568999999963,
          "velocity": 0.984251968503937,
          "duration": 0.12857137499999993
        },
        {
          "name": "B1",
          "midi": 35,
          "time": 58.45711849999963,
          "velocity": 0.952755905511811,
          "duration": 0.157142791666665
        },
        {
          "name": "G#1",
          "midi": 32,
          "time": 58.62854699999963,
          "velocity": 0.968503937007874,
          "duration": 0.157142791666665
        },
        {
          "name": "G#1",
          "midi": 32,
          "time": 58.97140399999962,
          "velocity": 0.9921259842519685,
          "duration": 0.157142791666665
        },
        {
          "name": "G#1",
          "midi": 32,
          "time": 59.31426099999962,
          "velocity": 0.968503937007874,
          "duration": 0.157142791666665
        },
        {
          "name": "G#1",
          "midi": 32,
          "time": 59.65711799999961,
          "velocity": 0.9763779527559056,
          "duration": 0.157142791666665
        },
        {
          "name": "G#1",
          "midi": 32,
          "time": 59.99997499999961,
          "velocity": 0.9291338582677166,
          "duration": 0.157142791666665
        },
        {
          "name": "G#1",
          "midi": 32,
          "time": 60.3428319999996,
          "velocity": 0.9606299212598425,
          "duration": 0.157142791666665
        },
        {
          "name": "G#1",
          "midi": 32,
          "time": 60.6856889999996,
          "velocity": 0.937007874015748,
          "duration": 0.157142791666665
        },
        {
          "name": "G1",
          "midi": 31,
          "time": 61.028545999999594,
          "velocity": 0.9763779527559056,
          "duration": 0.157142791666665
        },
        {
          "name": "F1",
          "midi": 29,
          "time": 61.37140299999959,
          "velocity": 0.937007874015748,
          "duration": 0.32857129166666965
        },
        {
          "name": "F1",
          "midi": 29,
          "time": 61.71425999999959,
          "velocity": 0.937007874015748,
          "duration": 0.157142791666665
        },
        {
          "name": "C2",
          "midi": 36,
          "time": 61.88568849999959,
          "velocity": 0.9448818897637795,
          "duration": 0.4999997916666672
        },
        {
          "name": "F1",
          "midi": 29,
          "time": 62.39997399999959,
          "velocity": 0.9921259842519685,
          "duration": 0.157142791666665
        },
        {
          "name": "C2",
          "midi": 36,
          "time": 62.571402499999586,
          "velocity": 0.937007874015748,
          "duration": 0.157142791666665
        },
        {
          "name": "G1",
          "midi": 31,
          "time": 62.74283099999958,
          "velocity": 0.9921259842519685,
          "duration": 0.8428567916666694
        },
        {
          "name": "D2",
          "midi": 38,
          "time": 63.599973499999585,
          "velocity": 0.968503937007874,
          "duration": 0.157142791666665
        },
        {
          "name": "G1",
          "midi": 31,
          "time": 63.77140199999958,
          "velocity": 0.952755905511811,
          "duration": 0.32857129166666255
        },
        {
          "name": "G#1",
          "midi": 32,
          "time": 64.11425899999958,
          "velocity": 0.937007874015748,
          "duration": 0.32857129166666255
        },
        {
          "name": "C2",
          "midi": 36,
          "time": 64.45711599999957,
          "velocity": 1,
          "duration": 0.1571427916666721
        },
        {
          "name": "D#2",
          "midi": 39,
          "time": 64.62854449999958,
          "velocity": 1,
          "duration": 0.32857129166666255
        },
        {
          "name": "G#2",
          "midi": 44,
          "time": 64.97140149999957,
          "velocity": 0.9921259842519685,
          "duration": 0.1571427916666721
        },
        {
          "name": "D#2",
          "midi": 39,
          "time": 65.14282999999958,
          "velocity": 1,
          "duration": 0.1571427916666721
        },
        {
          "name": "F2",
          "midi": 41,
          "time": 65.31425849999958,
          "velocity": 0.937007874015748,
          "duration": 0.1571427916666721
        },
        {
          "name": "G2",
          "midi": 43,
          "time": 65.48568699999959,
          "velocity": 0.9448818897637795,
          "duration": 0.6714282916666576
        },
        {
          "name": "B1",
          "midi": 35,
          "time": 66.85711499999958,
          "velocity": 0.9763779527559056,
          "duration": 0.32857129166666255
        },
        {
          "name": "B1",
          "midi": 35,
          "time": 67.37140049999958,
          "velocity": 0.968503937007874,
          "duration": 0.1571427916666721
        },
        {
          "name": "B1",
          "midi": 35,
          "time": 67.54282899999959,
          "velocity": 1,
          "duration": 0.1571427916666721
        },
        {
          "name": "F#1",
          "midi": 30,
          "time": 67.71425749999959,
          "velocity": 0.9291338582677166,
          "duration": 0.1571427916666721
        },
        {
          "name": "B1",
          "midi": 35,
          "time": 67.8856859999996,
          "velocity": 0.9763779527559056,
          "duration": 0.1571427916666721
        },
        {
          "name": "C2",
          "midi": 36,
          "time": 68.0571144999996,
          "velocity": 0.9921259842519685,
          "duration": 0.1571427916666721
        },
        {
          "name": "C#2",
          "midi": 37,
          "time": 68.2285429999996,
          "velocity": 0.968503937007874,
          "duration": 0.32857129166666255
        },
        {
          "name": "C#2",
          "midi": 37,
          "time": 68.7428284999996,
          "velocity": 0.9448818897637795,
          "duration": 0.32857129166666255
        },
        {
          "name": "G#1",
          "midi": 32,
          "time": 69.0856854999996,
          "velocity": 0.9763779527559056,
          "duration": 0.1571427916666721
        },
        {
          "name": "C#2",
          "midi": 37,
          "time": 69.2571139999996,
          "velocity": 0.968503937007874,
          "duration": 0.1571427916666721
        },
        {
          "name": "B1",
          "midi": 35,
          "time": 69.42854249999961,
          "velocity": 0.952755905511811,
          "duration": 0.1571427916666721
        },
        {
          "name": "A#1",
          "midi": 34,
          "time": 69.59997099999961,
          "velocity": 0.9606299212598425,
          "duration": 0.32857129166666255
        },
        {
          "name": "A#1",
          "midi": 34,
          "time": 70.11425649999961,
          "velocity": 0.937007874015748,
          "duration": 0.32857129166666255
        },
        {
          "name": "F1",
          "midi": 29,
          "time": 70.45711349999961,
          "velocity": 0.9921259842519685,
          "duration": 0.1571427916666721
        },
        {
          "name": "A#1",
          "midi": 34,
          "time": 70.62854199999961,
          "velocity": 0.937007874015748,
          "duration": 0.1571427916666721
        },
        {
          "name": "D2",
          "midi": 38,
          "time": 70.79997049999962,
          "velocity": 1,
          "duration": 0.1571427916666579
        },
        {
          "name": "D#2",
          "midi": 39,
          "time": 70.97139899999961,
          "velocity": 0.9921259842519685,
          "duration": 0.32857129166666255
        },
        {
          "name": "D#2",
          "midi": 39,
          "time": 71.4856844999996,
          "velocity": 1,
          "duration": 0.32857129166666255
        },
        {
          "name": "D#3",
          "midi": 51,
          "time": 71.8285414999996,
          "velocity": 0.9921259842519685,
          "duration": 0.1571427916666721
        },
        {
          "name": "D#2",
          "midi": 39,
          "time": 71.9999699999996,
          "velocity": 0.952755905511811,
          "duration": 0.32857129166666255
        },
        {
          "name": "B1",
          "midi": 35,
          "time": 72.3428269999996,
          "velocity": 0.9921259842519685,
          "duration": 0.32857129166666255
        },
        {
          "name": "B1",
          "midi": 35,
          "time": 72.8571124999996,
          "velocity": 0.9291338582677166,
          "duration": 0.1571427916666721
        },
        {
          "name": "B1",
          "midi": 35,
          "time": 73.0285409999996,
          "velocity": 0.9448818897637795,
          "duration": 0.1571427916666721
        },
        {
          "name": "F#1",
          "midi": 30,
          "time": 73.19996949999961,
          "velocity": 0.968503937007874,
          "duration": 0.1571427916666721
        },
        {
          "name": "B1",
          "midi": 35,
          "time": 73.37139799999962,
          "velocity": 0.9448818897637795,
          "duration": 0.1571427916666721
        },
        {
          "name": "C2",
          "midi": 36,
          "time": 73.54282649999962,
          "velocity": 0.984251968503937,
          "duration": 0.1571427916666721
        },
        {
          "name": "C#2",
          "midi": 37,
          "time": 73.71425499999962,
          "velocity": 0.9606299212598425,
          "duration": 0.32857129166666255
        },
        {
          "name": "C#2",
          "midi": 37,
          "time": 74.22854049999962,
          "velocity": 0.984251968503937,
          "duration": 0.32857129166666255
        },
        {
          "name": "G#1",
          "midi": 32,
          "time": 74.57139749999962,
          "velocity": 0.952755905511811,
          "duration": 0.1571427916666721
        },
        {
          "name": "C#2",
          "midi": 37,
          "time": 74.74282599999962,
          "velocity": 0.9291338582677166,
          "duration": 0.1571427916666721
        },
        {
          "name": "D2",
          "midi": 38,
          "time": 74.91425449999963,
          "velocity": 0.952755905511811,
          "duration": 0.1571427916666721
        },
        {
          "name": "D#2",
          "midi": 39,
          "time": 75.08568299999963,
          "velocity": 0.9763779527559056,
          "duration": 0.32857129166666255
        },
        {
          "name": "D#2",
          "midi": 39,
          "time": 75.42853999999963,
          "velocity": 0.968503937007874,
          "duration": 0.32857129166666255
        },
        {
          "name": "D#2",
          "midi": 39,
          "time": 75.77139699999962,
          "velocity": 0.937007874015748,
          "duration": 0.1571427916666721
        },
        {
          "name": "G2",
          "midi": 43,
          "time": 75.94282549999963,
          "velocity": 0.952755905511811,
          "duration": 0.1571427916666721
        },
        {
          "name": "G#2",
          "midi": 44,
          "time": 76.11425399999963,
          "velocity": 0.952755905511811,
          "duration": 0.1571427916666579
        },
        {
          "name": "D#3",
          "midi": 51,
          "time": 76.28568249999962,
          "velocity": 1,
          "duration": 0.32857129166666255
        },
        {
          "name": "A#2",
          "midi": 46,
          "time": 76.62853949999962,
          "velocity": 0.937007874015748,
          "duration": 0.32857129166666255
        },
        {
          "name": "G#2",
          "midi": 44,
          "time": 76.97139649999961,
          "velocity": 0.9448818897637795,
          "duration": 0.1571427916666721
        },
        {
          "name": "G2",
          "midi": 43,
          "time": 77.14282499999962,
          "velocity": 0.9291338582677166,
          "duration": 0.1571427916666721
        },
        {
          "name": "G#2",
          "midi": 44,
          "time": 77.31425349999962,
          "velocity": 1,
          "duration": 0.1571427916666721
        },
        {
          "name": "A#2",
          "midi": 46,
          "time": 77.48568199999963,
          "velocity": 0.9448818897637795,
          "duration": 0.32857129166664834
        },
        {
          "name": "B1",
          "midi": 35,
          "time": 77.82853899999961,
          "velocity": 0.9291338582677166,
          "duration": 0.32857129166666255
        },
        {
          "name": "B1",
          "midi": 35,
          "time": 78.34282449999961,
          "velocity": 0.9606299212598425,
          "duration": 0.1571427916666721
        },
        {
          "name": "B1",
          "midi": 35,
          "time": 78.51425299999961,
          "velocity": 0.9448818897637795,
          "duration": 0.1571427916666721
        },
        {
          "name": "F#1",
          "midi": 30,
          "time": 78.68568149999962,
          "velocity": 1,
          "duration": 0.1571427916666721
        },
        {
          "name": "B1",
          "midi": 35,
          "time": 78.85710999999962,
          "velocity": 0.9921259842519685,
          "duration": 0.1571427916666721
        },
        {
          "name": "C2",
          "midi": 36,
          "time": 79.02853849999963,
          "velocity": 0.9763779527559056,
          "duration": 0.1571427916666721
        },
        {
          "name": "C#2",
          "midi": 37,
          "time": 79.19996699999963,
          "velocity": 0.9291338582677166,
          "duration": 0.32857129166666255
        },
        {
          "name": "C#2",
          "midi": 37,
          "time": 79.71425249999963,
          "velocity": 0.984251968503937,
          "duration": 0.1571427916666721
        },
        {
          "name": "C#2",
          "midi": 37,
          "time": 80.05710949999963,
          "velocity": 0.968503937007874,
          "duration": 0.1571427916666721
        },
        {
          "name": "A#1",
          "midi": 34,
          "time": 80.39996649999959,
          "velocity": 0.9291338582677166,
          "duration": 0.4999997916666672
        },
        {
          "name": "F1",
          "midi": 29,
          "time": 81.0856804999996,
          "velocity": 0.9921259842519685,
          "duration": 0.24285704166666733
        },
        {
          "name": "A#1",
          "midi": 34,
          "time": 81.42853749999959,
          "velocity": 0.984251968503937,
          "duration": 0.1571427916666721
        },
        {
          "name": "A#1",
          "midi": 34,
          "time": 81.5999659999996,
          "velocity": 0.9763779527559056,
          "duration": 0.32857129166664834
        },
        {
          "name": "D#2",
          "midi": 39,
          "time": 81.94282299999958,
          "velocity": 0.952755905511811,
          "duration": 0.32857129166666255
        },
        {
          "name": "F#2",
          "midi": 42,
          "time": 82.45710849999958,
          "velocity": 0.9763779527559056,
          "duration": 0.24285704166666733
        },
        {
          "name": "F#2",
          "midi": 42,
          "time": 82.79996549999957,
          "velocity": 0.9448818897637795,
          "duration": 0.499999791666653
        },
        {
          "name": "G#1",
          "midi": 32,
          "time": 83.31425099999956,
          "velocity": 0.9606299212598425,
          "duration": 0.32857129166666255
        },
        {
          "name": "D#2",
          "midi": 39,
          "time": 83.82853649999956,
          "velocity": 1,
          "duration": 0.1571427916666721
        },
        {
          "name": "F#1",
          "midi": 30,
          "time": 84.17139349999957,
          "velocity": 1,
          "duration": 0.1571427916666721
        },
        {
          "name": "G#1",
          "midi": 32,
          "time": 84.34282199999957,
          "velocity": 1,
          "duration": 0.1571427916666721
        },
        {
          "name": "A1",
          "midi": 33,
          "time": 84.51425049999958,
          "velocity": 0.937007874015748,
          "duration": 0.1571427916666721
        },
        {
          "name": "A#1",
          "midi": 34,
          "time": 84.68567899999958,
          "velocity": 0.984251968503937,
          "duration": 0.32857129166666255
        },
        {
          "name": "F2",
          "midi": 41,
          "time": 85.19996449999958,
          "velocity": 0.984251968503937,
          "duration": 0.4999997916666672
        },
        {
          "name": "A#1",
          "midi": 34,
          "time": 85.71424999999958,
          "velocity": 0.937007874015748,
          "duration": 0.32857129166666255
        },
        {
          "name": "B1",
          "midi": 35,
          "time": 86.05710699999958,
          "velocity": 0.9606299212598425,
          "duration": 0.32857129166666255
        },
        {
          "name": "F#2",
          "midi": 42,
          "time": 86.57139249999958,
          "velocity": 1,
          "duration": 0.4999997916666672
        },
        {
          "name": "B1",
          "midi": 35,
          "time": 87.08567799999958,
          "velocity": 0.9921259842519685,
          "duration": 0.32857129166666255
        },
        {
          "name": "C#2",
          "midi": 37,
          "time": 87.42853499999957,
          "velocity": 0.952755905511811,
          "duration": 1.3571422916666478
        }
      ],
      "controlChanges": {
        "6": [
          {
            "number": 6,
            "time": 0.1714285,
            "value": 0.12598425196850394
          }
        ],
        "7": [
          {
            "number": 7,
            "time": 0.1714285,
            "value": 0.8503937007874016
          }
        ],
        "10": [
          {
            "number": 10,
            "time": 0.1714285,
            "value": 0.5039370078740157
          }
        ],
        "11": [
          {
            "number": 11,
            "time": 79.88568099999964,
            "value": 0.6220472440944882
          },
          {
            "number": 11,
            "time": 79.8874667135413,
            "value": 0.6456692913385826
          },
          {
            "number": 11,
            "time": 79.89460956770797,
            "value": 0.6535433070866141
          },
          {
            "number": 11,
            "time": 79.89639528124964,
            "value": 0.6456692913385826
          },
          {
            "number": 11,
            "time": 80.0481809322913,
            "value": 0.9921259842519685
          },
          {
            "number": 11,
            "time": 80.05175235937463,
            "value": 0.984251968503937
          },
          {
            "number": 11,
            "time": 80.0535380729163,
            "value": 0.984251968503937
          },
          {
            "number": 11,
            "time": 80.05532378645796,
            "value": 0.9763779527559056
          },
          {
            "number": 11,
            "time": 80.05710949999963,
            "value": 0.984251968503937
          },
          {
            "number": 11,
            "time": 80.23389514062463,
            "value": 0.7637795275590551
          },
          {
            "number": 11,
            "time": 80.23568085416629,
            "value": 0.7559055118110236
          },
          {
            "number": 11,
            "time": 80.23746656770795,
            "value": 0.6299212598425197
          },
          {
            "number": 11,
            "time": 80.23925228124962,
            "value": 0.5196850393700787
          },
          {
            "number": 11,
            "time": 80.24103799479128,
            "value": 0.6299212598425197
          },
          {
            "number": 11,
            "time": 80.26068084374961,
            "value": 0.6299212598425197
          },
          {
            "number": 11,
            "time": 80.38746650520794,
            "value": 0.7637795275590551
          },
          {
            "number": 11,
            "time": 80.3892522187496,
            "value": 0.9921259842519685
          },
          {
            "number": 11,
            "time": 80.39282364583293,
            "value": 0.9921259842519685
          },
          {
            "number": 11,
            "time": 80.3946093593746,
            "value": 0.9921259842519685
          }
        ],
        "32": [
          {
            "number": 32,
            "time": 0.1714285,
            "value": 0
          }
        ],
        "100": [
          {
            "number": 100,
            "time": 0.1714285,
            "value": 0
          }
        ],
        "101": [
          {
            "number": 101,
            "time": 0.1714285,
            "value": 0
          }
        ]
      },
      "id": 5,
      "instrumentNumber": 33,
      "instrument": "electric bass (finger)",
      "instrumentFamily": "bass",
      "channelNumber": 4,
      "isPercussion": false
    },
    {
      "startTime": 10.799995500000001,
      "duration": 88.76424872916785,
      "length": 442,
      "notes": [
        {
          "name": "D4",
          "midi": 62,
          "time": 10.799995500000001,
          "velocity": 0.5748031496062992,
          "duration": 0.7571425416666386
        },
        {
          "name": "B3",
          "midi": 59,
          "time": 11.992852145833307,
          "velocity": 0.7007874015748031,
          "duration": 0.17142849999999932
        },
        {
          "name": "D#4",
          "midi": 63,
          "time": 11.999994999999974,
          "velocity": 0.8582677165354331,
          "duration": 0.17142849999999932
        },
        {
          "name": "F#4",
          "midi": 66,
          "time": 12.00713785416664,
          "velocity": 0.8582677165354331,
          "duration": 0.17142849999999932
        },
        {
          "name": "B3",
          "midi": 59,
          "time": 12.335709145833306,
          "velocity": 0.7244094488188977,
          "duration": 0.34285699999999864
        },
        {
          "name": "D#4",
          "midi": 63,
          "time": 12.342851999999972,
          "velocity": 0.8031496062992126,
          "duration": 0.34285699999999864
        },
        {
          "name": "F#4",
          "midi": 66,
          "time": 12.349994854166638,
          "velocity": 0.8267716535433071,
          "duration": 0.34285699999999864
        },
        {
          "name": "B3",
          "midi": 59,
          "time": 12.849994645833304,
          "velocity": 0.7401574803149606,
          "duration": 0.17142849999999932
        },
        {
          "name": "D#4",
          "midi": 63,
          "time": 12.85713749999997,
          "velocity": 0.8267716535433071,
          "duration": 0.17142849999999932
        },
        {
          "name": "F#4",
          "midi": 66,
          "time": 12.864280354166636,
          "velocity": 0.8582677165354331,
          "duration": 0.17142849999999932
        },
        {
          "name": "G#3",
          "midi": 56,
          "time": 13.192851645833302,
          "velocity": 0.7086614173228346,
          "duration": 0.17142849999999932
        },
        {
          "name": "C#4",
          "midi": 61,
          "time": 13.199994499999969,
          "velocity": 0.7795275590551181,
          "duration": 0.17142849999999932
        },
        {
          "name": "F4",
          "midi": 65,
          "time": 13.207137354166635,
          "velocity": 0.8031496062992126,
          "duration": 0.17142849999999932
        },
        {
          "name": "G#3",
          "midi": 56,
          "time": 13.535708645833301,
          "velocity": 0.7086614173228346,
          "duration": 0.17142849999999932
        },
        {
          "name": "C#4",
          "midi": 61,
          "time": 13.542851499999967,
          "velocity": 0.8503937007874016,
          "duration": 0.17142849999999932
        },
        {
          "name": "F4",
          "midi": 65,
          "time": 13.549994354166634,
          "velocity": 0.7322834645669292,
          "duration": 0.17142849999999932
        },
        {
          "name": "G#3",
          "midi": 56,
          "time": 13.8785656458333,
          "velocity": 0.6456692913385826,
          "duration": 0.4285712499999992
        },
        {
          "name": "C#4",
          "midi": 61,
          "time": 13.885708499999966,
          "velocity": 0.8740157480314961,
          "duration": 0.4285712499999992
        },
        {
          "name": "F4",
          "midi": 65,
          "time": 13.892851354166632,
          "velocity": 0.8267716535433071,
          "duration": 0.4285712499999992
        },
        {
          "name": "G#3",
          "midi": 56,
          "time": 14.564279645833299,
          "velocity": 0.7322834645669292,
          "duration": 0.08571424999999877
        },
        {
          "name": "C#4",
          "midi": 61,
          "time": 14.571422499999965,
          "velocity": 0.7401574803149606,
          "duration": 0.08571424999999877
        },
        {
          "name": "F4",
          "midi": 65,
          "time": 14.578565354166631,
          "velocity": 0.7322834645669292,
          "duration": 0.08571424999999877
        },
        {
          "name": "C#4",
          "midi": 61,
          "time": 14.735708145833296,
          "velocity": 0.7322834645669292,
          "duration": 0.17142849999999932
        },
        {
          "name": "F4",
          "midi": 65,
          "time": 14.742850999999963,
          "velocity": 0.9212598425196851,
          "duration": 0.17142849999999932
        },
        {
          "name": "G#4",
          "midi": 68,
          "time": 14.749993854166629,
          "velocity": 0.8582677165354331,
          "duration": 0.17142849999999932
        },
        {
          "name": "C#4",
          "midi": 61,
          "time": 15.078565145833295,
          "velocity": 0.7795275590551181,
          "duration": 0.4285712499999992
        },
        {
          "name": "F4",
          "midi": 65,
          "time": 15.085707999999961,
          "velocity": 0.8976377952755905,
          "duration": 0.4285712499999992
        },
        {
          "name": "G#4",
          "midi": 68,
          "time": 15.092850854166628,
          "velocity": 0.8818897637795275,
          "duration": 0.4285712499999992
        },
        {
          "name": "C#4",
          "midi": 61,
          "time": 15.592850645833293,
          "velocity": 0.6850393700787402,
          "duration": 0.17142849999999932
        },
        {
          "name": "F4",
          "midi": 65,
          "time": 15.59999349999996,
          "velocity": 0.7244094488188977,
          "duration": 0.17142849999999932
        },
        {
          "name": "G#4",
          "midi": 68,
          "time": 15.607136354166625,
          "velocity": 0.6692913385826772,
          "duration": 0.17142849999999932
        },
        {
          "name": "A#3",
          "midi": 58,
          "time": 15.935707645833292,
          "velocity": 0.7086614173228346,
          "duration": 0.17142849999999932
        },
        {
          "name": "D#4",
          "midi": 63,
          "time": 15.942850499999958,
          "velocity": 0.7795275590551181,
          "duration": 0.17142849999999932
        },
        {
          "name": "F#4",
          "midi": 66,
          "time": 15.949993354166624,
          "velocity": 0.8031496062992126,
          "duration": 0.17142849999999932
        },
        {
          "name": "A#3",
          "midi": 58,
          "time": 16.27856464583329,
          "velocity": 0.7086614173228346,
          "duration": 0.17142849999999754
        },
        {
          "name": "D#4",
          "midi": 63,
          "time": 16.285707499999955,
          "velocity": 0.8503937007874016,
          "duration": 0.17142849999999754
        },
        {
          "name": "F#4",
          "midi": 66,
          "time": 16.29285035416662,
          "velocity": 0.7322834645669292,
          "duration": 0.17142849999999754
        },
        {
          "name": "A#3",
          "midi": 58,
          "time": 16.621421645833284,
          "velocity": 0.6456692913385826,
          "duration": 0.5142854999999997
        },
        {
          "name": "D#4",
          "midi": 63,
          "time": 16.62856449999995,
          "velocity": 0.8740157480314961,
          "duration": 0.5142854999999997
        },
        {
          "name": "F#4",
          "midi": 66,
          "time": 16.635707354166616,
          "velocity": 0.8267716535433071,
          "duration": 0.5142854999999997
        },
        {
          "name": "A#3",
          "midi": 58,
          "time": 17.30713564583328,
          "velocity": 0.9291338582677166,
          "duration": 0.08571424999999877
        },
        {
          "name": "D#4",
          "midi": 63,
          "time": 17.314278499999947,
          "velocity": 0.9291338582677166,
          "duration": 0.08571424999999877
        },
        {
          "name": "F#4",
          "midi": 66,
          "time": 17.321421354166613,
          "velocity": 0.7322834645669292,
          "duration": 0.08571424999999877
        },
        {
          "name": "A#3",
          "midi": 58,
          "time": 17.47856414583328,
          "velocity": 0.7322834645669292,
          "duration": 0.17142849999999754
        },
        {
          "name": "D#4",
          "midi": 63,
          "time": 17.485706999999945,
          "velocity": 0.8582677165354331,
          "duration": 0.17142849999999754
        },
        {
          "name": "F#4",
          "midi": 66,
          "time": 17.49284985416661,
          "velocity": 0.8031496062992126,
          "duration": 0.17142849999999754
        },
        {
          "name": "A#3",
          "midi": 58,
          "time": 17.821421145833273,
          "velocity": 0.8031496062992126,
          "duration": 0.34285699999999864
        },
        {
          "name": "D#4",
          "midi": 63,
          "time": 17.82856399999994,
          "velocity": 0.8582677165354331,
          "duration": 0.34285699999999864
        },
        {
          "name": "F#4",
          "midi": 66,
          "time": 17.835706854166606,
          "velocity": 0.8582677165354331,
          "duration": 0.34285699999999864
        },
        {
          "name": "A#3",
          "midi": 58,
          "time": 18.33570664583327,
          "velocity": 0.7559055118110236,
          "duration": 0.17142849999999754
        },
        {
          "name": "D#4",
          "midi": 63,
          "time": 18.342849499999936,
          "velocity": 0.7795275590551181,
          "duration": 0.17142849999999754
        },
        {
          "name": "F#4",
          "midi": 66,
          "time": 18.349992354166602,
          "velocity": 0.8031496062992126,
          "duration": 0.17142849999999754
        },
        {
          "name": "B3",
          "midi": 59,
          "time": 18.678563645833265,
          "velocity": 0.9212598425196851,
          "duration": 0.17142849999999754
        },
        {
          "name": "D#4",
          "midi": 63,
          "time": 18.68570649999993,
          "velocity": 0.8582677165354331,
          "duration": 0.17142849999999754
        },
        {
          "name": "F#4",
          "midi": 66,
          "time": 18.692849354166597,
          "velocity": 0.8582677165354331,
          "duration": 0.17142849999999754
        },
        {
          "name": "B3",
          "midi": 59,
          "time": 19.02142064583326,
          "velocity": 0.8582677165354331,
          "duration": 0.17142849999999754
        },
        {
          "name": "D#4",
          "midi": 63,
          "time": 19.028563499999926,
          "velocity": 0.8818897637795275,
          "duration": 0.17142849999999754
        },
        {
          "name": "F#4",
          "midi": 66,
          "time": 19.035706354166592,
          "velocity": 0.8976377952755905,
          "duration": 0.17142849999999754
        },
        {
          "name": "B3",
          "midi": 59,
          "time": 19.364277645833255,
          "velocity": 0.9212598425196851,
          "duration": 0.17142849999999754
        },
        {
          "name": "D#4",
          "midi": 63,
          "time": 19.37142049999992,
          "velocity": 0.8582677165354331,
          "duration": 0.17142849999999754
        },
        {
          "name": "F#4",
          "midi": 66,
          "time": 19.378563354166587,
          "velocity": 0.8582677165354331,
          "duration": 0.17142849999999754
        },
        {
          "name": "B3",
          "midi": 59,
          "time": 19.70713464583325,
          "velocity": 0.8582677165354331,
          "duration": 0.17142849999999754
        },
        {
          "name": "D#4",
          "midi": 63,
          "time": 19.714277499999916,
          "velocity": 0.8818897637795275,
          "duration": 0.17142849999999754
        },
        {
          "name": "F#4",
          "midi": 66,
          "time": 19.721420354166582,
          "velocity": 0.8976377952755905,
          "duration": 0.17142849999999754
        },
        {
          "name": "B3",
          "midi": 59,
          "time": 20.049991645833245,
          "velocity": 0.9212598425196851,
          "duration": 0.08571424999999877
        },
        {
          "name": "D#4",
          "midi": 63,
          "time": 20.05713449999991,
          "velocity": 0.8582677165354331,
          "duration": 0.08571424999999877
        },
        {
          "name": "F#4",
          "midi": 66,
          "time": 20.064277354166578,
          "velocity": 0.8582677165354331,
          "duration": 0.08571424999999877
        },
        {
          "name": "C#4",
          "midi": 61,
          "time": 20.221420145833243,
          "velocity": 0.8582677165354331,
          "duration": 1.1999995000000006
        },
        {
          "name": "F#4",
          "midi": 66,
          "time": 20.22856299999991,
          "velocity": 0.8818897637795275,
          "duration": 1.1999995000000006
        },
        {
          "name": "G#4",
          "midi": 68,
          "time": 20.235705854166575,
          "velocity": 0.8976377952755905,
          "duration": 1.1999995000000006
        },
        {
          "name": "D#3",
          "midi": 51,
          "time": 23.139276072916577,
          "velocity": 0.8188976377952756,
          "duration": 1.0285709999999995
        },
        {
          "name": "G3",
          "midi": 55,
          "time": 23.310704572916578,
          "velocity": 0.8740157480314961,
          "duration": 0.5142854999999997
        },
        {
          "name": "G#3",
          "midi": 56,
          "time": 23.48213307291658,
          "velocity": 0.7874015748031497,
          "duration": 1.199999499999997
        },
        {
          "name": "G3",
          "midi": 55,
          "time": 23.824990072916577,
          "velocity": 0.8031496062992126,
          "duration": 1.0285709999999995
        },
        {
          "name": "D#3",
          "midi": 51,
          "time": 24.167847072916576,
          "velocity": 0.8818897637795275,
          "duration": 1.5428564999999992
        },
        {
          "name": "G#3",
          "midi": 56,
          "time": 24.682132572916576,
          "velocity": 0.8976377952755905,
          "duration": 1.0285709999999995
        },
        {
          "name": "G3",
          "midi": 55,
          "time": 24.853561072916577,
          "velocity": 0.7874015748031497,
          "duration": 0.8571424999999984
        },
        {
          "name": "A#2",
          "midi": 46,
          "time": 25.710703572916575,
          "velocity": 0.8503937007874016,
          "duration": 1.028571000000003
        },
        {
          "name": "F3",
          "midi": 53,
          "time": 25.882132072916576,
          "velocity": 0.7952755905511811,
          "duration": 1.1142852500000018
        },
        {
          "name": "A#3",
          "midi": 58,
          "time": 26.053560572916577,
          "velocity": 0.8267716535433071,
          "duration": 0.5142854999999997
        },
        {
          "name": "D4",
          "midi": 62,
          "time": 26.22498907291658,
          "velocity": 0.8188976377952756,
          "duration": 0.7714282499999996
        },
        {
          "name": "A#3",
          "midi": 58,
          "time": 26.567846072916577,
          "velocity": 0.84251968503937,
          "duration": 0.42857125000000096
        },
        {
          "name": "A#2",
          "midi": 46,
          "time": 26.739274572916578,
          "velocity": 0.84251968503937,
          "duration": 0.25714274999999986
        },
        {
          "name": "A#2",
          "midi": 46,
          "time": 27.032131593749913,
          "velocity": 0.8346456692913385,
          "duration": 1.0785709791666669
        },
        {
          "name": "F3",
          "midi": 53,
          "time": 27.074988718749914,
          "velocity": 0.7874015748031497,
          "duration": 0.1785713541666638
        },
        {
          "name": "A#3",
          "midi": 58,
          "time": 27.08213157291658,
          "velocity": 0.84251968503937,
          "duration": 0.34285699999999864
        },
        {
          "name": "D4",
          "midi": 62,
          "time": 27.096417281249913,
          "velocity": 0.8818897637795275,
          "duration": 0.4999997916666672
        },
        {
          "name": "F3",
          "midi": 53,
          "time": 27.253560072916578,
          "velocity": 0.8582677165354331,
          "duration": 1.1142852500000018
        },
        {
          "name": "A#3",
          "midi": 58,
          "time": 27.42498857291658,
          "velocity": 0.905511811023622,
          "duration": 0.5142854999999997
        },
        {
          "name": "D4",
          "midi": 62,
          "time": 27.59641707291658,
          "velocity": 0.84251968503937,
          "duration": 0.7714282499999996
        },
        {
          "name": "A#3",
          "midi": 58,
          "time": 27.93927407291658,
          "velocity": 0.8503937007874016,
          "duration": 0.42857125000000096
        },
        {
          "name": "A#2",
          "midi": 46,
          "time": 28.11070257291658,
          "velocity": 0.905511811023622,
          "duration": 0.25714274999999986
        },
        {
          "name": "G2",
          "midi": 43,
          "time": 28.45355957291658,
          "velocity": 0.7874015748031497,
          "duration": 1.2857137500000029
        },
        {
          "name": "F3",
          "midi": 53,
          "time": 28.62498807291658,
          "velocity": 0.8661417322834646,
          "duration": 1.1142852500000018
        },
        {
          "name": "A#3",
          "midi": 58,
          "time": 28.79641657291658,
          "velocity": 0.905511811023622,
          "duration": 0.9428567500000007
        },
        {
          "name": "C4",
          "midi": 60,
          "time": 28.96784507291658,
          "velocity": 0.7952755905511811,
          "duration": 0.7714282499999996
        },
        {
          "name": "A#3",
          "midi": 58,
          "time": 29.796416156249915,
          "velocity": 0.8740157480314961,
          "duration": 1.2714280416666632
        },
        {
          "name": "D4",
          "midi": 62,
          "time": 29.817844718749914,
          "velocity": 0.8503937007874016,
          "duration": 1.2714280416666632
        },
        {
          "name": "F4",
          "midi": 65,
          "time": 29.839273281249913,
          "velocity": 0.8740157480314961,
          "duration": 1.2714280416666632
        },
        {
          "name": "C3",
          "midi": 48,
          "time": 31.196415572916575,
          "velocity": 0.84251968503937,
          "duration": 1.2857137500000029
        },
        {
          "name": "G3",
          "midi": 55,
          "time": 31.367844072916576,
          "velocity": 0.8661417322834646,
          "duration": 0.8571425000000019
        },
        {
          "name": "A#3",
          "midi": 58,
          "time": 31.539272572916577,
          "velocity": 0.905511811023622,
          "duration": 0.5142855000000033
        },
        {
          "name": "D#4",
          "midi": 63,
          "time": 31.710701072916578,
          "velocity": 0.8503937007874016,
          "duration": 0.7714282499999996
        },
        {
          "name": "A#3",
          "midi": 58,
          "time": 32.05355807291658,
          "velocity": 0.8740157480314961,
          "duration": 0.4285712499999974
        },
        {
          "name": "G3",
          "midi": 55,
          "time": 32.22498657291658,
          "velocity": 0.8740157480314961,
          "duration": 0.25714274999999986
        },
        {
          "name": "C3",
          "midi": 48,
          "time": 32.51784359374991,
          "velocity": 0.8031496062992126,
          "duration": 0.6499997291666588
        },
        {
          "name": "G3",
          "midi": 55,
          "time": 32.546415010416574,
          "velocity": 0.7952755905511811,
          "duration": 0.6214283124999938
        },
        {
          "name": "A#3",
          "midi": 58,
          "time": 32.58927213541657,
          "velocity": 0.8110236220472441,
          "duration": 0.5785711874999961
        },
        {
          "name": "D#4",
          "midi": 63,
          "time": 32.6249864062499,
          "velocity": 0.84251968503937,
          "duration": 0.5428569166666648
        },
        {
          "name": "A#2",
          "midi": 46,
          "time": 33.2035575937499,
          "velocity": 0.84251968503937,
          "duration": 0.6499997291666588
        },
        {
          "name": "F3",
          "midi": 53,
          "time": 33.2464147187499,
          "velocity": 0.7874015748031497,
          "duration": 0.6071426041666612
        },
        {
          "name": "A#3",
          "midi": 58,
          "time": 33.27498613541656,
          "velocity": 0.8740157480314961,
          "duration": 0.5785711874999961
        },
        {
          "name": "D4",
          "midi": 62,
          "time": 33.289271843749894,
          "velocity": 0.8818897637795275,
          "duration": 0.5285712083333323
        },
        {
          "name": "G#2",
          "midi": 44,
          "time": 33.93927157291656,
          "velocity": 0.8818897637795275,
          "duration": 2.5714274999999915
        },
        {
          "name": "G3",
          "midi": 55,
          "time": 34.11070007291656,
          "velocity": 0.8110236220472441,
          "duration": 0.8571424999999948
        },
        {
          "name": "G#3",
          "midi": 56,
          "time": 34.282128572916555,
          "velocity": 0.905511811023622,
          "duration": 0.5142854999999997
        },
        {
          "name": "D#4",
          "midi": 63,
          "time": 34.45355707291655,
          "velocity": 0.8740157480314961,
          "duration": 1.3714280000000016
        },
        {
          "name": "G#3",
          "midi": 56,
          "time": 34.796414072916555,
          "velocity": 0.8503937007874016,
          "duration": 0.5142854999999997
        },
        {
          "name": "G3",
          "midi": 55,
          "time": 34.96784257291655,
          "velocity": 0.8110236220472441,
          "duration": 0.6857140000000044
        },
        {
          "name": "G#3",
          "midi": 56,
          "time": 35.310699572916555,
          "velocity": 0.84251968503937,
          "duration": 0.8571425000000019
        },
        {
          "name": "G3",
          "midi": 55,
          "time": 35.65355657291656,
          "velocity": 0.8661417322834646,
          "duration": 0.6857139999999973
        },
        {
          "name": "D#4",
          "midi": 63,
          "time": 35.824985072916554,
          "velocity": 0.8818897637795275,
          "duration": 0.8571424999999948
        },
        {
          "name": "G#3",
          "midi": 56,
          "time": 36.16784207291656,
          "velocity": 0.8346456692913385,
          "duration": 0.5142854999999926
        },
        {
          "name": "G3",
          "midi": 55,
          "time": 36.339270572916554,
          "velocity": 0.8582677165354331,
          "duration": 0.3428569999999951
        },
        {
          "name": "A2",
          "midi": 45,
          "time": 36.51069907291655,
          "velocity": 0.8188976377952756,
          "duration": 0.17142849999999754
        },
        {
          "name": "A#2",
          "midi": 46,
          "time": 36.68212757291655,
          "velocity": 0.8976377952755905,
          "duration": 1.19999949999999
        },
        {
          "name": "F3",
          "midi": 53,
          "time": 36.85355607291655,
          "velocity": 0.7874015748031497,
          "duration": 0.8571424999999948
        },
        {
          "name": "A#3",
          "midi": 58,
          "time": 37.024984572916544,
          "velocity": 0.8976377952755905,
          "duration": 0.5142854999999997
        },
        {
          "name": "D4",
          "midi": 62,
          "time": 37.19641307291654,
          "velocity": 0.889763779527559,
          "duration": 0.6857139999999973
        },
        {
          "name": "A#3",
          "midi": 58,
          "time": 37.539270072916544,
          "velocity": 0.8503937007874016,
          "duration": 0.3428569999999951
        },
        {
          "name": "F3",
          "midi": 53,
          "time": 37.71069857291654,
          "velocity": 0.7874015748031497,
          "duration": 0.17142849999999754
        },
        {
          "name": "A#2",
          "midi": 46,
          "time": 37.982127031249874,
          "velocity": 0.8346456692913385,
          "duration": 1.2714280416666597
        },
        {
          "name": "F3",
          "midi": 53,
          "time": 38.02498415624987,
          "velocity": 0.84251968503937,
          "duration": 0.37142841666666015
        },
        {
          "name": "A#3",
          "midi": 58,
          "time": 38.0606984270832,
          "velocity": 0.7874015748031497,
          "duration": 0.5071426458333264
        },
        {
          "name": "D#4",
          "midi": 63,
          "time": 38.096412697916534,
          "velocity": 0.7952755905511811,
          "duration": 0.471428374999995
        },
        {
          "name": "F3",
          "midi": 53,
          "time": 38.39641257291653,
          "velocity": 0.8976377952755905,
          "duration": 0.5142854999999997
        },
        {
          "name": "D4",
          "midi": 62,
          "time": 38.56784107291653,
          "velocity": 0.8188976377952756,
          "duration": 0.8571425000000019
        },
        {
          "name": "A#3",
          "midi": 58,
          "time": 38.56784107291653,
          "velocity": 0.8188976377952756,
          "duration": 0.8571425000000019
        },
        {
          "name": "F3",
          "midi": 53,
          "time": 38.91069807291653,
          "velocity": 0.8582677165354331,
          "duration": 0.5142854999999997
        },
        {
          "name": "G#2",
          "midi": 44,
          "time": 39.253555072916534,
          "velocity": 0.8267716535433071,
          "duration": 0.17142849999999754
        },
        {
          "name": "G2",
          "midi": 43,
          "time": 39.42498357291653,
          "velocity": 0.84251968503937,
          "duration": 1.19999949999999
        },
        {
          "name": "F3",
          "midi": 53,
          "time": 39.59641207291653,
          "velocity": 0.8503937007874016,
          "duration": 1.0285709999999924
        },
        {
          "name": "A#3",
          "midi": 58,
          "time": 39.767840572916526,
          "velocity": 0.8976377952755905,
          "duration": 0.8571424999999948
        },
        {
          "name": "C4",
          "midi": 60,
          "time": 39.939269072916524,
          "velocity": 0.7874015748031497,
          "duration": 0.6857139999999973
        },
        {
          "name": "G3",
          "midi": 55,
          "time": 40.75355444791652,
          "velocity": 0.8740157480314961,
          "duration": 1.4142851249999921
        },
        {
          "name": "B3",
          "midi": 59,
          "time": 40.78926871874985,
          "velocity": 0.7874015748031497,
          "duration": 1.0357138541666657
        },
        {
          "name": "D4",
          "midi": 62,
          "time": 40.81069728124985,
          "velocity": 0.8188976377952756,
          "duration": 0.8428567916666694
        },
        {
          "name": "F3",
          "midi": 53,
          "time": 41.13926857291652,
          "velocity": 0.889763779527559,
          "duration": 1.0285709999999924
        },
        {
          "name": "F4",
          "midi": 65,
          "time": 41.31069707291652,
          "velocity": 0.7874015748031497,
          "duration": 0.8571424999999948
        },
        {
          "name": "D4",
          "midi": 62,
          "time": 41.65355407291652,
          "velocity": 0.8582677165354331,
          "duration": 0.5142854999999926
        },
        {
          "name": "A#3",
          "midi": 58,
          "time": 41.82498257291652,
          "velocity": 0.8503937007874016,
          "duration": 0.17142849999999754
        },
        {
          "name": "G#3",
          "midi": 56,
          "time": 41.996411072916516,
          "velocity": 0.8503937007874016,
          "duration": 0.17142849999999754
        },
        {
          "name": "G3",
          "midi": 55,
          "time": 42.33926807291651,
          "velocity": 0.84251968503937,
          "duration": 0.8571424999999948
        },
        {
          "name": "A#3",
          "midi": 58,
          "time": 42.51069657291651,
          "velocity": 0.8582677165354331,
          "duration": 0.9428567499999971
        },
        {
          "name": "D#4",
          "midi": 63,
          "time": 42.682125072916506,
          "velocity": 0.8582677165354331,
          "duration": 0.7714282499999996
        },
        {
          "name": "F4",
          "midi": 65,
          "time": 43.02498207291651,
          "velocity": 0.7952755905511811,
          "duration": 0.4285712499999974
        },
        {
          "name": "A#2",
          "midi": 46,
          "time": 43.196410572916506,
          "velocity": 0.8503937007874016,
          "duration": 0.25714274999999986
        },
        {
          "name": "C3",
          "midi": 48,
          "time": 43.50355330208317,
          "velocity": 0.8661417322834646,
          "duration": 0.5142854999999997
        },
        {
          "name": "G3",
          "midi": 55,
          "time": 43.532124718749834,
          "velocity": 0.8661417322834646,
          "duration": 0.5142854999999997
        },
        {
          "name": "A#3",
          "midi": 58,
          "time": 43.55355328124983,
          "velocity": 0.8267716535433071,
          "duration": 0.5142854999999997
        },
        {
          "name": "A#2",
          "midi": 46,
          "time": 44.174981593749834,
          "velocity": 0.8267716535433071,
          "duration": 0.6499997291666659
        },
        {
          "name": "G3",
          "midi": 55,
          "time": 44.210695864583165,
          "velocity": 0.8661417322834646,
          "duration": 0.6142854583333346
        },
        {
          "name": "A#3",
          "midi": 58,
          "time": 44.232124427083164,
          "velocity": 0.8740157480314961,
          "duration": 0.5928568958333358
        },
        {
          "name": "G#2",
          "midi": 44,
          "time": 44.9106955729165,
          "velocity": 0.8503937007874016,
          "duration": 2.742855999999989
        },
        {
          "name": "D#3",
          "midi": 51,
          "time": 45.0821240729165,
          "velocity": 0.8110236220472441,
          "duration": 0.8571424999999948
        },
        {
          "name": "A#3",
          "midi": 58,
          "time": 45.2535525729165,
          "velocity": 0.8740157480314961,
          "duration": 0.5142854999999997
        },
        {
          "name": "D#4",
          "midi": 63,
          "time": 45.424981072916495,
          "velocity": 0.8740157480314961,
          "duration": 0.8571424999999948
        },
        {
          "name": "A#3",
          "midi": 58,
          "time": 45.7678380729165,
          "velocity": 0.8818897637795275,
          "duration": 1.8857134999999943
        },
        {
          "name": "D#3",
          "midi": 51,
          "time": 45.939266572916495,
          "velocity": 0.8976377952755905,
          "duration": 1.7142849999999967
        },
        {
          "name": "G3",
          "midi": 55,
          "time": 46.11069507291649,
          "velocity": 0.84251968503937,
          "duration": 1.5428564999999992
        },
        {
          "name": "F4",
          "midi": 65,
          "time": 46.28212357291649,
          "velocity": 0.7874015748031497,
          "duration": 0.5142854999999997
        },
        {
          "name": "D#4",
          "midi": 63,
          "time": 46.79640907291649,
          "velocity": 0.8110236220472441,
          "duration": 0.8571425000000019
        },
        {
          "name": "G#2",
          "midi": 44,
          "time": 47.65355157291649,
          "velocity": 0.8188976377952756,
          "duration": 2.742855999999989
        },
        {
          "name": "D#3",
          "midi": 51,
          "time": 47.82498007291649,
          "velocity": 0.8661417322834646,
          "duration": 0.8571424999999948
        },
        {
          "name": "A#3",
          "midi": 58,
          "time": 47.996408572916486,
          "velocity": 0.8267716535433071,
          "duration": 0.5142854999999997
        },
        {
          "name": "D#4",
          "midi": 63,
          "time": 48.167837072916484,
          "velocity": 0.889763779527559,
          "duration": 0.8571424999999948
        },
        {
          "name": "A#3",
          "midi": 58,
          "time": 48.510694072916486,
          "velocity": 0.8188976377952756,
          "duration": 1.8857134999999943
        },
        {
          "name": "D#3",
          "midi": 51,
          "time": 48.682122572916484,
          "velocity": 0.7952755905511811,
          "duration": 1.7142849999999967
        },
        {
          "name": "G3",
          "midi": 55,
          "time": 48.85355107291648,
          "velocity": 0.8503937007874016,
          "duration": 1.5428564999999992
        },
        {
          "name": "F4",
          "midi": 65,
          "time": 49.02497957291648,
          "velocity": 0.8582677165354331,
          "duration": 0.5142854999999997
        },
        {
          "name": "D#4",
          "midi": 63,
          "time": 49.53926507291648,
          "velocity": 0.8267716535433071,
          "duration": 0.8571425000000019
        },
        {
          "name": "G2",
          "midi": 43,
          "time": 50.39640757291648,
          "velocity": 0.7874015748031497,
          "duration": 2.5714274999999915
        },
        {
          "name": "F3",
          "midi": 53,
          "time": 50.56783607291648,
          "velocity": 0.8267716535433071,
          "duration": 0.8571424999999948
        },
        {
          "name": "A#3",
          "midi": 58,
          "time": 50.739264572916476,
          "velocity": 0.905511811023622,
          "duration": 0.5142854999999997
        },
        {
          "name": "C4",
          "midi": 60,
          "time": 50.91069307291647,
          "velocity": 0.8188976377952756,
          "duration": 0.8571425000000019
        },
        {
          "name": "A#3",
          "midi": 58,
          "time": 51.253550072916475,
          "velocity": 0.8976377952755905,
          "duration": 1.3714280000000016
        },
        {
          "name": "F3",
          "midi": 53,
          "time": 51.42497857291647,
          "velocity": 0.7952755905511811,
          "duration": 1.3714280000000016
        },
        {
          "name": "F4",
          "midi": 65,
          "time": 51.767835572916475,
          "velocity": 0.8503937007874016,
          "duration": 0.5142854999999997
        },
        {
          "name": "C4",
          "midi": 60,
          "time": 52.282121072916475,
          "velocity": 0.7952755905511811,
          "duration": 0.8571424999999948
        },
        {
          "name": "A#3",
          "midi": 58,
          "time": 52.62497807291648,
          "velocity": 0.8740157480314961,
          "duration": 0.5142854999999926
        },
        {
          "name": "F3",
          "midi": 53,
          "time": 52.796406572916474,
          "velocity": 0.8503937007874016,
          "duration": 0.3428569999999951
        },
        {
          "name": "A#2",
          "midi": 46,
          "time": 52.96783507291647,
          "velocity": 0.8976377952755905,
          "duration": 0.17142849999999754
        },
        {
          "name": "C3",
          "midi": 48,
          "time": 53.13926357291647,
          "velocity": 0.8346456692913385,
          "duration": 2.742855999999996
        },
        {
          "name": "G3",
          "midi": 55,
          "time": 53.31069207291647,
          "velocity": 0.8188976377952756,
          "duration": 1.0285709999999995
        },
        {
          "name": "C4",
          "midi": 60,
          "time": 53.482120572916465,
          "velocity": 0.8188976377952756,
          "duration": 0.5142854999999997
        },
        {
          "name": "D#4",
          "midi": 63,
          "time": 53.65354907291646,
          "velocity": 0.8503937007874016,
          "duration": 0.8571425000000019
        },
        {
          "name": "C4",
          "midi": 60,
          "time": 53.996406072916464,
          "velocity": 0.8818897637795275,
          "duration": 0.5142854999999997
        },
        {
          "name": "G3",
          "midi": 55,
          "time": 54.33926307291647,
          "velocity": 0.8582677165354331,
          "duration": 0.5142854999999997
        },
        {
          "name": "A#3",
          "midi": 58,
          "time": 54.510691572916464,
          "velocity": 0.889763779527559,
          "duration": 0.8571425000000019
        },
        {
          "name": "G3",
          "midi": 55,
          "time": 54.853548572916466,
          "velocity": 0.7952755905511811,
          "duration": 0.6857139999999973
        },
        {
          "name": "D#4",
          "midi": 63,
          "time": 55.024977072916464,
          "velocity": 0.8188976377952756,
          "duration": 0.8571425000000019
        },
        {
          "name": "A#3",
          "midi": 58,
          "time": 55.367834072916466,
          "velocity": 0.8110236220472441,
          "duration": 0.5142854999999997
        },
        {
          "name": "G3",
          "midi": 55,
          "time": 55.53926257291646,
          "velocity": 0.8110236220472441,
          "duration": 0.3428570000000022
        },
        {
          "name": "A2",
          "midi": 45,
          "time": 55.882119572916466,
          "velocity": 0.8976377952755905,
          "duration": 2.399998999999994
        },
        {
          "name": "G3",
          "midi": 55,
          "time": 56.05354807291646,
          "velocity": 0.7874015748031497,
          "duration": 0.8571424999999948
        },
        {
          "name": "C4",
          "midi": 60,
          "time": 56.22497657291646,
          "velocity": 0.8110236220472441,
          "duration": 0.5142854999999997
        },
        {
          "name": "D#4",
          "midi": 63,
          "time": 56.39640507291646,
          "velocity": 0.7874015748031497,
          "duration": 0.8571425000000019
        },
        {
          "name": "C4",
          "midi": 60,
          "time": 56.73926207291646,
          "velocity": 0.84251968503937,
          "duration": 1.5428564999999992
        },
        {
          "name": "G3",
          "midi": 55,
          "time": 56.91069057291646,
          "velocity": 0.8582677165354331,
          "duration": 1.3714280000000016
        },
        {
          "name": "F4",
          "midi": 65,
          "time": 57.25354757291646,
          "velocity": 0.8267716535433071,
          "duration": 0.5142854999999997
        },
        {
          "name": "D#4",
          "midi": 63,
          "time": 57.76783307291646,
          "velocity": 0.7874015748031497,
          "duration": 0.5142854999999997
        },
        {
          "name": "G3",
          "midi": 55,
          "time": 58.28211857291646,
          "velocity": 0.8267716535433071,
          "duration": 0.34285699999998087
        },
        {
          "name": "G#2",
          "midi": 44,
          "time": 58.62497557291644,
          "velocity": 0.8661417322834646,
          "duration": 1.0285709999999924
        },
        {
          "name": "D#3",
          "midi": 51,
          "time": 58.79640407291644,
          "velocity": 0.8661417322834646,
          "duration": 0.8571424999999948
        },
        {
          "name": "A#3",
          "midi": 58,
          "time": 58.967832572916436,
          "velocity": 0.8031496062992126,
          "duration": 0.6857139999999973
        },
        {
          "name": "D#4",
          "midi": 63,
          "time": 59.13926107291643,
          "velocity": 0.8267716535433071,
          "duration": 0.5142854999999997
        },
        {
          "name": "G#2",
          "midi": 44,
          "time": 59.65354657291643,
          "velocity": 0.8818897637795275,
          "duration": 0.08571425000000232
        },
        {
          "name": "G#2",
          "midi": 44,
          "time": 59.796403656249765,
          "velocity": 0.905511811023622,
          "duration": 0.7142854166666623
        },
        {
          "name": "D#3",
          "midi": 51,
          "time": 59.817832218749764,
          "velocity": 0.8740157480314961,
          "duration": 0.6928568541666635
        },
        {
          "name": "A#3",
          "midi": 58,
          "time": 59.83926078124976,
          "velocity": 0.8582677165354331,
          "duration": 0.6714282916666647
        },
        {
          "name": "D#4",
          "midi": 63,
          "time": 59.86783219791643,
          "velocity": 0.8110236220472441,
          "duration": 0.6428568749999997
        },
        {
          "name": "G#2",
          "midi": 44,
          "time": 60.59640332291643,
          "velocity": 0.8346456692913385,
          "duration": 0.7214282708333286
        },
        {
          "name": "D#3",
          "midi": 51,
          "time": 60.65354615624976,
          "velocity": 0.905511811023622,
          "duration": 0.7071425624999961
        },
        {
          "name": "A#3",
          "midi": 58,
          "time": 60.682117572916425,
          "velocity": 0.7952755905511811,
          "duration": 0.678571145833331
        },
        {
          "name": "D#4",
          "midi": 63,
          "time": 60.69640328124976,
          "velocity": 0.8661417322834646,
          "duration": 0.6642854374999985
        },
        {
          "name": "F2",
          "midi": 41,
          "time": 61.36783157291642,
          "velocity": 0.7086614173228346,
          "duration": 1.3714279999999945
        },
        {
          "name": "C3",
          "midi": 48,
          "time": 61.53926007291642,
          "velocity": 0.6850393700787402,
          "duration": 1.199999499999997
        },
        {
          "name": "G#3",
          "midi": 56,
          "time": 61.71068857291642,
          "velocity": 0.8582677165354331,
          "duration": 0.5142854999999997
        },
        {
          "name": "D#4",
          "midi": 63,
          "time": 61.882117072916415,
          "velocity": 0.905511811023622,
          "duration": 0.8571425000000019
        },
        {
          "name": "G#3",
          "midi": 56,
          "time": 62.22497407291642,
          "velocity": 0.8267716535433071,
          "duration": 0.5142854999999997
        },
        {
          "name": "F3",
          "midi": 53,
          "time": 62.396402572916415,
          "velocity": 0.8110236220472441,
          "duration": 0.3428570000000022
        },
        {
          "name": "G2",
          "midi": 43,
          "time": 62.73925957291642,
          "velocity": 0.7165354330708661,
          "duration": 1.2857137499999922
        },
        {
          "name": "D3",
          "midi": 50,
          "time": 62.910688072916415,
          "velocity": 0.6929133858267716,
          "duration": 1.1142852499999947
        },
        {
          "name": "A#3",
          "midi": 58,
          "time": 63.08211657291641,
          "velocity": 0.8346456692913385,
          "duration": 0.5142854999999997
        },
        {
          "name": "D#4",
          "midi": 63,
          "time": 63.25354507291641,
          "velocity": 0.8110236220472441,
          "duration": 0.7714282499999996
        },
        {
          "name": "A#3",
          "midi": 58,
          "time": 63.59640207291641,
          "velocity": 0.7874015748031497,
          "duration": 0.4285712499999974
        },
        {
          "name": "G3",
          "midi": 55,
          "time": 63.76783057291641,
          "velocity": 0.8661417322834646,
          "duration": 0.25714274999999986
        },
        {
          "name": "D#4",
          "midi": 63,
          "time": 64.09283043749974,
          "velocity": 0.8661417322834646,
          "duration": 0.4499998125000104
        },
        {
          "name": "G#4",
          "midi": 68,
          "time": 64.11425899999975,
          "velocity": 0.9133858267716536,
          "duration": 0.4285712500000045
        },
        {
          "name": "C5",
          "midi": 72,
          "time": 64.14283041666641,
          "velocity": 0.8188976377952756,
          "duration": 0.39999983333333944
        },
        {
          "name": "D#4",
          "midi": 63,
          "time": 64.59997308333308,
          "velocity": 0.8188976377952756,
          "duration": 0.7428568333333345
        },
        {
          "name": "G#4",
          "midi": 68,
          "time": 64.62854449999975,
          "velocity": 0.905511811023622,
          "duration": 0.7428568333333345
        },
        {
          "name": "C5",
          "midi": 72,
          "time": 64.64997306249975,
          "velocity": 0.84251968503937,
          "duration": 0.7428568333333345
        },
        {
          "name": "F5",
          "midi": 77,
          "time": 65.48568699999976,
          "velocity": 1,
          "duration": 0.6857139999999902
        },
        {
          "name": "A#3",
          "midi": 58,
          "time": 66.84997214583309,
          "velocity": 0.8503937007874016,
          "duration": 0.2999998750000117
        },
        {
          "name": "D#4",
          "midi": 63,
          "time": 66.85711499999977,
          "velocity": 0.7716535433070866,
          "duration": 0.2999998750000117
        },
        {
          "name": "F#4",
          "midi": 66,
          "time": 66.86425785416644,
          "velocity": 0.905511811023622,
          "duration": 0.2999998750000117
        },
        {
          "name": "A#3",
          "midi": 58,
          "time": 67.21425770833312,
          "velocity": 0.889763779527559,
          "duration": 0.028571416666665073
        },
        {
          "name": "A#3",
          "midi": 58,
          "time": 67.36425764583312,
          "velocity": 0.8503937007874016,
          "duration": 0.2999998750000117
        },
        {
          "name": "D#4",
          "midi": 63,
          "time": 67.3714004999998,
          "velocity": 0.8503937007874016,
          "duration": 0.2999998750000117
        },
        {
          "name": "F#4",
          "midi": 66,
          "time": 67.37854335416647,
          "velocity": 0.8740157480314961,
          "duration": 0.2999998750000117
        },
        {
          "name": "A#3",
          "midi": 58,
          "time": 67.70711464583314,
          "velocity": 0.8818897637795275,
          "duration": 0.057142833333344356
        },
        {
          "name": "D#4",
          "midi": 63,
          "time": 67.71425749999982,
          "velocity": 0.7795275590551181,
          "duration": 0.057142833333344356
        },
        {
          "name": "F#4",
          "midi": 66,
          "time": 67.72140035416649,
          "velocity": 0.8346456692913385,
          "duration": 0.057142833333344356
        },
        {
          "name": "A#3",
          "midi": 58,
          "time": 67.89997170833317,
          "velocity": 0.7952755905511811,
          "duration": 0.028571416666665073
        },
        {
          "name": "A#3",
          "midi": 58,
          "time": 68.04997164583317,
          "velocity": 0.84251968503937,
          "duration": 0.028571416666679283
        },
        {
          "name": "D#4",
          "midi": 63,
          "time": 68.05711449999984,
          "velocity": 0.905511811023622,
          "duration": 0.028571416666679283
        },
        {
          "name": "F#4",
          "midi": 66,
          "time": 68.06425735416651,
          "velocity": 0.8582677165354331,
          "duration": 0.028571416666679283
        },
        {
          "name": "C#4",
          "midi": 61,
          "time": 68.2214001458332,
          "velocity": 0.8818897637795275,
          "duration": 0.2999998750000117
        },
        {
          "name": "F4",
          "midi": 65,
          "time": 68.22854299999987,
          "velocity": 0.905511811023622,
          "duration": 0.2999998750000117
        },
        {
          "name": "G#4",
          "midi": 68,
          "time": 68.23568585416655,
          "velocity": 0.8503937007874016,
          "duration": 0.2999998750000117
        },
        {
          "name": "C#4",
          "midi": 61,
          "time": 68.58568570833323,
          "velocity": 0.8267716535433071,
          "duration": 0.028571416666665073
        },
        {
          "name": "C#4",
          "midi": 61,
          "time": 68.73568564583323,
          "velocity": 0.7716535433070866,
          "duration": 0.2999998750000117
        },
        {
          "name": "F4",
          "midi": 65,
          "time": 68.7428284999999,
          "velocity": 0.8503937007874016,
          "duration": 0.2999998750000117
        },
        {
          "name": "G#4",
          "midi": 68,
          "time": 68.74997135416658,
          "velocity": 0.9133858267716536,
          "duration": 0.2999998750000117
        },
        {
          "name": "C#4",
          "midi": 61,
          "time": 69.07854264583325,
          "velocity": 0.7795275590551181,
          "duration": 0.057142833333344356
        },
        {
          "name": "F4",
          "midi": 65,
          "time": 69.08568549999993,
          "velocity": 0.8503937007874016,
          "duration": 0.057142833333344356
        },
        {
          "name": "G#4",
          "midi": 68,
          "time": 69.0928283541666,
          "velocity": 0.8110236220472441,
          "duration": 0.057142833333344356
        },
        {
          "name": "C#4",
          "midi": 61,
          "time": 69.27139970833328,
          "velocity": 0.8346456692913385,
          "duration": 0.028571416666665073
        },
        {
          "name": "C#4",
          "midi": 61,
          "time": 69.42139964583328,
          "velocity": 0.84251968503937,
          "duration": 0.47142837500001633
        },
        {
          "name": "F4",
          "midi": 65,
          "time": 69.42854249999995,
          "velocity": 0.8976377952755905,
          "duration": 0.47142837500001633
        },
        {
          "name": "G#4",
          "midi": 68,
          "time": 69.43568535416662,
          "velocity": 0.8188976377952756,
          "duration": 0.47142837500001633
        },
        {
          "name": "C#4",
          "midi": 61,
          "time": 69.95711370833331,
          "velocity": 0.7874015748031497,
          "duration": 0.028571416666665073
        },
        {
          "name": "C#4",
          "midi": 61,
          "time": 70.10711364583331,
          "velocity": 0.84251968503937,
          "duration": 0.2999998750000117
        },
        {
          "name": "F4",
          "midi": 65,
          "time": 70.11425649999998,
          "velocity": 0.7952755905511811,
          "duration": 0.2999998750000117
        },
        {
          "name": "G#4",
          "midi": 68,
          "time": 70.12139935416666,
          "velocity": 0.8188976377952756,
          "duration": 0.2999998750000117
        },
        {
          "name": "C#4",
          "midi": 61,
          "time": 70.44997064583333,
          "velocity": 0.8818897637795275,
          "duration": 0.057142833333344356
        },
        {
          "name": "F4",
          "midi": 65,
          "time": 70.4571135,
          "velocity": 0.8188976377952756,
          "duration": 0.057142833333344356
        },
        {
          "name": "G#4",
          "midi": 68,
          "time": 70.46425635416668,
          "velocity": 0.889763779527559,
          "duration": 0.057142833333344356
        },
        {
          "name": "C#4",
          "midi": 61,
          "time": 70.64282770833336,
          "velocity": 0.9133858267716536,
          "duration": 0.028571416666665073
        },
        {
          "name": "C#4",
          "midi": 61,
          "time": 70.79282764583336,
          "velocity": 0.8976377952755905,
          "duration": 0.028571416666679283
        },
        {
          "name": "F4",
          "midi": 65,
          "time": 70.79997050000003,
          "velocity": 0.8818897637795275,
          "duration": 0.028571416666679283
        },
        {
          "name": "G#4",
          "midi": 68,
          "time": 70.8071133541667,
          "velocity": 0.7716535433070866,
          "duration": 0.028571416666679283
        },
        {
          "name": "A#3",
          "midi": 58,
          "time": 70.96425614583339,
          "velocity": 0.7874015748031497,
          "duration": 0.2999998750000117
        },
        {
          "name": "D#4",
          "midi": 63,
          "time": 70.97139900000006,
          "velocity": 0.8976377952755905,
          "duration": 0.2999998750000117
        },
        {
          "name": "F#4",
          "midi": 66,
          "time": 70.97854185416674,
          "velocity": 0.7716535433070866,
          "duration": 0.2999998750000117
        },
        {
          "name": "A#3",
          "midi": 58,
          "time": 71.32854170833342,
          "velocity": 0.8661417322834646,
          "duration": 0.028571416666665073
        },
        {
          "name": "A#3",
          "midi": 58,
          "time": 71.47854164583342,
          "velocity": 0.8031496062992126,
          "duration": 0.2999998750000117
        },
        {
          "name": "D#4",
          "midi": 63,
          "time": 71.48568450000009,
          "velocity": 0.7716535433070866,
          "duration": 0.2999998750000117
        },
        {
          "name": "F#4",
          "midi": 66,
          "time": 71.49282735416676,
          "velocity": 0.8267716535433071,
          "duration": 0.2999998750000117
        },
        {
          "name": "A#3",
          "midi": 58,
          "time": 71.82139864583344,
          "velocity": 0.8346456692913385,
          "duration": 0.057142833333344356
        },
        {
          "name": "D#4",
          "midi": 63,
          "time": 71.82854150000011,
          "velocity": 0.8267716535433071,
          "duration": 0.057142833333344356
        },
        {
          "name": "F#4",
          "midi": 66,
          "time": 71.83568435416679,
          "velocity": 0.8582677165354331,
          "duration": 0.057142833333344356
        },
        {
          "name": "A#3",
          "midi": 58,
          "time": 72.01425570833347,
          "velocity": 0.8740157480314961,
          "duration": 0.028571416666665073
        },
        {
          "name": "A#3",
          "midi": 58,
          "time": 72.16425564583346,
          "velocity": 0.7952755905511811,
          "duration": 0.028571416666679283
        },
        {
          "name": "D#4",
          "midi": 63,
          "time": 72.17139850000014,
          "velocity": 0.7795275590551181,
          "duration": 0.028571416666679283
        },
        {
          "name": "F#4",
          "midi": 66,
          "time": 72.17854135416681,
          "velocity": 0.905511811023622,
          "duration": 0.028571416666679283
        },
        {
          "name": "A#3",
          "midi": 58,
          "time": 72.3356841458335,
          "velocity": 0.8503937007874016,
          "duration": 0.2999998750000117
        },
        {
          "name": "D#4",
          "midi": 63,
          "time": 72.34282700000017,
          "velocity": 0.7952755905511811,
          "duration": 0.2999998750000117
        },
        {
          "name": "F#4",
          "midi": 66,
          "time": 72.34996985416684,
          "velocity": 0.7874015748031497,
          "duration": 0.2999998750000117
        },
        {
          "name": "A#3",
          "midi": 58,
          "time": 72.69996970833353,
          "velocity": 0.8818897637795275,
          "duration": 0.028571416666665073
        },
        {
          "name": "A#3",
          "midi": 58,
          "time": 72.84996964583353,
          "velocity": 0.8503937007874016,
          "duration": 0.2999998750000117
        },
        {
          "name": "D#4",
          "midi": 63,
          "time": 72.8571125000002,
          "velocity": 0.8976377952755905,
          "duration": 0.2999998750000117
        },
        {
          "name": "F#4",
          "midi": 66,
          "time": 72.86425535416687,
          "velocity": 0.7795275590551181,
          "duration": 0.2999998750000117
        },
        {
          "name": "A#3",
          "midi": 58,
          "time": 73.19282664583355,
          "velocity": 0.7795275590551181,
          "duration": 0.057142833333344356
        },
        {
          "name": "D#4",
          "midi": 63,
          "time": 73.19996950000022,
          "velocity": 0.8267716535433071,
          "duration": 0.057142833333344356
        },
        {
          "name": "F#4",
          "midi": 66,
          "time": 73.2071123541669,
          "velocity": 0.7795275590551181,
          "duration": 0.057142833333344356
        },
        {
          "name": "A#3",
          "midi": 58,
          "time": 73.38568370833357,
          "velocity": 0.8661417322834646,
          "duration": 0.028571416666665073
        },
        {
          "name": "A#3",
          "midi": 58,
          "time": 73.53568364583357,
          "velocity": 0.84251968503937,
          "duration": 0.028571416666679283
        },
        {
          "name": "D#4",
          "midi": 63,
          "time": 73.54282650000025,
          "velocity": 0.8740157480314961,
          "duration": 0.028571416666679283
        },
        {
          "name": "F#4",
          "midi": 66,
          "time": 73.54996935416692,
          "velocity": 0.7716535433070866,
          "duration": 0.028571416666679283
        },
        {
          "name": "C#4",
          "midi": 61,
          "time": 73.7071121458336,
          "velocity": 0.8267716535433071,
          "duration": 0.2999998750000117
        },
        {
          "name": "F4",
          "midi": 65,
          "time": 73.71425500000028,
          "velocity": 0.8818897637795275,
          "duration": 0.2999998750000117
        },
        {
          "name": "G#4",
          "midi": 68,
          "time": 73.72139785416695,
          "velocity": 0.9133858267716536,
          "duration": 0.2999998750000117
        },
        {
          "name": "C#4",
          "midi": 61,
          "time": 74.07139770833363,
          "velocity": 0.8818897637795275,
          "duration": 0.028571416666665073
        },
        {
          "name": "C#4",
          "midi": 61,
          "time": 74.22139764583363,
          "velocity": 0.905511811023622,
          "duration": 0.2999998750000117
        },
        {
          "name": "F4",
          "midi": 65,
          "time": 74.2285405000003,
          "velocity": 0.7952755905511811,
          "duration": 0.2999998750000117
        },
        {
          "name": "G#4",
          "midi": 68,
          "time": 74.23568335416698,
          "velocity": 0.889763779527559,
          "duration": 0.2999998750000117
        },
        {
          "name": "C#4",
          "midi": 61,
          "time": 74.56425464583366,
          "velocity": 0.7874015748031497,
          "duration": 0.057142833333344356
        },
        {
          "name": "F4",
          "midi": 65,
          "time": 74.57139750000033,
          "velocity": 0.8110236220472441,
          "duration": 0.057142833333344356
        },
        {
          "name": "G#4",
          "midi": 68,
          "time": 74.578540354167,
          "velocity": 0.8740157480314961,
          "duration": 0.057142833333344356
        },
        {
          "name": "C#4",
          "midi": 61,
          "time": 74.75711170833368,
          "velocity": 0.7795275590551181,
          "duration": 0.028571416666665073
        },
        {
          "name": "C#4",
          "midi": 61,
          "time": 74.90711164583368,
          "velocity": 0.7952755905511811,
          "duration": 0.028571416666679283
        },
        {
          "name": "F4",
          "midi": 65,
          "time": 74.91425450000035,
          "velocity": 0.8976377952755905,
          "duration": 0.028571416666679283
        },
        {
          "name": "G#4",
          "midi": 68,
          "time": 74.92139735416703,
          "velocity": 0.889763779527559,
          "duration": 0.028571416666679283
        },
        {
          "name": "A#3",
          "midi": 58,
          "time": 75.07854014583371,
          "velocity": 0.8582677165354331,
          "duration": 0.8142853750000114
        },
        {
          "name": "D#4",
          "midi": 63,
          "time": 75.08568300000039,
          "velocity": 0.8031496062992126,
          "duration": 0.8142853750000114
        },
        {
          "name": "G#4",
          "midi": 68,
          "time": 75.09282585416706,
          "velocity": 0.8188976377952756,
          "duration": 0.8142853750000114
        },
        {
          "name": "A#3",
          "midi": 58,
          "time": 75.93568264583374,
          "velocity": 0.7874015748031497,
          "duration": 0.057142833333344356
        },
        {
          "name": "D#4",
          "midi": 63,
          "time": 75.94282550000041,
          "velocity": 0.8582677165354331,
          "duration": 0.057142833333344356
        },
        {
          "name": "G#4",
          "midi": 68,
          "time": 75.94996835416708,
          "velocity": 0.8110236220472441,
          "duration": 0.057142833333344356
        },
        {
          "name": "A#3",
          "midi": 58,
          "time": 76.27853964583376,
          "velocity": 0.8188976377952756,
          "duration": 0.47142837500001633
        },
        {
          "name": "D#4",
          "midi": 63,
          "time": 76.28568250000043,
          "velocity": 0.8740157480314961,
          "duration": 0.47142837500001633
        },
        {
          "name": "G4",
          "midi": 67,
          "time": 76.2928253541671,
          "velocity": 0.84251968503937,
          "duration": 0.47142837500001633
        },
        {
          "name": "A#3",
          "midi": 58,
          "time": 76.8142537083338,
          "velocity": 0.8346456692913385,
          "duration": 0.028571416666665073
        },
        {
          "name": "A#3",
          "midi": 58,
          "time": 76.9642536458338,
          "velocity": 0.7795275590551181,
          "duration": 0.2999998750000117
        },
        {
          "name": "D#4",
          "midi": 63,
          "time": 76.97139650000047,
          "velocity": 0.8110236220472441,
          "duration": 0.2999998750000117
        },
        {
          "name": "G4",
          "midi": 67,
          "time": 76.97853935416714,
          "velocity": 0.905511811023622,
          "duration": 0.2999998750000117
        },
        {
          "name": "A#3",
          "midi": 58,
          "time": 77.30711064583382,
          "velocity": 0.889763779527559,
          "duration": 0.14285708333335378
        },
        {
          "name": "D#4",
          "midi": 63,
          "time": 77.31425350000049,
          "velocity": 0.8188976377952756,
          "duration": 0.14285708333335378
        },
        {
          "name": "G4",
          "midi": 67,
          "time": 77.32139635416716,
          "velocity": 0.8582677165354331,
          "duration": 0.14285708333335378
        },
        {
          "name": "A#3",
          "midi": 58,
          "time": 77.49996770833386,
          "velocity": 0.9133858267716536,
          "duration": 0.028571416666665073
        },
        {
          "name": "A#3",
          "midi": 58,
          "time": 77.64996764583385,
          "velocity": 0.7952755905511811,
          "duration": 0.1142856666666745
        },
        {
          "name": "D#4",
          "midi": 63,
          "time": 77.65711050000053,
          "velocity": 0.7874015748031497,
          "duration": 0.1142856666666745
        },
        {
          "name": "G4",
          "midi": 67,
          "time": 77.6642533541672,
          "velocity": 0.7952755905511811,
          "duration": 0.1142856666666745
        },
        {
          "name": "D#4",
          "midi": 63,
          "time": 77.82853900000055,
          "velocity": 0.8346456692913385,
          "duration": 0.2999998750000117
        },
        {
          "name": "F#4",
          "midi": 66,
          "time": 77.83568185416722,
          "velocity": 0.9133858267716536,
          "duration": 0.2999998750000117
        },
        {
          "name": "A#3",
          "midi": 58,
          "time": 77.83568185416722,
          "velocity": 0.8582677165354331,
          "duration": 0.2999998750000117
        },
        {
          "name": "A#3",
          "midi": 58,
          "time": 78.19996741666723,
          "velocity": 0.889763779527559,
          "duration": 0.028571416666665073
        },
        {
          "name": "D#4",
          "midi": 63,
          "time": 78.34282450000056,
          "velocity": 0.8818897637795275,
          "duration": 0.2999998750000117
        },
        {
          "name": "F#4",
          "midi": 66,
          "time": 78.34996735416723,
          "velocity": 0.8740157480314961,
          "duration": 0.2999998750000117
        },
        {
          "name": "A#3",
          "midi": 58,
          "time": 78.34996735416723,
          "velocity": 0.8503937007874016,
          "duration": 0.2999998750000117
        },
        {
          "name": "D#4",
          "midi": 63,
          "time": 78.68568150000058,
          "velocity": 0.8110236220472441,
          "duration": 0.057142833333344356
        },
        {
          "name": "F#4",
          "midi": 66,
          "time": 78.69282435416726,
          "velocity": 0.8503937007874016,
          "duration": 0.057142833333344356
        },
        {
          "name": "A#3",
          "midi": 58,
          "time": 78.69282435416726,
          "velocity": 0.8346456692913385,
          "duration": 0.057142833333344356
        },
        {
          "name": "A#3",
          "midi": 58,
          "time": 78.88568141666727,
          "velocity": 0.8110236220472441,
          "duration": 0.028571416666665073
        },
        {
          "name": "D#4",
          "midi": 63,
          "time": 79.0285385000006,
          "velocity": 0.8031496062992126,
          "duration": 0.028571416666679283
        },
        {
          "name": "F#4",
          "midi": 66,
          "time": 79.03568135416727,
          "velocity": 0.8976377952755905,
          "duration": 0.028571416666679283
        },
        {
          "name": "A#3",
          "midi": 58,
          "time": 79.03568135416727,
          "velocity": 0.8582677165354331,
          "duration": 0.028571416666679283
        },
        {
          "name": "F4",
          "midi": 65,
          "time": 79.19996700000061,
          "velocity": 0.7795275590551181,
          "duration": 0.2999998750000117
        },
        {
          "name": "G#4",
          "midi": 68,
          "time": 79.20710985416729,
          "velocity": 0.8188976377952756,
          "duration": 0.2999998750000117
        },
        {
          "name": "C#4",
          "midi": 61,
          "time": 79.20710985416729,
          "velocity": 0.905511811023622,
          "duration": 0.2999998750000117
        },
        {
          "name": "C#4",
          "midi": 61,
          "time": 79.5713954166673,
          "velocity": 0.8582677165354331,
          "duration": 0.028571416666665073
        },
        {
          "name": "F4",
          "midi": 65,
          "time": 79.71425250000063,
          "velocity": 0.8267716535433071,
          "duration": 0.12857137500000704
        },
        {
          "name": "G#4",
          "midi": 68,
          "time": 79.7213953541673,
          "velocity": 0.7874015748031497,
          "duration": 0.12857137500000704
        },
        {
          "name": "C#4",
          "midi": 61,
          "time": 79.7213953541673,
          "velocity": 0.8110236220472441,
          "duration": 0.12857137500000704
        },
        {
          "name": "F4",
          "midi": 65,
          "time": 80.05710950000064,
          "velocity": 0.8976377952755905,
          "duration": 0.12857137500000704
        },
        {
          "name": "G#4",
          "midi": 68,
          "time": 80.06425235416731,
          "velocity": 0.7795275590551181,
          "duration": 0.12857137500000704
        },
        {
          "name": "C#4",
          "midi": 61,
          "time": 80.06425235416731,
          "velocity": 0.8661417322834646,
          "duration": 0.12857137500000704
        },
        {
          "name": "A#3",
          "midi": 58,
          "time": 80.39282364583396,
          "velocity": 0.905511811023622,
          "duration": 0.4714283750000021
        },
        {
          "name": "C#4",
          "midi": 61,
          "time": 80.39996650000062,
          "velocity": 0.8661417322834646,
          "duration": 0.47142837500001633
        },
        {
          "name": "F4",
          "midi": 65,
          "time": 80.40710935416729,
          "velocity": 0.905511811023622,
          "duration": 0.47142837500001633
        },
        {
          "name": "A#3",
          "midi": 58,
          "time": 80.92853770833398,
          "velocity": 0.889763779527559,
          "duration": 0.028571416666665073
        },
        {
          "name": "A#3",
          "midi": 58,
          "time": 81.07853764583398,
          "velocity": 0.8740157480314961,
          "duration": 0.2999998750000117
        },
        {
          "name": "C#4",
          "midi": 61,
          "time": 81.08568050000065,
          "velocity": 0.7795275590551181,
          "duration": 0.2999998750000117
        },
        {
          "name": "F4",
          "midi": 65,
          "time": 81.09282335416732,
          "velocity": 0.7716535433070866,
          "duration": 0.2999998750000117
        },
        {
          "name": "A#3",
          "midi": 58,
          "time": 81.421394645834,
          "velocity": 0.889763779527559,
          "duration": 0.057142833333344356
        },
        {
          "name": "C#4",
          "midi": 61,
          "time": 81.42853750000067,
          "velocity": 0.8267716535433071,
          "duration": 0.057142833333344356
        },
        {
          "name": "F4",
          "midi": 65,
          "time": 81.43568035416735,
          "velocity": 0.9133858267716536,
          "duration": 0.057142833333344356
        },
        {
          "name": "A#3",
          "midi": 58,
          "time": 81.61425170833402,
          "velocity": 0.7795275590551181,
          "duration": 0.028571416666665073
        },
        {
          "name": "A#3",
          "midi": 58,
          "time": 81.76425164583402,
          "velocity": 0.8976377952755905,
          "duration": 0.028571416666679283
        },
        {
          "name": "C#4",
          "midi": 61,
          "time": 81.7713945000007,
          "velocity": 0.7716535433070866,
          "duration": 0.028571416666679283
        },
        {
          "name": "F4",
          "midi": 65,
          "time": 81.77853735416737,
          "velocity": 0.8740157480314961,
          "duration": 0.028571416666679283
        },
        {
          "name": "A#3",
          "midi": 58,
          "time": 81.93568014583406,
          "velocity": 0.905511811023622,
          "duration": 0.2999998750000117
        },
        {
          "name": "D#4",
          "midi": 63,
          "time": 81.94282300000073,
          "velocity": 0.8818897637795275,
          "duration": 0.2999998750000117
        },
        {
          "name": "F#4",
          "midi": 66,
          "time": 81.9499658541674,
          "velocity": 0.8818897637795275,
          "duration": 0.2999998750000117
        },
        {
          "name": "A#3",
          "midi": 58,
          "time": 82.29996570833408,
          "velocity": 0.8031496062992126,
          "duration": 0.028571416666665073
        },
        {
          "name": "A#3",
          "midi": 58,
          "time": 82.44996564583408,
          "velocity": 0.9133858267716536,
          "duration": 0.2999998750000117
        },
        {
          "name": "D#4",
          "midi": 63,
          "time": 82.45710850000076,
          "velocity": 0.8818897637795275,
          "duration": 0.2999998750000117
        },
        {
          "name": "F#4",
          "midi": 66,
          "time": 82.46425135416743,
          "velocity": 0.889763779527559,
          "duration": 0.2999998750000117
        },
        {
          "name": "A#3",
          "midi": 58,
          "time": 82.79282264583411,
          "velocity": 0.7874015748031497,
          "duration": 0.057142833333344356
        },
        {
          "name": "D#4",
          "midi": 63,
          "time": 82.79996550000078,
          "velocity": 0.889763779527559,
          "duration": 0.057142833333344356
        },
        {
          "name": "F#4",
          "midi": 66,
          "time": 82.80710835416745,
          "velocity": 0.8582677165354331,
          "duration": 0.057142833333344356
        },
        {
          "name": "A#3",
          "midi": 58,
          "time": 82.98567970833413,
          "velocity": 0.8110236220472441,
          "duration": 0.028571416666665073
        },
        {
          "name": "A#3",
          "midi": 58,
          "time": 83.13567964583413,
          "velocity": 0.8188976377952756,
          "duration": 0.028571416666679283
        },
        {
          "name": "D#4",
          "midi": 63,
          "time": 83.1428225000008,
          "velocity": 0.8188976377952756,
          "duration": 0.028571416666679283
        },
        {
          "name": "F#4",
          "midi": 66,
          "time": 83.14996535416748,
          "velocity": 0.84251968503937,
          "duration": 0.028571416666679283
        },
        {
          "name": "B3",
          "midi": 59,
          "time": 83.30710814583416,
          "velocity": 0.8582677165354331,
          "duration": 0.2999998750000117
        },
        {
          "name": "D#4",
          "midi": 63,
          "time": 83.31425100000084,
          "velocity": 0.889763779527559,
          "duration": 0.2999998750000117
        },
        {
          "name": "F#4",
          "midi": 66,
          "time": 83.32139385416751,
          "velocity": 0.7716535433070866,
          "duration": 0.2999998750000117
        },
        {
          "name": "B3",
          "midi": 59,
          "time": 83.6713937083342,
          "velocity": 0.7795275590551181,
          "duration": 0.028571416666665073
        },
        {
          "name": "B3",
          "midi": 59,
          "time": 83.82139364583419,
          "velocity": 0.8346456692913385,
          "duration": 0.2999998750000117
        },
        {
          "name": "D#4",
          "midi": 63,
          "time": 83.82853650000087,
          "velocity": 0.905511811023622,
          "duration": 0.2999998750000117
        },
        {
          "name": "F#4",
          "midi": 66,
          "time": 83.83567935416754,
          "velocity": 0.8661417322834646,
          "duration": 0.2999998750000117
        },
        {
          "name": "B3",
          "midi": 59,
          "time": 84.16425064583422,
          "velocity": 0.8188976377952756,
          "duration": 0.057142833333344356
        },
        {
          "name": "D#4",
          "midi": 63,
          "time": 84.17139350000089,
          "velocity": 0.84251968503937,
          "duration": 0.057142833333344356
        },
        {
          "name": "F#4",
          "midi": 66,
          "time": 84.17853635416756,
          "velocity": 0.7874015748031497,
          "duration": 0.057142833333344356
        },
        {
          "name": "B3",
          "midi": 59,
          "time": 84.35710770833424,
          "velocity": 0.8582677165354331,
          "duration": 0.028571416666665073
        },
        {
          "name": "B3",
          "midi": 59,
          "time": 84.50710764583424,
          "velocity": 0.84251968503937,
          "duration": 0.028571416666679283
        },
        {
          "name": "D#4",
          "midi": 63,
          "time": 84.51425050000091,
          "velocity": 0.8267716535433071,
          "duration": 0.028571416666679283
        },
        {
          "name": "F#4",
          "midi": 66,
          "time": 84.52139335416759,
          "velocity": 0.8031496062992126,
          "duration": 0.028571416666679283
        },
        {
          "name": "G#3",
          "midi": 56,
          "time": 84.67853614583427,
          "velocity": 0.8582677165354331,
          "duration": 0.2999998750000117
        },
        {
          "name": "C#4",
          "midi": 61,
          "time": 84.68567900000095,
          "velocity": 0.8188976377952756,
          "duration": 0.2999998750000117
        },
        {
          "name": "F4",
          "midi": 65,
          "time": 84.69282185416762,
          "velocity": 0.8740157480314961,
          "duration": 0.2999998750000117
        },
        {
          "name": "G#3",
          "midi": 56,
          "time": 85.0428217083343,
          "velocity": 0.8031496062992126,
          "duration": 0.028571416666665073
        },
        {
          "name": "G#3",
          "midi": 56,
          "time": 85.1928216458343,
          "velocity": 0.9133858267716536,
          "duration": 0.2999998750000117
        },
        {
          "name": "C#4",
          "midi": 61,
          "time": 85.19996450000097,
          "velocity": 0.7716535433070866,
          "duration": 0.2999998750000117
        },
        {
          "name": "F4",
          "midi": 65,
          "time": 85.20710735416765,
          "velocity": 0.8346456692913385,
          "duration": 0.2999998750000117
        },
        {
          "name": "G#3",
          "midi": 56,
          "time": 85.53567864583432,
          "velocity": 0.8582677165354331,
          "duration": 0.057142833333344356
        },
        {
          "name": "C#4",
          "midi": 61,
          "time": 85.542821500001,
          "velocity": 0.8110236220472441,
          "duration": 0.057142833333344356
        },
        {
          "name": "F4",
          "midi": 65,
          "time": 85.54996435416767,
          "velocity": 0.8582677165354331,
          "duration": 0.057142833333344356
        },
        {
          "name": "G#3",
          "midi": 56,
          "time": 85.72853570833435,
          "velocity": 0.8110236220472441,
          "duration": 0.028571416666665073
        },
        {
          "name": "G#3",
          "midi": 56,
          "time": 85.87853564583435,
          "velocity": 0.7874015748031497,
          "duration": 0.028571416666679283
        },
        {
          "name": "C#4",
          "midi": 61,
          "time": 85.88567850000102,
          "velocity": 0.8740157480314961,
          "duration": 0.028571416666679283
        },
        {
          "name": "F4",
          "midi": 65,
          "time": 85.8928213541677,
          "velocity": 0.8031496062992126,
          "duration": 0.028571416666679283
        },
        {
          "name": "B3",
          "midi": 59,
          "time": 86.04996414583438,
          "velocity": 0.7874015748031497,
          "duration": 0.2999998750000117
        },
        {
          "name": "D#4",
          "midi": 63,
          "time": 86.05710700000105,
          "velocity": 0.8818897637795275,
          "duration": 0.2999998750000117
        },
        {
          "name": "F#4",
          "midi": 66,
          "time": 86.06424985416773,
          "velocity": 0.8031496062992126,
          "duration": 0.2999998750000117
        },
        {
          "name": "B3",
          "midi": 59,
          "time": 86.41424970833441,
          "velocity": 0.7716535433070866,
          "duration": 0.028571416666665073
        },
        {
          "name": "B3",
          "midi": 59,
          "time": 86.56424964583441,
          "velocity": 0.8110236220472441,
          "duration": 0.2999998750000117
        },
        {
          "name": "D#4",
          "midi": 63,
          "time": 86.57139250000108,
          "velocity": 0.7874015748031497,
          "duration": 0.2999998750000117
        },
        {
          "name": "F#4",
          "midi": 66,
          "time": 86.57853535416776,
          "velocity": 0.7716535433070866,
          "duration": 0.2999998750000117
        },
        {
          "name": "B3",
          "midi": 59,
          "time": 86.90710664583443,
          "velocity": 0.7952755905511811,
          "duration": 0.057142833333344356
        },
        {
          "name": "D#4",
          "midi": 63,
          "time": 86.9142495000011,
          "velocity": 0.8818897637795275,
          "duration": 0.057142833333344356
        },
        {
          "name": "F#4",
          "midi": 66,
          "time": 86.92139235416778,
          "velocity": 0.7952755905511811,
          "duration": 0.057142833333344356
        },
        {
          "name": "B3",
          "midi": 59,
          "time": 87.09996370833446,
          "velocity": 0.905511811023622,
          "duration": 0.028571416666665073
        },
        {
          "name": "B3",
          "midi": 59,
          "time": 87.24996364583446,
          "velocity": 0.7952755905511811,
          "duration": 0.028571416666679283
        },
        {
          "name": "D#4",
          "midi": 63,
          "time": 87.25710650000113,
          "velocity": 0.7716535433070866,
          "duration": 0.028571416666679283
        },
        {
          "name": "F#4",
          "midi": 66,
          "time": 87.2642493541678,
          "velocity": 0.7952755905511811,
          "duration": 0.028571416666679283
        },
        {
          "name": "G#3",
          "midi": 56,
          "time": 87.42139214583449,
          "velocity": 0.84251968503937,
          "duration": 1.3285708750000111
        },
        {
          "name": "C#4",
          "midi": 61,
          "time": 87.42853500000116,
          "velocity": 0.7952755905511811,
          "duration": 1.3285708750000111
        },
        {
          "name": "F4",
          "midi": 65,
          "time": 87.43567785416784,
          "velocity": 0.8818897637795275,
          "duration": 1.3285708750000111
        }
      ],
      "controlChanges": {
        "6": [
          {
            "number": 6,
            "time": 0.342857,
            "value": 0.12598425196850394
          }
        ],
        "7": [
          {
            "number": 7,
            "time": 0.342857,
            "value": 0.7559055118110236
          }
        ],
        "10": [
          {
            "number": 10,
            "time": 0.342857,
            "value": 0.2677165354330709
          }
        ],
        "11": [
          {
            "number": 11,
            "time": 10.799995500000001,
            "value": 0.5196850393700787
          },
          {
            "number": 11,
            "time": 10.814281208333334,
            "value": 0.5275590551181102
          },
          {
            "number": 11,
            "time": 10.828566916666666,
            "value": 0.5433070866141733
          },
          {
            "number": 11,
            "time": 10.842852624999999,
            "value": 0.5590551181102362
          },
          {
            "number": 11,
            "time": 10.857138333333332,
            "value": 0.5669291338582677
          },
          {
            "number": 11,
            "time": 10.871424041666664,
            "value": 0.5826771653543307
          },
          {
            "number": 11,
            "time": 10.885709749999997,
            "value": 0.5984251968503937
          },
          {
            "number": 11,
            "time": 10.89999545833333,
            "value": 0.6062992125984252
          },
          {
            "number": 11,
            "time": 10.914281166666662,
            "value": 0.6220472440944882
          },
          {
            "number": 11,
            "time": 10.928566874999994,
            "value": 0.6377952755905512
          },
          {
            "number": 11,
            "time": 10.942852583333327,
            "value": 0.6456692913385826
          },
          {
            "number": 11,
            "time": 10.95713829166666,
            "value": 0.6614173228346457
          },
          {
            "number": 11,
            "time": 10.971423999999992,
            "value": 0.6771653543307087
          },
          {
            "number": 11,
            "time": 10.985709708333324,
            "value": 0.6929133858267716
          },
          {
            "number": 11,
            "time": 10.999995416666657,
            "value": 0.7007874015748031
          },
          {
            "number": 11,
            "time": 11.01428112499999,
            "value": 0.7165354330708661
          },
          {
            "number": 11,
            "time": 11.028566833333322,
            "value": 0.7322834645669292
          },
          {
            "number": 11,
            "time": 11.042852541666655,
            "value": 0.7401574803149606
          },
          {
            "number": 11,
            "time": 11.057138249999987,
            "value": 0.7559055118110236
          },
          {
            "number": 11,
            "time": 11.07142395833332,
            "value": 0.7716535433070866
          },
          {
            "number": 11,
            "time": 11.085709666666652,
            "value": 0.7795275590551181
          },
          {
            "number": 11,
            "time": 11.099995374999985,
            "value": 0.7952755905511811
          },
          {
            "number": 11,
            "time": 11.114281083333317,
            "value": 0.8110236220472441
          },
          {
            "number": 11,
            "time": 11.12856679166665,
            "value": 0.8188976377952756
          },
          {
            "number": 11,
            "time": 11.142852499999982,
            "value": 0.8346456692913385
          },
          {
            "number": 11,
            "time": 11.157138208333315,
            "value": 0.8503937007874016
          },
          {
            "number": 11,
            "time": 11.171423916666647,
            "value": 0.8661417322834646
          },
          {
            "number": 11,
            "time": 11.18570962499998,
            "value": 0.8740157480314961
          },
          {
            "number": 11,
            "time": 11.199995333333312,
            "value": 0.889763779527559
          },
          {
            "number": 11,
            "time": 11.214281041666645,
            "value": 0.905511811023622
          },
          {
            "number": 11,
            "time": 11.228566749999978,
            "value": 0.9133858267716536
          },
          {
            "number": 11,
            "time": 11.24285245833331,
            "value": 0.9291338582677166
          },
          {
            "number": 11,
            "time": 11.257138166666643,
            "value": 0.9448818897637795
          },
          {
            "number": 11,
            "time": 11.271423874999975,
            "value": 0.952755905511811
          },
          {
            "number": 11,
            "time": 11.285709583333308,
            "value": 0.968503937007874
          },
          {
            "number": 11,
            "time": 11.29999529166664,
            "value": 0.984251968503937
          },
          {
            "number": 11,
            "time": 79.88568100000064,
            "value": 0.6220472440944882
          },
          {
            "number": 11,
            "time": 79.88746671354231,
            "value": 0.6456692913385826
          },
          {
            "number": 11,
            "time": 79.89460956770898,
            "value": 0.6535433070866141
          },
          {
            "number": 11,
            "time": 79.89639528125065,
            "value": 0.6456692913385826
          },
          {
            "number": 11,
            "time": 80.04818093229231,
            "value": 0.9921259842519685
          },
          {
            "number": 11,
            "time": 80.05175235937564,
            "value": 0.984251968503937
          },
          {
            "number": 11,
            "time": 80.0535380729173,
            "value": 0.984251968503937
          },
          {
            "number": 11,
            "time": 80.05532378645897,
            "value": 0.9763779527559056
          },
          {
            "number": 11,
            "time": 80.05710950000064,
            "value": 0.984251968503937
          },
          {
            "number": 11,
            "time": 80.23389514062565,
            "value": 0.7637795275590551
          },
          {
            "number": 11,
            "time": 80.23568085416731,
            "value": 0.7559055118110236
          },
          {
            "number": 11,
            "time": 80.23746656770898,
            "value": 0.6299212598425197
          },
          {
            "number": 11,
            "time": 80.23925228125064,
            "value": 0.5196850393700787
          },
          {
            "number": 11,
            "time": 80.24103799479231,
            "value": 0.6299212598425197
          },
          {
            "number": 11,
            "time": 80.26068084375063,
            "value": 0.6299212598425197
          },
          {
            "number": 11,
            "time": 80.38746650520896,
            "value": 0.7637795275590551
          },
          {
            "number": 11,
            "time": 80.38925221875063,
            "value": 0.9921259842519685
          },
          {
            "number": 11,
            "time": 80.39282364583396,
            "value": 0.9921259842519685
          },
          {
            "number": 11,
            "time": 80.39460935937562,
            "value": 0.9921259842519685
          }
        ],
        "32": [
          {
            "number": 32,
            "time": 0.342857,
            "value": 0
          },
          {
            "number": 32,
            "time": 11.828566499999974,
            "value": 0
          },
          {
            "number": 32,
            "time": 21.59999099999991,
            "value": 0
          },
          {
            "number": 32,
            "time": 64.07140187499974,
            "value": 0
          },
          {
            "number": 32,
            "time": 65.44282987499976,
            "value": 0
          },
          {
            "number": 32,
            "time": 66.81425787499975,
            "value": 0
          }
        ],
        "100": [
          {
            "number": 100,
            "time": 0.342857,
            "value": 0
          }
        ],
        "101": [
          {
            "number": 101,
            "time": 0.342857,
            "value": 0
          }
        ]
      },
      "id": 6,
      "instrumentNumber": 28,
      "instrument": "electric guitar (muted)",
      "instrumentFamily": "guitar",
      "channelNumber": 5,
      "isPercussion": false
    },
    {
      "startTime": 1.5428564999999985,
      "duration": 89.22853425000415,
      "length": 470,
      "notes": [
        {
          "name": "A#4",
          "midi": 70,
          "time": 1.5428564999999985,
          "velocity": 0.968503937007874,
          "duration": 0.17142849999999932
        },
        {
          "name": "A#3",
          "midi": 58,
          "time": 1.5428564999999985,
          "velocity": 0.8582677165354331,
          "duration": 1.371428000000004
        },
        {
          "name": "D5",
          "midi": 74,
          "time": 1.7142849999999978,
          "velocity": 0.937007874015748,
          "duration": 0.17142849999999932
        },
        {
          "name": "A5",
          "midi": 81,
          "time": 1.8857134999999972,
          "velocity": 0.952755905511811,
          "duration": 0.17142849999999998
        },
        {
          "name": "A#4",
          "midi": 70,
          "time": 2.057141999999997,
          "velocity": 0.8188976377952756,
          "duration": 0.1714285000000011
        },
        {
          "name": "D5",
          "midi": 74,
          "time": 2.2285704999999982,
          "velocity": 0.937007874015748,
          "duration": 0.1714285000000011
        },
        {
          "name": "A5",
          "midi": 81,
          "time": 2.3999989999999993,
          "velocity": 0.952755905511811,
          "duration": 0.1714285000000011
        },
        {
          "name": "A#4",
          "midi": 70,
          "time": 2.5714275000000004,
          "velocity": 0.8976377952755905,
          "duration": 0.1714285000000011
        },
        {
          "name": "D5",
          "midi": 74,
          "time": 2.7428560000000015,
          "velocity": 0.8976377952755905,
          "duration": 0.1714285000000011
        },
        {
          "name": "C5",
          "midi": 72,
          "time": 2.9142845000000026,
          "velocity": 0.937007874015748,
          "duration": 0.1714285000000011
        },
        {
          "name": "C4",
          "midi": 60,
          "time": 2.9142845000000026,
          "velocity": 0.8267716535433071,
          "duration": 1.3714280000000025
        },
        {
          "name": "E5",
          "midi": 76,
          "time": 3.0857130000000037,
          "velocity": 0.9763779527559056,
          "duration": 0.1714285000000011
        },
        {
          "name": "A5",
          "midi": 81,
          "time": 3.257141500000005,
          "velocity": 0.9133858267716536,
          "duration": 0.1714285000000011
        },
        {
          "name": "C5",
          "midi": 72,
          "time": 3.428570000000006,
          "velocity": 0.8110236220472441,
          "duration": 0.1714285000000011
        },
        {
          "name": "E5",
          "midi": 76,
          "time": 3.599998500000007,
          "velocity": 0.952755905511811,
          "duration": 0.1714285000000011
        },
        {
          "name": "A5",
          "midi": 81,
          "time": 3.771427000000008,
          "velocity": 0.8740157480314961,
          "duration": 0.1714285000000011
        },
        {
          "name": "C5",
          "midi": 72,
          "time": 3.942855500000009,
          "velocity": 0.8976377952755905,
          "duration": 0.17142849999999843
        },
        {
          "name": "E5",
          "midi": 76,
          "time": 4.114284000000008,
          "velocity": 0.8740157480314961,
          "duration": 0.17142849999999754
        },
        {
          "name": "A4",
          "midi": 69,
          "time": 4.285712500000005,
          "velocity": 0.8740157480314961,
          "duration": 0.17142849999999754
        },
        {
          "name": "A3",
          "midi": 57,
          "time": 4.285712500000005,
          "velocity": 0.8503937007874016,
          "duration": 1.3714279999999803
        },
        {
          "name": "C5",
          "midi": 72,
          "time": 4.457141000000003,
          "velocity": 0.8976377952755905,
          "duration": 0.17142849999999754
        },
        {
          "name": "G5",
          "midi": 79,
          "time": 4.6285695,
          "velocity": 1,
          "duration": 0.17142849999999754
        },
        {
          "name": "A4",
          "midi": 69,
          "time": 4.799997999999998,
          "velocity": 0.9133858267716536,
          "duration": 0.17142849999999754
        },
        {
          "name": "C5",
          "midi": 72,
          "time": 4.971426499999995,
          "velocity": 0.8976377952755905,
          "duration": 0.17142849999999754
        },
        {
          "name": "G5",
          "midi": 79,
          "time": 5.142854999999993,
          "velocity": 1,
          "duration": 0.17142849999999754
        },
        {
          "name": "A4",
          "midi": 69,
          "time": 5.31428349999999,
          "velocity": 0.937007874015748,
          "duration": 0.17142849999999754
        },
        {
          "name": "G5",
          "midi": 79,
          "time": 5.485711999999988,
          "velocity": 1,
          "duration": 0.17142849999999754
        },
        {
          "name": "F5",
          "midi": 77,
          "time": 5.6571404999999855,
          "velocity": 0.8267716535433071,
          "duration": 0.17142849999999754
        },
        {
          "name": "D4",
          "midi": 62,
          "time": 5.6571404999999855,
          "velocity": 0.7007874015748031,
          "duration": 0.6857139999999902
        },
        {
          "name": "E5",
          "midi": 76,
          "time": 5.828568999999983,
          "velocity": 0.952755905511811,
          "duration": 0.17142849999999754
        },
        {
          "name": "D5",
          "midi": 74,
          "time": 5.9999974999999806,
          "velocity": 0.952755905511811,
          "duration": 0.17142849999999754
        },
        {
          "name": "C5",
          "midi": 72,
          "time": 6.171425999999978,
          "velocity": 0.8110236220472441,
          "duration": 0.17142849999999754
        },
        {
          "name": "A4",
          "midi": 69,
          "time": 6.342854499999976,
          "velocity": 0.9763779527559056,
          "duration": 0.17142849999999754
        },
        {
          "name": "A3",
          "midi": 57,
          "time": 6.342854499999976,
          "velocity": 0.8031496062992126,
          "duration": 0.6857139999999902
        },
        {
          "name": "C5",
          "midi": 72,
          "time": 6.514282999999973,
          "velocity": 0.9133858267716536,
          "duration": 0.17142849999999754
        },
        {
          "name": "D5",
          "midi": 74,
          "time": 6.685711499999971,
          "velocity": 0.8976377952755905,
          "duration": 0.17142849999999754
        },
        {
          "name": "E5",
          "midi": 76,
          "time": 6.857139999999968,
          "velocity": 0.8976377952755905,
          "duration": 0.17142849999999754
        },
        {
          "name": "A#4",
          "midi": 70,
          "time": 7.028568499999966,
          "velocity": 0.968503937007874,
          "duration": 0.17142849999999754
        },
        {
          "name": "A#3",
          "midi": 58,
          "time": 7.028568499999966,
          "velocity": 0.889763779527559,
          "duration": 1.3714279999999972
        },
        {
          "name": "D5",
          "midi": 74,
          "time": 7.199996999999963,
          "velocity": 0.9763779527559056,
          "duration": 0.17142849999999754
        },
        {
          "name": "A5",
          "midi": 81,
          "time": 7.371425499999961,
          "velocity": 0.9133858267716536,
          "duration": 0.17142849999999754
        },
        {
          "name": "A#4",
          "midi": 70,
          "time": 7.542853999999958,
          "velocity": 0.968503937007874,
          "duration": 0.17142849999999754
        },
        {
          "name": "D5",
          "midi": 74,
          "time": 7.714282499999956,
          "velocity": 1,
          "duration": 0.17142849999999754
        },
        {
          "name": "A5",
          "midi": 81,
          "time": 7.8857109999999535,
          "velocity": 0.8976377952755905,
          "duration": 0.1714285000000002
        },
        {
          "name": "A#4",
          "midi": 70,
          "time": 8.057139499999954,
          "velocity": 0.9448818897637795,
          "duration": 0.17142850000000465
        },
        {
          "name": "D5",
          "midi": 74,
          "time": 8.228567999999958,
          "velocity": 0.9763779527559056,
          "duration": 0.17142850000000465
        },
        {
          "name": "C5",
          "midi": 72,
          "time": 8.399996499999963,
          "velocity": 0.8976377952755905,
          "duration": 0.17142850000000465
        },
        {
          "name": "C4",
          "midi": 60,
          "time": 8.399996499999963,
          "velocity": 0.8740157480314961,
          "duration": 1.3714280000000372
        },
        {
          "name": "E5",
          "midi": 76,
          "time": 8.571424999999968,
          "velocity": 0.9133858267716536,
          "duration": 0.17142850000000465
        },
        {
          "name": "A5",
          "midi": 81,
          "time": 8.742853499999972,
          "velocity": 0.8582677165354331,
          "duration": 0.17142850000000465
        },
        {
          "name": "C5",
          "midi": 72,
          "time": 8.914281999999977,
          "velocity": 0.9133858267716536,
          "duration": 0.17142850000000465
        },
        {
          "name": "E5",
          "midi": 76,
          "time": 9.085710499999982,
          "velocity": 0.952755905511811,
          "duration": 0.17142850000000465
        },
        {
          "name": "A5",
          "midi": 81,
          "time": 9.257138999999986,
          "velocity": 0.937007874015748,
          "duration": 0.17142850000000465
        },
        {
          "name": "C5",
          "midi": 72,
          "time": 9.42856749999999,
          "velocity": 0.8582677165354331,
          "duration": 0.17142850000000465
        },
        {
          "name": "E5",
          "midi": 76,
          "time": 9.599995999999996,
          "velocity": 0.952755905511811,
          "duration": 0.17142850000000465
        },
        {
          "name": "D5",
          "midi": 74,
          "time": 9.7714245,
          "velocity": 0.8582677165354331,
          "duration": 0.17142850000000465
        },
        {
          "name": "D4",
          "midi": 62,
          "time": 9.7714245,
          "velocity": 0.8031496062992126,
          "duration": 1.1999995000000325
        },
        {
          "name": "G5",
          "midi": 79,
          "time": 9.942853000000005,
          "velocity": 0.84251968503937,
          "duration": 0.17142850000000465
        },
        {
          "name": "A5",
          "midi": 81,
          "time": 10.11428150000001,
          "velocity": 0.937007874015748,
          "duration": 0.17142850000000465
        },
        {
          "name": "D5",
          "midi": 74,
          "time": 10.285710000000014,
          "velocity": 0.7007874015748031,
          "duration": 0.17142850000000465
        },
        {
          "name": "G5",
          "midi": 79,
          "time": 10.457138500000019,
          "velocity": 0.8267716535433071,
          "duration": 0.17142850000000465
        },
        {
          "name": "A5",
          "midi": 81,
          "time": 10.628567000000023,
          "velocity": 0.952755905511811,
          "duration": 0.17142850000000465
        },
        {
          "name": "D5",
          "midi": 74,
          "time": 10.799995500000028,
          "velocity": 0.7874015748031497,
          "duration": 0.17142850000000465
        },
        {
          "name": "D3",
          "midi": 50,
          "time": 10.971424000000033,
          "velocity": 0.7401574803149606,
          "duration": 0.8571425000000232
        },
        {
          "name": "D2",
          "midi": 38,
          "time": 10.971424000000033,
          "velocity": 0.8740157480314961,
          "duration": 0.8571425000000232
        },
        {
          "name": "A4",
          "midi": 69,
          "time": 10.971424000000033,
          "velocity": 0.8740157480314961,
          "duration": 0.8571425000000232
        },
        {
          "name": "D5",
          "midi": 74,
          "time": 10.971424000000033,
          "velocity": 0.8503937007874016,
          "duration": 0.8571425000000232
        },
        {
          "name": "F#5",
          "midi": 78,
          "time": 10.971424000000033,
          "velocity": 0.889763779527559,
          "duration": 0.8571425000000232
        },
        {
          "name": "F#5",
          "midi": 78,
          "time": 11.99999500000006,
          "velocity": 0.8503937007874016,
          "duration": 0.08571425000000232
        },
        {
          "name": "F#4",
          "midi": 66,
          "time": 11.99999500000006,
          "velocity": 0.84251968503937,
          "duration": 0.08571425000000232
        },
        {
          "name": "G#5",
          "midi": 80,
          "time": 12.085709250000063,
          "velocity": 0.8582677165354331,
          "duration": 0.08571425000000232
        },
        {
          "name": "G#4",
          "midi": 68,
          "time": 12.085709250000063,
          "velocity": 0.8188976377952756,
          "duration": 0.08571425000000232
        },
        {
          "name": "A#5",
          "midi": 82,
          "time": 12.171423500000065,
          "velocity": 0.8503937007874016,
          "duration": 1.199999499999965
        },
        {
          "name": "A#4",
          "midi": 70,
          "time": 12.171423500000065,
          "velocity": 0.7874015748031497,
          "duration": 1.199999499999965
        },
        {
          "name": "F#4",
          "midi": 66,
          "time": 12.171423500000065,
          "velocity": 0.8267716535433071,
          "duration": 1.199999499999965
        },
        {
          "name": "F#3",
          "midi": 54,
          "time": 12.171423500000065,
          "velocity": 0.7952755905511811,
          "duration": 1.199999499999965
        },
        {
          "name": "G#5",
          "midi": 80,
          "time": 13.37142300000003,
          "velocity": 0.7874015748031497,
          "duration": 0.8571424999999717
        },
        {
          "name": "G#4",
          "midi": 68,
          "time": 13.37142300000003,
          "velocity": 0.8346456692913385,
          "duration": 0.8571424999999717
        },
        {
          "name": "F4",
          "midi": 65,
          "time": 13.37142300000003,
          "velocity": 0.7874015748031497,
          "duration": 0.8571424999999717
        },
        {
          "name": "F3",
          "midi": 53,
          "time": 13.37142300000003,
          "velocity": 0.7480314960629921,
          "duration": 0.8571424999999717
        },
        {
          "name": "D#6",
          "midi": 87,
          "time": 14.228565500000002,
          "velocity": 0.8188976377952756,
          "duration": 0.685713999999976
        },
        {
          "name": "D#5",
          "midi": 75,
          "time": 14.228565500000002,
          "velocity": 0.84251968503937,
          "duration": 0.685713999999976
        },
        {
          "name": "D#4",
          "midi": 63,
          "time": 14.228565500000002,
          "velocity": 0.8188976377952756,
          "duration": 0.685713999999976
        },
        {
          "name": "B3",
          "midi": 59,
          "time": 14.228565500000002,
          "velocity": 0.7795275590551181,
          "duration": 0.685713999999976
        },
        {
          "name": "C#6",
          "midi": 85,
          "time": 14.914279499999978,
          "velocity": 0.7795275590551181,
          "duration": 0.6857139999999831
        },
        {
          "name": "C#5",
          "midi": 73,
          "time": 14.914279499999978,
          "velocity": 0.8110236220472441,
          "duration": 0.6857139999999831
        },
        {
          "name": "A#3",
          "midi": 58,
          "time": 14.914279499999978,
          "velocity": 0.7637795275590551,
          "duration": 0.6857139999999831
        },
        {
          "name": "C#4",
          "midi": 61,
          "time": 14.914279499999978,
          "velocity": 0.7952755905511811,
          "duration": 1.1999994999999721
        },
        {
          "name": "F5",
          "midi": 77,
          "time": 15.599993499999961,
          "velocity": 0.7716535433070866,
          "duration": 0.5142854999999891
        },
        {
          "name": "F4",
          "midi": 65,
          "time": 15.599993499999961,
          "velocity": 0.8110236220472441,
          "duration": 0.5142854999999891
        },
        {
          "name": "G#3",
          "midi": 56,
          "time": 15.599993499999961,
          "velocity": 0.7559055118110236,
          "duration": 0.5142854999999891
        },
        {
          "name": "C#4",
          "midi": 61,
          "time": 16.11427899999995,
          "velocity": 0.84251968503937,
          "duration": 0.5142854999999713
        },
        {
          "name": "F#3",
          "midi": 54,
          "time": 16.11427899999995,
          "velocity": 0.8110236220472441,
          "duration": 0.5142854999999713
        },
        {
          "name": "F#5",
          "midi": 78,
          "time": 16.11427899999995,
          "velocity": 0.8267716535433071,
          "duration": 1.0285709999999426
        },
        {
          "name": "F#4",
          "midi": 66,
          "time": 16.11427899999995,
          "velocity": 0.8110236220472441,
          "duration": 1.0285709999999426
        },
        {
          "name": "B3",
          "midi": 59,
          "time": 16.62856449999992,
          "velocity": 0.8188976377952756,
          "duration": 0.17142849999999044
        },
        {
          "name": "D#3",
          "midi": 51,
          "time": 16.62856449999992,
          "velocity": 0.7401574803149606,
          "duration": 1.0285709999999426
        },
        {
          "name": "A#3",
          "midi": 58,
          "time": 16.799992999999912,
          "velocity": 0.7952755905511811,
          "duration": 0.17142849999999044
        },
        {
          "name": "F#3",
          "midi": 54,
          "time": 17.142849999999893,
          "velocity": 0.8031496062992126,
          "duration": 0.17142849999999044
        },
        {
          "name": "D#5",
          "midi": 75,
          "time": 17.314278499999883,
          "velocity": 0.7637795275590551,
          "duration": 0.08571424999999522
        },
        {
          "name": "D#4",
          "midi": 63,
          "time": 17.314278499999883,
          "velocity": 0.8110236220472441,
          "duration": 0.08571424999999522
        },
        {
          "name": "F3",
          "midi": 53,
          "time": 17.314278499999883,
          "velocity": 0.8188976377952756,
          "duration": 0.17142849999999044
        },
        {
          "name": "F5",
          "midi": 77,
          "time": 17.39999274999988,
          "velocity": 0.7795275590551181,
          "duration": 0.08571424999999522
        },
        {
          "name": "F4",
          "midi": 65,
          "time": 17.39999274999988,
          "velocity": 0.8267716535433071,
          "duration": 0.08571424999999522
        },
        {
          "name": "F#5",
          "midi": 78,
          "time": 17.485706999999874,
          "velocity": 0.7874015748031497,
          "duration": 0.08571424999999522
        },
        {
          "name": "F#4",
          "midi": 66,
          "time": 17.485706999999874,
          "velocity": 0.8346456692913385,
          "duration": 0.08571424999999522
        },
        {
          "name": "C#3",
          "midi": 49,
          "time": 17.485706999999874,
          "velocity": 0.8346456692913385,
          "duration": 0.17142849999999044
        },
        {
          "name": "G#5",
          "midi": 80,
          "time": 17.57142124999987,
          "velocity": 0.7795275590551181,
          "duration": 0.08571424999999522
        },
        {
          "name": "G#4",
          "midi": 68,
          "time": 17.57142124999987,
          "velocity": 0.8346456692913385,
          "duration": 0.08571424999999522
        },
        {
          "name": "A#5",
          "midi": 82,
          "time": 17.657135499999864,
          "velocity": 0.8110236220472441,
          "duration": 1.199999499999933
        },
        {
          "name": "A#4",
          "midi": 70,
          "time": 17.657135499999864,
          "velocity": 0.8110236220472441,
          "duration": 1.199999499999933
        },
        {
          "name": "C4",
          "midi": 60,
          "time": 17.657135499999864,
          "velocity": 0.8188976377952756,
          "duration": 1.199999499999933
        },
        {
          "name": "A#3",
          "midi": 58,
          "time": 17.657135499999864,
          "velocity": 0.7952755905511811,
          "duration": 1.199999499999933
        },
        {
          "name": "G#5",
          "midi": 80,
          "time": 18.857134999999797,
          "velocity": 0.8031496062992126,
          "duration": 0.8571424999999522
        },
        {
          "name": "G#4",
          "midi": 68,
          "time": 18.857134999999797,
          "velocity": 0.8346456692913385,
          "duration": 0.8571424999999522
        },
        {
          "name": "D#4",
          "midi": 63,
          "time": 18.857134999999797,
          "velocity": 0.8110236220472441,
          "duration": 0.8571424999999522
        },
        {
          "name": "B3",
          "midi": 59,
          "time": 18.857134999999797,
          "velocity": 0.8267716535433071,
          "duration": 1.542856499999914
        },
        {
          "name": "D#6",
          "midi": 87,
          "time": 19.71427749999975,
          "velocity": 0.7716535433070866,
          "duration": 0.6857139999999617
        },
        {
          "name": "D#5",
          "midi": 75,
          "time": 19.71427749999975,
          "velocity": 0.8110236220472441,
          "duration": 0.6857139999999617
        },
        {
          "name": "F4",
          "midi": 65,
          "time": 19.71427749999975,
          "velocity": 0.8346456692913385,
          "duration": 0.6857139999999617
        },
        {
          "name": "F#4",
          "midi": 66,
          "time": 20.39999149999971,
          "velocity": 0.8346456692913385,
          "duration": 1.3714279999999235
        },
        {
          "name": "C#4",
          "midi": 61,
          "time": 20.39999149999971,
          "velocity": 0.7480314960629921,
          "duration": 1.3714279999999235
        },
        {
          "name": "C#6",
          "midi": 85,
          "time": 20.39999149999971,
          "velocity": 0.7952755905511811,
          "duration": 2.0571419999998852
        },
        {
          "name": "C#5",
          "midi": 73,
          "time": 20.39999149999971,
          "velocity": 0.7952755905511811,
          "duration": 2.0571419999998852
        },
        {
          "name": "G#4",
          "midi": 68,
          "time": 21.771419499999634,
          "velocity": 0.84251968503937,
          "duration": 0.6857139999999617
        },
        {
          "name": "D#4",
          "midi": 63,
          "time": 21.771419499999634,
          "velocity": 0.7952755905511811,
          "duration": 0.6857139999999617
        },
        {
          "name": "G4",
          "midi": 67,
          "time": 22.457133499999596,
          "velocity": 0.7952755905511811,
          "duration": 0.6857139999999617
        },
        {
          "name": "D#4",
          "midi": 63,
          "time": 22.457133499999596,
          "velocity": 0.7637795275590551,
          "duration": 0.6857139999999617
        },
        {
          "name": "G4",
          "midi": 67,
          "time": 23.48570449999954,
          "velocity": 0.984251968503937,
          "duration": 0.25714274999998565
        },
        {
          "name": "C4",
          "midi": 60,
          "time": 23.82856149999952,
          "velocity": 0.984251968503937,
          "duration": 0.17142849999999044
        },
        {
          "name": "D4",
          "midi": 62,
          "time": 23.99998999999951,
          "velocity": 0.984251968503937,
          "duration": 0.17142849999999044
        },
        {
          "name": "D#4",
          "midi": 63,
          "time": 24.34284699999949,
          "velocity": 0.984251968503937,
          "duration": 0.4285712499999761
        },
        {
          "name": "D4",
          "midi": 62,
          "time": 24.857132499999462,
          "velocity": 0.984251968503937,
          "duration": 0.17142849999999044
        },
        {
          "name": "D#4",
          "midi": 63,
          "time": 25.028560999999453,
          "velocity": 0.984251968503937,
          "duration": 0.25714274999998565
        },
        {
          "name": "F4",
          "midi": 65,
          "time": 25.371417999999434,
          "velocity": 0.984251968503937,
          "duration": 0.17142849999999044
        },
        {
          "name": "D4",
          "midi": 62,
          "time": 25.714274999999414,
          "velocity": 0.984251968503937,
          "duration": 0.34285699999998087
        },
        {
          "name": "D4",
          "midi": 62,
          "time": 26.228560499999386,
          "velocity": 0.984251968503937,
          "duration": 0.25714274999998565
        },
        {
          "name": "D4",
          "midi": 62,
          "time": 26.571417499999367,
          "velocity": 0.984251968503937,
          "duration": 0.17142849999999044
        },
        {
          "name": "C4",
          "midi": 60,
          "time": 26.742845999999357,
          "velocity": 0.984251968503937,
          "duration": 0.17142849999999044
        },
        {
          "name": "A#3",
          "midi": 58,
          "time": 27.085702999999338,
          "velocity": 0.984251968503937,
          "duration": 0.6857139999999617
        },
        {
          "name": "A#3",
          "midi": 58,
          "time": 28.11427399999928,
          "velocity": 0.984251968503937,
          "duration": 0.34285699999998087
        },
        {
          "name": "C4",
          "midi": 60,
          "time": 28.45713099999926,
          "velocity": 0.984251968503937,
          "duration": 0.17142849999999044
        },
        {
          "name": "D4",
          "midi": 62,
          "time": 28.628559499999252,
          "velocity": 0.984251968503937,
          "duration": 0.25714274999998565
        },
        {
          "name": "A#3",
          "midi": 58,
          "time": 28.971416499999233,
          "velocity": 0.984251968503937,
          "duration": 0.17142849999999044
        },
        {
          "name": "A#3",
          "midi": 58,
          "time": 29.314273499999214,
          "velocity": 0.984251968503937,
          "duration": 0.17142849999999044
        },
        {
          "name": "D4",
          "midi": 62,
          "time": 29.485701999999204,
          "velocity": 0.984251968503937,
          "duration": 0.17142849999999044
        },
        {
          "name": "G#4",
          "midi": 68,
          "time": 29.828558999999185,
          "velocity": 0.984251968503937,
          "duration": 0.17142849999999044
        },
        {
          "name": "G4",
          "midi": 67,
          "time": 30.171415999999166,
          "velocity": 0.984251968503937,
          "duration": 0.17142849999999044
        },
        {
          "name": "G4",
          "midi": 67,
          "time": 30.342844499999156,
          "velocity": 0.984251968503937,
          "duration": 0.17142849999999044
        },
        {
          "name": "F4",
          "midi": 65,
          "time": 30.514272999999147,
          "velocity": 0.984251968503937,
          "duration": 0.17142849999999044
        },
        {
          "name": "D4",
          "midi": 62,
          "time": 30.857129999999128,
          "velocity": 0.984251968503937,
          "duration": 0.25714274999998565
        },
        {
          "name": "F4",
          "midi": 65,
          "time": 31.19998699999911,
          "velocity": 0.984251968503937,
          "duration": 0.17142849999999044
        },
        {
          "name": "D#4",
          "midi": 63,
          "time": 31.3714154999991,
          "velocity": 0.984251968503937,
          "duration": 0.6857139999999653
        },
        {
          "name": "F4",
          "midi": 65,
          "time": 32.057129499999064,
          "velocity": 0.984251968503937,
          "duration": 0.6857139999999617
        },
        {
          "name": "D#4",
          "midi": 63,
          "time": 32.742843499999026,
          "velocity": 0.984251968503937,
          "duration": 0.685714000000047
        },
        {
          "name": "D4",
          "midi": 62,
          "time": 33.42855749999907,
          "velocity": 0.984251968503937,
          "duration": 0.5142854999999713
        },
        {
          "name": "G4",
          "midi": 67,
          "time": 34.457128499999016,
          "velocity": 0.984251968503937,
          "duration": 0.25714274999998565
        },
        {
          "name": "C4",
          "midi": 60,
          "time": 34.799985499998996,
          "velocity": 0.984251968503937,
          "duration": 0.17142849999999044
        },
        {
          "name": "D4",
          "midi": 62,
          "time": 34.97141399999899,
          "velocity": 0.984251968503937,
          "duration": 0.17142849999999044
        },
        {
          "name": "D#4",
          "midi": 63,
          "time": 35.31427099999897,
          "velocity": 0.984251968503937,
          "duration": 0.4285712499999761
        },
        {
          "name": "D4",
          "midi": 62,
          "time": 35.82855649999894,
          "velocity": 0.984251968503937,
          "duration": 0.17142849999999044
        },
        {
          "name": "D#4",
          "midi": 63,
          "time": 35.99998499999893,
          "velocity": 0.984251968503937,
          "duration": 0.25714274999998565
        },
        {
          "name": "F4",
          "midi": 65,
          "time": 36.34284199999891,
          "velocity": 0.984251968503937,
          "duration": 0.17142849999999044
        },
        {
          "name": "D4",
          "midi": 62,
          "time": 36.68569899999889,
          "velocity": 0.984251968503937,
          "duration": 0.34285699999998087
        },
        {
          "name": "D4",
          "midi": 62,
          "time": 37.19998449999886,
          "velocity": 0.984251968503937,
          "duration": 0.25714274999998565
        },
        {
          "name": "D4",
          "midi": 62,
          "time": 37.54284149999884,
          "velocity": 0.984251968503937,
          "duration": 0.17142849999999044
        },
        {
          "name": "C4",
          "midi": 60,
          "time": 37.714269999998834,
          "velocity": 0.984251968503937,
          "duration": 0.25714274999998565
        },
        {
          "name": "A#3",
          "midi": 58,
          "time": 38.057126999998815,
          "velocity": 0.984251968503937,
          "duration": 0.6857139999999617
        },
        {
          "name": "A#4",
          "midi": 70,
          "time": 39.08569799999876,
          "velocity": 0.984251968503937,
          "duration": 0.34285699999998087
        },
        {
          "name": "G4",
          "midi": 67,
          "time": 39.42855499999874,
          "velocity": 0.984251968503937,
          "duration": 0.17142849999999044
        },
        {
          "name": "F4",
          "midi": 65,
          "time": 39.59998349999873,
          "velocity": 0.984251968503937,
          "duration": 0.34285699999998087
        },
        {
          "name": "D#4",
          "midi": 63,
          "time": 39.94284049999871,
          "velocity": 0.984251968503937,
          "duration": 0.25714274999998565
        },
        {
          "name": "F4",
          "midi": 65,
          "time": 40.28569749999869,
          "velocity": 0.984251968503937,
          "duration": 0.17142849999999044
        },
        {
          "name": "D#4",
          "midi": 63,
          "time": 40.45712599999868,
          "velocity": 0.984251968503937,
          "duration": 0.25714274999998565
        },
        {
          "name": "F4",
          "midi": 65,
          "time": 40.79998299999866,
          "velocity": 0.984251968503937,
          "duration": 0.25714274999998565
        },
        {
          "name": "F4",
          "midi": 65,
          "time": 41.14283999999864,
          "velocity": 0.984251968503937,
          "duration": 0.25714274999998565
        },
        {
          "name": "F4",
          "midi": 65,
          "time": 41.48569699999862,
          "velocity": 0.984251968503937,
          "duration": 0.17142849999999044
        },
        {
          "name": "A#3",
          "midi": 58,
          "time": 41.657125499998614,
          "velocity": 0.984251968503937,
          "duration": 0.17142849999999044
        },
        {
          "name": "A#3",
          "midi": 58,
          "time": 41.828553999998604,
          "velocity": 0.984251968503937,
          "duration": 0.17142849999999044
        },
        {
          "name": "A#4",
          "midi": 70,
          "time": 41.999982499998595,
          "velocity": 0.984251968503937,
          "duration": 0.34285699999998087
        },
        {
          "name": "G4",
          "midi": 67,
          "time": 42.342839499998576,
          "velocity": 0.984251968503937,
          "duration": 0.4285712499999761
        },
        {
          "name": "F4",
          "midi": 65,
          "time": 42.85712499999855,
          "velocity": 0.984251968503937,
          "duration": 0.4285712499999761
        },
        {
          "name": "D#4",
          "midi": 63,
          "time": 43.37141049999852,
          "velocity": 0.984251968503937,
          "duration": 1.0285709999999426
        },
        {
          "name": "D#4",
          "midi": 63,
          "time": 44.74283849999844,
          "velocity": 0.984251968503937,
          "duration": 0.17142849999999044
        },
        {
          "name": "C4",
          "midi": 60,
          "time": 44.74283849999844,
          "velocity": 0.5905511811023622,
          "duration": 0.17142849999999044
        },
        {
          "name": "F4",
          "midi": 65,
          "time": 44.91426699999843,
          "velocity": 0.984251968503937,
          "duration": 0.17142849999999044
        },
        {
          "name": "D4",
          "midi": 62,
          "time": 44.91426699999843,
          "velocity": 0.5905511811023622,
          "duration": 0.17142849999999044
        },
        {
          "name": "G4",
          "midi": 67,
          "time": 45.08569549999842,
          "velocity": 0.984251968503937,
          "duration": 0.9428567499999474
        },
        {
          "name": "D#4",
          "midi": 63,
          "time": 45.08569549999842,
          "velocity": 0.5905511811023622,
          "duration": 0.9428567499999474
        },
        {
          "name": "F4",
          "midi": 65,
          "time": 46.114266499998365,
          "velocity": 0.984251968503937,
          "duration": 0.17142849999999044
        },
        {
          "name": "D4",
          "midi": 62,
          "time": 46.114266499998365,
          "velocity": 0.5905511811023622,
          "duration": 0.17142849999999044
        },
        {
          "name": "D#4",
          "midi": 63,
          "time": 46.285694999998356,
          "velocity": 0.984251968503937,
          "duration": 0.6857139999999617
        },
        {
          "name": "C4",
          "midi": 60,
          "time": 46.285694999998356,
          "velocity": 0.5905511811023622,
          "duration": 0.6857139999999617
        },
        {
          "name": "D#4",
          "midi": 63,
          "time": 47.14283749999831,
          "velocity": 0.984251968503937,
          "duration": 0.34285699999998087
        },
        {
          "name": "C4",
          "midi": 60,
          "time": 47.14283749999831,
          "velocity": 0.5905511811023622,
          "duration": 0.34285699999998087
        },
        {
          "name": "F4",
          "midi": 65,
          "time": 47.48569449999829,
          "velocity": 0.984251968503937,
          "duration": 0.34285699999998087
        },
        {
          "name": "D4",
          "midi": 62,
          "time": 47.48569449999829,
          "velocity": 0.5905511811023622,
          "duration": 0.34285699999998087
        },
        {
          "name": "A#3",
          "midi": 58,
          "time": 47.82855149999827,
          "velocity": 0.984251968503937,
          "duration": 0.5142854999999713
        },
        {
          "name": "G3",
          "midi": 55,
          "time": 47.82855149999827,
          "velocity": 0.5905511811023622,
          "duration": 0.5142854999999713
        },
        {
          "name": "G4",
          "midi": 67,
          "time": 48.34283699999824,
          "velocity": 0.984251968503937,
          "duration": 0.4285712499999761
        },
        {
          "name": "D#4",
          "midi": 63,
          "time": 48.34283699999824,
          "velocity": 0.5905511811023622,
          "duration": 0.4285712499999761
        },
        {
          "name": "G4",
          "midi": 67,
          "time": 48.85712249999821,
          "velocity": 0.984251968503937,
          "duration": 0.8571424999999522
        },
        {
          "name": "D#4",
          "midi": 63,
          "time": 48.85712249999821,
          "velocity": 0.5905511811023622,
          "duration": 0.8571424999999522
        },
        {
          "name": "G4",
          "midi": 67,
          "time": 50.228550499998136,
          "velocity": 0.984251968503937,
          "duration": 0.17142849999999044
        },
        {
          "name": "D#4",
          "midi": 63,
          "time": 50.228550499998136,
          "velocity": 0.5905511811023622,
          "duration": 0.17142849999999044
        },
        {
          "name": "G#4",
          "midi": 68,
          "time": 50.399978999998126,
          "velocity": 0.984251968503937,
          "duration": 0.17142849999999044
        },
        {
          "name": "F4",
          "midi": 65,
          "time": 50.399978999998126,
          "velocity": 0.5905511811023622,
          "duration": 0.17142849999999044
        },
        {
          "name": "A#4",
          "midi": 70,
          "time": 50.57140749999812,
          "velocity": 0.984251968503937,
          "duration": 0.4285712499999761
        },
        {
          "name": "G4",
          "midi": 67,
          "time": 50.57140749999812,
          "velocity": 0.5905511811023622,
          "duration": 0.4285712499999761
        },
        {
          "name": "G#4",
          "midi": 68,
          "time": 51.08569299999809,
          "velocity": 0.984251968503937,
          "duration": 0.4285712499999761
        },
        {
          "name": "F4",
          "midi": 65,
          "time": 51.08569299999809,
          "velocity": 0.5905511811023622,
          "duration": 0.4285712499999761
        },
        {
          "name": "G4",
          "midi": 67,
          "time": 51.59997849999806,
          "velocity": 0.984251968503937,
          "duration": 0.4285712499999761
        },
        {
          "name": "D#4",
          "midi": 63,
          "time": 51.59997849999806,
          "velocity": 0.5905511811023622,
          "duration": 0.4285712499999761
        },
        {
          "name": "F4",
          "midi": 65,
          "time": 52.11426399999803,
          "velocity": 0.984251968503937,
          "duration": 0.4285712499999761
        },
        {
          "name": "D4",
          "midi": 62,
          "time": 52.11426399999803,
          "velocity": 0.5905511811023622,
          "duration": 0.4285712499999761
        },
        {
          "name": "D#4",
          "midi": 63,
          "time": 52.628549499998,
          "velocity": 0.984251968503937,
          "duration": 0.25714274999998565
        },
        {
          "name": "C4",
          "midi": 60,
          "time": 52.628549499998,
          "velocity": 0.5905511811023622,
          "duration": 0.25714274999998565
        },
        {
          "name": "F4",
          "midi": 65,
          "time": 52.97140649999798,
          "velocity": 0.984251968503937,
          "duration": 0.17142849999999044
        },
        {
          "name": "D4",
          "midi": 62,
          "time": 52.97140649999798,
          "velocity": 0.5905511811023622,
          "duration": 0.17142849999999044
        },
        {
          "name": "A#3",
          "midi": 58,
          "time": 53.14283499999797,
          "velocity": 0.984251968503937,
          "duration": 1.1142852499999378
        },
        {
          "name": "G3",
          "midi": 55,
          "time": 53.14283499999797,
          "velocity": 0.5905511811023622,
          "duration": 1.1142852499999378
        },
        {
          "name": "G#3",
          "midi": 56,
          "time": 54.342834499997906,
          "velocity": 0.984251968503937,
          "duration": 0.17142849999999044
        },
        {
          "name": "F3",
          "midi": 53,
          "time": 54.342834499997906,
          "velocity": 0.5905511811023622,
          "duration": 0.17142849999999044
        },
        {
          "name": "A#3",
          "midi": 58,
          "time": 54.5142629999979,
          "velocity": 0.984251968503937,
          "duration": 0.9428567499999474
        },
        {
          "name": "G3",
          "midi": 55,
          "time": 54.5142629999979,
          "velocity": 0.5905511811023622,
          "duration": 0.9428567499999474
        },
        {
          "name": "D#4",
          "midi": 63,
          "time": 55.71426249999783,
          "velocity": 0.984251968503937,
          "duration": 0.17142849999999044
        },
        {
          "name": "C4",
          "midi": 60,
          "time": 55.71426249999783,
          "velocity": 0.5905511811023622,
          "duration": 0.17142849999999044
        },
        {
          "name": "F4",
          "midi": 65,
          "time": 55.88569099999782,
          "velocity": 0.984251968503937,
          "duration": 0.17142849999999044
        },
        {
          "name": "D4",
          "midi": 62,
          "time": 55.88569099999782,
          "velocity": 0.5905511811023622,
          "duration": 0.17142849999999044
        },
        {
          "name": "G4",
          "midi": 67,
          "time": 56.05711949999781,
          "velocity": 0.984251968503937,
          "duration": 0.9428567499999474
        },
        {
          "name": "D#4",
          "midi": 63,
          "time": 56.05711949999781,
          "velocity": 0.5905511811023622,
          "duration": 0.9428567499999474
        },
        {
          "name": "F4",
          "midi": 65,
          "time": 57.08569049999775,
          "velocity": 0.984251968503937,
          "duration": 0.17142849999999044
        },
        {
          "name": "D4",
          "midi": 62,
          "time": 57.08569049999775,
          "velocity": 0.5905511811023622,
          "duration": 0.17142849999999044
        },
        {
          "name": "D#4",
          "midi": 63,
          "time": 57.25711899999774,
          "velocity": 0.984251968503937,
          "duration": 0.6857139999999617
        },
        {
          "name": "C4",
          "midi": 60,
          "time": 57.25711899999774,
          "velocity": 0.5905511811023622,
          "duration": 0.6857139999999617
        },
        {
          "name": "D#4",
          "midi": 63,
          "time": 58.114261499997696,
          "velocity": 0.984251968503937,
          "duration": 0.34285699999998087
        },
        {
          "name": "C4",
          "midi": 60,
          "time": 58.114261499997696,
          "velocity": 0.5905511811023622,
          "duration": 0.34285699999998087
        },
        {
          "name": "F4",
          "midi": 65,
          "time": 58.45711849999768,
          "velocity": 0.984251968503937,
          "duration": 0.34285699999998087
        },
        {
          "name": "D4",
          "midi": 62,
          "time": 58.45711849999768,
          "velocity": 0.5905511811023622,
          "duration": 0.34285699999998087
        },
        {
          "name": "A#4",
          "midi": 70,
          "time": 58.79997549999766,
          "velocity": 0.984251968503937,
          "duration": 0.4285712499999761
        },
        {
          "name": "G4",
          "midi": 67,
          "time": 58.79997549999766,
          "velocity": 0.5905511811023622,
          "duration": 0.4285712499999761
        },
        {
          "name": "A#4",
          "midi": 70,
          "time": 59.31426099999763,
          "velocity": 0.984251968503937,
          "duration": 0.4285712499999761
        },
        {
          "name": "G4",
          "midi": 67,
          "time": 59.31426099999763,
          "velocity": 0.5905511811023622,
          "duration": 0.4285712499999761
        },
        {
          "name": "D4",
          "midi": 62,
          "time": 59.8285464999976,
          "velocity": 0.984251968503937,
          "duration": 0.17142849999999044
        },
        {
          "name": "A#3",
          "midi": 58,
          "time": 59.8285464999976,
          "velocity": 0.5905511811023622,
          "duration": 0.17142849999999044
        },
        {
          "name": "D#4",
          "midi": 63,
          "time": 59.99997499999759,
          "velocity": 0.984251968503937,
          "duration": 0.5999997499999665
        },
        {
          "name": "C4",
          "midi": 60,
          "time": 59.99997499999759,
          "velocity": 0.5905511811023622,
          "duration": 0.5999997499999665
        },
        {
          "name": "C4",
          "midi": 60,
          "time": 60.85711749999754,
          "velocity": 0.984251968503937,
          "duration": 0.34285699999998087
        },
        {
          "name": "D#4",
          "midi": 63,
          "time": 61.19997449999752,
          "velocity": 0.984251968503937,
          "duration": 0.34285699999998087
        },
        {
          "name": "F4",
          "midi": 65,
          "time": 61.542831499997504,
          "velocity": 0.984251968503937,
          "duration": 0.34285699999998087
        },
        {
          "name": "D#4",
          "midi": 63,
          "time": 61.885688499997485,
          "velocity": 0.984251968503937,
          "duration": 0.17142849999999044
        },
        {
          "name": "F4",
          "midi": 65,
          "time": 62.057116999997476,
          "velocity": 0.984251968503937,
          "duration": 0.34285699999998087
        },
        {
          "name": "D#4",
          "midi": 63,
          "time": 62.39997399999746,
          "velocity": 0.984251968503937,
          "duration": 0.25714274999998565
        },
        {
          "name": "F4",
          "midi": 65,
          "time": 62.74283099999744,
          "velocity": 0.984251968503937,
          "duration": 0.4285712499999761
        },
        {
          "name": "D#4",
          "midi": 63,
          "time": 63.25711649999741,
          "velocity": 0.984251968503937,
          "duration": 0.17142849999999044
        },
        {
          "name": "F4",
          "midi": 65,
          "time": 63.4285449999974,
          "velocity": 0.984251968503937,
          "duration": 0.25714274999998565
        },
        {
          "name": "G4",
          "midi": 67,
          "time": 63.77140199999738,
          "velocity": 0.984251968503937,
          "duration": 0.3428570000000235
        },
        {
          "name": "G#4",
          "midi": 68,
          "time": 64.1142589999974,
          "velocity": 0.984251968503937,
          "duration": 1.7142850000004728
        },
        {
          "name": "F#4",
          "midi": 66,
          "time": 66.34282949999802,
          "velocity": 0.984251968503937,
          "duration": 0.17142850000004728
        },
        {
          "name": "D#4",
          "midi": 63,
          "time": 66.34282949999802,
          "velocity": 0.5905511811023622,
          "duration": 0.17142850000004728
        },
        {
          "name": "A#4",
          "midi": 70,
          "time": 66.34282949999802,
          "velocity": 0.7874015748031497,
          "duration": 0.17142850000004728
        },
        {
          "name": "F4",
          "midi": 65,
          "time": 66.51425799999807,
          "velocity": 0.984251968503937,
          "duration": 0.17142850000004728
        },
        {
          "name": "C#4",
          "midi": 61,
          "time": 66.51425799999807,
          "velocity": 0.5905511811023622,
          "duration": 0.17142850000004728
        },
        {
          "name": "G#4",
          "midi": 68,
          "time": 66.51425799999807,
          "velocity": 0.7874015748031497,
          "duration": 0.17142850000004728
        },
        {
          "name": "F#4",
          "midi": 66,
          "time": 66.68568649999811,
          "velocity": 0.984251968503937,
          "duration": 0.17142850000004728
        },
        {
          "name": "D#4",
          "midi": 63,
          "time": 66.68568649999811,
          "velocity": 0.5905511811023622,
          "duration": 0.17142850000004728
        },
        {
          "name": "A#4",
          "midi": 70,
          "time": 66.68568649999811,
          "velocity": 0.7874015748031497,
          "duration": 0.17142850000004728
        },
        {
          "name": "G#4",
          "midi": 68,
          "time": 66.85711499999816,
          "velocity": 0.984251968503937,
          "duration": 0.17142850000004728
        },
        {
          "name": "F4",
          "midi": 65,
          "time": 66.85711499999816,
          "velocity": 0.5905511811023622,
          "duration": 0.17142850000004728
        },
        {
          "name": "B4",
          "midi": 71,
          "time": 66.85711499999816,
          "velocity": 0.7874015748031497,
          "duration": 0.17142850000004728
        },
        {
          "name": "A#4",
          "midi": 70,
          "time": 67.02854349999821,
          "velocity": 0.984251968503937,
          "duration": 0.34285700000009456
        },
        {
          "name": "F#4",
          "midi": 66,
          "time": 67.02854349999821,
          "velocity": 0.5905511811023622,
          "duration": 0.34285700000009456
        },
        {
          "name": "C#5",
          "midi": 73,
          "time": 67.02854349999821,
          "velocity": 0.7874015748031497,
          "duration": 0.34285700000009456
        },
        {
          "name": "F#4",
          "midi": 66,
          "time": 67.54282899999835,
          "velocity": 0.984251968503937,
          "duration": 0.17142850000004728
        },
        {
          "name": "D#4",
          "midi": 63,
          "time": 67.54282899999835,
          "velocity": 0.5905511811023622,
          "duration": 0.17142850000004728
        },
        {
          "name": "A#4",
          "midi": 70,
          "time": 67.54282899999835,
          "velocity": 0.7874015748031497,
          "duration": 0.17142850000004728
        },
        {
          "name": "G#4",
          "midi": 68,
          "time": 67.7142574999984,
          "velocity": 0.984251968503937,
          "duration": 0.17142850000004728
        },
        {
          "name": "F4",
          "midi": 65,
          "time": 67.7142574999984,
          "velocity": 0.5905511811023622,
          "duration": 0.17142850000004728
        },
        {
          "name": "B4",
          "midi": 71,
          "time": 67.7142574999984,
          "velocity": 0.7874015748031497,
          "duration": 0.17142850000004728
        },
        {
          "name": "A#4",
          "midi": 70,
          "time": 67.88568599999844,
          "velocity": 0.984251968503937,
          "duration": 0.2571427500000709
        },
        {
          "name": "F#4",
          "midi": 66,
          "time": 67.88568599999844,
          "velocity": 0.5905511811023622,
          "duration": 0.2571427500000709
        },
        {
          "name": "C#5",
          "midi": 73,
          "time": 67.88568599999844,
          "velocity": 0.7874015748031497,
          "duration": 0.2571427500000709
        },
        {
          "name": "F#4",
          "midi": 66,
          "time": 68.22854299999854,
          "velocity": 0.984251968503937,
          "duration": 0.17142850000004728
        },
        {
          "name": "D#4",
          "midi": 63,
          "time": 68.22854299999854,
          "velocity": 0.5905511811023622,
          "duration": 0.17142850000004728
        },
        {
          "name": "A#4",
          "midi": 70,
          "time": 68.22854299999854,
          "velocity": 0.7874015748031497,
          "duration": 0.17142850000004728
        },
        {
          "name": "G#4",
          "midi": 68,
          "time": 68.39997149999859,
          "velocity": 0.984251968503937,
          "duration": 0.17142850000004728
        },
        {
          "name": "F4",
          "midi": 65,
          "time": 68.39997149999859,
          "velocity": 0.5905511811023622,
          "duration": 0.17142850000004728
        },
        {
          "name": "B4",
          "midi": 71,
          "time": 68.39997149999859,
          "velocity": 0.7874015748031497,
          "duration": 0.17142850000004728
        },
        {
          "name": "A#4",
          "midi": 70,
          "time": 68.57139999999863,
          "velocity": 0.984251968503937,
          "duration": 0.2571427500000709
        },
        {
          "name": "F#4",
          "midi": 66,
          "time": 68.57139999999863,
          "velocity": 0.5905511811023622,
          "duration": 0.2571427500000709
        },
        {
          "name": "C#5",
          "midi": 73,
          "time": 68.57139999999863,
          "velocity": 0.7874015748031497,
          "duration": 0.2571427500000709
        },
        {
          "name": "C#5",
          "midi": 73,
          "time": 68.91425699999873,
          "velocity": 0.984251968503937,
          "duration": 0.2571427500000709
        },
        {
          "name": "A#4",
          "midi": 70,
          "time": 68.91425699999873,
          "velocity": 0.5905511811023622,
          "duration": 0.2571427500000709
        },
        {
          "name": "F#5",
          "midi": 78,
          "time": 68.91425699999873,
          "velocity": 0.7874015748031497,
          "duration": 0.2571427500000709
        },
        {
          "name": "G#4",
          "midi": 68,
          "time": 69.25711399999882,
          "velocity": 0.984251968503937,
          "duration": 0.2571427500000709
        },
        {
          "name": "F4",
          "midi": 65,
          "time": 69.25711399999882,
          "velocity": 0.5905511811023622,
          "duration": 0.2571427500000709
        },
        {
          "name": "C#5",
          "midi": 73,
          "time": 69.25711399999882,
          "velocity": 0.7874015748031497,
          "duration": 0.2571427500000709
        },
        {
          "name": "G#4",
          "midi": 68,
          "time": 69.59997099999892,
          "velocity": 0.984251968503937,
          "duration": 0.5142855000001418
        },
        {
          "name": "F4",
          "midi": 65,
          "time": 69.59997099999892,
          "velocity": 0.5905511811023622,
          "duration": 0.5142855000001418
        },
        {
          "name": "C#5",
          "midi": 73,
          "time": 69.59997099999892,
          "velocity": 0.7874015748031497,
          "duration": 0.5142855000001418
        },
        {
          "name": "F4",
          "midi": 65,
          "time": 70.2856849999991,
          "velocity": 0.984251968503937,
          "duration": 0.17142850000004728
        },
        {
          "name": "C#4",
          "midi": 61,
          "time": 70.2856849999991,
          "velocity": 0.5905511811023622,
          "duration": 0.17142850000004728
        },
        {
          "name": "A#4",
          "midi": 70,
          "time": 70.2856849999991,
          "velocity": 0.7874015748031497,
          "duration": 0.17142850000004728
        },
        {
          "name": "F#4",
          "midi": 66,
          "time": 70.45711349999915,
          "velocity": 0.984251968503937,
          "duration": 0.17142850000004728
        },
        {
          "name": "D#4",
          "midi": 63,
          "time": 70.45711349999915,
          "velocity": 0.5905511811023622,
          "duration": 0.17142850000004728
        },
        {
          "name": "B4",
          "midi": 71,
          "time": 70.45711349999915,
          "velocity": 0.7874015748031497,
          "duration": 0.17142850000004728
        },
        {
          "name": "G#4",
          "midi": 68,
          "time": 70.6285419999992,
          "velocity": 0.984251968503937,
          "duration": 0.2571427500000709
        },
        {
          "name": "F4",
          "midi": 65,
          "time": 70.6285419999992,
          "velocity": 0.5905511811023622,
          "duration": 0.2571427500000709
        },
        {
          "name": "C#5",
          "midi": 73,
          "time": 70.6285419999992,
          "velocity": 0.7874015748031497,
          "duration": 0.2571427500000709
        },
        {
          "name": "F4",
          "midi": 65,
          "time": 70.9713989999993,
          "velocity": 0.984251968503937,
          "duration": 0.17142850000004728
        },
        {
          "name": "C#4",
          "midi": 61,
          "time": 70.9713989999993,
          "velocity": 0.5905511811023622,
          "duration": 0.17142850000004728
        },
        {
          "name": "B4",
          "midi": 71,
          "time": 70.9713989999993,
          "velocity": 0.7874015748031497,
          "duration": 0.17142850000004728
        },
        {
          "name": "F#4",
          "midi": 66,
          "time": 71.14282749999934,
          "velocity": 0.984251968503937,
          "duration": 0.17142850000004728
        },
        {
          "name": "D#4",
          "midi": 63,
          "time": 71.14282749999934,
          "velocity": 0.5905511811023622,
          "duration": 0.17142850000004728
        },
        {
          "name": "C#5",
          "midi": 73,
          "time": 71.14282749999934,
          "velocity": 0.7874015748031497,
          "duration": 0.17142850000004728
        },
        {
          "name": "F#4",
          "midi": 66,
          "time": 71.31425599999939,
          "velocity": 0.984251968503937,
          "duration": 0.17142850000004728
        },
        {
          "name": "D#4",
          "midi": 63,
          "time": 71.31425599999939,
          "velocity": 0.5905511811023622,
          "duration": 0.17142850000004728
        },
        {
          "name": "B4",
          "midi": 71,
          "time": 71.31425599999939,
          "velocity": 0.7874015748031497,
          "duration": 0.17142850000004728
        },
        {
          "name": "F4",
          "midi": 65,
          "time": 71.48568449999944,
          "velocity": 0.984251968503937,
          "duration": 0.17142850000004728
        },
        {
          "name": "C#4",
          "midi": 61,
          "time": 71.48568449999944,
          "velocity": 0.5905511811023622,
          "duration": 0.17142850000004728
        },
        {
          "name": "A#4",
          "midi": 70,
          "time": 71.48568449999944,
          "velocity": 0.7874015748031497,
          "duration": 0.17142850000004728
        },
        {
          "name": "F#4",
          "midi": 66,
          "time": 71.65711299999948,
          "velocity": 0.984251968503937,
          "duration": 0.17142850000004728
        },
        {
          "name": "D#4",
          "midi": 63,
          "time": 71.65711299999948,
          "velocity": 0.5905511811023622,
          "duration": 0.17142850000004728
        },
        {
          "name": "B4",
          "midi": 71,
          "time": 71.65711299999948,
          "velocity": 0.7874015748031497,
          "duration": 0.17142850000004728
        },
        {
          "name": "F4",
          "midi": 65,
          "time": 71.99996999999958,
          "velocity": 0.984251968503937,
          "duration": 0.17142850000004728
        },
        {
          "name": "C#4",
          "midi": 61,
          "time": 71.99996999999958,
          "velocity": 0.5905511811023622,
          "duration": 0.17142850000004728
        },
        {
          "name": "G#4",
          "midi": 68,
          "time": 71.99996999999958,
          "velocity": 0.7874015748031497,
          "duration": 0.17142850000004728
        },
        {
          "name": "F#4",
          "midi": 66,
          "time": 72.17139849999963,
          "velocity": 0.984251968503937,
          "duration": 0.17142850000004728
        },
        {
          "name": "D#4",
          "midi": 63,
          "time": 72.17139849999963,
          "velocity": 0.5905511811023622,
          "duration": 0.17142850000004728
        },
        {
          "name": "A#4",
          "midi": 70,
          "time": 72.17139849999963,
          "velocity": 0.7874015748031497,
          "duration": 0.17142850000004728
        },
        {
          "name": "G#4",
          "midi": 68,
          "time": 72.34282699999967,
          "velocity": 0.984251968503937,
          "duration": 0.17142850000004728
        },
        {
          "name": "F4",
          "midi": 65,
          "time": 72.34282699999967,
          "velocity": 0.5905511811023622,
          "duration": 0.17142850000004728
        },
        {
          "name": "B4",
          "midi": 71,
          "time": 72.34282699999967,
          "velocity": 0.7874015748031497,
          "duration": 0.17142850000004728
        },
        {
          "name": "A#4",
          "midi": 70,
          "time": 72.51425549999972,
          "velocity": 0.984251968503937,
          "duration": 0.34285700000009456
        },
        {
          "name": "F#4",
          "midi": 66,
          "time": 72.51425549999972,
          "velocity": 0.5905511811023622,
          "duration": 0.34285700000009456
        },
        {
          "name": "C#5",
          "midi": 73,
          "time": 72.51425549999972,
          "velocity": 0.7874015748031497,
          "duration": 0.34285700000009456
        },
        {
          "name": "F#4",
          "midi": 66,
          "time": 73.02854099999986,
          "velocity": 0.984251968503937,
          "duration": 0.17142850000004728
        },
        {
          "name": "D#4",
          "midi": 63,
          "time": 73.02854099999986,
          "velocity": 0.5905511811023622,
          "duration": 0.17142850000004728
        },
        {
          "name": "A#4",
          "midi": 70,
          "time": 73.02854099999986,
          "velocity": 0.7874015748031497,
          "duration": 0.17142850000004728
        },
        {
          "name": "G#4",
          "midi": 68,
          "time": 73.19996949999991,
          "velocity": 0.984251968503937,
          "duration": 0.17142850000004728
        },
        {
          "name": "F4",
          "midi": 65,
          "time": 73.19996949999991,
          "velocity": 0.5905511811023622,
          "duration": 0.17142850000004728
        },
        {
          "name": "B4",
          "midi": 71,
          "time": 73.19996949999991,
          "velocity": 0.7874015748031497,
          "duration": 0.17142850000004728
        },
        {
          "name": "A#4",
          "midi": 70,
          "time": 73.37139799999996,
          "velocity": 0.984251968503937,
          "duration": 0.2571427500000709
        },
        {
          "name": "F#4",
          "midi": 66,
          "time": 73.37139799999996,
          "velocity": 0.5905511811023622,
          "duration": 0.2571427500000709
        },
        {
          "name": "C#5",
          "midi": 73,
          "time": 73.37139799999996,
          "velocity": 0.7874015748031497,
          "duration": 0.2571427500000709
        },
        {
          "name": "F#4",
          "midi": 66,
          "time": 73.71425500000005,
          "velocity": 0.984251968503937,
          "duration": 0.17142850000004728
        },
        {
          "name": "D#4",
          "midi": 63,
          "time": 73.71425500000005,
          "velocity": 0.5905511811023622,
          "duration": 0.17142850000004728
        },
        {
          "name": "A#4",
          "midi": 70,
          "time": 73.71425500000005,
          "velocity": 0.7874015748031497,
          "duration": 0.17142850000004728
        },
        {
          "name": "G#4",
          "midi": 68,
          "time": 73.8856835000001,
          "velocity": 0.984251968503937,
          "duration": 0.17142850000004728
        },
        {
          "name": "F4",
          "midi": 65,
          "time": 73.8856835000001,
          "velocity": 0.5905511811023622,
          "duration": 0.17142850000004728
        },
        {
          "name": "B4",
          "midi": 71,
          "time": 73.8856835000001,
          "velocity": 0.7874015748031497,
          "duration": 0.17142850000004728
        },
        {
          "name": "A#4",
          "midi": 70,
          "time": 74.05711200000015,
          "velocity": 0.984251968503937,
          "duration": 0.2571427500000709
        },
        {
          "name": "F#4",
          "midi": 66,
          "time": 74.05711200000015,
          "velocity": 0.5905511811023622,
          "duration": 0.2571427500000709
        },
        {
          "name": "C#5",
          "midi": 73,
          "time": 74.05711200000015,
          "velocity": 0.7874015748031497,
          "duration": 0.2571427500000709
        },
        {
          "name": "C#5",
          "midi": 73,
          "time": 74.39996900000024,
          "velocity": 0.984251968503937,
          "duration": 0.2571427500000709
        },
        {
          "name": "A#4",
          "midi": 70,
          "time": 74.39996900000024,
          "velocity": 0.5905511811023622,
          "duration": 0.2571427500000709
        },
        {
          "name": "F#5",
          "midi": 78,
          "time": 74.39996900000024,
          "velocity": 0.7874015748031497,
          "duration": 0.2571427500000709
        },
        {
          "name": "G#4",
          "midi": 68,
          "time": 74.74282600000033,
          "velocity": 0.984251968503937,
          "duration": 0.2571427500000709
        },
        {
          "name": "F4",
          "midi": 65,
          "time": 74.74282600000033,
          "velocity": 0.5905511811023622,
          "duration": 0.2571427500000709
        },
        {
          "name": "C#5",
          "midi": 73,
          "time": 74.74282600000033,
          "velocity": 0.7874015748031497,
          "duration": 0.2571427500000709
        },
        {
          "name": "G#4",
          "midi": 68,
          "time": 75.08568300000043,
          "velocity": 0.984251968503937,
          "duration": 1.0285710000002837
        },
        {
          "name": "F4",
          "midi": 65,
          "time": 75.08568300000043,
          "velocity": 0.5905511811023622,
          "duration": 1.0285710000002837
        },
        {
          "name": "A#4",
          "midi": 70,
          "time": 75.08568300000043,
          "velocity": 0.7874015748031497,
          "duration": 1.0285710000002837
        },
        {
          "name": "G4",
          "midi": 67,
          "time": 76.11425400000071,
          "velocity": 0.984251968503937,
          "duration": 0.17142850000004728
        },
        {
          "name": "D#4",
          "midi": 63,
          "time": 76.11425400000071,
          "velocity": 0.5905511811023622,
          "duration": 0.17142850000004728
        },
        {
          "name": "A#4",
          "midi": 70,
          "time": 76.11425400000071,
          "velocity": 0.7874015748031497,
          "duration": 0.17142850000004728
        },
        {
          "name": "G#4",
          "midi": 68,
          "time": 76.28568250000076,
          "velocity": 0.984251968503937,
          "duration": 0.17142850000004728
        },
        {
          "name": "F4",
          "midi": 65,
          "time": 76.28568250000076,
          "velocity": 0.5905511811023622,
          "duration": 0.17142850000004728
        },
        {
          "name": "C#5",
          "midi": 73,
          "time": 76.28568250000076,
          "velocity": 0.7874015748031497,
          "duration": 0.17142850000004728
        },
        {
          "name": "A#4",
          "midi": 70,
          "time": 76.45711100000081,
          "velocity": 0.984251968503937,
          "duration": 0.7714282500002128
        },
        {
          "name": "G4",
          "midi": 67,
          "time": 76.45711100000081,
          "velocity": 0.5905511811023622,
          "duration": 0.7714282500002128
        },
        {
          "name": "D#5",
          "midi": 75,
          "time": 76.45711100000081,
          "velocity": 0.7874015748031497,
          "duration": 0.7714282500002128
        },
        {
          "name": "F#4",
          "midi": 66,
          "time": 77.31425350000104,
          "velocity": 0.984251968503937,
          "duration": 0.17142850000004728
        },
        {
          "name": "D#4",
          "midi": 63,
          "time": 77.31425350000104,
          "velocity": 0.5905511811023622,
          "duration": 0.17142850000004728
        },
        {
          "name": "A#4",
          "midi": 70,
          "time": 77.31425350000104,
          "velocity": 0.7874015748031497,
          "duration": 0.17142850000004728
        },
        {
          "name": "F4",
          "midi": 65,
          "time": 77.48568200000109,
          "velocity": 0.984251968503937,
          "duration": 0.17142850000004728
        },
        {
          "name": "C#4",
          "midi": 61,
          "time": 77.48568200000109,
          "velocity": 0.5905511811023622,
          "duration": 0.17142850000004728
        },
        {
          "name": "G#4",
          "midi": 68,
          "time": 77.48568200000109,
          "velocity": 0.7874015748031497,
          "duration": 0.17142850000004728
        },
        {
          "name": "F#4",
          "midi": 66,
          "time": 77.65711050000114,
          "velocity": 0.984251968503937,
          "duration": 0.17142850000004728
        },
        {
          "name": "D#4",
          "midi": 63,
          "time": 77.65711050000114,
          "velocity": 0.5905511811023622,
          "duration": 0.17142850000004728
        },
        {
          "name": "A#4",
          "midi": 70,
          "time": 77.65711050000114,
          "velocity": 0.7874015748031497,
          "duration": 0.17142850000004728
        },
        {
          "name": "G#4",
          "midi": 68,
          "time": 77.82853900000119,
          "velocity": 0.984251968503937,
          "duration": 0.17142850000004728
        },
        {
          "name": "F4",
          "midi": 65,
          "time": 77.82853900000119,
          "velocity": 0.5905511811023622,
          "duration": 0.17142850000004728
        },
        {
          "name": "B4",
          "midi": 71,
          "time": 77.82853900000119,
          "velocity": 0.7874015748031497,
          "duration": 0.17142850000004728
        },
        {
          "name": "A#4",
          "midi": 70,
          "time": 77.99996750000123,
          "velocity": 0.984251968503937,
          "duration": 0.34285700000009456
        },
        {
          "name": "F#4",
          "midi": 66,
          "time": 77.99996750000123,
          "velocity": 0.5905511811023622,
          "duration": 0.34285700000009456
        },
        {
          "name": "C#5",
          "midi": 73,
          "time": 77.99996750000123,
          "velocity": 0.7874015748031497,
          "duration": 0.34285700000009456
        },
        {
          "name": "F#4",
          "midi": 66,
          "time": 78.51425300000137,
          "velocity": 0.984251968503937,
          "duration": 0.17142850000004728
        },
        {
          "name": "D#4",
          "midi": 63,
          "time": 78.51425300000137,
          "velocity": 0.5905511811023622,
          "duration": 0.17142850000004728
        },
        {
          "name": "A#4",
          "midi": 70,
          "time": 78.51425300000137,
          "velocity": 0.7874015748031497,
          "duration": 0.17142850000004728
        },
        {
          "name": "G#4",
          "midi": 68,
          "time": 78.68568150000142,
          "velocity": 0.984251968503937,
          "duration": 0.17142850000004728
        },
        {
          "name": "F4",
          "midi": 65,
          "time": 78.68568150000142,
          "velocity": 0.5905511811023622,
          "duration": 0.17142850000004728
        },
        {
          "name": "B4",
          "midi": 71,
          "time": 78.68568150000142,
          "velocity": 0.7874015748031497,
          "duration": 0.17142850000004728
        },
        {
          "name": "A#4",
          "midi": 70,
          "time": 78.85711000000147,
          "velocity": 0.984251968503937,
          "duration": 0.2571427500000709
        },
        {
          "name": "F#4",
          "midi": 66,
          "time": 78.85711000000147,
          "velocity": 0.5905511811023622,
          "duration": 0.2571427500000709
        },
        {
          "name": "C#5",
          "midi": 73,
          "time": 78.85711000000147,
          "velocity": 0.7874015748031497,
          "duration": 0.2571427500000709
        },
        {
          "name": "F#4",
          "midi": 66,
          "time": 79.19996700000156,
          "velocity": 0.984251968503937,
          "duration": 0.17142850000004728
        },
        {
          "name": "D#4",
          "midi": 63,
          "time": 79.19996700000156,
          "velocity": 0.5905511811023622,
          "duration": 0.17142850000004728
        },
        {
          "name": "A#4",
          "midi": 70,
          "time": 79.19996700000156,
          "velocity": 0.7874015748031497,
          "duration": 0.17142850000004728
        },
        {
          "name": "G#4",
          "midi": 68,
          "time": 79.37139550000161,
          "velocity": 0.984251968503937,
          "duration": 0.17142850000004728
        },
        {
          "name": "F4",
          "midi": 65,
          "time": 79.37139550000161,
          "velocity": 0.5905511811023622,
          "duration": 0.17142850000004728
        },
        {
          "name": "B4",
          "midi": 71,
          "time": 79.37139550000161,
          "velocity": 0.7874015748031497,
          "duration": 0.17142850000004728
        },
        {
          "name": "A#4",
          "midi": 70,
          "time": 79.54282400000166,
          "velocity": 0.984251968503937,
          "duration": 0.2571427500000709
        },
        {
          "name": "F#4",
          "midi": 66,
          "time": 79.54282400000166,
          "velocity": 0.5905511811023622,
          "duration": 0.2571427500000709
        },
        {
          "name": "C#5",
          "midi": 73,
          "time": 79.54282400000166,
          "velocity": 0.7874015748031497,
          "duration": 0.2571427500000709
        },
        {
          "name": "G#4",
          "midi": 68,
          "time": 80.57139500000176,
          "velocity": 0.984251968503937,
          "duration": 0.5142855000001418
        },
        {
          "name": "F4",
          "midi": 65,
          "time": 80.57139500000176,
          "velocity": 0.5905511811023622,
          "duration": 0.5142855000001418
        },
        {
          "name": "C#5",
          "midi": 73,
          "time": 80.57139500000176,
          "velocity": 0.7874015748031497,
          "duration": 0.5142855000001418
        },
        {
          "name": "F4",
          "midi": 65,
          "time": 81.25710900000195,
          "velocity": 0.984251968503937,
          "duration": 0.17142850000004728
        },
        {
          "name": "C#4",
          "midi": 61,
          "time": 81.25710900000195,
          "velocity": 0.5905511811023622,
          "duration": 0.17142850000004728
        },
        {
          "name": "A#4",
          "midi": 70,
          "time": 81.25710900000195,
          "velocity": 0.7874015748031497,
          "duration": 0.17142850000004728
        },
        {
          "name": "F#4",
          "midi": 66,
          "time": 81.428537500002,
          "velocity": 0.984251968503937,
          "duration": 0.17142850000004728
        },
        {
          "name": "D#4",
          "midi": 63,
          "time": 81.428537500002,
          "velocity": 0.5905511811023622,
          "duration": 0.17142850000004728
        },
        {
          "name": "B4",
          "midi": 71,
          "time": 81.428537500002,
          "velocity": 0.7874015748031497,
          "duration": 0.17142850000004728
        },
        {
          "name": "G#4",
          "midi": 68,
          "time": 81.59996600000204,
          "velocity": 0.984251968503937,
          "duration": 0.2571427500000709
        },
        {
          "name": "F4",
          "midi": 65,
          "time": 81.59996600000204,
          "velocity": 0.5905511811023622,
          "duration": 0.2571427500000709
        },
        {
          "name": "C#5",
          "midi": 73,
          "time": 81.59996600000204,
          "velocity": 0.7874015748031497,
          "duration": 0.2571427500000709
        },
        {
          "name": "F4",
          "midi": 65,
          "time": 81.94282300000214,
          "velocity": 0.984251968503937,
          "duration": 0.17142850000004728
        },
        {
          "name": "C#4",
          "midi": 61,
          "time": 81.94282300000214,
          "velocity": 0.5905511811023622,
          "duration": 0.17142850000004728
        },
        {
          "name": "A#4",
          "midi": 70,
          "time": 81.94282300000214,
          "velocity": 0.7874015748031497,
          "duration": 0.17142850000004728
        },
        {
          "name": "C#5",
          "midi": 73,
          "time": 82.11425150000218,
          "velocity": 0.984251968503937,
          "duration": 0.17142850000004728
        },
        {
          "name": "A#4",
          "midi": 70,
          "time": 82.11425150000218,
          "velocity": 0.5905511811023622,
          "duration": 0.17142850000004728
        },
        {
          "name": "F#5",
          "midi": 78,
          "time": 82.11425150000218,
          "velocity": 0.7874015748031497,
          "duration": 0.17142850000004728
        },
        {
          "name": "B4",
          "midi": 71,
          "time": 82.28568000000223,
          "velocity": 0.984251968503937,
          "duration": 0.17142850000004728
        },
        {
          "name": "G#4",
          "midi": 68,
          "time": 82.28568000000223,
          "velocity": 0.5905511811023622,
          "duration": 0.17142850000004728
        },
        {
          "name": "D#5",
          "midi": 75,
          "time": 82.28568000000223,
          "velocity": 0.7874015748031497,
          "duration": 0.17142850000004728
        },
        {
          "name": "A#4",
          "midi": 70,
          "time": 82.45710850000228,
          "velocity": 0.984251968503937,
          "duration": 0.17142850000004728
        },
        {
          "name": "F#4",
          "midi": 66,
          "time": 82.45710850000228,
          "velocity": 0.5905511811023622,
          "duration": 0.17142850000004728
        },
        {
          "name": "C#5",
          "midi": 73,
          "time": 82.45710850000228,
          "velocity": 0.7874015748031497,
          "duration": 0.17142850000004728
        },
        {
          "name": "F#4",
          "midi": 66,
          "time": 82.62853700000232,
          "velocity": 0.984251968503937,
          "duration": 0.2571427500000709
        },
        {
          "name": "D#4",
          "midi": 63,
          "time": 82.62853700000232,
          "velocity": 0.5905511811023622,
          "duration": 0.2571427500000709
        },
        {
          "name": "A#4",
          "midi": 70,
          "time": 82.62853700000232,
          "velocity": 0.7874015748031497,
          "duration": 0.2571427500000709
        },
        {
          "name": "F4",
          "midi": 65,
          "time": 82.97139400000242,
          "velocity": 0.984251968503937,
          "duration": 0.34285700000009456
        },
        {
          "name": "C#4",
          "midi": 61,
          "time": 82.97139400000242,
          "velocity": 0.5905511811023622,
          "duration": 0.34285700000009456
        },
        {
          "name": "G#4",
          "midi": 68,
          "time": 82.97139400000242,
          "velocity": 0.7874015748031497,
          "duration": 0.34285700000009456
        },
        {
          "name": "F#4",
          "midi": 66,
          "time": 83.31425100000251,
          "velocity": 0.984251968503937,
          "duration": 0.6857140000001891
        },
        {
          "name": "D#4",
          "midi": 63,
          "time": 83.31425100000251,
          "velocity": 0.5905511811023622,
          "duration": 0.6857140000001891
        },
        {
          "name": "A#4",
          "midi": 70,
          "time": 83.31425100000251,
          "velocity": 0.7874015748031497,
          "duration": 0.6857140000001891
        },
        {
          "name": "A#4",
          "midi": 70,
          "time": 84.17139350000275,
          "velocity": 0.984251968503937,
          "duration": 0.2571427500000709
        },
        {
          "name": "F#4",
          "midi": 66,
          "time": 84.17139350000275,
          "velocity": 0.5905511811023622,
          "duration": 0.2571427500000709
        },
        {
          "name": "C#5",
          "midi": 73,
          "time": 84.17139350000275,
          "velocity": 0.7874015748031497,
          "duration": 0.2571427500000709
        },
        {
          "name": "A#4",
          "midi": 70,
          "time": 84.51425050000285,
          "velocity": 0.984251968503937,
          "duration": 0.2571427500000709
        },
        {
          "name": "F#4",
          "midi": 66,
          "time": 84.51425050000285,
          "velocity": 0.5905511811023622,
          "duration": 0.2571427500000709
        },
        {
          "name": "C#5",
          "midi": 73,
          "time": 84.51425050000285,
          "velocity": 0.7874015748031497,
          "duration": 0.2571427500000709
        },
        {
          "name": "B4",
          "midi": 71,
          "time": 84.85710750000294,
          "velocity": 0.984251968503937,
          "duration": 0.34285700000009456
        },
        {
          "name": "G#4",
          "midi": 68,
          "time": 84.85710750000294,
          "velocity": 0.5905511811023622,
          "duration": 0.34285700000009456
        },
        {
          "name": "D#5",
          "midi": 75,
          "time": 84.85710750000294,
          "velocity": 0.7874015748031497,
          "duration": 0.34285700000009456
        },
        {
          "name": "A#4",
          "midi": 70,
          "time": 85.19996450000303,
          "velocity": 0.984251968503937,
          "duration": 0.17142850000004728
        },
        {
          "name": "F#4",
          "midi": 66,
          "time": 85.19996450000303,
          "velocity": 0.5905511811023622,
          "duration": 0.17142850000004728
        },
        {
          "name": "C#5",
          "midi": 73,
          "time": 85.19996450000303,
          "velocity": 0.7874015748031497,
          "duration": 0.17142850000004728
        },
        {
          "name": "G#4",
          "midi": 68,
          "time": 85.37139300000308,
          "velocity": 0.984251968503937,
          "duration": 0.34285700000009456
        },
        {
          "name": "F4",
          "midi": 65,
          "time": 85.37139300000308,
          "velocity": 0.5905511811023622,
          "duration": 0.34285700000009456
        },
        {
          "name": "B4",
          "midi": 71,
          "time": 85.37139300000308,
          "velocity": 0.7874015748031497,
          "duration": 0.34285700000009456
        },
        {
          "name": "B4",
          "midi": 71,
          "time": 85.71425000000318,
          "velocity": 0.984251968503937,
          "duration": 0.2571427500000709
        },
        {
          "name": "G#4",
          "midi": 68,
          "time": 85.71425000000318,
          "velocity": 0.5905511811023622,
          "duration": 0.2571427500000709
        },
        {
          "name": "D#5",
          "midi": 75,
          "time": 85.71425000000318,
          "velocity": 0.7874015748031497,
          "duration": 0.2571427500000709
        },
        {
          "name": "B4",
          "midi": 71,
          "time": 86.05710700000327,
          "velocity": 0.984251968503937,
          "duration": 0.17142850000004728
        },
        {
          "name": "G#4",
          "midi": 68,
          "time": 86.05710700000327,
          "velocity": 0.5905511811023622,
          "duration": 0.17142850000004728
        },
        {
          "name": "D#5",
          "midi": 75,
          "time": 86.05710700000327,
          "velocity": 0.7874015748031497,
          "duration": 0.17142850000004728
        },
        {
          "name": "C#5",
          "midi": 73,
          "time": 86.22853550000332,
          "velocity": 0.7874015748031497,
          "duration": 0.8571425000002364
        },
        {
          "name": "A#4",
          "midi": 70,
          "time": 86.22853550000332,
          "velocity": 0.7874015748031497,
          "duration": 0.8571425000002364
        },
        {
          "name": "F#4",
          "midi": 66,
          "time": 86.22853550000332,
          "velocity": 0.7874015748031497,
          "duration": 0.8571425000002364
        },
        {
          "name": "A#4",
          "midi": 70,
          "time": 87.2571065000036,
          "velocity": 0.984251968503937,
          "duration": 0.34285700000009456
        },
        {
          "name": "A#3",
          "midi": 58,
          "time": 87.2571065000036,
          "velocity": 0.5905511811023622,
          "duration": 0.34285700000009456
        },
        {
          "name": "G#4",
          "midi": 68,
          "time": 87.5999635000037,
          "velocity": 0.984251968503937,
          "duration": 0.6857140000001891
        },
        {
          "name": "C#4",
          "midi": 61,
          "time": 87.5999635000037,
          "velocity": 0.5905511811023622,
          "duration": 0.6857140000001891
        },
        {
          "name": "C#5",
          "midi": 73,
          "time": 88.28567750000389,
          "velocity": 0.984251968503937,
          "duration": 0.5999997500001655
        },
        {
          "name": "G#4",
          "midi": 68,
          "time": 88.28567750000389,
          "velocity": 0.5905511811023622,
          "duration": 0.5999997500001655
        },
        {
          "name": "A#4",
          "midi": 70,
          "time": 88.97139150000407,
          "velocity": 0.984251968503937,
          "duration": 0.2571427500000709
        },
        {
          "name": "F#4",
          "midi": 66,
          "time": 88.97139150000407,
          "velocity": 0.5905511811023622,
          "duration": 0.2571427500000709
        }
      ],
      "controlChanges": {
        "1": [
          {
            "number": 1,
            "time": 12.235709187500063,
            "value": 0.023622047244094488
          },
          {
            "number": 1,
            "time": 12.25356632291673,
            "value": 0.07086614173228346
          },
          {
            "number": 1,
            "time": 12.271423458333397,
            "value": 0.12598425196850394
          },
          {
            "number": 1,
            "time": 12.289280593750062,
            "value": 0.1889763779527559
          },
          {
            "number": 1,
            "time": 12.307852014583395,
            "value": 0.23622047244094488
          },
          {
            "number": 1,
            "time": 12.32570915000006,
            "value": 0.28346456692913385
          },
          {
            "number": 1,
            "time": 12.343566285416726,
            "value": 0.3228346456692913
          },
          {
            "number": 1,
            "time": 12.361423420833392,
            "value": 0.3543307086614173
          },
          {
            "number": 1,
            "time": 12.379280556250057,
            "value": 0.3779527559055118
          },
          {
            "number": 1,
            "time": 12.382137697916724,
            "value": 0.015748031496062992
          },
          {
            "number": 1,
            "time": 12.397137691666723,
            "value": 0.3937007874015748
          },
          {
            "number": 1,
            "time": 12.39999483333339,
            "value": 0.07086614173228346
          },
          {
            "number": 1,
            "time": 12.414994827083389,
            "value": 0.4094488188976378
          },
          {
            "number": 1,
            "time": 12.417851968750055,
            "value": 0.13385826771653545
          },
          {
            "number": 1,
            "time": 12.432851962500054,
            "value": 0.4251968503937008
          },
          {
            "number": 1,
            "time": 12.43570910416672,
            "value": 0.2047244094488189
          },
          {
            "number": 1,
            "time": 12.45070909791672,
            "value": 0.4409448818897638
          },
          {
            "number": 1,
            "time": 12.453566239583386,
            "value": 0.2677165354330709
          },
          {
            "number": 1,
            "time": 12.468566233333386,
            "value": 0.4566929133858268
          },
          {
            "number": 1,
            "time": 12.471423375000052,
            "value": 0.3228346456692913
          },
          {
            "number": 1,
            "time": 12.486423368750051,
            "value": 0.47244094488188976
          },
          {
            "number": 1,
            "time": 12.489280510416718,
            "value": 0.3779527559055118
          },
          {
            "number": 1,
            "time": 12.504280504166717,
            "value": 0.49606299212598426
          },
          {
            "number": 1,
            "time": 12.507137645833383,
            "value": 0.4094488188976378
          },
          {
            "number": 1,
            "time": 12.522137639583383,
            "value": 0.49606299212598426
          },
          {
            "number": 1,
            "time": 12.525709066666716,
            "value": 0.4251968503937008
          },
          {
            "number": 1,
            "time": 12.543566202083381,
            "value": 0.44881889763779526
          },
          {
            "number": 1,
            "time": 12.561423337500047,
            "value": 0.4645669291338583
          },
          {
            "number": 1,
            "time": 12.579280472916713,
            "value": 0.48031496062992124
          },
          {
            "number": 1,
            "time": 12.59713760833338,
            "value": 0.4881889763779528
          },
          {
            "number": 1,
            "time": 12.633566164583378,
            "value": 0.49606299212598426
          },
          {
            "number": 1,
            "time": 13.048565991666708,
            "value": 0.4881889763779528
          },
          {
            "number": 1,
            "time": 13.066423127083374,
            "value": 0.4330708661417323
          },
          {
            "number": 1,
            "time": 13.08428026250004,
            "value": 0.3779527559055118
          },
          {
            "number": 1,
            "time": 13.102137397916705,
            "value": 0.30708661417322836
          },
          {
            "number": 1,
            "time": 13.11999453333337,
            "value": 0.2283464566929134
          },
          {
            "number": 1,
            "time": 13.137851668750036,
            "value": 0.14173228346456693
          },
          {
            "number": 1,
            "time": 13.156423089583368,
            "value": 0.06299212598425197
          },
          {
            "number": 1,
            "time": 13.174280225000034,
            "value": 0
          },
          {
            "number": 1,
            "time": 13.295708745833364,
            "value": 0.4409448818897638
          },
          {
            "number": 1,
            "time": 13.31356588125003,
            "value": 0.3700787401574803
          },
          {
            "number": 1,
            "time": 13.331423016666696,
            "value": 0.28346456692913385
          },
          {
            "number": 1,
            "time": 13.349280152083363,
            "value": 0.1968503937007874
          },
          {
            "number": 1,
            "time": 13.36713728750003,
            "value": 0.10236220472440945
          },
          {
            "number": 1,
            "time": 13.384994422916696,
            "value": 0.007874015748031496
          },
          {
            "number": 1,
            "time": 13.402851558333362,
            "value": 0
          },
          {
            "number": 1,
            "time": 16.29213606874994,
            "value": 0.023622047244094488
          },
          {
            "number": 1,
            "time": 16.309993204166606,
            "value": 0.06299212598425197
          },
          {
            "number": 1,
            "time": 16.32785033958327,
            "value": 0.10236220472440945
          },
          {
            "number": 1,
            "time": 16.33427890833327,
            "value": 0.031496062992125984
          },
          {
            "number": 1,
            "time": 16.345707474999937,
            "value": 0.14960629921259844
          },
          {
            "number": 1,
            "time": 16.352136043749937,
            "value": 0.047244094488188976
          },
          {
            "number": 1,
            "time": 16.363564610416603,
            "value": 0.1889763779527559
          },
          {
            "number": 1,
            "time": 16.37070746458327,
            "value": 0.08661417322834646
          },
          {
            "number": 1,
            "time": 16.38142174583327,
            "value": 0.2283464566929134
          },
          {
            "number": 1,
            "time": 16.388564599999935,
            "value": 0.12598425196850394
          },
          {
            "number": 1,
            "time": 16.399278881249934,
            "value": 0.25984251968503935
          },
          {
            "number": 1,
            "time": 16.4064217354166,
            "value": 0.16535433070866143
          },
          {
            "number": 1,
            "time": 16.4171360166666,
            "value": 0.29133858267716534
          },
          {
            "number": 1,
            "time": 16.424278870833266,
            "value": 0.2047244094488189
          },
          {
            "number": 1,
            "time": 16.434993152083265,
            "value": 0.31496062992125984
          },
          {
            "number": 1,
            "time": 16.44213600624993,
            "value": 0.23622047244094488
          },
          {
            "number": 1,
            "time": 16.45285028749993,
            "value": 0.33070866141732286
          },
          {
            "number": 1,
            "time": 16.459993141666597,
            "value": 0.2677165354330709
          },
          {
            "number": 1,
            "time": 16.470707422916597,
            "value": 0.3464566929133858
          },
          {
            "number": 1,
            "time": 16.477850277083263,
            "value": 0.2992125984251969
          },
          {
            "number": 1,
            "time": 16.488564558333263,
            "value": 0.3858267716535433
          },
          {
            "number": 1,
            "time": 16.49570741249993,
            "value": 0.31496062992125984
          },
          {
            "number": 1,
            "time": 16.506421693749928,
            "value": 0.4015748031496063
          },
          {
            "number": 1,
            "time": 16.513564547916594,
            "value": 0.33070866141732286
          },
          {
            "number": 1,
            "time": 16.524278829166594,
            "value": 0.4094488188976378
          },
          {
            "number": 1,
            "time": 16.53142168333326,
            "value": 0.3464566929133858
          },
          {
            "number": 1,
            "time": 16.54213596458326,
            "value": 0.4251968503937008
          },
          {
            "number": 1,
            "time": 16.549278818749926,
            "value": 0.36220472440944884
          },
          {
            "number": 1,
            "time": 16.560707385416592,
            "value": 0.4409448818897638
          },
          {
            "number": 1,
            "time": 16.56713595416659,
            "value": 0.3700787401574803
          },
          {
            "number": 1,
            "time": 16.578564520833257,
            "value": 0.4566929133858268
          },
          {
            "number": 1,
            "time": 16.584993089583257,
            "value": 0.3858267716535433
          },
          {
            "number": 1,
            "time": 16.59927879791659,
            "value": 0.47244094488188976
          },
          {
            "number": 1,
            "time": 16.602850224999923,
            "value": 0.3937007874015748
          },
          {
            "number": 1,
            "time": 16.617135933333255,
            "value": 0.49606299212598426
          },
          {
            "number": 1,
            "time": 16.621421645833255,
            "value": 0.4094488188976378
          },
          {
            "number": 1,
            "time": 16.63499306874992,
            "value": 0.49606299212598426
          },
          {
            "number": 1,
            "time": 16.63927878124992,
            "value": 0.41732283464566927
          },
          {
            "number": 1,
            "time": 16.657135916666586,
            "value": 0.4251968503937008
          },
          {
            "number": 1,
            "time": 16.674993052083252,
            "value": 0.4409448818897638
          },
          {
            "number": 1,
            "time": 16.692850187499918,
            "value": 0.44881889763779526
          },
          {
            "number": 1,
            "time": 16.72856445833325,
            "value": 0.4566929133858268
          },
          {
            "number": 1,
            "time": 16.925707233333238,
            "value": 0.41732283464566927
          },
          {
            "number": 1,
            "time": 16.943564368749904,
            "value": 0.3464566929133858
          },
          {
            "number": 1,
            "time": 16.95713579166657,
            "value": 0.4251968503937008
          },
          {
            "number": 1,
            "time": 16.96142150416657,
            "value": 0.2440944881889764
          },
          {
            "number": 1,
            "time": 16.974992927083235,
            "value": 0.3228346456692913
          },
          {
            "number": 1,
            "time": 16.979278639583235,
            "value": 0.13385826771653545
          },
          {
            "number": 1,
            "time": 16.9928500624999,
            "value": 0.2204724409448819
          },
          {
            "number": 1,
            "time": 16.9971357749999,
            "value": 0.023622047244094488
          },
          {
            "number": 1,
            "time": 17.010707197916567,
            "value": 0.11023622047244094
          },
          {
            "number": 1,
            "time": 17.014992910416566,
            "value": 0
          },
          {
            "number": 1,
            "time": 17.0292786187499,
            "value": 0.007874015748031496
          },
          {
            "number": 1,
            "time": 17.047135754166565,
            "value": 0
          },
          {
            "number": 1,
            "time": 17.784278304166524,
            "value": 0
          },
          {
            "number": 1,
            "time": 17.80213543958319,
            "value": 0.023622047244094488
          },
          {
            "number": 1,
            "time": 17.805706866666522,
            "value": 0.015748031496062992
          },
          {
            "number": 1,
            "time": 17.819992574999855,
            "value": 0.03937007874015748
          },
          {
            "number": 1,
            "time": 17.823564002083188,
            "value": 0.031496062992125984
          },
          {
            "number": 1,
            "time": 17.83784971041652,
            "value": 0.07874015748031496
          },
          {
            "number": 1,
            "time": 17.841421137499854,
            "value": 0.06299212598425197
          },
          {
            "number": 1,
            "time": 17.855706845833186,
            "value": 0.11023622047244094
          },
          {
            "number": 1,
            "time": 17.859992558333186,
            "value": 0.09448818897637795
          },
          {
            "number": 1,
            "time": 17.873563981249852,
            "value": 0.14173228346456693
          },
          {
            "number": 1,
            "time": 17.87784969374985,
            "value": 0.14173228346456693
          },
          {
            "number": 1,
            "time": 17.891421116666518,
            "value": 0.18110236220472442
          },
          {
            "number": 1,
            "time": 17.895706829166517,
            "value": 0.1889763779527559
          },
          {
            "number": 1,
            "time": 17.909278252083183,
            "value": 0.1968503937007874
          },
          {
            "number": 1,
            "time": 17.913563964583183,
            "value": 0.23622047244094488
          },
          {
            "number": 1,
            "time": 17.92713538749985,
            "value": 0.2283464566929134
          },
          {
            "number": 1,
            "time": 17.93142109999985,
            "value": 0.28346456692913385
          },
          {
            "number": 1,
            "time": 17.944992522916515,
            "value": 0.25196850393700787
          },
          {
            "number": 1,
            "time": 17.949278235416514,
            "value": 0.33858267716535434
          },
          {
            "number": 1,
            "time": 17.96284965833318,
            "value": 0.28346456692913385
          },
          {
            "number": 1,
            "time": 17.96713537083318,
            "value": 0.3858267716535433
          },
          {
            "number": 1,
            "time": 17.980706793749846,
            "value": 0.2992125984251969
          },
          {
            "number": 1,
            "time": 17.984992506249846,
            "value": 0.4251968503937008
          },
          {
            "number": 1,
            "time": 17.99856392916651,
            "value": 0.3228346456692913
          },
          {
            "number": 1,
            "time": 18.00284964166651,
            "value": 0.4566929133858268
          },
          {
            "number": 1,
            "time": 18.017135349999844,
            "value": 0.3543307086614173
          },
          {
            "number": 1,
            "time": 18.020706777083177,
            "value": 0.47244094488188976
          },
          {
            "number": 1,
            "time": 18.03499248541651,
            "value": 0.3700787401574803
          },
          {
            "number": 1,
            "time": 18.038563912499843,
            "value": 0.4881889763779528
          },
          {
            "number": 1,
            "time": 18.052849620833175,
            "value": 0.3937007874015748
          },
          {
            "number": 1,
            "time": 18.05642104791651,
            "value": 0.49606299212598426
          },
          {
            "number": 1,
            "time": 18.07070675624984,
            "value": 0.4094488188976378
          },
          {
            "number": 1,
            "time": 18.088563891666507,
            "value": 0.4409448818897638
          },
          {
            "number": 1,
            "time": 18.106421027083172,
            "value": 0.4566929133858268
          },
          {
            "number": 1,
            "time": 18.124278162499838,
            "value": 0.47244094488188976
          },
          {
            "number": 1,
            "time": 18.142135297916504,
            "value": 0.4881889763779528
          },
          {
            "number": 1,
            "time": 18.15999243333317,
            "value": 0.49606299212598426
          },
          {
            "number": 1,
            "time": 18.578563687499813,
            "value": 0.4645669291338583
          },
          {
            "number": 1,
            "time": 18.58999225416648,
            "value": 0.4251968503937008
          },
          {
            "number": 1,
            "time": 18.597135108333145,
            "value": 0.4251968503937008
          },
          {
            "number": 1,
            "time": 18.607849389583144,
            "value": 0.33858267716535434
          },
          {
            "number": 1,
            "time": 18.61499224374981,
            "value": 0.3700787401574803
          },
          {
            "number": 1,
            "time": 18.62570652499981,
            "value": 0.23622047244094488
          },
          {
            "number": 1,
            "time": 18.632849379166476,
            "value": 0.2992125984251969
          },
          {
            "number": 1,
            "time": 18.643563660416476,
            "value": 0.13385826771653545
          },
          {
            "number": 1,
            "time": 18.650706514583142,
            "value": 0.2283464566929134
          },
          {
            "number": 1,
            "time": 18.66142079583314,
            "value": 0.031496062992125984
          },
          {
            "number": 1,
            "time": 18.668563649999808,
            "value": 0.13385826771653545
          },
          {
            "number": 1,
            "time": 18.679277931249807,
            "value": 0
          },
          {
            "number": 1,
            "time": 18.686420785416473,
            "value": 0.047244094488188976
          },
          {
            "number": 1,
            "time": 18.70427792083314,
            "value": 0
          },
          {
            "number": 1,
            "time": 20.49784860208304,
            "value": 0
          },
          {
            "number": 1,
            "time": 20.51213431041637,
            "value": 0
          },
          {
            "number": 1,
            "time": 20.515705737499704,
            "value": 0.015748031496062992
          },
          {
            "number": 1,
            "time": 20.529991445833037,
            "value": 0.047244094488188976
          },
          {
            "number": 1,
            "time": 20.53356287291637,
            "value": 0.05511811023622047
          },
          {
            "number": 1,
            "time": 20.547848581249703,
            "value": 0.11023622047244094
          },
          {
            "number": 1,
            "time": 20.551420008333036,
            "value": 0.08661417322834646
          },
          {
            "number": 1,
            "time": 20.56570571666637,
            "value": 0.16535433070866143
          },
          {
            "number": 1,
            "time": 20.5692771437497,
            "value": 0.11023622047244094
          },
          {
            "number": 1,
            "time": 20.583562852083034,
            "value": 0.2125984251968504
          },
          {
            "number": 1,
            "time": 20.587134279166367,
            "value": 0.14173228346456693
          },
          {
            "number": 1,
            "time": 20.6014199874997,
            "value": 0.2440944881889764
          },
          {
            "number": 1,
            "time": 20.6057056999997,
            "value": 0.15748031496062992
          },
          {
            "number": 1,
            "time": 20.619277122916365,
            "value": 0.2755905511811024
          },
          {
            "number": 1,
            "time": 20.623562835416365,
            "value": 0.1732283464566929
          },
          {
            "number": 1,
            "time": 20.63713425833303,
            "value": 0.29133858267716534
          },
          {
            "number": 1,
            "time": 20.64141997083303,
            "value": 0.1889763779527559
          },
          {
            "number": 1,
            "time": 20.654991393749697,
            "value": 0.30708661417322836
          },
          {
            "number": 1,
            "time": 20.659277106249696,
            "value": 0.2047244094488189
          },
          {
            "number": 1,
            "time": 20.672848529166362,
            "value": 0.31496062992125984
          },
          {
            "number": 1,
            "time": 20.677134241666362,
            "value": 0.2204724409448819
          },
          {
            "number": 1,
            "time": 20.694991377083028,
            "value": 0.23622047244094488
          },
          {
            "number": 1,
            "time": 20.712848512499693,
            "value": 0.25196850393700787
          },
          {
            "number": 1,
            "time": 20.73070564791636,
            "value": 0.2677165354330709
          },
          {
            "number": 1,
            "time": 20.748562783333025,
            "value": 0.28346456692913385
          },
          {
            "number": 1,
            "time": 20.76641991874969,
            "value": 0.30708661417322836
          },
          {
            "number": 1,
            "time": 20.784277054166356,
            "value": 0.3228346456692913
          },
          {
            "number": 1,
            "time": 20.79856276249969,
            "value": 0.3228346456692913
          },
          {
            "number": 1,
            "time": 20.802134189583022,
            "value": 0.33858267716535434
          },
          {
            "number": 1,
            "time": 20.819991324999688,
            "value": 0.3543307086614173
          },
          {
            "number": 1,
            "time": 20.837848460416353,
            "value": 0.3700787401574803
          },
          {
            "number": 1,
            "time": 20.85570559583302,
            "value": 0.3858267716535433
          },
          {
            "number": 1,
            "time": 20.86999130416635,
            "value": 0.33858267716535434
          },
          {
            "number": 1,
            "time": 20.877134158333018,
            "value": 0.4015748031496063
          },
          {
            "number": 1,
            "time": 20.894991293749683,
            "value": 0.4094488188976378
          },
          {
            "number": 1,
            "time": 20.905705574999683,
            "value": 0.3464566929133858
          },
          {
            "number": 1,
            "time": 20.91284842916635,
            "value": 0.41732283464566927
          },
          {
            "number": 1,
            "time": 20.92356271041635,
            "value": 0.3543307086614173
          },
          {
            "number": 1,
            "time": 20.930705564583015,
            "value": 0.4330708661417323
          },
          {
            "number": 1,
            "time": 20.941419845833014,
            "value": 0.36220472440944884
          },
          {
            "number": 1,
            "time": 20.95927698124968,
            "value": 0.3779527559055118
          },
          {
            "number": 1,
            "time": 20.966419835416346,
            "value": 0.4409448818897638
          },
          {
            "number": 1,
            "time": 20.977134116666345,
            "value": 0.3858267716535433
          },
          {
            "number": 1,
            "time": 20.99499125208301,
            "value": 0.3937007874015748
          },
          {
            "number": 1,
            "time": 21.002134106249677,
            "value": 0.44881889763779526
          },
          {
            "number": 1,
            "time": 21.013562672916343,
            "value": 0.4094488188976378
          },
          {
            "number": 1,
            "time": 21.049276943749675,
            "value": 0.41732283464566927
          },
          {
            "number": 1,
            "time": 21.055705512499674,
            "value": 0.4566929133858268
          },
          {
            "number": 1,
            "time": 21.06713407916634,
            "value": 0.4251968503937008
          },
          {
            "number": 1,
            "time": 21.084991214583006,
            "value": 0.4409448818897638
          },
          {
            "number": 1,
            "time": 21.10284834999967,
            "value": 0.44881889763779526
          },
          {
            "number": 1,
            "time": 21.109991204166338,
            "value": 0.47244094488188976
          },
          {
            "number": 1,
            "time": 21.120705485416337,
            "value": 0.4566929133858268
          },
          {
            "number": 1,
            "time": 21.138562620833003,
            "value": 0.47244094488188976
          },
          {
            "number": 1,
            "time": 21.15641975624967,
            "value": 0.48031496062992124
          },
          {
            "number": 1,
            "time": 21.163562610416335,
            "value": 0.48031496062992124
          },
          {
            "number": 1,
            "time": 21.174276891666334,
            "value": 0.49606299212598426
          },
          {
            "number": 1,
            "time": 21.192134027083,
            "value": 0.49606299212598426
          },
          {
            "number": 1,
            "time": 21.41427679166632,
            "value": 0.4881889763779528
          },
          {
            "number": 1,
            "time": 21.987133695832956,
            "value": 0.48031496062992124
          },
          {
            "number": 1,
            "time": 22.00499083124962,
            "value": 0.47244094488188976
          },
          {
            "number": 1,
            "time": 22.025705108332954,
            "value": 0.4566929133858268
          },
          {
            "number": 1,
            "time": 22.04356224374962,
            "value": 0.44881889763779526
          },
          {
            "number": 1,
            "time": 22.06213366458295,
            "value": 0.4409448818897638
          },
          {
            "number": 1,
            "time": 22.079990799999617,
            "value": 0.4330708661417323
          },
          {
            "number": 1,
            "time": 22.097847935416283,
            "value": 0.41732283464566927
          },
          {
            "number": 1,
            "time": 22.11570507083295,
            "value": 0.4015748031496063
          },
          {
            "number": 1,
            "time": 22.133562206249614,
            "value": 0.36220472440944884
          },
          {
            "number": 1,
            "time": 22.15141934166628,
            "value": 0.30708661417322836
          },
          {
            "number": 1,
            "time": 22.169276477082946,
            "value": 0.2283464566929134
          },
          {
            "number": 1,
            "time": 22.18713361249961,
            "value": 0.12598425196850394
          },
          {
            "number": 1,
            "time": 22.19784789374961,
            "value": 0.48031496062992124
          },
          {
            "number": 1,
            "time": 22.204990747916277,
            "value": 0.023622047244094488
          },
          {
            "number": 1,
            "time": 22.215705029166276,
            "value": 0.4409448818897638
          },
          {
            "number": 1,
            "time": 22.222847883332943,
            "value": 0
          },
          {
            "number": 1,
            "time": 22.233562164582942,
            "value": 0.4015748031496063
          },
          {
            "number": 1,
            "time": 22.252133585416274,
            "value": 0.36220472440944884
          },
          {
            "number": 1,
            "time": 22.26999072083294,
            "value": 0.3228346456692913
          },
          {
            "number": 1,
            "time": 22.287847856249606,
            "value": 0.28346456692913385
          },
          {
            "number": 1,
            "time": 22.30570499166627,
            "value": 0.2440944881889764
          },
          {
            "number": 1,
            "time": 22.323562127082937,
            "value": 0.2047244094488189
          },
          {
            "number": 1,
            "time": 22.341419262499603,
            "value": 0.16535433070866143
          },
          {
            "number": 1,
            "time": 22.35927639791627,
            "value": 0.12598425196850394
          },
          {
            "number": 1,
            "time": 22.377133533332934,
            "value": 0.08661417322834646
          },
          {
            "number": 1,
            "time": 22.3949906687496,
            "value": 0.07086614173228346
          },
          {
            "number": 1,
            "time": 22.412847804166265,
            "value": 0.031496062992125984
          },
          {
            "number": 1,
            "time": 22.43070493958293,
            "value": 0
          }
        ],
        "7": [
          {
            "number": 7,
            "time": 0.5142855000000001,
            "value": 0.47244094488188976
          }
        ],
        "10": [
          {
            "number": 10,
            "time": 0.5142855000000001,
            "value": 0
          },
          {
            "number": 10,
            "time": 0.5357140625000001,
            "value": 1
          },
          {
            "number": 10,
            "time": 0.5571426250000001,
            "value": 0
          },
          {
            "number": 10,
            "time": 0.5785711875000001,
            "value": 1
          },
          {
            "number": 10,
            "time": 0.5999997500000002,
            "value": 0
          },
          {
            "number": 10,
            "time": 0.6214283125000002,
            "value": 1
          },
          {
            "number": 10,
            "time": 0.6428568750000002,
            "value": 0
          },
          {
            "number": 10,
            "time": 0.6642854375000002,
            "value": 1
          },
          {
            "number": 10,
            "time": 0.6857140000000003,
            "value": 0
          },
          {
            "number": 10,
            "time": 0.7071425625000003,
            "value": 1
          },
          {
            "number": 10,
            "time": 0.7285711250000003,
            "value": 0
          },
          {
            "number": 10,
            "time": 0.7499996875000003,
            "value": 1
          },
          {
            "number": 10,
            "time": 0.7714282500000004,
            "value": 0
          },
          {
            "number": 10,
            "time": 0.7928568125000004,
            "value": 1
          },
          {
            "number": 10,
            "time": 0.8142853750000004,
            "value": 0
          },
          {
            "number": 10,
            "time": 0.8357139375000004,
            "value": 1
          },
          {
            "number": 10,
            "time": 0.8571425000000005,
            "value": 0
          },
          {
            "number": 10,
            "time": 0.8785710625000005,
            "value": 1
          },
          {
            "number": 10,
            "time": 0.8999996250000005,
            "value": 0
          },
          {
            "number": 10,
            "time": 0.9214281875000006,
            "value": 1
          },
          {
            "number": 10,
            "time": 0.9428567500000006,
            "value": 0
          },
          {
            "number": 10,
            "time": 0.9642853125000006,
            "value": 1
          },
          {
            "number": 10,
            "time": 0.9857138750000006,
            "value": 0
          },
          {
            "number": 10,
            "time": 1.0071424375000007,
            "value": 1
          },
          {
            "number": 10,
            "time": 1.0285710000000006,
            "value": 0
          },
          {
            "number": 10,
            "time": 1.0499995625000005,
            "value": 1
          },
          {
            "number": 10,
            "time": 1.0714281250000004,
            "value": 0
          },
          {
            "number": 10,
            "time": 1.0928566875000003,
            "value": 1
          },
          {
            "number": 10,
            "time": 1.1142852500000002,
            "value": 0
          },
          {
            "number": 10,
            "time": 1.1357138125000001,
            "value": 1
          },
          {
            "number": 10,
            "time": 1.157142375,
            "value": 0
          },
          {
            "number": 10,
            "time": 1.1785709375,
            "value": 1
          },
          {
            "number": 10,
            "time": 1.1999994999999999,
            "value": 0
          },
          {
            "number": 10,
            "time": 1.2214280624999998,
            "value": 1
          },
          {
            "number": 10,
            "time": 1.2428566249999997,
            "value": 0
          },
          {
            "number": 10,
            "time": 1.2642851874999996,
            "value": 1
          },
          {
            "number": 10,
            "time": 1.2857137499999995,
            "value": 0
          },
          {
            "number": 10,
            "time": 1.3071423124999995,
            "value": 1
          },
          {
            "number": 10,
            "time": 1.3285708749999994,
            "value": 0
          },
          {
            "number": 10,
            "time": 1.3499994374999993,
            "value": 1
          },
          {
            "number": 10,
            "time": 1.3714279999999992,
            "value": 0
          },
          {
            "number": 10,
            "time": 1.3928565624999991,
            "value": 1
          },
          {
            "number": 10,
            "time": 1.414285124999999,
            "value": 0
          },
          {
            "number": 10,
            "time": 1.435713687499999,
            "value": 1
          },
          {
            "number": 10,
            "time": 1.4571422499999989,
            "value": 0
          },
          {
            "number": 10,
            "time": 1.4785708124999988,
            "value": 1
          },
          {
            "number": 10,
            "time": 1.4999993749999987,
            "value": 0
          },
          {
            "number": 10,
            "time": 1.5214279374999986,
            "value": 1
          },
          {
            "number": 10,
            "time": 1.5428564999999985,
            "value": 0
          },
          {
            "number": 10,
            "time": 1.5642850624999984,
            "value": 1
          },
          {
            "number": 10,
            "time": 1.5857136249999984,
            "value": 0
          },
          {
            "number": 10,
            "time": 1.6071421874999983,
            "value": 1
          },
          {
            "number": 10,
            "time": 1.6285707499999982,
            "value": 0
          },
          {
            "number": 10,
            "time": 1.649999312499998,
            "value": 1
          },
          {
            "number": 10,
            "time": 1.671427874999998,
            "value": 0
          },
          {
            "number": 10,
            "time": 1.692856437499998,
            "value": 1
          },
          {
            "number": 10,
            "time": 1.7142849999999978,
            "value": 0
          },
          {
            "number": 10,
            "time": 1.7357135624999978,
            "value": 1
          },
          {
            "number": 10,
            "time": 1.7571421249999977,
            "value": 0
          },
          {
            "number": 10,
            "time": 1.7785706874999976,
            "value": 1
          },
          {
            "number": 10,
            "time": 1.7999992499999975,
            "value": 0
          },
          {
            "number": 10,
            "time": 1.8214278124999974,
            "value": 1
          },
          {
            "number": 10,
            "time": 1.8428563749999973,
            "value": 0
          },
          {
            "number": 10,
            "time": 1.8642849374999972,
            "value": 1
          },
          {
            "number": 10,
            "time": 1.8857134999999972,
            "value": 0
          },
          {
            "number": 10,
            "time": 1.907142062499997,
            "value": 1
          },
          {
            "number": 10,
            "time": 1.928570624999997,
            "value": 0
          },
          {
            "number": 10,
            "time": 1.949999187499997,
            "value": 1
          },
          {
            "number": 10,
            "time": 1.9714277499999968,
            "value": 0
          },
          {
            "number": 10,
            "time": 1.9928563124999967,
            "value": 1
          },
          {
            "number": 10,
            "time": 2.014284874999997,
            "value": 0
          },
          {
            "number": 10,
            "time": 2.035713437499997,
            "value": 1
          },
          {
            "number": 10,
            "time": 2.057141999999997,
            "value": 0
          },
          {
            "number": 10,
            "time": 2.0785705624999973,
            "value": 1
          },
          {
            "number": 10,
            "time": 2.0999991249999974,
            "value": 0
          },
          {
            "number": 10,
            "time": 2.1214276874999975,
            "value": 1
          },
          {
            "number": 10,
            "time": 2.1428562499999977,
            "value": 0
          },
          {
            "number": 10,
            "time": 2.164284812499998,
            "value": 1
          },
          {
            "number": 10,
            "time": 2.185713374999998,
            "value": 0
          },
          {
            "number": 10,
            "time": 2.207141937499998,
            "value": 1
          },
          {
            "number": 10,
            "time": 2.2285704999999982,
            "value": 0
          },
          {
            "number": 10,
            "time": 2.2499990624999984,
            "value": 1
          },
          {
            "number": 10,
            "time": 2.2714276249999985,
            "value": 0
          },
          {
            "number": 10,
            "time": 2.2928561874999986,
            "value": 1
          },
          {
            "number": 10,
            "time": 2.314284749999999,
            "value": 0
          },
          {
            "number": 10,
            "time": 2.335713312499999,
            "value": 1
          },
          {
            "number": 10,
            "time": 2.357141874999999,
            "value": 0
          },
          {
            "number": 10,
            "time": 2.378570437499999,
            "value": 1
          },
          {
            "number": 10,
            "time": 2.3999989999999993,
            "value": 0
          },
          {
            "number": 10,
            "time": 2.4214275624999995,
            "value": 1
          },
          {
            "number": 10,
            "time": 2.4428561249999996,
            "value": 0
          },
          {
            "number": 10,
            "time": 2.4642846874999997,
            "value": 1
          },
          {
            "number": 10,
            "time": 2.48571325,
            "value": 0
          },
          {
            "number": 10,
            "time": 2.5071418125,
            "value": 1
          },
          {
            "number": 10,
            "time": 2.528570375,
            "value": 0
          },
          {
            "number": 10,
            "time": 2.5499989375000003,
            "value": 1
          },
          {
            "number": 10,
            "time": 2.5714275000000004,
            "value": 0
          },
          {
            "number": 10,
            "time": 2.5928560625000006,
            "value": 1
          },
          {
            "number": 10,
            "time": 2.6142846250000007,
            "value": 0
          },
          {
            "number": 10,
            "time": 2.635713187500001,
            "value": 1
          },
          {
            "number": 10,
            "time": 2.657141750000001,
            "value": 0
          },
          {
            "number": 10,
            "time": 2.678570312500001,
            "value": 1
          },
          {
            "number": 10,
            "time": 2.6999988750000012,
            "value": 0
          },
          {
            "number": 10,
            "time": 2.7214274375000014,
            "value": 1
          },
          {
            "number": 10,
            "time": 2.7428560000000015,
            "value": 0
          },
          {
            "number": 10,
            "time": 2.7642845625000017,
            "value": 1
          },
          {
            "number": 10,
            "time": 2.785713125000002,
            "value": 0
          },
          {
            "number": 10,
            "time": 2.807141687500002,
            "value": 1
          },
          {
            "number": 10,
            "time": 2.828570250000002,
            "value": 0
          },
          {
            "number": 10,
            "time": 2.849998812500002,
            "value": 1
          },
          {
            "number": 10,
            "time": 2.8714273750000023,
            "value": 0
          },
          {
            "number": 10,
            "time": 2.8928559375000025,
            "value": 1
          },
          {
            "number": 10,
            "time": 2.9142845000000026,
            "value": 0
          },
          {
            "number": 10,
            "time": 2.9357130625000027,
            "value": 1
          },
          {
            "number": 10,
            "time": 2.957141625000003,
            "value": 0
          },
          {
            "number": 10,
            "time": 2.978570187500003,
            "value": 1
          },
          {
            "number": 10,
            "time": 2.999998750000003,
            "value": 0
          },
          {
            "number": 10,
            "time": 3.0214273125000033,
            "value": 1
          },
          {
            "number": 10,
            "time": 3.0428558750000034,
            "value": 0
          },
          {
            "number": 10,
            "time": 3.0642844375000036,
            "value": 1
          },
          {
            "number": 10,
            "time": 3.0857130000000037,
            "value": 0
          },
          {
            "number": 10,
            "time": 3.107141562500004,
            "value": 1
          },
          {
            "number": 10,
            "time": 3.128570125000004,
            "value": 0
          },
          {
            "number": 10,
            "time": 3.149998687500004,
            "value": 1
          },
          {
            "number": 10,
            "time": 3.1714272500000042,
            "value": 0
          },
          {
            "number": 10,
            "time": 3.1928558125000044,
            "value": 1
          },
          {
            "number": 10,
            "time": 3.2142843750000045,
            "value": 0
          },
          {
            "number": 10,
            "time": 3.2357129375000047,
            "value": 1
          },
          {
            "number": 10,
            "time": 3.257141500000005,
            "value": 0
          },
          {
            "number": 10,
            "time": 3.278570062500005,
            "value": 1
          },
          {
            "number": 10,
            "time": 3.299998625000005,
            "value": 0
          },
          {
            "number": 10,
            "time": 3.321427187500005,
            "value": 1
          },
          {
            "number": 10,
            "time": 3.3428557500000053,
            "value": 0
          },
          {
            "number": 10,
            "time": 3.3642843125000055,
            "value": 1
          },
          {
            "number": 10,
            "time": 3.3857128750000056,
            "value": 0
          },
          {
            "number": 10,
            "time": 3.4071414375000058,
            "value": 1
          },
          {
            "number": 10,
            "time": 3.428570000000006,
            "value": 0
          },
          {
            "number": 10,
            "time": 3.449998562500006,
            "value": 1
          },
          {
            "number": 10,
            "time": 3.471427125000006,
            "value": 0
          },
          {
            "number": 10,
            "time": 3.4928556875000063,
            "value": 1
          },
          {
            "number": 10,
            "time": 3.5142842500000064,
            "value": 0
          },
          {
            "number": 10,
            "time": 3.5357128125000066,
            "value": 1
          },
          {
            "number": 10,
            "time": 3.5571413750000067,
            "value": 0
          },
          {
            "number": 10,
            "time": 3.578569937500007,
            "value": 1
          },
          {
            "number": 10,
            "time": 3.599998500000007,
            "value": 0
          },
          {
            "number": 10,
            "time": 3.621427062500007,
            "value": 1
          },
          {
            "number": 10,
            "time": 3.6428556250000073,
            "value": 0
          },
          {
            "number": 10,
            "time": 3.6642841875000074,
            "value": 1
          },
          {
            "number": 10,
            "time": 3.6857127500000075,
            "value": 0
          },
          {
            "number": 10,
            "time": 3.7071413125000077,
            "value": 1
          },
          {
            "number": 10,
            "time": 3.728569875000008,
            "value": 0
          },
          {
            "number": 10,
            "time": 3.749998437500008,
            "value": 1
          },
          {
            "number": 10,
            "time": 3.771427000000008,
            "value": 0
          },
          {
            "number": 10,
            "time": 3.792855562500008,
            "value": 1
          },
          {
            "number": 10,
            "time": 3.8142841250000084,
            "value": 0
          },
          {
            "number": 10,
            "time": 3.8357126875000085,
            "value": 1
          },
          {
            "number": 10,
            "time": 3.8571412500000086,
            "value": 0
          },
          {
            "number": 10,
            "time": 3.8785698125000088,
            "value": 1
          },
          {
            "number": 10,
            "time": 3.899998375000009,
            "value": 0
          },
          {
            "number": 10,
            "time": 3.921426937500009,
            "value": 1
          },
          {
            "number": 10,
            "time": 3.942855500000009,
            "value": 0
          },
          {
            "number": 10,
            "time": 3.9642840625000093,
            "value": 1
          },
          {
            "number": 10,
            "time": 3.9857126250000094,
            "value": 0
          },
          {
            "number": 10,
            "time": 4.007141187500009,
            "value": 1
          },
          {
            "number": 10,
            "time": 4.028569750000009,
            "value": 0
          },
          {
            "number": 10,
            "time": 4.0499983125000085,
            "value": 1
          },
          {
            "number": 10,
            "time": 4.071426875000008,
            "value": 0
          },
          {
            "number": 10,
            "time": 4.092855437500008,
            "value": 1
          },
          {
            "number": 10,
            "time": 4.114284000000008,
            "value": 0
          },
          {
            "number": 10,
            "time": 4.135712562500007,
            "value": 1
          },
          {
            "number": 10,
            "time": 4.157141125000007,
            "value": 0
          },
          {
            "number": 10,
            "time": 4.178569687500007,
            "value": 1
          },
          {
            "number": 10,
            "time": 4.199998250000006,
            "value": 0
          },
          {
            "number": 10,
            "time": 4.221426812500006,
            "value": 1
          },
          {
            "number": 10,
            "time": 4.242855375000006,
            "value": 0
          },
          {
            "number": 10,
            "time": 4.2642839375000055,
            "value": 1
          },
          {
            "number": 10,
            "time": 4.285712500000005,
            "value": 0
          },
          {
            "number": 10,
            "time": 4.307141062500005,
            "value": 1
          },
          {
            "number": 10,
            "time": 4.3285696250000045,
            "value": 0
          },
          {
            "number": 10,
            "time": 4.349998187500004,
            "value": 1
          },
          {
            "number": 10,
            "time": 4.371426750000004,
            "value": 0
          },
          {
            "number": 10,
            "time": 4.392855312500004,
            "value": 1
          },
          {
            "number": 10,
            "time": 4.414283875000003,
            "value": 0
          },
          {
            "number": 10,
            "time": 4.435712437500003,
            "value": 1
          },
          {
            "number": 10,
            "time": 4.457141000000003,
            "value": 0
          },
          {
            "number": 10,
            "time": 4.478569562500002,
            "value": 1
          },
          {
            "number": 10,
            "time": 4.499998125000002,
            "value": 0
          },
          {
            "number": 10,
            "time": 4.521426687500002,
            "value": 1
          },
          {
            "number": 10,
            "time": 4.5428552500000015,
            "value": 0
          },
          {
            "number": 10,
            "time": 4.564283812500001,
            "value": 1
          },
          {
            "number": 10,
            "time": 4.585712375000001,
            "value": 0
          },
          {
            "number": 10,
            "time": 4.6071409375000005,
            "value": 1
          },
          {
            "number": 10,
            "time": 4.6285695,
            "value": 0
          },
          {
            "number": 10,
            "time": 4.6499980625,
            "value": 1
          },
          {
            "number": 10,
            "time": 4.671426625,
            "value": 0
          },
          {
            "number": 10,
            "time": 4.692855187499999,
            "value": 1
          },
          {
            "number": 10,
            "time": 4.714283749999999,
            "value": 0
          },
          {
            "number": 10,
            "time": 4.735712312499999,
            "value": 1
          },
          {
            "number": 10,
            "time": 4.757140874999998,
            "value": 0
          },
          {
            "number": 10,
            "time": 4.778569437499998,
            "value": 1
          },
          {
            "number": 10,
            "time": 4.799997999999998,
            "value": 0
          },
          {
            "number": 10,
            "time": 4.8214265624999975,
            "value": 1
          },
          {
            "number": 10,
            "time": 4.842855124999997,
            "value": 0
          },
          {
            "number": 10,
            "time": 4.864283687499997,
            "value": 1
          },
          {
            "number": 10,
            "time": 4.8857122499999965,
            "value": 0
          },
          {
            "number": 10,
            "time": 4.907140812499996,
            "value": 1
          },
          {
            "number": 10,
            "time": 4.928569374999996,
            "value": 0
          },
          {
            "number": 10,
            "time": 4.949997937499996,
            "value": 1
          },
          {
            "number": 10,
            "time": 4.971426499999995,
            "value": 0
          },
          {
            "number": 10,
            "time": 4.992855062499995,
            "value": 1
          },
          {
            "number": 10,
            "time": 5.014283624999995,
            "value": 0
          },
          {
            "number": 10,
            "time": 5.035712187499994,
            "value": 1
          },
          {
            "number": 10,
            "time": 5.057140749999994,
            "value": 0
          },
          {
            "number": 10,
            "time": 5.078569312499994,
            "value": 1
          },
          {
            "number": 10,
            "time": 5.0999978749999935,
            "value": 0
          },
          {
            "number": 10,
            "time": 5.121426437499993,
            "value": 1
          },
          {
            "number": 10,
            "time": 5.142854999999993,
            "value": 0
          },
          {
            "number": 10,
            "time": 5.1642835624999925,
            "value": 1
          },
          {
            "number": 10,
            "time": 5.185712124999992,
            "value": 0
          },
          {
            "number": 10,
            "time": 5.207140687499992,
            "value": 1
          },
          {
            "number": 10,
            "time": 5.228569249999992,
            "value": 0
          },
          {
            "number": 10,
            "time": 5.249997812499991,
            "value": 1
          },
          {
            "number": 10,
            "time": 5.271426374999991,
            "value": 0
          },
          {
            "number": 10,
            "time": 5.292854937499991,
            "value": 1
          },
          {
            "number": 10,
            "time": 5.31428349999999,
            "value": 0
          },
          {
            "number": 10,
            "time": 5.33571206249999,
            "value": 1
          },
          {
            "number": 10,
            "time": 5.35714062499999,
            "value": 0
          },
          {
            "number": 10,
            "time": 5.3785691874999895,
            "value": 1
          },
          {
            "number": 10,
            "time": 5.399997749999989,
            "value": 0
          },
          {
            "number": 10,
            "time": 5.421426312499989,
            "value": 1
          },
          {
            "number": 10,
            "time": 5.4428548749999885,
            "value": 0
          },
          {
            "number": 10,
            "time": 5.464283437499988,
            "value": 1
          },
          {
            "number": 10,
            "time": 5.485711999999988,
            "value": 0
          },
          {
            "number": 10,
            "time": 5.507140562499988,
            "value": 1
          },
          {
            "number": 10,
            "time": 5.528569124999987,
            "value": 0
          },
          {
            "number": 10,
            "time": 5.549997687499987,
            "value": 1
          },
          {
            "number": 10,
            "time": 5.571426249999987,
            "value": 0
          },
          {
            "number": 10,
            "time": 5.592854812499986,
            "value": 1
          },
          {
            "number": 10,
            "time": 5.614283374999986,
            "value": 0
          },
          {
            "number": 10,
            "time": 5.635711937499986,
            "value": 1
          },
          {
            "number": 10,
            "time": 5.6571404999999855,
            "value": 0
          },
          {
            "number": 10,
            "time": 5.678569062499985,
            "value": 1
          },
          {
            "number": 10,
            "time": 5.699997624999985,
            "value": 0
          },
          {
            "number": 10,
            "time": 5.7214261874999846,
            "value": 1
          },
          {
            "number": 10,
            "time": 5.742854749999984,
            "value": 0
          },
          {
            "number": 10,
            "time": 5.764283312499984,
            "value": 1
          },
          {
            "number": 10,
            "time": 5.785711874999984,
            "value": 0
          },
          {
            "number": 10,
            "time": 5.807140437499983,
            "value": 1
          },
          {
            "number": 10,
            "time": 5.828568999999983,
            "value": 0
          },
          {
            "number": 10,
            "time": 5.849997562499983,
            "value": 1
          },
          {
            "number": 10,
            "time": 5.871426124999982,
            "value": 0
          },
          {
            "number": 10,
            "time": 5.892854687499982,
            "value": 1
          },
          {
            "number": 10,
            "time": 5.914283249999982,
            "value": 0
          },
          {
            "number": 10,
            "time": 5.9357118124999815,
            "value": 1
          },
          {
            "number": 10,
            "time": 5.957140374999981,
            "value": 0
          },
          {
            "number": 10,
            "time": 5.978568937499981,
            "value": 1
          },
          {
            "number": 10,
            "time": 5.9999974999999806,
            "value": 0
          },
          {
            "number": 10,
            "time": 6.02142606249998,
            "value": 1
          },
          {
            "number": 10,
            "time": 6.04285462499998,
            "value": 0
          },
          {
            "number": 10,
            "time": 6.06428318749998,
            "value": 1
          },
          {
            "number": 10,
            "time": 6.085711749999979,
            "value": 0
          },
          {
            "number": 10,
            "time": 6.107140312499979,
            "value": 1
          },
          {
            "number": 10,
            "time": 6.128568874999979,
            "value": 0
          },
          {
            "number": 10,
            "time": 6.149997437499978,
            "value": 1
          },
          {
            "number": 10,
            "time": 6.171425999999978,
            "value": 0
          },
          {
            "number": 10,
            "time": 6.192854562499978,
            "value": 1
          },
          {
            "number": 10,
            "time": 6.2142831249999775,
            "value": 0
          },
          {
            "number": 10,
            "time": 6.235711687499977,
            "value": 1
          },
          {
            "number": 10,
            "time": 6.257140249999977,
            "value": 0
          },
          {
            "number": 10,
            "time": 6.278568812499977,
            "value": 1
          },
          {
            "number": 10,
            "time": 6.299997374999976,
            "value": 0
          },
          {
            "number": 10,
            "time": 6.321425937499976,
            "value": 1
          },
          {
            "number": 10,
            "time": 6.342854499999976,
            "value": 0
          },
          {
            "number": 10,
            "time": 6.364283062499975,
            "value": 1
          },
          {
            "number": 10,
            "time": 6.385711624999975,
            "value": 0
          },
          {
            "number": 10,
            "time": 6.407140187499975,
            "value": 1
          },
          {
            "number": 10,
            "time": 6.428568749999974,
            "value": 0
          },
          {
            "number": 10,
            "time": 6.449997312499974,
            "value": 1
          },
          {
            "number": 10,
            "time": 6.471425874999974,
            "value": 0
          },
          {
            "number": 10,
            "time": 6.4928544374999735,
            "value": 1
          },
          {
            "number": 10,
            "time": 6.514282999999973,
            "value": 0
          },
          {
            "number": 10,
            "time": 6.535711562499973,
            "value": 1
          },
          {
            "number": 10,
            "time": 6.557140124999973,
            "value": 0
          },
          {
            "number": 10,
            "time": 6.578568687499972,
            "value": 1
          },
          {
            "number": 10,
            "time": 6.599997249999972,
            "value": 0
          },
          {
            "number": 10,
            "time": 6.621425812499972,
            "value": 1
          },
          {
            "number": 10,
            "time": 6.642854374999971,
            "value": 0
          },
          {
            "number": 10,
            "time": 6.664282937499971,
            "value": 1
          },
          {
            "number": 10,
            "time": 6.685711499999971,
            "value": 0
          },
          {
            "number": 10,
            "time": 6.70714006249997,
            "value": 1
          },
          {
            "number": 10,
            "time": 6.72856862499997,
            "value": 0
          },
          {
            "number": 10,
            "time": 6.74999718749997,
            "value": 1
          },
          {
            "number": 10,
            "time": 6.7714257499999695,
            "value": 0
          },
          {
            "number": 10,
            "time": 6.792854312499969,
            "value": 1
          },
          {
            "number": 10,
            "time": 6.814282874999969,
            "value": 0
          },
          {
            "number": 10,
            "time": 6.835711437499969,
            "value": 1
          },
          {
            "number": 10,
            "time": 6.857139999999968,
            "value": 0
          },
          {
            "number": 10,
            "time": 6.878568562499968,
            "value": 1
          },
          {
            "number": 10,
            "time": 6.899997124999968,
            "value": 0
          },
          {
            "number": 10,
            "time": 6.921425687499967,
            "value": 1
          },
          {
            "number": 10,
            "time": 6.942854249999967,
            "value": 0
          },
          {
            "number": 10,
            "time": 6.964282812499967,
            "value": 1
          },
          {
            "number": 10,
            "time": 6.985711374999966,
            "value": 0
          },
          {
            "number": 10,
            "time": 7.007139937499966,
            "value": 1
          },
          {
            "number": 10,
            "time": 7.028568499999966,
            "value": 0
          },
          {
            "number": 10,
            "time": 7.0499970624999655,
            "value": 1
          },
          {
            "number": 10,
            "time": 7.071425624999965,
            "value": 0
          },
          {
            "number": 10,
            "time": 7.092854187499965,
            "value": 1
          },
          {
            "number": 10,
            "time": 7.114282749999965,
            "value": 0
          },
          {
            "number": 10,
            "time": 7.135711312499964,
            "value": 1
          },
          {
            "number": 10,
            "time": 7.157139874999964,
            "value": 0
          },
          {
            "number": 10,
            "time": 7.178568437499964,
            "value": 1
          },
          {
            "number": 10,
            "time": 7.199996999999963,
            "value": 0
          },
          {
            "number": 10,
            "time": 7.221425562499963,
            "value": 1
          },
          {
            "number": 10,
            "time": 7.242854124999963,
            "value": 0
          },
          {
            "number": 10,
            "time": 7.264282687499962,
            "value": 1
          },
          {
            "number": 10,
            "time": 7.285711249999962,
            "value": 0
          },
          {
            "number": 10,
            "time": 7.307139812499962,
            "value": 1
          },
          {
            "number": 10,
            "time": 7.3285683749999615,
            "value": 0
          },
          {
            "number": 10,
            "time": 7.349996937499961,
            "value": 1
          },
          {
            "number": 10,
            "time": 7.371425499999961,
            "value": 0
          },
          {
            "number": 10,
            "time": 7.392854062499961,
            "value": 1
          },
          {
            "number": 10,
            "time": 7.41428262499996,
            "value": 0
          },
          {
            "number": 10,
            "time": 7.43571118749996,
            "value": 1
          },
          {
            "number": 10,
            "time": 7.45713974999996,
            "value": 0
          },
          {
            "number": 10,
            "time": 7.478568312499959,
            "value": 1
          },
          {
            "number": 10,
            "time": 7.499996874999959,
            "value": 0
          },
          {
            "number": 10,
            "time": 7.521425437499959,
            "value": 1
          },
          {
            "number": 10,
            "time": 7.542853999999958,
            "value": 0
          },
          {
            "number": 10,
            "time": 7.564282562499958,
            "value": 1
          },
          {
            "number": 10,
            "time": 7.585711124999958,
            "value": 0
          },
          {
            "number": 10,
            "time": 7.6071396874999575,
            "value": 1
          },
          {
            "number": 10,
            "time": 7.628568249999957,
            "value": 0
          },
          {
            "number": 10,
            "time": 7.649996812499957,
            "value": 1
          },
          {
            "number": 10,
            "time": 7.671425374999957,
            "value": 0
          },
          {
            "number": 10,
            "time": 7.692853937499956,
            "value": 1
          },
          {
            "number": 10,
            "time": 7.714282499999956,
            "value": 0
          },
          {
            "number": 10,
            "time": 7.735711062499956,
            "value": 1
          },
          {
            "number": 10,
            "time": 7.757139624999955,
            "value": 0
          },
          {
            "number": 10,
            "time": 7.778568187499955,
            "value": 1
          },
          {
            "number": 10,
            "time": 7.799996749999955,
            "value": 0
          },
          {
            "number": 10,
            "time": 7.821425312499954,
            "value": 1
          },
          {
            "number": 10,
            "time": 7.842853874999954,
            "value": 0
          },
          {
            "number": 10,
            "time": 7.864282437499954,
            "value": 1
          },
          {
            "number": 10,
            "time": 7.8857109999999535,
            "value": 0
          },
          {
            "number": 10,
            "time": 7.907139562499953,
            "value": 1
          },
          {
            "number": 10,
            "time": 7.928568124999953,
            "value": 0
          },
          {
            "number": 10,
            "time": 7.949996687499953,
            "value": 1
          },
          {
            "number": 10,
            "time": 7.971425249999952,
            "value": 0
          },
          {
            "number": 10,
            "time": 7.992853812499952,
            "value": 1
          },
          {
            "number": 10,
            "time": 8.014282374999953,
            "value": 0
          },
          {
            "number": 10,
            "time": 8.035710937499953,
            "value": 1
          },
          {
            "number": 10,
            "time": 8.057139499999954,
            "value": 0
          },
          {
            "number": 10,
            "time": 8.078568062499954,
            "value": 1
          },
          {
            "number": 10,
            "time": 8.099996624999955,
            "value": 0
          },
          {
            "number": 10,
            "time": 8.121425187499955,
            "value": 1
          },
          {
            "number": 10,
            "time": 8.142853749999956,
            "value": 0
          },
          {
            "number": 10,
            "time": 8.164282312499957,
            "value": 1
          },
          {
            "number": 10,
            "time": 8.185710874999957,
            "value": 0
          },
          {
            "number": 10,
            "time": 8.207139437499958,
            "value": 1
          },
          {
            "number": 10,
            "time": 8.228567999999958,
            "value": 0
          },
          {
            "number": 10,
            "time": 8.249996562499959,
            "value": 1
          },
          {
            "number": 10,
            "time": 8.27142512499996,
            "value": 0
          },
          {
            "number": 10,
            "time": 8.29285368749996,
            "value": 1
          },
          {
            "number": 10,
            "time": 8.31428224999996,
            "value": 0
          },
          {
            "number": 10,
            "time": 8.335710812499961,
            "value": 1
          },
          {
            "number": 10,
            "time": 8.357139374999962,
            "value": 0
          },
          {
            "number": 10,
            "time": 8.378567937499962,
            "value": 1
          },
          {
            "number": 10,
            "time": 8.399996499999963,
            "value": 0
          },
          {
            "number": 10,
            "time": 8.421425062499964,
            "value": 1
          },
          {
            "number": 10,
            "time": 8.442853624999964,
            "value": 0
          },
          {
            "number": 10,
            "time": 8.464282187499965,
            "value": 1
          },
          {
            "number": 10,
            "time": 8.485710749999965,
            "value": 0
          },
          {
            "number": 10,
            "time": 8.507139312499966,
            "value": 1
          },
          {
            "number": 10,
            "time": 8.528567874999966,
            "value": 0
          },
          {
            "number": 10,
            "time": 8.549996437499967,
            "value": 1
          },
          {
            "number": 10,
            "time": 8.571424999999968,
            "value": 0
          },
          {
            "number": 10,
            "time": 8.592853562499968,
            "value": 1
          },
          {
            "number": 10,
            "time": 8.614282124999969,
            "value": 0
          },
          {
            "number": 10,
            "time": 8.63571068749997,
            "value": 1
          },
          {
            "number": 10,
            "time": 8.65713924999997,
            "value": 0
          },
          {
            "number": 10,
            "time": 8.67856781249997,
            "value": 1
          },
          {
            "number": 10,
            "time": 8.699996374999971,
            "value": 0
          },
          {
            "number": 10,
            "time": 8.721424937499972,
            "value": 1
          },
          {
            "number": 10,
            "time": 8.742853499999972,
            "value": 0
          },
          {
            "number": 10,
            "time": 8.764282062499973,
            "value": 1
          },
          {
            "number": 10,
            "time": 8.785710624999973,
            "value": 0
          },
          {
            "number": 10,
            "time": 8.807139187499974,
            "value": 1
          },
          {
            "number": 10,
            "time": 8.828567749999975,
            "value": 0
          },
          {
            "number": 10,
            "time": 8.849996312499975,
            "value": 1
          },
          {
            "number": 10,
            "time": 8.871424874999976,
            "value": 0
          },
          {
            "number": 10,
            "time": 8.892853437499976,
            "value": 1
          },
          {
            "number": 10,
            "time": 8.914281999999977,
            "value": 0
          },
          {
            "number": 10,
            "time": 8.935710562499978,
            "value": 1
          },
          {
            "number": 10,
            "time": 8.957139124999978,
            "value": 0
          },
          {
            "number": 10,
            "time": 8.978567687499979,
            "value": 1
          },
          {
            "number": 10,
            "time": 8.99999624999998,
            "value": 0
          },
          {
            "number": 10,
            "time": 9.02142481249998,
            "value": 1
          },
          {
            "number": 10,
            "time": 9.04285337499998,
            "value": 0
          },
          {
            "number": 10,
            "time": 9.064281937499981,
            "value": 1
          },
          {
            "number": 10,
            "time": 9.085710499999982,
            "value": 0
          },
          {
            "number": 10,
            "time": 9.107139062499982,
            "value": 1
          },
          {
            "number": 10,
            "time": 9.128567624999983,
            "value": 0
          },
          {
            "number": 10,
            "time": 9.149996187499983,
            "value": 1
          },
          {
            "number": 10,
            "time": 9.171424749999984,
            "value": 0
          },
          {
            "number": 10,
            "time": 9.192853312499984,
            "value": 1
          },
          {
            "number": 10,
            "time": 9.214281874999985,
            "value": 0
          },
          {
            "number": 10,
            "time": 9.235710437499986,
            "value": 1
          },
          {
            "number": 10,
            "time": 9.257138999999986,
            "value": 0
          },
          {
            "number": 10,
            "time": 9.278567562499987,
            "value": 1
          },
          {
            "number": 10,
            "time": 9.299996124999987,
            "value": 0
          },
          {
            "number": 10,
            "time": 9.321424687499988,
            "value": 1
          },
          {
            "number": 10,
            "time": 9.342853249999989,
            "value": 0
          },
          {
            "number": 10,
            "time": 9.36428181249999,
            "value": 1
          },
          {
            "number": 10,
            "time": 9.38571037499999,
            "value": 0
          },
          {
            "number": 10,
            "time": 9.40713893749999,
            "value": 1
          },
          {
            "number": 10,
            "time": 9.42856749999999,
            "value": 0
          },
          {
            "number": 10,
            "time": 9.449996062499991,
            "value": 1
          },
          {
            "number": 10,
            "time": 9.471424624999992,
            "value": 0
          },
          {
            "number": 10,
            "time": 9.492853187499993,
            "value": 1
          },
          {
            "number": 10,
            "time": 9.514281749999993,
            "value": 0
          },
          {
            "number": 10,
            "time": 9.535710312499994,
            "value": 1
          },
          {
            "number": 10,
            "time": 9.557138874999994,
            "value": 0
          },
          {
            "number": 10,
            "time": 9.578567437499995,
            "value": 1
          },
          {
            "number": 10,
            "time": 9.599995999999996,
            "value": 0
          },
          {
            "number": 10,
            "time": 9.621424562499996,
            "value": 1
          },
          {
            "number": 10,
            "time": 9.642853124999997,
            "value": 0
          },
          {
            "number": 10,
            "time": 9.664281687499997,
            "value": 1
          },
          {
            "number": 10,
            "time": 9.685710249999998,
            "value": 0
          },
          {
            "number": 10,
            "time": 9.707138812499998,
            "value": 1
          },
          {
            "number": 10,
            "time": 9.728567374999999,
            "value": 0
          },
          {
            "number": 10,
            "time": 9.7499959375,
            "value": 1
          },
          {
            "number": 10,
            "time": 9.7714245,
            "value": 0
          },
          {
            "number": 10,
            "time": 9.7928530625,
            "value": 1
          },
          {
            "number": 10,
            "time": 9.814281625000001,
            "value": 0
          },
          {
            "number": 10,
            "time": 9.835710187500002,
            "value": 1
          },
          {
            "number": 10,
            "time": 9.857138750000003,
            "value": 0
          },
          {
            "number": 10,
            "time": 9.878567312500003,
            "value": 1
          },
          {
            "number": 10,
            "time": 9.899995875000004,
            "value": 0
          },
          {
            "number": 10,
            "time": 9.921424437500004,
            "value": 1
          },
          {
            "number": 10,
            "time": 9.942853000000005,
            "value": 0
          },
          {
            "number": 10,
            "time": 9.964281562500005,
            "value": 1
          },
          {
            "number": 10,
            "time": 9.985710125000006,
            "value": 0
          },
          {
            "number": 10,
            "time": 10.007138687500007,
            "value": 1
          },
          {
            "number": 10,
            "time": 10.028567250000007,
            "value": 0
          },
          {
            "number": 10,
            "time": 10.049995812500008,
            "value": 1
          },
          {
            "number": 10,
            "time": 10.071424375000008,
            "value": 0
          },
          {
            "number": 10,
            "time": 10.092852937500009,
            "value": 1
          },
          {
            "number": 10,
            "time": 10.11428150000001,
            "value": 0
          },
          {
            "number": 10,
            "time": 10.13571006250001,
            "value": 1
          },
          {
            "number": 10,
            "time": 10.15713862500001,
            "value": 0
          },
          {
            "number": 10,
            "time": 10.178567187500011,
            "value": 1
          },
          {
            "number": 10,
            "time": 10.199995750000012,
            "value": 0
          },
          {
            "number": 10,
            "time": 10.221424312500012,
            "value": 1
          },
          {
            "number": 10,
            "time": 10.242852875000013,
            "value": 0
          },
          {
            "number": 10,
            "time": 10.264281437500014,
            "value": 1
          },
          {
            "number": 10,
            "time": 10.285710000000014,
            "value": 0
          },
          {
            "number": 10,
            "time": 10.307138562500015,
            "value": 1
          },
          {
            "number": 10,
            "time": 10.328567125000015,
            "value": 0
          },
          {
            "number": 10,
            "time": 10.349995687500016,
            "value": 1
          },
          {
            "number": 10,
            "time": 10.371424250000016,
            "value": 0
          },
          {
            "number": 10,
            "time": 10.392852812500017,
            "value": 1
          },
          {
            "number": 10,
            "time": 10.414281375000018,
            "value": 0
          },
          {
            "number": 10,
            "time": 10.435709937500018,
            "value": 1
          },
          {
            "number": 10,
            "time": 10.457138500000019,
            "value": 0
          },
          {
            "number": 10,
            "time": 10.47856706250002,
            "value": 1
          },
          {
            "number": 10,
            "time": 10.49999562500002,
            "value": 0
          },
          {
            "number": 10,
            "time": 10.52142418750002,
            "value": 1
          },
          {
            "number": 10,
            "time": 10.542852750000021,
            "value": 0
          },
          {
            "number": 10,
            "time": 10.564281312500022,
            "value": 1
          },
          {
            "number": 10,
            "time": 10.585709875000022,
            "value": 0
          },
          {
            "number": 10,
            "time": 10.607138437500023,
            "value": 1
          },
          {
            "number": 10,
            "time": 10.628567000000023,
            "value": 0
          },
          {
            "number": 10,
            "time": 10.649995562500024,
            "value": 1
          },
          {
            "number": 10,
            "time": 10.671424125000025,
            "value": 0
          },
          {
            "number": 10,
            "time": 10.692852687500025,
            "value": 1
          },
          {
            "number": 10,
            "time": 10.714281250000026,
            "value": 0
          },
          {
            "number": 10,
            "time": 10.735709812500026,
            "value": 1
          },
          {
            "number": 10,
            "time": 10.757138375000027,
            "value": 0
          },
          {
            "number": 10,
            "time": 10.778566937500027,
            "value": 1
          },
          {
            "number": 10,
            "time": 10.799995500000028,
            "value": 0
          },
          {
            "number": 10,
            "time": 10.821424062500029,
            "value": 1
          },
          {
            "number": 10,
            "time": 10.84285262500003,
            "value": 0
          },
          {
            "number": 10,
            "time": 10.86428118750003,
            "value": 1
          },
          {
            "number": 10,
            "time": 10.88570975000003,
            "value": 0
          },
          {
            "number": 10,
            "time": 10.907138312500031,
            "value": 1
          },
          {
            "number": 10,
            "time": 10.928566875000032,
            "value": 0
          },
          {
            "number": 10,
            "time": 10.949995437500032,
            "value": 1
          },
          {
            "number": 10,
            "time": 10.971424000000033,
            "value": 0
          },
          {
            "number": 10,
            "time": 10.992852562500033,
            "value": 1
          },
          {
            "number": 10,
            "time": 11.014281125000034,
            "value": 0
          },
          {
            "number": 10,
            "time": 11.035709687500034,
            "value": 1
          },
          {
            "number": 10,
            "time": 11.057138250000035,
            "value": 0
          },
          {
            "number": 10,
            "time": 11.078566812500036,
            "value": 1
          },
          {
            "number": 10,
            "time": 11.099995375000036,
            "value": 0
          },
          {
            "number": 10,
            "time": 11.121423937500037,
            "value": 1
          },
          {
            "number": 10,
            "time": 11.142852500000037,
            "value": 0
          },
          {
            "number": 10,
            "time": 11.164281062500038,
            "value": 1
          },
          {
            "number": 10,
            "time": 11.185709625000039,
            "value": 0
          },
          {
            "number": 10,
            "time": 11.207138187500039,
            "value": 1
          },
          {
            "number": 10,
            "time": 11.22856675000004,
            "value": 0
          },
          {
            "number": 10,
            "time": 11.24999531250004,
            "value": 1
          },
          {
            "number": 10,
            "time": 11.27142387500004,
            "value": 0
          },
          {
            "number": 10,
            "time": 11.292852437500041,
            "value": 1
          },
          {
            "number": 10,
            "time": 11.314281000000042,
            "value": 0
          },
          {
            "number": 10,
            "time": 11.335709562500043,
            "value": 1
          },
          {
            "number": 10,
            "time": 11.357138125000043,
            "value": 0
          },
          {
            "number": 10,
            "time": 11.378566687500044,
            "value": 1
          },
          {
            "number": 10,
            "time": 11.399995250000044,
            "value": 0
          },
          {
            "number": 10,
            "time": 11.421423812500045,
            "value": 1
          },
          {
            "number": 10,
            "time": 11.442852375000045,
            "value": 0
          },
          {
            "number": 10,
            "time": 11.464280937500046,
            "value": 1
          },
          {
            "number": 10,
            "time": 11.485709500000047,
            "value": 0
          },
          {
            "number": 10,
            "time": 11.507138062500047,
            "value": 1
          },
          {
            "number": 10,
            "time": 11.528566625000048,
            "value": 0
          },
          {
            "number": 10,
            "time": 11.549995187500048,
            "value": 1
          },
          {
            "number": 10,
            "time": 11.571423750000049,
            "value": 0
          },
          {
            "number": 10,
            "time": 11.59285231250005,
            "value": 1
          },
          {
            "number": 10,
            "time": 11.61428087500005,
            "value": 0
          },
          {
            "number": 10,
            "time": 11.63570943750005,
            "value": 1
          },
          {
            "number": 10,
            "time": 11.657138000000051,
            "value": 0
          },
          {
            "number": 10,
            "time": 11.678566562500052,
            "value": 1
          },
          {
            "number": 10,
            "time": 11.699995125000052,
            "value": 0
          },
          {
            "number": 10,
            "time": 11.721423687500053,
            "value": 1
          },
          {
            "number": 10,
            "time": 11.742852250000054,
            "value": 0
          },
          {
            "number": 10,
            "time": 11.764280812500054,
            "value": 1
          },
          {
            "number": 10,
            "time": 11.785709375000055,
            "value": 0
          },
          {
            "number": 10,
            "time": 11.807137937500055,
            "value": 1
          },
          {
            "number": 10,
            "time": 11.828566500000056,
            "value": 0
          },
          {
            "number": 10,
            "time": 11.849995062500057,
            "value": 1
          },
          {
            "number": 10,
            "time": 11.871423625000057,
            "value": 0
          },
          {
            "number": 10,
            "time": 11.892852187500058,
            "value": 1
          },
          {
            "number": 10,
            "time": 11.914280750000058,
            "value": 0
          },
          {
            "number": 10,
            "time": 11.935709312500059,
            "value": 1
          },
          {
            "number": 10,
            "time": 11.95713787500006,
            "value": 0
          },
          {
            "number": 10,
            "time": 11.97856643750006,
            "value": 1
          },
          {
            "number": 10,
            "time": 11.99999500000006,
            "value": 0
          },
          {
            "number": 10,
            "time": 12.021423562500061,
            "value": 1
          },
          {
            "number": 10,
            "time": 12.042852125000062,
            "value": 0
          },
          {
            "number": 10,
            "time": 12.064280687500062,
            "value": 1
          },
          {
            "number": 10,
            "time": 12.085709250000063,
            "value": 0
          },
          {
            "number": 10,
            "time": 12.107137812500063,
            "value": 1
          },
          {
            "number": 10,
            "time": 12.128566375000064,
            "value": 0
          },
          {
            "number": 10,
            "time": 12.149994937500065,
            "value": 1
          },
          {
            "number": 10,
            "time": 12.171423500000065,
            "value": 0
          },
          {
            "number": 10,
            "time": 12.192852062500064,
            "value": 1
          },
          {
            "number": 10,
            "time": 12.214280625000063,
            "value": 0
          },
          {
            "number": 10,
            "time": 12.235709187500063,
            "value": 1
          },
          {
            "number": 10,
            "time": 12.257137750000064,
            "value": 0
          },
          {
            "number": 10,
            "time": 12.278566312500063,
            "value": 1
          },
          {
            "number": 10,
            "time": 12.299994875000062,
            "value": 0
          },
          {
            "number": 10,
            "time": 12.32142343750006,
            "value": 1
          },
          {
            "number": 10,
            "time": 12.34285200000006,
            "value": 0
          },
          {
            "number": 10,
            "time": 12.364280562500058,
            "value": 1
          },
          {
            "number": 10,
            "time": 12.385709125000057,
            "value": 0
          },
          {
            "number": 10,
            "time": 12.407137687500056,
            "value": 1
          },
          {
            "number": 10,
            "time": 12.428566250000054,
            "value": 0
          },
          {
            "number": 10,
            "time": 12.449994812500053,
            "value": 1
          },
          {
            "number": 10,
            "time": 12.471423375000052,
            "value": 0
          },
          {
            "number": 10,
            "time": 12.49285193750005,
            "value": 1
          },
          {
            "number": 10,
            "time": 12.51428050000005,
            "value": 0
          },
          {
            "number": 10,
            "time": 12.535709062500048,
            "value": 1
          },
          {
            "number": 10,
            "time": 12.557137625000047,
            "value": 0
          },
          {
            "number": 10,
            "time": 12.578566187500046,
            "value": 1
          },
          {
            "number": 10,
            "time": 12.599994750000047,
            "value": 0
          },
          {
            "number": 10,
            "time": 12.621423312500045,
            "value": 1
          },
          {
            "number": 10,
            "time": 12.642851875000044,
            "value": 0
          },
          {
            "number": 10,
            "time": 12.664280437500045,
            "value": 1
          },
          {
            "number": 10,
            "time": 12.685709000000045,
            "value": 0
          },
          {
            "number": 10,
            "time": 12.707137562500046,
            "value": 1
          },
          {
            "number": 10,
            "time": 12.728566125000047,
            "value": 0
          },
          {
            "number": 10,
            "time": 12.749994687500045,
            "value": 1
          },
          {
            "number": 10,
            "time": 12.771423250000046,
            "value": 0
          },
          {
            "number": 10,
            "time": 12.792851812500047,
            "value": 1
          },
          {
            "number": 10,
            "time": 12.814280375000045,
            "value": 0
          },
          {
            "number": 10,
            "time": 12.835708937500044,
            "value": 1
          },
          {
            "number": 10,
            "time": 12.857137500000043,
            "value": 0
          },
          {
            "number": 10,
            "time": 12.878566062500042,
            "value": 1
          },
          {
            "number": 10,
            "time": 12.899994625000042,
            "value": 0
          },
          {
            "number": 10,
            "time": 12.921423187500043,
            "value": 1
          },
          {
            "number": 10,
            "time": 12.942851750000044,
            "value": 0
          },
          {
            "number": 10,
            "time": 12.964280312500044,
            "value": 1
          },
          {
            "number": 10,
            "time": 12.985708875000043,
            "value": 0
          },
          {
            "number": 10,
            "time": 13.007137437500043,
            "value": 1
          },
          {
            "number": 10,
            "time": 13.028566000000042,
            "value": 0
          },
          {
            "number": 10,
            "time": 13.049994562500041,
            "value": 1
          },
          {
            "number": 10,
            "time": 13.07142312500004,
            "value": 0
          },
          {
            "number": 10,
            "time": 13.092851687500039,
            "value": 1
          },
          {
            "number": 10,
            "time": 13.114280250000037,
            "value": 0
          },
          {
            "number": 10,
            "time": 13.135708812500036,
            "value": 1
          },
          {
            "number": 10,
            "time": 13.157137375000035,
            "value": 0
          },
          {
            "number": 10,
            "time": 13.178565937500034,
            "value": 1
          },
          {
            "number": 10,
            "time": 13.199994500000033,
            "value": 0
          },
          {
            "number": 10,
            "time": 13.221423062500032,
            "value": 1
          },
          {
            "number": 10,
            "time": 13.242851625000032,
            "value": 0
          },
          {
            "number": 10,
            "time": 13.264280187500033,
            "value": 1
          },
          {
            "number": 10,
            "time": 13.285708750000031,
            "value": 0
          },
          {
            "number": 10,
            "time": 13.30713731250003,
            "value": 1
          },
          {
            "number": 10,
            "time": 13.328565875000029,
            "value": 0
          },
          {
            "number": 10,
            "time": 13.34999443750003,
            "value": 1
          },
          {
            "number": 10,
            "time": 13.37142300000003,
            "value": 0
          },
          {
            "number": 10,
            "time": 13.392851562500029,
            "value": 1
          },
          {
            "number": 10,
            "time": 13.414280125000028,
            "value": 0
          },
          {
            "number": 10,
            "time": 13.435708687500028,
            "value": 1
          },
          {
            "number": 10,
            "time": 13.457137250000029,
            "value": 0
          },
          {
            "number": 10,
            "time": 13.478565812500028,
            "value": 1
          },
          {
            "number": 10,
            "time": 13.499994375000027,
            "value": 0
          },
          {
            "number": 10,
            "time": 13.521422937500025,
            "value": 1
          },
          {
            "number": 10,
            "time": 13.542851500000024,
            "value": 0
          },
          {
            "number": 10,
            "time": 13.564280062500023,
            "value": 1
          },
          {
            "number": 10,
            "time": 13.585708625000022,
            "value": 0
          },
          {
            "number": 10,
            "time": 13.60713718750002,
            "value": 1
          },
          {
            "number": 10,
            "time": 13.62856575000002,
            "value": 0
          },
          {
            "number": 10,
            "time": 13.649994312500018,
            "value": 1
          },
          {
            "number": 10,
            "time": 13.671422875000017,
            "value": 0
          },
          {
            "number": 10,
            "time": 13.692851437500016,
            "value": 1
          },
          {
            "number": 10,
            "time": 13.714280000000015,
            "value": 0
          },
          {
            "number": 10,
            "time": 13.735708562500015,
            "value": 1
          },
          {
            "number": 10,
            "time": 13.757137125000014,
            "value": 0
          },
          {
            "number": 10,
            "time": 13.778565687500013,
            "value": 1
          },
          {
            "number": 10,
            "time": 13.799994250000012,
            "value": 0
          },
          {
            "number": 10,
            "time": 13.82142281250001,
            "value": 1
          },
          {
            "number": 10,
            "time": 13.84285137500001,
            "value": 0
          },
          {
            "number": 10,
            "time": 13.86427993750001,
            "value": 1
          },
          {
            "number": 10,
            "time": 13.88570850000001,
            "value": 0
          },
          {
            "number": 10,
            "time": 13.907137062500011,
            "value": 1
          },
          {
            "number": 10,
            "time": 13.928565625000012,
            "value": 0
          },
          {
            "number": 10,
            "time": 13.94999418750001,
            "value": 1
          },
          {
            "number": 10,
            "time": 13.97142275000001,
            "value": 0
          },
          {
            "number": 10,
            "time": 13.992851312500008,
            "value": 1
          },
          {
            "number": 10,
            "time": 14.014279875000007,
            "value": 0
          },
          {
            "number": 10,
            "time": 14.035708437500006,
            "value": 1
          },
          {
            "number": 10,
            "time": 14.057137000000004,
            "value": 0
          },
          {
            "number": 10,
            "time": 14.078565562500003,
            "value": 1
          },
          {
            "number": 10,
            "time": 14.099994125000002,
            "value": 0
          },
          {
            "number": 10,
            "time": 14.1214226875,
            "value": 1
          },
          {
            "number": 10,
            "time": 14.14285125,
            "value": 0
          },
          {
            "number": 10,
            "time": 14.1642798125,
            "value": 1
          },
          {
            "number": 10,
            "time": 14.185708375,
            "value": 0
          },
          {
            "number": 10,
            "time": 14.207136937500001,
            "value": 1
          },
          {
            "number": 10,
            "time": 14.228565500000002,
            "value": 0
          },
          {
            "number": 10,
            "time": 14.2499940625,
            "value": 1
          },
          {
            "number": 10,
            "time": 14.271422625000001,
            "value": 0
          },
          {
            "number": 10,
            "time": 14.2928511875,
            "value": 1
          },
          {
            "number": 10,
            "time": 14.314279749999999,
            "value": 0
          },
          {
            "number": 10,
            "time": 14.335708312499998,
            "value": 1
          },
          {
            "number": 10,
            "time": 14.357136874999997,
            "value": 0
          },
          {
            "number": 10,
            "time": 14.378565437499997,
            "value": 1
          },
          {
            "number": 10,
            "time": 14.399993999999996,
            "value": 0
          },
          {
            "number": 10,
            "time": 14.421422562499995,
            "value": 1
          },
          {
            "number": 10,
            "time": 14.442851124999994,
            "value": 0
          },
          {
            "number": 10,
            "time": 14.464279687499992,
            "value": 1
          },
          {
            "number": 10,
            "time": 14.485708249999993,
            "value": 0
          },
          {
            "number": 10,
            "time": 14.507136812499992,
            "value": 1
          },
          {
            "number": 10,
            "time": 14.52856537499999,
            "value": 0
          },
          {
            "number": 10,
            "time": 14.54999393749999,
            "value": 1
          },
          {
            "number": 10,
            "time": 14.57142249999999,
            "value": 0
          },
          {
            "number": 10,
            "time": 14.59285106249999,
            "value": 1
          },
          {
            "number": 10,
            "time": 14.61427962499999,
            "value": 0
          },
          {
            "number": 10,
            "time": 14.635708187499988,
            "value": 1
          },
          {
            "number": 10,
            "time": 14.657136749999987,
            "value": 0
          },
          {
            "number": 10,
            "time": 14.678565312499988,
            "value": 1
          },
          {
            "number": 10,
            "time": 14.699993874999988,
            "value": 0
          },
          {
            "number": 10,
            "time": 14.721422437499987,
            "value": 1
          },
          {
            "number": 10,
            "time": 14.742850999999986,
            "value": 0
          },
          {
            "number": 10,
            "time": 14.764279562499985,
            "value": 1
          },
          {
            "number": 10,
            "time": 14.785708124999983,
            "value": 0
          },
          {
            "number": 10,
            "time": 14.807136687499982,
            "value": 1
          },
          {
            "number": 10,
            "time": 14.828565249999981,
            "value": 0
          },
          {
            "number": 10,
            "time": 14.849993812499982,
            "value": 1
          },
          {
            "number": 10,
            "time": 14.87142237499998,
            "value": 0
          },
          {
            "number": 10,
            "time": 14.89285093749998,
            "value": 1
          },
          {
            "number": 10,
            "time": 14.914279499999978,
            "value": 0
          },
          {
            "number": 10,
            "time": 14.935708062499979,
            "value": 1
          },
          {
            "number": 10,
            "time": 14.957136624999979,
            "value": 0
          },
          {
            "number": 10,
            "time": 14.978565187499978,
            "value": 1
          },
          {
            "number": 10,
            "time": 14.999993749999977,
            "value": 0
          },
          {
            "number": 10,
            "time": 15.021422312499976,
            "value": 1
          },
          {
            "number": 10,
            "time": 15.042850874999974,
            "value": 0
          },
          {
            "number": 10,
            "time": 15.064279437499973,
            "value": 1
          },
          {
            "number": 10,
            "time": 15.085707999999972,
            "value": 0
          },
          {
            "number": 10,
            "time": 15.10713656249997,
            "value": 1
          },
          {
            "number": 10,
            "time": 15.12856512499997,
            "value": 0
          },
          {
            "number": 10,
            "time": 15.149993687499968,
            "value": 1
          },
          {
            "number": 10,
            "time": 15.171422249999967,
            "value": 0
          },
          {
            "number": 10,
            "time": 15.192850812499968,
            "value": 1
          },
          {
            "number": 10,
            "time": 15.214279374999968,
            "value": 0
          },
          {
            "number": 10,
            "time": 15.235707937499967,
            "value": 1
          },
          {
            "number": 10,
            "time": 15.257136499999968,
            "value": 0
          },
          {
            "number": 10,
            "time": 15.278565062499966,
            "value": 1
          },
          {
            "number": 10,
            "time": 15.299993624999967,
            "value": 0
          },
          {
            "number": 10,
            "time": 15.321422187499968,
            "value": 1
          },
          {
            "number": 10,
            "time": 15.342850749999968,
            "value": 0
          },
          {
            "number": 10,
            "time": 15.364279312499967,
            "value": 1
          },
          {
            "number": 10,
            "time": 15.385707874999968,
            "value": 0
          },
          {
            "number": 10,
            "time": 15.407136437499966,
            "value": 1
          },
          {
            "number": 10,
            "time": 15.428564999999967,
            "value": 0
          },
          {
            "number": 10,
            "time": 15.449993562499968,
            "value": 1
          },
          {
            "number": 10,
            "time": 15.471422124999968,
            "value": 0
          },
          {
            "number": 10,
            "time": 15.492850687499967,
            "value": 1
          },
          {
            "number": 10,
            "time": 15.514279249999966,
            "value": 0
          },
          {
            "number": 10,
            "time": 15.535707812499965,
            "value": 1
          },
          {
            "number": 10,
            "time": 15.557136374999963,
            "value": 0
          },
          {
            "number": 10,
            "time": 15.578564937499962,
            "value": 1
          },
          {
            "number": 10,
            "time": 15.599993499999961,
            "value": 0
          },
          {
            "number": 10,
            "time": 15.621422062499962,
            "value": 1
          },
          {
            "number": 10,
            "time": 15.64285062499996,
            "value": 0
          },
          {
            "number": 10,
            "time": 15.664279187499961,
            "value": 1
          },
          {
            "number": 10,
            "time": 15.685707749999962,
            "value": 0
          },
          {
            "number": 10,
            "time": 15.70713631249996,
            "value": 1
          },
          {
            "number": 10,
            "time": 15.728564874999961,
            "value": 0
          },
          {
            "number": 10,
            "time": 15.74999343749996,
            "value": 1
          },
          {
            "number": 10,
            "time": 15.771421999999959,
            "value": 0
          },
          {
            "number": 10,
            "time": 15.792850562499957,
            "value": 1
          },
          {
            "number": 10,
            "time": 15.814279124999956,
            "value": 0
          },
          {
            "number": 10,
            "time": 15.835707687499955,
            "value": 1
          },
          {
            "number": 10,
            "time": 15.857136249999954,
            "value": 0
          },
          {
            "number": 10,
            "time": 15.878564812499954,
            "value": 1
          },
          {
            "number": 10,
            "time": 15.899993374999955,
            "value": 0
          },
          {
            "number": 10,
            "time": 15.921421937499955,
            "value": 1
          },
          {
            "number": 10,
            "time": 15.942850499999956,
            "value": 0
          },
          {
            "number": 10,
            "time": 15.964279062499957,
            "value": 1
          },
          {
            "number": 10,
            "time": 15.985707624999957,
            "value": 0
          },
          {
            "number": 10,
            "time": 16.007136187499956,
            "value": 1
          },
          {
            "number": 10,
            "time": 16.028564749999955,
            "value": 0
          },
          {
            "number": 10,
            "time": 16.049993312499954,
            "value": 1
          },
          {
            "number": 10,
            "time": 16.071421874999952,
            "value": 0
          },
          {
            "number": 10,
            "time": 16.09285043749995,
            "value": 1
          },
          {
            "number": 10,
            "time": 16.11427899999995,
            "value": 0
          },
          {
            "number": 10,
            "time": 16.13570756249995,
            "value": 1
          },
          {
            "number": 10,
            "time": 16.157136124999948,
            "value": 0
          },
          {
            "number": 10,
            "time": 16.178564687499946,
            "value": 1
          },
          {
            "number": 10,
            "time": 16.199993249999945,
            "value": 0
          },
          {
            "number": 10,
            "time": 16.221421812499944,
            "value": 1
          },
          {
            "number": 10,
            "time": 16.242850374999943,
            "value": 0
          },
          {
            "number": 10,
            "time": 16.26427893749994,
            "value": 1
          },
          {
            "number": 10,
            "time": 16.28570749999994,
            "value": 0
          },
          {
            "number": 10,
            "time": 16.30713606249994,
            "value": 1
          },
          {
            "number": 10,
            "time": 16.328564624999938,
            "value": 0
          },
          {
            "number": 10,
            "time": 16.349993187499937,
            "value": 1
          },
          {
            "number": 10,
            "time": 16.371421749999936,
            "value": 0
          },
          {
            "number": 10,
            "time": 16.392850312499935,
            "value": 1
          },
          {
            "number": 10,
            "time": 16.414278874999933,
            "value": 0
          },
          {
            "number": 10,
            "time": 16.435707437499932,
            "value": 1
          },
          {
            "number": 10,
            "time": 16.45713599999993,
            "value": 0
          },
          {
            "number": 10,
            "time": 16.47856456249993,
            "value": 1
          },
          {
            "number": 10,
            "time": 16.49999312499993,
            "value": 0
          },
          {
            "number": 10,
            "time": 16.521421687499927,
            "value": 1
          },
          {
            "number": 10,
            "time": 16.542850249999926,
            "value": 0
          },
          {
            "number": 10,
            "time": 16.564278812499925,
            "value": 1
          },
          {
            "number": 10,
            "time": 16.585707374999924,
            "value": 0
          },
          {
            "number": 10,
            "time": 16.607135937499923,
            "value": 1
          },
          {
            "number": 10,
            "time": 16.62856449999992,
            "value": 0
          },
          {
            "number": 10,
            "time": 16.64999306249992,
            "value": 1
          },
          {
            "number": 10,
            "time": 16.67142162499992,
            "value": 0
          },
          {
            "number": 10,
            "time": 16.692850187499918,
            "value": 1
          },
          {
            "number": 10,
            "time": 16.714278749999917,
            "value": 0
          },
          {
            "number": 10,
            "time": 16.735707312499915,
            "value": 1
          },
          {
            "number": 10,
            "time": 16.757135874999914,
            "value": 0
          },
          {
            "number": 10,
            "time": 16.778564437499913,
            "value": 1
          },
          {
            "number": 10,
            "time": 16.799992999999912,
            "value": 0
          },
          {
            "number": 10,
            "time": 16.82142156249991,
            "value": 1
          },
          {
            "number": 10,
            "time": 16.84285012499991,
            "value": 0
          },
          {
            "number": 10,
            "time": 16.864278687499908,
            "value": 1
          },
          {
            "number": 10,
            "time": 16.885707249999907,
            "value": 0
          },
          {
            "number": 10,
            "time": 16.907135812499906,
            "value": 1
          },
          {
            "number": 10,
            "time": 16.928564374999905,
            "value": 0
          },
          {
            "number": 10,
            "time": 16.949992937499903,
            "value": 1
          },
          {
            "number": 10,
            "time": 16.971421499999902,
            "value": 0
          },
          {
            "number": 10,
            "time": 16.9928500624999,
            "value": 1
          },
          {
            "number": 10,
            "time": 17.0142786249999,
            "value": 0
          },
          {
            "number": 10,
            "time": 17.0357071874999,
            "value": 1
          },
          {
            "number": 10,
            "time": 17.057135749999897,
            "value": 0
          },
          {
            "number": 10,
            "time": 17.078564312499896,
            "value": 1
          },
          {
            "number": 10,
            "time": 17.099992874999895,
            "value": 0
          },
          {
            "number": 10,
            "time": 17.121421437499894,
            "value": 1
          },
          {
            "number": 10,
            "time": 17.142849999999893,
            "value": 0
          },
          {
            "number": 10,
            "time": 17.16427856249989,
            "value": 1
          },
          {
            "number": 10,
            "time": 17.18570712499989,
            "value": 0
          },
          {
            "number": 10,
            "time": 17.20713568749989,
            "value": 1
          },
          {
            "number": 10,
            "time": 17.228564249999888,
            "value": 0
          },
          {
            "number": 10,
            "time": 17.249992812499887,
            "value": 1
          },
          {
            "number": 10,
            "time": 17.271421374999886,
            "value": 0
          },
          {
            "number": 10,
            "time": 17.292849937499884,
            "value": 1
          },
          {
            "number": 10,
            "time": 17.314278499999883,
            "value": 0
          },
          {
            "number": 10,
            "time": 17.335707062499882,
            "value": 1
          },
          {
            "number": 10,
            "time": 17.35713562499988,
            "value": 0
          },
          {
            "number": 10,
            "time": 17.37856418749988,
            "value": 1
          },
          {
            "number": 10,
            "time": 17.39999274999988,
            "value": 0
          },
          {
            "number": 10,
            "time": 17.421421312499877,
            "value": 1
          },
          {
            "number": 10,
            "time": 17.442849874999876,
            "value": 0
          },
          {
            "number": 10,
            "time": 17.464278437499875,
            "value": 1
          },
          {
            "number": 10,
            "time": 17.485706999999874,
            "value": 0
          },
          {
            "number": 10,
            "time": 17.507135562499872,
            "value": 1
          },
          {
            "number": 10,
            "time": 17.52856412499987,
            "value": 0
          },
          {
            "number": 10,
            "time": 17.54999268749987,
            "value": 1
          },
          {
            "number": 10,
            "time": 17.57142124999987,
            "value": 0
          },
          {
            "number": 10,
            "time": 17.592849812499868,
            "value": 1
          },
          {
            "number": 10,
            "time": 17.614278374999866,
            "value": 0
          },
          {
            "number": 10,
            "time": 17.635706937499865,
            "value": 1
          },
          {
            "number": 10,
            "time": 17.657135499999864,
            "value": 0
          },
          {
            "number": 10,
            "time": 17.678564062499863,
            "value": 1
          },
          {
            "number": 10,
            "time": 17.69999262499986,
            "value": 0
          },
          {
            "number": 10,
            "time": 17.72142118749986,
            "value": 1
          },
          {
            "number": 10,
            "time": 17.74284974999986,
            "value": 0
          },
          {
            "number": 10,
            "time": 17.764278312499858,
            "value": 1
          },
          {
            "number": 10,
            "time": 17.785706874999857,
            "value": 0
          },
          {
            "number": 10,
            "time": 17.807135437499856,
            "value": 1
          },
          {
            "number": 10,
            "time": 17.828563999999854,
            "value": 0
          },
          {
            "number": 10,
            "time": 17.849992562499853,
            "value": 1
          },
          {
            "number": 10,
            "time": 17.871421124999852,
            "value": 0
          },
          {
            "number": 10,
            "time": 17.89284968749985,
            "value": 1
          },
          {
            "number": 10,
            "time": 17.91427824999985,
            "value": 0
          },
          {
            "number": 10,
            "time": 17.93570681249985,
            "value": 1
          },
          {
            "number": 10,
            "time": 17.957135374999847,
            "value": 0
          },
          {
            "number": 10,
            "time": 17.978563937499846,
            "value": 1
          },
          {
            "number": 10,
            "time": 17.999992499999845,
            "value": 0
          },
          {
            "number": 10,
            "time": 18.021421062499844,
            "value": 1
          },
          {
            "number": 10,
            "time": 18.042849624999842,
            "value": 0
          },
          {
            "number": 10,
            "time": 18.06427818749984,
            "value": 1
          },
          {
            "number": 10,
            "time": 18.08570674999984,
            "value": 0
          },
          {
            "number": 10,
            "time": 18.10713531249984,
            "value": 1
          },
          {
            "number": 10,
            "time": 18.128563874999838,
            "value": 0
          },
          {
            "number": 10,
            "time": 18.149992437499836,
            "value": 1
          },
          {
            "number": 10,
            "time": 18.171420999999835,
            "value": 0
          },
          {
            "number": 10,
            "time": 18.192849562499834,
            "value": 1
          },
          {
            "number": 10,
            "time": 18.214278124999833,
            "value": 0
          },
          {
            "number": 10,
            "time": 18.23570668749983,
            "value": 1
          },
          {
            "number": 10,
            "time": 18.25713524999983,
            "value": 0
          },
          {
            "number": 10,
            "time": 18.27856381249983,
            "value": 1
          },
          {
            "number": 10,
            "time": 18.299992374999828,
            "value": 0
          },
          {
            "number": 10,
            "time": 18.321420937499827,
            "value": 1
          },
          {
            "number": 10,
            "time": 18.342849499999826,
            "value": 0
          },
          {
            "number": 10,
            "time": 18.364278062499825,
            "value": 1
          },
          {
            "number": 10,
            "time": 18.385706624999823,
            "value": 0
          },
          {
            "number": 10,
            "time": 18.407135187499822,
            "value": 1
          },
          {
            "number": 10,
            "time": 18.42856374999982,
            "value": 0
          },
          {
            "number": 10,
            "time": 18.44999231249982,
            "value": 1
          },
          {
            "number": 10,
            "time": 18.47142087499982,
            "value": 0
          },
          {
            "number": 10,
            "time": 18.492849437499817,
            "value": 1
          },
          {
            "number": 10,
            "time": 18.514277999999816,
            "value": 0
          },
          {
            "number": 10,
            "time": 18.535706562499815,
            "value": 1
          },
          {
            "number": 10,
            "time": 18.557135124999814,
            "value": 0
          },
          {
            "number": 10,
            "time": 18.578563687499813,
            "value": 1
          },
          {
            "number": 10,
            "time": 18.59999224999981,
            "value": 0
          },
          {
            "number": 10,
            "time": 18.62142081249981,
            "value": 1
          },
          {
            "number": 10,
            "time": 18.64284937499981,
            "value": 0
          },
          {
            "number": 10,
            "time": 18.664277937499808,
            "value": 1
          },
          {
            "number": 10,
            "time": 18.685706499999807,
            "value": 0
          },
          {
            "number": 10,
            "time": 18.707135062499805,
            "value": 1
          },
          {
            "number": 10,
            "time": 18.728563624999804,
            "value": 0
          },
          {
            "number": 10,
            "time": 18.749992187499803,
            "value": 1
          },
          {
            "number": 10,
            "time": 18.771420749999802,
            "value": 0
          },
          {
            "number": 10,
            "time": 18.7928493124998,
            "value": 1
          },
          {
            "number": 10,
            "time": 18.8142778749998,
            "value": 0
          },
          {
            "number": 10,
            "time": 18.8357064374998,
            "value": 1
          },
          {
            "number": 10,
            "time": 18.857134999999797,
            "value": 0
          },
          {
            "number": 10,
            "time": 18.878563562499796,
            "value": 1
          },
          {
            "number": 10,
            "time": 18.899992124999795,
            "value": 0
          },
          {
            "number": 10,
            "time": 18.921420687499793,
            "value": 1
          },
          {
            "number": 10,
            "time": 18.942849249999792,
            "value": 0
          },
          {
            "number": 10,
            "time": 18.96427781249979,
            "value": 1
          },
          {
            "number": 10,
            "time": 18.98570637499979,
            "value": 0
          },
          {
            "number": 10,
            "time": 19.00713493749979,
            "value": 1
          },
          {
            "number": 10,
            "time": 19.028563499999787,
            "value": 0
          },
          {
            "number": 10,
            "time": 19.049992062499786,
            "value": 1
          },
          {
            "number": 10,
            "time": 19.071420624999785,
            "value": 0
          },
          {
            "number": 10,
            "time": 19.092849187499784,
            "value": 1
          },
          {
            "number": 10,
            "time": 19.114277749999783,
            "value": 0
          },
          {
            "number": 10,
            "time": 19.13570631249978,
            "value": 1
          },
          {
            "number": 10,
            "time": 19.15713487499978,
            "value": 0
          },
          {
            "number": 10,
            "time": 19.17856343749978,
            "value": 1
          },
          {
            "number": 10,
            "time": 19.199991999999778,
            "value": 0
          },
          {
            "number": 10,
            "time": 19.221420562499777,
            "value": 1
          },
          {
            "number": 10,
            "time": 19.242849124999776,
            "value": 0
          },
          {
            "number": 10,
            "time": 19.264277687499774,
            "value": 1
          },
          {
            "number": 10,
            "time": 19.285706249999773,
            "value": 0
          },
          {
            "number": 10,
            "time": 19.307134812499772,
            "value": 1
          },
          {
            "number": 10,
            "time": 19.32856337499977,
            "value": 0
          },
          {
            "number": 10,
            "time": 19.34999193749977,
            "value": 1
          },
          {
            "number": 10,
            "time": 19.37142049999977,
            "value": 0
          },
          {
            "number": 10,
            "time": 19.392849062499767,
            "value": 1
          },
          {
            "number": 10,
            "time": 19.414277624999766,
            "value": 0
          },
          {
            "number": 10,
            "time": 19.435706187499765,
            "value": 1
          },
          {
            "number": 10,
            "time": 19.457134749999764,
            "value": 0
          },
          {
            "number": 10,
            "time": 19.478563312499762,
            "value": 1
          },
          {
            "number": 10,
            "time": 19.49999187499976,
            "value": 0
          },
          {
            "number": 10,
            "time": 19.52142043749976,
            "value": 1
          },
          {
            "number": 10,
            "time": 19.54284899999976,
            "value": 0
          },
          {
            "number": 10,
            "time": 19.564277562499758,
            "value": 1
          },
          {
            "number": 10,
            "time": 19.585706124999756,
            "value": 0
          },
          {
            "number": 10,
            "time": 19.607134687499755,
            "value": 1
          },
          {
            "number": 10,
            "time": 19.628563249999754,
            "value": 0
          },
          {
            "number": 10,
            "time": 19.649991812499753,
            "value": 1
          },
          {
            "number": 10,
            "time": 19.67142037499975,
            "value": 0
          },
          {
            "number": 10,
            "time": 19.69284893749975,
            "value": 1
          },
          {
            "number": 10,
            "time": 19.71427749999975,
            "value": 0
          },
          {
            "number": 10,
            "time": 19.735706062499748,
            "value": 1
          },
          {
            "number": 10,
            "time": 19.757134624999747,
            "value": 0
          },
          {
            "number": 10,
            "time": 19.778563187499746,
            "value": 1
          },
          {
            "number": 10,
            "time": 19.799991749999744,
            "value": 0
          },
          {
            "number": 10,
            "time": 19.821420312499743,
            "value": 1
          },
          {
            "number": 10,
            "time": 19.842848874999742,
            "value": 0
          },
          {
            "number": 10,
            "time": 19.86427743749974,
            "value": 1
          },
          {
            "number": 10,
            "time": 19.88570599999974,
            "value": 0
          },
          {
            "number": 10,
            "time": 19.90713456249974,
            "value": 1
          },
          {
            "number": 10,
            "time": 19.928563124999737,
            "value": 0
          },
          {
            "number": 10,
            "time": 19.949991687499736,
            "value": 1
          },
          {
            "number": 10,
            "time": 19.971420249999735,
            "value": 0
          },
          {
            "number": 10,
            "time": 19.992848812499734,
            "value": 1
          },
          {
            "number": 10,
            "time": 20.014277374999732,
            "value": 0
          },
          {
            "number": 10,
            "time": 20.03570593749973,
            "value": 1
          },
          {
            "number": 10,
            "time": 20.05713449999973,
            "value": 0
          },
          {
            "number": 10,
            "time": 20.07856306249973,
            "value": 1
          },
          {
            "number": 10,
            "time": 20.099991624999728,
            "value": 0
          },
          {
            "number": 10,
            "time": 20.121420187499726,
            "value": 1
          },
          {
            "number": 10,
            "time": 20.142848749999725,
            "value": 0
          },
          {
            "number": 10,
            "time": 20.164277312499724,
            "value": 1
          },
          {
            "number": 10,
            "time": 20.185705874999723,
            "value": 0
          },
          {
            "number": 10,
            "time": 20.20713443749972,
            "value": 1
          },
          {
            "number": 10,
            "time": 20.22856299999972,
            "value": 0
          },
          {
            "number": 10,
            "time": 20.24999156249972,
            "value": 1
          },
          {
            "number": 10,
            "time": 20.271420124999718,
            "value": 0
          },
          {
            "number": 10,
            "time": 20.292848687499717,
            "value": 1
          },
          {
            "number": 10,
            "time": 20.314277249999716,
            "value": 0
          },
          {
            "number": 10,
            "time": 20.335705812499715,
            "value": 1
          },
          {
            "number": 10,
            "time": 20.357134374999713,
            "value": 0
          },
          {
            "number": 10,
            "time": 20.378562937499712,
            "value": 1
          },
          {
            "number": 10,
            "time": 20.39999149999971,
            "value": 0
          },
          {
            "number": 10,
            "time": 20.42142006249971,
            "value": 1
          },
          {
            "number": 10,
            "time": 20.44284862499971,
            "value": 0
          },
          {
            "number": 10,
            "time": 20.464277187499707,
            "value": 1
          },
          {
            "number": 10,
            "time": 20.485705749999706,
            "value": 0
          },
          {
            "number": 10,
            "time": 20.507134312499705,
            "value": 1
          },
          {
            "number": 10,
            "time": 20.528562874999704,
            "value": 0
          },
          {
            "number": 10,
            "time": 20.549991437499703,
            "value": 1
          },
          {
            "number": 10,
            "time": 20.5714199999997,
            "value": 0
          },
          {
            "number": 10,
            "time": 20.5928485624997,
            "value": 1
          },
          {
            "number": 10,
            "time": 20.6142771249997,
            "value": 0
          },
          {
            "number": 10,
            "time": 20.635705687499698,
            "value": 1
          },
          {
            "number": 10,
            "time": 20.657134249999697,
            "value": 0
          },
          {
            "number": 10,
            "time": 20.678562812499695,
            "value": 1
          },
          {
            "number": 10,
            "time": 20.699991374999694,
            "value": 0
          },
          {
            "number": 10,
            "time": 20.721419937499693,
            "value": 1
          },
          {
            "number": 10,
            "time": 20.742848499999692,
            "value": 0
          },
          {
            "number": 10,
            "time": 20.76427706249969,
            "value": 1
          },
          {
            "number": 10,
            "time": 20.78570562499969,
            "value": 0
          },
          {
            "number": 10,
            "time": 20.80713418749969,
            "value": 1
          },
          {
            "number": 10,
            "time": 20.828562749999687,
            "value": 0
          },
          {
            "number": 10,
            "time": 20.849991312499686,
            "value": 1
          },
          {
            "number": 10,
            "time": 20.871419874999685,
            "value": 0
          },
          {
            "number": 10,
            "time": 20.892848437499683,
            "value": 1
          },
          {
            "number": 10,
            "time": 20.914276999999682,
            "value": 0
          },
          {
            "number": 10,
            "time": 20.93570556249968,
            "value": 1
          },
          {
            "number": 10,
            "time": 20.95713412499968,
            "value": 0
          },
          {
            "number": 10,
            "time": 20.97856268749968,
            "value": 1
          },
          {
            "number": 10,
            "time": 20.999991249999677,
            "value": 0
          },
          {
            "number": 10,
            "time": 21.021419812499676,
            "value": 1
          },
          {
            "number": 10,
            "time": 21.042848374999675,
            "value": 0
          },
          {
            "number": 10,
            "time": 21.064276937499674,
            "value": 1
          },
          {
            "number": 10,
            "time": 21.085705499999673,
            "value": 0
          },
          {
            "number": 10,
            "time": 21.10713406249967,
            "value": 1
          },
          {
            "number": 10,
            "time": 21.12856262499967,
            "value": 0
          },
          {
            "number": 10,
            "time": 21.14999118749967,
            "value": 1
          },
          {
            "number": 10,
            "time": 21.171419749999668,
            "value": 0
          },
          {
            "number": 10,
            "time": 21.192848312499667,
            "value": 1
          },
          {
            "number": 10,
            "time": 21.214276874999666,
            "value": 0
          },
          {
            "number": 10,
            "time": 21.235705437499664,
            "value": 1
          },
          {
            "number": 10,
            "time": 21.257133999999663,
            "value": 0
          },
          {
            "number": 10,
            "time": 21.278562562499662,
            "value": 1
          },
          {
            "number": 10,
            "time": 21.29999112499966,
            "value": 0
          },
          {
            "number": 10,
            "time": 21.32141968749966,
            "value": 1
          },
          {
            "number": 10,
            "time": 21.34284824999966,
            "value": 0
          },
          {
            "number": 10,
            "time": 21.364276812499657,
            "value": 1
          },
          {
            "number": 10,
            "time": 21.385705374999656,
            "value": 0
          },
          {
            "number": 10,
            "time": 21.407133937499655,
            "value": 1
          },
          {
            "number": 10,
            "time": 21.428562499999654,
            "value": 0
          },
          {
            "number": 10,
            "time": 21.449991062499652,
            "value": 1
          },
          {
            "number": 10,
            "time": 21.47141962499965,
            "value": 0
          },
          {
            "number": 10,
            "time": 21.49284818749965,
            "value": 1
          },
          {
            "number": 10,
            "time": 21.51427674999965,
            "value": 0
          },
          {
            "number": 10,
            "time": 21.535705312499648,
            "value": 1
          },
          {
            "number": 10,
            "time": 21.557133874999646,
            "value": 0
          },
          {
            "number": 10,
            "time": 21.578562437499645,
            "value": 1
          },
          {
            "number": 10,
            "time": 21.599990999999644,
            "value": 0
          },
          {
            "number": 10,
            "time": 21.621419562499643,
            "value": 1
          },
          {
            "number": 10,
            "time": 21.64284812499964,
            "value": 0
          },
          {
            "number": 10,
            "time": 21.66427668749964,
            "value": 1
          },
          {
            "number": 10,
            "time": 21.68570524999964,
            "value": 0
          },
          {
            "number": 10,
            "time": 21.707133812499638,
            "value": 1
          },
          {
            "number": 10,
            "time": 21.728562374999637,
            "value": 0
          },
          {
            "number": 10,
            "time": 21.749990937499636,
            "value": 1
          },
          {
            "number": 10,
            "time": 21.771419499999634,
            "value": 0
          },
          {
            "number": 10,
            "time": 21.792848062499633,
            "value": 1
          },
          {
            "number": 10,
            "time": 21.814276624999632,
            "value": 0
          },
          {
            "number": 10,
            "time": 21.83570518749963,
            "value": 1
          },
          {
            "number": 10,
            "time": 21.85713374999963,
            "value": 0
          },
          {
            "number": 10,
            "time": 21.87856231249963,
            "value": 1
          },
          {
            "number": 10,
            "time": 21.899990874999627,
            "value": 0
          },
          {
            "number": 10,
            "time": 21.921419437499626,
            "value": 1
          },
          {
            "number": 10,
            "time": 21.942847999999625,
            "value": 0
          },
          {
            "number": 10,
            "time": 21.964276562499624,
            "value": 1
          },
          {
            "number": 10,
            "time": 21.985705124999622,
            "value": 0
          },
          {
            "number": 10,
            "time": 22.00713368749962,
            "value": 1
          },
          {
            "number": 10,
            "time": 22.02856224999962,
            "value": 0
          },
          {
            "number": 10,
            "time": 22.04999081249962,
            "value": 1
          },
          {
            "number": 10,
            "time": 22.071419374999618,
            "value": 0
          },
          {
            "number": 10,
            "time": 22.092847937499617,
            "value": 1
          },
          {
            "number": 10,
            "time": 22.114276499999615,
            "value": 0
          },
          {
            "number": 10,
            "time": 22.135705062499614,
            "value": 1
          },
          {
            "number": 10,
            "time": 22.157133624999613,
            "value": 0
          },
          {
            "number": 10,
            "time": 22.17856218749961,
            "value": 1
          },
          {
            "number": 10,
            "time": 22.19999074999961,
            "value": 0
          },
          {
            "number": 10,
            "time": 22.22141931249961,
            "value": 1
          },
          {
            "number": 10,
            "time": 22.242847874999608,
            "value": 0
          },
          {
            "number": 10,
            "time": 22.264276437499607,
            "value": 1
          },
          {
            "number": 10,
            "time": 22.285704999999606,
            "value": 0
          },
          {
            "number": 10,
            "time": 22.307133562499605,
            "value": 1
          },
          {
            "number": 10,
            "time": 22.328562124999603,
            "value": 0
          },
          {
            "number": 10,
            "time": 22.349990687499602,
            "value": 1
          },
          {
            "number": 10,
            "time": 22.3714192499996,
            "value": 0
          },
          {
            "number": 10,
            "time": 22.3928478124996,
            "value": 1
          },
          {
            "number": 10,
            "time": 22.4142763749996,
            "value": 0
          },
          {
            "number": 10,
            "time": 22.435704937499597,
            "value": 1
          },
          {
            "number": 10,
            "time": 22.457133499999596,
            "value": 0
          },
          {
            "number": 10,
            "time": 22.478562062499595,
            "value": 1
          },
          {
            "number": 10,
            "time": 22.499990624999594,
            "value": 0
          },
          {
            "number": 10,
            "time": 22.521419187499593,
            "value": 1
          },
          {
            "number": 10,
            "time": 22.54284774999959,
            "value": 0
          },
          {
            "number": 10,
            "time": 22.56427631249959,
            "value": 1
          },
          {
            "number": 10,
            "time": 22.58570487499959,
            "value": 0
          },
          {
            "number": 10,
            "time": 22.607133437499588,
            "value": 1
          },
          {
            "number": 10,
            "time": 22.628561999999587,
            "value": 0
          },
          {
            "number": 10,
            "time": 22.649990562499585,
            "value": 1
          },
          {
            "number": 10,
            "time": 22.671419124999584,
            "value": 0
          },
          {
            "number": 10,
            "time": 22.692847687499583,
            "value": 1
          },
          {
            "number": 10,
            "time": 22.714276249999582,
            "value": 0
          },
          {
            "number": 10,
            "time": 22.73570481249958,
            "value": 1
          },
          {
            "number": 10,
            "time": 22.75713337499958,
            "value": 0
          },
          {
            "number": 10,
            "time": 22.77856193749958,
            "value": 1
          },
          {
            "number": 10,
            "time": 22.799990499999577,
            "value": 0
          },
          {
            "number": 10,
            "time": 22.821419062499576,
            "value": 1
          },
          {
            "number": 10,
            "time": 22.842847624999575,
            "value": 0
          },
          {
            "number": 10,
            "time": 22.864276187499573,
            "value": 1
          },
          {
            "number": 10,
            "time": 22.885704749999572,
            "value": 0
          },
          {
            "number": 10,
            "time": 22.90713331249957,
            "value": 1
          },
          {
            "number": 10,
            "time": 22.92856187499957,
            "value": 0
          },
          {
            "number": 10,
            "time": 22.94999043749957,
            "value": 1
          },
          {
            "number": 10,
            "time": 22.971418999999567,
            "value": 0
          },
          {
            "number": 10,
            "time": 22.992847562499566,
            "value": 1
          },
          {
            "number": 10,
            "time": 23.014276124999565,
            "value": 0
          },
          {
            "number": 10,
            "time": 23.035704687499564,
            "value": 1
          },
          {
            "number": 10,
            "time": 23.057133249999563,
            "value": 0
          },
          {
            "number": 10,
            "time": 23.07856181249956,
            "value": 1
          },
          {
            "number": 10,
            "time": 23.09999037499956,
            "value": 0
          },
          {
            "number": 10,
            "time": 23.12141893749956,
            "value": 1
          },
          {
            "number": 10,
            "time": 23.142847499999558,
            "value": 0
          },
          {
            "number": 10,
            "time": 23.164276062499557,
            "value": 1
          },
          {
            "number": 10,
            "time": 23.185704624999556,
            "value": 0
          },
          {
            "number": 10,
            "time": 23.207133187499554,
            "value": 1
          },
          {
            "number": 10,
            "time": 23.228561749999553,
            "value": 0
          },
          {
            "number": 10,
            "time": 23.249990312499552,
            "value": 1
          },
          {
            "number": 10,
            "time": 23.27141887499955,
            "value": 0
          },
          {
            "number": 10,
            "time": 23.29284743749955,
            "value": 1
          },
          {
            "number": 10,
            "time": 23.31427599999955,
            "value": 0
          },
          {
            "number": 10,
            "time": 23.335704562499547,
            "value": 1
          },
          {
            "number": 10,
            "time": 23.357133124999546,
            "value": 0
          },
          {
            "number": 10,
            "time": 23.378561687499545,
            "value": 1
          },
          {
            "number": 10,
            "time": 23.399990249999544,
            "value": 0
          },
          {
            "number": 10,
            "time": 23.421418812499542,
            "value": 1
          },
          {
            "number": 10,
            "time": 23.44284737499954,
            "value": 0
          },
          {
            "number": 10,
            "time": 23.46427593749954,
            "value": 1
          },
          {
            "number": 10,
            "time": 23.48570449999954,
            "value": 0
          },
          {
            "number": 10,
            "time": 23.507133062499538,
            "value": 1
          },
          {
            "number": 10,
            "time": 23.528561624999536,
            "value": 0
          },
          {
            "number": 10,
            "time": 23.549990187499535,
            "value": 1
          },
          {
            "number": 10,
            "time": 23.571418749999534,
            "value": 0
          },
          {
            "number": 10,
            "time": 23.592847312499533,
            "value": 1
          },
          {
            "number": 10,
            "time": 23.61427587499953,
            "value": 0
          },
          {
            "number": 10,
            "time": 23.63570443749953,
            "value": 1
          },
          {
            "number": 10,
            "time": 23.65713299999953,
            "value": 0
          },
          {
            "number": 10,
            "time": 23.678561562499528,
            "value": 1
          },
          {
            "number": 10,
            "time": 23.699990124999527,
            "value": 0
          },
          {
            "number": 10,
            "time": 23.721418687499526,
            "value": 1
          },
          {
            "number": 10,
            "time": 23.742847249999524,
            "value": 0
          },
          {
            "number": 10,
            "time": 23.764275812499523,
            "value": 1
          },
          {
            "number": 10,
            "time": 23.785704374999522,
            "value": 0
          },
          {
            "number": 10,
            "time": 23.80713293749952,
            "value": 1
          },
          {
            "number": 10,
            "time": 23.82856149999952,
            "value": 0
          },
          {
            "number": 10,
            "time": 23.84999006249952,
            "value": 1
          },
          {
            "number": 10,
            "time": 23.871418624999517,
            "value": 0
          },
          {
            "number": 10,
            "time": 23.892847187499516,
            "value": 1
          },
          {
            "number": 10,
            "time": 23.914275749999515,
            "value": 0
          },
          {
            "number": 10,
            "time": 23.935704312499514,
            "value": 1
          },
          {
            "number": 10,
            "time": 23.957132874999512,
            "value": 0
          },
          {
            "number": 10,
            "time": 23.97856143749951,
            "value": 1
          },
          {
            "number": 10,
            "time": 23.99998999999951,
            "value": 0
          },
          {
            "number": 10,
            "time": 24.02141856249951,
            "value": 1
          },
          {
            "number": 10,
            "time": 24.042847124999508,
            "value": 0
          },
          {
            "number": 10,
            "time": 24.064275687499507,
            "value": 1
          },
          {
            "number": 10,
            "time": 24.085704249999505,
            "value": 0
          },
          {
            "number": 10,
            "time": 24.107132812499504,
            "value": 1
          },
          {
            "number": 10,
            "time": 24.128561374999503,
            "value": 0
          },
          {
            "number": 10,
            "time": 24.1499899374995,
            "value": 1
          },
          {
            "number": 10,
            "time": 24.1714184999995,
            "value": 0
          },
          {
            "number": 10,
            "time": 24.1928470624995,
            "value": 1
          },
          {
            "number": 10,
            "time": 24.214275624999498,
            "value": 0
          },
          {
            "number": 10,
            "time": 24.235704187499497,
            "value": 1
          },
          {
            "number": 10,
            "time": 24.257132749999496,
            "value": 0
          },
          {
            "number": 10,
            "time": 24.278561312499495,
            "value": 1
          },
          {
            "number": 10,
            "time": 24.299989874999493,
            "value": 0
          },
          {
            "number": 10,
            "time": 24.321418437499492,
            "value": 1
          },
          {
            "number": 10,
            "time": 24.34284699999949,
            "value": 0
          },
          {
            "number": 10,
            "time": 24.36427556249949,
            "value": 1
          },
          {
            "number": 10,
            "time": 24.38570412499949,
            "value": 0
          },
          {
            "number": 10,
            "time": 24.407132687499487,
            "value": 1
          },
          {
            "number": 10,
            "time": 24.428561249999486,
            "value": 0
          },
          {
            "number": 10,
            "time": 24.449989812499485,
            "value": 1
          },
          {
            "number": 10,
            "time": 24.471418374999484,
            "value": 0
          },
          {
            "number": 10,
            "time": 24.492846937499483,
            "value": 1
          },
          {
            "number": 10,
            "time": 24.51427549999948,
            "value": 0
          },
          {
            "number": 10,
            "time": 24.53570406249948,
            "value": 1
          },
          {
            "number": 10,
            "time": 24.55713262499948,
            "value": 0
          },
          {
            "number": 10,
            "time": 24.578561187499478,
            "value": 1
          },
          {
            "number": 10,
            "time": 24.599989749999477,
            "value": 0
          },
          {
            "number": 10,
            "time": 24.621418312499475,
            "value": 1
          },
          {
            "number": 10,
            "time": 24.642846874999474,
            "value": 0
          },
          {
            "number": 10,
            "time": 24.664275437499473,
            "value": 1
          },
          {
            "number": 10,
            "time": 24.685703999999472,
            "value": 0
          },
          {
            "number": 10,
            "time": 24.70713256249947,
            "value": 1
          },
          {
            "number": 10,
            "time": 24.72856112499947,
            "value": 0
          },
          {
            "number": 10,
            "time": 24.74998968749947,
            "value": 1
          },
          {
            "number": 10,
            "time": 24.771418249999467,
            "value": 0
          },
          {
            "number": 10,
            "time": 24.792846812499466,
            "value": 1
          },
          {
            "number": 10,
            "time": 24.814275374999465,
            "value": 0
          },
          {
            "number": 10,
            "time": 24.835703937499463,
            "value": 1
          },
          {
            "number": 10,
            "time": 24.857132499999462,
            "value": 0
          },
          {
            "number": 10,
            "time": 24.87856106249946,
            "value": 1
          },
          {
            "number": 10,
            "time": 24.89998962499946,
            "value": 0
          },
          {
            "number": 10,
            "time": 24.92141818749946,
            "value": 1
          },
          {
            "number": 10,
            "time": 24.942846749999458,
            "value": 0
          },
          {
            "number": 10,
            "time": 24.964275312499456,
            "value": 1
          },
          {
            "number": 10,
            "time": 24.985703874999455,
            "value": 0
          },
          {
            "number": 10,
            "time": 25.007132437499454,
            "value": 1
          },
          {
            "number": 10,
            "time": 25.028560999999453,
            "value": 0
          },
          {
            "number": 10,
            "time": 25.04998956249945,
            "value": 1
          },
          {
            "number": 10,
            "time": 25.07141812499945,
            "value": 0
          },
          {
            "number": 10,
            "time": 25.09284668749945,
            "value": 1
          },
          {
            "number": 10,
            "time": 25.114275249999448,
            "value": 0
          },
          {
            "number": 10,
            "time": 25.135703812499447,
            "value": 1
          },
          {
            "number": 10,
            "time": 25.157132374999446,
            "value": 0
          },
          {
            "number": 10,
            "time": 25.178560937499444,
            "value": 1
          },
          {
            "number": 10,
            "time": 25.199989499999443,
            "value": 0
          },
          {
            "number": 10,
            "time": 25.221418062499442,
            "value": 1
          },
          {
            "number": 10,
            "time": 25.24284662499944,
            "value": 0
          },
          {
            "number": 10,
            "time": 25.26427518749944,
            "value": 1
          },
          {
            "number": 10,
            "time": 25.28570374999944,
            "value": 0
          },
          {
            "number": 10,
            "time": 25.307132312499437,
            "value": 1
          },
          {
            "number": 10,
            "time": 25.328560874999436,
            "value": 0
          },
          {
            "number": 10,
            "time": 25.349989437499435,
            "value": 1
          },
          {
            "number": 10,
            "time": 25.371417999999434,
            "value": 0
          },
          {
            "number": 10,
            "time": 25.392846562499432,
            "value": 1
          },
          {
            "number": 10,
            "time": 25.41427512499943,
            "value": 0
          },
          {
            "number": 10,
            "time": 25.43570368749943,
            "value": 1
          },
          {
            "number": 10,
            "time": 25.45713224999943,
            "value": 0
          },
          {
            "number": 10,
            "time": 25.478560812499428,
            "value": 1
          },
          {
            "number": 10,
            "time": 25.499989374999426,
            "value": 0
          },
          {
            "number": 10,
            "time": 25.521417937499425,
            "value": 1
          },
          {
            "number": 10,
            "time": 25.542846499999424,
            "value": 0
          },
          {
            "number": 10,
            "time": 25.564275062499423,
            "value": 1
          },
          {
            "number": 10,
            "time": 25.58570362499942,
            "value": 0
          },
          {
            "number": 10,
            "time": 25.60713218749942,
            "value": 1
          },
          {
            "number": 10,
            "time": 25.62856074999942,
            "value": 0
          },
          {
            "number": 10,
            "time": 25.649989312499418,
            "value": 1
          },
          {
            "number": 10,
            "time": 25.671417874999417,
            "value": 0
          },
          {
            "number": 10,
            "time": 25.692846437499416,
            "value": 1
          },
          {
            "number": 10,
            "time": 25.714274999999414,
            "value": 0
          },
          {
            "number": 10,
            "time": 25.735703562499413,
            "value": 1
          },
          {
            "number": 10,
            "time": 25.757132124999412,
            "value": 0
          },
          {
            "number": 10,
            "time": 25.77856068749941,
            "value": 1
          },
          {
            "number": 10,
            "time": 25.79998924999941,
            "value": 0
          },
          {
            "number": 10,
            "time": 25.82141781249941,
            "value": 1
          },
          {
            "number": 10,
            "time": 25.842846374999407,
            "value": 0
          },
          {
            "number": 10,
            "time": 25.864274937499406,
            "value": 1
          },
          {
            "number": 10,
            "time": 25.885703499999405,
            "value": 0
          },
          {
            "number": 10,
            "time": 25.907132062499404,
            "value": 1
          },
          {
            "number": 10,
            "time": 25.928560624999403,
            "value": 0
          },
          {
            "number": 10,
            "time": 25.9499891874994,
            "value": 1
          },
          {
            "number": 10,
            "time": 25.9714177499994,
            "value": 0
          },
          {
            "number": 10,
            "time": 25.9928463124994,
            "value": 1
          },
          {
            "number": 10,
            "time": 26.014274874999398,
            "value": 0
          },
          {
            "number": 10,
            "time": 26.035703437499397,
            "value": 1
          },
          {
            "number": 10,
            "time": 26.057131999999395,
            "value": 0
          },
          {
            "number": 10,
            "time": 26.078560562499394,
            "value": 1
          },
          {
            "number": 10,
            "time": 26.099989124999393,
            "value": 0
          },
          {
            "number": 10,
            "time": 26.12141768749939,
            "value": 1
          },
          {
            "number": 10,
            "time": 26.14284624999939,
            "value": 0
          },
          {
            "number": 10,
            "time": 26.16427481249939,
            "value": 1
          },
          {
            "number": 10,
            "time": 26.185703374999388,
            "value": 0
          },
          {
            "number": 10,
            "time": 26.207131937499387,
            "value": 1
          },
          {
            "number": 10,
            "time": 26.228560499999386,
            "value": 0
          },
          {
            "number": 10,
            "time": 26.249989062499385,
            "value": 1
          },
          {
            "number": 10,
            "time": 26.271417624999383,
            "value": 0
          },
          {
            "number": 10,
            "time": 26.292846187499382,
            "value": 1
          },
          {
            "number": 10,
            "time": 26.31427474999938,
            "value": 0
          },
          {
            "number": 10,
            "time": 26.33570331249938,
            "value": 1
          },
          {
            "number": 10,
            "time": 26.35713187499938,
            "value": 0
          },
          {
            "number": 10,
            "time": 26.378560437499377,
            "value": 1
          },
          {
            "number": 10,
            "time": 26.399988999999376,
            "value": 0
          },
          {
            "number": 10,
            "time": 26.421417562499375,
            "value": 1
          },
          {
            "number": 10,
            "time": 26.442846124999374,
            "value": 0
          },
          {
            "number": 10,
            "time": 26.464274687499373,
            "value": 1
          },
          {
            "number": 10,
            "time": 26.48570324999937,
            "value": 0
          },
          {
            "number": 10,
            "time": 26.50713181249937,
            "value": 1
          },
          {
            "number": 10,
            "time": 26.52856037499937,
            "value": 0
          },
          {
            "number": 10,
            "time": 26.549988937499368,
            "value": 1
          },
          {
            "number": 10,
            "time": 26.571417499999367,
            "value": 0
          },
          {
            "number": 10,
            "time": 26.592846062499365,
            "value": 1
          },
          {
            "number": 10,
            "time": 26.614274624999364,
            "value": 0
          },
          {
            "number": 10,
            "time": 26.635703187499363,
            "value": 1
          },
          {
            "number": 10,
            "time": 26.657131749999362,
            "value": 0
          },
          {
            "number": 10,
            "time": 26.67856031249936,
            "value": 1
          },
          {
            "number": 10,
            "time": 26.69998887499936,
            "value": 0
          },
          {
            "number": 10,
            "time": 26.72141743749936,
            "value": 1
          },
          {
            "number": 10,
            "time": 26.742845999999357,
            "value": 0
          },
          {
            "number": 10,
            "time": 26.764274562499356,
            "value": 1
          },
          {
            "number": 10,
            "time": 26.785703124999355,
            "value": 0
          },
          {
            "number": 10,
            "time": 26.807131687499353,
            "value": 1
          },
          {
            "number": 10,
            "time": 26.828560249999352,
            "value": 0
          },
          {
            "number": 10,
            "time": 26.84998881249935,
            "value": 1
          },
          {
            "number": 10,
            "time": 26.87141737499935,
            "value": 0
          },
          {
            "number": 10,
            "time": 26.89284593749935,
            "value": 1
          },
          {
            "number": 10,
            "time": 26.914274499999348,
            "value": 0
          },
          {
            "number": 10,
            "time": 26.935703062499346,
            "value": 1
          },
          {
            "number": 10,
            "time": 26.957131624999345,
            "value": 0
          },
          {
            "number": 10,
            "time": 26.978560187499344,
            "value": 1
          },
          {
            "number": 10,
            "time": 26.999988749999343,
            "value": 0
          },
          {
            "number": 10,
            "time": 27.02141731249934,
            "value": 1
          },
          {
            "number": 10,
            "time": 27.04284587499934,
            "value": 0
          },
          {
            "number": 10,
            "time": 27.06427443749934,
            "value": 1
          },
          {
            "number": 10,
            "time": 27.085702999999338,
            "value": 0
          },
          {
            "number": 10,
            "time": 27.107131562499337,
            "value": 1
          },
          {
            "number": 10,
            "time": 27.128560124999336,
            "value": 0
          },
          {
            "number": 10,
            "time": 27.149988687499334,
            "value": 1
          },
          {
            "number": 10,
            "time": 27.171417249999333,
            "value": 0
          },
          {
            "number": 10,
            "time": 27.192845812499332,
            "value": 1
          },
          {
            "number": 10,
            "time": 27.21427437499933,
            "value": 0
          },
          {
            "number": 10,
            "time": 27.23570293749933,
            "value": 1
          },
          {
            "number": 10,
            "time": 27.25713149999933,
            "value": 0
          },
          {
            "number": 10,
            "time": 27.278560062499327,
            "value": 1
          },
          {
            "number": 10,
            "time": 27.299988624999326,
            "value": 0
          },
          {
            "number": 10,
            "time": 27.321417187499325,
            "value": 1
          },
          {
            "number": 10,
            "time": 27.342845749999324,
            "value": 0
          },
          {
            "number": 10,
            "time": 27.364274312499322,
            "value": 1
          },
          {
            "number": 10,
            "time": 27.38570287499932,
            "value": 0
          },
          {
            "number": 10,
            "time": 27.40713143749932,
            "value": 1
          },
          {
            "number": 10,
            "time": 27.42855999999932,
            "value": 0
          },
          {
            "number": 10,
            "time": 27.449988562499318,
            "value": 1
          },
          {
            "number": 10,
            "time": 27.471417124999316,
            "value": 0
          },
          {
            "number": 10,
            "time": 27.492845687499315,
            "value": 1
          },
          {
            "number": 10,
            "time": 27.514274249999314,
            "value": 0
          },
          {
            "number": 10,
            "time": 27.535702812499313,
            "value": 1
          },
          {
            "number": 10,
            "time": 27.55713137499931,
            "value": 0
          },
          {
            "number": 10,
            "time": 27.57855993749931,
            "value": 1
          },
          {
            "number": 10,
            "time": 27.59998849999931,
            "value": 0
          },
          {
            "number": 10,
            "time": 27.621417062499308,
            "value": 1
          },
          {
            "number": 10,
            "time": 27.642845624999307,
            "value": 0
          },
          {
            "number": 10,
            "time": 27.664274187499306,
            "value": 1
          },
          {
            "number": 10,
            "time": 27.685702749999304,
            "value": 0
          },
          {
            "number": 10,
            "time": 27.707131312499303,
            "value": 1
          },
          {
            "number": 10,
            "time": 27.728559874999302,
            "value": 0
          },
          {
            "number": 10,
            "time": 27.7499884374993,
            "value": 1
          },
          {
            "number": 10,
            "time": 27.7714169999993,
            "value": 0
          },
          {
            "number": 10,
            "time": 27.7928455624993,
            "value": 1
          },
          {
            "number": 10,
            "time": 27.814274124999297,
            "value": 0
          },
          {
            "number": 10,
            "time": 27.835702687499296,
            "value": 1
          },
          {
            "number": 10,
            "time": 27.857131249999295,
            "value": 0
          },
          {
            "number": 10,
            "time": 27.878559812499294,
            "value": 1
          },
          {
            "number": 10,
            "time": 27.899988374999293,
            "value": 0
          },
          {
            "number": 10,
            "time": 27.92141693749929,
            "value": 1
          },
          {
            "number": 10,
            "time": 27.94284549999929,
            "value": 0
          },
          {
            "number": 10,
            "time": 27.96427406249929,
            "value": 1
          },
          {
            "number": 10,
            "time": 27.985702624999288,
            "value": 0
          },
          {
            "number": 10,
            "time": 28.007131187499287,
            "value": 1
          },
          {
            "number": 10,
            "time": 28.028559749999285,
            "value": 0
          },
          {
            "number": 10,
            "time": 28.049988312499284,
            "value": 1
          },
          {
            "number": 10,
            "time": 28.071416874999283,
            "value": 0
          },
          {
            "number": 10,
            "time": 28.09284543749928,
            "value": 1
          },
          {
            "number": 10,
            "time": 28.11427399999928,
            "value": 0
          },
          {
            "number": 10,
            "time": 28.13570256249928,
            "value": 1
          },
          {
            "number": 10,
            "time": 28.157131124999278,
            "value": 0
          },
          {
            "number": 10,
            "time": 28.178559687499277,
            "value": 1
          },
          {
            "number": 10,
            "time": 28.199988249999276,
            "value": 0
          },
          {
            "number": 10,
            "time": 28.221416812499275,
            "value": 1
          },
          {
            "number": 10,
            "time": 28.242845374999273,
            "value": 0
          },
          {
            "number": 10,
            "time": 28.264273937499272,
            "value": 1
          },
          {
            "number": 10,
            "time": 28.28570249999927,
            "value": 0
          },
          {
            "number": 10,
            "time": 28.30713106249927,
            "value": 1
          },
          {
            "number": 10,
            "time": 28.32855962499927,
            "value": 0
          },
          {
            "number": 10,
            "time": 28.349988187499267,
            "value": 1
          },
          {
            "number": 10,
            "time": 28.371416749999266,
            "value": 0
          },
          {
            "number": 10,
            "time": 28.392845312499265,
            "value": 1
          },
          {
            "number": 10,
            "time": 28.414273874999264,
            "value": 0
          },
          {
            "number": 10,
            "time": 28.435702437499263,
            "value": 1
          },
          {
            "number": 10,
            "time": 28.45713099999926,
            "value": 0
          },
          {
            "number": 10,
            "time": 28.47855956249926,
            "value": 1
          },
          {
            "number": 10,
            "time": 28.49998812499926,
            "value": 0
          },
          {
            "number": 10,
            "time": 28.521416687499258,
            "value": 1
          },
          {
            "number": 10,
            "time": 28.542845249999257,
            "value": 0
          },
          {
            "number": 10,
            "time": 28.564273812499255,
            "value": 1
          },
          {
            "number": 10,
            "time": 28.585702374999254,
            "value": 0
          },
          {
            "number": 10,
            "time": 28.607130937499253,
            "value": 1
          },
          {
            "number": 10,
            "time": 28.628559499999252,
            "value": 0
          },
          {
            "number": 10,
            "time": 28.64998806249925,
            "value": 1
          },
          {
            "number": 10,
            "time": 28.67141662499925,
            "value": 0
          },
          {
            "number": 10,
            "time": 28.69284518749925,
            "value": 1
          },
          {
            "number": 10,
            "time": 28.714273749999247,
            "value": 0
          },
          {
            "number": 10,
            "time": 28.735702312499246,
            "value": 1
          },
          {
            "number": 10,
            "time": 28.757130874999245,
            "value": 0
          },
          {
            "number": 10,
            "time": 28.778559437499244,
            "value": 1
          },
          {
            "number": 10,
            "time": 28.799987999999242,
            "value": 0
          },
          {
            "number": 10,
            "time": 28.82141656249924,
            "value": 1
          },
          {
            "number": 10,
            "time": 28.84284512499924,
            "value": 0
          },
          {
            "number": 10,
            "time": 28.86427368749924,
            "value": 1
          },
          {
            "number": 10,
            "time": 28.885702249999238,
            "value": 0
          },
          {
            "number": 10,
            "time": 28.907130812499236,
            "value": 1
          },
          {
            "number": 10,
            "time": 28.928559374999235,
            "value": 0
          },
          {
            "number": 10,
            "time": 28.949987937499234,
            "value": 1
          },
          {
            "number": 10,
            "time": 28.971416499999233,
            "value": 0
          },
          {
            "number": 10,
            "time": 28.99284506249923,
            "value": 1
          },
          {
            "number": 10,
            "time": 29.01427362499923,
            "value": 0
          },
          {
            "number": 10,
            "time": 29.03570218749923,
            "value": 1
          },
          {
            "number": 10,
            "time": 29.057130749999228,
            "value": 0
          },
          {
            "number": 10,
            "time": 29.078559312499227,
            "value": 1
          },
          {
            "number": 10,
            "time": 29.099987874999226,
            "value": 0
          },
          {
            "number": 10,
            "time": 29.121416437499224,
            "value": 1
          },
          {
            "number": 10,
            "time": 29.142844999999223,
            "value": 0
          },
          {
            "number": 10,
            "time": 29.164273562499222,
            "value": 1
          },
          {
            "number": 10,
            "time": 29.18570212499922,
            "value": 0
          },
          {
            "number": 10,
            "time": 29.20713068749922,
            "value": 1
          },
          {
            "number": 10,
            "time": 29.22855924999922,
            "value": 0
          },
          {
            "number": 10,
            "time": 29.249987812499217,
            "value": 1
          },
          {
            "number": 10,
            "time": 29.271416374999216,
            "value": 0
          },
          {
            "number": 10,
            "time": 29.292844937499215,
            "value": 1
          },
          {
            "number": 10,
            "time": 29.314273499999214,
            "value": 0
          },
          {
            "number": 10,
            "time": 29.335702062499212,
            "value": 1
          },
          {
            "number": 10,
            "time": 29.35713062499921,
            "value": 0
          },
          {
            "number": 10,
            "time": 29.37855918749921,
            "value": 1
          },
          {
            "number": 10,
            "time": 29.39998774999921,
            "value": 0
          },
          {
            "number": 10,
            "time": 29.421416312499208,
            "value": 1
          },
          {
            "number": 10,
            "time": 29.442844874999206,
            "value": 0
          },
          {
            "number": 10,
            "time": 29.464273437499205,
            "value": 1
          },
          {
            "number": 10,
            "time": 29.485701999999204,
            "value": 0
          },
          {
            "number": 10,
            "time": 29.507130562499203,
            "value": 1
          },
          {
            "number": 10,
            "time": 29.5285591249992,
            "value": 0
          },
          {
            "number": 10,
            "time": 29.5499876874992,
            "value": 1
          },
          {
            "number": 10,
            "time": 29.5714162499992,
            "value": 0
          },
          {
            "number": 10,
            "time": 29.592844812499198,
            "value": 1
          },
          {
            "number": 10,
            "time": 29.614273374999197,
            "value": 0
          },
          {
            "number": 10,
            "time": 29.635701937499196,
            "value": 1
          },
          {
            "number": 10,
            "time": 29.657130499999194,
            "value": 0
          },
          {
            "number": 10,
            "time": 29.678559062499193,
            "value": 1
          },
          {
            "number": 10,
            "time": 29.699987624999192,
            "value": 0
          },
          {
            "number": 10,
            "time": 29.72141618749919,
            "value": 1
          },
          {
            "number": 10,
            "time": 29.74284474999919,
            "value": 0
          },
          {
            "number": 10,
            "time": 29.76427331249919,
            "value": 1
          },
          {
            "number": 10,
            "time": 29.785701874999187,
            "value": 0
          },
          {
            "number": 10,
            "time": 29.807130437499186,
            "value": 1
          },
          {
            "number": 10,
            "time": 29.828558999999185,
            "value": 0
          },
          {
            "number": 10,
            "time": 29.849987562499184,
            "value": 1
          },
          {
            "number": 10,
            "time": 29.871416124999183,
            "value": 0
          },
          {
            "number": 10,
            "time": 29.89284468749918,
            "value": 1
          },
          {
            "number": 10,
            "time": 29.91427324999918,
            "value": 0
          },
          {
            "number": 10,
            "time": 29.93570181249918,
            "value": 1
          },
          {
            "number": 10,
            "time": 29.957130374999178,
            "value": 0
          },
          {
            "number": 10,
            "time": 29.978558937499177,
            "value": 1
          },
          {
            "number": 10,
            "time": 29.999987499999175,
            "value": 0
          },
          {
            "number": 10,
            "time": 30.021416062499174,
            "value": 1
          },
          {
            "number": 10,
            "time": 30.042844624999173,
            "value": 0
          },
          {
            "number": 10,
            "time": 30.06427318749917,
            "value": 1
          },
          {
            "number": 10,
            "time": 30.08570174999917,
            "value": 0
          },
          {
            "number": 10,
            "time": 30.10713031249917,
            "value": 1
          },
          {
            "number": 10,
            "time": 30.128558874999168,
            "value": 0
          },
          {
            "number": 10,
            "time": 30.149987437499167,
            "value": 1
          },
          {
            "number": 10,
            "time": 30.171415999999166,
            "value": 0
          },
          {
            "number": 10,
            "time": 30.192844562499165,
            "value": 1
          },
          {
            "number": 10,
            "time": 30.214273124999163,
            "value": 0
          },
          {
            "number": 10,
            "time": 30.235701687499162,
            "value": 1
          },
          {
            "number": 10,
            "time": 30.25713024999916,
            "value": 0
          },
          {
            "number": 10,
            "time": 30.27855881249916,
            "value": 1
          },
          {
            "number": 10,
            "time": 30.29998737499916,
            "value": 0
          },
          {
            "number": 10,
            "time": 30.321415937499157,
            "value": 1
          },
          {
            "number": 10,
            "time": 30.342844499999156,
            "value": 0
          },
          {
            "number": 10,
            "time": 30.364273062499155,
            "value": 1
          },
          {
            "number": 10,
            "time": 30.385701624999154,
            "value": 0
          },
          {
            "number": 10,
            "time": 30.407130187499153,
            "value": 1
          },
          {
            "number": 10,
            "time": 30.42855874999915,
            "value": 0
          },
          {
            "number": 10,
            "time": 30.44998731249915,
            "value": 1
          },
          {
            "number": 10,
            "time": 30.47141587499915,
            "value": 0
          },
          {
            "number": 10,
            "time": 30.492844437499148,
            "value": 1
          },
          {
            "number": 10,
            "time": 30.514272999999147,
            "value": 0
          },
          {
            "number": 10,
            "time": 30.535701562499145,
            "value": 1
          },
          {
            "number": 10,
            "time": 30.557130124999144,
            "value": 0
          },
          {
            "number": 10,
            "time": 30.578558687499143,
            "value": 1
          },
          {
            "number": 10,
            "time": 30.599987249999142,
            "value": 0
          },
          {
            "number": 10,
            "time": 30.62141581249914,
            "value": 1
          },
          {
            "number": 10,
            "time": 30.64284437499914,
            "value": 0
          },
          {
            "number": 10,
            "time": 30.66427293749914,
            "value": 1
          },
          {
            "number": 10,
            "time": 30.685701499999137,
            "value": 0
          },
          {
            "number": 10,
            "time": 30.707130062499136,
            "value": 1
          },
          {
            "number": 10,
            "time": 30.728558624999135,
            "value": 0
          },
          {
            "number": 10,
            "time": 30.749987187499134,
            "value": 1
          },
          {
            "number": 10,
            "time": 30.771415749999132,
            "value": 0
          },
          {
            "number": 10,
            "time": 30.79284431249913,
            "value": 1
          },
          {
            "number": 10,
            "time": 30.81427287499913,
            "value": 0
          },
          {
            "number": 10,
            "time": 30.83570143749913,
            "value": 1
          },
          {
            "number": 10,
            "time": 30.857129999999128,
            "value": 0
          },
          {
            "number": 10,
            "time": 30.878558562499126,
            "value": 1
          },
          {
            "number": 10,
            "time": 30.899987124999125,
            "value": 0
          },
          {
            "number": 10,
            "time": 30.921415687499124,
            "value": 1
          },
          {
            "number": 10,
            "time": 30.942844249999123,
            "value": 0
          },
          {
            "number": 10,
            "time": 30.96427281249912,
            "value": 1
          },
          {
            "number": 10,
            "time": 30.98570137499912,
            "value": 0
          },
          {
            "number": 10,
            "time": 31.00712993749912,
            "value": 1
          },
          {
            "number": 10,
            "time": 31.028558499999118,
            "value": 0
          },
          {
            "number": 10,
            "time": 31.049987062499117,
            "value": 1
          },
          {
            "number": 10,
            "time": 31.071415624999116,
            "value": 0
          },
          {
            "number": 10,
            "time": 31.092844187499114,
            "value": 1
          },
          {
            "number": 10,
            "time": 31.114272749999113,
            "value": 0
          },
          {
            "number": 10,
            "time": 31.135701312499112,
            "value": 1
          },
          {
            "number": 10,
            "time": 31.15712987499911,
            "value": 0
          },
          {
            "number": 10,
            "time": 31.17855843749911,
            "value": 1
          },
          {
            "number": 10,
            "time": 31.19998699999911,
            "value": 0
          },
          {
            "number": 10,
            "time": 31.221415562499107,
            "value": 1
          },
          {
            "number": 10,
            "time": 31.242844124999106,
            "value": 0
          },
          {
            "number": 10,
            "time": 31.264272687499105,
            "value": 1
          },
          {
            "number": 10,
            "time": 31.285701249999104,
            "value": 0
          },
          {
            "number": 10,
            "time": 31.307129812499102,
            "value": 1
          },
          {
            "number": 10,
            "time": 31.3285583749991,
            "value": 0
          },
          {
            "number": 10,
            "time": 31.3499869374991,
            "value": 1
          },
          {
            "number": 10,
            "time": 31.3714154999991,
            "value": 0
          },
          {
            "number": 10,
            "time": 31.392844062499098,
            "value": 1
          },
          {
            "number": 10,
            "time": 31.414272624999096,
            "value": 0
          },
          {
            "number": 10,
            "time": 31.435701187499095,
            "value": 1
          },
          {
            "number": 10,
            "time": 31.457129749999094,
            "value": 0
          },
          {
            "number": 10,
            "time": 31.478558312499093,
            "value": 1
          },
          {
            "number": 10,
            "time": 31.49998687499909,
            "value": 0
          },
          {
            "number": 10,
            "time": 31.52141543749909,
            "value": 1
          },
          {
            "number": 10,
            "time": 31.54284399999909,
            "value": 0
          },
          {
            "number": 10,
            "time": 31.564272562499088,
            "value": 1
          },
          {
            "number": 10,
            "time": 31.585701124999087,
            "value": 0
          },
          {
            "number": 10,
            "time": 31.607129687499086,
            "value": 1
          },
          {
            "number": 10,
            "time": 31.628558249999084,
            "value": 0
          },
          {
            "number": 10,
            "time": 31.649986812499083,
            "value": 1
          },
          {
            "number": 10,
            "time": 31.671415374999082,
            "value": 0
          },
          {
            "number": 10,
            "time": 31.69284393749908,
            "value": 1
          },
          {
            "number": 10,
            "time": 31.71427249999908,
            "value": 0
          },
          {
            "number": 10,
            "time": 31.73570106249908,
            "value": 1
          },
          {
            "number": 10,
            "time": 31.757129624999077,
            "value": 0
          },
          {
            "number": 10,
            "time": 31.778558187499076,
            "value": 1
          },
          {
            "number": 10,
            "time": 31.799986749999075,
            "value": 0
          },
          {
            "number": 10,
            "time": 31.821415312499074,
            "value": 1
          },
          {
            "number": 10,
            "time": 31.842843874999073,
            "value": 0
          },
          {
            "number": 10,
            "time": 31.86427243749907,
            "value": 1
          },
          {
            "number": 10,
            "time": 31.88570099999907,
            "value": 0
          },
          {
            "number": 10,
            "time": 31.90712956249907,
            "value": 1
          },
          {
            "number": 10,
            "time": 31.928558124999068,
            "value": 0
          },
          {
            "number": 10,
            "time": 31.949986687499067,
            "value": 1
          },
          {
            "number": 10,
            "time": 31.971415249999065,
            "value": 0
          },
          {
            "number": 10,
            "time": 31.992843812499064,
            "value": 1
          },
          {
            "number": 10,
            "time": 32.01427237499907,
            "value": 0
          },
          {
            "number": 10,
            "time": 32.035700937499065,
            "value": 1
          },
          {
            "number": 10,
            "time": 32.057129499999064,
            "value": 0
          },
          {
            "number": 10,
            "time": 32.07855806249906,
            "value": 1
          },
          {
            "number": 10,
            "time": 32.09998662499906,
            "value": 0
          },
          {
            "number": 10,
            "time": 32.12141518749906,
            "value": 1
          },
          {
            "number": 10,
            "time": 32.14284374999906,
            "value": 0
          },
          {
            "number": 10,
            "time": 32.16427231249906,
            "value": 1
          },
          {
            "number": 10,
            "time": 32.18570087499906,
            "value": 0
          },
          {
            "number": 10,
            "time": 32.207129437499056,
            "value": 1
          },
          {
            "number": 10,
            "time": 32.228557999999055,
            "value": 0
          },
          {
            "number": 10,
            "time": 32.24998656249905,
            "value": 1
          },
          {
            "number": 10,
            "time": 32.27141512499905,
            "value": 0
          },
          {
            "number": 10,
            "time": 32.29284368749905,
            "value": 1
          },
          {
            "number": 10,
            "time": 32.31427224999905,
            "value": 0
          },
          {
            "number": 10,
            "time": 32.33570081249905,
            "value": 1
          },
          {
            "number": 10,
            "time": 32.35712937499905,
            "value": 0
          },
          {
            "number": 10,
            "time": 32.378557937499046,
            "value": 1
          },
          {
            "number": 10,
            "time": 32.399986499999045,
            "value": 0
          },
          {
            "number": 10,
            "time": 32.421415062499044,
            "value": 1
          },
          {
            "number": 10,
            "time": 32.44284362499904,
            "value": 0
          },
          {
            "number": 10,
            "time": 32.46427218749904,
            "value": 1
          },
          {
            "number": 10,
            "time": 32.48570074999904,
            "value": 0
          },
          {
            "number": 10,
            "time": 32.50712931249904,
            "value": 1
          },
          {
            "number": 10,
            "time": 32.52855787499904,
            "value": 0
          },
          {
            "number": 10,
            "time": 32.54998643749904,
            "value": 1
          },
          {
            "number": 10,
            "time": 32.571414999999035,
            "value": 0
          },
          {
            "number": 10,
            "time": 32.592843562499034,
            "value": 1
          },
          {
            "number": 10,
            "time": 32.61427212499903,
            "value": 0
          },
          {
            "number": 10,
            "time": 32.63570068749903,
            "value": 1
          },
          {
            "number": 10,
            "time": 32.65712924999903,
            "value": 0
          },
          {
            "number": 10,
            "time": 32.67855781249903,
            "value": 1
          },
          {
            "number": 10,
            "time": 32.69998637499903,
            "value": 0
          },
          {
            "number": 10,
            "time": 32.72141493749903,
            "value": 1
          },
          {
            "number": 10,
            "time": 32.742843499999026,
            "value": 0
          },
          {
            "number": 10,
            "time": 32.764272062499025,
            "value": 1
          },
          {
            "number": 10,
            "time": 32.78570062499902,
            "value": 0
          },
          {
            "number": 10,
            "time": 32.80712918749902,
            "value": 1
          },
          {
            "number": 10,
            "time": 32.82855774999902,
            "value": 0
          },
          {
            "number": 10,
            "time": 32.84998631249902,
            "value": 1
          },
          {
            "number": 10,
            "time": 32.87141487499902,
            "value": 0
          },
          {
            "number": 10,
            "time": 32.89284343749902,
            "value": 1
          },
          {
            "number": 10,
            "time": 32.914271999999016,
            "value": 0
          },
          {
            "number": 10,
            "time": 32.935700562499015,
            "value": 1
          },
          {
            "number": 10,
            "time": 32.957129124999014,
            "value": 0
          },
          {
            "number": 10,
            "time": 32.97855768749901,
            "value": 1
          },
          {
            "number": 10,
            "time": 32.99998624999901,
            "value": 0
          },
          {
            "number": 10,
            "time": 33.02141481249902,
            "value": 1
          },
          {
            "number": 10,
            "time": 33.04284337499902,
            "value": 0
          },
          {
            "number": 10,
            "time": 33.06427193749903,
            "value": 1
          },
          {
            "number": 10,
            "time": 33.085700499999035,
            "value": 0
          },
          {
            "number": 10,
            "time": 33.10712906249904,
            "value": 1
          },
          {
            "number": 10,
            "time": 33.12855762499905,
            "value": 0
          },
          {
            "number": 10,
            "time": 33.14998618749905,
            "value": 1
          },
          {
            "number": 10,
            "time": 33.17141474999906,
            "value": 0
          },
          {
            "number": 10,
            "time": 33.192843312499065,
            "value": 1
          },
          {
            "number": 10,
            "time": 33.21427187499907,
            "value": 0
          },
          {
            "number": 10,
            "time": 33.23570043749908,
            "value": 1
          },
          {
            "number": 10,
            "time": 33.25712899999908,
            "value": 0
          },
          {
            "number": 10,
            "time": 33.27855756249908,
            "value": 1
          },
          {
            "number": 10,
            "time": 33.29998612499908,
            "value": 0
          },
          {
            "number": 10,
            "time": 33.32141468749908,
            "value": 1
          },
          {
            "number": 10,
            "time": 33.34284324999908,
            "value": 0
          },
          {
            "number": 10,
            "time": 33.36427181249908,
            "value": 1
          },
          {
            "number": 10,
            "time": 33.385700374999075,
            "value": 0
          },
          {
            "number": 10,
            "time": 33.407128937499074,
            "value": 1
          },
          {
            "number": 10,
            "time": 33.42855749999907,
            "value": 0
          },
          {
            "number": 10,
            "time": 33.44998606249907,
            "value": 1
          },
          {
            "number": 10,
            "time": 33.47141462499907,
            "value": 0
          },
          {
            "number": 10,
            "time": 33.49284318749907,
            "value": 1
          },
          {
            "number": 10,
            "time": 33.51427174999907,
            "value": 0
          },
          {
            "number": 10,
            "time": 33.53570031249907,
            "value": 1
          },
          {
            "number": 10,
            "time": 33.557128874999066,
            "value": 0
          },
          {
            "number": 10,
            "time": 33.578557437499065,
            "value": 1
          },
          {
            "number": 10,
            "time": 33.59998599999906,
            "value": 0
          },
          {
            "number": 10,
            "time": 33.62141456249906,
            "value": 1
          },
          {
            "number": 10,
            "time": 33.64284312499906,
            "value": 0
          },
          {
            "number": 10,
            "time": 33.66427168749906,
            "value": 1
          },
          {
            "number": 10,
            "time": 33.68570024999906,
            "value": 0
          },
          {
            "number": 10,
            "time": 33.70712881249906,
            "value": 1
          },
          {
            "number": 10,
            "time": 33.728557374999056,
            "value": 0
          },
          {
            "number": 10,
            "time": 33.749985937499055,
            "value": 1
          },
          {
            "number": 10,
            "time": 33.771414499999054,
            "value": 0
          },
          {
            "number": 10,
            "time": 33.79284306249905,
            "value": 1
          },
          {
            "number": 10,
            "time": 33.81427162499905,
            "value": 0
          },
          {
            "number": 10,
            "time": 33.83570018749905,
            "value": 1
          },
          {
            "number": 10,
            "time": 33.85712874999905,
            "value": 0
          },
          {
            "number": 10,
            "time": 33.87855731249905,
            "value": 1
          },
          {
            "number": 10,
            "time": 33.89998587499905,
            "value": 0
          },
          {
            "number": 10,
            "time": 33.921414437499045,
            "value": 1
          },
          {
            "number": 10,
            "time": 33.942842999999044,
            "value": 0
          },
          {
            "number": 10,
            "time": 33.96427156249904,
            "value": 1
          },
          {
            "number": 10,
            "time": 33.98570012499904,
            "value": 0
          },
          {
            "number": 10,
            "time": 34.00712868749904,
            "value": 1
          },
          {
            "number": 10,
            "time": 34.02855724999904,
            "value": 0
          },
          {
            "number": 10,
            "time": 34.04998581249904,
            "value": 1
          },
          {
            "number": 10,
            "time": 34.07141437499904,
            "value": 0
          },
          {
            "number": 10,
            "time": 34.092842937499036,
            "value": 1
          },
          {
            "number": 10,
            "time": 34.114271499999035,
            "value": 0
          },
          {
            "number": 10,
            "time": 34.13570006249903,
            "value": 1
          },
          {
            "number": 10,
            "time": 34.15712862499903,
            "value": 0
          },
          {
            "number": 10,
            "time": 34.17855718749903,
            "value": 1
          },
          {
            "number": 10,
            "time": 34.19998574999903,
            "value": 0
          },
          {
            "number": 10,
            "time": 34.22141431249903,
            "value": 1
          },
          {
            "number": 10,
            "time": 34.24284287499903,
            "value": 0
          },
          {
            "number": 10,
            "time": 34.264271437499026,
            "value": 1
          },
          {
            "number": 10,
            "time": 34.285699999999025,
            "value": 0
          },
          {
            "number": 10,
            "time": 34.307128562499024,
            "value": 1
          },
          {
            "number": 10,
            "time": 34.32855712499902,
            "value": 0
          },
          {
            "number": 10,
            "time": 34.34998568749902,
            "value": 1
          },
          {
            "number": 10,
            "time": 34.37141424999902,
            "value": 0
          },
          {
            "number": 10,
            "time": 34.39284281249902,
            "value": 1
          },
          {
            "number": 10,
            "time": 34.41427137499902,
            "value": 0
          },
          {
            "number": 10,
            "time": 34.43569993749902,
            "value": 1
          },
          {
            "number": 10,
            "time": 34.457128499999016,
            "value": 0
          },
          {
            "number": 10,
            "time": 34.478557062499014,
            "value": 1
          },
          {
            "number": 10,
            "time": 34.49998562499901,
            "value": 0
          },
          {
            "number": 10,
            "time": 34.52141418749901,
            "value": 1
          },
          {
            "number": 10,
            "time": 34.54284274999901,
            "value": 0
          },
          {
            "number": 10,
            "time": 34.56427131249901,
            "value": 1
          },
          {
            "number": 10,
            "time": 34.58569987499901,
            "value": 0
          },
          {
            "number": 10,
            "time": 34.60712843749901,
            "value": 1
          },
          {
            "number": 10,
            "time": 34.628556999999006,
            "value": 0
          },
          {
            "number": 10,
            "time": 34.649985562499005,
            "value": 1
          },
          {
            "number": 10,
            "time": 34.671414124999,
            "value": 0
          },
          {
            "number": 10,
            "time": 34.692842687499,
            "value": 1
          },
          {
            "number": 10,
            "time": 34.714271249999,
            "value": 0
          },
          {
            "number": 10,
            "time": 34.735699812499,
            "value": 1
          },
          {
            "number": 10,
            "time": 34.757128374999,
            "value": 0
          },
          {
            "number": 10,
            "time": 34.778556937499,
            "value": 1
          },
          {
            "number": 10,
            "time": 34.799985499998996,
            "value": 0
          },
          {
            "number": 10,
            "time": 34.821414062498995,
            "value": 1
          },
          {
            "number": 10,
            "time": 34.842842624998994,
            "value": 0
          },
          {
            "number": 10,
            "time": 34.86427118749899,
            "value": 1
          },
          {
            "number": 10,
            "time": 34.88569974999899,
            "value": 0
          },
          {
            "number": 10,
            "time": 34.90712831249899,
            "value": 1
          },
          {
            "number": 10,
            "time": 34.92855687499899,
            "value": 0
          },
          {
            "number": 10,
            "time": 34.94998543749899,
            "value": 1
          },
          {
            "number": 10,
            "time": 34.97141399999899,
            "value": 0
          },
          {
            "number": 10,
            "time": 34.992842562498986,
            "value": 1
          },
          {
            "number": 10,
            "time": 35.014271124998984,
            "value": 0
          },
          {
            "number": 10,
            "time": 35.03569968749898,
            "value": 1
          },
          {
            "number": 10,
            "time": 35.05712824999898,
            "value": 0
          },
          {
            "number": 10,
            "time": 35.07855681249898,
            "value": 1
          },
          {
            "number": 10,
            "time": 35.09998537499898,
            "value": 0
          },
          {
            "number": 10,
            "time": 35.12141393749898,
            "value": 1
          },
          {
            "number": 10,
            "time": 35.14284249999898,
            "value": 0
          },
          {
            "number": 10,
            "time": 35.164271062498976,
            "value": 1
          },
          {
            "number": 10,
            "time": 35.185699624998975,
            "value": 0
          },
          {
            "number": 10,
            "time": 35.207128187498974,
            "value": 1
          },
          {
            "number": 10,
            "time": 35.22855674999897,
            "value": 0
          },
          {
            "number": 10,
            "time": 35.24998531249897,
            "value": 1
          },
          {
            "number": 10,
            "time": 35.27141387499897,
            "value": 0
          },
          {
            "number": 10,
            "time": 35.29284243749897,
            "value": 1
          },
          {
            "number": 10,
            "time": 35.31427099999897,
            "value": 0
          },
          {
            "number": 10,
            "time": 35.33569956249897,
            "value": 1
          },
          {
            "number": 10,
            "time": 35.357128124998965,
            "value": 0
          },
          {
            "number": 10,
            "time": 35.378556687498964,
            "value": 1
          },
          {
            "number": 10,
            "time": 35.39998524999896,
            "value": 0
          },
          {
            "number": 10,
            "time": 35.42141381249896,
            "value": 1
          },
          {
            "number": 10,
            "time": 35.44284237499896,
            "value": 0
          },
          {
            "number": 10,
            "time": 35.46427093749896,
            "value": 1
          },
          {
            "number": 10,
            "time": 35.48569949999896,
            "value": 0
          },
          {
            "number": 10,
            "time": 35.50712806249896,
            "value": 1
          },
          {
            "number": 10,
            "time": 35.528556624998956,
            "value": 0
          },
          {
            "number": 10,
            "time": 35.549985187498955,
            "value": 1
          },
          {
            "number": 10,
            "time": 35.57141374999895,
            "value": 0
          },
          {
            "number": 10,
            "time": 35.59284231249895,
            "value": 1
          },
          {
            "number": 10,
            "time": 35.61427087499895,
            "value": 0
          },
          {
            "number": 10,
            "time": 35.63569943749895,
            "value": 1
          },
          {
            "number": 10,
            "time": 35.65712799999895,
            "value": 0
          },
          {
            "number": 10,
            "time": 35.67855656249895,
            "value": 1
          },
          {
            "number": 10,
            "time": 35.699985124998946,
            "value": 0
          },
          {
            "number": 10,
            "time": 35.721413687498945,
            "value": 1
          },
          {
            "number": 10,
            "time": 35.742842249998944,
            "value": 0
          },
          {
            "number": 10,
            "time": 35.76427081249894,
            "value": 1
          },
          {
            "number": 10,
            "time": 35.78569937499894,
            "value": 0
          },
          {
            "number": 10,
            "time": 35.80712793749894,
            "value": 1
          },
          {
            "number": 10,
            "time": 35.82855649999894,
            "value": 0
          },
          {
            "number": 10,
            "time": 35.84998506249894,
            "value": 1
          },
          {
            "number": 10,
            "time": 35.87141362499894,
            "value": 0
          },
          {
            "number": 10,
            "time": 35.892842187498935,
            "value": 1
          },
          {
            "number": 10,
            "time": 35.914270749998934,
            "value": 0
          },
          {
            "number": 10,
            "time": 35.93569931249893,
            "value": 1
          },
          {
            "number": 10,
            "time": 35.95712787499893,
            "value": 0
          },
          {
            "number": 10,
            "time": 35.97855643749893,
            "value": 1
          },
          {
            "number": 10,
            "time": 35.99998499999893,
            "value": 0
          },
          {
            "number": 10,
            "time": 36.02141356249893,
            "value": 1
          },
          {
            "number": 10,
            "time": 36.04284212499893,
            "value": 0
          },
          {
            "number": 10,
            "time": 36.064270687498926,
            "value": 1
          },
          {
            "number": 10,
            "time": 36.085699249998925,
            "value": 0
          },
          {
            "number": 10,
            "time": 36.10712781249892,
            "value": 1
          },
          {
            "number": 10,
            "time": 36.12855637499892,
            "value": 0
          },
          {
            "number": 10,
            "time": 36.14998493749892,
            "value": 1
          },
          {
            "number": 10,
            "time": 36.17141349999892,
            "value": 0
          },
          {
            "number": 10,
            "time": 36.19284206249892,
            "value": 1
          },
          {
            "number": 10,
            "time": 36.21427062499892,
            "value": 0
          },
          {
            "number": 10,
            "time": 36.235699187498916,
            "value": 1
          },
          {
            "number": 10,
            "time": 36.257127749998915,
            "value": 0
          },
          {
            "number": 10,
            "time": 36.278556312498914,
            "value": 1
          },
          {
            "number": 10,
            "time": 36.29998487499891,
            "value": 0
          },
          {
            "number": 10,
            "time": 36.32141343749891,
            "value": 1
          },
          {
            "number": 10,
            "time": 36.34284199999891,
            "value": 0
          },
          {
            "number": 10,
            "time": 36.36427056249891,
            "value": 1
          },
          {
            "number": 10,
            "time": 36.38569912499891,
            "value": 0
          },
          {
            "number": 10,
            "time": 36.40712768749891,
            "value": 1
          },
          {
            "number": 10,
            "time": 36.428556249998906,
            "value": 0
          },
          {
            "number": 10,
            "time": 36.449984812498904,
            "value": 1
          },
          {
            "number": 10,
            "time": 36.4714133749989,
            "value": 0
          },
          {
            "number": 10,
            "time": 36.4928419374989,
            "value": 1
          },
          {
            "number": 10,
            "time": 36.5142704999989,
            "value": 0
          },
          {
            "number": 10,
            "time": 36.5356990624989,
            "value": 1
          },
          {
            "number": 10,
            "time": 36.5571276249989,
            "value": 0
          },
          {
            "number": 10,
            "time": 36.5785561874989,
            "value": 1
          },
          {
            "number": 10,
            "time": 36.599984749998896,
            "value": 0
          },
          {
            "number": 10,
            "time": 36.621413312498895,
            "value": 1
          },
          {
            "number": 10,
            "time": 36.642841874998894,
            "value": 0
          },
          {
            "number": 10,
            "time": 36.66427043749889,
            "value": 1
          },
          {
            "number": 10,
            "time": 36.68569899999889,
            "value": 0
          },
          {
            "number": 10,
            "time": 36.70712756249889,
            "value": 1
          },
          {
            "number": 10,
            "time": 36.72855612499889,
            "value": 0
          },
          {
            "number": 10,
            "time": 36.74998468749889,
            "value": 1
          },
          {
            "number": 10,
            "time": 36.771413249998886,
            "value": 0
          },
          {
            "number": 10,
            "time": 36.792841812498885,
            "value": 1
          },
          {
            "number": 10,
            "time": 36.814270374998884,
            "value": 0
          },
          {
            "number": 10,
            "time": 36.83569893749888,
            "value": 1
          },
          {
            "number": 10,
            "time": 36.85712749999888,
            "value": 0
          },
          {
            "number": 10,
            "time": 36.87855606249888,
            "value": 1
          },
          {
            "number": 10,
            "time": 36.89998462499888,
            "value": 0
          },
          {
            "number": 10,
            "time": 36.92141318749888,
            "value": 1
          },
          {
            "number": 10,
            "time": 36.94284174999888,
            "value": 0
          },
          {
            "number": 10,
            "time": 36.964270312498876,
            "value": 1
          },
          {
            "number": 10,
            "time": 36.985698874998874,
            "value": 0
          },
          {
            "number": 10,
            "time": 37.00712743749887,
            "value": 1
          },
          {
            "number": 10,
            "time": 37.02855599999887,
            "value": 0
          },
          {
            "number": 10,
            "time": 37.04998456249887,
            "value": 1
          },
          {
            "number": 10,
            "time": 37.07141312499887,
            "value": 0
          },
          {
            "number": 10,
            "time": 37.09284168749887,
            "value": 1
          },
          {
            "number": 10,
            "time": 37.11427024999887,
            "value": 0
          },
          {
            "number": 10,
            "time": 37.135698812498866,
            "value": 1
          },
          {
            "number": 10,
            "time": 37.157127374998865,
            "value": 0
          },
          {
            "number": 10,
            "time": 37.178555937498864,
            "value": 1
          },
          {
            "number": 10,
            "time": 37.19998449999886,
            "value": 0
          },
          {
            "number": 10,
            "time": 37.22141306249886,
            "value": 1
          },
          {
            "number": 10,
            "time": 37.24284162499886,
            "value": 0
          },
          {
            "number": 10,
            "time": 37.26427018749886,
            "value": 1
          },
          {
            "number": 10,
            "time": 37.28569874999886,
            "value": 0
          },
          {
            "number": 10,
            "time": 37.30712731249886,
            "value": 1
          },
          {
            "number": 10,
            "time": 37.328555874998855,
            "value": 0
          },
          {
            "number": 10,
            "time": 37.349984437498854,
            "value": 1
          },
          {
            "number": 10,
            "time": 37.37141299999885,
            "value": 0
          },
          {
            "number": 10,
            "time": 37.39284156249885,
            "value": 1
          },
          {
            "number": 10,
            "time": 37.41427012499885,
            "value": 0
          },
          {
            "number": 10,
            "time": 37.43569868749885,
            "value": 1
          },
          {
            "number": 10,
            "time": 37.45712724999885,
            "value": 0
          },
          {
            "number": 10,
            "time": 37.47855581249885,
            "value": 1
          },
          {
            "number": 10,
            "time": 37.499984374998846,
            "value": 0
          },
          {
            "number": 10,
            "time": 37.521412937498845,
            "value": 1
          },
          {
            "number": 10,
            "time": 37.54284149999884,
            "value": 0
          },
          {
            "number": 10,
            "time": 37.56427006249884,
            "value": 1
          },
          {
            "number": 10,
            "time": 37.58569862499884,
            "value": 0
          },
          {
            "number": 10,
            "time": 37.60712718749884,
            "value": 1
          },
          {
            "number": 10,
            "time": 37.62855574999884,
            "value": 0
          },
          {
            "number": 10,
            "time": 37.64998431249884,
            "value": 1
          },
          {
            "number": 10,
            "time": 37.671412874998836,
            "value": 0
          },
          {
            "number": 10,
            "time": 37.692841437498835,
            "value": 1
          },
          {
            "number": 10,
            "time": 37.714269999998834,
            "value": 0
          },
          {
            "number": 10,
            "time": 37.73569856249883,
            "value": 1
          },
          {
            "number": 10,
            "time": 37.75712712499883,
            "value": 0
          },
          {
            "number": 10,
            "time": 37.77855568749883,
            "value": 1
          },
          {
            "number": 10,
            "time": 37.79998424999883,
            "value": 0
          },
          {
            "number": 10,
            "time": 37.82141281249883,
            "value": 1
          },
          {
            "number": 10,
            "time": 37.84284137499883,
            "value": 0
          },
          {
            "number": 10,
            "time": 37.864269937498825,
            "value": 1
          },
          {
            "number": 10,
            "time": 37.885698499998824,
            "value": 0
          },
          {
            "number": 10,
            "time": 37.90712706249882,
            "value": 1
          },
          {
            "number": 10,
            "time": 37.92855562499882,
            "value": 0
          },
          {
            "number": 10,
            "time": 37.94998418749882,
            "value": 1
          },
          {
            "number": 10,
            "time": 37.97141274999882,
            "value": 0
          },
          {
            "number": 10,
            "time": 37.99284131249882,
            "value": 1
          },
          {
            "number": 10,
            "time": 38.01426987499882,
            "value": 0
          },
          {
            "number": 10,
            "time": 38.035698437498816,
            "value": 1
          },
          {
            "number": 10,
            "time": 38.057126999998815,
            "value": 0
          },
          {
            "number": 10,
            "time": 38.07855556249881,
            "value": 1
          },
          {
            "number": 10,
            "time": 38.09998412499881,
            "value": 0
          },
          {
            "number": 10,
            "time": 38.12141268749881,
            "value": 1
          },
          {
            "number": 10,
            "time": 38.14284124999881,
            "value": 0
          },
          {
            "number": 10,
            "time": 38.16426981249881,
            "value": 1
          },
          {
            "number": 10,
            "time": 38.18569837499881,
            "value": 0
          },
          {
            "number": 10,
            "time": 38.207126937498806,
            "value": 1
          },
          {
            "number": 10,
            "time": 38.228555499998805,
            "value": 0
          },
          {
            "number": 10,
            "time": 38.249984062498804,
            "value": 1
          },
          {
            "number": 10,
            "time": 38.2714126249988,
            "value": 0
          },
          {
            "number": 10,
            "time": 38.2928411874988,
            "value": 1
          },
          {
            "number": 10,
            "time": 38.3142697499988,
            "value": 0
          },
          {
            "number": 10,
            "time": 38.3356983124988,
            "value": 1
          },
          {
            "number": 10,
            "time": 38.3571268749988,
            "value": 0
          },
          {
            "number": 10,
            "time": 38.3785554374988,
            "value": 1
          },
          {
            "number": 10,
            "time": 38.399983999998796,
            "value": 0
          },
          {
            "number": 10,
            "time": 38.421412562498794,
            "value": 1
          },
          {
            "number": 10,
            "time": 38.44284112499879,
            "value": 0
          },
          {
            "number": 10,
            "time": 38.46426968749879,
            "value": 1
          },
          {
            "number": 10,
            "time": 38.48569824999879,
            "value": 0
          },
          {
            "number": 10,
            "time": 38.50712681249879,
            "value": 1
          },
          {
            "number": 10,
            "time": 38.52855537499879,
            "value": 0
          },
          {
            "number": 10,
            "time": 38.54998393749879,
            "value": 1
          },
          {
            "number": 10,
            "time": 38.571412499998786,
            "value": 0
          },
          {
            "number": 10,
            "time": 38.592841062498785,
            "value": 1
          },
          {
            "number": 10,
            "time": 38.614269624998784,
            "value": 0
          },
          {
            "number": 10,
            "time": 38.63569818749878,
            "value": 1
          },
          {
            "number": 10,
            "time": 38.65712674999878,
            "value": 0
          },
          {
            "number": 10,
            "time": 38.67855531249878,
            "value": 1
          },
          {
            "number": 10,
            "time": 38.69998387499878,
            "value": 0
          },
          {
            "number": 10,
            "time": 38.72141243749878,
            "value": 1
          },
          {
            "number": 10,
            "time": 38.742840999998776,
            "value": 0
          },
          {
            "number": 10,
            "time": 38.764269562498775,
            "value": 1
          },
          {
            "number": 10,
            "time": 38.785698124998774,
            "value": 0
          },
          {
            "number": 10,
            "time": 38.80712668749877,
            "value": 1
          },
          {
            "number": 10,
            "time": 38.82855524999877,
            "value": 0
          },
          {
            "number": 10,
            "time": 38.84998381249877,
            "value": 1
          },
          {
            "number": 10,
            "time": 38.87141237499877,
            "value": 0
          },
          {
            "number": 10,
            "time": 38.89284093749877,
            "value": 1
          },
          {
            "number": 10,
            "time": 38.91426949999877,
            "value": 0
          },
          {
            "number": 10,
            "time": 38.935698062498766,
            "value": 1
          },
          {
            "number": 10,
            "time": 38.957126624998764,
            "value": 0
          },
          {
            "number": 10,
            "time": 38.97855518749876,
            "value": 1
          },
          {
            "number": 10,
            "time": 38.99998374999876,
            "value": 0
          },
          {
            "number": 10,
            "time": 39.02141231249876,
            "value": 1
          },
          {
            "number": 10,
            "time": 39.04284087499876,
            "value": 0
          },
          {
            "number": 10,
            "time": 39.06426943749876,
            "value": 1
          },
          {
            "number": 10,
            "time": 39.08569799999876,
            "value": 0
          },
          {
            "number": 10,
            "time": 39.107126562498756,
            "value": 1
          },
          {
            "number": 10,
            "time": 39.128555124998755,
            "value": 0
          },
          {
            "number": 10,
            "time": 39.149983687498754,
            "value": 1
          },
          {
            "number": 10,
            "time": 39.17141224999875,
            "value": 0
          },
          {
            "number": 10,
            "time": 39.19284081249875,
            "value": 1
          },
          {
            "number": 10,
            "time": 39.21426937499875,
            "value": 0
          },
          {
            "number": 10,
            "time": 39.23569793749875,
            "value": 1
          },
          {
            "number": 10,
            "time": 39.25712649999875,
            "value": 0
          },
          {
            "number": 10,
            "time": 39.27855506249875,
            "value": 1
          },
          {
            "number": 10,
            "time": 39.299983624998745,
            "value": 0
          },
          {
            "number": 10,
            "time": 39.321412187498744,
            "value": 1
          },
          {
            "number": 10,
            "time": 39.34284074999874,
            "value": 0
          },
          {
            "number": 10,
            "time": 39.36426931249874,
            "value": 1
          },
          {
            "number": 10,
            "time": 39.38569787499874,
            "value": 0
          },
          {
            "number": 10,
            "time": 39.40712643749874,
            "value": 1
          },
          {
            "number": 10,
            "time": 39.42855499999874,
            "value": 0
          },
          {
            "number": 10,
            "time": 39.44998356249874,
            "value": 1
          },
          {
            "number": 10,
            "time": 39.471412124998736,
            "value": 0
          },
          {
            "number": 10,
            "time": 39.492840687498735,
            "value": 1
          },
          {
            "number": 10,
            "time": 39.51426924999873,
            "value": 0
          },
          {
            "number": 10,
            "time": 39.53569781249873,
            "value": 1
          },
          {
            "number": 10,
            "time": 39.55712637499873,
            "value": 0
          },
          {
            "number": 10,
            "time": 39.57855493749873,
            "value": 1
          },
          {
            "number": 10,
            "time": 39.59998349999873,
            "value": 0
          },
          {
            "number": 10,
            "time": 39.62141206249873,
            "value": 1
          },
          {
            "number": 10,
            "time": 39.642840624998726,
            "value": 0
          },
          {
            "number": 10,
            "time": 39.664269187498725,
            "value": 1
          },
          {
            "number": 10,
            "time": 39.685697749998724,
            "value": 0
          },
          {
            "number": 10,
            "time": 39.70712631249872,
            "value": 1
          },
          {
            "number": 10,
            "time": 39.72855487499872,
            "value": 0
          },
          {
            "number": 10,
            "time": 39.74998343749872,
            "value": 1
          },
          {
            "number": 10,
            "time": 39.77141199999872,
            "value": 0
          },
          {
            "number": 10,
            "time": 39.79284056249872,
            "value": 1
          },
          {
            "number": 10,
            "time": 39.81426912499872,
            "value": 0
          },
          {
            "number": 10,
            "time": 39.835697687498715,
            "value": 1
          },
          {
            "number": 10,
            "time": 39.857126249998714,
            "value": 0
          },
          {
            "number": 10,
            "time": 39.87855481249871,
            "value": 1
          },
          {
            "number": 10,
            "time": 39.89998337499871,
            "value": 0
          },
          {
            "number": 10,
            "time": 39.92141193749871,
            "value": 1
          },
          {
            "number": 10,
            "time": 39.94284049999871,
            "value": 0
          },
          {
            "number": 10,
            "time": 39.96426906249871,
            "value": 1
          },
          {
            "number": 10,
            "time": 39.98569762499871,
            "value": 0
          },
          {
            "number": 10,
            "time": 40.007126187498706,
            "value": 1
          },
          {
            "number": 10,
            "time": 40.028554749998705,
            "value": 0
          },
          {
            "number": 10,
            "time": 40.0499833124987,
            "value": 1
          },
          {
            "number": 10,
            "time": 40.0714118749987,
            "value": 0
          },
          {
            "number": 10,
            "time": 40.0928404374987,
            "value": 1
          },
          {
            "number": 10,
            "time": 40.1142689999987,
            "value": 0
          },
          {
            "number": 10,
            "time": 40.1356975624987,
            "value": 1
          },
          {
            "number": 10,
            "time": 40.1571261249987,
            "value": 0
          },
          {
            "number": 10,
            "time": 40.178554687498696,
            "value": 1
          },
          {
            "number": 10,
            "time": 40.199983249998695,
            "value": 0
          },
          {
            "number": 10,
            "time": 40.221411812498694,
            "value": 1
          },
          {
            "number": 10,
            "time": 40.24284037499869,
            "value": 0
          },
          {
            "number": 10,
            "time": 40.26426893749869,
            "value": 1
          },
          {
            "number": 10,
            "time": 40.28569749999869,
            "value": 0
          },
          {
            "number": 10,
            "time": 40.30712606249869,
            "value": 1
          },
          {
            "number": 10,
            "time": 40.32855462499869,
            "value": 0
          },
          {
            "number": 10,
            "time": 40.34998318749869,
            "value": 1
          },
          {
            "number": 10,
            "time": 40.371411749998686,
            "value": 0
          },
          {
            "number": 10,
            "time": 40.392840312498684,
            "value": 1
          },
          {
            "number": 10,
            "time": 40.41426887499868,
            "value": 0
          },
          {
            "number": 10,
            "time": 40.43569743749868,
            "value": 1
          },
          {
            "number": 10,
            "time": 40.45712599999868,
            "value": 0
          },
          {
            "number": 10,
            "time": 40.47855456249868,
            "value": 1
          },
          {
            "number": 10,
            "time": 40.49998312499868,
            "value": 0
          },
          {
            "number": 10,
            "time": 40.52141168749868,
            "value": 1
          },
          {
            "number": 10,
            "time": 40.542840249998676,
            "value": 0
          },
          {
            "number": 10,
            "time": 40.564268812498675,
            "value": 1
          },
          {
            "number": 10,
            "time": 40.585697374998674,
            "value": 0
          },
          {
            "number": 10,
            "time": 40.60712593749867,
            "value": 1
          },
          {
            "number": 10,
            "time": 40.62855449999867,
            "value": 0
          },
          {
            "number": 10,
            "time": 40.64998306249867,
            "value": 1
          },
          {
            "number": 10,
            "time": 40.67141162499867,
            "value": 0
          },
          {
            "number": 10,
            "time": 40.69284018749867,
            "value": 1
          },
          {
            "number": 10,
            "time": 40.714268749998666,
            "value": 0
          },
          {
            "number": 10,
            "time": 40.735697312498665,
            "value": 1
          },
          {
            "number": 10,
            "time": 40.757125874998664,
            "value": 0
          },
          {
            "number": 10,
            "time": 40.77855443749866,
            "value": 1
          },
          {
            "number": 10,
            "time": 40.79998299999866,
            "value": 0
          },
          {
            "number": 10,
            "time": 40.82141156249866,
            "value": 1
          },
          {
            "number": 10,
            "time": 40.84284012499866,
            "value": 0
          },
          {
            "number": 10,
            "time": 40.86426868749866,
            "value": 1
          },
          {
            "number": 10,
            "time": 40.88569724999866,
            "value": 0
          },
          {
            "number": 10,
            "time": 40.907125812498656,
            "value": 1
          },
          {
            "number": 10,
            "time": 40.928554374998654,
            "value": 0
          },
          {
            "number": 10,
            "time": 40.94998293749865,
            "value": 1
          },
          {
            "number": 10,
            "time": 40.97141149999865,
            "value": 0
          },
          {
            "number": 10,
            "time": 40.99284006249865,
            "value": 1
          },
          {
            "number": 10,
            "time": 41.01426862499865,
            "value": 0
          },
          {
            "number": 10,
            "time": 41.03569718749865,
            "value": 1
          },
          {
            "number": 10,
            "time": 41.05712574999865,
            "value": 0
          },
          {
            "number": 10,
            "time": 41.078554312498646,
            "value": 1
          },
          {
            "number": 10,
            "time": 41.099982874998645,
            "value": 0
          },
          {
            "number": 10,
            "time": 41.121411437498644,
            "value": 1
          },
          {
            "number": 10,
            "time": 41.14283999999864,
            "value": 0
          },
          {
            "number": 10,
            "time": 41.16426856249864,
            "value": 1
          },
          {
            "number": 10,
            "time": 41.18569712499864,
            "value": 0
          },
          {
            "number": 10,
            "time": 41.20712568749864,
            "value": 1
          },
          {
            "number": 10,
            "time": 41.22855424999864,
            "value": 0
          },
          {
            "number": 10,
            "time": 41.24998281249864,
            "value": 1
          },
          {
            "number": 10,
            "time": 41.271411374998635,
            "value": 0
          },
          {
            "number": 10,
            "time": 41.292839937498634,
            "value": 1
          },
          {
            "number": 10,
            "time": 41.31426849999863,
            "value": 0
          },
          {
            "number": 10,
            "time": 41.33569706249863,
            "value": 1
          },
          {
            "number": 10,
            "time": 41.35712562499863,
            "value": 0
          },
          {
            "number": 10,
            "time": 41.37855418749863,
            "value": 1
          },
          {
            "number": 10,
            "time": 41.39998274999863,
            "value": 0
          },
          {
            "number": 10,
            "time": 41.42141131249863,
            "value": 1
          },
          {
            "number": 10,
            "time": 41.442839874998626,
            "value": 0
          },
          {
            "number": 10,
            "time": 41.464268437498625,
            "value": 1
          },
          {
            "number": 10,
            "time": 41.48569699999862,
            "value": 0
          },
          {
            "number": 10,
            "time": 41.50712556249862,
            "value": 1
          },
          {
            "number": 10,
            "time": 41.52855412499862,
            "value": 0
          },
          {
            "number": 10,
            "time": 41.54998268749862,
            "value": 1
          },
          {
            "number": 10,
            "time": 41.57141124999862,
            "value": 0
          },
          {
            "number": 10,
            "time": 41.59283981249862,
            "value": 1
          },
          {
            "number": 10,
            "time": 41.614268374998616,
            "value": 0
          },
          {
            "number": 10,
            "time": 41.635696937498615,
            "value": 1
          },
          {
            "number": 10,
            "time": 41.657125499998614,
            "value": 0
          },
          {
            "number": 10,
            "time": 41.67855406249861,
            "value": 1
          },
          {
            "number": 10,
            "time": 41.69998262499861,
            "value": 0
          },
          {
            "number": 10,
            "time": 41.72141118749861,
            "value": 1
          },
          {
            "number": 10,
            "time": 41.74283974999861,
            "value": 0
          },
          {
            "number": 10,
            "time": 41.76426831249861,
            "value": 1
          },
          {
            "number": 10,
            "time": 41.78569687499861,
            "value": 0
          },
          {
            "number": 10,
            "time": 41.807125437498605,
            "value": 1
          },
          {
            "number": 10,
            "time": 41.828553999998604,
            "value": 0
          },
          {
            "number": 10,
            "time": 41.8499825624986,
            "value": 1
          },
          {
            "number": 10,
            "time": 41.8714111249986,
            "value": 0
          },
          {
            "number": 10,
            "time": 41.8928396874986,
            "value": 1
          },
          {
            "number": 10,
            "time": 41.9142682499986,
            "value": 0
          },
          {
            "number": 10,
            "time": 41.9356968124986,
            "value": 1
          },
          {
            "number": 10,
            "time": 41.9571253749986,
            "value": 0
          },
          {
            "number": 10,
            "time": 41.978553937498596,
            "value": 1
          },
          {
            "number": 10,
            "time": 41.999982499998595,
            "value": 0
          },
          {
            "number": 10,
            "time": 42.02141106249859,
            "value": 1
          },
          {
            "number": 10,
            "time": 42.04283962499859,
            "value": 0
          },
          {
            "number": 10,
            "time": 42.06426818749859,
            "value": 1
          },
          {
            "number": 10,
            "time": 42.08569674999859,
            "value": 0
          },
          {
            "number": 10,
            "time": 42.10712531249859,
            "value": 1
          },
          {
            "number": 10,
            "time": 42.12855387499859,
            "value": 0
          },
          {
            "number": 10,
            "time": 42.149982437498586,
            "value": 1
          },
          {
            "number": 10,
            "time": 42.171410999998585,
            "value": 0
          },
          {
            "number": 10,
            "time": 42.192839562498584,
            "value": 1
          },
          {
            "number": 10,
            "time": 42.21426812499858,
            "value": 0
          },
          {
            "number": 10,
            "time": 42.23569668749858,
            "value": 1
          },
          {
            "number": 10,
            "time": 42.25712524999858,
            "value": 0
          },
          {
            "number": 10,
            "time": 42.27855381249858,
            "value": 1
          },
          {
            "number": 10,
            "time": 42.29998237499858,
            "value": 0
          },
          {
            "number": 10,
            "time": 42.32141093749858,
            "value": 1
          },
          {
            "number": 10,
            "time": 42.342839499998576,
            "value": 0
          },
          {
            "number": 10,
            "time": 42.364268062498574,
            "value": 1
          },
          {
            "number": 10,
            "time": 42.38569662499857,
            "value": 0
          },
          {
            "number": 10,
            "time": 42.40712518749857,
            "value": 1
          },
          {
            "number": 10,
            "time": 42.42855374999857,
            "value": 0
          },
          {
            "number": 10,
            "time": 42.44998231249857,
            "value": 1
          },
          {
            "number": 10,
            "time": 42.47141087499857,
            "value": 0
          },
          {
            "number": 10,
            "time": 42.49283943749857,
            "value": 1
          },
          {
            "number": 10,
            "time": 42.514267999998566,
            "value": 0
          },
          {
            "number": 10,
            "time": 42.535696562498565,
            "value": 1
          },
          {
            "number": 10,
            "time": 42.557125124998564,
            "value": 0
          },
          {
            "number": 10,
            "time": 42.57855368749856,
            "value": 1
          },
          {
            "number": 10,
            "time": 42.59998224999856,
            "value": 0
          },
          {
            "number": 10,
            "time": 42.62141081249856,
            "value": 1
          },
          {
            "number": 10,
            "time": 42.64283937499856,
            "value": 0
          },
          {
            "number": 10,
            "time": 42.66426793749856,
            "value": 1
          },
          {
            "number": 10,
            "time": 42.685696499998556,
            "value": 0
          },
          {
            "number": 10,
            "time": 42.707125062498555,
            "value": 1
          },
          {
            "number": 10,
            "time": 42.728553624998554,
            "value": 0
          },
          {
            "number": 10,
            "time": 42.74998218749855,
            "value": 1
          },
          {
            "number": 10,
            "time": 42.77141074999855,
            "value": 0
          },
          {
            "number": 10,
            "time": 42.79283931249855,
            "value": 1
          },
          {
            "number": 10,
            "time": 42.81426787499855,
            "value": 0
          },
          {
            "number": 10,
            "time": 42.83569643749855,
            "value": 1
          },
          {
            "number": 10,
            "time": 42.85712499999855,
            "value": 0
          },
          {
            "number": 10,
            "time": 42.878553562498546,
            "value": 1
          },
          {
            "number": 10,
            "time": 42.899982124998544,
            "value": 0
          },
          {
            "number": 10,
            "time": 42.92141068749854,
            "value": 1
          },
          {
            "number": 10,
            "time": 42.94283924999854,
            "value": 0
          },
          {
            "number": 10,
            "time": 42.96426781249854,
            "value": 1
          },
          {
            "number": 10,
            "time": 42.98569637499854,
            "value": 0
          },
          {
            "number": 10,
            "time": 43.00712493749854,
            "value": 1
          },
          {
            "number": 10,
            "time": 43.02855349999854,
            "value": 0
          },
          {
            "number": 10,
            "time": 43.049982062498536,
            "value": 1
          },
          {
            "number": 10,
            "time": 43.071410624998535,
            "value": 0
          },
          {
            "number": 10,
            "time": 43.092839187498534,
            "value": 1
          },
          {
            "number": 10,
            "time": 43.11426774999853,
            "value": 0
          },
          {
            "number": 10,
            "time": 43.13569631249853,
            "value": 1
          },
          {
            "number": 10,
            "time": 43.15712487499853,
            "value": 0
          },
          {
            "number": 10,
            "time": 43.17855343749853,
            "value": 1
          },
          {
            "number": 10,
            "time": 43.19998199999853,
            "value": 0
          },
          {
            "number": 10,
            "time": 43.22141056249853,
            "value": 1
          },
          {
            "number": 10,
            "time": 43.242839124998525,
            "value": 0
          },
          {
            "number": 10,
            "time": 43.264267687498524,
            "value": 1
          },
          {
            "number": 10,
            "time": 43.28569624999852,
            "value": 0
          },
          {
            "number": 10,
            "time": 43.30712481249852,
            "value": 1
          },
          {
            "number": 10,
            "time": 43.32855337499852,
            "value": 0
          },
          {
            "number": 10,
            "time": 43.34998193749852,
            "value": 1
          },
          {
            "number": 10,
            "time": 43.37141049999852,
            "value": 0
          },
          {
            "number": 10,
            "time": 43.39283906249852,
            "value": 1
          },
          {
            "number": 10,
            "time": 43.414267624998516,
            "value": 0
          },
          {
            "number": 10,
            "time": 43.435696187498515,
            "value": 1
          },
          {
            "number": 10,
            "time": 43.45712474999851,
            "value": 0
          },
          {
            "number": 10,
            "time": 43.47855331249851,
            "value": 1
          },
          {
            "number": 10,
            "time": 43.49998187499851,
            "value": 0
          },
          {
            "number": 10,
            "time": 43.52141043749851,
            "value": 1
          },
          {
            "number": 10,
            "time": 43.54283899999851,
            "value": 0
          },
          {
            "number": 10,
            "time": 43.56426756249851,
            "value": 1
          },
          {
            "number": 10,
            "time": 43.585696124998506,
            "value": 0
          },
          {
            "number": 10,
            "time": 43.607124687498505,
            "value": 1
          },
          {
            "number": 10,
            "time": 43.628553249998504,
            "value": 0
          },
          {
            "number": 10,
            "time": 43.6499818124985,
            "value": 1
          },
          {
            "number": 10,
            "time": 43.6714103749985,
            "value": 0
          },
          {
            "number": 10,
            "time": 43.6928389374985,
            "value": 1
          },
          {
            "number": 10,
            "time": 43.7142674999985,
            "value": 0
          },
          {
            "number": 10,
            "time": 43.7356960624985,
            "value": 1
          },
          {
            "number": 10,
            "time": 43.7571246249985,
            "value": 0
          },
          {
            "number": 10,
            "time": 43.778553187498495,
            "value": 1
          },
          {
            "number": 10,
            "time": 43.799981749998494,
            "value": 0
          },
          {
            "number": 10,
            "time": 43.82141031249849,
            "value": 1
          },
          {
            "number": 10,
            "time": 43.84283887499849,
            "value": 0
          },
          {
            "number": 10,
            "time": 43.86426743749849,
            "value": 1
          },
          {
            "number": 10,
            "time": 43.88569599999849,
            "value": 0
          },
          {
            "number": 10,
            "time": 43.90712456249849,
            "value": 1
          },
          {
            "number": 10,
            "time": 43.92855312499849,
            "value": 0
          },
          {
            "number": 10,
            "time": 43.949981687498486,
            "value": 1
          },
          {
            "number": 10,
            "time": 43.971410249998485,
            "value": 0
          },
          {
            "number": 10,
            "time": 43.99283881249848,
            "value": 1
          },
          {
            "number": 10,
            "time": 44.01426737499848,
            "value": 0
          },
          {
            "number": 10,
            "time": 44.03569593749848,
            "value": 1
          },
          {
            "number": 10,
            "time": 44.05712449999848,
            "value": 0
          },
          {
            "number": 10,
            "time": 44.07855306249848,
            "value": 1
          },
          {
            "number": 10,
            "time": 44.09998162499848,
            "value": 0
          },
          {
            "number": 10,
            "time": 44.121410187498476,
            "value": 1
          },
          {
            "number": 10,
            "time": 44.142838749998475,
            "value": 0
          },
          {
            "number": 10,
            "time": 44.164267312498474,
            "value": 1
          },
          {
            "number": 10,
            "time": 44.18569587499847,
            "value": 0
          },
          {
            "number": 10,
            "time": 44.20712443749847,
            "value": 1
          },
          {
            "number": 10,
            "time": 44.22855299999847,
            "value": 0
          },
          {
            "number": 10,
            "time": 44.24998156249847,
            "value": 1
          },
          {
            "number": 10,
            "time": 44.27141012499847,
            "value": 0
          },
          {
            "number": 10,
            "time": 44.29283868749847,
            "value": 1
          },
          {
            "number": 10,
            "time": 44.314267249998466,
            "value": 0
          },
          {
            "number": 10,
            "time": 44.335695812498464,
            "value": 1
          },
          {
            "number": 10,
            "time": 44.35712437499846,
            "value": 0
          },
          {
            "number": 10,
            "time": 44.37855293749846,
            "value": 1
          },
          {
            "number": 10,
            "time": 44.39998149999846,
            "value": 0
          },
          {
            "number": 10,
            "time": 44.42141006249846,
            "value": 1
          },
          {
            "number": 10,
            "time": 44.44283862499846,
            "value": 0
          },
          {
            "number": 10,
            "time": 44.46426718749846,
            "value": 1
          },
          {
            "number": 10,
            "time": 44.485695749998456,
            "value": 0
          },
          {
            "number": 10,
            "time": 44.507124312498455,
            "value": 1
          },
          {
            "number": 10,
            "time": 44.528552874998454,
            "value": 0
          },
          {
            "number": 10,
            "time": 44.54998143749845,
            "value": 1
          },
          {
            "number": 10,
            "time": 44.57140999999845,
            "value": 0
          },
          {
            "number": 10,
            "time": 44.59283856249845,
            "value": 1
          },
          {
            "number": 10,
            "time": 44.61426712499845,
            "value": 0
          },
          {
            "number": 10,
            "time": 44.63569568749845,
            "value": 1
          },
          {
            "number": 10,
            "time": 44.657124249998446,
            "value": 0
          },
          {
            "number": 10,
            "time": 44.678552812498445,
            "value": 1
          },
          {
            "number": 10,
            "time": 44.699981374998444,
            "value": 0
          },
          {
            "number": 10,
            "time": 44.72140993749844,
            "value": 1
          },
          {
            "number": 10,
            "time": 44.74283849999844,
            "value": 0
          },
          {
            "number": 10,
            "time": 44.76426706249844,
            "value": 1
          },
          {
            "number": 10,
            "time": 44.78569562499844,
            "value": 0
          },
          {
            "number": 10,
            "time": 44.80712418749844,
            "value": 1
          },
          {
            "number": 10,
            "time": 44.82855274999844,
            "value": 0
          },
          {
            "number": 10,
            "time": 44.849981312498436,
            "value": 1
          },
          {
            "number": 10,
            "time": 44.871409874998434,
            "value": 0
          },
          {
            "number": 10,
            "time": 44.89283843749843,
            "value": 1
          },
          {
            "number": 10,
            "time": 44.91426699999843,
            "value": 0
          },
          {
            "number": 10,
            "time": 44.93569556249843,
            "value": 1
          },
          {
            "number": 10,
            "time": 44.95712412499843,
            "value": 0
          },
          {
            "number": 10,
            "time": 44.97855268749843,
            "value": 1
          },
          {
            "number": 10,
            "time": 44.99998124999843,
            "value": 0
          },
          {
            "number": 10,
            "time": 45.021409812498426,
            "value": 1
          },
          {
            "number": 10,
            "time": 45.042838374998425,
            "value": 0
          },
          {
            "number": 10,
            "time": 45.064266937498424,
            "value": 1
          },
          {
            "number": 10,
            "time": 45.08569549999842,
            "value": 0
          },
          {
            "number": 10,
            "time": 45.10712406249842,
            "value": 1
          },
          {
            "number": 10,
            "time": 45.12855262499842,
            "value": 0
          },
          {
            "number": 10,
            "time": 45.14998118749842,
            "value": 1
          },
          {
            "number": 10,
            "time": 45.17140974999842,
            "value": 0
          },
          {
            "number": 10,
            "time": 45.19283831249842,
            "value": 1
          },
          {
            "number": 10,
            "time": 45.214266874998415,
            "value": 0
          },
          {
            "number": 10,
            "time": 45.235695437498414,
            "value": 1
          },
          {
            "number": 10,
            "time": 45.25712399999841,
            "value": 0
          },
          {
            "number": 10,
            "time": 45.27855256249841,
            "value": 1
          },
          {
            "number": 10,
            "time": 45.29998112499841,
            "value": 0
          },
          {
            "number": 10,
            "time": 45.32140968749841,
            "value": 1
          },
          {
            "number": 10,
            "time": 45.34283824999841,
            "value": 0
          },
          {
            "number": 10,
            "time": 45.36426681249841,
            "value": 1
          },
          {
            "number": 10,
            "time": 45.385695374998406,
            "value": 0
          },
          {
            "number": 10,
            "time": 45.407123937498405,
            "value": 1
          },
          {
            "number": 10,
            "time": 45.4285524999984,
            "value": 0
          },
          {
            "number": 10,
            "time": 45.4499810624984,
            "value": 1
          },
          {
            "number": 10,
            "time": 45.4714096249984,
            "value": 0
          },
          {
            "number": 10,
            "time": 45.4928381874984,
            "value": 1
          },
          {
            "number": 10,
            "time": 45.5142667499984,
            "value": 0
          },
          {
            "number": 10,
            "time": 45.5356953124984,
            "value": 1
          },
          {
            "number": 10,
            "time": 45.557123874998396,
            "value": 0
          },
          {
            "number": 10,
            "time": 45.578552437498395,
            "value": 1
          },
          {
            "number": 10,
            "time": 45.599980999998394,
            "value": 0
          },
          {
            "number": 10,
            "time": 45.62140956249839,
            "value": 1
          },
          {
            "number": 10,
            "time": 45.64283812499839,
            "value": 0
          },
          {
            "number": 10,
            "time": 45.66426668749839,
            "value": 1
          },
          {
            "number": 10,
            "time": 45.68569524999839,
            "value": 0
          },
          {
            "number": 10,
            "time": 45.70712381249839,
            "value": 1
          },
          {
            "number": 10,
            "time": 45.72855237499839,
            "value": 0
          },
          {
            "number": 10,
            "time": 45.749980937498385,
            "value": 1
          },
          {
            "number": 10,
            "time": 45.771409499998384,
            "value": 0
          },
          {
            "number": 10,
            "time": 45.79283806249838,
            "value": 1
          },
          {
            "number": 10,
            "time": 45.81426662499838,
            "value": 0
          },
          {
            "number": 10,
            "time": 45.83569518749838,
            "value": 1
          },
          {
            "number": 10,
            "time": 45.85712374999838,
            "value": 0
          },
          {
            "number": 10,
            "time": 45.87855231249838,
            "value": 1
          },
          {
            "number": 10,
            "time": 45.89998087499838,
            "value": 0
          },
          {
            "number": 10,
            "time": 45.921409437498376,
            "value": 1
          },
          {
            "number": 10,
            "time": 45.942837999998375,
            "value": 0
          },
          {
            "number": 10,
            "time": 45.96426656249837,
            "value": 1
          },
          {
            "number": 10,
            "time": 45.98569512499837,
            "value": 0
          },
          {
            "number": 10,
            "time": 46.00712368749837,
            "value": 1
          },
          {
            "number": 10,
            "time": 46.02855224999837,
            "value": 0
          },
          {
            "number": 10,
            "time": 46.04998081249837,
            "value": 1
          },
          {
            "number": 10,
            "time": 46.07140937499837,
            "value": 0
          },
          {
            "number": 10,
            "time": 46.092837937498366,
            "value": 1
          },
          {
            "number": 10,
            "time": 46.114266499998365,
            "value": 0
          },
          {
            "number": 10,
            "time": 46.135695062498364,
            "value": 1
          },
          {
            "number": 10,
            "time": 46.15712362499836,
            "value": 0
          },
          {
            "number": 10,
            "time": 46.17855218749836,
            "value": 1
          },
          {
            "number": 10,
            "time": 46.19998074999836,
            "value": 0
          },
          {
            "number": 10,
            "time": 46.22140931249836,
            "value": 1
          },
          {
            "number": 10,
            "time": 46.24283787499836,
            "value": 0
          },
          {
            "number": 10,
            "time": 46.26426643749836,
            "value": 1
          },
          {
            "number": 10,
            "time": 46.285694999998356,
            "value": 0
          },
          {
            "number": 10,
            "time": 46.307123562498354,
            "value": 1
          },
          {
            "number": 10,
            "time": 46.32855212499835,
            "value": 0
          },
          {
            "number": 10,
            "time": 46.34998068749835,
            "value": 1
          },
          {
            "number": 10,
            "time": 46.37140924999835,
            "value": 0
          },
          {
            "number": 10,
            "time": 46.39283781249835,
            "value": 1
          },
          {
            "number": 10,
            "time": 46.41426637499835,
            "value": 0
          },
          {
            "number": 10,
            "time": 46.43569493749835,
            "value": 1
          },
          {
            "number": 10,
            "time": 46.457123499998346,
            "value": 0
          },
          {
            "number": 10,
            "time": 46.478552062498345,
            "value": 1
          },
          {
            "number": 10,
            "time": 46.499980624998344,
            "value": 0
          },
          {
            "number": 10,
            "time": 46.52140918749834,
            "value": 1
          },
          {
            "number": 10,
            "time": 46.54283774999834,
            "value": 0
          },
          {
            "number": 10,
            "time": 46.56426631249834,
            "value": 1
          },
          {
            "number": 10,
            "time": 46.58569487499834,
            "value": 0
          },
          {
            "number": 10,
            "time": 46.60712343749834,
            "value": 1
          },
          {
            "number": 10,
            "time": 46.628551999998336,
            "value": 0
          },
          {
            "number": 10,
            "time": 46.649980562498335,
            "value": 1
          },
          {
            "number": 10,
            "time": 46.671409124998334,
            "value": 0
          },
          {
            "number": 10,
            "time": 46.69283768749833,
            "value": 1
          },
          {
            "number": 10,
            "time": 46.71426624999833,
            "value": 0
          },
          {
            "number": 10,
            "time": 46.73569481249833,
            "value": 1
          },
          {
            "number": 10,
            "time": 46.75712337499833,
            "value": 0
          },
          {
            "number": 10,
            "time": 46.77855193749833,
            "value": 1
          },
          {
            "number": 10,
            "time": 46.79998049999833,
            "value": 0
          },
          {
            "number": 10,
            "time": 46.821409062498326,
            "value": 1
          },
          {
            "number": 10,
            "time": 46.842837624998324,
            "value": 0
          },
          {
            "number": 10,
            "time": 46.86426618749832,
            "value": 1
          },
          {
            "number": 10,
            "time": 46.88569474999832,
            "value": 0
          },
          {
            "number": 10,
            "time": 46.90712331249832,
            "value": 1
          },
          {
            "number": 10,
            "time": 46.92855187499832,
            "value": 0
          },
          {
            "number": 10,
            "time": 46.94998043749832,
            "value": 1
          },
          {
            "number": 10,
            "time": 46.97140899999832,
            "value": 0
          },
          {
            "number": 10,
            "time": 46.992837562498316,
            "value": 1
          },
          {
            "number": 10,
            "time": 47.014266124998315,
            "value": 0
          },
          {
            "number": 10,
            "time": 47.035694687498314,
            "value": 1
          },
          {
            "number": 10,
            "time": 47.05712324999831,
            "value": 0
          },
          {
            "number": 10,
            "time": 47.07855181249831,
            "value": 1
          },
          {
            "number": 10,
            "time": 47.09998037499831,
            "value": 0
          },
          {
            "number": 10,
            "time": 47.12140893749831,
            "value": 1
          },
          {
            "number": 10,
            "time": 47.14283749999831,
            "value": 0
          },
          {
            "number": 10,
            "time": 47.16426606249831,
            "value": 1
          },
          {
            "number": 10,
            "time": 47.185694624998305,
            "value": 0
          },
          {
            "number": 10,
            "time": 47.207123187498304,
            "value": 1
          },
          {
            "number": 10,
            "time": 47.2285517499983,
            "value": 0
          },
          {
            "number": 10,
            "time": 47.2499803124983,
            "value": 1
          },
          {
            "number": 10,
            "time": 47.2714088749983,
            "value": 0
          },
          {
            "number": 10,
            "time": 47.2928374374983,
            "value": 1
          },
          {
            "number": 10,
            "time": 47.3142659999983,
            "value": 0
          },
          {
            "number": 10,
            "time": 47.3356945624983,
            "value": 1
          },
          {
            "number": 10,
            "time": 47.357123124998296,
            "value": 0
          },
          {
            "number": 10,
            "time": 47.378551687498295,
            "value": 1
          },
          {
            "number": 10,
            "time": 47.39998024999829,
            "value": 0
          },
          {
            "number": 10,
            "time": 47.42140881249829,
            "value": 1
          },
          {
            "number": 10,
            "time": 47.44283737499829,
            "value": 0
          },
          {
            "number": 10,
            "time": 47.46426593749829,
            "value": 1
          },
          {
            "number": 10,
            "time": 47.48569449999829,
            "value": 0
          },
          {
            "number": 10,
            "time": 47.50712306249829,
            "value": 1
          },
          {
            "number": 10,
            "time": 47.528551624998286,
            "value": 0
          },
          {
            "number": 10,
            "time": 47.549980187498285,
            "value": 1
          },
          {
            "number": 10,
            "time": 47.571408749998284,
            "value": 0
          },
          {
            "number": 10,
            "time": 47.59283731249828,
            "value": 1
          },
          {
            "number": 10,
            "time": 47.61426587499828,
            "value": 0
          },
          {
            "number": 10,
            "time": 47.63569443749828,
            "value": 1
          },
          {
            "number": 10,
            "time": 47.65712299999828,
            "value": 0
          },
          {
            "number": 10,
            "time": 47.67855156249828,
            "value": 1
          },
          {
            "number": 10,
            "time": 47.69998012499828,
            "value": 0
          },
          {
            "number": 10,
            "time": 47.721408687498275,
            "value": 1
          },
          {
            "number": 10,
            "time": 47.742837249998274,
            "value": 0
          },
          {
            "number": 10,
            "time": 47.76426581249827,
            "value": 1
          },
          {
            "number": 10,
            "time": 47.78569437499827,
            "value": 0
          },
          {
            "number": 10,
            "time": 47.80712293749827,
            "value": 1
          },
          {
            "number": 10,
            "time": 47.82855149999827,
            "value": 0
          },
          {
            "number": 10,
            "time": 47.84998006249827,
            "value": 1
          },
          {
            "number": 10,
            "time": 47.87140862499827,
            "value": 0
          },
          {
            "number": 10,
            "time": 47.892837187498266,
            "value": 1
          },
          {
            "number": 10,
            "time": 47.914265749998265,
            "value": 0
          },
          {
            "number": 10,
            "time": 47.93569431249826,
            "value": 1
          },
          {
            "number": 10,
            "time": 47.95712287499826,
            "value": 0
          },
          {
            "number": 10,
            "time": 47.97855143749826,
            "value": 1
          },
          {
            "number": 10,
            "time": 47.99997999999826,
            "value": 0
          },
          {
            "number": 10,
            "time": 48.02140856249826,
            "value": 1
          },
          {
            "number": 10,
            "time": 48.04283712499826,
            "value": 0
          },
          {
            "number": 10,
            "time": 48.064265687498256,
            "value": 1
          },
          {
            "number": 10,
            "time": 48.085694249998255,
            "value": 0
          },
          {
            "number": 10,
            "time": 48.107122812498254,
            "value": 1
          },
          {
            "number": 10,
            "time": 48.12855137499825,
            "value": 0
          },
          {
            "number": 10,
            "time": 48.14997993749825,
            "value": 1
          },
          {
            "number": 10,
            "time": 48.17140849999825,
            "value": 0
          },
          {
            "number": 10,
            "time": 48.19283706249825,
            "value": 1
          },
          {
            "number": 10,
            "time": 48.21426562499825,
            "value": 0
          },
          {
            "number": 10,
            "time": 48.23569418749825,
            "value": 1
          },
          {
            "number": 10,
            "time": 48.257122749998246,
            "value": 0
          },
          {
            "number": 10,
            "time": 48.278551312498244,
            "value": 1
          },
          {
            "number": 10,
            "time": 48.29997987499824,
            "value": 0
          },
          {
            "number": 10,
            "time": 48.32140843749824,
            "value": 1
          },
          {
            "number": 10,
            "time": 48.34283699999824,
            "value": 0
          },
          {
            "number": 10,
            "time": 48.36426556249824,
            "value": 1
          },
          {
            "number": 10,
            "time": 48.38569412499824,
            "value": 0
          },
          {
            "number": 10,
            "time": 48.40712268749824,
            "value": 1
          },
          {
            "number": 10,
            "time": 48.428551249998236,
            "value": 0
          },
          {
            "number": 10,
            "time": 48.449979812498235,
            "value": 1
          },
          {
            "number": 10,
            "time": 48.471408374998234,
            "value": 0
          },
          {
            "number": 10,
            "time": 48.49283693749823,
            "value": 1
          },
          {
            "number": 10,
            "time": 48.51426549999823,
            "value": 0
          },
          {
            "number": 10,
            "time": 48.53569406249823,
            "value": 1
          },
          {
            "number": 10,
            "time": 48.55712262499823,
            "value": 0
          },
          {
            "number": 10,
            "time": 48.57855118749823,
            "value": 1
          },
          {
            "number": 10,
            "time": 48.59997974999823,
            "value": 0
          },
          {
            "number": 10,
            "time": 48.621408312498225,
            "value": 1
          },
          {
            "number": 10,
            "time": 48.642836874998224,
            "value": 0
          },
          {
            "number": 10,
            "time": 48.66426543749822,
            "value": 1
          },
          {
            "number": 10,
            "time": 48.68569399999822,
            "value": 0
          },
          {
            "number": 10,
            "time": 48.70712256249822,
            "value": 1
          },
          {
            "number": 10,
            "time": 48.72855112499822,
            "value": 0
          },
          {
            "number": 10,
            "time": 48.74997968749822,
            "value": 1
          },
          {
            "number": 10,
            "time": 48.77140824999822,
            "value": 0
          },
          {
            "number": 10,
            "time": 48.792836812498216,
            "value": 1
          },
          {
            "number": 10,
            "time": 48.814265374998214,
            "value": 0
          },
          {
            "number": 10,
            "time": 48.83569393749821,
            "value": 1
          },
          {
            "number": 10,
            "time": 48.85712249999821,
            "value": 0
          },
          {
            "number": 10,
            "time": 48.87855106249821,
            "value": 1
          },
          {
            "number": 10,
            "time": 48.89997962499821,
            "value": 0
          },
          {
            "number": 10,
            "time": 48.92140818749821,
            "value": 1
          },
          {
            "number": 10,
            "time": 48.94283674999821,
            "value": 0
          },
          {
            "number": 10,
            "time": 48.964265312498206,
            "value": 1
          },
          {
            "number": 10,
            "time": 48.985693874998205,
            "value": 0
          },
          {
            "number": 10,
            "time": 49.007122437498204,
            "value": 1
          },
          {
            "number": 10,
            "time": 49.0285509999982,
            "value": 0
          },
          {
            "number": 10,
            "time": 49.0499795624982,
            "value": 1
          },
          {
            "number": 10,
            "time": 49.0714081249982,
            "value": 0
          },
          {
            "number": 10,
            "time": 49.0928366874982,
            "value": 1
          },
          {
            "number": 10,
            "time": 49.1142652499982,
            "value": 0
          },
          {
            "number": 10,
            "time": 49.1356938124982,
            "value": 1
          },
          {
            "number": 10,
            "time": 49.157122374998195,
            "value": 0
          },
          {
            "number": 10,
            "time": 49.178550937498194,
            "value": 1
          },
          {
            "number": 10,
            "time": 49.19997949999819,
            "value": 0
          },
          {
            "number": 10,
            "time": 49.22140806249819,
            "value": 1
          },
          {
            "number": 10,
            "time": 49.24283662499819,
            "value": 0
          },
          {
            "number": 10,
            "time": 49.26426518749819,
            "value": 1
          },
          {
            "number": 10,
            "time": 49.28569374999819,
            "value": 0
          },
          {
            "number": 10,
            "time": 49.30712231249819,
            "value": 1
          },
          {
            "number": 10,
            "time": 49.328550874998186,
            "value": 0
          },
          {
            "number": 10,
            "time": 49.349979437498185,
            "value": 1
          },
          {
            "number": 10,
            "time": 49.37140799999818,
            "value": 0
          },
          {
            "number": 10,
            "time": 49.39283656249818,
            "value": 1
          },
          {
            "number": 10,
            "time": 49.41426512499818,
            "value": 0
          },
          {
            "number": 10,
            "time": 49.43569368749818,
            "value": 1
          },
          {
            "number": 10,
            "time": 49.45712224999818,
            "value": 0
          },
          {
            "number": 10,
            "time": 49.47855081249818,
            "value": 1
          },
          {
            "number": 10,
            "time": 49.499979374998176,
            "value": 0
          },
          {
            "number": 10,
            "time": 49.521407937498175,
            "value": 1
          },
          {
            "number": 10,
            "time": 49.542836499998174,
            "value": 0
          },
          {
            "number": 10,
            "time": 49.56426506249817,
            "value": 1
          },
          {
            "number": 10,
            "time": 49.58569362499817,
            "value": 0
          },
          {
            "number": 10,
            "time": 49.60712218749817,
            "value": 1
          },
          {
            "number": 10,
            "time": 49.62855074999817,
            "value": 0
          },
          {
            "number": 10,
            "time": 49.64997931249817,
            "value": 1
          },
          {
            "number": 10,
            "time": 49.67140787499817,
            "value": 0
          },
          {
            "number": 10,
            "time": 49.692836437498165,
            "value": 1
          },
          {
            "number": 10,
            "time": 49.714264999998164,
            "value": 0
          },
          {
            "number": 10,
            "time": 49.73569356249816,
            "value": 1
          },
          {
            "number": 10,
            "time": 49.75712212499816,
            "value": 0
          },
          {
            "number": 10,
            "time": 49.77855068749816,
            "value": 1
          },
          {
            "number": 10,
            "time": 49.79997924999816,
            "value": 0
          },
          {
            "number": 10,
            "time": 49.82140781249816,
            "value": 1
          },
          {
            "number": 10,
            "time": 49.84283637499816,
            "value": 0
          },
          {
            "number": 10,
            "time": 49.864264937498156,
            "value": 1
          },
          {
            "number": 10,
            "time": 49.885693499998155,
            "value": 0
          },
          {
            "number": 10,
            "time": 49.90712206249815,
            "value": 1
          },
          {
            "number": 10,
            "time": 49.92855062499815,
            "value": 0
          },
          {
            "number": 10,
            "time": 49.94997918749815,
            "value": 1
          },
          {
            "number": 10,
            "time": 49.97140774999815,
            "value": 0
          },
          {
            "number": 10,
            "time": 49.99283631249815,
            "value": 1
          },
          {
            "number": 10,
            "time": 50.01426487499815,
            "value": 0
          },
          {
            "number": 10,
            "time": 50.035693437498146,
            "value": 1
          },
          {
            "number": 10,
            "time": 50.057121999998145,
            "value": 0
          },
          {
            "number": 10,
            "time": 50.078550562498144,
            "value": 1
          },
          {
            "number": 10,
            "time": 50.09997912499814,
            "value": 0
          },
          {
            "number": 10,
            "time": 50.12140768749814,
            "value": 1
          },
          {
            "number": 10,
            "time": 50.14283624999814,
            "value": 0
          },
          {
            "number": 10,
            "time": 50.16426481249814,
            "value": 1
          },
          {
            "number": 10,
            "time": 50.18569337499814,
            "value": 0
          },
          {
            "number": 10,
            "time": 50.20712193749814,
            "value": 1
          },
          {
            "number": 10,
            "time": 50.228550499998136,
            "value": 0
          },
          {
            "number": 10,
            "time": 50.249979062498134,
            "value": 1
          },
          {
            "number": 10,
            "time": 50.27140762499813,
            "value": 0
          },
          {
            "number": 10,
            "time": 50.29283618749813,
            "value": 1
          },
          {
            "number": 10,
            "time": 50.31426474999813,
            "value": 0
          },
          {
            "number": 10,
            "time": 50.33569331249813,
            "value": 1
          },
          {
            "number": 10,
            "time": 50.35712187499813,
            "value": 0
          },
          {
            "number": 10,
            "time": 50.37855043749813,
            "value": 1
          },
          {
            "number": 10,
            "time": 50.399978999998126,
            "value": 0
          },
          {
            "number": 10,
            "time": 50.421407562498125,
            "value": 1
          },
          {
            "number": 10,
            "time": 50.442836124998124,
            "value": 0
          },
          {
            "number": 10,
            "time": 50.46426468749812,
            "value": 1
          },
          {
            "number": 10,
            "time": 50.48569324999812,
            "value": 0
          },
          {
            "number": 10,
            "time": 50.50712181249812,
            "value": 1
          },
          {
            "number": 10,
            "time": 50.52855037499812,
            "value": 0
          },
          {
            "number": 10,
            "time": 50.54997893749812,
            "value": 1
          },
          {
            "number": 10,
            "time": 50.57140749999812,
            "value": 0
          },
          {
            "number": 10,
            "time": 50.592836062498115,
            "value": 1
          },
          {
            "number": 10,
            "time": 50.614264624998114,
            "value": 0
          },
          {
            "number": 10,
            "time": 50.63569318749811,
            "value": 1
          },
          {
            "number": 10,
            "time": 50.65712174999811,
            "value": 0
          },
          {
            "number": 10,
            "time": 50.67855031249811,
            "value": 1
          },
          {
            "number": 10,
            "time": 50.69997887499811,
            "value": 0
          },
          {
            "number": 10,
            "time": 50.72140743749811,
            "value": 1
          },
          {
            "number": 10,
            "time": 50.74283599999811,
            "value": 0
          },
          {
            "number": 10,
            "time": 50.764264562498106,
            "value": 1
          },
          {
            "number": 10,
            "time": 50.785693124998105,
            "value": 0
          },
          {
            "number": 10,
            "time": 50.8071216874981,
            "value": 1
          },
          {
            "number": 10,
            "time": 50.8285502499981,
            "value": 0
          },
          {
            "number": 10,
            "time": 50.8499788124981,
            "value": 1
          },
          {
            "number": 10,
            "time": 50.8714073749981,
            "value": 0
          },
          {
            "number": 10,
            "time": 50.8928359374981,
            "value": 1
          },
          {
            "number": 10,
            "time": 50.9142644999981,
            "value": 0
          },
          {
            "number": 10,
            "time": 50.935693062498096,
            "value": 1
          },
          {
            "number": 10,
            "time": 50.957121624998095,
            "value": 0
          },
          {
            "number": 10,
            "time": 50.978550187498094,
            "value": 1
          },
          {
            "number": 10,
            "time": 50.99997874999809,
            "value": 0
          },
          {
            "number": 10,
            "time": 51.02140731249809,
            "value": 1
          },
          {
            "number": 10,
            "time": 51.04283587499809,
            "value": 0
          },
          {
            "number": 10,
            "time": 51.06426443749809,
            "value": 1
          },
          {
            "number": 10,
            "time": 51.08569299999809,
            "value": 0
          },
          {
            "number": 10,
            "time": 51.10712156249809,
            "value": 1
          },
          {
            "number": 10,
            "time": 51.128550124998085,
            "value": 0
          },
          {
            "number": 10,
            "time": 51.149978687498084,
            "value": 1
          },
          {
            "number": 10,
            "time": 51.17140724999808,
            "value": 0
          },
          {
            "number": 10,
            "time": 51.19283581249808,
            "value": 1
          },
          {
            "number": 10,
            "time": 51.21426437499808,
            "value": 0
          },
          {
            "number": 10,
            "time": 51.23569293749808,
            "value": 1
          },
          {
            "number": 10,
            "time": 51.25712149999808,
            "value": 0
          },
          {
            "number": 10,
            "time": 51.27855006249808,
            "value": 1
          },
          {
            "number": 10,
            "time": 51.299978624998076,
            "value": 0
          },
          {
            "number": 10,
            "time": 51.321407187498075,
            "value": 1
          },
          {
            "number": 10,
            "time": 51.34283574999807,
            "value": 0
          },
          {
            "number": 10,
            "time": 51.36426431249807,
            "value": 1
          },
          {
            "number": 10,
            "time": 51.38569287499807,
            "value": 0
          },
          {
            "number": 10,
            "time": 51.40712143749807,
            "value": 1
          },
          {
            "number": 10,
            "time": 51.42854999999807,
            "value": 0
          },
          {
            "number": 10,
            "time": 51.44997856249807,
            "value": 1
          },
          {
            "number": 10,
            "time": 51.471407124998066,
            "value": 0
          },
          {
            "number": 10,
            "time": 51.492835687498065,
            "value": 1
          },
          {
            "number": 10,
            "time": 51.514264249998064,
            "value": 0
          },
          {
            "number": 10,
            "time": 51.53569281249806,
            "value": 1
          },
          {
            "number": 10,
            "time": 51.55712137499806,
            "value": 0
          },
          {
            "number": 10,
            "time": 51.57854993749806,
            "value": 1
          },
          {
            "number": 10,
            "time": 51.59997849999806,
            "value": 0
          },
          {
            "number": 10,
            "time": 51.62140706249806,
            "value": 1
          },
          {
            "number": 10,
            "time": 51.64283562499806,
            "value": 0
          },
          {
            "number": 10,
            "time": 51.664264187498055,
            "value": 1
          },
          {
            "number": 10,
            "time": 51.685692749998054,
            "value": 0
          },
          {
            "number": 10,
            "time": 51.70712131249805,
            "value": 1
          },
          {
            "number": 10,
            "time": 51.72854987499805,
            "value": 0
          },
          {
            "number": 10,
            "time": 51.74997843749805,
            "value": 1
          },
          {
            "number": 10,
            "time": 51.77140699999805,
            "value": 0
          },
          {
            "number": 10,
            "time": 51.79283556249805,
            "value": 1
          },
          {
            "number": 10,
            "time": 51.81426412499805,
            "value": 0
          },
          {
            "number": 10,
            "time": 51.835692687498046,
            "value": 1
          },
          {
            "number": 10,
            "time": 51.857121249998045,
            "value": 0
          },
          {
            "number": 10,
            "time": 51.87854981249804,
            "value": 1
          },
          {
            "number": 10,
            "time": 51.89997837499804,
            "value": 0
          },
          {
            "number": 10,
            "time": 51.92140693749804,
            "value": 1
          },
          {
            "number": 10,
            "time": 51.94283549999804,
            "value": 0
          },
          {
            "number": 10,
            "time": 51.96426406249804,
            "value": 1
          },
          {
            "number": 10,
            "time": 51.98569262499804,
            "value": 0
          },
          {
            "number": 10,
            "time": 52.007121187498036,
            "value": 1
          },
          {
            "number": 10,
            "time": 52.028549749998035,
            "value": 0
          },
          {
            "number": 10,
            "time": 52.049978312498034,
            "value": 1
          },
          {
            "number": 10,
            "time": 52.07140687499803,
            "value": 0
          },
          {
            "number": 10,
            "time": 52.09283543749803,
            "value": 1
          },
          {
            "number": 10,
            "time": 52.11426399999803,
            "value": 0
          },
          {
            "number": 10,
            "time": 52.13569256249803,
            "value": 1
          },
          {
            "number": 10,
            "time": 52.15712112499803,
            "value": 0
          },
          {
            "number": 10,
            "time": 52.17854968749803,
            "value": 1
          },
          {
            "number": 10,
            "time": 52.199978249998026,
            "value": 0
          },
          {
            "number": 10,
            "time": 52.221406812498024,
            "value": 1
          },
          {
            "number": 10,
            "time": 52.24283537499802,
            "value": 0
          },
          {
            "number": 10,
            "time": 52.26426393749802,
            "value": 1
          },
          {
            "number": 10,
            "time": 52.28569249999802,
            "value": 0
          },
          {
            "number": 10,
            "time": 52.30712106249802,
            "value": 1
          },
          {
            "number": 10,
            "time": 52.32854962499802,
            "value": 0
          },
          {
            "number": 10,
            "time": 52.34997818749802,
            "value": 1
          },
          {
            "number": 10,
            "time": 52.371406749998016,
            "value": 0
          },
          {
            "number": 10,
            "time": 52.392835312498015,
            "value": 1
          },
          {
            "number": 10,
            "time": 52.414263874998014,
            "value": 0
          },
          {
            "number": 10,
            "time": 52.43569243749801,
            "value": 1
          },
          {
            "number": 10,
            "time": 52.45712099999801,
            "value": 0
          },
          {
            "number": 10,
            "time": 52.47854956249801,
            "value": 1
          },
          {
            "number": 10,
            "time": 52.49997812499801,
            "value": 0
          },
          {
            "number": 10,
            "time": 52.52140668749801,
            "value": 1
          },
          {
            "number": 10,
            "time": 52.54283524999801,
            "value": 0
          },
          {
            "number": 10,
            "time": 52.564263812498005,
            "value": 1
          },
          {
            "number": 10,
            "time": 52.585692374998004,
            "value": 0
          },
          {
            "number": 10,
            "time": 52.607120937498,
            "value": 1
          },
          {
            "number": 10,
            "time": 52.628549499998,
            "value": 0
          },
          {
            "number": 10,
            "time": 52.649978062498,
            "value": 1
          },
          {
            "number": 10,
            "time": 52.671406624998,
            "value": 0
          },
          {
            "number": 10,
            "time": 52.692835187498,
            "value": 1
          },
          {
            "number": 10,
            "time": 52.714263749998,
            "value": 0
          },
          {
            "number": 10,
            "time": 52.735692312497996,
            "value": 1
          },
          {
            "number": 10,
            "time": 52.757120874997995,
            "value": 0
          },
          {
            "number": 10,
            "time": 52.77854943749799,
            "value": 1
          },
          {
            "number": 10,
            "time": 52.79997799999799,
            "value": 0
          },
          {
            "number": 10,
            "time": 52.82140656249799,
            "value": 1
          },
          {
            "number": 10,
            "time": 52.84283512499799,
            "value": 0
          },
          {
            "number": 10,
            "time": 52.86426368749799,
            "value": 1
          },
          {
            "number": 10,
            "time": 52.88569224999799,
            "value": 0
          },
          {
            "number": 10,
            "time": 52.907120812497986,
            "value": 1
          },
          {
            "number": 10,
            "time": 52.928549374997985,
            "value": 0
          },
          {
            "number": 10,
            "time": 52.949977937497984,
            "value": 1
          },
          {
            "number": 10,
            "time": 52.97140649999798,
            "value": 0
          },
          {
            "number": 10,
            "time": 52.99283506249798,
            "value": 1
          },
          {
            "number": 10,
            "time": 53.01426362499798,
            "value": 0
          },
          {
            "number": 10,
            "time": 53.03569218749798,
            "value": 1
          },
          {
            "number": 10,
            "time": 53.05712074999798,
            "value": 0
          },
          {
            "number": 10,
            "time": 53.07854931249798,
            "value": 1
          },
          {
            "number": 10,
            "time": 53.099977874997975,
            "value": 0
          },
          {
            "number": 10,
            "time": 53.121406437497974,
            "value": 1
          },
          {
            "number": 10,
            "time": 53.14283499999797,
            "value": 0
          },
          {
            "number": 10,
            "time": 53.16426356249797,
            "value": 1
          },
          {
            "number": 10,
            "time": 53.18569212499797,
            "value": 0
          },
          {
            "number": 10,
            "time": 53.20712068749797,
            "value": 1
          },
          {
            "number": 10,
            "time": 53.22854924999797,
            "value": 0
          },
          {
            "number": 10,
            "time": 53.24997781249797,
            "value": 1
          },
          {
            "number": 10,
            "time": 53.271406374997966,
            "value": 0
          },
          {
            "number": 10,
            "time": 53.292834937497965,
            "value": 1
          },
          {
            "number": 10,
            "time": 53.31426349999796,
            "value": 0
          },
          {
            "number": 10,
            "time": 53.33569206249796,
            "value": 1
          },
          {
            "number": 10,
            "time": 53.35712062499796,
            "value": 0
          },
          {
            "number": 10,
            "time": 53.37854918749796,
            "value": 1
          },
          {
            "number": 10,
            "time": 53.39997774999796,
            "value": 0
          },
          {
            "number": 10,
            "time": 53.42140631249796,
            "value": 1
          },
          {
            "number": 10,
            "time": 53.442834874997956,
            "value": 0
          },
          {
            "number": 10,
            "time": 53.464263437497955,
            "value": 1
          },
          {
            "number": 10,
            "time": 53.485691999997954,
            "value": 0
          },
          {
            "number": 10,
            "time": 53.50712056249795,
            "value": 1
          },
          {
            "number": 10,
            "time": 53.52854912499795,
            "value": 0
          },
          {
            "number": 10,
            "time": 53.54997768749795,
            "value": 1
          },
          {
            "number": 10,
            "time": 53.57140624999795,
            "value": 0
          },
          {
            "number": 10,
            "time": 53.59283481249795,
            "value": 1
          },
          {
            "number": 10,
            "time": 53.61426337499795,
            "value": 0
          },
          {
            "number": 10,
            "time": 53.635691937497946,
            "value": 1
          },
          {
            "number": 10,
            "time": 53.657120499997944,
            "value": 0
          },
          {
            "number": 10,
            "time": 53.67854906249794,
            "value": 1
          },
          {
            "number": 10,
            "time": 53.69997762499794,
            "value": 0
          },
          {
            "number": 10,
            "time": 53.72140618749794,
            "value": 1
          },
          {
            "number": 10,
            "time": 53.74283474999794,
            "value": 0
          },
          {
            "number": 10,
            "time": 53.76426331249794,
            "value": 1
          },
          {
            "number": 10,
            "time": 53.78569187499794,
            "value": 0
          },
          {
            "number": 10,
            "time": 53.807120437497936,
            "value": 1
          },
          {
            "number": 10,
            "time": 53.828548999997935,
            "value": 0
          },
          {
            "number": 10,
            "time": 53.84997756249793,
            "value": 1
          },
          {
            "number": 10,
            "time": 53.87140612499793,
            "value": 0
          },
          {
            "number": 10,
            "time": 53.89283468749793,
            "value": 1
          },
          {
            "number": 10,
            "time": 53.91426324999793,
            "value": 0
          },
          {
            "number": 10,
            "time": 53.93569181249793,
            "value": 1
          },
          {
            "number": 10,
            "time": 53.95712037499793,
            "value": 0
          },
          {
            "number": 10,
            "time": 53.978548937497926,
            "value": 1
          },
          {
            "number": 10,
            "time": 53.999977499997925,
            "value": 0
          },
          {
            "number": 10,
            "time": 54.021406062497924,
            "value": 1
          },
          {
            "number": 10,
            "time": 54.04283462499792,
            "value": 0
          },
          {
            "number": 10,
            "time": 54.06426318749792,
            "value": 1
          },
          {
            "number": 10,
            "time": 54.08569174999792,
            "value": 0
          },
          {
            "number": 10,
            "time": 54.10712031249792,
            "value": 1
          },
          {
            "number": 10,
            "time": 54.12854887499792,
            "value": 0
          },
          {
            "number": 10,
            "time": 54.14997743749792,
            "value": 1
          },
          {
            "number": 10,
            "time": 54.171405999997916,
            "value": 0
          },
          {
            "number": 10,
            "time": 54.192834562497914,
            "value": 1
          },
          {
            "number": 10,
            "time": 54.21426312499791,
            "value": 0
          },
          {
            "number": 10,
            "time": 54.23569168749791,
            "value": 1
          },
          {
            "number": 10,
            "time": 54.25712024999791,
            "value": 0
          },
          {
            "number": 10,
            "time": 54.27854881249791,
            "value": 1
          },
          {
            "number": 10,
            "time": 54.29997737499791,
            "value": 0
          },
          {
            "number": 10,
            "time": 54.32140593749791,
            "value": 1
          },
          {
            "number": 10,
            "time": 54.342834499997906,
            "value": 0
          },
          {
            "number": 10,
            "time": 54.364263062497905,
            "value": 1
          },
          {
            "number": 10,
            "time": 54.385691624997904,
            "value": 0
          },
          {
            "number": 10,
            "time": 54.4071201874979,
            "value": 1
          },
          {
            "number": 10,
            "time": 54.4285487499979,
            "value": 0
          },
          {
            "number": 10,
            "time": 54.4499773124979,
            "value": 1
          },
          {
            "number": 10,
            "time": 54.4714058749979,
            "value": 0
          },
          {
            "number": 10,
            "time": 54.4928344374979,
            "value": 1
          },
          {
            "number": 10,
            "time": 54.5142629999979,
            "value": 0
          },
          {
            "number": 10,
            "time": 54.535691562497895,
            "value": 1
          },
          {
            "number": 10,
            "time": 54.557120124997894,
            "value": 0
          },
          {
            "number": 10,
            "time": 54.57854868749789,
            "value": 1
          },
          {
            "number": 10,
            "time": 54.59997724999789,
            "value": 0
          },
          {
            "number": 10,
            "time": 54.62140581249789,
            "value": 1
          },
          {
            "number": 10,
            "time": 54.64283437499789,
            "value": 0
          },
          {
            "number": 10,
            "time": 54.66426293749789,
            "value": 1
          },
          {
            "number": 10,
            "time": 54.68569149999789,
            "value": 0
          },
          {
            "number": 10,
            "time": 54.707120062497886,
            "value": 1
          },
          {
            "number": 10,
            "time": 54.728548624997885,
            "value": 0
          },
          {
            "number": 10,
            "time": 54.74997718749788,
            "value": 1
          },
          {
            "number": 10,
            "time": 54.77140574999788,
            "value": 0
          },
          {
            "number": 10,
            "time": 54.79283431249788,
            "value": 1
          },
          {
            "number": 10,
            "time": 54.81426287499788,
            "value": 0
          },
          {
            "number": 10,
            "time": 54.83569143749788,
            "value": 1
          },
          {
            "number": 10,
            "time": 54.85711999999788,
            "value": 0
          },
          {
            "number": 10,
            "time": 54.878548562497876,
            "value": 1
          },
          {
            "number": 10,
            "time": 54.899977124997875,
            "value": 0
          },
          {
            "number": 10,
            "time": 54.921405687497874,
            "value": 1
          },
          {
            "number": 10,
            "time": 54.94283424999787,
            "value": 0
          },
          {
            "number": 10,
            "time": 54.96426281249787,
            "value": 1
          },
          {
            "number": 10,
            "time": 54.98569137499787,
            "value": 0
          },
          {
            "number": 10,
            "time": 55.00711993749787,
            "value": 1
          },
          {
            "number": 10,
            "time": 55.02854849999787,
            "value": 0
          },
          {
            "number": 10,
            "time": 55.04997706249787,
            "value": 1
          },
          {
            "number": 10,
            "time": 55.071405624997865,
            "value": 0
          },
          {
            "number": 10,
            "time": 55.092834187497864,
            "value": 1
          },
          {
            "number": 10,
            "time": 55.11426274999786,
            "value": 0
          },
          {
            "number": 10,
            "time": 55.13569131249786,
            "value": 1
          },
          {
            "number": 10,
            "time": 55.15711987499786,
            "value": 0
          },
          {
            "number": 10,
            "time": 55.17854843749786,
            "value": 1
          },
          {
            "number": 10,
            "time": 55.19997699999786,
            "value": 0
          },
          {
            "number": 10,
            "time": 55.22140556249786,
            "value": 1
          },
          {
            "number": 10,
            "time": 55.242834124997856,
            "value": 0
          },
          {
            "number": 10,
            "time": 55.264262687497855,
            "value": 1
          },
          {
            "number": 10,
            "time": 55.28569124999785,
            "value": 0
          },
          {
            "number": 10,
            "time": 55.30711981249785,
            "value": 1
          },
          {
            "number": 10,
            "time": 55.32854837499785,
            "value": 0
          },
          {
            "number": 10,
            "time": 55.34997693749785,
            "value": 1
          },
          {
            "number": 10,
            "time": 55.37140549999785,
            "value": 0
          },
          {
            "number": 10,
            "time": 55.39283406249785,
            "value": 1
          },
          {
            "number": 10,
            "time": 55.414262624997846,
            "value": 0
          },
          {
            "number": 10,
            "time": 55.435691187497845,
            "value": 1
          },
          {
            "number": 10,
            "time": 55.457119749997844,
            "value": 0
          },
          {
            "number": 10,
            "time": 55.47854831249784,
            "value": 1
          },
          {
            "number": 10,
            "time": 55.49997687499784,
            "value": 0
          },
          {
            "number": 10,
            "time": 55.52140543749784,
            "value": 1
          },
          {
            "number": 10,
            "time": 55.54283399999784,
            "value": 0
          },
          {
            "number": 10,
            "time": 55.56426256249784,
            "value": 1
          },
          {
            "number": 10,
            "time": 55.58569112499784,
            "value": 0
          },
          {
            "number": 10,
            "time": 55.607119687497836,
            "value": 1
          },
          {
            "number": 10,
            "time": 55.628548249997834,
            "value": 0
          },
          {
            "number": 10,
            "time": 55.64997681249783,
            "value": 1
          },
          {
            "number": 10,
            "time": 55.67140537499783,
            "value": 0
          },
          {
            "number": 10,
            "time": 55.69283393749783,
            "value": 1
          },
          {
            "number": 10,
            "time": 55.71426249999783,
            "value": 0
          },
          {
            "number": 10,
            "time": 55.73569106249783,
            "value": 1
          },
          {
            "number": 10,
            "time": 55.75711962499783,
            "value": 0
          },
          {
            "number": 10,
            "time": 55.778548187497826,
            "value": 1
          },
          {
            "number": 10,
            "time": 55.799976749997825,
            "value": 0
          },
          {
            "number": 10,
            "time": 55.821405312497824,
            "value": 1
          },
          {
            "number": 10,
            "time": 55.84283387499782,
            "value": 0
          },
          {
            "number": 10,
            "time": 55.86426243749782,
            "value": 1
          },
          {
            "number": 10,
            "time": 55.88569099999782,
            "value": 0
          },
          {
            "number": 10,
            "time": 55.90711956249782,
            "value": 1
          },
          {
            "number": 10,
            "time": 55.92854812499782,
            "value": 0
          },
          {
            "number": 10,
            "time": 55.949976687497816,
            "value": 1
          },
          {
            "number": 10,
            "time": 55.971405249997815,
            "value": 0
          },
          {
            "number": 10,
            "time": 55.992833812497814,
            "value": 1
          },
          {
            "number": 10,
            "time": 56.01426237499781,
            "value": 0
          },
          {
            "number": 10,
            "time": 56.03569093749781,
            "value": 1
          },
          {
            "number": 10,
            "time": 56.05711949999781,
            "value": 0
          },
          {
            "number": 10,
            "time": 56.07854806249781,
            "value": 1
          },
          {
            "number": 10,
            "time": 56.09997662499781,
            "value": 0
          },
          {
            "number": 10,
            "time": 56.12140518749781,
            "value": 1
          },
          {
            "number": 10,
            "time": 56.142833749997806,
            "value": 0
          },
          {
            "number": 10,
            "time": 56.164262312497804,
            "value": 1
          },
          {
            "number": 10,
            "time": 56.1856908749978,
            "value": 0
          },
          {
            "number": 10,
            "time": 56.2071194374978,
            "value": 1
          },
          {
            "number": 10,
            "time": 56.2285479999978,
            "value": 0
          },
          {
            "number": 10,
            "time": 56.2499765624978,
            "value": 1
          },
          {
            "number": 10,
            "time": 56.2714051249978,
            "value": 0
          },
          {
            "number": 10,
            "time": 56.2928336874978,
            "value": 1
          },
          {
            "number": 10,
            "time": 56.314262249997796,
            "value": 0
          },
          {
            "number": 10,
            "time": 56.335690812497795,
            "value": 1
          },
          {
            "number": 10,
            "time": 56.357119374997794,
            "value": 0
          },
          {
            "number": 10,
            "time": 56.37854793749779,
            "value": 1
          },
          {
            "number": 10,
            "time": 56.39997649999779,
            "value": 0
          },
          {
            "number": 10,
            "time": 56.42140506249779,
            "value": 1
          },
          {
            "number": 10,
            "time": 56.44283362499779,
            "value": 0
          },
          {
            "number": 10,
            "time": 56.46426218749779,
            "value": 1
          },
          {
            "number": 10,
            "time": 56.48569074999779,
            "value": 0
          },
          {
            "number": 10,
            "time": 56.507119312497785,
            "value": 1
          },
          {
            "number": 10,
            "time": 56.528547874997784,
            "value": 0
          },
          {
            "number": 10,
            "time": 56.54997643749778,
            "value": 1
          },
          {
            "number": 10,
            "time": 56.57140499999778,
            "value": 0
          },
          {
            "number": 10,
            "time": 56.59283356249778,
            "value": 1
          },
          {
            "number": 10,
            "time": 56.61426212499778,
            "value": 0
          },
          {
            "number": 10,
            "time": 56.63569068749778,
            "value": 1
          },
          {
            "number": 10,
            "time": 56.65711924999778,
            "value": 0
          },
          {
            "number": 10,
            "time": 56.678547812497776,
            "value": 1
          },
          {
            "number": 10,
            "time": 56.699976374997775,
            "value": 0
          },
          {
            "number": 10,
            "time": 56.72140493749777,
            "value": 1
          },
          {
            "number": 10,
            "time": 56.74283349999777,
            "value": 0
          },
          {
            "number": 10,
            "time": 56.76426206249777,
            "value": 1
          },
          {
            "number": 10,
            "time": 56.78569062499777,
            "value": 0
          },
          {
            "number": 10,
            "time": 56.80711918749777,
            "value": 1
          },
          {
            "number": 10,
            "time": 56.82854774999777,
            "value": 0
          },
          {
            "number": 10,
            "time": 56.849976312497766,
            "value": 1
          },
          {
            "number": 10,
            "time": 56.871404874997765,
            "value": 0
          },
          {
            "number": 10,
            "time": 56.892833437497764,
            "value": 1
          },
          {
            "number": 10,
            "time": 56.91426199999776,
            "value": 0
          },
          {
            "number": 10,
            "time": 56.93569056249776,
            "value": 1
          },
          {
            "number": 10,
            "time": 56.95711912499776,
            "value": 0
          },
          {
            "number": 10,
            "time": 56.97854768749776,
            "value": 1
          },
          {
            "number": 10,
            "time": 56.99997624999776,
            "value": 0
          },
          {
            "number": 10,
            "time": 57.02140481249776,
            "value": 1
          },
          {
            "number": 10,
            "time": 57.042833374997755,
            "value": 0
          },
          {
            "number": 10,
            "time": 57.064261937497754,
            "value": 1
          },
          {
            "number": 10,
            "time": 57.08569049999775,
            "value": 0
          },
          {
            "number": 10,
            "time": 57.10711906249775,
            "value": 1
          },
          {
            "number": 10,
            "time": 57.12854762499775,
            "value": 0
          },
          {
            "number": 10,
            "time": 57.14997618749775,
            "value": 1
          },
          {
            "number": 10,
            "time": 57.17140474999775,
            "value": 0
          },
          {
            "number": 10,
            "time": 57.19283331249775,
            "value": 1
          },
          {
            "number": 10,
            "time": 57.214261874997746,
            "value": 0
          },
          {
            "number": 10,
            "time": 57.235690437497745,
            "value": 1
          },
          {
            "number": 10,
            "time": 57.25711899999774,
            "value": 0
          },
          {
            "number": 10,
            "time": 57.27854756249774,
            "value": 1
          },
          {
            "number": 10,
            "time": 57.29997612499774,
            "value": 0
          },
          {
            "number": 10,
            "time": 57.32140468749774,
            "value": 1
          },
          {
            "number": 10,
            "time": 57.34283324999774,
            "value": 0
          },
          {
            "number": 10,
            "time": 57.36426181249774,
            "value": 1
          },
          {
            "number": 10,
            "time": 57.385690374997736,
            "value": 0
          },
          {
            "number": 10,
            "time": 57.407118937497735,
            "value": 1
          },
          {
            "number": 10,
            "time": 57.428547499997734,
            "value": 0
          },
          {
            "number": 10,
            "time": 57.44997606249773,
            "value": 1
          },
          {
            "number": 10,
            "time": 57.47140462499773,
            "value": 0
          },
          {
            "number": 10,
            "time": 57.49283318749773,
            "value": 1
          },
          {
            "number": 10,
            "time": 57.51426174999773,
            "value": 0
          },
          {
            "number": 10,
            "time": 57.53569031249773,
            "value": 1
          },
          {
            "number": 10,
            "time": 57.55711887499773,
            "value": 0
          },
          {
            "number": 10,
            "time": 57.578547437497726,
            "value": 1
          },
          {
            "number": 10,
            "time": 57.599975999997724,
            "value": 0
          },
          {
            "number": 10,
            "time": 57.62140456249772,
            "value": 1
          },
          {
            "number": 10,
            "time": 57.64283312499772,
            "value": 0
          },
          {
            "number": 10,
            "time": 57.66426168749772,
            "value": 1
          },
          {
            "number": 10,
            "time": 57.68569024999772,
            "value": 0
          },
          {
            "number": 10,
            "time": 57.70711881249772,
            "value": 1
          },
          {
            "number": 10,
            "time": 57.72854737499772,
            "value": 0
          },
          {
            "number": 10,
            "time": 57.749975937497716,
            "value": 1
          },
          {
            "number": 10,
            "time": 57.771404499997715,
            "value": 0
          },
          {
            "number": 10,
            "time": 57.792833062497714,
            "value": 1
          },
          {
            "number": 10,
            "time": 57.81426162499771,
            "value": 0
          },
          {
            "number": 10,
            "time": 57.83569018749771,
            "value": 1
          },
          {
            "number": 10,
            "time": 57.85711874999771,
            "value": 0
          },
          {
            "number": 10,
            "time": 57.87854731249771,
            "value": 1
          },
          {
            "number": 10,
            "time": 57.89997587499771,
            "value": 0
          },
          {
            "number": 10,
            "time": 57.921404437497706,
            "value": 1
          },
          {
            "number": 10,
            "time": 57.942832999997705,
            "value": 0
          },
          {
            "number": 10,
            "time": 57.964261562497704,
            "value": 1
          },
          {
            "number": 10,
            "time": 57.9856901249977,
            "value": 0
          },
          {
            "number": 10,
            "time": 58.0071186874977,
            "value": 1
          },
          {
            "number": 10,
            "time": 58.0285472499977,
            "value": 0
          },
          {
            "number": 10,
            "time": 58.0499758124977,
            "value": 1
          },
          {
            "number": 10,
            "time": 58.0714043749977,
            "value": 0
          },
          {
            "number": 10,
            "time": 58.0928329374977,
            "value": 1
          },
          {
            "number": 10,
            "time": 58.114261499997696,
            "value": 0
          },
          {
            "number": 10,
            "time": 58.135690062497694,
            "value": 1
          },
          {
            "number": 10,
            "time": 58.15711862499769,
            "value": 0
          },
          {
            "number": 10,
            "time": 58.17854718749769,
            "value": 1
          },
          {
            "number": 10,
            "time": 58.19997574999769,
            "value": 0
          },
          {
            "number": 10,
            "time": 58.22140431249769,
            "value": 1
          },
          {
            "number": 10,
            "time": 58.24283287499769,
            "value": 0
          },
          {
            "number": 10,
            "time": 58.26426143749769,
            "value": 1
          },
          {
            "number": 10,
            "time": 58.285689999997686,
            "value": 0
          },
          {
            "number": 10,
            "time": 58.307118562497685,
            "value": 1
          },
          {
            "number": 10,
            "time": 58.328547124997684,
            "value": 0
          },
          {
            "number": 10,
            "time": 58.34997568749768,
            "value": 1
          },
          {
            "number": 10,
            "time": 58.37140424999768,
            "value": 0
          },
          {
            "number": 10,
            "time": 58.39283281249768,
            "value": 1
          },
          {
            "number": 10,
            "time": 58.41426137499768,
            "value": 0
          },
          {
            "number": 10,
            "time": 58.43568993749768,
            "value": 1
          },
          {
            "number": 10,
            "time": 58.45711849999768,
            "value": 0
          },
          {
            "number": 10,
            "time": 58.478547062497675,
            "value": 1
          },
          {
            "number": 10,
            "time": 58.499975624997674,
            "value": 0
          },
          {
            "number": 10,
            "time": 58.52140418749767,
            "value": 1
          },
          {
            "number": 10,
            "time": 58.54283274999767,
            "value": 0
          },
          {
            "number": 10,
            "time": 58.56426131249767,
            "value": 1
          },
          {
            "number": 10,
            "time": 58.58568987499767,
            "value": 0
          },
          {
            "number": 10,
            "time": 58.60711843749767,
            "value": 1
          },
          {
            "number": 10,
            "time": 58.62854699999767,
            "value": 0
          },
          {
            "number": 10,
            "time": 58.649975562497666,
            "value": 1
          },
          {
            "number": 10,
            "time": 58.671404124997665,
            "value": 0
          },
          {
            "number": 10,
            "time": 58.69283268749766,
            "value": 1
          },
          {
            "number": 10,
            "time": 58.71426124999766,
            "value": 0
          },
          {
            "number": 10,
            "time": 58.73568981249766,
            "value": 1
          },
          {
            "number": 10,
            "time": 58.75711837499766,
            "value": 0
          },
          {
            "number": 10,
            "time": 58.77854693749766,
            "value": 1
          },
          {
            "number": 10,
            "time": 58.79997549999766,
            "value": 0
          },
          {
            "number": 10,
            "time": 58.821404062497656,
            "value": 1
          },
          {
            "number": 10,
            "time": 58.842832624997655,
            "value": 0
          },
          {
            "number": 10,
            "time": 58.864261187497654,
            "value": 1
          },
          {
            "number": 10,
            "time": 58.88568974999765,
            "value": 0
          },
          {
            "number": 10,
            "time": 58.90711831249765,
            "value": 1
          },
          {
            "number": 10,
            "time": 58.92854687499765,
            "value": 0
          },
          {
            "number": 10,
            "time": 58.94997543749765,
            "value": 1
          },
          {
            "number": 10,
            "time": 58.97140399999765,
            "value": 0
          },
          {
            "number": 10,
            "time": 58.99283256249765,
            "value": 1
          },
          {
            "number": 10,
            "time": 59.014261124997645,
            "value": 0
          },
          {
            "number": 10,
            "time": 59.035689687497644,
            "value": 1
          },
          {
            "number": 10,
            "time": 59.05711824999764,
            "value": 0
          },
          {
            "number": 10,
            "time": 59.07854681249764,
            "value": 1
          },
          {
            "number": 10,
            "time": 59.09997537499764,
            "value": 0
          },
          {
            "number": 10,
            "time": 59.12140393749764,
            "value": 1
          },
          {
            "number": 10,
            "time": 59.14283249999764,
            "value": 0
          },
          {
            "number": 10,
            "time": 59.16426106249764,
            "value": 1
          },
          {
            "number": 10,
            "time": 59.185689624997636,
            "value": 0
          },
          {
            "number": 10,
            "time": 59.207118187497635,
            "value": 1
          },
          {
            "number": 10,
            "time": 59.22854674999763,
            "value": 0
          },
          {
            "number": 10,
            "time": 59.24997531249763,
            "value": 1
          },
          {
            "number": 10,
            "time": 59.27140387499763,
            "value": 0
          },
          {
            "number": 10,
            "time": 59.29283243749763,
            "value": 1
          },
          {
            "number": 10,
            "time": 59.31426099999763,
            "value": 0
          },
          {
            "number": 10,
            "time": 59.33568956249763,
            "value": 1
          },
          {
            "number": 10,
            "time": 59.357118124997626,
            "value": 0
          },
          {
            "number": 10,
            "time": 59.378546687497625,
            "value": 1
          },
          {
            "number": 10,
            "time": 59.399975249997624,
            "value": 0
          },
          {
            "number": 10,
            "time": 59.42140381249762,
            "value": 1
          },
          {
            "number": 10,
            "time": 59.44283237499762,
            "value": 0
          },
          {
            "number": 10,
            "time": 59.46426093749762,
            "value": 1
          },
          {
            "number": 10,
            "time": 59.48568949999762,
            "value": 0
          },
          {
            "number": 10,
            "time": 59.50711806249762,
            "value": 1
          },
          {
            "number": 10,
            "time": 59.52854662499762,
            "value": 0
          },
          {
            "number": 10,
            "time": 59.549975187497616,
            "value": 1
          },
          {
            "number": 10,
            "time": 59.571403749997614,
            "value": 0
          },
          {
            "number": 10,
            "time": 59.59283231249761,
            "value": 1
          },
          {
            "number": 10,
            "time": 59.61426087499761,
            "value": 0
          },
          {
            "number": 10,
            "time": 59.63568943749761,
            "value": 1
          },
          {
            "number": 10,
            "time": 59.65711799999761,
            "value": 0
          },
          {
            "number": 10,
            "time": 59.67854656249761,
            "value": 1
          },
          {
            "number": 10,
            "time": 59.69997512499761,
            "value": 0
          },
          {
            "number": 10,
            "time": 59.721403687497606,
            "value": 1
          },
          {
            "number": 10,
            "time": 59.742832249997605,
            "value": 0
          },
          {
            "number": 10,
            "time": 59.764260812497604,
            "value": 1
          },
          {
            "number": 10,
            "time": 59.7856893749976,
            "value": 0
          },
          {
            "number": 10,
            "time": 59.8071179374976,
            "value": 1
          },
          {
            "number": 10,
            "time": 59.8285464999976,
            "value": 0
          },
          {
            "number": 10,
            "time": 59.8499750624976,
            "value": 1
          },
          {
            "number": 10,
            "time": 59.8714036249976,
            "value": 0
          },
          {
            "number": 10,
            "time": 59.892832187497596,
            "value": 1
          },
          {
            "number": 10,
            "time": 59.914260749997595,
            "value": 0
          },
          {
            "number": 10,
            "time": 59.935689312497594,
            "value": 1
          },
          {
            "number": 10,
            "time": 59.95711787499759,
            "value": 0
          },
          {
            "number": 10,
            "time": 59.97854643749759,
            "value": 1
          },
          {
            "number": 10,
            "time": 59.99997499999759,
            "value": 0
          },
          {
            "number": 10,
            "time": 60.02140356249759,
            "value": 1
          },
          {
            "number": 10,
            "time": 60.04283212499759,
            "value": 0
          },
          {
            "number": 10,
            "time": 60.06426068749759,
            "value": 1
          },
          {
            "number": 10,
            "time": 60.085689249997586,
            "value": 0
          },
          {
            "number": 10,
            "time": 60.107117812497584,
            "value": 1
          },
          {
            "number": 10,
            "time": 60.12854637499758,
            "value": 0
          },
          {
            "number": 10,
            "time": 60.14997493749758,
            "value": 1
          },
          {
            "number": 10,
            "time": 60.17140349999758,
            "value": 0
          },
          {
            "number": 10,
            "time": 60.19283206249758,
            "value": 1
          },
          {
            "number": 10,
            "time": 60.21426062499758,
            "value": 0
          },
          {
            "number": 10,
            "time": 60.23568918749758,
            "value": 1
          },
          {
            "number": 10,
            "time": 60.257117749997576,
            "value": 0
          },
          {
            "number": 10,
            "time": 60.278546312497575,
            "value": 1
          },
          {
            "number": 10,
            "time": 60.299974874997574,
            "value": 0
          },
          {
            "number": 10,
            "time": 60.32140343749757,
            "value": 1
          },
          {
            "number": 10,
            "time": 60.34283199999757,
            "value": 0
          },
          {
            "number": 10,
            "time": 60.36426056249757,
            "value": 1
          },
          {
            "number": 10,
            "time": 60.38568912499757,
            "value": 0
          },
          {
            "number": 10,
            "time": 60.40711768749757,
            "value": 1
          },
          {
            "number": 10,
            "time": 60.42854624999757,
            "value": 0
          },
          {
            "number": 10,
            "time": 60.449974812497565,
            "value": 1
          },
          {
            "number": 10,
            "time": 60.471403374997564,
            "value": 0
          },
          {
            "number": 10,
            "time": 60.49283193749756,
            "value": 1
          },
          {
            "number": 10,
            "time": 60.51426049999756,
            "value": 0
          },
          {
            "number": 10,
            "time": 60.53568906249756,
            "value": 1
          },
          {
            "number": 10,
            "time": 60.55711762499756,
            "value": 0
          },
          {
            "number": 10,
            "time": 60.57854618749756,
            "value": 1
          },
          {
            "number": 10,
            "time": 60.59997474999756,
            "value": 0
          },
          {
            "number": 10,
            "time": 60.621403312497556,
            "value": 1
          },
          {
            "number": 10,
            "time": 60.642831874997555,
            "value": 0
          },
          {
            "number": 10,
            "time": 60.66426043749755,
            "value": 1
          },
          {
            "number": 10,
            "time": 60.68568899999755,
            "value": 0
          },
          {
            "number": 10,
            "time": 60.70711756249755,
            "value": 1
          },
          {
            "number": 10,
            "time": 60.72854612499755,
            "value": 0
          },
          {
            "number": 10,
            "time": 60.74997468749755,
            "value": 1
          },
          {
            "number": 10,
            "time": 60.77140324999755,
            "value": 0
          },
          {
            "number": 10,
            "time": 60.792831812497546,
            "value": 1
          },
          {
            "number": 10,
            "time": 60.814260374997545,
            "value": 0
          },
          {
            "number": 10,
            "time": 60.835688937497544,
            "value": 1
          },
          {
            "number": 10,
            "time": 60.85711749999754,
            "value": 0
          },
          {
            "number": 10,
            "time": 60.87854606249754,
            "value": 1
          },
          {
            "number": 10,
            "time": 60.89997462499754,
            "value": 0
          },
          {
            "number": 10,
            "time": 60.92140318749754,
            "value": 1
          },
          {
            "number": 10,
            "time": 60.94283174999754,
            "value": 0
          },
          {
            "number": 10,
            "time": 60.96426031249754,
            "value": 1
          },
          {
            "number": 10,
            "time": 60.985688874997535,
            "value": 0
          },
          {
            "number": 10,
            "time": 61.007117437497534,
            "value": 1
          },
          {
            "number": 10,
            "time": 61.02854599999753,
            "value": 0
          },
          {
            "number": 10,
            "time": 61.04997456249753,
            "value": 1
          },
          {
            "number": 10,
            "time": 61.07140312499753,
            "value": 0
          },
          {
            "number": 10,
            "time": 61.09283168749753,
            "value": 1
          },
          {
            "number": 10,
            "time": 61.11426024999753,
            "value": 0
          },
          {
            "number": 10,
            "time": 61.13568881249753,
            "value": 1
          },
          {
            "number": 10,
            "time": 61.157117374997526,
            "value": 0
          },
          {
            "number": 10,
            "time": 61.178545937497525,
            "value": 1
          },
          {
            "number": 10,
            "time": 61.19997449999752,
            "value": 0
          },
          {
            "number": 10,
            "time": 61.22140306249752,
            "value": 1
          },
          {
            "number": 10,
            "time": 61.24283162499752,
            "value": 0
          },
          {
            "number": 10,
            "time": 61.26426018749752,
            "value": 1
          },
          {
            "number": 10,
            "time": 61.28568874999752,
            "value": 0
          },
          {
            "number": 10,
            "time": 61.30711731249752,
            "value": 1
          },
          {
            "number": 10,
            "time": 61.328545874997516,
            "value": 0
          },
          {
            "number": 10,
            "time": 61.349974437497515,
            "value": 1
          },
          {
            "number": 10,
            "time": 61.371402999997514,
            "value": 0
          },
          {
            "number": 10,
            "time": 61.39283156249751,
            "value": 1
          },
          {
            "number": 10,
            "time": 61.41426012499751,
            "value": 0
          },
          {
            "number": 10,
            "time": 61.43568868749751,
            "value": 1
          },
          {
            "number": 10,
            "time": 61.45711724999751,
            "value": 0
          },
          {
            "number": 10,
            "time": 61.47854581249751,
            "value": 1
          },
          {
            "number": 10,
            "time": 61.49997437499751,
            "value": 0
          },
          {
            "number": 10,
            "time": 61.521402937497506,
            "value": 1
          },
          {
            "number": 10,
            "time": 61.542831499997504,
            "value": 0
          },
          {
            "number": 10,
            "time": 61.5642600624975,
            "value": 1
          },
          {
            "number": 10,
            "time": 61.5856886249975,
            "value": 0
          },
          {
            "number": 10,
            "time": 61.6071171874975,
            "value": 1
          },
          {
            "number": 10,
            "time": 61.6285457499975,
            "value": 0
          },
          {
            "number": 10,
            "time": 61.6499743124975,
            "value": 1
          },
          {
            "number": 10,
            "time": 61.6714028749975,
            "value": 0
          },
          {
            "number": 10,
            "time": 61.692831437497496,
            "value": 1
          },
          {
            "number": 10,
            "time": 61.714259999997495,
            "value": 0
          },
          {
            "number": 10,
            "time": 61.735688562497494,
            "value": 1
          },
          {
            "number": 10,
            "time": 61.75711712499749,
            "value": 0
          },
          {
            "number": 10,
            "time": 61.77854568749749,
            "value": 1
          },
          {
            "number": 10,
            "time": 61.79997424999749,
            "value": 0
          },
          {
            "number": 10,
            "time": 61.82140281249749,
            "value": 1
          },
          {
            "number": 10,
            "time": 61.84283137499749,
            "value": 0
          },
          {
            "number": 10,
            "time": 61.864259937497486,
            "value": 1
          },
          {
            "number": 10,
            "time": 61.885688499997485,
            "value": 0
          },
          {
            "number": 10,
            "time": 61.907117062497484,
            "value": 1
          },
          {
            "number": 10,
            "time": 61.92854562499748,
            "value": 0
          },
          {
            "number": 10,
            "time": 61.94997418749748,
            "value": 1
          },
          {
            "number": 10,
            "time": 61.97140274999748,
            "value": 0
          },
          {
            "number": 10,
            "time": 61.99283131249748,
            "value": 1
          },
          {
            "number": 10,
            "time": 62.01425987499748,
            "value": 0
          },
          {
            "number": 10,
            "time": 62.03568843749748,
            "value": 1
          },
          {
            "number": 10,
            "time": 62.057116999997476,
            "value": 0
          },
          {
            "number": 10,
            "time": 62.078545562497474,
            "value": 1
          },
          {
            "number": 10,
            "time": 62.09997412499747,
            "value": 0
          },
          {
            "number": 10,
            "time": 62.12140268749747,
            "value": 1
          },
          {
            "number": 10,
            "time": 62.14283124999747,
            "value": 0
          },
          {
            "number": 10,
            "time": 62.16425981249747,
            "value": 1
          },
          {
            "number": 10,
            "time": 62.18568837499747,
            "value": 0
          },
          {
            "number": 10,
            "time": 62.20711693749747,
            "value": 1
          },
          {
            "number": 10,
            "time": 62.228545499997466,
            "value": 0
          },
          {
            "number": 10,
            "time": 62.249974062497465,
            "value": 1
          },
          {
            "number": 10,
            "time": 62.271402624997464,
            "value": 0
          },
          {
            "number": 10,
            "time": 62.29283118749746,
            "value": 1
          },
          {
            "number": 10,
            "time": 62.31425974999746,
            "value": 0
          },
          {
            "number": 10,
            "time": 62.33568831249746,
            "value": 1
          },
          {
            "number": 10,
            "time": 62.35711687499746,
            "value": 0
          },
          {
            "number": 10,
            "time": 62.37854543749746,
            "value": 1
          },
          {
            "number": 10,
            "time": 62.39997399999746,
            "value": 0
          },
          {
            "number": 10,
            "time": 62.421402562497455,
            "value": 1
          },
          {
            "number": 10,
            "time": 62.442831124997454,
            "value": 0
          },
          {
            "number": 10,
            "time": 62.46425968749745,
            "value": 1
          },
          {
            "number": 10,
            "time": 62.48568824999745,
            "value": 0
          },
          {
            "number": 10,
            "time": 62.50711681249745,
            "value": 1
          },
          {
            "number": 10,
            "time": 62.52854537499745,
            "value": 0
          },
          {
            "number": 10,
            "time": 62.54997393749745,
            "value": 1
          },
          {
            "number": 10,
            "time": 62.57140249999745,
            "value": 0
          },
          {
            "number": 10,
            "time": 62.592831062497446,
            "value": 1
          },
          {
            "number": 10,
            "time": 62.614259624997445,
            "value": 0
          },
          {
            "number": 10,
            "time": 62.63568818749744,
            "value": 1
          },
          {
            "number": 10,
            "time": 62.65711674999744,
            "value": 0
          },
          {
            "number": 10,
            "time": 62.67854531249744,
            "value": 1
          },
          {
            "number": 10,
            "time": 62.69997387499744,
            "value": 0
          },
          {
            "number": 10,
            "time": 62.72140243749744,
            "value": 1
          },
          {
            "number": 10,
            "time": 62.74283099999744,
            "value": 0
          },
          {
            "number": 10,
            "time": 62.764259562497436,
            "value": 1
          },
          {
            "number": 10,
            "time": 62.785688124997435,
            "value": 0
          },
          {
            "number": 10,
            "time": 62.807116687497434,
            "value": 1
          },
          {
            "number": 10,
            "time": 62.82854524999743,
            "value": 0
          },
          {
            "number": 10,
            "time": 62.84997381249743,
            "value": 1
          },
          {
            "number": 10,
            "time": 62.87140237499743,
            "value": 0
          },
          {
            "number": 10,
            "time": 62.89283093749743,
            "value": 1
          },
          {
            "number": 10,
            "time": 62.91425949999743,
            "value": 0
          },
          {
            "number": 10,
            "time": 62.93568806249743,
            "value": 1
          },
          {
            "number": 10,
            "time": 62.957116624997425,
            "value": 0
          },
          {
            "number": 10,
            "time": 62.978545187497424,
            "value": 1
          },
          {
            "number": 10,
            "time": 62.99997374999742,
            "value": 0
          },
          {
            "number": 10,
            "time": 63.02140231249742,
            "value": 1
          },
          {
            "number": 10,
            "time": 63.04283087499742,
            "value": 0
          },
          {
            "number": 10,
            "time": 63.06425943749742,
            "value": 1
          },
          {
            "number": 10,
            "time": 63.08568799999742,
            "value": 0
          },
          {
            "number": 10,
            "time": 63.10711656249742,
            "value": 1
          },
          {
            "number": 10,
            "time": 63.128545124997416,
            "value": 0
          },
          {
            "number": 10,
            "time": 63.149973687497415,
            "value": 1
          },
          {
            "number": 10,
            "time": 63.17140224999741,
            "value": 0
          },
          {
            "number": 10,
            "time": 63.19283081249741,
            "value": 1
          },
          {
            "number": 10,
            "time": 63.21425937499741,
            "value": 0
          },
          {
            "number": 10,
            "time": 63.23568793749741,
            "value": 1
          },
          {
            "number": 10,
            "time": 63.25711649999741,
            "value": 0
          },
          {
            "number": 10,
            "time": 63.27854506249741,
            "value": 1
          },
          {
            "number": 10,
            "time": 63.299973624997406,
            "value": 0
          },
          {
            "number": 10,
            "time": 63.321402187497405,
            "value": 1
          },
          {
            "number": 10,
            "time": 63.342830749997404,
            "value": 0
          },
          {
            "number": 10,
            "time": 63.3642593124974,
            "value": 1
          },
          {
            "number": 10,
            "time": 63.3856878749974,
            "value": 0
          },
          {
            "number": 10,
            "time": 63.4071164374974,
            "value": 1
          },
          {
            "number": 10,
            "time": 63.4285449999974,
            "value": 0
          },
          {
            "number": 10,
            "time": 63.4499735624974,
            "value": 1
          },
          {
            "number": 10,
            "time": 63.4714021249974,
            "value": 0
          },
          {
            "number": 10,
            "time": 63.492830687497396,
            "value": 1
          },
          {
            "number": 10,
            "time": 63.514259249997394,
            "value": 0
          },
          {
            "number": 10,
            "time": 63.53568781249739,
            "value": 1
          },
          {
            "number": 10,
            "time": 63.55711637499739,
            "value": 0
          },
          {
            "number": 10,
            "time": 63.57854493749739,
            "value": 1
          },
          {
            "number": 10,
            "time": 63.59997349999739,
            "value": 0
          },
          {
            "number": 10,
            "time": 63.62140206249739,
            "value": 1
          },
          {
            "number": 10,
            "time": 63.64283062499739,
            "value": 0
          },
          {
            "number": 10,
            "time": 63.664259187497386,
            "value": 1
          },
          {
            "number": 10,
            "time": 63.685687749997385,
            "value": 0
          },
          {
            "number": 10,
            "time": 63.707116312497384,
            "value": 1
          },
          {
            "number": 10,
            "time": 63.72854487499738,
            "value": 0
          },
          {
            "number": 10,
            "time": 63.74997343749738,
            "value": 1
          },
          {
            "number": 10,
            "time": 63.77140199999738,
            "value": 0
          },
          {
            "number": 10,
            "time": 63.79283056249738,
            "value": 1
          },
          {
            "number": 10,
            "time": 63.81425912499738,
            "value": 0
          },
          {
            "number": 10,
            "time": 63.835687687497376,
            "value": 1
          },
          {
            "number": 10,
            "time": 63.857116249997375,
            "value": 0
          },
          {
            "number": 10,
            "time": 63.878544812497374,
            "value": 1
          },
          {
            "number": 10,
            "time": 63.89997337499737,
            "value": 0
          },
          {
            "number": 10,
            "time": 63.92140193749737,
            "value": 1
          },
          {
            "number": 10,
            "time": 63.94283049999737,
            "value": 0
          },
          {
            "number": 10,
            "time": 63.96425906249737,
            "value": 1
          },
          {
            "number": 10,
            "time": 63.98568762499737,
            "value": 0
          },
          {
            "number": 10,
            "time": 64.00711618749737,
            "value": 1
          },
          {
            "number": 10,
            "time": 64.02854474999738,
            "value": 0
          },
          {
            "number": 10,
            "time": 64.04997331249739,
            "value": 1
          },
          {
            "number": 10,
            "time": 64.07140187499739,
            "value": 0
          },
          {
            "number": 10,
            "time": 64.0928304374974,
            "value": 1
          },
          {
            "number": 10,
            "time": 64.1142589999974,
            "value": 0
          },
          {
            "number": 10,
            "time": 64.13568756249741,
            "value": 1
          },
          {
            "number": 10,
            "time": 64.15711612499742,
            "value": 0
          },
          {
            "number": 10,
            "time": 64.17854468749742,
            "value": 1
          },
          {
            "number": 10,
            "time": 64.19997324999743,
            "value": 0
          },
          {
            "number": 10,
            "time": 64.22140181249743,
            "value": 1
          },
          {
            "number": 10,
            "time": 64.24283037499744,
            "value": 0
          },
          {
            "number": 10,
            "time": 64.26425893749744,
            "value": 1
          },
          {
            "number": 10,
            "time": 64.28568749999745,
            "value": 0
          },
          {
            "number": 10,
            "time": 64.30711606249746,
            "value": 1
          },
          {
            "number": 10,
            "time": 64.32854462499746,
            "value": 0
          },
          {
            "number": 10,
            "time": 64.34997318749747,
            "value": 1
          },
          {
            "number": 10,
            "time": 64.37140174999747,
            "value": 0
          },
          {
            "number": 10,
            "time": 64.39283031249748,
            "value": 1
          },
          {
            "number": 10,
            "time": 64.41425887499749,
            "value": 0
          },
          {
            "number": 10,
            "time": 64.43568743749749,
            "value": 1
          },
          {
            "number": 10,
            "time": 64.4571159999975,
            "value": 0
          },
          {
            "number": 10,
            "time": 64.4785445624975,
            "value": 1
          },
          {
            "number": 10,
            "time": 64.49997312499751,
            "value": 0
          },
          {
            "number": 10,
            "time": 64.52140168749752,
            "value": 1
          },
          {
            "number": 10,
            "time": 64.54283024999752,
            "value": 0
          },
          {
            "number": 10,
            "time": 64.56425881249753,
            "value": 1
          },
          {
            "number": 10,
            "time": 64.58568737499753,
            "value": 0
          },
          {
            "number": 10,
            "time": 64.60711593749754,
            "value": 1
          },
          {
            "number": 10,
            "time": 64.62854449999755,
            "value": 0
          },
          {
            "number": 10,
            "time": 64.64997306249755,
            "value": 1
          },
          {
            "number": 10,
            "time": 64.67140162499756,
            "value": 0
          },
          {
            "number": 10,
            "time": 64.69283018749756,
            "value": 1
          },
          {
            "number": 10,
            "time": 64.71425874999757,
            "value": 0
          },
          {
            "number": 10,
            "time": 64.73568731249757,
            "value": 1
          },
          {
            "number": 10,
            "time": 64.75711587499758,
            "value": 0
          },
          {
            "number": 10,
            "time": 64.77854443749759,
            "value": 1
          },
          {
            "number": 10,
            "time": 64.79997299999759,
            "value": 0
          },
          {
            "number": 10,
            "time": 64.8214015624976,
            "value": 1
          },
          {
            "number": 10,
            "time": 64.8428301249976,
            "value": 0
          },
          {
            "number": 10,
            "time": 64.86425868749761,
            "value": 1
          },
          {
            "number": 10,
            "time": 64.88568724999762,
            "value": 0
          },
          {
            "number": 10,
            "time": 64.90711581249762,
            "value": 1
          },
          {
            "number": 10,
            "time": 64.92854437499763,
            "value": 0
          },
          {
            "number": 10,
            "time": 64.94997293749763,
            "value": 1
          },
          {
            "number": 10,
            "time": 64.97140149999764,
            "value": 0
          },
          {
            "number": 10,
            "time": 64.99283006249765,
            "value": 1
          },
          {
            "number": 10,
            "time": 65.01425862499765,
            "value": 0
          },
          {
            "number": 10,
            "time": 65.03568718749766,
            "value": 1
          },
          {
            "number": 10,
            "time": 65.05711574999766,
            "value": 0
          },
          {
            "number": 10,
            "time": 65.07854431249767,
            "value": 1
          },
          {
            "number": 10,
            "time": 65.09997287499768,
            "value": 0
          },
          {
            "number": 10,
            "time": 65.12140143749768,
            "value": 1
          },
          {
            "number": 10,
            "time": 65.14282999999769,
            "value": 0
          },
          {
            "number": 10,
            "time": 65.1642585624977,
            "value": 1
          },
          {
            "number": 10,
            "time": 65.1856871249977,
            "value": 0
          },
          {
            "number": 10,
            "time": 65.2071156874977,
            "value": 1
          },
          {
            "number": 10,
            "time": 65.22854424999771,
            "value": 0
          },
          {
            "number": 10,
            "time": 65.24997281249772,
            "value": 1
          },
          {
            "number": 10,
            "time": 65.27140137499772,
            "value": 0
          },
          {
            "number": 10,
            "time": 65.29282993749773,
            "value": 1
          },
          {
            "number": 10,
            "time": 65.31425849999773,
            "value": 0
          },
          {
            "number": 10,
            "time": 65.33568706249774,
            "value": 1
          },
          {
            "number": 10,
            "time": 65.35711562499775,
            "value": 0
          },
          {
            "number": 10,
            "time": 65.37854418749775,
            "value": 1
          },
          {
            "number": 10,
            "time": 65.39997274999776,
            "value": 0
          },
          {
            "number": 10,
            "time": 65.42140131249776,
            "value": 1
          },
          {
            "number": 10,
            "time": 65.44282987499777,
            "value": 0
          },
          {
            "number": 10,
            "time": 65.46425843749778,
            "value": 1
          },
          {
            "number": 10,
            "time": 65.48568699999778,
            "value": 0
          },
          {
            "number": 10,
            "time": 65.50711556249779,
            "value": 1
          },
          {
            "number": 10,
            "time": 65.5285441249978,
            "value": 0
          },
          {
            "number": 10,
            "time": 65.5499726874978,
            "value": 1
          },
          {
            "number": 10,
            "time": 65.5714012499978,
            "value": 0
          },
          {
            "number": 10,
            "time": 65.59282981249781,
            "value": 1
          },
          {
            "number": 10,
            "time": 65.61425837499782,
            "value": 0
          },
          {
            "number": 10,
            "time": 65.63568693749782,
            "value": 1
          },
          {
            "number": 10,
            "time": 65.65711549999783,
            "value": 0
          },
          {
            "number": 10,
            "time": 65.67854406249783,
            "value": 1
          },
          {
            "number": 10,
            "time": 65.69997262499784,
            "value": 0
          },
          {
            "number": 10,
            "time": 65.72140118749785,
            "value": 1
          },
          {
            "number": 10,
            "time": 65.74282974999785,
            "value": 0
          },
          {
            "number": 10,
            "time": 65.76425831249786,
            "value": 1
          },
          {
            "number": 10,
            "time": 65.78568687499786,
            "value": 0
          },
          {
            "number": 10,
            "time": 65.80711543749787,
            "value": 1
          },
          {
            "number": 10,
            "time": 65.82854399999788,
            "value": 0
          },
          {
            "number": 10,
            "time": 65.84997256249788,
            "value": 1
          },
          {
            "number": 10,
            "time": 65.87140112499789,
            "value": 0
          },
          {
            "number": 10,
            "time": 65.8928296874979,
            "value": 1
          },
          {
            "number": 10,
            "time": 65.9142582499979,
            "value": 0
          },
          {
            "number": 10,
            "time": 65.9356868124979,
            "value": 1
          },
          {
            "number": 10,
            "time": 65.95711537499791,
            "value": 0
          },
          {
            "number": 10,
            "time": 65.97854393749792,
            "value": 1
          },
          {
            "number": 10,
            "time": 65.99997249999792,
            "value": 0
          },
          {
            "number": 10,
            "time": 66.02140106249793,
            "value": 1
          },
          {
            "number": 10,
            "time": 66.04282962499794,
            "value": 0
          },
          {
            "number": 10,
            "time": 66.06425818749794,
            "value": 1
          },
          {
            "number": 10,
            "time": 66.08568674999795,
            "value": 0
          },
          {
            "number": 10,
            "time": 66.10711531249795,
            "value": 1
          },
          {
            "number": 10,
            "time": 66.12854387499796,
            "value": 0
          },
          {
            "number": 10,
            "time": 66.14997243749796,
            "value": 1
          },
          {
            "number": 10,
            "time": 66.17140099999797,
            "value": 0
          },
          {
            "number": 10,
            "time": 66.19282956249798,
            "value": 1
          },
          {
            "number": 10,
            "time": 66.21425812499798,
            "value": 0
          },
          {
            "number": 10,
            "time": 66.23568668749799,
            "value": 1
          },
          {
            "number": 10,
            "time": 66.257115249998,
            "value": 0
          },
          {
            "number": 10,
            "time": 66.278543812498,
            "value": 1
          },
          {
            "number": 10,
            "time": 66.299972374998,
            "value": 0
          },
          {
            "number": 10,
            "time": 66.32140093749801,
            "value": 1
          },
          {
            "number": 10,
            "time": 66.34282949999802,
            "value": 0
          },
          {
            "number": 10,
            "time": 66.36425806249802,
            "value": 1
          },
          {
            "number": 10,
            "time": 66.38568662499803,
            "value": 0
          },
          {
            "number": 10,
            "time": 66.40711518749804,
            "value": 1
          },
          {
            "number": 10,
            "time": 66.42854374999804,
            "value": 0
          },
          {
            "number": 10,
            "time": 66.44997231249805,
            "value": 1
          },
          {
            "number": 10,
            "time": 66.47140087499805,
            "value": 0
          },
          {
            "number": 10,
            "time": 66.49282943749806,
            "value": 1
          },
          {
            "number": 10,
            "time": 66.51425799999807,
            "value": 0
          },
          {
            "number": 10,
            "time": 66.53568656249807,
            "value": 1
          },
          {
            "number": 10,
            "time": 66.55711512499808,
            "value": 0
          },
          {
            "number": 10,
            "time": 66.57854368749808,
            "value": 1
          },
          {
            "number": 10,
            "time": 66.59997224999809,
            "value": 0
          },
          {
            "number": 10,
            "time": 66.6214008124981,
            "value": 1
          },
          {
            "number": 10,
            "time": 66.6428293749981,
            "value": 0
          },
          {
            "number": 10,
            "time": 66.6642579374981,
            "value": 1
          },
          {
            "number": 10,
            "time": 66.68568649999811,
            "value": 0
          },
          {
            "number": 10,
            "time": 66.70711506249812,
            "value": 1
          },
          {
            "number": 10,
            "time": 66.72854362499812,
            "value": 0
          },
          {
            "number": 10,
            "time": 66.74997218749813,
            "value": 1
          },
          {
            "number": 10,
            "time": 66.77140074999814,
            "value": 0
          },
          {
            "number": 10,
            "time": 66.79282931249814,
            "value": 1
          },
          {
            "number": 10,
            "time": 66.81425787499815,
            "value": 0
          },
          {
            "number": 10,
            "time": 66.83568643749815,
            "value": 1
          },
          {
            "number": 10,
            "time": 66.85711499999816,
            "value": 0
          },
          {
            "number": 10,
            "time": 66.87854356249817,
            "value": 1
          },
          {
            "number": 10,
            "time": 66.89997212499817,
            "value": 0
          },
          {
            "number": 10,
            "time": 66.92140068749818,
            "value": 1
          },
          {
            "number": 10,
            "time": 66.94282924999818,
            "value": 0
          },
          {
            "number": 10,
            "time": 66.96425781249819,
            "value": 1
          },
          {
            "number": 10,
            "time": 66.9856863749982,
            "value": 0
          },
          {
            "number": 10,
            "time": 67.0071149374982,
            "value": 1
          },
          {
            "number": 10,
            "time": 67.02854349999821,
            "value": 0
          },
          {
            "number": 10,
            "time": 67.04997206249821,
            "value": 1
          },
          {
            "number": 10,
            "time": 67.07140062499822,
            "value": 0
          },
          {
            "number": 10,
            "time": 67.09282918749822,
            "value": 1
          },
          {
            "number": 10,
            "time": 67.11425774999823,
            "value": 0
          },
          {
            "number": 10,
            "time": 67.13568631249824,
            "value": 1
          },
          {
            "number": 10,
            "time": 67.15711487499824,
            "value": 0
          },
          {
            "number": 10,
            "time": 67.17854343749825,
            "value": 1
          },
          {
            "number": 10,
            "time": 67.19997199999825,
            "value": 0
          },
          {
            "number": 10,
            "time": 67.22140056249826,
            "value": 1
          },
          {
            "number": 10,
            "time": 67.24282912499827,
            "value": 0
          },
          {
            "number": 10,
            "time": 67.26425768749827,
            "value": 1
          },
          {
            "number": 10,
            "time": 67.28568624999828,
            "value": 0
          },
          {
            "number": 10,
            "time": 67.30711481249828,
            "value": 1
          },
          {
            "number": 10,
            "time": 67.32854337499829,
            "value": 0
          },
          {
            "number": 10,
            "time": 67.3499719374983,
            "value": 1
          },
          {
            "number": 10,
            "time": 67.3714004999983,
            "value": 0
          },
          {
            "number": 10,
            "time": 67.39282906249831,
            "value": 1
          },
          {
            "number": 10,
            "time": 67.41425762499831,
            "value": 0
          },
          {
            "number": 10,
            "time": 67.43568618749832,
            "value": 1
          },
          {
            "number": 10,
            "time": 67.45711474999833,
            "value": 0
          },
          {
            "number": 10,
            "time": 67.47854331249833,
            "value": 1
          },
          {
            "number": 10,
            "time": 67.49997187499834,
            "value": 0
          },
          {
            "number": 10,
            "time": 67.52140043749834,
            "value": 1
          },
          {
            "number": 10,
            "time": 67.54282899999835,
            "value": 0
          },
          {
            "number": 10,
            "time": 67.56425756249836,
            "value": 1
          },
          {
            "number": 10,
            "time": 67.58568612499836,
            "value": 0
          },
          {
            "number": 10,
            "time": 67.60711468749837,
            "value": 1
          },
          {
            "number": 10,
            "time": 67.62854324999837,
            "value": 0
          },
          {
            "number": 10,
            "time": 67.64997181249838,
            "value": 1
          },
          {
            "number": 10,
            "time": 67.67140037499838,
            "value": 0
          },
          {
            "number": 10,
            "time": 67.69282893749839,
            "value": 1
          },
          {
            "number": 10,
            "time": 67.7142574999984,
            "value": 0
          },
          {
            "number": 10,
            "time": 67.7356860624984,
            "value": 1
          },
          {
            "number": 10,
            "time": 67.75711462499841,
            "value": 0
          },
          {
            "number": 10,
            "time": 67.77854318749841,
            "value": 1
          },
          {
            "number": 10,
            "time": 67.79997174999842,
            "value": 0
          },
          {
            "number": 10,
            "time": 67.82140031249843,
            "value": 1
          },
          {
            "number": 10,
            "time": 67.84282887499843,
            "value": 0
          },
          {
            "number": 10,
            "time": 67.86425743749844,
            "value": 1
          },
          {
            "number": 10,
            "time": 67.88568599999844,
            "value": 0
          },
          {
            "number": 10,
            "time": 67.90711456249845,
            "value": 1
          },
          {
            "number": 10,
            "time": 67.92854312499846,
            "value": 0
          },
          {
            "number": 10,
            "time": 67.94997168749846,
            "value": 1
          },
          {
            "number": 10,
            "time": 67.97140024999847,
            "value": 0
          },
          {
            "number": 10,
            "time": 67.99282881249847,
            "value": 1
          },
          {
            "number": 10,
            "time": 68.01425737499848,
            "value": 0
          },
          {
            "number": 10,
            "time": 68.03568593749849,
            "value": 1
          },
          {
            "number": 10,
            "time": 68.05711449999849,
            "value": 0
          },
          {
            "number": 10,
            "time": 68.0785430624985,
            "value": 1
          },
          {
            "number": 10,
            "time": 68.0999716249985,
            "value": 0
          },
          {
            "number": 10,
            "time": 68.12140018749851,
            "value": 1
          },
          {
            "number": 10,
            "time": 68.14282874999851,
            "value": 0
          },
          {
            "number": 10,
            "time": 68.16425731249852,
            "value": 1
          },
          {
            "number": 10,
            "time": 68.18568587499853,
            "value": 0
          },
          {
            "number": 10,
            "time": 68.20711443749853,
            "value": 1
          },
          {
            "number": 10,
            "time": 68.22854299999854,
            "value": 0
          },
          {
            "number": 10,
            "time": 68.24997156249854,
            "value": 1
          },
          {
            "number": 10,
            "time": 68.27140012499855,
            "value": 0
          },
          {
            "number": 10,
            "time": 68.29282868749856,
            "value": 1
          },
          {
            "number": 10,
            "time": 68.31425724999856,
            "value": 0
          },
          {
            "number": 10,
            "time": 68.33568581249857,
            "value": 1
          },
          {
            "number": 10,
            "time": 68.35711437499857,
            "value": 0
          },
          {
            "number": 10,
            "time": 68.37854293749858,
            "value": 1
          },
          {
            "number": 10,
            "time": 68.39997149999859,
            "value": 0
          },
          {
            "number": 10,
            "time": 68.42140006249859,
            "value": 1
          },
          {
            "number": 10,
            "time": 68.4428286249986,
            "value": 0
          },
          {
            "number": 10,
            "time": 68.4642571874986,
            "value": 1
          },
          {
            "number": 10,
            "time": 68.48568574999861,
            "value": 0
          },
          {
            "number": 10,
            "time": 68.50711431249862,
            "value": 1
          },
          {
            "number": 10,
            "time": 68.52854287499862,
            "value": 0
          },
          {
            "number": 10,
            "time": 68.54997143749863,
            "value": 1
          },
          {
            "number": 10,
            "time": 68.57139999999863,
            "value": 0
          },
          {
            "number": 10,
            "time": 68.59282856249864,
            "value": 1
          },
          {
            "number": 10,
            "time": 68.61425712499864,
            "value": 0
          },
          {
            "number": 10,
            "time": 68.63568568749865,
            "value": 1
          },
          {
            "number": 10,
            "time": 68.65711424999866,
            "value": 0
          },
          {
            "number": 10,
            "time": 68.67854281249866,
            "value": 1
          },
          {
            "number": 10,
            "time": 68.69997137499867,
            "value": 0
          },
          {
            "number": 10,
            "time": 68.72139993749867,
            "value": 1
          },
          {
            "number": 10,
            "time": 68.74282849999868,
            "value": 0
          },
          {
            "number": 10,
            "time": 68.76425706249869,
            "value": 1
          },
          {
            "number": 10,
            "time": 68.78568562499869,
            "value": 0
          },
          {
            "number": 10,
            "time": 68.8071141874987,
            "value": 1
          },
          {
            "number": 10,
            "time": 68.8285427499987,
            "value": 0
          },
          {
            "number": 10,
            "time": 68.84997131249871,
            "value": 1
          },
          {
            "number": 10,
            "time": 68.87139987499872,
            "value": 0
          },
          {
            "number": 10,
            "time": 68.89282843749872,
            "value": 1
          },
          {
            "number": 10,
            "time": 68.91425699999873,
            "value": 0
          },
          {
            "number": 10,
            "time": 68.93568556249873,
            "value": 1
          },
          {
            "number": 10,
            "time": 68.95711412499874,
            "value": 0
          },
          {
            "number": 10,
            "time": 68.97854268749875,
            "value": 1
          },
          {
            "number": 10,
            "time": 68.99997124999875,
            "value": 0
          },
          {
            "number": 10,
            "time": 69.02139981249876,
            "value": 1
          },
          {
            "number": 10,
            "time": 69.04282837499876,
            "value": 0
          },
          {
            "number": 10,
            "time": 69.06425693749877,
            "value": 1
          },
          {
            "number": 10,
            "time": 69.08568549999877,
            "value": 0
          },
          {
            "number": 10,
            "time": 69.10711406249878,
            "value": 1
          },
          {
            "number": 10,
            "time": 69.12854262499879,
            "value": 0
          },
          {
            "number": 10,
            "time": 69.14997118749879,
            "value": 1
          },
          {
            "number": 10,
            "time": 69.1713997499988,
            "value": 0
          },
          {
            "number": 10,
            "time": 69.1928283124988,
            "value": 1
          },
          {
            "number": 10,
            "time": 69.21425687499881,
            "value": 0
          },
          {
            "number": 10,
            "time": 69.23568543749882,
            "value": 1
          },
          {
            "number": 10,
            "time": 69.25711399999882,
            "value": 0
          },
          {
            "number": 10,
            "time": 69.27854256249883,
            "value": 1
          },
          {
            "number": 10,
            "time": 69.29997112499883,
            "value": 0
          },
          {
            "number": 10,
            "time": 69.32139968749884,
            "value": 1
          },
          {
            "number": 10,
            "time": 69.34282824999885,
            "value": 0
          },
          {
            "number": 10,
            "time": 69.36425681249885,
            "value": 1
          },
          {
            "number": 10,
            "time": 69.38568537499886,
            "value": 0
          },
          {
            "number": 10,
            "time": 69.40711393749886,
            "value": 1
          },
          {
            "number": 10,
            "time": 69.42854249999887,
            "value": 0
          },
          {
            "number": 10,
            "time": 69.44997106249888,
            "value": 1
          },
          {
            "number": 10,
            "time": 69.47139962499888,
            "value": 0
          },
          {
            "number": 10,
            "time": 69.49282818749889,
            "value": 1
          },
          {
            "number": 10,
            "time": 69.51425674999889,
            "value": 0
          },
          {
            "number": 10,
            "time": 69.5356853124989,
            "value": 1
          },
          {
            "number": 10,
            "time": 69.5571138749989,
            "value": 0
          },
          {
            "number": 10,
            "time": 69.57854243749891,
            "value": 1
          },
          {
            "number": 10,
            "time": 69.59997099999892,
            "value": 0
          },
          {
            "number": 10,
            "time": 69.62139956249892,
            "value": 1
          },
          {
            "number": 10,
            "time": 69.64282812499893,
            "value": 0
          },
          {
            "number": 10,
            "time": 69.66425668749893,
            "value": 1
          },
          {
            "number": 10,
            "time": 69.68568524999894,
            "value": 0
          },
          {
            "number": 10,
            "time": 69.70711381249895,
            "value": 1
          },
          {
            "number": 10,
            "time": 69.72854237499895,
            "value": 0
          },
          {
            "number": 10,
            "time": 69.74997093749896,
            "value": 1
          },
          {
            "number": 10,
            "time": 69.77139949999896,
            "value": 0
          },
          {
            "number": 10,
            "time": 69.79282806249897,
            "value": 1
          },
          {
            "number": 10,
            "time": 69.81425662499898,
            "value": 0
          },
          {
            "number": 10,
            "time": 69.83568518749898,
            "value": 1
          },
          {
            "number": 10,
            "time": 69.85711374999899,
            "value": 0
          },
          {
            "number": 10,
            "time": 69.878542312499,
            "value": 1
          },
          {
            "number": 10,
            "time": 69.899970874999,
            "value": 0
          },
          {
            "number": 10,
            "time": 69.921399437499,
            "value": 1
          },
          {
            "number": 10,
            "time": 69.94282799999901,
            "value": 0
          },
          {
            "number": 10,
            "time": 69.96425656249902,
            "value": 1
          },
          {
            "number": 10,
            "time": 69.98568512499902,
            "value": 0
          },
          {
            "number": 10,
            "time": 70.00711368749903,
            "value": 1
          },
          {
            "number": 10,
            "time": 70.02854224999903,
            "value": 0
          },
          {
            "number": 10,
            "time": 70.04997081249904,
            "value": 1
          },
          {
            "number": 10,
            "time": 70.07139937499905,
            "value": 0
          },
          {
            "number": 10,
            "time": 70.09282793749905,
            "value": 1
          },
          {
            "number": 10,
            "time": 70.11425649999906,
            "value": 0
          },
          {
            "number": 10,
            "time": 70.13568506249906,
            "value": 1
          },
          {
            "number": 10,
            "time": 70.15711362499907,
            "value": 0
          },
          {
            "number": 10,
            "time": 70.17854218749908,
            "value": 1
          },
          {
            "number": 10,
            "time": 70.19997074999908,
            "value": 0
          },
          {
            "number": 10,
            "time": 70.22139931249909,
            "value": 1
          },
          {
            "number": 10,
            "time": 70.2428278749991,
            "value": 0
          },
          {
            "number": 10,
            "time": 70.2642564374991,
            "value": 1
          },
          {
            "number": 10,
            "time": 70.2856849999991,
            "value": 0
          },
          {
            "number": 10,
            "time": 70.30711356249911,
            "value": 1
          },
          {
            "number": 10,
            "time": 70.32854212499912,
            "value": 0
          },
          {
            "number": 10,
            "time": 70.34997068749912,
            "value": 1
          },
          {
            "number": 10,
            "time": 70.37139924999913,
            "value": 0
          },
          {
            "number": 10,
            "time": 70.39282781249914,
            "value": 1
          },
          {
            "number": 10,
            "time": 70.41425637499914,
            "value": 0
          },
          {
            "number": 10,
            "time": 70.43568493749915,
            "value": 1
          },
          {
            "number": 10,
            "time": 70.45711349999915,
            "value": 0
          },
          {
            "number": 10,
            "time": 70.47854206249916,
            "value": 1
          },
          {
            "number": 10,
            "time": 70.49997062499916,
            "value": 0
          },
          {
            "number": 10,
            "time": 70.52139918749917,
            "value": 1
          },
          {
            "number": 10,
            "time": 70.54282774999918,
            "value": 0
          },
          {
            "number": 10,
            "time": 70.56425631249918,
            "value": 1
          },
          {
            "number": 10,
            "time": 70.58568487499919,
            "value": 0
          },
          {
            "number": 10,
            "time": 70.6071134374992,
            "value": 1
          },
          {
            "number": 10,
            "time": 70.6285419999992,
            "value": 0
          },
          {
            "number": 10,
            "time": 70.6499705624992,
            "value": 1
          },
          {
            "number": 10,
            "time": 70.67139912499921,
            "value": 0
          },
          {
            "number": 10,
            "time": 70.69282768749922,
            "value": 1
          },
          {
            "number": 10,
            "time": 70.71425624999922,
            "value": 0
          },
          {
            "number": 10,
            "time": 70.73568481249923,
            "value": 1
          },
          {
            "number": 10,
            "time": 70.75711337499924,
            "value": 0
          },
          {
            "number": 10,
            "time": 70.77854193749924,
            "value": 1
          },
          {
            "number": 10,
            "time": 70.79997049999925,
            "value": 0
          },
          {
            "number": 10,
            "time": 70.82139906249925,
            "value": 1
          },
          {
            "number": 10,
            "time": 70.84282762499926,
            "value": 0
          },
          {
            "number": 10,
            "time": 70.86425618749927,
            "value": 1
          },
          {
            "number": 10,
            "time": 70.88568474999927,
            "value": 0
          },
          {
            "number": 10,
            "time": 70.90711331249928,
            "value": 1
          },
          {
            "number": 10,
            "time": 70.92854187499928,
            "value": 0
          },
          {
            "number": 10,
            "time": 70.94997043749929,
            "value": 1
          },
          {
            "number": 10,
            "time": 70.9713989999993,
            "value": 0
          },
          {
            "number": 10,
            "time": 70.9928275624993,
            "value": 1
          },
          {
            "number": 10,
            "time": 71.0142561249993,
            "value": 0
          },
          {
            "number": 10,
            "time": 71.03568468749931,
            "value": 1
          },
          {
            "number": 10,
            "time": 71.05711324999932,
            "value": 0
          },
          {
            "number": 10,
            "time": 71.07854181249932,
            "value": 1
          },
          {
            "number": 10,
            "time": 71.09997037499933,
            "value": 0
          },
          {
            "number": 10,
            "time": 71.12139893749934,
            "value": 1
          },
          {
            "number": 10,
            "time": 71.14282749999934,
            "value": 0
          },
          {
            "number": 10,
            "time": 71.16425606249935,
            "value": 1
          },
          {
            "number": 10,
            "time": 71.18568462499935,
            "value": 0
          },
          {
            "number": 10,
            "time": 71.20711318749936,
            "value": 1
          },
          {
            "number": 10,
            "time": 71.22854174999937,
            "value": 0
          },
          {
            "number": 10,
            "time": 71.24997031249937,
            "value": 1
          },
          {
            "number": 10,
            "time": 71.27139887499938,
            "value": 0
          },
          {
            "number": 10,
            "time": 71.29282743749938,
            "value": 1
          },
          {
            "number": 10,
            "time": 71.31425599999939,
            "value": 0
          },
          {
            "number": 10,
            "time": 71.3356845624994,
            "value": 1
          },
          {
            "number": 10,
            "time": 71.3571131249994,
            "value": 0
          },
          {
            "number": 10,
            "time": 71.3785416874994,
            "value": 1
          },
          {
            "number": 10,
            "time": 71.39997024999941,
            "value": 0
          },
          {
            "number": 10,
            "time": 71.42139881249942,
            "value": 1
          },
          {
            "number": 10,
            "time": 71.44282737499942,
            "value": 0
          },
          {
            "number": 10,
            "time": 71.46425593749943,
            "value": 1
          },
          {
            "number": 10,
            "time": 71.48568449999944,
            "value": 0
          },
          {
            "number": 10,
            "time": 71.50711306249944,
            "value": 1
          },
          {
            "number": 10,
            "time": 71.52854162499945,
            "value": 0
          },
          {
            "number": 10,
            "time": 71.54997018749945,
            "value": 1
          },
          {
            "number": 10,
            "time": 71.57139874999946,
            "value": 0
          },
          {
            "number": 10,
            "time": 71.59282731249947,
            "value": 1
          },
          {
            "number": 10,
            "time": 71.61425587499947,
            "value": 0
          },
          {
            "number": 10,
            "time": 71.63568443749948,
            "value": 1
          },
          {
            "number": 10,
            "time": 71.65711299999948,
            "value": 0
          },
          {
            "number": 10,
            "time": 71.67854156249949,
            "value": 1
          },
          {
            "number": 10,
            "time": 71.6999701249995,
            "value": 0
          },
          {
            "number": 10,
            "time": 71.7213986874995,
            "value": 1
          },
          {
            "number": 10,
            "time": 71.74282724999951,
            "value": 0
          },
          {
            "number": 10,
            "time": 71.76425581249951,
            "value": 1
          },
          {
            "number": 10,
            "time": 71.78568437499952,
            "value": 0
          },
          {
            "number": 10,
            "time": 71.80711293749953,
            "value": 1
          },
          {
            "number": 10,
            "time": 71.82854149999953,
            "value": 0
          },
          {
            "number": 10,
            "time": 71.84997006249954,
            "value": 1
          },
          {
            "number": 10,
            "time": 71.87139862499954,
            "value": 0
          },
          {
            "number": 10,
            "time": 71.89282718749955,
            "value": 1
          },
          {
            "number": 10,
            "time": 71.91425574999955,
            "value": 0
          },
          {
            "number": 10,
            "time": 71.93568431249956,
            "value": 1
          },
          {
            "number": 10,
            "time": 71.95711287499957,
            "value": 0
          },
          {
            "number": 10,
            "time": 71.97854143749957,
            "value": 1
          },
          {
            "number": 10,
            "time": 71.99996999999958,
            "value": 0
          },
          {
            "number": 10,
            "time": 72.02139856249958,
            "value": 1
          },
          {
            "number": 10,
            "time": 72.04282712499959,
            "value": 0
          },
          {
            "number": 10,
            "time": 72.0642556874996,
            "value": 1
          },
          {
            "number": 10,
            "time": 72.0856842499996,
            "value": 0
          },
          {
            "number": 10,
            "time": 72.10711281249961,
            "value": 1
          },
          {
            "number": 10,
            "time": 72.12854137499961,
            "value": 0
          },
          {
            "number": 10,
            "time": 72.14996993749962,
            "value": 1
          },
          {
            "number": 10,
            "time": 72.17139849999963,
            "value": 0
          },
          {
            "number": 10,
            "time": 72.19282706249963,
            "value": 1
          },
          {
            "number": 10,
            "time": 72.21425562499964,
            "value": 0
          },
          {
            "number": 10,
            "time": 72.23568418749964,
            "value": 1
          },
          {
            "number": 10,
            "time": 72.25711274999965,
            "value": 0
          },
          {
            "number": 10,
            "time": 72.27854131249966,
            "value": 1
          },
          {
            "number": 10,
            "time": 72.29996987499966,
            "value": 0
          },
          {
            "number": 10,
            "time": 72.32139843749967,
            "value": 1
          },
          {
            "number": 10,
            "time": 72.34282699999967,
            "value": 0
          },
          {
            "number": 10,
            "time": 72.36425556249968,
            "value": 1
          },
          {
            "number": 10,
            "time": 72.38568412499968,
            "value": 0
          },
          {
            "number": 10,
            "time": 72.40711268749969,
            "value": 1
          },
          {
            "number": 10,
            "time": 72.4285412499997,
            "value": 0
          },
          {
            "number": 10,
            "time": 72.4499698124997,
            "value": 1
          },
          {
            "number": 10,
            "time": 72.47139837499971,
            "value": 0
          },
          {
            "number": 10,
            "time": 72.49282693749971,
            "value": 1
          },
          {
            "number": 10,
            "time": 72.51425549999972,
            "value": 0
          },
          {
            "number": 10,
            "time": 72.53568406249973,
            "value": 1
          },
          {
            "number": 10,
            "time": 72.55711262499973,
            "value": 0
          },
          {
            "number": 10,
            "time": 72.57854118749974,
            "value": 1
          },
          {
            "number": 10,
            "time": 72.59996974999974,
            "value": 0
          },
          {
            "number": 10,
            "time": 72.62139831249975,
            "value": 1
          },
          {
            "number": 10,
            "time": 72.64282687499976,
            "value": 0
          },
          {
            "number": 10,
            "time": 72.66425543749976,
            "value": 1
          },
          {
            "number": 10,
            "time": 72.68568399999977,
            "value": 0
          },
          {
            "number": 10,
            "time": 72.70711256249977,
            "value": 1
          },
          {
            "number": 10,
            "time": 72.72854112499978,
            "value": 0
          },
          {
            "number": 10,
            "time": 72.74996968749979,
            "value": 1
          },
          {
            "number": 10,
            "time": 72.77139824999979,
            "value": 0
          },
          {
            "number": 10,
            "time": 72.7928268124998,
            "value": 1
          },
          {
            "number": 10,
            "time": 72.8142553749998,
            "value": 0
          },
          {
            "number": 10,
            "time": 72.83568393749981,
            "value": 1
          },
          {
            "number": 10,
            "time": 72.85711249999981,
            "value": 0
          },
          {
            "number": 10,
            "time": 72.87854106249982,
            "value": 1
          },
          {
            "number": 10,
            "time": 72.89996962499983,
            "value": 0
          },
          {
            "number": 10,
            "time": 72.92139818749983,
            "value": 1
          },
          {
            "number": 10,
            "time": 72.94282674999984,
            "value": 0
          },
          {
            "number": 10,
            "time": 72.96425531249984,
            "value": 1
          },
          {
            "number": 10,
            "time": 72.98568387499985,
            "value": 0
          },
          {
            "number": 10,
            "time": 73.00711243749986,
            "value": 1
          },
          {
            "number": 10,
            "time": 73.02854099999986,
            "value": 0
          },
          {
            "number": 10,
            "time": 73.04996956249987,
            "value": 1
          },
          {
            "number": 10,
            "time": 73.07139812499987,
            "value": 0
          },
          {
            "number": 10,
            "time": 73.09282668749988,
            "value": 1
          },
          {
            "number": 10,
            "time": 73.11425524999989,
            "value": 0
          },
          {
            "number": 10,
            "time": 73.13568381249989,
            "value": 1
          },
          {
            "number": 10,
            "time": 73.1571123749999,
            "value": 0
          },
          {
            "number": 10,
            "time": 73.1785409374999,
            "value": 1
          },
          {
            "number": 10,
            "time": 73.19996949999991,
            "value": 0
          },
          {
            "number": 10,
            "time": 73.22139806249992,
            "value": 1
          },
          {
            "number": 10,
            "time": 73.24282662499992,
            "value": 0
          },
          {
            "number": 10,
            "time": 73.26425518749993,
            "value": 1
          },
          {
            "number": 10,
            "time": 73.28568374999993,
            "value": 0
          },
          {
            "number": 10,
            "time": 73.30711231249994,
            "value": 1
          },
          {
            "number": 10,
            "time": 73.32854087499994,
            "value": 0
          },
          {
            "number": 10,
            "time": 73.34996943749995,
            "value": 1
          },
          {
            "number": 10,
            "time": 73.37139799999996,
            "value": 0
          },
          {
            "number": 10,
            "time": 73.39282656249996,
            "value": 1
          },
          {
            "number": 10,
            "time": 73.41425512499997,
            "value": 0
          },
          {
            "number": 10,
            "time": 73.43568368749997,
            "value": 1
          },
          {
            "number": 10,
            "time": 73.45711224999998,
            "value": 0
          },
          {
            "number": 10,
            "time": 73.47854081249999,
            "value": 1
          },
          {
            "number": 10,
            "time": 73.49996937499999,
            "value": 0
          },
          {
            "number": 10,
            "time": 73.5213979375,
            "value": 1
          },
          {
            "number": 10,
            "time": 73.5428265,
            "value": 0
          },
          {
            "number": 10,
            "time": 73.56425506250001,
            "value": 1
          },
          {
            "number": 10,
            "time": 73.58568362500002,
            "value": 0
          },
          {
            "number": 10,
            "time": 73.60711218750002,
            "value": 1
          },
          {
            "number": 10,
            "time": 73.62854075000003,
            "value": 0
          },
          {
            "number": 10,
            "time": 73.64996931250003,
            "value": 1
          },
          {
            "number": 10,
            "time": 73.67139787500004,
            "value": 0
          },
          {
            "number": 10,
            "time": 73.69282643750005,
            "value": 1
          },
          {
            "number": 10,
            "time": 73.71425500000005,
            "value": 0
          },
          {
            "number": 10,
            "time": 73.73568356250006,
            "value": 1
          },
          {
            "number": 10,
            "time": 73.75711212500006,
            "value": 0
          },
          {
            "number": 10,
            "time": 73.77854068750007,
            "value": 1
          },
          {
            "number": 10,
            "time": 73.79996925000007,
            "value": 0
          },
          {
            "number": 10,
            "time": 73.82139781250008,
            "value": 1
          },
          {
            "number": 10,
            "time": 73.84282637500009,
            "value": 0
          },
          {
            "number": 10,
            "time": 73.86425493750009,
            "value": 1
          },
          {
            "number": 10,
            "time": 73.8856835000001,
            "value": 0
          },
          {
            "number": 10,
            "time": 73.9071120625001,
            "value": 1
          },
          {
            "number": 10,
            "time": 73.92854062500011,
            "value": 0
          },
          {
            "number": 10,
            "time": 73.94996918750012,
            "value": 1
          },
          {
            "number": 10,
            "time": 73.97139775000012,
            "value": 0
          },
          {
            "number": 10,
            "time": 73.99282631250013,
            "value": 1
          },
          {
            "number": 10,
            "time": 74.01425487500013,
            "value": 0
          },
          {
            "number": 10,
            "time": 74.03568343750014,
            "value": 1
          },
          {
            "number": 10,
            "time": 74.05711200000015,
            "value": 0
          },
          {
            "number": 10,
            "time": 74.07854056250015,
            "value": 1
          },
          {
            "number": 10,
            "time": 74.09996912500016,
            "value": 0
          },
          {
            "number": 10,
            "time": 74.12139768750016,
            "value": 1
          },
          {
            "number": 10,
            "time": 74.14282625000017,
            "value": 0
          },
          {
            "number": 10,
            "time": 74.16425481250018,
            "value": 1
          },
          {
            "number": 10,
            "time": 74.18568337500018,
            "value": 0
          },
          {
            "number": 10,
            "time": 74.20711193750019,
            "value": 1
          },
          {
            "number": 10,
            "time": 74.2285405000002,
            "value": 0
          },
          {
            "number": 10,
            "time": 74.2499690625002,
            "value": 1
          },
          {
            "number": 10,
            "time": 74.2713976250002,
            "value": 0
          },
          {
            "number": 10,
            "time": 74.29282618750021,
            "value": 1
          },
          {
            "number": 10,
            "time": 74.31425475000022,
            "value": 0
          },
          {
            "number": 10,
            "time": 74.33568331250022,
            "value": 1
          },
          {
            "number": 10,
            "time": 74.35711187500023,
            "value": 0
          },
          {
            "number": 10,
            "time": 74.37854043750023,
            "value": 1
          },
          {
            "number": 10,
            "time": 74.39996900000024,
            "value": 0
          },
          {
            "number": 10,
            "time": 74.42139756250025,
            "value": 1
          },
          {
            "number": 10,
            "time": 74.44282612500025,
            "value": 0
          },
          {
            "number": 10,
            "time": 74.46425468750026,
            "value": 1
          },
          {
            "number": 10,
            "time": 74.48568325000026,
            "value": 0
          },
          {
            "number": 10,
            "time": 74.50711181250027,
            "value": 1
          },
          {
            "number": 10,
            "time": 74.52854037500028,
            "value": 0
          },
          {
            "number": 10,
            "time": 74.54996893750028,
            "value": 1
          },
          {
            "number": 10,
            "time": 74.57139750000029,
            "value": 0
          },
          {
            "number": 10,
            "time": 74.5928260625003,
            "value": 1
          },
          {
            "number": 10,
            "time": 74.6142546250003,
            "value": 0
          },
          {
            "number": 10,
            "time": 74.6356831875003,
            "value": 1
          },
          {
            "number": 10,
            "time": 74.65711175000031,
            "value": 0
          },
          {
            "number": 10,
            "time": 74.67854031250032,
            "value": 1
          },
          {
            "number": 10,
            "time": 74.69996887500032,
            "value": 0
          },
          {
            "number": 10,
            "time": 74.72139743750033,
            "value": 1
          },
          {
            "number": 10,
            "time": 74.74282600000033,
            "value": 0
          },
          {
            "number": 10,
            "time": 74.76425456250034,
            "value": 1
          },
          {
            "number": 10,
            "time": 74.78568312500035,
            "value": 0
          },
          {
            "number": 10,
            "time": 74.80711168750035,
            "value": 1
          },
          {
            "number": 10,
            "time": 74.82854025000036,
            "value": 0
          },
          {
            "number": 10,
            "time": 74.84996881250036,
            "value": 1
          },
          {
            "number": 10,
            "time": 74.87139737500037,
            "value": 0
          },
          {
            "number": 10,
            "time": 74.89282593750038,
            "value": 1
          },
          {
            "number": 10,
            "time": 74.91425450000038,
            "value": 0
          },
          {
            "number": 10,
            "time": 74.93568306250039,
            "value": 1
          },
          {
            "number": 10,
            "time": 74.9571116250004,
            "value": 0
          },
          {
            "number": 10,
            "time": 74.9785401875004,
            "value": 1
          },
          {
            "number": 10,
            "time": 74.9999687500004,
            "value": 0
          },
          {
            "number": 10,
            "time": 75.02139731250041,
            "value": 1
          },
          {
            "number": 10,
            "time": 75.04282587500042,
            "value": 0
          },
          {
            "number": 10,
            "time": 75.06425443750042,
            "value": 1
          },
          {
            "number": 10,
            "time": 75.08568300000043,
            "value": 0
          },
          {
            "number": 10,
            "time": 75.10711156250044,
            "value": 1
          },
          {
            "number": 10,
            "time": 75.12854012500044,
            "value": 0
          },
          {
            "number": 10,
            "time": 75.14996868750045,
            "value": 1
          },
          {
            "number": 10,
            "time": 75.17139725000045,
            "value": 0
          },
          {
            "number": 10,
            "time": 75.19282581250046,
            "value": 1
          },
          {
            "number": 10,
            "time": 75.21425437500046,
            "value": 0
          },
          {
            "number": 10,
            "time": 75.23568293750047,
            "value": 1
          },
          {
            "number": 10,
            "time": 75.25711150000048,
            "value": 0
          },
          {
            "number": 10,
            "time": 75.27854006250048,
            "value": 1
          },
          {
            "number": 10,
            "time": 75.29996862500049,
            "value": 0
          },
          {
            "number": 10,
            "time": 75.3213971875005,
            "value": 1
          },
          {
            "number": 10,
            "time": 75.3428257500005,
            "value": 0
          },
          {
            "number": 10,
            "time": 75.3642543125005,
            "value": 1
          },
          {
            "number": 10,
            "time": 75.38568287500051,
            "value": 0
          },
          {
            "number": 10,
            "time": 75.40711143750052,
            "value": 1
          },
          {
            "number": 10,
            "time": 75.42854000000052,
            "value": 0
          },
          {
            "number": 10,
            "time": 75.44996856250053,
            "value": 1
          },
          {
            "number": 10,
            "time": 75.47139712500054,
            "value": 0
          },
          {
            "number": 10,
            "time": 75.49282568750054,
            "value": 1
          },
          {
            "number": 10,
            "time": 75.51425425000055,
            "value": 0
          },
          {
            "number": 10,
            "time": 75.53568281250055,
            "value": 1
          },
          {
            "number": 10,
            "time": 75.55711137500056,
            "value": 0
          },
          {
            "number": 10,
            "time": 75.57853993750057,
            "value": 1
          },
          {
            "number": 10,
            "time": 75.59996850000057,
            "value": 0
          },
          {
            "number": 10,
            "time": 75.62139706250058,
            "value": 1
          },
          {
            "number": 10,
            "time": 75.64282562500058,
            "value": 0
          },
          {
            "number": 10,
            "time": 75.66425418750059,
            "value": 1
          },
          {
            "number": 10,
            "time": 75.6856827500006,
            "value": 0
          },
          {
            "number": 10,
            "time": 75.7071113125006,
            "value": 1
          },
          {
            "number": 10,
            "time": 75.7285398750006,
            "value": 0
          },
          {
            "number": 10,
            "time": 75.74996843750061,
            "value": 1
          },
          {
            "number": 10,
            "time": 75.77139700000062,
            "value": 0
          },
          {
            "number": 10,
            "time": 75.79282556250062,
            "value": 1
          },
          {
            "number": 10,
            "time": 75.81425412500063,
            "value": 0
          },
          {
            "number": 10,
            "time": 75.83568268750064,
            "value": 1
          },
          {
            "number": 10,
            "time": 75.85711125000064,
            "value": 0
          },
          {
            "number": 10,
            "time": 75.87853981250065,
            "value": 1
          },
          {
            "number": 10,
            "time": 75.89996837500065,
            "value": 0
          },
          {
            "number": 10,
            "time": 75.92139693750066,
            "value": 1
          },
          {
            "number": 10,
            "time": 75.94282550000067,
            "value": 0
          },
          {
            "number": 10,
            "time": 75.96425406250067,
            "value": 1
          },
          {
            "number": 10,
            "time": 75.98568262500068,
            "value": 0
          },
          {
            "number": 10,
            "time": 76.00711118750068,
            "value": 1
          },
          {
            "number": 10,
            "time": 76.02853975000069,
            "value": 0
          },
          {
            "number": 10,
            "time": 76.0499683125007,
            "value": 1
          },
          {
            "number": 10,
            "time": 76.0713968750007,
            "value": 0
          },
          {
            "number": 10,
            "time": 76.09282543750071,
            "value": 1
          },
          {
            "number": 10,
            "time": 76.11425400000071,
            "value": 0
          },
          {
            "number": 10,
            "time": 76.13568256250072,
            "value": 1
          },
          {
            "number": 10,
            "time": 76.15711112500072,
            "value": 0
          },
          {
            "number": 10,
            "time": 76.17853968750073,
            "value": 1
          },
          {
            "number": 10,
            "time": 76.19996825000074,
            "value": 0
          },
          {
            "number": 10,
            "time": 76.22139681250074,
            "value": 1
          },
          {
            "number": 10,
            "time": 76.24282537500075,
            "value": 0
          },
          {
            "number": 10,
            "time": 76.26425393750075,
            "value": 1
          },
          {
            "number": 10,
            "time": 76.28568250000076,
            "value": 0
          },
          {
            "number": 10,
            "time": 76.30711106250077,
            "value": 1
          },
          {
            "number": 10,
            "time": 76.32853962500077,
            "value": 0
          },
          {
            "number": 10,
            "time": 76.34996818750078,
            "value": 1
          },
          {
            "number": 10,
            "time": 76.37139675000078,
            "value": 0
          },
          {
            "number": 10,
            "time": 76.39282531250079,
            "value": 1
          },
          {
            "number": 10,
            "time": 76.4142538750008,
            "value": 0
          },
          {
            "number": 10,
            "time": 76.4356824375008,
            "value": 1
          },
          {
            "number": 10,
            "time": 76.45711100000081,
            "value": 0
          },
          {
            "number": 10,
            "time": 76.47853956250081,
            "value": 1
          },
          {
            "number": 10,
            "time": 76.49996812500082,
            "value": 0
          },
          {
            "number": 10,
            "time": 76.52139668750083,
            "value": 1
          },
          {
            "number": 10,
            "time": 76.54282525000083,
            "value": 0
          },
          {
            "number": 10,
            "time": 76.56425381250084,
            "value": 1
          },
          {
            "number": 10,
            "time": 76.58568237500084,
            "value": 0
          },
          {
            "number": 10,
            "time": 76.60711093750085,
            "value": 1
          },
          {
            "number": 10,
            "time": 76.62853950000085,
            "value": 0
          },
          {
            "number": 10,
            "time": 76.64996806250086,
            "value": 1
          },
          {
            "number": 10,
            "time": 76.67139662500087,
            "value": 0
          },
          {
            "number": 10,
            "time": 76.69282518750087,
            "value": 1
          },
          {
            "number": 10,
            "time": 76.71425375000088,
            "value": 0
          },
          {
            "number": 10,
            "time": 76.73568231250088,
            "value": 1
          },
          {
            "number": 10,
            "time": 76.75711087500089,
            "value": 0
          },
          {
            "number": 10,
            "time": 76.7785394375009,
            "value": 1
          },
          {
            "number": 10,
            "time": 76.7999680000009,
            "value": 0
          },
          {
            "number": 10,
            "time": 76.82139656250091,
            "value": 1
          },
          {
            "number": 10,
            "time": 76.84282512500091,
            "value": 0
          },
          {
            "number": 10,
            "time": 76.86425368750092,
            "value": 1
          },
          {
            "number": 10,
            "time": 76.88568225000093,
            "value": 0
          },
          {
            "number": 10,
            "time": 76.90711081250093,
            "value": 1
          },
          {
            "number": 10,
            "time": 76.92853937500094,
            "value": 0
          },
          {
            "number": 10,
            "time": 76.94996793750094,
            "value": 1
          },
          {
            "number": 10,
            "time": 76.97139650000095,
            "value": 0
          },
          {
            "number": 10,
            "time": 76.99282506250096,
            "value": 1
          },
          {
            "number": 10,
            "time": 77.01425362500096,
            "value": 0
          },
          {
            "number": 10,
            "time": 77.03568218750097,
            "value": 1
          },
          {
            "number": 10,
            "time": 77.05711075000097,
            "value": 0
          },
          {
            "number": 10,
            "time": 77.07853931250098,
            "value": 1
          },
          {
            "number": 10,
            "time": 77.09996787500098,
            "value": 0
          },
          {
            "number": 10,
            "time": 77.12139643750099,
            "value": 1
          },
          {
            "number": 10,
            "time": 77.142825000001,
            "value": 0
          },
          {
            "number": 10,
            "time": 77.164253562501,
            "value": 1
          },
          {
            "number": 10,
            "time": 77.18568212500101,
            "value": 0
          },
          {
            "number": 10,
            "time": 77.20711068750101,
            "value": 1
          },
          {
            "number": 10,
            "time": 77.22853925000102,
            "value": 0
          },
          {
            "number": 10,
            "time": 77.24996781250103,
            "value": 1
          },
          {
            "number": 10,
            "time": 77.27139637500103,
            "value": 0
          },
          {
            "number": 10,
            "time": 77.29282493750104,
            "value": 1
          },
          {
            "number": 10,
            "time": 77.31425350000104,
            "value": 0
          },
          {
            "number": 10,
            "time": 77.33568206250105,
            "value": 1
          },
          {
            "number": 10,
            "time": 77.35711062500106,
            "value": 0
          },
          {
            "number": 10,
            "time": 77.37853918750106,
            "value": 1
          },
          {
            "number": 10,
            "time": 77.39996775000107,
            "value": 0
          },
          {
            "number": 10,
            "time": 77.42139631250107,
            "value": 1
          },
          {
            "number": 10,
            "time": 77.44282487500108,
            "value": 0
          },
          {
            "number": 10,
            "time": 77.46425343750109,
            "value": 1
          },
          {
            "number": 10,
            "time": 77.48568200000109,
            "value": 0
          },
          {
            "number": 10,
            "time": 77.5071105625011,
            "value": 1
          },
          {
            "number": 10,
            "time": 77.5285391250011,
            "value": 0
          },
          {
            "number": 10,
            "time": 77.54996768750111,
            "value": 1
          },
          {
            "number": 10,
            "time": 77.57139625000111,
            "value": 0
          },
          {
            "number": 10,
            "time": 77.59282481250112,
            "value": 1
          },
          {
            "number": 10,
            "time": 77.61425337500113,
            "value": 0
          },
          {
            "number": 10,
            "time": 77.63568193750113,
            "value": 1
          },
          {
            "number": 10,
            "time": 77.65711050000114,
            "value": 0
          },
          {
            "number": 10,
            "time": 77.67853906250114,
            "value": 1
          },
          {
            "number": 10,
            "time": 77.69996762500115,
            "value": 0
          },
          {
            "number": 10,
            "time": 77.72139618750116,
            "value": 1
          },
          {
            "number": 10,
            "time": 77.74282475000116,
            "value": 0
          },
          {
            "number": 10,
            "time": 77.76425331250117,
            "value": 1
          },
          {
            "number": 10,
            "time": 77.78568187500117,
            "value": 0
          },
          {
            "number": 10,
            "time": 77.80711043750118,
            "value": 1
          },
          {
            "number": 10,
            "time": 77.82853900000119,
            "value": 0
          },
          {
            "number": 10,
            "time": 77.84996756250119,
            "value": 1
          },
          {
            "number": 10,
            "time": 77.8713961250012,
            "value": 0
          },
          {
            "number": 10,
            "time": 77.8928246875012,
            "value": 1
          },
          {
            "number": 10,
            "time": 77.91425325000121,
            "value": 0
          },
          {
            "number": 10,
            "time": 77.93568181250122,
            "value": 1
          },
          {
            "number": 10,
            "time": 77.95711037500122,
            "value": 0
          },
          {
            "number": 10,
            "time": 77.97853893750123,
            "value": 1
          },
          {
            "number": 10,
            "time": 77.99996750000123,
            "value": 0
          },
          {
            "number": 10,
            "time": 78.02139606250124,
            "value": 1
          },
          {
            "number": 10,
            "time": 78.04282462500124,
            "value": 0
          },
          {
            "number": 10,
            "time": 78.06425318750125,
            "value": 1
          },
          {
            "number": 10,
            "time": 78.08568175000126,
            "value": 0
          },
          {
            "number": 10,
            "time": 78.10711031250126,
            "value": 1
          },
          {
            "number": 10,
            "time": 78.12853887500127,
            "value": 0
          },
          {
            "number": 10,
            "time": 78.14996743750127,
            "value": 1
          },
          {
            "number": 10,
            "time": 78.17139600000128,
            "value": 0
          },
          {
            "number": 10,
            "time": 78.19282456250129,
            "value": 1
          },
          {
            "number": 10,
            "time": 78.21425312500129,
            "value": 0
          },
          {
            "number": 10,
            "time": 78.2356816875013,
            "value": 1
          },
          {
            "number": 10,
            "time": 78.2571102500013,
            "value": 0
          },
          {
            "number": 10,
            "time": 78.27853881250131,
            "value": 1
          },
          {
            "number": 10,
            "time": 78.29996737500132,
            "value": 0
          },
          {
            "number": 10,
            "time": 78.32139593750132,
            "value": 1
          },
          {
            "number": 10,
            "time": 78.34282450000133,
            "value": 0
          },
          {
            "number": 10,
            "time": 78.36425306250133,
            "value": 1
          },
          {
            "number": 10,
            "time": 78.38568162500134,
            "value": 0
          },
          {
            "number": 10,
            "time": 78.40711018750135,
            "value": 1
          },
          {
            "number": 10,
            "time": 78.42853875000135,
            "value": 0
          },
          {
            "number": 10,
            "time": 78.44996731250136,
            "value": 1
          },
          {
            "number": 10,
            "time": 78.47139587500136,
            "value": 0
          },
          {
            "number": 10,
            "time": 78.49282443750137,
            "value": 1
          },
          {
            "number": 10,
            "time": 78.51425300000137,
            "value": 0
          },
          {
            "number": 10,
            "time": 78.53568156250138,
            "value": 1
          },
          {
            "number": 10,
            "time": 78.55711012500139,
            "value": 0
          },
          {
            "number": 10,
            "time": 78.57853868750139,
            "value": 1
          },
          {
            "number": 10,
            "time": 78.5999672500014,
            "value": 0
          },
          {
            "number": 10,
            "time": 78.6213958125014,
            "value": 1
          },
          {
            "number": 10,
            "time": 78.64282437500141,
            "value": 0
          },
          {
            "number": 10,
            "time": 78.66425293750142,
            "value": 1
          },
          {
            "number": 10,
            "time": 78.68568150000142,
            "value": 0
          },
          {
            "number": 10,
            "time": 78.70711006250143,
            "value": 1
          },
          {
            "number": 10,
            "time": 78.72853862500143,
            "value": 0
          },
          {
            "number": 10,
            "time": 78.74996718750144,
            "value": 1
          },
          {
            "number": 10,
            "time": 78.77139575000145,
            "value": 0
          },
          {
            "number": 10,
            "time": 78.79282431250145,
            "value": 1
          },
          {
            "number": 10,
            "time": 78.81425287500146,
            "value": 0
          },
          {
            "number": 10,
            "time": 78.83568143750146,
            "value": 1
          },
          {
            "number": 10,
            "time": 78.85711000000147,
            "value": 0
          },
          {
            "number": 10,
            "time": 78.87853856250148,
            "value": 1
          },
          {
            "number": 10,
            "time": 78.89996712500148,
            "value": 0
          },
          {
            "number": 10,
            "time": 78.92139568750149,
            "value": 1
          },
          {
            "number": 10,
            "time": 78.9428242500015,
            "value": 0
          },
          {
            "number": 10,
            "time": 78.9642528125015,
            "value": 1
          },
          {
            "number": 10,
            "time": 78.9856813750015,
            "value": 0
          },
          {
            "number": 10,
            "time": 79.00710993750151,
            "value": 1
          },
          {
            "number": 10,
            "time": 79.02853850000152,
            "value": 0
          },
          {
            "number": 10,
            "time": 79.04996706250152,
            "value": 1
          },
          {
            "number": 10,
            "time": 79.07139562500153,
            "value": 0
          },
          {
            "number": 10,
            "time": 79.09282418750153,
            "value": 1
          },
          {
            "number": 10,
            "time": 79.11425275000154,
            "value": 0
          },
          {
            "number": 10,
            "time": 79.13568131250155,
            "value": 1
          },
          {
            "number": 10,
            "time": 79.15710987500155,
            "value": 0
          },
          {
            "number": 10,
            "time": 79.17853843750156,
            "value": 1
          },
          {
            "number": 10,
            "time": 79.19996700000156,
            "value": 0
          },
          {
            "number": 10,
            "time": 79.22139556250157,
            "value": 1
          },
          {
            "number": 10,
            "time": 79.24282412500158,
            "value": 0
          },
          {
            "number": 10,
            "time": 79.26425268750158,
            "value": 1
          },
          {
            "number": 10,
            "time": 79.28568125000159,
            "value": 0
          },
          {
            "number": 10,
            "time": 79.3071098125016,
            "value": 1
          },
          {
            "number": 10,
            "time": 79.3285383750016,
            "value": 0
          },
          {
            "number": 10,
            "time": 79.3499669375016,
            "value": 1
          },
          {
            "number": 10,
            "time": 79.37139550000161,
            "value": 0
          },
          {
            "number": 10,
            "time": 79.39282406250162,
            "value": 1
          },
          {
            "number": 10,
            "time": 79.41425262500162,
            "value": 0
          },
          {
            "number": 10,
            "time": 79.43568118750163,
            "value": 1
          },
          {
            "number": 10,
            "time": 79.45710975000164,
            "value": 0
          },
          {
            "number": 10,
            "time": 79.47853831250164,
            "value": 1
          },
          {
            "number": 10,
            "time": 79.49996687500165,
            "value": 0
          },
          {
            "number": 10,
            "time": 79.52139543750165,
            "value": 1
          },
          {
            "number": 10,
            "time": 79.54282400000166,
            "value": 0
          },
          {
            "number": 10,
            "time": 79.56425256250166,
            "value": 1
          },
          {
            "number": 10,
            "time": 79.58568112500167,
            "value": 0
          },
          {
            "number": 10,
            "time": 79.60710968750168,
            "value": 1
          },
          {
            "number": 10,
            "time": 79.62853825000168,
            "value": 0
          },
          {
            "number": 10,
            "time": 79.64996681250169,
            "value": 1
          },
          {
            "number": 10,
            "time": 79.6713953750017,
            "value": 0
          },
          {
            "number": 10,
            "time": 79.6928239375017,
            "value": 1
          },
          {
            "number": 10,
            "time": 79.7142525000017,
            "value": 0
          },
          {
            "number": 10,
            "time": 79.73568106250171,
            "value": 1
          },
          {
            "number": 10,
            "time": 79.75710962500172,
            "value": 0
          },
          {
            "number": 10,
            "time": 79.77853818750172,
            "value": 1
          },
          {
            "number": 10,
            "time": 79.79996675000173,
            "value": 0
          },
          {
            "number": 10,
            "time": 79.82139531250174,
            "value": 1
          },
          {
            "number": 10,
            "time": 79.84282387500174,
            "value": 0
          },
          {
            "number": 10,
            "time": 79.86425243750175,
            "value": 1
          },
          {
            "number": 10,
            "time": 80.39996650000171,
            "value": 0
          },
          {
            "number": 10,
            "time": 80.42139506250172,
            "value": 1
          },
          {
            "number": 10,
            "time": 80.44282362500172,
            "value": 0
          },
          {
            "number": 10,
            "time": 80.46425218750173,
            "value": 1
          },
          {
            "number": 10,
            "time": 80.48568075000173,
            "value": 0
          },
          {
            "number": 10,
            "time": 80.50710931250174,
            "value": 1
          },
          {
            "number": 10,
            "time": 80.52853787500175,
            "value": 0
          },
          {
            "number": 10,
            "time": 80.54996643750175,
            "value": 1
          },
          {
            "number": 10,
            "time": 80.57139500000176,
            "value": 0
          },
          {
            "number": 10,
            "time": 80.59282356250176,
            "value": 1
          },
          {
            "number": 10,
            "time": 80.61425212500177,
            "value": 0
          },
          {
            "number": 10,
            "time": 80.63568068750178,
            "value": 1
          },
          {
            "number": 10,
            "time": 80.65710925000178,
            "value": 0
          },
          {
            "number": 10,
            "time": 80.67853781250179,
            "value": 1
          },
          {
            "number": 10,
            "time": 80.6999663750018,
            "value": 0
          },
          {
            "number": 10,
            "time": 80.7213949375018,
            "value": 1
          },
          {
            "number": 10,
            "time": 80.7428235000018,
            "value": 0
          },
          {
            "number": 10,
            "time": 80.76425206250181,
            "value": 1
          },
          {
            "number": 10,
            "time": 80.78568062500182,
            "value": 0
          },
          {
            "number": 10,
            "time": 80.80710918750182,
            "value": 1
          },
          {
            "number": 10,
            "time": 80.82853775000183,
            "value": 0
          },
          {
            "number": 10,
            "time": 80.84996631250183,
            "value": 1
          },
          {
            "number": 10,
            "time": 80.87139487500184,
            "value": 0
          },
          {
            "number": 10,
            "time": 80.89282343750185,
            "value": 1
          },
          {
            "number": 10,
            "time": 80.91425200000185,
            "value": 0
          },
          {
            "number": 10,
            "time": 80.93568056250186,
            "value": 1
          },
          {
            "number": 10,
            "time": 80.95710912500186,
            "value": 0
          },
          {
            "number": 10,
            "time": 80.97853768750187,
            "value": 1
          },
          {
            "number": 10,
            "time": 80.99996625000188,
            "value": 0
          },
          {
            "number": 10,
            "time": 81.02139481250188,
            "value": 1
          },
          {
            "number": 10,
            "time": 81.04282337500189,
            "value": 0
          },
          {
            "number": 10,
            "time": 81.0642519375019,
            "value": 1
          },
          {
            "number": 10,
            "time": 81.0856805000019,
            "value": 0
          },
          {
            "number": 10,
            "time": 81.1071090625019,
            "value": 1
          },
          {
            "number": 10,
            "time": 81.12853762500191,
            "value": 0
          },
          {
            "number": 10,
            "time": 81.14996618750192,
            "value": 1
          },
          {
            "number": 10,
            "time": 81.17139475000192,
            "value": 0
          },
          {
            "number": 10,
            "time": 81.19282331250193,
            "value": 1
          },
          {
            "number": 10,
            "time": 81.21425187500193,
            "value": 0
          },
          {
            "number": 10,
            "time": 81.23568043750194,
            "value": 1
          },
          {
            "number": 10,
            "time": 81.25710900000195,
            "value": 0
          },
          {
            "number": 10,
            "time": 81.27853756250195,
            "value": 1
          },
          {
            "number": 10,
            "time": 81.29996612500196,
            "value": 0
          },
          {
            "number": 10,
            "time": 81.32139468750196,
            "value": 1
          },
          {
            "number": 10,
            "time": 81.34282325000197,
            "value": 0
          },
          {
            "number": 10,
            "time": 81.36425181250198,
            "value": 1
          },
          {
            "number": 10,
            "time": 81.38568037500198,
            "value": 0
          },
          {
            "number": 10,
            "time": 81.40710893750199,
            "value": 1
          },
          {
            "number": 10,
            "time": 81.428537500002,
            "value": 0
          },
          {
            "number": 10,
            "time": 81.449966062502,
            "value": 1
          },
          {
            "number": 10,
            "time": 81.471394625002,
            "value": 0
          },
          {
            "number": 10,
            "time": 81.49282318750201,
            "value": 1
          },
          {
            "number": 10,
            "time": 81.51425175000202,
            "value": 0
          },
          {
            "number": 10,
            "time": 81.53568031250202,
            "value": 1
          },
          {
            "number": 10,
            "time": 81.55710887500203,
            "value": 0
          },
          {
            "number": 10,
            "time": 81.57853743750204,
            "value": 1
          },
          {
            "number": 10,
            "time": 81.59996600000204,
            "value": 0
          },
          {
            "number": 10,
            "time": 81.62139456250205,
            "value": 1
          },
          {
            "number": 10,
            "time": 81.64282312500205,
            "value": 0
          },
          {
            "number": 10,
            "time": 81.66425168750206,
            "value": 1
          },
          {
            "number": 10,
            "time": 81.68568025000206,
            "value": 0
          },
          {
            "number": 10,
            "time": 81.70710881250207,
            "value": 1
          },
          {
            "number": 10,
            "time": 81.72853737500208,
            "value": 0
          },
          {
            "number": 10,
            "time": 81.74996593750208,
            "value": 1
          },
          {
            "number": 10,
            "time": 81.77139450000209,
            "value": 0
          },
          {
            "number": 10,
            "time": 81.7928230625021,
            "value": 1
          },
          {
            "number": 10,
            "time": 81.8142516250021,
            "value": 0
          },
          {
            "number": 10,
            "time": 81.8356801875021,
            "value": 1
          },
          {
            "number": 10,
            "time": 81.85710875000211,
            "value": 0
          },
          {
            "number": 10,
            "time": 81.87853731250212,
            "value": 1
          },
          {
            "number": 10,
            "time": 81.89996587500212,
            "value": 0
          },
          {
            "number": 10,
            "time": 81.92139443750213,
            "value": 1
          },
          {
            "number": 10,
            "time": 81.94282300000214,
            "value": 0
          },
          {
            "number": 10,
            "time": 81.96425156250214,
            "value": 1
          },
          {
            "number": 10,
            "time": 81.98568012500215,
            "value": 0
          },
          {
            "number": 10,
            "time": 82.00710868750215,
            "value": 1
          },
          {
            "number": 10,
            "time": 82.02853725000216,
            "value": 0
          },
          {
            "number": 10,
            "time": 82.04996581250217,
            "value": 1
          },
          {
            "number": 10,
            "time": 82.07139437500217,
            "value": 0
          },
          {
            "number": 10,
            "time": 82.09282293750218,
            "value": 1
          },
          {
            "number": 10,
            "time": 82.11425150000218,
            "value": 0
          },
          {
            "number": 10,
            "time": 82.13568006250219,
            "value": 1
          },
          {
            "number": 10,
            "time": 82.1571086250022,
            "value": 0
          },
          {
            "number": 10,
            "time": 82.1785371875022,
            "value": 1
          },
          {
            "number": 10,
            "time": 82.1999657500022,
            "value": 0
          },
          {
            "number": 10,
            "time": 82.22139431250221,
            "value": 1
          },
          {
            "number": 10,
            "time": 82.24282287500222,
            "value": 0
          },
          {
            "number": 10,
            "time": 82.26425143750222,
            "value": 1
          },
          {
            "number": 10,
            "time": 82.28568000000223,
            "value": 0
          },
          {
            "number": 10,
            "time": 82.30710856250224,
            "value": 1
          },
          {
            "number": 10,
            "time": 82.32853712500224,
            "value": 0
          },
          {
            "number": 10,
            "time": 82.34996568750225,
            "value": 1
          },
          {
            "number": 10,
            "time": 82.37139425000225,
            "value": 0
          },
          {
            "number": 10,
            "time": 82.39282281250226,
            "value": 1
          },
          {
            "number": 10,
            "time": 82.41425137500227,
            "value": 0
          },
          {
            "number": 10,
            "time": 82.43567993750227,
            "value": 1
          },
          {
            "number": 10,
            "time": 82.45710850000228,
            "value": 0
          },
          {
            "number": 10,
            "time": 82.47853706250228,
            "value": 1
          },
          {
            "number": 10,
            "time": 82.49996562500229,
            "value": 0
          },
          {
            "number": 10,
            "time": 82.5213941875023,
            "value": 1
          },
          {
            "number": 10,
            "time": 82.5428227500023,
            "value": 0
          },
          {
            "number": 10,
            "time": 82.56425131250231,
            "value": 1
          },
          {
            "number": 10,
            "time": 82.58567987500231,
            "value": 0
          },
          {
            "number": 10,
            "time": 82.60710843750232,
            "value": 1
          },
          {
            "number": 10,
            "time": 82.62853700000232,
            "value": 0
          },
          {
            "number": 10,
            "time": 82.64996556250233,
            "value": 1
          },
          {
            "number": 10,
            "time": 82.67139412500234,
            "value": 0
          },
          {
            "number": 10,
            "time": 82.69282268750234,
            "value": 1
          },
          {
            "number": 10,
            "time": 82.71425125000235,
            "value": 0
          },
          {
            "number": 10,
            "time": 82.73567981250235,
            "value": 1
          },
          {
            "number": 10,
            "time": 82.75710837500236,
            "value": 0
          },
          {
            "number": 10,
            "time": 82.77853693750237,
            "value": 1
          },
          {
            "number": 10,
            "time": 82.79996550000237,
            "value": 0
          },
          {
            "number": 10,
            "time": 82.82139406250238,
            "value": 1
          },
          {
            "number": 10,
            "time": 82.84282262500238,
            "value": 0
          },
          {
            "number": 10,
            "time": 82.86425118750239,
            "value": 1
          },
          {
            "number": 10,
            "time": 82.8856797500024,
            "value": 0
          },
          {
            "number": 10,
            "time": 82.9071083125024,
            "value": 1
          },
          {
            "number": 10,
            "time": 82.92853687500241,
            "value": 0
          },
          {
            "number": 10,
            "time": 82.94996543750241,
            "value": 1
          },
          {
            "number": 10,
            "time": 82.97139400000242,
            "value": 0
          },
          {
            "number": 10,
            "time": 82.99282256250243,
            "value": 1
          },
          {
            "number": 10,
            "time": 83.01425112500243,
            "value": 0
          },
          {
            "number": 10,
            "time": 83.03567968750244,
            "value": 1
          },
          {
            "number": 10,
            "time": 83.05710825000244,
            "value": 0
          },
          {
            "number": 10,
            "time": 83.07853681250245,
            "value": 1
          },
          {
            "number": 10,
            "time": 83.09996537500245,
            "value": 0
          },
          {
            "number": 10,
            "time": 83.12139393750246,
            "value": 1
          },
          {
            "number": 10,
            "time": 83.14282250000247,
            "value": 0
          },
          {
            "number": 10,
            "time": 83.16425106250247,
            "value": 1
          },
          {
            "number": 10,
            "time": 83.18567962500248,
            "value": 0
          },
          {
            "number": 10,
            "time": 83.20710818750248,
            "value": 1
          },
          {
            "number": 10,
            "time": 83.22853675000249,
            "value": 0
          },
          {
            "number": 10,
            "time": 83.2499653125025,
            "value": 1
          },
          {
            "number": 10,
            "time": 83.2713938750025,
            "value": 0
          },
          {
            "number": 10,
            "time": 83.29282243750251,
            "value": 1
          },
          {
            "number": 10,
            "time": 83.31425100000251,
            "value": 0
          },
          {
            "number": 10,
            "time": 83.33567956250252,
            "value": 1
          },
          {
            "number": 10,
            "time": 83.35710812500253,
            "value": 0
          },
          {
            "number": 10,
            "time": 83.37853668750253,
            "value": 1
          },
          {
            "number": 10,
            "time": 83.39996525000254,
            "value": 0
          },
          {
            "number": 10,
            "time": 83.42139381250254,
            "value": 1
          },
          {
            "number": 10,
            "time": 83.44282237500255,
            "value": 0
          },
          {
            "number": 10,
            "time": 83.46425093750256,
            "value": 1
          },
          {
            "number": 10,
            "time": 83.48567950000256,
            "value": 0
          },
          {
            "number": 10,
            "time": 83.50710806250257,
            "value": 1
          },
          {
            "number": 10,
            "time": 83.52853662500257,
            "value": 0
          },
          {
            "number": 10,
            "time": 83.54996518750258,
            "value": 1
          },
          {
            "number": 10,
            "time": 83.57139375000258,
            "value": 0
          },
          {
            "number": 10,
            "time": 83.59282231250259,
            "value": 1
          },
          {
            "number": 10,
            "time": 83.6142508750026,
            "value": 0
          },
          {
            "number": 10,
            "time": 83.6356794375026,
            "value": 1
          },
          {
            "number": 10,
            "time": 83.65710800000261,
            "value": 0
          },
          {
            "number": 10,
            "time": 83.67853656250261,
            "value": 1
          },
          {
            "number": 10,
            "time": 83.69996512500262,
            "value": 0
          },
          {
            "number": 10,
            "time": 83.72139368750263,
            "value": 1
          },
          {
            "number": 10,
            "time": 83.74282225000263,
            "value": 0
          },
          {
            "number": 10,
            "time": 83.76425081250264,
            "value": 1
          },
          {
            "number": 10,
            "time": 83.78567937500264,
            "value": 0
          },
          {
            "number": 10,
            "time": 83.80710793750265,
            "value": 1
          },
          {
            "number": 10,
            "time": 83.82853650000266,
            "value": 0
          },
          {
            "number": 10,
            "time": 83.84996506250266,
            "value": 1
          },
          {
            "number": 10,
            "time": 83.87139362500267,
            "value": 0
          },
          {
            "number": 10,
            "time": 83.89282218750267,
            "value": 1
          },
          {
            "number": 10,
            "time": 83.91425075000268,
            "value": 0
          },
          {
            "number": 10,
            "time": 83.93567931250269,
            "value": 1
          },
          {
            "number": 10,
            "time": 83.95710787500269,
            "value": 0
          },
          {
            "number": 10,
            "time": 83.9785364375027,
            "value": 1
          },
          {
            "number": 10,
            "time": 83.9999650000027,
            "value": 0
          },
          {
            "number": 10,
            "time": 84.02139356250271,
            "value": 1
          },
          {
            "number": 10,
            "time": 84.04282212500271,
            "value": 0
          },
          {
            "number": 10,
            "time": 84.06425068750272,
            "value": 1
          },
          {
            "number": 10,
            "time": 84.08567925000273,
            "value": 0
          },
          {
            "number": 10,
            "time": 84.10710781250273,
            "value": 1
          },
          {
            "number": 10,
            "time": 84.12853637500274,
            "value": 0
          },
          {
            "number": 10,
            "time": 84.14996493750274,
            "value": 1
          },
          {
            "number": 10,
            "time": 84.17139350000275,
            "value": 0
          },
          {
            "number": 10,
            "time": 84.19282206250276,
            "value": 1
          },
          {
            "number": 10,
            "time": 84.21425062500276,
            "value": 0
          },
          {
            "number": 10,
            "time": 84.23567918750277,
            "value": 1
          },
          {
            "number": 10,
            "time": 84.25710775000277,
            "value": 0
          },
          {
            "number": 10,
            "time": 84.27853631250278,
            "value": 1
          },
          {
            "number": 10,
            "time": 84.29996487500279,
            "value": 0
          },
          {
            "number": 10,
            "time": 84.32139343750279,
            "value": 1
          },
          {
            "number": 10,
            "time": 84.3428220000028,
            "value": 0
          },
          {
            "number": 10,
            "time": 84.3642505625028,
            "value": 1
          },
          {
            "number": 10,
            "time": 84.38567912500281,
            "value": 0
          },
          {
            "number": 10,
            "time": 84.40710768750282,
            "value": 1
          },
          {
            "number": 10,
            "time": 84.42853625000282,
            "value": 0
          },
          {
            "number": 10,
            "time": 84.44996481250283,
            "value": 1
          },
          {
            "number": 10,
            "time": 84.47139337500283,
            "value": 0
          },
          {
            "number": 10,
            "time": 84.49282193750284,
            "value": 1
          },
          {
            "number": 10,
            "time": 84.51425050000285,
            "value": 0
          },
          {
            "number": 10,
            "time": 84.53567906250285,
            "value": 1
          },
          {
            "number": 10,
            "time": 84.55710762500286,
            "value": 0
          },
          {
            "number": 10,
            "time": 84.57853618750286,
            "value": 1
          },
          {
            "number": 10,
            "time": 84.59996475000287,
            "value": 0
          },
          {
            "number": 10,
            "time": 84.62139331250287,
            "value": 1
          },
          {
            "number": 10,
            "time": 84.64282187500288,
            "value": 0
          },
          {
            "number": 10,
            "time": 84.66425043750289,
            "value": 1
          },
          {
            "number": 10,
            "time": 84.68567900000289,
            "value": 0
          },
          {
            "number": 10,
            "time": 84.7071075625029,
            "value": 1
          },
          {
            "number": 10,
            "time": 84.7285361250029,
            "value": 0
          },
          {
            "number": 10,
            "time": 84.74996468750291,
            "value": 1
          },
          {
            "number": 10,
            "time": 84.77139325000292,
            "value": 0
          },
          {
            "number": 10,
            "time": 84.79282181250292,
            "value": 1
          },
          {
            "number": 10,
            "time": 84.81425037500293,
            "value": 0
          },
          {
            "number": 10,
            "time": 84.83567893750293,
            "value": 1
          },
          {
            "number": 10,
            "time": 84.85710750000294,
            "value": 0
          },
          {
            "number": 10,
            "time": 84.87853606250295,
            "value": 1
          },
          {
            "number": 10,
            "time": 84.89996462500295,
            "value": 0
          },
          {
            "number": 10,
            "time": 84.92139318750296,
            "value": 1
          },
          {
            "number": 10,
            "time": 84.94282175000296,
            "value": 0
          },
          {
            "number": 10,
            "time": 84.96425031250297,
            "value": 1
          },
          {
            "number": 10,
            "time": 84.98567887500298,
            "value": 0
          },
          {
            "number": 10,
            "time": 85.00710743750298,
            "value": 1
          },
          {
            "number": 10,
            "time": 85.02853600000299,
            "value": 0
          },
          {
            "number": 10,
            "time": 85.04996456250299,
            "value": 1
          },
          {
            "number": 10,
            "time": 85.071393125003,
            "value": 0
          },
          {
            "number": 10,
            "time": 85.092821687503,
            "value": 1
          },
          {
            "number": 10,
            "time": 85.11425025000301,
            "value": 0
          },
          {
            "number": 10,
            "time": 85.13567881250302,
            "value": 1
          },
          {
            "number": 10,
            "time": 85.15710737500302,
            "value": 0
          },
          {
            "number": 10,
            "time": 85.17853593750303,
            "value": 1
          },
          {
            "number": 10,
            "time": 85.19996450000303,
            "value": 0
          },
          {
            "number": 10,
            "time": 85.22139306250304,
            "value": 1
          },
          {
            "number": 10,
            "time": 85.24282162500305,
            "value": 0
          },
          {
            "number": 10,
            "time": 85.26425018750305,
            "value": 1
          },
          {
            "number": 10,
            "time": 85.28567875000306,
            "value": 0
          },
          {
            "number": 10,
            "time": 85.30710731250306,
            "value": 1
          },
          {
            "number": 10,
            "time": 85.32853587500307,
            "value": 0
          },
          {
            "number": 10,
            "time": 85.34996443750308,
            "value": 1
          },
          {
            "number": 10,
            "time": 85.37139300000308,
            "value": 0
          },
          {
            "number": 10,
            "time": 85.39282156250309,
            "value": 1
          },
          {
            "number": 10,
            "time": 85.4142501250031,
            "value": 0
          },
          {
            "number": 10,
            "time": 85.4356786875031,
            "value": 1
          },
          {
            "number": 10,
            "time": 85.4571072500031,
            "value": 0
          },
          {
            "number": 10,
            "time": 85.47853581250311,
            "value": 1
          },
          {
            "number": 10,
            "time": 85.49996437500312,
            "value": 0
          },
          {
            "number": 10,
            "time": 85.52139293750312,
            "value": 1
          },
          {
            "number": 10,
            "time": 85.54282150000313,
            "value": 0
          },
          {
            "number": 10,
            "time": 85.56425006250313,
            "value": 1
          },
          {
            "number": 10,
            "time": 85.58567862500314,
            "value": 0
          },
          {
            "number": 10,
            "time": 85.60710718750315,
            "value": 1
          },
          {
            "number": 10,
            "time": 85.62853575000315,
            "value": 0
          },
          {
            "number": 10,
            "time": 85.64996431250316,
            "value": 1
          },
          {
            "number": 10,
            "time": 85.67139287500316,
            "value": 0
          },
          {
            "number": 10,
            "time": 85.69282143750317,
            "value": 1
          },
          {
            "number": 10,
            "time": 85.71425000000318,
            "value": 0
          },
          {
            "number": 10,
            "time": 85.73567856250318,
            "value": 1
          },
          {
            "number": 10,
            "time": 85.75710712500319,
            "value": 0
          },
          {
            "number": 10,
            "time": 85.7785356875032,
            "value": 1
          },
          {
            "number": 10,
            "time": 85.7999642500032,
            "value": 0
          },
          {
            "number": 10,
            "time": 85.8213928125032,
            "value": 1
          },
          {
            "number": 10,
            "time": 85.84282137500321,
            "value": 0
          },
          {
            "number": 10,
            "time": 85.86424993750322,
            "value": 1
          },
          {
            "number": 10,
            "time": 85.88567850000322,
            "value": 0
          },
          {
            "number": 10,
            "time": 85.90710706250323,
            "value": 1
          },
          {
            "number": 10,
            "time": 85.92853562500324,
            "value": 0
          },
          {
            "number": 10,
            "time": 85.94996418750324,
            "value": 1
          },
          {
            "number": 10,
            "time": 85.97139275000325,
            "value": 0
          },
          {
            "number": 10,
            "time": 85.99282131250325,
            "value": 1
          },
          {
            "number": 10,
            "time": 86.01424987500326,
            "value": 0
          },
          {
            "number": 10,
            "time": 86.03567843750326,
            "value": 1
          },
          {
            "number": 10,
            "time": 86.05710700000327,
            "value": 0
          },
          {
            "number": 10,
            "time": 86.07853556250328,
            "value": 1
          },
          {
            "number": 10,
            "time": 86.09996412500328,
            "value": 0
          },
          {
            "number": 10,
            "time": 86.12139268750329,
            "value": 1
          },
          {
            "number": 10,
            "time": 86.1428212500033,
            "value": 0
          },
          {
            "number": 10,
            "time": 86.1642498125033,
            "value": 1
          },
          {
            "number": 10,
            "time": 86.1856783750033,
            "value": 0
          },
          {
            "number": 10,
            "time": 86.20710693750331,
            "value": 1
          },
          {
            "number": 10,
            "time": 86.22853550000332,
            "value": 0
          },
          {
            "number": 10,
            "time": 86.24996406250332,
            "value": 1
          },
          {
            "number": 10,
            "time": 86.27139262500333,
            "value": 0
          },
          {
            "number": 10,
            "time": 86.29282118750334,
            "value": 1
          },
          {
            "number": 10,
            "time": 86.31424975000334,
            "value": 0
          },
          {
            "number": 10,
            "time": 86.33567831250335,
            "value": 1
          },
          {
            "number": 10,
            "time": 86.35710687500335,
            "value": 0
          },
          {
            "number": 10,
            "time": 86.37853543750336,
            "value": 1
          },
          {
            "number": 10,
            "time": 86.39996400000337,
            "value": 0
          },
          {
            "number": 10,
            "time": 86.42139256250337,
            "value": 1
          },
          {
            "number": 10,
            "time": 86.44282112500338,
            "value": 0
          },
          {
            "number": 10,
            "time": 86.46424968750338,
            "value": 1
          },
          {
            "number": 10,
            "time": 86.48567825000339,
            "value": 0
          },
          {
            "number": 10,
            "time": 86.5071068125034,
            "value": 1
          },
          {
            "number": 10,
            "time": 86.5285353750034,
            "value": 0
          },
          {
            "number": 10,
            "time": 86.5499639375034,
            "value": 1
          },
          {
            "number": 10,
            "time": 86.57139250000341,
            "value": 0
          },
          {
            "number": 10,
            "time": 86.59282106250342,
            "value": 1
          },
          {
            "number": 10,
            "time": 86.61424962500342,
            "value": 0
          },
          {
            "number": 10,
            "time": 86.63567818750343,
            "value": 1
          },
          {
            "number": 10,
            "time": 86.65710675000344,
            "value": 0
          },
          {
            "number": 10,
            "time": 86.67853531250344,
            "value": 1
          },
          {
            "number": 10,
            "time": 86.69996387500345,
            "value": 0
          },
          {
            "number": 10,
            "time": 86.72139243750345,
            "value": 1
          },
          {
            "number": 10,
            "time": 86.74282100000346,
            "value": 0
          },
          {
            "number": 10,
            "time": 86.76424956250347,
            "value": 1
          },
          {
            "number": 10,
            "time": 86.78567812500347,
            "value": 0
          },
          {
            "number": 10,
            "time": 86.80710668750348,
            "value": 1
          },
          {
            "number": 10,
            "time": 86.82853525000348,
            "value": 0
          },
          {
            "number": 10,
            "time": 86.84996381250349,
            "value": 1
          },
          {
            "number": 10,
            "time": 86.8713923750035,
            "value": 0
          },
          {
            "number": 10,
            "time": 86.8928209375035,
            "value": 1
          },
          {
            "number": 10,
            "time": 86.9142495000035,
            "value": 0
          },
          {
            "number": 10,
            "time": 86.93567806250351,
            "value": 1
          },
          {
            "number": 10,
            "time": 86.95710662500352,
            "value": 0
          },
          {
            "number": 10,
            "time": 86.97853518750352,
            "value": 1
          },
          {
            "number": 10,
            "time": 86.99996375000353,
            "value": 0
          },
          {
            "number": 10,
            "time": 87.02139231250354,
            "value": 1
          },
          {
            "number": 10,
            "time": 87.04282087500354,
            "value": 0
          },
          {
            "number": 10,
            "time": 87.06424943750355,
            "value": 1
          },
          {
            "number": 10,
            "time": 87.08567800000355,
            "value": 0
          },
          {
            "number": 10,
            "time": 87.10710656250356,
            "value": 1
          },
          {
            "number": 10,
            "time": 87.12853512500357,
            "value": 0
          },
          {
            "number": 10,
            "time": 87.14996368750357,
            "value": 1
          },
          {
            "number": 10,
            "time": 87.17139225000358,
            "value": 0
          },
          {
            "number": 10,
            "time": 87.19282081250358,
            "value": 1
          },
          {
            "number": 10,
            "time": 87.21424937500359,
            "value": 0
          },
          {
            "number": 10,
            "time": 87.2356779375036,
            "value": 1
          },
          {
            "number": 10,
            "time": 87.2571065000036,
            "value": 0
          },
          {
            "number": 10,
            "time": 87.27853506250361,
            "value": 1
          },
          {
            "number": 10,
            "time": 87.29996362500361,
            "value": 0
          },
          {
            "number": 10,
            "time": 87.32139218750362,
            "value": 1
          },
          {
            "number": 10,
            "time": 87.34282075000363,
            "value": 0
          },
          {
            "number": 10,
            "time": 87.36424931250363,
            "value": 1
          },
          {
            "number": 10,
            "time": 87.38567787500364,
            "value": 0
          },
          {
            "number": 10,
            "time": 87.40710643750364,
            "value": 1
          },
          {
            "number": 10,
            "time": 87.42853500000365,
            "value": 0
          },
          {
            "number": 10,
            "time": 87.44996356250365,
            "value": 1
          },
          {
            "number": 10,
            "time": 87.47139212500366,
            "value": 0
          },
          {
            "number": 10,
            "time": 87.49282068750367,
            "value": 1
          },
          {
            "number": 10,
            "time": 87.51424925000367,
            "value": 0
          },
          {
            "number": 10,
            "time": 87.53567781250368,
            "value": 1
          },
          {
            "number": 10,
            "time": 87.55710637500368,
            "value": 0
          },
          {
            "number": 10,
            "time": 87.57853493750369,
            "value": 1
          },
          {
            "number": 10,
            "time": 87.5999635000037,
            "value": 0
          },
          {
            "number": 10,
            "time": 87.6213920625037,
            "value": 1
          },
          {
            "number": 10,
            "time": 87.64282062500371,
            "value": 0
          },
          {
            "number": 10,
            "time": 87.66424918750371,
            "value": 1
          },
          {
            "number": 10,
            "time": 87.68567775000372,
            "value": 0
          },
          {
            "number": 10,
            "time": 87.70710631250373,
            "value": 1
          },
          {
            "number": 10,
            "time": 87.72853487500373,
            "value": 0
          },
          {
            "number": 10,
            "time": 87.74996343750374,
            "value": 1
          },
          {
            "number": 10,
            "time": 87.77139200000374,
            "value": 0
          },
          {
            "number": 10,
            "time": 87.79282056250375,
            "value": 1
          },
          {
            "number": 10,
            "time": 87.81424912500376,
            "value": 0
          },
          {
            "number": 10,
            "time": 87.83567768750376,
            "value": 1
          },
          {
            "number": 10,
            "time": 87.85710625000377,
            "value": 0
          },
          {
            "number": 10,
            "time": 87.87853481250377,
            "value": 1
          },
          {
            "number": 10,
            "time": 87.89996337500378,
            "value": 0
          },
          {
            "number": 10,
            "time": 87.92139193750378,
            "value": 1
          },
          {
            "number": 10,
            "time": 87.94282050000379,
            "value": 0
          },
          {
            "number": 10,
            "time": 87.9642490625038,
            "value": 1
          },
          {
            "number": 10,
            "time": 87.9856776250038,
            "value": 0
          },
          {
            "number": 10,
            "time": 88.00710618750381,
            "value": 1
          },
          {
            "number": 10,
            "time": 88.02853475000381,
            "value": 0
          },
          {
            "number": 10,
            "time": 88.04996331250382,
            "value": 1
          },
          {
            "number": 10,
            "time": 88.07139187500383,
            "value": 0
          },
          {
            "number": 10,
            "time": 88.09282043750383,
            "value": 1
          },
          {
            "number": 10,
            "time": 88.11424900000384,
            "value": 0
          },
          {
            "number": 10,
            "time": 88.13567756250384,
            "value": 1
          },
          {
            "number": 10,
            "time": 88.15710612500385,
            "value": 0
          },
          {
            "number": 10,
            "time": 88.17853468750386,
            "value": 1
          },
          {
            "number": 10,
            "time": 88.19996325000386,
            "value": 0
          },
          {
            "number": 10,
            "time": 88.22139181250387,
            "value": 1
          },
          {
            "number": 10,
            "time": 88.24282037500387,
            "value": 0
          },
          {
            "number": 10,
            "time": 88.26424893750388,
            "value": 1
          },
          {
            "number": 10,
            "time": 88.28567750000389,
            "value": 0
          },
          {
            "number": 10,
            "time": 88.30710606250389,
            "value": 1
          },
          {
            "number": 10,
            "time": 88.3285346250039,
            "value": 0
          },
          {
            "number": 10,
            "time": 88.3499631875039,
            "value": 1
          },
          {
            "number": 10,
            "time": 88.37139175000391,
            "value": 0
          },
          {
            "number": 10,
            "time": 88.39282031250391,
            "value": 1
          },
          {
            "number": 10,
            "time": 88.41424887500392,
            "value": 0
          },
          {
            "number": 10,
            "time": 88.43567743750393,
            "value": 1
          },
          {
            "number": 10,
            "time": 88.45710600000393,
            "value": 0
          },
          {
            "number": 10,
            "time": 88.47853456250394,
            "value": 1
          },
          {
            "number": 10,
            "time": 88.49996312500394,
            "value": 0
          },
          {
            "number": 10,
            "time": 88.52139168750395,
            "value": 1
          },
          {
            "number": 10,
            "time": 88.54282025000396,
            "value": 0
          },
          {
            "number": 10,
            "time": 88.56424881250396,
            "value": 1
          },
          {
            "number": 10,
            "time": 88.58567737500397,
            "value": 0
          },
          {
            "number": 10,
            "time": 88.60710593750397,
            "value": 1
          },
          {
            "number": 10,
            "time": 88.62853450000398,
            "value": 0
          },
          {
            "number": 10,
            "time": 88.64996306250399,
            "value": 1
          },
          {
            "number": 10,
            "time": 88.67139162500399,
            "value": 0
          },
          {
            "number": 10,
            "time": 88.692820187504,
            "value": 1
          },
          {
            "number": 10,
            "time": 88.714248750004,
            "value": 0
          },
          {
            "number": 10,
            "time": 88.73567731250401,
            "value": 1
          },
          {
            "number": 10,
            "time": 88.75710587500402,
            "value": 0
          },
          {
            "number": 10,
            "time": 88.77853443750402,
            "value": 1
          },
          {
            "number": 10,
            "time": 88.79996300000403,
            "value": 0
          },
          {
            "number": 10,
            "time": 88.82139156250403,
            "value": 1
          },
          {
            "number": 10,
            "time": 88.84282012500404,
            "value": 0
          },
          {
            "number": 10,
            "time": 88.86424868750404,
            "value": 1
          },
          {
            "number": 10,
            "time": 88.88567725000405,
            "value": 0
          },
          {
            "number": 10,
            "time": 88.90710581250406,
            "value": 1
          },
          {
            "number": 10,
            "time": 88.92853437500406,
            "value": 0
          },
          {
            "number": 10,
            "time": 88.94996293750407,
            "value": 1
          },
          {
            "number": 10,
            "time": 88.97139150000407,
            "value": 0
          },
          {
            "number": 10,
            "time": 88.99282006250408,
            "value": 1
          },
          {
            "number": 10,
            "time": 89.01424862500409,
            "value": 0
          },
          {
            "number": 10,
            "time": 89.03567718750409,
            "value": 1
          },
          {
            "number": 10,
            "time": 89.0571057500041,
            "value": 0
          },
          {
            "number": 10,
            "time": 89.0785343125041,
            "value": 1
          },
          {
            "number": 10,
            "time": 89.09996287500411,
            "value": 0
          },
          {
            "number": 10,
            "time": 89.12139143750412,
            "value": 1
          },
          {
            "number": 10,
            "time": 89.14282000000412,
            "value": 0
          },
          {
            "number": 10,
            "time": 89.16424856250413,
            "value": 1
          },
          {
            "number": 10,
            "time": 89.18567712500413,
            "value": 0
          },
          {
            "number": 10,
            "time": 89.20710568750414,
            "value": 1
          },
          {
            "number": 10,
            "time": 89.22853425000415,
            "value": 0
          },
          {
            "number": 10,
            "time": 89.24996281250415,
            "value": 1
          },
          {
            "number": 10,
            "time": 89.27139137500416,
            "value": 0
          },
          {
            "number": 10,
            "time": 89.29281993750416,
            "value": 1
          },
          {
            "number": 10,
            "time": 89.31424850000417,
            "value": 0
          },
          {
            "number": 10,
            "time": 89.33567706250417,
            "value": 1
          },
          {
            "number": 10,
            "time": 89.35710562500418,
            "value": 0
          },
          {
            "number": 10,
            "time": 89.37853418750419,
            "value": 1
          },
          {
            "number": 10,
            "time": 89.39996275000419,
            "value": 0
          },
          {
            "number": 10,
            "time": 89.4213913125042,
            "value": 1
          },
          {
            "number": 10,
            "time": 89.4428198750042,
            "value": 0
          },
          {
            "number": 10,
            "time": 89.46424843750421,
            "value": 1
          },
          {
            "number": 10,
            "time": 89.48567700000422,
            "value": 0
          },
          {
            "number": 10,
            "time": 89.50710556250422,
            "value": 1
          },
          {
            "number": 10,
            "time": 89.52853412500423,
            "value": 0
          },
          {
            "number": 10,
            "time": 89.54996268750423,
            "value": 1
          },
          {
            "number": 10,
            "time": 89.57139125000424,
            "value": 0
          },
          {
            "number": 10,
            "time": 89.59281981250425,
            "value": 1
          },
          {
            "number": 10,
            "time": 89.61424837500425,
            "value": 0
          },
          {
            "number": 10,
            "time": 89.63567693750426,
            "value": 1
          },
          {
            "number": 10,
            "time": 89.65710550000426,
            "value": 0
          },
          {
            "number": 10,
            "time": 89.67853406250427,
            "value": 1
          },
          {
            "number": 10,
            "time": 89.69996262500428,
            "value": 0
          },
          {
            "number": 10,
            "time": 89.72139118750428,
            "value": 1
          },
          {
            "number": 10,
            "time": 89.74281975000429,
            "value": 0
          },
          {
            "number": 10,
            "time": 89.7642483125043,
            "value": 1
          },
          {
            "number": 10,
            "time": 89.7856768750043,
            "value": 0
          },
          {
            "number": 10,
            "time": 89.8071054375043,
            "value": 1
          },
          {
            "number": 10,
            "time": 89.82853400000431,
            "value": 0
          },
          {
            "number": 10,
            "time": 89.84996256250432,
            "value": 1
          },
          {
            "number": 10,
            "time": 89.87139112500432,
            "value": 0
          },
          {
            "number": 10,
            "time": 89.89281968750433,
            "value": 1
          },
          {
            "number": 10,
            "time": 89.91424825000433,
            "value": 0
          },
          {
            "number": 10,
            "time": 89.93567681250434,
            "value": 1
          },
          {
            "number": 10,
            "time": 89.95710537500435,
            "value": 0
          },
          {
            "number": 10,
            "time": 89.97853393750435,
            "value": 1
          },
          {
            "number": 10,
            "time": 89.99996250000436,
            "value": 0
          },
          {
            "number": 10,
            "time": 90.02139106250436,
            "value": 1
          },
          {
            "number": 10,
            "time": 90.04281962500437,
            "value": 0
          },
          {
            "number": 10,
            "time": 90.06424818750438,
            "value": 1
          },
          {
            "number": 10,
            "time": 90.08567675000438,
            "value": 0
          },
          {
            "number": 10,
            "time": 90.10710531250439,
            "value": 1
          },
          {
            "number": 10,
            "time": 90.1285338750044,
            "value": 0
          },
          {
            "number": 10,
            "time": 90.1499624375044,
            "value": 1
          }
        ],
        "11": [
          {
            "number": 11,
            "time": 12.171423500000065,
            "value": 0.7480314960629921
          },
          {
            "number": 11,
            "time": 12.182137781250065,
            "value": 0.6929133858267716
          },
          {
            "number": 11,
            "time": 12.19999491666673,
            "value": 0.7165354330708661
          },
          {
            "number": 11,
            "time": 12.217852052083396,
            "value": 0.7244094488188977
          },
          {
            "number": 11,
            "time": 12.235709187500063,
            "value": 0.7322834645669292
          },
          {
            "number": 11,
            "time": 12.25356632291673,
            "value": 0.7401574803149606
          },
          {
            "number": 11,
            "time": 12.262852033333397,
            "value": 0.7559055118110236
          },
          {
            "number": 11,
            "time": 12.280709168750063,
            "value": 0.7637795275590551
          },
          {
            "number": 11,
            "time": 12.289280593750062,
            "value": 0.7480314960629921
          },
          {
            "number": 11,
            "time": 12.298566304166728,
            "value": 0.7716535433070866
          },
          {
            "number": 11,
            "time": 12.316423439583394,
            "value": 0.7874015748031497
          },
          {
            "number": 11,
            "time": 12.32570915000006,
            "value": 0.7559055118110236
          },
          {
            "number": 11,
            "time": 12.33428057500006,
            "value": 0.8031496062992126
          },
          {
            "number": 11,
            "time": 12.352137710416725,
            "value": 0.8110236220472441
          },
          {
            "number": 11,
            "time": 12.369994845833391,
            "value": 0.8188976377952756
          },
          {
            "number": 11,
            "time": 12.379280556250057,
            "value": 0.7637795275590551
          },
          {
            "number": 11,
            "time": 12.387851981250057,
            "value": 0.84251968503937
          },
          {
            "number": 11,
            "time": 12.397137691666723,
            "value": 0.7716535433070866
          },
          {
            "number": 11,
            "time": 12.405709116666722,
            "value": 0.8503937007874016
          },
          {
            "number": 11,
            "time": 12.414994827083389,
            "value": 0.7795275590551181
          },
          {
            "number": 11,
            "time": 12.423566252083388,
            "value": 0.8582677165354331
          },
          {
            "number": 11,
            "time": 12.44213767291672,
            "value": 0.8740157480314961
          },
          {
            "number": 11,
            "time": 12.45070909791672,
            "value": 0.7874015748031497
          },
          {
            "number": 11,
            "time": 12.459994808333386,
            "value": 0.8818897637795275
          },
          {
            "number": 11,
            "time": 12.468566233333386,
            "value": 0.7952755905511811
          },
          {
            "number": 11,
            "time": 12.477851943750052,
            "value": 0.889763779527559
          },
          {
            "number": 11,
            "time": 12.486423368750051,
            "value": 0.8031496062992126
          },
          {
            "number": 11,
            "time": 12.495709079166717,
            "value": 0.8976377952755905
          },
          {
            "number": 11,
            "time": 12.504280504166717,
            "value": 0.8110236220472441
          },
          {
            "number": 11,
            "time": 12.513566214583383,
            "value": 0.905511811023622
          },
          {
            "number": 11,
            "time": 12.531423350000049,
            "value": 0.9133858267716536
          },
          {
            "number": 11,
            "time": 12.539994775000048,
            "value": 0.8188976377952756
          },
          {
            "number": 11,
            "time": 12.549280485416714,
            "value": 0.9212598425196851
          },
          {
            "number": 11,
            "time": 12.55856619583338,
            "value": 0.8267716535433071
          },
          {
            "number": 11,
            "time": 12.56713762083338,
            "value": 0.9291338582677166
          },
          {
            "number": 11,
            "time": 12.576423331250046,
            "value": 0.8346456692913385
          },
          {
            "number": 11,
            "time": 12.602851891666713,
            "value": 0.937007874015748
          },
          {
            "number": 11,
            "time": 12.61213760208338,
            "value": 0.84251968503937
          },
          {
            "number": 11,
            "time": 12.620709027083379,
            "value": 0.9448818897637795
          },
          {
            "number": 11,
            "time": 12.629994737500045,
            "value": 0.8503937007874016
          },
          {
            "number": 11,
            "time": 12.64785187291671,
            "value": 0.8582677165354331
          },
          {
            "number": 11,
            "time": 12.665709008333378,
            "value": 0.8661417322834646
          },
          {
            "number": 11,
            "time": 12.683566143750046,
            "value": 0.8740157480314961
          },
          {
            "number": 11,
            "time": 12.737137550000046,
            "value": 0.8818897637795275
          },
          {
            "number": 11,
            "time": 12.754994685416712,
            "value": 0.889763779527559
          },
          {
            "number": 11,
            "time": 12.808566091666712,
            "value": 0.8976377952755905
          },
          {
            "number": 11,
            "time": 12.827137512500045,
            "value": 0.905511811023622
          },
          {
            "number": 11,
            "time": 12.84499464791671,
            "value": 0.9133858267716536
          },
          {
            "number": 11,
            "time": 12.862851783333376,
            "value": 0.9212598425196851
          },
          {
            "number": 11,
            "time": 12.969994595833377,
            "value": 0.9133858267716536
          },
          {
            "number": 11,
            "time": 12.987851731250043,
            "value": 0.8976377952755905
          },
          {
            "number": 11,
            "time": 13.00570886666671,
            "value": 0.8740157480314961
          },
          {
            "number": 11,
            "time": 13.014994577083376,
            "value": 0.937007874015748
          },
          {
            "number": 11,
            "time": 13.023566002083376,
            "value": 0.8503937007874016
          },
          {
            "number": 11,
            "time": 13.032851712500042,
            "value": 0.9291338582677166
          },
          {
            "number": 11,
            "time": 13.041423137500042,
            "value": 0.8346456692913385
          },
          {
            "number": 11,
            "time": 13.050708847916708,
            "value": 0.905511811023622
          },
          {
            "number": 11,
            "time": 13.059280272916707,
            "value": 0.8110236220472441
          },
          {
            "number": 11,
            "time": 13.068565983333373,
            "value": 0.8976377952755905
          },
          {
            "number": 11,
            "time": 13.07785169375004,
            "value": 0.7952755905511811
          },
          {
            "number": 11,
            "time": 13.086423118750039,
            "value": 0.8818897637795275
          },
          {
            "number": 11,
            "time": 13.095708829166705,
            "value": 0.7874015748031497
          },
          {
            "number": 11,
            "time": 13.104280254166705,
            "value": 0.8661417322834646
          },
          {
            "number": 11,
            "time": 13.116423106250037,
            "value": 0.7637795275590551
          },
          {
            "number": 11,
            "time": 13.12213738958337,
            "value": 0.8582677165354331
          },
          {
            "number": 11,
            "time": 13.134280241666703,
            "value": 0.7480314960629921
          },
          {
            "number": 11,
            "time": 13.139994525000036,
            "value": 0.84251968503937
          },
          {
            "number": 11,
            "time": 13.152137377083369,
            "value": 0.7244094488188977
          },
          {
            "number": 11,
            "time": 13.157851660416702,
            "value": 0.8346456692913385
          },
          {
            "number": 11,
            "time": 13.169994512500034,
            "value": 0.7007874015748031
          },
          {
            "number": 11,
            "time": 13.175708795833367,
            "value": 0.8110236220472441
          },
          {
            "number": 11,
            "time": 13.1878516479167,
            "value": 0.6771653543307087
          },
          {
            "number": 11,
            "time": 13.193565931250033,
            "value": 0.8031496062992126
          },
          {
            "number": 11,
            "time": 13.205708783333366,
            "value": 0.6614173228346457
          },
          {
            "number": 11,
            "time": 13.212137352083365,
            "value": 0.7952755905511811
          },
          {
            "number": 11,
            "time": 13.223565918750031,
            "value": 0.6377952755905512
          },
          {
            "number": 11,
            "time": 13.241423054166699,
            "value": 0.6220472440944882
          },
          {
            "number": 11,
            "time": 13.259280189583366,
            "value": 0.5984251968503937
          },
          {
            "number": 11,
            "time": 13.265708758333366,
            "value": 0.7874015748031497
          },
          {
            "number": 11,
            "time": 13.277137325000032,
            "value": 0.5826771653543307
          },
          {
            "number": 11,
            "time": 13.295708745833364,
            "value": 0.5669291338582677
          },
          {
            "number": 11,
            "time": 13.31356588125003,
            "value": 0.5511811023622047
          },
          {
            "number": 11,
            "time": 13.331423016666696,
            "value": 0.5433070866141733
          },
          {
            "number": 11,
            "time": 13.349280152083363,
            "value": 0.5354330708661418
          },
          {
            "number": 11,
            "time": 13.456422964583362,
            "value": 0.5433070866141733
          },
          {
            "number": 11,
            "time": 13.465708675000029,
            "value": 0.7952755905511811
          },
          {
            "number": 11,
            "time": 13.474280100000028,
            "value": 0.5511811023622047
          },
          {
            "number": 11,
            "time": 13.483565810416694,
            "value": 0.8031496062992126
          },
          {
            "number": 11,
            "time": 13.492137235416694,
            "value": 0.5590551181102362
          },
          {
            "number": 11,
            "time": 13.50142294583336,
            "value": 0.8188976377952756
          },
          {
            "number": 11,
            "time": 13.50999437083336,
            "value": 0.5826771653543307
          },
          {
            "number": 11,
            "time": 13.519280081250026,
            "value": 0.8267716535433071
          },
          {
            "number": 11,
            "time": 13.527851506250025,
            "value": 0.5905511811023622
          },
          {
            "number": 11,
            "time": 13.537137216666691,
            "value": 0.8346456692913385
          },
          {
            "number": 11,
            "time": 13.546422927083357,
            "value": 0.5984251968503937
          },
          {
            "number": 11,
            "time": 13.554994352083357,
            "value": 0.84251968503937
          },
          {
            "number": 11,
            "time": 13.564280062500023,
            "value": 0.6141732283464567
          },
          {
            "number": 11,
            "time": 13.572851487500023,
            "value": 0.8503937007874016
          },
          {
            "number": 11,
            "time": 13.582137197916689,
            "value": 0.6220472440944882
          },
          {
            "number": 11,
            "time": 13.599994333333354,
            "value": 0.6299212598425197
          },
          {
            "number": 11,
            "time": 13.608565758333354,
            "value": 0.8582677165354331
          },
          {
            "number": 11,
            "time": 13.61785146875002,
            "value": 0.6377952755905512
          },
          {
            "number": 11,
            "time": 13.62642289375002,
            "value": 0.8661417322834646
          },
          {
            "number": 11,
            "time": 13.635708604166686,
            "value": 0.6456692913385826
          },
          {
            "number": 11,
            "time": 13.644280029166685,
            "value": 0.8740157480314961
          },
          {
            "number": 11,
            "time": 13.653565739583351,
            "value": 0.6535433070866141
          },
          {
            "number": 11,
            "time": 13.662137164583351,
            "value": 0.8818897637795275
          },
          {
            "number": 11,
            "time": 13.671422875000017,
            "value": 0.6614173228346457
          },
          {
            "number": 11,
            "time": 13.680708585416683,
            "value": 0.889763779527559
          },
          {
            "number": 11,
            "time": 13.698565720833349,
            "value": 0.905511811023622
          },
          {
            "number": 11,
            "time": 13.716422856250015,
            "value": 0.9212598425196851
          },
          {
            "number": 11,
            "time": 13.734279991666682,
            "value": 0.9291338582677166
          },
          {
            "number": 11,
            "time": 13.742851416666682,
            "value": 0.6692913385826772
          },
          {
            "number": 11,
            "time": 13.752137127083348,
            "value": 0.937007874015748
          },
          {
            "number": 11,
            "time": 13.760708552083347,
            "value": 0.6771653543307087
          },
          {
            "number": 11,
            "time": 13.769994262500013,
            "value": 0.9448818897637795
          },
          {
            "number": 11,
            "time": 13.787851397916679,
            "value": 0.952755905511811
          },
          {
            "number": 11,
            "time": 13.805708533333345,
            "value": 0.9606299212598425
          },
          {
            "number": 11,
            "time": 13.81499424375001,
            "value": 0.6850393700787402
          },
          {
            "number": 11,
            "time": 13.82356566875001,
            "value": 0.968503937007874
          },
          {
            "number": 11,
            "time": 13.832851379166677,
            "value": 0.6929133858267716
          },
          {
            "number": 11,
            "time": 13.841422804166676,
            "value": 0.9763779527559056
          },
          {
            "number": 11,
            "time": 13.86856565000001,
            "value": 0.7007874015748031
          },
          {
            "number": 11,
            "time": 13.886422785416677,
            "value": 0.7086614173228346
          },
          {
            "number": 11,
            "time": 13.939994191666678,
            "value": 0.7165354330708661
          },
          {
            "number": 11,
            "time": 13.949279902083344,
            "value": 0.984251968503937
          },
          {
            "number": 11,
            "time": 13.957851327083343,
            "value": 0.7244094488188977
          },
          {
            "number": 11,
            "time": 13.984994172916675,
            "value": 0.9763779527559056
          },
          {
            "number": 11,
            "time": 13.993565597916675,
            "value": 0.7322834645669292
          },
          {
            "number": 11,
            "time": 14.00285130833334,
            "value": 0.968503937007874
          },
          {
            "number": 11,
            "time": 14.01142273333334,
            "value": 0.7401574803149606
          },
          {
            "number": 11,
            "time": 14.020708443750006,
            "value": 0.9448818897637795
          },
          {
            "number": 11,
            "time": 14.038565579166672,
            "value": 0.9212598425196851
          },
          {
            "number": 11,
            "time": 14.047137004166672,
            "value": 0.7480314960629921
          },
          {
            "number": 11,
            "time": 14.056422714583338,
            "value": 0.8976377952755905
          },
          {
            "number": 11,
            "time": 14.065708425000004,
            "value": 0.7559055118110236
          },
          {
            "number": 11,
            "time": 14.074279850000003,
            "value": 0.8661417322834646
          },
          {
            "number": 11,
            "time": 14.09213698541667,
            "value": 0.8346456692913385
          },
          {
            "number": 11,
            "time": 14.109994120833335,
            "value": 0.8110236220472441
          },
          {
            "number": 11,
            "time": 14.12785125625,
            "value": 0.7874015748031497
          },
          {
            "number": 11,
            "time": 14.145708391666666,
            "value": 0.7795275590551181
          },
          {
            "number": 11,
            "time": 14.163565527083334,
            "value": 0.7716535433070866
          },
          {
            "number": 11,
            "time": 14.235708354166668,
            "value": 0.7874015748031497
          },
          {
            "number": 11,
            "time": 14.244279779166668,
            "value": 0.7637795275590551
          },
          {
            "number": 11,
            "time": 14.253565489583334,
            "value": 0.8110236220472441
          },
          {
            "number": 11,
            "time": 14.271422625000001,
            "value": 0.8267716535433071
          },
          {
            "number": 11,
            "time": 14.283565477083334,
            "value": 0.7716535433070866
          },
          {
            "number": 11,
            "time": 14.289279760416667,
            "value": 0.8503937007874016
          },
          {
            "number": 11,
            "time": 14.307136895833333,
            "value": 0.8740157480314961
          },
          {
            "number": 11,
            "time": 14.324994031249998,
            "value": 0.889763779527559
          },
          {
            "number": 11,
            "time": 14.342851166666664,
            "value": 0.9133858267716536
          },
          {
            "number": 11,
            "time": 14.36070830208333,
            "value": 0.9291338582677166
          },
          {
            "number": 11,
            "time": 14.378565437499997,
            "value": 0.9448818897637795
          },
          {
            "number": 11,
            "time": 14.39070828958333,
            "value": 0.7795275590551181
          },
          {
            "number": 11,
            "time": 14.396422572916663,
            "value": 0.952755905511811
          },
          {
            "number": 11,
            "time": 14.414279708333329,
            "value": 0.968503937007874
          },
          {
            "number": 11,
            "time": 14.432136843749994,
            "value": 0.984251968503937
          },
          {
            "number": 11,
            "time": 14.453565406249993,
            "value": 0.9921259842519685
          },
          {
            "number": 11,
            "time": 14.497851102083326,
            "value": 0.7716535433070866
          },
          {
            "number": 11,
            "time": 14.515708237499991,
            "value": 0.7480314960629921
          },
          {
            "number": 11,
            "time": 14.534279658333324,
            "value": 0.7244094488188977
          },
          {
            "number": 11,
            "time": 14.55213679374999,
            "value": 0.6929133858267716
          },
          {
            "number": 11,
            "time": 14.569993929166657,
            "value": 0.6771653543307087
          },
          {
            "number": 11,
            "time": 14.587851064583324,
            "value": 0.6614173228346457
          },
          {
            "number": 11,
            "time": 14.60570819999999,
            "value": 0.6456692913385826
          },
          {
            "number": 11,
            "time": 14.623565335416655,
            "value": 0.6377952755905512
          },
          {
            "number": 11,
            "time": 14.641422470833321,
            "value": 0.6220472440944882
          },
          {
            "number": 11,
            "time": 14.659279606249987,
            "value": 0.6141732283464567
          },
          {
            "number": 11,
            "time": 14.677136741666654,
            "value": 0.5984251968503937
          },
          {
            "number": 11,
            "time": 14.694993877083322,
            "value": 0.5826771653543307
          },
          {
            "number": 11,
            "time": 14.712851012499987,
            "value": 0.5669291338582677
          },
          {
            "number": 11,
            "time": 14.730708147916653,
            "value": 0.5511811023622047
          },
          {
            "number": 11,
            "time": 14.73999385833332,
            "value": 0.984251968503937
          },
          {
            "number": 11,
            "time": 14.748565283333319,
            "value": 0.5354330708661418
          },
          {
            "number": 11,
            "time": 14.757850993749985,
            "value": 0.968503937007874
          },
          {
            "number": 11,
            "time": 14.766422418749984,
            "value": 0.5196850393700787
          },
          {
            "number": 11,
            "time": 14.77570812916665,
            "value": 0.9448818897637795
          },
          {
            "number": 11,
            "time": 14.78427955416665,
            "value": 0.5118110236220472
          },
          {
            "number": 11,
            "time": 14.793565264583316,
            "value": 0.9291338582677166
          },
          {
            "number": 11,
            "time": 14.802850974999982,
            "value": 0.5039370078740157
          },
          {
            "number": 11,
            "time": 14.811422399999982,
            "value": 0.8976377952755905
          },
          {
            "number": 11,
            "time": 14.820708110416648,
            "value": 0.49606299212598426
          },
          {
            "number": 11,
            "time": 14.829279535416648,
            "value": 0.8740157480314961
          },
          {
            "number": 11,
            "time": 14.847136670833315,
            "value": 0.84251968503937
          },
          {
            "number": 11,
            "time": 14.86499380624998,
            "value": 0.8110236220472441
          },
          {
            "number": 11,
            "time": 14.882850941666646,
            "value": 0.7874015748031497
          },
          {
            "number": 11,
            "time": 14.900708077083312,
            "value": 0.7637795275590551
          },
          {
            "number": 11,
            "time": 14.972850904166645,
            "value": 0.7716535433070866
          },
          {
            "number": 11,
            "time": 14.981422329166644,
            "value": 0.5039370078740157
          },
          {
            "number": 11,
            "time": 14.99070803958331,
            "value": 0.7874015748031497
          },
          {
            "number": 11,
            "time": 14.99927946458331,
            "value": 0.5118110236220472
          },
          {
            "number": 11,
            "time": 15.008565174999976,
            "value": 0.8110236220472441
          },
          {
            "number": 11,
            "time": 15.017136599999976,
            "value": 0.5275590551181102
          },
          {
            "number": 11,
            "time": 15.026422310416642,
            "value": 0.8346456692913385
          },
          {
            "number": 11,
            "time": 15.034993735416641,
            "value": 0.5354330708661418
          },
          {
            "number": 11,
            "time": 15.044279445833308,
            "value": 0.8582677165354331
          },
          {
            "number": 11,
            "time": 15.053565156249974,
            "value": 0.5433070866141733
          },
          {
            "number": 11,
            "time": 15.062136581249973,
            "value": 0.8818897637795275
          },
          {
            "number": 11,
            "time": 15.07142229166664,
            "value": 0.5511811023622047
          },
          {
            "number": 11,
            "time": 15.079993716666639,
            "value": 0.905511811023622
          },
          {
            "number": 11,
            "time": 15.089279427083305,
            "value": 0.5590551181102362
          },
          {
            "number": 11,
            "time": 15.097850852083305,
            "value": 0.9291338582677166
          },
          {
            "number": 11,
            "time": 15.10713656249997,
            "value": 0.5669291338582677
          },
          {
            "number": 11,
            "time": 15.11570798749997,
            "value": 0.9448818897637795
          },
          {
            "number": 11,
            "time": 15.124993697916636,
            "value": 0.5748031496062992
          },
          {
            "number": 11,
            "time": 15.133565122916636,
            "value": 0.968503937007874
          },
          {
            "number": 11,
            "time": 15.142850833333302,
            "value": 0.5826771653543307
          },
          {
            "number": 11,
            "time": 15.151422258333302,
            "value": 0.984251968503937
          },
          {
            "number": 11,
            "time": 15.160707968749968,
            "value": 0.5905511811023622
          },
          {
            "number": 11,
            "time": 15.169279393749967,
            "value": 0.9921259842519685
          },
          {
            "number": 11,
            "time": 15.214279374999968,
            "value": 0.5984251968503937
          },
          {
            "number": 11,
            "time": 15.223565085416634,
            "value": 1
          },
          {
            "number": 11,
            "time": 15.232136510416634,
            "value": 0.6062992125984252
          },
          {
            "number": 11,
            "time": 15.267850781249967,
            "value": 0.6141732283464567
          },
          {
            "number": 11,
            "time": 15.304279337499967,
            "value": 0.6220472440944882
          },
          {
            "number": 11,
            "time": 15.339993608333302,
            "value": 0.6299212598425197
          },
          {
            "number": 11,
            "time": 15.357850743749967,
            "value": 0.6377952755905512
          },
          {
            "number": 11,
            "time": 15.3935650145833,
            "value": 0.6456692913385826
          },
          {
            "number": 11,
            "time": 15.4321364270833,
            "value": 0.6535433070866141
          },
          {
            "number": 11,
            "time": 15.449993562499968,
            "value": 0.6614173228346457
          },
          {
            "number": 11,
            "time": 15.4857078333333,
            "value": 0.6692913385826772
          },
          {
            "number": 11,
            "time": 15.4921364020833,
            "value": 0.9763779527559056
          },
          {
            "number": 11,
            "time": 15.503564968749966,
            "value": 0.6771653543307087
          },
          {
            "number": 11,
            "time": 15.509993537499966,
            "value": 0.952755905511811
          },
          {
            "number": 11,
            "time": 15.522136389583299,
            "value": 0.6850393700787402
          },
          {
            "number": 11,
            "time": 15.527850672916632,
            "value": 0.9212598425196851
          },
          {
            "number": 11,
            "time": 15.539993524999964,
            "value": 0.6929133858267716
          },
          {
            "number": 11,
            "time": 15.545707808333297,
            "value": 0.889763779527559
          },
          {
            "number": 11,
            "time": 15.563564943749963,
            "value": 0.8661417322834646
          },
          {
            "number": 11,
            "time": 15.575707795833296,
            "value": 0.7007874015748031
          },
          {
            "number": 11,
            "time": 15.581422079166629,
            "value": 0.8582677165354331
          },
          {
            "number": 11,
            "time": 15.593564931249961,
            "value": 0.7086614173228346
          },
          {
            "number": 11,
            "time": 15.599279214583294,
            "value": 0.8503937007874016
          },
          {
            "number": 11,
            "time": 15.619993491666628,
            "value": 0.84251968503937
          },
          {
            "number": 11,
            "time": 15.629279202083294,
            "value": 0.7165354330708661
          },
          {
            "number": 11,
            "time": 15.64713633749996,
            "value": 0.7244094488188977
          },
          {
            "number": 11,
            "time": 15.692136318749961,
            "value": 0.8503937007874016
          },
          {
            "number": 11,
            "time": 15.70070774374996,
            "value": 0.7322834645669292
          },
          {
            "number": 11,
            "time": 15.709993454166627,
            "value": 0.8661417322834646
          },
          {
            "number": 11,
            "time": 15.727850589583294,
            "value": 0.889763779527559
          },
          {
            "number": 11,
            "time": 15.736422014583294,
            "value": 0.7401574803149606
          },
          {
            "number": 11,
            "time": 15.74570772499996,
            "value": 0.9133858267716536
          },
          {
            "number": 11,
            "time": 15.75427914999996,
            "value": 0.7480314960629921
          },
          {
            "number": 11,
            "time": 15.763564860416626,
            "value": 0.9291338582677166
          },
          {
            "number": 11,
            "time": 15.781421995833291,
            "value": 0.952755905511811
          },
          {
            "number": 11,
            "time": 15.799279131249957,
            "value": 0.984251968503937
          },
          {
            "number": 11,
            "time": 15.808564841666623,
            "value": 0.7559055118110236
          },
          {
            "number": 11,
            "time": 15.817136266666623,
            "value": 0.9921259842519685
          },
          {
            "number": 11,
            "time": 15.826421977083289,
            "value": 0.7637795275590551
          },
          {
            "number": 11,
            "time": 15.834993402083288,
            "value": 1
          },
          {
            "number": 11,
            "time": 15.844279112499954,
            "value": 0.7716535433070866
          },
          {
            "number": 11,
            "time": 16.041421887499954,
            "value": 0.7401574803149606
          },
          {
            "number": 11,
            "time": 16.05927902291662,
            "value": 0.7086614173228346
          },
          {
            "number": 11,
            "time": 16.077136158333285,
            "value": 0.6771653543307087
          },
          {
            "number": 11,
            "time": 16.085707583333285,
            "value": 0.9921259842519685
          },
          {
            "number": 11,
            "time": 16.09499329374995,
            "value": 0.6456692913385826
          },
          {
            "number": 11,
            "time": 16.10356471874995,
            "value": 0.968503937007874
          },
          {
            "number": 11,
            "time": 16.112850429166617,
            "value": 0.6220472440944882
          },
          {
            "number": 11,
            "time": 16.121421854166616,
            "value": 0.9448818897637795
          },
          {
            "number": 11,
            "time": 16.130707564583282,
            "value": 0.5984251968503937
          },
          {
            "number": 11,
            "time": 16.139278989583282,
            "value": 0.937007874015748
          },
          {
            "number": 11,
            "time": 16.148564699999948,
            "value": 0.5905511811023622
          },
          {
            "number": 11,
            "time": 16.157850410416614,
            "value": 0.9291338582677166
          },
          {
            "number": 11,
            "time": 16.166421835416614,
            "value": 0.5826771653543307
          },
          {
            "number": 11,
            "time": 16.18427897083328,
            "value": 0.5748031496062992
          },
          {
            "number": 11,
            "time": 16.193564681249946,
            "value": 0.937007874015748
          },
          {
            "number": 11,
            "time": 16.202136106249945,
            "value": 0.5669291338582677
          },
          {
            "number": 11,
            "time": 16.21142181666661,
            "value": 0.952755905511811
          },
          {
            "number": 11,
            "time": 16.21999324166661,
            "value": 0.5511811023622047
          },
          {
            "number": 11,
            "time": 16.229278952083277,
            "value": 0.968503937007874
          },
          {
            "number": 11,
            "time": 16.247136087499943,
            "value": 0.9921259842519685
          },
          {
            "number": 11,
            "time": 16.26499322291661,
            "value": 1
          },
          {
            "number": 11,
            "time": 16.434993152083265,
            "value": 0.5590551181102362
          },
          {
            "number": 11,
            "time": 16.470707422916597,
            "value": 0.5669291338582677
          },
          {
            "number": 11,
            "time": 16.488564558333263,
            "value": 0.5748031496062992
          },
          {
            "number": 11,
            "time": 16.54213596458326,
            "value": 0.5826771653543307
          },
          {
            "number": 11,
            "time": 16.560707385416592,
            "value": 0.5905511811023622
          },
          {
            "number": 11,
            "time": 16.56927881041659,
            "value": 0.984251968503937
          },
          {
            "number": 11,
            "time": 16.587135945833257,
            "value": 0.9448818897637795
          },
          {
            "number": 11,
            "time": 16.604993081249923,
            "value": 0.9133858267716536
          },
          {
            "number": 11,
            "time": 16.617135933333255,
            "value": 0.5984251968503937
          },
          {
            "number": 11,
            "time": 16.62285021666659,
            "value": 0.8818897637795275
          },
          {
            "number": 11,
            "time": 16.640707352083254,
            "value": 0.8503937007874016
          },
          {
            "number": 11,
            "time": 16.65856448749992,
            "value": 0.8346456692913385
          },
          {
            "number": 11,
            "time": 16.670707339583252,
            "value": 0.6062992125984252
          },
          {
            "number": 11,
            "time": 16.677135908333252,
            "value": 0.8267716535433071
          },
          {
            "number": 11,
            "time": 16.769278727083247,
            "value": 0.8346456692913385
          },
          {
            "number": 11,
            "time": 16.787135862499913,
            "value": 0.8582677165354331
          },
          {
            "number": 11,
            "time": 16.79642157291658,
            "value": 0.6141732283464567
          },
          {
            "number": 11,
            "time": 16.804992997916578,
            "value": 0.8818897637795275
          },
          {
            "number": 11,
            "time": 16.822850133333244,
            "value": 0.9133858267716536
          },
          {
            "number": 11,
            "time": 16.83213584374991,
            "value": 0.6220472440944882
          },
          {
            "number": 11,
            "time": 16.84070726874991,
            "value": 0.937007874015748
          },
          {
            "number": 11,
            "time": 16.858564404166575,
            "value": 0.9606299212598425
          },
          {
            "number": 11,
            "time": 16.87642153958324,
            "value": 0.9763779527559056
          },
          {
            "number": 11,
            "time": 16.885707249999907,
            "value": 0.6299212598425197
          },
          {
            "number": 11,
            "time": 16.894992960416573,
            "value": 0.984251968503937
          },
          {
            "number": 11,
            "time": 16.91285009583324,
            "value": 0.9921259842519685
          },
          {
            "number": 11,
            "time": 16.930707231249905,
            "value": 1
          },
          {
            "number": 11,
            "time": 16.95713579166657,
            "value": 0.6377952755905512
          },
          {
            "number": 11,
            "time": 17.252849954166553,
            "value": 0.9921259842519685
          },
          {
            "number": 11,
            "time": 17.27070708958322,
            "value": 0.9763779527559056
          },
          {
            "number": 11,
            "time": 17.279992799999885,
            "value": 0.6299212598425197
          },
          {
            "number": 11,
            "time": 17.288564224999885,
            "value": 0.9606299212598425
          },
          {
            "number": 11,
            "time": 17.30642136041655,
            "value": 0.9448818897637795
          },
          {
            "number": 11,
            "time": 17.315707070833216,
            "value": 0.6220472440944882
          },
          {
            "number": 11,
            "time": 17.324278495833216,
            "value": 0.937007874015748
          },
          {
            "number": 11,
            "time": 17.333564206249882,
            "value": 0.6141732283464567
          },
          {
            "number": 11,
            "time": 17.34213563124988,
            "value": 0.9212598425196851
          },
          {
            "number": 11,
            "time": 17.351421341666548,
            "value": 0.6062992125984252
          },
          {
            "number": 11,
            "time": 17.359992766666547,
            "value": 0.905511811023622
          },
          {
            "number": 11,
            "time": 17.369278477083213,
            "value": 0.5984251968503937
          },
          {
            "number": 11,
            "time": 17.377849902083213,
            "value": 0.889763779527559
          },
          {
            "number": 11,
            "time": 17.38713561249988,
            "value": 0.5905511811023622
          },
          {
            "number": 11,
            "time": 17.39570703749988,
            "value": 0.8818897637795275
          },
          {
            "number": 11,
            "time": 17.404992747916545,
            "value": 0.5826771653543307
          },
          {
            "number": 11,
            "time": 17.41427845833321,
            "value": 0.8740157480314961
          },
          {
            "number": 11,
            "time": 17.42284988333321,
            "value": 0.5748031496062992
          },
          {
            "number": 11,
            "time": 17.432135593749877,
            "value": 0.8661417322834646
          },
          {
            "number": 11,
            "time": 17.440707018749876,
            "value": 0.5590551181102362
          },
          {
            "number": 11,
            "time": 17.45856415416654,
            "value": 0.5511811023622047
          },
          {
            "number": 11,
            "time": 17.476421289583207,
            "value": 0.5433070866141733
          },
          {
            "number": 11,
            "time": 17.51213556041654,
            "value": 0.5354330708661418
          },
          {
            "number": 11,
            "time": 17.6199926583332,
            "value": 0.5433070866141733
          },
          {
            "number": 11,
            "time": 17.637849793749865,
            "value": 0.5590551181102362
          },
          {
            "number": 11,
            "time": 17.65570692916653,
            "value": 0.5669291338582677
          },
          {
            "number": 11,
            "time": 17.673564064583196,
            "value": 0.5748031496062992
          },
          {
            "number": 11,
            "time": 17.691421199999862,
            "value": 0.5984251968503937
          },
          {
            "number": 11,
            "time": 17.709278335416528,
            "value": 0.6062992125984252
          },
          {
            "number": 11,
            "time": 17.727135470833193,
            "value": 0.6141732283464567
          },
          {
            "number": 11,
            "time": 17.73642118124986,
            "value": 0.8818897637795275
          },
          {
            "number": 11,
            "time": 17.74499260624986,
            "value": 0.6220472440944882
          },
          {
            "number": 11,
            "time": 17.754278316666525,
            "value": 0.8976377952755905
          },
          {
            "number": 11,
            "time": 17.766421168749858,
            "value": 0.6299212598425197
          },
          {
            "number": 11,
            "time": 17.77213545208319,
            "value": 0.9212598425196851
          },
          {
            "number": 11,
            "time": 17.784278304166524,
            "value": 0.6377952755905512
          },
          {
            "number": 11,
            "time": 17.789992587499857,
            "value": 0.9448818897637795
          },
          {
            "number": 11,
            "time": 17.80213543958319,
            "value": 0.6456692913385826
          },
          {
            "number": 11,
            "time": 17.807849722916522,
            "value": 0.952755905511811
          },
          {
            "number": 11,
            "time": 17.819992574999855,
            "value": 0.6535433070866141
          },
          {
            "number": 11,
            "time": 17.825706858333188,
            "value": 0.9606299212598425
          },
          {
            "number": 11,
            "time": 17.83784971041652,
            "value": 0.6692913385826772
          },
          {
            "number": 11,
            "time": 17.843563993749854,
            "value": 0.968503937007874
          },
          {
            "number": 11,
            "time": 17.855706845833186,
            "value": 0.6771653543307087
          },
          {
            "number": 11,
            "time": 17.86142112916652,
            "value": 0.9921259842519685
          },
          {
            "number": 11,
            "time": 17.873563981249852,
            "value": 0.6850393700787402
          },
          {
            "number": 11,
            "time": 17.891421116666518,
            "value": 0.6929133858267716
          },
          {
            "number": 11,
            "time": 17.909278252083183,
            "value": 0.7007874015748031
          },
          {
            "number": 11,
            "time": 17.92713538749985,
            "value": 0.7165354330708661
          },
          {
            "number": 11,
            "time": 17.944992522916515,
            "value": 0.7244094488188977
          },
          {
            "number": 11,
            "time": 17.96284965833318,
            "value": 0.7322834645669292
          },
          {
            "number": 11,
            "time": 17.980706793749846,
            "value": 0.7401574803149606
          },
          {
            "number": 11,
            "time": 17.989992504166512,
            "value": 1
          },
          {
            "number": 11,
            "time": 17.99856392916651,
            "value": 0.7480314960629921
          },
          {
            "number": 11,
            "time": 18.017135349999844,
            "value": 0.7559055118110236
          },
          {
            "number": 11,
            "time": 18.03499248541651,
            "value": 0.7637795275590551
          },
          {
            "number": 11,
            "time": 18.07070675624984,
            "value": 0.7716535433070866
          },
          {
            "number": 11,
            "time": 18.088563891666507,
            "value": 0.7795275590551181
          },
          {
            "number": 11,
            "time": 18.124278162499838,
            "value": 0.7874015748031497
          },
          {
            "number": 11,
            "time": 18.142135297916504,
            "value": 0.7952755905511811
          },
          {
            "number": 11,
            "time": 18.15999243333317,
            "value": 0.8031496062992126
          },
          {
            "number": 11,
            "time": 18.1957067041665,
            "value": 0.8110236220472441
          },
          {
            "number": 11,
            "time": 18.213563839583166,
            "value": 0.8188976377952756
          },
          {
            "number": 11,
            "time": 18.231420974999832,
            "value": 0.8267716535433071
          },
          {
            "number": 11,
            "time": 18.249278110416498,
            "value": 0.8346456692913385
          },
          {
            "number": 11,
            "time": 18.26784953124983,
            "value": 0.84251968503937
          },
          {
            "number": 11,
            "time": 18.30356380208316,
            "value": 0.8503937007874016
          },
          {
            "number": 11,
            "time": 18.53642084791648,
            "value": 0.84251968503937
          },
          {
            "number": 11,
            "time": 18.554277983333147,
            "value": 0.8267716535433071
          },
          {
            "number": 11,
            "time": 18.572135118749813,
            "value": 0.8188976377952756
          },
          {
            "number": 11,
            "time": 18.58999225416648,
            "value": 0.8110236220472441
          },
          {
            "number": 11,
            "time": 18.607849389583144,
            "value": 0.7952755905511811
          },
          {
            "number": 11,
            "time": 18.62570652499981,
            "value": 0.7795275590551181
          },
          {
            "number": 11,
            "time": 18.643563660416476,
            "value": 0.7716535433070866
          },
          {
            "number": 11,
            "time": 18.66142079583314,
            "value": 0.7637795275590551
          },
          {
            "number": 11,
            "time": 18.679277931249807,
            "value": 0.7559055118110236
          },
          {
            "number": 11,
            "time": 18.697135066666473,
            "value": 0.7480314960629921
          },
          {
            "number": 11,
            "time": 18.71499220208314,
            "value": 0.7401574803149606
          },
          {
            "number": 11,
            "time": 18.732849337499804,
            "value": 0.7322834645669292
          },
          {
            "number": 11,
            "time": 18.768563608333135,
            "value": 0.7244094488188977
          },
          {
            "number": 11,
            "time": 18.787135029166468,
            "value": 0.7165354330708661
          },
          {
            "number": 11,
            "time": 18.795706454166467,
            "value": 0.9763779527559056
          },
          {
            "number": 11,
            "time": 18.804992164583133,
            "value": 0.6929133858267716
          },
          {
            "number": 11,
            "time": 18.813563589583133,
            "value": 0.9606299212598425
          },
          {
            "number": 11,
            "time": 18.8228492999998,
            "value": 0.6850393700787402
          },
          {
            "number": 11,
            "time": 18.8314207249998,
            "value": 0.937007874015748
          },
          {
            "number": 11,
            "time": 18.840706435416465,
            "value": 0.6692913385826772
          },
          {
            "number": 11,
            "time": 18.849277860416464,
            "value": 0.9133858267716536
          },
          {
            "number": 11,
            "time": 18.85856357083313,
            "value": 0.6614173228346457
          },
          {
            "number": 11,
            "time": 18.86713499583313,
            "value": 0.8976377952755905
          },
          {
            "number": 11,
            "time": 18.876420706249796,
            "value": 0.6377952755905512
          },
          {
            "number": 11,
            "time": 18.884992131249795,
            "value": 0.889763779527559
          },
          {
            "number": 11,
            "time": 18.89427784166646,
            "value": 0.6220472440944882
          },
          {
            "number": 11,
            "time": 18.903563552083128,
            "value": 0.8818897637795275
          },
          {
            "number": 11,
            "time": 18.914992118749794,
            "value": 0.6062992125984252
          },
          {
            "number": 11,
            "time": 18.93284925416646,
            "value": 0.5984251968503937
          },
          {
            "number": 11,
            "time": 18.992849229166456,
            "value": 0.8976377952755905
          },
          {
            "number": 11,
            "time": 19.010706364583122,
            "value": 0.9212598425196851
          },
          {
            "number": 11,
            "time": 19.022849216666454,
            "value": 0.6220472440944882
          },
          {
            "number": 11,
            "time": 19.028563499999787,
            "value": 0.9448818897637795
          },
          {
            "number": 11,
            "time": 19.04070635208312,
            "value": 0.6377952755905512
          },
          {
            "number": 11,
            "time": 19.046420635416453,
            "value": 0.968503937007874
          },
          {
            "number": 11,
            "time": 19.058563487499786,
            "value": 0.6614173228346457
          },
          {
            "number": 11,
            "time": 19.06427777083312,
            "value": 0.984251968503937
          },
          {
            "number": 11,
            "time": 19.07642062291645,
            "value": 0.6850393700787402
          },
          {
            "number": 11,
            "time": 19.08499204791645,
            "value": 0.9921259842519685
          },
          {
            "number": 11,
            "time": 19.094277758333117,
            "value": 0.6929133858267716
          },
          {
            "number": 11,
            "time": 19.112134893749783,
            "value": 0.7086614173228346
          },
          {
            "number": 11,
            "time": 19.12142060416645,
            "value": 1
          },
          {
            "number": 11,
            "time": 19.12999202916645,
            "value": 0.7165354330708661
          },
          {
            "number": 11,
            "time": 19.147849164583114,
            "value": 0.7322834645669292
          },
          {
            "number": 11,
            "time": 19.16570629999978,
            "value": 0.7480314960629921
          },
          {
            "number": 11,
            "time": 19.183563435416445,
            "value": 0.7559055118110236
          },
          {
            "number": 11,
            "time": 19.20142057083311,
            "value": 0.7637795275590551
          },
          {
            "number": 11,
            "time": 19.219277706249777,
            "value": 0.7874015748031497
          },
          {
            "number": 11,
            "time": 19.237134841666442,
            "value": 0.7952755905511811
          },
          {
            "number": 11,
            "time": 19.255706262499775,
            "value": 0.8031496062992126
          },
          {
            "number": 11,
            "time": 19.27356339791644,
            "value": 0.8110236220472441
          },
          {
            "number": 11,
            "time": 19.291420533333106,
            "value": 0.8188976377952756
          },
          {
            "number": 11,
            "time": 19.309277668749772,
            "value": 0.8267716535433071
          },
          {
            "number": 11,
            "time": 19.327134804166437,
            "value": 0.8346456692913385
          },
          {
            "number": 11,
            "time": 19.344991939583103,
            "value": 0.84251968503937
          },
          {
            "number": 11,
            "time": 19.380706210416434,
            "value": 0.8503937007874016
          },
          {
            "number": 11,
            "time": 19.3985633458331,
            "value": 0.8582677165354331
          },
          {
            "number": 11,
            "time": 19.43427761666643,
            "value": 0.8661417322834646
          },
          {
            "number": 11,
            "time": 19.452134752083097,
            "value": 0.8740157480314961
          },
          {
            "number": 11,
            "time": 19.469991887499763,
            "value": 0.8818897637795275
          },
          {
            "number": 11,
            "time": 19.48784902291643,
            "value": 0.889763779527559
          },
          {
            "number": 11,
            "time": 19.524277579166426,
            "value": 0.8976377952755905
          },
          {
            "number": 11,
            "time": 19.542134714583092,
            "value": 0.905511811023622
          },
          {
            "number": 11,
            "time": 19.577848985416423,
            "value": 0.9133858267716536
          },
          {
            "number": 11,
            "time": 19.59570612083309,
            "value": 0.9212598425196851
          },
          {
            "number": 11,
            "time": 19.613563256249755,
            "value": 0.9291338582677166
          },
          {
            "number": 11,
            "time": 19.649277527083086,
            "value": 0.937007874015748
          },
          {
            "number": 11,
            "time": 19.667134662499752,
            "value": 0.9448818897637795
          },
          {
            "number": 11,
            "time": 19.702848933333083,
            "value": 0.952755905511811
          },
          {
            "number": 11,
            "time": 19.72070606874975,
            "value": 0.9606299212598425
          },
          {
            "number": 11,
            "time": 19.971420249999735,
            "value": 0.952755905511811
          },
          {
            "number": 11,
            "time": 20.007134520833066,
            "value": 0.9448818897637795
          },
          {
            "number": 11,
            "time": 20.06999163749973,
            "value": 0.984251968503937
          },
          {
            "number": 11,
            "time": 20.087848772916395,
            "value": 0.9606299212598425
          },
          {
            "number": 11,
            "time": 20.10570590833306,
            "value": 0.9291338582677166
          },
          {
            "number": 11,
            "time": 20.123563043749726,
            "value": 0.889763779527559
          },
          {
            "number": 11,
            "time": 20.13570589583306,
            "value": 0.937007874015748
          },
          {
            "number": 11,
            "time": 20.141420179166392,
            "value": 0.8582677165354331
          },
          {
            "number": 11,
            "time": 20.153563031249725,
            "value": 0.9291338582677166
          },
          {
            "number": 11,
            "time": 20.159991599999724,
            "value": 0.8188976377952756
          },
          {
            "number": 11,
            "time": 20.17142016666639,
            "value": 0.9212598425196851
          },
          {
            "number": 11,
            "time": 20.17784873541639,
            "value": 0.7795275590551181
          },
          {
            "number": 11,
            "time": 20.189277302083056,
            "value": 0.905511811023622
          },
          {
            "number": 11,
            "time": 20.195705870833056,
            "value": 0.7480314960629921
          },
          {
            "number": 11,
            "time": 20.20713443749972,
            "value": 0.889763779527559
          },
          {
            "number": 11,
            "time": 20.21356300624972,
            "value": 0.7165354330708661
          },
          {
            "number": 11,
            "time": 20.224991572916387,
            "value": 0.8818897637795275
          },
          {
            "number": 11,
            "time": 20.231420141666387,
            "value": 0.6850393700787402
          },
          {
            "number": 11,
            "time": 20.24356299374972,
            "value": 0.8661417322834646
          },
          {
            "number": 11,
            "time": 20.25213441874972,
            "value": 0.6535433070866141
          },
          {
            "number": 11,
            "time": 20.261420129166385,
            "value": 0.8582677165354331
          },
          {
            "number": 11,
            "time": 20.269991554166385,
            "value": 0.6456692913385826
          },
          {
            "number": 11,
            "time": 20.27927726458305,
            "value": 0.8346456692913385
          },
          {
            "number": 11,
            "time": 20.28784868958305,
            "value": 0.6377952755905512
          },
          {
            "number": 11,
            "time": 20.297134399999717,
            "value": 0.8188976377952756
          },
          {
            "number": 11,
            "time": 20.314991535416382,
            "value": 0.8031496062992126
          },
          {
            "number": 11,
            "time": 20.332848670833048,
            "value": 0.7795275590551181
          },
          {
            "number": 11,
            "time": 20.341420095833048,
            "value": 0.6456692913385826
          },
          {
            "number": 11,
            "time": 20.350705806249714,
            "value": 0.7637795275590551
          },
          {
            "number": 11,
            "time": 20.35999151666638,
            "value": 0.6614173228346457
          },
          {
            "number": 11,
            "time": 20.36856294166638,
            "value": 0.7480314960629921
          },
          {
            "number": 11,
            "time": 20.377848652083046,
            "value": 0.6850393700787402
          },
          {
            "number": 11,
            "time": 20.386420077083045,
            "value": 0.7401574803149606
          },
          {
            "number": 11,
            "time": 20.39570578749971,
            "value": 0.7007874015748031
          },
          {
            "number": 11,
            "time": 20.41284863749971,
            "value": 0.7165354330708661
          },
          {
            "number": 11,
            "time": 20.431420058333043,
            "value": 0.7401574803149606
          },
          {
            "number": 11,
            "time": 20.449277193749708,
            "value": 0.7637795275590551
          },
          {
            "number": 11,
            "time": 20.467134329166374,
            "value": 0.7874015748031497
          },
          {
            "number": 11,
            "time": 20.48499146458304,
            "value": 0.8031496062992126
          },
          {
            "number": 11,
            "time": 20.494277174999706,
            "value": 0.7480314960629921
          },
          {
            "number": 11,
            "time": 20.502848599999705,
            "value": 0.8267716535433071
          },
          {
            "number": 11,
            "time": 20.51213431041637,
            "value": 0.7559055118110236
          },
          {
            "number": 11,
            "time": 20.52070573541637,
            "value": 0.84251968503937
          },
          {
            "number": 11,
            "time": 20.529991445833037,
            "value": 0.7795275590551181
          },
          {
            "number": 11,
            "time": 20.538562870833037,
            "value": 0.8661417322834646
          },
          {
            "number": 11,
            "time": 20.547848581249703,
            "value": 0.7952755905511811
          },
          {
            "number": 11,
            "time": 20.556420006249702,
            "value": 0.8740157480314961
          },
          {
            "number": 11,
            "time": 20.56570571666637,
            "value": 0.8031496062992126
          },
          {
            "number": 11,
            "time": 20.574277141666368,
            "value": 0.8818897637795275
          },
          {
            "number": 11,
            "time": 20.583562852083034,
            "value": 0.8110236220472441
          },
          {
            "number": 11,
            "time": 20.592134277083034,
            "value": 0.889763779527559
          },
          {
            "number": 11,
            "time": 20.6014199874997,
            "value": 0.8188976377952756
          },
          {
            "number": 11,
            "time": 20.6099914124997,
            "value": 0.8976377952755905
          },
          {
            "number": 11,
            "time": 20.619277122916365,
            "value": 0.84251968503937
          },
          {
            "number": 11,
            "time": 20.62856283333303,
            "value": 0.9133858267716536
          },
          {
            "number": 11,
            "time": 20.63713425833303,
            "value": 0.8503937007874016
          },
          {
            "number": 11,
            "time": 20.646419968749697,
            "value": 0.9212598425196851
          },
          {
            "number": 11,
            "time": 20.654991393749697,
            "value": 0.8582677165354331
          },
          {
            "number": 11,
            "time": 20.664277104166363,
            "value": 0.9291338582677166
          },
          {
            "number": 11,
            "time": 20.672848529166362,
            "value": 0.8661417322834646
          },
          {
            "number": 11,
            "time": 20.690705664583028,
            "value": 0.8740157480314961
          },
          {
            "number": 11,
            "time": 20.699991374999694,
            "value": 0.937007874015748
          },
          {
            "number": 11,
            "time": 20.708562799999694,
            "value": 0.8818897637795275
          },
          {
            "number": 11,
            "time": 20.71784851041636,
            "value": 0.9448818897637795
          },
          {
            "number": 11,
            "time": 20.72641993541636,
            "value": 0.889763779527559
          },
          {
            "number": 11,
            "time": 20.735705645833026,
            "value": 0.952755905511811
          },
          {
            "number": 11,
            "time": 20.75356278124969,
            "value": 0.9606299212598425
          },
          {
            "number": 11,
            "time": 20.762848491666357,
            "value": 0.8976377952755905
          },
          {
            "number": 11,
            "time": 20.771419916666357,
            "value": 0.968503937007874
          },
          {
            "number": 11,
            "time": 20.780705627083023,
            "value": 0.905511811023622
          },
          {
            "number": 11,
            "time": 20.789277052083023,
            "value": 0.9763779527559056
          },
          {
            "number": 11,
            "time": 20.80713418749969,
            "value": 0.984251968503937
          },
          {
            "number": 11,
            "time": 20.824991322916354,
            "value": 0.9921259842519685
          },
          {
            "number": 11,
            "time": 20.83427703333302,
            "value": 0.9133858267716536
          },
          {
            "number": 11,
            "time": 20.852134168749686,
            "value": 0.9212598425196851
          },
          {
            "number": 11,
            "time": 20.86999130416635,
            "value": 0.9291338582677166
          },
          {
            "number": 11,
            "time": 20.887848439583017,
            "value": 0.937007874015748
          },
          {
            "number": 11,
            "time": 20.905705574999683,
            "value": 0.9448818897637795
          },
          {
            "number": 11,
            "time": 20.92356271041635,
            "value": 0.952755905511811
          },
          {
            "number": 11,
            "time": 20.941419845833014,
            "value": 0.9606299212598425
          },
          {
            "number": 11,
            "time": 20.977134116666345,
            "value": 0.968503937007874
          },
          {
            "number": 11,
            "time": 20.99499125208301,
            "value": 0.9763779527559056
          },
          {
            "number": 11,
            "time": 21.084991214583006,
            "value": 0.984251968503937
          },
          {
            "number": 11,
            "time": 21.183562602083,
            "value": 0.984251968503937
          },
          {
            "number": 11,
            "time": 21.201419737499666,
            "value": 0.9763779527559056
          },
          {
            "number": 11,
            "time": 21.219276872916332,
            "value": 0.968503937007874
          },
          {
            "number": 11,
            "time": 21.237134008332998,
            "value": 0.952755905511811
          },
          {
            "number": 11,
            "time": 21.254991143749663,
            "value": 0.9448818897637795
          },
          {
            "number": 11,
            "time": 21.27284827916633,
            "value": 0.937007874015748
          },
          {
            "number": 11,
            "time": 21.290705414582995,
            "value": 0.9133858267716536
          },
          {
            "number": 11,
            "time": 21.30856254999966,
            "value": 0.905511811023622
          },
          {
            "number": 11,
            "time": 21.326419685416326,
            "value": 0.889763779527559
          },
          {
            "number": 11,
            "time": 21.34427682083299,
            "value": 0.8740157480314961
          },
          {
            "number": 11,
            "time": 21.356419672916324,
            "value": 0.9763779527559056
          },
          {
            "number": 11,
            "time": 21.362133956249657,
            "value": 0.8661417322834646
          },
          {
            "number": 11,
            "time": 21.37427680833299,
            "value": 0.968503937007874
          },
          {
            "number": 11,
            "time": 21.379991091666323,
            "value": 0.8582677165354331
          },
          {
            "number": 11,
            "time": 21.392133943749656,
            "value": 0.952755905511811
          },
          {
            "number": 11,
            "time": 21.398562512499655,
            "value": 0.8503937007874016
          },
          {
            "number": 11,
            "time": 21.40999107916632,
            "value": 0.9291338582677166
          },
          {
            "number": 11,
            "time": 21.419276789582987,
            "value": 0.84251968503937
          },
          {
            "number": 11,
            "time": 21.427848214582987,
            "value": 0.9133858267716536
          },
          {
            "number": 11,
            "time": 21.437133924999653,
            "value": 0.8267716535433071
          },
          {
            "number": 11,
            "time": 21.445705349999653,
            "value": 0.905511811023622
          },
          {
            "number": 11,
            "time": 21.45499106041632,
            "value": 0.8188976377952756
          },
          {
            "number": 11,
            "time": 21.46356248541632,
            "value": 0.889763779527559
          },
          {
            "number": 11,
            "time": 21.472848195832984,
            "value": 0.8110236220472441
          },
          {
            "number": 11,
            "time": 21.48213390624965,
            "value": 0.8818897637795275
          },
          {
            "number": 11,
            "time": 21.49070533124965,
            "value": 0.7952755905511811
          },
          {
            "number": 11,
            "time": 21.499991041666316,
            "value": 0.8740157480314961
          },
          {
            "number": 11,
            "time": 21.508562466666316,
            "value": 0.7874015748031497
          },
          {
            "number": 11,
            "time": 21.517848177082982,
            "value": 0.8661417322834646
          },
          {
            "number": 11,
            "time": 21.52641960208298,
            "value": 0.7716535433070866
          },
          {
            "number": 11,
            "time": 21.535705312499648,
            "value": 0.8582677165354331
          },
          {
            "number": 11,
            "time": 21.544276737499647,
            "value": 0.7637795275590551
          },
          {
            "number": 11,
            "time": 21.553562447916313,
            "value": 0.8503937007874016
          },
          {
            "number": 11,
            "time": 21.562133872916313,
            "value": 0.7559055118110236
          },
          {
            "number": 11,
            "time": 21.57999100833298,
            "value": 0.7480314960629921
          },
          {
            "number": 11,
            "time": 21.614276708332977,
            "value": 0.7401574803149606
          },
          {
            "number": 11,
            "time": 21.678562395832973,
            "value": 0.8582677165354331
          },
          {
            "number": 11,
            "time": 21.69641953124964,
            "value": 0.8661417322834646
          },
          {
            "number": 11,
            "time": 21.714276666666304,
            "value": 0.8740157480314961
          },
          {
            "number": 11,
            "time": 21.72356237708297,
            "value": 0.7480314960629921
          },
          {
            "number": 11,
            "time": 21.741419512499636,
            "value": 0.7716535433070866
          },
          {
            "number": 11,
            "time": 21.750705222916302,
            "value": 0.8818897637795275
          },
          {
            "number": 11,
            "time": 21.759276647916302,
            "value": 0.8031496062992126
          },
          {
            "number": 11,
            "time": 21.768562358332968,
            "value": 0.889763779527559
          },
          {
            "number": 11,
            "time": 21.777133783332967,
            "value": 0.8267716535433071
          },
          {
            "number": 11,
            "time": 21.786419493749634,
            "value": 0.8976377952755905
          },
          {
            "number": 11,
            "time": 21.794990918749633,
            "value": 0.84251968503937
          },
          {
            "number": 11,
            "time": 21.8042766291663,
            "value": 0.9133858267716536
          },
          {
            "number": 11,
            "time": 21.8128480541663,
            "value": 0.8661417322834646
          },
          {
            "number": 11,
            "time": 21.822133764582965,
            "value": 0.9212598425196851
          },
          {
            "number": 11,
            "time": 21.830705189582964,
            "value": 0.8818897637795275
          },
          {
            "number": 11,
            "time": 21.83999089999963,
            "value": 0.9291338582677166
          },
          {
            "number": 11,
            "time": 21.84856232499963,
            "value": 0.8976377952755905
          },
          {
            "number": 11,
            "time": 21.857848035416296,
            "value": 0.937007874015748
          },
          {
            "number": 11,
            "time": 21.867133745832962,
            "value": 0.9212598425196851
          },
          {
            "number": 11,
            "time": 21.875705170832962,
            "value": 0.9448818897637795
          },
          {
            "number": 11,
            "time": 21.884990881249628,
            "value": 0.9448818897637795
          },
          {
            "number": 11,
            "time": 21.893562306249628,
            "value": 0.952755905511811
          },
          {
            "number": 11,
            "time": 21.902848016666294,
            "value": 0.9606299212598425
          },
          {
            "number": 11,
            "time": 21.911419441666293,
            "value": 0.9606299212598425
          },
          {
            "number": 11,
            "time": 21.92070515208296,
            "value": 0.984251968503937
          },
          {
            "number": 11,
            "time": 21.92927657708296,
            "value": 0.968503937007874
          },
          {
            "number": 11,
            "time": 21.938562287499625,
            "value": 0.9921259842519685
          },
          {
            "number": 11,
            "time": 21.947133712499625,
            "value": 0.9763779527559056
          },
          {
            "number": 11,
            "time": 21.982847983332956,
            "value": 0.984251968503937
          },
          {
            "number": 11,
            "time": 22.00141940416629,
            "value": 0.9921259842519685
          },
          {
            "number": 11,
            "time": 22.009990829166288,
            "value": 1
          },
          {
            "number": 11,
            "time": 22.26999072083294,
            "value": 1
          },
          {
            "number": 11,
            "time": 22.439990649999597,
            "value": 0.9921259842519685
          },
          {
            "number": 11,
            "time": 22.457847785416263,
            "value": 0.9763779527559056
          },
          {
            "number": 11,
            "time": 22.47570492083293,
            "value": 0.9606299212598425
          },
          {
            "number": 11,
            "time": 22.493562056249594,
            "value": 0.952755905511811
          },
          {
            "number": 11,
            "time": 22.622133431249587,
            "value": 0.9763779527559056
          },
          {
            "number": 11,
            "time": 22.639990566666253,
            "value": 0.984251968503937
          },
          {
            "number": 11,
            "time": 22.654990560416252,
            "value": 0.9921259842519685
          },
          {
            "number": 11,
            "time": 22.692847687499583,
            "value": 1
          },
          {
            "number": 11,
            "time": 22.72070481874958,
            "value": 0.984251968503937
          },
          {
            "number": 11,
            "time": 22.738561954166247,
            "value": 0.968503937007874
          },
          {
            "number": 11,
            "time": 22.756419089582913,
            "value": 0.9448818897637795
          },
          {
            "number": 11,
            "time": 22.77427622499958,
            "value": 0.9291338582677166
          },
          {
            "number": 11,
            "time": 22.792133360416244,
            "value": 0.9133858267716536
          },
          {
            "number": 11,
            "time": 22.80999049583291,
            "value": 0.8976377952755905
          },
          {
            "number": 11,
            "time": 22.827847631249575,
            "value": 0.8818897637795275
          },
          {
            "number": 11,
            "time": 22.84570476666624,
            "value": 0.8740157480314961
          },
          {
            "number": 11,
            "time": 22.863561902082907,
            "value": 0.8503937007874016
          },
          {
            "number": 11,
            "time": 22.881419037499573,
            "value": 0.84251968503937
          },
          {
            "number": 11,
            "time": 22.899276172916238,
            "value": 0.8267716535433071
          },
          {
            "number": 11,
            "time": 22.917133308332904,
            "value": 0.8110236220472441
          },
          {
            "number": 11,
            "time": 22.93499044374957,
            "value": 0.7952755905511811
          },
          {
            "number": 11,
            "time": 22.952847579166235,
            "value": 0.7795275590551181
          },
          {
            "number": 11,
            "time": 22.9707047145829,
            "value": 0.7716535433070866
          },
          {
            "number": 11,
            "time": 22.989276135416233,
            "value": 0.7637795275590551
          },
          {
            "number": 11,
            "time": 23.0071332708329,
            "value": 0.7559055118110236
          },
          {
            "number": 11,
            "time": 23.024990406249565,
            "value": 0.7480314960629921
          },
          {
            "number": 11,
            "time": 23.069276102082895,
            "value": 0.968503937007874
          },
          {
            "number": 11,
            "time": 23.08713323749956,
            "value": 0.9212598425196851
          },
          {
            "number": 11,
            "time": 23.105704658332893,
            "value": 0.8740157480314961
          },
          {
            "number": 11,
            "time": 23.12356179374956,
            "value": 0.84251968503937
          },
          {
            "number": 11,
            "time": 23.141418929166225,
            "value": 0.8110236220472441
          },
          {
            "number": 11,
            "time": 79.88568100000175,
            "value": 0.6220472440944882
          },
          {
            "number": 11,
            "time": 79.88746671354342,
            "value": 0.6456692913385826
          },
          {
            "number": 11,
            "time": 79.89460956771009,
            "value": 0.6535433070866141
          },
          {
            "number": 11,
            "time": 79.89639528125176,
            "value": 0.6456692913385826
          },
          {
            "number": 11,
            "time": 80.04818093229342,
            "value": 0.9921259842519685
          },
          {
            "number": 11,
            "time": 80.05175235937675,
            "value": 0.984251968503937
          },
          {
            "number": 11,
            "time": 80.05353807291841,
            "value": 0.984251968503937
          },
          {
            "number": 11,
            "time": 80.05532378646008,
            "value": 0.9763779527559056
          },
          {
            "number": 11,
            "time": 80.05710950000174,
            "value": 0.984251968503937
          },
          {
            "number": 11,
            "time": 80.23389514062674,
            "value": 0.7637795275590551
          },
          {
            "number": 11,
            "time": 80.23568085416841,
            "value": 0.7559055118110236
          },
          {
            "number": 11,
            "time": 80.23746656771007,
            "value": 0.6299212598425197
          },
          {
            "number": 11,
            "time": 80.23925228125174,
            "value": 0.5196850393700787
          },
          {
            "number": 11,
            "time": 80.2410379947934,
            "value": 0.6299212598425197
          },
          {
            "number": 11,
            "time": 80.26068084375173,
            "value": 0.6299212598425197
          },
          {
            "number": 11,
            "time": 80.38746650521006,
            "value": 0.7637795275590551
          },
          {
            "number": 11,
            "time": 80.38925221875172,
            "value": 0.9921259842519685
          },
          {
            "number": 11,
            "time": 80.39282364583505,
            "value": 0.9921259842519685
          },
          {
            "number": 11,
            "time": 80.39460935937672,
            "value": 0.8188976377952756
          }
        ],
        "32": [
          {
            "number": 32,
            "time": 0.5142855000000001,
            "value": 0
          },
          {
            "number": 32,
            "time": 11.828566500000056,
            "value": 0
          },
          {
            "number": 32,
            "time": 23.31427599999955,
            "value": 0
          }
        ],
        "64": [
          {
            "number": 64,
            "time": 1.6285707499999982,
            "value": 1
          },
          {
            "number": 64,
            "time": 2.828570250000002,
            "value": 0
          },
          {
            "number": 64,
            "time": 2.999998750000003,
            "value": 1
          },
          {
            "number": 64,
            "time": 4.199998250000006,
            "value": 0
          },
          {
            "number": 64,
            "time": 4.285712500000005,
            "value": 1
          },
          {
            "number": 64,
            "time": 5.571426249999987,
            "value": 0
          },
          {
            "number": 64,
            "time": 5.742854749999984,
            "value": 1
          },
          {
            "number": 64,
            "time": 6.257140249999977,
            "value": 0
          },
          {
            "number": 64,
            "time": 6.428568749999974,
            "value": 1
          },
          {
            "number": 64,
            "time": 6.857139999999968,
            "value": 0
          },
          {
            "number": 64,
            "time": 7.028568499999966,
            "value": 1
          },
          {
            "number": 64,
            "time": 8.31428224999996,
            "value": 0
          },
          {
            "number": 64,
            "time": 8.485710749999965,
            "value": 1
          },
          {
            "number": 64,
            "time": 9.685710249999998,
            "value": 0
          },
          {
            "number": 64,
            "time": 9.7714245,
            "value": 1
          },
          {
            "number": 64,
            "time": 10.799995500000028,
            "value": 0
          },
          {
            "number": 64,
            "time": 10.971424000000033,
            "value": 1
          },
          {
            "number": 64,
            "time": 11.742852250000054,
            "value": 0
          }
        ]
      },
      "id": 7,
      "instrumentNumber": 80,
      "instrument": "lead 1 (square)",
      "instrumentFamily": "synth lead",
      "channelNumber": 6,
      "isPercussion": false
    },
    {
      "startTime": 33.942843,
      "duration": 87.4285349999986,
      "length": 159,
      "notes": [
        {
          "name": "C6",
          "midi": 84,
          "time": 33.942843,
          "velocity": 0.48031496062992124,
          "duration": 1.3714279999999235
        },
        {
          "name": "C6",
          "midi": 84,
          "time": 35.31427099999993,
          "velocity": 0.7322834645669292,
          "duration": 1.3714279999999235
        },
        {
          "name": "G5",
          "midi": 79,
          "time": 44.91426699999985,
          "velocity": 0.6456692913385826,
          "duration": 2.0571419999998852
        },
        {
          "name": "C6",
          "midi": 84,
          "time": 46.97140899999974,
          "velocity": 0.6535433070866141,
          "duration": 0.6857139999999617
        },
        {
          "name": "C6",
          "midi": 84,
          "time": 47.6571229999997,
          "velocity": 0.6614173228346457,
          "duration": 1.3714279999999235
        },
        {
          "name": "A#5",
          "midi": 82,
          "time": 49.028550999999624,
          "velocity": 0.6771653543307087,
          "duration": 1.3714279999999235
        },
        {
          "name": "A#5",
          "midi": 82,
          "time": 50.39997899999955,
          "velocity": 0.6771653543307087,
          "duration": 1.3714279999999235
        },
        {
          "name": "F5",
          "midi": 77,
          "time": 51.77140699999947,
          "velocity": 0.5905511811023622,
          "duration": 1.3714279999999235
        },
        {
          "name": "F5",
          "midi": 77,
          "time": 53.142834999999394,
          "velocity": 0.5984251968503937,
          "duration": 1.3714279999999235
        },
        {
          "name": "F5",
          "midi": 77,
          "time": 54.51426299999932,
          "velocity": 0.6377952755905512,
          "duration": 1.3714279999999235
        },
        {
          "name": "G5",
          "midi": 79,
          "time": 55.88569099999924,
          "velocity": 0.6377952755905512,
          "duration": 2.0571419999998852
        },
        {
          "name": "C6",
          "midi": 84,
          "time": 57.942832999999126,
          "velocity": 0.6299212598425197,
          "duration": 0.6857139999999617
        },
        {
          "name": "C6",
          "midi": 84,
          "time": 58.62854699999909,
          "velocity": 0.6220472440944882,
          "duration": 1.3714279999999235
        },
        {
          "name": "G5",
          "midi": 79,
          "time": 59.99997499999901,
          "velocity": 0.6141732283464567,
          "duration": 1.3714279999999235
        },
        {
          "name": "F5",
          "midi": 77,
          "time": 61.371402999998935,
          "velocity": 0.5984251968503937,
          "duration": 2.742855999999847
        },
        {
          "name": "F4",
          "midi": 65,
          "time": 66.85711499999879,
          "velocity": 0.889763779527559,
          "duration": 0.17142850000000465
        },
        {
          "name": "F#4",
          "midi": 66,
          "time": 67.02854349999879,
          "velocity": 0.9212598425196851,
          "duration": 0.17142850000000465
        },
        {
          "name": "C#5",
          "midi": 73,
          "time": 67.1999719999988,
          "velocity": 0.8582677165354331,
          "duration": 0.17142850000000465
        },
        {
          "name": "F4",
          "midi": 65,
          "time": 67.3714004999988,
          "velocity": 0.9291338582677166,
          "duration": 0.17142850000000465
        },
        {
          "name": "F#4",
          "midi": 66,
          "time": 67.5428289999988,
          "velocity": 0.8503937007874016,
          "duration": 0.17142850000000465
        },
        {
          "name": "C#5",
          "midi": 73,
          "time": 67.71425749999881,
          "velocity": 0.8582677165354331,
          "duration": 0.17142850000000465
        },
        {
          "name": "F4",
          "midi": 65,
          "time": 67.88568599999881,
          "velocity": 0.84251968503937,
          "duration": 0.17142850000000465
        },
        {
          "name": "F#4",
          "midi": 66,
          "time": 68.05711449999882,
          "velocity": 0.8503937007874016,
          "duration": 0.17142850000000465
        },
        {
          "name": "C#5",
          "midi": 73,
          "time": 68.22854299999882,
          "velocity": 0.8976377952755905,
          "duration": 0.17142850000000465
        },
        {
          "name": "F4",
          "midi": 65,
          "time": 68.39997149999883,
          "velocity": 0.8582677165354331,
          "duration": 0.17142850000000465
        },
        {
          "name": "F#4",
          "midi": 66,
          "time": 68.57139999999883,
          "velocity": 0.8976377952755905,
          "duration": 0.17142850000000465
        },
        {
          "name": "C#5",
          "midi": 73,
          "time": 68.74282849999884,
          "velocity": 0.905511811023622,
          "duration": 0.3428569999999951
        },
        {
          "name": "F4",
          "midi": 65,
          "time": 69.08568549999883,
          "velocity": 0.9133858267716536,
          "duration": 0.17142850000000465
        },
        {
          "name": "F#4",
          "midi": 66,
          "time": 69.25711399999884,
          "velocity": 0.8503937007874016,
          "duration": 0.17142850000000465
        },
        {
          "name": "C#5",
          "midi": 73,
          "time": 69.42854249999884,
          "velocity": 0.9133858267716536,
          "duration": 0.3428569999999951
        },
        {
          "name": "F4",
          "midi": 65,
          "time": 69.77139949999884,
          "velocity": 0.889763779527559,
          "duration": 0.17142850000000465
        },
        {
          "name": "F#4",
          "midi": 66,
          "time": 69.94282799999884,
          "velocity": 0.8661417322834646,
          "duration": 0.17142850000000465
        },
        {
          "name": "C#5",
          "midi": 73,
          "time": 70.11425649999885,
          "velocity": 0.8582677165354331,
          "duration": 0.17142850000000465
        },
        {
          "name": "F4",
          "midi": 65,
          "time": 70.28568499999885,
          "velocity": 0.8818897637795275,
          "duration": 0.17142850000000465
        },
        {
          "name": "F#4",
          "midi": 66,
          "time": 70.45711349999885,
          "velocity": 0.84251968503937,
          "duration": 0.17142850000000465
        },
        {
          "name": "C#5",
          "midi": 73,
          "time": 70.62854199999886,
          "velocity": 0.8976377952755905,
          "duration": 0.17142850000000465
        },
        {
          "name": "F4",
          "midi": 65,
          "time": 70.79997049999886,
          "velocity": 0.8661417322834646,
          "duration": 0.17142850000000465
        },
        {
          "name": "F#4",
          "midi": 66,
          "time": 70.97139899999887,
          "velocity": 0.8661417322834646,
          "duration": 0.17142850000000465
        },
        {
          "name": "C#5",
          "midi": 73,
          "time": 71.14282749999887,
          "velocity": 0.8661417322834646,
          "duration": 0.17142850000000465
        },
        {
          "name": "F4",
          "midi": 65,
          "time": 71.31425599999888,
          "velocity": 0.8661417322834646,
          "duration": 0.17142850000000465
        },
        {
          "name": "C#5",
          "midi": 73,
          "time": 71.48568449999888,
          "velocity": 0.8661417322834646,
          "duration": 0.17142850000000465
        },
        {
          "name": "F#4",
          "midi": 66,
          "time": 71.65711299999889,
          "velocity": 0.8661417322834646,
          "duration": 0.17142850000000465
        },
        {
          "name": "G#4",
          "midi": 68,
          "time": 71.82854149999889,
          "velocity": 0.8661417322834646,
          "duration": 0.17142850000000465
        },
        {
          "name": "F#4",
          "midi": 66,
          "time": 71.9999699999989,
          "velocity": 0.9133858267716536,
          "duration": 0.3428569999999951
        },
        {
          "name": "F4",
          "midi": 65,
          "time": 72.34282699999889,
          "velocity": 0.889763779527559,
          "duration": 0.17142850000000465
        },
        {
          "name": "F#4",
          "midi": 66,
          "time": 72.5142554999989,
          "velocity": 0.9212598425196851,
          "duration": 0.17142850000000465
        },
        {
          "name": "C#5",
          "midi": 73,
          "time": 72.6856839999989,
          "velocity": 0.8582677165354331,
          "duration": 0.17142850000000465
        },
        {
          "name": "F4",
          "midi": 65,
          "time": 72.8571124999989,
          "velocity": 0.9291338582677166,
          "duration": 0.17142850000000465
        },
        {
          "name": "F#4",
          "midi": 66,
          "time": 73.02854099999891,
          "velocity": 0.8503937007874016,
          "duration": 0.17142850000000465
        },
        {
          "name": "C#5",
          "midi": 73,
          "time": 73.19996949999891,
          "velocity": 0.8582677165354331,
          "duration": 0.17142850000000465
        },
        {
          "name": "F4",
          "midi": 65,
          "time": 73.37139799999892,
          "velocity": 0.84251968503937,
          "duration": 0.17142850000000465
        },
        {
          "name": "F#4",
          "midi": 66,
          "time": 73.54282649999892,
          "velocity": 0.8503937007874016,
          "duration": 0.17142850000000465
        },
        {
          "name": "C#5",
          "midi": 73,
          "time": 73.71425499999893,
          "velocity": 0.8976377952755905,
          "duration": 0.17142850000000465
        },
        {
          "name": "F4",
          "midi": 65,
          "time": 73.88568349999893,
          "velocity": 0.8582677165354331,
          "duration": 0.17142850000000465
        },
        {
          "name": "F#4",
          "midi": 66,
          "time": 74.05711199999894,
          "velocity": 0.8976377952755905,
          "duration": 0.17142850000000465
        },
        {
          "name": "C#5",
          "midi": 73,
          "time": 74.22854049999894,
          "velocity": 0.905511811023622,
          "duration": 0.3428569999999951
        },
        {
          "name": "F4",
          "midi": 65,
          "time": 74.57139749999894,
          "velocity": 0.8661417322834646,
          "duration": 0.17142850000000465
        },
        {
          "name": "F#4",
          "midi": 66,
          "time": 74.74282599999894,
          "velocity": 0.8661417322834646,
          "duration": 0.17142850000000465
        },
        {
          "name": "F4",
          "midi": 65,
          "time": 74.91425449999895,
          "velocity": 0.8661417322834646,
          "duration": 0.17142850000000465
        },
        {
          "name": "D#3",
          "midi": 51,
          "time": 75.08568299999895,
          "velocity": 0.8740157480314961,
          "duration": 0.08571424999999522
        },
        {
          "name": "G#3",
          "midi": 56,
          "time": 75.17139724999895,
          "velocity": 0.8976377952755905,
          "duration": 0.08571424999999522
        },
        {
          "name": "A#3",
          "midi": 58,
          "time": 75.25711149999894,
          "velocity": 0.8976377952755905,
          "duration": 0.08571424999999522
        },
        {
          "name": "D#4",
          "midi": 63,
          "time": 75.34282574999894,
          "velocity": 0.8582677165354331,
          "duration": 0.08571424999999522
        },
        {
          "name": "F4",
          "midi": 65,
          "time": 75.42853999999893,
          "velocity": 0.9133858267716536,
          "duration": 0.08571424999999522
        },
        {
          "name": "G#4",
          "midi": 68,
          "time": 75.51425424999893,
          "velocity": 0.9133858267716536,
          "duration": 0.08571424999999522
        },
        {
          "name": "A#4",
          "midi": 70,
          "time": 75.59996849999892,
          "velocity": 0.84251968503937,
          "duration": 0.08571424999999522
        },
        {
          "name": "D#5",
          "midi": 75,
          "time": 75.68568274999892,
          "velocity": 0.84251968503937,
          "duration": 0.08571424999999522
        },
        {
          "name": "E5",
          "midi": 76,
          "time": 75.77139699999891,
          "velocity": 0.9133858267716536,
          "duration": 0.08571424999999522
        },
        {
          "name": "G#5",
          "midi": 80,
          "time": 75.85711124999891,
          "velocity": 0.8661417322834646,
          "duration": 0.08571424999999522
        },
        {
          "name": "A#5",
          "midi": 82,
          "time": 75.9428254999989,
          "velocity": 0.8503937007874016,
          "duration": 0.08571424999999522
        },
        {
          "name": "D#6",
          "midi": 87,
          "time": 76.0285397499989,
          "velocity": 0.8661417322834646,
          "duration": 0.08571424999999522
        },
        {
          "name": "D6",
          "midi": 86,
          "time": 76.1142539999989,
          "velocity": 0.889763779527559,
          "duration": 0.08571424999999522
        },
        {
          "name": "G#6",
          "midi": 92,
          "time": 76.19996824999889,
          "velocity": 0.8661417322834646,
          "duration": 0.08571424999999522
        },
        {
          "name": "A#6",
          "midi": 94,
          "time": 76.28568249999888,
          "velocity": 0.9133858267716536,
          "duration": 0.08571424999999522
        },
        {
          "name": "D#7",
          "midi": 99,
          "time": 76.37139674999888,
          "velocity": 0.8740157480314961,
          "duration": 0.08571424999999522
        },
        {
          "name": "G7",
          "midi": 103,
          "time": 76.45711099999887,
          "velocity": 0.84251968503937,
          "duration": 0.08571424999999522
        },
        {
          "name": "D#7",
          "midi": 99,
          "time": 76.54282524999887,
          "velocity": 0.8976377952755905,
          "duration": 0.08571424999999522
        },
        {
          "name": "A#7",
          "midi": 106,
          "time": 76.62853949999887,
          "velocity": 0.8661417322834646,
          "duration": 0.08571424999999522
        },
        {
          "name": "G7",
          "midi": 103,
          "time": 76.71425374999886,
          "velocity": 0.8740157480314961,
          "duration": 0.08571424999999522
        },
        {
          "name": "D#7",
          "midi": 99,
          "time": 76.79996799999886,
          "velocity": 0.8976377952755905,
          "duration": 0.08571424999999522
        },
        {
          "name": "A#6",
          "midi": 94,
          "time": 76.88568224999885,
          "velocity": 0.9133858267716536,
          "duration": 0.08571424999999522
        },
        {
          "name": "G6",
          "midi": 91,
          "time": 76.97139649999885,
          "velocity": 0.905511811023622,
          "duration": 0.08571424999999522
        },
        {
          "name": "D#6",
          "midi": 87,
          "time": 77.05711074999884,
          "velocity": 0.8503937007874016,
          "duration": 0.08571424999999522
        },
        {
          "name": "A#5",
          "midi": 82,
          "time": 77.14282499999884,
          "velocity": 0.8503937007874016,
          "duration": 0.08571424999999522
        },
        {
          "name": "G5",
          "midi": 79,
          "time": 77.22853924999883,
          "velocity": 0.9212598425196851,
          "duration": 0.08571424999999522
        },
        {
          "name": "D#5",
          "midi": 75,
          "time": 77.31425349999883,
          "velocity": 0.889763779527559,
          "duration": 0.08571424999999522
        },
        {
          "name": "A#4",
          "midi": 70,
          "time": 77.39996774999882,
          "velocity": 0.8582677165354331,
          "duration": 0.08571424999999522
        },
        {
          "name": "G5",
          "midi": 79,
          "time": 77.48568199999882,
          "velocity": 0.8661417322834646,
          "duration": 0.08571424999999522
        },
        {
          "name": "D#5",
          "midi": 75,
          "time": 77.57139624999881,
          "velocity": 0.84251968503937,
          "duration": 0.08571424999999522
        },
        {
          "name": "A#4",
          "midi": 70,
          "time": 77.65711049999881,
          "velocity": 0.8976377952755905,
          "duration": 0.08571424999999522
        },
        {
          "name": "G4",
          "midi": 67,
          "time": 77.7428247499988,
          "velocity": 0.8818897637795275,
          "duration": 0.08571424999999522
        },
        {
          "name": "F4",
          "midi": 65,
          "time": 77.8285389999988,
          "velocity": 0.889763779527559,
          "duration": 0.17142850000000465
        },
        {
          "name": "F#4",
          "midi": 66,
          "time": 77.9999674999988,
          "velocity": 0.9212598425196851,
          "duration": 0.17142850000000465
        },
        {
          "name": "C#5",
          "midi": 73,
          "time": 78.17139599999881,
          "velocity": 0.8582677165354331,
          "duration": 0.17142850000000465
        },
        {
          "name": "F4",
          "midi": 65,
          "time": 78.34282449999881,
          "velocity": 0.9291338582677166,
          "duration": 0.17142850000000465
        },
        {
          "name": "F#4",
          "midi": 66,
          "time": 78.51425299999882,
          "velocity": 0.8503937007874016,
          "duration": 0.17142850000000465
        },
        {
          "name": "C#5",
          "midi": 73,
          "time": 78.68568149999882,
          "velocity": 0.8582677165354331,
          "duration": 0.17142850000000465
        },
        {
          "name": "F4",
          "midi": 65,
          "time": 78.85710999999883,
          "velocity": 0.84251968503937,
          "duration": 0.17142850000000465
        },
        {
          "name": "F#4",
          "midi": 66,
          "time": 79.02853849999883,
          "velocity": 0.8503937007874016,
          "duration": 0.17142850000000465
        },
        {
          "name": "C#5",
          "midi": 73,
          "time": 79.19996699999884,
          "velocity": 0.8976377952755905,
          "duration": 0.17142850000000465
        },
        {
          "name": "F4",
          "midi": 65,
          "time": 79.37139549999884,
          "velocity": 0.8661417322834646,
          "duration": 0.17142850000000465
        },
        {
          "name": "F#4",
          "midi": 66,
          "time": 79.54282399999884,
          "velocity": 0.8661417322834646,
          "duration": 0.17142850000000465
        },
        {
          "name": "C#5",
          "midi": 73,
          "time": 79.71425249999885,
          "velocity": 0.8661417322834646,
          "duration": 0.17142850000000465
        },
        {
          "name": "C#5",
          "midi": 73,
          "time": 80.05710949999884,
          "velocity": 0.8661417322834646,
          "duration": 0.17142850000000465
        },
        {
          "name": "C#5",
          "midi": 73,
          "time": 80.39996649999881,
          "velocity": 0.8661417322834646,
          "duration": 0.3428569999999951
        },
        {
          "name": "F4",
          "midi": 65,
          "time": 80.7428234999988,
          "velocity": 0.8661417322834646,
          "duration": 0.17142850000000465
        },
        {
          "name": "F#4",
          "midi": 66,
          "time": 80.91425199999881,
          "velocity": 0.8661417322834646,
          "duration": 0.17142850000000465
        },
        {
          "name": "C#5",
          "midi": 73,
          "time": 81.08568049999882,
          "velocity": 0.8661417322834646,
          "duration": 0.17142850000000465
        },
        {
          "name": "F4",
          "midi": 65,
          "time": 81.25710899999882,
          "velocity": 0.8661417322834646,
          "duration": 0.17142850000000465
        },
        {
          "name": "F#4",
          "midi": 66,
          "time": 81.42853749999882,
          "velocity": 0.8661417322834646,
          "duration": 0.17142850000000465
        },
        {
          "name": "C#5",
          "midi": 73,
          "time": 81.59996599999883,
          "velocity": 0.8661417322834646,
          "duration": 0.17142850000000465
        },
        {
          "name": "B2",
          "midi": 47,
          "time": 83.31425099999883,
          "velocity": 0.8661417322834646,
          "duration": 0.08571424999999522
        },
        {
          "name": "D#3",
          "midi": 51,
          "time": 83.39996524999883,
          "velocity": 0.8740157480314961,
          "duration": 0.08571424999999522
        },
        {
          "name": "F#3",
          "midi": 54,
          "time": 83.48567949999882,
          "velocity": 0.8661417322834646,
          "duration": 0.08571424999999522
        },
        {
          "name": "B3",
          "midi": 59,
          "time": 83.57139374999882,
          "velocity": 0.9133858267716536,
          "duration": 0.08571424999999522
        },
        {
          "name": "D#4",
          "midi": 63,
          "time": 83.65710799999881,
          "velocity": 0.8661417322834646,
          "duration": 0.08571424999999522
        },
        {
          "name": "F#4",
          "midi": 66,
          "time": 83.74282224999881,
          "velocity": 0.9133858267716536,
          "duration": 0.08571424999999522
        },
        {
          "name": "B4",
          "midi": 71,
          "time": 83.8285364999988,
          "velocity": 0.905511811023622,
          "duration": 0.08571424999999522
        },
        {
          "name": "D#5",
          "midi": 75,
          "time": 83.9142507499988,
          "velocity": 0.84251968503937,
          "duration": 0.08571424999999522
        },
        {
          "name": "F#5",
          "midi": 78,
          "time": 83.9999649999988,
          "velocity": 0.889763779527559,
          "duration": 0.08571424999999522
        },
        {
          "name": "D#5",
          "midi": 75,
          "time": 84.08567924999879,
          "velocity": 0.8582677165354331,
          "duration": 0.08571424999999522
        },
        {
          "name": "B4",
          "midi": 71,
          "time": 84.17139349999879,
          "velocity": 0.8818897637795275,
          "duration": 0.08571424999999522
        },
        {
          "name": "F#4",
          "midi": 66,
          "time": 84.25710774999878,
          "velocity": 0.84251968503937,
          "duration": 0.08571424999999522
        },
        {
          "name": "D#4",
          "midi": 63,
          "time": 84.34282199999878,
          "velocity": 0.889763779527559,
          "duration": 0.08571424999999522
        },
        {
          "name": "B3",
          "midi": 59,
          "time": 84.42853624999877,
          "velocity": 0.8661417322834646,
          "duration": 0.08571424999999522
        },
        {
          "name": "F#3",
          "midi": 54,
          "time": 84.51425049999877,
          "velocity": 0.905511811023622,
          "duration": 0.08571424999999522
        },
        {
          "name": "D#3",
          "midi": 51,
          "time": 84.59996474999876,
          "velocity": 0.8818897637795275,
          "duration": 0.08571424999999522
        },
        {
          "name": "C#3",
          "midi": 49,
          "time": 84.68567899999876,
          "velocity": 0.8503937007874016,
          "duration": 0.08571424999999522
        },
        {
          "name": "F3",
          "midi": 53,
          "time": 84.77139324999875,
          "velocity": 0.905511811023622,
          "duration": 0.08571424999999522
        },
        {
          "name": "G#3",
          "midi": 56,
          "time": 84.85710749999875,
          "velocity": 0.8818897637795275,
          "duration": 0.08571424999999522
        },
        {
          "name": "C#4",
          "midi": 61,
          "time": 84.94282174999874,
          "velocity": 0.9133858267716536,
          "duration": 0.08571424999999522
        },
        {
          "name": "F4",
          "midi": 65,
          "time": 85.02853599999874,
          "velocity": 0.84251968503937,
          "duration": 0.08571424999999522
        },
        {
          "name": "G#4",
          "midi": 68,
          "time": 85.11425024999873,
          "velocity": 0.84251968503937,
          "duration": 0.08571424999999522
        },
        {
          "name": "C#5",
          "midi": 73,
          "time": 85.19996449999873,
          "velocity": 0.8346456692913385,
          "duration": 0.08571424999999522
        },
        {
          "name": "F5",
          "midi": 77,
          "time": 85.28567874999872,
          "velocity": 0.905511811023622,
          "duration": 0.08571424999999522
        },
        {
          "name": "G#5",
          "midi": 80,
          "time": 85.37139299999872,
          "velocity": 0.889763779527559,
          "duration": 0.08571424999999522
        },
        {
          "name": "F5",
          "midi": 77,
          "time": 85.45710724999871,
          "velocity": 0.8582677165354331,
          "duration": 0.08571424999999522
        },
        {
          "name": "C#5",
          "midi": 73,
          "time": 85.54282149999871,
          "velocity": 0.8346456692913385,
          "duration": 0.08571424999999522
        },
        {
          "name": "G#4",
          "midi": 68,
          "time": 85.6285357499987,
          "velocity": 0.8740157480314961,
          "duration": 0.08571424999999522
        },
        {
          "name": "F4",
          "midi": 65,
          "time": 85.7142499999987,
          "velocity": 0.8976377952755905,
          "duration": 0.08571424999999522
        },
        {
          "name": "C#4",
          "midi": 61,
          "time": 85.7999642499987,
          "velocity": 0.9212598425196851,
          "duration": 0.08571424999999522
        },
        {
          "name": "G#3",
          "midi": 56,
          "time": 85.88567849999869,
          "velocity": 0.84251968503937,
          "duration": 0.08571424999999522
        },
        {
          "name": "F3",
          "midi": 53,
          "time": 85.97139274999869,
          "velocity": 0.905511811023622,
          "duration": 0.08571424999999522
        },
        {
          "name": "D#3",
          "midi": 51,
          "time": 86.05710699999868,
          "velocity": 0.8503937007874016,
          "duration": 0.08571424999999522
        },
        {
          "name": "F#3",
          "midi": 54,
          "time": 86.14282124999868,
          "velocity": 0.9133858267716536,
          "duration": 0.08571424999999522
        },
        {
          "name": "A#3",
          "midi": 58,
          "time": 86.22853549999867,
          "velocity": 0.84251968503937,
          "duration": 0.08571424999999522
        },
        {
          "name": "D#4",
          "midi": 63,
          "time": 86.31424974999867,
          "velocity": 0.8503937007874016,
          "duration": 0.08571424999999522
        },
        {
          "name": "F#4",
          "midi": 66,
          "time": 86.39996399999866,
          "velocity": 0.8582677165354331,
          "duration": 0.08571424999999522
        },
        {
          "name": "A#4",
          "midi": 70,
          "time": 86.48567824999866,
          "velocity": 0.9212598425196851,
          "duration": 0.08571424999999522
        },
        {
          "name": "D#5",
          "midi": 75,
          "time": 86.57139249999865,
          "velocity": 0.8503937007874016,
          "duration": 0.08571424999999522
        },
        {
          "name": "F#5",
          "midi": 78,
          "time": 86.65710674999865,
          "velocity": 0.84251968503937,
          "duration": 0.08571424999999522
        },
        {
          "name": "A#5",
          "midi": 82,
          "time": 86.74282099999864,
          "velocity": 0.8740157480314961,
          "duration": 0.08571424999999522
        },
        {
          "name": "F#5",
          "midi": 78,
          "time": 86.82853524999864,
          "velocity": 0.905511811023622,
          "duration": 0.08571424999999522
        },
        {
          "name": "D#5",
          "midi": 75,
          "time": 86.91424949999863,
          "velocity": 0.8503937007874016,
          "duration": 0.08571424999999522
        },
        {
          "name": "A#4",
          "midi": 70,
          "time": 86.99996374999863,
          "velocity": 0.9212598425196851,
          "duration": 0.08571424999999522
        },
        {
          "name": "F#4",
          "midi": 66,
          "time": 87.08567799999862,
          "velocity": 0.8582677165354331,
          "duration": 0.08571424999999522
        },
        {
          "name": "D#4",
          "midi": 63,
          "time": 87.17139224999862,
          "velocity": 0.9212598425196851,
          "duration": 0.08571424999999522
        },
        {
          "name": "A#3",
          "midi": 58,
          "time": 87.25710649999861,
          "velocity": 0.889763779527559,
          "duration": 0.08571424999999522
        },
        {
          "name": "F#3",
          "midi": 54,
          "time": 87.34282074999861,
          "velocity": 0.8582677165354331,
          "duration": 0.08571424999999522
        }
      ],
      "controlChanges": {
        "7": [
          {
            "number": 7,
            "time": 0.6285711666666667,
            "value": 0.8188976377952756
          }
        ],
        "10": [
          {
            "number": 10,
            "time": 0.6285711666666667,
            "value": 0.5039370078740157
          },
          {
            "number": 10,
            "time": 44.91426699999985,
            "value": 0.25196850393700787
          },
          {
            "number": 10,
            "time": 47.6571229999997,
            "value": 0.7559055118110236
          },
          {
            "number": 10,
            "time": 50.39997899999955,
            "value": 0.5039370078740157
          },
          {
            "number": 10,
            "time": 53.142834999999394,
            "value": 0.6299212598425197
          },
          {
            "number": 10,
            "time": 55.88569099999924,
            "value": 0.5039370078740157
          },
          {
            "number": 10,
            "time": 61.371402999998935,
            "value": 0.6299212598425197
          },
          {
            "number": 10,
            "time": 75.08568299999895,
            "value": 0.7559055118110236
          },
          {
            "number": 10,
            "time": 75.77139699999891,
            "value": 0.5039370078740157
          },
          {
            "number": 10,
            "time": 77.14282499999884,
            "value": 0.25196850393700787
          },
          {
            "number": 10,
            "time": 77.8285389999988,
            "value": 0.5039370078740157
          },
          {
            "number": 10,
            "time": 83.31425099999883,
            "value": 0.4094488188976378
          }
        ],
        "11": [
          {
            "number": 11,
            "time": 33.942843,
            "value": 1
          },
          {
            "number": 11,
            "time": 33.957128708333336,
            "value": 0.9921259842519685
          },
          {
            "number": 11,
            "time": 33.97141441666667,
            "value": 0.984251968503937
          },
          {
            "number": 11,
            "time": 33.985700125,
            "value": 0.9763779527559056
          },
          {
            "number": 11,
            "time": 33.999985833333334,
            "value": 0.968503937007874
          },
          {
            "number": 11,
            "time": 34.014271541666666,
            "value": 0.9606299212598425
          },
          {
            "number": 11,
            "time": 34.02855725,
            "value": 0.952755905511811
          },
          {
            "number": 11,
            "time": 34.04284295833333,
            "value": 0.9448818897637795
          },
          {
            "number": 11,
            "time": 34.057128666666664,
            "value": 0.937007874015748
          },
          {
            "number": 11,
            "time": 34.071414374999996,
            "value": 0.9291338582677166
          },
          {
            "number": 11,
            "time": 34.08570008333333,
            "value": 0.9212598425196851
          },
          {
            "number": 11,
            "time": 34.09998579166666,
            "value": 0.9133858267716536
          },
          {
            "number": 11,
            "time": 34.114271499999994,
            "value": 0.905511811023622
          },
          {
            "number": 11,
            "time": 34.128557208333326,
            "value": 0.8976377952755905
          },
          {
            "number": 11,
            "time": 34.14284291666666,
            "value": 0.889763779527559
          },
          {
            "number": 11,
            "time": 34.15712862499999,
            "value": 0.8818897637795275
          },
          {
            "number": 11,
            "time": 34.171414333333324,
            "value": 0.8740157480314961
          },
          {
            "number": 11,
            "time": 34.18570004166666,
            "value": 0.8661417322834646
          },
          {
            "number": 11,
            "time": 34.19998574999999,
            "value": 0.8582677165354331
          },
          {
            "number": 11,
            "time": 34.21427145833332,
            "value": 0.8503937007874016
          },
          {
            "number": 11,
            "time": 34.228557166666654,
            "value": 0.84251968503937
          },
          {
            "number": 11,
            "time": 34.24284287499999,
            "value": 0.8346456692913385
          },
          {
            "number": 11,
            "time": 34.25712858333332,
            "value": 0.8267716535433071
          },
          {
            "number": 11,
            "time": 34.27141429166665,
            "value": 0.8188976377952756
          },
          {
            "number": 11,
            "time": 34.285699999999984,
            "value": 0.8110236220472441
          },
          {
            "number": 11,
            "time": 34.29998570833332,
            "value": 0.8031496062992126
          },
          {
            "number": 11,
            "time": 34.31427141666665,
            "value": 0.7952755905511811
          },
          {
            "number": 11,
            "time": 34.32855712499998,
            "value": 0.7874015748031497
          },
          {
            "number": 11,
            "time": 34.342842833333314,
            "value": 0.7795275590551181
          },
          {
            "number": 11,
            "time": 34.35712854166665,
            "value": 0.7716535433070866
          },
          {
            "number": 11,
            "time": 34.37141424999998,
            "value": 0.7637795275590551
          },
          {
            "number": 11,
            "time": 34.38569995833331,
            "value": 0.7559055118110236
          },
          {
            "number": 11,
            "time": 34.399985666666645,
            "value": 0.7480314960629921
          },
          {
            "number": 11,
            "time": 34.41427137499998,
            "value": 0.7401574803149606
          },
          {
            "number": 11,
            "time": 34.42855708333331,
            "value": 0.7322834645669292
          },
          {
            "number": 11,
            "time": 34.44284279166664,
            "value": 0.7244094488188977
          },
          {
            "number": 11,
            "time": 34.457128499999975,
            "value": 0.7165354330708661
          },
          {
            "number": 11,
            "time": 34.47141420833331,
            "value": 0.7086614173228346
          },
          {
            "number": 11,
            "time": 34.48569991666664,
            "value": 0.7007874015748031
          },
          {
            "number": 11,
            "time": 34.49998562499997,
            "value": 0.6929133858267716
          },
          {
            "number": 11,
            "time": 34.514271333333305,
            "value": 0.6850393700787402
          },
          {
            "number": 11,
            "time": 34.52855704166664,
            "value": 0.6771653543307087
          },
          {
            "number": 11,
            "time": 34.54284274999997,
            "value": 0.6692913385826772
          },
          {
            "number": 11,
            "time": 34.5571284583333,
            "value": 0.6614173228346457
          },
          {
            "number": 11,
            "time": 34.571414166666635,
            "value": 0.6535433070866141
          },
          {
            "number": 11,
            "time": 34.58569987499997,
            "value": 0.6456692913385826
          },
          {
            "number": 11,
            "time": 34.5999855833333,
            "value": 0.6377952755905512
          },
          {
            "number": 11,
            "time": 34.61427129166663,
            "value": 0.6299212598425197
          },
          {
            "number": 11,
            "time": 34.628556999999965,
            "value": 0.6220472440944882
          },
          {
            "number": 11,
            "time": 34.6428427083333,
            "value": 0.6141732283464567
          },
          {
            "number": 11,
            "time": 34.65712841666663,
            "value": 0.6062992125984252
          },
          {
            "number": 11,
            "time": 34.67141412499996,
            "value": 0.5984251968503937
          },
          {
            "number": 11,
            "time": 34.685699833333295,
            "value": 0.5905511811023622
          },
          {
            "number": 11,
            "time": 34.69998554166663,
            "value": 0.5826771653543307
          },
          {
            "number": 11,
            "time": 34.71427124999996,
            "value": 0.5748031496062992
          },
          {
            "number": 11,
            "time": 34.72855695833329,
            "value": 0.5669291338582677
          },
          {
            "number": 11,
            "time": 34.742842666666625,
            "value": 0.5590551181102362
          },
          {
            "number": 11,
            "time": 34.75712837499996,
            "value": 0.5511811023622047
          },
          {
            "number": 11,
            "time": 34.77141408333329,
            "value": 0.5433070866141733
          },
          {
            "number": 11,
            "time": 34.78569979166662,
            "value": 0.5354330708661418
          },
          {
            "number": 11,
            "time": 34.799985499999956,
            "value": 0.5275590551181102
          },
          {
            "number": 11,
            "time": 34.81427120833329,
            "value": 0.5196850393700787
          },
          {
            "number": 11,
            "time": 34.82855691666662,
            "value": 0.5118110236220472
          },
          {
            "number": 11,
            "time": 34.84284262499995,
            "value": 0.5039370078740157
          },
          {
            "number": 11,
            "time": 34.857128333333286,
            "value": 0.49606299212598426
          },
          {
            "number": 11,
            "time": 34.87141404166662,
            "value": 0.4881889763779528
          },
          {
            "number": 11,
            "time": 34.88569974999995,
            "value": 0.48031496062992124
          },
          {
            "number": 11,
            "time": 34.89998545833328,
            "value": 0.47244094488188976
          },
          {
            "number": 11,
            "time": 34.914271166666616,
            "value": 0.4645669291338583
          },
          {
            "number": 11,
            "time": 34.92855687499995,
            "value": 0.4566929133858268
          },
          {
            "number": 11,
            "time": 34.94284258333328,
            "value": 0.44881889763779526
          },
          {
            "number": 11,
            "time": 34.95712829166661,
            "value": 0.4409448818897638
          },
          {
            "number": 11,
            "time": 34.971413999999946,
            "value": 0.4330708661417323
          },
          {
            "number": 11,
            "time": 34.98569970833328,
            "value": 0.4251968503937008
          },
          {
            "number": 11,
            "time": 34.99998541666661,
            "value": 0.41732283464566927
          },
          {
            "number": 11,
            "time": 35.014271124999944,
            "value": 0.4094488188976378
          },
          {
            "number": 11,
            "time": 35.028556833333276,
            "value": 0.4015748031496063
          },
          {
            "number": 11,
            "time": 35.04284254166661,
            "value": 0.3937007874015748
          },
          {
            "number": 11,
            "time": 35.05712824999994,
            "value": 0.3858267716535433
          },
          {
            "number": 11,
            "time": 35.071413958333274,
            "value": 0.3779527559055118
          },
          {
            "number": 11,
            "time": 35.085699666666606,
            "value": 0.3700787401574803
          },
          {
            "number": 11,
            "time": 35.09998537499994,
            "value": 0.36220472440944884
          },
          {
            "number": 11,
            "time": 35.11427108333327,
            "value": 0.3543307086614173
          },
          {
            "number": 11,
            "time": 35.128556791666604,
            "value": 0.3464566929133858
          },
          {
            "number": 11,
            "time": 35.14284249999994,
            "value": 0.33858267716535434
          },
          {
            "number": 11,
            "time": 35.15712820833327,
            "value": 0.33070866141732286
          },
          {
            "number": 11,
            "time": 35.1714139166666,
            "value": 0.3228346456692913
          },
          {
            "number": 11,
            "time": 35.185699624999934,
            "value": 0.31496062992125984
          },
          {
            "number": 11,
            "time": 35.19998533333327,
            "value": 0.30708661417322836
          },
          {
            "number": 11,
            "time": 35.2142710416666,
            "value": 0.2992125984251969
          },
          {
            "number": 11,
            "time": 35.22855674999993,
            "value": 0.29133858267716534
          },
          {
            "number": 11,
            "time": 35.242842458333264,
            "value": 0.28346456692913385
          },
          {
            "number": 11,
            "time": 35.2571281666666,
            "value": 0.2755905511811024
          },
          {
            "number": 11,
            "time": 35.27141387499993,
            "value": 0.2677165354330709
          },
          {
            "number": 11,
            "time": 35.28569958333326,
            "value": 0.25984251968503935
          },
          {
            "number": 11,
            "time": 35.299985291666594,
            "value": 0.25196850393700787
          },
          {
            "number": 11,
            "time": 35.31427099999993,
            "value": 1
          },
          {
            "number": 11,
            "time": 35.32855670833326,
            "value": 0.9921259842519685
          },
          {
            "number": 11,
            "time": 35.34284241666659,
            "value": 0.984251968503937
          },
          {
            "number": 11,
            "time": 35.357128124999925,
            "value": 0.9763779527559056
          },
          {
            "number": 11,
            "time": 35.37141383333326,
            "value": 0.968503937007874
          },
          {
            "number": 11,
            "time": 35.38569954166659,
            "value": 0.9606299212598425
          },
          {
            "number": 11,
            "time": 35.39998524999992,
            "value": 0.952755905511811
          },
          {
            "number": 11,
            "time": 35.414270958333255,
            "value": 0.9448818897637795
          },
          {
            "number": 11,
            "time": 35.42855666666659,
            "value": 0.937007874015748
          },
          {
            "number": 11,
            "time": 35.44284237499992,
            "value": 0.9291338582677166
          },
          {
            "number": 11,
            "time": 35.45712808333325,
            "value": 0.9212598425196851
          },
          {
            "number": 11,
            "time": 35.471413791666585,
            "value": 0.9133858267716536
          },
          {
            "number": 11,
            "time": 35.48569949999992,
            "value": 0.905511811023622
          },
          {
            "number": 11,
            "time": 35.49998520833325,
            "value": 0.8976377952755905
          },
          {
            "number": 11,
            "time": 35.51427091666658,
            "value": 0.889763779527559
          },
          {
            "number": 11,
            "time": 35.528556624999915,
            "value": 0.8818897637795275
          },
          {
            "number": 11,
            "time": 35.54284233333325,
            "value": 0.8740157480314961
          },
          {
            "number": 11,
            "time": 35.55712804166658,
            "value": 0.8661417322834646
          },
          {
            "number": 11,
            "time": 35.57141374999991,
            "value": 0.8582677165354331
          },
          {
            "number": 11,
            "time": 35.585699458333245,
            "value": 0.8503937007874016
          },
          {
            "number": 11,
            "time": 35.59998516666658,
            "value": 0.84251968503937
          },
          {
            "number": 11,
            "time": 35.61427087499991,
            "value": 0.8346456692913385
          },
          {
            "number": 11,
            "time": 35.62855658333324,
            "value": 0.8267716535433071
          },
          {
            "number": 11,
            "time": 35.642842291666575,
            "value": 0.8188976377952756
          },
          {
            "number": 11,
            "time": 35.65712799999991,
            "value": 0.8110236220472441
          },
          {
            "number": 11,
            "time": 35.67141370833324,
            "value": 0.8031496062992126
          },
          {
            "number": 11,
            "time": 35.68569941666657,
            "value": 0.7952755905511811
          },
          {
            "number": 11,
            "time": 35.699985124999905,
            "value": 0.7874015748031497
          },
          {
            "number": 11,
            "time": 35.71427083333324,
            "value": 0.7795275590551181
          },
          {
            "number": 11,
            "time": 35.72855654166657,
            "value": 0.7716535433070866
          },
          {
            "number": 11,
            "time": 35.7428422499999,
            "value": 0.7637795275590551
          },
          {
            "number": 11,
            "time": 35.757127958333236,
            "value": 0.7559055118110236
          },
          {
            "number": 11,
            "time": 35.77141366666657,
            "value": 0.7480314960629921
          },
          {
            "number": 11,
            "time": 35.7856993749999,
            "value": 0.7401574803149606
          },
          {
            "number": 11,
            "time": 35.79998508333323,
            "value": 0.7322834645669292
          },
          {
            "number": 11,
            "time": 35.814270791666566,
            "value": 0.7244094488188977
          },
          {
            "number": 11,
            "time": 35.8285564999999,
            "value": 0.7165354330708661
          },
          {
            "number": 11,
            "time": 35.84284220833323,
            "value": 0.7086614173228346
          },
          {
            "number": 11,
            "time": 35.85712791666656,
            "value": 0.7007874015748031
          },
          {
            "number": 11,
            "time": 35.871413624999896,
            "value": 0.6929133858267716
          },
          {
            "number": 11,
            "time": 35.88569933333323,
            "value": 0.6850393700787402
          },
          {
            "number": 11,
            "time": 35.89998504166656,
            "value": 0.6771653543307087
          },
          {
            "number": 11,
            "time": 35.91427074999989,
            "value": 0.6692913385826772
          },
          {
            "number": 11,
            "time": 35.928556458333226,
            "value": 0.6614173228346457
          },
          {
            "number": 11,
            "time": 35.94284216666656,
            "value": 0.6535433070866141
          },
          {
            "number": 11,
            "time": 35.95712787499989,
            "value": 0.6456692913385826
          },
          {
            "number": 11,
            "time": 35.971413583333224,
            "value": 0.6377952755905512
          },
          {
            "number": 11,
            "time": 35.985699291666556,
            "value": 0.6299212598425197
          },
          {
            "number": 11,
            "time": 35.99998499999989,
            "value": 0.6220472440944882
          },
          {
            "number": 11,
            "time": 36.01427070833322,
            "value": 0.6141732283464567
          },
          {
            "number": 11,
            "time": 36.028556416666554,
            "value": 0.6062992125984252
          },
          {
            "number": 11,
            "time": 36.042842124999886,
            "value": 0.5984251968503937
          },
          {
            "number": 11,
            "time": 36.05712783333322,
            "value": 0.5905511811023622
          },
          {
            "number": 11,
            "time": 36.07141354166655,
            "value": 0.5826771653543307
          },
          {
            "number": 11,
            "time": 36.085699249999884,
            "value": 0.5748031496062992
          },
          {
            "number": 11,
            "time": 36.099984958333216,
            "value": 0.5669291338582677
          },
          {
            "number": 11,
            "time": 36.11427066666655,
            "value": 0.5590551181102362
          },
          {
            "number": 11,
            "time": 36.12855637499988,
            "value": 0.5511811023622047
          },
          {
            "number": 11,
            "time": 36.142842083333214,
            "value": 0.5433070866141733
          },
          {
            "number": 11,
            "time": 36.15712779166655,
            "value": 0.5354330708661418
          },
          {
            "number": 11,
            "time": 36.17141349999988,
            "value": 0.5275590551181102
          },
          {
            "number": 11,
            "time": 36.18569920833321,
            "value": 0.5196850393700787
          },
          {
            "number": 11,
            "time": 36.199984916666544,
            "value": 0.5118110236220472
          },
          {
            "number": 11,
            "time": 36.21427062499988,
            "value": 0.5039370078740157
          },
          {
            "number": 11,
            "time": 36.22855633333321,
            "value": 0.49606299212598426
          },
          {
            "number": 11,
            "time": 36.24284204166654,
            "value": 0.4881889763779528
          },
          {
            "number": 11,
            "time": 36.257127749999874,
            "value": 0.48031496062992124
          },
          {
            "number": 11,
            "time": 36.27141345833321,
            "value": 0.47244094488188976
          },
          {
            "number": 11,
            "time": 36.28569916666654,
            "value": 0.4645669291338583
          },
          {
            "number": 11,
            "time": 36.29998487499987,
            "value": 0.4566929133858268
          },
          {
            "number": 11,
            "time": 36.314270583333204,
            "value": 0.44881889763779526
          },
          {
            "number": 11,
            "time": 36.32855629166654,
            "value": 0.4409448818897638
          },
          {
            "number": 11,
            "time": 36.34284199999987,
            "value": 0.4330708661417323
          },
          {
            "number": 11,
            "time": 36.3571277083332,
            "value": 0.4251968503937008
          },
          {
            "number": 11,
            "time": 36.371413416666535,
            "value": 0.41732283464566927
          },
          {
            "number": 11,
            "time": 36.38569912499987,
            "value": 0.4094488188976378
          },
          {
            "number": 11,
            "time": 36.3999848333332,
            "value": 0.4015748031496063
          },
          {
            "number": 11,
            "time": 36.41427054166653,
            "value": 0.3937007874015748
          },
          {
            "number": 11,
            "time": 36.428556249999865,
            "value": 0.3858267716535433
          },
          {
            "number": 11,
            "time": 36.4428419583332,
            "value": 0.3779527559055118
          },
          {
            "number": 11,
            "time": 36.45712766666653,
            "value": 0.3700787401574803
          },
          {
            "number": 11,
            "time": 36.47141337499986,
            "value": 0.36220472440944884
          },
          {
            "number": 11,
            "time": 36.485699083333195,
            "value": 0.3543307086614173
          },
          {
            "number": 11,
            "time": 36.49998479166653,
            "value": 0.3464566929133858
          },
          {
            "number": 11,
            "time": 36.51427049999986,
            "value": 0.33858267716535434
          },
          {
            "number": 11,
            "time": 36.52855620833319,
            "value": 0.33070866141732286
          },
          {
            "number": 11,
            "time": 36.542841916666525,
            "value": 0.3228346456692913
          },
          {
            "number": 11,
            "time": 36.55712762499986,
            "value": 0.31496062992125984
          },
          {
            "number": 11,
            "time": 36.57141333333319,
            "value": 0.30708661417322836
          },
          {
            "number": 11,
            "time": 36.58569904166652,
            "value": 0.2992125984251969
          },
          {
            "number": 11,
            "time": 36.599984749999855,
            "value": 0.29133858267716534
          },
          {
            "number": 11,
            "time": 36.61427045833319,
            "value": 0.28346456692913385
          },
          {
            "number": 11,
            "time": 36.62855616666652,
            "value": 0.2755905511811024
          },
          {
            "number": 11,
            "time": 36.64284187499985,
            "value": 0.2677165354330709
          },
          {
            "number": 11,
            "time": 36.657127583333185,
            "value": 0.25984251968503935
          },
          {
            "number": 11,
            "time": 36.67141329166652,
            "value": 0.25196850393700787
          },
          {
            "number": 11,
            "time": 36.76427039583319,
            "value": 1
          },
          {
            "number": 11,
            "time": 44.91426699999985,
            "value": 1
          },
          {
            "number": 11,
            "time": 44.95712412499985,
            "value": 0.9921259842519685
          },
          {
            "number": 11,
            "time": 44.985695541666516,
            "value": 0.984251968503937
          },
          {
            "number": 11,
            "time": 45.01426695833318,
            "value": 0.9763779527559056
          },
          {
            "number": 11,
            "time": 45.042838374999846,
            "value": 0.968503937007874
          },
          {
            "number": 11,
            "time": 45.07140979166651,
            "value": 0.9606299212598425
          },
          {
            "number": 11,
            "time": 45.099981208333176,
            "value": 0.952755905511811
          },
          {
            "number": 11,
            "time": 45.12855262499984,
            "value": 0.9448818897637795
          },
          {
            "number": 11,
            "time": 45.157124041666506,
            "value": 0.937007874015748
          },
          {
            "number": 11,
            "time": 45.18569545833317,
            "value": 0.9291338582677166
          },
          {
            "number": 11,
            "time": 45.214266874999836,
            "value": 0.9212598425196851
          },
          {
            "number": 11,
            "time": 45.2428382916665,
            "value": 0.9133858267716536
          },
          {
            "number": 11,
            "time": 45.27140970833317,
            "value": 0.905511811023622
          },
          {
            "number": 11,
            "time": 45.29998112499983,
            "value": 0.8976377952755905
          },
          {
            "number": 11,
            "time": 45.3285525416665,
            "value": 0.889763779527559
          },
          {
            "number": 11,
            "time": 45.35712395833316,
            "value": 0.8818897637795275
          },
          {
            "number": 11,
            "time": 45.38569537499983,
            "value": 0.8740157480314961
          },
          {
            "number": 11,
            "time": 45.41426679166649,
            "value": 0.8661417322834646
          },
          {
            "number": 11,
            "time": 45.44283820833316,
            "value": 0.8582677165354331
          },
          {
            "number": 11,
            "time": 45.47140962499982,
            "value": 0.8503937007874016
          },
          {
            "number": 11,
            "time": 45.49998104166649,
            "value": 0.84251968503937
          },
          {
            "number": 11,
            "time": 45.52855245833315,
            "value": 0.8346456692913385
          },
          {
            "number": 11,
            "time": 45.55712387499982,
            "value": 0.8267716535433071
          },
          {
            "number": 11,
            "time": 45.58569529166648,
            "value": 0.8188976377952756
          },
          {
            "number": 11,
            "time": 45.61426670833315,
            "value": 0.8110236220472441
          },
          {
            "number": 11,
            "time": 45.64283812499981,
            "value": 0.8031496062992126
          },
          {
            "number": 11,
            "time": 45.67140954166648,
            "value": 0.7952755905511811
          },
          {
            "number": 11,
            "time": 45.69998095833314,
            "value": 0.7874015748031497
          },
          {
            "number": 11,
            "time": 45.72855237499981,
            "value": 0.7795275590551181
          },
          {
            "number": 11,
            "time": 45.75712379166647,
            "value": 0.7716535433070866
          },
          {
            "number": 11,
            "time": 45.78569520833314,
            "value": 0.7637795275590551
          },
          {
            "number": 11,
            "time": 45.8142666249998,
            "value": 0.7559055118110236
          },
          {
            "number": 11,
            "time": 45.84283804166647,
            "value": 0.7480314960629921
          },
          {
            "number": 11,
            "time": 45.87140945833313,
            "value": 0.7401574803149606
          },
          {
            "number": 11,
            "time": 45.8999808749998,
            "value": 0.7322834645669292
          },
          {
            "number": 11,
            "time": 45.92855229166646,
            "value": 0.7244094488188977
          },
          {
            "number": 11,
            "time": 45.95712370833313,
            "value": 0.7165354330708661
          },
          {
            "number": 11,
            "time": 45.98569512499979,
            "value": 0.7086614173228346
          },
          {
            "number": 11,
            "time": 46.01426654166646,
            "value": 0.7007874015748031
          },
          {
            "number": 11,
            "time": 46.04283795833312,
            "value": 0.6929133858267716
          },
          {
            "number": 11,
            "time": 46.07140937499979,
            "value": 0.6850393700787402
          },
          {
            "number": 11,
            "time": 46.099980791666454,
            "value": 0.6771653543307087
          },
          {
            "number": 11,
            "time": 46.12855220833312,
            "value": 0.6692913385826772
          },
          {
            "number": 11,
            "time": 46.157123624999784,
            "value": 0.6614173228346457
          },
          {
            "number": 11,
            "time": 46.18569504166645,
            "value": 0.6535433070866141
          },
          {
            "number": 11,
            "time": 46.214266458333114,
            "value": 0.6456692913385826
          },
          {
            "number": 11,
            "time": 46.24283787499978,
            "value": 0.6377952755905512
          },
          {
            "number": 11,
            "time": 46.271409291666444,
            "value": 0.6299212598425197
          },
          {
            "number": 11,
            "time": 46.29998070833311,
            "value": 0.6220472440944882
          },
          {
            "number": 11,
            "time": 46.328552124999774,
            "value": 0.6141732283464567
          },
          {
            "number": 11,
            "time": 46.35712354166644,
            "value": 0.6062992125984252
          },
          {
            "number": 11,
            "time": 46.385694958333104,
            "value": 0.5984251968503937
          },
          {
            "number": 11,
            "time": 46.41426637499977,
            "value": 0.5905511811023622
          },
          {
            "number": 11,
            "time": 46.442837791666435,
            "value": 0.5826771653543307
          },
          {
            "number": 11,
            "time": 46.4714092083331,
            "value": 0.5748031496062992
          },
          {
            "number": 11,
            "time": 46.499980624999765,
            "value": 0.5669291338582677
          },
          {
            "number": 11,
            "time": 46.52855204166643,
            "value": 0.5590551181102362
          },
          {
            "number": 11,
            "time": 46.557123458333095,
            "value": 0.5511811023622047
          },
          {
            "number": 11,
            "time": 46.58569487499976,
            "value": 0.5433070866141733
          },
          {
            "number": 11,
            "time": 46.614266291666425,
            "value": 0.5354330708661418
          },
          {
            "number": 11,
            "time": 46.64283770833309,
            "value": 0.5275590551181102
          },
          {
            "number": 11,
            "time": 46.671409124999755,
            "value": 0.5196850393700787
          },
          {
            "number": 11,
            "time": 46.69998054166642,
            "value": 0.5118110236220472
          },
          {
            "number": 11,
            "time": 46.728551958333085,
            "value": 0.5039370078740157
          },
          {
            "number": 11,
            "time": 46.75712337499975,
            "value": 0.49606299212598426
          },
          {
            "number": 11,
            "time": 46.785694791666415,
            "value": 0.4881889763779528
          },
          {
            "number": 11,
            "time": 46.81426620833308,
            "value": 0.48031496062992124
          },
          {
            "number": 11,
            "time": 46.842837624999746,
            "value": 0.47244094488188976
          },
          {
            "number": 11,
            "time": 46.87140904166641,
            "value": 0.4645669291338583
          },
          {
            "number": 11,
            "time": 46.899980458333076,
            "value": 0.4566929133858268
          },
          {
            "number": 11,
            "time": 46.92855187499974,
            "value": 0.44881889763779526
          },
          {
            "number": 11,
            "time": 46.957123291666406,
            "value": 0.4409448818897638
          },
          {
            "number": 11,
            "time": 46.98569470833307,
            "value": 0.4330708661417323
          },
          {
            "number": 11,
            "time": 47.014266124999736,
            "value": 0.4251968503937008
          },
          {
            "number": 11,
            "time": 47.0428375416664,
            "value": 0.41732283464566927
          },
          {
            "number": 11,
            "time": 47.071408958333066,
            "value": 0.4094488188976378
          },
          {
            "number": 11,
            "time": 47.09998037499973,
            "value": 0.4015748031496063
          },
          {
            "number": 11,
            "time": 47.128551791666396,
            "value": 0.3937007874015748
          },
          {
            "number": 11,
            "time": 47.15712320833306,
            "value": 0.3858267716535433
          },
          {
            "number": 11,
            "time": 47.185694624999726,
            "value": 0.3779527559055118
          },
          {
            "number": 11,
            "time": 47.21426604166639,
            "value": 0.3700787401574803
          },
          {
            "number": 11,
            "time": 47.24283745833306,
            "value": 0.36220472440944884
          },
          {
            "number": 11,
            "time": 47.27140887499972,
            "value": 0.3543307086614173
          },
          {
            "number": 11,
            "time": 47.29998029166639,
            "value": 0.3464566929133858
          },
          {
            "number": 11,
            "time": 47.32855170833305,
            "value": 0.33858267716535434
          },
          {
            "number": 11,
            "time": 47.35712312499972,
            "value": 0.33070866141732286
          },
          {
            "number": 11,
            "time": 47.38569454166638,
            "value": 0.3228346456692913
          },
          {
            "number": 11,
            "time": 47.41426595833305,
            "value": 0.31496062992125984
          },
          {
            "number": 11,
            "time": 47.44283737499971,
            "value": 0.30708661417322836
          },
          {
            "number": 11,
            "time": 47.47140879166638,
            "value": 0.2992125984251969
          },
          {
            "number": 11,
            "time": 47.49998020833304,
            "value": 0.29133858267716534
          },
          {
            "number": 11,
            "time": 47.52855162499971,
            "value": 0.28346456692913385
          },
          {
            "number": 11,
            "time": 47.55712304166637,
            "value": 0.2755905511811024
          },
          {
            "number": 11,
            "time": 47.58569445833304,
            "value": 0.2677165354330709
          },
          {
            "number": 11,
            "time": 47.6142658749997,
            "value": 0.25984251968503935
          },
          {
            "number": 11,
            "time": 47.64283729166637,
            "value": 0.25196850393700787
          },
          {
            "number": 11,
            "time": 47.6571229999997,
            "value": 1
          },
          {
            "number": 11,
            "time": 47.6999801249997,
            "value": 0.9921259842519685
          },
          {
            "number": 11,
            "time": 47.72855154166636,
            "value": 0.984251968503937
          },
          {
            "number": 11,
            "time": 47.75712295833303,
            "value": 0.9763779527559056
          },
          {
            "number": 11,
            "time": 47.78569437499969,
            "value": 0.968503937007874
          },
          {
            "number": 11,
            "time": 47.81426579166636,
            "value": 0.9606299212598425
          },
          {
            "number": 11,
            "time": 47.84283720833302,
            "value": 0.952755905511811
          },
          {
            "number": 11,
            "time": 47.87140862499969,
            "value": 0.9448818897637795
          },
          {
            "number": 11,
            "time": 47.89998004166635,
            "value": 0.937007874015748
          },
          {
            "number": 11,
            "time": 47.92855145833302,
            "value": 0.9291338582677166
          },
          {
            "number": 11,
            "time": 47.95712287499968,
            "value": 0.9212598425196851
          },
          {
            "number": 11,
            "time": 47.98569429166635,
            "value": 0.9133858267716536
          },
          {
            "number": 11,
            "time": 48.01426570833301,
            "value": 0.905511811023622
          },
          {
            "number": 11,
            "time": 48.04283712499968,
            "value": 0.8976377952755905
          },
          {
            "number": 11,
            "time": 48.071408541666344,
            "value": 0.889763779527559
          },
          {
            "number": 11,
            "time": 48.09997995833301,
            "value": 0.8818897637795275
          },
          {
            "number": 11,
            "time": 48.128551374999674,
            "value": 0.8740157480314961
          },
          {
            "number": 11,
            "time": 48.15712279166634,
            "value": 0.8661417322834646
          },
          {
            "number": 11,
            "time": 48.185694208333004,
            "value": 0.8582677165354331
          },
          {
            "number": 11,
            "time": 48.21426562499967,
            "value": 0.8503937007874016
          },
          {
            "number": 11,
            "time": 48.242837041666334,
            "value": 0.84251968503937
          },
          {
            "number": 11,
            "time": 48.271408458333,
            "value": 0.8346456692913385
          },
          {
            "number": 11,
            "time": 48.299979874999664,
            "value": 0.8267716535433071
          },
          {
            "number": 11,
            "time": 48.32855129166633,
            "value": 0.8188976377952756
          },
          {
            "number": 11,
            "time": 48.357122708332994,
            "value": 0.8110236220472441
          },
          {
            "number": 11,
            "time": 48.38569412499966,
            "value": 0.8031496062992126
          },
          {
            "number": 11,
            "time": 48.414265541666325,
            "value": 0.7952755905511811
          },
          {
            "number": 11,
            "time": 48.44283695833299,
            "value": 0.7874015748031497
          },
          {
            "number": 11,
            "time": 48.471408374999655,
            "value": 0.7795275590551181
          },
          {
            "number": 11,
            "time": 48.49997979166632,
            "value": 0.7716535433070866
          },
          {
            "number": 11,
            "time": 48.528551208332985,
            "value": 0.7637795275590551
          },
          {
            "number": 11,
            "time": 48.55712262499965,
            "value": 0.7559055118110236
          },
          {
            "number": 11,
            "time": 48.585694041666315,
            "value": 0.7480314960629921
          },
          {
            "number": 11,
            "time": 48.61426545833298,
            "value": 0.7401574803149606
          },
          {
            "number": 11,
            "time": 48.642836874999645,
            "value": 0.7322834645669292
          },
          {
            "number": 11,
            "time": 48.67140829166631,
            "value": 0.7244094488188977
          },
          {
            "number": 11,
            "time": 48.699979708332975,
            "value": 0.7165354330708661
          },
          {
            "number": 11,
            "time": 48.72855112499964,
            "value": 0.7086614173228346
          },
          {
            "number": 11,
            "time": 48.757122541666305,
            "value": 0.7007874015748031
          },
          {
            "number": 11,
            "time": 48.78569395833297,
            "value": 0.6929133858267716
          },
          {
            "number": 11,
            "time": 48.814265374999636,
            "value": 0.6850393700787402
          },
          {
            "number": 11,
            "time": 48.8428367916663,
            "value": 0.6771653543307087
          },
          {
            "number": 11,
            "time": 48.871408208332966,
            "value": 0.6692913385826772
          },
          {
            "number": 11,
            "time": 48.89997962499963,
            "value": 0.6614173228346457
          },
          {
            "number": 11,
            "time": 48.928551041666296,
            "value": 0.6535433070866141
          },
          {
            "number": 11,
            "time": 48.95712245833296,
            "value": 0.6456692913385826
          },
          {
            "number": 11,
            "time": 48.985693874999626,
            "value": 0.6377952755905512
          },
          {
            "number": 11,
            "time": 49.01426529166629,
            "value": 0.6299212598425197
          },
          {
            "number": 11,
            "time": 49.042836708332956,
            "value": 0.6220472440944882
          },
          {
            "number": 11,
            "time": 49.07140812499962,
            "value": 0.6141732283464567
          },
          {
            "number": 11,
            "time": 49.099979541666286,
            "value": 0.6062992125984252
          },
          {
            "number": 11,
            "time": 49.12855095833295,
            "value": 0.5984251968503937
          },
          {
            "number": 11,
            "time": 49.15712237499962,
            "value": 0.5905511811023622
          },
          {
            "number": 11,
            "time": 49.18569379166628,
            "value": 0.5826771653543307
          },
          {
            "number": 11,
            "time": 49.21426520833295,
            "value": 0.5748031496062992
          },
          {
            "number": 11,
            "time": 49.24283662499961,
            "value": 0.5669291338582677
          },
          {
            "number": 11,
            "time": 49.27140804166628,
            "value": 0.5590551181102362
          },
          {
            "number": 11,
            "time": 49.29997945833294,
            "value": 0.5511811023622047
          },
          {
            "number": 11,
            "time": 49.32855087499961,
            "value": 0.5433070866141733
          },
          {
            "number": 11,
            "time": 49.35712229166627,
            "value": 0.5354330708661418
          },
          {
            "number": 11,
            "time": 49.38569370833294,
            "value": 0.5275590551181102
          },
          {
            "number": 11,
            "time": 49.4142651249996,
            "value": 0.5196850393700787
          },
          {
            "number": 11,
            "time": 49.44283654166627,
            "value": 0.5118110236220472
          },
          {
            "number": 11,
            "time": 49.47140795833293,
            "value": 0.5039370078740157
          },
          {
            "number": 11,
            "time": 49.4999793749996,
            "value": 0.49606299212598426
          },
          {
            "number": 11,
            "time": 49.52855079166626,
            "value": 0.4881889763779528
          },
          {
            "number": 11,
            "time": 49.55712220833293,
            "value": 0.48031496062992124
          },
          {
            "number": 11,
            "time": 49.58569362499959,
            "value": 0.47244094488188976
          },
          {
            "number": 11,
            "time": 49.61426504166626,
            "value": 0.4645669291338583
          },
          {
            "number": 11,
            "time": 49.64283645833292,
            "value": 0.4566929133858268
          },
          {
            "number": 11,
            "time": 49.67140787499959,
            "value": 0.44881889763779526
          },
          {
            "number": 11,
            "time": 49.69997929166625,
            "value": 0.4409448818897638
          },
          {
            "number": 11,
            "time": 49.72855070833292,
            "value": 0.4330708661417323
          },
          {
            "number": 11,
            "time": 49.75712212499958,
            "value": 0.4251968503937008
          },
          {
            "number": 11,
            "time": 49.78569354166625,
            "value": 0.41732283464566927
          },
          {
            "number": 11,
            "time": 49.81426495833291,
            "value": 0.4094488188976378
          },
          {
            "number": 11,
            "time": 49.84283637499958,
            "value": 0.4015748031496063
          },
          {
            "number": 11,
            "time": 49.87140779166624,
            "value": 0.3937007874015748
          },
          {
            "number": 11,
            "time": 49.89997920833291,
            "value": 0.3858267716535433
          },
          {
            "number": 11,
            "time": 49.92855062499957,
            "value": 0.3779527559055118
          },
          {
            "number": 11,
            "time": 49.95712204166624,
            "value": 0.3700787401574803
          },
          {
            "number": 11,
            "time": 49.985693458332904,
            "value": 0.36220472440944884
          },
          {
            "number": 11,
            "time": 50.01426487499957,
            "value": 0.3543307086614173
          },
          {
            "number": 11,
            "time": 50.042836291666234,
            "value": 0.3464566929133858
          },
          {
            "number": 11,
            "time": 50.0714077083329,
            "value": 0.33858267716535434
          },
          {
            "number": 11,
            "time": 50.099979124999564,
            "value": 0.33070866141732286
          },
          {
            "number": 11,
            "time": 50.12855054166623,
            "value": 0.3228346456692913
          },
          {
            "number": 11,
            "time": 50.157121958332894,
            "value": 0.31496062992125984
          },
          {
            "number": 11,
            "time": 50.18569337499956,
            "value": 0.30708661417322836
          },
          {
            "number": 11,
            "time": 50.214264791666224,
            "value": 0.2992125984251969
          },
          {
            "number": 11,
            "time": 50.24283620833289,
            "value": 0.29133858267716534
          },
          {
            "number": 11,
            "time": 50.271407624999554,
            "value": 0.28346456692913385
          },
          {
            "number": 11,
            "time": 50.29997904166622,
            "value": 0.2755905511811024
          },
          {
            "number": 11,
            "time": 50.328550458332884,
            "value": 0.2677165354330709
          },
          {
            "number": 11,
            "time": 50.35712187499955,
            "value": 0.25984251968503935
          },
          {
            "number": 11,
            "time": 50.385693291666215,
            "value": 0.25196850393700787
          },
          {
            "number": 11,
            "time": 50.39997899999955,
            "value": 1
          },
          {
            "number": 11,
            "time": 50.442836124999545,
            "value": 0.9921259842519685
          },
          {
            "number": 11,
            "time": 50.47140754166621,
            "value": 0.984251968503937
          },
          {
            "number": 11,
            "time": 50.499978958332875,
            "value": 0.9763779527559056
          },
          {
            "number": 11,
            "time": 50.52855037499954,
            "value": 0.968503937007874
          },
          {
            "number": 11,
            "time": 50.557121791666205,
            "value": 0.9606299212598425
          },
          {
            "number": 11,
            "time": 50.58569320833287,
            "value": 0.952755905511811
          },
          {
            "number": 11,
            "time": 50.614264624999535,
            "value": 0.9448818897637795
          },
          {
            "number": 11,
            "time": 50.6428360416662,
            "value": 0.937007874015748
          },
          {
            "number": 11,
            "time": 50.671407458332865,
            "value": 0.9291338582677166
          },
          {
            "number": 11,
            "time": 50.69997887499953,
            "value": 0.9212598425196851
          },
          {
            "number": 11,
            "time": 50.728550291666195,
            "value": 0.9133858267716536
          },
          {
            "number": 11,
            "time": 50.75712170833286,
            "value": 0.905511811023622
          },
          {
            "number": 11,
            "time": 50.785693124999526,
            "value": 0.8976377952755905
          },
          {
            "number": 11,
            "time": 50.81426454166619,
            "value": 0.889763779527559
          },
          {
            "number": 11,
            "time": 50.842835958332856,
            "value": 0.8818897637795275
          },
          {
            "number": 11,
            "time": 50.87140737499952,
            "value": 0.8740157480314961
          },
          {
            "number": 11,
            "time": 50.899978791666186,
            "value": 0.8661417322834646
          },
          {
            "number": 11,
            "time": 50.92855020833285,
            "value": 0.8582677165354331
          },
          {
            "number": 11,
            "time": 50.957121624999516,
            "value": 0.8503937007874016
          },
          {
            "number": 11,
            "time": 50.98569304166618,
            "value": 0.84251968503937
          },
          {
            "number": 11,
            "time": 51.014264458332846,
            "value": 0.8346456692913385
          },
          {
            "number": 11,
            "time": 51.04283587499951,
            "value": 0.8267716535433071
          },
          {
            "number": 11,
            "time": 51.071407291666176,
            "value": 0.8188976377952756
          },
          {
            "number": 11,
            "time": 51.09997870833284,
            "value": 0.8110236220472441
          },
          {
            "number": 11,
            "time": 51.12855012499951,
            "value": 0.8031496062992126
          },
          {
            "number": 11,
            "time": 51.15712154166617,
            "value": 0.7952755905511811
          },
          {
            "number": 11,
            "time": 51.18569295833284,
            "value": 0.7874015748031497
          },
          {
            "number": 11,
            "time": 51.2142643749995,
            "value": 0.7795275590551181
          },
          {
            "number": 11,
            "time": 51.24283579166617,
            "value": 0.7716535433070866
          },
          {
            "number": 11,
            "time": 51.27140720833283,
            "value": 0.7637795275590551
          },
          {
            "number": 11,
            "time": 51.2999786249995,
            "value": 0.7559055118110236
          },
          {
            "number": 11,
            "time": 51.32855004166616,
            "value": 0.7480314960629921
          },
          {
            "number": 11,
            "time": 51.35712145833283,
            "value": 0.7401574803149606
          },
          {
            "number": 11,
            "time": 51.38569287499949,
            "value": 0.7322834645669292
          },
          {
            "number": 11,
            "time": 51.41426429166616,
            "value": 0.7244094488188977
          },
          {
            "number": 11,
            "time": 51.44283570833282,
            "value": 0.7165354330708661
          },
          {
            "number": 11,
            "time": 51.47140712499949,
            "value": 0.7086614173228346
          },
          {
            "number": 11,
            "time": 51.49997854166615,
            "value": 0.7007874015748031
          },
          {
            "number": 11,
            "time": 51.52854995833282,
            "value": 0.6929133858267716
          },
          {
            "number": 11,
            "time": 51.55712137499948,
            "value": 0.6850393700787402
          },
          {
            "number": 11,
            "time": 51.58569279166615,
            "value": 0.6771653543307087
          },
          {
            "number": 11,
            "time": 51.61426420833281,
            "value": 0.6692913385826772
          },
          {
            "number": 11,
            "time": 51.64283562499948,
            "value": 0.6614173228346457
          },
          {
            "number": 11,
            "time": 51.67140704166614,
            "value": 0.6535433070866141
          },
          {
            "number": 11,
            "time": 51.69997845833281,
            "value": 0.6456692913385826
          },
          {
            "number": 11,
            "time": 51.72854987499947,
            "value": 0.6377952755905512
          },
          {
            "number": 11,
            "time": 51.75712129166614,
            "value": 0.6299212598425197
          },
          {
            "number": 11,
            "time": 51.7856927083328,
            "value": 0.6220472440944882
          },
          {
            "number": 11,
            "time": 51.81426412499947,
            "value": 0.6141732283464567
          },
          {
            "number": 11,
            "time": 51.84283554166613,
            "value": 0.6062992125984252
          },
          {
            "number": 11,
            "time": 51.8714069583328,
            "value": 0.5984251968503937
          },
          {
            "number": 11,
            "time": 51.89997837499946,
            "value": 0.5905511811023622
          },
          {
            "number": 11,
            "time": 51.92854979166613,
            "value": 0.5826771653543307
          },
          {
            "number": 11,
            "time": 51.957121208332794,
            "value": 0.5748031496062992
          },
          {
            "number": 11,
            "time": 51.98569262499946,
            "value": 0.5669291338582677
          },
          {
            "number": 11,
            "time": 52.014264041666124,
            "value": 0.5590551181102362
          },
          {
            "number": 11,
            "time": 52.04283545833279,
            "value": 0.5511811023622047
          },
          {
            "number": 11,
            "time": 52.071406874999454,
            "value": 0.5433070866141733
          },
          {
            "number": 11,
            "time": 52.09997829166612,
            "value": 0.5354330708661418
          },
          {
            "number": 11,
            "time": 52.128549708332784,
            "value": 0.5275590551181102
          },
          {
            "number": 11,
            "time": 52.15712112499945,
            "value": 0.5196850393700787
          },
          {
            "number": 11,
            "time": 52.185692541666114,
            "value": 0.5118110236220472
          },
          {
            "number": 11,
            "time": 52.21426395833278,
            "value": 0.5039370078740157
          },
          {
            "number": 11,
            "time": 52.242835374999444,
            "value": 0.49606299212598426
          },
          {
            "number": 11,
            "time": 52.27140679166611,
            "value": 0.4881889763779528
          },
          {
            "number": 11,
            "time": 52.299978208332774,
            "value": 0.48031496062992124
          },
          {
            "number": 11,
            "time": 52.32854962499944,
            "value": 0.47244094488188976
          },
          {
            "number": 11,
            "time": 52.357121041666105,
            "value": 0.4645669291338583
          },
          {
            "number": 11,
            "time": 52.38569245833277,
            "value": 0.4566929133858268
          },
          {
            "number": 11,
            "time": 52.414263874999435,
            "value": 0.44881889763779526
          },
          {
            "number": 11,
            "time": 52.4428352916661,
            "value": 0.4409448818897638
          },
          {
            "number": 11,
            "time": 52.471406708332765,
            "value": 0.4330708661417323
          },
          {
            "number": 11,
            "time": 52.49997812499943,
            "value": 0.4251968503937008
          },
          {
            "number": 11,
            "time": 52.528549541666095,
            "value": 0.41732283464566927
          },
          {
            "number": 11,
            "time": 52.55712095833276,
            "value": 0.4094488188976378
          },
          {
            "number": 11,
            "time": 52.585692374999425,
            "value": 0.4015748031496063
          },
          {
            "number": 11,
            "time": 52.61426379166609,
            "value": 0.3937007874015748
          },
          {
            "number": 11,
            "time": 52.642835208332755,
            "value": 0.3858267716535433
          },
          {
            "number": 11,
            "time": 52.67140662499942,
            "value": 0.3779527559055118
          },
          {
            "number": 11,
            "time": 52.699978041666085,
            "value": 0.3700787401574803
          },
          {
            "number": 11,
            "time": 52.72854945833275,
            "value": 0.36220472440944884
          },
          {
            "number": 11,
            "time": 52.757120874999416,
            "value": 0.3543307086614173
          },
          {
            "number": 11,
            "time": 52.78569229166608,
            "value": 0.3464566929133858
          },
          {
            "number": 11,
            "time": 52.814263708332746,
            "value": 0.33858267716535434
          },
          {
            "number": 11,
            "time": 52.84283512499941,
            "value": 0.33070866141732286
          },
          {
            "number": 11,
            "time": 52.871406541666076,
            "value": 0.3228346456692913
          },
          {
            "number": 11,
            "time": 52.89997795833274,
            "value": 0.31496062992125984
          },
          {
            "number": 11,
            "time": 52.928549374999406,
            "value": 0.30708661417322836
          },
          {
            "number": 11,
            "time": 52.95712079166607,
            "value": 0.2992125984251969
          },
          {
            "number": 11,
            "time": 52.985692208332736,
            "value": 0.29133858267716534
          },
          {
            "number": 11,
            "time": 53.0142636249994,
            "value": 0.28346456692913385
          },
          {
            "number": 11,
            "time": 53.042835041666066,
            "value": 0.2755905511811024
          },
          {
            "number": 11,
            "time": 53.07140645833273,
            "value": 0.2677165354330709
          },
          {
            "number": 11,
            "time": 53.0999778749994,
            "value": 0.25984251968503935
          },
          {
            "number": 11,
            "time": 53.12854929166606,
            "value": 0.25196850393700787
          },
          {
            "number": 11,
            "time": 53.142834999999394,
            "value": 1
          },
          {
            "number": 11,
            "time": 53.18569212499939,
            "value": 0.9921259842519685
          },
          {
            "number": 11,
            "time": 53.21426354166606,
            "value": 0.984251968503937
          },
          {
            "number": 11,
            "time": 53.24283495833272,
            "value": 0.9763779527559056
          },
          {
            "number": 11,
            "time": 53.27140637499939,
            "value": 0.968503937007874
          },
          {
            "number": 11,
            "time": 53.29997779166605,
            "value": 0.9606299212598425
          },
          {
            "number": 11,
            "time": 53.32854920833272,
            "value": 0.952755905511811
          },
          {
            "number": 11,
            "time": 53.35712062499938,
            "value": 0.9448818897637795
          },
          {
            "number": 11,
            "time": 53.38569204166605,
            "value": 0.937007874015748
          },
          {
            "number": 11,
            "time": 53.41426345833271,
            "value": 0.9291338582677166
          },
          {
            "number": 11,
            "time": 53.44283487499938,
            "value": 0.9212598425196851
          },
          {
            "number": 11,
            "time": 53.47140629166604,
            "value": 0.9133858267716536
          },
          {
            "number": 11,
            "time": 53.49997770833271,
            "value": 0.905511811023622
          },
          {
            "number": 11,
            "time": 53.52854912499937,
            "value": 0.8976377952755905
          },
          {
            "number": 11,
            "time": 53.55712054166604,
            "value": 0.889763779527559
          },
          {
            "number": 11,
            "time": 53.5856919583327,
            "value": 0.8818897637795275
          },
          {
            "number": 11,
            "time": 53.61426337499937,
            "value": 0.8740157480314961
          },
          {
            "number": 11,
            "time": 53.64283479166603,
            "value": 0.8661417322834646
          },
          {
            "number": 11,
            "time": 53.6714062083327,
            "value": 0.8582677165354331
          },
          {
            "number": 11,
            "time": 53.69997762499936,
            "value": 0.8503937007874016
          },
          {
            "number": 11,
            "time": 53.72854904166603,
            "value": 0.84251968503937
          },
          {
            "number": 11,
            "time": 53.75712045833269,
            "value": 0.8346456692913385
          },
          {
            "number": 11,
            "time": 53.78569187499936,
            "value": 0.8267716535433071
          },
          {
            "number": 11,
            "time": 53.81426329166602,
            "value": 0.8188976377952756
          },
          {
            "number": 11,
            "time": 53.84283470833269,
            "value": 0.8110236220472441
          },
          {
            "number": 11,
            "time": 53.87140612499935,
            "value": 0.8031496062992126
          },
          {
            "number": 11,
            "time": 53.89997754166602,
            "value": 0.7952755905511811
          },
          {
            "number": 11,
            "time": 53.928548958332684,
            "value": 0.7874015748031497
          },
          {
            "number": 11,
            "time": 53.95712037499935,
            "value": 0.7795275590551181
          },
          {
            "number": 11,
            "time": 53.985691791666014,
            "value": 0.7716535433070866
          },
          {
            "number": 11,
            "time": 54.01426320833268,
            "value": 0.7637795275590551
          },
          {
            "number": 11,
            "time": 54.042834624999344,
            "value": 0.7559055118110236
          },
          {
            "number": 11,
            "time": 54.07140604166601,
            "value": 0.7480314960629921
          },
          {
            "number": 11,
            "time": 54.099977458332674,
            "value": 0.7401574803149606
          },
          {
            "number": 11,
            "time": 54.12854887499934,
            "value": 0.7322834645669292
          },
          {
            "number": 11,
            "time": 54.157120291666004,
            "value": 0.7244094488188977
          },
          {
            "number": 11,
            "time": 54.18569170833267,
            "value": 0.7165354330708661
          },
          {
            "number": 11,
            "time": 54.214263124999334,
            "value": 0.7086614173228346
          },
          {
            "number": 11,
            "time": 54.242834541666,
            "value": 0.7007874015748031
          },
          {
            "number": 11,
            "time": 54.271405958332664,
            "value": 0.6929133858267716
          },
          {
            "number": 11,
            "time": 54.29997737499933,
            "value": 0.6850393700787402
          },
          {
            "number": 11,
            "time": 54.328548791665995,
            "value": 0.6771653543307087
          },
          {
            "number": 11,
            "time": 54.35712020833266,
            "value": 0.6692913385826772
          },
          {
            "number": 11,
            "time": 54.385691624999325,
            "value": 0.6614173228346457
          },
          {
            "number": 11,
            "time": 54.41426304166599,
            "value": 0.6535433070866141
          },
          {
            "number": 11,
            "time": 54.442834458332655,
            "value": 0.6456692913385826
          },
          {
            "number": 11,
            "time": 54.47140587499932,
            "value": 0.6377952755905512
          },
          {
            "number": 11,
            "time": 54.499977291665985,
            "value": 0.6299212598425197
          },
          {
            "number": 11,
            "time": 54.52854870833265,
            "value": 0.6220472440944882
          },
          {
            "number": 11,
            "time": 54.557120124999315,
            "value": 0.6141732283464567
          },
          {
            "number": 11,
            "time": 54.58569154166598,
            "value": 0.6062992125984252
          },
          {
            "number": 11,
            "time": 54.614262958332645,
            "value": 0.5984251968503937
          },
          {
            "number": 11,
            "time": 54.64283437499931,
            "value": 0.5905511811023622
          },
          {
            "number": 11,
            "time": 54.671405791665975,
            "value": 0.5826771653543307
          },
          {
            "number": 11,
            "time": 54.69997720833264,
            "value": 0.5748031496062992
          },
          {
            "number": 11,
            "time": 54.728548624999306,
            "value": 0.5669291338582677
          },
          {
            "number": 11,
            "time": 54.75712004166597,
            "value": 0.5590551181102362
          },
          {
            "number": 11,
            "time": 54.785691458332636,
            "value": 0.5511811023622047
          },
          {
            "number": 11,
            "time": 54.8142628749993,
            "value": 0.5433070866141733
          },
          {
            "number": 11,
            "time": 54.842834291665966,
            "value": 0.5354330708661418
          },
          {
            "number": 11,
            "time": 54.87140570833263,
            "value": 0.5275590551181102
          },
          {
            "number": 11,
            "time": 54.899977124999296,
            "value": 0.5196850393700787
          },
          {
            "number": 11,
            "time": 54.92854854166596,
            "value": 0.5118110236220472
          },
          {
            "number": 11,
            "time": 54.957119958332626,
            "value": 0.5039370078740157
          },
          {
            "number": 11,
            "time": 54.98569137499929,
            "value": 0.49606299212598426
          },
          {
            "number": 11,
            "time": 55.014262791665956,
            "value": 0.4881889763779528
          },
          {
            "number": 11,
            "time": 55.04283420833262,
            "value": 0.48031496062992124
          },
          {
            "number": 11,
            "time": 55.07140562499929,
            "value": 0.47244094488188976
          },
          {
            "number": 11,
            "time": 55.09997704166595,
            "value": 0.4645669291338583
          },
          {
            "number": 11,
            "time": 55.12854845833262,
            "value": 0.4566929133858268
          },
          {
            "number": 11,
            "time": 55.15711987499928,
            "value": 0.44881889763779526
          },
          {
            "number": 11,
            "time": 55.18569129166595,
            "value": 0.4409448818897638
          },
          {
            "number": 11,
            "time": 55.21426270833261,
            "value": 0.4330708661417323
          },
          {
            "number": 11,
            "time": 55.24283412499928,
            "value": 0.4251968503937008
          },
          {
            "number": 11,
            "time": 55.27140554166594,
            "value": 0.41732283464566927
          },
          {
            "number": 11,
            "time": 55.29997695833261,
            "value": 0.4094488188976378
          },
          {
            "number": 11,
            "time": 55.32854837499927,
            "value": 0.4015748031496063
          },
          {
            "number": 11,
            "time": 55.35711979166594,
            "value": 0.3937007874015748
          },
          {
            "number": 11,
            "time": 55.3856912083326,
            "value": 0.3858267716535433
          },
          {
            "number": 11,
            "time": 55.41426262499927,
            "value": 0.3779527559055118
          },
          {
            "number": 11,
            "time": 55.44283404166593,
            "value": 0.3700787401574803
          },
          {
            "number": 11,
            "time": 55.4714054583326,
            "value": 0.36220472440944884
          },
          {
            "number": 11,
            "time": 55.49997687499926,
            "value": 0.3543307086614173
          },
          {
            "number": 11,
            "time": 55.52854829166593,
            "value": 0.3464566929133858
          },
          {
            "number": 11,
            "time": 55.55711970833259,
            "value": 0.33858267716535434
          },
          {
            "number": 11,
            "time": 55.58569112499926,
            "value": 0.33070866141732286
          },
          {
            "number": 11,
            "time": 55.61426254166592,
            "value": 0.3228346456692913
          },
          {
            "number": 11,
            "time": 55.64283395833259,
            "value": 0.31496062992125984
          },
          {
            "number": 11,
            "time": 55.67140537499925,
            "value": 0.30708661417322836
          },
          {
            "number": 11,
            "time": 55.69997679166592,
            "value": 0.2992125984251969
          },
          {
            "number": 11,
            "time": 55.72854820833258,
            "value": 0.29133858267716534
          },
          {
            "number": 11,
            "time": 55.75711962499925,
            "value": 0.28346456692913385
          },
          {
            "number": 11,
            "time": 55.78569104166591,
            "value": 0.2755905511811024
          },
          {
            "number": 11,
            "time": 55.81426245833258,
            "value": 0.2677165354330709
          },
          {
            "number": 11,
            "time": 55.84283387499924,
            "value": 0.25984251968503935
          },
          {
            "number": 11,
            "time": 55.87140529166591,
            "value": 0.25196850393700787
          },
          {
            "number": 11,
            "time": 55.88569099999924,
            "value": 1
          },
          {
            "number": 11,
            "time": 55.92854812499924,
            "value": 0.9921259842519685
          },
          {
            "number": 11,
            "time": 55.957119541665904,
            "value": 0.984251968503937
          },
          {
            "number": 11,
            "time": 55.98569095833257,
            "value": 0.9763779527559056
          },
          {
            "number": 11,
            "time": 56.014262374999234,
            "value": 0.968503937007874
          },
          {
            "number": 11,
            "time": 56.0428337916659,
            "value": 0.9606299212598425
          },
          {
            "number": 11,
            "time": 56.071405208332564,
            "value": 0.952755905511811
          },
          {
            "number": 11,
            "time": 56.09997662499923,
            "value": 0.9448818897637795
          },
          {
            "number": 11,
            "time": 56.128548041665894,
            "value": 0.937007874015748
          },
          {
            "number": 11,
            "time": 56.15711945833256,
            "value": 0.9291338582677166
          },
          {
            "number": 11,
            "time": 56.185690874999224,
            "value": 0.9212598425196851
          },
          {
            "number": 11,
            "time": 56.21426229166589,
            "value": 0.9133858267716536
          },
          {
            "number": 11,
            "time": 56.242833708332554,
            "value": 0.905511811023622
          },
          {
            "number": 11,
            "time": 56.27140512499922,
            "value": 0.8976377952755905
          },
          {
            "number": 11,
            "time": 56.299976541665885,
            "value": 0.889763779527559
          },
          {
            "number": 11,
            "time": 56.32854795833255,
            "value": 0.8818897637795275
          },
          {
            "number": 11,
            "time": 56.357119374999215,
            "value": 0.8740157480314961
          },
          {
            "number": 11,
            "time": 56.38569079166588,
            "value": 0.8661417322834646
          },
          {
            "number": 11,
            "time": 56.414262208332545,
            "value": 0.8582677165354331
          },
          {
            "number": 11,
            "time": 56.44283362499921,
            "value": 0.8503937007874016
          },
          {
            "number": 11,
            "time": 56.471405041665875,
            "value": 0.84251968503937
          },
          {
            "number": 11,
            "time": 56.49997645833254,
            "value": 0.8346456692913385
          },
          {
            "number": 11,
            "time": 56.528547874999205,
            "value": 0.8267716535433071
          },
          {
            "number": 11,
            "time": 56.55711929166587,
            "value": 0.8188976377952756
          },
          {
            "number": 11,
            "time": 56.585690708332535,
            "value": 0.8110236220472441
          },
          {
            "number": 11,
            "time": 56.6142621249992,
            "value": 0.8031496062992126
          },
          {
            "number": 11,
            "time": 56.642833541665865,
            "value": 0.7952755905511811
          },
          {
            "number": 11,
            "time": 56.67140495833253,
            "value": 0.7874015748031497
          },
          {
            "number": 11,
            "time": 56.699976374999196,
            "value": 0.7795275590551181
          },
          {
            "number": 11,
            "time": 56.72854779166586,
            "value": 0.7716535433070866
          },
          {
            "number": 11,
            "time": 56.757119208332526,
            "value": 0.7637795275590551
          },
          {
            "number": 11,
            "time": 56.78569062499919,
            "value": 0.7559055118110236
          },
          {
            "number": 11,
            "time": 56.814262041665856,
            "value": 0.7480314960629921
          },
          {
            "number": 11,
            "time": 56.84283345833252,
            "value": 0.7401574803149606
          },
          {
            "number": 11,
            "time": 56.871404874999186,
            "value": 0.7322834645669292
          },
          {
            "number": 11,
            "time": 56.89997629166585,
            "value": 0.7244094488188977
          },
          {
            "number": 11,
            "time": 56.928547708332516,
            "value": 0.7165354330708661
          },
          {
            "number": 11,
            "time": 56.95711912499918,
            "value": 0.7086614173228346
          },
          {
            "number": 11,
            "time": 56.985690541665846,
            "value": 0.7007874015748031
          },
          {
            "number": 11,
            "time": 57.01426195833251,
            "value": 0.6929133858267716
          },
          {
            "number": 11,
            "time": 57.04283337499918,
            "value": 0.6850393700787402
          },
          {
            "number": 11,
            "time": 57.07140479166584,
            "value": 0.6771653543307087
          },
          {
            "number": 11,
            "time": 57.09997620833251,
            "value": 0.6692913385826772
          },
          {
            "number": 11,
            "time": 57.12854762499917,
            "value": 0.6614173228346457
          },
          {
            "number": 11,
            "time": 57.15711904166584,
            "value": 0.6535433070866141
          },
          {
            "number": 11,
            "time": 57.1856904583325,
            "value": 0.6456692913385826
          },
          {
            "number": 11,
            "time": 57.21426187499917,
            "value": 0.6377952755905512
          },
          {
            "number": 11,
            "time": 57.24283329166583,
            "value": 0.6299212598425197
          },
          {
            "number": 11,
            "time": 57.2714047083325,
            "value": 0.6220472440944882
          },
          {
            "number": 11,
            "time": 57.29997612499916,
            "value": 0.6141732283464567
          },
          {
            "number": 11,
            "time": 57.32854754166583,
            "value": 0.6062992125984252
          },
          {
            "number": 11,
            "time": 57.35711895833249,
            "value": 0.5984251968503937
          },
          {
            "number": 11,
            "time": 57.38569037499916,
            "value": 0.5905511811023622
          },
          {
            "number": 11,
            "time": 57.41426179166582,
            "value": 0.5826771653543307
          },
          {
            "number": 11,
            "time": 57.44283320833249,
            "value": 0.5748031496062992
          },
          {
            "number": 11,
            "time": 57.47140462499915,
            "value": 0.5669291338582677
          },
          {
            "number": 11,
            "time": 57.49997604166582,
            "value": 0.5590551181102362
          },
          {
            "number": 11,
            "time": 57.52854745833248,
            "value": 0.5511811023622047
          },
          {
            "number": 11,
            "time": 57.55711887499915,
            "value": 0.5433070866141733
          },
          {
            "number": 11,
            "time": 57.58569029166581,
            "value": 0.5354330708661418
          },
          {
            "number": 11,
            "time": 57.61426170833248,
            "value": 0.5275590551181102
          },
          {
            "number": 11,
            "time": 57.64283312499914,
            "value": 0.5196850393700787
          },
          {
            "number": 11,
            "time": 57.67140454166581,
            "value": 0.5118110236220472
          },
          {
            "number": 11,
            "time": 57.69997595833247,
            "value": 0.5039370078740157
          },
          {
            "number": 11,
            "time": 57.72854737499914,
            "value": 0.49606299212598426
          },
          {
            "number": 11,
            "time": 57.7571187916658,
            "value": 0.4881889763779528
          },
          {
            "number": 11,
            "time": 57.78569020833247,
            "value": 0.48031496062992124
          },
          {
            "number": 11,
            "time": 57.81426162499913,
            "value": 0.47244094488188976
          },
          {
            "number": 11,
            "time": 57.8428330416658,
            "value": 0.4645669291338583
          },
          {
            "number": 11,
            "time": 57.871404458332464,
            "value": 0.4566929133858268
          },
          {
            "number": 11,
            "time": 57.89997587499913,
            "value": 0.44881889763779526
          },
          {
            "number": 11,
            "time": 57.928547291665794,
            "value": 0.4409448818897638
          },
          {
            "number": 11,
            "time": 57.95711870833246,
            "value": 0.4330708661417323
          },
          {
            "number": 11,
            "time": 57.985690124999124,
            "value": 0.4251968503937008
          },
          {
            "number": 11,
            "time": 58.01426154166579,
            "value": 0.41732283464566927
          },
          {
            "number": 11,
            "time": 58.042832958332454,
            "value": 0.4094488188976378
          },
          {
            "number": 11,
            "time": 58.07140437499912,
            "value": 0.4015748031496063
          },
          {
            "number": 11,
            "time": 58.099975791665784,
            "value": 0.3937007874015748
          },
          {
            "number": 11,
            "time": 58.12854720833245,
            "value": 0.3858267716535433
          },
          {
            "number": 11,
            "time": 58.157118624999114,
            "value": 0.3779527559055118
          },
          {
            "number": 11,
            "time": 58.18569004166578,
            "value": 0.3700787401574803
          },
          {
            "number": 11,
            "time": 58.214261458332444,
            "value": 0.36220472440944884
          },
          {
            "number": 11,
            "time": 58.24283287499911,
            "value": 0.3543307086614173
          },
          {
            "number": 11,
            "time": 58.271404291665775,
            "value": 0.3464566929133858
          },
          {
            "number": 11,
            "time": 58.29997570833244,
            "value": 0.33858267716535434
          },
          {
            "number": 11,
            "time": 58.328547124999105,
            "value": 0.33070866141732286
          },
          {
            "number": 11,
            "time": 58.35711854166577,
            "value": 0.3228346456692913
          },
          {
            "number": 11,
            "time": 58.385689958332435,
            "value": 0.31496062992125984
          },
          {
            "number": 11,
            "time": 58.4142613749991,
            "value": 0.30708661417322836
          },
          {
            "number": 11,
            "time": 58.442832791665765,
            "value": 0.2992125984251969
          },
          {
            "number": 11,
            "time": 58.47140420833243,
            "value": 0.29133858267716534
          },
          {
            "number": 11,
            "time": 58.499975624999095,
            "value": 0.28346456692913385
          },
          {
            "number": 11,
            "time": 58.52854704166576,
            "value": 0.2755905511811024
          },
          {
            "number": 11,
            "time": 58.557118458332425,
            "value": 0.2677165354330709
          },
          {
            "number": 11,
            "time": 58.58568987499909,
            "value": 0.25984251968503935
          },
          {
            "number": 11,
            "time": 58.614261291665755,
            "value": 0.25196850393700787
          },
          {
            "number": 11,
            "time": 58.62854699999909,
            "value": 1
          },
          {
            "number": 11,
            "time": 58.671404124999086,
            "value": 0.9921259842519685
          },
          {
            "number": 11,
            "time": 58.69997554166575,
            "value": 0.984251968503937
          },
          {
            "number": 11,
            "time": 58.728546958332416,
            "value": 0.9763779527559056
          },
          {
            "number": 11,
            "time": 58.75711837499908,
            "value": 0.968503937007874
          },
          {
            "number": 11,
            "time": 58.785689791665746,
            "value": 0.9606299212598425
          },
          {
            "number": 11,
            "time": 58.81426120833241,
            "value": 0.952755905511811
          },
          {
            "number": 11,
            "time": 58.842832624999076,
            "value": 0.9448818897637795
          },
          {
            "number": 11,
            "time": 58.87140404166574,
            "value": 0.937007874015748
          },
          {
            "number": 11,
            "time": 58.899975458332406,
            "value": 0.9291338582677166
          },
          {
            "number": 11,
            "time": 58.92854687499907,
            "value": 0.9212598425196851
          },
          {
            "number": 11,
            "time": 58.957118291665736,
            "value": 0.9133858267716536
          },
          {
            "number": 11,
            "time": 58.9856897083324,
            "value": 0.905511811023622
          },
          {
            "number": 11,
            "time": 59.01426112499907,
            "value": 0.8976377952755905
          },
          {
            "number": 11,
            "time": 59.04283254166573,
            "value": 0.889763779527559
          },
          {
            "number": 11,
            "time": 59.0714039583324,
            "value": 0.8818897637795275
          },
          {
            "number": 11,
            "time": 59.09997537499906,
            "value": 0.8740157480314961
          },
          {
            "number": 11,
            "time": 59.12854679166573,
            "value": 0.8661417322834646
          },
          {
            "number": 11,
            "time": 59.15711820833239,
            "value": 0.8582677165354331
          },
          {
            "number": 11,
            "time": 59.18568962499906,
            "value": 0.8503937007874016
          },
          {
            "number": 11,
            "time": 59.21426104166572,
            "value": 0.84251968503937
          },
          {
            "number": 11,
            "time": 59.24283245833239,
            "value": 0.8346456692913385
          },
          {
            "number": 11,
            "time": 59.27140387499905,
            "value": 0.8267716535433071
          },
          {
            "number": 11,
            "time": 59.29997529166572,
            "value": 0.8188976377952756
          },
          {
            "number": 11,
            "time": 59.32854670833238,
            "value": 0.8110236220472441
          },
          {
            "number": 11,
            "time": 59.35711812499905,
            "value": 0.8031496062992126
          },
          {
            "number": 11,
            "time": 59.38568954166571,
            "value": 0.7952755905511811
          },
          {
            "number": 11,
            "time": 59.41426095833238,
            "value": 0.7874015748031497
          },
          {
            "number": 11,
            "time": 59.44283237499904,
            "value": 0.7795275590551181
          },
          {
            "number": 11,
            "time": 59.47140379166571,
            "value": 0.7716535433070866
          },
          {
            "number": 11,
            "time": 59.49997520833237,
            "value": 0.7637795275590551
          },
          {
            "number": 11,
            "time": 59.52854662499904,
            "value": 0.7559055118110236
          },
          {
            "number": 11,
            "time": 59.5571180416657,
            "value": 0.7480314960629921
          },
          {
            "number": 11,
            "time": 59.58568945833237,
            "value": 0.7401574803149606
          },
          {
            "number": 11,
            "time": 59.61426087499903,
            "value": 0.7322834645669292
          },
          {
            "number": 11,
            "time": 59.6428322916657,
            "value": 0.7244094488188977
          },
          {
            "number": 11,
            "time": 59.67140370833236,
            "value": 0.7165354330708661
          },
          {
            "number": 11,
            "time": 59.69997512499903,
            "value": 0.7086614173228346
          },
          {
            "number": 11,
            "time": 59.72854654166569,
            "value": 0.7007874015748031
          },
          {
            "number": 11,
            "time": 59.75711795833236,
            "value": 0.6929133858267716
          },
          {
            "number": 11,
            "time": 59.78568937499902,
            "value": 0.6850393700787402
          },
          {
            "number": 11,
            "time": 59.81426079166569,
            "value": 0.6771653543307087
          },
          {
            "number": 11,
            "time": 59.842832208332354,
            "value": 0.6692913385826772
          },
          {
            "number": 11,
            "time": 59.87140362499902,
            "value": 0.6614173228346457
          },
          {
            "number": 11,
            "time": 59.899975041665684,
            "value": 0.6535433070866141
          },
          {
            "number": 11,
            "time": 59.92854645833235,
            "value": 0.6456692913385826
          },
          {
            "number": 11,
            "time": 59.957117874999014,
            "value": 0.6377952755905512
          },
          {
            "number": 11,
            "time": 59.98568929166568,
            "value": 0.6299212598425197
          },
          {
            "number": 11,
            "time": 60.014260708332344,
            "value": 0.6220472440944882
          },
          {
            "number": 11,
            "time": 60.04283212499901,
            "value": 0.6141732283464567
          },
          {
            "number": 11,
            "time": 60.071403541665674,
            "value": 0.6062992125984252
          },
          {
            "number": 11,
            "time": 60.09997495833234,
            "value": 0.5984251968503937
          },
          {
            "number": 11,
            "time": 60.128546374999004,
            "value": 0.5905511811023622
          },
          {
            "number": 11,
            "time": 60.15711779166567,
            "value": 0.5826771653543307
          },
          {
            "number": 11,
            "time": 60.185689208332334,
            "value": 0.5748031496062992
          },
          {
            "number": 11,
            "time": 60.214260624999,
            "value": 0.5669291338582677
          },
          {
            "number": 11,
            "time": 60.242832041665665,
            "value": 0.5590551181102362
          },
          {
            "number": 11,
            "time": 60.27140345833233,
            "value": 0.5511811023622047
          },
          {
            "number": 11,
            "time": 60.299974874998995,
            "value": 0.5433070866141733
          },
          {
            "number": 11,
            "time": 60.32854629166566,
            "value": 0.5354330708661418
          },
          {
            "number": 11,
            "time": 60.357117708332325,
            "value": 0.5275590551181102
          },
          {
            "number": 11,
            "time": 60.38568912499899,
            "value": 0.5196850393700787
          },
          {
            "number": 11,
            "time": 60.414260541665655,
            "value": 0.5118110236220472
          },
          {
            "number": 11,
            "time": 60.44283195833232,
            "value": 0.5039370078740157
          },
          {
            "number": 11,
            "time": 60.471403374998985,
            "value": 0.49606299212598426
          },
          {
            "number": 11,
            "time": 60.49997479166565,
            "value": 0.4881889763779528
          },
          {
            "number": 11,
            "time": 60.528546208332315,
            "value": 0.48031496062992124
          },
          {
            "number": 11,
            "time": 60.55711762499898,
            "value": 0.47244094488188976
          },
          {
            "number": 11,
            "time": 60.585689041665646,
            "value": 0.4645669291338583
          },
          {
            "number": 11,
            "time": 60.61426045833231,
            "value": 0.4566929133858268
          },
          {
            "number": 11,
            "time": 60.642831874998976,
            "value": 0.44881889763779526
          },
          {
            "number": 11,
            "time": 60.67140329166564,
            "value": 0.4409448818897638
          },
          {
            "number": 11,
            "time": 60.699974708332306,
            "value": 0.4330708661417323
          },
          {
            "number": 11,
            "time": 60.72854612499897,
            "value": 0.4251968503937008
          },
          {
            "number": 11,
            "time": 60.757117541665636,
            "value": 0.41732283464566927
          },
          {
            "number": 11,
            "time": 60.7856889583323,
            "value": 0.4094488188976378
          },
          {
            "number": 11,
            "time": 60.814260374998966,
            "value": 0.4015748031496063
          },
          {
            "number": 11,
            "time": 60.84283179166563,
            "value": 0.3937007874015748
          },
          {
            "number": 11,
            "time": 60.871403208332296,
            "value": 0.3858267716535433
          },
          {
            "number": 11,
            "time": 60.89997462499896,
            "value": 0.3779527559055118
          },
          {
            "number": 11,
            "time": 60.928546041665626,
            "value": 0.3700787401574803
          },
          {
            "number": 11,
            "time": 60.95711745833229,
            "value": 0.36220472440944884
          },
          {
            "number": 11,
            "time": 60.98568887499896,
            "value": 0.3543307086614173
          },
          {
            "number": 11,
            "time": 61.01426029166562,
            "value": 0.3464566929133858
          },
          {
            "number": 11,
            "time": 61.04283170833229,
            "value": 0.33858267716535434
          },
          {
            "number": 11,
            "time": 61.07140312499895,
            "value": 0.33070866141732286
          },
          {
            "number": 11,
            "time": 61.09997454166562,
            "value": 0.3228346456692913
          },
          {
            "number": 11,
            "time": 61.12854595833228,
            "value": 0.31496062992125984
          },
          {
            "number": 11,
            "time": 61.15711737499895,
            "value": 0.30708661417322836
          },
          {
            "number": 11,
            "time": 61.18568879166561,
            "value": 0.2992125984251969
          },
          {
            "number": 11,
            "time": 61.21426020833228,
            "value": 0.29133858267716534
          },
          {
            "number": 11,
            "time": 61.24283162499894,
            "value": 0.28346456692913385
          },
          {
            "number": 11,
            "time": 61.27140304166561,
            "value": 0.2755905511811024
          },
          {
            "number": 11,
            "time": 61.29997445833227,
            "value": 0.2677165354330709
          },
          {
            "number": 11,
            "time": 61.32854587499894,
            "value": 0.25984251968503935
          },
          {
            "number": 11,
            "time": 61.3571172916656,
            "value": 0.25196850393700787
          },
          {
            "number": 11,
            "time": 61.371402999998935,
            "value": 1
          },
          {
            "number": 11,
            "time": 61.41426012499893,
            "value": 0.9921259842519685
          },
          {
            "number": 11,
            "time": 61.4428315416656,
            "value": 0.984251968503937
          },
          {
            "number": 11,
            "time": 61.47140295833226,
            "value": 0.9763779527559056
          },
          {
            "number": 11,
            "time": 61.49997437499893,
            "value": 0.968503937007874
          },
          {
            "number": 11,
            "time": 61.52854579166559,
            "value": 0.9606299212598425
          },
          {
            "number": 11,
            "time": 61.55711720833226,
            "value": 0.952755905511811
          },
          {
            "number": 11,
            "time": 61.58568862499892,
            "value": 0.9448818897637795
          },
          {
            "number": 11,
            "time": 61.61426004166559,
            "value": 0.937007874015748
          },
          {
            "number": 11,
            "time": 61.64283145833225,
            "value": 0.9291338582677166
          },
          {
            "number": 11,
            "time": 61.67140287499892,
            "value": 0.9212598425196851
          },
          {
            "number": 11,
            "time": 61.69997429166558,
            "value": 0.9133858267716536
          },
          {
            "number": 11,
            "time": 61.72854570833225,
            "value": 0.905511811023622
          },
          {
            "number": 11,
            "time": 61.75711712499891,
            "value": 0.8976377952755905
          },
          {
            "number": 11,
            "time": 61.78568854166558,
            "value": 0.889763779527559
          },
          {
            "number": 11,
            "time": 61.814259958332244,
            "value": 0.8818897637795275
          },
          {
            "number": 11,
            "time": 61.84283137499891,
            "value": 0.8740157480314961
          },
          {
            "number": 11,
            "time": 61.871402791665574,
            "value": 0.8661417322834646
          },
          {
            "number": 11,
            "time": 61.89997420833224,
            "value": 0.8582677165354331
          },
          {
            "number": 11,
            "time": 61.928545624998904,
            "value": 0.8503937007874016
          },
          {
            "number": 11,
            "time": 61.95711704166557,
            "value": 0.84251968503937
          },
          {
            "number": 11,
            "time": 61.985688458332234,
            "value": 0.8346456692913385
          },
          {
            "number": 11,
            "time": 62.0142598749989,
            "value": 0.8267716535433071
          },
          {
            "number": 11,
            "time": 62.042831291665564,
            "value": 0.8188976377952756
          },
          {
            "number": 11,
            "time": 62.07140270833223,
            "value": 0.8110236220472441
          },
          {
            "number": 11,
            "time": 62.099974124998894,
            "value": 0.8031496062992126
          },
          {
            "number": 11,
            "time": 62.12854554166556,
            "value": 0.7952755905511811
          },
          {
            "number": 11,
            "time": 62.157116958332224,
            "value": 0.7874015748031497
          },
          {
            "number": 11,
            "time": 62.18568837499889,
            "value": 0.7795275590551181
          },
          {
            "number": 11,
            "time": 62.214259791665555,
            "value": 0.7716535433070866
          },
          {
            "number": 11,
            "time": 62.24283120833222,
            "value": 0.7637795275590551
          },
          {
            "number": 11,
            "time": 62.271402624998885,
            "value": 0.7559055118110236
          },
          {
            "number": 11,
            "time": 62.29997404166555,
            "value": 0.7480314960629921
          },
          {
            "number": 11,
            "time": 62.328545458332215,
            "value": 0.7401574803149606
          },
          {
            "number": 11,
            "time": 62.35711687499888,
            "value": 0.7322834645669292
          },
          {
            "number": 11,
            "time": 62.385688291665545,
            "value": 0.7244094488188977
          },
          {
            "number": 11,
            "time": 62.41425970833221,
            "value": 0.7165354330708661
          },
          {
            "number": 11,
            "time": 62.442831124998875,
            "value": 0.7086614173228346
          },
          {
            "number": 11,
            "time": 62.47140254166554,
            "value": 0.7007874015748031
          },
          {
            "number": 11,
            "time": 62.499973958332205,
            "value": 0.6929133858267716
          },
          {
            "number": 11,
            "time": 62.52854537499887,
            "value": 0.6850393700787402
          },
          {
            "number": 11,
            "time": 62.557116791665536,
            "value": 0.6771653543307087
          },
          {
            "number": 11,
            "time": 62.5856882083322,
            "value": 0.6692913385826772
          },
          {
            "number": 11,
            "time": 62.614259624998866,
            "value": 0.6614173228346457
          },
          {
            "number": 11,
            "time": 62.64283104166553,
            "value": 0.6535433070866141
          },
          {
            "number": 11,
            "time": 62.671402458332196,
            "value": 0.6456692913385826
          },
          {
            "number": 11,
            "time": 62.69997387499886,
            "value": 0.6377952755905512
          },
          {
            "number": 11,
            "time": 62.728545291665526,
            "value": 0.6299212598425197
          },
          {
            "number": 11,
            "time": 62.75711670833219,
            "value": 0.6220472440944882
          },
          {
            "number": 11,
            "time": 62.785688124998856,
            "value": 0.6141732283464567
          },
          {
            "number": 11,
            "time": 62.81425954166552,
            "value": 0.6062992125984252
          },
          {
            "number": 11,
            "time": 62.842830958332186,
            "value": 0.5984251968503937
          },
          {
            "number": 11,
            "time": 62.87140237499885,
            "value": 0.5905511811023622
          },
          {
            "number": 11,
            "time": 62.899973791665516,
            "value": 0.5826771653543307
          },
          {
            "number": 11,
            "time": 62.92854520833218,
            "value": 0.5748031496062992
          },
          {
            "number": 11,
            "time": 62.95711662499885,
            "value": 0.5669291338582677
          },
          {
            "number": 11,
            "time": 62.98568804166551,
            "value": 0.5590551181102362
          },
          {
            "number": 11,
            "time": 63.01425945833218,
            "value": 0.5511811023622047
          },
          {
            "number": 11,
            "time": 63.04283087499884,
            "value": 0.5433070866141733
          },
          {
            "number": 11,
            "time": 63.07140229166551,
            "value": 0.5354330708661418
          },
          {
            "number": 11,
            "time": 63.09997370833217,
            "value": 0.5275590551181102
          },
          {
            "number": 11,
            "time": 63.12854512499884,
            "value": 0.5196850393700787
          },
          {
            "number": 11,
            "time": 63.1571165416655,
            "value": 0.5118110236220472
          },
          {
            "number": 11,
            "time": 63.18568795833217,
            "value": 0.5039370078740157
          },
          {
            "number": 11,
            "time": 63.21425937499883,
            "value": 0.49606299212598426
          },
          {
            "number": 11,
            "time": 63.2428307916655,
            "value": 0.4881889763779528
          },
          {
            "number": 11,
            "time": 63.27140220833216,
            "value": 0.48031496062992124
          },
          {
            "number": 11,
            "time": 63.29997362499883,
            "value": 0.47244094488188976
          },
          {
            "number": 11,
            "time": 63.32854504166549,
            "value": 0.4645669291338583
          },
          {
            "number": 11,
            "time": 63.35711645833216,
            "value": 0.4566929133858268
          },
          {
            "number": 11,
            "time": 63.38568787499882,
            "value": 0.44881889763779526
          },
          {
            "number": 11,
            "time": 63.41425929166549,
            "value": 0.4409448818897638
          },
          {
            "number": 11,
            "time": 63.44283070833215,
            "value": 0.4330708661417323
          },
          {
            "number": 11,
            "time": 63.47140212499882,
            "value": 0.4251968503937008
          },
          {
            "number": 11,
            "time": 63.49997354166548,
            "value": 0.41732283464566927
          },
          {
            "number": 11,
            "time": 63.52854495833215,
            "value": 0.4094488188976378
          },
          {
            "number": 11,
            "time": 63.55711637499881,
            "value": 0.4015748031496063
          },
          {
            "number": 11,
            "time": 63.58568779166548,
            "value": 0.3937007874015748
          },
          {
            "number": 11,
            "time": 63.61425920833214,
            "value": 0.3858267716535433
          },
          {
            "number": 11,
            "time": 63.64283062499881,
            "value": 0.3779527559055118
          },
          {
            "number": 11,
            "time": 63.67140204166547,
            "value": 0.3700787401574803
          },
          {
            "number": 11,
            "time": 63.69997345833214,
            "value": 0.36220472440944884
          },
          {
            "number": 11,
            "time": 63.7285448749988,
            "value": 0.3543307086614173
          },
          {
            "number": 11,
            "time": 63.75711629166547,
            "value": 0.3464566929133858
          },
          {
            "number": 11,
            "time": 63.785687708332134,
            "value": 0.33858267716535434
          },
          {
            "number": 11,
            "time": 63.8142591249988,
            "value": 0.33070866141732286
          },
          {
            "number": 11,
            "time": 63.842830541665464,
            "value": 0.3228346456692913
          },
          {
            "number": 11,
            "time": 63.87140195833213,
            "value": 0.31496062992125984
          },
          {
            "number": 11,
            "time": 63.899973374998794,
            "value": 0.30708661417322836
          },
          {
            "number": 11,
            "time": 63.92854479166546,
            "value": 0.2992125984251969
          },
          {
            "number": 11,
            "time": 63.957116208332124,
            "value": 0.29133858267716534
          },
          {
            "number": 11,
            "time": 63.98568762499879,
            "value": 0.28346456692913385
          },
          {
            "number": 11,
            "time": 64.01425904166545,
            "value": 0.2755905511811024
          },
          {
            "number": 11,
            "time": 64.04283045833212,
            "value": 0.2677165354330709
          },
          {
            "number": 11,
            "time": 64.07140187499878,
            "value": 0.25984251968503935
          },
          {
            "number": 11,
            "time": 64.09997329166545,
            "value": 0.25196850393700787
          },
          {
            "number": 11,
            "time": 64.25711608333212,
            "value": 1
          },
          {
            "number": 11,
            "time": 79.88568099999885,
            "value": 0.6220472440944882
          },
          {
            "number": 11,
            "time": 79.88746671354052,
            "value": 0.6456692913385826
          },
          {
            "number": 11,
            "time": 79.89460956770719,
            "value": 0.6535433070866141
          },
          {
            "number": 11,
            "time": 79.89639528124886,
            "value": 0.6456692913385826
          },
          {
            "number": 11,
            "time": 80.04818093229052,
            "value": 0.9921259842519685
          },
          {
            "number": 11,
            "time": 80.05175235937385,
            "value": 0.984251968503937
          },
          {
            "number": 11,
            "time": 80.05353807291552,
            "value": 0.984251968503937
          },
          {
            "number": 11,
            "time": 80.05532378645718,
            "value": 0.9763779527559056
          },
          {
            "number": 11,
            "time": 80.05710949999884,
            "value": 0.984251968503937
          },
          {
            "number": 11,
            "time": 80.23389514062384,
            "value": 0.7637795275590551
          },
          {
            "number": 11,
            "time": 80.23568085416551,
            "value": 0.7559055118110236
          },
          {
            "number": 11,
            "time": 80.23746656770717,
            "value": 0.6299212598425197
          },
          {
            "number": 11,
            "time": 80.23925228124884,
            "value": 0.5196850393700787
          },
          {
            "number": 11,
            "time": 80.2410379947905,
            "value": 0.6299212598425197
          },
          {
            "number": 11,
            "time": 80.26068084374883,
            "value": 0.6299212598425197
          },
          {
            "number": 11,
            "time": 80.38746650520716,
            "value": 0.7637795275590551
          },
          {
            "number": 11,
            "time": 80.38925221874882,
            "value": 0.9921259842519685
          },
          {
            "number": 11,
            "time": 80.39282364583215,
            "value": 0.9921259842519685
          },
          {
            "number": 11,
            "time": 80.39460935937382,
            "value": 0.9921259842519685
          }
        ],
        "32": [
          {
            "number": 32,
            "time": 0.6285711666666667,
            "value": 0
          },
          {
            "number": 32,
            "time": 66.85711499999879,
            "value": 0
          },
          {
            "number": 32,
            "time": 75.08568299999895,
            "value": 0
          },
          {
            "number": 32,
            "time": 77.8285389999988,
            "value": 0
          },
          {
            "number": 32,
            "time": 82.62853699999883,
            "value": 0
          }
        ]
      },
      "id": 8,
      "instrumentNumber": 80,
      "instrument": "lead 1 (square)",
      "instrumentFamily": "synth lead",
      "channelNumber": 7,
      "isPercussion": false
    },
    {
      "startTime": 9.599996,
      "duration": 66.171401,
      "length": 12,
      "notes": [
        {
          "name": "D2",
          "midi": 38,
          "time": 9.599996,
          "velocity": 1,
          "duration": 2.057142000000036
        },
        {
          "name": "D1",
          "midi": 26,
          "time": 9.599996,
          "velocity": 1,
          "duration": 2.057142000000036
        },
        {
          "name": "F#3",
          "midi": 54,
          "time": 25.54284650000004,
          "velocity": 0.7874015748031497,
          "duration": 0.08571424999999877
        },
        {
          "name": "A#5",
          "midi": 82,
          "time": 31.028558500000038,
          "velocity": 0.7086614173228346,
          "duration": 0.04285712500000116
        },
        {
          "name": "F#4",
          "midi": 66,
          "time": 36.51427050000004,
          "velocity": 0.7716535433070866,
          "duration": 0.04285712499999761
        },
        {
          "name": "D5",
          "midi": 74,
          "time": 39.257126500000034,
          "velocity": 0.7874015748031497,
          "duration": 0.04285712499999761
        },
        {
          "name": "F4",
          "midi": 65,
          "time": 40.62855450000003,
          "velocity": 0.5590551181102362,
          "duration": 0.1142856666666674
        },
        {
          "name": "G3",
          "midi": 55,
          "time": 43.19998200000003,
          "velocity": 0.7874015748031497,
          "duration": 0.1142856666666674
        },
        {
          "name": "A#5",
          "midi": 82,
          "time": 52.97140650000003,
          "velocity": 0.6062992125984252,
          "duration": 0.04999997916666388
        },
        {
          "name": "D4",
          "midi": 62,
          "time": 65.31425850000004,
          "velocity": 1,
          "duration": 0.8571424999999664
        },
        {
          "name": "A3",
          "midi": 57,
          "time": 65.31425850000004,
          "velocity": 1,
          "duration": 0.8571424999999664
        },
        {
          "name": "A2",
          "midi": 45,
          "time": 65.31425850000004,
          "velocity": 1,
          "duration": 0.8571424999999664
        }
      ],
      "controlChanges": {
        "6": [
          {
            "number": 6,
            "time": 1.1999995,
            "value": 0.12598425196850394
          }
        ],
        "7": [
          {
            "number": 7,
            "time": 1.1999995,
            "value": 0.9448818897637795
          },
          {
            "number": 7,
            "time": 11.999995000000037,
            "value": 0.6929133858267716
          },
          {
            "number": 7,
            "time": 64.11425900000003,
            "value": 0.9448818897637795
          }
        ],
        "10": [
          {
            "number": 10,
            "time": 1.1999995,
            "value": 0.5039370078740157
          },
          {
            "number": 10,
            "time": 11.999995000000037,
            "value": 0.2677165354330709
          },
          {
            "number": 10,
            "time": 64.11425900000003,
            "value": 0.5039370078740157
          }
        ],
        "11": [
          {
            "number": 11,
            "time": 9.599996,
            "value": 0.5039370078740157
          },
          {
            "number": 11,
            "time": 9.621424562500001,
            "value": 0.5118110236220472
          },
          {
            "number": 11,
            "time": 9.643210267708335,
            "value": 0.5196850393700787
          },
          {
            "number": 11,
            "time": 9.66499597291667,
            "value": 0.5275590551181102
          },
          {
            "number": 11,
            "time": 9.686781678125003,
            "value": 0.5354330708661418
          },
          {
            "number": 11,
            "time": 9.708567383333337,
            "value": 0.5433070866141733
          },
          {
            "number": 11,
            "time": 9.730353088541671,
            "value": 0.5511811023622047
          },
          {
            "number": 11,
            "time": 9.752138793750005,
            "value": 0.5590551181102362
          },
          {
            "number": 11,
            "time": 9.773924498958339,
            "value": 0.5669291338582677
          },
          {
            "number": 11,
            "time": 9.795710204166673,
            "value": 0.5748031496062992
          },
          {
            "number": 11,
            "time": 9.817495909375006,
            "value": 0.5826771653543307
          },
          {
            "number": 11,
            "time": 9.83928161458334,
            "value": 0.5905511811023622
          },
          {
            "number": 11,
            "time": 9.861067319791674,
            "value": 0.5984251968503937
          },
          {
            "number": 11,
            "time": 9.882853025000008,
            "value": 0.6062992125984252
          },
          {
            "number": 11,
            "time": 9.904638730208342,
            "value": 0.6141732283464567
          },
          {
            "number": 11,
            "time": 9.926424435416676,
            "value": 0.6220472440944882
          },
          {
            "number": 11,
            "time": 9.94821014062501,
            "value": 0.6299212598425197
          },
          {
            "number": 11,
            "time": 9.969995845833344,
            "value": 0.6377952755905512
          },
          {
            "number": 11,
            "time": 9.991781551041678,
            "value": 0.6456692913385826
          },
          {
            "number": 11,
            "time": 10.013567256250012,
            "value": 0.6535433070866141
          },
          {
            "number": 11,
            "time": 10.035352961458345,
            "value": 0.6614173228346457
          },
          {
            "number": 11,
            "time": 10.05713866666668,
            "value": 0.6692913385826772
          },
          {
            "number": 11,
            "time": 10.07856722916668,
            "value": 0.6771653543307087
          },
          {
            "number": 11,
            "time": 10.100352934375014,
            "value": 0.6850393700787402
          },
          {
            "number": 11,
            "time": 10.122138639583348,
            "value": 0.6929133858267716
          },
          {
            "number": 11,
            "time": 10.143924344791682,
            "value": 0.7007874015748031
          },
          {
            "number": 11,
            "time": 10.165710050000015,
            "value": 0.7086614173228346
          },
          {
            "number": 11,
            "time": 10.18749575520835,
            "value": 0.7165354330708661
          },
          {
            "number": 11,
            "time": 10.209281460416683,
            "value": 0.7244094488188977
          },
          {
            "number": 11,
            "time": 10.231067165625017,
            "value": 0.7322834645669292
          },
          {
            "number": 11,
            "time": 10.252852870833351,
            "value": 0.7401574803149606
          },
          {
            "number": 11,
            "time": 10.274638576041685,
            "value": 0.7480314960629921
          },
          {
            "number": 11,
            "time": 10.296424281250019,
            "value": 0.7559055118110236
          },
          {
            "number": 11,
            "time": 10.318209986458353,
            "value": 0.7637795275590551
          },
          {
            "number": 11,
            "time": 10.339995691666687,
            "value": 0.7716535433070866
          },
          {
            "number": 11,
            "time": 10.36178139687502,
            "value": 0.7795275590551181
          },
          {
            "number": 11,
            "time": 10.383567102083354,
            "value": 0.7874015748031497
          },
          {
            "number": 11,
            "time": 10.405352807291688,
            "value": 0.7952755905511811
          },
          {
            "number": 11,
            "time": 10.427138512500022,
            "value": 0.8031496062992126
          },
          {
            "number": 11,
            "time": 10.448924217708356,
            "value": 0.8110236220472441
          },
          {
            "number": 11,
            "time": 10.47070992291669,
            "value": 0.8188976377952756
          },
          {
            "number": 11,
            "time": 10.492495628125024,
            "value": 0.8267716535433071
          },
          {
            "number": 11,
            "time": 10.514281333333358,
            "value": 0.8346456692913385
          },
          {
            "number": 11,
            "time": 10.535709895833358,
            "value": 0.84251968503937
          },
          {
            "number": 11,
            "time": 10.557495601041692,
            "value": 0.8503937007874016
          },
          {
            "number": 11,
            "time": 10.579281306250026,
            "value": 0.8582677165354331
          },
          {
            "number": 11,
            "time": 10.60106701145836,
            "value": 0.8661417322834646
          },
          {
            "number": 11,
            "time": 10.622852716666694,
            "value": 0.8740157480314961
          },
          {
            "number": 11,
            "time": 10.644638421875028,
            "value": 0.8818897637795275
          },
          {
            "number": 11,
            "time": 10.666424127083362,
            "value": 0.889763779527559
          },
          {
            "number": 11,
            "time": 10.688209832291696,
            "value": 0.8976377952755905
          },
          {
            "number": 11,
            "time": 10.70999553750003,
            "value": 0.905511811023622
          },
          {
            "number": 11,
            "time": 10.731781242708363,
            "value": 0.9133858267716536
          },
          {
            "number": 11,
            "time": 10.753566947916697,
            "value": 0.9212598425196851
          },
          {
            "number": 11,
            "time": 10.775352653125031,
            "value": 0.9291338582677166
          },
          {
            "number": 11,
            "time": 10.797138358333365,
            "value": 0.937007874015748
          },
          {
            "number": 11,
            "time": 10.818924063541699,
            "value": 0.9448818897637795
          },
          {
            "number": 11,
            "time": 10.840709768750033,
            "value": 0.952755905511811
          },
          {
            "number": 11,
            "time": 10.862495473958367,
            "value": 0.9606299212598425
          },
          {
            "number": 11,
            "time": 10.8842811791667,
            "value": 0.968503937007874
          },
          {
            "number": 11,
            "time": 10.906066884375035,
            "value": 0.9763779527559056
          },
          {
            "number": 11,
            "time": 10.927852589583368,
            "value": 0.984251968503937
          },
          {
            "number": 11,
            "time": 10.949638294791702,
            "value": 0.9921259842519685
          },
          {
            "number": 11,
            "time": 10.971424000000036,
            "value": 1
          },
          {
            "number": 11,
            "time": 65.31425850000004,
            "value": 0
          },
          {
            "number": 11,
            "time": 65.32854420833337,
            "value": 0.07874015748031496
          },
          {
            "number": 11,
            "time": 65.3428299166667,
            "value": 0.16535433070866143
          },
          {
            "number": 11,
            "time": 65.35711562500003,
            "value": 0.2440944881889764
          },
          {
            "number": 11,
            "time": 65.37140133333337,
            "value": 0.33070866141732286
          },
          {
            "number": 11,
            "time": 65.3856870416667,
            "value": 0.4094488188976378
          },
          {
            "number": 11,
            "time": 65.39997275000003,
            "value": 0.49606299212598426
          },
          {
            "number": 11,
            "time": 65.41425845833336,
            "value": 0.5826771653543307
          },
          {
            "number": 11,
            "time": 65.4285441666667,
            "value": 0.6614173228346457
          },
          {
            "number": 11,
            "time": 65.44282987500003,
            "value": 0.7480314960629921
          },
          {
            "number": 11,
            "time": 65.45711558333336,
            "value": 0.8267716535433071
          },
          {
            "number": 11,
            "time": 65.4714012916667,
            "value": 0.9133858267716536
          },
          {
            "number": 11,
            "time": 65.48568700000003,
            "value": 1
          },
          {
            "number": 11,
            "time": 79.885681,
            "value": 0.6220472440944882
          },
          {
            "number": 11,
            "time": 79.88746671354167,
            "value": 0.6456692913385826
          },
          {
            "number": 11,
            "time": 79.89460956770834,
            "value": 0.6535433070866141
          },
          {
            "number": 11,
            "time": 79.89639528125001,
            "value": 0.6456692913385826
          },
          {
            "number": 11,
            "time": 80.04818093229167,
            "value": 0.9921259842519685
          },
          {
            "number": 11,
            "time": 80.051752359375,
            "value": 0.984251968503937
          },
          {
            "number": 11,
            "time": 80.05353807291667,
            "value": 0.984251968503937
          },
          {
            "number": 11,
            "time": 80.05532378645833,
            "value": 0.9763779527559056
          },
          {
            "number": 11,
            "time": 80.0571095,
            "value": 0.984251968503937
          },
          {
            "number": 11,
            "time": 80.233895140625,
            "value": 0.7637795275590551
          },
          {
            "number": 11,
            "time": 80.23568085416666,
            "value": 0.7559055118110236
          },
          {
            "number": 11,
            "time": 80.23746656770832,
            "value": 0.6299212598425197
          },
          {
            "number": 11,
            "time": 80.23925228124999,
            "value": 0.5196850393700787
          },
          {
            "number": 11,
            "time": 80.24103799479165,
            "value": 0.6299212598425197
          },
          {
            "number": 11,
            "time": 80.26068084374998,
            "value": 0.6299212598425197
          },
          {
            "number": 11,
            "time": 80.38746650520831,
            "value": 0.7637795275590551
          },
          {
            "number": 11,
            "time": 80.38925221874997,
            "value": 0.9921259842519685
          },
          {
            "number": 11,
            "time": 80.3928236458333,
            "value": 0.9921259842519685
          },
          {
            "number": 11,
            "time": 80.39460935937497,
            "value": 0.9921259842519685
          }
        ],
        "32": [
          {
            "number": 32,
            "time": 1.1999995,
            "value": 0
          }
        ],
        "100": [
          {
            "number": 100,
            "time": 1.1999995,
            "value": 0
          }
        ],
        "101": [
          {
            "number": 101,
            "time": 1.1999995,
            "value": 0
          }
        ]
      },
      "id": 9,
      "instrumentNumber": 119,
      "instrument": "reverse cymbal",
      "instrumentFamily": "percussive",
      "channelNumber": 8,
      "isPercussion": false
    },
    {
      "startTime": 11.999995000000002,
      "duration": 87.42889214270853,
      "length": 436,
      "notes": [
        {
          "name": "C#3",
          "midi": 49,
          "time": 11.999995000000002,
          "velocity": 0.7874015748031497,
          "duration": 0.0003571427083333134
        },
        {
          "name": "A#2",
          "midi": 46,
          "time": 12.342852000000002,
          "velocity": 0.7874015748031497,
          "duration": 0.0003571427083333134
        },
        {
          "name": "F#3",
          "midi": 54,
          "time": 12.342852000000002,
          "velocity": 0.5826771653543307,
          "duration": 0.0003571427083333134
        },
        {
          "name": "A#2",
          "midi": 46,
          "time": 12.685709000000003,
          "velocity": 0.7874015748031497,
          "duration": 0.0003571427083333134
        },
        {
          "name": "A#2",
          "midi": 46,
          "time": 12.857137500000002,
          "velocity": 0.7874015748031497,
          "duration": 0.0003571427083333134
        },
        {
          "name": "F#3",
          "midi": 54,
          "time": 13.028566000000001,
          "velocity": 0.5511811023622047,
          "duration": 0.0003571427083333134
        },
        {
          "name": "C#3",
          "midi": 49,
          "time": 13.1999945,
          "velocity": 0.7874015748031497,
          "duration": 0.0003571427083333134
        },
        {
          "name": "A#2",
          "midi": 46,
          "time": 13.71428,
          "velocity": 0.7874015748031497,
          "duration": 0.0003571427083333134
        },
        {
          "name": "F#3",
          "midi": 54,
          "time": 13.71428,
          "velocity": 0.5748031496062992,
          "duration": 0.0003571427083333134
        },
        {
          "name": "A#2",
          "midi": 46,
          "time": 14.057137,
          "velocity": 0.7874015748031497,
          "duration": 0.0003571427083333134
        },
        {
          "name": "F#3",
          "midi": 54,
          "time": 14.057137,
          "velocity": 0.5748031496062992,
          "duration": 0.0003571427083333134
        },
        {
          "name": "A#2",
          "midi": 46,
          "time": 14.399994000000001,
          "velocity": 0.7874015748031497,
          "duration": 0.0003571427083333134
        },
        {
          "name": "F#3",
          "midi": 54,
          "time": 14.399994000000001,
          "velocity": 0.5511811023622047,
          "duration": 0.0003571427083333134
        },
        {
          "name": "C#3",
          "midi": 49,
          "time": 14.742851000000002,
          "velocity": 0.7874015748031497,
          "duration": 0.0003571427083333134
        },
        {
          "name": "A#2",
          "midi": 46,
          "time": 15.085708000000002,
          "velocity": 0.7874015748031497,
          "duration": 0.0003571427083333134
        },
        {
          "name": "F#3",
          "midi": 54,
          "time": 15.085708000000002,
          "velocity": 0.5590551181102362,
          "duration": 0.0003571427083333134
        },
        {
          "name": "A#2",
          "midi": 46,
          "time": 15.428565000000003,
          "velocity": 0.7874015748031497,
          "duration": 0.0003571427083333134
        },
        {
          "name": "A#2",
          "midi": 46,
          "time": 15.599993500000002,
          "velocity": 0.7874015748031497,
          "duration": 0.0003571427083333134
        },
        {
          "name": "F#3",
          "midi": 54,
          "time": 15.771422000000001,
          "velocity": 0.5748031496062992,
          "duration": 0.0003571427083333134
        },
        {
          "name": "A3",
          "midi": 57,
          "time": 15.9428505,
          "velocity": 0.7874015748031497,
          "duration": 0.0003571427083333134
        },
        {
          "name": "A#2",
          "midi": 46,
          "time": 16.457136000000002,
          "velocity": 0.7874015748031497,
          "duration": 0.00035714270833508976
        },
        {
          "name": "F#3",
          "midi": 54,
          "time": 16.457136000000002,
          "velocity": 0.5984251968503937,
          "duration": 0.00035714270833508976
        },
        {
          "name": "A#2",
          "midi": 46,
          "time": 16.799993000000004,
          "velocity": 0.7874015748031497,
          "duration": 0.00035714270833508976
        },
        {
          "name": "F#3",
          "midi": 54,
          "time": 16.799993000000004,
          "velocity": 0.5905511811023622,
          "duration": 0.00035714270833508976
        },
        {
          "name": "F#3",
          "midi": 54,
          "time": 17.142850000000006,
          "velocity": 0.5984251968503937,
          "duration": 0.00035714270833508976
        },
        {
          "name": "C#3",
          "midi": 49,
          "time": 17.48570700000001,
          "velocity": 0.7874015748031497,
          "duration": 0.00035714270833508976
        },
        {
          "name": "A#2",
          "midi": 46,
          "time": 17.82856400000001,
          "velocity": 0.7874015748031497,
          "duration": 0.00035714270833508976
        },
        {
          "name": "F#3",
          "midi": 54,
          "time": 17.82856400000001,
          "velocity": 0.5275590551181102,
          "duration": 0.00035714270833508976
        },
        {
          "name": "A#2",
          "midi": 46,
          "time": 18.171421000000013,
          "velocity": 0.7874015748031497,
          "duration": 0.00035714270833508976
        },
        {
          "name": "A#2",
          "midi": 46,
          "time": 18.342849500000014,
          "velocity": 0.7874015748031497,
          "duration": 0.00035714270833508976
        },
        {
          "name": "F#3",
          "midi": 54,
          "time": 18.514278000000015,
          "velocity": 0.5984251968503937,
          "duration": 0.00035714270833508976
        },
        {
          "name": "C#3",
          "midi": 49,
          "time": 18.685706500000016,
          "velocity": 0.7874015748031497,
          "duration": 0.00035714270833508976
        },
        {
          "name": "A#2",
          "midi": 46,
          "time": 19.19999200000002,
          "velocity": 0.7874015748031497,
          "duration": 0.00035714270833508976
        },
        {
          "name": "F#3",
          "midi": 54,
          "time": 19.19999200000002,
          "velocity": 0.5669291338582677,
          "duration": 0.00035714270833508976
        },
        {
          "name": "A#2",
          "midi": 46,
          "time": 19.54284900000002,
          "velocity": 0.7874015748031497,
          "duration": 0.00035714270833508976
        },
        {
          "name": "F#3",
          "midi": 54,
          "time": 19.54284900000002,
          "velocity": 0.5590551181102362,
          "duration": 0.00035714270833508976
        },
        {
          "name": "A#2",
          "midi": 46,
          "time": 19.885706000000024,
          "velocity": 0.7874015748031497,
          "duration": 0.00035714270833508976
        },
        {
          "name": "F#3",
          "midi": 54,
          "time": 19.885706000000024,
          "velocity": 0.5826771653543307,
          "duration": 0.00035714270833508976
        },
        {
          "name": "A3",
          "midi": 57,
          "time": 20.228563000000026,
          "velocity": 0.7874015748031497,
          "duration": 0.00035714270833508976
        },
        {
          "name": "A2",
          "midi": 45,
          "time": 20.57142000000003,
          "velocity": 0.2677165354330709,
          "duration": 0.00035714270833508976
        },
        {
          "name": "A2",
          "midi": 45,
          "time": 20.74284850000003,
          "velocity": 0.6614173228346457,
          "duration": 0.00035714270833508976
        },
        {
          "name": "A2",
          "midi": 45,
          "time": 20.91427700000003,
          "velocity": 0.7952755905511811,
          "duration": 0.00035714270833508976
        },
        {
          "name": "A2",
          "midi": 45,
          "time": 21.08570550000003,
          "velocity": 0.8740157480314961,
          "duration": 0.00035714270833508976
        },
        {
          "name": "A2",
          "midi": 45,
          "time": 21.257134000000033,
          "velocity": 0.9133858267716536,
          "duration": 0.00035714270833508976
        },
        {
          "name": "A2",
          "midi": 45,
          "time": 21.428562500000034,
          "velocity": 0.9291338582677166,
          "duration": 0.00035714270833508976
        },
        {
          "name": "C#3",
          "midi": 49,
          "time": 21.599991000000035,
          "velocity": 0.7874015748031497,
          "duration": 0.00035714270833508976
        },
        {
          "name": "A2",
          "midi": 45,
          "time": 22.457133500000037,
          "velocity": 0.8661417322834646,
          "duration": 0.00035714270833508976
        },
        {
          "name": "B2",
          "midi": 47,
          "time": 22.457133500000037,
          "velocity": 0.8661417322834646,
          "duration": 0.00035714270833508976
        },
        {
          "name": "G2",
          "midi": 43,
          "time": 22.628562000000038,
          "velocity": 0.84251968503937,
          "duration": 0.00035714270833508976
        },
        {
          "name": "A2",
          "midi": 45,
          "time": 22.628562000000038,
          "velocity": 0.84251968503937,
          "duration": 0.00035714270833508976
        },
        {
          "name": "C#3",
          "midi": 49,
          "time": 22.97141900000004,
          "velocity": 0.7874015748031497,
          "duration": 0.00035714270833508976
        },
        {
          "name": "F#2",
          "midi": 42,
          "time": 23.314276000000042,
          "velocity": 0.8976377952755905,
          "duration": 0.00035714270833508976
        },
        {
          "name": "F#2",
          "midi": 42,
          "time": 23.485704500000043,
          "velocity": 0.4409448818897638,
          "duration": 0.00035714270833508976
        },
        {
          "name": "F#2",
          "midi": 42,
          "time": 23.657133000000044,
          "velocity": 0.8976377952755905,
          "duration": 0.00035714270833508976
        },
        {
          "name": "F#2",
          "midi": 42,
          "time": 23.828561500000045,
          "velocity": 0.4330708661417323,
          "duration": 0.00035714270833508976
        },
        {
          "name": "F#2",
          "midi": 42,
          "time": 23.999990000000047,
          "velocity": 0.8188976377952756,
          "duration": 0.00035714270833508976
        },
        {
          "name": "F#2",
          "midi": 42,
          "time": 24.171418500000048,
          "velocity": 0.4566929133858268,
          "duration": 0.00035714270833508976
        },
        {
          "name": "F#2",
          "midi": 42,
          "time": 24.34284700000005,
          "velocity": 0.8976377952755905,
          "duration": 0.00035714270833508976
        },
        {
          "name": "F#2",
          "midi": 42,
          "time": 24.51427550000005,
          "velocity": 0.44881889763779526,
          "duration": 0.00035714270833508976
        },
        {
          "name": "F#2",
          "midi": 42,
          "time": 24.68570400000005,
          "velocity": 0.84251968503937,
          "duration": 0.00035714270833508976
        },
        {
          "name": "F#2",
          "midi": 42,
          "time": 24.857132500000052,
          "velocity": 0.4566929133858268,
          "duration": 0.00035714270833508976
        },
        {
          "name": "F#2",
          "midi": 42,
          "time": 25.028561000000053,
          "velocity": 0.8188976377952756,
          "duration": 0.00035714270833508976
        },
        {
          "name": "F#2",
          "midi": 42,
          "time": 25.199989500000054,
          "velocity": 0.4566929133858268,
          "duration": 0.00035714270833508976
        },
        {
          "name": "F#2",
          "midi": 42,
          "time": 25.371418000000055,
          "velocity": 0.8346456692913385,
          "duration": 0.00035714270833508976
        },
        {
          "name": "F#2",
          "midi": 42,
          "time": 25.542846500000056,
          "velocity": 0.4094488188976378,
          "duration": 0.00035714270833508976
        },
        {
          "name": "F#2",
          "midi": 42,
          "time": 25.714275000000058,
          "velocity": 0.8976377952755905,
          "duration": 0.00035714270833508976
        },
        {
          "name": "F#2",
          "midi": 42,
          "time": 25.88570350000006,
          "velocity": 0.3937007874015748,
          "duration": 0.00035714270833508976
        },
        {
          "name": "F#2",
          "midi": 42,
          "time": 26.05713200000006,
          "velocity": 0.84251968503937,
          "duration": 0.00035714270833508976
        },
        {
          "name": "F#2",
          "midi": 42,
          "time": 26.22856050000006,
          "velocity": 0.4251968503937008,
          "duration": 0.00035714270833508976
        },
        {
          "name": "F#2",
          "midi": 42,
          "time": 26.399989000000062,
          "velocity": 0.8188976377952756,
          "duration": 0.00035714270833508976
        },
        {
          "name": "F#2",
          "midi": 42,
          "time": 26.571417500000063,
          "velocity": 0.4330708661417323,
          "duration": 0.00035714270833508976
        },
        {
          "name": "F#2",
          "midi": 42,
          "time": 26.742846000000064,
          "velocity": 0.8346456692913385,
          "duration": 0.00035714270833508976
        },
        {
          "name": "F#2",
          "midi": 42,
          "time": 26.914274500000065,
          "velocity": 0.4330708661417323,
          "duration": 0.00035714270833508976
        },
        {
          "name": "F#2",
          "midi": 42,
          "time": 27.085703000000066,
          "velocity": 0.8976377952755905,
          "duration": 0.00035714270833508976
        },
        {
          "name": "F#2",
          "midi": 42,
          "time": 27.257131500000067,
          "velocity": 0.44881889763779526,
          "duration": 0.00035714270833508976
        },
        {
          "name": "F#2",
          "midi": 42,
          "time": 27.42856000000007,
          "velocity": 0.84251968503937,
          "duration": 0.00035714270833508976
        },
        {
          "name": "F#2",
          "midi": 42,
          "time": 27.59998850000007,
          "velocity": 0.4566929133858268,
          "duration": 0.00035714270833508976
        },
        {
          "name": "F#2",
          "midi": 42,
          "time": 27.77141700000007,
          "velocity": 0.8188976377952756,
          "duration": 0.00035714270833508976
        },
        {
          "name": "F#2",
          "midi": 42,
          "time": 27.94284550000007,
          "velocity": 0.4566929133858268,
          "duration": 0.00035714270833508976
        },
        {
          "name": "F#2",
          "midi": 42,
          "time": 28.114274000000073,
          "velocity": 0.8346456692913385,
          "duration": 0.00035714270833508976
        },
        {
          "name": "F#2",
          "midi": 42,
          "time": 28.285702500000074,
          "velocity": 0.4094488188976378,
          "duration": 0.00035714270833508976
        },
        {
          "name": "F#2",
          "midi": 42,
          "time": 28.457131000000075,
          "velocity": 0.8976377952755905,
          "duration": 0.00035714270833508976
        },
        {
          "name": "F#2",
          "midi": 42,
          "time": 28.628559500000076,
          "velocity": 0.3937007874015748,
          "duration": 0.00035714270833508976
        },
        {
          "name": "F#2",
          "midi": 42,
          "time": 28.799988000000077,
          "velocity": 0.84251968503937,
          "duration": 0.00035714270833508976
        },
        {
          "name": "F#2",
          "midi": 42,
          "time": 28.97141650000008,
          "velocity": 0.4251968503937008,
          "duration": 0.00035714270833508976
        },
        {
          "name": "F#2",
          "midi": 42,
          "time": 29.14284500000008,
          "velocity": 0.8188976377952756,
          "duration": 0.00035714270833508976
        },
        {
          "name": "F#2",
          "midi": 42,
          "time": 29.31427350000008,
          "velocity": 0.4330708661417323,
          "duration": 0.00035714270833508976
        },
        {
          "name": "F#2",
          "midi": 42,
          "time": 29.48570200000008,
          "velocity": 0.8346456692913385,
          "duration": 0.00035714270833508976
        },
        {
          "name": "F#2",
          "midi": 42,
          "time": 29.657130500000083,
          "velocity": 0.4330708661417323,
          "duration": 0.00035714270833508976
        },
        {
          "name": "F#2",
          "midi": 42,
          "time": 29.828559000000084,
          "velocity": 0.8976377952755905,
          "duration": 0.00035714270833508976
        },
        {
          "name": "F#2",
          "midi": 42,
          "time": 29.999987500000085,
          "velocity": 0.44881889763779526,
          "duration": 0.00035714270833508976
        },
        {
          "name": "F#2",
          "midi": 42,
          "time": 30.171416000000086,
          "velocity": 0.84251968503937,
          "duration": 0.00035714270833508976
        },
        {
          "name": "F#2",
          "midi": 42,
          "time": 30.342844500000087,
          "velocity": 0.4566929133858268,
          "duration": 0.00035714270833508976
        },
        {
          "name": "F#2",
          "midi": 42,
          "time": 30.514273000000088,
          "velocity": 0.8188976377952756,
          "duration": 0.00035714270833508976
        },
        {
          "name": "F#2",
          "midi": 42,
          "time": 30.68570150000009,
          "velocity": 0.4566929133858268,
          "duration": 0.00035714270833508976
        },
        {
          "name": "F#2",
          "midi": 42,
          "time": 30.85713000000009,
          "velocity": 0.8346456692913385,
          "duration": 0.00035714270833508976
        },
        {
          "name": "F#2",
          "midi": 42,
          "time": 31.02855850000009,
          "velocity": 0.4094488188976378,
          "duration": 0.00035714270833508976
        },
        {
          "name": "F#2",
          "midi": 42,
          "time": 31.199987000000093,
          "velocity": 0.8976377952755905,
          "duration": 0.00035714270833508976
        },
        {
          "name": "F#2",
          "midi": 42,
          "time": 31.371415500000094,
          "velocity": 0.3937007874015748,
          "duration": 0.00035714270833508976
        },
        {
          "name": "F#2",
          "midi": 42,
          "time": 31.542844000000095,
          "velocity": 0.84251968503937,
          "duration": 0.00035714270833508976
        },
        {
          "name": "F#2",
          "midi": 42,
          "time": 31.714272500000096,
          "velocity": 0.4251968503937008,
          "duration": 0.00035714270833508976
        },
        {
          "name": "F#2",
          "midi": 42,
          "time": 31.885701000000097,
          "velocity": 0.8188976377952756,
          "duration": 0.00035714270833508976
        },
        {
          "name": "F#2",
          "midi": 42,
          "time": 32.0571295000001,
          "velocity": 0.4330708661417323,
          "duration": 0.00035714270833153705
        },
        {
          "name": "F#2",
          "midi": 42,
          "time": 32.2285580000001,
          "velocity": 0.8346456692913385,
          "duration": 0.00035714270833153705
        },
        {
          "name": "F#2",
          "midi": 42,
          "time": 32.3999865000001,
          "velocity": 0.4330708661417323,
          "duration": 0.00035714270833153705
        },
        {
          "name": "F#2",
          "midi": 42,
          "time": 32.571415000000094,
          "velocity": 0.8976377952755905,
          "duration": 0.00035714270833153705
        },
        {
          "name": "F#2",
          "midi": 42,
          "time": 32.74284350000009,
          "velocity": 0.44881889763779526,
          "duration": 0.00035714270833153705
        },
        {
          "name": "F#2",
          "midi": 42,
          "time": 32.91427200000009,
          "velocity": 0.84251968503937,
          "duration": 0.00035714270833153705
        },
        {
          "name": "F#2",
          "midi": 42,
          "time": 33.08570050000009,
          "velocity": 0.4566929133858268,
          "duration": 0.00035714270833153705
        },
        {
          "name": "F#2",
          "midi": 42,
          "time": 33.257129000000084,
          "velocity": 0.8188976377952756,
          "duration": 0.00035714270833153705
        },
        {
          "name": "F#2",
          "midi": 42,
          "time": 33.42855750000008,
          "velocity": 0.4566929133858268,
          "duration": 0.00035714270833153705
        },
        {
          "name": "F#2",
          "midi": 42,
          "time": 33.59998600000008,
          "velocity": 0.8346456692913385,
          "duration": 0.00035714270833153705
        },
        {
          "name": "F#2",
          "midi": 42,
          "time": 33.77141450000008,
          "velocity": 0.4094488188976378,
          "duration": 0.00035714270833153705
        },
        {
          "name": "F#2",
          "midi": 42,
          "time": 33.942843000000074,
          "velocity": 0.8976377952755905,
          "duration": 0.00035714270833153705
        },
        {
          "name": "F#2",
          "midi": 42,
          "time": 34.11427150000007,
          "velocity": 0.3937007874015748,
          "duration": 0.00035714270833153705
        },
        {
          "name": "F#2",
          "midi": 42,
          "time": 34.28570000000007,
          "velocity": 0.84251968503937,
          "duration": 0.00035714270833153705
        },
        {
          "name": "F#2",
          "midi": 42,
          "time": 34.45712850000007,
          "velocity": 0.4251968503937008,
          "duration": 0.00035714270833153705
        },
        {
          "name": "F#2",
          "midi": 42,
          "time": 34.628557000000065,
          "velocity": 0.8188976377952756,
          "duration": 0.00035714270833153705
        },
        {
          "name": "F#2",
          "midi": 42,
          "time": 34.79998550000006,
          "velocity": 0.4330708661417323,
          "duration": 0.00035714270833153705
        },
        {
          "name": "F#2",
          "midi": 42,
          "time": 34.97141400000006,
          "velocity": 0.8346456692913385,
          "duration": 0.00035714270833153705
        },
        {
          "name": "F#2",
          "midi": 42,
          "time": 35.14284250000006,
          "velocity": 0.4330708661417323,
          "duration": 0.00035714270833153705
        },
        {
          "name": "F#2",
          "midi": 42,
          "time": 35.314271000000055,
          "velocity": 0.8976377952755905,
          "duration": 0.00035714270833153705
        },
        {
          "name": "F#2",
          "midi": 42,
          "time": 35.48569950000005,
          "velocity": 0.44881889763779526,
          "duration": 0.00035714270833153705
        },
        {
          "name": "F#2",
          "midi": 42,
          "time": 35.65712800000005,
          "velocity": 0.84251968503937,
          "duration": 0.00035714270833153705
        },
        {
          "name": "F#2",
          "midi": 42,
          "time": 35.82855650000005,
          "velocity": 0.4566929133858268,
          "duration": 0.00035714270833153705
        },
        {
          "name": "F#2",
          "midi": 42,
          "time": 35.999985000000045,
          "velocity": 0.8188976377952756,
          "duration": 0.00035714270833153705
        },
        {
          "name": "F#2",
          "midi": 42,
          "time": 36.17141350000004,
          "velocity": 0.4566929133858268,
          "duration": 0.00035714270833153705
        },
        {
          "name": "F#2",
          "midi": 42,
          "time": 36.34284200000004,
          "velocity": 0.8346456692913385,
          "duration": 0.00035714270833153705
        },
        {
          "name": "F#2",
          "midi": 42,
          "time": 36.51427050000004,
          "velocity": 0.4094488188976378,
          "duration": 0.00035714270833153705
        },
        {
          "name": "F#2",
          "midi": 42,
          "time": 36.685699000000035,
          "velocity": 0.8976377952755905,
          "duration": 0.00035714270833153705
        },
        {
          "name": "F#2",
          "midi": 42,
          "time": 36.85712750000003,
          "velocity": 0.3937007874015748,
          "duration": 0.00035714270833153705
        },
        {
          "name": "F#2",
          "midi": 42,
          "time": 37.02855600000003,
          "velocity": 0.84251968503937,
          "duration": 0.00035714270833153705
        },
        {
          "name": "F#2",
          "midi": 42,
          "time": 37.19998450000003,
          "velocity": 0.4251968503937008,
          "duration": 0.00035714270833153705
        },
        {
          "name": "F#2",
          "midi": 42,
          "time": 37.371413000000025,
          "velocity": 0.8188976377952756,
          "duration": 0.00035714270833153705
        },
        {
          "name": "F#2",
          "midi": 42,
          "time": 37.54284150000002,
          "velocity": 0.4330708661417323,
          "duration": 0.00035714270833153705
        },
        {
          "name": "F#2",
          "midi": 42,
          "time": 37.71427000000002,
          "velocity": 0.8346456692913385,
          "duration": 0.00035714270833153705
        },
        {
          "name": "F#2",
          "midi": 42,
          "time": 37.88569850000002,
          "velocity": 0.4330708661417323,
          "duration": 0.00035714270833153705
        },
        {
          "name": "F#2",
          "midi": 42,
          "time": 38.057127000000015,
          "velocity": 0.8976377952755905,
          "duration": 0.00035714270833153705
        },
        {
          "name": "F#2",
          "midi": 42,
          "time": 38.22855550000001,
          "velocity": 0.44881889763779526,
          "duration": 0.00035714270833153705
        },
        {
          "name": "F#2",
          "midi": 42,
          "time": 38.39998400000001,
          "velocity": 0.84251968503937,
          "duration": 0.00035714270833153705
        },
        {
          "name": "F#2",
          "midi": 42,
          "time": 38.57141250000001,
          "velocity": 0.4566929133858268,
          "duration": 0.00035714270833153705
        },
        {
          "name": "F#2",
          "midi": 42,
          "time": 38.742841000000006,
          "velocity": 0.8188976377952756,
          "duration": 0.00035714270833153705
        },
        {
          "name": "F#2",
          "midi": 42,
          "time": 38.9142695,
          "velocity": 0.4566929133858268,
          "duration": 0.00035714270833153705
        },
        {
          "name": "F#2",
          "midi": 42,
          "time": 39.085698,
          "velocity": 0.8346456692913385,
          "duration": 0.00035714270833153705
        },
        {
          "name": "F#2",
          "midi": 42,
          "time": 39.2571265,
          "velocity": 0.4094488188976378,
          "duration": 0.00035714270833153705
        },
        {
          "name": "F#2",
          "midi": 42,
          "time": 39.428554999999996,
          "velocity": 0.8976377952755905,
          "duration": 0.00035714270833153705
        },
        {
          "name": "F#2",
          "midi": 42,
          "time": 39.59998349999999,
          "velocity": 0.3937007874015748,
          "duration": 0.00035714270833153705
        },
        {
          "name": "F#2",
          "midi": 42,
          "time": 39.77141199999999,
          "velocity": 0.84251968503937,
          "duration": 0.00035714270833153705
        },
        {
          "name": "F#2",
          "midi": 42,
          "time": 39.94284049999999,
          "velocity": 0.4251968503937008,
          "duration": 0.00035714270833153705
        },
        {
          "name": "F#2",
          "midi": 42,
          "time": 40.114268999999986,
          "velocity": 0.8188976377952756,
          "duration": 0.00035714270833153705
        },
        {
          "name": "F#2",
          "midi": 42,
          "time": 40.28569749999998,
          "velocity": 0.4330708661417323,
          "duration": 0.00035714270833153705
        },
        {
          "name": "F#2",
          "midi": 42,
          "time": 40.45712599999998,
          "velocity": 0.8346456692913385,
          "duration": 0.00035714270833153705
        },
        {
          "name": "F#2",
          "midi": 42,
          "time": 40.62855449999998,
          "velocity": 0.4330708661417323,
          "duration": 0.00035714270833153705
        },
        {
          "name": "F#2",
          "midi": 42,
          "time": 40.799982999999976,
          "velocity": 0.8976377952755905,
          "duration": 0.00035714270833153705
        },
        {
          "name": "F#2",
          "midi": 42,
          "time": 40.971411499999974,
          "velocity": 0.44881889763779526,
          "duration": 0.00035714270833153705
        },
        {
          "name": "F#2",
          "midi": 42,
          "time": 41.14283999999997,
          "velocity": 0.84251968503937,
          "duration": 0.00035714270833153705
        },
        {
          "name": "F#2",
          "midi": 42,
          "time": 41.31426849999997,
          "velocity": 0.4566929133858268,
          "duration": 0.00035714270833153705
        },
        {
          "name": "F#2",
          "midi": 42,
          "time": 41.485696999999966,
          "velocity": 0.8188976377952756,
          "duration": 0.00035714270833153705
        },
        {
          "name": "F#2",
          "midi": 42,
          "time": 41.657125499999964,
          "velocity": 0.4566929133858268,
          "duration": 0.00035714270833153705
        },
        {
          "name": "F#2",
          "midi": 42,
          "time": 41.82855399999996,
          "velocity": 0.8346456692913385,
          "duration": 0.00035714270833153705
        },
        {
          "name": "F#2",
          "midi": 42,
          "time": 41.99998249999996,
          "velocity": 0.4094488188976378,
          "duration": 0.00035714270833153705
        },
        {
          "name": "F#2",
          "midi": 42,
          "time": 42.17141099999996,
          "velocity": 0.8976377952755905,
          "duration": 0.00035714270833153705
        },
        {
          "name": "F#2",
          "midi": 42,
          "time": 42.342839499999954,
          "velocity": 0.3937007874015748,
          "duration": 0.00035714270833153705
        },
        {
          "name": "F#2",
          "midi": 42,
          "time": 42.51426799999995,
          "velocity": 0.84251968503937,
          "duration": 0.00035714270833153705
        },
        {
          "name": "F#2",
          "midi": 42,
          "time": 42.68569649999995,
          "velocity": 0.4251968503937008,
          "duration": 0.00035714270833153705
        },
        {
          "name": "F#2",
          "midi": 42,
          "time": 42.85712499999995,
          "velocity": 0.8188976377952756,
          "duration": 0.00035714270833153705
        },
        {
          "name": "F#2",
          "midi": 42,
          "time": 43.028553499999944,
          "velocity": 0.4330708661417323,
          "duration": 0.00035714270833153705
        },
        {
          "name": "F#2",
          "midi": 42,
          "time": 43.19998199999994,
          "velocity": 0.8346456692913385,
          "duration": 0.00035714270833153705
        },
        {
          "name": "F#2",
          "midi": 42,
          "time": 43.37141049999994,
          "velocity": 0.4330708661417323,
          "duration": 0.00035714270833153705
        },
        {
          "name": "F#2",
          "midi": 42,
          "time": 43.54283899999994,
          "velocity": 0.8976377952755905,
          "duration": 0.00035714270833153705
        },
        {
          "name": "F#2",
          "midi": 42,
          "time": 43.714267499999934,
          "velocity": 0.4251968503937008,
          "duration": 0.00035714270833153705
        },
        {
          "name": "F#2",
          "midi": 42,
          "time": 43.88569599999993,
          "velocity": 0.84251968503937,
          "duration": 0.00035714270833153705
        },
        {
          "name": "F#2",
          "midi": 42,
          "time": 44.05712449999993,
          "velocity": 0.4566929133858268,
          "duration": 0.00035714270833153705
        },
        {
          "name": "F#2",
          "midi": 42,
          "time": 44.22855299999993,
          "velocity": 0.8188976377952756,
          "duration": 0.00035714270833153705
        },
        {
          "name": "F#2",
          "midi": 42,
          "time": 44.399981499999924,
          "velocity": 0.4409448818897638,
          "duration": 0.00035714270833153705
        },
        {
          "name": "A#2",
          "midi": 46,
          "time": 44.57140999999992,
          "velocity": 0.8346456692913385,
          "duration": 0.00035714270833153705
        },
        {
          "name": "C#3",
          "midi": 49,
          "time": 44.91426699999992,
          "velocity": 0.7874015748031497,
          "duration": 0.00035714270833153705
        },
        {
          "name": "F#2",
          "midi": 42,
          "time": 45.25712399999991,
          "velocity": 0.8976377952755905,
          "duration": 0.00035714270833153705
        },
        {
          "name": "F#2",
          "midi": 42,
          "time": 45.42855249999991,
          "velocity": 0.4645669291338583,
          "duration": 0.00035714270833153705
        },
        {
          "name": "F#2",
          "midi": 42,
          "time": 45.59998099999991,
          "velocity": 0.84251968503937,
          "duration": 0.00035714270833153705
        },
        {
          "name": "F#2",
          "midi": 42,
          "time": 45.771409499999905,
          "velocity": 0.4330708661417323,
          "duration": 0.00035714270833153705
        },
        {
          "name": "F#2",
          "midi": 42,
          "time": 45.9428379999999,
          "velocity": 0.8188976377952756,
          "duration": 0.00035714270833153705
        },
        {
          "name": "F#2",
          "midi": 42,
          "time": 46.1142664999999,
          "velocity": 0.4566929133858268,
          "duration": 0.00035714270833153705
        },
        {
          "name": "F#2",
          "midi": 42,
          "time": 46.2856949999999,
          "velocity": 0.8976377952755905,
          "duration": 0.00035714270833153705
        },
        {
          "name": "F#2",
          "midi": 42,
          "time": 46.457123499999895,
          "velocity": 0.44881889763779526,
          "duration": 0.00035714270833153705
        },
        {
          "name": "F#2",
          "midi": 42,
          "time": 46.62855199999989,
          "velocity": 0.84251968503937,
          "duration": 0.00035714270833153705
        },
        {
          "name": "F#2",
          "midi": 42,
          "time": 46.79998049999989,
          "velocity": 0.4566929133858268,
          "duration": 0.00035714270833153705
        },
        {
          "name": "F#2",
          "midi": 42,
          "time": 46.97140899999989,
          "velocity": 0.8188976377952756,
          "duration": 0.00035714270833153705
        },
        {
          "name": "F#2",
          "midi": 42,
          "time": 47.142837499999885,
          "velocity": 0.4566929133858268,
          "duration": 0.00035714270833153705
        },
        {
          "name": "F#2",
          "midi": 42,
          "time": 47.31426599999988,
          "velocity": 0.8346456692913385,
          "duration": 0.00035714270833153705
        },
        {
          "name": "F#2",
          "midi": 42,
          "time": 47.48569449999988,
          "velocity": 0.4094488188976378,
          "duration": 0.00035714270833153705
        },
        {
          "name": "F#2",
          "midi": 42,
          "time": 47.65712299999988,
          "velocity": 0.8976377952755905,
          "duration": 0.00035714270833153705
        },
        {
          "name": "F#2",
          "midi": 42,
          "time": 47.828551499999875,
          "velocity": 0.3937007874015748,
          "duration": 0.00035714270833153705
        },
        {
          "name": "F#2",
          "midi": 42,
          "time": 47.99997999999987,
          "velocity": 0.84251968503937,
          "duration": 0.00035714270833153705
        },
        {
          "name": "F#2",
          "midi": 42,
          "time": 48.17140849999987,
          "velocity": 0.4251968503937008,
          "duration": 0.00035714270833153705
        },
        {
          "name": "F#2",
          "midi": 42,
          "time": 48.34283699999987,
          "velocity": 0.8188976377952756,
          "duration": 0.00035714270833153705
        },
        {
          "name": "F#2",
          "midi": 42,
          "time": 48.514265499999865,
          "velocity": 0.4330708661417323,
          "duration": 0.00035714270833153705
        },
        {
          "name": "F#2",
          "midi": 42,
          "time": 48.68569399999986,
          "velocity": 0.8346456692913385,
          "duration": 0.00035714270833153705
        },
        {
          "name": "F#2",
          "midi": 42,
          "time": 48.85712249999986,
          "velocity": 0.4330708661417323,
          "duration": 0.00035714270833153705
        },
        {
          "name": "F#2",
          "midi": 42,
          "time": 49.02855099999986,
          "velocity": 0.8976377952755905,
          "duration": 0.00035714270833153705
        },
        {
          "name": "F#2",
          "midi": 42,
          "time": 49.199979499999856,
          "velocity": 0.44881889763779526,
          "duration": 0.00035714270833153705
        },
        {
          "name": "F#2",
          "midi": 42,
          "time": 49.37140799999985,
          "velocity": 0.84251968503937,
          "duration": 0.00035714270833153705
        },
        {
          "name": "F#2",
          "midi": 42,
          "time": 49.54283649999985,
          "velocity": 0.4566929133858268,
          "duration": 0.00035714270833153705
        },
        {
          "name": "F#2",
          "midi": 42,
          "time": 49.71426499999985,
          "velocity": 0.8188976377952756,
          "duration": 0.00035714270833153705
        },
        {
          "name": "F#2",
          "midi": 42,
          "time": 49.885693499999846,
          "velocity": 0.4566929133858268,
          "duration": 0.00035714270833153705
        },
        {
          "name": "F#2",
          "midi": 42,
          "time": 50.05712199999984,
          "velocity": 0.8346456692913385,
          "duration": 0.00035714270833153705
        },
        {
          "name": "F#2",
          "midi": 42,
          "time": 50.22855049999984,
          "velocity": 0.4094488188976378,
          "duration": 0.00035714270833153705
        },
        {
          "name": "F#2",
          "midi": 42,
          "time": 50.39997899999984,
          "velocity": 0.8976377952755905,
          "duration": 0.00035714270833153705
        },
        {
          "name": "F#2",
          "midi": 42,
          "time": 50.571407499999836,
          "velocity": 0.3937007874015748,
          "duration": 0.00035714270833153705
        },
        {
          "name": "F#2",
          "midi": 42,
          "time": 50.74283599999983,
          "velocity": 0.84251968503937,
          "duration": 0.00035714270833153705
        },
        {
          "name": "F#2",
          "midi": 42,
          "time": 50.91426449999983,
          "velocity": 0.4251968503937008,
          "duration": 0.00035714270833153705
        },
        {
          "name": "F#2",
          "midi": 42,
          "time": 51.08569299999983,
          "velocity": 0.8188976377952756,
          "duration": 0.00035714270833153705
        },
        {
          "name": "F#2",
          "midi": 42,
          "time": 51.257121499999826,
          "velocity": 0.4330708661417323,
          "duration": 0.00035714270833153705
        },
        {
          "name": "F#2",
          "midi": 42,
          "time": 51.428549999999824,
          "velocity": 0.8346456692913385,
          "duration": 0.00035714270833153705
        },
        {
          "name": "F#2",
          "midi": 42,
          "time": 51.59997849999982,
          "velocity": 0.4330708661417323,
          "duration": 0.00035714270833153705
        },
        {
          "name": "F#2",
          "midi": 42,
          "time": 51.77140699999982,
          "velocity": 0.8976377952755905,
          "duration": 0.00035714270833153705
        },
        {
          "name": "F#2",
          "midi": 42,
          "time": 51.942835499999816,
          "velocity": 0.44881889763779526,
          "duration": 0.00035714270833153705
        },
        {
          "name": "F#2",
          "midi": 42,
          "time": 52.114263999999814,
          "velocity": 0.84251968503937,
          "duration": 0.00035714270833153705
        },
        {
          "name": "F#2",
          "midi": 42,
          "time": 52.28569249999981,
          "velocity": 0.4566929133858268,
          "duration": 0.00035714270833153705
        },
        {
          "name": "F#2",
          "midi": 42,
          "time": 52.45712099999981,
          "velocity": 0.8188976377952756,
          "duration": 0.00035714270833153705
        },
        {
          "name": "F#2",
          "midi": 42,
          "time": 52.62854949999981,
          "velocity": 0.4566929133858268,
          "duration": 0.00035714270833153705
        },
        {
          "name": "F#2",
          "midi": 42,
          "time": 52.799977999999804,
          "velocity": 0.8346456692913385,
          "duration": 0.00035714270833153705
        },
        {
          "name": "F#2",
          "midi": 42,
          "time": 52.9714064999998,
          "velocity": 0.4094488188976378,
          "duration": 0.00035714270833153705
        },
        {
          "name": "F#2",
          "midi": 42,
          "time": 53.1428349999998,
          "velocity": 0.8976377952755905,
          "duration": 0.00035714270833153705
        },
        {
          "name": "F#2",
          "midi": 42,
          "time": 53.3142634999998,
          "velocity": 0.3937007874015748,
          "duration": 0.00035714270833153705
        },
        {
          "name": "F#2",
          "midi": 42,
          "time": 53.485691999999794,
          "velocity": 0.84251968503937,
          "duration": 0.00035714270833153705
        },
        {
          "name": "F#2",
          "midi": 42,
          "time": 53.65712049999979,
          "velocity": 0.4251968503937008,
          "duration": 0.00035714270833153705
        },
        {
          "name": "F#2",
          "midi": 42,
          "time": 53.82854899999979,
          "velocity": 0.8188976377952756,
          "duration": 0.00035714270833153705
        },
        {
          "name": "F#2",
          "midi": 42,
          "time": 53.99997749999979,
          "velocity": 0.4330708661417323,
          "duration": 0.00035714270833153705
        },
        {
          "name": "F#2",
          "midi": 42,
          "time": 54.171405999999784,
          "velocity": 0.8346456692913385,
          "duration": 0.00035714270833153705
        },
        {
          "name": "F#2",
          "midi": 42,
          "time": 54.34283449999978,
          "velocity": 0.4330708661417323,
          "duration": 0.00035714270833153705
        },
        {
          "name": "F#2",
          "midi": 42,
          "time": 54.51426299999978,
          "velocity": 0.8346456692913385,
          "duration": 0.00035714270833153705
        },
        {
          "name": "F#2",
          "midi": 42,
          "time": 54.68569149999978,
          "velocity": 0.4330708661417323,
          "duration": 0.00035714270833153705
        },
        {
          "name": "F#2",
          "midi": 42,
          "time": 54.857119999999775,
          "velocity": 0.8976377952755905,
          "duration": 0.00035714270833153705
        },
        {
          "name": "F#2",
          "midi": 42,
          "time": 55.02854849999977,
          "velocity": 0.4645669291338583,
          "duration": 0.00035714270833153705
        },
        {
          "name": "F#2",
          "midi": 42,
          "time": 55.19997699999977,
          "velocity": 0.84251968503937,
          "duration": 0.00035714270833153705
        },
        {
          "name": "F#2",
          "midi": 42,
          "time": 55.37140549999977,
          "velocity": 0.4645669291338583,
          "duration": 0.00035714270833153705
        },
        {
          "name": "F#2",
          "midi": 42,
          "time": 55.542833999999765,
          "velocity": 0.8188976377952756,
          "duration": 0.00035714270833153705
        },
        {
          "name": "A#2",
          "midi": 46,
          "time": 55.71426249999976,
          "velocity": 0.7874015748031497,
          "duration": 0.00035714270833153705
        },
        {
          "name": "C#3",
          "midi": 49,
          "time": 55.88569099999976,
          "velocity": 0.7874015748031497,
          "duration": 0.00035714270833153705
        },
        {
          "name": "F#2",
          "midi": 42,
          "time": 56.228547999999755,
          "velocity": 0.8976377952755905,
          "duration": 0.00035714270833153705
        },
        {
          "name": "F#2",
          "midi": 42,
          "time": 56.39997649999975,
          "velocity": 0.4645669291338583,
          "duration": 0.00035714270833153705
        },
        {
          "name": "F#2",
          "midi": 42,
          "time": 56.57140499999975,
          "velocity": 0.84251968503937,
          "duration": 0.00035714270833153705
        },
        {
          "name": "F#2",
          "midi": 42,
          "time": 56.74283349999975,
          "velocity": 0.47244094488188976,
          "duration": 0.00035714270833153705
        },
        {
          "name": "F#2",
          "midi": 42,
          "time": 56.914261999999745,
          "velocity": 0.8188976377952756,
          "duration": 0.00035714270833153705
        },
        {
          "name": "F#2",
          "midi": 42,
          "time": 57.08569049999974,
          "velocity": 0.4645669291338583,
          "duration": 0.00035714270833153705
        },
        {
          "name": "F#2",
          "midi": 42,
          "time": 57.25711899999974,
          "velocity": 0.8346456692913385,
          "duration": 0.00035714270833153705
        },
        {
          "name": "F#2",
          "midi": 42,
          "time": 57.42854749999974,
          "velocity": 0.47244094488188976,
          "duration": 0.00035714270833153705
        },
        {
          "name": "F#2",
          "midi": 42,
          "time": 57.599975999999735,
          "velocity": 0.8976377952755905,
          "duration": 0.00035714270833153705
        },
        {
          "name": "F#2",
          "midi": 42,
          "time": 57.77140449999973,
          "velocity": 0.48031496062992124,
          "duration": 0.00035714270833153705
        },
        {
          "name": "F#2",
          "midi": 42,
          "time": 57.94283299999973,
          "velocity": 0.84251968503937,
          "duration": 0.00035714270833153705
        },
        {
          "name": "F#2",
          "midi": 42,
          "time": 58.11426149999973,
          "velocity": 0.44881889763779526,
          "duration": 0.00035714270833153705
        },
        {
          "name": "F#2",
          "midi": 42,
          "time": 58.285689999999725,
          "velocity": 0.8188976377952756,
          "duration": 0.00035714270833153705
        },
        {
          "name": "F#2",
          "midi": 42,
          "time": 58.45711849999972,
          "velocity": 0.5354330708661418,
          "duration": 0.00035714270833153705
        },
        {
          "name": "F#2",
          "midi": 42,
          "time": 58.54283274999972,
          "velocity": 0.6299212598425197,
          "duration": 0.00035714270833153705
        },
        {
          "name": "F#2",
          "midi": 42,
          "time": 58.62854699999971,
          "velocity": 0.8346456692913385,
          "duration": 0.00035714270833153705
        },
        {
          "name": "F#2",
          "midi": 42,
          "time": 58.79997549999971,
          "velocity": 0.4566929133858268,
          "duration": 0.00035714270833153705
        },
        {
          "name": "F#2",
          "midi": 42,
          "time": 58.97140399999971,
          "velocity": 0.8976377952755905,
          "duration": 0.00035714270833153705
        },
        {
          "name": "F#2",
          "midi": 42,
          "time": 59.142832499999706,
          "velocity": 0.47244094488188976,
          "duration": 0.00035714270833153705
        },
        {
          "name": "F#2",
          "midi": 42,
          "time": 59.3142609999997,
          "velocity": 0.84251968503937,
          "duration": 0.00035714270833153705
        },
        {
          "name": "F#2",
          "midi": 42,
          "time": 59.4856894999997,
          "velocity": 0.4645669291338583,
          "duration": 0.00035714270833153705
        },
        {
          "name": "F#2",
          "midi": 42,
          "time": 59.6571179999997,
          "velocity": 0.8188976377952756,
          "duration": 0.00035714270833153705
        },
        {
          "name": "A#2",
          "midi": 46,
          "time": 59.828546499999696,
          "velocity": 0.7244094488188977,
          "duration": 0.00035714270833153705
        },
        {
          "name": "F#2",
          "midi": 42,
          "time": 59.999974999999694,
          "velocity": 0.8346456692913385,
          "duration": 0.00035714270833153705
        },
        {
          "name": "A#2",
          "midi": 46,
          "time": 60.17140349999969,
          "velocity": 0.7244094488188977,
          "duration": 0.00035714270833153705
        },
        {
          "name": "F#2",
          "midi": 42,
          "time": 60.34283199999969,
          "velocity": 0.8976377952755905,
          "duration": 0.00035714270833153705
        },
        {
          "name": "F#2",
          "midi": 42,
          "time": 60.514260499999686,
          "velocity": 0.4645669291338583,
          "duration": 0.00035714270833153705
        },
        {
          "name": "F#2",
          "midi": 42,
          "time": 60.685688999999684,
          "velocity": 0.84251968503937,
          "duration": 0.00035714270833153705
        },
        {
          "name": "F#2",
          "midi": 42,
          "time": 60.85711749999968,
          "velocity": 0.4566929133858268,
          "duration": 0.00035714270833153705
        },
        {
          "name": "F#2",
          "midi": 42,
          "time": 61.02854599999968,
          "velocity": 0.8188976377952756,
          "duration": 0.00035714270833153705
        },
        {
          "name": "F#2",
          "midi": 42,
          "time": 61.199974499999676,
          "velocity": 0.5354330708661418,
          "duration": 0.00035714270833153705
        },
        {
          "name": "F#2",
          "midi": 42,
          "time": 61.28568874999967,
          "velocity": 0.5748031496062992,
          "duration": 0.00035714270833153705
        },
        {
          "name": "C#3",
          "midi": 49,
          "time": 61.37140299999967,
          "velocity": 0.7874015748031497,
          "duration": 0.00035714270833153705
        },
        {
          "name": "F#2",
          "midi": 42,
          "time": 61.71425999999966,
          "velocity": 0.8976377952755905,
          "duration": 0.00035714270833153705
        },
        {
          "name": "F#2",
          "midi": 42,
          "time": 61.88568849999966,
          "velocity": 0.48031496062992124,
          "duration": 0.00035714270833153705
        },
        {
          "name": "F#2",
          "midi": 42,
          "time": 62.05711699999966,
          "velocity": 0.84251968503937,
          "duration": 0.00035714270833153705
        },
        {
          "name": "F#2",
          "midi": 42,
          "time": 62.228545499999655,
          "velocity": 0.48031496062992124,
          "duration": 0.00035714270833153705
        },
        {
          "name": "F#2",
          "midi": 42,
          "time": 62.39997399999965,
          "velocity": 0.8188976377952756,
          "duration": 0.00035714270833153705
        },
        {
          "name": "F#2",
          "midi": 42,
          "time": 62.57140249999965,
          "velocity": 0.4645669291338583,
          "duration": 0.00035714270833153705
        },
        {
          "name": "A3",
          "midi": 57,
          "time": 62.74283099999965,
          "velocity": 0.8346456692913385,
          "duration": 0.00035714270833153705
        },
        {
          "name": "F#2",
          "midi": 42,
          "time": 63.08568799999964,
          "velocity": 0.8976377952755905,
          "duration": 0.00035714270833153705
        },
        {
          "name": "F#2",
          "midi": 42,
          "time": 63.25711649999964,
          "velocity": 0.44881889763779526,
          "duration": 0.00035714270833153705
        },
        {
          "name": "F#2",
          "midi": 42,
          "time": 63.42854499999964,
          "velocity": 0.84251968503937,
          "duration": 0.00035714270833153705
        },
        {
          "name": "F#2",
          "midi": 42,
          "time": 63.599973499999635,
          "velocity": 0.4566929133858268,
          "duration": 0.00035714270833153705
        },
        {
          "name": "A#2",
          "midi": 46,
          "time": 63.77140199999963,
          "velocity": 0.8188976377952756,
          "duration": 0.00035714270833153705
        },
        {
          "name": "C#3",
          "midi": 49,
          "time": 64.11425899999963,
          "velocity": 0.7874015748031497,
          "duration": 0.0003571427083386425
        },
        {
          "name": "A#2",
          "midi": 46,
          "time": 64.45711599999964,
          "velocity": 0.8976377952755905,
          "duration": 0.0003571427083386425
        },
        {
          "name": "C3",
          "midi": 48,
          "time": 64.97140149999964,
          "velocity": 0.7874015748031497,
          "duration": 0.0003571427083386425
        },
        {
          "name": "A2",
          "midi": 45,
          "time": 64.97140149999964,
          "velocity": 0.7874015748031497,
          "duration": 0.0003571427083386425
        },
        {
          "name": "B2",
          "midi": 47,
          "time": 65.14282999999965,
          "velocity": 0.7874015748031497,
          "duration": 0.0003571427083386425
        },
        {
          "name": "A2",
          "midi": 45,
          "time": 65.14282999999965,
          "velocity": 0.7874015748031497,
          "duration": 0.0003571427083386425
        },
        {
          "name": "A2",
          "midi": 45,
          "time": 65.31425849999965,
          "velocity": 0.7874015748031497,
          "duration": 0.0003571427083386425
        },
        {
          "name": "G2",
          "midi": 43,
          "time": 65.31425849999965,
          "velocity": 0.7874015748031497,
          "duration": 0.0003571427083386425
        },
        {
          "name": "C#3",
          "midi": 49,
          "time": 65.48568699999966,
          "velocity": 0.7874015748031497,
          "duration": 0.0003571427083386425
        },
        {
          "name": "A3",
          "midi": 57,
          "time": 65.48568699999966,
          "velocity": 0.7874015748031497,
          "duration": 0.0003571427083386425
        },
        {
          "name": "C#3",
          "midi": 49,
          "time": 66.85711499999967,
          "velocity": 0.7874015748031497,
          "duration": 0.0003571427083386425
        },
        {
          "name": "F3",
          "midi": 53,
          "time": 67.19997199999968,
          "velocity": 0.8346456692913385,
          "duration": 0.0003571427083386425
        },
        {
          "name": "F#3",
          "midi": 54,
          "time": 67.19997199999968,
          "velocity": 0.5748031496062992,
          "duration": 0.0003571427083386425
        },
        {
          "name": "F3",
          "midi": 53,
          "time": 67.37140049999968,
          "velocity": 0.5669291338582677,
          "duration": 0.0003571427083386425
        },
        {
          "name": "F3",
          "midi": 53,
          "time": 67.54282899999968,
          "velocity": 0.8976377952755905,
          "duration": 0.0003571427083386425
        },
        {
          "name": "F3",
          "midi": 53,
          "time": 67.71425749999969,
          "velocity": 0.5984251968503937,
          "duration": 0.0003571427083386425
        },
        {
          "name": "F3",
          "midi": 53,
          "time": 67.8856859999997,
          "velocity": 0.84251968503937,
          "duration": 0.0003571427083386425
        },
        {
          "name": "F#3",
          "midi": 54,
          "time": 67.8856859999997,
          "velocity": 0.5590551181102362,
          "duration": 0.0003571427083386425
        },
        {
          "name": "F3",
          "midi": 53,
          "time": 68.0571144999997,
          "velocity": 0.5905511811023622,
          "duration": 0.0003571427083386425
        },
        {
          "name": "F3",
          "midi": 53,
          "time": 68.2285429999997,
          "velocity": 0.8188976377952756,
          "duration": 0.0003571427083386425
        },
        {
          "name": "F3",
          "midi": 53,
          "time": 68.39997149999971,
          "velocity": 0.5354330708661418,
          "duration": 0.0003571427083386425
        },
        {
          "name": "F3",
          "midi": 53,
          "time": 68.57139999999971,
          "velocity": 0.8346456692913385,
          "duration": 0.0003571427083386425
        },
        {
          "name": "F#3",
          "midi": 54,
          "time": 68.57139999999971,
          "velocity": 0.5905511811023622,
          "duration": 0.0003571427083386425
        },
        {
          "name": "F3",
          "midi": 53,
          "time": 68.74282849999972,
          "velocity": 0.5669291338582677,
          "duration": 0.0003571427083386425
        },
        {
          "name": "F3",
          "midi": 53,
          "time": 68.91425699999972,
          "velocity": 0.8976377952755905,
          "duration": 0.0003571427083386425
        },
        {
          "name": "F3",
          "midi": 53,
          "time": 69.08568549999973,
          "velocity": 0.5984251968503937,
          "duration": 0.0003571427083386425
        },
        {
          "name": "F3",
          "midi": 53,
          "time": 69.25711399999973,
          "velocity": 0.84251968503937,
          "duration": 0.0003571427083386425
        },
        {
          "name": "F#3",
          "midi": 54,
          "time": 69.25711399999973,
          "velocity": 0.5511811023622047,
          "duration": 0.0003571427083386425
        },
        {
          "name": "F3",
          "midi": 53,
          "time": 69.42854249999974,
          "velocity": 0.5905511811023622,
          "duration": 0.0003571427083386425
        },
        {
          "name": "F3",
          "midi": 53,
          "time": 69.59997099999974,
          "velocity": 0.8188976377952756,
          "duration": 0.0003571427083386425
        },
        {
          "name": "F3",
          "midi": 53,
          "time": 69.77139949999975,
          "velocity": 0.5354330708661418,
          "duration": 0.0003571427083386425
        },
        {
          "name": "F3",
          "midi": 53,
          "time": 69.94282799999975,
          "velocity": 0.8346456692913385,
          "duration": 0.0003571427083386425
        },
        {
          "name": "F#3",
          "midi": 54,
          "time": 69.94282799999975,
          "velocity": 0.6062992125984252,
          "duration": 0.0003571427083386425
        },
        {
          "name": "F3",
          "midi": 53,
          "time": 70.11425649999975,
          "velocity": 0.5669291338582677,
          "duration": 0.0003571427083386425
        },
        {
          "name": "F3",
          "midi": 53,
          "time": 70.28568499999976,
          "velocity": 0.8976377952755905,
          "duration": 0.0003571427083386425
        },
        {
          "name": "F3",
          "midi": 53,
          "time": 70.45711349999976,
          "velocity": 0.5984251968503937,
          "duration": 0.0003571427083386425
        },
        {
          "name": "F3",
          "midi": 53,
          "time": 70.62854199999977,
          "velocity": 0.84251968503937,
          "duration": 0.0003571427083386425
        },
        {
          "name": "F#3",
          "midi": 54,
          "time": 70.62854199999977,
          "velocity": 0.5826771653543307,
          "duration": 0.0003571427083386425
        },
        {
          "name": "F3",
          "midi": 53,
          "time": 70.79997049999977,
          "velocity": 0.5905511811023622,
          "duration": 0.0003571427083386425
        },
        {
          "name": "F3",
          "midi": 53,
          "time": 70.97139899999978,
          "velocity": 0.8188976377952756,
          "duration": 0.0003571427083386425
        },
        {
          "name": "F3",
          "midi": 53,
          "time": 71.14282749999978,
          "velocity": 0.5354330708661418,
          "duration": 0.0003571427083386425
        },
        {
          "name": "F3",
          "midi": 53,
          "time": 71.31425599999979,
          "velocity": 0.8346456692913385,
          "duration": 0.0003571427083386425
        },
        {
          "name": "F#3",
          "midi": 54,
          "time": 71.31425599999979,
          "velocity": 0.5275590551181102,
          "duration": 0.0003571427083386425
        },
        {
          "name": "F3",
          "midi": 53,
          "time": 71.48568449999979,
          "velocity": 0.5669291338582677,
          "duration": 0.0003571427083386425
        },
        {
          "name": "F3",
          "midi": 53,
          "time": 71.6571129999998,
          "velocity": 0.8976377952755905,
          "duration": 0.0003571427083386425
        },
        {
          "name": "F3",
          "midi": 53,
          "time": 71.8285414999998,
          "velocity": 0.5984251968503937,
          "duration": 0.0003571427083386425
        },
        {
          "name": "F3",
          "midi": 53,
          "time": 71.9999699999998,
          "velocity": 0.84251968503937,
          "duration": 0.0003571427083386425
        },
        {
          "name": "F#3",
          "midi": 54,
          "time": 71.9999699999998,
          "velocity": 0.5590551181102362,
          "duration": 0.0003571427083386425
        },
        {
          "name": "F3",
          "midi": 53,
          "time": 72.17139849999981,
          "velocity": 0.5905511811023622,
          "duration": 0.0003571427083386425
        },
        {
          "name": "C#3",
          "midi": 49,
          "time": 72.34282699999982,
          "velocity": 0.7874015748031497,
          "duration": 0.0003571427083386425
        },
        {
          "name": "F3",
          "midi": 53,
          "time": 72.68568399999982,
          "velocity": 0.8346456692913385,
          "duration": 0.0003571427083386425
        },
        {
          "name": "F#3",
          "midi": 54,
          "time": 72.68568399999982,
          "velocity": 0.5669291338582677,
          "duration": 0.0003571427083386425
        },
        {
          "name": "F3",
          "midi": 53,
          "time": 72.85711249999983,
          "velocity": 0.5669291338582677,
          "duration": 0.0003571427083386425
        },
        {
          "name": "F3",
          "midi": 53,
          "time": 73.02854099999983,
          "velocity": 0.8976377952755905,
          "duration": 0.0003571427083386425
        },
        {
          "name": "F3",
          "midi": 53,
          "time": 73.19996949999984,
          "velocity": 0.5984251968503937,
          "duration": 0.0003571427083386425
        },
        {
          "name": "F3",
          "midi": 53,
          "time": 73.37139799999984,
          "velocity": 0.84251968503937,
          "duration": 0.0003571427083386425
        },
        {
          "name": "F#3",
          "midi": 54,
          "time": 73.37139799999984,
          "velocity": 0.6062992125984252,
          "duration": 0.0003571427083386425
        },
        {
          "name": "F3",
          "midi": 53,
          "time": 73.54282649999985,
          "velocity": 0.5905511811023622,
          "duration": 0.0003571427083386425
        },
        {
          "name": "F3",
          "midi": 53,
          "time": 73.71425499999985,
          "velocity": 0.8188976377952756,
          "duration": 0.0003571427083386425
        },
        {
          "name": "F3",
          "midi": 53,
          "time": 73.88568349999986,
          "velocity": 0.5354330708661418,
          "duration": 0.0003571427083386425
        },
        {
          "name": "F3",
          "midi": 53,
          "time": 74.05711199999986,
          "velocity": 0.8346456692913385,
          "duration": 0.0003571427083386425
        },
        {
          "name": "F#3",
          "midi": 54,
          "time": 74.05711199999986,
          "velocity": 0.5511811023622047,
          "duration": 0.0003571427083386425
        },
        {
          "name": "F3",
          "midi": 53,
          "time": 74.22854049999987,
          "velocity": 0.5669291338582677,
          "duration": 0.0003571427083386425
        },
        {
          "name": "F3",
          "midi": 53,
          "time": 74.39996899999987,
          "velocity": 0.8976377952755905,
          "duration": 0.0003571427083386425
        },
        {
          "name": "F3",
          "midi": 53,
          "time": 74.57139749999988,
          "velocity": 0.5984251968503937,
          "duration": 0.0003571427083386425
        },
        {
          "name": "F3",
          "midi": 53,
          "time": 74.74282599999988,
          "velocity": 0.84251968503937,
          "duration": 0.0003571427083386425
        },
        {
          "name": "F#3",
          "midi": 54,
          "time": 74.74282599999988,
          "velocity": 0.5669291338582677,
          "duration": 0.0003571427083386425
        },
        {
          "name": "F3",
          "midi": 53,
          "time": 74.91425449999988,
          "velocity": 0.5905511811023622,
          "duration": 0.0003571427083386425
        },
        {
          "name": "A3",
          "midi": 57,
          "time": 75.08568299999989,
          "velocity": 0.7874015748031497,
          "duration": 0.0003571427083386425
        },
        {
          "name": "F3",
          "midi": 53,
          "time": 75.4285399999999,
          "velocity": 0.8346456692913385,
          "duration": 0.0003571427083386425
        },
        {
          "name": "F#3",
          "midi": 54,
          "time": 75.4285399999999,
          "velocity": 0.5905511811023622,
          "duration": 0.0003571427083386425
        },
        {
          "name": "F3",
          "midi": 53,
          "time": 75.5999684999999,
          "velocity": 0.5669291338582677,
          "duration": 0.0003571427083386425
        },
        {
          "name": "F3",
          "midi": 53,
          "time": 75.77139699999991,
          "velocity": 0.8976377952755905,
          "duration": 0.0003571427083386425
        },
        {
          "name": "F#3",
          "midi": 54,
          "time": 75.77139699999991,
          "velocity": 0.5511811023622047,
          "duration": 0.0003571427083386425
        },
        {
          "name": "F3",
          "midi": 53,
          "time": 75.94282549999991,
          "velocity": 0.5984251968503937,
          "duration": 0.0003571427083386425
        },
        {
          "name": "F3",
          "midi": 53,
          "time": 76.11425399999992,
          "velocity": 0.84251968503937,
          "duration": 0.0003571427083386425
        },
        {
          "name": "F#3",
          "midi": 54,
          "time": 76.11425399999992,
          "velocity": 0.5826771653543307,
          "duration": 0.0003571427083386425
        },
        {
          "name": "A3",
          "midi": 57,
          "time": 76.28568249999992,
          "velocity": 0.7874015748031497,
          "duration": 0.0003571427083386425
        },
        {
          "name": "F3",
          "midi": 53,
          "time": 76.45711099999993,
          "velocity": 0.8188976377952756,
          "duration": 0.0003571427083386425
        },
        {
          "name": "F3",
          "midi": 53,
          "time": 76.62853949999993,
          "velocity": 0.5354330708661418,
          "duration": 0.0003571427083386425
        },
        {
          "name": "F3",
          "midi": 53,
          "time": 76.79996799999994,
          "velocity": 0.8346456692913385,
          "duration": 0.0003571427083386425
        },
        {
          "name": "F#3",
          "midi": 54,
          "time": 76.79996799999994,
          "velocity": 0.5511811023622047,
          "duration": 0.0003571427083386425
        },
        {
          "name": "F3",
          "midi": 53,
          "time": 76.97139649999994,
          "velocity": 0.5669291338582677,
          "duration": 0.0003571427083386425
        },
        {
          "name": "F3",
          "midi": 53,
          "time": 77.14282499999995,
          "velocity": 0.8976377952755905,
          "duration": 0.0003571427083386425
        },
        {
          "name": "F3",
          "midi": 53,
          "time": 77.31425349999995,
          "velocity": 0.5984251968503937,
          "duration": 0.0003571427083386425
        },
        {
          "name": "A2",
          "midi": 45,
          "time": 77.65711049999996,
          "velocity": 0.7874015748031497,
          "duration": 0.0003571427083386425
        },
        {
          "name": "B2",
          "midi": 47,
          "time": 77.65711049999996,
          "velocity": 0.7874015748031497,
          "duration": 0.0003571427083386425
        },
        {
          "name": "G2",
          "midi": 43,
          "time": 77.74282474999997,
          "velocity": 0.7874015748031497,
          "duration": 0.0003571427083386425
        },
        {
          "name": "A2",
          "midi": 45,
          "time": 77.74282474999997,
          "velocity": 0.7874015748031497,
          "duration": 0.0003571427083386425
        },
        {
          "name": "C#3",
          "midi": 49,
          "time": 77.82853899999998,
          "velocity": 0.7874015748031497,
          "duration": 0.0003571427083386425
        },
        {
          "name": "F3",
          "midi": 53,
          "time": 78.17139599999999,
          "velocity": 0.8346456692913385,
          "duration": 0.0003571427083386425
        },
        {
          "name": "F#3",
          "midi": 54,
          "time": 78.17139599999999,
          "velocity": 0.5826771653543307,
          "duration": 0.0003571427083386425
        },
        {
          "name": "F3",
          "midi": 53,
          "time": 78.34282449999999,
          "velocity": 0.5669291338582677,
          "duration": 0.0003571427083386425
        },
        {
          "name": "F3",
          "midi": 53,
          "time": 78.514253,
          "velocity": 0.8976377952755905,
          "duration": 0.0003571427083386425
        },
        {
          "name": "F3",
          "midi": 53,
          "time": 78.6856815,
          "velocity": 0.5984251968503937,
          "duration": 0.0003571427083386425
        },
        {
          "name": "F#3",
          "midi": 54,
          "time": 78.85711,
          "velocity": 0.5433070866141733,
          "duration": 0.0003571427083386425
        },
        {
          "name": "F#3",
          "midi": 54,
          "time": 79.54282400000001,
          "velocity": 0.5511811023622047,
          "duration": 0.0003571427083386425
        },
        {
          "name": "A#2",
          "midi": 46,
          "time": 79.71425250000001,
          "velocity": 0.7874015748031497,
          "duration": 0.0003571427083386425
        },
        {
          "name": "G#2",
          "midi": 44,
          "time": 79.88568100000002,
          "velocity": 0.007874015748031496,
          "duration": 0.0003571427083386425
        },
        {
          "name": "A#2",
          "midi": 46,
          "time": 80.05710950000002,
          "velocity": 0.7874015748031497,
          "duration": 0.0003571427083386425
        },
        {
          "name": "G#2",
          "midi": 44,
          "time": 80.22853800000003,
          "velocity": 0.007874015748031496,
          "duration": 0.0003571427083386425
        },
        {
          "name": "A3",
          "midi": 57,
          "time": 80.3999665,
          "velocity": 0.7874015748031497,
          "duration": 0.0003571427083386425
        },
        {
          "name": "F3",
          "midi": 53,
          "time": 80.914252,
          "velocity": 0.8346456692913385,
          "duration": 0.0003571427083386425
        },
        {
          "name": "F#3",
          "midi": 54,
          "time": 80.914252,
          "velocity": 0.5511811023622047,
          "duration": 0.0003571427083386425
        },
        {
          "name": "F3",
          "midi": 53,
          "time": 81.08568050000001,
          "velocity": 0.5669291338582677,
          "duration": 0.0003571427083386425
        },
        {
          "name": "F3",
          "midi": 53,
          "time": 81.25710900000001,
          "velocity": 0.8976377952755905,
          "duration": 0.0003571427083386425
        },
        {
          "name": "F3",
          "midi": 53,
          "time": 81.42853750000002,
          "velocity": 0.5984251968503937,
          "duration": 0.0003571427083386425
        },
        {
          "name": "F3",
          "midi": 53,
          "time": 81.59996600000002,
          "velocity": 0.84251968503937,
          "duration": 0.0003571427083386425
        },
        {
          "name": "F#3",
          "midi": 54,
          "time": 81.59996600000002,
          "velocity": 0.5511811023622047,
          "duration": 0.0003571427083386425
        },
        {
          "name": "F3",
          "midi": 53,
          "time": 81.77139450000003,
          "velocity": 0.5905511811023622,
          "duration": 0.0003571427083386425
        },
        {
          "name": "F3",
          "midi": 53,
          "time": 81.94282300000003,
          "velocity": 0.8188976377952756,
          "duration": 0.0003571427083386425
        },
        {
          "name": "F3",
          "midi": 53,
          "time": 82.11425150000004,
          "velocity": 0.5354330708661418,
          "duration": 0.0003571427083386425
        },
        {
          "name": "F3",
          "midi": 53,
          "time": 82.28568000000004,
          "velocity": 0.8346456692913385,
          "duration": 0.0003571427083386425
        },
        {
          "name": "F#3",
          "midi": 54,
          "time": 82.28568000000004,
          "velocity": 0.5511811023622047,
          "duration": 0.0003571427083386425
        },
        {
          "name": "G3",
          "midi": 55,
          "time": 82.45710850000005,
          "velocity": 0.7874015748031497,
          "duration": 0.0003571427083386425
        },
        {
          "name": "F3",
          "midi": 53,
          "time": 82.62853700000005,
          "velocity": 0.8976377952755905,
          "duration": 0.0003571427083386425
        },
        {
          "name": "F3",
          "midi": 53,
          "time": 82.79996550000006,
          "velocity": 0.5984251968503937,
          "duration": 0.0003571427083386425
        },
        {
          "name": "F3",
          "midi": 53,
          "time": 82.97139400000006,
          "velocity": 0.84251968503937,
          "duration": 0.0003571427083386425
        },
        {
          "name": "F#3",
          "midi": 54,
          "time": 82.97139400000006,
          "velocity": 0.5590551181102362,
          "duration": 0.0003571427083386425
        },
        {
          "name": "F3",
          "midi": 53,
          "time": 83.14282250000007,
          "velocity": 0.5905511811023622,
          "duration": 0.0003571427083386425
        },
        {
          "name": "F3",
          "midi": 53,
          "time": 83.31425100000007,
          "velocity": 0.8346456692913385,
          "duration": 0.0003571427083386425
        },
        {
          "name": "F3",
          "midi": 53,
          "time": 83.48567950000007,
          "velocity": 0.5669291338582677,
          "duration": 0.0003571427083386425
        },
        {
          "name": "F3",
          "midi": 53,
          "time": 83.65710800000008,
          "velocity": 0.8976377952755905,
          "duration": 0.0003571427083386425
        },
        {
          "name": "F#3",
          "midi": 54,
          "time": 83.65710800000008,
          "velocity": 0.5826771653543307,
          "duration": 0.0003571427083386425
        },
        {
          "name": "F3",
          "midi": 53,
          "time": 83.82853650000008,
          "velocity": 0.5984251968503937,
          "duration": 0.0003571427083386425
        },
        {
          "name": "F3",
          "midi": 53,
          "time": 83.99996500000009,
          "velocity": 0.84251968503937,
          "duration": 0.0003571427083386425
        },
        {
          "name": "F3",
          "midi": 53,
          "time": 84.1713935000001,
          "velocity": 0.5905511811023622,
          "duration": 0.0003571427083386425
        },
        {
          "name": "F3",
          "midi": 53,
          "time": 84.3428220000001,
          "velocity": 0.8188976377952756,
          "duration": 0.0003571427083386425
        },
        {
          "name": "F#3",
          "midi": 54,
          "time": 84.3428220000001,
          "velocity": 0.5669291338582677,
          "duration": 0.0003571427083386425
        },
        {
          "name": "F3",
          "midi": 53,
          "time": 84.5142505000001,
          "velocity": 0.5354330708661418,
          "duration": 0.0003571427083386425
        },
        {
          "name": "A3",
          "midi": 57,
          "time": 84.6856790000001,
          "velocity": 0.7874015748031497,
          "duration": 0.0003571427083386425
        },
        {
          "name": "A3",
          "midi": 57,
          "time": 85.02853600000012,
          "velocity": 0.7874015748031497,
          "duration": 0.0003571427083386425
        },
        {
          "name": "F#3",
          "midi": 54,
          "time": 85.02853600000012,
          "velocity": 0.5590551181102362,
          "duration": 0.0003571427083386425
        },
        {
          "name": "F3",
          "midi": 53,
          "time": 85.37139300000013,
          "velocity": 0.84251968503937,
          "duration": 0.0003571427083386425
        },
        {
          "name": "F3",
          "midi": 53,
          "time": 85.54282150000013,
          "velocity": 0.5905511811023622,
          "duration": 0.0003571427083386425
        },
        {
          "name": "F3",
          "midi": 53,
          "time": 85.71425000000013,
          "velocity": 0.8188976377952756,
          "duration": 0.0003571427083386425
        },
        {
          "name": "F#3",
          "midi": 54,
          "time": 85.71425000000013,
          "velocity": 0.5354330708661418,
          "duration": 0.0003571427083386425
        },
        {
          "name": "F3",
          "midi": 53,
          "time": 85.88567850000014,
          "velocity": 0.5354330708661418,
          "duration": 0.0003571427083386425
        },
        {
          "name": "C#3",
          "midi": 49,
          "time": 86.05710700000014,
          "velocity": 0.7874015748031497,
          "duration": 0.0003571427083386425
        },
        {
          "name": "C#3",
          "midi": 49,
          "time": 86.39996400000015,
          "velocity": 0.7874015748031497,
          "duration": 0.0003571427083386425
        },
        {
          "name": "A2",
          "midi": 45,
          "time": 86.39996400000015,
          "velocity": 0.7874015748031497,
          "duration": 0.0003571427083386425
        },
        {
          "name": "F#3",
          "midi": 54,
          "time": 86.39996400000015,
          "velocity": 0.6062992125984252,
          "duration": 0.0003571427083386425
        },
        {
          "name": "F#3",
          "midi": 54,
          "time": 86.74282100000016,
          "velocity": 0.5905511811023622,
          "duration": 0.0003571427083386425
        },
        {
          "name": "A2",
          "midi": 45,
          "time": 87.08567800000017,
          "velocity": 0.7874015748031497,
          "duration": 0.0003571427083386425
        },
        {
          "name": "B2",
          "midi": 47,
          "time": 87.08567800000017,
          "velocity": 0.7874015748031497,
          "duration": 0.0003571427083386425
        },
        {
          "name": "F#3",
          "midi": 54,
          "time": 87.08567800000017,
          "velocity": 0.5590551181102362,
          "duration": 0.0003571427083386425
        },
        {
          "name": "B2",
          "midi": 47,
          "time": 87.17139225000018,
          "velocity": 0.7874015748031497,
          "duration": 0.0003571427083386425
        },
        {
          "name": "A2",
          "midi": 45,
          "time": 87.17139225000018,
          "velocity": 0.7874015748031497,
          "duration": 0.0003571427083386425
        },
        {
          "name": "G2",
          "midi": 43,
          "time": 87.25710650000019,
          "velocity": 0.7874015748031497,
          "duration": 0.0003571427083386425
        },
        {
          "name": "A2",
          "midi": 45,
          "time": 87.25710650000019,
          "velocity": 0.7874015748031497,
          "duration": 0.0003571427083386425
        },
        {
          "name": "C#3",
          "midi": 49,
          "time": 87.4285350000002,
          "velocity": 0.7874015748031497,
          "duration": 0.0003571427083386425
        }
      ],
      "controlChanges": {
        "7": [
          {
            "number": 7,
            "time": 0.685714,
            "value": 0.9448818897637795
          }
        ],
        "10": [
          {
            "number": 10,
            "time": 0.685714,
            "value": 0.5039370078740157
          }
        ],
        "11": [
          {
            "number": 11,
            "time": 79.88568100000002,
            "value": 0.6220472440944882
          },
          {
            "number": 11,
            "time": 79.8874667135417,
            "value": 0.6456692913385826
          },
          {
            "number": 11,
            "time": 79.89460956770837,
            "value": 0.6535433070866141
          },
          {
            "number": 11,
            "time": 79.89639528125004,
            "value": 0.6456692913385826
          },
          {
            "number": 11,
            "time": 80.0481809322917,
            "value": 0.9921259842519685
          },
          {
            "number": 11,
            "time": 80.05175235937503,
            "value": 0.984251968503937
          },
          {
            "number": 11,
            "time": 80.0535380729167,
            "value": 0.984251968503937
          },
          {
            "number": 11,
            "time": 80.05532378645836,
            "value": 0.9763779527559056
          },
          {
            "number": 11,
            "time": 80.05710950000002,
            "value": 0.984251968503937
          },
          {
            "number": 11,
            "time": 80.23389514062504,
            "value": 0.7637795275590551
          },
          {
            "number": 11,
            "time": 80.2356808541667,
            "value": 0.7559055118110236
          },
          {
            "number": 11,
            "time": 80.23746656770837,
            "value": 0.6299212598425197
          },
          {
            "number": 11,
            "time": 80.23925228125003,
            "value": 0.5196850393700787
          },
          {
            "number": 11,
            "time": 80.2410379947917,
            "value": 0.6299212598425197
          },
          {
            "number": 11,
            "time": 80.26068084375002,
            "value": 0.6299212598425197
          },
          {
            "number": 11,
            "time": 80.38746650520835,
            "value": 0.7637795275590551
          },
          {
            "number": 11,
            "time": 80.38925221875002,
            "value": 0.9921259842519685
          },
          {
            "number": 11,
            "time": 80.39282364583335,
            "value": 0.9921259842519685
          },
          {
            "number": 11,
            "time": 80.39460935937501,
            "value": 0.9921259842519685
          }
        ],
        "32": [
          {
            "number": 32,
            "time": 0.685714,
            "value": 0
          }
        ]
      },
      "id": 10,
      "instrumentNumber": 0,
      "instrument": "standard kit",
      "instrumentFamily": "drums",
      "channelNumber": 9,
      "isPercussion": true
    },
    {
      "startTime": 11.999995000000002,
      "duration": 87.42889214270855,
      "length": 301,
      "notes": [
        {
          "name": "C2",
          "midi": 36,
          "time": 11.999995000000002,
          "velocity": 1,
          "duration": 0.0003571427083333134
        },
        {
          "name": "E2",
          "midi": 40,
          "time": 12.342852000000002,
          "velocity": 0.9921259842519685,
          "duration": 0.0003571427083333134
        },
        {
          "name": "C2",
          "midi": 36,
          "time": 12.685709000000003,
          "velocity": 1,
          "duration": 0.0003571427083333134
        },
        {
          "name": "C2",
          "midi": 36,
          "time": 12.857137500000002,
          "velocity": 1,
          "duration": 0.0003571427083333134
        },
        {
          "name": "E2",
          "midi": 40,
          "time": 13.028566000000001,
          "velocity": 0.9291338582677166,
          "duration": 0.0003571427083333134
        },
        {
          "name": "C2",
          "midi": 36,
          "time": 13.1999945,
          "velocity": 1,
          "duration": 0.0003571427083333134
        },
        {
          "name": "C2",
          "midi": 36,
          "time": 13.542851500000001,
          "velocity": 1,
          "duration": 0.0003571427083333134
        },
        {
          "name": "E2",
          "midi": 40,
          "time": 13.71428,
          "velocity": 0.984251968503937,
          "duration": 0.0003571427083333134
        },
        {
          "name": "C2",
          "midi": 36,
          "time": 14.057137,
          "velocity": 1,
          "duration": 0.0003571427083333134
        },
        {
          "name": "C2",
          "midi": 36,
          "time": 14.2285655,
          "velocity": 1,
          "duration": 0.0003571427083333134
        },
        {
          "name": "E2",
          "midi": 40,
          "time": 14.399994,
          "velocity": 0.9606299212598425,
          "duration": 0.0003571427083333134
        },
        {
          "name": "C2",
          "midi": 36,
          "time": 14.742851,
          "velocity": 1,
          "duration": 0.0003571427083333134
        },
        {
          "name": "E2",
          "midi": 40,
          "time": 15.085708,
          "velocity": 0.9921259842519685,
          "duration": 0.0003571427083333134
        },
        {
          "name": "C2",
          "midi": 36,
          "time": 15.428565,
          "velocity": 1,
          "duration": 0.0003571427083333134
        },
        {
          "name": "C2",
          "midi": 36,
          "time": 15.5999935,
          "velocity": 1,
          "duration": 0.0003571427083333134
        },
        {
          "name": "E2",
          "midi": 40,
          "time": 15.771422,
          "velocity": 0.9448818897637795,
          "duration": 0.0003571427083333134
        },
        {
          "name": "C2",
          "midi": 36,
          "time": 15.942850499999999,
          "velocity": 1,
          "duration": 0.0003571427083333134
        },
        {
          "name": "C2",
          "midi": 36,
          "time": 16.285707499999997,
          "velocity": 1,
          "duration": 0.00035714270833508976
        },
        {
          "name": "E2",
          "midi": 40,
          "time": 16.457136,
          "velocity": 0.937007874015748,
          "duration": 0.00035714270833508976
        },
        {
          "name": "C2",
          "midi": 36,
          "time": 16.6285645,
          "velocity": 1,
          "duration": 0.00035714270833508976
        },
        {
          "name": "E2",
          "midi": 40,
          "time": 16.799993,
          "velocity": 0.9921259842519685,
          "duration": 0.00035714270833508976
        },
        {
          "name": "C2",
          "midi": 36,
          "time": 16.9714215,
          "velocity": 1,
          "duration": 0.00035714270833508976
        },
        {
          "name": "E2",
          "midi": 40,
          "time": 17.142850000000003,
          "velocity": 0.968503937007874,
          "duration": 0.00035714270833508976
        },
        {
          "name": "E2",
          "midi": 40,
          "time": 17.228564250000005,
          "velocity": 0.9921259842519685,
          "duration": 0.00035714270833508976
        },
        {
          "name": "E2",
          "midi": 40,
          "time": 17.314278500000007,
          "velocity": 0.952755905511811,
          "duration": 0.00035714270833508976
        },
        {
          "name": "E2",
          "midi": 40,
          "time": 17.39999275000001,
          "velocity": 0.9291338582677166,
          "duration": 0.00035714270833508976
        },
        {
          "name": "C2",
          "midi": 36,
          "time": 17.485707000000012,
          "velocity": 1,
          "duration": 0.00035714270833508976
        },
        {
          "name": "E2",
          "midi": 40,
          "time": 17.828564000000014,
          "velocity": 0.9763779527559056,
          "duration": 0.00035714270833508976
        },
        {
          "name": "C2",
          "midi": 36,
          "time": 18.171421000000016,
          "velocity": 1,
          "duration": 0.00035714270833508976
        },
        {
          "name": "C2",
          "midi": 36,
          "time": 18.342849500000018,
          "velocity": 1,
          "duration": 0.00035714270833508976
        },
        {
          "name": "E2",
          "midi": 40,
          "time": 18.51427800000002,
          "velocity": 0.9212598425196851,
          "duration": 0.00035714270833508976
        },
        {
          "name": "C2",
          "midi": 36,
          "time": 18.68570650000002,
          "velocity": 1,
          "duration": 0.00035714270833508976
        },
        {
          "name": "C2",
          "midi": 36,
          "time": 19.028563500000022,
          "velocity": 1,
          "duration": 0.00035714270833508976
        },
        {
          "name": "E2",
          "midi": 40,
          "time": 19.199992000000023,
          "velocity": 0.9448818897637795,
          "duration": 0.00035714270833508976
        },
        {
          "name": "E2",
          "midi": 40,
          "time": 19.542849000000025,
          "velocity": 0.9291338582677166,
          "duration": 0.00035714270833508976
        },
        {
          "name": "C2",
          "midi": 36,
          "time": 19.714277500000026,
          "velocity": 1,
          "duration": 0.00035714270833508976
        },
        {
          "name": "E2",
          "midi": 40,
          "time": 19.885706000000027,
          "velocity": 0.9291338582677166,
          "duration": 0.00035714270833508976
        },
        {
          "name": "C2",
          "midi": 36,
          "time": 20.22856300000003,
          "velocity": 1,
          "duration": 0.00035714270833508976
        },
        {
          "name": "E2",
          "midi": 40,
          "time": 20.571420000000032,
          "velocity": 0.2755905511811024,
          "duration": 0.00035714270833508976
        },
        {
          "name": "E2",
          "midi": 40,
          "time": 20.742848500000033,
          "velocity": 0.6771653543307087,
          "duration": 0.00035714270833508976
        },
        {
          "name": "E2",
          "midi": 40,
          "time": 20.914277000000034,
          "velocity": 0.8110236220472441,
          "duration": 0.00035714270833508976
        },
        {
          "name": "E2",
          "midi": 40,
          "time": 21.085705500000035,
          "velocity": 0.889763779527559,
          "duration": 0.00035714270833508976
        },
        {
          "name": "E2",
          "midi": 40,
          "time": 21.257134000000036,
          "velocity": 0.937007874015748,
          "duration": 0.00035714270833508976
        },
        {
          "name": "E2",
          "midi": 40,
          "time": 21.428562500000037,
          "velocity": 0.952755905511811,
          "duration": 0.00035714270833508976
        },
        {
          "name": "C2",
          "midi": 36,
          "time": 21.59999100000004,
          "velocity": 1,
          "duration": 0.00035714270833508976
        },
        {
          "name": "E2",
          "midi": 40,
          "time": 22.11427650000004,
          "velocity": 0.25984251968503935,
          "duration": 0.00035714270833508976
        },
        {
          "name": "E2",
          "midi": 40,
          "time": 22.171419333333375,
          "velocity": 0.3228346456692913,
          "duration": 0.00035714270833508976
        },
        {
          "name": "E2",
          "midi": 40,
          "time": 22.22856216666671,
          "velocity": 0.36220472440944884,
          "duration": 0.00035714270833508976
        },
        {
          "name": "E2",
          "midi": 40,
          "time": 22.285705000000043,
          "velocity": 1,
          "duration": 0.00035714270833508976
        },
        {
          "name": "E2",
          "midi": 40,
          "time": 22.799990500000046,
          "velocity": 0.2047244094488189,
          "duration": 0.00035714270833508976
        },
        {
          "name": "E2",
          "midi": 40,
          "time": 22.85713333333338,
          "velocity": 0.25984251968503935,
          "duration": 0.00035714270833508976
        },
        {
          "name": "E2",
          "midi": 40,
          "time": 22.914276166666713,
          "velocity": 0.31496062992125984,
          "duration": 0.00035714270833508976
        },
        {
          "name": "C2",
          "midi": 36,
          "time": 22.971419000000047,
          "velocity": 1,
          "duration": 0.00035714270833508976
        },
        {
          "name": "C#2",
          "midi": 37,
          "time": 23.657133000000048,
          "velocity": 1,
          "duration": 0.00035714270833508976
        },
        {
          "name": "C2",
          "midi": 36,
          "time": 23.82856150000005,
          "velocity": 1,
          "duration": 0.00035714270833508976
        },
        {
          "name": "C#2",
          "midi": 37,
          "time": 23.99999000000005,
          "velocity": 1,
          "duration": 0.00035714270833508976
        },
        {
          "name": "C2",
          "midi": 36,
          "time": 24.17141850000005,
          "velocity": 1,
          "duration": 0.00035714270833508976
        },
        {
          "name": "C#2",
          "midi": 37,
          "time": 24.342847000000052,
          "velocity": 1,
          "duration": 0.00035714270833508976
        },
        {
          "name": "C#2",
          "midi": 37,
          "time": 24.685704000000054,
          "velocity": 1,
          "duration": 0.00035714270833508976
        },
        {
          "name": "C#2",
          "midi": 37,
          "time": 25.028561000000057,
          "velocity": 1,
          "duration": 0.00035714270833508976
        },
        {
          "name": "C2",
          "midi": 36,
          "time": 25.199989500000058,
          "velocity": 1,
          "duration": 0.00035714270833508976
        },
        {
          "name": "C#2",
          "midi": 37,
          "time": 25.37141800000006,
          "velocity": 1,
          "duration": 0.00035714270833508976
        },
        {
          "name": "C2",
          "midi": 36,
          "time": 25.54284650000006,
          "velocity": 1,
          "duration": 0.00035714270833508976
        },
        {
          "name": "C#2",
          "midi": 37,
          "time": 25.71427500000006,
          "velocity": 1,
          "duration": 0.00035714270833508976
        },
        {
          "name": "C#2",
          "midi": 37,
          "time": 26.057132000000063,
          "velocity": 1,
          "duration": 0.00035714270833508976
        },
        {
          "name": "C#2",
          "midi": 37,
          "time": 26.399989000000065,
          "velocity": 1,
          "duration": 0.00035714270833508976
        },
        {
          "name": "C2",
          "midi": 36,
          "time": 26.571417500000067,
          "velocity": 1,
          "duration": 0.00035714270833508976
        },
        {
          "name": "C#2",
          "midi": 37,
          "time": 26.742846000000068,
          "velocity": 1,
          "duration": 0.00035714270833508976
        },
        {
          "name": "C2",
          "midi": 36,
          "time": 26.91427450000007,
          "velocity": 1,
          "duration": 0.00035714270833508976
        },
        {
          "name": "C#2",
          "midi": 37,
          "time": 27.08570300000007,
          "velocity": 1,
          "duration": 0.00035714270833508976
        },
        {
          "name": "C#2",
          "midi": 37,
          "time": 27.428560000000072,
          "velocity": 1,
          "duration": 0.00035714270833508976
        },
        {
          "name": "C#2",
          "midi": 37,
          "time": 27.771417000000074,
          "velocity": 1,
          "duration": 0.00035714270833508976
        },
        {
          "name": "C2",
          "midi": 36,
          "time": 27.942845500000075,
          "velocity": 1,
          "duration": 0.00035714270833508976
        },
        {
          "name": "C2",
          "midi": 36,
          "time": 28.114274000000076,
          "velocity": 1,
          "duration": 0.00035714270833508976
        },
        {
          "name": "C#2",
          "midi": 37,
          "time": 28.114274000000076,
          "velocity": 1,
          "duration": 0.00035714270833508976
        },
        {
          "name": "C2",
          "midi": 36,
          "time": 28.285702500000077,
          "velocity": 1,
          "duration": 0.00035714270833508976
        },
        {
          "name": "C2",
          "midi": 36,
          "time": 28.45713100000008,
          "velocity": 1,
          "duration": 0.00035714270833508976
        },
        {
          "name": "C#2",
          "midi": 37,
          "time": 28.45713100000008,
          "velocity": 1,
          "duration": 0.00035714270833508976
        },
        {
          "name": "C#2",
          "midi": 37,
          "time": 28.79998800000008,
          "velocity": 1,
          "duration": 0.00035714270833508976
        },
        {
          "name": "C#2",
          "midi": 37,
          "time": 29.142845000000083,
          "velocity": 1,
          "duration": 0.00035714270833508976
        },
        {
          "name": "C2",
          "midi": 36,
          "time": 29.314273500000084,
          "velocity": 1,
          "duration": 0.00035714270833508976
        },
        {
          "name": "C#2",
          "midi": 37,
          "time": 29.485702000000085,
          "velocity": 1,
          "duration": 0.00035714270833508976
        },
        {
          "name": "C2",
          "midi": 36,
          "time": 29.657130500000086,
          "velocity": 1,
          "duration": 0.00035714270833508976
        },
        {
          "name": "C#2",
          "midi": 37,
          "time": 29.828559000000087,
          "velocity": 1,
          "duration": 0.00035714270833508976
        },
        {
          "name": "C#2",
          "midi": 37,
          "time": 30.17141600000009,
          "velocity": 1,
          "duration": 0.00035714270833508976
        },
        {
          "name": "C#2",
          "midi": 37,
          "time": 30.51427300000009,
          "velocity": 1,
          "duration": 0.00035714270833508976
        },
        {
          "name": "C2",
          "midi": 36,
          "time": 30.685701500000093,
          "velocity": 1,
          "duration": 0.00035714270833508976
        },
        {
          "name": "C#2",
          "midi": 37,
          "time": 30.857130000000094,
          "velocity": 1,
          "duration": 0.00035714270833508976
        },
        {
          "name": "C2",
          "midi": 36,
          "time": 31.028558500000095,
          "velocity": 1,
          "duration": 0.00035714270833508976
        },
        {
          "name": "C#2",
          "midi": 37,
          "time": 31.199987000000096,
          "velocity": 1,
          "duration": 0.00035714270833508976
        },
        {
          "name": "C#2",
          "midi": 37,
          "time": 31.5428440000001,
          "velocity": 1,
          "duration": 0.00035714270833508976
        },
        {
          "name": "C#2",
          "midi": 37,
          "time": 31.8857010000001,
          "velocity": 1,
          "duration": 0.00035714270833508976
        },
        {
          "name": "C2",
          "midi": 36,
          "time": 32.0571295000001,
          "velocity": 1,
          "duration": 0.00035714270833153705
        },
        {
          "name": "C#2",
          "midi": 37,
          "time": 32.2285580000001,
          "velocity": 1,
          "duration": 0.00035714270833153705
        },
        {
          "name": "C2",
          "midi": 36,
          "time": 32.3999865000001,
          "velocity": 1,
          "duration": 0.00035714270833153705
        },
        {
          "name": "C#2",
          "midi": 37,
          "time": 32.571415000000094,
          "velocity": 1,
          "duration": 0.00035714270833153705
        },
        {
          "name": "C#2",
          "midi": 37,
          "time": 32.91427200000009,
          "velocity": 1,
          "duration": 0.00035714270833153705
        },
        {
          "name": "C#2",
          "midi": 37,
          "time": 33.257129000000084,
          "velocity": 1,
          "duration": 0.00035714270833153705
        },
        {
          "name": "C2",
          "midi": 36,
          "time": 33.42855750000008,
          "velocity": 1,
          "duration": 0.00035714270833153705
        },
        {
          "name": "C2",
          "midi": 36,
          "time": 33.59998600000008,
          "velocity": 1,
          "duration": 0.00035714270833153705
        },
        {
          "name": "C#2",
          "midi": 37,
          "time": 33.59998600000008,
          "velocity": 1,
          "duration": 0.00035714270833153705
        },
        {
          "name": "C2",
          "midi": 36,
          "time": 33.77141450000008,
          "velocity": 1,
          "duration": 0.00035714270833153705
        },
        {
          "name": "C2",
          "midi": 36,
          "time": 33.942843000000074,
          "velocity": 1,
          "duration": 0.00035714270833153705
        },
        {
          "name": "C#2",
          "midi": 37,
          "time": 33.942843000000074,
          "velocity": 1,
          "duration": 0.00035714270833153705
        },
        {
          "name": "C#2",
          "midi": 37,
          "time": 34.28570000000007,
          "velocity": 1,
          "duration": 0.00035714270833153705
        },
        {
          "name": "C#2",
          "midi": 37,
          "time": 34.628557000000065,
          "velocity": 1,
          "duration": 0.00035714270833153705
        },
        {
          "name": "C2",
          "midi": 36,
          "time": 34.79998550000006,
          "velocity": 1,
          "duration": 0.00035714270833153705
        },
        {
          "name": "C#2",
          "midi": 37,
          "time": 34.97141400000006,
          "velocity": 1,
          "duration": 0.00035714270833153705
        },
        {
          "name": "C2",
          "midi": 36,
          "time": 35.14284250000006,
          "velocity": 1,
          "duration": 0.00035714270833153705
        },
        {
          "name": "C#2",
          "midi": 37,
          "time": 35.314271000000055,
          "velocity": 1,
          "duration": 0.00035714270833153705
        },
        {
          "name": "C#2",
          "midi": 37,
          "time": 35.65712800000005,
          "velocity": 1,
          "duration": 0.00035714270833153705
        },
        {
          "name": "C#2",
          "midi": 37,
          "time": 35.999985000000045,
          "velocity": 1,
          "duration": 0.00035714270833153705
        },
        {
          "name": "C2",
          "midi": 36,
          "time": 36.17141350000004,
          "velocity": 1,
          "duration": 0.00035714270833153705
        },
        {
          "name": "C#2",
          "midi": 37,
          "time": 36.34284200000004,
          "velocity": 1,
          "duration": 0.00035714270833153705
        },
        {
          "name": "C2",
          "midi": 36,
          "time": 36.51427050000004,
          "velocity": 1,
          "duration": 0.00035714270833153705
        },
        {
          "name": "C#2",
          "midi": 37,
          "time": 36.685699000000035,
          "velocity": 1,
          "duration": 0.00035714270833153705
        },
        {
          "name": "C#2",
          "midi": 37,
          "time": 37.02855600000003,
          "velocity": 1,
          "duration": 0.00035714270833153705
        },
        {
          "name": "C#2",
          "midi": 37,
          "time": 37.371413000000025,
          "velocity": 1,
          "duration": 0.00035714270833153705
        },
        {
          "name": "C2",
          "midi": 36,
          "time": 37.54284150000002,
          "velocity": 1,
          "duration": 0.00035714270833153705
        },
        {
          "name": "C#2",
          "midi": 37,
          "time": 37.71427000000002,
          "velocity": 1,
          "duration": 0.00035714270833153705
        },
        {
          "name": "C2",
          "midi": 36,
          "time": 37.88569850000002,
          "velocity": 1,
          "duration": 0.00035714270833153705
        },
        {
          "name": "C#2",
          "midi": 37,
          "time": 38.057127000000015,
          "velocity": 1,
          "duration": 0.00035714270833153705
        },
        {
          "name": "C#2",
          "midi": 37,
          "time": 38.39998400000001,
          "velocity": 1,
          "duration": 0.00035714270833153705
        },
        {
          "name": "C#2",
          "midi": 37,
          "time": 38.742841000000006,
          "velocity": 1,
          "duration": 0.00035714270833153705
        },
        {
          "name": "C2",
          "midi": 36,
          "time": 38.9142695,
          "velocity": 1,
          "duration": 0.00035714270833153705
        },
        {
          "name": "C2",
          "midi": 36,
          "time": 39.085698,
          "velocity": 1,
          "duration": 0.00035714270833153705
        },
        {
          "name": "C#2",
          "midi": 37,
          "time": 39.085698,
          "velocity": 1,
          "duration": 0.00035714270833153705
        },
        {
          "name": "C2",
          "midi": 36,
          "time": 39.2571265,
          "velocity": 1,
          "duration": 0.00035714270833153705
        },
        {
          "name": "C2",
          "midi": 36,
          "time": 39.428554999999996,
          "velocity": 1,
          "duration": 0.00035714270833153705
        },
        {
          "name": "C#2",
          "midi": 37,
          "time": 39.428554999999996,
          "velocity": 1,
          "duration": 0.00035714270833153705
        },
        {
          "name": "C#2",
          "midi": 37,
          "time": 39.77141199999999,
          "velocity": 1,
          "duration": 0.00035714270833153705
        },
        {
          "name": "C#2",
          "midi": 37,
          "time": 40.114268999999986,
          "velocity": 1,
          "duration": 0.00035714270833153705
        },
        {
          "name": "C2",
          "midi": 36,
          "time": 40.28569749999998,
          "velocity": 1,
          "duration": 0.00035714270833153705
        },
        {
          "name": "C#2",
          "midi": 37,
          "time": 40.45712599999998,
          "velocity": 1,
          "duration": 0.00035714270833153705
        },
        {
          "name": "C2",
          "midi": 36,
          "time": 40.62855449999998,
          "velocity": 1,
          "duration": 0.00035714270833153705
        },
        {
          "name": "C#2",
          "midi": 37,
          "time": 40.799982999999976,
          "velocity": 1,
          "duration": 0.00035714270833153705
        },
        {
          "name": "C#2",
          "midi": 37,
          "time": 41.14283999999997,
          "velocity": 1,
          "duration": 0.00035714270833153705
        },
        {
          "name": "C#2",
          "midi": 37,
          "time": 41.485696999999966,
          "velocity": 1,
          "duration": 0.00035714270833153705
        },
        {
          "name": "C2",
          "midi": 36,
          "time": 41.657125499999964,
          "velocity": 1,
          "duration": 0.00035714270833153705
        },
        {
          "name": "C#2",
          "midi": 37,
          "time": 41.82855399999996,
          "velocity": 1,
          "duration": 0.00035714270833153705
        },
        {
          "name": "C2",
          "midi": 36,
          "time": 41.99998249999996,
          "velocity": 1,
          "duration": 0.00035714270833153705
        },
        {
          "name": "C#2",
          "midi": 37,
          "time": 42.17141099999996,
          "velocity": 1,
          "duration": 0.00035714270833153705
        },
        {
          "name": "C#2",
          "midi": 37,
          "time": 42.51426799999995,
          "velocity": 1,
          "duration": 0.00035714270833153705
        },
        {
          "name": "C#2",
          "midi": 37,
          "time": 42.85712499999995,
          "velocity": 1,
          "duration": 0.00035714270833153705
        },
        {
          "name": "C2",
          "midi": 36,
          "time": 43.028553499999944,
          "velocity": 1,
          "duration": 0.00035714270833153705
        },
        {
          "name": "C#2",
          "midi": 37,
          "time": 43.19998199999994,
          "velocity": 1,
          "duration": 0.00035714270833153705
        },
        {
          "name": "C2",
          "midi": 36,
          "time": 43.37141049999994,
          "velocity": 1,
          "duration": 0.00035714270833153705
        },
        {
          "name": "C#2",
          "midi": 37,
          "time": 43.54283899999994,
          "velocity": 1,
          "duration": 0.00035714270833153705
        },
        {
          "name": "C#2",
          "midi": 37,
          "time": 43.88569599999993,
          "velocity": 1,
          "duration": 0.00035714270833153705
        },
        {
          "name": "C#2",
          "midi": 37,
          "time": 44.22855299999993,
          "velocity": 1,
          "duration": 0.00035714270833153705
        },
        {
          "name": "C2",
          "midi": 36,
          "time": 44.399981499999924,
          "velocity": 1,
          "duration": 0.00035714270833153705
        },
        {
          "name": "C2",
          "midi": 36,
          "time": 44.57140999999992,
          "velocity": 1,
          "duration": 0.00035714270833153705
        },
        {
          "name": "C#2",
          "midi": 37,
          "time": 44.57140999999992,
          "velocity": 1,
          "duration": 0.00035714270833153705
        },
        {
          "name": "C2",
          "midi": 36,
          "time": 44.74283849999992,
          "velocity": 1,
          "duration": 0.00035714270833153705
        },
        {
          "name": "C2",
          "midi": 36,
          "time": 44.91426699999992,
          "velocity": 1,
          "duration": 0.00035714270833153705
        },
        {
          "name": "C2",
          "midi": 36,
          "time": 45.25712399999991,
          "velocity": 1,
          "duration": 0.00035714270833153705
        },
        {
          "name": "C2",
          "midi": 36,
          "time": 45.59998099999991,
          "velocity": 1,
          "duration": 0.00035714270833153705
        },
        {
          "name": "C2",
          "midi": 36,
          "time": 45.9428379999999,
          "velocity": 1,
          "duration": 0.00035714270833153705
        },
        {
          "name": "C2",
          "midi": 36,
          "time": 46.2856949999999,
          "velocity": 1,
          "duration": 0.00035714270833153705
        },
        {
          "name": "C2",
          "midi": 36,
          "time": 46.62855199999989,
          "velocity": 1,
          "duration": 0.00035714270833153705
        },
        {
          "name": "C2",
          "midi": 36,
          "time": 46.97140899999989,
          "velocity": 1,
          "duration": 0.00035714270833153705
        },
        {
          "name": "C2",
          "midi": 36,
          "time": 47.31426599999988,
          "velocity": 1,
          "duration": 0.00035714270833153705
        },
        {
          "name": "C2",
          "midi": 36,
          "time": 47.65712299999988,
          "velocity": 1,
          "duration": 0.00035714270833153705
        },
        {
          "name": "C2",
          "midi": 36,
          "time": 47.99997999999987,
          "velocity": 1,
          "duration": 0.00035714270833153705
        },
        {
          "name": "C2",
          "midi": 36,
          "time": 48.34283699999987,
          "velocity": 1,
          "duration": 0.00035714270833153705
        },
        {
          "name": "C2",
          "midi": 36,
          "time": 48.68569399999986,
          "velocity": 1,
          "duration": 0.00035714270833153705
        },
        {
          "name": "C2",
          "midi": 36,
          "time": 49.02855099999986,
          "velocity": 1,
          "duration": 0.00035714270833153705
        },
        {
          "name": "C2",
          "midi": 36,
          "time": 49.37140799999985,
          "velocity": 1,
          "duration": 0.00035714270833153705
        },
        {
          "name": "C2",
          "midi": 36,
          "time": 49.71426499999985,
          "velocity": 1,
          "duration": 0.00035714270833153705
        },
        {
          "name": "C2",
          "midi": 36,
          "time": 50.05712199999984,
          "velocity": 1,
          "duration": 0.00035714270833153705
        },
        {
          "name": "C2",
          "midi": 36,
          "time": 50.39997899999984,
          "velocity": 1,
          "duration": 0.00035714270833153705
        },
        {
          "name": "C2",
          "midi": 36,
          "time": 50.74283599999983,
          "velocity": 1,
          "duration": 0.00035714270833153705
        },
        {
          "name": "C2",
          "midi": 36,
          "time": 51.08569299999983,
          "velocity": 1,
          "duration": 0.00035714270833153705
        },
        {
          "name": "C2",
          "midi": 36,
          "time": 51.428549999999824,
          "velocity": 1,
          "duration": 0.00035714270833153705
        },
        {
          "name": "C2",
          "midi": 36,
          "time": 51.77140699999982,
          "velocity": 1,
          "duration": 0.00035714270833153705
        },
        {
          "name": "C2",
          "midi": 36,
          "time": 52.114263999999814,
          "velocity": 1,
          "duration": 0.00035714270833153705
        },
        {
          "name": "C2",
          "midi": 36,
          "time": 52.45712099999981,
          "velocity": 1,
          "duration": 0.00035714270833153705
        },
        {
          "name": "C2",
          "midi": 36,
          "time": 52.799977999999804,
          "velocity": 1,
          "duration": 0.00035714270833153705
        },
        {
          "name": "C2",
          "midi": 36,
          "time": 53.1428349999998,
          "velocity": 1,
          "duration": 0.00035714270833153705
        },
        {
          "name": "C2",
          "midi": 36,
          "time": 53.485691999999794,
          "velocity": 1,
          "duration": 0.00035714270833153705
        },
        {
          "name": "C2",
          "midi": 36,
          "time": 53.82854899999979,
          "velocity": 1,
          "duration": 0.00035714270833153705
        },
        {
          "name": "C2",
          "midi": 36,
          "time": 54.171405999999784,
          "velocity": 1,
          "duration": 0.00035714270833153705
        },
        {
          "name": "C2",
          "midi": 36,
          "time": 54.51426299999978,
          "velocity": 1,
          "duration": 0.00035714270833153705
        },
        {
          "name": "C2",
          "midi": 36,
          "time": 54.857119999999775,
          "velocity": 1,
          "duration": 0.00035714270833153705
        },
        {
          "name": "C2",
          "midi": 36,
          "time": 55.19997699999977,
          "velocity": 1,
          "duration": 0.00035714270833153705
        },
        {
          "name": "C2",
          "midi": 36,
          "time": 55.542833999999765,
          "velocity": 1,
          "duration": 0.00035714270833153705
        },
        {
          "name": "C2",
          "midi": 36,
          "time": 55.88569099999976,
          "velocity": 1,
          "duration": 0.00035714270833153705
        },
        {
          "name": "C2",
          "midi": 36,
          "time": 56.228547999999755,
          "velocity": 1,
          "duration": 0.00035714270833153705
        },
        {
          "name": "C2",
          "midi": 36,
          "time": 56.57140499999975,
          "velocity": 1,
          "duration": 0.00035714270833153705
        },
        {
          "name": "C2",
          "midi": 36,
          "time": 56.914261999999745,
          "velocity": 1,
          "duration": 0.00035714270833153705
        },
        {
          "name": "C2",
          "midi": 36,
          "time": 57.25711899999974,
          "velocity": 1,
          "duration": 0.00035714270833153705
        },
        {
          "name": "C2",
          "midi": 36,
          "time": 57.599975999999735,
          "velocity": 1,
          "duration": 0.00035714270833153705
        },
        {
          "name": "C2",
          "midi": 36,
          "time": 57.94283299999973,
          "velocity": 1,
          "duration": 0.00035714270833153705
        },
        {
          "name": "C2",
          "midi": 36,
          "time": 58.285689999999725,
          "velocity": 1,
          "duration": 0.00035714270833153705
        },
        {
          "name": "C2",
          "midi": 36,
          "time": 58.62854699999972,
          "velocity": 1,
          "duration": 0.00035714270833153705
        },
        {
          "name": "C2",
          "midi": 36,
          "time": 58.971403999999715,
          "velocity": 1,
          "duration": 0.00035714270833153705
        },
        {
          "name": "C2",
          "midi": 36,
          "time": 59.31426099999971,
          "velocity": 1,
          "duration": 0.00035714270833153705
        },
        {
          "name": "C2",
          "midi": 36,
          "time": 59.657117999999706,
          "velocity": 1,
          "duration": 0.00035714270833153705
        },
        {
          "name": "C2",
          "midi": 36,
          "time": 59.9999749999997,
          "velocity": 1,
          "duration": 0.00035714270833153705
        },
        {
          "name": "C2",
          "midi": 36,
          "time": 60.342831999999696,
          "velocity": 1,
          "duration": 0.00035714270833153705
        },
        {
          "name": "C2",
          "midi": 36,
          "time": 60.68568899999969,
          "velocity": 1,
          "duration": 0.00035714270833153705
        },
        {
          "name": "C2",
          "midi": 36,
          "time": 61.028545999999686,
          "velocity": 1,
          "duration": 0.00035714270833153705
        },
        {
          "name": "C2",
          "midi": 36,
          "time": 61.37140299999968,
          "velocity": 1,
          "duration": 0.00035714270833153705
        },
        {
          "name": "C2",
          "midi": 36,
          "time": 61.714259999999676,
          "velocity": 1,
          "duration": 0.00035714270833153705
        },
        {
          "name": "C2",
          "midi": 36,
          "time": 62.05711699999967,
          "velocity": 1,
          "duration": 0.00035714270833153705
        },
        {
          "name": "C2",
          "midi": 36,
          "time": 62.399973999999666,
          "velocity": 1,
          "duration": 0.00035714270833153705
        },
        {
          "name": "C2",
          "midi": 36,
          "time": 62.74283099999966,
          "velocity": 1,
          "duration": 0.00035714270833153705
        },
        {
          "name": "C2",
          "midi": 36,
          "time": 63.08568799999966,
          "velocity": 1,
          "duration": 0.00035714270833153705
        },
        {
          "name": "C2",
          "midi": 36,
          "time": 63.42854499999965,
          "velocity": 1,
          "duration": 0.00035714270833153705
        },
        {
          "name": "C2",
          "midi": 36,
          "time": 63.77140199999965,
          "velocity": 1,
          "duration": 0.00035714270833153705
        },
        {
          "name": "C2",
          "midi": 36,
          "time": 64.11425899999965,
          "velocity": 1,
          "duration": 0.0003571427083386425
        },
        {
          "name": "C2",
          "midi": 36,
          "time": 64.45711599999966,
          "velocity": 1,
          "duration": 0.0003571427083386425
        },
        {
          "name": "E2",
          "midi": 40,
          "time": 64.62854449999966,
          "velocity": 0.9606299212598425,
          "duration": 0.0003571427083386425
        },
        {
          "name": "C2",
          "midi": 36,
          "time": 64.79997299999967,
          "velocity": 1,
          "duration": 0.0003571427083386425
        },
        {
          "name": "C2",
          "midi": 36,
          "time": 65.14282999999968,
          "velocity": 1,
          "duration": 0.0003571427083386425
        },
        {
          "name": "C2",
          "midi": 36,
          "time": 65.48568699999969,
          "velocity": 1,
          "duration": 0.0003571427083386425
        },
        {
          "name": "C2",
          "midi": 36,
          "time": 66.8571149999997,
          "velocity": 1,
          "duration": 0.0003571427083386425
        },
        {
          "name": "E2",
          "midi": 40,
          "time": 67.1999719999997,
          "velocity": 0.9921259842519685,
          "duration": 0.0003571427083386425
        },
        {
          "name": "C2",
          "midi": 36,
          "time": 67.54282899999971,
          "velocity": 1,
          "duration": 0.0003571427083386425
        },
        {
          "name": "C2",
          "midi": 36,
          "time": 67.71425749999972,
          "velocity": 1,
          "duration": 0.0003571427083386425
        },
        {
          "name": "E2",
          "midi": 40,
          "time": 67.88568599999972,
          "velocity": 0.984251968503937,
          "duration": 0.0003571427083386425
        },
        {
          "name": "C2",
          "midi": 36,
          "time": 68.05711449999973,
          "velocity": 1,
          "duration": 0.0003571427083386425
        },
        {
          "name": "C2",
          "midi": 36,
          "time": 68.39997149999974,
          "velocity": 1,
          "duration": 0.0003571427083386425
        },
        {
          "name": "E2",
          "midi": 40,
          "time": 68.57139999999974,
          "velocity": 0.9291338582677166,
          "duration": 0.0003571427083386425
        },
        {
          "name": "C2",
          "midi": 36,
          "time": 68.91425699999975,
          "velocity": 1,
          "duration": 0.0003571427083386425
        },
        {
          "name": "C2",
          "midi": 36,
          "time": 69.08568549999976,
          "velocity": 1,
          "duration": 0.0003571427083386425
        },
        {
          "name": "E2",
          "midi": 40,
          "time": 69.25711399999976,
          "velocity": 0.984251968503937,
          "duration": 0.0003571427083386425
        },
        {
          "name": "C2",
          "midi": 36,
          "time": 69.59997099999977,
          "velocity": 1,
          "duration": 0.0003571427083386425
        },
        {
          "name": "E2",
          "midi": 40,
          "time": 69.94282799999978,
          "velocity": 0.9448818897637795,
          "duration": 0.0003571427083386425
        },
        {
          "name": "C2",
          "midi": 36,
          "time": 70.28568499999979,
          "velocity": 1,
          "duration": 0.0003571427083386425
        },
        {
          "name": "C2",
          "midi": 36,
          "time": 70.45711349999979,
          "velocity": 1,
          "duration": 0.0003571427083386425
        },
        {
          "name": "E2",
          "midi": 40,
          "time": 70.6285419999998,
          "velocity": 0.984251968503937,
          "duration": 0.0003571427083386425
        },
        {
          "name": "C2",
          "midi": 36,
          "time": 70.7999704999998,
          "velocity": 1,
          "duration": 0.0003571427083386425
        },
        {
          "name": "C2",
          "midi": 36,
          "time": 71.14282749999981,
          "velocity": 1,
          "duration": 0.0003571427083386425
        },
        {
          "name": "E2",
          "midi": 40,
          "time": 71.31425599999982,
          "velocity": 0.9212598425196851,
          "duration": 0.0003571427083386425
        },
        {
          "name": "C2",
          "midi": 36,
          "time": 71.65711299999982,
          "velocity": 1,
          "duration": 0.0003571427083386425
        },
        {
          "name": "C2",
          "midi": 36,
          "time": 71.82854149999983,
          "velocity": 1,
          "duration": 0.0003571427083386425
        },
        {
          "name": "E2",
          "midi": 40,
          "time": 71.99996999999983,
          "velocity": 0.9606299212598425,
          "duration": 0.0003571427083386425
        },
        {
          "name": "C2",
          "midi": 36,
          "time": 72.34282699999984,
          "velocity": 1,
          "duration": 0.0003571427083386425
        },
        {
          "name": "E2",
          "midi": 40,
          "time": 72.68568399999985,
          "velocity": 0.9212598425196851,
          "duration": 0.0003571427083386425
        },
        {
          "name": "C2",
          "midi": 36,
          "time": 73.02854099999986,
          "velocity": 1,
          "duration": 0.0003571427083386425
        },
        {
          "name": "C2",
          "midi": 36,
          "time": 73.19996949999987,
          "velocity": 1,
          "duration": 0.0003571427083386425
        },
        {
          "name": "E2",
          "midi": 40,
          "time": 73.37139799999987,
          "velocity": 0.9606299212598425,
          "duration": 0.0003571427083386425
        },
        {
          "name": "C2",
          "midi": 36,
          "time": 73.54282649999988,
          "velocity": 1,
          "duration": 0.0003571427083386425
        },
        {
          "name": "C2",
          "midi": 36,
          "time": 73.88568349999989,
          "velocity": 1,
          "duration": 0.0003571427083386425
        },
        {
          "name": "E2",
          "midi": 40,
          "time": 74.05711199999989,
          "velocity": 0.984251968503937,
          "duration": 0.0003571427083386425
        },
        {
          "name": "C2",
          "midi": 36,
          "time": 74.3999689999999,
          "velocity": 1,
          "duration": 0.0003571427083386425
        },
        {
          "name": "C2",
          "midi": 36,
          "time": 74.5713974999999,
          "velocity": 1,
          "duration": 0.0003571427083386425
        },
        {
          "name": "E2",
          "midi": 40,
          "time": 74.74282599999991,
          "velocity": 0.9606299212598425,
          "duration": 0.0003571427083386425
        },
        {
          "name": "C2",
          "midi": 36,
          "time": 75.08568299999992,
          "velocity": 1,
          "duration": 0.0003571427083386425
        },
        {
          "name": "E2",
          "midi": 40,
          "time": 75.42853999999993,
          "velocity": 1,
          "duration": 0.0003571427083386425
        },
        {
          "name": "E2",
          "midi": 40,
          "time": 75.77139699999994,
          "velocity": 0.9448818897637795,
          "duration": 0.0003571427083386425
        },
        {
          "name": "C2",
          "midi": 36,
          "time": 75.94282549999994,
          "velocity": 1,
          "duration": 0.0003571427083386425
        },
        {
          "name": "E2",
          "midi": 40,
          "time": 76.11425399999995,
          "velocity": 0.937007874015748,
          "duration": 0.0003571427083386425
        },
        {
          "name": "C2",
          "midi": 36,
          "time": 76.28568249999995,
          "velocity": 1,
          "duration": 0.0003571427083386425
        },
        {
          "name": "C2",
          "midi": 36,
          "time": 76.62853949999996,
          "velocity": 1,
          "duration": 0.0003571427083386425
        },
        {
          "name": "E2",
          "midi": 40,
          "time": 76.79996799999996,
          "velocity": 0.968503937007874,
          "duration": 0.0003571427083386425
        },
        {
          "name": "C2",
          "midi": 36,
          "time": 76.97139649999997,
          "velocity": 1,
          "duration": 0.0003571427083386425
        },
        {
          "name": "E2",
          "midi": 40,
          "time": 77.14282499999997,
          "velocity": 0.9763779527559056,
          "duration": 0.0003571427083386425
        },
        {
          "name": "C2",
          "midi": 36,
          "time": 77.31425349999998,
          "velocity": 1,
          "duration": 0.0003571427083386425
        },
        {
          "name": "E2",
          "midi": 40,
          "time": 77.48568199999998,
          "velocity": 0.9606299212598425,
          "duration": 0.0003571427083386425
        },
        {
          "name": "E2",
          "midi": 40,
          "time": 77.57139624999999,
          "velocity": 0.9212598425196851,
          "duration": 0.0003571427083386425
        },
        {
          "name": "C2",
          "midi": 36,
          "time": 77.82853899999999,
          "velocity": 1,
          "duration": 0.0003571427083386425
        },
        {
          "name": "E2",
          "midi": 40,
          "time": 78.171396,
          "velocity": 0.984251968503937,
          "duration": 0.0003571427083386425
        },
        {
          "name": "C2",
          "midi": 36,
          "time": 78.51425300000001,
          "velocity": 1,
          "duration": 0.0003571427083386425
        },
        {
          "name": "C2",
          "midi": 36,
          "time": 78.68568150000002,
          "velocity": 1,
          "duration": 0.0003571427083386425
        },
        {
          "name": "E2",
          "midi": 40,
          "time": 78.85711000000002,
          "velocity": 0.952755905511811,
          "duration": 0.0003571427083386425
        },
        {
          "name": "E2",
          "midi": 40,
          "time": 79.02853850000002,
          "velocity": 0.4409448818897638,
          "duration": 0.0003571427083386425
        },
        {
          "name": "E2",
          "midi": 40,
          "time": 79.11425275000003,
          "velocity": 0.5196850393700787,
          "duration": 0.0003571427083386425
        },
        {
          "name": "C2",
          "midi": 36,
          "time": 79.19996700000004,
          "velocity": 1,
          "duration": 0.0003571427083386425
        },
        {
          "name": "E2",
          "midi": 40,
          "time": 79.37139550000005,
          "velocity": 0.47244094488188976,
          "duration": 0.0003571427083386425
        },
        {
          "name": "E2",
          "midi": 40,
          "time": 79.45710975000006,
          "velocity": 0.49606299212598426,
          "duration": 0.0003571427083386425
        },
        {
          "name": "E2",
          "midi": 40,
          "time": 79.54282400000007,
          "velocity": 0.9448818897637795,
          "duration": 0.0003571427083386425
        },
        {
          "name": "C2",
          "midi": 36,
          "time": 79.71425250000007,
          "velocity": 1,
          "duration": 0.0003571427083386425
        },
        {
          "name": "C2",
          "midi": 36,
          "time": 80.05710950000007,
          "velocity": 1,
          "duration": 0.0003571427083386425
        },
        {
          "name": "C2",
          "midi": 36,
          "time": 80.39996650000003,
          "velocity": 1,
          "duration": 0.0003571427083386425
        },
        {
          "name": "E2",
          "midi": 40,
          "time": 80.91425200000003,
          "velocity": 1,
          "duration": 0.0003571427083386425
        },
        {
          "name": "C2",
          "midi": 36,
          "time": 81.25710900000004,
          "velocity": 1,
          "duration": 0.0003571427083386425
        },
        {
          "name": "C2",
          "midi": 36,
          "time": 81.42853750000005,
          "velocity": 1,
          "duration": 0.0003571427083386425
        },
        {
          "name": "E2",
          "midi": 40,
          "time": 81.59996600000005,
          "velocity": 0.968503937007874,
          "duration": 0.0003571427083386425
        },
        {
          "name": "C2",
          "midi": 36,
          "time": 81.94282300000006,
          "velocity": 1,
          "duration": 0.0003571427083386425
        },
        {
          "name": "E2",
          "midi": 40,
          "time": 82.28568000000007,
          "velocity": 0.9921259842519685,
          "duration": 0.0003571427083386425
        },
        {
          "name": "C2",
          "midi": 36,
          "time": 82.45710850000007,
          "velocity": 1,
          "duration": 0.0003571427083386425
        },
        {
          "name": "C2",
          "midi": 36,
          "time": 82.79996550000008,
          "velocity": 1,
          "duration": 0.0003571427083386425
        },
        {
          "name": "E2",
          "midi": 40,
          "time": 82.97139400000009,
          "velocity": 0.9212598425196851,
          "duration": 0.0003571427083386425
        },
        {
          "name": "C2",
          "midi": 36,
          "time": 83.3142510000001,
          "velocity": 1,
          "duration": 0.0003571427083386425
        },
        {
          "name": "E2",
          "midi": 40,
          "time": 83.65710800000011,
          "velocity": 0.9763779527559056,
          "duration": 0.0003571427083386425
        },
        {
          "name": "C2",
          "midi": 36,
          "time": 83.99996500000012,
          "velocity": 1,
          "duration": 0.0003571427083386425
        },
        {
          "name": "C2",
          "midi": 36,
          "time": 84.17139350000012,
          "velocity": 1,
          "duration": 0.0003571427083386425
        },
        {
          "name": "E2",
          "midi": 40,
          "time": 84.34282200000013,
          "velocity": 0.968503937007874,
          "duration": 0.0003571427083386425
        },
        {
          "name": "C2",
          "midi": 36,
          "time": 84.68567900000014,
          "velocity": 1,
          "duration": 0.0003571427083386425
        },
        {
          "name": "E2",
          "midi": 40,
          "time": 85.02853600000014,
          "velocity": 1,
          "duration": 0.0003571427083386425
        },
        {
          "name": "C2",
          "midi": 36,
          "time": 85.19996450000015,
          "velocity": 1,
          "duration": 0.0003571427083386425
        },
        {
          "name": "C2",
          "midi": 36,
          "time": 85.54282150000016,
          "velocity": 1,
          "duration": 0.0003571427083386425
        },
        {
          "name": "E2",
          "midi": 40,
          "time": 85.71425000000016,
          "velocity": 0.9606299212598425,
          "duration": 0.0003571427083386425
        },
        {
          "name": "C2",
          "midi": 36,
          "time": 86.05710700000017,
          "velocity": 1,
          "duration": 0.0003571427083386425
        },
        {
          "name": "E2",
          "midi": 40,
          "time": 86.39996400000018,
          "velocity": 0.9606299212598425,
          "duration": 0.0003571427083386425
        },
        {
          "name": "E2",
          "midi": 40,
          "time": 86.74282100000019,
          "velocity": 0.9291338582677166,
          "duration": 0.0003571427083386425
        },
        {
          "name": "E2",
          "midi": 40,
          "time": 86.9142495000002,
          "velocity": 0.968503937007874,
          "duration": 0.0003571427083386425
        },
        {
          "name": "E2",
          "midi": 40,
          "time": 86.9999637500002,
          "velocity": 0.9291338582677166,
          "duration": 0.0003571427083386425
        },
        {
          "name": "C2",
          "midi": 36,
          "time": 87.42853500000021,
          "velocity": 1,
          "duration": 0.0003571427083386425
        }
      ],
      "controlChanges": {
        "6": [
          {
            "number": 6,
            "time": 0.685714,
            "value": 0.015748031496062992
          }
        ],
        "7": [
          {
            "number": 7,
            "time": 0.685714,
            "value": 1
          }
        ],
        "10": [
          {
            "number": 10,
            "time": 0.685714,
            "value": 0.5039370078740157
          }
        ],
        "11": [
          {
            "number": 11,
            "time": 79.88568100000008,
            "value": 0.6220472440944882
          },
          {
            "number": 11,
            "time": 79.88746671354174,
            "value": 0.6456692913385826
          },
          {
            "number": 11,
            "time": 79.89460956770841,
            "value": 0.6535433070866141
          },
          {
            "number": 11,
            "time": 79.89639528125008,
            "value": 0.6456692913385826
          },
          {
            "number": 11,
            "time": 80.04818093229174,
            "value": 0.9921259842519685
          },
          {
            "number": 11,
            "time": 80.05175235937507,
            "value": 0.984251968503937
          },
          {
            "number": 11,
            "time": 80.05353807291674,
            "value": 0.984251968503937
          },
          {
            "number": 11,
            "time": 80.0553237864584,
            "value": 0.9763779527559056
          },
          {
            "number": 11,
            "time": 80.05710950000007,
            "value": 0.984251968503937
          },
          {
            "number": 11,
            "time": 80.23389514062507,
            "value": 0.7637795275590551
          },
          {
            "number": 11,
            "time": 80.23568085416673,
            "value": 0.7559055118110236
          },
          {
            "number": 11,
            "time": 80.2374665677084,
            "value": 0.6299212598425197
          },
          {
            "number": 11,
            "time": 80.23925228125006,
            "value": 0.5196850393700787
          },
          {
            "number": 11,
            "time": 80.24103799479172,
            "value": 0.6299212598425197
          },
          {
            "number": 11,
            "time": 80.26068084375005,
            "value": 0.6299212598425197
          },
          {
            "number": 11,
            "time": 80.38746650520838,
            "value": 0.7637795275590551
          },
          {
            "number": 11,
            "time": 80.38925221875004,
            "value": 0.9921259842519685
          },
          {
            "number": 11,
            "time": 80.39282364583337,
            "value": 0.9921259842519685
          },
          {
            "number": 11,
            "time": 80.39460935937504,
            "value": 0.9921259842519685
          }
        ],
        "32": [
          {
            "number": 32,
            "time": 0.685714,
            "value": 0
          }
        ],
        "100": [
          {
            "number": 100,
            "time": 0.685714,
            "value": 0
          }
        ],
        "101": [
          {
            "number": 101,
            "time": 0.685714,
            "value": 0
          }
        ]
      },
      "id": 11,
      "instrumentNumber": 8,
      "instrument": "room kit",
      "instrumentFamily": "drums",
      "channelNumber": 10,
      "isPercussion": true
    },
    {
      "startTime": 8.571425000000001,
      "duration": 67.54282900000001,
      "length": 2,
      "notes": [
        {
          "name": "D7",
          "midi": 98,
          "time": 8.571425000000001,
          "velocity": 0.7874015748031497,
          "duration": 4.114284000000001
        },
        {
          "name": "D7",
          "midi": 98,
          "time": 63.42854500000001,
          "velocity": 0.7874015748031497,
          "duration": 4.114284000000005
        }
      ],
      "controlChanges": {
        "7": [
          {
            "number": 7,
            "time": 0.685714,
            "value": 1
          }
        ],
        "11": [
          {
            "number": 11,
            "time": 8.228568000000001,
            "value": 0
          },
          {
            "number": 11,
            "time": 11.999995000000002,
            "value": 1
          },
          {
            "number": 11,
            "time": 63.085688000000005,
            "value": 0
          },
          {
            "number": 11,
            "time": 66.85711500000001,
            "value": 1
          },
          {
            "number": 11,
            "time": 79.885681,
            "value": 0.6220472440944882
          },
          {
            "number": 11,
            "time": 79.88746671354167,
            "value": 0.6456692913385826
          },
          {
            "number": 11,
            "time": 79.89460956770834,
            "value": 0.6535433070866141
          },
          {
            "number": 11,
            "time": 79.89639528125001,
            "value": 0.6456692913385826
          },
          {
            "number": 11,
            "time": 80.04818093229167,
            "value": 0.9921259842519685
          },
          {
            "number": 11,
            "time": 80.051752359375,
            "value": 0.984251968503937
          },
          {
            "number": 11,
            "time": 80.05353807291667,
            "value": 0.984251968503937
          },
          {
            "number": 11,
            "time": 80.05532378645833,
            "value": 0.9763779527559056
          },
          {
            "number": 11,
            "time": 80.0571095,
            "value": 0.984251968503937
          },
          {
            "number": 11,
            "time": 80.233895140625,
            "value": 0.7637795275590551
          },
          {
            "number": 11,
            "time": 80.23568085416666,
            "value": 0.7559055118110236
          },
          {
            "number": 11,
            "time": 80.23746656770832,
            "value": 0.6299212598425197
          },
          {
            "number": 11,
            "time": 80.23925228124999,
            "value": 0.5196850393700787
          },
          {
            "number": 11,
            "time": 80.24103799479165,
            "value": 0.6299212598425197
          },
          {
            "number": 11,
            "time": 80.26068084374998,
            "value": 0.6299212598425197
          },
          {
            "number": 11,
            "time": 80.38746650520831,
            "value": 0.7637795275590551
          },
          {
            "number": 11,
            "time": 80.38925221874997,
            "value": 0.9921259842519685
          },
          {
            "number": 11,
            "time": 80.3928236458333,
            "value": 0.9921259842519685
          },
          {
            "number": 11,
            "time": 80.39460935937497,
            "value": 0.9921259842519685
          }
        ],
        "32": [
          {
            "number": 32,
            "time": 0.685714,
            "value": 0
          }
        ]
      },
      "id": 12,
      "instrumentNumber": 125,
      "instrument": "helicopter",
      "instrumentFamily": "sound effects",
      "channelNumber": 11,
      "isPercussion": false
    },
    {
      "startTime": 9.599996,
      "duration": 88.79996299999928,
      "length": 75,
      "notes": [
        {
          "name": "G5",
          "midi": 79,
          "time": 9.599996,
          "velocity": 0.8188976377952756,
          "duration": 1.1999995000000254
        },
        {
          "name": "F#5",
          "midi": 78,
          "time": 10.799995500000026,
          "velocity": 0.9921259842519685,
          "duration": 0.8571425000000126
        },
        {
          "name": "F#5",
          "midi": 78,
          "time": 11.828566500000038,
          "velocity": 0.8503937007874016,
          "duration": 0.08571425000000055
        },
        {
          "name": "G#5",
          "midi": 80,
          "time": 11.914280750000039,
          "velocity": 0.8582677165354331,
          "duration": 0.08571425000000055
        },
        {
          "name": "A#5",
          "midi": 82,
          "time": 11.99999500000004,
          "velocity": 0.8503937007874016,
          "duration": 1.1999995000000148
        },
        {
          "name": "G#5",
          "midi": 80,
          "time": 13.199994500000054,
          "velocity": 0.7874015748031497,
          "duration": 0.8571425000000001
        },
        {
          "name": "D#6",
          "midi": 87,
          "time": 14.057137000000054,
          "velocity": 0.8188976377952756,
          "duration": 0.6857140000000008
        },
        {
          "name": "C#6",
          "midi": 85,
          "time": 14.742851000000055,
          "velocity": 0.7795275590551181,
          "duration": 0.6857140000000008
        },
        {
          "name": "F5",
          "midi": 77,
          "time": 15.428565000000056,
          "velocity": 0.7716535433070866,
          "duration": 0.5142854999999997
        },
        {
          "name": "F#5",
          "midi": 78,
          "time": 15.942850500000056,
          "velocity": 0.8267716535433071,
          "duration": 1.0285709999999781
        },
        {
          "name": "D#5",
          "midi": 75,
          "time": 17.142850000000035,
          "velocity": 0.7637795275590551,
          "duration": 0.08571424999999877
        },
        {
          "name": "F5",
          "midi": 77,
          "time": 17.228564250000034,
          "velocity": 0.7795275590551181,
          "duration": 0.08571424999999877
        },
        {
          "name": "F#5",
          "midi": 78,
          "time": 17.314278500000032,
          "velocity": 0.7874015748031497,
          "duration": 0.08571424999999877
        },
        {
          "name": "G#5",
          "midi": 80,
          "time": 17.39999275000003,
          "velocity": 0.7795275590551181,
          "duration": 0.08571424999999877
        },
        {
          "name": "A#5",
          "midi": 82,
          "time": 17.48570700000003,
          "velocity": 0.8110236220472441,
          "duration": 1.1999994999999757
        },
        {
          "name": "G#5",
          "midi": 80,
          "time": 18.685706500000006,
          "velocity": 0.8031496062992126,
          "duration": 0.8571424999999984
        },
        {
          "name": "D#6",
          "midi": 87,
          "time": 19.542849000000004,
          "velocity": 0.7716535433070866,
          "duration": 0.6857140000000008
        },
        {
          "name": "C#6",
          "midi": 85,
          "time": 20.228563000000005,
          "velocity": 0.7952755905511811,
          "duration": 2.057141999999967
        },
        {
          "name": "D#6",
          "midi": 87,
          "time": 22.971418999999972,
          "velocity": 0.6220472440944882,
          "duration": 2.742855999999904
        },
        {
          "name": "D#5",
          "midi": 75,
          "time": 44.91426699999988,
          "velocity": 0.7480314960629921,
          "duration": 2.3999990000000366
        },
        {
          "name": "D5",
          "midi": 74,
          "time": 47.31426599999992,
          "velocity": 0.7165354330708661,
          "duration": 0.3428570000000235
        },
        {
          "name": "D#5",
          "midi": 75,
          "time": 47.65712299999994,
          "velocity": 0.7637795275590551,
          "duration": 2.3999990000000153
        },
        {
          "name": "D5",
          "midi": 74,
          "time": 50.05712199999996,
          "velocity": 0.8582677165354331,
          "duration": 0.08571425000000232
        },
        {
          "name": "D#5",
          "midi": 75,
          "time": 50.22855049999996,
          "velocity": 0.84251968503937,
          "duration": 0.08571425000000232
        },
        {
          "name": "D5",
          "midi": 74,
          "time": 50.39997899999998,
          "velocity": 0.7874015748031497,
          "duration": 2.0571420000001055
        },
        {
          "name": "F5",
          "midi": 77,
          "time": 52.457121000000086,
          "velocity": 0.7480314960629921,
          "duration": 0.6857140000000186
        },
        {
          "name": "F5",
          "midi": 77,
          "time": 53.142835000000105,
          "velocity": 0.7401574803149606,
          "duration": 0.6857140000000044
        },
        {
          "name": "D#5",
          "midi": 75,
          "time": 53.82854900000011,
          "velocity": 0.7401574803149606,
          "duration": 0.6857140000000328
        },
        {
          "name": "D5",
          "midi": 74,
          "time": 54.51426300000014,
          "velocity": 0.7165354330708661,
          "duration": 0.6857140000000186
        },
        {
          "name": "D#5",
          "midi": 75,
          "time": 55.19997700000016,
          "velocity": 0.7401574803149606,
          "duration": 0.6857140000000257
        },
        {
          "name": "C5",
          "midi": 72,
          "time": 55.885691000000186,
          "velocity": 0.7480314960629921,
          "duration": 2.742856000000174
        },
        {
          "name": "C5",
          "midi": 72,
          "time": 58.62854700000036,
          "velocity": 0.7480314960629921,
          "duration": 1.3714280000001153
        },
        {
          "name": "C5",
          "midi": 72,
          "time": 59.999975000000475,
          "velocity": 0.8346456692913385,
          "duration": 0.3428570000000164
        },
        {
          "name": "D5",
          "midi": 74,
          "time": 60.34283200000049,
          "velocity": 0.8188976377952756,
          "duration": 0.3428570000000093
        },
        {
          "name": "D#5",
          "midi": 75,
          "time": 60.6856890000005,
          "velocity": 0.8582677165354331,
          "duration": 0.3428570000000164
        },
        {
          "name": "F5",
          "midi": 77,
          "time": 61.02854600000052,
          "velocity": 0.8740157480314961,
          "duration": 0.3428570000000306
        },
        {
          "name": "D#5",
          "midi": 75,
          "time": 61.37140300000055,
          "velocity": 0.7874015748031497,
          "duration": 1.371428000000094
        },
        {
          "name": "F5",
          "midi": 77,
          "time": 62.74283100000064,
          "velocity": 0.7952755905511811,
          "duration": 0.6857140000000186
        },
        {
          "name": "G5",
          "midi": 79,
          "time": 63.42854500000066,
          "velocity": 0.8188976377952756,
          "duration": 0.6857140000000115
        },
        {
          "name": "G#5",
          "midi": 80,
          "time": 64.11425900000067,
          "velocity": 0.8740157480314961,
          "duration": 1.3714280000000372
        },
        {
          "name": "F5",
          "midi": 77,
          "time": 65.48568700000071,
          "velocity": 1,
          "duration": 0.6857140000001465
        },
        {
          "name": "A#5",
          "midi": 82,
          "time": 66.85711500000086,
          "velocity": 0.8267716535433071,
          "duration": 2.7428559999996622
        },
        {
          "name": "G#5",
          "midi": 80,
          "time": 69.59997100000052,
          "velocity": 0.8346456692913385,
          "duration": 1.3714279999997814
        },
        {
          "name": "F#5",
          "midi": 78,
          "time": 70.9713990000003,
          "velocity": 0.7874015748031497,
          "duration": 0.3428570000000093
        },
        {
          "name": "F5",
          "midi": 77,
          "time": 71.31425600000031,
          "velocity": 0.7874015748031497,
          "duration": 0.17142850000000465
        },
        {
          "name": "D#5",
          "midi": 75,
          "time": 71.48568450000032,
          "velocity": 0.7874015748031497,
          "duration": 0.3428569999999951
        },
        {
          "name": "F5",
          "midi": 77,
          "time": 71.82854150000031,
          "velocity": 0.8346456692913385,
          "duration": 0.17142850000000465
        },
        {
          "name": "F#5",
          "midi": 78,
          "time": 71.99997000000032,
          "velocity": 0.8346456692913385,
          "duration": 0.17142849999997622
        },
        {
          "name": "G#5",
          "midi": 80,
          "time": 72.1713985000003,
          "velocity": 0.8346456692913385,
          "duration": 0.17142849999997622
        },
        {
          "name": "A#5",
          "midi": 82,
          "time": 72.34282700000027,
          "velocity": 0.8267716535433071,
          "duration": 1.371427999999824
        },
        {
          "name": "G#5",
          "midi": 80,
          "time": 73.7142550000001,
          "velocity": 0.7874015748031497,
          "duration": 1.3714279999998382
        },
        {
          "name": "G#5",
          "midi": 80,
          "time": 75.08568299999993,
          "velocity": 0.7874015748031497,
          "duration": 0.8571424999998811
        },
        {
          "name": "G5",
          "midi": 79,
          "time": 75.94282549999981,
          "velocity": 0.8031496062992126,
          "duration": 0.08571424999999522
        },
        {
          "name": "G#5",
          "midi": 80,
          "time": 76.1142539999998,
          "velocity": 0.8267716535433071,
          "duration": 0.08571424999999522
        },
        {
          "name": "G5",
          "midi": 79,
          "time": 76.2856824999998,
          "velocity": 0.7874015748031497,
          "duration": 0.6857140000000044
        },
        {
          "name": "G5",
          "midi": 79,
          "time": 77.1428249999998,
          "velocity": 0.8188976377952756,
          "duration": 0.17142850000000465
        },
        {
          "name": "F5",
          "midi": 77,
          "time": 77.31425349999981,
          "velocity": 0.84251968503937,
          "duration": 0.17142850000000465
        },
        {
          "name": "D#5",
          "midi": 75,
          "time": 77.48568199999981,
          "velocity": 0.84251968503937,
          "duration": 0.08571424999999522
        },
        {
          "name": "F5",
          "midi": 77,
          "time": 77.57139624999981,
          "velocity": 0.7952755905511811,
          "duration": 0.08571424999999522
        },
        {
          "name": "F#5",
          "midi": 78,
          "time": 77.6571104999998,
          "velocity": 0.8346456692913385,
          "duration": 0.08571424999999522
        },
        {
          "name": "G#5",
          "midi": 80,
          "time": 77.7428247499998,
          "velocity": 0.8110236220472441,
          "duration": 0.08571424999999522
        },
        {
          "name": "A#5",
          "midi": 82,
          "time": 77.8285389999998,
          "velocity": 0.7952755905511811,
          "duration": 1.3714279999998524
        },
        {
          "name": "G#5",
          "midi": 80,
          "time": 79.19996699999965,
          "velocity": 0.8267716535433071,
          "duration": 0.34285699999996666
        },
        {
          "name": "G#5",
          "midi": 80,
          "time": 79.71425249999959,
          "velocity": 0.7874015748031497,
          "duration": 0.17142850000000465
        },
        {
          "name": "F5",
          "midi": 77,
          "time": 80.05710949999958,
          "velocity": 0.8346456692913385,
          "duration": 0.17142850000000465
        },
        {
          "name": "F5",
          "midi": 77,
          "time": 80.39996649999955,
          "velocity": 0.8346456692913385,
          "duration": 1.5428564999998997
        },
        {
          "name": "F#5",
          "midi": 78,
          "time": 81.94282299999945,
          "velocity": 0.7952755905511811,
          "duration": 1.3714279999999235
        },
        {
          "name": "F#5",
          "midi": 78,
          "time": 83.31425099999937,
          "velocity": 0.84251968503937,
          "duration": 1.19999949999999
        },
        {
          "name": "F5",
          "midi": 77,
          "time": 84.51425049999936,
          "velocity": 0.8346456692913385,
          "duration": 0.08571424999999522
        },
        {
          "name": "F#5",
          "midi": 78,
          "time": 84.59996474999936,
          "velocity": 0.84251968503937,
          "duration": 0.08571424999999522
        },
        {
          "name": "G#5",
          "midi": 80,
          "time": 84.68567899999935,
          "velocity": 0.8188976377952756,
          "duration": 1.19999949999999
        },
        {
          "name": "F#5",
          "midi": 78,
          "time": 85.88567849999934,
          "velocity": 0.84251968503937,
          "duration": 0.08571424999999522
        },
        {
          "name": "G#5",
          "midi": 80,
          "time": 85.97139274999934,
          "velocity": 0.7952755905511811,
          "duration": 0.08571424999999522
        },
        {
          "name": "A#5",
          "midi": 82,
          "time": 86.05710699999933,
          "velocity": 0.84251968503937,
          "duration": 1.3714279999999377
        },
        {
          "name": "C#6",
          "midi": 85,
          "time": 87.42853499999927,
          "velocity": 0.8267716535433071,
          "duration": 1.3714280000000088
        }
      ],
      "controlChanges": {
        "1": [
          {
            "number": 1,
            "time": 12.06428068750004,
            "value": 0.023622047244094488
          },
          {
            "number": 1,
            "time": 12.082137822916707,
            "value": 0.07086614173228346
          },
          {
            "number": 1,
            "time": 12.099994958333374,
            "value": 0.12598425196850394
          },
          {
            "number": 1,
            "time": 12.117852093750042,
            "value": 0.1889763779527559
          },
          {
            "number": 1,
            "time": 12.136423514583376,
            "value": 0.23622047244094488
          },
          {
            "number": 1,
            "time": 12.154280650000043,
            "value": 0.28346456692913385
          },
          {
            "number": 1,
            "time": 12.17213778541671,
            "value": 0.3228346456692913
          },
          {
            "number": 1,
            "time": 12.189994920833378,
            "value": 0.3543307086614173
          },
          {
            "number": 1,
            "time": 12.207852056250045,
            "value": 0.3779527559055118
          },
          {
            "number": 1,
            "time": 12.225709191666713,
            "value": 0.3937007874015748
          },
          {
            "number": 1,
            "time": 12.24356632708338,
            "value": 0.4094488188976378
          },
          {
            "number": 1,
            "time": 12.261423462500048,
            "value": 0.4251968503937008
          },
          {
            "number": 1,
            "time": 12.279280597916715,
            "value": 0.4409448818897638
          },
          {
            "number": 1,
            "time": 12.297137733333383,
            "value": 0.4566929133858268
          },
          {
            "number": 1,
            "time": 12.31499486875005,
            "value": 0.47244094488188976
          },
          {
            "number": 1,
            "time": 12.332852004166718,
            "value": 0.49606299212598426
          },
          {
            "number": 1,
            "time": 12.350709139583385,
            "value": 0.49606299212598426
          },
          {
            "number": 1,
            "time": 13.124280245833384,
            "value": 0.4409448818897638
          },
          {
            "number": 1,
            "time": 13.142137381250052,
            "value": 0.3700787401574803
          },
          {
            "number": 1,
            "time": 13.15999451666672,
            "value": 0.28346456692913385
          },
          {
            "number": 1,
            "time": 13.177851652083387,
            "value": 0.1968503937007874
          },
          {
            "number": 1,
            "time": 13.195708787500054,
            "value": 0.10236220472440945
          },
          {
            "number": 1,
            "time": 13.21356592291672,
            "value": 0.007874015748031496
          },
          {
            "number": 1,
            "time": 13.231423058333387,
            "value": 0
          },
          {
            "number": 1,
            "time": 16.120707568750056,
            "value": 0.023622047244094488
          },
          {
            "number": 1,
            "time": 16.138564704166722,
            "value": 0.06299212598425197
          },
          {
            "number": 1,
            "time": 16.156421839583388,
            "value": 0.10236220472440945
          },
          {
            "number": 1,
            "time": 16.174278975000053,
            "value": 0.14960629921259844
          },
          {
            "number": 1,
            "time": 16.19213611041672,
            "value": 0.1889763779527559
          },
          {
            "number": 1,
            "time": 16.209993245833385,
            "value": 0.2283464566929134
          },
          {
            "number": 1,
            "time": 16.22785038125005,
            "value": 0.25984251968503935
          },
          {
            "number": 1,
            "time": 16.245707516666716,
            "value": 0.29133858267716534
          },
          {
            "number": 1,
            "time": 16.26356465208338,
            "value": 0.31496062992125984
          },
          {
            "number": 1,
            "time": 16.281421787500047,
            "value": 0.33070866141732286
          },
          {
            "number": 1,
            "time": 16.299278922916713,
            "value": 0.3464566929133858
          },
          {
            "number": 1,
            "time": 16.31713605833338,
            "value": 0.3858267716535433
          },
          {
            "number": 1,
            "time": 16.334993193750044,
            "value": 0.4015748031496063
          },
          {
            "number": 1,
            "time": 16.35285032916671,
            "value": 0.4094488188976378
          },
          {
            "number": 1,
            "time": 16.370707464583376,
            "value": 0.4251968503937008
          },
          {
            "number": 1,
            "time": 16.389278885416708,
            "value": 0.4409448818897638
          },
          {
            "number": 1,
            "time": 16.407136020833374,
            "value": 0.4566929133858268
          },
          {
            "number": 1,
            "time": 16.427850297916706,
            "value": 0.47244094488188976
          },
          {
            "number": 1,
            "time": 16.44570743333337,
            "value": 0.49606299212598426
          },
          {
            "number": 1,
            "time": 16.463564568750037,
            "value": 0.49606299212598426
          },
          {
            "number": 1,
            "time": 16.785707291666704,
            "value": 0.4251968503937008
          },
          {
            "number": 1,
            "time": 16.80356442708337,
            "value": 0.3228346456692913
          },
          {
            "number": 1,
            "time": 16.821421562500035,
            "value": 0.2204724409448819
          },
          {
            "number": 1,
            "time": 16.8392786979167,
            "value": 0.11023622047244094
          },
          {
            "number": 1,
            "time": 16.857850118750033,
            "value": 0.007874015748031496
          },
          {
            "number": 1,
            "time": 16.8757072541667,
            "value": 0
          },
          {
            "number": 1,
            "time": 17.612849804166697,
            "value": 0
          },
          {
            "number": 1,
            "time": 17.630706939583362,
            "value": 0.023622047244094488
          },
          {
            "number": 1,
            "time": 17.648564075000028,
            "value": 0.03937007874015748
          },
          {
            "number": 1,
            "time": 17.666421210416694,
            "value": 0.07874015748031496
          },
          {
            "number": 1,
            "time": 17.68427834583336,
            "value": 0.11023622047244094
          },
          {
            "number": 1,
            "time": 17.702135481250025,
            "value": 0.14173228346456693
          },
          {
            "number": 1,
            "time": 17.71999261666669,
            "value": 0.18110236220472442
          },
          {
            "number": 1,
            "time": 17.737849752083356,
            "value": 0.1968503937007874
          },
          {
            "number": 1,
            "time": 17.755706887500022,
            "value": 0.2283464566929134
          },
          {
            "number": 1,
            "time": 17.773564022916688,
            "value": 0.25196850393700787
          },
          {
            "number": 1,
            "time": 17.791421158333353,
            "value": 0.28346456692913385
          },
          {
            "number": 1,
            "time": 17.80927829375002,
            "value": 0.2992125984251969
          },
          {
            "number": 1,
            "time": 17.827135429166685,
            "value": 0.3228346456692913
          },
          {
            "number": 1,
            "time": 17.845706850000017,
            "value": 0.3543307086614173
          },
          {
            "number": 1,
            "time": 17.863563985416683,
            "value": 0.3700787401574803
          },
          {
            "number": 1,
            "time": 17.88142112083335,
            "value": 0.3937007874015748
          },
          {
            "number": 1,
            "time": 17.899278256250014,
            "value": 0.4094488188976378
          },
          {
            "number": 1,
            "time": 17.91713539166668,
            "value": 0.4409448818897638
          },
          {
            "number": 1,
            "time": 17.934992527083345,
            "value": 0.4566929133858268
          },
          {
            "number": 1,
            "time": 17.95284966250001,
            "value": 0.47244094488188976
          },
          {
            "number": 1,
            "time": 17.970706797916677,
            "value": 0.4881889763779528
          },
          {
            "number": 1,
            "time": 17.988563933333342,
            "value": 0.49606299212598426
          },
          {
            "number": 1,
            "time": 18.418563754166676,
            "value": 0.4251968503937008
          },
          {
            "number": 1,
            "time": 18.436420889583342,
            "value": 0.33858267716535434
          },
          {
            "number": 1,
            "time": 18.454278025000008,
            "value": 0.23622047244094488
          },
          {
            "number": 1,
            "time": 18.472135160416673,
            "value": 0.13385826771653545
          },
          {
            "number": 1,
            "time": 18.48999229583334,
            "value": 0.031496062992125984
          },
          {
            "number": 1,
            "time": 18.507849431250005,
            "value": 0
          },
          {
            "number": 1,
            "time": 20.340705810416672,
            "value": 0
          },
          {
            "number": 1,
            "time": 20.358562945833338,
            "value": 0.047244094488188976
          },
          {
            "number": 1,
            "time": 20.376420081250004,
            "value": 0.11023622047244094
          },
          {
            "number": 1,
            "time": 20.39427721666667,
            "value": 0.16535433070866143
          },
          {
            "number": 1,
            "time": 20.412134352083335,
            "value": 0.2125984251968504
          },
          {
            "number": 1,
            "time": 20.4299914875,
            "value": 0.2440944881889764
          },
          {
            "number": 1,
            "time": 20.447848622916666,
            "value": 0.2755905511811024
          },
          {
            "number": 1,
            "time": 20.465705758333332,
            "value": 0.29133858267716534
          },
          {
            "number": 1,
            "time": 20.483562893749998,
            "value": 0.30708661417322836
          },
          {
            "number": 1,
            "time": 20.501420029166663,
            "value": 0.31496062992125984
          },
          {
            "number": 1,
            "time": 20.627134262499997,
            "value": 0.3228346456692913
          },
          {
            "number": 1,
            "time": 20.698562804166663,
            "value": 0.33858267716535434
          },
          {
            "number": 1,
            "time": 20.734277074999998,
            "value": 0.3464566929133858
          },
          {
            "number": 1,
            "time": 20.752134210416664,
            "value": 0.3543307086614173
          },
          {
            "number": 1,
            "time": 20.76999134583333,
            "value": 0.36220472440944884
          },
          {
            "number": 1,
            "time": 20.787848481249995,
            "value": 0.3779527559055118
          },
          {
            "number": 1,
            "time": 20.80570561666666,
            "value": 0.3858267716535433
          },
          {
            "number": 1,
            "time": 20.823562752083326,
            "value": 0.3937007874015748
          },
          {
            "number": 1,
            "time": 20.84213417291666,
            "value": 0.4094488188976378
          },
          {
            "number": 1,
            "time": 20.877848443749993,
            "value": 0.41732283464566927
          },
          {
            "number": 1,
            "time": 20.89570557916666,
            "value": 0.4251968503937008
          },
          {
            "number": 1,
            "time": 20.913562714583325,
            "value": 0.4409448818897638
          },
          {
            "number": 1,
            "time": 20.93141984999999,
            "value": 0.44881889763779526
          },
          {
            "number": 1,
            "time": 20.949276985416656,
            "value": 0.4566929133858268
          },
          {
            "number": 1,
            "time": 20.96713412083332,
            "value": 0.47244094488188976
          },
          {
            "number": 1,
            "time": 20.984991256249987,
            "value": 0.48031496062992124
          },
          {
            "number": 1,
            "time": 21.002848391666653,
            "value": 0.49606299212598426
          },
          {
            "number": 1,
            "time": 21.02070552708332,
            "value": 0.49606299212598426
          },
          {
            "number": 1,
            "time": 22.026419393749986,
            "value": 0.48031496062992124
          },
          {
            "number": 1,
            "time": 22.044276529166652,
            "value": 0.4409448818897638
          },
          {
            "number": 1,
            "time": 22.062133664583317,
            "value": 0.4015748031496063
          },
          {
            "number": 1,
            "time": 22.08070508541665,
            "value": 0.36220472440944884
          },
          {
            "number": 1,
            "time": 22.098562220833315,
            "value": 0.3228346456692913
          },
          {
            "number": 1,
            "time": 22.11641935624998,
            "value": 0.28346456692913385
          },
          {
            "number": 1,
            "time": 22.134276491666647,
            "value": 0.2440944881889764
          },
          {
            "number": 1,
            "time": 22.152133627083312,
            "value": 0.2047244094488189
          },
          {
            "number": 1,
            "time": 22.169990762499978,
            "value": 0.16535433070866143
          },
          {
            "number": 1,
            "time": 22.187847897916644,
            "value": 0.12598425196850394
          },
          {
            "number": 1,
            "time": 22.20570503333331,
            "value": 0.08661417322834646
          },
          {
            "number": 1,
            "time": 22.223562168749975,
            "value": 0.07086614173228346
          },
          {
            "number": 1,
            "time": 22.24141930416664,
            "value": 0.031496062992125984
          },
          {
            "number": 1,
            "time": 22.259276439583306,
            "value": 0
          },
          {
            "number": 1,
            "time": 50.80997882916669,
            "value": 0.015748031496062992
          },
          {
            "number": 1,
            "time": 50.82783596458336,
            "value": 0.031496062992125984
          },
          {
            "number": 1,
            "time": 50.86355023541669,
            "value": 0.05511811023622047
          },
          {
            "number": 1,
            "time": 50.88140737083336,
            "value": 0.07086614173228346
          },
          {
            "number": 1,
            "time": 50.89926450625003,
            "value": 0.09448818897637795
          },
          {
            "number": 1,
            "time": 50.934978777083366,
            "value": 0.11811023622047244
          },
          {
            "number": 1,
            "time": 50.971407333333374,
            "value": 0.13385826771653545
          },
          {
            "number": 1,
            "time": 50.989264468750044,
            "value": 0.15748031496062992
          },
          {
            "number": 1,
            "time": 51.02497873958338,
            "value": 0.1732283464566929
          },
          {
            "number": 1,
            "time": 51.04283587500005,
            "value": 0.1968503937007874
          },
          {
            "number": 1,
            "time": 51.06355015208339,
            "value": 0.2125984251968504
          },
          {
            "number": 1,
            "time": 51.09926442291672,
            "value": 0.23622047244094488
          },
          {
            "number": 1,
            "time": 51.11712155833339,
            "value": 0.25984251968503935
          },
          {
            "number": 1,
            "time": 51.13497869375006,
            "value": 0.28346456692913385
          },
          {
            "number": 1,
            "time": 51.152835829166726,
            "value": 0.2992125984251969
          },
          {
            "number": 1,
            "time": 51.17140725000006,
            "value": 0.3228346456692913
          },
          {
            "number": 1,
            "time": 51.2071215208334,
            "value": 0.33858267716535434
          },
          {
            "number": 1,
            "time": 51.24283579166673,
            "value": 0.36220472440944884
          },
          {
            "number": 1,
            "time": 51.27855006250007,
            "value": 0.3858267716535433
          },
          {
            "number": 1,
            "time": 51.3142643333334,
            "value": 0.4015748031496063
          },
          {
            "number": 1,
            "time": 51.33212146875007,
            "value": 0.4251968503937008
          },
          {
            "number": 1,
            "time": 51.367835739583406,
            "value": 0.4409448818897638
          },
          {
            "number": 1,
            "time": 51.40355001041674,
            "value": 0.4645669291338583
          },
          {
            "number": 1,
            "time": 51.4578357020834,
            "value": 0.48031496062992124
          },
          {
            "number": 1,
            "time": 51.54712137916673,
            "value": 0.49606299212598426
          },
          {
            "number": 1,
            "time": 51.58283565000007,
            "value": 0.5196850393700787
          },
          {
            "number": 1,
            "time": 51.6185499208334,
            "value": 0.5354330708661418
          },
          {
            "number": 1,
            "time": 51.67283561250007,
            "value": 0.5590551181102362
          },
          {
            "number": 1,
            "time": 51.708549883333404,
            "value": 0.5748031496062992
          },
          {
            "number": 1,
            "time": 51.72640701875007,
            "value": 0.5984251968503937
          },
          {
            "number": 1,
            "time": 51.76212128958341,
            "value": 0.6141732283464567
          },
          {
            "number": 1,
            "time": 51.79783556041674,
            "value": 0.6377952755905512
          },
          {
            "number": 1,
            "time": 51.833549831250075,
            "value": 0.6614173228346457
          },
          {
            "number": 1,
            "time": 51.887121237500075,
            "value": 0.6771653543307087
          },
          {
            "number": 1,
            "time": 51.92283550833341,
            "value": 0.7007874015748031
          },
          {
            "number": 1,
            "time": 51.97712120000007,
            "value": 0.7165354330708661
          },
          {
            "number": 1,
            "time": 52.192121110416736,
            "value": 0.6614173228346457
          },
          {
            "number": 1,
            "time": 52.209978245833405,
            "value": 0.5511811023622047
          },
          {
            "number": 1,
            "time": 52.23069252291674,
            "value": 0.4409448818897638
          },
          {
            "number": 1,
            "time": 52.24854965833341,
            "value": 0.30708661417322836
          },
          {
            "number": 1,
            "time": 52.26640679375008,
            "value": 0.15748031496062992
          },
          {
            "number": 1,
            "time": 52.28426392916675,
            "value": 0.007874015748031496
          },
          {
            "number": 1,
            "time": 52.30212106458342,
            "value": 0
          },
          {
            "number": 1,
            "time": 56.143548035416885,
            "value": 0.023622047244094488
          },
          {
            "number": 1,
            "time": 56.161405170833554,
            "value": 0.05511811023622047
          },
          {
            "number": 1,
            "time": 56.17926230625022,
            "value": 0.08661417322834646
          },
          {
            "number": 1,
            "time": 56.19711944166689,
            "value": 0.11811023622047244
          },
          {
            "number": 1,
            "time": 56.21497657708356,
            "value": 0.15748031496062992
          },
          {
            "number": 1,
            "time": 56.23283371250023,
            "value": 0.1889763779527559
          },
          {
            "number": 1,
            "time": 56.2506908479169,
            "value": 0.2125984251968504
          },
          {
            "number": 1,
            "time": 56.26854798333357,
            "value": 0.23622047244094488
          },
          {
            "number": 1,
            "time": 56.28640511875024,
            "value": 0.25984251968503935
          },
          {
            "number": 1,
            "time": 56.30426225416691,
            "value": 0.28346456692913385
          },
          {
            "number": 1,
            "time": 56.32211938958358,
            "value": 0.2992125984251969
          },
          {
            "number": 1,
            "time": 56.35783366041691,
            "value": 0.3228346456692913
          },
          {
            "number": 1,
            "time": 56.39426221666691,
            "value": 0.3464566929133858
          },
          {
            "number": 1,
            "time": 56.41211935208358,
            "value": 0.36220472440944884
          },
          {
            "number": 1,
            "time": 56.42997648750025,
            "value": 0.3858267716535433
          },
          {
            "number": 1,
            "time": 56.44783362291692,
            "value": 0.4015748031496063
          },
          {
            "number": 1,
            "time": 56.46569075833359,
            "value": 0.4251968503937008
          },
          {
            "number": 1,
            "time": 56.483547893750256,
            "value": 0.4409448818897638
          },
          {
            "number": 1,
            "time": 56.51926216458359,
            "value": 0.4645669291338583
          },
          {
            "number": 1,
            "time": 56.537119300000256,
            "value": 0.4881889763779528
          },
          {
            "number": 1,
            "time": 56.554976435416926,
            "value": 0.5039370078740157
          },
          {
            "number": 1,
            "time": 56.59069070625026,
            "value": 0.5196850393700787
          },
          {
            "number": 1,
            "time": 56.608547841666926,
            "value": 0.5433070866141733
          },
          {
            "number": 1,
            "time": 56.66283353333359,
            "value": 0.5590551181102362
          },
          {
            "number": 1,
            "time": 56.68069066875026,
            "value": 0.5826771653543307
          },
          {
            "number": 1,
            "time": 56.69854780416693,
            "value": 0.5984251968503937
          },
          {
            "number": 1,
            "time": 56.75211921041693,
            "value": 0.6220472440944882
          },
          {
            "number": 1,
            "time": 56.8235477520836,
            "value": 0.6377952755905512
          },
          {
            "number": 1,
            "time": 56.88069058541693,
            "value": 0.6614173228346457
          },
          {
            "number": 1,
            "time": 57.05926193958359,
            "value": 0.6771653543307087
          },
          {
            "number": 1,
            "time": 57.41783321875027,
            "value": 0.7007874015748031
          },
          {
            "number": 1,
            "time": 57.57854743750029,
            "value": 0.7165354330708661
          },
          {
            "number": 1,
            "time": 57.68640453541696,
            "value": 0.7401574803149606
          },
          {
            "number": 1,
            "time": 57.84711875416697,
            "value": 0.7165354330708661
          },
          {
            "number": 1,
            "time": 57.86497588958364,
            "value": 0.7007874015748031
          },
          {
            "number": 1,
            "time": 57.88283302500031,
            "value": 0.6692913385826772
          },
          {
            "number": 1,
            "time": 57.90140444583365,
            "value": 0.6535433070866141
          },
          {
            "number": 1,
            "time": 57.91926158125032,
            "value": 0.6299212598425197
          },
          {
            "number": 1,
            "time": 57.95497585208365,
            "value": 0.6141732283464567
          },
          {
            "number": 1,
            "time": 57.99069012291699,
            "value": 0.5905511811023622
          },
          {
            "number": 1,
            "time": 58.02926153541699,
            "value": 0.5748031496062992
          },
          {
            "number": 1,
            "time": 58.064975806250324,
            "value": 0.5511811023622047
          },
          {
            "number": 1,
            "time": 58.08283294166699,
            "value": 0.5354330708661418
          },
          {
            "number": 1,
            "time": 58.119261497916995,
            "value": 0.5118110236220472
          },
          {
            "number": 1,
            "time": 58.137118633333664,
            "value": 0.49606299212598426
          },
          {
            "number": 1,
            "time": 58.15497576875033,
            "value": 0.47244094488188976
          },
          {
            "number": 1,
            "time": 58.172832904167,
            "value": 0.4409448818897638
          },
          {
            "number": 1,
            "time": 58.19069003958367,
            "value": 0.3779527559055118
          },
          {
            "number": 1,
            "time": 58.20854717500034,
            "value": 0.33858267716535434
          },
          {
            "number": 1,
            "time": 58.22640431041701,
            "value": 0.25984251968503935
          },
          {
            "number": 1,
            "time": 58.24426144583368,
            "value": 0.18110236220472442
          },
          {
            "number": 1,
            "time": 58.26211858125035,
            "value": 0.09448818897637795
          },
          {
            "number": 1,
            "time": 58.27997571666702,
            "value": 0
          },
          {
            "number": 1,
            "time": 58.72783267291704,
            "value": 0.023622047244094488
          },
          {
            "number": 1,
            "time": 58.74568980833371,
            "value": 0.05511811023622047
          },
          {
            "number": 1,
            "time": 58.76354694375038,
            "value": 0.07874015748031496
          },
          {
            "number": 1,
            "time": 58.78140407916705,
            "value": 0.10236220472440945
          },
          {
            "number": 1,
            "time": 58.799261214583716,
            "value": 0.13385826771653545
          },
          {
            "number": 1,
            "time": 58.817118350000385,
            "value": 0.15748031496062992
          },
          {
            "number": 1,
            "time": 58.834975485417054,
            "value": 0.1889763779527559
          },
          {
            "number": 1,
            "time": 58.85283262083372,
            "value": 0.2125984251968504
          },
          {
            "number": 1,
            "time": 58.87068975625039,
            "value": 0.2440944881889764
          },
          {
            "number": 1,
            "time": 58.88926117708373,
            "value": 0.2755905511811024
          },
          {
            "number": 1,
            "time": 58.9071183125004,
            "value": 0.2992125984251969
          },
          {
            "number": 1,
            "time": 58.92497544791707,
            "value": 0.33070866141732286
          },
          {
            "number": 1,
            "time": 58.94283258333374,
            "value": 0.3543307086614173
          },
          {
            "number": 1,
            "time": 58.96068971875041,
            "value": 0.3779527559055118
          },
          {
            "number": 1,
            "time": 58.97854685416708,
            "value": 0.4015748031496063
          },
          {
            "number": 1,
            "time": 59.01426112500041,
            "value": 0.4251968503937008
          },
          {
            "number": 1,
            "time": 59.03211826041708,
            "value": 0.44881889763779526
          },
          {
            "number": 1,
            "time": 59.04997539583375,
            "value": 0.4645669291338583
          },
          {
            "number": 1,
            "time": 59.08568966666708,
            "value": 0.4881889763779528
          },
          {
            "number": 1,
            "time": 59.15783249375042,
            "value": 0.5039370078740157
          },
          {
            "number": 1,
            "time": 59.178546770833755,
            "value": 0.5196850393700787
          },
          {
            "number": 1,
            "time": 59.196403906250424,
            "value": 0.5433070866141733
          },
          {
            "number": 1,
            "time": 59.24997531250043,
            "value": 0.5590551181102362
          },
          {
            "number": 1,
            "time": 59.2678324479171,
            "value": 0.5826771653543307
          },
          {
            "number": 1,
            "time": 59.28568958333377,
            "value": 0.6062992125984252
          },
          {
            "number": 1,
            "time": 59.30354671875044,
            "value": 0.6220472440944882
          },
          {
            "number": 1,
            "time": 59.33926098958377,
            "value": 0.6456692913385826
          },
          {
            "number": 1,
            "time": 59.35783241041711,
            "value": 0.6614173228346457
          },
          {
            "number": 1,
            "time": 59.39354668125044,
            "value": 0.6850393700787402
          },
          {
            "number": 1,
            "time": 59.41140381666711,
            "value": 0.7007874015748031
          },
          {
            "number": 1,
            "time": 59.42926095208378,
            "value": 0.7244094488188977
          },
          {
            "number": 1,
            "time": 59.44711808750045,
            "value": 0.7480314960629921
          },
          {
            "number": 1,
            "time": 59.46497522291712,
            "value": 0.7637795275590551
          },
          {
            "number": 1,
            "time": 59.50068949375045,
            "value": 0.7874015748031497
          },
          {
            "number": 1,
            "time": 59.733546539583784,
            "value": 0.7637795275590551
          },
          {
            "number": 1,
            "time": 59.751403675000454,
            "value": 0.7007874015748031
          },
          {
            "number": 1,
            "time": 59.76926081041712,
            "value": 0.5984251968503937
          },
          {
            "number": 1,
            "time": 59.78711794583379,
            "value": 0.47244094488188976
          },
          {
            "number": 1,
            "time": 59.80497508125046,
            "value": 0.31496062992125984
          },
          {
            "number": 1,
            "time": 59.82283221666713,
            "value": 0.13385826771653545
          },
          {
            "number": 1,
            "time": 59.8406893520838,
            "value": 0
          },
          {
            "number": 1,
            "time": 61.473545814583886,
            "value": 0.031496062992125984
          },
          {
            "number": 1,
            "time": 61.49426009166722,
            "value": 0.06299212598425197
          },
          {
            "number": 1,
            "time": 61.51211722708389,
            "value": 0.08661417322834646
          },
          {
            "number": 1,
            "time": 61.52997436250056,
            "value": 0.11023622047244094
          },
          {
            "number": 1,
            "time": 61.54783149791723,
            "value": 0.12598425196850394
          },
          {
            "number": 1,
            "time": 61.5656886333339,
            "value": 0.14960629921259844
          },
          {
            "number": 1,
            "time": 61.58426005416724,
            "value": 0.1732283464566929
          },
          {
            "number": 1,
            "time": 61.60211718958391,
            "value": 0.1968503937007874
          },
          {
            "number": 1,
            "time": 61.61997432500058,
            "value": 0.2204724409448819
          },
          {
            "number": 1,
            "time": 61.637831460417246,
            "value": 0.2440944881889764
          },
          {
            "number": 1,
            "time": 61.655688595833915,
            "value": 0.2677165354330709
          },
          {
            "number": 1,
            "time": 61.672831445833914,
            "value": 0.2992125984251969
          },
          {
            "number": 1,
            "time": 61.69140286666725,
            "value": 0.3228346456692913
          },
          {
            "number": 1,
            "time": 61.72711713750058,
            "value": 0.33858267716535434
          },
          {
            "number": 1,
            "time": 61.79854567916725,
            "value": 0.36220472440944884
          },
          {
            "number": 1,
            "time": 61.88854564166725,
            "value": 0.3779527559055118
          },
          {
            "number": 1,
            "time": 61.95997418333393,
            "value": 0.4015748031496063
          },
          {
            "number": 1,
            "time": 62.17497409375059,
            "value": 0.3779527559055118
          },
          {
            "number": 1,
            "time": 62.19283122916726,
            "value": 0.3543307086614173
          },
          {
            "number": 1,
            "time": 62.21068836458393,
            "value": 0.33858267716535434
          },
          {
            "number": 1,
            "time": 62.2285455000006,
            "value": 0.31496062992125984
          },
          {
            "number": 1,
            "time": 62.24640263541727,
            "value": 0.29133858267716534
          },
          {
            "number": 1,
            "time": 62.26425977083394,
            "value": 0.2677165354330709
          },
          {
            "number": 1,
            "time": 62.28211690625061,
            "value": 0.23622047244094488
          },
          {
            "number": 1,
            "time": 62.29997404166728,
            "value": 0.1968503937007874
          },
          {
            "number": 1,
            "time": 62.31997403333394,
            "value": 0.12598425196850394
          },
          {
            "number": 1,
            "time": 62.33783116875061,
            "value": 0.06299212598425197
          },
          {
            "number": 1,
            "time": 62.35568830416728,
            "value": 0
          },
          {
            "number": 1,
            "time": 64.36568746666732,
            "value": 0.031496062992125984
          },
          {
            "number": 1,
            "time": 64.383544602084,
            "value": 0.047244094488188976
          },
          {
            "number": 1,
            "time": 64.40140173750068,
            "value": 0.07086614173228346
          },
          {
            "number": 1,
            "time": 64.41925887291734,
            "value": 0.09448818897637795
          },
          {
            "number": 1,
            "time": 64.437116008334,
            "value": 0.11811023622047244
          },
          {
            "number": 1,
            "time": 64.45497314375066,
            "value": 0.14960629921259844
          },
          {
            "number": 1,
            "time": 64.47283027916734,
            "value": 0.18110236220472442
          },
          {
            "number": 1,
            "time": 64.490687414584,
            "value": 0.2047244094488189
          },
          {
            "number": 1,
            "time": 64.50854455000066,
            "value": 0.23622047244094488
          },
          {
            "number": 1,
            "time": 64.52640168541734,
            "value": 0.2677165354330709
          },
          {
            "number": 1,
            "time": 64.544258820834,
            "value": 0.29133858267716534
          },
          {
            "number": 1,
            "time": 64.56211595625066,
            "value": 0.31496062992125984
          },
          {
            "number": 1,
            "time": 64.580687377084,
            "value": 0.33858267716535434
          },
          {
            "number": 1,
            "time": 64.59854451250067,
            "value": 0.3543307086614173
          },
          {
            "number": 1,
            "time": 64.61640164791733,
            "value": 0.3779527559055118
          },
          {
            "number": 1,
            "time": 64.65211591875067,
            "value": 0.3937007874015748
          },
          {
            "number": 1,
            "time": 64.66997305416733,
            "value": 0.41732283464566927
          },
          {
            "number": 1,
            "time": 64.68783018958399,
            "value": 0.4330708661417323
          },
          {
            "number": 1,
            "time": 64.72354446041733,
            "value": 0.4566929133858268
          },
          {
            "number": 1,
            "time": 64.74140159583399,
            "value": 0.47244094488188976
          },
          {
            "number": 1,
            "time": 64.77711586666733,
            "value": 0.49606299212598426
          },
          {
            "number": 1,
            "time": 64.794973002084,
            "value": 0.5118110236220472
          },
          {
            "number": 1,
            "time": 64.81283013750067,
            "value": 0.5433070866141733
          },
          {
            "number": 1,
            "time": 64.83140155833401,
            "value": 0.5669291338582677
          },
          {
            "number": 1,
            "time": 64.84925869375067,
            "value": 0.5984251968503937
          },
          {
            "number": 1,
            "time": 64.86711582916733,
            "value": 0.6220472440944882
          },
          {
            "number": 1,
            "time": 64.884972964584,
            "value": 0.6377952755905512
          },
          {
            "number": 1,
            "time": 64.92068723541733,
            "value": 0.6614173228346457
          },
          {
            "number": 1,
            "time": 64.95925864791734,
            "value": 0.6771653543307087
          },
          {
            "number": 1,
            "time": 65.067115745834,
            "value": 0.6614173228346457
          },
          {
            "number": 1,
            "time": 65.08497288125066,
            "value": 0.6299212598425197
          },
          {
            "number": 1,
            "time": 65.10283001666733,
            "value": 0.5590551181102362
          },
          {
            "number": 1,
            "time": 65.12068715208399,
            "value": 0.4881889763779528
          },
          {
            "number": 1,
            "time": 65.13854428750065,
            "value": 0.41732283464566927
          },
          {
            "number": 1,
            "time": 65.15640142291731,
            "value": 0.33070866141732286
          },
          {
            "number": 1,
            "time": 65.17425855833397,
            "value": 0.23622047244094488
          },
          {
            "number": 1,
            "time": 65.19211569375064,
            "value": 0.12598425196850394
          },
          {
            "number": 1,
            "time": 65.2099728291673,
            "value": 0.015748031496062992
          },
          {
            "number": 1,
            "time": 65.22782996458396,
            "value": 0
          },
          {
            "number": 1,
            "time": 67.17211486875087,
            "value": 0.007874015748031496
          },
          {
            "number": 1,
            "time": 67.18997200416753,
            "value": 0.031496062992125984
          },
          {
            "number": 1,
            "time": 67.20782913958419,
            "value": 0.05511811023622047
          },
          {
            "number": 1,
            "time": 67.22568627500085,
            "value": 0.07874015748031496
          },
          {
            "number": 1,
            "time": 67.24425769583418,
            "value": 0.11023622047244094
          },
          {
            "number": 1,
            "time": 67.26211483125084,
            "value": 0.13385826771653545
          },
          {
            "number": 1,
            "time": 67.2799719666675,
            "value": 0.15748031496062992
          },
          {
            "number": 1,
            "time": 67.29782910208417,
            "value": 0.18110236220472442
          },
          {
            "number": 1,
            "time": 67.3335433729175,
            "value": 0.1968503937007874
          },
          {
            "number": 1,
            "time": 67.35140050833417,
            "value": 0.2204724409448819
          },
          {
            "number": 1,
            "time": 67.36925764375083,
            "value": 0.23622047244094488
          },
          {
            "number": 1,
            "time": 67.38711477916749,
            "value": 0.25984251968503935
          },
          {
            "number": 1,
            "time": 67.40782905625082,
            "value": 0.28346456692913385
          },
          {
            "number": 1,
            "time": 67.42568619166748,
            "value": 0.2992125984251969
          },
          {
            "number": 1,
            "time": 67.46211474791748,
            "value": 0.3228346456692913
          },
          {
            "number": 1,
            "time": 67.47997188333414,
            "value": 0.33858267716535434
          },
          {
            "number": 1,
            "time": 67.4978290187508,
            "value": 0.36220472440944884
          },
          {
            "number": 1,
            "time": 67.53354328958413,
            "value": 0.3779527559055118
          },
          {
            "number": 1,
            "time": 67.55140042500079,
            "value": 0.4015748031496063
          },
          {
            "number": 1,
            "time": 67.56925756041746,
            "value": 0.41732283464566927
          },
          {
            "number": 1,
            "time": 67.60497183125078,
            "value": 0.4409448818897638
          },
          {
            "number": 1,
            "time": 67.62282896666744,
            "value": 0.4566929133858268
          },
          {
            "number": 1,
            "time": 67.6406861020841,
            "value": 0.48031496062992124
          },
          {
            "number": 1,
            "time": 67.67640037291743,
            "value": 0.49606299212598426
          },
          {
            "number": 1,
            "time": 67.69425750833409,
            "value": 0.5118110236220472
          },
          {
            "number": 1,
            "time": 67.71211464375075,
            "value": 0.5354330708661418
          },
          {
            "number": 1,
            "time": 67.73068606458408,
            "value": 0.5511811023622047
          },
          {
            "number": 1,
            "time": 67.74854320000074,
            "value": 0.5748031496062992
          },
          {
            "number": 1,
            "time": 67.7664003354174,
            "value": 0.5984251968503937
          },
          {
            "number": 1,
            "time": 67.78425747083406,
            "value": 0.6220472440944882
          },
          {
            "number": 1,
            "time": 67.80211460625073,
            "value": 0.6377952755905512
          },
          {
            "number": 1,
            "time": 67.81997174166739,
            "value": 0.6614173228346457
          },
          {
            "number": 1,
            "time": 67.85568601250073,
            "value": 0.6771653543307087
          },
          {
            "number": 1,
            "time": 67.87354314791739,
            "value": 0.7007874015748031
          },
          {
            "number": 1,
            "time": 67.90925741875073,
            "value": 0.7165354330708661
          },
          {
            "number": 1,
            "time": 67.92711455416739,
            "value": 0.7401574803149606
          },
          {
            "number": 1,
            "time": 67.94497168958405,
            "value": 0.7559055118110236
          },
          {
            "number": 1,
            "time": 67.96282882500071,
            "value": 0.7795275590551181
          },
          {
            "number": 1,
            "time": 68.01711451666738,
            "value": 0.7952755905511811
          },
          {
            "number": 1,
            "time": 68.08854305833404,
            "value": 0.8188976377952756
          },
          {
            "number": 1,
            "time": 68.1599716000007,
            "value": 0.8346456692913385
          },
          {
            "number": 1,
            "time": 68.21354300625069,
            "value": 0.8582677165354331
          },
          {
            "number": 1,
            "time": 68.24997156250069,
            "value": 0.8740157480314961
          },
          {
            "number": 1,
            "time": 68.30354296875069,
            "value": 0.8976377952755905
          },
          {
            "number": 1,
            "time": 68.35711437500069,
            "value": 0.9133858267716536
          },
          {
            "number": 1,
            "time": 68.5542571500007,
            "value": 0.889763779527559
          },
          {
            "number": 1,
            "time": 68.57497142708402,
            "value": 0.8661417322834646
          },
          {
            "number": 1,
            "time": 68.59282856250069,
            "value": 0.8346456692913385
          },
          {
            "number": 1,
            "time": 68.61068569791735,
            "value": 0.8031496062992126
          },
          {
            "number": 1,
            "time": 68.62854283333401,
            "value": 0.7637795275590551
          },
          {
            "number": 1,
            "time": 68.64639996875067,
            "value": 0.7244094488188977
          },
          {
            "number": 1,
            "time": 68.66425710416733,
            "value": 0.6535433070866141
          },
          {
            "number": 1,
            "time": 68.682114239584,
            "value": 0.6062992125984252
          },
          {
            "number": 1,
            "time": 68.70068566041734,
            "value": 0.5748031496062992
          },
          {
            "number": 1,
            "time": 68.718542795834,
            "value": 0.5433070866141733
          },
          {
            "number": 1,
            "time": 68.73639993125066,
            "value": 0.5039370078740157
          },
          {
            "number": 1,
            "time": 68.75425706666732,
            "value": 0.48031496062992124
          },
          {
            "number": 1,
            "time": 68.77211420208398,
            "value": 0.44881889763779526
          },
          {
            "number": 1,
            "time": 68.78997133750065,
            "value": 0.4251968503937008
          },
          {
            "number": 1,
            "time": 68.80782847291731,
            "value": 0.3937007874015748
          },
          {
            "number": 1,
            "time": 68.82568560833397,
            "value": 0.36220472440944884
          },
          {
            "number": 1,
            "time": 68.84354274375063,
            "value": 0.33070866141732286
          },
          {
            "number": 1,
            "time": 68.8613998791673,
            "value": 0.29133858267716534
          },
          {
            "number": 1,
            "time": 68.87925701458396,
            "value": 0.25984251968503935
          },
          {
            "number": 1,
            "time": 68.89711415000062,
            "value": 0.1889763779527559
          },
          {
            "number": 1,
            "time": 68.91497128541728,
            "value": 0.16535433070866143
          },
          {
            "number": 1,
            "time": 68.93282842083394,
            "value": 0.13385826771653545
          },
          {
            "number": 1,
            "time": 68.9506855562506,
            "value": 0.11023622047244094
          },
          {
            "number": 1,
            "time": 68.96925697708393,
            "value": 0.08661417322834646
          },
          {
            "number": 1,
            "time": 68.98711411250059,
            "value": 0.05511811023622047
          },
          {
            "number": 1,
            "time": 69.00497124791725,
            "value": 0.031496062992125984
          },
          {
            "number": 1,
            "time": 69.02282838333392,
            "value": 0.015748031496062992
          },
          {
            "number": 1,
            "time": 69.04068551875058,
            "value": 0
          },
          {
            "number": 1,
            "time": 69.64925669375052,
            "value": 0.03937007874015748
          },
          {
            "number": 1,
            "time": 69.66711382916718,
            "value": 0.07086614173228346
          },
          {
            "number": 1,
            "time": 69.68497096458384,
            "value": 0.11023622047244094
          },
          {
            "number": 1,
            "time": 69.7028281000005,
            "value": 0.14960629921259844
          },
          {
            "number": 1,
            "time": 69.72068523541716,
            "value": 0.2204724409448819
          },
          {
            "number": 1,
            "time": 69.74211379791716,
            "value": 0.25196850393700787
          },
          {
            "number": 1,
            "time": 69.75997093333382,
            "value": 0.28346456692913385
          },
          {
            "number": 1,
            "time": 69.77782806875048,
            "value": 0.3228346456692913
          },
          {
            "number": 1,
            "time": 69.79568520416714,
            "value": 0.3543307086614173
          },
          {
            "number": 1,
            "time": 69.8135423395838,
            "value": 0.3858267716535433
          },
          {
            "number": 1,
            "time": 69.83139947500047,
            "value": 0.41732283464566927
          },
          {
            "number": 1,
            "time": 69.84925661041713,
            "value": 0.4409448818897638
          },
          {
            "number": 1,
            "time": 69.86711374583379,
            "value": 0.4566929133858268
          },
          {
            "number": 1,
            "time": 69.88497088125045,
            "value": 0.48031496062992124
          },
          {
            "number": 1,
            "time": 69.90282801666712,
            "value": 0.49606299212598426
          },
          {
            "number": 1,
            "time": 69.92068515208378,
            "value": 0.5118110236220472
          },
          {
            "number": 1,
            "time": 69.93854228750044,
            "value": 0.5354330708661418
          },
          {
            "number": 1,
            "time": 69.95711370833376,
            "value": 0.5511811023622047
          },
          {
            "number": 1,
            "time": 69.97497084375043,
            "value": 0.5748031496062992
          },
          {
            "number": 1,
            "time": 69.99282797916709,
            "value": 0.5984251968503937
          },
          {
            "number": 1,
            "time": 70.01068511458375,
            "value": 0.6141732283464567
          },
          {
            "number": 1,
            "time": 70.02854225000041,
            "value": 0.6377952755905512
          },
          {
            "number": 1,
            "time": 70.06425652083374,
            "value": 0.6535433070866141
          },
          {
            "number": 1,
            "time": 70.0821136562504,
            "value": 0.6771653543307087
          },
          {
            "number": 1,
            "time": 70.09997079166706,
            "value": 0.6929133858267716
          },
          {
            "number": 1,
            "time": 70.11782792708372,
            "value": 0.7165354330708661
          },
          {
            "number": 1,
            "time": 70.15354219791706,
            "value": 0.7401574803149606
          },
          {
            "number": 1,
            "time": 70.17139933333372,
            "value": 0.7559055118110236
          },
          {
            "number": 1,
            "time": 70.20782788958373,
            "value": 0.7795275590551181
          },
          {
            "number": 1,
            "time": 70.27925643125039,
            "value": 0.7952755905511811
          },
          {
            "number": 1,
            "time": 70.36854210833373,
            "value": 0.8188976377952756
          },
          {
            "number": 1,
            "time": 70.51211347708373,
            "value": 0.8346456692913385
          },
          {
            "number": 1,
            "time": 70.6728276958337,
            "value": 0.7480314960629921
          },
          {
            "number": 1,
            "time": 70.69068483125037,
            "value": 0.6299212598425197
          },
          {
            "number": 1,
            "time": 70.70854196666703,
            "value": 0.4645669291338583
          },
          {
            "number": 1,
            "time": 70.72711338750035,
            "value": 0.25984251968503935
          },
          {
            "number": 1,
            "time": 70.74497052291701,
            "value": 0.05511811023622047
          },
          {
            "number": 1,
            "time": 70.76282765833368,
            "value": 0
          },
          {
            "number": 1,
            "time": 72.55925548125023,
            "value": 0.03937007874015748
          },
          {
            "number": 1,
            "time": 72.5771126166669,
            "value": 0.07086614173228346
          },
          {
            "number": 1,
            "time": 72.59496975208356,
            "value": 0.09448818897637795
          },
          {
            "number": 1,
            "time": 72.61282688750022,
            "value": 0.16535433070866143
          },
          {
            "number": 1,
            "time": 72.63068402291688,
            "value": 0.2047244094488189
          },
          {
            "number": 1,
            "time": 72.64854115833354,
            "value": 0.2440944881889764
          },
          {
            "number": 1,
            "time": 72.6663982937502,
            "value": 0.2755905511811024
          },
          {
            "number": 1,
            "time": 72.68425542916687,
            "value": 0.30708661417322836
          },
          {
            "number": 1,
            "time": 72.7028268500002,
            "value": 0.3464566929133858
          },
          {
            "number": 1,
            "time": 72.72068398541687,
            "value": 0.3779527559055118
          },
          {
            "number": 1,
            "time": 72.73854112083353,
            "value": 0.4094488188976378
          },
          {
            "number": 1,
            "time": 72.7563982562502,
            "value": 0.44881889763779526
          },
          {
            "number": 1,
            "time": 72.77425539166686,
            "value": 0.4881889763779528
          },
          {
            "number": 1,
            "time": 72.79211252708352,
            "value": 0.5196850393700787
          },
          {
            "number": 1,
            "time": 72.80996966250018,
            "value": 0.5511811023622047
          },
          {
            "number": 1,
            "time": 72.82782679791684,
            "value": 0.5826771653543307
          },
          {
            "number": 1,
            "time": 72.8456839333335,
            "value": 0.6062992125984252
          },
          {
            "number": 1,
            "time": 72.86354106875017,
            "value": 0.6299212598425197
          },
          {
            "number": 1,
            "time": 72.88139820416683,
            "value": 0.6456692913385826
          },
          {
            "number": 1,
            "time": 72.89925533958349,
            "value": 0.6692913385826772
          },
          {
            "number": 1,
            "time": 72.93496961041683,
            "value": 0.6850393700787402
          },
          {
            "number": 1,
            "time": 72.97139816666683,
            "value": 0.7086614173228346
          },
          {
            "number": 1,
            "time": 72.98925530208349,
            "value": 0.7244094488188977
          },
          {
            "number": 1,
            "time": 73.00711243750015,
            "value": 0.7480314960629921
          },
          {
            "number": 1,
            "time": 73.02496957291682,
            "value": 0.7637795275590551
          },
          {
            "number": 1,
            "time": 73.06068384375016,
            "value": 0.7874015748031497
          },
          {
            "number": 1,
            "time": 73.0963981145835,
            "value": 0.8031496062992126
          },
          {
            "number": 1,
            "time": 73.11425525000016,
            "value": 0.8267716535433071
          },
          {
            "number": 1,
            "time": 73.1499695208335,
            "value": 0.84251968503937
          },
          {
            "number": 1,
            "time": 73.18568379166683,
            "value": 0.8661417322834646
          },
          {
            "number": 1,
            "time": 73.2785408958335,
            "value": 0.84251968503937
          },
          {
            "number": 1,
            "time": 73.29639803125016,
            "value": 0.7637795275590551
          },
          {
            "number": 1,
            "time": 73.31425516666683,
            "value": 0.6929133858267716
          },
          {
            "number": 1,
            "time": 73.33211230208349,
            "value": 0.6456692913385826
          },
          {
            "number": 1,
            "time": 73.34996943750015,
            "value": 0.5669291338582677
          },
          {
            "number": 1,
            "time": 73.36782657291681,
            "value": 0.5275590551181102
          },
          {
            "number": 1,
            "time": 73.38568370833347,
            "value": 0.4645669291338583
          },
          {
            "number": 1,
            "time": 73.40354084375014,
            "value": 0.4330708661417323
          },
          {
            "number": 1,
            "time": 73.42211226458348,
            "value": 0.4015748031496063
          },
          {
            "number": 1,
            "time": 73.43996940000014,
            "value": 0.3700787401574803
          },
          {
            "number": 1,
            "time": 73.4578265354168,
            "value": 0.3228346456692913
          },
          {
            "number": 1,
            "time": 73.47568367083346,
            "value": 0.2440944881889764
          },
          {
            "number": 1,
            "time": 73.49354080625012,
            "value": 0.16535433070866143
          },
          {
            "number": 1,
            "time": 73.51139794166679,
            "value": 0.07874015748031496
          },
          {
            "number": 1,
            "time": 73.52925507708345,
            "value": 0
          },
          {
            "number": 1,
            "time": 73.85139780000009,
            "value": 0.03937007874015748
          },
          {
            "number": 1,
            "time": 73.86925493541675,
            "value": 0.13385826771653545
          },
          {
            "number": 1,
            "time": 73.88711207083341,
            "value": 0.2125984251968504
          },
          {
            "number": 1,
            "time": 73.90496920625007,
            "value": 0.2755905511811024
          },
          {
            "number": 1,
            "time": 73.92282634166673,
            "value": 0.33858267716535434
          },
          {
            "number": 1,
            "time": 73.94139776250006,
            "value": 0.4015748031496063
          },
          {
            "number": 1,
            "time": 73.95925489791672,
            "value": 0.4409448818897638
          },
          {
            "number": 1,
            "time": 73.97711203333338,
            "value": 0.47244094488188976
          },
          {
            "number": 1,
            "time": 73.99496916875005,
            "value": 0.5039370078740157
          },
          {
            "number": 1,
            "time": 74.01282630416671,
            "value": 0.5433070866141733
          },
          {
            "number": 1,
            "time": 74.03068343958337,
            "value": 0.5748031496062992
          },
          {
            "number": 1,
            "time": 74.04854057500003,
            "value": 0.6062992125984252
          },
          {
            "number": 1,
            "time": 74.0663977104167,
            "value": 0.6299212598425197
          },
          {
            "number": 1,
            "time": 74.08425484583336,
            "value": 0.6535433070866141
          },
          {
            "number": 1,
            "time": 74.10211198125002,
            "value": 0.6692913385826772
          },
          {
            "number": 1,
            "time": 74.11996911666668,
            "value": 0.6929133858267716
          },
          {
            "number": 1,
            "time": 74.15568338750002,
            "value": 0.7086614173228346
          },
          {
            "number": 1,
            "time": 74.17354052291668,
            "value": 0.7322834645669292
          },
          {
            "number": 1,
            "time": 74.19211194375002,
            "value": 0.7480314960629921
          },
          {
            "number": 1,
            "time": 74.20996907916668,
            "value": 0.7716535433070866
          },
          {
            "number": 1,
            "time": 74.22782621458335,
            "value": 0.7874015748031497
          },
          {
            "number": 1,
            "time": 74.24568335000001,
            "value": 0.8110236220472441
          },
          {
            "number": 1,
            "time": 74.28139762083335,
            "value": 0.8267716535433071
          },
          {
            "number": 1,
            "time": 74.29925475625001,
            "value": 0.8503937007874016
          },
          {
            "number": 1,
            "time": 74.31711189166667,
            "value": 0.8661417322834646
          },
          {
            "number": 1,
            "time": 74.33496902708333,
            "value": 0.889763779527559
          },
          {
            "number": 1,
            "time": 74.3528261625,
            "value": 0.905511811023622
          },
          {
            "number": 1,
            "time": 74.391397575,
            "value": 0.9291338582677166
          },
          {
            "number": 1,
            "time": 74.42782613125,
            "value": 0.9448818897637795
          },
          {
            "number": 1,
            "time": 74.55282607916666,
            "value": 0.889763779527559
          },
          {
            "number": 1,
            "time": 74.57068321458333,
            "value": 0.8110236220472441
          },
          {
            "number": 1,
            "time": 74.58854034999999,
            "value": 0.7244094488188977
          },
          {
            "number": 1,
            "time": 74.60639748541665,
            "value": 0.6377952755905512
          },
          {
            "number": 1,
            "time": 74.62425462083331,
            "value": 0.5433070866141733
          },
          {
            "number": 1,
            "time": 74.64211175624997,
            "value": 0.4566929133858268
          },
          {
            "number": 1,
            "time": 74.66068317708331,
            "value": 0.3858267716535433
          },
          {
            "number": 1,
            "time": 74.67854031249998,
            "value": 0.2992125984251969
          },
          {
            "number": 1,
            "time": 74.69639744791664,
            "value": 0.2047244094488189
          },
          {
            "number": 1,
            "time": 74.7142545833333,
            "value": 0.11811023622047244
          },
          {
            "number": 1,
            "time": 74.73211171874996,
            "value": 0.031496062992125984
          },
          {
            "number": 1,
            "time": 74.74996885416662,
            "value": 0
          },
          {
            "number": 1,
            "time": 75.19782581041659,
            "value": 0.06299212598425197
          },
          {
            "number": 1,
            "time": 75.21568294583325,
            "value": 0.13385826771653545
          },
          {
            "number": 1,
            "time": 75.23354008124991,
            "value": 0.2047244094488189
          },
          {
            "number": 1,
            "time": 75.25139721666658,
            "value": 0.2677165354330709
          },
          {
            "number": 1,
            "time": 75.26925435208324,
            "value": 0.30708661417322836
          },
          {
            "number": 1,
            "time": 75.2871114874999,
            "value": 0.33858267716535434
          },
          {
            "number": 1,
            "time": 75.30496862291656,
            "value": 0.3779527559055118
          },
          {
            "number": 1,
            "time": 75.32282575833322,
            "value": 0.41732283464566927
          },
          {
            "number": 1,
            "time": 75.34068289374989,
            "value": 0.44881889763779526
          },
          {
            "number": 1,
            "time": 75.35854002916655,
            "value": 0.4881889763779528
          },
          {
            "number": 1,
            "time": 75.37639716458321,
            "value": 0.5196850393700787
          },
          {
            "number": 1,
            "time": 75.39425429999987,
            "value": 0.5905511811023622
          },
          {
            "number": 1,
            "time": 75.41211143541653,
            "value": 0.6220472440944882
          },
          {
            "number": 1,
            "time": 75.43068285624987,
            "value": 0.6456692913385826
          },
          {
            "number": 1,
            "time": 75.44853999166654,
            "value": 0.6771653543307087
          },
          {
            "number": 1,
            "time": 75.4663971270832,
            "value": 0.7007874015748031
          },
          {
            "number": 1,
            "time": 75.48425426249986,
            "value": 0.7401574803149606
          },
          {
            "number": 1,
            "time": 75.50211139791652,
            "value": 0.7716535433070866
          },
          {
            "number": 1,
            "time": 75.51996853333318,
            "value": 0.8110236220472441
          },
          {
            "number": 1,
            "time": 75.54068281041651,
            "value": 0.8503937007874016
          },
          {
            "number": 1,
            "time": 75.55853994583318,
            "value": 0.8818897637795275
          },
          {
            "number": 1,
            "time": 75.57639708124984,
            "value": 0.905511811023622
          },
          {
            "number": 1,
            "time": 75.64853990833318,
            "value": 0.889763779527559
          },
          {
            "number": 1,
            "time": 75.66639704374984,
            "value": 0.8031496062992126
          },
          {
            "number": 1,
            "time": 75.6842541791665,
            "value": 0.6692913385826772
          },
          {
            "number": 1,
            "time": 75.70211131458316,
            "value": 0.4645669291338583
          },
          {
            "number": 1,
            "time": 75.71996844999983,
            "value": 0.23622047244094488
          },
          {
            "number": 1,
            "time": 75.73782558541649,
            "value": 0.007874015748031496
          },
          {
            "number": 1,
            "time": 75.75568272083315,
            "value": 0
          },
          {
            "number": 1,
            "time": 77.98211036458312,
            "value": 0.023622047244094488
          },
          {
            "number": 1,
            "time": 77.99996749999978,
            "value": 0.09448818897637795
          },
          {
            "number": 1,
            "time": 78.01782463541645,
            "value": 0.16535433070866143
          },
          {
            "number": 1,
            "time": 78.03568177083311,
            "value": 0.2283464566929134
          },
          {
            "number": 1,
            "time": 78.05353890624977,
            "value": 0.2677165354330709
          },
          {
            "number": 1,
            "time": 78.07139604166643,
            "value": 0.2992125984251969
          },
          {
            "number": 1,
            "time": 78.0892531770831,
            "value": 0.33070866141732286
          },
          {
            "number": 1,
            "time": 78.10711031249976,
            "value": 0.36220472440944884
          },
          {
            "number": 1,
            "time": 78.12496744791642,
            "value": 0.3937007874015748
          },
          {
            "number": 1,
            "time": 78.14353886874976,
            "value": 0.4251968503937008
          },
          {
            "number": 1,
            "time": 78.16139600416642,
            "value": 0.44881889763779526
          },
          {
            "number": 1,
            "time": 78.17925313958308,
            "value": 0.48031496062992124
          },
          {
            "number": 1,
            "time": 78.19711027499974,
            "value": 0.5433070866141733
          },
          {
            "number": 1,
            "time": 78.2149674104164,
            "value": 0.6141732283464567
          },
          {
            "number": 1,
            "time": 78.23282454583307,
            "value": 0.6535433070866141
          },
          {
            "number": 1,
            "time": 78.25068168124973,
            "value": 0.7165354330708661
          },
          {
            "number": 1,
            "time": 78.26853881666639,
            "value": 0.7559055118110236
          },
          {
            "number": 1,
            "time": 78.28639595208305,
            "value": 0.7952755905511811
          },
          {
            "number": 1,
            "time": 78.30425308749972,
            "value": 0.8267716535433071
          },
          {
            "number": 1,
            "time": 78.32211022291638,
            "value": 0.8582677165354331
          },
          {
            "number": 1,
            "time": 78.33996735833304,
            "value": 0.8976377952755905
          },
          {
            "number": 1,
            "time": 78.3578244937497,
            "value": 0.9291338582677166
          },
          {
            "number": 1,
            "time": 78.3771101999997,
            "value": 0.9606299212598425
          },
          {
            "number": 1,
            "time": 78.39496733541637,
            "value": 0.9921259842519685
          },
          {
            "number": 1,
            "time": 78.41282447083303,
            "value": 1
          },
          {
            "number": 1,
            "time": 78.80711002083304,
            "value": 0.9921259842519685
          },
          {
            "number": 1,
            "time": 78.8249671562497,
            "value": 0.9212598425196851
          },
          {
            "number": 1,
            "time": 78.84282429166636,
            "value": 0.8582677165354331
          },
          {
            "number": 1,
            "time": 78.86068142708302,
            "value": 0.7874015748031497
          },
          {
            "number": 1,
            "time": 78.87853856249968,
            "value": 0.7007874015748031
          },
          {
            "number": 1,
            "time": 78.89639569791635,
            "value": 0.5984251968503937
          },
          {
            "number": 1,
            "time": 78.91425283333301,
            "value": 0.47244094488188976
          },
          {
            "number": 1,
            "time": 78.93210996874967,
            "value": 0.2677165354330709
          },
          {
            "number": 1,
            "time": 78.94996710416633,
            "value": 0.015748031496062992
          },
          {
            "number": 1,
            "time": 78.967824239583,
            "value": 0
          }
        ],
        "6": [
          {
            "number": 6,
            "time": 0.7999996666666668,
            "value": 0.12598425196850394
          }
        ],
        "7": [
          {
            "number": 7,
            "time": 0.7999996666666668,
            "value": 0.7244094488188977
          }
        ],
        "10": [
          {
            "number": 10,
            "time": 0.7999996666666668,
            "value": 0.28346456692913385
          }
        ],
        "11": [
          {
            "number": 11,
            "time": 9.613567422916667,
            "value": 0.29133858267716534
          },
          {
            "number": 11,
            "time": 9.631424558333334,
            "value": 0.30708661417322836
          },
          {
            "number": 11,
            "time": 9.649281693750002,
            "value": 0.31496062992125984
          },
          {
            "number": 11,
            "time": 9.667138829166669,
            "value": 0.33858267716535434
          },
          {
            "number": 11,
            "time": 9.684995964583337,
            "value": 0.3464566929133858
          },
          {
            "number": 11,
            "time": 9.702853100000004,
            "value": 0.3543307086614173
          },
          {
            "number": 11,
            "time": 9.720710235416671,
            "value": 0.36220472440944884
          },
          {
            "number": 11,
            "time": 9.738567370833339,
            "value": 0.3700787401574803
          },
          {
            "number": 11,
            "time": 9.756424506250006,
            "value": 0.3779527559055118
          },
          {
            "number": 11,
            "time": 9.79213877708334,
            "value": 0.3858267716535433
          },
          {
            "number": 11,
            "time": 9.827853047916673,
            "value": 0.3937007874015748
          },
          {
            "number": 11,
            "time": 9.884995881250006,
            "value": 0.4015748031496063
          },
          {
            "number": 11,
            "time": 9.902853016666674,
            "value": 0.4094488188976378
          },
          {
            "number": 11,
            "time": 9.920710152083341,
            "value": 0.4251968503937008
          },
          {
            "number": 11,
            "time": 9.938567287500009,
            "value": 0.4409448818897638
          },
          {
            "number": 11,
            "time": 9.956424422916676,
            "value": 0.44881889763779526
          },
          {
            "number": 11,
            "time": 9.974281558333344,
            "value": 0.4566929133858268
          },
          {
            "number": 11,
            "time": 9.992138693750011,
            "value": 0.4645669291338583
          },
          {
            "number": 11,
            "time": 10.009995829166678,
            "value": 0.47244094488188976
          },
          {
            "number": 11,
            "time": 10.027852964583346,
            "value": 0.48031496062992124
          },
          {
            "number": 11,
            "time": 10.045710100000013,
            "value": 0.4881889763779528
          },
          {
            "number": 11,
            "time": 10.06356723541668,
            "value": 0.49606299212598426
          },
          {
            "number": 11,
            "time": 10.117852927083348,
            "value": 0.5039370078740157
          },
          {
            "number": 11,
            "time": 10.153567197916681,
            "value": 0.5118110236220472
          },
          {
            "number": 11,
            "time": 10.189281468750014,
            "value": 0.5196850393700787
          },
          {
            "number": 11,
            "time": 10.207138604166682,
            "value": 0.5275590551181102
          },
          {
            "number": 11,
            "time": 10.224995739583349,
            "value": 0.5354330708661418
          },
          {
            "number": 11,
            "time": 10.242852875000017,
            "value": 0.5433070866141733
          },
          {
            "number": 11,
            "time": 10.260710010416684,
            "value": 0.5511811023622047
          },
          {
            "number": 11,
            "time": 10.278567145833351,
            "value": 0.5590551181102362
          },
          {
            "number": 11,
            "time": 10.296424281250019,
            "value": 0.5669291338582677
          },
          {
            "number": 11,
            "time": 10.314281416666686,
            "value": 0.5748031496062992
          },
          {
            "number": 11,
            "time": 10.38642424375002,
            "value": 0.5826771653543307
          },
          {
            "number": 11,
            "time": 10.422138514583352,
            "value": 0.5905511811023622
          },
          {
            "number": 11,
            "time": 10.475709920833353,
            "value": 0.5984251968503937
          },
          {
            "number": 11,
            "time": 10.49356705625002,
            "value": 0.6062992125984252
          },
          {
            "number": 11,
            "time": 10.511424191666688,
            "value": 0.6141732283464567
          },
          {
            "number": 11,
            "time": 10.529281327083355,
            "value": 0.6220472440944882
          },
          {
            "number": 11,
            "time": 10.547138462500023,
            "value": 0.6299212598425197
          },
          {
            "number": 11,
            "time": 10.56499559791669,
            "value": 0.6456692913385826
          },
          {
            "number": 11,
            "time": 10.582852733333358,
            "value": 0.6535433070866141
          },
          {
            "number": 11,
            "time": 10.601424154166692,
            "value": 0.6692913385826772
          },
          {
            "number": 11,
            "time": 10.619281289583359,
            "value": 0.6771653543307087
          },
          {
            "number": 11,
            "time": 10.637138425000026,
            "value": 0.6850393700787402
          },
          {
            "number": 11,
            "time": 10.67285269583336,
            "value": 0.6929133858267716
          },
          {
            "number": 11,
            "time": 10.708566966666693,
            "value": 0.7007874015748031
          },
          {
            "number": 11,
            "time": 10.744281237500026,
            "value": 0.7086614173228346
          },
          {
            "number": 11,
            "time": 10.762138372916693,
            "value": 0.7165354330708661
          },
          {
            "number": 11,
            "time": 10.815709779166692,
            "value": 0.7244094488188977
          },
          {
            "number": 11,
            "time": 10.83356691458336,
            "value": 0.7322834645669292
          },
          {
            "number": 11,
            "time": 10.86999547083336,
            "value": 0.7401574803149606
          },
          {
            "number": 11,
            "time": 10.887852606250027,
            "value": 0.7480314960629921
          },
          {
            "number": 11,
            "time": 10.941424012500027,
            "value": 0.7559055118110236
          },
          {
            "number": 11,
            "time": 10.97713828333336,
            "value": 0.7637795275590551
          },
          {
            "number": 11,
            "time": 11.012852554166694,
            "value": 0.7716535433070866
          },
          {
            "number": 11,
            "time": 11.051423966666693,
            "value": 0.7795275590551181
          },
          {
            "number": 11,
            "time": 11.087852522916693,
            "value": 0.7874015748031497
          },
          {
            "number": 11,
            "time": 11.10570965833336,
            "value": 0.7952755905511811
          },
          {
            "number": 11,
            "time": 11.141423929166693,
            "value": 0.8031496062992126
          },
          {
            "number": 11,
            "time": 11.15928106458336,
            "value": 0.8110236220472441
          },
          {
            "number": 11,
            "time": 11.177138200000028,
            "value": 0.8188976377952756
          },
          {
            "number": 11,
            "time": 11.194995335416696,
            "value": 0.8267716535433071
          },
          {
            "number": 11,
            "time": 11.212852470833363,
            "value": 0.8346456692913385
          },
          {
            "number": 11,
            "time": 11.23070960625003,
            "value": 0.84251968503937
          },
          {
            "number": 11,
            "time": 11.248566741666698,
            "value": 0.8503937007874016
          },
          {
            "number": 11,
            "time": 11.266423877083366,
            "value": 0.8582677165354331
          },
          {
            "number": 11,
            "time": 11.284281012500033,
            "value": 0.8661417322834646
          },
          {
            "number": 11,
            "time": 11.3021381479167,
            "value": 0.8740157480314961
          },
          {
            "number": 11,
            "time": 11.320709568750035,
            "value": 0.8818897637795275
          },
          {
            "number": 11,
            "time": 11.338566704166702,
            "value": 0.905511811023622
          },
          {
            "number": 11,
            "time": 11.35642383958337,
            "value": 0.9212598425196851
          },
          {
            "number": 11,
            "time": 11.374280975000037,
            "value": 0.9448818897637795
          },
          {
            "number": 11,
            "time": 11.392138110416704,
            "value": 0.968503937007874
          },
          {
            "number": 11,
            "time": 11.409995245833372,
            "value": 0.9921259842519685
          },
          {
            "number": 11,
            "time": 11.42785238125004,
            "value": 1
          },
          {
            "number": 11,
            "time": 22.971418999999972,
            "value": 0
          },
          {
            "number": 11,
            "time": 22.985704708333305,
            "value": 0.2047244094488189
          },
          {
            "number": 11,
            "time": 22.999990416666638,
            "value": 0.29133858267716534
          },
          {
            "number": 11,
            "time": 23.01427612499997,
            "value": 0.3543307086614173
          },
          {
            "number": 11,
            "time": 23.028561833333303,
            "value": 0.4015748031496063
          },
          {
            "number": 11,
            "time": 23.042847541666635,
            "value": 0.44881889763779526
          },
          {
            "number": 11,
            "time": 23.057133249999968,
            "value": 0.4881889763779528
          },
          {
            "number": 11,
            "time": 23.0714189583333,
            "value": 0.5275590551181102
          },
          {
            "number": 11,
            "time": 23.085704666666633,
            "value": 0.5590551181102362
          },
          {
            "number": 11,
            "time": 23.099990374999965,
            "value": 0.5905511811023622
          },
          {
            "number": 11,
            "time": 23.114276083333298,
            "value": 0.6141732283464567
          },
          {
            "number": 11,
            "time": 23.12856179166663,
            "value": 0.6377952755905512
          },
          {
            "number": 11,
            "time": 23.142847499999963,
            "value": 0.6692913385826772
          },
          {
            "number": 11,
            "time": 23.157133208333295,
            "value": 0.6850393700787402
          },
          {
            "number": 11,
            "time": 23.171418916666628,
            "value": 0.7086614173228346
          },
          {
            "number": 11,
            "time": 23.18570462499996,
            "value": 0.7322834645669292
          },
          {
            "number": 11,
            "time": 23.199990333333293,
            "value": 0.7480314960629921
          },
          {
            "number": 11,
            "time": 23.214276041666626,
            "value": 0.7637795275590551
          },
          {
            "number": 11,
            "time": 23.228561749999958,
            "value": 0.7874015748031497
          },
          {
            "number": 11,
            "time": 23.24284745833329,
            "value": 0.8031496062992126
          },
          {
            "number": 11,
            "time": 23.257133166666623,
            "value": 0.8188976377952756
          },
          {
            "number": 11,
            "time": 23.271418874999956,
            "value": 0.8346456692913385
          },
          {
            "number": 11,
            "time": 23.28570458333329,
            "value": 0.84251968503937
          },
          {
            "number": 11,
            "time": 23.29999029166662,
            "value": 0.8582677165354331
          },
          {
            "number": 11,
            "time": 23.314275999999953,
            "value": 0.8661417322834646
          },
          {
            "number": 11,
            "time": 23.328561708333286,
            "value": 0.8818897637795275
          },
          {
            "number": 11,
            "time": 23.34284741666662,
            "value": 0.889763779527559
          },
          {
            "number": 11,
            "time": 23.35713312499995,
            "value": 0.905511811023622
          },
          {
            "number": 11,
            "time": 23.371418833333284,
            "value": 0.9133858267716536
          },
          {
            "number": 11,
            "time": 23.385704541666616,
            "value": 0.9212598425196851
          },
          {
            "number": 11,
            "time": 23.39999024999995,
            "value": 0.9291338582677166
          },
          {
            "number": 11,
            "time": 23.41427595833328,
            "value": 0.937007874015748
          },
          {
            "number": 11,
            "time": 23.428561666666614,
            "value": 0.9448818897637795
          },
          {
            "number": 11,
            "time": 23.442847374999946,
            "value": 0.952755905511811
          },
          {
            "number": 11,
            "time": 23.45713308333328,
            "value": 0.9606299212598425
          },
          {
            "number": 11,
            "time": 23.47141879166661,
            "value": 0.968503937007874
          },
          {
            "number": 11,
            "time": 23.499990208333276,
            "value": 0.9763779527559056
          },
          {
            "number": 11,
            "time": 23.51427591666661,
            "value": 0.984251968503937
          },
          {
            "number": 11,
            "time": 23.542847333333274,
            "value": 0.9921259842519685
          },
          {
            "number": 11,
            "time": 23.57141874999994,
            "value": 1
          },
          {
            "number": 11,
            "time": 23.657132999999938,
            "value": 1
          },
          {
            "number": 11,
            "time": 23.92856145833327,
            "value": 0.9921259842519685
          },
          {
            "number": 11,
            "time": 24.028561416666605,
            "value": 0.984251968503937
          },
          {
            "number": 11,
            "time": 24.114275666666604,
            "value": 0.9763779527559056
          },
          {
            "number": 11,
            "time": 24.171418499999938,
            "value": 0.968503937007874
          },
          {
            "number": 11,
            "time": 24.242847041666604,
            "value": 0.9606299212598425
          },
          {
            "number": 11,
            "time": 24.285704166666605,
            "value": 0.952755905511811
          },
          {
            "number": 11,
            "time": 24.34284699999994,
            "value": 0.9448818897637795
          },
          {
            "number": 11,
            "time": 24.38570412499994,
            "value": 0.937007874015748
          },
          {
            "number": 11,
            "time": 24.42856124999994,
            "value": 0.9291338582677166
          },
          {
            "number": 11,
            "time": 24.471418374999942,
            "value": 0.9212598425196851
          },
          {
            "number": 11,
            "time": 24.499989791666607,
            "value": 0.9133858267716536
          },
          {
            "number": 11,
            "time": 24.54284691666661,
            "value": 0.905511811023622
          },
          {
            "number": 11,
            "time": 24.571418333333273,
            "value": 0.8976377952755905
          },
          {
            "number": 11,
            "time": 24.59998974999994,
            "value": 0.889763779527559
          },
          {
            "number": 11,
            "time": 24.628561166666604,
            "value": 0.8818897637795275
          },
          {
            "number": 11,
            "time": 24.65713258333327,
            "value": 0.8740157480314961
          },
          {
            "number": 11,
            "time": 24.685703999999934,
            "value": 0.8661417322834646
          },
          {
            "number": 11,
            "time": 24.7142754166666,
            "value": 0.8582677165354331
          },
          {
            "number": 11,
            "time": 24.742846833333264,
            "value": 0.8503937007874016
          },
          {
            "number": 11,
            "time": 24.77141824999993,
            "value": 0.84251968503937
          },
          {
            "number": 11,
            "time": 24.799989666666594,
            "value": 0.8346456692913385
          },
          {
            "number": 11,
            "time": 24.82856108333326,
            "value": 0.8267716535433071
          },
          {
            "number": 11,
            "time": 24.84284679166659,
            "value": 0.8188976377952756
          },
          {
            "number": 11,
            "time": 24.871418208333257,
            "value": 0.8110236220472441
          },
          {
            "number": 11,
            "time": 24.88570391666659,
            "value": 0.8031496062992126
          },
          {
            "number": 11,
            "time": 24.914275333333254,
            "value": 0.7952755905511811
          },
          {
            "number": 11,
            "time": 24.928561041666587,
            "value": 0.7874015748031497
          },
          {
            "number": 11,
            "time": 24.957132458333252,
            "value": 0.7795275590551181
          },
          {
            "number": 11,
            "time": 24.971418166666584,
            "value": 0.7716535433070866
          },
          {
            "number": 11,
            "time": 24.985703874999917,
            "value": 0.7637795275590551
          },
          {
            "number": 11,
            "time": 25.014275291666582,
            "value": 0.7559055118110236
          },
          {
            "number": 11,
            "time": 25.028560999999915,
            "value": 0.7480314960629921
          },
          {
            "number": 11,
            "time": 25.042846708333247,
            "value": 0.7401574803149606
          },
          {
            "number": 11,
            "time": 25.071418124999912,
            "value": 0.7322834645669292
          },
          {
            "number": 11,
            "time": 25.085703833333245,
            "value": 0.7244094488188977
          },
          {
            "number": 11,
            "time": 25.099989541666577,
            "value": 0.7165354330708661
          },
          {
            "number": 11,
            "time": 25.11427524999991,
            "value": 0.7086614173228346
          },
          {
            "number": 11,
            "time": 25.128560958333242,
            "value": 0.7007874015748031
          },
          {
            "number": 11,
            "time": 25.142846666666575,
            "value": 0.6929133858267716
          },
          {
            "number": 11,
            "time": 25.157132374999907,
            "value": 0.6850393700787402
          },
          {
            "number": 11,
            "time": 25.17141808333324,
            "value": 0.6771653543307087
          },
          {
            "number": 11,
            "time": 25.185703791666572,
            "value": 0.6692913385826772
          },
          {
            "number": 11,
            "time": 25.214275208333238,
            "value": 0.6535433070866141
          },
          {
            "number": 11,
            "time": 25.22856091666657,
            "value": 0.6456692913385826
          },
          {
            "number": 11,
            "time": 25.242846624999903,
            "value": 0.6377952755905512
          },
          {
            "number": 11,
            "time": 25.257132333333235,
            "value": 0.6299212598425197
          },
          {
            "number": 11,
            "time": 25.271418041666568,
            "value": 0.6220472440944882
          },
          {
            "number": 11,
            "time": 25.2857037499999,
            "value": 0.6141732283464567
          },
          {
            "number": 11,
            "time": 25.299989458333233,
            "value": 0.6062992125984252
          },
          {
            "number": 11,
            "time": 25.314275166666565,
            "value": 0.5984251968503937
          },
          {
            "number": 11,
            "time": 25.328560874999898,
            "value": 0.5905511811023622
          },
          {
            "number": 11,
            "time": 25.34284658333323,
            "value": 0.5748031496062992
          },
          {
            "number": 11,
            "time": 25.357132291666563,
            "value": 0.5669291338582677
          },
          {
            "number": 11,
            "time": 25.371417999999895,
            "value": 0.5590551181102362
          },
          {
            "number": 11,
            "time": 25.385703708333228,
            "value": 0.5433070866141733
          },
          {
            "number": 11,
            "time": 25.39998941666656,
            "value": 0.5354330708661418
          },
          {
            "number": 11,
            "time": 25.414275124999893,
            "value": 0.5275590551181102
          },
          {
            "number": 11,
            "time": 25.428560833333226,
            "value": 0.5118110236220472
          },
          {
            "number": 11,
            "time": 25.442846541666558,
            "value": 0.5039370078740157
          },
          {
            "number": 11,
            "time": 25.45713224999989,
            "value": 0.4881889763779528
          },
          {
            "number": 11,
            "time": 25.471417958333223,
            "value": 0.47244094488188976
          },
          {
            "number": 11,
            "time": 25.485703666666556,
            "value": 0.4645669291338583
          },
          {
            "number": 11,
            "time": 25.49998937499989,
            "value": 0.44881889763779526
          },
          {
            "number": 11,
            "time": 25.51427508333322,
            "value": 0.4330708661417323
          },
          {
            "number": 11,
            "time": 25.528560791666553,
            "value": 0.41732283464566927
          },
          {
            "number": 11,
            "time": 25.542846499999886,
            "value": 0.4015748031496063
          },
          {
            "number": 11,
            "time": 25.55713220833322,
            "value": 0.3858267716535433
          },
          {
            "number": 11,
            "time": 25.57141791666655,
            "value": 0.3700787401574803
          },
          {
            "number": 11,
            "time": 25.585703624999883,
            "value": 0.3543307086614173
          },
          {
            "number": 11,
            "time": 25.599989333333216,
            "value": 0.33070866141732286
          },
          {
            "number": 11,
            "time": 25.61427504166655,
            "value": 0.31496062992125984
          },
          {
            "number": 11,
            "time": 25.62856074999988,
            "value": 0.29133858267716534
          },
          {
            "number": 11,
            "time": 25.642846458333214,
            "value": 0.2677165354330709
          },
          {
            "number": 11,
            "time": 25.657132166666546,
            "value": 0.23622047244094488
          },
          {
            "number": 11,
            "time": 25.67141787499988,
            "value": 0.2047244094488189
          },
          {
            "number": 11,
            "time": 25.68570358333321,
            "value": 0.1732283464566929
          },
          {
            "number": 11,
            "time": 25.699989291666544,
            "value": 0.11811023622047244
          },
          {
            "number": 11,
            "time": 25.714274999999876,
            "value": 0
          },
          {
            "number": 11,
            "time": 25.83570352083321,
            "value": 1
          },
          {
            "number": 11,
            "time": 44.991409824999884,
            "value": 0.6062992125984252
          },
          {
            "number": 11,
            "time": 45.009266960416554,
            "value": 0.6141732283464567
          },
          {
            "number": 11,
            "time": 45.02712409583322,
            "value": 0.6220472440944882
          },
          {
            "number": 11,
            "time": 45.045695516666555,
            "value": 0.6299212598425197
          },
          {
            "number": 11,
            "time": 45.117124058333225,
            "value": 0.6377952755905512
          },
          {
            "number": 11,
            "time": 45.188552599999895,
            "value": 0.6456692913385826
          },
          {
            "number": 11,
            "time": 45.206409735416564,
            "value": 0.6535433070866141
          },
          {
            "number": 11,
            "time": 45.242124006249895,
            "value": 0.6614173228346457
          },
          {
            "number": 11,
            "time": 45.259981141666564,
            "value": 0.6692913385826772
          },
          {
            "number": 11,
            "time": 45.296409697916566,
            "value": 0.6771653543307087
          },
          {
            "number": 11,
            "time": 45.314266833333235,
            "value": 0.6850393700787402
          },
          {
            "number": 11,
            "time": 45.367838239583236,
            "value": 0.6929133858267716
          },
          {
            "number": 11,
            "time": 45.40355251041657,
            "value": 0.7007874015748031
          },
          {
            "number": 11,
            "time": 45.4928381874999,
            "value": 0.7086614173228346
          },
          {
            "number": 11,
            "time": 45.51069532291657,
            "value": 0.7165354330708661
          },
          {
            "number": 11,
            "time": 45.5828381499999,
            "value": 0.7244094488188977
          },
          {
            "number": 11,
            "time": 45.6364095562499,
            "value": 0.7322834645669292
          },
          {
            "number": 11,
            "time": 45.7285523749999,
            "value": 0.7401574803149606
          },
          {
            "number": 11,
            "time": 45.782838066666564,
            "value": 0.7480314960629921
          },
          {
            "number": 11,
            "time": 45.80069520208323,
            "value": 0.7559055118110236
          },
          {
            "number": 11,
            "time": 45.8721237437499,
            "value": 0.7637795275590551
          },
          {
            "number": 11,
            "time": 45.907838014583234,
            "value": 0.7716535433070866
          },
          {
            "number": 11,
            "time": 46.03355224791657,
            "value": 0.7795275590551181
          },
          {
            "number": 11,
            "time": 46.05140938333324,
            "value": 0.7874015748031497
          },
          {
            "number": 11,
            "time": 46.08712365416657,
            "value": 0.7952755905511811
          },
          {
            "number": 11,
            "time": 46.10498078958324,
            "value": 0.8031496062992126
          },
          {
            "number": 11,
            "time": 46.15855219583324,
            "value": 0.8110236220472441
          },
          {
            "number": 11,
            "time": 46.19426646666657,
            "value": 0.8188976377952756
          },
          {
            "number": 11,
            "time": 46.33783783541657,
            "value": 0.8267716535433071
          },
          {
            "number": 11,
            "time": 46.3735521062499,
            "value": 0.8346456692913385
          },
          {
            "number": 11,
            "time": 46.44498064791657,
            "value": 0.84251968503937
          },
          {
            "number": 11,
            "time": 47.235694604166575,
            "value": 0.8346456692913385
          },
          {
            "number": 11,
            "time": 47.253551739583244,
            "value": 0.8267716535433071
          },
          {
            "number": 11,
            "time": 47.27212316041658,
            "value": 0.8188976377952756
          },
          {
            "number": 11,
            "time": 47.289980295833246,
            "value": 0.8110236220472441
          },
          {
            "number": 11,
            "time": 47.307837431249915,
            "value": 0.8031496062992126
          },
          {
            "number": 11,
            "time": 47.325694566666584,
            "value": 0.7952755905511811
          },
          {
            "number": 11,
            "time": 47.34355170208325,
            "value": 0.7795275590551181
          },
          {
            "number": 11,
            "time": 47.36140883749992,
            "value": 0.7637795275590551
          },
          {
            "number": 11,
            "time": 47.37926597291659,
            "value": 0.7401574803149606
          },
          {
            "number": 11,
            "time": 47.39712310833326,
            "value": 0.7322834645669292
          },
          {
            "number": 11,
            "time": 47.41498024374993,
            "value": 0.7244094488188977
          },
          {
            "number": 11,
            "time": 47.4328373791666,
            "value": 0.7165354330708661
          },
          {
            "number": 11,
            "time": 47.45069451458327,
            "value": 0.7086614173228346
          },
          {
            "number": 11,
            "time": 47.46855164999994,
            "value": 0.7007874015748031
          },
          {
            "number": 11,
            "time": 47.48640878541661,
            "value": 0.6929133858267716
          },
          {
            "number": 11,
            "time": 47.50426592083328,
            "value": 0.6771653543307087
          },
          {
            "number": 11,
            "time": 47.52283734166661,
            "value": 0.6692913385826772
          },
          {
            "number": 11,
            "time": 47.54069447708328,
            "value": 0.6614173228346457
          },
          {
            "number": 11,
            "time": 47.66569442499994,
            "value": 0.6692913385826772
          },
          {
            "number": 11,
            "time": 47.68355156041661,
            "value": 0.6771653543307087
          },
          {
            "number": 11,
            "time": 47.70140869583328,
            "value": 0.6850393700787402
          },
          {
            "number": 11,
            "time": 47.71926583124995,
            "value": 0.6929133858267716
          },
          {
            "number": 11,
            "time": 47.73712296666662,
            "value": 0.7007874015748031
          },
          {
            "number": 11,
            "time": 47.75498010208329,
            "value": 0.7086614173228346
          },
          {
            "number": 11,
            "time": 47.77355152291662,
            "value": 0.7165354330708661
          },
          {
            "number": 11,
            "time": 47.82712292916662,
            "value": 0.7244094488188977
          },
          {
            "number": 11,
            "time": 47.84498006458329,
            "value": 0.7322834645669292
          },
          {
            "number": 11,
            "time": 47.88069433541662,
            "value": 0.7401574803149606
          },
          {
            "number": 11,
            "time": 47.89855147083329,
            "value": 0.7480314960629921
          },
          {
            "number": 11,
            "time": 47.91640860624996,
            "value": 0.7559055118110236
          },
          {
            "number": 11,
            "time": 47.95212287708329,
            "value": 0.7637795275590551
          },
          {
            "number": 11,
            "time": 48.00926571041662,
            "value": 0.7716535433070866
          },
          {
            "number": 11,
            "time": 48.02712284583329,
            "value": 0.7795275590551181
          },
          {
            "number": 11,
            "time": 48.08069425208329,
            "value": 0.7874015748031497
          },
          {
            "number": 11,
            "time": 48.11640852291662,
            "value": 0.7952755905511811
          },
          {
            "number": 11,
            "time": 48.18783706458329,
            "value": 0.8031496062992126
          },
          {
            "number": 11,
            "time": 48.22355133541662,
            "value": 0.8110236220472441
          },
          {
            "number": 11,
            "time": 48.295694162499956,
            "value": 0.8188976377952756
          },
          {
            "number": 11,
            "time": 48.43855124583329,
            "value": 0.8267716535433071
          },
          {
            "number": 11,
            "time": 48.47426551666662,
            "value": 0.8346456692913385
          },
          {
            "number": 11,
            "time": 48.49212265208329,
            "value": 0.84251968503937
          },
          {
            "number": 11,
            "time": 48.54640834374995,
            "value": 0.8503937007874016
          },
          {
            "number": 11,
            "time": 48.56426547916662,
            "value": 0.8582677165354331
          },
          {
            "number": 11,
            "time": 48.797122524999956,
            "value": 0.8661417322834646
          },
          {
            "number": 11,
            "time": 48.868551066666626,
            "value": 0.8740157480314961
          },
          {
            "number": 11,
            "time": 50.23569335416663,
            "value": 0.8661417322834646
          },
          {
            "number": 11,
            "time": 50.24997906249996,
            "value": 0.8582677165354331
          },
          {
            "number": 11,
            "time": 50.26855048333329,
            "value": 0.8346456692913385
          },
          {
            "number": 11,
            "time": 50.28640761874996,
            "value": 0.8031496062992126
          },
          {
            "number": 11,
            "time": 50.3071218958333,
            "value": 0.7716535433070866
          },
          {
            "number": 11,
            "time": 50.32497903124997,
            "value": 0.7322834645669292
          },
          {
            "number": 11,
            "time": 50.342836166666636,
            "value": 0.6929133858267716
          },
          {
            "number": 11,
            "time": 50.360693302083305,
            "value": 0.6535433070866141
          },
          {
            "number": 11,
            "time": 50.378550437499975,
            "value": 0.6141732283464567
          },
          {
            "number": 11,
            "time": 50.396407572916644,
            "value": 0.5984251968503937
          },
          {
            "number": 11,
            "time": 50.43212184374998,
            "value": 0.6141732283464567
          },
          {
            "number": 11,
            "time": 50.44997897916665,
            "value": 0.6299212598425197
          },
          {
            "number": 11,
            "time": 50.46783611458332,
            "value": 0.6456692913385826
          },
          {
            "number": 11,
            "time": 50.48640753541665,
            "value": 0.6535433070866141
          },
          {
            "number": 11,
            "time": 50.50426467083332,
            "value": 0.6614173228346457
          },
          {
            "number": 11,
            "time": 50.52212180624999,
            "value": 0.6692913385826772
          },
          {
            "number": 11,
            "time": 50.53997894166666,
            "value": 0.6850393700787402
          },
          {
            "number": 11,
            "time": 50.55783607708333,
            "value": 0.6929133858267716
          },
          {
            "number": 11,
            "time": 50.5756932125,
            "value": 0.7086614173228346
          },
          {
            "number": 11,
            "time": 50.59355034791667,
            "value": 0.7165354330708661
          },
          {
            "number": 11,
            "time": 50.61140748333334,
            "value": 0.7244094488188977
          },
          {
            "number": 11,
            "time": 50.62926461875001,
            "value": 0.7401574803149606
          },
          {
            "number": 11,
            "time": 50.647121754166676,
            "value": 0.7637795275590551
          },
          {
            "number": 11,
            "time": 50.664978889583345,
            "value": 0.7716535433070866
          },
          {
            "number": 11,
            "time": 50.682836025000015,
            "value": 0.7874015748031497
          },
          {
            "number": 11,
            "time": 50.700693160416684,
            "value": 0.7952755905511811
          },
          {
            "number": 11,
            "time": 50.71855029583335,
            "value": 0.8110236220472441
          },
          {
            "number": 11,
            "time": 50.737121716666685,
            "value": 0.8188976377952756
          },
          {
            "number": 11,
            "time": 50.754978852083354,
            "value": 0.8267716535433071
          },
          {
            "number": 11,
            "time": 50.790693122916686,
            "value": 0.8346456692913385
          },
          {
            "number": 11,
            "time": 50.808550258333355,
            "value": 0.84251968503937
          },
          {
            "number": 11,
            "time": 50.879978800000025,
            "value": 0.8503937007874016
          },
          {
            "number": 11,
            "time": 50.91569307083336,
            "value": 0.8582677165354331
          },
          {
            "number": 11,
            "time": 50.9514073416667,
            "value": 0.8661417322834646
          },
          {
            "number": 11,
            "time": 50.96926447708337,
            "value": 0.8740157480314961
          },
          {
            "number": 11,
            "time": 50.98783589791671,
            "value": 0.8818897637795275
          },
          {
            "number": 11,
            "time": 51.00569303333338,
            "value": 0.889763779527559
          },
          {
            "number": 11,
            "time": 51.02355016875005,
            "value": 0.8976377952755905
          },
          {
            "number": 11,
            "time": 51.05926443958339,
            "value": 0.905511811023622
          },
          {
            "number": 11,
            "time": 51.20212152291673,
            "value": 0.9133858267716536
          },
          {
            "number": 11,
            "time": 51.2564072145834,
            "value": 0.9212598425196851
          },
          {
            "number": 11,
            "time": 51.27426435000007,
            "value": 0.9291338582677166
          },
          {
            "number": 11,
            "time": 51.32783575625007,
            "value": 0.937007874015748
          },
          {
            "number": 11,
            "time": 51.34569289166674,
            "value": 0.9448818897637795
          },
          {
            "number": 11,
            "time": 51.5456928083334,
            "value": 0.952755905511811
          },
          {
            "number": 11,
            "time": 51.56354994375007,
            "value": 0.9606299212598425
          },
          {
            "number": 11,
            "time": 51.61712135000007,
            "value": 0.968503937007874
          },
          {
            "number": 11,
            "time": 51.67069275625007,
            "value": 0.9763779527559056
          },
          {
            "number": 11,
            "time": 51.74283558333341,
            "value": 0.984251968503937
          },
          {
            "number": 11,
            "time": 51.79640698958341,
            "value": 0.9921259842519685
          },
          {
            "number": 11,
            "time": 52.27997821666675,
            "value": 0.984251968503937
          },
          {
            "number": 11,
            "time": 52.33354962291675,
            "value": 0.9763779527559056
          },
          {
            "number": 11,
            "time": 52.38712102916675,
            "value": 0.968503937007874
          },
          {
            "number": 11,
            "time": 52.44069243541675,
            "value": 0.9606299212598425
          },
          {
            "number": 11,
            "time": 52.47640670625009,
            "value": 0.952755905511811
          },
          {
            "number": 11,
            "time": 52.51283526250009,
            "value": 0.9448818897637795
          },
          {
            "number": 11,
            "time": 52.53069239791676,
            "value": 0.937007874015748
          },
          {
            "number": 11,
            "time": 52.58426380416676,
            "value": 0.9291338582677166
          },
          {
            "number": 11,
            "time": 52.62283521666676,
            "value": 0.9212598425196851
          },
          {
            "number": 11,
            "time": 52.65854948750009,
            "value": 0.9133858267716536
          },
          {
            "number": 11,
            "time": 52.67640662291676,
            "value": 0.905511811023622
          },
          {
            "number": 11,
            "time": 52.71283517916676,
            "value": 0.8976377952755905
          },
          {
            "number": 11,
            "time": 52.73069231458343,
            "value": 0.889763779527559
          },
          {
            "number": 11,
            "time": 52.76640658541676,
            "value": 0.8818897637795275
          },
          {
            "number": 11,
            "time": 52.78426372083343,
            "value": 0.8661417322834646
          },
          {
            "number": 11,
            "time": 52.8021208562501,
            "value": 0.8582677165354331
          },
          {
            "number": 11,
            "time": 52.83783512708343,
            "value": 0.8503937007874016
          },
          {
            "number": 11,
            "time": 52.8556922625001,
            "value": 0.84251968503937
          },
          {
            "number": 11,
            "time": 52.87354939791677,
            "value": 0.8346456692913385
          },
          {
            "number": 11,
            "time": 52.89140653333344,
            "value": 0.8267716535433071
          },
          {
            "number": 11,
            "time": 53.142120714583434,
            "value": 0.8346456692913385
          },
          {
            "number": 11,
            "time": 53.159977850000104,
            "value": 0.84251968503937
          },
          {
            "number": 11,
            "time": 53.17783498541677,
            "value": 0.8503937007874016
          },
          {
            "number": 11,
            "time": 53.19569212083344,
            "value": 0.8582677165354331
          },
          {
            "number": 11,
            "time": 53.21354925625011,
            "value": 0.8661417322834646
          },
          {
            "number": 11,
            "time": 53.232120677083444,
            "value": 0.8740157480314961
          },
          {
            "number": 11,
            "time": 53.285692083333444,
            "value": 0.8818897637795275
          },
          {
            "number": 11,
            "time": 53.321406354166776,
            "value": 0.889763779527559
          },
          {
            "number": 11,
            "time": 53.35712062500011,
            "value": 0.8976377952755905
          },
          {
            "number": 11,
            "time": 53.39283489583344,
            "value": 0.905511811023622
          },
          {
            "number": 11,
            "time": 53.42854916666677,
            "value": 0.9133858267716536
          },
          {
            "number": 11,
            "time": 53.4642634375001,
            "value": 0.9212598425196851
          },
          {
            "number": 11,
            "time": 53.536406264583434,
            "value": 0.9291338582677166
          },
          {
            "number": 11,
            "time": 53.5542634000001,
            "value": 0.937007874015748
          },
          {
            "number": 11,
            "time": 53.57212053541677,
            "value": 0.9448818897637795
          },
          {
            "number": 11,
            "time": 53.607834806250104,
            "value": 0.952755905511811
          },
          {
            "number": 11,
            "time": 53.62569194166677,
            "value": 0.9606299212598425
          },
          {
            "number": 11,
            "time": 53.64354907708344,
            "value": 0.968503937007874
          },
          {
            "number": 11,
            "time": 53.77212045208344,
            "value": 0.9763779527559056
          },
          {
            "number": 11,
            "time": 53.78997758750011,
            "value": 0.984251968503937
          },
          {
            "number": 11,
            "time": 53.82569185833344,
            "value": 0.9921259842519685
          },
          {
            "number": 11,
            "time": 54.14783458125011,
            "value": 0.984251968503937
          },
          {
            "number": 11,
            "time": 54.16569171666678,
            "value": 0.9763779527559056
          },
          {
            "number": 11,
            "time": 54.18354885208345,
            "value": 0.968503937007874
          },
          {
            "number": 11,
            "time": 54.20212027291678,
            "value": 0.9606299212598425
          },
          {
            "number": 11,
            "time": 54.21997740833345,
            "value": 0.952755905511811
          },
          {
            "number": 11,
            "time": 54.23783454375012,
            "value": 0.9448818897637795
          },
          {
            "number": 11,
            "time": 54.25569167916679,
            "value": 0.937007874015748
          },
          {
            "number": 11,
            "time": 54.27354881458346,
            "value": 0.9291338582677166
          },
          {
            "number": 11,
            "time": 54.291405950000126,
            "value": 0.9212598425196851
          },
          {
            "number": 11,
            "time": 54.309263085416795,
            "value": 0.9133858267716536
          },
          {
            "number": 11,
            "time": 54.327120220833464,
            "value": 0.905511811023622
          },
          {
            "number": 11,
            "time": 54.34497735625013,
            "value": 0.8976377952755905
          },
          {
            "number": 11,
            "time": 54.3628344916668,
            "value": 0.889763779527559
          },
          {
            "number": 11,
            "time": 54.38069162708347,
            "value": 0.8818897637795275
          },
          {
            "number": 11,
            "time": 54.542120131250144,
            "value": 0.889763779527559
          },
          {
            "number": 11,
            "time": 54.577834402083475,
            "value": 0.8976377952755905
          },
          {
            "number": 11,
            "time": 54.595691537500144,
            "value": 0.905511811023622
          },
          {
            "number": 11,
            "time": 54.631405808333476,
            "value": 0.9133858267716536
          },
          {
            "number": 11,
            "time": 54.649262943750145,
            "value": 0.9212598425196851
          },
          {
            "number": 11,
            "time": 54.667120079166814,
            "value": 0.9291338582677166
          },
          {
            "number": 11,
            "time": 54.68497721458348,
            "value": 0.937007874015748
          },
          {
            "number": 11,
            "time": 54.70283435000015,
            "value": 0.952755905511811
          },
          {
            "number": 11,
            "time": 54.721405770833485,
            "value": 0.9606299212598425
          },
          {
            "number": 11,
            "time": 54.774977177083485,
            "value": 0.968503937007874
          },
          {
            "number": 11,
            "time": 54.792834312500155,
            "value": 0.9763779527559056
          },
          {
            "number": 11,
            "time": 54.828548583333486,
            "value": 0.984251968503937
          },
          {
            "number": 11,
            "time": 54.846405718750155,
            "value": 0.9921259842519685
          },
          {
            "number": 11,
            "time": 54.939262822916824,
            "value": 1
          },
          {
            "number": 11,
            "time": 55.494262591666825,
            "value": 0.9921259842519685
          },
          {
            "number": 11,
            "time": 55.512119727083494,
            "value": 0.984251968503937
          },
          {
            "number": 11,
            "time": 55.52997686250016,
            "value": 0.9763779527559056
          },
          {
            "number": 11,
            "time": 55.54783399791683,
            "value": 0.968503937007874
          },
          {
            "number": 11,
            "time": 55.5656911333335,
            "value": 0.9448818897637795
          },
          {
            "number": 11,
            "time": 55.58354826875017,
            "value": 0.937007874015748
          },
          {
            "number": 11,
            "time": 55.60140540416684,
            "value": 0.9291338582677166
          },
          {
            "number": 11,
            "time": 55.61926253958351,
            "value": 0.905511811023622
          },
          {
            "number": 11,
            "time": 55.63711967500018,
            "value": 0.889763779527559
          },
          {
            "number": 11,
            "time": 55.65497681041685,
            "value": 0.8661417322834646
          },
          {
            "number": 11,
            "time": 55.67283394583352,
            "value": 0.8503937007874016
          },
          {
            "number": 11,
            "time": 55.690691081250186,
            "value": 0.8346456692913385
          },
          {
            "number": 11,
            "time": 55.70926250208352,
            "value": 0.8188976377952756
          },
          {
            "number": 11,
            "time": 55.72711963750019,
            "value": 0.8110236220472441
          },
          {
            "number": 11,
            "time": 55.85211958541685,
            "value": 0.8188976377952756
          },
          {
            "number": 11,
            "time": 55.86997672083352,
            "value": 0.8267716535433071
          },
          {
            "number": 11,
            "time": 55.88783385625019,
            "value": 0.8346456692913385
          },
          {
            "number": 11,
            "time": 55.90569099166686,
            "value": 0.84251968503937
          },
          {
            "number": 11,
            "time": 55.92354812708353,
            "value": 0.8503937007874016
          },
          {
            "number": 11,
            "time": 55.9414052625002,
            "value": 0.8661417322834646
          },
          {
            "number": 11,
            "time": 55.95997668333353,
            "value": 0.8740157480314961
          },
          {
            "number": 11,
            "time": 55.9778338187502,
            "value": 0.889763779527559
          },
          {
            "number": 11,
            "time": 55.99569095416687,
            "value": 0.8976377952755905
          },
          {
            "number": 11,
            "time": 56.01354808958354,
            "value": 0.905511811023622
          },
          {
            "number": 11,
            "time": 56.031405225000206,
            "value": 0.9133858267716536
          },
          {
            "number": 11,
            "time": 56.049262360416876,
            "value": 0.9212598425196851
          },
          {
            "number": 11,
            "time": 56.067119495833545,
            "value": 0.9291338582677166
          },
          {
            "number": 11,
            "time": 56.08783377291688,
            "value": 0.937007874015748
          },
          {
            "number": 11,
            "time": 56.10569090833355,
            "value": 0.9448818897637795
          },
          {
            "number": 11,
            "time": 56.12354804375022,
            "value": 0.952755905511811
          },
          {
            "number": 11,
            "time": 56.17783373541689,
            "value": 0.9606299212598425
          },
          {
            "number": 11,
            "time": 56.21354800625023,
            "value": 0.968503937007874
          },
          {
            "number": 11,
            "time": 56.24926227708357,
            "value": 0.9763779527559056
          },
          {
            "number": 11,
            "time": 56.267119412500236,
            "value": 0.984251968503937
          },
          {
            "number": 11,
            "time": 56.284976547916905,
            "value": 0.9921259842519685
          },
          {
            "number": 11,
            "time": 56.750690639583595,
            "value": 1
          },
          {
            "number": 11,
            "time": 57.326404685416925,
            "value": 0.9921259842519685
          },
          {
            "number": 11,
            "time": 57.344261820833594,
            "value": 0.984251968503937
          },
          {
            "number": 11,
            "time": 57.362118956250264,
            "value": 0.9763779527559056
          },
          {
            "number": 11,
            "time": 57.37997609166693,
            "value": 0.968503937007874
          },
          {
            "number": 11,
            "time": 57.3978332270836,
            "value": 0.9606299212598425
          },
          {
            "number": 11,
            "time": 57.416404647916934,
            "value": 0.937007874015748
          },
          {
            "number": 11,
            "time": 57.4342617833336,
            "value": 0.9291338582677166
          },
          {
            "number": 11,
            "time": 57.45211891875027,
            "value": 0.9133858267716536
          },
          {
            "number": 11,
            "time": 57.46997605416694,
            "value": 0.8976377952755905
          },
          {
            "number": 11,
            "time": 57.48783318958361,
            "value": 0.8818897637795275
          },
          {
            "number": 11,
            "time": 57.50569032500028,
            "value": 0.8740157480314961
          },
          {
            "number": 11,
            "time": 57.52354746041695,
            "value": 0.8661417322834646
          },
          {
            "number": 11,
            "time": 57.54140459583362,
            "value": 0.8582677165354331
          },
          {
            "number": 11,
            "time": 57.55926173125029,
            "value": 0.8503937007874016
          },
          {
            "number": 11,
            "time": 57.57711886666696,
            "value": 0.84251968503937
          },
          {
            "number": 11,
            "time": 57.59497600208363,
            "value": 0.8346456692913385
          },
          {
            "number": 11,
            "time": 57.612833137500296,
            "value": 0.8267716535433071
          },
          {
            "number": 11,
            "time": 57.666404543750296,
            "value": 0.8188976377952756
          },
          {
            "number": 11,
            "time": 57.7028331000003,
            "value": 0.8110236220472441
          },
          {
            "number": 11,
            "time": 57.73854737083363,
            "value": 0.8031496062992126
          },
          {
            "number": 11,
            "time": 57.77426164166696,
            "value": 0.7952755905511811
          },
          {
            "number": 11,
            "time": 57.79211877708363,
            "value": 0.7874015748031497
          },
          {
            "number": 11,
            "time": 57.8099759125003,
            "value": 0.7795275590551181
          },
          {
            "number": 11,
            "time": 57.82783304791697,
            "value": 0.7716535433070866
          },
          {
            "number": 11,
            "time": 57.86354731875031,
            "value": 0.7637795275590551
          },
          {
            "number": 11,
            "time": 57.899261589583645,
            "value": 0.7559055118110236
          },
          {
            "number": 11,
            "time": 57.971404416666985,
            "value": 0.7480314960629921
          },
          {
            "number": 11,
            "time": 58.00711868750032,
            "value": 0.7401574803149606
          },
          {
            "number": 11,
            "time": 58.060690093750324,
            "value": 0.7322834645669292
          },
          {
            "number": 11,
            "time": 58.07854722916699,
            "value": 0.7244094488188977
          },
          {
            "number": 11,
            "time": 58.132118635416994,
            "value": 0.7165354330708661
          },
          {
            "number": 11,
            "time": 58.16783290625033,
            "value": 0.7086614173228346
          },
          {
            "number": 11,
            "time": 58.18640432708367,
            "value": 0.7007874015748031
          },
          {
            "number": 11,
            "time": 58.23997573333368,
            "value": 0.6929133858267716
          },
          {
            "number": 11,
            "time": 58.25783286875035,
            "value": 0.6850393700787402
          },
          {
            "number": 11,
            "time": 58.27569000416702,
            "value": 0.6771653543307087
          },
          {
            "number": 11,
            "time": 58.29354713958369,
            "value": 0.6692913385826772
          },
          {
            "number": 11,
            "time": 58.311404275000356,
            "value": 0.6614173228346457
          },
          {
            "number": 11,
            "time": 58.528547041667025,
            "value": 0.6692913385826772
          },
          {
            "number": 11,
            "time": 58.54711846250036,
            "value": 0.6771653543307087
          },
          {
            "number": 11,
            "time": 58.56497559791703,
            "value": 0.6850393700787402
          },
          {
            "number": 11,
            "time": 58.60068986875036,
            "value": 0.6929133858267716
          },
          {
            "number": 11,
            "time": 58.61854700416703,
            "value": 0.7007874015748031
          },
          {
            "number": 11,
            "time": 58.636404139583696,
            "value": 0.7086614173228346
          },
          {
            "number": 11,
            "time": 58.654261275000366,
            "value": 0.7165354330708661
          },
          {
            "number": 11,
            "time": 58.671404125000365,
            "value": 0.7244094488188977
          },
          {
            "number": 11,
            "time": 58.69068983125037,
            "value": 0.7322834645669292
          },
          {
            "number": 11,
            "time": 58.708546966667036,
            "value": 0.7401574803149606
          },
          {
            "number": 11,
            "time": 58.726404102083706,
            "value": 0.7480314960629921
          },
          {
            "number": 11,
            "time": 58.744261237500375,
            "value": 0.7559055118110236
          },
          {
            "number": 11,
            "time": 58.762118372917044,
            "value": 0.7637795275590551
          },
          {
            "number": 11,
            "time": 58.81568977916705,
            "value": 0.7716535433070866
          },
          {
            "number": 11,
            "time": 58.83354691458372,
            "value": 0.7795275590551181
          },
          {
            "number": 11,
            "time": 58.88711832083373,
            "value": 0.7874015748031497
          },
          {
            "number": 11,
            "time": 58.92354687708374,
            "value": 0.7952755905511811
          },
          {
            "number": 11,
            "time": 58.977118283333745,
            "value": 0.8031496062992126
          },
          {
            "number": 11,
            "time": 59.012832554167076,
            "value": 0.8110236220472441
          },
          {
            "number": 11,
            "time": 59.048546825000415,
            "value": 0.8188976377952756
          },
          {
            "number": 11,
            "time": 59.102118231250415,
            "value": 0.8267716535433071
          },
          {
            "number": 11,
            "time": 59.155689637500416,
            "value": 0.8346456692913385
          },
          {
            "number": 11,
            "time": 59.209975329167094,
            "value": 0.84251968503937
          },
          {
            "number": 11,
            "time": 59.22783246458376,
            "value": 0.8503937007874016
          },
          {
            "number": 11,
            "time": 59.28140387083377,
            "value": 0.8582677165354331
          },
          {
            "number": 11,
            "time": 59.29926100625044,
            "value": 0.8661417322834646
          },
          {
            "number": 11,
            "time": 59.33497527708377,
            "value": 0.8740157480314961
          },
          {
            "number": 11,
            "time": 59.35283241250044,
            "value": 0.8818897637795275
          },
          {
            "number": 11,
            "time": 59.46068951041712,
            "value": 0.889763779527559
          },
          {
            "number": 11,
            "time": 59.73068939791712,
            "value": 0.8818897637795275
          },
          {
            "number": 11,
            "time": 59.74997510416712,
            "value": 0.8661417322834646
          },
          {
            "number": 11,
            "time": 59.76783223958379,
            "value": 0.8503937007874016
          },
          {
            "number": 11,
            "time": 59.78568937500046,
            "value": 0.8346456692913385
          },
          {
            "number": 11,
            "time": 59.80354651041713,
            "value": 0.8267716535433071
          },
          {
            "number": 11,
            "time": 59.8214036458338,
            "value": 0.8031496062992126
          },
          {
            "number": 11,
            "time": 59.839260781250466,
            "value": 0.7874015748031497
          },
          {
            "number": 11,
            "time": 59.857117916667136,
            "value": 0.7716535433070866
          },
          {
            "number": 11,
            "time": 59.874975052083805,
            "value": 0.7480314960629921
          },
          {
            "number": 11,
            "time": 59.892832187500474,
            "value": 0.7165354330708661
          },
          {
            "number": 11,
            "time": 59.911403608333806,
            "value": 0.6850393700787402
          },
          {
            "number": 11,
            "time": 59.92783217291714,
            "value": 0.6614173228346457
          },
          {
            "number": 11,
            "time": 59.947117879167145,
            "value": 0.6456692913385826
          },
          {
            "number": 11,
            "time": 59.982832150000476,
            "value": 0.6377952755905512
          },
          {
            "number": 11,
            "time": 60.08997496250048,
            "value": 0.6456692913385826
          },
          {
            "number": 11,
            "time": 60.10783209791715,
            "value": 0.6535433070866141
          },
          {
            "number": 11,
            "time": 60.125689233333816,
            "value": 0.6692913385826772
          },
          {
            "number": 11,
            "time": 60.143546368750485,
            "value": 0.6850393700787402
          },
          {
            "number": 11,
            "time": 60.16211778958382,
            "value": 0.7007874015748031
          },
          {
            "number": 11,
            "time": 60.17997492500049,
            "value": 0.7086614173228346
          },
          {
            "number": 11,
            "time": 60.197832060417156,
            "value": 0.7165354330708661
          },
          {
            "number": 11,
            "time": 60.23354633125049,
            "value": 0.7244094488188977
          },
          {
            "number": 11,
            "time": 60.26926060208382,
            "value": 0.7322834645669292
          },
          {
            "number": 11,
            "time": 60.28711773750049,
            "value": 0.7401574803149606
          },
          {
            "number": 11,
            "time": 60.32283200833382,
            "value": 0.7480314960629921
          },
          {
            "number": 11,
            "time": 60.34068914375049,
            "value": 0.7559055118110236
          },
          {
            "number": 11,
            "time": 60.35854627916716,
            "value": 0.7637795275590551
          },
          {
            "number": 11,
            "time": 60.37640341458383,
            "value": 0.7716535433070866
          },
          {
            "number": 11,
            "time": 60.41211768541716,
            "value": 0.7795275590551181
          },
          {
            "number": 11,
            "time": 60.43068910625049,
            "value": 0.7874015748031497
          },
          {
            "number": 11,
            "time": 60.44854624166716,
            "value": 0.7952755905511811
          },
          {
            "number": 11,
            "time": 60.48426051250049,
            "value": 0.8031496062992126
          },
          {
            "number": 11,
            "time": 60.50211764791716,
            "value": 0.8110236220472441
          },
          {
            "number": 11,
            "time": 60.51997478333383,
            "value": 0.8188976377952756
          },
          {
            "number": 11,
            "time": 60.55568905416716,
            "value": 0.8267716535433071
          },
          {
            "number": 11,
            "time": 60.57354618958383,
            "value": 0.8346456692913385
          },
          {
            "number": 11,
            "time": 60.5914033250005,
            "value": 0.84251968503937
          },
          {
            "number": 11,
            "time": 60.60926046041717,
            "value": 0.8503937007874016
          },
          {
            "number": 11,
            "time": 60.6449747312505,
            "value": 0.8582677165354331
          },
          {
            "number": 11,
            "time": 60.66283186666717,
            "value": 0.8661417322834646
          },
          {
            "number": 11,
            "time": 60.7178318437505,
            "value": 0.8740157480314961
          },
          {
            "number": 11,
            "time": 60.75568897083384,
            "value": 0.8818897637795275
          },
          {
            "number": 11,
            "time": 60.82711751250051,
            "value": 0.889763779527559
          },
          {
            "number": 11,
            "time": 60.89568891250051,
            "value": 0.8976377952755905
          },
          {
            "number": 11,
            "time": 60.96926031041718,
            "value": 0.889763779527559
          },
          {
            "number": 11,
            "time": 60.98783173125051,
            "value": 0.8661417322834646
          },
          {
            "number": 11,
            "time": 61.00568886666718,
            "value": 0.8503937007874016
          },
          {
            "number": 11,
            "time": 61.02354600208385,
            "value": 0.8188976377952756
          },
          {
            "number": 11,
            "time": 61.04140313750052,
            "value": 0.7952755905511811
          },
          {
            "number": 11,
            "time": 61.059260272917186,
            "value": 0.7637795275590551
          },
          {
            "number": 11,
            "time": 61.077117408333855,
            "value": 0.7322834645669292
          },
          {
            "number": 11,
            "time": 61.094974543750524,
            "value": 0.7007874015748031
          },
          {
            "number": 11,
            "time": 61.11283167916719,
            "value": 0.6692913385826772
          },
          {
            "number": 11,
            "time": 61.13068881458386,
            "value": 0.6535433070866141
          },
          {
            "number": 11,
            "time": 61.14854595000053,
            "value": 0.6456692913385826
          },
          {
            "number": 11,
            "time": 61.1664030854172,
            "value": 0.6377952755905512
          },
          {
            "number": 11,
            "time": 61.18426022083387,
            "value": 0.6299212598425197
          },
          {
            "number": 11,
            "time": 61.20211735625054,
            "value": 0.6220472440944882
          },
          {
            "number": 11,
            "time": 61.21997449166721,
            "value": 0.6141732283464567
          },
          {
            "number": 11,
            "time": 61.23783162708388,
            "value": 0.6062992125984252
          },
          {
            "number": 11,
            "time": 61.27426018333388,
            "value": 0.5984251968503937
          },
          {
            "number": 11,
            "time": 61.36354586041721,
            "value": 0.6062992125984252
          },
          {
            "number": 11,
            "time": 61.39926013125055,
            "value": 0.6141732283464567
          },
          {
            "number": 11,
            "time": 61.41711726666722,
            "value": 0.6220472440944882
          },
          {
            "number": 11,
            "time": 61.45283153750055,
            "value": 0.6299212598425197
          },
          {
            "number": 11,
            "time": 61.47068867291722,
            "value": 0.6377952755905512
          },
          {
            "number": 11,
            "time": 61.54497435625056,
            "value": 0.6456692913385826
          },
          {
            "number": 11,
            "time": 61.56283149166723,
            "value": 0.6535433070866141
          },
          {
            "number": 11,
            "time": 61.57926005625057,
            "value": 0.6614173228346457
          },
          {
            "number": 11,
            "time": 61.59711719166724,
            "value": 0.6692913385826772
          },
          {
            "number": 11,
            "time": 61.632831462500576,
            "value": 0.6771653543307087
          },
          {
            "number": 11,
            "time": 61.650688597917245,
            "value": 0.6850393700787402
          },
          {
            "number": 11,
            "time": 61.66997430416725,
            "value": 0.6929133858267716
          },
          {
            "number": 11,
            "time": 61.68711715416725,
            "value": 0.7007874015748031
          },
          {
            "number": 11,
            "time": 61.72283142500058,
            "value": 0.7086614173228346
          },
          {
            "number": 11,
            "time": 61.74068856041725,
            "value": 0.7165354330708661
          },
          {
            "number": 11,
            "time": 61.79425996666725,
            "value": 0.7244094488188977
          },
          {
            "number": 11,
            "time": 61.81211710208392,
            "value": 0.7322834645669292
          },
          {
            "number": 11,
            "time": 61.84783137291725,
            "value": 0.7401574803149606
          },
          {
            "number": 11,
            "time": 61.86568850833392,
            "value": 0.7480314960629921
          },
          {
            "number": 11,
            "time": 61.887117070833916,
            "value": 0.7559055118110236
          },
          {
            "number": 11,
            "time": 61.904974206250586,
            "value": 0.7637795275590551
          },
          {
            "number": 11,
            "time": 61.922831341667255,
            "value": 0.7716535433070866
          },
          {
            "number": 11,
            "time": 61.940688477083924,
            "value": 0.7795275590551181
          },
          {
            "number": 11,
            "time": 61.95854561250059,
            "value": 0.7874015748031497
          },
          {
            "number": 11,
            "time": 61.97640274791726,
            "value": 0.7952755905511811
          },
          {
            "number": 11,
            "time": 61.99425988333393,
            "value": 0.8031496062992126
          },
          {
            "number": 11,
            "time": 62.0121170187506,
            "value": 0.8110236220472441
          },
          {
            "number": 11,
            "time": 62.04783128958393,
            "value": 0.8188976377952756
          },
          {
            "number": 11,
            "time": 62.083545560417264,
            "value": 0.8267716535433071
          },
          {
            "number": 11,
            "time": 62.119259831250595,
            "value": 0.8346456692913385
          },
          {
            "number": 11,
            "time": 62.17354552291726,
            "value": 0.84251968503937
          },
          {
            "number": 11,
            "time": 62.244974064583936,
            "value": 0.8503937007874016
          },
          {
            "number": 11,
            "time": 62.459973975000615,
            "value": 0.8346456692913385
          },
          {
            "number": 11,
            "time": 62.477831110417284,
            "value": 0.8267716535433071
          },
          {
            "number": 11,
            "time": 62.49568824583395,
            "value": 0.8188976377952756
          },
          {
            "number": 11,
            "time": 62.51354538125062,
            "value": 0.8031496062992126
          },
          {
            "number": 11,
            "time": 62.53140251666729,
            "value": 0.7952755905511811
          },
          {
            "number": 11,
            "time": 62.54925965208396,
            "value": 0.7795275590551181
          },
          {
            "number": 11,
            "time": 62.56711678750063,
            "value": 0.7716535433070866
          },
          {
            "number": 11,
            "time": 62.5849739229173,
            "value": 0.7637795275590551
          },
          {
            "number": 11,
            "time": 62.60283105833397,
            "value": 0.7559055118110236
          },
          {
            "number": 11,
            "time": 62.69283102083397,
            "value": 0.7637795275590551
          },
          {
            "number": 11,
            "time": 62.71068815625064,
            "value": 0.7795275590551181
          },
          {
            "number": 11,
            "time": 62.72854529166731,
            "value": 0.7952755905511811
          },
          {
            "number": 11,
            "time": 62.74640242708398,
            "value": 0.8031496062992126
          },
          {
            "number": 11,
            "time": 62.76425956250065,
            "value": 0.8110236220472441
          },
          {
            "number": 11,
            "time": 62.78211669791732,
            "value": 0.8188976377952756
          },
          {
            "number": 11,
            "time": 62.85354523958399,
            "value": 0.8267716535433071
          },
          {
            "number": 11,
            "time": 62.871402375000656,
            "value": 0.8346456692913385
          },
          {
            "number": 11,
            "time": 62.90783093125066,
            "value": 0.84251968503937
          },
          {
            "number": 11,
            "time": 62.92568806666733,
            "value": 0.8503937007874016
          },
          {
            "number": 11,
            "time": 62.943545202083996,
            "value": 0.8582677165354331
          },
          {
            "number": 11,
            "time": 62.97925947291733,
            "value": 0.8661417322834646
          },
          {
            "number": 11,
            "time": 63.01497374375066,
            "value": 0.8740157480314961
          },
          {
            "number": 11,
            "time": 63.10711656250066,
            "value": 0.8818897637795275
          },
          {
            "number": 11,
            "time": 63.519259247917326,
            "value": 0.8740157480314961
          },
          {
            "number": 11,
            "time": 63.55497351875066,
            "value": 0.8661417322834646
          },
          {
            "number": 11,
            "time": 63.572830654167326,
            "value": 0.8503937007874016
          },
          {
            "number": 11,
            "time": 63.590687789583995,
            "value": 0.84251968503937
          },
          {
            "number": 11,
            "time": 63.62640206041733,
            "value": 0.8346456692913385
          },
          {
            "number": 11,
            "time": 63.64497348125066,
            "value": 0.8267716535433071
          },
          {
            "number": 11,
            "time": 63.66283061666733,
            "value": 0.8188976377952756
          },
          {
            "number": 11,
            "time": 63.69854488750066,
            "value": 0.8110236220472441
          },
          {
            "number": 11,
            "time": 63.75211629375066,
            "value": 0.8031496062992126
          },
          {
            "number": 11,
            "time": 63.89568766250066,
            "value": 0.8110236220472441
          },
          {
            "number": 11,
            "time": 63.91354479791733,
            "value": 0.8188976377952756
          },
          {
            "number": 11,
            "time": 63.931401933334,
            "value": 0.8267716535433071
          },
          {
            "number": 11,
            "time": 63.94925906875067,
            "value": 0.8346456692913385
          },
          {
            "number": 11,
            "time": 63.96711620416734,
            "value": 0.84251968503937
          },
          {
            "number": 11,
            "time": 63.98497333958401,
            "value": 0.8503937007874016
          },
          {
            "number": 11,
            "time": 64.02068761041734,
            "value": 0.8582677165354331
          },
          {
            "number": 11,
            "time": 64.05640188125068,
            "value": 0.8661417322834646
          },
          {
            "number": 11,
            "time": 64.07425901666734,
            "value": 0.8740157480314961
          },
          {
            "number": 11,
            "time": 64.14640184375067,
            "value": 0.8818897637795275
          },
          {
            "number": 11,
            "time": 64.16425897916733,
            "value": 0.889763779527559
          },
          {
            "number": 11,
            "time": 64.220687527084,
            "value": 0.8976377952755905
          },
          {
            "number": 11,
            "time": 64.23854466250066,
            "value": 0.905511811023622
          },
          {
            "number": 11,
            "time": 64.274258933334,
            "value": 0.9133858267716536
          },
          {
            "number": 11,
            "time": 64.29211606875066,
            "value": 0.9212598425196851
          },
          {
            "number": 11,
            "time": 64.327830339584,
            "value": 0.9291338582677166
          },
          {
            "number": 11,
            "time": 64.38211603125066,
            "value": 0.937007874015748
          },
          {
            "number": 11,
            "time": 64.39997316666734,
            "value": 0.9448818897637795
          },
          {
            "number": 11,
            "time": 64.471401708334,
            "value": 0.952755905511811
          },
          {
            "number": 11,
            "time": 64.524973114584,
            "value": 0.9606299212598425
          },
          {
            "number": 11,
            "time": 64.63283021250066,
            "value": 0.968503937007874
          },
          {
            "number": 11,
            "time": 64.65068734791733,
            "value": 0.9763779527559056
          },
          {
            "number": 11,
            "time": 64.79354443125067,
            "value": 0.984251968503937
          },
          {
            "number": 11,
            "time": 64.829258702084,
            "value": 0.9921259842519685
          },
          {
            "number": 11,
            "time": 65.27711565833395,
            "value": 1
          },
          {
            "number": 11,
            "time": 65.29282993750063,
            "value": 1
          },
          {
            "number": 11,
            "time": 65.32140135416729,
            "value": 0.9921259842519685
          },
          {
            "number": 11,
            "time": 65.32854420833397,
            "value": 0.984251968503937
          },
          {
            "number": 11,
            "time": 65.33568706250064,
            "value": 0.9763779527559056
          },
          {
            "number": 11,
            "time": 65.34282991666731,
            "value": 0.952755905511811
          },
          {
            "number": 11,
            "time": 65.34997277083399,
            "value": 0.9448818897637795
          },
          {
            "number": 11,
            "time": 65.35711562500066,
            "value": 0.937007874015748
          },
          {
            "number": 11,
            "time": 65.36425847916733,
            "value": 0.9291338582677166
          },
          {
            "number": 11,
            "time": 65.371401333334,
            "value": 0.9133858267716536
          },
          {
            "number": 11,
            "time": 65.37854418750068,
            "value": 0.905511811023622
          },
          {
            "number": 11,
            "time": 65.39282989583401,
            "value": 0.889763779527559
          },
          {
            "number": 11,
            "time": 65.39997275000069,
            "value": 0.8818897637795275
          },
          {
            "number": 11,
            "time": 65.40711560416736,
            "value": 0.8740157480314961
          },
          {
            "number": 11,
            "time": 65.42140131250069,
            "value": 0.8582677165354331
          },
          {
            "number": 11,
            "time": 65.43568702083402,
            "value": 0.8503937007874016
          },
          {
            "number": 11,
            "time": 65.44997272916736,
            "value": 0.84251968503937
          },
          {
            "number": 11,
            "time": 65.45711558333403,
            "value": 0.8346456692913385
          },
          {
            "number": 11,
            "time": 65.47140129166736,
            "value": 0.8267716535433071
          },
          {
            "number": 11,
            "time": 65.47854414583404,
            "value": 0.8188976377952756
          },
          {
            "number": 11,
            "time": 65.48568700000071,
            "value": 0.8110236220472441
          },
          {
            "number": 11,
            "time": 65.49282985416738,
            "value": 0.8031496062992126
          },
          {
            "number": 11,
            "time": 65.49997270833406,
            "value": 0.7952755905511811
          },
          {
            "number": 11,
            "time": 65.50711556250073,
            "value": 0.7874015748031497
          },
          {
            "number": 11,
            "time": 65.5142584166674,
            "value": 0.7795275590551181
          },
          {
            "number": 11,
            "time": 65.52854412500074,
            "value": 0.7716535433070866
          },
          {
            "number": 11,
            "time": 65.53568697916741,
            "value": 0.7637795275590551
          },
          {
            "number": 11,
            "time": 65.54997268750074,
            "value": 0.7559055118110236
          },
          {
            "number": 11,
            "time": 65.57140125000075,
            "value": 0.7480314960629921
          },
          {
            "number": 11,
            "time": 65.59997266666741,
            "value": 0.7401574803149606
          },
          {
            "number": 11,
            "time": 65.62140122916742,
            "value": 0.7322834645669292
          },
          {
            "number": 11,
            "time": 65.68568691666742,
            "value": 0.7401574803149606
          },
          {
            "number": 11,
            "time": 65.69997262500075,
            "value": 0.7480314960629921
          },
          {
            "number": 11,
            "time": 65.72140118750076,
            "value": 0.7559055118110236
          },
          {
            "number": 11,
            "time": 65.73568689583409,
            "value": 0.7637795275590551
          },
          {
            "number": 11,
            "time": 65.74997260416743,
            "value": 0.7716535433070866
          },
          {
            "number": 11,
            "time": 65.76425831250076,
            "value": 0.7795275590551181
          },
          {
            "number": 11,
            "time": 65.77140116666743,
            "value": 0.7874015748031497
          },
          {
            "number": 11,
            "time": 65.78568687500076,
            "value": 0.8031496062992126
          },
          {
            "number": 11,
            "time": 65.7999725833341,
            "value": 0.8188976377952756
          },
          {
            "number": 11,
            "time": 65.80711543750077,
            "value": 0.8267716535433071
          },
          {
            "number": 11,
            "time": 65.81425829166744,
            "value": 0.8346456692913385
          },
          {
            "number": 11,
            "time": 65.82140114583412,
            "value": 0.8503937007874016
          },
          {
            "number": 11,
            "time": 65.82854400000079,
            "value": 0.8582677165354331
          },
          {
            "number": 11,
            "time": 65.83568685416746,
            "value": 0.8740157480314961
          },
          {
            "number": 11,
            "time": 65.84282970833414,
            "value": 0.889763779527559
          },
          {
            "number": 11,
            "time": 65.84997256250081,
            "value": 0.905511811023622
          },
          {
            "number": 11,
            "time": 65.85711541666748,
            "value": 0.9212598425196851
          },
          {
            "number": 11,
            "time": 65.86425827083416,
            "value": 0.937007874015748
          },
          {
            "number": 11,
            "time": 65.87140112500083,
            "value": 0.952755905511811
          },
          {
            "number": 11,
            "time": 65.8785439791675,
            "value": 0.968503937007874
          },
          {
            "number": 11,
            "time": 65.88568683333418,
            "value": 0.984251968503937
          },
          {
            "number": 11,
            "time": 65.89282968750085,
            "value": 1
          },
          {
            "number": 11,
            "time": 66.91568640416753,
            "value": 0.7401574803149606
          },
          {
            "number": 11,
            "time": 66.93354353958419,
            "value": 0.7480314960629921
          },
          {
            "number": 11,
            "time": 66.95140067500085,
            "value": 0.7559055118110236
          },
          {
            "number": 11,
            "time": 66.9871149458342,
            "value": 0.7637795275590551
          },
          {
            "number": 11,
            "time": 67.00497208125086,
            "value": 0.7716535433070866
          },
          {
            "number": 11,
            "time": 67.02282921666752,
            "value": 0.7795275590551181
          },
          {
            "number": 11,
            "time": 67.05854348750086,
            "value": 0.7874015748031497
          },
          {
            "number": 11,
            "time": 67.1306863145842,
            "value": 0.7952755905511811
          },
          {
            "number": 11,
            "time": 67.23782912708418,
            "value": 0.8031496062992126
          },
          {
            "number": 11,
            "time": 67.2735433979175,
            "value": 0.8110236220472441
          },
          {
            "number": 11,
            "time": 67.29140053333417,
            "value": 0.8188976377952756
          },
          {
            "number": 11,
            "time": 67.3635433604175,
            "value": 0.8267716535433071
          },
          {
            "number": 11,
            "time": 67.39925763125082,
            "value": 0.8346456692913385
          },
          {
            "number": 11,
            "time": 67.45282903750082,
            "value": 0.84251968503937
          },
          {
            "number": 11,
            "time": 67.47068617291748,
            "value": 0.8503937007874016
          },
          {
            "number": 11,
            "time": 67.48854330833414,
            "value": 0.8582677165354331
          },
          {
            "number": 11,
            "time": 67.50925758541747,
            "value": 0.8661417322834646
          },
          {
            "number": 11,
            "time": 67.52711472083413,
            "value": 0.8740157480314961
          },
          {
            "number": 11,
            "time": 67.54568614166746,
            "value": 0.8818897637795275
          },
          {
            "number": 11,
            "time": 67.56354327708412,
            "value": 0.8976377952755905
          },
          {
            "number": 11,
            "time": 67.58140041250078,
            "value": 0.9133858267716536
          },
          {
            "number": 11,
            "time": 67.59925754791745,
            "value": 0.9212598425196851
          },
          {
            "number": 11,
            "time": 67.61711468333411,
            "value": 0.9291338582677166
          },
          {
            "number": 11,
            "time": 67.63497181875077,
            "value": 0.9448818897637795
          },
          {
            "number": 11,
            "time": 67.65282895416743,
            "value": 0.952755905511811
          },
          {
            "number": 11,
            "time": 67.6706860895841,
            "value": 0.9606299212598425
          },
          {
            "number": 11,
            "time": 67.68854322500076,
            "value": 0.968503937007874
          },
          {
            "number": 11,
            "time": 67.70640036041742,
            "value": 0.9763779527559056
          },
          {
            "number": 11,
            "time": 67.72425749583408,
            "value": 0.984251968503937
          },
          {
            "number": 11,
            "time": 67.74211463125074,
            "value": 0.9921259842519685
          },
          {
            "number": 11,
            "time": 68.17211445208403,
            "value": 0.9763779527559056
          },
          {
            "number": 11,
            "time": 68.1899715875007,
            "value": 0.9606299212598425
          },
          {
            "number": 11,
            "time": 68.20782872291736,
            "value": 0.937007874015748
          },
          {
            "number": 11,
            "time": 68.22568585833402,
            "value": 0.9291338582677166
          },
          {
            "number": 11,
            "time": 68.72997136250066,
            "value": 0.9212598425196851
          },
          {
            "number": 11,
            "time": 68.74782849791733,
            "value": 0.9133858267716536
          },
          {
            "number": 11,
            "time": 68.76568563333399,
            "value": 0.905511811023622
          },
          {
            "number": 11,
            "time": 68.80211418958397,
            "value": 0.889763779527559
          },
          {
            "number": 11,
            "time": 68.81997132500064,
            "value": 0.8818897637795275
          },
          {
            "number": 11,
            "time": 68.8378284604173,
            "value": 0.8740157480314961
          },
          {
            "number": 11,
            "time": 68.96282840833393,
            "value": 0.8661417322834646
          },
          {
            "number": 11,
            "time": 68.9806855437506,
            "value": 0.8582677165354331
          },
          {
            "number": 11,
            "time": 69.01639981458392,
            "value": 0.8503937007874016
          },
          {
            "number": 11,
            "time": 69.05282837083391,
            "value": 0.84251968503937
          },
          {
            "number": 11,
            "time": 69.07068550625057,
            "value": 0.8346456692913385
          },
          {
            "number": 11,
            "time": 69.08854264166723,
            "value": 0.8267716535433071
          },
          {
            "number": 11,
            "time": 69.12425691250057,
            "value": 0.8188976377952756
          },
          {
            "number": 11,
            "time": 69.14211404791723,
            "value": 0.8110236220472441
          },
          {
            "number": 11,
            "time": 69.1599711833339,
            "value": 0.8031496062992126
          },
          {
            "number": 11,
            "time": 69.19568545416723,
            "value": 0.7952755905511811
          },
          {
            "number": 11,
            "time": 69.2135425895839,
            "value": 0.7874015748031497
          },
          {
            "number": 11,
            "time": 69.23139972500056,
            "value": 0.7716535433070866
          },
          {
            "number": 11,
            "time": 69.2671139958339,
            "value": 0.7637795275590551
          },
          {
            "number": 11,
            "time": 69.28497113125056,
            "value": 0.7559055118110236
          },
          {
            "number": 11,
            "time": 69.3035425520839,
            "value": 0.7480314960629921
          },
          {
            "number": 11,
            "time": 69.32139968750056,
            "value": 0.7401574803149606
          },
          {
            "number": 11,
            "time": 69.33925682291722,
            "value": 0.7322834645669292
          },
          {
            "number": 11,
            "time": 69.35711395833388,
            "value": 0.7244094488188977
          },
          {
            "number": 11,
            "time": 69.37497109375055,
            "value": 0.7165354330708661
          },
          {
            "number": 11,
            "time": 69.39282822916721,
            "value": 0.7086614173228346
          },
          {
            "number": 11,
            "time": 69.41068536458387,
            "value": 0.6929133858267716
          },
          {
            "number": 11,
            "time": 69.42854250000053,
            "value": 0.6771653543307087
          },
          {
            "number": 11,
            "time": 69.4463996354172,
            "value": 0.6692913385826772
          },
          {
            "number": 11,
            "time": 69.46425677083386,
            "value": 0.6614173228346457
          },
          {
            "number": 11,
            "time": 69.53568531250052,
            "value": 0.6692913385826772
          },
          {
            "number": 11,
            "time": 69.55354244791718,
            "value": 0.6771653543307087
          },
          {
            "number": 11,
            "time": 69.57211386875052,
            "value": 0.6850393700787402
          },
          {
            "number": 11,
            "time": 69.58997100416718,
            "value": 0.7007874015748031
          },
          {
            "number": 11,
            "time": 69.60782813958386,
            "value": 0.7165354330708661
          },
          {
            "number": 11,
            "time": 69.62568527500052,
            "value": 0.7244094488188977
          },
          {
            "number": 11,
            "time": 69.64354241041718,
            "value": 0.7322834645669292
          },
          {
            "number": 11,
            "time": 69.66139954583385,
            "value": 0.7401574803149606
          },
          {
            "number": 11,
            "time": 69.67925668125051,
            "value": 0.7480314960629921
          },
          {
            "number": 11,
            "time": 69.69711381666717,
            "value": 0.7559055118110236
          },
          {
            "number": 11,
            "time": 69.71497095208383,
            "value": 0.7716535433070866
          },
          {
            "number": 11,
            "time": 69.7328280875005,
            "value": 0.7795275590551181
          },
          {
            "number": 11,
            "time": 69.75068522291716,
            "value": 0.7874015748031497
          },
          {
            "number": 11,
            "time": 69.76854235833382,
            "value": 0.7952755905511811
          },
          {
            "number": 11,
            "time": 69.78639949375048,
            "value": 0.8031496062992126
          },
          {
            "number": 11,
            "time": 69.80425662916714,
            "value": 0.8110236220472441
          },
          {
            "number": 11,
            "time": 69.82568519166713,
            "value": 0.8267716535433071
          },
          {
            "number": 11,
            "time": 69.8435423270838,
            "value": 0.8346456692913385
          },
          {
            "number": 11,
            "time": 69.86139946250046,
            "value": 0.84251968503937
          },
          {
            "number": 11,
            "time": 69.87925659791712,
            "value": 0.8661417322834646
          },
          {
            "number": 11,
            "time": 69.89711373333378,
            "value": 0.8740157480314961
          },
          {
            "number": 11,
            "time": 69.91497086875044,
            "value": 0.889763779527559
          },
          {
            "number": 11,
            "time": 69.9328280041671,
            "value": 0.905511811023622
          },
          {
            "number": 11,
            "time": 69.95068513958377,
            "value": 0.9133858267716536
          },
          {
            "number": 11,
            "time": 69.96854227500043,
            "value": 0.9291338582677166
          },
          {
            "number": 11,
            "time": 69.98639941041709,
            "value": 0.937007874015748
          },
          {
            "number": 11,
            "time": 70.00425654583375,
            "value": 0.9448818897637795
          },
          {
            "number": 11,
            "time": 70.02211368125042,
            "value": 0.952755905511811
          },
          {
            "number": 11,
            "time": 70.04068510208374,
            "value": 0.9606299212598425
          },
          {
            "number": 11,
            "time": 70.0585422375004,
            "value": 0.9763779527559056
          },
          {
            "number": 11,
            "time": 70.07639937291707,
            "value": 0.984251968503937
          },
          {
            "number": 11,
            "time": 70.09425650833373,
            "value": 0.9921259842519685
          },
          {
            "number": 11,
            "time": 70.11211364375039,
            "value": 1
          },
          {
            "number": 11,
            "time": 70.57782773541706,
            "value": 0.9921259842519685
          },
          {
            "number": 11,
            "time": 70.59568487083372,
            "value": 0.984251968503937
          },
          {
            "number": 11,
            "time": 70.61354200625038,
            "value": 0.9763779527559056
          },
          {
            "number": 11,
            "time": 70.63139914166705,
            "value": 0.968503937007874
          },
          {
            "number": 11,
            "time": 70.64925627708371,
            "value": 0.952755905511811
          },
          {
            "number": 11,
            "time": 70.66711341250037,
            "value": 0.937007874015748
          },
          {
            "number": 11,
            "time": 70.68497054791703,
            "value": 0.9212598425196851
          },
          {
            "number": 11,
            "time": 70.7028276833337,
            "value": 0.905511811023622
          },
          {
            "number": 11,
            "time": 70.72068481875036,
            "value": 0.889763779527559
          },
          {
            "number": 11,
            "time": 70.73854195416702,
            "value": 0.8661417322834646
          },
          {
            "number": 11,
            "time": 70.75639908958368,
            "value": 0.84251968503937
          },
          {
            "number": 11,
            "time": 70.77425622500034,
            "value": 0.8188976377952756
          },
          {
            "number": 11,
            "time": 70.792113360417,
            "value": 0.8110236220472441
          },
          {
            "number": 11,
            "time": 70.84639905208367,
            "value": 0.8267716535433071
          },
          {
            "number": 11,
            "time": 70.86425618750033,
            "value": 0.8503937007874016
          },
          {
            "number": 11,
            "time": 70.882113322917,
            "value": 0.8740157480314961
          },
          {
            "number": 11,
            "time": 70.89997045833366,
            "value": 0.905511811023622
          },
          {
            "number": 11,
            "time": 70.91782759375032,
            "value": 0.9448818897637795
          },
          {
            "number": 11,
            "time": 70.93568472916698,
            "value": 0.9763779527559056
          },
          {
            "number": 11,
            "time": 70.95354186458364,
            "value": 0.984251968503937
          },
          {
            "number": 11,
            "time": 70.97425614166697,
            "value": 0.9921259842519685
          },
          {
            "number": 11,
            "time": 71.04639896875031,
            "value": 1
          },
          {
            "number": 11,
            "time": 72.06711282916699,
            "value": 0.9921259842519685
          },
          {
            "number": 11,
            "time": 72.08496996458365,
            "value": 0.9763779527559056
          },
          {
            "number": 11,
            "time": 72.10282710000031,
            "value": 0.9606299212598425
          },
          {
            "number": 11,
            "time": 72.12068423541697,
            "value": 0.9448818897637795
          },
          {
            "number": 11,
            "time": 72.1413985125003,
            "value": 0.9291338582677166
          },
          {
            "number": 11,
            "time": 72.15925564791696,
            "value": 0.9133858267716536
          },
          {
            "number": 11,
            "time": 72.17711278333363,
            "value": 0.889763779527559
          },
          {
            "number": 11,
            "time": 72.19496991875029,
            "value": 0.8661417322834646
          },
          {
            "number": 11,
            "time": 72.21282705416695,
            "value": 0.84251968503937
          },
          {
            "number": 11,
            "time": 72.23068418958361,
            "value": 0.8267716535433071
          },
          {
            "number": 11,
            "time": 72.24854132500028,
            "value": 0.8188976377952756
          },
          {
            "number": 11,
            "time": 72.35639842291694,
            "value": 0.8267716535433071
          },
          {
            "number": 11,
            "time": 72.3742555583336,
            "value": 0.8346456692913385
          },
          {
            "number": 11,
            "time": 72.39211269375026,
            "value": 0.8503937007874016
          },
          {
            "number": 11,
            "time": 72.40996982916693,
            "value": 0.8661417322834646
          },
          {
            "number": 11,
            "time": 72.42782696458359,
            "value": 0.8740157480314961
          },
          {
            "number": 11,
            "time": 72.44568410000025,
            "value": 0.8818897637795275
          },
          {
            "number": 11,
            "time": 72.46354123541691,
            "value": 0.889763779527559
          },
          {
            "number": 11,
            "time": 72.48139837083357,
            "value": 0.8976377952755905
          },
          {
            "number": 11,
            "time": 72.49925550625024,
            "value": 0.9133858267716536
          },
          {
            "number": 11,
            "time": 72.51782692708358,
            "value": 0.9291338582677166
          },
          {
            "number": 11,
            "time": 72.53568406250024,
            "value": 0.9448818897637795
          },
          {
            "number": 11,
            "time": 72.5535411979169,
            "value": 0.952755905511811
          },
          {
            "number": 11,
            "time": 72.57139833333356,
            "value": 0.968503937007874
          },
          {
            "number": 11,
            "time": 72.58925546875022,
            "value": 0.9763779527559056
          },
          {
            "number": 11,
            "time": 72.60711260416689,
            "value": 0.984251968503937
          },
          {
            "number": 11,
            "time": 72.62496973958355,
            "value": 0.9921259842519685
          },
          {
            "number": 11,
            "time": 72.80425537916685,
            "value": 1
          },
          {
            "number": 11,
            "time": 73.57711220000012,
            "value": 0.984251968503937
          },
          {
            "number": 11,
            "time": 73.59496933541678,
            "value": 0.968503937007874
          },
          {
            "number": 11,
            "time": 73.61282647083344,
            "value": 0.9606299212598425
          },
          {
            "number": 11,
            "time": 73.6306836062501,
            "value": 0.952755905511811
          },
          {
            "number": 11,
            "time": 73.64854074166676,
            "value": 0.9448818897637795
          },
          {
            "number": 11,
            "time": 73.66639787708343,
            "value": 0.937007874015748
          },
          {
            "number": 11,
            "time": 73.68425501250009,
            "value": 0.9291338582677166
          },
          {
            "number": 11,
            "time": 73.82782638125009,
            "value": 0.937007874015748
          },
          {
            "number": 11,
            "time": 73.84568351666675,
            "value": 0.952755905511811
          },
          {
            "number": 11,
            "time": 73.86354065208342,
            "value": 0.9606299212598425
          },
          {
            "number": 11,
            "time": 73.88139778750008,
            "value": 0.968503937007874
          },
          {
            "number": 11,
            "time": 73.89925492291674,
            "value": 0.9763779527559056
          },
          {
            "number": 11,
            "time": 73.9171120583334,
            "value": 0.984251968503937
          },
          {
            "number": 11,
            "time": 73.93496919375006,
            "value": 0.9921259842519685
          },
          {
            "number": 11,
            "time": 74.06068342708336,
            "value": 1
          },
          {
            "number": 11,
            "time": 74.88711165416663,
            "value": 0.9763779527559056
          },
          {
            "number": 11,
            "time": 74.9049687895833,
            "value": 0.9448818897637795
          },
          {
            "number": 11,
            "time": 74.92282592499996,
            "value": 0.905511811023622
          },
          {
            "number": 11,
            "time": 74.94068306041662,
            "value": 0.8740157480314961
          },
          {
            "number": 11,
            "time": 74.95854019583328,
            "value": 0.8661417322834646
          },
          {
            "number": 11,
            "time": 75.01282588749994,
            "value": 0.8818897637795275
          },
          {
            "number": 11,
            "time": 75.0306830229166,
            "value": 0.8976377952755905
          },
          {
            "number": 11,
            "time": 75.04854015833327,
            "value": 0.9212598425196851
          },
          {
            "number": 11,
            "time": 75.06639729374993,
            "value": 0.9448818897637795
          },
          {
            "number": 11,
            "time": 75.08425442916659,
            "value": 0.968503937007874
          },
          {
            "number": 11,
            "time": 75.10211156458327,
            "value": 0.984251968503937
          },
          {
            "number": 11,
            "time": 75.11996869999993,
            "value": 0.9921259842519685
          },
          {
            "number": 11,
            "time": 75.13782583541659,
            "value": 1
          },
          {
            "number": 11,
            "time": 77.82996757083313,
            "value": 0.9763779527559056
          },
          {
            "number": 11,
            "time": 77.8478247062498,
            "value": 0.968503937007874
          },
          {
            "number": 11,
            "time": 77.86568184166646,
            "value": 0.9606299212598425
          },
          {
            "number": 11,
            "time": 77.9013961124998,
            "value": 0.968503937007874
          },
          {
            "number": 11,
            "time": 77.91925324791646,
            "value": 0.9921259842519685
          },
          {
            "number": 11,
            "time": 78.01211035208311,
            "value": 1
          },
          {
            "number": 11,
            "time": 79.14282416666633,
            "value": 0.9763779527559056
          },
          {
            "number": 11,
            "time": 79.16068130208299,
            "value": 0.952755905511811
          },
          {
            "number": 11,
            "time": 79.17853843749965,
            "value": 0.9291338582677166
          },
          {
            "number": 11,
            "time": 79.19639557291632,
            "value": 0.9212598425196851
          },
          {
            "number": 11,
            "time": 79.21496699374964,
            "value": 0.905511811023622
          },
          {
            "number": 11,
            "time": 79.2328241291663,
            "value": 0.8976377952755905
          },
          {
            "number": 11,
            "time": 79.25068126458297,
            "value": 0.889763779527559
          },
          {
            "number": 11,
            "time": 79.26853839999963,
            "value": 0.8818897637795275
          },
          {
            "number": 11,
            "time": 79.50139544583296,
            "value": 0.889763779527559
          },
          {
            "number": 11,
            "time": 79.51925258124962,
            "value": 0.8976377952755905
          },
          {
            "number": 11,
            "time": 79.53710971666628,
            "value": 0.9212598425196851
          },
          {
            "number": 11,
            "time": 79.55496685208294,
            "value": 0.9448818897637795
          },
          {
            "number": 11,
            "time": 79.5728239874996,
            "value": 0.9763779527559056
          },
          {
            "number": 11,
            "time": 79.59068112291627,
            "value": 0.984251968503937
          },
          {
            "number": 11,
            "time": 79.60853825833293,
            "value": 0.9921259842519685
          },
          {
            "number": 11,
            "time": 79.62639539374959,
            "value": 1
          },
          {
            "number": 11,
            "time": 79.8856809999996,
            "value": 0.6220472440944882
          },
          {
            "number": 11,
            "time": 79.88746671354126,
            "value": 0.6456692913385826
          },
          {
            "number": 11,
            "time": 79.89460956770793,
            "value": 0.6535433070866141
          },
          {
            "number": 11,
            "time": 79.8963952812496,
            "value": 0.6456692913385826
          },
          {
            "number": 11,
            "time": 80.04818093229126,
            "value": 0.9921259842519685
          },
          {
            "number": 11,
            "time": 80.05175235937459,
            "value": 0.984251968503937
          },
          {
            "number": 11,
            "time": 80.05353807291625,
            "value": 0.984251968503937
          },
          {
            "number": 11,
            "time": 80.05532378645792,
            "value": 0.9763779527559056
          },
          {
            "number": 11,
            "time": 80.05710949999958,
            "value": 0.984251968503937
          },
          {
            "number": 11,
            "time": 80.23389514062458,
            "value": 0.7637795275590551
          },
          {
            "number": 11,
            "time": 80.23568085416625,
            "value": 0.7559055118110236
          },
          {
            "number": 11,
            "time": 80.23746656770791,
            "value": 0.6299212598425197
          },
          {
            "number": 11,
            "time": 80.23925228124958,
            "value": 0.5196850393700787
          },
          {
            "number": 11,
            "time": 80.24103799479124,
            "value": 0.6299212598425197
          },
          {
            "number": 11,
            "time": 80.26068084374957,
            "value": 0.6299212598425197
          },
          {
            "number": 11,
            "time": 80.3874665052079,
            "value": 0.7637795275590551
          },
          {
            "number": 11,
            "time": 80.38925221874956,
            "value": 0.9921259842519685
          },
          {
            "number": 11,
            "time": 80.39282364583289,
            "value": 0.9921259842519685
          },
          {
            "number": 11,
            "time": 80.39460935937456,
            "value": 0.9921259842519685
          },
          {
            "number": 11,
            "time": 80.39925221458289,
            "value": 0.8661417322834646
          },
          {
            "number": 11,
            "time": 80.41710934999955,
            "value": 0.8346456692913385
          },
          {
            "number": 11,
            "time": 80.43496648541621,
            "value": 0.8110236220472441
          },
          {
            "number": 11,
            "time": 80.45353790624955,
            "value": 0.8031496062992126
          },
          {
            "number": 11,
            "time": 80.48925217708289,
            "value": 0.8110236220472441
          },
          {
            "number": 11,
            "time": 80.50710931249955,
            "value": 0.8346456692913385
          },
          {
            "number": 11,
            "time": 80.52496644791621,
            "value": 0.8582677165354331
          },
          {
            "number": 11,
            "time": 80.54282358333288,
            "value": 0.8818897637795275
          },
          {
            "number": 11,
            "time": 80.56068071874954,
            "value": 0.889763779527559
          },
          {
            "number": 11,
            "time": 80.5785378541662,
            "value": 0.905511811023622
          },
          {
            "number": 11,
            "time": 80.59639498958286,
            "value": 0.9133858267716536
          },
          {
            "number": 11,
            "time": 80.61425212499952,
            "value": 0.9291338582677166
          },
          {
            "number": 11,
            "time": 80.63210926041619,
            "value": 0.9448818897637795
          },
          {
            "number": 11,
            "time": 80.64996639583285,
            "value": 0.9606299212598425
          },
          {
            "number": 11,
            "time": 80.66782353124951,
            "value": 0.9763779527559056
          },
          {
            "number": 11,
            "time": 80.68568066666617,
            "value": 0.984251968503937
          },
          {
            "number": 11,
            "time": 80.70425208749951,
            "value": 0.9921259842519685
          },
          {
            "number": 11,
            "time": 80.75782349374951,
            "value": 1
          },
          {
            "number": 11,
            "time": 81.51353746458284,
            "value": 0.9921259842519685
          },
          {
            "number": 11,
            "time": 81.5313945999995,
            "value": 0.968503937007874
          },
          {
            "number": 11,
            "time": 81.54925173541616,
            "value": 0.937007874015748
          },
          {
            "number": 11,
            "time": 81.56710887083283,
            "value": 0.9133858267716536
          },
          {
            "number": 11,
            "time": 81.58496600624949,
            "value": 0.889763779527559
          },
          {
            "number": 11,
            "time": 81.59996599999948,
            "value": 0.8582677165354331
          },
          {
            "number": 11,
            "time": 81.62139456249949,
            "value": 0.8346456692913385
          },
          {
            "number": 11,
            "time": 81.63925169791615,
            "value": 0.8110236220472441
          },
          {
            "number": 11,
            "time": 81.65710883333281,
            "value": 0.7874015748031497
          },
          {
            "number": 11,
            "time": 81.67496596874948,
            "value": 0.7637795275590551
          },
          {
            "number": 11,
            "time": 81.69282310416614,
            "value": 0.7401574803149606
          },
          {
            "number": 11,
            "time": 81.72853737499948,
            "value": 0.7322834645669292
          },
          {
            "number": 11,
            "time": 81.74639451041614,
            "value": 0.7244094488188977
          },
          {
            "number": 11,
            "time": 81.7642516458328,
            "value": 0.7165354330708661
          },
          {
            "number": 11,
            "time": 81.8542516083328,
            "value": 0.7244094488188977
          },
          {
            "number": 11,
            "time": 81.87210874374946,
            "value": 0.7401574803149606
          },
          {
            "number": 11,
            "time": 81.88996587916613,
            "value": 0.7716535433070866
          },
          {
            "number": 11,
            "time": 81.90782301458279,
            "value": 0.7952755905511811
          },
          {
            "number": 11,
            "time": 81.92568014999945,
            "value": 0.8188976377952756
          },
          {
            "number": 11,
            "time": 81.94353728541611,
            "value": 0.8346456692913385
          },
          {
            "number": 11,
            "time": 81.96139442083278,
            "value": 0.8503937007874016
          },
          {
            "number": 11,
            "time": 81.97925155624944,
            "value": 0.8661417322834646
          },
          {
            "number": 11,
            "time": 81.9971086916661,
            "value": 0.8740157480314961
          },
          {
            "number": 11,
            "time": 82.01496582708276,
            "value": 0.8818897637795275
          },
          {
            "number": 11,
            "time": 82.03282296249942,
            "value": 0.889763779527559
          },
          {
            "number": 11,
            "time": 82.05068009791609,
            "value": 0.8976377952755905
          },
          {
            "number": 11,
            "time": 82.06853723333275,
            "value": 0.905511811023622
          },
          {
            "number": 11,
            "time": 82.08639436874941,
            "value": 0.9133858267716536
          },
          {
            "number": 11,
            "time": 82.10496578958275,
            "value": 0.9291338582677166
          },
          {
            "number": 11,
            "time": 82.12282292499941,
            "value": 0.937007874015748
          },
          {
            "number": 11,
            "time": 82.14068006041607,
            "value": 0.9448818897637795
          },
          {
            "number": 11,
            "time": 82.15853719583274,
            "value": 0.952755905511811
          },
          {
            "number": 11,
            "time": 82.1763943312494,
            "value": 0.9606299212598425
          },
          {
            "number": 11,
            "time": 82.19425146666606,
            "value": 0.968503937007874
          },
          {
            "number": 11,
            "time": 82.21210860208272,
            "value": 0.9763779527559056
          },
          {
            "number": 11,
            "time": 82.22996573749938,
            "value": 0.984251968503937
          },
          {
            "number": 11,
            "time": 82.24782287291605,
            "value": 0.9921259842519685
          },
          {
            "number": 11,
            "time": 82.35496568541605,
            "value": 1
          },
          {
            "number": 11,
            "time": 83.14496535624939,
            "value": 0.9763779527559056
          },
          {
            "number": 11,
            "time": 83.16282249166605,
            "value": 0.952755905511811
          },
          {
            "number": 11,
            "time": 83.18067962708271,
            "value": 0.9212598425196851
          },
          {
            "number": 11,
            "time": 83.19925104791605,
            "value": 0.889763779527559
          },
          {
            "number": 11,
            "time": 83.21710818333271,
            "value": 0.8661417322834646
          },
          {
            "number": 11,
            "time": 83.23496531874937,
            "value": 0.84251968503937
          },
          {
            "number": 11,
            "time": 83.32425099583271,
            "value": 0.8503937007874016
          },
          {
            "number": 11,
            "time": 83.34282241666605,
            "value": 0.8661417322834646
          },
          {
            "number": 11,
            "time": 83.35996526666605,
            "value": 0.8818897637795275
          },
          {
            "number": 11,
            "time": 83.38067954374938,
            "value": 0.8976377952755905
          },
          {
            "number": 11,
            "time": 83.39853667916604,
            "value": 0.9133858267716536
          },
          {
            "number": 11,
            "time": 83.41353667291604,
            "value": 0.9291338582677166
          },
          {
            "number": 11,
            "time": 83.43496523541604,
            "value": 0.952755905511811
          },
          {
            "number": 11,
            "time": 83.4528223708327,
            "value": 0.968503937007874
          },
          {
            "number": 11,
            "time": 83.47067950624937,
            "value": 0.984251968503937
          },
          {
            "number": 11,
            "time": 83.48567949999936,
            "value": 0.9921259842519685
          },
          {
            "number": 11,
            "time": 83.52425091249937,
            "value": 1
          },
          {
            "number": 11,
            "time": 84.56567904999936,
            "value": 0.9921259842519685
          },
          {
            "number": 11,
            "time": 84.58067904374936,
            "value": 0.9763779527559056
          },
          {
            "number": 11,
            "time": 84.59996474999936,
            "value": 0.952755905511811
          },
          {
            "number": 11,
            "time": 84.6163933145827,
            "value": 0.937007874015748
          },
          {
            "number": 11,
            "time": 84.63425044999936,
            "value": 0.9212598425196851
          },
          {
            "number": 11,
            "time": 84.65210758541602,
            "value": 0.905511811023622
          },
          {
            "number": 11,
            "time": 84.66996472083268,
            "value": 0.889763779527559
          },
          {
            "number": 11,
            "time": 84.68853614166602,
            "value": 0.8818897637795275
          },
          {
            "number": 11,
            "time": 84.76067896874936,
            "value": 0.889763779527559
          },
          {
            "number": 11,
            "time": 84.8135360895827,
            "value": 0.8976377952755905
          },
          {
            "number": 11,
            "time": 84.83139322499936,
            "value": 0.9212598425196851
          },
          {
            "number": 11,
            "time": 84.84925036041602,
            "value": 0.937007874015748
          },
          {
            "number": 11,
            "time": 84.86710749583268,
            "value": 0.9448818897637795
          },
          {
            "number": 11,
            "time": 84.88782177291601,
            "value": 0.9606299212598425
          },
          {
            "number": 11,
            "time": 84.90639319374935,
            "value": 0.968503937007874
          },
          {
            "number": 11,
            "time": 84.92425032916601,
            "value": 0.9921259842519685
          },
          {
            "number": 11,
            "time": 85.01353600624935,
            "value": 1
          },
          {
            "number": 11,
            "time": 85.78353568541603,
            "value": 0.9763779527559056
          },
          {
            "number": 11,
            "time": 85.80139282083269,
            "value": 0.9606299212598425
          },
          {
            "number": 11,
            "time": 85.81924995624935,
            "value": 0.937007874015748
          },
          {
            "number": 11,
            "time": 85.83710709166601,
            "value": 0.9291338582677166
          },
          {
            "number": 11,
            "time": 85.85496422708268,
            "value": 0.9212598425196851
          },
          {
            "number": 11,
            "time": 85.87282136249934,
            "value": 0.9133858267716536
          },
          {
            "number": 11,
            "time": 85.89067849791601,
            "value": 0.8976377952755905
          },
          {
            "number": 11,
            "time": 85.90853563333268,
            "value": 0.8740157480314961
          },
          {
            "number": 11,
            "time": 85.92639276874934,
            "value": 0.8582677165354331
          },
          {
            "number": 11,
            "time": 85.94496418958268,
            "value": 0.8346456692913385
          },
          {
            "number": 11,
            "time": 85.96282132499934,
            "value": 0.8110236220472441
          },
          {
            "number": 11,
            "time": 85.980678460416,
            "value": 0.8031496062992126
          },
          {
            "number": 11,
            "time": 85.99853559583266,
            "value": 0.7952755905511811
          },
          {
            "number": 11,
            "time": 86.034249866666,
            "value": 0.8031496062992126
          },
          {
            "number": 11,
            "time": 86.05496414374933,
            "value": 0.8188976377952756
          },
          {
            "number": 11,
            "time": 86.072821279166,
            "value": 0.84251968503937
          },
          {
            "number": 11,
            "time": 86.09067841458267,
            "value": 0.8661417322834646
          },
          {
            "number": 11,
            "time": 86.10853554999933,
            "value": 0.8976377952755905
          },
          {
            "number": 11,
            "time": 86.126392685416,
            "value": 0.9212598425196851
          },
          {
            "number": 11,
            "time": 86.14496410624933,
            "value": 0.9448818897637795
          },
          {
            "number": 11,
            "time": 86.162821241666,
            "value": 0.968503937007874
          },
          {
            "number": 11,
            "time": 86.18067837708266,
            "value": 0.9763779527559056
          },
          {
            "number": 11,
            "time": 86.19853551249932,
            "value": 0.984251968503937
          },
          {
            "number": 11,
            "time": 86.21639264791598,
            "value": 0.9921259842519685
          },
          {
            "number": 11,
            "time": 86.39496400208265,
            "value": 1
          },
          {
            "number": 11,
            "time": 87.09353513958264,
            "value": 0.984251968503937
          },
          {
            "number": 11,
            "time": 87.1113922749993,
            "value": 0.9606299212598425
          },
          {
            "number": 11,
            "time": 87.12924941041597,
            "value": 0.9448818897637795
          },
          {
            "number": 11,
            "time": 87.14710654583263,
            "value": 0.9212598425196851
          },
          {
            "number": 11,
            "time": 87.16496368124929,
            "value": 0.8976377952755905
          },
          {
            "number": 11,
            "time": 87.18353510208263,
            "value": 0.889763779527559
          },
          {
            "number": 11,
            "time": 87.2935350562493,
            "value": 0.905511811023622
          },
          {
            "number": 11,
            "time": 87.31139219166596,
            "value": 0.937007874015748
          },
          {
            "number": 11,
            "time": 87.32924932708262,
            "value": 0.9606299212598425
          },
          {
            "number": 11,
            "time": 87.34710646249928,
            "value": 0.9763779527559056
          },
          {
            "number": 11,
            "time": 87.36496359791595,
            "value": 0.9921259842519685
          },
          {
            "number": 11,
            "time": 87.47282069583261,
            "value": 1
          }
        ],
        "32": [
          {
            "number": 32,
            "time": 0.7999996666666668,
            "value": 0
          }
        ],
        "100": [
          {
            "number": 100,
            "time": 0.7999996666666668,
            "value": 0
          }
        ],
        "101": [
          {
            "number": 101,
            "time": 0.7999996666666668,
            "value": 0
          }
        ]
      },
      "id": 13,
      "instrumentNumber": 48,
      "instrument": "string ensemble 1",
      "instrumentFamily": "ensemble",
      "channelNumber": 12,
      "isPercussion": false
    },
    {
      "startTime": 9.599996,
      "duration": 88.79996299999962,
      "length": 56,
      "notes": [
        {
          "name": "G4",
          "midi": 67,
          "time": 9.599996,
          "velocity": 0.8031496062992126,
          "duration": 1.1999995000000254
        },
        {
          "name": "F#4",
          "midi": 66,
          "time": 10.799995500000026,
          "velocity": 1,
          "duration": 0.8571425000000126
        },
        {
          "name": "F#4",
          "midi": 66,
          "time": 11.828566500000038,
          "velocity": 0.84251968503937,
          "duration": 0.08571425000000055
        },
        {
          "name": "G#4",
          "midi": 68,
          "time": 11.914280750000039,
          "velocity": 0.8188976377952756,
          "duration": 0.08571425000000055
        },
        {
          "name": "A#4",
          "midi": 70,
          "time": 11.99999500000004,
          "velocity": 0.7874015748031497,
          "duration": 1.1999995000000148
        },
        {
          "name": "G#4",
          "midi": 68,
          "time": 13.199994500000054,
          "velocity": 0.8346456692913385,
          "duration": 0.8571425000000001
        },
        {
          "name": "D#5",
          "midi": 75,
          "time": 14.057137000000054,
          "velocity": 0.84251968503937,
          "duration": 0.6857140000000008
        },
        {
          "name": "C#5",
          "midi": 73,
          "time": 14.742851000000055,
          "velocity": 0.8110236220472441,
          "duration": 0.6857140000000008
        },
        {
          "name": "F4",
          "midi": 65,
          "time": 15.428565000000056,
          "velocity": 0.8110236220472441,
          "duration": 0.5142854999999997
        },
        {
          "name": "F#4",
          "midi": 66,
          "time": 15.942850500000056,
          "velocity": 0.8110236220472441,
          "duration": 1.0285709999999746
        },
        {
          "name": "D#4",
          "midi": 63,
          "time": 17.14285000000003,
          "velocity": 0.8110236220472441,
          "duration": 0.08571424999999877
        },
        {
          "name": "F4",
          "midi": 65,
          "time": 17.22856425000003,
          "velocity": 0.8267716535433071,
          "duration": 0.08571424999999877
        },
        {
          "name": "F#4",
          "midi": 66,
          "time": 17.31427850000003,
          "velocity": 0.8346456692913385,
          "duration": 0.08571424999999877
        },
        {
          "name": "G#4",
          "midi": 68,
          "time": 17.399992750000028,
          "velocity": 0.8346456692913385,
          "duration": 0.08571424999999877
        },
        {
          "name": "A#4",
          "midi": 70,
          "time": 17.485707000000026,
          "velocity": 0.8110236220472441,
          "duration": 1.1999994999999757
        },
        {
          "name": "G#4",
          "midi": 68,
          "time": 18.685706500000002,
          "velocity": 0.8346456692913385,
          "duration": 0.8571424999999984
        },
        {
          "name": "D#5",
          "midi": 75,
          "time": 19.542849,
          "velocity": 0.8110236220472441,
          "duration": 0.6857140000000008
        },
        {
          "name": "C#5",
          "midi": 73,
          "time": 20.228563,
          "velocity": 0.7952755905511811,
          "duration": 2.0571419999999705
        },
        {
          "name": "D#5",
          "midi": 75,
          "time": 22.971418999999972,
          "velocity": 0.6220472440944882,
          "duration": 2.742855999999904
        },
        {
          "name": "C4",
          "midi": 60,
          "time": 44.91426699999989,
          "velocity": 0.7637795275590551,
          "duration": 2.74285600000011
        },
        {
          "name": "D#4",
          "midi": 63,
          "time": 47.657123,
          "velocity": 0.7322834645669292,
          "duration": 2.7428560000000957
        },
        {
          "name": "A#4",
          "midi": 70,
          "time": 50.399979000000094,
          "velocity": 0.7716535433070866,
          "duration": 2.057142000000077
        },
        {
          "name": "G#4",
          "midi": 68,
          "time": 52.45712100000017,
          "velocity": 0.7795275590551181,
          "duration": 0.6857140000000399
        },
        {
          "name": "C5",
          "midi": 72,
          "time": 53.14283500000021,
          "velocity": 0.8110236220472441,
          "duration": 2.7428560000000957
        },
        {
          "name": "A4",
          "midi": 69,
          "time": 55.88569100000031,
          "velocity": 0.7401574803149606,
          "duration": 2.7428560000000743
        },
        {
          "name": "G#4",
          "midi": 68,
          "time": 58.62854700000038,
          "velocity": 0.7086614173228346,
          "duration": 1.3714280000000798
        },
        {
          "name": "G#4",
          "midi": 68,
          "time": 59.99997500000046,
          "velocity": 0.7874015748031497,
          "duration": 0.3428570000000448
        },
        {
          "name": "A#4",
          "midi": 70,
          "time": 60.342832000000506,
          "velocity": 0.8188976377952756,
          "duration": 0.3428570000000022
        },
        {
          "name": "C5",
          "midi": 72,
          "time": 60.68568900000051,
          "velocity": 0.8346456692913385,
          "duration": 0.3428570000000022
        },
        {
          "name": "D5",
          "midi": 74,
          "time": 61.02854600000051,
          "velocity": 0.8503937007874016,
          "duration": 0.3428570000000093
        },
        {
          "name": "C5",
          "midi": 72,
          "time": 61.37140300000052,
          "velocity": 0.84251968503937,
          "duration": 1.3714280000000585
        },
        {
          "name": "A#4",
          "midi": 70,
          "time": 62.74283100000058,
          "velocity": 0.84251968503937,
          "duration": 1.371428000000023
        },
        {
          "name": "C5",
          "midi": 72,
          "time": 64.1142590000006,
          "velocity": 0.8503937007874016,
          "duration": 1.3714280000000514
        },
        {
          "name": "B4",
          "midi": 71,
          "time": 65.48568700000065,
          "velocity": 1,
          "duration": 0.6857140000001181
        },
        {
          "name": "A#4",
          "midi": 70,
          "time": 66.85711500000077,
          "velocity": 0.7874015748031497,
          "duration": 2.7428559999999607
        },
        {
          "name": "C#5",
          "midi": 73,
          "time": 69.59997100000074,
          "velocity": 0.7952755905511811,
          "duration": 1.3714279999998809
        },
        {
          "name": "A#4",
          "midi": 70,
          "time": 70.97139900000062,
          "velocity": 0.8110236220472441,
          "duration": 1.3714279999998524
        },
        {
          "name": "F#5",
          "midi": 78,
          "time": 72.34282700000047,
          "velocity": 0.8188976377952756,
          "duration": 1.3714279999999377
        },
        {
          "name": "F5",
          "midi": 77,
          "time": 73.7142550000004,
          "velocity": 0.8346456692913385,
          "duration": 1.3714279999999093
        },
        {
          "name": "D#5",
          "midi": 75,
          "time": 75.08568300000032,
          "velocity": 0.8188976377952756,
          "duration": 1.1999994999999615
        },
        {
          "name": "D#5",
          "midi": 75,
          "time": 76.28568250000028,
          "velocity": 0.7874015748031497,
          "duration": 0.8571424999999522
        },
        {
          "name": "A#4",
          "midi": 70,
          "time": 77.14282500000023,
          "velocity": 0.8110236220472441,
          "duration": 0.6857139999998907
        },
        {
          "name": "A#4",
          "midi": 70,
          "time": 77.82853900000012,
          "velocity": 0.8031496062992126,
          "duration": 1.3714279999999661
        },
        {
          "name": "G#4",
          "midi": 68,
          "time": 79.19996700000009,
          "velocity": 0.8188976377952756,
          "duration": 0.34285699999995245
        },
        {
          "name": "C#5",
          "midi": 73,
          "time": 79.71425250000004,
          "velocity": 0.7874015748031497,
          "duration": 0.17142850000000465
        },
        {
          "name": "G#4",
          "midi": 68,
          "time": 80.05710950000004,
          "velocity": 0.8031496062992126,
          "duration": 0.17142849999999044
        },
        {
          "name": "G#4",
          "midi": 68,
          "time": 80.39996649999999,
          "velocity": 0.8346456692913385,
          "duration": 1.5428564999999423
        },
        {
          "name": "A#4",
          "midi": 70,
          "time": 81.94282299999993,
          "velocity": 0.8188976377952756,
          "duration": 1.3714279999999661
        },
        {
          "name": "B4",
          "midi": 71,
          "time": 83.3142509999999,
          "velocity": 0.8110236220472441,
          "duration": 1.1999994999999188
        },
        {
          "name": "A#4",
          "midi": 70,
          "time": 84.51425049999982,
          "velocity": 0.8031496062992126,
          "duration": 0.08571424999999522
        },
        {
          "name": "B4",
          "midi": 71,
          "time": 84.59996474999981,
          "velocity": 0.7874015748031497,
          "duration": 0.08571424999998101
        },
        {
          "name": "C#5",
          "midi": 73,
          "time": 84.6856789999998,
          "velocity": 0.7874015748031497,
          "duration": 1.1999994999999473
        },
        {
          "name": "B4",
          "midi": 71,
          "time": 85.88567849999974,
          "velocity": 0.7874015748031497,
          "duration": 0.08571424999998101
        },
        {
          "name": "C#5",
          "midi": 73,
          "time": 85.97139274999972,
          "velocity": 0.7952755905511811,
          "duration": 0.08571424999999522
        },
        {
          "name": "D#5",
          "midi": 75,
          "time": 86.05710699999972,
          "velocity": 0.7952755905511811,
          "duration": 1.3714279999999093
        },
        {
          "name": "G#5",
          "midi": 80,
          "time": 87.42853499999963,
          "velocity": 0.8110236220472441,
          "duration": 1.3714279999999945
        }
      ],
      "controlChanges": {
        "1": [
          {
            "number": 1,
            "time": 12.210709197916707,
            "value": 0.015748031496062992
          },
          {
            "number": 1,
            "time": 12.228566333333374,
            "value": 0.07086614173228346
          },
          {
            "number": 1,
            "time": 12.246423468750042,
            "value": 0.13385826771653545
          },
          {
            "number": 1,
            "time": 12.264280604166709,
            "value": 0.2047244094488189
          },
          {
            "number": 1,
            "time": 12.282137739583376,
            "value": 0.2677165354330709
          },
          {
            "number": 1,
            "time": 12.299994875000044,
            "value": 0.3228346456692913
          },
          {
            "number": 1,
            "time": 12.317852010416711,
            "value": 0.3779527559055118
          },
          {
            "number": 1,
            "time": 12.335709145833379,
            "value": 0.4094488188976378
          },
          {
            "number": 1,
            "time": 12.354280566666713,
            "value": 0.4251968503937008
          },
          {
            "number": 1,
            "time": 12.37213770208338,
            "value": 0.44881889763779526
          },
          {
            "number": 1,
            "time": 12.389994837500048,
            "value": 0.4645669291338583
          },
          {
            "number": 1,
            "time": 12.407851972916715,
            "value": 0.48031496062992124
          },
          {
            "number": 1,
            "time": 12.425709108333383,
            "value": 0.4881889763779528
          },
          {
            "number": 1,
            "time": 12.462137664583382,
            "value": 0.49606299212598426
          },
          {
            "number": 1,
            "time": 12.877137491666716,
            "value": 0.4881889763779528
          },
          {
            "number": 1,
            "time": 12.894994627083383,
            "value": 0.4330708661417323
          },
          {
            "number": 1,
            "time": 12.91285176250005,
            "value": 0.3779527559055118
          },
          {
            "number": 1,
            "time": 12.930708897916718,
            "value": 0.30708661417322836
          },
          {
            "number": 1,
            "time": 12.948566033333385,
            "value": 0.2283464566929134
          },
          {
            "number": 1,
            "time": 12.966423168750053,
            "value": 0.14173228346456693
          },
          {
            "number": 1,
            "time": 12.984994589583387,
            "value": 0.06299212598425197
          },
          {
            "number": 1,
            "time": 13.002851725000054,
            "value": 0
          },
          {
            "number": 1,
            "time": 16.162850408333387,
            "value": 0.031496062992125984
          },
          {
            "number": 1,
            "time": 16.180707543750053,
            "value": 0.047244094488188976
          },
          {
            "number": 1,
            "time": 16.199278964583385,
            "value": 0.08661417322834646
          },
          {
            "number": 1,
            "time": 16.21713610000005,
            "value": 0.12598425196850394
          },
          {
            "number": 1,
            "time": 16.234993235416717,
            "value": 0.16535433070866143
          },
          {
            "number": 1,
            "time": 16.252850370833382,
            "value": 0.2047244094488189
          },
          {
            "number": 1,
            "time": 16.270707506250048,
            "value": 0.23622047244094488
          },
          {
            "number": 1,
            "time": 16.288564641666714,
            "value": 0.2677165354330709
          },
          {
            "number": 1,
            "time": 16.30642177708338,
            "value": 0.2992125984251969
          },
          {
            "number": 1,
            "time": 16.324278912500045,
            "value": 0.31496062992125984
          },
          {
            "number": 1,
            "time": 16.34213604791671,
            "value": 0.33070866141732286
          },
          {
            "number": 1,
            "time": 16.359993183333376,
            "value": 0.3464566929133858
          },
          {
            "number": 1,
            "time": 16.377850318750042,
            "value": 0.36220472440944884
          },
          {
            "number": 1,
            "time": 16.395707454166708,
            "value": 0.3700787401574803
          },
          {
            "number": 1,
            "time": 16.413564589583373,
            "value": 0.3858267716535433
          },
          {
            "number": 1,
            "time": 16.43142172500004,
            "value": 0.3937007874015748
          },
          {
            "number": 1,
            "time": 16.44999314583337,
            "value": 0.4094488188976378
          },
          {
            "number": 1,
            "time": 16.467850281250037,
            "value": 0.41732283464566927
          },
          {
            "number": 1,
            "time": 16.485707416666703,
            "value": 0.4251968503937008
          },
          {
            "number": 1,
            "time": 16.50356455208337,
            "value": 0.4409448818897638
          },
          {
            "number": 1,
            "time": 16.521421687500034,
            "value": 0.44881889763779526
          },
          {
            "number": 1,
            "time": 16.55713595833337,
            "value": 0.4566929133858268
          },
          {
            "number": 1,
            "time": 16.75427873333337,
            "value": 0.41732283464566927
          },
          {
            "number": 1,
            "time": 16.772135868750034,
            "value": 0.3464566929133858
          },
          {
            "number": 1,
            "time": 16.7899930041667,
            "value": 0.2440944881889764
          },
          {
            "number": 1,
            "time": 16.807850139583365,
            "value": 0.13385826771653545
          },
          {
            "number": 1,
            "time": 16.82570727500003,
            "value": 0.023622047244094488
          },
          {
            "number": 1,
            "time": 16.843564410416697,
            "value": 0
          },
          {
            "number": 1,
            "time": 17.634278366666692,
            "value": 0.015748031496062992
          },
          {
            "number": 1,
            "time": 17.652135502083357,
            "value": 0.031496062992125984
          },
          {
            "number": 1,
            "time": 17.669992637500023,
            "value": 0.06299212598425197
          },
          {
            "number": 1,
            "time": 17.688564058333355,
            "value": 0.09448818897637795
          },
          {
            "number": 1,
            "time": 17.70642119375002,
            "value": 0.14173228346456693
          },
          {
            "number": 1,
            "time": 17.724278329166687,
            "value": 0.1889763779527559
          },
          {
            "number": 1,
            "time": 17.742135464583352,
            "value": 0.23622047244094488
          },
          {
            "number": 1,
            "time": 17.759992600000018,
            "value": 0.28346456692913385
          },
          {
            "number": 1,
            "time": 17.777849735416684,
            "value": 0.33858267716535434
          },
          {
            "number": 1,
            "time": 17.79570687083335,
            "value": 0.3858267716535433
          },
          {
            "number": 1,
            "time": 17.813564006250015,
            "value": 0.4251968503937008
          },
          {
            "number": 1,
            "time": 17.83142114166668,
            "value": 0.4566929133858268
          },
          {
            "number": 1,
            "time": 17.849278277083346,
            "value": 0.47244094488188976
          },
          {
            "number": 1,
            "time": 17.867135412500012,
            "value": 0.4881889763779528
          },
          {
            "number": 1,
            "time": 17.884992547916678,
            "value": 0.49606299212598426
          },
          {
            "number": 1,
            "time": 18.40713518750001,
            "value": 0.4645669291338583
          },
          {
            "number": 1,
            "time": 18.425706608333343,
            "value": 0.4251968503937008
          },
          {
            "number": 1,
            "time": 18.44356374375001,
            "value": 0.3700787401574803
          },
          {
            "number": 1,
            "time": 18.461420879166674,
            "value": 0.2992125984251969
          },
          {
            "number": 1,
            "time": 18.47927801458334,
            "value": 0.2283464566929134
          },
          {
            "number": 1,
            "time": 18.497135150000005,
            "value": 0.13385826771653545
          },
          {
            "number": 1,
            "time": 18.51499228541667,
            "value": 0.047244094488188976
          },
          {
            "number": 1,
            "time": 18.532849420833337,
            "value": 0
          },
          {
            "number": 1,
            "time": 20.326420102083336,
            "value": 0
          },
          {
            "number": 1,
            "time": 20.344277237500002,
            "value": 0.015748031496062992
          },
          {
            "number": 1,
            "time": 20.362134372916668,
            "value": 0.05511811023622047
          },
          {
            "number": 1,
            "time": 20.379991508333333,
            "value": 0.08661417322834646
          },
          {
            "number": 1,
            "time": 20.39784864375,
            "value": 0.11023622047244094
          },
          {
            "number": 1,
            "time": 20.415705779166665,
            "value": 0.14173228346456693
          },
          {
            "number": 1,
            "time": 20.434277199999997,
            "value": 0.15748031496062992
          },
          {
            "number": 1,
            "time": 20.452134335416662,
            "value": 0.1732283464566929
          },
          {
            "number": 1,
            "time": 20.469991470833328,
            "value": 0.1889763779527559
          },
          {
            "number": 1,
            "time": 20.487848606249994,
            "value": 0.2047244094488189
          },
          {
            "number": 1,
            "time": 20.50570574166666,
            "value": 0.2204724409448819
          },
          {
            "number": 1,
            "time": 20.523562877083325,
            "value": 0.23622047244094488
          },
          {
            "number": 1,
            "time": 20.54142001249999,
            "value": 0.25196850393700787
          },
          {
            "number": 1,
            "time": 20.559277147916657,
            "value": 0.2677165354330709
          },
          {
            "number": 1,
            "time": 20.577134283333322,
            "value": 0.28346456692913385
          },
          {
            "number": 1,
            "time": 20.594991418749988,
            "value": 0.30708661417322836
          },
          {
            "number": 1,
            "time": 20.612848554166654,
            "value": 0.3228346456692913
          },
          {
            "number": 1,
            "time": 20.63070568958332,
            "value": 0.33858267716535434
          },
          {
            "number": 1,
            "time": 20.648562824999985,
            "value": 0.3543307086614173
          },
          {
            "number": 1,
            "time": 20.66641996041665,
            "value": 0.3700787401574803
          },
          {
            "number": 1,
            "time": 20.684277095833316,
            "value": 0.3858267716535433
          },
          {
            "number": 1,
            "time": 20.705705658333315,
            "value": 0.4015748031496063
          },
          {
            "number": 1,
            "time": 20.72356279374998,
            "value": 0.4094488188976378
          },
          {
            "number": 1,
            "time": 20.741419929166646,
            "value": 0.41732283464566927
          },
          {
            "number": 1,
            "time": 20.759277064583312,
            "value": 0.4330708661417323
          },
          {
            "number": 1,
            "time": 20.794991335416647,
            "value": 0.4409448818897638
          },
          {
            "number": 1,
            "time": 20.830705606249982,
            "value": 0.44881889763779526
          },
          {
            "number": 1,
            "time": 20.884277012499982,
            "value": 0.4566929133858268
          },
          {
            "number": 1,
            "time": 20.93856270416665,
            "value": 0.47244094488188976
          },
          {
            "number": 1,
            "time": 20.99213411041665,
            "value": 0.48031496062992124
          },
          {
            "number": 1,
            "time": 21.24284829166665,
            "value": 0.4881889763779528
          },
          {
            "number": 1,
            "time": 21.815705195833317,
            "value": 0.48031496062992124
          },
          {
            "number": 1,
            "time": 21.833562331249983,
            "value": 0.47244094488188976
          },
          {
            "number": 1,
            "time": 21.854276608333315,
            "value": 0.4566929133858268
          },
          {
            "number": 1,
            "time": 21.87213374374998,
            "value": 0.44881889763779526
          },
          {
            "number": 1,
            "time": 21.890705164583313,
            "value": 0.4409448818897638
          },
          {
            "number": 1,
            "time": 21.90856229999998,
            "value": 0.4330708661417323
          },
          {
            "number": 1,
            "time": 21.926419435416644,
            "value": 0.41732283464566927
          },
          {
            "number": 1,
            "time": 21.94427657083331,
            "value": 0.4015748031496063
          },
          {
            "number": 1,
            "time": 21.962133706249976,
            "value": 0.36220472440944884
          },
          {
            "number": 1,
            "time": 21.97999084166664,
            "value": 0.30708661417322836
          },
          {
            "number": 1,
            "time": 21.997847977083307,
            "value": 0.2283464566929134
          },
          {
            "number": 1,
            "time": 22.015705112499973,
            "value": 0.12598425196850394
          },
          {
            "number": 1,
            "time": 22.033562247916638,
            "value": 0.023622047244094488
          },
          {
            "number": 1,
            "time": 22.051419383333304,
            "value": 0
          }
        ],
        "7": [
          {
            "number": 7,
            "time": 0.8571425,
            "value": 0.7874015748031497
          }
        ],
        "10": [
          {
            "number": 10,
            "time": 0.8571425,
            "value": 0.3779527559055118
          }
        ],
        "11": [
          {
            "number": 11,
            "time": 9.613567422916667,
            "value": 0.29133858267716534
          },
          {
            "number": 11,
            "time": 9.631424558333334,
            "value": 0.30708661417322836
          },
          {
            "number": 11,
            "time": 9.649281693750002,
            "value": 0.31496062992125984
          },
          {
            "number": 11,
            "time": 9.667138829166669,
            "value": 0.33858267716535434
          },
          {
            "number": 11,
            "time": 9.684995964583337,
            "value": 0.3464566929133858
          },
          {
            "number": 11,
            "time": 9.702853100000004,
            "value": 0.3543307086614173
          },
          {
            "number": 11,
            "time": 9.720710235416671,
            "value": 0.36220472440944884
          },
          {
            "number": 11,
            "time": 9.738567370833339,
            "value": 0.3700787401574803
          },
          {
            "number": 11,
            "time": 9.756424506250006,
            "value": 0.3779527559055118
          },
          {
            "number": 11,
            "time": 9.79213877708334,
            "value": 0.3858267716535433
          },
          {
            "number": 11,
            "time": 9.827853047916673,
            "value": 0.3937007874015748
          },
          {
            "number": 11,
            "time": 9.884995881250006,
            "value": 0.4015748031496063
          },
          {
            "number": 11,
            "time": 9.902853016666674,
            "value": 0.4094488188976378
          },
          {
            "number": 11,
            "time": 9.920710152083341,
            "value": 0.4251968503937008
          },
          {
            "number": 11,
            "time": 9.938567287500009,
            "value": 0.4409448818897638
          },
          {
            "number": 11,
            "time": 9.956424422916676,
            "value": 0.44881889763779526
          },
          {
            "number": 11,
            "time": 9.974281558333344,
            "value": 0.4566929133858268
          },
          {
            "number": 11,
            "time": 9.992138693750011,
            "value": 0.4645669291338583
          },
          {
            "number": 11,
            "time": 10.009995829166678,
            "value": 0.47244094488188976
          },
          {
            "number": 11,
            "time": 10.027852964583346,
            "value": 0.48031496062992124
          },
          {
            "number": 11,
            "time": 10.045710100000013,
            "value": 0.4881889763779528
          },
          {
            "number": 11,
            "time": 10.06356723541668,
            "value": 0.49606299212598426
          },
          {
            "number": 11,
            "time": 10.117852927083348,
            "value": 0.5039370078740157
          },
          {
            "number": 11,
            "time": 10.153567197916681,
            "value": 0.5118110236220472
          },
          {
            "number": 11,
            "time": 10.189281468750014,
            "value": 0.5196850393700787
          },
          {
            "number": 11,
            "time": 10.207138604166682,
            "value": 0.5275590551181102
          },
          {
            "number": 11,
            "time": 10.224995739583349,
            "value": 0.5354330708661418
          },
          {
            "number": 11,
            "time": 10.242852875000017,
            "value": 0.5433070866141733
          },
          {
            "number": 11,
            "time": 10.260710010416684,
            "value": 0.5511811023622047
          },
          {
            "number": 11,
            "time": 10.278567145833351,
            "value": 0.5590551181102362
          },
          {
            "number": 11,
            "time": 10.296424281250019,
            "value": 0.5669291338582677
          },
          {
            "number": 11,
            "time": 10.314281416666686,
            "value": 0.5748031496062992
          },
          {
            "number": 11,
            "time": 10.38642424375002,
            "value": 0.5826771653543307
          },
          {
            "number": 11,
            "time": 10.422138514583352,
            "value": 0.5905511811023622
          },
          {
            "number": 11,
            "time": 10.475709920833353,
            "value": 0.5984251968503937
          },
          {
            "number": 11,
            "time": 10.49356705625002,
            "value": 0.6062992125984252
          },
          {
            "number": 11,
            "time": 10.511424191666688,
            "value": 0.6141732283464567
          },
          {
            "number": 11,
            "time": 10.529281327083355,
            "value": 0.6220472440944882
          },
          {
            "number": 11,
            "time": 10.547138462500023,
            "value": 0.6299212598425197
          },
          {
            "number": 11,
            "time": 10.56499559791669,
            "value": 0.6456692913385826
          },
          {
            "number": 11,
            "time": 10.582852733333358,
            "value": 0.6535433070866141
          },
          {
            "number": 11,
            "time": 10.601424154166692,
            "value": 0.6692913385826772
          },
          {
            "number": 11,
            "time": 10.619281289583359,
            "value": 0.6771653543307087
          },
          {
            "number": 11,
            "time": 10.637138425000026,
            "value": 0.6850393700787402
          },
          {
            "number": 11,
            "time": 10.67285269583336,
            "value": 0.6929133858267716
          },
          {
            "number": 11,
            "time": 10.708566966666693,
            "value": 0.7007874015748031
          },
          {
            "number": 11,
            "time": 10.744281237500026,
            "value": 0.7086614173228346
          },
          {
            "number": 11,
            "time": 10.762138372916693,
            "value": 0.7165354330708661
          },
          {
            "number": 11,
            "time": 10.815709779166692,
            "value": 0.7244094488188977
          },
          {
            "number": 11,
            "time": 10.83356691458336,
            "value": 0.7322834645669292
          },
          {
            "number": 11,
            "time": 10.86999547083336,
            "value": 0.7401574803149606
          },
          {
            "number": 11,
            "time": 10.887852606250027,
            "value": 0.7480314960629921
          },
          {
            "number": 11,
            "time": 10.941424012500027,
            "value": 0.7559055118110236
          },
          {
            "number": 11,
            "time": 10.97713828333336,
            "value": 0.7637795275590551
          },
          {
            "number": 11,
            "time": 11.012852554166694,
            "value": 0.7716535433070866
          },
          {
            "number": 11,
            "time": 11.051423966666693,
            "value": 0.7795275590551181
          },
          {
            "number": 11,
            "time": 11.087852522916693,
            "value": 0.7874015748031497
          },
          {
            "number": 11,
            "time": 11.10570965833336,
            "value": 0.7952755905511811
          },
          {
            "number": 11,
            "time": 11.141423929166693,
            "value": 0.8031496062992126
          },
          {
            "number": 11,
            "time": 11.15928106458336,
            "value": 0.8110236220472441
          },
          {
            "number": 11,
            "time": 11.177138200000028,
            "value": 0.8188976377952756
          },
          {
            "number": 11,
            "time": 11.194995335416696,
            "value": 0.8267716535433071
          },
          {
            "number": 11,
            "time": 11.212852470833363,
            "value": 0.8346456692913385
          },
          {
            "number": 11,
            "time": 11.23070960625003,
            "value": 0.84251968503937
          },
          {
            "number": 11,
            "time": 11.248566741666698,
            "value": 0.8503937007874016
          },
          {
            "number": 11,
            "time": 11.266423877083366,
            "value": 0.8582677165354331
          },
          {
            "number": 11,
            "time": 11.284281012500033,
            "value": 0.8661417322834646
          },
          {
            "number": 11,
            "time": 11.3021381479167,
            "value": 0.8740157480314961
          },
          {
            "number": 11,
            "time": 11.320709568750035,
            "value": 0.8818897637795275
          },
          {
            "number": 11,
            "time": 11.338566704166702,
            "value": 0.905511811023622
          },
          {
            "number": 11,
            "time": 11.35642383958337,
            "value": 0.9212598425196851
          },
          {
            "number": 11,
            "time": 11.374280975000037,
            "value": 0.9448818897637795
          },
          {
            "number": 11,
            "time": 11.392138110416704,
            "value": 0.968503937007874
          },
          {
            "number": 11,
            "time": 11.409995245833372,
            "value": 0.9921259842519685
          },
          {
            "number": 11,
            "time": 11.42785238125004,
            "value": 1
          },
          {
            "number": 11,
            "time": 22.971418999999972,
            "value": 0
          },
          {
            "number": 11,
            "time": 22.985704708333305,
            "value": 0.2047244094488189
          },
          {
            "number": 11,
            "time": 22.999990416666638,
            "value": 0.29133858267716534
          },
          {
            "number": 11,
            "time": 23.01427612499997,
            "value": 0.3543307086614173
          },
          {
            "number": 11,
            "time": 23.028561833333303,
            "value": 0.4015748031496063
          },
          {
            "number": 11,
            "time": 23.042847541666635,
            "value": 0.44881889763779526
          },
          {
            "number": 11,
            "time": 23.057133249999968,
            "value": 0.4881889763779528
          },
          {
            "number": 11,
            "time": 23.0714189583333,
            "value": 0.5275590551181102
          },
          {
            "number": 11,
            "time": 23.085704666666633,
            "value": 0.5590551181102362
          },
          {
            "number": 11,
            "time": 23.099990374999965,
            "value": 0.5905511811023622
          },
          {
            "number": 11,
            "time": 23.114276083333298,
            "value": 0.6141732283464567
          },
          {
            "number": 11,
            "time": 23.12856179166663,
            "value": 0.6377952755905512
          },
          {
            "number": 11,
            "time": 23.142847499999963,
            "value": 0.6692913385826772
          },
          {
            "number": 11,
            "time": 23.157133208333295,
            "value": 0.6850393700787402
          },
          {
            "number": 11,
            "time": 23.171418916666628,
            "value": 0.7086614173228346
          },
          {
            "number": 11,
            "time": 23.18570462499996,
            "value": 0.7322834645669292
          },
          {
            "number": 11,
            "time": 23.199990333333293,
            "value": 0.7480314960629921
          },
          {
            "number": 11,
            "time": 23.214276041666626,
            "value": 0.7637795275590551
          },
          {
            "number": 11,
            "time": 23.228561749999958,
            "value": 0.7874015748031497
          },
          {
            "number": 11,
            "time": 23.24284745833329,
            "value": 0.8031496062992126
          },
          {
            "number": 11,
            "time": 23.257133166666623,
            "value": 0.8188976377952756
          },
          {
            "number": 11,
            "time": 23.271418874999956,
            "value": 0.8346456692913385
          },
          {
            "number": 11,
            "time": 23.28570458333329,
            "value": 0.84251968503937
          },
          {
            "number": 11,
            "time": 23.29999029166662,
            "value": 0.8582677165354331
          },
          {
            "number": 11,
            "time": 23.314275999999953,
            "value": 0.8661417322834646
          },
          {
            "number": 11,
            "time": 23.328561708333286,
            "value": 0.8818897637795275
          },
          {
            "number": 11,
            "time": 23.34284741666662,
            "value": 0.889763779527559
          },
          {
            "number": 11,
            "time": 23.35713312499995,
            "value": 0.905511811023622
          },
          {
            "number": 11,
            "time": 23.371418833333284,
            "value": 0.9133858267716536
          },
          {
            "number": 11,
            "time": 23.385704541666616,
            "value": 0.9212598425196851
          },
          {
            "number": 11,
            "time": 23.39999024999995,
            "value": 0.9291338582677166
          },
          {
            "number": 11,
            "time": 23.41427595833328,
            "value": 0.937007874015748
          },
          {
            "number": 11,
            "time": 23.428561666666614,
            "value": 0.9448818897637795
          },
          {
            "number": 11,
            "time": 23.442847374999946,
            "value": 0.952755905511811
          },
          {
            "number": 11,
            "time": 23.45713308333328,
            "value": 0.9606299212598425
          },
          {
            "number": 11,
            "time": 23.47141879166661,
            "value": 0.968503937007874
          },
          {
            "number": 11,
            "time": 23.499990208333276,
            "value": 0.9763779527559056
          },
          {
            "number": 11,
            "time": 23.51427591666661,
            "value": 0.984251968503937
          },
          {
            "number": 11,
            "time": 23.542847333333274,
            "value": 0.9921259842519685
          },
          {
            "number": 11,
            "time": 23.57141874999994,
            "value": 1
          },
          {
            "number": 11,
            "time": 23.657132999999938,
            "value": 1
          },
          {
            "number": 11,
            "time": 23.92856145833327,
            "value": 0.9921259842519685
          },
          {
            "number": 11,
            "time": 24.028561416666605,
            "value": 0.984251968503937
          },
          {
            "number": 11,
            "time": 24.114275666666604,
            "value": 0.9763779527559056
          },
          {
            "number": 11,
            "time": 24.171418499999938,
            "value": 0.968503937007874
          },
          {
            "number": 11,
            "time": 24.242847041666604,
            "value": 0.9606299212598425
          },
          {
            "number": 11,
            "time": 24.285704166666605,
            "value": 0.952755905511811
          },
          {
            "number": 11,
            "time": 24.34284699999994,
            "value": 0.9448818897637795
          },
          {
            "number": 11,
            "time": 24.38570412499994,
            "value": 0.937007874015748
          },
          {
            "number": 11,
            "time": 24.42856124999994,
            "value": 0.9291338582677166
          },
          {
            "number": 11,
            "time": 24.471418374999942,
            "value": 0.9212598425196851
          },
          {
            "number": 11,
            "time": 24.499989791666607,
            "value": 0.9133858267716536
          },
          {
            "number": 11,
            "time": 24.54284691666661,
            "value": 0.905511811023622
          },
          {
            "number": 11,
            "time": 24.571418333333273,
            "value": 0.8976377952755905
          },
          {
            "number": 11,
            "time": 24.59998974999994,
            "value": 0.889763779527559
          },
          {
            "number": 11,
            "time": 24.628561166666604,
            "value": 0.8818897637795275
          },
          {
            "number": 11,
            "time": 24.65713258333327,
            "value": 0.8740157480314961
          },
          {
            "number": 11,
            "time": 24.685703999999934,
            "value": 0.8661417322834646
          },
          {
            "number": 11,
            "time": 24.7142754166666,
            "value": 0.8582677165354331
          },
          {
            "number": 11,
            "time": 24.742846833333264,
            "value": 0.8503937007874016
          },
          {
            "number": 11,
            "time": 24.77141824999993,
            "value": 0.84251968503937
          },
          {
            "number": 11,
            "time": 24.799989666666594,
            "value": 0.8346456692913385
          },
          {
            "number": 11,
            "time": 24.82856108333326,
            "value": 0.8267716535433071
          },
          {
            "number": 11,
            "time": 24.84284679166659,
            "value": 0.8188976377952756
          },
          {
            "number": 11,
            "time": 24.871418208333257,
            "value": 0.8110236220472441
          },
          {
            "number": 11,
            "time": 24.88570391666659,
            "value": 0.8031496062992126
          },
          {
            "number": 11,
            "time": 24.914275333333254,
            "value": 0.7952755905511811
          },
          {
            "number": 11,
            "time": 24.928561041666587,
            "value": 0.7874015748031497
          },
          {
            "number": 11,
            "time": 24.957132458333252,
            "value": 0.7795275590551181
          },
          {
            "number": 11,
            "time": 24.971418166666584,
            "value": 0.7716535433070866
          },
          {
            "number": 11,
            "time": 24.985703874999917,
            "value": 0.7637795275590551
          },
          {
            "number": 11,
            "time": 25.014275291666582,
            "value": 0.7559055118110236
          },
          {
            "number": 11,
            "time": 25.028560999999915,
            "value": 0.7480314960629921
          },
          {
            "number": 11,
            "time": 25.042846708333247,
            "value": 0.7401574803149606
          },
          {
            "number": 11,
            "time": 25.071418124999912,
            "value": 0.7322834645669292
          },
          {
            "number": 11,
            "time": 25.085703833333245,
            "value": 0.7244094488188977
          },
          {
            "number": 11,
            "time": 25.099989541666577,
            "value": 0.7165354330708661
          },
          {
            "number": 11,
            "time": 25.11427524999991,
            "value": 0.7086614173228346
          },
          {
            "number": 11,
            "time": 25.128560958333242,
            "value": 0.7007874015748031
          },
          {
            "number": 11,
            "time": 25.142846666666575,
            "value": 0.6929133858267716
          },
          {
            "number": 11,
            "time": 25.157132374999907,
            "value": 0.6850393700787402
          },
          {
            "number": 11,
            "time": 25.17141808333324,
            "value": 0.6771653543307087
          },
          {
            "number": 11,
            "time": 25.185703791666572,
            "value": 0.6692913385826772
          },
          {
            "number": 11,
            "time": 25.214275208333238,
            "value": 0.6535433070866141
          },
          {
            "number": 11,
            "time": 25.22856091666657,
            "value": 0.6456692913385826
          },
          {
            "number": 11,
            "time": 25.242846624999903,
            "value": 0.6377952755905512
          },
          {
            "number": 11,
            "time": 25.257132333333235,
            "value": 0.6299212598425197
          },
          {
            "number": 11,
            "time": 25.271418041666568,
            "value": 0.6220472440944882
          },
          {
            "number": 11,
            "time": 25.2857037499999,
            "value": 0.6141732283464567
          },
          {
            "number": 11,
            "time": 25.299989458333233,
            "value": 0.6062992125984252
          },
          {
            "number": 11,
            "time": 25.314275166666565,
            "value": 0.5984251968503937
          },
          {
            "number": 11,
            "time": 25.328560874999898,
            "value": 0.5905511811023622
          },
          {
            "number": 11,
            "time": 25.34284658333323,
            "value": 0.5748031496062992
          },
          {
            "number": 11,
            "time": 25.357132291666563,
            "value": 0.5669291338582677
          },
          {
            "number": 11,
            "time": 25.371417999999895,
            "value": 0.5590551181102362
          },
          {
            "number": 11,
            "time": 25.385703708333228,
            "value": 0.5433070866141733
          },
          {
            "number": 11,
            "time": 25.39998941666656,
            "value": 0.5354330708661418
          },
          {
            "number": 11,
            "time": 25.414275124999893,
            "value": 0.5275590551181102
          },
          {
            "number": 11,
            "time": 25.428560833333226,
            "value": 0.5118110236220472
          },
          {
            "number": 11,
            "time": 25.442846541666558,
            "value": 0.5039370078740157
          },
          {
            "number": 11,
            "time": 25.45713224999989,
            "value": 0.4881889763779528
          },
          {
            "number": 11,
            "time": 25.471417958333223,
            "value": 0.47244094488188976
          },
          {
            "number": 11,
            "time": 25.485703666666556,
            "value": 0.4645669291338583
          },
          {
            "number": 11,
            "time": 25.49998937499989,
            "value": 0.44881889763779526
          },
          {
            "number": 11,
            "time": 25.51427508333322,
            "value": 0.4330708661417323
          },
          {
            "number": 11,
            "time": 25.528560791666553,
            "value": 0.41732283464566927
          },
          {
            "number": 11,
            "time": 25.542846499999886,
            "value": 0.4015748031496063
          },
          {
            "number": 11,
            "time": 25.55713220833322,
            "value": 0.3858267716535433
          },
          {
            "number": 11,
            "time": 25.57141791666655,
            "value": 0.3700787401574803
          },
          {
            "number": 11,
            "time": 25.585703624999883,
            "value": 0.3543307086614173
          },
          {
            "number": 11,
            "time": 25.599989333333216,
            "value": 0.33070866141732286
          },
          {
            "number": 11,
            "time": 25.61427504166655,
            "value": 0.31496062992125984
          },
          {
            "number": 11,
            "time": 25.62856074999988,
            "value": 0.29133858267716534
          },
          {
            "number": 11,
            "time": 25.642846458333214,
            "value": 0.2677165354330709
          },
          {
            "number": 11,
            "time": 25.657132166666546,
            "value": 0.23622047244094488
          },
          {
            "number": 11,
            "time": 25.67141787499988,
            "value": 0.2047244094488189
          },
          {
            "number": 11,
            "time": 25.68570358333321,
            "value": 0.1732283464566929
          },
          {
            "number": 11,
            "time": 25.699989291666544,
            "value": 0.11811023622047244
          },
          {
            "number": 11,
            "time": 25.721417854166543,
            "value": 0
          },
          {
            "number": 11,
            "time": 25.828560666666544,
            "value": 1
          },
          {
            "number": 11,
            "time": 44.87998129999988,
            "value": 0.7637795275590551
          },
          {
            "number": 11,
            "time": 44.89783843541655,
            "value": 0.7716535433070866
          },
          {
            "number": 11,
            "time": 44.934266991666554,
            "value": 0.7795275590551181
          },
          {
            "number": 11,
            "time": 44.987838397916555,
            "value": 0.7874015748031497
          },
          {
            "number": 11,
            "time": 45.023552668749886,
            "value": 0.7952755905511811
          },
          {
            "number": 11,
            "time": 45.07712407499989,
            "value": 0.8031496062992126
          },
          {
            "number": 11,
            "time": 45.11283834583322,
            "value": 0.8110236220472441
          },
          {
            "number": 11,
            "time": 45.14855261666655,
            "value": 0.8188976377952756
          },
          {
            "number": 11,
            "time": 45.16640975208322,
            "value": 0.8267716535433071
          },
          {
            "number": 11,
            "time": 45.22069544374988,
            "value": 0.8346456692913385
          },
          {
            "number": 11,
            "time": 45.23855257916655,
            "value": 0.84251968503937
          },
          {
            "number": 11,
            "time": 45.32783825624988,
            "value": 0.8503937007874016
          },
          {
            "number": 11,
            "time": 45.417123933333215,
            "value": 0.8582677165354331
          },
          {
            "number": 11,
            "time": 45.45355248958322,
            "value": 0.8661417322834646
          },
          {
            "number": 11,
            "time": 45.50712389583322,
            "value": 0.8740157480314961
          },
          {
            "number": 11,
            "time": 45.52498103124989,
            "value": 0.8818897637795275
          },
          {
            "number": 11,
            "time": 45.56069530208322,
            "value": 0.889763779527559
          },
          {
            "number": 11,
            "time": 45.59640957291655,
            "value": 0.8976377952755905
          },
          {
            "number": 11,
            "time": 45.64998097916655,
            "value": 0.905511811023622
          },
          {
            "number": 11,
            "time": 45.70712381249988,
            "value": 0.9133858267716536
          },
          {
            "number": 11,
            "time": 45.77855235416655,
            "value": 0.9212598425196851
          },
          {
            "number": 11,
            "time": 45.81426662499988,
            "value": 0.9291338582677166
          },
          {
            "number": 11,
            "time": 45.90426658749988,
            "value": 0.937007874015748
          },
          {
            "number": 11,
            "time": 45.993552264583215,
            "value": 0.9448818897637795
          },
          {
            "number": 11,
            "time": 46.047123670833216,
            "value": 0.952755905511811
          },
          {
            "number": 11,
            "time": 46.100695077083216,
            "value": 0.9606299212598425
          },
          {
            "number": 11,
            "time": 46.13640934791655,
            "value": 0.968503937007874
          },
          {
            "number": 11,
            "time": 46.17283790416655,
            "value": 0.9763779527559056
          },
          {
            "number": 11,
            "time": 46.19069503958322,
            "value": 0.984251968503937
          },
          {
            "number": 11,
            "time": 46.22640931041655,
            "value": 0.9921259842519685
          },
          {
            "number": 11,
            "time": 46.42355208541655,
            "value": 1
          },
          {
            "number": 11,
            "time": 46.65569484583322,
            "value": 0.9921259842519685
          },
          {
            "number": 11,
            "time": 46.67426626666655,
            "value": 0.984251968503937
          },
          {
            "number": 11,
            "time": 46.69212340208322,
            "value": 0.9763779527559056
          },
          {
            "number": 11,
            "time": 46.70998053749989,
            "value": 0.9606299212598425
          },
          {
            "number": 11,
            "time": 46.72783767291656,
            "value": 0.9448818897637795
          },
          {
            "number": 11,
            "time": 46.745694808333226,
            "value": 0.937007874015748
          },
          {
            "number": 11,
            "time": 46.763551943749896,
            "value": 0.9291338582677166
          },
          {
            "number": 11,
            "time": 46.781409079166565,
            "value": 0.9212598425196851
          },
          {
            "number": 11,
            "time": 46.799266214583234,
            "value": 0.9133858267716536
          },
          {
            "number": 11,
            "time": 46.8171233499999,
            "value": 0.905511811023622
          },
          {
            "number": 11,
            "time": 46.83783762708324,
            "value": 0.8818897637795275
          },
          {
            "number": 11,
            "time": 46.85569476249991,
            "value": 0.8740157480314961
          },
          {
            "number": 11,
            "time": 46.87355189791658,
            "value": 0.8582677165354331
          },
          {
            "number": 11,
            "time": 46.89212331874991,
            "value": 0.8503937007874016
          },
          {
            "number": 11,
            "time": 46.90998045416658,
            "value": 0.8267716535433071
          },
          {
            "number": 11,
            "time": 46.92783758958325,
            "value": 0.8110236220472441
          },
          {
            "number": 11,
            "time": 46.94569472499992,
            "value": 0.7952755905511811
          },
          {
            "number": 11,
            "time": 46.96355186041659,
            "value": 0.7795275590551181
          },
          {
            "number": 11,
            "time": 46.981408995833256,
            "value": 0.7716535433070866
          },
          {
            "number": 11,
            "time": 46.999266131249925,
            "value": 0.7480314960629921
          },
          {
            "number": 11,
            "time": 47.017123266666594,
            "value": 0.7401574803149606
          },
          {
            "number": 11,
            "time": 47.034980402083264,
            "value": 0.7322834645669292
          },
          {
            "number": 11,
            "time": 47.05283753749993,
            "value": 0.7244094488188977
          },
          {
            "number": 11,
            "time": 47.0706946729166,
            "value": 0.7165354330708661
          },
          {
            "number": 11,
            "time": 47.08855180833327,
            "value": 0.7086614173228346
          },
          {
            "number": 11,
            "time": 47.10640894374994,
            "value": 0.7007874015748031
          },
          {
            "number": 11,
            "time": 47.12426607916661,
            "value": 0.6850393700787402
          },
          {
            "number": 11,
            "time": 47.14212321458328,
            "value": 0.6771653543307087
          },
          {
            "number": 11,
            "time": 47.16069463541661,
            "value": 0.6692913385826772
          },
          {
            "number": 11,
            "time": 47.19640890624994,
            "value": 0.6614173228346457
          },
          {
            "number": 11,
            "time": 47.21426604166661,
            "value": 0.6535433070866141
          },
          {
            "number": 11,
            "time": 47.23212317708328,
            "value": 0.6456692913385826
          },
          {
            "number": 11,
            "time": 47.24998031249995,
            "value": 0.6377952755905512
          },
          {
            "number": 11,
            "time": 47.26783744791662,
            "value": 0.6299212598425197
          },
          {
            "number": 11,
            "time": 47.28569458333329,
            "value": 0.6141732283464567
          },
          {
            "number": 11,
            "time": 47.30355171874996,
            "value": 0.6062992125984252
          },
          {
            "number": 11,
            "time": 47.32140885416663,
            "value": 0.5984251968503937
          },
          {
            "number": 11,
            "time": 47.339265989583296,
            "value": 0.5905511811023622
          },
          {
            "number": 11,
            "time": 47.41140881666663,
            "value": 0.5984251968503937
          },
          {
            "number": 11,
            "time": 47.4292659520833,
            "value": 0.6062992125984252
          },
          {
            "number": 11,
            "time": 47.44712308749997,
            "value": 0.6299212598425197
          },
          {
            "number": 11,
            "time": 47.46498022291664,
            "value": 0.6377952755905512
          },
          {
            "number": 11,
            "time": 47.482837358333306,
            "value": 0.6456692913385826
          },
          {
            "number": 11,
            "time": 47.500694493749975,
            "value": 0.6535433070866141
          },
          {
            "number": 11,
            "time": 47.518551629166645,
            "value": 0.6692913385826772
          },
          {
            "number": 11,
            "time": 47.536408764583314,
            "value": 0.6850393700787402
          },
          {
            "number": 11,
            "time": 47.55426589999998,
            "value": 0.6929133858267716
          },
          {
            "number": 11,
            "time": 47.57212303541665,
            "value": 0.7165354330708661
          },
          {
            "number": 11,
            "time": 47.58998017083332,
            "value": 0.7244094488188977
          },
          {
            "number": 11,
            "time": 47.60783730624999,
            "value": 0.7322834645669292
          },
          {
            "number": 11,
            "time": 47.62569444166666,
            "value": 0.7401574803149606
          },
          {
            "number": 11,
            "time": 47.64355157708333,
            "value": 0.7480314960629921
          },
          {
            "number": 11,
            "time": 47.66212299791667,
            "value": 0.7559055118110236
          },
          {
            "number": 11,
            "time": 47.67998013333334,
            "value": 0.7637795275590551
          },
          {
            "number": 11,
            "time": 47.73355153958334,
            "value": 0.7716535433070866
          },
          {
            "number": 11,
            "time": 47.75140867500001,
            "value": 0.7795275590551181
          },
          {
            "number": 11,
            "time": 47.78712294583334,
            "value": 0.7874015748031497
          },
          {
            "number": 11,
            "time": 47.80498008125001,
            "value": 0.7952755905511811
          },
          {
            "number": 11,
            "time": 47.84069435208334,
            "value": 0.8031496062992126
          },
          {
            "number": 11,
            "time": 47.87640862291667,
            "value": 0.8110236220472441
          },
          {
            "number": 11,
            "time": 47.91212289375,
            "value": 0.8188976377952756
          },
          {
            "number": 11,
            "time": 47.9871228625,
            "value": 0.8267716535433071
          },
          {
            "number": 11,
            "time": 48.02283713333333,
            "value": 0.8346456692913385
          },
          {
            "number": 11,
            "time": 48.112122810416665,
            "value": 0.84251968503937
          },
          {
            "number": 11,
            "time": 48.13069423125,
            "value": 0.8503937007874016
          },
          {
            "number": 11,
            "time": 48.21997990833333,
            "value": 0.8582677165354331
          },
          {
            "number": 11,
            "time": 48.25569417916666,
            "value": 0.8661417322834646
          },
          {
            "number": 11,
            "time": 48.32712272083333,
            "value": 0.8740157480314961
          },
          {
            "number": 11,
            "time": 48.38069412708333,
            "value": 0.8818897637795275
          },
          {
            "number": 11,
            "time": 48.41712268333333,
            "value": 0.889763779527559
          },
          {
            "number": 11,
            "time": 48.43497981875,
            "value": 0.8976377952755905
          },
          {
            "number": 11,
            "time": 48.47069408958333,
            "value": 0.905511811023622
          },
          {
            "number": 11,
            "time": 48.506408360416664,
            "value": 0.9133858267716536
          },
          {
            "number": 11,
            "time": 48.559979766666665,
            "value": 0.9212598425196851
          },
          {
            "number": 11,
            "time": 48.577836902083334,
            "value": 0.9291338582677166
          },
          {
            "number": 11,
            "time": 48.64997972916667,
            "value": 0.937007874015748
          },
          {
            "number": 11,
            "time": 48.667836864583336,
            "value": 0.9448818897637795
          },
          {
            "number": 11,
            "time": 48.77497967708334,
            "value": 0.952755905511811
          },
          {
            "number": 11,
            "time": 48.84640821875001,
            "value": 0.9606299212598425
          },
          {
            "number": 11,
            "time": 48.88212248958334,
            "value": 0.968503937007874
          },
          {
            "number": 11,
            "time": 48.90069391041667,
            "value": 0.9763779527559056
          },
          {
            "number": 11,
            "time": 48.91855104583334,
            "value": 0.984251968503937
          },
          {
            "number": 11,
            "time": 48.93640818125001,
            "value": 0.9921259842519685
          },
          {
            "number": 11,
            "time": 49.04355099375001,
            "value": 1
          },
          {
            "number": 11,
            "time": 49.458550820833345,
            "value": 0.9921259842519685
          },
          {
            "number": 11,
            "time": 49.476407956250014,
            "value": 0.984251968503937
          },
          {
            "number": 11,
            "time": 49.49426509166668,
            "value": 0.9763779527559056
          },
          {
            "number": 11,
            "time": 49.51212222708335,
            "value": 0.9606299212598425
          },
          {
            "number": 11,
            "time": 49.52855079166669,
            "value": 0.9448818897637795
          },
          {
            "number": 11,
            "time": 49.54783649791669,
            "value": 0.9291338582677166
          },
          {
            "number": 11,
            "time": 49.56569363333336,
            "value": 0.905511811023622
          },
          {
            "number": 11,
            "time": 49.58355076875003,
            "value": 0.889763779527559
          },
          {
            "number": 11,
            "time": 49.6014079041667,
            "value": 0.8740157480314961
          },
          {
            "number": 11,
            "time": 49.61926503958337,
            "value": 0.8503937007874016
          },
          {
            "number": 11,
            "time": 49.6378364604167,
            "value": 0.8346456692913385
          },
          {
            "number": 11,
            "time": 49.65569359583337,
            "value": 0.8267716535433071
          },
          {
            "number": 11,
            "time": 49.67355073125004,
            "value": 0.8188976377952756
          },
          {
            "number": 11,
            "time": 49.69140786666671,
            "value": 0.8031496062992126
          },
          {
            "number": 11,
            "time": 49.70926500208338,
            "value": 0.7952755905511811
          },
          {
            "number": 11,
            "time": 49.72712213750005,
            "value": 0.7874015748031497
          },
          {
            "number": 11,
            "time": 49.744979272916716,
            "value": 0.7795275590551181
          },
          {
            "number": 11,
            "time": 49.762836408333385,
            "value": 0.7716535433070866
          },
          {
            "number": 11,
            "time": 49.780693543750054,
            "value": 0.7637795275590551
          },
          {
            "number": 11,
            "time": 49.79855067916672,
            "value": 0.7559055118110236
          },
          {
            "number": 11,
            "time": 49.81640781458339,
            "value": 0.7480314960629921
          },
          {
            "number": 11,
            "time": 49.83426495000006,
            "value": 0.7401574803149606
          },
          {
            "number": 11,
            "time": 49.85212208541673,
            "value": 0.7322834645669292
          },
          {
            "number": 11,
            "time": 49.8699792208334,
            "value": 0.7244094488188977
          },
          {
            "number": 11,
            "time": 49.88855064166673,
            "value": 0.7086614173228346
          },
          {
            "number": 11,
            "time": 49.9064077770834,
            "value": 0.7007874015748031
          },
          {
            "number": 11,
            "time": 49.92426491250007,
            "value": 0.6929133858267716
          },
          {
            "number": 11,
            "time": 49.94212204791674,
            "value": 0.6850393700787402
          },
          {
            "number": 11,
            "time": 49.95997918333341,
            "value": 0.6771653543307087
          },
          {
            "number": 11,
            "time": 49.97783631875008,
            "value": 0.6692913385826772
          },
          {
            "number": 11,
            "time": 49.99569345416675,
            "value": 0.6614173228346457
          },
          {
            "number": 11,
            "time": 50.01355058958342,
            "value": 0.6535433070866141
          },
          {
            "number": 11,
            "time": 50.031407725000086,
            "value": 0.6456692913385826
          },
          {
            "number": 11,
            "time": 50.049264860416756,
            "value": 0.6377952755905512
          },
          {
            "number": 11,
            "time": 50.067121995833425,
            "value": 0.6299212598425197
          },
          {
            "number": 11,
            "time": 50.356407589583426,
            "value": 0.6456692913385826
          },
          {
            "number": 11,
            "time": 50.37497901041676,
            "value": 0.6614173228346457
          },
          {
            "number": 11,
            "time": 50.39283614583343,
            "value": 0.6692913385826772
          },
          {
            "number": 11,
            "time": 50.40997899583343,
            "value": 0.6771653543307087
          },
          {
            "number": 11,
            "time": 50.427121845833426,
            "value": 0.6850393700787402
          },
          {
            "number": 11,
            "time": 50.44640755208343,
            "value": 0.6929133858267716
          },
          {
            "number": 11,
            "time": 50.46355040208343,
            "value": 0.7007874015748031
          },
          {
            "number": 11,
            "time": 50.48212182291676,
            "value": 0.7165354330708661
          },
          {
            "number": 11,
            "time": 50.498550387500096,
            "value": 0.7244094488188977
          },
          {
            "number": 11,
            "time": 50.53569322916676,
            "value": 0.7322834645669292
          },
          {
            "number": 11,
            "time": 50.55355036458343,
            "value": 0.7401574803149606
          },
          {
            "number": 11,
            "time": 50.5714075000001,
            "value": 0.7480314960629921
          },
          {
            "number": 11,
            "time": 50.58926463541677,
            "value": 0.7559055118110236
          },
          {
            "number": 11,
            "time": 50.64283604166677,
            "value": 0.7637795275590551
          },
          {
            "number": 11,
            "time": 50.6614074625001,
            "value": 0.7716535433070866
          },
          {
            "number": 11,
            "time": 50.69712173333343,
            "value": 0.7795275590551181
          },
          {
            "number": 11,
            "time": 50.7149788687501,
            "value": 0.7874015748031497
          },
          {
            "number": 11,
            "time": 50.73283600416677,
            "value": 0.7952755905511811
          },
          {
            "number": 11,
            "time": 50.7685502750001,
            "value": 0.8031496062992126
          },
          {
            "number": 11,
            "time": 50.78640741041677,
            "value": 0.8110236220472441
          },
          {
            "number": 11,
            "time": 50.8221216812501,
            "value": 0.8188976377952756
          },
          {
            "number": 11,
            "time": 50.83997881666677,
            "value": 0.8267716535433071
          },
          {
            "number": 11,
            "time": 50.894264508333436,
            "value": 0.8346456692913385
          },
          {
            "number": 11,
            "time": 50.912121643750105,
            "value": 0.84251968503937
          },
          {
            "number": 11,
            "time": 50.965693050000105,
            "value": 0.8503937007874016
          },
          {
            "number": 11,
            "time": 51.00140732083344,
            "value": 0.8582677165354331
          },
          {
            "number": 11,
            "time": 51.03712159166677,
            "value": 0.8661417322834646
          },
          {
            "number": 11,
            "time": 51.05497872708344,
            "value": 0.8740157480314961
          },
          {
            "number": 11,
            "time": 51.072835862500106,
            "value": 0.8818897637795275
          },
          {
            "number": 11,
            "time": 51.10855013333344,
            "value": 0.889763779527559
          },
          {
            "number": 11,
            "time": 51.14497868958344,
            "value": 0.8976377952755905
          },
          {
            "number": 11,
            "time": 51.18069296041677,
            "value": 0.905511811023622
          },
          {
            "number": 11,
            "time": 51.19855009583344,
            "value": 0.9133858267716536
          },
          {
            "number": 11,
            "time": 51.28783577291677,
            "value": 0.9212598425196851
          },
          {
            "number": 11,
            "time": 51.30569290833344,
            "value": 0.9291338582677166
          },
          {
            "number": 11,
            "time": 51.35926431458344,
            "value": 0.937007874015748
          },
          {
            "number": 11,
            "time": 51.37712145000011,
            "value": 0.9448818897637795
          },
          {
            "number": 11,
            "time": 51.81140698333344,
            "value": 0.937007874015748
          },
          {
            "number": 11,
            "time": 51.82783554791678,
            "value": 0.9291338582677166
          },
          {
            "number": 11,
            "time": 51.84426411250011,
            "value": 0.905511811023622
          },
          {
            "number": 11,
            "time": 51.86497838958345,
            "value": 0.889763779527559
          },
          {
            "number": 11,
            "time": 51.88283552500012,
            "value": 0.8818897637795275
          },
          {
            "number": 11,
            "time": 51.90069266041679,
            "value": 0.8740157480314961
          },
          {
            "number": 11,
            "time": 51.91854979583346,
            "value": 0.8661417322834646
          },
          {
            "number": 11,
            "time": 51.936406931250126,
            "value": 0.8582677165354331
          },
          {
            "number": 11,
            "time": 51.954264066666795,
            "value": 0.8503937007874016
          },
          {
            "number": 11,
            "time": 51.972121202083464,
            "value": 0.84251968503937
          },
          {
            "number": 11,
            "time": 51.98997833750013,
            "value": 0.8346456692913385
          },
          {
            "number": 11,
            "time": 52.0078354729168,
            "value": 0.8267716535433071
          },
          {
            "number": 11,
            "time": 52.026406893750135,
            "value": 0.8110236220472441
          },
          {
            "number": 11,
            "time": 52.044264029166804,
            "value": 0.8031496062992126
          },
          {
            "number": 11,
            "time": 52.06212116458347,
            "value": 0.7952755905511811
          },
          {
            "number": 11,
            "time": 52.07997830000014,
            "value": 0.7874015748031497
          },
          {
            "number": 11,
            "time": 52.09783543541681,
            "value": 0.7795275590551181
          },
          {
            "number": 11,
            "time": 52.11569257083348,
            "value": 0.7716535433070866
          },
          {
            "number": 11,
            "time": 52.277121075000146,
            "value": 0.7952755905511811
          },
          {
            "number": 11,
            "time": 52.294978210416815,
            "value": 0.8031496062992126
          },
          {
            "number": 11,
            "time": 52.312835345833484,
            "value": 0.8110236220472441
          },
          {
            "number": 11,
            "time": 52.33069248125015,
            "value": 0.8188976377952756
          },
          {
            "number": 11,
            "time": 52.34854961666682,
            "value": 0.8267716535433071
          },
          {
            "number": 11,
            "time": 52.36640675208349,
            "value": 0.8346456692913385
          },
          {
            "number": 11,
            "time": 52.38426388750016,
            "value": 0.84251968503937
          },
          {
            "number": 11,
            "time": 52.40212102291683,
            "value": 0.8503937007874016
          },
          {
            "number": 11,
            "time": 52.4199781583335,
            "value": 0.8582677165354331
          },
          {
            "number": 11,
            "time": 52.43783529375017,
            "value": 0.8661417322834646
          },
          {
            "number": 11,
            "time": 52.45569242916684,
            "value": 0.8740157480314961
          },
          {
            "number": 11,
            "time": 52.47354956458351,
            "value": 0.8818897637795275
          },
          {
            "number": 11,
            "time": 52.49140670000018,
            "value": 0.889763779527559
          },
          {
            "number": 11,
            "time": 52.509263835416846,
            "value": 0.8976377952755905
          },
          {
            "number": 11,
            "time": 52.527120970833515,
            "value": 0.905511811023622
          },
          {
            "number": 11,
            "time": 52.56354952708352,
            "value": 0.9133858267716536
          },
          {
            "number": 11,
            "time": 52.581406662500186,
            "value": 0.9212598425196851
          },
          {
            "number": 11,
            "time": 52.599263797916855,
            "value": 0.9291338582677166
          },
          {
            "number": 11,
            "time": 52.617120933333524,
            "value": 0.937007874015748
          },
          {
            "number": 11,
            "time": 52.652835204166855,
            "value": 0.9448818897637795
          },
          {
            "number": 11,
            "time": 52.670692339583525,
            "value": 0.9606299212598425
          },
          {
            "number": 11,
            "time": 52.707120895833526,
            "value": 0.968503937007874
          },
          {
            "number": 11,
            "time": 52.724263745833525,
            "value": 0.9763779527559056
          },
          {
            "number": 11,
            "time": 52.88569225000019,
            "value": 0.952755905511811
          },
          {
            "number": 11,
            "time": 52.90354938541686,
            "value": 0.9291338582677166
          },
          {
            "number": 11,
            "time": 52.92140652083353,
            "value": 0.8976377952755905
          },
          {
            "number": 11,
            "time": 52.9392636562502,
            "value": 0.8661417322834646
          },
          {
            "number": 11,
            "time": 52.95712079166687,
            "value": 0.8346456692913385
          },
          {
            "number": 11,
            "time": 52.974977927083536,
            "value": 0.8110236220472441
          },
          {
            "number": 11,
            "time": 52.992835062500205,
            "value": 0.7874015748031497
          },
          {
            "number": 11,
            "time": 53.014263625000204,
            "value": 0.7795275590551181
          },
          {
            "number": 11,
            "time": 53.03212076041687,
            "value": 0.7716535433070866
          },
          {
            "number": 11,
            "time": 53.04997789583354,
            "value": 0.7637795275590551
          },
          {
            "number": 11,
            "time": 53.192834979166875,
            "value": 0.7716535433070866
          },
          {
            "number": 11,
            "time": 53.210692114583544,
            "value": 0.7795275590551181
          },
          {
            "number": 11,
            "time": 53.22854925000021,
            "value": 0.7874015748031497
          },
          {
            "number": 11,
            "time": 53.24640638541688,
            "value": 0.7952755905511811
          },
          {
            "number": 11,
            "time": 53.264977806250215,
            "value": 0.8188976377952756
          },
          {
            "number": 11,
            "time": 53.282834941666884,
            "value": 0.8267716535433071
          },
          {
            "number": 11,
            "time": 53.30069207708355,
            "value": 0.8346456692913385
          },
          {
            "number": 11,
            "time": 53.31854921250022,
            "value": 0.84251968503937
          },
          {
            "number": 11,
            "time": 53.33640634791689,
            "value": 0.8503937007874016
          },
          {
            "number": 11,
            "time": 53.35426348333356,
            "value": 0.8582677165354331
          },
          {
            "number": 11,
            "time": 53.37212061875023,
            "value": 0.8661417322834646
          },
          {
            "number": 11,
            "time": 53.3899777541669,
            "value": 0.8740157480314961
          },
          {
            "number": 11,
            "time": 53.42569202500023,
            "value": 0.8818897637795275
          },
          {
            "number": 11,
            "time": 53.46140629583356,
            "value": 0.889763779527559
          },
          {
            "number": 11,
            "time": 53.47926343125023,
            "value": 0.8976377952755905
          },
          {
            "number": 11,
            "time": 53.533549122916895,
            "value": 0.905511811023622
          },
          {
            "number": 11,
            "time": 53.551406258333564,
            "value": 0.9133858267716536
          },
          {
            "number": 11,
            "time": 53.587120529166896,
            "value": 0.9212598425196851
          },
          {
            "number": 11,
            "time": 53.604977664583565,
            "value": 0.9291338582677166
          },
          {
            "number": 11,
            "time": 53.640691935416896,
            "value": 0.937007874015748
          },
          {
            "number": 11,
            "time": 53.658549070833566,
            "value": 0.9448818897637795
          },
          {
            "number": 11,
            "time": 53.729977612500235,
            "value": 0.952755905511811
          },
          {
            "number": 11,
            "time": 53.76569188333357,
            "value": 0.9606299212598425
          },
          {
            "number": 11,
            "time": 53.85569184583357,
            "value": 0.968503937007874
          },
          {
            "number": 11,
            "time": 53.87354898125024,
            "value": 0.9763779527559056
          },
          {
            "number": 11,
            "time": 54.01640606458357,
            "value": 0.984251968503937
          },
          {
            "number": 11,
            "time": 54.0349774854169,
            "value": 0.9921259842519685
          },
          {
            "number": 11,
            "time": 54.53926298958357,
            "value": 0.984251968503937
          },
          {
            "number": 11,
            "time": 54.5749772604169,
            "value": 0.9763779527559056
          },
          {
            "number": 11,
            "time": 54.59283439583357,
            "value": 0.968503937007874
          },
          {
            "number": 11,
            "time": 54.6285486666669,
            "value": 0.9606299212598425
          },
          {
            "number": 11,
            "time": 54.64640580208357,
            "value": 0.952755905511811
          },
          {
            "number": 11,
            "time": 54.66426293750024,
            "value": 0.9448818897637795
          },
          {
            "number": 11,
            "time": 54.68212007291691,
            "value": 0.9291338582677166
          },
          {
            "number": 11,
            "time": 54.69997720833358,
            "value": 0.9212598425196851
          },
          {
            "number": 11,
            "time": 54.71783434375025,
            "value": 0.905511811023622
          },
          {
            "number": 11,
            "time": 54.73569147916692,
            "value": 0.8976377952755905
          },
          {
            "number": 11,
            "time": 54.753548614583586,
            "value": 0.889763779527559
          },
          {
            "number": 11,
            "time": 54.77212003541692,
            "value": 0.8818897637795275
          },
          {
            "number": 11,
            "time": 54.80783430625025,
            "value": 0.8740157480314961
          },
          {
            "number": 11,
            "time": 54.82569144166692,
            "value": 0.8661417322834646
          },
          {
            "number": 11,
            "time": 54.84354857708359,
            "value": 0.8582677165354331
          },
          {
            "number": 11,
            "time": 54.86140571250026,
            "value": 0.8503937007874016
          },
          {
            "number": 11,
            "time": 54.91497711875026,
            "value": 0.84251968503937
          },
          {
            "number": 11,
            "time": 54.93283425416693,
            "value": 0.8346456692913385
          },
          {
            "number": 11,
            "time": 55.0042627958336,
            "value": 0.8267716535433071
          },
          {
            "number": 11,
            "time": 55.0406913520836,
            "value": 0.8188976377952756
          },
          {
            "number": 11,
            "time": 55.07640562291693,
            "value": 0.8110236220472441
          },
          {
            "number": 11,
            "time": 55.0942627583336,
            "value": 0.8031496062992126
          },
          {
            "number": 11,
            "time": 55.12997702916693,
            "value": 0.7952755905511811
          },
          {
            "number": 11,
            "time": 55.1478341645836,
            "value": 0.7874015748031497
          },
          {
            "number": 11,
            "time": 55.2014055708336,
            "value": 0.7795275590551181
          },
          {
            "number": 11,
            "time": 55.21926270625027,
            "value": 0.7716535433070866
          },
          {
            "number": 11,
            "time": 55.30926266875027,
            "value": 0.7637795275590551
          },
          {
            "number": 11,
            "time": 55.38354835208361,
            "value": 0.7559055118110236
          },
          {
            "number": 11,
            "time": 55.40140548750028,
            "value": 0.7480314960629921
          },
          {
            "number": 11,
            "time": 55.419262622916946,
            "value": 0.7401574803149606
          },
          {
            "number": 11,
            "time": 55.437119758333615,
            "value": 0.7322834645669292
          },
          {
            "number": 11,
            "time": 55.47283402916695,
            "value": 0.7244094488188977
          },
          {
            "number": 11,
            "time": 55.49140545000028,
            "value": 0.7165354330708661
          },
          {
            "number": 11,
            "time": 55.50926258541695,
            "value": 0.7086614173228346
          },
          {
            "number": 11,
            "time": 55.52711972083362,
            "value": 0.6929133858267716
          },
          {
            "number": 11,
            "time": 55.54497685625029,
            "value": 0.6850393700787402
          },
          {
            "number": 11,
            "time": 55.562833991666956,
            "value": 0.6771653543307087
          },
          {
            "number": 11,
            "time": 55.580691127083625,
            "value": 0.6692913385826772
          },
          {
            "number": 11,
            "time": 55.634262533333626,
            "value": 0.6614173228346457
          },
          {
            "number": 11,
            "time": 55.81354817291696,
            "value": 0.6692913385826772
          },
          {
            "number": 11,
            "time": 55.83140530833363,
            "value": 0.6771653543307087
          },
          {
            "number": 11,
            "time": 55.8492624437503,
            "value": 0.6850393700787402
          },
          {
            "number": 11,
            "time": 55.86711957916697,
            "value": 0.7007874015748031
          },
          {
            "number": 11,
            "time": 55.88497671458364,
            "value": 0.7165354330708661
          },
          {
            "number": 11,
            "time": 55.902833850000306,
            "value": 0.7244094488188977
          },
          {
            "number": 11,
            "time": 55.920690985416975,
            "value": 0.7322834645669292
          },
          {
            "number": 11,
            "time": 55.938548120833644,
            "value": 0.7401574803149606
          },
          {
            "number": 11,
            "time": 55.956405256250314,
            "value": 0.7480314960629921
          },
          {
            "number": 11,
            "time": 55.97426239166698,
            "value": 0.7637795275590551
          },
          {
            "number": 11,
            "time": 55.99211952708365,
            "value": 0.7716535433070866
          },
          {
            "number": 11,
            "time": 56.010690947916984,
            "value": 0.7874015748031497
          },
          {
            "number": 11,
            "time": 56.02854808333365,
            "value": 0.7952755905511811
          },
          {
            "number": 11,
            "time": 56.04640521875032,
            "value": 0.8031496062992126
          },
          {
            "number": 11,
            "time": 56.082119489583654,
            "value": 0.8110236220472441
          },
          {
            "number": 11,
            "time": 56.09997662500032,
            "value": 0.8188976377952756
          },
          {
            "number": 11,
            "time": 56.11783376041699,
            "value": 0.8267716535433071
          },
          {
            "number": 11,
            "time": 56.153548031250324,
            "value": 0.8346456692913385
          },
          {
            "number": 11,
            "time": 56.17140516666699,
            "value": 0.84251968503937
          },
          {
            "number": 11,
            "time": 56.207119437500324,
            "value": 0.8503937007874016
          },
          {
            "number": 11,
            "time": 56.224976572916994,
            "value": 0.8582677165354331
          },
          {
            "number": 11,
            "time": 56.261405129166995,
            "value": 0.8661417322834646
          },
          {
            "number": 11,
            "time": 56.279262264583664,
            "value": 0.8740157480314961
          },
          {
            "number": 11,
            "time": 56.297119400000334,
            "value": 0.8818897637795275
          },
          {
            "number": 11,
            "time": 56.314976535417,
            "value": 0.889763779527559
          },
          {
            "number": 11,
            "time": 56.350690806250334,
            "value": 0.8976377952755905
          },
          {
            "number": 11,
            "time": 56.386405077083666,
            "value": 0.905511811023622
          },
          {
            "number": 11,
            "time": 56.422119347917,
            "value": 0.9133858267716536
          },
          {
            "number": 11,
            "time": 56.439976483333666,
            "value": 0.9212598425196851
          },
          {
            "number": 11,
            "time": 56.475690754167,
            "value": 0.9291338582677166
          },
          {
            "number": 11,
            "time": 56.514976452083665,
            "value": 0.937007874015748
          },
          {
            "number": 11,
            "time": 56.532833587500335,
            "value": 0.9448818897637795
          },
          {
            "number": 11,
            "time": 56.568547858333666,
            "value": 0.952755905511811
          },
          {
            "number": 11,
            "time": 56.586404993750335,
            "value": 0.9606299212598425
          },
          {
            "number": 11,
            "time": 56.62211926458367,
            "value": 0.968503937007874
          },
          {
            "number": 11,
            "time": 56.657833535417,
            "value": 0.9763779527559056
          },
          {
            "number": 11,
            "time": 56.81926203958366,
            "value": 0.984251968503937
          },
          {
            "number": 11,
            "time": 56.83711917500033,
            "value": 0.9921259842519685
          },
          {
            "number": 11,
            "time": 57.17711903333367,
            "value": 1
          },
          {
            "number": 11,
            "time": 57.949975854167,
            "value": 0.9921259842519685
          },
          {
            "number": 11,
            "time": 57.96783298958367,
            "value": 0.984251968503937
          },
          {
            "number": 11,
            "time": 57.986404410417,
            "value": 0.9763779527559056
          },
          {
            "number": 11,
            "time": 58.00426154583367,
            "value": 0.952755905511811
          },
          {
            "number": 11,
            "time": 58.02211868125034,
            "value": 0.9448818897637795
          },
          {
            "number": 11,
            "time": 58.03997581666701,
            "value": 0.9291338582677166
          },
          {
            "number": 11,
            "time": 58.05783295208368,
            "value": 0.9133858267716536
          },
          {
            "number": 11,
            "time": 58.07569008750035,
            "value": 0.8976377952755905
          },
          {
            "number": 11,
            "time": 58.09354722291702,
            "value": 0.8818897637795275
          },
          {
            "number": 11,
            "time": 58.11140435833369,
            "value": 0.8661417322834646
          },
          {
            "number": 11,
            "time": 58.129261493750356,
            "value": 0.8503937007874016
          },
          {
            "number": 11,
            "time": 58.147118629167025,
            "value": 0.84251968503937
          },
          {
            "number": 11,
            "time": 58.164975764583694,
            "value": 0.8267716535433071
          },
          {
            "number": 11,
            "time": 58.18283290000036,
            "value": 0.8188976377952756
          },
          {
            "number": 11,
            "time": 58.20069003541703,
            "value": 0.8031496062992126
          },
          {
            "number": 11,
            "time": 58.2185471708337,
            "value": 0.7952755905511811
          },
          {
            "number": 11,
            "time": 58.237118591667034,
            "value": 0.7874015748031497
          },
          {
            "number": 11,
            "time": 58.2549757270837,
            "value": 0.7795275590551181
          },
          {
            "number": 11,
            "time": 58.290689997917035,
            "value": 0.7716535433070866
          },
          {
            "number": 11,
            "time": 58.308547133333704,
            "value": 0.7637795275590551
          },
          {
            "number": 11,
            "time": 58.344261404167035,
            "value": 0.7559055118110236
          },
          {
            "number": 11,
            "time": 58.362118539583705,
            "value": 0.7480314960629921
          },
          {
            "number": 11,
            "time": 58.379975675000374,
            "value": 0.7401574803149606
          },
          {
            "number": 11,
            "time": 58.39783281041704,
            "value": 0.7322834645669292
          },
          {
            "number": 11,
            "time": 58.451404216667044,
            "value": 0.7244094488188977
          },
          {
            "number": 11,
            "time": 58.46926135208371,
            "value": 0.7165354330708661
          },
          {
            "number": 11,
            "time": 58.594975585417046,
            "value": 0.7244094488188977
          },
          {
            "number": 11,
            "time": 58.612832720833715,
            "value": 0.7401574803149606
          },
          {
            "number": 11,
            "time": 58.630689856250385,
            "value": 0.7559055118110236
          },
          {
            "number": 11,
            "time": 58.648546991667054,
            "value": 0.7716535433070866
          },
          {
            "number": 11,
            "time": 58.66640412708372,
            "value": 0.7874015748031497
          },
          {
            "number": 11,
            "time": 58.68426126250039,
            "value": 0.7952755905511811
          },
          {
            "number": 11,
            "time": 58.70211839791706,
            "value": 0.8031496062992126
          },
          {
            "number": 11,
            "time": 58.71997553333373,
            "value": 0.8110236220472441
          },
          {
            "number": 11,
            "time": 58.7378326687504,
            "value": 0.8188976377952756
          },
          {
            "number": 11,
            "time": 58.75640408958373,
            "value": 0.8267716535433071
          },
          {
            "number": 11,
            "time": 58.7742612250004,
            "value": 0.8346456692913385
          },
          {
            "number": 11,
            "time": 58.79211836041707,
            "value": 0.84251968503937
          },
          {
            "number": 11,
            "time": 58.81283263750041,
            "value": 0.8503937007874016
          },
          {
            "number": 11,
            "time": 58.830689772917076,
            "value": 0.8582677165354331
          },
          {
            "number": 11,
            "time": 58.86640404375041,
            "value": 0.8661417322834646
          },
          {
            "number": 11,
            "time": 58.884261179167076,
            "value": 0.8740157480314961
          },
          {
            "number": 11,
            "time": 58.902118314583745,
            "value": 0.8818897637795275
          },
          {
            "number": 11,
            "time": 58.955689720833746,
            "value": 0.889763779527559
          },
          {
            "number": 11,
            "time": 59.02783254791708,
            "value": 0.8976377952755905
          },
          {
            "number": 11,
            "time": 59.04568968333375,
            "value": 0.905511811023622
          },
          {
            "number": 11,
            "time": 59.06354681875042,
            "value": 0.9133858267716536
          },
          {
            "number": 11,
            "time": 59.09926108958375,
            "value": 0.9212598425196851
          },
          {
            "number": 11,
            "time": 59.11711822500042,
            "value": 0.9291338582677166
          },
          {
            "number": 11,
            "time": 59.17068963125042,
            "value": 0.937007874015748
          },
          {
            "number": 11,
            "time": 59.18854676666709,
            "value": 0.9448818897637795
          },
          {
            "number": 11,
            "time": 59.22497532291709,
            "value": 0.952755905511811
          },
          {
            "number": 11,
            "time": 59.24283245833376,
            "value": 0.9606299212598425
          },
          {
            "number": 11,
            "time": 59.31426100000043,
            "value": 0.968503937007874
          },
          {
            "number": 11,
            "time": 59.3321181354171,
            "value": 0.9763779527559056
          },
          {
            "number": 11,
            "time": 59.3856895416671,
            "value": 0.984251968503937
          },
          {
            "number": 11,
            "time": 59.40354667708377,
            "value": 0.9921259842519685
          },
          {
            "number": 11,
            "time": 59.51140377500043,
            "value": 1
          },
          {
            "number": 11,
            "time": 59.744260820833766,
            "value": 0.984251968503937
          },
          {
            "number": 11,
            "time": 59.762117956250435,
            "value": 0.9606299212598425
          },
          {
            "number": 11,
            "time": 59.779975091667104,
            "value": 0.937007874015748
          },
          {
            "number": 11,
            "time": 59.797832227083774,
            "value": 0.905511811023622
          },
          {
            "number": 11,
            "time": 59.81568936250044,
            "value": 0.8740157480314961
          },
          {
            "number": 11,
            "time": 59.83354649791711,
            "value": 0.84251968503937
          },
          {
            "number": 11,
            "time": 59.85140363333378,
            "value": 0.8188976377952756
          },
          {
            "number": 11,
            "time": 59.86926076875045,
            "value": 0.7952755905511811
          },
          {
            "number": 11,
            "time": 59.88711790416712,
            "value": 0.7874015748031497
          },
          {
            "number": 11,
            "time": 59.90497503958379,
            "value": 0.7795275590551181
          },
          {
            "number": 11,
            "time": 59.92283217500046,
            "value": 0.7637795275590551
          },
          {
            "number": 11,
            "time": 59.94068931041713,
            "value": 0.7401574803149606
          },
          {
            "number": 11,
            "time": 59.9585464458338,
            "value": 0.7322834645669292
          },
          {
            "number": 11,
            "time": 60.01568927916713,
            "value": 0.7401574803149606
          },
          {
            "number": 11,
            "time": 60.033546414583796,
            "value": 0.7559055118110236
          },
          {
            "number": 11,
            "time": 60.051403550000465,
            "value": 0.7795275590551181
          },
          {
            "number": 11,
            "time": 60.069260685417134,
            "value": 0.8031496062992126
          },
          {
            "number": 11,
            "time": 60.087117820833804,
            "value": 0.8188976377952756
          },
          {
            "number": 11,
            "time": 60.10497495625047,
            "value": 0.8267716535433071
          },
          {
            "number": 11,
            "time": 60.12283209166714,
            "value": 0.8346456692913385
          },
          {
            "number": 11,
            "time": 60.14068922708381,
            "value": 0.84251968503937
          },
          {
            "number": 11,
            "time": 60.15854636250048,
            "value": 0.8503937007874016
          },
          {
            "number": 11,
            "time": 60.17640349791715,
            "value": 0.8582677165354331
          },
          {
            "number": 11,
            "time": 60.19426063333382,
            "value": 0.8661417322834646
          },
          {
            "number": 11,
            "time": 60.21283205416715,
            "value": 0.8740157480314961
          },
          {
            "number": 11,
            "time": 60.23068918958382,
            "value": 0.889763779527559
          },
          {
            "number": 11,
            "time": 60.24854632500049,
            "value": 0.8976377952755905
          },
          {
            "number": 11,
            "time": 60.26640346041716,
            "value": 0.905511811023622
          },
          {
            "number": 11,
            "time": 60.28426059583383,
            "value": 0.9212598425196851
          },
          {
            "number": 11,
            "time": 60.3021177312505,
            "value": 0.9291338582677166
          },
          {
            "number": 11,
            "time": 60.31997486666717,
            "value": 0.937007874015748
          },
          {
            "number": 11,
            "time": 60.337832002083836,
            "value": 0.9448818897637795
          },
          {
            "number": 11,
            "time": 60.373546272917174,
            "value": 0.952755905511811
          },
          {
            "number": 11,
            "time": 60.427117679167175,
            "value": 0.9606299212598425
          },
          {
            "number": 11,
            "time": 60.48140337083384,
            "value": 0.968503937007874
          },
          {
            "number": 11,
            "time": 60.49926050625051,
            "value": 0.9763779527559056
          },
          {
            "number": 11,
            "time": 60.53497477708384,
            "value": 0.984251968503937
          },
          {
            "number": 11,
            "time": 60.55283191250051,
            "value": 0.9921259842519685
          },
          {
            "number": 11,
            "time": 60.73211755208384,
            "value": 1
          },
          {
            "number": 11,
            "time": 61.21711735000051,
            "value": 0.9606299212598425
          },
          {
            "number": 11,
            "time": 61.234974485417176,
            "value": 0.9212598425196851
          },
          {
            "number": 11,
            "time": 61.252831620833845,
            "value": 0.8740157480314961
          },
          {
            "number": 11,
            "time": 61.270688756250514,
            "value": 0.8346456692913385
          },
          {
            "number": 11,
            "time": 61.28926017708385,
            "value": 0.8031496062992126
          },
          {
            "number": 11,
            "time": 61.307117312500516,
            "value": 0.7795275590551181
          },
          {
            "number": 11,
            "time": 61.324974447917185,
            "value": 0.7716535433070866
          },
          {
            "number": 11,
            "time": 61.36068871875052,
            "value": 0.7637795275590551
          },
          {
            "number": 11,
            "time": 61.396402989583855,
            "value": 0.7559055118110236
          },
          {
            "number": 11,
            "time": 61.48568866666719,
            "value": 0.7637795275590551
          },
          {
            "number": 11,
            "time": 61.503545802083856,
            "value": 0.7716535433070866
          },
          {
            "number": 11,
            "time": 61.521402937500525,
            "value": 0.7874015748031497
          },
          {
            "number": 11,
            "time": 61.539260072917195,
            "value": 0.7952755905511811
          },
          {
            "number": 11,
            "time": 61.55783149375053,
            "value": 0.8188976377952756
          },
          {
            "number": 11,
            "time": 61.575688629167196,
            "value": 0.8267716535433071
          },
          {
            "number": 11,
            "time": 61.593545764583865,
            "value": 0.84251968503937
          },
          {
            "number": 11,
            "time": 61.611402900000535,
            "value": 0.8582677165354331
          },
          {
            "number": 11,
            "time": 61.629260035417204,
            "value": 0.8740157480314961
          },
          {
            "number": 11,
            "time": 61.64711717083387,
            "value": 0.8818897637795275
          },
          {
            "number": 11,
            "time": 61.66497430625054,
            "value": 0.889763779527559
          },
          {
            "number": 11,
            "time": 61.68283144166721,
            "value": 0.9133858267716536
          },
          {
            "number": 11,
            "time": 61.70068857708388,
            "value": 0.9212598425196851
          },
          {
            "number": 11,
            "time": 61.71854571250055,
            "value": 0.9291338582677166
          },
          {
            "number": 11,
            "time": 61.73640284791722,
            "value": 0.937007874015748
          },
          {
            "number": 11,
            "time": 61.75425998333389,
            "value": 0.9448818897637795
          },
          {
            "number": 11,
            "time": 61.77211711875056,
            "value": 0.952755905511811
          },
          {
            "number": 11,
            "time": 61.78997425416723,
            "value": 0.9606299212598425
          },
          {
            "number": 11,
            "time": 61.80854567500056,
            "value": 0.968503937007874
          },
          {
            "number": 11,
            "time": 61.82640281041723,
            "value": 0.9763779527559056
          },
          {
            "number": 11,
            "time": 61.86211708125056,
            "value": 0.984251968503937
          },
          {
            "number": 11,
            "time": 61.87997421666723,
            "value": 0.9921259842519685
          },
          {
            "number": 11,
            "time": 61.9899741708339,
            "value": 1
          },
          {
            "number": 11,
            "time": 62.65283103750056,
            "value": 0.984251968503937
          },
          {
            "number": 11,
            "time": 62.67068817291723,
            "value": 0.952755905511811
          },
          {
            "number": 11,
            "time": 62.6885453083339,
            "value": 0.9133858267716536
          },
          {
            "number": 11,
            "time": 62.70640244375057,
            "value": 0.889763779527559
          },
          {
            "number": 11,
            "time": 62.72425957916724,
            "value": 0.8818897637795275
          },
          {
            "number": 11,
            "time": 62.74211671458391,
            "value": 0.8740157480314961
          },
          {
            "number": 11,
            "time": 62.79640240625058,
            "value": 0.8818897637795275
          },
          {
            "number": 11,
            "time": 62.81425954166725,
            "value": 0.8976377952755905
          },
          {
            "number": 11,
            "time": 62.83211667708392,
            "value": 0.9133858267716536
          },
          {
            "number": 11,
            "time": 62.849973812500586,
            "value": 0.9448818897637795
          },
          {
            "number": 11,
            "time": 62.867830947917255,
            "value": 0.968503937007874
          },
          {
            "number": 11,
            "time": 62.885688083333925,
            "value": 0.9921259842519685
          },
          {
            "number": 11,
            "time": 62.921402354167256,
            "value": 1
          },
          {
            "number": 11,
            "time": 63.81997340833392,
            "value": 0.984251968503937
          },
          {
            "number": 11,
            "time": 63.83783054375059,
            "value": 0.952755905511811
          },
          {
            "number": 11,
            "time": 63.85568767916726,
            "value": 0.9133858267716536
          },
          {
            "number": 11,
            "time": 63.87354481458393,
            "value": 0.8661417322834646
          },
          {
            "number": 11,
            "time": 63.8914019500006,
            "value": 0.8188976377952756
          },
          {
            "number": 11,
            "time": 63.90925908541727,
            "value": 0.7795275590551181
          },
          {
            "number": 11,
            "time": 63.92711622083394,
            "value": 0.7480314960629921
          },
          {
            "number": 11,
            "time": 63.94497335625061,
            "value": 0.7165354330708661
          },
          {
            "number": 11,
            "time": 63.962830491667276,
            "value": 0.7086614173228346
          },
          {
            "number": 11,
            "time": 63.980687627083945,
            "value": 0.7007874015748031
          },
          {
            "number": 11,
            "time": 64.03497331875062,
            "value": 0.7244094488188977
          },
          {
            "number": 11,
            "time": 64.05283045416728,
            "value": 0.7401574803149606
          },
          {
            "number": 11,
            "time": 64.07068758958394,
            "value": 0.7480314960629921
          },
          {
            "number": 11,
            "time": 64.0885447250006,
            "value": 0.7716535433070866
          },
          {
            "number": 11,
            "time": 64.10640186041726,
            "value": 0.7874015748031497
          },
          {
            "number": 11,
            "time": 64.12425899583394,
            "value": 0.8031496062992126
          },
          {
            "number": 11,
            "time": 64.1421161312506,
            "value": 0.8110236220472441
          },
          {
            "number": 11,
            "time": 64.15997326666727,
            "value": 0.8267716535433071
          },
          {
            "number": 11,
            "time": 64.17783040208393,
            "value": 0.84251968503937
          },
          {
            "number": 11,
            "time": 64.19568753750059,
            "value": 0.8582677165354331
          },
          {
            "number": 11,
            "time": 64.21640181458392,
            "value": 0.8661417322834646
          },
          {
            "number": 11,
            "time": 64.23425895000058,
            "value": 0.8818897637795275
          },
          {
            "number": 11,
            "time": 64.25283037083392,
            "value": 0.889763779527559
          },
          {
            "number": 11,
            "time": 64.27068750625058,
            "value": 0.8976377952755905
          },
          {
            "number": 11,
            "time": 64.28854464166724,
            "value": 0.905511811023622
          },
          {
            "number": 11,
            "time": 64.3064017770839,
            "value": 0.9133858267716536
          },
          {
            "number": 11,
            "time": 64.32425891250057,
            "value": 0.9212598425196851
          },
          {
            "number": 11,
            "time": 64.34211604791723,
            "value": 0.9291338582677166
          },
          {
            "number": 11,
            "time": 64.41354458958389,
            "value": 0.937007874015748
          },
          {
            "number": 11,
            "time": 64.43140172500055,
            "value": 0.9448818897637795
          },
          {
            "number": 11,
            "time": 64.4671159958339,
            "value": 0.952755905511811
          },
          {
            "number": 11,
            "time": 64.48497313125056,
            "value": 0.9606299212598425
          },
          {
            "number": 11,
            "time": 64.53925882291722,
            "value": 0.968503937007874
          },
          {
            "number": 11,
            "time": 64.55711595833388,
            "value": 0.9763779527559056
          },
          {
            "number": 11,
            "time": 64.57497309375054,
            "value": 0.984251968503937
          },
          {
            "number": 11,
            "time": 64.5928302291672,
            "value": 0.9921259842519685
          },
          {
            "number": 11,
            "time": 65.07640145625054,
            "value": 1
          },
          {
            "number": 11,
            "time": 65.14283000000054,
            "value": 1
          },
          {
            "number": 11,
            "time": 65.20711568750055,
            "value": 0.9921259842519685
          },
          {
            "number": 11,
            "time": 65.21425854166722,
            "value": 0.984251968503937
          },
          {
            "number": 11,
            "time": 65.22854425000055,
            "value": 0.9763779527559056
          },
          {
            "number": 11,
            "time": 65.24282995833389,
            "value": 0.968503937007874
          },
          {
            "number": 11,
            "time": 65.24997281250056,
            "value": 0.9606299212598425
          },
          {
            "number": 11,
            "time": 65.26425852083389,
            "value": 0.952755905511811
          },
          {
            "number": 11,
            "time": 65.27140137500056,
            "value": 0.9448818897637795
          },
          {
            "number": 11,
            "time": 65.2856870833339,
            "value": 0.937007874015748
          },
          {
            "number": 11,
            "time": 65.29997279166723,
            "value": 0.9291338582677166
          },
          {
            "number": 11,
            "time": 65.3071156458339,
            "value": 0.9212598425196851
          },
          {
            "number": 11,
            "time": 65.32140135416724,
            "value": 0.9133858267716536
          },
          {
            "number": 11,
            "time": 65.33568706250057,
            "value": 0.905511811023622
          },
          {
            "number": 11,
            "time": 65.3499727708339,
            "value": 0.8976377952755905
          },
          {
            "number": 11,
            "time": 65.35711562500057,
            "value": 0.889763779527559
          },
          {
            "number": 11,
            "time": 65.3714013333339,
            "value": 0.8818897637795275
          },
          {
            "number": 11,
            "time": 65.38568704166724,
            "value": 0.8740157480314961
          },
          {
            "number": 11,
            "time": 65.39282989583391,
            "value": 0.8661417322834646
          },
          {
            "number": 11,
            "time": 65.39997275000059,
            "value": 0.8582677165354331
          },
          {
            "number": 11,
            "time": 65.41425845833392,
            "value": 0.8503937007874016
          },
          {
            "number": 11,
            "time": 65.42140131250059,
            "value": 0.84251968503937
          },
          {
            "number": 11,
            "time": 65.42854416666727,
            "value": 0.8346456692913385
          },
          {
            "number": 11,
            "time": 65.43568702083394,
            "value": 0.8267716535433071
          },
          {
            "number": 11,
            "time": 65.44282987500061,
            "value": 0.8188976377952756
          },
          {
            "number": 11,
            "time": 65.44997272916729,
            "value": 0.8031496062992126
          },
          {
            "number": 11,
            "time": 65.45711558333396,
            "value": 0.7952755905511811
          },
          {
            "number": 11,
            "time": 65.46425843750063,
            "value": 0.7874015748031497
          },
          {
            "number": 11,
            "time": 65.4714012916673,
            "value": 0.7795275590551181
          },
          {
            "number": 11,
            "time": 65.47854414583398,
            "value": 0.7637795275590551
          },
          {
            "number": 11,
            "time": 65.48568700000065,
            "value": 0.7559055118110236
          },
          {
            "number": 11,
            "time": 65.49282985416733,
            "value": 0.7480314960629921
          },
          {
            "number": 11,
            "time": 65.55711554166733,
            "value": 0.7559055118110236
          },
          {
            "number": 11,
            "time": 65.57140125000066,
            "value": 0.7637795275590551
          },
          {
            "number": 11,
            "time": 65.57854410416734,
            "value": 0.7716535433070866
          },
          {
            "number": 11,
            "time": 65.58568695833401,
            "value": 0.7795275590551181
          },
          {
            "number": 11,
            "time": 65.59282981250068,
            "value": 0.7874015748031497
          },
          {
            "number": 11,
            "time": 65.59997266666736,
            "value": 0.7952755905511811
          },
          {
            "number": 11,
            "time": 65.60711552083403,
            "value": 0.8110236220472441
          },
          {
            "number": 11,
            "time": 65.6142583750007,
            "value": 0.8188976377952756
          },
          {
            "number": 11,
            "time": 65.62140122916738,
            "value": 0.8346456692913385
          },
          {
            "number": 11,
            "time": 65.62854408333405,
            "value": 0.8503937007874016
          },
          {
            "number": 11,
            "time": 65.63568693750072,
            "value": 0.8582677165354331
          },
          {
            "number": 11,
            "time": 65.6428297916674,
            "value": 0.8661417322834646
          },
          {
            "number": 11,
            "time": 65.64997264583407,
            "value": 0.8740157480314961
          },
          {
            "number": 11,
            "time": 65.65711550000074,
            "value": 0.8818897637795275
          },
          {
            "number": 11,
            "time": 65.66425835416742,
            "value": 0.889763779527559
          },
          {
            "number": 11,
            "time": 65.67854406250075,
            "value": 0.8976377952755905
          },
          {
            "number": 11,
            "time": 65.68568691666742,
            "value": 0.905511811023622
          },
          {
            "number": 11,
            "time": 65.69997262500075,
            "value": 0.9133858267716536
          },
          {
            "number": 11,
            "time": 65.70711547916743,
            "value": 0.9212598425196851
          },
          {
            "number": 11,
            "time": 65.72140118750076,
            "value": 0.9291338582677166
          },
          {
            "number": 11,
            "time": 65.72854404166743,
            "value": 0.937007874015748
          },
          {
            "number": 11,
            "time": 65.7356868958341,
            "value": 0.9448818897637795
          },
          {
            "number": 11,
            "time": 65.74997260416744,
            "value": 0.952755905511811
          },
          {
            "number": 11,
            "time": 65.76425831250077,
            "value": 0.9606299212598425
          },
          {
            "number": 11,
            "time": 65.7785440208341,
            "value": 0.968503937007874
          },
          {
            "number": 11,
            "time": 65.78568687500078,
            "value": 0.9763779527559056
          },
          {
            "number": 11,
            "time": 65.79997258333411,
            "value": 0.984251968503937
          },
          {
            "number": 11,
            "time": 65.81425829166744,
            "value": 0.9921259842519685
          },
          {
            "number": 11,
            "time": 65.82854400000078,
            "value": 1
          },
          {
            "number": 11,
            "time": 66.9421149645841,
            "value": 0.8031496062992126
          },
          {
            "number": 11,
            "time": 66.99640065625077,
            "value": 0.8110236220472441
          },
          {
            "number": 11,
            "time": 67.01425779166743,
            "value": 0.8188976377952756
          },
          {
            "number": 11,
            "time": 67.04997206250077,
            "value": 0.8267716535433071
          },
          {
            "number": 11,
            "time": 67.06782919791743,
            "value": 0.8346456692913385
          },
          {
            "number": 11,
            "time": 67.0856863333341,
            "value": 0.84251968503937
          },
          {
            "number": 11,
            "time": 67.12140060416743,
            "value": 0.8503937007874016
          },
          {
            "number": 11,
            "time": 67.15711487500077,
            "value": 0.8582677165354331
          },
          {
            "number": 11,
            "time": 67.17497201041743,
            "value": 0.8661417322834646
          },
          {
            "number": 11,
            "time": 67.24711483750077,
            "value": 0.8740157480314961
          },
          {
            "number": 11,
            "time": 67.28282910833411,
            "value": 0.8818897637795275
          },
          {
            "number": 11,
            "time": 67.35425765000078,
            "value": 0.889763779527559
          },
          {
            "number": 11,
            "time": 67.40782905625078,
            "value": 0.8976377952755905
          },
          {
            "number": 11,
            "time": 67.47997188333412,
            "value": 0.905511811023622
          },
          {
            "number": 11,
            "time": 67.53354328958412,
            "value": 0.9133858267716536
          },
          {
            "number": 11,
            "time": 67.56925756041746,
            "value": 0.9212598425196851
          },
          {
            "number": 11,
            "time": 67.6585432375008,
            "value": 0.9291338582677166
          },
          {
            "number": 11,
            "time": 67.69425750833413,
            "value": 0.937007874015748
          },
          {
            "number": 11,
            "time": 67.73068606458413,
            "value": 0.9448818897637795
          },
          {
            "number": 11,
            "time": 67.7485432000008,
            "value": 0.952755905511811
          },
          {
            "number": 11,
            "time": 67.78425747083413,
            "value": 0.9606299212598425
          },
          {
            "number": 11,
            "time": 67.8021146062508,
            "value": 0.968503937007874
          },
          {
            "number": 11,
            "time": 67.81997174166746,
            "value": 0.9763779527559056
          },
          {
            "number": 11,
            "time": 67.8556860125008,
            "value": 0.984251968503937
          },
          {
            "number": 11,
            "time": 67.87354314791746,
            "value": 0.9921259842519685
          },
          {
            "number": 11,
            "time": 68.03497165208412,
            "value": 1
          },
          {
            "number": 11,
            "time": 69.27639970625079,
            "value": 0.9921259842519685
          },
          {
            "number": 11,
            "time": 69.29425684166745,
            "value": 0.9763779527559056
          },
          {
            "number": 11,
            "time": 69.31211397708411,
            "value": 0.9606299212598425
          },
          {
            "number": 11,
            "time": 69.32997111250077,
            "value": 0.937007874015748
          },
          {
            "number": 11,
            "time": 69.34782824791743,
            "value": 0.9212598425196851
          },
          {
            "number": 11,
            "time": 69.3656853833341,
            "value": 0.8976377952755905
          },
          {
            "number": 11,
            "time": 69.38354251875076,
            "value": 0.8740157480314961
          },
          {
            "number": 11,
            "time": 69.40139965416742,
            "value": 0.8503937007874016
          },
          {
            "number": 11,
            "time": 69.41925678958408,
            "value": 0.8188976377952756
          },
          {
            "number": 11,
            "time": 69.43782821041742,
            "value": 0.7952755905511811
          },
          {
            "number": 11,
            "time": 69.45568534583408,
            "value": 0.7716535433070866
          },
          {
            "number": 11,
            "time": 69.47354248125075,
            "value": 0.7480314960629921
          },
          {
            "number": 11,
            "time": 69.49139961666741,
            "value": 0.7322834645669292
          },
          {
            "number": 11,
            "time": 69.50925675208407,
            "value": 0.7244094488188977
          },
          {
            "number": 11,
            "time": 69.52711388750073,
            "value": 0.7165354330708661
          },
          {
            "number": 11,
            "time": 69.5449710229174,
            "value": 0.7086614173228346
          },
          {
            "number": 11,
            "time": 69.58068529375073,
            "value": 0.7165354330708661
          },
          {
            "number": 11,
            "time": 69.5985424291674,
            "value": 0.7244094488188977
          },
          {
            "number": 11,
            "time": 69.61639956458407,
            "value": 0.7322834645669292
          },
          {
            "number": 11,
            "time": 69.63425670000073,
            "value": 0.7401574803149606
          },
          {
            "number": 11,
            "time": 69.6521138354174,
            "value": 0.7480314960629921
          },
          {
            "number": 11,
            "time": 69.66997097083406,
            "value": 0.7559055118110236
          },
          {
            "number": 11,
            "time": 69.6885423916674,
            "value": 0.7637795275590551
          },
          {
            "number": 11,
            "time": 69.70639952708406,
            "value": 0.7716535433070866
          },
          {
            "number": 11,
            "time": 69.72425666250072,
            "value": 0.7952755905511811
          },
          {
            "number": 11,
            "time": 69.74211379791738,
            "value": 0.8110236220472441
          },
          {
            "number": 11,
            "time": 69.75997093333405,
            "value": 0.8188976377952756
          },
          {
            "number": 11,
            "time": 69.77782806875071,
            "value": 0.84251968503937
          },
          {
            "number": 11,
            "time": 69.79568520416737,
            "value": 0.8582677165354331
          },
          {
            "number": 11,
            "time": 69.81354233958403,
            "value": 0.8740157480314961
          },
          {
            "number": 11,
            "time": 69.8313994750007,
            "value": 0.8976377952755905
          },
          {
            "number": 11,
            "time": 69.84925661041736,
            "value": 0.905511811023622
          },
          {
            "number": 11,
            "time": 69.86711374583402,
            "value": 0.9212598425196851
          },
          {
            "number": 11,
            "time": 69.88497088125068,
            "value": 0.9291338582677166
          },
          {
            "number": 11,
            "time": 69.90282801666734,
            "value": 0.937007874015748
          },
          {
            "number": 11,
            "time": 69.920685152084,
            "value": 0.9448818897637795
          },
          {
            "number": 11,
            "time": 69.93854228750067,
            "value": 0.952755905511811
          },
          {
            "number": 11,
            "time": 69.957113708334,
            "value": 0.9606299212598425
          },
          {
            "number": 11,
            "time": 69.97497084375067,
            "value": 0.968503937007874
          },
          {
            "number": 11,
            "time": 70.010685114584,
            "value": 0.9763779527559056
          },
          {
            "number": 11,
            "time": 70.02854225000067,
            "value": 0.984251968503937
          },
          {
            "number": 11,
            "time": 70.04639938541733,
            "value": 0.9921259842519685
          },
          {
            "number": 11,
            "time": 70.13568506250067,
            "value": 1
          },
          {
            "number": 11,
            "time": 70.53282775416734,
            "value": 0.9921259842519685
          },
          {
            "number": 11,
            "time": 70.550684889584,
            "value": 0.9763779527559056
          },
          {
            "number": 11,
            "time": 70.56854202500067,
            "value": 0.9448818897637795
          },
          {
            "number": 11,
            "time": 70.58639916041733,
            "value": 0.9212598425196851
          },
          {
            "number": 11,
            "time": 70.60425629583399,
            "value": 0.889763779527559
          },
          {
            "number": 11,
            "time": 70.62211343125065,
            "value": 0.8582677165354331
          },
          {
            "number": 11,
            "time": 70.63997056666732,
            "value": 0.8267716535433071
          },
          {
            "number": 11,
            "time": 70.65782770208398,
            "value": 0.8031496062992126
          },
          {
            "number": 11,
            "time": 70.67639912291732,
            "value": 0.7795275590551181
          },
          {
            "number": 11,
            "time": 70.69425625833398,
            "value": 0.7559055118110236
          },
          {
            "number": 11,
            "time": 70.71211339375064,
            "value": 0.7322834645669292
          },
          {
            "number": 11,
            "time": 70.7299705291673,
            "value": 0.7165354330708661
          },
          {
            "number": 11,
            "time": 70.74782766458397,
            "value": 0.7086614173228346
          },
          {
            "number": 11,
            "time": 70.76568480000063,
            "value": 0.7007874015748031
          },
          {
            "number": 11,
            "time": 70.85497047708397,
            "value": 0.7086614173228346
          },
          {
            "number": 11,
            "time": 70.87282761250063,
            "value": 0.7244094488188977
          },
          {
            "number": 11,
            "time": 70.89068474791729,
            "value": 0.7480314960629921
          },
          {
            "number": 11,
            "time": 70.90854188333395,
            "value": 0.7716535433070866
          },
          {
            "number": 11,
            "time": 70.92639901875062,
            "value": 0.7952755905511811
          },
          {
            "number": 11,
            "time": 70.94497043958395,
            "value": 0.8110236220472441
          },
          {
            "number": 11,
            "time": 70.96282757500062,
            "value": 0.8188976377952756
          },
          {
            "number": 11,
            "time": 70.98068471041728,
            "value": 0.8346456692913385
          },
          {
            "number": 11,
            "time": 70.99854184583394,
            "value": 0.84251968503937
          },
          {
            "number": 11,
            "time": 71.0163989812506,
            "value": 0.8582677165354331
          },
          {
            "number": 11,
            "time": 71.03425611666727,
            "value": 0.8661417322834646
          },
          {
            "number": 11,
            "time": 71.05211325208393,
            "value": 0.8740157480314961
          },
          {
            "number": 11,
            "time": 71.06997038750059,
            "value": 0.8818897637795275
          },
          {
            "number": 11,
            "time": 71.08782752291725,
            "value": 0.889763779527559
          },
          {
            "number": 11,
            "time": 71.10568465833391,
            "value": 0.8976377952755905
          },
          {
            "number": 11,
            "time": 71.12354179375058,
            "value": 0.905511811023622
          },
          {
            "number": 11,
            "time": 71.14139892916724,
            "value": 0.9133858267716536
          },
          {
            "number": 11,
            "time": 71.1592560645839,
            "value": 0.9212598425196851
          },
          {
            "number": 11,
            "time": 71.17711320000056,
            "value": 0.9291338582677166
          },
          {
            "number": 11,
            "time": 71.1956846208339,
            "value": 0.937007874015748
          },
          {
            "number": 11,
            "time": 71.21354175625056,
            "value": 0.9448818897637795
          },
          {
            "number": 11,
            "time": 71.23139889166723,
            "value": 0.9606299212598425
          },
          {
            "number": 11,
            "time": 71.24925602708389,
            "value": 0.968503937007874
          },
          {
            "number": 11,
            "time": 71.26711316250055,
            "value": 0.9763779527559056
          },
          {
            "number": 11,
            "time": 71.28497029791721,
            "value": 0.984251968503937
          },
          {
            "number": 11,
            "time": 71.30282743333387,
            "value": 0.9921259842519685
          },
          {
            "number": 11,
            "time": 71.37425597500054,
            "value": 1
          },
          {
            "number": 11,
            "time": 71.91568432083388,
            "value": 0.9921259842519685
          },
          {
            "number": 11,
            "time": 71.93354145625054,
            "value": 0.984251968503937
          },
          {
            "number": 11,
            "time": 71.9513985916672,
            "value": 0.9763779527559056
          },
          {
            "number": 11,
            "time": 71.96925572708386,
            "value": 0.968503937007874
          },
          {
            "number": 11,
            "time": 71.98711286250052,
            "value": 0.9606299212598425
          },
          {
            "number": 11,
            "time": 72.00496999791719,
            "value": 0.9448818897637795
          },
          {
            "number": 11,
            "time": 72.02282713333385,
            "value": 0.937007874015748
          },
          {
            "number": 11,
            "time": 72.04068426875051,
            "value": 0.9291338582677166
          },
          {
            "number": 11,
            "time": 72.05854140416717,
            "value": 0.9133858267716536
          },
          {
            "number": 11,
            "time": 72.07711282500051,
            "value": 0.8976377952755905
          },
          {
            "number": 11,
            "time": 72.09496996041717,
            "value": 0.8818897637795275
          },
          {
            "number": 11,
            "time": 72.11282709583384,
            "value": 0.8740157480314961
          },
          {
            "number": 11,
            "time": 72.1306842312505,
            "value": 0.8582677165354331
          },
          {
            "number": 11,
            "time": 72.14854136666716,
            "value": 0.8346456692913385
          },
          {
            "number": 11,
            "time": 72.16639850208382,
            "value": 0.8188976377952756
          },
          {
            "number": 11,
            "time": 72.18425563750048,
            "value": 0.8031496062992126
          },
          {
            "number": 11,
            "time": 72.20211277291715,
            "value": 0.7874015748031497
          },
          {
            "number": 11,
            "time": 72.21996990833381,
            "value": 0.7795275590551181
          },
          {
            "number": 11,
            "time": 72.29139845000047,
            "value": 0.7874015748031497
          },
          {
            "number": 11,
            "time": 72.30925558541713,
            "value": 0.7952755905511811
          },
          {
            "number": 11,
            "time": 72.3271127208338,
            "value": 0.8031496062992126
          },
          {
            "number": 11,
            "time": 72.34568414166714,
            "value": 0.8110236220472441
          },
          {
            "number": 11,
            "time": 72.3635412770838,
            "value": 0.8346456692913385
          },
          {
            "number": 11,
            "time": 72.38139841250046,
            "value": 0.8503937007874016
          },
          {
            "number": 11,
            "time": 72.39925554791712,
            "value": 0.8661417322834646
          },
          {
            "number": 11,
            "time": 72.41711268333378,
            "value": 0.889763779527559
          },
          {
            "number": 11,
            "time": 72.43496981875045,
            "value": 0.905511811023622
          },
          {
            "number": 11,
            "time": 72.45282695416711,
            "value": 0.9212598425196851
          },
          {
            "number": 11,
            "time": 72.47068408958377,
            "value": 0.937007874015748
          },
          {
            "number": 11,
            "time": 72.48854122500043,
            "value": 0.9448818897637795
          },
          {
            "number": 11,
            "time": 72.5063983604171,
            "value": 0.952755905511811
          },
          {
            "number": 11,
            "time": 72.52425549583376,
            "value": 0.9606299212598425
          },
          {
            "number": 11,
            "time": 72.5599697666671,
            "value": 0.968503937007874
          },
          {
            "number": 11,
            "time": 72.57782690208376,
            "value": 0.9763779527559056
          },
          {
            "number": 11,
            "time": 72.6499697291671,
            "value": 0.984251968503937
          },
          {
            "number": 11,
            "time": 72.66782686458376,
            "value": 0.9921259842519685
          },
          {
            "number": 11,
            "time": 72.72139827083376,
            "value": 1
          },
          {
            "number": 11,
            "time": 73.47639795625042,
            "value": 0.984251968503937
          },
          {
            "number": 11,
            "time": 73.49425509166709,
            "value": 0.9606299212598425
          },
          {
            "number": 11,
            "time": 73.51211222708375,
            "value": 0.937007874015748
          },
          {
            "number": 11,
            "time": 73.52996936250041,
            "value": 0.9212598425196851
          },
          {
            "number": 11,
            "time": 73.54782649791707,
            "value": 0.8976377952755905
          },
          {
            "number": 11,
            "time": 73.56568363333373,
            "value": 0.8818897637795275
          },
          {
            "number": 11,
            "time": 73.58425505416707,
            "value": 0.8582677165354331
          },
          {
            "number": 11,
            "time": 73.60211218958374,
            "value": 0.8503937007874016
          },
          {
            "number": 11,
            "time": 73.6199693250004,
            "value": 0.84251968503937
          },
          {
            "number": 11,
            "time": 73.70925500208374,
            "value": 0.8503937007874016
          },
          {
            "number": 11,
            "time": 73.72711213750041,
            "value": 0.8661417322834646
          },
          {
            "number": 11,
            "time": 73.74496927291707,
            "value": 0.8976377952755905
          },
          {
            "number": 11,
            "time": 73.76282640833374,
            "value": 0.9212598425196851
          },
          {
            "number": 11,
            "time": 73.7806835437504,
            "value": 0.9448818897637795
          },
          {
            "number": 11,
            "time": 73.79854067916706,
            "value": 0.952755905511811
          },
          {
            "number": 11,
            "time": 73.81639781458372,
            "value": 0.9606299212598425
          },
          {
            "number": 11,
            "time": 73.85282637083372,
            "value": 0.968503937007874
          },
          {
            "number": 11,
            "time": 73.87068350625039,
            "value": 0.9763779527559056
          },
          {
            "number": 11,
            "time": 73.89139778333372,
            "value": 0.984251968503937
          },
          {
            "number": 11,
            "time": 73.90782634791705,
            "value": 0.9921259842519685
          },
          {
            "number": 11,
            "time": 74.08568341666705,
            "value": 1
          },
          {
            "number": 11,
            "time": 74.62568319166705,
            "value": 0.984251968503937
          },
          {
            "number": 11,
            "time": 74.64354032708371,
            "value": 0.9606299212598425
          },
          {
            "number": 11,
            "time": 74.66139746250037,
            "value": 0.937007874015748
          },
          {
            "number": 11,
            "time": 74.67925459791704,
            "value": 0.9133858267716536
          },
          {
            "number": 11,
            "time": 74.6971117333337,
            "value": 0.8976377952755905
          },
          {
            "number": 11,
            "time": 74.71496886875036,
            "value": 0.8740157480314961
          },
          {
            "number": 11,
            "time": 74.73282600416702,
            "value": 0.8503937007874016
          },
          {
            "number": 11,
            "time": 74.75068313958369,
            "value": 0.8346456692913385
          },
          {
            "number": 11,
            "time": 74.76854027500035,
            "value": 0.8267716535433071
          },
          {
            "number": 11,
            "time": 74.78639741041701,
            "value": 0.8188976377952756
          },
          {
            "number": 11,
            "time": 74.80425454583367,
            "value": 0.8110236220472441
          },
          {
            "number": 11,
            "time": 74.82282596666701,
            "value": 0.8031496062992126
          },
          {
            "number": 11,
            "time": 74.84068310208367,
            "value": 0.7952755905511811
          },
          {
            "number": 11,
            "time": 74.92996877916701,
            "value": 0.8031496062992126
          },
          {
            "number": 11,
            "time": 74.94782591458367,
            "value": 0.8188976377952756
          },
          {
            "number": 11,
            "time": 74.96568305000034,
            "value": 0.84251968503937
          },
          {
            "number": 11,
            "time": 74.983540185417,
            "value": 0.8661417322834646
          },
          {
            "number": 11,
            "time": 75.00139732083366,
            "value": 0.8818897637795275
          },
          {
            "number": 11,
            "time": 75.01925445625032,
            "value": 0.905511811023622
          },
          {
            "number": 11,
            "time": 75.03711159166699,
            "value": 0.9212598425196851
          },
          {
            "number": 11,
            "time": 75.05639729791699,
            "value": 0.9291338582677166
          },
          {
            "number": 11,
            "time": 75.07639728958365,
            "value": 0.9448818897637795
          },
          {
            "number": 11,
            "time": 75.09139728333365,
            "value": 0.9606299212598425
          },
          {
            "number": 11,
            "time": 75.10925441875031,
            "value": 0.968503937007874
          },
          {
            "number": 11,
            "time": 75.12711155416697,
            "value": 0.9763779527559056
          },
          {
            "number": 11,
            "time": 75.14496868958364,
            "value": 0.984251968503937
          },
          {
            "number": 11,
            "time": 75.1628258250003,
            "value": 0.9921259842519685
          },
          {
            "number": 11,
            "time": 75.2913972000003,
            "value": 1
          },
          {
            "number": 11,
            "time": 75.97139691666698,
            "value": 0.9921259842519685
          },
          {
            "number": 11,
            "time": 75.98925405208364,
            "value": 0.9763779527559056
          },
          {
            "number": 11,
            "time": 76.0071111875003,
            "value": 0.952755905511811
          },
          {
            "number": 11,
            "time": 76.02496832291696,
            "value": 0.9291338582677166
          },
          {
            "number": 11,
            "time": 76.04282545833362,
            "value": 0.905511811023622
          },
          {
            "number": 11,
            "time": 76.06139687916696,
            "value": 0.8740157480314961
          },
          {
            "number": 11,
            "time": 76.07925401458363,
            "value": 0.8503937007874016
          },
          {
            "number": 11,
            "time": 76.09711115000029,
            "value": 0.8267716535433071
          },
          {
            "number": 11,
            "time": 76.11496828541695,
            "value": 0.8031496062992126
          },
          {
            "number": 11,
            "time": 76.13282542083361,
            "value": 0.7874015748031497
          },
          {
            "number": 11,
            "time": 76.15068255625027,
            "value": 0.7795275590551181
          },
          {
            "number": 11,
            "time": 76.23996823333361,
            "value": 0.7874015748031497
          },
          {
            "number": 11,
            "time": 76.25782536875028,
            "value": 0.8031496062992126
          },
          {
            "number": 11,
            "time": 76.27568250416694,
            "value": 0.8188976377952756
          },
          {
            "number": 11,
            "time": 76.29353963958361,
            "value": 0.8346456692913385
          },
          {
            "number": 11,
            "time": 76.31139677500028,
            "value": 0.8503937007874016
          },
          {
            "number": 11,
            "time": 76.32996819583362,
            "value": 0.8740157480314961
          },
          {
            "number": 11,
            "time": 76.34782533125028,
            "value": 0.889763779527559
          },
          {
            "number": 11,
            "time": 76.36568246666694,
            "value": 0.8976377952755905
          },
          {
            "number": 11,
            "time": 76.3835396020836,
            "value": 0.9212598425196851
          },
          {
            "number": 11,
            "time": 76.40139673750026,
            "value": 0.9291338582677166
          },
          {
            "number": 11,
            "time": 76.41925387291693,
            "value": 0.9448818897637795
          },
          {
            "number": 11,
            "time": 76.43711100833359,
            "value": 0.952755905511811
          },
          {
            "number": 11,
            "time": 76.45496814375025,
            "value": 0.9606299212598425
          },
          {
            "number": 11,
            "time": 76.47282527916691,
            "value": 0.968503937007874
          },
          {
            "number": 11,
            "time": 76.49068241458357,
            "value": 0.9763779527559056
          },
          {
            "number": 11,
            "time": 76.50853955000024,
            "value": 0.984251968503937
          },
          {
            "number": 11,
            "time": 76.5263966854169,
            "value": 0.9921259842519685
          },
          {
            "number": 11,
            "time": 76.70853946666689,
            "value": 1
          },
          {
            "number": 11,
            "time": 77.1563964229169,
            "value": 0.984251968503937
          },
          {
            "number": 11,
            "time": 77.17425355833356,
            "value": 0.9763779527559056
          },
          {
            "number": 11,
            "time": 77.19211069375022,
            "value": 0.952755905511811
          },
          {
            "number": 11,
            "time": 77.20996782916689,
            "value": 0.9291338582677166
          },
          {
            "number": 11,
            "time": 77.22782496458355,
            "value": 0.905511811023622
          },
          {
            "number": 11,
            "time": 77.24568210000021,
            "value": 0.889763779527559
          },
          {
            "number": 11,
            "time": 77.26353923541687,
            "value": 0.8661417322834646
          },
          {
            "number": 11,
            "time": 77.28139637083353,
            "value": 0.84251968503937
          },
          {
            "number": 11,
            "time": 77.2992535062502,
            "value": 0.8188976377952756
          },
          {
            "number": 11,
            "time": 77.31782492708354,
            "value": 0.7952755905511811
          },
          {
            "number": 11,
            "time": 77.3356820625002,
            "value": 0.7716535433070866
          },
          {
            "number": 11,
            "time": 77.35353919791686,
            "value": 0.7637795275590551
          },
          {
            "number": 11,
            "time": 77.37139633333352,
            "value": 0.7559055118110236
          },
          {
            "number": 11,
            "time": 77.38925346875018,
            "value": 0.7480314960629921
          },
          {
            "number": 11,
            "time": 77.46068201041685,
            "value": 0.7559055118110236
          },
          {
            "number": 11,
            "time": 77.47853914583351,
            "value": 0.7637795275590551
          },
          {
            "number": 11,
            "time": 77.49639628125017,
            "value": 0.7795275590551181
          },
          {
            "number": 11,
            "time": 77.51425341666683,
            "value": 0.8031496062992126
          },
          {
            "number": 11,
            "time": 77.5321105520835,
            "value": 0.8188976377952756
          },
          {
            "number": 11,
            "time": 77.54996768750016,
            "value": 0.8267716535433071
          },
          {
            "number": 11,
            "time": 77.5685391083335,
            "value": 0.8346456692913385
          },
          {
            "number": 11,
            "time": 77.58639624375016,
            "value": 0.84251968503937
          },
          {
            "number": 11,
            "time": 77.60425337916682,
            "value": 0.8503937007874016
          },
          {
            "number": 11,
            "time": 77.62211051458348,
            "value": 0.8740157480314961
          },
          {
            "number": 11,
            "time": 77.63996765000014,
            "value": 0.8818897637795275
          },
          {
            "number": 11,
            "time": 77.6578247854168,
            "value": 0.905511811023622
          },
          {
            "number": 11,
            "time": 77.67568192083347,
            "value": 0.9133858267716536
          },
          {
            "number": 11,
            "time": 77.69353905625013,
            "value": 0.9291338582677166
          },
          {
            "number": 11,
            "time": 77.7113961916668,
            "value": 0.937007874015748
          },
          {
            "number": 11,
            "time": 77.72925332708346,
            "value": 0.9606299212598425
          },
          {
            "number": 11,
            "time": 77.74711046250012,
            "value": 0.968503937007874
          },
          {
            "number": 11,
            "time": 77.76782473958345,
            "value": 0.9763779527559056
          },
          {
            "number": 11,
            "time": 77.78639616041679,
            "value": 0.984251968503937
          },
          {
            "number": 11,
            "time": 77.80425329583345,
            "value": 0.9921259842519685
          },
          {
            "number": 11,
            "time": 77.87568183750012,
            "value": 1
          },
          {
            "number": 11,
            "time": 79.04282420833346,
            "value": 0.9921259842519685
          },
          {
            "number": 11,
            "time": 79.06068134375012,
            "value": 0.968503937007874
          },
          {
            "number": 11,
            "time": 79.07853847916678,
            "value": 0.937007874015748
          },
          {
            "number": 11,
            "time": 79.09639561458344,
            "value": 0.9133858267716536
          },
          {
            "number": 11,
            "time": 79.1142527500001,
            "value": 0.889763779527559
          },
          {
            "number": 11,
            "time": 79.13210988541677,
            "value": 0.8661417322834646
          },
          {
            "number": 11,
            "time": 79.14996702083343,
            "value": 0.84251968503937
          },
          {
            "number": 11,
            "time": 79.16782415625009,
            "value": 0.8346456692913385
          },
          {
            "number": 11,
            "time": 79.36496693125008,
            "value": 0.84251968503937
          },
          {
            "number": 11,
            "time": 79.38282406666674,
            "value": 0.8661417322834646
          },
          {
            "number": 11,
            "time": 79.4006812020834,
            "value": 0.889763779527559
          },
          {
            "number": 11,
            "time": 79.41853833750007,
            "value": 0.9133858267716536
          },
          {
            "number": 11,
            "time": 79.43639547291673,
            "value": 0.937007874015748
          },
          {
            "number": 11,
            "time": 79.45425260833339,
            "value": 0.9606299212598425
          },
          {
            "number": 11,
            "time": 79.47210974375005,
            "value": 0.984251968503937
          },
          {
            "number": 11,
            "time": 79.48996687916672,
            "value": 0.9921259842519685
          },
          {
            "number": 11,
            "time": 79.50782401458338,
            "value": 1
          },
          {
            "number": 11,
            "time": 79.88568100000005,
            "value": 0.6220472440944882
          },
          {
            "number": 11,
            "time": 79.88746671354171,
            "value": 0.6456692913385826
          },
          {
            "number": 11,
            "time": 79.89460956770839,
            "value": 0.6535433070866141
          },
          {
            "number": 11,
            "time": 79.89639528125005,
            "value": 0.6456692913385826
          },
          {
            "number": 11,
            "time": 80.04818093229171,
            "value": 0.9921259842519685
          },
          {
            "number": 11,
            "time": 80.05175235937504,
            "value": 0.984251968503937
          },
          {
            "number": 11,
            "time": 80.05353807291671,
            "value": 0.984251968503937
          },
          {
            "number": 11,
            "time": 80.05532378645837,
            "value": 0.9763779527559056
          },
          {
            "number": 11,
            "time": 80.05710950000004,
            "value": 0.984251968503937
          },
          {
            "number": 11,
            "time": 80.15568088750004,
            "value": 0.9921259842519685
          },
          {
            "number": 11,
            "time": 80.1735380229167,
            "value": 0.952755905511811
          },
          {
            "number": 11,
            "time": 80.19139515833336,
            "value": 0.889763779527559
          },
          {
            "number": 11,
            "time": 80.20925229375003,
            "value": 0.8346456692913385
          },
          {
            "number": 11,
            "time": 80.22710942916669,
            "value": 0.7952755905511811
          },
          {
            "number": 11,
            "time": 80.23389514062502,
            "value": 0.7637795275590551
          },
          {
            "number": 11,
            "time": 80.23568085416669,
            "value": 0.7559055118110236
          },
          {
            "number": 11,
            "time": 80.23746656770835,
            "value": 0.6299212598425197
          },
          {
            "number": 11,
            "time": 80.23925228125002,
            "value": 0.5196850393700787
          },
          {
            "number": 11,
            "time": 80.24103799479168,
            "value": 0.6299212598425197
          },
          {
            "number": 11,
            "time": 80.26068084375001,
            "value": 0.6299212598425197
          },
          {
            "number": 11,
            "time": 80.38746650520834,
            "value": 0.7637795275590551
          },
          {
            "number": 11,
            "time": 80.38925221875,
            "value": 0.9921259842519685
          },
          {
            "number": 11,
            "time": 80.39282364583333,
            "value": 0.9921259842519685
          },
          {
            "number": 11,
            "time": 80.394609359375,
            "value": 0.9921259842519685
          },
          {
            "number": 11,
            "time": 80.40639506874999,
            "value": 0.8346456692913385
          },
          {
            "number": 11,
            "time": 80.42425220416665,
            "value": 0.8503937007874016
          },
          {
            "number": 11,
            "time": 80.44210933958331,
            "value": 0.8740157480314961
          },
          {
            "number": 11,
            "time": 80.45996647499997,
            "value": 0.889763779527559
          },
          {
            "number": 11,
            "time": 80.47782361041664,
            "value": 0.9133858267716536
          },
          {
            "number": 11,
            "time": 80.4956807458333,
            "value": 0.9291338582677166
          },
          {
            "number": 11,
            "time": 80.51353788124996,
            "value": 0.952755905511811
          },
          {
            "number": 11,
            "time": 80.5321093020833,
            "value": 0.9606299212598425
          },
          {
            "number": 11,
            "time": 80.54996643749996,
            "value": 0.9763779527559056
          },
          {
            "number": 11,
            "time": 80.56782357291662,
            "value": 0.984251968503937
          },
          {
            "number": 11,
            "time": 80.58568070833329,
            "value": 0.9921259842519685
          },
          {
            "number": 11,
            "time": 80.71068065624995,
            "value": 1
          },
          {
            "number": 11,
            "time": 81.77068021458328,
            "value": 0.9921259842519685
          },
          {
            "number": 11,
            "time": 81.78853734999994,
            "value": 0.9763779527559056
          },
          {
            "number": 11,
            "time": 81.8063944854166,
            "value": 0.968503937007874
          },
          {
            "number": 11,
            "time": 81.82425162083327,
            "value": 0.9606299212598425
          },
          {
            "number": 11,
            "time": 81.84210875624993,
            "value": 0.952755905511811
          },
          {
            "number": 11,
            "time": 82.00282297499993,
            "value": 0.9606299212598425
          },
          {
            "number": 11,
            "time": 82.02139439583327,
            "value": 0.968503937007874
          },
          {
            "number": 11,
            "time": 82.03925153124993,
            "value": 0.984251968503937
          },
          {
            "number": 11,
            "time": 82.0571086666666,
            "value": 0.9921259842519685
          },
          {
            "number": 11,
            "time": 82.1642514791666,
            "value": 1
          },
          {
            "number": 11,
            "time": 83.17210820208327,
            "value": 0.984251968503937
          },
          {
            "number": 11,
            "time": 83.18996533749993,
            "value": 0.968503937007874
          },
          {
            "number": 11,
            "time": 83.20782247291659,
            "value": 0.9448818897637795
          },
          {
            "number": 11,
            "time": 83.22567960833325,
            "value": 0.9212598425196851
          },
          {
            "number": 11,
            "time": 83.24353674374991,
            "value": 0.889763779527559
          },
          {
            "number": 11,
            "time": 83.26139387916658,
            "value": 0.8661417322834646
          },
          {
            "number": 11,
            "time": 83.27925101458324,
            "value": 0.8503937007874016
          },
          {
            "number": 11,
            "time": 83.2971081499999,
            "value": 0.84251968503937
          },
          {
            "number": 11,
            "time": 83.4406795187499,
            "value": 0.8503937007874016
          },
          {
            "number": 11,
            "time": 83.45853665416656,
            "value": 0.8740157480314961
          },
          {
            "number": 11,
            "time": 83.47639378958323,
            "value": 0.889763779527559
          },
          {
            "number": 11,
            "time": 83.49425092499989,
            "value": 0.8976377952755905
          },
          {
            "number": 11,
            "time": 83.51210806041655,
            "value": 0.905511811023622
          },
          {
            "number": 11,
            "time": 83.52996519583321,
            "value": 0.9133858267716536
          },
          {
            "number": 11,
            "time": 83.54782233124988,
            "value": 0.9291338582677166
          },
          {
            "number": 11,
            "time": 83.56567946666654,
            "value": 0.937007874015748
          },
          {
            "number": 11,
            "time": 83.58425088749988,
            "value": 0.9448818897637795
          },
          {
            "number": 11,
            "time": 83.60210802291654,
            "value": 0.952755905511811
          },
          {
            "number": 11,
            "time": 83.6199651583332,
            "value": 0.9606299212598425
          },
          {
            "number": 11,
            "time": 83.63782229374986,
            "value": 0.968503937007874
          },
          {
            "number": 11,
            "time": 83.65567942916653,
            "value": 0.984251968503937
          },
          {
            "number": 11,
            "time": 83.67353656458319,
            "value": 0.9921259842519685
          },
          {
            "number": 11,
            "time": 83.95996501666652,
            "value": 1
          },
          {
            "number": 11,
            "time": 84.35710770833319,
            "value": 0.9921259842519685
          },
          {
            "number": 11,
            "time": 84.37496484374985,
            "value": 0.968503937007874
          },
          {
            "number": 11,
            "time": 84.39282197916651,
            "value": 0.937007874015748
          },
          {
            "number": 11,
            "time": 84.41067911458317,
            "value": 0.9133858267716536
          },
          {
            "number": 11,
            "time": 84.42853624999984,
            "value": 0.8818897637795275
          },
          {
            "number": 11,
            "time": 84.4463933854165,
            "value": 0.8582677165354331
          },
          {
            "number": 11,
            "time": 84.46425052083316,
            "value": 0.8346456692913385
          },
          {
            "number": 11,
            "time": 84.48210765624982,
            "value": 0.8110236220472441
          },
          {
            "number": 11,
            "time": 84.49996479166649,
            "value": 0.7952755905511811
          },
          {
            "number": 11,
            "time": 84.51782192708315,
            "value": 0.7874015748031497
          },
          {
            "number": 11,
            "time": 84.53567906249981,
            "value": 0.7795275590551181
          },
          {
            "number": 11,
            "time": 84.62567902499981,
            "value": 0.7874015748031497
          },
          {
            "number": 11,
            "time": 84.64353616041647,
            "value": 0.7952755905511811
          },
          {
            "number": 11,
            "time": 84.66139329583314,
            "value": 0.8031496062992126
          },
          {
            "number": 11,
            "time": 84.6792504312498,
            "value": 0.8188976377952756
          },
          {
            "number": 11,
            "time": 84.69710756666646,
            "value": 0.8267716535433071
          },
          {
            "number": 11,
            "time": 84.71496470208312,
            "value": 0.8346456692913385
          },
          {
            "number": 11,
            "time": 84.73282183749978,
            "value": 0.84251968503937
          },
          {
            "number": 11,
            "time": 84.75067897291645,
            "value": 0.8582677165354331
          },
          {
            "number": 11,
            "time": 84.76853610833311,
            "value": 0.8661417322834646
          },
          {
            "number": 11,
            "time": 84.78639324374977,
            "value": 0.8818897637795275
          },
          {
            "number": 11,
            "time": 84.80425037916643,
            "value": 0.889763779527559
          },
          {
            "number": 11,
            "time": 84.82282179999977,
            "value": 0.905511811023622
          },
          {
            "number": 11,
            "time": 84.84067893541643,
            "value": 0.9133858267716536
          },
          {
            "number": 11,
            "time": 84.8585360708331,
            "value": 0.9212598425196851
          },
          {
            "number": 11,
            "time": 84.87639320624976,
            "value": 0.9291338582677166
          },
          {
            "number": 11,
            "time": 84.89425034166642,
            "value": 0.937007874015748
          },
          {
            "number": 11,
            "time": 84.92996461249976,
            "value": 0.9448818897637795
          },
          {
            "number": 11,
            "time": 84.9656788833331,
            "value": 0.952755905511811
          },
          {
            "number": 11,
            "time": 84.98353601874976,
            "value": 0.9606299212598425
          },
          {
            "number": 11,
            "time": 85.0192502895831,
            "value": 0.968503937007874
          },
          {
            "number": 11,
            "time": 85.03710742499976,
            "value": 0.9763779527559056
          },
          {
            "number": 11,
            "time": 85.07353598124976,
            "value": 0.984251968503937
          },
          {
            "number": 11,
            "time": 85.09139311666642,
            "value": 0.9921259842519685
          },
          {
            "number": 11,
            "time": 85.23425019999976,
            "value": 1
          },
          {
            "number": 11,
            "time": 85.82853566666643,
            "value": 0.9921259842519685
          },
          {
            "number": 11,
            "time": 85.84639280208309,
            "value": 0.968503937007874
          },
          {
            "number": 11,
            "time": 85.86424993749975,
            "value": 0.9448818897637795
          },
          {
            "number": 11,
            "time": 85.88210707291641,
            "value": 0.9212598425196851
          },
          {
            "number": 11,
            "time": 85.89996420833307,
            "value": 0.8976377952755905
          },
          {
            "number": 11,
            "time": 85.91782134374974,
            "value": 0.8661417322834646
          },
          {
            "number": 11,
            "time": 85.9356784791664,
            "value": 0.84251968503937
          },
          {
            "number": 11,
            "time": 85.95353561458306,
            "value": 0.8188976377952756
          },
          {
            "number": 11,
            "time": 85.97139274999972,
            "value": 0.8110236220472441
          },
          {
            "number": 11,
            "time": 85.98924988541638,
            "value": 0.8031496062992126
          },
          {
            "number": 11,
            "time": 86.00710702083305,
            "value": 0.7952755905511811
          },
          {
            "number": 11,
            "time": 86.06139271249972,
            "value": 0.8031496062992126
          },
          {
            "number": 11,
            "time": 86.07924984791639,
            "value": 0.8267716535433071
          },
          {
            "number": 11,
            "time": 86.09710698333305,
            "value": 0.8503937007874016
          },
          {
            "number": 11,
            "time": 86.11496411874971,
            "value": 0.8740157480314961
          },
          {
            "number": 11,
            "time": 86.13282125416637,
            "value": 0.889763779527559
          },
          {
            "number": 11,
            "time": 86.15067838958304,
            "value": 0.8976377952755905
          },
          {
            "number": 11,
            "time": 86.1685355249997,
            "value": 0.9133858267716536
          },
          {
            "number": 11,
            "time": 86.18639266041636,
            "value": 0.9212598425196851
          },
          {
            "number": 11,
            "time": 86.20424979583302,
            "value": 0.9291338582677166
          },
          {
            "number": 11,
            "time": 86.22210693124968,
            "value": 0.937007874015748
          },
          {
            "number": 11,
            "time": 86.23996406666635,
            "value": 0.9448818897637795
          },
          {
            "number": 11,
            "time": 86.25782120208301,
            "value": 0.9606299212598425
          },
          {
            "number": 11,
            "time": 86.27567833749967,
            "value": 0.968503937007874
          },
          {
            "number": 11,
            "time": 86.29353547291633,
            "value": 0.9763779527559056
          },
          {
            "number": 11,
            "time": 86.311392608333,
            "value": 0.984251968503937
          },
          {
            "number": 11,
            "time": 86.32996402916633,
            "value": 0.9921259842519685
          },
          {
            "number": 11,
            "time": 86.43710684166633,
            "value": 1
          },
          {
            "number": 11,
            "time": 87.15639225624967,
            "value": 0.9921259842519685
          },
          {
            "number": 11,
            "time": 87.17424939166634,
            "value": 0.984251968503937
          },
          {
            "number": 11,
            "time": 87.192106527083,
            "value": 0.968503937007874
          },
          {
            "number": 11,
            "time": 87.20996366249966,
            "value": 0.9606299212598425
          },
          {
            "number": 11,
            "time": 87.22782079791632,
            "value": 0.952755905511811
          },
          {
            "number": 11,
            "time": 87.28139220416632,
            "value": 0.9448818897637795
          },
          {
            "number": 11,
            "time": 87.29924933958299,
            "value": 0.937007874015748
          },
          {
            "number": 11,
            "time": 87.35353503124965,
            "value": 0.9448818897637795
          },
          {
            "number": 11,
            "time": 87.37139216666631,
            "value": 0.952755905511811
          },
          {
            "number": 11,
            "time": 87.38924930208297,
            "value": 0.9763779527559056
          },
          {
            "number": 11,
            "time": 87.40710643749964,
            "value": 0.9921259842519685
          },
          {
            "number": 11,
            "time": 87.4249635729163,
            "value": 1
          }
        ],
        "32": [
          {
            "number": 32,
            "time": 0.8571425,
            "value": 0
          }
        ]
      },
      "id": 14,
      "instrumentNumber": 48,
      "instrument": "string ensemble 1",
      "instrumentFamily": "ensemble",
      "channelNumber": 13,
      "isPercussion": false
    },
    {
      "startTime": 9.599996,
      "duration": 88.7999629999995,
      "length": 54,
      "notes": [
        {
          "name": "D4",
          "midi": 62,
          "time": 9.599996,
          "velocity": 0.9291338582677166,
          "duration": 2.0571420000000398
        },
        {
          "name": "F#4",
          "midi": 66,
          "time": 11.999995000000045,
          "velocity": 0.8267716535433071,
          "duration": 1.1999995000000307
        },
        {
          "name": "F4",
          "midi": 65,
          "time": 13.199994500000075,
          "velocity": 0.7874015748031497,
          "duration": 0.8571425000000144
        },
        {
          "name": "D#4",
          "midi": 63,
          "time": 14.05713700000009,
          "velocity": 0.8188976377952756,
          "duration": 0.6857140000000115
        },
        {
          "name": "C#4",
          "midi": 61,
          "time": 14.742851000000101,
          "velocity": 0.7952755905511811,
          "duration": 1.1999995000000183
        },
        {
          "name": "C#4",
          "midi": 61,
          "time": 15.94285050000012,
          "velocity": 0.84251968503937,
          "duration": 0.5142854999999997
        },
        {
          "name": "B3",
          "midi": 59,
          "time": 16.45713600000012,
          "velocity": 0.8188976377952756,
          "duration": 0.1714285000000011
        },
        {
          "name": "A#3",
          "midi": 58,
          "time": 16.62856450000012,
          "velocity": 0.7952755905511811,
          "duration": 0.1714285000000011
        },
        {
          "name": "D#3",
          "midi": 51,
          "time": 16.79999300000012,
          "velocity": 0.8267716535433071,
          "duration": 0.1714285000000011
        },
        {
          "name": "F#3",
          "midi": 54,
          "time": 16.971421500000123,
          "velocity": 0.8031496062992126,
          "duration": 0.1714285000000011
        },
        {
          "name": "F3",
          "midi": 53,
          "time": 17.142850000000124,
          "velocity": 0.8188976377952756,
          "duration": 0.17142849999999044
        },
        {
          "name": "C#3",
          "midi": 49,
          "time": 17.314278500000114,
          "velocity": 0.8346456692913385,
          "duration": 0.17142849999999754
        },
        {
          "name": "C4",
          "midi": 60,
          "time": 17.48570700000011,
          "velocity": 0.8188976377952756,
          "duration": 1.199999499999965
        },
        {
          "name": "D#4",
          "midi": 63,
          "time": 18.685706500000077,
          "velocity": 0.8110236220472441,
          "duration": 0.857142499999977
        },
        {
          "name": "F4",
          "midi": 65,
          "time": 19.542849000000054,
          "velocity": 0.8346456692913385,
          "duration": 0.6857139999999866
        },
        {
          "name": "F#4",
          "midi": 66,
          "time": 20.22856300000004,
          "velocity": 0.8346456692913385,
          "duration": 1.3714279999999661
        },
        {
          "name": "G#4",
          "midi": 68,
          "time": 21.599991000000006,
          "velocity": 0.84251968503937,
          "duration": 0.6857139999999902
        },
        {
          "name": "G4",
          "midi": 67,
          "time": 22.285704999999997,
          "velocity": 0.7952755905511811,
          "duration": 0.6857139999999831
        },
        {
          "name": "G#3",
          "midi": 56,
          "time": 44.91426699999998,
          "velocity": 0.6771653543307087,
          "duration": 2.7428560000000886
        },
        {
          "name": "G#3",
          "midi": 56,
          "time": 47.65712300000007,
          "velocity": 0.6850393700787402,
          "duration": 2.742856000000039
        },
        {
          "name": "F4",
          "midi": 65,
          "time": 50.39997900000011,
          "velocity": 0.6850393700787402,
          "duration": 2.7428560000000743
        },
        {
          "name": "G4",
          "midi": 67,
          "time": 53.14283500000018,
          "velocity": 0.7322834645669292,
          "duration": 2.7428560000000743
        },
        {
          "name": "A3",
          "midi": 57,
          "time": 55.88569100000026,
          "velocity": 0.6771653543307087,
          "duration": 2.7428560000000886
        },
        {
          "name": "G#3",
          "midi": 56,
          "time": 58.628547000000346,
          "velocity": 0.6850393700787402,
          "duration": 1.371428000000094
        },
        {
          "name": "G#3",
          "midi": 56,
          "time": 59.99997500000044,
          "velocity": 0.7322834645669292,
          "duration": 0.3428570000000235
        },
        {
          "name": "A#3",
          "midi": 58,
          "time": 60.34283200000046,
          "velocity": 0.7716535433070866,
          "duration": 0.3428570000000235
        },
        {
          "name": "C4",
          "midi": 60,
          "time": 60.68568900000049,
          "velocity": 0.7874015748031497,
          "duration": 0.3428570000000022
        },
        {
          "name": "D4",
          "midi": 62,
          "time": 61.02854600000049,
          "velocity": 0.8267716535433071,
          "duration": 0.3428570000000093
        },
        {
          "name": "C4",
          "midi": 60,
          "time": 61.3714030000005,
          "velocity": 0.8110236220472441,
          "duration": 1.3714280000000656
        },
        {
          "name": "A#3",
          "midi": 58,
          "time": 62.742831000000564,
          "velocity": 0.8582677165354331,
          "duration": 0.6857140000000328
        },
        {
          "name": "D#4",
          "midi": 63,
          "time": 63.4285450000006,
          "velocity": 0.8346456692913385,
          "duration": 0.6857139999999902
        },
        {
          "name": "G#4",
          "midi": 68,
          "time": 64.11425900000059,
          "velocity": 0.8188976377952756,
          "duration": 1.3714280000001509
        },
        {
          "name": "G4",
          "midi": 67,
          "time": 65.48568700000074,
          "velocity": 1,
          "duration": 0.6857140000001749
        },
        {
          "name": "D#4",
          "midi": 63,
          "time": 66.85711500000089,
          "velocity": 0.84251968503937,
          "duration": 1.3714279999999235
        },
        {
          "name": "C#4",
          "midi": 61,
          "time": 68.22854300000081,
          "velocity": 0.84251968503937,
          "duration": 1.371427999999895
        },
        {
          "name": "C#4",
          "midi": 61,
          "time": 69.5999710000007,
          "velocity": 0.8267716535433071,
          "duration": 0.6857139999998907
        },
        {
          "name": "F4",
          "midi": 65,
          "time": 70.2856850000006,
          "velocity": 0.8503937007874016,
          "duration": 0.6857139999998907
        },
        {
          "name": "F#4",
          "midi": 66,
          "time": 70.97139900000049,
          "velocity": 0.8110236220472441,
          "duration": 0.6857139999999333
        },
        {
          "name": "D#4",
          "midi": 63,
          "time": 71.65711300000042,
          "velocity": 0.7874015748031497,
          "duration": 0.6857139999999333
        },
        {
          "name": "F#4",
          "midi": 66,
          "time": 72.34282700000036,
          "velocity": 0.8503937007874016,
          "duration": 1.3714279999999235
        },
        {
          "name": "F4",
          "midi": 65,
          "time": 73.71425500000028,
          "velocity": 0.7952755905511811,
          "duration": 1.3714279999999093
        },
        {
          "name": "D#4",
          "midi": 63,
          "time": 75.08568300000019,
          "velocity": 0.8031496062992126,
          "duration": 1.371427999999895
        },
        {
          "name": "D#4",
          "midi": 63,
          "time": 76.45711100000008,
          "velocity": 0.8346456692913385,
          "duration": 1.3714279999998809
        },
        {
          "name": "D#4",
          "midi": 63,
          "time": 77.82853899999996,
          "velocity": 0.8267716535433071,
          "duration": 1.3714279999998524
        },
        {
          "name": "C#4",
          "midi": 61,
          "time": 79.19996699999982,
          "velocity": 0.7952755905511811,
          "duration": 0.3428569999999951
        },
        {
          "name": "C#4",
          "midi": 61,
          "time": 79.71425249999982,
          "velocity": 0.8031496062992126,
          "duration": 0.17142850000000465
        },
        {
          "name": "C#4",
          "midi": 61,
          "time": 80.05710949999981,
          "velocity": 0.84251968503937,
          "duration": 0.17142850000000465
        },
        {
          "name": "C#4",
          "midi": 61,
          "time": 80.39996649999978,
          "velocity": 0.8188976377952756,
          "duration": 1.5428564999999423
        },
        {
          "name": "F#4",
          "midi": 66,
          "time": 81.94282299999972,
          "velocity": 0.8503937007874016,
          "duration": 0.6857139999999902
        },
        {
          "name": "C#4",
          "midi": 61,
          "time": 82.62853699999971,
          "velocity": 0.84251968503937,
          "duration": 0.6857139999999617
        },
        {
          "name": "D#4",
          "midi": 63,
          "time": 83.31425099999967,
          "velocity": 0.8188976377952756,
          "duration": 1.371427999999952
        },
        {
          "name": "F4",
          "midi": 65,
          "time": 84.68567899999962,
          "velocity": 0.84251968503937,
          "duration": 1.371427999999952
        },
        {
          "name": "F#4",
          "midi": 66,
          "time": 86.05710699999958,
          "velocity": 0.8267716535433071,
          "duration": 1.3714279999999235
        },
        {
          "name": "F4",
          "midi": 65,
          "time": 87.4285349999995,
          "velocity": 0.7952755905511811,
          "duration": 1.3714279999999945
        }
      ],
      "controlChanges": {
        "7": [
          {
            "number": 7,
            "time": 0.9142853333333334,
            "value": 0.7874015748031497
          }
        ],
        "10": [
          {
            "number": 10,
            "time": 0.9142853333333334,
            "value": 0.47244094488188976
          }
        ],
        "11": [
          {
            "number": 11,
            "time": 9.613567422916667,
            "value": 0.29133858267716534
          },
          {
            "number": 11,
            "time": 9.631424558333334,
            "value": 0.30708661417322836
          },
          {
            "number": 11,
            "time": 9.649281693750002,
            "value": 0.31496062992125984
          },
          {
            "number": 11,
            "time": 9.667138829166669,
            "value": 0.33858267716535434
          },
          {
            "number": 11,
            "time": 9.684995964583337,
            "value": 0.3464566929133858
          },
          {
            "number": 11,
            "time": 9.702853100000004,
            "value": 0.3543307086614173
          },
          {
            "number": 11,
            "time": 9.720710235416671,
            "value": 0.36220472440944884
          },
          {
            "number": 11,
            "time": 9.738567370833339,
            "value": 0.3700787401574803
          },
          {
            "number": 11,
            "time": 9.756424506250006,
            "value": 0.3779527559055118
          },
          {
            "number": 11,
            "time": 9.79213877708334,
            "value": 0.3858267716535433
          },
          {
            "number": 11,
            "time": 9.827853047916673,
            "value": 0.3937007874015748
          },
          {
            "number": 11,
            "time": 9.884995881250006,
            "value": 0.4015748031496063
          },
          {
            "number": 11,
            "time": 9.902853016666674,
            "value": 0.4094488188976378
          },
          {
            "number": 11,
            "time": 9.920710152083341,
            "value": 0.4251968503937008
          },
          {
            "number": 11,
            "time": 9.938567287500009,
            "value": 0.4409448818897638
          },
          {
            "number": 11,
            "time": 9.956424422916676,
            "value": 0.44881889763779526
          },
          {
            "number": 11,
            "time": 9.974281558333344,
            "value": 0.4566929133858268
          },
          {
            "number": 11,
            "time": 9.992138693750011,
            "value": 0.4645669291338583
          },
          {
            "number": 11,
            "time": 10.009995829166678,
            "value": 0.47244094488188976
          },
          {
            "number": 11,
            "time": 10.027852964583346,
            "value": 0.48031496062992124
          },
          {
            "number": 11,
            "time": 10.045710100000013,
            "value": 0.4881889763779528
          },
          {
            "number": 11,
            "time": 10.06356723541668,
            "value": 0.49606299212598426
          },
          {
            "number": 11,
            "time": 10.117852927083348,
            "value": 0.5039370078740157
          },
          {
            "number": 11,
            "time": 10.153567197916681,
            "value": 0.5118110236220472
          },
          {
            "number": 11,
            "time": 10.189281468750014,
            "value": 0.5196850393700787
          },
          {
            "number": 11,
            "time": 10.207138604166682,
            "value": 0.5275590551181102
          },
          {
            "number": 11,
            "time": 10.224995739583349,
            "value": 0.5354330708661418
          },
          {
            "number": 11,
            "time": 10.242852875000017,
            "value": 0.5433070866141733
          },
          {
            "number": 11,
            "time": 10.260710010416684,
            "value": 0.5511811023622047
          },
          {
            "number": 11,
            "time": 10.278567145833351,
            "value": 0.5590551181102362
          },
          {
            "number": 11,
            "time": 10.296424281250019,
            "value": 0.5669291338582677
          },
          {
            "number": 11,
            "time": 10.314281416666686,
            "value": 0.5748031496062992
          },
          {
            "number": 11,
            "time": 10.38642424375002,
            "value": 0.5826771653543307
          },
          {
            "number": 11,
            "time": 10.422138514583352,
            "value": 0.5905511811023622
          },
          {
            "number": 11,
            "time": 10.475709920833353,
            "value": 0.5984251968503937
          },
          {
            "number": 11,
            "time": 10.49356705625002,
            "value": 0.6062992125984252
          },
          {
            "number": 11,
            "time": 10.511424191666688,
            "value": 0.6141732283464567
          },
          {
            "number": 11,
            "time": 10.529281327083355,
            "value": 0.6220472440944882
          },
          {
            "number": 11,
            "time": 10.547138462500023,
            "value": 0.6299212598425197
          },
          {
            "number": 11,
            "time": 10.56499559791669,
            "value": 0.6456692913385826
          },
          {
            "number": 11,
            "time": 10.582852733333358,
            "value": 0.6535433070866141
          },
          {
            "number": 11,
            "time": 10.601424154166692,
            "value": 0.6692913385826772
          },
          {
            "number": 11,
            "time": 10.619281289583359,
            "value": 0.6771653543307087
          },
          {
            "number": 11,
            "time": 10.637138425000026,
            "value": 0.6850393700787402
          },
          {
            "number": 11,
            "time": 10.67285269583336,
            "value": 0.6929133858267716
          },
          {
            "number": 11,
            "time": 10.708566966666693,
            "value": 0.7007874015748031
          },
          {
            "number": 11,
            "time": 10.744281237500026,
            "value": 0.7086614173228346
          },
          {
            "number": 11,
            "time": 10.762138372916693,
            "value": 0.7165354330708661
          },
          {
            "number": 11,
            "time": 10.815709779166694,
            "value": 0.7244094488188977
          },
          {
            "number": 11,
            "time": 10.833566914583361,
            "value": 0.7322834645669292
          },
          {
            "number": 11,
            "time": 10.869995470833361,
            "value": 0.7401574803149606
          },
          {
            "number": 11,
            "time": 10.887852606250028,
            "value": 0.7480314960629921
          },
          {
            "number": 11,
            "time": 10.941424012500029,
            "value": 0.7559055118110236
          },
          {
            "number": 11,
            "time": 10.977138283333362,
            "value": 0.7637795275590551
          },
          {
            "number": 11,
            "time": 11.012852554166695,
            "value": 0.7716535433070866
          },
          {
            "number": 11,
            "time": 11.051423966666695,
            "value": 0.7795275590551181
          },
          {
            "number": 11,
            "time": 11.087852522916695,
            "value": 0.7874015748031497
          },
          {
            "number": 11,
            "time": 11.105709658333362,
            "value": 0.7952755905511811
          },
          {
            "number": 11,
            "time": 11.141423929166695,
            "value": 0.8031496062992126
          },
          {
            "number": 11,
            "time": 11.159281064583363,
            "value": 0.8110236220472441
          },
          {
            "number": 11,
            "time": 11.17713820000003,
            "value": 0.8188976377952756
          },
          {
            "number": 11,
            "time": 11.194995335416698,
            "value": 0.8267716535433071
          },
          {
            "number": 11,
            "time": 11.212852470833365,
            "value": 0.8346456692913385
          },
          {
            "number": 11,
            "time": 11.230709606250032,
            "value": 0.84251968503937
          },
          {
            "number": 11,
            "time": 11.2485667416667,
            "value": 0.8503937007874016
          },
          {
            "number": 11,
            "time": 11.266423877083367,
            "value": 0.8582677165354331
          },
          {
            "number": 11,
            "time": 11.284281012500035,
            "value": 0.8661417322834646
          },
          {
            "number": 11,
            "time": 11.302138147916702,
            "value": 0.8740157480314961
          },
          {
            "number": 11,
            "time": 11.320709568750036,
            "value": 0.8818897637795275
          },
          {
            "number": 11,
            "time": 11.338566704166704,
            "value": 0.905511811023622
          },
          {
            "number": 11,
            "time": 11.356423839583371,
            "value": 0.9212598425196851
          },
          {
            "number": 11,
            "time": 11.374280975000039,
            "value": 0.9448818897637795
          },
          {
            "number": 11,
            "time": 11.392138110416706,
            "value": 0.968503937007874
          },
          {
            "number": 11,
            "time": 11.409995245833374,
            "value": 0.9921259842519685
          },
          {
            "number": 11,
            "time": 11.427852381250041,
            "value": 1
          },
          {
            "number": 11,
            "time": 11.75999510000004,
            "value": 0.7480314960629921
          },
          {
            "number": 11,
            "time": 11.777852235416708,
            "value": 0.7322834645669292
          },
          {
            "number": 11,
            "time": 11.795709370833375,
            "value": 0.7244094488188977
          },
          {
            "number": 11,
            "time": 11.813566506250043,
            "value": 0.7165354330708661
          },
          {
            "number": 11,
            "time": 11.939280739583376,
            "value": 0.6377952755905512
          },
          {
            "number": 11,
            "time": 11.957137875000043,
            "value": 0.6456692913385826
          },
          {
            "number": 11,
            "time": 11.97499501041671,
            "value": 0.6614173228346457
          },
          {
            "number": 11,
            "time": 11.992852145833378,
            "value": 0.6771653543307087
          },
          {
            "number": 11,
            "time": 12.010709281250044,
            "value": 0.6929133858267716
          },
          {
            "number": 11,
            "time": 12.028566416666711,
            "value": 0.7165354330708661
          },
          {
            "number": 11,
            "time": 12.046423552083379,
            "value": 0.7244094488188977
          },
          {
            "number": 11,
            "time": 12.064280687500046,
            "value": 0.7322834645669292
          },
          {
            "number": 11,
            "time": 12.082137822916714,
            "value": 0.7401574803149606
          },
          {
            "number": 11,
            "time": 12.117852093750047,
            "value": 0.7480314960629921
          },
          {
            "number": 11,
            "time": 12.154280650000047,
            "value": 0.7559055118110236
          },
          {
            "number": 11,
            "time": 12.207852056250047,
            "value": 0.7637795275590551
          },
          {
            "number": 11,
            "time": 12.225709191666715,
            "value": 0.7716535433070866
          },
          {
            "number": 11,
            "time": 12.243566327083382,
            "value": 0.7795275590551181
          },
          {
            "number": 11,
            "time": 12.279280597916715,
            "value": 0.7874015748031497
          },
          {
            "number": 11,
            "time": 12.297137733333383,
            "value": 0.7952755905511811
          },
          {
            "number": 11,
            "time": 12.31499486875005,
            "value": 0.8031496062992126
          },
          {
            "number": 11,
            "time": 12.332852004166718,
            "value": 0.8110236220472441
          },
          {
            "number": 11,
            "time": 12.36856627500005,
            "value": 0.8188976377952756
          },
          {
            "number": 11,
            "time": 12.387137695833385,
            "value": 0.8267716535433071
          },
          {
            "number": 11,
            "time": 12.404994831250052,
            "value": 0.8346456692913385
          },
          {
            "number": 11,
            "time": 12.440709102083385,
            "value": 0.84251968503937
          },
          {
            "number": 11,
            "time": 12.458566237500053,
            "value": 0.8503937007874016
          },
          {
            "number": 11,
            "time": 12.47642337291672,
            "value": 0.8582677165354331
          },
          {
            "number": 11,
            "time": 12.494280508333388,
            "value": 0.8661417322834646
          },
          {
            "number": 11,
            "time": 12.512137643750055,
            "value": 0.8740157480314961
          },
          {
            "number": 11,
            "time": 12.565709050000056,
            "value": 0.8818897637795275
          },
          {
            "number": 11,
            "time": 12.583566185416723,
            "value": 0.889763779527559
          },
          {
            "number": 11,
            "time": 12.637137591666724,
            "value": 0.8976377952755905
          },
          {
            "number": 11,
            "time": 12.655709012500058,
            "value": 0.905511811023622
          },
          {
            "number": 11,
            "time": 12.673566147916725,
            "value": 0.9133858267716536
          },
          {
            "number": 11,
            "time": 12.691423283333393,
            "value": 0.9212598425196851
          },
          {
            "number": 11,
            "time": 12.798566095833392,
            "value": 0.9133858267716536
          },
          {
            "number": 11,
            "time": 12.81642323125006,
            "value": 0.8976377952755905
          },
          {
            "number": 11,
            "time": 12.834280366666727,
            "value": 0.8740157480314961
          },
          {
            "number": 11,
            "time": 12.852137502083394,
            "value": 0.8503937007874016
          },
          {
            "number": 11,
            "time": 12.869994637500062,
            "value": 0.8346456692913385
          },
          {
            "number": 11,
            "time": 12.88785177291673,
            "value": 0.8110236220472441
          },
          {
            "number": 11,
            "time": 12.906423193750063,
            "value": 0.7952755905511811
          },
          {
            "number": 11,
            "time": 12.92428032916673,
            "value": 0.7874015748031497
          },
          {
            "number": 11,
            "time": 12.944994606250065,
            "value": 0.7637795275590551
          },
          {
            "number": 11,
            "time": 12.962851741666732,
            "value": 0.7480314960629921
          },
          {
            "number": 11,
            "time": 12.9807088770834,
            "value": 0.7244094488188977
          },
          {
            "number": 11,
            "time": 12.998566012500067,
            "value": 0.7007874015748031
          },
          {
            "number": 11,
            "time": 13.016423147916734,
            "value": 0.6771653543307087
          },
          {
            "number": 11,
            "time": 13.034280283333402,
            "value": 0.6614173228346457
          },
          {
            "number": 11,
            "time": 13.05213741875007,
            "value": 0.6377952755905512
          },
          {
            "number": 11,
            "time": 13.069994554166737,
            "value": 0.6220472440944882
          },
          {
            "number": 11,
            "time": 13.087851689583404,
            "value": 0.5984251968503937
          },
          {
            "number": 11,
            "time": 13.105708825000072,
            "value": 0.5826771653543307
          },
          {
            "number": 11,
            "time": 13.124280245833406,
            "value": 0.5669291338582677
          },
          {
            "number": 11,
            "time": 13.142137381250073,
            "value": 0.5511811023622047
          },
          {
            "number": 11,
            "time": 13.15999451666674,
            "value": 0.5433070866141733
          },
          {
            "number": 11,
            "time": 13.177851652083408,
            "value": 0.5354330708661418
          },
          {
            "number": 11,
            "time": 13.28499446458341,
            "value": 0.5433070866141733
          },
          {
            "number": 11,
            "time": 13.302851600000077,
            "value": 0.5511811023622047
          },
          {
            "number": 11,
            "time": 13.320708735416744,
            "value": 0.5590551181102362
          },
          {
            "number": 11,
            "time": 13.338565870833412,
            "value": 0.5826771653543307
          },
          {
            "number": 11,
            "time": 13.356423006250079,
            "value": 0.5905511811023622
          },
          {
            "number": 11,
            "time": 13.374994427083413,
            "value": 0.5984251968503937
          },
          {
            "number": 11,
            "time": 13.39285156250008,
            "value": 0.6141732283464567
          },
          {
            "number": 11,
            "time": 13.410708697916748,
            "value": 0.6220472440944882
          },
          {
            "number": 11,
            "time": 13.428565833333415,
            "value": 0.6299212598425197
          },
          {
            "number": 11,
            "time": 13.446422968750083,
            "value": 0.6377952755905512
          },
          {
            "number": 11,
            "time": 13.46428010416675,
            "value": 0.6456692913385826
          },
          {
            "number": 11,
            "time": 13.482137239583418,
            "value": 0.6535433070866141
          },
          {
            "number": 11,
            "time": 13.499994375000085,
            "value": 0.6614173228346457
          },
          {
            "number": 11,
            "time": 13.571422916666751,
            "value": 0.6692913385826772
          },
          {
            "number": 11,
            "time": 13.589280052083419,
            "value": 0.6771653543307087
          },
          {
            "number": 11,
            "time": 13.643565743750086,
            "value": 0.6850393700787402
          },
          {
            "number": 11,
            "time": 13.661422879166754,
            "value": 0.6929133858267716
          },
          {
            "number": 11,
            "time": 13.697137150000087,
            "value": 0.7007874015748031
          },
          {
            "number": 11,
            "time": 13.714994285416754,
            "value": 0.7086614173228346
          },
          {
            "number": 11,
            "time": 13.768565691666755,
            "value": 0.7165354330708661
          },
          {
            "number": 11,
            "time": 13.786422827083422,
            "value": 0.7244094488188977
          },
          {
            "number": 11,
            "time": 13.822137097916755,
            "value": 0.7322834645669292
          },
          {
            "number": 11,
            "time": 13.839994233333423,
            "value": 0.7401574803149606
          },
          {
            "number": 11,
            "time": 13.875708504166756,
            "value": 0.7480314960629921
          },
          {
            "number": 11,
            "time": 13.89427992500009,
            "value": 0.7559055118110236
          },
          {
            "number": 11,
            "time": 14.072851279166755,
            "value": 0.7637795275590551
          },
          {
            "number": 11,
            "time": 14.112136977083422,
            "value": 0.7716535433070866
          },
          {
            "number": 11,
            "time": 14.219279789583421,
            "value": 0.7795275590551181
          },
          {
            "number": 11,
            "time": 14.32642260208342,
            "value": 0.7716535433070866
          },
          {
            "number": 11,
            "time": 14.344279737500088,
            "value": 0.7480314960629921
          },
          {
            "number": 11,
            "time": 14.362851158333422,
            "value": 0.7244094488188977
          },
          {
            "number": 11,
            "time": 14.38070829375009,
            "value": 0.6929133858267716
          },
          {
            "number": 11,
            "time": 14.398565429166757,
            "value": 0.6771653543307087
          },
          {
            "number": 11,
            "time": 14.416422564583424,
            "value": 0.6614173228346457
          },
          {
            "number": 11,
            "time": 14.434279700000092,
            "value": 0.6456692913385826
          },
          {
            "number": 11,
            "time": 14.45213683541676,
            "value": 0.6377952755905512
          },
          {
            "number": 11,
            "time": 14.469993970833427,
            "value": 0.6220472440944882
          },
          {
            "number": 11,
            "time": 14.487851106250094,
            "value": 0.6141732283464567
          },
          {
            "number": 11,
            "time": 14.505708241666762,
            "value": 0.5984251968503937
          },
          {
            "number": 11,
            "time": 14.523565377083429,
            "value": 0.5826771653543307
          },
          {
            "number": 11,
            "time": 14.541422512500096,
            "value": 0.5669291338582677
          },
          {
            "number": 11,
            "time": 14.559279647916764,
            "value": 0.5511811023622047
          },
          {
            "number": 11,
            "time": 14.577136783333431,
            "value": 0.5354330708661418
          },
          {
            "number": 11,
            "time": 14.594993918750099,
            "value": 0.5196850393700787
          },
          {
            "number": 11,
            "time": 14.612851054166766,
            "value": 0.5118110236220472
          },
          {
            "number": 11,
            "time": 14.6314224750001,
            "value": 0.5039370078740157
          },
          {
            "number": 11,
            "time": 14.649279610416768,
            "value": 0.49606299212598426
          },
          {
            "number": 11,
            "time": 14.809993829166768,
            "value": 0.5039370078740157
          },
          {
            "number": 11,
            "time": 14.827850964583435,
            "value": 0.5118110236220472
          },
          {
            "number": 11,
            "time": 14.845708100000103,
            "value": 0.5275590551181102
          },
          {
            "number": 11,
            "time": 14.86356523541677,
            "value": 0.5354330708661418
          },
          {
            "number": 11,
            "time": 14.882136656250104,
            "value": 0.5433070866141733
          },
          {
            "number": 11,
            "time": 14.899993791666772,
            "value": 0.5511811023622047
          },
          {
            "number": 11,
            "time": 14.917850927083439,
            "value": 0.5590551181102362
          },
          {
            "number": 11,
            "time": 14.935708062500106,
            "value": 0.5669291338582677
          },
          {
            "number": 11,
            "time": 14.953565197916774,
            "value": 0.5748031496062992
          },
          {
            "number": 11,
            "time": 14.971422333333441,
            "value": 0.5826771653543307
          },
          {
            "number": 11,
            "time": 14.989279468750109,
            "value": 0.5905511811023622
          },
          {
            "number": 11,
            "time": 15.04285087500011,
            "value": 0.5984251968503937
          },
          {
            "number": 11,
            "time": 15.060708010416777,
            "value": 0.6062992125984252
          },
          {
            "number": 11,
            "time": 15.09642228125011,
            "value": 0.6141732283464567
          },
          {
            "number": 11,
            "time": 15.13285083750011,
            "value": 0.6220472440944882
          },
          {
            "number": 11,
            "time": 15.168565108333443,
            "value": 0.6299212598425197
          },
          {
            "number": 11,
            "time": 15.18642224375011,
            "value": 0.6377952755905512
          },
          {
            "number": 11,
            "time": 15.222136514583443,
            "value": 0.6456692913385826
          },
          {
            "number": 11,
            "time": 15.260707927083443,
            "value": 0.6535433070866141
          },
          {
            "number": 11,
            "time": 15.27856506250011,
            "value": 0.6614173228346457
          },
          {
            "number": 11,
            "time": 15.314279333333443,
            "value": 0.6692913385826772
          },
          {
            "number": 11,
            "time": 15.332136468750111,
            "value": 0.6771653543307087
          },
          {
            "number": 11,
            "time": 15.350707889583445,
            "value": 0.6850393700787402
          },
          {
            "number": 11,
            "time": 15.368565025000112,
            "value": 0.6929133858267716
          },
          {
            "number": 11,
            "time": 15.404279295833446,
            "value": 0.7007874015748031
          },
          {
            "number": 11,
            "time": 15.422136431250113,
            "value": 0.7086614173228346
          },
          {
            "number": 11,
            "time": 15.457850702083446,
            "value": 0.7165354330708661
          },
          {
            "number": 11,
            "time": 15.475707837500114,
            "value": 0.7244094488188977
          },
          {
            "number": 11,
            "time": 15.529279243750114,
            "value": 0.7322834645669292
          },
          {
            "number": 11,
            "time": 15.564993514583447,
            "value": 0.7401574803149606
          },
          {
            "number": 11,
            "time": 15.582850650000115,
            "value": 0.7480314960629921
          },
          {
            "number": 11,
            "time": 15.637136341666782,
            "value": 0.7559055118110236
          },
          {
            "number": 11,
            "time": 15.65499347708345,
            "value": 0.7637795275590551
          },
          {
            "number": 11,
            "time": 15.672850612500117,
            "value": 0.7716535433070866
          },
          {
            "number": 11,
            "time": 15.869993387500116,
            "value": 0.7401574803149606
          },
          {
            "number": 11,
            "time": 15.887850522916784,
            "value": 0.7086614173228346
          },
          {
            "number": 11,
            "time": 15.905707658333451,
            "value": 0.6771653543307087
          },
          {
            "number": 11,
            "time": 15.923564793750119,
            "value": 0.6456692913385826
          },
          {
            "number": 11,
            "time": 15.941421929166786,
            "value": 0.6220472440944882
          },
          {
            "number": 11,
            "time": 15.959279064583454,
            "value": 0.5984251968503937
          },
          {
            "number": 11,
            "time": 15.977136200000121,
            "value": 0.5905511811023622
          },
          {
            "number": 11,
            "time": 15.994993335416789,
            "value": 0.5826771653543307
          },
          {
            "number": 11,
            "time": 16.012850470833456,
            "value": 0.5748031496062992
          },
          {
            "number": 11,
            "time": 16.03070760625012,
            "value": 0.5669291338582677
          },
          {
            "number": 11,
            "time": 16.048564741666787,
            "value": 0.5511811023622047
          },
          {
            "number": 11,
            "time": 16.263564652083453,
            "value": 0.5590551181102362
          },
          {
            "number": 11,
            "time": 16.299278922916788,
            "value": 0.5669291338582677
          },
          {
            "number": 11,
            "time": 16.317136058333453,
            "value": 0.5748031496062992
          },
          {
            "number": 11,
            "time": 16.370707464583454,
            "value": 0.5826771653543307
          },
          {
            "number": 11,
            "time": 16.389278885416786,
            "value": 0.5905511811023622
          },
          {
            "number": 11,
            "time": 16.445707433333453,
            "value": 0.5984251968503937
          },
          {
            "number": 11,
            "time": 16.499278839583454,
            "value": 0.6062992125984252
          },
          {
            "number": 11,
            "time": 16.624993072916787,
            "value": 0.6141732283464567
          },
          {
            "number": 11,
            "time": 16.660707343750122,
            "value": 0.6220472440944882
          },
          {
            "number": 11,
            "time": 16.714278750000123,
            "value": 0.6299212598425197
          },
          {
            "number": 11,
            "time": 16.78570729166679,
            "value": 0.6377952755905512
          },
          {
            "number": 11,
            "time": 17.108564300000122,
            "value": 0.6299212598425197
          },
          {
            "number": 11,
            "time": 17.144278570833457,
            "value": 0.6220472440944882
          },
          {
            "number": 11,
            "time": 17.162135706250123,
            "value": 0.6141732283464567
          },
          {
            "number": 11,
            "time": 17.179992841666788,
            "value": 0.6062992125984252
          },
          {
            "number": 11,
            "time": 17.197849977083454,
            "value": 0.5984251968503937
          },
          {
            "number": 11,
            "time": 17.21570711250012,
            "value": 0.5905511811023622
          },
          {
            "number": 11,
            "time": 17.233564247916785,
            "value": 0.5826771653543307
          },
          {
            "number": 11,
            "time": 17.25142138333345,
            "value": 0.5748031496062992
          },
          {
            "number": 11,
            "time": 17.269278518750117,
            "value": 0.5590551181102362
          },
          {
            "number": 11,
            "time": 17.287135654166782,
            "value": 0.5511811023622047
          },
          {
            "number": 11,
            "time": 17.304992789583448,
            "value": 0.5433070866141733
          },
          {
            "number": 11,
            "time": 17.34070706041678,
            "value": 0.5354330708661418
          },
          {
            "number": 11,
            "time": 17.448564158333447,
            "value": 0.5433070866141733
          },
          {
            "number": 11,
            "time": 17.466421293750113,
            "value": 0.5590551181102362
          },
          {
            "number": 11,
            "time": 17.48427842916678,
            "value": 0.5669291338582677
          },
          {
            "number": 11,
            "time": 17.502135564583444,
            "value": 0.5748031496062992
          },
          {
            "number": 11,
            "time": 17.51999270000011,
            "value": 0.5984251968503937
          },
          {
            "number": 11,
            "time": 17.537849835416775,
            "value": 0.6062992125984252
          },
          {
            "number": 11,
            "time": 17.55570697083344,
            "value": 0.6141732283464567
          },
          {
            "number": 11,
            "time": 17.573564106250107,
            "value": 0.6220472440944882
          },
          {
            "number": 11,
            "time": 17.594992668750105,
            "value": 0.6299212598425197
          },
          {
            "number": 11,
            "time": 17.61284980416677,
            "value": 0.6377952755905512
          },
          {
            "number": 11,
            "time": 17.630706939583437,
            "value": 0.6456692913385826
          },
          {
            "number": 11,
            "time": 17.648564075000102,
            "value": 0.6535433070866141
          },
          {
            "number": 11,
            "time": 17.666421210416768,
            "value": 0.6692913385826772
          },
          {
            "number": 11,
            "time": 17.684278345833434,
            "value": 0.6771653543307087
          },
          {
            "number": 11,
            "time": 17.7021354812501,
            "value": 0.6850393700787402
          },
          {
            "number": 11,
            "time": 17.719992616666765,
            "value": 0.6929133858267716
          },
          {
            "number": 11,
            "time": 17.73784975208343,
            "value": 0.7007874015748031
          },
          {
            "number": 11,
            "time": 17.755706887500097,
            "value": 0.7165354330708661
          },
          {
            "number": 11,
            "time": 17.773564022916762,
            "value": 0.7244094488188977
          },
          {
            "number": 11,
            "time": 17.791421158333428,
            "value": 0.7322834645669292
          },
          {
            "number": 11,
            "time": 17.809278293750094,
            "value": 0.7401574803149606
          },
          {
            "number": 11,
            "time": 17.82713542916676,
            "value": 0.7480314960629921
          },
          {
            "number": 11,
            "time": 17.84570685000009,
            "value": 0.7559055118110236
          },
          {
            "number": 11,
            "time": 17.863563985416757,
            "value": 0.7637795275590551
          },
          {
            "number": 11,
            "time": 17.899278256250092,
            "value": 0.7716535433070866
          },
          {
            "number": 11,
            "time": 17.917135391666758,
            "value": 0.7795275590551181
          },
          {
            "number": 11,
            "time": 17.952849662500093,
            "value": 0.7874015748031497
          },
          {
            "number": 11,
            "time": 17.97070679791676,
            "value": 0.7952755905511811
          },
          {
            "number": 11,
            "time": 17.988563933333424,
            "value": 0.8031496062992126
          },
          {
            "number": 11,
            "time": 18.02427820416676,
            "value": 0.8110236220472441
          },
          {
            "number": 11,
            "time": 18.042135339583425,
            "value": 0.8188976377952756
          },
          {
            "number": 11,
            "time": 18.05999247500009,
            "value": 0.8267716535433071
          },
          {
            "number": 11,
            "time": 18.077849610416756,
            "value": 0.8346456692913385
          },
          {
            "number": 11,
            "time": 18.096421031250088,
            "value": 0.84251968503937
          },
          {
            "number": 11,
            "time": 18.132135302083423,
            "value": 0.8503937007874016
          },
          {
            "number": 11,
            "time": 18.364992347916758,
            "value": 0.84251968503937
          },
          {
            "number": 11,
            "time": 18.382849483333423,
            "value": 0.8267716535433071
          },
          {
            "number": 11,
            "time": 18.40070661875009,
            "value": 0.8188976377952756
          },
          {
            "number": 11,
            "time": 18.418563754166755,
            "value": 0.8110236220472441
          },
          {
            "number": 11,
            "time": 18.43642088958342,
            "value": 0.7952755905511811
          },
          {
            "number": 11,
            "time": 18.454278025000086,
            "value": 0.7795275590551181
          },
          {
            "number": 11,
            "time": 18.47213516041675,
            "value": 0.7716535433070866
          },
          {
            "number": 11,
            "time": 18.489992295833417,
            "value": 0.7637795275590551
          },
          {
            "number": 11,
            "time": 18.507849431250083,
            "value": 0.7559055118110236
          },
          {
            "number": 11,
            "time": 18.52570656666675,
            "value": 0.7480314960629921
          },
          {
            "number": 11,
            "time": 18.543563702083414,
            "value": 0.7401574803149606
          },
          {
            "number": 11,
            "time": 18.56142083750008,
            "value": 0.7322834645669292
          },
          {
            "number": 11,
            "time": 18.597135108333415,
            "value": 0.7244094488188977
          },
          {
            "number": 11,
            "time": 18.615706529166747,
            "value": 0.7165354330708661
          },
          {
            "number": 11,
            "time": 18.633563664583413,
            "value": 0.6929133858267716
          },
          {
            "number": 11,
            "time": 18.65142080000008,
            "value": 0.6850393700787402
          },
          {
            "number": 11,
            "time": 18.669277935416744,
            "value": 0.6692913385826772
          },
          {
            "number": 11,
            "time": 18.68713507083341,
            "value": 0.6614173228346457
          },
          {
            "number": 11,
            "time": 18.704992206250076,
            "value": 0.6377952755905512
          },
          {
            "number": 11,
            "time": 18.72284934166674,
            "value": 0.6220472440944882
          },
          {
            "number": 11,
            "time": 18.743563618750073,
            "value": 0.6062992125984252
          },
          {
            "number": 11,
            "time": 18.76142075416674,
            "value": 0.5984251968503937
          },
          {
            "number": 11,
            "time": 18.851420716666738,
            "value": 0.6220472440944882
          },
          {
            "number": 11,
            "time": 18.869277852083403,
            "value": 0.6377952755905512
          },
          {
            "number": 11,
            "time": 18.88713498750007,
            "value": 0.6614173228346457
          },
          {
            "number": 11,
            "time": 18.904992122916735,
            "value": 0.6850393700787402
          },
          {
            "number": 11,
            "time": 18.9228492583334,
            "value": 0.6929133858267716
          },
          {
            "number": 11,
            "time": 18.940706393750066,
            "value": 0.7086614173228346
          },
          {
            "number": 11,
            "time": 18.95856352916673,
            "value": 0.7165354330708661
          },
          {
            "number": 11,
            "time": 18.976420664583397,
            "value": 0.7322834645669292
          },
          {
            "number": 11,
            "time": 18.994277800000063,
            "value": 0.7480314960629921
          },
          {
            "number": 11,
            "time": 19.01213493541673,
            "value": 0.7559055118110236
          },
          {
            "number": 11,
            "time": 19.029992070833394,
            "value": 0.7637795275590551
          },
          {
            "number": 11,
            "time": 19.04784920625006,
            "value": 0.7874015748031497
          },
          {
            "number": 11,
            "time": 19.065706341666726,
            "value": 0.7952755905511811
          },
          {
            "number": 11,
            "time": 19.084277762500058,
            "value": 0.8031496062992126
          },
          {
            "number": 11,
            "time": 19.102134897916724,
            "value": 0.8110236220472441
          },
          {
            "number": 11,
            "time": 19.11999203333339,
            "value": 0.8188976377952756
          },
          {
            "number": 11,
            "time": 19.137849168750055,
            "value": 0.8267716535433071
          },
          {
            "number": 11,
            "time": 19.15570630416672,
            "value": 0.8346456692913385
          },
          {
            "number": 11,
            "time": 19.173563439583386,
            "value": 0.84251968503937
          },
          {
            "number": 11,
            "time": 19.20927771041672,
            "value": 0.8503937007874016
          },
          {
            "number": 11,
            "time": 19.227134845833387,
            "value": 0.8582677165354331
          },
          {
            "number": 11,
            "time": 19.26284911666672,
            "value": 0.8661417322834646
          },
          {
            "number": 11,
            "time": 19.280706252083387,
            "value": 0.8740157480314961
          },
          {
            "number": 11,
            "time": 19.298563387500053,
            "value": 0.8818897637795275
          },
          {
            "number": 11,
            "time": 19.31642052291672,
            "value": 0.889763779527559
          },
          {
            "number": 11,
            "time": 19.35284907916672,
            "value": 0.8976377952755905
          },
          {
            "number": 11,
            "time": 19.370706214583386,
            "value": 0.905511811023622
          },
          {
            "number": 11,
            "time": 19.40642048541672,
            "value": 0.9133858267716536
          },
          {
            "number": 11,
            "time": 19.424277620833386,
            "value": 0.9212598425196851
          },
          {
            "number": 11,
            "time": 19.442134756250052,
            "value": 0.9291338582677166
          },
          {
            "number": 11,
            "time": 19.477849027083387,
            "value": 0.937007874015748
          },
          {
            "number": 11,
            "time": 19.495706162500053,
            "value": 0.9448818897637795
          },
          {
            "number": 11,
            "time": 19.531420433333388,
            "value": 0.952755905511811
          },
          {
            "number": 11,
            "time": 19.549277568750053,
            "value": 0.9606299212598425
          },
          {
            "number": 11,
            "time": 19.799991750000054,
            "value": 0.952755905511811
          },
          {
            "number": 11,
            "time": 19.83570602083339,
            "value": 0.9448818897637795
          },
          {
            "number": 11,
            "time": 19.96427739583339,
            "value": 0.937007874015748
          },
          {
            "number": 11,
            "time": 19.982134531250054,
            "value": 0.9291338582677166
          },
          {
            "number": 11,
            "time": 19.99999166666672,
            "value": 0.9212598425196851
          },
          {
            "number": 11,
            "time": 20.017848802083385,
            "value": 0.905511811023622
          },
          {
            "number": 11,
            "time": 20.03570593750005,
            "value": 0.889763779527559
          },
          {
            "number": 11,
            "time": 20.053563072916717,
            "value": 0.8818897637795275
          },
          {
            "number": 11,
            "time": 20.07213449375005,
            "value": 0.8661417322834646
          },
          {
            "number": 11,
            "time": 20.089991629166715,
            "value": 0.8582677165354331
          },
          {
            "number": 11,
            "time": 20.10784876458338,
            "value": 0.8346456692913385
          },
          {
            "number": 11,
            "time": 20.125705900000046,
            "value": 0.8188976377952756
          },
          {
            "number": 11,
            "time": 20.14356303541671,
            "value": 0.8031496062992126
          },
          {
            "number": 11,
            "time": 20.161420170833377,
            "value": 0.7795275590551181
          },
          {
            "number": 11,
            "time": 20.179277306250043,
            "value": 0.7637795275590551
          },
          {
            "number": 11,
            "time": 20.19713444166671,
            "value": 0.7480314960629921
          },
          {
            "number": 11,
            "time": 20.214991577083374,
            "value": 0.7401574803149606
          },
          {
            "number": 11,
            "time": 20.32284867500004,
            "value": 0.7480314960629921
          },
          {
            "number": 11,
            "time": 20.340705810416704,
            "value": 0.7559055118110236
          },
          {
            "number": 11,
            "time": 20.35856294583337,
            "value": 0.7795275590551181
          },
          {
            "number": 11,
            "time": 20.376420081250036,
            "value": 0.7952755905511811
          },
          {
            "number": 11,
            "time": 20.3942772166667,
            "value": 0.8031496062992126
          },
          {
            "number": 11,
            "time": 20.412134352083367,
            "value": 0.8110236220472441
          },
          {
            "number": 11,
            "time": 20.429991487500033,
            "value": 0.8188976377952756
          },
          {
            "number": 11,
            "time": 20.4478486229167,
            "value": 0.84251968503937
          },
          {
            "number": 11,
            "time": 20.465705758333364,
            "value": 0.8503937007874016
          },
          {
            "number": 11,
            "time": 20.48356289375003,
            "value": 0.8582677165354331
          },
          {
            "number": 11,
            "time": 20.501420029166695,
            "value": 0.8661417322834646
          },
          {
            "number": 11,
            "time": 20.51927716458336,
            "value": 0.8740157480314961
          },
          {
            "number": 11,
            "time": 20.537134300000027,
            "value": 0.8818897637795275
          },
          {
            "number": 11,
            "time": 20.554991435416692,
            "value": 0.889763779527559
          },
          {
            "number": 11,
            "time": 20.591419991666694,
            "value": 0.8976377952755905
          },
          {
            "number": 11,
            "time": 20.60927712708336,
            "value": 0.905511811023622
          },
          {
            "number": 11,
            "time": 20.66284853333336,
            "value": 0.9133858267716536
          },
          {
            "number": 11,
            "time": 20.680705668750026,
            "value": 0.9212598425196851
          },
          {
            "number": 11,
            "time": 20.69856280416669,
            "value": 0.9291338582677166
          },
          {
            "number": 11,
            "time": 20.716419939583357,
            "value": 0.937007874015748
          },
          {
            "number": 11,
            "time": 20.734277075000023,
            "value": 0.9448818897637795
          },
          {
            "number": 11,
            "time": 20.75213421041669,
            "value": 0.952755905511811
          },
          {
            "number": 11,
            "time": 20.769991345833354,
            "value": 0.9606299212598425
          },
          {
            "number": 11,
            "time": 20.80570561666669,
            "value": 0.968503937007874
          },
          {
            "number": 11,
            "time": 20.823562752083355,
            "value": 0.9763779527559056
          },
          {
            "number": 11,
            "time": 20.913562714583353,
            "value": 0.984251968503937
          },
          {
            "number": 11,
            "time": 21.184991172916686,
            "value": 0.9763779527559056
          },
          {
            "number": 11,
            "time": 21.20284830833335,
            "value": 0.968503937007874
          },
          {
            "number": 11,
            "time": 21.220705443750017,
            "value": 0.952755905511811
          },
          {
            "number": 11,
            "time": 21.238562579166683,
            "value": 0.9291338582677166
          },
          {
            "number": 11,
            "time": 21.25641971458335,
            "value": 0.9133858267716536
          },
          {
            "number": 11,
            "time": 21.274276850000014,
            "value": 0.905511811023622
          },
          {
            "number": 11,
            "time": 21.29213398541668,
            "value": 0.889763779527559
          },
          {
            "number": 11,
            "time": 21.310705406250012,
            "value": 0.8818897637795275
          },
          {
            "number": 11,
            "time": 21.328562541666678,
            "value": 0.8740157480314961
          },
          {
            "number": 11,
            "time": 21.346419677083343,
            "value": 0.8661417322834646
          },
          {
            "number": 11,
            "time": 21.36427681250001,
            "value": 0.8582677165354331
          },
          {
            "number": 11,
            "time": 21.382133947916675,
            "value": 0.8503937007874016
          },
          {
            "number": 11,
            "time": 21.50713389583334,
            "value": 0.8582677165354331
          },
          {
            "number": 11,
            "time": 21.524991031250007,
            "value": 0.8661417322834646
          },
          {
            "number": 11,
            "time": 21.542848166666673,
            "value": 0.8740157480314961
          },
          {
            "number": 11,
            "time": 21.579276722916674,
            "value": 0.8818897637795275
          },
          {
            "number": 11,
            "time": 21.59713385833334,
            "value": 0.889763779527559
          },
          {
            "number": 11,
            "time": 21.614990993750006,
            "value": 0.8976377952755905
          },
          {
            "number": 11,
            "time": 21.63284812916667,
            "value": 0.9133858267716536
          },
          {
            "number": 11,
            "time": 21.650705264583337,
            "value": 0.9212598425196851
          },
          {
            "number": 11,
            "time": 21.668562400000003,
            "value": 0.9291338582677166
          },
          {
            "number": 11,
            "time": 21.68641953541667,
            "value": 0.937007874015748
          },
          {
            "number": 11,
            "time": 21.704276670833334,
            "value": 0.9448818897637795
          },
          {
            "number": 11,
            "time": 21.72213380625,
            "value": 0.952755905511811
          },
          {
            "number": 11,
            "time": 21.739990941666665,
            "value": 0.9606299212598425
          },
          {
            "number": 11,
            "time": 21.75784807708333,
            "value": 0.968503937007874
          },
          {
            "number": 11,
            "time": 21.775705212499997,
            "value": 0.9763779527559056
          },
          {
            "number": 11,
            "time": 21.81141948333333,
            "value": 0.984251968503937
          },
          {
            "number": 11,
            "time": 21.829990904166664,
            "value": 0.9921259842519685
          },
          {
            "number": 11,
            "time": 22.09856222083333,
            "value": 1
          },
          {
            "number": 11,
            "time": 22.549276318749996,
            "value": 0.984251968503937
          },
          {
            "number": 11,
            "time": 22.56713345416666,
            "value": 0.968503937007874
          },
          {
            "number": 11,
            "time": 22.584990589583327,
            "value": 0.9448818897637795
          },
          {
            "number": 11,
            "time": 22.602847724999993,
            "value": 0.9291338582677166
          },
          {
            "number": 11,
            "time": 22.62070486041666,
            "value": 0.9133858267716536
          },
          {
            "number": 11,
            "time": 22.638561995833324,
            "value": 0.8976377952755905
          },
          {
            "number": 11,
            "time": 22.65641913124999,
            "value": 0.8818897637795275
          },
          {
            "number": 11,
            "time": 22.674276266666656,
            "value": 0.8740157480314961
          },
          {
            "number": 11,
            "time": 22.69213340208332,
            "value": 0.8503937007874016
          },
          {
            "number": 11,
            "time": 22.709990537499987,
            "value": 0.84251968503937
          },
          {
            "number": 11,
            "time": 22.727847672916653,
            "value": 0.8267716535433071
          },
          {
            "number": 11,
            "time": 22.74570480833332,
            "value": 0.8110236220472441
          },
          {
            "number": 11,
            "time": 22.763561943749984,
            "value": 0.7952755905511811
          },
          {
            "number": 11,
            "time": 22.78141907916665,
            "value": 0.7795275590551181
          },
          {
            "number": 11,
            "time": 22.799276214583315,
            "value": 0.7716535433070866
          },
          {
            "number": 11,
            "time": 22.817847635416648,
            "value": 0.7637795275590551
          },
          {
            "number": 11,
            "time": 22.835704770833313,
            "value": 0.7559055118110236
          },
          {
            "number": 11,
            "time": 22.85356190624998,
            "value": 0.7480314960629921
          },
          {
            "number": 11,
            "time": 44.85640988124998,
            "value": 0.7322834645669292
          },
          {
            "number": 11,
            "time": 44.90998128749998,
            "value": 0.7401574803149606
          },
          {
            "number": 11,
            "time": 44.92783842291665,
            "value": 0.7480314960629921
          },
          {
            "number": 11,
            "time": 44.94569555833332,
            "value": 0.7559055118110236
          },
          {
            "number": 11,
            "time": 44.96355269374999,
            "value": 0.7637795275590551
          },
          {
            "number": 11,
            "time": 45.01783838541665,
            "value": 0.7716535433070866
          },
          {
            "number": 11,
            "time": 45.03569552083332,
            "value": 0.7795275590551181
          },
          {
            "number": 11,
            "time": 45.07140979166665,
            "value": 0.7874015748031497
          },
          {
            "number": 11,
            "time": 45.107124062499985,
            "value": 0.7952755905511811
          },
          {
            "number": 11,
            "time": 45.124981197916654,
            "value": 0.8031496062992126
          },
          {
            "number": 11,
            "time": 45.16355261041665,
            "value": 0.8110236220472441
          },
          {
            "number": 11,
            "time": 45.18140974583332,
            "value": 0.8188976377952756
          },
          {
            "number": 11,
            "time": 45.21783830208332,
            "value": 0.8267716535433071
          },
          {
            "number": 11,
            "time": 45.23569543749999,
            "value": 0.8346456692913385
          },
          {
            "number": 11,
            "time": 45.25355257291666,
            "value": 0.84251968503937
          },
          {
            "number": 11,
            "time": 45.30712397916666,
            "value": 0.8503937007874016
          },
          {
            "number": 11,
            "time": 45.34283824999999,
            "value": 0.8582677165354331
          },
          {
            "number": 11,
            "time": 45.378552520833324,
            "value": 0.8661417322834646
          },
          {
            "number": 11,
            "time": 45.449981062499994,
            "value": 0.8740157480314961
          },
          {
            "number": 11,
            "time": 45.486409618749995,
            "value": 0.8818897637795275
          },
          {
            "number": 11,
            "time": 45.557838160416665,
            "value": 0.889763779527559
          },
          {
            "number": 11,
            "time": 45.59355243125,
            "value": 0.8976377952755905
          },
          {
            "number": 11,
            "time": 45.62926670208333,
            "value": 0.905511811023622
          },
          {
            "number": 11,
            "time": 45.66498097291666,
            "value": 0.9133858267716536
          },
          {
            "number": 11,
            "time": 45.68283810833333,
            "value": 0.9212598425196851
          },
          {
            "number": 11,
            "time": 45.71855237916666,
            "value": 0.9291338582677166
          },
          {
            "number": 11,
            "time": 45.73712379999999,
            "value": 0.937007874015748
          },
          {
            "number": 11,
            "time": 45.80855234166666,
            "value": 0.9448818897637795
          },
          {
            "number": 11,
            "time": 45.87998088333333,
            "value": 0.952755905511811
          },
          {
            "number": 11,
            "time": 45.91569515416666,
            "value": 0.9606299212598425
          },
          {
            "number": 11,
            "time": 45.93355228958333,
            "value": 0.968503937007874
          },
          {
            "number": 11,
            "time": 45.951409425,
            "value": 0.9763779527559056
          },
          {
            "number": 11,
            "time": 45.96926656041667,
            "value": 0.984251968503937
          },
          {
            "number": 11,
            "time": 45.98783798125,
            "value": 0.9921259842519685
          },
          {
            "number": 11,
            "time": 46.023552252083334,
            "value": 1
          },
          {
            "number": 11,
            "time": 46.50998062083333,
            "value": 0.9921259842519685
          },
          {
            "number": 11,
            "time": 46.52783775625,
            "value": 0.984251968503937
          },
          {
            "number": 11,
            "time": 46.54569489166667,
            "value": 0.9763779527559056
          },
          {
            "number": 11,
            "time": 46.56355202708334,
            "value": 0.968503937007874
          },
          {
            "number": 11,
            "time": 46.58140916250001,
            "value": 0.9606299212598425
          },
          {
            "number": 11,
            "time": 46.59926629791668,
            "value": 0.9448818897637795
          },
          {
            "number": 11,
            "time": 46.615694862500014,
            "value": 0.937007874015748
          },
          {
            "number": 11,
            "time": 46.63498056875002,
            "value": 0.9212598425196851
          },
          {
            "number": 11,
            "time": 46.652837704166686,
            "value": 0.9133858267716536
          },
          {
            "number": 11,
            "time": 46.670694839583355,
            "value": 0.905511811023622
          },
          {
            "number": 11,
            "time": 46.688551975000024,
            "value": 0.8976377952755905
          },
          {
            "number": 11,
            "time": 46.70640911041669,
            "value": 0.8818897637795275
          },
          {
            "number": 11,
            "time": 46.724980531250026,
            "value": 0.8740157480314961
          },
          {
            "number": 11,
            "time": 46.742837666666695,
            "value": 0.8661417322834646
          },
          {
            "number": 11,
            "time": 46.760694802083364,
            "value": 0.8582677165354331
          },
          {
            "number": 11,
            "time": 46.77855193750003,
            "value": 0.8503937007874016
          },
          {
            "number": 11,
            "time": 46.7964090729167,
            "value": 0.84251968503937
          },
          {
            "number": 11,
            "time": 46.81426620833337,
            "value": 0.8346456692913385
          },
          {
            "number": 11,
            "time": 46.83212334375004,
            "value": 0.8267716535433071
          },
          {
            "number": 11,
            "time": 46.84998047916671,
            "value": 0.8188976377952756
          },
          {
            "number": 11,
            "time": 46.90355188541671,
            "value": 0.8110236220472441
          },
          {
            "number": 11,
            "time": 46.93926615625004,
            "value": 0.8031496062992126
          },
          {
            "number": 11,
            "time": 46.993551847916706,
            "value": 0.7952755905511811
          },
          {
            "number": 11,
            "time": 47.011408983333375,
            "value": 0.7874015748031497
          },
          {
            "number": 11,
            "time": 47.047123254166706,
            "value": 0.7795275590551181
          },
          {
            "number": 11,
            "time": 47.064980389583376,
            "value": 0.7716535433070866
          },
          {
            "number": 11,
            "time": 47.10069466041671,
            "value": 0.7637795275590551
          },
          {
            "number": 11,
            "time": 47.118551795833376,
            "value": 0.7559055118110236
          },
          {
            "number": 11,
            "time": 47.15426606666671,
            "value": 0.7480314960629921
          },
          {
            "number": 11,
            "time": 47.17212320208338,
            "value": 0.7401574803149606
          },
          {
            "number": 11,
            "time": 47.189980337500046,
            "value": 0.7322834645669292
          },
          {
            "number": 11,
            "time": 47.24426602916671,
            "value": 0.7244094488188977
          },
          {
            "number": 11,
            "time": 47.26212316458338,
            "value": 0.7165354330708661
          },
          {
            "number": 11,
            "time": 47.27998030000005,
            "value": 0.7086614173228346
          },
          {
            "number": 11,
            "time": 47.29783743541672,
            "value": 0.7007874015748031
          },
          {
            "number": 11,
            "time": 47.33355170625005,
            "value": 0.6929133858267716
          },
          {
            "number": 11,
            "time": 47.35140884166672,
            "value": 0.6850393700787402
          },
          {
            "number": 11,
            "time": 47.36926597708339,
            "value": 0.6771653543307087
          },
          {
            "number": 11,
            "time": 47.387123112500056,
            "value": 0.6692913385826772
          },
          {
            "number": 11,
            "time": 47.404980247916725,
            "value": 0.6614173228346457
          },
          {
            "number": 11,
            "time": 47.422837383333395,
            "value": 0.6535433070866141
          },
          {
            "number": 11,
            "time": 47.533551622916725,
            "value": 0.6614173228346457
          },
          {
            "number": 11,
            "time": 47.551408758333395,
            "value": 0.6692913385826772
          },
          {
            "number": 11,
            "time": 47.569265893750064,
            "value": 0.6771653543307087
          },
          {
            "number": 11,
            "time": 47.604980164583395,
            "value": 0.6850393700787402
          },
          {
            "number": 11,
            "time": 47.622837300000064,
            "value": 0.6929133858267716
          },
          {
            "number": 11,
            "time": 47.640694435416734,
            "value": 0.7007874015748031
          },
          {
            "number": 11,
            "time": 47.65712300000007,
            "value": 0.7086614173228346
          },
          {
            "number": 11,
            "time": 47.67640870625007,
            "value": 0.7165354330708661
          },
          {
            "number": 11,
            "time": 47.69426584166674,
            "value": 0.7244094488188977
          },
          {
            "number": 11,
            "time": 47.712837262500074,
            "value": 0.7322834645669292
          },
          {
            "number": 11,
            "time": 47.72855154166674,
            "value": 0.7480314960629921
          },
          {
            "number": 11,
            "time": 47.748551533333405,
            "value": 0.7559055118110236
          },
          {
            "number": 11,
            "time": 47.766408668750074,
            "value": 0.7637795275590551
          },
          {
            "number": 11,
            "time": 47.79998008333341,
            "value": 0.7716535433070866
          },
          {
            "number": 11,
            "time": 47.819980075000075,
            "value": 0.7795275590551181
          },
          {
            "number": 11,
            "time": 47.873551481250075,
            "value": 0.7874015748031497
          },
          {
            "number": 11,
            "time": 47.891408616666745,
            "value": 0.7952755905511811
          },
          {
            "number": 11,
            "time": 47.927122887500076,
            "value": 0.8031496062992126
          },
          {
            "number": 11,
            "time": 47.944980022916745,
            "value": 0.8110236220472441
          },
          {
            "number": 11,
            "time": 47.98140857916675,
            "value": 0.8188976377952756
          },
          {
            "number": 11,
            "time": 48.03497998541675,
            "value": 0.8267716535433071
          },
          {
            "number": 11,
            "time": 48.15997993333341,
            "value": 0.8346456692913385
          },
          {
            "number": 11,
            "time": 48.19569420416674,
            "value": 0.84251968503937
          },
          {
            "number": 11,
            "time": 48.23212276041674,
            "value": 0.8503937007874016
          },
          {
            "number": 11,
            "time": 48.24997989583341,
            "value": 0.8582677165354331
          },
          {
            "number": 11,
            "time": 48.285694166666744,
            "value": 0.8661417322834646
          },
          {
            "number": 11,
            "time": 48.321408437500075,
            "value": 0.8740157480314961
          },
          {
            "number": 11,
            "time": 48.339265572916744,
            "value": 0.8818897637795275
          },
          {
            "number": 11,
            "time": 48.374979843750076,
            "value": 0.889763779527559
          },
          {
            "number": 11,
            "time": 48.41069411458341,
            "value": 0.8976377952755905
          },
          {
            "number": 11,
            "time": 48.46426552083341,
            "value": 0.905511811023622
          },
          {
            "number": 11,
            "time": 48.53640834791674,
            "value": 0.9133858267716536
          },
          {
            "number": 11,
            "time": 48.57212261875007,
            "value": 0.9212598425196851
          },
          {
            "number": 11,
            "time": 48.627122595833406,
            "value": 0.9291338582677166
          },
          {
            "number": 11,
            "time": 48.64355116041674,
            "value": 0.937007874015748
          },
          {
            "number": 11,
            "time": 48.69997970833341,
            "value": 0.9448818897637795
          },
          {
            "number": 11,
            "time": 48.733551122916744,
            "value": 0.952755905511811
          },
          {
            "number": 11,
            "time": 48.85997964166674,
            "value": 0.9606299212598425
          },
          {
            "number": 11,
            "time": 48.89569391250007,
            "value": 0.968503937007874
          },
          {
            "number": 11,
            "time": 48.9485510333334,
            "value": 0.9763779527559056
          },
          {
            "number": 11,
            "time": 48.98426530416673,
            "value": 0.984251968503937
          },
          {
            "number": 11,
            "time": 49.00497958125007,
            "value": 0.9921259842519685
          },
          {
            "number": 11,
            "time": 49.4714079583334,
            "value": 0.984251968503937
          },
          {
            "number": 11,
            "time": 49.48926509375007,
            "value": 0.9763779527559056
          },
          {
            "number": 11,
            "time": 49.5249793645834,
            "value": 0.968503937007874
          },
          {
            "number": 11,
            "time": 49.54283650000007,
            "value": 0.9606299212598425
          },
          {
            "number": 11,
            "time": 49.56069363541674,
            "value": 0.952755905511811
          },
          {
            "number": 11,
            "time": 49.57855077083341,
            "value": 0.937007874015748
          },
          {
            "number": 11,
            "time": 49.59640790625008,
            "value": 0.9291338582677166
          },
          {
            "number": 11,
            "time": 49.61497932708341,
            "value": 0.9212598425196851
          },
          {
            "number": 11,
            "time": 49.63283646250008,
            "value": 0.9133858267716536
          },
          {
            "number": 11,
            "time": 49.65069359791675,
            "value": 0.905511811023622
          },
          {
            "number": 11,
            "time": 49.68640786875008,
            "value": 0.8976377952755905
          },
          {
            "number": 11,
            "time": 49.70426500416675,
            "value": 0.889763779527559
          },
          {
            "number": 11,
            "time": 49.72212213958342,
            "value": 0.8818897637795275
          },
          {
            "number": 11,
            "time": 49.73997927500009,
            "value": 0.8740157480314961
          },
          {
            "number": 11,
            "time": 49.75783641041676,
            "value": 0.8661417322834646
          },
          {
            "number": 11,
            "time": 49.77569354583343,
            "value": 0.8582677165354331
          },
          {
            "number": 11,
            "time": 49.814264958333425,
            "value": 0.8503937007874016
          },
          {
            "number": 11,
            "time": 49.832122093750094,
            "value": 0.84251968503937
          },
          {
            "number": 11,
            "time": 49.8471220875001,
            "value": 0.8346456692913385
          },
          {
            "number": 11,
            "time": 49.868550650000095,
            "value": 0.8267716535433071
          },
          {
            "number": 11,
            "time": 49.88426492916676,
            "value": 0.8188976377952756
          },
          {
            "number": 11,
            "time": 49.90140777916676,
            "value": 0.8031496062992126
          },
          {
            "number": 11,
            "time": 49.91997920000009,
            "value": 0.7952755905511811
          },
          {
            "number": 11,
            "time": 49.93997919166676,
            "value": 0.7874015748031497
          },
          {
            "number": 11,
            "time": 49.95712204166676,
            "value": 0.7795275590551181
          },
          {
            "number": 11,
            "time": 49.974979177083426,
            "value": 0.7716535433070866
          },
          {
            "number": 11,
            "time": 50.009264877083424,
            "value": 0.7637795275590551
          },
          {
            "number": 11,
            "time": 50.02783629791676,
            "value": 0.7559055118110236
          },
          {
            "number": 11,
            "time": 50.04712200416676,
            "value": 0.7480314960629921
          },
          {
            "number": 11,
            "time": 50.13497911041676,
            "value": 0.7401574803149606
          },
          {
            "number": 11,
            "time": 50.17283623750009,
            "value": 0.7322834645669292
          },
          {
            "number": 11,
            "time": 50.208550508333424,
            "value": 0.7086614173228346
          },
          {
            "number": 11,
            "time": 50.22640764375009,
            "value": 0.7007874015748031
          },
          {
            "number": 11,
            "time": 50.24426477916676,
            "value": 0.6929133858267716
          },
          {
            "number": 11,
            "time": 50.26212191458343,
            "value": 0.6771653543307087
          },
          {
            "number": 11,
            "time": 50.2799790500001,
            "value": 0.6692913385826772
          },
          {
            "number": 11,
            "time": 50.29783618541677,
            "value": 0.6614173228346457
          },
          {
            "number": 11,
            "time": 50.38783614791677,
            "value": 0.6771653543307087
          },
          {
            "number": 11,
            "time": 50.40569328333344,
            "value": 0.6929133858267716
          },
          {
            "number": 11,
            "time": 50.42355041875011,
            "value": 0.7165354330708661
          },
          {
            "number": 11,
            "time": 50.44140755416678,
            "value": 0.7322834645669292
          },
          {
            "number": 11,
            "time": 50.45926468958345,
            "value": 0.7559055118110236
          },
          {
            "number": 11,
            "time": 50.47712182500012,
            "value": 0.7637795275590551
          },
          {
            "number": 11,
            "time": 50.49497896041679,
            "value": 0.7716535433070866
          },
          {
            "number": 11,
            "time": 50.51283609583346,
            "value": 0.7874015748031497
          },
          {
            "number": 11,
            "time": 50.530693231250126,
            "value": 0.7952755905511811
          },
          {
            "number": 11,
            "time": 50.548550366666795,
            "value": 0.8110236220472441
          },
          {
            "number": 11,
            "time": 50.566407502083464,
            "value": 0.8188976377952756
          },
          {
            "number": 11,
            "time": 50.584264637500134,
            "value": 0.8267716535433071
          },
          {
            "number": 11,
            "time": 50.602836058333466,
            "value": 0.8346456692913385
          },
          {
            "number": 11,
            "time": 50.620693193750135,
            "value": 0.84251968503937
          },
          {
            "number": 11,
            "time": 50.638550329166804,
            "value": 0.8503937007874016
          },
          {
            "number": 11,
            "time": 50.656407464583474,
            "value": 0.8582677165354331
          },
          {
            "number": 11,
            "time": 50.692121735416805,
            "value": 0.8661417322834646
          },
          {
            "number": 11,
            "time": 50.709978870833474,
            "value": 0.8740157480314961
          },
          {
            "number": 11,
            "time": 50.763550277083475,
            "value": 0.8818897637795275
          },
          {
            "number": 11,
            "time": 50.781407412500144,
            "value": 0.889763779527559
          },
          {
            "number": 11,
            "time": 50.834978818750145,
            "value": 0.8976377952755905
          },
          {
            "number": 11,
            "time": 50.852835954166814,
            "value": 0.905511811023622
          },
          {
            "number": 11,
            "time": 50.889264510416815,
            "value": 0.9212598425196851
          },
          {
            "number": 11,
            "time": 50.907121645833485,
            "value": 0.9291338582677166
          },
          {
            "number": 11,
            "time": 50.924978781250154,
            "value": 0.937007874015748
          },
          {
            "number": 11,
            "time": 50.94283591666682,
            "value": 0.9448818897637795
          },
          {
            "number": 11,
            "time": 51.15783582708349,
            "value": 0.952755905511811
          },
          {
            "number": 11,
            "time": 51.22926436875016,
            "value": 0.9606299212598425
          },
          {
            "number": 11,
            "time": 51.715692737500156,
            "value": 0.952755905511811
          },
          {
            "number": 11,
            "time": 51.733549872916825,
            "value": 0.9448818897637795
          },
          {
            "number": 11,
            "time": 51.751407008333494,
            "value": 0.937007874015748
          },
          {
            "number": 11,
            "time": 51.787121279166826,
            "value": 0.9291338582677166
          },
          {
            "number": 11,
            "time": 51.804978414583495,
            "value": 0.9212598425196851
          },
          {
            "number": 11,
            "time": 51.822835550000164,
            "value": 0.9133858267716536
          },
          {
            "number": 11,
            "time": 51.84069268541683,
            "value": 0.905511811023622
          },
          {
            "number": 11,
            "time": 51.8949783770835,
            "value": 0.8976377952755905
          },
          {
            "number": 11,
            "time": 51.912835512500166,
            "value": 0.889763779527559
          },
          {
            "number": 11,
            "time": 51.984264054166836,
            "value": 0.8818897637795275
          },
          {
            "number": 11,
            "time": 52.01997832500017,
            "value": 0.8740157480314961
          },
          {
            "number": 11,
            "time": 52.07354973125017,
            "value": 0.8661417322834646
          },
          {
            "number": 11,
            "time": 52.12783542291683,
            "value": 0.8582677165354331
          },
          {
            "number": 11,
            "time": 52.21712110000016,
            "value": 0.8503937007874016
          },
          {
            "number": 11,
            "time": 52.28854964166683,
            "value": 0.84251968503937
          },
          {
            "number": 11,
            "time": 52.324263912500165,
            "value": 0.8346456692913385
          },
          {
            "number": 11,
            "time": 52.37854960416683,
            "value": 0.8267716535433071
          },
          {
            "number": 11,
            "time": 52.41426387500016,
            "value": 0.8188976377952756
          },
          {
            "number": 11,
            "time": 52.44997814583349,
            "value": 0.8110236220472441
          },
          {
            "number": 11,
            "time": 52.50640669375016,
            "value": 0.8031496062992126
          },
          {
            "number": 11,
            "time": 52.66783519791682,
            "value": 0.7952755905511811
          },
          {
            "number": 11,
            "time": 52.72140660416682,
            "value": 0.7874015748031497
          },
          {
            "number": 11,
            "time": 52.757120875000155,
            "value": 0.7795275590551181
          },
          {
            "number": 11,
            "time": 52.774978010416824,
            "value": 0.7716535433070866
          },
          {
            "number": 11,
            "time": 52.79283514583349,
            "value": 0.7637795275590551
          },
          {
            "number": 11,
            "time": 52.81069228125016,
            "value": 0.7559055118110236
          },
          {
            "number": 11,
            "time": 52.829263702083495,
            "value": 0.7480314960629921
          },
          {
            "number": 11,
            "time": 52.847120837500164,
            "value": 0.7401574803149606
          },
          {
            "number": 11,
            "time": 52.86497797291683,
            "value": 0.7322834645669292
          },
          {
            "number": 11,
            "time": 52.8828351083335,
            "value": 0.7244094488188977
          },
          {
            "number": 11,
            "time": 52.91854937916683,
            "value": 0.7165354330708661
          },
          {
            "number": 11,
            "time": 53.025692191666835,
            "value": 0.7244094488188977
          },
          {
            "number": 11,
            "time": 53.043549327083504,
            "value": 0.7401574803149606
          },
          {
            "number": 11,
            "time": 53.06140646250017,
            "value": 0.7480314960629921
          },
          {
            "number": 11,
            "time": 53.07926359791684,
            "value": 0.7716535433070866
          },
          {
            "number": 11,
            "time": 53.097835018750175,
            "value": 0.7874015748031497
          },
          {
            "number": 11,
            "time": 53.115692154166844,
            "value": 0.7952755905511811
          },
          {
            "number": 11,
            "time": 53.13354928958351,
            "value": 0.8110236220472441
          },
          {
            "number": 11,
            "time": 53.15140642500018,
            "value": 0.8188976377952756
          },
          {
            "number": 11,
            "time": 53.16926356041685,
            "value": 0.8267716535433071
          },
          {
            "number": 11,
            "time": 53.18712069583352,
            "value": 0.8346456692913385
          },
          {
            "number": 11,
            "time": 53.20497783125019,
            "value": 0.84251968503937
          },
          {
            "number": 11,
            "time": 53.22283496666686,
            "value": 0.8503937007874016
          },
          {
            "number": 11,
            "time": 53.25854923750019,
            "value": 0.8582677165354331
          },
          {
            "number": 11,
            "time": 53.384263470833524,
            "value": 0.8661417322834646
          },
          {
            "number": 11,
            "time": 53.419977741666855,
            "value": 0.8740157480314961
          },
          {
            "number": 11,
            "time": 53.437834877083525,
            "value": 0.8818897637795275
          },
          {
            "number": 11,
            "time": 53.455692012500194,
            "value": 0.889763779527559
          },
          {
            "number": 11,
            "time": 53.491406283333525,
            "value": 0.8976377952755905
          },
          {
            "number": 11,
            "time": 53.527120554166856,
            "value": 0.905511811023622
          },
          {
            "number": 11,
            "time": 53.61712051666686,
            "value": 0.9133858267716536
          },
          {
            "number": 11,
            "time": 53.63497765208353,
            "value": 0.9212598425196851
          },
          {
            "number": 11,
            "time": 53.65569192916686,
            "value": 0.9291338582677166
          },
          {
            "number": 11,
            "time": 53.709263335416864,
            "value": 0.937007874015748
          },
          {
            "number": 11,
            "time": 53.72712047083353,
            "value": 0.9448818897637795
          },
          {
            "number": 11,
            "time": 53.817120433333535,
            "value": 0.952755905511811
          },
          {
            "number": 11,
            "time": 54.42569160833354,
            "value": 0.9448818897637795
          },
          {
            "number": 11,
            "time": 54.443548743750206,
            "value": 0.937007874015748
          },
          {
            "number": 11,
            "time": 54.49712015000021,
            "value": 0.9291338582677166
          },
          {
            "number": 11,
            "time": 54.53283442083354,
            "value": 0.9212598425196851
          },
          {
            "number": 11,
            "time": 54.55069155625021,
            "value": 0.9133858267716536
          },
          {
            "number": 11,
            "time": 54.56854869166688,
            "value": 0.905511811023622
          },
          {
            "number": 11,
            "time": 54.60497724791688,
            "value": 0.8976377952755905
          },
          {
            "number": 11,
            "time": 54.62283438333355,
            "value": 0.889763779527559
          },
          {
            "number": 11,
            "time": 54.64069151875022,
            "value": 0.8818897637795275
          },
          {
            "number": 11,
            "time": 54.67640578958355,
            "value": 0.8740157480314961
          },
          {
            "number": 11,
            "time": 54.69426292500022,
            "value": 0.8661417322834646
          },
          {
            "number": 11,
            "time": 54.712120060416886,
            "value": 0.8582677165354331
          },
          {
            "number": 11,
            "time": 54.74783433125022,
            "value": 0.8503937007874016
          },
          {
            "number": 11,
            "time": 54.78354860208355,
            "value": 0.84251968503937
          },
          {
            "number": 11,
            "time": 54.85854857083355,
            "value": 0.8346456692913385
          },
          {
            "number": 11,
            "time": 54.91211997708355,
            "value": 0.8267716535433071
          },
          {
            "number": 11,
            "time": 54.92997711250022,
            "value": 0.8188976377952756
          },
          {
            "number": 11,
            "time": 54.96569138333355,
            "value": 0.8110236220472441
          },
          {
            "number": 11,
            "time": 54.98354851875022,
            "value": 0.8031496062992126
          },
          {
            "number": 11,
            "time": 55.00140565416689,
            "value": 0.7952755905511811
          },
          {
            "number": 11,
            "time": 55.03711992500022,
            "value": 0.7874015748031497
          },
          {
            "number": 11,
            "time": 55.05497706041689,
            "value": 0.7795275590551181
          },
          {
            "number": 11,
            "time": 55.07354848125022,
            "value": 0.7716535433070866
          },
          {
            "number": 11,
            "time": 55.10926275208355,
            "value": 0.7637795275590551
          },
          {
            "number": 11,
            "time": 55.14497702291688,
            "value": 0.7559055118110236
          },
          {
            "number": 11,
            "time": 55.21640556458355,
            "value": 0.7480314960629921
          },
          {
            "number": 11,
            "time": 55.252119835416885,
            "value": 0.7401574803149606
          },
          {
            "number": 11,
            "time": 55.34211979791689,
            "value": 0.7322834645669292
          },
          {
            "number": 11,
            "time": 55.39569120416689,
            "value": 0.7244094488188977
          },
          {
            "number": 11,
            "time": 55.413548339583556,
            "value": 0.7165354330708661
          },
          {
            "number": 11,
            "time": 55.431405475000226,
            "value": 0.6929133858267716
          },
          {
            "number": 11,
            "time": 55.449262610416895,
            "value": 0.6771653543307087
          },
          {
            "number": 11,
            "time": 55.467119745833564,
            "value": 0.6614173228346457
          },
          {
            "number": 11,
            "time": 55.48497688125023,
            "value": 0.6377952755905512
          },
          {
            "number": 11,
            "time": 55.5028340166669,
            "value": 0.6220472440944882
          },
          {
            "number": 11,
            "time": 55.52069115208357,
            "value": 0.6062992125984252
          },
          {
            "number": 11,
            "time": 55.53854828750024,
            "value": 0.5984251968503937
          },
          {
            "number": 11,
            "time": 55.55640542291691,
            "value": 0.5905511811023622
          },
          {
            "number": 11,
            "time": 55.57497684375024,
            "value": 0.5826771653543307
          },
          {
            "number": 11,
            "time": 55.753548197916906,
            "value": 0.5905511811023622
          },
          {
            "number": 11,
            "time": 55.771405333333576,
            "value": 0.5984251968503937
          },
          {
            "number": 11,
            "time": 55.789262468750245,
            "value": 0.6062992125984252
          },
          {
            "number": 11,
            "time": 55.807119604166914,
            "value": 0.6141732283464567
          },
          {
            "number": 11,
            "time": 55.82497673958358,
            "value": 0.6220472440944882
          },
          {
            "number": 11,
            "time": 55.843548160416915,
            "value": 0.6299212598425197
          },
          {
            "number": 11,
            "time": 55.861405295833585,
            "value": 0.6456692913385826
          },
          {
            "number": 11,
            "time": 55.879262431250254,
            "value": 0.6614173228346457
          },
          {
            "number": 11,
            "time": 55.89711956666692,
            "value": 0.6692913385826772
          },
          {
            "number": 11,
            "time": 55.91497670208359,
            "value": 0.6771653543307087
          },
          {
            "number": 11,
            "time": 55.950690972916924,
            "value": 0.6850393700787402
          },
          {
            "number": 11,
            "time": 55.97140525000026,
            "value": 0.6929133858267716
          },
          {
            "number": 11,
            "time": 55.98926238541693,
            "value": 0.7007874015748031
          },
          {
            "number": 11,
            "time": 56.0071195208336,
            "value": 0.7086614173228346
          },
          {
            "number": 11,
            "time": 56.02497665625027,
            "value": 0.7165354330708661
          },
          {
            "number": 11,
            "time": 56.0435480770836,
            "value": 0.7244094488188977
          },
          {
            "number": 11,
            "time": 56.06140521250027,
            "value": 0.7322834645669292
          },
          {
            "number": 11,
            "time": 56.13283375416694,
            "value": 0.7401574803149606
          },
          {
            "number": 11,
            "time": 56.16854802500027,
            "value": 0.7480314960629921
          },
          {
            "number": 11,
            "time": 56.18640516041694,
            "value": 0.7559055118110236
          },
          {
            "number": 11,
            "time": 56.25783370208361,
            "value": 0.7637795275590551
          },
          {
            "number": 11,
            "time": 56.27569083750028,
            "value": 0.7716535433070866
          },
          {
            "number": 11,
            "time": 56.36569080000028,
            "value": 0.7795275590551181
          },
          {
            "number": 11,
            "time": 56.40140507083361,
            "value": 0.7874015748031497
          },
          {
            "number": 11,
            "time": 56.47283361250028,
            "value": 0.7952755905511811
          },
          {
            "number": 11,
            "time": 56.50854788333361,
            "value": 0.8031496062992126
          },
          {
            "number": 11,
            "time": 56.705690658333616,
            "value": 0.8110236220472441
          },
          {
            "number": 11,
            "time": 57.099976208333615,
            "value": 0.8188976377952756
          },
          {
            "number": 11,
            "time": 57.13854762083361,
            "value": 0.8267716535433071
          },
          {
            "number": 11,
            "time": 57.15640475625028,
            "value": 0.8346456692913385
          },
          {
            "number": 11,
            "time": 57.245690433333614,
            "value": 0.84251968503937
          },
          {
            "number": 11,
            "time": 57.29997612500028,
            "value": 0.8503937007874016
          },
          {
            "number": 11,
            "time": 57.35354753125028,
            "value": 0.8582677165354331
          },
          {
            "number": 11,
            "time": 57.37140466666695,
            "value": 0.8661417322834646
          },
          {
            "number": 11,
            "time": 57.42497607291695,
            "value": 0.8740157480314961
          },
          {
            "number": 11,
            "time": 57.44283320833362,
            "value": 0.8818897637795275
          },
          {
            "number": 11,
            "time": 57.72926166041695,
            "value": 0.8740157480314961
          },
          {
            "number": 11,
            "time": 57.74711879583362,
            "value": 0.8661417322834646
          },
          {
            "number": 11,
            "time": 57.76497593125029,
            "value": 0.8582677165354331
          },
          {
            "number": 11,
            "time": 57.80140448750029,
            "value": 0.8503937007874016
          },
          {
            "number": 11,
            "time": 57.81926162291696,
            "value": 0.84251968503937
          },
          {
            "number": 11,
            "time": 57.83711875833363,
            "value": 0.8346456692913385
          },
          {
            "number": 11,
            "time": 57.8549758937503,
            "value": 0.8267716535433071
          },
          {
            "number": 11,
            "time": 57.87283302916697,
            "value": 0.8188976377952756
          },
          {
            "number": 11,
            "time": 57.9085473000003,
            "value": 0.8110236220472441
          },
          {
            "number": 11,
            "time": 57.92640443541697,
            "value": 0.8031496062992126
          },
          {
            "number": 11,
            "time": 57.9621187062503,
            "value": 0.7952755905511811
          },
          {
            "number": 11,
            "time": 57.97997584166697,
            "value": 0.7874015748031497
          },
          {
            "number": 11,
            "time": 57.99783297708364,
            "value": 0.7795275590551181
          },
          {
            "number": 11,
            "time": 58.01569011250031,
            "value": 0.7716535433070866
          },
          {
            "number": 11,
            "time": 58.03354724791698,
            "value": 0.7637795275590551
          },
          {
            "number": 11,
            "time": 58.05140438333365,
            "value": 0.7559055118110236
          },
          {
            "number": 11,
            "time": 58.06997580416698,
            "value": 0.7480314960629921
          },
          {
            "number": 11,
            "time": 58.08783293958365,
            "value": 0.7322834645669292
          },
          {
            "number": 11,
            "time": 58.10569007500032,
            "value": 0.7244094488188977
          },
          {
            "number": 11,
            "time": 58.14140434583365,
            "value": 0.7165354330708661
          },
          {
            "number": 11,
            "time": 58.15926148125032,
            "value": 0.7086614173228346
          },
          {
            "number": 11,
            "time": 58.21283288750032,
            "value": 0.7007874015748031
          },
          {
            "number": 11,
            "time": 58.23069002291699,
            "value": 0.6929133858267716
          },
          {
            "number": 11,
            "time": 58.24854715833366,
            "value": 0.6850393700787402
          },
          {
            "number": 11,
            "time": 58.287832856250326,
            "value": 0.6771653543307087
          },
          {
            "number": 11,
            "time": 58.39497566875033,
            "value": 0.6692913385826772
          },
          {
            "number": 11,
            "time": 58.466404210417,
            "value": 0.6771653543307087
          },
          {
            "number": 11,
            "time": 58.50211848125033,
            "value": 0.6850393700787402
          },
          {
            "number": 11,
            "time": 58.519975616667,
            "value": 0.6929133858267716
          },
          {
            "number": 11,
            "time": 58.53854703750033,
            "value": 0.7007874015748031
          },
          {
            "number": 11,
            "time": 58.556404172917,
            "value": 0.7165354330708661
          },
          {
            "number": 11,
            "time": 58.57426130833367,
            "value": 0.7244094488188977
          },
          {
            "number": 11,
            "time": 58.59211844375034,
            "value": 0.7401574803149606
          },
          {
            "number": 11,
            "time": 58.609975579167006,
            "value": 0.7480314960629921
          },
          {
            "number": 11,
            "time": 58.627832714583676,
            "value": 0.7559055118110236
          },
          {
            "number": 11,
            "time": 58.645689850000345,
            "value": 0.7637795275590551
          },
          {
            "number": 11,
            "time": 58.663546985417014,
            "value": 0.7795275590551181
          },
          {
            "number": 11,
            "time": 58.68140412083368,
            "value": 0.7874015748031497
          },
          {
            "number": 11,
            "time": 58.69926125625035,
            "value": 0.7952755905511811
          },
          {
            "number": 11,
            "time": 58.77068979791702,
            "value": 0.8031496062992126
          },
          {
            "number": 11,
            "time": 58.860689760417024,
            "value": 0.8110236220472441
          },
          {
            "number": 11,
            "time": 58.87854689583369,
            "value": 0.8188976377952756
          },
          {
            "number": 11,
            "time": 58.914261166667025,
            "value": 0.8267716535433071
          },
          {
            "number": 11,
            "time": 58.932118302083694,
            "value": 0.8346456692913385
          },
          {
            "number": 11,
            "time": 58.94997543750036,
            "value": 0.84251968503937
          },
          {
            "number": 11,
            "time": 58.985689708333695,
            "value": 0.8503937007874016
          },
          {
            "number": 11,
            "time": 59.003546843750364,
            "value": 0.8582677165354331
          },
          {
            "number": 11,
            "time": 59.02140397916703,
            "value": 0.8661417322834646
          },
          {
            "number": 11,
            "time": 59.111403941667035,
            "value": 0.8740157480314961
          },
          {
            "number": 11,
            "time": 59.164975347917036,
            "value": 0.8818897637795275
          },
          {
            "number": 11,
            "time": 59.20068961875037,
            "value": 0.889763779527559
          },
          {
            "number": 11,
            "time": 59.218546754167036,
            "value": 0.8976377952755905
          },
          {
            "number": 11,
            "time": 59.25426102500037,
            "value": 0.905511811023622
          },
          {
            "number": 11,
            "time": 59.27211816041704,
            "value": 0.9133858267716536
          },
          {
            "number": 11,
            "time": 59.30854671666704,
            "value": 0.9212598425196851
          },
          {
            "number": 11,
            "time": 59.32640385208371,
            "value": 0.9291338582677166
          },
          {
            "number": 11,
            "time": 59.454260941667044,
            "value": 0.9212598425196851
          },
          {
            "number": 11,
            "time": 59.472118077083714,
            "value": 0.905511811023622
          },
          {
            "number": 11,
            "time": 59.48997521250038,
            "value": 0.8976377952755905
          },
          {
            "number": 11,
            "time": 59.50783234791705,
            "value": 0.8740157480314961
          },
          {
            "number": 11,
            "time": 59.526403768750384,
            "value": 0.8661417322834646
          },
          {
            "number": 11,
            "time": 59.544260904167054,
            "value": 0.8582677165354331
          },
          {
            "number": 11,
            "time": 59.56211803958372,
            "value": 0.8503937007874016
          },
          {
            "number": 11,
            "time": 59.57997517500039,
            "value": 0.8346456692913385
          },
          {
            "number": 11,
            "time": 59.59783231041706,
            "value": 0.8267716535433071
          },
          {
            "number": 11,
            "time": 59.61568944583373,
            "value": 0.8188976377952756
          },
          {
            "number": 11,
            "time": 59.6335465812504,
            "value": 0.8110236220472441
          },
          {
            "number": 11,
            "time": 59.65140371666707,
            "value": 0.8031496062992126
          },
          {
            "number": 11,
            "time": 59.66926085208374,
            "value": 0.7874015748031497
          },
          {
            "number": 11,
            "time": 59.68711798750041,
            "value": 0.7795275590551181
          },
          {
            "number": 11,
            "time": 59.70497512291708,
            "value": 0.7637795275590551
          },
          {
            "number": 11,
            "time": 59.722832258333746,
            "value": 0.7401574803149606
          },
          {
            "number": 11,
            "time": 59.740689393750415,
            "value": 0.7244094488188977
          },
          {
            "number": 11,
            "time": 59.758546529167084,
            "value": 0.7165354330708661
          },
          {
            "number": 11,
            "time": 59.77711795000042,
            "value": 0.7086614173228346
          },
          {
            "number": 11,
            "time": 59.794975085417086,
            "value": 0.7007874015748031
          },
          {
            "number": 11,
            "time": 59.812832220833755,
            "value": 0.6929133858267716
          },
          {
            "number": 11,
            "time": 59.830689356250424,
            "value": 0.6850393700787402
          },
          {
            "number": 11,
            "time": 59.884260762500425,
            "value": 0.7086614173228346
          },
          {
            "number": 11,
            "time": 59.902117897917094,
            "value": 0.7322834645669292
          },
          {
            "number": 11,
            "time": 59.91997503333376,
            "value": 0.7559055118110236
          },
          {
            "number": 11,
            "time": 59.93783216875043,
            "value": 0.7716535433070866
          },
          {
            "number": 11,
            "time": 59.9556893041671,
            "value": 0.7795275590551181
          },
          {
            "number": 11,
            "time": 59.97354643958377,
            "value": 0.7874015748031497
          },
          {
            "number": 11,
            "time": 59.99140357500044,
            "value": 0.8031496062992126
          },
          {
            "number": 11,
            "time": 60.00926071041711,
            "value": 0.8110236220472441
          },
          {
            "number": 11,
            "time": 60.02711784583378,
            "value": 0.8188976377952756
          },
          {
            "number": 11,
            "time": 60.06354640208378,
            "value": 0.8267716535433071
          },
          {
            "number": 11,
            "time": 60.08140353750045,
            "value": 0.8346456692913385
          },
          {
            "number": 11,
            "time": 60.09926067291712,
            "value": 0.84251968503937
          },
          {
            "number": 11,
            "time": 60.11711780833379,
            "value": 0.8503937007874016
          },
          {
            "number": 11,
            "time": 60.17068921458379,
            "value": 0.8582677165354331
          },
          {
            "number": 11,
            "time": 60.22426062083379,
            "value": 0.8661417322834646
          },
          {
            "number": 11,
            "time": 60.25997489166712,
            "value": 0.8740157480314961
          },
          {
            "number": 11,
            "time": 60.29640344791712,
            "value": 0.8818897637795275
          },
          {
            "number": 11,
            "time": 60.31426058333379,
            "value": 0.889763779527559
          },
          {
            "number": 11,
            "time": 60.33211771875046,
            "value": 0.8976377952755905
          },
          {
            "number": 11,
            "time": 60.3678319895838,
            "value": 0.905511811023622
          },
          {
            "number": 11,
            "time": 60.38568912500047,
            "value": 0.9212598425196851
          },
          {
            "number": 11,
            "time": 60.40354626041714,
            "value": 0.9291338582677166
          },
          {
            "number": 11,
            "time": 60.421403395833806,
            "value": 0.9448818897637795
          },
          {
            "number": 11,
            "time": 60.439260531250476,
            "value": 0.952755905511811
          },
          {
            "number": 11,
            "time": 60.457117666667145,
            "value": 0.9606299212598425
          },
          {
            "number": 11,
            "time": 60.603546177083814,
            "value": 0.968503937007874
          },
          {
            "number": 11,
            "time": 60.62140331250048,
            "value": 0.9763779527559056
          },
          {
            "number": 11,
            "time": 60.63926044791715,
            "value": 0.984251968503937
          },
          {
            "number": 11,
            "time": 60.65711758333382,
            "value": 0.9921259842519685
          },
          {
            "number": 11,
            "time": 60.818546087500486,
            "value": 1
          },
          {
            "number": 11,
            "time": 61.28283160833382,
            "value": 0.984251968503937
          },
          {
            "number": 11,
            "time": 61.30068874375049,
            "value": 0.952755905511811
          },
          {
            "number": 11,
            "time": 61.31854587916716,
            "value": 0.9212598425196851
          },
          {
            "number": 11,
            "time": 61.33640301458383,
            "value": 0.8818897637795275
          },
          {
            "number": 11,
            "time": 61.3542601500005,
            "value": 0.8503937007874016
          },
          {
            "number": 11,
            "time": 61.3756887125005,
            "value": 0.8188976377952756
          },
          {
            "number": 11,
            "time": 61.39354584791717,
            "value": 0.7952755905511811
          },
          {
            "number": 11,
            "time": 61.411402983333836,
            "value": 0.7874015748031497
          },
          {
            "number": 11,
            "time": 61.429260118750506,
            "value": 0.7795275590551181
          },
          {
            "number": 11,
            "time": 61.482831525000506,
            "value": 0.7874015748031497
          },
          {
            "number": 11,
            "time": 61.500688660417175,
            "value": 0.8110236220472441
          },
          {
            "number": 11,
            "time": 61.518545795833845,
            "value": 0.8346456692913385
          },
          {
            "number": 11,
            "time": 61.536402931250514,
            "value": 0.8582677165354331
          },
          {
            "number": 11,
            "time": 61.55426006666718,
            "value": 0.8818897637795275
          },
          {
            "number": 11,
            "time": 61.57211720208385,
            "value": 0.889763779527559
          },
          {
            "number": 11,
            "time": 61.590688622917185,
            "value": 0.8976377952755905
          },
          {
            "number": 11,
            "time": 61.608545758333854,
            "value": 0.9212598425196851
          },
          {
            "number": 11,
            "time": 61.62640289375052,
            "value": 0.9291338582677166
          },
          {
            "number": 11,
            "time": 61.64426002916719,
            "value": 0.9448818897637795
          },
          {
            "number": 11,
            "time": 61.66211716458386,
            "value": 0.952755905511811
          },
          {
            "number": 11,
            "time": 61.67997430000053,
            "value": 0.9606299212598425
          },
          {
            "number": 11,
            "time": 61.6978314354172,
            "value": 0.968503937007874
          },
          {
            "number": 11,
            "time": 61.71568857083387,
            "value": 0.9763779527559056
          },
          {
            "number": 11,
            "time": 61.73354570625054,
            "value": 0.984251968503937
          },
          {
            "number": 11,
            "time": 61.75140284166721,
            "value": 0.9921259842519685
          },
          {
            "number": 11,
            "time": 62.055688429167205,
            "value": 1
          },
          {
            "number": 11,
            "time": 62.485688250000536,
            "value": 0.9921259842519685
          },
          {
            "number": 11,
            "time": 62.503545385417205,
            "value": 0.968503937007874
          },
          {
            "number": 11,
            "time": 62.521402520833874,
            "value": 0.9448818897637795
          },
          {
            "number": 11,
            "time": 62.54211679791721,
            "value": 0.9212598425196851
          },
          {
            "number": 11,
            "time": 62.55997393333388,
            "value": 0.8976377952755905
          },
          {
            "number": 11,
            "time": 62.57854535416721,
            "value": 0.8661417322834646
          },
          {
            "number": 11,
            "time": 62.59640248958388,
            "value": 0.8346456692913385
          },
          {
            "number": 11,
            "time": 62.61425962500055,
            "value": 0.8031496062992126
          },
          {
            "number": 11,
            "time": 62.63211676041722,
            "value": 0.7716535433070866
          },
          {
            "number": 11,
            "time": 62.64997389583389,
            "value": 0.7480314960629921
          },
          {
            "number": 11,
            "time": 62.66783103125056,
            "value": 0.7401574803149606
          },
          {
            "number": 11,
            "time": 62.73925957291723,
            "value": 0.7559055118110236
          },
          {
            "number": 11,
            "time": 62.757116708333896,
            "value": 0.7716535433070866
          },
          {
            "number": 11,
            "time": 62.774973843750566,
            "value": 0.7874015748031497
          },
          {
            "number": 11,
            "time": 62.792830979167235,
            "value": 0.8031496062992126
          },
          {
            "number": 11,
            "time": 62.810688114583904,
            "value": 0.8188976377952756
          },
          {
            "number": 11,
            "time": 62.829259535417236,
            "value": 0.8267716535433071
          },
          {
            "number": 11,
            "time": 62.847116670833906,
            "value": 0.8346456692913385
          },
          {
            "number": 11,
            "time": 62.864973806250575,
            "value": 0.84251968503937
          },
          {
            "number": 11,
            "time": 62.882830941667244,
            "value": 0.8661417322834646
          },
          {
            "number": 11,
            "time": 62.90068807708391,
            "value": 0.8740157480314961
          },
          {
            "number": 11,
            "time": 62.91854521250058,
            "value": 0.8818897637795275
          },
          {
            "number": 11,
            "time": 62.93640234791725,
            "value": 0.889763779527559
          },
          {
            "number": 11,
            "time": 62.95425948333392,
            "value": 0.8976377952755905
          },
          {
            "number": 11,
            "time": 62.97211661875059,
            "value": 0.905511811023622
          },
          {
            "number": 11,
            "time": 62.98997375416726,
            "value": 0.9212598425196851
          },
          {
            "number": 11,
            "time": 63.00783088958393,
            "value": 0.9291338582677166
          },
          {
            "number": 11,
            "time": 63.11568798750059,
            "value": 0.937007874015748
          },
          {
            "number": 11,
            "time": 63.16925939375059,
            "value": 0.9448818897637795
          },
          {
            "number": 11,
            "time": 63.18711652916726,
            "value": 0.952755905511811
          },
          {
            "number": 11,
            "time": 63.20497366458393,
            "value": 0.9606299212598425
          },
          {
            "number": 11,
            "time": 63.24068793541726,
            "value": 0.968503937007874
          },
          {
            "number": 11,
            "time": 63.25854507083393,
            "value": 0.9763779527559056
          },
          {
            "number": 11,
            "time": 63.2764022062506,
            "value": 0.984251968503937
          },
          {
            "number": 11,
            "time": 63.384259304167266,
            "value": 0.9921259842519685
          },
          {
            "number": 11,
            "time": 63.74497343958393,
            "value": 1
          },
          {
            "number": 11,
            "time": 64.03140189166726,
            "value": 0.9921259842519685
          },
          {
            "number": 11,
            "time": 64.04925902708392,
            "value": 0.9606299212598425
          },
          {
            "number": 11,
            "time": 64.06711616250058,
            "value": 0.9212598425196851
          },
          {
            "number": 11,
            "time": 64.08568758333392,
            "value": 0.8818897637795275
          },
          {
            "number": 11,
            "time": 64.10354471875058,
            "value": 0.8582677165354331
          },
          {
            "number": 11,
            "time": 64.12140185416726,
            "value": 0.8503937007874016
          },
          {
            "number": 11,
            "time": 64.13925898958392,
            "value": 0.84251968503937
          },
          {
            "number": 11,
            "time": 64.22854466666726,
            "value": 0.8503937007874016
          },
          {
            "number": 11,
            "time": 64.24640180208392,
            "value": 0.8582677165354331
          },
          {
            "number": 11,
            "time": 64.26425893750059,
            "value": 0.8661417322834646
          },
          {
            "number": 11,
            "time": 64.28211607291725,
            "value": 0.8740157480314961
          },
          {
            "number": 11,
            "time": 64.31783034375059,
            "value": 0.8818897637795275
          },
          {
            "number": 11,
            "time": 64.33640176458393,
            "value": 0.889763779527559
          },
          {
            "number": 11,
            "time": 64.35425890000059,
            "value": 0.8976377952755905
          },
          {
            "number": 11,
            "time": 64.38997317083393,
            "value": 0.905511811023622
          },
          {
            "number": 11,
            "time": 64.40783030625059,
            "value": 0.9133858267716536
          },
          {
            "number": 11,
            "time": 64.42568744166725,
            "value": 0.9212598425196851
          },
          {
            "number": 11,
            "time": 64.44354457708391,
            "value": 0.9291338582677166
          },
          {
            "number": 11,
            "time": 64.46140171250057,
            "value": 0.937007874015748
          },
          {
            "number": 11,
            "time": 64.47925884791724,
            "value": 0.9448818897637795
          },
          {
            "number": 11,
            "time": 64.6406873520839,
            "value": 0.952755905511811
          },
          {
            "number": 11,
            "time": 64.65854448750056,
            "value": 0.9606299212598425
          },
          {
            "number": 11,
            "time": 64.76568730000056,
            "value": 0.968503937007874
          },
          {
            "number": 11,
            "time": 64.8014015708339,
            "value": 0.9763779527559056
          },
          {
            "number": 11,
            "time": 64.87640153958391,
            "value": 0.984251968503937
          },
          {
            "number": 11,
            "time": 64.98354435208391,
            "value": 0.9921259842519685
          },
          {
            "number": 11,
            "time": 65.18068712708391,
            "value": 1
          },
          {
            "number": 11,
            "time": 65.27854422916725,
            "value": 1
          },
          {
            "number": 11,
            "time": 65.29282993750058,
            "value": 0.9921259842519685
          },
          {
            "number": 11,
            "time": 65.29997279166726,
            "value": 0.984251968503937
          },
          {
            "number": 11,
            "time": 65.31425850000059,
            "value": 0.9763779527559056
          },
          {
            "number": 11,
            "time": 65.32140135416726,
            "value": 0.968503937007874
          },
          {
            "number": 11,
            "time": 65.3356870625006,
            "value": 0.9606299212598425
          },
          {
            "number": 11,
            "time": 65.34282991666727,
            "value": 0.952755905511811
          },
          {
            "number": 11,
            "time": 65.34997277083394,
            "value": 0.9448818897637795
          },
          {
            "number": 11,
            "time": 65.35711562500062,
            "value": 0.937007874015748
          },
          {
            "number": 11,
            "time": 65.36425847916729,
            "value": 0.9291338582677166
          },
          {
            "number": 11,
            "time": 65.37140133333396,
            "value": 0.9212598425196851
          },
          {
            "number": 11,
            "time": 65.37854418750064,
            "value": 0.9133858267716536
          },
          {
            "number": 11,
            "time": 65.38568704166731,
            "value": 0.8976377952755905
          },
          {
            "number": 11,
            "time": 65.39282989583398,
            "value": 0.889763779527559
          },
          {
            "number": 11,
            "time": 65.39997275000066,
            "value": 0.8818897637795275
          },
          {
            "number": 11,
            "time": 65.40711560416733,
            "value": 0.8740157480314961
          },
          {
            "number": 11,
            "time": 65.414258458334,
            "value": 0.8582677165354331
          },
          {
            "number": 11,
            "time": 65.42140131250068,
            "value": 0.84251968503937
          },
          {
            "number": 11,
            "time": 65.42854416666735,
            "value": 0.8267716535433071
          },
          {
            "number": 11,
            "time": 65.43568702083402,
            "value": 0.8031496062992126
          },
          {
            "number": 11,
            "time": 65.4428298750007,
            "value": 0.7874015748031497
          },
          {
            "number": 11,
            "time": 65.44997272916737,
            "value": 0.7795275590551181
          },
          {
            "number": 11,
            "time": 65.45711558333404,
            "value": 0.7716535433070866
          },
          {
            "number": 11,
            "time": 65.46425843750072,
            "value": 0.7559055118110236
          },
          {
            "number": 11,
            "time": 65.47140129166739,
            "value": 0.7480314960629921
          },
          {
            "number": 11,
            "time": 65.47854414583406,
            "value": 0.7401574803149606
          },
          {
            "number": 11,
            "time": 65.48568700000074,
            "value": 0.7322834645669292
          },
          {
            "number": 11,
            "time": 65.50711556250074,
            "value": 0.7401574803149606
          },
          {
            "number": 11,
            "time": 65.51425841666742,
            "value": 0.7480314960629921
          },
          {
            "number": 11,
            "time": 65.52140127083409,
            "value": 0.7559055118110236
          },
          {
            "number": 11,
            "time": 65.52854412500076,
            "value": 0.7637795275590551
          },
          {
            "number": 11,
            "time": 65.53568697916744,
            "value": 0.7716535433070866
          },
          {
            "number": 11,
            "time": 65.54282983333411,
            "value": 0.7795275590551181
          },
          {
            "number": 11,
            "time": 65.54997268750078,
            "value": 0.7874015748031497
          },
          {
            "number": 11,
            "time": 65.55711554166746,
            "value": 0.7952755905511811
          },
          {
            "number": 11,
            "time": 65.56425839583413,
            "value": 0.8031496062992126
          },
          {
            "number": 11,
            "time": 65.5714012500008,
            "value": 0.8188976377952756
          },
          {
            "number": 11,
            "time": 65.57854410416748,
            "value": 0.8346456692913385
          },
          {
            "number": 11,
            "time": 65.58568695833415,
            "value": 0.8503937007874016
          },
          {
            "number": 11,
            "time": 65.59282981250082,
            "value": 0.8582677165354331
          },
          {
            "number": 11,
            "time": 65.5999726666675,
            "value": 0.8661417322834646
          },
          {
            "number": 11,
            "time": 65.60711552083417,
            "value": 0.8740157480314961
          },
          {
            "number": 11,
            "time": 65.61425837500084,
            "value": 0.8818897637795275
          },
          {
            "number": 11,
            "time": 65.62140122916752,
            "value": 0.889763779527559
          },
          {
            "number": 11,
            "time": 65.62854408333419,
            "value": 0.905511811023622
          },
          {
            "number": 11,
            "time": 65.63568693750086,
            "value": 0.9133858267716536
          },
          {
            "number": 11,
            "time": 65.64282979166754,
            "value": 0.9291338582677166
          },
          {
            "number": 11,
            "time": 65.64997264583421,
            "value": 0.937007874015748
          },
          {
            "number": 11,
            "time": 65.65711550000088,
            "value": 0.9448818897637795
          },
          {
            "number": 11,
            "time": 65.66425835416756,
            "value": 0.952755905511811
          },
          {
            "number": 11,
            "time": 65.67854406250089,
            "value": 0.9606299212598425
          },
          {
            "number": 11,
            "time": 65.68568691666756,
            "value": 0.968503937007874
          },
          {
            "number": 11,
            "time": 65.69282977083424,
            "value": 0.9763779527559056
          },
          {
            "number": 11,
            "time": 65.69997262500091,
            "value": 0.984251968503937
          },
          {
            "number": 11,
            "time": 65.71425833333424,
            "value": 0.9921259842519685
          },
          {
            "number": 11,
            "time": 65.72854404166758,
            "value": 1
          },
          {
            "number": 11,
            "time": 66.69211506875091,
            "value": 0.7244094488188977
          },
          {
            "number": 11,
            "time": 66.72782933958425,
            "value": 0.7322834645669292
          },
          {
            "number": 11,
            "time": 66.74568647500091,
            "value": 0.7559055118110236
          },
          {
            "number": 11,
            "time": 66.76354361041757,
            "value": 0.7637795275590551
          },
          {
            "number": 11,
            "time": 66.78140074583423,
            "value": 0.7716535433070866
          },
          {
            "number": 11,
            "time": 66.7992578812509,
            "value": 0.7795275590551181
          },
          {
            "number": 11,
            "time": 66.81711501666756,
            "value": 0.7874015748031497
          },
          {
            "number": 11,
            "time": 66.83497215208422,
            "value": 0.7952755905511811
          },
          {
            "number": 11,
            "time": 66.85282928750088,
            "value": 0.8031496062992126
          },
          {
            "number": 11,
            "time": 66.88854355833422,
            "value": 0.8110236220472441
          },
          {
            "number": 11,
            "time": 66.99640065625088,
            "value": 0.8188976377952756
          },
          {
            "number": 11,
            "time": 67.03497206875089,
            "value": 0.8267716535433071
          },
          {
            "number": 11,
            "time": 67.04997206250088,
            "value": 0.8346456692913385
          },
          {
            "number": 11,
            "time": 67.06782919791755,
            "value": 0.84251968503937
          },
          {
            "number": 11,
            "time": 67.08568633333421,
            "value": 0.8503937007874016
          },
          {
            "number": 11,
            "time": 67.10354346875087,
            "value": 0.8582677165354331
          },
          {
            "number": 11,
            "time": 67.12140060416753,
            "value": 0.8661417322834646
          },
          {
            "number": 11,
            "time": 67.1392577395842,
            "value": 0.8740157480314961
          },
          {
            "number": 11,
            "time": 67.15711487500086,
            "value": 0.8818897637795275
          },
          {
            "number": 11,
            "time": 67.17497201041752,
            "value": 0.889763779527559
          },
          {
            "number": 11,
            "time": 67.19640057291753,
            "value": 0.8976377952755905
          },
          {
            "number": 11,
            "time": 67.23211484375086,
            "value": 0.905511811023622
          },
          {
            "number": 11,
            "time": 67.2678291145842,
            "value": 0.9133858267716536
          },
          {
            "number": 11,
            "time": 67.2828291083342,
            "value": 0.9212598425196851
          },
          {
            "number": 11,
            "time": 67.32068623541753,
            "value": 0.9291338582677166
          },
          {
            "number": 11,
            "time": 67.33925765625087,
            "value": 0.937007874015748
          },
          {
            "number": 11,
            "time": 67.3728290708342,
            "value": 0.952755905511811
          },
          {
            "number": 11,
            "time": 67.39282906250087,
            "value": 0.9606299212598425
          },
          {
            "number": 11,
            "time": 67.41068619791753,
            "value": 0.968503937007874
          },
          {
            "number": 11,
            "time": 67.42925761875087,
            "value": 0.9763779527559056
          },
          {
            "number": 11,
            "time": 67.44711475416753,
            "value": 0.984251968503937
          },
          {
            "number": 11,
            "time": 67.46497188958419,
            "value": 0.9921259842519685
          },
          {
            "number": 11,
            "time": 67.8764002895842,
            "value": 0.9763779527559056
          },
          {
            "number": 11,
            "time": 67.89425742500086,
            "value": 0.9606299212598425
          },
          {
            "number": 11,
            "time": 67.91211456041752,
            "value": 0.937007874015748
          },
          {
            "number": 11,
            "time": 67.93068598125086,
            "value": 0.9133858267716536
          },
          {
            "number": 11,
            "time": 67.94854311666752,
            "value": 0.8976377952755905
          },
          {
            "number": 11,
            "time": 67.96640025208418,
            "value": 0.8661417322834646
          },
          {
            "number": 11,
            "time": 67.98425738750085,
            "value": 0.84251968503937
          },
          {
            "number": 11,
            "time": 68.00211452291751,
            "value": 0.8188976377952756
          },
          {
            "number": 11,
            "time": 68.01997165833417,
            "value": 0.7952755905511811
          },
          {
            "number": 11,
            "time": 68.03782879375083,
            "value": 0.7716535433070866
          },
          {
            "number": 11,
            "time": 68.0556859291675,
            "value": 0.7480314960629921
          },
          {
            "number": 11,
            "time": 68.07354306458416,
            "value": 0.7322834645669292
          },
          {
            "number": 11,
            "time": 68.09140020000082,
            "value": 0.7165354330708661
          },
          {
            "number": 11,
            "time": 68.10925733541748,
            "value": 0.7086614173228346
          },
          {
            "number": 11,
            "time": 68.12711447083414,
            "value": 0.6929133858267716
          },
          {
            "number": 11,
            "time": 68.25497156041747,
            "value": 0.7086614173228346
          },
          {
            "number": 11,
            "time": 68.27068583958415,
            "value": 0.7244094488188977
          },
          {
            "number": 11,
            "time": 68.29140011666748,
            "value": 0.7401574803149606
          },
          {
            "number": 11,
            "time": 68.30711439583415,
            "value": 0.7637795275590551
          },
          {
            "number": 11,
            "time": 68.32711438750081,
            "value": 0.7795275590551181
          },
          {
            "number": 11,
            "time": 68.34497152291748,
            "value": 0.7874015748031497
          },
          {
            "number": 11,
            "time": 68.35997151666747,
            "value": 0.8031496062992126
          },
          {
            "number": 11,
            "time": 68.37854293750081,
            "value": 0.8188976377952756
          },
          {
            "number": 11,
            "time": 68.39568578750081,
            "value": 0.8267716535433071
          },
          {
            "number": 11,
            "time": 68.41354292291747,
            "value": 0.8346456692913385
          },
          {
            "number": 11,
            "time": 68.43140005833413,
            "value": 0.84251968503937
          },
          {
            "number": 11,
            "time": 68.44997147916747,
            "value": 0.8661417322834646
          },
          {
            "number": 11,
            "time": 68.46782861458414,
            "value": 0.8740157480314961
          },
          {
            "number": 11,
            "time": 68.4856857500008,
            "value": 0.8818897637795275
          },
          {
            "number": 11,
            "time": 68.50354288541746,
            "value": 0.889763779527559
          },
          {
            "number": 11,
            "time": 68.54211429791746,
            "value": 0.8976377952755905
          },
          {
            "number": 11,
            "time": 68.5778285687508,
            "value": 0.905511811023622
          },
          {
            "number": 11,
            "time": 68.61354283958414,
            "value": 0.9133858267716536
          },
          {
            "number": 11,
            "time": 68.6313999750008,
            "value": 0.9212598425196851
          },
          {
            "number": 11,
            "time": 68.64925711041747,
            "value": 0.9291338582677166
          },
          {
            "number": 11,
            "time": 68.6678285312508,
            "value": 0.937007874015748
          },
          {
            "number": 11,
            "time": 68.68568566666747,
            "value": 0.9448818897637795
          },
          {
            "number": 11,
            "time": 68.70354280208413,
            "value": 0.952755905511811
          },
          {
            "number": 11,
            "time": 68.73925707291747,
            "value": 0.9606299212598425
          },
          {
            "number": 11,
            "time": 68.75711420833413,
            "value": 0.968503937007874
          },
          {
            "number": 11,
            "time": 68.79282847916747,
            "value": 0.9763779527559056
          },
          {
            "number": 11,
            "time": 68.81068561458413,
            "value": 0.984251968503937
          },
          {
            "number": 11,
            "time": 68.82854275000079,
            "value": 0.9921259842519685
          },
          {
            "number": 11,
            "time": 69.09711406666746,
            "value": 0.984251968503937
          },
          {
            "number": 11,
            "time": 69.11497120208412,
            "value": 0.968503937007874
          },
          {
            "number": 11,
            "time": 69.13282833750078,
            "value": 0.9606299212598425
          },
          {
            "number": 11,
            "time": 69.15068547291744,
            "value": 0.9448818897637795
          },
          {
            "number": 11,
            "time": 69.1685426083341,
            "value": 0.937007874015748
          },
          {
            "number": 11,
            "time": 69.18711402916745,
            "value": 0.9291338582677166
          },
          {
            "number": 11,
            "time": 69.20497116458411,
            "value": 0.9212598425196851
          },
          {
            "number": 11,
            "time": 69.22282830000077,
            "value": 0.905511811023622
          },
          {
            "number": 11,
            "time": 69.24068543541743,
            "value": 0.889763779527559
          },
          {
            "number": 11,
            "time": 69.2585425708341,
            "value": 0.8818897637795275
          },
          {
            "number": 11,
            "time": 69.27639970625076,
            "value": 0.8661417322834646
          },
          {
            "number": 11,
            "time": 69.29425684166742,
            "value": 0.8503937007874016
          },
          {
            "number": 11,
            "time": 69.31211397708408,
            "value": 0.84251968503937
          },
          {
            "number": 11,
            "time": 69.32997111250074,
            "value": 0.8267716535433071
          },
          {
            "number": 11,
            "time": 69.3478282479174,
            "value": 0.8188976377952756
          },
          {
            "number": 11,
            "time": 69.36568538333407,
            "value": 0.8110236220472441
          },
          {
            "number": 11,
            "time": 69.38354251875073,
            "value": 0.7952755905511811
          },
          {
            "number": 11,
            "time": 69.40139965416739,
            "value": 0.7874015748031497
          },
          {
            "number": 11,
            "time": 69.41925678958405,
            "value": 0.7716535433070866
          },
          {
            "number": 11,
            "time": 69.4378282104174,
            "value": 0.7637795275590551
          },
          {
            "number": 11,
            "time": 69.45568534583406,
            "value": 0.7559055118110236
          },
          {
            "number": 11,
            "time": 69.47354248125072,
            "value": 0.7322834645669292
          },
          {
            "number": 11,
            "time": 69.49139961666738,
            "value": 0.7165354330708661
          },
          {
            "number": 11,
            "time": 69.50925675208404,
            "value": 0.7086614173228346
          },
          {
            "number": 11,
            "time": 69.5271138875007,
            "value": 0.7007874015748031
          },
          {
            "number": 11,
            "time": 69.54497102291737,
            "value": 0.6929133858267716
          },
          {
            "number": 11,
            "time": 69.59854242916737,
            "value": 0.7007874015748031
          },
          {
            "number": 11,
            "time": 69.61639956458404,
            "value": 0.7086614173228346
          },
          {
            "number": 11,
            "time": 69.6342567000007,
            "value": 0.7244094488188977
          },
          {
            "number": 11,
            "time": 69.65211383541737,
            "value": 0.7401574803149606
          },
          {
            "number": 11,
            "time": 69.66997097083403,
            "value": 0.7559055118110236
          },
          {
            "number": 11,
            "time": 69.68854239166737,
            "value": 0.7637795275590551
          },
          {
            "number": 11,
            "time": 69.7092566687507,
            "value": 0.7874015748031497
          },
          {
            "number": 11,
            "time": 69.72711380416736,
            "value": 0.7952755905511811
          },
          {
            "number": 11,
            "time": 69.74497093958402,
            "value": 0.8031496062992126
          },
          {
            "number": 11,
            "time": 69.76282807500068,
            "value": 0.8110236220472441
          },
          {
            "number": 11,
            "time": 69.78068521041735,
            "value": 0.8188976377952756
          },
          {
            "number": 11,
            "time": 69.79854234583401,
            "value": 0.8346456692913385
          },
          {
            "number": 11,
            "time": 69.81639948125067,
            "value": 0.84251968503937
          },
          {
            "number": 11,
            "time": 69.83425661666733,
            "value": 0.8503937007874016
          },
          {
            "number": 11,
            "time": 69.852113752084,
            "value": 0.8582677165354331
          },
          {
            "number": 11,
            "time": 69.86997088750066,
            "value": 0.8661417322834646
          },
          {
            "number": 11,
            "time": 69.88782802291732,
            "value": 0.8740157480314961
          },
          {
            "number": 11,
            "time": 69.90639944375066,
            "value": 0.8818897637795275
          },
          {
            "number": 11,
            "time": 69.92425657916732,
            "value": 0.889763779527559
          },
          {
            "number": 11,
            "time": 69.94211371458398,
            "value": 0.8976377952755905
          },
          {
            "number": 11,
            "time": 69.95997085000064,
            "value": 0.905511811023622
          },
          {
            "number": 11,
            "time": 69.9778279854173,
            "value": 0.9133858267716536
          },
          {
            "number": 11,
            "time": 69.99568512083397,
            "value": 0.9212598425196851
          },
          {
            "number": 11,
            "time": 70.01354225625063,
            "value": 0.9291338582677166
          },
          {
            "number": 11,
            "time": 70.04925652708397,
            "value": 0.937007874015748
          },
          {
            "number": 11,
            "time": 70.06711366250063,
            "value": 0.9448818897637795
          },
          {
            "number": 11,
            "time": 70.0849707979173,
            "value": 0.952755905511811
          },
          {
            "number": 11,
            "time": 70.21068503125062,
            "value": 0.9448818897637795
          },
          {
            "number": 11,
            "time": 70.22854216666728,
            "value": 0.9291338582677166
          },
          {
            "number": 11,
            "time": 70.24639930208394,
            "value": 0.905511811023622
          },
          {
            "number": 11,
            "time": 70.2642564375006,
            "value": 0.889763779527559
          },
          {
            "number": 11,
            "time": 70.28211357291727,
            "value": 0.8740157480314961
          },
          {
            "number": 11,
            "time": 70.29997070833393,
            "value": 0.8661417322834646
          },
          {
            "number": 11,
            "time": 70.31782784375059,
            "value": 0.84251968503937
          },
          {
            "number": 11,
            "time": 70.33568497916725,
            "value": 0.8267716535433071
          },
          {
            "number": 11,
            "time": 70.35354211458392,
            "value": 0.8110236220472441
          },
          {
            "number": 11,
            "time": 70.37139925000058,
            "value": 0.7952755905511811
          },
          {
            "number": 11,
            "time": 70.38925638541724,
            "value": 0.7716535433070866
          },
          {
            "number": 11,
            "time": 70.4071135208339,
            "value": 0.7559055118110236
          },
          {
            "number": 11,
            "time": 70.42568494166724,
            "value": 0.7322834645669292
          },
          {
            "number": 11,
            "time": 70.4435420770839,
            "value": 0.7165354330708661
          },
          {
            "number": 11,
            "time": 70.46139921250057,
            "value": 0.7086614173228346
          },
          {
            "number": 11,
            "time": 70.47925634791723,
            "value": 0.7007874015748031
          },
          {
            "number": 11,
            "time": 70.49711348333389,
            "value": 0.6929133858267716
          },
          {
            "number": 11,
            "time": 70.51497061875055,
            "value": 0.6850393700787402
          },
          {
            "number": 11,
            "time": 70.53282775416722,
            "value": 0.6771653543307087
          },
          {
            "number": 11,
            "time": 70.65782770208388,
            "value": 0.6850393700787402
          },
          {
            "number": 11,
            "time": 70.67639912291722,
            "value": 0.6929133858267716
          },
          {
            "number": 11,
            "time": 70.69425625833388,
            "value": 0.7007874015748031
          },
          {
            "number": 11,
            "time": 70.71211339375054,
            "value": 0.7086614173228346
          },
          {
            "number": 11,
            "time": 70.7299705291672,
            "value": 0.7165354330708661
          },
          {
            "number": 11,
            "time": 70.74782766458387,
            "value": 0.7244094488188977
          },
          {
            "number": 11,
            "time": 70.76568480000053,
            "value": 0.7480314960629921
          },
          {
            "number": 11,
            "time": 70.78354193541719,
            "value": 0.7637795275590551
          },
          {
            "number": 11,
            "time": 70.80139907083385,
            "value": 0.7716535433070866
          },
          {
            "number": 11,
            "time": 70.81925620625051,
            "value": 0.7952755905511811
          },
          {
            "number": 11,
            "time": 70.83711334166718,
            "value": 0.8110236220472441
          },
          {
            "number": 11,
            "time": 70.8578276187505,
            "value": 0.8188976377952756
          },
          {
            "number": 11,
            "time": 70.87568475416717,
            "value": 0.8346456692913385
          },
          {
            "number": 11,
            "time": 70.8942561750005,
            "value": 0.8503937007874016
          },
          {
            "number": 11,
            "time": 70.91211331041717,
            "value": 0.8661417322834646
          },
          {
            "number": 11,
            "time": 70.92997044583383,
            "value": 0.8740157480314961
          },
          {
            "number": 11,
            "time": 70.9478275812505,
            "value": 0.8818897637795275
          },
          {
            "number": 11,
            "time": 70.96568471666716,
            "value": 0.889763779527559
          },
          {
            "number": 11,
            "time": 70.98354185208382,
            "value": 0.905511811023622
          },
          {
            "number": 11,
            "time": 71.00139898750048,
            "value": 0.9212598425196851
          },
          {
            "number": 11,
            "time": 71.01925612291714,
            "value": 0.9291338582677166
          },
          {
            "number": 11,
            "time": 71.0371132583338,
            "value": 0.937007874015748
          },
          {
            "number": 11,
            "time": 71.05497039375047,
            "value": 0.9448818897637795
          },
          {
            "number": 11,
            "time": 71.07282752916713,
            "value": 0.952755905511811
          },
          {
            "number": 11,
            "time": 71.09068466458379,
            "value": 0.9606299212598425
          },
          {
            "number": 11,
            "time": 71.10854180000045,
            "value": 0.968503937007874
          },
          {
            "number": 11,
            "time": 71.12639893541711,
            "value": 0.9763779527559056
          },
          {
            "number": 11,
            "time": 71.14497035625045,
            "value": 0.984251968503937
          },
          {
            "number": 11,
            "time": 71.16282749166712,
            "value": 0.9921259842519685
          },
          {
            "number": 11,
            "time": 71.30568457500046,
            "value": 1
          },
          {
            "number": 11,
            "time": 71.53854162083378,
            "value": 0.9921259842519685
          },
          {
            "number": 11,
            "time": 71.55639875625045,
            "value": 0.984251968503937
          },
          {
            "number": 11,
            "time": 71.57425589166711,
            "value": 0.9763779527559056
          },
          {
            "number": 11,
            "time": 71.59211302708377,
            "value": 0.968503937007874
          },
          {
            "number": 11,
            "time": 71.60997016250043,
            "value": 0.9606299212598425
          },
          {
            "number": 11,
            "time": 71.6278272979171,
            "value": 0.952755905511811
          },
          {
            "number": 11,
            "time": 71.64568443333376,
            "value": 0.9448818897637795
          },
          {
            "number": 11,
            "time": 71.6642558541671,
            "value": 0.937007874015748
          },
          {
            "number": 11,
            "time": 71.68211298958376,
            "value": 0.9291338582677166
          },
          {
            "number": 11,
            "time": 71.7178272604171,
            "value": 0.9212598425196851
          },
          {
            "number": 11,
            "time": 71.7713986666671,
            "value": 0.9133858267716536
          },
          {
            "number": 11,
            "time": 71.78925580208376,
            "value": 0.905511811023622
          },
          {
            "number": 11,
            "time": 71.8249700729171,
            "value": 0.8976377952755905
          },
          {
            "number": 11,
            "time": 71.84282720833376,
            "value": 0.8818897637795275
          },
          {
            "number": 11,
            "time": 71.86068434375042,
            "value": 0.8740157480314961
          },
          {
            "number": 11,
            "time": 71.87854147916708,
            "value": 0.8661417322834646
          },
          {
            "number": 11,
            "time": 71.89639861458375,
            "value": 0.8582677165354331
          },
          {
            "number": 11,
            "time": 71.91497003541708,
            "value": 0.84251968503937
          },
          {
            "number": 11,
            "time": 71.93282717083375,
            "value": 0.8346456692913385
          },
          {
            "number": 11,
            "time": 71.95068430625041,
            "value": 0.8110236220472441
          },
          {
            "number": 11,
            "time": 71.96854144166707,
            "value": 0.8031496062992126
          },
          {
            "number": 11,
            "time": 71.98639857708373,
            "value": 0.7874015748031497
          },
          {
            "number": 11,
            "time": 72.0042557125004,
            "value": 0.7795275590551181
          },
          {
            "number": 11,
            "time": 72.02496998958372,
            "value": 0.7637795275590551
          },
          {
            "number": 11,
            "time": 72.04282712500039,
            "value": 0.7559055118110236
          },
          {
            "number": 11,
            "time": 72.06068426041705,
            "value": 0.7480314960629921
          },
          {
            "number": 11,
            "time": 72.07854139583371,
            "value": 0.7401574803149606
          },
          {
            "number": 11,
            "time": 72.22211276458371,
            "value": 0.7480314960629921
          },
          {
            "number": 11,
            "time": 72.23996990000037,
            "value": 0.7559055118110236
          },
          {
            "number": 11,
            "time": 72.25782703541704,
            "value": 0.7637795275590551
          },
          {
            "number": 11,
            "time": 72.2756841708337,
            "value": 0.7716535433070866
          },
          {
            "number": 11,
            "time": 72.29354130625036,
            "value": 0.7795275590551181
          },
          {
            "number": 11,
            "time": 72.31139844166702,
            "value": 0.7952755905511811
          },
          {
            "number": 11,
            "time": 72.32925557708369,
            "value": 0.8031496062992126
          },
          {
            "number": 11,
            "time": 72.34711271250036,
            "value": 0.8110236220472441
          },
          {
            "number": 11,
            "time": 72.36496984791702,
            "value": 0.8188976377952756
          },
          {
            "number": 11,
            "time": 72.38282698333369,
            "value": 0.8346456692913385
          },
          {
            "number": 11,
            "time": 72.40139840416703,
            "value": 0.84251968503937
          },
          {
            "number": 11,
            "time": 72.41925553958369,
            "value": 0.8503937007874016
          },
          {
            "number": 11,
            "time": 72.43711267500035,
            "value": 0.8582677165354331
          },
          {
            "number": 11,
            "time": 72.45496981041701,
            "value": 0.8661417322834646
          },
          {
            "number": 11,
            "time": 72.47282694583367,
            "value": 0.8740157480314961
          },
          {
            "number": 11,
            "time": 72.49068408125034,
            "value": 0.8818897637795275
          },
          {
            "number": 11,
            "time": 72.508541216667,
            "value": 0.889763779527559
          },
          {
            "number": 11,
            "time": 72.562112622917,
            "value": 0.8976377952755905
          },
          {
            "number": 11,
            "time": 72.59782689375034,
            "value": 0.905511811023622
          },
          {
            "number": 11,
            "time": 72.63354116458368,
            "value": 0.9133858267716536
          },
          {
            "number": 11,
            "time": 72.65211258541702,
            "value": 0.9212598425196851
          },
          {
            "number": 11,
            "time": 72.68782685625035,
            "value": 0.9291338582677166
          },
          {
            "number": 11,
            "time": 72.70568399166702,
            "value": 0.937007874015748
          },
          {
            "number": 11,
            "time": 72.74139826250035,
            "value": 0.9448818897637795
          },
          {
            "number": 11,
            "time": 72.75925539791702,
            "value": 0.952755905511811
          },
          {
            "number": 11,
            "time": 72.81282680416702,
            "value": 0.9606299212598425
          },
          {
            "number": 11,
            "time": 72.83068393958368,
            "value": 0.968503937007874
          },
          {
            "number": 11,
            "time": 72.88425534583368,
            "value": 0.9763779527559056
          },
          {
            "number": 11,
            "time": 72.90282676666702,
            "value": 0.984251968503937
          },
          {
            "number": 11,
            "time": 72.92068390208368,
            "value": 0.9921259842519685
          },
          {
            "number": 11,
            "time": 73.17139808333368,
            "value": 1
          },
          {
            "number": 11,
            "time": 73.40711227083368,
            "value": 0.9921259842519685
          },
          {
            "number": 11,
            "time": 73.42496940625034,
            "value": 0.968503937007874
          },
          {
            "number": 11,
            "time": 73.442826541667,
            "value": 0.9448818897637795
          },
          {
            "number": 11,
            "time": 73.46068367708367,
            "value": 0.9212598425196851
          },
          {
            "number": 11,
            "time": 73.47854081250033,
            "value": 0.889763779527559
          },
          {
            "number": 11,
            "time": 73.49639794791699,
            "value": 0.8582677165354331
          },
          {
            "number": 11,
            "time": 73.51425508333365,
            "value": 0.8267716535433071
          },
          {
            "number": 11,
            "time": 73.53211221875031,
            "value": 0.8031496062992126
          },
          {
            "number": 11,
            "time": 73.54996935416698,
            "value": 0.7795275590551181
          },
          {
            "number": 11,
            "time": 73.56782648958364,
            "value": 0.7716535433070866
          },
          {
            "number": 11,
            "time": 73.5856836250003,
            "value": 0.7637795275590551
          },
          {
            "number": 11,
            "time": 73.60354076041696,
            "value": 0.7559055118110236
          },
          {
            "number": 11,
            "time": 73.65782645208363,
            "value": 0.7716535433070866
          },
          {
            "number": 11,
            "time": 73.67568358750029,
            "value": 0.7952755905511811
          },
          {
            "number": 11,
            "time": 73.69354072291695,
            "value": 0.8110236220472441
          },
          {
            "number": 11,
            "time": 73.71139785833361,
            "value": 0.8188976377952756
          },
          {
            "number": 11,
            "time": 73.72925499375027,
            "value": 0.8346456692913385
          },
          {
            "number": 11,
            "time": 73.76496926458361,
            "value": 0.8503937007874016
          },
          {
            "number": 11,
            "time": 73.78282640000027,
            "value": 0.8582677165354331
          },
          {
            "number": 11,
            "time": 73.80068353541694,
            "value": 0.8661417322834646
          },
          {
            "number": 11,
            "time": 73.8185406708336,
            "value": 0.8740157480314961
          },
          {
            "number": 11,
            "time": 73.83639780625026,
            "value": 0.8818897637795275
          },
          {
            "number": 11,
            "time": 73.85425494166692,
            "value": 0.889763779527559
          },
          {
            "number": 11,
            "time": 73.87211207708359,
            "value": 0.8976377952755905
          },
          {
            "number": 11,
            "time": 73.89068349791692,
            "value": 0.905511811023622
          },
          {
            "number": 11,
            "time": 73.90854063333359,
            "value": 0.9133858267716536
          },
          {
            "number": 11,
            "time": 73.92639776875025,
            "value": 0.9212598425196851
          },
          {
            "number": 11,
            "time": 73.94425490416691,
            "value": 0.9291338582677166
          },
          {
            "number": 11,
            "time": 73.99782631041691,
            "value": 0.937007874015748
          },
          {
            "number": 11,
            "time": 74.05139771666691,
            "value": 0.9448818897637795
          },
          {
            "number": 11,
            "time": 74.06925485208357,
            "value": 0.952755905511811
          },
          {
            "number": 11,
            "time": 74.12282625833357,
            "value": 0.9606299212598425
          },
          {
            "number": 11,
            "time": 74.14068339375024,
            "value": 0.968503937007874
          },
          {
            "number": 11,
            "time": 74.17711195000024,
            "value": 0.9763779527559056
          },
          {
            "number": 11,
            "time": 74.1949690854169,
            "value": 0.984251968503937
          },
          {
            "number": 11,
            "time": 74.21282622083356,
            "value": 0.9921259842519685
          },
          {
            "number": 11,
            "time": 74.44854040833356,
            "value": 1
          },
          {
            "number": 11,
            "time": 74.84211167291689,
            "value": 0.9921259842519685
          },
          {
            "number": 11,
            "time": 74.85996880833355,
            "value": 0.968503937007874
          },
          {
            "number": 11,
            "time": 74.87854022916689,
            "value": 0.9448818897637795
          },
          {
            "number": 11,
            "time": 74.89639736458355,
            "value": 0.9212598425196851
          },
          {
            "number": 11,
            "time": 74.91425450000021,
            "value": 0.905511811023622
          },
          {
            "number": 11,
            "time": 74.93211163541687,
            "value": 0.8818897637795275
          },
          {
            "number": 11,
            "time": 74.94996877083354,
            "value": 0.8582677165354331
          },
          {
            "number": 11,
            "time": 74.9678259062502,
            "value": 0.84251968503937
          },
          {
            "number": 11,
            "time": 74.98568304166686,
            "value": 0.8346456692913385
          },
          {
            "number": 11,
            "time": 75.00354017708352,
            "value": 0.8267716535433071
          },
          {
            "number": 11,
            "time": 75.05711158333352,
            "value": 0.8346456692913385
          },
          {
            "number": 11,
            "time": 75.07496871875018,
            "value": 0.84251968503937
          },
          {
            "number": 11,
            "time": 75.09282585416686,
            "value": 0.8503937007874016
          },
          {
            "number": 11,
            "time": 75.11068298958352,
            "value": 0.8582677165354331
          },
          {
            "number": 11,
            "time": 75.12925441041686,
            "value": 0.8740157480314961
          },
          {
            "number": 11,
            "time": 75.14711154583352,
            "value": 0.8818897637795275
          },
          {
            "number": 11,
            "time": 75.16496868125019,
            "value": 0.889763779527559
          },
          {
            "number": 11,
            "time": 75.18282581666685,
            "value": 0.8976377952755905
          },
          {
            "number": 11,
            "time": 75.20068295208351,
            "value": 0.905511811023622
          },
          {
            "number": 11,
            "time": 75.21854008750017,
            "value": 0.9133858267716536
          },
          {
            "number": 11,
            "time": 75.23639722291684,
            "value": 0.9212598425196851
          },
          {
            "number": 11,
            "time": 75.2542543583335,
            "value": 0.9291338582677166
          },
          {
            "number": 11,
            "time": 75.27211149375016,
            "value": 0.937007874015748
          },
          {
            "number": 11,
            "time": 75.28996862916682,
            "value": 0.9448818897637795
          },
          {
            "number": 11,
            "time": 75.30782576458348,
            "value": 0.952755905511811
          },
          {
            "number": 11,
            "time": 75.36139717083348,
            "value": 0.9606299212598425
          },
          {
            "number": 11,
            "time": 75.45139713333349,
            "value": 0.968503937007874
          },
          {
            "number": 11,
            "time": 75.46925426875015,
            "value": 0.9763779527559056
          },
          {
            "number": 11,
            "time": 75.52568281666682,
            "value": 0.984251968503937
          },
          {
            "number": 11,
            "time": 75.54353995208348,
            "value": 0.9921259842519685
          },
          {
            "number": 11,
            "time": 75.59711135833348,
            "value": 1
          },
          {
            "number": 11,
            "time": 76.08068258541681,
            "value": 0.9921259842519685
          },
          {
            "number": 11,
            "time": 76.09853972083347,
            "value": 0.984251968503937
          },
          {
            "number": 11,
            "time": 76.11711114166681,
            "value": 0.9606299212598425
          },
          {
            "number": 11,
            "time": 76.13496827708347,
            "value": 0.9448818897637795
          },
          {
            "number": 11,
            "time": 76.15282541250014,
            "value": 0.9291338582677166
          },
          {
            "number": 11,
            "time": 76.1706825479168,
            "value": 0.905511811023622
          },
          {
            "number": 11,
            "time": 76.18853968333346,
            "value": 0.889763779527559
          },
          {
            "number": 11,
            "time": 76.20639681875012,
            "value": 0.8740157480314961
          },
          {
            "number": 11,
            "time": 76.22425395416678,
            "value": 0.8503937007874016
          },
          {
            "number": 11,
            "time": 76.24211108958345,
            "value": 0.8346456692913385
          },
          {
            "number": 11,
            "time": 76.25996822500011,
            "value": 0.8188976377952756
          },
          {
            "number": 11,
            "time": 76.27782536041677,
            "value": 0.8110236220472441
          },
          {
            "number": 11,
            "time": 76.29568249583343,
            "value": 0.7874015748031497
          },
          {
            "number": 11,
            "time": 76.3135396312501,
            "value": 0.7716535433070866
          },
          {
            "number": 11,
            "time": 76.33139676666676,
            "value": 0.7637795275590551
          },
          {
            "number": 11,
            "time": 76.34925390208342,
            "value": 0.7559055118110236
          },
          {
            "number": 11,
            "time": 76.36711103750008,
            "value": 0.7480314960629921
          },
          {
            "number": 11,
            "time": 76.45711100000008,
            "value": 0.7559055118110236
          },
          {
            "number": 11,
            "time": 76.47496813541674,
            "value": 0.7716535433070866
          },
          {
            "number": 11,
            "time": 76.4928252708334,
            "value": 0.7795275590551181
          },
          {
            "number": 11,
            "time": 76.51068240625007,
            "value": 0.7874015748031497
          },
          {
            "number": 11,
            "time": 76.52853954166673,
            "value": 0.7952755905511811
          },
          {
            "number": 11,
            "time": 76.5463966770834,
            "value": 0.8031496062992126
          },
          {
            "number": 11,
            "time": 76.56425381250006,
            "value": 0.8188976377952756
          },
          {
            "number": 11,
            "time": 76.58211094791672,
            "value": 0.8267716535433071
          },
          {
            "number": 11,
            "time": 76.59996808333338,
            "value": 0.8346456692913385
          },
          {
            "number": 11,
            "time": 76.61782521875004,
            "value": 0.8503937007874016
          },
          {
            "number": 11,
            "time": 76.63639663958338,
            "value": 0.8661417322834646
          },
          {
            "number": 11,
            "time": 76.65711091666671,
            "value": 0.8740157480314961
          },
          {
            "number": 11,
            "time": 76.67496805208337,
            "value": 0.889763779527559
          },
          {
            "number": 11,
            "time": 76.69282518750003,
            "value": 0.8976377952755905
          },
          {
            "number": 11,
            "time": 76.7106823229167,
            "value": 0.905511811023622
          },
          {
            "number": 11,
            "time": 76.72853945833336,
            "value": 0.9212598425196851
          },
          {
            "number": 11,
            "time": 76.74639659375002,
            "value": 0.9291338582677166
          },
          {
            "number": 11,
            "time": 76.78211086458336,
            "value": 0.937007874015748
          },
          {
            "number": 11,
            "time": 76.79996800000002,
            "value": 0.9448818897637795
          },
          {
            "number": 11,
            "time": 76.83568227083336,
            "value": 0.952755905511811
          },
          {
            "number": 11,
            "time": 76.8542536916667,
            "value": 0.9606299212598425
          },
          {
            "number": 11,
            "time": 76.87211082708336,
            "value": 0.968503937007874
          },
          {
            "number": 11,
            "time": 76.88996796250002,
            "value": 0.9763779527559056
          },
          {
            "number": 11,
            "time": 76.92568223333336,
            "value": 0.9921259842519685
          },
          {
            "number": 11,
            "time": 77.08639645208336,
            "value": 1
          },
          {
            "number": 11,
            "time": 77.39139632500003,
            "value": 0.9763779527559056
          },
          {
            "number": 11,
            "time": 77.40925346041669,
            "value": 0.9606299212598425
          },
          {
            "number": 11,
            "time": 77.42711059583335,
            "value": 0.9448818897637795
          },
          {
            "number": 11,
            "time": 77.44496773125002,
            "value": 0.9291338582677166
          },
          {
            "number": 11,
            "time": 77.46282486666668,
            "value": 0.9133858267716536
          },
          {
            "number": 11,
            "time": 77.48068200208334,
            "value": 0.905511811023622
          },
          {
            "number": 11,
            "time": 77.4985391375,
            "value": 0.889763779527559
          },
          {
            "number": 11,
            "time": 77.51639627291667,
            "value": 0.8661417322834646
          },
          {
            "number": 11,
            "time": 77.53425340833333,
            "value": 0.8582677165354331
          },
          {
            "number": 11,
            "time": 77.55211054374999,
            "value": 0.84251968503937
          },
          {
            "number": 11,
            "time": 77.56996767916665,
            "value": 0.8346456692913385
          },
          {
            "number": 11,
            "time": 77.58782481458331,
            "value": 0.8110236220472441
          },
          {
            "number": 11,
            "time": 77.60568194999998,
            "value": 0.7952755905511811
          },
          {
            "number": 11,
            "time": 77.62425337083332,
            "value": 0.7716535433070866
          },
          {
            "number": 11,
            "time": 77.64211050624998,
            "value": 0.7559055118110236
          },
          {
            "number": 11,
            "time": 77.65996764166664,
            "value": 0.7322834645669292
          },
          {
            "number": 11,
            "time": 77.6778247770833,
            "value": 0.7244094488188977
          },
          {
            "number": 11,
            "time": 77.69568191249996,
            "value": 0.7165354330708661
          },
          {
            "number": 11,
            "time": 77.80282472499997,
            "value": 0.7244094488188977
          },
          {
            "number": 11,
            "time": 77.8235390020833,
            "value": 0.7322834645669292
          },
          {
            "number": 11,
            "time": 77.84211042291663,
            "value": 0.7559055118110236
          },
          {
            "number": 11,
            "time": 77.8599675583333,
            "value": 0.7716535433070866
          },
          {
            "number": 11,
            "time": 77.87782469374996,
            "value": 0.7874015748031497
          },
          {
            "number": 11,
            "time": 77.89568182916662,
            "value": 0.7952755905511811
          },
          {
            "number": 11,
            "time": 77.91353896458328,
            "value": 0.8110236220472441
          },
          {
            "number": 11,
            "time": 77.93139609999994,
            "value": 0.8267716535433071
          },
          {
            "number": 11,
            "time": 77.9492532354166,
            "value": 0.84251968503937
          },
          {
            "number": 11,
            "time": 77.96711037083327,
            "value": 0.8503937007874016
          },
          {
            "number": 11,
            "time": 77.98496750624993,
            "value": 0.8661417322834646
          },
          {
            "number": 11,
            "time": 78.00282464166659,
            "value": 0.8740157480314961
          },
          {
            "number": 11,
            "time": 78.02068177708325,
            "value": 0.8818897637795275
          },
          {
            "number": 11,
            "time": 78.03853891249992,
            "value": 0.889763779527559
          },
          {
            "number": 11,
            "time": 78.05639604791658,
            "value": 0.8976377952755905
          },
          {
            "number": 11,
            "time": 78.07425318333324,
            "value": 0.905511811023622
          },
          {
            "number": 11,
            "time": 78.09282460416658,
            "value": 0.9133858267716536
          },
          {
            "number": 11,
            "time": 78.12853887499992,
            "value": 0.9212598425196851
          },
          {
            "number": 11,
            "time": 78.14639601041658,
            "value": 0.9291338582677166
          },
          {
            "number": 11,
            "time": 78.16425314583324,
            "value": 0.937007874015748
          },
          {
            "number": 11,
            "time": 78.1821102812499,
            "value": 0.9448818897637795
          },
          {
            "number": 11,
            "time": 78.19996741666657,
            "value": 0.952755905511811
          },
          {
            "number": 11,
            "time": 78.21782455208323,
            "value": 0.9606299212598425
          },
          {
            "number": 11,
            "time": 78.25353882291657,
            "value": 0.968503937007874
          },
          {
            "number": 11,
            "time": 78.27139595833323,
            "value": 0.9763779527559056
          },
          {
            "number": 11,
            "time": 78.28925309374989,
            "value": 0.984251968503937
          },
          {
            "number": 11,
            "time": 78.30711022916655,
            "value": 0.9921259842519685
          },
          {
            "number": 11,
            "time": 78.88068141874989,
            "value": 0.984251968503937
          },
          {
            "number": 11,
            "time": 78.89853855416655,
            "value": 0.9763779527559056
          },
          {
            "number": 11,
            "time": 78.91639568958321,
            "value": 0.952755905511811
          },
          {
            "number": 11,
            "time": 78.93425282499987,
            "value": 0.937007874015748
          },
          {
            "number": 11,
            "time": 78.95210996041654,
            "value": 0.9133858267716536
          },
          {
            "number": 11,
            "time": 78.97282423749986,
            "value": 0.8976377952755905
          },
          {
            "number": 11,
            "time": 78.99068137291653,
            "value": 0.8740157480314961
          },
          {
            "number": 11,
            "time": 79.00853850833319,
            "value": 0.8503937007874016
          },
          {
            "number": 11,
            "time": 79.02639564374985,
            "value": 0.8346456692913385
          },
          {
            "number": 11,
            "time": 79.04425277916651,
            "value": 0.8267716535433071
          },
          {
            "number": 11,
            "time": 79.06210991458317,
            "value": 0.8110236220472441
          },
          {
            "number": 11,
            "time": 79.11639560624984,
            "value": 0.8188976377952756
          },
          {
            "number": 11,
            "time": 79.1342527416665,
            "value": 0.8267716535433071
          },
          {
            "number": 11,
            "time": 79.15210987708316,
            "value": 0.8503937007874016
          },
          {
            "number": 11,
            "time": 79.16996701249982,
            "value": 0.8818897637795275
          },
          {
            "number": 11,
            "time": 79.18782414791649,
            "value": 0.9212598425196851
          },
          {
            "number": 11,
            "time": 79.20568128333315,
            "value": 0.9606299212598425
          },
          {
            "number": 11,
            "time": 79.22353841874981,
            "value": 0.984251968503937
          },
          {
            "number": 11,
            "time": 79.24139555416647,
            "value": 0.9921259842519685
          },
          {
            "number": 11,
            "time": 79.38496692291648,
            "value": 1
          },
          {
            "number": 11,
            "time": 79.88568099999982,
            "value": 0.6220472440944882
          },
          {
            "number": 11,
            "time": 79.88746671354149,
            "value": 0.6456692913385826
          },
          {
            "number": 11,
            "time": 79.89460956770816,
            "value": 0.6535433070866141
          },
          {
            "number": 11,
            "time": 79.89639528124982,
            "value": 0.6456692913385826
          },
          {
            "number": 11,
            "time": 80.04818093229149,
            "value": 0.9921259842519685
          },
          {
            "number": 11,
            "time": 80.05175235937482,
            "value": 0.984251968503937
          },
          {
            "number": 11,
            "time": 80.05353807291648,
            "value": 0.984251968503937
          },
          {
            "number": 11,
            "time": 80.05532378645815,
            "value": 0.9763779527559056
          },
          {
            "number": 11,
            "time": 80.05710949999981,
            "value": 0.984251968503937
          },
          {
            "number": 11,
            "time": 80.23389514062481,
            "value": 0.7637795275590551
          },
          {
            "number": 11,
            "time": 80.23568085416647,
            "value": 0.7559055118110236
          },
          {
            "number": 11,
            "time": 80.23746656770814,
            "value": 0.6299212598425197
          },
          {
            "number": 11,
            "time": 80.2392522812498,
            "value": 0.5196850393700787
          },
          {
            "number": 11,
            "time": 80.24103799479147,
            "value": 0.6299212598425197
          },
          {
            "number": 11,
            "time": 80.2606808437498,
            "value": 0.6299212598425197
          },
          {
            "number": 11,
            "time": 80.38746650520812,
            "value": 0.7637795275590551
          },
          {
            "number": 11,
            "time": 80.38925221874979,
            "value": 0.9921259842519685
          },
          {
            "number": 11,
            "time": 80.39282364583312,
            "value": 0.9921259842519685
          },
          {
            "number": 11,
            "time": 80.39460935937478,
            "value": 0.9921259842519685
          },
          {
            "number": 11,
            "time": 80.40853792499978,
            "value": 0.8346456692913385
          },
          {
            "number": 11,
            "time": 80.47996646666644,
            "value": 0.84251968503937
          },
          {
            "number": 11,
            "time": 80.4978236020831,
            "value": 0.8503937007874016
          },
          {
            "number": 11,
            "time": 80.51568073749976,
            "value": 0.8582677165354331
          },
          {
            "number": 11,
            "time": 80.53353787291643,
            "value": 0.8661417322834646
          },
          {
            "number": 11,
            "time": 80.56925214374976,
            "value": 0.8740157480314961
          },
          {
            "number": 11,
            "time": 80.5878235645831,
            "value": 0.8818897637795275
          },
          {
            "number": 11,
            "time": 80.60568069999977,
            "value": 0.889763779527559
          },
          {
            "number": 11,
            "time": 80.62353783541643,
            "value": 0.905511811023622
          },
          {
            "number": 11,
            "time": 80.64139497083309,
            "value": 0.9212598425196851
          },
          {
            "number": 11,
            "time": 80.65925210624975,
            "value": 0.9448818897637795
          },
          {
            "number": 11,
            "time": 80.67710924166641,
            "value": 0.968503937007874
          },
          {
            "number": 11,
            "time": 80.69496637708308,
            "value": 0.984251968503937
          },
          {
            "number": 11,
            "time": 80.71282351249974,
            "value": 0.9921259842519685
          },
          {
            "number": 11,
            "time": 80.76639491874974,
            "value": 1
          },
          {
            "number": 11,
            "time": 81.73639451458307,
            "value": 0.984251968503937
          },
          {
            "number": 11,
            "time": 81.75425164999973,
            "value": 0.952755905511811
          },
          {
            "number": 11,
            "time": 81.77210878541639,
            "value": 0.9212598425196851
          },
          {
            "number": 11,
            "time": 81.78996592083305,
            "value": 0.8976377952755905
          },
          {
            "number": 11,
            "time": 81.80782305624972,
            "value": 0.8740157480314961
          },
          {
            "number": 11,
            "time": 81.82639447708306,
            "value": 0.8661417322834646
          },
          {
            "number": 11,
            "time": 81.84425161249972,
            "value": 0.8582677165354331
          },
          {
            "number": 11,
            "time": 81.89782301874972,
            "value": 0.8661417322834646
          },
          {
            "number": 11,
            "time": 81.93353728958306,
            "value": 0.8818897637795275
          },
          {
            "number": 11,
            "time": 81.95139442499972,
            "value": 0.889763779527559
          },
          {
            "number": 11,
            "time": 81.96925156041638,
            "value": 0.905511811023622
          },
          {
            "number": 11,
            "time": 81.98710869583304,
            "value": 0.9291338582677166
          },
          {
            "number": 11,
            "time": 82.0049658312497,
            "value": 0.9448818897637795
          },
          {
            "number": 11,
            "time": 82.02282296666637,
            "value": 0.952755905511811
          },
          {
            "number": 11,
            "time": 82.04068010208303,
            "value": 0.9763779527559056
          },
          {
            "number": 11,
            "time": 82.05853723749969,
            "value": 0.984251968503937
          },
          {
            "number": 11,
            "time": 82.07710865833303,
            "value": 0.9921259842519685
          },
          {
            "number": 11,
            "time": 82.11282292916637,
            "value": 1
          },
          {
            "number": 11,
            "time": 82.97496542708305,
            "value": 0.984251968503937
          },
          {
            "number": 11,
            "time": 82.99282256249971,
            "value": 0.968503937007874
          },
          {
            "number": 11,
            "time": 83.01067969791637,
            "value": 0.9448818897637795
          },
          {
            "number": 11,
            "time": 83.02853683333304,
            "value": 0.9291338582677166
          },
          {
            "number": 11,
            "time": 83.0463939687497,
            "value": 0.905511811023622
          },
          {
            "number": 11,
            "time": 83.06496538958304,
            "value": 0.8818897637795275
          },
          {
            "number": 11,
            "time": 83.0828225249997,
            "value": 0.8582677165354331
          },
          {
            "number": 11,
            "time": 83.10067966041636,
            "value": 0.84251968503937
          },
          {
            "number": 11,
            "time": 83.11853679583302,
            "value": 0.8346456692913385
          },
          {
            "number": 11,
            "time": 83.13639393124969,
            "value": 0.8110236220472441
          },
          {
            "number": 11,
            "time": 83.15425106666635,
            "value": 0.8031496062992126
          },
          {
            "number": 11,
            "time": 83.17210820208301,
            "value": 0.7952755905511811
          },
          {
            "number": 11,
            "time": 83.18996533749967,
            "value": 0.7874015748031497
          },
          {
            "number": 11,
            "time": 83.29996529166634,
            "value": 0.8031496062992126
          },
          {
            "number": 11,
            "time": 83.31853671249968,
            "value": 0.8346456692913385
          },
          {
            "number": 11,
            "time": 83.33639384791634,
            "value": 0.8582677165354331
          },
          {
            "number": 11,
            "time": 83.354250983333,
            "value": 0.8818897637795275
          },
          {
            "number": 11,
            "time": 83.37210811874967,
            "value": 0.889763779527559
          },
          {
            "number": 11,
            "time": 83.38996525416633,
            "value": 0.905511811023622
          },
          {
            "number": 11,
            "time": 83.40782238958299,
            "value": 0.9133858267716536
          },
          {
            "number": 11,
            "time": 83.42567952499965,
            "value": 0.9212598425196851
          },
          {
            "number": 11,
            "time": 83.44353666041631,
            "value": 0.9448818897637795
          },
          {
            "number": 11,
            "time": 83.46139379583298,
            "value": 0.9606299212598425
          },
          {
            "number": 11,
            "time": 83.47853664583297,
            "value": 0.968503937007874
          },
          {
            "number": 11,
            "time": 83.49710806666631,
            "value": 0.9763779527559056
          },
          {
            "number": 11,
            "time": 83.51496520208298,
            "value": 0.984251968503937
          },
          {
            "number": 11,
            "time": 83.53353662291632,
            "value": 0.9921259842519685
          },
          {
            "number": 11,
            "time": 83.62282229999965,
            "value": 1
          },
          {
            "number": 11,
            "time": 84.42853624999965,
            "value": 0.9921259842519685
          },
          {
            "number": 11,
            "time": 84.44639338541631,
            "value": 0.968503937007874
          },
          {
            "number": 11,
            "time": 84.46425052083298,
            "value": 0.9291338582677166
          },
          {
            "number": 11,
            "time": 84.48210765624964,
            "value": 0.8976377952755905
          },
          {
            "number": 11,
            "time": 84.4999647916663,
            "value": 0.8661417322834646
          },
          {
            "number": 11,
            "time": 84.51782192708296,
            "value": 0.8346456692913385
          },
          {
            "number": 11,
            "time": 84.53567906249963,
            "value": 0.8110236220472441
          },
          {
            "number": 11,
            "time": 84.55710762499963,
            "value": 0.7874015748031497
          },
          {
            "number": 11,
            "time": 84.5749647604163,
            "value": 0.7795275590551181
          },
          {
            "number": 11,
            "time": 84.66139329583297,
            "value": 0.8031496062992126
          },
          {
            "number": 11,
            "time": 84.67925043124963,
            "value": 0.8346456692913385
          },
          {
            "number": 11,
            "time": 84.69710756666629,
            "value": 0.8740157480314961
          },
          {
            "number": 11,
            "time": 84.71496470208295,
            "value": 0.9133858267716536
          },
          {
            "number": 11,
            "time": 84.73282183749961,
            "value": 0.9448818897637795
          },
          {
            "number": 11,
            "time": 84.75067897291628,
            "value": 0.952755905511811
          },
          {
            "number": 11,
            "time": 84.77210753541628,
            "value": 0.9606299212598425
          },
          {
            "number": 11,
            "time": 84.78996467083294,
            "value": 0.968503937007874
          },
          {
            "number": 11,
            "time": 84.8078218062496,
            "value": 0.9763779527559056
          },
          {
            "number": 11,
            "time": 84.82567894166627,
            "value": 0.984251968503937
          },
          {
            "number": 11,
            "time": 84.84353607708293,
            "value": 0.9921259842519685
          },
          {
            "number": 11,
            "time": 85.1121073937496,
            "value": 1
          },
          {
            "number": 11,
            "time": 85.75996426666626,
            "value": 0.9763779527559056
          },
          {
            "number": 11,
            "time": 85.77424997499959,
            "value": 0.9448818897637795
          },
          {
            "number": 11,
            "time": 85.79282139583293,
            "value": 0.9133858267716536
          },
          {
            "number": 11,
            "time": 85.81353567291626,
            "value": 0.8818897637795275
          },
          {
            "number": 11,
            "time": 85.82853566666626,
            "value": 0.8582677165354331
          },
          {
            "number": 11,
            "time": 85.84639280208292,
            "value": 0.8346456692913385
          },
          {
            "number": 11,
            "time": 85.86424993749958,
            "value": 0.8110236220472441
          },
          {
            "number": 11,
            "time": 85.88210707291624,
            "value": 0.7952755905511811
          },
          {
            "number": 11,
            "time": 85.8999642083329,
            "value": 0.7795275590551181
          },
          {
            "number": 11,
            "time": 85.99210702708291,
            "value": 0.7874015748031497
          },
          {
            "number": 11,
            "time": 86.00996416249957,
            "value": 0.7952755905511811
          },
          {
            "number": 11,
            "time": 86.02853558333291,
            "value": 0.8031496062992126
          },
          {
            "number": 11,
            "time": 86.04639271874957,
            "value": 0.8267716535433071
          },
          {
            "number": 11,
            "time": 86.06424985416625,
            "value": 0.8503937007874016
          },
          {
            "number": 11,
            "time": 86.08210698958291,
            "value": 0.8661417322834646
          },
          {
            "number": 11,
            "time": 86.09996412499957,
            "value": 0.889763779527559
          },
          {
            "number": 11,
            "time": 86.11782126041624,
            "value": 0.905511811023622
          },
          {
            "number": 11,
            "time": 86.1356783958329,
            "value": 0.9212598425196851
          },
          {
            "number": 11,
            "time": 86.15353553124956,
            "value": 0.9291338582677166
          },
          {
            "number": 11,
            "time": 86.17139266666622,
            "value": 0.937007874015748
          },
          {
            "number": 11,
            "time": 86.18924980208288,
            "value": 0.9448818897637795
          },
          {
            "number": 11,
            "time": 86.20710693749955,
            "value": 0.952755905511811
          },
          {
            "number": 11,
            "time": 86.22496407291621,
            "value": 0.9606299212598425
          },
          {
            "number": 11,
            "time": 86.29710689999955,
            "value": 0.968503937007874
          },
          {
            "number": 11,
            "time": 86.33282117083289,
            "value": 0.9763779527559056
          },
          {
            "number": 11,
            "time": 86.36853544166622,
            "value": 0.984251968503937
          },
          {
            "number": 11,
            "time": 86.38639257708289,
            "value": 0.9921259842519685
          },
          {
            "number": 11,
            "time": 86.58353535208289,
            "value": 1
          },
          {
            "number": 11,
            "time": 87.10567799166623,
            "value": 0.9921259842519685
          },
          {
            "number": 11,
            "time": 87.12353512708289,
            "value": 0.9606299212598425
          },
          {
            "number": 11,
            "time": 87.14139226249955,
            "value": 0.9212598425196851
          },
          {
            "number": 11,
            "time": 87.15924939791621,
            "value": 0.889763779527559
          },
          {
            "number": 11,
            "time": 87.17710653333287,
            "value": 0.8661417322834646
          },
          {
            "number": 11,
            "time": 87.19496366874954,
            "value": 0.8582677165354331
          },
          {
            "number": 11,
            "time": 87.2128208041662,
            "value": 0.8503937007874016
          },
          {
            "number": 11,
            "time": 87.23067793958286,
            "value": 0.84251968503937
          },
          {
            "number": 11,
            "time": 87.3028207666662,
            "value": 0.8503937007874016
          },
          {
            "number": 11,
            "time": 87.32067790208286,
            "value": 0.8582677165354331
          },
          {
            "number": 11,
            "time": 87.33853503749953,
            "value": 0.8740157480314961
          },
          {
            "number": 11,
            "time": 87.35639217291619,
            "value": 0.8976377952755905
          },
          {
            "number": 11,
            "time": 87.37424930833285,
            "value": 0.9212598425196851
          },
          {
            "number": 11,
            "time": 87.39210644374951,
            "value": 0.937007874015748
          },
          {
            "number": 11,
            "time": 87.40996357916617,
            "value": 0.9606299212598425
          },
          {
            "number": 11,
            "time": 87.42782071458284,
            "value": 0.9763779527559056
          },
          {
            "number": 11,
            "time": 87.4456778499995,
            "value": 0.984251968503937
          },
          {
            "number": 11,
            "time": 87.46353498541616,
            "value": 0.9921259842519685
          },
          {
            "number": 11,
            "time": 87.48139212083282,
            "value": 1
          }
        ],
        "32": [
          {
            "number": 32,
            "time": 0.9142853333333334,
            "value": 0
          }
        ]
      },
      "id": 15,
      "instrumentNumber": 48,
      "instrument": "string ensemble 1",
      "instrumentFamily": "ensemble",
      "channelNumber": 14,
      "isPercussion": false
    },
    {
      "startTime": 10.799995500000001,
      "duration": 88.79996299999975,
      "length": 50,
      "notes": [
        {
          "name": "D3",
          "midi": 50,
          "time": 10.799995500000001,
          "velocity": 0.7952755905511811,
          "duration": 0.8571425000000001
        },
        {
          "name": "F#3",
          "midi": 54,
          "time": 11.999995000000002,
          "velocity": 0.7952755905511811,
          "duration": 1.1999995000000219
        },
        {
          "name": "F3",
          "midi": 53,
          "time": 13.199994500000024,
          "velocity": 0.7480314960629921,
          "duration": 0.8571425000000215
        },
        {
          "name": "B3",
          "midi": 59,
          "time": 14.057137000000045,
          "velocity": 0.7795275590551181,
          "duration": 0.685714000000015
        },
        {
          "name": "A#3",
          "midi": 58,
          "time": 14.74285100000006,
          "velocity": 0.7637795275590551,
          "duration": 0.6857140000000133
        },
        {
          "name": "G#3",
          "midi": 56,
          "time": 15.428565000000074,
          "velocity": 0.7559055118110236,
          "duration": 0.5142855000000068
        },
        {
          "name": "F#3",
          "midi": 54,
          "time": 15.94285050000008,
          "velocity": 0.8110236220472441,
          "duration": 0.5142854999999962
        },
        {
          "name": "D#3",
          "midi": 51,
          "time": 16.457136000000077,
          "velocity": 0.7401574803149606,
          "duration": 1.0285709999999781
        },
        {
          "name": "A#3",
          "midi": 58,
          "time": 17.485707000000055,
          "velocity": 0.7952755905511811,
          "duration": 1.19999949999999
        },
        {
          "name": "B3",
          "midi": 59,
          "time": 18.685706500000045,
          "velocity": 0.8267716535433071,
          "duration": 1.5428564999999779
        },
        {
          "name": "C#4",
          "midi": 61,
          "time": 20.228563000000022,
          "velocity": 0.7480314960629921,
          "duration": 1.371427999999959
        },
        {
          "name": "D#4",
          "midi": 63,
          "time": 21.59999099999998,
          "velocity": 0.7952755905511811,
          "duration": 0.6857139999999902
        },
        {
          "name": "D#4",
          "midi": 63,
          "time": 22.28570499999997,
          "velocity": 0.7637795275590551,
          "duration": 0.6857139999999937
        },
        {
          "name": "D#3",
          "midi": 51,
          "time": 44.914266999999974,
          "velocity": 0.7007874015748031,
          "duration": 2.7428560000000815
        },
        {
          "name": "D#3",
          "midi": 51,
          "time": 47.657123000000055,
          "velocity": 0.7244094488188977,
          "duration": 2.7428560000001028
        },
        {
          "name": "G3",
          "midi": 55,
          "time": 50.39997900000016,
          "velocity": 0.7007874015748031,
          "duration": 0.6857140000000328
        },
        {
          "name": "A#3",
          "midi": 58,
          "time": 51.08569300000019,
          "velocity": 0.7874015748031497,
          "duration": 0.6857140000000541
        },
        {
          "name": "D4",
          "midi": 62,
          "time": 51.771407000000245,
          "velocity": 0.6929133858267716,
          "duration": 0.685714000000047
        },
        {
          "name": "A#3",
          "midi": 58,
          "time": 52.45712100000029,
          "velocity": 0.7401574803149606,
          "duration": 0.6857140000000399
        },
        {
          "name": "C3",
          "midi": 48,
          "time": 53.14283500000033,
          "velocity": 0.7086614173228346,
          "duration": 2.7428560000000815
        },
        {
          "name": "A2",
          "midi": 45,
          "time": 55.88569100000041,
          "velocity": 0.7165354330708661,
          "duration": 2.7428560000000957
        },
        {
          "name": "D#3",
          "midi": 51,
          "time": 58.62854700000051,
          "velocity": 0.6771653543307087,
          "duration": 1.371428000000094
        },
        {
          "name": "D#3",
          "midi": 51,
          "time": 59.9999750000006,
          "velocity": 0.84251968503937,
          "duration": 0.6857140000000541
        },
        {
          "name": "A#3",
          "midi": 58,
          "time": 60.68568900000066,
          "velocity": 0.8346456692913385,
          "duration": 0.6857140000000541
        },
        {
          "name": "C3",
          "midi": 48,
          "time": 61.37140300000071,
          "velocity": 0.7322834645669292,
          "duration": 1.3714280000000727
        },
        {
          "name": "D3",
          "midi": 50,
          "time": 62.742831000000784,
          "velocity": 0.8503937007874016,
          "duration": 1.3714280000000727
        },
        {
          "name": "D#3",
          "midi": 51,
          "time": 64.11425900000086,
          "velocity": 0.8661417322834646,
          "duration": 1.3714280000000514
        },
        {
          "name": "F3",
          "midi": 53,
          "time": 65.48568700000091,
          "velocity": 0.968503937007874,
          "duration": 0.6857140000001323
        },
        {
          "name": "B2",
          "midi": 47,
          "time": 66.85711500000104,
          "velocity": 0.7795275590551181,
          "duration": 1.3714279999999093
        },
        {
          "name": "C#3",
          "midi": 49,
          "time": 68.22854300000095,
          "velocity": 0.8188976377952756,
          "duration": 1.371427999999895
        },
        {
          "name": "F3",
          "midi": 53,
          "time": 69.59997100000085,
          "velocity": 0.8346456692913385,
          "duration": 1.371427999999895
        },
        {
          "name": "D#3",
          "midi": 51,
          "time": 70.97139900000074,
          "velocity": 0.8031496062992126,
          "duration": 0.3428569999999951
        },
        {
          "name": "D#3",
          "midi": 51,
          "time": 71.48568450000074,
          "velocity": 0.84251968503937,
          "duration": 0.17142850000000465
        },
        {
          "name": "D#3",
          "midi": 51,
          "time": 71.82854150000075,
          "velocity": 0.8346456692913385,
          "duration": 0.11428566666666029
        },
        {
          "name": "D#3",
          "midi": 51,
          "time": 71.99997000000074,
          "velocity": 0.8031496062992126,
          "duration": 0.11428566666666029
        },
        {
          "name": "C#3",
          "midi": 49,
          "time": 72.17139850000073,
          "velocity": 0.8503937007874016,
          "duration": 0.11428566666666029
        },
        {
          "name": "B2",
          "midi": 47,
          "time": 72.34282700000072,
          "velocity": 0.8188976377952756,
          "duration": 1.3714279999999093
        },
        {
          "name": "C#3",
          "midi": 49,
          "time": 73.71425500000063,
          "velocity": 0.8110236220472441,
          "duration": 1.3714279999999093
        },
        {
          "name": "D#3",
          "midi": 51,
          "time": 75.08568300000054,
          "velocity": 0.8188976377952756,
          "duration": 1.1999994999998904
        },
        {
          "name": "D#3",
          "midi": 51,
          "time": 76.28568250000043,
          "velocity": 0.7874015748031497,
          "duration": 1.542856499999914
        },
        {
          "name": "B2",
          "midi": 47,
          "time": 77.82853900000035,
          "velocity": 0.7952755905511811,
          "duration": 1.371427999999895
        },
        {
          "name": "C#3",
          "midi": 49,
          "time": 79.19996700000024,
          "velocity": 0.8031496062992126,
          "duration": 0.3428569999999951
        },
        {
          "name": "C#3",
          "midi": 49,
          "time": 79.71425250000024,
          "velocity": 0.84251968503937,
          "duration": 0.17142850000000465
        },
        {
          "name": "C#3",
          "midi": 49,
          "time": 80.05710950000024,
          "velocity": 0.7952755905511811,
          "duration": 0.17142850000000465
        },
        {
          "name": "F3",
          "midi": 53,
          "time": 80.3999665000002,
          "velocity": 0.84251968503937,
          "duration": 1.5428564999999423
        },
        {
          "name": "F#3",
          "midi": 54,
          "time": 81.94282300000015,
          "velocity": 0.8267716535433071,
          "duration": 1.3714279999999093
        },
        {
          "name": "F#3",
          "midi": 54,
          "time": 83.31425100000006,
          "velocity": 0.8188976377952756,
          "duration": 1.3714279999998524
        },
        {
          "name": "F3",
          "midi": 53,
          "time": 84.68567899999991,
          "velocity": 0.8031496062992126,
          "duration": 1.3714279999999235
        },
        {
          "name": "F#3",
          "midi": 54,
          "time": 86.05710699999983,
          "velocity": 0.84251968503937,
          "duration": 1.3714279999999235
        },
        {
          "name": "C#4",
          "midi": 61,
          "time": 87.42853499999975,
          "velocity": 0.7952755905511811,
          "duration": 1.3714279999999945
        }
      ],
      "controlChanges": {
        "6": [
          {
            "number": 6,
            "time": 0.9714281666666668,
            "value": 0.12598425196850394
          }
        ],
        "7": [
          {
            "number": 7,
            "time": 0.9714281666666668,
            "value": 0.8188976377952756
          }
        ],
        "10": [
          {
            "number": 10,
            "time": 0.9714281666666668,
            "value": 0.6614173228346457
          }
        ],
        "11": [
          {
            "number": 11,
            "time": 11.999995000000002,
            "value": 0.7480314960629921
          },
          {
            "number": 11,
            "time": 12.091423533333336,
            "value": 0.7559055118110236
          },
          {
            "number": 11,
            "time": 12.109280668750003,
            "value": 0.7637795275590551
          },
          {
            "number": 11,
            "time": 12.12713780416667,
            "value": 0.7716535433070866
          },
          {
            "number": 11,
            "time": 12.144994939583338,
            "value": 0.7874015748031497
          },
          {
            "number": 11,
            "time": 12.162852075000005,
            "value": 0.8031496062992126
          },
          {
            "number": 11,
            "time": 12.180709210416673,
            "value": 0.8110236220472441
          },
          {
            "number": 11,
            "time": 12.19856634583334,
            "value": 0.8188976377952756
          },
          {
            "number": 11,
            "time": 12.216423481250008,
            "value": 0.84251968503937
          },
          {
            "number": 11,
            "time": 12.234280616666675,
            "value": 0.8503937007874016
          },
          {
            "number": 11,
            "time": 12.252137752083343,
            "value": 0.8582677165354331
          },
          {
            "number": 11,
            "time": 12.270709172916677,
            "value": 0.8740157480314961
          },
          {
            "number": 11,
            "time": 12.288566308333344,
            "value": 0.8818897637795275
          },
          {
            "number": 11,
            "time": 12.306423443750012,
            "value": 0.889763779527559
          },
          {
            "number": 11,
            "time": 12.324280579166679,
            "value": 0.8976377952755905
          },
          {
            "number": 11,
            "time": 12.342137714583346,
            "value": 0.905511811023622
          },
          {
            "number": 11,
            "time": 12.359994850000014,
            "value": 0.9133858267716536
          },
          {
            "number": 11,
            "time": 12.377851985416681,
            "value": 0.9212598425196851
          },
          {
            "number": 11,
            "time": 12.395709120833349,
            "value": 0.9291338582677166
          },
          {
            "number": 11,
            "time": 12.431423391666682,
            "value": 0.937007874015748
          },
          {
            "number": 11,
            "time": 12.44928052708335,
            "value": 0.9448818897637795
          },
          {
            "number": 11,
            "time": 12.843566077083349,
            "value": 0.937007874015748
          },
          {
            "number": 11,
            "time": 12.861423212500016,
            "value": 0.9291338582677166
          },
          {
            "number": 11,
            "time": 12.879280347916684,
            "value": 0.905511811023622
          },
          {
            "number": 11,
            "time": 12.897137483333351,
            "value": 0.8976377952755905
          },
          {
            "number": 11,
            "time": 12.914994618750018,
            "value": 0.8818897637795275
          },
          {
            "number": 11,
            "time": 12.932851754166686,
            "value": 0.8661417322834646
          },
          {
            "number": 11,
            "time": 12.950708889583353,
            "value": 0.8582677165354331
          },
          {
            "number": 11,
            "time": 12.96856602500002,
            "value": 0.84251968503937
          },
          {
            "number": 11,
            "time": 12.986423160416688,
            "value": 0.8346456692913385
          },
          {
            "number": 11,
            "time": 13.004280295833356,
            "value": 0.8110236220472441
          },
          {
            "number": 11,
            "time": 13.022137431250023,
            "value": 0.8031496062992126
          },
          {
            "number": 11,
            "time": 13.040708852083357,
            "value": 0.7952755905511811
          },
          {
            "number": 11,
            "time": 13.094280258333358,
            "value": 0.7874015748031497
          },
          {
            "number": 11,
            "time": 13.294280175000024,
            "value": 0.7952755905511811
          },
          {
            "number": 11,
            "time": 13.312137310416691,
            "value": 0.8031496062992126
          },
          {
            "number": 11,
            "time": 13.329994445833359,
            "value": 0.8188976377952756
          },
          {
            "number": 11,
            "time": 13.347851581250026,
            "value": 0.8267716535433071
          },
          {
            "number": 11,
            "time": 13.365708716666694,
            "value": 0.8346456692913385
          },
          {
            "number": 11,
            "time": 13.383565852083361,
            "value": 0.84251968503937
          },
          {
            "number": 11,
            "time": 13.401422987500029,
            "value": 0.8503937007874016
          },
          {
            "number": 11,
            "time": 13.437137258333362,
            "value": 0.8582677165354331
          },
          {
            "number": 11,
            "time": 13.45499439375003,
            "value": 0.8661417322834646
          },
          {
            "number": 11,
            "time": 13.472851529166697,
            "value": 0.8740157480314961
          },
          {
            "number": 11,
            "time": 13.490708664583364,
            "value": 0.8818897637795275
          },
          {
            "number": 11,
            "time": 13.509280085416698,
            "value": 0.889763779527559
          },
          {
            "number": 11,
            "time": 13.527137220833366,
            "value": 0.905511811023622
          },
          {
            "number": 11,
            "time": 13.544994356250033,
            "value": 0.9212598425196851
          },
          {
            "number": 11,
            "time": 13.5628514916667,
            "value": 0.9291338582677166
          },
          {
            "number": 11,
            "time": 13.580708627083368,
            "value": 0.937007874015748
          },
          {
            "number": 11,
            "time": 13.598565762500035,
            "value": 0.9448818897637795
          },
          {
            "number": 11,
            "time": 13.616422897916703,
            "value": 0.952755905511811
          },
          {
            "number": 11,
            "time": 13.63428003333337,
            "value": 0.9606299212598425
          },
          {
            "number": 11,
            "time": 13.652137168750038,
            "value": 0.968503937007874
          },
          {
            "number": 11,
            "time": 13.669994304166705,
            "value": 0.9763779527559056
          },
          {
            "number": 11,
            "time": 13.777851402083371,
            "value": 0.984251968503937
          },
          {
            "number": 11,
            "time": 13.813565672916704,
            "value": 0.9763779527559056
          },
          {
            "number": 11,
            "time": 13.831422808333372,
            "value": 0.968503937007874
          },
          {
            "number": 11,
            "time": 13.84927994375004,
            "value": 0.9448818897637795
          },
          {
            "number": 11,
            "time": 13.867137079166707,
            "value": 0.9212598425196851
          },
          {
            "number": 11,
            "time": 13.884994214583374,
            "value": 0.8976377952755905
          },
          {
            "number": 11,
            "time": 13.902851350000041,
            "value": 0.8661417322834646
          },
          {
            "number": 11,
            "time": 13.920708485416709,
            "value": 0.8346456692913385
          },
          {
            "number": 11,
            "time": 13.938565620833376,
            "value": 0.8110236220472441
          },
          {
            "number": 11,
            "time": 13.956422756250044,
            "value": 0.7874015748031497
          },
          {
            "number": 11,
            "time": 13.974279891666711,
            "value": 0.7795275590551181
          },
          {
            "number": 11,
            "time": 13.992137027083379,
            "value": 0.7716535433070866
          },
          {
            "number": 11,
            "time": 14.064279854166712,
            "value": 0.7874015748031497
          },
          {
            "number": 11,
            "time": 14.082136989583379,
            "value": 0.8110236220472441
          },
          {
            "number": 11,
            "time": 14.099994125000046,
            "value": 0.8267716535433071
          },
          {
            "number": 11,
            "time": 14.117851260416714,
            "value": 0.8503937007874016
          },
          {
            "number": 11,
            "time": 14.135708395833381,
            "value": 0.8740157480314961
          },
          {
            "number": 11,
            "time": 14.153565531250049,
            "value": 0.889763779527559
          },
          {
            "number": 11,
            "time": 14.171422666666716,
            "value": 0.9133858267716536
          },
          {
            "number": 11,
            "time": 14.189279802083384,
            "value": 0.9291338582677166
          },
          {
            "number": 11,
            "time": 14.207136937500051,
            "value": 0.9448818897637795
          },
          {
            "number": 11,
            "time": 14.224994072916719,
            "value": 0.952755905511811
          },
          {
            "number": 11,
            "time": 14.242851208333386,
            "value": 0.968503937007874
          },
          {
            "number": 11,
            "time": 14.260708343750053,
            "value": 0.984251968503937
          },
          {
            "number": 11,
            "time": 14.282136906250054,
            "value": 0.9921259842519685
          },
          {
            "number": 11,
            "time": 14.568565358333387,
            "value": 0.984251968503937
          },
          {
            "number": 11,
            "time": 14.586422493750055,
            "value": 0.968503937007874
          },
          {
            "number": 11,
            "time": 14.604279629166722,
            "value": 0.9448818897637795
          },
          {
            "number": 11,
            "time": 14.62213676458339,
            "value": 0.9291338582677166
          },
          {
            "number": 11,
            "time": 14.639993900000057,
            "value": 0.8976377952755905
          },
          {
            "number": 11,
            "time": 14.657851035416725,
            "value": 0.8740157480314961
          },
          {
            "number": 11,
            "time": 14.675708170833392,
            "value": 0.84251968503937
          },
          {
            "number": 11,
            "time": 14.69356530625006,
            "value": 0.8110236220472441
          },
          {
            "number": 11,
            "time": 14.711422441666727,
            "value": 0.7874015748031497
          },
          {
            "number": 11,
            "time": 14.729279577083394,
            "value": 0.7637795275590551
          },
          {
            "number": 11,
            "time": 14.801422404166727,
            "value": 0.7716535433070866
          },
          {
            "number": 11,
            "time": 14.819279539583395,
            "value": 0.7874015748031497
          },
          {
            "number": 11,
            "time": 14.837136675000062,
            "value": 0.8110236220472441
          },
          {
            "number": 11,
            "time": 14.85499381041673,
            "value": 0.8346456692913385
          },
          {
            "number": 11,
            "time": 14.872850945833397,
            "value": 0.8582677165354331
          },
          {
            "number": 11,
            "time": 14.890708081250065,
            "value": 0.8818897637795275
          },
          {
            "number": 11,
            "time": 14.908565216666732,
            "value": 0.905511811023622
          },
          {
            "number": 11,
            "time": 14.9264223520834,
            "value": 0.9291338582677166
          },
          {
            "number": 11,
            "time": 14.944279487500067,
            "value": 0.9448818897637795
          },
          {
            "number": 11,
            "time": 14.962136622916734,
            "value": 0.968503937007874
          },
          {
            "number": 11,
            "time": 14.979993758333402,
            "value": 0.984251968503937
          },
          {
            "number": 11,
            "time": 14.99785089375007,
            "value": 0.9921259842519685
          },
          {
            "number": 11,
            "time": 15.052136585416736,
            "value": 1
          },
          {
            "number": 11,
            "time": 15.320707902083402,
            "value": 0.9763779527559056
          },
          {
            "number": 11,
            "time": 15.33856503750007,
            "value": 0.952755905511811
          },
          {
            "number": 11,
            "time": 15.356422172916737,
            "value": 0.9212598425196851
          },
          {
            "number": 11,
            "time": 15.374279308333405,
            "value": 0.889763779527559
          },
          {
            "number": 11,
            "time": 15.392136443750072,
            "value": 0.8661417322834646
          },
          {
            "number": 11,
            "time": 15.40999357916674,
            "value": 0.8582677165354331
          },
          {
            "number": 11,
            "time": 15.427850714583407,
            "value": 0.8503937007874016
          },
          {
            "number": 11,
            "time": 15.448564991666741,
            "value": 0.84251968503937
          },
          {
            "number": 11,
            "time": 15.520707818750074,
            "value": 0.8503937007874016
          },
          {
            "number": 11,
            "time": 15.538564954166741,
            "value": 0.8661417322834646
          },
          {
            "number": 11,
            "time": 15.556422089583409,
            "value": 0.889763779527559
          },
          {
            "number": 11,
            "time": 15.574279225000076,
            "value": 0.9133858267716536
          },
          {
            "number": 11,
            "time": 15.592136360416744,
            "value": 0.9291338582677166
          },
          {
            "number": 11,
            "time": 15.609993495833411,
            "value": 0.952755905511811
          },
          {
            "number": 11,
            "time": 15.627850631250078,
            "value": 0.984251968503937
          },
          {
            "number": 11,
            "time": 15.645707766666746,
            "value": 0.9921259842519685
          },
          {
            "number": 11,
            "time": 15.663564902083413,
            "value": 1
          },
          {
            "number": 11,
            "time": 15.914279083333414,
            "value": 0.9921259842519685
          },
          {
            "number": 11,
            "time": 15.932136218750081,
            "value": 0.968503937007874
          },
          {
            "number": 11,
            "time": 15.949993354166747,
            "value": 0.9448818897637795
          },
          {
            "number": 11,
            "time": 15.967850489583414,
            "value": 0.937007874015748
          },
          {
            "number": 11,
            "time": 15.986421910416748,
            "value": 0.9291338582677166
          },
          {
            "number": 11,
            "time": 16.022136181250083,
            "value": 0.937007874015748
          },
          {
            "number": 11,
            "time": 16.03999331666675,
            "value": 0.952755905511811
          },
          {
            "number": 11,
            "time": 16.057850452083414,
            "value": 0.968503937007874
          },
          {
            "number": 11,
            "time": 16.07570758750008,
            "value": 0.9921259842519685
          },
          {
            "number": 11,
            "time": 16.093564722916746,
            "value": 1
          },
          {
            "number": 11,
            "time": 16.397850310416747,
            "value": 0.984251968503937
          },
          {
            "number": 11,
            "time": 16.415707445833412,
            "value": 0.9448818897637795
          },
          {
            "number": 11,
            "time": 16.433564581250078,
            "value": 0.9133858267716536
          },
          {
            "number": 11,
            "time": 16.451421716666744,
            "value": 0.8818897637795275
          },
          {
            "number": 11,
            "time": 16.46927885208341,
            "value": 0.8503937007874016
          },
          {
            "number": 11,
            "time": 16.487135987500075,
            "value": 0.8346456692913385
          },
          {
            "number": 11,
            "time": 16.505707408333407,
            "value": 0.8267716535433071
          },
          {
            "number": 11,
            "time": 16.597850227083406,
            "value": 0.8346456692913385
          },
          {
            "number": 11,
            "time": 16.61570736250007,
            "value": 0.8582677165354331
          },
          {
            "number": 11,
            "time": 16.633564497916737,
            "value": 0.8818897637795275
          },
          {
            "number": 11,
            "time": 16.651421633333403,
            "value": 0.9133858267716536
          },
          {
            "number": 11,
            "time": 16.66927876875007,
            "value": 0.937007874015748
          },
          {
            "number": 11,
            "time": 16.687135904166734,
            "value": 0.9606299212598425
          },
          {
            "number": 11,
            "time": 16.7049930395834,
            "value": 0.9763779527559056
          },
          {
            "number": 11,
            "time": 16.723564460416732,
            "value": 0.984251968503937
          },
          {
            "number": 11,
            "time": 16.741421595833398,
            "value": 0.9921259842519685
          },
          {
            "number": 11,
            "time": 16.759278731250063,
            "value": 1
          },
          {
            "number": 11,
            "time": 17.08142145416673,
            "value": 0.9921259842519685
          },
          {
            "number": 11,
            "time": 17.099278589583395,
            "value": 0.9763779527559056
          },
          {
            "number": 11,
            "time": 17.11713572500006,
            "value": 0.9606299212598425
          },
          {
            "number": 11,
            "time": 17.134992860416727,
            "value": 0.9448818897637795
          },
          {
            "number": 11,
            "time": 17.152849995833392,
            "value": 0.937007874015748
          },
          {
            "number": 11,
            "time": 17.170707131250058,
            "value": 0.9212598425196851
          },
          {
            "number": 11,
            "time": 17.188564266666724,
            "value": 0.905511811023622
          },
          {
            "number": 11,
            "time": 17.20642140208339,
            "value": 0.889763779527559
          },
          {
            "number": 11,
            "time": 17.224278537500055,
            "value": 0.8818897637795275
          },
          {
            "number": 11,
            "time": 17.242849958333387,
            "value": 0.8740157480314961
          },
          {
            "number": 11,
            "time": 17.260707093750053,
            "value": 0.8661417322834646
          },
          {
            "number": 11,
            "time": 17.564992681250054,
            "value": 0.8818897637795275
          },
          {
            "number": 11,
            "time": 17.58284981666672,
            "value": 0.8976377952755905
          },
          {
            "number": 11,
            "time": 17.600706952083385,
            "value": 0.9212598425196851
          },
          {
            "number": 11,
            "time": 17.61856408750005,
            "value": 0.9448818897637795
          },
          {
            "number": 11,
            "time": 17.636421222916717,
            "value": 0.952755905511811
          },
          {
            "number": 11,
            "time": 17.654278358333382,
            "value": 0.9606299212598425
          },
          {
            "number": 11,
            "time": 17.672135493750048,
            "value": 0.968503937007874
          },
          {
            "number": 11,
            "time": 17.689992629166714,
            "value": 0.9921259842519685
          },
          {
            "number": 11,
            "time": 17.818564004166713,
            "value": 1
          },
          {
            "number": 11,
            "time": 18.624277954166715,
            "value": 0.9763779527559056
          },
          {
            "number": 11,
            "time": 18.64213508958338,
            "value": 0.9606299212598425
          },
          {
            "number": 11,
            "time": 18.659992225000046,
            "value": 0.937007874015748
          },
          {
            "number": 11,
            "time": 18.67784936041671,
            "value": 0.9133858267716536
          },
          {
            "number": 11,
            "time": 18.695706495833377,
            "value": 0.8976377952755905
          },
          {
            "number": 11,
            "time": 18.713563631250043,
            "value": 0.889763779527559
          },
          {
            "number": 11,
            "time": 18.732135052083375,
            "value": 0.8818897637795275
          },
          {
            "number": 11,
            "time": 18.821420729166707,
            "value": 0.8976377952755905
          },
          {
            "number": 11,
            "time": 18.839277864583373,
            "value": 0.9212598425196851
          },
          {
            "number": 11,
            "time": 18.85713500000004,
            "value": 0.9448818897637795
          },
          {
            "number": 11,
            "time": 18.874992135416704,
            "value": 0.968503937007874
          },
          {
            "number": 11,
            "time": 18.89284927083337,
            "value": 0.984251968503937
          },
          {
            "number": 11,
            "time": 18.913563547916702,
            "value": 0.9921259842519685
          },
          {
            "number": 11,
            "time": 18.949992104166704,
            "value": 1
          },
          {
            "number": 11,
            "time": 19.898563137500037,
            "value": 0.984251968503937
          },
          {
            "number": 11,
            "time": 19.916420272916703,
            "value": 0.9606299212598425
          },
          {
            "number": 11,
            "time": 19.93427740833337,
            "value": 0.9291338582677166
          },
          {
            "number": 11,
            "time": 19.952134543750034,
            "value": 0.889763779527559
          },
          {
            "number": 11,
            "time": 19.9699916791667,
            "value": 0.8582677165354331
          },
          {
            "number": 11,
            "time": 19.988563100000032,
            "value": 0.8188976377952756
          },
          {
            "number": 11,
            "time": 20.006420235416698,
            "value": 0.7795275590551181
          },
          {
            "number": 11,
            "time": 20.024277370833364,
            "value": 0.7480314960629921
          },
          {
            "number": 11,
            "time": 20.04213450625003,
            "value": 0.7165354330708661
          },
          {
            "number": 11,
            "time": 20.059991641666695,
            "value": 0.6850393700787402
          },
          {
            "number": 11,
            "time": 20.080705918750027,
            "value": 0.6535433070866141
          },
          {
            "number": 11,
            "time": 20.098563054166693,
            "value": 0.6456692913385826
          },
          {
            "number": 11,
            "time": 20.11642018958336,
            "value": 0.6377952755905512
          },
          {
            "number": 11,
            "time": 20.16999159583336,
            "value": 0.6456692913385826
          },
          {
            "number": 11,
            "time": 20.18856301666669,
            "value": 0.6614173228346457
          },
          {
            "number": 11,
            "time": 20.206420152083357,
            "value": 0.6850393700787402
          },
          {
            "number": 11,
            "time": 20.224277287500023,
            "value": 0.7007874015748031
          },
          {
            "number": 11,
            "time": 20.241420137500022,
            "value": 0.7165354330708661
          },
          {
            "number": 11,
            "time": 20.259991558333354,
            "value": 0.7401574803149606
          },
          {
            "number": 11,
            "time": 20.27784869375002,
            "value": 0.7637795275590551
          },
          {
            "number": 11,
            "time": 20.295705829166685,
            "value": 0.7874015748031497
          },
          {
            "number": 11,
            "time": 20.31356296458335,
            "value": 0.8031496062992126
          },
          {
            "number": 11,
            "time": 20.331420100000017,
            "value": 0.8267716535433071
          },
          {
            "number": 11,
            "time": 20.349277235416682,
            "value": 0.84251968503937
          },
          {
            "number": 11,
            "time": 20.367134370833348,
            "value": 0.8661417322834646
          },
          {
            "number": 11,
            "time": 20.384991506250014,
            "value": 0.8740157480314961
          },
          {
            "number": 11,
            "time": 20.40284864166668,
            "value": 0.8818897637795275
          },
          {
            "number": 11,
            "time": 20.420705777083345,
            "value": 0.889763779527559
          },
          {
            "number": 11,
            "time": 20.43856291250001,
            "value": 0.8976377952755905
          },
          {
            "number": 11,
            "time": 20.457134333333343,
            "value": 0.9133858267716536
          },
          {
            "number": 11,
            "time": 20.47499146875001,
            "value": 0.9212598425196851
          },
          {
            "number": 11,
            "time": 20.492848604166674,
            "value": 0.9291338582677166
          },
          {
            "number": 11,
            "time": 20.52856287500001,
            "value": 0.937007874015748
          },
          {
            "number": 11,
            "time": 20.546420010416675,
            "value": 0.9448818897637795
          },
          {
            "number": 11,
            "time": 20.56427714583334,
            "value": 0.952755905511811
          },
          {
            "number": 11,
            "time": 20.582134281250006,
            "value": 0.9606299212598425
          },
          {
            "number": 11,
            "time": 20.599991416666672,
            "value": 0.968503937007874
          },
          {
            "number": 11,
            "time": 20.617848552083338,
            "value": 0.9763779527559056
          },
          {
            "number": 11,
            "time": 20.635705687500003,
            "value": 0.984251968503937
          },
          {
            "number": 11,
            "time": 20.65356282291667,
            "value": 0.9921259842519685
          },
          {
            "number": 11,
            "time": 21.012134102083337,
            "value": 0.984251968503937
          },
          {
            "number": 11,
            "time": 21.029991237500003,
            "value": 0.9763779527559056
          },
          {
            "number": 11,
            "time": 21.04784837291667,
            "value": 0.968503937007874
          },
          {
            "number": 11,
            "time": 21.065705508333334,
            "value": 0.952755905511811
          },
          {
            "number": 11,
            "time": 21.08356264375,
            "value": 0.9448818897637795
          },
          {
            "number": 11,
            "time": 21.101419779166665,
            "value": 0.937007874015748
          },
          {
            "number": 11,
            "time": 21.11927691458333,
            "value": 0.9133858267716536
          },
          {
            "number": 11,
            "time": 21.137134049999997,
            "value": 0.905511811023622
          },
          {
            "number": 11,
            "time": 21.154991185416662,
            "value": 0.889763779527559
          },
          {
            "number": 11,
            "time": 21.172848320833328,
            "value": 0.8740157480314961
          },
          {
            "number": 11,
            "time": 21.190705456249994,
            "value": 0.8661417322834646
          },
          {
            "number": 11,
            "time": 21.20856259166666,
            "value": 0.8582677165354331
          },
          {
            "number": 11,
            "time": 21.22713401249999,
            "value": 0.8503937007874016
          },
          {
            "number": 11,
            "time": 21.247848289583324,
            "value": 0.84251968503937
          },
          {
            "number": 11,
            "time": 21.26570542499999,
            "value": 0.8267716535433071
          },
          {
            "number": 11,
            "time": 21.283562560416655,
            "value": 0.8188976377952756
          },
          {
            "number": 11,
            "time": 21.30141969583332,
            "value": 0.8110236220472441
          },
          {
            "number": 11,
            "time": 21.319276831249987,
            "value": 0.7952755905511811
          },
          {
            "number": 11,
            "time": 21.337133966666652,
            "value": 0.7874015748031497
          },
          {
            "number": 11,
            "time": 21.354991102083318,
            "value": 0.7716535433070866
          },
          {
            "number": 11,
            "time": 21.372848237499984,
            "value": 0.7637795275590551
          },
          {
            "number": 11,
            "time": 21.39070537291665,
            "value": 0.7559055118110236
          },
          {
            "number": 11,
            "time": 21.408562508333315,
            "value": 0.7480314960629921
          },
          {
            "number": 11,
            "time": 21.442848208333317,
            "value": 0.7401574803149606
          },
          {
            "number": 11,
            "time": 21.552133877083318,
            "value": 0.7480314960629921
          },
          {
            "number": 11,
            "time": 21.569991012499983,
            "value": 0.7716535433070866
          },
          {
            "number": 11,
            "time": 21.58784814791665,
            "value": 0.8031496062992126
          },
          {
            "number": 11,
            "time": 21.605705283333315,
            "value": 0.8267716535433071
          },
          {
            "number": 11,
            "time": 21.62356241874998,
            "value": 0.84251968503937
          },
          {
            "number": 11,
            "time": 21.641419554166646,
            "value": 0.8661417322834646
          },
          {
            "number": 11,
            "time": 21.65927668958331,
            "value": 0.8818897637795275
          },
          {
            "number": 11,
            "time": 21.677133824999977,
            "value": 0.8976377952755905
          },
          {
            "number": 11,
            "time": 21.69570524583331,
            "value": 0.9212598425196851
          },
          {
            "number": 11,
            "time": 21.713562381249975,
            "value": 0.9448818897637795
          },
          {
            "number": 11,
            "time": 21.73141951666664,
            "value": 0.9606299212598425
          },
          {
            "number": 11,
            "time": 21.749276652083307,
            "value": 0.984251968503937
          },
          {
            "number": 11,
            "time": 21.767133787499972,
            "value": 0.9921259842519685
          },
          {
            "number": 11,
            "time": 21.83856232916664,
            "value": 1
          },
          {
            "number": 11,
            "time": 22.268562149999973,
            "value": 0.9921259842519685
          },
          {
            "number": 11,
            "time": 22.28641928541664,
            "value": 0.9763779527559056
          },
          {
            "number": 11,
            "time": 22.304276420833304,
            "value": 0.9606299212598425
          },
          {
            "number": 11,
            "time": 22.32213355624997,
            "value": 0.952755905511811
          },
          {
            "number": 11,
            "time": 22.45070493124997,
            "value": 0.9763779527559056
          },
          {
            "number": 11,
            "time": 22.468562066666635,
            "value": 0.984251968503937
          },
          {
            "number": 11,
            "time": 22.483562060416634,
            "value": 0.9921259842519685
          },
          {
            "number": 11,
            "time": 22.52141918749997,
            "value": 1
          },
          {
            "number": 11,
            "time": 22.897847602083303,
            "value": 0.968503937007874
          },
          {
            "number": 11,
            "time": 22.91570473749997,
            "value": 0.9212598425196851
          },
          {
            "number": 11,
            "time": 22.9342761583333,
            "value": 0.8740157480314961
          },
          {
            "number": 11,
            "time": 22.952133293749966,
            "value": 0.84251968503937
          },
          {
            "number": 11,
            "time": 22.969990429166632,
            "value": 0.8110236220472441
          },
          {
            "number": 11,
            "time": 22.987847564583298,
            "value": 0.7874015748031497
          },
          {
            "number": 11,
            "time": 23.005704699999963,
            "value": 0.7559055118110236
          },
          {
            "number": 11,
            "time": 23.02356183541663,
            "value": 0.7244094488188977
          },
          {
            "number": 11,
            "time": 23.041418970833295,
            "value": 0.6929133858267716
          },
          {
            "number": 11,
            "time": 23.05927610624996,
            "value": 0.6614173228346457
          },
          {
            "number": 11,
            "time": 23.077133241666626,
            "value": 0.6299212598425197
          },
          {
            "number": 11,
            "time": 23.094990377083292,
            "value": 0.5984251968503937
          },
          {
            "number": 11,
            "time": 23.112847512499958,
            "value": 0.5905511811023622
          },
          {
            "number": 11,
            "time": 23.130704647916623,
            "value": 0.5826771653543307
          },
          {
            "number": 11,
            "time": 44.787838481249956,
            "value": 0.7086614173228346
          },
          {
            "number": 11,
            "time": 44.805695616666625,
            "value": 0.7165354330708661
          },
          {
            "number": 11,
            "time": 44.823552752083295,
            "value": 0.7244094488188977
          },
          {
            "number": 11,
            "time": 44.841409887499964,
            "value": 0.7480314960629921
          },
          {
            "number": 11,
            "time": 44.85926702291663,
            "value": 0.7559055118110236
          },
          {
            "number": 11,
            "time": 44.8771241583333,
            "value": 0.7637795275590551
          },
          {
            "number": 11,
            "time": 44.89498129374997,
            "value": 0.7716535433070866
          },
          {
            "number": 11,
            "time": 44.91283842916664,
            "value": 0.7795275590551181
          },
          {
            "number": 11,
            "time": 44.94855269999997,
            "value": 0.7874015748031497
          },
          {
            "number": 11,
            "time": 44.967124120833304,
            "value": 0.7952755905511811
          },
          {
            "number": 11,
            "time": 44.984981256249974,
            "value": 0.8031496062992126
          },
          {
            "number": 11,
            "time": 45.00283839166664,
            "value": 0.8110236220472441
          },
          {
            "number": 11,
            "time": 45.02069552708331,
            "value": 0.8188976377952756
          },
          {
            "number": 11,
            "time": 45.03855266249998,
            "value": 0.8267716535433071
          },
          {
            "number": 11,
            "time": 45.07426693333331,
            "value": 0.8346456692913385
          },
          {
            "number": 11,
            "time": 45.163552610416644,
            "value": 0.84251968503937
          },
          {
            "number": 11,
            "time": 45.181409745833314,
            "value": 0.8503937007874016
          },
          {
            "number": 11,
            "time": 45.217838302083315,
            "value": 0.8582677165354331
          },
          {
            "number": 11,
            "time": 45.235695437499984,
            "value": 0.8661417322834646
          },
          {
            "number": 11,
            "time": 45.253552572916654,
            "value": 0.8740157480314961
          },
          {
            "number": 11,
            "time": 45.27140970833332,
            "value": 0.8818897637795275
          },
          {
            "number": 11,
            "time": 45.28926684374999,
            "value": 0.889763779527559
          },
          {
            "number": 11,
            "time": 45.30712397916666,
            "value": 0.8976377952755905
          },
          {
            "number": 11,
            "time": 45.48926676041666,
            "value": 0.905511811023622
          },
          {
            "number": 11,
            "time": 45.56069530208333,
            "value": 0.9133858267716536
          },
          {
            "number": 11,
            "time": 45.5785524375,
            "value": 0.9212598425196851
          },
          {
            "number": 11,
            "time": 45.59640957291667,
            "value": 0.9291338582677166
          },
          {
            "number": 11,
            "time": 45.63212384375,
            "value": 0.937007874015748
          },
          {
            "number": 11,
            "time": 45.686409535416665,
            "value": 0.9448818897637795
          },
          {
            "number": 11,
            "time": 45.704266670833334,
            "value": 0.952755905511811
          },
          {
            "number": 11,
            "time": 45.72212380625,
            "value": 0.9606299212598425
          },
          {
            "number": 11,
            "time": 45.757838077083335,
            "value": 0.968503937007874
          },
          {
            "number": 11,
            "time": 45.775695212500004,
            "value": 0.9763779527559056
          },
          {
            "number": 11,
            "time": 45.79355234791667,
            "value": 0.984251968503937
          },
          {
            "number": 11,
            "time": 45.81140948333334,
            "value": 0.9921259842519685
          },
          {
            "number": 11,
            "time": 46.09783793541668,
            "value": 1
          },
          {
            "number": 11,
            "time": 46.619980575000014,
            "value": 0.9921259842519685
          },
          {
            "number": 11,
            "time": 46.63783771041668,
            "value": 0.984251968503937
          },
          {
            "number": 11,
            "time": 46.65569484583335,
            "value": 0.968503937007874
          },
          {
            "number": 11,
            "time": 46.674266266666685,
            "value": 0.9606299212598425
          },
          {
            "number": 11,
            "time": 46.692123402083354,
            "value": 0.952755905511811
          },
          {
            "number": 11,
            "time": 46.70998053750002,
            "value": 0.9448818897637795
          },
          {
            "number": 11,
            "time": 46.72783767291669,
            "value": 0.937007874015748
          },
          {
            "number": 11,
            "time": 46.78140907916669,
            "value": 0.9291338582677166
          },
          {
            "number": 11,
            "time": 46.924266162500025,
            "value": 0.9212598425196851
          },
          {
            "number": 11,
            "time": 46.94283758333336,
            "value": 0.9133858267716536
          },
          {
            "number": 11,
            "time": 46.97855185416669,
            "value": 0.905511811023622
          },
          {
            "number": 11,
            "time": 46.99640898958336,
            "value": 0.8976377952755905
          },
          {
            "number": 11,
            "time": 47.01426612500003,
            "value": 0.889763779527559
          },
          {
            "number": 11,
            "time": 47.0321232604167,
            "value": 0.8818897637795275
          },
          {
            "number": 11,
            "time": 47.049980395833366,
            "value": 0.8740157480314961
          },
          {
            "number": 11,
            "time": 47.067837531250035,
            "value": 0.8661417322834646
          },
          {
            "number": 11,
            "time": 47.085694666666704,
            "value": 0.8582677165354331
          },
          {
            "number": 11,
            "time": 47.10355180208337,
            "value": 0.8503937007874016
          },
          {
            "number": 11,
            "time": 47.12140893750004,
            "value": 0.84251968503937
          },
          {
            "number": 11,
            "time": 47.13926607291671,
            "value": 0.8346456692913385
          },
          {
            "number": 11,
            "time": 47.17498034375004,
            "value": 0.8267716535433071
          },
          {
            "number": 11,
            "time": 47.211408900000045,
            "value": 0.8188976377952756
          },
          {
            "number": 11,
            "time": 47.229266035416714,
            "value": 0.8110236220472441
          },
          {
            "number": 11,
            "time": 47.264980306250045,
            "value": 0.8031496062992126
          },
          {
            "number": 11,
            "time": 47.282837441666715,
            "value": 0.7952755905511811
          },
          {
            "number": 11,
            "time": 47.300694577083384,
            "value": 0.7874015748031497
          },
          {
            "number": 11,
            "time": 47.31855171250005,
            "value": 0.7795275590551181
          },
          {
            "number": 11,
            "time": 47.354265983333384,
            "value": 0.7716535433070866
          },
          {
            "number": 11,
            "time": 47.37212311875005,
            "value": 0.7637795275590551
          },
          {
            "number": 11,
            "time": 47.38998025416672,
            "value": 0.7559055118110236
          },
          {
            "number": 11,
            "time": 47.425694525000054,
            "value": 0.7480314960629921
          },
          {
            "number": 11,
            "time": 47.444265945833386,
            "value": 0.7401574803149606
          },
          {
            "number": 11,
            "time": 47.462123081250056,
            "value": 0.7322834645669292
          },
          {
            "number": 11,
            "time": 47.49783735208339,
            "value": 0.7165354330708661
          },
          {
            "number": 11,
            "time": 47.515694487500056,
            "value": 0.7086614173228346
          },
          {
            "number": 11,
            "time": 47.533551622916725,
            "value": 0.7007874015748031
          },
          {
            "number": 11,
            "time": 47.662122997916725,
            "value": 0.7086614173228346
          },
          {
            "number": 11,
            "time": 47.679980133333395,
            "value": 0.7165354330708661
          },
          {
            "number": 11,
            "time": 47.697837268750064,
            "value": 0.7244094488188977
          },
          {
            "number": 11,
            "time": 47.733551539583395,
            "value": 0.7322834645669292
          },
          {
            "number": 11,
            "time": 47.751408675000064,
            "value": 0.7401574803149606
          },
          {
            "number": 11,
            "time": 47.769265810416734,
            "value": 0.7480314960629921
          },
          {
            "number": 11,
            "time": 47.7871229458334,
            "value": 0.7559055118110236
          },
          {
            "number": 11,
            "time": 47.80498008125007,
            "value": 0.7637795275590551
          },
          {
            "number": 11,
            "time": 47.82283721666674,
            "value": 0.7716535433070866
          },
          {
            "number": 11,
            "time": 47.84069435208341,
            "value": 0.7795275590551181
          },
          {
            "number": 11,
            "time": 47.85855148750008,
            "value": 0.7874015748031497
          },
          {
            "number": 11,
            "time": 47.87640862291675,
            "value": 0.7952755905511811
          },
          {
            "number": 11,
            "time": 47.89426575833342,
            "value": 0.8031496062992126
          },
          {
            "number": 11,
            "time": 47.91212289375009,
            "value": 0.8110236220472441
          },
          {
            "number": 11,
            "time": 47.93069431458342,
            "value": 0.8188976377952756
          },
          {
            "number": 11,
            "time": 47.96640858541675,
            "value": 0.8267716535433071
          },
          {
            "number": 11,
            "time": 47.98426572083342,
            "value": 0.8346456692913385
          },
          {
            "number": 11,
            "time": 48.00212285625009,
            "value": 0.84251968503937
          },
          {
            "number": 11,
            "time": 48.05569426250009,
            "value": 0.8503937007874016
          },
          {
            "number": 11,
            "time": 48.09140853333342,
            "value": 0.8582677165354331
          },
          {
            "number": 11,
            "time": 48.10926566875009,
            "value": 0.8661417322834646
          },
          {
            "number": 11,
            "time": 48.12712280416676,
            "value": 0.8740157480314961
          },
          {
            "number": 11,
            "time": 48.16283707500009,
            "value": 0.8818897637795275
          },
          {
            "number": 11,
            "time": 48.18140849583342,
            "value": 0.889763779527559
          },
          {
            "number": 11,
            "time": 48.270694172916755,
            "value": 0.8976377952755905
          },
          {
            "number": 11,
            "time": 48.288551308333425,
            "value": 0.905511811023622
          },
          {
            "number": 11,
            "time": 48.324265579166756,
            "value": 0.9133858267716536
          },
          {
            "number": 11,
            "time": 48.342122714583425,
            "value": 0.9212598425196851
          },
          {
            "number": 11,
            "time": 48.359979850000094,
            "value": 0.9291338582677166
          },
          {
            "number": 11,
            "time": 48.395694120833426,
            "value": 0.937007874015748
          },
          {
            "number": 11,
            "time": 48.413551256250095,
            "value": 0.9448818897637795
          },
          {
            "number": 11,
            "time": 48.46783694791676,
            "value": 0.952755905511811
          },
          {
            "number": 11,
            "time": 48.57497976041676,
            "value": 0.9606299212598425
          },
          {
            "number": 11,
            "time": 48.66426543750009,
            "value": 0.968503937007874
          },
          {
            "number": 11,
            "time": 48.736408264583424,
            "value": 0.9763779527559056
          },
          {
            "number": 11,
            "time": 48.754265400000094,
            "value": 0.984251968503937
          },
          {
            "number": 11,
            "time": 48.81069394791676,
            "value": 0.9921259842519685
          },
          {
            "number": 11,
            "time": 49.11497953541676,
            "value": 1
          },
          {
            "number": 11,
            "time": 49.63426503333343,
            "value": 0.9921259842519685
          },
          {
            "number": 11,
            "time": 49.6521221687501,
            "value": 0.984251968503937
          },
          {
            "number": 11,
            "time": 49.669979304166766,
            "value": 0.9763779527559056
          },
          {
            "number": 11,
            "time": 49.6885507250001,
            "value": 0.968503937007874
          },
          {
            "number": 11,
            "time": 49.72426499583343,
            "value": 0.9606299212598425
          },
          {
            "number": 11,
            "time": 49.7421221312501,
            "value": 0.952755905511811
          },
          {
            "number": 11,
            "time": 49.75997926666677,
            "value": 0.9448818897637795
          },
          {
            "number": 11,
            "time": 49.7956935375001,
            "value": 0.937007874015748
          },
          {
            "number": 11,
            "time": 49.81355067291677,
            "value": 0.9291338582677166
          },
          {
            "number": 11,
            "time": 49.83140780833344,
            "value": 0.9212598425196851
          },
          {
            "number": 11,
            "time": 49.84926494375011,
            "value": 0.9133858267716536
          },
          {
            "number": 11,
            "time": 49.867122079166776,
            "value": 0.8976377952755905
          },
          {
            "number": 11,
            "time": 49.884979214583446,
            "value": 0.889763779527559
          },
          {
            "number": 11,
            "time": 49.902836350000115,
            "value": 0.8818897637795275
          },
          {
            "number": 11,
            "time": 49.920693485416784,
            "value": 0.8661417322834646
          },
          {
            "number": 11,
            "time": 49.939264906250116,
            "value": 0.8582677165354331
          },
          {
            "number": 11,
            "time": 49.95997918333345,
            "value": 0.8503937007874016
          },
          {
            "number": 11,
            "time": 49.97783631875012,
            "value": 0.84251968503937
          },
          {
            "number": 11,
            "time": 49.99569345416679,
            "value": 0.8346456692913385
          },
          {
            "number": 11,
            "time": 50.03140772500012,
            "value": 0.8267716535433071
          },
          {
            "number": 11,
            "time": 50.04926486041679,
            "value": 0.8188976377952756
          },
          {
            "number": 11,
            "time": 50.06712199583346,
            "value": 0.8110236220472441
          },
          {
            "number": 11,
            "time": 50.08497913125013,
            "value": 0.7952755905511811
          },
          {
            "number": 11,
            "time": 50.1028362666668,
            "value": 0.7874015748031497
          },
          {
            "number": 11,
            "time": 50.12069340208347,
            "value": 0.7795275590551181
          },
          {
            "number": 11,
            "time": 50.13855053750014,
            "value": 0.7716535433070866
          },
          {
            "number": 11,
            "time": 50.15712195833347,
            "value": 0.7480314960629921
          },
          {
            "number": 11,
            "time": 50.17497909375014,
            "value": 0.7401574803149606
          },
          {
            "number": 11,
            "time": 50.19283622916681,
            "value": 0.7322834645669292
          },
          {
            "number": 11,
            "time": 50.21069336458348,
            "value": 0.7244094488188977
          },
          {
            "number": 11,
            "time": 50.228550500000146,
            "value": 0.7165354330708661
          },
          {
            "number": 11,
            "time": 50.33569331250015,
            "value": 0.7244094488188977
          },
          {
            "number": 11,
            "time": 50.35355044791682,
            "value": 0.7401574803149606
          },
          {
            "number": 11,
            "time": 50.371407583333486,
            "value": 0.7480314960629921
          },
          {
            "number": 11,
            "time": 50.389264718750155,
            "value": 0.7559055118110236
          },
          {
            "number": 11,
            "time": 50.407836139583495,
            "value": 0.7637795275590551
          },
          {
            "number": 11,
            "time": 50.425693275000164,
            "value": 0.7716535433070866
          },
          {
            "number": 11,
            "time": 50.44355041041683,
            "value": 0.7795275590551181
          },
          {
            "number": 11,
            "time": 50.4614075458335,
            "value": 0.7874015748031497
          },
          {
            "number": 11,
            "time": 50.47926468125017,
            "value": 0.7952755905511811
          },
          {
            "number": 11,
            "time": 50.5149789520835,
            "value": 0.8031496062992126
          },
          {
            "number": 11,
            "time": 50.53283608750017,
            "value": 0.8110236220472441
          },
          {
            "number": 11,
            "time": 50.55069322291684,
            "value": 0.8188976377952756
          },
          {
            "number": 11,
            "time": 50.60426462916684,
            "value": 0.8267716535433071
          },
          {
            "number": 11,
            "time": 50.63997890000017,
            "value": 0.8346456692913385
          },
          {
            "number": 11,
            "time": 50.69426459166684,
            "value": 0.84251968503937
          },
          {
            "number": 11,
            "time": 50.712121727083506,
            "value": 0.8503937007874016
          },
          {
            "number": 11,
            "time": 50.74783599791684,
            "value": 0.8661417322834646
          },
          {
            "number": 11,
            "time": 50.76569313333351,
            "value": 0.8740157480314961
          },
          {
            "number": 11,
            "time": 50.80140740416684,
            "value": 0.8818897637795275
          },
          {
            "number": 11,
            "time": 50.81926453958351,
            "value": 0.889763779527559
          },
          {
            "number": 11,
            "time": 50.837121675000176,
            "value": 0.8976377952755905
          },
          {
            "number": 11,
            "time": 50.854978810416846,
            "value": 0.905511811023622
          },
          {
            "number": 11,
            "time": 50.872835945833515,
            "value": 0.9133858267716536
          },
          {
            "number": 11,
            "time": 50.98069304375018,
            "value": 0.905511811023622
          },
          {
            "number": 11,
            "time": 50.99855017916685,
            "value": 0.8818897637795275
          },
          {
            "number": 11,
            "time": 51.01640731458352,
            "value": 0.8582677165354331
          },
          {
            "number": 11,
            "time": 51.03426445000019,
            "value": 0.8346456692913385
          },
          {
            "number": 11,
            "time": 51.052121585416856,
            "value": 0.8110236220472441
          },
          {
            "number": 11,
            "time": 51.069978720833525,
            "value": 0.7952755905511811
          },
          {
            "number": 11,
            "time": 51.087835856250194,
            "value": 0.7874015748031497
          },
          {
            "number": 11,
            "time": 51.105692991666864,
            "value": 0.7795275590551181
          },
          {
            "number": 11,
            "time": 51.18069296041686,
            "value": 0.7874015748031497
          },
          {
            "number": 11,
            "time": 51.19855009583353,
            "value": 0.8031496062992126
          },
          {
            "number": 11,
            "time": 51.2164072312502,
            "value": 0.8188976377952756
          },
          {
            "number": 11,
            "time": 51.23426436666687,
            "value": 0.84251968503937
          },
          {
            "number": 11,
            "time": 51.25212150208354,
            "value": 0.8582677165354331
          },
          {
            "number": 11,
            "time": 51.26997863750021,
            "value": 0.8740157480314961
          },
          {
            "number": 11,
            "time": 51.28783577291688,
            "value": 0.8818897637795275
          },
          {
            "number": 11,
            "time": 51.30569290833355,
            "value": 0.905511811023622
          },
          {
            "number": 11,
            "time": 51.32355004375022,
            "value": 0.9212598425196851
          },
          {
            "number": 11,
            "time": 51.341407179166886,
            "value": 0.937007874015748
          },
          {
            "number": 11,
            "time": 51.359264314583555,
            "value": 0.9448818897637795
          },
          {
            "number": 11,
            "time": 51.377121450000224,
            "value": 0.968503937007874
          },
          {
            "number": 11,
            "time": 51.39569287083356,
            "value": 0.9763779527559056
          },
          {
            "number": 11,
            "time": 51.413550006250226,
            "value": 0.984251968503937
          },
          {
            "number": 11,
            "time": 51.431407141666895,
            "value": 0.9921259842519685
          },
          {
            "number": 11,
            "time": 51.538549954166896,
            "value": 0.9763779527559056
          },
          {
            "number": 11,
            "time": 51.556407089583566,
            "value": 0.9606299212598425
          },
          {
            "number": 11,
            "time": 51.574264225000235,
            "value": 0.937007874015748
          },
          {
            "number": 11,
            "time": 51.592121360416904,
            "value": 0.9133858267716536
          },
          {
            "number": 11,
            "time": 51.60997849583357,
            "value": 0.889763779527559
          },
          {
            "number": 11,
            "time": 51.62783563125024,
            "value": 0.8740157480314961
          },
          {
            "number": 11,
            "time": 51.646407052083575,
            "value": 0.8582677165354331
          },
          {
            "number": 11,
            "time": 51.664264187500244,
            "value": 0.84251968503937
          },
          {
            "number": 11,
            "time": 51.68212132291691,
            "value": 0.8346456692913385
          },
          {
            "number": 11,
            "time": 51.86069267708358,
            "value": 0.84251968503937
          },
          {
            "number": 11,
            "time": 51.878549812500246,
            "value": 0.8582677165354331
          },
          {
            "number": 11,
            "time": 51.896406947916915,
            "value": 0.8661417322834646
          },
          {
            "number": 11,
            "time": 51.91497836875025,
            "value": 0.8818897637795275
          },
          {
            "number": 11,
            "time": 51.93283550416692,
            "value": 0.889763779527559
          },
          {
            "number": 11,
            "time": 51.950692639583586,
            "value": 0.905511811023622
          },
          {
            "number": 11,
            "time": 51.968549775000255,
            "value": 0.9133858267716536
          },
          {
            "number": 11,
            "time": 51.986406910416925,
            "value": 0.9212598425196851
          },
          {
            "number": 11,
            "time": 52.004264045833594,
            "value": 0.9291338582677166
          },
          {
            "number": 11,
            "time": 52.02212118125026,
            "value": 0.937007874015748
          },
          {
            "number": 11,
            "time": 52.03997831666693,
            "value": 0.9448818897637795
          },
          {
            "number": 11,
            "time": 52.14712112916693,
            "value": 0.937007874015748
          },
          {
            "number": 11,
            "time": 52.165692550000266,
            "value": 0.9212598425196851
          },
          {
            "number": 11,
            "time": 52.183549685416935,
            "value": 0.8976377952755905
          },
          {
            "number": 11,
            "time": 52.201406820833604,
            "value": 0.8818897637795275
          },
          {
            "number": 11,
            "time": 52.21926395625027,
            "value": 0.8582677165354331
          },
          {
            "number": 11,
            "time": 52.23712109166694,
            "value": 0.8346456692913385
          },
          {
            "number": 11,
            "time": 52.38354960208361,
            "value": 0.8503937007874016
          },
          {
            "number": 11,
            "time": 52.40140673750028,
            "value": 0.8661417322834646
          },
          {
            "number": 11,
            "time": 52.41926387291695,
            "value": 0.889763779527559
          },
          {
            "number": 11,
            "time": 52.43712100833362,
            "value": 0.9133858267716536
          },
          {
            "number": 11,
            "time": 52.45497814375029,
            "value": 0.9212598425196851
          },
          {
            "number": 11,
            "time": 52.47283527916696,
            "value": 0.9291338582677166
          },
          {
            "number": 11,
            "time": 52.50854955000029,
            "value": 0.937007874015748
          },
          {
            "number": 11,
            "time": 52.52640668541696,
            "value": 0.9448818897637795
          },
          {
            "number": 11,
            "time": 52.56212095625029,
            "value": 0.952755905511811
          },
          {
            "number": 11,
            "time": 52.57997809166696,
            "value": 0.9606299212598425
          },
          {
            "number": 11,
            "time": 52.794978002083624,
            "value": 0.937007874015748
          },
          {
            "number": 11,
            "time": 52.812835137500294,
            "value": 0.9291338582677166
          },
          {
            "number": 11,
            "time": 52.83069227291696,
            "value": 0.9133858267716536
          },
          {
            "number": 11,
            "time": 52.84854940833363,
            "value": 0.8976377952755905
          },
          {
            "number": 11,
            "time": 52.8664065437503,
            "value": 0.8818897637795275
          },
          {
            "number": 11,
            "time": 52.88426367916697,
            "value": 0.8740157480314961
          },
          {
            "number": 11,
            "time": 52.9028351000003,
            "value": 0.8661417322834646
          },
          {
            "number": 11,
            "time": 52.92069223541697,
            "value": 0.8582677165354331
          },
          {
            "number": 11,
            "time": 52.93854937083364,
            "value": 0.84251968503937
          },
          {
            "number": 11,
            "time": 52.95640650625031,
            "value": 0.8346456692913385
          },
          {
            "number": 11,
            "time": 52.97426364166698,
            "value": 0.8267716535433071
          },
          {
            "number": 11,
            "time": 52.99212077708365,
            "value": 0.8110236220472441
          },
          {
            "number": 11,
            "time": 53.00997791250032,
            "value": 0.8031496062992126
          },
          {
            "number": 11,
            "time": 53.02783504791699,
            "value": 0.7795275590551181
          },
          {
            "number": 11,
            "time": 53.04569218333366,
            "value": 0.7637795275590551
          },
          {
            "number": 11,
            "time": 53.063549318750326,
            "value": 0.7401574803149606
          },
          {
            "number": 11,
            "time": 53.081406454166995,
            "value": 0.7244094488188977
          },
          {
            "number": 11,
            "time": 53.099263589583664,
            "value": 0.7086614173228346
          },
          {
            "number": 11,
            "time": 53.11712072500033,
            "value": 0.7007874015748031
          },
          {
            "number": 11,
            "time": 53.189263552083666,
            "value": 0.7086614173228346
          },
          {
            "number": 11,
            "time": 53.207120687500336,
            "value": 0.7244094488188977
          },
          {
            "number": 11,
            "time": 53.224977822917005,
            "value": 0.7401574803149606
          },
          {
            "number": 11,
            "time": 53.242834958333674,
            "value": 0.7637795275590551
          },
          {
            "number": 11,
            "time": 53.26069209375034,
            "value": 0.7795275590551181
          },
          {
            "number": 11,
            "time": 53.27854922916701,
            "value": 0.7874015748031497
          },
          {
            "number": 11,
            "time": 53.29640636458368,
            "value": 0.7952755905511811
          },
          {
            "number": 11,
            "time": 53.31426350000035,
            "value": 0.8031496062992126
          },
          {
            "number": 11,
            "time": 53.33212063541702,
            "value": 0.8110236220472441
          },
          {
            "number": 11,
            "time": 53.34997777083369,
            "value": 0.8188976377952756
          },
          {
            "number": 11,
            "time": 53.36783490625036,
            "value": 0.8267716535433071
          },
          {
            "number": 11,
            "time": 53.38569204166703,
            "value": 0.8346456692913385
          },
          {
            "number": 11,
            "time": 53.42212059791703,
            "value": 0.84251968503937
          },
          {
            "number": 11,
            "time": 53.46069201041703,
            "value": 0.8503937007874016
          },
          {
            "number": 11,
            "time": 53.5321205520837,
            "value": 0.8582677165354331
          },
          {
            "number": 11,
            "time": 53.549977687500366,
            "value": 0.8661417322834646
          },
          {
            "number": 11,
            "time": 53.60354909375037,
            "value": 0.8740157480314961
          },
          {
            "number": 11,
            "time": 53.6221205145837,
            "value": 0.8818897637795275
          },
          {
            "number": 11,
            "time": 53.6756919208337,
            "value": 0.889763779527559
          },
          {
            "number": 11,
            "time": 53.69354905625037,
            "value": 0.8976377952755905
          },
          {
            "number": 11,
            "time": 53.76497759791704,
            "value": 0.905511811023622
          },
          {
            "number": 11,
            "time": 53.80069186875037,
            "value": 0.9133858267716536
          },
          {
            "number": 11,
            "time": 53.81854900416704,
            "value": 0.9212598425196851
          },
          {
            "number": 11,
            "time": 53.83640613958371,
            "value": 0.9291338582677166
          },
          {
            "number": 11,
            "time": 53.87283469583371,
            "value": 0.937007874015748
          },
          {
            "number": 11,
            "time": 53.90854896666704,
            "value": 0.9448818897637795
          },
          {
            "number": 11,
            "time": 53.94426323750037,
            "value": 0.952755905511811
          },
          {
            "number": 11,
            "time": 54.033548914583704,
            "value": 0.9606299212598425
          },
          {
            "number": 11,
            "time": 54.069263185417036,
            "value": 0.968503937007874
          },
          {
            "number": 11,
            "time": 54.10497745625037,
            "value": 0.9763779527559056
          },
          {
            "number": 11,
            "time": 54.122834591667036,
            "value": 0.984251968503937
          },
          {
            "number": 11,
            "time": 54.14140601250037,
            "value": 0.9921259842519685
          },
          {
            "number": 11,
            "time": 54.627834381250366,
            "value": 0.984251968503937
          },
          {
            "number": 11,
            "time": 54.64283437500037,
            "value": 0.9763779527559056
          },
          {
            "number": 11,
            "time": 54.6999772083337,
            "value": 0.968503937007874
          },
          {
            "number": 11,
            "time": 54.71783434375037,
            "value": 0.9606299212598425
          },
          {
            "number": 11,
            "time": 54.77212003541703,
            "value": 0.952755905511811
          },
          {
            "number": 11,
            "time": 54.80783430625036,
            "value": 0.9448818897637795
          },
          {
            "number": 11,
            "time": 54.84283429166703,
            "value": 0.937007874015748
          },
          {
            "number": 11,
            "time": 54.8585485708337,
            "value": 0.9291338582677166
          },
          {
            "number": 11,
            "time": 54.9121199770837,
            "value": 0.9212598425196851
          },
          {
            "number": 11,
            "time": 54.950691389583696,
            "value": 0.9133858267716536
          },
          {
            "number": 11,
            "time": 55.0042627958337,
            "value": 0.905511811023622
          },
          {
            "number": 11,
            "time": 55.02283421666703,
            "value": 0.8976377952755905
          },
          {
            "number": 11,
            "time": 55.07640562291703,
            "value": 0.889763779527559
          },
          {
            "number": 11,
            "time": 55.12997702916703,
            "value": 0.8818897637795275
          },
          {
            "number": 11,
            "time": 55.16569130000036,
            "value": 0.8740157480314961
          },
          {
            "number": 11,
            "time": 55.18354843541703,
            "value": 0.8661417322834646
          },
          {
            "number": 11,
            "time": 55.21926270625036,
            "value": 0.8582677165354331
          },
          {
            "number": 11,
            "time": 55.23711984166703,
            "value": 0.8503937007874016
          },
          {
            "number": 11,
            "time": 55.2549769770837,
            "value": 0.84251968503937
          },
          {
            "number": 11,
            "time": 55.27354839791703,
            "value": 0.8346456692913385
          },
          {
            "number": 11,
            "time": 55.309262668750364,
            "value": 0.8267716535433071
          },
          {
            "number": 11,
            "time": 55.32711980416703,
            "value": 0.8188976377952756
          },
          {
            "number": 11,
            "time": 55.3449769395837,
            "value": 0.8110236220472441
          },
          {
            "number": 11,
            "time": 55.380691210417034,
            "value": 0.8031496062992126
          },
          {
            "number": 11,
            "time": 55.3985483458337,
            "value": 0.7952755905511811
          },
          {
            "number": 11,
            "time": 55.41640548125037,
            "value": 0.7874015748031497
          },
          {
            "number": 11,
            "time": 55.43426261666704,
            "value": 0.7637795275590551
          },
          {
            "number": 11,
            "time": 55.45211975208371,
            "value": 0.7559055118110236
          },
          {
            "number": 11,
            "time": 55.46997688750038,
            "value": 0.7480314960629921
          },
          {
            "number": 11,
            "time": 55.48783402291705,
            "value": 0.7401574803149606
          },
          {
            "number": 11,
            "time": 55.50569115833372,
            "value": 0.7322834645669292
          },
          {
            "number": 11,
            "time": 55.52354829375039,
            "value": 0.7244094488188977
          },
          {
            "number": 11,
            "time": 55.54211971458372,
            "value": 0.7165354330708661
          },
          {
            "number": 11,
            "time": 55.55997685000039,
            "value": 0.7086614173228346
          },
          {
            "number": 11,
            "time": 55.59569112083372,
            "value": 0.7007874015748031
          },
          {
            "number": 11,
            "time": 55.61354825625039,
            "value": 0.6929133858267716
          },
          {
            "number": 11,
            "time": 55.63140539166706,
            "value": 0.6850393700787402
          },
          {
            "number": 11,
            "time": 55.66711966250039,
            "value": 0.6692913385826772
          },
          {
            "number": 11,
            "time": 55.68497679791706,
            "value": 0.6535433070866141
          },
          {
            "number": 11,
            "time": 55.70283393333373,
            "value": 0.6377952755905512
          },
          {
            "number": 11,
            "time": 55.7206910687504,
            "value": 0.6299212598425197
          },
          {
            "number": 11,
            "time": 55.73854820416707,
            "value": 0.6220472440944882
          },
          {
            "number": 11,
            "time": 55.831405308333736,
            "value": 0.6299212598425197
          },
          {
            "number": 11,
            "time": 55.84640530208374,
            "value": 0.6377952755905512
          },
          {
            "number": 11,
            "time": 55.86426243750041,
            "value": 0.6614173228346457
          },
          {
            "number": 11,
            "time": 55.88211957291708,
            "value": 0.6850393700787402
          },
          {
            "number": 11,
            "time": 55.899976708333746,
            "value": 0.7007874015748031
          },
          {
            "number": 11,
            "time": 55.917833843750415,
            "value": 0.7165354330708661
          },
          {
            "number": 11,
            "time": 55.935690979167084,
            "value": 0.7244094488188977
          },
          {
            "number": 11,
            "time": 55.953548114583754,
            "value": 0.7322834645669292
          },
          {
            "number": 11,
            "time": 55.97140525000042,
            "value": 0.7480314960629921
          },
          {
            "number": 11,
            "time": 55.98926238541709,
            "value": 0.7559055118110236
          },
          {
            "number": 11,
            "time": 56.00711952083376,
            "value": 0.7637795275590551
          },
          {
            "number": 11,
            "time": 56.02497665625043,
            "value": 0.7716535433070866
          },
          {
            "number": 11,
            "time": 56.06140521250043,
            "value": 0.7795275590551181
          },
          {
            "number": 11,
            "time": 56.09926233958377,
            "value": 0.7874015748031497
          },
          {
            "number": 11,
            "time": 56.20711943750043,
            "value": 0.7952755905511811
          },
          {
            "number": 11,
            "time": 56.24283370833376,
            "value": 0.8031496062992126
          },
          {
            "number": 11,
            "time": 56.279262264583764,
            "value": 0.8110236220472441
          },
          {
            "number": 11,
            "time": 56.29711940000043,
            "value": 0.8188976377952756
          },
          {
            "number": 11,
            "time": 56.3149765354171,
            "value": 0.8267716535433071
          },
          {
            "number": 11,
            "time": 56.33283367083377,
            "value": 0.8346456692913385
          },
          {
            "number": 11,
            "time": 56.35069080625044,
            "value": 0.84251968503937
          },
          {
            "number": 11,
            "time": 56.36854794166711,
            "value": 0.8503937007874016
          },
          {
            "number": 11,
            "time": 56.40426221250044,
            "value": 0.8582677165354331
          },
          {
            "number": 11,
            "time": 56.43997648333377,
            "value": 0.8661417322834646
          },
          {
            "number": 11,
            "time": 56.49354788958377,
            "value": 0.8740157480314961
          },
          {
            "number": 11,
            "time": 56.51140502500044,
            "value": 0.8818897637795275
          },
          {
            "number": 11,
            "time": 56.547833581250444,
            "value": 0.889763779527559
          },
          {
            "number": 11,
            "time": 56.583547852083775,
            "value": 0.8976377952755905
          },
          {
            "number": 11,
            "time": 56.654976393750445,
            "value": 0.905511811023622
          },
          {
            "number": 11,
            "time": 56.708547800000446,
            "value": 0.9133858267716536
          },
          {
            "number": 11,
            "time": 56.81640489791711,
            "value": 0.9212598425196851
          },
          {
            "number": 11,
            "time": 56.86997630416711,
            "value": 0.9291338582677166
          },
          {
            "number": 11,
            "time": 56.94140484583378,
            "value": 0.937007874015748
          },
          {
            "number": 11,
            "time": 56.97711911666711,
            "value": 0.9448818897637795
          },
          {
            "number": 11,
            "time": 57.01283338750044,
            "value": 0.952755905511811
          },
          {
            "number": 11,
            "time": 57.12069048541711,
            "value": 0.9606299212598425
          },
          {
            "number": 11,
            "time": 57.17426189166711,
            "value": 0.968503937007874
          },
          {
            "number": 11,
            "time": 57.660690260417105,
            "value": 0.9606299212598425
          },
          {
            "number": 11,
            "time": 57.678547395833775,
            "value": 0.952755905511811
          },
          {
            "number": 11,
            "time": 57.732118802083775,
            "value": 0.9448818897637795
          },
          {
            "number": 11,
            "time": 57.749975937500444,
            "value": 0.937007874015748
          },
          {
            "number": 11,
            "time": 57.76854735833378,
            "value": 0.9291338582677166
          },
          {
            "number": 11,
            "time": 57.786404493750446,
            "value": 0.9212598425196851
          },
          {
            "number": 11,
            "time": 57.82211876458378,
            "value": 0.9133858267716536
          },
          {
            "number": 11,
            "time": 57.83997590000045,
            "value": 0.905511811023622
          },
          {
            "number": 11,
            "time": 57.857833035417116,
            "value": 0.8976377952755905
          },
          {
            "number": 11,
            "time": 57.875690170833785,
            "value": 0.8818897637795275
          },
          {
            "number": 11,
            "time": 57.911404441667116,
            "value": 0.8661417322834646
          },
          {
            "number": 11,
            "time": 57.94711871250045,
            "value": 0.8582677165354331
          },
          {
            "number": 11,
            "time": 57.96497584791712,
            "value": 0.8503937007874016
          },
          {
            "number": 11,
            "time": 58.01926153958378,
            "value": 0.84251968503937
          },
          {
            "number": 11,
            "time": 58.03711867500045,
            "value": 0.8346456692913385
          },
          {
            "number": 11,
            "time": 58.05497581041712,
            "value": 0.8267716535433071
          },
          {
            "number": 11,
            "time": 58.07283294583379,
            "value": 0.8188976377952756
          },
          {
            "number": 11,
            "time": 58.10854721666712,
            "value": 0.8110236220472441
          },
          {
            "number": 11,
            "time": 58.12640435208379,
            "value": 0.8031496062992126
          },
          {
            "number": 11,
            "time": 58.14426148750046,
            "value": 0.7952755905511811
          },
          {
            "number": 11,
            "time": 58.16211862291713,
            "value": 0.7795275590551181
          },
          {
            "number": 11,
            "time": 58.179975758333796,
            "value": 0.7716535433070866
          },
          {
            "number": 11,
            "time": 58.197832893750466,
            "value": 0.7480314960629921
          },
          {
            "number": 11,
            "time": 58.215690029167135,
            "value": 0.7322834645669292
          },
          {
            "number": 11,
            "time": 58.233547164583804,
            "value": 0.7244094488188977
          },
          {
            "number": 11,
            "time": 58.25140430000047,
            "value": 0.7086614173228346
          },
          {
            "number": 11,
            "time": 58.26926143541714,
            "value": 0.6929133858267716
          },
          {
            "number": 11,
            "time": 58.287832856250475,
            "value": 0.6771653543307087
          },
          {
            "number": 11,
            "time": 58.305689991667144,
            "value": 0.6692913385826772
          },
          {
            "number": 11,
            "time": 58.32354712708381,
            "value": 0.6614173228346457
          },
          {
            "number": 11,
            "time": 58.34140426250048,
            "value": 0.6535433070866141
          },
          {
            "number": 11,
            "time": 58.35926139791715,
            "value": 0.6456692913385826
          },
          {
            "number": 11,
            "time": 58.37711853333382,
            "value": 0.6377952755905512
          },
          {
            "number": 11,
            "time": 58.39497566875049,
            "value": 0.6299212598425197
          },
          {
            "number": 11,
            "time": 58.41283280416716,
            "value": 0.6220472440944882
          },
          {
            "number": 11,
            "time": 58.50568990833383,
            "value": 0.6299212598425197
          },
          {
            "number": 11,
            "time": 58.5235470437505,
            "value": 0.6377952755905512
          },
          {
            "number": 11,
            "time": 58.541404179167166,
            "value": 0.6614173228346457
          },
          {
            "number": 11,
            "time": 58.559261314583836,
            "value": 0.6771653543307087
          },
          {
            "number": 11,
            "time": 58.577118450000505,
            "value": 0.6850393700787402
          },
          {
            "number": 11,
            "time": 58.594975585417174,
            "value": 0.7086614173228346
          },
          {
            "number": 11,
            "time": 58.61283272083384,
            "value": 0.7165354330708661
          },
          {
            "number": 11,
            "time": 58.63068985625051,
            "value": 0.7244094488188977
          },
          {
            "number": 11,
            "time": 58.64854699166718,
            "value": 0.7322834645669292
          },
          {
            "number": 11,
            "time": 58.66640412708385,
            "value": 0.7401574803149606
          },
          {
            "number": 11,
            "time": 58.68426126250052,
            "value": 0.7559055118110236
          },
          {
            "number": 11,
            "time": 58.70211839791719,
            "value": 0.7637795275590551
          },
          {
            "number": 11,
            "time": 58.71997553333386,
            "value": 0.7795275590551181
          },
          {
            "number": 11,
            "time": 58.73783266875053,
            "value": 0.7874015748031497
          },
          {
            "number": 11,
            "time": 58.75640408958386,
            "value": 0.7952755905511811
          },
          {
            "number": 11,
            "time": 58.77426122500053,
            "value": 0.8031496062992126
          },
          {
            "number": 11,
            "time": 58.7921183604172,
            "value": 0.8110236220472441
          },
          {
            "number": 11,
            "time": 58.80997549583387,
            "value": 0.8188976377952756
          },
          {
            "number": 11,
            "time": 58.82783263125054,
            "value": 0.8267716535433071
          },
          {
            "number": 11,
            "time": 58.845689766667206,
            "value": 0.8346456692913385
          },
          {
            "number": 11,
            "time": 58.863546902083876,
            "value": 0.84251968503937
          },
          {
            "number": 11,
            "time": 58.89926117291721,
            "value": 0.8503937007874016
          },
          {
            "number": 11,
            "time": 58.917118308333876,
            "value": 0.8582677165354331
          },
          {
            "number": 11,
            "time": 58.934975443750545,
            "value": 0.8661417322834646
          },
          {
            "number": 11,
            "time": 58.952832579167215,
            "value": 0.8740157480314961
          },
          {
            "number": 11,
            "time": 58.970689714583884,
            "value": 0.8818897637795275
          },
          {
            "number": 11,
            "time": 58.98854685000055,
            "value": 0.889763779527559
          },
          {
            "number": 11,
            "time": 59.007118270833885,
            "value": 0.8976377952755905
          },
          {
            "number": 11,
            "time": 59.024975406250554,
            "value": 0.905511811023622
          },
          {
            "number": 11,
            "time": 59.060689677083886,
            "value": 0.9133858267716536
          },
          {
            "number": 11,
            "time": 59.078546812500555,
            "value": 0.9212598425196851
          },
          {
            "number": 11,
            "time": 59.16783248958389,
            "value": 0.9291338582677166
          },
          {
            "number": 11,
            "time": 59.27568958750055,
            "value": 0.937007874015748
          },
          {
            "number": 11,
            "time": 59.48997521250055,
            "value": 0.9291338582677166
          },
          {
            "number": 11,
            "time": 59.50783234791722,
            "value": 0.9212598425196851
          },
          {
            "number": 11,
            "time": 59.526403768750555,
            "value": 0.9133858267716536
          },
          {
            "number": 11,
            "time": 59.544260904167224,
            "value": 0.905511811023622
          },
          {
            "number": 11,
            "time": 59.56211803958389,
            "value": 0.889763779527559
          },
          {
            "number": 11,
            "time": 59.57997517500056,
            "value": 0.8740157480314961
          },
          {
            "number": 11,
            "time": 59.59783231041723,
            "value": 0.8582677165354331
          },
          {
            "number": 11,
            "time": 59.61854658750057,
            "value": 0.84251968503937
          },
          {
            "number": 11,
            "time": 59.63640372291724,
            "value": 0.8267716535433071
          },
          {
            "number": 11,
            "time": 59.654260858333906,
            "value": 0.8110236220472441
          },
          {
            "number": 11,
            "time": 59.672117993750575,
            "value": 0.7952755905511811
          },
          {
            "number": 11,
            "time": 59.689975129167244,
            "value": 0.7716535433070866
          },
          {
            "number": 11,
            "time": 59.707832264583914,
            "value": 0.7559055118110236
          },
          {
            "number": 11,
            "time": 59.72568940000058,
            "value": 0.7322834645669292
          },
          {
            "number": 11,
            "time": 59.744260820833915,
            "value": 0.7086614173228346
          },
          {
            "number": 11,
            "time": 59.762117956250584,
            "value": 0.6850393700787402
          },
          {
            "number": 11,
            "time": 59.779975091667254,
            "value": 0.6614173228346457
          },
          {
            "number": 11,
            "time": 59.79783222708392,
            "value": 0.6456692913385826
          },
          {
            "number": 11,
            "time": 59.81568936250059,
            "value": 0.6299212598425197
          },
          {
            "number": 11,
            "time": 59.83354649791726,
            "value": 0.6220472440944882
          },
          {
            "number": 11,
            "time": 59.94068931041726,
            "value": 0.6299212598425197
          },
          {
            "number": 11,
            "time": 59.95854644583393,
            "value": 0.6456692913385826
          },
          {
            "number": 11,
            "time": 59.9764035812506,
            "value": 0.6692913385826772
          },
          {
            "number": 11,
            "time": 59.99497500208393,
            "value": 0.6850393700787402
          },
          {
            "number": 11,
            "time": 60.0128321375006,
            "value": 0.7086614173228346
          },
          {
            "number": 11,
            "time": 60.03068927291727,
            "value": 0.7244094488188977
          },
          {
            "number": 11,
            "time": 60.04854640833394,
            "value": 0.7401574803149606
          },
          {
            "number": 11,
            "time": 60.06640354375061,
            "value": 0.7637795275590551
          },
          {
            "number": 11,
            "time": 60.08426067916728,
            "value": 0.7795275590551181
          },
          {
            "number": 11,
            "time": 60.10211781458395,
            "value": 0.8031496062992126
          },
          {
            "number": 11,
            "time": 60.11997495000062,
            "value": 0.8267716535433071
          },
          {
            "number": 11,
            "time": 60.13783208541729,
            "value": 0.84251968503937
          },
          {
            "number": 11,
            "time": 60.155689220833956,
            "value": 0.8503937007874016
          },
          {
            "number": 11,
            "time": 60.173546356250625,
            "value": 0.8582677165354331
          },
          {
            "number": 11,
            "time": 60.191403491667295,
            "value": 0.8661417322834646
          },
          {
            "number": 11,
            "time": 60.35283199583396,
            "value": 0.8582677165354331
          },
          {
            "number": 11,
            "time": 60.37068913125063,
            "value": 0.8346456692913385
          },
          {
            "number": 11,
            "time": 60.3885462666673,
            "value": 0.8031496062992126
          },
          {
            "number": 11,
            "time": 60.40640340208397,
            "value": 0.7716535433070866
          },
          {
            "number": 11,
            "time": 60.424260537500636,
            "value": 0.7480314960629921
          },
          {
            "number": 11,
            "time": 60.442117672917306,
            "value": 0.7244094488188977
          },
          {
            "number": 11,
            "time": 60.459974808333975,
            "value": 0.7007874015748031
          },
          {
            "number": 11,
            "time": 60.477831943750644,
            "value": 0.6771653543307087
          },
          {
            "number": 11,
            "time": 60.49568907916731,
            "value": 0.6614173228346457
          },
          {
            "number": 11,
            "time": 60.514260500000645,
            "value": 0.6535433070866141
          },
          {
            "number": 11,
            "time": 60.567831906250646,
            "value": 0.6456692913385826
          },
          {
            "number": 11,
            "time": 60.62140331250065,
            "value": 0.6692913385826772
          },
          {
            "number": 11,
            "time": 60.639260447917316,
            "value": 0.6929133858267716
          },
          {
            "number": 11,
            "time": 60.657117583333985,
            "value": 0.7244094488188977
          },
          {
            "number": 11,
            "time": 60.674974718750654,
            "value": 0.7480314960629921
          },
          {
            "number": 11,
            "time": 60.69283185416732,
            "value": 0.7716535433070866
          },
          {
            "number": 11,
            "time": 60.71068898958399,
            "value": 0.7952755905511811
          },
          {
            "number": 11,
            "time": 60.72854612500066,
            "value": 0.8031496062992126
          },
          {
            "number": 11,
            "time": 60.74640326041733,
            "value": 0.8110236220472441
          },
          {
            "number": 11,
            "time": 60.76497468125066,
            "value": 0.8267716535433071
          },
          {
            "number": 11,
            "time": 60.785688958334,
            "value": 0.8346456692913385
          },
          {
            "number": 11,
            "time": 60.80354609375067,
            "value": 0.8503937007874016
          },
          {
            "number": 11,
            "time": 60.82140322916734,
            "value": 0.8661417322834646
          },
          {
            "number": 11,
            "time": 60.83926036458401,
            "value": 0.8818897637795275
          },
          {
            "number": 11,
            "time": 60.857117500000676,
            "value": 0.889763779527559
          },
          {
            "number": 11,
            "time": 60.874974635417345,
            "value": 0.9133858267716536
          },
          {
            "number": 11,
            "time": 60.892831770834015,
            "value": 0.9212598425196851
          },
          {
            "number": 11,
            "time": 60.910688906250684,
            "value": 0.9291338582677166
          },
          {
            "number": 11,
            "time": 61.05283170416735,
            "value": 0.905511811023622
          },
          {
            "number": 11,
            "time": 61.07068883958402,
            "value": 0.8740157480314961
          },
          {
            "number": 11,
            "time": 61.089260260417355,
            "value": 0.8346456692913385
          },
          {
            "number": 11,
            "time": 61.107117395834024,
            "value": 0.7952755905511811
          },
          {
            "number": 11,
            "time": 61.12497453125069,
            "value": 0.7480314960629921
          },
          {
            "number": 11,
            "time": 61.14283166666736,
            "value": 0.6929133858267716
          },
          {
            "number": 11,
            "time": 61.16068880208403,
            "value": 0.6456692913385826
          },
          {
            "number": 11,
            "time": 61.1785459375007,
            "value": 0.6141732283464567
          },
          {
            "number": 11,
            "time": 61.19640307291737,
            "value": 0.5826771653543307
          },
          {
            "number": 11,
            "time": 61.21426020833404,
            "value": 0.5748031496062992
          },
          {
            "number": 11,
            "time": 61.23211734375071,
            "value": 0.5669291338582677
          },
          {
            "number": 11,
            "time": 61.32140302083404,
            "value": 0.5905511811023622
          },
          {
            "number": 11,
            "time": 61.33997444166737,
            "value": 0.6141732283464567
          },
          {
            "number": 11,
            "time": 61.35783157708404,
            "value": 0.6456692913385826
          },
          {
            "number": 11,
            "time": 61.37568871250071,
            "value": 0.6771653543307087
          },
          {
            "number": 11,
            "time": 61.39354584791738,
            "value": 0.7007874015748031
          },
          {
            "number": 11,
            "time": 61.41140298333405,
            "value": 0.7165354330708661
          },
          {
            "number": 11,
            "time": 61.42926011875072,
            "value": 0.7322834645669292
          },
          {
            "number": 11,
            "time": 61.44711725416739,
            "value": 0.7559055118110236
          },
          {
            "number": 11,
            "time": 61.46497438958406,
            "value": 0.7637795275590551
          },
          {
            "number": 11,
            "time": 61.48283152500073,
            "value": 0.7716535433070866
          },
          {
            "number": 11,
            "time": 61.500688660417396,
            "value": 0.7795275590551181
          },
          {
            "number": 11,
            "time": 61.53640293125073,
            "value": 0.7874015748031497
          },
          {
            "number": 11,
            "time": 61.557831493750726,
            "value": 0.7952755905511811
          },
          {
            "number": 11,
            "time": 61.575688629167395,
            "value": 0.8031496062992126
          },
          {
            "number": 11,
            "time": 61.593545764584064,
            "value": 0.8110236220472441
          },
          {
            "number": 11,
            "time": 61.61140290000073,
            "value": 0.8188976377952756
          },
          {
            "number": 11,
            "time": 61.647117170834065,
            "value": 0.8267716535433071
          },
          {
            "number": 11,
            "time": 61.664974306250734,
            "value": 0.8346456692913385
          },
          {
            "number": 11,
            "time": 61.6828314416674,
            "value": 0.84251968503937
          },
          {
            "number": 11,
            "time": 61.70068857708407,
            "value": 0.8503937007874016
          },
          {
            "number": 11,
            "time": 61.736402847917404,
            "value": 0.8582677165354331
          },
          {
            "number": 11,
            "time": 61.75425998333407,
            "value": 0.8661417322834646
          },
          {
            "number": 11,
            "time": 61.789974254167404,
            "value": 0.8740157480314961
          },
          {
            "number": 11,
            "time": 61.80854567500074,
            "value": 0.8818897637795275
          },
          {
            "number": 11,
            "time": 61.826402810417406,
            "value": 0.889763779527559
          },
          {
            "number": 11,
            "time": 61.86211708125074,
            "value": 0.8976377952755905
          },
          {
            "number": 11,
            "time": 61.91568848750074,
            "value": 0.905511811023622
          },
          {
            "number": 11,
            "time": 61.98711702916741,
            "value": 0.9133858267716536
          },
          {
            "number": 11,
            "time": 62.00497416458408,
            "value": 0.9212598425196851
          },
          {
            "number": 11,
            "time": 62.04068843541741,
            "value": 0.9291338582677166
          },
          {
            "number": 11,
            "time": 62.05925985625074,
            "value": 0.937007874015748
          },
          {
            "number": 11,
            "time": 62.07711699166741,
            "value": 0.9448818897637795
          },
          {
            "number": 11,
            "time": 62.13068839791741,
            "value": 0.952755905511811
          },
          {
            "number": 11,
            "time": 62.14854553333408,
            "value": 0.9606299212598425
          },
          {
            "number": 11,
            "time": 62.18425980416741,
            "value": 0.968503937007874
          },
          {
            "number": 11,
            "time": 62.20211693958408,
            "value": 0.9763779527559056
          },
          {
            "number": 11,
            "time": 62.417116850000745,
            "value": 0.968503937007874
          },
          {
            "number": 11,
            "time": 62.434973985417415,
            "value": 0.9606299212598425
          },
          {
            "number": 11,
            "time": 62.452831120834084,
            "value": 0.952755905511811
          },
          {
            "number": 11,
            "time": 62.47068825625075,
            "value": 0.9448818897637795
          },
          {
            "number": 11,
            "time": 62.48854539166742,
            "value": 0.937007874015748
          },
          {
            "number": 11,
            "time": 62.50640252708409,
            "value": 0.9291338582677166
          },
          {
            "number": 11,
            "time": 62.52425966250076,
            "value": 0.9133858267716536
          },
          {
            "number": 11,
            "time": 62.54211679791743,
            "value": 0.905511811023622
          },
          {
            "number": 11,
            "time": 62.5599739333341,
            "value": 0.889763779527559
          },
          {
            "number": 11,
            "time": 62.57854535416743,
            "value": 0.8818897637795275
          },
          {
            "number": 11,
            "time": 62.5964024895841,
            "value": 0.8661417322834646
          },
          {
            "number": 11,
            "time": 62.61425962500077,
            "value": 0.84251968503937
          },
          {
            "number": 11,
            "time": 62.63211676041744,
            "value": 0.8346456692913385
          },
          {
            "number": 11,
            "time": 62.64997389583411,
            "value": 0.8188976377952756
          },
          {
            "number": 11,
            "time": 62.66783103125078,
            "value": 0.8110236220472441
          },
          {
            "number": 11,
            "time": 62.68568816666745,
            "value": 0.8031496062992126
          },
          {
            "number": 11,
            "time": 62.703545302084116,
            "value": 0.7952755905511811
          },
          {
            "number": 11,
            "time": 62.72425957916745,
            "value": 0.7795275590551181
          },
          {
            "number": 11,
            "time": 62.814259541667454,
            "value": 0.8031496062992126
          },
          {
            "number": 11,
            "time": 62.83211667708412,
            "value": 0.8110236220472441
          },
          {
            "number": 11,
            "time": 62.84997381250079,
            "value": 0.8267716535433071
          },
          {
            "number": 11,
            "time": 62.86783094791746,
            "value": 0.8346456692913385
          },
          {
            "number": 11,
            "time": 62.88568808333413,
            "value": 0.84251968503937
          },
          {
            "number": 11,
            "time": 62.9035452187508,
            "value": 0.8503937007874016
          },
          {
            "number": 11,
            "time": 62.92140235416747,
            "value": 0.8582677165354331
          },
          {
            "number": 11,
            "time": 62.93925948958414,
            "value": 0.8661417322834646
          },
          {
            "number": 11,
            "time": 62.95711662500081,
            "value": 0.8740157480314961
          },
          {
            "number": 11,
            "time": 62.97497376041748,
            "value": 0.8818897637795275
          },
          {
            "number": 11,
            "time": 62.992830895834146,
            "value": 0.889763779527559
          },
          {
            "number": 11,
            "time": 63.02854516666748,
            "value": 0.8976377952755905
          },
          {
            "number": 11,
            "time": 63.04711658750081,
            "value": 0.905511811023622
          },
          {
            "number": 11,
            "time": 63.06497372291748,
            "value": 0.9133858267716536
          },
          {
            "number": 11,
            "time": 63.08283085833415,
            "value": 0.9212598425196851
          },
          {
            "number": 11,
            "time": 63.11854512916748,
            "value": 0.9291338582677166
          },
          {
            "number": 11,
            "time": 63.13640226458415,
            "value": 0.937007874015748
          },
          {
            "number": 11,
            "time": 63.15425940000082,
            "value": 0.9448818897637795
          },
          {
            "number": 11,
            "time": 63.17211653541749,
            "value": 0.952755905511811
          },
          {
            "number": 11,
            "time": 63.189973670834156,
            "value": 0.9606299212598425
          },
          {
            "number": 11,
            "time": 63.22568794166749,
            "value": 0.968503937007874
          },
          {
            "number": 11,
            "time": 63.24354507708416,
            "value": 0.9763779527559056
          },
          {
            "number": 11,
            "time": 63.261402212500826,
            "value": 0.984251968503937
          },
          {
            "number": 11,
            "time": 63.279259347917495,
            "value": 0.9921259842519685
          },
          {
            "number": 11,
            "time": 63.44068785208416,
            "value": 0.984251968503937
          },
          {
            "number": 11,
            "time": 63.45854498750083,
            "value": 0.9763779527559056
          },
          {
            "number": 11,
            "time": 63.4764021229175,
            "value": 0.952755905511811
          },
          {
            "number": 11,
            "time": 63.49425925833417,
            "value": 0.937007874015748
          },
          {
            "number": 11,
            "time": 63.51211639375084,
            "value": 0.9291338582677166
          },
          {
            "number": 11,
            "time": 63.529973529167506,
            "value": 0.9133858267716536
          },
          {
            "number": 11,
            "time": 63.547830664584176,
            "value": 0.905511811023622
          },
          {
            "number": 11,
            "time": 63.56640208541751,
            "value": 0.889763779527559
          },
          {
            "number": 11,
            "time": 63.58425922083418,
            "value": 0.8818897637795275
          },
          {
            "number": 11,
            "time": 63.602116356250846,
            "value": 0.8661417322834646
          },
          {
            "number": 11,
            "time": 63.619973491667515,
            "value": 0.8503937007874016
          },
          {
            "number": 11,
            "time": 63.637830627084185,
            "value": 0.84251968503937
          },
          {
            "number": 11,
            "time": 63.673544897917516,
            "value": 0.8346456692913385
          },
          {
            "number": 11,
            "time": 63.691402033334185,
            "value": 0.8188976377952756
          },
          {
            "number": 11,
            "time": 63.709259168750854,
            "value": 0.8110236220472441
          },
          {
            "number": 11,
            "time": 63.727116304167524,
            "value": 0.8031496062992126
          },
          {
            "number": 11,
            "time": 63.762830575000855,
            "value": 0.7874015748031497
          },
          {
            "number": 11,
            "time": 63.780687710417524,
            "value": 0.7716535433070866
          },
          {
            "number": 11,
            "time": 63.79854484583419,
            "value": 0.7637795275590551
          },
          {
            "number": 11,
            "time": 63.817116266667526,
            "value": 0.7401574803149606
          },
          {
            "number": 11,
            "time": 63.834973402084195,
            "value": 0.7322834645669292
          },
          {
            "number": 11,
            "time": 63.852830537500864,
            "value": 0.7165354330708661
          },
          {
            "number": 11,
            "time": 63.8735448145842,
            "value": 0.7086614173228346
          },
          {
            "number": 11,
            "time": 63.89140195000087,
            "value": 0.7007874015748031
          },
          {
            "number": 11,
            "time": 64.01640189791753,
            "value": 0.7086614173228346
          },
          {
            "number": 11,
            "time": 64.03497331875087,
            "value": 0.7165354330708661
          },
          {
            "number": 11,
            "time": 64.05283045416753,
            "value": 0.7244094488188977
          },
          {
            "number": 11,
            "time": 64.0706875895842,
            "value": 0.7322834645669292
          },
          {
            "number": 11,
            "time": 64.08854472500086,
            "value": 0.7401574803149606
          },
          {
            "number": 11,
            "time": 64.10640186041752,
            "value": 0.7480314960629921
          },
          {
            "number": 11,
            "time": 64.1242589958342,
            "value": 0.7559055118110236
          },
          {
            "number": 11,
            "time": 64.14211613125086,
            "value": 0.7637795275590551
          },
          {
            "number": 11,
            "time": 64.1778304020842,
            "value": 0.7716535433070866
          },
          {
            "number": 11,
            "time": 64.19568753750086,
            "value": 0.7795275590551181
          },
          {
            "number": 11,
            "time": 64.21354467291752,
            "value": 0.7874015748031497
          },
          {
            "number": 11,
            "time": 64.23140180833418,
            "value": 0.7952755905511811
          },
          {
            "number": 11,
            "time": 64.32140177083419,
            "value": 0.8031496062992126
          },
          {
            "number": 11,
            "time": 64.35711604166752,
            "value": 0.8110236220472441
          },
          {
            "number": 11,
            "time": 64.42854458333419,
            "value": 0.8188976377952756
          },
          {
            "number": 11,
            "time": 64.46425885416753,
            "value": 0.8267716535433071
          },
          {
            "number": 11,
            "time": 64.48211598958419,
            "value": 0.8346456692913385
          },
          {
            "number": 11,
            "time": 64.71497303541751,
            "value": 0.84251968503937
          },
          {
            "number": 11,
            "time": 64.73283017083418,
            "value": 0.8503937007874016
          },
          {
            "number": 11,
            "time": 64.78640157708418,
            "value": 0.8582677165354331
          },
          {
            "number": 11,
            "time": 64.80497299791752,
            "value": 0.8661417322834646
          },
          {
            "number": 11,
            "time": 64.85854440416752,
            "value": 0.8740157480314961
          },
          {
            "number": 11,
            "time": 64.92997294583418,
            "value": 0.8818897637795275
          },
          {
            "number": 11,
            "time": 65.01925862291752,
            "value": 0.889763779527559
          },
          {
            "number": 11,
            "time": 65.04068718541753,
            "value": 0.8976377952755905
          },
          {
            "number": 11,
            "time": 65.12997286250086,
            "value": 0.905511811023622
          },
          {
            "number": 11,
            "time": 65.18354426875086,
            "value": 0.9133858267716536
          },
          {
            "number": 11,
            "time": 65.20140140416753,
            "value": 0.9212598425196851
          },
          {
            "number": 11,
            "time": 65.23568710416752,
            "value": 0.9212598425196851
          },
          {
            "number": 11,
            "time": 65.24997281250086,
            "value": 0.9133858267716536
          },
          {
            "number": 11,
            "time": 65.27140137500086,
            "value": 0.905511811023622
          },
          {
            "number": 11,
            "time": 65.2856870833342,
            "value": 0.8976377952755905
          },
          {
            "number": 11,
            "time": 65.3071156458342,
            "value": 0.889763779527559
          },
          {
            "number": 11,
            "time": 65.32140135416753,
            "value": 0.8818897637795275
          },
          {
            "number": 11,
            "time": 65.33568706250087,
            "value": 0.8740157480314961
          },
          {
            "number": 11,
            "time": 65.3499727708342,
            "value": 0.8661417322834646
          },
          {
            "number": 11,
            "time": 65.35711562500087,
            "value": 0.8582677165354331
          },
          {
            "number": 11,
            "time": 65.3714013333342,
            "value": 0.8503937007874016
          },
          {
            "number": 11,
            "time": 65.37854418750088,
            "value": 0.84251968503937
          },
          {
            "number": 11,
            "time": 65.38568704166755,
            "value": 0.8346456692913385
          },
          {
            "number": 11,
            "time": 65.39282989583423,
            "value": 0.8267716535433071
          },
          {
            "number": 11,
            "time": 65.3999727500009,
            "value": 0.8188976377952756
          },
          {
            "number": 11,
            "time": 65.40711560416757,
            "value": 0.8110236220472441
          },
          {
            "number": 11,
            "time": 65.4214013125009,
            "value": 0.8031496062992126
          },
          {
            "number": 11,
            "time": 65.44282987500091,
            "value": 0.7952755905511811
          },
          {
            "number": 11,
            "time": 65.54997268750091,
            "value": 0.8031496062992126
          },
          {
            "number": 11,
            "time": 65.57140125000092,
            "value": 0.8110236220472441
          },
          {
            "number": 11,
            "time": 65.59282981250092,
            "value": 0.8188976377952756
          },
          {
            "number": 11,
            "time": 65.5999726666676,
            "value": 0.8267716535433071
          },
          {
            "number": 11,
            "time": 65.60711552083427,
            "value": 0.8346456692913385
          },
          {
            "number": 11,
            "time": 65.6214012291676,
            "value": 0.84251968503937
          },
          {
            "number": 11,
            "time": 65.62854408333428,
            "value": 0.8503937007874016
          },
          {
            "number": 11,
            "time": 65.64282979166761,
            "value": 0.8582677165354331
          },
          {
            "number": 11,
            "time": 65.64997264583428,
            "value": 0.8661417322834646
          },
          {
            "number": 11,
            "time": 65.66425835416761,
            "value": 0.8740157480314961
          },
          {
            "number": 11,
            "time": 65.67140120833429,
            "value": 0.8818897637795275
          },
          {
            "number": 11,
            "time": 65.67854406250096,
            "value": 0.889763779527559
          },
          {
            "number": 11,
            "time": 65.68568691666763,
            "value": 0.8976377952755905
          },
          {
            "number": 11,
            "time": 65.69282977083431,
            "value": 0.905511811023622
          },
          {
            "number": 11,
            "time": 65.69997262500098,
            "value": 0.9133858267716536
          },
          {
            "number": 11,
            "time": 65.71425833333431,
            "value": 0.9212598425196851
          },
          {
            "number": 11,
            "time": 65.72140118750099,
            "value": 0.9291338582677166
          },
          {
            "number": 11,
            "time": 65.72854404166766,
            "value": 0.937007874015748
          },
          {
            "number": 11,
            "time": 65.73568689583433,
            "value": 0.9448818897637795
          },
          {
            "number": 11,
            "time": 65.74282975000101,
            "value": 0.952755905511811
          },
          {
            "number": 11,
            "time": 65.74997260416768,
            "value": 0.9606299212598425
          },
          {
            "number": 11,
            "time": 65.76425831250101,
            "value": 0.968503937007874
          },
          {
            "number": 11,
            "time": 65.77140116666769,
            "value": 0.9763779527559056
          },
          {
            "number": 11,
            "time": 65.77854402083436,
            "value": 0.984251968503937
          },
          {
            "number": 11,
            "time": 65.78568687500103,
            "value": 0.9921259842519685
          },
          {
            "number": 11,
            "time": 65.7928297291677,
            "value": 1
          },
          {
            "number": 11,
            "time": 66.87068642291771,
            "value": 0.7716535433070866
          },
          {
            "number": 11,
            "time": 66.88854355833438,
            "value": 0.7795275590551181
          },
          {
            "number": 11,
            "time": 66.92425782916771,
            "value": 0.7874015748031497
          },
          {
            "number": 11,
            "time": 66.96068638541772,
            "value": 0.7952755905511811
          },
          {
            "number": 11,
            "time": 66.97854352083438,
            "value": 0.8031496062992126
          },
          {
            "number": 11,
            "time": 66.99640065625104,
            "value": 0.8110236220472441
          },
          {
            "number": 11,
            "time": 67.0142577916677,
            "value": 0.8188976377952756
          },
          {
            "number": 11,
            "time": 67.03211492708436,
            "value": 0.8267716535433071
          },
          {
            "number": 11,
            "time": 67.04997206250103,
            "value": 0.8346456692913385
          },
          {
            "number": 11,
            "time": 67.06782919791769,
            "value": 0.84251968503937
          },
          {
            "number": 11,
            "time": 67.08640061875103,
            "value": 0.8503937007874016
          },
          {
            "number": 11,
            "time": 67.10497203958437,
            "value": 0.8582677165354331
          },
          {
            "number": 11,
            "time": 67.12282917500103,
            "value": 0.8661417322834646
          },
          {
            "number": 11,
            "time": 67.14068631041769,
            "value": 0.8740157480314961
          },
          {
            "number": 11,
            "time": 67.15854344583435,
            "value": 0.8818897637795275
          },
          {
            "number": 11,
            "time": 67.17640058125102,
            "value": 0.889763779527559
          },
          {
            "number": 11,
            "time": 67.19425771666768,
            "value": 0.8976377952755905
          },
          {
            "number": 11,
            "time": 67.21211485208434,
            "value": 0.905511811023622
          },
          {
            "number": 11,
            "time": 67.229971987501,
            "value": 0.9133858267716536
          },
          {
            "number": 11,
            "time": 67.24782912291766,
            "value": 0.9212598425196851
          },
          {
            "number": 11,
            "time": 67.26568625833433,
            "value": 0.9291338582677166
          },
          {
            "number": 11,
            "time": 67.28354339375099,
            "value": 0.937007874015748
          },
          {
            "number": 11,
            "time": 67.30140052916765,
            "value": 0.9448818897637795
          },
          {
            "number": 11,
            "time": 67.31925766458431,
            "value": 0.952755905511811
          },
          {
            "number": 11,
            "time": 67.33711480000098,
            "value": 0.9606299212598425
          },
          {
            "number": 11,
            "time": 67.35497193541764,
            "value": 0.968503937007874
          },
          {
            "number": 11,
            "time": 67.39140049166764,
            "value": 0.9763779527559056
          },
          {
            "number": 11,
            "time": 67.4092576270843,
            "value": 0.984251968503937
          },
          {
            "number": 11,
            "time": 67.44497189791764,
            "value": 0.9921259842519685
          },
          {
            "number": 11,
            "time": 67.53425757500098,
            "value": 1
          },
          {
            "number": 11,
            "time": 67.89568599583431,
            "value": 0.9921259842519685
          },
          {
            "number": 11,
            "time": 67.91354313125098,
            "value": 0.968503937007874
          },
          {
            "number": 11,
            "time": 67.93140026666764,
            "value": 0.9448818897637795
          },
          {
            "number": 11,
            "time": 67.9492574020843,
            "value": 0.9212598425196851
          },
          {
            "number": 11,
            "time": 67.96711453750096,
            "value": 0.8976377952755905
          },
          {
            "number": 11,
            "time": 67.98425738750096,
            "value": 0.8818897637795275
          },
          {
            "number": 11,
            "time": 68.0028288083343,
            "value": 0.8582677165354331
          },
          {
            "number": 11,
            "time": 68.02068594375096,
            "value": 0.8346456692913385
          },
          {
            "number": 11,
            "time": 68.03782879375096,
            "value": 0.8110236220472441
          },
          {
            "number": 11,
            "time": 68.0564002145843,
            "value": 0.7874015748031497
          },
          {
            "number": 11,
            "time": 68.07425735000096,
            "value": 0.7637795275590551
          },
          {
            "number": 11,
            "time": 68.0928287708343,
            "value": 0.7401574803149606
          },
          {
            "number": 11,
            "time": 68.11068590625096,
            "value": 0.7322834645669292
          },
          {
            "number": 11,
            "time": 68.12854304166763,
            "value": 0.7244094488188977
          },
          {
            "number": 11,
            "time": 68.19997158333429,
            "value": 0.7401574803149606
          },
          {
            "number": 11,
            "time": 68.21782871875095,
            "value": 0.7637795275590551
          },
          {
            "number": 11,
            "time": 68.23568585416763,
            "value": 0.7795275590551181
          },
          {
            "number": 11,
            "time": 68.25354298958429,
            "value": 0.7952755905511811
          },
          {
            "number": 11,
            "time": 68.27140012500095,
            "value": 0.8031496062992126
          },
          {
            "number": 11,
            "time": 68.28925726041761,
            "value": 0.8110236220472441
          },
          {
            "number": 11,
            "time": 68.30711439583428,
            "value": 0.8188976377952756
          },
          {
            "number": 11,
            "time": 68.32497153125094,
            "value": 0.8267716535433071
          },
          {
            "number": 11,
            "time": 68.34354295208428,
            "value": 0.84251968503937
          },
          {
            "number": 11,
            "time": 68.36140008750094,
            "value": 0.8503937007874016
          },
          {
            "number": 11,
            "time": 68.3792572229176,
            "value": 0.8661417322834646
          },
          {
            "number": 11,
            "time": 68.39711435833426,
            "value": 0.8740157480314961
          },
          {
            "number": 11,
            "time": 68.41497149375093,
            "value": 0.8818897637795275
          },
          {
            "number": 11,
            "time": 68.43282862916759,
            "value": 0.889763779527559
          },
          {
            "number": 11,
            "time": 68.45068576458425,
            "value": 0.9133858267716536
          },
          {
            "number": 11,
            "time": 68.46854290000091,
            "value": 0.9212598425196851
          },
          {
            "number": 11,
            "time": 68.48640003541757,
            "value": 0.9291338582677166
          },
          {
            "number": 11,
            "time": 68.50425717083424,
            "value": 0.937007874015748
          },
          {
            "number": 11,
            "time": 68.5221143062509,
            "value": 0.9448818897637795
          },
          {
            "number": 11,
            "time": 68.53997144166756,
            "value": 0.9606299212598425
          },
          {
            "number": 11,
            "time": 68.5756857125009,
            "value": 0.968503937007874
          },
          {
            "number": 11,
            "time": 68.59354284791756,
            "value": 0.9763779527559056
          },
          {
            "number": 11,
            "time": 68.6121142687509,
            "value": 0.984251968503937
          },
          {
            "number": 11,
            "time": 68.62997140416756,
            "value": 0.9921259842519685
          },
          {
            "number": 11,
            "time": 68.73711421666756,
            "value": 1
          },
          {
            "number": 11,
            "time": 69.24139972083422,
            "value": 0.9921259842519685
          },
          {
            "number": 11,
            "time": 69.25925685625089,
            "value": 0.9763779527559056
          },
          {
            "number": 11,
            "time": 69.27711399166755,
            "value": 0.952755905511811
          },
          {
            "number": 11,
            "time": 69.29497112708421,
            "value": 0.937007874015748
          },
          {
            "number": 11,
            "time": 69.31282826250087,
            "value": 0.9133858267716536
          },
          {
            "number": 11,
            "time": 69.33139968333421,
            "value": 0.8818897637795275
          },
          {
            "number": 11,
            "time": 69.34925681875087,
            "value": 0.8582677165354331
          },
          {
            "number": 11,
            "time": 69.36711395416754,
            "value": 0.8267716535433071
          },
          {
            "number": 11,
            "time": 69.3849710895842,
            "value": 0.7952755905511811
          },
          {
            "number": 11,
            "time": 69.40282822500086,
            "value": 0.7637795275590551
          },
          {
            "number": 11,
            "time": 69.42068536041752,
            "value": 0.7480314960629921
          },
          {
            "number": 11,
            "time": 69.43854249583418,
            "value": 0.7401574803149606
          },
          {
            "number": 11,
            "time": 69.45639963125085,
            "value": 0.7322834645669292
          },
          {
            "number": 11,
            "time": 69.47425676666751,
            "value": 0.7244094488188977
          },
          {
            "number": 11,
            "time": 69.56354244375085,
            "value": 0.7322834645669292
          },
          {
            "number": 11,
            "time": 69.58139957916751,
            "value": 0.7401574803149606
          },
          {
            "number": 11,
            "time": 69.59997100000085,
            "value": 0.7637795275590551
          },
          {
            "number": 11,
            "time": 69.61782813541751,
            "value": 0.7795275590551181
          },
          {
            "number": 11,
            "time": 69.63568527083417,
            "value": 0.7952755905511811
          },
          {
            "number": 11,
            "time": 69.65354240625084,
            "value": 0.8188976377952756
          },
          {
            "number": 11,
            "time": 69.6713995416675,
            "value": 0.8346456692913385
          },
          {
            "number": 11,
            "time": 69.68925667708416,
            "value": 0.8582677165354331
          },
          {
            "number": 11,
            "time": 69.70711381250082,
            "value": 0.8740157480314961
          },
          {
            "number": 11,
            "time": 69.72497094791748,
            "value": 0.8818897637795275
          },
          {
            "number": 11,
            "time": 69.74282808333415,
            "value": 0.8976377952755905
          },
          {
            "number": 11,
            "time": 69.76068521875081,
            "value": 0.9133858267716536
          },
          {
            "number": 11,
            "time": 69.77854235416747,
            "value": 0.9291338582677166
          },
          {
            "number": 11,
            "time": 69.79639948958413,
            "value": 0.937007874015748
          },
          {
            "number": 11,
            "time": 69.8142566250008,
            "value": 0.9448818897637795
          },
          {
            "number": 11,
            "time": 69.83211376041746,
            "value": 0.952755905511811
          },
          {
            "number": 11,
            "time": 69.8506851812508,
            "value": 0.9606299212598425
          },
          {
            "number": 11,
            "time": 69.92211372291746,
            "value": 0.968503937007874
          },
          {
            "number": 11,
            "time": 69.9578279937508,
            "value": 0.9763779527559056
          },
          {
            "number": 11,
            "time": 69.97568512916746,
            "value": 0.984251968503937
          },
          {
            "number": 11,
            "time": 69.99354226458412,
            "value": 0.9921259842519685
          },
          {
            "number": 11,
            "time": 70.17568504583411,
            "value": 1
          },
          {
            "number": 11,
            "time": 70.55139917500078,
            "value": 0.984251968503937
          },
          {
            "number": 11,
            "time": 70.56925631041744,
            "value": 0.968503937007874
          },
          {
            "number": 11,
            "time": 70.58782773125078,
            "value": 0.9448818897637795
          },
          {
            "number": 11,
            "time": 70.60568486666745,
            "value": 0.9291338582677166
          },
          {
            "number": 11,
            "time": 70.62354200208411,
            "value": 0.905511811023622
          },
          {
            "number": 11,
            "time": 70.64139913750077,
            "value": 0.889763779527559
          },
          {
            "number": 11,
            "time": 70.65925627291743,
            "value": 0.8661417322834646
          },
          {
            "number": 11,
            "time": 70.6771134083341,
            "value": 0.8503937007874016
          },
          {
            "number": 11,
            "time": 70.69497054375076,
            "value": 0.84251968503937
          },
          {
            "number": 11,
            "time": 70.76639908541742,
            "value": 0.8661417322834646
          },
          {
            "number": 11,
            "time": 70.78425622083408,
            "value": 0.905511811023622
          },
          {
            "number": 11,
            "time": 70.80211335625074,
            "value": 0.9448818897637795
          },
          {
            "number": 11,
            "time": 70.8199704916674,
            "value": 0.984251968503937
          },
          {
            "number": 11,
            "time": 70.83854191250074,
            "value": 0.9921259842519685
          },
          {
            "number": 11,
            "time": 70.8563990479174,
            "value": 1
          },
          {
            "number": 11,
            "time": 72.13068423125074,
            "value": 0.984251968503937
          },
          {
            "number": 11,
            "time": 72.1485413666674,
            "value": 0.9606299212598425
          },
          {
            "number": 11,
            "time": 72.16639850208406,
            "value": 0.937007874015748
          },
          {
            "number": 11,
            "time": 72.18425563750074,
            "value": 0.905511811023622
          },
          {
            "number": 11,
            "time": 72.2021127729174,
            "value": 0.8818897637795275
          },
          {
            "number": 11,
            "time": 72.21996990833406,
            "value": 0.8582677165354331
          },
          {
            "number": 11,
            "time": 72.23782704375073,
            "value": 0.8346456692913385
          },
          {
            "number": 11,
            "time": 72.25568417916739,
            "value": 0.8267716535433071
          },
          {
            "number": 11,
            "time": 72.36354127708405,
            "value": 0.8346456692913385
          },
          {
            "number": 11,
            "time": 72.38139841250072,
            "value": 0.8582677165354331
          },
          {
            "number": 11,
            "time": 72.39925554791738,
            "value": 0.8818897637795275
          },
          {
            "number": 11,
            "time": 72.41711268333404,
            "value": 0.8976377952755905
          },
          {
            "number": 11,
            "time": 72.4349698187507,
            "value": 0.9212598425196851
          },
          {
            "number": 11,
            "time": 72.45282695416736,
            "value": 0.9291338582677166
          },
          {
            "number": 11,
            "time": 72.47068408958403,
            "value": 0.9448818897637795
          },
          {
            "number": 11,
            "time": 72.48854122500069,
            "value": 0.952755905511811
          },
          {
            "number": 11,
            "time": 72.50639836041735,
            "value": 0.9763779527559056
          },
          {
            "number": 11,
            "time": 72.52425549583401,
            "value": 0.9921259842519685
          },
          {
            "number": 11,
            "time": 72.706398277084,
            "value": 1
          },
          {
            "number": 11,
            "time": 73.458540820834,
            "value": 0.9921259842519685
          },
          {
            "number": 11,
            "time": 73.47639795625066,
            "value": 0.968503937007874
          },
          {
            "number": 11,
            "time": 73.49425509166733,
            "value": 0.9448818897637795
          },
          {
            "number": 11,
            "time": 73.51211222708399,
            "value": 0.9291338582677166
          },
          {
            "number": 11,
            "time": 73.52996936250065,
            "value": 0.905511811023622
          },
          {
            "number": 11,
            "time": 73.54782649791731,
            "value": 0.8818897637795275
          },
          {
            "number": 11,
            "time": 73.56568363333398,
            "value": 0.8582677165354331
          },
          {
            "number": 11,
            "time": 73.58425505416731,
            "value": 0.84251968503937
          },
          {
            "number": 11,
            "time": 73.60211218958398,
            "value": 0.8346456692913385
          },
          {
            "number": 11,
            "time": 73.61996932500064,
            "value": 0.8267716535433071
          },
          {
            "number": 11,
            "time": 73.6378264604173,
            "value": 0.8188976377952756
          },
          {
            "number": 11,
            "time": 73.7449692729173,
            "value": 0.8346456692913385
          },
          {
            "number": 11,
            "time": 73.76282640833396,
            "value": 0.8503937007874016
          },
          {
            "number": 11,
            "time": 73.78068354375063,
            "value": 0.8661417322834646
          },
          {
            "number": 11,
            "time": 73.79854067916729,
            "value": 0.889763779527559
          },
          {
            "number": 11,
            "time": 73.81639781458395,
            "value": 0.905511811023622
          },
          {
            "number": 11,
            "time": 73.83496923541729,
            "value": 0.9133858267716536
          },
          {
            "number": 11,
            "time": 73.85568351250062,
            "value": 0.9212598425196851
          },
          {
            "number": 11,
            "time": 73.87354064791728,
            "value": 0.9448818897637795
          },
          {
            "number": 11,
            "time": 73.89139778333394,
            "value": 0.952755905511811
          },
          {
            "number": 11,
            "time": 73.9092549187506,
            "value": 0.9606299212598425
          },
          {
            "number": 11,
            "time": 73.92711205416727,
            "value": 0.968503937007874
          },
          {
            "number": 11,
            "time": 73.94496918958393,
            "value": 0.9763779527559056
          },
          {
            "number": 11,
            "time": 73.96282632500059,
            "value": 0.984251968503937
          },
          {
            "number": 11,
            "time": 73.98068346041725,
            "value": 0.9921259842519685
          },
          {
            "number": 11,
            "time": 74.07068342291726,
            "value": 1
          },
          {
            "number": 11,
            "time": 74.75068313958393,
            "value": 0.984251968503937
          },
          {
            "number": 11,
            "time": 74.76854027500059,
            "value": 0.9763779527559056
          },
          {
            "number": 11,
            "time": 74.78639741041725,
            "value": 0.9606299212598425
          },
          {
            "number": 11,
            "time": 74.80425454583391,
            "value": 0.952755905511811
          },
          {
            "number": 11,
            "time": 74.82282596666725,
            "value": 0.937007874015748
          },
          {
            "number": 11,
            "time": 74.84068310208391,
            "value": 0.9212598425196851
          },
          {
            "number": 11,
            "time": 74.85854023750058,
            "value": 0.905511811023622
          },
          {
            "number": 11,
            "time": 74.87639737291724,
            "value": 0.8976377952755905
          },
          {
            "number": 11,
            "time": 74.8942545083339,
            "value": 0.8740157480314961
          },
          {
            "number": 11,
            "time": 74.91211164375056,
            "value": 0.8503937007874016
          },
          {
            "number": 11,
            "time": 74.92996877916723,
            "value": 0.8267716535433071
          },
          {
            "number": 11,
            "time": 74.94782591458389,
            "value": 0.8031496062992126
          },
          {
            "number": 11,
            "time": 74.96568305000055,
            "value": 0.7795275590551181
          },
          {
            "number": 11,
            "time": 74.98354018541721,
            "value": 0.7637795275590551
          },
          {
            "number": 11,
            "time": 75.00139732083387,
            "value": 0.7401574803149606
          },
          {
            "number": 11,
            "time": 75.0221115979172,
            "value": 0.7322834645669292
          },
          {
            "number": 11,
            "time": 75.04068301875054,
            "value": 0.7244094488188977
          },
          {
            "number": 11,
            "time": 75.14782583125054,
            "value": 0.7480314960629921
          },
          {
            "number": 11,
            "time": 75.1656829666672,
            "value": 0.7637795275590551
          },
          {
            "number": 11,
            "time": 75.18354010208387,
            "value": 0.7795275590551181
          },
          {
            "number": 11,
            "time": 75.20139723750053,
            "value": 0.7952755905511811
          },
          {
            "number": 11,
            "time": 75.21925437291719,
            "value": 0.8110236220472441
          },
          {
            "number": 11,
            "time": 75.23711150833385,
            "value": 0.8188976377952756
          },
          {
            "number": 11,
            "time": 75.25496864375052,
            "value": 0.8346456692913385
          },
          {
            "number": 11,
            "time": 75.27282577916718,
            "value": 0.8503937007874016
          },
          {
            "number": 11,
            "time": 75.29139720000052,
            "value": 0.8582677165354331
          },
          {
            "number": 11,
            "time": 75.30925433541718,
            "value": 0.8661417322834646
          },
          {
            "number": 11,
            "time": 75.32711147083384,
            "value": 0.8818897637795275
          },
          {
            "number": 11,
            "time": 75.3449686062505,
            "value": 0.889763779527559
          },
          {
            "number": 11,
            "time": 75.36282574166717,
            "value": 0.905511811023622
          },
          {
            "number": 11,
            "time": 75.38068287708383,
            "value": 0.9133858267716536
          },
          {
            "number": 11,
            "time": 75.39854001250049,
            "value": 0.9212598425196851
          },
          {
            "number": 11,
            "time": 75.41639714791715,
            "value": 0.937007874015748
          },
          {
            "number": 11,
            "time": 75.43425428333381,
            "value": 0.9448818897637795
          },
          {
            "number": 11,
            "time": 75.45211141875048,
            "value": 0.9606299212598425
          },
          {
            "number": 11,
            "time": 75.46996855416714,
            "value": 0.968503937007874
          },
          {
            "number": 11,
            "time": 75.4878256895838,
            "value": 0.9763779527559056
          },
          {
            "number": 11,
            "time": 75.50568282500046,
            "value": 0.984251968503937
          },
          {
            "number": 11,
            "time": 75.52353996041712,
            "value": 0.9921259842519685
          },
          {
            "number": 11,
            "time": 75.59568278750046,
            "value": 1
          },
          {
            "number": 11,
            "time": 76.06139687916713,
            "value": 0.9921259842519685
          },
          {
            "number": 11,
            "time": 76.0792540145838,
            "value": 0.968503937007874
          },
          {
            "number": 11,
            "time": 76.09711115000046,
            "value": 0.937007874015748
          },
          {
            "number": 11,
            "time": 76.11496828541712,
            "value": 0.905511811023622
          },
          {
            "number": 11,
            "time": 76.13282542083378,
            "value": 0.8661417322834646
          },
          {
            "number": 11,
            "time": 76.15068255625044,
            "value": 0.8267716535433071
          },
          {
            "number": 11,
            "time": 76.17139683333377,
            "value": 0.7952755905511811
          },
          {
            "number": 11,
            "time": 76.18925396875044,
            "value": 0.7716535433070866
          },
          {
            "number": 11,
            "time": 76.2606825104171,
            "value": 0.7795275590551181
          },
          {
            "number": 11,
            "time": 76.27925393125044,
            "value": 0.8031496062992126
          },
          {
            "number": 11,
            "time": 76.2971110666671,
            "value": 0.84251968503937
          },
          {
            "number": 11,
            "time": 76.31496820208376,
            "value": 0.8740157480314961
          },
          {
            "number": 11,
            "time": 76.33282533750042,
            "value": 0.8976377952755905
          },
          {
            "number": 11,
            "time": 76.35068247291709,
            "value": 0.9212598425196851
          },
          {
            "number": 11,
            "time": 76.36853960833375,
            "value": 0.9448818897637795
          },
          {
            "number": 11,
            "time": 76.38639674375041,
            "value": 0.9606299212598425
          },
          {
            "number": 11,
            "time": 76.40425387916707,
            "value": 0.984251968503937
          },
          {
            "number": 11,
            "time": 76.42211101458373,
            "value": 0.9921259842519685
          },
          {
            "number": 11,
            "time": 76.4399681500004,
            "value": 1
          },
          {
            "number": 11,
            "time": 77.49925342291706,
            "value": 0.9921259842519685
          },
          {
            "number": 11,
            "time": 77.5178248437504,
            "value": 0.984251968503937
          },
          {
            "number": 11,
            "time": 77.53568197916707,
            "value": 0.9763779527559056
          },
          {
            "number": 11,
            "time": 77.55353911458373,
            "value": 0.968503937007874
          },
          {
            "number": 11,
            "time": 77.57139625000039,
            "value": 0.9448818897637795
          },
          {
            "number": 11,
            "time": 77.58925338541705,
            "value": 0.9212598425196851
          },
          {
            "number": 11,
            "time": 77.60711052083371,
            "value": 0.905511811023622
          },
          {
            "number": 11,
            "time": 77.62496765625038,
            "value": 0.8818897637795275
          },
          {
            "number": 11,
            "time": 77.64282479166704,
            "value": 0.8582677165354331
          },
          {
            "number": 11,
            "time": 77.6606819270837,
            "value": 0.84251968503937
          },
          {
            "number": 11,
            "time": 77.67853906250036,
            "value": 0.8188976377952756
          },
          {
            "number": 11,
            "time": 77.69639619791703,
            "value": 0.8031496062992126
          },
          {
            "number": 11,
            "time": 77.71425333333369,
            "value": 0.7874015748031497
          },
          {
            "number": 11,
            "time": 77.80425329583369,
            "value": 0.7952755905511811
          },
          {
            "number": 11,
            "time": 77.82211043125035,
            "value": 0.8110236220472441
          },
          {
            "number": 11,
            "time": 77.83996756666701,
            "value": 0.8267716535433071
          },
          {
            "number": 11,
            "time": 77.85782470208368,
            "value": 0.84251968503937
          },
          {
            "number": 11,
            "time": 77.87568183750034,
            "value": 0.8582677165354331
          },
          {
            "number": 11,
            "time": 77.893538972917,
            "value": 0.8818897637795275
          },
          {
            "number": 11,
            "time": 77.91139610833366,
            "value": 0.8976377952755905
          },
          {
            "number": 11,
            "time": 77.92925324375032,
            "value": 0.9212598425196851
          },
          {
            "number": 11,
            "time": 77.94711037916699,
            "value": 0.9291338582677166
          },
          {
            "number": 11,
            "time": 77.96496751458365,
            "value": 0.9448818897637795
          },
          {
            "number": 11,
            "time": 77.98282465000031,
            "value": 0.952755905511811
          },
          {
            "number": 11,
            "time": 78.00068178541697,
            "value": 0.968503937007874
          },
          {
            "number": 11,
            "time": 78.01853892083363,
            "value": 0.9763779527559056
          },
          {
            "number": 11,
            "time": 78.03711034166697,
            "value": 0.984251968503937
          },
          {
            "number": 11,
            "time": 78.05496747708364,
            "value": 0.9921259842519685
          },
          {
            "number": 11,
            "time": 78.25139596666698,
            "value": 1
          },
          {
            "number": 11,
            "time": 78.86353856875031,
            "value": 0.9921259842519685
          },
          {
            "number": 11,
            "time": 78.88139570416698,
            "value": 0.9606299212598425
          },
          {
            "number": 11,
            "time": 78.89925283958364,
            "value": 0.9291338582677166
          },
          {
            "number": 11,
            "time": 78.9171099750003,
            "value": 0.889763779527559
          },
          {
            "number": 11,
            "time": 78.93496711041696,
            "value": 0.8582677165354331
          },
          {
            "number": 11,
            "time": 78.95282424583363,
            "value": 0.8346456692913385
          },
          {
            "number": 11,
            "time": 78.97068138125029,
            "value": 0.8267716535433071
          },
          {
            "number": 11,
            "time": 78.98853851666695,
            "value": 0.8188976377952756
          },
          {
            "number": 11,
            "time": 79.00639565208361,
            "value": 0.8110236220472441
          },
          {
            "number": 11,
            "time": 79.06068134375028,
            "value": 0.8188976377952756
          },
          {
            "number": 11,
            "time": 79.07853847916694,
            "value": 0.8346456692913385
          },
          {
            "number": 11,
            "time": 79.0963956145836,
            "value": 0.8582677165354331
          },
          {
            "number": 11,
            "time": 79.11425275000026,
            "value": 0.8740157480314961
          },
          {
            "number": 11,
            "time": 79.13210988541692,
            "value": 0.8976377952755905
          },
          {
            "number": 11,
            "time": 79.14996702083359,
            "value": 0.9212598425196851
          },
          {
            "number": 11,
            "time": 79.16782415625025,
            "value": 0.952755905511811
          },
          {
            "number": 11,
            "time": 79.18568129166691,
            "value": 0.9763779527559056
          },
          {
            "number": 11,
            "time": 79.20353842708357,
            "value": 0.9921259842519685
          },
          {
            "number": 11,
            "time": 79.23925269791691,
            "value": 1
          },
          {
            "number": 11,
            "time": 79.88568100000025,
            "value": 0.6220472440944882
          },
          {
            "number": 11,
            "time": 79.88746671354191,
            "value": 0.6456692913385826
          },
          {
            "number": 11,
            "time": 79.89460956770859,
            "value": 0.6535433070866141
          },
          {
            "number": 11,
            "time": 79.89639528125025,
            "value": 0.6456692913385826
          },
          {
            "number": 11,
            "time": 80.04818093229191,
            "value": 0.9921259842519685
          },
          {
            "number": 11,
            "time": 80.05175235937524,
            "value": 0.984251968503937
          },
          {
            "number": 11,
            "time": 80.05353807291691,
            "value": 0.984251968503937
          },
          {
            "number": 11,
            "time": 80.05532378645857,
            "value": 0.9763779527559056
          },
          {
            "number": 11,
            "time": 80.05710950000024,
            "value": 0.984251968503937
          },
          {
            "number": 11,
            "time": 80.23389514062524,
            "value": 0.7637795275590551
          },
          {
            "number": 11,
            "time": 80.2356808541669,
            "value": 0.7559055118110236
          },
          {
            "number": 11,
            "time": 80.23746656770857,
            "value": 0.6299212598425197
          },
          {
            "number": 11,
            "time": 80.23925228125023,
            "value": 0.5196850393700787
          },
          {
            "number": 11,
            "time": 80.2410379947919,
            "value": 0.6299212598425197
          },
          {
            "number": 11,
            "time": 80.26068084375022,
            "value": 0.6299212598425197
          },
          {
            "number": 11,
            "time": 80.38746650520855,
            "value": 0.7637795275590551
          },
          {
            "number": 11,
            "time": 80.38925221875022,
            "value": 0.9921259842519685
          },
          {
            "number": 11,
            "time": 80.39282364583354,
            "value": 0.9921259842519685
          },
          {
            "number": 11,
            "time": 80.39460935937521,
            "value": 0.9921259842519685
          },
          {
            "number": 11,
            "time": 80.42425220416688,
            "value": 0.8976377952755905
          },
          {
            "number": 11,
            "time": 80.44210933958354,
            "value": 0.937007874015748
          },
          {
            "number": 11,
            "time": 80.4599664750002,
            "value": 0.9763779527559056
          },
          {
            "number": 11,
            "time": 80.47782361041686,
            "value": 0.984251968503937
          },
          {
            "number": 11,
            "time": 80.49568074583352,
            "value": 0.9921259842519685
          },
          {
            "number": 11,
            "time": 80.51353788125019,
            "value": 1
          },
          {
            "number": 11,
            "time": 81.78853735000018,
            "value": 0.968503937007874
          },
          {
            "number": 11,
            "time": 81.80639448541685,
            "value": 0.937007874015748
          },
          {
            "number": 11,
            "time": 81.82425162083351,
            "value": 0.8976377952755905
          },
          {
            "number": 11,
            "time": 81.84210875625017,
            "value": 0.8582677165354331
          },
          {
            "number": 11,
            "time": 81.85996589166683,
            "value": 0.8188976377952756
          },
          {
            "number": 11,
            "time": 81.8778230270835,
            "value": 0.7874015748031497
          },
          {
            "number": 11,
            "time": 81.89568016250016,
            "value": 0.7559055118110236
          },
          {
            "number": 11,
            "time": 81.91353729791682,
            "value": 0.7322834645669292
          },
          {
            "number": 11,
            "time": 81.93139443333348,
            "value": 0.7244094488188977
          },
          {
            "number": 11,
            "time": 82.00639440208349,
            "value": 0.7401574803149606
          },
          {
            "number": 11,
            "time": 82.02425153750015,
            "value": 0.7716535433070866
          },
          {
            "number": 11,
            "time": 82.04210867291681,
            "value": 0.7952755905511811
          },
          {
            "number": 11,
            "time": 82.05996580833347,
            "value": 0.8346456692913385
          },
          {
            "number": 11,
            "time": 82.07782294375014,
            "value": 0.8582677165354331
          },
          {
            "number": 11,
            "time": 82.0956800791668,
            "value": 0.889763779527559
          },
          {
            "number": 11,
            "time": 82.11353721458346,
            "value": 0.9133858267716536
          },
          {
            "number": 11,
            "time": 82.13139435000012,
            "value": 0.937007874015748
          },
          {
            "number": 11,
            "time": 82.14925148541678,
            "value": 0.9606299212598425
          },
          {
            "number": 11,
            "time": 82.16710862083345,
            "value": 0.9763779527559056
          },
          {
            "number": 11,
            "time": 82.18496575625011,
            "value": 0.984251968503937
          },
          {
            "number": 11,
            "time": 82.20282289166677,
            "value": 0.9921259842519685
          },
          {
            "number": 11,
            "time": 82.27496571875011,
            "value": 1
          },
          {
            "number": 11,
            "time": 83.08282252500011,
            "value": 0.9763779527559056
          },
          {
            "number": 11,
            "time": 83.10067966041677,
            "value": 0.9606299212598425
          },
          {
            "number": 11,
            "time": 83.11853679583344,
            "value": 0.9291338582677166
          },
          {
            "number": 11,
            "time": 83.1363939312501,
            "value": 0.8976377952755905
          },
          {
            "number": 11,
            "time": 83.15425106666676,
            "value": 0.8661417322834646
          },
          {
            "number": 11,
            "time": 83.17210820208342,
            "value": 0.8267716535433071
          },
          {
            "number": 11,
            "time": 83.18996533750008,
            "value": 0.7952755905511811
          },
          {
            "number": 11,
            "time": 83.20782247291675,
            "value": 0.7559055118110236
          },
          {
            "number": 11,
            "time": 83.22567960833341,
            "value": 0.7244094488188977
          },
          {
            "number": 11,
            "time": 83.24353674375007,
            "value": 0.6929133858267716
          },
          {
            "number": 11,
            "time": 83.26139387916673,
            "value": 0.6850393700787402
          },
          {
            "number": 11,
            "time": 83.2792510145834,
            "value": 0.6771653543307087
          },
          {
            "number": 11,
            "time": 83.35139384166672,
            "value": 0.6850393700787402
          },
          {
            "number": 11,
            "time": 83.36925097708338,
            "value": 0.7007874015748031
          },
          {
            "number": 11,
            "time": 83.38710811250004,
            "value": 0.7244094488188977
          },
          {
            "number": 11,
            "time": 83.4049652479167,
            "value": 0.7480314960629921
          },
          {
            "number": 11,
            "time": 83.42282238333337,
            "value": 0.7716535433070866
          },
          {
            "number": 11,
            "time": 83.44067951875003,
            "value": 0.8031496062992126
          },
          {
            "number": 11,
            "time": 83.45853665416669,
            "value": 0.8267716535433071
          },
          {
            "number": 11,
            "time": 83.47639378958335,
            "value": 0.8503937007874016
          },
          {
            "number": 11,
            "time": 83.49425092500002,
            "value": 0.8661417322834646
          },
          {
            "number": 11,
            "time": 83.51210806041668,
            "value": 0.8818897637795275
          },
          {
            "number": 11,
            "time": 83.52996519583334,
            "value": 0.889763779527559
          },
          {
            "number": 11,
            "time": 83.54782233125,
            "value": 0.905511811023622
          },
          {
            "number": 11,
            "time": 83.56567946666667,
            "value": 0.9212598425196851
          },
          {
            "number": 11,
            "time": 83.5842508875,
            "value": 0.9291338582677166
          },
          {
            "number": 11,
            "time": 83.60210802291667,
            "value": 0.937007874015748
          },
          {
            "number": 11,
            "time": 83.61996515833333,
            "value": 0.9448818897637795
          },
          {
            "number": 11,
            "time": 83.63782229374999,
            "value": 0.952755905511811
          },
          {
            "number": 11,
            "time": 83.65567942916665,
            "value": 0.9606299212598425
          },
          {
            "number": 11,
            "time": 83.69139369999999,
            "value": 0.968503937007874
          },
          {
            "number": 11,
            "time": 83.70925083541665,
            "value": 0.9763779527559056
          },
          {
            "number": 11,
            "time": 83.74496510624999,
            "value": 0.984251968503937
          },
          {
            "number": 11,
            "time": 83.76282224166665,
            "value": 0.9921259842519685
          },
          {
            "number": 11,
            "time": 83.94496502291665,
            "value": 1
          },
          {
            "number": 11,
            "time": 84.28496488124998,
            "value": 0.984251968503937
          },
          {
            "number": 11,
            "time": 84.30353630208332,
            "value": 0.9606299212598425
          },
          {
            "number": 11,
            "time": 84.32139343749998,
            "value": 0.9291338582677166
          },
          {
            "number": 11,
            "time": 84.33925057291664,
            "value": 0.905511811023622
          },
          {
            "number": 11,
            "time": 84.3571077083333,
            "value": 0.8740157480314961
          },
          {
            "number": 11,
            "time": 84.37496484374996,
            "value": 0.8503937007874016
          },
          {
            "number": 11,
            "time": 84.39282197916663,
            "value": 0.8188976377952756
          },
          {
            "number": 11,
            "time": 84.41067911458329,
            "value": 0.7952755905511811
          },
          {
            "number": 11,
            "time": 84.42853624999995,
            "value": 0.7795275590551181
          },
          {
            "number": 11,
            "time": 84.44639338541661,
            "value": 0.7559055118110236
          },
          {
            "number": 11,
            "time": 84.46425052083328,
            "value": 0.7244094488188977
          },
          {
            "number": 11,
            "time": 84.48353622708328,
            "value": 0.7007874015748031
          },
          {
            "number": 11,
            "time": 84.50139336249994,
            "value": 0.6771653543307087
          },
          {
            "number": 11,
            "time": 84.5192504979166,
            "value": 0.6692913385826772
          },
          {
            "number": 11,
            "time": 84.53710763333326,
            "value": 0.6614173228346457
          },
          {
            "number": 11,
            "time": 84.55496476874993,
            "value": 0.6535433070866141
          },
          {
            "number": 11,
            "time": 84.62639331041659,
            "value": 0.6692913385826772
          },
          {
            "number": 11,
            "time": 84.64425044583325,
            "value": 0.6929133858267716
          },
          {
            "number": 11,
            "time": 84.66210758124991,
            "value": 0.7244094488188977
          },
          {
            "number": 11,
            "time": 84.67996471666657,
            "value": 0.7559055118110236
          },
          {
            "number": 11,
            "time": 84.69782185208324,
            "value": 0.7874015748031497
          },
          {
            "number": 11,
            "time": 84.71639327291658,
            "value": 0.8110236220472441
          },
          {
            "number": 11,
            "time": 84.73425040833324,
            "value": 0.8346456692913385
          },
          {
            "number": 11,
            "time": 84.7521075437499,
            "value": 0.84251968503937
          },
          {
            "number": 11,
            "time": 84.76996467916656,
            "value": 0.8661417322834646
          },
          {
            "number": 11,
            "time": 84.78782181458322,
            "value": 0.8818897637795275
          },
          {
            "number": 11,
            "time": 84.80567894999989,
            "value": 0.889763779527559
          },
          {
            "number": 11,
            "time": 84.82353608541655,
            "value": 0.905511811023622
          },
          {
            "number": 11,
            "time": 84.84139322083321,
            "value": 0.9133858267716536
          },
          {
            "number": 11,
            "time": 84.85925035624987,
            "value": 0.9212598425196851
          },
          {
            "number": 11,
            "time": 84.87710749166654,
            "value": 0.9291338582677166
          },
          {
            "number": 11,
            "time": 84.8949646270832,
            "value": 0.937007874015748
          },
          {
            "number": 11,
            "time": 84.91282176249986,
            "value": 0.9448818897637795
          },
          {
            "number": 11,
            "time": 84.96639316874986,
            "value": 0.952755905511811
          },
          {
            "number": 11,
            "time": 85.00282172499986,
            "value": 0.9606299212598425
          },
          {
            "number": 11,
            "time": 85.02067886041652,
            "value": 0.968503937007874
          },
          {
            "number": 11,
            "time": 85.05925027291653,
            "value": 0.9763779527559056
          },
          {
            "number": 11,
            "time": 85.07710740833319,
            "value": 0.984251968503937
          },
          {
            "number": 11,
            "time": 85.09496454374985,
            "value": 0.9921259842519685
          },
          {
            "number": 11,
            "time": 85.13067881458319,
            "value": 1
          },
          {
            "number": 11,
            "time": 85.75782141041653,
            "value": 0.9921259842519685
          },
          {
            "number": 11,
            "time": 85.77567854583319,
            "value": 0.9763779527559056
          },
          {
            "number": 11,
            "time": 85.79353568124985,
            "value": 0.9606299212598425
          },
          {
            "number": 11,
            "time": 85.81139281666651,
            "value": 0.9448818897637795
          },
          {
            "number": 11,
            "time": 85.82924995208317,
            "value": 0.937007874015748
          },
          {
            "number": 11,
            "time": 85.84710708749984,
            "value": 0.9291338582677166
          },
          {
            "number": 11,
            "time": 85.99067845624984,
            "value": 0.9448818897637795
          },
          {
            "number": 11,
            "time": 86.0085355916665,
            "value": 0.9606299212598425
          },
          {
            "number": 11,
            "time": 86.02639272708316,
            "value": 0.984251968503937
          },
          {
            "number": 11,
            "time": 86.04424986249983,
            "value": 0.9921259842519685
          },
          {
            "number": 11,
            "time": 86.09782126874983,
            "value": 1
          },
          {
            "number": 11,
            "time": 86.88853522499983,
            "value": 0.9921259842519685
          },
          {
            "number": 11,
            "time": 86.90639236041649,
            "value": 0.984251968503937
          },
          {
            "number": 11,
            "time": 86.92424949583315,
            "value": 0.9763779527559056
          },
          {
            "number": 11,
            "time": 86.94210663124981,
            "value": 0.9606299212598425
          },
          {
            "number": 11,
            "time": 86.96067805208315,
            "value": 0.9448818897637795
          },
          {
            "number": 11,
            "time": 86.97853518749982,
            "value": 0.9291338582677166
          },
          {
            "number": 11,
            "time": 86.99639232291648,
            "value": 0.9212598425196851
          },
          {
            "number": 11,
            "time": 87.01424945833314,
            "value": 0.9133858267716536
          },
          {
            "number": 11,
            "time": 87.0321065937498,
            "value": 0.905511811023622
          },
          {
            "number": 11,
            "time": 87.04996372916646,
            "value": 0.8818897637795275
          },
          {
            "number": 11,
            "time": 87.06782086458313,
            "value": 0.8740157480314961
          },
          {
            "number": 11,
            "time": 87.08567799999979,
            "value": 0.8661417322834646
          },
          {
            "number": 11,
            "time": 87.10353513541645,
            "value": 0.8582677165354331
          },
          {
            "number": 11,
            "time": 87.12139227083311,
            "value": 0.84251968503937
          },
          {
            "number": 11,
            "time": 87.13924940624977,
            "value": 0.8346456692913385
          },
          {
            "number": 11,
            "time": 87.24710650416644,
            "value": 0.84251968503937
          },
          {
            "number": 11,
            "time": 87.2649636395831,
            "value": 0.8582677165354331
          },
          {
            "number": 11,
            "time": 87.28282077499976,
            "value": 0.8740157480314961
          },
          {
            "number": 11,
            "time": 87.30067791041643,
            "value": 0.889763779527559
          },
          {
            "number": 11,
            "time": 87.31853504583309,
            "value": 0.905511811023622
          },
          {
            "number": 11,
            "time": 87.33639218124975,
            "value": 0.9212598425196851
          },
          {
            "number": 11,
            "time": 87.35424931666641,
            "value": 0.937007874015748
          },
          {
            "number": 11,
            "time": 87.37282073749975,
            "value": 0.952755905511811
          },
          {
            "number": 11,
            "time": 87.38996358749975,
            "value": 0.9606299212598425
          },
          {
            "number": 11,
            "time": 87.40782072291641,
            "value": 0.9763779527559056
          },
          {
            "number": 11,
            "time": 87.42639214374975,
            "value": 0.984251968503937
          },
          {
            "number": 11,
            "time": 87.44353499374975,
            "value": 0.9921259842519685
          },
          {
            "number": 11,
            "time": 87.58710636249975,
            "value": 1
          }
        ],
        "32": [
          {
            "number": 32,
            "time": 0.9714281666666668,
            "value": 0
          }
        ],
        "100": [
          {
            "number": 100,
            "time": 0.9714281666666668,
            "value": 0
          }
        ],
        "101": [
          {
            "number": 101,
            "time": 0.9714281666666668,
            "value": 0
          }
        ]
      },
      "id": 16,
      "instrumentNumber": 48,
      "instrument": "string ensemble 1",
      "instrumentFamily": "ensemble",
      "channelNumber": 15,
      "isPercussion": false
    }
  ]
}