{
  "header": {
    "PPQ": 96,
    "timeSignature": [
      4,
      4
    ],
    "bpm": 119.5000119500012,
    "name": ""
  },
  "startTime": 0,
  "duration": 108.45187199999864,
  "tracks": [
    {
      "startTime": 0,
      "duration": 0,
      "length": 0,
      "notes": [],
      "controlChanges": {},
      "id": 0
    },
    {
      "startTime": 0,
      "duration": 0,
      "length": 0,
      "notes": [],
      "controlChanges": {},
      "id": 1
    },
    {
      "startTime": 0,
      "duration": 85.66944749999844,
      "length": 358,
      "notes": [
        {
          "name": "A#2",
          "midi": 46,
          "time": 0,
          "velocity": 0.7874015748031497,
          "duration": 0.0627615
        },
        {
          "name": "C#3",
          "midi": 49,
          "time": 0.125523,
          "velocity": 0.7874015748031497,
          "duration": 0.0627615
        },
        {
          "name": "C3",
          "midi": 48,
          "time": 0.251046,
          "velocity": 0.7874015748031497,
          "duration": 0.06276150000000003
        },
        {
          "name": "C#3",
          "midi": 49,
          "time": 0.37656900000000004,
          "velocity": 0.7874015748031497,
          "duration": 0.06276150000000003
        },
        {
          "name": "A#2",
          "midi": 46,
          "time": 0.5020920000000001,
          "velocity": 0.7874015748031497,
          "duration": 0.06276150000000003
        },
        {
          "name": "A#2",
          "midi": 46,
          "time": 0.7531380000000001,
          "velocity": 0.7874015748031497,
          "duration": 0.06276150000000003
        },
        {
          "name": "C3",
          "midi": 48,
          "time": 0.8786610000000001,
          "velocity": 0.7874015748031497,
          "duration": 0.06276150000000003
        },
        {
          "name": "C#3",
          "midi": 49,
          "time": 1.0041840000000002,
          "velocity": 0.7874015748031497,
          "duration": 0.06276149999999991
        },
        {
          "name": "G#3",
          "midi": 56,
          "time": 1.129707,
          "velocity": 0.7874015748031497,
          "duration": 0.06276149999999991
        },
        {
          "name": "F3",
          "midi": 53,
          "time": 1.2552299999999998,
          "velocity": 0.7874015748031497,
          "duration": 0.06276149999999991
        },
        {
          "name": "A#2",
          "midi": 46,
          "time": 1.5062759999999997,
          "velocity": 0.7874015748031497,
          "duration": 0.06276149999999991
        },
        {
          "name": "C#3",
          "midi": 49,
          "time": 1.6317989999999996,
          "velocity": 0.7874015748031497,
          "duration": 0.06276149999999991
        },
        {
          "name": "C3",
          "midi": 48,
          "time": 1.7573219999999994,
          "velocity": 0.7874015748031497,
          "duration": 0.06276149999999991
        },
        {
          "name": "C#3",
          "midi": 49,
          "time": 1.8828449999999992,
          "velocity": 0.7874015748031497,
          "duration": 0.06276149999999991
        },
        {
          "name": "A#2",
          "midi": 46,
          "time": 2.008367999999999,
          "velocity": 0.7874015748031497,
          "duration": 0.06276150000000014
        },
        {
          "name": "A#2",
          "midi": 46,
          "time": 2.259413999999999,
          "velocity": 0.7874015748031497,
          "duration": 0.06276150000000014
        },
        {
          "name": "C3",
          "midi": 48,
          "time": 2.3849369999999994,
          "velocity": 0.7874015748031497,
          "duration": 0.06276150000000014
        },
        {
          "name": "C#3",
          "midi": 49,
          "time": 2.5104599999999997,
          "velocity": 0.7874015748031497,
          "duration": 0.06276150000000014
        },
        {
          "name": "G#3",
          "midi": 56,
          "time": 2.635983,
          "velocity": 0.7874015748031497,
          "duration": 0.06276150000000014
        },
        {
          "name": "F3",
          "midi": 53,
          "time": 2.7615060000000002,
          "velocity": 0.7874015748031497,
          "duration": 0.06276150000000014
        },
        {
          "name": "A#2",
          "midi": 46,
          "time": 3.0125520000000003,
          "velocity": 0.7874015748031497,
          "duration": 0.06276150000000014
        },
        {
          "name": "C#3",
          "midi": 49,
          "time": 3.1380750000000006,
          "velocity": 0.7874015748031497,
          "duration": 0.06276150000000014
        },
        {
          "name": "C3",
          "midi": 48,
          "time": 3.263598000000001,
          "velocity": 0.7874015748031497,
          "duration": 0.06276150000000014
        },
        {
          "name": "C#3",
          "midi": 49,
          "time": 3.389121000000001,
          "velocity": 0.7874015748031497,
          "duration": 0.06276150000000014
        },
        {
          "name": "A#2",
          "midi": 46,
          "time": 3.5146440000000014,
          "velocity": 0.7874015748031497,
          "duration": 0.06276150000000014
        },
        {
          "name": "A#2",
          "midi": 46,
          "time": 3.7656900000000015,
          "velocity": 0.7874015748031497,
          "duration": 0.06276150000000014
        },
        {
          "name": "C3",
          "midi": 48,
          "time": 3.891213000000002,
          "velocity": 0.7874015748031497,
          "duration": 0.06276150000000014
        },
        {
          "name": "C#3",
          "midi": 49,
          "time": 4.016736000000002,
          "velocity": 0.7874015748031497,
          "duration": 0.06276149999999969
        },
        {
          "name": "G#3",
          "midi": 56,
          "time": 4.142259000000001,
          "velocity": 0.7874015748031497,
          "duration": 0.06276149999999969
        },
        {
          "name": "F3",
          "midi": 53,
          "time": 4.267782,
          "velocity": 0.7874015748031497,
          "duration": 0.06276149999999969
        },
        {
          "name": "D#2",
          "midi": 39,
          "time": 4.518828,
          "velocity": 0.7874015748031497,
          "duration": 0.06276149999999969
        },
        {
          "name": "G#2",
          "midi": 44,
          "time": 4.769874,
          "velocity": 0.7874015748031497,
          "duration": 0.06276149999999969
        },
        {
          "name": "C3",
          "midi": 48,
          "time": 5.020919999999999,
          "velocity": 0.7874015748031497,
          "duration": 0.06276149999999969
        },
        {
          "name": "D#3",
          "midi": 51,
          "time": 5.271965999999999,
          "velocity": 0.7874015748031497,
          "duration": 0.06276149999999969
        },
        {
          "name": "G#2",
          "midi": 44,
          "time": 5.523011999999999,
          "velocity": 0.7874015748031497,
          "duration": 0.06276149999999969
        },
        {
          "name": "F2",
          "midi": 41,
          "time": 5.648534999999998,
          "velocity": 0.7874015748031497,
          "duration": 0.06276149999999969
        },
        {
          "name": "F3",
          "midi": 53,
          "time": 5.7740579999999975,
          "velocity": 0.7874015748031497,
          "duration": 0.06276149999999969
        },
        {
          "name": "C3",
          "midi": 48,
          "time": 5.899580999999997,
          "velocity": 0.7874015748031497,
          "duration": 0.06276149999999969
        },
        {
          "name": "A#2",
          "midi": 46,
          "time": 6.025103999999996,
          "velocity": 0.7874015748031497,
          "duration": 0.06276149999999969
        },
        {
          "name": "C#3",
          "midi": 49,
          "time": 6.150626999999996,
          "velocity": 0.7874015748031497,
          "duration": 0.06276149999999969
        },
        {
          "name": "C3",
          "midi": 48,
          "time": 6.276149999999995,
          "velocity": 0.7874015748031497,
          "duration": 0.06276149999999969
        },
        {
          "name": "C#3",
          "midi": 49,
          "time": 6.401672999999994,
          "velocity": 0.7874015748031497,
          "duration": 0.06276149999999969
        },
        {
          "name": "A#2",
          "midi": 46,
          "time": 6.527195999999994,
          "velocity": 0.7874015748031497,
          "duration": 0.06276149999999969
        },
        {
          "name": "A#2",
          "midi": 46,
          "time": 6.778241999999993,
          "velocity": 0.7874015748031497,
          "duration": 0.06276149999999969
        },
        {
          "name": "C3",
          "midi": 48,
          "time": 6.903764999999993,
          "velocity": 0.7874015748031497,
          "duration": 0.06276149999999969
        },
        {
          "name": "C#3",
          "midi": 49,
          "time": 7.029287999999992,
          "velocity": 0.7874015748031497,
          "duration": 0.06276149999999969
        },
        {
          "name": "G#3",
          "midi": 56,
          "time": 7.154810999999992,
          "velocity": 0.7874015748031497,
          "duration": 0.06276149999999969
        },
        {
          "name": "F3",
          "midi": 53,
          "time": 7.280333999999991,
          "velocity": 0.7874015748031497,
          "duration": 0.06276149999999969
        },
        {
          "name": "A#2",
          "midi": 46,
          "time": 7.531379999999991,
          "velocity": 0.7874015748031497,
          "duration": 0.06276149999999969
        },
        {
          "name": "C#3",
          "midi": 49,
          "time": 7.65690299999999,
          "velocity": 0.7874015748031497,
          "duration": 0.06276149999999969
        },
        {
          "name": "C3",
          "midi": 48,
          "time": 7.782425999999989,
          "velocity": 0.7874015748031497,
          "duration": 0.06276149999999969
        },
        {
          "name": "C#3",
          "midi": 49,
          "time": 7.907948999999989,
          "velocity": 0.7874015748031497,
          "duration": 0.06276149999999969
        },
        {
          "name": "A#2",
          "midi": 46,
          "time": 8.033471999999989,
          "velocity": 0.7874015748031497,
          "duration": 0.06276150000000058
        },
        {
          "name": "A#2",
          "midi": 46,
          "time": 8.28451799999999,
          "velocity": 0.7874015748031497,
          "duration": 0.06276150000000058
        },
        {
          "name": "C3",
          "midi": 48,
          "time": 8.41004099999999,
          "velocity": 0.7874015748031497,
          "duration": 0.06276150000000058
        },
        {
          "name": "C#3",
          "midi": 49,
          "time": 8.535563999999992,
          "velocity": 0.7874015748031497,
          "duration": 0.06276150000000058
        },
        {
          "name": "G#3",
          "midi": 56,
          "time": 8.661086999999993,
          "velocity": 0.7874015748031497,
          "duration": 0.06276150000000058
        },
        {
          "name": "F3",
          "midi": 53,
          "time": 8.786609999999994,
          "velocity": 0.7874015748031497,
          "duration": 0.06276150000000058
        },
        {
          "name": "A#2",
          "midi": 46,
          "time": 9.037655999999995,
          "velocity": 0.7874015748031497,
          "duration": 0.06276150000000058
        },
        {
          "name": "C#3",
          "midi": 49,
          "time": 9.163178999999996,
          "velocity": 0.7874015748031497,
          "duration": 0.06276150000000058
        },
        {
          "name": "C3",
          "midi": 48,
          "time": 9.288701999999997,
          "velocity": 0.7874015748031497,
          "duration": 0.06276150000000058
        },
        {
          "name": "C#3",
          "midi": 49,
          "time": 9.414224999999998,
          "velocity": 0.7874015748031497,
          "duration": 0.06276150000000058
        },
        {
          "name": "A#2",
          "midi": 46,
          "time": 9.539748,
          "velocity": 0.7874015748031497,
          "duration": 0.06276150000000058
        },
        {
          "name": "A#2",
          "midi": 46,
          "time": 9.790794,
          "velocity": 0.7874015748031497,
          "duration": 0.06276150000000058
        },
        {
          "name": "C3",
          "midi": 48,
          "time": 9.916317000000001,
          "velocity": 0.7874015748031497,
          "duration": 0.06276150000000058
        },
        {
          "name": "C#3",
          "midi": 49,
          "time": 10.041840000000002,
          "velocity": 0.7874015748031497,
          "duration": 0.06276150000000058
        },
        {
          "name": "G#3",
          "midi": 56,
          "time": 10.167363000000003,
          "velocity": 0.7874015748031497,
          "duration": 0.06276150000000058
        },
        {
          "name": "F3",
          "midi": 53,
          "time": 10.292886000000005,
          "velocity": 0.7874015748031497,
          "duration": 0.06276150000000058
        },
        {
          "name": "A#3",
          "midi": 58,
          "time": 18.075312000000004,
          "velocity": 0.7874015748031497,
          "duration": 0.06276150000000058
        },
        {
          "name": "C#4",
          "midi": 61,
          "time": 18.200835000000005,
          "velocity": 0.7874015748031497,
          "duration": 0.06276150000000058
        },
        {
          "name": "C4",
          "midi": 60,
          "time": 18.326358000000006,
          "velocity": 0.7874015748031497,
          "duration": 0.06276150000000058
        },
        {
          "name": "C#4",
          "midi": 61,
          "time": 18.451881000000007,
          "velocity": 0.7874015748031497,
          "duration": 0.06276150000000058
        },
        {
          "name": "A#3",
          "midi": 58,
          "time": 18.57740400000001,
          "velocity": 0.7874015748031497,
          "duration": 0.06276150000000058
        },
        {
          "name": "A#3",
          "midi": 58,
          "time": 18.82845000000001,
          "velocity": 0.7874015748031497,
          "duration": 0.06276150000000058
        },
        {
          "name": "C4",
          "midi": 60,
          "time": 18.953973000000012,
          "velocity": 0.7874015748031497,
          "duration": 0.06276150000000058
        },
        {
          "name": "C#4",
          "midi": 61,
          "time": 19.079496000000013,
          "velocity": 0.7874015748031497,
          "duration": 0.06276150000000058
        },
        {
          "name": "G#4",
          "midi": 68,
          "time": 19.205019000000014,
          "velocity": 0.7874015748031497,
          "duration": 0.06276150000000058
        },
        {
          "name": "F4",
          "midi": 65,
          "time": 19.330542000000015,
          "velocity": 0.7874015748031497,
          "duration": 0.06276150000000058
        },
        {
          "name": "A#3",
          "midi": 58,
          "time": 19.581588000000018,
          "velocity": 0.7874015748031497,
          "duration": 0.06276150000000058
        },
        {
          "name": "C#4",
          "midi": 61,
          "time": 19.70711100000002,
          "velocity": 0.7874015748031497,
          "duration": 0.06276150000000058
        },
        {
          "name": "C4",
          "midi": 60,
          "time": 19.83263400000002,
          "velocity": 0.7874015748031497,
          "duration": 0.06276150000000058
        },
        {
          "name": "C#4",
          "midi": 61,
          "time": 19.95815700000002,
          "velocity": 0.7874015748031497,
          "duration": 0.06276150000000058
        },
        {
          "name": "A#3",
          "midi": 58,
          "time": 20.083680000000022,
          "velocity": 0.7874015748031497,
          "duration": 0.06276150000000058
        },
        {
          "name": "A#3",
          "midi": 58,
          "time": 20.334726000000025,
          "velocity": 0.7874015748031497,
          "duration": 0.06276150000000058
        },
        {
          "name": "C4",
          "midi": 60,
          "time": 20.460249000000026,
          "velocity": 0.7874015748031497,
          "duration": 0.06276150000000058
        },
        {
          "name": "C#4",
          "midi": 61,
          "time": 20.585772000000027,
          "velocity": 0.7874015748031497,
          "duration": 0.06276150000000058
        },
        {
          "name": "G#4",
          "midi": 68,
          "time": 20.711295000000028,
          "velocity": 0.7874015748031497,
          "duration": 0.06276150000000058
        },
        {
          "name": "F4",
          "midi": 65,
          "time": 20.83681800000003,
          "velocity": 0.7874015748031497,
          "duration": 0.06276150000000058
        },
        {
          "name": "A#3",
          "midi": 58,
          "time": 21.08786400000003,
          "velocity": 0.7874015748031497,
          "duration": 0.06276150000000058
        },
        {
          "name": "C#4",
          "midi": 61,
          "time": 21.213387000000033,
          "velocity": 0.7874015748031497,
          "duration": 0.06276150000000058
        },
        {
          "name": "C4",
          "midi": 60,
          "time": 21.338910000000034,
          "velocity": 0.7874015748031497,
          "duration": 0.06276150000000058
        },
        {
          "name": "C#4",
          "midi": 61,
          "time": 21.464433000000035,
          "velocity": 0.7874015748031497,
          "duration": 0.06276150000000058
        },
        {
          "name": "A#3",
          "midi": 58,
          "time": 21.589956000000036,
          "velocity": 0.7874015748031497,
          "duration": 0.06276150000000058
        },
        {
          "name": "A#3",
          "midi": 58,
          "time": 21.84100200000004,
          "velocity": 0.7874015748031497,
          "duration": 0.06276150000000058
        },
        {
          "name": "C4",
          "midi": 60,
          "time": 21.96652500000004,
          "velocity": 0.7874015748031497,
          "duration": 0.06276150000000058
        },
        {
          "name": "C#4",
          "midi": 61,
          "time": 22.09204800000004,
          "velocity": 0.7874015748031497,
          "duration": 0.06276150000000058
        },
        {
          "name": "G#4",
          "midi": 68,
          "time": 22.217571000000042,
          "velocity": 0.7874015748031497,
          "duration": 0.06276150000000058
        },
        {
          "name": "F4",
          "midi": 65,
          "time": 22.343094000000043,
          "velocity": 0.7874015748031497,
          "duration": 0.06276150000000058
        },
        {
          "name": "G#3",
          "midi": 56,
          "time": 22.845186000000044,
          "velocity": 0.6929133858267716,
          "duration": 0.06276150000000058
        },
        {
          "name": "C4",
          "midi": 60,
          "time": 23.096232000000047,
          "velocity": 0.6929133858267716,
          "duration": 0.06276150000000058
        },
        {
          "name": "D#4",
          "midi": 63,
          "time": 23.34727800000005,
          "velocity": 0.6929133858267716,
          "duration": 0.06276150000000058
        },
        {
          "name": "G#3",
          "midi": 56,
          "time": 23.59832400000005,
          "velocity": 0.6929133858267716,
          "duration": 0.06276150000000058
        },
        {
          "name": "F3",
          "midi": 53,
          "time": 23.723847000000053,
          "velocity": 0.6929133858267716,
          "duration": 0.06276150000000058
        },
        {
          "name": "F4",
          "midi": 65,
          "time": 23.849370000000054,
          "velocity": 0.6929133858267716,
          "duration": 0.06276150000000058
        },
        {
          "name": "C4",
          "midi": 60,
          "time": 23.974893000000055,
          "velocity": 0.6929133858267716,
          "duration": 0.06276150000000058
        },
        {
          "name": "A#3",
          "midi": 58,
          "time": 24.100416000000056,
          "velocity": 0.7874015748031497,
          "duration": 0.06276150000000058
        },
        {
          "name": "C#4",
          "midi": 61,
          "time": 24.225939000000057,
          "velocity": 0.7874015748031497,
          "duration": 0.06276150000000058
        },
        {
          "name": "C4",
          "midi": 60,
          "time": 24.35146200000006,
          "velocity": 0.7874015748031497,
          "duration": 0.06276150000000058
        },
        {
          "name": "C#4",
          "midi": 61,
          "time": 24.47698500000006,
          "velocity": 0.7874015748031497,
          "duration": 0.06276150000000058
        },
        {
          "name": "A#3",
          "midi": 58,
          "time": 24.60250800000006,
          "velocity": 0.7874015748031497,
          "duration": 0.06276150000000058
        },
        {
          "name": "A#3",
          "midi": 58,
          "time": 24.853554000000063,
          "velocity": 0.7874015748031497,
          "duration": 0.06276150000000058
        },
        {
          "name": "C4",
          "midi": 60,
          "time": 24.979077000000064,
          "velocity": 0.7874015748031497,
          "duration": 0.06276150000000058
        },
        {
          "name": "C#4",
          "midi": 61,
          "time": 25.104600000000065,
          "velocity": 0.7874015748031497,
          "duration": 0.06276150000000058
        },
        {
          "name": "G#4",
          "midi": 68,
          "time": 25.230123000000066,
          "velocity": 0.7874015748031497,
          "duration": 0.06276150000000058
        },
        {
          "name": "F4",
          "midi": 65,
          "time": 25.355646000000068,
          "velocity": 0.7874015748031497,
          "duration": 0.06276150000000058
        },
        {
          "name": "A#3",
          "midi": 58,
          "time": 25.60669200000007,
          "velocity": 0.7874015748031497,
          "duration": 0.06276150000000058
        },
        {
          "name": "C#4",
          "midi": 61,
          "time": 25.73221500000007,
          "velocity": 0.7874015748031497,
          "duration": 0.06276150000000058
        },
        {
          "name": "C4",
          "midi": 60,
          "time": 25.857738000000072,
          "velocity": 0.7874015748031497,
          "duration": 0.06276150000000058
        },
        {
          "name": "C#4",
          "midi": 61,
          "time": 25.983261000000073,
          "velocity": 0.7874015748031497,
          "duration": 0.06276150000000058
        },
        {
          "name": "A#3",
          "midi": 58,
          "time": 26.108784000000075,
          "velocity": 0.7874015748031497,
          "duration": 0.06276150000000058
        },
        {
          "name": "A#3",
          "midi": 58,
          "time": 26.359830000000077,
          "velocity": 0.7874015748031497,
          "duration": 0.06276150000000058
        },
        {
          "name": "C4",
          "midi": 60,
          "time": 26.485353000000078,
          "velocity": 0.7874015748031497,
          "duration": 0.06276150000000058
        },
        {
          "name": "C#4",
          "midi": 61,
          "time": 26.61087600000008,
          "velocity": 0.7874015748031497,
          "duration": 0.06276150000000058
        },
        {
          "name": "G#4",
          "midi": 68,
          "time": 26.73639900000008,
          "velocity": 0.7874015748031497,
          "duration": 0.06276150000000058
        },
        {
          "name": "F4",
          "midi": 65,
          "time": 26.86192200000008,
          "velocity": 0.7874015748031497,
          "duration": 0.06276150000000058
        },
        {
          "name": "D#4",
          "midi": 63,
          "time": 27.112968000000084,
          "velocity": 0.7874015748031497,
          "duration": 0.06276150000000058
        },
        {
          "name": "F4",
          "midi": 65,
          "time": 27.238491000000085,
          "velocity": 0.7874015748031497,
          "duration": 0.06276150000000058
        },
        {
          "name": "G#4",
          "midi": 68,
          "time": 27.364014000000086,
          "velocity": 0.7874015748031497,
          "duration": 0.06276150000000058
        },
        {
          "name": "A#4",
          "midi": 70,
          "time": 27.489537000000087,
          "velocity": 0.7874015748031497,
          "duration": 0.06276150000000058
        },
        {
          "name": "C5",
          "midi": 72,
          "time": 27.61506000000009,
          "velocity": 0.7874015748031497,
          "duration": 0.06276150000000058
        },
        {
          "name": "C#5",
          "midi": 73,
          "time": 27.74058300000009,
          "velocity": 0.7874015748031497,
          "duration": 0.06276150000000058
        },
        {
          "name": "D#5",
          "midi": 75,
          "time": 27.86610600000009,
          "velocity": 0.7874015748031497,
          "duration": 0.06276150000000058
        },
        {
          "name": "C#5",
          "midi": 73,
          "time": 27.991629000000092,
          "velocity": 0.7874015748031497,
          "duration": 0.06276150000000058
        },
        {
          "name": "C5",
          "midi": 72,
          "time": 28.117152000000093,
          "velocity": 0.7874015748031497,
          "duration": 0.06276150000000058
        },
        {
          "name": "A#4",
          "midi": 70,
          "time": 28.242675000000094,
          "velocity": 0.7874015748031497,
          "duration": 0.06276150000000058
        },
        {
          "name": "G#4",
          "midi": 68,
          "time": 28.368198000000096,
          "velocity": 0.7559055118110236,
          "duration": 0.06276150000000058
        },
        {
          "name": "F4",
          "midi": 65,
          "time": 28.493721000000097,
          "velocity": 0.7244094488188977,
          "duration": 0.06276150000000058
        },
        {
          "name": "D#4",
          "midi": 63,
          "time": 28.619244000000098,
          "velocity": 0.6929133858267716,
          "duration": 0.06276150000000058
        },
        {
          "name": "B2",
          "midi": 47,
          "time": 51.2133840000001,
          "velocity": 0.7874015748031497,
          "duration": 0.06276150000000058
        },
        {
          "name": "D#3",
          "midi": 51,
          "time": 51.3389070000001,
          "velocity": 0.7874015748031497,
          "duration": 0.06276150000000058
        },
        {
          "name": "C#3",
          "midi": 49,
          "time": 51.4644300000001,
          "velocity": 0.7874015748031497,
          "duration": 0.06276150000000058
        },
        {
          "name": "D#3",
          "midi": 51,
          "time": 51.5899530000001,
          "velocity": 0.7874015748031497,
          "duration": 0.06276150000000058
        },
        {
          "name": "B2",
          "midi": 47,
          "time": 51.7154760000001,
          "velocity": 0.7874015748031497,
          "duration": 0.06276150000000058
        },
        {
          "name": "B2",
          "midi": 47,
          "time": 51.966522000000104,
          "velocity": 0.7874015748031497,
          "duration": 0.06276150000000058
        },
        {
          "name": "C#3",
          "midi": 49,
          "time": 52.092045000000105,
          "velocity": 0.7874015748031497,
          "duration": 0.06276150000000058
        },
        {
          "name": "D#3",
          "midi": 51,
          "time": 52.21756800000011,
          "velocity": 0.7874015748031497,
          "duration": 0.06276150000000058
        },
        {
          "name": "B3",
          "midi": 59,
          "time": 52.34309100000011,
          "velocity": 0.7874015748031497,
          "duration": 0.06276150000000058
        },
        {
          "name": "F#3",
          "midi": 54,
          "time": 52.46861400000011,
          "velocity": 0.7874015748031497,
          "duration": 0.06276150000000058
        },
        {
          "name": "B2",
          "midi": 47,
          "time": 52.71966000000011,
          "velocity": 0.7874015748031497,
          "duration": 0.06276150000000058
        },
        {
          "name": "D#3",
          "midi": 51,
          "time": 52.84518300000011,
          "velocity": 0.7874015748031497,
          "duration": 0.06276150000000058
        },
        {
          "name": "C#3",
          "midi": 49,
          "time": 52.97070600000011,
          "velocity": 0.7874015748031497,
          "duration": 0.06276150000000058
        },
        {
          "name": "D#3",
          "midi": 51,
          "time": 53.096229000000115,
          "velocity": 0.7874015748031497,
          "duration": 0.06276150000000058
        },
        {
          "name": "B2",
          "midi": 47,
          "time": 53.221752000000116,
          "velocity": 0.7874015748031497,
          "duration": 0.06276150000000058
        },
        {
          "name": "B2",
          "midi": 47,
          "time": 53.47279800000012,
          "velocity": 0.7874015748031497,
          "duration": 0.06276150000000058
        },
        {
          "name": "C#3",
          "midi": 49,
          "time": 53.59832100000012,
          "velocity": 0.7874015748031497,
          "duration": 0.06276150000000058
        },
        {
          "name": "D#3",
          "midi": 51,
          "time": 53.72384400000012,
          "velocity": 0.7874015748031497,
          "duration": 0.06276150000000058
        },
        {
          "name": "B3",
          "midi": 59,
          "time": 53.84936700000012,
          "velocity": 0.7874015748031497,
          "duration": 0.06276150000000058
        },
        {
          "name": "F#3",
          "midi": 54,
          "time": 53.97489000000012,
          "velocity": 0.7874015748031497,
          "duration": 0.06276150000000058
        },
        {
          "name": "A#2",
          "midi": 46,
          "time": 54.225936000000125,
          "velocity": 0.7874015748031497,
          "duration": 0.06276150000000058
        },
        {
          "name": "C#3",
          "midi": 49,
          "time": 54.351459000000126,
          "velocity": 0.7874015748031497,
          "duration": 0.06276150000000058
        },
        {
          "name": "C3",
          "midi": 48,
          "time": 54.47698200000013,
          "velocity": 0.7874015748031497,
          "duration": 0.06276150000000058
        },
        {
          "name": "C#3",
          "midi": 49,
          "time": 54.60250500000013,
          "velocity": 0.7874015748031497,
          "duration": 0.06276150000000058
        },
        {
          "name": "A#2",
          "midi": 46,
          "time": 54.72802800000013,
          "velocity": 0.7874015748031497,
          "duration": 0.06276150000000058
        },
        {
          "name": "A#2",
          "midi": 46,
          "time": 54.97907400000013,
          "velocity": 0.7874015748031497,
          "duration": 0.06276150000000058
        },
        {
          "name": "C3",
          "midi": 48,
          "time": 55.10459700000013,
          "velocity": 0.7874015748031497,
          "duration": 0.06276150000000058
        },
        {
          "name": "C#3",
          "midi": 49,
          "time": 55.230120000000134,
          "velocity": 0.7874015748031497,
          "duration": 0.06276150000000058
        },
        {
          "name": "G#3",
          "midi": 56,
          "time": 55.355643000000136,
          "velocity": 0.7874015748031497,
          "duration": 0.06276150000000058
        },
        {
          "name": "F3",
          "midi": 53,
          "time": 55.48116600000014,
          "velocity": 0.7874015748031497,
          "duration": 0.06276150000000058
        },
        {
          "name": "D#2",
          "midi": 39,
          "time": 55.73221200000014,
          "velocity": 0.7874015748031497,
          "duration": 0.06276150000000058
        },
        {
          "name": "G#2",
          "midi": 44,
          "time": 55.98325800000014,
          "velocity": 0.7874015748031497,
          "duration": 0.06276150000000058
        },
        {
          "name": "C#3",
          "midi": 49,
          "time": 56.234304000000144,
          "velocity": 0.7874015748031497,
          "duration": 0.06276150000000058
        },
        {
          "name": "D#3",
          "midi": 51,
          "time": 56.485350000000146,
          "velocity": 0.7874015748031497,
          "duration": 0.06276150000000058
        },
        {
          "name": "C3",
          "midi": 48,
          "time": 56.73639600000015,
          "velocity": 0.7874015748031497,
          "duration": 0.06276150000000058
        },
        {
          "name": "F2",
          "midi": 41,
          "time": 56.86191900000015,
          "velocity": 0.7874015748031497,
          "duration": 0.06276150000000058
        },
        {
          "name": "F3",
          "midi": 53,
          "time": 56.98744200000015,
          "velocity": 0.7874015748031497,
          "duration": 0.06276150000000058
        },
        {
          "name": "C3",
          "midi": 48,
          "time": 57.11296500000015,
          "velocity": 0.7874015748031497,
          "duration": 0.06276150000000058
        },
        {
          "name": "B2",
          "midi": 47,
          "time": 57.23848800000015,
          "velocity": 0.7874015748031497,
          "duration": 0.06276150000000058
        },
        {
          "name": "D#3",
          "midi": 51,
          "time": 57.364011000000154,
          "velocity": 0.7874015748031497,
          "duration": 0.06276150000000058
        },
        {
          "name": "C#3",
          "midi": 49,
          "time": 57.489534000000155,
          "velocity": 0.7874015748031497,
          "duration": 0.06276150000000058
        },
        {
          "name": "D#3",
          "midi": 51,
          "time": 57.61505700000016,
          "velocity": 0.7874015748031497,
          "duration": 0.06276150000000058
        },
        {
          "name": "B2",
          "midi": 47,
          "time": 57.74058000000016,
          "velocity": 0.7874015748031497,
          "duration": 0.06276150000000058
        },
        {
          "name": "B2",
          "midi": 47,
          "time": 57.99162600000016,
          "velocity": 0.7874015748031497,
          "duration": 0.06276150000000058
        },
        {
          "name": "C#3",
          "midi": 49,
          "time": 58.11714900000016,
          "velocity": 0.7874015748031497,
          "duration": 0.06276150000000058
        },
        {
          "name": "D#3",
          "midi": 51,
          "time": 58.24267200000016,
          "velocity": 0.7874015748031497,
          "duration": 0.06276150000000058
        },
        {
          "name": "B3",
          "midi": 59,
          "time": 58.36819500000016,
          "velocity": 0.7874015748031497,
          "duration": 0.06276150000000058
        },
        {
          "name": "F#3",
          "midi": 54,
          "time": 58.493718000000165,
          "velocity": 0.7874015748031497,
          "duration": 0.06276150000000058
        },
        {
          "name": "B2",
          "midi": 47,
          "time": 58.74476400000017,
          "velocity": 0.7874015748031497,
          "duration": 0.06276150000000058
        },
        {
          "name": "D#3",
          "midi": 51,
          "time": 58.87028700000017,
          "velocity": 0.7874015748031497,
          "duration": 0.06276150000000058
        },
        {
          "name": "C#3",
          "midi": 49,
          "time": 58.99581000000017,
          "velocity": 0.7874015748031497,
          "duration": 0.06276150000000058
        },
        {
          "name": "D#3",
          "midi": 51,
          "time": 59.12133300000017,
          "velocity": 0.7874015748031497,
          "duration": 0.06276150000000058
        },
        {
          "name": "B2",
          "midi": 47,
          "time": 59.24685600000017,
          "velocity": 0.7874015748031497,
          "duration": 0.06276150000000058
        },
        {
          "name": "B2",
          "midi": 47,
          "time": 59.497902000000174,
          "velocity": 0.7874015748031497,
          "duration": 0.06276150000000058
        },
        {
          "name": "C#3",
          "midi": 49,
          "time": 59.623425000000175,
          "velocity": 0.7874015748031497,
          "duration": 0.06276150000000058
        },
        {
          "name": "D#3",
          "midi": 51,
          "time": 59.748948000000176,
          "velocity": 0.7874015748031497,
          "duration": 0.06276150000000058
        },
        {
          "name": "B3",
          "midi": 59,
          "time": 59.87447100000018,
          "velocity": 0.7874015748031497,
          "duration": 0.06276150000000058
        },
        {
          "name": "F#3",
          "midi": 54,
          "time": 59.99999400000018,
          "velocity": 0.7874015748031497,
          "duration": 0.06276150000000058
        },
        {
          "name": "A#2",
          "midi": 46,
          "time": 60.25104000000018,
          "velocity": 0.7874015748031497,
          "duration": 0.06276150000000058
        },
        {
          "name": "C#3",
          "midi": 49,
          "time": 60.37656300000018,
          "velocity": 0.7874015748031497,
          "duration": 0.06276150000000058
        },
        {
          "name": "C3",
          "midi": 48,
          "time": 60.50208600000018,
          "velocity": 0.7874015748031497,
          "duration": 0.06276150000000058
        },
        {
          "name": "C#3",
          "midi": 49,
          "time": 60.627609000000184,
          "velocity": 0.7874015748031497,
          "duration": 0.06276150000000058
        },
        {
          "name": "A#2",
          "midi": 46,
          "time": 60.753132000000186,
          "velocity": 0.7874015748031497,
          "duration": 0.06276150000000058
        },
        {
          "name": "A#2",
          "midi": 46,
          "time": 61.00417800000019,
          "velocity": 0.7874015748031497,
          "duration": 0.06276150000000058
        },
        {
          "name": "C3",
          "midi": 48,
          "time": 61.12970100000019,
          "velocity": 0.7874015748031497,
          "duration": 0.06276150000000058
        },
        {
          "name": "C#3",
          "midi": 49,
          "time": 61.25522400000019,
          "velocity": 0.7874015748031497,
          "duration": 0.06276150000000058
        },
        {
          "name": "G#3",
          "midi": 56,
          "time": 61.38074700000019,
          "velocity": 0.7874015748031497,
          "duration": 0.06276150000000058
        },
        {
          "name": "F3",
          "midi": 53,
          "time": 61.50627000000019,
          "velocity": 0.7874015748031497,
          "duration": 0.06276150000000058
        },
        {
          "name": "D#2",
          "midi": 39,
          "time": 61.757316000000195,
          "velocity": 0.7874015748031497,
          "duration": 0.06276150000000058
        },
        {
          "name": "G#2",
          "midi": 44,
          "time": 62.0083620000002,
          "velocity": 0.7874015748031497,
          "duration": 0.06276150000000058
        },
        {
          "name": "C#3",
          "midi": 49,
          "time": 62.2594080000002,
          "velocity": 0.7874015748031497,
          "duration": 0.06276150000000058
        },
        {
          "name": "D#3",
          "midi": 51,
          "time": 62.5104540000002,
          "velocity": 0.7874015748031497,
          "duration": 0.06276150000000058
        },
        {
          "name": "C3",
          "midi": 48,
          "time": 62.761500000000204,
          "velocity": 0.7874015748031497,
          "duration": 0.06276150000000058
        },
        {
          "name": "F2",
          "midi": 41,
          "time": 62.887023000000205,
          "velocity": 0.7874015748031497,
          "duration": 0.06276150000000058
        },
        {
          "name": "F3",
          "midi": 53,
          "time": 63.01254600000021,
          "velocity": 0.7874015748031497,
          "duration": 0.06276150000000058
        },
        {
          "name": "C3",
          "midi": 48,
          "time": 63.13806900000021,
          "velocity": 0.7874015748031497,
          "duration": 0.06276150000000058
        },
        {
          "name": "B2",
          "midi": 47,
          "time": 63.26359200000021,
          "velocity": 0.7874015748031497,
          "duration": 0.06276150000000058
        },
        {
          "name": "D#3",
          "midi": 51,
          "time": 63.38911500000021,
          "velocity": 0.7874015748031497,
          "duration": 0.06276150000000058
        },
        {
          "name": "C#3",
          "midi": 49,
          "time": 63.51463800000021,
          "velocity": 0.7874015748031497,
          "duration": 0.06276150000000058
        },
        {
          "name": "D#3",
          "midi": 51,
          "time": 63.64016100000021,
          "velocity": 0.7874015748031497,
          "duration": 0.06276150000000058
        },
        {
          "name": "B2",
          "midi": 47,
          "time": 63.76568400000021,
          "velocity": 0.7874015748031497,
          "duration": 0.06276150000000058
        },
        {
          "name": "B2",
          "midi": 47,
          "time": 64.01673000000021,
          "velocity": 0.7874015748031497,
          "duration": 0.06276149999999348
        },
        {
          "name": "C#3",
          "midi": 49,
          "time": 64.1422530000002,
          "velocity": 0.7874015748031497,
          "duration": 0.06276149999999348
        },
        {
          "name": "D#3",
          "midi": 51,
          "time": 64.26777600000018,
          "velocity": 0.7874015748031497,
          "duration": 0.06276149999999348
        },
        {
          "name": "B3",
          "midi": 59,
          "time": 64.39329900000017,
          "velocity": 0.7874015748031497,
          "duration": 0.06276149999999348
        },
        {
          "name": "F#3",
          "midi": 54,
          "time": 64.51882200000016,
          "velocity": 0.7874015748031497,
          "duration": 0.06276149999999348
        },
        {
          "name": "B2",
          "midi": 47,
          "time": 64.76986800000014,
          "velocity": 0.7874015748031497,
          "duration": 0.06276149999999348
        },
        {
          "name": "D#3",
          "midi": 51,
          "time": 64.89539100000013,
          "velocity": 0.7874015748031497,
          "duration": 0.06276149999999348
        },
        {
          "name": "C#3",
          "midi": 49,
          "time": 65.02091400000012,
          "velocity": 0.7874015748031497,
          "duration": 0.06276149999999348
        },
        {
          "name": "D#3",
          "midi": 51,
          "time": 65.1464370000001,
          "velocity": 0.7874015748031497,
          "duration": 0.06276149999999348
        },
        {
          "name": "B2",
          "midi": 47,
          "time": 65.27196000000009,
          "velocity": 0.7874015748031497,
          "duration": 0.06276149999999348
        },
        {
          "name": "B2",
          "midi": 47,
          "time": 65.52300600000008,
          "velocity": 0.7874015748031497,
          "duration": 0.06276149999999348
        },
        {
          "name": "C#3",
          "midi": 49,
          "time": 65.64852900000007,
          "velocity": 0.7874015748031497,
          "duration": 0.06276149999999348
        },
        {
          "name": "D#3",
          "midi": 51,
          "time": 65.77405200000005,
          "velocity": 0.7874015748031497,
          "duration": 0.06276149999999348
        },
        {
          "name": "B3",
          "midi": 59,
          "time": 65.89957500000004,
          "velocity": 0.7874015748031497,
          "duration": 0.06276149999999348
        },
        {
          "name": "F#3",
          "midi": 54,
          "time": 66.02509800000003,
          "velocity": 0.7874015748031497,
          "duration": 0.06276149999999348
        },
        {
          "name": "A#2",
          "midi": 46,
          "time": 66.27614400000002,
          "velocity": 0.7874015748031497,
          "duration": 0.06276149999999348
        },
        {
          "name": "C#3",
          "midi": 49,
          "time": 66.401667,
          "velocity": 0.7874015748031497,
          "duration": 0.06276149999999348
        },
        {
          "name": "C3",
          "midi": 48,
          "time": 66.52718999999999,
          "velocity": 0.7874015748031497,
          "duration": 0.06276149999999348
        },
        {
          "name": "C#3",
          "midi": 49,
          "time": 66.65271299999998,
          "velocity": 0.7874015748031497,
          "duration": 0.06276149999999348
        },
        {
          "name": "A#2",
          "midi": 46,
          "time": 66.77823599999996,
          "velocity": 0.7874015748031497,
          "duration": 0.06276149999999348
        },
        {
          "name": "A#2",
          "midi": 46,
          "time": 67.02928199999995,
          "velocity": 0.7874015748031497,
          "duration": 0.06276149999999348
        },
        {
          "name": "C3",
          "midi": 48,
          "time": 67.15480499999994,
          "velocity": 0.7874015748031497,
          "duration": 0.06276149999999348
        },
        {
          "name": "C#3",
          "midi": 49,
          "time": 67.28032799999993,
          "velocity": 0.7874015748031497,
          "duration": 0.06276149999999348
        },
        {
          "name": "G#3",
          "midi": 56,
          "time": 67.40585099999991,
          "velocity": 0.7874015748031497,
          "duration": 0.06276149999999348
        },
        {
          "name": "F3",
          "midi": 53,
          "time": 67.5313739999999,
          "velocity": 0.7874015748031497,
          "duration": 0.06276149999999348
        },
        {
          "name": "D#2",
          "midi": 39,
          "time": 67.78241999999989,
          "velocity": 0.7874015748031497,
          "duration": 0.06276149999999348
        },
        {
          "name": "G#2",
          "midi": 44,
          "time": 68.03346599999988,
          "velocity": 0.7874015748031497,
          "duration": 0.06276149999999348
        },
        {
          "name": "C#3",
          "midi": 49,
          "time": 68.28451199999986,
          "velocity": 0.7874015748031497,
          "duration": 0.06276149999999348
        },
        {
          "name": "D#3",
          "midi": 51,
          "time": 68.53555799999985,
          "velocity": 0.7874015748031497,
          "duration": 0.06276149999999348
        },
        {
          "name": "C3",
          "midi": 48,
          "time": 68.78660399999984,
          "velocity": 0.7874015748031497,
          "duration": 0.06276149999999348
        },
        {
          "name": "F2",
          "midi": 41,
          "time": 68.91212699999983,
          "velocity": 0.7874015748031497,
          "duration": 0.06276149999999348
        },
        {
          "name": "F3",
          "midi": 53,
          "time": 69.03764999999981,
          "velocity": 0.7874015748031497,
          "duration": 0.06276149999999348
        },
        {
          "name": "C3",
          "midi": 48,
          "time": 69.1631729999998,
          "velocity": 0.7874015748031497,
          "duration": 0.06276149999999348
        },
        {
          "name": "B2",
          "midi": 47,
          "time": 69.28869599999979,
          "velocity": 0.7874015748031497,
          "duration": 0.06276149999999348
        },
        {
          "name": "D#3",
          "midi": 51,
          "time": 69.41421899999978,
          "velocity": 0.7874015748031497,
          "duration": 0.06276149999999348
        },
        {
          "name": "C#3",
          "midi": 49,
          "time": 69.53974199999976,
          "velocity": 0.7874015748031497,
          "duration": 0.06276149999999348
        },
        {
          "name": "D#3",
          "midi": 51,
          "time": 69.66526499999975,
          "velocity": 0.7874015748031497,
          "duration": 0.06276149999999348
        },
        {
          "name": "B2",
          "midi": 47,
          "time": 69.79078799999974,
          "velocity": 0.7874015748031497,
          "duration": 0.06276149999999348
        },
        {
          "name": "B2",
          "midi": 47,
          "time": 70.04183399999972,
          "velocity": 0.7874015748031497,
          "duration": 0.06276149999999348
        },
        {
          "name": "C#3",
          "midi": 49,
          "time": 70.16735699999971,
          "velocity": 0.7874015748031497,
          "duration": 0.06276149999999348
        },
        {
          "name": "D#3",
          "midi": 51,
          "time": 70.2928799999997,
          "velocity": 0.7874015748031497,
          "duration": 0.06276149999999348
        },
        {
          "name": "B3",
          "midi": 59,
          "time": 70.41840299999969,
          "velocity": 0.7874015748031497,
          "duration": 0.06276149999999348
        },
        {
          "name": "F#3",
          "midi": 54,
          "time": 70.54392599999967,
          "velocity": 0.7874015748031497,
          "duration": 0.06276149999999348
        },
        {
          "name": "B2",
          "midi": 47,
          "time": 70.79497199999966,
          "velocity": 0.7874015748031497,
          "duration": 0.06276149999999348
        },
        {
          "name": "D#3",
          "midi": 51,
          "time": 70.92049499999965,
          "velocity": 0.7874015748031497,
          "duration": 0.06276149999999348
        },
        {
          "name": "C#3",
          "midi": 49,
          "time": 71.04601799999963,
          "velocity": 0.7874015748031497,
          "duration": 0.06276149999999348
        },
        {
          "name": "D#3",
          "midi": 51,
          "time": 71.17154099999962,
          "velocity": 0.7874015748031497,
          "duration": 0.06276149999999348
        },
        {
          "name": "B2",
          "midi": 47,
          "time": 71.29706399999961,
          "velocity": 0.7874015748031497,
          "duration": 0.06276149999999348
        },
        {
          "name": "B2",
          "midi": 47,
          "time": 71.5481099999996,
          "velocity": 0.7874015748031497,
          "duration": 0.06276149999999348
        },
        {
          "name": "C#3",
          "midi": 49,
          "time": 71.67363299999958,
          "velocity": 0.7874015748031497,
          "duration": 0.06276149999999348
        },
        {
          "name": "D#3",
          "midi": 51,
          "time": 71.79915599999957,
          "velocity": 0.7874015748031497,
          "duration": 0.06276149999999348
        },
        {
          "name": "B3",
          "midi": 59,
          "time": 71.92467899999956,
          "velocity": 0.7874015748031497,
          "duration": 0.06276149999999348
        },
        {
          "name": "F#3",
          "midi": 54,
          "time": 72.05020199999954,
          "velocity": 0.7874015748031497,
          "duration": 0.06276149999999348
        },
        {
          "name": "A#2",
          "midi": 46,
          "time": 72.30124799999953,
          "velocity": 0.7874015748031497,
          "duration": 0.06276149999999348
        },
        {
          "name": "C#3",
          "midi": 49,
          "time": 72.42677099999952,
          "velocity": 0.7874015748031497,
          "duration": 0.06276149999999348
        },
        {
          "name": "C3",
          "midi": 48,
          "time": 72.5522939999995,
          "velocity": 0.7874015748031497,
          "duration": 0.06276149999999348
        },
        {
          "name": "C#3",
          "midi": 49,
          "time": 72.6778169999995,
          "velocity": 0.7874015748031497,
          "duration": 0.06276149999999348
        },
        {
          "name": "A#2",
          "midi": 46,
          "time": 72.80333999999948,
          "velocity": 0.7874015748031497,
          "duration": 0.06276149999999348
        },
        {
          "name": "A#2",
          "midi": 46,
          "time": 73.05438599999947,
          "velocity": 0.7874015748031497,
          "duration": 0.06276149999999348
        },
        {
          "name": "C3",
          "midi": 48,
          "time": 73.17990899999945,
          "velocity": 0.7874015748031497,
          "duration": 0.06276149999999348
        },
        {
          "name": "C#3",
          "midi": 49,
          "time": 73.30543199999944,
          "velocity": 0.7874015748031497,
          "duration": 0.06276149999999348
        },
        {
          "name": "G#3",
          "midi": 56,
          "time": 73.43095499999943,
          "velocity": 0.7874015748031497,
          "duration": 0.06276149999999348
        },
        {
          "name": "F3",
          "midi": 53,
          "time": 73.55647799999942,
          "velocity": 0.7874015748031497,
          "duration": 0.06276149999999348
        },
        {
          "name": "D#2",
          "midi": 39,
          "time": 73.8075239999994,
          "velocity": 0.7874015748031497,
          "duration": 0.06276149999999348
        },
        {
          "name": "G#2",
          "midi": 44,
          "time": 74.05856999999939,
          "velocity": 0.7874015748031497,
          "duration": 0.06276149999999348
        },
        {
          "name": "C#3",
          "midi": 49,
          "time": 74.30961599999938,
          "velocity": 0.7874015748031497,
          "duration": 0.06276149999999348
        },
        {
          "name": "D#3",
          "midi": 51,
          "time": 74.56066199999937,
          "velocity": 0.7874015748031497,
          "duration": 0.06276149999999348
        },
        {
          "name": "C3",
          "midi": 48,
          "time": 74.81170799999936,
          "velocity": 0.7874015748031497,
          "duration": 0.06276149999999348
        },
        {
          "name": "F2",
          "midi": 41,
          "time": 74.93723099999934,
          "velocity": 0.7874015748031497,
          "duration": 0.06276149999999348
        },
        {
          "name": "F3",
          "midi": 53,
          "time": 75.06275399999933,
          "velocity": 0.7874015748031497,
          "duration": 0.06276149999999348
        },
        {
          "name": "C3",
          "midi": 48,
          "time": 75.18827699999932,
          "velocity": 0.7874015748031497,
          "duration": 0.06276149999999348
        },
        {
          "name": "B2",
          "midi": 47,
          "time": 75.3137999999993,
          "velocity": 0.7874015748031497,
          "duration": 0.06276149999999348
        },
        {
          "name": "D#3",
          "midi": 51,
          "time": 75.43932299999929,
          "velocity": 0.7874015748031497,
          "duration": 0.06276149999999348
        },
        {
          "name": "C#3",
          "midi": 49,
          "time": 75.56484599999928,
          "velocity": 0.7874015748031497,
          "duration": 0.06276149999999348
        },
        {
          "name": "D#3",
          "midi": 51,
          "time": 75.69036899999927,
          "velocity": 0.7874015748031497,
          "duration": 0.06276149999999348
        },
        {
          "name": "B2",
          "midi": 47,
          "time": 75.81589199999925,
          "velocity": 0.7874015748031497,
          "duration": 0.06276149999999348
        },
        {
          "name": "B2",
          "midi": 47,
          "time": 76.06693799999924,
          "velocity": 0.7874015748031497,
          "duration": 0.06276149999999348
        },
        {
          "name": "C#3",
          "midi": 49,
          "time": 76.19246099999923,
          "velocity": 0.7874015748031497,
          "duration": 0.06276149999999348
        },
        {
          "name": "D#3",
          "midi": 51,
          "time": 76.31798399999921,
          "velocity": 0.7874015748031497,
          "duration": 0.06276149999999348
        },
        {
          "name": "B3",
          "midi": 59,
          "time": 76.4435069999992,
          "velocity": 0.7874015748031497,
          "duration": 0.06276149999999348
        },
        {
          "name": "F#3",
          "midi": 54,
          "time": 76.56902999999919,
          "velocity": 0.7874015748031497,
          "duration": 0.06276149999999348
        },
        {
          "name": "B2",
          "midi": 47,
          "time": 76.82007599999918,
          "velocity": 0.7874015748031497,
          "duration": 0.06276149999999348
        },
        {
          "name": "D#3",
          "midi": 51,
          "time": 76.94559899999916,
          "velocity": 0.7874015748031497,
          "duration": 0.06276149999999348
        },
        {
          "name": "C#3",
          "midi": 49,
          "time": 77.07112199999915,
          "velocity": 0.7874015748031497,
          "duration": 0.06276149999999348
        },
        {
          "name": "D#3",
          "midi": 51,
          "time": 77.19664499999914,
          "velocity": 0.7874015748031497,
          "duration": 0.06276149999999348
        },
        {
          "name": "B2",
          "midi": 47,
          "time": 77.32216799999912,
          "velocity": 0.7874015748031497,
          "duration": 0.06276149999999348
        },
        {
          "name": "B2",
          "midi": 47,
          "time": 77.57321399999911,
          "velocity": 0.7874015748031497,
          "duration": 0.06276149999999348
        },
        {
          "name": "C#3",
          "midi": 49,
          "time": 77.6987369999991,
          "velocity": 0.7874015748031497,
          "duration": 0.06276149999999348
        },
        {
          "name": "D#3",
          "midi": 51,
          "time": 77.82425999999909,
          "velocity": 0.7874015748031497,
          "duration": 0.06276149999999348
        },
        {
          "name": "B3",
          "midi": 59,
          "time": 77.94978299999907,
          "velocity": 0.7874015748031497,
          "duration": 0.06276149999999348
        },
        {
          "name": "F#3",
          "midi": 54,
          "time": 78.07530599999906,
          "velocity": 0.7874015748031497,
          "duration": 0.06276149999999348
        },
        {
          "name": "A#2",
          "midi": 46,
          "time": 78.32635199999905,
          "velocity": 0.7874015748031497,
          "duration": 0.06276149999999348
        },
        {
          "name": "C#3",
          "midi": 49,
          "time": 78.45187499999903,
          "velocity": 0.7874015748031497,
          "duration": 0.06276149999999348
        },
        {
          "name": "C3",
          "midi": 48,
          "time": 78.57739799999902,
          "velocity": 0.7874015748031497,
          "duration": 0.06276149999999348
        },
        {
          "name": "C#3",
          "midi": 49,
          "time": 78.70292099999901,
          "velocity": 0.7874015748031497,
          "duration": 0.06276149999999348
        },
        {
          "name": "A#2",
          "midi": 46,
          "time": 78.828443999999,
          "velocity": 0.7874015748031497,
          "duration": 0.06276149999999348
        },
        {
          "name": "A#2",
          "midi": 46,
          "time": 79.07948999999898,
          "velocity": 0.7874015748031497,
          "duration": 0.06276149999999348
        },
        {
          "name": "C3",
          "midi": 48,
          "time": 79.20501299999897,
          "velocity": 0.7874015748031497,
          "duration": 0.06276149999999348
        },
        {
          "name": "C#3",
          "midi": 49,
          "time": 79.33053599999896,
          "velocity": 0.7874015748031497,
          "duration": 0.06276149999999348
        },
        {
          "name": "G#3",
          "midi": 56,
          "time": 79.45605899999894,
          "velocity": 0.7874015748031497,
          "duration": 0.06276149999999348
        },
        {
          "name": "F3",
          "midi": 53,
          "time": 79.58158199999893,
          "velocity": 0.7874015748031497,
          "duration": 0.06276149999999348
        },
        {
          "name": "D#2",
          "midi": 39,
          "time": 79.83262799999892,
          "velocity": 0.7874015748031497,
          "duration": 0.06276149999999348
        },
        {
          "name": "G#2",
          "midi": 44,
          "time": 80.08367399999891,
          "velocity": 0.7874015748031497,
          "duration": 0.06276149999999348
        },
        {
          "name": "C#3",
          "midi": 49,
          "time": 80.3347199999989,
          "velocity": 0.7874015748031497,
          "duration": 0.06276149999999348
        },
        {
          "name": "D#3",
          "midi": 51,
          "time": 80.58576599999888,
          "velocity": 0.7874015748031497,
          "duration": 0.06276149999999348
        },
        {
          "name": "C3",
          "midi": 48,
          "time": 80.83681199999887,
          "velocity": 0.7874015748031497,
          "duration": 0.06276149999999348
        },
        {
          "name": "F2",
          "midi": 41,
          "time": 80.96233499999886,
          "velocity": 0.7874015748031497,
          "duration": 0.06276149999999348
        },
        {
          "name": "F3",
          "midi": 53,
          "time": 81.08785799999885,
          "velocity": 0.7874015748031497,
          "duration": 0.06276149999999348
        },
        {
          "name": "C3",
          "midi": 48,
          "time": 81.21338099999883,
          "velocity": 0.7874015748031497,
          "duration": 0.06276149999999348
        },
        {
          "name": "B2",
          "midi": 47,
          "time": 81.33890399999882,
          "velocity": 0.7874015748031497,
          "duration": 0.06276149999999348
        },
        {
          "name": "D#3",
          "midi": 51,
          "time": 81.4644269999988,
          "velocity": 0.7874015748031497,
          "duration": 0.06276149999999348
        },
        {
          "name": "C#3",
          "midi": 49,
          "time": 81.5899499999988,
          "velocity": 0.7874015748031497,
          "duration": 0.06276149999999348
        },
        {
          "name": "D#3",
          "midi": 51,
          "time": 81.71547299999878,
          "velocity": 0.7874015748031497,
          "duration": 0.06276149999999348
        },
        {
          "name": "B2",
          "midi": 47,
          "time": 81.84099599999877,
          "velocity": 0.7874015748031497,
          "duration": 0.06276149999999348
        },
        {
          "name": "B2",
          "midi": 47,
          "time": 82.09204199999876,
          "velocity": 0.7874015748031497,
          "duration": 0.06276149999999348
        },
        {
          "name": "C#3",
          "midi": 49,
          "time": 82.21756499999874,
          "velocity": 0.7874015748031497,
          "duration": 0.06276149999999348
        },
        {
          "name": "D#3",
          "midi": 51,
          "time": 82.34308799999873,
          "velocity": 0.7874015748031497,
          "duration": 0.06276149999999348
        },
        {
          "name": "B3",
          "midi": 59,
          "time": 82.46861099999872,
          "velocity": 0.7874015748031497,
          "duration": 0.06276149999999348
        },
        {
          "name": "F#3",
          "midi": 54,
          "time": 82.5941339999987,
          "velocity": 0.7874015748031497,
          "duration": 0.06276149999999348
        },
        {
          "name": "B2",
          "midi": 47,
          "time": 82.84517999999869,
          "velocity": 0.7874015748031497,
          "duration": 0.06276149999999348
        },
        {
          "name": "D#3",
          "midi": 51,
          "time": 82.97070299999868,
          "velocity": 0.7874015748031497,
          "duration": 0.06276149999999348
        },
        {
          "name": "C#3",
          "midi": 49,
          "time": 83.09622599999867,
          "velocity": 0.7874015748031497,
          "duration": 0.06276149999999348
        },
        {
          "name": "D#3",
          "midi": 51,
          "time": 83.22174899999865,
          "velocity": 0.7874015748031497,
          "duration": 0.06276149999999348
        },
        {
          "name": "B2",
          "midi": 47,
          "time": 83.34727199999864,
          "velocity": 0.7874015748031497,
          "duration": 0.06276149999999348
        },
        {
          "name": "B2",
          "midi": 47,
          "time": 83.59831799999863,
          "velocity": 0.7874015748031497,
          "duration": 0.06276149999999348
        },
        {
          "name": "C#3",
          "midi": 49,
          "time": 83.72384099999861,
          "velocity": 0.7874015748031497,
          "duration": 0.06276149999999348
        },
        {
          "name": "D#3",
          "midi": 51,
          "time": 83.8493639999986,
          "velocity": 0.7874015748031497,
          "duration": 0.06276149999999348
        },
        {
          "name": "B3",
          "midi": 59,
          "time": 83.97488699999859,
          "velocity": 0.7874015748031497,
          "duration": 0.06276149999999348
        },
        {
          "name": "F#3",
          "midi": 54,
          "time": 84.10040999999858,
          "velocity": 0.7874015748031497,
          "duration": 0.06276149999999348
        },
        {
          "name": "A#2",
          "midi": 46,
          "time": 84.35145599999856,
          "velocity": 0.7874015748031497,
          "duration": 0.06276149999999348
        },
        {
          "name": "C#3",
          "midi": 49,
          "time": 84.47697899999855,
          "velocity": 0.7874015748031497,
          "duration": 0.06276149999999348
        },
        {
          "name": "C3",
          "midi": 48,
          "time": 84.60250199999854,
          "velocity": 0.7874015748031497,
          "duration": 0.06276149999999348
        },
        {
          "name": "C#3",
          "midi": 49,
          "time": 84.72802499999852,
          "velocity": 0.7874015748031497,
          "duration": 0.06276149999999348
        },
        {
          "name": "A#2",
          "midi": 46,
          "time": 84.85354799999851,
          "velocity": 0.7874015748031497,
          "duration": 0.06276149999999348
        },
        {
          "name": "A#2",
          "midi": 46,
          "time": 85.1045939999985,
          "velocity": 0.7874015748031497,
          "duration": 0.06276149999999348
        },
        {
          "name": "C3",
          "midi": 48,
          "time": 85.23011699999849,
          "velocity": 0.7874015748031497,
          "duration": 0.06276149999999348
        },
        {
          "name": "C#3",
          "midi": 49,
          "time": 85.35563999999847,
          "velocity": 0.7874015748031497,
          "duration": 0.06276149999999348
        },
        {
          "name": "G#3",
          "midi": 56,
          "time": 85.48116299999846,
          "velocity": 0.7874015748031497,
          "duration": 0.06276149999999348
        },
        {
          "name": "F3",
          "midi": 53,
          "time": 85.60668599999845,
          "velocity": 0.7874015748031497,
          "duration": 0.06276149999999348
        }
      ],
      "controlChanges": {
        "6": [
          {
            "number": 6,
            "time": 0,
            "value": 0.09448818897637795
          },
          {
            "number": 6,
            "time": 0,
            "value": 0.09448818897637795
          },
          {
            "number": 6,
            "time": 0,
            "value": 0.09448818897637795
          },
          {
            "number": 6,
            "time": 108.45187199999845,
            "value": 0.09448818897637795
          },
          {
            "number": 6,
            "time": 108.46233224999844,
            "value": 0.09448818897637795
          },
          {
            "number": 6,
            "time": 108.46233224999844,
            "value": 0.09448818897637795
          }
        ],
        "7": [
          {
            "number": 7,
            "time": 0,
            "value": 1
          },
          {
            "number": 7,
            "time": 0,
            "value": 1
          },
          {
            "number": 7,
            "time": 0,
            "value": 1
          },
          {
            "number": 7,
            "time": 0,
            "value": 1
          },
          {
            "number": 7,
            "time": 0,
            "value": 1
          },
          {
            "number": 7,
            "time": 0,
            "value": 1
          },
          {
            "number": 7,
            "time": 108.45187199999845,
            "value": 1
          },
          {
            "number": 7,
            "time": 108.46233224999844,
            "value": 1
          },
          {
            "number": 7,
            "time": 108.46233224999844,
            "value": 1
          }
        ],
        "10": [
          {
            "number": 10,
            "time": 0,
            "value": 0.5039370078740157
          },
          {
            "number": 10,
            "time": 0,
            "value": 0.5039370078740157
          },
          {
            "number": 10,
            "time": 0,
            "value": 0.5039370078740157
          },
          {
            "number": 10,
            "time": 0,
            "value": 0.5039370078740157
          },
          {
            "number": 10,
            "time": 108.45187199999845,
            "value": 0.5039370078740157
          },
          {
            "number": 10,
            "time": 108.46233224999844,
            "value": 0.5039370078740157
          },
          {
            "number": 10,
            "time": 108.46233224999844,
            "value": 0.5039370078740157
          }
        ],
        "100": [
          {
            "number": 100,
            "time": 0,
            "value": 0
          },
          {
            "number": 100,
            "time": 0,
            "value": 0
          },
          {
            "number": 100,
            "time": 0,
            "value": 0
          },
          {
            "number": 100,
            "time": 108.45187199999845,
            "value": 0
          },
          {
            "number": 100,
            "time": 108.46233224999844,
            "value": 0
          },
          {
            "number": 100,
            "time": 108.46233224999844,
            "value": 0
          }
        ],
        "101": [
          {
            "number": 101,
            "time": 0,
            "value": 0
          },
          {
            "number": 101,
            "time": 0,
            "value": 0
          },
          {
            "number": 101,
            "time": 0,
            "value": 0
          },
          {
            "number": 101,
            "time": 108.45187199999845,
            "value": 0
          },
          {
            "number": 101,
            "time": 108.46233224999844,
            "value": 0
          },
          {
            "number": 101,
            "time": 108.46233224999844,
            "value": 0
          }
        ]
      },
      "id": 2,
      "name": "MIDI out",
      "instrumentNumber": 81,
      "instrument": "lead 2 (sawtooth)",
      "instrumentFamily": "synth lead",
      "channelNumber": 0,
      "isPercussion": false
    },
    {
      "startTime": 0,
      "duration": 107.79287624999971,
      "length": 543,
      "notes": [
        {
          "name": "F#1",
          "midi": 30,
          "time": 0,
          "velocity": 0.7874015748031497,
          "duration": 0.251046
        },
        {
          "name": "F#1",
          "midi": 30,
          "time": 0.753138,
          "velocity": 0.7874015748031497,
          "duration": 0.251046
        },
        {
          "name": "F#1",
          "midi": 30,
          "time": 1.506276,
          "velocity": 0.7874015748031497,
          "duration": 0.2510459999999999
        },
        {
          "name": "F#1",
          "midi": 30,
          "time": 2.2594139999999996,
          "velocity": 0.7874015748031497,
          "duration": 0.2510460000000001
        },
        {
          "name": "A#1",
          "midi": 34,
          "time": 3.0125519999999995,
          "velocity": 0.7874015748031497,
          "duration": 0.2510460000000001
        },
        {
          "name": "A#1",
          "midi": 34,
          "time": 3.7656899999999993,
          "velocity": 0.7874015748031497,
          "duration": 0.25104599999999966
        },
        {
          "name": "C#2",
          "midi": 37,
          "time": 4.518827999999999,
          "velocity": 0.7874015748031497,
          "duration": 0.25104599999999966
        },
        {
          "name": "G#2",
          "midi": 44,
          "time": 5.277196124999999,
          "velocity": 0.7874015748031497,
          "duration": 0.25104599999999966
        },
        {
          "name": "C#2",
          "midi": 37,
          "time": 5.774057999999998,
          "velocity": 0.7874015748031497,
          "duration": 0.25104599999999966
        },
        {
          "name": "F#1",
          "midi": 30,
          "time": 6.025103999999998,
          "velocity": 0.7874015748031497,
          "duration": 0.25104599999999966
        },
        {
          "name": "F#1",
          "midi": 30,
          "time": 6.778241999999998,
          "velocity": 0.7874015748031497,
          "duration": 0.25104599999999966
        },
        {
          "name": "F#1",
          "midi": 30,
          "time": 7.531379999999998,
          "velocity": 0.7874015748031497,
          "duration": 0.25104599999999966
        },
        {
          "name": "F#1",
          "midi": 30,
          "time": 8.284517999999997,
          "velocity": 0.7874015748031497,
          "duration": 0.25104600000000055
        },
        {
          "name": "A#1",
          "midi": 34,
          "time": 9.037655999999997,
          "velocity": 0.7874015748031497,
          "duration": 0.21966525000000026
        },
        {
          "name": "A#1",
          "midi": 34,
          "time": 9.539747999999998,
          "velocity": 0.7874015748031497,
          "duration": 0.21966525000000026
        },
        {
          "name": "A#1",
          "midi": 34,
          "time": 9.790793999999998,
          "velocity": 0.7874015748031497,
          "duration": 0.21966525000000026
        },
        {
          "name": "A#1",
          "midi": 34,
          "time": 10.041839999999999,
          "velocity": 0.7874015748031497,
          "duration": 0.21966525000000026
        },
        {
          "name": "A#1",
          "midi": 34,
          "time": 10.292886,
          "velocity": 0.7874015748031497,
          "duration": 0.21966525000000026
        },
        {
          "name": "G#1",
          "midi": 32,
          "time": 10.543932,
          "velocity": 0.7874015748031497,
          "duration": 0.25104600000000055
        },
        {
          "name": "D#1",
          "midi": 27,
          "time": 10.794978,
          "velocity": 0.7874015748031497,
          "duration": 0.25104600000000055
        },
        {
          "name": "F#1",
          "midi": 30,
          "time": 11.046024000000001,
          "velocity": 0.7874015748031497,
          "duration": 0.25104600000000055
        },
        {
          "name": "G#1",
          "midi": 32,
          "time": 11.297070000000001,
          "velocity": 0.7874015748031497,
          "duration": 0.12552299999999939
        },
        {
          "name": "A#1",
          "midi": 34,
          "time": 11.422593,
          "velocity": 0.7874015748031497,
          "duration": 0.12552299999999939
        },
        {
          "name": "C2",
          "midi": 36,
          "time": 11.548116,
          "velocity": 0.7874015748031497,
          "duration": 0.25104600000000055
        },
        {
          "name": "D#2",
          "midi": 39,
          "time": 11.799162,
          "velocity": 0.7874015748031497,
          "duration": 0.25104600000000055
        },
        {
          "name": "A#1",
          "midi": 34,
          "time": 12.050208000000001,
          "velocity": 0.7874015748031497,
          "duration": 0.09414225000000087
        },
        {
          "name": "A#2",
          "midi": 46,
          "time": 12.175731000000003,
          "velocity": 0.7874015748031497,
          "duration": 0.03138075000000029
        },
        {
          "name": "A#1",
          "midi": 34,
          "time": 12.301254000000004,
          "velocity": 0.7874015748031497,
          "duration": 0.09414225000000087
        },
        {
          "name": "C#2",
          "midi": 37,
          "time": 12.426777000000005,
          "velocity": 0.7874015748031497,
          "duration": 0.09414225000000087
        },
        {
          "name": "A#1",
          "midi": 34,
          "time": 12.552300000000006,
          "velocity": 0.7874015748031497,
          "duration": 0.09414225000000087
        },
        {
          "name": "F1",
          "midi": 29,
          "time": 12.677823000000007,
          "velocity": 0.7874015748031497,
          "duration": 0.09414225000000087
        },
        {
          "name": "A#1",
          "midi": 34,
          "time": 12.803346000000008,
          "velocity": 0.7874015748031497,
          "duration": 0.09414225000000087
        },
        {
          "name": "A#2",
          "midi": 46,
          "time": 12.92886900000001,
          "velocity": 0.7874015748031497,
          "duration": 0.015690375000000145
        },
        {
          "name": "A#1",
          "midi": 34,
          "time": 13.054392000000009,
          "velocity": 0.7874015748031497,
          "duration": 0.09414225000000087
        },
        {
          "name": "C#2",
          "midi": 37,
          "time": 13.17991500000001,
          "velocity": 0.7874015748031497,
          "duration": 0.09414225000000087
        },
        {
          "name": "A#1",
          "midi": 34,
          "time": 13.305438000000011,
          "velocity": 0.7874015748031497,
          "duration": 0.09414225000000087
        },
        {
          "name": "D#2",
          "midi": 39,
          "time": 13.430961000000012,
          "velocity": 0.7874015748031497,
          "duration": 0.09414225000000087
        },
        {
          "name": "G#1",
          "midi": 32,
          "time": 13.556484000000014,
          "velocity": 0.7874015748031497,
          "duration": 0.09414225000000087
        },
        {
          "name": "A#2",
          "midi": 46,
          "time": 13.682007000000015,
          "velocity": 0.7874015748031497,
          "duration": 0.015690375000000145
        },
        {
          "name": "D#1",
          "midi": 27,
          "time": 13.807530000000014,
          "velocity": 0.7874015748031497,
          "duration": 0.09414225000000087
        },
        {
          "name": "F1",
          "midi": 29,
          "time": 13.933053000000015,
          "velocity": 0.7874015748031497,
          "duration": 0.09414225000000087
        },
        {
          "name": "G#1",
          "midi": 32,
          "time": 14.058576000000016,
          "velocity": 0.7874015748031497,
          "duration": 0.09414225000000087
        },
        {
          "name": "D#1",
          "midi": 27,
          "time": 14.184099000000018,
          "velocity": 0.7874015748031497,
          "duration": 0.09414225000000087
        },
        {
          "name": "D#1",
          "midi": 27,
          "time": 14.309622000000019,
          "velocity": 0.7874015748031497,
          "duration": 0.25104600000000055
        },
        {
          "name": "F1",
          "midi": 29,
          "time": 14.56066800000002,
          "velocity": 0.7874015748031497,
          "duration": 0.25104600000000055
        },
        {
          "name": "G#1",
          "midi": 32,
          "time": 14.81171400000002,
          "velocity": 0.7874015748031497,
          "duration": 0.25104600000000055
        },
        {
          "name": "A#1",
          "midi": 34,
          "time": 15.06276000000002,
          "velocity": 0.7874015748031497,
          "duration": 0.09414225000000087
        },
        {
          "name": "A#2",
          "midi": 46,
          "time": 15.188283000000022,
          "velocity": 0.7874015748031497,
          "duration": 0.03138075000000029
        },
        {
          "name": "D#2",
          "midi": 39,
          "time": 15.313806000000023,
          "velocity": 0.7874015748031497,
          "duration": 0.09414225000000087
        },
        {
          "name": "F2",
          "midi": 41,
          "time": 15.439329000000024,
          "velocity": 0.7874015748031497,
          "duration": 0.09414225000000087
        },
        {
          "name": "C#2",
          "midi": 37,
          "time": 15.564852000000025,
          "velocity": 0.7874015748031497,
          "duration": 0.09414225000000087
        },
        {
          "name": "G#1",
          "midi": 32,
          "time": 15.690375000000026,
          "velocity": 0.7874015748031497,
          "duration": 0.09414225000000087
        },
        {
          "name": "A#1",
          "midi": 34,
          "time": 15.815898000000027,
          "velocity": 0.7874015748031497,
          "duration": 0.09414225000000087
        },
        {
          "name": "A#2",
          "midi": 46,
          "time": 15.941421000000028,
          "velocity": 0.7874015748031497,
          "duration": 0.03138075000000029
        },
        {
          "name": "D#2",
          "midi": 39,
          "time": 16.066944000000028,
          "velocity": 0.7874015748031497,
          "duration": 0.09414225000000087
        },
        {
          "name": "F2",
          "midi": 41,
          "time": 16.19246700000003,
          "velocity": 0.7874015748031497,
          "duration": 0.09414225000000087
        },
        {
          "name": "C#2",
          "midi": 37,
          "time": 16.31799000000003,
          "velocity": 0.7874015748031497,
          "duration": 0.09414225000000087
        },
        {
          "name": "G#1",
          "midi": 32,
          "time": 16.44351300000003,
          "velocity": 0.7874015748031497,
          "duration": 0.09414225000000087
        },
        {
          "name": "A#1",
          "midi": 34,
          "time": 16.569036000000033,
          "velocity": 0.7874015748031497,
          "duration": 0.09414225000000087
        },
        {
          "name": "A#2",
          "midi": 46,
          "time": 16.694559000000034,
          "velocity": 0.7874015748031497,
          "duration": 0.03138075000000029
        },
        {
          "name": "D#2",
          "midi": 39,
          "time": 16.820082000000035,
          "velocity": 0.7874015748031497,
          "duration": 0.09414225000000087
        },
        {
          "name": "F2",
          "midi": 41,
          "time": 16.945605000000036,
          "velocity": 0.7874015748031497,
          "duration": 0.09414225000000087
        },
        {
          "name": "C#2",
          "midi": 37,
          "time": 17.071128000000037,
          "velocity": 0.7874015748031497,
          "duration": 0.09414225000000087
        },
        {
          "name": "G#1",
          "midi": 32,
          "time": 17.19665100000004,
          "velocity": 0.7874015748031497,
          "duration": 0.09414225000000087
        },
        {
          "name": "A#1",
          "midi": 34,
          "time": 17.32217400000004,
          "velocity": 0.7874015748031497,
          "duration": 0.09414225000000087
        },
        {
          "name": "G#2",
          "midi": 44,
          "time": 17.44769700000004,
          "velocity": 0.7874015748031497,
          "duration": 0.03138075000000029
        },
        {
          "name": "D#1",
          "midi": 27,
          "time": 17.573220000000042,
          "velocity": 0.7874015748031497,
          "duration": 0.09414225000000087
        },
        {
          "name": "G#1",
          "midi": 32,
          "time": 17.824266000000044,
          "velocity": 0.7874015748031497,
          "duration": 0.25104599999999877
        },
        {
          "name": "F#1",
          "midi": 30,
          "time": 18.075312000000043,
          "velocity": 0.7874015748031497,
          "duration": 0.25104599999999877
        },
        {
          "name": "F#1",
          "midi": 30,
          "time": 18.828450000000043,
          "velocity": 0.7874015748031497,
          "duration": 0.25104599999999877
        },
        {
          "name": "F#1",
          "midi": 30,
          "time": 19.581588000000043,
          "velocity": 0.7874015748031497,
          "duration": 0.25104599999999877
        },
        {
          "name": "F#1",
          "midi": 30,
          "time": 20.334726000000042,
          "velocity": 0.7874015748031497,
          "duration": 0.25104599999999877
        },
        {
          "name": "A#1",
          "midi": 34,
          "time": 21.087864000000042,
          "velocity": 0.7874015748031497,
          "duration": 0.25104599999999877
        },
        {
          "name": "A#1",
          "midi": 34,
          "time": 21.841002000000042,
          "velocity": 0.7874015748031497,
          "duration": 0.25104599999999877
        },
        {
          "name": "C#2",
          "midi": 37,
          "time": 22.594140000000042,
          "velocity": 0.7874015748031497,
          "duration": 0.25104599999999877
        },
        {
          "name": "G#2",
          "midi": 44,
          "time": 23.352508125000043,
          "velocity": 0.7874015748031497,
          "duration": 0.25104599999999877
        },
        {
          "name": "C#2",
          "midi": 37,
          "time": 23.849370000000043,
          "velocity": 0.7874015748031497,
          "duration": 0.25104599999999877
        },
        {
          "name": "F#1",
          "midi": 30,
          "time": 24.100416000000042,
          "velocity": 0.7874015748031497,
          "duration": 0.2510460000000023
        },
        {
          "name": "F3",
          "midi": 53,
          "time": 24.100416000000042,
          "velocity": 0.7086614173228346,
          "duration": 0.06276150000000058
        },
        {
          "name": "F3",
          "midi": 53,
          "time": 24.225939000000043,
          "velocity": 0.7086614173228346,
          "duration": 0.06276150000000058
        },
        {
          "name": "F2",
          "midi": 41,
          "time": 24.351462000000044,
          "velocity": 0.7086614173228346,
          "duration": 0.06276150000000058
        },
        {
          "name": "F#1",
          "midi": 30,
          "time": 24.853554000000045,
          "velocity": 0.7874015748031497,
          "duration": 0.25104599999999877
        },
        {
          "name": "F#1",
          "midi": 30,
          "time": 25.606692000000045,
          "velocity": 0.7874015748031497,
          "duration": 0.25104599999999877
        },
        {
          "name": "F3",
          "midi": 53,
          "time": 25.857738000000044,
          "velocity": 0.7086614173228346,
          "duration": 0.06276150000000058
        },
        {
          "name": "F3",
          "midi": 53,
          "time": 25.983261000000045,
          "velocity": 0.7086614173228346,
          "duration": 0.06276150000000058
        },
        {
          "name": "A#3",
          "midi": 58,
          "time": 26.108784000000046,
          "velocity": 0.7086614173228346,
          "duration": 0.06276150000000058
        },
        {
          "name": "F3",
          "midi": 53,
          "time": 26.234307000000047,
          "velocity": 0.7086614173228346,
          "duration": 0.06276150000000058
        },
        {
          "name": "F#1",
          "midi": 30,
          "time": 26.35983000000005,
          "velocity": 0.7874015748031497,
          "duration": 0.12552300000000116
        },
        {
          "name": "A#2",
          "midi": 46,
          "time": 26.35983000000005,
          "velocity": 0.7086614173228346,
          "duration": 0.06276150000000058
        },
        {
          "name": "C3",
          "midi": 48,
          "time": 26.48535300000005,
          "velocity": 0.7086614173228346,
          "duration": 0.06276150000000058
        },
        {
          "name": "C#3",
          "midi": 49,
          "time": 26.61087600000005,
          "velocity": 0.7086614173228346,
          "duration": 0.06276150000000058
        },
        {
          "name": "G#1",
          "midi": 32,
          "time": 26.736399000000052,
          "velocity": 0.7086614173228346,
          "duration": 0.06276150000000058
        },
        {
          "name": "A#1",
          "midi": 34,
          "time": 26.861922000000053,
          "velocity": 0.7086614173228346,
          "duration": 0.06276150000000058
        },
        {
          "name": "C2",
          "midi": 36,
          "time": 26.987445000000054,
          "velocity": 0.7086614173228346,
          "duration": 0.06276150000000058
        },
        {
          "name": "A#1",
          "midi": 34,
          "time": 27.112968000000055,
          "velocity": 0.7086614173228346,
          "duration": 0.12552300000000116
        },
        {
          "name": "A#1",
          "midi": 34,
          "time": 27.364014000000058,
          "velocity": 0.7874015748031497,
          "duration": 0.21966524999999848
        },
        {
          "name": "A#1",
          "midi": 34,
          "time": 27.615060000000057,
          "velocity": 0.7874015748031497,
          "duration": 0.21966524999999848
        },
        {
          "name": "A#1",
          "midi": 34,
          "time": 27.866106000000055,
          "velocity": 0.7874015748031497,
          "duration": 0.09414225000000087
        },
        {
          "name": "A#1",
          "midi": 34,
          "time": 27.991629000000056,
          "velocity": 0.7874015748031497,
          "duration": 0.09414225000000087
        },
        {
          "name": "A#1",
          "midi": 34,
          "time": 28.117152000000058,
          "velocity": 0.7874015748031497,
          "duration": 0.09414225000000087
        },
        {
          "name": "A#2",
          "midi": 46,
          "time": 28.24267500000006,
          "velocity": 0.7874015748031497,
          "duration": 0.09414225000000087
        },
        {
          "name": "A#1",
          "midi": 34,
          "time": 28.36819800000006,
          "velocity": 0.7874015748031497,
          "duration": 0.09414225000000087
        },
        {
          "name": "A#2",
          "midi": 46,
          "time": 28.49372100000006,
          "velocity": 0.7874015748031497,
          "duration": 0.09414225000000087
        },
        {
          "name": "G#1",
          "midi": 32,
          "time": 28.619244000000062,
          "velocity": 0.7874015748031497,
          "duration": 0.25104599999999877
        },
        {
          "name": "D#1",
          "midi": 27,
          "time": 28.87029000000006,
          "velocity": 0.7874015748031497,
          "duration": 0.25104599999999877
        },
        {
          "name": "F#1",
          "midi": 30,
          "time": 29.12133600000006,
          "velocity": 0.7874015748031497,
          "duration": 0.25104599999999877
        },
        {
          "name": "G#1",
          "midi": 32,
          "time": 29.37238200000006,
          "velocity": 0.7874015748031497,
          "duration": 0.12552300000000116
        },
        {
          "name": "A#1",
          "midi": 34,
          "time": 29.49790500000006,
          "velocity": 0.7874015748031497,
          "duration": 0.12552300000000116
        },
        {
          "name": "C2",
          "midi": 36,
          "time": 29.62342800000006,
          "velocity": 0.7874015748031497,
          "duration": 0.25104599999999877
        },
        {
          "name": "D#2",
          "midi": 39,
          "time": 29.87447400000006,
          "velocity": 0.7874015748031497,
          "duration": 0.25104599999999877
        },
        {
          "name": "A#1",
          "midi": 34,
          "time": 30.12552000000006,
          "velocity": 0.7874015748031497,
          "duration": 0.09414225000000087
        },
        {
          "name": "A#2",
          "midi": 46,
          "time": 30.25104300000006,
          "velocity": 0.7874015748031497,
          "duration": 0.03138075000000029
        },
        {
          "name": "A#1",
          "midi": 34,
          "time": 30.37656600000006,
          "velocity": 0.7874015748031497,
          "duration": 0.09414225000000087
        },
        {
          "name": "C#2",
          "midi": 37,
          "time": 30.502089000000062,
          "velocity": 0.7874015748031497,
          "duration": 0.09414225000000087
        },
        {
          "name": "A#1",
          "midi": 34,
          "time": 30.627612000000063,
          "velocity": 0.7874015748031497,
          "duration": 0.09414225000000087
        },
        {
          "name": "F1",
          "midi": 29,
          "time": 30.753135000000064,
          "velocity": 0.7874015748031497,
          "duration": 0.09414225000000087
        },
        {
          "name": "A#1",
          "midi": 34,
          "time": 30.878658000000065,
          "velocity": 0.7874015748031497,
          "duration": 0.09414225000000087
        },
        {
          "name": "A#2",
          "midi": 46,
          "time": 31.004181000000067,
          "velocity": 0.7874015748031497,
          "duration": 0.01569037499999837
        },
        {
          "name": "A#1",
          "midi": 34,
          "time": 31.129704000000064,
          "velocity": 0.7874015748031497,
          "duration": 0.09414225000000087
        },
        {
          "name": "C#2",
          "midi": 37,
          "time": 31.255227000000065,
          "velocity": 0.7874015748031497,
          "duration": 0.09414225000000087
        },
        {
          "name": "A#1",
          "midi": 34,
          "time": 31.380750000000067,
          "velocity": 0.7874015748031497,
          "duration": 0.09414225000000087
        },
        {
          "name": "D#2",
          "midi": 39,
          "time": 31.506273000000068,
          "velocity": 0.7874015748031497,
          "duration": 0.09414225000000087
        },
        {
          "name": "G#1",
          "midi": 32,
          "time": 31.63179600000007,
          "velocity": 0.7874015748031497,
          "duration": 0.09414225000000087
        },
        {
          "name": "A#2",
          "midi": 46,
          "time": 31.75731900000007,
          "velocity": 0.7874015748031497,
          "duration": 0.01569037499999837
        },
        {
          "name": "D#1",
          "midi": 27,
          "time": 31.882842000000068,
          "velocity": 0.7874015748031497,
          "duration": 0.09414225000000087
        },
        {
          "name": "F1",
          "midi": 29,
          "time": 32.00836500000007,
          "velocity": 0.7874015748031497,
          "duration": 0.09414224999999732
        },
        {
          "name": "G#1",
          "midi": 32,
          "time": 32.13388800000006,
          "velocity": 0.7874015748031497,
          "duration": 0.09414224999999732
        },
        {
          "name": "D#1",
          "midi": 27,
          "time": 32.25941100000006,
          "velocity": 0.7874015748031497,
          "duration": 0.09414224999999732
        },
        {
          "name": "D#1",
          "midi": 27,
          "time": 32.38493400000005,
          "velocity": 0.7874015748031497,
          "duration": 0.2510460000000023
        },
        {
          "name": "F1",
          "midi": 29,
          "time": 32.63598000000005,
          "velocity": 0.7874015748031497,
          "duration": 0.2510460000000023
        },
        {
          "name": "G#1",
          "midi": 32,
          "time": 32.887026000000056,
          "velocity": 0.7874015748031497,
          "duration": 0.2510460000000023
        },
        {
          "name": "A#1",
          "midi": 34,
          "time": 33.13807200000006,
          "velocity": 0.7874015748031497,
          "duration": 0.09414224999999732
        },
        {
          "name": "A#2",
          "midi": 46,
          "time": 33.26359500000005,
          "velocity": 0.7874015748031497,
          "duration": 0.03138074999999674
        },
        {
          "name": "D#2",
          "midi": 39,
          "time": 33.389118000000046,
          "velocity": 0.7874015748031497,
          "duration": 0.09414224999999732
        },
        {
          "name": "F2",
          "midi": 41,
          "time": 33.51464100000004,
          "velocity": 0.7874015748031497,
          "duration": 0.09414224999999732
        },
        {
          "name": "C#2",
          "midi": 37,
          "time": 33.640164000000034,
          "velocity": 0.7874015748031497,
          "duration": 0.09414224999999732
        },
        {
          "name": "G#1",
          "midi": 32,
          "time": 33.76568700000003,
          "velocity": 0.7874015748031497,
          "duration": 0.09414224999999732
        },
        {
          "name": "A#1",
          "midi": 34,
          "time": 33.89121000000002,
          "velocity": 0.7874015748031497,
          "duration": 0.09414224999999732
        },
        {
          "name": "A#2",
          "midi": 46,
          "time": 34.016733000000016,
          "velocity": 0.7874015748031497,
          "duration": 0.03138074999999674
        },
        {
          "name": "D#2",
          "midi": 39,
          "time": 34.14225600000001,
          "velocity": 0.7874015748031497,
          "duration": 0.09414224999999732
        },
        {
          "name": "F2",
          "midi": 41,
          "time": 34.267779000000004,
          "velocity": 0.7874015748031497,
          "duration": 0.09414224999999732
        },
        {
          "name": "C#2",
          "midi": 37,
          "time": 34.393302,
          "velocity": 0.7874015748031497,
          "duration": 0.09414224999999732
        },
        {
          "name": "G#1",
          "midi": 32,
          "time": 34.51882499999999,
          "velocity": 0.7874015748031497,
          "duration": 0.09414224999999732
        },
        {
          "name": "A#1",
          "midi": 34,
          "time": 34.64434799999999,
          "velocity": 0.7874015748031497,
          "duration": 0.09414224999999732
        },
        {
          "name": "A#2",
          "midi": 46,
          "time": 34.76987099999998,
          "velocity": 0.7874015748031497,
          "duration": 0.03138074999999674
        },
        {
          "name": "D#2",
          "midi": 39,
          "time": 34.895393999999975,
          "velocity": 0.7874015748031497,
          "duration": 0.09414224999999732
        },
        {
          "name": "F2",
          "midi": 41,
          "time": 35.02091699999997,
          "velocity": 0.7874015748031497,
          "duration": 0.09414224999999732
        },
        {
          "name": "C#2",
          "midi": 37,
          "time": 35.14643999999996,
          "velocity": 0.7874015748031497,
          "duration": 0.09414224999999732
        },
        {
          "name": "G#1",
          "midi": 32,
          "time": 35.27196299999996,
          "velocity": 0.7874015748031497,
          "duration": 0.09414224999999732
        },
        {
          "name": "G#1",
          "midi": 32,
          "time": 35.39748599999995,
          "velocity": 0.7874015748031497,
          "duration": 0.09414224999999732
        },
        {
          "name": "D#1",
          "midi": 27,
          "time": 35.648531999999946,
          "velocity": 0.7874015748031497,
          "duration": 0.09414224999999732
        },
        {
          "name": "F1",
          "midi": 29,
          "time": 35.868197249999945,
          "velocity": 0.7874015748031497,
          "duration": 0.2510460000000023
        },
        {
          "name": "D#1",
          "midi": 27,
          "time": 36.150623999999944,
          "velocity": 0.7874015748031497,
          "duration": 0.09414224999999732
        },
        {
          "name": "D#2",
          "midi": 39,
          "time": 36.27614699999994,
          "velocity": 0.7874015748031497,
          "duration": 0.03138074999999674
        },
        {
          "name": "G#1",
          "midi": 32,
          "time": 36.40166999999993,
          "velocity": 0.7874015748031497,
          "duration": 0.09414224999999732
        },
        {
          "name": "A#1",
          "midi": 34,
          "time": 36.527192999999926,
          "velocity": 0.7874015748031497,
          "duration": 0.09414224999999732
        },
        {
          "name": "F#1",
          "midi": 30,
          "time": 36.65271599999992,
          "velocity": 0.7874015748031497,
          "duration": 0.09414224999999732
        },
        {
          "name": "D#1",
          "midi": 27,
          "time": 36.778238999999914,
          "velocity": 0.7874015748031497,
          "duration": 0.09414224999999732
        },
        {
          "name": "D#1",
          "midi": 27,
          "time": 36.90376199999991,
          "velocity": 0.7874015748031497,
          "duration": 0.09414224999999732
        },
        {
          "name": "D#2",
          "midi": 39,
          "time": 37.0292849999999,
          "velocity": 0.7874015748031497,
          "duration": 0.03138074999999674
        },
        {
          "name": "G#1",
          "midi": 32,
          "time": 37.154807999999896,
          "velocity": 0.7874015748031497,
          "duration": 0.09414224999999732
        },
        {
          "name": "A#1",
          "midi": 34,
          "time": 37.28033099999989,
          "velocity": 0.7874015748031497,
          "duration": 0.09414224999999732
        },
        {
          "name": "C2",
          "midi": 36,
          "time": 37.405853999999884,
          "velocity": 0.7874015748031497,
          "duration": 0.09414224999999732
        },
        {
          "name": "F1",
          "midi": 29,
          "time": 37.65689999999988,
          "velocity": 0.7874015748031497,
          "duration": 0.09414224999999732
        },
        {
          "name": "F2",
          "midi": 41,
          "time": 37.78242299999987,
          "velocity": 0.7874015748031497,
          "duration": 0.03138074999999674
        },
        {
          "name": "G#1",
          "midi": 32,
          "time": 37.90794599999987,
          "velocity": 0.7874015748031497,
          "duration": 0.09414224999999732
        },
        {
          "name": "G#2",
          "midi": 44,
          "time": 38.03346899999986,
          "velocity": 0.7874015748031497,
          "duration": 0.09414224999999732
        },
        {
          "name": "F2",
          "midi": 41,
          "time": 38.158991999999856,
          "velocity": 0.7874015748031497,
          "duration": 0.09414224999999732
        },
        {
          "name": "D#2",
          "midi": 39,
          "time": 38.28451499999985,
          "velocity": 0.7874015748031497,
          "duration": 0.09414224999999732
        },
        {
          "name": "F1",
          "midi": 29,
          "time": 38.410037999999844,
          "velocity": 0.7874015748031497,
          "duration": 0.09414224999999732
        },
        {
          "name": "F2",
          "midi": 41,
          "time": 38.53556099999984,
          "velocity": 0.7874015748031497,
          "duration": 0.03138074999999674
        },
        {
          "name": "G#1",
          "midi": 32,
          "time": 38.66108399999983,
          "velocity": 0.7874015748031497,
          "duration": 0.09414224999999732
        },
        {
          "name": "G#2",
          "midi": 44,
          "time": 38.786606999999826,
          "velocity": 0.7874015748031497,
          "duration": 0.09414224999999732
        },
        {
          "name": "G#1",
          "midi": 32,
          "time": 38.91212999999982,
          "velocity": 0.7874015748031497,
          "duration": 0.09414224999999732
        },
        {
          "name": "G#2",
          "midi": 44,
          "time": 39.037652999999814,
          "velocity": 0.7874015748031497,
          "duration": 0.09414224999999732
        },
        {
          "name": "F#1",
          "midi": 30,
          "time": 39.16317599999981,
          "velocity": 0.7874015748031497,
          "duration": 0.09414224999999732
        },
        {
          "name": "F#2",
          "midi": 42,
          "time": 39.2886989999998,
          "velocity": 0.7874015748031497,
          "duration": 0.03138074999999674
        },
        {
          "name": "C#2",
          "midi": 37,
          "time": 39.414221999999796,
          "velocity": 0.7874015748031497,
          "duration": 0.09414224999999732
        },
        {
          "name": "F2",
          "midi": 41,
          "time": 39.53974499999979,
          "velocity": 0.7874015748031497,
          "duration": 0.09414224999999732
        },
        {
          "name": "F#2",
          "midi": 42,
          "time": 39.665267999999784,
          "velocity": 0.7874015748031497,
          "duration": 0.09414224999999732
        },
        {
          "name": "F#1",
          "midi": 30,
          "time": 39.79079099999978,
          "velocity": 0.7874015748031497,
          "duration": 0.09414224999999732
        },
        {
          "name": "F#1",
          "midi": 30,
          "time": 39.91631399999977,
          "velocity": 0.7874015748031497,
          "duration": 0.09414224999999732
        },
        {
          "name": "F#2",
          "midi": 42,
          "time": 40.04183699999977,
          "velocity": 0.7874015748031497,
          "duration": 0.03138074999999674
        },
        {
          "name": "C#2",
          "midi": 37,
          "time": 40.16735999999976,
          "velocity": 0.7874015748031497,
          "duration": 0.09414224999999732
        },
        {
          "name": "F2",
          "midi": 41,
          "time": 40.292882999999755,
          "velocity": 0.7874015748031497,
          "duration": 0.09414224999999732
        },
        {
          "name": "F#2",
          "midi": 42,
          "time": 40.41840599999975,
          "velocity": 0.7874015748031497,
          "duration": 0.09414224999999732
        },
        {
          "name": "F#1",
          "midi": 30,
          "time": 40.54392899999974,
          "velocity": 0.7874015748031497,
          "duration": 0.09414224999999732
        },
        {
          "name": "F1",
          "midi": 29,
          "time": 40.66945199999974,
          "velocity": 0.7874015748031497,
          "duration": 0.09414224999999732
        },
        {
          "name": "F2",
          "midi": 41,
          "time": 40.79497499999973,
          "velocity": 0.7874015748031497,
          "duration": 0.03138074999999674
        },
        {
          "name": "G#1",
          "midi": 32,
          "time": 40.920497999999725,
          "velocity": 0.7874015748031497,
          "duration": 0.09414224999999732
        },
        {
          "name": "G#2",
          "midi": 44,
          "time": 41.04602099999972,
          "velocity": 0.7874015748031497,
          "duration": 0.09414224999999732
        },
        {
          "name": "F2",
          "midi": 41,
          "time": 41.17154399999971,
          "velocity": 0.7874015748031497,
          "duration": 0.09414224999999732
        },
        {
          "name": "D#2",
          "midi": 39,
          "time": 41.29706699999971,
          "velocity": 0.7874015748031497,
          "duration": 0.09414224999999732
        },
        {
          "name": "F1",
          "midi": 29,
          "time": 41.4225899999997,
          "velocity": 0.7874015748031497,
          "duration": 0.09414224999999732
        },
        {
          "name": "F2",
          "midi": 41,
          "time": 41.548112999999695,
          "velocity": 0.7874015748031497,
          "duration": 0.03138074999999674
        },
        {
          "name": "G#1",
          "midi": 32,
          "time": 41.67363599999969,
          "velocity": 0.7874015748031497,
          "duration": 0.09414224999999732
        },
        {
          "name": "G#2",
          "midi": 44,
          "time": 41.79915899999968,
          "velocity": 0.7874015748031497,
          "duration": 0.09414224999999732
        },
        {
          "name": "G#1",
          "midi": 32,
          "time": 41.92468199999968,
          "velocity": 0.7874015748031497,
          "duration": 0.09414224999999732
        },
        {
          "name": "G#2",
          "midi": 44,
          "time": 42.05020499999967,
          "velocity": 0.7874015748031497,
          "duration": 0.09414224999999732
        },
        {
          "name": "D#1",
          "midi": 27,
          "time": 42.175727999999665,
          "velocity": 0.7874015748031497,
          "duration": 0.09414224999999732
        },
        {
          "name": "D#2",
          "midi": 39,
          "time": 42.30125099999966,
          "velocity": 0.7874015748031497,
          "duration": 0.03138074999999674
        },
        {
          "name": "A#1",
          "midi": 34,
          "time": 42.426773999999654,
          "velocity": 0.7874015748031497,
          "duration": 0.09414224999999732
        },
        {
          "name": "C2",
          "midi": 36,
          "time": 42.55229699999965,
          "velocity": 0.7874015748031497,
          "duration": 0.09414224999999732
        },
        {
          "name": "C#2",
          "midi": 37,
          "time": 42.67781999999964,
          "velocity": 0.7874015748031497,
          "duration": 0.09414224999999732
        },
        {
          "name": "D#1",
          "midi": 27,
          "time": 42.803342999999636,
          "velocity": 0.7874015748031497,
          "duration": 0.09414224999999732
        },
        {
          "name": "D#1",
          "midi": 27,
          "time": 42.92886599999963,
          "velocity": 0.7874015748031497,
          "duration": 0.09414224999999732
        },
        {
          "name": "D#2",
          "midi": 39,
          "time": 43.054388999999624,
          "velocity": 0.7874015748031497,
          "duration": 0.03138074999999674
        },
        {
          "name": "A#1",
          "midi": 34,
          "time": 43.17991199999962,
          "velocity": 0.7874015748031497,
          "duration": 0.09414224999999732
        },
        {
          "name": "C2",
          "midi": 36,
          "time": 43.30543499999961,
          "velocity": 0.7874015748031497,
          "duration": 0.09414224999999732
        },
        {
          "name": "C#2",
          "midi": 37,
          "time": 43.430957999999606,
          "velocity": 0.7874015748031497,
          "duration": 0.09414224999999732
        },
        {
          "name": "D#1",
          "midi": 27,
          "time": 43.5564809999996,
          "velocity": 0.7874015748031497,
          "duration": 0.09414224999999732
        },
        {
          "name": "G#1",
          "midi": 32,
          "time": 43.682003999999594,
          "velocity": 0.7874015748031497,
          "duration": 0.21966524999999848
        },
        {
          "name": "C2",
          "midi": 36,
          "time": 43.93304999999959,
          "velocity": 0.7874015748031497,
          "duration": 0.21966524999999848
        },
        {
          "name": "D#2",
          "midi": 39,
          "time": 44.184095999999585,
          "velocity": 0.7874015748031497,
          "duration": 0.21966524999999848
        },
        {
          "name": "G#2",
          "midi": 44,
          "time": 44.43514199999958,
          "velocity": 0.7874015748031497,
          "duration": 0.09414224999999732
        },
        {
          "name": "D#2",
          "midi": 39,
          "time": 44.686187999999575,
          "velocity": 0.7874015748031497,
          "duration": 0.09414224999999732
        },
        {
          "name": "G#2",
          "midi": 44,
          "time": 44.81171099999957,
          "velocity": 0.7874015748031497,
          "duration": 0.09414224999999732
        },
        {
          "name": "D#2",
          "midi": 39,
          "time": 44.93723399999956,
          "velocity": 0.7874015748031497,
          "duration": 0.09414224999999732
        },
        {
          "name": "G#2",
          "midi": 44,
          "time": 45.06275699999956,
          "velocity": 0.7874015748031497,
          "duration": 0.09414224999999732
        },
        {
          "name": "A#1",
          "midi": 34,
          "time": 45.18827999999955,
          "velocity": 0.7874015748031497,
          "duration": 0.09414224999999732
        },
        {
          "name": "F#1",
          "midi": 30,
          "time": 45.313802999999545,
          "velocity": 0.7874015748031497,
          "duration": 0.09414224999999732
        },
        {
          "name": "C2",
          "midi": 36,
          "time": 45.43932599999954,
          "velocity": 0.7874015748031497,
          "duration": 0.09414224999999732
        },
        {
          "name": "F#1",
          "midi": 30,
          "time": 45.56484899999953,
          "velocity": 0.7874015748031497,
          "duration": 0.09414224999999732
        },
        {
          "name": "C#2",
          "midi": 37,
          "time": 45.69037199999953,
          "velocity": 0.7874015748031497,
          "duration": 0.09414224999999732
        },
        {
          "name": "F#1",
          "midi": 30,
          "time": 45.81589499999952,
          "velocity": 0.7874015748031497,
          "duration": 0.09414224999999732
        },
        {
          "name": "B1",
          "midi": 35,
          "time": 45.941417999999516,
          "velocity": 0.7874015748031497,
          "duration": 0.09414224999999732
        },
        {
          "name": "C#2",
          "midi": 37,
          "time": 46.06694099999951,
          "velocity": 0.7874015748031497,
          "duration": 0.09414224999999732
        },
        {
          "name": "D#2",
          "midi": 39,
          "time": 46.192463999999504,
          "velocity": 0.7874015748031497,
          "duration": 0.09414224999999732
        },
        {
          "name": "F#1",
          "midi": 30,
          "time": 46.3179869999995,
          "velocity": 0.7874015748031497,
          "duration": 0.09414224999999732
        },
        {
          "name": "B1",
          "midi": 35,
          "time": 46.44350999999949,
          "velocity": 0.7874015748031497,
          "duration": 0.09414224999999732
        },
        {
          "name": "C#2",
          "midi": 37,
          "time": 46.569032999999486,
          "velocity": 0.7874015748031497,
          "duration": 0.09414224999999732
        },
        {
          "name": "B1",
          "midi": 35,
          "time": 46.69455599999948,
          "velocity": 0.7874015748031497,
          "duration": 0.09414224999999732
        },
        {
          "name": "F#1",
          "midi": 30,
          "time": 46.820078999999474,
          "velocity": 0.7874015748031497,
          "duration": 0.09414224999999732
        },
        {
          "name": "C#2",
          "midi": 37,
          "time": 46.94560199999947,
          "velocity": 0.7874015748031497,
          "duration": 0.09414224999999732
        },
        {
          "name": "F#1",
          "midi": 30,
          "time": 47.07112499999946,
          "velocity": 0.7874015748031497,
          "duration": 0.09414224999999732
        },
        {
          "name": "D#2",
          "midi": 39,
          "time": 47.196647999999456,
          "velocity": 0.7874015748031497,
          "duration": 0.09414224999999732
        },
        {
          "name": "F#1",
          "midi": 30,
          "time": 47.32217099999945,
          "velocity": 0.7874015748031497,
          "duration": 0.09414224999999732
        },
        {
          "name": "F#2",
          "midi": 42,
          "time": 47.447693999999444,
          "velocity": 0.7874015748031497,
          "duration": 0.09414224999999732
        },
        {
          "name": "B1",
          "midi": 35,
          "time": 47.57321699999944,
          "velocity": 0.7874015748031497,
          "duration": 0.09414224999999732
        },
        {
          "name": "G#2",
          "midi": 44,
          "time": 47.69873999999943,
          "velocity": 0.7874015748031497,
          "duration": 0.09414224999999732
        },
        {
          "name": "C#2",
          "midi": 37,
          "time": 47.824262999999426,
          "velocity": 0.7874015748031497,
          "duration": 0.09414224999999732
        },
        {
          "name": "C#3",
          "midi": 49,
          "time": 47.94978599999942,
          "velocity": 0.7874015748031497,
          "duration": 0.09414224999999732
        },
        {
          "name": "G#2",
          "midi": 44,
          "time": 48.075308999999415,
          "velocity": 0.7874015748031497,
          "duration": 0.09414224999999732
        },
        {
          "name": "B1",
          "midi": 35,
          "time": 48.20083199999941,
          "velocity": 0.7874015748031497,
          "duration": 0.09414224999999732
        },
        {
          "name": "F#1",
          "midi": 30,
          "time": 48.3263549999994,
          "velocity": 0.7874015748031497,
          "duration": 0.09414224999999732
        },
        {
          "name": "C#2",
          "midi": 37,
          "time": 48.4518779999994,
          "velocity": 0.7874015748031497,
          "duration": 0.09414224999999732
        },
        {
          "name": "F#1",
          "midi": 30,
          "time": 48.57740099999939,
          "velocity": 0.7874015748031497,
          "duration": 0.09414224999999732
        },
        {
          "name": "D#2",
          "midi": 39,
          "time": 48.702923999999385,
          "velocity": 0.7874015748031497,
          "duration": 0.09414224999999732
        },
        {
          "name": "F#1",
          "midi": 30,
          "time": 48.82844699999938,
          "velocity": 0.7874015748031497,
          "duration": 0.09414224999999732
        },
        {
          "name": "B1",
          "midi": 35,
          "time": 48.95396999999937,
          "velocity": 0.7874015748031497,
          "duration": 0.09414224999999732
        },
        {
          "name": "F#1",
          "midi": 30,
          "time": 49.07949299999937,
          "velocity": 0.7874015748031497,
          "duration": 0.09414224999999732
        },
        {
          "name": "C#2",
          "midi": 37,
          "time": 49.20501599999936,
          "velocity": 0.7874015748031497,
          "duration": 0.09414224999999732
        },
        {
          "name": "F#1",
          "midi": 30,
          "time": 49.330538999999355,
          "velocity": 0.7874015748031497,
          "duration": 0.09414224999999732
        },
        {
          "name": "D#2",
          "midi": 39,
          "time": 49.45606199999935,
          "velocity": 0.7874015748031497,
          "duration": 0.09414224999999732
        },
        {
          "name": "F#1",
          "midi": 30,
          "time": 49.58158499999934,
          "velocity": 0.7874015748031497,
          "duration": 0.09414224999999732
        },
        {
          "name": "F#2",
          "midi": 42,
          "time": 49.70710799999934,
          "velocity": 0.7874015748031497,
          "duration": 0.09414224999999732
        },
        {
          "name": "B1",
          "midi": 35,
          "time": 49.83263099999933,
          "velocity": 0.7874015748031497,
          "duration": 0.09414224999999732
        },
        {
          "name": "G#2",
          "midi": 44,
          "time": 49.958153999999325,
          "velocity": 0.7874015748031497,
          "duration": 0.09414224999999732
        },
        {
          "name": "C#2",
          "midi": 37,
          "time": 50.08367699999932,
          "velocity": 0.7874015748031497,
          "duration": 0.09414224999999732
        },
        {
          "name": "C#3",
          "midi": 49,
          "time": 50.20919999999931,
          "velocity": 0.7874015748031497,
          "duration": 0.09414224999999732
        },
        {
          "name": "G#2",
          "midi": 44,
          "time": 50.33472299999931,
          "velocity": 0.7874015748031497,
          "duration": 0.09414224999999732
        },
        {
          "name": "B2",
          "midi": 47,
          "time": 50.4602459999993,
          "velocity": 0.7874015748031497,
          "duration": 0.09414224999999732
        },
        {
          "name": "F#2",
          "midi": 42,
          "time": 50.585768999999296,
          "velocity": 0.7874015748031497,
          "duration": 0.09414224999999732
        },
        {
          "name": "F#3",
          "midi": 54,
          "time": 50.71129199999929,
          "velocity": 0.7874015748031497,
          "duration": 0.09414224999999732
        },
        {
          "name": "B3",
          "midi": 59,
          "time": 50.962337999999285,
          "velocity": 0.7874015748031497,
          "duration": 0.09414224999999732
        },
        {
          "name": "B0",
          "midi": 23,
          "time": 51.21338399999928,
          "velocity": 0.7874015748031497,
          "duration": 0.2510460000000023
        },
        {
          "name": "B0",
          "midi": 23,
          "time": 51.96652199999928,
          "velocity": 0.7874015748031497,
          "duration": 0.2510460000000023
        },
        {
          "name": "B0",
          "midi": 23,
          "time": 52.71965999999928,
          "velocity": 0.7874015748031497,
          "duration": 0.2510460000000023
        },
        {
          "name": "B0",
          "midi": 23,
          "time": 53.47279799999928,
          "velocity": 0.7874015748031497,
          "duration": 0.2510460000000023
        },
        {
          "name": "A#0",
          "midi": 22,
          "time": 54.22593599999928,
          "velocity": 0.7874015748031497,
          "duration": 0.2510460000000023
        },
        {
          "name": "A#0",
          "midi": 22,
          "time": 54.97907399999928,
          "velocity": 0.7874015748031497,
          "duration": 0.2510460000000023
        },
        {
          "name": "A#0",
          "midi": 22,
          "time": 55.73221199999928,
          "velocity": 0.7874015748031497,
          "duration": 0.2510460000000023
        },
        {
          "name": "A#0",
          "midi": 22,
          "time": 56.48534999999928,
          "velocity": 0.7874015748031497,
          "duration": 0.2510460000000023
        },
        {
          "name": "B0",
          "midi": 23,
          "time": 57.23848799999928,
          "velocity": 0.7874015748031497,
          "duration": 0.2510460000000023
        },
        {
          "name": "B2",
          "midi": 47,
          "time": 57.61505699999928,
          "velocity": 0.7874015748031497,
          "duration": 0.04184099999999802
        },
        {
          "name": "B2",
          "midi": 47,
          "time": 57.86610299999928,
          "velocity": 0.7874015748031497,
          "duration": 0.04184099999999802
        },
        {
          "name": "B0",
          "midi": 23,
          "time": 57.99162599999928,
          "velocity": 0.7874015748031497,
          "duration": 0.2510460000000023
        },
        {
          "name": "B0",
          "midi": 23,
          "time": 58.74476399999928,
          "velocity": 0.7874015748031497,
          "duration": 0.2510460000000023
        },
        {
          "name": "F1",
          "midi": 29,
          "time": 58.99580999999928,
          "velocity": 0.7874015748031497,
          "duration": 0.04184099999999802
        },
        {
          "name": "F#1",
          "midi": 30,
          "time": 59.12133299999928,
          "velocity": 0.7874015748031497,
          "duration": 0.04184099999999802
        },
        {
          "name": "F1",
          "midi": 29,
          "time": 59.24685599999928,
          "velocity": 0.7874015748031497,
          "duration": 0.04184099999999802
        },
        {
          "name": "F#1",
          "midi": 30,
          "time": 59.372378999999285,
          "velocity": 0.7874015748031497,
          "duration": 0.04184099999999802
        },
        {
          "name": "B0",
          "midi": 23,
          "time": 59.497901999999286,
          "velocity": 0.7874015748031497,
          "duration": 0.2510460000000023
        },
        {
          "name": "F#1",
          "midi": 30,
          "time": 59.74894799999929,
          "velocity": 0.7874015748031497,
          "duration": 0.04184099999999802
        },
        {
          "name": "G#1",
          "midi": 32,
          "time": 59.99999399999928,
          "velocity": 0.7874015748031497,
          "duration": 0.04184099999999802
        },
        {
          "name": "A#0",
          "midi": 22,
          "time": 60.25103999999928,
          "velocity": 0.7874015748031497,
          "duration": 0.2510460000000023
        },
        {
          "name": "A#0",
          "midi": 22,
          "time": 61.00417799999928,
          "velocity": 0.7874015748031497,
          "duration": 0.2510460000000023
        },
        {
          "name": "F1",
          "midi": 29,
          "time": 61.25522399999928,
          "velocity": 0.7874015748031497,
          "duration": 0.12552300000000116
        },
        {
          "name": "A#1",
          "midi": 34,
          "time": 61.50626999999928,
          "velocity": 0.7874015748031497,
          "duration": 0.12552300000000116
        },
        {
          "name": "A#0",
          "midi": 22,
          "time": 61.757315999999285,
          "velocity": 0.7874015748031497,
          "duration": 0.2510460000000023
        },
        {
          "name": "F1",
          "midi": 29,
          "time": 62.00836199999929,
          "velocity": 0.7874015748031497,
          "duration": 0.04184099999999802
        },
        {
          "name": "A#1",
          "midi": 34,
          "time": 62.13388499999929,
          "velocity": 0.7874015748031497,
          "duration": 0.04184099999999802
        },
        {
          "name": "F#1",
          "midi": 30,
          "time": 62.25940799999929,
          "velocity": 0.7874015748031497,
          "duration": 0.04184099999999802
        },
        {
          "name": "A#1",
          "midi": 34,
          "time": 62.38493099999929,
          "velocity": 0.7874015748031497,
          "duration": 0.04184099999999802
        },
        {
          "name": "F1",
          "midi": 29,
          "time": 62.51045399999929,
          "velocity": 0.7874015748031497,
          "duration": 0.2510460000000023
        },
        {
          "name": "F2",
          "midi": 41,
          "time": 62.761499999999295,
          "velocity": 0.7874015748031497,
          "duration": 0.2510460000000023
        },
        {
          "name": "F1",
          "midi": 29,
          "time": 63.0125459999993,
          "velocity": 0.7874015748031497,
          "duration": 0.2510460000000023
        },
        {
          "name": "B0",
          "midi": 23,
          "time": 63.2635919999993,
          "velocity": 0.7874015748031497,
          "duration": 0.2510460000000023
        },
        {
          "name": "B2",
          "midi": 47,
          "time": 63.6401609999993,
          "velocity": 0.7874015748031497,
          "duration": 0.04184099999999802
        },
        {
          "name": "B2",
          "midi": 47,
          "time": 63.8912069999993,
          "velocity": 0.7874015748031497,
          "duration": 0.04184099999999802
        },
        {
          "name": "B0",
          "midi": 23,
          "time": 64.0167299999993,
          "velocity": 0.7874015748031497,
          "duration": 0.2510460000000023
        },
        {
          "name": "B0",
          "midi": 23,
          "time": 64.7698679999993,
          "velocity": 0.7874015748031497,
          "duration": 0.2510460000000023
        },
        {
          "name": "F1",
          "midi": 29,
          "time": 65.02091399999931,
          "velocity": 0.7874015748031497,
          "duration": 0.041841000000005124
        },
        {
          "name": "F#1",
          "midi": 30,
          "time": 65.14643699999931,
          "velocity": 0.7874015748031497,
          "duration": 0.041841000000005124
        },
        {
          "name": "F1",
          "midi": 29,
          "time": 65.27195999999931,
          "velocity": 0.7874015748031497,
          "duration": 0.041841000000005124
        },
        {
          "name": "F#1",
          "midi": 30,
          "time": 65.39748299999931,
          "velocity": 0.7874015748031497,
          "duration": 0.041841000000005124
        },
        {
          "name": "B0",
          "midi": 23,
          "time": 65.52300599999931,
          "velocity": 0.7874015748031497,
          "duration": 0.2510460000000023
        },
        {
          "name": "F#1",
          "midi": 30,
          "time": 65.77405199999932,
          "velocity": 0.7874015748031497,
          "duration": 0.041841000000005124
        },
        {
          "name": "G#1",
          "midi": 32,
          "time": 66.02509799999932,
          "velocity": 0.7874015748031497,
          "duration": 0.041841000000005124
        },
        {
          "name": "A#0",
          "midi": 22,
          "time": 66.27614399999932,
          "velocity": 0.7874015748031497,
          "duration": 0.2510460000000023
        },
        {
          "name": "A#0",
          "midi": 22,
          "time": 67.02928199999933,
          "velocity": 0.7874015748031497,
          "duration": 0.2510460000000023
        },
        {
          "name": "F1",
          "midi": 29,
          "time": 67.28032799999933,
          "velocity": 0.7874015748031497,
          "duration": 0.12552300000000116
        },
        {
          "name": "A#1",
          "midi": 34,
          "time": 67.53137399999933,
          "velocity": 0.7874015748031497,
          "duration": 0.12552300000000116
        },
        {
          "name": "A#0",
          "midi": 22,
          "time": 67.78241999999933,
          "velocity": 0.7874015748031497,
          "duration": 0.2510460000000023
        },
        {
          "name": "F1",
          "midi": 29,
          "time": 68.03346599999934,
          "velocity": 0.7874015748031497,
          "duration": 0.041841000000005124
        },
        {
          "name": "A#1",
          "midi": 34,
          "time": 68.15898899999934,
          "velocity": 0.7874015748031497,
          "duration": 0.041841000000005124
        },
        {
          "name": "F#1",
          "midi": 30,
          "time": 68.28451199999934,
          "velocity": 0.7874015748031497,
          "duration": 0.041841000000005124
        },
        {
          "name": "A#1",
          "midi": 34,
          "time": 68.41003499999934,
          "velocity": 0.7874015748031497,
          "duration": 0.041841000000005124
        },
        {
          "name": "F1",
          "midi": 29,
          "time": 68.53555799999934,
          "velocity": 0.7874015748031497,
          "duration": 0.2510460000000023
        },
        {
          "name": "F2",
          "midi": 41,
          "time": 68.78660399999934,
          "velocity": 0.7874015748031497,
          "duration": 0.2510460000000023
        },
        {
          "name": "F1",
          "midi": 29,
          "time": 69.03764999999935,
          "velocity": 0.7874015748031497,
          "duration": 0.2510460000000023
        },
        {
          "name": "B0",
          "midi": 23,
          "time": 69.28869599999935,
          "velocity": 0.7874015748031497,
          "duration": 0.2510460000000023
        },
        {
          "name": "B2",
          "midi": 47,
          "time": 69.66526499999935,
          "velocity": 0.7874015748031497,
          "duration": 0.041841000000005124
        },
        {
          "name": "B2",
          "midi": 47,
          "time": 69.91631099999935,
          "velocity": 0.7874015748031497,
          "duration": 0.041841000000005124
        },
        {
          "name": "B0",
          "midi": 23,
          "time": 70.04183399999935,
          "velocity": 0.7874015748031497,
          "duration": 0.2510460000000023
        },
        {
          "name": "B0",
          "midi": 23,
          "time": 70.79497199999936,
          "velocity": 0.7874015748031497,
          "duration": 0.2510460000000023
        },
        {
          "name": "F1",
          "midi": 29,
          "time": 71.04601799999936,
          "velocity": 0.7874015748031497,
          "duration": 0.041841000000005124
        },
        {
          "name": "F#1",
          "midi": 30,
          "time": 71.17154099999937,
          "velocity": 0.7874015748031497,
          "duration": 0.041841000000005124
        },
        {
          "name": "F1",
          "midi": 29,
          "time": 71.29706399999937,
          "velocity": 0.7874015748031497,
          "duration": 0.041841000000005124
        },
        {
          "name": "F#1",
          "midi": 30,
          "time": 71.42258699999937,
          "velocity": 0.7874015748031497,
          "duration": 0.041841000000005124
        },
        {
          "name": "B0",
          "midi": 23,
          "time": 71.54810999999937,
          "velocity": 0.7874015748031497,
          "duration": 0.2510460000000023
        },
        {
          "name": "F#1",
          "midi": 30,
          "time": 71.79915599999937,
          "velocity": 0.7874015748031497,
          "duration": 0.041841000000005124
        },
        {
          "name": "G#1",
          "midi": 32,
          "time": 72.05020199999937,
          "velocity": 0.7874015748031497,
          "duration": 0.041841000000005124
        },
        {
          "name": "A#0",
          "midi": 22,
          "time": 72.30124799999938,
          "velocity": 0.7874015748031497,
          "duration": 0.2510460000000023
        },
        {
          "name": "A#0",
          "midi": 22,
          "time": 73.05438599999938,
          "velocity": 0.7874015748031497,
          "duration": 0.2510460000000023
        },
        {
          "name": "F1",
          "midi": 29,
          "time": 73.30543199999939,
          "velocity": 0.7874015748031497,
          "duration": 0.12552300000000116
        },
        {
          "name": "A#1",
          "midi": 34,
          "time": 73.55647799999939,
          "velocity": 0.7874015748031497,
          "duration": 0.12552300000000116
        },
        {
          "name": "A#0",
          "midi": 22,
          "time": 73.80752399999939,
          "velocity": 0.7874015748031497,
          "duration": 0.2510460000000023
        },
        {
          "name": "F1",
          "midi": 29,
          "time": 74.05856999999939,
          "velocity": 0.7874015748031497,
          "duration": 0.041841000000005124
        },
        {
          "name": "A#1",
          "midi": 34,
          "time": 74.1840929999994,
          "velocity": 0.7874015748031497,
          "duration": 0.041841000000005124
        },
        {
          "name": "F#1",
          "midi": 30,
          "time": 74.3096159999994,
          "velocity": 0.7874015748031497,
          "duration": 0.041841000000005124
        },
        {
          "name": "A#1",
          "midi": 34,
          "time": 74.4351389999994,
          "velocity": 0.7874015748031497,
          "duration": 0.041841000000005124
        },
        {
          "name": "F1",
          "midi": 29,
          "time": 74.5606619999994,
          "velocity": 0.7874015748031497,
          "duration": 0.2510460000000023
        },
        {
          "name": "F2",
          "midi": 41,
          "time": 74.8117079999994,
          "velocity": 0.7874015748031497,
          "duration": 0.2510460000000023
        },
        {
          "name": "F1",
          "midi": 29,
          "time": 75.0627539999994,
          "velocity": 0.7874015748031497,
          "duration": 0.2510460000000023
        },
        {
          "name": "B0",
          "midi": 23,
          "time": 75.3137999999994,
          "velocity": 0.7874015748031497,
          "duration": 0.2510460000000023
        },
        {
          "name": "B2",
          "midi": 47,
          "time": 75.69036899999941,
          "velocity": 0.7874015748031497,
          "duration": 0.041841000000005124
        },
        {
          "name": "B2",
          "midi": 47,
          "time": 75.94141499999941,
          "velocity": 0.7874015748031497,
          "duration": 0.041841000000005124
        },
        {
          "name": "B0",
          "midi": 23,
          "time": 76.06693799999941,
          "velocity": 0.7874015748031497,
          "duration": 0.2510460000000023
        },
        {
          "name": "B0",
          "midi": 23,
          "time": 76.82007599999942,
          "velocity": 0.7874015748031497,
          "duration": 0.2510460000000023
        },
        {
          "name": "F1",
          "midi": 29,
          "time": 77.07112199999942,
          "velocity": 0.7874015748031497,
          "duration": 0.041841000000005124
        },
        {
          "name": "F#1",
          "midi": 30,
          "time": 77.19664499999942,
          "velocity": 0.7874015748031497,
          "duration": 0.041841000000005124
        },
        {
          "name": "F1",
          "midi": 29,
          "time": 77.32216799999942,
          "velocity": 0.7874015748031497,
          "duration": 0.041841000000005124
        },
        {
          "name": "F#1",
          "midi": 30,
          "time": 77.44769099999942,
          "velocity": 0.7874015748031497,
          "duration": 0.041841000000005124
        },
        {
          "name": "B0",
          "midi": 23,
          "time": 77.57321399999942,
          "velocity": 0.7874015748031497,
          "duration": 0.2510460000000023
        },
        {
          "name": "F#1",
          "midi": 30,
          "time": 77.82425999999943,
          "velocity": 0.7874015748031497,
          "duration": 0.041841000000005124
        },
        {
          "name": "G#1",
          "midi": 32,
          "time": 78.07530599999943,
          "velocity": 0.7874015748031497,
          "duration": 0.041841000000005124
        },
        {
          "name": "A#0",
          "midi": 22,
          "time": 78.32635199999943,
          "velocity": 0.7874015748031497,
          "duration": 0.2510460000000023
        },
        {
          "name": "A#0",
          "midi": 22,
          "time": 79.07948999999944,
          "velocity": 0.7874015748031497,
          "duration": 0.2510460000000023
        },
        {
          "name": "F1",
          "midi": 29,
          "time": 79.33053599999944,
          "velocity": 0.7874015748031497,
          "duration": 0.12552300000000116
        },
        {
          "name": "A#1",
          "midi": 34,
          "time": 79.58158199999944,
          "velocity": 0.7874015748031497,
          "duration": 0.12552300000000116
        },
        {
          "name": "A#0",
          "midi": 22,
          "time": 79.83262799999945,
          "velocity": 0.7874015748031497,
          "duration": 0.2510460000000023
        },
        {
          "name": "F1",
          "midi": 29,
          "time": 80.08367399999945,
          "velocity": 0.7874015748031497,
          "duration": 0.041841000000005124
        },
        {
          "name": "A#1",
          "midi": 34,
          "time": 80.20919699999945,
          "velocity": 0.7874015748031497,
          "duration": 0.041841000000005124
        },
        {
          "name": "F#1",
          "midi": 30,
          "time": 80.33471999999945,
          "velocity": 0.7874015748031497,
          "duration": 0.041841000000005124
        },
        {
          "name": "A#1",
          "midi": 34,
          "time": 80.46024299999945,
          "velocity": 0.7874015748031497,
          "duration": 0.041841000000005124
        },
        {
          "name": "F1",
          "midi": 29,
          "time": 80.58576599999945,
          "velocity": 0.7874015748031497,
          "duration": 0.2510460000000023
        },
        {
          "name": "F2",
          "midi": 41,
          "time": 80.83681199999945,
          "velocity": 0.7874015748031497,
          "duration": 0.2510460000000023
        },
        {
          "name": "F1",
          "midi": 29,
          "time": 81.08785799999946,
          "velocity": 0.7874015748031497,
          "duration": 0.2510460000000023
        },
        {
          "name": "F#1",
          "midi": 30,
          "time": 81.33890399999946,
          "velocity": 0.7874015748031497,
          "duration": 0.2510460000000023
        },
        {
          "name": "F#2",
          "midi": 42,
          "time": 81.71547299999946,
          "velocity": 0.7874015748031497,
          "duration": 0.041841000000005124
        },
        {
          "name": "F#2",
          "midi": 42,
          "time": 81.96651899999947,
          "velocity": 0.7874015748031497,
          "duration": 0.041841000000005124
        },
        {
          "name": "F#1",
          "midi": 30,
          "time": 82.09204199999947,
          "velocity": 0.7874015748031497,
          "duration": 0.2510460000000023
        },
        {
          "name": "C#2",
          "midi": 37,
          "time": 82.46861099999947,
          "velocity": 0.7874015748031497,
          "duration": 0.041841000000005124
        },
        {
          "name": "A#1",
          "midi": 34,
          "time": 82.59413399999947,
          "velocity": 0.7874015748031497,
          "duration": 0.041841000000005124
        },
        {
          "name": "G1",
          "midi": 31,
          "time": 82.71965699999947,
          "velocity": 0.7874015748031497,
          "duration": 0.041841000000005124
        },
        {
          "name": "G#1",
          "midi": 32,
          "time": 82.84517999999947,
          "velocity": 0.7874015748031497,
          "duration": 0.2510460000000023
        },
        {
          "name": "G#2",
          "midi": 44,
          "time": 83.22174899999948,
          "velocity": 0.7874015748031497,
          "duration": 0.041841000000005124
        },
        {
          "name": "G#2",
          "midi": 44,
          "time": 83.47279499999948,
          "velocity": 0.7874015748031497,
          "duration": 0.041841000000005124
        },
        {
          "name": "G#1",
          "midi": 32,
          "time": 83.59831799999948,
          "velocity": 0.7874015748031497,
          "duration": 0.2510460000000023
        },
        {
          "name": "F1",
          "midi": 29,
          "time": 83.84936399999948,
          "velocity": 0.7874015748031497,
          "duration": 0.12552300000000116
        },
        {
          "name": "G#1",
          "midi": 32,
          "time": 84.10040999999948,
          "velocity": 0.7874015748031497,
          "duration": 0.12552300000000116
        },
        {
          "name": "A#0",
          "midi": 22,
          "time": 84.35145599999949,
          "velocity": 0.7874015748031497,
          "duration": 0.2510460000000023
        },
        {
          "name": "G#1",
          "midi": 32,
          "time": 84.60250199999949,
          "velocity": 0.7874015748031497,
          "duration": 0.12552300000000116
        },
        {
          "name": "A#1",
          "midi": 34,
          "time": 84.85354799999949,
          "velocity": 0.7874015748031497,
          "duration": 0.12552300000000116
        },
        {
          "name": "A#0",
          "midi": 22,
          "time": 85.1045939999995,
          "velocity": 0.7874015748031497,
          "duration": 0.2510460000000023
        },
        {
          "name": "G#1",
          "midi": 32,
          "time": 85.3556399999995,
          "velocity": 0.7874015748031497,
          "duration": 0.12552300000000116
        },
        {
          "name": "A#1",
          "midi": 34,
          "time": 85.6066859999995,
          "velocity": 0.7874015748031497,
          "duration": 0.12552300000000116
        },
        {
          "name": "G#1",
          "midi": 32,
          "time": 85.8577319999995,
          "velocity": 0.7874015748031497,
          "duration": 0.2510460000000023
        },
        {
          "name": "D#1",
          "midi": 27,
          "time": 86.1087779999995,
          "velocity": 0.7874015748031497,
          "duration": 0.2510460000000023
        },
        {
          "name": "F#1",
          "midi": 30,
          "time": 86.3598239999995,
          "velocity": 0.7874015748031497,
          "duration": 0.2510460000000023
        },
        {
          "name": "G#1",
          "midi": 32,
          "time": 86.61086999999951,
          "velocity": 0.7874015748031497,
          "duration": 0.12552300000000116
        },
        {
          "name": "A#1",
          "midi": 34,
          "time": 86.73639299999951,
          "velocity": 0.7874015748031497,
          "duration": 0.12552300000000116
        },
        {
          "name": "C2",
          "midi": 36,
          "time": 86.86191599999951,
          "velocity": 0.7874015748031497,
          "duration": 0.2510460000000023
        },
        {
          "name": "D#2",
          "midi": 39,
          "time": 87.11296199999951,
          "velocity": 0.7874015748031497,
          "duration": 0.2510460000000023
        },
        {
          "name": "A#1",
          "midi": 34,
          "time": 87.36400799999952,
          "velocity": 0.7874015748031497,
          "duration": 0.09414225000000442
        },
        {
          "name": "A#2",
          "midi": 46,
          "time": 87.48953099999952,
          "velocity": 0.7874015748031497,
          "duration": 0.03138074999999674
        },
        {
          "name": "A#1",
          "midi": 34,
          "time": 87.61505399999952,
          "velocity": 0.7874015748031497,
          "duration": 0.09414225000000442
        },
        {
          "name": "C#2",
          "midi": 37,
          "time": 87.74057699999952,
          "velocity": 0.7874015748031497,
          "duration": 0.09414225000000442
        },
        {
          "name": "A#1",
          "midi": 34,
          "time": 87.86609999999952,
          "velocity": 0.7874015748031497,
          "duration": 0.09414225000000442
        },
        {
          "name": "F1",
          "midi": 29,
          "time": 87.99162299999952,
          "velocity": 0.7874015748031497,
          "duration": 0.09414225000000442
        },
        {
          "name": "A#1",
          "midi": 34,
          "time": 88.11714599999952,
          "velocity": 0.7874015748031497,
          "duration": 0.09414225000000442
        },
        {
          "name": "A#2",
          "midi": 46,
          "time": 88.24266899999952,
          "velocity": 0.7874015748031497,
          "duration": 0.015690375000005474
        },
        {
          "name": "A#1",
          "midi": 34,
          "time": 88.36819199999952,
          "velocity": 0.7874015748031497,
          "duration": 0.09414225000000442
        },
        {
          "name": "C#2",
          "midi": 37,
          "time": 88.49371499999953,
          "velocity": 0.7874015748031497,
          "duration": 0.09414225000000442
        },
        {
          "name": "A#1",
          "midi": 34,
          "time": 88.61923799999953,
          "velocity": 0.7874015748031497,
          "duration": 0.09414225000000442
        },
        {
          "name": "D#2",
          "midi": 39,
          "time": 88.74476099999953,
          "velocity": 0.7874015748031497,
          "duration": 0.09414225000000442
        },
        {
          "name": "G#1",
          "midi": 32,
          "time": 88.87028399999953,
          "velocity": 0.7874015748031497,
          "duration": 0.09414225000000442
        },
        {
          "name": "A#2",
          "midi": 46,
          "time": 88.99580699999953,
          "velocity": 0.7874015748031497,
          "duration": 0.015690375000005474
        },
        {
          "name": "D#1",
          "midi": 27,
          "time": 89.12132999999953,
          "velocity": 0.7874015748031497,
          "duration": 0.09414225000000442
        },
        {
          "name": "F1",
          "midi": 29,
          "time": 89.24685299999953,
          "velocity": 0.7874015748031497,
          "duration": 0.09414225000000442
        },
        {
          "name": "G#1",
          "midi": 32,
          "time": 89.37237599999953,
          "velocity": 0.7874015748031497,
          "duration": 0.09414225000000442
        },
        {
          "name": "D#1",
          "midi": 27,
          "time": 89.49789899999953,
          "velocity": 0.7874015748031497,
          "duration": 0.09414225000000442
        },
        {
          "name": "D#1",
          "midi": 27,
          "time": 89.62342199999954,
          "velocity": 0.7874015748031497,
          "duration": 0.2510460000000023
        },
        {
          "name": "F1",
          "midi": 29,
          "time": 89.87446799999954,
          "velocity": 0.7874015748031497,
          "duration": 0.2510460000000023
        },
        {
          "name": "G#1",
          "midi": 32,
          "time": 90.12551399999954,
          "velocity": 0.7874015748031497,
          "duration": 0.2510460000000023
        },
        {
          "name": "A#1",
          "midi": 34,
          "time": 90.37655999999954,
          "velocity": 0.7874015748031497,
          "duration": 0.09414225000000442
        },
        {
          "name": "A#2",
          "midi": 46,
          "time": 90.50208299999954,
          "velocity": 0.7874015748031497,
          "duration": 0.03138074999999674
        },
        {
          "name": "D#2",
          "midi": 39,
          "time": 90.62760599999955,
          "velocity": 0.7874015748031497,
          "duration": 0.09414225000000442
        },
        {
          "name": "F2",
          "midi": 41,
          "time": 90.75312899999955,
          "velocity": 0.7874015748031497,
          "duration": 0.09414225000000442
        },
        {
          "name": "C#2",
          "midi": 37,
          "time": 90.87865199999955,
          "velocity": 0.7874015748031497,
          "duration": 0.09414225000000442
        },
        {
          "name": "G#1",
          "midi": 32,
          "time": 91.00417499999955,
          "velocity": 0.7874015748031497,
          "duration": 0.09414225000000442
        },
        {
          "name": "A#1",
          "midi": 34,
          "time": 91.12969799999955,
          "velocity": 0.7874015748031497,
          "duration": 0.09414225000000442
        },
        {
          "name": "A#2",
          "midi": 46,
          "time": 91.25522099999955,
          "velocity": 0.7874015748031497,
          "duration": 0.03138074999999674
        },
        {
          "name": "D#2",
          "midi": 39,
          "time": 91.38074399999955,
          "velocity": 0.7874015748031497,
          "duration": 0.09414225000000442
        },
        {
          "name": "F2",
          "midi": 41,
          "time": 91.50626699999955,
          "velocity": 0.7874015748031497,
          "duration": 0.09414225000000442
        },
        {
          "name": "C#2",
          "midi": 37,
          "time": 91.63178999999955,
          "velocity": 0.7874015748031497,
          "duration": 0.09414225000000442
        },
        {
          "name": "G#1",
          "midi": 32,
          "time": 91.75731299999956,
          "velocity": 0.7874015748031497,
          "duration": 0.09414225000000442
        },
        {
          "name": "A#1",
          "midi": 34,
          "time": 91.88283599999956,
          "velocity": 0.7874015748031497,
          "duration": 0.09414225000000442
        },
        {
          "name": "A#2",
          "midi": 46,
          "time": 92.00835899999956,
          "velocity": 0.7874015748031497,
          "duration": 0.03138074999999674
        },
        {
          "name": "D#2",
          "midi": 39,
          "time": 92.13388199999956,
          "velocity": 0.7874015748031497,
          "duration": 0.09414225000000442
        },
        {
          "name": "F2",
          "midi": 41,
          "time": 92.25940499999956,
          "velocity": 0.7874015748031497,
          "duration": 0.09414225000000442
        },
        {
          "name": "C#2",
          "midi": 37,
          "time": 92.38492799999956,
          "velocity": 0.7874015748031497,
          "duration": 0.09414225000000442
        },
        {
          "name": "G#1",
          "midi": 32,
          "time": 92.51045099999956,
          "velocity": 0.7874015748031497,
          "duration": 0.09414225000000442
        },
        {
          "name": "G#1",
          "midi": 32,
          "time": 92.63597399999956,
          "velocity": 0.7874015748031497,
          "duration": 0.09414225000000442
        },
        {
          "name": "D#1",
          "midi": 27,
          "time": 92.88701999999957,
          "velocity": 0.7874015748031497,
          "duration": 0.09414225000000442
        },
        {
          "name": "F1",
          "midi": 29,
          "time": 93.10668524999957,
          "velocity": 0.7874015748031497,
          "duration": 0.2510460000000023
        },
        {
          "name": "D#1",
          "midi": 27,
          "time": 93.38911199999957,
          "velocity": 0.7874015748031497,
          "duration": 0.09414225000000442
        },
        {
          "name": "D#2",
          "midi": 39,
          "time": 93.51463499999957,
          "velocity": 0.7874015748031497,
          "duration": 0.03138074999999674
        },
        {
          "name": "G#1",
          "midi": 32,
          "time": 93.64015799999957,
          "velocity": 0.7874015748031497,
          "duration": 0.09414225000000442
        },
        {
          "name": "A#1",
          "midi": 34,
          "time": 93.76568099999957,
          "velocity": 0.7874015748031497,
          "duration": 0.09414225000000442
        },
        {
          "name": "F#1",
          "midi": 30,
          "time": 93.89120399999958,
          "velocity": 0.7874015748031497,
          "duration": 0.09414225000000442
        },
        {
          "name": "D#1",
          "midi": 27,
          "time": 94.01672699999958,
          "velocity": 0.7874015748031497,
          "duration": 0.09414225000000442
        },
        {
          "name": "D#1",
          "midi": 27,
          "time": 94.14224999999958,
          "velocity": 0.7874015748031497,
          "duration": 0.09414225000000442
        },
        {
          "name": "D#2",
          "midi": 39,
          "time": 94.26777299999958,
          "velocity": 0.7874015748031497,
          "duration": 0.03138074999999674
        },
        {
          "name": "G#1",
          "midi": 32,
          "time": 94.39329599999958,
          "velocity": 0.7874015748031497,
          "duration": 0.09414225000000442
        },
        {
          "name": "A#1",
          "midi": 34,
          "time": 94.51881899999958,
          "velocity": 0.7874015748031497,
          "duration": 0.09414225000000442
        },
        {
          "name": "C2",
          "midi": 36,
          "time": 94.64434199999958,
          "velocity": 0.7874015748031497,
          "duration": 0.09414225000000442
        },
        {
          "name": "F1",
          "midi": 29,
          "time": 94.89538799999958,
          "velocity": 0.7874015748031497,
          "duration": 0.09414225000000442
        },
        {
          "name": "F2",
          "midi": 41,
          "time": 95.02091099999959,
          "velocity": 0.7874015748031497,
          "duration": 0.03138074999999674
        },
        {
          "name": "G#1",
          "midi": 32,
          "time": 95.14643399999959,
          "velocity": 0.7874015748031497,
          "duration": 0.09414225000000442
        },
        {
          "name": "G#2",
          "midi": 44,
          "time": 95.27195699999959,
          "velocity": 0.7874015748031497,
          "duration": 0.09414225000000442
        },
        {
          "name": "F2",
          "midi": 41,
          "time": 95.39747999999959,
          "velocity": 0.7874015748031497,
          "duration": 0.09414225000000442
        },
        {
          "name": "D#2",
          "midi": 39,
          "time": 95.52300299999959,
          "velocity": 0.7874015748031497,
          "duration": 0.09414225000000442
        },
        {
          "name": "F1",
          "midi": 29,
          "time": 95.64852599999959,
          "velocity": 0.7874015748031497,
          "duration": 0.09414225000000442
        },
        {
          "name": "F2",
          "midi": 41,
          "time": 95.7740489999996,
          "velocity": 0.7874015748031497,
          "duration": 0.03138074999999674
        },
        {
          "name": "G#1",
          "midi": 32,
          "time": 95.8995719999996,
          "velocity": 0.7874015748031497,
          "duration": 0.09414225000000442
        },
        {
          "name": "G#2",
          "midi": 44,
          "time": 96.0250949999996,
          "velocity": 0.7874015748031497,
          "duration": 0.09414225000000442
        },
        {
          "name": "G#1",
          "midi": 32,
          "time": 96.1506179999996,
          "velocity": 0.7874015748031497,
          "duration": 0.09414225000000442
        },
        {
          "name": "G#2",
          "midi": 44,
          "time": 96.2761409999996,
          "velocity": 0.7874015748031497,
          "duration": 0.09414225000000442
        },
        {
          "name": "F#1",
          "midi": 30,
          "time": 96.4016639999996,
          "velocity": 0.7874015748031497,
          "duration": 0.09414225000000442
        },
        {
          "name": "F#2",
          "midi": 42,
          "time": 96.5271869999996,
          "velocity": 0.7874015748031497,
          "duration": 0.03138074999999674
        },
        {
          "name": "C#2",
          "midi": 37,
          "time": 96.6527099999996,
          "velocity": 0.7874015748031497,
          "duration": 0.09414225000000442
        },
        {
          "name": "F2",
          "midi": 41,
          "time": 96.7782329999996,
          "velocity": 0.7874015748031497,
          "duration": 0.09414225000000442
        },
        {
          "name": "F#2",
          "midi": 42,
          "time": 96.9037559999996,
          "velocity": 0.7874015748031497,
          "duration": 0.09414225000000442
        },
        {
          "name": "F#1",
          "midi": 30,
          "time": 97.0292789999996,
          "velocity": 0.7874015748031497,
          "duration": 0.09414225000000442
        },
        {
          "name": "F#1",
          "midi": 30,
          "time": 97.1548019999996,
          "velocity": 0.7874015748031497,
          "duration": 0.09414225000000442
        },
        {
          "name": "F#2",
          "midi": 42,
          "time": 97.2803249999996,
          "velocity": 0.7874015748031497,
          "duration": 0.03138074999999674
        },
        {
          "name": "C#2",
          "midi": 37,
          "time": 97.40584799999961,
          "velocity": 0.7874015748031497,
          "duration": 0.09414225000000442
        },
        {
          "name": "F2",
          "midi": 41,
          "time": 97.53137099999961,
          "velocity": 0.7874015748031497,
          "duration": 0.09414225000000442
        },
        {
          "name": "F#2",
          "midi": 42,
          "time": 97.65689399999961,
          "velocity": 0.7874015748031497,
          "duration": 0.09414225000000442
        },
        {
          "name": "F#1",
          "midi": 30,
          "time": 97.78241699999961,
          "velocity": 0.7874015748031497,
          "duration": 0.09414225000000442
        },
        {
          "name": "F1",
          "midi": 29,
          "time": 97.90793999999961,
          "velocity": 0.7874015748031497,
          "duration": 0.09414225000000442
        },
        {
          "name": "F2",
          "midi": 41,
          "time": 98.03346299999961,
          "velocity": 0.7874015748031497,
          "duration": 0.03138074999999674
        },
        {
          "name": "G#1",
          "midi": 32,
          "time": 98.15898599999962,
          "velocity": 0.7874015748031497,
          "duration": 0.09414225000000442
        },
        {
          "name": "G#2",
          "midi": 44,
          "time": 98.28450899999962,
          "velocity": 0.7874015748031497,
          "duration": 0.09414225000000442
        },
        {
          "name": "F2",
          "midi": 41,
          "time": 98.41003199999962,
          "velocity": 0.7874015748031497,
          "duration": 0.09414225000000442
        },
        {
          "name": "D#2",
          "midi": 39,
          "time": 98.53555499999962,
          "velocity": 0.7874015748031497,
          "duration": 0.09414225000000442
        },
        {
          "name": "F1",
          "midi": 29,
          "time": 98.66107799999962,
          "velocity": 0.7874015748031497,
          "duration": 0.09414225000000442
        },
        {
          "name": "F2",
          "midi": 41,
          "time": 98.78660099999962,
          "velocity": 0.7874015748031497,
          "duration": 0.03138074999999674
        },
        {
          "name": "G#1",
          "midi": 32,
          "time": 98.91212399999962,
          "velocity": 0.7874015748031497,
          "duration": 0.09414225000000442
        },
        {
          "name": "G#2",
          "midi": 44,
          "time": 99.03764699999962,
          "velocity": 0.7874015748031497,
          "duration": 0.09414225000000442
        },
        {
          "name": "G#1",
          "midi": 32,
          "time": 99.16316999999962,
          "velocity": 0.7874015748031497,
          "duration": 0.09414225000000442
        },
        {
          "name": "G#2",
          "midi": 44,
          "time": 99.28869299999963,
          "velocity": 0.7874015748031497,
          "duration": 0.09414225000000442
        },
        {
          "name": "D#1",
          "midi": 27,
          "time": 99.41421599999963,
          "velocity": 0.7874015748031497,
          "duration": 0.09414225000000442
        },
        {
          "name": "D#2",
          "midi": 39,
          "time": 99.53973899999963,
          "velocity": 0.7874015748031497,
          "duration": 0.03138074999999674
        },
        {
          "name": "A#1",
          "midi": 34,
          "time": 99.66526199999963,
          "velocity": 0.7874015748031497,
          "duration": 0.09414225000000442
        },
        {
          "name": "C2",
          "midi": 36,
          "time": 99.79078499999963,
          "velocity": 0.7874015748031497,
          "duration": 0.09414225000000442
        },
        {
          "name": "C#2",
          "midi": 37,
          "time": 99.91630799999963,
          "velocity": 0.7874015748031497,
          "duration": 0.09414225000000442
        },
        {
          "name": "D#1",
          "midi": 27,
          "time": 100.04183099999963,
          "velocity": 0.7874015748031497,
          "duration": 0.09414225000000442
        },
        {
          "name": "D#1",
          "midi": 27,
          "time": 100.16735399999963,
          "velocity": 0.7874015748031497,
          "duration": 0.09414225000000442
        },
        {
          "name": "D#2",
          "midi": 39,
          "time": 100.29287699999963,
          "velocity": 0.7874015748031497,
          "duration": 0.03138074999999674
        },
        {
          "name": "A#1",
          "midi": 34,
          "time": 100.41839999999964,
          "velocity": 0.7874015748031497,
          "duration": 0.09414225000000442
        },
        {
          "name": "C2",
          "midi": 36,
          "time": 100.54392299999964,
          "velocity": 0.7874015748031497,
          "duration": 0.09414225000000442
        },
        {
          "name": "C#2",
          "midi": 37,
          "time": 100.66944599999964,
          "velocity": 0.7874015748031497,
          "duration": 0.09414225000000442
        },
        {
          "name": "D#1",
          "midi": 27,
          "time": 100.79496899999964,
          "velocity": 0.7874015748031497,
          "duration": 0.09414225000000442
        },
        {
          "name": "G#1",
          "midi": 32,
          "time": 100.92049199999964,
          "velocity": 0.7874015748031497,
          "duration": 0.21966525000000559
        },
        {
          "name": "C2",
          "midi": 36,
          "time": 101.17153799999964,
          "velocity": 0.7874015748031497,
          "duration": 0.21966525000000559
        },
        {
          "name": "D#2",
          "midi": 39,
          "time": 101.42258399999965,
          "velocity": 0.7874015748031497,
          "duration": 0.21966525000000559
        },
        {
          "name": "G#2",
          "midi": 44,
          "time": 101.67362999999965,
          "velocity": 0.7874015748031497,
          "duration": 0.09414225000000442
        },
        {
          "name": "D#2",
          "midi": 39,
          "time": 101.92467599999965,
          "velocity": 0.7874015748031497,
          "duration": 0.09414225000000442
        },
        {
          "name": "G#2",
          "midi": 44,
          "time": 102.05019899999965,
          "velocity": 0.7874015748031497,
          "duration": 0.09414225000000442
        },
        {
          "name": "D#2",
          "midi": 39,
          "time": 102.17572199999965,
          "velocity": 0.7874015748031497,
          "duration": 0.09414225000000442
        },
        {
          "name": "G#2",
          "midi": 44,
          "time": 102.30124499999965,
          "velocity": 0.7874015748031497,
          "duration": 0.09414225000000442
        },
        {
          "name": "F#1",
          "midi": 30,
          "time": 102.42676799999965,
          "velocity": 0.7874015748031497,
          "duration": 0.09414225000000442
        },
        {
          "name": "F#2",
          "midi": 42,
          "time": 102.55229099999966,
          "velocity": 0.7874015748031497,
          "duration": 0.03138074999999674
        },
        {
          "name": "C#2",
          "midi": 37,
          "time": 102.67781399999966,
          "velocity": 0.7874015748031497,
          "duration": 0.09414225000000442
        },
        {
          "name": "F2",
          "midi": 41,
          "time": 102.80333699999966,
          "velocity": 0.7874015748031497,
          "duration": 0.09414225000000442
        },
        {
          "name": "F#2",
          "midi": 42,
          "time": 102.92885999999966,
          "velocity": 0.7874015748031497,
          "duration": 0.09414225000000442
        },
        {
          "name": "F#1",
          "midi": 30,
          "time": 103.05438299999966,
          "velocity": 0.7874015748031497,
          "duration": 0.09414225000000442
        },
        {
          "name": "F#1",
          "midi": 30,
          "time": 103.17990599999966,
          "velocity": 0.7874015748031497,
          "duration": 0.09414225000000442
        },
        {
          "name": "F#2",
          "midi": 42,
          "time": 103.30542899999966,
          "velocity": 0.7874015748031497,
          "duration": 0.03138074999999674
        },
        {
          "name": "C#2",
          "midi": 37,
          "time": 103.43095199999966,
          "velocity": 0.7874015748031497,
          "duration": 0.09414225000000442
        },
        {
          "name": "F2",
          "midi": 41,
          "time": 103.55647499999966,
          "velocity": 0.7874015748031497,
          "duration": 0.09414225000000442
        },
        {
          "name": "F#2",
          "midi": 42,
          "time": 103.68199799999967,
          "velocity": 0.7874015748031497,
          "duration": 0.09414225000000442
        },
        {
          "name": "F#1",
          "midi": 30,
          "time": 103.80752099999967,
          "velocity": 0.7874015748031497,
          "duration": 0.09414225000000442
        },
        {
          "name": "F1",
          "midi": 29,
          "time": 103.93304399999967,
          "velocity": 0.7874015748031497,
          "duration": 0.09414225000000442
        },
        {
          "name": "F2",
          "midi": 41,
          "time": 104.05856699999967,
          "velocity": 0.7874015748031497,
          "duration": 0.03138074999999674
        },
        {
          "name": "G#1",
          "midi": 32,
          "time": 104.18408999999967,
          "velocity": 0.7874015748031497,
          "duration": 0.09414225000000442
        },
        {
          "name": "G#2",
          "midi": 44,
          "time": 104.30961299999967,
          "velocity": 0.7874015748031497,
          "duration": 0.09414225000000442
        },
        {
          "name": "F2",
          "midi": 41,
          "time": 104.43513599999967,
          "velocity": 0.7874015748031497,
          "duration": 0.09414225000000442
        },
        {
          "name": "D#2",
          "midi": 39,
          "time": 104.56065899999967,
          "velocity": 0.7874015748031497,
          "duration": 0.09414225000000442
        },
        {
          "name": "F1",
          "midi": 29,
          "time": 104.68618199999968,
          "velocity": 0.7874015748031497,
          "duration": 0.09414225000000442
        },
        {
          "name": "F2",
          "midi": 41,
          "time": 104.81170499999968,
          "velocity": 0.7874015748031497,
          "duration": 0.03138074999999674
        },
        {
          "name": "G#1",
          "midi": 32,
          "time": 104.93722799999968,
          "velocity": 0.7874015748031497,
          "duration": 0.09414225000000442
        },
        {
          "name": "G#2",
          "midi": 44,
          "time": 105.06275099999968,
          "velocity": 0.7874015748031497,
          "duration": 0.09414225000000442
        },
        {
          "name": "G#1",
          "midi": 32,
          "time": 105.18827399999968,
          "velocity": 0.7874015748031497,
          "duration": 0.09414225000000442
        },
        {
          "name": "G#2",
          "midi": 44,
          "time": 105.31379699999968,
          "velocity": 0.7874015748031497,
          "duration": 0.09414225000000442
        },
        {
          "name": "A#1",
          "midi": 34,
          "time": 105.43931999999968,
          "velocity": 0.7874015748031497,
          "duration": 0.09414225000000442
        },
        {
          "name": "A#2",
          "midi": 46,
          "time": 105.56484299999968,
          "velocity": 0.7874015748031497,
          "duration": 0.03138074999999674
        },
        {
          "name": "D#2",
          "midi": 39,
          "time": 105.69036599999968,
          "velocity": 0.7874015748031497,
          "duration": 0.09414225000000442
        },
        {
          "name": "F2",
          "midi": 41,
          "time": 105.81588899999969,
          "velocity": 0.7874015748031497,
          "duration": 0.09414225000000442
        },
        {
          "name": "C#2",
          "midi": 37,
          "time": 105.94141199999969,
          "velocity": 0.7874015748031497,
          "duration": 0.09414225000000442
        },
        {
          "name": "G#1",
          "midi": 32,
          "time": 106.06693499999969,
          "velocity": 0.7874015748031497,
          "duration": 0.09414225000000442
        },
        {
          "name": "A#1",
          "midi": 34,
          "time": 106.19245799999969,
          "velocity": 0.7874015748031497,
          "duration": 0.09414225000000442
        },
        {
          "name": "A#2",
          "midi": 46,
          "time": 106.31798099999969,
          "velocity": 0.7874015748031497,
          "duration": 0.03138074999999674
        },
        {
          "name": "D#2",
          "midi": 39,
          "time": 106.44350399999969,
          "velocity": 0.7874015748031497,
          "duration": 0.09414225000000442
        },
        {
          "name": "F2",
          "midi": 41,
          "time": 106.56902699999969,
          "velocity": 0.7874015748031497,
          "duration": 0.09414225000000442
        },
        {
          "name": "C#2",
          "midi": 37,
          "time": 106.6945499999997,
          "velocity": 0.7874015748031497,
          "duration": 0.09414225000000442
        },
        {
          "name": "G#1",
          "midi": 32,
          "time": 106.8200729999997,
          "velocity": 0.7874015748031497,
          "duration": 0.09414225000000442
        },
        {
          "name": "A#1",
          "midi": 34,
          "time": 106.9455959999997,
          "velocity": 0.7874015748031497,
          "duration": 0.09414225000000442
        },
        {
          "name": "A#1",
          "midi": 34,
          "time": 107.3221649999997,
          "velocity": 0.7874015748031497,
          "duration": 0.09414225000000442
        },
        {
          "name": "A#1",
          "midi": 34,
          "time": 107.6987339999997,
          "velocity": 0.7874015748031497,
          "duration": 0.09414225000000442
        }
      ],
      "controlChanges": {
        "6": [
          {
            "number": 6,
            "time": 0,
            "value": 0.09448818897637795
          },
          {
            "number": 6,
            "time": 0,
            "value": 0.09448818897637795
          },
          {
            "number": 6,
            "time": 0,
            "value": 0.09448818897637795
          },
          {
            "number": 6,
            "time": 108.45187199999971,
            "value": 0.09448818897637795
          },
          {
            "number": 6,
            "time": 108.4623322499997,
            "value": 0.09448818897637795
          },
          {
            "number": 6,
            "time": 108.4623322499997,
            "value": 0.09448818897637795
          }
        ],
        "7": [
          {
            "number": 7,
            "time": 0,
            "value": 1
          },
          {
            "number": 7,
            "time": 0,
            "value": 1
          },
          {
            "number": 7,
            "time": 0,
            "value": 1
          },
          {
            "number": 7,
            "time": 0,
            "value": 1
          },
          {
            "number": 7,
            "time": 108.45187199999971,
            "value": 1
          },
          {
            "number": 7,
            "time": 108.4623322499997,
            "value": 1
          },
          {
            "number": 7,
            "time": 108.4623322499997,
            "value": 1
          }
        ],
        "10": [
          {
            "number": 10,
            "time": 0,
            "value": 0.5039370078740157
          },
          {
            "number": 10,
            "time": 0,
            "value": 0.5039370078740157
          },
          {
            "number": 10,
            "time": 0,
            "value": 0.5039370078740157
          },
          {
            "number": 10,
            "time": 0,
            "value": 0.5039370078740157
          },
          {
            "number": 10,
            "time": 108.45187199999971,
            "value": 0.5039370078740157
          },
          {
            "number": 10,
            "time": 108.4623322499997,
            "value": 0.5039370078740157
          },
          {
            "number": 10,
            "time": 108.4623322499997,
            "value": 0.5039370078740157
          }
        ],
        "100": [
          {
            "number": 100,
            "time": 0,
            "value": 0
          },
          {
            "number": 100,
            "time": 0,
            "value": 0
          },
          {
            "number": 100,
            "time": 0,
            "value": 0
          },
          {
            "number": 100,
            "time": 108.45187199999971,
            "value": 0
          },
          {
            "number": 100,
            "time": 108.4623322499997,
            "value": 0
          },
          {
            "number": 100,
            "time": 108.4623322499997,
            "value": 0
          }
        ],
        "101": [
          {
            "number": 101,
            "time": 0,
            "value": 0
          },
          {
            "number": 101,
            "time": 0,
            "value": 0
          },
          {
            "number": 101,
            "time": 0,
            "value": 0
          },
          {
            "number": 101,
            "time": 108.45187199999971,
            "value": 0
          },
          {
            "number": 101,
            "time": 108.4623322499997,
            "value": 0
          },
          {
            "number": 101,
            "time": 108.4623322499997,
            "value": 0
          }
        ]
      },
      "id": 3,
      "name": "MIDI out #2",
      "instrumentNumber": 80,
      "instrument": "lead 1 (square)",
      "instrumentFamily": "synth lead",
      "channelNumber": 1,
      "isPercussion": false
    },
    {
      "startTime": 62.008362,
      "duration": 63.5146379999995,
      "length": 48,
      "notes": [
        {
          "name": "F4",
          "midi": 65,
          "time": 62.008362,
          "velocity": 0.6062992125984252,
          "duration": 0.03138074999998253
        },
        {
          "name": "C5",
          "midi": 72,
          "time": 62.03974274999998,
          "velocity": 0.6062992125984252,
          "duration": 0.03138074999998253
        },
        {
          "name": "F4",
          "midi": 65,
          "time": 62.07112349999996,
          "velocity": 0.6062992125984252,
          "duration": 0.03138074999998253
        },
        {
          "name": "C5",
          "midi": 72,
          "time": 62.102504249999946,
          "velocity": 0.6062992125984252,
          "duration": 0.03138074999998253
        },
        {
          "name": "F4",
          "midi": 65,
          "time": 62.13388499999993,
          "velocity": 0.6062992125984252,
          "duration": 0.03138074999998253
        },
        {
          "name": "C5",
          "midi": 72,
          "time": 62.16526574999991,
          "velocity": 0.6062992125984252,
          "duration": 0.03138074999998253
        },
        {
          "name": "F4",
          "midi": 65,
          "time": 62.19664649999989,
          "velocity": 0.6062992125984252,
          "duration": 0.03138074999998253
        },
        {
          "name": "C5",
          "midi": 72,
          "time": 62.228027249999876,
          "velocity": 0.6062992125984252,
          "duration": 0.03138074999998253
        },
        {
          "name": "D#4",
          "midi": 63,
          "time": 62.25940799999986,
          "velocity": 0.6062992125984252,
          "duration": 0.03138074999999674
        },
        {
          "name": "A#4",
          "midi": 70,
          "time": 62.290788749999855,
          "velocity": 0.6062992125984252,
          "duration": 0.03138074999999674
        },
        {
          "name": "D#4",
          "midi": 63,
          "time": 62.32216949999985,
          "velocity": 0.6062992125984252,
          "duration": 0.03138074999999674
        },
        {
          "name": "A#4",
          "midi": 70,
          "time": 62.35355024999985,
          "velocity": 0.6062992125984252,
          "duration": 0.03138074999999674
        },
        {
          "name": "D#4",
          "midi": 63,
          "time": 62.384930999999845,
          "velocity": 0.6062992125984252,
          "duration": 0.03138074999999674
        },
        {
          "name": "A#4",
          "midi": 70,
          "time": 62.41631174999984,
          "velocity": 0.6062992125984252,
          "duration": 0.03138074999999674
        },
        {
          "name": "D#4",
          "midi": 63,
          "time": 62.44769249999984,
          "velocity": 0.6062992125984252,
          "duration": 0.03138074999999674
        },
        {
          "name": "A#4",
          "midi": 70,
          "time": 62.479073249999836,
          "velocity": 0.6062992125984252,
          "duration": 0.03138074999999674
        },
        {
          "name": "C#4",
          "midi": 61,
          "time": 62.51045399999983,
          "velocity": 0.6062992125984252,
          "duration": 0.03138074999999674
        },
        {
          "name": "G#4",
          "midi": 68,
          "time": 62.54183474999983,
          "velocity": 0.6062992125984252,
          "duration": 0.03138074999999674
        },
        {
          "name": "C#4",
          "midi": 61,
          "time": 62.573215499999826,
          "velocity": 0.6062992125984252,
          "duration": 0.03138074999999674
        },
        {
          "name": "G#4",
          "midi": 68,
          "time": 62.60459624999982,
          "velocity": 0.6062992125984252,
          "duration": 0.03138074999999674
        },
        {
          "name": "C#4",
          "midi": 61,
          "time": 62.63597699999982,
          "velocity": 0.6062992125984252,
          "duration": 0.03138074999999674
        },
        {
          "name": "F#4",
          "midi": 66,
          "time": 62.667357749999816,
          "velocity": 0.6062992125984252,
          "duration": 0.03138074999999674
        },
        {
          "name": "C#4",
          "midi": 61,
          "time": 62.69873849999981,
          "velocity": 0.6062992125984252,
          "duration": 0.03138074999999674
        },
        {
          "name": "F#4",
          "midi": 66,
          "time": 62.73011924999981,
          "velocity": 0.6062992125984252,
          "duration": 0.03138074999999674
        },
        {
          "name": "C4",
          "midi": 60,
          "time": 62.761499999999806,
          "velocity": 0.6062992125984252,
          "duration": 0.03138074999999674
        },
        {
          "name": "F4",
          "midi": 65,
          "time": 62.7928807499998,
          "velocity": 0.6062992125984252,
          "duration": 0.03138074999999674
        },
        {
          "name": "C4",
          "midi": 60,
          "time": 62.8242614999998,
          "velocity": 0.6062992125984252,
          "duration": 0.03138074999999674
        },
        {
          "name": "F4",
          "midi": 65,
          "time": 62.855642249999796,
          "velocity": 0.6062992125984252,
          "duration": 0.03138074999999674
        },
        {
          "name": "C4",
          "midi": 60,
          "time": 62.88702299999979,
          "velocity": 0.6062992125984252,
          "duration": 0.03138074999999674
        },
        {
          "name": "F4",
          "midi": 65,
          "time": 62.91840374999979,
          "velocity": 0.6062992125984252,
          "duration": 0.03138074999999674
        },
        {
          "name": "C4",
          "midi": 60,
          "time": 62.94978449999979,
          "velocity": 0.6062992125984252,
          "duration": 0.03138074999999674
        },
        {
          "name": "F4",
          "midi": 65,
          "time": 62.98116524999978,
          "velocity": 0.6062992125984252,
          "duration": 0.03138074999999674
        },
        {
          "name": "A#3",
          "midi": 58,
          "time": 63.01254599999978,
          "velocity": 0.6062992125984252,
          "duration": 0.03138074999998253
        },
        {
          "name": "D#4",
          "midi": 63,
          "time": 63.04392674999976,
          "velocity": 0.6062992125984252,
          "duration": 0.03138074999998253
        },
        {
          "name": "A#3",
          "midi": 58,
          "time": 63.075307499999745,
          "velocity": 0.6062992125984252,
          "duration": 0.03138074999998253
        },
        {
          "name": "D#4",
          "midi": 63,
          "time": 63.10668824999973,
          "velocity": 0.6062992125984252,
          "duration": 0.03138074999998253
        },
        {
          "name": "A#3",
          "midi": 58,
          "time": 63.13806899999971,
          "velocity": 0.6062992125984252,
          "duration": 0.03138074999998253
        },
        {
          "name": "D#4",
          "midi": 63,
          "time": 63.16944974999969,
          "velocity": 0.6062992125984252,
          "duration": 0.03138074999998253
        },
        {
          "name": "A#3",
          "midi": 58,
          "time": 63.200830499999675,
          "velocity": 0.6062992125984252,
          "duration": 0.03138074999998253
        },
        {
          "name": "D#4",
          "midi": 63,
          "time": 63.23221124999966,
          "velocity": 0.6062992125984252,
          "duration": 0.03138074999998253
        },
        {
          "name": "A#3",
          "midi": 58,
          "time": 63.26359199999964,
          "velocity": 0.6062992125984252,
          "duration": 0.03138074999998253
        },
        {
          "name": "D#4",
          "midi": 63,
          "time": 63.29497274999962,
          "velocity": 0.6062992125984252,
          "duration": 0.03138074999998253
        },
        {
          "name": "A#3",
          "midi": 58,
          "time": 63.326353499999605,
          "velocity": 0.6062992125984252,
          "duration": 0.03138074999998253
        },
        {
          "name": "D#4",
          "midi": 63,
          "time": 63.35773424999959,
          "velocity": 0.6062992125984252,
          "duration": 0.03138074999998253
        },
        {
          "name": "A#3",
          "midi": 58,
          "time": 63.38911499999957,
          "velocity": 0.6062992125984252,
          "duration": 0.03138074999998253
        },
        {
          "name": "D#4",
          "midi": 63,
          "time": 63.42049574999955,
          "velocity": 0.6062992125984252,
          "duration": 0.03138074999998253
        },
        {
          "name": "A#3",
          "midi": 58,
          "time": 63.451876499999535,
          "velocity": 0.6062992125984252,
          "duration": 0.03138074999998253
        },
        {
          "name": "D#4",
          "midi": 63,
          "time": 63.48325724999952,
          "velocity": 0.6062992125984252,
          "duration": 0.03138074999998253
        }
      ],
      "controlChanges": {
        "6": [
          {
            "number": 6,
            "time": 0,
            "value": 0.09448818897637795
          },
          {
            "number": 6,
            "time": 0,
            "value": 0.09448818897637795
          },
          {
            "number": 6,
            "time": 0,
            "value": 0.09448818897637795
          },
          {
            "number": 6,
            "time": 108.4518719999995,
            "value": 0.09448818897637795
          },
          {
            "number": 6,
            "time": 108.46233224999949,
            "value": 0.09448818897637795
          },
          {
            "number": 6,
            "time": 108.46233224999949,
            "value": 0.09448818897637795
          }
        ],
        "7": [
          {
            "number": 7,
            "time": 0,
            "value": 0
          },
          {
            "number": 7,
            "time": 61.62133275,
            "value": 0
          },
          {
            "number": 7,
            "time": 62.008362,
            "value": 0.015748031496062992
          },
          {
            "number": 7,
            "time": 62.013592124999995,
            "value": 0.031496062992125984
          },
          {
            "number": 7,
            "time": 62.01882224999999,
            "value": 0.047244094488188976
          },
          {
            "number": 7,
            "time": 62.02405237499999,
            "value": 0.06299212598425197
          },
          {
            "number": 7,
            "time": 62.02928249999999,
            "value": 0.07874015748031496
          },
          {
            "number": 7,
            "time": 62.034512624999984,
            "value": 0.09448818897637795
          },
          {
            "number": 7,
            "time": 62.03974274999998,
            "value": 0.11023622047244094
          },
          {
            "number": 7,
            "time": 62.04497287499998,
            "value": 0.13385826771653545
          },
          {
            "number": 7,
            "time": 62.050202999999975,
            "value": 0.14960629921259844
          },
          {
            "number": 7,
            "time": 62.05543312499997,
            "value": 0.16535433070866143
          },
          {
            "number": 7,
            "time": 62.06066324999997,
            "value": 0.18110236220472442
          },
          {
            "number": 7,
            "time": 62.065893374999966,
            "value": 0.1968503937007874
          },
          {
            "number": 7,
            "time": 62.07112349999996,
            "value": 0.2125984251968504
          },
          {
            "number": 7,
            "time": 62.07635362499996,
            "value": 0.2283464566929134
          },
          {
            "number": 7,
            "time": 62.08158374999996,
            "value": 0.25196850393700787
          },
          {
            "number": 7,
            "time": 62.086813874999955,
            "value": 0.2677165354330709
          },
          {
            "number": 7,
            "time": 62.09204399999995,
            "value": 0.28346456692913385
          },
          {
            "number": 7,
            "time": 62.09727412499995,
            "value": 0.2992125984251969
          },
          {
            "number": 7,
            "time": 62.102504249999946,
            "value": 0.31496062992125984
          },
          {
            "number": 7,
            "time": 62.10773437499994,
            "value": 0.33070866141732286
          },
          {
            "number": 7,
            "time": 62.11296449999994,
            "value": 0.3464566929133858
          },
          {
            "number": 7,
            "time": 62.11819462499994,
            "value": 0.3700787401574803
          },
          {
            "number": 7,
            "time": 62.123424749999934,
            "value": 0.3858267716535433
          },
          {
            "number": 7,
            "time": 62.12865487499993,
            "value": 0.4015748031496063
          },
          {
            "number": 7,
            "time": 62.13388499999993,
            "value": 0.41732283464566927
          },
          {
            "number": 7,
            "time": 62.139115124999925,
            "value": 0.4330708661417323
          },
          {
            "number": 7,
            "time": 62.14434524999992,
            "value": 0.44881889763779526
          },
          {
            "number": 7,
            "time": 62.14957537499992,
            "value": 0.4645669291338583
          },
          {
            "number": 7,
            "time": 62.15480549999992,
            "value": 0.4881889763779528
          },
          {
            "number": 7,
            "time": 62.160035624999914,
            "value": 0.5039370078740157
          },
          {
            "number": 7,
            "time": 62.16526574999991,
            "value": 0.5196850393700787
          },
          {
            "number": 7,
            "time": 62.17049587499991,
            "value": 0.5354330708661418
          },
          {
            "number": 7,
            "time": 62.175725999999905,
            "value": 0.5511811023622047
          },
          {
            "number": 7,
            "time": 62.1809561249999,
            "value": 0.5669291338582677
          },
          {
            "number": 7,
            "time": 62.1861862499999,
            "value": 0.5826771653543307
          },
          {
            "number": 7,
            "time": 62.191416374999896,
            "value": 0.6062992125984252
          },
          {
            "number": 7,
            "time": 62.19664649999989,
            "value": 0.6220472440944882
          },
          {
            "number": 7,
            "time": 62.20187662499989,
            "value": 0.6377952755905512
          },
          {
            "number": 7,
            "time": 62.20710674999989,
            "value": 0.6535433070866141
          },
          {
            "number": 7,
            "time": 62.212336874999885,
            "value": 0.6692913385826772
          },
          {
            "number": 7,
            "time": 62.21756699999988,
            "value": 0.6850393700787402
          },
          {
            "number": 7,
            "time": 62.22279712499988,
            "value": 0.7007874015748031
          },
          {
            "number": 7,
            "time": 62.228027249999876,
            "value": 0.7244094488188977
          },
          {
            "number": 7,
            "time": 62.23325737499987,
            "value": 0.7401574803149606
          },
          {
            "number": 7,
            "time": 62.23848749999987,
            "value": 0.7559055118110236
          },
          {
            "number": 7,
            "time": 62.24371762499987,
            "value": 0.7716535433070866
          },
          {
            "number": 7,
            "time": 62.248947749999864,
            "value": 0.7874015748031497
          },
          {
            "number": 7,
            "time": 62.25417787499986,
            "value": 0.8031496062992126
          },
          {
            "number": 7,
            "time": 62.25940799999986,
            "value": 0.8188976377952756
          },
          {
            "number": 7,
            "time": 63.00731587499978,
            "value": 0.8188976377952756
          },
          {
            "number": 7,
            "time": 63.01254599999978,
            "value": 0.8110236220472441
          },
          {
            "number": 7,
            "time": 63.01777612499978,
            "value": 0.8031496062992126
          },
          {
            "number": 7,
            "time": 63.023006249999774,
            "value": 0.7952755905511811
          },
          {
            "number": 7,
            "time": 63.02823637499977,
            "value": 0.7874015748031497
          },
          {
            "number": 7,
            "time": 63.03346649999977,
            "value": 0.7795275590551181
          },
          {
            "number": 7,
            "time": 63.038696624999766,
            "value": 0.7716535433070866
          },
          {
            "number": 7,
            "time": 63.04392674999976,
            "value": 0.7559055118110236
          },
          {
            "number": 7,
            "time": 63.04915687499976,
            "value": 0.7480314960629921
          },
          {
            "number": 7,
            "time": 63.05438699999976,
            "value": 0.7401574803149606
          },
          {
            "number": 7,
            "time": 63.059617124999754,
            "value": 0.7322834645669292
          },
          {
            "number": 7,
            "time": 63.06484724999975,
            "value": 0.7244094488188977
          },
          {
            "number": 7,
            "time": 63.07007737499975,
            "value": 0.7165354330708661
          },
          {
            "number": 7,
            "time": 63.075307499999745,
            "value": 0.7086614173228346
          },
          {
            "number": 7,
            "time": 63.08053762499974,
            "value": 0.7007874015748031
          },
          {
            "number": 7,
            "time": 63.08576774999974,
            "value": 0.6929133858267716
          },
          {
            "number": 7,
            "time": 63.090997874999736,
            "value": 0.6850393700787402
          },
          {
            "number": 7,
            "time": 63.09622799999973,
            "value": 0.6771653543307087
          },
          {
            "number": 7,
            "time": 63.10145812499973,
            "value": 0.6614173228346457
          },
          {
            "number": 7,
            "time": 63.10668824999973,
            "value": 0.6535433070866141
          },
          {
            "number": 7,
            "time": 63.111918374999725,
            "value": 0.6456692913385826
          },
          {
            "number": 7,
            "time": 63.11714849999972,
            "value": 0.6377952755905512
          },
          {
            "number": 7,
            "time": 63.12237862499972,
            "value": 0.6299212598425197
          },
          {
            "number": 7,
            "time": 63.127608749999716,
            "value": 0.6220472440944882
          },
          {
            "number": 7,
            "time": 63.13283887499971,
            "value": 0.6141732283464567
          },
          {
            "number": 7,
            "time": 63.13806899999971,
            "value": 0.6062992125984252
          },
          {
            "number": 7,
            "time": 63.14329912499971,
            "value": 0.5984251968503937
          },
          {
            "number": 7,
            "time": 63.148529249999704,
            "value": 0.5905511811023622
          },
          {
            "number": 7,
            "time": 63.1537593749997,
            "value": 0.5826771653543307
          },
          {
            "number": 7,
            "time": 63.1589894999997,
            "value": 0.5669291338582677
          },
          {
            "number": 7,
            "time": 63.164219624999696,
            "value": 0.5590551181102362
          },
          {
            "number": 7,
            "time": 63.16944974999969,
            "value": 0.5511811023622047
          },
          {
            "number": 7,
            "time": 63.17467987499969,
            "value": 0.5433070866141733
          },
          {
            "number": 7,
            "time": 63.17990999999969,
            "value": 0.5354330708661418
          },
          {
            "number": 7,
            "time": 63.185140124999684,
            "value": 0.5275590551181102
          },
          {
            "number": 7,
            "time": 63.19037024999968,
            "value": 0.5196850393700787
          },
          {
            "number": 7,
            "time": 63.19560037499968,
            "value": 0.5118110236220472
          },
          {
            "number": 7,
            "time": 63.200830499999675,
            "value": 0.5039370078740157
          },
          {
            "number": 7,
            "time": 63.20606062499967,
            "value": 0.49606299212598426
          },
          {
            "number": 7,
            "time": 63.21129074999967,
            "value": 0.4881889763779528
          },
          {
            "number": 7,
            "time": 63.21652087499967,
            "value": 0.48031496062992124
          },
          {
            "number": 7,
            "time": 63.221750999999664,
            "value": 0.4645669291338583
          },
          {
            "number": 7,
            "time": 63.22698112499966,
            "value": 0.4566929133858268
          },
          {
            "number": 7,
            "time": 63.23221124999966,
            "value": 0.44881889763779526
          },
          {
            "number": 7,
            "time": 63.237441374999655,
            "value": 0.4409448818897638
          },
          {
            "number": 7,
            "time": 63.24267149999965,
            "value": 0.4330708661417323
          },
          {
            "number": 7,
            "time": 63.24790162499965,
            "value": 0.4251968503937008
          },
          {
            "number": 7,
            "time": 63.253131749999646,
            "value": 0.41732283464566927
          },
          {
            "number": 7,
            "time": 63.25836187499964,
            "value": 0.4094488188976378
          },
          {
            "number": 7,
            "time": 63.26359199999964,
            "value": 0.4015748031496063
          },
          {
            "number": 7,
            "time": 63.26882212499964,
            "value": 0.3937007874015748
          },
          {
            "number": 7,
            "time": 63.274052249999635,
            "value": 0.3858267716535433
          },
          {
            "number": 7,
            "time": 63.27928237499963,
            "value": 0.3700787401574803
          },
          {
            "number": 7,
            "time": 63.28451249999963,
            "value": 0.36220472440944884
          },
          {
            "number": 7,
            "time": 63.289742624999626,
            "value": 0.3543307086614173
          },
          {
            "number": 7,
            "time": 63.29497274999962,
            "value": 0.3464566929133858
          },
          {
            "number": 7,
            "time": 63.30020287499962,
            "value": 0.33858267716535434
          },
          {
            "number": 7,
            "time": 63.30543299999962,
            "value": 0.33070866141732286
          },
          {
            "number": 7,
            "time": 63.310663124999614,
            "value": 0.3228346456692913
          },
          {
            "number": 7,
            "time": 63.31589324999961,
            "value": 0.31496062992125984
          },
          {
            "number": 7,
            "time": 63.32112337499961,
            "value": 0.30708661417322836
          },
          {
            "number": 7,
            "time": 63.326353499999605,
            "value": 0.2992125984251969
          },
          {
            "number": 7,
            "time": 63.3315836249996,
            "value": 0.29133858267716534
          },
          {
            "number": 7,
            "time": 63.3368137499996,
            "value": 0.2755905511811024
          },
          {
            "number": 7,
            "time": 63.3420438749996,
            "value": 0.2677165354330709
          },
          {
            "number": 7,
            "time": 63.347273999999594,
            "value": 0.25984251968503935
          },
          {
            "number": 7,
            "time": 63.35250412499959,
            "value": 0.25196850393700787
          },
          {
            "number": 7,
            "time": 63.35773424999959,
            "value": 0.2440944881889764
          },
          {
            "number": 7,
            "time": 63.362964374999585,
            "value": 0.23622047244094488
          },
          {
            "number": 7,
            "time": 63.36819449999958,
            "value": 0.2283464566929134
          },
          {
            "number": 7,
            "time": 63.37342462499958,
            "value": 0.2204724409448819
          },
          {
            "number": 7,
            "time": 63.378654749999576,
            "value": 0.2125984251968504
          },
          {
            "number": 7,
            "time": 63.38388487499957,
            "value": 0.2047244094488189
          },
          {
            "number": 7,
            "time": 63.38911499999957,
            "value": 0.1968503937007874
          },
          {
            "number": 7,
            "time": 63.39434512499957,
            "value": 0.18110236220472442
          },
          {
            "number": 7,
            "time": 63.399575249999565,
            "value": 0.1732283464566929
          },
          {
            "number": 7,
            "time": 63.40480537499956,
            "value": 0.16535433070866143
          },
          {
            "number": 7,
            "time": 63.41003549999956,
            "value": 0.15748031496062992
          },
          {
            "number": 7,
            "time": 63.415265624999556,
            "value": 0.14960629921259844
          },
          {
            "number": 7,
            "time": 63.42049574999955,
            "value": 0.14173228346456693
          },
          {
            "number": 7,
            "time": 63.42572587499955,
            "value": 0.13385826771653545
          },
          {
            "number": 7,
            "time": 63.43095599999955,
            "value": 0.12598425196850394
          },
          {
            "number": 7,
            "time": 63.436186124999544,
            "value": 0.11811023622047244
          },
          {
            "number": 7,
            "time": 63.44141624999954,
            "value": 0.11023622047244094
          },
          {
            "number": 7,
            "time": 63.44664637499954,
            "value": 0.10236220472440945
          },
          {
            "number": 7,
            "time": 63.451876499999535,
            "value": 0.08661417322834646
          },
          {
            "number": 7,
            "time": 63.45710662499953,
            "value": 0.07874015748031496
          },
          {
            "number": 7,
            "time": 63.46233674999953,
            "value": 0.07086614173228346
          },
          {
            "number": 7,
            "time": 63.46756687499953,
            "value": 0.06299212598425197
          },
          {
            "number": 7,
            "time": 63.472796999999524,
            "value": 0.05511811023622047
          },
          {
            "number": 7,
            "time": 63.47802712499952,
            "value": 0.047244094488188976
          },
          {
            "number": 7,
            "time": 63.48325724999952,
            "value": 0.03937007874015748
          },
          {
            "number": 7,
            "time": 63.488487374999515,
            "value": 0.031496062992125984
          },
          {
            "number": 7,
            "time": 63.49371749999951,
            "value": 0.023622047244094488
          },
          {
            "number": 7,
            "time": 63.49894762499951,
            "value": 0.015748031496062992
          },
          {
            "number": 7,
            "time": 63.504177749999506,
            "value": 0.007874015748031496
          },
          {
            "number": 7,
            "time": 63.5094078749995,
            "value": 0
          }
        ],
        "10": [
          {
            "number": 10,
            "time": 0,
            "value": 0.5039370078740157
          },
          {
            "number": 10,
            "time": 0,
            "value": 0.5039370078740157
          },
          {
            "number": 10,
            "time": 0,
            "value": 0.5039370078740157
          },
          {
            "number": 10,
            "time": 0,
            "value": 0.5039370078740157
          },
          {
            "number": 10,
            "time": 108.4518719999995,
            "value": 0.5039370078740157
          },
          {
            "number": 10,
            "time": 108.46233224999949,
            "value": 0.5039370078740157
          },
          {
            "number": 10,
            "time": 108.46233224999949,
            "value": 0.5039370078740157
          }
        ],
        "100": [
          {
            "number": 100,
            "time": 0,
            "value": 0
          },
          {
            "number": 100,
            "time": 0,
            "value": 0
          },
          {
            "number": 100,
            "time": 0,
            "value": 0
          },
          {
            "number": 100,
            "time": 108.4518719999995,
            "value": 0
          },
          {
            "number": 100,
            "time": 108.46233224999949,
            "value": 0
          },
          {
            "number": 100,
            "time": 108.46233224999949,
            "value": 0
          }
        ],
        "101": [
          {
            "number": 101,
            "time": 0,
            "value": 0
          },
          {
            "number": 101,
            "time": 0,
            "value": 0
          },
          {
            "number": 101,
            "time": 0,
            "value": 0
          },
          {
            "number": 101,
            "time": 108.4518719999995,
            "value": 0
          },
          {
            "number": 101,
            "time": 108.46233224999949,
            "value": 0
          },
          {
            "number": 101,
            "time": 108.46233224999949,
            "value": 0
          }
        ]
      },
      "id": 4,
      "name": "MIDI out #19",
      "instrumentNumber": 81,
      "instrument": "lead 2 (sawtooth)",
      "instrumentFamily": "synth lead",
      "channelNumber": 0,
      "isPercussion": false
    },
    {
      "startTime": 54.225936,
      "duration": 76.23430199999996,
      "length": 59,
      "notes": [
        {
          "name": "E5",
          "midi": 76,
          "time": 54.225936,
          "velocity": 0.7874015748031497,
          "duration": 0.03138074999999674
        },
        {
          "name": "F5",
          "midi": 77,
          "time": 54.28869749999999,
          "velocity": 0.7874015748031497,
          "duration": 0.03138074999999674
        },
        {
          "name": "F#5",
          "midi": 78,
          "time": 54.351458999999984,
          "velocity": 0.7874015748031497,
          "duration": 0.03138074999999674
        },
        {
          "name": "G5",
          "midi": 79,
          "time": 54.41422049999998,
          "velocity": 0.7874015748031497,
          "duration": 0.03138074999999674
        },
        {
          "name": "G#5",
          "midi": 80,
          "time": 54.47698199999997,
          "velocity": 0.7874015748031497,
          "duration": 0.06276150000000058
        },
        {
          "name": "G#5",
          "midi": 80,
          "time": 54.72802799999997,
          "velocity": 0.5669291338582677,
          "duration": 0.06276150000000058
        },
        {
          "name": "G5",
          "midi": 79,
          "time": 54.979073999999976,
          "velocity": 0.7874015748031497,
          "duration": 0.06276150000000058
        },
        {
          "name": "G5",
          "midi": 79,
          "time": 55.23011999999998,
          "velocity": 0.5669291338582677,
          "duration": 0.06276150000000058
        },
        {
          "name": "G5",
          "midi": 79,
          "time": 55.48116599999998,
          "velocity": 0.7874015748031497,
          "duration": 0.2510460000000023
        },
        {
          "name": "E5",
          "midi": 76,
          "time": 55.815893999999986,
          "velocity": 0.7874015748031497,
          "duration": 0.020920500000002562
        },
        {
          "name": "F5",
          "midi": 77,
          "time": 55.85773499999999,
          "velocity": 0.7874015748031497,
          "duration": 0.020920500000002562
        },
        {
          "name": "F#5",
          "midi": 78,
          "time": 55.899575999999996,
          "velocity": 0.7874015748031497,
          "duration": 0.020920500000002562
        },
        {
          "name": "G5",
          "midi": 79,
          "time": 55.941417,
          "velocity": 0.7874015748031497,
          "duration": 0.020920500000002562
        },
        {
          "name": "G#5",
          "midi": 80,
          "time": 55.983258000000006,
          "velocity": 0.7874015748031497,
          "duration": 0.08368200000000314
        },
        {
          "name": "G#5",
          "midi": 80,
          "time": 56.23430400000001,
          "velocity": 0.5669291338582677,
          "duration": 0.08368200000000314
        },
        {
          "name": "G#5",
          "midi": 80,
          "time": 56.48535000000001,
          "velocity": 0.7874015748031497,
          "duration": 0.2510460000000023
        },
        {
          "name": "G5",
          "midi": 79,
          "time": 56.73639600000001,
          "velocity": 0.7874015748031497,
          "duration": 0.12552300000000116
        },
        {
          "name": "F5",
          "midi": 77,
          "time": 56.861919000000015,
          "velocity": 0.7874015748031497,
          "duration": 0.12552300000000116
        },
        {
          "name": "D#5",
          "midi": 75,
          "time": 56.987442000000016,
          "velocity": 0.7874015748031497,
          "duration": 0.2510460000000023
        },
        {
          "name": "F5",
          "midi": 77,
          "time": 57.23848800000002,
          "velocity": 0.7874015748031497,
          "duration": 0.08368200000000314
        },
        {
          "name": "F5",
          "midi": 77,
          "time": 57.405852000000024,
          "velocity": 0.6850393700787402,
          "duration": 0.08368200000000314
        },
        {
          "name": "F5",
          "midi": 77,
          "time": 57.57321600000003,
          "velocity": 0.5748031496062992,
          "duration": 0.08368200000000314
        },
        {
          "name": "F5",
          "midi": 77,
          "time": 57.74058000000004,
          "velocity": 0.4645669291338583,
          "duration": 0.08368200000000314
        },
        {
          "name": "F5",
          "midi": 77,
          "time": 57.90794400000004,
          "velocity": 0.36220472440944884,
          "duration": 0.08368200000000314
        },
        {
          "name": "F5",
          "midi": 77,
          "time": 58.07530800000005,
          "velocity": 0.25196850393700787,
          "duration": 0.08368200000000314
        },
        {
          "name": "E5",
          "midi": 76,
          "time": 60.25104000000005,
          "velocity": 0.7874015748031497,
          "duration": 0.03138074999999674
        },
        {
          "name": "F5",
          "midi": 77,
          "time": 60.31380150000005,
          "velocity": 0.7874015748031497,
          "duration": 0.03138074999999674
        },
        {
          "name": "F#5",
          "midi": 78,
          "time": 60.37656300000004,
          "velocity": 0.7874015748031497,
          "duration": 0.03138074999999674
        },
        {
          "name": "G5",
          "midi": 79,
          "time": 60.43932450000003,
          "velocity": 0.7874015748031497,
          "duration": 0.03138074999999674
        },
        {
          "name": "G#5",
          "midi": 80,
          "time": 60.50208600000003,
          "velocity": 0.7874015748031497,
          "duration": 0.06276150000000058
        },
        {
          "name": "G#5",
          "midi": 80,
          "time": 60.75313200000003,
          "velocity": 0.7874015748031497,
          "duration": 0.06276150000000058
        },
        {
          "name": "G5",
          "midi": 79,
          "time": 61.00417800000003,
          "velocity": 0.7874015748031497,
          "duration": 0.06276150000000058
        },
        {
          "name": "G5",
          "midi": 79,
          "time": 61.255224000000034,
          "velocity": 0.7874015748031497,
          "duration": 0.06276150000000058
        },
        {
          "name": "G5",
          "midi": 79,
          "time": 61.506270000000036,
          "velocity": 0.7874015748031497,
          "duration": 0.2510460000000023
        },
        {
          "name": "E5",
          "midi": 76,
          "time": 72.30124800000004,
          "velocity": 0.7874015748031497,
          "duration": 0.03138074999999674
        },
        {
          "name": "F5",
          "midi": 77,
          "time": 72.36400950000004,
          "velocity": 0.7874015748031497,
          "duration": 0.03138074999999674
        },
        {
          "name": "F#5",
          "midi": 78,
          "time": 72.42677100000003,
          "velocity": 0.7874015748031497,
          "duration": 0.03138074999999674
        },
        {
          "name": "G5",
          "midi": 79,
          "time": 72.48953250000002,
          "velocity": 0.7874015748031497,
          "duration": 0.03138074999999674
        },
        {
          "name": "G#5",
          "midi": 80,
          "time": 72.55229400000002,
          "velocity": 0.7874015748031497,
          "duration": 0.06276149999999348
        },
        {
          "name": "G#5",
          "midi": 80,
          "time": 72.80334,
          "velocity": 0.5669291338582677,
          "duration": 0.06276149999999348
        },
        {
          "name": "G5",
          "midi": 79,
          "time": 73.054386,
          "velocity": 0.7874015748031497,
          "duration": 0.06276149999999348
        },
        {
          "name": "G5",
          "midi": 79,
          "time": 73.30543199999998,
          "velocity": 0.5669291338582677,
          "duration": 0.06276149999999348
        },
        {
          "name": "G5",
          "midi": 79,
          "time": 73.55647799999997,
          "velocity": 0.7874015748031497,
          "duration": 0.2510460000000023
        },
        {
          "name": "E5",
          "midi": 76,
          "time": 73.89120599999997,
          "velocity": 0.7874015748031497,
          "duration": 0.020920500000002562
        },
        {
          "name": "F5",
          "midi": 77,
          "time": 73.93304699999997,
          "velocity": 0.7874015748031497,
          "duration": 0.020920500000002562
        },
        {
          "name": "F#5",
          "midi": 78,
          "time": 73.97488799999998,
          "velocity": 0.7874015748031497,
          "duration": 0.020920500000002562
        },
        {
          "name": "G5",
          "midi": 79,
          "time": 74.01672899999998,
          "velocity": 0.7874015748031497,
          "duration": 0.020920500000002562
        },
        {
          "name": "G#5",
          "midi": 80,
          "time": 74.05856999999999,
          "velocity": 0.7874015748031497,
          "duration": 0.08368199999999604
        },
        {
          "name": "G#5",
          "midi": 80,
          "time": 74.30961599999999,
          "velocity": 0.5669291338582677,
          "duration": 0.08368199999999604
        },
        {
          "name": "G#5",
          "midi": 80,
          "time": 74.560662,
          "velocity": 0.7874015748031497,
          "duration": 0.2510460000000023
        },
        {
          "name": "G5",
          "midi": 79,
          "time": 74.811708,
          "velocity": 0.7874015748031497,
          "duration": 0.12552300000000116
        },
        {
          "name": "F5",
          "midi": 77,
          "time": 74.937231,
          "velocity": 0.7874015748031497,
          "duration": 0.12552300000000116
        },
        {
          "name": "D#5",
          "midi": 75,
          "time": 75.062754,
          "velocity": 0.7874015748031497,
          "duration": 0.2510460000000023
        },
        {
          "name": "F5",
          "midi": 77,
          "time": 75.3138,
          "velocity": 0.7874015748031497,
          "duration": 0.08368199999999604
        },
        {
          "name": "F5",
          "midi": 77,
          "time": 75.48116399999999,
          "velocity": 0.6850393700787402,
          "duration": 0.08368199999999604
        },
        {
          "name": "F5",
          "midi": 77,
          "time": 75.64852799999998,
          "velocity": 0.5748031496062992,
          "duration": 0.08368199999999604
        },
        {
          "name": "F5",
          "midi": 77,
          "time": 75.81589199999998,
          "velocity": 0.4645669291338583,
          "duration": 0.08368199999999604
        },
        {
          "name": "F5",
          "midi": 77,
          "time": 75.98325599999997,
          "velocity": 0.36220472440944884,
          "duration": 0.08368199999999604
        },
        {
          "name": "F5",
          "midi": 77,
          "time": 76.15061999999996,
          "velocity": 0.25196850393700787,
          "duration": 0.08368199999999604
        }
      ],
      "controlChanges": {
        "6": [
          {
            "number": 6,
            "time": 0,
            "value": 0.09448818897637795
          },
          {
            "number": 6,
            "time": 0,
            "value": 0.09448818897637795
          },
          {
            "number": 6,
            "time": 0,
            "value": 0.09448818897637795
          },
          {
            "number": 6,
            "time": 108.45187199999995,
            "value": 0.09448818897637795
          },
          {
            "number": 6,
            "time": 108.46233224999995,
            "value": 0.09448818897637795
          },
          {
            "number": 6,
            "time": 108.46233224999995,
            "value": 0.09448818897637795
          }
        ],
        "7": [
          {
            "number": 7,
            "time": 0,
            "value": 0.7874015748031497
          },
          {
            "number": 7,
            "time": 0,
            "value": 0.7874015748031497
          },
          {
            "number": 7,
            "time": 0,
            "value": 0.7874015748031497
          },
          {
            "number": 7,
            "time": 0,
            "value": 0.7874015748031497
          },
          {
            "number": 7,
            "time": 108.45187199999995,
            "value": 0.7874015748031497
          },
          {
            "number": 7,
            "time": 108.46233224999995,
            "value": 0.7874015748031497
          },
          {
            "number": 7,
            "time": 108.46233224999995,
            "value": 0.7874015748031497
          }
        ],
        "10": [
          {
            "number": 10,
            "time": 0,
            "value": 0.5039370078740157
          },
          {
            "number": 10,
            "time": 0,
            "value": 0.5039370078740157
          },
          {
            "number": 10,
            "time": 0,
            "value": 0.5039370078740157
          },
          {
            "number": 10,
            "time": 0,
            "value": 0.5039370078740157
          },
          {
            "number": 10,
            "time": 108.45187199999995,
            "value": 0.5039370078740157
          },
          {
            "number": 10,
            "time": 108.46233224999995,
            "value": 0.5039370078740157
          },
          {
            "number": 10,
            "time": 108.46233224999995,
            "value": 0.5039370078740157
          }
        ],
        "100": [
          {
            "number": 100,
            "time": 0,
            "value": 0
          },
          {
            "number": 100,
            "time": 0,
            "value": 0
          },
          {
            "number": 100,
            "time": 0,
            "value": 0
          },
          {
            "number": 100,
            "time": 108.45187199999995,
            "value": 0
          },
          {
            "number": 100,
            "time": 108.46233224999995,
            "value": 0
          },
          {
            "number": 100,
            "time": 108.46233224999995,
            "value": 0
          }
        ],
        "101": [
          {
            "number": 101,
            "time": 0,
            "value": 0
          },
          {
            "number": 101,
            "time": 0,
            "value": 0
          },
          {
            "number": 101,
            "time": 0,
            "value": 0
          },
          {
            "number": 101,
            "time": 108.45187199999995,
            "value": 0
          },
          {
            "number": 101,
            "time": 108.46233224999995,
            "value": 0
          },
          {
            "number": 101,
            "time": 108.46233224999995,
            "value": 0
          }
        ]
      },
      "id": 5,
      "name": "MIDI out #17",
      "channelNumber": 0,
      "isPercussion": false
    },
    {
      "startTime": 54.476982,
      "duration": 76.23430200000006,
      "length": 78,
      "notes": [
        {
          "name": "C#5",
          "midi": 73,
          "time": 54.476982,
          "velocity": 0.7874015748031497,
          "duration": 0.12552300000000116
        },
        {
          "name": "G#5",
          "midi": 80,
          "time": 54.476982,
          "velocity": 0.7874015748031497,
          "duration": 0.12552300000000116
        },
        {
          "name": "C#5",
          "midi": 73,
          "time": 54.728028,
          "velocity": 0.5669291338582677,
          "duration": 0.12552300000000116
        },
        {
          "name": "G#5",
          "midi": 80,
          "time": 54.728028,
          "velocity": 0.5669291338582677,
          "duration": 0.12552300000000116
        },
        {
          "name": "C5",
          "midi": 72,
          "time": 54.979074000000004,
          "velocity": 0.7874015748031497,
          "duration": 0.12552300000000116
        },
        {
          "name": "G5",
          "midi": 79,
          "time": 54.979074000000004,
          "velocity": 0.7874015748031497,
          "duration": 0.12552300000000116
        },
        {
          "name": "C5",
          "midi": 72,
          "time": 55.23012000000001,
          "velocity": 0.5669291338582677,
          "duration": 0.12552300000000116
        },
        {
          "name": "G5",
          "midi": 79,
          "time": 55.23012000000001,
          "velocity": 0.5669291338582677,
          "duration": 0.12552300000000116
        },
        {
          "name": "C5",
          "midi": 72,
          "time": 55.48116600000001,
          "velocity": 0.7874015748031497,
          "duration": 0.2510460000000023
        },
        {
          "name": "G5",
          "midi": 79,
          "time": 55.48116600000001,
          "velocity": 0.7874015748031497,
          "duration": 0.2510460000000023
        },
        {
          "name": "C#5",
          "midi": 73,
          "time": 55.98325800000001,
          "velocity": 0.7874015748031497,
          "duration": 0.12552300000000116
        },
        {
          "name": "G#5",
          "midi": 80,
          "time": 55.98325800000001,
          "velocity": 0.7874015748031497,
          "duration": 0.12552300000000116
        },
        {
          "name": "C#5",
          "midi": 73,
          "time": 56.234304000000016,
          "velocity": 0.5669291338582677,
          "duration": 0.12552300000000116
        },
        {
          "name": "G#5",
          "midi": 80,
          "time": 56.234304000000016,
          "velocity": 0.5669291338582677,
          "duration": 0.12552300000000116
        },
        {
          "name": "C#5",
          "midi": 73,
          "time": 56.48535000000002,
          "velocity": 0.7874015748031497,
          "duration": 0.2510460000000023
        },
        {
          "name": "G#5",
          "midi": 80,
          "time": 56.48535000000002,
          "velocity": 0.7874015748031497,
          "duration": 0.2510460000000023
        },
        {
          "name": "C5",
          "midi": 72,
          "time": 56.73639600000002,
          "velocity": 0.7874015748031497,
          "duration": 0.12552300000000116
        },
        {
          "name": "G5",
          "midi": 79,
          "time": 56.73639600000002,
          "velocity": 0.7874015748031497,
          "duration": 0.12552300000000116
        },
        {
          "name": "A#4",
          "midi": 70,
          "time": 56.86191900000002,
          "velocity": 0.7874015748031497,
          "duration": 0.12552300000000116
        },
        {
          "name": "F5",
          "midi": 77,
          "time": 56.86191900000002,
          "velocity": 0.7874015748031497,
          "duration": 0.12552300000000116
        },
        {
          "name": "G#4",
          "midi": 68,
          "time": 56.98744200000002,
          "velocity": 0.7874015748031497,
          "duration": 0.2510460000000023
        },
        {
          "name": "D#5",
          "midi": 75,
          "time": 56.98744200000002,
          "velocity": 0.7874015748031497,
          "duration": 0.2510460000000023
        },
        {
          "name": "A#4",
          "midi": 70,
          "time": 57.238488000000025,
          "velocity": 0.7874015748031497,
          "duration": 0.08368200000000314
        },
        {
          "name": "F5",
          "midi": 77,
          "time": 57.238488000000025,
          "velocity": 0.7874015748031497,
          "duration": 0.08368200000000314
        },
        {
          "name": "A#4",
          "midi": 70,
          "time": 57.40585200000003,
          "velocity": 0.6850393700787402,
          "duration": 0.08368200000000314
        },
        {
          "name": "F5",
          "midi": 77,
          "time": 57.40585200000003,
          "velocity": 0.6850393700787402,
          "duration": 0.08368200000000314
        },
        {
          "name": "A#4",
          "midi": 70,
          "time": 57.57321600000004,
          "velocity": 0.5748031496062992,
          "duration": 0.08368200000000314
        },
        {
          "name": "F5",
          "midi": 77,
          "time": 57.57321600000004,
          "velocity": 0.5748031496062992,
          "duration": 0.08368200000000314
        },
        {
          "name": "A#4",
          "midi": 70,
          "time": 57.740580000000044,
          "velocity": 0.4645669291338583,
          "duration": 0.08368200000000314
        },
        {
          "name": "F5",
          "midi": 77,
          "time": 57.740580000000044,
          "velocity": 0.4645669291338583,
          "duration": 0.08368200000000314
        },
        {
          "name": "A#4",
          "midi": 70,
          "time": 57.90794400000005,
          "velocity": 0.36220472440944884,
          "duration": 0.08368200000000314
        },
        {
          "name": "F5",
          "midi": 77,
          "time": 57.90794400000005,
          "velocity": 0.36220472440944884,
          "duration": 0.08368200000000314
        },
        {
          "name": "A#4",
          "midi": 70,
          "time": 58.07530800000006,
          "velocity": 0.25196850393700787,
          "duration": 0.08368200000000314
        },
        {
          "name": "F5",
          "midi": 77,
          "time": 58.07530800000006,
          "velocity": 0.25196850393700787,
          "duration": 0.08368200000000314
        },
        {
          "name": "C#5",
          "midi": 73,
          "time": 60.50208600000006,
          "velocity": 0.7874015748031497,
          "duration": 0.12552300000000116
        },
        {
          "name": "G#5",
          "midi": 80,
          "time": 60.50208600000006,
          "velocity": 0.7874015748031497,
          "duration": 0.12552300000000116
        },
        {
          "name": "G#5",
          "midi": 80,
          "time": 60.753132000000065,
          "velocity": 0.5669291338582677,
          "duration": 0.12552300000000116
        },
        {
          "name": "C#5",
          "midi": 73,
          "time": 60.753132000000065,
          "velocity": 0.5669291338582677,
          "duration": 0.12552300000000116
        },
        {
          "name": "G5",
          "midi": 79,
          "time": 61.00417800000007,
          "velocity": 0.7874015748031497,
          "duration": 0.12552300000000116
        },
        {
          "name": "C5",
          "midi": 72,
          "time": 61.00417800000007,
          "velocity": 0.7874015748031497,
          "duration": 0.12552300000000116
        },
        {
          "name": "G5",
          "midi": 79,
          "time": 61.25522400000007,
          "velocity": 0.5669291338582677,
          "duration": 0.12552300000000116
        },
        {
          "name": "C5",
          "midi": 72,
          "time": 61.25522400000007,
          "velocity": 0.5669291338582677,
          "duration": 0.12552300000000116
        },
        {
          "name": "C5",
          "midi": 72,
          "time": 61.50627000000007,
          "velocity": 0.7874015748031497,
          "duration": 0.2510460000000023
        },
        {
          "name": "G5",
          "midi": 79,
          "time": 61.50627000000007,
          "velocity": 0.7874015748031497,
          "duration": 0.2510460000000023
        },
        {
          "name": "C#5",
          "midi": 73,
          "time": 72.55229400000007,
          "velocity": 0.7874015748031497,
          "duration": 0.12552300000000116
        },
        {
          "name": "G#5",
          "midi": 80,
          "time": 72.55229400000007,
          "velocity": 0.7874015748031497,
          "duration": 0.12552300000000116
        },
        {
          "name": "C#5",
          "midi": 73,
          "time": 72.80334000000008,
          "velocity": 0.5669291338582677,
          "duration": 0.12552300000000116
        },
        {
          "name": "G#5",
          "midi": 80,
          "time": 72.80334000000008,
          "velocity": 0.5669291338582677,
          "duration": 0.12552300000000116
        },
        {
          "name": "C5",
          "midi": 72,
          "time": 73.05438600000008,
          "velocity": 0.7874015748031497,
          "duration": 0.12552300000000116
        },
        {
          "name": "G5",
          "midi": 79,
          "time": 73.05438600000008,
          "velocity": 0.7874015748031497,
          "duration": 0.12552300000000116
        },
        {
          "name": "C5",
          "midi": 72,
          "time": 73.30543200000008,
          "velocity": 0.5669291338582677,
          "duration": 0.12552300000000116
        },
        {
          "name": "G5",
          "midi": 79,
          "time": 73.30543200000008,
          "velocity": 0.5669291338582677,
          "duration": 0.12552300000000116
        },
        {
          "name": "C5",
          "midi": 72,
          "time": 73.55647800000008,
          "velocity": 0.7874015748031497,
          "duration": 0.2510460000000023
        },
        {
          "name": "G5",
          "midi": 79,
          "time": 73.55647800000008,
          "velocity": 0.7874015748031497,
          "duration": 0.2510460000000023
        },
        {
          "name": "C#5",
          "midi": 73,
          "time": 74.05857000000009,
          "velocity": 0.7874015748031497,
          "duration": 0.12552300000000116
        },
        {
          "name": "G#5",
          "midi": 80,
          "time": 74.05857000000009,
          "velocity": 0.7874015748031497,
          "duration": 0.12552300000000116
        },
        {
          "name": "C#5",
          "midi": 73,
          "time": 74.30961600000009,
          "velocity": 0.5669291338582677,
          "duration": 0.12552300000000116
        },
        {
          "name": "G#5",
          "midi": 80,
          "time": 74.30961600000009,
          "velocity": 0.5669291338582677,
          "duration": 0.12552300000000116
        },
        {
          "name": "C#5",
          "midi": 73,
          "time": 74.5606620000001,
          "velocity": 0.7874015748031497,
          "duration": 0.2510460000000023
        },
        {
          "name": "G#5",
          "midi": 80,
          "time": 74.5606620000001,
          "velocity": 0.7874015748031497,
          "duration": 0.2510460000000023
        },
        {
          "name": "C5",
          "midi": 72,
          "time": 74.8117080000001,
          "velocity": 0.7874015748031497,
          "duration": 0.12552300000000116
        },
        {
          "name": "G5",
          "midi": 79,
          "time": 74.8117080000001,
          "velocity": 0.7874015748031497,
          "duration": 0.12552300000000116
        },
        {
          "name": "A#4",
          "midi": 70,
          "time": 74.9372310000001,
          "velocity": 0.7874015748031497,
          "duration": 0.12552300000000116
        },
        {
          "name": "F5",
          "midi": 77,
          "time": 74.9372310000001,
          "velocity": 0.7874015748031497,
          "duration": 0.12552300000000116
        },
        {
          "name": "G#4",
          "midi": 68,
          "time": 75.0627540000001,
          "velocity": 0.7874015748031497,
          "duration": 0.2510460000000023
        },
        {
          "name": "D#5",
          "midi": 75,
          "time": 75.0627540000001,
          "velocity": 0.7874015748031497,
          "duration": 0.2510460000000023
        },
        {
          "name": "F5",
          "midi": 77,
          "time": 75.3138000000001,
          "velocity": 0.7874015748031497,
          "duration": 0.08368199999999604
        },
        {
          "name": "A#4",
          "midi": 70,
          "time": 75.3138000000001,
          "velocity": 0.7874015748031497,
          "duration": 0.08368199999999604
        },
        {
          "name": "A#4",
          "midi": 70,
          "time": 75.48116400000009,
          "velocity": 0.6850393700787402,
          "duration": 0.08368199999999604
        },
        {
          "name": "F5",
          "midi": 77,
          "time": 75.48116400000009,
          "velocity": 0.6850393700787402,
          "duration": 0.08368199999999604
        },
        {
          "name": "A#4",
          "midi": 70,
          "time": 75.64852800000008,
          "velocity": 0.5748031496062992,
          "duration": 0.08368199999999604
        },
        {
          "name": "F5",
          "midi": 77,
          "time": 75.64852800000008,
          "velocity": 0.5748031496062992,
          "duration": 0.08368199999999604
        },
        {
          "name": "F5",
          "midi": 77,
          "time": 75.81589200000008,
          "velocity": 0.4645669291338583,
          "duration": 0.08368199999999604
        },
        {
          "name": "A#4",
          "midi": 70,
          "time": 75.81589200000008,
          "velocity": 0.4645669291338583,
          "duration": 0.08368199999999604
        },
        {
          "name": "A#4",
          "midi": 70,
          "time": 75.98325600000007,
          "velocity": 0.36220472440944884,
          "duration": 0.08368199999999604
        },
        {
          "name": "F5",
          "midi": 77,
          "time": 75.98325600000007,
          "velocity": 0.36220472440944884,
          "duration": 0.08368199999999604
        },
        {
          "name": "A#4",
          "midi": 70,
          "time": 76.15062000000006,
          "velocity": 0.25196850393700787,
          "duration": 0.08368199999999604
        },
        {
          "name": "F5",
          "midi": 77,
          "time": 76.15062000000006,
          "velocity": 0.25196850393700787,
          "duration": 0.08368199999999604
        }
      ],
      "controlChanges": {
        "6": [
          {
            "number": 6,
            "time": 0,
            "value": 0.09448818897637795
          },
          {
            "number": 6,
            "time": 0,
            "value": 0.09448818897637795
          },
          {
            "number": 6,
            "time": 0,
            "value": 0.09448818897637795
          },
          {
            "number": 6,
            "time": 108.45187200000007,
            "value": 0.09448818897637795
          },
          {
            "number": 6,
            "time": 108.46233225000006,
            "value": 0.09448818897637795
          },
          {
            "number": 6,
            "time": 108.46233225000006,
            "value": 0.09448818897637795
          }
        ],
        "7": [
          {
            "number": 7,
            "time": 0,
            "value": 0.7874015748031497
          },
          {
            "number": 7,
            "time": 0,
            "value": 0.7874015748031497
          },
          {
            "number": 7,
            "time": 0,
            "value": 0.7874015748031497
          },
          {
            "number": 7,
            "time": 0,
            "value": 0.7874015748031497
          },
          {
            "number": 7,
            "time": 108.45187200000007,
            "value": 0.7874015748031497
          },
          {
            "number": 7,
            "time": 108.46233225000006,
            "value": 0.7874015748031497
          },
          {
            "number": 7,
            "time": 108.46233225000006,
            "value": 0.7874015748031497
          }
        ],
        "10": [
          {
            "number": 10,
            "time": 0,
            "value": 0.5039370078740157
          },
          {
            "number": 10,
            "time": 0,
            "value": 0.5039370078740157
          },
          {
            "number": 10,
            "time": 0,
            "value": 0.5039370078740157
          },
          {
            "number": 10,
            "time": 0,
            "value": 0.5039370078740157
          },
          {
            "number": 10,
            "time": 108.45187200000007,
            "value": 0.5039370078740157
          },
          {
            "number": 10,
            "time": 108.46233225000006,
            "value": 0.5039370078740157
          },
          {
            "number": 10,
            "time": 108.46233225000006,
            "value": 0.5039370078740157
          }
        ],
        "100": [
          {
            "number": 100,
            "time": 0,
            "value": 0
          },
          {
            "number": 100,
            "time": 0,
            "value": 0
          },
          {
            "number": 100,
            "time": 0,
            "value": 0
          },
          {
            "number": 100,
            "time": 108.45187200000007,
            "value": 0
          },
          {
            "number": 100,
            "time": 108.46233225000006,
            "value": 0
          },
          {
            "number": 100,
            "time": 108.46233225000006,
            "value": 0
          }
        ],
        "101": [
          {
            "number": 101,
            "time": 0,
            "value": 0
          },
          {
            "number": 101,
            "time": 0,
            "value": 0
          },
          {
            "number": 101,
            "time": 0,
            "value": 0
          },
          {
            "number": 101,
            "time": 108.45187200000007,
            "value": 0
          },
          {
            "number": 101,
            "time": 108.46233225000006,
            "value": 0
          },
          {
            "number": 101,
            "time": 108.46233225000006,
            "value": 0
          }
        ]
      },
      "id": 6,
      "name": "MIDI out #18",
      "channelNumber": 1,
      "isPercussion": false
    },
    {
      "startTime": 22.468617,
      "duration": 25.073219250000008,
      "length": 11,
      "notes": [
        {
          "name": "C#4",
          "midi": 61,
          "time": 22.468617,
          "velocity": 0.8582677165354331,
          "duration": 0.37656900000000704
        },
        {
          "name": "C5",
          "midi": 72,
          "time": 22.845186000000005,
          "velocity": 0.7874015748031497,
          "duration": 0.25104599999999877
        },
        {
          "name": "A#4",
          "midi": 70,
          "time": 23.096232000000004,
          "velocity": 0.7874015748031497,
          "duration": 0.18828450000000174
        },
        {
          "name": "G#4",
          "midi": 68,
          "time": 23.347278000000006,
          "velocity": 0.7874015748031497,
          "duration": 0.06276150000000058
        },
        {
          "name": "F#4",
          "midi": 66,
          "time": 23.472801000000008,
          "velocity": 0.7874015748031497,
          "duration": 0.06276150000000058
        },
        {
          "name": "F4",
          "midi": 65,
          "time": 23.59832400000001,
          "velocity": 0.7874015748031497,
          "duration": 0.18828450000000174
        },
        {
          "name": "G#4",
          "midi": 68,
          "time": 23.84937000000001,
          "velocity": 0.7874015748031497,
          "duration": 0.18828450000000174
        },
        {
          "name": "A#4",
          "midi": 70,
          "time": 24.100416000000013,
          "velocity": 0.7795275590551181,
          "duration": 0.21966524999999848
        },
        {
          "name": "A#4",
          "midi": 70,
          "time": 24.351462000000012,
          "velocity": 0.5669291338582677,
          "duration": 0.21966524999999848
        },
        {
          "name": "A#4",
          "midi": 70,
          "time": 24.60250800000001,
          "velocity": 0.3464566929133858,
          "duration": 0.21966524999999848
        },
        {
          "name": "A#4",
          "midi": 70,
          "time": 24.85355400000001,
          "velocity": 0.11811023622047244,
          "duration": 0.21966524999999848
        }
      ],
      "controlChanges": {
        "6": [
          {
            "number": 6,
            "time": 0,
            "value": 0.09448818897637795
          },
          {
            "number": 6,
            "time": 0,
            "value": 0.09448818897637795
          },
          {
            "number": 6,
            "time": 0,
            "value": 0.09448818897637795
          },
          {
            "number": 6,
            "time": 108.45187200000001,
            "value": 0.09448818897637795
          },
          {
            "number": 6,
            "time": 108.46233225,
            "value": 0.09448818897637795
          },
          {
            "number": 6,
            "time": 108.46233225,
            "value": 0.09448818897637795
          }
        ],
        "7": [
          {
            "number": 7,
            "time": 0,
            "value": 1
          },
          {
            "number": 7,
            "time": 0,
            "value": 1
          },
          {
            "number": 7,
            "time": 0,
            "value": 1
          },
          {
            "number": 7,
            "time": 0,
            "value": 1
          },
          {
            "number": 7,
            "time": 108.45187200000001,
            "value": 1
          },
          {
            "number": 7,
            "time": 108.46233225,
            "value": 1
          },
          {
            "number": 7,
            "time": 108.46233225,
            "value": 1
          }
        ],
        "10": [
          {
            "number": 10,
            "time": 0,
            "value": 0.5039370078740157
          },
          {
            "number": 10,
            "time": 0,
            "value": 0.5039370078740157
          },
          {
            "number": 10,
            "time": 0,
            "value": 0.5039370078740157
          },
          {
            "number": 10,
            "time": 0,
            "value": 0.5039370078740157
          },
          {
            "number": 10,
            "time": 108.45187200000001,
            "value": 0.5039370078740157
          },
          {
            "number": 10,
            "time": 108.46233225,
            "value": 0.5039370078740157
          },
          {
            "number": 10,
            "time": 108.46233225,
            "value": 0.5039370078740157
          }
        ],
        "100": [
          {
            "number": 100,
            "time": 0,
            "value": 0
          },
          {
            "number": 100,
            "time": 0,
            "value": 0
          },
          {
            "number": 100,
            "time": 0,
            "value": 0
          },
          {
            "number": 100,
            "time": 108.45187200000001,
            "value": 0
          },
          {
            "number": 100,
            "time": 108.46233225,
            "value": 0
          },
          {
            "number": 100,
            "time": 108.46233225,
            "value": 0
          }
        ],
        "101": [
          {
            "number": 101,
            "time": 0,
            "value": 0
          },
          {
            "number": 101,
            "time": 0,
            "value": 0
          },
          {
            "number": 101,
            "time": 0,
            "value": 0
          },
          {
            "number": 101,
            "time": 108.45187200000001,
            "value": 0
          },
          {
            "number": 101,
            "time": 108.46233225,
            "value": 0
          },
          {
            "number": 101,
            "time": 108.46233225,
            "value": 0
          }
        ]
      },
      "id": 7,
      "name": "MIDI out #20",
      "instrumentNumber": 81,
      "instrument": "lead 2 (sawtooth)",
      "instrumentFamily": "synth lead",
      "channelNumber": 0,
      "isPercussion": false
    },
    {
      "startTime": 4.518828,
      "duration": 85.60668599999914,
      "length": 111,
      "notes": [
        {
          "name": "D#4",
          "midi": 63,
          "time": 4.518828,
          "velocity": 0.7874015748031497,
          "duration": 0.25104599999999966
        },
        {
          "name": "C5",
          "midi": 72,
          "time": 4.769874,
          "velocity": 0.7874015748031497,
          "duration": 0.25104599999999966
        },
        {
          "name": "A#4",
          "midi": 70,
          "time": 5.020919999999999,
          "velocity": 0.7874015748031497,
          "duration": 0.18828449999999997
        },
        {
          "name": "G#4",
          "midi": 68,
          "time": 5.271965999999999,
          "velocity": 0.7874015748031497,
          "duration": 0.06276149999999969
        },
        {
          "name": "F#4",
          "midi": 66,
          "time": 5.397488999999998,
          "velocity": 0.7874015748031497,
          "duration": 0.06276149999999969
        },
        {
          "name": "F4",
          "midi": 65,
          "time": 5.523011999999998,
          "velocity": 0.7874015748031497,
          "duration": 0.18828449999999997
        },
        {
          "name": "G#4",
          "midi": 68,
          "time": 5.7740579999999975,
          "velocity": 0.7874015748031497,
          "duration": 0.18828449999999997
        },
        {
          "name": "A#4",
          "midi": 70,
          "time": 6.025103999999997,
          "velocity": 0.7874015748031497,
          "duration": 0.21966525000000026
        },
        {
          "name": "A#4",
          "midi": 70,
          "time": 6.276149999999998,
          "velocity": 0.6850393700787402,
          "duration": 0.21966525000000026
        },
        {
          "name": "A#4",
          "midi": 70,
          "time": 6.527195999999998,
          "velocity": 0.5826771653543307,
          "duration": 0.21966525000000026
        },
        {
          "name": "A#4",
          "midi": 70,
          "time": 6.778241999999999,
          "velocity": 0.48031496062992124,
          "duration": 0.21966525000000026
        },
        {
          "name": "A#4",
          "midi": 70,
          "time": 7.029287999999999,
          "velocity": 0.3779527559055118,
          "duration": 0.21966525000000026
        },
        {
          "name": "A#4",
          "midi": 70,
          "time": 7.280334,
          "velocity": 0.2677165354330709,
          "duration": 0.21966525000000026
        },
        {
          "name": "A#4",
          "midi": 70,
          "time": 7.53138,
          "velocity": 0.16535433070866143,
          "duration": 0.21966525000000026
        },
        {
          "name": "A#4",
          "midi": 70,
          "time": 7.782426000000001,
          "velocity": 0.06299212598425197,
          "duration": 0.21966525000000026
        },
        {
          "name": "C#5",
          "midi": 73,
          "time": 9.037656000000002,
          "velocity": 0.2440944881889764,
          "duration": 0.12552299999999939
        },
        {
          "name": "C#5",
          "midi": 73,
          "time": 9.288702,
          "velocity": 0.4409448818897638,
          "duration": 0.12552299999999939
        },
        {
          "name": "C#5",
          "midi": 73,
          "time": 9.539748,
          "velocity": 0.6456692913385826,
          "duration": 0.12552299999999939
        },
        {
          "name": "C#5",
          "midi": 73,
          "time": 9.790793999999998,
          "velocity": 0.7874015748031497,
          "duration": 0.12552299999999939
        },
        {
          "name": "C#5",
          "midi": 73,
          "time": 10.041839999999997,
          "velocity": 0.7874015748031497,
          "duration": 0.12552299999999939
        },
        {
          "name": "C#5",
          "midi": 73,
          "time": 10.292885999999996,
          "velocity": 0.7874015748031497,
          "duration": 0.12552299999999939
        },
        {
          "name": "B4",
          "midi": 71,
          "time": 63.263591999999996,
          "velocity": 0.7874015748031497,
          "duration": 0.06276150000000058
        },
        {
          "name": "D#5",
          "midi": 75,
          "time": 63.389115,
          "velocity": 0.7874015748031497,
          "duration": 0.06276150000000058
        },
        {
          "name": "C#5",
          "midi": 73,
          "time": 63.514638,
          "velocity": 0.7874015748031497,
          "duration": 0.06276150000000058
        },
        {
          "name": "D#5",
          "midi": 75,
          "time": 63.640161,
          "velocity": 0.7874015748031497,
          "duration": 0.06276150000000058
        },
        {
          "name": "B4",
          "midi": 71,
          "time": 63.765684,
          "velocity": 0.7874015748031497,
          "duration": 0.06276150000000058
        },
        {
          "name": "B4",
          "midi": 71,
          "time": 64.01673,
          "velocity": 0.7874015748031497,
          "duration": 0.06276149999999348
        },
        {
          "name": "C#5",
          "midi": 73,
          "time": 64.14225299999998,
          "velocity": 0.7874015748031497,
          "duration": 0.06276149999999348
        },
        {
          "name": "D#5",
          "midi": 75,
          "time": 64.26777599999997,
          "velocity": 0.7874015748031497,
          "duration": 0.06276149999999348
        },
        {
          "name": "B5",
          "midi": 83,
          "time": 64.39329899999996,
          "velocity": 0.7874015748031497,
          "duration": 0.06276149999999348
        },
        {
          "name": "F#5",
          "midi": 78,
          "time": 64.51882199999994,
          "velocity": 0.7874015748031497,
          "duration": 0.06276149999999348
        },
        {
          "name": "B4",
          "midi": 71,
          "time": 64.76986799999993,
          "velocity": 0.7874015748031497,
          "duration": 0.06276149999999348
        },
        {
          "name": "D#5",
          "midi": 75,
          "time": 64.89539099999992,
          "velocity": 0.7874015748031497,
          "duration": 0.06276149999999348
        },
        {
          "name": "C#5",
          "midi": 73,
          "time": 65.0209139999999,
          "velocity": 0.7874015748031497,
          "duration": 0.06276149999999348
        },
        {
          "name": "D#5",
          "midi": 75,
          "time": 65.14643699999989,
          "velocity": 0.7874015748031497,
          "duration": 0.06276149999999348
        },
        {
          "name": "B4",
          "midi": 71,
          "time": 65.27195999999988,
          "velocity": 0.7874015748031497,
          "duration": 0.06276149999999348
        },
        {
          "name": "B4",
          "midi": 71,
          "time": 65.52300599999987,
          "velocity": 0.7874015748031497,
          "duration": 0.06276149999999348
        },
        {
          "name": "C#5",
          "midi": 73,
          "time": 65.64852899999985,
          "velocity": 0.7874015748031497,
          "duration": 0.06276149999999348
        },
        {
          "name": "D#5",
          "midi": 75,
          "time": 65.77405199999984,
          "velocity": 0.7874015748031497,
          "duration": 0.06276149999999348
        },
        {
          "name": "B5",
          "midi": 83,
          "time": 65.89957499999983,
          "velocity": 0.7874015748031497,
          "duration": 0.06276149999999348
        },
        {
          "name": "F#5",
          "midi": 78,
          "time": 66.02509799999982,
          "velocity": 0.7874015748031497,
          "duration": 0.06276149999999348
        },
        {
          "name": "A#4",
          "midi": 70,
          "time": 66.2761439999998,
          "velocity": 0.7874015748031497,
          "duration": 0.06276149999999348
        },
        {
          "name": "C#5",
          "midi": 73,
          "time": 66.40166699999979,
          "velocity": 0.7874015748031497,
          "duration": 0.06276149999999348
        },
        {
          "name": "C5",
          "midi": 72,
          "time": 66.52718999999978,
          "velocity": 0.7874015748031497,
          "duration": 0.06276149999999348
        },
        {
          "name": "C#5",
          "midi": 73,
          "time": 66.65271299999976,
          "velocity": 0.7874015748031497,
          "duration": 0.06276149999999348
        },
        {
          "name": "A#4",
          "midi": 70,
          "time": 66.77823599999975,
          "velocity": 0.7874015748031497,
          "duration": 0.06276149999999348
        },
        {
          "name": "A#4",
          "midi": 70,
          "time": 67.02928199999974,
          "velocity": 0.7874015748031497,
          "duration": 0.06276149999999348
        },
        {
          "name": "C5",
          "midi": 72,
          "time": 67.15480499999973,
          "velocity": 0.7874015748031497,
          "duration": 0.06276149999999348
        },
        {
          "name": "C#5",
          "midi": 73,
          "time": 67.28032799999971,
          "velocity": 0.7874015748031497,
          "duration": 0.06276149999999348
        },
        {
          "name": "G#5",
          "midi": 80,
          "time": 67.4058509999997,
          "velocity": 0.7874015748031497,
          "duration": 0.06276149999999348
        },
        {
          "name": "F5",
          "midi": 77,
          "time": 67.53137399999969,
          "velocity": 0.7874015748031497,
          "duration": 0.06276149999999348
        },
        {
          "name": "D#4",
          "midi": 63,
          "time": 67.78241999999968,
          "velocity": 0.7874015748031497,
          "duration": 0.06276149999999348
        },
        {
          "name": "G#4",
          "midi": 68,
          "time": 68.03346599999966,
          "velocity": 0.7874015748031497,
          "duration": 0.06276149999999348
        },
        {
          "name": "C#5",
          "midi": 73,
          "time": 68.28451199999965,
          "velocity": 0.7874015748031497,
          "duration": 0.06276149999999348
        },
        {
          "name": "D#5",
          "midi": 75,
          "time": 68.53555799999964,
          "velocity": 0.7874015748031497,
          "duration": 0.06276149999999348
        },
        {
          "name": "F5",
          "midi": 77,
          "time": 69.28869599999963,
          "velocity": 0.8188976377952756,
          "duration": 0.43933049999999696
        },
        {
          "name": "F#5",
          "midi": 78,
          "time": 69.79078799999962,
          "velocity": 0.8188976377952756,
          "duration": 0.2510460000000023
        },
        {
          "name": "G#5",
          "midi": 80,
          "time": 70.04183399999962,
          "velocity": 0.8188976377952756,
          "duration": 0.43933049999999696
        },
        {
          "name": "A#5",
          "midi": 82,
          "time": 70.54392599999962,
          "velocity": 0.8188976377952756,
          "duration": 0.2510460000000023
        },
        {
          "name": "F5",
          "midi": 77,
          "time": 70.79497199999962,
          "velocity": 0.8188976377952756,
          "duration": 0.43933049999999696
        },
        {
          "name": "F#5",
          "midi": 78,
          "time": 71.29706399999961,
          "velocity": 0.8188976377952756,
          "duration": 0.2510460000000023
        },
        {
          "name": "G#5",
          "midi": 80,
          "time": 71.54810999999961,
          "velocity": 0.8188976377952756,
          "duration": 0.43933049999999696
        },
        {
          "name": "A#5",
          "midi": 82,
          "time": 72.0502019999996,
          "velocity": 0.8188976377952756,
          "duration": 0.2510460000000023
        },
        {
          "name": "F5",
          "midi": 77,
          "time": 72.3012479999996,
          "velocity": 0.8188976377952756,
          "duration": 0.12552300000000116
        },
        {
          "name": "F#5",
          "midi": 78,
          "time": 72.4267709999996,
          "velocity": 0.8188976377952756,
          "duration": 0.12552300000000116
        },
        {
          "name": "F5",
          "midi": 77,
          "time": 72.5522939999996,
          "velocity": 0.8188976377952756,
          "duration": 1.004183999999995
        },
        {
          "name": "B4",
          "midi": 71,
          "time": 75.3137999999996,
          "velocity": 0.7874015748031497,
          "duration": 0.06276149999999348
        },
        {
          "name": "D#5",
          "midi": 75,
          "time": 75.43932299999959,
          "velocity": 0.7874015748031497,
          "duration": 0.06276149999999348
        },
        {
          "name": "C#5",
          "midi": 73,
          "time": 75.56484599999958,
          "velocity": 0.7874015748031497,
          "duration": 0.06276149999999348
        },
        {
          "name": "D#5",
          "midi": 75,
          "time": 75.69036899999956,
          "velocity": 0.7874015748031497,
          "duration": 0.06276149999999348
        },
        {
          "name": "B4",
          "midi": 71,
          "time": 75.81589199999955,
          "velocity": 0.7874015748031497,
          "duration": 0.06276149999999348
        },
        {
          "name": "B4",
          "midi": 71,
          "time": 76.06693799999954,
          "velocity": 0.7874015748031497,
          "duration": 0.06276149999999348
        },
        {
          "name": "C#5",
          "midi": 73,
          "time": 76.19246099999953,
          "velocity": 0.7874015748031497,
          "duration": 0.06276149999999348
        },
        {
          "name": "D#5",
          "midi": 75,
          "time": 76.31798399999951,
          "velocity": 0.7874015748031497,
          "duration": 0.06276149999999348
        },
        {
          "name": "B5",
          "midi": 83,
          "time": 76.4435069999995,
          "velocity": 0.7874015748031497,
          "duration": 0.06276149999999348
        },
        {
          "name": "F#5",
          "midi": 78,
          "time": 76.56902999999949,
          "velocity": 0.7874015748031497,
          "duration": 0.06276149999999348
        },
        {
          "name": "B4",
          "midi": 71,
          "time": 76.82007599999947,
          "velocity": 0.7874015748031497,
          "duration": 0.06276149999999348
        },
        {
          "name": "D#5",
          "midi": 75,
          "time": 76.94559899999946,
          "velocity": 0.7874015748031497,
          "duration": 0.06276149999999348
        },
        {
          "name": "C#5",
          "midi": 73,
          "time": 77.07112199999945,
          "velocity": 0.7874015748031497,
          "duration": 0.06276149999999348
        },
        {
          "name": "D#5",
          "midi": 75,
          "time": 77.19664499999944,
          "velocity": 0.7874015748031497,
          "duration": 0.06276149999999348
        },
        {
          "name": "B4",
          "midi": 71,
          "time": 77.32216799999942,
          "velocity": 0.7874015748031497,
          "duration": 0.06276149999999348
        },
        {
          "name": "B4",
          "midi": 71,
          "time": 77.57321399999941,
          "velocity": 0.7874015748031497,
          "duration": 0.06276149999999348
        },
        {
          "name": "C#5",
          "midi": 73,
          "time": 77.6987369999994,
          "velocity": 0.7874015748031497,
          "duration": 0.06276149999999348
        },
        {
          "name": "D#5",
          "midi": 75,
          "time": 77.82425999999938,
          "velocity": 0.7874015748031497,
          "duration": 0.06276149999999348
        },
        {
          "name": "B5",
          "midi": 83,
          "time": 77.94978299999937,
          "velocity": 0.7874015748031497,
          "duration": 0.06276149999999348
        },
        {
          "name": "F#5",
          "midi": 78,
          "time": 78.07530599999936,
          "velocity": 0.7874015748031497,
          "duration": 0.06276149999999348
        },
        {
          "name": "A#4",
          "midi": 70,
          "time": 78.32635199999935,
          "velocity": 0.7874015748031497,
          "duration": 0.06276149999999348
        },
        {
          "name": "C#5",
          "midi": 73,
          "time": 78.45187499999933,
          "velocity": 0.7874015748031497,
          "duration": 0.06276149999999348
        },
        {
          "name": "C5",
          "midi": 72,
          "time": 78.57739799999932,
          "velocity": 0.7874015748031497,
          "duration": 0.06276149999999348
        },
        {
          "name": "C#5",
          "midi": 73,
          "time": 78.70292099999931,
          "velocity": 0.7874015748031497,
          "duration": 0.06276149999999348
        },
        {
          "name": "A#4",
          "midi": 70,
          "time": 78.8284439999993,
          "velocity": 0.7874015748031497,
          "duration": 0.06276149999999348
        },
        {
          "name": "A#4",
          "midi": 70,
          "time": 79.07948999999928,
          "velocity": 0.7874015748031497,
          "duration": 0.06276149999999348
        },
        {
          "name": "C5",
          "midi": 72,
          "time": 79.20501299999927,
          "velocity": 0.7874015748031497,
          "duration": 0.06276149999999348
        },
        {
          "name": "C#5",
          "midi": 73,
          "time": 79.33053599999926,
          "velocity": 0.7874015748031497,
          "duration": 0.06276149999999348
        },
        {
          "name": "G#5",
          "midi": 80,
          "time": 79.45605899999924,
          "velocity": 0.7874015748031497,
          "duration": 0.06276149999999348
        },
        {
          "name": "F5",
          "midi": 77,
          "time": 79.58158199999923,
          "velocity": 0.7874015748031497,
          "duration": 0.06276149999999348
        },
        {
          "name": "D#4",
          "midi": 63,
          "time": 79.83262799999922,
          "velocity": 0.7874015748031497,
          "duration": 0.06276149999999348
        },
        {
          "name": "G#4",
          "midi": 68,
          "time": 80.0836739999992,
          "velocity": 0.7874015748031497,
          "duration": 0.06276149999999348
        },
        {
          "name": "C#5",
          "midi": 73,
          "time": 80.3347199999992,
          "velocity": 0.7874015748031497,
          "duration": 0.06276149999999348
        },
        {
          "name": "D#5",
          "midi": 75,
          "time": 80.58576599999918,
          "velocity": 0.7874015748031497,
          "duration": 0.06276149999999348
        },
        {
          "name": "F5",
          "midi": 77,
          "time": 81.33890399999918,
          "velocity": 0.8188976377952756,
          "duration": 0.43933049999999696
        },
        {
          "name": "F#5",
          "midi": 78,
          "time": 81.84099599999917,
          "velocity": 0.8188976377952756,
          "duration": 0.2510460000000023
        },
        {
          "name": "G#5",
          "midi": 80,
          "time": 82.09204199999917,
          "velocity": 0.8188976377952756,
          "duration": 0.43933049999999696
        },
        {
          "name": "A#5",
          "midi": 82,
          "time": 82.59413399999916,
          "velocity": 0.8188976377952756,
          "duration": 0.2510460000000023
        },
        {
          "name": "F5",
          "midi": 77,
          "time": 82.84517999999916,
          "velocity": 0.8188976377952756,
          "duration": 0.43933049999999696
        },
        {
          "name": "F#5",
          "midi": 78,
          "time": 83.34727199999915,
          "velocity": 0.8188976377952756,
          "duration": 0.2510460000000023
        },
        {
          "name": "G#5",
          "midi": 80,
          "time": 83.59831799999915,
          "velocity": 0.8188976377952756,
          "duration": 0.43933049999999696
        },
        {
          "name": "A#5",
          "midi": 82,
          "time": 84.10040999999914,
          "velocity": 0.8188976377952756,
          "duration": 0.2510460000000023
        },
        {
          "name": "F5",
          "midi": 77,
          "time": 84.35145599999915,
          "velocity": 0.8188976377952756,
          "duration": 0.12552300000000116
        },
        {
          "name": "F#5",
          "midi": 78,
          "time": 84.47697899999915,
          "velocity": 0.8188976377952756,
          "duration": 0.12552300000000116
        },
        {
          "name": "F5",
          "midi": 77,
          "time": 84.60250199999915,
          "velocity": 0.8188976377952756,
          "duration": 1.004183999999995
        }
      ],
      "controlChanges": {
        "6": [
          {
            "number": 6,
            "time": 0,
            "value": 0.09448818897637795
          },
          {
            "number": 6,
            "time": 0,
            "value": 0.09448818897637795
          },
          {
            "number": 6,
            "time": 0,
            "value": 0.09448818897637795
          },
          {
            "number": 6,
            "time": 108.45187199999914,
            "value": 0.09448818897637795
          },
          {
            "number": 6,
            "time": 108.46233224999914,
            "value": 0.09448818897637795
          },
          {
            "number": 6,
            "time": 108.46233224999914,
            "value": 0.09448818897637795
          }
        ],
        "7": [
          {
            "number": 7,
            "time": 0,
            "value": 0.8188976377952756
          },
          {
            "number": 7,
            "time": 0,
            "value": 0.8188976377952756
          },
          {
            "number": 7,
            "time": 0,
            "value": 0.8188976377952756
          },
          {
            "number": 7,
            "time": 0,
            "value": 0.8188976377952756
          },
          {
            "number": 7,
            "time": 0,
            "value": 0.8188976377952756
          },
          {
            "number": 7,
            "time": 0,
            "value": 0.8188976377952756
          },
          {
            "number": 7,
            "time": 108.45187199999914,
            "value": 0.8188976377952756
          },
          {
            "number": 7,
            "time": 108.46233224999914,
            "value": 0.8188976377952756
          },
          {
            "number": 7,
            "time": 108.46233224999914,
            "value": 0.8188976377952756
          }
        ],
        "10": [
          {
            "number": 10,
            "time": 0,
            "value": 0.5039370078740157
          },
          {
            "number": 10,
            "time": 0,
            "value": 0.5039370078740157
          },
          {
            "number": 10,
            "time": 0,
            "value": 0.5039370078740157
          },
          {
            "number": 10,
            "time": 0,
            "value": 0.5039370078740157
          },
          {
            "number": 10,
            "time": 108.45187199999914,
            "value": 0.5039370078740157
          },
          {
            "number": 10,
            "time": 108.46233224999914,
            "value": 0.5039370078740157
          },
          {
            "number": 10,
            "time": 108.46233224999914,
            "value": 0.5039370078740157
          }
        ],
        "100": [
          {
            "number": 100,
            "time": 0,
            "value": 0
          },
          {
            "number": 100,
            "time": 0,
            "value": 0
          },
          {
            "number": 100,
            "time": 0,
            "value": 0
          },
          {
            "number": 100,
            "time": 108.45187199999914,
            "value": 0
          },
          {
            "number": 100,
            "time": 108.46233224999914,
            "value": 0
          },
          {
            "number": 100,
            "time": 108.46233224999914,
            "value": 0
          }
        ],
        "101": [
          {
            "number": 101,
            "time": 0,
            "value": 0
          },
          {
            "number": 101,
            "time": 0,
            "value": 0
          },
          {
            "number": 101,
            "time": 0,
            "value": 0
          },
          {
            "number": 101,
            "time": 108.45187199999914,
            "value": 0
          },
          {
            "number": 101,
            "time": 108.46233224999914,
            "value": 0
          },
          {
            "number": 101,
            "time": 108.46233224999914,
            "value": 0
          }
        ]
      },
      "id": 8,
      "name": "MIDI out #10",
      "instrumentNumber": 80,
      "instrumentFamily": "drums",
      "channelNumber": 10,
      "isPercussion": true
    },
    {
      "startTime": 21.087864,
      "duration": 26.610875999999998,
      "length": 9,
      "notes": [
        {
          "name": "C#4",
          "midi": 61,
          "time": 21.087864,
          "velocity": 0.7874015748031497,
          "duration": 1.5062759999999997
        },
        {
          "name": "G#4",
          "midi": 68,
          "time": 21.087864,
          "velocity": 0.7874015748031497,
          "duration": 1.5062759999999997
        },
        {
          "name": "C#5",
          "midi": 73,
          "time": 21.087864,
          "velocity": 0.7874015748031497,
          "duration": 1.5062759999999997
        },
        {
          "name": "G#4",
          "midi": 68,
          "time": 22.59414,
          "velocity": 0.7874015748031497,
          "duration": 1.5062759999999997
        },
        {
          "name": "C4",
          "midi": 60,
          "time": 22.59414,
          "velocity": 0.7874015748031497,
          "duration": 1.5062759999999997
        },
        {
          "name": "C5",
          "midi": 72,
          "time": 22.59414,
          "velocity": 0.7874015748031497,
          "duration": 1.5062759999999997
        },
        {
          "name": "F5",
          "midi": 77,
          "time": 24.100416,
          "velocity": 0.7874015748031497,
          "duration": 2.5104599999999984
        },
        {
          "name": "F4",
          "midi": 65,
          "time": 24.100416,
          "velocity": 0.7874015748031497,
          "duration": 2.5104599999999984
        },
        {
          "name": "C5",
          "midi": 72,
          "time": 24.100416,
          "velocity": 0.7874015748031497,
          "duration": 2.5104599999999984
        }
      ],
      "controlChanges": {
        "6": [
          {
            "number": 6,
            "time": 0,
            "value": 0.09448818897637795
          },
          {
            "number": 6,
            "time": 0,
            "value": 0.09448818897637795
          },
          {
            "number": 6,
            "time": 0,
            "value": 0.09448818897637795
          },
          {
            "number": 6,
            "time": 108.45187200000001,
            "value": 0.09448818897637795
          },
          {
            "number": 6,
            "time": 108.46233225,
            "value": 0.09448818897637795
          },
          {
            "number": 6,
            "time": 108.46233225,
            "value": 0.09448818897637795
          }
        ],
        "7": [
          {
            "number": 7,
            "time": 0,
            "value": 0.4881889763779528
          },
          {
            "number": 7,
            "time": 0,
            "value": 0.4881889763779528
          },
          {
            "number": 7,
            "time": 0,
            "value": 0.4881889763779528
          },
          {
            "number": 7,
            "time": 0,
            "value": 0.4881889763779528
          },
          {
            "number": 7,
            "time": 108.45187200000001,
            "value": 0.4881889763779528
          },
          {
            "number": 7,
            "time": 108.46233225,
            "value": 0.4881889763779528
          },
          {
            "number": 7,
            "time": 108.46233225,
            "value": 0.4881889763779528
          }
        ],
        "10": [
          {
            "number": 10,
            "time": 0,
            "value": 0.5039370078740157
          },
          {
            "number": 10,
            "time": 0,
            "value": 0.5039370078740157
          },
          {
            "number": 10,
            "time": 0,
            "value": 0.5039370078740157
          },
          {
            "number": 10,
            "time": 0,
            "value": 0.5039370078740157
          },
          {
            "number": 10,
            "time": 108.45187200000001,
            "value": 0.5039370078740157
          },
          {
            "number": 10,
            "time": 108.46233225,
            "value": 0.5039370078740157
          },
          {
            "number": 10,
            "time": 108.46233225,
            "value": 0.5039370078740157
          }
        ],
        "100": [
          {
            "number": 100,
            "time": 0,
            "value": 0
          },
          {
            "number": 100,
            "time": 0,
            "value": 0
          },
          {
            "number": 100,
            "time": 0,
            "value": 0
          },
          {
            "number": 100,
            "time": 108.45187200000001,
            "value": 0
          },
          {
            "number": 100,
            "time": 108.46233225,
            "value": 0
          },
          {
            "number": 100,
            "time": 108.46233225,
            "value": 0
          }
        ],
        "101": [
          {
            "number": 101,
            "time": 0,
            "value": 0
          },
          {
            "number": 101,
            "time": 0,
            "value": 0
          },
          {
            "number": 101,
            "time": 0,
            "value": 0
          },
          {
            "number": 101,
            "time": 108.45187200000001,
            "value": 0
          },
          {
            "number": 101,
            "time": 108.46233225,
            "value": 0
          },
          {
            "number": 101,
            "time": 108.46233225,
            "value": 0
          }
        ]
      },
      "id": 9,
      "name": "MIDI out #11",
      "instrumentNumber": 52,
      "instrument": "choir aahs",
      "instrumentFamily": "ensemble",
      "channelNumber": 11,
      "isPercussion": false
    },
    {
      "startTime": 12.301254,
      "duration": 106.94559599999836,
      "length": 182,
      "notes": [
        {
          "name": "F3",
          "midi": 53,
          "time": 12.301254,
          "velocity": 0.5039370078740157,
          "duration": 0.06276150000000058
        },
        {
          "name": "F5",
          "midi": 77,
          "time": 12.301254,
          "velocity": 0.5039370078740157,
          "duration": 0.06276150000000058
        },
        {
          "name": "F4",
          "midi": 65,
          "time": 12.301254,
          "velocity": 0.5039370078740157,
          "duration": 0.06276150000000058
        },
        {
          "name": "G#3",
          "midi": 56,
          "time": 12.426777000000001,
          "velocity": 0.5039370078740157,
          "duration": 0.06276150000000058
        },
        {
          "name": "G#4",
          "midi": 68,
          "time": 12.426777000000001,
          "velocity": 0.5039370078740157,
          "duration": 0.06276150000000058
        },
        {
          "name": "G#5",
          "midi": 80,
          "time": 12.426777000000001,
          "velocity": 0.5039370078740157,
          "duration": 0.06276150000000058
        },
        {
          "name": "D#3",
          "midi": 51,
          "time": 12.552300000000002,
          "velocity": 0.5039370078740157,
          "duration": 0.06276150000000058
        },
        {
          "name": "D#5",
          "midi": 75,
          "time": 12.552300000000002,
          "velocity": 0.5039370078740157,
          "duration": 0.06276150000000058
        },
        {
          "name": "D#4",
          "midi": 63,
          "time": 12.552300000000002,
          "velocity": 0.5039370078740157,
          "duration": 0.06276150000000058
        },
        {
          "name": "F3",
          "midi": 53,
          "time": 13.807530000000003,
          "velocity": 0.6299212598425197,
          "duration": 0.06276150000000058
        },
        {
          "name": "F4",
          "midi": 65,
          "time": 13.807530000000003,
          "velocity": 0.6299212598425197,
          "duration": 0.06276150000000058
        },
        {
          "name": "F5",
          "midi": 77,
          "time": 13.807530000000003,
          "velocity": 0.6299212598425197,
          "duration": 0.06276150000000058
        },
        {
          "name": "G#3",
          "midi": 56,
          "time": 13.933053000000005,
          "velocity": 0.6299212598425197,
          "duration": 0.06276150000000058
        },
        {
          "name": "G#4",
          "midi": 68,
          "time": 13.933053000000005,
          "velocity": 0.6299212598425197,
          "duration": 0.06276150000000058
        },
        {
          "name": "G#5",
          "midi": 80,
          "time": 13.933053000000005,
          "velocity": 0.6299212598425197,
          "duration": 0.06276150000000058
        },
        {
          "name": "D#5",
          "midi": 75,
          "time": 14.058576000000006,
          "velocity": 0.6299212598425197,
          "duration": 0.06276150000000058
        },
        {
          "name": "D#4",
          "midi": 63,
          "time": 14.058576000000006,
          "velocity": 0.6299212598425197,
          "duration": 0.06276150000000058
        },
        {
          "name": "D#3",
          "midi": 51,
          "time": 14.058576000000006,
          "velocity": 0.6299212598425197,
          "duration": 0.06276150000000058
        },
        {
          "name": "F4",
          "midi": 65,
          "time": 30.376566000000008,
          "velocity": 0.5039370078740157,
          "duration": 0.06276150000000058
        },
        {
          "name": "F5",
          "midi": 77,
          "time": 30.376566000000008,
          "velocity": 0.5039370078740157,
          "duration": 0.06276150000000058
        },
        {
          "name": "F3",
          "midi": 53,
          "time": 30.376566000000008,
          "velocity": 0.5039370078740157,
          "duration": 0.06276150000000058
        },
        {
          "name": "G#3",
          "midi": 56,
          "time": 30.50208900000001,
          "velocity": 0.5039370078740157,
          "duration": 0.06276150000000058
        },
        {
          "name": "G#4",
          "midi": 68,
          "time": 30.50208900000001,
          "velocity": 0.5039370078740157,
          "duration": 0.06276150000000058
        },
        {
          "name": "G#5",
          "midi": 80,
          "time": 30.50208900000001,
          "velocity": 0.5039370078740157,
          "duration": 0.06276150000000058
        },
        {
          "name": "D#3",
          "midi": 51,
          "time": 30.62761200000001,
          "velocity": 0.5039370078740157,
          "duration": 0.06276150000000058
        },
        {
          "name": "D#5",
          "midi": 75,
          "time": 30.62761200000001,
          "velocity": 0.5039370078740157,
          "duration": 0.06276150000000058
        },
        {
          "name": "D#4",
          "midi": 63,
          "time": 30.62761200000001,
          "velocity": 0.5039370078740157,
          "duration": 0.06276150000000058
        },
        {
          "name": "F3",
          "midi": 53,
          "time": 31.88284200000001,
          "velocity": 0.6299212598425197,
          "duration": 0.06276150000000058
        },
        {
          "name": "F4",
          "midi": 65,
          "time": 31.88284200000001,
          "velocity": 0.6299212598425197,
          "duration": 0.06276150000000058
        },
        {
          "name": "F5",
          "midi": 77,
          "time": 31.88284200000001,
          "velocity": 0.6299212598425197,
          "duration": 0.06276150000000058
        },
        {
          "name": "G#3",
          "midi": 56,
          "time": 32.00836500000001,
          "velocity": 0.6299212598425197,
          "duration": 0.06276150000000058
        },
        {
          "name": "G#4",
          "midi": 68,
          "time": 32.00836500000001,
          "velocity": 0.6299212598425197,
          "duration": 0.06276150000000058
        },
        {
          "name": "G#5",
          "midi": 80,
          "time": 32.00836500000001,
          "velocity": 0.6299212598425197,
          "duration": 0.06276150000000058
        },
        {
          "name": "D#5",
          "midi": 75,
          "time": 32.13388800000001,
          "velocity": 0.6299212598425197,
          "duration": 0.06276150000000058
        },
        {
          "name": "D#4",
          "midi": 63,
          "time": 32.13388800000001,
          "velocity": 0.6299212598425197,
          "duration": 0.06276150000000058
        },
        {
          "name": "D#3",
          "midi": 51,
          "time": 32.13388800000001,
          "velocity": 0.6299212598425197,
          "duration": 0.06276150000000058
        },
        {
          "name": "A#3",
          "midi": 58,
          "time": 35.397486000000015,
          "velocity": 0.7874015748031497,
          "duration": 0.12552300000000116
        },
        {
          "name": "A#5",
          "midi": 82,
          "time": 35.397486000000015,
          "velocity": 0.7874015748031497,
          "duration": 0.12552300000000116
        },
        {
          "name": "A#4",
          "midi": 70,
          "time": 35.397486000000015,
          "velocity": 0.7874015748031497,
          "duration": 0.12552300000000116
        },
        {
          "name": "C#4",
          "midi": 61,
          "time": 35.64853200000002,
          "velocity": 0.7874015748031497,
          "duration": 0.12552300000000116
        },
        {
          "name": "C#6",
          "midi": 85,
          "time": 35.64853200000002,
          "velocity": 0.7874015748031497,
          "duration": 0.12552300000000116
        },
        {
          "name": "C#5",
          "midi": 73,
          "time": 35.64853200000002,
          "velocity": 0.7874015748031497,
          "duration": 0.12552300000000116
        },
        {
          "name": "D#4",
          "midi": 63,
          "time": 35.89957800000002,
          "velocity": 0.7874015748031497,
          "duration": 0.12552300000000116
        },
        {
          "name": "D#6",
          "midi": 87,
          "time": 35.89957800000002,
          "velocity": 0.7874015748031497,
          "duration": 0.12552300000000116
        },
        {
          "name": "D#5",
          "midi": 75,
          "time": 35.89957800000002,
          "velocity": 0.7874015748031497,
          "duration": 0.12552300000000116
        },
        {
          "name": "F4",
          "midi": 65,
          "time": 36.15062400000002,
          "velocity": 0.7874015748031497,
          "duration": 0.7531379999999999
        },
        {
          "name": "F6",
          "midi": 89,
          "time": 36.15062400000002,
          "velocity": 0.7874015748031497,
          "duration": 0.7531379999999999
        },
        {
          "name": "F5",
          "midi": 77,
          "time": 36.15062400000002,
          "velocity": 0.7874015748031497,
          "duration": 0.7531379999999999
        },
        {
          "name": "C#4",
          "midi": 61,
          "time": 37.154808000000024,
          "velocity": 0.7874015748031497,
          "duration": 0.2510460000000023
        },
        {
          "name": "C#5",
          "midi": 73,
          "time": 37.154808000000024,
          "velocity": 0.7874015748031497,
          "duration": 0.2510460000000023
        },
        {
          "name": "C#6",
          "midi": 85,
          "time": 37.154808000000024,
          "velocity": 0.7874015748031497,
          "duration": 0.2510460000000023
        },
        {
          "name": "D#4",
          "midi": 63,
          "time": 37.405854000000026,
          "velocity": 0.7874015748031497,
          "duration": 0.2510460000000023
        },
        {
          "name": "D#5",
          "midi": 75,
          "time": 37.405854000000026,
          "velocity": 0.7874015748031497,
          "duration": 0.2510460000000023
        },
        {
          "name": "D#6",
          "midi": 87,
          "time": 37.405854000000026,
          "velocity": 0.7874015748031497,
          "duration": 0.2510460000000023
        },
        {
          "name": "F4",
          "midi": 65,
          "time": 37.65690000000003,
          "velocity": 0.7874015748031497,
          "duration": 0.5020919999999975
        },
        {
          "name": "F5",
          "midi": 77,
          "time": 37.65690000000003,
          "velocity": 0.7874015748031497,
          "duration": 0.5020919999999975
        },
        {
          "name": "F6",
          "midi": 89,
          "time": 37.65690000000003,
          "velocity": 0.7874015748031497,
          "duration": 0.5020919999999975
        },
        {
          "name": "D#4",
          "midi": 63,
          "time": 38.158992000000026,
          "velocity": 0.7874015748031497,
          "duration": 0.2510460000000023
        },
        {
          "name": "D#5",
          "midi": 75,
          "time": 38.158992000000026,
          "velocity": 0.7874015748031497,
          "duration": 0.2510460000000023
        },
        {
          "name": "D#6",
          "midi": 87,
          "time": 38.158992000000026,
          "velocity": 0.7874015748031497,
          "duration": 0.2510460000000023
        },
        {
          "name": "C#4",
          "midi": 61,
          "time": 38.41003800000003,
          "velocity": 0.7874015748031497,
          "duration": 0.12552300000000116
        },
        {
          "name": "C#5",
          "midi": 73,
          "time": 38.41003800000003,
          "velocity": 0.7874015748031497,
          "duration": 0.12552300000000116
        },
        {
          "name": "C#6",
          "midi": 85,
          "time": 38.41003800000003,
          "velocity": 0.7874015748031497,
          "duration": 0.12552300000000116
        },
        {
          "name": "D#4",
          "midi": 63,
          "time": 38.53556100000003,
          "velocity": 0.7874015748031497,
          "duration": 0.12552300000000116
        },
        {
          "name": "D#6",
          "midi": 87,
          "time": 38.53556100000003,
          "velocity": 0.7874015748031497,
          "duration": 0.12552300000000116
        },
        {
          "name": "D#5",
          "midi": 75,
          "time": 38.53556100000003,
          "velocity": 0.7874015748031497,
          "duration": 0.12552300000000116
        },
        {
          "name": "C4",
          "midi": 60,
          "time": 38.66108400000003,
          "velocity": 0.7874015748031497,
          "duration": 0.12552300000000116
        },
        {
          "name": "C5",
          "midi": 72,
          "time": 38.66108400000003,
          "velocity": 0.7874015748031497,
          "duration": 0.12552300000000116
        },
        {
          "name": "C6",
          "midi": 84,
          "time": 38.66108400000003,
          "velocity": 0.7874015748031497,
          "duration": 0.12552300000000116
        },
        {
          "name": "G#3",
          "midi": 56,
          "time": 38.91213000000003,
          "velocity": 0.7874015748031497,
          "duration": 0.2510460000000023
        },
        {
          "name": "G#4",
          "midi": 68,
          "time": 38.91213000000003,
          "velocity": 0.7874015748031497,
          "duration": 0.2510460000000023
        },
        {
          "name": "G#5",
          "midi": 80,
          "time": 38.91213000000003,
          "velocity": 0.7874015748031497,
          "duration": 0.2510460000000023
        },
        {
          "name": "A#3",
          "midi": 58,
          "time": 39.163176000000036,
          "velocity": 0.7874015748031497,
          "duration": 1.0041840000000022
        },
        {
          "name": "A#4",
          "midi": 70,
          "time": 39.163176000000036,
          "velocity": 0.7874015748031497,
          "duration": 1.0041840000000022
        },
        {
          "name": "A#5",
          "midi": 82,
          "time": 39.163176000000036,
          "velocity": 0.7874015748031497,
          "duration": 1.0041840000000022
        },
        {
          "name": "C#4",
          "midi": 61,
          "time": 43.17991200000004,
          "velocity": 0.7874015748031497,
          "duration": 0.2510460000000023
        },
        {
          "name": "C#6",
          "midi": 85,
          "time": 43.17991200000004,
          "velocity": 0.7874015748031497,
          "duration": 0.2510460000000023
        },
        {
          "name": "C#5",
          "midi": 73,
          "time": 43.17991200000004,
          "velocity": 0.7874015748031497,
          "duration": 0.2510460000000023
        },
        {
          "name": "D#4",
          "midi": 63,
          "time": 43.43095800000004,
          "velocity": 0.7874015748031497,
          "duration": 0.2510460000000023
        },
        {
          "name": "D#6",
          "midi": 87,
          "time": 43.43095800000004,
          "velocity": 0.7874015748031497,
          "duration": 0.2510460000000023
        },
        {
          "name": "D#5",
          "midi": 75,
          "time": 43.43095800000004,
          "velocity": 0.7874015748031497,
          "duration": 0.2510460000000023
        },
        {
          "name": "F4",
          "midi": 65,
          "time": 43.68200400000004,
          "velocity": 0.7874015748031497,
          "duration": 0.5020919999999975
        },
        {
          "name": "F5",
          "midi": 77,
          "time": 43.68200400000004,
          "velocity": 0.7874015748031497,
          "duration": 0.5020919999999975
        },
        {
          "name": "F6",
          "midi": 89,
          "time": 43.68200400000004,
          "velocity": 0.7874015748031497,
          "duration": 0.5020919999999975
        },
        {
          "name": "D#4",
          "midi": 63,
          "time": 44.18409600000004,
          "velocity": 0.7874015748031497,
          "duration": 0.2510460000000023
        },
        {
          "name": "D#6",
          "midi": 87,
          "time": 44.18409600000004,
          "velocity": 0.7874015748031497,
          "duration": 0.2510460000000023
        },
        {
          "name": "D#5",
          "midi": 75,
          "time": 44.18409600000004,
          "velocity": 0.7874015748031497,
          "duration": 0.2510460000000023
        },
        {
          "name": "C#4",
          "midi": 61,
          "time": 44.43514200000004,
          "velocity": 0.7874015748031497,
          "duration": 0.12552300000000116
        },
        {
          "name": "C#6",
          "midi": 85,
          "time": 44.43514200000004,
          "velocity": 0.7874015748031497,
          "duration": 0.12552300000000116
        },
        {
          "name": "C#5",
          "midi": 73,
          "time": 44.43514200000004,
          "velocity": 0.7874015748031497,
          "duration": 0.12552300000000116
        },
        {
          "name": "D#4",
          "midi": 63,
          "time": 44.56066500000004,
          "velocity": 0.7874015748031497,
          "duration": 0.12552300000000116
        },
        {
          "name": "D#6",
          "midi": 87,
          "time": 44.56066500000004,
          "velocity": 0.7874015748031497,
          "duration": 0.12552300000000116
        },
        {
          "name": "D#5",
          "midi": 75,
          "time": 44.56066500000004,
          "velocity": 0.7874015748031497,
          "duration": 0.12552300000000116
        },
        {
          "name": "C4",
          "midi": 60,
          "time": 44.686188000000044,
          "velocity": 0.7874015748031497,
          "duration": 0.12552300000000116
        },
        {
          "name": "C6",
          "midi": 84,
          "time": 44.686188000000044,
          "velocity": 0.7874015748031497,
          "duration": 0.12552300000000116
        },
        {
          "name": "C5",
          "midi": 72,
          "time": 44.686188000000044,
          "velocity": 0.7874015748031497,
          "duration": 0.12552300000000116
        },
        {
          "name": "G#3",
          "midi": 56,
          "time": 44.937234000000046,
          "velocity": 0.7874015748031497,
          "duration": 0.2510460000000023
        },
        {
          "name": "G#5",
          "midi": 80,
          "time": 44.937234000000046,
          "velocity": 0.7874015748031497,
          "duration": 0.2510460000000023
        },
        {
          "name": "G#4",
          "midi": 68,
          "time": 44.937234000000046,
          "velocity": 0.7874015748031497,
          "duration": 0.2510460000000023
        },
        {
          "name": "A#3",
          "midi": 58,
          "time": 45.18828000000005,
          "velocity": 0.7874015748031497,
          "duration": 3.0125519999983226
        },
        {
          "name": "A#5",
          "midi": 82,
          "time": 45.18828000000005,
          "velocity": 0.7874015748031497,
          "duration": 3.0125519999983226
        },
        {
          "name": "A#4",
          "midi": 70,
          "time": 45.18828000000005,
          "velocity": 0.7874015748031497,
          "duration": 3.0125519999983226
        },
        {
          "name": "F3",
          "midi": 53,
          "time": 87.61505399999837,
          "velocity": 0.5039370078740157,
          "duration": 0.06276149999999348
        },
        {
          "name": "F5",
          "midi": 77,
          "time": 87.61505399999837,
          "velocity": 0.5039370078740157,
          "duration": 0.06276149999999348
        },
        {
          "name": "F4",
          "midi": 65,
          "time": 87.61505399999837,
          "velocity": 0.5039370078740157,
          "duration": 0.06276149999999348
        },
        {
          "name": "G#3",
          "midi": 56,
          "time": 87.74057699999835,
          "velocity": 0.5039370078740157,
          "duration": 0.06276149999999348
        },
        {
          "name": "G#4",
          "midi": 68,
          "time": 87.74057699999835,
          "velocity": 0.5039370078740157,
          "duration": 0.06276149999999348
        },
        {
          "name": "G#5",
          "midi": 80,
          "time": 87.74057699999835,
          "velocity": 0.5039370078740157,
          "duration": 0.06276149999999348
        },
        {
          "name": "D#4",
          "midi": 63,
          "time": 87.86609999999834,
          "velocity": 0.5039370078740157,
          "duration": 0.06276149999999348
        },
        {
          "name": "D#5",
          "midi": 75,
          "time": 87.86609999999834,
          "velocity": 0.5039370078740157,
          "duration": 0.06276149999999348
        },
        {
          "name": "D#3",
          "midi": 51,
          "time": 87.86609999999834,
          "velocity": 0.5039370078740157,
          "duration": 0.06276149999999348
        },
        {
          "name": "F3",
          "midi": 53,
          "time": 89.12132999999834,
          "velocity": 0.6299212598425197,
          "duration": 0.06276149999999348
        },
        {
          "name": "F4",
          "midi": 65,
          "time": 89.12132999999834,
          "velocity": 0.6299212598425197,
          "duration": 0.06276149999999348
        },
        {
          "name": "F5",
          "midi": 77,
          "time": 89.12132999999834,
          "velocity": 0.6299212598425197,
          "duration": 0.06276149999999348
        },
        {
          "name": "G#5",
          "midi": 80,
          "time": 89.24685299999832,
          "velocity": 0.6299212598425197,
          "duration": 0.06276149999999348
        },
        {
          "name": "G#4",
          "midi": 68,
          "time": 89.24685299999832,
          "velocity": 0.6299212598425197,
          "duration": 0.06276149999999348
        },
        {
          "name": "G#3",
          "midi": 56,
          "time": 89.24685299999832,
          "velocity": 0.6299212598425197,
          "duration": 0.06276149999999348
        },
        {
          "name": "D#3",
          "midi": 51,
          "time": 89.37237599999831,
          "velocity": 0.6299212598425197,
          "duration": 0.06276149999999348
        },
        {
          "name": "D#4",
          "midi": 63,
          "time": 89.37237599999831,
          "velocity": 0.6299212598425197,
          "duration": 0.06276149999999348
        },
        {
          "name": "D#5",
          "midi": 75,
          "time": 89.37237599999831,
          "velocity": 0.6299212598425197,
          "duration": 0.06276149999999348
        },
        {
          "name": "A#3",
          "midi": 58,
          "time": 92.6359739999983,
          "velocity": 0.7874015748031497,
          "duration": 0.12552300000000116
        },
        {
          "name": "A#4",
          "midi": 70,
          "time": 92.6359739999983,
          "velocity": 0.7874015748031497,
          "duration": 0.12552300000000116
        },
        {
          "name": "C#4",
          "midi": 61,
          "time": 92.8870199999983,
          "velocity": 0.7874015748031497,
          "duration": 0.12552300000000116
        },
        {
          "name": "C#5",
          "midi": 73,
          "time": 92.8870199999983,
          "velocity": 0.7874015748031497,
          "duration": 0.12552300000000116
        },
        {
          "name": "D#4",
          "midi": 63,
          "time": 93.1380659999983,
          "velocity": 0.7874015748031497,
          "duration": 0.12552300000000116
        },
        {
          "name": "D#5",
          "midi": 75,
          "time": 93.1380659999983,
          "velocity": 0.7874015748031497,
          "duration": 0.12552300000000116
        },
        {
          "name": "F4",
          "midi": 65,
          "time": 93.3891119999983,
          "velocity": 0.7874015748031497,
          "duration": 0.753138000000007
        },
        {
          "name": "F5",
          "midi": 77,
          "time": 93.3891119999983,
          "velocity": 0.7874015748031497,
          "duration": 0.753138000000007
        },
        {
          "name": "C#4",
          "midi": 61,
          "time": 94.39329599999832,
          "velocity": 0.7874015748031497,
          "duration": 0.2510460000000023
        },
        {
          "name": "C#5",
          "midi": 73,
          "time": 94.39329599999832,
          "velocity": 0.7874015748031497,
          "duration": 0.2510460000000023
        },
        {
          "name": "D#4",
          "midi": 63,
          "time": 94.64434199999832,
          "velocity": 0.7874015748031497,
          "duration": 0.2510460000000023
        },
        {
          "name": "D#5",
          "midi": 75,
          "time": 94.64434199999832,
          "velocity": 0.7874015748031497,
          "duration": 0.2510460000000023
        },
        {
          "name": "F4",
          "midi": 65,
          "time": 94.89538799999832,
          "velocity": 0.7874015748031497,
          "duration": 0.5020920000000046
        },
        {
          "name": "F5",
          "midi": 77,
          "time": 94.89538799999832,
          "velocity": 0.7874015748031497,
          "duration": 0.5020920000000046
        },
        {
          "name": "D#4",
          "midi": 63,
          "time": 95.39747999999832,
          "velocity": 0.7874015748031497,
          "duration": 0.2510460000000023
        },
        {
          "name": "D#5",
          "midi": 75,
          "time": 95.39747999999832,
          "velocity": 0.7874015748031497,
          "duration": 0.2510460000000023
        },
        {
          "name": "C#4",
          "midi": 61,
          "time": 95.64852599999833,
          "velocity": 0.7874015748031497,
          "duration": 0.12552300000000116
        },
        {
          "name": "C#5",
          "midi": 73,
          "time": 95.64852599999833,
          "velocity": 0.7874015748031497,
          "duration": 0.12552300000000116
        },
        {
          "name": "D#4",
          "midi": 63,
          "time": 95.77404899999833,
          "velocity": 0.7874015748031497,
          "duration": 0.12552300000000116
        },
        {
          "name": "D#5",
          "midi": 75,
          "time": 95.77404899999833,
          "velocity": 0.7874015748031497,
          "duration": 0.12552300000000116
        },
        {
          "name": "C4",
          "midi": 60,
          "time": 95.89957199999833,
          "velocity": 0.7874015748031497,
          "duration": 0.12552300000000116
        },
        {
          "name": "C5",
          "midi": 72,
          "time": 95.89957199999833,
          "velocity": 0.7874015748031497,
          "duration": 0.12552300000000116
        },
        {
          "name": "G#3",
          "midi": 56,
          "time": 96.15061799999833,
          "velocity": 0.7874015748031497,
          "duration": 0.2510460000000023
        },
        {
          "name": "G#4",
          "midi": 68,
          "time": 96.15061799999833,
          "velocity": 0.7874015748031497,
          "duration": 0.2510460000000023
        },
        {
          "name": "A#3",
          "midi": 58,
          "time": 96.40166399999833,
          "velocity": 0.7874015748031497,
          "duration": 1.004183999999995
        },
        {
          "name": "A#4",
          "midi": 70,
          "time": 96.40166399999833,
          "velocity": 0.7874015748031497,
          "duration": 1.004183999999995
        },
        {
          "name": "C#4",
          "midi": 61,
          "time": 100.41839999999833,
          "velocity": 0.7874015748031497,
          "duration": 0.2510460000000023
        },
        {
          "name": "C#5",
          "midi": 73,
          "time": 100.41839999999833,
          "velocity": 0.7874015748031497,
          "duration": 0.2510460000000023
        },
        {
          "name": "D#4",
          "midi": 63,
          "time": 100.66944599999833,
          "velocity": 0.7874015748031497,
          "duration": 0.2510460000000023
        },
        {
          "name": "D#5",
          "midi": 75,
          "time": 100.66944599999833,
          "velocity": 0.7874015748031497,
          "duration": 0.2510460000000023
        },
        {
          "name": "F4",
          "midi": 65,
          "time": 100.92049199999833,
          "velocity": 0.7874015748031497,
          "duration": 0.5020920000000046
        },
        {
          "name": "F5",
          "midi": 77,
          "time": 100.92049199999833,
          "velocity": 0.7874015748031497,
          "duration": 0.5020920000000046
        },
        {
          "name": "D#4",
          "midi": 63,
          "time": 101.42258399999834,
          "velocity": 0.7874015748031497,
          "duration": 0.2510460000000023
        },
        {
          "name": "D#5",
          "midi": 75,
          "time": 101.42258399999834,
          "velocity": 0.7874015748031497,
          "duration": 0.2510460000000023
        },
        {
          "name": "C#4",
          "midi": 61,
          "time": 101.67362999999834,
          "velocity": 0.7874015748031497,
          "duration": 0.12552300000000116
        },
        {
          "name": "C#5",
          "midi": 73,
          "time": 101.67362999999834,
          "velocity": 0.7874015748031497,
          "duration": 0.12552300000000116
        },
        {
          "name": "D#4",
          "midi": 63,
          "time": 101.79915299999834,
          "velocity": 0.7874015748031497,
          "duration": 0.12552300000000116
        },
        {
          "name": "D#5",
          "midi": 75,
          "time": 101.79915299999834,
          "velocity": 0.7874015748031497,
          "duration": 0.12552300000000116
        },
        {
          "name": "C4",
          "midi": 60,
          "time": 101.92467599999834,
          "velocity": 0.7874015748031497,
          "duration": 0.12552300000000116
        },
        {
          "name": "C5",
          "midi": 72,
          "time": 101.92467599999834,
          "velocity": 0.7874015748031497,
          "duration": 0.12552300000000116
        },
        {
          "name": "G#3",
          "midi": 56,
          "time": 102.17572199999834,
          "velocity": 0.7874015748031497,
          "duration": 0.2510460000000023
        },
        {
          "name": "G#4",
          "midi": 68,
          "time": 102.17572199999834,
          "velocity": 0.7874015748031497,
          "duration": 0.2510460000000023
        },
        {
          "name": "A#3",
          "midi": 58,
          "time": 102.42676799999835,
          "velocity": 0.7874015748031497,
          "duration": 1.004183999999995
        },
        {
          "name": "A#4",
          "midi": 70,
          "time": 102.42676799999835,
          "velocity": 0.7874015748031497,
          "duration": 1.004183999999995
        },
        {
          "name": "C#4",
          "midi": 61,
          "time": 103.43095199999834,
          "velocity": 0.7874015748031497,
          "duration": 0.2510460000000023
        },
        {
          "name": "C#5",
          "midi": 73,
          "time": 103.43095199999834,
          "velocity": 0.7874015748031497,
          "duration": 0.2510460000000023
        },
        {
          "name": "D#4",
          "midi": 63,
          "time": 103.68199799999834,
          "velocity": 0.7874015748031497,
          "duration": 0.2510460000000023
        },
        {
          "name": "D#5",
          "midi": 75,
          "time": 103.68199799999834,
          "velocity": 0.7874015748031497,
          "duration": 0.2510460000000023
        },
        {
          "name": "F4",
          "midi": 65,
          "time": 103.93304399999835,
          "velocity": 0.7874015748031497,
          "duration": 0.5020920000000046
        },
        {
          "name": "F5",
          "midi": 77,
          "time": 103.93304399999835,
          "velocity": 0.7874015748031497,
          "duration": 0.5020920000000046
        },
        {
          "name": "D#4",
          "midi": 63,
          "time": 104.43513599999835,
          "velocity": 0.7874015748031497,
          "duration": 0.2510460000000023
        },
        {
          "name": "D#5",
          "midi": 75,
          "time": 104.43513599999835,
          "velocity": 0.7874015748031497,
          "duration": 0.2510460000000023
        },
        {
          "name": "C#4",
          "midi": 61,
          "time": 104.68618199999835,
          "velocity": 0.7874015748031497,
          "duration": 0.12552300000000116
        },
        {
          "name": "C#5",
          "midi": 73,
          "time": 104.68618199999835,
          "velocity": 0.7874015748031497,
          "duration": 0.12552300000000116
        },
        {
          "name": "D#4",
          "midi": 63,
          "time": 104.81170499999835,
          "velocity": 0.7874015748031497,
          "duration": 0.12552300000000116
        },
        {
          "name": "D#5",
          "midi": 75,
          "time": 104.81170499999835,
          "velocity": 0.7874015748031497,
          "duration": 0.12552300000000116
        },
        {
          "name": "C4",
          "midi": 60,
          "time": 104.93722799999836,
          "velocity": 0.7874015748031497,
          "duration": 0.12552300000000116
        },
        {
          "name": "C5",
          "midi": 72,
          "time": 104.93722799999836,
          "velocity": 0.7874015748031497,
          "duration": 0.12552300000000116
        },
        {
          "name": "G#3",
          "midi": 56,
          "time": 105.18827399999836,
          "velocity": 0.7874015748031497,
          "duration": 0.2510460000000023
        },
        {
          "name": "G#4",
          "midi": 68,
          "time": 105.18827399999836,
          "velocity": 0.7874015748031497,
          "duration": 0.2510460000000023
        },
        {
          "name": "A#3",
          "midi": 58,
          "time": 105.43931999999836,
          "velocity": 0.7874015748031497,
          "duration": 1.5062759999999997
        },
        {
          "name": "A#4",
          "midi": 70,
          "time": 105.43931999999836,
          "velocity": 0.7874015748031497,
          "duration": 1.5062759999999997
        }
      ],
      "controlChanges": {
        "6": [
          {
            "number": 6,
            "time": 0,
            "value": 0.09448818897637795
          },
          {
            "number": 6,
            "time": 0,
            "value": 0.09448818897637795
          },
          {
            "number": 6,
            "time": 0,
            "value": 0.09448818897637795
          },
          {
            "number": 6,
            "time": 108.45187199999836,
            "value": 0.09448818897637795
          },
          {
            "number": 6,
            "time": 108.46233224999835,
            "value": 0.09448818897637795
          },
          {
            "number": 6,
            "time": 108.46233224999835,
            "value": 0.09448818897637795
          }
        ],
        "7": [
          {
            "number": 7,
            "time": 0,
            "value": 0.7716535433070866
          },
          {
            "number": 7,
            "time": 0,
            "value": 0.7716535433070866
          },
          {
            "number": 7,
            "time": 0,
            "value": 0.7716535433070866
          },
          {
            "number": 7,
            "time": 0,
            "value": 0.7716535433070866
          },
          {
            "number": 7,
            "time": 0,
            "value": 0.7716535433070866
          },
          {
            "number": 7,
            "time": 0,
            "value": 0.7716535433070866
          },
          {
            "number": 7,
            "time": 45.193510125000046,
            "value": 0.7716535433070866
          },
          {
            "number": 7,
            "time": 45.19874025000004,
            "value": 0.7716535433070866
          },
          {
            "number": 7,
            "time": 45.20397037500004,
            "value": 0.7716535433070866
          },
          {
            "number": 7,
            "time": 45.20920050000004,
            "value": 0.7637795275590551
          },
          {
            "number": 7,
            "time": 45.214430625000034,
            "value": 0.7637795275590551
          },
          {
            "number": 7,
            "time": 45.21966075000003,
            "value": 0.7637795275590551
          },
          {
            "number": 7,
            "time": 45.22489087500003,
            "value": 0.7637795275590551
          },
          {
            "number": 7,
            "time": 45.230121000000025,
            "value": 0.7637795275590551
          },
          {
            "number": 7,
            "time": 45.23535112500002,
            "value": 0.7637795275590551
          },
          {
            "number": 7,
            "time": 45.24058125000002,
            "value": 0.7559055118110236
          },
          {
            "number": 7,
            "time": 45.24581137500002,
            "value": 0.7559055118110236
          },
          {
            "number": 7,
            "time": 45.251041500000014,
            "value": 0.7559055118110236
          },
          {
            "number": 7,
            "time": 45.25627162500001,
            "value": 0.7559055118110236
          },
          {
            "number": 7,
            "time": 45.26150175000001,
            "value": 0.7559055118110236
          },
          {
            "number": 7,
            "time": 45.266731875000005,
            "value": 0.7559055118110236
          },
          {
            "number": 7,
            "time": 45.271962,
            "value": 0.7480314960629921
          },
          {
            "number": 7,
            "time": 45.277192125,
            "value": 0.7480314960629921
          },
          {
            "number": 7,
            "time": 45.282422249999996,
            "value": 0.7480314960629921
          },
          {
            "number": 7,
            "time": 45.28765237499999,
            "value": 0.7480314960629921
          },
          {
            "number": 7,
            "time": 45.29288249999999,
            "value": 0.7480314960629921
          },
          {
            "number": 7,
            "time": 45.29811262499999,
            "value": 0.7480314960629921
          },
          {
            "number": 7,
            "time": 45.303342749999985,
            "value": 0.7401574803149606
          },
          {
            "number": 7,
            "time": 45.30857287499998,
            "value": 0.7401574803149606
          },
          {
            "number": 7,
            "time": 45.31380299999998,
            "value": 0.7401574803149606
          },
          {
            "number": 7,
            "time": 45.319033124999976,
            "value": 0.7401574803149606
          },
          {
            "number": 7,
            "time": 45.32426324999997,
            "value": 0.7401574803149606
          },
          {
            "number": 7,
            "time": 45.32949337499997,
            "value": 0.7401574803149606
          },
          {
            "number": 7,
            "time": 45.33472349999997,
            "value": 0.7322834645669292
          },
          {
            "number": 7,
            "time": 45.339953624999964,
            "value": 0.7322834645669292
          },
          {
            "number": 7,
            "time": 45.34518374999996,
            "value": 0.7322834645669292
          },
          {
            "number": 7,
            "time": 45.35041387499996,
            "value": 0.7322834645669292
          },
          {
            "number": 7,
            "time": 45.355643999999955,
            "value": 0.7322834645669292
          },
          {
            "number": 7,
            "time": 45.36087412499995,
            "value": 0.7244094488188977
          },
          {
            "number": 7,
            "time": 45.36610424999995,
            "value": 0.7244094488188977
          },
          {
            "number": 7,
            "time": 45.37133437499995,
            "value": 0.7244094488188977
          },
          {
            "number": 7,
            "time": 45.376564499999944,
            "value": 0.7244094488188977
          },
          {
            "number": 7,
            "time": 45.38179462499994,
            "value": 0.7244094488188977
          },
          {
            "number": 7,
            "time": 45.38702474999994,
            "value": 0.7244094488188977
          },
          {
            "number": 7,
            "time": 45.392254874999935,
            "value": 0.7165354330708661
          },
          {
            "number": 7,
            "time": 45.39748499999993,
            "value": 0.7165354330708661
          },
          {
            "number": 7,
            "time": 45.40271512499993,
            "value": 0.7165354330708661
          },
          {
            "number": 7,
            "time": 45.407945249999926,
            "value": 0.7165354330708661
          },
          {
            "number": 7,
            "time": 45.41317537499992,
            "value": 0.7165354330708661
          },
          {
            "number": 7,
            "time": 45.41840549999992,
            "value": 0.7165354330708661
          },
          {
            "number": 7,
            "time": 45.42363562499992,
            "value": 0.7086614173228346
          },
          {
            "number": 7,
            "time": 45.428865749999915,
            "value": 0.7086614173228346
          },
          {
            "number": 7,
            "time": 45.43409587499991,
            "value": 0.7086614173228346
          },
          {
            "number": 7,
            "time": 45.43932599999991,
            "value": 0.7086614173228346
          },
          {
            "number": 7,
            "time": 45.444556124999906,
            "value": 0.7086614173228346
          },
          {
            "number": 7,
            "time": 45.4497862499999,
            "value": 0.7086614173228346
          },
          {
            "number": 7,
            "time": 45.4550163749999,
            "value": 0.7007874015748031
          },
          {
            "number": 7,
            "time": 45.4602464999999,
            "value": 0.7007874015748031
          },
          {
            "number": 7,
            "time": 45.465476624999894,
            "value": 0.7007874015748031
          },
          {
            "number": 7,
            "time": 45.47070674999989,
            "value": 0.7007874015748031
          },
          {
            "number": 7,
            "time": 45.47593687499989,
            "value": 0.7007874015748031
          },
          {
            "number": 7,
            "time": 45.481166999999886,
            "value": 0.7007874015748031
          },
          {
            "number": 7,
            "time": 45.48639712499988,
            "value": 0.6929133858267716
          },
          {
            "number": 7,
            "time": 45.49162724999988,
            "value": 0.6929133858267716
          },
          {
            "number": 7,
            "time": 45.49685737499988,
            "value": 0.6929133858267716
          },
          {
            "number": 7,
            "time": 45.502087499999874,
            "value": 0.6929133858267716
          },
          {
            "number": 7,
            "time": 45.50731762499987,
            "value": 0.6929133858267716
          },
          {
            "number": 7,
            "time": 45.51254774999987,
            "value": 0.6929133858267716
          },
          {
            "number": 7,
            "time": 45.517777874999865,
            "value": 0.6850393700787402
          },
          {
            "number": 7,
            "time": 45.52300799999986,
            "value": 0.6850393700787402
          },
          {
            "number": 7,
            "time": 45.52823812499986,
            "value": 0.6850393700787402
          },
          {
            "number": 7,
            "time": 45.533468249999856,
            "value": 0.6850393700787402
          },
          {
            "number": 7,
            "time": 45.53869837499985,
            "value": 0.6850393700787402
          },
          {
            "number": 7,
            "time": 45.54392849999985,
            "value": 0.6850393700787402
          },
          {
            "number": 7,
            "time": 45.54915862499985,
            "value": 0.6771653543307087
          },
          {
            "number": 7,
            "time": 45.554388749999845,
            "value": 0.6771653543307087
          },
          {
            "number": 7,
            "time": 45.55961887499984,
            "value": 0.6771653543307087
          },
          {
            "number": 7,
            "time": 45.56484899999984,
            "value": 0.6771653543307087
          },
          {
            "number": 7,
            "time": 45.570079124999836,
            "value": 0.6771653543307087
          },
          {
            "number": 7,
            "time": 45.57530924999983,
            "value": 0.6692913385826772
          },
          {
            "number": 7,
            "time": 45.58053937499983,
            "value": 0.6692913385826772
          },
          {
            "number": 7,
            "time": 45.58576949999983,
            "value": 0.6692913385826772
          },
          {
            "number": 7,
            "time": 45.590999624999824,
            "value": 0.6692913385826772
          },
          {
            "number": 7,
            "time": 45.59622974999982,
            "value": 0.6692913385826772
          },
          {
            "number": 7,
            "time": 45.60145987499982,
            "value": 0.6692913385826772
          },
          {
            "number": 7,
            "time": 45.606689999999816,
            "value": 0.6614173228346457
          },
          {
            "number": 7,
            "time": 45.61192012499981,
            "value": 0.6614173228346457
          },
          {
            "number": 7,
            "time": 45.61715024999981,
            "value": 0.6614173228346457
          },
          {
            "number": 7,
            "time": 45.62238037499981,
            "value": 0.6614173228346457
          },
          {
            "number": 7,
            "time": 45.627610499999804,
            "value": 0.6614173228346457
          },
          {
            "number": 7,
            "time": 45.6328406249998,
            "value": 0.6614173228346457
          },
          {
            "number": 7,
            "time": 45.6380707499998,
            "value": 0.6535433070866141
          },
          {
            "number": 7,
            "time": 45.643300874999795,
            "value": 0.6535433070866141
          },
          {
            "number": 7,
            "time": 45.64853099999979,
            "value": 0.6535433070866141
          },
          {
            "number": 7,
            "time": 45.65376112499979,
            "value": 0.6535433070866141
          },
          {
            "number": 7,
            "time": 45.65899124999979,
            "value": 0.6535433070866141
          },
          {
            "number": 7,
            "time": 45.664221374999784,
            "value": 0.6535433070866141
          },
          {
            "number": 7,
            "time": 45.66945149999978,
            "value": 0.6456692913385826
          },
          {
            "number": 7,
            "time": 45.67468162499978,
            "value": 0.6456692913385826
          },
          {
            "number": 7,
            "time": 45.679911749999775,
            "value": 0.6456692913385826
          },
          {
            "number": 7,
            "time": 45.68514187499977,
            "value": 0.6456692913385826
          },
          {
            "number": 7,
            "time": 45.69037199999977,
            "value": 0.6456692913385826
          },
          {
            "number": 7,
            "time": 45.695602124999766,
            "value": 0.6456692913385826
          },
          {
            "number": 7,
            "time": 45.70083224999976,
            "value": 0.6377952755905512
          },
          {
            "number": 7,
            "time": 45.70606237499976,
            "value": 0.6377952755905512
          },
          {
            "number": 7,
            "time": 45.71129249999976,
            "value": 0.6377952755905512
          },
          {
            "number": 7,
            "time": 45.716522624999754,
            "value": 0.6377952755905512
          },
          {
            "number": 7,
            "time": 45.72175274999975,
            "value": 0.6377952755905512
          },
          {
            "number": 7,
            "time": 45.72698287499975,
            "value": 0.6377952755905512
          },
          {
            "number": 7,
            "time": 45.732212999999746,
            "value": 0.6299212598425197
          },
          {
            "number": 7,
            "time": 45.73744312499974,
            "value": 0.6299212598425197
          },
          {
            "number": 7,
            "time": 45.74267324999974,
            "value": 0.6299212598425197
          },
          {
            "number": 7,
            "time": 45.74790337499974,
            "value": 0.6299212598425197
          },
          {
            "number": 7,
            "time": 45.753133499999734,
            "value": 0.6299212598425197
          },
          {
            "number": 7,
            "time": 45.75836362499973,
            "value": 0.6299212598425197
          },
          {
            "number": 7,
            "time": 45.76359374999973,
            "value": 0.6220472440944882
          },
          {
            "number": 7,
            "time": 45.768823874999725,
            "value": 0.6220472440944882
          },
          {
            "number": 7,
            "time": 45.77405399999972,
            "value": 0.6220472440944882
          },
          {
            "number": 7,
            "time": 45.77928412499972,
            "value": 0.6220472440944882
          },
          {
            "number": 7,
            "time": 45.78451424999972,
            "value": 0.6220472440944882
          },
          {
            "number": 7,
            "time": 45.789744374999714,
            "value": 0.6141732283464567
          },
          {
            "number": 7,
            "time": 45.79497449999971,
            "value": 0.6141732283464567
          },
          {
            "number": 7,
            "time": 45.80020462499971,
            "value": 0.6141732283464567
          },
          {
            "number": 7,
            "time": 45.805434749999705,
            "value": 0.6141732283464567
          },
          {
            "number": 7,
            "time": 45.8106648749997,
            "value": 0.6141732283464567
          },
          {
            "number": 7,
            "time": 45.8158949999997,
            "value": 0.6141732283464567
          },
          {
            "number": 7,
            "time": 45.821125124999696,
            "value": 0.6062992125984252
          },
          {
            "number": 7,
            "time": 45.82635524999969,
            "value": 0.6062992125984252
          },
          {
            "number": 7,
            "time": 45.83158537499969,
            "value": 0.6062992125984252
          },
          {
            "number": 7,
            "time": 45.83681549999969,
            "value": 0.6062992125984252
          },
          {
            "number": 7,
            "time": 45.842045624999685,
            "value": 0.6062992125984252
          },
          {
            "number": 7,
            "time": 45.84727574999968,
            "value": 0.6062992125984252
          },
          {
            "number": 7,
            "time": 45.85250587499968,
            "value": 0.5984251968503937
          },
          {
            "number": 7,
            "time": 45.857735999999676,
            "value": 0.5984251968503937
          },
          {
            "number": 7,
            "time": 45.86296612499967,
            "value": 0.5984251968503937
          },
          {
            "number": 7,
            "time": 45.86819624999967,
            "value": 0.5984251968503937
          },
          {
            "number": 7,
            "time": 45.87342637499967,
            "value": 0.5984251968503937
          },
          {
            "number": 7,
            "time": 45.878656499999664,
            "value": 0.5984251968503937
          },
          {
            "number": 7,
            "time": 45.88388662499966,
            "value": 0.5905511811023622
          },
          {
            "number": 7,
            "time": 45.88911674999966,
            "value": 0.5905511811023622
          },
          {
            "number": 7,
            "time": 45.894346874999655,
            "value": 0.5905511811023622
          },
          {
            "number": 7,
            "time": 45.89957699999965,
            "value": 0.5905511811023622
          },
          {
            "number": 7,
            "time": 45.90480712499965,
            "value": 0.5905511811023622
          },
          {
            "number": 7,
            "time": 45.91003724999965,
            "value": 0.5905511811023622
          },
          {
            "number": 7,
            "time": 45.915267374999644,
            "value": 0.5826771653543307
          },
          {
            "number": 7,
            "time": 45.92049749999964,
            "value": 0.5826771653543307
          },
          {
            "number": 7,
            "time": 45.92572762499964,
            "value": 0.5826771653543307
          },
          {
            "number": 7,
            "time": 45.930957749999635,
            "value": 0.5826771653543307
          },
          {
            "number": 7,
            "time": 45.93618787499963,
            "value": 0.5826771653543307
          },
          {
            "number": 7,
            "time": 45.94141799999963,
            "value": 0.5826771653543307
          },
          {
            "number": 7,
            "time": 45.946648124999626,
            "value": 0.5748031496062992
          },
          {
            "number": 7,
            "time": 45.95187824999962,
            "value": 0.5748031496062992
          },
          {
            "number": 7,
            "time": 45.95710837499962,
            "value": 0.5748031496062992
          },
          {
            "number": 7,
            "time": 45.96233849999962,
            "value": 0.5748031496062992
          },
          {
            "number": 7,
            "time": 45.967568624999615,
            "value": 0.5748031496062992
          },
          {
            "number": 7,
            "time": 45.97279874999961,
            "value": 0.5748031496062992
          },
          {
            "number": 7,
            "time": 45.97802887499961,
            "value": 0.5669291338582677
          },
          {
            "number": 7,
            "time": 45.983258999999606,
            "value": 0.5669291338582677
          },
          {
            "number": 7,
            "time": 45.9884891249996,
            "value": 0.5669291338582677
          },
          {
            "number": 7,
            "time": 45.9937192499996,
            "value": 0.5669291338582677
          },
          {
            "number": 7,
            "time": 45.9989493749996,
            "value": 0.5669291338582677
          },
          {
            "number": 7,
            "time": 46.004179499999594,
            "value": 0.5590551181102362
          },
          {
            "number": 7,
            "time": 46.00940962499959,
            "value": 0.5590551181102362
          },
          {
            "number": 7,
            "time": 46.01463974999959,
            "value": 0.5590551181102362
          },
          {
            "number": 7,
            "time": 46.019869874999586,
            "value": 0.5590551181102362
          },
          {
            "number": 7,
            "time": 46.02509999999958,
            "value": 0.5590551181102362
          },
          {
            "number": 7,
            "time": 46.03033012499958,
            "value": 0.5590551181102362
          },
          {
            "number": 7,
            "time": 46.03556024999958,
            "value": 0.5511811023622047
          },
          {
            "number": 7,
            "time": 46.040790374999574,
            "value": 0.5511811023622047
          },
          {
            "number": 7,
            "time": 46.04602049999957,
            "value": 0.5511811023622047
          },
          {
            "number": 7,
            "time": 46.05125062499957,
            "value": 0.5511811023622047
          },
          {
            "number": 7,
            "time": 46.056480749999565,
            "value": 0.5511811023622047
          },
          {
            "number": 7,
            "time": 46.06171087499956,
            "value": 0.5511811023622047
          },
          {
            "number": 7,
            "time": 46.06694099999956,
            "value": 0.5433070866141733
          },
          {
            "number": 7,
            "time": 46.07217112499956,
            "value": 0.5433070866141733
          },
          {
            "number": 7,
            "time": 46.077401249999554,
            "value": 0.5433070866141733
          },
          {
            "number": 7,
            "time": 46.08263137499955,
            "value": 0.5433070866141733
          },
          {
            "number": 7,
            "time": 46.08786149999955,
            "value": 0.5433070866141733
          },
          {
            "number": 7,
            "time": 46.093091624999545,
            "value": 0.5433070866141733
          },
          {
            "number": 7,
            "time": 46.09832174999954,
            "value": 0.5354330708661418
          },
          {
            "number": 7,
            "time": 46.10355187499954,
            "value": 0.5354330708661418
          },
          {
            "number": 7,
            "time": 46.108781999999536,
            "value": 0.5354330708661418
          },
          {
            "number": 7,
            "time": 46.11401212499953,
            "value": 0.5354330708661418
          },
          {
            "number": 7,
            "time": 46.11924224999953,
            "value": 0.5354330708661418
          },
          {
            "number": 7,
            "time": 46.12447237499953,
            "value": 0.5354330708661418
          },
          {
            "number": 7,
            "time": 46.129702499999524,
            "value": 0.5275590551181102
          },
          {
            "number": 7,
            "time": 46.13493262499952,
            "value": 0.5275590551181102
          },
          {
            "number": 7,
            "time": 46.14016274999952,
            "value": 0.5275590551181102
          },
          {
            "number": 7,
            "time": 46.145392874999516,
            "value": 0.5275590551181102
          },
          {
            "number": 7,
            "time": 46.15062299999951,
            "value": 0.5275590551181102
          },
          {
            "number": 7,
            "time": 46.15585312499951,
            "value": 0.5275590551181102
          },
          {
            "number": 7,
            "time": 46.16108324999951,
            "value": 0.5196850393700787
          },
          {
            "number": 7,
            "time": 46.166313374999504,
            "value": 0.5196850393700787
          },
          {
            "number": 7,
            "time": 46.1715434999995,
            "value": 0.5196850393700787
          },
          {
            "number": 7,
            "time": 46.1767736249995,
            "value": 0.5196850393700787
          },
          {
            "number": 7,
            "time": 46.182003749999495,
            "value": 0.5196850393700787
          },
          {
            "number": 7,
            "time": 46.18723387499949,
            "value": 0.5196850393700787
          },
          {
            "number": 7,
            "time": 46.19246399999949,
            "value": 0.5118110236220472
          },
          {
            "number": 7,
            "time": 46.19769412499949,
            "value": 0.5118110236220472
          },
          {
            "number": 7,
            "time": 46.202924249999484,
            "value": 0.5118110236220472
          },
          {
            "number": 7,
            "time": 46.20815437499948,
            "value": 0.5118110236220472
          },
          {
            "number": 7,
            "time": 46.21338449999948,
            "value": 0.5118110236220472
          },
          {
            "number": 7,
            "time": 46.218614624999475,
            "value": 0.5118110236220472
          },
          {
            "number": 7,
            "time": 46.22384474999947,
            "value": 0.5039370078740157
          },
          {
            "number": 7,
            "time": 46.22907487499947,
            "value": 0.5039370078740157
          },
          {
            "number": 7,
            "time": 46.234304999999466,
            "value": 0.5039370078740157
          },
          {
            "number": 7,
            "time": 46.23953512499946,
            "value": 0.5039370078740157
          },
          {
            "number": 7,
            "time": 46.24476524999946,
            "value": 0.5039370078740157
          },
          {
            "number": 7,
            "time": 46.24999537499946,
            "value": 0.49606299212598426
          },
          {
            "number": 7,
            "time": 46.255225499999455,
            "value": 0.49606299212598426
          },
          {
            "number": 7,
            "time": 46.26045562499945,
            "value": 0.49606299212598426
          },
          {
            "number": 7,
            "time": 46.26568574999945,
            "value": 0.49606299212598426
          },
          {
            "number": 7,
            "time": 46.270915874999446,
            "value": 0.49606299212598426
          },
          {
            "number": 7,
            "time": 46.27614599999944,
            "value": 0.49606299212598426
          },
          {
            "number": 7,
            "time": 46.28137612499944,
            "value": 0.4881889763779528
          },
          {
            "number": 7,
            "time": 46.28660624999944,
            "value": 0.4881889763779528
          },
          {
            "number": 7,
            "time": 46.291836374999434,
            "value": 0.4881889763779528
          },
          {
            "number": 7,
            "time": 46.29706649999943,
            "value": 0.4881889763779528
          },
          {
            "number": 7,
            "time": 46.30229662499943,
            "value": 0.4881889763779528
          },
          {
            "number": 7,
            "time": 46.307526749999425,
            "value": 0.4881889763779528
          },
          {
            "number": 7,
            "time": 46.31275687499942,
            "value": 0.48031496062992124
          },
          {
            "number": 7,
            "time": 46.31798699999942,
            "value": 0.48031496062992124
          },
          {
            "number": 7,
            "time": 46.32321712499942,
            "value": 0.48031496062992124
          },
          {
            "number": 7,
            "time": 46.328447249999414,
            "value": 0.48031496062992124
          },
          {
            "number": 7,
            "time": 46.33367737499941,
            "value": 0.48031496062992124
          },
          {
            "number": 7,
            "time": 46.33890749999941,
            "value": 0.48031496062992124
          },
          {
            "number": 7,
            "time": 46.344137624999405,
            "value": 0.47244094488188976
          },
          {
            "number": 7,
            "time": 46.3493677499994,
            "value": 0.47244094488188976
          },
          {
            "number": 7,
            "time": 46.3545978749994,
            "value": 0.47244094488188976
          },
          {
            "number": 7,
            "time": 46.359827999999396,
            "value": 0.47244094488188976
          },
          {
            "number": 7,
            "time": 46.36505812499939,
            "value": 0.47244094488188976
          },
          {
            "number": 7,
            "time": 46.37028824999939,
            "value": 0.47244094488188976
          },
          {
            "number": 7,
            "time": 46.37551837499939,
            "value": 0.4645669291338583
          },
          {
            "number": 7,
            "time": 46.380748499999385,
            "value": 0.4645669291338583
          },
          {
            "number": 7,
            "time": 46.38597862499938,
            "value": 0.4645669291338583
          },
          {
            "number": 7,
            "time": 46.39120874999938,
            "value": 0.4645669291338583
          },
          {
            "number": 7,
            "time": 46.396438874999376,
            "value": 0.4645669291338583
          },
          {
            "number": 7,
            "time": 46.40166899999937,
            "value": 0.4645669291338583
          },
          {
            "number": 7,
            "time": 46.40689912499937,
            "value": 0.4566929133858268
          },
          {
            "number": 7,
            "time": 46.41212924999937,
            "value": 0.4566929133858268
          },
          {
            "number": 7,
            "time": 46.417359374999364,
            "value": 0.4566929133858268
          },
          {
            "number": 7,
            "time": 46.42258949999936,
            "value": 0.4566929133858268
          },
          {
            "number": 7,
            "time": 46.42781962499936,
            "value": 0.4566929133858268
          },
          {
            "number": 7,
            "time": 46.433049749999356,
            "value": 0.4566929133858268
          },
          {
            "number": 7,
            "time": 46.43827987499935,
            "value": 0.44881889763779526
          },
          {
            "number": 7,
            "time": 46.44350999999935,
            "value": 0.44881889763779526
          },
          {
            "number": 7,
            "time": 46.44874012499935,
            "value": 0.44881889763779526
          },
          {
            "number": 7,
            "time": 46.453970249999344,
            "value": 0.44881889763779526
          },
          {
            "number": 7,
            "time": 46.45920037499934,
            "value": 0.44881889763779526
          },
          {
            "number": 7,
            "time": 46.46443049999934,
            "value": 0.4409448818897638
          },
          {
            "number": 7,
            "time": 46.469660624999335,
            "value": 0.4409448818897638
          },
          {
            "number": 7,
            "time": 46.47489074999933,
            "value": 0.4409448818897638
          },
          {
            "number": 7,
            "time": 46.48012087499933,
            "value": 0.4409448818897638
          },
          {
            "number": 7,
            "time": 46.485350999999326,
            "value": 0.4409448818897638
          },
          {
            "number": 7,
            "time": 46.49058112499932,
            "value": 0.4409448818897638
          },
          {
            "number": 7,
            "time": 46.49581124999932,
            "value": 0.4330708661417323
          },
          {
            "number": 7,
            "time": 46.50104137499932,
            "value": 0.4330708661417323
          },
          {
            "number": 7,
            "time": 46.506271499999315,
            "value": 0.4330708661417323
          },
          {
            "number": 7,
            "time": 46.51150162499931,
            "value": 0.4330708661417323
          },
          {
            "number": 7,
            "time": 46.51673174999931,
            "value": 0.4330708661417323
          },
          {
            "number": 7,
            "time": 46.521961874999306,
            "value": 0.4330708661417323
          },
          {
            "number": 7,
            "time": 46.5271919999993,
            "value": 0.4251968503937008
          },
          {
            "number": 7,
            "time": 46.5324221249993,
            "value": 0.4251968503937008
          },
          {
            "number": 7,
            "time": 46.5376522499993,
            "value": 0.4251968503937008
          },
          {
            "number": 7,
            "time": 46.542882374999294,
            "value": 0.4251968503937008
          },
          {
            "number": 7,
            "time": 46.54811249999929,
            "value": 0.4251968503937008
          },
          {
            "number": 7,
            "time": 46.55334262499929,
            "value": 0.4251968503937008
          },
          {
            "number": 7,
            "time": 46.558572749999286,
            "value": 0.41732283464566927
          },
          {
            "number": 7,
            "time": 46.56380287499928,
            "value": 0.41732283464566927
          },
          {
            "number": 7,
            "time": 46.56903299999928,
            "value": 0.41732283464566927
          },
          {
            "number": 7,
            "time": 46.57426312499928,
            "value": 0.41732283464566927
          },
          {
            "number": 7,
            "time": 46.579493249999274,
            "value": 0.41732283464566927
          },
          {
            "number": 7,
            "time": 46.58472337499927,
            "value": 0.41732283464566927
          },
          {
            "number": 7,
            "time": 46.58995349999927,
            "value": 0.4094488188976378
          },
          {
            "number": 7,
            "time": 46.595183624999265,
            "value": 0.4094488188976378
          },
          {
            "number": 7,
            "time": 46.60041374999926,
            "value": 0.4094488188976378
          },
          {
            "number": 7,
            "time": 46.60564387499926,
            "value": 0.4094488188976378
          },
          {
            "number": 7,
            "time": 46.61087399999926,
            "value": 0.4094488188976378
          },
          {
            "number": 7,
            "time": 46.616104124999254,
            "value": 0.4094488188976378
          },
          {
            "number": 7,
            "time": 46.62133424999925,
            "value": 0.4015748031496063
          },
          {
            "number": 7,
            "time": 46.62656437499925,
            "value": 0.4015748031496063
          },
          {
            "number": 7,
            "time": 46.631794499999245,
            "value": 0.4015748031496063
          },
          {
            "number": 7,
            "time": 46.63702462499924,
            "value": 0.4015748031496063
          },
          {
            "number": 7,
            "time": 46.64225474999924,
            "value": 0.4015748031496063
          },
          {
            "number": 7,
            "time": 46.647484874999236,
            "value": 0.4015748031496063
          },
          {
            "number": 7,
            "time": 46.65271499999923,
            "value": 0.3937007874015748
          },
          {
            "number": 7,
            "time": 46.65794512499923,
            "value": 0.3937007874015748
          },
          {
            "number": 7,
            "time": 46.66317524999923,
            "value": 0.3937007874015748
          },
          {
            "number": 7,
            "time": 46.668405374999224,
            "value": 0.3937007874015748
          },
          {
            "number": 7,
            "time": 46.67363549999922,
            "value": 0.3937007874015748
          },
          {
            "number": 7,
            "time": 46.67886562499922,
            "value": 0.3858267716535433
          },
          {
            "number": 7,
            "time": 46.684095749999216,
            "value": 0.3858267716535433
          },
          {
            "number": 7,
            "time": 46.68932587499921,
            "value": 0.3858267716535433
          },
          {
            "number": 7,
            "time": 46.69455599999921,
            "value": 0.3858267716535433
          },
          {
            "number": 7,
            "time": 46.69978612499921,
            "value": 0.3858267716535433
          },
          {
            "number": 7,
            "time": 46.705016249999204,
            "value": 0.3858267716535433
          },
          {
            "number": 7,
            "time": 46.7102463749992,
            "value": 0.3779527559055118
          },
          {
            "number": 7,
            "time": 46.7154764999992,
            "value": 0.3779527559055118
          },
          {
            "number": 7,
            "time": 46.720706624999195,
            "value": 0.3779527559055118
          },
          {
            "number": 7,
            "time": 46.72593674999919,
            "value": 0.3779527559055118
          },
          {
            "number": 7,
            "time": 46.73116687499919,
            "value": 0.3779527559055118
          },
          {
            "number": 7,
            "time": 46.73639699999919,
            "value": 0.3779527559055118
          },
          {
            "number": 7,
            "time": 46.741627124999184,
            "value": 0.3700787401574803
          },
          {
            "number": 7,
            "time": 46.74685724999918,
            "value": 0.3700787401574803
          },
          {
            "number": 7,
            "time": 46.75208737499918,
            "value": 0.3700787401574803
          },
          {
            "number": 7,
            "time": 46.757317499999175,
            "value": 0.3700787401574803
          },
          {
            "number": 7,
            "time": 46.76254762499917,
            "value": 0.3700787401574803
          },
          {
            "number": 7,
            "time": 46.76777774999917,
            "value": 0.3700787401574803
          },
          {
            "number": 7,
            "time": 46.773007874999166,
            "value": 0.36220472440944884
          },
          {
            "number": 7,
            "time": 46.77823799999916,
            "value": 0.36220472440944884
          },
          {
            "number": 7,
            "time": 46.78346812499916,
            "value": 0.36220472440944884
          },
          {
            "number": 7,
            "time": 46.78869824999916,
            "value": 0.36220472440944884
          },
          {
            "number": 7,
            "time": 46.793928374999155,
            "value": 0.36220472440944884
          },
          {
            "number": 7,
            "time": 46.79915849999915,
            "value": 0.36220472440944884
          },
          {
            "number": 7,
            "time": 46.80438862499915,
            "value": 0.3543307086614173
          },
          {
            "number": 7,
            "time": 46.809618749999146,
            "value": 0.3543307086614173
          },
          {
            "number": 7,
            "time": 46.81484887499914,
            "value": 0.3543307086614173
          },
          {
            "number": 7,
            "time": 46.82007899999914,
            "value": 0.3543307086614173
          },
          {
            "number": 7,
            "time": 46.82530912499914,
            "value": 0.3543307086614173
          },
          {
            "number": 7,
            "time": 46.830539249999134,
            "value": 0.3543307086614173
          },
          {
            "number": 7,
            "time": 46.83576937499913,
            "value": 0.3464566929133858
          },
          {
            "number": 7,
            "time": 46.84099949999913,
            "value": 0.3464566929133858
          },
          {
            "number": 7,
            "time": 46.846229624999125,
            "value": 0.3464566929133858
          },
          {
            "number": 7,
            "time": 46.85145974999912,
            "value": 0.3464566929133858
          },
          {
            "number": 7,
            "time": 46.85668987499912,
            "value": 0.3464566929133858
          },
          {
            "number": 7,
            "time": 46.86191999999912,
            "value": 0.3464566929133858
          },
          {
            "number": 7,
            "time": 46.867150124999114,
            "value": 0.33858267716535434
          },
          {
            "number": 7,
            "time": 46.87238024999911,
            "value": 0.33858267716535434
          },
          {
            "number": 7,
            "time": 46.87761037499911,
            "value": 0.33858267716535434
          },
          {
            "number": 7,
            "time": 46.882840499999105,
            "value": 0.33858267716535434
          },
          {
            "number": 7,
            "time": 46.8880706249991,
            "value": 0.33858267716535434
          },
          {
            "number": 7,
            "time": 46.8933007499991,
            "value": 0.33070866141732286
          },
          {
            "number": 7,
            "time": 46.898530874999096,
            "value": 0.33070866141732286
          },
          {
            "number": 7,
            "time": 46.90376099999909,
            "value": 0.33070866141732286
          },
          {
            "number": 7,
            "time": 46.90899112499909,
            "value": 0.33070866141732286
          },
          {
            "number": 7,
            "time": 46.91422124999909,
            "value": 0.33070866141732286
          },
          {
            "number": 7,
            "time": 46.919451374999085,
            "value": 0.33070866141732286
          },
          {
            "number": 7,
            "time": 46.92468149999908,
            "value": 0.3228346456692913
          },
          {
            "number": 7,
            "time": 46.92991162499908,
            "value": 0.3228346456692913
          },
          {
            "number": 7,
            "time": 46.935141749999076,
            "value": 0.3228346456692913
          },
          {
            "number": 7,
            "time": 46.94037187499907,
            "value": 0.3228346456692913
          },
          {
            "number": 7,
            "time": 46.94560199999907,
            "value": 0.3228346456692913
          },
          {
            "number": 7,
            "time": 46.95083212499907,
            "value": 0.3228346456692913
          },
          {
            "number": 7,
            "time": 46.956062249999064,
            "value": 0.31496062992125984
          },
          {
            "number": 7,
            "time": 46.96129237499906,
            "value": 0.31496062992125984
          },
          {
            "number": 7,
            "time": 46.96652249999906,
            "value": 0.31496062992125984
          },
          {
            "number": 7,
            "time": 46.971752624999056,
            "value": 0.31496062992125984
          },
          {
            "number": 7,
            "time": 46.97698274999905,
            "value": 0.31496062992125984
          },
          {
            "number": 7,
            "time": 46.98221287499905,
            "value": 0.31496062992125984
          },
          {
            "number": 7,
            "time": 46.98744299999905,
            "value": 0.30708661417322836
          },
          {
            "number": 7,
            "time": 46.992673124999044,
            "value": 0.30708661417322836
          },
          {
            "number": 7,
            "time": 46.99790324999904,
            "value": 0.30708661417322836
          },
          {
            "number": 7,
            "time": 47.00313337499904,
            "value": 0.30708661417322836
          },
          {
            "number": 7,
            "time": 47.008363499999035,
            "value": 0.30708661417322836
          },
          {
            "number": 7,
            "time": 47.01359362499903,
            "value": 0.30708661417322836
          },
          {
            "number": 7,
            "time": 47.01882374999903,
            "value": 0.2992125984251969
          },
          {
            "number": 7,
            "time": 47.02405387499903,
            "value": 0.2992125984251969
          },
          {
            "number": 7,
            "time": 47.02928399999902,
            "value": 0.2992125984251969
          },
          {
            "number": 7,
            "time": 47.03451412499902,
            "value": 0.2992125984251969
          },
          {
            "number": 7,
            "time": 47.03974424999902,
            "value": 0.2992125984251969
          },
          {
            "number": 7,
            "time": 47.044974374999015,
            "value": 0.2992125984251969
          },
          {
            "number": 7,
            "time": 47.05020449999901,
            "value": 0.29133858267716534
          },
          {
            "number": 7,
            "time": 47.05543462499901,
            "value": 0.29133858267716534
          },
          {
            "number": 7,
            "time": 47.060664749999006,
            "value": 0.29133858267716534
          },
          {
            "number": 7,
            "time": 47.065894874999,
            "value": 0.29133858267716534
          },
          {
            "number": 7,
            "time": 47.071124999999,
            "value": 0.29133858267716534
          },
          {
            "number": 7,
            "time": 47.076355124999,
            "value": 0.29133858267716534
          },
          {
            "number": 7,
            "time": 47.081585249998994,
            "value": 0.28346456692913385
          },
          {
            "number": 7,
            "time": 47.08681537499899,
            "value": 0.28346456692913385
          },
          {
            "number": 7,
            "time": 47.09204549999899,
            "value": 0.28346456692913385
          },
          {
            "number": 7,
            "time": 47.097275624998986,
            "value": 0.28346456692913385
          },
          {
            "number": 7,
            "time": 47.10250574999898,
            "value": 0.28346456692913385
          },
          {
            "number": 7,
            "time": 47.10773587499898,
            "value": 0.28346456692913385
          },
          {
            "number": 7,
            "time": 47.11296599999898,
            "value": 0.2755905511811024
          },
          {
            "number": 7,
            "time": 47.118196124998974,
            "value": 0.2755905511811024
          },
          {
            "number": 7,
            "time": 47.12342624999897,
            "value": 0.2755905511811024
          },
          {
            "number": 7,
            "time": 47.12865637499897,
            "value": 0.2755905511811024
          },
          {
            "number": 7,
            "time": 47.133886499998965,
            "value": 0.2755905511811024
          },
          {
            "number": 7,
            "time": 47.13911662499896,
            "value": 0.2677165354330709
          },
          {
            "number": 7,
            "time": 47.14434674999896,
            "value": 0.2677165354330709
          },
          {
            "number": 7,
            "time": 47.14957687499896,
            "value": 0.2677165354330709
          },
          {
            "number": 7,
            "time": 47.154806999998954,
            "value": 0.2677165354330709
          },
          {
            "number": 7,
            "time": 47.16003712499895,
            "value": 0.2677165354330709
          },
          {
            "number": 7,
            "time": 47.16526724999895,
            "value": 0.2677165354330709
          },
          {
            "number": 7,
            "time": 47.170497374998945,
            "value": 0.25984251968503935
          },
          {
            "number": 7,
            "time": 47.17572749999894,
            "value": 0.25984251968503935
          },
          {
            "number": 7,
            "time": 47.18095762499894,
            "value": 0.25984251968503935
          },
          {
            "number": 7,
            "time": 47.186187749998936,
            "value": 0.25984251968503935
          },
          {
            "number": 7,
            "time": 47.19141787499893,
            "value": 0.25984251968503935
          },
          {
            "number": 7,
            "time": 47.19664799999893,
            "value": 0.25984251968503935
          },
          {
            "number": 7,
            "time": 47.20187812499893,
            "value": 0.25196850393700787
          },
          {
            "number": 7,
            "time": 47.207108249998925,
            "value": 0.25196850393700787
          },
          {
            "number": 7,
            "time": 47.21233837499892,
            "value": 0.25196850393700787
          },
          {
            "number": 7,
            "time": 47.21756849999892,
            "value": 0.25196850393700787
          },
          {
            "number": 7,
            "time": 47.222798624998916,
            "value": 0.25196850393700787
          },
          {
            "number": 7,
            "time": 47.22802874999891,
            "value": 0.25196850393700787
          },
          {
            "number": 7,
            "time": 47.23325887499891,
            "value": 0.2440944881889764
          },
          {
            "number": 7,
            "time": 47.23848899999891,
            "value": 0.2440944881889764
          },
          {
            "number": 7,
            "time": 47.243719124998904,
            "value": 0.2440944881889764
          },
          {
            "number": 7,
            "time": 47.2489492499989,
            "value": 0.2440944881889764
          },
          {
            "number": 7,
            "time": 47.2541793749989,
            "value": 0.2440944881889764
          },
          {
            "number": 7,
            "time": 47.259409499998895,
            "value": 0.2440944881889764
          },
          {
            "number": 7,
            "time": 47.26463962499889,
            "value": 0.23622047244094488
          },
          {
            "number": 7,
            "time": 47.26986974999889,
            "value": 0.23622047244094488
          },
          {
            "number": 7,
            "time": 47.27509987499889,
            "value": 0.23622047244094488
          },
          {
            "number": 7,
            "time": 47.280329999998884,
            "value": 0.23622047244094488
          },
          {
            "number": 7,
            "time": 47.28556012499888,
            "value": 0.23622047244094488
          },
          {
            "number": 7,
            "time": 47.29079024999888,
            "value": 0.23622047244094488
          },
          {
            "number": 7,
            "time": 47.296020374998875,
            "value": 0.2283464566929134
          },
          {
            "number": 7,
            "time": 47.30125049999887,
            "value": 0.2283464566929134
          },
          {
            "number": 7,
            "time": 47.30648062499887,
            "value": 0.2283464566929134
          },
          {
            "number": 7,
            "time": 47.311710749998866,
            "value": 0.2283464566929134
          },
          {
            "number": 7,
            "time": 47.31694087499886,
            "value": 0.2283464566929134
          },
          {
            "number": 7,
            "time": 47.32217099999886,
            "value": 0.2283464566929134
          },
          {
            "number": 7,
            "time": 47.32740112499886,
            "value": 0.2204724409448819
          },
          {
            "number": 7,
            "time": 47.332631249998855,
            "value": 0.2204724409448819
          },
          {
            "number": 7,
            "time": 47.33786137499885,
            "value": 0.2204724409448819
          },
          {
            "number": 7,
            "time": 47.34309149999885,
            "value": 0.2204724409448819
          },
          {
            "number": 7,
            "time": 47.348321624998846,
            "value": 0.2204724409448819
          },
          {
            "number": 7,
            "time": 47.35355174999884,
            "value": 0.2125984251968504
          },
          {
            "number": 7,
            "time": 47.35878187499884,
            "value": 0.2125984251968504
          },
          {
            "number": 7,
            "time": 47.36401199999884,
            "value": 0.2125984251968504
          },
          {
            "number": 7,
            "time": 47.369242124998834,
            "value": 0.2125984251968504
          },
          {
            "number": 7,
            "time": 47.37447224999883,
            "value": 0.2125984251968504
          },
          {
            "number": 7,
            "time": 47.37970237499883,
            "value": 0.2125984251968504
          },
          {
            "number": 7,
            "time": 47.384932499998826,
            "value": 0.2047244094488189
          },
          {
            "number": 7,
            "time": 47.39016262499882,
            "value": 0.2047244094488189
          },
          {
            "number": 7,
            "time": 47.39539274999882,
            "value": 0.2047244094488189
          },
          {
            "number": 7,
            "time": 47.40062287499882,
            "value": 0.2047244094488189
          },
          {
            "number": 7,
            "time": 47.405852999998814,
            "value": 0.2047244094488189
          },
          {
            "number": 7,
            "time": 47.41108312499881,
            "value": 0.2047244094488189
          },
          {
            "number": 7,
            "time": 47.41631324999881,
            "value": 0.1968503937007874
          },
          {
            "number": 7,
            "time": 47.421543374998805,
            "value": 0.1968503937007874
          },
          {
            "number": 7,
            "time": 47.4267734999988,
            "value": 0.1968503937007874
          },
          {
            "number": 7,
            "time": 47.4320036249988,
            "value": 0.1968503937007874
          },
          {
            "number": 7,
            "time": 47.437233749998796,
            "value": 0.1968503937007874
          },
          {
            "number": 7,
            "time": 47.44246387499879,
            "value": 0.1968503937007874
          },
          {
            "number": 7,
            "time": 47.44769399999879,
            "value": 0.1889763779527559
          },
          {
            "number": 7,
            "time": 47.45292412499879,
            "value": 0.1889763779527559
          },
          {
            "number": 7,
            "time": 47.458154249998785,
            "value": 0.1889763779527559
          },
          {
            "number": 7,
            "time": 47.46338437499878,
            "value": 0.1889763779527559
          },
          {
            "number": 7,
            "time": 47.46861449999878,
            "value": 0.1889763779527559
          },
          {
            "number": 7,
            "time": 47.473844624998776,
            "value": 0.1889763779527559
          },
          {
            "number": 7,
            "time": 47.47907474999877,
            "value": 0.18110236220472442
          },
          {
            "number": 7,
            "time": 47.48430487499877,
            "value": 0.18110236220472442
          },
          {
            "number": 7,
            "time": 47.48953499999877,
            "value": 0.18110236220472442
          },
          {
            "number": 7,
            "time": 47.494765124998764,
            "value": 0.18110236220472442
          },
          {
            "number": 7,
            "time": 47.49999524999876,
            "value": 0.18110236220472442
          },
          {
            "number": 7,
            "time": 47.50522537499876,
            "value": 0.18110236220472442
          },
          {
            "number": 7,
            "time": 47.510455499998756,
            "value": 0.1732283464566929
          },
          {
            "number": 7,
            "time": 47.51568562499875,
            "value": 0.1732283464566929
          },
          {
            "number": 7,
            "time": 47.52091574999875,
            "value": 0.1732283464566929
          },
          {
            "number": 7,
            "time": 47.52614587499875,
            "value": 0.1732283464566929
          },
          {
            "number": 7,
            "time": 47.531375999998744,
            "value": 0.1732283464566929
          },
          {
            "number": 7,
            "time": 47.53660612499874,
            "value": 0.1732283464566929
          },
          {
            "number": 7,
            "time": 47.54183624999874,
            "value": 0.16535433070866143
          },
          {
            "number": 7,
            "time": 47.547066374998735,
            "value": 0.16535433070866143
          },
          {
            "number": 7,
            "time": 47.55229649999873,
            "value": 0.16535433070866143
          },
          {
            "number": 7,
            "time": 47.55752662499873,
            "value": 0.16535433070866143
          },
          {
            "number": 7,
            "time": 47.56275674999873,
            "value": 0.16535433070866143
          },
          {
            "number": 7,
            "time": 47.567986874998724,
            "value": 0.15748031496062992
          },
          {
            "number": 7,
            "time": 47.57321699999872,
            "value": 0.15748031496062992
          },
          {
            "number": 7,
            "time": 47.57844712499872,
            "value": 0.15748031496062992
          },
          {
            "number": 7,
            "time": 47.583677249998715,
            "value": 0.15748031496062992
          },
          {
            "number": 7,
            "time": 47.58890737499871,
            "value": 0.15748031496062992
          },
          {
            "number": 7,
            "time": 47.59413749999871,
            "value": 0.15748031496062992
          },
          {
            "number": 7,
            "time": 47.599367624998706,
            "value": 0.14960629921259844
          },
          {
            "number": 7,
            "time": 47.6045977499987,
            "value": 0.14960629921259844
          },
          {
            "number": 7,
            "time": 47.6098278749987,
            "value": 0.14960629921259844
          },
          {
            "number": 7,
            "time": 47.6150579999987,
            "value": 0.14960629921259844
          },
          {
            "number": 7,
            "time": 47.620288124998694,
            "value": 0.14960629921259844
          },
          {
            "number": 7,
            "time": 47.62551824999869,
            "value": 0.14960629921259844
          },
          {
            "number": 7,
            "time": 47.63074837499869,
            "value": 0.14173228346456693
          },
          {
            "number": 7,
            "time": 47.635978499998686,
            "value": 0.14173228346456693
          },
          {
            "number": 7,
            "time": 47.64120862499868,
            "value": 0.14173228346456693
          },
          {
            "number": 7,
            "time": 47.64643874999868,
            "value": 0.14173228346456693
          },
          {
            "number": 7,
            "time": 47.65166887499868,
            "value": 0.14173228346456693
          },
          {
            "number": 7,
            "time": 47.656898999998674,
            "value": 0.14173228346456693
          },
          {
            "number": 7,
            "time": 47.66212912499867,
            "value": 0.13385826771653545
          },
          {
            "number": 7,
            "time": 47.66735924999867,
            "value": 0.13385826771653545
          },
          {
            "number": 7,
            "time": 47.672589374998665,
            "value": 0.13385826771653545
          },
          {
            "number": 7,
            "time": 47.67781949999866,
            "value": 0.13385826771653545
          },
          {
            "number": 7,
            "time": 47.68304962499866,
            "value": 0.13385826771653545
          },
          {
            "number": 7,
            "time": 47.68827974999866,
            "value": 0.13385826771653545
          },
          {
            "number": 7,
            "time": 47.693509874998654,
            "value": 0.12598425196850394
          },
          {
            "number": 7,
            "time": 47.69873999999865,
            "value": 0.12598425196850394
          },
          {
            "number": 7,
            "time": 47.70397012499865,
            "value": 0.12598425196850394
          },
          {
            "number": 7,
            "time": 47.709200249998645,
            "value": 0.12598425196850394
          },
          {
            "number": 7,
            "time": 47.71443037499864,
            "value": 0.12598425196850394
          },
          {
            "number": 7,
            "time": 47.71966049999864,
            "value": 0.12598425196850394
          },
          {
            "number": 7,
            "time": 47.724890624998636,
            "value": 0.11811023622047244
          },
          {
            "number": 7,
            "time": 47.73012074999863,
            "value": 0.11811023622047244
          },
          {
            "number": 7,
            "time": 47.73535087499863,
            "value": 0.11811023622047244
          },
          {
            "number": 7,
            "time": 47.74058099999863,
            "value": 0.11811023622047244
          },
          {
            "number": 7,
            "time": 47.745811124998625,
            "value": 0.11811023622047244
          },
          {
            "number": 7,
            "time": 47.75104124999862,
            "value": 0.11811023622047244
          },
          {
            "number": 7,
            "time": 47.75627137499862,
            "value": 0.11023622047244094
          },
          {
            "number": 7,
            "time": 47.761501499998616,
            "value": 0.11023622047244094
          },
          {
            "number": 7,
            "time": 47.76673162499861,
            "value": 0.11023622047244094
          },
          {
            "number": 7,
            "time": 47.77196174999861,
            "value": 0.11023622047244094
          },
          {
            "number": 7,
            "time": 47.77719187499861,
            "value": 0.11023622047244094
          },
          {
            "number": 7,
            "time": 47.782421999998604,
            "value": 0.10236220472440945
          },
          {
            "number": 7,
            "time": 47.7876521249986,
            "value": 0.10236220472440945
          },
          {
            "number": 7,
            "time": 47.7928822499986,
            "value": 0.10236220472440945
          },
          {
            "number": 7,
            "time": 47.798112374998595,
            "value": 0.10236220472440945
          },
          {
            "number": 7,
            "time": 47.80334249999859,
            "value": 0.10236220472440945
          },
          {
            "number": 7,
            "time": 47.80857262499859,
            "value": 0.10236220472440945
          },
          {
            "number": 7,
            "time": 47.81380274999859,
            "value": 0.09448818897637795
          },
          {
            "number": 7,
            "time": 47.819032874998584,
            "value": 0.09448818897637795
          },
          {
            "number": 7,
            "time": 47.82426299999858,
            "value": 0.09448818897637795
          },
          {
            "number": 7,
            "time": 47.82949312499858,
            "value": 0.09448818897637795
          },
          {
            "number": 7,
            "time": 47.834723249998575,
            "value": 0.09448818897637795
          },
          {
            "number": 7,
            "time": 47.83995337499857,
            "value": 0.09448818897637795
          },
          {
            "number": 7,
            "time": 47.84518349999857,
            "value": 0.08661417322834646
          },
          {
            "number": 7,
            "time": 47.850413624998566,
            "value": 0.08661417322834646
          },
          {
            "number": 7,
            "time": 47.85564374999856,
            "value": 0.08661417322834646
          },
          {
            "number": 7,
            "time": 47.86087387499856,
            "value": 0.08661417322834646
          },
          {
            "number": 7,
            "time": 47.86610399999856,
            "value": 0.08661417322834646
          },
          {
            "number": 7,
            "time": 47.871334124998555,
            "value": 0.08661417322834646
          },
          {
            "number": 7,
            "time": 47.87656424999855,
            "value": 0.07874015748031496
          },
          {
            "number": 7,
            "time": 47.88179437499855,
            "value": 0.07874015748031496
          },
          {
            "number": 7,
            "time": 47.887024499998546,
            "value": 0.07874015748031496
          },
          {
            "number": 7,
            "time": 47.89225462499854,
            "value": 0.07874015748031496
          },
          {
            "number": 7,
            "time": 47.89748474999854,
            "value": 0.07874015748031496
          },
          {
            "number": 7,
            "time": 47.90271487499854,
            "value": 0.07874015748031496
          },
          {
            "number": 7,
            "time": 47.907944999998534,
            "value": 0.07086614173228346
          },
          {
            "number": 7,
            "time": 47.91317512499853,
            "value": 0.07086614173228346
          },
          {
            "number": 7,
            "time": 47.91840524999853,
            "value": 0.07086614173228346
          },
          {
            "number": 7,
            "time": 47.923635374998526,
            "value": 0.07086614173228346
          },
          {
            "number": 7,
            "time": 47.92886549999852,
            "value": 0.07086614173228346
          },
          {
            "number": 7,
            "time": 47.93409562499852,
            "value": 0.07086614173228346
          },
          {
            "number": 7,
            "time": 47.93932574999852,
            "value": 0.06299212598425197
          },
          {
            "number": 7,
            "time": 47.944555874998514,
            "value": 0.06299212598425197
          },
          {
            "number": 7,
            "time": 47.94978599999851,
            "value": 0.06299212598425197
          },
          {
            "number": 7,
            "time": 47.95501612499851,
            "value": 0.06299212598425197
          },
          {
            "number": 7,
            "time": 47.960246249998505,
            "value": 0.06299212598425197
          },
          {
            "number": 7,
            "time": 47.9654763749985,
            "value": 0.06299212598425197
          },
          {
            "number": 7,
            "time": 47.9707064999985,
            "value": 0.05511811023622047
          },
          {
            "number": 7,
            "time": 47.975936624998496,
            "value": 0.05511811023622047
          },
          {
            "number": 7,
            "time": 47.98116674999849,
            "value": 0.05511811023622047
          },
          {
            "number": 7,
            "time": 47.98639687499849,
            "value": 0.05511811023622047
          },
          {
            "number": 7,
            "time": 47.99162699999849,
            "value": 0.05511811023622047
          },
          {
            "number": 7,
            "time": 47.996857124998485,
            "value": 0.05511811023622047
          },
          {
            "number": 7,
            "time": 48.00208724999848,
            "value": 0.047244094488188976
          },
          {
            "number": 7,
            "time": 48.00731737499848,
            "value": 0.047244094488188976
          },
          {
            "number": 7,
            "time": 48.012547499998476,
            "value": 0.047244094488188976
          },
          {
            "number": 7,
            "time": 48.01777762499847,
            "value": 0.047244094488188976
          },
          {
            "number": 7,
            "time": 48.02300774999847,
            "value": 0.047244094488188976
          },
          {
            "number": 7,
            "time": 48.02823787499847,
            "value": 0.03937007874015748
          },
          {
            "number": 7,
            "time": 48.033467999998464,
            "value": 0.03937007874015748
          },
          {
            "number": 7,
            "time": 48.03869812499846,
            "value": 0.03937007874015748
          },
          {
            "number": 7,
            "time": 48.04392824999846,
            "value": 0.03937007874015748
          },
          {
            "number": 7,
            "time": 48.049158374998456,
            "value": 0.03937007874015748
          },
          {
            "number": 7,
            "time": 48.05438849999845,
            "value": 0.03937007874015748
          },
          {
            "number": 7,
            "time": 48.05961862499845,
            "value": 0.031496062992125984
          },
          {
            "number": 7,
            "time": 48.06484874999845,
            "value": 0.031496062992125984
          },
          {
            "number": 7,
            "time": 48.070078874998444,
            "value": 0.031496062992125984
          },
          {
            "number": 7,
            "time": 48.07530899999844,
            "value": 0.031496062992125984
          },
          {
            "number": 7,
            "time": 48.08053912499844,
            "value": 0.031496062992125984
          },
          {
            "number": 7,
            "time": 48.085769249998435,
            "value": 0.031496062992125984
          },
          {
            "number": 7,
            "time": 48.09099937499843,
            "value": 0.023622047244094488
          },
          {
            "number": 7,
            "time": 48.09622949999843,
            "value": 0.023622047244094488
          },
          {
            "number": 7,
            "time": 48.10145962499843,
            "value": 0.023622047244094488
          },
          {
            "number": 7,
            "time": 48.106689749998424,
            "value": 0.023622047244094488
          },
          {
            "number": 7,
            "time": 48.11191987499842,
            "value": 0.023622047244094488
          },
          {
            "number": 7,
            "time": 48.11714999999842,
            "value": 0.023622047244094488
          },
          {
            "number": 7,
            "time": 48.122380124998415,
            "value": 0.015748031496062992
          },
          {
            "number": 7,
            "time": 48.12761024999841,
            "value": 0.015748031496062992
          },
          {
            "number": 7,
            "time": 48.13284037499841,
            "value": 0.015748031496062992
          },
          {
            "number": 7,
            "time": 48.138070499998406,
            "value": 0.015748031496062992
          },
          {
            "number": 7,
            "time": 48.1433006249984,
            "value": 0.015748031496062992
          },
          {
            "number": 7,
            "time": 48.1485307499984,
            "value": 0.015748031496062992
          },
          {
            "number": 7,
            "time": 48.1537608749984,
            "value": 0.007874015748031496
          },
          {
            "number": 7,
            "time": 48.158990999998394,
            "value": 0.007874015748031496
          },
          {
            "number": 7,
            "time": 48.16422112499839,
            "value": 0.007874015748031496
          },
          {
            "number": 7,
            "time": 48.16945124999839,
            "value": 0.007874015748031496
          },
          {
            "number": 7,
            "time": 48.174681374998386,
            "value": 0.007874015748031496
          },
          {
            "number": 7,
            "time": 48.17991149999838,
            "value": 0.007874015748031496
          },
          {
            "number": 7,
            "time": 48.18514162499838,
            "value": 0
          },
          {
            "number": 7,
            "time": 48.19037174999838,
            "value": 0
          },
          {
            "number": 7,
            "time": 48.195601874998374,
            "value": 0
          },
          {
            "number": 7,
            "time": 48.20083199999837,
            "value": 0
          },
          {
            "number": 7,
            "time": 48.20606212499837,
            "value": 0
          },
          {
            "number": 7,
            "time": 48.211292249998365,
            "value": 0
          },
          {
            "number": 7,
            "time": 86.35982399999837,
            "value": 0.7716535433070866
          },
          {
            "number": 7,
            "time": 108.45187199999836,
            "value": 0.7716535433070866
          },
          {
            "number": 7,
            "time": 108.46233224999835,
            "value": 0.7716535433070866
          },
          {
            "number": 7,
            "time": 108.46233224999835,
            "value": 0.7716535433070866
          }
        ],
        "10": [
          {
            "number": 10,
            "time": 0,
            "value": 0.5039370078740157
          },
          {
            "number": 10,
            "time": 0,
            "value": 0.5039370078740157
          },
          {
            "number": 10,
            "time": 0,
            "value": 0.5039370078740157
          },
          {
            "number": 10,
            "time": 0,
            "value": 0.5039370078740157
          },
          {
            "number": 10,
            "time": 108.45187199999836,
            "value": 0.5039370078740157
          },
          {
            "number": 10,
            "time": 108.46233224999835,
            "value": 0.5039370078740157
          },
          {
            "number": 10,
            "time": 108.46233224999835,
            "value": 0.5039370078740157
          }
        ],
        "100": [
          {
            "number": 100,
            "time": 0,
            "value": 0
          },
          {
            "number": 100,
            "time": 0,
            "value": 0
          },
          {
            "number": 100,
            "time": 0,
            "value": 0
          },
          {
            "number": 100,
            "time": 108.45187199999836,
            "value": 0
          },
          {
            "number": 100,
            "time": 108.46233224999835,
            "value": 0
          },
          {
            "number": 100,
            "time": 108.46233224999835,
            "value": 0
          }
        ],
        "101": [
          {
            "number": 101,
            "time": 0,
            "value": 0
          },
          {
            "number": 101,
            "time": 0,
            "value": 0
          },
          {
            "number": 101,
            "time": 0,
            "value": 0
          },
          {
            "number": 101,
            "time": 108.45187199999836,
            "value": 0
          },
          {
            "number": 101,
            "time": 108.46233224999835,
            "value": 0
          },
          {
            "number": 101,
            "time": 108.46233224999835,
            "value": 0
          }
        ]
      },
      "id": 10,
      "name": "MIDI out #6",
      "instrumentNumber": 56,
      "instrument": "trumpet",
      "instrumentFamily": "brass",
      "channelNumber": 5,
      "isPercussion": false
    },
    {
      "startTime": 10.543932,
      "duration": 106.94559599999857,
      "length": 318,
      "notes": [
        {
          "name": "D#4",
          "midi": 63,
          "time": 10.543932,
          "velocity": 0.7874015748031497,
          "duration": 0.25104600000000055
        },
        {
          "name": "D#5",
          "midi": 75,
          "time": 10.543932,
          "velocity": 0.7874015748031497,
          "duration": 0.25104600000000055
        },
        {
          "name": "C6",
          "midi": 84,
          "time": 10.794978,
          "velocity": 0.7874015748031497,
          "duration": 0.25104600000000055
        },
        {
          "name": "C5",
          "midi": 72,
          "time": 10.794978,
          "velocity": 0.7874015748031497,
          "duration": 0.25104600000000055
        },
        {
          "name": "A#4",
          "midi": 70,
          "time": 11.046024000000001,
          "velocity": 0.7874015748031497,
          "duration": 0.25104600000000055
        },
        {
          "name": "A#5",
          "midi": 82,
          "time": 11.046024000000001,
          "velocity": 0.7874015748031497,
          "duration": 0.25104600000000055
        },
        {
          "name": "G#5",
          "midi": 80,
          "time": 11.297070000000001,
          "velocity": 0.7874015748031497,
          "duration": 0.12552299999999939
        },
        {
          "name": "G#5",
          "midi": 80,
          "time": 11.297070000000001,
          "velocity": 0.7874015748031497,
          "duration": 0.12552299999999939
        },
        {
          "name": "G#4",
          "midi": 68,
          "time": 11.297070000000001,
          "velocity": 0.7874015748031497,
          "duration": 0.12552299999999939
        },
        {
          "name": "G#4",
          "midi": 68,
          "time": 11.297070000000001,
          "velocity": 0.7874015748031497,
          "duration": 0.12552299999999939
        },
        {
          "name": "F#4",
          "midi": 66,
          "time": 11.422593,
          "velocity": 0.7874015748031497,
          "duration": 0.12552299999999939
        },
        {
          "name": "F#5",
          "midi": 78,
          "time": 11.422593,
          "velocity": 0.7874015748031497,
          "duration": 0.12552299999999939
        },
        {
          "name": "F5",
          "midi": 77,
          "time": 11.548116,
          "velocity": 0.7874015748031497,
          "duration": 0.12552299999999939
        },
        {
          "name": "F4",
          "midi": 65,
          "time": 11.548116,
          "velocity": 0.7874015748031497,
          "duration": 0.12552299999999939
        },
        {
          "name": "G#5",
          "midi": 80,
          "time": 11.799161999999999,
          "velocity": 0.7874015748031497,
          "duration": 0.12552299999999939
        },
        {
          "name": "G#4",
          "midi": 68,
          "time": 11.799161999999999,
          "velocity": 0.7874015748031497,
          "duration": 0.12552299999999939
        },
        {
          "name": "A#4",
          "midi": 70,
          "time": 12.050207999999998,
          "velocity": 0.7874015748031497,
          "duration": 1.0041840000000004
        },
        {
          "name": "A#5",
          "midi": 82,
          "time": 12.050207999999998,
          "velocity": 0.7874015748031497,
          "duration": 1.0041840000000004
        },
        {
          "name": "F4",
          "midi": 65,
          "time": 13.054391999999998,
          "velocity": 0.7874015748031497,
          "duration": 0.12552299999999939
        },
        {
          "name": "F5",
          "midi": 77,
          "time": 13.054391999999998,
          "velocity": 0.7874015748031497,
          "duration": 0.12552299999999939
        },
        {
          "name": "G#5",
          "midi": 80,
          "time": 13.305437999999997,
          "velocity": 0.7874015748031497,
          "duration": 0.12552299999999939
        },
        {
          "name": "G#4",
          "midi": 68,
          "time": 13.305437999999997,
          "velocity": 0.7874015748031497,
          "duration": 0.12552299999999939
        },
        {
          "name": "A#4",
          "midi": 70,
          "time": 13.556483999999996,
          "velocity": 0.7874015748031497,
          "duration": 0.5020919999999993
        },
        {
          "name": "A#5",
          "midi": 82,
          "time": 13.556483999999996,
          "velocity": 0.7874015748031497,
          "duration": 0.5020919999999993
        },
        {
          "name": "C#6",
          "midi": 85,
          "time": 14.058575999999995,
          "velocity": 0.7874015748031497,
          "duration": 0.12552299999999939
        },
        {
          "name": "C#5",
          "midi": 73,
          "time": 14.058575999999995,
          "velocity": 0.7874015748031497,
          "duration": 0.12552299999999939
        },
        {
          "name": "D#5",
          "midi": 75,
          "time": 14.309621999999994,
          "velocity": 0.7874015748031497,
          "duration": 0.12552299999999939
        },
        {
          "name": "D#6",
          "midi": 87,
          "time": 14.309621999999994,
          "velocity": 0.7874015748031497,
          "duration": 0.12552299999999939
        },
        {
          "name": "C#6",
          "midi": 85,
          "time": 14.435144999999993,
          "velocity": 0.7874015748031497,
          "duration": 0.12552299999999939
        },
        {
          "name": "C#5",
          "midi": 73,
          "time": 14.435144999999993,
          "velocity": 0.7874015748031497,
          "duration": 0.12552299999999939
        },
        {
          "name": "C6",
          "midi": 84,
          "time": 14.560667999999993,
          "velocity": 0.7874015748031497,
          "duration": 0.12552299999999939
        },
        {
          "name": "C5",
          "midi": 72,
          "time": 14.560667999999993,
          "velocity": 0.7874015748031497,
          "duration": 0.12552299999999939
        },
        {
          "name": "C#6",
          "midi": 85,
          "time": 14.811713999999991,
          "velocity": 0.7874015748031497,
          "duration": 0.12552299999999939
        },
        {
          "name": "C#5",
          "midi": 73,
          "time": 14.811713999999991,
          "velocity": 0.7874015748031497,
          "duration": 0.12552299999999939
        },
        {
          "name": "A#5",
          "midi": 82,
          "time": 15.06275999999999,
          "velocity": 0.7874015748031497,
          "duration": 2.008368000000001
        },
        {
          "name": "A#4",
          "midi": 70,
          "time": 15.06275999999999,
          "velocity": 0.7874015748031497,
          "duration": 2.008368000000001
        },
        {
          "name": "D#4",
          "midi": 63,
          "time": 28.61924399999999,
          "velocity": 0.7874015748031497,
          "duration": 0.25104599999999877
        },
        {
          "name": "D#5",
          "midi": 75,
          "time": 28.61924399999999,
          "velocity": 0.7874015748031497,
          "duration": 0.25104599999999877
        },
        {
          "name": "C6",
          "midi": 84,
          "time": 28.87028999999999,
          "velocity": 0.7874015748031497,
          "duration": 0.25104599999999877
        },
        {
          "name": "C5",
          "midi": 72,
          "time": 28.87028999999999,
          "velocity": 0.7874015748031497,
          "duration": 0.25104599999999877
        },
        {
          "name": "A#4",
          "midi": 70,
          "time": 29.12133599999999,
          "velocity": 0.7874015748031497,
          "duration": 0.25104599999999877
        },
        {
          "name": "A#5",
          "midi": 82,
          "time": 29.12133599999999,
          "velocity": 0.7874015748031497,
          "duration": 0.25104599999999877
        },
        {
          "name": "G#4",
          "midi": 68,
          "time": 29.372381999999988,
          "velocity": 0.7874015748031497,
          "duration": 0.12552300000000116
        },
        {
          "name": "G#4",
          "midi": 68,
          "time": 29.372381999999988,
          "velocity": 0.7874015748031497,
          "duration": 0.12552300000000116
        },
        {
          "name": "G#5",
          "midi": 80,
          "time": 29.372381999999988,
          "velocity": 0.7874015748031497,
          "duration": 0.12552300000000116
        },
        {
          "name": "G#5",
          "midi": 80,
          "time": 29.372381999999988,
          "velocity": 0.7874015748031497,
          "duration": 0.12552300000000116
        },
        {
          "name": "F#5",
          "midi": 78,
          "time": 29.49790499999999,
          "velocity": 0.7874015748031497,
          "duration": 0.12552300000000116
        },
        {
          "name": "F#4",
          "midi": 66,
          "time": 29.49790499999999,
          "velocity": 0.7874015748031497,
          "duration": 0.12552300000000116
        },
        {
          "name": "F5",
          "midi": 77,
          "time": 29.62342799999999,
          "velocity": 0.7874015748031497,
          "duration": 0.12552300000000116
        },
        {
          "name": "F4",
          "midi": 65,
          "time": 29.62342799999999,
          "velocity": 0.7874015748031497,
          "duration": 0.12552300000000116
        },
        {
          "name": "G#4",
          "midi": 68,
          "time": 29.874473999999992,
          "velocity": 0.7874015748031497,
          "duration": 0.12552300000000116
        },
        {
          "name": "G#5",
          "midi": 80,
          "time": 29.874473999999992,
          "velocity": 0.7874015748031497,
          "duration": 0.12552300000000116
        },
        {
          "name": "A#4",
          "midi": 70,
          "time": 30.125519999999995,
          "velocity": 0.7874015748031497,
          "duration": 1.0041839999999986
        },
        {
          "name": "A#5",
          "midi": 82,
          "time": 30.125519999999995,
          "velocity": 0.7874015748031497,
          "duration": 1.0041839999999986
        },
        {
          "name": "F5",
          "midi": 77,
          "time": 31.129703999999993,
          "velocity": 0.7874015748031497,
          "duration": 0.12552300000000116
        },
        {
          "name": "F4",
          "midi": 65,
          "time": 31.129703999999993,
          "velocity": 0.7874015748031497,
          "duration": 0.12552300000000116
        },
        {
          "name": "G#5",
          "midi": 80,
          "time": 31.380749999999995,
          "velocity": 0.7874015748031497,
          "duration": 0.12552300000000116
        },
        {
          "name": "G#4",
          "midi": 68,
          "time": 31.380749999999995,
          "velocity": 0.7874015748031497,
          "duration": 0.12552300000000116
        },
        {
          "name": "A#5",
          "midi": 82,
          "time": 31.631795999999998,
          "velocity": 0.7874015748031497,
          "duration": 0.5020920000000011
        },
        {
          "name": "A#4",
          "midi": 70,
          "time": 31.631795999999998,
          "velocity": 0.7874015748031497,
          "duration": 0.5020920000000011
        },
        {
          "name": "C#6",
          "midi": 85,
          "time": 32.133888,
          "velocity": 0.7874015748031497,
          "duration": 0.12552300000000116
        },
        {
          "name": "C#5",
          "midi": 73,
          "time": 32.133888,
          "velocity": 0.7874015748031497,
          "duration": 0.12552300000000116
        },
        {
          "name": "D#5",
          "midi": 75,
          "time": 32.384934,
          "velocity": 0.7874015748031497,
          "duration": 0.12552300000000116
        },
        {
          "name": "D#6",
          "midi": 87,
          "time": 32.384934,
          "velocity": 0.7874015748031497,
          "duration": 0.12552300000000116
        },
        {
          "name": "C#6",
          "midi": 85,
          "time": 32.510457,
          "velocity": 0.7874015748031497,
          "duration": 0.12552300000000116
        },
        {
          "name": "C#5",
          "midi": 73,
          "time": 32.510457,
          "velocity": 0.7874015748031497,
          "duration": 0.12552300000000116
        },
        {
          "name": "C5",
          "midi": 72,
          "time": 32.63598,
          "velocity": 0.7874015748031497,
          "duration": 0.12552300000000116
        },
        {
          "name": "C6",
          "midi": 84,
          "time": 32.63598,
          "velocity": 0.7874015748031497,
          "duration": 0.12552300000000116
        },
        {
          "name": "C#6",
          "midi": 85,
          "time": 32.887026000000006,
          "velocity": 0.7874015748031497,
          "duration": 0.12552300000000116
        },
        {
          "name": "C#5",
          "midi": 73,
          "time": 32.887026000000006,
          "velocity": 0.7874015748031497,
          "duration": 0.12552300000000116
        },
        {
          "name": "A#4",
          "midi": 70,
          "time": 33.13807200000001,
          "velocity": 0.7874015748031497,
          "duration": 1.5062759999999997
        },
        {
          "name": "A#5",
          "midi": 82,
          "time": 33.13807200000001,
          "velocity": 0.7874015748031497,
          "duration": 1.5062759999999997
        },
        {
          "name": "A#4",
          "midi": 70,
          "time": 35.39748600000001,
          "velocity": 0.7874015748031497,
          "duration": 0.2510460000000023
        },
        {
          "name": "A#5",
          "midi": 82,
          "time": 35.39748600000001,
          "velocity": 0.7874015748031497,
          "duration": 0.2510460000000023
        },
        {
          "name": "C#5",
          "midi": 73,
          "time": 35.64853200000001,
          "velocity": 0.7874015748031497,
          "duration": 0.2510460000000023
        },
        {
          "name": "C#6",
          "midi": 85,
          "time": 35.64853200000001,
          "velocity": 0.7874015748031497,
          "duration": 0.2510460000000023
        },
        {
          "name": "D#6",
          "midi": 87,
          "time": 35.89957800000001,
          "velocity": 0.7874015748031497,
          "duration": 0.2510460000000023
        },
        {
          "name": "D#5",
          "midi": 75,
          "time": 35.89957800000001,
          "velocity": 0.7874015748031497,
          "duration": 0.2510460000000023
        },
        {
          "name": "F5",
          "midi": 77,
          "time": 36.150624000000015,
          "velocity": 0.7874015748031497,
          "duration": 0.7531379999999999
        },
        {
          "name": "F6",
          "midi": 89,
          "time": 36.150624000000015,
          "velocity": 0.7874015748031497,
          "duration": 0.7531379999999999
        },
        {
          "name": "C#6",
          "midi": 85,
          "time": 37.15480800000002,
          "velocity": 0.7874015748031497,
          "duration": 0.2510460000000023
        },
        {
          "name": "C#5",
          "midi": 73,
          "time": 37.15480800000002,
          "velocity": 0.7874015748031497,
          "duration": 0.2510460000000023
        },
        {
          "name": "D#5",
          "midi": 75,
          "time": 37.40585400000002,
          "velocity": 0.7874015748031497,
          "duration": 0.2510460000000023
        },
        {
          "name": "D#6",
          "midi": 87,
          "time": 37.40585400000002,
          "velocity": 0.7874015748031497,
          "duration": 0.2510460000000023
        },
        {
          "name": "F6",
          "midi": 89,
          "time": 37.65690000000002,
          "velocity": 0.7874015748031497,
          "duration": 0.5020919999999975
        },
        {
          "name": "F5",
          "midi": 77,
          "time": 37.65690000000002,
          "velocity": 0.7874015748031497,
          "duration": 0.5020919999999975
        },
        {
          "name": "D#6",
          "midi": 87,
          "time": 38.15899200000002,
          "velocity": 0.7874015748031497,
          "duration": 0.2510460000000023
        },
        {
          "name": "D#5",
          "midi": 75,
          "time": 38.15899200000002,
          "velocity": 0.7874015748031497,
          "duration": 0.2510460000000023
        },
        {
          "name": "C#6",
          "midi": 85,
          "time": 38.41003800000002,
          "velocity": 0.7874015748031497,
          "duration": 0.12552300000000116
        },
        {
          "name": "C#5",
          "midi": 73,
          "time": 38.41003800000002,
          "velocity": 0.7874015748031497,
          "duration": 0.12552300000000116
        },
        {
          "name": "D#5",
          "midi": 75,
          "time": 38.53556100000002,
          "velocity": 0.7874015748031497,
          "duration": 0.12552300000000116
        },
        {
          "name": "D#6",
          "midi": 87,
          "time": 38.53556100000002,
          "velocity": 0.7874015748031497,
          "duration": 0.12552300000000116
        },
        {
          "name": "C5",
          "midi": 72,
          "time": 38.661084000000024,
          "velocity": 0.7874015748031497,
          "duration": 0.12552300000000116
        },
        {
          "name": "C6",
          "midi": 84,
          "time": 38.661084000000024,
          "velocity": 0.7874015748031497,
          "duration": 0.12552300000000116
        },
        {
          "name": "G#4",
          "midi": 68,
          "time": 38.912130000000026,
          "velocity": 0.7874015748031497,
          "duration": 0.2510460000000023
        },
        {
          "name": "G#5",
          "midi": 80,
          "time": 38.912130000000026,
          "velocity": 0.7874015748031497,
          "duration": 0.2510460000000023
        },
        {
          "name": "A#4",
          "midi": 70,
          "time": 39.16317600000003,
          "velocity": 0.7874015748031497,
          "duration": 1.0041840000000022
        },
        {
          "name": "A#5",
          "midi": 82,
          "time": 39.16317600000003,
          "velocity": 0.7874015748031497,
          "duration": 1.0041840000000022
        },
        {
          "name": "C#5",
          "midi": 73,
          "time": 43.17991200000003,
          "velocity": 0.7874015748031497,
          "duration": 0.2510460000000023
        },
        {
          "name": "C#6",
          "midi": 85,
          "time": 43.17991200000003,
          "velocity": 0.7874015748031497,
          "duration": 0.2510460000000023
        },
        {
          "name": "D#6",
          "midi": 87,
          "time": 43.43095800000003,
          "velocity": 0.7874015748031497,
          "duration": 0.2510460000000023
        },
        {
          "name": "D#5",
          "midi": 75,
          "time": 43.43095800000003,
          "velocity": 0.7874015748031497,
          "duration": 0.2510460000000023
        },
        {
          "name": "F5",
          "midi": 77,
          "time": 43.682004000000035,
          "velocity": 0.7874015748031497,
          "duration": 0.5020919999999975
        },
        {
          "name": "F6",
          "midi": 89,
          "time": 43.682004000000035,
          "velocity": 0.7874015748031497,
          "duration": 0.5020919999999975
        },
        {
          "name": "D#5",
          "midi": 75,
          "time": 44.18409600000003,
          "velocity": 0.7874015748031497,
          "duration": 0.2510460000000023
        },
        {
          "name": "D#6",
          "midi": 87,
          "time": 44.18409600000003,
          "velocity": 0.7874015748031497,
          "duration": 0.2510460000000023
        },
        {
          "name": "C#5",
          "midi": 73,
          "time": 44.435142000000035,
          "velocity": 0.7874015748031497,
          "duration": 0.12552300000000116
        },
        {
          "name": "C#6",
          "midi": 85,
          "time": 44.435142000000035,
          "velocity": 0.7874015748031497,
          "duration": 0.12552300000000116
        },
        {
          "name": "D#5",
          "midi": 75,
          "time": 44.560665000000036,
          "velocity": 0.7874015748031497,
          "duration": 0.12552300000000116
        },
        {
          "name": "D#6",
          "midi": 87,
          "time": 44.560665000000036,
          "velocity": 0.7874015748031497,
          "duration": 0.12552300000000116
        },
        {
          "name": "C6",
          "midi": 84,
          "time": 44.68618800000004,
          "velocity": 0.7874015748031497,
          "duration": 0.12552300000000116
        },
        {
          "name": "C5",
          "midi": 72,
          "time": 44.68618800000004,
          "velocity": 0.7874015748031497,
          "duration": 0.12552300000000116
        },
        {
          "name": "G#4",
          "midi": 68,
          "time": 44.93723400000004,
          "velocity": 0.7874015748031497,
          "duration": 0.2510460000000023
        },
        {
          "name": "G#5",
          "midi": 80,
          "time": 44.93723400000004,
          "velocity": 0.7874015748031497,
          "duration": 0.2510460000000023
        },
        {
          "name": "A#4",
          "midi": 70,
          "time": 45.18828000000004,
          "velocity": 0.7874015748031497,
          "duration": 3.0125519999983226
        },
        {
          "name": "A#5",
          "midi": 82,
          "time": 45.18828000000004,
          "velocity": 0.7874015748031497,
          "duration": 3.0125519999983226
        },
        {
          "name": "D#5",
          "midi": 75,
          "time": 61.757315999998355,
          "velocity": 0.7874015748031497,
          "duration": 0.2510460000000023
        },
        {
          "name": "D#4",
          "midi": 63,
          "time": 61.757315999998355,
          "velocity": 0.7874015748031497,
          "duration": 0.2510460000000023
        },
        {
          "name": "C6",
          "midi": 84,
          "time": 62.00836199999836,
          "velocity": 0.7874015748031497,
          "duration": 0.2510460000000023
        },
        {
          "name": "C5",
          "midi": 72,
          "time": 62.00836199999836,
          "velocity": 0.7874015748031497,
          "duration": 0.2510460000000023
        },
        {
          "name": "A#5",
          "midi": 82,
          "time": 62.25940799999836,
          "velocity": 0.7874015748031497,
          "duration": 0.2510460000000023
        },
        {
          "name": "A#4",
          "midi": 70,
          "time": 62.25940799999836,
          "velocity": 0.7874015748031497,
          "duration": 0.2510460000000023
        },
        {
          "name": "G#5",
          "midi": 80,
          "time": 62.51045399999836,
          "velocity": 0.7874015748031497,
          "duration": 0.12552300000000116
        },
        {
          "name": "G#5",
          "midi": 80,
          "time": 62.51045399999836,
          "velocity": 0.7874015748031497,
          "duration": 0.12552300000000116
        },
        {
          "name": "G#4",
          "midi": 68,
          "time": 62.51045399999836,
          "velocity": 0.7874015748031497,
          "duration": 0.12552300000000116
        },
        {
          "name": "G#4",
          "midi": 68,
          "time": 62.51045399999836,
          "velocity": 0.7874015748031497,
          "duration": 0.12552300000000116
        },
        {
          "name": "F#5",
          "midi": 78,
          "time": 62.63597699999836,
          "velocity": 0.7874015748031497,
          "duration": 0.12552300000000116
        },
        {
          "name": "F#4",
          "midi": 66,
          "time": 62.63597699999836,
          "velocity": 0.7874015748031497,
          "duration": 0.12552300000000116
        },
        {
          "name": "F5",
          "midi": 77,
          "time": 62.761499999998364,
          "velocity": 0.7874015748031497,
          "duration": 0.12552300000000116
        },
        {
          "name": "F4",
          "midi": 65,
          "time": 62.761499999998364,
          "velocity": 0.7874015748031497,
          "duration": 0.12552300000000116
        },
        {
          "name": "G#5",
          "midi": 80,
          "time": 63.012545999998366,
          "velocity": 0.7874015748031497,
          "duration": 0.12552300000000116
        },
        {
          "name": "G#4",
          "midi": 68,
          "time": 63.012545999998366,
          "velocity": 0.7874015748031497,
          "duration": 0.12552300000000116
        },
        {
          "name": "A#4",
          "midi": 70,
          "time": 63.26359199999837,
          "velocity": 0.7874015748031497,
          "duration": 0.2510460000000023
        },
        {
          "name": "A#5",
          "midi": 82,
          "time": 63.26359199999837,
          "velocity": 0.7874015748031497,
          "duration": 0.2510460000000023
        },
        {
          "name": "B4",
          "midi": 71,
          "time": 63.76568399999837,
          "velocity": 0.7874015748031497,
          "duration": 0.2510460000000023
        },
        {
          "name": "B5",
          "midi": 83,
          "time": 63.76568399999837,
          "velocity": 0.7874015748031497,
          "duration": 0.2510460000000023
        },
        {
          "name": "D#5",
          "midi": 75,
          "time": 64.01672999999838,
          "velocity": 0.7874015748031497,
          "duration": 0.2510460000000023
        },
        {
          "name": "D#6",
          "midi": 87,
          "time": 64.01672999999838,
          "velocity": 0.7874015748031497,
          "duration": 0.2510460000000023
        },
        {
          "name": "C#5",
          "midi": 73,
          "time": 64.26777599999838,
          "velocity": 0.7874015748031497,
          "duration": 0.2510460000000023
        },
        {
          "name": "C#6",
          "midi": 85,
          "time": 64.26777599999838,
          "velocity": 0.7874015748031497,
          "duration": 0.2510460000000023
        },
        {
          "name": "D#5",
          "midi": 75,
          "time": 64.51882199999838,
          "velocity": 0.7874015748031497,
          "duration": 0.2510460000000023
        },
        {
          "name": "D#6",
          "midi": 87,
          "time": 64.51882199999838,
          "velocity": 0.7874015748031497,
          "duration": 0.2510460000000023
        },
        {
          "name": "F5",
          "midi": 77,
          "time": 64.76986799999838,
          "velocity": 0.7874015748031497,
          "duration": 0.5020920000000046
        },
        {
          "name": "F6",
          "midi": 89,
          "time": 64.76986799999838,
          "velocity": 0.7874015748031497,
          "duration": 0.5020920000000046
        },
        {
          "name": "D#5",
          "midi": 75,
          "time": 65.27195999999839,
          "velocity": 0.7874015748031497,
          "duration": 0.2510460000000023
        },
        {
          "name": "D#6",
          "midi": 87,
          "time": 65.27195999999839,
          "velocity": 0.7874015748031497,
          "duration": 0.2510460000000023
        },
        {
          "name": "F#5",
          "midi": 78,
          "time": 65.52300599999839,
          "velocity": 0.7874015748031497,
          "duration": 0.2510460000000023
        },
        {
          "name": "F#6",
          "midi": 90,
          "time": 65.52300599999839,
          "velocity": 0.7874015748031497,
          "duration": 0.2510460000000023
        },
        {
          "name": "F5",
          "midi": 77,
          "time": 65.77405199999839,
          "velocity": 0.7874015748031497,
          "duration": 0.2510460000000023
        },
        {
          "name": "F6",
          "midi": 89,
          "time": 65.77405199999839,
          "velocity": 0.7874015748031497,
          "duration": 0.2510460000000023
        },
        {
          "name": "D#5",
          "midi": 75,
          "time": 66.0250979999984,
          "velocity": 0.7874015748031497,
          "duration": 0.2510460000000023
        },
        {
          "name": "D#6",
          "midi": 87,
          "time": 66.0250979999984,
          "velocity": 0.7874015748031497,
          "duration": 0.2510460000000023
        },
        {
          "name": "F5",
          "midi": 77,
          "time": 66.2761439999984,
          "velocity": 0.7874015748031497,
          "duration": 0.5020920000000046
        },
        {
          "name": "F6",
          "midi": 89,
          "time": 66.2761439999984,
          "velocity": 0.7874015748031497,
          "duration": 0.5020920000000046
        },
        {
          "name": "F#5",
          "midi": 78,
          "time": 66.7782359999984,
          "velocity": 0.7874015748031497,
          "duration": 0.12552300000000116
        },
        {
          "name": "F#6",
          "midi": 90,
          "time": 66.7782359999984,
          "velocity": 0.7874015748031497,
          "duration": 0.12552300000000116
        },
        {
          "name": "F5",
          "midi": 77,
          "time": 67.0292819999984,
          "velocity": 0.7874015748031497,
          "duration": 0.12552300000000116
        },
        {
          "name": "F6",
          "midi": 89,
          "time": 67.0292819999984,
          "velocity": 0.7874015748031497,
          "duration": 0.12552300000000116
        },
        {
          "name": "F#5",
          "midi": 78,
          "time": 67.1548049999984,
          "velocity": 0.7874015748031497,
          "duration": 0.12552300000000116
        },
        {
          "name": "F#6",
          "midi": 90,
          "time": 67.1548049999984,
          "velocity": 0.7874015748031497,
          "duration": 0.12552300000000116
        },
        {
          "name": "D#5",
          "midi": 75,
          "time": 67.2803279999984,
          "velocity": 0.7874015748031497,
          "duration": 0.2510460000000023
        },
        {
          "name": "D#6",
          "midi": 87,
          "time": 67.2803279999984,
          "velocity": 0.7874015748031497,
          "duration": 0.2510460000000023
        },
        {
          "name": "F5",
          "midi": 77,
          "time": 67.53137399999841,
          "velocity": 0.7874015748031497,
          "duration": 0.2510460000000023
        },
        {
          "name": "F6",
          "midi": 89,
          "time": 67.53137399999841,
          "velocity": 0.7874015748031497,
          "duration": 0.2510460000000023
        },
        {
          "name": "C#5",
          "midi": 73,
          "time": 67.78241999999841,
          "velocity": 0.7874015748031497,
          "duration": 0.5020920000000046
        },
        {
          "name": "C#6",
          "midi": 85,
          "time": 67.78241999999841,
          "velocity": 0.7874015748031497,
          "duration": 0.5020920000000046
        },
        {
          "name": "D#5",
          "midi": 75,
          "time": 68.28451199999841,
          "velocity": 0.7874015748031497,
          "duration": 0.2510460000000023
        },
        {
          "name": "D#6",
          "midi": 87,
          "time": 68.28451199999841,
          "velocity": 0.7874015748031497,
          "duration": 0.2510460000000023
        },
        {
          "name": "C#5",
          "midi": 73,
          "time": 68.53555799999842,
          "velocity": 0.7874015748031497,
          "duration": 0.12552300000000116
        },
        {
          "name": "C#6",
          "midi": 85,
          "time": 68.53555799999842,
          "velocity": 0.7874015748031497,
          "duration": 0.12552300000000116
        },
        {
          "name": "D#6",
          "midi": 87,
          "time": 68.66108099999842,
          "velocity": 0.7874015748031497,
          "duration": 0.12552300000000116
        },
        {
          "name": "D#5",
          "midi": 75,
          "time": 68.66108099999842,
          "velocity": 0.7874015748031497,
          "duration": 0.12552300000000116
        },
        {
          "name": "A#5",
          "midi": 82,
          "time": 68.78660399999842,
          "velocity": 0.7874015748031497,
          "duration": 0.2510460000000023
        },
        {
          "name": "A#4",
          "midi": 70,
          "time": 68.78660399999842,
          "velocity": 0.7874015748031497,
          "duration": 0.2510460000000023
        },
        {
          "name": "G#5",
          "midi": 80,
          "time": 69.03764999999842,
          "velocity": 0.7874015748031497,
          "duration": 0.2510460000000023
        },
        {
          "name": "G#4",
          "midi": 68,
          "time": 69.03764999999842,
          "velocity": 0.7874015748031497,
          "duration": 0.2510460000000023
        },
        {
          "name": "A#4",
          "midi": 70,
          "time": 75.31379999999842,
          "velocity": 0.7874015748031497,
          "duration": 0.2510460000000023
        },
        {
          "name": "A#5",
          "midi": 82,
          "time": 75.31379999999842,
          "velocity": 0.7874015748031497,
          "duration": 0.2510460000000023
        },
        {
          "name": "B4",
          "midi": 71,
          "time": 75.81589199999843,
          "velocity": 0.7874015748031497,
          "duration": 0.2510460000000023
        },
        {
          "name": "B5",
          "midi": 83,
          "time": 75.81589199999843,
          "velocity": 0.7874015748031497,
          "duration": 0.2510460000000023
        },
        {
          "name": "D#5",
          "midi": 75,
          "time": 76.06693799999843,
          "velocity": 0.7874015748031497,
          "duration": 0.2510460000000023
        },
        {
          "name": "D#6",
          "midi": 87,
          "time": 76.06693799999843,
          "velocity": 0.7874015748031497,
          "duration": 0.2510460000000023
        },
        {
          "name": "C#5",
          "midi": 73,
          "time": 76.31798399999843,
          "velocity": 0.7874015748031497,
          "duration": 0.2510460000000023
        },
        {
          "name": "C#6",
          "midi": 85,
          "time": 76.31798399999843,
          "velocity": 0.7874015748031497,
          "duration": 0.2510460000000023
        },
        {
          "name": "D#5",
          "midi": 75,
          "time": 76.56902999999843,
          "velocity": 0.7874015748031497,
          "duration": 0.2510460000000023
        },
        {
          "name": "D#6",
          "midi": 87,
          "time": 76.56902999999843,
          "velocity": 0.7874015748031497,
          "duration": 0.2510460000000023
        },
        {
          "name": "F5",
          "midi": 77,
          "time": 76.82007599999844,
          "velocity": 0.7874015748031497,
          "duration": 0.5020920000000046
        },
        {
          "name": "F6",
          "midi": 89,
          "time": 76.82007599999844,
          "velocity": 0.7874015748031497,
          "duration": 0.5020920000000046
        },
        {
          "name": "D#5",
          "midi": 75,
          "time": 77.32216799999844,
          "velocity": 0.7874015748031497,
          "duration": 0.2510460000000023
        },
        {
          "name": "D#6",
          "midi": 87,
          "time": 77.32216799999844,
          "velocity": 0.7874015748031497,
          "duration": 0.2510460000000023
        },
        {
          "name": "F#5",
          "midi": 78,
          "time": 77.57321399999844,
          "velocity": 0.7874015748031497,
          "duration": 0.2510460000000023
        },
        {
          "name": "F#6",
          "midi": 90,
          "time": 77.57321399999844,
          "velocity": 0.7874015748031497,
          "duration": 0.2510460000000023
        },
        {
          "name": "F5",
          "midi": 77,
          "time": 77.82425999999845,
          "velocity": 0.7874015748031497,
          "duration": 0.2510460000000023
        },
        {
          "name": "F6",
          "midi": 89,
          "time": 77.82425999999845,
          "velocity": 0.7874015748031497,
          "duration": 0.2510460000000023
        },
        {
          "name": "D#5",
          "midi": 75,
          "time": 78.07530599999845,
          "velocity": 0.7874015748031497,
          "duration": 0.2510460000000023
        },
        {
          "name": "D#6",
          "midi": 87,
          "time": 78.07530599999845,
          "velocity": 0.7874015748031497,
          "duration": 0.2510460000000023
        },
        {
          "name": "F5",
          "midi": 77,
          "time": 78.32635199999845,
          "velocity": 0.7874015748031497,
          "duration": 0.5020920000000046
        },
        {
          "name": "F6",
          "midi": 89,
          "time": 78.32635199999845,
          "velocity": 0.7874015748031497,
          "duration": 0.5020920000000046
        },
        {
          "name": "F#5",
          "midi": 78,
          "time": 78.82844399999846,
          "velocity": 0.7874015748031497,
          "duration": 0.12552300000000116
        },
        {
          "name": "F#6",
          "midi": 90,
          "time": 78.82844399999846,
          "velocity": 0.7874015748031497,
          "duration": 0.12552300000000116
        },
        {
          "name": "F5",
          "midi": 77,
          "time": 79.07948999999846,
          "velocity": 0.7874015748031497,
          "duration": 0.12552300000000116
        },
        {
          "name": "F6",
          "midi": 89,
          "time": 79.07948999999846,
          "velocity": 0.7874015748031497,
          "duration": 0.12552300000000116
        },
        {
          "name": "F#5",
          "midi": 78,
          "time": 79.20501299999846,
          "velocity": 0.7874015748031497,
          "duration": 0.12552300000000116
        },
        {
          "name": "F#6",
          "midi": 90,
          "time": 79.20501299999846,
          "velocity": 0.7874015748031497,
          "duration": 0.12552300000000116
        },
        {
          "name": "D#5",
          "midi": 75,
          "time": 79.33053599999846,
          "velocity": 0.7874015748031497,
          "duration": 0.2510460000000023
        },
        {
          "name": "D#6",
          "midi": 87,
          "time": 79.33053599999846,
          "velocity": 0.7874015748031497,
          "duration": 0.2510460000000023
        },
        {
          "name": "F5",
          "midi": 77,
          "time": 79.58158199999846,
          "velocity": 0.7874015748031497,
          "duration": 0.2510460000000023
        },
        {
          "name": "F6",
          "midi": 89,
          "time": 79.58158199999846,
          "velocity": 0.7874015748031497,
          "duration": 0.2510460000000023
        },
        {
          "name": "C#5",
          "midi": 73,
          "time": 79.83262799999846,
          "velocity": 0.7874015748031497,
          "duration": 0.5020920000000046
        },
        {
          "name": "C#6",
          "midi": 85,
          "time": 79.83262799999846,
          "velocity": 0.7874015748031497,
          "duration": 0.5020920000000046
        },
        {
          "name": "D#5",
          "midi": 75,
          "time": 80.33471999999847,
          "velocity": 0.7874015748031497,
          "duration": 0.2510460000000023
        },
        {
          "name": "D#6",
          "midi": 87,
          "time": 80.33471999999847,
          "velocity": 0.7874015748031497,
          "duration": 0.2510460000000023
        },
        {
          "name": "C#5",
          "midi": 73,
          "time": 80.58576599999847,
          "velocity": 0.7874015748031497,
          "duration": 0.12552300000000116
        },
        {
          "name": "C#6",
          "midi": 85,
          "time": 80.58576599999847,
          "velocity": 0.7874015748031497,
          "duration": 0.12552300000000116
        },
        {
          "name": "D#6",
          "midi": 87,
          "time": 80.71128899999847,
          "velocity": 0.7874015748031497,
          "duration": 0.12552300000000116
        },
        {
          "name": "D#5",
          "midi": 75,
          "time": 80.71128899999847,
          "velocity": 0.7874015748031497,
          "duration": 0.12552300000000116
        },
        {
          "name": "A#5",
          "midi": 82,
          "time": 80.83681199999847,
          "velocity": 0.7874015748031497,
          "duration": 0.2510460000000023
        },
        {
          "name": "A#4",
          "midi": 70,
          "time": 80.83681199999847,
          "velocity": 0.7874015748031497,
          "duration": 0.2510460000000023
        },
        {
          "name": "G#5",
          "midi": 80,
          "time": 81.08785799999848,
          "velocity": 0.7874015748031497,
          "duration": 0.2510460000000023
        },
        {
          "name": "G#4",
          "midi": 68,
          "time": 81.08785799999848,
          "velocity": 0.7874015748031497,
          "duration": 0.2510460000000023
        },
        {
          "name": "D#5",
          "midi": 75,
          "time": 85.85773199999848,
          "velocity": 0.7874015748031497,
          "duration": 0.2510460000000023
        },
        {
          "name": "D#4",
          "midi": 63,
          "time": 85.85773199999848,
          "velocity": 0.7874015748031497,
          "duration": 0.2510460000000023
        },
        {
          "name": "C5",
          "midi": 72,
          "time": 86.10877799999848,
          "velocity": 0.7874015748031497,
          "duration": 0.2510460000000023
        },
        {
          "name": "C6",
          "midi": 84,
          "time": 86.10877799999848,
          "velocity": 0.7874015748031497,
          "duration": 0.2510460000000023
        },
        {
          "name": "A#4",
          "midi": 70,
          "time": 86.35982399999848,
          "velocity": 0.7874015748031497,
          "duration": 0.2510460000000023
        },
        {
          "name": "A#5",
          "midi": 82,
          "time": 86.35982399999848,
          "velocity": 0.7874015748031497,
          "duration": 0.2510460000000023
        },
        {
          "name": "G#4",
          "midi": 68,
          "time": 86.61086999999849,
          "velocity": 0.7874015748031497,
          "duration": 0.12552300000000116
        },
        {
          "name": "G#4",
          "midi": 68,
          "time": 86.61086999999849,
          "velocity": 0.7874015748031497,
          "duration": 0.12552300000000116
        },
        {
          "name": "G#5",
          "midi": 80,
          "time": 86.61086999999849,
          "velocity": 0.7874015748031497,
          "duration": 0.12552300000000116
        },
        {
          "name": "G#5",
          "midi": 80,
          "time": 86.61086999999849,
          "velocity": 0.7874015748031497,
          "duration": 0.12552300000000116
        },
        {
          "name": "F#5",
          "midi": 78,
          "time": 86.73639299999849,
          "velocity": 0.7874015748031497,
          "duration": 0.12552300000000116
        },
        {
          "name": "F#4",
          "midi": 66,
          "time": 86.73639299999849,
          "velocity": 0.7874015748031497,
          "duration": 0.12552300000000116
        },
        {
          "name": "F4",
          "midi": 65,
          "time": 86.86191599999849,
          "velocity": 0.7874015748031497,
          "duration": 0.12552300000000116
        },
        {
          "name": "F5",
          "midi": 77,
          "time": 86.86191599999849,
          "velocity": 0.7874015748031497,
          "duration": 0.12552300000000116
        },
        {
          "name": "G#4",
          "midi": 68,
          "time": 87.11296199999849,
          "velocity": 0.7874015748031497,
          "duration": 0.12552300000000116
        },
        {
          "name": "G#5",
          "midi": 80,
          "time": 87.11296199999849,
          "velocity": 0.7874015748031497,
          "duration": 0.12552300000000116
        },
        {
          "name": "A#4",
          "midi": 70,
          "time": 87.36400799999849,
          "velocity": 0.7874015748031497,
          "duration": 1.004183999999995
        },
        {
          "name": "A#5",
          "midi": 82,
          "time": 87.36400799999849,
          "velocity": 0.7874015748031497,
          "duration": 1.004183999999995
        },
        {
          "name": "F4",
          "midi": 65,
          "time": 88.36819199999849,
          "velocity": 0.7874015748031497,
          "duration": 0.12552300000000116
        },
        {
          "name": "F5",
          "midi": 77,
          "time": 88.36819199999849,
          "velocity": 0.7874015748031497,
          "duration": 0.12552300000000116
        },
        {
          "name": "G#5",
          "midi": 80,
          "time": 88.61923799999849,
          "velocity": 0.7874015748031497,
          "duration": 0.12552300000000116
        },
        {
          "name": "G#4",
          "midi": 68,
          "time": 88.61923799999849,
          "velocity": 0.7874015748031497,
          "duration": 0.12552300000000116
        },
        {
          "name": "A#5",
          "midi": 82,
          "time": 88.87028399999849,
          "velocity": 0.7874015748031497,
          "duration": 0.5020920000000046
        },
        {
          "name": "A#4",
          "midi": 70,
          "time": 88.87028399999849,
          "velocity": 0.7874015748031497,
          "duration": 0.5020920000000046
        },
        {
          "name": "C#5",
          "midi": 73,
          "time": 89.3723759999985,
          "velocity": 0.7874015748031497,
          "duration": 0.12552300000000116
        },
        {
          "name": "C#6",
          "midi": 85,
          "time": 89.3723759999985,
          "velocity": 0.7874015748031497,
          "duration": 0.12552300000000116
        },
        {
          "name": "D#6",
          "midi": 87,
          "time": 89.6234219999985,
          "velocity": 0.7874015748031497,
          "duration": 0.12552300000000116
        },
        {
          "name": "D#5",
          "midi": 75,
          "time": 89.6234219999985,
          "velocity": 0.7874015748031497,
          "duration": 0.12552300000000116
        },
        {
          "name": "C#6",
          "midi": 85,
          "time": 89.7489449999985,
          "velocity": 0.7874015748031497,
          "duration": 0.12552300000000116
        },
        {
          "name": "C#5",
          "midi": 73,
          "time": 89.7489449999985,
          "velocity": 0.7874015748031497,
          "duration": 0.12552300000000116
        },
        {
          "name": "C6",
          "midi": 84,
          "time": 89.8744679999985,
          "velocity": 0.7874015748031497,
          "duration": 0.12552300000000116
        },
        {
          "name": "C5",
          "midi": 72,
          "time": 89.8744679999985,
          "velocity": 0.7874015748031497,
          "duration": 0.12552300000000116
        },
        {
          "name": "C#6",
          "midi": 85,
          "time": 90.1255139999985,
          "velocity": 0.7874015748031497,
          "duration": 0.12552300000000116
        },
        {
          "name": "C#5",
          "midi": 73,
          "time": 90.1255139999985,
          "velocity": 0.7874015748031497,
          "duration": 0.12552300000000116
        },
        {
          "name": "A#4",
          "midi": 70,
          "time": 90.3765599999985,
          "velocity": 0.7874015748031497,
          "duration": 1.5062759999999997
        },
        {
          "name": "A#5",
          "midi": 82,
          "time": 90.3765599999985,
          "velocity": 0.7874015748031497,
          "duration": 1.5062759999999997
        },
        {
          "name": "A#5",
          "midi": 82,
          "time": 92.63597399999851,
          "velocity": 0.7874015748031497,
          "duration": 0.2510460000000023
        },
        {
          "name": "A#4",
          "midi": 70,
          "time": 92.63597399999851,
          "velocity": 0.7874015748031497,
          "duration": 0.2510460000000023
        },
        {
          "name": "C#5",
          "midi": 73,
          "time": 92.88701999999851,
          "velocity": 0.7874015748031497,
          "duration": 0.2510460000000023
        },
        {
          "name": "C#6",
          "midi": 85,
          "time": 92.88701999999851,
          "velocity": 0.7874015748031497,
          "duration": 0.2510460000000023
        },
        {
          "name": "D#6",
          "midi": 87,
          "time": 93.13806599999852,
          "velocity": 0.7874015748031497,
          "duration": 0.2510460000000023
        },
        {
          "name": "D#5",
          "midi": 75,
          "time": 93.13806599999852,
          "velocity": 0.7874015748031497,
          "duration": 0.2510460000000023
        },
        {
          "name": "F6",
          "midi": 89,
          "time": 93.38911199999852,
          "velocity": 0.7874015748031497,
          "duration": 0.753138000000007
        },
        {
          "name": "F5",
          "midi": 77,
          "time": 93.38911199999852,
          "velocity": 0.7874015748031497,
          "duration": 0.753138000000007
        },
        {
          "name": "C#6",
          "midi": 85,
          "time": 94.39329599999853,
          "velocity": 0.7874015748031497,
          "duration": 0.2510460000000023
        },
        {
          "name": "C#5",
          "midi": 73,
          "time": 94.39329599999853,
          "velocity": 0.7874015748031497,
          "duration": 0.2510460000000023
        },
        {
          "name": "D#6",
          "midi": 87,
          "time": 94.64434199999853,
          "velocity": 0.7874015748031497,
          "duration": 0.2510460000000023
        },
        {
          "name": "D#5",
          "midi": 75,
          "time": 94.64434199999853,
          "velocity": 0.7874015748031497,
          "duration": 0.2510460000000023
        },
        {
          "name": "F6",
          "midi": 89,
          "time": 94.89538799999853,
          "velocity": 0.7874015748031497,
          "duration": 0.5020920000000046
        },
        {
          "name": "F5",
          "midi": 77,
          "time": 94.89538799999853,
          "velocity": 0.7874015748031497,
          "duration": 0.5020920000000046
        },
        {
          "name": "D#5",
          "midi": 75,
          "time": 95.39747999999854,
          "velocity": 0.7874015748031497,
          "duration": 0.2510460000000023
        },
        {
          "name": "D#6",
          "midi": 87,
          "time": 95.39747999999854,
          "velocity": 0.7874015748031497,
          "duration": 0.2510460000000023
        },
        {
          "name": "C#6",
          "midi": 85,
          "time": 95.64852599999854,
          "velocity": 0.7874015748031497,
          "duration": 0.12552300000000116
        },
        {
          "name": "C#5",
          "midi": 73,
          "time": 95.64852599999854,
          "velocity": 0.7874015748031497,
          "duration": 0.12552300000000116
        },
        {
          "name": "D#6",
          "midi": 87,
          "time": 95.77404899999854,
          "velocity": 0.7874015748031497,
          "duration": 0.12552300000000116
        },
        {
          "name": "D#5",
          "midi": 75,
          "time": 95.77404899999854,
          "velocity": 0.7874015748031497,
          "duration": 0.12552300000000116
        },
        {
          "name": "C6",
          "midi": 84,
          "time": 95.89957199999854,
          "velocity": 0.7874015748031497,
          "duration": 0.12552300000000116
        },
        {
          "name": "C5",
          "midi": 72,
          "time": 95.89957199999854,
          "velocity": 0.7874015748031497,
          "duration": 0.12552300000000116
        },
        {
          "name": "G#4",
          "midi": 68,
          "time": 96.15061799999854,
          "velocity": 0.7874015748031497,
          "duration": 0.2510460000000023
        },
        {
          "name": "G#5",
          "midi": 80,
          "time": 96.15061799999854,
          "velocity": 0.7874015748031497,
          "duration": 0.2510460000000023
        },
        {
          "name": "A#4",
          "midi": 70,
          "time": 96.40166399999855,
          "velocity": 0.7874015748031497,
          "duration": 1.004183999999995
        },
        {
          "name": "A#5",
          "midi": 82,
          "time": 96.40166399999855,
          "velocity": 0.7874015748031497,
          "duration": 1.004183999999995
        },
        {
          "name": "C#6",
          "midi": 85,
          "time": 100.41839999999854,
          "velocity": 0.7874015748031497,
          "duration": 0.2510460000000023
        },
        {
          "name": "C#5",
          "midi": 73,
          "time": 100.41839999999854,
          "velocity": 0.7874015748031497,
          "duration": 0.2510460000000023
        },
        {
          "name": "D#5",
          "midi": 75,
          "time": 100.66944599999854,
          "velocity": 0.7874015748031497,
          "duration": 0.2510460000000023
        },
        {
          "name": "D#6",
          "midi": 87,
          "time": 100.66944599999854,
          "velocity": 0.7874015748031497,
          "duration": 0.2510460000000023
        },
        {
          "name": "F5",
          "midi": 77,
          "time": 100.92049199999855,
          "velocity": 0.7874015748031497,
          "duration": 0.5020920000000046
        },
        {
          "name": "F6",
          "midi": 89,
          "time": 100.92049199999855,
          "velocity": 0.7874015748031497,
          "duration": 0.5020920000000046
        },
        {
          "name": "D#6",
          "midi": 87,
          "time": 101.42258399999855,
          "velocity": 0.7874015748031497,
          "duration": 0.2510460000000023
        },
        {
          "name": "D#5",
          "midi": 75,
          "time": 101.42258399999855,
          "velocity": 0.7874015748031497,
          "duration": 0.2510460000000023
        },
        {
          "name": "C#5",
          "midi": 73,
          "time": 101.67362999999855,
          "velocity": 0.7874015748031497,
          "duration": 0.12552300000000116
        },
        {
          "name": "C#6",
          "midi": 85,
          "time": 101.67362999999855,
          "velocity": 0.7874015748031497,
          "duration": 0.12552300000000116
        },
        {
          "name": "D#6",
          "midi": 87,
          "time": 101.79915299999855,
          "velocity": 0.7874015748031497,
          "duration": 0.12552300000000116
        },
        {
          "name": "D#5",
          "midi": 75,
          "time": 101.79915299999855,
          "velocity": 0.7874015748031497,
          "duration": 0.12552300000000116
        },
        {
          "name": "C6",
          "midi": 84,
          "time": 101.92467599999856,
          "velocity": 0.7874015748031497,
          "duration": 0.12552300000000116
        },
        {
          "name": "C5",
          "midi": 72,
          "time": 101.92467599999856,
          "velocity": 0.7874015748031497,
          "duration": 0.12552300000000116
        },
        {
          "name": "G#5",
          "midi": 80,
          "time": 102.17572199999856,
          "velocity": 0.7874015748031497,
          "duration": 0.2510460000000023
        },
        {
          "name": "G#4",
          "midi": 68,
          "time": 102.17572199999856,
          "velocity": 0.7874015748031497,
          "duration": 0.2510460000000023
        },
        {
          "name": "A#4",
          "midi": 70,
          "time": 102.42676799999856,
          "velocity": 0.7874015748031497,
          "duration": 1.004183999999995
        },
        {
          "name": "A#5",
          "midi": 82,
          "time": 102.42676799999856,
          "velocity": 0.7874015748031497,
          "duration": 1.004183999999995
        },
        {
          "name": "C#6",
          "midi": 85,
          "time": 103.43095199999856,
          "velocity": 0.7874015748031497,
          "duration": 0.2510460000000023
        },
        {
          "name": "C#5",
          "midi": 73,
          "time": 103.43095199999856,
          "velocity": 0.7874015748031497,
          "duration": 0.2510460000000023
        },
        {
          "name": "D#6",
          "midi": 87,
          "time": 103.68199799999856,
          "velocity": 0.7874015748031497,
          "duration": 0.2510460000000023
        },
        {
          "name": "D#5",
          "midi": 75,
          "time": 103.68199799999856,
          "velocity": 0.7874015748031497,
          "duration": 0.2510460000000023
        },
        {
          "name": "F5",
          "midi": 77,
          "time": 103.93304399999856,
          "velocity": 0.7874015748031497,
          "duration": 0.5020920000000046
        },
        {
          "name": "F6",
          "midi": 89,
          "time": 103.93304399999856,
          "velocity": 0.7874015748031497,
          "duration": 0.5020920000000046
        },
        {
          "name": "D#5",
          "midi": 75,
          "time": 104.43513599999856,
          "velocity": 0.7874015748031497,
          "duration": 0.2510460000000023
        },
        {
          "name": "D#6",
          "midi": 87,
          "time": 104.43513599999856,
          "velocity": 0.7874015748031497,
          "duration": 0.2510460000000023
        },
        {
          "name": "C#5",
          "midi": 73,
          "time": 104.68618199999857,
          "velocity": 0.7874015748031497,
          "duration": 0.12552300000000116
        },
        {
          "name": "C#6",
          "midi": 85,
          "time": 104.68618199999857,
          "velocity": 0.7874015748031497,
          "duration": 0.12552300000000116
        },
        {
          "name": "D#6",
          "midi": 87,
          "time": 104.81170499999857,
          "velocity": 0.7874015748031497,
          "duration": 0.12552300000000116
        },
        {
          "name": "D#5",
          "midi": 75,
          "time": 104.81170499999857,
          "velocity": 0.7874015748031497,
          "duration": 0.12552300000000116
        },
        {
          "name": "C5",
          "midi": 72,
          "time": 104.93722799999857,
          "velocity": 0.7874015748031497,
          "duration": 0.12552300000000116
        },
        {
          "name": "C6",
          "midi": 84,
          "time": 104.93722799999857,
          "velocity": 0.7874015748031497,
          "duration": 0.12552300000000116
        },
        {
          "name": "G#4",
          "midi": 68,
          "time": 105.18827399999857,
          "velocity": 0.7874015748031497,
          "duration": 0.2510460000000023
        },
        {
          "name": "G#5",
          "midi": 80,
          "time": 105.18827399999857,
          "velocity": 0.7874015748031497,
          "duration": 0.2510460000000023
        },
        {
          "name": "A#4",
          "midi": 70,
          "time": 105.43931999999857,
          "velocity": 0.7874015748031497,
          "duration": 1.5062759999999997
        },
        {
          "name": "A#5",
          "midi": 82,
          "time": 105.43931999999857,
          "velocity": 0.7874015748031497,
          "duration": 1.5062759999999997
        }
      ],
      "controlChanges": {
        "6": [
          {
            "number": 6,
            "time": 0,
            "value": 0.09448818897637795
          },
          {
            "number": 6,
            "time": 0,
            "value": 0.09448818897637795
          },
          {
            "number": 6,
            "time": 0,
            "value": 0.09448818897637795
          },
          {
            "number": 6,
            "time": 108.45187199999857,
            "value": 0.09448818897637795
          },
          {
            "number": 6,
            "time": 108.46233224999857,
            "value": 0.09448818897637795
          },
          {
            "number": 6,
            "time": 108.46233224999857,
            "value": 0.09448818897637795
          }
        ],
        "7": [
          {
            "number": 7,
            "time": 0,
            "value": 0.7795275590551181
          },
          {
            "number": 7,
            "time": 0,
            "value": 0.7795275590551181
          },
          {
            "number": 7,
            "time": 0,
            "value": 0.7795275590551181
          },
          {
            "number": 7,
            "time": 0,
            "value": 0.7795275590551181
          },
          {
            "number": 7,
            "time": 0,
            "value": 0.7795275590551181
          },
          {
            "number": 7,
            "time": 0,
            "value": 0.7795275590551181
          },
          {
            "number": 7,
            "time": 45.19351012500004,
            "value": 0.7795275590551181
          },
          {
            "number": 7,
            "time": 45.198740250000036,
            "value": 0.7795275590551181
          },
          {
            "number": 7,
            "time": 45.20397037500003,
            "value": 0.7795275590551181
          },
          {
            "number": 7,
            "time": 45.20920050000003,
            "value": 0.7795275590551181
          },
          {
            "number": 7,
            "time": 45.21443062500003,
            "value": 0.7716535433070866
          },
          {
            "number": 7,
            "time": 45.219660750000024,
            "value": 0.7716535433070866
          },
          {
            "number": 7,
            "time": 45.22489087500002,
            "value": 0.7716535433070866
          },
          {
            "number": 7,
            "time": 45.23012100000002,
            "value": 0.7716535433070866
          },
          {
            "number": 7,
            "time": 45.235351125000015,
            "value": 0.7716535433070866
          },
          {
            "number": 7,
            "time": 45.24058125000001,
            "value": 0.7716535433070866
          },
          {
            "number": 7,
            "time": 45.24581137500001,
            "value": 0.7637795275590551
          },
          {
            "number": 7,
            "time": 45.25104150000001,
            "value": 0.7637795275590551
          },
          {
            "number": 7,
            "time": 45.256271625000004,
            "value": 0.7637795275590551
          },
          {
            "number": 7,
            "time": 45.26150175,
            "value": 0.7637795275590551
          },
          {
            "number": 7,
            "time": 45.266731875,
            "value": 0.7637795275590551
          },
          {
            "number": 7,
            "time": 45.271961999999995,
            "value": 0.7559055118110236
          },
          {
            "number": 7,
            "time": 45.27719212499999,
            "value": 0.7559055118110236
          },
          {
            "number": 7,
            "time": 45.28242224999999,
            "value": 0.7559055118110236
          },
          {
            "number": 7,
            "time": 45.287652374999986,
            "value": 0.7559055118110236
          },
          {
            "number": 7,
            "time": 45.29288249999998,
            "value": 0.7559055118110236
          },
          {
            "number": 7,
            "time": 45.29811262499998,
            "value": 0.7559055118110236
          },
          {
            "number": 7,
            "time": 45.30334274999998,
            "value": 0.7480314960629921
          },
          {
            "number": 7,
            "time": 45.308572874999975,
            "value": 0.7480314960629921
          },
          {
            "number": 7,
            "time": 45.31380299999997,
            "value": 0.7480314960629921
          },
          {
            "number": 7,
            "time": 45.31903312499997,
            "value": 0.7480314960629921
          },
          {
            "number": 7,
            "time": 45.324263249999966,
            "value": 0.7480314960629921
          },
          {
            "number": 7,
            "time": 45.32949337499996,
            "value": 0.7480314960629921
          },
          {
            "number": 7,
            "time": 45.33472349999996,
            "value": 0.7401574803149606
          },
          {
            "number": 7,
            "time": 45.33995362499996,
            "value": 0.7401574803149606
          },
          {
            "number": 7,
            "time": 45.345183749999954,
            "value": 0.7401574803149606
          },
          {
            "number": 7,
            "time": 45.35041387499995,
            "value": 0.7401574803149606
          },
          {
            "number": 7,
            "time": 45.35564399999995,
            "value": 0.7401574803149606
          },
          {
            "number": 7,
            "time": 45.360874124999945,
            "value": 0.7401574803149606
          },
          {
            "number": 7,
            "time": 45.36610424999994,
            "value": 0.7322834645669292
          },
          {
            "number": 7,
            "time": 45.37133437499994,
            "value": 0.7322834645669292
          },
          {
            "number": 7,
            "time": 45.37656449999994,
            "value": 0.7322834645669292
          },
          {
            "number": 7,
            "time": 45.381794624999934,
            "value": 0.7322834645669292
          },
          {
            "number": 7,
            "time": 45.38702474999993,
            "value": 0.7322834645669292
          },
          {
            "number": 7,
            "time": 45.39225487499993,
            "value": 0.7322834645669292
          },
          {
            "number": 7,
            "time": 45.397484999999925,
            "value": 0.7244094488188977
          },
          {
            "number": 7,
            "time": 45.40271512499992,
            "value": 0.7244094488188977
          },
          {
            "number": 7,
            "time": 45.40794524999992,
            "value": 0.7244094488188977
          },
          {
            "number": 7,
            "time": 45.413175374999916,
            "value": 0.7244094488188977
          },
          {
            "number": 7,
            "time": 45.41840549999991,
            "value": 0.7244094488188977
          },
          {
            "number": 7,
            "time": 45.42363562499991,
            "value": 0.7244094488188977
          },
          {
            "number": 7,
            "time": 45.42886574999991,
            "value": 0.7165354330708661
          },
          {
            "number": 7,
            "time": 45.434095874999905,
            "value": 0.7165354330708661
          },
          {
            "number": 7,
            "time": 45.4393259999999,
            "value": 0.7165354330708661
          },
          {
            "number": 7,
            "time": 45.4445561249999,
            "value": 0.7165354330708661
          },
          {
            "number": 7,
            "time": 45.449786249999896,
            "value": 0.7165354330708661
          },
          {
            "number": 7,
            "time": 45.45501637499989,
            "value": 0.7086614173228346
          },
          {
            "number": 7,
            "time": 45.46024649999989,
            "value": 0.7086614173228346
          },
          {
            "number": 7,
            "time": 45.46547662499989,
            "value": 0.7086614173228346
          },
          {
            "number": 7,
            "time": 45.470706749999884,
            "value": 0.7086614173228346
          },
          {
            "number": 7,
            "time": 45.47593687499988,
            "value": 0.7086614173228346
          },
          {
            "number": 7,
            "time": 45.48116699999988,
            "value": 0.7086614173228346
          },
          {
            "number": 7,
            "time": 45.486397124999876,
            "value": 0.7007874015748031
          },
          {
            "number": 7,
            "time": 45.49162724999987,
            "value": 0.7007874015748031
          },
          {
            "number": 7,
            "time": 45.49685737499987,
            "value": 0.7007874015748031
          },
          {
            "number": 7,
            "time": 45.50208749999987,
            "value": 0.7007874015748031
          },
          {
            "number": 7,
            "time": 45.507317624999864,
            "value": 0.7007874015748031
          },
          {
            "number": 7,
            "time": 45.51254774999986,
            "value": 0.7007874015748031
          },
          {
            "number": 7,
            "time": 45.51777787499986,
            "value": 0.6929133858267716
          },
          {
            "number": 7,
            "time": 45.523007999999855,
            "value": 0.6929133858267716
          },
          {
            "number": 7,
            "time": 45.52823812499985,
            "value": 0.6929133858267716
          },
          {
            "number": 7,
            "time": 45.53346824999985,
            "value": 0.6929133858267716
          },
          {
            "number": 7,
            "time": 45.538698374999846,
            "value": 0.6929133858267716
          },
          {
            "number": 7,
            "time": 45.54392849999984,
            "value": 0.6929133858267716
          },
          {
            "number": 7,
            "time": 45.54915862499984,
            "value": 0.6850393700787402
          },
          {
            "number": 7,
            "time": 45.55438874999984,
            "value": 0.6850393700787402
          },
          {
            "number": 7,
            "time": 45.559618874999835,
            "value": 0.6850393700787402
          },
          {
            "number": 7,
            "time": 45.56484899999983,
            "value": 0.6850393700787402
          },
          {
            "number": 7,
            "time": 45.57007912499983,
            "value": 0.6850393700787402
          },
          {
            "number": 7,
            "time": 45.575309249999826,
            "value": 0.6850393700787402
          },
          {
            "number": 7,
            "time": 45.58053937499982,
            "value": 0.6771653543307087
          },
          {
            "number": 7,
            "time": 45.58576949999982,
            "value": 0.6771653543307087
          },
          {
            "number": 7,
            "time": 45.59099962499982,
            "value": 0.6771653543307087
          },
          {
            "number": 7,
            "time": 45.596229749999814,
            "value": 0.6771653543307087
          },
          {
            "number": 7,
            "time": 45.60145987499981,
            "value": 0.6771653543307087
          },
          {
            "number": 7,
            "time": 45.60668999999981,
            "value": 0.6692913385826772
          },
          {
            "number": 7,
            "time": 45.611920124999806,
            "value": 0.6692913385826772
          },
          {
            "number": 7,
            "time": 45.6171502499998,
            "value": 0.6692913385826772
          },
          {
            "number": 7,
            "time": 45.6223803749998,
            "value": 0.6692913385826772
          },
          {
            "number": 7,
            "time": 45.6276104999998,
            "value": 0.6692913385826772
          },
          {
            "number": 7,
            "time": 45.632840624999794,
            "value": 0.6692913385826772
          },
          {
            "number": 7,
            "time": 45.63807074999979,
            "value": 0.6614173228346457
          },
          {
            "number": 7,
            "time": 45.64330087499979,
            "value": 0.6614173228346457
          },
          {
            "number": 7,
            "time": 45.648530999999785,
            "value": 0.6614173228346457
          },
          {
            "number": 7,
            "time": 45.65376112499978,
            "value": 0.6614173228346457
          },
          {
            "number": 7,
            "time": 45.65899124999978,
            "value": 0.6614173228346457
          },
          {
            "number": 7,
            "time": 45.66422137499978,
            "value": 0.6614173228346457
          },
          {
            "number": 7,
            "time": 45.669451499999774,
            "value": 0.6535433070866141
          },
          {
            "number": 7,
            "time": 45.67468162499977,
            "value": 0.6535433070866141
          },
          {
            "number": 7,
            "time": 45.67991174999977,
            "value": 0.6535433070866141
          },
          {
            "number": 7,
            "time": 45.685141874999765,
            "value": 0.6535433070866141
          },
          {
            "number": 7,
            "time": 45.69037199999976,
            "value": 0.6535433070866141
          },
          {
            "number": 7,
            "time": 45.69560212499976,
            "value": 0.6535433070866141
          },
          {
            "number": 7,
            "time": 45.700832249999756,
            "value": 0.6456692913385826
          },
          {
            "number": 7,
            "time": 45.70606237499975,
            "value": 0.6456692913385826
          },
          {
            "number": 7,
            "time": 45.71129249999975,
            "value": 0.6456692913385826
          },
          {
            "number": 7,
            "time": 45.71652262499975,
            "value": 0.6456692913385826
          },
          {
            "number": 7,
            "time": 45.721752749999744,
            "value": 0.6456692913385826
          },
          {
            "number": 7,
            "time": 45.72698287499974,
            "value": 0.6456692913385826
          },
          {
            "number": 7,
            "time": 45.73221299999974,
            "value": 0.6377952755905512
          },
          {
            "number": 7,
            "time": 45.737443124999736,
            "value": 0.6377952755905512
          },
          {
            "number": 7,
            "time": 45.74267324999973,
            "value": 0.6377952755905512
          },
          {
            "number": 7,
            "time": 45.74790337499973,
            "value": 0.6377952755905512
          },
          {
            "number": 7,
            "time": 45.75313349999973,
            "value": 0.6377952755905512
          },
          {
            "number": 7,
            "time": 45.758363624999724,
            "value": 0.6377952755905512
          },
          {
            "number": 7,
            "time": 45.76359374999972,
            "value": 0.6299212598425197
          },
          {
            "number": 7,
            "time": 45.76882387499972,
            "value": 0.6299212598425197
          },
          {
            "number": 7,
            "time": 45.774053999999715,
            "value": 0.6299212598425197
          },
          {
            "number": 7,
            "time": 45.77928412499971,
            "value": 0.6299212598425197
          },
          {
            "number": 7,
            "time": 45.78451424999971,
            "value": 0.6299212598425197
          },
          {
            "number": 7,
            "time": 45.78974437499971,
            "value": 0.6220472440944882
          },
          {
            "number": 7,
            "time": 45.794974499999704,
            "value": 0.6220472440944882
          },
          {
            "number": 7,
            "time": 45.8002046249997,
            "value": 0.6220472440944882
          },
          {
            "number": 7,
            "time": 45.8054347499997,
            "value": 0.6220472440944882
          },
          {
            "number": 7,
            "time": 45.810664874999695,
            "value": 0.6220472440944882
          },
          {
            "number": 7,
            "time": 45.81589499999969,
            "value": 0.6220472440944882
          },
          {
            "number": 7,
            "time": 45.82112512499969,
            "value": 0.6141732283464567
          },
          {
            "number": 7,
            "time": 45.826355249999686,
            "value": 0.6141732283464567
          },
          {
            "number": 7,
            "time": 45.83158537499968,
            "value": 0.6141732283464567
          },
          {
            "number": 7,
            "time": 45.83681549999968,
            "value": 0.6141732283464567
          },
          {
            "number": 7,
            "time": 45.84204562499968,
            "value": 0.6141732283464567
          },
          {
            "number": 7,
            "time": 45.847275749999675,
            "value": 0.6141732283464567
          },
          {
            "number": 7,
            "time": 45.85250587499967,
            "value": 0.6062992125984252
          },
          {
            "number": 7,
            "time": 45.85773599999967,
            "value": 0.6062992125984252
          },
          {
            "number": 7,
            "time": 45.862966124999666,
            "value": 0.6062992125984252
          },
          {
            "number": 7,
            "time": 45.86819624999966,
            "value": 0.6062992125984252
          },
          {
            "number": 7,
            "time": 45.87342637499966,
            "value": 0.6062992125984252
          },
          {
            "number": 7,
            "time": 45.87865649999966,
            "value": 0.6062992125984252
          },
          {
            "number": 7,
            "time": 45.883886624999654,
            "value": 0.5984251968503937
          },
          {
            "number": 7,
            "time": 45.88911674999965,
            "value": 0.5984251968503937
          },
          {
            "number": 7,
            "time": 45.89434687499965,
            "value": 0.5984251968503937
          },
          {
            "number": 7,
            "time": 45.899576999999645,
            "value": 0.5984251968503937
          },
          {
            "number": 7,
            "time": 45.90480712499964,
            "value": 0.5984251968503937
          },
          {
            "number": 7,
            "time": 45.91003724999964,
            "value": 0.5984251968503937
          },
          {
            "number": 7,
            "time": 45.91526737499964,
            "value": 0.5905511811023622
          },
          {
            "number": 7,
            "time": 45.920497499999634,
            "value": 0.5905511811023622
          },
          {
            "number": 7,
            "time": 45.92572762499963,
            "value": 0.5905511811023622
          },
          {
            "number": 7,
            "time": 45.93095774999963,
            "value": 0.5905511811023622
          },
          {
            "number": 7,
            "time": 45.936187874999625,
            "value": 0.5905511811023622
          },
          {
            "number": 7,
            "time": 45.94141799999962,
            "value": 0.5905511811023622
          },
          {
            "number": 7,
            "time": 45.94664812499962,
            "value": 0.5826771653543307
          },
          {
            "number": 7,
            "time": 45.951878249999616,
            "value": 0.5826771653543307
          },
          {
            "number": 7,
            "time": 45.95710837499961,
            "value": 0.5826771653543307
          },
          {
            "number": 7,
            "time": 45.96233849999961,
            "value": 0.5826771653543307
          },
          {
            "number": 7,
            "time": 45.96756862499961,
            "value": 0.5826771653543307
          },
          {
            "number": 7,
            "time": 45.972798749999605,
            "value": 0.5748031496062992
          },
          {
            "number": 7,
            "time": 45.9780288749996,
            "value": 0.5748031496062992
          },
          {
            "number": 7,
            "time": 45.9832589999996,
            "value": 0.5748031496062992
          },
          {
            "number": 7,
            "time": 45.988489124999596,
            "value": 0.5748031496062992
          },
          {
            "number": 7,
            "time": 45.99371924999959,
            "value": 0.5748031496062992
          },
          {
            "number": 7,
            "time": 45.99894937499959,
            "value": 0.5748031496062992
          },
          {
            "number": 7,
            "time": 46.00417949999959,
            "value": 0.5669291338582677
          },
          {
            "number": 7,
            "time": 46.009409624999584,
            "value": 0.5669291338582677
          },
          {
            "number": 7,
            "time": 46.01463974999958,
            "value": 0.5669291338582677
          },
          {
            "number": 7,
            "time": 46.01986987499958,
            "value": 0.5669291338582677
          },
          {
            "number": 7,
            "time": 46.025099999999576,
            "value": 0.5669291338582677
          },
          {
            "number": 7,
            "time": 46.03033012499957,
            "value": 0.5669291338582677
          },
          {
            "number": 7,
            "time": 46.03556024999957,
            "value": 0.5590551181102362
          },
          {
            "number": 7,
            "time": 46.04079037499957,
            "value": 0.5590551181102362
          },
          {
            "number": 7,
            "time": 46.046020499999564,
            "value": 0.5590551181102362
          },
          {
            "number": 7,
            "time": 46.05125062499956,
            "value": 0.5590551181102362
          },
          {
            "number": 7,
            "time": 46.05648074999956,
            "value": 0.5590551181102362
          },
          {
            "number": 7,
            "time": 46.061710874999555,
            "value": 0.5590551181102362
          },
          {
            "number": 7,
            "time": 46.06694099999955,
            "value": 0.5511811023622047
          },
          {
            "number": 7,
            "time": 46.07217112499955,
            "value": 0.5511811023622047
          },
          {
            "number": 7,
            "time": 46.07740124999955,
            "value": 0.5511811023622047
          },
          {
            "number": 7,
            "time": 46.08263137499954,
            "value": 0.5511811023622047
          },
          {
            "number": 7,
            "time": 46.08786149999954,
            "value": 0.5511811023622047
          },
          {
            "number": 7,
            "time": 46.09309162499954,
            "value": 0.5511811023622047
          },
          {
            "number": 7,
            "time": 46.098321749999535,
            "value": 0.5433070866141733
          },
          {
            "number": 7,
            "time": 46.10355187499953,
            "value": 0.5433070866141733
          },
          {
            "number": 7,
            "time": 46.10878199999953,
            "value": 0.5433070866141733
          },
          {
            "number": 7,
            "time": 46.114012124999526,
            "value": 0.5433070866141733
          },
          {
            "number": 7,
            "time": 46.11924224999952,
            "value": 0.5433070866141733
          },
          {
            "number": 7,
            "time": 46.12447237499952,
            "value": 0.5433070866141733
          },
          {
            "number": 7,
            "time": 46.12970249999952,
            "value": 0.5354330708661418
          },
          {
            "number": 7,
            "time": 46.134932624999514,
            "value": 0.5354330708661418
          },
          {
            "number": 7,
            "time": 46.14016274999951,
            "value": 0.5354330708661418
          },
          {
            "number": 7,
            "time": 46.14539287499951,
            "value": 0.5354330708661418
          },
          {
            "number": 7,
            "time": 46.150622999999506,
            "value": 0.5354330708661418
          },
          {
            "number": 7,
            "time": 46.1558531249995,
            "value": 0.5275590551181102
          },
          {
            "number": 7,
            "time": 46.1610832499995,
            "value": 0.5275590551181102
          },
          {
            "number": 7,
            "time": 46.1663133749995,
            "value": 0.5275590551181102
          },
          {
            "number": 7,
            "time": 46.171543499999494,
            "value": 0.5275590551181102
          },
          {
            "number": 7,
            "time": 46.17677362499949,
            "value": 0.5275590551181102
          },
          {
            "number": 7,
            "time": 46.18200374999949,
            "value": 0.5275590551181102
          },
          {
            "number": 7,
            "time": 46.187233874999485,
            "value": 0.5196850393700787
          },
          {
            "number": 7,
            "time": 46.19246399999948,
            "value": 0.5196850393700787
          },
          {
            "number": 7,
            "time": 46.19769412499948,
            "value": 0.5196850393700787
          },
          {
            "number": 7,
            "time": 46.20292424999948,
            "value": 0.5196850393700787
          },
          {
            "number": 7,
            "time": 46.208154374999474,
            "value": 0.5196850393700787
          },
          {
            "number": 7,
            "time": 46.21338449999947,
            "value": 0.5196850393700787
          },
          {
            "number": 7,
            "time": 46.21861462499947,
            "value": 0.5118110236220472
          },
          {
            "number": 7,
            "time": 46.223844749999465,
            "value": 0.5118110236220472
          },
          {
            "number": 7,
            "time": 46.22907487499946,
            "value": 0.5118110236220472
          },
          {
            "number": 7,
            "time": 46.23430499999946,
            "value": 0.5118110236220472
          },
          {
            "number": 7,
            "time": 46.239535124999456,
            "value": 0.5118110236220472
          },
          {
            "number": 7,
            "time": 46.24476524999945,
            "value": 0.5118110236220472
          },
          {
            "number": 7,
            "time": 46.24999537499945,
            "value": 0.5039370078740157
          },
          {
            "number": 7,
            "time": 46.25522549999945,
            "value": 0.5039370078740157
          },
          {
            "number": 7,
            "time": 46.260455624999445,
            "value": 0.5039370078740157
          },
          {
            "number": 7,
            "time": 46.26568574999944,
            "value": 0.5039370078740157
          },
          {
            "number": 7,
            "time": 46.27091587499944,
            "value": 0.5039370078740157
          },
          {
            "number": 7,
            "time": 46.276145999999436,
            "value": 0.5039370078740157
          },
          {
            "number": 7,
            "time": 46.28137612499943,
            "value": 0.49606299212598426
          },
          {
            "number": 7,
            "time": 46.28660624999943,
            "value": 0.49606299212598426
          },
          {
            "number": 7,
            "time": 46.29183637499943,
            "value": 0.49606299212598426
          },
          {
            "number": 7,
            "time": 46.297066499999424,
            "value": 0.49606299212598426
          },
          {
            "number": 7,
            "time": 46.30229662499942,
            "value": 0.49606299212598426
          },
          {
            "number": 7,
            "time": 46.30752674999942,
            "value": 0.49606299212598426
          },
          {
            "number": 7,
            "time": 46.312756874999415,
            "value": 0.4881889763779528
          },
          {
            "number": 7,
            "time": 46.31798699999941,
            "value": 0.4881889763779528
          },
          {
            "number": 7,
            "time": 46.32321712499941,
            "value": 0.4881889763779528
          },
          {
            "number": 7,
            "time": 46.32844724999941,
            "value": 0.4881889763779528
          },
          {
            "number": 7,
            "time": 46.333677374999404,
            "value": 0.4881889763779528
          },
          {
            "number": 7,
            "time": 46.3389074999994,
            "value": 0.48031496062992124
          },
          {
            "number": 7,
            "time": 46.3441376249994,
            "value": 0.48031496062992124
          },
          {
            "number": 7,
            "time": 46.349367749999395,
            "value": 0.48031496062992124
          },
          {
            "number": 7,
            "time": 46.35459787499939,
            "value": 0.48031496062992124
          },
          {
            "number": 7,
            "time": 46.35982799999939,
            "value": 0.48031496062992124
          },
          {
            "number": 7,
            "time": 46.365058124999386,
            "value": 0.48031496062992124
          },
          {
            "number": 7,
            "time": 46.37028824999938,
            "value": 0.47244094488188976
          },
          {
            "number": 7,
            "time": 46.37551837499938,
            "value": 0.47244094488188976
          },
          {
            "number": 7,
            "time": 46.38074849999938,
            "value": 0.47244094488188976
          },
          {
            "number": 7,
            "time": 46.385978624999375,
            "value": 0.47244094488188976
          },
          {
            "number": 7,
            "time": 46.39120874999937,
            "value": 0.47244094488188976
          },
          {
            "number": 7,
            "time": 46.39643887499937,
            "value": 0.47244094488188976
          },
          {
            "number": 7,
            "time": 46.401668999999366,
            "value": 0.4645669291338583
          },
          {
            "number": 7,
            "time": 46.40689912499936,
            "value": 0.4645669291338583
          },
          {
            "number": 7,
            "time": 46.41212924999936,
            "value": 0.4645669291338583
          },
          {
            "number": 7,
            "time": 46.41735937499936,
            "value": 0.4645669291338583
          },
          {
            "number": 7,
            "time": 46.422589499999354,
            "value": 0.4645669291338583
          },
          {
            "number": 7,
            "time": 46.42781962499935,
            "value": 0.4645669291338583
          },
          {
            "number": 7,
            "time": 46.43304974999935,
            "value": 0.4566929133858268
          },
          {
            "number": 7,
            "time": 46.438279874999346,
            "value": 0.4566929133858268
          },
          {
            "number": 7,
            "time": 46.44350999999934,
            "value": 0.4566929133858268
          },
          {
            "number": 7,
            "time": 46.44874012499934,
            "value": 0.4566929133858268
          },
          {
            "number": 7,
            "time": 46.45397024999934,
            "value": 0.4566929133858268
          },
          {
            "number": 7,
            "time": 46.459200374999334,
            "value": 0.4566929133858268
          },
          {
            "number": 7,
            "time": 46.46443049999933,
            "value": 0.44881889763779526
          },
          {
            "number": 7,
            "time": 46.46966062499933,
            "value": 0.44881889763779526
          },
          {
            "number": 7,
            "time": 46.474890749999325,
            "value": 0.44881889763779526
          },
          {
            "number": 7,
            "time": 46.48012087499932,
            "value": 0.44881889763779526
          },
          {
            "number": 7,
            "time": 46.48535099999932,
            "value": 0.44881889763779526
          },
          {
            "number": 7,
            "time": 46.490581124999316,
            "value": 0.4409448818897638
          },
          {
            "number": 7,
            "time": 46.49581124999931,
            "value": 0.4409448818897638
          },
          {
            "number": 7,
            "time": 46.50104137499931,
            "value": 0.4409448818897638
          },
          {
            "number": 7,
            "time": 46.50627149999931,
            "value": 0.4409448818897638
          },
          {
            "number": 7,
            "time": 46.511501624999305,
            "value": 0.4409448818897638
          },
          {
            "number": 7,
            "time": 46.5167317499993,
            "value": 0.4409448818897638
          },
          {
            "number": 7,
            "time": 46.5219618749993,
            "value": 0.4330708661417323
          },
          {
            "number": 7,
            "time": 46.527191999999296,
            "value": 0.4330708661417323
          },
          {
            "number": 7,
            "time": 46.53242212499929,
            "value": 0.4330708661417323
          },
          {
            "number": 7,
            "time": 46.53765224999929,
            "value": 0.4330708661417323
          },
          {
            "number": 7,
            "time": 46.54288237499929,
            "value": 0.4330708661417323
          },
          {
            "number": 7,
            "time": 46.548112499999284,
            "value": 0.4330708661417323
          },
          {
            "number": 7,
            "time": 46.55334262499928,
            "value": 0.4251968503937008
          },
          {
            "number": 7,
            "time": 46.55857274999928,
            "value": 0.4251968503937008
          },
          {
            "number": 7,
            "time": 46.563802874999276,
            "value": 0.4251968503937008
          },
          {
            "number": 7,
            "time": 46.56903299999927,
            "value": 0.4251968503937008
          },
          {
            "number": 7,
            "time": 46.57426312499927,
            "value": 0.4251968503937008
          },
          {
            "number": 7,
            "time": 46.57949324999927,
            "value": 0.4251968503937008
          },
          {
            "number": 7,
            "time": 46.584723374999264,
            "value": 0.41732283464566927
          },
          {
            "number": 7,
            "time": 46.58995349999926,
            "value": 0.41732283464566927
          },
          {
            "number": 7,
            "time": 46.59518362499926,
            "value": 0.41732283464566927
          },
          {
            "number": 7,
            "time": 46.600413749999255,
            "value": 0.41732283464566927
          },
          {
            "number": 7,
            "time": 46.60564387499925,
            "value": 0.41732283464566927
          },
          {
            "number": 7,
            "time": 46.61087399999925,
            "value": 0.41732283464566927
          },
          {
            "number": 7,
            "time": 46.61610412499925,
            "value": 0.4094488188976378
          },
          {
            "number": 7,
            "time": 46.621334249999244,
            "value": 0.4094488188976378
          },
          {
            "number": 7,
            "time": 46.62656437499924,
            "value": 0.4094488188976378
          },
          {
            "number": 7,
            "time": 46.63179449999924,
            "value": 0.4094488188976378
          },
          {
            "number": 7,
            "time": 46.637024624999235,
            "value": 0.4094488188976378
          },
          {
            "number": 7,
            "time": 46.64225474999923,
            "value": 0.4094488188976378
          },
          {
            "number": 7,
            "time": 46.64748487499923,
            "value": 0.4015748031496063
          },
          {
            "number": 7,
            "time": 46.652714999999226,
            "value": 0.4015748031496063
          },
          {
            "number": 7,
            "time": 46.65794512499922,
            "value": 0.4015748031496063
          },
          {
            "number": 7,
            "time": 46.66317524999922,
            "value": 0.4015748031496063
          },
          {
            "number": 7,
            "time": 46.66840537499922,
            "value": 0.4015748031496063
          },
          {
            "number": 7,
            "time": 46.673635499999214,
            "value": 0.3937007874015748
          },
          {
            "number": 7,
            "time": 46.67886562499921,
            "value": 0.3937007874015748
          },
          {
            "number": 7,
            "time": 46.68409574999921,
            "value": 0.3937007874015748
          },
          {
            "number": 7,
            "time": 46.689325874999206,
            "value": 0.3937007874015748
          },
          {
            "number": 7,
            "time": 46.6945559999992,
            "value": 0.3937007874015748
          },
          {
            "number": 7,
            "time": 46.6997861249992,
            "value": 0.3937007874015748
          },
          {
            "number": 7,
            "time": 46.7050162499992,
            "value": 0.3858267716535433
          },
          {
            "number": 7,
            "time": 46.710246374999194,
            "value": 0.3858267716535433
          },
          {
            "number": 7,
            "time": 46.71547649999919,
            "value": 0.3858267716535433
          },
          {
            "number": 7,
            "time": 46.72070662499919,
            "value": 0.3858267716535433
          },
          {
            "number": 7,
            "time": 46.725936749999185,
            "value": 0.3858267716535433
          },
          {
            "number": 7,
            "time": 46.73116687499918,
            "value": 0.3858267716535433
          },
          {
            "number": 7,
            "time": 46.73639699999918,
            "value": 0.3779527559055118
          },
          {
            "number": 7,
            "time": 46.74162712499918,
            "value": 0.3779527559055118
          },
          {
            "number": 7,
            "time": 46.746857249999174,
            "value": 0.3779527559055118
          },
          {
            "number": 7,
            "time": 46.75208737499917,
            "value": 0.3779527559055118
          },
          {
            "number": 7,
            "time": 46.75731749999917,
            "value": 0.3779527559055118
          },
          {
            "number": 7,
            "time": 46.762547624999165,
            "value": 0.3779527559055118
          },
          {
            "number": 7,
            "time": 46.76777774999916,
            "value": 0.3700787401574803
          },
          {
            "number": 7,
            "time": 46.77300787499916,
            "value": 0.3700787401574803
          },
          {
            "number": 7,
            "time": 46.778237999999156,
            "value": 0.3700787401574803
          },
          {
            "number": 7,
            "time": 46.78346812499915,
            "value": 0.3700787401574803
          },
          {
            "number": 7,
            "time": 46.78869824999915,
            "value": 0.3700787401574803
          },
          {
            "number": 7,
            "time": 46.79392837499915,
            "value": 0.3700787401574803
          },
          {
            "number": 7,
            "time": 46.799158499999145,
            "value": 0.36220472440944884
          },
          {
            "number": 7,
            "time": 46.80438862499914,
            "value": 0.36220472440944884
          },
          {
            "number": 7,
            "time": 46.80961874999914,
            "value": 0.36220472440944884
          },
          {
            "number": 7,
            "time": 46.814848874999136,
            "value": 0.36220472440944884
          },
          {
            "number": 7,
            "time": 46.82007899999913,
            "value": 0.36220472440944884
          },
          {
            "number": 7,
            "time": 46.82530912499913,
            "value": 0.36220472440944884
          },
          {
            "number": 7,
            "time": 46.83053924999913,
            "value": 0.3543307086614173
          },
          {
            "number": 7,
            "time": 46.835769374999124,
            "value": 0.3543307086614173
          },
          {
            "number": 7,
            "time": 46.84099949999912,
            "value": 0.3543307086614173
          },
          {
            "number": 7,
            "time": 46.84622962499912,
            "value": 0.3543307086614173
          },
          {
            "number": 7,
            "time": 46.851459749999115,
            "value": 0.3543307086614173
          },
          {
            "number": 7,
            "time": 46.85668987499911,
            "value": 0.3464566929133858
          },
          {
            "number": 7,
            "time": 46.86191999999911,
            "value": 0.3464566929133858
          },
          {
            "number": 7,
            "time": 46.86715012499911,
            "value": 0.3464566929133858
          },
          {
            "number": 7,
            "time": 46.872380249999104,
            "value": 0.3464566929133858
          },
          {
            "number": 7,
            "time": 46.8776103749991,
            "value": 0.3464566929133858
          },
          {
            "number": 7,
            "time": 46.8828404999991,
            "value": 0.3464566929133858
          },
          {
            "number": 7,
            "time": 46.888070624999095,
            "value": 0.33858267716535434
          },
          {
            "number": 7,
            "time": 46.89330074999909,
            "value": 0.33858267716535434
          },
          {
            "number": 7,
            "time": 46.89853087499909,
            "value": 0.33858267716535434
          },
          {
            "number": 7,
            "time": 46.903760999999086,
            "value": 0.33858267716535434
          },
          {
            "number": 7,
            "time": 46.90899112499908,
            "value": 0.33858267716535434
          },
          {
            "number": 7,
            "time": 46.91422124999908,
            "value": 0.33858267716535434
          },
          {
            "number": 7,
            "time": 46.91945137499908,
            "value": 0.33070866141732286
          },
          {
            "number": 7,
            "time": 46.924681499999075,
            "value": 0.33070866141732286
          },
          {
            "number": 7,
            "time": 46.92991162499907,
            "value": 0.33070866141732286
          },
          {
            "number": 7,
            "time": 46.93514174999907,
            "value": 0.33070866141732286
          },
          {
            "number": 7,
            "time": 46.940371874999066,
            "value": 0.33070866141732286
          },
          {
            "number": 7,
            "time": 46.94560199999906,
            "value": 0.33070866141732286
          },
          {
            "number": 7,
            "time": 46.95083212499906,
            "value": 0.3228346456692913
          },
          {
            "number": 7,
            "time": 46.95606224999906,
            "value": 0.3228346456692913
          },
          {
            "number": 7,
            "time": 46.961292374999054,
            "value": 0.3228346456692913
          },
          {
            "number": 7,
            "time": 46.96652249999905,
            "value": 0.3228346456692913
          },
          {
            "number": 7,
            "time": 46.97175262499905,
            "value": 0.3228346456692913
          },
          {
            "number": 7,
            "time": 46.976982749999046,
            "value": 0.3228346456692913
          },
          {
            "number": 7,
            "time": 46.98221287499904,
            "value": 0.31496062992125984
          },
          {
            "number": 7,
            "time": 46.98744299999904,
            "value": 0.31496062992125984
          },
          {
            "number": 7,
            "time": 46.99267312499904,
            "value": 0.31496062992125984
          },
          {
            "number": 7,
            "time": 46.997903249999034,
            "value": 0.31496062992125984
          },
          {
            "number": 7,
            "time": 47.00313337499903,
            "value": 0.31496062992125984
          },
          {
            "number": 7,
            "time": 47.00836349999903,
            "value": 0.31496062992125984
          },
          {
            "number": 7,
            "time": 47.013593624999025,
            "value": 0.30708661417322836
          },
          {
            "number": 7,
            "time": 47.01882374999902,
            "value": 0.30708661417322836
          },
          {
            "number": 7,
            "time": 47.02405387499902,
            "value": 0.30708661417322836
          },
          {
            "number": 7,
            "time": 47.029283999999016,
            "value": 0.30708661417322836
          },
          {
            "number": 7,
            "time": 47.03451412499901,
            "value": 0.30708661417322836
          },
          {
            "number": 7,
            "time": 47.03974424999901,
            "value": 0.2992125984251969
          },
          {
            "number": 7,
            "time": 47.04497437499901,
            "value": 0.2992125984251969
          },
          {
            "number": 7,
            "time": 47.050204499999005,
            "value": 0.2992125984251969
          },
          {
            "number": 7,
            "time": 47.055434624999,
            "value": 0.2992125984251969
          },
          {
            "number": 7,
            "time": 47.060664749999,
            "value": 0.2992125984251969
          },
          {
            "number": 7,
            "time": 47.065894874998996,
            "value": 0.2992125984251969
          },
          {
            "number": 7,
            "time": 47.07112499999899,
            "value": 0.29133858267716534
          },
          {
            "number": 7,
            "time": 47.07635512499899,
            "value": 0.29133858267716534
          },
          {
            "number": 7,
            "time": 47.08158524999899,
            "value": 0.29133858267716534
          },
          {
            "number": 7,
            "time": 47.086815374998984,
            "value": 0.29133858267716534
          },
          {
            "number": 7,
            "time": 47.09204549999898,
            "value": 0.29133858267716534
          },
          {
            "number": 7,
            "time": 47.09727562499898,
            "value": 0.29133858267716534
          },
          {
            "number": 7,
            "time": 47.102505749998976,
            "value": 0.28346456692913385
          },
          {
            "number": 7,
            "time": 47.10773587499897,
            "value": 0.28346456692913385
          },
          {
            "number": 7,
            "time": 47.11296599999897,
            "value": 0.28346456692913385
          },
          {
            "number": 7,
            "time": 47.11819612499897,
            "value": 0.28346456692913385
          },
          {
            "number": 7,
            "time": 47.123426249998964,
            "value": 0.28346456692913385
          },
          {
            "number": 7,
            "time": 47.12865637499896,
            "value": 0.28346456692913385
          },
          {
            "number": 7,
            "time": 47.13388649999896,
            "value": 0.2755905511811024
          },
          {
            "number": 7,
            "time": 47.139116624998955,
            "value": 0.2755905511811024
          },
          {
            "number": 7,
            "time": 47.14434674999895,
            "value": 0.2755905511811024
          },
          {
            "number": 7,
            "time": 47.14957687499895,
            "value": 0.2755905511811024
          },
          {
            "number": 7,
            "time": 47.15480699999895,
            "value": 0.2755905511811024
          },
          {
            "number": 7,
            "time": 47.160037124998944,
            "value": 0.2755905511811024
          },
          {
            "number": 7,
            "time": 47.16526724999894,
            "value": 0.2677165354330709
          },
          {
            "number": 7,
            "time": 47.17049737499894,
            "value": 0.2677165354330709
          },
          {
            "number": 7,
            "time": 47.175727499998935,
            "value": 0.2677165354330709
          },
          {
            "number": 7,
            "time": 47.18095762499893,
            "value": 0.2677165354330709
          },
          {
            "number": 7,
            "time": 47.18618774999893,
            "value": 0.2677165354330709
          },
          {
            "number": 7,
            "time": 47.191417874998926,
            "value": 0.25984251968503935
          },
          {
            "number": 7,
            "time": 47.19664799999892,
            "value": 0.25984251968503935
          },
          {
            "number": 7,
            "time": 47.20187812499892,
            "value": 0.25984251968503935
          },
          {
            "number": 7,
            "time": 47.20710824999892,
            "value": 0.25984251968503935
          },
          {
            "number": 7,
            "time": 47.212338374998915,
            "value": 0.25984251968503935
          },
          {
            "number": 7,
            "time": 47.21756849999891,
            "value": 0.25984251968503935
          },
          {
            "number": 7,
            "time": 47.22279862499891,
            "value": 0.25196850393700787
          },
          {
            "number": 7,
            "time": 47.228028749998906,
            "value": 0.25196850393700787
          },
          {
            "number": 7,
            "time": 47.2332588749989,
            "value": 0.25196850393700787
          },
          {
            "number": 7,
            "time": 47.2384889999989,
            "value": 0.25196850393700787
          },
          {
            "number": 7,
            "time": 47.2437191249989,
            "value": 0.25196850393700787
          },
          {
            "number": 7,
            "time": 47.248949249998894,
            "value": 0.25196850393700787
          },
          {
            "number": 7,
            "time": 47.25417937499889,
            "value": 0.2440944881889764
          },
          {
            "number": 7,
            "time": 47.25940949999889,
            "value": 0.2440944881889764
          },
          {
            "number": 7,
            "time": 47.264639624998885,
            "value": 0.2440944881889764
          },
          {
            "number": 7,
            "time": 47.26986974999888,
            "value": 0.2440944881889764
          },
          {
            "number": 7,
            "time": 47.27509987499888,
            "value": 0.2440944881889764
          },
          {
            "number": 7,
            "time": 47.28032999999888,
            "value": 0.2440944881889764
          },
          {
            "number": 7,
            "time": 47.285560124998874,
            "value": 0.23622047244094488
          },
          {
            "number": 7,
            "time": 47.29079024999887,
            "value": 0.23622047244094488
          },
          {
            "number": 7,
            "time": 47.29602037499887,
            "value": 0.23622047244094488
          },
          {
            "number": 7,
            "time": 47.301250499998865,
            "value": 0.23622047244094488
          },
          {
            "number": 7,
            "time": 47.30648062499886,
            "value": 0.23622047244094488
          },
          {
            "number": 7,
            "time": 47.31171074999886,
            "value": 0.23622047244094488
          },
          {
            "number": 7,
            "time": 47.316940874998856,
            "value": 0.2283464566929134
          },
          {
            "number": 7,
            "time": 47.32217099999885,
            "value": 0.2283464566929134
          },
          {
            "number": 7,
            "time": 47.32740112499885,
            "value": 0.2283464566929134
          },
          {
            "number": 7,
            "time": 47.33263124999885,
            "value": 0.2283464566929134
          },
          {
            "number": 7,
            "time": 47.337861374998845,
            "value": 0.2283464566929134
          },
          {
            "number": 7,
            "time": 47.34309149999884,
            "value": 0.2283464566929134
          },
          {
            "number": 7,
            "time": 47.34832162499884,
            "value": 0.2204724409448819
          },
          {
            "number": 7,
            "time": 47.353551749998836,
            "value": 0.2204724409448819
          },
          {
            "number": 7,
            "time": 47.35878187499883,
            "value": 0.2204724409448819
          },
          {
            "number": 7,
            "time": 47.36401199999883,
            "value": 0.2204724409448819
          },
          {
            "number": 7,
            "time": 47.36924212499883,
            "value": 0.2204724409448819
          },
          {
            "number": 7,
            "time": 47.374472249998824,
            "value": 0.2125984251968504
          },
          {
            "number": 7,
            "time": 47.37970237499882,
            "value": 0.2125984251968504
          },
          {
            "number": 7,
            "time": 47.38493249999882,
            "value": 0.2125984251968504
          },
          {
            "number": 7,
            "time": 47.390162624998815,
            "value": 0.2125984251968504
          },
          {
            "number": 7,
            "time": 47.39539274999881,
            "value": 0.2125984251968504
          },
          {
            "number": 7,
            "time": 47.40062287499881,
            "value": 0.2125984251968504
          },
          {
            "number": 7,
            "time": 47.40585299999881,
            "value": 0.2047244094488189
          },
          {
            "number": 7,
            "time": 47.411083124998804,
            "value": 0.2047244094488189
          },
          {
            "number": 7,
            "time": 47.4163132499988,
            "value": 0.2047244094488189
          },
          {
            "number": 7,
            "time": 47.4215433749988,
            "value": 0.2047244094488189
          },
          {
            "number": 7,
            "time": 47.426773499998795,
            "value": 0.2047244094488189
          },
          {
            "number": 7,
            "time": 47.43200362499879,
            "value": 0.2047244094488189
          },
          {
            "number": 7,
            "time": 47.43723374999879,
            "value": 0.1968503937007874
          },
          {
            "number": 7,
            "time": 47.442463874998786,
            "value": 0.1968503937007874
          },
          {
            "number": 7,
            "time": 47.44769399999878,
            "value": 0.1968503937007874
          },
          {
            "number": 7,
            "time": 47.45292412499878,
            "value": 0.1968503937007874
          },
          {
            "number": 7,
            "time": 47.45815424999878,
            "value": 0.1968503937007874
          },
          {
            "number": 7,
            "time": 47.463384374998775,
            "value": 0.1968503937007874
          },
          {
            "number": 7,
            "time": 47.46861449999877,
            "value": 0.1889763779527559
          },
          {
            "number": 7,
            "time": 47.47384462499877,
            "value": 0.1889763779527559
          },
          {
            "number": 7,
            "time": 47.479074749998766,
            "value": 0.1889763779527559
          },
          {
            "number": 7,
            "time": 47.48430487499876,
            "value": 0.1889763779527559
          },
          {
            "number": 7,
            "time": 47.48953499999876,
            "value": 0.1889763779527559
          },
          {
            "number": 7,
            "time": 47.49476512499876,
            "value": 0.1889763779527559
          },
          {
            "number": 7,
            "time": 47.499995249998754,
            "value": 0.18110236220472442
          },
          {
            "number": 7,
            "time": 47.50522537499875,
            "value": 0.18110236220472442
          },
          {
            "number": 7,
            "time": 47.51045549999875,
            "value": 0.18110236220472442
          },
          {
            "number": 7,
            "time": 47.515685624998746,
            "value": 0.18110236220472442
          },
          {
            "number": 7,
            "time": 47.52091574999874,
            "value": 0.18110236220472442
          },
          {
            "number": 7,
            "time": 47.52614587499874,
            "value": 0.18110236220472442
          },
          {
            "number": 7,
            "time": 47.53137599999874,
            "value": 0.1732283464566929
          },
          {
            "number": 7,
            "time": 47.536606124998734,
            "value": 0.1732283464566929
          },
          {
            "number": 7,
            "time": 47.54183624999873,
            "value": 0.1732283464566929
          },
          {
            "number": 7,
            "time": 47.54706637499873,
            "value": 0.1732283464566929
          },
          {
            "number": 7,
            "time": 47.552296499998725,
            "value": 0.1732283464566929
          },
          {
            "number": 7,
            "time": 47.55752662499872,
            "value": 0.16535433070866143
          },
          {
            "number": 7,
            "time": 47.56275674999872,
            "value": 0.16535433070866143
          },
          {
            "number": 7,
            "time": 47.56798687499872,
            "value": 0.16535433070866143
          },
          {
            "number": 7,
            "time": 47.573216999998714,
            "value": 0.16535433070866143
          },
          {
            "number": 7,
            "time": 47.57844712499871,
            "value": 0.16535433070866143
          },
          {
            "number": 7,
            "time": 47.58367724999871,
            "value": 0.16535433070866143
          },
          {
            "number": 7,
            "time": 47.588907374998705,
            "value": 0.15748031496062992
          },
          {
            "number": 7,
            "time": 47.5941374999987,
            "value": 0.15748031496062992
          },
          {
            "number": 7,
            "time": 47.5993676249987,
            "value": 0.15748031496062992
          },
          {
            "number": 7,
            "time": 47.604597749998696,
            "value": 0.15748031496062992
          },
          {
            "number": 7,
            "time": 47.60982787499869,
            "value": 0.15748031496062992
          },
          {
            "number": 7,
            "time": 47.61505799999869,
            "value": 0.15748031496062992
          },
          {
            "number": 7,
            "time": 47.62028812499869,
            "value": 0.14960629921259844
          },
          {
            "number": 7,
            "time": 47.625518249998684,
            "value": 0.14960629921259844
          },
          {
            "number": 7,
            "time": 47.63074837499868,
            "value": 0.14960629921259844
          },
          {
            "number": 7,
            "time": 47.63597849999868,
            "value": 0.14960629921259844
          },
          {
            "number": 7,
            "time": 47.641208624998676,
            "value": 0.14960629921259844
          },
          {
            "number": 7,
            "time": 47.64643874999867,
            "value": 0.14960629921259844
          },
          {
            "number": 7,
            "time": 47.65166887499867,
            "value": 0.14173228346456693
          },
          {
            "number": 7,
            "time": 47.65689899999867,
            "value": 0.14173228346456693
          },
          {
            "number": 7,
            "time": 47.662129124998664,
            "value": 0.14173228346456693
          },
          {
            "number": 7,
            "time": 47.66735924999866,
            "value": 0.14173228346456693
          },
          {
            "number": 7,
            "time": 47.67258937499866,
            "value": 0.14173228346456693
          },
          {
            "number": 7,
            "time": 47.677819499998655,
            "value": 0.14173228346456693
          },
          {
            "number": 7,
            "time": 47.68304962499865,
            "value": 0.13385826771653545
          },
          {
            "number": 7,
            "time": 47.68827974999865,
            "value": 0.13385826771653545
          },
          {
            "number": 7,
            "time": 47.69350987499865,
            "value": 0.13385826771653545
          },
          {
            "number": 7,
            "time": 47.698739999998644,
            "value": 0.13385826771653545
          },
          {
            "number": 7,
            "time": 47.70397012499864,
            "value": 0.13385826771653545
          },
          {
            "number": 7,
            "time": 47.70920024999864,
            "value": 0.13385826771653545
          },
          {
            "number": 7,
            "time": 47.714430374998635,
            "value": 0.12598425196850394
          },
          {
            "number": 7,
            "time": 47.71966049999863,
            "value": 0.12598425196850394
          },
          {
            "number": 7,
            "time": 47.72489062499863,
            "value": 0.12598425196850394
          },
          {
            "number": 7,
            "time": 47.730120749998626,
            "value": 0.12598425196850394
          },
          {
            "number": 7,
            "time": 47.73535087499862,
            "value": 0.12598425196850394
          },
          {
            "number": 7,
            "time": 47.74058099999862,
            "value": 0.11811023622047244
          },
          {
            "number": 7,
            "time": 47.74581112499862,
            "value": 0.11811023622047244
          },
          {
            "number": 7,
            "time": 47.751041249998615,
            "value": 0.11811023622047244
          },
          {
            "number": 7,
            "time": 47.75627137499861,
            "value": 0.11811023622047244
          },
          {
            "number": 7,
            "time": 47.76150149999861,
            "value": 0.11811023622047244
          },
          {
            "number": 7,
            "time": 47.766731624998606,
            "value": 0.11811023622047244
          },
          {
            "number": 7,
            "time": 47.7719617499986,
            "value": 0.11023622047244094
          },
          {
            "number": 7,
            "time": 47.7771918749986,
            "value": 0.11023622047244094
          },
          {
            "number": 7,
            "time": 47.7824219999986,
            "value": 0.11023622047244094
          },
          {
            "number": 7,
            "time": 47.787652124998594,
            "value": 0.11023622047244094
          },
          {
            "number": 7,
            "time": 47.79288224999859,
            "value": 0.11023622047244094
          },
          {
            "number": 7,
            "time": 47.79811237499859,
            "value": 0.11023622047244094
          },
          {
            "number": 7,
            "time": 47.803342499998585,
            "value": 0.10236220472440945
          },
          {
            "number": 7,
            "time": 47.80857262499858,
            "value": 0.10236220472440945
          },
          {
            "number": 7,
            "time": 47.81380274999858,
            "value": 0.10236220472440945
          },
          {
            "number": 7,
            "time": 47.81903287499858,
            "value": 0.10236220472440945
          },
          {
            "number": 7,
            "time": 47.824262999998574,
            "value": 0.10236220472440945
          },
          {
            "number": 7,
            "time": 47.82949312499857,
            "value": 0.10236220472440945
          },
          {
            "number": 7,
            "time": 47.83472324999857,
            "value": 0.09448818897637795
          },
          {
            "number": 7,
            "time": 47.839953374998565,
            "value": 0.09448818897637795
          },
          {
            "number": 7,
            "time": 47.84518349999856,
            "value": 0.09448818897637795
          },
          {
            "number": 7,
            "time": 47.85041362499856,
            "value": 0.09448818897637795
          },
          {
            "number": 7,
            "time": 47.855643749998556,
            "value": 0.09448818897637795
          },
          {
            "number": 7,
            "time": 47.86087387499855,
            "value": 0.09448818897637795
          },
          {
            "number": 7,
            "time": 47.86610399999855,
            "value": 0.08661417322834646
          },
          {
            "number": 7,
            "time": 47.87133412499855,
            "value": 0.08661417322834646
          },
          {
            "number": 7,
            "time": 47.876564249998545,
            "value": 0.08661417322834646
          },
          {
            "number": 7,
            "time": 47.88179437499854,
            "value": 0.08661417322834646
          },
          {
            "number": 7,
            "time": 47.88702449999854,
            "value": 0.08661417322834646
          },
          {
            "number": 7,
            "time": 47.892254624998536,
            "value": 0.07874015748031496
          },
          {
            "number": 7,
            "time": 47.89748474999853,
            "value": 0.07874015748031496
          },
          {
            "number": 7,
            "time": 47.90271487499853,
            "value": 0.07874015748031496
          },
          {
            "number": 7,
            "time": 47.90794499999853,
            "value": 0.07874015748031496
          },
          {
            "number": 7,
            "time": 47.913175124998524,
            "value": 0.07874015748031496
          },
          {
            "number": 7,
            "time": 47.91840524999852,
            "value": 0.07874015748031496
          },
          {
            "number": 7,
            "time": 47.92363537499852,
            "value": 0.07086614173228346
          },
          {
            "number": 7,
            "time": 47.928865499998516,
            "value": 0.07086614173228346
          },
          {
            "number": 7,
            "time": 47.93409562499851,
            "value": 0.07086614173228346
          },
          {
            "number": 7,
            "time": 47.93932574999851,
            "value": 0.07086614173228346
          },
          {
            "number": 7,
            "time": 47.94455587499851,
            "value": 0.07086614173228346
          },
          {
            "number": 7,
            "time": 47.949785999998504,
            "value": 0.07086614173228346
          },
          {
            "number": 7,
            "time": 47.9550161249985,
            "value": 0.06299212598425197
          },
          {
            "number": 7,
            "time": 47.9602462499985,
            "value": 0.06299212598425197
          },
          {
            "number": 7,
            "time": 47.965476374998495,
            "value": 0.06299212598425197
          },
          {
            "number": 7,
            "time": 47.97070649999849,
            "value": 0.06299212598425197
          },
          {
            "number": 7,
            "time": 47.97593662499849,
            "value": 0.06299212598425197
          },
          {
            "number": 7,
            "time": 47.981166749998486,
            "value": 0.06299212598425197
          },
          {
            "number": 7,
            "time": 47.98639687499848,
            "value": 0.05511811023622047
          },
          {
            "number": 7,
            "time": 47.99162699999848,
            "value": 0.05511811023622047
          },
          {
            "number": 7,
            "time": 47.99685712499848,
            "value": 0.05511811023622047
          },
          {
            "number": 7,
            "time": 48.002087249998475,
            "value": 0.05511811023622047
          },
          {
            "number": 7,
            "time": 48.00731737499847,
            "value": 0.05511811023622047
          },
          {
            "number": 7,
            "time": 48.01254749999847,
            "value": 0.05511811023622047
          },
          {
            "number": 7,
            "time": 48.017777624998466,
            "value": 0.047244094488188976
          },
          {
            "number": 7,
            "time": 48.02300774999846,
            "value": 0.047244094488188976
          },
          {
            "number": 7,
            "time": 48.02823787499846,
            "value": 0.047244094488188976
          },
          {
            "number": 7,
            "time": 48.03346799999846,
            "value": 0.047244094488188976
          },
          {
            "number": 7,
            "time": 48.038698124998454,
            "value": 0.047244094488188976
          },
          {
            "number": 7,
            "time": 48.04392824999845,
            "value": 0.047244094488188976
          },
          {
            "number": 7,
            "time": 48.04915837499845,
            "value": 0.03937007874015748
          },
          {
            "number": 7,
            "time": 48.054388499998446,
            "value": 0.03937007874015748
          },
          {
            "number": 7,
            "time": 48.05961862499844,
            "value": 0.03937007874015748
          },
          {
            "number": 7,
            "time": 48.06484874999844,
            "value": 0.03937007874015748
          },
          {
            "number": 7,
            "time": 48.07007887499844,
            "value": 0.03937007874015748
          },
          {
            "number": 7,
            "time": 48.075308999998434,
            "value": 0.031496062992125984
          },
          {
            "number": 7,
            "time": 48.08053912499843,
            "value": 0.031496062992125984
          },
          {
            "number": 7,
            "time": 48.08576924999843,
            "value": 0.031496062992125984
          },
          {
            "number": 7,
            "time": 48.090999374998425,
            "value": 0.031496062992125984
          },
          {
            "number": 7,
            "time": 48.09622949999842,
            "value": 0.031496062992125984
          },
          {
            "number": 7,
            "time": 48.10145962499842,
            "value": 0.031496062992125984
          },
          {
            "number": 7,
            "time": 48.10668974999842,
            "value": 0.023622047244094488
          },
          {
            "number": 7,
            "time": 48.111919874998414,
            "value": 0.023622047244094488
          },
          {
            "number": 7,
            "time": 48.11714999999841,
            "value": 0.023622047244094488
          },
          {
            "number": 7,
            "time": 48.12238012499841,
            "value": 0.023622047244094488
          },
          {
            "number": 7,
            "time": 48.127610249998405,
            "value": 0.023622047244094488
          },
          {
            "number": 7,
            "time": 48.1328403749984,
            "value": 0.023622047244094488
          },
          {
            "number": 7,
            "time": 48.1380704999984,
            "value": 0.015748031496062992
          },
          {
            "number": 7,
            "time": 48.143300624998396,
            "value": 0.015748031496062992
          },
          {
            "number": 7,
            "time": 48.14853074999839,
            "value": 0.015748031496062992
          },
          {
            "number": 7,
            "time": 48.15376087499839,
            "value": 0.015748031496062992
          },
          {
            "number": 7,
            "time": 48.15899099999839,
            "value": 0.015748031496062992
          },
          {
            "number": 7,
            "time": 48.164221124998384,
            "value": 0.015748031496062992
          },
          {
            "number": 7,
            "time": 48.16945124999838,
            "value": 0.007874015748031496
          },
          {
            "number": 7,
            "time": 48.17468137499838,
            "value": 0.007874015748031496
          },
          {
            "number": 7,
            "time": 48.179911499998376,
            "value": 0.007874015748031496
          },
          {
            "number": 7,
            "time": 48.18514162499837,
            "value": 0.007874015748031496
          },
          {
            "number": 7,
            "time": 48.19037174999837,
            "value": 0.007874015748031496
          },
          {
            "number": 7,
            "time": 48.19560187499837,
            "value": 0.007874015748031496
          },
          {
            "number": 7,
            "time": 48.200831999998364,
            "value": 0
          },
          {
            "number": 7,
            "time": 48.20606212499836,
            "value": 0
          },
          {
            "number": 7,
            "time": 48.21129224999836,
            "value": 0
          },
          {
            "number": 7,
            "time": 48.216522374998355,
            "value": 0
          },
          {
            "number": 7,
            "time": 48.22175249999835,
            "value": 0
          },
          {
            "number": 7,
            "time": 48.22698262499835,
            "value": 0
          },
          {
            "number": 7,
            "time": 60.23011949999835,
            "value": 0.7795275590551181
          },
          {
            "number": 7,
            "time": 108.45187199999857,
            "value": 0.7795275590551181
          },
          {
            "number": 7,
            "time": 108.46233224999857,
            "value": 0.7795275590551181
          },
          {
            "number": 7,
            "time": 108.46233224999857,
            "value": 0.7795275590551181
          }
        ],
        "10": [
          {
            "number": 10,
            "time": 0,
            "value": 0.5039370078740157
          },
          {
            "number": 10,
            "time": 0,
            "value": 0.5039370078740157
          },
          {
            "number": 10,
            "time": 0,
            "value": 0.5039370078740157
          },
          {
            "number": 10,
            "time": 0,
            "value": 0.5039370078740157
          },
          {
            "number": 10,
            "time": 108.45187199999857,
            "value": 0.5039370078740157
          },
          {
            "number": 10,
            "time": 108.46233224999857,
            "value": 0.5039370078740157
          },
          {
            "number": 10,
            "time": 108.46233224999857,
            "value": 0.5039370078740157
          }
        ],
        "100": [
          {
            "number": 100,
            "time": 0,
            "value": 0
          },
          {
            "number": 100,
            "time": 0,
            "value": 0
          },
          {
            "number": 100,
            "time": 0,
            "value": 0
          },
          {
            "number": 100,
            "time": 108.45187199999857,
            "value": 0
          },
          {
            "number": 100,
            "time": 108.46233224999857,
            "value": 0
          },
          {
            "number": 100,
            "time": 108.46233224999857,
            "value": 0
          }
        ],
        "101": [
          {
            "number": 101,
            "time": 0,
            "value": 0
          },
          {
            "number": 101,
            "time": 0,
            "value": 0
          },
          {
            "number": 101,
            "time": 0,
            "value": 0
          },
          {
            "number": 101,
            "time": 108.45187199999857,
            "value": 0
          },
          {
            "number": 101,
            "time": 108.46233224999857,
            "value": 0
          },
          {
            "number": 101,
            "time": 108.46233224999857,
            "value": 0
          }
        ]
      },
      "id": 11,
      "name": "MIDI out #3",
      "instrumentNumber": 48,
      "instrument": "string ensemble 1",
      "instrumentFamily": "ensemble",
      "channelNumber": 2,
      "isPercussion": false
    },
    {
      "startTime": 10.543932,
      "duration": 106.94559599999914,
      "length": 156,
      "notes": [
        {
          "name": "D#4",
          "midi": 63,
          "time": 10.543932,
          "velocity": 0.7874015748031497,
          "duration": 0.25104600000000055
        },
        {
          "name": "C5",
          "midi": 72,
          "time": 10.794978,
          "velocity": 0.7874015748031497,
          "duration": 0.25104600000000055
        },
        {
          "name": "A#4",
          "midi": 70,
          "time": 11.046024000000001,
          "velocity": 0.7874015748031497,
          "duration": 0.25104600000000055
        },
        {
          "name": "G#4",
          "midi": 68,
          "time": 11.297070000000001,
          "velocity": 0.7874015748031497,
          "duration": 0.12552299999999939
        },
        {
          "name": "F#4",
          "midi": 66,
          "time": 11.422593,
          "velocity": 0.7874015748031497,
          "duration": 0.12552299999999939
        },
        {
          "name": "F4",
          "midi": 65,
          "time": 11.548116,
          "velocity": 0.7874015748031497,
          "duration": 0.12552299999999939
        },
        {
          "name": "G#4",
          "midi": 68,
          "time": 11.799161999999999,
          "velocity": 0.7874015748031497,
          "duration": 0.12552299999999939
        },
        {
          "name": "A#4",
          "midi": 70,
          "time": 12.050207999999998,
          "velocity": 0.7874015748031497,
          "duration": 1.0041840000000004
        },
        {
          "name": "F4",
          "midi": 65,
          "time": 13.054391999999998,
          "velocity": 0.7874015748031497,
          "duration": 0.12552299999999939
        },
        {
          "name": "G#4",
          "midi": 68,
          "time": 13.305437999999997,
          "velocity": 0.7874015748031497,
          "duration": 0.12552299999999939
        },
        {
          "name": "A#4",
          "midi": 70,
          "time": 13.556483999999996,
          "velocity": 0.7874015748031497,
          "duration": 0.5020919999999993
        },
        {
          "name": "C#5",
          "midi": 73,
          "time": 14.058575999999995,
          "velocity": 0.7874015748031497,
          "duration": 0.12552299999999939
        },
        {
          "name": "D#5",
          "midi": 75,
          "time": 14.309621999999994,
          "velocity": 0.7874015748031497,
          "duration": 0.12552299999999939
        },
        {
          "name": "C#5",
          "midi": 73,
          "time": 14.435144999999993,
          "velocity": 0.7874015748031497,
          "duration": 0.12552299999999939
        },
        {
          "name": "C5",
          "midi": 72,
          "time": 14.560667999999993,
          "velocity": 0.7874015748031497,
          "duration": 0.12552299999999939
        },
        {
          "name": "C#5",
          "midi": 73,
          "time": 14.811713999999991,
          "velocity": 0.7874015748031497,
          "duration": 0.12552299999999939
        },
        {
          "name": "A#4",
          "midi": 70,
          "time": 15.06275999999999,
          "velocity": 0.7874015748031497,
          "duration": 2.008368000000001
        },
        {
          "name": "D#4",
          "midi": 63,
          "time": 28.61924399999999,
          "velocity": 0.7874015748031497,
          "duration": 0.25104599999999877
        },
        {
          "name": "C5",
          "midi": 72,
          "time": 28.87028999999999,
          "velocity": 0.7874015748031497,
          "duration": 0.25104599999999877
        },
        {
          "name": "A#4",
          "midi": 70,
          "time": 29.12133599999999,
          "velocity": 0.7874015748031497,
          "duration": 0.25104599999999877
        },
        {
          "name": "G#4",
          "midi": 68,
          "time": 29.372381999999988,
          "velocity": 0.7874015748031497,
          "duration": 0.12552300000000116
        },
        {
          "name": "F#4",
          "midi": 66,
          "time": 29.49790499999999,
          "velocity": 0.7874015748031497,
          "duration": 0.12552300000000116
        },
        {
          "name": "F4",
          "midi": 65,
          "time": 29.62342799999999,
          "velocity": 0.7874015748031497,
          "duration": 0.12552300000000116
        },
        {
          "name": "G#4",
          "midi": 68,
          "time": 29.874473999999992,
          "velocity": 0.7874015748031497,
          "duration": 0.12552300000000116
        },
        {
          "name": "A#4",
          "midi": 70,
          "time": 30.125519999999995,
          "velocity": 0.7874015748031497,
          "duration": 1.0041839999999986
        },
        {
          "name": "F4",
          "midi": 65,
          "time": 31.129703999999993,
          "velocity": 0.7874015748031497,
          "duration": 0.12552300000000116
        },
        {
          "name": "G#4",
          "midi": 68,
          "time": 31.380749999999995,
          "velocity": 0.7874015748031497,
          "duration": 0.12552300000000116
        },
        {
          "name": "A#4",
          "midi": 70,
          "time": 31.631795999999998,
          "velocity": 0.7874015748031497,
          "duration": 0.5020920000000011
        },
        {
          "name": "C#5",
          "midi": 73,
          "time": 32.133888,
          "velocity": 0.7874015748031497,
          "duration": 0.12552300000000116
        },
        {
          "name": "D#5",
          "midi": 75,
          "time": 32.384934,
          "velocity": 0.7874015748031497,
          "duration": 0.12552300000000116
        },
        {
          "name": "C#5",
          "midi": 73,
          "time": 32.510457,
          "velocity": 0.7874015748031497,
          "duration": 0.12552300000000116
        },
        {
          "name": "C5",
          "midi": 72,
          "time": 32.63598,
          "velocity": 0.7874015748031497,
          "duration": 0.12552300000000116
        },
        {
          "name": "C#5",
          "midi": 73,
          "time": 32.887026000000006,
          "velocity": 0.7874015748031497,
          "duration": 0.12552300000000116
        },
        {
          "name": "A#4",
          "midi": 70,
          "time": 33.13807200000001,
          "velocity": 0.7874015748031497,
          "duration": 1.5062759999999997
        },
        {
          "name": "A#4",
          "midi": 70,
          "time": 35.39748600000001,
          "velocity": 0.7874015748031497,
          "duration": 0.2510460000000023
        },
        {
          "name": "C#5",
          "midi": 73,
          "time": 35.64853200000001,
          "velocity": 0.7874015748031497,
          "duration": 0.2510460000000023
        },
        {
          "name": "D#5",
          "midi": 75,
          "time": 35.89957800000001,
          "velocity": 0.7874015748031497,
          "duration": 0.2510460000000023
        },
        {
          "name": "F5",
          "midi": 77,
          "time": 36.150624000000015,
          "velocity": 0.7874015748031497,
          "duration": 0.7531379999999999
        },
        {
          "name": "C#5",
          "midi": 73,
          "time": 37.15480800000002,
          "velocity": 0.7874015748031497,
          "duration": 0.2510460000000023
        },
        {
          "name": "D#5",
          "midi": 75,
          "time": 37.40585400000002,
          "velocity": 0.7874015748031497,
          "duration": 0.2510460000000023
        },
        {
          "name": "F5",
          "midi": 77,
          "time": 37.65690000000002,
          "velocity": 0.7874015748031497,
          "duration": 0.5020919999999975
        },
        {
          "name": "D#5",
          "midi": 75,
          "time": 38.15899200000002,
          "velocity": 0.7874015748031497,
          "duration": 0.2510460000000023
        },
        {
          "name": "C#5",
          "midi": 73,
          "time": 38.41003800000002,
          "velocity": 0.7874015748031497,
          "duration": 0.12552300000000116
        },
        {
          "name": "D#5",
          "midi": 75,
          "time": 38.53556100000002,
          "velocity": 0.7874015748031497,
          "duration": 0.12552300000000116
        },
        {
          "name": "C5",
          "midi": 72,
          "time": 38.661084000000024,
          "velocity": 0.7874015748031497,
          "duration": 0.12552300000000116
        },
        {
          "name": "G#4",
          "midi": 68,
          "time": 38.912130000000026,
          "velocity": 0.7874015748031497,
          "duration": 0.2510460000000023
        },
        {
          "name": "A#4",
          "midi": 70,
          "time": 39.16317600000003,
          "velocity": 0.7874015748031497,
          "duration": 1.0041840000000022
        },
        {
          "name": "C#5",
          "midi": 73,
          "time": 43.17991200000003,
          "velocity": 0.7874015748031497,
          "duration": 0.2510460000000023
        },
        {
          "name": "D#5",
          "midi": 75,
          "time": 43.43095800000003,
          "velocity": 0.7874015748031497,
          "duration": 0.2510460000000023
        },
        {
          "name": "F5",
          "midi": 77,
          "time": 43.682004000000035,
          "velocity": 0.7874015748031497,
          "duration": 0.5020919999999975
        },
        {
          "name": "D#5",
          "midi": 75,
          "time": 44.18409600000003,
          "velocity": 0.7874015748031497,
          "duration": 0.2510460000000023
        },
        {
          "name": "C#5",
          "midi": 73,
          "time": 44.435142000000035,
          "velocity": 0.7874015748031497,
          "duration": 0.12552300000000116
        },
        {
          "name": "D#5",
          "midi": 75,
          "time": 44.560665000000036,
          "velocity": 0.7874015748031497,
          "duration": 0.12552300000000116
        },
        {
          "name": "C5",
          "midi": 72,
          "time": 44.68618800000004,
          "velocity": 0.7874015748031497,
          "duration": 0.12552300000000116
        },
        {
          "name": "G#4",
          "midi": 68,
          "time": 44.93723400000004,
          "velocity": 0.7874015748031497,
          "duration": 0.2510460000000023
        },
        {
          "name": "A#4",
          "midi": 70,
          "time": 45.18828000000004,
          "velocity": 0.7874015748031497,
          "duration": 3.012551999998884
        },
        {
          "name": "D#5",
          "midi": 75,
          "time": 61.75731599999892,
          "velocity": 0.7874015748031497,
          "duration": 0.2510460000000023
        },
        {
          "name": "C6",
          "midi": 84,
          "time": 62.008361999998925,
          "velocity": 0.7874015748031497,
          "duration": 0.2510460000000023
        },
        {
          "name": "A#5",
          "midi": 82,
          "time": 62.25940799999893,
          "velocity": 0.7874015748031497,
          "duration": 0.2510460000000023
        },
        {
          "name": "G#5",
          "midi": 80,
          "time": 62.51045399999893,
          "velocity": 0.5748031496062992,
          "duration": 0.12552300000000116
        },
        {
          "name": "G#5",
          "midi": 80,
          "time": 62.51045399999893,
          "velocity": 0.5748031496062992,
          "duration": 0.12552300000000116
        },
        {
          "name": "F#5",
          "midi": 78,
          "time": 62.63597699999893,
          "velocity": 0.5748031496062992,
          "duration": 0.12552300000000116
        },
        {
          "name": "F5",
          "midi": 77,
          "time": 62.76149999999893,
          "velocity": 0.5748031496062992,
          "duration": 0.12552300000000116
        },
        {
          "name": "G#5",
          "midi": 80,
          "time": 63.012545999998935,
          "velocity": 0.7874015748031497,
          "duration": 0.12552300000000116
        },
        {
          "name": "A#5",
          "midi": 82,
          "time": 63.26359199999894,
          "velocity": 0.7874015748031497,
          "duration": 0.2510460000000023
        },
        {
          "name": "B5",
          "midi": 83,
          "time": 63.76568399999894,
          "velocity": 0.7874015748031497,
          "duration": 0.2510460000000023
        },
        {
          "name": "D#6",
          "midi": 87,
          "time": 64.01672999999894,
          "velocity": 0.7874015748031497,
          "duration": 0.2510460000000023
        },
        {
          "name": "C#6",
          "midi": 85,
          "time": 64.26777599999895,
          "velocity": 0.7874015748031497,
          "duration": 0.2510460000000023
        },
        {
          "name": "D#6",
          "midi": 87,
          "time": 64.51882199999895,
          "velocity": 0.7874015748031497,
          "duration": 0.2510460000000023
        },
        {
          "name": "F6",
          "midi": 89,
          "time": 64.76986799999895,
          "velocity": 0.7874015748031497,
          "duration": 0.5020920000000046
        },
        {
          "name": "D#6",
          "midi": 87,
          "time": 65.27195999999896,
          "velocity": 0.7874015748031497,
          "duration": 0.2510460000000023
        },
        {
          "name": "F#6",
          "midi": 90,
          "time": 65.52300599999896,
          "velocity": 0.7874015748031497,
          "duration": 0.2510460000000023
        },
        {
          "name": "F6",
          "midi": 89,
          "time": 65.77405199999896,
          "velocity": 0.7874015748031497,
          "duration": 0.2510460000000023
        },
        {
          "name": "D#6",
          "midi": 87,
          "time": 66.02509799999896,
          "velocity": 0.7874015748031497,
          "duration": 0.2510460000000023
        },
        {
          "name": "F6",
          "midi": 89,
          "time": 66.27614399999896,
          "velocity": 0.7874015748031497,
          "duration": 0.5020920000000046
        },
        {
          "name": "F#6",
          "midi": 90,
          "time": 66.77823599999897,
          "velocity": 0.7874015748031497,
          "duration": 0.12552300000000116
        },
        {
          "name": "F6",
          "midi": 89,
          "time": 67.02928199999897,
          "velocity": 0.7874015748031497,
          "duration": 0.12552300000000116
        },
        {
          "name": "F#6",
          "midi": 90,
          "time": 67.15480499999897,
          "velocity": 0.7874015748031497,
          "duration": 0.12552300000000116
        },
        {
          "name": "D#6",
          "midi": 87,
          "time": 67.28032799999897,
          "velocity": 0.7874015748031497,
          "duration": 0.2510460000000023
        },
        {
          "name": "F6",
          "midi": 89,
          "time": 67.53137399999898,
          "velocity": 0.7874015748031497,
          "duration": 0.2510460000000023
        },
        {
          "name": "C#6",
          "midi": 85,
          "time": 67.78241999999898,
          "velocity": 0.7874015748031497,
          "duration": 0.5020920000000046
        },
        {
          "name": "D#6",
          "midi": 87,
          "time": 68.28451199999898,
          "velocity": 0.7874015748031497,
          "duration": 0.2510460000000023
        },
        {
          "name": "C#6",
          "midi": 85,
          "time": 68.53555799999899,
          "velocity": 0.7874015748031497,
          "duration": 0.12552300000000116
        },
        {
          "name": "D#6",
          "midi": 87,
          "time": 68.66108099999899,
          "velocity": 0.7874015748031497,
          "duration": 0.12552300000000116
        },
        {
          "name": "A#5",
          "midi": 82,
          "time": 68.78660399999899,
          "velocity": 0.7874015748031497,
          "duration": 0.2510460000000023
        },
        {
          "name": "G#5",
          "midi": 80,
          "time": 69.03764999999899,
          "velocity": 0.7874015748031497,
          "duration": 0.2510460000000023
        },
        {
          "name": "A#5",
          "midi": 82,
          "time": 75.31379999999899,
          "velocity": 0.7874015748031497,
          "duration": 0.2510460000000023
        },
        {
          "name": "B5",
          "midi": 83,
          "time": 75.815891999999,
          "velocity": 0.7874015748031497,
          "duration": 0.2510460000000023
        },
        {
          "name": "D#6",
          "midi": 87,
          "time": 76.066937999999,
          "velocity": 0.7874015748031497,
          "duration": 0.2510460000000023
        },
        {
          "name": "C#6",
          "midi": 85,
          "time": 76.317983999999,
          "velocity": 0.7874015748031497,
          "duration": 0.2510460000000023
        },
        {
          "name": "D#6",
          "midi": 87,
          "time": 76.569029999999,
          "velocity": 0.7874015748031497,
          "duration": 0.2510460000000023
        },
        {
          "name": "F6",
          "midi": 89,
          "time": 76.820075999999,
          "velocity": 0.7874015748031497,
          "duration": 0.5020920000000046
        },
        {
          "name": "D#6",
          "midi": 87,
          "time": 77.32216799999901,
          "velocity": 0.7874015748031497,
          "duration": 0.2510460000000023
        },
        {
          "name": "F#6",
          "midi": 90,
          "time": 77.57321399999901,
          "velocity": 0.7874015748031497,
          "duration": 0.2510460000000023
        },
        {
          "name": "F6",
          "midi": 89,
          "time": 77.82425999999901,
          "velocity": 0.7874015748031497,
          "duration": 0.2510460000000023
        },
        {
          "name": "D#6",
          "midi": 87,
          "time": 78.07530599999902,
          "velocity": 0.7874015748031497,
          "duration": 0.2510460000000023
        },
        {
          "name": "F6",
          "midi": 89,
          "time": 78.32635199999902,
          "velocity": 0.7874015748031497,
          "duration": 0.5020920000000046
        },
        {
          "name": "F#6",
          "midi": 90,
          "time": 78.82844399999902,
          "velocity": 0.7874015748031497,
          "duration": 0.12552300000000116
        },
        {
          "name": "F6",
          "midi": 89,
          "time": 79.07948999999903,
          "velocity": 0.7874015748031497,
          "duration": 0.12552300000000116
        },
        {
          "name": "F#6",
          "midi": 90,
          "time": 79.20501299999903,
          "velocity": 0.7874015748031497,
          "duration": 0.12552300000000116
        },
        {
          "name": "D#6",
          "midi": 87,
          "time": 79.33053599999903,
          "velocity": 0.7874015748031497,
          "duration": 0.2510460000000023
        },
        {
          "name": "F6",
          "midi": 89,
          "time": 79.58158199999903,
          "velocity": 0.7874015748031497,
          "duration": 0.2510460000000023
        },
        {
          "name": "C#6",
          "midi": 85,
          "time": 79.83262799999903,
          "velocity": 0.7874015748031497,
          "duration": 0.5020920000000046
        },
        {
          "name": "D#6",
          "midi": 87,
          "time": 80.33471999999904,
          "velocity": 0.7874015748031497,
          "duration": 0.2510460000000023
        },
        {
          "name": "C#6",
          "midi": 85,
          "time": 80.58576599999904,
          "velocity": 0.7874015748031497,
          "duration": 0.12552300000000116
        },
        {
          "name": "D#6",
          "midi": 87,
          "time": 80.71128899999904,
          "velocity": 0.7874015748031497,
          "duration": 0.12552300000000116
        },
        {
          "name": "A#5",
          "midi": 82,
          "time": 80.83681199999904,
          "velocity": 0.7874015748031497,
          "duration": 0.2510460000000023
        },
        {
          "name": "G#5",
          "midi": 80,
          "time": 81.08785799999904,
          "velocity": 0.7874015748031497,
          "duration": 0.2510460000000023
        },
        {
          "name": "D#4",
          "midi": 63,
          "time": 85.85773199999905,
          "velocity": 0.7874015748031497,
          "duration": 0.2510460000000023
        },
        {
          "name": "C5",
          "midi": 72,
          "time": 86.10877799999905,
          "velocity": 0.7874015748031497,
          "duration": 0.2510460000000023
        },
        {
          "name": "A#4",
          "midi": 70,
          "time": 86.35982399999905,
          "velocity": 0.7874015748031497,
          "duration": 0.2510460000000023
        },
        {
          "name": "G#4",
          "midi": 68,
          "time": 86.61086999999905,
          "velocity": 0.7874015748031497,
          "duration": 0.12552300000000116
        },
        {
          "name": "F#4",
          "midi": 66,
          "time": 86.73639299999905,
          "velocity": 0.7874015748031497,
          "duration": 0.12552300000000116
        },
        {
          "name": "F4",
          "midi": 65,
          "time": 86.86191599999906,
          "velocity": 0.7874015748031497,
          "duration": 0.12552300000000116
        },
        {
          "name": "G#4",
          "midi": 68,
          "time": 87.11296199999906,
          "velocity": 0.7874015748031497,
          "duration": 0.12552300000000116
        },
        {
          "name": "A#4",
          "midi": 70,
          "time": 87.36400799999906,
          "velocity": 0.7874015748031497,
          "duration": 1.004183999999995
        },
        {
          "name": "F4",
          "midi": 65,
          "time": 88.36819199999906,
          "velocity": 0.7874015748031497,
          "duration": 0.12552300000000116
        },
        {
          "name": "G#4",
          "midi": 68,
          "time": 88.61923799999906,
          "velocity": 0.7874015748031497,
          "duration": 0.12552300000000116
        },
        {
          "name": "A#4",
          "midi": 70,
          "time": 88.87028399999906,
          "velocity": 0.7874015748031497,
          "duration": 0.5020920000000046
        },
        {
          "name": "C#5",
          "midi": 73,
          "time": 89.37237599999906,
          "velocity": 0.7874015748031497,
          "duration": 0.12552300000000116
        },
        {
          "name": "D#5",
          "midi": 75,
          "time": 89.62342199999907,
          "velocity": 0.7874015748031497,
          "duration": 0.12552300000000116
        },
        {
          "name": "C#5",
          "midi": 73,
          "time": 89.74894499999907,
          "velocity": 0.7874015748031497,
          "duration": 0.12552300000000116
        },
        {
          "name": "C5",
          "midi": 72,
          "time": 89.87446799999907,
          "velocity": 0.7874015748031497,
          "duration": 0.12552300000000116
        },
        {
          "name": "C#5",
          "midi": 73,
          "time": 90.12551399999907,
          "velocity": 0.7874015748031497,
          "duration": 0.12552300000000116
        },
        {
          "name": "A#4",
          "midi": 70,
          "time": 90.37655999999907,
          "velocity": 0.7874015748031497,
          "duration": 1.5062759999999997
        },
        {
          "name": "A#4",
          "midi": 70,
          "time": 92.63597399999908,
          "velocity": 0.7874015748031497,
          "duration": 0.2510460000000023
        },
        {
          "name": "C#5",
          "midi": 73,
          "time": 92.88701999999908,
          "velocity": 0.7874015748031497,
          "duration": 0.2510460000000023
        },
        {
          "name": "D#5",
          "midi": 75,
          "time": 93.13806599999909,
          "velocity": 0.7874015748031497,
          "duration": 0.2510460000000023
        },
        {
          "name": "F5",
          "midi": 77,
          "time": 93.38911199999909,
          "velocity": 0.7874015748031497,
          "duration": 0.753138000000007
        },
        {
          "name": "C#5",
          "midi": 73,
          "time": 94.3932959999991,
          "velocity": 0.7874015748031497,
          "duration": 0.2510460000000023
        },
        {
          "name": "D#5",
          "midi": 75,
          "time": 94.6443419999991,
          "velocity": 0.7874015748031497,
          "duration": 0.2510460000000023
        },
        {
          "name": "F5",
          "midi": 77,
          "time": 94.8953879999991,
          "velocity": 0.7874015748031497,
          "duration": 0.5020920000000046
        },
        {
          "name": "D#5",
          "midi": 75,
          "time": 95.3974799999991,
          "velocity": 0.7874015748031497,
          "duration": 0.2510460000000023
        },
        {
          "name": "C#5",
          "midi": 73,
          "time": 95.64852599999911,
          "velocity": 0.7874015748031497,
          "duration": 0.12552300000000116
        },
        {
          "name": "D#5",
          "midi": 75,
          "time": 95.77404899999911,
          "velocity": 0.7874015748031497,
          "duration": 0.12552300000000116
        },
        {
          "name": "C5",
          "midi": 72,
          "time": 95.89957199999911,
          "velocity": 0.7874015748031497,
          "duration": 0.12552300000000116
        },
        {
          "name": "G#4",
          "midi": 68,
          "time": 96.15061799999911,
          "velocity": 0.7874015748031497,
          "duration": 0.2510460000000023
        },
        {
          "name": "A#4",
          "midi": 70,
          "time": 96.40166399999912,
          "velocity": 0.7874015748031497,
          "duration": 1.004183999999995
        },
        {
          "name": "C#5",
          "midi": 73,
          "time": 100.41839999999911,
          "velocity": 0.7874015748031497,
          "duration": 0.2510460000000023
        },
        {
          "name": "D#5",
          "midi": 75,
          "time": 100.66944599999911,
          "velocity": 0.7874015748031497,
          "duration": 0.2510460000000023
        },
        {
          "name": "F5",
          "midi": 77,
          "time": 100.92049199999911,
          "velocity": 0.7874015748031497,
          "duration": 0.5020920000000046
        },
        {
          "name": "D#5",
          "midi": 75,
          "time": 101.42258399999912,
          "velocity": 0.7874015748031497,
          "duration": 0.2510460000000023
        },
        {
          "name": "C#5",
          "midi": 73,
          "time": 101.67362999999912,
          "velocity": 0.7874015748031497,
          "duration": 0.12552300000000116
        },
        {
          "name": "D#5",
          "midi": 75,
          "time": 101.79915299999912,
          "velocity": 0.7874015748031497,
          "duration": 0.12552300000000116
        },
        {
          "name": "C5",
          "midi": 72,
          "time": 101.92467599999912,
          "velocity": 0.7874015748031497,
          "duration": 0.12552300000000116
        },
        {
          "name": "G#4",
          "midi": 68,
          "time": 102.17572199999913,
          "velocity": 0.7874015748031497,
          "duration": 0.2510460000000023
        },
        {
          "name": "A#4",
          "midi": 70,
          "time": 102.42676799999913,
          "velocity": 0.7874015748031497,
          "duration": 1.004183999999995
        },
        {
          "name": "C#5",
          "midi": 73,
          "time": 103.43095199999912,
          "velocity": 0.7874015748031497,
          "duration": 0.2510460000000023
        },
        {
          "name": "D#5",
          "midi": 75,
          "time": 103.68199799999913,
          "velocity": 0.7874015748031497,
          "duration": 0.2510460000000023
        },
        {
          "name": "F5",
          "midi": 77,
          "time": 103.93304399999913,
          "velocity": 0.7874015748031497,
          "duration": 0.5020920000000046
        },
        {
          "name": "D#5",
          "midi": 75,
          "time": 104.43513599999913,
          "velocity": 0.7874015748031497,
          "duration": 0.2510460000000023
        },
        {
          "name": "C#5",
          "midi": 73,
          "time": 104.68618199999914,
          "velocity": 0.7874015748031497,
          "duration": 0.12552300000000116
        },
        {
          "name": "D#5",
          "midi": 75,
          "time": 104.81170499999914,
          "velocity": 0.7874015748031497,
          "duration": 0.12552300000000116
        },
        {
          "name": "C5",
          "midi": 72,
          "time": 104.93722799999914,
          "velocity": 0.7874015748031497,
          "duration": 0.12552300000000116
        },
        {
          "name": "G#4",
          "midi": 68,
          "time": 105.18827399999914,
          "velocity": 0.7874015748031497,
          "duration": 0.2510460000000023
        },
        {
          "name": "A#4",
          "midi": 70,
          "time": 105.43931999999914,
          "velocity": 0.7874015748031497,
          "duration": 1.5062759999999997
        }
      ],
      "controlChanges": {
        "6": [
          {
            "number": 6,
            "time": 0,
            "value": 0.09448818897637795
          },
          {
            "number": 6,
            "time": 0,
            "value": 0.09448818897637795
          },
          {
            "number": 6,
            "time": 0,
            "value": 0.09448818897637795
          },
          {
            "number": 6,
            "time": 108.45187199999914,
            "value": 0.09448818897637795
          },
          {
            "number": 6,
            "time": 108.46233224999914,
            "value": 0.09448818897637795
          },
          {
            "number": 6,
            "time": 108.46233224999914,
            "value": 0.09448818897637795
          }
        ],
        "7": [
          {
            "number": 7,
            "time": 0,
            "value": 0.7637795275590551
          },
          {
            "number": 7,
            "time": 0,
            "value": 0.7637795275590551
          },
          {
            "number": 7,
            "time": 0,
            "value": 0.7637795275590551
          },
          {
            "number": 7,
            "time": 0,
            "value": 0.7637795275590551
          },
          {
            "number": 7,
            "time": 0,
            "value": 0.7637795275590551
          },
          {
            "number": 7,
            "time": 0,
            "value": 0.7637795275590551
          },
          {
            "number": 7,
            "time": 46.19769412500004,
            "value": 0.7559055118110236
          },
          {
            "number": 7,
            "time": 46.20292425000004,
            "value": 0.7559055118110236
          },
          {
            "number": 7,
            "time": 46.208154375000035,
            "value": 0.7559055118110236
          },
          {
            "number": 7,
            "time": 46.21338450000003,
            "value": 0.7559055118110236
          },
          {
            "number": 7,
            "time": 46.21861462500003,
            "value": 0.7480314960629921
          },
          {
            "number": 7,
            "time": 46.223844750000026,
            "value": 0.7480314960629921
          },
          {
            "number": 7,
            "time": 46.22907487500002,
            "value": 0.7480314960629921
          },
          {
            "number": 7,
            "time": 46.23430500000002,
            "value": 0.7480314960629921
          },
          {
            "number": 7,
            "time": 46.23953512500002,
            "value": 0.7401574803149606
          },
          {
            "number": 7,
            "time": 46.244765250000015,
            "value": 0.7401574803149606
          },
          {
            "number": 7,
            "time": 46.24999537500001,
            "value": 0.7401574803149606
          },
          {
            "number": 7,
            "time": 46.25522550000001,
            "value": 0.7401574803149606
          },
          {
            "number": 7,
            "time": 46.260455625000006,
            "value": 0.7322834645669292
          },
          {
            "number": 7,
            "time": 46.26568575,
            "value": 0.7322834645669292
          },
          {
            "number": 7,
            "time": 46.270915875,
            "value": 0.7322834645669292
          },
          {
            "number": 7,
            "time": 46.276146,
            "value": 0.7322834645669292
          },
          {
            "number": 7,
            "time": 46.281376124999994,
            "value": 0.7244094488188977
          },
          {
            "number": 7,
            "time": 46.28660624999999,
            "value": 0.7244094488188977
          },
          {
            "number": 7,
            "time": 46.29183637499999,
            "value": 0.7244094488188977
          },
          {
            "number": 7,
            "time": 46.297066499999985,
            "value": 0.7244094488188977
          },
          {
            "number": 7,
            "time": 46.30229662499998,
            "value": 0.7165354330708661
          },
          {
            "number": 7,
            "time": 46.30752674999998,
            "value": 0.7165354330708661
          },
          {
            "number": 7,
            "time": 46.31275687499998,
            "value": 0.7165354330708661
          },
          {
            "number": 7,
            "time": 46.317986999999974,
            "value": 0.7165354330708661
          },
          {
            "number": 7,
            "time": 46.32321712499997,
            "value": 0.7086614173228346
          },
          {
            "number": 7,
            "time": 46.32844724999997,
            "value": 0.7086614173228346
          },
          {
            "number": 7,
            "time": 46.333677374999965,
            "value": 0.7086614173228346
          },
          {
            "number": 7,
            "time": 46.33890749999996,
            "value": 0.7086614173228346
          },
          {
            "number": 7,
            "time": 46.34413762499996,
            "value": 0.7007874015748031
          },
          {
            "number": 7,
            "time": 46.349367749999956,
            "value": 0.7007874015748031
          },
          {
            "number": 7,
            "time": 46.35459787499995,
            "value": 0.7007874015748031
          },
          {
            "number": 7,
            "time": 46.35982799999995,
            "value": 0.7007874015748031
          },
          {
            "number": 7,
            "time": 46.36505812499995,
            "value": 0.6929133858267716
          },
          {
            "number": 7,
            "time": 46.370288249999945,
            "value": 0.6929133858267716
          },
          {
            "number": 7,
            "time": 46.37551837499994,
            "value": 0.6929133858267716
          },
          {
            "number": 7,
            "time": 46.38074849999994,
            "value": 0.6929133858267716
          },
          {
            "number": 7,
            "time": 46.385978624999936,
            "value": 0.6850393700787402
          },
          {
            "number": 7,
            "time": 46.39120874999993,
            "value": 0.6850393700787402
          },
          {
            "number": 7,
            "time": 46.39643887499993,
            "value": 0.6850393700787402
          },
          {
            "number": 7,
            "time": 46.40166899999993,
            "value": 0.6850393700787402
          },
          {
            "number": 7,
            "time": 46.406899124999924,
            "value": 0.6771653543307087
          },
          {
            "number": 7,
            "time": 46.41212924999992,
            "value": 0.6771653543307087
          },
          {
            "number": 7,
            "time": 46.41735937499992,
            "value": 0.6771653543307087
          },
          {
            "number": 7,
            "time": 46.422589499999916,
            "value": 0.6771653543307087
          },
          {
            "number": 7,
            "time": 46.42781962499991,
            "value": 0.6692913385826772
          },
          {
            "number": 7,
            "time": 46.43304974999991,
            "value": 0.6692913385826772
          },
          {
            "number": 7,
            "time": 46.43827987499991,
            "value": 0.6692913385826772
          },
          {
            "number": 7,
            "time": 46.443509999999904,
            "value": 0.6614173228346457
          },
          {
            "number": 7,
            "time": 46.4487401249999,
            "value": 0.6614173228346457
          },
          {
            "number": 7,
            "time": 46.4539702499999,
            "value": 0.6614173228346457
          },
          {
            "number": 7,
            "time": 46.459200374999895,
            "value": 0.6614173228346457
          },
          {
            "number": 7,
            "time": 46.46443049999989,
            "value": 0.6535433070866141
          },
          {
            "number": 7,
            "time": 46.46966062499989,
            "value": 0.6535433070866141
          },
          {
            "number": 7,
            "time": 46.47489074999989,
            "value": 0.6535433070866141
          },
          {
            "number": 7,
            "time": 46.48012087499988,
            "value": 0.6535433070866141
          },
          {
            "number": 7,
            "time": 46.48535099999988,
            "value": 0.6456692913385826
          },
          {
            "number": 7,
            "time": 46.49058112499988,
            "value": 0.6456692913385826
          },
          {
            "number": 7,
            "time": 46.495811249999875,
            "value": 0.6456692913385826
          },
          {
            "number": 7,
            "time": 46.50104137499987,
            "value": 0.6456692913385826
          },
          {
            "number": 7,
            "time": 46.50627149999987,
            "value": 0.6377952755905512
          },
          {
            "number": 7,
            "time": 46.511501624999866,
            "value": 0.6377952755905512
          },
          {
            "number": 7,
            "time": 46.51673174999986,
            "value": 0.6377952755905512
          },
          {
            "number": 7,
            "time": 46.52196187499986,
            "value": 0.6377952755905512
          },
          {
            "number": 7,
            "time": 46.52719199999986,
            "value": 0.6299212598425197
          },
          {
            "number": 7,
            "time": 46.532422124999854,
            "value": 0.6299212598425197
          },
          {
            "number": 7,
            "time": 46.53765224999985,
            "value": 0.6299212598425197
          },
          {
            "number": 7,
            "time": 46.54288237499985,
            "value": 0.6299212598425197
          },
          {
            "number": 7,
            "time": 46.548112499999846,
            "value": 0.6220472440944882
          },
          {
            "number": 7,
            "time": 46.55334262499984,
            "value": 0.6220472440944882
          },
          {
            "number": 7,
            "time": 46.55857274999984,
            "value": 0.6220472440944882
          },
          {
            "number": 7,
            "time": 46.56380287499984,
            "value": 0.6220472440944882
          },
          {
            "number": 7,
            "time": 46.569032999999834,
            "value": 0.6141732283464567
          },
          {
            "number": 7,
            "time": 46.57426312499983,
            "value": 0.6141732283464567
          },
          {
            "number": 7,
            "time": 46.57949324999983,
            "value": 0.6141732283464567
          },
          {
            "number": 7,
            "time": 46.584723374999825,
            "value": 0.6141732283464567
          },
          {
            "number": 7,
            "time": 46.58995349999982,
            "value": 0.6062992125984252
          },
          {
            "number": 7,
            "time": 46.59518362499982,
            "value": 0.6062992125984252
          },
          {
            "number": 7,
            "time": 46.60041374999982,
            "value": 0.6062992125984252
          },
          {
            "number": 7,
            "time": 46.605643874999814,
            "value": 0.6062992125984252
          },
          {
            "number": 7,
            "time": 46.61087399999981,
            "value": 0.5984251968503937
          },
          {
            "number": 7,
            "time": 46.61610412499981,
            "value": 0.5984251968503937
          },
          {
            "number": 7,
            "time": 46.621334249999805,
            "value": 0.5984251968503937
          },
          {
            "number": 7,
            "time": 46.6265643749998,
            "value": 0.5984251968503937
          },
          {
            "number": 7,
            "time": 46.6317944999998,
            "value": 0.5905511811023622
          },
          {
            "number": 7,
            "time": 46.637024624999796,
            "value": 0.5905511811023622
          },
          {
            "number": 7,
            "time": 46.64225474999979,
            "value": 0.5905511811023622
          },
          {
            "number": 7,
            "time": 46.64748487499979,
            "value": 0.5905511811023622
          },
          {
            "number": 7,
            "time": 46.65271499999979,
            "value": 0.5826771653543307
          },
          {
            "number": 7,
            "time": 46.657945124999785,
            "value": 0.5826771653543307
          },
          {
            "number": 7,
            "time": 46.66317524999978,
            "value": 0.5826771653543307
          },
          {
            "number": 7,
            "time": 46.66840537499978,
            "value": 0.5826771653543307
          },
          {
            "number": 7,
            "time": 46.673635499999776,
            "value": 0.5748031496062992
          },
          {
            "number": 7,
            "time": 46.67886562499977,
            "value": 0.5748031496062992
          },
          {
            "number": 7,
            "time": 46.68409574999977,
            "value": 0.5748031496062992
          },
          {
            "number": 7,
            "time": 46.68932587499977,
            "value": 0.5748031496062992
          },
          {
            "number": 7,
            "time": 46.694555999999764,
            "value": 0.5669291338582677
          },
          {
            "number": 7,
            "time": 46.69978612499976,
            "value": 0.5669291338582677
          },
          {
            "number": 7,
            "time": 46.70501624999976,
            "value": 0.5669291338582677
          },
          {
            "number": 7,
            "time": 46.710246374999755,
            "value": 0.5669291338582677
          },
          {
            "number": 7,
            "time": 46.71547649999975,
            "value": 0.5590551181102362
          },
          {
            "number": 7,
            "time": 46.72070662499975,
            "value": 0.5590551181102362
          },
          {
            "number": 7,
            "time": 46.72593674999975,
            "value": 0.5590551181102362
          },
          {
            "number": 7,
            "time": 46.731166874999744,
            "value": 0.5590551181102362
          },
          {
            "number": 7,
            "time": 46.73639699999974,
            "value": 0.5511811023622047
          },
          {
            "number": 7,
            "time": 46.74162712499974,
            "value": 0.5511811023622047
          },
          {
            "number": 7,
            "time": 46.746857249999735,
            "value": 0.5511811023622047
          },
          {
            "number": 7,
            "time": 46.75208737499973,
            "value": 0.5511811023622047
          },
          {
            "number": 7,
            "time": 46.75731749999973,
            "value": 0.5433070866141733
          },
          {
            "number": 7,
            "time": 46.762547624999726,
            "value": 0.5433070866141733
          },
          {
            "number": 7,
            "time": 46.76777774999972,
            "value": 0.5433070866141733
          },
          {
            "number": 7,
            "time": 46.77300787499972,
            "value": 0.5433070866141733
          },
          {
            "number": 7,
            "time": 46.77823799999972,
            "value": 0.5354330708661418
          },
          {
            "number": 7,
            "time": 46.783468124999715,
            "value": 0.5354330708661418
          },
          {
            "number": 7,
            "time": 46.78869824999971,
            "value": 0.5354330708661418
          },
          {
            "number": 7,
            "time": 46.79392837499971,
            "value": 0.5354330708661418
          },
          {
            "number": 7,
            "time": 46.799158499999706,
            "value": 0.5275590551181102
          },
          {
            "number": 7,
            "time": 46.8043886249997,
            "value": 0.5275590551181102
          },
          {
            "number": 7,
            "time": 46.8096187499997,
            "value": 0.5275590551181102
          },
          {
            "number": 7,
            "time": 46.8148488749997,
            "value": 0.5275590551181102
          },
          {
            "number": 7,
            "time": 46.820078999999694,
            "value": 0.5196850393700787
          },
          {
            "number": 7,
            "time": 46.82530912499969,
            "value": 0.5196850393700787
          },
          {
            "number": 7,
            "time": 46.83053924999969,
            "value": 0.5196850393700787
          },
          {
            "number": 7,
            "time": 46.835769374999686,
            "value": 0.5196850393700787
          },
          {
            "number": 7,
            "time": 46.84099949999968,
            "value": 0.5118110236220472
          },
          {
            "number": 7,
            "time": 46.84622962499968,
            "value": 0.5118110236220472
          },
          {
            "number": 7,
            "time": 46.85145974999968,
            "value": 0.5118110236220472
          },
          {
            "number": 7,
            "time": 46.856689874999674,
            "value": 0.5118110236220472
          },
          {
            "number": 7,
            "time": 46.86191999999967,
            "value": 0.5039370078740157
          },
          {
            "number": 7,
            "time": 46.86715012499967,
            "value": 0.5039370078740157
          },
          {
            "number": 7,
            "time": 46.872380249999665,
            "value": 0.5039370078740157
          },
          {
            "number": 7,
            "time": 46.87761037499966,
            "value": 0.49606299212598426
          },
          {
            "number": 7,
            "time": 46.88284049999966,
            "value": 0.49606299212598426
          },
          {
            "number": 7,
            "time": 46.888070624999656,
            "value": 0.49606299212598426
          },
          {
            "number": 7,
            "time": 46.89330074999965,
            "value": 0.49606299212598426
          },
          {
            "number": 7,
            "time": 46.89853087499965,
            "value": 0.4881889763779528
          },
          {
            "number": 7,
            "time": 46.90376099999965,
            "value": 0.4881889763779528
          },
          {
            "number": 7,
            "time": 46.908991124999645,
            "value": 0.4881889763779528
          },
          {
            "number": 7,
            "time": 46.91422124999964,
            "value": 0.4881889763779528
          },
          {
            "number": 7,
            "time": 46.91945137499964,
            "value": 0.48031496062992124
          },
          {
            "number": 7,
            "time": 46.924681499999636,
            "value": 0.48031496062992124
          },
          {
            "number": 7,
            "time": 46.92991162499963,
            "value": 0.48031496062992124
          },
          {
            "number": 7,
            "time": 46.93514174999963,
            "value": 0.48031496062992124
          },
          {
            "number": 7,
            "time": 46.94037187499963,
            "value": 0.47244094488188976
          },
          {
            "number": 7,
            "time": 46.945601999999624,
            "value": 0.47244094488188976
          },
          {
            "number": 7,
            "time": 46.95083212499962,
            "value": 0.47244094488188976
          },
          {
            "number": 7,
            "time": 46.95606224999962,
            "value": 0.47244094488188976
          },
          {
            "number": 7,
            "time": 46.961292374999616,
            "value": 0.4645669291338583
          },
          {
            "number": 7,
            "time": 46.96652249999961,
            "value": 0.4645669291338583
          },
          {
            "number": 7,
            "time": 46.97175262499961,
            "value": 0.4645669291338583
          },
          {
            "number": 7,
            "time": 46.97698274999961,
            "value": 0.4645669291338583
          },
          {
            "number": 7,
            "time": 46.982212874999604,
            "value": 0.4566929133858268
          },
          {
            "number": 7,
            "time": 46.9874429999996,
            "value": 0.4566929133858268
          },
          {
            "number": 7,
            "time": 46.9926731249996,
            "value": 0.4566929133858268
          },
          {
            "number": 7,
            "time": 46.997903249999595,
            "value": 0.4566929133858268
          },
          {
            "number": 7,
            "time": 47.00313337499959,
            "value": 0.44881889763779526
          },
          {
            "number": 7,
            "time": 47.00836349999959,
            "value": 0.44881889763779526
          },
          {
            "number": 7,
            "time": 47.01359362499959,
            "value": 0.44881889763779526
          },
          {
            "number": 7,
            "time": 47.018823749999584,
            "value": 0.44881889763779526
          },
          {
            "number": 7,
            "time": 47.02405387499958,
            "value": 0.4409448818897638
          },
          {
            "number": 7,
            "time": 47.02928399999958,
            "value": 0.4409448818897638
          },
          {
            "number": 7,
            "time": 47.034514124999575,
            "value": 0.4409448818897638
          },
          {
            "number": 7,
            "time": 47.03974424999957,
            "value": 0.4409448818897638
          },
          {
            "number": 7,
            "time": 47.04497437499957,
            "value": 0.4330708661417323
          },
          {
            "number": 7,
            "time": 47.050204499999566,
            "value": 0.4330708661417323
          },
          {
            "number": 7,
            "time": 47.05543462499956,
            "value": 0.4330708661417323
          },
          {
            "number": 7,
            "time": 47.06066474999956,
            "value": 0.4330708661417323
          },
          {
            "number": 7,
            "time": 47.06589487499956,
            "value": 0.4251968503937008
          },
          {
            "number": 7,
            "time": 47.071124999999554,
            "value": 0.4251968503937008
          },
          {
            "number": 7,
            "time": 47.07635512499955,
            "value": 0.4251968503937008
          },
          {
            "number": 7,
            "time": 47.08158524999955,
            "value": 0.4251968503937008
          },
          {
            "number": 7,
            "time": 47.086815374999546,
            "value": 0.41732283464566927
          },
          {
            "number": 7,
            "time": 47.09204549999954,
            "value": 0.41732283464566927
          },
          {
            "number": 7,
            "time": 47.09727562499954,
            "value": 0.41732283464566927
          },
          {
            "number": 7,
            "time": 47.10250574999954,
            "value": 0.41732283464566927
          },
          {
            "number": 7,
            "time": 47.107735874999534,
            "value": 0.4094488188976378
          },
          {
            "number": 7,
            "time": 47.11296599999953,
            "value": 0.4094488188976378
          },
          {
            "number": 7,
            "time": 47.11819612499953,
            "value": 0.4094488188976378
          },
          {
            "number": 7,
            "time": 47.123426249999525,
            "value": 0.4094488188976378
          },
          {
            "number": 7,
            "time": 47.12865637499952,
            "value": 0.4015748031496063
          },
          {
            "number": 7,
            "time": 47.13388649999952,
            "value": 0.4015748031496063
          },
          {
            "number": 7,
            "time": 47.13911662499952,
            "value": 0.4015748031496063
          },
          {
            "number": 7,
            "time": 47.144346749999514,
            "value": 0.4015748031496063
          },
          {
            "number": 7,
            "time": 47.14957687499951,
            "value": 0.3937007874015748
          },
          {
            "number": 7,
            "time": 47.15480699999951,
            "value": 0.3937007874015748
          },
          {
            "number": 7,
            "time": 47.160037124999505,
            "value": 0.3937007874015748
          },
          {
            "number": 7,
            "time": 47.1652672499995,
            "value": 0.3937007874015748
          },
          {
            "number": 7,
            "time": 47.1704973749995,
            "value": 0.3858267716535433
          },
          {
            "number": 7,
            "time": 47.175727499999496,
            "value": 0.3858267716535433
          },
          {
            "number": 7,
            "time": 47.18095762499949,
            "value": 0.3858267716535433
          },
          {
            "number": 7,
            "time": 47.18618774999949,
            "value": 0.3858267716535433
          },
          {
            "number": 7,
            "time": 47.19141787499949,
            "value": 0.3779527559055118
          },
          {
            "number": 7,
            "time": 47.196647999999485,
            "value": 0.3779527559055118
          },
          {
            "number": 7,
            "time": 47.20187812499948,
            "value": 0.3779527559055118
          },
          {
            "number": 7,
            "time": 47.20710824999948,
            "value": 0.3779527559055118
          },
          {
            "number": 7,
            "time": 47.212338374999476,
            "value": 0.3700787401574803
          },
          {
            "number": 7,
            "time": 47.21756849999947,
            "value": 0.3700787401574803
          },
          {
            "number": 7,
            "time": 47.22279862499947,
            "value": 0.3700787401574803
          },
          {
            "number": 7,
            "time": 47.22802874999947,
            "value": 0.3700787401574803
          },
          {
            "number": 7,
            "time": 47.233258874999464,
            "value": 0.36220472440944884
          },
          {
            "number": 7,
            "time": 47.23848899999946,
            "value": 0.36220472440944884
          },
          {
            "number": 7,
            "time": 47.24371912499946,
            "value": 0.36220472440944884
          },
          {
            "number": 7,
            "time": 47.248949249999455,
            "value": 0.36220472440944884
          },
          {
            "number": 7,
            "time": 47.25417937499945,
            "value": 0.3543307086614173
          },
          {
            "number": 7,
            "time": 47.25940949999945,
            "value": 0.3543307086614173
          },
          {
            "number": 7,
            "time": 47.26463962499945,
            "value": 0.3543307086614173
          },
          {
            "number": 7,
            "time": 47.269869749999444,
            "value": 0.3543307086614173
          },
          {
            "number": 7,
            "time": 47.27509987499944,
            "value": 0.3464566929133858
          },
          {
            "number": 7,
            "time": 47.28032999999944,
            "value": 0.3464566929133858
          },
          {
            "number": 7,
            "time": 47.285560124999435,
            "value": 0.3464566929133858
          },
          {
            "number": 7,
            "time": 47.29079024999943,
            "value": 0.3464566929133858
          },
          {
            "number": 7,
            "time": 47.29602037499943,
            "value": 0.33858267716535434
          },
          {
            "number": 7,
            "time": 47.301250499999426,
            "value": 0.33858267716535434
          },
          {
            "number": 7,
            "time": 47.30648062499942,
            "value": 0.33858267716535434
          },
          {
            "number": 7,
            "time": 47.31171074999942,
            "value": 0.33858267716535434
          },
          {
            "number": 7,
            "time": 47.31694087499942,
            "value": 0.33070866141732286
          },
          {
            "number": 7,
            "time": 47.322170999999415,
            "value": 0.33070866141732286
          },
          {
            "number": 7,
            "time": 47.32740112499941,
            "value": 0.33070866141732286
          },
          {
            "number": 7,
            "time": 47.33263124999941,
            "value": 0.3228346456692913
          },
          {
            "number": 7,
            "time": 47.337861374999406,
            "value": 0.3228346456692913
          },
          {
            "number": 7,
            "time": 47.3430914999994,
            "value": 0.3228346456692913
          },
          {
            "number": 7,
            "time": 47.3483216249994,
            "value": 0.3228346456692913
          },
          {
            "number": 7,
            "time": 47.3535517499994,
            "value": 0.31496062992125984
          },
          {
            "number": 7,
            "time": 47.358781874999394,
            "value": 0.31496062992125984
          },
          {
            "number": 7,
            "time": 47.36401199999939,
            "value": 0.31496062992125984
          },
          {
            "number": 7,
            "time": 47.36924212499939,
            "value": 0.31496062992125984
          },
          {
            "number": 7,
            "time": 47.374472249999386,
            "value": 0.30708661417322836
          },
          {
            "number": 7,
            "time": 47.37970237499938,
            "value": 0.30708661417322836
          },
          {
            "number": 7,
            "time": 47.38493249999938,
            "value": 0.30708661417322836
          },
          {
            "number": 7,
            "time": 47.39016262499938,
            "value": 0.30708661417322836
          },
          {
            "number": 7,
            "time": 47.395392749999374,
            "value": 0.2992125984251969
          },
          {
            "number": 7,
            "time": 47.40062287499937,
            "value": 0.2992125984251969
          },
          {
            "number": 7,
            "time": 47.40585299999937,
            "value": 0.2992125984251969
          },
          {
            "number": 7,
            "time": 47.411083124999365,
            "value": 0.2992125984251969
          },
          {
            "number": 7,
            "time": 47.41631324999936,
            "value": 0.29133858267716534
          },
          {
            "number": 7,
            "time": 47.42154337499936,
            "value": 0.29133858267716534
          },
          {
            "number": 7,
            "time": 47.426773499999356,
            "value": 0.29133858267716534
          },
          {
            "number": 7,
            "time": 47.43200362499935,
            "value": 0.29133858267716534
          },
          {
            "number": 7,
            "time": 47.43723374999935,
            "value": 0.28346456692913385
          },
          {
            "number": 7,
            "time": 47.44246387499935,
            "value": 0.28346456692913385
          },
          {
            "number": 7,
            "time": 47.447693999999345,
            "value": 0.28346456692913385
          },
          {
            "number": 7,
            "time": 47.45292412499934,
            "value": 0.28346456692913385
          },
          {
            "number": 7,
            "time": 47.45815424999934,
            "value": 0.2755905511811024
          },
          {
            "number": 7,
            "time": 47.463384374999336,
            "value": 0.2755905511811024
          },
          {
            "number": 7,
            "time": 47.46861449999933,
            "value": 0.2755905511811024
          },
          {
            "number": 7,
            "time": 47.47384462499933,
            "value": 0.2755905511811024
          },
          {
            "number": 7,
            "time": 47.47907474999933,
            "value": 0.2677165354330709
          },
          {
            "number": 7,
            "time": 47.484304874999324,
            "value": 0.2677165354330709
          },
          {
            "number": 7,
            "time": 47.48953499999932,
            "value": 0.2677165354330709
          },
          {
            "number": 7,
            "time": 47.49476512499932,
            "value": 0.2677165354330709
          },
          {
            "number": 7,
            "time": 47.499995249999316,
            "value": 0.25984251968503935
          },
          {
            "number": 7,
            "time": 47.50522537499931,
            "value": 0.25984251968503935
          },
          {
            "number": 7,
            "time": 47.51045549999931,
            "value": 0.25984251968503935
          },
          {
            "number": 7,
            "time": 47.51568562499931,
            "value": 0.25984251968503935
          },
          {
            "number": 7,
            "time": 47.520915749999304,
            "value": 0.25196850393700787
          },
          {
            "number": 7,
            "time": 47.5261458749993,
            "value": 0.25196850393700787
          },
          {
            "number": 7,
            "time": 47.5313759999993,
            "value": 0.25196850393700787
          },
          {
            "number": 7,
            "time": 47.536606124999295,
            "value": 0.25196850393700787
          },
          {
            "number": 7,
            "time": 47.54183624999929,
            "value": 0.2440944881889764
          },
          {
            "number": 7,
            "time": 47.54706637499929,
            "value": 0.2440944881889764
          },
          {
            "number": 7,
            "time": 47.55229649999929,
            "value": 0.2440944881889764
          },
          {
            "number": 7,
            "time": 47.557526624999284,
            "value": 0.2440944881889764
          },
          {
            "number": 7,
            "time": 47.56275674999928,
            "value": 0.23622047244094488
          },
          {
            "number": 7,
            "time": 47.56798687499928,
            "value": 0.23622047244094488
          },
          {
            "number": 7,
            "time": 47.573216999999275,
            "value": 0.23622047244094488
          },
          {
            "number": 7,
            "time": 47.57844712499927,
            "value": 0.23622047244094488
          },
          {
            "number": 7,
            "time": 47.58367724999927,
            "value": 0.2283464566929134
          },
          {
            "number": 7,
            "time": 47.588907374999266,
            "value": 0.2283464566929134
          },
          {
            "number": 7,
            "time": 47.59413749999926,
            "value": 0.2283464566929134
          },
          {
            "number": 7,
            "time": 47.59936762499926,
            "value": 0.2283464566929134
          },
          {
            "number": 7,
            "time": 47.60459774999926,
            "value": 0.2204724409448819
          },
          {
            "number": 7,
            "time": 47.609827874999255,
            "value": 0.2204724409448819
          },
          {
            "number": 7,
            "time": 47.61505799999925,
            "value": 0.2204724409448819
          },
          {
            "number": 7,
            "time": 47.62028812499925,
            "value": 0.2204724409448819
          },
          {
            "number": 7,
            "time": 47.625518249999246,
            "value": 0.2125984251968504
          },
          {
            "number": 7,
            "time": 47.63074837499924,
            "value": 0.2125984251968504
          },
          {
            "number": 7,
            "time": 47.63597849999924,
            "value": 0.2125984251968504
          },
          {
            "number": 7,
            "time": 47.64120862499924,
            "value": 0.2125984251968504
          },
          {
            "number": 7,
            "time": 47.646438749999234,
            "value": 0.2047244094488189
          },
          {
            "number": 7,
            "time": 47.65166887499923,
            "value": 0.2047244094488189
          },
          {
            "number": 7,
            "time": 47.65689899999923,
            "value": 0.2047244094488189
          },
          {
            "number": 7,
            "time": 47.662129124999225,
            "value": 0.2047244094488189
          },
          {
            "number": 7,
            "time": 47.66735924999922,
            "value": 0.1968503937007874
          },
          {
            "number": 7,
            "time": 47.67258937499922,
            "value": 0.1968503937007874
          },
          {
            "number": 7,
            "time": 47.67781949999922,
            "value": 0.1968503937007874
          },
          {
            "number": 7,
            "time": 47.683049624999214,
            "value": 0.1968503937007874
          },
          {
            "number": 7,
            "time": 47.68827974999921,
            "value": 0.1889763779527559
          },
          {
            "number": 7,
            "time": 47.69350987499921,
            "value": 0.1889763779527559
          },
          {
            "number": 7,
            "time": 47.698739999999205,
            "value": 0.1889763779527559
          },
          {
            "number": 7,
            "time": 47.7039701249992,
            "value": 0.1889763779527559
          },
          {
            "number": 7,
            "time": 47.7092002499992,
            "value": 0.18110236220472442
          },
          {
            "number": 7,
            "time": 47.714430374999196,
            "value": 0.18110236220472442
          },
          {
            "number": 7,
            "time": 47.71966049999919,
            "value": 0.18110236220472442
          },
          {
            "number": 7,
            "time": 47.72489062499919,
            "value": 0.18110236220472442
          },
          {
            "number": 7,
            "time": 47.73012074999919,
            "value": 0.1732283464566929
          },
          {
            "number": 7,
            "time": 47.735350874999185,
            "value": 0.1732283464566929
          },
          {
            "number": 7,
            "time": 47.74058099999918,
            "value": 0.1732283464566929
          },
          {
            "number": 7,
            "time": 47.74581112499918,
            "value": 0.1732283464566929
          },
          {
            "number": 7,
            "time": 47.751041249999176,
            "value": 0.16535433070866143
          },
          {
            "number": 7,
            "time": 47.75627137499917,
            "value": 0.16535433070866143
          },
          {
            "number": 7,
            "time": 47.76150149999917,
            "value": 0.16535433070866143
          },
          {
            "number": 7,
            "time": 47.76673162499917,
            "value": 0.16535433070866143
          },
          {
            "number": 7,
            "time": 47.771961749999164,
            "value": 0.15748031496062992
          },
          {
            "number": 7,
            "time": 47.77719187499916,
            "value": 0.15748031496062992
          },
          {
            "number": 7,
            "time": 47.78242199999916,
            "value": 0.15748031496062992
          },
          {
            "number": 7,
            "time": 47.787652124999155,
            "value": 0.14960629921259844
          },
          {
            "number": 7,
            "time": 47.79288224999915,
            "value": 0.14960629921259844
          },
          {
            "number": 7,
            "time": 47.79811237499915,
            "value": 0.14960629921259844
          },
          {
            "number": 7,
            "time": 47.80334249999915,
            "value": 0.14960629921259844
          },
          {
            "number": 7,
            "time": 47.808572624999144,
            "value": 0.14173228346456693
          },
          {
            "number": 7,
            "time": 47.81380274999914,
            "value": 0.14173228346456693
          },
          {
            "number": 7,
            "time": 47.81903287499914,
            "value": 0.14173228346456693
          },
          {
            "number": 7,
            "time": 47.824262999999135,
            "value": 0.14173228346456693
          },
          {
            "number": 7,
            "time": 47.82949312499913,
            "value": 0.13385826771653545
          },
          {
            "number": 7,
            "time": 47.83472324999913,
            "value": 0.13385826771653545
          },
          {
            "number": 7,
            "time": 47.839953374999126,
            "value": 0.13385826771653545
          },
          {
            "number": 7,
            "time": 47.84518349999912,
            "value": 0.13385826771653545
          },
          {
            "number": 7,
            "time": 47.85041362499912,
            "value": 0.12598425196850394
          },
          {
            "number": 7,
            "time": 47.85564374999912,
            "value": 0.12598425196850394
          },
          {
            "number": 7,
            "time": 47.860873874999115,
            "value": 0.12598425196850394
          },
          {
            "number": 7,
            "time": 47.86610399999911,
            "value": 0.12598425196850394
          },
          {
            "number": 7,
            "time": 47.87133412499911,
            "value": 0.11811023622047244
          },
          {
            "number": 7,
            "time": 47.876564249999106,
            "value": 0.11811023622047244
          },
          {
            "number": 7,
            "time": 47.8817943749991,
            "value": 0.11811023622047244
          },
          {
            "number": 7,
            "time": 47.8870244999991,
            "value": 0.11811023622047244
          },
          {
            "number": 7,
            "time": 47.8922546249991,
            "value": 0.11023622047244094
          },
          {
            "number": 7,
            "time": 47.897484749999094,
            "value": 0.11023622047244094
          },
          {
            "number": 7,
            "time": 47.90271487499909,
            "value": 0.11023622047244094
          },
          {
            "number": 7,
            "time": 47.90794499999909,
            "value": 0.11023622047244094
          },
          {
            "number": 7,
            "time": 47.913175124999086,
            "value": 0.10236220472440945
          },
          {
            "number": 7,
            "time": 47.91840524999908,
            "value": 0.10236220472440945
          },
          {
            "number": 7,
            "time": 47.92363537499908,
            "value": 0.10236220472440945
          },
          {
            "number": 7,
            "time": 47.92886549999908,
            "value": 0.10236220472440945
          },
          {
            "number": 7,
            "time": 47.934095624999074,
            "value": 0.09448818897637795
          },
          {
            "number": 7,
            "time": 47.93932574999907,
            "value": 0.09448818897637795
          },
          {
            "number": 7,
            "time": 47.94455587499907,
            "value": 0.09448818897637795
          },
          {
            "number": 7,
            "time": 47.949785999999065,
            "value": 0.09448818897637795
          },
          {
            "number": 7,
            "time": 47.95501612499906,
            "value": 0.08661417322834646
          },
          {
            "number": 7,
            "time": 47.96024624999906,
            "value": 0.08661417322834646
          },
          {
            "number": 7,
            "time": 47.96547637499906,
            "value": 0.08661417322834646
          },
          {
            "number": 7,
            "time": 47.970706499999054,
            "value": 0.08661417322834646
          },
          {
            "number": 7,
            "time": 47.97593662499905,
            "value": 0.07874015748031496
          },
          {
            "number": 7,
            "time": 47.98116674999905,
            "value": 0.07874015748031496
          },
          {
            "number": 7,
            "time": 47.986396874999045,
            "value": 0.07874015748031496
          },
          {
            "number": 7,
            "time": 47.99162699999904,
            "value": 0.07874015748031496
          },
          {
            "number": 7,
            "time": 47.99685712499904,
            "value": 0.07086614173228346
          },
          {
            "number": 7,
            "time": 48.002087249999036,
            "value": 0.07086614173228346
          },
          {
            "number": 7,
            "time": 48.00731737499903,
            "value": 0.07086614173228346
          },
          {
            "number": 7,
            "time": 48.01254749999903,
            "value": 0.07086614173228346
          },
          {
            "number": 7,
            "time": 48.01777762499903,
            "value": 0.06299212598425197
          },
          {
            "number": 7,
            "time": 48.023007749999024,
            "value": 0.06299212598425197
          },
          {
            "number": 7,
            "time": 48.02823787499902,
            "value": 0.06299212598425197
          },
          {
            "number": 7,
            "time": 48.03346799999902,
            "value": 0.06299212598425197
          },
          {
            "number": 7,
            "time": 48.038698124999016,
            "value": 0.05511811023622047
          },
          {
            "number": 7,
            "time": 48.04392824999901,
            "value": 0.05511811023622047
          },
          {
            "number": 7,
            "time": 48.04915837499901,
            "value": 0.05511811023622047
          },
          {
            "number": 7,
            "time": 48.05438849999901,
            "value": 0.05511811023622047
          },
          {
            "number": 7,
            "time": 48.059618624999004,
            "value": 0.047244094488188976
          },
          {
            "number": 7,
            "time": 48.064848749999,
            "value": 0.047244094488188976
          },
          {
            "number": 7,
            "time": 48.070078874999,
            "value": 0.047244094488188976
          },
          {
            "number": 7,
            "time": 48.075308999998995,
            "value": 0.047244094488188976
          },
          {
            "number": 7,
            "time": 48.08053912499899,
            "value": 0.03937007874015748
          },
          {
            "number": 7,
            "time": 48.08576924999899,
            "value": 0.03937007874015748
          },
          {
            "number": 7,
            "time": 48.09099937499899,
            "value": 0.03937007874015748
          },
          {
            "number": 7,
            "time": 48.096229499998984,
            "value": 0.03937007874015748
          },
          {
            "number": 7,
            "time": 48.10145962499898,
            "value": 0.031496062992125984
          },
          {
            "number": 7,
            "time": 48.10668974999898,
            "value": 0.031496062992125984
          },
          {
            "number": 7,
            "time": 48.111919874998975,
            "value": 0.031496062992125984
          },
          {
            "number": 7,
            "time": 48.11714999999897,
            "value": 0.031496062992125984
          },
          {
            "number": 7,
            "time": 48.12238012499897,
            "value": 0.023622047244094488
          },
          {
            "number": 7,
            "time": 48.127610249998966,
            "value": 0.023622047244094488
          },
          {
            "number": 7,
            "time": 48.13284037499896,
            "value": 0.023622047244094488
          },
          {
            "number": 7,
            "time": 48.13807049999896,
            "value": 0.023622047244094488
          },
          {
            "number": 7,
            "time": 48.14330062499896,
            "value": 0.015748031496062992
          },
          {
            "number": 7,
            "time": 48.148530749998955,
            "value": 0.015748031496062992
          },
          {
            "number": 7,
            "time": 48.15376087499895,
            "value": 0.015748031496062992
          },
          {
            "number": 7,
            "time": 48.15899099999895,
            "value": 0.015748031496062992
          },
          {
            "number": 7,
            "time": 48.164221124998946,
            "value": 0.007874015748031496
          },
          {
            "number": 7,
            "time": 48.16945124999894,
            "value": 0.007874015748031496
          },
          {
            "number": 7,
            "time": 48.17468137499894,
            "value": 0.007874015748031496
          },
          {
            "number": 7,
            "time": 48.17991149999894,
            "value": 0.007874015748031496
          },
          {
            "number": 7,
            "time": 48.185141624998934,
            "value": 0
          },
          {
            "number": 7,
            "time": 48.19037174999893,
            "value": 0
          },
          {
            "number": 7,
            "time": 48.19560187499893,
            "value": 0
          },
          {
            "number": 7,
            "time": 48.200831999998925,
            "value": 0
          },
          {
            "number": 7,
            "time": 60.25103999999892,
            "value": 0.7559055118110236
          },
          {
            "number": 7,
            "time": 108.45187199999914,
            "value": 0.7559055118110236
          },
          {
            "number": 7,
            "time": 108.46233224999914,
            "value": 0.7559055118110236
          },
          {
            "number": 7,
            "time": 108.46233224999914,
            "value": 0.7559055118110236
          }
        ],
        "10": [
          {
            "number": 10,
            "time": 0,
            "value": 0.5039370078740157
          },
          {
            "number": 10,
            "time": 0,
            "value": 0.5039370078740157
          },
          {
            "number": 10,
            "time": 0,
            "value": 0.5039370078740157
          },
          {
            "number": 10,
            "time": 0,
            "value": 0.5039370078740157
          },
          {
            "number": 10,
            "time": 108.45187199999914,
            "value": 0.5039370078740157
          },
          {
            "number": 10,
            "time": 108.46233224999914,
            "value": 0.5039370078740157
          },
          {
            "number": 10,
            "time": 108.46233224999914,
            "value": 0.5039370078740157
          }
        ],
        "100": [
          {
            "number": 100,
            "time": 0,
            "value": 0
          },
          {
            "number": 100,
            "time": 0,
            "value": 0
          },
          {
            "number": 100,
            "time": 0,
            "value": 0
          },
          {
            "number": 100,
            "time": 108.45187199999914,
            "value": 0
          },
          {
            "number": 100,
            "time": 108.46233224999914,
            "value": 0
          },
          {
            "number": 100,
            "time": 108.46233224999914,
            "value": 0
          }
        ],
        "101": [
          {
            "number": 101,
            "time": 0,
            "value": 0
          },
          {
            "number": 101,
            "time": 0,
            "value": 0
          },
          {
            "number": 101,
            "time": 0,
            "value": 0
          },
          {
            "number": 101,
            "time": 108.45187199999914,
            "value": 0
          },
          {
            "number": 101,
            "time": 108.46233224999914,
            "value": 0
          },
          {
            "number": 101,
            "time": 108.46233224999914,
            "value": 0
          }
        ]
      },
      "id": 12,
      "name": "MIDI out #4",
      "instrumentNumber": 41,
      "instrument": "viola",
      "instrumentFamily": "strings",
      "channelNumber": 3,
      "isPercussion": false
    },
    {
      "startTime": 10.543932,
      "duration": 106.94559600000031,
      "length": 202,
      "notes": [
        {
          "name": "D#5",
          "midi": 75,
          "time": 10.543932,
          "velocity": 0.6771653543307087,
          "duration": 0.25104600000000055
        },
        {
          "name": "C6",
          "midi": 84,
          "time": 10.794978,
          "velocity": 0.6771653543307087,
          "duration": 0.25104600000000055
        },
        {
          "name": "A#5",
          "midi": 82,
          "time": 11.046024000000001,
          "velocity": 0.6771653543307087,
          "duration": 0.25104600000000055
        },
        {
          "name": "G#5",
          "midi": 80,
          "time": 11.297070000000001,
          "velocity": 0.6771653543307087,
          "duration": 0.12552299999999939
        },
        {
          "name": "F#5",
          "midi": 78,
          "time": 11.422593,
          "velocity": 0.6771653543307087,
          "duration": 0.12552299999999939
        },
        {
          "name": "F5",
          "midi": 77,
          "time": 11.548116,
          "velocity": 0.6771653543307087,
          "duration": 0.12552299999999939
        },
        {
          "name": "G#5",
          "midi": 80,
          "time": 11.799161999999999,
          "velocity": 0.6771653543307087,
          "duration": 0.12552299999999939
        },
        {
          "name": "A#5",
          "midi": 82,
          "time": 12.050207999999998,
          "velocity": 0.6771653543307087,
          "duration": 1.0041840000000004
        },
        {
          "name": "F5",
          "midi": 77,
          "time": 13.054391999999998,
          "velocity": 0.6771653543307087,
          "duration": 0.12552299999999939
        },
        {
          "name": "G#5",
          "midi": 80,
          "time": 13.305437999999997,
          "velocity": 0.6771653543307087,
          "duration": 0.12552299999999939
        },
        {
          "name": "A#5",
          "midi": 82,
          "time": 13.556483999999996,
          "velocity": 0.6771653543307087,
          "duration": 0.5020919999999993
        },
        {
          "name": "C#6",
          "midi": 85,
          "time": 14.058575999999995,
          "velocity": 0.6771653543307087,
          "duration": 0.12552299999999939
        },
        {
          "name": "D#6",
          "midi": 87,
          "time": 14.309621999999994,
          "velocity": 0.6771653543307087,
          "duration": 0.12552299999999939
        },
        {
          "name": "C#6",
          "midi": 85,
          "time": 14.435144999999993,
          "velocity": 0.6771653543307087,
          "duration": 0.12552299999999939
        },
        {
          "name": "C6",
          "midi": 84,
          "time": 14.560667999999993,
          "velocity": 0.6771653543307087,
          "duration": 0.12552299999999939
        },
        {
          "name": "C#6",
          "midi": 85,
          "time": 14.811713999999991,
          "velocity": 0.6771653543307087,
          "duration": 0.12552299999999939
        },
        {
          "name": "A#5",
          "midi": 82,
          "time": 15.06275999999999,
          "velocity": 0.6771653543307087,
          "duration": 2.008368000000001
        },
        {
          "name": "D#5",
          "midi": 75,
          "time": 28.61924399999999,
          "velocity": 0.6771653543307087,
          "duration": 0.25104599999999877
        },
        {
          "name": "C6",
          "midi": 84,
          "time": 28.87028999999999,
          "velocity": 0.6771653543307087,
          "duration": 0.25104599999999877
        },
        {
          "name": "A#5",
          "midi": 82,
          "time": 29.12133599999999,
          "velocity": 0.6771653543307087,
          "duration": 0.25104599999999877
        },
        {
          "name": "G#5",
          "midi": 80,
          "time": 29.372381999999988,
          "velocity": 0.6771653543307087,
          "duration": 0.12552300000000116
        },
        {
          "name": "F#5",
          "midi": 78,
          "time": 29.49790499999999,
          "velocity": 0.6771653543307087,
          "duration": 0.12552300000000116
        },
        {
          "name": "F5",
          "midi": 77,
          "time": 29.62342799999999,
          "velocity": 0.6771653543307087,
          "duration": 0.12552300000000116
        },
        {
          "name": "G#5",
          "midi": 80,
          "time": 29.874473999999992,
          "velocity": 0.6771653543307087,
          "duration": 0.12552300000000116
        },
        {
          "name": "A#5",
          "midi": 82,
          "time": 30.125519999999995,
          "velocity": 0.6771653543307087,
          "duration": 1.0041839999999986
        },
        {
          "name": "F5",
          "midi": 77,
          "time": 31.129703999999993,
          "velocity": 0.6771653543307087,
          "duration": 0.12552300000000116
        },
        {
          "name": "G#5",
          "midi": 80,
          "time": 31.380749999999995,
          "velocity": 0.6771653543307087,
          "duration": 0.12552300000000116
        },
        {
          "name": "A#5",
          "midi": 82,
          "time": 31.631795999999998,
          "velocity": 0.6771653543307087,
          "duration": 0.5020920000000011
        },
        {
          "name": "C#6",
          "midi": 85,
          "time": 32.133888,
          "velocity": 0.6771653543307087,
          "duration": 0.12552300000000116
        },
        {
          "name": "D#6",
          "midi": 87,
          "time": 32.384934,
          "velocity": 0.6771653543307087,
          "duration": 0.12552300000000116
        },
        {
          "name": "C#6",
          "midi": 85,
          "time": 32.510457,
          "velocity": 0.6771653543307087,
          "duration": 0.12552300000000116
        },
        {
          "name": "C6",
          "midi": 84,
          "time": 32.63598,
          "velocity": 0.6771653543307087,
          "duration": 0.12552300000000116
        },
        {
          "name": "C#6",
          "midi": 85,
          "time": 32.887026000000006,
          "velocity": 0.6771653543307087,
          "duration": 0.12552300000000116
        },
        {
          "name": "A#5",
          "midi": 82,
          "time": 33.13807200000001,
          "velocity": 0.6771653543307087,
          "duration": 1.5062759999999997
        },
        {
          "name": "A#5",
          "midi": 82,
          "time": 35.39748600000001,
          "velocity": 0.6771653543307087,
          "duration": 0.2510460000000023
        },
        {
          "name": "C#6",
          "midi": 85,
          "time": 35.64853200000001,
          "velocity": 0.6771653543307087,
          "duration": 0.2510460000000023
        },
        {
          "name": "D#6",
          "midi": 87,
          "time": 35.89957800000001,
          "velocity": 0.6771653543307087,
          "duration": 0.2510460000000023
        },
        {
          "name": "F6",
          "midi": 89,
          "time": 36.150624000000015,
          "velocity": 0.6771653543307087,
          "duration": 0.7531379999999999
        },
        {
          "name": "C#6",
          "midi": 85,
          "time": 37.15480800000002,
          "velocity": 0.6771653543307087,
          "duration": 0.2510460000000023
        },
        {
          "name": "D#6",
          "midi": 87,
          "time": 37.40585400000002,
          "velocity": 0.6771653543307087,
          "duration": 0.2510460000000023
        },
        {
          "name": "F6",
          "midi": 89,
          "time": 37.65690000000002,
          "velocity": 0.6771653543307087,
          "duration": 0.5020919999999975
        },
        {
          "name": "D#6",
          "midi": 87,
          "time": 38.15899200000002,
          "velocity": 0.6771653543307087,
          "duration": 0.2510460000000023
        },
        {
          "name": "C#6",
          "midi": 85,
          "time": 38.41003800000002,
          "velocity": 0.6771653543307087,
          "duration": 0.12552300000000116
        },
        {
          "name": "D#6",
          "midi": 87,
          "time": 38.53556100000002,
          "velocity": 0.6771653543307087,
          "duration": 0.12552300000000116
        },
        {
          "name": "C6",
          "midi": 84,
          "time": 38.661084000000024,
          "velocity": 0.6771653543307087,
          "duration": 0.12552300000000116
        },
        {
          "name": "G#5",
          "midi": 80,
          "time": 38.912130000000026,
          "velocity": 0.6771653543307087,
          "duration": 0.2510460000000023
        },
        {
          "name": "A#5",
          "midi": 82,
          "time": 39.16317600000003,
          "velocity": 0.6771653543307087,
          "duration": 1.0041840000000022
        },
        {
          "name": "C#5",
          "midi": 73,
          "time": 40.16736000000003,
          "velocity": 0.7874015748031497,
          "duration": 0.2510460000000023
        },
        {
          "name": "D#5",
          "midi": 75,
          "time": 40.41840600000003,
          "velocity": 0.7874015748031497,
          "duration": 0.2510460000000023
        },
        {
          "name": "F5",
          "midi": 77,
          "time": 40.669452000000035,
          "velocity": 0.7874015748031497,
          "duration": 0.5020919999999975
        },
        {
          "name": "D#5",
          "midi": 75,
          "time": 41.17154400000003,
          "velocity": 0.7874015748031497,
          "duration": 0.2510460000000023
        },
        {
          "name": "C#5",
          "midi": 73,
          "time": 41.422590000000035,
          "velocity": 0.7874015748031497,
          "duration": 0.12552300000000116
        },
        {
          "name": "D#5",
          "midi": 75,
          "time": 41.548113000000036,
          "velocity": 0.7874015748031497,
          "duration": 0.12552300000000116
        },
        {
          "name": "C5",
          "midi": 72,
          "time": 41.67363600000004,
          "velocity": 0.7874015748031497,
          "duration": 0.12552300000000116
        },
        {
          "name": "G#5",
          "midi": 80,
          "time": 41.92468200000004,
          "velocity": 0.7874015748031497,
          "duration": 0.2510460000000023
        },
        {
          "name": "F5",
          "midi": 77,
          "time": 42.17572800000004,
          "velocity": 0.7874015748031497,
          "duration": 1.0041840000000022
        },
        {
          "name": "C#6",
          "midi": 85,
          "time": 43.179912000000044,
          "velocity": 0.6771653543307087,
          "duration": 0.2510460000000023
        },
        {
          "name": "D#6",
          "midi": 87,
          "time": 43.43095800000005,
          "velocity": 0.6771653543307087,
          "duration": 0.2510460000000023
        },
        {
          "name": "F6",
          "midi": 89,
          "time": 43.68200400000005,
          "velocity": 0.6771653543307087,
          "duration": 0.5020919999999975
        },
        {
          "name": "D#6",
          "midi": 87,
          "time": 44.184096000000046,
          "velocity": 0.6771653543307087,
          "duration": 0.2510460000000023
        },
        {
          "name": "C#6",
          "midi": 85,
          "time": 44.43514200000005,
          "velocity": 0.6771653543307087,
          "duration": 0.12552300000000116
        },
        {
          "name": "D#6",
          "midi": 87,
          "time": 44.56066500000005,
          "velocity": 0.6771653543307087,
          "duration": 0.12552300000000116
        },
        {
          "name": "C6",
          "midi": 84,
          "time": 44.68618800000005,
          "velocity": 0.6771653543307087,
          "duration": 0.12552300000000116
        },
        {
          "name": "G#5",
          "midi": 80,
          "time": 44.93723400000005,
          "velocity": 0.6771653543307087,
          "duration": 0.2510460000000023
        },
        {
          "name": "A#5",
          "midi": 82,
          "time": 45.188280000000056,
          "velocity": 0.6771653543307087,
          "duration": 2.0083679999999973
        },
        {
          "name": "B5",
          "midi": 83,
          "time": 48.200832000000055,
          "velocity": 0.5669291338582677,
          "duration": 0.06276150000000058
        },
        {
          "name": "D#6",
          "midi": 87,
          "time": 48.200832000000055,
          "velocity": 0.7874015748031497,
          "duration": 0.06276150000000058
        },
        {
          "name": "D#6",
          "midi": 87,
          "time": 48.326355000000056,
          "velocity": 0.7874015748031497,
          "duration": 0.06276150000000058
        },
        {
          "name": "B5",
          "midi": 83,
          "time": 48.326355000000056,
          "velocity": 0.5669291338582677,
          "duration": 0.06276150000000058
        },
        {
          "name": "D#6",
          "midi": 87,
          "time": 48.57740100000006,
          "velocity": 0.7874015748031497,
          "duration": 0.06276150000000058
        },
        {
          "name": "B5",
          "midi": 83,
          "time": 48.57740100000006,
          "velocity": 0.5669291338582677,
          "duration": 0.06276150000000058
        },
        {
          "name": "D#6",
          "midi": 87,
          "time": 48.82844700000006,
          "velocity": 0.7874015748031497,
          "duration": 0.06276150000000058
        },
        {
          "name": "B5",
          "midi": 83,
          "time": 48.82844700000006,
          "velocity": 0.5669291338582677,
          "duration": 0.06276150000000058
        },
        {
          "name": "A#5",
          "midi": 82,
          "time": 48.95397000000006,
          "velocity": 0.5669291338582677,
          "duration": 0.06276150000000058
        },
        {
          "name": "D#6",
          "midi": 87,
          "time": 48.95397000000006,
          "velocity": 0.7874015748031497,
          "duration": 0.06276150000000058
        },
        {
          "name": "D#6",
          "midi": 87,
          "time": 49.205016000000064,
          "velocity": 0.7874015748031497,
          "duration": 0.06276150000000058
        },
        {
          "name": "A#5",
          "midi": 82,
          "time": 49.205016000000064,
          "velocity": 0.5669291338582677,
          "duration": 0.06276150000000058
        },
        {
          "name": "D#6",
          "midi": 87,
          "time": 49.45606200000007,
          "velocity": 0.7874015748031497,
          "duration": 0.06276150000000058
        },
        {
          "name": "A#5",
          "midi": 82,
          "time": 49.45606200000007,
          "velocity": 0.5669291338582677,
          "duration": 0.06276150000000058
        },
        {
          "name": "G#5",
          "midi": 80,
          "time": 49.70710800000007,
          "velocity": 0.5669291338582677,
          "duration": 0.06276150000000058
        },
        {
          "name": "D#6",
          "midi": 87,
          "time": 49.70710800000007,
          "velocity": 0.7874015748031497,
          "duration": 0.06276150000000058
        },
        {
          "name": "D#6",
          "midi": 87,
          "time": 49.83263100000007,
          "velocity": 0.7874015748031497,
          "duration": 0.06276150000000058
        },
        {
          "name": "G#5",
          "midi": 80,
          "time": 49.83263100000007,
          "velocity": 0.5669291338582677,
          "duration": 0.06276150000000058
        },
        {
          "name": "D#6",
          "midi": 87,
          "time": 50.08367700000007,
          "velocity": 0.7874015748031497,
          "duration": 0.06276150000000058
        },
        {
          "name": "G#5",
          "midi": 80,
          "time": 50.08367700000007,
          "velocity": 0.5669291338582677,
          "duration": 0.06276150000000058
        },
        {
          "name": "D#6",
          "midi": 87,
          "time": 50.334723000000075,
          "velocity": 0.7874015748031497,
          "duration": 0.06276150000000058
        },
        {
          "name": "G#5",
          "midi": 80,
          "time": 50.334723000000075,
          "velocity": 0.5669291338582677,
          "duration": 0.06276150000000058
        },
        {
          "name": "G#5",
          "midi": 80,
          "time": 50.460246000000076,
          "velocity": 0.5669291338582677,
          "duration": 0.06276150000000058
        },
        {
          "name": "D#6",
          "midi": 87,
          "time": 50.460246000000076,
          "velocity": 0.7874015748031497,
          "duration": 0.06276150000000058
        },
        {
          "name": "F#6",
          "midi": 90,
          "time": 50.71129200000008,
          "velocity": 0.7874015748031497,
          "duration": 0.06276150000000058
        },
        {
          "name": "G#5",
          "midi": 80,
          "time": 50.71129200000008,
          "velocity": 0.5669291338582677,
          "duration": 0.06276150000000058
        },
        {
          "name": "G#6",
          "midi": 92,
          "time": 50.96233800000008,
          "velocity": 0.7874015748031497,
          "duration": 0.06276150000000058
        },
        {
          "name": "G#5",
          "midi": 80,
          "time": 50.96233800000008,
          "velocity": 0.5669291338582677,
          "duration": 0.2510460000000023
        },
        {
          "name": "D#5",
          "midi": 75,
          "time": 61.75731600000008,
          "velocity": 0.6062992125984252,
          "duration": 0.2510460000000023
        },
        {
          "name": "C6",
          "midi": 84,
          "time": 62.00836200000008,
          "velocity": 0.6062992125984252,
          "duration": 0.2510460000000023
        },
        {
          "name": "A#5",
          "midi": 82,
          "time": 62.259408000000086,
          "velocity": 0.6062992125984252,
          "duration": 0.2510460000000023
        },
        {
          "name": "G#5",
          "midi": 80,
          "time": 62.51045400000009,
          "velocity": 0.6062992125984252,
          "duration": 0.12552300000000116
        },
        {
          "name": "G#5",
          "midi": 80,
          "time": 62.51045400000009,
          "velocity": 0.6062992125984252,
          "duration": 0.12552300000000116
        },
        {
          "name": "F#5",
          "midi": 78,
          "time": 62.63597700000009,
          "velocity": 0.6062992125984252,
          "duration": 0.12552300000000116
        },
        {
          "name": "F5",
          "midi": 77,
          "time": 62.76150000000009,
          "velocity": 0.6062992125984252,
          "duration": 0.12552300000000116
        },
        {
          "name": "G#5",
          "midi": 80,
          "time": 63.01254600000009,
          "velocity": 0.6062992125984252,
          "duration": 0.12552300000000116
        },
        {
          "name": "A#5",
          "midi": 82,
          "time": 63.263592000000095,
          "velocity": 0.6062992125984252,
          "duration": 0.2510460000000023
        },
        {
          "name": "B5",
          "midi": 83,
          "time": 63.7656840000001,
          "velocity": 0.6062992125984252,
          "duration": 0.2510459999999952
        },
        {
          "name": "D#6",
          "midi": 87,
          "time": 64.0167300000001,
          "velocity": 0.6062992125984252,
          "duration": 0.2510460000000023
        },
        {
          "name": "C#6",
          "midi": 85,
          "time": 64.2677760000001,
          "velocity": 0.6062992125984252,
          "duration": 0.2510460000000023
        },
        {
          "name": "D#6",
          "midi": 87,
          "time": 64.5188220000001,
          "velocity": 0.6062992125984252,
          "duration": 0.2510460000000023
        },
        {
          "name": "F6",
          "midi": 89,
          "time": 64.7698680000001,
          "velocity": 0.6062992125984252,
          "duration": 0.5020920000000046
        },
        {
          "name": "D#6",
          "midi": 87,
          "time": 65.2719600000001,
          "velocity": 0.6062992125984252,
          "duration": 0.2510460000000023
        },
        {
          "name": "F#6",
          "midi": 90,
          "time": 65.52300600000011,
          "velocity": 0.6062992125984252,
          "duration": 0.2510460000000023
        },
        {
          "name": "F6",
          "midi": 89,
          "time": 65.77405200000011,
          "velocity": 0.6062992125984252,
          "duration": 0.2510460000000023
        },
        {
          "name": "D#6",
          "midi": 87,
          "time": 66.02509800000011,
          "velocity": 0.6062992125984252,
          "duration": 0.2510460000000023
        },
        {
          "name": "F6",
          "midi": 89,
          "time": 66.27614400000012,
          "velocity": 0.6062992125984252,
          "duration": 0.5020920000000046
        },
        {
          "name": "F#6",
          "midi": 90,
          "time": 66.77823600000012,
          "velocity": 0.6062992125984252,
          "duration": 0.12552300000000116
        },
        {
          "name": "F6",
          "midi": 89,
          "time": 67.02928200000012,
          "velocity": 0.6062992125984252,
          "duration": 0.12552300000000116
        },
        {
          "name": "F#6",
          "midi": 90,
          "time": 67.15480500000012,
          "velocity": 0.6062992125984252,
          "duration": 0.12552300000000116
        },
        {
          "name": "D#6",
          "midi": 87,
          "time": 67.28032800000013,
          "velocity": 0.6062992125984252,
          "duration": 0.2510460000000023
        },
        {
          "name": "F6",
          "midi": 89,
          "time": 67.53137400000013,
          "velocity": 0.6062992125984252,
          "duration": 0.2510460000000023
        },
        {
          "name": "C#6",
          "midi": 85,
          "time": 67.78242000000013,
          "velocity": 0.6062992125984252,
          "duration": 0.5020920000000046
        },
        {
          "name": "D#6",
          "midi": 87,
          "time": 68.28451200000013,
          "velocity": 0.6062992125984252,
          "duration": 0.2510460000000023
        },
        {
          "name": "C#6",
          "midi": 85,
          "time": 68.53555800000014,
          "velocity": 0.6062992125984252,
          "duration": 0.12552300000000116
        },
        {
          "name": "D#6",
          "midi": 87,
          "time": 68.66108100000014,
          "velocity": 0.6062992125984252,
          "duration": 0.12552300000000116
        },
        {
          "name": "A#5",
          "midi": 82,
          "time": 68.78660400000014,
          "velocity": 0.6062992125984252,
          "duration": 0.2510460000000023
        },
        {
          "name": "G#5",
          "midi": 80,
          "time": 69.03765000000014,
          "velocity": 0.6062992125984252,
          "duration": 0.2510460000000023
        },
        {
          "name": "A#5",
          "midi": 82,
          "time": 75.31380000000014,
          "velocity": 0.6062992125984252,
          "duration": 0.2510460000000023
        },
        {
          "name": "B5",
          "midi": 83,
          "time": 75.81589200000015,
          "velocity": 0.6062992125984252,
          "duration": 0.2510460000000023
        },
        {
          "name": "D#6",
          "midi": 87,
          "time": 76.06693800000015,
          "velocity": 0.6062992125984252,
          "duration": 0.2510460000000023
        },
        {
          "name": "C#6",
          "midi": 85,
          "time": 76.31798400000015,
          "velocity": 0.6062992125984252,
          "duration": 0.2510460000000023
        },
        {
          "name": "D#6",
          "midi": 87,
          "time": 76.56903000000015,
          "velocity": 0.6062992125984252,
          "duration": 0.2510460000000023
        },
        {
          "name": "F6",
          "midi": 89,
          "time": 76.82007600000016,
          "velocity": 0.6062992125984252,
          "duration": 0.5020920000000046
        },
        {
          "name": "D#6",
          "midi": 87,
          "time": 77.32216800000016,
          "velocity": 0.6062992125984252,
          "duration": 0.2510460000000023
        },
        {
          "name": "F#6",
          "midi": 90,
          "time": 77.57321400000016,
          "velocity": 0.6062992125984252,
          "duration": 0.2510460000000023
        },
        {
          "name": "F6",
          "midi": 89,
          "time": 77.82426000000017,
          "velocity": 0.6062992125984252,
          "duration": 0.2510460000000023
        },
        {
          "name": "D#6",
          "midi": 87,
          "time": 78.07530600000017,
          "velocity": 0.6062992125984252,
          "duration": 0.2510460000000023
        },
        {
          "name": "F6",
          "midi": 89,
          "time": 78.32635200000017,
          "velocity": 0.6062992125984252,
          "duration": 0.5020920000000046
        },
        {
          "name": "F#6",
          "midi": 90,
          "time": 78.82844400000018,
          "velocity": 0.6062992125984252,
          "duration": 0.12552300000000116
        },
        {
          "name": "F6",
          "midi": 89,
          "time": 79.07949000000018,
          "velocity": 0.6062992125984252,
          "duration": 0.12552300000000116
        },
        {
          "name": "F#6",
          "midi": 90,
          "time": 79.20501300000018,
          "velocity": 0.6062992125984252,
          "duration": 0.12552300000000116
        },
        {
          "name": "D#6",
          "midi": 87,
          "time": 79.33053600000018,
          "velocity": 0.6062992125984252,
          "duration": 0.2510460000000023
        },
        {
          "name": "F6",
          "midi": 89,
          "time": 79.58158200000018,
          "velocity": 0.6062992125984252,
          "duration": 0.2510460000000023
        },
        {
          "name": "C#6",
          "midi": 85,
          "time": 79.83262800000018,
          "velocity": 0.6062992125984252,
          "duration": 0.5020920000000046
        },
        {
          "name": "D#6",
          "midi": 87,
          "time": 80.33472000000019,
          "velocity": 0.6062992125984252,
          "duration": 0.2510460000000023
        },
        {
          "name": "C#6",
          "midi": 85,
          "time": 80.58576600000019,
          "velocity": 0.6062992125984252,
          "duration": 0.12552300000000116
        },
        {
          "name": "D#6",
          "midi": 87,
          "time": 80.71128900000019,
          "velocity": 0.6062992125984252,
          "duration": 0.12552300000000116
        },
        {
          "name": "A#5",
          "midi": 82,
          "time": 80.8368120000002,
          "velocity": 0.6062992125984252,
          "duration": 0.2510460000000023
        },
        {
          "name": "G#5",
          "midi": 80,
          "time": 81.0878580000002,
          "velocity": 0.6062992125984252,
          "duration": 0.2510460000000023
        },
        {
          "name": "D#5",
          "midi": 75,
          "time": 85.8577320000002,
          "velocity": 0.6771653543307087,
          "duration": 0.2510460000000023
        },
        {
          "name": "C6",
          "midi": 84,
          "time": 86.1087780000002,
          "velocity": 0.6771653543307087,
          "duration": 0.2510460000000023
        },
        {
          "name": "A#5",
          "midi": 82,
          "time": 86.3598240000002,
          "velocity": 0.6771653543307087,
          "duration": 0.2510460000000023
        },
        {
          "name": "G#5",
          "midi": 80,
          "time": 86.6108700000002,
          "velocity": 0.6771653543307087,
          "duration": 0.12552300000000116
        },
        {
          "name": "F#5",
          "midi": 78,
          "time": 86.7363930000002,
          "velocity": 0.6771653543307087,
          "duration": 0.12552300000000116
        },
        {
          "name": "F5",
          "midi": 77,
          "time": 86.8619160000002,
          "velocity": 0.6771653543307087,
          "duration": 0.12552300000000116
        },
        {
          "name": "G#5",
          "midi": 80,
          "time": 87.11296200000021,
          "velocity": 0.6771653543307087,
          "duration": 0.12552300000000116
        },
        {
          "name": "A#5",
          "midi": 82,
          "time": 87.36400800000021,
          "velocity": 0.6771653543307087,
          "duration": 1.004183999999995
        },
        {
          "name": "F5",
          "midi": 77,
          "time": 88.3681920000002,
          "velocity": 0.6771653543307087,
          "duration": 0.12552300000000116
        },
        {
          "name": "G#5",
          "midi": 80,
          "time": 88.61923800000021,
          "velocity": 0.6771653543307087,
          "duration": 0.12552300000000116
        },
        {
          "name": "A#5",
          "midi": 82,
          "time": 88.87028400000021,
          "velocity": 0.6771653543307087,
          "duration": 0.5020920000000046
        },
        {
          "name": "C#6",
          "midi": 85,
          "time": 89.37237600000022,
          "velocity": 0.6771653543307087,
          "duration": 0.12552300000000116
        },
        {
          "name": "D#6",
          "midi": 87,
          "time": 89.62342200000022,
          "velocity": 0.6771653543307087,
          "duration": 0.12552300000000116
        },
        {
          "name": "C#6",
          "midi": 85,
          "time": 89.74894500000022,
          "velocity": 0.6771653543307087,
          "duration": 0.12552300000000116
        },
        {
          "name": "C6",
          "midi": 84,
          "time": 89.87446800000022,
          "velocity": 0.6771653543307087,
          "duration": 0.12552300000000116
        },
        {
          "name": "C#6",
          "midi": 85,
          "time": 90.12551400000022,
          "velocity": 0.6771653543307087,
          "duration": 0.12552300000000116
        },
        {
          "name": "A#5",
          "midi": 82,
          "time": 90.37656000000023,
          "velocity": 0.6771653543307087,
          "duration": 1.5062759999999997
        },
        {
          "name": "A#5",
          "midi": 82,
          "time": 92.63597400000023,
          "velocity": 0.6771653543307087,
          "duration": 0.2510460000000023
        },
        {
          "name": "C#6",
          "midi": 85,
          "time": 92.88702000000023,
          "velocity": 0.6771653543307087,
          "duration": 0.2510460000000023
        },
        {
          "name": "D#6",
          "midi": 87,
          "time": 93.13806600000024,
          "velocity": 0.6771653543307087,
          "duration": 0.2510460000000023
        },
        {
          "name": "F6",
          "midi": 89,
          "time": 93.38911200000024,
          "velocity": 0.6771653543307087,
          "duration": 0.753138000000007
        },
        {
          "name": "C#6",
          "midi": 85,
          "time": 94.39329600000025,
          "velocity": 0.6771653543307087,
          "duration": 0.2510460000000023
        },
        {
          "name": "D#6",
          "midi": 87,
          "time": 94.64434200000025,
          "velocity": 0.6771653543307087,
          "duration": 0.2510460000000023
        },
        {
          "name": "F6",
          "midi": 89,
          "time": 94.89538800000025,
          "velocity": 0.6771653543307087,
          "duration": 0.5020920000000046
        },
        {
          "name": "D#6",
          "midi": 87,
          "time": 95.39748000000026,
          "velocity": 0.6771653543307087,
          "duration": 0.2510460000000023
        },
        {
          "name": "C#6",
          "midi": 85,
          "time": 95.64852600000026,
          "velocity": 0.6771653543307087,
          "duration": 0.12552300000000116
        },
        {
          "name": "D#6",
          "midi": 87,
          "time": 95.77404900000026,
          "velocity": 0.6771653543307087,
          "duration": 0.12552300000000116
        },
        {
          "name": "C6",
          "midi": 84,
          "time": 95.89957200000026,
          "velocity": 0.6771653543307087,
          "duration": 0.12552300000000116
        },
        {
          "name": "G#5",
          "midi": 80,
          "time": 96.15061800000026,
          "velocity": 0.6771653543307087,
          "duration": 0.2510460000000023
        },
        {
          "name": "A#5",
          "midi": 82,
          "time": 96.40166400000027,
          "velocity": 0.6771653543307087,
          "duration": 1.004183999999995
        },
        {
          "name": "C#5",
          "midi": 73,
          "time": 97.40584800000026,
          "velocity": 0.7874015748031497,
          "duration": 0.2510460000000023
        },
        {
          "name": "D#5",
          "midi": 75,
          "time": 97.65689400000026,
          "velocity": 0.7874015748031497,
          "duration": 0.2510460000000023
        },
        {
          "name": "F5",
          "midi": 77,
          "time": 97.90794000000027,
          "velocity": 0.7874015748031497,
          "duration": 0.5020920000000046
        },
        {
          "name": "D#5",
          "midi": 75,
          "time": 98.41003200000027,
          "velocity": 0.7874015748031497,
          "duration": 0.2510460000000023
        },
        {
          "name": "C#5",
          "midi": 73,
          "time": 98.66107800000027,
          "velocity": 0.7874015748031497,
          "duration": 0.12552300000000116
        },
        {
          "name": "D#5",
          "midi": 75,
          "time": 98.78660100000027,
          "velocity": 0.7874015748031497,
          "duration": 0.12552300000000116
        },
        {
          "name": "C5",
          "midi": 72,
          "time": 98.91212400000028,
          "velocity": 0.7874015748031497,
          "duration": 0.12552300000000116
        },
        {
          "name": "G#5",
          "midi": 80,
          "time": 99.16317000000028,
          "velocity": 0.7874015748031497,
          "duration": 0.2510460000000023
        },
        {
          "name": "F5",
          "midi": 77,
          "time": 99.41421600000028,
          "velocity": 0.7874015748031497,
          "duration": 1.004183999999995
        },
        {
          "name": "C#6",
          "midi": 85,
          "time": 100.41840000000028,
          "velocity": 0.6771653543307087,
          "duration": 0.2510460000000023
        },
        {
          "name": "D#6",
          "midi": 87,
          "time": 100.66944600000028,
          "velocity": 0.6771653543307087,
          "duration": 0.2510460000000023
        },
        {
          "name": "F6",
          "midi": 89,
          "time": 100.92049200000028,
          "velocity": 0.6771653543307087,
          "duration": 0.5020920000000046
        },
        {
          "name": "D#6",
          "midi": 87,
          "time": 101.42258400000028,
          "velocity": 0.6771653543307087,
          "duration": 0.2510460000000023
        },
        {
          "name": "C#6",
          "midi": 85,
          "time": 101.67363000000029,
          "velocity": 0.6771653543307087,
          "duration": 0.12552300000000116
        },
        {
          "name": "D#6",
          "midi": 87,
          "time": 101.79915300000029,
          "velocity": 0.6771653543307087,
          "duration": 0.12552300000000116
        },
        {
          "name": "C6",
          "midi": 84,
          "time": 101.92467600000029,
          "velocity": 0.6771653543307087,
          "duration": 0.12552300000000116
        },
        {
          "name": "G#5",
          "midi": 80,
          "time": 102.17572200000029,
          "velocity": 0.6771653543307087,
          "duration": 0.2510460000000023
        },
        {
          "name": "A#5",
          "midi": 82,
          "time": 102.4267680000003,
          "velocity": 0.7874015748031497,
          "duration": 1.004183999999995
        },
        {
          "name": "C#6",
          "midi": 85,
          "time": 103.43095200000029,
          "velocity": 0.6771653543307087,
          "duration": 0.2510460000000023
        },
        {
          "name": "D#6",
          "midi": 87,
          "time": 103.68199800000029,
          "velocity": 0.6771653543307087,
          "duration": 0.2510460000000023
        },
        {
          "name": "F6",
          "midi": 89,
          "time": 103.9330440000003,
          "velocity": 0.6771653543307087,
          "duration": 0.5020920000000046
        },
        {
          "name": "D#6",
          "midi": 87,
          "time": 104.4351360000003,
          "velocity": 0.6771653543307087,
          "duration": 0.2510460000000023
        },
        {
          "name": "C#6",
          "midi": 85,
          "time": 104.6861820000003,
          "velocity": 0.6771653543307087,
          "duration": 0.12552300000000116
        },
        {
          "name": "D#6",
          "midi": 87,
          "time": 104.8117050000003,
          "velocity": 0.6771653543307087,
          "duration": 0.12552300000000116
        },
        {
          "name": "C6",
          "midi": 84,
          "time": 104.9372280000003,
          "velocity": 0.6771653543307087,
          "duration": 0.12552300000000116
        },
        {
          "name": "G#5",
          "midi": 80,
          "time": 105.1882740000003,
          "velocity": 0.6771653543307087,
          "duration": 0.2510460000000023
        },
        {
          "name": "A#5",
          "midi": 82,
          "time": 105.43932000000031,
          "velocity": 0.7874015748031497,
          "duration": 1.5062759999999997
        }
      ],
      "controlChanges": {
        "6": [
          {
            "number": 6,
            "time": 0,
            "value": 0.09448818897637795
          },
          {
            "number": 6,
            "time": 0,
            "value": 0.09448818897637795
          },
          {
            "number": 6,
            "time": 0,
            "value": 0.09448818897637795
          },
          {
            "number": 6,
            "time": 108.45187200000031,
            "value": 0.09448818897637795
          },
          {
            "number": 6,
            "time": 108.4623322500003,
            "value": 0.09448818897637795
          },
          {
            "number": 6,
            "time": 108.4623322500003,
            "value": 0.09448818897637795
          }
        ],
        "7": [
          {
            "number": 7,
            "time": 0,
            "value": 1
          },
          {
            "number": 7,
            "time": 0,
            "value": 1
          },
          {
            "number": 7,
            "time": 0,
            "value": 1
          },
          {
            "number": 7,
            "time": 0,
            "value": 1
          },
          {
            "number": 7,
            "time": 108.45187200000031,
            "value": 1
          },
          {
            "number": 7,
            "time": 108.4623322500003,
            "value": 1
          },
          {
            "number": 7,
            "time": 108.4623322500003,
            "value": 1
          }
        ],
        "10": [
          {
            "number": 10,
            "time": 0,
            "value": 0.5039370078740157
          },
          {
            "number": 10,
            "time": 0,
            "value": 0.5039370078740157
          },
          {
            "number": 10,
            "time": 0,
            "value": 0.5039370078740157
          },
          {
            "number": 10,
            "time": 0,
            "value": 0.5039370078740157
          },
          {
            "number": 10,
            "time": 108.45187200000031,
            "value": 0.5039370078740157
          },
          {
            "number": 10,
            "time": 108.4623322500003,
            "value": 0.5039370078740157
          },
          {
            "number": 10,
            "time": 108.4623322500003,
            "value": 0.5039370078740157
          }
        ],
        "100": [
          {
            "number": 100,
            "time": 0,
            "value": 0
          },
          {
            "number": 100,
            "time": 0,
            "value": 0
          },
          {
            "number": 100,
            "time": 0,
            "value": 0
          },
          {
            "number": 100,
            "time": 108.45187200000031,
            "value": 0
          },
          {
            "number": 100,
            "time": 108.4623322500003,
            "value": 0
          },
          {
            "number": 100,
            "time": 108.4623322500003,
            "value": 0
          }
        ],
        "101": [
          {
            "number": 101,
            "time": 0,
            "value": 0
          },
          {
            "number": 101,
            "time": 0,
            "value": 0
          },
          {
            "number": 101,
            "time": 0,
            "value": 0
          },
          {
            "number": 101,
            "time": 108.45187200000031,
            "value": 0
          },
          {
            "number": 101,
            "time": 108.4623322500003,
            "value": 0
          },
          {
            "number": 101,
            "time": 108.4623322500003,
            "value": 0
          }
        ]
      },
      "id": 13,
      "name": "MIDI out #5",
      "instrumentNumber": 73,
      "instrument": "flute",
      "instrumentFamily": "pipe",
      "channelNumber": 4,
      "isPercussion": false
    },
    {
      "startTime": 11.29707,
      "duration": 106.94559599999945,
      "length": 54,
      "notes": [
        {
          "name": "D#4",
          "midi": 63,
          "time": 11.29707,
          "velocity": 0.7874015748031497,
          "duration": 0.25104600000000055
        },
        {
          "name": "A#4",
          "midi": 70,
          "time": 11.548116,
          "velocity": 0.7874015748031497,
          "duration": 0.25104600000000055
        },
        {
          "name": "G#4",
          "midi": 68,
          "time": 11.799162,
          "velocity": 0.7874015748031497,
          "duration": 0.25104600000000055
        },
        {
          "name": "F#4",
          "midi": 66,
          "time": 12.050208000000001,
          "velocity": 0.7874015748031497,
          "duration": 1.0041840000000004
        },
        {
          "name": "F4",
          "midi": 65,
          "time": 13.054392000000002,
          "velocity": 0.7874015748031497,
          "duration": 0.25104600000000055
        },
        {
          "name": "G#4",
          "midi": 68,
          "time": 13.556484000000003,
          "velocity": 0.7874015748031497,
          "duration": 0.5020919999999993
        },
        {
          "name": "F4",
          "midi": 65,
          "time": 14.058576000000002,
          "velocity": 0.7874015748031497,
          "duration": 0.25104600000000055
        },
        {
          "name": "D#4",
          "midi": 63,
          "time": 14.309622000000003,
          "velocity": 0.7874015748031497,
          "duration": 0.12552299999999939
        },
        {
          "name": "F4",
          "midi": 65,
          "time": 14.435145000000002,
          "velocity": 0.7874015748031497,
          "duration": 0.12552299999999939
        },
        {
          "name": "D#4",
          "midi": 63,
          "time": 14.560668000000001,
          "velocity": 0.7874015748031497,
          "duration": 0.25104600000000055
        },
        {
          "name": "C#5",
          "midi": 73,
          "time": 14.811714000000002,
          "velocity": 0.7874015748031497,
          "duration": 0.25104600000000055
        },
        {
          "name": "F4",
          "midi": 65,
          "time": 15.062760000000003,
          "velocity": 0.7874015748031497,
          "duration": 2.008367999999999
        },
        {
          "name": "D#4",
          "midi": 63,
          "time": 29.372382,
          "velocity": 0.7874015748031497,
          "duration": 0.25104599999999877
        },
        {
          "name": "A#4",
          "midi": 70,
          "time": 29.623428,
          "velocity": 0.7874015748031497,
          "duration": 0.25104599999999877
        },
        {
          "name": "G#4",
          "midi": 68,
          "time": 29.874474,
          "velocity": 0.7874015748031497,
          "duration": 0.25104599999999877
        },
        {
          "name": "F#4",
          "midi": 66,
          "time": 30.125519999999998,
          "velocity": 0.7874015748031497,
          "duration": 1.0041839999999986
        },
        {
          "name": "F4",
          "midi": 65,
          "time": 31.129703999999997,
          "velocity": 0.7874015748031497,
          "duration": 0.25104599999999877
        },
        {
          "name": "G#4",
          "midi": 68,
          "time": 31.631795999999994,
          "velocity": 0.7874015748031497,
          "duration": 0.5020919999999975
        },
        {
          "name": "F4",
          "midi": 65,
          "time": 32.13388799999999,
          "velocity": 0.7874015748031497,
          "duration": 0.2510460000000023
        },
        {
          "name": "D#4",
          "midi": 63,
          "time": 32.384933999999994,
          "velocity": 0.7874015748031497,
          "duration": 0.12552300000000116
        },
        {
          "name": "F4",
          "midi": 65,
          "time": 32.510456999999995,
          "velocity": 0.7874015748031497,
          "duration": 0.12552300000000116
        },
        {
          "name": "D#4",
          "midi": 63,
          "time": 32.635979999999996,
          "velocity": 0.7874015748031497,
          "duration": 0.2510460000000023
        },
        {
          "name": "C#5",
          "midi": 73,
          "time": 32.887026,
          "velocity": 0.7874015748031497,
          "duration": 0.2510460000000023
        },
        {
          "name": "F4",
          "midi": 65,
          "time": 33.138072,
          "velocity": 0.7874015748031497,
          "duration": 1.5062759999999997
        },
        {
          "name": "D#4",
          "midi": 63,
          "time": 34.644348,
          "velocity": 0.7874015748031497,
          "duration": 1.5062759999999997
        },
        {
          "name": "F4",
          "midi": 65,
          "time": 36.150624,
          "velocity": 0.7874015748031497,
          "duration": 1.5062759999999997
        },
        {
          "name": "D#4",
          "midi": 63,
          "time": 37.6569,
          "velocity": 0.7874015748031497,
          "duration": 1.5062759999999997
        },
        {
          "name": "C#4",
          "midi": 61,
          "time": 39.163176,
          "velocity": 0.7874015748031497,
          "duration": 1.5062759999999997
        },
        {
          "name": "C4",
          "midi": 60,
          "time": 40.669452,
          "velocity": 0.7874015748031497,
          "duration": 1.5062759999999997
        },
        {
          "name": "D#4",
          "midi": 63,
          "time": 42.175728,
          "velocity": 0.7874015748031497,
          "duration": 1.5062759999999997
        },
        {
          "name": "F4",
          "midi": 65,
          "time": 43.682004,
          "velocity": 0.7874015748031497,
          "duration": 1.5062759999999997
        },
        {
          "name": "A#4",
          "midi": 70,
          "time": 45.18828,
          "velocity": 0.7874015748031497,
          "duration": 3.012551999999438
        },
        {
          "name": "D#4",
          "midi": 63,
          "time": 86.61086999999944,
          "velocity": 0.7874015748031497,
          "duration": 0.2510460000000023
        },
        {
          "name": "A#4",
          "midi": 70,
          "time": 86.86191599999944,
          "velocity": 0.7874015748031497,
          "duration": 0.2510460000000023
        },
        {
          "name": "G#4",
          "midi": 68,
          "time": 87.11296199999944,
          "velocity": 0.7874015748031497,
          "duration": 0.2510460000000023
        },
        {
          "name": "F#4",
          "midi": 66,
          "time": 87.36400799999944,
          "velocity": 0.7874015748031497,
          "duration": 1.004183999999995
        },
        {
          "name": "F4",
          "midi": 65,
          "time": 88.36819199999944,
          "velocity": 0.7874015748031497,
          "duration": 0.2510460000000023
        },
        {
          "name": "G#4",
          "midi": 68,
          "time": 88.87028399999944,
          "velocity": 0.7874015748031497,
          "duration": 0.5020920000000046
        },
        {
          "name": "F4",
          "midi": 65,
          "time": 89.37237599999945,
          "velocity": 0.7874015748031497,
          "duration": 0.2510460000000023
        },
        {
          "name": "D#4",
          "midi": 63,
          "time": 89.62342199999945,
          "velocity": 0.7874015748031497,
          "duration": 0.12552300000000116
        },
        {
          "name": "F4",
          "midi": 65,
          "time": 89.74894499999945,
          "velocity": 0.7874015748031497,
          "duration": 0.12552300000000116
        },
        {
          "name": "D#4",
          "midi": 63,
          "time": 89.87446799999945,
          "velocity": 0.7874015748031497,
          "duration": 0.2510460000000023
        },
        {
          "name": "C#5",
          "midi": 73,
          "time": 90.12551399999946,
          "velocity": 0.7874015748031497,
          "duration": 0.2510460000000023
        },
        {
          "name": "F4",
          "midi": 65,
          "time": 90.37655999999946,
          "velocity": 0.7874015748031497,
          "duration": 1.5062759999999997
        },
        {
          "name": "D#4",
          "midi": 63,
          "time": 91.88283599999946,
          "velocity": 0.7874015748031497,
          "duration": 1.5062759999999997
        },
        {
          "name": "F4",
          "midi": 65,
          "time": 93.38911199999946,
          "velocity": 0.7874015748031497,
          "duration": 1.5062759999999997
        },
        {
          "name": "D#4",
          "midi": 63,
          "time": 94.89538799999946,
          "velocity": 0.7874015748031497,
          "duration": 1.5062759999999997
        },
        {
          "name": "C#4",
          "midi": 61,
          "time": 96.40166399999946,
          "velocity": 0.7874015748031497,
          "duration": 1.5062759999999997
        },
        {
          "name": "D#4",
          "midi": 63,
          "time": 97.90793999999946,
          "velocity": 0.7874015748031497,
          "duration": 1.5062759999999997
        },
        {
          "name": "A#4",
          "midi": 70,
          "time": 99.41421599999946,
          "velocity": 0.7874015748031497,
          "duration": 1.5062759999999997
        },
        {
          "name": "F4",
          "midi": 65,
          "time": 100.92049199999946,
          "velocity": 0.7874015748031497,
          "duration": 1.5062759999999997
        },
        {
          "name": "A#4",
          "midi": 70,
          "time": 102.44768849999946,
          "velocity": 0.7874015748031497,
          "duration": 1.5062759999999997
        },
        {
          "name": "F4",
          "midi": 65,
          "time": 103.95396449999946,
          "velocity": 0.7874015748031497,
          "duration": 1.5062759999999997
        },
        {
          "name": "A#4",
          "midi": 70,
          "time": 105.43931999999946,
          "velocity": 0.7874015748031497,
          "duration": 1.5062759999999997
        }
      ],
      "controlChanges": {
        "6": [
          {
            "number": 6,
            "time": 0,
            "value": 0.09448818897637795
          },
          {
            "number": 6,
            "time": 0,
            "value": 0.09448818897637795
          },
          {
            "number": 6,
            "time": 0,
            "value": 0.09448818897637795
          },
          {
            "number": 6,
            "time": 108.45187199999945,
            "value": 0.09448818897637795
          },
          {
            "number": 6,
            "time": 108.46233224999945,
            "value": 0.09448818897637795
          },
          {
            "number": 6,
            "time": 108.46233224999945,
            "value": 0.09448818897637795
          }
        ],
        "7": [
          {
            "number": 7,
            "time": 0,
            "value": 0.7637795275590551
          },
          {
            "number": 7,
            "time": 0,
            "value": 0.7637795275590551
          },
          {
            "number": 7,
            "time": 0,
            "value": 0.7637795275590551
          },
          {
            "number": 7,
            "time": 0,
            "value": 0.7637795275590551
          },
          {
            "number": 7,
            "time": 0,
            "value": 0.7637795275590551
          },
          {
            "number": 7,
            "time": 0,
            "value": 0.7637795275590551
          },
          {
            "number": 7,
            "time": 47.196647999999996,
            "value": 0.7559055118110236
          },
          {
            "number": 7,
            "time": 47.20187812499999,
            "value": 0.7559055118110236
          },
          {
            "number": 7,
            "time": 47.20710824999999,
            "value": 0.7480314960629921
          },
          {
            "number": 7,
            "time": 47.21233837499999,
            "value": 0.7480314960629921
          },
          {
            "number": 7,
            "time": 47.217568499999985,
            "value": 0.7401574803149606
          },
          {
            "number": 7,
            "time": 47.22279862499998,
            "value": 0.7401574803149606
          },
          {
            "number": 7,
            "time": 47.22802874999998,
            "value": 0.7322834645669292
          },
          {
            "number": 7,
            "time": 47.233258874999976,
            "value": 0.7322834645669292
          },
          {
            "number": 7,
            "time": 47.23848899999997,
            "value": 0.7244094488188977
          },
          {
            "number": 7,
            "time": 47.24371912499997,
            "value": 0.7244094488188977
          },
          {
            "number": 7,
            "time": 47.24894924999997,
            "value": 0.7165354330708661
          },
          {
            "number": 7,
            "time": 47.254179374999964,
            "value": 0.7165354330708661
          },
          {
            "number": 7,
            "time": 47.25940949999996,
            "value": 0.7086614173228346
          },
          {
            "number": 7,
            "time": 47.26463962499996,
            "value": 0.7086614173228346
          },
          {
            "number": 7,
            "time": 47.269869749999955,
            "value": 0.7007874015748031
          },
          {
            "number": 7,
            "time": 47.27509987499995,
            "value": 0.7007874015748031
          },
          {
            "number": 7,
            "time": 47.28032999999995,
            "value": 0.6929133858267716
          },
          {
            "number": 7,
            "time": 47.28556012499995,
            "value": 0.6929133858267716
          },
          {
            "number": 7,
            "time": 47.290790249999944,
            "value": 0.6850393700787402
          },
          {
            "number": 7,
            "time": 47.29602037499994,
            "value": 0.6850393700787402
          },
          {
            "number": 7,
            "time": 47.30125049999994,
            "value": 0.6771653543307087
          },
          {
            "number": 7,
            "time": 47.306480624999935,
            "value": 0.6771653543307087
          },
          {
            "number": 7,
            "time": 47.31171074999993,
            "value": 0.6692913385826772
          },
          {
            "number": 7,
            "time": 47.31694087499993,
            "value": 0.6692913385826772
          },
          {
            "number": 7,
            "time": 47.322170999999926,
            "value": 0.6614173228346457
          },
          {
            "number": 7,
            "time": 47.32740112499992,
            "value": 0.6614173228346457
          },
          {
            "number": 7,
            "time": 47.33263124999992,
            "value": 0.6535433070866141
          },
          {
            "number": 7,
            "time": 47.33786137499992,
            "value": 0.6535433070866141
          },
          {
            "number": 7,
            "time": 47.343091499999915,
            "value": 0.6456692913385826
          },
          {
            "number": 7,
            "time": 47.34832162499991,
            "value": 0.6456692913385826
          },
          {
            "number": 7,
            "time": 47.35355174999991,
            "value": 0.6377952755905512
          },
          {
            "number": 7,
            "time": 47.358781874999906,
            "value": 0.6377952755905512
          },
          {
            "number": 7,
            "time": 47.3640119999999,
            "value": 0.6299212598425197
          },
          {
            "number": 7,
            "time": 47.3692421249999,
            "value": 0.6299212598425197
          },
          {
            "number": 7,
            "time": 47.3744722499999,
            "value": 0.6220472440944882
          },
          {
            "number": 7,
            "time": 47.379702374999894,
            "value": 0.6220472440944882
          },
          {
            "number": 7,
            "time": 47.38493249999989,
            "value": 0.6141732283464567
          },
          {
            "number": 7,
            "time": 47.39016262499989,
            "value": 0.6141732283464567
          },
          {
            "number": 7,
            "time": 47.395392749999885,
            "value": 0.6062992125984252
          },
          {
            "number": 7,
            "time": 47.40062287499988,
            "value": 0.6062992125984252
          },
          {
            "number": 7,
            "time": 47.40585299999988,
            "value": 0.5984251968503937
          },
          {
            "number": 7,
            "time": 47.41108312499988,
            "value": 0.5984251968503937
          },
          {
            "number": 7,
            "time": 47.416313249999874,
            "value": 0.5905511811023622
          },
          {
            "number": 7,
            "time": 47.42154337499987,
            "value": 0.5905511811023622
          },
          {
            "number": 7,
            "time": 47.42677349999987,
            "value": 0.5826771653543307
          },
          {
            "number": 7,
            "time": 47.432003624999865,
            "value": 0.5826771653543307
          },
          {
            "number": 7,
            "time": 47.43723374999986,
            "value": 0.5748031496062992
          },
          {
            "number": 7,
            "time": 47.44246387499986,
            "value": 0.5748031496062992
          },
          {
            "number": 7,
            "time": 47.447693999999856,
            "value": 0.5669291338582677
          },
          {
            "number": 7,
            "time": 47.45292412499985,
            "value": 0.5669291338582677
          },
          {
            "number": 7,
            "time": 47.45815424999985,
            "value": 0.5590551181102362
          },
          {
            "number": 7,
            "time": 47.46338437499985,
            "value": 0.5590551181102362
          },
          {
            "number": 7,
            "time": 47.468614499999845,
            "value": 0.5511811023622047
          },
          {
            "number": 7,
            "time": 47.47384462499984,
            "value": 0.5511811023622047
          },
          {
            "number": 7,
            "time": 47.47907474999984,
            "value": 0.5433070866141733
          },
          {
            "number": 7,
            "time": 47.484304874999836,
            "value": 0.5433070866141733
          },
          {
            "number": 7,
            "time": 47.48953499999983,
            "value": 0.5354330708661418
          },
          {
            "number": 7,
            "time": 47.49476512499983,
            "value": 0.5354330708661418
          },
          {
            "number": 7,
            "time": 47.49999524999983,
            "value": 0.5275590551181102
          },
          {
            "number": 7,
            "time": 47.505225374999824,
            "value": 0.5275590551181102
          },
          {
            "number": 7,
            "time": 47.51045549999982,
            "value": 0.5196850393700787
          },
          {
            "number": 7,
            "time": 47.51568562499982,
            "value": 0.5196850393700787
          },
          {
            "number": 7,
            "time": 47.520915749999816,
            "value": 0.5118110236220472
          },
          {
            "number": 7,
            "time": 47.52614587499981,
            "value": 0.5118110236220472
          },
          {
            "number": 7,
            "time": 47.53137599999981,
            "value": 0.5039370078740157
          },
          {
            "number": 7,
            "time": 47.53660612499981,
            "value": 0.49606299212598426
          },
          {
            "number": 7,
            "time": 47.541836249999804,
            "value": 0.49606299212598426
          },
          {
            "number": 7,
            "time": 47.5470663749998,
            "value": 0.4881889763779528
          },
          {
            "number": 7,
            "time": 47.5522964999998,
            "value": 0.4881889763779528
          },
          {
            "number": 7,
            "time": 47.557526624999795,
            "value": 0.48031496062992124
          },
          {
            "number": 7,
            "time": 47.56275674999979,
            "value": 0.48031496062992124
          },
          {
            "number": 7,
            "time": 47.56798687499979,
            "value": 0.47244094488188976
          },
          {
            "number": 7,
            "time": 47.57321699999979,
            "value": 0.47244094488188976
          },
          {
            "number": 7,
            "time": 47.578447124999784,
            "value": 0.4645669291338583
          },
          {
            "number": 7,
            "time": 47.58367724999978,
            "value": 0.4645669291338583
          },
          {
            "number": 7,
            "time": 47.58890737499978,
            "value": 0.4566929133858268
          },
          {
            "number": 7,
            "time": 47.594137499999775,
            "value": 0.4566929133858268
          },
          {
            "number": 7,
            "time": 47.59936762499977,
            "value": 0.44881889763779526
          },
          {
            "number": 7,
            "time": 47.60459774999977,
            "value": 0.44881889763779526
          },
          {
            "number": 7,
            "time": 47.609827874999766,
            "value": 0.4409448818897638
          },
          {
            "number": 7,
            "time": 47.61505799999976,
            "value": 0.4409448818897638
          },
          {
            "number": 7,
            "time": 47.62028812499976,
            "value": 0.4330708661417323
          },
          {
            "number": 7,
            "time": 47.62551824999976,
            "value": 0.4330708661417323
          },
          {
            "number": 7,
            "time": 47.630748374999754,
            "value": 0.4251968503937008
          },
          {
            "number": 7,
            "time": 47.63597849999975,
            "value": 0.4251968503937008
          },
          {
            "number": 7,
            "time": 47.64120862499975,
            "value": 0.41732283464566927
          },
          {
            "number": 7,
            "time": 47.646438749999746,
            "value": 0.41732283464566927
          },
          {
            "number": 7,
            "time": 47.65166887499974,
            "value": 0.4094488188976378
          },
          {
            "number": 7,
            "time": 47.65689899999974,
            "value": 0.4094488188976378
          },
          {
            "number": 7,
            "time": 47.66212912499974,
            "value": 0.4015748031496063
          },
          {
            "number": 7,
            "time": 47.667359249999734,
            "value": 0.4015748031496063
          },
          {
            "number": 7,
            "time": 47.67258937499973,
            "value": 0.3937007874015748
          },
          {
            "number": 7,
            "time": 47.67781949999973,
            "value": 0.3937007874015748
          },
          {
            "number": 7,
            "time": 47.683049624999725,
            "value": 0.3858267716535433
          },
          {
            "number": 7,
            "time": 47.68827974999972,
            "value": 0.3858267716535433
          },
          {
            "number": 7,
            "time": 47.69350987499972,
            "value": 0.3779527559055118
          },
          {
            "number": 7,
            "time": 47.69873999999972,
            "value": 0.3779527559055118
          },
          {
            "number": 7,
            "time": 47.703970124999714,
            "value": 0.3700787401574803
          },
          {
            "number": 7,
            "time": 47.70920024999971,
            "value": 0.3700787401574803
          },
          {
            "number": 7,
            "time": 47.71443037499971,
            "value": 0.36220472440944884
          },
          {
            "number": 7,
            "time": 47.719660499999705,
            "value": 0.36220472440944884
          },
          {
            "number": 7,
            "time": 47.7248906249997,
            "value": 0.3543307086614173
          },
          {
            "number": 7,
            "time": 47.7301207499997,
            "value": 0.3543307086614173
          },
          {
            "number": 7,
            "time": 47.735350874999696,
            "value": 0.3464566929133858
          },
          {
            "number": 7,
            "time": 47.74058099999969,
            "value": 0.3464566929133858
          },
          {
            "number": 7,
            "time": 47.74581112499969,
            "value": 0.33858267716535434
          },
          {
            "number": 7,
            "time": 47.75104124999969,
            "value": 0.33858267716535434
          },
          {
            "number": 7,
            "time": 47.756271374999685,
            "value": 0.33070866141732286
          },
          {
            "number": 7,
            "time": 47.76150149999968,
            "value": 0.33070866141732286
          },
          {
            "number": 7,
            "time": 47.76673162499968,
            "value": 0.3228346456692913
          },
          {
            "number": 7,
            "time": 47.771961749999676,
            "value": 0.3228346456692913
          },
          {
            "number": 7,
            "time": 47.77719187499967,
            "value": 0.31496062992125984
          },
          {
            "number": 7,
            "time": 47.78242199999967,
            "value": 0.31496062992125984
          },
          {
            "number": 7,
            "time": 47.78765212499967,
            "value": 0.30708661417322836
          },
          {
            "number": 7,
            "time": 47.792882249999664,
            "value": 0.30708661417322836
          },
          {
            "number": 7,
            "time": 47.79811237499966,
            "value": 0.2992125984251969
          },
          {
            "number": 7,
            "time": 47.80334249999966,
            "value": 0.2992125984251969
          },
          {
            "number": 7,
            "time": 47.808572624999655,
            "value": 0.29133858267716534
          },
          {
            "number": 7,
            "time": 47.81380274999965,
            "value": 0.29133858267716534
          },
          {
            "number": 7,
            "time": 47.81903287499965,
            "value": 0.28346456692913385
          },
          {
            "number": 7,
            "time": 47.82426299999965,
            "value": 0.28346456692913385
          },
          {
            "number": 7,
            "time": 47.829493124999644,
            "value": 0.2755905511811024
          },
          {
            "number": 7,
            "time": 47.83472324999964,
            "value": 0.2755905511811024
          },
          {
            "number": 7,
            "time": 47.83995337499964,
            "value": 0.2677165354330709
          },
          {
            "number": 7,
            "time": 47.845183499999635,
            "value": 0.2677165354330709
          },
          {
            "number": 7,
            "time": 47.85041362499963,
            "value": 0.25984251968503935
          },
          {
            "number": 7,
            "time": 47.85564374999963,
            "value": 0.25984251968503935
          },
          {
            "number": 7,
            "time": 47.860873874999626,
            "value": 0.25196850393700787
          },
          {
            "number": 7,
            "time": 47.86610399999962,
            "value": 0.25196850393700787
          },
          {
            "number": 7,
            "time": 47.87133412499962,
            "value": 0.2440944881889764
          },
          {
            "number": 7,
            "time": 47.87656424999962,
            "value": 0.2440944881889764
          },
          {
            "number": 7,
            "time": 47.881794374999615,
            "value": 0.23622047244094488
          },
          {
            "number": 7,
            "time": 47.88702449999961,
            "value": 0.23622047244094488
          },
          {
            "number": 7,
            "time": 47.89225462499961,
            "value": 0.2283464566929134
          },
          {
            "number": 7,
            "time": 47.897484749999606,
            "value": 0.2283464566929134
          },
          {
            "number": 7,
            "time": 47.9027148749996,
            "value": 0.2204724409448819
          },
          {
            "number": 7,
            "time": 47.9079449999996,
            "value": 0.2204724409448819
          },
          {
            "number": 7,
            "time": 47.9131751249996,
            "value": 0.2125984251968504
          },
          {
            "number": 7,
            "time": 47.918405249999594,
            "value": 0.2125984251968504
          },
          {
            "number": 7,
            "time": 47.92363537499959,
            "value": 0.2047244094488189
          },
          {
            "number": 7,
            "time": 47.92886549999959,
            "value": 0.2047244094488189
          },
          {
            "number": 7,
            "time": 47.934095624999586,
            "value": 0.1968503937007874
          },
          {
            "number": 7,
            "time": 47.93932574999958,
            "value": 0.1968503937007874
          },
          {
            "number": 7,
            "time": 47.94455587499958,
            "value": 0.1889763779527559
          },
          {
            "number": 7,
            "time": 47.94978599999958,
            "value": 0.1889763779527559
          },
          {
            "number": 7,
            "time": 47.955016124999574,
            "value": 0.18110236220472442
          },
          {
            "number": 7,
            "time": 47.96024624999957,
            "value": 0.18110236220472442
          },
          {
            "number": 7,
            "time": 47.96547637499957,
            "value": 0.1732283464566929
          },
          {
            "number": 7,
            "time": 47.970706499999565,
            "value": 0.1732283464566929
          },
          {
            "number": 7,
            "time": 47.97593662499956,
            "value": 0.16535433070866143
          },
          {
            "number": 7,
            "time": 47.98116674999956,
            "value": 0.16535433070866143
          },
          {
            "number": 7,
            "time": 47.986396874999556,
            "value": 0.15748031496062992
          },
          {
            "number": 7,
            "time": 47.99162699999955,
            "value": 0.15748031496062992
          },
          {
            "number": 7,
            "time": 47.99685712499955,
            "value": 0.14960629921259844
          },
          {
            "number": 7,
            "time": 48.00208724999955,
            "value": 0.14960629921259844
          },
          {
            "number": 7,
            "time": 48.007317374999545,
            "value": 0.14173228346456693
          },
          {
            "number": 7,
            "time": 48.01254749999954,
            "value": 0.14173228346456693
          },
          {
            "number": 7,
            "time": 48.01777762499954,
            "value": 0.13385826771653545
          },
          {
            "number": 7,
            "time": 48.023007749999536,
            "value": 0.13385826771653545
          },
          {
            "number": 7,
            "time": 48.02823787499953,
            "value": 0.12598425196850394
          },
          {
            "number": 7,
            "time": 48.03346799999953,
            "value": 0.12598425196850394
          },
          {
            "number": 7,
            "time": 48.03869812499953,
            "value": 0.11811023622047244
          },
          {
            "number": 7,
            "time": 48.043928249999524,
            "value": 0.11811023622047244
          },
          {
            "number": 7,
            "time": 48.04915837499952,
            "value": 0.11023622047244094
          },
          {
            "number": 7,
            "time": 48.05438849999952,
            "value": 0.11023622047244094
          },
          {
            "number": 7,
            "time": 48.059618624999516,
            "value": 0.10236220472440945
          },
          {
            "number": 7,
            "time": 48.06484874999951,
            "value": 0.10236220472440945
          },
          {
            "number": 7,
            "time": 48.07007887499951,
            "value": 0.09448818897637795
          },
          {
            "number": 7,
            "time": 48.07530899999951,
            "value": 0.09448818897637795
          },
          {
            "number": 7,
            "time": 48.080539124999504,
            "value": 0.08661417322834646
          },
          {
            "number": 7,
            "time": 48.0857692499995,
            "value": 0.08661417322834646
          },
          {
            "number": 7,
            "time": 48.0909993749995,
            "value": 0.07874015748031496
          },
          {
            "number": 7,
            "time": 48.096229499999495,
            "value": 0.07874015748031496
          },
          {
            "number": 7,
            "time": 48.10145962499949,
            "value": 0.07086614173228346
          },
          {
            "number": 7,
            "time": 48.10668974999949,
            "value": 0.07086614173228346
          },
          {
            "number": 7,
            "time": 48.11191987499949,
            "value": 0.06299212598425197
          },
          {
            "number": 7,
            "time": 48.117149999999484,
            "value": 0.06299212598425197
          },
          {
            "number": 7,
            "time": 48.12238012499948,
            "value": 0.05511811023622047
          },
          {
            "number": 7,
            "time": 48.12761024999948,
            "value": 0.05511811023622047
          },
          {
            "number": 7,
            "time": 48.132840374999475,
            "value": 0.047244094488188976
          },
          {
            "number": 7,
            "time": 48.13807049999947,
            "value": 0.047244094488188976
          },
          {
            "number": 7,
            "time": 48.14330062499947,
            "value": 0.03937007874015748
          },
          {
            "number": 7,
            "time": 48.148530749999466,
            "value": 0.03937007874015748
          },
          {
            "number": 7,
            "time": 48.15376087499946,
            "value": 0.031496062992125984
          },
          {
            "number": 7,
            "time": 48.15899099999946,
            "value": 0.031496062992125984
          },
          {
            "number": 7,
            "time": 48.16422112499946,
            "value": 0.023622047244094488
          },
          {
            "number": 7,
            "time": 48.169451249999454,
            "value": 0.023622047244094488
          },
          {
            "number": 7,
            "time": 48.17468137499945,
            "value": 0.015748031496062992
          },
          {
            "number": 7,
            "time": 48.17991149999945,
            "value": 0.015748031496062992
          },
          {
            "number": 7,
            "time": 48.185141624999446,
            "value": 0.007874015748031496
          },
          {
            "number": 7,
            "time": 48.19037174999944,
            "value": 0.007874015748031496
          },
          {
            "number": 7,
            "time": 48.19560187499944,
            "value": 0
          },
          {
            "number": 7,
            "time": 48.20083199999944,
            "value": 0
          },
          {
            "number": 7,
            "time": 86.35982399999943,
            "value": 0.7716535433070866
          },
          {
            "number": 7,
            "time": 108.45187199999945,
            "value": 0.7716535433070866
          },
          {
            "number": 7,
            "time": 108.46233224999945,
            "value": 0.7716535433070866
          },
          {
            "number": 7,
            "time": 108.46233224999945,
            "value": 0.7716535433070866
          }
        ],
        "10": [
          {
            "number": 10,
            "time": 0,
            "value": 0.5039370078740157
          },
          {
            "number": 10,
            "time": 0,
            "value": 0.5039370078740157
          },
          {
            "number": 10,
            "time": 0,
            "value": 0.5039370078740157
          },
          {
            "number": 10,
            "time": 0,
            "value": 0.5039370078740157
          },
          {
            "number": 10,
            "time": 108.45187199999945,
            "value": 0.5039370078740157
          },
          {
            "number": 10,
            "time": 108.46233224999945,
            "value": 0.5039370078740157
          },
          {
            "number": 10,
            "time": 108.46233224999945,
            "value": 0.5039370078740157
          }
        ],
        "100": [
          {
            "number": 100,
            "time": 0,
            "value": 0
          },
          {
            "number": 100,
            "time": 0,
            "value": 0
          },
          {
            "number": 100,
            "time": 0,
            "value": 0
          },
          {
            "number": 100,
            "time": 108.45187199999945,
            "value": 0
          },
          {
            "number": 100,
            "time": 108.46233224999945,
            "value": 0
          },
          {
            "number": 100,
            "time": 108.46233224999945,
            "value": 0
          }
        ],
        "101": [
          {
            "number": 101,
            "time": 0,
            "value": 0
          },
          {
            "number": 101,
            "time": 0,
            "value": 0
          },
          {
            "number": 101,
            "time": 0,
            "value": 0
          },
          {
            "number": 101,
            "time": 108.45187199999945,
            "value": 0
          },
          {
            "number": 101,
            "time": 108.46233224999945,
            "value": 0
          },
          {
            "number": 101,
            "time": 108.46233224999945,
            "value": 0
          }
        ]
      },
      "id": 14,
      "name": "MIDI out #12",
      "instrumentNumber": 49,
      "instrument": "string ensemble 2",
      "instrumentFamily": "ensemble",
      "channelNumber": 7,
      "isPercussion": false
    },
    {
      "startTime": 11.29707,
      "duration": 106.94559600000002,
      "length": 72,
      "notes": [
        {
          "name": "D#3",
          "midi": 51,
          "time": 11.29707,
          "velocity": 0.7874015748031497,
          "duration": 0.25104600000000055
        },
        {
          "name": "A#3",
          "midi": 58,
          "time": 11.548116,
          "velocity": 0.7874015748031497,
          "duration": 0.25104600000000055
        },
        {
          "name": "G#3",
          "midi": 56,
          "time": 11.799162,
          "velocity": 0.7874015748031497,
          "duration": 0.25104600000000055
        },
        {
          "name": "F#3",
          "midi": 54,
          "time": 12.050208000000001,
          "velocity": 0.7874015748031497,
          "duration": 1.0041840000000004
        },
        {
          "name": "F3",
          "midi": 53,
          "time": 13.054392000000002,
          "velocity": 0.7874015748031497,
          "duration": 0.25104600000000055
        },
        {
          "name": "G#3",
          "midi": 56,
          "time": 13.556484000000003,
          "velocity": 0.7874015748031497,
          "duration": 0.5020919999999993
        },
        {
          "name": "F3",
          "midi": 53,
          "time": 14.058576000000002,
          "velocity": 0.7874015748031497,
          "duration": 0.25104600000000055
        },
        {
          "name": "D#3",
          "midi": 51,
          "time": 14.309622000000003,
          "velocity": 0.7874015748031497,
          "duration": 0.12552299999999939
        },
        {
          "name": "F3",
          "midi": 53,
          "time": 14.435145000000002,
          "velocity": 0.7874015748031497,
          "duration": 0.12552299999999939
        },
        {
          "name": "D#3",
          "midi": 51,
          "time": 14.560668000000001,
          "velocity": 0.7874015748031497,
          "duration": 0.25104600000000055
        },
        {
          "name": "C#4",
          "midi": 61,
          "time": 14.811714000000002,
          "velocity": 0.7874015748031497,
          "duration": 0.25104600000000055
        },
        {
          "name": "F3",
          "midi": 53,
          "time": 15.062760000000003,
          "velocity": 0.7874015748031497,
          "duration": 2.008367999999999
        },
        {
          "name": "D#3",
          "midi": 51,
          "time": 29.372382,
          "velocity": 0.7874015748031497,
          "duration": 0.25104599999999877
        },
        {
          "name": "A#3",
          "midi": 58,
          "time": 29.623428,
          "velocity": 0.7874015748031497,
          "duration": 0.25104599999999877
        },
        {
          "name": "G#3",
          "midi": 56,
          "time": 29.874474,
          "velocity": 0.7874015748031497,
          "duration": 0.25104599999999877
        },
        {
          "name": "F#3",
          "midi": 54,
          "time": 30.125519999999998,
          "velocity": 0.7874015748031497,
          "duration": 1.0041839999999986
        },
        {
          "name": "F3",
          "midi": 53,
          "time": 31.129703999999997,
          "velocity": 0.7874015748031497,
          "duration": 0.25104599999999877
        },
        {
          "name": "G#3",
          "midi": 56,
          "time": 31.631795999999994,
          "velocity": 0.7874015748031497,
          "duration": 0.5020919999999975
        },
        {
          "name": "F3",
          "midi": 53,
          "time": 32.13388799999999,
          "velocity": 0.7874015748031497,
          "duration": 0.2510460000000023
        },
        {
          "name": "D#3",
          "midi": 51,
          "time": 32.384933999999994,
          "velocity": 0.7874015748031497,
          "duration": 0.12552300000000116
        },
        {
          "name": "F3",
          "midi": 53,
          "time": 32.510456999999995,
          "velocity": 0.7874015748031497,
          "duration": 0.12552300000000116
        },
        {
          "name": "D#3",
          "midi": 51,
          "time": 32.635979999999996,
          "velocity": 0.7874015748031497,
          "duration": 0.2510460000000023
        },
        {
          "name": "C#4",
          "midi": 61,
          "time": 32.887026,
          "velocity": 0.7874015748031497,
          "duration": 0.2510460000000023
        },
        {
          "name": "F3",
          "midi": 53,
          "time": 33.138072,
          "velocity": 0.7874015748031497,
          "duration": 1.3807529999999986
        },
        {
          "name": "D#3",
          "midi": 51,
          "time": 34.644348,
          "velocity": 0.7874015748031497,
          "duration": 1.3807529999999986
        },
        {
          "name": "F#2",
          "midi": 42,
          "time": 36.150624,
          "velocity": 0.6299212598425197,
          "duration": 1.3807529999999986
        },
        {
          "name": "A#2",
          "midi": 46,
          "time": 36.150624,
          "velocity": 0.6299212598425197,
          "duration": 1.3807529999999986
        },
        {
          "name": "C3",
          "midi": 48,
          "time": 37.6569,
          "velocity": 0.6299212598425197,
          "duration": 1.3807529999999986
        },
        {
          "name": "G#2",
          "midi": 44,
          "time": 37.6569,
          "velocity": 0.6299212598425197,
          "duration": 1.3807529999999986
        },
        {
          "name": "C#3",
          "midi": 49,
          "time": 39.163176,
          "velocity": 0.6299212598425197,
          "duration": 1.3807529999999986
        },
        {
          "name": "A#2",
          "midi": 46,
          "time": 39.163176,
          "velocity": 0.6299212598425197,
          "duration": 1.3807529999999986
        },
        {
          "name": "G#2",
          "midi": 44,
          "time": 40.669452,
          "velocity": 0.6299212598425197,
          "duration": 1.3807529999999986
        },
        {
          "name": "C3",
          "midi": 48,
          "time": 40.669452,
          "velocity": 0.6299212598425197,
          "duration": 1.3807529999999986
        },
        {
          "name": "F#2",
          "midi": 42,
          "time": 42.175728,
          "velocity": 0.7795275590551181,
          "duration": 1.3807529999999986
        },
        {
          "name": "G#2",
          "midi": 44,
          "time": 43.682004,
          "velocity": 0.7795275590551181,
          "duration": 1.3807529999999986
        },
        {
          "name": "A#2",
          "midi": 46,
          "time": 45.18828,
          "velocity": 0.7795275590551181,
          "duration": 0.7531379999999999
        },
        {
          "name": "B2",
          "midi": 47,
          "time": 45.941418,
          "velocity": 0.7795275590551181,
          "duration": 0.7531379999999999
        },
        {
          "name": "D#3",
          "midi": 51,
          "time": 46.694556,
          "velocity": 0.7795275590551181,
          "duration": 0.7531379999999999
        },
        {
          "name": "A#3",
          "midi": 58,
          "time": 47.447694,
          "velocity": 0.8661417322834646,
          "duration": 0.7531379999999999
        },
        {
          "name": "B3",
          "midi": 59,
          "time": 48.200832,
          "velocity": 0.8661417322834646,
          "duration": 0.7531379999999999
        },
        {
          "name": "A#3",
          "midi": 58,
          "time": 48.95397,
          "velocity": 0.8661417322834646,
          "duration": 0.7531379999999999
        },
        {
          "name": "G#3",
          "midi": 56,
          "time": 49.707108,
          "velocity": 0.8661417322834646,
          "duration": 0.7531379999999999
        },
        {
          "name": "F#3",
          "midi": 54,
          "time": 50.460246,
          "velocity": 0.8661417322834646,
          "duration": 0.7531379999999999
        },
        {
          "name": "D#3",
          "midi": 51,
          "time": 86.61087,
          "velocity": 0.7874015748031497,
          "duration": 0.2510460000000023
        },
        {
          "name": "A#3",
          "midi": 58,
          "time": 86.86191600000001,
          "velocity": 0.7874015748031497,
          "duration": 0.2510460000000023
        },
        {
          "name": "G#3",
          "midi": 56,
          "time": 87.11296200000001,
          "velocity": 0.7874015748031497,
          "duration": 0.2510460000000023
        },
        {
          "name": "F#3",
          "midi": 54,
          "time": 87.36400800000001,
          "velocity": 0.7874015748031497,
          "duration": 1.004183999999995
        },
        {
          "name": "F3",
          "midi": 53,
          "time": 88.36819200000001,
          "velocity": 0.7874015748031497,
          "duration": 0.2510460000000023
        },
        {
          "name": "G#3",
          "midi": 56,
          "time": 88.87028400000001,
          "velocity": 0.7874015748031497,
          "duration": 0.5020920000000046
        },
        {
          "name": "F3",
          "midi": 53,
          "time": 89.37237600000002,
          "velocity": 0.7874015748031497,
          "duration": 0.2510460000000023
        },
        {
          "name": "D#3",
          "midi": 51,
          "time": 89.62342200000002,
          "velocity": 0.7874015748031497,
          "duration": 0.12552300000000116
        },
        {
          "name": "F3",
          "midi": 53,
          "time": 89.74894500000002,
          "velocity": 0.7874015748031497,
          "duration": 0.12552300000000116
        },
        {
          "name": "D#3",
          "midi": 51,
          "time": 89.87446800000002,
          "velocity": 0.7874015748031497,
          "duration": 0.2510460000000023
        },
        {
          "name": "C#4",
          "midi": 61,
          "time": 90.12551400000002,
          "velocity": 0.7874015748031497,
          "duration": 0.2510460000000023
        },
        {
          "name": "F3",
          "midi": 53,
          "time": 90.37656000000003,
          "velocity": 0.7874015748031497,
          "duration": 1.3807529999999986
        },
        {
          "name": "D#3",
          "midi": 51,
          "time": 91.88283600000003,
          "velocity": 0.7874015748031497,
          "duration": 1.3807529999999986
        },
        {
          "name": "A#2",
          "midi": 46,
          "time": 93.38911200000003,
          "velocity": 0.6299212598425197,
          "duration": 1.3807529999999986
        },
        {
          "name": "F#2",
          "midi": 42,
          "time": 93.38911200000003,
          "velocity": 0.6299212598425197,
          "duration": 1.3807529999999986
        },
        {
          "name": "G#2",
          "midi": 44,
          "time": 94.89538800000003,
          "velocity": 0.6299212598425197,
          "duration": 1.3807529999999986
        },
        {
          "name": "C3",
          "midi": 48,
          "time": 94.89538800000003,
          "velocity": 0.6299212598425197,
          "duration": 1.3807529999999986
        },
        {
          "name": "A#2",
          "midi": 46,
          "time": 96.40166400000003,
          "velocity": 0.6299212598425197,
          "duration": 1.3807529999999986
        },
        {
          "name": "C#3",
          "midi": 49,
          "time": 96.40166400000003,
          "velocity": 0.6299212598425197,
          "duration": 1.3807529999999986
        },
        {
          "name": "C3",
          "midi": 48,
          "time": 97.90794000000002,
          "velocity": 0.6299212598425197,
          "duration": 1.3807529999999986
        },
        {
          "name": "G#2",
          "midi": 44,
          "time": 97.90794000000002,
          "velocity": 0.6299212598425197,
          "duration": 1.3807529999999986
        },
        {
          "name": "F#2",
          "midi": 42,
          "time": 99.41421600000002,
          "velocity": 0.7795275590551181,
          "duration": 1.3807529999999986
        },
        {
          "name": "C3",
          "midi": 48,
          "time": 100.92049200000002,
          "velocity": 0.7795275590551181,
          "duration": 0.5020920000000046
        },
        {
          "name": "F3",
          "midi": 53,
          "time": 101.42258400000003,
          "velocity": 0.7795275590551181,
          "duration": 1.004183999999995
        },
        {
          "name": "C#3",
          "midi": 49,
          "time": 102.42676800000002,
          "velocity": 0.7795275590551181,
          "duration": 0.5020920000000046
        },
        {
          "name": "F#3",
          "midi": 54,
          "time": 102.92886000000003,
          "velocity": 0.7795275590551181,
          "duration": 1.004183999999995
        },
        {
          "name": "D#3",
          "midi": 51,
          "time": 103.93304400000002,
          "velocity": 0.7795275590551181,
          "duration": 0.5020920000000046
        },
        {
          "name": "G#3",
          "midi": 56,
          "time": 104.43513600000003,
          "velocity": 0.7795275590551181,
          "duration": 1.004183999999995
        },
        {
          "name": "A#3",
          "midi": 58,
          "time": 105.43932000000002,
          "velocity": 0.7795275590551181,
          "duration": 1.5062759999999997
        }
      ],
      "controlChanges": {
        "6": [
          {
            "number": 6,
            "time": 0,
            "value": 0.09448818897637795
          },
          {
            "number": 6,
            "time": 0,
            "value": 0.09448818897637795
          },
          {
            "number": 6,
            "time": 0,
            "value": 0.09448818897637795
          },
          {
            "number": 6,
            "time": 108.45187200000002,
            "value": 0.09448818897637795
          },
          {
            "number": 6,
            "time": 108.46233225000002,
            "value": 0.09448818897637795
          },
          {
            "number": 6,
            "time": 108.46233225000002,
            "value": 0.09448818897637795
          }
        ],
        "7": [
          {
            "number": 7,
            "time": 0,
            "value": 1
          },
          {
            "number": 7,
            "time": 0,
            "value": 1
          },
          {
            "number": 7,
            "time": 0,
            "value": 1
          },
          {
            "number": 7,
            "time": 0,
            "value": 1
          },
          {
            "number": 7,
            "time": 108.45187200000002,
            "value": 1
          },
          {
            "number": 7,
            "time": 108.46233225000002,
            "value": 1
          },
          {
            "number": 7,
            "time": 108.46233225000002,
            "value": 1
          }
        ],
        "10": [
          {
            "number": 10,
            "time": 0,
            "value": 0.5039370078740157
          },
          {
            "number": 10,
            "time": 0,
            "value": 0.5039370078740157
          },
          {
            "number": 10,
            "time": 0,
            "value": 0.5039370078740157
          },
          {
            "number": 10,
            "time": 0,
            "value": 0.5039370078740157
          },
          {
            "number": 10,
            "time": 108.45187200000002,
            "value": 0.5039370078740157
          },
          {
            "number": 10,
            "time": 108.46233225000002,
            "value": 0.5039370078740157
          },
          {
            "number": 10,
            "time": 108.46233225000002,
            "value": 0.5039370078740157
          }
        ],
        "100": [
          {
            "number": 100,
            "time": 0,
            "value": 0
          },
          {
            "number": 100,
            "time": 0,
            "value": 0
          },
          {
            "number": 100,
            "time": 0,
            "value": 0
          },
          {
            "number": 100,
            "time": 108.45187200000002,
            "value": 0
          },
          {
            "number": 100,
            "time": 108.46233225000002,
            "value": 0
          },
          {
            "number": 100,
            "time": 108.46233225000002,
            "value": 0
          }
        ],
        "101": [
          {
            "number": 101,
            "time": 0,
            "value": 0
          },
          {
            "number": 101,
            "time": 0,
            "value": 0
          },
          {
            "number": 101,
            "time": 0,
            "value": 0
          },
          {
            "number": 101,
            "time": 108.45187200000002,
            "value": 0
          },
          {
            "number": 101,
            "time": 108.46233225000002,
            "value": 0
          },
          {
            "number": 101,
            "time": 108.46233225000002,
            "value": 0
          }
        ]
      },
      "id": 15,
      "name": "MIDI out #13",
      "instrumentNumber": 57,
      "instrument": "trombone",
      "instrumentFamily": "brass",
      "channelNumber": 8,
      "isPercussion": false
    },
    {
      "startTime": 12.050208,
      "duration": 106.94559599999889,
      "length": 28,
      "notes": [
        {
          "name": "F#2",
          "midi": 42,
          "time": 12.050208,
          "velocity": 0.7874015748031497,
          "duration": 1.5062759999999997
        },
        {
          "name": "G#2",
          "midi": 44,
          "time": 13.556484,
          "velocity": 0.7874015748031497,
          "duration": 1.5062759999999997
        },
        {
          "name": "A#2",
          "midi": 46,
          "time": 15.062759999999999,
          "velocity": 0.7874015748031497,
          "duration": 2.008367999999999
        },
        {
          "name": "F#2",
          "midi": 42,
          "time": 30.125519999999998,
          "velocity": 0.7874015748031497,
          "duration": 1.5062759999999997
        },
        {
          "name": "G#2",
          "midi": 44,
          "time": 31.631795999999998,
          "velocity": 0.7874015748031497,
          "duration": 1.5062760000000033
        },
        {
          "name": "A#2",
          "midi": 46,
          "time": 33.138072,
          "velocity": 0.7874015748031497,
          "duration": 1.5062759999999997
        },
        {
          "name": "G#2",
          "midi": 44,
          "time": 34.644348,
          "velocity": 0.7874015748031497,
          "duration": 1.5062759999999997
        },
        {
          "name": "F#2",
          "midi": 42,
          "time": 36.150624,
          "velocity": 0.7874015748031497,
          "duration": 1.5062759999999997
        },
        {
          "name": "G#2",
          "midi": 44,
          "time": 37.6569,
          "velocity": 0.7874015748031497,
          "duration": 1.5062759999999997
        },
        {
          "name": "A#2",
          "midi": 46,
          "time": 39.163176,
          "velocity": 0.7874015748031497,
          "duration": 1.5062759999999997
        },
        {
          "name": "G#2",
          "midi": 44,
          "time": 40.669452,
          "velocity": 0.7874015748031497,
          "duration": 1.5062759999999997
        },
        {
          "name": "F#2",
          "midi": 42,
          "time": 42.175728,
          "velocity": 0.7874015748031497,
          "duration": 1.5062759999999997
        },
        {
          "name": "G#2",
          "midi": 44,
          "time": 43.682004,
          "velocity": 0.7874015748031497,
          "duration": 1.5062759999999997
        },
        {
          "name": "A#2",
          "midi": 46,
          "time": 45.18828,
          "velocity": 0.7874015748031497,
          "duration": 3.012551999998898
        },
        {
          "name": "F#2",
          "midi": 42,
          "time": 87.36400799999889,
          "velocity": 0.7874015748031497,
          "duration": 1.5062759999999997
        },
        {
          "name": "G#2",
          "midi": 44,
          "time": 88.87028399999889,
          "velocity": 0.7874015748031497,
          "duration": 1.5062759999999997
        },
        {
          "name": "A#2",
          "midi": 46,
          "time": 90.37655999999889,
          "velocity": 0.7874015748031497,
          "duration": 1.5062759999999997
        },
        {
          "name": "G#2",
          "midi": 44,
          "time": 91.88283599999889,
          "velocity": 0.7874015748031497,
          "duration": 1.5062759999999997
        },
        {
          "name": "F#2",
          "midi": 42,
          "time": 93.38911199999889,
          "velocity": 0.7874015748031497,
          "duration": 1.5062759999999997
        },
        {
          "name": "C3",
          "midi": 48,
          "time": 94.89538799999889,
          "velocity": 0.7874015748031497,
          "duration": 1.5062759999999997
        },
        {
          "name": "C#3",
          "midi": 49,
          "time": 96.40166399999889,
          "velocity": 0.7874015748031497,
          "duration": 1.5062759999999997
        },
        {
          "name": "C3",
          "midi": 48,
          "time": 97.90793999999889,
          "velocity": 0.7874015748031497,
          "duration": 1.5062759999999997
        },
        {
          "name": "F#2",
          "midi": 42,
          "time": 99.41421599999889,
          "velocity": 0.7874015748031497,
          "duration": 1.5062759999999997
        },
        {
          "name": "C3",
          "midi": 48,
          "time": 100.92049199999889,
          "velocity": 0.7874015748031497,
          "duration": 1.5062759999999997
        },
        {
          "name": "C#3",
          "midi": 49,
          "time": 102.42676799999889,
          "velocity": 0.7874015748031497,
          "duration": 1.5062759999999997
        },
        {
          "name": "D#3",
          "midi": 51,
          "time": 103.93304399999889,
          "velocity": 0.7874015748031497,
          "duration": 1.5062759999999997
        },
        {
          "name": "A#3",
          "midi": 58,
          "time": 105.43931999999889,
          "velocity": 0.7874015748031497,
          "duration": 1.5062759999999997
        },
        {
          "name": "A#2",
          "midi": 46,
          "time": 105.43931999999889,
          "velocity": 0.7874015748031497,
          "duration": 1.5062759999999997
        }
      ],
      "controlChanges": {
        "6": [
          {
            "number": 6,
            "time": 0,
            "value": 0.09448818897637795
          },
          {
            "number": 6,
            "time": 0,
            "value": 0.09448818897637795
          },
          {
            "number": 6,
            "time": 0,
            "value": 0.09448818897637795
          },
          {
            "number": 6,
            "time": 108.45187199999889,
            "value": 0.09448818897637795
          },
          {
            "number": 6,
            "time": 108.46233224999888,
            "value": 0.09448818897637795
          },
          {
            "number": 6,
            "time": 108.46233224999888,
            "value": 0.09448818897637795
          }
        ],
        "7": [
          {
            "number": 7,
            "time": 0,
            "value": 0.7637795275590551
          },
          {
            "number": 7,
            "time": 0,
            "value": 0.7637795275590551
          },
          {
            "number": 7,
            "time": 0,
            "value": 0.7637795275590551
          },
          {
            "number": 7,
            "time": 0,
            "value": 0.7637795275590551
          },
          {
            "number": 7,
            "time": 0,
            "value": 0.7637795275590551
          },
          {
            "number": 7,
            "time": 0,
            "value": 0.7637795275590551
          },
          {
            "number": 7,
            "time": 46.192464,
            "value": 0.7559055118110236
          },
          {
            "number": 7,
            "time": 46.197694125,
            "value": 0.7559055118110236
          },
          {
            "number": 7,
            "time": 46.202924249999995,
            "value": 0.7559055118110236
          },
          {
            "number": 7,
            "time": 46.20815437499999,
            "value": 0.7559055118110236
          },
          {
            "number": 7,
            "time": 46.21338449999999,
            "value": 0.7480314960629921
          },
          {
            "number": 7,
            "time": 46.21861462499999,
            "value": 0.7480314960629921
          },
          {
            "number": 7,
            "time": 46.223844749999984,
            "value": 0.7480314960629921
          },
          {
            "number": 7,
            "time": 46.22907487499998,
            "value": 0.7480314960629921
          },
          {
            "number": 7,
            "time": 46.23430499999998,
            "value": 0.7401574803149606
          },
          {
            "number": 7,
            "time": 46.239535124999975,
            "value": 0.7401574803149606
          },
          {
            "number": 7,
            "time": 46.24476524999997,
            "value": 0.7401574803149606
          },
          {
            "number": 7,
            "time": 46.24999537499997,
            "value": 0.7401574803149606
          },
          {
            "number": 7,
            "time": 46.255225499999966,
            "value": 0.7322834645669292
          },
          {
            "number": 7,
            "time": 46.26045562499996,
            "value": 0.7322834645669292
          },
          {
            "number": 7,
            "time": 46.26568574999996,
            "value": 0.7322834645669292
          },
          {
            "number": 7,
            "time": 46.27091587499996,
            "value": 0.7322834645669292
          },
          {
            "number": 7,
            "time": 46.276145999999954,
            "value": 0.7244094488188977
          },
          {
            "number": 7,
            "time": 46.28137612499995,
            "value": 0.7244094488188977
          },
          {
            "number": 7,
            "time": 46.28660624999995,
            "value": 0.7244094488188977
          },
          {
            "number": 7,
            "time": 46.291836374999946,
            "value": 0.7244094488188977
          },
          {
            "number": 7,
            "time": 46.29706649999994,
            "value": 0.7165354330708661
          },
          {
            "number": 7,
            "time": 46.30229662499994,
            "value": 0.7165354330708661
          },
          {
            "number": 7,
            "time": 46.30752674999994,
            "value": 0.7165354330708661
          },
          {
            "number": 7,
            "time": 46.312756874999934,
            "value": 0.7165354330708661
          },
          {
            "number": 7,
            "time": 46.31798699999993,
            "value": 0.7086614173228346
          },
          {
            "number": 7,
            "time": 46.32321712499993,
            "value": 0.7086614173228346
          },
          {
            "number": 7,
            "time": 46.328447249999925,
            "value": 0.7086614173228346
          },
          {
            "number": 7,
            "time": 46.33367737499992,
            "value": 0.7007874015748031
          },
          {
            "number": 7,
            "time": 46.33890749999992,
            "value": 0.7007874015748031
          },
          {
            "number": 7,
            "time": 46.34413762499992,
            "value": 0.7007874015748031
          },
          {
            "number": 7,
            "time": 46.349367749999914,
            "value": 0.7007874015748031
          },
          {
            "number": 7,
            "time": 46.35459787499991,
            "value": 0.6929133858267716
          },
          {
            "number": 7,
            "time": 46.35982799999991,
            "value": 0.6929133858267716
          },
          {
            "number": 7,
            "time": 46.365058124999905,
            "value": 0.6929133858267716
          },
          {
            "number": 7,
            "time": 46.3702882499999,
            "value": 0.6929133858267716
          },
          {
            "number": 7,
            "time": 46.3755183749999,
            "value": 0.6850393700787402
          },
          {
            "number": 7,
            "time": 46.380748499999896,
            "value": 0.6850393700787402
          },
          {
            "number": 7,
            "time": 46.38597862499989,
            "value": 0.6850393700787402
          },
          {
            "number": 7,
            "time": 46.39120874999989,
            "value": 0.6850393700787402
          },
          {
            "number": 7,
            "time": 46.39643887499989,
            "value": 0.6771653543307087
          },
          {
            "number": 7,
            "time": 46.401668999999885,
            "value": 0.6771653543307087
          },
          {
            "number": 7,
            "time": 46.40689912499988,
            "value": 0.6771653543307087
          },
          {
            "number": 7,
            "time": 46.41212924999988,
            "value": 0.6771653543307087
          },
          {
            "number": 7,
            "time": 46.417359374999876,
            "value": 0.6692913385826772
          },
          {
            "number": 7,
            "time": 46.42258949999987,
            "value": 0.6692913385826772
          },
          {
            "number": 7,
            "time": 46.42781962499987,
            "value": 0.6692913385826772
          },
          {
            "number": 7,
            "time": 46.43304974999987,
            "value": 0.6692913385826772
          },
          {
            "number": 7,
            "time": 46.438279874999864,
            "value": 0.6614173228346457
          },
          {
            "number": 7,
            "time": 46.44350999999986,
            "value": 0.6614173228346457
          },
          {
            "number": 7,
            "time": 46.44874012499986,
            "value": 0.6614173228346457
          },
          {
            "number": 7,
            "time": 46.453970249999855,
            "value": 0.6614173228346457
          },
          {
            "number": 7,
            "time": 46.45920037499985,
            "value": 0.6535433070866141
          },
          {
            "number": 7,
            "time": 46.46443049999985,
            "value": 0.6535433070866141
          },
          {
            "number": 7,
            "time": 46.46966062499985,
            "value": 0.6535433070866141
          },
          {
            "number": 7,
            "time": 46.474890749999844,
            "value": 0.6535433070866141
          },
          {
            "number": 7,
            "time": 46.48012087499984,
            "value": 0.6456692913385826
          },
          {
            "number": 7,
            "time": 46.48535099999984,
            "value": 0.6456692913385826
          },
          {
            "number": 7,
            "time": 46.490581124999835,
            "value": 0.6456692913385826
          },
          {
            "number": 7,
            "time": 46.49581124999983,
            "value": 0.6456692913385826
          },
          {
            "number": 7,
            "time": 46.50104137499983,
            "value": 0.6377952755905512
          },
          {
            "number": 7,
            "time": 46.506271499999826,
            "value": 0.6377952755905512
          },
          {
            "number": 7,
            "time": 46.51150162499982,
            "value": 0.6377952755905512
          },
          {
            "number": 7,
            "time": 46.51673174999982,
            "value": 0.6377952755905512
          },
          {
            "number": 7,
            "time": 46.52196187499982,
            "value": 0.6299212598425197
          },
          {
            "number": 7,
            "time": 46.527191999999815,
            "value": 0.6299212598425197
          },
          {
            "number": 7,
            "time": 46.53242212499981,
            "value": 0.6299212598425197
          },
          {
            "number": 7,
            "time": 46.53765224999981,
            "value": 0.6299212598425197
          },
          {
            "number": 7,
            "time": 46.542882374999806,
            "value": 0.6220472440944882
          },
          {
            "number": 7,
            "time": 46.5481124999998,
            "value": 0.6220472440944882
          },
          {
            "number": 7,
            "time": 46.5533426249998,
            "value": 0.6220472440944882
          },
          {
            "number": 7,
            "time": 46.5585727499998,
            "value": 0.6220472440944882
          },
          {
            "number": 7,
            "time": 46.563802874999794,
            "value": 0.6141732283464567
          },
          {
            "number": 7,
            "time": 46.56903299999979,
            "value": 0.6141732283464567
          },
          {
            "number": 7,
            "time": 46.57426312499979,
            "value": 0.6141732283464567
          },
          {
            "number": 7,
            "time": 46.579493249999786,
            "value": 0.6141732283464567
          },
          {
            "number": 7,
            "time": 46.58472337499978,
            "value": 0.6062992125984252
          },
          {
            "number": 7,
            "time": 46.58995349999978,
            "value": 0.6062992125984252
          },
          {
            "number": 7,
            "time": 46.59518362499978,
            "value": 0.6062992125984252
          },
          {
            "number": 7,
            "time": 46.600413749999774,
            "value": 0.5984251968503937
          },
          {
            "number": 7,
            "time": 46.60564387499977,
            "value": 0.5984251968503937
          },
          {
            "number": 7,
            "time": 46.61087399999977,
            "value": 0.5984251968503937
          },
          {
            "number": 7,
            "time": 46.616104124999765,
            "value": 0.5984251968503937
          },
          {
            "number": 7,
            "time": 46.62133424999976,
            "value": 0.5905511811023622
          },
          {
            "number": 7,
            "time": 46.62656437499976,
            "value": 0.5905511811023622
          },
          {
            "number": 7,
            "time": 46.63179449999976,
            "value": 0.5905511811023622
          },
          {
            "number": 7,
            "time": 46.63702462499975,
            "value": 0.5905511811023622
          },
          {
            "number": 7,
            "time": 46.64225474999975,
            "value": 0.5826771653543307
          },
          {
            "number": 7,
            "time": 46.64748487499975,
            "value": 0.5826771653543307
          },
          {
            "number": 7,
            "time": 46.652714999999745,
            "value": 0.5826771653543307
          },
          {
            "number": 7,
            "time": 46.65794512499974,
            "value": 0.5826771653543307
          },
          {
            "number": 7,
            "time": 46.66317524999974,
            "value": 0.5748031496062992
          },
          {
            "number": 7,
            "time": 46.668405374999736,
            "value": 0.5748031496062992
          },
          {
            "number": 7,
            "time": 46.67363549999973,
            "value": 0.5748031496062992
          },
          {
            "number": 7,
            "time": 46.67886562499973,
            "value": 0.5748031496062992
          },
          {
            "number": 7,
            "time": 46.68409574999973,
            "value": 0.5669291338582677
          },
          {
            "number": 7,
            "time": 46.689325874999724,
            "value": 0.5669291338582677
          },
          {
            "number": 7,
            "time": 46.69455599999972,
            "value": 0.5669291338582677
          },
          {
            "number": 7,
            "time": 46.69978612499972,
            "value": 0.5669291338582677
          },
          {
            "number": 7,
            "time": 46.705016249999716,
            "value": 0.5590551181102362
          },
          {
            "number": 7,
            "time": 46.71024637499971,
            "value": 0.5590551181102362
          },
          {
            "number": 7,
            "time": 46.71547649999971,
            "value": 0.5590551181102362
          },
          {
            "number": 7,
            "time": 46.72070662499971,
            "value": 0.5590551181102362
          },
          {
            "number": 7,
            "time": 46.725936749999704,
            "value": 0.5511811023622047
          },
          {
            "number": 7,
            "time": 46.7311668749997,
            "value": 0.5511811023622047
          },
          {
            "number": 7,
            "time": 46.7363969999997,
            "value": 0.5511811023622047
          },
          {
            "number": 7,
            "time": 46.741627124999695,
            "value": 0.5511811023622047
          },
          {
            "number": 7,
            "time": 46.74685724999969,
            "value": 0.5433070866141733
          },
          {
            "number": 7,
            "time": 46.75208737499969,
            "value": 0.5433070866141733
          },
          {
            "number": 7,
            "time": 46.75731749999969,
            "value": 0.5433070866141733
          },
          {
            "number": 7,
            "time": 46.762547624999684,
            "value": 0.5433070866141733
          },
          {
            "number": 7,
            "time": 46.76777774999968,
            "value": 0.5354330708661418
          },
          {
            "number": 7,
            "time": 46.77300787499968,
            "value": 0.5354330708661418
          },
          {
            "number": 7,
            "time": 46.778237999999675,
            "value": 0.5354330708661418
          },
          {
            "number": 7,
            "time": 46.78346812499967,
            "value": 0.5354330708661418
          },
          {
            "number": 7,
            "time": 46.78869824999967,
            "value": 0.5275590551181102
          },
          {
            "number": 7,
            "time": 46.793928374999666,
            "value": 0.5275590551181102
          },
          {
            "number": 7,
            "time": 46.79915849999966,
            "value": 0.5275590551181102
          },
          {
            "number": 7,
            "time": 46.80438862499966,
            "value": 0.5275590551181102
          },
          {
            "number": 7,
            "time": 46.80961874999966,
            "value": 0.5196850393700787
          },
          {
            "number": 7,
            "time": 46.814848874999655,
            "value": 0.5196850393700787
          },
          {
            "number": 7,
            "time": 46.82007899999965,
            "value": 0.5196850393700787
          },
          {
            "number": 7,
            "time": 46.82530912499965,
            "value": 0.5196850393700787
          },
          {
            "number": 7,
            "time": 46.830539249999646,
            "value": 0.5118110236220472
          },
          {
            "number": 7,
            "time": 46.83576937499964,
            "value": 0.5118110236220472
          },
          {
            "number": 7,
            "time": 46.84099949999964,
            "value": 0.5118110236220472
          },
          {
            "number": 7,
            "time": 46.84622962499964,
            "value": 0.5118110236220472
          },
          {
            "number": 7,
            "time": 46.851459749999634,
            "value": 0.5039370078740157
          },
          {
            "number": 7,
            "time": 46.85668987499963,
            "value": 0.5039370078740157
          },
          {
            "number": 7,
            "time": 46.86191999999963,
            "value": 0.5039370078740157
          },
          {
            "number": 7,
            "time": 46.867150124999625,
            "value": 0.49606299212598426
          },
          {
            "number": 7,
            "time": 46.87238024999962,
            "value": 0.49606299212598426
          },
          {
            "number": 7,
            "time": 46.87761037499962,
            "value": 0.49606299212598426
          },
          {
            "number": 7,
            "time": 46.88284049999962,
            "value": 0.49606299212598426
          },
          {
            "number": 7,
            "time": 46.888070624999614,
            "value": 0.4881889763779528
          },
          {
            "number": 7,
            "time": 46.89330074999961,
            "value": 0.4881889763779528
          },
          {
            "number": 7,
            "time": 46.89853087499961,
            "value": 0.4881889763779528
          },
          {
            "number": 7,
            "time": 46.903760999999605,
            "value": 0.4881889763779528
          },
          {
            "number": 7,
            "time": 46.9089911249996,
            "value": 0.48031496062992124
          },
          {
            "number": 7,
            "time": 46.9142212499996,
            "value": 0.48031496062992124
          },
          {
            "number": 7,
            "time": 46.919451374999596,
            "value": 0.48031496062992124
          },
          {
            "number": 7,
            "time": 46.92468149999959,
            "value": 0.48031496062992124
          },
          {
            "number": 7,
            "time": 46.92991162499959,
            "value": 0.47244094488188976
          },
          {
            "number": 7,
            "time": 46.93514174999959,
            "value": 0.47244094488188976
          },
          {
            "number": 7,
            "time": 46.940371874999585,
            "value": 0.47244094488188976
          },
          {
            "number": 7,
            "time": 46.94560199999958,
            "value": 0.47244094488188976
          },
          {
            "number": 7,
            "time": 46.95083212499958,
            "value": 0.4645669291338583
          },
          {
            "number": 7,
            "time": 46.956062249999576,
            "value": 0.4645669291338583
          },
          {
            "number": 7,
            "time": 46.96129237499957,
            "value": 0.4645669291338583
          },
          {
            "number": 7,
            "time": 46.96652249999957,
            "value": 0.4645669291338583
          },
          {
            "number": 7,
            "time": 46.97175262499957,
            "value": 0.4566929133858268
          },
          {
            "number": 7,
            "time": 46.976982749999564,
            "value": 0.4566929133858268
          },
          {
            "number": 7,
            "time": 46.98221287499956,
            "value": 0.4566929133858268
          },
          {
            "number": 7,
            "time": 46.98744299999956,
            "value": 0.4566929133858268
          },
          {
            "number": 7,
            "time": 46.992673124999556,
            "value": 0.44881889763779526
          },
          {
            "number": 7,
            "time": 46.99790324999955,
            "value": 0.44881889763779526
          },
          {
            "number": 7,
            "time": 47.00313337499955,
            "value": 0.44881889763779526
          },
          {
            "number": 7,
            "time": 47.00836349999955,
            "value": 0.44881889763779526
          },
          {
            "number": 7,
            "time": 47.013593624999544,
            "value": 0.4409448818897638
          },
          {
            "number": 7,
            "time": 47.01882374999954,
            "value": 0.4409448818897638
          },
          {
            "number": 7,
            "time": 47.02405387499954,
            "value": 0.4409448818897638
          },
          {
            "number": 7,
            "time": 47.029283999999535,
            "value": 0.4409448818897638
          },
          {
            "number": 7,
            "time": 47.03451412499953,
            "value": 0.4330708661417323
          },
          {
            "number": 7,
            "time": 47.03974424999953,
            "value": 0.4330708661417323
          },
          {
            "number": 7,
            "time": 47.044974374999526,
            "value": 0.4330708661417323
          },
          {
            "number": 7,
            "time": 47.05020449999952,
            "value": 0.4330708661417323
          },
          {
            "number": 7,
            "time": 47.05543462499952,
            "value": 0.4251968503937008
          },
          {
            "number": 7,
            "time": 47.06066474999952,
            "value": 0.4251968503937008
          },
          {
            "number": 7,
            "time": 47.065894874999515,
            "value": 0.4251968503937008
          },
          {
            "number": 7,
            "time": 47.07112499999951,
            "value": 0.4251968503937008
          },
          {
            "number": 7,
            "time": 47.07635512499951,
            "value": 0.41732283464566927
          },
          {
            "number": 7,
            "time": 47.081585249999506,
            "value": 0.41732283464566927
          },
          {
            "number": 7,
            "time": 47.0868153749995,
            "value": 0.41732283464566927
          },
          {
            "number": 7,
            "time": 47.0920454999995,
            "value": 0.41732283464566927
          },
          {
            "number": 7,
            "time": 47.0972756249995,
            "value": 0.4094488188976378
          },
          {
            "number": 7,
            "time": 47.102505749999494,
            "value": 0.4094488188976378
          },
          {
            "number": 7,
            "time": 47.10773587499949,
            "value": 0.4094488188976378
          },
          {
            "number": 7,
            "time": 47.11296599999949,
            "value": 0.4094488188976378
          },
          {
            "number": 7,
            "time": 47.118196124999486,
            "value": 0.4015748031496063
          },
          {
            "number": 7,
            "time": 47.12342624999948,
            "value": 0.4015748031496063
          },
          {
            "number": 7,
            "time": 47.12865637499948,
            "value": 0.4015748031496063
          },
          {
            "number": 7,
            "time": 47.13388649999948,
            "value": 0.3937007874015748
          },
          {
            "number": 7,
            "time": 47.139116624999474,
            "value": 0.3937007874015748
          },
          {
            "number": 7,
            "time": 47.14434674999947,
            "value": 0.3937007874015748
          },
          {
            "number": 7,
            "time": 47.14957687499947,
            "value": 0.3937007874015748
          },
          {
            "number": 7,
            "time": 47.154806999999465,
            "value": 0.3858267716535433
          },
          {
            "number": 7,
            "time": 47.16003712499946,
            "value": 0.3858267716535433
          },
          {
            "number": 7,
            "time": 47.16526724999946,
            "value": 0.3858267716535433
          },
          {
            "number": 7,
            "time": 47.17049737499946,
            "value": 0.3858267716535433
          },
          {
            "number": 7,
            "time": 47.175727499999454,
            "value": 0.3779527559055118
          },
          {
            "number": 7,
            "time": 47.18095762499945,
            "value": 0.3779527559055118
          },
          {
            "number": 7,
            "time": 47.18618774999945,
            "value": 0.3779527559055118
          },
          {
            "number": 7,
            "time": 47.191417874999445,
            "value": 0.3779527559055118
          },
          {
            "number": 7,
            "time": 47.19664799999944,
            "value": 0.3700787401574803
          },
          {
            "number": 7,
            "time": 47.20187812499944,
            "value": 0.3700787401574803
          },
          {
            "number": 7,
            "time": 47.207108249999436,
            "value": 0.3700787401574803
          },
          {
            "number": 7,
            "time": 47.21233837499943,
            "value": 0.3700787401574803
          },
          {
            "number": 7,
            "time": 47.21756849999943,
            "value": 0.36220472440944884
          },
          {
            "number": 7,
            "time": 47.22279862499943,
            "value": 0.36220472440944884
          },
          {
            "number": 7,
            "time": 47.228028749999424,
            "value": 0.36220472440944884
          },
          {
            "number": 7,
            "time": 47.23325887499942,
            "value": 0.36220472440944884
          },
          {
            "number": 7,
            "time": 47.23848899999942,
            "value": 0.3543307086614173
          },
          {
            "number": 7,
            "time": 47.243719124999416,
            "value": 0.3543307086614173
          },
          {
            "number": 7,
            "time": 47.24894924999941,
            "value": 0.3543307086614173
          },
          {
            "number": 7,
            "time": 47.25417937499941,
            "value": 0.3543307086614173
          },
          {
            "number": 7,
            "time": 47.25940949999941,
            "value": 0.3464566929133858
          },
          {
            "number": 7,
            "time": 47.264639624999404,
            "value": 0.3464566929133858
          },
          {
            "number": 7,
            "time": 47.2698697499994,
            "value": 0.3464566929133858
          },
          {
            "number": 7,
            "time": 47.2750998749994,
            "value": 0.3464566929133858
          },
          {
            "number": 7,
            "time": 47.280329999999395,
            "value": 0.33858267716535434
          },
          {
            "number": 7,
            "time": 47.28556012499939,
            "value": 0.33858267716535434
          },
          {
            "number": 7,
            "time": 47.29079024999939,
            "value": 0.33858267716535434
          },
          {
            "number": 7,
            "time": 47.29602037499939,
            "value": 0.33858267716535434
          },
          {
            "number": 7,
            "time": 47.301250499999384,
            "value": 0.33070866141732286
          },
          {
            "number": 7,
            "time": 47.30648062499938,
            "value": 0.33070866141732286
          },
          {
            "number": 7,
            "time": 47.31171074999938,
            "value": 0.33070866141732286
          },
          {
            "number": 7,
            "time": 47.316940874999375,
            "value": 0.33070866141732286
          },
          {
            "number": 7,
            "time": 47.32217099999937,
            "value": 0.3228346456692913
          },
          {
            "number": 7,
            "time": 47.32740112499937,
            "value": 0.3228346456692913
          },
          {
            "number": 7,
            "time": 47.332631249999366,
            "value": 0.3228346456692913
          },
          {
            "number": 7,
            "time": 47.33786137499936,
            "value": 0.3228346456692913
          },
          {
            "number": 7,
            "time": 47.34309149999936,
            "value": 0.31496062992125984
          },
          {
            "number": 7,
            "time": 47.34832162499936,
            "value": 0.31496062992125984
          },
          {
            "number": 7,
            "time": 47.353551749999355,
            "value": 0.31496062992125984
          },
          {
            "number": 7,
            "time": 47.35878187499935,
            "value": 0.31496062992125984
          },
          {
            "number": 7,
            "time": 47.36401199999935,
            "value": 0.30708661417322836
          },
          {
            "number": 7,
            "time": 47.369242124999346,
            "value": 0.30708661417322836
          },
          {
            "number": 7,
            "time": 47.37447224999934,
            "value": 0.30708661417322836
          },
          {
            "number": 7,
            "time": 47.37970237499934,
            "value": 0.30708661417322836
          },
          {
            "number": 7,
            "time": 47.38493249999934,
            "value": 0.2992125984251969
          },
          {
            "number": 7,
            "time": 47.390162624999334,
            "value": 0.2992125984251969
          },
          {
            "number": 7,
            "time": 47.39539274999933,
            "value": 0.2992125984251969
          },
          {
            "number": 7,
            "time": 47.40062287499933,
            "value": 0.29133858267716534
          },
          {
            "number": 7,
            "time": 47.405852999999325,
            "value": 0.29133858267716534
          },
          {
            "number": 7,
            "time": 47.41108312499932,
            "value": 0.29133858267716534
          },
          {
            "number": 7,
            "time": 47.41631324999932,
            "value": 0.29133858267716534
          },
          {
            "number": 7,
            "time": 47.42154337499932,
            "value": 0.28346456692913385
          },
          {
            "number": 7,
            "time": 47.426773499999314,
            "value": 0.28346456692913385
          },
          {
            "number": 7,
            "time": 47.43200362499931,
            "value": 0.28346456692913385
          },
          {
            "number": 7,
            "time": 47.43723374999931,
            "value": 0.28346456692913385
          },
          {
            "number": 7,
            "time": 47.442463874999305,
            "value": 0.2755905511811024
          },
          {
            "number": 7,
            "time": 47.4476939999993,
            "value": 0.2755905511811024
          },
          {
            "number": 7,
            "time": 47.4529241249993,
            "value": 0.2755905511811024
          },
          {
            "number": 7,
            "time": 47.458154249999296,
            "value": 0.2755905511811024
          },
          {
            "number": 7,
            "time": 47.46338437499929,
            "value": 0.2677165354330709
          },
          {
            "number": 7,
            "time": 47.46861449999929,
            "value": 0.2677165354330709
          },
          {
            "number": 7,
            "time": 47.47384462499929,
            "value": 0.2677165354330709
          },
          {
            "number": 7,
            "time": 47.479074749999285,
            "value": 0.2677165354330709
          },
          {
            "number": 7,
            "time": 47.48430487499928,
            "value": 0.25984251968503935
          },
          {
            "number": 7,
            "time": 47.48953499999928,
            "value": 0.25984251968503935
          },
          {
            "number": 7,
            "time": 47.494765124999276,
            "value": 0.25984251968503935
          },
          {
            "number": 7,
            "time": 47.49999524999927,
            "value": 0.25984251968503935
          },
          {
            "number": 7,
            "time": 47.50522537499927,
            "value": 0.25196850393700787
          },
          {
            "number": 7,
            "time": 47.51045549999927,
            "value": 0.25196850393700787
          },
          {
            "number": 7,
            "time": 47.515685624999264,
            "value": 0.25196850393700787
          },
          {
            "number": 7,
            "time": 47.52091574999926,
            "value": 0.25196850393700787
          },
          {
            "number": 7,
            "time": 47.52614587499926,
            "value": 0.2440944881889764
          },
          {
            "number": 7,
            "time": 47.531375999999256,
            "value": 0.2440944881889764
          },
          {
            "number": 7,
            "time": 47.53660612499925,
            "value": 0.2440944881889764
          },
          {
            "number": 7,
            "time": 47.54183624999925,
            "value": 0.2440944881889764
          },
          {
            "number": 7,
            "time": 47.54706637499925,
            "value": 0.23622047244094488
          },
          {
            "number": 7,
            "time": 47.552296499999244,
            "value": 0.23622047244094488
          },
          {
            "number": 7,
            "time": 47.55752662499924,
            "value": 0.23622047244094488
          },
          {
            "number": 7,
            "time": 47.56275674999924,
            "value": 0.23622047244094488
          },
          {
            "number": 7,
            "time": 47.567986874999235,
            "value": 0.2283464566929134
          },
          {
            "number": 7,
            "time": 47.57321699999923,
            "value": 0.2283464566929134
          },
          {
            "number": 7,
            "time": 47.57844712499923,
            "value": 0.2283464566929134
          },
          {
            "number": 7,
            "time": 47.583677249999226,
            "value": 0.2283464566929134
          },
          {
            "number": 7,
            "time": 47.58890737499922,
            "value": 0.2204724409448819
          },
          {
            "number": 7,
            "time": 47.59413749999922,
            "value": 0.2204724409448819
          },
          {
            "number": 7,
            "time": 47.59936762499922,
            "value": 0.2204724409448819
          },
          {
            "number": 7,
            "time": 47.604597749999215,
            "value": 0.2204724409448819
          },
          {
            "number": 7,
            "time": 47.60982787499921,
            "value": 0.2125984251968504
          },
          {
            "number": 7,
            "time": 47.61505799999921,
            "value": 0.2125984251968504
          },
          {
            "number": 7,
            "time": 47.620288124999206,
            "value": 0.2125984251968504
          },
          {
            "number": 7,
            "time": 47.6255182499992,
            "value": 0.2125984251968504
          },
          {
            "number": 7,
            "time": 47.6307483749992,
            "value": 0.2047244094488189
          },
          {
            "number": 7,
            "time": 47.6359784999992,
            "value": 0.2047244094488189
          },
          {
            "number": 7,
            "time": 47.641208624999194,
            "value": 0.2047244094488189
          },
          {
            "number": 7,
            "time": 47.64643874999919,
            "value": 0.2047244094488189
          },
          {
            "number": 7,
            "time": 47.65166887499919,
            "value": 0.1968503937007874
          },
          {
            "number": 7,
            "time": 47.656898999999186,
            "value": 0.1968503937007874
          },
          {
            "number": 7,
            "time": 47.66212912499918,
            "value": 0.1968503937007874
          },
          {
            "number": 7,
            "time": 47.66735924999918,
            "value": 0.1889763779527559
          },
          {
            "number": 7,
            "time": 47.67258937499918,
            "value": 0.1889763779527559
          },
          {
            "number": 7,
            "time": 47.677819499999174,
            "value": 0.1889763779527559
          },
          {
            "number": 7,
            "time": 47.68304962499917,
            "value": 0.1889763779527559
          },
          {
            "number": 7,
            "time": 47.68827974999917,
            "value": 0.18110236220472442
          },
          {
            "number": 7,
            "time": 47.693509874999165,
            "value": 0.18110236220472442
          },
          {
            "number": 7,
            "time": 47.69873999999916,
            "value": 0.18110236220472442
          },
          {
            "number": 7,
            "time": 47.70397012499916,
            "value": 0.18110236220472442
          },
          {
            "number": 7,
            "time": 47.70920024999916,
            "value": 0.1732283464566929
          },
          {
            "number": 7,
            "time": 47.714430374999154,
            "value": 0.1732283464566929
          },
          {
            "number": 7,
            "time": 47.71966049999915,
            "value": 0.1732283464566929
          },
          {
            "number": 7,
            "time": 47.72489062499915,
            "value": 0.1732283464566929
          },
          {
            "number": 7,
            "time": 47.730120749999145,
            "value": 0.16535433070866143
          },
          {
            "number": 7,
            "time": 47.73535087499914,
            "value": 0.16535433070866143
          },
          {
            "number": 7,
            "time": 47.74058099999914,
            "value": 0.16535433070866143
          },
          {
            "number": 7,
            "time": 47.745811124999136,
            "value": 0.16535433070866143
          },
          {
            "number": 7,
            "time": 47.75104124999913,
            "value": 0.15748031496062992
          },
          {
            "number": 7,
            "time": 47.75627137499913,
            "value": 0.15748031496062992
          },
          {
            "number": 7,
            "time": 47.76150149999913,
            "value": 0.15748031496062992
          },
          {
            "number": 7,
            "time": 47.766731624999125,
            "value": 0.15748031496062992
          },
          {
            "number": 7,
            "time": 47.77196174999912,
            "value": 0.14960629921259844
          },
          {
            "number": 7,
            "time": 47.77719187499912,
            "value": 0.14960629921259844
          },
          {
            "number": 7,
            "time": 47.782421999999116,
            "value": 0.14960629921259844
          },
          {
            "number": 7,
            "time": 47.78765212499911,
            "value": 0.14960629921259844
          },
          {
            "number": 7,
            "time": 47.79288224999911,
            "value": 0.14173228346456693
          },
          {
            "number": 7,
            "time": 47.79811237499911,
            "value": 0.14173228346456693
          },
          {
            "number": 7,
            "time": 47.803342499999104,
            "value": 0.14173228346456693
          },
          {
            "number": 7,
            "time": 47.8085726249991,
            "value": 0.14173228346456693
          },
          {
            "number": 7,
            "time": 47.8138027499991,
            "value": 0.13385826771653545
          },
          {
            "number": 7,
            "time": 47.819032874999095,
            "value": 0.13385826771653545
          },
          {
            "number": 7,
            "time": 47.82426299999909,
            "value": 0.13385826771653545
          },
          {
            "number": 7,
            "time": 47.82949312499909,
            "value": 0.13385826771653545
          },
          {
            "number": 7,
            "time": 47.83472324999909,
            "value": 0.12598425196850394
          },
          {
            "number": 7,
            "time": 47.839953374999084,
            "value": 0.12598425196850394
          },
          {
            "number": 7,
            "time": 47.84518349999908,
            "value": 0.12598425196850394
          },
          {
            "number": 7,
            "time": 47.85041362499908,
            "value": 0.12598425196850394
          },
          {
            "number": 7,
            "time": 47.855643749999075,
            "value": 0.11811023622047244
          },
          {
            "number": 7,
            "time": 47.86087387499907,
            "value": 0.11811023622047244
          },
          {
            "number": 7,
            "time": 47.86610399999907,
            "value": 0.11811023622047244
          },
          {
            "number": 7,
            "time": 47.871334124999066,
            "value": 0.11811023622047244
          },
          {
            "number": 7,
            "time": 47.87656424999906,
            "value": 0.11023622047244094
          },
          {
            "number": 7,
            "time": 47.88179437499906,
            "value": 0.11023622047244094
          },
          {
            "number": 7,
            "time": 47.88702449999906,
            "value": 0.11023622047244094
          },
          {
            "number": 7,
            "time": 47.892254624999055,
            "value": 0.11023622047244094
          },
          {
            "number": 7,
            "time": 47.89748474999905,
            "value": 0.10236220472440945
          },
          {
            "number": 7,
            "time": 47.90271487499905,
            "value": 0.10236220472440945
          },
          {
            "number": 7,
            "time": 47.907944999999046,
            "value": 0.10236220472440945
          },
          {
            "number": 7,
            "time": 47.91317512499904,
            "value": 0.10236220472440945
          },
          {
            "number": 7,
            "time": 47.91840524999904,
            "value": 0.09448818897637795
          },
          {
            "number": 7,
            "time": 47.92363537499904,
            "value": 0.09448818897637795
          },
          {
            "number": 7,
            "time": 47.928865499999034,
            "value": 0.09448818897637795
          },
          {
            "number": 7,
            "time": 47.93409562499903,
            "value": 0.08661417322834646
          },
          {
            "number": 7,
            "time": 47.93932574999903,
            "value": 0.08661417322834646
          },
          {
            "number": 7,
            "time": 47.944555874999025,
            "value": 0.08661417322834646
          },
          {
            "number": 7,
            "time": 47.94978599999902,
            "value": 0.08661417322834646
          },
          {
            "number": 7,
            "time": 47.95501612499902,
            "value": 0.07874015748031496
          },
          {
            "number": 7,
            "time": 47.96024624999902,
            "value": 0.07874015748031496
          },
          {
            "number": 7,
            "time": 47.965476374999014,
            "value": 0.07874015748031496
          },
          {
            "number": 7,
            "time": 47.97070649999901,
            "value": 0.07874015748031496
          },
          {
            "number": 7,
            "time": 47.97593662499901,
            "value": 0.07086614173228346
          },
          {
            "number": 7,
            "time": 47.981166749999005,
            "value": 0.07086614173228346
          },
          {
            "number": 7,
            "time": 47.986396874999,
            "value": 0.07086614173228346
          },
          {
            "number": 7,
            "time": 47.991626999999,
            "value": 0.07086614173228346
          },
          {
            "number": 7,
            "time": 47.996857124998996,
            "value": 0.06299212598425197
          },
          {
            "number": 7,
            "time": 48.00208724999899,
            "value": 0.06299212598425197
          },
          {
            "number": 7,
            "time": 48.00731737499899,
            "value": 0.06299212598425197
          },
          {
            "number": 7,
            "time": 48.01254749999899,
            "value": 0.06299212598425197
          },
          {
            "number": 7,
            "time": 48.017777624998985,
            "value": 0.05511811023622047
          },
          {
            "number": 7,
            "time": 48.02300774999898,
            "value": 0.05511811023622047
          },
          {
            "number": 7,
            "time": 48.02823787499898,
            "value": 0.05511811023622047
          },
          {
            "number": 7,
            "time": 48.033467999998976,
            "value": 0.05511811023622047
          },
          {
            "number": 7,
            "time": 48.03869812499897,
            "value": 0.047244094488188976
          },
          {
            "number": 7,
            "time": 48.04392824999897,
            "value": 0.047244094488188976
          },
          {
            "number": 7,
            "time": 48.04915837499897,
            "value": 0.047244094488188976
          },
          {
            "number": 7,
            "time": 48.054388499998964,
            "value": 0.047244094488188976
          },
          {
            "number": 7,
            "time": 48.05961862499896,
            "value": 0.03937007874015748
          },
          {
            "number": 7,
            "time": 48.06484874999896,
            "value": 0.03937007874015748
          },
          {
            "number": 7,
            "time": 48.070078874998956,
            "value": 0.03937007874015748
          },
          {
            "number": 7,
            "time": 48.07530899999895,
            "value": 0.03937007874015748
          },
          {
            "number": 7,
            "time": 48.08053912499895,
            "value": 0.031496062992125984
          },
          {
            "number": 7,
            "time": 48.08576924999895,
            "value": 0.031496062992125984
          },
          {
            "number": 7,
            "time": 48.090999374998944,
            "value": 0.031496062992125984
          },
          {
            "number": 7,
            "time": 48.09622949999894,
            "value": 0.031496062992125984
          },
          {
            "number": 7,
            "time": 48.10145962499894,
            "value": 0.023622047244094488
          },
          {
            "number": 7,
            "time": 48.106689749998935,
            "value": 0.023622047244094488
          },
          {
            "number": 7,
            "time": 48.11191987499893,
            "value": 0.023622047244094488
          },
          {
            "number": 7,
            "time": 48.11714999999893,
            "value": 0.023622047244094488
          },
          {
            "number": 7,
            "time": 48.12238012499893,
            "value": 0.015748031496062992
          },
          {
            "number": 7,
            "time": 48.127610249998924,
            "value": 0.015748031496062992
          },
          {
            "number": 7,
            "time": 48.13284037499892,
            "value": 0.015748031496062992
          },
          {
            "number": 7,
            "time": 48.13807049999892,
            "value": 0.015748031496062992
          },
          {
            "number": 7,
            "time": 48.143300624998915,
            "value": 0.007874015748031496
          },
          {
            "number": 7,
            "time": 48.14853074999891,
            "value": 0.007874015748031496
          },
          {
            "number": 7,
            "time": 48.15376087499891,
            "value": 0.007874015748031496
          },
          {
            "number": 7,
            "time": 48.158990999998906,
            "value": 0.007874015748031496
          },
          {
            "number": 7,
            "time": 48.1642211249989,
            "value": 0
          },
          {
            "number": 7,
            "time": 48.1694512499989,
            "value": 0
          },
          {
            "number": 7,
            "time": 48.1746813749989,
            "value": 0
          },
          {
            "number": 7,
            "time": 48.179911499998894,
            "value": 0
          },
          {
            "number": 7,
            "time": 86.3598239999989,
            "value": 0.7559055118110236
          },
          {
            "number": 7,
            "time": 108.45187199999889,
            "value": 0.7559055118110236
          },
          {
            "number": 7,
            "time": 108.46233224999888,
            "value": 0.7559055118110236
          },
          {
            "number": 7,
            "time": 108.46233224999888,
            "value": 0.7559055118110236
          }
        ],
        "10": [
          {
            "number": 10,
            "time": 0,
            "value": 0.5039370078740157
          },
          {
            "number": 10,
            "time": 0,
            "value": 0.5039370078740157
          },
          {
            "number": 10,
            "time": 0,
            "value": 0.5039370078740157
          },
          {
            "number": 10,
            "time": 0,
            "value": 0.5039370078740157
          },
          {
            "number": 10,
            "time": 108.45187199999889,
            "value": 0.5039370078740157
          },
          {
            "number": 10,
            "time": 108.46233224999888,
            "value": 0.5039370078740157
          },
          {
            "number": 10,
            "time": 108.46233224999888,
            "value": 0.5039370078740157
          }
        ],
        "100": [
          {
            "number": 100,
            "time": 0,
            "value": 0
          },
          {
            "number": 100,
            "time": 0,
            "value": 0
          },
          {
            "number": 100,
            "time": 0,
            "value": 0
          },
          {
            "number": 100,
            "time": 108.45187199999889,
            "value": 0
          },
          {
            "number": 100,
            "time": 108.46233224999888,
            "value": 0
          },
          {
            "number": 100,
            "time": 108.46233224999888,
            "value": 0
          }
        ],
        "101": [
          {
            "number": 101,
            "time": 0,
            "value": 0
          },
          {
            "number": 101,
            "time": 0,
            "value": 0
          },
          {
            "number": 101,
            "time": 0,
            "value": 0
          },
          {
            "number": 101,
            "time": 108.45187199999889,
            "value": 0
          },
          {
            "number": 101,
            "time": 108.46233224999888,
            "value": 0
          },
          {
            "number": 101,
            "time": 108.46233224999888,
            "value": 0
          }
        ]
      },
      "id": 16,
      "name": "MIDI out #14",
      "instrumentNumber": 42,
      "instrument": "cello",
      "instrumentFamily": "strings",
      "channelNumber": 12,
      "isPercussion": false
    },
    {
      "startTime": 34.644348,
      "duration": 103.93304399999954,
      "length": 65,
      "notes": [
        {
          "name": "C5",
          "midi": 72,
          "time": 34.644348,
          "velocity": 0.6299212598425197,
          "duration": 1.0041840000000022
        },
        {
          "name": "A#4",
          "midi": 70,
          "time": 35.648532,
          "velocity": 0.6299212598425197,
          "duration": 0.5020919999999975
        },
        {
          "name": "C#5",
          "midi": 73,
          "time": 36.150624,
          "velocity": 0.6299212598425197,
          "duration": 1.0041840000000022
        },
        {
          "name": "A#4",
          "midi": 70,
          "time": 37.154808,
          "velocity": 0.7165354330708661,
          "duration": 0.2510460000000023
        },
        {
          "name": "C#5",
          "midi": 73,
          "time": 37.405854000000005,
          "velocity": 0.7165354330708661,
          "duration": 0.2510460000000023
        },
        {
          "name": "C5",
          "midi": 72,
          "time": 37.65690000000001,
          "velocity": 0.7165354330708661,
          "duration": 0.5020919999999975
        },
        {
          "name": "A#4",
          "midi": 70,
          "time": 38.158992000000005,
          "velocity": 0.7165354330708661,
          "duration": 0.12552300000000116
        },
        {
          "name": "G#4",
          "midi": 68,
          "time": 38.41003800000001,
          "velocity": 0.7165354330708661,
          "duration": 0.12552300000000116
        },
        {
          "name": "F#4",
          "midi": 66,
          "time": 38.53556100000001,
          "velocity": 0.7165354330708661,
          "duration": 0.12552300000000116
        },
        {
          "name": "F4",
          "midi": 65,
          "time": 38.66108400000001,
          "velocity": 0.7165354330708661,
          "duration": 0.12552300000000116
        },
        {
          "name": "D#4",
          "midi": 63,
          "time": 38.91213000000001,
          "velocity": 0.7165354330708661,
          "duration": 0.2510460000000023
        },
        {
          "name": "C#4",
          "midi": 61,
          "time": 39.163176000000014,
          "velocity": 0.7165354330708661,
          "duration": 1.0041840000000022
        },
        {
          "name": "A#4",
          "midi": 70,
          "time": 40.167360000000016,
          "velocity": 0.7165354330708661,
          "duration": 0.2510460000000023
        },
        {
          "name": "C#5",
          "midi": 73,
          "time": 40.41840600000002,
          "velocity": 0.7165354330708661,
          "duration": 0.2510460000000023
        },
        {
          "name": "C5",
          "midi": 72,
          "time": 40.66945200000002,
          "velocity": 0.7165354330708661,
          "duration": 0.5020919999999975
        },
        {
          "name": "A#4",
          "midi": 70,
          "time": 41.17154400000002,
          "velocity": 0.7165354330708661,
          "duration": 0.12552300000000116
        },
        {
          "name": "G#4",
          "midi": 68,
          "time": 41.42259000000002,
          "velocity": 0.7165354330708661,
          "duration": 0.12552300000000116
        },
        {
          "name": "F#4",
          "midi": 66,
          "time": 41.54811300000002,
          "velocity": 0.7165354330708661,
          "duration": 0.12552300000000116
        },
        {
          "name": "F4",
          "midi": 65,
          "time": 41.67363600000002,
          "velocity": 0.7165354330708661,
          "duration": 0.12552300000000116
        },
        {
          "name": "D#4",
          "midi": 63,
          "time": 41.924682000000026,
          "velocity": 0.7165354330708661,
          "duration": 0.2510460000000023
        },
        {
          "name": "C#4",
          "midi": 61,
          "time": 42.17572800000003,
          "velocity": 0.7165354330708661,
          "duration": 1.0041840000000022
        },
        {
          "name": "A#4",
          "midi": 70,
          "time": 43.17991200000003,
          "velocity": 0.7165354330708661,
          "duration": 0.2510460000000023
        },
        {
          "name": "C#5",
          "midi": 73,
          "time": 43.43095800000003,
          "velocity": 0.7165354330708661,
          "duration": 0.2510460000000023
        },
        {
          "name": "C5",
          "midi": 72,
          "time": 43.682004000000035,
          "velocity": 0.7165354330708661,
          "duration": 0.5020919999999975
        },
        {
          "name": "A#4",
          "midi": 70,
          "time": 44.18409600000003,
          "velocity": 0.7165354330708661,
          "duration": 0.12552300000000116
        },
        {
          "name": "G#4",
          "midi": 68,
          "time": 44.435142000000035,
          "velocity": 0.7165354330708661,
          "duration": 0.12552300000000116
        },
        {
          "name": "F#4",
          "midi": 66,
          "time": 44.560665000000036,
          "velocity": 0.7165354330708661,
          "duration": 0.12552300000000116
        },
        {
          "name": "F4",
          "midi": 65,
          "time": 44.68618800000004,
          "velocity": 0.7165354330708661,
          "duration": 0.12552300000000116
        },
        {
          "name": "D#4",
          "midi": 63,
          "time": 44.93723400000004,
          "velocity": 0.7165354330708661,
          "duration": 0.2510460000000023
        },
        {
          "name": "F4",
          "midi": 65,
          "time": 45.18828000000004,
          "velocity": 0.8818897637795275,
          "duration": 0.7531379999999999
        },
        {
          "name": "D#4",
          "midi": 63,
          "time": 45.94141800000004,
          "velocity": 0.8818897637795275,
          "duration": 0.7531379999999999
        },
        {
          "name": "F#4",
          "midi": 66,
          "time": 46.69455600000004,
          "velocity": 0.8818897637795275,
          "duration": 0.7531379999999999
        },
        {
          "name": "C#5",
          "midi": 73,
          "time": 47.44769400000004,
          "velocity": 0.8818897637795275,
          "duration": 0.7531379999999999
        },
        {
          "name": "D#5",
          "midi": 75,
          "time": 48.20083200000004,
          "velocity": 0.8818897637795275,
          "duration": 1.0041839999994409
        },
        {
          "name": "C5",
          "midi": 72,
          "time": 91.88283599999949,
          "velocity": 0.6299212598425197,
          "duration": 1.004183999999995
        },
        {
          "name": "A#4",
          "midi": 70,
          "time": 92.88701999999948,
          "velocity": 0.6299212598425197,
          "duration": 0.5020920000000046
        },
        {
          "name": "C#5",
          "midi": 73,
          "time": 93.38911199999949,
          "velocity": 0.6299212598425197,
          "duration": 1.004183999999995
        },
        {
          "name": "A#4",
          "midi": 70,
          "time": 94.39329599999948,
          "velocity": 0.7244094488188977,
          "duration": 0.2510460000000023
        },
        {
          "name": "C#5",
          "midi": 73,
          "time": 94.64434199999948,
          "velocity": 0.7244094488188977,
          "duration": 0.2510460000000023
        },
        {
          "name": "C5",
          "midi": 72,
          "time": 94.89538799999949,
          "velocity": 0.7244094488188977,
          "duration": 0.5020920000000046
        },
        {
          "name": "A#4",
          "midi": 70,
          "time": 95.39747999999949,
          "velocity": 0.7244094488188977,
          "duration": 0.12552300000000116
        },
        {
          "name": "G#4",
          "midi": 68,
          "time": 95.64852599999949,
          "velocity": 0.7244094488188977,
          "duration": 0.12552300000000116
        },
        {
          "name": "F#4",
          "midi": 66,
          "time": 95.7740489999995,
          "velocity": 0.7244094488188977,
          "duration": 0.12552300000000116
        },
        {
          "name": "F4",
          "midi": 65,
          "time": 95.8995719999995,
          "velocity": 0.7244094488188977,
          "duration": 0.12552300000000116
        },
        {
          "name": "D#4",
          "midi": 63,
          "time": 96.1506179999995,
          "velocity": 0.7244094488188977,
          "duration": 0.2510460000000023
        },
        {
          "name": "C#4",
          "midi": 61,
          "time": 96.4016639999995,
          "velocity": 0.7244094488188977,
          "duration": 1.004183999999995
        },
        {
          "name": "A#4",
          "midi": 70,
          "time": 97.4058479999995,
          "velocity": 0.7244094488188977,
          "duration": 0.2510460000000023
        },
        {
          "name": "C#5",
          "midi": 73,
          "time": 97.6568939999995,
          "velocity": 0.7244094488188977,
          "duration": 0.2510460000000023
        },
        {
          "name": "C5",
          "midi": 72,
          "time": 97.9079399999995,
          "velocity": 0.7244094488188977,
          "duration": 0.5020920000000046
        },
        {
          "name": "A#4",
          "midi": 70,
          "time": 98.4100319999995,
          "velocity": 0.7244094488188977,
          "duration": 0.12552300000000116
        },
        {
          "name": "G#4",
          "midi": 68,
          "time": 98.6610779999995,
          "velocity": 0.7244094488188977,
          "duration": 0.12552300000000116
        },
        {
          "name": "F#4",
          "midi": 66,
          "time": 98.78660099999951,
          "velocity": 0.7244094488188977,
          "duration": 0.12552300000000116
        },
        {
          "name": "F4",
          "midi": 65,
          "time": 98.91212399999951,
          "velocity": 0.7244094488188977,
          "duration": 0.12552300000000116
        },
        {
          "name": "D#4",
          "midi": 63,
          "time": 99.16316999999951,
          "velocity": 0.7244094488188977,
          "duration": 0.2510460000000023
        },
        {
          "name": "C#4",
          "midi": 61,
          "time": 99.41421599999951,
          "velocity": 0.7244094488188977,
          "duration": 1.004183999999995
        },
        {
          "name": "A#4",
          "midi": 70,
          "time": 100.41839999999951,
          "velocity": 0.7244094488188977,
          "duration": 0.2510460000000023
        },
        {
          "name": "C#5",
          "midi": 73,
          "time": 100.66944599999951,
          "velocity": 0.7244094488188977,
          "duration": 0.2510460000000023
        },
        {
          "name": "C5",
          "midi": 72,
          "time": 100.92049199999951,
          "velocity": 0.7244094488188977,
          "duration": 0.5020920000000046
        },
        {
          "name": "A#4",
          "midi": 70,
          "time": 101.42258399999952,
          "velocity": 0.7244094488188977,
          "duration": 0.12552300000000116
        },
        {
          "name": "G#4",
          "midi": 68,
          "time": 101.67362999999952,
          "velocity": 0.7244094488188977,
          "duration": 0.12552300000000116
        },
        {
          "name": "F#4",
          "midi": 66,
          "time": 101.79915299999952,
          "velocity": 0.7244094488188977,
          "duration": 0.12552300000000116
        },
        {
          "name": "F4",
          "midi": 65,
          "time": 101.92467599999952,
          "velocity": 0.7244094488188977,
          "duration": 0.12552300000000116
        },
        {
          "name": "D#4",
          "midi": 63,
          "time": 102.17572199999952,
          "velocity": 0.7244094488188977,
          "duration": 0.2510460000000023
        },
        {
          "name": "C#4",
          "midi": 61,
          "time": 102.42676799999953,
          "velocity": 0.7244094488188977,
          "duration": 0.753138000000007
        },
        {
          "name": "D#4",
          "midi": 63,
          "time": 103.17990599999953,
          "velocity": 0.7244094488188977,
          "duration": 0.753138000000007
        }
      ],
      "controlChanges": {
        "6": [
          {
            "number": 6,
            "time": 0,
            "value": 0.09448818897637795
          },
          {
            "number": 6,
            "time": 0,
            "value": 0.09448818897637795
          },
          {
            "number": 6,
            "time": 0,
            "value": 0.09448818897637795
          },
          {
            "number": 6,
            "time": 108.45187199999954,
            "value": 0.09448818897637795
          },
          {
            "number": 6,
            "time": 108.46233224999953,
            "value": 0.09448818897637795
          },
          {
            "number": 6,
            "time": 108.46233224999953,
            "value": 0.09448818897637795
          }
        ],
        "7": [
          {
            "number": 7,
            "time": 0,
            "value": 0.7559055118110236
          },
          {
            "number": 7,
            "time": 0,
            "value": 0.7559055118110236
          },
          {
            "number": 7,
            "time": 0,
            "value": 0.7559055118110236
          },
          {
            "number": 7,
            "time": 0,
            "value": 0.7559055118110236
          },
          {
            "number": 7,
            "time": 0.125523,
            "value": 0.7559055118110236
          },
          {
            "number": 7,
            "time": 48.20606212500004,
            "value": 0.7480314960629921
          },
          {
            "number": 7,
            "time": 48.211292250000035,
            "value": 0.7480314960629921
          },
          {
            "number": 7,
            "time": 48.21652237500003,
            "value": 0.7401574803149606
          },
          {
            "number": 7,
            "time": 48.22175250000003,
            "value": 0.7401574803149606
          },
          {
            "number": 7,
            "time": 48.226982625000026,
            "value": 0.7322834645669292
          },
          {
            "number": 7,
            "time": 48.23221275000002,
            "value": 0.7322834645669292
          },
          {
            "number": 7,
            "time": 48.23744287500002,
            "value": 0.7244094488188977
          },
          {
            "number": 7,
            "time": 48.24267300000002,
            "value": 0.7244094488188977
          },
          {
            "number": 7,
            "time": 48.247903125000015,
            "value": 0.7165354330708661
          },
          {
            "number": 7,
            "time": 48.25313325000001,
            "value": 0.7165354330708661
          },
          {
            "number": 7,
            "time": 48.25836337500001,
            "value": 0.7086614173228346
          },
          {
            "number": 7,
            "time": 48.263593500000006,
            "value": 0.7086614173228346
          },
          {
            "number": 7,
            "time": 48.268823625,
            "value": 0.7007874015748031
          },
          {
            "number": 7,
            "time": 48.27405375,
            "value": 0.7007874015748031
          },
          {
            "number": 7,
            "time": 48.279283875,
            "value": 0.6929133858267716
          },
          {
            "number": 7,
            "time": 48.284513999999994,
            "value": 0.6929133858267716
          },
          {
            "number": 7,
            "time": 48.28974412499999,
            "value": 0.6850393700787402
          },
          {
            "number": 7,
            "time": 48.29497424999999,
            "value": 0.6850393700787402
          },
          {
            "number": 7,
            "time": 48.300204374999986,
            "value": 0.6771653543307087
          },
          {
            "number": 7,
            "time": 48.30543449999998,
            "value": 0.6771653543307087
          },
          {
            "number": 7,
            "time": 48.31066462499998,
            "value": 0.6692913385826772
          },
          {
            "number": 7,
            "time": 48.31589474999998,
            "value": 0.6692913385826772
          },
          {
            "number": 7,
            "time": 48.321124874999974,
            "value": 0.6614173228346457
          },
          {
            "number": 7,
            "time": 48.32635499999997,
            "value": 0.6614173228346457
          },
          {
            "number": 7,
            "time": 48.33158512499997,
            "value": 0.6535433070866141
          },
          {
            "number": 7,
            "time": 48.336815249999965,
            "value": 0.6535433070866141
          },
          {
            "number": 7,
            "time": 48.34204537499996,
            "value": 0.6456692913385826
          },
          {
            "number": 7,
            "time": 48.34727549999996,
            "value": 0.6456692913385826
          },
          {
            "number": 7,
            "time": 48.35250562499996,
            "value": 0.6377952755905512
          },
          {
            "number": 7,
            "time": 48.357735749999954,
            "value": 0.6377952755905512
          },
          {
            "number": 7,
            "time": 48.36296587499995,
            "value": 0.6299212598425197
          },
          {
            "number": 7,
            "time": 48.36819599999995,
            "value": 0.6299212598425197
          },
          {
            "number": 7,
            "time": 48.373426124999945,
            "value": 0.6220472440944882
          },
          {
            "number": 7,
            "time": 48.37865624999994,
            "value": 0.6220472440944882
          },
          {
            "number": 7,
            "time": 48.38388637499994,
            "value": 0.6141732283464567
          },
          {
            "number": 7,
            "time": 48.389116499999936,
            "value": 0.6141732283464567
          },
          {
            "number": 7,
            "time": 48.39434662499993,
            "value": 0.6062992125984252
          },
          {
            "number": 7,
            "time": 48.39957674999993,
            "value": 0.6062992125984252
          },
          {
            "number": 7,
            "time": 48.40480687499993,
            "value": 0.5984251968503937
          },
          {
            "number": 7,
            "time": 48.410036999999924,
            "value": 0.5984251968503937
          },
          {
            "number": 7,
            "time": 48.41526712499992,
            "value": 0.5905511811023622
          },
          {
            "number": 7,
            "time": 48.42049724999992,
            "value": 0.5905511811023622
          },
          {
            "number": 7,
            "time": 48.425727374999916,
            "value": 0.5826771653543307
          },
          {
            "number": 7,
            "time": 48.43095749999991,
            "value": 0.5826771653543307
          },
          {
            "number": 7,
            "time": 48.43618762499991,
            "value": 0.5748031496062992
          },
          {
            "number": 7,
            "time": 48.44141774999991,
            "value": 0.5748031496062992
          },
          {
            "number": 7,
            "time": 48.446647874999904,
            "value": 0.5669291338582677
          },
          {
            "number": 7,
            "time": 48.4518779999999,
            "value": 0.5669291338582677
          },
          {
            "number": 7,
            "time": 48.4571081249999,
            "value": 0.5590551181102362
          },
          {
            "number": 7,
            "time": 48.462338249999895,
            "value": 0.5590551181102362
          },
          {
            "number": 7,
            "time": 48.46756837499989,
            "value": 0.5511811023622047
          },
          {
            "number": 7,
            "time": 48.47279849999989,
            "value": 0.5511811023622047
          },
          {
            "number": 7,
            "time": 48.47802862499989,
            "value": 0.5433070866141733
          },
          {
            "number": 7,
            "time": 48.483258749999884,
            "value": 0.5433070866141733
          },
          {
            "number": 7,
            "time": 48.48848887499988,
            "value": 0.5354330708661418
          },
          {
            "number": 7,
            "time": 48.49371899999988,
            "value": 0.5354330708661418
          },
          {
            "number": 7,
            "time": 48.498949124999875,
            "value": 0.5275590551181102
          },
          {
            "number": 7,
            "time": 48.50417924999987,
            "value": 0.5275590551181102
          },
          {
            "number": 7,
            "time": 48.50940937499987,
            "value": 0.5196850393700787
          },
          {
            "number": 7,
            "time": 48.514639499999866,
            "value": 0.5196850393700787
          },
          {
            "number": 7,
            "time": 48.51986962499986,
            "value": 0.5118110236220472
          },
          {
            "number": 7,
            "time": 48.52509974999986,
            "value": 0.5118110236220472
          },
          {
            "number": 7,
            "time": 48.53032987499986,
            "value": 0.5039370078740157
          },
          {
            "number": 7,
            "time": 48.535559999999855,
            "value": 0.5039370078740157
          },
          {
            "number": 7,
            "time": 48.54079012499985,
            "value": 0.49606299212598426
          },
          {
            "number": 7,
            "time": 48.54602024999985,
            "value": 0.49606299212598426
          },
          {
            "number": 7,
            "time": 48.551250374999846,
            "value": 0.4881889763779528
          },
          {
            "number": 7,
            "time": 48.55648049999984,
            "value": 0.4881889763779528
          },
          {
            "number": 7,
            "time": 48.56171062499984,
            "value": 0.48031496062992124
          },
          {
            "number": 7,
            "time": 48.56694074999984,
            "value": 0.48031496062992124
          },
          {
            "number": 7,
            "time": 48.572170874999834,
            "value": 0.47244094488188976
          },
          {
            "number": 7,
            "time": 48.57740099999983,
            "value": 0.47244094488188976
          },
          {
            "number": 7,
            "time": 48.58263112499983,
            "value": 0.4645669291338583
          },
          {
            "number": 7,
            "time": 48.587861249999825,
            "value": 0.4645669291338583
          },
          {
            "number": 7,
            "time": 48.59309137499982,
            "value": 0.4566929133858268
          },
          {
            "number": 7,
            "time": 48.59832149999982,
            "value": 0.4566929133858268
          },
          {
            "number": 7,
            "time": 48.60355162499982,
            "value": 0.44881889763779526
          },
          {
            "number": 7,
            "time": 48.608781749999814,
            "value": 0.44881889763779526
          },
          {
            "number": 7,
            "time": 48.61401187499981,
            "value": 0.4409448818897638
          },
          {
            "number": 7,
            "time": 48.61924199999981,
            "value": 0.4409448818897638
          },
          {
            "number": 7,
            "time": 48.624472124999805,
            "value": 0.4330708661417323
          },
          {
            "number": 7,
            "time": 48.6297022499998,
            "value": 0.4330708661417323
          },
          {
            "number": 7,
            "time": 48.6349323749998,
            "value": 0.4251968503937008
          },
          {
            "number": 7,
            "time": 48.640162499999796,
            "value": 0.4251968503937008
          },
          {
            "number": 7,
            "time": 48.64539262499979,
            "value": 0.41732283464566927
          },
          {
            "number": 7,
            "time": 48.65062274999979,
            "value": 0.41732283464566927
          },
          {
            "number": 7,
            "time": 48.65585287499979,
            "value": 0.4094488188976378
          },
          {
            "number": 7,
            "time": 48.661082999999785,
            "value": 0.4094488188976378
          },
          {
            "number": 7,
            "time": 48.66631312499978,
            "value": 0.4015748031496063
          },
          {
            "number": 7,
            "time": 48.67154324999978,
            "value": 0.4015748031496063
          },
          {
            "number": 7,
            "time": 48.676773374999776,
            "value": 0.3937007874015748
          },
          {
            "number": 7,
            "time": 48.68200349999977,
            "value": 0.3937007874015748
          },
          {
            "number": 7,
            "time": 48.68723362499977,
            "value": 0.3858267716535433
          },
          {
            "number": 7,
            "time": 48.69246374999977,
            "value": 0.3858267716535433
          },
          {
            "number": 7,
            "time": 48.697693874999764,
            "value": 0.3779527559055118
          },
          {
            "number": 7,
            "time": 48.70292399999976,
            "value": 0.3779527559055118
          },
          {
            "number": 7,
            "time": 48.70815412499976,
            "value": 0.3700787401574803
          },
          {
            "number": 7,
            "time": 48.713384249999756,
            "value": 0.3700787401574803
          },
          {
            "number": 7,
            "time": 48.71861437499975,
            "value": 0.36220472440944884
          },
          {
            "number": 7,
            "time": 48.72384449999975,
            "value": 0.36220472440944884
          },
          {
            "number": 7,
            "time": 48.72907462499975,
            "value": 0.3543307086614173
          },
          {
            "number": 7,
            "time": 48.734304749999744,
            "value": 0.3543307086614173
          },
          {
            "number": 7,
            "time": 48.73953487499974,
            "value": 0.3464566929133858
          },
          {
            "number": 7,
            "time": 48.74476499999974,
            "value": 0.3464566929133858
          },
          {
            "number": 7,
            "time": 48.749995124999735,
            "value": 0.33858267716535434
          },
          {
            "number": 7,
            "time": 48.75522524999973,
            "value": 0.33858267716535434
          },
          {
            "number": 7,
            "time": 48.76045537499973,
            "value": 0.33070866141732286
          },
          {
            "number": 7,
            "time": 48.76568549999973,
            "value": 0.33070866141732286
          },
          {
            "number": 7,
            "time": 48.77091562499972,
            "value": 0.3228346456692913
          },
          {
            "number": 7,
            "time": 48.77614574999972,
            "value": 0.3228346456692913
          },
          {
            "number": 7,
            "time": 48.78137587499972,
            "value": 0.31496062992125984
          },
          {
            "number": 7,
            "time": 48.786605999999715,
            "value": 0.31496062992125984
          },
          {
            "number": 7,
            "time": 48.79183612499971,
            "value": 0.30708661417322836
          },
          {
            "number": 7,
            "time": 48.79706624999971,
            "value": 0.30708661417322836
          },
          {
            "number": 7,
            "time": 48.802296374999706,
            "value": 0.2992125984251969
          },
          {
            "number": 7,
            "time": 48.8075264999997,
            "value": 0.2992125984251969
          },
          {
            "number": 7,
            "time": 48.8127566249997,
            "value": 0.29133858267716534
          },
          {
            "number": 7,
            "time": 48.8179867499997,
            "value": 0.29133858267716534
          },
          {
            "number": 7,
            "time": 48.823216874999694,
            "value": 0.28346456692913385
          },
          {
            "number": 7,
            "time": 48.82844699999969,
            "value": 0.28346456692913385
          },
          {
            "number": 7,
            "time": 48.83367712499969,
            "value": 0.2755905511811024
          },
          {
            "number": 7,
            "time": 48.838907249999686,
            "value": 0.2755905511811024
          },
          {
            "number": 7,
            "time": 48.84413737499968,
            "value": 0.2677165354330709
          },
          {
            "number": 7,
            "time": 48.84936749999968,
            "value": 0.2677165354330709
          },
          {
            "number": 7,
            "time": 48.85459762499968,
            "value": 0.25984251968503935
          },
          {
            "number": 7,
            "time": 48.859827749999674,
            "value": 0.25984251968503935
          },
          {
            "number": 7,
            "time": 48.86505787499967,
            "value": 0.25196850393700787
          },
          {
            "number": 7,
            "time": 48.87028799999967,
            "value": 0.25196850393700787
          },
          {
            "number": 7,
            "time": 48.875518124999665,
            "value": 0.2440944881889764
          },
          {
            "number": 7,
            "time": 48.88074824999966,
            "value": 0.2440944881889764
          },
          {
            "number": 7,
            "time": 48.88597837499966,
            "value": 0.23622047244094488
          },
          {
            "number": 7,
            "time": 48.89120849999966,
            "value": 0.23622047244094488
          },
          {
            "number": 7,
            "time": 48.896438624999654,
            "value": 0.2283464566929134
          },
          {
            "number": 7,
            "time": 48.90166874999965,
            "value": 0.2283464566929134
          },
          {
            "number": 7,
            "time": 48.90689887499965,
            "value": 0.2204724409448819
          },
          {
            "number": 7,
            "time": 48.912128999999645,
            "value": 0.2204724409448819
          },
          {
            "number": 7,
            "time": 48.91735912499964,
            "value": 0.2125984251968504
          },
          {
            "number": 7,
            "time": 48.92258924999964,
            "value": 0.2125984251968504
          },
          {
            "number": 7,
            "time": 48.927819374999636,
            "value": 0.2047244094488189
          },
          {
            "number": 7,
            "time": 48.93304949999963,
            "value": 0.2047244094488189
          },
          {
            "number": 7,
            "time": 48.93827962499963,
            "value": 0.1968503937007874
          },
          {
            "number": 7,
            "time": 48.94350974999963,
            "value": 0.1968503937007874
          },
          {
            "number": 7,
            "time": 48.948739874999625,
            "value": 0.1889763779527559
          },
          {
            "number": 7,
            "time": 48.95396999999962,
            "value": 0.1889763779527559
          },
          {
            "number": 7,
            "time": 48.95920012499962,
            "value": 0.18110236220472442
          },
          {
            "number": 7,
            "time": 48.964430249999616,
            "value": 0.18110236220472442
          },
          {
            "number": 7,
            "time": 48.96966037499961,
            "value": 0.1732283464566929
          },
          {
            "number": 7,
            "time": 48.97489049999961,
            "value": 0.1732283464566929
          },
          {
            "number": 7,
            "time": 48.98012062499961,
            "value": 0.16535433070866143
          },
          {
            "number": 7,
            "time": 48.985350749999604,
            "value": 0.16535433070866143
          },
          {
            "number": 7,
            "time": 48.9905808749996,
            "value": 0.15748031496062992
          },
          {
            "number": 7,
            "time": 48.9958109999996,
            "value": 0.15748031496062992
          },
          {
            "number": 7,
            "time": 49.001041124999595,
            "value": 0.14960629921259844
          },
          {
            "number": 7,
            "time": 49.00627124999959,
            "value": 0.14960629921259844
          },
          {
            "number": 7,
            "time": 49.01150137499959,
            "value": 0.14173228346456693
          },
          {
            "number": 7,
            "time": 49.01673149999959,
            "value": 0.14173228346456693
          },
          {
            "number": 7,
            "time": 49.021961624999584,
            "value": 0.13385826771653545
          },
          {
            "number": 7,
            "time": 49.02719174999958,
            "value": 0.13385826771653545
          },
          {
            "number": 7,
            "time": 49.03242187499958,
            "value": 0.12598425196850394
          },
          {
            "number": 7,
            "time": 49.037651999999575,
            "value": 0.12598425196850394
          },
          {
            "number": 7,
            "time": 49.04288212499957,
            "value": 0.11811023622047244
          },
          {
            "number": 7,
            "time": 49.04811224999957,
            "value": 0.11811023622047244
          },
          {
            "number": 7,
            "time": 49.053342374999566,
            "value": 0.11023622047244094
          },
          {
            "number": 7,
            "time": 49.05857249999956,
            "value": 0.11023622047244094
          },
          {
            "number": 7,
            "time": 49.06380262499956,
            "value": 0.10236220472440945
          },
          {
            "number": 7,
            "time": 49.06903274999956,
            "value": 0.10236220472440945
          },
          {
            "number": 7,
            "time": 49.074262874999555,
            "value": 0.09448818897637795
          },
          {
            "number": 7,
            "time": 49.07949299999955,
            "value": 0.09448818897637795
          },
          {
            "number": 7,
            "time": 49.08472312499955,
            "value": 0.08661417322834646
          },
          {
            "number": 7,
            "time": 49.089953249999546,
            "value": 0.08661417322834646
          },
          {
            "number": 7,
            "time": 49.09518337499954,
            "value": 0.07874015748031496
          },
          {
            "number": 7,
            "time": 49.10041349999954,
            "value": 0.07874015748031496
          },
          {
            "number": 7,
            "time": 49.10564362499954,
            "value": 0.07086614173228346
          },
          {
            "number": 7,
            "time": 49.110873749999534,
            "value": 0.07086614173228346
          },
          {
            "number": 7,
            "time": 49.11610387499953,
            "value": 0.06299212598425197
          },
          {
            "number": 7,
            "time": 49.12133399999953,
            "value": 0.06299212598425197
          },
          {
            "number": 7,
            "time": 49.126564124999526,
            "value": 0.05511811023622047
          },
          {
            "number": 7,
            "time": 49.13179424999952,
            "value": 0.05511811023622047
          },
          {
            "number": 7,
            "time": 49.13702437499952,
            "value": 0.047244094488188976
          },
          {
            "number": 7,
            "time": 49.14225449999952,
            "value": 0.047244094488188976
          },
          {
            "number": 7,
            "time": 49.147484624999514,
            "value": 0.03937007874015748
          },
          {
            "number": 7,
            "time": 49.15271474999951,
            "value": 0.03937007874015748
          },
          {
            "number": 7,
            "time": 49.15794487499951,
            "value": 0.031496062992125984
          },
          {
            "number": 7,
            "time": 49.163174999999505,
            "value": 0.031496062992125984
          },
          {
            "number": 7,
            "time": 49.1684051249995,
            "value": 0.023622047244094488
          },
          {
            "number": 7,
            "time": 49.1736352499995,
            "value": 0.023622047244094488
          },
          {
            "number": 7,
            "time": 49.178865374999496,
            "value": 0.015748031496062992
          },
          {
            "number": 7,
            "time": 49.18409549999949,
            "value": 0.015748031496062992
          },
          {
            "number": 7,
            "time": 49.18932562499949,
            "value": 0.007874015748031496
          },
          {
            "number": 7,
            "time": 49.19455574999949,
            "value": 0.007874015748031496
          },
          {
            "number": 7,
            "time": 49.199785874999485,
            "value": 0
          },
          {
            "number": 7,
            "time": 49.20501599999948,
            "value": 0
          },
          {
            "number": 7,
            "time": 50.209199999999484,
            "value": 0.7559055118110236
          },
          {
            "number": 7,
            "time": 108.45187199999954,
            "value": 0.7559055118110236
          },
          {
            "number": 7,
            "time": 108.46233224999953,
            "value": 0.7559055118110236
          },
          {
            "number": 7,
            "time": 108.46233224999953,
            "value": 0.7559055118110236
          }
        ],
        "10": [
          {
            "number": 10,
            "time": 0,
            "value": 0.5039370078740157
          },
          {
            "number": 10,
            "time": 0,
            "value": 0.5039370078740157
          },
          {
            "number": 10,
            "time": 0,
            "value": 0.5039370078740157
          },
          {
            "number": 10,
            "time": 0,
            "value": 0.5039370078740157
          },
          {
            "number": 10,
            "time": 108.45187199999954,
            "value": 0.5039370078740157
          },
          {
            "number": 10,
            "time": 108.46233224999953,
            "value": 0.5039370078740157
          },
          {
            "number": 10,
            "time": 108.46233224999953,
            "value": 0.5039370078740157
          }
        ],
        "100": [
          {
            "number": 100,
            "time": 0,
            "value": 0
          },
          {
            "number": 100,
            "time": 0,
            "value": 0
          },
          {
            "number": 100,
            "time": 0,
            "value": 0
          },
          {
            "number": 100,
            "time": 108.45187199999954,
            "value": 0
          },
          {
            "number": 100,
            "time": 108.46233224999953,
            "value": 0
          },
          {
            "number": 100,
            "time": 108.46233224999953,
            "value": 0
          }
        ],
        "101": [
          {
            "number": 101,
            "time": 0,
            "value": 0
          },
          {
            "number": 101,
            "time": 0,
            "value": 0
          },
          {
            "number": 101,
            "time": 0,
            "value": 0
          },
          {
            "number": 101,
            "time": 108.45187199999954,
            "value": 0
          },
          {
            "number": 101,
            "time": 108.46233224999953,
            "value": 0
          },
          {
            "number": 101,
            "time": 108.46233224999953,
            "value": 0
          }
        ]
      },
      "id": 17,
      "name": "MIDI out #7",
      "instrumentNumber": 68,
      "instrument": "oboe",
      "instrumentFamily": "reed",
      "channelNumber": 6,
      "isPercussion": false
    },
    {
      "startTime": 10.543932,
      "duration": 88.36819200000001,
      "length": 24,
      "notes": [
        {
          "name": "D#4",
          "midi": 63,
          "time": 10.543932,
          "velocity": 0.7874015748031497,
          "duration": 0.12552299999999939
        },
        {
          "name": "C5",
          "midi": 72,
          "time": 10.794977999999999,
          "velocity": 0.7874015748031497,
          "duration": 0.12552299999999939
        },
        {
          "name": "A#4",
          "midi": 70,
          "time": 11.046023999999997,
          "velocity": 0.7874015748031497,
          "duration": 0.12552299999999939
        },
        {
          "name": "G#4",
          "midi": 68,
          "time": 11.297069999999996,
          "velocity": 0.7874015748031497,
          "duration": 0.12552299999999939
        },
        {
          "name": "F#4",
          "midi": 66,
          "time": 11.422592999999996,
          "velocity": 0.7874015748031497,
          "duration": 0.12552299999999939
        },
        {
          "name": "F4",
          "midi": 65,
          "time": 11.548115999999995,
          "velocity": 0.7874015748031497,
          "duration": 0.12552299999999939
        },
        {
          "name": "G#4",
          "midi": 68,
          "time": 11.799161999999994,
          "velocity": 0.7874015748031497,
          "duration": 0.12552299999999939
        },
        {
          "name": "A#4",
          "midi": 70,
          "time": 12.050207999999992,
          "velocity": 0.7874015748031497,
          "duration": 1.0041840000000004
        },
        {
          "name": "D#4",
          "midi": 63,
          "time": 28.619243999999995,
          "velocity": 0.7874015748031497,
          "duration": 0.12552300000000116
        },
        {
          "name": "C5",
          "midi": 72,
          "time": 28.870289999999997,
          "velocity": 0.7874015748031497,
          "duration": 0.12552300000000116
        },
        {
          "name": "A#4",
          "midi": 70,
          "time": 29.121336,
          "velocity": 0.7874015748031497,
          "duration": 0.12552300000000116
        },
        {
          "name": "G#4",
          "midi": 68,
          "time": 29.372382,
          "velocity": 0.7874015748031497,
          "duration": 0.12552300000000116
        },
        {
          "name": "F#4",
          "midi": 66,
          "time": 29.497905000000003,
          "velocity": 0.7874015748031497,
          "duration": 0.12552300000000116
        },
        {
          "name": "F4",
          "midi": 65,
          "time": 29.623428000000004,
          "velocity": 0.7874015748031497,
          "duration": 0.12552300000000116
        },
        {
          "name": "G#4",
          "midi": 68,
          "time": 29.874474000000006,
          "velocity": 0.7874015748031497,
          "duration": 0.12552300000000116
        },
        {
          "name": "A#4",
          "midi": 70,
          "time": 30.12552000000001,
          "velocity": 0.7874015748031497,
          "duration": 1.0041839999999986
        },
        {
          "name": "D#4",
          "midi": 63,
          "time": 85.857732,
          "velocity": 0.7874015748031497,
          "duration": 0.12552300000000116
        },
        {
          "name": "C5",
          "midi": 72,
          "time": 86.108778,
          "velocity": 0.7874015748031497,
          "duration": 0.12552300000000116
        },
        {
          "name": "A#4",
          "midi": 70,
          "time": 86.359824,
          "velocity": 0.7874015748031497,
          "duration": 0.12552300000000116
        },
        {
          "name": "G#4",
          "midi": 68,
          "time": 86.61087,
          "velocity": 0.7874015748031497,
          "duration": 0.12552300000000116
        },
        {
          "name": "F#4",
          "midi": 66,
          "time": 86.736393,
          "velocity": 0.7874015748031497,
          "duration": 0.12552300000000116
        },
        {
          "name": "F4",
          "midi": 65,
          "time": 86.86191600000001,
          "velocity": 0.7874015748031497,
          "duration": 0.12552300000000116
        },
        {
          "name": "G#4",
          "midi": 68,
          "time": 87.11296200000001,
          "velocity": 0.7874015748031497,
          "duration": 0.12552300000000116
        },
        {
          "name": "A#4",
          "midi": 70,
          "time": 87.36400800000001,
          "velocity": 0.7874015748031497,
          "duration": 1.004183999999995
        }
      ],
      "controlChanges": {
        "6": [
          {
            "number": 6,
            "time": 0,
            "value": 0.09448818897637795
          },
          {
            "number": 6,
            "time": 0,
            "value": 0.09448818897637795
          },
          {
            "number": 6,
            "time": 0,
            "value": 0.09448818897637795
          },
          {
            "number": 6,
            "time": 108.45187200000001,
            "value": 0.09448818897637795
          },
          {
            "number": 6,
            "time": 108.46233225,
            "value": 0.09448818897637795
          },
          {
            "number": 6,
            "time": 108.46233225,
            "value": 0.09448818897637795
          }
        ],
        "7": [
          {
            "number": 7,
            "time": 0,
            "value": 0.7874015748031497
          },
          {
            "number": 7,
            "time": 0,
            "value": 0.7874015748031497
          },
          {
            "number": 7,
            "time": 0,
            "value": 0.7874015748031497
          },
          {
            "number": 7,
            "time": 0,
            "value": 0.7874015748031497
          },
          {
            "number": 7,
            "time": 108.45187200000001,
            "value": 0.7874015748031497
          },
          {
            "number": 7,
            "time": 108.46233225,
            "value": 0.7874015748031497
          },
          {
            "number": 7,
            "time": 108.46233225,
            "value": 0.7874015748031497
          }
        ],
        "10": [
          {
            "number": 10,
            "time": 0,
            "value": 0.5039370078740157
          },
          {
            "number": 10,
            "time": 0,
            "value": 0.5039370078740157
          },
          {
            "number": 10,
            "time": 0,
            "value": 0.5039370078740157
          },
          {
            "number": 10,
            "time": 0,
            "value": 0.5039370078740157
          },
          {
            "number": 10,
            "time": 108.45187200000001,
            "value": 0.5039370078740157
          },
          {
            "number": 10,
            "time": 108.46233225,
            "value": 0.5039370078740157
          },
          {
            "number": 10,
            "time": 108.46233225,
            "value": 0.5039370078740157
          }
        ],
        "100": [
          {
            "number": 100,
            "time": 0,
            "value": 0
          },
          {
            "number": 100,
            "time": 0,
            "value": 0
          },
          {
            "number": 100,
            "time": 0,
            "value": 0
          },
          {
            "number": 100,
            "time": 108.45187200000001,
            "value": 0
          },
          {
            "number": 100,
            "time": 108.46233225,
            "value": 0
          },
          {
            "number": 100,
            "time": 108.46233225,
            "value": 0
          }
        ],
        "101": [
          {
            "number": 101,
            "time": 0,
            "value": 0
          },
          {
            "number": 101,
            "time": 0,
            "value": 0
          },
          {
            "number": 101,
            "time": 0,
            "value": 0
          },
          {
            "number": 101,
            "time": 108.45187200000001,
            "value": 0
          },
          {
            "number": 101,
            "time": 108.46233225,
            "value": 0
          },
          {
            "number": 101,
            "time": 108.46233225,
            "value": 0
          }
        ]
      },
      "id": 18,
      "name": "MIDI out #15",
      "instrumentNumber": 14,
      "instrument": "tubular bells",
      "instrumentFamily": "chromatic percussion",
      "channelNumber": 13,
      "isPercussion": false
    },
    {
      "startTime": 49.958153999999986,
      "duration": 108.45187199999864,
      "length": 2,
      "notes": [
        {
          "name": "C5",
          "midi": 72,
          "time": 49.958153999999986,
          "velocity": 0.7874015748031497,
          "duration": 1.255229999999301
        },
        {
          "name": "C5",
          "midi": 72,
          "time": 107.19664199999927,
          "velocity": 0.7874015748031497,
          "duration": 1.2552299999993721
        }
      ],
      "controlChanges": {
        "6": [
          {
            "number": 6,
            "time": 0,
            "value": 0.09448818897637795
          },
          {
            "number": 6,
            "time": 0,
            "value": 0.09448818897637795
          },
          {
            "number": 6,
            "time": 0,
            "value": 0.09448818897637795
          },
          {
            "number": 6,
            "time": 108.45187199999864,
            "value": 0.09448818897637795
          },
          {
            "number": 6,
            "time": 108.46233224999864,
            "value": 0.09448818897637795
          },
          {
            "number": 6,
            "time": 108.46233224999864,
            "value": 0.09448818897637795
          }
        ],
        "7": [
          {
            "number": 7,
            "time": 0,
            "value": 1
          },
          {
            "number": 7,
            "time": 0,
            "value": 1
          },
          {
            "number": 7,
            "time": 0,
            "value": 1
          },
          {
            "number": 7,
            "time": 0,
            "value": 1
          },
          {
            "number": 7,
            "time": 49.942463624999995,
            "value": 0
          },
          {
            "number": 7,
            "time": 49.94769374999999,
            "value": 0
          },
          {
            "number": 7,
            "time": 49.95292387499999,
            "value": 0.007874015748031496
          },
          {
            "number": 7,
            "time": 49.958153999999986,
            "value": 0.007874015748031496
          },
          {
            "number": 7,
            "time": 49.96338412499998,
            "value": 0.015748031496062992
          },
          {
            "number": 7,
            "time": 49.96861424999998,
            "value": 0.015748031496062992
          },
          {
            "number": 7,
            "time": 49.97384437499998,
            "value": 0.023622047244094488
          },
          {
            "number": 7,
            "time": 49.979074499999975,
            "value": 0.023622047244094488
          },
          {
            "number": 7,
            "time": 49.98430462499997,
            "value": 0.031496062992125984
          },
          {
            "number": 7,
            "time": 49.98953474999997,
            "value": 0.031496062992125984
          },
          {
            "number": 7,
            "time": 49.994764874999966,
            "value": 0.03937007874015748
          },
          {
            "number": 7,
            "time": 49.99999499999996,
            "value": 0.03937007874015748
          },
          {
            "number": 7,
            "time": 50.00522512499996,
            "value": 0.047244094488188976
          },
          {
            "number": 7,
            "time": 50.01045524999996,
            "value": 0.047244094488188976
          },
          {
            "number": 7,
            "time": 50.015685374999954,
            "value": 0.05511811023622047
          },
          {
            "number": 7,
            "time": 50.02091549999995,
            "value": 0.05511811023622047
          },
          {
            "number": 7,
            "time": 50.02614562499995,
            "value": 0.06299212598425197
          },
          {
            "number": 7,
            "time": 50.031375749999945,
            "value": 0.06299212598425197
          },
          {
            "number": 7,
            "time": 50.03660587499994,
            "value": 0.07086614173228346
          },
          {
            "number": 7,
            "time": 50.04183599999994,
            "value": 0.07086614173228346
          },
          {
            "number": 7,
            "time": 50.04706612499994,
            "value": 0.07874015748031496
          },
          {
            "number": 7,
            "time": 50.052296249999934,
            "value": 0.07874015748031496
          },
          {
            "number": 7,
            "time": 50.05752637499993,
            "value": 0.08661417322834646
          },
          {
            "number": 7,
            "time": 50.06275649999993,
            "value": 0.08661417322834646
          },
          {
            "number": 7,
            "time": 50.067986624999925,
            "value": 0.09448818897637795
          },
          {
            "number": 7,
            "time": 50.07321674999992,
            "value": 0.09448818897637795
          },
          {
            "number": 7,
            "time": 50.07844687499992,
            "value": 0.10236220472440945
          },
          {
            "number": 7,
            "time": 50.083676999999916,
            "value": 0.10236220472440945
          },
          {
            "number": 7,
            "time": 50.08890712499991,
            "value": 0.11023622047244094
          },
          {
            "number": 7,
            "time": 50.09413724999991,
            "value": 0.11811023622047244
          },
          {
            "number": 7,
            "time": 50.09936737499991,
            "value": 0.11811023622047244
          },
          {
            "number": 7,
            "time": 50.104597499999905,
            "value": 0.12598425196850394
          },
          {
            "number": 7,
            "time": 50.1098276249999,
            "value": 0.12598425196850394
          },
          {
            "number": 7,
            "time": 50.1150577499999,
            "value": 0.13385826771653545
          },
          {
            "number": 7,
            "time": 50.120287874999896,
            "value": 0.13385826771653545
          },
          {
            "number": 7,
            "time": 50.12551799999989,
            "value": 0.14173228346456693
          },
          {
            "number": 7,
            "time": 50.13074812499989,
            "value": 0.14173228346456693
          },
          {
            "number": 7,
            "time": 50.13597824999989,
            "value": 0.14960629921259844
          },
          {
            "number": 7,
            "time": 50.141208374999884,
            "value": 0.14960629921259844
          },
          {
            "number": 7,
            "time": 50.14643849999988,
            "value": 0.15748031496062992
          },
          {
            "number": 7,
            "time": 50.15166862499988,
            "value": 0.15748031496062992
          },
          {
            "number": 7,
            "time": 50.156898749999876,
            "value": 0.16535433070866143
          },
          {
            "number": 7,
            "time": 50.16212887499987,
            "value": 0.16535433070866143
          },
          {
            "number": 7,
            "time": 50.16735899999987,
            "value": 0.1732283464566929
          },
          {
            "number": 7,
            "time": 50.17258912499987,
            "value": 0.1732283464566929
          },
          {
            "number": 7,
            "time": 50.177819249999864,
            "value": 0.18110236220472442
          },
          {
            "number": 7,
            "time": 50.18304937499986,
            "value": 0.18110236220472442
          },
          {
            "number": 7,
            "time": 50.18827949999986,
            "value": 0.1889763779527559
          },
          {
            "number": 7,
            "time": 50.193509624999855,
            "value": 0.1889763779527559
          },
          {
            "number": 7,
            "time": 50.19873974999985,
            "value": 0.1968503937007874
          },
          {
            "number": 7,
            "time": 50.20396987499985,
            "value": 0.1968503937007874
          },
          {
            "number": 7,
            "time": 50.209199999999846,
            "value": 0.2047244094488189
          },
          {
            "number": 7,
            "time": 50.21443012499984,
            "value": 0.2047244094488189
          },
          {
            "number": 7,
            "time": 50.21966024999984,
            "value": 0.2125984251968504
          },
          {
            "number": 7,
            "time": 50.22489037499984,
            "value": 0.2125984251968504
          },
          {
            "number": 7,
            "time": 50.230120499999835,
            "value": 0.2204724409448819
          },
          {
            "number": 7,
            "time": 50.23535062499983,
            "value": 0.2283464566929134
          },
          {
            "number": 7,
            "time": 50.24058074999983,
            "value": 0.2283464566929134
          },
          {
            "number": 7,
            "time": 50.245810874999826,
            "value": 0.23622047244094488
          },
          {
            "number": 7,
            "time": 50.25104099999982,
            "value": 0.23622047244094488
          },
          {
            "number": 7,
            "time": 50.25627112499982,
            "value": 0.2440944881889764
          },
          {
            "number": 7,
            "time": 50.26150124999982,
            "value": 0.2440944881889764
          },
          {
            "number": 7,
            "time": 50.266731374999814,
            "value": 0.25196850393700787
          },
          {
            "number": 7,
            "time": 50.27196149999981,
            "value": 0.25196850393700787
          },
          {
            "number": 7,
            "time": 50.27719162499981,
            "value": 0.25984251968503935
          },
          {
            "number": 7,
            "time": 50.282421749999806,
            "value": 0.25984251968503935
          },
          {
            "number": 7,
            "time": 50.2876518749998,
            "value": 0.2677165354330709
          },
          {
            "number": 7,
            "time": 50.2928819999998,
            "value": 0.2677165354330709
          },
          {
            "number": 7,
            "time": 50.2981121249998,
            "value": 0.2755905511811024
          },
          {
            "number": 7,
            "time": 50.303342249999794,
            "value": 0.2755905511811024
          },
          {
            "number": 7,
            "time": 50.30857237499979,
            "value": 0.28346456692913385
          },
          {
            "number": 7,
            "time": 50.31380249999979,
            "value": 0.28346456692913385
          },
          {
            "number": 7,
            "time": 50.319032624999785,
            "value": 0.29133858267716534
          },
          {
            "number": 7,
            "time": 50.32426274999978,
            "value": 0.29133858267716534
          },
          {
            "number": 7,
            "time": 50.32949287499978,
            "value": 0.2992125984251969
          },
          {
            "number": 7,
            "time": 50.33472299999978,
            "value": 0.2992125984251969
          },
          {
            "number": 7,
            "time": 50.339953124999774,
            "value": 0.30708661417322836
          },
          {
            "number": 7,
            "time": 50.34518324999977,
            "value": 0.30708661417322836
          },
          {
            "number": 7,
            "time": 50.35041337499977,
            "value": 0.31496062992125984
          },
          {
            "number": 7,
            "time": 50.355643499999765,
            "value": 0.31496062992125984
          },
          {
            "number": 7,
            "time": 50.36087362499976,
            "value": 0.3228346456692913
          },
          {
            "number": 7,
            "time": 50.36610374999976,
            "value": 0.3228346456692913
          },
          {
            "number": 7,
            "time": 50.371333874999756,
            "value": 0.33070866141732286
          },
          {
            "number": 7,
            "time": 50.37656399999975,
            "value": 0.33858267716535434
          },
          {
            "number": 7,
            "time": 50.38179412499975,
            "value": 0.33858267716535434
          },
          {
            "number": 7,
            "time": 50.38702424999975,
            "value": 0.3464566929133858
          },
          {
            "number": 7,
            "time": 50.392254374999744,
            "value": 0.3464566929133858
          },
          {
            "number": 7,
            "time": 50.39748449999974,
            "value": 0.3543307086614173
          },
          {
            "number": 7,
            "time": 50.40271462499974,
            "value": 0.3543307086614173
          },
          {
            "number": 7,
            "time": 50.407944749999736,
            "value": 0.36220472440944884
          },
          {
            "number": 7,
            "time": 50.41317487499973,
            "value": 0.36220472440944884
          },
          {
            "number": 7,
            "time": 50.41840499999973,
            "value": 0.3700787401574803
          },
          {
            "number": 7,
            "time": 50.42363512499973,
            "value": 0.3700787401574803
          },
          {
            "number": 7,
            "time": 50.428865249999724,
            "value": 0.3779527559055118
          },
          {
            "number": 7,
            "time": 50.43409537499972,
            "value": 0.3779527559055118
          },
          {
            "number": 7,
            "time": 50.43932549999972,
            "value": 0.3858267716535433
          },
          {
            "number": 7,
            "time": 50.444555624999715,
            "value": 0.3858267716535433
          },
          {
            "number": 7,
            "time": 50.44978574999971,
            "value": 0.3937007874015748
          },
          {
            "number": 7,
            "time": 50.45501587499971,
            "value": 0.3937007874015748
          },
          {
            "number": 7,
            "time": 50.46024599999971,
            "value": 0.4015748031496063
          },
          {
            "number": 7,
            "time": 50.465476124999704,
            "value": 0.4015748031496063
          },
          {
            "number": 7,
            "time": 50.4707062499997,
            "value": 0.4094488188976378
          },
          {
            "number": 7,
            "time": 50.4759363749997,
            "value": 0.4094488188976378
          },
          {
            "number": 7,
            "time": 50.481166499999695,
            "value": 0.41732283464566927
          },
          {
            "number": 7,
            "time": 50.48639662499969,
            "value": 0.41732283464566927
          },
          {
            "number": 7,
            "time": 50.49162674999969,
            "value": 0.4251968503937008
          },
          {
            "number": 7,
            "time": 50.496856874999686,
            "value": 0.4251968503937008
          },
          {
            "number": 7,
            "time": 50.50208699999968,
            "value": 0.4330708661417323
          },
          {
            "number": 7,
            "time": 50.50731712499968,
            "value": 0.4330708661417323
          },
          {
            "number": 7,
            "time": 50.51254724999968,
            "value": 0.4409448818897638
          },
          {
            "number": 7,
            "time": 50.517777374999675,
            "value": 0.44881889763779526
          },
          {
            "number": 7,
            "time": 50.52300749999967,
            "value": 0.44881889763779526
          },
          {
            "number": 7,
            "time": 50.52823762499967,
            "value": 0.4566929133858268
          },
          {
            "number": 7,
            "time": 50.533467749999666,
            "value": 0.4566929133858268
          },
          {
            "number": 7,
            "time": 50.53869787499966,
            "value": 0.4645669291338583
          },
          {
            "number": 7,
            "time": 50.54392799999966,
            "value": 0.4645669291338583
          },
          {
            "number": 7,
            "time": 50.54915812499966,
            "value": 0.47244094488188976
          },
          {
            "number": 7,
            "time": 50.554388249999654,
            "value": 0.47244094488188976
          },
          {
            "number": 7,
            "time": 50.55961837499965,
            "value": 0.48031496062992124
          },
          {
            "number": 7,
            "time": 50.56484849999965,
            "value": 0.48031496062992124
          },
          {
            "number": 7,
            "time": 50.570078624999645,
            "value": 0.4881889763779528
          },
          {
            "number": 7,
            "time": 50.57530874999964,
            "value": 0.4881889763779528
          },
          {
            "number": 7,
            "time": 50.58053887499964,
            "value": 0.49606299212598426
          },
          {
            "number": 7,
            "time": 50.58576899999964,
            "value": 0.49606299212598426
          },
          {
            "number": 7,
            "time": 50.590999124999634,
            "value": 0.5039370078740157
          },
          {
            "number": 7,
            "time": 50.59622924999963,
            "value": 0.5039370078740157
          },
          {
            "number": 7,
            "time": 50.60145937499963,
            "value": 0.5118110236220472
          },
          {
            "number": 7,
            "time": 50.606689499999625,
            "value": 0.5118110236220472
          },
          {
            "number": 7,
            "time": 50.61191962499962,
            "value": 0.5196850393700787
          },
          {
            "number": 7,
            "time": 50.61714974999962,
            "value": 0.5196850393700787
          },
          {
            "number": 7,
            "time": 50.622379874999616,
            "value": 0.5275590551181102
          },
          {
            "number": 7,
            "time": 50.62760999999961,
            "value": 0.5275590551181102
          },
          {
            "number": 7,
            "time": 50.63284012499961,
            "value": 0.5354330708661418
          },
          {
            "number": 7,
            "time": 50.63807024999961,
            "value": 0.5354330708661418
          },
          {
            "number": 7,
            "time": 50.643300374999605,
            "value": 0.5433070866141733
          },
          {
            "number": 7,
            "time": 50.6485304999996,
            "value": 0.5433070866141733
          },
          {
            "number": 7,
            "time": 50.6537606249996,
            "value": 0.5511811023622047
          },
          {
            "number": 7,
            "time": 50.658990749999596,
            "value": 0.5511811023622047
          },
          {
            "number": 7,
            "time": 50.66422087499959,
            "value": 0.5590551181102362
          },
          {
            "number": 7,
            "time": 50.66945099999959,
            "value": 0.5669291338582677
          },
          {
            "number": 7,
            "time": 50.67468112499959,
            "value": 0.5669291338582677
          },
          {
            "number": 7,
            "time": 50.679911249999584,
            "value": 0.5748031496062992
          },
          {
            "number": 7,
            "time": 50.68514137499958,
            "value": 0.5748031496062992
          },
          {
            "number": 7,
            "time": 50.69037149999958,
            "value": 0.5826771653543307
          },
          {
            "number": 7,
            "time": 50.695601624999576,
            "value": 0.5826771653543307
          },
          {
            "number": 7,
            "time": 50.70083174999957,
            "value": 0.5905511811023622
          },
          {
            "number": 7,
            "time": 50.70606187499957,
            "value": 0.5905511811023622
          },
          {
            "number": 7,
            "time": 50.71129199999957,
            "value": 0.5984251968503937
          },
          {
            "number": 7,
            "time": 50.716522124999564,
            "value": 0.5984251968503937
          },
          {
            "number": 7,
            "time": 50.72175224999956,
            "value": 0.6062992125984252
          },
          {
            "number": 7,
            "time": 50.72698237499956,
            "value": 0.6062992125984252
          },
          {
            "number": 7,
            "time": 50.732212499999555,
            "value": 0.6141732283464567
          },
          {
            "number": 7,
            "time": 50.73744262499955,
            "value": 0.6141732283464567
          },
          {
            "number": 7,
            "time": 50.74267274999955,
            "value": 0.6220472440944882
          },
          {
            "number": 7,
            "time": 50.747902874999546,
            "value": 0.6220472440944882
          },
          {
            "number": 7,
            "time": 50.75313299999954,
            "value": 0.6299212598425197
          },
          {
            "number": 7,
            "time": 50.75836312499954,
            "value": 0.6299212598425197
          },
          {
            "number": 7,
            "time": 50.76359324999954,
            "value": 0.6377952755905512
          },
          {
            "number": 7,
            "time": 50.768823374999535,
            "value": 0.6377952755905512
          },
          {
            "number": 7,
            "time": 50.77405349999953,
            "value": 0.6456692913385826
          },
          {
            "number": 7,
            "time": 50.77928362499953,
            "value": 0.6456692913385826
          },
          {
            "number": 7,
            "time": 50.784513749999526,
            "value": 0.6535433070866141
          },
          {
            "number": 7,
            "time": 50.78974387499952,
            "value": 0.6535433070866141
          },
          {
            "number": 7,
            "time": 50.79497399999952,
            "value": 0.6614173228346457
          },
          {
            "number": 7,
            "time": 50.80020412499952,
            "value": 0.6614173228346457
          },
          {
            "number": 7,
            "time": 50.805434249999514,
            "value": 0.6692913385826772
          },
          {
            "number": 7,
            "time": 50.81066437499951,
            "value": 0.6771653543307087
          },
          {
            "number": 7,
            "time": 50.81589449999951,
            "value": 0.6771653543307087
          },
          {
            "number": 7,
            "time": 50.821124624999506,
            "value": 0.6850393700787402
          },
          {
            "number": 7,
            "time": 50.8263547499995,
            "value": 0.6850393700787402
          },
          {
            "number": 7,
            "time": 50.8315848749995,
            "value": 0.6929133858267716
          },
          {
            "number": 7,
            "time": 50.8368149999995,
            "value": 0.6929133858267716
          },
          {
            "number": 7,
            "time": 50.842045124999494,
            "value": 0.7007874015748031
          },
          {
            "number": 7,
            "time": 50.84727524999949,
            "value": 0.7007874015748031
          },
          {
            "number": 7,
            "time": 50.85250537499949,
            "value": 0.7086614173228346
          },
          {
            "number": 7,
            "time": 50.857735499999485,
            "value": 0.7086614173228346
          },
          {
            "number": 7,
            "time": 50.86296562499948,
            "value": 0.7165354330708661
          },
          {
            "number": 7,
            "time": 50.86819574999948,
            "value": 0.7165354330708661
          },
          {
            "number": 7,
            "time": 50.87342587499948,
            "value": 0.7244094488188977
          },
          {
            "number": 7,
            "time": 50.878655999999474,
            "value": 0.7244094488188977
          },
          {
            "number": 7,
            "time": 50.88388612499947,
            "value": 0.7322834645669292
          },
          {
            "number": 7,
            "time": 50.88911624999947,
            "value": 0.7322834645669292
          },
          {
            "number": 7,
            "time": 50.894346374999465,
            "value": 0.7401574803149606
          },
          {
            "number": 7,
            "time": 50.89957649999946,
            "value": 0.7401574803149606
          },
          {
            "number": 7,
            "time": 50.90480662499946,
            "value": 0.7480314960629921
          },
          {
            "number": 7,
            "time": 50.910036749999456,
            "value": 0.7480314960629921
          },
          {
            "number": 7,
            "time": 50.91526687499945,
            "value": 0.7559055118110236
          },
          {
            "number": 7,
            "time": 50.92049699999945,
            "value": 0.7559055118110236
          },
          {
            "number": 7,
            "time": 50.92572712499945,
            "value": 0.7637795275590551
          },
          {
            "number": 7,
            "time": 50.930957249999445,
            "value": 0.7637795275590551
          },
          {
            "number": 7,
            "time": 50.93618737499944,
            "value": 0.7716535433070866
          },
          {
            "number": 7,
            "time": 50.94141749999944,
            "value": 0.7716535433070866
          },
          {
            "number": 7,
            "time": 50.946647624999436,
            "value": 0.7795275590551181
          },
          {
            "number": 7,
            "time": 50.95187774999943,
            "value": 0.7874015748031497
          },
          {
            "number": 7,
            "time": 50.95710787499943,
            "value": 0.7874015748031497
          },
          {
            "number": 7,
            "time": 50.96233799999943,
            "value": 0.7952755905511811
          },
          {
            "number": 7,
            "time": 50.967568124999424,
            "value": 0.7952755905511811
          },
          {
            "number": 7,
            "time": 50.97279824999942,
            "value": 0.8031496062992126
          },
          {
            "number": 7,
            "time": 50.97802837499942,
            "value": 0.8031496062992126
          },
          {
            "number": 7,
            "time": 50.983258499999415,
            "value": 0.8110236220472441
          },
          {
            "number": 7,
            "time": 50.98848862499941,
            "value": 0.8110236220472441
          },
          {
            "number": 7,
            "time": 50.99371874999941,
            "value": 0.8188976377952756
          },
          {
            "number": 7,
            "time": 50.99894887499941,
            "value": 0.8188976377952756
          },
          {
            "number": 7,
            "time": 51.004178999999404,
            "value": 0.8267716535433071
          },
          {
            "number": 7,
            "time": 51.0094091249994,
            "value": 0.8267716535433071
          },
          {
            "number": 7,
            "time": 51.0146392499994,
            "value": 0.8346456692913385
          },
          {
            "number": 7,
            "time": 51.019869374999395,
            "value": 0.8346456692913385
          },
          {
            "number": 7,
            "time": 51.02509949999939,
            "value": 0.84251968503937
          },
          {
            "number": 7,
            "time": 51.03032962499939,
            "value": 0.84251968503937
          },
          {
            "number": 7,
            "time": 51.035559749999386,
            "value": 0.8503937007874016
          },
          {
            "number": 7,
            "time": 51.04078987499938,
            "value": 0.8503937007874016
          },
          {
            "number": 7,
            "time": 51.04601999999938,
            "value": 0.8582677165354331
          },
          {
            "number": 7,
            "time": 51.05125012499938,
            "value": 0.8582677165354331
          },
          {
            "number": 7,
            "time": 51.056480249999375,
            "value": 0.8661417322834646
          },
          {
            "number": 7,
            "time": 51.06171037499937,
            "value": 0.8661417322834646
          },
          {
            "number": 7,
            "time": 51.06694049999937,
            "value": 0.8740157480314961
          },
          {
            "number": 7,
            "time": 51.072170624999366,
            "value": 0.8740157480314961
          },
          {
            "number": 7,
            "time": 51.07740074999936,
            "value": 0.8818897637795275
          },
          {
            "number": 7,
            "time": 51.08263087499936,
            "value": 0.8818897637795275
          },
          {
            "number": 7,
            "time": 51.08786099999936,
            "value": 0.889763779527559
          },
          {
            "number": 7,
            "time": 51.093091124999354,
            "value": 0.8976377952755905
          },
          {
            "number": 7,
            "time": 51.09832124999935,
            "value": 0.8976377952755905
          },
          {
            "number": 7,
            "time": 51.10355137499935,
            "value": 0.905511811023622
          },
          {
            "number": 7,
            "time": 51.108781499999345,
            "value": 0.905511811023622
          },
          {
            "number": 7,
            "time": 51.11401162499934,
            "value": 0.9133858267716536
          },
          {
            "number": 7,
            "time": 51.11924174999934,
            "value": 0.9133858267716536
          },
          {
            "number": 7,
            "time": 51.12447187499934,
            "value": 0.9212598425196851
          },
          {
            "number": 7,
            "time": 51.129701999999334,
            "value": 0.9212598425196851
          },
          {
            "number": 7,
            "time": 51.13493212499933,
            "value": 0.9291338582677166
          },
          {
            "number": 7,
            "time": 51.14016224999933,
            "value": 0.9291338582677166
          },
          {
            "number": 7,
            "time": 51.145392374999325,
            "value": 0.937007874015748
          },
          {
            "number": 7,
            "time": 51.15062249999932,
            "value": 0.937007874015748
          },
          {
            "number": 7,
            "time": 51.15585262499932,
            "value": 0.9448818897637795
          },
          {
            "number": 7,
            "time": 51.161082749999316,
            "value": 0.9448818897637795
          },
          {
            "number": 7,
            "time": 51.16631287499931,
            "value": 0.952755905511811
          },
          {
            "number": 7,
            "time": 51.17154299999931,
            "value": 0.952755905511811
          },
          {
            "number": 7,
            "time": 51.17677312499931,
            "value": 0.9606299212598425
          },
          {
            "number": 7,
            "time": 51.182003249999305,
            "value": 0.9606299212598425
          },
          {
            "number": 7,
            "time": 51.1872333749993,
            "value": 0.968503937007874
          },
          {
            "number": 7,
            "time": 51.1924634999993,
            "value": 0.968503937007874
          },
          {
            "number": 7,
            "time": 51.197693624999296,
            "value": 0.9763779527559056
          },
          {
            "number": 7,
            "time": 51.20292374999929,
            "value": 0.9763779527559056
          },
          {
            "number": 7,
            "time": 51.20815387499929,
            "value": 0.984251968503937
          },
          {
            "number": 7,
            "time": 51.21338399999929,
            "value": 0.984251968503937
          },
          {
            "number": 7,
            "time": 51.218614124999284,
            "value": 0.9921259842519685
          },
          {
            "number": 7,
            "time": 51.22384424999928,
            "value": 0.9921259842519685
          },
          {
            "number": 7,
            "time": 51.22907437499928,
            "value": 1
          },
          {
            "number": 7,
            "time": 51.234304499999276,
            "value": 1
          },
          {
            "number": 7,
            "time": 106.44873412499928,
            "value": 0
          },
          {
            "number": 7,
            "time": 107.19664199999927,
            "value": 0
          },
          {
            "number": 7,
            "time": 107.20187212499927,
            "value": 0.007874015748031496
          },
          {
            "number": 7,
            "time": 107.20710224999927,
            "value": 0.007874015748031496
          },
          {
            "number": 7,
            "time": 107.21233237499926,
            "value": 0.015748031496062992
          },
          {
            "number": 7,
            "time": 107.21756249999926,
            "value": 0.015748031496062992
          },
          {
            "number": 7,
            "time": 107.22279262499926,
            "value": 0.023622047244094488
          },
          {
            "number": 7,
            "time": 107.22802274999925,
            "value": 0.031496062992125984
          },
          {
            "number": 7,
            "time": 107.23325287499925,
            "value": 0.031496062992125984
          },
          {
            "number": 7,
            "time": 107.23848299999925,
            "value": 0.03937007874015748
          },
          {
            "number": 7,
            "time": 107.24371312499925,
            "value": 0.03937007874015748
          },
          {
            "number": 7,
            "time": 107.24894324999924,
            "value": 0.047244094488188976
          },
          {
            "number": 7,
            "time": 107.25417337499924,
            "value": 0.05511811023622047
          },
          {
            "number": 7,
            "time": 107.25940349999924,
            "value": 0.05511811023622047
          },
          {
            "number": 7,
            "time": 107.26463362499923,
            "value": 0.06299212598425197
          },
          {
            "number": 7,
            "time": 107.26986374999923,
            "value": 0.06299212598425197
          },
          {
            "number": 7,
            "time": 107.27509387499923,
            "value": 0.07086614173228346
          },
          {
            "number": 7,
            "time": 107.28032399999923,
            "value": 0.07874015748031496
          },
          {
            "number": 7,
            "time": 107.28555412499922,
            "value": 0.07874015748031496
          },
          {
            "number": 7,
            "time": 107.29078424999922,
            "value": 0.08661417322834646
          },
          {
            "number": 7,
            "time": 107.29601437499922,
            "value": 0.08661417322834646
          },
          {
            "number": 7,
            "time": 107.30124449999921,
            "value": 0.09448818897637795
          },
          {
            "number": 7,
            "time": 107.30647462499921,
            "value": 0.09448818897637795
          },
          {
            "number": 7,
            "time": 107.31170474999921,
            "value": 0.10236220472440945
          },
          {
            "number": 7,
            "time": 107.3169348749992,
            "value": 0.11023622047244094
          },
          {
            "number": 7,
            "time": 107.3221649999992,
            "value": 0.11023622047244094
          },
          {
            "number": 7,
            "time": 107.3273951249992,
            "value": 0.11811023622047244
          },
          {
            "number": 7,
            "time": 107.3326252499992,
            "value": 0.11811023622047244
          },
          {
            "number": 7,
            "time": 107.3378553749992,
            "value": 0.12598425196850394
          },
          {
            "number": 7,
            "time": 107.34308549999919,
            "value": 0.13385826771653545
          },
          {
            "number": 7,
            "time": 107.34831562499919,
            "value": 0.13385826771653545
          },
          {
            "number": 7,
            "time": 107.35354574999918,
            "value": 0.14173228346456693
          },
          {
            "number": 7,
            "time": 107.35877587499918,
            "value": 0.14173228346456693
          },
          {
            "number": 7,
            "time": 107.36400599999918,
            "value": 0.14960629921259844
          },
          {
            "number": 7,
            "time": 107.36923612499918,
            "value": 0.15748031496062992
          },
          {
            "number": 7,
            "time": 107.37446624999917,
            "value": 0.15748031496062992
          },
          {
            "number": 7,
            "time": 107.37969637499917,
            "value": 0.16535433070866143
          },
          {
            "number": 7,
            "time": 107.38492649999917,
            "value": 0.16535433070866143
          },
          {
            "number": 7,
            "time": 107.39015662499916,
            "value": 0.1732283464566929
          },
          {
            "number": 7,
            "time": 107.39538674999916,
            "value": 0.1732283464566929
          },
          {
            "number": 7,
            "time": 107.40061687499916,
            "value": 0.18110236220472442
          },
          {
            "number": 7,
            "time": 107.40584699999916,
            "value": 0.1889763779527559
          },
          {
            "number": 7,
            "time": 107.41107712499915,
            "value": 0.1889763779527559
          },
          {
            "number": 7,
            "time": 107.41630724999915,
            "value": 0.1968503937007874
          },
          {
            "number": 7,
            "time": 107.42153737499915,
            "value": 0.1968503937007874
          },
          {
            "number": 7,
            "time": 107.42676749999914,
            "value": 0.2047244094488189
          },
          {
            "number": 7,
            "time": 107.43199762499914,
            "value": 0.2125984251968504
          },
          {
            "number": 7,
            "time": 107.43722774999914,
            "value": 0.2125984251968504
          },
          {
            "number": 7,
            "time": 107.44245787499914,
            "value": 0.2204724409448819
          },
          {
            "number": 7,
            "time": 107.44768799999913,
            "value": 0.2204724409448819
          },
          {
            "number": 7,
            "time": 107.45291812499913,
            "value": 0.2283464566929134
          },
          {
            "number": 7,
            "time": 107.45814824999913,
            "value": 0.23622047244094488
          },
          {
            "number": 7,
            "time": 107.46337837499912,
            "value": 0.23622047244094488
          },
          {
            "number": 7,
            "time": 107.46860849999912,
            "value": 0.2440944881889764
          },
          {
            "number": 7,
            "time": 107.47383862499912,
            "value": 0.2440944881889764
          },
          {
            "number": 7,
            "time": 107.47906874999912,
            "value": 0.25196850393700787
          },
          {
            "number": 7,
            "time": 107.48429887499911,
            "value": 0.25196850393700787
          },
          {
            "number": 7,
            "time": 107.48952899999911,
            "value": 0.25984251968503935
          },
          {
            "number": 7,
            "time": 107.4947591249991,
            "value": 0.2677165354330709
          },
          {
            "number": 7,
            "time": 107.4999892499991,
            "value": 0.2677165354330709
          },
          {
            "number": 7,
            "time": 107.5052193749991,
            "value": 0.2755905511811024
          },
          {
            "number": 7,
            "time": 107.5104494999991,
            "value": 0.2755905511811024
          },
          {
            "number": 7,
            "time": 107.5156796249991,
            "value": 0.28346456692913385
          },
          {
            "number": 7,
            "time": 107.52090974999909,
            "value": 0.29133858267716534
          },
          {
            "number": 7,
            "time": 107.52613987499909,
            "value": 0.29133858267716534
          },
          {
            "number": 7,
            "time": 107.53136999999909,
            "value": 0.2992125984251969
          },
          {
            "number": 7,
            "time": 107.53660012499908,
            "value": 0.2992125984251969
          },
          {
            "number": 7,
            "time": 107.54183024999908,
            "value": 0.30708661417322836
          },
          {
            "number": 7,
            "time": 107.54706037499908,
            "value": 0.31496062992125984
          },
          {
            "number": 7,
            "time": 107.55229049999907,
            "value": 0.31496062992125984
          },
          {
            "number": 7,
            "time": 107.55752062499907,
            "value": 0.3228346456692913
          },
          {
            "number": 7,
            "time": 107.56275074999907,
            "value": 0.3228346456692913
          },
          {
            "number": 7,
            "time": 107.56798087499907,
            "value": 0.33070866141732286
          },
          {
            "number": 7,
            "time": 107.57321099999906,
            "value": 0.33070866141732286
          },
          {
            "number": 7,
            "time": 107.57844112499906,
            "value": 0.33858267716535434
          },
          {
            "number": 7,
            "time": 107.58367124999906,
            "value": 0.3464566929133858
          },
          {
            "number": 7,
            "time": 107.58890137499905,
            "value": 0.3464566929133858
          },
          {
            "number": 7,
            "time": 107.59413149999905,
            "value": 0.3543307086614173
          },
          {
            "number": 7,
            "time": 107.59936162499905,
            "value": 0.3543307086614173
          },
          {
            "number": 7,
            "time": 107.60459174999905,
            "value": 0.36220472440944884
          },
          {
            "number": 7,
            "time": 107.60982187499904,
            "value": 0.3700787401574803
          },
          {
            "number": 7,
            "time": 107.61505199999904,
            "value": 0.3700787401574803
          },
          {
            "number": 7,
            "time": 107.62028212499904,
            "value": 0.3779527559055118
          },
          {
            "number": 7,
            "time": 107.62551224999903,
            "value": 0.3779527559055118
          },
          {
            "number": 7,
            "time": 107.63074237499903,
            "value": 0.3858267716535433
          },
          {
            "number": 7,
            "time": 107.63597249999903,
            "value": 0.3937007874015748
          },
          {
            "number": 7,
            "time": 107.64120262499902,
            "value": 0.3937007874015748
          },
          {
            "number": 7,
            "time": 107.64643274999902,
            "value": 0.4015748031496063
          },
          {
            "number": 7,
            "time": 107.65166287499902,
            "value": 0.4015748031496063
          },
          {
            "number": 7,
            "time": 107.65689299999902,
            "value": 0.4094488188976378
          },
          {
            "number": 7,
            "time": 107.66212312499901,
            "value": 0.4094488188976378
          },
          {
            "number": 7,
            "time": 107.66735324999901,
            "value": 0.41732283464566927
          },
          {
            "number": 7,
            "time": 107.67258337499901,
            "value": 0.4251968503937008
          },
          {
            "number": 7,
            "time": 107.677813499999,
            "value": 0.4251968503937008
          },
          {
            "number": 7,
            "time": 107.683043624999,
            "value": 0.4330708661417323
          },
          {
            "number": 7,
            "time": 107.688273749999,
            "value": 0.4330708661417323
          },
          {
            "number": 7,
            "time": 107.693503874999,
            "value": 0.4409448818897638
          },
          {
            "number": 7,
            "time": 107.69873399999899,
            "value": 0.44881889763779526
          },
          {
            "number": 7,
            "time": 107.70396412499899,
            "value": 0.44881889763779526
          },
          {
            "number": 7,
            "time": 107.70919424999899,
            "value": 0.4566929133858268
          },
          {
            "number": 7,
            "time": 107.71442437499898,
            "value": 0.4566929133858268
          },
          {
            "number": 7,
            "time": 107.71965449999898,
            "value": 0.4645669291338583
          },
          {
            "number": 7,
            "time": 107.72488462499898,
            "value": 0.47244094488188976
          },
          {
            "number": 7,
            "time": 107.73011474999898,
            "value": 0.47244094488188976
          },
          {
            "number": 7,
            "time": 107.73534487499897,
            "value": 0.48031496062992124
          },
          {
            "number": 7,
            "time": 107.74057499999897,
            "value": 0.48031496062992124
          },
          {
            "number": 7,
            "time": 107.74580512499897,
            "value": 0.4881889763779528
          },
          {
            "number": 7,
            "time": 107.75103524999896,
            "value": 0.49606299212598426
          },
          {
            "number": 7,
            "time": 107.75626537499896,
            "value": 0.49606299212598426
          },
          {
            "number": 7,
            "time": 107.76149549999896,
            "value": 0.5039370078740157
          },
          {
            "number": 7,
            "time": 107.76672562499895,
            "value": 0.5039370078740157
          },
          {
            "number": 7,
            "time": 107.77195574999895,
            "value": 0.5118110236220472
          },
          {
            "number": 7,
            "time": 107.77718587499895,
            "value": 0.5118110236220472
          },
          {
            "number": 7,
            "time": 107.78241599999895,
            "value": 0.5196850393700787
          },
          {
            "number": 7,
            "time": 107.78764612499894,
            "value": 0.5275590551181102
          },
          {
            "number": 7,
            "time": 107.79287624999894,
            "value": 0.5275590551181102
          },
          {
            "number": 7,
            "time": 107.79810637499894,
            "value": 0.5354330708661418
          },
          {
            "number": 7,
            "time": 107.80333649999893,
            "value": 0.5354330708661418
          },
          {
            "number": 7,
            "time": 107.80856662499893,
            "value": 0.5433070866141733
          },
          {
            "number": 7,
            "time": 107.81379674999893,
            "value": 0.5511811023622047
          },
          {
            "number": 7,
            "time": 107.81902687499893,
            "value": 0.5511811023622047
          },
          {
            "number": 7,
            "time": 107.82425699999892,
            "value": 0.5590551181102362
          },
          {
            "number": 7,
            "time": 107.82948712499892,
            "value": 0.5590551181102362
          },
          {
            "number": 7,
            "time": 107.83471724999892,
            "value": 0.5669291338582677
          },
          {
            "number": 7,
            "time": 107.83994737499891,
            "value": 0.5748031496062992
          },
          {
            "number": 7,
            "time": 107.84517749999891,
            "value": 0.5748031496062992
          },
          {
            "number": 7,
            "time": 107.85040762499891,
            "value": 0.5826771653543307
          },
          {
            "number": 7,
            "time": 107.8556377499989,
            "value": 0.5826771653543307
          },
          {
            "number": 7,
            "time": 107.8608678749989,
            "value": 0.5905511811023622
          },
          {
            "number": 7,
            "time": 107.8660979999989,
            "value": 0.5905511811023622
          },
          {
            "number": 7,
            "time": 107.8713281249989,
            "value": 0.5984251968503937
          },
          {
            "number": 7,
            "time": 107.8765582499989,
            "value": 0.6062992125984252
          },
          {
            "number": 7,
            "time": 107.88178837499889,
            "value": 0.6062992125984252
          },
          {
            "number": 7,
            "time": 107.88701849999889,
            "value": 0.6141732283464567
          },
          {
            "number": 7,
            "time": 107.89224862499889,
            "value": 0.6141732283464567
          },
          {
            "number": 7,
            "time": 107.89747874999888,
            "value": 0.6220472440944882
          },
          {
            "number": 7,
            "time": 107.90270887499888,
            "value": 0.6299212598425197
          },
          {
            "number": 7,
            "time": 107.90793899999888,
            "value": 0.6299212598425197
          },
          {
            "number": 7,
            "time": 107.91316912499887,
            "value": 0.6377952755905512
          },
          {
            "number": 7,
            "time": 107.91839924999887,
            "value": 0.6377952755905512
          },
          {
            "number": 7,
            "time": 107.92362937499887,
            "value": 0.6456692913385826
          },
          {
            "number": 7,
            "time": 107.92885949999886,
            "value": 0.6535433070866141
          },
          {
            "number": 7,
            "time": 107.93408962499886,
            "value": 0.6535433070866141
          },
          {
            "number": 7,
            "time": 107.93931974999886,
            "value": 0.6614173228346457
          },
          {
            "number": 7,
            "time": 107.94454987499886,
            "value": 0.6614173228346457
          },
          {
            "number": 7,
            "time": 107.94977999999885,
            "value": 0.6692913385826772
          },
          {
            "number": 7,
            "time": 107.95501012499885,
            "value": 0.6692913385826772
          },
          {
            "number": 7,
            "time": 107.96024024999885,
            "value": 0.6771653543307087
          },
          {
            "number": 7,
            "time": 107.96547037499884,
            "value": 0.6850393700787402
          },
          {
            "number": 7,
            "time": 107.97070049999884,
            "value": 0.6850393700787402
          },
          {
            "number": 7,
            "time": 107.97593062499884,
            "value": 0.6929133858267716
          },
          {
            "number": 7,
            "time": 107.98116074999884,
            "value": 0.6929133858267716
          },
          {
            "number": 7,
            "time": 107.98639087499883,
            "value": 0.7007874015748031
          },
          {
            "number": 7,
            "time": 107.99162099999883,
            "value": 0.7086614173228346
          },
          {
            "number": 7,
            "time": 107.99685112499883,
            "value": 0.7086614173228346
          },
          {
            "number": 7,
            "time": 108.00208124999882,
            "value": 0.7165354330708661
          },
          {
            "number": 7,
            "time": 108.00731137499882,
            "value": 0.7165354330708661
          },
          {
            "number": 7,
            "time": 108.01254149999882,
            "value": 0.7244094488188977
          },
          {
            "number": 7,
            "time": 108.01777162499882,
            "value": 0.7322834645669292
          },
          {
            "number": 7,
            "time": 108.02300174999881,
            "value": 0.7322834645669292
          },
          {
            "number": 7,
            "time": 108.02823187499881,
            "value": 0.7401574803149606
          },
          {
            "number": 7,
            "time": 108.0334619999988,
            "value": 0.7401574803149606
          },
          {
            "number": 7,
            "time": 108.0386921249988,
            "value": 0.7480314960629921
          },
          {
            "number": 7,
            "time": 108.0439222499988,
            "value": 0.7480314960629921
          },
          {
            "number": 7,
            "time": 108.0491523749988,
            "value": 0.7559055118110236
          },
          {
            "number": 7,
            "time": 108.0543824999988,
            "value": 0.7637795275590551
          },
          {
            "number": 7,
            "time": 108.05961262499879,
            "value": 0.7637795275590551
          },
          {
            "number": 7,
            "time": 108.06484274999879,
            "value": 0.7716535433070866
          },
          {
            "number": 7,
            "time": 108.07007287499879,
            "value": 0.7716535433070866
          },
          {
            "number": 7,
            "time": 108.07530299999878,
            "value": 0.7795275590551181
          },
          {
            "number": 7,
            "time": 108.08053312499878,
            "value": 0.7874015748031497
          },
          {
            "number": 7,
            "time": 108.08576324999878,
            "value": 0.7874015748031497
          },
          {
            "number": 7,
            "time": 108.09099337499877,
            "value": 0.7952755905511811
          },
          {
            "number": 7,
            "time": 108.09622349999877,
            "value": 0.7952755905511811
          },
          {
            "number": 7,
            "time": 108.10145362499877,
            "value": 0.8031496062992126
          },
          {
            "number": 7,
            "time": 108.10668374999877,
            "value": 0.8110236220472441
          },
          {
            "number": 7,
            "time": 108.11191387499876,
            "value": 0.8110236220472441
          },
          {
            "number": 7,
            "time": 108.11714399999876,
            "value": 0.8188976377952756
          },
          {
            "number": 7,
            "time": 108.12237412499876,
            "value": 0.8188976377952756
          },
          {
            "number": 7,
            "time": 108.12760424999875,
            "value": 0.8267716535433071
          },
          {
            "number": 7,
            "time": 108.13283437499875,
            "value": 0.8267716535433071
          },
          {
            "number": 7,
            "time": 108.13806449999875,
            "value": 0.8346456692913385
          },
          {
            "number": 7,
            "time": 108.14329462499875,
            "value": 0.84251968503937
          },
          {
            "number": 7,
            "time": 108.14852474999874,
            "value": 0.84251968503937
          },
          {
            "number": 7,
            "time": 108.15375487499874,
            "value": 0.8503937007874016
          },
          {
            "number": 7,
            "time": 108.15898499999874,
            "value": 0.8503937007874016
          },
          {
            "number": 7,
            "time": 108.16421512499873,
            "value": 0.8582677165354331
          },
          {
            "number": 7,
            "time": 108.16944524999873,
            "value": 0.8661417322834646
          },
          {
            "number": 7,
            "time": 108.17467537499873,
            "value": 0.8661417322834646
          },
          {
            "number": 7,
            "time": 108.17990549999872,
            "value": 0.8740157480314961
          },
          {
            "number": 7,
            "time": 108.18513562499872,
            "value": 0.8740157480314961
          },
          {
            "number": 7,
            "time": 108.19036574999872,
            "value": 0.8818897637795275
          },
          {
            "number": 7,
            "time": 108.19559587499872,
            "value": 0.889763779527559
          },
          {
            "number": 7,
            "time": 108.20082599999871,
            "value": 0.889763779527559
          },
          {
            "number": 7,
            "time": 108.20605612499871,
            "value": 0.8976377952755905
          },
          {
            "number": 7,
            "time": 108.21128624999871,
            "value": 0.8976377952755905
          },
          {
            "number": 7,
            "time": 108.2165163749987,
            "value": 0.905511811023622
          },
          {
            "number": 7,
            "time": 108.2217464999987,
            "value": 0.905511811023622
          },
          {
            "number": 7,
            "time": 108.2269766249987,
            "value": 0.9133858267716536
          },
          {
            "number": 7,
            "time": 108.2322067499987,
            "value": 0.9212598425196851
          },
          {
            "number": 7,
            "time": 108.23743687499869,
            "value": 0.9212598425196851
          },
          {
            "number": 7,
            "time": 108.24266699999869,
            "value": 0.9291338582677166
          },
          {
            "number": 7,
            "time": 108.24789712499869,
            "value": 0.9291338582677166
          },
          {
            "number": 7,
            "time": 108.25312724999868,
            "value": 0.937007874015748
          },
          {
            "number": 7,
            "time": 108.25835737499868,
            "value": 0.9448818897637795
          },
          {
            "number": 7,
            "time": 108.26358749999868,
            "value": 0.9448818897637795
          },
          {
            "number": 7,
            "time": 108.26881762499868,
            "value": 0.952755905511811
          },
          {
            "number": 7,
            "time": 108.27404774999867,
            "value": 0.952755905511811
          },
          {
            "number": 7,
            "time": 108.27927787499867,
            "value": 0.9606299212598425
          },
          {
            "number": 7,
            "time": 108.28450799999867,
            "value": 0.968503937007874
          },
          {
            "number": 7,
            "time": 108.28973812499866,
            "value": 0.968503937007874
          },
          {
            "number": 7,
            "time": 108.29496824999866,
            "value": 0.9763779527559056
          },
          {
            "number": 7,
            "time": 108.30019837499866,
            "value": 0.9763779527559056
          },
          {
            "number": 7,
            "time": 108.30542849999865,
            "value": 0.984251968503937
          },
          {
            "number": 7,
            "time": 108.31065862499865,
            "value": 0.9921259842519685
          },
          {
            "number": 7,
            "time": 108.31588874999865,
            "value": 0.9921259842519685
          },
          {
            "number": 7,
            "time": 108.32111887499865,
            "value": 1
          },
          {
            "number": 7,
            "time": 108.32634899999864,
            "value": 1
          },
          {
            "number": 7,
            "time": 108.45187199999864,
            "value": 1
          },
          {
            "number": 7,
            "time": 108.46233224999864,
            "value": 1
          },
          {
            "number": 7,
            "time": 108.46233224999864,
            "value": 1
          }
        ],
        "10": [
          {
            "number": 10,
            "time": 0,
            "value": 0.5039370078740157
          },
          {
            "number": 10,
            "time": 0,
            "value": 0.5039370078740157
          },
          {
            "number": 10,
            "time": 0,
            "value": 0.5039370078740157
          },
          {
            "number": 10,
            "time": 0,
            "value": 0.5039370078740157
          },
          {
            "number": 10,
            "time": 108.45187199999864,
            "value": 0.5039370078740157
          },
          {
            "number": 10,
            "time": 108.46233224999864,
            "value": 0.5039370078740157
          },
          {
            "number": 10,
            "time": 108.46233224999864,
            "value": 0.5039370078740157
          }
        ],
        "100": [
          {
            "number": 100,
            "time": 0,
            "value": 0
          },
          {
            "number": 100,
            "time": 0,
            "value": 0
          },
          {
            "number": 100,
            "time": 0,
            "value": 0
          },
          {
            "number": 100,
            "time": 108.45187199999864,
            "value": 0
          },
          {
            "number": 100,
            "time": 108.46233224999864,
            "value": 0
          },
          {
            "number": 100,
            "time": 108.46233224999864,
            "value": 0
          }
        ],
        "101": [
          {
            "number": 101,
            "time": 0,
            "value": 0
          },
          {
            "number": 101,
            "time": 0,
            "value": 0
          },
          {
            "number": 101,
            "time": 0,
            "value": 0
          },
          {
            "number": 101,
            "time": 108.45187199999864,
            "value": 0
          },
          {
            "number": 101,
            "time": 108.46233224999864,
            "value": 0
          },
          {
            "number": 101,
            "time": 108.46233224999864,
            "value": 0
          }
        ]
      },
      "id": 19,
      "name": "MIDI out #16",
      "instrumentNumber": 119,
      "instrument": "reverse cymbal",
      "instrumentFamily": "percussive",
      "channelNumber": 14,
      "isPercussion": false
    },
    {
      "startTime": 6.025104,
      "duration": 108.2635875,
      "length": 447,
      "notes": [
        {
          "name": "D2",
          "midi": 38,
          "time": 6.025104,
          "velocity": 0.6220472440944882,
          "duration": 0.06276149999999969
        },
        {
          "name": "E2",
          "midi": 40,
          "time": 6.2761499999999995,
          "velocity": 0.7874015748031497,
          "duration": 0.06276149999999969
        },
        {
          "name": "D2",
          "midi": 38,
          "time": 6.652718999999999,
          "velocity": 0.6220472440944882,
          "duration": 0.03138075000000029
        },
        {
          "name": "D2",
          "midi": 38,
          "time": 6.7154805,
          "velocity": 0.6220472440944882,
          "duration": 0.03138075000000029
        },
        {
          "name": "D2",
          "midi": 38,
          "time": 6.7782420000000005,
          "velocity": 0.6220472440944882,
          "duration": 0.06276149999999969
        },
        {
          "name": "E2",
          "midi": 40,
          "time": 7.1548110000000005,
          "velocity": 0.7874015748031497,
          "duration": 0.03138075000000029
        },
        {
          "name": "E2",
          "midi": 40,
          "time": 7.280334000000001,
          "velocity": 0.7874015748031497,
          "duration": 0.03138075000000029
        },
        {
          "name": "E2",
          "midi": 40,
          "time": 7.405857000000001,
          "velocity": 0.7874015748031497,
          "duration": 0.03138075000000029
        },
        {
          "name": "D2",
          "midi": 38,
          "time": 7.531380000000001,
          "velocity": 0.6220472440944882,
          "duration": 0.06276149999999969
        },
        {
          "name": "E2",
          "midi": 40,
          "time": 7.782426000000001,
          "velocity": 0.7874015748031497,
          "duration": 0.03138075000000029
        },
        {
          "name": "E2",
          "midi": 40,
          "time": 8.033472000000002,
          "velocity": 0.7874015748031497,
          "duration": 0.03138075000000029
        },
        {
          "name": "D2",
          "midi": 38,
          "time": 8.284518000000002,
          "velocity": 0.6220472440944882,
          "duration": 0.06276150000000058
        },
        {
          "name": "D2",
          "midi": 38,
          "time": 8.661087000000002,
          "velocity": 0.6220472440944882,
          "duration": 0.06276150000000058
        },
        {
          "name": "D2",
          "midi": 38,
          "time": 8.912133000000003,
          "velocity": 0.6220472440944882,
          "duration": 0.03138075000000029
        },
        {
          "name": "D2",
          "midi": 38,
          "time": 8.974894500000003,
          "velocity": 0.6220472440944882,
          "duration": 0.03138075000000029
        },
        {
          "name": "D2",
          "midi": 38,
          "time": 9.037656000000004,
          "velocity": 0.6220472440944882,
          "duration": 0.06276150000000058
        },
        {
          "name": "E2",
          "midi": 40,
          "time": 9.288702000000004,
          "velocity": 0.7874015748031497,
          "duration": 0.03138075000000029
        },
        {
          "name": "D2",
          "midi": 38,
          "time": 9.414225000000005,
          "velocity": 0.6220472440944882,
          "duration": 0.06276150000000058
        },
        {
          "name": "E2",
          "midi": 40,
          "time": 9.665271000000006,
          "velocity": 0.7874015748031497,
          "duration": 0.03138075000000029
        },
        {
          "name": "D2",
          "midi": 38,
          "time": 9.790794000000007,
          "velocity": 0.6220472440944882,
          "duration": 0.06276150000000058
        },
        {
          "name": "E3",
          "midi": 52,
          "time": 12.050208000000008,
          "velocity": 0.7086614173228346,
          "duration": 1.5062760000000015
        },
        {
          "name": "G3",
          "midi": 55,
          "time": 12.050208000000008,
          "velocity": 0.9606299212598425,
          "duration": 1.5062760000000015
        },
        {
          "name": "A5",
          "midi": 81,
          "time": 12.301254000000009,
          "velocity": 0.4566929133858268,
          "duration": 0.06276150000000058
        },
        {
          "name": "D2",
          "midi": 38,
          "time": 12.42677700000001,
          "velocity": 0.6220472440944882,
          "duration": 0.12552299999999939
        },
        {
          "name": "D2",
          "midi": 38,
          "time": 13.054392000000009,
          "velocity": 0.6220472440944882,
          "duration": 0.12552300000000116
        },
        {
          "name": "E5",
          "midi": 76,
          "time": 13.054392000000009,
          "velocity": 0.4566929133858268,
          "duration": 0.06276150000000058
        },
        {
          "name": "D2",
          "midi": 38,
          "time": 13.30543800000001,
          "velocity": 0.6220472440944882,
          "duration": 0.12552300000000116
        },
        {
          "name": "E5",
          "midi": 76,
          "time": 13.30543800000001,
          "velocity": 0.4566929133858268,
          "duration": 0.06276150000000058
        },
        {
          "name": "E3",
          "midi": 52,
          "time": 13.55648400000001,
          "velocity": 0.7086614173228346,
          "duration": 1.5062760000000015
        },
        {
          "name": "G3",
          "midi": 55,
          "time": 13.55648400000001,
          "velocity": 0.9606299212598425,
          "duration": 1.5062760000000015
        },
        {
          "name": "A5",
          "midi": 81,
          "time": 13.80753000000001,
          "velocity": 0.4566929133858268,
          "duration": 0.06276150000000058
        },
        {
          "name": "D2",
          "midi": 38,
          "time": 13.933053000000012,
          "velocity": 0.6220472440944882,
          "duration": 0.12552299999999939
        },
        {
          "name": "D2",
          "midi": 38,
          "time": 14.56066800000001,
          "velocity": 0.6220472440944882,
          "duration": 0.12552300000000116
        },
        {
          "name": "E5",
          "midi": 76,
          "time": 14.56066800000001,
          "velocity": 0.4566929133858268,
          "duration": 0.06276150000000058
        },
        {
          "name": "D2",
          "midi": 38,
          "time": 14.811714000000011,
          "velocity": 0.6220472440944882,
          "duration": 0.12552300000000116
        },
        {
          "name": "E5",
          "midi": 76,
          "time": 14.811714000000011,
          "velocity": 0.4566929133858268,
          "duration": 0.06276150000000058
        },
        {
          "name": "E3",
          "midi": 52,
          "time": 15.062760000000011,
          "velocity": 0.7086614173228346,
          "duration": 1.5062760000000068
        },
        {
          "name": "G3",
          "midi": 55,
          "time": 15.062760000000011,
          "velocity": 0.9606299212598425,
          "duration": 1.5062760000000068
        },
        {
          "name": "A5",
          "midi": 81,
          "time": 15.313806000000012,
          "velocity": 0.4566929133858268,
          "duration": 0.06276150000000058
        },
        {
          "name": "D2",
          "midi": 38,
          "time": 15.439329000000013,
          "velocity": 0.6220472440944882,
          "duration": 0.12552299999999939
        },
        {
          "name": "D2",
          "midi": 38,
          "time": 16.066944000000014,
          "velocity": 0.6220472440944882,
          "duration": 0.12552300000000116
        },
        {
          "name": "E5",
          "midi": 76,
          "time": 16.066944000000014,
          "velocity": 0.4566929133858268,
          "duration": 0.06276150000000058
        },
        {
          "name": "D2",
          "midi": 38,
          "time": 16.317990000000016,
          "velocity": 0.6220472440944882,
          "duration": 0.12552300000000116
        },
        {
          "name": "E5",
          "midi": 76,
          "time": 16.317990000000016,
          "velocity": 0.4566929133858268,
          "duration": 0.06276150000000058
        },
        {
          "name": "G3",
          "midi": 55,
          "time": 16.56903600000002,
          "velocity": 0.9606299212598425,
          "duration": 1.5062760000000068
        },
        {
          "name": "E3",
          "midi": 52,
          "time": 16.56903600000002,
          "velocity": 0.7086614173228346,
          "duration": 1.5062760000000068
        },
        {
          "name": "A5",
          "midi": 81,
          "time": 16.820082000000017,
          "velocity": 0.4566929133858268,
          "duration": 0.06276150000000058
        },
        {
          "name": "D2",
          "midi": 38,
          "time": 16.94560500000002,
          "velocity": 0.6220472440944882,
          "duration": 0.12552300000000116
        },
        {
          "name": "E5",
          "midi": 76,
          "time": 17.57322000000002,
          "velocity": 0.4566929133858268,
          "duration": 0.06276150000000058
        },
        {
          "name": "D2",
          "midi": 38,
          "time": 17.57322000000002,
          "velocity": 0.6220472440944882,
          "duration": 0.12552300000000116
        },
        {
          "name": "D2",
          "midi": 38,
          "time": 17.69874300000002,
          "velocity": 0.6220472440944882,
          "duration": 0.12552300000000116
        },
        {
          "name": "E5",
          "midi": 76,
          "time": 17.824266000000023,
          "velocity": 0.4566929133858268,
          "duration": 0.06276150000000058
        },
        {
          "name": "B2",
          "midi": 47,
          "time": 17.824266000000023,
          "velocity": 0.5039370078740157,
          "duration": 0.06276150000000058
        },
        {
          "name": "B2",
          "midi": 47,
          "time": 17.887027500000023,
          "velocity": 0.5039370078740157,
          "duration": 0.06276150000000058
        },
        {
          "name": "A2",
          "midi": 45,
          "time": 17.949789000000024,
          "velocity": 0.5039370078740157,
          "duration": 0.06276150000000058
        },
        {
          "name": "A2",
          "midi": 45,
          "time": 18.012550500000025,
          "velocity": 0.5039370078740157,
          "duration": 0.06276150000000058
        },
        {
          "name": "A3",
          "midi": 57,
          "time": 18.075312000000025,
          "velocity": 0.7874015748031497,
          "duration": 2.008368000000008
        },
        {
          "name": "C#3",
          "midi": 49,
          "time": 18.075312000000025,
          "velocity": 0.7874015748031497,
          "duration": 2.008368000000008
        },
        {
          "name": "E5",
          "midi": 76,
          "time": 18.075312000000025,
          "velocity": 0.4566929133858268,
          "duration": 0.06276150000000058
        },
        {
          "name": "G2",
          "midi": 43,
          "time": 18.075312000000025,
          "velocity": 0.5039370078740157,
          "duration": 0.5020920000000011
        },
        {
          "name": "D2",
          "midi": 38,
          "time": 18.451881000000025,
          "velocity": 0.6220472440944882,
          "duration": 0.12552300000000116
        },
        {
          "name": "D2",
          "midi": 38,
          "time": 19.079496000000027,
          "velocity": 0.6220472440944882,
          "duration": 0.12552300000000116
        },
        {
          "name": "D2",
          "midi": 38,
          "time": 19.33054200000003,
          "velocity": 0.6220472440944882,
          "duration": 0.12552300000000116
        },
        {
          "name": "D2",
          "midi": 38,
          "time": 19.958157000000032,
          "velocity": 0.6220472440944882,
          "duration": 0.12552300000000116
        },
        {
          "name": "D2",
          "midi": 38,
          "time": 20.585772000000034,
          "velocity": 0.6220472440944882,
          "duration": 0.12552300000000116
        },
        {
          "name": "D2",
          "midi": 38,
          "time": 20.836818000000036,
          "velocity": 0.6220472440944882,
          "duration": 0.12552300000000116
        },
        {
          "name": "A3",
          "midi": 57,
          "time": 21.08786400000004,
          "velocity": 0.7874015748031497,
          "duration": 2.008368000000008
        },
        {
          "name": "D2",
          "midi": 38,
          "time": 21.46443300000004,
          "velocity": 0.6220472440944882,
          "duration": 0.12552300000000116
        },
        {
          "name": "D2",
          "midi": 38,
          "time": 22.09204800000004,
          "velocity": 0.6220472440944882,
          "duration": 0.12552300000000116
        },
        {
          "name": "D2",
          "midi": 38,
          "time": 22.343094000000043,
          "velocity": 0.6220472440944882,
          "duration": 0.12552300000000116
        },
        {
          "name": "D2",
          "midi": 38,
          "time": 22.970709000000046,
          "velocity": 0.6220472440944882,
          "duration": 0.12552300000000116
        },
        {
          "name": "D2",
          "midi": 38,
          "time": 23.347278000000045,
          "velocity": 0.6220472440944882,
          "duration": 0.12552300000000116
        },
        {
          "name": "D2",
          "midi": 38,
          "time": 23.598324000000048,
          "velocity": 0.6220472440944882,
          "duration": 0.12552300000000116
        },
        {
          "name": "D2",
          "midi": 38,
          "time": 23.84937000000005,
          "velocity": 0.6220472440944882,
          "duration": 0.12552300000000116
        },
        {
          "name": "D2",
          "midi": 38,
          "time": 23.97489300000005,
          "velocity": 0.6220472440944882,
          "duration": 0.06276150000000058
        },
        {
          "name": "D2",
          "midi": 38,
          "time": 24.037654500000052,
          "velocity": 0.6220472440944882,
          "duration": 0.06276150000000058
        },
        {
          "name": "D2",
          "midi": 38,
          "time": 24.100416000000052,
          "velocity": 0.6220472440944882,
          "duration": 0.06276150000000058
        },
        {
          "name": "D2",
          "midi": 38,
          "time": 24.476985000000052,
          "velocity": 0.6220472440944882,
          "duration": 0.12552300000000116
        },
        {
          "name": "D2",
          "midi": 38,
          "time": 25.104600000000055,
          "velocity": 0.6220472440944882,
          "duration": 0.12552300000000116
        },
        {
          "name": "D2",
          "midi": 38,
          "time": 25.355646000000057,
          "velocity": 0.6220472440944882,
          "duration": 0.12552300000000116
        },
        {
          "name": "D2",
          "midi": 38,
          "time": 25.98326100000006,
          "velocity": 0.6220472440944882,
          "duration": 0.12552300000000116
        },
        {
          "name": "D2",
          "midi": 38,
          "time": 26.61087600000006,
          "velocity": 0.6220472440944882,
          "duration": 0.12552300000000116
        },
        {
          "name": "D2",
          "midi": 38,
          "time": 26.861922000000064,
          "velocity": 0.6220472440944882,
          "duration": 0.12552300000000116
        },
        {
          "name": "E3",
          "midi": 52,
          "time": 30.125520000000066,
          "velocity": 0.7086614173228346,
          "duration": 1.5062760000000068
        },
        {
          "name": "G3",
          "midi": 55,
          "time": 30.125520000000066,
          "velocity": 0.9606299212598425,
          "duration": 1.5062760000000068
        },
        {
          "name": "A5",
          "midi": 81,
          "time": 30.376566000000064,
          "velocity": 0.4015748031496063,
          "duration": 0.06276150000000058
        },
        {
          "name": "D2",
          "midi": 38,
          "time": 30.502089000000066,
          "velocity": 0.6220472440944882,
          "duration": 0.12552300000000116
        },
        {
          "name": "E5",
          "midi": 76,
          "time": 31.129704000000068,
          "velocity": 0.4015748031496063,
          "duration": 0.06276150000000058
        },
        {
          "name": "D2",
          "midi": 38,
          "time": 31.129704000000068,
          "velocity": 0.6220472440944882,
          "duration": 0.12552300000000116
        },
        {
          "name": "D2",
          "midi": 38,
          "time": 31.38075000000007,
          "velocity": 0.6220472440944882,
          "duration": 0.12552300000000116
        },
        {
          "name": "E5",
          "midi": 76,
          "time": 31.38075000000007,
          "velocity": 0.4015748031496063,
          "duration": 0.06276150000000058
        },
        {
          "name": "G3",
          "midi": 55,
          "time": 31.631796000000072,
          "velocity": 0.9606299212598425,
          "duration": 1.5062759999999997
        },
        {
          "name": "E3",
          "midi": 52,
          "time": 31.631796000000072,
          "velocity": 0.7086614173228346,
          "duration": 1.5062759999999997
        },
        {
          "name": "A5",
          "midi": 81,
          "time": 31.88284200000007,
          "velocity": 0.4015748031496063,
          "duration": 0.06276150000000058
        },
        {
          "name": "D2",
          "midi": 38,
          "time": 32.00836500000007,
          "velocity": 0.6220472440944882,
          "duration": 0.12552300000000116
        },
        {
          "name": "E5",
          "midi": 76,
          "time": 32.63598000000007,
          "velocity": 0.4015748031496063,
          "duration": 0.06276150000000058
        },
        {
          "name": "D2",
          "midi": 38,
          "time": 32.63598000000007,
          "velocity": 0.6220472440944882,
          "duration": 0.12552300000000116
        },
        {
          "name": "D2",
          "midi": 38,
          "time": 32.88702600000007,
          "velocity": 0.6220472440944882,
          "duration": 0.12552300000000116
        },
        {
          "name": "E5",
          "midi": 76,
          "time": 32.88702600000007,
          "velocity": 0.4015748031496063,
          "duration": 0.06276150000000058
        },
        {
          "name": "G3",
          "midi": 55,
          "time": 33.13807200000007,
          "velocity": 0.9606299212598425,
          "duration": 1.5062760000000068
        },
        {
          "name": "E3",
          "midi": 52,
          "time": 33.13807200000007,
          "velocity": 0.7086614173228346,
          "duration": 1.5062760000000068
        },
        {
          "name": "A5",
          "midi": 81,
          "time": 33.389118000000074,
          "velocity": 0.4015748031496063,
          "duration": 0.06276150000000058
        },
        {
          "name": "D2",
          "midi": 38,
          "time": 33.514641000000076,
          "velocity": 0.6220472440944882,
          "duration": 0.12552300000000116
        },
        {
          "name": "D2",
          "midi": 38,
          "time": 34.142256000000074,
          "velocity": 0.6220472440944882,
          "duration": 0.12552300000000116
        },
        {
          "name": "E5",
          "midi": 76,
          "time": 34.142256000000074,
          "velocity": 0.4015748031496063,
          "duration": 0.06276150000000058
        },
        {
          "name": "D2",
          "midi": 38,
          "time": 34.39330200000008,
          "velocity": 0.6220472440944882,
          "duration": 0.12552300000000116
        },
        {
          "name": "E5",
          "midi": 76,
          "time": 34.39330200000008,
          "velocity": 0.4015748031496063,
          "duration": 0.06276150000000058
        },
        {
          "name": "A5",
          "midi": 81,
          "time": 34.89539400000008,
          "velocity": 0.4015748031496063,
          "duration": 0.06276150000000058
        },
        {
          "name": "D2",
          "midi": 38,
          "time": 35.02091700000008,
          "velocity": 0.6220472440944882,
          "duration": 0.12552300000000116
        },
        {
          "name": "D2",
          "midi": 38,
          "time": 35.64853200000008,
          "velocity": 0.6220472440944882,
          "duration": 0.12552300000000116
        },
        {
          "name": "E5",
          "midi": 76,
          "time": 35.64853200000008,
          "velocity": 0.4015748031496063,
          "duration": 0.06276150000000058
        },
        {
          "name": "D2",
          "midi": 38,
          "time": 35.89957800000008,
          "velocity": 0.6220472440944882,
          "duration": 0.12552300000000116
        },
        {
          "name": "E5",
          "midi": 76,
          "time": 35.89957800000008,
          "velocity": 0.4015748031496063,
          "duration": 0.06276150000000058
        },
        {
          "name": "G3",
          "midi": 55,
          "time": 36.150624000000086,
          "velocity": 0.9606299212598425,
          "duration": 1.5062760000000068
        },
        {
          "name": "E3",
          "midi": 52,
          "time": 36.150624000000086,
          "velocity": 0.7086614173228346,
          "duration": 1.5062760000000068
        },
        {
          "name": "A5",
          "midi": 81,
          "time": 36.40167000000009,
          "velocity": 0.4015748031496063,
          "duration": 0.06276150000000058
        },
        {
          "name": "D2",
          "midi": 38,
          "time": 36.52719300000009,
          "velocity": 0.6220472440944882,
          "duration": 0.12552300000000116
        },
        {
          "name": "D2",
          "midi": 38,
          "time": 37.15480800000009,
          "velocity": 0.6220472440944882,
          "duration": 0.12552300000000116
        },
        {
          "name": "E5",
          "midi": 76,
          "time": 37.15480800000009,
          "velocity": 0.4015748031496063,
          "duration": 0.06276150000000058
        },
        {
          "name": "E5",
          "midi": 76,
          "time": 37.40585400000009,
          "velocity": 0.4015748031496063,
          "duration": 0.06276150000000058
        },
        {
          "name": "D2",
          "midi": 38,
          "time": 37.40585400000009,
          "velocity": 0.6220472440944882,
          "duration": 0.12552300000000116
        },
        {
          "name": "E3",
          "midi": 52,
          "time": 37.65690000000009,
          "velocity": 0.7086614173228346,
          "duration": 1.5062760000000068
        },
        {
          "name": "G3",
          "midi": 55,
          "time": 37.65690000000009,
          "velocity": 0.9606299212598425,
          "duration": 1.5062760000000068
        },
        {
          "name": "A5",
          "midi": 81,
          "time": 37.907946000000095,
          "velocity": 0.4015748031496063,
          "duration": 0.06276150000000058
        },
        {
          "name": "D2",
          "midi": 38,
          "time": 38.033469000000096,
          "velocity": 0.6220472440944882,
          "duration": 0.12552300000000116
        },
        {
          "name": "D2",
          "midi": 38,
          "time": 38.661084000000095,
          "velocity": 0.6220472440944882,
          "duration": 0.12552300000000116
        },
        {
          "name": "E5",
          "midi": 76,
          "time": 38.661084000000095,
          "velocity": 0.4015748031496063,
          "duration": 0.06276150000000058
        },
        {
          "name": "E5",
          "midi": 76,
          "time": 38.9121300000001,
          "velocity": 0.4015748031496063,
          "duration": 0.06276150000000058
        },
        {
          "name": "D2",
          "midi": 38,
          "time": 38.9121300000001,
          "velocity": 0.6220472440944882,
          "duration": 0.12552300000000116
        },
        {
          "name": "G3",
          "midi": 55,
          "time": 39.1631760000001,
          "velocity": 0.9606299212598425,
          "duration": 1.5062760000000068
        },
        {
          "name": "E3",
          "midi": 52,
          "time": 39.1631760000001,
          "velocity": 0.7086614173228346,
          "duration": 1.5062760000000068
        },
        {
          "name": "A5",
          "midi": 81,
          "time": 39.4142220000001,
          "velocity": 0.4015748031496063,
          "duration": 0.06276150000000058
        },
        {
          "name": "D2",
          "midi": 38,
          "time": 39.5397450000001,
          "velocity": 0.6220472440944882,
          "duration": 0.12552300000000116
        },
        {
          "name": "D2",
          "midi": 38,
          "time": 40.1673600000001,
          "velocity": 0.6220472440944882,
          "duration": 0.12552300000000116
        },
        {
          "name": "E5",
          "midi": 76,
          "time": 40.1673600000001,
          "velocity": 0.4015748031496063,
          "duration": 0.06276150000000058
        },
        {
          "name": "E5",
          "midi": 76,
          "time": 40.418406000000104,
          "velocity": 0.4015748031496063,
          "duration": 0.06276150000000058
        },
        {
          "name": "D2",
          "midi": 38,
          "time": 40.418406000000104,
          "velocity": 0.6220472440944882,
          "duration": 0.12552300000000116
        },
        {
          "name": "E3",
          "midi": 52,
          "time": 40.669452000000106,
          "velocity": 0.7086614173228346,
          "duration": 1.5062760000000068
        },
        {
          "name": "G3",
          "midi": 55,
          "time": 40.669452000000106,
          "velocity": 0.9606299212598425,
          "duration": 1.5062760000000068
        },
        {
          "name": "A5",
          "midi": 81,
          "time": 40.92049800000011,
          "velocity": 0.4015748031496063,
          "duration": 0.06276150000000058
        },
        {
          "name": "D2",
          "midi": 38,
          "time": 41.04602100000011,
          "velocity": 0.6220472440944882,
          "duration": 0.12552300000000116
        },
        {
          "name": "D2",
          "midi": 38,
          "time": 41.67363600000011,
          "velocity": 0.6220472440944882,
          "duration": 0.12552300000000116
        },
        {
          "name": "E5",
          "midi": 76,
          "time": 41.67363600000011,
          "velocity": 0.4015748031496063,
          "duration": 0.06276150000000058
        },
        {
          "name": "E5",
          "midi": 76,
          "time": 41.92468200000011,
          "velocity": 0.4015748031496063,
          "duration": 0.06276150000000058
        },
        {
          "name": "D2",
          "midi": 38,
          "time": 41.92468200000011,
          "velocity": 0.6220472440944882,
          "duration": 0.12552300000000116
        },
        {
          "name": "G3",
          "midi": 55,
          "time": 42.17572800000011,
          "velocity": 0.9606299212598425,
          "duration": 1.5062760000000068
        },
        {
          "name": "E3",
          "midi": 52,
          "time": 42.17572800000011,
          "velocity": 0.7086614173228346,
          "duration": 1.5062760000000068
        },
        {
          "name": "A5",
          "midi": 81,
          "time": 42.426774000000115,
          "velocity": 0.4015748031496063,
          "duration": 0.06276150000000058
        },
        {
          "name": "D2",
          "midi": 38,
          "time": 42.55229700000012,
          "velocity": 0.6220472440944882,
          "duration": 0.12552300000000116
        },
        {
          "name": "D2",
          "midi": 38,
          "time": 43.179912000000115,
          "velocity": 0.6220472440944882,
          "duration": 0.12552300000000116
        },
        {
          "name": "E5",
          "midi": 76,
          "time": 43.179912000000115,
          "velocity": 0.4015748031496063,
          "duration": 0.06276150000000058
        },
        {
          "name": "E5",
          "midi": 76,
          "time": 43.43095800000012,
          "velocity": 0.4015748031496063,
          "duration": 0.06276150000000058
        },
        {
          "name": "D2",
          "midi": 38,
          "time": 43.43095800000012,
          "velocity": 0.6220472440944882,
          "duration": 0.12552300000000116
        },
        {
          "name": "G3",
          "midi": 55,
          "time": 43.68200400000012,
          "velocity": 0.9606299212598425,
          "duration": 1.5062760000000068
        },
        {
          "name": "E3",
          "midi": 52,
          "time": 43.68200400000012,
          "velocity": 0.7086614173228346,
          "duration": 1.5062760000000068
        },
        {
          "name": "A5",
          "midi": 81,
          "time": 43.93305000000012,
          "velocity": 0.4015748031496063,
          "duration": 0.06276150000000058
        },
        {
          "name": "D2",
          "midi": 38,
          "time": 44.05857300000012,
          "velocity": 0.6220472440944882,
          "duration": 0.12552300000000116
        },
        {
          "name": "E5",
          "midi": 76,
          "time": 44.68618800000012,
          "velocity": 0.4015748031496063,
          "duration": 0.06276150000000058
        },
        {
          "name": "D2",
          "midi": 38,
          "time": 44.68618800000012,
          "velocity": 0.6220472440944882,
          "duration": 0.12552300000000116
        },
        {
          "name": "D2",
          "midi": 38,
          "time": 44.937234000000124,
          "velocity": 0.6220472440944882,
          "duration": 0.12552300000000116
        },
        {
          "name": "E5",
          "midi": 76,
          "time": 44.937234000000124,
          "velocity": 0.4015748031496063,
          "duration": 0.06276150000000058
        },
        {
          "name": "G3",
          "midi": 55,
          "time": 45.18828000000013,
          "velocity": 0.9606299212598425,
          "duration": 1.5062760000000068
        },
        {
          "name": "E3",
          "midi": 52,
          "time": 45.18828000000013,
          "velocity": 0.7086614173228346,
          "duration": 1.5062760000000068
        },
        {
          "name": "A5",
          "midi": 81,
          "time": 45.43932600000013,
          "velocity": 0.4015748031496063,
          "duration": 0.06276150000000058
        },
        {
          "name": "D2",
          "midi": 38,
          "time": 45.56484900000013,
          "velocity": 0.6220472440944882,
          "duration": 0.12552300000000116
        },
        {
          "name": "D2",
          "midi": 38,
          "time": 46.19246400000013,
          "velocity": 0.6220472440944882,
          "duration": 0.12552300000000116
        },
        {
          "name": "E5",
          "midi": 76,
          "time": 46.19246400000013,
          "velocity": 0.4015748031496063,
          "duration": 0.06276150000000058
        },
        {
          "name": "E5",
          "midi": 76,
          "time": 46.44351000000013,
          "velocity": 0.4015748031496063,
          "duration": 0.06276150000000058
        },
        {
          "name": "D2",
          "midi": 38,
          "time": 46.44351000000013,
          "velocity": 0.6220472440944882,
          "duration": 0.12552300000000116
        },
        {
          "name": "E3",
          "midi": 52,
          "time": 46.694556000000134,
          "velocity": 0.7086614173228346,
          "duration": 1.5062760000000068
        },
        {
          "name": "G3",
          "midi": 55,
          "time": 46.694556000000134,
          "velocity": 0.9606299212598425,
          "duration": 1.5062760000000068
        },
        {
          "name": "A5",
          "midi": 81,
          "time": 46.945602000000136,
          "velocity": 0.4015748031496063,
          "duration": 0.06276150000000058
        },
        {
          "name": "D2",
          "midi": 38,
          "time": 47.07112500000014,
          "velocity": 0.6220472440944882,
          "duration": 0.12552300000000116
        },
        {
          "name": "E5",
          "midi": 76,
          "time": 47.698740000000136,
          "velocity": 0.4015748031496063,
          "duration": 0.06276150000000058
        },
        {
          "name": "D2",
          "midi": 38,
          "time": 47.698740000000136,
          "velocity": 0.6220472440944882,
          "duration": 0.12552300000000116
        },
        {
          "name": "E5",
          "midi": 76,
          "time": 47.94978600000014,
          "velocity": 0.4015748031496063,
          "duration": 0.06276150000000058
        },
        {
          "name": "D2",
          "midi": 38,
          "time": 47.94978600000014,
          "velocity": 0.6220472440944882,
          "duration": 0.12552300000000116
        },
        {
          "name": "E3",
          "midi": 52,
          "time": 48.20083200000014,
          "velocity": 0.7086614173228346,
          "duration": 1.5062760000000068
        },
        {
          "name": "G3",
          "midi": 55,
          "time": 48.20083200000014,
          "velocity": 0.9606299212598425,
          "duration": 1.5062760000000068
        },
        {
          "name": "A5",
          "midi": 81,
          "time": 48.45187800000014,
          "velocity": 0.4015748031496063,
          "duration": 0.06276150000000058
        },
        {
          "name": "D2",
          "midi": 38,
          "time": 48.577401000000144,
          "velocity": 0.6220472440944882,
          "duration": 0.12552300000000116
        },
        {
          "name": "D2",
          "midi": 38,
          "time": 49.20501600000014,
          "velocity": 0.6220472440944882,
          "duration": 0.12552300000000116
        },
        {
          "name": "E5",
          "midi": 76,
          "time": 49.20501600000014,
          "velocity": 0.4015748031496063,
          "duration": 0.06276150000000058
        },
        {
          "name": "E5",
          "midi": 76,
          "time": 49.456062000000145,
          "velocity": 0.4015748031496063,
          "duration": 0.06276150000000058
        },
        {
          "name": "D2",
          "midi": 38,
          "time": 49.456062000000145,
          "velocity": 0.6220472440944882,
          "duration": 0.12552300000000116
        },
        {
          "name": "G3",
          "midi": 55,
          "time": 49.70710800000015,
          "velocity": 0.9606299212598425,
          "duration": 1.5062760000000068
        },
        {
          "name": "E3",
          "midi": 52,
          "time": 49.70710800000015,
          "velocity": 0.7086614173228346,
          "duration": 1.5062760000000068
        },
        {
          "name": "A5",
          "midi": 81,
          "time": 49.95815400000015,
          "velocity": 0.4015748031496063,
          "duration": 0.06276150000000058
        },
        {
          "name": "D2",
          "midi": 38,
          "time": 50.08367700000015,
          "velocity": 0.6220472440944882,
          "duration": 0.12552300000000116
        },
        {
          "name": "E5",
          "midi": 76,
          "time": 50.71129200000015,
          "velocity": 0.4015748031496063,
          "duration": 0.06276150000000058
        },
        {
          "name": "D2",
          "midi": 38,
          "time": 50.71129200000015,
          "velocity": 0.6220472440944882,
          "duration": 0.12552300000000116
        },
        {
          "name": "E5",
          "midi": 76,
          "time": 50.96233800000015,
          "velocity": 0.4015748031496063,
          "duration": 0.06276150000000058
        },
        {
          "name": "D2",
          "midi": 38,
          "time": 50.96233800000015,
          "velocity": 0.6220472440944882,
          "duration": 0.12552300000000116
        },
        {
          "name": "B1",
          "midi": 35,
          "time": 57.23848800000015,
          "velocity": 0.5039370078740157,
          "duration": 0.12552300000000116
        },
        {
          "name": "B1",
          "midi": 35,
          "time": 57.489534000000155,
          "velocity": 0.5039370078740157,
          "duration": 0.12552300000000116
        },
        {
          "name": "C2",
          "midi": 36,
          "time": 57.61505700000016,
          "velocity": 0.5039370078740157,
          "duration": 0.12552300000000116
        },
        {
          "name": "D2",
          "midi": 38,
          "time": 57.61505700000016,
          "velocity": 0.6220472440944882,
          "duration": 0.12552300000000116
        },
        {
          "name": "B1",
          "midi": 35,
          "time": 57.74058000000016,
          "velocity": 0.5039370078740157,
          "duration": 0.12552300000000116
        },
        {
          "name": "B1",
          "midi": 35,
          "time": 57.86610300000016,
          "velocity": 0.5039370078740157,
          "duration": 0.12552300000000116
        },
        {
          "name": "D2",
          "midi": 38,
          "time": 58.24267200000016,
          "velocity": 0.6220472440944882,
          "duration": 0.12552300000000116
        },
        {
          "name": "D2",
          "midi": 38,
          "time": 58.493718000000165,
          "velocity": 0.6220472440944882,
          "duration": 0.12552300000000116
        },
        {
          "name": "B1",
          "midi": 35,
          "time": 58.74476400000017,
          "velocity": 0.5039370078740157,
          "duration": 0.12552300000000116
        },
        {
          "name": "B1",
          "midi": 35,
          "time": 58.99581000000017,
          "velocity": 0.5039370078740157,
          "duration": 0.12552300000000116
        },
        {
          "name": "D2",
          "midi": 38,
          "time": 59.12133300000017,
          "velocity": 0.6220472440944882,
          "duration": 0.12552300000000116
        },
        {
          "name": "C2",
          "midi": 36,
          "time": 59.12133300000017,
          "velocity": 0.5039370078740157,
          "duration": 0.12552300000000116
        },
        {
          "name": "B1",
          "midi": 35,
          "time": 59.24685600000017,
          "velocity": 0.5039370078740157,
          "duration": 0.12552300000000116
        },
        {
          "name": "B1",
          "midi": 35,
          "time": 59.37237900000017,
          "velocity": 0.5039370078740157,
          "duration": 0.12552300000000116
        },
        {
          "name": "D2",
          "midi": 38,
          "time": 59.748948000000176,
          "velocity": 0.6220472440944882,
          "duration": 0.12552300000000116
        },
        {
          "name": "D2",
          "midi": 38,
          "time": 59.99999400000018,
          "velocity": 0.6220472440944882,
          "duration": 0.12552300000000116
        },
        {
          "name": "B1",
          "midi": 35,
          "time": 60.25104000000018,
          "velocity": 0.5039370078740157,
          "duration": 0.12552300000000116
        },
        {
          "name": "B1",
          "midi": 35,
          "time": 60.50208600000018,
          "velocity": 0.5039370078740157,
          "duration": 0.12552300000000116
        },
        {
          "name": "D2",
          "midi": 38,
          "time": 60.627609000000184,
          "velocity": 0.6220472440944882,
          "duration": 0.12552300000000116
        },
        {
          "name": "C2",
          "midi": 36,
          "time": 60.627609000000184,
          "velocity": 0.5039370078740157,
          "duration": 0.12552300000000116
        },
        {
          "name": "B1",
          "midi": 35,
          "time": 60.753132000000186,
          "velocity": 0.5039370078740157,
          "duration": 0.12552300000000116
        },
        {
          "name": "B1",
          "midi": 35,
          "time": 60.87865500000019,
          "velocity": 0.5039370078740157,
          "duration": 0.12552300000000116
        },
        {
          "name": "D2",
          "midi": 38,
          "time": 61.25522400000019,
          "velocity": 0.6220472440944882,
          "duration": 0.12552300000000116
        },
        {
          "name": "D2",
          "midi": 38,
          "time": 61.50627000000019,
          "velocity": 0.6220472440944882,
          "duration": 0.12552300000000116
        },
        {
          "name": "B1",
          "midi": 35,
          "time": 61.757316000000195,
          "velocity": 0.5039370078740157,
          "duration": 0.12552300000000116
        },
        {
          "name": "B1",
          "midi": 35,
          "time": 62.0083620000002,
          "velocity": 0.5039370078740157,
          "duration": 0.12552300000000116
        },
        {
          "name": "D2",
          "midi": 38,
          "time": 62.1338850000002,
          "velocity": 0.6220472440944882,
          "duration": 0.12552300000000116
        },
        {
          "name": "C2",
          "midi": 36,
          "time": 62.1338850000002,
          "velocity": 0.5039370078740157,
          "duration": 0.12552300000000116
        },
        {
          "name": "B1",
          "midi": 35,
          "time": 62.2594080000002,
          "velocity": 0.5039370078740157,
          "duration": 0.12552300000000116
        },
        {
          "name": "B1",
          "midi": 35,
          "time": 62.3849310000002,
          "velocity": 0.5039370078740157,
          "duration": 0.12552300000000116
        },
        {
          "name": "D2",
          "midi": 38,
          "time": 62.761500000000204,
          "velocity": 0.6220472440944882,
          "duration": 0.12552300000000116
        },
        {
          "name": "D2",
          "midi": 38,
          "time": 63.01254600000021,
          "velocity": 0.6220472440944882,
          "duration": 0.12552300000000116
        },
        {
          "name": "B1",
          "midi": 35,
          "time": 63.26359200000021,
          "velocity": 0.5039370078740157,
          "duration": 0.12552300000000116
        },
        {
          "name": "B1",
          "midi": 35,
          "time": 63.51463800000021,
          "velocity": 0.5039370078740157,
          "duration": 0.12552300000000116
        },
        {
          "name": "C2",
          "midi": 36,
          "time": 63.64016100000021,
          "velocity": 0.5039370078740157,
          "duration": 0.12552300000000116
        },
        {
          "name": "D2",
          "midi": 38,
          "time": 63.64016100000021,
          "velocity": 0.6220472440944882,
          "duration": 0.12552300000000116
        },
        {
          "name": "B1",
          "midi": 35,
          "time": 63.76568400000021,
          "velocity": 0.5039370078740157,
          "duration": 0.12552300000000116
        },
        {
          "name": "B1",
          "midi": 35,
          "time": 63.891207000000215,
          "velocity": 0.5039370078740157,
          "duration": 0.12552299999999406
        },
        {
          "name": "D2",
          "midi": 38,
          "time": 64.26777600000021,
          "velocity": 0.6220472440944882,
          "duration": 0.12552300000000116
        },
        {
          "name": "D2",
          "midi": 38,
          "time": 64.51882200000021,
          "velocity": 0.6220472440944882,
          "duration": 0.12552300000000116
        },
        {
          "name": "B1",
          "midi": 35,
          "time": 64.76986800000022,
          "velocity": 0.5039370078740157,
          "duration": 0.12552300000000116
        },
        {
          "name": "B1",
          "midi": 35,
          "time": 65.02091400000022,
          "velocity": 0.5039370078740157,
          "duration": 0.12552300000000116
        },
        {
          "name": "C2",
          "midi": 36,
          "time": 65.14643700000022,
          "velocity": 0.5039370078740157,
          "duration": 0.12552300000000116
        },
        {
          "name": "D2",
          "midi": 38,
          "time": 65.14643700000022,
          "velocity": 0.6220472440944882,
          "duration": 0.12552300000000116
        },
        {
          "name": "B1",
          "midi": 35,
          "time": 65.27196000000022,
          "velocity": 0.5039370078740157,
          "duration": 0.12552300000000116
        },
        {
          "name": "B1",
          "midi": 35,
          "time": 65.39748300000022,
          "velocity": 0.5039370078740157,
          "duration": 0.12552300000000116
        },
        {
          "name": "D2",
          "midi": 38,
          "time": 65.77405200000022,
          "velocity": 0.6220472440944882,
          "duration": 0.12552300000000116
        },
        {
          "name": "D2",
          "midi": 38,
          "time": 66.02509800000023,
          "velocity": 0.6220472440944882,
          "duration": 0.12552300000000116
        },
        {
          "name": "B1",
          "midi": 35,
          "time": 66.27614400000023,
          "velocity": 0.5039370078740157,
          "duration": 0.12552300000000116
        },
        {
          "name": "B1",
          "midi": 35,
          "time": 66.52719000000023,
          "velocity": 0.5039370078740157,
          "duration": 0.12552300000000116
        },
        {
          "name": "C2",
          "midi": 36,
          "time": 66.65271300000023,
          "velocity": 0.5039370078740157,
          "duration": 0.12552300000000116
        },
        {
          "name": "D2",
          "midi": 38,
          "time": 66.65271300000023,
          "velocity": 0.6220472440944882,
          "duration": 0.12552300000000116
        },
        {
          "name": "B1",
          "midi": 35,
          "time": 66.77823600000023,
          "velocity": 0.5039370078740157,
          "duration": 0.12552300000000116
        },
        {
          "name": "B1",
          "midi": 35,
          "time": 66.90375900000024,
          "velocity": 0.5039370078740157,
          "duration": 0.12552300000000116
        },
        {
          "name": "D2",
          "midi": 38,
          "time": 67.28032800000024,
          "velocity": 0.6220472440944882,
          "duration": 0.12552300000000116
        },
        {
          "name": "D2",
          "midi": 38,
          "time": 67.53137400000024,
          "velocity": 0.6220472440944882,
          "duration": 0.12552300000000116
        },
        {
          "name": "B1",
          "midi": 35,
          "time": 67.78242000000024,
          "velocity": 0.5039370078740157,
          "duration": 0.12552300000000116
        },
        {
          "name": "B1",
          "midi": 35,
          "time": 68.03346600000025,
          "velocity": 0.5039370078740157,
          "duration": 0.12552300000000116
        },
        {
          "name": "D2",
          "midi": 38,
          "time": 68.15898900000025,
          "velocity": 0.6220472440944882,
          "duration": 0.12552300000000116
        },
        {
          "name": "C2",
          "midi": 36,
          "time": 68.15898900000025,
          "velocity": 0.5039370078740157,
          "duration": 0.12552300000000116
        },
        {
          "name": "B1",
          "midi": 35,
          "time": 68.28451200000025,
          "velocity": 0.5039370078740157,
          "duration": 0.12552300000000116
        },
        {
          "name": "B1",
          "midi": 35,
          "time": 68.41003500000025,
          "velocity": 0.5039370078740157,
          "duration": 0.12552300000000116
        },
        {
          "name": "D2",
          "midi": 38,
          "time": 68.78660400000025,
          "velocity": 0.6220472440944882,
          "duration": 0.12552300000000116
        },
        {
          "name": "D2",
          "midi": 38,
          "time": 69.03765000000026,
          "velocity": 0.6220472440944882,
          "duration": 0.12552300000000116
        },
        {
          "name": "B1",
          "midi": 35,
          "time": 69.28869600000026,
          "velocity": 0.5039370078740157,
          "duration": 0.12552300000000116
        },
        {
          "name": "B1",
          "midi": 35,
          "time": 69.53974200000026,
          "velocity": 0.5039370078740157,
          "duration": 0.12552300000000116
        },
        {
          "name": "D2",
          "midi": 38,
          "time": 69.66526500000026,
          "velocity": 0.6220472440944882,
          "duration": 0.12552300000000116
        },
        {
          "name": "C2",
          "midi": 36,
          "time": 69.66526500000026,
          "velocity": 0.5039370078740157,
          "duration": 0.12552300000000116
        },
        {
          "name": "B1",
          "midi": 35,
          "time": 69.79078800000026,
          "velocity": 0.5039370078740157,
          "duration": 0.12552300000000116
        },
        {
          "name": "B1",
          "midi": 35,
          "time": 69.91631100000026,
          "velocity": 0.5039370078740157,
          "duration": 0.12552300000000116
        },
        {
          "name": "D2",
          "midi": 38,
          "time": 70.29288000000027,
          "velocity": 0.6220472440944882,
          "duration": 0.12552300000000116
        },
        {
          "name": "D2",
          "midi": 38,
          "time": 70.54392600000027,
          "velocity": 0.6220472440944882,
          "duration": 0.12552300000000116
        },
        {
          "name": "B1",
          "midi": 35,
          "time": 70.79497200000027,
          "velocity": 0.5039370078740157,
          "duration": 0.12552300000000116
        },
        {
          "name": "B1",
          "midi": 35,
          "time": 71.04601800000027,
          "velocity": 0.5039370078740157,
          "duration": 0.12552300000000116
        },
        {
          "name": "D2",
          "midi": 38,
          "time": 71.17154100000027,
          "velocity": 0.6220472440944882,
          "duration": 0.12552300000000116
        },
        {
          "name": "C2",
          "midi": 36,
          "time": 71.17154100000027,
          "velocity": 0.5039370078740157,
          "duration": 0.12552300000000116
        },
        {
          "name": "B1",
          "midi": 35,
          "time": 71.29706400000028,
          "velocity": 0.5039370078740157,
          "duration": 0.12552300000000116
        },
        {
          "name": "B1",
          "midi": 35,
          "time": 71.42258700000028,
          "velocity": 0.5039370078740157,
          "duration": 0.12552300000000116
        },
        {
          "name": "D2",
          "midi": 38,
          "time": 71.79915600000028,
          "velocity": 0.6220472440944882,
          "duration": 0.12552300000000116
        },
        {
          "name": "D2",
          "midi": 38,
          "time": 72.05020200000028,
          "velocity": 0.6220472440944882,
          "duration": 0.12552300000000116
        },
        {
          "name": "B1",
          "midi": 35,
          "time": 72.30124800000029,
          "velocity": 0.5039370078740157,
          "duration": 0.12552300000000116
        },
        {
          "name": "B1",
          "midi": 35,
          "time": 72.55229400000029,
          "velocity": 0.5039370078740157,
          "duration": 0.12552300000000116
        },
        {
          "name": "C2",
          "midi": 36,
          "time": 72.67781700000029,
          "velocity": 0.5039370078740157,
          "duration": 0.12552300000000116
        },
        {
          "name": "D2",
          "midi": 38,
          "time": 72.67781700000029,
          "velocity": 0.6220472440944882,
          "duration": 0.12552300000000116
        },
        {
          "name": "B1",
          "midi": 35,
          "time": 72.80334000000029,
          "velocity": 0.5039370078740157,
          "duration": 0.12552300000000116
        },
        {
          "name": "B1",
          "midi": 35,
          "time": 72.92886300000029,
          "velocity": 0.5039370078740157,
          "duration": 0.12552300000000116
        },
        {
          "name": "D2",
          "midi": 38,
          "time": 73.3054320000003,
          "velocity": 0.6220472440944882,
          "duration": 0.12552300000000116
        },
        {
          "name": "D2",
          "midi": 38,
          "time": 73.5564780000003,
          "velocity": 0.6220472440944882,
          "duration": 0.12552300000000116
        },
        {
          "name": "B1",
          "midi": 35,
          "time": 73.8075240000003,
          "velocity": 0.5039370078740157,
          "duration": 0.12552300000000116
        },
        {
          "name": "B1",
          "midi": 35,
          "time": 74.0585700000003,
          "velocity": 0.5039370078740157,
          "duration": 0.12552300000000116
        },
        {
          "name": "D2",
          "midi": 38,
          "time": 74.1840930000003,
          "velocity": 0.6220472440944882,
          "duration": 0.12552300000000116
        },
        {
          "name": "C2",
          "midi": 36,
          "time": 74.1840930000003,
          "velocity": 0.5039370078740157,
          "duration": 0.12552300000000116
        },
        {
          "name": "B1",
          "midi": 35,
          "time": 74.3096160000003,
          "velocity": 0.5039370078740157,
          "duration": 0.12552300000000116
        },
        {
          "name": "B1",
          "midi": 35,
          "time": 74.4351390000003,
          "velocity": 0.5039370078740157,
          "duration": 0.12552300000000116
        },
        {
          "name": "D2",
          "midi": 38,
          "time": 74.81170800000031,
          "velocity": 0.6220472440944882,
          "duration": 0.12552300000000116
        },
        {
          "name": "D2",
          "midi": 38,
          "time": 75.06275400000031,
          "velocity": 0.6220472440944882,
          "duration": 0.12552300000000116
        },
        {
          "name": "B1",
          "midi": 35,
          "time": 75.31380000000031,
          "velocity": 0.5039370078740157,
          "duration": 0.12552300000000116
        },
        {
          "name": "B1",
          "midi": 35,
          "time": 75.56484600000032,
          "velocity": 0.5039370078740157,
          "duration": 0.12552300000000116
        },
        {
          "name": "D2",
          "midi": 38,
          "time": 75.69036900000032,
          "velocity": 0.6220472440944882,
          "duration": 0.12552300000000116
        },
        {
          "name": "C2",
          "midi": 36,
          "time": 75.69036900000032,
          "velocity": 0.5039370078740157,
          "duration": 0.12552300000000116
        },
        {
          "name": "B1",
          "midi": 35,
          "time": 75.81589200000032,
          "velocity": 0.5039370078740157,
          "duration": 0.12552300000000116
        },
        {
          "name": "B1",
          "midi": 35,
          "time": 75.94141500000032,
          "velocity": 0.5039370078740157,
          "duration": 0.12552300000000116
        },
        {
          "name": "D2",
          "midi": 38,
          "time": 76.31798400000032,
          "velocity": 0.6220472440944882,
          "duration": 0.12552300000000116
        },
        {
          "name": "D2",
          "midi": 38,
          "time": 76.56903000000032,
          "velocity": 0.6220472440944882,
          "duration": 0.12552300000000116
        },
        {
          "name": "B1",
          "midi": 35,
          "time": 76.82007600000033,
          "velocity": 0.5039370078740157,
          "duration": 0.12552300000000116
        },
        {
          "name": "B1",
          "midi": 35,
          "time": 77.07112200000033,
          "velocity": 0.5039370078740157,
          "duration": 0.12552300000000116
        },
        {
          "name": "D2",
          "midi": 38,
          "time": 77.19664500000033,
          "velocity": 0.6220472440944882,
          "duration": 0.12552300000000116
        },
        {
          "name": "C2",
          "midi": 36,
          "time": 77.19664500000033,
          "velocity": 0.5039370078740157,
          "duration": 0.12552300000000116
        },
        {
          "name": "B1",
          "midi": 35,
          "time": 77.32216800000033,
          "velocity": 0.5039370078740157,
          "duration": 0.12552300000000116
        },
        {
          "name": "B1",
          "midi": 35,
          "time": 77.44769100000033,
          "velocity": 0.5039370078740157,
          "duration": 0.12552300000000116
        },
        {
          "name": "D2",
          "midi": 38,
          "time": 77.82426000000034,
          "velocity": 0.6220472440944882,
          "duration": 0.12552300000000116
        },
        {
          "name": "D2",
          "midi": 38,
          "time": 78.07530600000034,
          "velocity": 0.6220472440944882,
          "duration": 0.12552300000000116
        },
        {
          "name": "B1",
          "midi": 35,
          "time": 78.32635200000034,
          "velocity": 0.5039370078740157,
          "duration": 0.12552300000000116
        },
        {
          "name": "B1",
          "midi": 35,
          "time": 78.57739800000034,
          "velocity": 0.5039370078740157,
          "duration": 0.12552300000000116
        },
        {
          "name": "C2",
          "midi": 36,
          "time": 78.70292100000034,
          "velocity": 0.5039370078740157,
          "duration": 0.12552300000000116
        },
        {
          "name": "D2",
          "midi": 38,
          "time": 78.70292100000034,
          "velocity": 0.6220472440944882,
          "duration": 0.12552300000000116
        },
        {
          "name": "B1",
          "midi": 35,
          "time": 78.82844400000035,
          "velocity": 0.5039370078740157,
          "duration": 0.12552300000000116
        },
        {
          "name": "B1",
          "midi": 35,
          "time": 78.95396700000035,
          "velocity": 0.5039370078740157,
          "duration": 0.12552300000000116
        },
        {
          "name": "D2",
          "midi": 38,
          "time": 79.33053600000035,
          "velocity": 0.6220472440944882,
          "duration": 0.12552300000000116
        },
        {
          "name": "D2",
          "midi": 38,
          "time": 79.58158200000035,
          "velocity": 0.6220472440944882,
          "duration": 0.12552300000000116
        },
        {
          "name": "B1",
          "midi": 35,
          "time": 79.83262800000035,
          "velocity": 0.5039370078740157,
          "duration": 0.12552300000000116
        },
        {
          "name": "B1",
          "midi": 35,
          "time": 80.08367400000036,
          "velocity": 0.5039370078740157,
          "duration": 0.12552300000000116
        },
        {
          "name": "D2",
          "midi": 38,
          "time": 80.20919700000036,
          "velocity": 0.6220472440944882,
          "duration": 0.12552300000000116
        },
        {
          "name": "C2",
          "midi": 36,
          "time": 80.20919700000036,
          "velocity": 0.5039370078740157,
          "duration": 0.12552300000000116
        },
        {
          "name": "B1",
          "midi": 35,
          "time": 80.33472000000036,
          "velocity": 0.5039370078740157,
          "duration": 0.12552300000000116
        },
        {
          "name": "B1",
          "midi": 35,
          "time": 80.46024300000036,
          "velocity": 0.5039370078740157,
          "duration": 0.12552300000000116
        },
        {
          "name": "D2",
          "midi": 38,
          "time": 80.83681200000036,
          "velocity": 0.6220472440944882,
          "duration": 0.12552300000000116
        },
        {
          "name": "D2",
          "midi": 38,
          "time": 81.08785800000037,
          "velocity": 0.6220472440944882,
          "duration": 0.12552300000000116
        },
        {
          "name": "B1",
          "midi": 35,
          "time": 81.33890400000037,
          "velocity": 0.5039370078740157,
          "duration": 0.12552300000000116
        },
        {
          "name": "B1",
          "midi": 35,
          "time": 81.58995000000037,
          "velocity": 0.5039370078740157,
          "duration": 0.12552300000000116
        },
        {
          "name": "D2",
          "midi": 38,
          "time": 81.71547300000037,
          "velocity": 0.6220472440944882,
          "duration": 0.12552300000000116
        },
        {
          "name": "C2",
          "midi": 36,
          "time": 81.71547300000037,
          "velocity": 0.5039370078740157,
          "duration": 0.12552300000000116
        },
        {
          "name": "B1",
          "midi": 35,
          "time": 81.84099600000037,
          "velocity": 0.5039370078740157,
          "duration": 0.12552300000000116
        },
        {
          "name": "B1",
          "midi": 35,
          "time": 81.96651900000037,
          "velocity": 0.5039370078740157,
          "duration": 0.12552300000000116
        },
        {
          "name": "D2",
          "midi": 38,
          "time": 82.34308800000038,
          "velocity": 0.6220472440944882,
          "duration": 0.12552300000000116
        },
        {
          "name": "D2",
          "midi": 38,
          "time": 82.59413400000038,
          "velocity": 0.6220472440944882,
          "duration": 0.12552300000000116
        },
        {
          "name": "B1",
          "midi": 35,
          "time": 82.84518000000038,
          "velocity": 0.5039370078740157,
          "duration": 0.12552300000000116
        },
        {
          "name": "B1",
          "midi": 35,
          "time": 83.09622600000039,
          "velocity": 0.5039370078740157,
          "duration": 0.12552300000000116
        },
        {
          "name": "D2",
          "midi": 38,
          "time": 83.22174900000039,
          "velocity": 0.6220472440944882,
          "duration": 0.12552300000000116
        },
        {
          "name": "C2",
          "midi": 36,
          "time": 83.22174900000039,
          "velocity": 0.5039370078740157,
          "duration": 0.12552300000000116
        },
        {
          "name": "B1",
          "midi": 35,
          "time": 83.34727200000039,
          "velocity": 0.5039370078740157,
          "duration": 0.12552300000000116
        },
        {
          "name": "B1",
          "midi": 35,
          "time": 83.47279500000039,
          "velocity": 0.5039370078740157,
          "duration": 0.12552300000000116
        },
        {
          "name": "D2",
          "midi": 38,
          "time": 83.84936400000039,
          "velocity": 0.6220472440944882,
          "duration": 0.12552300000000116
        },
        {
          "name": "D2",
          "midi": 38,
          "time": 84.1004100000004,
          "velocity": 0.6220472440944882,
          "duration": 0.12552300000000116
        },
        {
          "name": "E3",
          "midi": 52,
          "time": 87.3640080000004,
          "velocity": 0.7086614173228346,
          "duration": 1.5062759999999713
        },
        {
          "name": "G3",
          "midi": 55,
          "time": 87.3640080000004,
          "velocity": 0.9606299212598425,
          "duration": 1.5062759999999713
        },
        {
          "name": "A5",
          "midi": 81,
          "time": 87.6150540000004,
          "velocity": 0.4015748031496063,
          "duration": 0.06276149999999348
        },
        {
          "name": "D2",
          "midi": 38,
          "time": 87.74057700000039,
          "velocity": 0.6220472440944882,
          "duration": 0.12552300000000116
        },
        {
          "name": "D2",
          "midi": 38,
          "time": 88.36819200000039,
          "velocity": 0.6220472440944882,
          "duration": 0.12552299999998695
        },
        {
          "name": "E5",
          "midi": 76,
          "time": 88.36819200000039,
          "velocity": 0.4015748031496063,
          "duration": 0.06276149999999348
        },
        {
          "name": "D2",
          "midi": 38,
          "time": 88.61923800000038,
          "velocity": 0.6220472440944882,
          "duration": 0.12552299999998695
        },
        {
          "name": "E5",
          "midi": 76,
          "time": 88.61923800000038,
          "velocity": 0.4015748031496063,
          "duration": 0.06276149999999348
        },
        {
          "name": "E3",
          "midi": 52,
          "time": 88.87028400000037,
          "velocity": 0.7086614173228346,
          "duration": 1.5062759999999713
        },
        {
          "name": "G3",
          "midi": 55,
          "time": 88.87028400000037,
          "velocity": 0.9606299212598425,
          "duration": 1.5062759999999713
        },
        {
          "name": "A5",
          "midi": 81,
          "time": 89.12133000000037,
          "velocity": 0.4015748031496063,
          "duration": 0.06276149999999348
        },
        {
          "name": "D2",
          "midi": 38,
          "time": 89.24685300000036,
          "velocity": 0.6220472440944882,
          "duration": 0.12552300000000116
        },
        {
          "name": "E5",
          "midi": 76,
          "time": 89.87446800000036,
          "velocity": 0.4015748031496063,
          "duration": 0.06276149999999348
        },
        {
          "name": "D2",
          "midi": 38,
          "time": 89.87446800000036,
          "velocity": 0.6220472440944882,
          "duration": 0.12552299999998695
        },
        {
          "name": "D2",
          "midi": 38,
          "time": 90.12551400000035,
          "velocity": 0.6220472440944882,
          "duration": 0.12552299999998695
        },
        {
          "name": "E5",
          "midi": 76,
          "time": 90.12551400000035,
          "velocity": 0.4015748031496063,
          "duration": 0.06276149999999348
        },
        {
          "name": "G3",
          "midi": 55,
          "time": 90.37656000000034,
          "velocity": 0.9606299212598425,
          "duration": 1.5062759999999713
        },
        {
          "name": "E3",
          "midi": 52,
          "time": 90.37656000000034,
          "velocity": 0.7086614173228346,
          "duration": 1.5062759999999713
        },
        {
          "name": "A5",
          "midi": 81,
          "time": 90.62760600000034,
          "velocity": 0.4015748031496063,
          "duration": 0.06276149999999348
        },
        {
          "name": "D2",
          "midi": 38,
          "time": 90.75312900000033,
          "velocity": 0.6220472440944882,
          "duration": 0.12552300000000116
        },
        {
          "name": "D2",
          "midi": 38,
          "time": 91.38074400000033,
          "velocity": 0.6220472440944882,
          "duration": 0.12552299999998695
        },
        {
          "name": "E5",
          "midi": 76,
          "time": 91.38074400000033,
          "velocity": 0.4015748031496063,
          "duration": 0.06276149999999348
        },
        {
          "name": "E5",
          "midi": 76,
          "time": 91.63179000000032,
          "velocity": 0.4015748031496063,
          "duration": 0.06276149999999348
        },
        {
          "name": "D2",
          "midi": 38,
          "time": 91.63179000000032,
          "velocity": 0.6220472440944882,
          "duration": 0.12552299999998695
        },
        {
          "name": "A5",
          "midi": 81,
          "time": 92.13388200000031,
          "velocity": 0.4015748031496063,
          "duration": 0.06276149999999348
        },
        {
          "name": "D2",
          "midi": 38,
          "time": 92.2594050000003,
          "velocity": 0.6220472440944882,
          "duration": 0.12552300000000116
        },
        {
          "name": "D2",
          "midi": 38,
          "time": 92.8870200000003,
          "velocity": 0.6220472440944882,
          "duration": 0.12552299999998695
        },
        {
          "name": "E5",
          "midi": 76,
          "time": 92.8870200000003,
          "velocity": 0.4015748031496063,
          "duration": 0.06276149999999348
        },
        {
          "name": "D2",
          "midi": 38,
          "time": 93.1380660000003,
          "velocity": 0.6220472440944882,
          "duration": 0.12552299999998695
        },
        {
          "name": "E5",
          "midi": 76,
          "time": 93.1380660000003,
          "velocity": 0.4015748031496063,
          "duration": 0.06276149999999348
        },
        {
          "name": "E3",
          "midi": 52,
          "time": 93.38911200000028,
          "velocity": 0.7086614173228346,
          "duration": 1.5062759999999713
        },
        {
          "name": "G3",
          "midi": 55,
          "time": 93.38911200000028,
          "velocity": 0.9606299212598425,
          "duration": 1.5062759999999713
        },
        {
          "name": "A5",
          "midi": 81,
          "time": 93.64015800000028,
          "velocity": 0.4015748031496063,
          "duration": 0.06276149999999348
        },
        {
          "name": "D2",
          "midi": 38,
          "time": 93.76568100000027,
          "velocity": 0.6220472440944882,
          "duration": 0.12552300000000116
        },
        {
          "name": "E5",
          "midi": 76,
          "time": 94.39329600000028,
          "velocity": 0.4015748031496063,
          "duration": 0.06276149999999348
        },
        {
          "name": "D2",
          "midi": 38,
          "time": 94.39329600000028,
          "velocity": 0.6220472440944882,
          "duration": 0.12552299999998695
        },
        {
          "name": "D2",
          "midi": 38,
          "time": 94.64434200000026,
          "velocity": 0.6220472440944882,
          "duration": 0.12552299999998695
        },
        {
          "name": "E5",
          "midi": 76,
          "time": 94.64434200000026,
          "velocity": 0.4015748031496063,
          "duration": 0.06276149999999348
        },
        {
          "name": "E3",
          "midi": 52,
          "time": 94.89538800000025,
          "velocity": 0.7086614173228346,
          "duration": 1.5062759999999713
        },
        {
          "name": "G3",
          "midi": 55,
          "time": 94.89538800000025,
          "velocity": 0.9606299212598425,
          "duration": 1.5062759999999713
        },
        {
          "name": "A5",
          "midi": 81,
          "time": 95.14643400000026,
          "velocity": 0.4015748031496063,
          "duration": 0.06276149999999348
        },
        {
          "name": "D2",
          "midi": 38,
          "time": 95.27195700000024,
          "velocity": 0.6220472440944882,
          "duration": 0.12552300000000116
        },
        {
          "name": "E5",
          "midi": 76,
          "time": 95.89957200000025,
          "velocity": 0.4015748031496063,
          "duration": 0.06276149999999348
        },
        {
          "name": "D2",
          "midi": 38,
          "time": 95.89957200000025,
          "velocity": 0.6220472440944882,
          "duration": 0.12552299999998695
        },
        {
          "name": "D2",
          "midi": 38,
          "time": 96.15061800000024,
          "velocity": 0.6220472440944882,
          "duration": 0.12552299999998695
        },
        {
          "name": "E5",
          "midi": 76,
          "time": 96.15061800000024,
          "velocity": 0.4015748031496063,
          "duration": 0.06276149999999348
        },
        {
          "name": "E3",
          "midi": 52,
          "time": 96.40166400000022,
          "velocity": 0.7086614173228346,
          "duration": 1.5062759999999713
        },
        {
          "name": "G3",
          "midi": 55,
          "time": 96.40166400000022,
          "velocity": 0.9606299212598425,
          "duration": 1.5062759999999713
        },
        {
          "name": "A5",
          "midi": 81,
          "time": 96.65271000000023,
          "velocity": 0.4015748031496063,
          "duration": 0.06276149999999348
        },
        {
          "name": "D2",
          "midi": 38,
          "time": 96.77823300000021,
          "velocity": 0.6220472440944882,
          "duration": 0.12552300000000116
        },
        {
          "name": "E5",
          "midi": 76,
          "time": 97.40584800000022,
          "velocity": 0.4015748031496063,
          "duration": 0.06276149999999348
        },
        {
          "name": "D2",
          "midi": 38,
          "time": 97.40584800000022,
          "velocity": 0.6220472440944882,
          "duration": 0.12552299999998695
        },
        {
          "name": "D2",
          "midi": 38,
          "time": 97.65689400000021,
          "velocity": 0.6220472440944882,
          "duration": 0.12552299999998695
        },
        {
          "name": "E5",
          "midi": 76,
          "time": 97.65689400000021,
          "velocity": 0.4015748031496063,
          "duration": 0.06276149999999348
        },
        {
          "name": "E3",
          "midi": 52,
          "time": 97.9079400000002,
          "velocity": 0.7086614173228346,
          "duration": 1.5062759999999713
        },
        {
          "name": "G3",
          "midi": 55,
          "time": 97.9079400000002,
          "velocity": 0.9606299212598425,
          "duration": 1.5062759999999713
        },
        {
          "name": "A5",
          "midi": 81,
          "time": 98.1589860000002,
          "velocity": 0.4015748031496063,
          "duration": 0.06276149999999348
        },
        {
          "name": "D2",
          "midi": 38,
          "time": 98.28450900000018,
          "velocity": 0.6220472440944882,
          "duration": 0.12552300000000116
        },
        {
          "name": "D2",
          "midi": 38,
          "time": 98.91212400000019,
          "velocity": 0.6220472440944882,
          "duration": 0.12552299999998695
        },
        {
          "name": "E5",
          "midi": 76,
          "time": 98.91212400000019,
          "velocity": 0.4015748031496063,
          "duration": 0.06276149999999348
        },
        {
          "name": "D2",
          "midi": 38,
          "time": 99.16317000000018,
          "velocity": 0.6220472440944882,
          "duration": 0.12552299999998695
        },
        {
          "name": "E5",
          "midi": 76,
          "time": 99.16317000000018,
          "velocity": 0.4015748031496063,
          "duration": 0.06276149999999348
        },
        {
          "name": "E3",
          "midi": 52,
          "time": 99.41421600000017,
          "velocity": 0.7086614173228346,
          "duration": 1.5062759999999713
        },
        {
          "name": "G3",
          "midi": 55,
          "time": 99.41421600000017,
          "velocity": 0.9606299212598425,
          "duration": 1.5062759999999713
        },
        {
          "name": "A5",
          "midi": 81,
          "time": 99.66526200000017,
          "velocity": 0.4015748031496063,
          "duration": 0.06276149999999348
        },
        {
          "name": "D2",
          "midi": 38,
          "time": 99.79078500000016,
          "velocity": 0.6220472440944882,
          "duration": 0.12552300000000116
        },
        {
          "name": "D2",
          "midi": 38,
          "time": 100.41840000000016,
          "velocity": 0.6220472440944882,
          "duration": 0.12552299999998695
        },
        {
          "name": "E5",
          "midi": 76,
          "time": 100.41840000000016,
          "velocity": 0.4015748031496063,
          "duration": 0.06276149999999348
        },
        {
          "name": "E5",
          "midi": 76,
          "time": 100.66944600000015,
          "velocity": 0.4015748031496063,
          "duration": 0.06276149999999348
        },
        {
          "name": "D2",
          "midi": 38,
          "time": 100.66944600000015,
          "velocity": 0.6220472440944882,
          "duration": 0.12552299999998695
        },
        {
          "name": "E3",
          "midi": 52,
          "time": 100.92049200000014,
          "velocity": 0.7086614173228346,
          "duration": 1.5062759999999713
        },
        {
          "name": "G3",
          "midi": 55,
          "time": 100.92049200000014,
          "velocity": 0.9606299212598425,
          "duration": 1.5062759999999713
        },
        {
          "name": "A5",
          "midi": 81,
          "time": 101.17153800000014,
          "velocity": 0.4015748031496063,
          "duration": 0.06276149999999348
        },
        {
          "name": "D2",
          "midi": 38,
          "time": 101.29706100000013,
          "velocity": 0.6220472440944882,
          "duration": 0.12552300000000116
        },
        {
          "name": "E5",
          "midi": 76,
          "time": 101.92467600000013,
          "velocity": 0.4015748031496063,
          "duration": 0.06276149999999348
        },
        {
          "name": "D2",
          "midi": 38,
          "time": 101.92467600000013,
          "velocity": 0.6220472440944882,
          "duration": 0.12552299999998695
        },
        {
          "name": "D2",
          "midi": 38,
          "time": 102.17572200000012,
          "velocity": 0.6220472440944882,
          "duration": 0.12552299999998695
        },
        {
          "name": "E5",
          "midi": 76,
          "time": 102.17572200000012,
          "velocity": 0.4015748031496063,
          "duration": 0.06276149999999348
        },
        {
          "name": "G3",
          "midi": 55,
          "time": 102.42676800000011,
          "velocity": 0.9606299212598425,
          "duration": 1.5062759999999713
        },
        {
          "name": "E3",
          "midi": 52,
          "time": 102.42676800000011,
          "velocity": 0.7086614173228346,
          "duration": 1.5062759999999713
        },
        {
          "name": "A5",
          "midi": 81,
          "time": 102.67781400000011,
          "velocity": 0.4015748031496063,
          "duration": 0.06276149999999348
        },
        {
          "name": "D2",
          "midi": 38,
          "time": 102.8033370000001,
          "velocity": 0.6220472440944882,
          "duration": 0.12552300000000116
        },
        {
          "name": "E5",
          "midi": 76,
          "time": 103.4309520000001,
          "velocity": 0.4015748031496063,
          "duration": 0.06276149999999348
        },
        {
          "name": "D2",
          "midi": 38,
          "time": 103.4309520000001,
          "velocity": 0.6220472440944882,
          "duration": 0.12552299999998695
        },
        {
          "name": "E5",
          "midi": 76,
          "time": 103.68199800000009,
          "velocity": 0.4015748031496063,
          "duration": 0.06276149999999348
        },
        {
          "name": "D2",
          "midi": 38,
          "time": 103.68199800000009,
          "velocity": 0.6220472440944882,
          "duration": 0.12552299999998695
        },
        {
          "name": "G3",
          "midi": 55,
          "time": 103.93304400000008,
          "velocity": 0.9606299212598425,
          "duration": 1.5062759999999713
        },
        {
          "name": "E3",
          "midi": 52,
          "time": 103.93304400000008,
          "velocity": 0.7086614173228346,
          "duration": 1.5062759999999713
        },
        {
          "name": "A5",
          "midi": 81,
          "time": 104.18409000000008,
          "velocity": 0.4015748031496063,
          "duration": 0.06276149999999348
        },
        {
          "name": "D2",
          "midi": 38,
          "time": 104.30961300000007,
          "velocity": 0.6220472440944882,
          "duration": 0.12552300000000116
        },
        {
          "name": "E5",
          "midi": 76,
          "time": 104.93722800000008,
          "velocity": 0.4015748031496063,
          "duration": 0.06276149999999348
        },
        {
          "name": "D2",
          "midi": 38,
          "time": 104.93722800000008,
          "velocity": 0.6220472440944882,
          "duration": 0.12552299999998695
        },
        {
          "name": "E5",
          "midi": 76,
          "time": 105.18827400000006,
          "velocity": 0.4015748031496063,
          "duration": 0.06276149999999348
        },
        {
          "name": "D2",
          "midi": 38,
          "time": 105.18827400000006,
          "velocity": 0.6220472440944882,
          "duration": 0.12552299999998695
        },
        {
          "name": "E3",
          "midi": 52,
          "time": 105.43932000000005,
          "velocity": 0.7086614173228346,
          "duration": 1.5062759999999713
        },
        {
          "name": "G3",
          "midi": 55,
          "time": 105.43932000000005,
          "velocity": 0.9606299212598425,
          "duration": 1.5062759999999713
        },
        {
          "name": "A5",
          "midi": 81,
          "time": 105.69036600000005,
          "velocity": 0.4015748031496063,
          "duration": 0.06276149999999348
        },
        {
          "name": "D2",
          "midi": 38,
          "time": 105.81588900000004,
          "velocity": 0.6220472440944882,
          "duration": 0.12552300000000116
        },
        {
          "name": "D2",
          "midi": 38,
          "time": 106.44350400000005,
          "velocity": 0.6220472440944882,
          "duration": 0.12552299999998695
        },
        {
          "name": "E5",
          "midi": 76,
          "time": 106.44350400000005,
          "velocity": 0.4015748031496063,
          "duration": 0.06276149999999348
        },
        {
          "name": "E5",
          "midi": 76,
          "time": 106.69455000000004,
          "velocity": 0.4015748031496063,
          "duration": 0.06276149999999348
        },
        {
          "name": "D2",
          "midi": 38,
          "time": 106.69455000000004,
          "velocity": 0.6220472440944882,
          "duration": 0.12552299999998695
        },
        {
          "name": "E3",
          "midi": 52,
          "time": 106.94559600000002,
          "velocity": 0.7086614173228346,
          "duration": 1.5062759999999713
        },
        {
          "name": "G3",
          "midi": 55,
          "time": 106.94559600000002,
          "velocity": 0.9606299212598425,
          "duration": 1.5062759999999713
        },
        {
          "name": "A5",
          "midi": 81,
          "time": 107.19664200000003,
          "velocity": 0.4015748031496063,
          "duration": 0.06276149999999348
        },
        {
          "name": "D2",
          "midi": 38,
          "time": 107.32216500000001,
          "velocity": 0.6220472440944882,
          "duration": 0.12552300000000116
        },
        {
          "name": "E5",
          "midi": 76,
          "time": 107.94978000000002,
          "velocity": 0.7874015748031497,
          "duration": 0.06276149999999348
        },
        {
          "name": "D2",
          "midi": 38,
          "time": 107.94978000000002,
          "velocity": 0.6220472440944882,
          "duration": 0.12552299999998695
        },
        {
          "name": "D2",
          "midi": 38,
          "time": 108.200826,
          "velocity": 0.6220472440944882,
          "duration": 0.12552299999998695
        },
        {
          "name": "E5",
          "midi": 76,
          "time": 108.200826,
          "velocity": 0.7874015748031497,
          "duration": 0.06276149999999348
        }
      ],
      "controlChanges": {
        "6": [
          {
            "number": 6,
            "time": 0,
            "value": 0.09448818897637795
          },
          {
            "number": 6,
            "time": 0,
            "value": 0.09448818897637795
          },
          {
            "number": 6,
            "time": 0,
            "value": 0.09448818897637795
          },
          {
            "number": 6,
            "time": 108.451872,
            "value": 0.09448818897637795
          },
          {
            "number": 6,
            "time": 108.46233224999999,
            "value": 0.09448818897637795
          },
          {
            "number": 6,
            "time": 108.46233224999999,
            "value": 0.09448818897637795
          }
        ],
        "7": [
          {
            "number": 7,
            "time": 0,
            "value": 0.6692913385826772
          },
          {
            "number": 7,
            "time": 0,
            "value": 0.6692913385826772
          },
          {
            "number": 7,
            "time": 0,
            "value": 0.6692913385826772
          },
          {
            "number": 7,
            "time": 0,
            "value": 0.6692913385826772
          },
          {
            "number": 7,
            "time": 108.451872,
            "value": 0.6692913385826772
          },
          {
            "number": 7,
            "time": 108.46233224999999,
            "value": 0.6692913385826772
          },
          {
            "number": 7,
            "time": 108.46233224999999,
            "value": 0.6692913385826772
          }
        ],
        "10": [
          {
            "number": 10,
            "time": 0,
            "value": 0.5039370078740157
          },
          {
            "number": 10,
            "time": 0,
            "value": 0.5039370078740157
          },
          {
            "number": 10,
            "time": 0,
            "value": 0.5039370078740157
          },
          {
            "number": 10,
            "time": 0,
            "value": 0.5039370078740157
          },
          {
            "number": 10,
            "time": 108.451872,
            "value": 0.5039370078740157
          },
          {
            "number": 10,
            "time": 108.46233224999999,
            "value": 0.5039370078740157
          },
          {
            "number": 10,
            "time": 108.46233224999999,
            "value": 0.5039370078740157
          }
        ],
        "100": [
          {
            "number": 100,
            "time": 0,
            "value": 0
          },
          {
            "number": 100,
            "time": 0,
            "value": 0
          },
          {
            "number": 100,
            "time": 0,
            "value": 0
          },
          {
            "number": 100,
            "time": 108.451872,
            "value": 0
          },
          {
            "number": 100,
            "time": 108.46233224999999,
            "value": 0
          },
          {
            "number": 100,
            "time": 108.46233224999999,
            "value": 0
          }
        ],
        "101": [
          {
            "number": 101,
            "time": 0,
            "value": 0
          },
          {
            "number": 101,
            "time": 0,
            "value": 0
          },
          {
            "number": 101,
            "time": 0,
            "value": 0
          },
          {
            "number": 101,
            "time": 108.451872,
            "value": 0
          },
          {
            "number": 101,
            "time": 108.46233224999999,
            "value": 0
          },
          {
            "number": 101,
            "time": 108.46233224999999,
            "value": 0
          }
        ]
      },
      "id": 20,
      "name": "MIDI out #8",
      "instrumentNumber": 16,
      "instrument": "power kit",
      "instrumentFamily": "drums",
      "channelNumber": 9,
      "isPercussion": true
    },
    {
      "startTime": 12.050208,
      "duration": 108.32634900000066,
      "length": 773,
      "notes": [
        {
          "name": "F#3",
          "midi": 54,
          "time": 12.050208,
          "velocity": 0.8346456692913385,
          "duration": 0.12552299999999939
        },
        {
          "name": "F#2",
          "midi": 42,
          "time": 12.050208,
          "velocity": 0.6929133858267716,
          "duration": 0.12552299999999939
        },
        {
          "name": "F#2",
          "midi": 42,
          "time": 12.426777,
          "velocity": 0.6929133858267716,
          "duration": 0.12552299999999939
        },
        {
          "name": "F#3",
          "midi": 54,
          "time": 12.426777,
          "velocity": 0.8346456692913385,
          "duration": 0.12552299999999939
        },
        {
          "name": "G#2",
          "midi": 44,
          "time": 12.552299999999999,
          "velocity": 0.5905511811023622,
          "duration": 0.12552299999999939
        },
        {
          "name": "F#3",
          "midi": 54,
          "time": 12.552299999999999,
          "velocity": 0.8346456692913385,
          "duration": 0.12552299999999939
        },
        {
          "name": "F#2",
          "midi": 42,
          "time": 12.677822999999998,
          "velocity": 0.6929133858267716,
          "duration": 0.12552299999999939
        },
        {
          "name": "A#2",
          "midi": 46,
          "time": 12.803345999999998,
          "velocity": 0.6929133858267716,
          "duration": 0.12552299999999939
        },
        {
          "name": "F#3",
          "midi": 54,
          "time": 12.803345999999998,
          "velocity": 0.8346456692913385,
          "duration": 0.12552299999999939
        },
        {
          "name": "F#2",
          "midi": 42,
          "time": 12.928868999999997,
          "velocity": 0.6929133858267716,
          "duration": 0.12552299999999939
        },
        {
          "name": "F#3",
          "midi": 54,
          "time": 13.054391999999996,
          "velocity": 0.8346456692913385,
          "duration": 0.12552299999999939
        },
        {
          "name": "F#3",
          "midi": 54,
          "time": 13.305437999999995,
          "velocity": 0.8346456692913385,
          "duration": 0.12552299999999939
        },
        {
          "name": "F#3",
          "midi": 54,
          "time": 13.556483999999994,
          "velocity": 0.8346456692913385,
          "duration": 0.12552299999999939
        },
        {
          "name": "F#2",
          "midi": 42,
          "time": 13.556483999999994,
          "velocity": 0.6929133858267716,
          "duration": 0.12552299999999939
        },
        {
          "name": "F#2",
          "midi": 42,
          "time": 13.933052999999994,
          "velocity": 0.6929133858267716,
          "duration": 0.12552299999999939
        },
        {
          "name": "F#3",
          "midi": 54,
          "time": 13.933052999999994,
          "velocity": 0.8346456692913385,
          "duration": 0.12552299999999939
        },
        {
          "name": "F#3",
          "midi": 54,
          "time": 14.058575999999993,
          "velocity": 0.8346456692913385,
          "duration": 0.12552299999999939
        },
        {
          "name": "G#2",
          "midi": 44,
          "time": 14.058575999999993,
          "velocity": 0.5905511811023622,
          "duration": 0.12552299999999939
        },
        {
          "name": "F#2",
          "midi": 42,
          "time": 14.184098999999993,
          "velocity": 0.6929133858267716,
          "duration": 0.12552299999999939
        },
        {
          "name": "F#3",
          "midi": 54,
          "time": 14.309621999999992,
          "velocity": 0.8346456692913385,
          "duration": 0.12552299999999939
        },
        {
          "name": "A#2",
          "midi": 46,
          "time": 14.309621999999992,
          "velocity": 0.6929133858267716,
          "duration": 0.12552299999999939
        },
        {
          "name": "F#2",
          "midi": 42,
          "time": 14.435144999999991,
          "velocity": 0.6929133858267716,
          "duration": 0.12552299999999939
        },
        {
          "name": "F#3",
          "midi": 54,
          "time": 14.56066799999999,
          "velocity": 0.8346456692913385,
          "duration": 0.12552299999999939
        },
        {
          "name": "F#3",
          "midi": 54,
          "time": 14.81171399999999,
          "velocity": 0.8346456692913385,
          "duration": 0.12552299999999939
        },
        {
          "name": "F#3",
          "midi": 54,
          "time": 15.062759999999988,
          "velocity": 0.8346456692913385,
          "duration": 0.12552299999999939
        },
        {
          "name": "F#2",
          "midi": 42,
          "time": 15.062759999999988,
          "velocity": 0.6929133858267716,
          "duration": 0.12552299999999939
        },
        {
          "name": "F#2",
          "midi": 42,
          "time": 15.439328999999988,
          "velocity": 0.6929133858267716,
          "duration": 0.12552299999999939
        },
        {
          "name": "F#3",
          "midi": 54,
          "time": 15.439328999999988,
          "velocity": 0.8346456692913385,
          "duration": 0.12552299999999939
        },
        {
          "name": "G#2",
          "midi": 44,
          "time": 15.564851999999988,
          "velocity": 0.5905511811023622,
          "duration": 0.12552299999999939
        },
        {
          "name": "F#3",
          "midi": 54,
          "time": 15.564851999999988,
          "velocity": 0.8346456692913385,
          "duration": 0.12552299999999939
        },
        {
          "name": "F#2",
          "midi": 42,
          "time": 15.690374999999987,
          "velocity": 0.6929133858267716,
          "duration": 0.12552299999999939
        },
        {
          "name": "A#2",
          "midi": 46,
          "time": 15.815897999999986,
          "velocity": 0.6929133858267716,
          "duration": 0.12552299999999939
        },
        {
          "name": "F#3",
          "midi": 54,
          "time": 15.815897999999986,
          "velocity": 0.8346456692913385,
          "duration": 0.12552299999999939
        },
        {
          "name": "F#2",
          "midi": 42,
          "time": 15.941420999999986,
          "velocity": 0.6929133858267716,
          "duration": 0.12552299999999939
        },
        {
          "name": "F#3",
          "midi": 54,
          "time": 16.066943999999985,
          "velocity": 0.8346456692913385,
          "duration": 0.12552300000000116
        },
        {
          "name": "F#2",
          "midi": 42,
          "time": 16.569035999999986,
          "velocity": 0.6929133858267716,
          "duration": 0.12552300000000116
        },
        {
          "name": "F#3",
          "midi": 54,
          "time": 16.569035999999986,
          "velocity": 0.8346456692913385,
          "duration": 0.12552300000000116
        },
        {
          "name": "F#2",
          "midi": 42,
          "time": 16.945604999999986,
          "velocity": 0.6929133858267716,
          "duration": 0.12552300000000116
        },
        {
          "name": "F#3",
          "midi": 54,
          "time": 16.945604999999986,
          "velocity": 0.8346456692913385,
          "duration": 0.12552300000000116
        },
        {
          "name": "F#3",
          "midi": 54,
          "time": 17.071127999999987,
          "velocity": 0.8346456692913385,
          "duration": 0.12552300000000116
        },
        {
          "name": "G#2",
          "midi": 44,
          "time": 17.071127999999987,
          "velocity": 0.5905511811023622,
          "duration": 0.12552300000000116
        },
        {
          "name": "F#2",
          "midi": 42,
          "time": 17.19665099999999,
          "velocity": 0.6929133858267716,
          "duration": 0.12552300000000116
        },
        {
          "name": "A#2",
          "midi": 46,
          "time": 17.32217399999999,
          "velocity": 0.6929133858267716,
          "duration": 0.12552300000000116
        },
        {
          "name": "F#3",
          "midi": 54,
          "time": 17.32217399999999,
          "velocity": 0.8346456692913385,
          "duration": 0.12552300000000116
        },
        {
          "name": "F#2",
          "midi": 42,
          "time": 17.44769699999999,
          "velocity": 0.6929133858267716,
          "duration": 0.12552300000000116
        },
        {
          "name": "F#2",
          "midi": 42,
          "time": 18.075311999999993,
          "velocity": 0.6929133858267716,
          "duration": 0.12552300000000116
        },
        {
          "name": "F#3",
          "midi": 54,
          "time": 18.075311999999993,
          "velocity": 0.8346456692913385,
          "duration": 0.12552300000000116
        },
        {
          "name": "F#3",
          "midi": 54,
          "time": 18.451880999999993,
          "velocity": 0.8346456692913385,
          "duration": 0.12552300000000116
        },
        {
          "name": "F#2",
          "midi": 42,
          "time": 18.451880999999993,
          "velocity": 0.6929133858267716,
          "duration": 0.12552300000000116
        },
        {
          "name": "F#3",
          "midi": 54,
          "time": 18.577403999999994,
          "velocity": 0.8346456692913385,
          "duration": 0.12552300000000116
        },
        {
          "name": "G#2",
          "midi": 44,
          "time": 18.577403999999994,
          "velocity": 0.5905511811023622,
          "duration": 0.12552300000000116
        },
        {
          "name": "F#2",
          "midi": 42,
          "time": 18.702926999999995,
          "velocity": 0.6929133858267716,
          "duration": 0.12552300000000116
        },
        {
          "name": "F#3",
          "midi": 54,
          "time": 18.828449999999997,
          "velocity": 0.8346456692913385,
          "duration": 0.12552300000000116
        },
        {
          "name": "A#2",
          "midi": 46,
          "time": 18.828449999999997,
          "velocity": 0.6929133858267716,
          "duration": 0.12552300000000116
        },
        {
          "name": "F#2",
          "midi": 42,
          "time": 18.953972999999998,
          "velocity": 0.6929133858267716,
          "duration": 0.12552300000000116
        },
        {
          "name": "F#3",
          "midi": 54,
          "time": 19.581588,
          "velocity": 0.8346456692913385,
          "duration": 0.12552300000000116
        },
        {
          "name": "F#2",
          "midi": 42,
          "time": 19.581588,
          "velocity": 0.6929133858267716,
          "duration": 0.12552300000000116
        },
        {
          "name": "F#3",
          "midi": 54,
          "time": 19.958157,
          "velocity": 0.8346456692913385,
          "duration": 0.12552300000000116
        },
        {
          "name": "F#2",
          "midi": 42,
          "time": 19.958157,
          "velocity": 0.6929133858267716,
          "duration": 0.12552300000000116
        },
        {
          "name": "F#3",
          "midi": 54,
          "time": 20.08368,
          "velocity": 0.8346456692913385,
          "duration": 0.12552300000000116
        },
        {
          "name": "G#2",
          "midi": 44,
          "time": 20.08368,
          "velocity": 0.5905511811023622,
          "duration": 0.12552300000000116
        },
        {
          "name": "F#2",
          "midi": 42,
          "time": 20.209203000000002,
          "velocity": 0.6929133858267716,
          "duration": 0.12552300000000116
        },
        {
          "name": "F#3",
          "midi": 54,
          "time": 20.334726000000003,
          "velocity": 0.8346456692913385,
          "duration": 0.12552300000000116
        },
        {
          "name": "A#2",
          "midi": 46,
          "time": 20.334726000000003,
          "velocity": 0.6929133858267716,
          "duration": 0.12552300000000116
        },
        {
          "name": "F#2",
          "midi": 42,
          "time": 20.460249000000005,
          "velocity": 0.6929133858267716,
          "duration": 0.12552300000000116
        },
        {
          "name": "F#3",
          "midi": 54,
          "time": 21.087864000000007,
          "velocity": 0.8346456692913385,
          "duration": 0.12552300000000116
        },
        {
          "name": "F#2",
          "midi": 42,
          "time": 21.087864000000007,
          "velocity": 0.6929133858267716,
          "duration": 0.12552300000000116
        },
        {
          "name": "F#3",
          "midi": 54,
          "time": 21.464433000000007,
          "velocity": 0.8346456692913385,
          "duration": 0.12552300000000116
        },
        {
          "name": "F#2",
          "midi": 42,
          "time": 21.464433000000007,
          "velocity": 0.6929133858267716,
          "duration": 0.12552300000000116
        },
        {
          "name": "F#3",
          "midi": 54,
          "time": 21.589956000000008,
          "velocity": 0.8346456692913385,
          "duration": 0.12552300000000116
        },
        {
          "name": "G#2",
          "midi": 44,
          "time": 21.589956000000008,
          "velocity": 0.5905511811023622,
          "duration": 0.12552300000000116
        },
        {
          "name": "F#2",
          "midi": 42,
          "time": 21.71547900000001,
          "velocity": 0.6929133858267716,
          "duration": 0.12552300000000116
        },
        {
          "name": "F#3",
          "midi": 54,
          "time": 21.84100200000001,
          "velocity": 0.8346456692913385,
          "duration": 0.12552300000000116
        },
        {
          "name": "A#2",
          "midi": 46,
          "time": 21.84100200000001,
          "velocity": 0.6929133858267716,
          "duration": 0.12552300000000116
        },
        {
          "name": "F#2",
          "midi": 42,
          "time": 21.96652500000001,
          "velocity": 0.6929133858267716,
          "duration": 0.12552300000000116
        },
        {
          "name": "F#2",
          "midi": 42,
          "time": 22.594140000000014,
          "velocity": 0.6929133858267716,
          "duration": 0.12552300000000116
        },
        {
          "name": "F#3",
          "midi": 54,
          "time": 22.594140000000014,
          "velocity": 0.8346456692913385,
          "duration": 0.12552300000000116
        },
        {
          "name": "F#2",
          "midi": 42,
          "time": 22.970709000000014,
          "velocity": 0.6929133858267716,
          "duration": 0.12552300000000116
        },
        {
          "name": "F#3",
          "midi": 54,
          "time": 22.970709000000014,
          "velocity": 0.8346456692913385,
          "duration": 0.12552300000000116
        },
        {
          "name": "F#3",
          "midi": 54,
          "time": 23.096232000000015,
          "velocity": 0.8346456692913385,
          "duration": 0.12552300000000116
        },
        {
          "name": "G#2",
          "midi": 44,
          "time": 23.096232000000015,
          "velocity": 0.5905511811023622,
          "duration": 0.12552300000000116
        },
        {
          "name": "F#2",
          "midi": 42,
          "time": 23.221755000000016,
          "velocity": 0.6929133858267716,
          "duration": 0.12552300000000116
        },
        {
          "name": "A#2",
          "midi": 46,
          "time": 23.347278000000017,
          "velocity": 0.6929133858267716,
          "duration": 0.12552300000000116
        },
        {
          "name": "F#3",
          "midi": 54,
          "time": 23.347278000000017,
          "velocity": 0.8346456692913385,
          "duration": 0.12552300000000116
        },
        {
          "name": "F#2",
          "midi": 42,
          "time": 23.47280100000002,
          "velocity": 0.6929133858267716,
          "duration": 0.12552300000000116
        },
        {
          "name": "F#3",
          "midi": 54,
          "time": 24.10041600000002,
          "velocity": 0.8346456692913385,
          "duration": 0.12552300000000116
        },
        {
          "name": "F#2",
          "midi": 42,
          "time": 24.10041600000002,
          "velocity": 0.6929133858267716,
          "duration": 0.12552300000000116
        },
        {
          "name": "F#3",
          "midi": 54,
          "time": 24.47698500000002,
          "velocity": 0.8346456692913385,
          "duration": 0.12552300000000116
        },
        {
          "name": "F#2",
          "midi": 42,
          "time": 24.47698500000002,
          "velocity": 0.6929133858267716,
          "duration": 0.12552300000000116
        },
        {
          "name": "F#3",
          "midi": 54,
          "time": 24.60250800000002,
          "velocity": 0.8346456692913385,
          "duration": 0.12552300000000116
        },
        {
          "name": "G#2",
          "midi": 44,
          "time": 24.60250800000002,
          "velocity": 0.5905511811023622,
          "duration": 0.12552300000000116
        },
        {
          "name": "F#2",
          "midi": 42,
          "time": 24.728031000000023,
          "velocity": 0.6929133858267716,
          "duration": 0.12552300000000116
        },
        {
          "name": "F#3",
          "midi": 54,
          "time": 24.853554000000024,
          "velocity": 0.8346456692913385,
          "duration": 0.12552300000000116
        },
        {
          "name": "A#2",
          "midi": 46,
          "time": 24.853554000000024,
          "velocity": 0.6929133858267716,
          "duration": 0.12552300000000116
        },
        {
          "name": "F#2",
          "midi": 42,
          "time": 24.979077000000025,
          "velocity": 0.6929133858267716,
          "duration": 0.12552300000000116
        },
        {
          "name": "F#2",
          "midi": 42,
          "time": 25.606692000000027,
          "velocity": 0.6929133858267716,
          "duration": 0.12552300000000116
        },
        {
          "name": "F#3",
          "midi": 54,
          "time": 25.606692000000027,
          "velocity": 0.8346456692913385,
          "duration": 0.12552300000000116
        },
        {
          "name": "F#2",
          "midi": 42,
          "time": 25.983261000000027,
          "velocity": 0.6929133858267716,
          "duration": 0.12552300000000116
        },
        {
          "name": "F#3",
          "midi": 54,
          "time": 25.983261000000027,
          "velocity": 0.8346456692913385,
          "duration": 0.12552300000000116
        },
        {
          "name": "G#2",
          "midi": 44,
          "time": 26.10878400000003,
          "velocity": 0.5905511811023622,
          "duration": 0.12552300000000116
        },
        {
          "name": "F#3",
          "midi": 54,
          "time": 26.10878400000003,
          "velocity": 0.8346456692913385,
          "duration": 0.12552300000000116
        },
        {
          "name": "F#2",
          "midi": 42,
          "time": 26.23430700000003,
          "velocity": 0.6929133858267716,
          "duration": 0.12552300000000116
        },
        {
          "name": "F#3",
          "midi": 54,
          "time": 26.35983000000003,
          "velocity": 0.8346456692913385,
          "duration": 0.12552300000000116
        },
        {
          "name": "A#2",
          "midi": 46,
          "time": 26.35983000000003,
          "velocity": 0.6929133858267716,
          "duration": 0.12552300000000116
        },
        {
          "name": "F#2",
          "midi": 42,
          "time": 26.485353000000032,
          "velocity": 0.6929133858267716,
          "duration": 0.12552300000000116
        },
        {
          "name": "F#3",
          "midi": 54,
          "time": 30.125520000000034,
          "velocity": 0.8346456692913385,
          "duration": 0.12552300000000116
        },
        {
          "name": "F#2",
          "midi": 42,
          "time": 30.125520000000034,
          "velocity": 0.6929133858267716,
          "duration": 0.12552300000000116
        },
        {
          "name": "F#2",
          "midi": 42,
          "time": 30.502089000000034,
          "velocity": 0.6929133858267716,
          "duration": 0.12552300000000116
        },
        {
          "name": "F#3",
          "midi": 54,
          "time": 30.502089000000034,
          "velocity": 0.8346456692913385,
          "duration": 0.12552300000000116
        },
        {
          "name": "G#2",
          "midi": 44,
          "time": 30.627612000000035,
          "velocity": 0.5905511811023622,
          "duration": 0.12552300000000116
        },
        {
          "name": "F#3",
          "midi": 54,
          "time": 30.627612000000035,
          "velocity": 0.8346456692913385,
          "duration": 0.12552300000000116
        },
        {
          "name": "F#2",
          "midi": 42,
          "time": 30.753135000000036,
          "velocity": 0.6929133858267716,
          "duration": 0.12552300000000116
        },
        {
          "name": "A#2",
          "midi": 46,
          "time": 30.878658000000037,
          "velocity": 0.6929133858267716,
          "duration": 0.12552300000000116
        },
        {
          "name": "F#3",
          "midi": 54,
          "time": 30.878658000000037,
          "velocity": 0.8346456692913385,
          "duration": 0.12552300000000116
        },
        {
          "name": "F#2",
          "midi": 42,
          "time": 31.004181000000038,
          "velocity": 0.6929133858267716,
          "duration": 0.12552300000000116
        },
        {
          "name": "F#3",
          "midi": 54,
          "time": 31.12970400000004,
          "velocity": 0.8346456692913385,
          "duration": 0.12552300000000116
        },
        {
          "name": "F#3",
          "midi": 54,
          "time": 31.38075000000004,
          "velocity": 0.8346456692913385,
          "duration": 0.12552300000000116
        },
        {
          "name": "F#2",
          "midi": 42,
          "time": 31.631796000000044,
          "velocity": 0.6929133858267716,
          "duration": 0.12552300000000116
        },
        {
          "name": "F#3",
          "midi": 54,
          "time": 31.631796000000044,
          "velocity": 0.8346456692913385,
          "duration": 0.12552300000000116
        },
        {
          "name": "F#2",
          "midi": 42,
          "time": 32.00836500000005,
          "velocity": 0.6929133858267716,
          "duration": 0.12552300000000116
        },
        {
          "name": "F#3",
          "midi": 54,
          "time": 32.00836500000005,
          "velocity": 0.8346456692913385,
          "duration": 0.12552300000000116
        },
        {
          "name": "F#3",
          "midi": 54,
          "time": 32.13388800000005,
          "velocity": 0.8346456692913385,
          "duration": 0.12552300000000116
        },
        {
          "name": "G#2",
          "midi": 44,
          "time": 32.13388800000005,
          "velocity": 0.5905511811023622,
          "duration": 0.12552300000000116
        },
        {
          "name": "F#2",
          "midi": 42,
          "time": 32.25941100000005,
          "velocity": 0.6929133858267716,
          "duration": 0.12552300000000116
        },
        {
          "name": "F#3",
          "midi": 54,
          "time": 32.38493400000005,
          "velocity": 0.8346456692913385,
          "duration": 0.12552300000000116
        },
        {
          "name": "A#2",
          "midi": 46,
          "time": 32.38493400000005,
          "velocity": 0.6929133858267716,
          "duration": 0.12552300000000116
        },
        {
          "name": "F#2",
          "midi": 42,
          "time": 32.51045700000005,
          "velocity": 0.6929133858267716,
          "duration": 0.12552300000000116
        },
        {
          "name": "F#3",
          "midi": 54,
          "time": 32.63598000000005,
          "velocity": 0.8346456692913385,
          "duration": 0.12552300000000116
        },
        {
          "name": "F#3",
          "midi": 54,
          "time": 32.887026000000056,
          "velocity": 0.8346456692913385,
          "duration": 0.12552300000000116
        },
        {
          "name": "F#2",
          "midi": 42,
          "time": 33.13807200000006,
          "velocity": 0.6929133858267716,
          "duration": 0.12552300000000116
        },
        {
          "name": "F#3",
          "midi": 54,
          "time": 33.13807200000006,
          "velocity": 0.8346456692913385,
          "duration": 0.12552300000000116
        },
        {
          "name": "F#3",
          "midi": 54,
          "time": 33.51464100000006,
          "velocity": 0.8346456692913385,
          "duration": 0.12552300000000116
        },
        {
          "name": "F#2",
          "midi": 42,
          "time": 33.51464100000006,
          "velocity": 0.6929133858267716,
          "duration": 0.12552300000000116
        },
        {
          "name": "F#3",
          "midi": 54,
          "time": 33.64016400000006,
          "velocity": 0.8346456692913385,
          "duration": 0.12552300000000116
        },
        {
          "name": "G#2",
          "midi": 44,
          "time": 33.64016400000006,
          "velocity": 0.5905511811023622,
          "duration": 0.12552300000000116
        },
        {
          "name": "F#2",
          "midi": 42,
          "time": 33.765687000000064,
          "velocity": 0.6929133858267716,
          "duration": 0.12552300000000116
        },
        {
          "name": "F#3",
          "midi": 54,
          "time": 33.891210000000065,
          "velocity": 0.8346456692913385,
          "duration": 0.12552300000000116
        },
        {
          "name": "A#2",
          "midi": 46,
          "time": 33.891210000000065,
          "velocity": 0.6929133858267716,
          "duration": 0.12552300000000116
        },
        {
          "name": "F#2",
          "midi": 42,
          "time": 34.016733000000066,
          "velocity": 0.6929133858267716,
          "duration": 0.12552300000000116
        },
        {
          "name": "F#3",
          "midi": 54,
          "time": 34.14225600000007,
          "velocity": 0.8346456692913385,
          "duration": 0.12552300000000116
        },
        {
          "name": "F#3",
          "midi": 54,
          "time": 34.39330200000007,
          "velocity": 0.8346456692913385,
          "duration": 0.12552300000000116
        },
        {
          "name": "F#3",
          "midi": 54,
          "time": 34.64434800000007,
          "velocity": 0.8346456692913385,
          "duration": 0.12552300000000116
        },
        {
          "name": "F#2",
          "midi": 42,
          "time": 34.64434800000007,
          "velocity": 0.6929133858267716,
          "duration": 0.12552300000000116
        },
        {
          "name": "F#3",
          "midi": 54,
          "time": 35.020917000000075,
          "velocity": 0.8346456692913385,
          "duration": 0.12552300000000116
        },
        {
          "name": "F#2",
          "midi": 42,
          "time": 35.020917000000075,
          "velocity": 0.6929133858267716,
          "duration": 0.12552300000000116
        },
        {
          "name": "G#2",
          "midi": 44,
          "time": 35.14644000000008,
          "velocity": 0.5905511811023622,
          "duration": 0.12552300000000116
        },
        {
          "name": "F#3",
          "midi": 54,
          "time": 35.14644000000008,
          "velocity": 0.8346456692913385,
          "duration": 0.12552300000000116
        },
        {
          "name": "F#2",
          "midi": 42,
          "time": 35.27196300000008,
          "velocity": 0.6929133858267716,
          "duration": 0.12552300000000116
        },
        {
          "name": "A#2",
          "midi": 46,
          "time": 35.39748600000008,
          "velocity": 0.6929133858267716,
          "duration": 0.12552300000000116
        },
        {
          "name": "F#3",
          "midi": 54,
          "time": 35.39748600000008,
          "velocity": 0.8346456692913385,
          "duration": 0.12552300000000116
        },
        {
          "name": "F#2",
          "midi": 42,
          "time": 35.52300900000008,
          "velocity": 0.6929133858267716,
          "duration": 0.12552300000000116
        },
        {
          "name": "F#3",
          "midi": 54,
          "time": 35.64853200000008,
          "velocity": 0.8346456692913385,
          "duration": 0.12552300000000116
        },
        {
          "name": "F#3",
          "midi": 54,
          "time": 35.89957800000008,
          "velocity": 0.8346456692913385,
          "duration": 0.12552300000000116
        },
        {
          "name": "F#3",
          "midi": 54,
          "time": 36.150624000000086,
          "velocity": 0.8346456692913385,
          "duration": 0.12552300000000116
        },
        {
          "name": "F#2",
          "midi": 42,
          "time": 36.150624000000086,
          "velocity": 0.6929133858267716,
          "duration": 0.12552300000000116
        },
        {
          "name": "F#2",
          "midi": 42,
          "time": 36.52719300000009,
          "velocity": 0.6929133858267716,
          "duration": 0.12552300000000116
        },
        {
          "name": "F#3",
          "midi": 54,
          "time": 36.52719300000009,
          "velocity": 0.8346456692913385,
          "duration": 0.12552300000000116
        },
        {
          "name": "F#3",
          "midi": 54,
          "time": 36.65271600000009,
          "velocity": 0.8346456692913385,
          "duration": 0.12552300000000116
        },
        {
          "name": "G#2",
          "midi": 44,
          "time": 36.65271600000009,
          "velocity": 0.5905511811023622,
          "duration": 0.12552300000000116
        },
        {
          "name": "F#2",
          "midi": 42,
          "time": 36.77823900000009,
          "velocity": 0.6929133858267716,
          "duration": 0.12552300000000116
        },
        {
          "name": "F#3",
          "midi": 54,
          "time": 36.90376200000009,
          "velocity": 0.8346456692913385,
          "duration": 0.12552300000000116
        },
        {
          "name": "A#2",
          "midi": 46,
          "time": 36.90376200000009,
          "velocity": 0.6929133858267716,
          "duration": 0.12552300000000116
        },
        {
          "name": "F#2",
          "midi": 42,
          "time": 37.029285000000094,
          "velocity": 0.6929133858267716,
          "duration": 0.12552300000000116
        },
        {
          "name": "F#3",
          "midi": 54,
          "time": 37.154808000000095,
          "velocity": 0.8346456692913385,
          "duration": 0.12552300000000116
        },
        {
          "name": "F#3",
          "midi": 54,
          "time": 37.4058540000001,
          "velocity": 0.8346456692913385,
          "duration": 0.12552300000000116
        },
        {
          "name": "F#2",
          "midi": 42,
          "time": 37.6569000000001,
          "velocity": 0.6929133858267716,
          "duration": 0.12552300000000116
        },
        {
          "name": "F#3",
          "midi": 54,
          "time": 37.6569000000001,
          "velocity": 0.8346456692913385,
          "duration": 0.12552300000000116
        },
        {
          "name": "F#3",
          "midi": 54,
          "time": 38.0334690000001,
          "velocity": 0.8346456692913385,
          "duration": 0.12552300000000116
        },
        {
          "name": "F#2",
          "midi": 42,
          "time": 38.0334690000001,
          "velocity": 0.6929133858267716,
          "duration": 0.12552300000000116
        },
        {
          "name": "G#2",
          "midi": 44,
          "time": 38.158992000000104,
          "velocity": 0.5905511811023622,
          "duration": 0.12552300000000116
        },
        {
          "name": "F#3",
          "midi": 54,
          "time": 38.158992000000104,
          "velocity": 0.8346456692913385,
          "duration": 0.12552300000000116
        },
        {
          "name": "F#2",
          "midi": 42,
          "time": 38.284515000000106,
          "velocity": 0.6929133858267716,
          "duration": 0.12552300000000116
        },
        {
          "name": "A#2",
          "midi": 46,
          "time": 38.41003800000011,
          "velocity": 0.6929133858267716,
          "duration": 0.12552300000000116
        },
        {
          "name": "F#3",
          "midi": 54,
          "time": 38.41003800000011,
          "velocity": 0.8346456692913385,
          "duration": 0.12552300000000116
        },
        {
          "name": "F#2",
          "midi": 42,
          "time": 38.53556100000011,
          "velocity": 0.6929133858267716,
          "duration": 0.12552300000000116
        },
        {
          "name": "F#3",
          "midi": 54,
          "time": 38.66108400000011,
          "velocity": 0.8346456692913385,
          "duration": 0.12552300000000116
        },
        {
          "name": "F#3",
          "midi": 54,
          "time": 38.91213000000011,
          "velocity": 0.8346456692913385,
          "duration": 0.12552300000000116
        },
        {
          "name": "F#3",
          "midi": 54,
          "time": 39.163176000000114,
          "velocity": 0.8346456692913385,
          "duration": 0.12552300000000116
        },
        {
          "name": "F#2",
          "midi": 42,
          "time": 39.163176000000114,
          "velocity": 0.6929133858267716,
          "duration": 0.12552300000000116
        },
        {
          "name": "F#3",
          "midi": 54,
          "time": 39.53974500000012,
          "velocity": 0.8346456692913385,
          "duration": 0.12552300000000116
        },
        {
          "name": "F#2",
          "midi": 42,
          "time": 39.53974500000012,
          "velocity": 0.6929133858267716,
          "duration": 0.12552300000000116
        },
        {
          "name": "G#2",
          "midi": 44,
          "time": 39.66526800000012,
          "velocity": 0.5905511811023622,
          "duration": 0.12552300000000116
        },
        {
          "name": "F#3",
          "midi": 54,
          "time": 39.66526800000012,
          "velocity": 0.8346456692913385,
          "duration": 0.12552300000000116
        },
        {
          "name": "F#2",
          "midi": 42,
          "time": 39.79079100000012,
          "velocity": 0.6929133858267716,
          "duration": 0.12552300000000116
        },
        {
          "name": "F#3",
          "midi": 54,
          "time": 39.91631400000012,
          "velocity": 0.8346456692913385,
          "duration": 0.12552300000000116
        },
        {
          "name": "A#2",
          "midi": 46,
          "time": 39.91631400000012,
          "velocity": 0.6929133858267716,
          "duration": 0.12552300000000116
        },
        {
          "name": "F#2",
          "midi": 42,
          "time": 40.04183700000012,
          "velocity": 0.6929133858267716,
          "duration": 0.12552300000000116
        },
        {
          "name": "F#3",
          "midi": 54,
          "time": 40.16736000000012,
          "velocity": 0.8346456692913385,
          "duration": 0.12552300000000116
        },
        {
          "name": "F#3",
          "midi": 54,
          "time": 40.418406000000125,
          "velocity": 0.8346456692913385,
          "duration": 0.12552300000000116
        },
        {
          "name": "F#3",
          "midi": 54,
          "time": 40.66945200000013,
          "velocity": 0.8346456692913385,
          "duration": 0.12552300000000116
        },
        {
          "name": "F#2",
          "midi": 42,
          "time": 40.66945200000013,
          "velocity": 0.6929133858267716,
          "duration": 0.12552300000000116
        },
        {
          "name": "F#3",
          "midi": 54,
          "time": 41.04602100000013,
          "velocity": 0.8346456692913385,
          "duration": 0.12552300000000116
        },
        {
          "name": "F#2",
          "midi": 42,
          "time": 41.04602100000013,
          "velocity": 0.6929133858267716,
          "duration": 0.12552300000000116
        },
        {
          "name": "F#3",
          "midi": 54,
          "time": 41.17154400000013,
          "velocity": 0.8346456692913385,
          "duration": 0.12552300000000116
        },
        {
          "name": "G#2",
          "midi": 44,
          "time": 41.17154400000013,
          "velocity": 0.5905511811023622,
          "duration": 0.12552300000000116
        },
        {
          "name": "F#2",
          "midi": 42,
          "time": 41.29706700000013,
          "velocity": 0.6929133858267716,
          "duration": 0.12552300000000116
        },
        {
          "name": "F#3",
          "midi": 54,
          "time": 41.422590000000135,
          "velocity": 0.8346456692913385,
          "duration": 0.12552300000000116
        },
        {
          "name": "A#2",
          "midi": 46,
          "time": 41.422590000000135,
          "velocity": 0.6929133858267716,
          "duration": 0.12552300000000116
        },
        {
          "name": "F#2",
          "midi": 42,
          "time": 41.548113000000136,
          "velocity": 0.6929133858267716,
          "duration": 0.12552300000000116
        },
        {
          "name": "F#3",
          "midi": 54,
          "time": 41.67363600000014,
          "velocity": 0.8346456692913385,
          "duration": 0.12552300000000116
        },
        {
          "name": "F#3",
          "midi": 54,
          "time": 41.92468200000014,
          "velocity": 0.8346456692913385,
          "duration": 0.12552300000000116
        },
        {
          "name": "F#3",
          "midi": 54,
          "time": 42.17572800000014,
          "velocity": 0.8346456692913385,
          "duration": 0.12552300000000116
        },
        {
          "name": "F#2",
          "midi": 42,
          "time": 42.17572800000014,
          "velocity": 0.6929133858267716,
          "duration": 0.12552300000000116
        },
        {
          "name": "F#3",
          "midi": 54,
          "time": 42.552297000000145,
          "velocity": 0.8346456692913385,
          "duration": 0.12552300000000116
        },
        {
          "name": "F#2",
          "midi": 42,
          "time": 42.552297000000145,
          "velocity": 0.6929133858267716,
          "duration": 0.12552300000000116
        },
        {
          "name": "F#3",
          "midi": 54,
          "time": 42.677820000000146,
          "velocity": 0.8346456692913385,
          "duration": 0.12552300000000116
        },
        {
          "name": "G#2",
          "midi": 44,
          "time": 42.677820000000146,
          "velocity": 0.5905511811023622,
          "duration": 0.12552300000000116
        },
        {
          "name": "F#2",
          "midi": 42,
          "time": 42.80334300000015,
          "velocity": 0.6929133858267716,
          "duration": 0.12552300000000116
        },
        {
          "name": "F#3",
          "midi": 54,
          "time": 42.92886600000015,
          "velocity": 0.8346456692913385,
          "duration": 0.12552300000000116
        },
        {
          "name": "A#2",
          "midi": 46,
          "time": 42.92886600000015,
          "velocity": 0.6929133858267716,
          "duration": 0.12552300000000116
        },
        {
          "name": "F#2",
          "midi": 42,
          "time": 43.05438900000015,
          "velocity": 0.6929133858267716,
          "duration": 0.12552300000000116
        },
        {
          "name": "F#3",
          "midi": 54,
          "time": 43.17991200000015,
          "velocity": 0.8346456692913385,
          "duration": 0.12552300000000116
        },
        {
          "name": "F#3",
          "midi": 54,
          "time": 43.43095800000015,
          "velocity": 0.8346456692913385,
          "duration": 0.12552300000000116
        },
        {
          "name": "F#3",
          "midi": 54,
          "time": 43.682004000000155,
          "velocity": 0.8346456692913385,
          "duration": 0.12552300000000116
        },
        {
          "name": "F#2",
          "midi": 42,
          "time": 43.682004000000155,
          "velocity": 0.6929133858267716,
          "duration": 0.12552300000000116
        },
        {
          "name": "F#3",
          "midi": 54,
          "time": 44.05857300000016,
          "velocity": 0.8346456692913385,
          "duration": 0.12552300000000116
        },
        {
          "name": "F#2",
          "midi": 42,
          "time": 44.05857300000016,
          "velocity": 0.6929133858267716,
          "duration": 0.12552300000000116
        },
        {
          "name": "F#3",
          "midi": 54,
          "time": 44.18409600000016,
          "velocity": 0.8346456692913385,
          "duration": 0.12552300000000116
        },
        {
          "name": "G#2",
          "midi": 44,
          "time": 44.18409600000016,
          "velocity": 0.5905511811023622,
          "duration": 0.12552300000000116
        },
        {
          "name": "F#2",
          "midi": 42,
          "time": 44.30961900000016,
          "velocity": 0.6929133858267716,
          "duration": 0.12552300000000116
        },
        {
          "name": "F#3",
          "midi": 54,
          "time": 44.43514200000016,
          "velocity": 0.8346456692913385,
          "duration": 0.12552300000000116
        },
        {
          "name": "A#2",
          "midi": 46,
          "time": 44.43514200000016,
          "velocity": 0.6929133858267716,
          "duration": 0.12552300000000116
        },
        {
          "name": "F#2",
          "midi": 42,
          "time": 44.560665000000164,
          "velocity": 0.6929133858267716,
          "duration": 0.12552300000000116
        },
        {
          "name": "F#3",
          "midi": 54,
          "time": 44.686188000000165,
          "velocity": 0.8346456692913385,
          "duration": 0.12552300000000116
        },
        {
          "name": "F#3",
          "midi": 54,
          "time": 44.93723400000017,
          "velocity": 0.8346456692913385,
          "duration": 0.12552300000000116
        },
        {
          "name": "F#3",
          "midi": 54,
          "time": 45.18828000000017,
          "velocity": 0.8346456692913385,
          "duration": 0.12552300000000116
        },
        {
          "name": "F#2",
          "midi": 42,
          "time": 45.18828000000017,
          "velocity": 0.6929133858267716,
          "duration": 0.12552300000000116
        },
        {
          "name": "F#3",
          "midi": 54,
          "time": 45.56484900000017,
          "velocity": 0.8346456692913385,
          "duration": 0.12552300000000116
        },
        {
          "name": "F#2",
          "midi": 42,
          "time": 45.56484900000017,
          "velocity": 0.6929133858267716,
          "duration": 0.12552300000000116
        },
        {
          "name": "G#2",
          "midi": 44,
          "time": 45.690372000000174,
          "velocity": 0.5905511811023622,
          "duration": 0.12552300000000116
        },
        {
          "name": "F#3",
          "midi": 54,
          "time": 45.690372000000174,
          "velocity": 0.8346456692913385,
          "duration": 0.12552300000000116
        },
        {
          "name": "F#2",
          "midi": 42,
          "time": 45.815895000000175,
          "velocity": 0.6929133858267716,
          "duration": 0.12552300000000116
        },
        {
          "name": "F#3",
          "midi": 54,
          "time": 45.941418000000176,
          "velocity": 0.8346456692913385,
          "duration": 0.12552300000000116
        },
        {
          "name": "A#2",
          "midi": 46,
          "time": 45.941418000000176,
          "velocity": 0.6929133858267716,
          "duration": 0.12552300000000116
        },
        {
          "name": "F#2",
          "midi": 42,
          "time": 46.06694100000018,
          "velocity": 0.6929133858267716,
          "duration": 0.12552300000000116
        },
        {
          "name": "F#3",
          "midi": 54,
          "time": 46.19246400000018,
          "velocity": 0.8346456692913385,
          "duration": 0.12552300000000116
        },
        {
          "name": "F#3",
          "midi": 54,
          "time": 46.44351000000018,
          "velocity": 0.8346456692913385,
          "duration": 0.12552300000000116
        },
        {
          "name": "F#2",
          "midi": 42,
          "time": 46.69455600000018,
          "velocity": 0.6929133858267716,
          "duration": 0.12552300000000116
        },
        {
          "name": "F#3",
          "midi": 54,
          "time": 46.69455600000018,
          "velocity": 0.8346456692913385,
          "duration": 0.12552300000000116
        },
        {
          "name": "F#2",
          "midi": 42,
          "time": 47.07112500000019,
          "velocity": 0.6929133858267716,
          "duration": 0.12552300000000116
        },
        {
          "name": "F#3",
          "midi": 54,
          "time": 47.07112500000019,
          "velocity": 0.8346456692913385,
          "duration": 0.12552300000000116
        },
        {
          "name": "F#3",
          "midi": 54,
          "time": 47.19664800000019,
          "velocity": 0.8346456692913385,
          "duration": 0.12552300000000116
        },
        {
          "name": "G#2",
          "midi": 44,
          "time": 47.19664800000019,
          "velocity": 0.5905511811023622,
          "duration": 0.12552300000000116
        },
        {
          "name": "F#2",
          "midi": 42,
          "time": 47.32217100000019,
          "velocity": 0.6929133858267716,
          "duration": 0.12552300000000116
        },
        {
          "name": "F#3",
          "midi": 54,
          "time": 47.44769400000019,
          "velocity": 0.8346456692913385,
          "duration": 0.12552300000000116
        },
        {
          "name": "A#2",
          "midi": 46,
          "time": 47.44769400000019,
          "velocity": 0.6929133858267716,
          "duration": 0.12552300000000116
        },
        {
          "name": "F#2",
          "midi": 42,
          "time": 47.57321700000019,
          "velocity": 0.6929133858267716,
          "duration": 0.12552300000000116
        },
        {
          "name": "F#3",
          "midi": 54,
          "time": 47.69874000000019,
          "velocity": 0.8346456692913385,
          "duration": 0.12552300000000116
        },
        {
          "name": "F#3",
          "midi": 54,
          "time": 47.949786000000195,
          "velocity": 0.8346456692913385,
          "duration": 0.12552300000000116
        },
        {
          "name": "F#2",
          "midi": 42,
          "time": 48.2008320000002,
          "velocity": 0.6929133858267716,
          "duration": 0.12552300000000116
        },
        {
          "name": "F#3",
          "midi": 54,
          "time": 48.2008320000002,
          "velocity": 0.8346456692913385,
          "duration": 0.12552300000000116
        },
        {
          "name": "F#2",
          "midi": 42,
          "time": 48.5774010000002,
          "velocity": 0.6929133858267716,
          "duration": 0.12552300000000116
        },
        {
          "name": "F#3",
          "midi": 54,
          "time": 48.5774010000002,
          "velocity": 0.8346456692913385,
          "duration": 0.12552300000000116
        },
        {
          "name": "G#2",
          "midi": 44,
          "time": 48.7029240000002,
          "velocity": 0.5905511811023622,
          "duration": 0.12552300000000116
        },
        {
          "name": "F#3",
          "midi": 54,
          "time": 48.7029240000002,
          "velocity": 0.8346456692913385,
          "duration": 0.12552300000000116
        },
        {
          "name": "F#2",
          "midi": 42,
          "time": 48.8284470000002,
          "velocity": 0.6929133858267716,
          "duration": 0.12552300000000116
        },
        {
          "name": "A#2",
          "midi": 46,
          "time": 48.953970000000204,
          "velocity": 0.6929133858267716,
          "duration": 0.12552300000000116
        },
        {
          "name": "F#3",
          "midi": 54,
          "time": 48.953970000000204,
          "velocity": 0.8346456692913385,
          "duration": 0.12552300000000116
        },
        {
          "name": "F#2",
          "midi": 42,
          "time": 49.079493000000205,
          "velocity": 0.6929133858267716,
          "duration": 0.12552300000000116
        },
        {
          "name": "F#3",
          "midi": 54,
          "time": 49.20501600000021,
          "velocity": 0.8346456692913385,
          "duration": 0.12552300000000116
        },
        {
          "name": "F#3",
          "midi": 54,
          "time": 49.45606200000021,
          "velocity": 0.8346456692913385,
          "duration": 0.12552300000000116
        },
        {
          "name": "F#3",
          "midi": 54,
          "time": 49.70710800000021,
          "velocity": 0.8346456692913385,
          "duration": 0.12552300000000116
        },
        {
          "name": "F#2",
          "midi": 42,
          "time": 49.70710800000021,
          "velocity": 0.6929133858267716,
          "duration": 0.12552300000000116
        },
        {
          "name": "F#3",
          "midi": 54,
          "time": 50.083677000000215,
          "velocity": 0.8346456692913385,
          "duration": 0.12552300000000116
        },
        {
          "name": "F#2",
          "midi": 42,
          "time": 50.083677000000215,
          "velocity": 0.6929133858267716,
          "duration": 0.12552300000000116
        },
        {
          "name": "G#2",
          "midi": 44,
          "time": 50.209200000000216,
          "velocity": 0.5905511811023622,
          "duration": 0.12552300000000116
        },
        {
          "name": "F#3",
          "midi": 54,
          "time": 50.209200000000216,
          "velocity": 0.8346456692913385,
          "duration": 0.12552300000000116
        },
        {
          "name": "F#2",
          "midi": 42,
          "time": 50.33472300000022,
          "velocity": 0.6929133858267716,
          "duration": 0.12552300000000116
        },
        {
          "name": "A#2",
          "midi": 46,
          "time": 50.46024600000022,
          "velocity": 0.6929133858267716,
          "duration": 0.12552300000000116
        },
        {
          "name": "F#3",
          "midi": 54,
          "time": 50.46024600000022,
          "velocity": 0.8346456692913385,
          "duration": 0.12552300000000116
        },
        {
          "name": "F#2",
          "midi": 42,
          "time": 50.58576900000022,
          "velocity": 0.6929133858267716,
          "duration": 0.12552300000000116
        },
        {
          "name": "F#3",
          "midi": 54,
          "time": 50.71129200000022,
          "velocity": 0.8346456692913385,
          "duration": 0.12552300000000116
        },
        {
          "name": "F#3",
          "midi": 54,
          "time": 50.96233800000022,
          "velocity": 0.8346456692913385,
          "duration": 0.12552300000000116
        },
        {
          "name": "G#2",
          "midi": 44,
          "time": 57.238488000000224,
          "velocity": 0.7874015748031497,
          "duration": 0.12552300000000116
        },
        {
          "name": "G#2",
          "midi": 44,
          "time": 57.489534000000226,
          "velocity": 0.7874015748031497,
          "duration": 0.12552300000000116
        },
        {
          "name": "G#2",
          "midi": 44,
          "time": 57.74058000000023,
          "velocity": 0.7874015748031497,
          "duration": 0.12552300000000116
        },
        {
          "name": "A#2",
          "midi": 46,
          "time": 57.99162600000023,
          "velocity": 0.6929133858267716,
          "duration": 0.12552300000000116
        },
        {
          "name": "G#2",
          "midi": 44,
          "time": 58.11714900000023,
          "velocity": 0.6929133858267716,
          "duration": 0.12552300000000116
        },
        {
          "name": "A#2",
          "midi": 46,
          "time": 58.24267200000023,
          "velocity": 0.5826771653543307,
          "duration": 0.12552300000000116
        },
        {
          "name": "G#2",
          "midi": 44,
          "time": 58.368195000000235,
          "velocity": 0.5826771653543307,
          "duration": 0.12552300000000116
        },
        {
          "name": "A#2",
          "midi": 46,
          "time": 58.493718000000236,
          "velocity": 0.5039370078740157,
          "duration": 0.12552300000000116
        },
        {
          "name": "G#2",
          "midi": 44,
          "time": 58.61924100000024,
          "velocity": 0.5039370078740157,
          "duration": 0.12552300000000116
        },
        {
          "name": "G#2",
          "midi": 44,
          "time": 58.74476400000024,
          "velocity": 0.7874015748031497,
          "duration": 0.12552300000000116
        },
        {
          "name": "G#2",
          "midi": 44,
          "time": 58.99581000000024,
          "velocity": 0.7874015748031497,
          "duration": 0.12552300000000116
        },
        {
          "name": "G#2",
          "midi": 44,
          "time": 59.24685600000024,
          "velocity": 0.7874015748031497,
          "duration": 0.12552300000000116
        },
        {
          "name": "A#2",
          "midi": 46,
          "time": 59.497902000000245,
          "velocity": 0.6929133858267716,
          "duration": 0.12552300000000116
        },
        {
          "name": "G#2",
          "midi": 44,
          "time": 59.623425000000246,
          "velocity": 0.6929133858267716,
          "duration": 0.12552300000000116
        },
        {
          "name": "A#2",
          "midi": 46,
          "time": 59.74894800000025,
          "velocity": 0.5826771653543307,
          "duration": 0.12552300000000116
        },
        {
          "name": "G#2",
          "midi": 44,
          "time": 59.87447100000025,
          "velocity": 0.5826771653543307,
          "duration": 0.12552300000000116
        },
        {
          "name": "A#2",
          "midi": 46,
          "time": 59.99999400000025,
          "velocity": 0.5039370078740157,
          "duration": 0.12552300000000116
        },
        {
          "name": "G#2",
          "midi": 44,
          "time": 60.12551700000025,
          "velocity": 0.5039370078740157,
          "duration": 0.12552300000000116
        },
        {
          "name": "G#2",
          "midi": 44,
          "time": 60.25104000000025,
          "velocity": 0.7874015748031497,
          "duration": 0.12552300000000116
        },
        {
          "name": "G#2",
          "midi": 44,
          "time": 60.502086000000254,
          "velocity": 0.7874015748031497,
          "duration": 0.12552300000000116
        },
        {
          "name": "G#2",
          "midi": 44,
          "time": 60.75313200000026,
          "velocity": 0.7874015748031497,
          "duration": 0.12552300000000116
        },
        {
          "name": "A#2",
          "midi": 46,
          "time": 61.00417800000026,
          "velocity": 0.6929133858267716,
          "duration": 0.12552300000000116
        },
        {
          "name": "G#2",
          "midi": 44,
          "time": 61.12970100000026,
          "velocity": 0.6929133858267716,
          "duration": 0.12552300000000116
        },
        {
          "name": "A#2",
          "midi": 46,
          "time": 61.25522400000026,
          "velocity": 0.5826771653543307,
          "duration": 0.12552300000000116
        },
        {
          "name": "G#2",
          "midi": 44,
          "time": 61.38074700000026,
          "velocity": 0.5826771653543307,
          "duration": 0.12552300000000116
        },
        {
          "name": "A#2",
          "midi": 46,
          "time": 61.506270000000264,
          "velocity": 0.5039370078740157,
          "duration": 0.12552300000000116
        },
        {
          "name": "G#2",
          "midi": 44,
          "time": 61.631793000000265,
          "velocity": 0.5039370078740157,
          "duration": 0.12552300000000116
        },
        {
          "name": "G#2",
          "midi": 44,
          "time": 61.757316000000266,
          "velocity": 0.7874015748031497,
          "duration": 0.12552300000000116
        },
        {
          "name": "G#2",
          "midi": 44,
          "time": 62.00836200000027,
          "velocity": 0.7874015748031497,
          "duration": 0.12552300000000116
        },
        {
          "name": "G#2",
          "midi": 44,
          "time": 62.25940800000027,
          "velocity": 0.7874015748031497,
          "duration": 0.12552300000000116
        },
        {
          "name": "A#2",
          "midi": 46,
          "time": 62.51045400000027,
          "velocity": 0.6929133858267716,
          "duration": 0.12552300000000116
        },
        {
          "name": "G#2",
          "midi": 44,
          "time": 62.635977000000274,
          "velocity": 0.6929133858267716,
          "duration": 0.12552300000000116
        },
        {
          "name": "A#2",
          "midi": 46,
          "time": 62.761500000000275,
          "velocity": 0.5826771653543307,
          "duration": 0.12552300000000116
        },
        {
          "name": "G#2",
          "midi": 44,
          "time": 62.887023000000276,
          "velocity": 0.5826771653543307,
          "duration": 0.12552300000000116
        },
        {
          "name": "A#2",
          "midi": 46,
          "time": 63.01254600000028,
          "velocity": 0.5039370078740157,
          "duration": 0.12552300000000116
        },
        {
          "name": "G#2",
          "midi": 44,
          "time": 63.13806900000028,
          "velocity": 0.5039370078740157,
          "duration": 0.12552300000000116
        },
        {
          "name": "G#2",
          "midi": 44,
          "time": 63.26359200000028,
          "velocity": 0.7874015748031497,
          "duration": 0.12552300000000116
        },
        {
          "name": "F#2",
          "midi": 42,
          "time": 63.26359200000028,
          "velocity": 0.6929133858267716,
          "duration": 0.12552300000000116
        },
        {
          "name": "F#3",
          "midi": 54,
          "time": 63.26359200000028,
          "velocity": 0.8346456692913385,
          "duration": 0.12552300000000116
        },
        {
          "name": "G#2",
          "midi": 44,
          "time": 63.51463800000028,
          "velocity": 0.7874015748031497,
          "duration": 0.12552300000000116
        },
        {
          "name": "F#3",
          "midi": 54,
          "time": 63.64016100000028,
          "velocity": 0.8346456692913385,
          "duration": 0.12552300000000116
        },
        {
          "name": "F#2",
          "midi": 42,
          "time": 63.64016100000028,
          "velocity": 0.6929133858267716,
          "duration": 0.12552300000000116
        },
        {
          "name": "G#2",
          "midi": 44,
          "time": 63.765684000000284,
          "velocity": 0.7874015748031497,
          "duration": 0.12552300000000116
        },
        {
          "name": "F#3",
          "midi": 54,
          "time": 63.765684000000284,
          "velocity": 0.8346456692913385,
          "duration": 0.12552300000000116
        },
        {
          "name": "G#2",
          "midi": 44,
          "time": 63.765684000000284,
          "velocity": 0.5905511811023622,
          "duration": 0.12552300000000116
        },
        {
          "name": "F#2",
          "midi": 42,
          "time": 63.891207000000286,
          "velocity": 0.6929133858267716,
          "duration": 0.12552299999999406
        },
        {
          "name": "A#2",
          "midi": 46,
          "time": 64.01673000000028,
          "velocity": 0.6929133858267716,
          "duration": 0.12552300000000116
        },
        {
          "name": "F#3",
          "midi": 54,
          "time": 64.01673000000028,
          "velocity": 0.8346456692913385,
          "duration": 0.12552300000000116
        },
        {
          "name": "A#2",
          "midi": 46,
          "time": 64.01673000000028,
          "velocity": 0.6929133858267716,
          "duration": 0.12552300000000116
        },
        {
          "name": "G#2",
          "midi": 44,
          "time": 64.14225300000028,
          "velocity": 0.6929133858267716,
          "duration": 0.12552300000000116
        },
        {
          "name": "F#2",
          "midi": 42,
          "time": 64.14225300000028,
          "velocity": 0.6929133858267716,
          "duration": 0.12552300000000116
        },
        {
          "name": "A#2",
          "midi": 46,
          "time": 64.26777600000028,
          "velocity": 0.5826771653543307,
          "duration": 0.12552300000000116
        },
        {
          "name": "F#3",
          "midi": 54,
          "time": 64.26777600000028,
          "velocity": 0.8346456692913385,
          "duration": 0.12552300000000116
        },
        {
          "name": "G#2",
          "midi": 44,
          "time": 64.39329900000028,
          "velocity": 0.5826771653543307,
          "duration": 0.12552300000000116
        },
        {
          "name": "A#2",
          "midi": 46,
          "time": 64.51882200000028,
          "velocity": 0.5039370078740157,
          "duration": 0.12552300000000116
        },
        {
          "name": "F#3",
          "midi": 54,
          "time": 64.51882200000028,
          "velocity": 0.8346456692913385,
          "duration": 0.12552300000000116
        },
        {
          "name": "G#2",
          "midi": 44,
          "time": 64.64434500000029,
          "velocity": 0.5039370078740157,
          "duration": 0.12552300000000116
        },
        {
          "name": "G#2",
          "midi": 44,
          "time": 64.76986800000029,
          "velocity": 0.7874015748031497,
          "duration": 0.12552300000000116
        },
        {
          "name": "F#2",
          "midi": 42,
          "time": 64.76986800000029,
          "velocity": 0.6929133858267716,
          "duration": 0.12552300000000116
        },
        {
          "name": "F#3",
          "midi": 54,
          "time": 64.76986800000029,
          "velocity": 0.8346456692913385,
          "duration": 0.12552300000000116
        },
        {
          "name": "G#2",
          "midi": 44,
          "time": 65.02091400000029,
          "velocity": 0.7874015748031497,
          "duration": 0.12552300000000116
        },
        {
          "name": "F#3",
          "midi": 54,
          "time": 65.14643700000029,
          "velocity": 0.8346456692913385,
          "duration": 0.12552300000000116
        },
        {
          "name": "F#2",
          "midi": 42,
          "time": 65.14643700000029,
          "velocity": 0.6929133858267716,
          "duration": 0.12552300000000116
        },
        {
          "name": "G#2",
          "midi": 44,
          "time": 65.27196000000029,
          "velocity": 0.7874015748031497,
          "duration": 0.12552300000000116
        },
        {
          "name": "F#3",
          "midi": 54,
          "time": 65.27196000000029,
          "velocity": 0.8346456692913385,
          "duration": 0.12552300000000116
        },
        {
          "name": "G#2",
          "midi": 44,
          "time": 65.27196000000029,
          "velocity": 0.5905511811023622,
          "duration": 0.12552300000000116
        },
        {
          "name": "F#2",
          "midi": 42,
          "time": 65.39748300000029,
          "velocity": 0.6929133858267716,
          "duration": 0.12552300000000116
        },
        {
          "name": "A#2",
          "midi": 46,
          "time": 65.5230060000003,
          "velocity": 0.6929133858267716,
          "duration": 0.12552300000000116
        },
        {
          "name": "F#3",
          "midi": 54,
          "time": 65.5230060000003,
          "velocity": 0.8346456692913385,
          "duration": 0.12552300000000116
        },
        {
          "name": "A#2",
          "midi": 46,
          "time": 65.5230060000003,
          "velocity": 0.6929133858267716,
          "duration": 0.12552300000000116
        },
        {
          "name": "G#2",
          "midi": 44,
          "time": 65.6485290000003,
          "velocity": 0.6929133858267716,
          "duration": 0.12552300000000116
        },
        {
          "name": "F#2",
          "midi": 42,
          "time": 65.6485290000003,
          "velocity": 0.6929133858267716,
          "duration": 0.12552300000000116
        },
        {
          "name": "A#2",
          "midi": 46,
          "time": 65.7740520000003,
          "velocity": 0.5826771653543307,
          "duration": 0.12552300000000116
        },
        {
          "name": "F#3",
          "midi": 54,
          "time": 65.7740520000003,
          "velocity": 0.8346456692913385,
          "duration": 0.12552300000000116
        },
        {
          "name": "G#2",
          "midi": 44,
          "time": 65.8995750000003,
          "velocity": 0.5826771653543307,
          "duration": 0.12552300000000116
        },
        {
          "name": "A#2",
          "midi": 46,
          "time": 66.0250980000003,
          "velocity": 0.5039370078740157,
          "duration": 0.12552300000000116
        },
        {
          "name": "F#3",
          "midi": 54,
          "time": 66.0250980000003,
          "velocity": 0.8346456692913385,
          "duration": 0.12552300000000116
        },
        {
          "name": "G#2",
          "midi": 44,
          "time": 66.1506210000003,
          "velocity": 0.5039370078740157,
          "duration": 0.12552300000000116
        },
        {
          "name": "G#2",
          "midi": 44,
          "time": 66.2761440000003,
          "velocity": 0.7874015748031497,
          "duration": 0.12552300000000116
        },
        {
          "name": "F#2",
          "midi": 42,
          "time": 66.2761440000003,
          "velocity": 0.6929133858267716,
          "duration": 0.12552300000000116
        },
        {
          "name": "F#3",
          "midi": 54,
          "time": 66.2761440000003,
          "velocity": 0.8346456692913385,
          "duration": 0.12552300000000116
        },
        {
          "name": "G#2",
          "midi": 44,
          "time": 66.5271900000003,
          "velocity": 0.7874015748031497,
          "duration": 0.12552300000000116
        },
        {
          "name": "F#3",
          "midi": 54,
          "time": 66.6527130000003,
          "velocity": 0.8346456692913385,
          "duration": 0.12552300000000116
        },
        {
          "name": "F#2",
          "midi": 42,
          "time": 66.6527130000003,
          "velocity": 0.6929133858267716,
          "duration": 0.12552300000000116
        },
        {
          "name": "G#2",
          "midi": 44,
          "time": 66.7782360000003,
          "velocity": 0.7874015748031497,
          "duration": 0.12552300000000116
        },
        {
          "name": "G#2",
          "midi": 44,
          "time": 66.7782360000003,
          "velocity": 0.5905511811023622,
          "duration": 0.12552300000000116
        },
        {
          "name": "F#3",
          "midi": 54,
          "time": 66.7782360000003,
          "velocity": 0.8346456692913385,
          "duration": 0.12552300000000116
        },
        {
          "name": "F#2",
          "midi": 42,
          "time": 66.9037590000003,
          "velocity": 0.6929133858267716,
          "duration": 0.12552300000000116
        },
        {
          "name": "A#2",
          "midi": 46,
          "time": 67.02928200000031,
          "velocity": 0.6929133858267716,
          "duration": 0.12552300000000116
        },
        {
          "name": "A#2",
          "midi": 46,
          "time": 67.02928200000031,
          "velocity": 0.6929133858267716,
          "duration": 0.12552300000000116
        },
        {
          "name": "F#3",
          "midi": 54,
          "time": 67.02928200000031,
          "velocity": 0.8346456692913385,
          "duration": 0.12552300000000116
        },
        {
          "name": "G#2",
          "midi": 44,
          "time": 67.15480500000031,
          "velocity": 0.6929133858267716,
          "duration": 0.12552300000000116
        },
        {
          "name": "F#2",
          "midi": 42,
          "time": 67.15480500000031,
          "velocity": 0.6929133858267716,
          "duration": 0.12552300000000116
        },
        {
          "name": "A#2",
          "midi": 46,
          "time": 67.28032800000031,
          "velocity": 0.5826771653543307,
          "duration": 0.12552300000000116
        },
        {
          "name": "F#3",
          "midi": 54,
          "time": 67.28032800000031,
          "velocity": 0.8346456692913385,
          "duration": 0.12552300000000116
        },
        {
          "name": "G#2",
          "midi": 44,
          "time": 67.40585100000031,
          "velocity": 0.5826771653543307,
          "duration": 0.12552300000000116
        },
        {
          "name": "A#2",
          "midi": 46,
          "time": 67.53137400000031,
          "velocity": 0.5039370078740157,
          "duration": 0.12552300000000116
        },
        {
          "name": "F#3",
          "midi": 54,
          "time": 67.53137400000031,
          "velocity": 0.8346456692913385,
          "duration": 0.12552300000000116
        },
        {
          "name": "G#2",
          "midi": 44,
          "time": 67.65689700000031,
          "velocity": 0.5039370078740157,
          "duration": 0.12552300000000116
        },
        {
          "name": "G#2",
          "midi": 44,
          "time": 67.78242000000031,
          "velocity": 0.7874015748031497,
          "duration": 0.12552300000000116
        },
        {
          "name": "F#3",
          "midi": 54,
          "time": 67.78242000000031,
          "velocity": 0.8346456692913385,
          "duration": 0.12552300000000116
        },
        {
          "name": "F#2",
          "midi": 42,
          "time": 67.78242000000031,
          "velocity": 0.6929133858267716,
          "duration": 0.12552300000000116
        },
        {
          "name": "G#2",
          "midi": 44,
          "time": 68.03346600000032,
          "velocity": 0.7874015748031497,
          "duration": 0.12552300000000116
        },
        {
          "name": "F#3",
          "midi": 54,
          "time": 68.15898900000032,
          "velocity": 0.8346456692913385,
          "duration": 0.12552300000000116
        },
        {
          "name": "F#2",
          "midi": 42,
          "time": 68.15898900000032,
          "velocity": 0.6929133858267716,
          "duration": 0.12552300000000116
        },
        {
          "name": "G#2",
          "midi": 44,
          "time": 68.28451200000032,
          "velocity": 0.7874015748031497,
          "duration": 0.12552300000000116
        },
        {
          "name": "G#2",
          "midi": 44,
          "time": 68.28451200000032,
          "velocity": 0.5905511811023622,
          "duration": 0.12552300000000116
        },
        {
          "name": "F#3",
          "midi": 54,
          "time": 68.28451200000032,
          "velocity": 0.8346456692913385,
          "duration": 0.12552300000000116
        },
        {
          "name": "F#2",
          "midi": 42,
          "time": 68.41003500000032,
          "velocity": 0.6929133858267716,
          "duration": 0.12552300000000116
        },
        {
          "name": "A#2",
          "midi": 46,
          "time": 68.53555800000032,
          "velocity": 0.6929133858267716,
          "duration": 0.12552300000000116
        },
        {
          "name": "A#2",
          "midi": 46,
          "time": 68.53555800000032,
          "velocity": 0.6929133858267716,
          "duration": 0.12552300000000116
        },
        {
          "name": "F#3",
          "midi": 54,
          "time": 68.53555800000032,
          "velocity": 0.8346456692913385,
          "duration": 0.12552300000000116
        },
        {
          "name": "F#2",
          "midi": 42,
          "time": 68.66108100000032,
          "velocity": 0.6929133858267716,
          "duration": 0.12552300000000116
        },
        {
          "name": "G#2",
          "midi": 44,
          "time": 68.66108100000032,
          "velocity": 0.6929133858267716,
          "duration": 0.12552300000000116
        },
        {
          "name": "F#3",
          "midi": 54,
          "time": 68.78660400000032,
          "velocity": 0.8346456692913385,
          "duration": 0.12552300000000116
        },
        {
          "name": "A#2",
          "midi": 46,
          "time": 68.78660400000032,
          "velocity": 0.5826771653543307,
          "duration": 0.12552300000000116
        },
        {
          "name": "G#2",
          "midi": 44,
          "time": 68.91212700000032,
          "velocity": 0.5826771653543307,
          "duration": 0.12552300000000116
        },
        {
          "name": "F#3",
          "midi": 54,
          "time": 69.03765000000033,
          "velocity": 0.8346456692913385,
          "duration": 0.12552300000000116
        },
        {
          "name": "A#2",
          "midi": 46,
          "time": 69.03765000000033,
          "velocity": 0.5039370078740157,
          "duration": 0.12552300000000116
        },
        {
          "name": "G#2",
          "midi": 44,
          "time": 69.16317300000033,
          "velocity": 0.5039370078740157,
          "duration": 0.12552300000000116
        },
        {
          "name": "G#2",
          "midi": 44,
          "time": 69.28869600000033,
          "velocity": 0.7874015748031497,
          "duration": 0.12552300000000116
        },
        {
          "name": "F#2",
          "midi": 42,
          "time": 69.28869600000033,
          "velocity": 0.6929133858267716,
          "duration": 0.12552300000000116
        },
        {
          "name": "F#3",
          "midi": 54,
          "time": 69.28869600000033,
          "velocity": 0.8346456692913385,
          "duration": 0.12552300000000116
        },
        {
          "name": "G#2",
          "midi": 44,
          "time": 69.53974200000033,
          "velocity": 0.7874015748031497,
          "duration": 0.12552300000000116
        },
        {
          "name": "F#3",
          "midi": 54,
          "time": 69.66526500000033,
          "velocity": 0.8346456692913385,
          "duration": 0.12552300000000116
        },
        {
          "name": "F#2",
          "midi": 42,
          "time": 69.66526500000033,
          "velocity": 0.6929133858267716,
          "duration": 0.12552300000000116
        },
        {
          "name": "G#2",
          "midi": 44,
          "time": 69.79078800000033,
          "velocity": 0.7874015748031497,
          "duration": 0.12552300000000116
        },
        {
          "name": "F#3",
          "midi": 54,
          "time": 69.79078800000033,
          "velocity": 0.8346456692913385,
          "duration": 0.12552300000000116
        },
        {
          "name": "G#2",
          "midi": 44,
          "time": 69.79078800000033,
          "velocity": 0.5905511811023622,
          "duration": 0.12552300000000116
        },
        {
          "name": "F#2",
          "midi": 42,
          "time": 69.91631100000033,
          "velocity": 0.6929133858267716,
          "duration": 0.12552300000000116
        },
        {
          "name": "A#2",
          "midi": 46,
          "time": 70.04183400000034,
          "velocity": 0.6929133858267716,
          "duration": 0.12552300000000116
        },
        {
          "name": "A#2",
          "midi": 46,
          "time": 70.04183400000034,
          "velocity": 0.6929133858267716,
          "duration": 0.12552300000000116
        },
        {
          "name": "F#3",
          "midi": 54,
          "time": 70.04183400000034,
          "velocity": 0.8346456692913385,
          "duration": 0.12552300000000116
        },
        {
          "name": "F#2",
          "midi": 42,
          "time": 70.16735700000034,
          "velocity": 0.6929133858267716,
          "duration": 0.12552300000000116
        },
        {
          "name": "G#2",
          "midi": 44,
          "time": 70.16735700000034,
          "velocity": 0.6929133858267716,
          "duration": 0.12552300000000116
        },
        {
          "name": "F#3",
          "midi": 54,
          "time": 70.29288000000034,
          "velocity": 0.8346456692913385,
          "duration": 0.12552300000000116
        },
        {
          "name": "A#2",
          "midi": 46,
          "time": 70.29288000000034,
          "velocity": 0.5826771653543307,
          "duration": 0.12552300000000116
        },
        {
          "name": "G#2",
          "midi": 44,
          "time": 70.41840300000034,
          "velocity": 0.5826771653543307,
          "duration": 0.12552300000000116
        },
        {
          "name": "A#2",
          "midi": 46,
          "time": 70.54392600000034,
          "velocity": 0.5039370078740157,
          "duration": 0.12552300000000116
        },
        {
          "name": "F#3",
          "midi": 54,
          "time": 70.54392600000034,
          "velocity": 0.8346456692913385,
          "duration": 0.12552300000000116
        },
        {
          "name": "G#2",
          "midi": 44,
          "time": 70.66944900000034,
          "velocity": 0.5039370078740157,
          "duration": 0.12552300000000116
        },
        {
          "name": "G#2",
          "midi": 44,
          "time": 70.79497200000034,
          "velocity": 0.7874015748031497,
          "duration": 0.12552300000000116
        },
        {
          "name": "F#3",
          "midi": 54,
          "time": 70.79497200000034,
          "velocity": 0.8346456692913385,
          "duration": 0.12552300000000116
        },
        {
          "name": "F#2",
          "midi": 42,
          "time": 70.79497200000034,
          "velocity": 0.6929133858267716,
          "duration": 0.12552300000000116
        },
        {
          "name": "G#2",
          "midi": 44,
          "time": 71.04601800000034,
          "velocity": 0.7874015748031497,
          "duration": 0.12552300000000116
        },
        {
          "name": "F#3",
          "midi": 54,
          "time": 71.17154100000035,
          "velocity": 0.8346456692913385,
          "duration": 0.12552300000000116
        },
        {
          "name": "F#2",
          "midi": 42,
          "time": 71.17154100000035,
          "velocity": 0.6929133858267716,
          "duration": 0.12552300000000116
        },
        {
          "name": "G#2",
          "midi": 44,
          "time": 71.29706400000035,
          "velocity": 0.7874015748031497,
          "duration": 0.12552300000000116
        },
        {
          "name": "G#2",
          "midi": 44,
          "time": 71.29706400000035,
          "velocity": 0.5905511811023622,
          "duration": 0.12552300000000116
        },
        {
          "name": "F#3",
          "midi": 54,
          "time": 71.29706400000035,
          "velocity": 0.8346456692913385,
          "duration": 0.12552300000000116
        },
        {
          "name": "F#2",
          "midi": 42,
          "time": 71.42258700000035,
          "velocity": 0.6929133858267716,
          "duration": 0.12552300000000116
        },
        {
          "name": "A#2",
          "midi": 46,
          "time": 71.54811000000035,
          "velocity": 0.6929133858267716,
          "duration": 0.12552300000000116
        },
        {
          "name": "A#2",
          "midi": 46,
          "time": 71.54811000000035,
          "velocity": 0.6929133858267716,
          "duration": 0.12552300000000116
        },
        {
          "name": "F#3",
          "midi": 54,
          "time": 71.54811000000035,
          "velocity": 0.8346456692913385,
          "duration": 0.12552300000000116
        },
        {
          "name": "F#2",
          "midi": 42,
          "time": 71.67363300000035,
          "velocity": 0.6929133858267716,
          "duration": 0.12552300000000116
        },
        {
          "name": "G#2",
          "midi": 44,
          "time": 71.67363300000035,
          "velocity": 0.6929133858267716,
          "duration": 0.12552300000000116
        },
        {
          "name": "F#3",
          "midi": 54,
          "time": 71.79915600000035,
          "velocity": 0.8346456692913385,
          "duration": 0.12552300000000116
        },
        {
          "name": "A#2",
          "midi": 46,
          "time": 71.79915600000035,
          "velocity": 0.5826771653543307,
          "duration": 0.12552300000000116
        },
        {
          "name": "G#2",
          "midi": 44,
          "time": 71.92467900000035,
          "velocity": 0.5826771653543307,
          "duration": 0.12552300000000116
        },
        {
          "name": "A#2",
          "midi": 46,
          "time": 72.05020200000035,
          "velocity": 0.5039370078740157,
          "duration": 0.12552300000000116
        },
        {
          "name": "F#3",
          "midi": 54,
          "time": 72.05020200000035,
          "velocity": 0.8346456692913385,
          "duration": 0.12552300000000116
        },
        {
          "name": "G#2",
          "midi": 44,
          "time": 72.17572500000036,
          "velocity": 0.5039370078740157,
          "duration": 0.12552300000000116
        },
        {
          "name": "F#2",
          "midi": 42,
          "time": 72.30124800000036,
          "velocity": 0.6929133858267716,
          "duration": 0.12552300000000116
        },
        {
          "name": "F#3",
          "midi": 54,
          "time": 72.30124800000036,
          "velocity": 0.8346456692913385,
          "duration": 0.12552300000000116
        },
        {
          "name": "G#2",
          "midi": 44,
          "time": 72.30124800000036,
          "velocity": 0.7874015748031497,
          "duration": 0.12552300000000116
        },
        {
          "name": "G#2",
          "midi": 44,
          "time": 72.55229400000036,
          "velocity": 0.7874015748031497,
          "duration": 0.12552300000000116
        },
        {
          "name": "F#2",
          "midi": 42,
          "time": 72.67781700000036,
          "velocity": 0.6929133858267716,
          "duration": 0.12552300000000116
        },
        {
          "name": "F#3",
          "midi": 54,
          "time": 72.67781700000036,
          "velocity": 0.8346456692913385,
          "duration": 0.12552300000000116
        },
        {
          "name": "G#2",
          "midi": 44,
          "time": 72.80334000000036,
          "velocity": 0.5905511811023622,
          "duration": 0.12552300000000116
        },
        {
          "name": "F#3",
          "midi": 54,
          "time": 72.80334000000036,
          "velocity": 0.8346456692913385,
          "duration": 0.12552300000000116
        },
        {
          "name": "G#2",
          "midi": 44,
          "time": 72.80334000000036,
          "velocity": 0.7874015748031497,
          "duration": 0.12552300000000116
        },
        {
          "name": "F#2",
          "midi": 42,
          "time": 72.92886300000036,
          "velocity": 0.6929133858267716,
          "duration": 0.12552300000000116
        },
        {
          "name": "A#2",
          "midi": 46,
          "time": 73.05438600000036,
          "velocity": 0.6929133858267716,
          "duration": 0.12552300000000116
        },
        {
          "name": "F#3",
          "midi": 54,
          "time": 73.05438600000036,
          "velocity": 0.8346456692913385,
          "duration": 0.12552300000000116
        },
        {
          "name": "A#2",
          "midi": 46,
          "time": 73.05438600000036,
          "velocity": 0.6929133858267716,
          "duration": 0.12552300000000116
        },
        {
          "name": "F#2",
          "midi": 42,
          "time": 73.17990900000036,
          "velocity": 0.6929133858267716,
          "duration": 0.12552300000000116
        },
        {
          "name": "G#2",
          "midi": 44,
          "time": 73.17990900000036,
          "velocity": 0.6929133858267716,
          "duration": 0.12552300000000116
        },
        {
          "name": "F#3",
          "midi": 54,
          "time": 73.30543200000037,
          "velocity": 0.8346456692913385,
          "duration": 0.12552300000000116
        },
        {
          "name": "A#2",
          "midi": 46,
          "time": 73.30543200000037,
          "velocity": 0.5826771653543307,
          "duration": 0.12552300000000116
        },
        {
          "name": "G#2",
          "midi": 44,
          "time": 73.43095500000037,
          "velocity": 0.5826771653543307,
          "duration": 0.12552300000000116
        },
        {
          "name": "F#3",
          "midi": 54,
          "time": 73.55647800000037,
          "velocity": 0.8346456692913385,
          "duration": 0.12552300000000116
        },
        {
          "name": "A#2",
          "midi": 46,
          "time": 73.55647800000037,
          "velocity": 0.5039370078740157,
          "duration": 0.12552300000000116
        },
        {
          "name": "G#2",
          "midi": 44,
          "time": 73.68200100000037,
          "velocity": 0.5039370078740157,
          "duration": 0.12552300000000116
        },
        {
          "name": "F#3",
          "midi": 54,
          "time": 73.80752400000037,
          "velocity": 0.8346456692913385,
          "duration": 0.12552300000000116
        },
        {
          "name": "F#2",
          "midi": 42,
          "time": 73.80752400000037,
          "velocity": 0.6929133858267716,
          "duration": 0.12552300000000116
        },
        {
          "name": "G#2",
          "midi": 44,
          "time": 73.80752400000037,
          "velocity": 0.7874015748031497,
          "duration": 0.12552300000000116
        },
        {
          "name": "G#2",
          "midi": 44,
          "time": 74.05857000000037,
          "velocity": 0.7874015748031497,
          "duration": 0.12552300000000116
        },
        {
          "name": "F#3",
          "midi": 54,
          "time": 74.18409300000037,
          "velocity": 0.8346456692913385,
          "duration": 0.12552300000000116
        },
        {
          "name": "F#2",
          "midi": 42,
          "time": 74.18409300000037,
          "velocity": 0.6929133858267716,
          "duration": 0.12552300000000116
        },
        {
          "name": "G#2",
          "midi": 44,
          "time": 74.30961600000037,
          "velocity": 0.5905511811023622,
          "duration": 0.12552300000000116
        },
        {
          "name": "F#3",
          "midi": 54,
          "time": 74.30961600000037,
          "velocity": 0.8346456692913385,
          "duration": 0.12552300000000116
        },
        {
          "name": "G#2",
          "midi": 44,
          "time": 74.30961600000037,
          "velocity": 0.5905511811023622,
          "duration": 0.12552300000000116
        },
        {
          "name": "G#2",
          "midi": 44,
          "time": 74.30961600000037,
          "velocity": 0.7874015748031497,
          "duration": 0.12552300000000116
        },
        {
          "name": "F#2",
          "midi": 42,
          "time": 74.43513900000038,
          "velocity": 0.6929133858267716,
          "duration": 0.12552300000000116
        },
        {
          "name": "A#2",
          "midi": 46,
          "time": 74.56066200000038,
          "velocity": 0.6929133858267716,
          "duration": 0.12552300000000116
        },
        {
          "name": "F#3",
          "midi": 54,
          "time": 74.56066200000038,
          "velocity": 0.8346456692913385,
          "duration": 0.12552300000000116
        },
        {
          "name": "A#2",
          "midi": 46,
          "time": 74.56066200000038,
          "velocity": 0.6929133858267716,
          "duration": 0.12552300000000116
        },
        {
          "name": "A#2",
          "midi": 46,
          "time": 74.56066200000038,
          "velocity": 0.6929133858267716,
          "duration": 0.12552300000000116
        },
        {
          "name": "F#2",
          "midi": 42,
          "time": 74.68618500000038,
          "velocity": 0.6929133858267716,
          "duration": 0.12552300000000116
        },
        {
          "name": "G#2",
          "midi": 44,
          "time": 74.68618500000038,
          "velocity": 0.6929133858267716,
          "duration": 0.12552300000000116
        },
        {
          "name": "F#3",
          "midi": 54,
          "time": 74.81170800000038,
          "velocity": 0.8346456692913385,
          "duration": 0.12552300000000116
        },
        {
          "name": "A#2",
          "midi": 46,
          "time": 74.81170800000038,
          "velocity": 0.5826771653543307,
          "duration": 0.12552300000000116
        },
        {
          "name": "G#2",
          "midi": 44,
          "time": 74.93723100000038,
          "velocity": 0.5826771653543307,
          "duration": 0.12552300000000116
        },
        {
          "name": "F#3",
          "midi": 54,
          "time": 75.06275400000038,
          "velocity": 0.8346456692913385,
          "duration": 0.12552300000000116
        },
        {
          "name": "A#2",
          "midi": 46,
          "time": 75.06275400000038,
          "velocity": 0.5039370078740157,
          "duration": 0.12552300000000116
        },
        {
          "name": "G#2",
          "midi": 44,
          "time": 75.18827700000038,
          "velocity": 0.5039370078740157,
          "duration": 0.12552300000000116
        },
        {
          "name": "F#2",
          "midi": 42,
          "time": 75.31380000000038,
          "velocity": 0.6929133858267716,
          "duration": 0.12552300000000116
        },
        {
          "name": "F#3",
          "midi": 54,
          "time": 75.31380000000038,
          "velocity": 0.8346456692913385,
          "duration": 0.12552300000000116
        },
        {
          "name": "G#2",
          "midi": 44,
          "time": 75.31380000000038,
          "velocity": 0.7874015748031497,
          "duration": 0.12552300000000116
        },
        {
          "name": "G#2",
          "midi": 44,
          "time": 75.56484600000039,
          "velocity": 0.7874015748031497,
          "duration": 0.12552300000000116
        },
        {
          "name": "F#3",
          "midi": 54,
          "time": 75.69036900000039,
          "velocity": 0.8346456692913385,
          "duration": 0.12552300000000116
        },
        {
          "name": "F#2",
          "midi": 42,
          "time": 75.69036900000039,
          "velocity": 0.6929133858267716,
          "duration": 0.12552300000000116
        },
        {
          "name": "F#3",
          "midi": 54,
          "time": 75.81589200000039,
          "velocity": 0.8346456692913385,
          "duration": 0.12552300000000116
        },
        {
          "name": "G#2",
          "midi": 44,
          "time": 75.81589200000039,
          "velocity": 0.5905511811023622,
          "duration": 0.12552300000000116
        },
        {
          "name": "G#2",
          "midi": 44,
          "time": 75.81589200000039,
          "velocity": 0.7874015748031497,
          "duration": 0.12552300000000116
        },
        {
          "name": "F#2",
          "midi": 42,
          "time": 75.94141500000039,
          "velocity": 0.6929133858267716,
          "duration": 0.12552300000000116
        },
        {
          "name": "A#2",
          "midi": 46,
          "time": 76.06693800000039,
          "velocity": 0.6929133858267716,
          "duration": 0.12552300000000116
        },
        {
          "name": "F#3",
          "midi": 54,
          "time": 76.06693800000039,
          "velocity": 0.8346456692913385,
          "duration": 0.12552300000000116
        },
        {
          "name": "A#2",
          "midi": 46,
          "time": 76.06693800000039,
          "velocity": 0.6929133858267716,
          "duration": 0.12552300000000116
        },
        {
          "name": "F#2",
          "midi": 42,
          "time": 76.19246100000039,
          "velocity": 0.6929133858267716,
          "duration": 0.12552300000000116
        },
        {
          "name": "G#2",
          "midi": 44,
          "time": 76.19246100000039,
          "velocity": 0.6929133858267716,
          "duration": 0.12552300000000116
        },
        {
          "name": "F#3",
          "midi": 54,
          "time": 76.3179840000004,
          "velocity": 0.8346456692913385,
          "duration": 0.12552300000000116
        },
        {
          "name": "A#2",
          "midi": 46,
          "time": 76.3179840000004,
          "velocity": 0.5826771653543307,
          "duration": 0.12552300000000116
        },
        {
          "name": "G#2",
          "midi": 44,
          "time": 76.4435070000004,
          "velocity": 0.5826771653543307,
          "duration": 0.12552300000000116
        },
        {
          "name": "F#3",
          "midi": 54,
          "time": 76.5690300000004,
          "velocity": 0.8346456692913385,
          "duration": 0.12552300000000116
        },
        {
          "name": "A#2",
          "midi": 46,
          "time": 76.5690300000004,
          "velocity": 0.5039370078740157,
          "duration": 0.12552300000000116
        },
        {
          "name": "G#2",
          "midi": 44,
          "time": 76.6945530000004,
          "velocity": 0.5039370078740157,
          "duration": 0.12552300000000116
        },
        {
          "name": "F#3",
          "midi": 54,
          "time": 76.8200760000004,
          "velocity": 0.8346456692913385,
          "duration": 0.12552300000000116
        },
        {
          "name": "F#2",
          "midi": 42,
          "time": 76.8200760000004,
          "velocity": 0.6929133858267716,
          "duration": 0.12552300000000116
        },
        {
          "name": "G#2",
          "midi": 44,
          "time": 76.8200760000004,
          "velocity": 0.7874015748031497,
          "duration": 0.12552300000000116
        },
        {
          "name": "G#2",
          "midi": 44,
          "time": 77.0711220000004,
          "velocity": 0.7874015748031497,
          "duration": 0.12552300000000116
        },
        {
          "name": "F#3",
          "midi": 54,
          "time": 77.1966450000004,
          "velocity": 0.8346456692913385,
          "duration": 0.12552300000000116
        },
        {
          "name": "F#2",
          "midi": 42,
          "time": 77.1966450000004,
          "velocity": 0.6929133858267716,
          "duration": 0.12552300000000116
        },
        {
          "name": "G#2",
          "midi": 44,
          "time": 77.3221680000004,
          "velocity": 0.5905511811023622,
          "duration": 0.12552300000000116
        },
        {
          "name": "F#3",
          "midi": 54,
          "time": 77.3221680000004,
          "velocity": 0.8346456692913385,
          "duration": 0.12552300000000116
        },
        {
          "name": "G#2",
          "midi": 44,
          "time": 77.3221680000004,
          "velocity": 0.7874015748031497,
          "duration": 0.12552300000000116
        },
        {
          "name": "F#2",
          "midi": 42,
          "time": 77.4476910000004,
          "velocity": 0.6929133858267716,
          "duration": 0.12552300000000116
        },
        {
          "name": "A#2",
          "midi": 46,
          "time": 77.5732140000004,
          "velocity": 0.6929133858267716,
          "duration": 0.12552300000000116
        },
        {
          "name": "F#3",
          "midi": 54,
          "time": 77.5732140000004,
          "velocity": 0.8346456692913385,
          "duration": 0.12552300000000116
        },
        {
          "name": "A#2",
          "midi": 46,
          "time": 77.5732140000004,
          "velocity": 0.6929133858267716,
          "duration": 0.12552300000000116
        },
        {
          "name": "F#2",
          "midi": 42,
          "time": 77.6987370000004,
          "velocity": 0.6929133858267716,
          "duration": 0.12552300000000116
        },
        {
          "name": "G#2",
          "midi": 44,
          "time": 77.6987370000004,
          "velocity": 0.6929133858267716,
          "duration": 0.12552300000000116
        },
        {
          "name": "F#3",
          "midi": 54,
          "time": 77.82426000000041,
          "velocity": 0.8346456692913385,
          "duration": 0.12552300000000116
        },
        {
          "name": "A#2",
          "midi": 46,
          "time": 77.82426000000041,
          "velocity": 0.5826771653543307,
          "duration": 0.12552300000000116
        },
        {
          "name": "G#2",
          "midi": 44,
          "time": 77.94978300000041,
          "velocity": 0.5826771653543307,
          "duration": 0.12552300000000116
        },
        {
          "name": "F#3",
          "midi": 54,
          "time": 78.07530600000041,
          "velocity": 0.8346456692913385,
          "duration": 0.12552300000000116
        },
        {
          "name": "A#2",
          "midi": 46,
          "time": 78.07530600000041,
          "velocity": 0.5039370078740157,
          "duration": 0.12552300000000116
        },
        {
          "name": "G#2",
          "midi": 44,
          "time": 78.20082900000041,
          "velocity": 0.5039370078740157,
          "duration": 0.12552300000000116
        },
        {
          "name": "F#2",
          "midi": 42,
          "time": 78.32635200000041,
          "velocity": 0.6929133858267716,
          "duration": 0.12552300000000116
        },
        {
          "name": "F#3",
          "midi": 54,
          "time": 78.32635200000041,
          "velocity": 0.8346456692913385,
          "duration": 0.12552300000000116
        },
        {
          "name": "G#2",
          "midi": 44,
          "time": 78.32635200000041,
          "velocity": 0.7874015748031497,
          "duration": 0.12552300000000116
        },
        {
          "name": "G#2",
          "midi": 44,
          "time": 78.57739800000041,
          "velocity": 0.7874015748031497,
          "duration": 0.12552300000000116
        },
        {
          "name": "F#2",
          "midi": 42,
          "time": 78.70292100000042,
          "velocity": 0.6929133858267716,
          "duration": 0.12552300000000116
        },
        {
          "name": "F#3",
          "midi": 54,
          "time": 78.70292100000042,
          "velocity": 0.8346456692913385,
          "duration": 0.12552300000000116
        },
        {
          "name": "G#2",
          "midi": 44,
          "time": 78.82844400000042,
          "velocity": 0.5905511811023622,
          "duration": 0.12552300000000116
        },
        {
          "name": "F#3",
          "midi": 54,
          "time": 78.82844400000042,
          "velocity": 0.8346456692913385,
          "duration": 0.12552300000000116
        },
        {
          "name": "G#2",
          "midi": 44,
          "time": 78.82844400000042,
          "velocity": 0.7874015748031497,
          "duration": 0.12552300000000116
        },
        {
          "name": "F#2",
          "midi": 42,
          "time": 78.95396700000042,
          "velocity": 0.6929133858267716,
          "duration": 0.12552300000000116
        },
        {
          "name": "A#2",
          "midi": 46,
          "time": 79.07949000000042,
          "velocity": 0.6929133858267716,
          "duration": 0.12552300000000116
        },
        {
          "name": "F#3",
          "midi": 54,
          "time": 79.07949000000042,
          "velocity": 0.8346456692913385,
          "duration": 0.12552300000000116
        },
        {
          "name": "A#2",
          "midi": 46,
          "time": 79.07949000000042,
          "velocity": 0.6929133858267716,
          "duration": 0.12552300000000116
        },
        {
          "name": "F#2",
          "midi": 42,
          "time": 79.20501300000042,
          "velocity": 0.6929133858267716,
          "duration": 0.12552300000000116
        },
        {
          "name": "G#2",
          "midi": 44,
          "time": 79.20501300000042,
          "velocity": 0.6929133858267716,
          "duration": 0.12552300000000116
        },
        {
          "name": "F#3",
          "midi": 54,
          "time": 79.33053600000042,
          "velocity": 0.8346456692913385,
          "duration": 0.12552300000000116
        },
        {
          "name": "A#2",
          "midi": 46,
          "time": 79.33053600000042,
          "velocity": 0.5826771653543307,
          "duration": 0.12552300000000116
        },
        {
          "name": "G#2",
          "midi": 44,
          "time": 79.45605900000042,
          "velocity": 0.5826771653543307,
          "duration": 0.12552300000000116
        },
        {
          "name": "F#3",
          "midi": 54,
          "time": 79.58158200000042,
          "velocity": 0.8346456692913385,
          "duration": 0.12552300000000116
        },
        {
          "name": "A#2",
          "midi": 46,
          "time": 79.58158200000042,
          "velocity": 0.5039370078740157,
          "duration": 0.12552300000000116
        },
        {
          "name": "G#2",
          "midi": 44,
          "time": 79.70710500000042,
          "velocity": 0.5039370078740157,
          "duration": 0.12552300000000116
        },
        {
          "name": "F#3",
          "midi": 54,
          "time": 79.83262800000043,
          "velocity": 0.8346456692913385,
          "duration": 0.12552300000000116
        },
        {
          "name": "F#2",
          "midi": 42,
          "time": 79.83262800000043,
          "velocity": 0.6929133858267716,
          "duration": 0.12552300000000116
        },
        {
          "name": "G#2",
          "midi": 44,
          "time": 79.83262800000043,
          "velocity": 0.7874015748031497,
          "duration": 0.12552300000000116
        },
        {
          "name": "G#2",
          "midi": 44,
          "time": 80.08367400000043,
          "velocity": 0.7874015748031497,
          "duration": 0.12552300000000116
        },
        {
          "name": "F#3",
          "midi": 54,
          "time": 80.20919700000043,
          "velocity": 0.8346456692913385,
          "duration": 0.12552300000000116
        },
        {
          "name": "F#2",
          "midi": 42,
          "time": 80.20919700000043,
          "velocity": 0.6929133858267716,
          "duration": 0.12552300000000116
        },
        {
          "name": "G#2",
          "midi": 44,
          "time": 80.33472000000043,
          "velocity": 0.5905511811023622,
          "duration": 0.12552300000000116
        },
        {
          "name": "F#3",
          "midi": 54,
          "time": 80.33472000000043,
          "velocity": 0.8346456692913385,
          "duration": 0.12552300000000116
        },
        {
          "name": "G#2",
          "midi": 44,
          "time": 80.33472000000043,
          "velocity": 0.7874015748031497,
          "duration": 0.12552300000000116
        },
        {
          "name": "F#2",
          "midi": 42,
          "time": 80.46024300000043,
          "velocity": 0.6929133858267716,
          "duration": 0.12552300000000116
        },
        {
          "name": "A#2",
          "midi": 46,
          "time": 80.58576600000043,
          "velocity": 0.6929133858267716,
          "duration": 0.12552300000000116
        },
        {
          "name": "F#3",
          "midi": 54,
          "time": 80.58576600000043,
          "velocity": 0.8346456692913385,
          "duration": 0.12552300000000116
        },
        {
          "name": "A#2",
          "midi": 46,
          "time": 80.58576600000043,
          "velocity": 0.6929133858267716,
          "duration": 0.12552300000000116
        },
        {
          "name": "F#2",
          "midi": 42,
          "time": 80.71128900000043,
          "velocity": 0.6929133858267716,
          "duration": 0.12552300000000116
        },
        {
          "name": "G#2",
          "midi": 44,
          "time": 80.71128900000043,
          "velocity": 0.6929133858267716,
          "duration": 0.12552300000000116
        },
        {
          "name": "F#3",
          "midi": 54,
          "time": 80.83681200000044,
          "velocity": 0.8346456692913385,
          "duration": 0.12552300000000116
        },
        {
          "name": "A#2",
          "midi": 46,
          "time": 80.83681200000044,
          "velocity": 0.5826771653543307,
          "duration": 0.12552300000000116
        },
        {
          "name": "G#2",
          "midi": 44,
          "time": 80.96233500000044,
          "velocity": 0.5826771653543307,
          "duration": 0.12552300000000116
        },
        {
          "name": "F#3",
          "midi": 54,
          "time": 81.08785800000044,
          "velocity": 0.8346456692913385,
          "duration": 0.12552300000000116
        },
        {
          "name": "A#2",
          "midi": 46,
          "time": 81.08785800000044,
          "velocity": 0.5039370078740157,
          "duration": 0.12552300000000116
        },
        {
          "name": "G#2",
          "midi": 44,
          "time": 81.21338100000044,
          "velocity": 0.5039370078740157,
          "duration": 0.12552300000000116
        },
        {
          "name": "F#2",
          "midi": 42,
          "time": 81.33890400000044,
          "velocity": 0.6929133858267716,
          "duration": 0.12552300000000116
        },
        {
          "name": "F#3",
          "midi": 54,
          "time": 81.33890400000044,
          "velocity": 0.8346456692913385,
          "duration": 0.12552300000000116
        },
        {
          "name": "G#2",
          "midi": 44,
          "time": 81.33890400000044,
          "velocity": 0.7874015748031497,
          "duration": 0.12552300000000116
        },
        {
          "name": "G#2",
          "midi": 44,
          "time": 81.58995000000044,
          "velocity": 0.7874015748031497,
          "duration": 0.12552300000000116
        },
        {
          "name": "F#3",
          "midi": 54,
          "time": 81.71547300000044,
          "velocity": 0.8346456692913385,
          "duration": 0.12552300000000116
        },
        {
          "name": "F#2",
          "midi": 42,
          "time": 81.71547300000044,
          "velocity": 0.6929133858267716,
          "duration": 0.12552300000000116
        },
        {
          "name": "F#3",
          "midi": 54,
          "time": 81.84099600000044,
          "velocity": 0.8346456692913385,
          "duration": 0.12552300000000116
        },
        {
          "name": "G#2",
          "midi": 44,
          "time": 81.84099600000044,
          "velocity": 0.5905511811023622,
          "duration": 0.12552300000000116
        },
        {
          "name": "G#2",
          "midi": 44,
          "time": 81.84099600000044,
          "velocity": 0.7874015748031497,
          "duration": 0.12552300000000116
        },
        {
          "name": "F#2",
          "midi": 42,
          "time": 81.96651900000045,
          "velocity": 0.6929133858267716,
          "duration": 0.12552300000000116
        },
        {
          "name": "A#2",
          "midi": 46,
          "time": 82.09204200000045,
          "velocity": 0.6929133858267716,
          "duration": 0.12552300000000116
        },
        {
          "name": "F#3",
          "midi": 54,
          "time": 82.09204200000045,
          "velocity": 0.8346456692913385,
          "duration": 0.12552300000000116
        },
        {
          "name": "A#2",
          "midi": 46,
          "time": 82.09204200000045,
          "velocity": 0.6929133858267716,
          "duration": 0.12552300000000116
        },
        {
          "name": "F#2",
          "midi": 42,
          "time": 82.21756500000045,
          "velocity": 0.6929133858267716,
          "duration": 0.12552300000000116
        },
        {
          "name": "G#2",
          "midi": 44,
          "time": 82.21756500000045,
          "velocity": 0.6929133858267716,
          "duration": 0.12552300000000116
        },
        {
          "name": "F#3",
          "midi": 54,
          "time": 82.34308800000045,
          "velocity": 0.8346456692913385,
          "duration": 0.12552300000000116
        },
        {
          "name": "A#2",
          "midi": 46,
          "time": 82.34308800000045,
          "velocity": 0.5826771653543307,
          "duration": 0.12552300000000116
        },
        {
          "name": "G#2",
          "midi": 44,
          "time": 82.46861100000045,
          "velocity": 0.5826771653543307,
          "duration": 0.12552300000000116
        },
        {
          "name": "F#3",
          "midi": 54,
          "time": 82.59413400000045,
          "velocity": 0.8346456692913385,
          "duration": 0.12552300000000116
        },
        {
          "name": "A#2",
          "midi": 46,
          "time": 82.59413400000045,
          "velocity": 0.5039370078740157,
          "duration": 0.12552300000000116
        },
        {
          "name": "G#2",
          "midi": 44,
          "time": 82.71965700000045,
          "velocity": 0.5039370078740157,
          "duration": 0.12552300000000116
        },
        {
          "name": "F#3",
          "midi": 54,
          "time": 82.84518000000045,
          "velocity": 0.8346456692913385,
          "duration": 0.12552300000000116
        },
        {
          "name": "F#2",
          "midi": 42,
          "time": 82.84518000000045,
          "velocity": 0.6929133858267716,
          "duration": 0.12552300000000116
        },
        {
          "name": "G#2",
          "midi": 44,
          "time": 82.84518000000045,
          "velocity": 0.7874015748031497,
          "duration": 0.12552300000000116
        },
        {
          "name": "G#2",
          "midi": 44,
          "time": 83.09622600000046,
          "velocity": 0.7874015748031497,
          "duration": 0.12552300000000116
        },
        {
          "name": "F#3",
          "midi": 54,
          "time": 83.22174900000046,
          "velocity": 0.8346456692913385,
          "duration": 0.12552300000000116
        },
        {
          "name": "F#2",
          "midi": 42,
          "time": 83.22174900000046,
          "velocity": 0.6929133858267716,
          "duration": 0.12552300000000116
        },
        {
          "name": "G#2",
          "midi": 44,
          "time": 83.34727200000046,
          "velocity": 0.5905511811023622,
          "duration": 0.12552300000000116
        },
        {
          "name": "F#3",
          "midi": 54,
          "time": 83.34727200000046,
          "velocity": 0.8346456692913385,
          "duration": 0.12552300000000116
        },
        {
          "name": "G#2",
          "midi": 44,
          "time": 83.34727200000046,
          "velocity": 0.7874015748031497,
          "duration": 0.12552300000000116
        },
        {
          "name": "F#2",
          "midi": 42,
          "time": 83.47279500000046,
          "velocity": 0.6929133858267716,
          "duration": 0.12552300000000116
        },
        {
          "name": "A#2",
          "midi": 46,
          "time": 83.59831800000046,
          "velocity": 0.6929133858267716,
          "duration": 0.12552300000000116
        },
        {
          "name": "F#3",
          "midi": 54,
          "time": 83.59831800000046,
          "velocity": 0.8346456692913385,
          "duration": 0.12552300000000116
        },
        {
          "name": "A#2",
          "midi": 46,
          "time": 83.59831800000046,
          "velocity": 0.6929133858267716,
          "duration": 0.12552300000000116
        },
        {
          "name": "G#2",
          "midi": 44,
          "time": 83.72384100000046,
          "velocity": 0.6929133858267716,
          "duration": 0.12552300000000116
        },
        {
          "name": "F#2",
          "midi": 42,
          "time": 83.72384100000046,
          "velocity": 0.6929133858267716,
          "duration": 0.12552300000000116
        },
        {
          "name": "F#3",
          "midi": 54,
          "time": 83.84936400000046,
          "velocity": 0.8346456692913385,
          "duration": 0.12552300000000116
        },
        {
          "name": "A#2",
          "midi": 46,
          "time": 83.84936400000046,
          "velocity": 0.5826771653543307,
          "duration": 0.12552300000000116
        },
        {
          "name": "G#2",
          "midi": 44,
          "time": 83.97488700000046,
          "velocity": 0.5826771653543307,
          "duration": 0.12552300000000116
        },
        {
          "name": "F#3",
          "midi": 54,
          "time": 84.10041000000047,
          "velocity": 0.8346456692913385,
          "duration": 0.12552300000000116
        },
        {
          "name": "A#2",
          "midi": 46,
          "time": 84.10041000000047,
          "velocity": 0.5039370078740157,
          "duration": 0.12552300000000116
        },
        {
          "name": "G#2",
          "midi": 44,
          "time": 84.22593300000047,
          "velocity": 0.5039370078740157,
          "duration": 0.12552300000000116
        },
        {
          "name": "F#2",
          "midi": 42,
          "time": 87.36400800000047,
          "velocity": 0.6929133858267716,
          "duration": 0.12552300000000116
        },
        {
          "name": "F#3",
          "midi": 54,
          "time": 87.36400800000047,
          "velocity": 0.8346456692913385,
          "duration": 0.12552300000000116
        },
        {
          "name": "F#2",
          "midi": 42,
          "time": 87.74057700000047,
          "velocity": 0.6929133858267716,
          "duration": 0.12552300000000116
        },
        {
          "name": "F#3",
          "midi": 54,
          "time": 87.74057700000047,
          "velocity": 0.8346456692913385,
          "duration": 0.12552300000000116
        },
        {
          "name": "F#3",
          "midi": 54,
          "time": 87.86610000000047,
          "velocity": 0.8346456692913385,
          "duration": 0.12552300000000116
        },
        {
          "name": "G#2",
          "midi": 44,
          "time": 87.86610000000047,
          "velocity": 0.5905511811023622,
          "duration": 0.12552300000000116
        },
        {
          "name": "F#2",
          "midi": 42,
          "time": 87.99162300000047,
          "velocity": 0.6929133858267716,
          "duration": 0.12552300000000116
        },
        {
          "name": "F#3",
          "midi": 54,
          "time": 88.11714600000047,
          "velocity": 0.8346456692913385,
          "duration": 0.12552300000000116
        },
        {
          "name": "A#2",
          "midi": 46,
          "time": 88.11714600000047,
          "velocity": 0.6929133858267716,
          "duration": 0.12552300000000116
        },
        {
          "name": "F#2",
          "midi": 42,
          "time": 88.24266900000048,
          "velocity": 0.6929133858267716,
          "duration": 0.12552300000000116
        },
        {
          "name": "F#3",
          "midi": 54,
          "time": 88.36819200000048,
          "velocity": 0.8346456692913385,
          "duration": 0.12552300000000116
        },
        {
          "name": "F#3",
          "midi": 54,
          "time": 88.61923800000048,
          "velocity": 0.8346456692913385,
          "duration": 0.12552300000000116
        },
        {
          "name": "F#2",
          "midi": 42,
          "time": 88.87028400000048,
          "velocity": 0.6929133858267716,
          "duration": 0.12552300000000116
        },
        {
          "name": "F#3",
          "midi": 54,
          "time": 88.87028400000048,
          "velocity": 0.8346456692913385,
          "duration": 0.12552300000000116
        },
        {
          "name": "F#2",
          "midi": 42,
          "time": 89.24685300000048,
          "velocity": 0.6929133858267716,
          "duration": 0.12552300000000116
        },
        {
          "name": "F#3",
          "midi": 54,
          "time": 89.24685300000048,
          "velocity": 0.8346456692913385,
          "duration": 0.12552300000000116
        },
        {
          "name": "G#2",
          "midi": 44,
          "time": 89.37237600000049,
          "velocity": 0.5905511811023622,
          "duration": 0.12552300000000116
        },
        {
          "name": "F#3",
          "midi": 54,
          "time": 89.37237600000049,
          "velocity": 0.8346456692913385,
          "duration": 0.12552300000000116
        },
        {
          "name": "F#2",
          "midi": 42,
          "time": 89.49789900000049,
          "velocity": 0.6929133858267716,
          "duration": 0.12552300000000116
        },
        {
          "name": "F#3",
          "midi": 54,
          "time": 89.62342200000049,
          "velocity": 0.8346456692913385,
          "duration": 0.12552300000000116
        },
        {
          "name": "A#2",
          "midi": 46,
          "time": 89.62342200000049,
          "velocity": 0.6929133858267716,
          "duration": 0.12552300000000116
        },
        {
          "name": "F#2",
          "midi": 42,
          "time": 89.74894500000049,
          "velocity": 0.6929133858267716,
          "duration": 0.12552300000000116
        },
        {
          "name": "F#3",
          "midi": 54,
          "time": 89.87446800000049,
          "velocity": 0.8346456692913385,
          "duration": 0.12552300000000116
        },
        {
          "name": "F#3",
          "midi": 54,
          "time": 90.12551400000049,
          "velocity": 0.8346456692913385,
          "duration": 0.12552300000000116
        },
        {
          "name": "F#2",
          "midi": 42,
          "time": 90.3765600000005,
          "velocity": 0.6929133858267716,
          "duration": 0.12552300000000116
        },
        {
          "name": "F#3",
          "midi": 54,
          "time": 90.3765600000005,
          "velocity": 0.8346456692913385,
          "duration": 0.12552300000000116
        },
        {
          "name": "F#3",
          "midi": 54,
          "time": 90.7531290000005,
          "velocity": 0.8346456692913385,
          "duration": 0.12552300000000116
        },
        {
          "name": "F#2",
          "midi": 42,
          "time": 90.7531290000005,
          "velocity": 0.6929133858267716,
          "duration": 0.12552300000000116
        },
        {
          "name": "G#2",
          "midi": 44,
          "time": 90.8786520000005,
          "velocity": 0.5905511811023622,
          "duration": 0.12552300000000116
        },
        {
          "name": "F#3",
          "midi": 54,
          "time": 90.8786520000005,
          "velocity": 0.8346456692913385,
          "duration": 0.12552300000000116
        },
        {
          "name": "F#2",
          "midi": 42,
          "time": 91.0041750000005,
          "velocity": 0.6929133858267716,
          "duration": 0.12552300000000116
        },
        {
          "name": "F#3",
          "midi": 54,
          "time": 91.1296980000005,
          "velocity": 0.8346456692913385,
          "duration": 0.12552300000000116
        },
        {
          "name": "A#2",
          "midi": 46,
          "time": 91.1296980000005,
          "velocity": 0.6929133858267716,
          "duration": 0.12552300000000116
        },
        {
          "name": "F#2",
          "midi": 42,
          "time": 91.2552210000005,
          "velocity": 0.6929133858267716,
          "duration": 0.12552300000000116
        },
        {
          "name": "F#3",
          "midi": 54,
          "time": 91.3807440000005,
          "velocity": 0.8346456692913385,
          "duration": 0.12552300000000116
        },
        {
          "name": "F#3",
          "midi": 54,
          "time": 91.6317900000005,
          "velocity": 0.8346456692913385,
          "duration": 0.12552300000000116
        },
        {
          "name": "F#3",
          "midi": 54,
          "time": 91.88283600000051,
          "velocity": 0.8346456692913385,
          "duration": 0.12552300000000116
        },
        {
          "name": "F#2",
          "midi": 42,
          "time": 91.88283600000051,
          "velocity": 0.6929133858267716,
          "duration": 0.12552300000000116
        },
        {
          "name": "F#3",
          "midi": 54,
          "time": 92.25940500000051,
          "velocity": 0.8346456692913385,
          "duration": 0.12552300000000116
        },
        {
          "name": "F#2",
          "midi": 42,
          "time": 92.25940500000051,
          "velocity": 0.6929133858267716,
          "duration": 0.12552300000000116
        },
        {
          "name": "F#3",
          "midi": 54,
          "time": 92.38492800000051,
          "velocity": 0.8346456692913385,
          "duration": 0.12552300000000116
        },
        {
          "name": "G#2",
          "midi": 44,
          "time": 92.38492800000051,
          "velocity": 0.5905511811023622,
          "duration": 0.12552300000000116
        },
        {
          "name": "F#2",
          "midi": 42,
          "time": 92.51045100000051,
          "velocity": 0.6929133858267716,
          "duration": 0.12552300000000116
        },
        {
          "name": "F#3",
          "midi": 54,
          "time": 92.63597400000052,
          "velocity": 0.8346456692913385,
          "duration": 0.12552300000000116
        },
        {
          "name": "A#2",
          "midi": 46,
          "time": 92.63597400000052,
          "velocity": 0.6929133858267716,
          "duration": 0.12552300000000116
        },
        {
          "name": "F#2",
          "midi": 42,
          "time": 92.76149700000052,
          "velocity": 0.6929133858267716,
          "duration": 0.12552300000000116
        },
        {
          "name": "F#3",
          "midi": 54,
          "time": 92.88702000000052,
          "velocity": 0.8346456692913385,
          "duration": 0.12552300000000116
        },
        {
          "name": "F#3",
          "midi": 54,
          "time": 93.13806600000052,
          "velocity": 0.8346456692913385,
          "duration": 0.12552300000000116
        },
        {
          "name": "F#3",
          "midi": 54,
          "time": 93.38911200000052,
          "velocity": 0.8346456692913385,
          "duration": 0.12552300000000116
        },
        {
          "name": "F#2",
          "midi": 42,
          "time": 93.38911200000052,
          "velocity": 0.6929133858267716,
          "duration": 0.12552300000000116
        },
        {
          "name": "F#3",
          "midi": 54,
          "time": 93.76568100000053,
          "velocity": 0.8346456692913385,
          "duration": 0.12552300000000116
        },
        {
          "name": "F#2",
          "midi": 42,
          "time": 93.76568100000053,
          "velocity": 0.6929133858267716,
          "duration": 0.12552300000000116
        },
        {
          "name": "G#2",
          "midi": 44,
          "time": 93.89120400000053,
          "velocity": 0.5905511811023622,
          "duration": 0.12552300000000116
        },
        {
          "name": "F#3",
          "midi": 54,
          "time": 93.89120400000053,
          "velocity": 0.8346456692913385,
          "duration": 0.12552300000000116
        },
        {
          "name": "F#2",
          "midi": 42,
          "time": 94.01672700000053,
          "velocity": 0.6929133858267716,
          "duration": 0.12552300000000116
        },
        {
          "name": "A#2",
          "midi": 46,
          "time": 94.14225000000053,
          "velocity": 0.6929133858267716,
          "duration": 0.12552300000000116
        },
        {
          "name": "F#3",
          "midi": 54,
          "time": 94.14225000000053,
          "velocity": 0.8346456692913385,
          "duration": 0.12552300000000116
        },
        {
          "name": "F#2",
          "midi": 42,
          "time": 94.26777300000053,
          "velocity": 0.6929133858267716,
          "duration": 0.12552300000000116
        },
        {
          "name": "F#3",
          "midi": 54,
          "time": 94.39329600000053,
          "velocity": 0.8346456692913385,
          "duration": 0.12552300000000116
        },
        {
          "name": "F#3",
          "midi": 54,
          "time": 94.64434200000053,
          "velocity": 0.8346456692913385,
          "duration": 0.12552300000000116
        },
        {
          "name": "F#2",
          "midi": 42,
          "time": 94.89538800000054,
          "velocity": 0.6929133858267716,
          "duration": 0.12552300000000116
        },
        {
          "name": "F#3",
          "midi": 54,
          "time": 94.89538800000054,
          "velocity": 0.8346456692913385,
          "duration": 0.12552300000000116
        },
        {
          "name": "F#3",
          "midi": 54,
          "time": 95.27195700000054,
          "velocity": 0.8346456692913385,
          "duration": 0.12552300000000116
        },
        {
          "name": "F#2",
          "midi": 42,
          "time": 95.27195700000054,
          "velocity": 0.6929133858267716,
          "duration": 0.12552300000000116
        },
        {
          "name": "G#2",
          "midi": 44,
          "time": 95.39748000000054,
          "velocity": 0.5905511811023622,
          "duration": 0.12552300000000116
        },
        {
          "name": "F#3",
          "midi": 54,
          "time": 95.39748000000054,
          "velocity": 0.8346456692913385,
          "duration": 0.12552300000000116
        },
        {
          "name": "F#2",
          "midi": 42,
          "time": 95.52300300000054,
          "velocity": 0.6929133858267716,
          "duration": 0.12552300000000116
        },
        {
          "name": "A#2",
          "midi": 46,
          "time": 95.64852600000054,
          "velocity": 0.6929133858267716,
          "duration": 0.12552300000000116
        },
        {
          "name": "F#3",
          "midi": 54,
          "time": 95.64852600000054,
          "velocity": 0.8346456692913385,
          "duration": 0.12552300000000116
        },
        {
          "name": "F#2",
          "midi": 42,
          "time": 95.77404900000055,
          "velocity": 0.6929133858267716,
          "duration": 0.12552300000000116
        },
        {
          "name": "F#3",
          "midi": 54,
          "time": 95.89957200000055,
          "velocity": 0.8346456692913385,
          "duration": 0.12552300000000116
        },
        {
          "name": "F#3",
          "midi": 54,
          "time": 96.15061800000055,
          "velocity": 0.8346456692913385,
          "duration": 0.12552300000000116
        },
        {
          "name": "F#2",
          "midi": 42,
          "time": 96.40166400000055,
          "velocity": 0.6929133858267716,
          "duration": 0.12552300000000116
        },
        {
          "name": "F#3",
          "midi": 54,
          "time": 96.40166400000055,
          "velocity": 0.8346456692913385,
          "duration": 0.12552300000000116
        },
        {
          "name": "F#2",
          "midi": 42,
          "time": 96.77823300000055,
          "velocity": 0.6929133858267716,
          "duration": 0.12552300000000116
        },
        {
          "name": "F#3",
          "midi": 54,
          "time": 96.77823300000055,
          "velocity": 0.8346456692913385,
          "duration": 0.12552300000000116
        },
        {
          "name": "F#3",
          "midi": 54,
          "time": 96.90375600000056,
          "velocity": 0.8346456692913385,
          "duration": 0.12552300000000116
        },
        {
          "name": "G#2",
          "midi": 44,
          "time": 96.90375600000056,
          "velocity": 0.5905511811023622,
          "duration": 0.12552300000000116
        },
        {
          "name": "F#2",
          "midi": 42,
          "time": 97.02927900000056,
          "velocity": 0.6929133858267716,
          "duration": 0.12552300000000116
        },
        {
          "name": "A#2",
          "midi": 46,
          "time": 97.15480200000056,
          "velocity": 0.6929133858267716,
          "duration": 0.12552300000000116
        },
        {
          "name": "F#3",
          "midi": 54,
          "time": 97.15480200000056,
          "velocity": 0.8346456692913385,
          "duration": 0.12552300000000116
        },
        {
          "name": "F#2",
          "midi": 42,
          "time": 97.28032500000056,
          "velocity": 0.6929133858267716,
          "duration": 0.12552300000000116
        },
        {
          "name": "F#3",
          "midi": 54,
          "time": 97.40584800000056,
          "velocity": 0.8346456692913385,
          "duration": 0.12552300000000116
        },
        {
          "name": "F#3",
          "midi": 54,
          "time": 97.65689400000056,
          "velocity": 0.8346456692913385,
          "duration": 0.12552300000000116
        },
        {
          "name": "F#3",
          "midi": 54,
          "time": 97.90794000000056,
          "velocity": 0.8346456692913385,
          "duration": 0.12552300000000116
        },
        {
          "name": "F#2",
          "midi": 42,
          "time": 97.90794000000056,
          "velocity": 0.6929133858267716,
          "duration": 0.12552300000000116
        },
        {
          "name": "F#3",
          "midi": 54,
          "time": 98.28450900000057,
          "velocity": 0.8346456692913385,
          "duration": 0.12552300000000116
        },
        {
          "name": "F#2",
          "midi": 42,
          "time": 98.28450900000057,
          "velocity": 0.6929133858267716,
          "duration": 0.12552300000000116
        },
        {
          "name": "F#3",
          "midi": 54,
          "time": 98.41003200000057,
          "velocity": 0.8346456692913385,
          "duration": 0.12552300000000116
        },
        {
          "name": "G#2",
          "midi": 44,
          "time": 98.41003200000057,
          "velocity": 0.5905511811023622,
          "duration": 0.12552300000000116
        },
        {
          "name": "F#2",
          "midi": 42,
          "time": 98.53555500000057,
          "velocity": 0.6929133858267716,
          "duration": 0.12552300000000116
        },
        {
          "name": "F#3",
          "midi": 54,
          "time": 98.66107800000057,
          "velocity": 0.8346456692913385,
          "duration": 0.12552300000000116
        },
        {
          "name": "A#2",
          "midi": 46,
          "time": 98.66107800000057,
          "velocity": 0.6929133858267716,
          "duration": 0.12552300000000116
        },
        {
          "name": "F#2",
          "midi": 42,
          "time": 98.78660100000057,
          "velocity": 0.6929133858267716,
          "duration": 0.12552300000000116
        },
        {
          "name": "F#3",
          "midi": 54,
          "time": 98.91212400000057,
          "velocity": 0.8346456692913385,
          "duration": 0.12552300000000116
        },
        {
          "name": "F#3",
          "midi": 54,
          "time": 99.16317000000058,
          "velocity": 0.8346456692913385,
          "duration": 0.12552300000000116
        },
        {
          "name": "F#3",
          "midi": 54,
          "time": 99.41421600000058,
          "velocity": 0.8346456692913385,
          "duration": 0.12552300000000116
        },
        {
          "name": "F#2",
          "midi": 42,
          "time": 99.41421600000058,
          "velocity": 0.6929133858267716,
          "duration": 0.12552300000000116
        },
        {
          "name": "F#3",
          "midi": 54,
          "time": 99.79078500000058,
          "velocity": 0.8346456692913385,
          "duration": 0.12552300000000116
        },
        {
          "name": "F#2",
          "midi": 42,
          "time": 99.79078500000058,
          "velocity": 0.6929133858267716,
          "duration": 0.12552300000000116
        },
        {
          "name": "G#2",
          "midi": 44,
          "time": 99.91630800000058,
          "velocity": 0.5905511811023622,
          "duration": 0.12552300000000116
        },
        {
          "name": "F#3",
          "midi": 54,
          "time": 99.91630800000058,
          "velocity": 0.8346456692913385,
          "duration": 0.12552300000000116
        },
        {
          "name": "F#2",
          "midi": 42,
          "time": 100.04183100000058,
          "velocity": 0.6929133858267716,
          "duration": 0.12552300000000116
        },
        {
          "name": "F#3",
          "midi": 54,
          "time": 100.16735400000059,
          "velocity": 0.8346456692913385,
          "duration": 0.12552300000000116
        },
        {
          "name": "A#2",
          "midi": 46,
          "time": 100.16735400000059,
          "velocity": 0.6929133858267716,
          "duration": 0.12552300000000116
        },
        {
          "name": "F#2",
          "midi": 42,
          "time": 100.29287700000059,
          "velocity": 0.6929133858267716,
          "duration": 0.12552300000000116
        },
        {
          "name": "F#3",
          "midi": 54,
          "time": 100.41840000000059,
          "velocity": 0.8346456692913385,
          "duration": 0.12552300000000116
        },
        {
          "name": "F#3",
          "midi": 54,
          "time": 100.66944600000059,
          "velocity": 0.8346456692913385,
          "duration": 0.12552300000000116
        },
        {
          "name": "F#2",
          "midi": 42,
          "time": 100.92049200000059,
          "velocity": 0.6929133858267716,
          "duration": 0.12552300000000116
        },
        {
          "name": "F#3",
          "midi": 54,
          "time": 100.92049200000059,
          "velocity": 0.8346456692913385,
          "duration": 0.12552300000000116
        },
        {
          "name": "F#3",
          "midi": 54,
          "time": 101.2970610000006,
          "velocity": 0.8346456692913385,
          "duration": 0.12552300000000116
        },
        {
          "name": "F#2",
          "midi": 42,
          "time": 101.2970610000006,
          "velocity": 0.6929133858267716,
          "duration": 0.12552300000000116
        },
        {
          "name": "G#2",
          "midi": 44,
          "time": 101.4225840000006,
          "velocity": 0.5905511811023622,
          "duration": 0.12552300000000116
        },
        {
          "name": "F#3",
          "midi": 54,
          "time": 101.4225840000006,
          "velocity": 0.8346456692913385,
          "duration": 0.12552300000000116
        },
        {
          "name": "F#2",
          "midi": 42,
          "time": 101.5481070000006,
          "velocity": 0.6929133858267716,
          "duration": 0.12552300000000116
        },
        {
          "name": "F#3",
          "midi": 54,
          "time": 101.6736300000006,
          "velocity": 0.8346456692913385,
          "duration": 0.12552300000000116
        },
        {
          "name": "A#2",
          "midi": 46,
          "time": 101.6736300000006,
          "velocity": 0.6929133858267716,
          "duration": 0.12552300000000116
        },
        {
          "name": "F#2",
          "midi": 42,
          "time": 101.7991530000006,
          "velocity": 0.6929133858267716,
          "duration": 0.12552300000000116
        },
        {
          "name": "F#3",
          "midi": 54,
          "time": 101.9246760000006,
          "velocity": 0.8346456692913385,
          "duration": 0.12552300000000116
        },
        {
          "name": "F#3",
          "midi": 54,
          "time": 102.1757220000006,
          "velocity": 0.8346456692913385,
          "duration": 0.12552300000000116
        },
        {
          "name": "F#2",
          "midi": 42,
          "time": 102.4267680000006,
          "velocity": 0.6929133858267716,
          "duration": 0.12552300000000116
        },
        {
          "name": "F#3",
          "midi": 54,
          "time": 102.4267680000006,
          "velocity": 0.8346456692913385,
          "duration": 0.12552300000000116
        },
        {
          "name": "F#2",
          "midi": 42,
          "time": 102.80333700000061,
          "velocity": 0.6929133858267716,
          "duration": 0.12552300000000116
        },
        {
          "name": "F#3",
          "midi": 54,
          "time": 102.80333700000061,
          "velocity": 0.8346456692913385,
          "duration": 0.12552300000000116
        },
        {
          "name": "G#2",
          "midi": 44,
          "time": 102.92886000000061,
          "velocity": 0.5905511811023622,
          "duration": 0.12552300000000116
        },
        {
          "name": "F#3",
          "midi": 54,
          "time": 102.92886000000061,
          "velocity": 0.8346456692913385,
          "duration": 0.12552300000000116
        },
        {
          "name": "F#2",
          "midi": 42,
          "time": 103.05438300000061,
          "velocity": 0.6929133858267716,
          "duration": 0.12552300000000116
        },
        {
          "name": "A#2",
          "midi": 46,
          "time": 103.17990600000061,
          "velocity": 0.6929133858267716,
          "duration": 0.12552300000000116
        },
        {
          "name": "F#3",
          "midi": 54,
          "time": 103.17990600000061,
          "velocity": 0.8346456692913385,
          "duration": 0.12552300000000116
        },
        {
          "name": "F#2",
          "midi": 42,
          "time": 103.30542900000061,
          "velocity": 0.6929133858267716,
          "duration": 0.12552300000000116
        },
        {
          "name": "F#3",
          "midi": 54,
          "time": 103.43095200000062,
          "velocity": 0.8346456692913385,
          "duration": 0.12552300000000116
        },
        {
          "name": "F#3",
          "midi": 54,
          "time": 103.68199800000062,
          "velocity": 0.8346456692913385,
          "duration": 0.12552300000000116
        },
        {
          "name": "F#2",
          "midi": 42,
          "time": 103.93304400000062,
          "velocity": 0.6929133858267716,
          "duration": 0.12552300000000116
        },
        {
          "name": "F#3",
          "midi": 54,
          "time": 103.93304400000062,
          "velocity": 0.8346456692913385,
          "duration": 0.12552300000000116
        },
        {
          "name": "F#2",
          "midi": 42,
          "time": 104.30961300000062,
          "velocity": 0.6929133858267716,
          "duration": 0.12552300000000116
        },
        {
          "name": "F#3",
          "midi": 54,
          "time": 104.30961300000062,
          "velocity": 0.8346456692913385,
          "duration": 0.12552300000000116
        },
        {
          "name": "F#3",
          "midi": 54,
          "time": 104.43513600000063,
          "velocity": 0.8346456692913385,
          "duration": 0.12552300000000116
        },
        {
          "name": "G#2",
          "midi": 44,
          "time": 104.43513600000063,
          "velocity": 0.5905511811023622,
          "duration": 0.12552300000000116
        },
        {
          "name": "F#2",
          "midi": 42,
          "time": 104.56065900000063,
          "velocity": 0.6929133858267716,
          "duration": 0.12552300000000116
        },
        {
          "name": "A#2",
          "midi": 46,
          "time": 104.68618200000063,
          "velocity": 0.6929133858267716,
          "duration": 0.12552300000000116
        },
        {
          "name": "F#3",
          "midi": 54,
          "time": 104.68618200000063,
          "velocity": 0.8346456692913385,
          "duration": 0.12552300000000116
        },
        {
          "name": "F#2",
          "midi": 42,
          "time": 104.81170500000063,
          "velocity": 0.6929133858267716,
          "duration": 0.12552300000000116
        },
        {
          "name": "F#3",
          "midi": 54,
          "time": 104.93722800000063,
          "velocity": 0.8346456692913385,
          "duration": 0.12552300000000116
        },
        {
          "name": "F#3",
          "midi": 54,
          "time": 105.18827400000063,
          "velocity": 0.8346456692913385,
          "duration": 0.12552300000000116
        },
        {
          "name": "F#2",
          "midi": 42,
          "time": 105.43932000000063,
          "velocity": 0.6929133858267716,
          "duration": 0.12552300000000116
        },
        {
          "name": "F#3",
          "midi": 54,
          "time": 105.43932000000063,
          "velocity": 0.8346456692913385,
          "duration": 0.12552300000000116
        },
        {
          "name": "F#2",
          "midi": 42,
          "time": 105.81588900000064,
          "velocity": 0.6929133858267716,
          "duration": 0.12552300000000116
        },
        {
          "name": "F#3",
          "midi": 54,
          "time": 105.81588900000064,
          "velocity": 0.8346456692913385,
          "duration": 0.12552300000000116
        },
        {
          "name": "G#2",
          "midi": 44,
          "time": 105.94141200000064,
          "velocity": 0.5905511811023622,
          "duration": 0.12552300000000116
        },
        {
          "name": "F#3",
          "midi": 54,
          "time": 105.94141200000064,
          "velocity": 0.8346456692913385,
          "duration": 0.12552300000000116
        },
        {
          "name": "F#2",
          "midi": 42,
          "time": 106.06693500000064,
          "velocity": 0.6929133858267716,
          "duration": 0.12552300000000116
        },
        {
          "name": "A#2",
          "midi": 46,
          "time": 106.19245800000064,
          "velocity": 0.6929133858267716,
          "duration": 0.12552300000000116
        },
        {
          "name": "F#3",
          "midi": 54,
          "time": 106.19245800000064,
          "velocity": 0.8346456692913385,
          "duration": 0.12552300000000116
        },
        {
          "name": "F#2",
          "midi": 42,
          "time": 106.31798100000064,
          "velocity": 0.6929133858267716,
          "duration": 0.12552300000000116
        },
        {
          "name": "F#3",
          "midi": 54,
          "time": 106.44350400000064,
          "velocity": 0.8346456692913385,
          "duration": 0.12552300000000116
        },
        {
          "name": "F#3",
          "midi": 54,
          "time": 106.69455000000065,
          "velocity": 0.8346456692913385,
          "duration": 0.12552300000000116
        },
        {
          "name": "F#3",
          "midi": 54,
          "time": 106.94559600000065,
          "velocity": 0.8346456692913385,
          "duration": 0.12552300000000116
        },
        {
          "name": "F#2",
          "midi": 42,
          "time": 106.94559600000065,
          "velocity": 0.6929133858267716,
          "duration": 0.12552300000000116
        },
        {
          "name": "F#3",
          "midi": 54,
          "time": 107.32216500000065,
          "velocity": 0.8346456692913385,
          "duration": 0.12552300000000116
        },
        {
          "name": "F#2",
          "midi": 42,
          "time": 107.32216500000065,
          "velocity": 0.6929133858267716,
          "duration": 0.12552300000000116
        },
        {
          "name": "G#2",
          "midi": 44,
          "time": 107.44768800000065,
          "velocity": 0.5905511811023622,
          "duration": 0.12552300000000116
        },
        {
          "name": "F#3",
          "midi": 54,
          "time": 107.44768800000065,
          "velocity": 0.8346456692913385,
          "duration": 0.12552300000000116
        },
        {
          "name": "F#2",
          "midi": 42,
          "time": 107.57321100000065,
          "velocity": 0.6929133858267716,
          "duration": 0.12552300000000116
        },
        {
          "name": "F#3",
          "midi": 54,
          "time": 107.69873400000066,
          "velocity": 0.8346456692913385,
          "duration": 0.12552300000000116
        },
        {
          "name": "A#2",
          "midi": 46,
          "time": 107.69873400000066,
          "velocity": 0.6929133858267716,
          "duration": 0.12552300000000116
        },
        {
          "name": "F#2",
          "midi": 42,
          "time": 107.82425700000066,
          "velocity": 0.6929133858267716,
          "duration": 0.12552300000000116
        },
        {
          "name": "F#3",
          "midi": 54,
          "time": 107.94978000000066,
          "velocity": 0.8346456692913385,
          "duration": 0.12552300000000116
        },
        {
          "name": "F#3",
          "midi": 54,
          "time": 108.20082600000066,
          "velocity": 0.8346456692913385,
          "duration": 0.12552300000000116
        }
      ],
      "controlChanges": {
        "6": [
          {
            "number": 6,
            "time": 0,
            "value": 0.09448818897637795
          },
          {
            "number": 6,
            "time": 0,
            "value": 0.09448818897637795
          },
          {
            "number": 6,
            "time": 0,
            "value": 0.09448818897637795
          },
          {
            "number": 6,
            "time": 108.45187200000066,
            "value": 0.09448818897637795
          },
          {
            "number": 6,
            "time": 108.46233225000066,
            "value": 0.09448818897637795
          },
          {
            "number": 6,
            "time": 108.46233225000066,
            "value": 0.09448818897637795
          }
        ],
        "7": [
          {
            "number": 7,
            "time": 0,
            "value": 0.6692913385826772
          },
          {
            "number": 7,
            "time": 0,
            "value": 0.6692913385826772
          },
          {
            "number": 7,
            "time": 0,
            "value": 0.6692913385826772
          },
          {
            "number": 7,
            "time": 0,
            "value": 0.6692913385826772
          },
          {
            "number": 7,
            "time": 108.45187200000066,
            "value": 0.6692913385826772
          },
          {
            "number": 7,
            "time": 108.46233225000066,
            "value": 0.6692913385826772
          },
          {
            "number": 7,
            "time": 108.46233225000066,
            "value": 0.6692913385826772
          }
        ],
        "10": [
          {
            "number": 10,
            "time": 0,
            "value": 0.5039370078740157
          },
          {
            "number": 10,
            "time": 0,
            "value": 0.5039370078740157
          },
          {
            "number": 10,
            "time": 0,
            "value": 0.5039370078740157
          },
          {
            "number": 10,
            "time": 0,
            "value": 0.5039370078740157
          },
          {
            "number": 10,
            "time": 108.45187200000066,
            "value": 0.5039370078740157
          },
          {
            "number": 10,
            "time": 108.46233225000066,
            "value": 0.5039370078740157
          },
          {
            "number": 10,
            "time": 108.46233225000066,
            "value": 0.5039370078740157
          }
        ],
        "100": [
          {
            "number": 100,
            "time": 0,
            "value": 0
          },
          {
            "number": 100,
            "time": 0,
            "value": 0
          },
          {
            "number": 100,
            "time": 0,
            "value": 0
          },
          {
            "number": 100,
            "time": 108.45187200000066,
            "value": 0
          },
          {
            "number": 100,
            "time": 108.46233225000066,
            "value": 0
          },
          {
            "number": 100,
            "time": 108.46233225000066,
            "value": 0
          }
        ],
        "101": [
          {
            "number": 101,
            "time": 0,
            "value": 0
          },
          {
            "number": 101,
            "time": 0,
            "value": 0
          },
          {
            "number": 101,
            "time": 0,
            "value": 0
          },
          {
            "number": 101,
            "time": 108.45187200000066,
            "value": 0
          },
          {
            "number": 101,
            "time": 108.46233225000066,
            "value": 0
          },
          {
            "number": 101,
            "time": 108.46233225000066,
            "value": 0
          }
        ]
      },
      "id": 21,
      "name": "MIDI out #9",
      "instrumentNumber": 16,
      "instrument": "power kit",
      "instrumentFamily": "drums",
      "channelNumber": 9,
      "isPercussion": true
    }
  ]
}