{
  "header": {
    "PPQ": 96,
    "timeSignature": [
      4,
      4
    ],
    "bpm": 122.99996925000768,
    "name": ""
  },
  "startTime": 0,
  "duration": 243.9024999999996,
  "tracks": [
    {
      "startTime": 0,
      "duration": 0,
      "length": 0,
      "notes": [],
      "controlChanges": {},
      "id": 0
    },
    {
      "startTime": 0,
      "duration": 0,
      "length": 0,
      "notes": [],
      "controlChanges": {},
      "id": 1
    },
    {
      "startTime": 0,
      "duration": 243.9024999999996,
      "length": 1034,
      "notes": [
        {
          "name": "E5",
          "midi": 76,
          "time": 0,
          "velocity": 0.7874015748031497,
          "duration": 0.12195125000000001
        },
        {
          "name": "F5",
          "midi": 77,
          "time": 0.12195125000000001,
          "velocity": 0.7874015748031497,
          "duration": 0.12195125000000001
        },
        {
          "name": "E5",
          "midi": 76,
          "time": 0.24390250000000002,
          "velocity": 0.7874015748031497,
          "duration": 0.12195125000000001
        },
        {
          "name": "D5",
          "midi": 74,
          "time": 0.36585375000000003,
          "velocity": 0.7874015748031497,
          "duration": 0.12195125000000001
        },
        {
          "name": "C5",
          "midi": 72,
          "time": 0.7317075000000001,
          "velocity": 0.7874015748031497,
          "duration": 0.12195125000000007
        },
        {
          "name": "D5",
          "midi": 74,
          "time": 0.8536587500000001,
          "velocity": 0.7874015748031497,
          "duration": 0.12195124999999996
        },
        {
          "name": "C5",
          "midi": 72,
          "time": 0.9756100000000001,
          "velocity": 0.7874015748031497,
          "duration": 0.12195124999999996
        },
        {
          "name": "A4",
          "midi": 69,
          "time": 1.09756125,
          "velocity": 0.7874015748031497,
          "duration": 0.12195124999999996
        },
        {
          "name": "G4",
          "midi": 67,
          "time": 1.463415,
          "velocity": 0.7874015748031497,
          "duration": 0.12195124999999996
        },
        {
          "name": "A4",
          "midi": 69,
          "time": 1.7073174999999998,
          "velocity": 0.7874015748031497,
          "duration": 0.12195124999999996
        },
        {
          "name": "E5",
          "midi": 76,
          "time": 1.9512199999999997,
          "velocity": 0.7874015748031497,
          "duration": 0.12195124999999996
        },
        {
          "name": "F5",
          "midi": 77,
          "time": 2.0731712499999997,
          "velocity": 0.7874015748031497,
          "duration": 0.12195124999999996
        },
        {
          "name": "E5",
          "midi": 76,
          "time": 2.1951224999999996,
          "velocity": 0.7874015748031497,
          "duration": 0.12195124999999996
        },
        {
          "name": "D5",
          "midi": 74,
          "time": 2.3170737499999996,
          "velocity": 0.7874015748031497,
          "duration": 0.12195124999999996
        },
        {
          "name": "C5",
          "midi": 72,
          "time": 2.6829274999999995,
          "velocity": 0.7874015748031497,
          "duration": 0.12195124999999996
        },
        {
          "name": "D5",
          "midi": 74,
          "time": 2.8048787499999994,
          "velocity": 0.7874015748031497,
          "duration": 0.12195124999999996
        },
        {
          "name": "C5",
          "midi": 72,
          "time": 2.9268299999999994,
          "velocity": 0.7874015748031497,
          "duration": 0.12195124999999996
        },
        {
          "name": "A4",
          "midi": 69,
          "time": 3.0487812499999993,
          "velocity": 0.7874015748031497,
          "duration": 0.12195124999999996
        },
        {
          "name": "G#4",
          "midi": 68,
          "time": 3.414634999999999,
          "velocity": 0.7874015748031497,
          "duration": 0.48780500000000027
        },
        {
          "name": "E5",
          "midi": 76,
          "time": 3.9024399999999995,
          "velocity": 0.7874015748031497,
          "duration": 0.1219512500000004
        },
        {
          "name": "F5",
          "midi": 77,
          "time": 4.02439125,
          "velocity": 0.7874015748031497,
          "duration": 0.1219512500000004
        },
        {
          "name": "E5",
          "midi": 76,
          "time": 4.1463425,
          "velocity": 0.7874015748031497,
          "duration": 0.1219512500000004
        },
        {
          "name": "D5",
          "midi": 74,
          "time": 4.268293750000001,
          "velocity": 0.7874015748031497,
          "duration": 0.1219512500000004
        },
        {
          "name": "C5",
          "midi": 72,
          "time": 4.634147500000001,
          "velocity": 0.7874015748031497,
          "duration": 0.1219512500000004
        },
        {
          "name": "D5",
          "midi": 74,
          "time": 4.756098750000001,
          "velocity": 0.7874015748031497,
          "duration": 0.1219512500000004
        },
        {
          "name": "C5",
          "midi": 72,
          "time": 4.878050000000002,
          "velocity": 0.7874015748031497,
          "duration": 0.1219512500000004
        },
        {
          "name": "A4",
          "midi": 69,
          "time": 5.000001250000002,
          "velocity": 0.7874015748031497,
          "duration": 0.1219512500000004
        },
        {
          "name": "G4",
          "midi": 67,
          "time": 5.3658550000000025,
          "velocity": 0.7874015748031497,
          "duration": 0.1219512500000004
        },
        {
          "name": "A4",
          "midi": 69,
          "time": 5.609757500000003,
          "velocity": 0.7874015748031497,
          "duration": 0.1219512500000004
        },
        {
          "name": "E5",
          "midi": 76,
          "time": 5.853660000000004,
          "velocity": 0.7874015748031497,
          "duration": 0.1219512500000004
        },
        {
          "name": "F5",
          "midi": 77,
          "time": 5.9756112500000045,
          "velocity": 0.7874015748031497,
          "duration": 0.1219512500000004
        },
        {
          "name": "E5",
          "midi": 76,
          "time": 6.097562500000005,
          "velocity": 0.7874015748031497,
          "duration": 0.1219512500000004
        },
        {
          "name": "D5",
          "midi": 74,
          "time": 6.219513750000005,
          "velocity": 0.7874015748031497,
          "duration": 0.1219512500000004
        },
        {
          "name": "C5",
          "midi": 72,
          "time": 6.463416250000006,
          "velocity": 0.7874015748031497,
          "duration": 0.1219512500000004
        },
        {
          "name": "D5",
          "midi": 74,
          "time": 6.707318750000007,
          "velocity": 0.7874015748031497,
          "duration": 0.1219512500000004
        },
        {
          "name": "A4",
          "midi": 69,
          "time": 6.951221250000008,
          "velocity": 0.7874015748031497,
          "duration": 0.1219512500000004
        },
        {
          "name": "G#4",
          "midi": 68,
          "time": 7.1951237500000085,
          "velocity": 0.7874015748031497,
          "duration": 0.1219512500000004
        },
        {
          "name": "G4",
          "midi": 67,
          "time": 7.439026250000009,
          "velocity": 0.7874015748031497,
          "duration": 0.1219512500000004
        },
        {
          "name": "F4",
          "midi": 65,
          "time": 7.68292875000001,
          "velocity": 0.7874015748031497,
          "duration": 0.1219512500000004
        },
        {
          "name": "E5",
          "midi": 76,
          "time": 7.8048800000000105,
          "velocity": 0.7874015748031497,
          "duration": 0.1219512500000004
        },
        {
          "name": "F5",
          "midi": 77,
          "time": 7.926831250000011,
          "velocity": 0.7874015748031497,
          "duration": 0.12195124999999951
        },
        {
          "name": "E5",
          "midi": 76,
          "time": 8.04878250000001,
          "velocity": 0.7874015748031497,
          "duration": 0.1219512500000004
        },
        {
          "name": "D5",
          "midi": 74,
          "time": 8.17073375000001,
          "velocity": 0.7874015748031497,
          "duration": 0.3658537499999994
        },
        {
          "name": "C5",
          "midi": 72,
          "time": 8.53658750000001,
          "velocity": 0.7874015748031497,
          "duration": 0.1219512500000004
        },
        {
          "name": "D5",
          "midi": 74,
          "time": 8.65853875000001,
          "velocity": 0.7874015748031497,
          "duration": 0.1219512500000004
        },
        {
          "name": "C5",
          "midi": 72,
          "time": 8.780490000000011,
          "velocity": 0.7874015748031497,
          "duration": 0.1219512500000004
        },
        {
          "name": "A4",
          "midi": 69,
          "time": 8.902441250000011,
          "velocity": 0.7874015748031497,
          "duration": 0.3658537499999994
        },
        {
          "name": "G4",
          "midi": 67,
          "time": 9.26829500000001,
          "velocity": 0.7874015748031497,
          "duration": 0.2439025000000008
        },
        {
          "name": "A4",
          "midi": 69,
          "time": 9.512197500000012,
          "velocity": 0.7874015748031497,
          "duration": 0.2439025000000008
        },
        {
          "name": "E5",
          "midi": 76,
          "time": 9.756100000000012,
          "velocity": 0.7874015748031497,
          "duration": 0.1219512500000004
        },
        {
          "name": "F5",
          "midi": 77,
          "time": 9.878051250000013,
          "velocity": 0.7874015748031497,
          "duration": 0.1219512500000004
        },
        {
          "name": "E5",
          "midi": 76,
          "time": 10.000002500000013,
          "velocity": 0.7874015748031497,
          "duration": 0.1219512500000004
        },
        {
          "name": "D5",
          "midi": 74,
          "time": 10.121953750000014,
          "velocity": 0.7874015748031497,
          "duration": 0.3658537499999994
        },
        {
          "name": "C5",
          "midi": 72,
          "time": 10.487807500000013,
          "velocity": 0.7874015748031497,
          "duration": 0.1219512500000004
        },
        {
          "name": "D5",
          "midi": 74,
          "time": 10.609758750000013,
          "velocity": 0.7874015748031497,
          "duration": 0.1219512500000004
        },
        {
          "name": "C5",
          "midi": 72,
          "time": 10.731710000000014,
          "velocity": 0.7874015748031497,
          "duration": 0.1219512500000004
        },
        {
          "name": "A4",
          "midi": 69,
          "time": 10.853661250000014,
          "velocity": 0.7874015748031497,
          "duration": 0.3658537499999994
        },
        {
          "name": "G#4",
          "midi": 68,
          "time": 11.219515000000014,
          "velocity": 0.7874015748031497,
          "duration": 0.4878049999999998
        },
        {
          "name": "E5",
          "midi": 76,
          "time": 11.707320000000013,
          "velocity": 0.7874015748031497,
          "duration": 0.1219512500000004
        },
        {
          "name": "F5",
          "midi": 77,
          "time": 11.829271250000014,
          "velocity": 0.7874015748031497,
          "duration": 0.1219512500000004
        },
        {
          "name": "E5",
          "midi": 76,
          "time": 11.951222500000014,
          "velocity": 0.7874015748031497,
          "duration": 0.1219512500000004
        },
        {
          "name": "D5",
          "midi": 74,
          "time": 12.073173750000015,
          "velocity": 0.7874015748031497,
          "duration": 0.3658537499999994
        },
        {
          "name": "C5",
          "midi": 72,
          "time": 12.439027500000014,
          "velocity": 0.7874015748031497,
          "duration": 0.1219512500000004
        },
        {
          "name": "D5",
          "midi": 74,
          "time": 12.560978750000015,
          "velocity": 0.7874015748031497,
          "duration": 0.1219512500000004
        },
        {
          "name": "C5",
          "midi": 72,
          "time": 12.682930000000015,
          "velocity": 0.7874015748031497,
          "duration": 0.1219512500000004
        },
        {
          "name": "A4",
          "midi": 69,
          "time": 12.804881250000015,
          "velocity": 0.7874015748031497,
          "duration": 0.3658537499999994
        },
        {
          "name": "G4",
          "midi": 67,
          "time": 13.170735000000015,
          "velocity": 0.7874015748031497,
          "duration": 0.2439025000000008
        },
        {
          "name": "A4",
          "midi": 69,
          "time": 13.414637500000016,
          "velocity": 0.7874015748031497,
          "duration": 0.2439025000000008
        },
        {
          "name": "E5",
          "midi": 76,
          "time": 13.658540000000016,
          "velocity": 0.7874015748031497,
          "duration": 0.1219512500000004
        },
        {
          "name": "F5",
          "midi": 77,
          "time": 13.780491250000017,
          "velocity": 0.7874015748031497,
          "duration": 0.1219512500000004
        },
        {
          "name": "E5",
          "midi": 76,
          "time": 13.902442500000017,
          "velocity": 0.7874015748031497,
          "duration": 0.1219512500000004
        },
        {
          "name": "D5",
          "midi": 74,
          "time": 14.024393750000018,
          "velocity": 0.7874015748031497,
          "duration": 0.1219512500000004
        },
        {
          "name": "C5",
          "midi": 72,
          "time": 14.268296250000018,
          "velocity": 0.7874015748031497,
          "duration": 0.1219512500000004
        },
        {
          "name": "D5",
          "midi": 74,
          "time": 14.51219875000002,
          "velocity": 0.7874015748031497,
          "duration": 0.1219512500000004
        },
        {
          "name": "D4",
          "midi": 62,
          "time": 15.60976000000002,
          "velocity": 0.6456692913385826,
          "duration": 0.4878050000000016
        },
        {
          "name": "F4",
          "midi": 65,
          "time": 15.60976000000002,
          "velocity": 0.6456692913385826,
          "duration": 0.4878050000000016
        },
        {
          "name": "C5",
          "midi": 72,
          "time": 15.60976000000002,
          "velocity": 0.6456692913385826,
          "duration": 0.4878050000000016
        },
        {
          "name": "G5",
          "midi": 79,
          "time": 16.09756500000002,
          "velocity": 0.7874015748031497,
          "duration": 0.2439025000000008
        },
        {
          "name": "C5",
          "midi": 72,
          "time": 16.34146750000002,
          "velocity": 0.7874015748031497,
          "duration": 0.12195124999999862
        },
        {
          "name": "C5",
          "midi": 72,
          "time": 16.46341875000002,
          "velocity": 0.7874015748031497,
          "duration": 0.2439025000000008
        },
        {
          "name": "E5",
          "midi": 76,
          "time": 16.70732125000002,
          "velocity": 0.7874015748031497,
          "duration": 0.2439025000000008
        },
        {
          "name": "E5",
          "midi": 76,
          "time": 16.951223750000022,
          "velocity": 0.7874015748031497,
          "duration": 0.3658537499999994
        },
        {
          "name": "E5",
          "midi": 76,
          "time": 17.560980000000022,
          "velocity": 0.7874015748031497,
          "duration": 0.3658537499999994
        },
        {
          "name": "D4",
          "midi": 62,
          "time": 17.560980000000022,
          "velocity": 0.6456692913385826,
          "duration": 0.3658537499999994
        },
        {
          "name": "G4",
          "midi": 67,
          "time": 17.560980000000022,
          "velocity": 0.6456692913385826,
          "duration": 0.3658537499999994
        },
        {
          "name": "B4",
          "midi": 71,
          "time": 17.560980000000022,
          "velocity": 0.6456692913385826,
          "duration": 0.3658537499999994
        },
        {
          "name": "D5",
          "midi": 74,
          "time": 17.92683375000002,
          "velocity": 0.7874015748031497,
          "duration": 0.6097562500000002
        },
        {
          "name": "C5",
          "midi": 72,
          "time": 19.024395000000023,
          "velocity": 0.7874015748031497,
          "duration": 0.2439025000000008
        },
        {
          "name": "C5",
          "midi": 72,
          "time": 19.268297500000024,
          "velocity": 0.7874015748031497,
          "duration": 0.12195124999999862
        },
        {
          "name": "C5",
          "midi": 72,
          "time": 19.390248750000023,
          "velocity": 0.7874015748031497,
          "duration": 0.30487812499999833
        },
        {
          "name": "F4",
          "midi": 65,
          "time": 19.51220000000002,
          "velocity": 0.6456692913385826,
          "duration": 0.48780499999999805
        },
        {
          "name": "D4",
          "midi": 62,
          "time": 19.51220000000002,
          "velocity": 0.6456692913385826,
          "duration": 0.48780499999999805
        },
        {
          "name": "C5",
          "midi": 72,
          "time": 20.00000500000002,
          "velocity": 0.7874015748031497,
          "duration": 0.2439025000000008
        },
        {
          "name": "C5",
          "midi": 72,
          "time": 20.24390750000002,
          "velocity": 0.7874015748031497,
          "duration": 0.12195124999999862
        },
        {
          "name": "C5",
          "midi": 72,
          "time": 20.36585875000002,
          "velocity": 0.7874015748031497,
          "duration": 0.30487812499999833
        },
        {
          "name": "C5",
          "midi": 72,
          "time": 20.975615000000015,
          "velocity": 0.7874015748031497,
          "duration": 0.12195124999999862
        },
        {
          "name": "D5",
          "midi": 74,
          "time": 21.097566250000014,
          "velocity": 0.7874015748031497,
          "duration": 0.12195124999999862
        },
        {
          "name": "G4",
          "midi": 67,
          "time": 21.34146875000001,
          "velocity": 0.6456692913385826,
          "duration": 0.2439025000000008
        },
        {
          "name": "B4",
          "midi": 71,
          "time": 21.34146875000001,
          "velocity": 0.6456692913385826,
          "duration": 0.2439025000000008
        },
        {
          "name": "D4",
          "midi": 62,
          "time": 21.34146875000001,
          "velocity": 0.6456692913385826,
          "duration": 0.2439025000000008
        },
        {
          "name": "D5",
          "midi": 74,
          "time": 21.34146875000001,
          "velocity": 0.7874015748031497,
          "duration": 0.2439025000000008
        },
        {
          "name": "A4",
          "midi": 69,
          "time": 21.585371250000012,
          "velocity": 0.7874015748031497,
          "duration": 0.4878050000000016
        },
        {
          "name": "A4",
          "midi": 69,
          "time": 22.926835000000015,
          "velocity": 0.7874015748031497,
          "duration": 0.4878050000000016
        },
        {
          "name": "C5",
          "midi": 72,
          "time": 23.414640000000016,
          "velocity": 0.7874015748031497,
          "duration": 0.4878050000000016
        },
        {
          "name": "D4",
          "midi": 62,
          "time": 23.414640000000016,
          "velocity": 0.6456692913385826,
          "duration": 0.4878050000000016
        },
        {
          "name": "F4",
          "midi": 65,
          "time": 23.414640000000016,
          "velocity": 0.6456692913385826,
          "duration": 0.4878050000000016
        },
        {
          "name": "G5",
          "midi": 79,
          "time": 23.902445000000018,
          "velocity": 0.7874015748031497,
          "duration": 0.2439025000000008
        },
        {
          "name": "C5",
          "midi": 72,
          "time": 24.14634750000002,
          "velocity": 0.7874015748031497,
          "duration": 0.12195124999999862
        },
        {
          "name": "C5",
          "midi": 72,
          "time": 24.268298750000017,
          "velocity": 0.7874015748031497,
          "duration": 0.2439025000000008
        },
        {
          "name": "E5",
          "midi": 76,
          "time": 24.512201250000018,
          "velocity": 0.7874015748031497,
          "duration": 0.2439025000000008
        },
        {
          "name": "E5",
          "midi": 76,
          "time": 24.75610375000002,
          "velocity": 0.7874015748031497,
          "duration": 0.3658537499999994
        },
        {
          "name": "B4",
          "midi": 71,
          "time": 25.36586000000002,
          "velocity": 0.6456692913385826,
          "duration": 0.3658537499999994
        },
        {
          "name": "G4",
          "midi": 67,
          "time": 25.36586000000002,
          "velocity": 0.6456692913385826,
          "duration": 0.3658537499999994
        },
        {
          "name": "D4",
          "midi": 62,
          "time": 25.36586000000002,
          "velocity": 0.6456692913385826,
          "duration": 0.3658537499999994
        },
        {
          "name": "E5",
          "midi": 76,
          "time": 25.36586000000002,
          "velocity": 0.7874015748031497,
          "duration": 0.3658537499999994
        },
        {
          "name": "D5",
          "midi": 74,
          "time": 25.73171375000002,
          "velocity": 0.7874015748031497,
          "duration": 0.6097562500000002
        },
        {
          "name": "C5",
          "midi": 72,
          "time": 26.82927500000002,
          "velocity": 0.7874015748031497,
          "duration": 0.2439025000000008
        },
        {
          "name": "C5",
          "midi": 72,
          "time": 27.07317750000002,
          "velocity": 0.7874015748031497,
          "duration": 0.12195124999999862
        },
        {
          "name": "C5",
          "midi": 72,
          "time": 27.19512875000002,
          "velocity": 0.7874015748031497,
          "duration": 0.30487812499999833
        },
        {
          "name": "D4",
          "midi": 62,
          "time": 27.31708000000002,
          "velocity": 0.6456692913385826,
          "duration": 0.48780499999999805
        },
        {
          "name": "F4",
          "midi": 65,
          "time": 27.31708000000002,
          "velocity": 0.6456692913385826,
          "duration": 0.48780499999999805
        },
        {
          "name": "C5",
          "midi": 72,
          "time": 27.804885000000017,
          "velocity": 0.7874015748031497,
          "duration": 0.2439025000000008
        },
        {
          "name": "C5",
          "midi": 72,
          "time": 28.048787500000017,
          "velocity": 0.7874015748031497,
          "duration": 0.12195124999999862
        },
        {
          "name": "C5",
          "midi": 72,
          "time": 28.170738750000016,
          "velocity": 0.7874015748031497,
          "duration": 0.30487812499999833
        },
        {
          "name": "C5",
          "midi": 72,
          "time": 28.780495000000013,
          "velocity": 0.7874015748031497,
          "duration": 0.2439025000000008
        },
        {
          "name": "C5",
          "midi": 72,
          "time": 29.024397500000013,
          "velocity": 0.7874015748031497,
          "duration": 0.12195124999999862
        },
        {
          "name": "B4",
          "midi": 71,
          "time": 29.146348750000012,
          "velocity": 0.6456692913385826,
          "duration": 0.2439025000000008
        },
        {
          "name": "G4",
          "midi": 67,
          "time": 29.146348750000012,
          "velocity": 0.6456692913385826,
          "duration": 0.2439025000000008
        },
        {
          "name": "D4",
          "midi": 62,
          "time": 29.146348750000012,
          "velocity": 0.6456692913385826,
          "duration": 0.2439025000000008
        },
        {
          "name": "C5",
          "midi": 72,
          "time": 29.146348750000012,
          "velocity": 0.7874015748031497,
          "duration": 0.2439025000000008
        },
        {
          "name": "A4",
          "midi": 69,
          "time": 30.48781250000001,
          "velocity": 0.7874015748031497,
          "duration": 0.2439025000000008
        },
        {
          "name": "A4",
          "midi": 69,
          "time": 30.731715000000012,
          "velocity": 0.7874015748031497,
          "duration": 0.2439025000000008
        },
        {
          "name": "C5",
          "midi": 72,
          "time": 30.975617500000013,
          "velocity": 0.7874015748031497,
          "duration": 0.2439025000000008
        },
        {
          "name": "F4",
          "midi": 65,
          "time": 31.219520000000013,
          "velocity": 0.6456692913385826,
          "duration": 0.2439025000000008
        },
        {
          "name": "C5",
          "midi": 72,
          "time": 31.219520000000013,
          "velocity": 0.6456692913385826,
          "duration": 0.2439025000000008
        },
        {
          "name": "E5",
          "midi": 76,
          "time": 31.219520000000013,
          "velocity": 0.7874015748031497,
          "duration": 0.2439025000000008
        },
        {
          "name": "E5",
          "midi": 76,
          "time": 31.463422500000014,
          "velocity": 0.7874015748031497,
          "duration": 0.2439025000000008
        },
        {
          "name": "E5",
          "midi": 76,
          "time": 31.707325000000015,
          "velocity": 0.7874015748031497,
          "duration": 0.2439025000000008
        },
        {
          "name": "E5",
          "midi": 76,
          "time": 31.951227500000016,
          "velocity": 0.7874015748031497,
          "duration": 0.24390249999999725
        },
        {
          "name": "E5",
          "midi": 76,
          "time": 32.19513000000001,
          "velocity": 0.7874015748031497,
          "duration": 0.24390249999999725
        },
        {
          "name": "D5",
          "midi": 74,
          "time": 32.43903250000001,
          "velocity": 0.7874015748031497,
          "duration": 0.24390249999999725
        },
        {
          "name": "E5",
          "midi": 76,
          "time": 32.926837500000005,
          "velocity": 0.7874015748031497,
          "duration": 0.24390249999999725
        },
        {
          "name": "B4",
          "midi": 71,
          "time": 33.17074,
          "velocity": 0.6456692913385826,
          "duration": 0.24390249999999725
        },
        {
          "name": "G4",
          "midi": 67,
          "time": 33.17074,
          "velocity": 0.6456692913385826,
          "duration": 0.24390249999999725
        },
        {
          "name": "D4",
          "midi": 62,
          "time": 33.17074,
          "velocity": 0.6456692913385826,
          "duration": 0.24390249999999725
        },
        {
          "name": "E5",
          "midi": 76,
          "time": 33.4146425,
          "velocity": 0.7874015748031497,
          "duration": 0.24390249999999725
        },
        {
          "name": "D5",
          "midi": 74,
          "time": 33.902447499999994,
          "velocity": 0.7874015748031497,
          "duration": 0.24390249999999725
        },
        {
          "name": "D5",
          "midi": 74,
          "time": 34.39025249999999,
          "velocity": 0.7874015748031497,
          "duration": 0.24390249999999725
        },
        {
          "name": "D5",
          "midi": 74,
          "time": 34.634154999999986,
          "velocity": 0.7874015748031497,
          "duration": 0.24390249999999725
        },
        {
          "name": "G5",
          "midi": 79,
          "time": 34.87805749999998,
          "velocity": 0.7874015748031497,
          "duration": 0.4878049999999945
        },
        {
          "name": "D5",
          "midi": 74,
          "time": 35.12195999999998,
          "velocity": 0.6456692913385826,
          "duration": 0.24390249999999725
        },
        {
          "name": "F5",
          "midi": 77,
          "time": 35.12195999999998,
          "velocity": 0.6456692913385826,
          "duration": 0.24390249999999725
        },
        {
          "name": "G5",
          "midi": 79,
          "time": 35.36586249999998,
          "velocity": 0.7874015748031497,
          "duration": 0.24390249999999725
        },
        {
          "name": "E5",
          "midi": 76,
          "time": 35.609764999999975,
          "velocity": 0.7874015748031497,
          "duration": 0.24390249999999725
        },
        {
          "name": "C5",
          "midi": 72,
          "time": 35.85366749999997,
          "velocity": 0.7874015748031497,
          "duration": 0.24390249999999725
        },
        {
          "name": "C5",
          "midi": 72,
          "time": 36.09756999999997,
          "velocity": 0.7874015748031497,
          "duration": 0.24390249999999725
        },
        {
          "name": "A4",
          "midi": 69,
          "time": 36.341472499999966,
          "velocity": 0.7874015748031497,
          "duration": 0.24390249999999725
        },
        {
          "name": "G4",
          "midi": 67,
          "time": 36.585374999999964,
          "velocity": 0.7874015748031497,
          "duration": 0.24390249999999725
        },
        {
          "name": "A4",
          "midi": 69,
          "time": 36.82927749999996,
          "velocity": 0.7874015748031497,
          "duration": 0.24390249999999725
        },
        {
          "name": "D4",
          "midi": 62,
          "time": 37.07317999999996,
          "velocity": 0.6456692913385826,
          "duration": 0.9756100000000032
        },
        {
          "name": "B4",
          "midi": 71,
          "time": 37.07317999999996,
          "velocity": 0.6456692913385826,
          "duration": 0.9756100000000032
        },
        {
          "name": "G4",
          "midi": 67,
          "time": 37.07317999999996,
          "velocity": 0.6456692913385826,
          "duration": 0.9756100000000032
        },
        {
          "name": "A4",
          "midi": 69,
          "time": 38.29269249999996,
          "velocity": 0.7874015748031497,
          "duration": 0.24390249999999725
        },
        {
          "name": "A4",
          "midi": 69,
          "time": 38.536594999999956,
          "velocity": 0.7874015748031497,
          "duration": 0.24390249999999725
        },
        {
          "name": "C5",
          "midi": 72,
          "time": 38.78049749999995,
          "velocity": 0.7874015748031497,
          "duration": 0.24390249999999725
        },
        {
          "name": "C5",
          "midi": 72,
          "time": 39.02439999999995,
          "velocity": 0.6456692913385826,
          "duration": 0.24390249999999725
        },
        {
          "name": "F4",
          "midi": 65,
          "time": 39.02439999999995,
          "velocity": 0.6456692913385826,
          "duration": 0.24390249999999725
        },
        {
          "name": "E5",
          "midi": 76,
          "time": 39.02439999999995,
          "velocity": 0.7874015748031497,
          "duration": 0.24390249999999725
        },
        {
          "name": "E5",
          "midi": 76,
          "time": 39.26830249999995,
          "velocity": 0.7874015748031497,
          "duration": 0.24390249999999725
        },
        {
          "name": "E5",
          "midi": 76,
          "time": 39.512204999999945,
          "velocity": 0.7874015748031497,
          "duration": 0.24390249999999725
        },
        {
          "name": "E5",
          "midi": 76,
          "time": 39.75610749999994,
          "velocity": 0.7874015748031497,
          "duration": 0.24390249999999725
        },
        {
          "name": "E5",
          "midi": 76,
          "time": 40.00000999999994,
          "velocity": 0.7874015748031497,
          "duration": 0.24390249999999725
        },
        {
          "name": "D5",
          "midi": 74,
          "time": 40.24391249999994,
          "velocity": 0.7874015748031497,
          "duration": 0.24390249999999725
        },
        {
          "name": "E5",
          "midi": 76,
          "time": 40.73171749999993,
          "velocity": 0.7874015748031497,
          "duration": 0.24390249999999725
        },
        {
          "name": "D4",
          "midi": 62,
          "time": 40.97561999999993,
          "velocity": 0.6456692913385826,
          "duration": 0.24390249999999725
        },
        {
          "name": "G4",
          "midi": 67,
          "time": 40.97561999999993,
          "velocity": 0.6456692913385826,
          "duration": 0.24390249999999725
        },
        {
          "name": "B4",
          "midi": 71,
          "time": 40.97561999999993,
          "velocity": 0.6456692913385826,
          "duration": 0.24390249999999725
        },
        {
          "name": "E5",
          "midi": 76,
          "time": 41.219522499999925,
          "velocity": 0.7874015748031497,
          "duration": 0.24390249999999725
        },
        {
          "name": "D5",
          "midi": 74,
          "time": 41.70732749999992,
          "velocity": 0.7874015748031497,
          "duration": 0.24390249999999725
        },
        {
          "name": "D5",
          "midi": 74,
          "time": 42.195132499999914,
          "velocity": 0.7874015748031497,
          "duration": 0.24390249999999725
        },
        {
          "name": "D5",
          "midi": 74,
          "time": 42.43903499999991,
          "velocity": 0.7874015748031497,
          "duration": 0.24390249999999725
        },
        {
          "name": "G5",
          "midi": 79,
          "time": 42.68293749999991,
          "velocity": 0.7874015748031497,
          "duration": 0.4878049999999945
        },
        {
          "name": "D4",
          "midi": 62,
          "time": 42.926839999999906,
          "velocity": 0.6456692913385826,
          "duration": 0.24390249999999725
        },
        {
          "name": "F4",
          "midi": 65,
          "time": 42.926839999999906,
          "velocity": 0.6456692913385826,
          "duration": 0.24390249999999725
        },
        {
          "name": "E5",
          "midi": 76,
          "time": 43.1707424999999,
          "velocity": 0.7874015748031497,
          "duration": 0.4878050000000016
        },
        {
          "name": "C5",
          "midi": 72,
          "time": 43.658547499999905,
          "velocity": 0.7874015748031497,
          "duration": 0.4878050000000016
        },
        {
          "name": "A4",
          "midi": 69,
          "time": 44.14635249999991,
          "velocity": 0.7874015748031497,
          "duration": 0.24390249999999725
        },
        {
          "name": "C5",
          "midi": 72,
          "time": 44.390254999999904,
          "velocity": 0.7874015748031497,
          "duration": 0.24390249999999725
        },
        {
          "name": "D4",
          "midi": 62,
          "time": 44.6341574999999,
          "velocity": 0.6456692913385826,
          "duration": 0.24390249999999725
        },
        {
          "name": "G4",
          "midi": 67,
          "time": 44.6341574999999,
          "velocity": 0.6456692913385826,
          "duration": 0.24390249999999725
        },
        {
          "name": "B4",
          "midi": 71,
          "time": 44.6341574999999,
          "velocity": 0.6456692913385826,
          "duration": 0.24390249999999725
        },
        {
          "name": "D5",
          "midi": 74,
          "time": 44.6341574999999,
          "velocity": 0.7874015748031497,
          "duration": 0.24390249999999725
        },
        {
          "name": "E5",
          "midi": 76,
          "time": 44.8780599999999,
          "velocity": 0.7874015748031497,
          "duration": 0.12195125000000218
        },
        {
          "name": "F5",
          "midi": 77,
          "time": 45.0000112499999,
          "velocity": 0.7874015748031497,
          "duration": 0.12195125000000218
        },
        {
          "name": "E5",
          "midi": 76,
          "time": 45.1219624999999,
          "velocity": 0.7874015748031497,
          "duration": 0.12195125000000218
        },
        {
          "name": "D5",
          "midi": 74,
          "time": 45.243913749999905,
          "velocity": 0.7874015748031497,
          "duration": 0.12195125000000218
        },
        {
          "name": "D4",
          "midi": 62,
          "time": 45.609767499999904,
          "velocity": 0.7874015748031497,
          "duration": 0.24390249999999725
        },
        {
          "name": "D5",
          "midi": 74,
          "time": 45.609767499999904,
          "velocity": 0.7874015748031497,
          "duration": 0.24390249999999725
        },
        {
          "name": "D4",
          "midi": 62,
          "time": 45.8536699999999,
          "velocity": 0.7874015748031497,
          "duration": 0.24390249999999725
        },
        {
          "name": "D5",
          "midi": 74,
          "time": 45.8536699999999,
          "velocity": 0.7874015748031497,
          "duration": 0.24390249999999725
        },
        {
          "name": "D5",
          "midi": 74,
          "time": 46.0975724999999,
          "velocity": 0.7874015748031497,
          "duration": 0.24390249999999725
        },
        {
          "name": "D4",
          "midi": 62,
          "time": 46.0975724999999,
          "velocity": 0.7874015748031497,
          "duration": 0.24390249999999725
        },
        {
          "name": "F5",
          "midi": 77,
          "time": 46.341474999999896,
          "velocity": 0.7874015748031497,
          "duration": 0.24390249999999725
        },
        {
          "name": "F4",
          "midi": 65,
          "time": 46.341474999999896,
          "velocity": 0.7874015748031497,
          "duration": 0.24390249999999725
        },
        {
          "name": "D4",
          "midi": 62,
          "time": 46.58537749999989,
          "velocity": 0.7874015748031497,
          "duration": 0.24390249999999725
        },
        {
          "name": "D5",
          "midi": 74,
          "time": 46.58537749999989,
          "velocity": 0.7874015748031497,
          "duration": 0.24390249999999725
        },
        {
          "name": "A4",
          "midi": 69,
          "time": 46.82927999999989,
          "velocity": 0.7874015748031497,
          "duration": 0.4878050000000016
        },
        {
          "name": "A5",
          "midi": 81,
          "time": 46.82927999999989,
          "velocity": 0.7874015748031497,
          "duration": 0.4878050000000016
        },
        {
          "name": "C6",
          "midi": 84,
          "time": 47.31708499999989,
          "velocity": 0.7874015748031497,
          "duration": 0.24390249999999725
        },
        {
          "name": "C5",
          "midi": 72,
          "time": 47.31708499999989,
          "velocity": 0.7874015748031497,
          "duration": 0.24390249999999725
        },
        {
          "name": "C6",
          "midi": 84,
          "time": 47.56098749999989,
          "velocity": 0.7874015748031497,
          "duration": 0.12195124999999507
        },
        {
          "name": "C7",
          "midi": 96,
          "time": 47.62704442708322,
          "velocity": 0.7165354330708661,
          "duration": 0.12195124999999507
        },
        {
          "name": "C6",
          "midi": 84,
          "time": 47.682938749999884,
          "velocity": 0.7165354330708661,
          "duration": 0.12195124999999507
        },
        {
          "name": "C7",
          "midi": 96,
          "time": 47.748995677083215,
          "velocity": 0.7165354330708661,
          "duration": 0.12195124999999507
        },
        {
          "name": "C6",
          "midi": 84,
          "time": 47.80488999999988,
          "velocity": 0.7007874015748031,
          "duration": 0.12195124999999507
        },
        {
          "name": "C7",
          "midi": 96,
          "time": 47.87094692708321,
          "velocity": 0.6929133858267716,
          "duration": 0.12195124999999507
        },
        {
          "name": "C6",
          "midi": 84,
          "time": 47.926841249999875,
          "velocity": 0.6692913385826772,
          "duration": 0.12195124999999507
        },
        {
          "name": "C7",
          "midi": 96,
          "time": 47.992898177083205,
          "velocity": 0.6220472440944882,
          "duration": 0.12195124999999507
        },
        {
          "name": "C6",
          "midi": 84,
          "time": 48.04879249999987,
          "velocity": 0.5590551181102362,
          "duration": 0.12195124999999507
        },
        {
          "name": "C7",
          "midi": 96,
          "time": 48.1148494270832,
          "velocity": 0.4566929133858268,
          "duration": 0.12195124999999507
        },
        {
          "name": "C6",
          "midi": 84,
          "time": 48.170743749999865,
          "velocity": 0.4251968503937008,
          "duration": 0.12195124999999507
        },
        {
          "name": "C7",
          "midi": 96,
          "time": 48.236800677083195,
          "velocity": 0.47244094488188976,
          "duration": 0.12195124999999507
        },
        {
          "name": "C6",
          "midi": 84,
          "time": 48.29269499999986,
          "velocity": 0.4251968503937008,
          "duration": 0.12195124999999507
        },
        {
          "name": "C7",
          "midi": 96,
          "time": 48.35875192708319,
          "velocity": 0.4015748031496063,
          "duration": 0.12195124999999507
        },
        {
          "name": "C6",
          "midi": 84,
          "time": 48.414646249999855,
          "velocity": 0.4015748031496063,
          "duration": 0.12195124999999507
        },
        {
          "name": "C7",
          "midi": 96,
          "time": 48.480703177083186,
          "velocity": 0.3858267716535433,
          "duration": 0.12195124999999507
        },
        {
          "name": "C6",
          "midi": 84,
          "time": 48.53659749999985,
          "velocity": 0.36220472440944884,
          "duration": 0.12195124999999507
        },
        {
          "name": "C7",
          "midi": 96,
          "time": 48.60265442708318,
          "velocity": 0.36220472440944884,
          "duration": 0.12195124999999507
        },
        {
          "name": "C6",
          "midi": 84,
          "time": 48.658548749999845,
          "velocity": 0.33070866141732286,
          "duration": 0.12195124999999507
        },
        {
          "name": "C7",
          "midi": 96,
          "time": 48.724605677083176,
          "velocity": 0.31496062992125984,
          "duration": 0.12195124999999507
        },
        {
          "name": "C6",
          "midi": 84,
          "time": 48.78049999999984,
          "velocity": 0.31496062992125984,
          "duration": 0.12195124999999507
        },
        {
          "name": "C7",
          "midi": 96,
          "time": 48.84655692708317,
          "velocity": 0.3779527559055118,
          "duration": 0.12195124999999507
        },
        {
          "name": "C6",
          "midi": 84,
          "time": 48.902451249999835,
          "velocity": 0.4251968503937008,
          "duration": 0.12195124999999507
        },
        {
          "name": "C7",
          "midi": 96,
          "time": 48.968508177083166,
          "velocity": 0.48031496062992124,
          "duration": 0.12195124999999507
        },
        {
          "name": "C6",
          "midi": 84,
          "time": 49.02440249999983,
          "velocity": 0.48031496062992124,
          "duration": 0.12195124999999507
        },
        {
          "name": "C7",
          "midi": 96,
          "time": 49.09045942708316,
          "velocity": 0.5039370078740157,
          "duration": 0.12195124999999507
        },
        {
          "name": "C6",
          "midi": 84,
          "time": 49.146353749999825,
          "velocity": 0.5748031496062992,
          "duration": 0.12195124999999507
        },
        {
          "name": "C7",
          "midi": 96,
          "time": 49.212410677083156,
          "velocity": 0.6220472440944882,
          "duration": 0.12195124999999507
        },
        {
          "name": "C6",
          "midi": 84,
          "time": 49.26830499999982,
          "velocity": 0.6456692913385826,
          "duration": 0.12195124999999507
        },
        {
          "name": "C7",
          "midi": 96,
          "time": 49.33436192708315,
          "velocity": 0.6535433070866141,
          "duration": 0.12195124999999507
        },
        {
          "name": "C6",
          "midi": 84,
          "time": 49.390256249999815,
          "velocity": 0.6535433070866141,
          "duration": 0.12195124999999507
        },
        {
          "name": "C7",
          "midi": 96,
          "time": 49.456313177083146,
          "velocity": 0.7007874015748031,
          "duration": 0.12195124999999507
        },
        {
          "name": "C6",
          "midi": 84,
          "time": 49.51220749999981,
          "velocity": 0.7480314960629921,
          "duration": 0.12195124999999507
        },
        {
          "name": "C7",
          "midi": 96,
          "time": 49.57826442708314,
          "velocity": 0.7637795275590551,
          "duration": 0.12195124999999507
        },
        {
          "name": "C6",
          "midi": 84,
          "time": 49.634158749999806,
          "velocity": 0.8818897637795275,
          "duration": 0.1829268749999997
        },
        {
          "name": "C7",
          "midi": 96,
          "time": 49.700215677083136,
          "velocity": 0.9606299212598425,
          "duration": 0.17784557291666658
        },
        {
          "name": "C6",
          "midi": 84,
          "time": 49.9390368749998,
          "velocity": 0.937007874015748,
          "duration": 0.4878050000000016
        },
        {
          "name": "C5",
          "midi": 72,
          "time": 49.9390368749998,
          "velocity": 0.937007874015748,
          "duration": 0.4878050000000016
        },
        {
          "name": "D5",
          "midi": 74,
          "time": 50.4268418749998,
          "velocity": 0.7874015748031497,
          "duration": 0.4878050000000016
        },
        {
          "name": "D6",
          "midi": 86,
          "time": 50.4268418749998,
          "velocity": 0.7874015748031497,
          "duration": 0.4878050000000016
        },
        {
          "name": "A4",
          "midi": 69,
          "time": 51.219524999999805,
          "velocity": 0.7874015748031497,
          "duration": 0.24390249999999725
        },
        {
          "name": "A5",
          "midi": 81,
          "time": 51.219524999999805,
          "velocity": 0.7874015748031497,
          "duration": 0.24390249999999725
        },
        {
          "name": "G#5",
          "midi": 80,
          "time": 51.4634274999998,
          "velocity": 0.7874015748031497,
          "duration": 0.24390249999999725
        },
        {
          "name": "G#4",
          "midi": 68,
          "time": 51.4634274999998,
          "velocity": 0.7874015748031497,
          "duration": 0.24390249999999725
        },
        {
          "name": "G5",
          "midi": 79,
          "time": 51.7073299999998,
          "velocity": 0.7874015748031497,
          "duration": 0.24390249999999725
        },
        {
          "name": "G4",
          "midi": 67,
          "time": 51.7073299999998,
          "velocity": 0.7874015748031497,
          "duration": 0.24390249999999725
        },
        {
          "name": "F4",
          "midi": 65,
          "time": 51.9512324999998,
          "velocity": 0.7874015748031497,
          "duration": 0.24390249999999725
        },
        {
          "name": "F5",
          "midi": 77,
          "time": 51.9512324999998,
          "velocity": 0.7874015748031497,
          "duration": 0.24390249999999725
        },
        {
          "name": "F4",
          "midi": 65,
          "time": 52.43903749999979,
          "velocity": 0.7874015748031497,
          "duration": 0.24390249999999725
        },
        {
          "name": "F5",
          "midi": 77,
          "time": 52.43903749999979,
          "velocity": 0.7874015748031497,
          "duration": 0.24390249999999725
        },
        {
          "name": "G4",
          "midi": 67,
          "time": 52.68293999999979,
          "velocity": 0.7874015748031497,
          "duration": 0.24390249999999725
        },
        {
          "name": "G5",
          "midi": 79,
          "time": 52.68293999999979,
          "velocity": 0.7874015748031497,
          "duration": 0.24390249999999725
        },
        {
          "name": "G4",
          "midi": 67,
          "time": 53.04879374999979,
          "velocity": 0.7874015748031497,
          "duration": 0.3658537499999994
        },
        {
          "name": "G5",
          "midi": 79,
          "time": 53.04879374999979,
          "velocity": 0.7874015748031497,
          "duration": 0.3658537499999994
        },
        {
          "name": "F4",
          "midi": 65,
          "time": 53.41464749999979,
          "velocity": 0.7874015748031497,
          "duration": 0.3658537499999994
        },
        {
          "name": "F5",
          "midi": 77,
          "time": 53.41464749999979,
          "velocity": 0.7874015748031497,
          "duration": 0.3658537499999994
        },
        {
          "name": "F4",
          "midi": 65,
          "time": 54.390257499999784,
          "velocity": 0.7874015748031497,
          "duration": 0.24390249999999725
        },
        {
          "name": "F5",
          "midi": 77,
          "time": 54.390257499999784,
          "velocity": 0.7874015748031497,
          "duration": 0.24390249999999725
        },
        {
          "name": "A4",
          "midi": 69,
          "time": 54.63415999999978,
          "velocity": 0.7874015748031497,
          "duration": 0.4878050000000016
        },
        {
          "name": "A5",
          "midi": 81,
          "time": 54.63415999999978,
          "velocity": 0.7874015748031497,
          "duration": 0.4878050000000016
        },
        {
          "name": "C6",
          "midi": 84,
          "time": 55.12196499999978,
          "velocity": 0.7874015748031497,
          "duration": 0.24390249999999725
        },
        {
          "name": "C5",
          "midi": 72,
          "time": 55.12196499999978,
          "velocity": 0.7874015748031497,
          "duration": 0.24390249999999725
        },
        {
          "name": "C5",
          "midi": 72,
          "time": 55.36586749999978,
          "velocity": 0.7874015748031497,
          "duration": 0.12195124999999507
        },
        {
          "name": "C6",
          "midi": 84,
          "time": 55.43192442708311,
          "velocity": 0.7401574803149606,
          "duration": 0.12195124999999507
        },
        {
          "name": "C5",
          "midi": 72,
          "time": 55.487818749999775,
          "velocity": 0.7401574803149606,
          "duration": 0.12195124999999507
        },
        {
          "name": "C6",
          "midi": 84,
          "time": 55.553875677083106,
          "velocity": 0.6299212598425197,
          "duration": 0.12195124999999507
        },
        {
          "name": "C5",
          "midi": 72,
          "time": 55.60976999999977,
          "velocity": 0.6929133858267716,
          "duration": 0.12195124999999507
        },
        {
          "name": "C6",
          "midi": 84,
          "time": 55.6758269270831,
          "velocity": 0.6929133858267716,
          "duration": 0.12195124999999507
        },
        {
          "name": "C5",
          "midi": 72,
          "time": 55.731721249999765,
          "velocity": 0.6929133858267716,
          "duration": 0.12195124999999507
        },
        {
          "name": "C6",
          "midi": 84,
          "time": 55.797778177083096,
          "velocity": 0.6771653543307087,
          "duration": 0.12195124999999507
        },
        {
          "name": "C5",
          "midi": 72,
          "time": 55.85367249999976,
          "velocity": 0.6220472440944882,
          "duration": 0.12195124999999507
        },
        {
          "name": "C6",
          "midi": 84,
          "time": 55.91972942708309,
          "velocity": 0.5590551181102362,
          "duration": 0.12195124999999507
        },
        {
          "name": "C5",
          "midi": 72,
          "time": 55.975623749999755,
          "velocity": 0.6220472440944882,
          "duration": 0.12195124999999507
        },
        {
          "name": "C6",
          "midi": 84,
          "time": 56.041680677083086,
          "velocity": 0.6220472440944882,
          "duration": 0.12195124999999507
        },
        {
          "name": "C5",
          "midi": 72,
          "time": 56.09757499999975,
          "velocity": 0.5354330708661418,
          "duration": 0.12195124999999507
        },
        {
          "name": "C6",
          "midi": 84,
          "time": 56.16363192708308,
          "velocity": 0.5039370078740157,
          "duration": 0.12195124999999507
        },
        {
          "name": "C5",
          "midi": 72,
          "time": 56.219526249999745,
          "velocity": 0.47244094488188976,
          "duration": 0.12195124999999507
        },
        {
          "name": "C6",
          "midi": 84,
          "time": 56.285583177083076,
          "velocity": 0.4330708661417323,
          "duration": 0.12195124999999507
        },
        {
          "name": "C5",
          "midi": 72,
          "time": 56.34147749999974,
          "velocity": 0.4251968503937008,
          "duration": 0.12195124999999507
        },
        {
          "name": "C6",
          "midi": 84,
          "time": 56.40753442708307,
          "velocity": 0.4015748031496063,
          "duration": 0.12195124999999507
        },
        {
          "name": "C5",
          "midi": 72,
          "time": 56.463428749999736,
          "velocity": 0.4015748031496063,
          "duration": 0.12195124999999507
        },
        {
          "name": "C6",
          "midi": 84,
          "time": 56.529485677083066,
          "velocity": 0.4015748031496063,
          "duration": 0.12195124999999507
        },
        {
          "name": "C5",
          "midi": 72,
          "time": 56.58537999999973,
          "velocity": 0.4015748031496063,
          "duration": 0.12195124999999507
        },
        {
          "name": "C6",
          "midi": 84,
          "time": 56.65143692708306,
          "velocity": 0.4015748031496063,
          "duration": 0.12195124999999507
        },
        {
          "name": "C5",
          "midi": 72,
          "time": 56.707331249999726,
          "velocity": 0.4015748031496063,
          "duration": 0.12195124999999507
        },
        {
          "name": "C6",
          "midi": 84,
          "time": 56.773388177083056,
          "velocity": 0.4015748031496063,
          "duration": 0.12195124999999507
        },
        {
          "name": "C5",
          "midi": 72,
          "time": 56.82928249999972,
          "velocity": 0.30708661417322836,
          "duration": 0.12195124999999507
        },
        {
          "name": "C6",
          "midi": 84,
          "time": 56.89533942708305,
          "velocity": 0.4015748031496063,
          "duration": 0.12195124999999507
        },
        {
          "name": "C5",
          "midi": 72,
          "time": 56.951233749999716,
          "velocity": 0.4015748031496063,
          "duration": 0.12195124999999507
        },
        {
          "name": "C6",
          "midi": 84,
          "time": 57.01729067708305,
          "velocity": 0.4094488188976378,
          "duration": 0.12195124999999507
        },
        {
          "name": "C5",
          "midi": 72,
          "time": 57.07318499999971,
          "velocity": 0.44881889763779526,
          "duration": 0.12195124999999507
        },
        {
          "name": "C6",
          "midi": 84,
          "time": 57.13924192708304,
          "velocity": 0.44881889763779526,
          "duration": 0.12195124999999507
        },
        {
          "name": "C5",
          "midi": 72,
          "time": 57.195136249999706,
          "velocity": 0.5118110236220472,
          "duration": 0.12195124999999507
        },
        {
          "name": "C6",
          "midi": 84,
          "time": 57.26119317708304,
          "velocity": 0.6299212598425197,
          "duration": 0.12195124999999507
        },
        {
          "name": "C5",
          "midi": 72,
          "time": 57.3170874999997,
          "velocity": 0.7165354330708661,
          "duration": 0.12195124999999507
        },
        {
          "name": "C6",
          "midi": 84,
          "time": 57.38314442708303,
          "velocity": 0.7952755905511811,
          "duration": 0.12195124999999507
        },
        {
          "name": "C5",
          "midi": 72,
          "time": 57.439038749999696,
          "velocity": 0.952755905511811,
          "duration": 0.1829268749999997
        },
        {
          "name": "C6",
          "midi": 84,
          "time": 57.50509567708303,
          "velocity": 0.8818897637795275,
          "duration": 0.17784557291666658
        },
        {
          "name": "C7",
          "midi": 96,
          "time": 57.804892499999696,
          "velocity": 0.952755905511811,
          "duration": 0.4878050000000016
        },
        {
          "name": "C6",
          "midi": 84,
          "time": 57.804892499999696,
          "velocity": 0.952755905511811,
          "duration": 0.4878050000000016
        },
        {
          "name": "D6",
          "midi": 86,
          "time": 58.2926974999997,
          "velocity": 0.7874015748031497,
          "duration": 0.4878050000000016
        },
        {
          "name": "D7",
          "midi": 98,
          "time": 58.2926974999997,
          "velocity": 0.7874015748031497,
          "duration": 0.4878050000000016
        },
        {
          "name": "A6",
          "midi": 93,
          "time": 59.024404999999696,
          "velocity": 0.7874015748031497,
          "duration": 0.24390249999999725
        },
        {
          "name": "A5",
          "midi": 81,
          "time": 59.024404999999696,
          "velocity": 0.7874015748031497,
          "duration": 0.24390249999999725
        },
        {
          "name": "G#6",
          "midi": 92,
          "time": 59.26830749999969,
          "velocity": 0.7874015748031497,
          "duration": 0.24390249999999725
        },
        {
          "name": "G#5",
          "midi": 80,
          "time": 59.26830749999969,
          "velocity": 0.7874015748031497,
          "duration": 0.24390249999999725
        },
        {
          "name": "G5",
          "midi": 79,
          "time": 59.51220999999969,
          "velocity": 0.7874015748031497,
          "duration": 0.24390249999999725
        },
        {
          "name": "G6",
          "midi": 91,
          "time": 59.51220999999969,
          "velocity": 0.7874015748031497,
          "duration": 0.24390249999999725
        },
        {
          "name": "F5",
          "midi": 77,
          "time": 59.75611249999969,
          "velocity": 0.7874015748031497,
          "duration": 0.24390249999999725
        },
        {
          "name": "F6",
          "midi": 89,
          "time": 59.75611249999969,
          "velocity": 0.7874015748031497,
          "duration": 0.24390249999999725
        },
        {
          "name": "F6",
          "midi": 89,
          "time": 60.24391749999968,
          "velocity": 0.7874015748031497,
          "duration": 0.24390249999999725
        },
        {
          "name": "F5",
          "midi": 77,
          "time": 60.24391749999968,
          "velocity": 0.7874015748031497,
          "duration": 0.24390249999999725
        },
        {
          "name": "G6",
          "midi": 91,
          "time": 60.48781999999968,
          "velocity": 0.7874015748031497,
          "duration": 0.24390249999999725
        },
        {
          "name": "G5",
          "midi": 79,
          "time": 60.48781999999968,
          "velocity": 0.7874015748031497,
          "duration": 0.24390249999999725
        },
        {
          "name": "G6",
          "midi": 91,
          "time": 60.85367374999968,
          "velocity": 0.7874015748031497,
          "duration": 0.3658537499999994
        },
        {
          "name": "G5",
          "midi": 79,
          "time": 60.85367374999968,
          "velocity": 0.7874015748031497,
          "duration": 0.3658537499999994
        },
        {
          "name": "F6",
          "midi": 89,
          "time": 61.21952749999968,
          "velocity": 0.7874015748031497,
          "duration": 0.7317074999999988
        },
        {
          "name": "F5",
          "midi": 77,
          "time": 61.21952749999968,
          "velocity": 0.7874015748031497,
          "duration": 0.7317074999999988
        },
        {
          "name": "D4",
          "midi": 62,
          "time": 62.43903999999968,
          "velocity": 0.7637795275590551,
          "duration": 1.9512200000000064
        },
        {
          "name": "F4",
          "midi": 65,
          "time": 62.43903999999968,
          "velocity": 0.7637795275590551,
          "duration": 1.9512200000000064
        },
        {
          "name": "A4",
          "midi": 69,
          "time": 62.43903999999968,
          "velocity": 0.7637795275590551,
          "duration": 1.9512200000000064
        },
        {
          "name": "C5",
          "midi": 72,
          "time": 63.65855249999968,
          "velocity": 0.7637795275590551,
          "duration": 0.36585375000000653
        },
        {
          "name": "D5",
          "midi": 74,
          "time": 64.02440624999969,
          "velocity": 0.7637795275590551,
          "duration": 0.3658537499999994
        },
        {
          "name": "G4",
          "midi": 67,
          "time": 64.39025999999969,
          "velocity": 0.7637795275590551,
          "duration": 0.7317074999999988
        },
        {
          "name": "D#5",
          "midi": 75,
          "time": 64.39025999999969,
          "velocity": 0.7637795275590551,
          "duration": 0.7317074999999988
        },
        {
          "name": "F4",
          "midi": 65,
          "time": 65.12196749999968,
          "velocity": 0.7637795275590551,
          "duration": 1.2195125000000075
        },
        {
          "name": "D5",
          "midi": 74,
          "time": 65.12196749999968,
          "velocity": 0.7637795275590551,
          "duration": 0.9756100000000032
        },
        {
          "name": "D4",
          "midi": 62,
          "time": 66.34147999999969,
          "velocity": 0.7637795275590551,
          "duration": 1.9512199999999922
        },
        {
          "name": "F4",
          "midi": 65,
          "time": 66.34147999999969,
          "velocity": 0.7637795275590551,
          "duration": 1.9512199999999922
        },
        {
          "name": "A4",
          "midi": 69,
          "time": 66.34147999999969,
          "velocity": 0.7637795275590551,
          "duration": 1.9512199999999922
        },
        {
          "name": "C5",
          "midi": 72,
          "time": 67.07318749999969,
          "velocity": 0.7637795275590551,
          "duration": 0.7317074999999988
        },
        {
          "name": "D5",
          "midi": 74,
          "time": 67.80489499999969,
          "velocity": 0.7637795275590551,
          "duration": 0.4878049999999945
        },
        {
          "name": "G4",
          "midi": 67,
          "time": 68.29269999999968,
          "velocity": 0.7637795275590551,
          "duration": 0.7317074999999988
        },
        {
          "name": "D#5",
          "midi": 75,
          "time": 68.29269999999968,
          "velocity": 0.7637795275590551,
          "duration": 0.7317074999999988
        },
        {
          "name": "F4",
          "midi": 65,
          "time": 69.02440749999968,
          "velocity": 0.7637795275590551,
          "duration": 1.2195125000000075
        },
        {
          "name": "F5",
          "midi": 77,
          "time": 69.02440749999968,
          "velocity": 0.7637795275590551,
          "duration": 0.9756100000000032
        },
        {
          "name": "D4",
          "midi": 62,
          "time": 70.24391999999969,
          "velocity": 0.7637795275590551,
          "duration": 1.9512199999999922
        },
        {
          "name": "F4",
          "midi": 65,
          "time": 70.24391999999969,
          "velocity": 0.7637795275590551,
          "duration": 1.9512199999999922
        },
        {
          "name": "A4",
          "midi": 69,
          "time": 70.24391999999969,
          "velocity": 0.7637795275590551,
          "duration": 1.9512199999999922
        },
        {
          "name": "C5",
          "midi": 72,
          "time": 71.46343249999968,
          "velocity": 0.7637795275590551,
          "duration": 0.3658537499999994
        },
        {
          "name": "D5",
          "midi": 74,
          "time": 71.82928624999968,
          "velocity": 0.7637795275590551,
          "duration": 0.3658537499999994
        },
        {
          "name": "G4",
          "midi": 67,
          "time": 72.19513999999968,
          "velocity": 0.7637795275590551,
          "duration": 0.7317074999999988
        },
        {
          "name": "D#5",
          "midi": 75,
          "time": 72.19513999999968,
          "velocity": 0.7637795275590551,
          "duration": 0.7317074999999988
        },
        {
          "name": "F4",
          "midi": 65,
          "time": 72.92684749999968,
          "velocity": 0.7637795275590551,
          "duration": 1.2195125000000075
        },
        {
          "name": "D5",
          "midi": 74,
          "time": 72.92684749999968,
          "velocity": 0.7637795275590551,
          "duration": 0.9756100000000032
        },
        {
          "name": "D5",
          "midi": 74,
          "time": 74.14635999999969,
          "velocity": 0.7637795275590551,
          "duration": 1.4634149999999977
        },
        {
          "name": "A4",
          "midi": 69,
          "time": 74.14635999999969,
          "velocity": 0.7637795275590551,
          "duration": 1.9512199999999922
        },
        {
          "name": "F5",
          "midi": 77,
          "time": 74.14635999999969,
          "velocity": 0.7637795275590551,
          "duration": 1.9512199999999922
        },
        {
          "name": "F4",
          "midi": 65,
          "time": 74.14635999999969,
          "velocity": 0.7637795275590551,
          "duration": 1.9512199999999922
        },
        {
          "name": "C5",
          "midi": 72,
          "time": 74.87806749999969,
          "velocity": 0.7637795275590551,
          "duration": 0.7317074999999988
        },
        {
          "name": "D5",
          "midi": 74,
          "time": 75.60977499999969,
          "velocity": 0.7637795275590551,
          "duration": 0.4878049999999945
        },
        {
          "name": "D#5",
          "midi": 75,
          "time": 76.09757999999968,
          "velocity": 0.7637795275590551,
          "duration": 0.7317074999999988
        },
        {
          "name": "G4",
          "midi": 67,
          "time": 76.09757999999968,
          "velocity": 0.7637795275590551,
          "duration": 0.7317074999999988
        },
        {
          "name": "D5",
          "midi": 74,
          "time": 76.82928749999968,
          "velocity": 0.7637795275590551,
          "duration": 1.2195124999999933
        },
        {
          "name": "F4",
          "midi": 65,
          "time": 76.82928749999968,
          "velocity": 0.7637795275590551,
          "duration": 1.2195124999999933
        },
        {
          "name": "D4",
          "midi": 62,
          "time": 78.04879999999967,
          "velocity": 0.6456692913385826,
          "duration": 0.4878049999999945
        },
        {
          "name": "F4",
          "midi": 65,
          "time": 78.04879999999967,
          "velocity": 0.6456692913385826,
          "duration": 0.4878049999999945
        },
        {
          "name": "C5",
          "midi": 72,
          "time": 78.04879999999967,
          "velocity": 0.6456692913385826,
          "duration": 0.4878049999999945
        },
        {
          "name": "G5",
          "midi": 79,
          "time": 78.53660499999967,
          "velocity": 0.7874015748031497,
          "duration": 0.24390250000000435
        },
        {
          "name": "C5",
          "midi": 72,
          "time": 78.78050749999967,
          "velocity": 0.7874015748031497,
          "duration": 0.12195124999999507
        },
        {
          "name": "C5",
          "midi": 72,
          "time": 78.90245874999967,
          "velocity": 0.7874015748031497,
          "duration": 0.24390250000000435
        },
        {
          "name": "E5",
          "midi": 76,
          "time": 79.14636124999967,
          "velocity": 0.7874015748031497,
          "duration": 0.24390250000000435
        },
        {
          "name": "E5",
          "midi": 76,
          "time": 79.39026374999968,
          "velocity": 0.7874015748031497,
          "duration": 0.3658537499999994
        },
        {
          "name": "E5",
          "midi": 76,
          "time": 80.00001999999968,
          "velocity": 0.7874015748031497,
          "duration": 0.3658537499999994
        },
        {
          "name": "D4",
          "midi": 62,
          "time": 80.00001999999968,
          "velocity": 0.6456692913385826,
          "duration": 0.3658537499999994
        },
        {
          "name": "G4",
          "midi": 67,
          "time": 80.00001999999968,
          "velocity": 0.6456692913385826,
          "duration": 0.3658537499999994
        },
        {
          "name": "B4",
          "midi": 71,
          "time": 80.00001999999968,
          "velocity": 0.6456692913385826,
          "duration": 0.3658537499999994
        },
        {
          "name": "D5",
          "midi": 74,
          "time": 80.36587374999968,
          "velocity": 0.7874015748031497,
          "duration": 0.6097562500000038
        },
        {
          "name": "C5",
          "midi": 72,
          "time": 81.46343499999968,
          "velocity": 0.7874015748031497,
          "duration": 0.24390250000000435
        },
        {
          "name": "C5",
          "midi": 72,
          "time": 81.70733749999968,
          "velocity": 0.7874015748031497,
          "duration": 0.12195124999999507
        },
        {
          "name": "C5",
          "midi": 72,
          "time": 81.82928874999968,
          "velocity": 0.7874015748031497,
          "duration": 0.3048781250000019
        },
        {
          "name": "F4",
          "midi": 65,
          "time": 81.95123999999967,
          "velocity": 0.6456692913385826,
          "duration": 0.4878050000000087
        },
        {
          "name": "D4",
          "midi": 62,
          "time": 81.95123999999967,
          "velocity": 0.6456692913385826,
          "duration": 0.4878050000000087
        },
        {
          "name": "C5",
          "midi": 72,
          "time": 82.43904499999968,
          "velocity": 0.7874015748031497,
          "duration": 0.24390250000000435
        },
        {
          "name": "C5",
          "midi": 72,
          "time": 82.68294749999968,
          "velocity": 0.7874015748031497,
          "duration": 0.12195124999999507
        },
        {
          "name": "C5",
          "midi": 72,
          "time": 82.80489874999968,
          "velocity": 0.7874015748031497,
          "duration": 0.3048781250000019
        },
        {
          "name": "C5",
          "midi": 72,
          "time": 83.41465499999968,
          "velocity": 0.7874015748031497,
          "duration": 0.12195124999999507
        },
        {
          "name": "D5",
          "midi": 74,
          "time": 83.53660624999968,
          "velocity": 0.7874015748031497,
          "duration": 0.12195124999999507
        },
        {
          "name": "G4",
          "midi": 67,
          "time": 83.78050874999967,
          "velocity": 0.6456692913385826,
          "duration": 0.24390250000000435
        },
        {
          "name": "B4",
          "midi": 71,
          "time": 83.78050874999967,
          "velocity": 0.6456692913385826,
          "duration": 0.24390250000000435
        },
        {
          "name": "D4",
          "midi": 62,
          "time": 83.78050874999967,
          "velocity": 0.6456692913385826,
          "duration": 0.24390250000000435
        },
        {
          "name": "D5",
          "midi": 74,
          "time": 83.78050874999967,
          "velocity": 0.7874015748031497,
          "duration": 0.24390250000000435
        },
        {
          "name": "A4",
          "midi": 69,
          "time": 84.02441124999967,
          "velocity": 0.7874015748031497,
          "duration": 0.4878049999999945
        },
        {
          "name": "A4",
          "midi": 69,
          "time": 85.36587499999966,
          "velocity": 0.7874015748031497,
          "duration": 0.4878049999999945
        },
        {
          "name": "C5",
          "midi": 72,
          "time": 85.85367999999966,
          "velocity": 0.7874015748031497,
          "duration": 0.4878049999999945
        },
        {
          "name": "D4",
          "midi": 62,
          "time": 85.85367999999966,
          "velocity": 0.6456692913385826,
          "duration": 0.4878049999999945
        },
        {
          "name": "F4",
          "midi": 65,
          "time": 85.85367999999966,
          "velocity": 0.6456692913385826,
          "duration": 0.4878049999999945
        },
        {
          "name": "G5",
          "midi": 79,
          "time": 86.34148499999965,
          "velocity": 0.7874015748031497,
          "duration": 0.24390250000000435
        },
        {
          "name": "C5",
          "midi": 72,
          "time": 86.58538749999965,
          "velocity": 0.7874015748031497,
          "duration": 0.12195124999999507
        },
        {
          "name": "C5",
          "midi": 72,
          "time": 86.70733874999965,
          "velocity": 0.7874015748031497,
          "duration": 0.24390250000000435
        },
        {
          "name": "E5",
          "midi": 76,
          "time": 86.95124124999965,
          "velocity": 0.7874015748031497,
          "duration": 0.24390250000000435
        },
        {
          "name": "E5",
          "midi": 76,
          "time": 87.19514374999966,
          "velocity": 0.7874015748031497,
          "duration": 0.3658537499999994
        },
        {
          "name": "B4",
          "midi": 71,
          "time": 87.80489999999966,
          "velocity": 0.6456692913385826,
          "duration": 0.3658537499999994
        },
        {
          "name": "G4",
          "midi": 67,
          "time": 87.80489999999966,
          "velocity": 0.6456692913385826,
          "duration": 0.3658537499999994
        },
        {
          "name": "D4",
          "midi": 62,
          "time": 87.80489999999966,
          "velocity": 0.6456692913385826,
          "duration": 0.3658537499999994
        },
        {
          "name": "E5",
          "midi": 76,
          "time": 87.80489999999966,
          "velocity": 0.7874015748031497,
          "duration": 0.3658537499999994
        },
        {
          "name": "D5",
          "midi": 74,
          "time": 88.17075374999966,
          "velocity": 0.7874015748031497,
          "duration": 0.6097562500000038
        },
        {
          "name": "C5",
          "midi": 72,
          "time": 89.26831499999966,
          "velocity": 0.7874015748031497,
          "duration": 0.24390250000000435
        },
        {
          "name": "C5",
          "midi": 72,
          "time": 89.51221749999966,
          "velocity": 0.7874015748031497,
          "duration": 0.12195124999999507
        },
        {
          "name": "C5",
          "midi": 72,
          "time": 89.63416874999966,
          "velocity": 0.7874015748031497,
          "duration": 0.3048781250000019
        },
        {
          "name": "D4",
          "midi": 62,
          "time": 89.75611999999965,
          "velocity": 0.6456692913385826,
          "duration": 0.4878050000000087
        },
        {
          "name": "F4",
          "midi": 65,
          "time": 89.75611999999965,
          "velocity": 0.6456692913385826,
          "duration": 0.4878050000000087
        },
        {
          "name": "C5",
          "midi": 72,
          "time": 90.24392499999966,
          "velocity": 0.7874015748031497,
          "duration": 0.24390250000000435
        },
        {
          "name": "C5",
          "midi": 72,
          "time": 90.48782749999967,
          "velocity": 0.7874015748031497,
          "duration": 0.12195124999999507
        },
        {
          "name": "C5",
          "midi": 72,
          "time": 90.60977874999966,
          "velocity": 0.7874015748031497,
          "duration": 0.3048781250000019
        },
        {
          "name": "C5",
          "midi": 72,
          "time": 91.21953499999967,
          "velocity": 0.7874015748031497,
          "duration": 0.24390250000000435
        },
        {
          "name": "C5",
          "midi": 72,
          "time": 91.46343749999967,
          "velocity": 0.7874015748031497,
          "duration": 0.12195124999999507
        },
        {
          "name": "B4",
          "midi": 71,
          "time": 91.58538874999967,
          "velocity": 0.6456692913385826,
          "duration": 0.24390250000000435
        },
        {
          "name": "G4",
          "midi": 67,
          "time": 91.58538874999967,
          "velocity": 0.6456692913385826,
          "duration": 0.24390250000000435
        },
        {
          "name": "D4",
          "midi": 62,
          "time": 91.58538874999967,
          "velocity": 0.6456692913385826,
          "duration": 0.24390250000000435
        },
        {
          "name": "C5",
          "midi": 72,
          "time": 91.58538874999967,
          "velocity": 0.7874015748031497,
          "duration": 0.24390250000000435
        },
        {
          "name": "A4",
          "midi": 69,
          "time": 92.92685249999967,
          "velocity": 0.7874015748031497,
          "duration": 0.24390250000000435
        },
        {
          "name": "A4",
          "midi": 69,
          "time": 93.17075499999967,
          "velocity": 0.7874015748031497,
          "duration": 0.24390250000000435
        },
        {
          "name": "C5",
          "midi": 72,
          "time": 93.41465749999968,
          "velocity": 0.7874015748031497,
          "duration": 0.24390250000000435
        },
        {
          "name": "F4",
          "midi": 65,
          "time": 93.65855999999968,
          "velocity": 0.6456692913385826,
          "duration": 0.24390250000000435
        },
        {
          "name": "C5",
          "midi": 72,
          "time": 93.65855999999968,
          "velocity": 0.6456692913385826,
          "duration": 0.24390250000000435
        },
        {
          "name": "E5",
          "midi": 76,
          "time": 93.65855999999968,
          "velocity": 0.7874015748031497,
          "duration": 0.24390250000000435
        },
        {
          "name": "E5",
          "midi": 76,
          "time": 93.90246249999969,
          "velocity": 0.7874015748031497,
          "duration": 0.24390250000000435
        },
        {
          "name": "E5",
          "midi": 76,
          "time": 94.14636499999969,
          "velocity": 0.7874015748031497,
          "duration": 0.24390250000000435
        },
        {
          "name": "E5",
          "midi": 76,
          "time": 94.3902674999997,
          "velocity": 0.7874015748031497,
          "duration": 0.24390250000000435
        },
        {
          "name": "E5",
          "midi": 76,
          "time": 94.6341699999997,
          "velocity": 0.7874015748031497,
          "duration": 0.24390250000000435
        },
        {
          "name": "D5",
          "midi": 74,
          "time": 94.8780724999997,
          "velocity": 0.7874015748031497,
          "duration": 0.24390250000000435
        },
        {
          "name": "E5",
          "midi": 76,
          "time": 95.36587749999971,
          "velocity": 0.7874015748031497,
          "duration": 0.24390250000000435
        },
        {
          "name": "B4",
          "midi": 71,
          "time": 95.60977999999972,
          "velocity": 0.6456692913385826,
          "duration": 0.24390250000000435
        },
        {
          "name": "G4",
          "midi": 67,
          "time": 95.60977999999972,
          "velocity": 0.6456692913385826,
          "duration": 0.24390250000000435
        },
        {
          "name": "D4",
          "midi": 62,
          "time": 95.60977999999972,
          "velocity": 0.6456692913385826,
          "duration": 0.24390250000000435
        },
        {
          "name": "E5",
          "midi": 76,
          "time": 95.85368249999972,
          "velocity": 0.7874015748031497,
          "duration": 0.24390250000000435
        },
        {
          "name": "D5",
          "midi": 74,
          "time": 96.34148749999973,
          "velocity": 0.7874015748031497,
          "duration": 0.24390250000000435
        },
        {
          "name": "D5",
          "midi": 74,
          "time": 96.82929249999974,
          "velocity": 0.7874015748031497,
          "duration": 0.24390250000000435
        },
        {
          "name": "D5",
          "midi": 74,
          "time": 97.07319499999974,
          "velocity": 0.7874015748031497,
          "duration": 0.24390250000000435
        },
        {
          "name": "G5",
          "midi": 79,
          "time": 97.31709749999975,
          "velocity": 0.7874015748031497,
          "duration": 0.4878050000000087
        },
        {
          "name": "D5",
          "midi": 74,
          "time": 97.56099999999975,
          "velocity": 0.6456692913385826,
          "duration": 0.24390250000000435
        },
        {
          "name": "F5",
          "midi": 77,
          "time": 97.56099999999975,
          "velocity": 0.6456692913385826,
          "duration": 0.24390250000000435
        },
        {
          "name": "G5",
          "midi": 79,
          "time": 97.80490249999976,
          "velocity": 0.7874015748031497,
          "duration": 0.24390250000000435
        },
        {
          "name": "E5",
          "midi": 76,
          "time": 98.04880499999976,
          "velocity": 0.7874015748031497,
          "duration": 0.24390250000000435
        },
        {
          "name": "C5",
          "midi": 72,
          "time": 98.29270749999976,
          "velocity": 0.7874015748031497,
          "duration": 0.24390250000000435
        },
        {
          "name": "C5",
          "midi": 72,
          "time": 98.53660999999977,
          "velocity": 0.7874015748031497,
          "duration": 0.24390250000000435
        },
        {
          "name": "A4",
          "midi": 69,
          "time": 98.78051249999977,
          "velocity": 0.7874015748031497,
          "duration": 0.24390250000000435
        },
        {
          "name": "G4",
          "midi": 67,
          "time": 99.02441499999978,
          "velocity": 0.7874015748031497,
          "duration": 0.24390250000000435
        },
        {
          "name": "A4",
          "midi": 69,
          "time": 99.26831749999978,
          "velocity": 0.7874015748031497,
          "duration": 0.24390250000000435
        },
        {
          "name": "D4",
          "midi": 62,
          "time": 99.51221999999979,
          "velocity": 0.6456692913385826,
          "duration": 0.9756100000000032
        },
        {
          "name": "B4",
          "midi": 71,
          "time": 99.51221999999979,
          "velocity": 0.6456692913385826,
          "duration": 0.9756100000000032
        },
        {
          "name": "G4",
          "midi": 67,
          "time": 99.51221999999979,
          "velocity": 0.6456692913385826,
          "duration": 0.9756100000000032
        },
        {
          "name": "A4",
          "midi": 69,
          "time": 100.7317324999998,
          "velocity": 0.7874015748031497,
          "duration": 0.24390250000000435
        },
        {
          "name": "A4",
          "midi": 69,
          "time": 100.9756349999998,
          "velocity": 0.7874015748031497,
          "duration": 0.24390250000000435
        },
        {
          "name": "C5",
          "midi": 72,
          "time": 101.2195374999998,
          "velocity": 0.7874015748031497,
          "duration": 0.24390250000000435
        },
        {
          "name": "C5",
          "midi": 72,
          "time": 101.4634399999998,
          "velocity": 0.6456692913385826,
          "duration": 0.24390250000000435
        },
        {
          "name": "F4",
          "midi": 65,
          "time": 101.4634399999998,
          "velocity": 0.6456692913385826,
          "duration": 0.24390250000000435
        },
        {
          "name": "E5",
          "midi": 76,
          "time": 101.4634399999998,
          "velocity": 0.7874015748031497,
          "duration": 0.24390250000000435
        },
        {
          "name": "E5",
          "midi": 76,
          "time": 101.70734249999981,
          "velocity": 0.7874015748031497,
          "duration": 0.24390250000000435
        },
        {
          "name": "E5",
          "midi": 76,
          "time": 101.95124499999982,
          "velocity": 0.7874015748031497,
          "duration": 0.24390250000000435
        },
        {
          "name": "E5",
          "midi": 76,
          "time": 102.19514749999982,
          "velocity": 0.7874015748031497,
          "duration": 0.24390250000000435
        },
        {
          "name": "E5",
          "midi": 76,
          "time": 102.43904999999982,
          "velocity": 0.7874015748031497,
          "duration": 0.24390250000000435
        },
        {
          "name": "D5",
          "midi": 74,
          "time": 102.68295249999983,
          "velocity": 0.7874015748031497,
          "duration": 0.24390250000000435
        },
        {
          "name": "E5",
          "midi": 76,
          "time": 103.17075749999984,
          "velocity": 0.7874015748031497,
          "duration": 0.24390250000000435
        },
        {
          "name": "D4",
          "midi": 62,
          "time": 103.41465999999984,
          "velocity": 0.6456692913385826,
          "duration": 0.24390250000000435
        },
        {
          "name": "G4",
          "midi": 67,
          "time": 103.41465999999984,
          "velocity": 0.6456692913385826,
          "duration": 0.24390250000000435
        },
        {
          "name": "B4",
          "midi": 71,
          "time": 103.41465999999984,
          "velocity": 0.6456692913385826,
          "duration": 0.24390250000000435
        },
        {
          "name": "E5",
          "midi": 76,
          "time": 103.65856249999985,
          "velocity": 0.7874015748031497,
          "duration": 0.24390250000000435
        },
        {
          "name": "D5",
          "midi": 74,
          "time": 104.14636749999985,
          "velocity": 0.7874015748031497,
          "duration": 0.24390250000000435
        },
        {
          "name": "D5",
          "midi": 74,
          "time": 104.63417249999986,
          "velocity": 0.7874015748031497,
          "duration": 0.24390250000000435
        },
        {
          "name": "D5",
          "midi": 74,
          "time": 104.87807499999987,
          "velocity": 0.7874015748031497,
          "duration": 0.24390250000000435
        },
        {
          "name": "G5",
          "midi": 79,
          "time": 105.12197749999987,
          "velocity": 0.7874015748031497,
          "duration": 0.4878050000000087
        },
        {
          "name": "D4",
          "midi": 62,
          "time": 105.36587999999988,
          "velocity": 0.6456692913385826,
          "duration": 0.24390250000000435
        },
        {
          "name": "F4",
          "midi": 65,
          "time": 105.36587999999988,
          "velocity": 0.6456692913385826,
          "duration": 0.24390250000000435
        },
        {
          "name": "E5",
          "midi": 76,
          "time": 105.60978249999988,
          "velocity": 0.7874015748031497,
          "duration": 0.4878049999999945
        },
        {
          "name": "C5",
          "midi": 72,
          "time": 106.09758749999988,
          "velocity": 0.7874015748031497,
          "duration": 0.4878049999999945
        },
        {
          "name": "A4",
          "midi": 69,
          "time": 106.58539249999987,
          "velocity": 0.7874015748031497,
          "duration": 0.24390250000000435
        },
        {
          "name": "C5",
          "midi": 72,
          "time": 106.82929499999987,
          "velocity": 0.7874015748031497,
          "duration": 0.24390250000000435
        },
        {
          "name": "D4",
          "midi": 62,
          "time": 107.07319749999988,
          "velocity": 0.6456692913385826,
          "duration": 0.24390250000000435
        },
        {
          "name": "G4",
          "midi": 67,
          "time": 107.07319749999988,
          "velocity": 0.6456692913385826,
          "duration": 0.24390250000000435
        },
        {
          "name": "B4",
          "midi": 71,
          "time": 107.07319749999988,
          "velocity": 0.6456692913385826,
          "duration": 0.24390250000000435
        },
        {
          "name": "D5",
          "midi": 74,
          "time": 107.07319749999988,
          "velocity": 0.7874015748031497,
          "duration": 0.24390250000000435
        },
        {
          "name": "E5",
          "midi": 76,
          "time": 107.31709999999988,
          "velocity": 0.7874015748031497,
          "duration": 0.12195124999999507
        },
        {
          "name": "F5",
          "midi": 77,
          "time": 107.43905124999988,
          "velocity": 0.7874015748031497,
          "duration": 0.12195124999999507
        },
        {
          "name": "E5",
          "midi": 76,
          "time": 107.56100249999987,
          "velocity": 0.7874015748031497,
          "duration": 0.12195124999999507
        },
        {
          "name": "D5",
          "midi": 74,
          "time": 107.68295374999987,
          "velocity": 0.7874015748031497,
          "duration": 0.12195124999999507
        },
        {
          "name": "D4",
          "midi": 62,
          "time": 108.04880749999987,
          "velocity": 0.7874015748031497,
          "duration": 0.24390250000000435
        },
        {
          "name": "D5",
          "midi": 74,
          "time": 108.04880749999987,
          "velocity": 0.7874015748031497,
          "duration": 0.24390250000000435
        },
        {
          "name": "D4",
          "midi": 62,
          "time": 108.29270999999987,
          "velocity": 0.7874015748031497,
          "duration": 0.24390250000000435
        },
        {
          "name": "D5",
          "midi": 74,
          "time": 108.29270999999987,
          "velocity": 0.7874015748031497,
          "duration": 0.24390250000000435
        },
        {
          "name": "D5",
          "midi": 74,
          "time": 108.53661249999988,
          "velocity": 0.7874015748031497,
          "duration": 0.24390250000000435
        },
        {
          "name": "D4",
          "midi": 62,
          "time": 108.53661249999988,
          "velocity": 0.7874015748031497,
          "duration": 0.24390250000000435
        },
        {
          "name": "F5",
          "midi": 77,
          "time": 108.78051499999988,
          "velocity": 0.7874015748031497,
          "duration": 0.24390250000000435
        },
        {
          "name": "F4",
          "midi": 65,
          "time": 108.78051499999988,
          "velocity": 0.7874015748031497,
          "duration": 0.24390250000000435
        },
        {
          "name": "D4",
          "midi": 62,
          "time": 109.02441749999988,
          "velocity": 0.7874015748031497,
          "duration": 0.24390250000000435
        },
        {
          "name": "D5",
          "midi": 74,
          "time": 109.02441749999988,
          "velocity": 0.7874015748031497,
          "duration": 0.24390250000000435
        },
        {
          "name": "A4",
          "midi": 69,
          "time": 109.26831999999989,
          "velocity": 0.7874015748031497,
          "duration": 0.4878049999999945
        },
        {
          "name": "A5",
          "midi": 81,
          "time": 109.26831999999989,
          "velocity": 0.7874015748031497,
          "duration": 0.4878049999999945
        },
        {
          "name": "C6",
          "midi": 84,
          "time": 109.75612499999988,
          "velocity": 0.7874015748031497,
          "duration": 0.24390250000000435
        },
        {
          "name": "C5",
          "midi": 72,
          "time": 109.75612499999988,
          "velocity": 0.7874015748031497,
          "duration": 0.24390250000000435
        },
        {
          "name": "C6",
          "midi": 84,
          "time": 110.00002749999989,
          "velocity": 0.7874015748031497,
          "duration": 0.12195125000000928
        },
        {
          "name": "C7",
          "midi": 96,
          "time": 110.06608442708323,
          "velocity": 0.7165354330708661,
          "duration": 0.12195125000000928
        },
        {
          "name": "C6",
          "midi": 84,
          "time": 110.1219787499999,
          "velocity": 0.7165354330708661,
          "duration": 0.12195125000000928
        },
        {
          "name": "C7",
          "midi": 96,
          "time": 110.18803567708323,
          "velocity": 0.7165354330708661,
          "duration": 0.12195125000000928
        },
        {
          "name": "C6",
          "midi": 84,
          "time": 110.2439299999999,
          "velocity": 0.7007874015748031,
          "duration": 0.12195125000000928
        },
        {
          "name": "C7",
          "midi": 96,
          "time": 110.30998692708324,
          "velocity": 0.6929133858267716,
          "duration": 0.12195125000000928
        },
        {
          "name": "C6",
          "midi": 84,
          "time": 110.36588124999992,
          "velocity": 0.6692913385826772,
          "duration": 0.12195125000000928
        },
        {
          "name": "C7",
          "midi": 96,
          "time": 110.43193817708325,
          "velocity": 0.6220472440944882,
          "duration": 0.12195125000000928
        },
        {
          "name": "C6",
          "midi": 84,
          "time": 110.48783249999993,
          "velocity": 0.5590551181102362,
          "duration": 0.12195125000000928
        },
        {
          "name": "C7",
          "midi": 96,
          "time": 110.55388942708326,
          "velocity": 0.4566929133858268,
          "duration": 0.12195125000000928
        },
        {
          "name": "C6",
          "midi": 84,
          "time": 110.60978374999993,
          "velocity": 0.4251968503937008,
          "duration": 0.12195125000000928
        },
        {
          "name": "C7",
          "midi": 96,
          "time": 110.67584067708327,
          "velocity": 0.47244094488188976,
          "duration": 0.12195125000000928
        },
        {
          "name": "C6",
          "midi": 84,
          "time": 110.73173499999994,
          "velocity": 0.4251968503937008,
          "duration": 0.12195125000000928
        },
        {
          "name": "C7",
          "midi": 96,
          "time": 110.79779192708328,
          "velocity": 0.4015748031496063,
          "duration": 0.12195125000000928
        },
        {
          "name": "C6",
          "midi": 84,
          "time": 110.85368624999995,
          "velocity": 0.4015748031496063,
          "duration": 0.12195125000000928
        },
        {
          "name": "C7",
          "midi": 96,
          "time": 110.91974317708329,
          "velocity": 0.3858267716535433,
          "duration": 0.12195125000000928
        },
        {
          "name": "C6",
          "midi": 84,
          "time": 110.97563749999996,
          "velocity": 0.36220472440944884,
          "duration": 0.12195125000000928
        },
        {
          "name": "C7",
          "midi": 96,
          "time": 111.0416944270833,
          "velocity": 0.36220472440944884,
          "duration": 0.12195125000000928
        },
        {
          "name": "C6",
          "midi": 84,
          "time": 111.09758874999997,
          "velocity": 0.33070866141732286,
          "duration": 0.12195125000000928
        },
        {
          "name": "C7",
          "midi": 96,
          "time": 111.16364567708331,
          "velocity": 0.31496062992125984,
          "duration": 0.12195125000000928
        },
        {
          "name": "C6",
          "midi": 84,
          "time": 111.21953999999998,
          "velocity": 0.31496062992125984,
          "duration": 0.12195125000000928
        },
        {
          "name": "C7",
          "midi": 96,
          "time": 111.28559692708332,
          "velocity": 0.3779527559055118,
          "duration": 0.12195125000000928
        },
        {
          "name": "C6",
          "midi": 84,
          "time": 111.34149124999999,
          "velocity": 0.4251968503937008,
          "duration": 0.12195125000000928
        },
        {
          "name": "C7",
          "midi": 96,
          "time": 111.40754817708333,
          "velocity": 0.48031496062992124,
          "duration": 0.12195125000000928
        },
        {
          "name": "C6",
          "midi": 84,
          "time": 111.4634425,
          "velocity": 0.48031496062992124,
          "duration": 0.12195125000000928
        },
        {
          "name": "C7",
          "midi": 96,
          "time": 111.52949942708334,
          "velocity": 0.5039370078740157,
          "duration": 0.12195125000000928
        },
        {
          "name": "C6",
          "midi": 84,
          "time": 111.58539375000001,
          "velocity": 0.5748031496062992,
          "duration": 0.12195125000000928
        },
        {
          "name": "C7",
          "midi": 96,
          "time": 111.65145067708335,
          "velocity": 0.6220472440944882,
          "duration": 0.12195125000000928
        },
        {
          "name": "C6",
          "midi": 84,
          "time": 111.70734500000002,
          "velocity": 0.6456692913385826,
          "duration": 0.12195125000000928
        },
        {
          "name": "C7",
          "midi": 96,
          "time": 111.77340192708336,
          "velocity": 0.6535433070866141,
          "duration": 0.12195125000000928
        },
        {
          "name": "C6",
          "midi": 84,
          "time": 111.82929625000003,
          "velocity": 0.6535433070866141,
          "duration": 0.12195125000000928
        },
        {
          "name": "C7",
          "midi": 96,
          "time": 111.89535317708336,
          "velocity": 0.7007874015748031,
          "duration": 0.12195125000000928
        },
        {
          "name": "C6",
          "midi": 84,
          "time": 111.95124750000004,
          "velocity": 0.7480314960629921,
          "duration": 0.12195125000000928
        },
        {
          "name": "C7",
          "midi": 96,
          "time": 112.01730442708337,
          "velocity": 0.7637795275590551,
          "duration": 0.12195125000000928
        },
        {
          "name": "C6",
          "midi": 84,
          "time": 112.07319875000005,
          "velocity": 0.8818897637795275,
          "duration": 0.18292687500000682
        },
        {
          "name": "C7",
          "midi": 96,
          "time": 112.13925567708338,
          "velocity": 0.9606299212598425,
          "duration": 0.17784557291666658
        },
        {
          "name": "C6",
          "midi": 84,
          "time": 112.37807687500005,
          "velocity": 0.937007874015748,
          "duration": 0.4878049999999945
        },
        {
          "name": "C5",
          "midi": 72,
          "time": 112.37807687500005,
          "velocity": 0.937007874015748,
          "duration": 0.4878049999999945
        },
        {
          "name": "D5",
          "midi": 74,
          "time": 112.86588187500004,
          "velocity": 0.7874015748031497,
          "duration": 0.4878049999999945
        },
        {
          "name": "D6",
          "midi": 86,
          "time": 112.86588187500004,
          "velocity": 0.7874015748031497,
          "duration": 0.4878049999999945
        },
        {
          "name": "A4",
          "midi": 69,
          "time": 113.65856500000004,
          "velocity": 0.7874015748031497,
          "duration": 0.24390250000000435
        },
        {
          "name": "A5",
          "midi": 81,
          "time": 113.65856500000004,
          "velocity": 0.7874015748031497,
          "duration": 0.24390250000000435
        },
        {
          "name": "G#5",
          "midi": 80,
          "time": 113.90246750000004,
          "velocity": 0.7874015748031497,
          "duration": 0.24390250000000435
        },
        {
          "name": "G#4",
          "midi": 68,
          "time": 113.90246750000004,
          "velocity": 0.7874015748031497,
          "duration": 0.24390250000000435
        },
        {
          "name": "G5",
          "midi": 79,
          "time": 114.14637000000005,
          "velocity": 0.7874015748031497,
          "duration": 0.24390250000000435
        },
        {
          "name": "G4",
          "midi": 67,
          "time": 114.14637000000005,
          "velocity": 0.7874015748031497,
          "duration": 0.24390250000000435
        },
        {
          "name": "F4",
          "midi": 65,
          "time": 114.39027250000005,
          "velocity": 0.7874015748031497,
          "duration": 0.24390250000000435
        },
        {
          "name": "F5",
          "midi": 77,
          "time": 114.39027250000005,
          "velocity": 0.7874015748031497,
          "duration": 0.24390250000000435
        },
        {
          "name": "F4",
          "midi": 65,
          "time": 114.87807750000006,
          "velocity": 0.7874015748031497,
          "duration": 0.24390250000000435
        },
        {
          "name": "F5",
          "midi": 77,
          "time": 114.87807750000006,
          "velocity": 0.7874015748031497,
          "duration": 0.24390250000000435
        },
        {
          "name": "G4",
          "midi": 67,
          "time": 115.12198000000006,
          "velocity": 0.7874015748031497,
          "duration": 0.24390250000000435
        },
        {
          "name": "G5",
          "midi": 79,
          "time": 115.12198000000006,
          "velocity": 0.7874015748031497,
          "duration": 0.24390250000000435
        },
        {
          "name": "G4",
          "midi": 67,
          "time": 115.48783375000006,
          "velocity": 0.7874015748031497,
          "duration": 0.3658537499999994
        },
        {
          "name": "G5",
          "midi": 79,
          "time": 115.48783375000006,
          "velocity": 0.7874015748031497,
          "duration": 0.3658537499999994
        },
        {
          "name": "F4",
          "midi": 65,
          "time": 115.85368750000006,
          "velocity": 0.7874015748031497,
          "duration": 0.3658537499999994
        },
        {
          "name": "F5",
          "midi": 77,
          "time": 115.85368750000006,
          "velocity": 0.7874015748031497,
          "duration": 0.3658537499999994
        },
        {
          "name": "F4",
          "midi": 65,
          "time": 116.82929750000007,
          "velocity": 0.7874015748031497,
          "duration": 0.24390250000000435
        },
        {
          "name": "F5",
          "midi": 77,
          "time": 116.82929750000007,
          "velocity": 0.7874015748031497,
          "duration": 0.24390250000000435
        },
        {
          "name": "A4",
          "midi": 69,
          "time": 117.07320000000007,
          "velocity": 0.7874015748031497,
          "duration": 0.4878049999999945
        },
        {
          "name": "A5",
          "midi": 81,
          "time": 117.07320000000007,
          "velocity": 0.7874015748031497,
          "duration": 0.4878049999999945
        },
        {
          "name": "C6",
          "midi": 84,
          "time": 117.56100500000007,
          "velocity": 0.7874015748031497,
          "duration": 0.24390250000000435
        },
        {
          "name": "C5",
          "midi": 72,
          "time": 117.56100500000007,
          "velocity": 0.7874015748031497,
          "duration": 0.24390250000000435
        },
        {
          "name": "C5",
          "midi": 72,
          "time": 117.80490750000007,
          "velocity": 0.7874015748031497,
          "duration": 0.12195125000000928
        },
        {
          "name": "C6",
          "midi": 84,
          "time": 117.87096442708341,
          "velocity": 0.7401574803149606,
          "duration": 0.12195125000000928
        },
        {
          "name": "C5",
          "midi": 72,
          "time": 117.92685875000008,
          "velocity": 0.7401574803149606,
          "duration": 0.12195125000000928
        },
        {
          "name": "C6",
          "midi": 84,
          "time": 117.99291567708342,
          "velocity": 0.6299212598425197,
          "duration": 0.12195125000000928
        },
        {
          "name": "C5",
          "midi": 72,
          "time": 118.04881000000009,
          "velocity": 0.6929133858267716,
          "duration": 0.12195125000000928
        },
        {
          "name": "C6",
          "midi": 84,
          "time": 118.11486692708343,
          "velocity": 0.6929133858267716,
          "duration": 0.12195125000000928
        },
        {
          "name": "C5",
          "midi": 72,
          "time": 118.1707612500001,
          "velocity": 0.6929133858267716,
          "duration": 0.12195125000000928
        },
        {
          "name": "C6",
          "midi": 84,
          "time": 118.23681817708344,
          "velocity": 0.6771653543307087,
          "duration": 0.12195125000000928
        },
        {
          "name": "C5",
          "midi": 72,
          "time": 118.2927125000001,
          "velocity": 0.6220472440944882,
          "duration": 0.12195125000000928
        },
        {
          "name": "C6",
          "midi": 84,
          "time": 118.35876942708344,
          "velocity": 0.5590551181102362,
          "duration": 0.12195125000000928
        },
        {
          "name": "C5",
          "midi": 72,
          "time": 118.41466375000012,
          "velocity": 0.6220472440944882,
          "duration": 0.12195125000000928
        },
        {
          "name": "C6",
          "midi": 84,
          "time": 118.48072067708345,
          "velocity": 0.6220472440944882,
          "duration": 0.12195125000000928
        },
        {
          "name": "C5",
          "midi": 72,
          "time": 118.53661500000013,
          "velocity": 0.5354330708661418,
          "duration": 0.12195125000000928
        },
        {
          "name": "C6",
          "midi": 84,
          "time": 118.60267192708346,
          "velocity": 0.5039370078740157,
          "duration": 0.12195125000000928
        },
        {
          "name": "C5",
          "midi": 72,
          "time": 118.65856625000013,
          "velocity": 0.47244094488188976,
          "duration": 0.12195125000000928
        },
        {
          "name": "C6",
          "midi": 84,
          "time": 118.72462317708347,
          "velocity": 0.4330708661417323,
          "duration": 0.12195125000000928
        },
        {
          "name": "C5",
          "midi": 72,
          "time": 118.78051750000014,
          "velocity": 0.4251968503937008,
          "duration": 0.12195125000000928
        },
        {
          "name": "C6",
          "midi": 84,
          "time": 118.84657442708348,
          "velocity": 0.4015748031496063,
          "duration": 0.12195125000000928
        },
        {
          "name": "C5",
          "midi": 72,
          "time": 118.90246875000015,
          "velocity": 0.4015748031496063,
          "duration": 0.12195125000000928
        },
        {
          "name": "C6",
          "midi": 84,
          "time": 118.96852567708349,
          "velocity": 0.4015748031496063,
          "duration": 0.12195125000000928
        },
        {
          "name": "C5",
          "midi": 72,
          "time": 119.02442000000016,
          "velocity": 0.4015748031496063,
          "duration": 0.12195125000000928
        },
        {
          "name": "C6",
          "midi": 84,
          "time": 119.0904769270835,
          "velocity": 0.4015748031496063,
          "duration": 0.12195125000000928
        },
        {
          "name": "C5",
          "midi": 72,
          "time": 119.14637125000017,
          "velocity": 0.4015748031496063,
          "duration": 0.12195125000000928
        },
        {
          "name": "C6",
          "midi": 84,
          "time": 119.21242817708351,
          "velocity": 0.4015748031496063,
          "duration": 0.12195125000000928
        },
        {
          "name": "C5",
          "midi": 72,
          "time": 119.26832250000018,
          "velocity": 0.30708661417322836,
          "duration": 0.12195125000000928
        },
        {
          "name": "C6",
          "midi": 84,
          "time": 119.33437942708352,
          "velocity": 0.4015748031496063,
          "duration": 0.12195125000000928
        },
        {
          "name": "C5",
          "midi": 72,
          "time": 119.39027375000019,
          "velocity": 0.4015748031496063,
          "duration": 0.12195125000000928
        },
        {
          "name": "C6",
          "midi": 84,
          "time": 119.45633067708353,
          "velocity": 0.4094488188976378,
          "duration": 0.12195125000000928
        },
        {
          "name": "C5",
          "midi": 72,
          "time": 119.5122250000002,
          "velocity": 0.44881889763779526,
          "duration": 0.12195125000000928
        },
        {
          "name": "C6",
          "midi": 84,
          "time": 119.57828192708354,
          "velocity": 0.44881889763779526,
          "duration": 0.12195125000000928
        },
        {
          "name": "C5",
          "midi": 72,
          "time": 119.63417625000021,
          "velocity": 0.5118110236220472,
          "duration": 0.12195125000000928
        },
        {
          "name": "C6",
          "midi": 84,
          "time": 119.70023317708355,
          "velocity": 0.6299212598425197,
          "duration": 0.12195125000000928
        },
        {
          "name": "C5",
          "midi": 72,
          "time": 119.75612750000022,
          "velocity": 0.7165354330708661,
          "duration": 0.12195125000000928
        },
        {
          "name": "C6",
          "midi": 84,
          "time": 119.82218442708356,
          "velocity": 0.7952755905511811,
          "duration": 0.12195125000000928
        },
        {
          "name": "C5",
          "midi": 72,
          "time": 119.87807875000023,
          "velocity": 0.952755905511811,
          "duration": 0.18292687500000682
        },
        {
          "name": "C6",
          "midi": 84,
          "time": 119.94413567708357,
          "velocity": 0.8818897637795275,
          "duration": 0.17784557291666658
        },
        {
          "name": "C7",
          "midi": 96,
          "time": 120.24393250000023,
          "velocity": 0.952755905511811,
          "duration": 0.4878049999999945
        },
        {
          "name": "C6",
          "midi": 84,
          "time": 120.24393250000023,
          "velocity": 0.952755905511811,
          "duration": 0.4878049999999945
        },
        {
          "name": "D7",
          "midi": 98,
          "time": 120.73173750000022,
          "velocity": 0.7874015748031497,
          "duration": 0.4878049999999945
        },
        {
          "name": "D6",
          "midi": 86,
          "time": 120.73173750000022,
          "velocity": 0.7874015748031497,
          "duration": 0.4878049999999945
        },
        {
          "name": "A6",
          "midi": 93,
          "time": 121.46344500000022,
          "velocity": 0.7874015748031497,
          "duration": 0.24390250000000435
        },
        {
          "name": "A5",
          "midi": 81,
          "time": 121.46344500000022,
          "velocity": 0.7874015748031497,
          "duration": 0.24390250000000435
        },
        {
          "name": "G#5",
          "midi": 80,
          "time": 121.70734750000022,
          "velocity": 0.7874015748031497,
          "duration": 0.24390250000000435
        },
        {
          "name": "G#6",
          "midi": 92,
          "time": 121.70734750000022,
          "velocity": 0.7874015748031497,
          "duration": 0.24390250000000435
        },
        {
          "name": "G5",
          "midi": 79,
          "time": 121.95125000000023,
          "velocity": 0.7874015748031497,
          "duration": 0.24390250000000435
        },
        {
          "name": "G6",
          "midi": 91,
          "time": 121.95125000000023,
          "velocity": 0.7874015748031497,
          "duration": 0.24390250000000435
        },
        {
          "name": "F6",
          "midi": 89,
          "time": 122.19515250000023,
          "velocity": 0.7874015748031497,
          "duration": 0.24390250000000435
        },
        {
          "name": "F5",
          "midi": 77,
          "time": 122.19515250000023,
          "velocity": 0.7874015748031497,
          "duration": 0.24390250000000435
        },
        {
          "name": "F6",
          "midi": 89,
          "time": 122.68295750000024,
          "velocity": 0.7874015748031497,
          "duration": 0.24390250000000435
        },
        {
          "name": "F5",
          "midi": 77,
          "time": 122.68295750000024,
          "velocity": 0.7874015748031497,
          "duration": 0.24390250000000435
        },
        {
          "name": "G5",
          "midi": 79,
          "time": 122.92686000000025,
          "velocity": 0.7874015748031497,
          "duration": 0.24390250000000435
        },
        {
          "name": "G6",
          "midi": 91,
          "time": 122.92686000000025,
          "velocity": 0.7874015748031497,
          "duration": 0.24390250000000435
        },
        {
          "name": "G6",
          "midi": 91,
          "time": 123.29271375000025,
          "velocity": 0.7874015748031497,
          "duration": 0.3658537499999994
        },
        {
          "name": "G5",
          "midi": 79,
          "time": 123.29271375000025,
          "velocity": 0.7874015748031497,
          "duration": 0.3658537499999994
        },
        {
          "name": "F6",
          "midi": 89,
          "time": 123.65856750000025,
          "velocity": 0.7874015748031497,
          "duration": 0.7317074999999988
        },
        {
          "name": "F5",
          "midi": 77,
          "time": 123.65856750000025,
          "velocity": 0.7874015748031497,
          "duration": 0.7317074999999988
        },
        {
          "name": "F4",
          "midi": 65,
          "time": 124.63417750000025,
          "velocity": 0.7874015748031497,
          "duration": 0.24390250000000435
        },
        {
          "name": "F5",
          "midi": 77,
          "time": 124.63417750000025,
          "velocity": 0.7874015748031497,
          "duration": 0.24390250000000435
        },
        {
          "name": "A5",
          "midi": 81,
          "time": 124.87808000000025,
          "velocity": 0.7874015748031497,
          "duration": 0.4878049999999945
        },
        {
          "name": "A4",
          "midi": 69,
          "time": 124.87808000000025,
          "velocity": 0.7874015748031497,
          "duration": 0.4878049999999945
        },
        {
          "name": "A5",
          "midi": 81,
          "time": 125.36588500000025,
          "velocity": 0.7637795275590551,
          "duration": 0.12195124999999507
        },
        {
          "name": "C6",
          "midi": 84,
          "time": 125.36588500000025,
          "velocity": 0.7874015748031497,
          "duration": 0.24390249999999014
        },
        {
          "name": "C5",
          "midi": 72,
          "time": 125.36588500000025,
          "velocity": 0.7874015748031497,
          "duration": 0.24390249999999014
        },
        {
          "name": "G5",
          "midi": 79,
          "time": 125.48783625000024,
          "velocity": 0.7637795275590551,
          "duration": 0.12195124999999507
        },
        {
          "name": "F5",
          "midi": 77,
          "time": 125.60978750000024,
          "velocity": 0.7637795275590551,
          "duration": 0.24390250000000435
        },
        {
          "name": "G5",
          "midi": 79,
          "time": 125.85369000000024,
          "velocity": 0.7637795275590551,
          "duration": 0.12195124999999507
        },
        {
          "name": "G#5",
          "midi": 80,
          "time": 126.34149500000024,
          "velocity": 0.7637795275590551,
          "duration": 0.12195124999999507
        },
        {
          "name": "G5",
          "midi": 79,
          "time": 126.46344625000023,
          "velocity": 0.7637795275590551,
          "duration": 0.12195124999999507
        },
        {
          "name": "F5",
          "midi": 77,
          "time": 126.58539750000023,
          "velocity": 0.7637795275590551,
          "duration": 0.24390250000000435
        },
        {
          "name": "G5",
          "midi": 79,
          "time": 126.82930000000023,
          "velocity": 0.7637795275590551,
          "duration": 0.7317074999999988
        },
        {
          "name": "F5",
          "midi": 77,
          "time": 127.56100750000023,
          "velocity": 0.7637795275590551,
          "duration": 0.42682937499999696
        },
        {
          "name": "C6",
          "midi": 84,
          "time": 128.04881250000022,
          "velocity": 0.952755905511811,
          "duration": 0.4878050000000087
        },
        {
          "name": "C5",
          "midi": 72,
          "time": 128.04881250000022,
          "velocity": 0.952755905511811,
          "duration": 0.4878050000000087
        },
        {
          "name": "D5",
          "midi": 74,
          "time": 128.53661750000023,
          "velocity": 0.7874015748031497,
          "duration": 0.4878050000000087
        },
        {
          "name": "D6",
          "midi": 86,
          "time": 128.53661750000023,
          "velocity": 0.7874015748031497,
          "duration": 0.4878050000000087
        },
        {
          "name": "A5",
          "midi": 81,
          "time": 129.26832500000023,
          "velocity": 0.7874015748031497,
          "duration": 0.24390249999999014
        },
        {
          "name": "A4",
          "midi": 69,
          "time": 129.26832500000023,
          "velocity": 0.7874015748031497,
          "duration": 0.24390249999999014
        },
        {
          "name": "G#5",
          "midi": 80,
          "time": 129.51222750000022,
          "velocity": 0.7874015748031497,
          "duration": 0.24390249999999014
        },
        {
          "name": "G#4",
          "midi": 68,
          "time": 129.51222750000022,
          "velocity": 0.7874015748031497,
          "duration": 0.24390249999999014
        },
        {
          "name": "G4",
          "midi": 67,
          "time": 129.7561300000002,
          "velocity": 0.7874015748031497,
          "duration": 0.24390249999999014
        },
        {
          "name": "G5",
          "midi": 79,
          "time": 129.7561300000002,
          "velocity": 0.7874015748031497,
          "duration": 0.24390249999999014
        },
        {
          "name": "F4",
          "midi": 65,
          "time": 130.0000325000002,
          "velocity": 0.7874015748031497,
          "duration": 0.24390249999999014
        },
        {
          "name": "F5",
          "midi": 77,
          "time": 130.0000325000002,
          "velocity": 0.7874015748031497,
          "duration": 0.24390249999999014
        },
        {
          "name": "F5",
          "midi": 77,
          "time": 130.48783750000018,
          "velocity": 0.7874015748031497,
          "duration": 0.24390249999999014
        },
        {
          "name": "F4",
          "midi": 65,
          "time": 130.48783750000018,
          "velocity": 0.7874015748031497,
          "duration": 0.24390249999999014
        },
        {
          "name": "G5",
          "midi": 79,
          "time": 130.73174000000017,
          "velocity": 0.7874015748031497,
          "duration": 0.24390249999999014
        },
        {
          "name": "G4",
          "midi": 67,
          "time": 130.73174000000017,
          "velocity": 0.7874015748031497,
          "duration": 0.24390249999999014
        },
        {
          "name": "G5",
          "midi": 79,
          "time": 131.09759375000016,
          "velocity": 0.7874015748031497,
          "duration": 0.36585375000001363
        },
        {
          "name": "G4",
          "midi": 67,
          "time": 131.09759375000016,
          "velocity": 0.7874015748031497,
          "duration": 0.36585375000001363
        },
        {
          "name": "F5",
          "midi": 77,
          "time": 131.46344750000017,
          "velocity": 0.7874015748031497,
          "duration": 0.7317074999999988
        },
        {
          "name": "F4",
          "midi": 65,
          "time": 131.46344750000017,
          "velocity": 0.7874015748031497,
          "duration": 0.7317074999999988
        },
        {
          "name": "F5",
          "midi": 77,
          "time": 132.43905750000016,
          "velocity": 0.7874015748031497,
          "duration": 0.24390249999999014
        },
        {
          "name": "F6",
          "midi": 89,
          "time": 132.43905750000016,
          "velocity": 0.7874015748031497,
          "duration": 0.24390249999999014
        },
        {
          "name": "A6",
          "midi": 93,
          "time": 132.68296000000015,
          "velocity": 0.7874015748031497,
          "duration": 0.4878050000000087
        },
        {
          "name": "A5",
          "midi": 81,
          "time": 132.68296000000015,
          "velocity": 0.7874015748031497,
          "duration": 0.4878050000000087
        },
        {
          "name": "A6",
          "midi": 93,
          "time": 133.17076500000016,
          "velocity": 0.7637795275590551,
          "duration": 0.12195124999999507
        },
        {
          "name": "C7",
          "midi": 96,
          "time": 133.17076500000016,
          "velocity": 0.7874015748031497,
          "duration": 0.24390249999999014
        },
        {
          "name": "C6",
          "midi": 84,
          "time": 133.17076500000016,
          "velocity": 0.7874015748031497,
          "duration": 0.24390249999999014
        },
        {
          "name": "G6",
          "midi": 91,
          "time": 133.29271625000015,
          "velocity": 0.7637795275590551,
          "duration": 0.12195124999999507
        },
        {
          "name": "F6",
          "midi": 89,
          "time": 133.41466750000015,
          "velocity": 0.7637795275590551,
          "duration": 0.24390249999999014
        },
        {
          "name": "G6",
          "midi": 91,
          "time": 133.65857000000014,
          "velocity": 0.7637795275590551,
          "duration": 0.12195124999999507
        },
        {
          "name": "G#6",
          "midi": 92,
          "time": 134.14637500000015,
          "velocity": 0.7637795275590551,
          "duration": 0.12195124999999507
        },
        {
          "name": "G6",
          "midi": 91,
          "time": 134.26832625000014,
          "velocity": 0.7637795275590551,
          "duration": 0.12195124999999507
        },
        {
          "name": "F6",
          "midi": 89,
          "time": 134.39027750000014,
          "velocity": 0.7637795275590551,
          "duration": 0.24390249999999014
        },
        {
          "name": "G6",
          "midi": 91,
          "time": 134.63418000000013,
          "velocity": 0.7637795275590551,
          "duration": 0.7317074999999988
        },
        {
          "name": "F6",
          "midi": 89,
          "time": 135.36588750000013,
          "velocity": 0.7637795275590551,
          "duration": 0.42682937500001117
        },
        {
          "name": "C7",
          "midi": 96,
          "time": 135.85369250000014,
          "velocity": 0.952755905511811,
          "duration": 0.4878050000000087
        },
        {
          "name": "C6",
          "midi": 84,
          "time": 135.85369250000014,
          "velocity": 0.952755905511811,
          "duration": 0.4878050000000087
        },
        {
          "name": "D6",
          "midi": 86,
          "time": 136.34149750000014,
          "velocity": 0.7874015748031497,
          "duration": 0.4878050000000087
        },
        {
          "name": "D7",
          "midi": 98,
          "time": 136.34149750000014,
          "velocity": 0.7874015748031497,
          "duration": 0.4878050000000087
        },
        {
          "name": "A6",
          "midi": 93,
          "time": 137.07320500000014,
          "velocity": 0.7874015748031497,
          "duration": 0.24390249999999014
        },
        {
          "name": "A5",
          "midi": 81,
          "time": 137.07320500000014,
          "velocity": 0.7874015748031497,
          "duration": 0.24390249999999014
        },
        {
          "name": "G#6",
          "midi": 92,
          "time": 137.31710750000013,
          "velocity": 0.7874015748031497,
          "duration": 0.24390249999999014
        },
        {
          "name": "G#5",
          "midi": 80,
          "time": 137.31710750000013,
          "velocity": 0.7874015748031497,
          "duration": 0.24390249999999014
        },
        {
          "name": "G5",
          "midi": 79,
          "time": 137.56101000000012,
          "velocity": 0.7874015748031497,
          "duration": 0.24390249999999014
        },
        {
          "name": "G6",
          "midi": 91,
          "time": 137.56101000000012,
          "velocity": 0.7874015748031497,
          "duration": 0.24390249999999014
        },
        {
          "name": "F5",
          "midi": 77,
          "time": 137.8049125000001,
          "velocity": 0.7874015748031497,
          "duration": 0.24390249999999014
        },
        {
          "name": "F6",
          "midi": 89,
          "time": 137.8049125000001,
          "velocity": 0.7874015748031497,
          "duration": 0.24390249999999014
        },
        {
          "name": "G6",
          "midi": 91,
          "time": 138.5366200000001,
          "velocity": 0.7874015748031497,
          "duration": 0.24390249999999014
        },
        {
          "name": "G5",
          "midi": 79,
          "time": 138.5366200000001,
          "velocity": 0.7874015748031497,
          "duration": 0.24390249999999014
        },
        {
          "name": "G6",
          "midi": 91,
          "time": 138.7805225000001,
          "velocity": 0.7874015748031497,
          "duration": 0.12195124999999507
        },
        {
          "name": "G5",
          "midi": 79,
          "time": 138.7805225000001,
          "velocity": 0.7874015748031497,
          "duration": 0.12195124999999507
        },
        {
          "name": "G6",
          "midi": 91,
          "time": 138.9024737500001,
          "velocity": 0.7874015748031497,
          "duration": 0.36585375000001363
        },
        {
          "name": "G5",
          "midi": 79,
          "time": 138.9024737500001,
          "velocity": 0.7874015748031497,
          "duration": 0.36585375000001363
        },
        {
          "name": "F6",
          "midi": 89,
          "time": 139.2683275000001,
          "velocity": 0.7874015748031497,
          "duration": 0.7317074999999988
        },
        {
          "name": "F5",
          "midi": 77,
          "time": 139.2683275000001,
          "velocity": 0.7874015748031497,
          "duration": 0.7317074999999988
        },
        {
          "name": "D4",
          "midi": 62,
          "time": 140.48784000000012,
          "velocity": 0.7637795275590551,
          "duration": 1.9512200000000348
        },
        {
          "name": "F4",
          "midi": 65,
          "time": 140.48784000000012,
          "velocity": 0.7637795275590551,
          "duration": 1.9512200000000348
        },
        {
          "name": "A4",
          "midi": 69,
          "time": 140.48784000000012,
          "velocity": 0.7637795275590551,
          "duration": 1.9512200000000348
        },
        {
          "name": "C5",
          "midi": 72,
          "time": 141.70735250000013,
          "velocity": 0.7637795275590551,
          "duration": 0.36585375000001363
        },
        {
          "name": "D5",
          "midi": 74,
          "time": 142.07320625000014,
          "velocity": 0.7637795275590551,
          "duration": 0.36585375000001363
        },
        {
          "name": "G4",
          "midi": 67,
          "time": 142.43906000000015,
          "velocity": 0.7637795275590551,
          "duration": 0.7317074999999988
        },
        {
          "name": "D#5",
          "midi": 75,
          "time": 142.43906000000015,
          "velocity": 0.7637795275590551,
          "duration": 0.7317074999999988
        },
        {
          "name": "F4",
          "midi": 65,
          "time": 143.17076750000015,
          "velocity": 0.7637795275590551,
          "duration": 1.2195124999999791
        },
        {
          "name": "D5",
          "midi": 74,
          "time": 143.17076750000015,
          "velocity": 0.7637795275590551,
          "duration": 0.975609999999989
        },
        {
          "name": "D4",
          "midi": 62,
          "time": 144.39028000000013,
          "velocity": 0.7637795275590551,
          "duration": 1.9512200000000064
        },
        {
          "name": "F4",
          "midi": 65,
          "time": 144.39028000000013,
          "velocity": 0.7637795275590551,
          "duration": 1.9512200000000064
        },
        {
          "name": "A4",
          "midi": 69,
          "time": 144.39028000000013,
          "velocity": 0.7637795275590551,
          "duration": 1.9512200000000064
        },
        {
          "name": "C5",
          "midi": 72,
          "time": 145.12198750000013,
          "velocity": 0.7637795275590551,
          "duration": 0.7317074999999988
        },
        {
          "name": "D5",
          "midi": 74,
          "time": 145.85369500000013,
          "velocity": 0.7637795275590551,
          "duration": 0.4878050000000087
        },
        {
          "name": "G4",
          "midi": 67,
          "time": 146.34150000000014,
          "velocity": 0.7637795275590551,
          "duration": 0.7317074999999988
        },
        {
          "name": "D#5",
          "midi": 75,
          "time": 146.34150000000014,
          "velocity": 0.7637795275590551,
          "duration": 0.7317074999999988
        },
        {
          "name": "F4",
          "midi": 65,
          "time": 147.07320750000014,
          "velocity": 0.7637795275590551,
          "duration": 1.2195124999999791
        },
        {
          "name": "F5",
          "midi": 77,
          "time": 147.07320750000014,
          "velocity": 0.7637795275590551,
          "duration": 0.975609999999989
        },
        {
          "name": "D4",
          "midi": 62,
          "time": 148.29272000000012,
          "velocity": 0.7637795275590551,
          "duration": 1.9512200000000348
        },
        {
          "name": "F4",
          "midi": 65,
          "time": 148.29272000000012,
          "velocity": 0.7637795275590551,
          "duration": 1.9512200000000348
        },
        {
          "name": "A4",
          "midi": 69,
          "time": 148.29272000000012,
          "velocity": 0.7637795275590551,
          "duration": 1.9512200000000348
        },
        {
          "name": "C5",
          "midi": 72,
          "time": 149.51223250000012,
          "velocity": 0.7637795275590551,
          "duration": 0.36585375000001363
        },
        {
          "name": "D5",
          "midi": 74,
          "time": 149.87808625000014,
          "velocity": 0.7637795275590551,
          "duration": 0.36585375000001363
        },
        {
          "name": "G4",
          "midi": 67,
          "time": 150.24394000000015,
          "velocity": 0.7637795275590551,
          "duration": 0.7317074999999988
        },
        {
          "name": "D#5",
          "midi": 75,
          "time": 150.24394000000015,
          "velocity": 0.7637795275590551,
          "duration": 0.7317074999999988
        },
        {
          "name": "F4",
          "midi": 65,
          "time": 150.97564750000015,
          "velocity": 0.7637795275590551,
          "duration": 1.2195124999999791
        },
        {
          "name": "D5",
          "midi": 74,
          "time": 150.97564750000015,
          "velocity": 0.7637795275590551,
          "duration": 0.975609999999989
        },
        {
          "name": "D5",
          "midi": 74,
          "time": 152.19516000000013,
          "velocity": 0.7637795275590551,
          "duration": 1.4634149999999977
        },
        {
          "name": "A4",
          "midi": 69,
          "time": 152.19516000000013,
          "velocity": 0.7637795275590551,
          "duration": 1.9512200000000064
        },
        {
          "name": "F5",
          "midi": 77,
          "time": 152.19516000000013,
          "velocity": 0.7637795275590551,
          "duration": 1.9512200000000064
        },
        {
          "name": "F4",
          "midi": 65,
          "time": 152.19516000000013,
          "velocity": 0.7637795275590551,
          "duration": 1.9512200000000064
        },
        {
          "name": "C5",
          "midi": 72,
          "time": 152.92686750000013,
          "velocity": 0.7637795275590551,
          "duration": 0.7317074999999988
        },
        {
          "name": "D5",
          "midi": 74,
          "time": 153.65857500000013,
          "velocity": 0.7637795275590551,
          "duration": 0.4878050000000087
        },
        {
          "name": "D#5",
          "midi": 75,
          "time": 154.14638000000014,
          "velocity": 0.7637795275590551,
          "duration": 0.7317074999999988
        },
        {
          "name": "G4",
          "midi": 67,
          "time": 154.14638000000014,
          "velocity": 0.7637795275590551,
          "duration": 0.7317074999999988
        },
        {
          "name": "D5",
          "midi": 74,
          "time": 154.87808750000013,
          "velocity": 0.7637795275590551,
          "duration": 1.2195125000000075
        },
        {
          "name": "F4",
          "midi": 65,
          "time": 154.87808750000013,
          "velocity": 0.7637795275590551,
          "duration": 1.2195125000000075
        },
        {
          "name": "A5",
          "midi": 81,
          "time": 156.82930750000014,
          "velocity": 0.7637795275590551,
          "duration": 0.24390249999999014
        },
        {
          "name": "D5",
          "midi": 74,
          "time": 157.07321000000013,
          "velocity": 0.7637795275590551,
          "duration": 0.24390249999999014
        },
        {
          "name": "G5",
          "midi": 79,
          "time": 157.31711250000012,
          "velocity": 0.7637795275590551,
          "duration": 0.24390249999999014
        },
        {
          "name": "D5",
          "midi": 74,
          "time": 158.78052750000012,
          "velocity": 0.7637795275590551,
          "duration": 0.24390249999999014
        },
        {
          "name": "G5",
          "midi": 79,
          "time": 159.0244300000001,
          "velocity": 0.7637795275590551,
          "duration": 0.36585375000001363
        },
        {
          "name": "G5",
          "midi": 79,
          "time": 159.39028375000012,
          "velocity": 0.7637795275590551,
          "duration": 0.36585375000001363
        },
        {
          "name": "F5",
          "midi": 77,
          "time": 159.75613750000014,
          "velocity": 0.7637795275590551,
          "duration": 0.24390249999999014
        },
        {
          "name": "A5",
          "midi": 81,
          "time": 160.73174750000013,
          "velocity": 0.7637795275590551,
          "duration": 0.24390249999999014
        },
        {
          "name": "D5",
          "midi": 74,
          "time": 160.97565000000012,
          "velocity": 0.7637795275590551,
          "duration": 0.24390249999999014
        },
        {
          "name": "G5",
          "midi": 79,
          "time": 161.2195525000001,
          "velocity": 0.7637795275590551,
          "duration": 0.24390249999999014
        },
        {
          "name": "F5",
          "midi": 77,
          "time": 161.7073575000001,
          "velocity": 0.7637795275590551,
          "duration": 0.24390249999999014
        },
        {
          "name": "G5",
          "midi": 79,
          "time": 161.95126000000008,
          "velocity": 0.7637795275590551,
          "duration": 0.36585375000001363
        },
        {
          "name": "G5",
          "midi": 79,
          "time": 162.3171137500001,
          "velocity": 0.7637795275590551,
          "duration": 0.36585375000001363
        },
        {
          "name": "F5",
          "midi": 77,
          "time": 162.6829675000001,
          "velocity": 0.7637795275590551,
          "duration": 0.24390249999999014
        },
        {
          "name": "G5",
          "midi": 79,
          "time": 162.9268700000001,
          "velocity": 0.7637795275590551,
          "duration": 0.24390249999999014
        },
        {
          "name": "A5",
          "midi": 81,
          "time": 163.17077250000008,
          "velocity": 0.7637795275590551,
          "duration": 0.24390249999999014
        },
        {
          "name": "C6",
          "midi": 84,
          "time": 163.41467500000007,
          "velocity": 0.7637795275590551,
          "duration": 0.24390249999999014
        },
        {
          "name": "D6",
          "midi": 86,
          "time": 163.65857750000006,
          "velocity": 0.7637795275590551,
          "duration": 0.24390249999999014
        },
        {
          "name": "A5",
          "midi": 81,
          "time": 164.63418750000005,
          "velocity": 0.7637795275590551,
          "duration": 0.24390249999999014
        },
        {
          "name": "D5",
          "midi": 74,
          "time": 164.87809000000004,
          "velocity": 0.7637795275590551,
          "duration": 0.24390249999999014
        },
        {
          "name": "G5",
          "midi": 79,
          "time": 165.12199250000003,
          "velocity": 0.7637795275590551,
          "duration": 0.24390249999999014
        },
        {
          "name": "D5",
          "midi": 74,
          "time": 165.6097975,
          "velocity": 0.7637795275590551,
          "duration": 0.24390249999999014
        },
        {
          "name": "G5",
          "midi": 79,
          "time": 165.8537,
          "velocity": 0.7637795275590551,
          "duration": 0.36585375000001363
        },
        {
          "name": "G5",
          "midi": 79,
          "time": 166.21955375000002,
          "velocity": 0.7637795275590551,
          "duration": 0.36585375000001363
        },
        {
          "name": "F5",
          "midi": 77,
          "time": 166.58540750000003,
          "velocity": 0.7637795275590551,
          "duration": 0.4878050000000087
        },
        {
          "name": "C5",
          "midi": 72,
          "time": 167.07321250000004,
          "velocity": 0.7637795275590551,
          "duration": 0.4878050000000087
        },
        {
          "name": "D5",
          "midi": 74,
          "time": 167.56101750000005,
          "velocity": 0.7637795275590551,
          "duration": 0.4878050000000087
        },
        {
          "name": "D5",
          "midi": 74,
          "time": 168.04882250000006,
          "velocity": 0.7637795275590551,
          "duration": 0.36585375000001363
        },
        {
          "name": "C5",
          "midi": 72,
          "time": 168.53662750000007,
          "velocity": 0.7637795275590551,
          "duration": 0.3658537499999852
        },
        {
          "name": "D5",
          "midi": 74,
          "time": 168.78053000000006,
          "velocity": 0.7637795275590551,
          "duration": 0.3048781249999877
        },
        {
          "name": "D5",
          "midi": 74,
          "time": 169.08540812500004,
          "velocity": 0.7637795275590551,
          "duration": 0.36585375000001363
        },
        {
          "name": "C5",
          "midi": 72,
          "time": 169.51223750000005,
          "velocity": 0.7637795275590551,
          "duration": 0.3658537499999852
        },
        {
          "name": "D5",
          "midi": 74,
          "time": 169.75614000000004,
          "velocity": 0.7637795275590551,
          "duration": 0.3658537499999852
        },
        {
          "name": "D#5",
          "midi": 75,
          "time": 170.12199375000003,
          "velocity": 0.7637795275590551,
          "duration": 0.36585375000001363
        },
        {
          "name": "D#5",
          "midi": 75,
          "time": 170.48784750000004,
          "velocity": 0.7637795275590551,
          "duration": 1.2195125000000075
        },
        {
          "name": "D4",
          "midi": 62,
          "time": 172.43906750000005,
          "velocity": 0.7874015748031497,
          "duration": 0.24390249999999014
        },
        {
          "name": "D5",
          "midi": 74,
          "time": 172.43906750000005,
          "velocity": 0.7874015748031497,
          "duration": 0.24390249999999014
        },
        {
          "name": "D4",
          "midi": 62,
          "time": 172.68297000000004,
          "velocity": 0.7874015748031497,
          "duration": 0.24390249999999014
        },
        {
          "name": "D5",
          "midi": 74,
          "time": 172.68297000000004,
          "velocity": 0.7874015748031497,
          "duration": 0.24390249999999014
        },
        {
          "name": "D5",
          "midi": 74,
          "time": 172.92687250000003,
          "velocity": 0.7874015748031497,
          "duration": 0.24390249999999014
        },
        {
          "name": "D4",
          "midi": 62,
          "time": 172.92687250000003,
          "velocity": 0.7874015748031497,
          "duration": 0.24390249999999014
        },
        {
          "name": "F5",
          "midi": 77,
          "time": 173.17077500000002,
          "velocity": 0.7874015748031497,
          "duration": 0.24390249999999014
        },
        {
          "name": "F4",
          "midi": 65,
          "time": 173.17077500000002,
          "velocity": 0.7874015748031497,
          "duration": 0.24390249999999014
        },
        {
          "name": "D4",
          "midi": 62,
          "time": 173.4146775,
          "velocity": 0.7874015748031497,
          "duration": 0.24390249999999014
        },
        {
          "name": "D5",
          "midi": 74,
          "time": 173.4146775,
          "velocity": 0.7874015748031497,
          "duration": 0.24390249999999014
        },
        {
          "name": "A4",
          "midi": 69,
          "time": 173.65858,
          "velocity": 0.7874015748031497,
          "duration": 0.4878050000000087
        },
        {
          "name": "A5",
          "midi": 81,
          "time": 173.65858,
          "velocity": 0.7874015748031497,
          "duration": 0.4878050000000087
        },
        {
          "name": "C6",
          "midi": 84,
          "time": 174.146385,
          "velocity": 0.7874015748031497,
          "duration": 0.24390249999999014
        },
        {
          "name": "C5",
          "midi": 72,
          "time": 174.146385,
          "velocity": 0.7874015748031497,
          "duration": 0.24390249999999014
        },
        {
          "name": "C6",
          "midi": 84,
          "time": 174.3902875,
          "velocity": 0.7874015748031497,
          "duration": 0.12195124999999507
        },
        {
          "name": "C7",
          "midi": 96,
          "time": 174.45634442708334,
          "velocity": 0.7165354330708661,
          "duration": 0.12195124999999507
        },
        {
          "name": "C6",
          "midi": 84,
          "time": 174.51223875,
          "velocity": 0.7165354330708661,
          "duration": 0.12195124999999507
        },
        {
          "name": "C7",
          "midi": 96,
          "time": 174.57829567708333,
          "velocity": 0.7165354330708661,
          "duration": 0.12195124999999507
        },
        {
          "name": "C6",
          "midi": 84,
          "time": 174.63419,
          "velocity": 0.7007874015748031,
          "duration": 0.12195124999999507
        },
        {
          "name": "C7",
          "midi": 96,
          "time": 174.70024692708333,
          "velocity": 0.6929133858267716,
          "duration": 0.12195124999999507
        },
        {
          "name": "C6",
          "midi": 84,
          "time": 174.75614124999998,
          "velocity": 0.6692913385826772,
          "duration": 0.12195124999999507
        },
        {
          "name": "C7",
          "midi": 96,
          "time": 174.82219817708332,
          "velocity": 0.6220472440944882,
          "duration": 0.12195124999999507
        },
        {
          "name": "C6",
          "midi": 84,
          "time": 174.87809249999998,
          "velocity": 0.5590551181102362,
          "duration": 0.12195124999999507
        },
        {
          "name": "C7",
          "midi": 96,
          "time": 174.94414942708332,
          "velocity": 0.4566929133858268,
          "duration": 0.12195124999999507
        },
        {
          "name": "C6",
          "midi": 84,
          "time": 175.00004374999997,
          "velocity": 0.4251968503937008,
          "duration": 0.12195124999999507
        },
        {
          "name": "C7",
          "midi": 96,
          "time": 175.0661006770833,
          "velocity": 0.47244094488188976,
          "duration": 0.12195124999999507
        },
        {
          "name": "C6",
          "midi": 84,
          "time": 175.12199499999997,
          "velocity": 0.4251968503937008,
          "duration": 0.12195124999999507
        },
        {
          "name": "C7",
          "midi": 96,
          "time": 175.1880519270833,
          "velocity": 0.4015748031496063,
          "duration": 0.12195124999999507
        },
        {
          "name": "C6",
          "midi": 84,
          "time": 175.24394624999996,
          "velocity": 0.4015748031496063,
          "duration": 0.12195124999999507
        },
        {
          "name": "C7",
          "midi": 96,
          "time": 175.3100031770833,
          "velocity": 0.3858267716535433,
          "duration": 0.12195124999999507
        },
        {
          "name": "C6",
          "midi": 84,
          "time": 175.36589749999996,
          "velocity": 0.36220472440944884,
          "duration": 0.12195124999999507
        },
        {
          "name": "C7",
          "midi": 96,
          "time": 175.4319544270833,
          "velocity": 0.36220472440944884,
          "duration": 0.12195124999999507
        },
        {
          "name": "C6",
          "midi": 84,
          "time": 175.48784874999996,
          "velocity": 0.33070866141732286,
          "duration": 0.12195124999999507
        },
        {
          "name": "C7",
          "midi": 96,
          "time": 175.5539056770833,
          "velocity": 0.31496062992125984,
          "duration": 0.12195124999999507
        },
        {
          "name": "C6",
          "midi": 84,
          "time": 175.60979999999995,
          "velocity": 0.31496062992125984,
          "duration": 0.12195124999999507
        },
        {
          "name": "C7",
          "midi": 96,
          "time": 175.6758569270833,
          "velocity": 0.3779527559055118,
          "duration": 0.12195124999999507
        },
        {
          "name": "C6",
          "midi": 84,
          "time": 175.73175124999995,
          "velocity": 0.4251968503937008,
          "duration": 0.12195124999999507
        },
        {
          "name": "C7",
          "midi": 96,
          "time": 175.79780817708328,
          "velocity": 0.48031496062992124,
          "duration": 0.12195124999999507
        },
        {
          "name": "C6",
          "midi": 84,
          "time": 175.85370249999994,
          "velocity": 0.48031496062992124,
          "duration": 0.12195124999999507
        },
        {
          "name": "C7",
          "midi": 96,
          "time": 175.91975942708328,
          "velocity": 0.5039370078740157,
          "duration": 0.12195124999999507
        },
        {
          "name": "C6",
          "midi": 84,
          "time": 175.97565374999994,
          "velocity": 0.5748031496062992,
          "duration": 0.12195124999999507
        },
        {
          "name": "C7",
          "midi": 96,
          "time": 176.04171067708327,
          "velocity": 0.6220472440944882,
          "duration": 0.12195124999999507
        },
        {
          "name": "C6",
          "midi": 84,
          "time": 176.09760499999993,
          "velocity": 0.6456692913385826,
          "duration": 0.12195124999999507
        },
        {
          "name": "C7",
          "midi": 96,
          "time": 176.16366192708327,
          "velocity": 0.6535433070866141,
          "duration": 0.12195124999999507
        },
        {
          "name": "C6",
          "midi": 84,
          "time": 176.21955624999993,
          "velocity": 0.6535433070866141,
          "duration": 0.12195124999999507
        },
        {
          "name": "C7",
          "midi": 96,
          "time": 176.28561317708326,
          "velocity": 0.7007874015748031,
          "duration": 0.12195124999999507
        },
        {
          "name": "C6",
          "midi": 84,
          "time": 176.34150749999992,
          "velocity": 0.7480314960629921,
          "duration": 0.12195124999999507
        },
        {
          "name": "C7",
          "midi": 96,
          "time": 176.40756442708326,
          "velocity": 0.7637795275590551,
          "duration": 0.12195124999999507
        },
        {
          "name": "C6",
          "midi": 84,
          "time": 176.46345874999992,
          "velocity": 0.8818897637795275,
          "duration": 0.1829268749999926
        },
        {
          "name": "C7",
          "midi": 96,
          "time": 176.52951567708325,
          "velocity": 0.9606299212598425,
          "duration": 0.17784557291665237
        },
        {
          "name": "C6",
          "midi": 84,
          "time": 176.7683368749999,
          "velocity": 0.937007874015748,
          "duration": 0.4878050000000087
        },
        {
          "name": "C5",
          "midi": 72,
          "time": 176.7683368749999,
          "velocity": 0.937007874015748,
          "duration": 0.4878050000000087
        },
        {
          "name": "D5",
          "midi": 74,
          "time": 177.2561418749999,
          "velocity": 0.7874015748031497,
          "duration": 0.4878050000000087
        },
        {
          "name": "D6",
          "midi": 86,
          "time": 177.2561418749999,
          "velocity": 0.7874015748031497,
          "duration": 0.4878050000000087
        },
        {
          "name": "A4",
          "midi": 69,
          "time": 178.0488249999999,
          "velocity": 0.7874015748031497,
          "duration": 0.24390249999999014
        },
        {
          "name": "A5",
          "midi": 81,
          "time": 178.0488249999999,
          "velocity": 0.7874015748031497,
          "duration": 0.24390249999999014
        },
        {
          "name": "G#5",
          "midi": 80,
          "time": 178.2927274999999,
          "velocity": 0.7874015748031497,
          "duration": 0.24390249999999014
        },
        {
          "name": "G#4",
          "midi": 68,
          "time": 178.2927274999999,
          "velocity": 0.7874015748031497,
          "duration": 0.24390249999999014
        },
        {
          "name": "G5",
          "midi": 79,
          "time": 178.5366299999999,
          "velocity": 0.7874015748031497,
          "duration": 0.24390249999999014
        },
        {
          "name": "G4",
          "midi": 67,
          "time": 178.5366299999999,
          "velocity": 0.7874015748031497,
          "duration": 0.24390249999999014
        },
        {
          "name": "F4",
          "midi": 65,
          "time": 178.78053249999988,
          "velocity": 0.7874015748031497,
          "duration": 0.24390249999999014
        },
        {
          "name": "F5",
          "midi": 77,
          "time": 178.78053249999988,
          "velocity": 0.7874015748031497,
          "duration": 0.24390249999999014
        },
        {
          "name": "F4",
          "midi": 65,
          "time": 179.26833749999986,
          "velocity": 0.7874015748031497,
          "duration": 0.24390249999999014
        },
        {
          "name": "F5",
          "midi": 77,
          "time": 179.26833749999986,
          "velocity": 0.7874015748031497,
          "duration": 0.24390249999999014
        },
        {
          "name": "G4",
          "midi": 67,
          "time": 179.51223999999985,
          "velocity": 0.7874015748031497,
          "duration": 0.24390249999999014
        },
        {
          "name": "G5",
          "midi": 79,
          "time": 179.51223999999985,
          "velocity": 0.7874015748031497,
          "duration": 0.24390249999999014
        },
        {
          "name": "G4",
          "midi": 67,
          "time": 179.87809374999983,
          "velocity": 0.7874015748031497,
          "duration": 0.36585375000001363
        },
        {
          "name": "G5",
          "midi": 79,
          "time": 179.87809374999983,
          "velocity": 0.7874015748031497,
          "duration": 0.36585375000001363
        },
        {
          "name": "F4",
          "midi": 65,
          "time": 180.24394749999985,
          "velocity": 0.7874015748031497,
          "duration": 0.36585375000001363
        },
        {
          "name": "F5",
          "midi": 77,
          "time": 180.24394749999985,
          "velocity": 0.7874015748031497,
          "duration": 0.36585375000001363
        },
        {
          "name": "F4",
          "midi": 65,
          "time": 181.21955749999987,
          "velocity": 0.7874015748031497,
          "duration": 0.24390249999999014
        },
        {
          "name": "F5",
          "midi": 77,
          "time": 181.21955749999987,
          "velocity": 0.7874015748031497,
          "duration": 0.24390249999999014
        },
        {
          "name": "A4",
          "midi": 69,
          "time": 181.46345999999986,
          "velocity": 0.7874015748031497,
          "duration": 0.4878050000000087
        },
        {
          "name": "A5",
          "midi": 81,
          "time": 181.46345999999986,
          "velocity": 0.7874015748031497,
          "duration": 0.4878050000000087
        },
        {
          "name": "C6",
          "midi": 84,
          "time": 181.95126499999986,
          "velocity": 0.7874015748031497,
          "duration": 0.24390249999999014
        },
        {
          "name": "C5",
          "midi": 72,
          "time": 181.95126499999986,
          "velocity": 0.7874015748031497,
          "duration": 0.24390249999999014
        },
        {
          "name": "C5",
          "midi": 72,
          "time": 182.19516749999985,
          "velocity": 0.7874015748031497,
          "duration": 0.12195124999999507
        },
        {
          "name": "C6",
          "midi": 84,
          "time": 182.2612244270832,
          "velocity": 0.7401574803149606,
          "duration": 0.12195124999999507
        },
        {
          "name": "C5",
          "midi": 72,
          "time": 182.31711874999985,
          "velocity": 0.7401574803149606,
          "duration": 0.12195124999999507
        },
        {
          "name": "C6",
          "midi": 84,
          "time": 182.3831756770832,
          "velocity": 0.6299212598425197,
          "duration": 0.12195124999999507
        },
        {
          "name": "C5",
          "midi": 72,
          "time": 182.43906999999984,
          "velocity": 0.6929133858267716,
          "duration": 0.12195124999999507
        },
        {
          "name": "C6",
          "midi": 84,
          "time": 182.50512692708318,
          "velocity": 0.6929133858267716,
          "duration": 0.12195124999999507
        },
        {
          "name": "C5",
          "midi": 72,
          "time": 182.56102124999984,
          "velocity": 0.6929133858267716,
          "duration": 0.12195124999999507
        },
        {
          "name": "C6",
          "midi": 84,
          "time": 182.62707817708318,
          "velocity": 0.6771653543307087,
          "duration": 0.12195124999999507
        },
        {
          "name": "C5",
          "midi": 72,
          "time": 182.68297249999983,
          "velocity": 0.6220472440944882,
          "duration": 0.12195124999999507
        },
        {
          "name": "C6",
          "midi": 84,
          "time": 182.74902942708317,
          "velocity": 0.5590551181102362,
          "duration": 0.12195124999999507
        },
        {
          "name": "C5",
          "midi": 72,
          "time": 182.80492374999983,
          "velocity": 0.6220472440944882,
          "duration": 0.12195124999999507
        },
        {
          "name": "C6",
          "midi": 84,
          "time": 182.87098067708317,
          "velocity": 0.6220472440944882,
          "duration": 0.12195124999999507
        },
        {
          "name": "C5",
          "midi": 72,
          "time": 182.92687499999982,
          "velocity": 0.5354330708661418,
          "duration": 0.12195124999999507
        },
        {
          "name": "C6",
          "midi": 84,
          "time": 182.99293192708316,
          "velocity": 0.5039370078740157,
          "duration": 0.12195124999999507
        },
        {
          "name": "C5",
          "midi": 72,
          "time": 183.04882624999982,
          "velocity": 0.47244094488188976,
          "duration": 0.12195124999999507
        },
        {
          "name": "C6",
          "midi": 84,
          "time": 183.11488317708316,
          "velocity": 0.4330708661417323,
          "duration": 0.12195124999999507
        },
        {
          "name": "C5",
          "midi": 72,
          "time": 183.17077749999982,
          "velocity": 0.4251968503937008,
          "duration": 0.12195124999999507
        },
        {
          "name": "C6",
          "midi": 84,
          "time": 183.23683442708315,
          "velocity": 0.4015748031496063,
          "duration": 0.12195124999999507
        },
        {
          "name": "C5",
          "midi": 72,
          "time": 183.2927287499998,
          "velocity": 0.4015748031496063,
          "duration": 0.12195124999999507
        },
        {
          "name": "C6",
          "midi": 84,
          "time": 183.35878567708315,
          "velocity": 0.4015748031496063,
          "duration": 0.12195124999999507
        },
        {
          "name": "C5",
          "midi": 72,
          "time": 183.4146799999998,
          "velocity": 0.4015748031496063,
          "duration": 0.12195124999999507
        },
        {
          "name": "C6",
          "midi": 84,
          "time": 183.48073692708314,
          "velocity": 0.4015748031496063,
          "duration": 0.12195124999999507
        },
        {
          "name": "C5",
          "midi": 72,
          "time": 183.5366312499998,
          "velocity": 0.4015748031496063,
          "duration": 0.12195124999999507
        },
        {
          "name": "C6",
          "midi": 84,
          "time": 183.60268817708314,
          "velocity": 0.4015748031496063,
          "duration": 0.12195124999999507
        },
        {
          "name": "C5",
          "midi": 72,
          "time": 183.6585824999998,
          "velocity": 0.30708661417322836,
          "duration": 0.12195124999999507
        },
        {
          "name": "C6",
          "midi": 84,
          "time": 183.72463942708313,
          "velocity": 0.4015748031496063,
          "duration": 0.12195124999999507
        },
        {
          "name": "C5",
          "midi": 72,
          "time": 183.7805337499998,
          "velocity": 0.4015748031496063,
          "duration": 0.12195124999999507
        },
        {
          "name": "C6",
          "midi": 84,
          "time": 183.84659067708313,
          "velocity": 0.4094488188976378,
          "duration": 0.12195124999999507
        },
        {
          "name": "C5",
          "midi": 72,
          "time": 183.90248499999979,
          "velocity": 0.44881889763779526,
          "duration": 0.12195124999999507
        },
        {
          "name": "C6",
          "midi": 84,
          "time": 183.96854192708312,
          "velocity": 0.44881889763779526,
          "duration": 0.12195124999999507
        },
        {
          "name": "C5",
          "midi": 72,
          "time": 184.02443624999978,
          "velocity": 0.5118110236220472,
          "duration": 0.12195124999999507
        },
        {
          "name": "C6",
          "midi": 84,
          "time": 184.09049317708312,
          "velocity": 0.6299212598425197,
          "duration": 0.12195124999999507
        },
        {
          "name": "C5",
          "midi": 72,
          "time": 184.14638749999978,
          "velocity": 0.7165354330708661,
          "duration": 0.12195124999999507
        },
        {
          "name": "C6",
          "midi": 84,
          "time": 184.2124444270831,
          "velocity": 0.7952755905511811,
          "duration": 0.12195124999999507
        },
        {
          "name": "C5",
          "midi": 72,
          "time": 184.26833874999977,
          "velocity": 0.952755905511811,
          "duration": 0.1829268749999926
        },
        {
          "name": "C6",
          "midi": 84,
          "time": 184.3343956770831,
          "velocity": 0.8818897637795275,
          "duration": 0.17784557291665237
        },
        {
          "name": "C7",
          "midi": 96,
          "time": 184.63419249999976,
          "velocity": 0.952755905511811,
          "duration": 0.4878050000000087
        },
        {
          "name": "C6",
          "midi": 84,
          "time": 184.63419249999976,
          "velocity": 0.952755905511811,
          "duration": 0.4878050000000087
        },
        {
          "name": "D7",
          "midi": 98,
          "time": 185.12199749999976,
          "velocity": 0.7874015748031497,
          "duration": 0.4878050000000087
        },
        {
          "name": "D6",
          "midi": 86,
          "time": 185.12199749999976,
          "velocity": 0.7874015748031497,
          "duration": 0.4878050000000087
        },
        {
          "name": "A6",
          "midi": 93,
          "time": 185.85370499999976,
          "velocity": 0.7874015748031497,
          "duration": 0.24390249999999014
        },
        {
          "name": "A5",
          "midi": 81,
          "time": 185.85370499999976,
          "velocity": 0.7874015748031497,
          "duration": 0.24390249999999014
        },
        {
          "name": "G#5",
          "midi": 80,
          "time": 186.09760749999975,
          "velocity": 0.7874015748031497,
          "duration": 0.24390249999999014
        },
        {
          "name": "G#6",
          "midi": 92,
          "time": 186.09760749999975,
          "velocity": 0.7874015748031497,
          "duration": 0.24390249999999014
        },
        {
          "name": "G5",
          "midi": 79,
          "time": 186.34150999999974,
          "velocity": 0.7874015748031497,
          "duration": 0.24390249999999014
        },
        {
          "name": "G6",
          "midi": 91,
          "time": 186.34150999999974,
          "velocity": 0.7874015748031497,
          "duration": 0.24390249999999014
        },
        {
          "name": "F6",
          "midi": 89,
          "time": 186.58541249999973,
          "velocity": 0.7874015748031497,
          "duration": 0.24390249999999014
        },
        {
          "name": "F5",
          "midi": 77,
          "time": 186.58541249999973,
          "velocity": 0.7874015748031497,
          "duration": 0.24390249999999014
        },
        {
          "name": "F6",
          "midi": 89,
          "time": 187.0732174999997,
          "velocity": 0.7874015748031497,
          "duration": 0.24390249999999014
        },
        {
          "name": "F5",
          "midi": 77,
          "time": 187.0732174999997,
          "velocity": 0.7874015748031497,
          "duration": 0.24390249999999014
        },
        {
          "name": "G5",
          "midi": 79,
          "time": 187.3171199999997,
          "velocity": 0.7874015748031497,
          "duration": 0.24390249999999014
        },
        {
          "name": "G6",
          "midi": 91,
          "time": 187.3171199999997,
          "velocity": 0.7874015748031497,
          "duration": 0.24390249999999014
        },
        {
          "name": "G6",
          "midi": 91,
          "time": 187.6829737499997,
          "velocity": 0.7874015748031497,
          "duration": 0.36585375000001363
        },
        {
          "name": "G5",
          "midi": 79,
          "time": 187.6829737499997,
          "velocity": 0.7874015748031497,
          "duration": 0.36585375000001363
        },
        {
          "name": "F6",
          "midi": 89,
          "time": 188.0488274999997,
          "velocity": 0.7874015748031497,
          "duration": 0.7317074999999988
        },
        {
          "name": "F5",
          "midi": 77,
          "time": 188.0488274999997,
          "velocity": 0.7874015748031497,
          "duration": 0.7317074999999988
        },
        {
          "name": "F4",
          "midi": 65,
          "time": 189.0244374999997,
          "velocity": 0.7874015748031497,
          "duration": 0.24390249999999014
        },
        {
          "name": "F5",
          "midi": 77,
          "time": 189.0244374999997,
          "velocity": 0.7874015748031497,
          "duration": 0.24390249999999014
        },
        {
          "name": "A5",
          "midi": 81,
          "time": 189.26833999999968,
          "velocity": 0.7874015748031497,
          "duration": 0.4878050000000087
        },
        {
          "name": "A4",
          "midi": 69,
          "time": 189.26833999999968,
          "velocity": 0.7874015748031497,
          "duration": 0.4878050000000087
        },
        {
          "name": "A5",
          "midi": 81,
          "time": 189.7561449999997,
          "velocity": 0.7637795275590551,
          "duration": 0.12195124999999507
        },
        {
          "name": "C6",
          "midi": 84,
          "time": 189.7561449999997,
          "velocity": 0.7874015748031497,
          "duration": 0.24390249999999014
        },
        {
          "name": "C5",
          "midi": 72,
          "time": 189.7561449999997,
          "velocity": 0.7874015748031497,
          "duration": 0.24390249999999014
        },
        {
          "name": "G5",
          "midi": 79,
          "time": 189.8780962499997,
          "velocity": 0.7637795275590551,
          "duration": 0.12195124999999507
        },
        {
          "name": "F5",
          "midi": 77,
          "time": 190.00004749999968,
          "velocity": 0.7637795275590551,
          "duration": 0.24390249999999014
        },
        {
          "name": "G5",
          "midi": 79,
          "time": 190.24394999999967,
          "velocity": 0.7637795275590551,
          "duration": 0.12195124999999507
        },
        {
          "name": "G#5",
          "midi": 80,
          "time": 190.73175499999968,
          "velocity": 0.7637795275590551,
          "duration": 0.12195124999999507
        },
        {
          "name": "G5",
          "midi": 79,
          "time": 190.85370624999968,
          "velocity": 0.7637795275590551,
          "duration": 0.12195124999999507
        },
        {
          "name": "F5",
          "midi": 77,
          "time": 190.97565749999967,
          "velocity": 0.7637795275590551,
          "duration": 0.24390249999999014
        },
        {
          "name": "G5",
          "midi": 79,
          "time": 191.21955999999966,
          "velocity": 0.7637795275590551,
          "duration": 0.7317074999999988
        },
        {
          "name": "F5",
          "midi": 77,
          "time": 191.95126749999966,
          "velocity": 0.7637795275590551,
          "duration": 0.42682937500001117
        },
        {
          "name": "C6",
          "midi": 84,
          "time": 192.43907249999967,
          "velocity": 0.952755905511811,
          "duration": 0.4878050000000087
        },
        {
          "name": "C5",
          "midi": 72,
          "time": 192.43907249999967,
          "velocity": 0.952755905511811,
          "duration": 0.4878050000000087
        },
        {
          "name": "D5",
          "midi": 74,
          "time": 192.92687749999968,
          "velocity": 0.7874015748031497,
          "duration": 0.4878050000000087
        },
        {
          "name": "D6",
          "midi": 86,
          "time": 192.92687749999968,
          "velocity": 0.7874015748031497,
          "duration": 0.4878050000000087
        },
        {
          "name": "A5",
          "midi": 81,
          "time": 193.65858499999968,
          "velocity": 0.7874015748031497,
          "duration": 0.24390249999999014
        },
        {
          "name": "A4",
          "midi": 69,
          "time": 193.65858499999968,
          "velocity": 0.7874015748031497,
          "duration": 0.24390249999999014
        },
        {
          "name": "G#5",
          "midi": 80,
          "time": 193.90248749999967,
          "velocity": 0.7874015748031497,
          "duration": 0.24390249999999014
        },
        {
          "name": "G#4",
          "midi": 68,
          "time": 193.90248749999967,
          "velocity": 0.7874015748031497,
          "duration": 0.24390249999999014
        },
        {
          "name": "G4",
          "midi": 67,
          "time": 194.14638999999966,
          "velocity": 0.7874015748031497,
          "duration": 0.24390249999999014
        },
        {
          "name": "G5",
          "midi": 79,
          "time": 194.14638999999966,
          "velocity": 0.7874015748031497,
          "duration": 0.24390249999999014
        },
        {
          "name": "F4",
          "midi": 65,
          "time": 194.39029249999965,
          "velocity": 0.7874015748031497,
          "duration": 0.24390249999999014
        },
        {
          "name": "F5",
          "midi": 77,
          "time": 194.39029249999965,
          "velocity": 0.7874015748031497,
          "duration": 0.24390249999999014
        },
        {
          "name": "F5",
          "midi": 77,
          "time": 194.87809749999963,
          "velocity": 0.7874015748031497,
          "duration": 0.24390249999999014
        },
        {
          "name": "F4",
          "midi": 65,
          "time": 194.87809749999963,
          "velocity": 0.7874015748031497,
          "duration": 0.24390249999999014
        },
        {
          "name": "G5",
          "midi": 79,
          "time": 195.12199999999962,
          "velocity": 0.7874015748031497,
          "duration": 0.24390249999999014
        },
        {
          "name": "G4",
          "midi": 67,
          "time": 195.12199999999962,
          "velocity": 0.7874015748031497,
          "duration": 0.24390249999999014
        },
        {
          "name": "G5",
          "midi": 79,
          "time": 195.4878537499996,
          "velocity": 0.7874015748031497,
          "duration": 0.36585375000001363
        },
        {
          "name": "G4",
          "midi": 67,
          "time": 195.4878537499996,
          "velocity": 0.7874015748031497,
          "duration": 0.36585375000001363
        },
        {
          "name": "F5",
          "midi": 77,
          "time": 195.85370749999962,
          "velocity": 0.7874015748031497,
          "duration": 0.7317074999999988
        },
        {
          "name": "F4",
          "midi": 65,
          "time": 195.85370749999962,
          "velocity": 0.7874015748031497,
          "duration": 0.7317074999999988
        },
        {
          "name": "F5",
          "midi": 77,
          "time": 196.8293174999996,
          "velocity": 0.7874015748031497,
          "duration": 0.24390249999999014
        },
        {
          "name": "F6",
          "midi": 89,
          "time": 196.8293174999996,
          "velocity": 0.7874015748031497,
          "duration": 0.24390249999999014
        },
        {
          "name": "A6",
          "midi": 93,
          "time": 197.0732199999996,
          "velocity": 0.7874015748031497,
          "duration": 0.4878050000000087
        },
        {
          "name": "A5",
          "midi": 81,
          "time": 197.0732199999996,
          "velocity": 0.7874015748031497,
          "duration": 0.4878050000000087
        },
        {
          "name": "A6",
          "midi": 93,
          "time": 197.5610249999996,
          "velocity": 0.7637795275590551,
          "duration": 0.12195124999999507
        },
        {
          "name": "C7",
          "midi": 96,
          "time": 197.5610249999996,
          "velocity": 0.7874015748031497,
          "duration": 0.24390249999999014
        },
        {
          "name": "C6",
          "midi": 84,
          "time": 197.5610249999996,
          "velocity": 0.7874015748031497,
          "duration": 0.24390249999999014
        },
        {
          "name": "G6",
          "midi": 91,
          "time": 197.6829762499996,
          "velocity": 0.7637795275590551,
          "duration": 0.12195124999999507
        },
        {
          "name": "F6",
          "midi": 89,
          "time": 197.8049274999996,
          "velocity": 0.7637795275590551,
          "duration": 0.24390249999999014
        },
        {
          "name": "G6",
          "midi": 91,
          "time": 198.04882999999958,
          "velocity": 0.7637795275590551,
          "duration": 0.12195124999999507
        },
        {
          "name": "G#6",
          "midi": 92,
          "time": 198.5366349999996,
          "velocity": 0.7637795275590551,
          "duration": 0.12195124999999507
        },
        {
          "name": "G6",
          "midi": 91,
          "time": 198.6585862499996,
          "velocity": 0.7637795275590551,
          "duration": 0.12195124999999507
        },
        {
          "name": "F6",
          "midi": 89,
          "time": 198.78053749999958,
          "velocity": 0.7637795275590551,
          "duration": 0.24390249999999014
        },
        {
          "name": "G6",
          "midi": 91,
          "time": 199.02443999999957,
          "velocity": 0.7637795275590551,
          "duration": 0.7317074999999988
        },
        {
          "name": "F6",
          "midi": 89,
          "time": 199.75614749999957,
          "velocity": 0.7637795275590551,
          "duration": 0.42682937500001117
        },
        {
          "name": "C7",
          "midi": 96,
          "time": 200.24395249999958,
          "velocity": 0.952755905511811,
          "duration": 0.4878050000000087
        },
        {
          "name": "C6",
          "midi": 84,
          "time": 200.24395249999958,
          "velocity": 0.952755905511811,
          "duration": 0.4878050000000087
        },
        {
          "name": "D6",
          "midi": 86,
          "time": 200.7317574999996,
          "velocity": 0.7874015748031497,
          "duration": 0.4878050000000087
        },
        {
          "name": "D7",
          "midi": 98,
          "time": 200.7317574999996,
          "velocity": 0.7874015748031497,
          "duration": 0.4878050000000087
        },
        {
          "name": "A6",
          "midi": 93,
          "time": 201.4634649999996,
          "velocity": 0.7874015748031497,
          "duration": 0.24390249999999014
        },
        {
          "name": "A5",
          "midi": 81,
          "time": 201.4634649999996,
          "velocity": 0.7874015748031497,
          "duration": 0.24390249999999014
        },
        {
          "name": "G#6",
          "midi": 92,
          "time": 201.70736749999958,
          "velocity": 0.7874015748031497,
          "duration": 0.24390249999999014
        },
        {
          "name": "G#5",
          "midi": 80,
          "time": 201.70736749999958,
          "velocity": 0.7874015748031497,
          "duration": 0.24390249999999014
        },
        {
          "name": "G5",
          "midi": 79,
          "time": 201.95126999999957,
          "velocity": 0.7874015748031497,
          "duration": 0.24390249999999014
        },
        {
          "name": "G6",
          "midi": 91,
          "time": 201.95126999999957,
          "velocity": 0.7874015748031497,
          "duration": 0.24390249999999014
        },
        {
          "name": "F5",
          "midi": 77,
          "time": 202.19517249999956,
          "velocity": 0.7874015748031497,
          "duration": 0.24390249999999014
        },
        {
          "name": "F6",
          "midi": 89,
          "time": 202.19517249999956,
          "velocity": 0.7874015748031497,
          "duration": 0.24390249999999014
        },
        {
          "name": "G6",
          "midi": 91,
          "time": 202.92687999999956,
          "velocity": 0.7874015748031497,
          "duration": 0.24390249999999014
        },
        {
          "name": "G5",
          "midi": 79,
          "time": 202.92687999999956,
          "velocity": 0.7874015748031497,
          "duration": 0.24390249999999014
        },
        {
          "name": "G6",
          "midi": 91,
          "time": 203.17078249999955,
          "velocity": 0.7874015748031497,
          "duration": 0.12195124999999507
        },
        {
          "name": "G5",
          "midi": 79,
          "time": 203.17078249999955,
          "velocity": 0.7874015748031497,
          "duration": 0.12195124999999507
        },
        {
          "name": "G6",
          "midi": 91,
          "time": 203.29273374999954,
          "velocity": 0.7874015748031497,
          "duration": 0.36585375000001363
        },
        {
          "name": "G5",
          "midi": 79,
          "time": 203.29273374999954,
          "velocity": 0.7874015748031497,
          "duration": 0.36585375000001363
        },
        {
          "name": "F6",
          "midi": 89,
          "time": 203.65858749999956,
          "velocity": 0.7874015748031497,
          "duration": 0.7317074999999988
        },
        {
          "name": "F5",
          "midi": 77,
          "time": 203.65858749999956,
          "velocity": 0.7874015748031497,
          "duration": 0.7317074999999988
        },
        {
          "name": "D4",
          "midi": 62,
          "time": 204.87809999999956,
          "velocity": 0.7637795275590551,
          "duration": 1.9512200000000348
        },
        {
          "name": "F4",
          "midi": 65,
          "time": 204.87809999999956,
          "velocity": 0.7637795275590551,
          "duration": 1.9512200000000348
        },
        {
          "name": "A4",
          "midi": 69,
          "time": 204.87809999999956,
          "velocity": 0.7637795275590551,
          "duration": 1.9512200000000348
        },
        {
          "name": "C5",
          "midi": 72,
          "time": 206.09761249999957,
          "velocity": 0.7637795275590551,
          "duration": 0.36585375000001363
        },
        {
          "name": "D5",
          "midi": 74,
          "time": 206.46346624999958,
          "velocity": 0.7637795275590551,
          "duration": 0.36585375000001363
        },
        {
          "name": "G4",
          "midi": 67,
          "time": 206.8293199999996,
          "velocity": 0.7637795275590551,
          "duration": 0.7317074999999988
        },
        {
          "name": "D#5",
          "midi": 75,
          "time": 206.8293199999996,
          "velocity": 0.7637795275590551,
          "duration": 0.7317074999999988
        },
        {
          "name": "F4",
          "midi": 65,
          "time": 207.5610274999996,
          "velocity": 0.7637795275590551,
          "duration": 1.2195124999999791
        },
        {
          "name": "D5",
          "midi": 74,
          "time": 207.5610274999996,
          "velocity": 0.7637795275590551,
          "duration": 0.975609999999989
        },
        {
          "name": "D4",
          "midi": 62,
          "time": 208.78053999999958,
          "velocity": 0.7637795275590551,
          "duration": 1.9512200000000064
        },
        {
          "name": "F4",
          "midi": 65,
          "time": 208.78053999999958,
          "velocity": 0.7637795275590551,
          "duration": 1.9512200000000064
        },
        {
          "name": "A4",
          "midi": 69,
          "time": 208.78053999999958,
          "velocity": 0.7637795275590551,
          "duration": 1.9512200000000064
        },
        {
          "name": "C5",
          "midi": 72,
          "time": 209.51224749999957,
          "velocity": 0.7637795275590551,
          "duration": 0.7317074999999988
        },
        {
          "name": "D5",
          "midi": 74,
          "time": 210.24395499999957,
          "velocity": 0.7637795275590551,
          "duration": 0.4878050000000087
        },
        {
          "name": "G4",
          "midi": 67,
          "time": 210.73175999999958,
          "velocity": 0.7637795275590551,
          "duration": 0.7317074999999988
        },
        {
          "name": "D#5",
          "midi": 75,
          "time": 210.73175999999958,
          "velocity": 0.7637795275590551,
          "duration": 0.7317074999999988
        },
        {
          "name": "F4",
          "midi": 65,
          "time": 211.46346749999958,
          "velocity": 0.7637795275590551,
          "duration": 1.2195124999999791
        },
        {
          "name": "F5",
          "midi": 77,
          "time": 211.46346749999958,
          "velocity": 0.7637795275590551,
          "duration": 0.975609999999989
        },
        {
          "name": "D4",
          "midi": 62,
          "time": 212.68297999999956,
          "velocity": 0.7637795275590551,
          "duration": 1.9512200000000348
        },
        {
          "name": "F4",
          "midi": 65,
          "time": 212.68297999999956,
          "velocity": 0.7637795275590551,
          "duration": 1.9512200000000348
        },
        {
          "name": "A4",
          "midi": 69,
          "time": 212.68297999999956,
          "velocity": 0.7637795275590551,
          "duration": 1.9512200000000348
        },
        {
          "name": "C5",
          "midi": 72,
          "time": 213.90249249999957,
          "velocity": 0.7637795275590551,
          "duration": 0.36585375000001363
        },
        {
          "name": "D5",
          "midi": 74,
          "time": 214.26834624999958,
          "velocity": 0.7637795275590551,
          "duration": 0.36585375000001363
        },
        {
          "name": "G4",
          "midi": 67,
          "time": 214.6341999999996,
          "velocity": 0.7637795275590551,
          "duration": 0.7317074999999988
        },
        {
          "name": "D#5",
          "midi": 75,
          "time": 214.6341999999996,
          "velocity": 0.7637795275590551,
          "duration": 0.7317074999999988
        },
        {
          "name": "F4",
          "midi": 65,
          "time": 215.3659074999996,
          "velocity": 0.7637795275590551,
          "duration": 1.2195124999999791
        },
        {
          "name": "D5",
          "midi": 74,
          "time": 215.3659074999996,
          "velocity": 0.7637795275590551,
          "duration": 0.975609999999989
        },
        {
          "name": "D5",
          "midi": 74,
          "time": 216.58541999999957,
          "velocity": 0.7637795275590551,
          "duration": 1.4634149999999977
        },
        {
          "name": "A4",
          "midi": 69,
          "time": 216.58541999999957,
          "velocity": 0.7637795275590551,
          "duration": 1.9512200000000064
        },
        {
          "name": "F5",
          "midi": 77,
          "time": 216.58541999999957,
          "velocity": 0.7637795275590551,
          "duration": 1.9512200000000064
        },
        {
          "name": "F4",
          "midi": 65,
          "time": 216.58541999999957,
          "velocity": 0.7637795275590551,
          "duration": 1.9512200000000064
        },
        {
          "name": "C5",
          "midi": 72,
          "time": 217.31712749999957,
          "velocity": 0.7637795275590551,
          "duration": 0.7317074999999988
        },
        {
          "name": "D5",
          "midi": 74,
          "time": 218.04883499999957,
          "velocity": 0.7637795275590551,
          "duration": 0.4878050000000087
        },
        {
          "name": "D#5",
          "midi": 75,
          "time": 218.53663999999958,
          "velocity": 0.7637795275590551,
          "duration": 0.7317074999999988
        },
        {
          "name": "G4",
          "midi": 67,
          "time": 218.53663999999958,
          "velocity": 0.7637795275590551,
          "duration": 0.7317074999999988
        },
        {
          "name": "D5",
          "midi": 74,
          "time": 219.26834749999958,
          "velocity": 0.7637795275590551,
          "duration": 1.2195125000000075
        },
        {
          "name": "F4",
          "midi": 65,
          "time": 219.26834749999958,
          "velocity": 0.7637795275590551,
          "duration": 1.2195125000000075
        },
        {
          "name": "D5",
          "midi": 74,
          "time": 220.48785999999959,
          "velocity": 0.7637795275590551,
          "duration": 1.9512200000000348
        },
        {
          "name": "F5",
          "midi": 77,
          "time": 220.48785999999959,
          "velocity": 0.7637795275590551,
          "duration": 1.9512200000000348
        },
        {
          "name": "A5",
          "midi": 81,
          "time": 220.48785999999959,
          "velocity": 0.7637795275590551,
          "duration": 1.9512200000000348
        },
        {
          "name": "C6",
          "midi": 84,
          "time": 221.7073724999996,
          "velocity": 0.7637795275590551,
          "duration": 0.36585375000001363
        },
        {
          "name": "D6",
          "midi": 86,
          "time": 222.0732262499996,
          "velocity": 0.7637795275590551,
          "duration": 0.36585375000001363
        },
        {
          "name": "G5",
          "midi": 79,
          "time": 222.43907999999962,
          "velocity": 0.7637795275590551,
          "duration": 0.7317074999999988
        },
        {
          "name": "D#6",
          "midi": 87,
          "time": 222.43907999999962,
          "velocity": 0.7637795275590551,
          "duration": 0.7317074999999988
        },
        {
          "name": "F5",
          "midi": 77,
          "time": 223.17078749999962,
          "velocity": 0.7637795275590551,
          "duration": 1.2195124999999791
        },
        {
          "name": "D6",
          "midi": 86,
          "time": 223.17078749999962,
          "velocity": 0.7637795275590551,
          "duration": 0.975609999999989
        },
        {
          "name": "D5",
          "midi": 74,
          "time": 224.3902999999996,
          "velocity": 0.7637795275590551,
          "duration": 1.9512200000000064
        },
        {
          "name": "F5",
          "midi": 77,
          "time": 224.3902999999996,
          "velocity": 0.7637795275590551,
          "duration": 1.9512200000000064
        },
        {
          "name": "A5",
          "midi": 81,
          "time": 224.3902999999996,
          "velocity": 0.7637795275590551,
          "duration": 1.9512200000000064
        },
        {
          "name": "C6",
          "midi": 84,
          "time": 225.1220074999996,
          "velocity": 0.7637795275590551,
          "duration": 0.7317074999999988
        },
        {
          "name": "D6",
          "midi": 86,
          "time": 225.8537149999996,
          "velocity": 0.7637795275590551,
          "duration": 0.4878050000000087
        },
        {
          "name": "G5",
          "midi": 79,
          "time": 226.3415199999996,
          "velocity": 0.7637795275590551,
          "duration": 0.7317074999999988
        },
        {
          "name": "D#6",
          "midi": 87,
          "time": 226.3415199999996,
          "velocity": 0.7637795275590551,
          "duration": 0.7317074999999988
        },
        {
          "name": "F5",
          "midi": 77,
          "time": 227.0732274999996,
          "velocity": 0.7637795275590551,
          "duration": 1.2195124999999791
        },
        {
          "name": "F6",
          "midi": 89,
          "time": 227.0732274999996,
          "velocity": 0.7637795275590551,
          "duration": 0.975609999999989
        },
        {
          "name": "A5",
          "midi": 81,
          "time": 228.29273999999958,
          "velocity": 0.7637795275590551,
          "duration": 1.9512200000000348
        },
        {
          "name": "C6",
          "midi": 84,
          "time": 229.5122524999996,
          "velocity": 0.7637795275590551,
          "duration": 0.36585375000001363
        },
        {
          "name": "D6",
          "midi": 86,
          "time": 229.8781062499996,
          "velocity": 0.7637795275590551,
          "duration": 0.36585375000001363
        },
        {
          "name": "G5",
          "midi": 79,
          "time": 230.24395999999962,
          "velocity": 0.7637795275590551,
          "duration": 0.7317074999999988
        },
        {
          "name": "D#6",
          "midi": 87,
          "time": 230.24395999999962,
          "velocity": 0.7637795275590551,
          "duration": 0.7317074999999988
        },
        {
          "name": "F5",
          "midi": 77,
          "time": 230.97566749999962,
          "velocity": 0.7637795275590551,
          "duration": 1.2195124999999791
        },
        {
          "name": "D6",
          "midi": 86,
          "time": 230.97566749999962,
          "velocity": 0.7637795275590551,
          "duration": 0.975609999999989
        },
        {
          "name": "A5",
          "midi": 81,
          "time": 232.1951799999996,
          "velocity": 0.7637795275590551,
          "duration": 1.9512200000000064
        },
        {
          "name": "F6",
          "midi": 89,
          "time": 232.1951799999996,
          "velocity": 0.7637795275590551,
          "duration": 1.9512200000000064
        },
        {
          "name": "C6",
          "midi": 84,
          "time": 232.9268874999996,
          "velocity": 0.7637795275590551,
          "duration": 0.7317074999999988
        },
        {
          "name": "D6",
          "midi": 86,
          "time": 233.6585949999996,
          "velocity": 0.7637795275590551,
          "duration": 0.4878050000000087
        },
        {
          "name": "D#6",
          "midi": 87,
          "time": 234.1463999999996,
          "velocity": 0.7637795275590551,
          "duration": 0.7317074999999988
        },
        {
          "name": "G5",
          "midi": 79,
          "time": 234.1463999999996,
          "velocity": 0.7637795275590551,
          "duration": 0.7317074999999988
        },
        {
          "name": "F5",
          "midi": 77,
          "time": 234.8781074999996,
          "velocity": 0.7637795275590551,
          "duration": 1.2195125000000075
        },
        {
          "name": "D6",
          "midi": 86,
          "time": 234.8781074999996,
          "velocity": 0.7637795275590551,
          "duration": 1.2195125000000075
        },
        {
          "name": "D5",
          "midi": 74,
          "time": 236.0976199999996,
          "velocity": 0.7637795275590551,
          "duration": 7.804879999999997
        }
      ],
      "controlChanges": {
        "6": [
          {
            "number": 6,
            "time": 0,
            "value": 0.09448818897637795
          },
          {
            "number": 6,
            "time": 0,
            "value": 0.09448818897637795
          },
          {
            "number": 6,
            "time": 243.9024999999996,
            "value": 0.09448818897637795
          },
          {
            "number": 6,
            "time": 243.9126626041663,
            "value": 0.09448818897637795
          },
          {
            "number": 6,
            "time": 243.9126626041663,
            "value": 0.09448818897637795
          }
        ],
        "7": [
          {
            "number": 7,
            "time": 0,
            "value": 0.7874015748031497
          },
          {
            "number": 7,
            "time": 0,
            "value": 0.7874015748031497
          },
          {
            "number": 7,
            "time": 0,
            "value": 0.7874015748031497
          },
          {
            "number": 7,
            "time": 243.9024999999996,
            "value": 0.7874015748031497
          },
          {
            "number": 7,
            "time": 243.9126626041663,
            "value": 0.7874015748031497
          },
          {
            "number": 7,
            "time": 243.9126626041663,
            "value": 0.7874015748031497
          }
        ],
        "10": [
          {
            "number": 10,
            "time": 0,
            "value": 0.5039370078740157
          },
          {
            "number": 10,
            "time": 0,
            "value": 0.5039370078740157
          },
          {
            "number": 10,
            "time": 0,
            "value": 0.5039370078740157
          },
          {
            "number": 10,
            "time": 243.9024999999996,
            "value": 0.5039370078740157
          },
          {
            "number": 10,
            "time": 243.9126626041663,
            "value": 0.5039370078740157
          },
          {
            "number": 10,
            "time": 243.9126626041663,
            "value": 0.5039370078740157
          }
        ],
        "100": [
          {
            "number": 100,
            "time": 0,
            "value": 0
          },
          {
            "number": 100,
            "time": 0,
            "value": 0
          },
          {
            "number": 100,
            "time": 243.9024999999996,
            "value": 0
          },
          {
            "number": 100,
            "time": 243.9126626041663,
            "value": 0
          },
          {
            "number": 100,
            "time": 243.9126626041663,
            "value": 0
          }
        ],
        "101": [
          {
            "number": 101,
            "time": 0,
            "value": 0
          },
          {
            "number": 101,
            "time": 0,
            "value": 0
          },
          {
            "number": 101,
            "time": 243.9024999999996,
            "value": 0
          },
          {
            "number": 101,
            "time": 243.9126626041663,
            "value": 0
          },
          {
            "number": 101,
            "time": 243.9126626041663,
            "value": 0
          }
        ]
      },
      "id": 2,
      "name": "Right Hand",
      "channelNumber": 0,
      "isPercussion": false
    },
    {
      "startTime": 0,
      "duration": 243.90249999999648,
      "length": 1206,
      "notes": [
        {
          "name": "D4",
          "midi": 62,
          "time": 0,
          "velocity": 0.7874015748031497,
          "duration": 0.12195125000000001
        },
        {
          "name": "D4",
          "midi": 62,
          "time": 0.7317075,
          "velocity": 0.7874015748031497,
          "duration": 0.12195124999999996
        },
        {
          "name": "D4",
          "midi": 62,
          "time": 1.34146375,
          "velocity": 0.7874015748031497,
          "duration": 0.2439024999999999
        },
        {
          "name": "D4",
          "midi": 62,
          "time": 1.95122,
          "velocity": 0.7874015748031497,
          "duration": 0.12195125000000018
        },
        {
          "name": "D4",
          "midi": 62,
          "time": 2.6829275,
          "velocity": 0.7874015748031497,
          "duration": 0.12195124999999996
        },
        {
          "name": "D4",
          "midi": 62,
          "time": 3.29268375,
          "velocity": 0.7874015748031497,
          "duration": 0.6097562500000002
        },
        {
          "name": "D4",
          "midi": 62,
          "time": 3.9024400000000004,
          "velocity": 0.7874015748031497,
          "duration": 0.1219512500000004
        },
        {
          "name": "D4",
          "midi": 62,
          "time": 4.634147500000001,
          "velocity": 0.7874015748031497,
          "duration": 0.1219512500000004
        },
        {
          "name": "D4",
          "midi": 62,
          "time": 5.243903750000001,
          "velocity": 0.7874015748031497,
          "duration": 0.2439024999999999
        },
        {
          "name": "D4",
          "midi": 62,
          "time": 5.853660000000001,
          "velocity": 0.7874015748031497,
          "duration": 0.1219512500000004
        },
        {
          "name": "C4",
          "midi": 60,
          "time": 6.463416250000002,
          "velocity": 0.7874015748031497,
          "duration": 0.2439024999999999
        },
        {
          "name": "C3",
          "midi": 48,
          "time": 6.463416250000002,
          "velocity": 0.7874015748031497,
          "duration": 0.2439024999999999
        },
        {
          "name": "D4",
          "midi": 62,
          "time": 6.7073187500000016,
          "velocity": 0.7874015748031497,
          "duration": 0.2439024999999999
        },
        {
          "name": "D3",
          "midi": 50,
          "time": 6.7073187500000016,
          "velocity": 0.7874015748031497,
          "duration": 0.2439024999999999
        },
        {
          "name": "A3",
          "midi": 57,
          "time": 6.9512212500000015,
          "velocity": 0.7874015748031497,
          "duration": 0.2439024999999999
        },
        {
          "name": "A2",
          "midi": 45,
          "time": 6.9512212500000015,
          "velocity": 0.7874015748031497,
          "duration": 0.2439024999999999
        },
        {
          "name": "G#3",
          "midi": 56,
          "time": 7.195123750000001,
          "velocity": 0.7874015748031497,
          "duration": 0.2439024999999999
        },
        {
          "name": "G#2",
          "midi": 44,
          "time": 7.195123750000001,
          "velocity": 0.7874015748031497,
          "duration": 0.2439024999999999
        },
        {
          "name": "G2",
          "midi": 43,
          "time": 7.439026250000001,
          "velocity": 0.7874015748031497,
          "duration": 0.2439024999999999
        },
        {
          "name": "G3",
          "midi": 55,
          "time": 7.439026250000001,
          "velocity": 0.7874015748031497,
          "duration": 0.2439024999999999
        },
        {
          "name": "F2",
          "midi": 41,
          "time": 7.682928750000001,
          "velocity": 0.7874015748031497,
          "duration": 0.1219512500000004
        },
        {
          "name": "F3",
          "midi": 53,
          "time": 7.682928750000001,
          "velocity": 0.7874015748031497,
          "duration": 0.1219512500000004
        },
        {
          "name": "D3",
          "midi": 50,
          "time": 7.804880000000002,
          "velocity": 0.7874015748031497,
          "duration": 0.2439024999999999
        },
        {
          "name": "D2",
          "midi": 38,
          "time": 7.804880000000002,
          "velocity": 0.7874015748031497,
          "duration": 0.2439024999999999
        },
        {
          "name": "D3",
          "midi": 50,
          "time": 8.536587500000001,
          "velocity": 0.7874015748031497,
          "duration": 0.1219512500000004
        },
        {
          "name": "D2",
          "midi": 38,
          "time": 8.536587500000001,
          "velocity": 0.7874015748031497,
          "duration": 0.1219512500000004
        },
        {
          "name": "D3",
          "midi": 50,
          "time": 9.146343750000002,
          "velocity": 0.7874015748031497,
          "duration": 0.6097562500000002
        },
        {
          "name": "D2",
          "midi": 38,
          "time": 9.146343750000002,
          "velocity": 0.7874015748031497,
          "duration": 0.6097562500000002
        },
        {
          "name": "D3",
          "midi": 50,
          "time": 9.756100000000002,
          "velocity": 0.7874015748031497,
          "duration": 0.2439025000000008
        },
        {
          "name": "D2",
          "midi": 38,
          "time": 9.756100000000002,
          "velocity": 0.7874015748031497,
          "duration": 0.2439025000000008
        },
        {
          "name": "D3",
          "midi": 50,
          "time": 10.487807500000002,
          "velocity": 0.7874015748031497,
          "duration": 0.1219512500000004
        },
        {
          "name": "D2",
          "midi": 38,
          "time": 10.487807500000002,
          "velocity": 0.7874015748031497,
          "duration": 0.1219512500000004
        },
        {
          "name": "D3",
          "midi": 50,
          "time": 11.097563750000003,
          "velocity": 0.7874015748031497,
          "duration": 0.6097562500000002
        },
        {
          "name": "D2",
          "midi": 38,
          "time": 11.097563750000003,
          "velocity": 0.7874015748031497,
          "duration": 0.6097562500000002
        },
        {
          "name": "D3",
          "midi": 50,
          "time": 11.707320000000003,
          "velocity": 0.7874015748031497,
          "duration": 0.2439025000000008
        },
        {
          "name": "D2",
          "midi": 38,
          "time": 11.707320000000003,
          "velocity": 0.7874015748031497,
          "duration": 0.2439025000000008
        },
        {
          "name": "D3",
          "midi": 50,
          "time": 12.439027500000003,
          "velocity": 0.7874015748031497,
          "duration": 0.1219512500000004
        },
        {
          "name": "D2",
          "midi": 38,
          "time": 12.439027500000003,
          "velocity": 0.7874015748031497,
          "duration": 0.1219512500000004
        },
        {
          "name": "D3",
          "midi": 50,
          "time": 13.048783750000004,
          "velocity": 0.7874015748031497,
          "duration": 0.6097562500000002
        },
        {
          "name": "D2",
          "midi": 38,
          "time": 13.048783750000004,
          "velocity": 0.7874015748031497,
          "duration": 0.6097562500000002
        },
        {
          "name": "D3",
          "midi": 50,
          "time": 13.658540000000004,
          "velocity": 0.7874015748031497,
          "duration": 0.1219512500000004
        },
        {
          "name": "D2",
          "midi": 38,
          "time": 13.658540000000004,
          "velocity": 0.7874015748031497,
          "duration": 0.1219512500000004
        },
        {
          "name": "C3",
          "midi": 48,
          "time": 14.268296250000004,
          "velocity": 0.7874015748031497,
          "duration": 0.2439025000000008
        },
        {
          "name": "C2",
          "midi": 36,
          "time": 14.268296250000004,
          "velocity": 0.7874015748031497,
          "duration": 0.2439025000000008
        },
        {
          "name": "D3",
          "midi": 50,
          "time": 14.512198750000005,
          "velocity": 0.7874015748031497,
          "duration": 0.2439025000000008
        },
        {
          "name": "D2",
          "midi": 38,
          "time": 14.512198750000005,
          "velocity": 0.7874015748031497,
          "duration": 0.2439025000000008
        },
        {
          "name": "A2",
          "midi": 45,
          "time": 14.756101250000006,
          "velocity": 0.7874015748031497,
          "duration": 0.2439025000000008
        },
        {
          "name": "A1",
          "midi": 33,
          "time": 14.756101250000006,
          "velocity": 0.7874015748031497,
          "duration": 0.2439025000000008
        },
        {
          "name": "G#2",
          "midi": 44,
          "time": 15.000003750000007,
          "velocity": 0.7874015748031497,
          "duration": 0.2439025000000008
        },
        {
          "name": "G#1",
          "midi": 32,
          "time": 15.000003750000007,
          "velocity": 0.7874015748031497,
          "duration": 0.2439025000000008
        },
        {
          "name": "G2",
          "midi": 43,
          "time": 15.243906250000007,
          "velocity": 0.7874015748031497,
          "duration": 0.2439025000000008
        },
        {
          "name": "G1",
          "midi": 31,
          "time": 15.243906250000007,
          "velocity": 0.7874015748031497,
          "duration": 0.2439025000000008
        },
        {
          "name": "F2",
          "midi": 41,
          "time": 15.487808750000008,
          "velocity": 0.7874015748031497,
          "duration": 0.1219512500000004
        },
        {
          "name": "F1",
          "midi": 29,
          "time": 15.487808750000008,
          "velocity": 0.7874015748031497,
          "duration": 0.1219512500000004
        },
        {
          "name": "C3",
          "midi": 48,
          "time": 15.609760000000009,
          "velocity": 0.6456692913385826,
          "duration": 0.1219512500000004
        },
        {
          "name": "D3",
          "midi": 50,
          "time": 15.731711250000009,
          "velocity": 0.6456692913385826,
          "duration": 0.1219512500000004
        },
        {
          "name": "E3",
          "midi": 52,
          "time": 15.97561375000001,
          "velocity": 0.6456692913385826,
          "duration": 0.1219512500000004
        },
        {
          "name": "D3",
          "midi": 50,
          "time": 16.21951625000001,
          "velocity": 0.6456692913385826,
          "duration": 0.12195124999999862
        },
        {
          "name": "C3",
          "midi": 48,
          "time": 16.463418750000006,
          "velocity": 0.6456692913385826,
          "duration": 0.12195124999999862
        },
        {
          "name": "D3",
          "midi": 50,
          "time": 16.707321250000003,
          "velocity": 0.6456692913385826,
          "duration": 0.12195124999999862
        },
        {
          "name": "D3",
          "midi": 50,
          "time": 16.829272500000002,
          "velocity": 0.6456692913385826,
          "duration": 0.12195124999999862
        },
        {
          "name": "A2",
          "midi": 45,
          "time": 17.073175,
          "velocity": 0.6456692913385826,
          "duration": 0.12195124999999862
        },
        {
          "name": "G#2",
          "midi": 44,
          "time": 17.317077499999996,
          "velocity": 0.6456692913385826,
          "duration": 0.12195124999999862
        },
        {
          "name": "G2",
          "midi": 43,
          "time": 17.439028749999995,
          "velocity": 0.6456692913385826,
          "duration": 0.12195124999999862
        },
        {
          "name": "G2",
          "midi": 43,
          "time": 17.682931249999992,
          "velocity": 0.6456692913385826,
          "duration": 0.2439025000000008
        },
        {
          "name": "F2",
          "midi": 41,
          "time": 18.04878499999999,
          "velocity": 0.6456692913385826,
          "duration": 0.12195124999999862
        },
        {
          "name": "G2",
          "midi": 43,
          "time": 18.29268749999999,
          "velocity": 0.6456692913385826,
          "duration": 0.12195124999999862
        },
        {
          "name": "A2",
          "midi": 45,
          "time": 18.536589999999986,
          "velocity": 0.6456692913385826,
          "duration": 0.12195124999999862
        },
        {
          "name": "F2",
          "midi": 41,
          "time": 18.658541249999985,
          "velocity": 0.6456692913385826,
          "duration": 0.2439025000000008
        },
        {
          "name": "F2",
          "midi": 41,
          "time": 18.902443749999986,
          "velocity": 0.6456692913385826,
          "duration": 0.2439025000000008
        },
        {
          "name": "C3",
          "midi": 48,
          "time": 19.146346249999986,
          "velocity": 0.6456692913385826,
          "duration": 0.2439025000000008
        },
        {
          "name": "C3",
          "midi": 48,
          "time": 19.390248749999987,
          "velocity": 0.6456692913385826,
          "duration": 0.12195124999999862
        },
        {
          "name": "C3",
          "midi": 48,
          "time": 19.512199999999986,
          "velocity": 0.6456692913385826,
          "duration": 0.12195124999999862
        },
        {
          "name": "D3",
          "midi": 50,
          "time": 19.634151249999984,
          "velocity": 0.6456692913385826,
          "duration": 0.12195124999999862
        },
        {
          "name": "E3",
          "midi": 52,
          "time": 19.87805374999998,
          "velocity": 0.6456692913385826,
          "duration": 0.12195124999999862
        },
        {
          "name": "D3",
          "midi": 50,
          "time": 20.12195624999998,
          "velocity": 0.6456692913385826,
          "duration": 0.12195124999999862
        },
        {
          "name": "C3",
          "midi": 48,
          "time": 20.365858749999976,
          "velocity": 0.6456692913385826,
          "duration": 0.12195124999999862
        },
        {
          "name": "D3",
          "midi": 50,
          "time": 20.609761249999973,
          "velocity": 0.6456692913385826,
          "duration": 0.12195124999999862
        },
        {
          "name": "D3",
          "midi": 50,
          "time": 20.731712499999972,
          "velocity": 0.6456692913385826,
          "duration": 0.12195124999999862
        },
        {
          "name": "A2",
          "midi": 45,
          "time": 20.97561499999997,
          "velocity": 0.6456692913385826,
          "duration": 0.12195124999999862
        },
        {
          "name": "G#2",
          "midi": 44,
          "time": 21.219517499999967,
          "velocity": 0.6456692913385826,
          "duration": 0.12195124999999862
        },
        {
          "name": "G2",
          "midi": 43,
          "time": 21.341468749999965,
          "velocity": 0.6456692913385826,
          "duration": 0.4268293750000005
        },
        {
          "name": "G2",
          "midi": 43,
          "time": 21.829273749999967,
          "velocity": 0.6692913385826772,
          "duration": 0.12195124999999862
        },
        {
          "name": "F2",
          "midi": 41,
          "time": 22.195127499999966,
          "velocity": 0.6456692913385826,
          "duration": 0.12195124999999862
        },
        {
          "name": "G2",
          "midi": 43,
          "time": 22.317078749999965,
          "velocity": 0.6456692913385826,
          "duration": 0.12195124999999862
        },
        {
          "name": "A2",
          "midi": 45,
          "time": 22.439029999999963,
          "velocity": 0.6456692913385826,
          "duration": 0.12195124999999862
        },
        {
          "name": "C3",
          "midi": 48,
          "time": 22.560981249999962,
          "velocity": 0.6456692913385826,
          "duration": 0.12195124999999862
        },
        {
          "name": "C3",
          "midi": 48,
          "time": 22.80488374999996,
          "velocity": 0.6456692913385826,
          "duration": 0.12195124999999862
        },
        {
          "name": "C3",
          "midi": 48,
          "time": 23.048786249999957,
          "velocity": 0.6456692913385826,
          "duration": 0.2439025000000008
        },
        {
          "name": "C3",
          "midi": 48,
          "time": 23.292688749999957,
          "velocity": 0.6456692913385826,
          "duration": 0.12195124999999862
        },
        {
          "name": "C3",
          "midi": 48,
          "time": 23.414639999999956,
          "velocity": 0.6456692913385826,
          "duration": 0.12195124999999862
        },
        {
          "name": "D3",
          "midi": 50,
          "time": 23.536591249999955,
          "velocity": 0.6456692913385826,
          "duration": 0.12195124999999862
        },
        {
          "name": "E3",
          "midi": 52,
          "time": 23.780493749999952,
          "velocity": 0.6456692913385826,
          "duration": 0.12195124999999862
        },
        {
          "name": "D3",
          "midi": 50,
          "time": 24.02439624999995,
          "velocity": 0.6456692913385826,
          "duration": 0.12195124999999862
        },
        {
          "name": "C3",
          "midi": 48,
          "time": 24.268298749999946,
          "velocity": 0.6456692913385826,
          "duration": 0.12195124999999862
        },
        {
          "name": "D3",
          "midi": 50,
          "time": 24.512201249999944,
          "velocity": 0.6456692913385826,
          "duration": 0.12195124999999862
        },
        {
          "name": "D3",
          "midi": 50,
          "time": 24.634152499999942,
          "velocity": 0.6456692913385826,
          "duration": 0.12195124999999862
        },
        {
          "name": "A2",
          "midi": 45,
          "time": 24.87805499999994,
          "velocity": 0.6456692913385826,
          "duration": 0.12195124999999862
        },
        {
          "name": "G#2",
          "midi": 44,
          "time": 25.121957499999937,
          "velocity": 0.6456692913385826,
          "duration": 0.12195124999999862
        },
        {
          "name": "G2",
          "midi": 43,
          "time": 25.243908749999935,
          "velocity": 0.6456692913385826,
          "duration": 0.12195124999999862
        },
        {
          "name": "G2",
          "midi": 43,
          "time": 25.487811249999933,
          "velocity": 0.6456692913385826,
          "duration": 0.2439025000000008
        },
        {
          "name": "F2",
          "midi": 41,
          "time": 25.853664999999932,
          "velocity": 0.6456692913385826,
          "duration": 0.12195124999999862
        },
        {
          "name": "G2",
          "midi": 43,
          "time": 26.09756749999993,
          "velocity": 0.6456692913385826,
          "duration": 0.12195124999999862
        },
        {
          "name": "A2",
          "midi": 45,
          "time": 26.341469999999926,
          "velocity": 0.6456692913385826,
          "duration": 0.12195124999999862
        },
        {
          "name": "F2",
          "midi": 41,
          "time": 26.463421249999925,
          "velocity": 0.6456692913385826,
          "duration": 0.2439025000000008
        },
        {
          "name": "F2",
          "midi": 41,
          "time": 26.707323749999926,
          "velocity": 0.6456692913385826,
          "duration": 0.2439025000000008
        },
        {
          "name": "C3",
          "midi": 48,
          "time": 26.951226249999927,
          "velocity": 0.6456692913385826,
          "duration": 0.2439025000000008
        },
        {
          "name": "C3",
          "midi": 48,
          "time": 27.195128749999927,
          "velocity": 0.6456692913385826,
          "duration": 0.12195124999999862
        },
        {
          "name": "C3",
          "midi": 48,
          "time": 27.317079999999926,
          "velocity": 0.6456692913385826,
          "duration": 0.12195124999999862
        },
        {
          "name": "D3",
          "midi": 50,
          "time": 27.439031249999925,
          "velocity": 0.6456692913385826,
          "duration": 0.12195124999999862
        },
        {
          "name": "E3",
          "midi": 52,
          "time": 27.682933749999922,
          "velocity": 0.6456692913385826,
          "duration": 0.12195124999999862
        },
        {
          "name": "D3",
          "midi": 50,
          "time": 27.92683624999992,
          "velocity": 0.6456692913385826,
          "duration": 0.12195124999999862
        },
        {
          "name": "C3",
          "midi": 48,
          "time": 28.170738749999916,
          "velocity": 0.6456692913385826,
          "duration": 0.12195124999999862
        },
        {
          "name": "D3",
          "midi": 50,
          "time": 28.414641249999914,
          "velocity": 0.6456692913385826,
          "duration": 0.12195124999999862
        },
        {
          "name": "D3",
          "midi": 50,
          "time": 28.536592499999912,
          "velocity": 0.6456692913385826,
          "duration": 0.12195124999999862
        },
        {
          "name": "A2",
          "midi": 45,
          "time": 28.78049499999991,
          "velocity": 0.6456692913385826,
          "duration": 0.12195124999999862
        },
        {
          "name": "G#2",
          "midi": 44,
          "time": 29.024397499999907,
          "velocity": 0.6456692913385826,
          "duration": 0.12195124999999862
        },
        {
          "name": "G2",
          "midi": 43,
          "time": 29.146348749999905,
          "velocity": 0.6456692913385826,
          "duration": 0.4268293750000005
        },
        {
          "name": "G2",
          "midi": 43,
          "time": 29.634153749999907,
          "velocity": 0.6692913385826772,
          "duration": 0.12195124999999862
        },
        {
          "name": "F2",
          "midi": 41,
          "time": 30.000007499999906,
          "velocity": 0.6456692913385826,
          "duration": 0.12195124999999862
        },
        {
          "name": "G2",
          "midi": 43,
          "time": 30.121958749999905,
          "velocity": 0.6456692913385826,
          "duration": 0.12195124999999862
        },
        {
          "name": "A2",
          "midi": 45,
          "time": 30.243909999999904,
          "velocity": 0.6456692913385826,
          "duration": 0.12195124999999862
        },
        {
          "name": "C3",
          "midi": 48,
          "time": 30.365861249999902,
          "velocity": 0.6456692913385826,
          "duration": 0.12195124999999862
        },
        {
          "name": "C3",
          "midi": 48,
          "time": 30.6097637499999,
          "velocity": 0.6456692913385826,
          "duration": 0.12195124999999862
        },
        {
          "name": "C3",
          "midi": 48,
          "time": 30.853666249999897,
          "velocity": 0.6456692913385826,
          "duration": 0.2439025000000008
        },
        {
          "name": "C3",
          "midi": 48,
          "time": 31.097568749999898,
          "velocity": 0.6456692913385826,
          "duration": 0.12195124999999862
        },
        {
          "name": "C3",
          "midi": 48,
          "time": 31.219519999999896,
          "velocity": 0.6456692913385826,
          "duration": 0.12195124999999862
        },
        {
          "name": "D3",
          "midi": 50,
          "time": 31.341471249999895,
          "velocity": 0.6456692913385826,
          "duration": 0.12195124999999862
        },
        {
          "name": "E3",
          "midi": 52,
          "time": 31.585373749999892,
          "velocity": 0.6456692913385826,
          "duration": 0.12195124999999862
        },
        {
          "name": "D3",
          "midi": 50,
          "time": 31.82927624999989,
          "velocity": 0.6456692913385826,
          "duration": 0.12195124999999862
        },
        {
          "name": "C3",
          "midi": 48,
          "time": 32.07317874999989,
          "velocity": 0.6456692913385826,
          "duration": 0.12195125000000218
        },
        {
          "name": "D3",
          "midi": 50,
          "time": 32.317081249999895,
          "velocity": 0.6456692913385826,
          "duration": 0.12195125000000218
        },
        {
          "name": "D3",
          "midi": 50,
          "time": 32.4390324999999,
          "velocity": 0.6456692913385826,
          "duration": 0.12195125000000218
        },
        {
          "name": "A2",
          "midi": 45,
          "time": 32.6829349999999,
          "velocity": 0.6456692913385826,
          "duration": 0.12195125000000218
        },
        {
          "name": "G#2",
          "midi": 44,
          "time": 32.926837499999905,
          "velocity": 0.6456692913385826,
          "duration": 0.12195125000000218
        },
        {
          "name": "G2",
          "midi": 43,
          "time": 33.04878874999991,
          "velocity": 0.6456692913385826,
          "duration": 0.12195125000000218
        },
        {
          "name": "G2",
          "midi": 43,
          "time": 33.29269124999991,
          "velocity": 0.6456692913385826,
          "duration": 0.24390249999999725
        },
        {
          "name": "F2",
          "midi": 41,
          "time": 33.65854499999991,
          "velocity": 0.6456692913385826,
          "duration": 0.12195125000000218
        },
        {
          "name": "G2",
          "midi": 43,
          "time": 33.902447499999916,
          "velocity": 0.6456692913385826,
          "duration": 0.12195125000000218
        },
        {
          "name": "A2",
          "midi": 45,
          "time": 34.14634999999992,
          "velocity": 0.6456692913385826,
          "duration": 0.12195125000000218
        },
        {
          "name": "F2",
          "midi": 41,
          "time": 34.26830124999992,
          "velocity": 0.6456692913385826,
          "duration": 0.24390249999999725
        },
        {
          "name": "F2",
          "midi": 41,
          "time": 34.51220374999992,
          "velocity": 0.6456692913385826,
          "duration": 0.24390249999999725
        },
        {
          "name": "C3",
          "midi": 48,
          "time": 34.75610624999992,
          "velocity": 0.6456692913385826,
          "duration": 0.24390249999999725
        },
        {
          "name": "C3",
          "midi": 48,
          "time": 35.000008749999914,
          "velocity": 0.6456692913385826,
          "duration": 0.12195125000000218
        },
        {
          "name": "C3",
          "midi": 48,
          "time": 35.121959999999916,
          "velocity": 0.6456692913385826,
          "duration": 0.12195125000000218
        },
        {
          "name": "D3",
          "midi": 50,
          "time": 35.24391124999992,
          "velocity": 0.6456692913385826,
          "duration": 0.12195125000000218
        },
        {
          "name": "E3",
          "midi": 52,
          "time": 35.48781374999992,
          "velocity": 0.6456692913385826,
          "duration": 0.12195125000000218
        },
        {
          "name": "D3",
          "midi": 50,
          "time": 35.73171624999993,
          "velocity": 0.6456692913385826,
          "duration": 0.12195125000000218
        },
        {
          "name": "C3",
          "midi": 48,
          "time": 35.97561874999993,
          "velocity": 0.6456692913385826,
          "duration": 0.12195125000000218
        },
        {
          "name": "D3",
          "midi": 50,
          "time": 36.219521249999936,
          "velocity": 0.6456692913385826,
          "duration": 0.12195125000000218
        },
        {
          "name": "D3",
          "midi": 50,
          "time": 36.34147249999994,
          "velocity": 0.6456692913385826,
          "duration": 0.12195125000000218
        },
        {
          "name": "A2",
          "midi": 45,
          "time": 36.58537499999994,
          "velocity": 0.6456692913385826,
          "duration": 0.12195125000000218
        },
        {
          "name": "G#2",
          "midi": 44,
          "time": 36.82927749999995,
          "velocity": 0.6456692913385826,
          "duration": 0.12195125000000218
        },
        {
          "name": "G2",
          "midi": 43,
          "time": 36.95122874999995,
          "velocity": 0.6456692913385826,
          "duration": 0.42682937499999696
        },
        {
          "name": "G2",
          "midi": 43,
          "time": 37.43903374999994,
          "velocity": 0.6692913385826772,
          "duration": 0.12195125000000218
        },
        {
          "name": "F2",
          "midi": 41,
          "time": 37.80488749999994,
          "velocity": 0.6456692913385826,
          "duration": 0.12195125000000218
        },
        {
          "name": "G2",
          "midi": 43,
          "time": 37.926838749999945,
          "velocity": 0.6456692913385826,
          "duration": 0.12195125000000218
        },
        {
          "name": "A2",
          "midi": 45,
          "time": 38.04878999999995,
          "velocity": 0.6456692913385826,
          "duration": 0.12195125000000218
        },
        {
          "name": "C3",
          "midi": 48,
          "time": 38.17074124999995,
          "velocity": 0.6456692913385826,
          "duration": 0.12195125000000218
        },
        {
          "name": "C3",
          "midi": 48,
          "time": 38.414643749999954,
          "velocity": 0.6456692913385826,
          "duration": 0.12195125000000218
        },
        {
          "name": "C3",
          "midi": 48,
          "time": 38.65854624999996,
          "velocity": 0.6456692913385826,
          "duration": 0.24390249999999725
        },
        {
          "name": "C3",
          "midi": 48,
          "time": 38.902448749999955,
          "velocity": 0.6456692913385826,
          "duration": 0.12195125000000218
        },
        {
          "name": "C3",
          "midi": 48,
          "time": 39.02439999999996,
          "velocity": 0.6456692913385826,
          "duration": 0.12195125000000218
        },
        {
          "name": "D3",
          "midi": 50,
          "time": 39.14635124999996,
          "velocity": 0.6456692913385826,
          "duration": 0.12195125000000218
        },
        {
          "name": "E3",
          "midi": 52,
          "time": 39.390253749999964,
          "velocity": 0.6456692913385826,
          "duration": 0.12195125000000218
        },
        {
          "name": "D3",
          "midi": 50,
          "time": 39.63415624999997,
          "velocity": 0.6456692913385826,
          "duration": 0.12195125000000218
        },
        {
          "name": "C3",
          "midi": 48,
          "time": 39.87805874999997,
          "velocity": 0.6456692913385826,
          "duration": 0.12195125000000218
        },
        {
          "name": "D3",
          "midi": 50,
          "time": 40.12196124999998,
          "velocity": 0.6456692913385826,
          "duration": 0.12195125000000218
        },
        {
          "name": "D3",
          "midi": 50,
          "time": 40.24391249999998,
          "velocity": 0.6456692913385826,
          "duration": 0.12195125000000218
        },
        {
          "name": "A2",
          "midi": 45,
          "time": 40.48781499999998,
          "velocity": 0.6456692913385826,
          "duration": 0.12195125000000218
        },
        {
          "name": "G#2",
          "midi": 44,
          "time": 40.73171749999999,
          "velocity": 0.6456692913385826,
          "duration": 0.12195125000000218
        },
        {
          "name": "G2",
          "midi": 43,
          "time": 40.85366874999999,
          "velocity": 0.6456692913385826,
          "duration": 0.12195125000000218
        },
        {
          "name": "G2",
          "midi": 43,
          "time": 41.097571249999994,
          "velocity": 0.6456692913385826,
          "duration": 0.24390249999999725
        },
        {
          "name": "F2",
          "midi": 41,
          "time": 41.463424999999994,
          "velocity": 0.6456692913385826,
          "duration": 0.12195125000000218
        },
        {
          "name": "G2",
          "midi": 43,
          "time": 41.7073275,
          "velocity": 0.6456692913385826,
          "duration": 0.12195125000000218
        },
        {
          "name": "A2",
          "midi": 45,
          "time": 41.95123,
          "velocity": 0.6456692913385826,
          "duration": 0.12195125000000218
        },
        {
          "name": "F2",
          "midi": 41,
          "time": 42.073181250000005,
          "velocity": 0.6456692913385826,
          "duration": 0.24390249999999725
        },
        {
          "name": "F2",
          "midi": 41,
          "time": 42.31708375,
          "velocity": 0.6456692913385826,
          "duration": 0.24390249999999725
        },
        {
          "name": "C3",
          "midi": 48,
          "time": 42.56098625,
          "velocity": 0.6456692913385826,
          "duration": 0.24390249999999725
        },
        {
          "name": "C3",
          "midi": 48,
          "time": 42.804888749999996,
          "velocity": 0.6456692913385826,
          "duration": 0.12195125000000218
        },
        {
          "name": "C3",
          "midi": 48,
          "time": 42.92684,
          "velocity": 0.6456692913385826,
          "duration": 0.12195125000000218
        },
        {
          "name": "D3",
          "midi": 50,
          "time": 43.04879125,
          "velocity": 0.6456692913385826,
          "duration": 0.12195125000000218
        },
        {
          "name": "E3",
          "midi": 52,
          "time": 43.292693750000005,
          "velocity": 0.6456692913385826,
          "duration": 0.12195125000000218
        },
        {
          "name": "D3",
          "midi": 50,
          "time": 43.53659625000001,
          "velocity": 0.6456692913385826,
          "duration": 0.12195125000000218
        },
        {
          "name": "C3",
          "midi": 48,
          "time": 43.780498750000014,
          "velocity": 0.6456692913385826,
          "duration": 0.12195125000000218
        },
        {
          "name": "D3",
          "midi": 50,
          "time": 44.02440125000002,
          "velocity": 0.6456692913385826,
          "duration": 0.12195125000000218
        },
        {
          "name": "D3",
          "midi": 50,
          "time": 44.14635250000002,
          "velocity": 0.6456692913385826,
          "duration": 0.12195125000000218
        },
        {
          "name": "A2",
          "midi": 45,
          "time": 44.390255000000025,
          "velocity": 0.6456692913385826,
          "duration": 0.12195125000000218
        },
        {
          "name": "G#2",
          "midi": 44,
          "time": 44.63415750000003,
          "velocity": 0.6456692913385826,
          "duration": 0.12195125000000218
        },
        {
          "name": "G2",
          "midi": 43,
          "time": 44.75610875000003,
          "velocity": 0.6456692913385826,
          "duration": 0.12195125000000218
        },
        {
          "name": "E2",
          "midi": 40,
          "time": 44.87806000000003,
          "velocity": 0.6456692913385826,
          "duration": 0.12195125000000218
        },
        {
          "name": "F2",
          "midi": 41,
          "time": 45.000011250000036,
          "velocity": 0.6456692913385826,
          "duration": 0.12195125000000218
        },
        {
          "name": "E2",
          "midi": 40,
          "time": 45.12196250000004,
          "velocity": 0.6456692913385826,
          "duration": 0.12195125000000218
        },
        {
          "name": "D2",
          "midi": 38,
          "time": 45.24391375000004,
          "velocity": 0.6456692913385826,
          "duration": 0.12195125000000218
        },
        {
          "name": "A3",
          "midi": 57,
          "time": 46.82928000000004,
          "velocity": 0.6456692913385826,
          "duration": 0.24390249999999725
        },
        {
          "name": "A#2",
          "midi": 46,
          "time": 46.82928000000004,
          "velocity": 0.6456692913385826,
          "duration": 0.24390249999999725
        },
        {
          "name": "A#2",
          "midi": 46,
          "time": 47.07318250000004,
          "velocity": 0.6456692913385826,
          "duration": 0.3658537499999994
        },
        {
          "name": "A3",
          "midi": 57,
          "time": 47.19513375000004,
          "velocity": 0.6456692913385826,
          "duration": 0.24390249999999725
        },
        {
          "name": "A2",
          "midi": 45,
          "time": 47.439036250000036,
          "velocity": 0.6456692913385826,
          "duration": 0.24390250000000435
        },
        {
          "name": "G3",
          "midi": 55,
          "time": 47.56098750000004,
          "velocity": 0.6456692913385826,
          "duration": 0.24390250000000435
        },
        {
          "name": "A2",
          "midi": 45,
          "time": 47.68293875000004,
          "velocity": 0.6456692913385826,
          "duration": 0.24390250000000435
        },
        {
          "name": "G3",
          "midi": 55,
          "time": 47.80489000000004,
          "velocity": 0.6456692913385826,
          "duration": 0.24390250000000435
        },
        {
          "name": "A2",
          "midi": 45,
          "time": 47.926841250000045,
          "velocity": 0.7637795275590551,
          "duration": 0.3658537499999994
        },
        {
          "name": "G3",
          "midi": 55,
          "time": 48.04879250000005,
          "velocity": 0.6456692913385826,
          "duration": 0.24390249999999725
        },
        {
          "name": "G3",
          "midi": 55,
          "time": 48.292695000000045,
          "velocity": 0.6456692913385826,
          "duration": 0.4878050000000016
        },
        {
          "name": "A2",
          "midi": 45,
          "time": 48.292695000000045,
          "velocity": 0.6456692913385826,
          "duration": 0.4878050000000016
        },
        {
          "name": "G#2",
          "midi": 44,
          "time": 48.780500000000046,
          "velocity": 0.6456692913385826,
          "duration": 0.24390249999999725
        },
        {
          "name": "G3",
          "midi": 55,
          "time": 48.780500000000046,
          "velocity": 0.6456692913385826,
          "duration": 0.24390249999999725
        },
        {
          "name": "G#2",
          "midi": 44,
          "time": 49.02440250000004,
          "velocity": 0.6456692913385826,
          "duration": 0.3658537499999994
        },
        {
          "name": "G3",
          "midi": 55,
          "time": 49.146353750000046,
          "velocity": 0.6456692913385826,
          "duration": 0.24390249999999725
        },
        {
          "name": "G2",
          "midi": 43,
          "time": 49.39025625000004,
          "velocity": 0.6456692913385826,
          "duration": 0.24390250000000435
        },
        {
          "name": "F3",
          "midi": 53,
          "time": 49.512207500000045,
          "velocity": 0.6456692913385826,
          "duration": 0.24390250000000435
        },
        {
          "name": "G2",
          "midi": 43,
          "time": 49.63415875000005,
          "velocity": 0.6456692913385826,
          "duration": 0.24390250000000435
        },
        {
          "name": "F3",
          "midi": 53,
          "time": 49.75611000000005,
          "velocity": 0.6456692913385826,
          "duration": 0.24390250000000435
        },
        {
          "name": "G2",
          "midi": 43,
          "time": 49.87806125000005,
          "velocity": 0.7637795275590551,
          "duration": 0.3658537499999994
        },
        {
          "name": "F3",
          "midi": 53,
          "time": 50.000012500000054,
          "velocity": 0.6456692913385826,
          "duration": 0.24390249999999725
        },
        {
          "name": "F3",
          "midi": 53,
          "time": 50.24391500000005,
          "velocity": 0.6456692913385826,
          "duration": 0.4878050000000016
        },
        {
          "name": "G2",
          "midi": 43,
          "time": 50.24391500000005,
          "velocity": 0.6456692913385826,
          "duration": 0.4878050000000016
        },
        {
          "name": "A3",
          "midi": 57,
          "time": 50.73172000000005,
          "velocity": 0.6456692913385826,
          "duration": 0.24390249999999725
        },
        {
          "name": "A#2",
          "midi": 46,
          "time": 50.73172000000005,
          "velocity": 0.6456692913385826,
          "duration": 0.24390249999999725
        },
        {
          "name": "A#2",
          "midi": 46,
          "time": 50.97562250000005,
          "velocity": 0.6456692913385826,
          "duration": 0.3658537499999994
        },
        {
          "name": "A3",
          "midi": 57,
          "time": 51.09757375000005,
          "velocity": 0.6456692913385826,
          "duration": 0.24390249999999725
        },
        {
          "name": "A2",
          "midi": 45,
          "time": 51.34147625000005,
          "velocity": 0.6456692913385826,
          "duration": 0.24390250000000435
        },
        {
          "name": "G3",
          "midi": 55,
          "time": 51.46342750000005,
          "velocity": 0.6456692913385826,
          "duration": 0.24390250000000435
        },
        {
          "name": "A2",
          "midi": 45,
          "time": 51.585378750000054,
          "velocity": 0.6456692913385826,
          "duration": 0.24390250000000435
        },
        {
          "name": "G3",
          "midi": 55,
          "time": 51.707330000000056,
          "velocity": 0.6456692913385826,
          "duration": 0.24390250000000435
        },
        {
          "name": "A2",
          "midi": 45,
          "time": 51.82928125000006,
          "velocity": 0.7637795275590551,
          "duration": 0.3658537499999994
        },
        {
          "name": "G3",
          "midi": 55,
          "time": 51.95123250000006,
          "velocity": 0.6456692913385826,
          "duration": 0.24390249999999725
        },
        {
          "name": "G3",
          "midi": 55,
          "time": 52.19513500000006,
          "velocity": 0.6456692913385826,
          "duration": 0.4878050000000016
        },
        {
          "name": "A2",
          "midi": 45,
          "time": 52.19513500000006,
          "velocity": 0.6456692913385826,
          "duration": 0.4878050000000016
        },
        {
          "name": "G#2",
          "midi": 44,
          "time": 52.68294000000006,
          "velocity": 0.6456692913385826,
          "duration": 0.24390249999999725
        },
        {
          "name": "G3",
          "midi": 55,
          "time": 52.68294000000006,
          "velocity": 0.6456692913385826,
          "duration": 0.24390249999999725
        },
        {
          "name": "G#2",
          "midi": 44,
          "time": 52.926842500000056,
          "velocity": 0.6456692913385826,
          "duration": 0.3658537499999994
        },
        {
          "name": "G3",
          "midi": 55,
          "time": 53.04879375000006,
          "velocity": 0.6456692913385826,
          "duration": 0.24390249999999725
        },
        {
          "name": "G2",
          "midi": 43,
          "time": 53.292696250000056,
          "velocity": 0.6456692913385826,
          "duration": 0.24390250000000435
        },
        {
          "name": "F3",
          "midi": 53,
          "time": 53.41464750000006,
          "velocity": 0.6456692913385826,
          "duration": 0.24390250000000435
        },
        {
          "name": "G2",
          "midi": 43,
          "time": 53.53659875000006,
          "velocity": 0.6456692913385826,
          "duration": 0.24390250000000435
        },
        {
          "name": "F3",
          "midi": 53,
          "time": 53.65855000000006,
          "velocity": 0.6456692913385826,
          "duration": 0.24390250000000435
        },
        {
          "name": "G2",
          "midi": 43,
          "time": 53.780501250000064,
          "velocity": 0.7637795275590551,
          "duration": 0.3658537499999994
        },
        {
          "name": "F3",
          "midi": 53,
          "time": 53.90245250000007,
          "velocity": 0.6456692913385826,
          "duration": 0.24390249999999725
        },
        {
          "name": "F3",
          "midi": 53,
          "time": 54.146355000000064,
          "velocity": 0.6456692913385826,
          "duration": 0.4878050000000016
        },
        {
          "name": "G2",
          "midi": 43,
          "time": 54.146355000000064,
          "velocity": 0.6456692913385826,
          "duration": 0.4878050000000016
        },
        {
          "name": "A3",
          "midi": 57,
          "time": 54.634160000000065,
          "velocity": 0.6456692913385826,
          "duration": 0.24390249999999725
        },
        {
          "name": "A#2",
          "midi": 46,
          "time": 54.634160000000065,
          "velocity": 0.6456692913385826,
          "duration": 0.24390249999999725
        },
        {
          "name": "A#2",
          "midi": 46,
          "time": 54.87806250000006,
          "velocity": 0.6456692913385826,
          "duration": 0.3658537499999994
        },
        {
          "name": "A3",
          "midi": 57,
          "time": 55.000013750000065,
          "velocity": 0.6456692913385826,
          "duration": 0.24390249999999725
        },
        {
          "name": "A2",
          "midi": 45,
          "time": 55.24391625000006,
          "velocity": 0.6456692913385826,
          "duration": 0.24390250000000435
        },
        {
          "name": "G3",
          "midi": 55,
          "time": 55.365867500000064,
          "velocity": 0.6456692913385826,
          "duration": 0.24390250000000435
        },
        {
          "name": "A2",
          "midi": 45,
          "time": 55.487818750000066,
          "velocity": 0.6456692913385826,
          "duration": 0.24390250000000435
        },
        {
          "name": "G3",
          "midi": 55,
          "time": 55.60977000000007,
          "velocity": 0.6456692913385826,
          "duration": 0.24390250000000435
        },
        {
          "name": "A2",
          "midi": 45,
          "time": 55.73172125000007,
          "velocity": 0.7637795275590551,
          "duration": 0.3658537499999994
        },
        {
          "name": "G3",
          "midi": 55,
          "time": 55.85367250000007,
          "velocity": 0.6456692913385826,
          "duration": 0.24390249999999725
        },
        {
          "name": "G3",
          "midi": 55,
          "time": 56.09757500000007,
          "velocity": 0.6456692913385826,
          "duration": 0.4878050000000016
        },
        {
          "name": "A2",
          "midi": 45,
          "time": 56.09757500000007,
          "velocity": 0.6456692913385826,
          "duration": 0.4878050000000016
        },
        {
          "name": "G#2",
          "midi": 44,
          "time": 56.58538000000007,
          "velocity": 0.6456692913385826,
          "duration": 0.24390249999999725
        },
        {
          "name": "G3",
          "midi": 55,
          "time": 56.58538000000007,
          "velocity": 0.6456692913385826,
          "duration": 0.24390249999999725
        },
        {
          "name": "G#2",
          "midi": 44,
          "time": 56.82928250000007,
          "velocity": 0.6456692913385826,
          "duration": 0.3658537499999994
        },
        {
          "name": "G3",
          "midi": 55,
          "time": 56.95123375000007,
          "velocity": 0.6456692913385826,
          "duration": 0.24390249999999725
        },
        {
          "name": "G2",
          "midi": 43,
          "time": 57.19513625000007,
          "velocity": 0.6456692913385826,
          "duration": 0.24390250000000435
        },
        {
          "name": "F3",
          "midi": 53,
          "time": 57.31708750000007,
          "velocity": 0.6456692913385826,
          "duration": 0.24390250000000435
        },
        {
          "name": "G2",
          "midi": 43,
          "time": 57.43903875000007,
          "velocity": 0.6456692913385826,
          "duration": 0.24390250000000435
        },
        {
          "name": "F3",
          "midi": 53,
          "time": 57.560990000000075,
          "velocity": 0.6456692913385826,
          "duration": 0.24390250000000435
        },
        {
          "name": "G2",
          "midi": 43,
          "time": 57.68294125000008,
          "velocity": 0.7637795275590551,
          "duration": 0.3658537499999994
        },
        {
          "name": "F3",
          "midi": 53,
          "time": 57.80489250000008,
          "velocity": 0.6456692913385826,
          "duration": 0.24390249999999725
        },
        {
          "name": "F3",
          "midi": 53,
          "time": 58.04879500000008,
          "velocity": 0.6456692913385826,
          "duration": 0.4878050000000016
        },
        {
          "name": "G2",
          "midi": 43,
          "time": 58.04879500000008,
          "velocity": 0.6456692913385826,
          "duration": 0.4878050000000016
        },
        {
          "name": "A3",
          "midi": 57,
          "time": 58.53660000000008,
          "velocity": 0.6456692913385826,
          "duration": 0.24390249999999725
        },
        {
          "name": "A#2",
          "midi": 46,
          "time": 58.53660000000008,
          "velocity": 0.6456692913385826,
          "duration": 0.24390249999999725
        },
        {
          "name": "A#2",
          "midi": 46,
          "time": 58.780502500000075,
          "velocity": 0.6456692913385826,
          "duration": 0.3658537499999994
        },
        {
          "name": "A3",
          "midi": 57,
          "time": 58.90245375000008,
          "velocity": 0.6456692913385826,
          "duration": 0.24390249999999725
        },
        {
          "name": "A2",
          "midi": 45,
          "time": 59.146356250000075,
          "velocity": 0.6456692913385826,
          "duration": 0.24390250000000435
        },
        {
          "name": "G3",
          "midi": 55,
          "time": 59.26830750000008,
          "velocity": 0.6456692913385826,
          "duration": 0.24390250000000435
        },
        {
          "name": "A2",
          "midi": 45,
          "time": 59.39025875000008,
          "velocity": 0.6456692913385826,
          "duration": 0.24390250000000435
        },
        {
          "name": "G3",
          "midi": 55,
          "time": 59.51221000000008,
          "velocity": 0.6456692913385826,
          "duration": 0.24390250000000435
        },
        {
          "name": "A2",
          "midi": 45,
          "time": 59.63416125000008,
          "velocity": 0.7637795275590551,
          "duration": 0.3658537499999994
        },
        {
          "name": "G3",
          "midi": 55,
          "time": 59.756112500000086,
          "velocity": 0.6456692913385826,
          "duration": 0.24390249999999725
        },
        {
          "name": "G3",
          "midi": 55,
          "time": 60.00001500000008,
          "velocity": 0.6456692913385826,
          "duration": 0.4878050000000016
        },
        {
          "name": "A2",
          "midi": 45,
          "time": 60.00001500000008,
          "velocity": 0.6456692913385826,
          "duration": 0.4878050000000016
        },
        {
          "name": "G#2",
          "midi": 44,
          "time": 60.487820000000085,
          "velocity": 0.6456692913385826,
          "duration": 0.24390249999999725
        },
        {
          "name": "G3",
          "midi": 55,
          "time": 60.487820000000085,
          "velocity": 0.6456692913385826,
          "duration": 0.24390249999999725
        },
        {
          "name": "G#2",
          "midi": 44,
          "time": 60.73172250000008,
          "velocity": 0.6456692913385826,
          "duration": 0.3658537499999994
        },
        {
          "name": "G3",
          "midi": 55,
          "time": 60.853673750000084,
          "velocity": 0.6456692913385826,
          "duration": 0.24390249999999725
        },
        {
          "name": "G2",
          "midi": 43,
          "time": 61.09757625000008,
          "velocity": 0.6456692913385826,
          "duration": 0.24390250000000435
        },
        {
          "name": "F3",
          "midi": 53,
          "time": 61.21952750000008,
          "velocity": 0.6456692913385826,
          "duration": 0.24390250000000435
        },
        {
          "name": "G2",
          "midi": 43,
          "time": 61.341478750000086,
          "velocity": 0.6456692913385826,
          "duration": 0.24390250000000435
        },
        {
          "name": "F3",
          "midi": 53,
          "time": 61.46343000000009,
          "velocity": 0.6456692913385826,
          "duration": 0.24390250000000435
        },
        {
          "name": "G2",
          "midi": 43,
          "time": 61.58538125000009,
          "velocity": 0.7637795275590551,
          "duration": 0.3658537499999994
        },
        {
          "name": "F3",
          "midi": 53,
          "time": 61.70733250000009,
          "velocity": 0.6456692913385826,
          "duration": 0.24390249999999725
        },
        {
          "name": "F3",
          "midi": 53,
          "time": 61.95123500000009,
          "velocity": 0.6456692913385826,
          "duration": 0.4878050000000016
        },
        {
          "name": "G2",
          "midi": 43,
          "time": 61.95123500000009,
          "velocity": 0.6456692913385826,
          "duration": 0.4878050000000016
        },
        {
          "name": "A3",
          "midi": 57,
          "time": 62.43904000000009,
          "velocity": 0.6456692913385826,
          "duration": 0.24390249999999725
        },
        {
          "name": "A#2",
          "midi": 46,
          "time": 62.43904000000009,
          "velocity": 0.6456692913385826,
          "duration": 0.24390249999999725
        },
        {
          "name": "A#2",
          "midi": 46,
          "time": 62.68294250000009,
          "velocity": 0.6456692913385826,
          "duration": 0.3658537499999994
        },
        {
          "name": "A3",
          "midi": 57,
          "time": 62.80489375000009,
          "velocity": 0.6456692913385826,
          "duration": 0.24390249999999725
        },
        {
          "name": "A2",
          "midi": 45,
          "time": 63.04879625000009,
          "velocity": 0.6456692913385826,
          "duration": 0.24390250000000435
        },
        {
          "name": "G3",
          "midi": 55,
          "time": 63.17074750000009,
          "velocity": 0.6456692913385826,
          "duration": 0.24390250000000435
        },
        {
          "name": "A2",
          "midi": 45,
          "time": 63.29269875000009,
          "velocity": 0.6456692913385826,
          "duration": 0.24390250000000435
        },
        {
          "name": "G3",
          "midi": 55,
          "time": 63.414650000000094,
          "velocity": 0.6456692913385826,
          "duration": 0.24390250000000435
        },
        {
          "name": "A2",
          "midi": 45,
          "time": 63.536601250000096,
          "velocity": 0.7637795275590551,
          "duration": 0.3658537499999994
        },
        {
          "name": "G3",
          "midi": 55,
          "time": 63.6585525000001,
          "velocity": 0.6456692913385826,
          "duration": 0.24390249999999725
        },
        {
          "name": "G3",
          "midi": 55,
          "time": 63.902455000000096,
          "velocity": 0.6456692913385826,
          "duration": 0.4878050000000016
        },
        {
          "name": "A2",
          "midi": 45,
          "time": 63.902455000000096,
          "velocity": 0.6456692913385826,
          "duration": 0.4878050000000016
        },
        {
          "name": "G#2",
          "midi": 44,
          "time": 64.3902600000001,
          "velocity": 0.6456692913385826,
          "duration": 0.24390250000000435
        },
        {
          "name": "G3",
          "midi": 55,
          "time": 64.3902600000001,
          "velocity": 0.6456692913385826,
          "duration": 0.24390250000000435
        },
        {
          "name": "G#2",
          "midi": 44,
          "time": 64.6341625000001,
          "velocity": 0.6456692913385826,
          "duration": 0.3658537499999994
        },
        {
          "name": "G3",
          "midi": 55,
          "time": 64.7561137500001,
          "velocity": 0.6456692913385826,
          "duration": 0.24390250000000435
        },
        {
          "name": "G2",
          "midi": 43,
          "time": 65.0000162500001,
          "velocity": 0.6456692913385826,
          "duration": 0.24390249999999014
        },
        {
          "name": "F3",
          "midi": 53,
          "time": 65.1219675000001,
          "velocity": 0.6456692913385826,
          "duration": 0.24390249999999014
        },
        {
          "name": "G2",
          "midi": 43,
          "time": 65.24391875000009,
          "velocity": 0.6456692913385826,
          "duration": 0.24390249999999014
        },
        {
          "name": "F3",
          "midi": 53,
          "time": 65.36587000000009,
          "velocity": 0.6456692913385826,
          "duration": 0.24390249999999014
        },
        {
          "name": "G2",
          "midi": 43,
          "time": 65.48782125000008,
          "velocity": 0.7637795275590551,
          "duration": 0.3658537499999994
        },
        {
          "name": "F3",
          "midi": 53,
          "time": 65.60977250000008,
          "velocity": 0.6456692913385826,
          "duration": 0.24390250000000435
        },
        {
          "name": "F3",
          "midi": 53,
          "time": 65.85367500000008,
          "velocity": 0.6456692913385826,
          "duration": 0.4878049999999945
        },
        {
          "name": "G2",
          "midi": 43,
          "time": 65.85367500000008,
          "velocity": 0.6456692913385826,
          "duration": 0.4878049999999945
        },
        {
          "name": "A3",
          "midi": 57,
          "time": 66.34148000000008,
          "velocity": 0.6456692913385826,
          "duration": 0.24390250000000435
        },
        {
          "name": "A#2",
          "midi": 46,
          "time": 66.34148000000008,
          "velocity": 0.6456692913385826,
          "duration": 0.24390250000000435
        },
        {
          "name": "A#2",
          "midi": 46,
          "time": 66.58538250000008,
          "velocity": 0.6456692913385826,
          "duration": 0.3658537499999994
        },
        {
          "name": "A3",
          "midi": 57,
          "time": 66.70733375000007,
          "velocity": 0.6456692913385826,
          "duration": 0.24390250000000435
        },
        {
          "name": "A2",
          "midi": 45,
          "time": 66.95123625000008,
          "velocity": 0.6456692913385826,
          "duration": 0.24390249999999014
        },
        {
          "name": "G3",
          "midi": 55,
          "time": 67.07318750000007,
          "velocity": 0.6456692913385826,
          "duration": 0.24390249999999014
        },
        {
          "name": "A2",
          "midi": 45,
          "time": 67.19513875000007,
          "velocity": 0.6456692913385826,
          "duration": 0.24390249999999014
        },
        {
          "name": "G3",
          "midi": 55,
          "time": 67.31709000000006,
          "velocity": 0.6456692913385826,
          "duration": 0.24390249999999014
        },
        {
          "name": "A2",
          "midi": 45,
          "time": 67.43904125000006,
          "velocity": 0.7637795275590551,
          "duration": 0.3658537499999994
        },
        {
          "name": "G3",
          "midi": 55,
          "time": 67.56099250000005,
          "velocity": 0.6456692913385826,
          "duration": 0.24390250000000435
        },
        {
          "name": "G3",
          "midi": 55,
          "time": 67.80489500000006,
          "velocity": 0.6456692913385826,
          "duration": 0.4878049999999945
        },
        {
          "name": "A2",
          "midi": 45,
          "time": 67.80489500000006,
          "velocity": 0.6456692913385826,
          "duration": 0.4878049999999945
        },
        {
          "name": "G#2",
          "midi": 44,
          "time": 68.29270000000005,
          "velocity": 0.6456692913385826,
          "duration": 0.24390250000000435
        },
        {
          "name": "G3",
          "midi": 55,
          "time": 68.29270000000005,
          "velocity": 0.6456692913385826,
          "duration": 0.24390250000000435
        },
        {
          "name": "G#2",
          "midi": 44,
          "time": 68.53660250000006,
          "velocity": 0.6456692913385826,
          "duration": 0.3658537499999994
        },
        {
          "name": "G3",
          "midi": 55,
          "time": 68.65855375000005,
          "velocity": 0.6456692913385826,
          "duration": 0.24390250000000435
        },
        {
          "name": "G2",
          "midi": 43,
          "time": 68.90245625000006,
          "velocity": 0.6456692913385826,
          "duration": 0.24390249999999014
        },
        {
          "name": "F3",
          "midi": 53,
          "time": 69.02440750000005,
          "velocity": 0.6456692913385826,
          "duration": 0.24390249999999014
        },
        {
          "name": "G2",
          "midi": 43,
          "time": 69.14635875000005,
          "velocity": 0.6456692913385826,
          "duration": 0.24390249999999014
        },
        {
          "name": "F3",
          "midi": 53,
          "time": 69.26831000000004,
          "velocity": 0.6456692913385826,
          "duration": 0.24390249999999014
        },
        {
          "name": "G2",
          "midi": 43,
          "time": 69.39026125000004,
          "velocity": 0.7637795275590551,
          "duration": 0.3658537499999994
        },
        {
          "name": "F3",
          "midi": 53,
          "time": 69.51221250000003,
          "velocity": 0.6456692913385826,
          "duration": 0.24390250000000435
        },
        {
          "name": "F3",
          "midi": 53,
          "time": 69.75611500000004,
          "velocity": 0.6456692913385826,
          "duration": 0.4878049999999945
        },
        {
          "name": "G2",
          "midi": 43,
          "time": 69.75611500000004,
          "velocity": 0.6456692913385826,
          "duration": 0.4878049999999945
        },
        {
          "name": "A3",
          "midi": 57,
          "time": 70.24392000000003,
          "velocity": 0.6456692913385826,
          "duration": 0.24390250000000435
        },
        {
          "name": "A#2",
          "midi": 46,
          "time": 70.24392000000003,
          "velocity": 0.6456692913385826,
          "duration": 0.24390250000000435
        },
        {
          "name": "A#2",
          "midi": 46,
          "time": 70.48782250000004,
          "velocity": 0.6456692913385826,
          "duration": 0.3658537499999994
        },
        {
          "name": "A3",
          "midi": 57,
          "time": 70.60977375000003,
          "velocity": 0.6456692913385826,
          "duration": 0.24390250000000435
        },
        {
          "name": "A2",
          "midi": 45,
          "time": 70.85367625000003,
          "velocity": 0.6456692913385826,
          "duration": 0.24390249999999014
        },
        {
          "name": "G3",
          "midi": 55,
          "time": 70.97562750000003,
          "velocity": 0.6456692913385826,
          "duration": 0.24390249999999014
        },
        {
          "name": "A2",
          "midi": 45,
          "time": 71.09757875000003,
          "velocity": 0.6456692913385826,
          "duration": 0.24390249999999014
        },
        {
          "name": "G3",
          "midi": 55,
          "time": 71.21953000000002,
          "velocity": 0.6456692913385826,
          "duration": 0.24390249999999014
        },
        {
          "name": "A2",
          "midi": 45,
          "time": 71.34148125000002,
          "velocity": 0.7637795275590551,
          "duration": 0.3658537499999994
        },
        {
          "name": "G3",
          "midi": 55,
          "time": 71.46343250000001,
          "velocity": 0.6456692913385826,
          "duration": 0.24390250000000435
        },
        {
          "name": "G3",
          "midi": 55,
          "time": 71.70733500000001,
          "velocity": 0.6456692913385826,
          "duration": 0.4878049999999945
        },
        {
          "name": "A2",
          "midi": 45,
          "time": 71.70733500000001,
          "velocity": 0.6456692913385826,
          "duration": 0.4878049999999945
        },
        {
          "name": "G#2",
          "midi": 44,
          "time": 72.19514000000001,
          "velocity": 0.6456692913385826,
          "duration": 0.24390250000000435
        },
        {
          "name": "G3",
          "midi": 55,
          "time": 72.19514000000001,
          "velocity": 0.6456692913385826,
          "duration": 0.24390250000000435
        },
        {
          "name": "G#2",
          "midi": 44,
          "time": 72.43904250000001,
          "velocity": 0.6456692913385826,
          "duration": 0.3658537499999994
        },
        {
          "name": "G3",
          "midi": 55,
          "time": 72.56099375000001,
          "velocity": 0.6456692913385826,
          "duration": 0.24390250000000435
        },
        {
          "name": "G2",
          "midi": 43,
          "time": 72.80489625000001,
          "velocity": 0.6456692913385826,
          "duration": 0.24390249999999014
        },
        {
          "name": "F3",
          "midi": 53,
          "time": 72.92684750000001,
          "velocity": 0.6456692913385826,
          "duration": 0.24390249999999014
        },
        {
          "name": "G2",
          "midi": 43,
          "time": 73.04879875,
          "velocity": 0.6456692913385826,
          "duration": 0.24390249999999014
        },
        {
          "name": "F3",
          "midi": 53,
          "time": 73.17075,
          "velocity": 0.6456692913385826,
          "duration": 0.24390249999999014
        },
        {
          "name": "G2",
          "midi": 43,
          "time": 73.29270125,
          "velocity": 0.7637795275590551,
          "duration": 0.3658537499999994
        },
        {
          "name": "F3",
          "midi": 53,
          "time": 73.41465249999999,
          "velocity": 0.6456692913385826,
          "duration": 0.24390250000000435
        },
        {
          "name": "F3",
          "midi": 53,
          "time": 73.65855499999999,
          "velocity": 0.6456692913385826,
          "duration": 0.4878049999999945
        },
        {
          "name": "G2",
          "midi": 43,
          "time": 73.65855499999999,
          "velocity": 0.6456692913385826,
          "duration": 0.4878049999999945
        },
        {
          "name": "A3",
          "midi": 57,
          "time": 74.14635999999999,
          "velocity": 0.6456692913385826,
          "duration": 0.24390250000000435
        },
        {
          "name": "A#2",
          "midi": 46,
          "time": 74.14635999999999,
          "velocity": 0.6456692913385826,
          "duration": 0.24390250000000435
        },
        {
          "name": "A#2",
          "midi": 46,
          "time": 74.39026249999999,
          "velocity": 0.6456692913385826,
          "duration": 0.3658537499999994
        },
        {
          "name": "A3",
          "midi": 57,
          "time": 74.51221374999999,
          "velocity": 0.6456692913385826,
          "duration": 0.24390250000000435
        },
        {
          "name": "A2",
          "midi": 45,
          "time": 74.75611624999999,
          "velocity": 0.6456692913385826,
          "duration": 0.24390249999999014
        },
        {
          "name": "G3",
          "midi": 55,
          "time": 74.87806749999999,
          "velocity": 0.6456692913385826,
          "duration": 0.24390249999999014
        },
        {
          "name": "A2",
          "midi": 45,
          "time": 75.00001874999998,
          "velocity": 0.6456692913385826,
          "duration": 0.24390249999999014
        },
        {
          "name": "G3",
          "midi": 55,
          "time": 75.12196999999998,
          "velocity": 0.6456692913385826,
          "duration": 0.24390249999999014
        },
        {
          "name": "A2",
          "midi": 45,
          "time": 75.24392124999997,
          "velocity": 0.7637795275590551,
          "duration": 0.3658537499999994
        },
        {
          "name": "G3",
          "midi": 55,
          "time": 75.36587249999997,
          "velocity": 0.6456692913385826,
          "duration": 0.24390250000000435
        },
        {
          "name": "G3",
          "midi": 55,
          "time": 75.60977499999997,
          "velocity": 0.6456692913385826,
          "duration": 0.4878049999999945
        },
        {
          "name": "A2",
          "midi": 45,
          "time": 75.60977499999997,
          "velocity": 0.6456692913385826,
          "duration": 0.4878049999999945
        },
        {
          "name": "G#2",
          "midi": 44,
          "time": 76.09757999999997,
          "velocity": 0.6456692913385826,
          "duration": 0.24390250000000435
        },
        {
          "name": "G3",
          "midi": 55,
          "time": 76.09757999999997,
          "velocity": 0.6456692913385826,
          "duration": 0.24390250000000435
        },
        {
          "name": "G#2",
          "midi": 44,
          "time": 76.34148249999997,
          "velocity": 0.6456692913385826,
          "duration": 0.3658537499999994
        },
        {
          "name": "G3",
          "midi": 55,
          "time": 76.46343374999996,
          "velocity": 0.6456692913385826,
          "duration": 0.24390250000000435
        },
        {
          "name": "G2",
          "midi": 43,
          "time": 76.70733624999997,
          "velocity": 0.6456692913385826,
          "duration": 0.24390249999999014
        },
        {
          "name": "F3",
          "midi": 53,
          "time": 76.82928749999996,
          "velocity": 0.6456692913385826,
          "duration": 0.24390249999999014
        },
        {
          "name": "G2",
          "midi": 43,
          "time": 76.95123874999996,
          "velocity": 0.6456692913385826,
          "duration": 0.24390249999999014
        },
        {
          "name": "F3",
          "midi": 53,
          "time": 77.07318999999995,
          "velocity": 0.6456692913385826,
          "duration": 0.24390249999999014
        },
        {
          "name": "G2",
          "midi": 43,
          "time": 77.19514124999995,
          "velocity": 0.7637795275590551,
          "duration": 0.3658537499999994
        },
        {
          "name": "F3",
          "midi": 53,
          "time": 77.31709249999994,
          "velocity": 0.6456692913385826,
          "duration": 0.24390250000000435
        },
        {
          "name": "F3",
          "midi": 53,
          "time": 77.56099499999995,
          "velocity": 0.6456692913385826,
          "duration": 0.4878049999999945
        },
        {
          "name": "G2",
          "midi": 43,
          "time": 77.56099499999995,
          "velocity": 0.6456692913385826,
          "duration": 0.4878049999999945
        },
        {
          "name": "C3",
          "midi": 48,
          "time": 78.04879999999994,
          "velocity": 0.6456692913385826,
          "duration": 0.12195124999999507
        },
        {
          "name": "D3",
          "midi": 50,
          "time": 78.17075124999994,
          "velocity": 0.6456692913385826,
          "duration": 0.12195124999999507
        },
        {
          "name": "E3",
          "midi": 52,
          "time": 78.41465374999993,
          "velocity": 0.6456692913385826,
          "duration": 0.12195124999999507
        },
        {
          "name": "D3",
          "midi": 50,
          "time": 78.65855624999992,
          "velocity": 0.6456692913385826,
          "duration": 0.12195124999999507
        },
        {
          "name": "C3",
          "midi": 48,
          "time": 78.90245874999991,
          "velocity": 0.6456692913385826,
          "duration": 0.12195124999999507
        },
        {
          "name": "D3",
          "midi": 50,
          "time": 79.1463612499999,
          "velocity": 0.6456692913385826,
          "duration": 0.12195124999999507
        },
        {
          "name": "D3",
          "midi": 50,
          "time": 79.2683124999999,
          "velocity": 0.6456692913385826,
          "duration": 0.12195124999999507
        },
        {
          "name": "A2",
          "midi": 45,
          "time": 79.51221499999988,
          "velocity": 0.6456692913385826,
          "duration": 0.12195124999999507
        },
        {
          "name": "G#2",
          "midi": 44,
          "time": 79.75611749999987,
          "velocity": 0.6456692913385826,
          "duration": 0.12195124999999507
        },
        {
          "name": "G2",
          "midi": 43,
          "time": 79.87806874999987,
          "velocity": 0.6456692913385826,
          "duration": 0.12195124999999507
        },
        {
          "name": "G2",
          "midi": 43,
          "time": 80.12197124999986,
          "velocity": 0.6456692913385826,
          "duration": 0.24390250000000435
        },
        {
          "name": "F2",
          "midi": 41,
          "time": 80.48782499999986,
          "velocity": 0.6456692913385826,
          "duration": 0.12195124999999507
        },
        {
          "name": "G2",
          "midi": 43,
          "time": 80.73172749999985,
          "velocity": 0.6456692913385826,
          "duration": 0.12195124999999507
        },
        {
          "name": "A2",
          "midi": 45,
          "time": 80.97562999999984,
          "velocity": 0.6456692913385826,
          "duration": 0.12195124999999507
        },
        {
          "name": "F2",
          "midi": 41,
          "time": 81.09758124999983,
          "velocity": 0.6456692913385826,
          "duration": 0.24390250000000435
        },
        {
          "name": "F2",
          "midi": 41,
          "time": 81.34148374999984,
          "velocity": 0.6456692913385826,
          "duration": 0.24390250000000435
        },
        {
          "name": "C3",
          "midi": 48,
          "time": 81.58538624999984,
          "velocity": 0.6456692913385826,
          "duration": 0.24390250000000435
        },
        {
          "name": "C3",
          "midi": 48,
          "time": 81.82928874999985,
          "velocity": 0.6456692913385826,
          "duration": 0.12195124999999507
        },
        {
          "name": "C3",
          "midi": 48,
          "time": 81.95123999999984,
          "velocity": 0.6456692913385826,
          "duration": 0.12195124999999507
        },
        {
          "name": "D3",
          "midi": 50,
          "time": 82.07319124999984,
          "velocity": 0.6456692913385826,
          "duration": 0.12195124999999507
        },
        {
          "name": "E3",
          "midi": 52,
          "time": 82.31709374999983,
          "velocity": 0.6456692913385826,
          "duration": 0.12195124999999507
        },
        {
          "name": "D3",
          "midi": 50,
          "time": 82.56099624999982,
          "velocity": 0.6456692913385826,
          "duration": 0.12195124999999507
        },
        {
          "name": "C3",
          "midi": 48,
          "time": 82.80489874999981,
          "velocity": 0.6456692913385826,
          "duration": 0.12195124999999507
        },
        {
          "name": "D3",
          "midi": 50,
          "time": 83.0488012499998,
          "velocity": 0.6456692913385826,
          "duration": 0.12195124999999507
        },
        {
          "name": "D3",
          "midi": 50,
          "time": 83.1707524999998,
          "velocity": 0.6456692913385826,
          "duration": 0.12195124999999507
        },
        {
          "name": "A2",
          "midi": 45,
          "time": 83.41465499999978,
          "velocity": 0.6456692913385826,
          "duration": 0.12195124999999507
        },
        {
          "name": "G#2",
          "midi": 44,
          "time": 83.65855749999977,
          "velocity": 0.6456692913385826,
          "duration": 0.12195124999999507
        },
        {
          "name": "G2",
          "midi": 43,
          "time": 83.78050874999977,
          "velocity": 0.6456692913385826,
          "duration": 0.42682937499999696
        },
        {
          "name": "G2",
          "midi": 43,
          "time": 84.26831374999976,
          "velocity": 0.6692913385826772,
          "duration": 0.12195124999999507
        },
        {
          "name": "F2",
          "midi": 41,
          "time": 84.63416749999976,
          "velocity": 0.6456692913385826,
          "duration": 0.12195124999999507
        },
        {
          "name": "G2",
          "midi": 43,
          "time": 84.75611874999976,
          "velocity": 0.6456692913385826,
          "duration": 0.12195124999999507
        },
        {
          "name": "A2",
          "midi": 45,
          "time": 84.87806999999975,
          "velocity": 0.6456692913385826,
          "duration": 0.12195124999999507
        },
        {
          "name": "C3",
          "midi": 48,
          "time": 85.00002124999975,
          "velocity": 0.6456692913385826,
          "duration": 0.12195124999999507
        },
        {
          "name": "C3",
          "midi": 48,
          "time": 85.24392374999974,
          "velocity": 0.6456692913385826,
          "duration": 0.12195124999999507
        },
        {
          "name": "C3",
          "midi": 48,
          "time": 85.48782624999973,
          "velocity": 0.6456692913385826,
          "duration": 0.24390250000000435
        },
        {
          "name": "C3",
          "midi": 48,
          "time": 85.73172874999973,
          "velocity": 0.6456692913385826,
          "duration": 0.12195124999999507
        },
        {
          "name": "C3",
          "midi": 48,
          "time": 85.85367999999973,
          "velocity": 0.6456692913385826,
          "duration": 0.12195124999999507
        },
        {
          "name": "D3",
          "midi": 50,
          "time": 85.97563124999972,
          "velocity": 0.6456692913385826,
          "duration": 0.12195124999999507
        },
        {
          "name": "E3",
          "midi": 52,
          "time": 86.21953374999971,
          "velocity": 0.6456692913385826,
          "duration": 0.12195124999999507
        },
        {
          "name": "D3",
          "midi": 50,
          "time": 86.4634362499997,
          "velocity": 0.6456692913385826,
          "duration": 0.12195124999999507
        },
        {
          "name": "C3",
          "midi": 48,
          "time": 86.70733874999969,
          "velocity": 0.6456692913385826,
          "duration": 0.12195124999999507
        },
        {
          "name": "D3",
          "midi": 50,
          "time": 86.95124124999968,
          "velocity": 0.6456692913385826,
          "duration": 0.12195124999999507
        },
        {
          "name": "D3",
          "midi": 50,
          "time": 87.07319249999968,
          "velocity": 0.6456692913385826,
          "duration": 0.12195124999999507
        },
        {
          "name": "A2",
          "midi": 45,
          "time": 87.31709499999967,
          "velocity": 0.6456692913385826,
          "duration": 0.12195124999999507
        },
        {
          "name": "G#2",
          "midi": 44,
          "time": 87.56099749999966,
          "velocity": 0.6456692913385826,
          "duration": 0.12195124999999507
        },
        {
          "name": "G2",
          "midi": 43,
          "time": 87.68294874999965,
          "velocity": 0.6456692913385826,
          "duration": 0.12195124999999507
        },
        {
          "name": "G2",
          "midi": 43,
          "time": 87.92685124999964,
          "velocity": 0.6456692913385826,
          "duration": 0.24390250000000435
        },
        {
          "name": "F2",
          "midi": 41,
          "time": 88.29270499999964,
          "velocity": 0.6456692913385826,
          "duration": 0.12195124999999507
        },
        {
          "name": "G2",
          "midi": 43,
          "time": 88.53660749999963,
          "velocity": 0.6456692913385826,
          "duration": 0.12195124999999507
        },
        {
          "name": "A2",
          "midi": 45,
          "time": 88.78050999999962,
          "velocity": 0.6456692913385826,
          "duration": 0.12195124999999507
        },
        {
          "name": "F2",
          "midi": 41,
          "time": 88.90246124999962,
          "velocity": 0.6456692913385826,
          "duration": 0.24390250000000435
        },
        {
          "name": "F2",
          "midi": 41,
          "time": 89.14636374999962,
          "velocity": 0.6456692913385826,
          "duration": 0.24390250000000435
        },
        {
          "name": "C3",
          "midi": 48,
          "time": 89.39026624999963,
          "velocity": 0.6456692913385826,
          "duration": 0.24390250000000435
        },
        {
          "name": "C3",
          "midi": 48,
          "time": 89.63416874999963,
          "velocity": 0.6456692913385826,
          "duration": 0.12195124999999507
        },
        {
          "name": "C3",
          "midi": 48,
          "time": 89.75611999999963,
          "velocity": 0.6456692913385826,
          "duration": 0.12195124999999507
        },
        {
          "name": "D3",
          "midi": 50,
          "time": 89.87807124999962,
          "velocity": 0.6456692913385826,
          "duration": 0.12195124999999507
        },
        {
          "name": "E3",
          "midi": 52,
          "time": 90.12197374999961,
          "velocity": 0.6456692913385826,
          "duration": 0.12195124999999507
        },
        {
          "name": "D3",
          "midi": 50,
          "time": 90.3658762499996,
          "velocity": 0.6456692913385826,
          "duration": 0.12195124999999507
        },
        {
          "name": "C3",
          "midi": 48,
          "time": 90.60977874999959,
          "velocity": 0.6456692913385826,
          "duration": 0.12195124999999507
        },
        {
          "name": "D3",
          "midi": 50,
          "time": 90.85368124999958,
          "velocity": 0.6456692913385826,
          "duration": 0.12195124999999507
        },
        {
          "name": "D3",
          "midi": 50,
          "time": 90.97563249999958,
          "velocity": 0.6456692913385826,
          "duration": 0.12195124999999507
        },
        {
          "name": "A2",
          "midi": 45,
          "time": 91.21953499999957,
          "velocity": 0.6456692913385826,
          "duration": 0.12195124999999507
        },
        {
          "name": "G#2",
          "midi": 44,
          "time": 91.46343749999956,
          "velocity": 0.6456692913385826,
          "duration": 0.12195124999999507
        },
        {
          "name": "G2",
          "midi": 43,
          "time": 91.58538874999955,
          "velocity": 0.6456692913385826,
          "duration": 0.42682937499999696
        },
        {
          "name": "G2",
          "midi": 43,
          "time": 92.07319374999955,
          "velocity": 0.6692913385826772,
          "duration": 0.12195124999999507
        },
        {
          "name": "F2",
          "midi": 41,
          "time": 92.43904749999955,
          "velocity": 0.6456692913385826,
          "duration": 0.12195124999999507
        },
        {
          "name": "G2",
          "midi": 43,
          "time": 92.56099874999954,
          "velocity": 0.6456692913385826,
          "duration": 0.12195124999999507
        },
        {
          "name": "A2",
          "midi": 45,
          "time": 92.68294999999954,
          "velocity": 0.6456692913385826,
          "duration": 0.12195124999999507
        },
        {
          "name": "C3",
          "midi": 48,
          "time": 92.80490124999953,
          "velocity": 0.6456692913385826,
          "duration": 0.12195124999999507
        },
        {
          "name": "C3",
          "midi": 48,
          "time": 93.04880374999952,
          "velocity": 0.6456692913385826,
          "duration": 0.12195124999999507
        },
        {
          "name": "C3",
          "midi": 48,
          "time": 93.29270624999951,
          "velocity": 0.6456692913385826,
          "duration": 0.24390250000000435
        },
        {
          "name": "C3",
          "midi": 48,
          "time": 93.53660874999952,
          "velocity": 0.6456692913385826,
          "duration": 0.12195124999999507
        },
        {
          "name": "C3",
          "midi": 48,
          "time": 93.65855999999951,
          "velocity": 0.6456692913385826,
          "duration": 0.12195124999999507
        },
        {
          "name": "D3",
          "midi": 50,
          "time": 93.7805112499995,
          "velocity": 0.6456692913385826,
          "duration": 0.12195124999999507
        },
        {
          "name": "E3",
          "midi": 52,
          "time": 94.0244137499995,
          "velocity": 0.6456692913385826,
          "duration": 0.12195124999999507
        },
        {
          "name": "D3",
          "midi": 50,
          "time": 94.26831624999949,
          "velocity": 0.6456692913385826,
          "duration": 0.12195124999999507
        },
        {
          "name": "C3",
          "midi": 48,
          "time": 94.51221874999948,
          "velocity": 0.6456692913385826,
          "duration": 0.12195124999999507
        },
        {
          "name": "D3",
          "midi": 50,
          "time": 94.75612124999947,
          "velocity": 0.6456692913385826,
          "duration": 0.12195124999999507
        },
        {
          "name": "D3",
          "midi": 50,
          "time": 94.87807249999946,
          "velocity": 0.6456692913385826,
          "duration": 0.12195124999999507
        },
        {
          "name": "A2",
          "midi": 45,
          "time": 95.12197499999945,
          "velocity": 0.6456692913385826,
          "duration": 0.12195124999999507
        },
        {
          "name": "G#2",
          "midi": 44,
          "time": 95.36587749999944,
          "velocity": 0.6456692913385826,
          "duration": 0.12195124999999507
        },
        {
          "name": "G2",
          "midi": 43,
          "time": 95.48782874999944,
          "velocity": 0.6456692913385826,
          "duration": 0.12195124999999507
        },
        {
          "name": "G2",
          "midi": 43,
          "time": 95.73173124999943,
          "velocity": 0.6456692913385826,
          "duration": 0.24390250000000435
        },
        {
          "name": "F2",
          "midi": 41,
          "time": 96.09758499999943,
          "velocity": 0.6456692913385826,
          "duration": 0.12195124999999507
        },
        {
          "name": "G2",
          "midi": 43,
          "time": 96.34148749999942,
          "velocity": 0.6456692913385826,
          "duration": 0.12195124999999507
        },
        {
          "name": "A2",
          "midi": 45,
          "time": 96.5853899999994,
          "velocity": 0.6456692913385826,
          "duration": 0.12195124999999507
        },
        {
          "name": "F2",
          "midi": 41,
          "time": 96.7073412499994,
          "velocity": 0.6456692913385826,
          "duration": 0.24390250000000435
        },
        {
          "name": "F2",
          "midi": 41,
          "time": 96.9512437499994,
          "velocity": 0.6456692913385826,
          "duration": 0.24390250000000435
        },
        {
          "name": "C3",
          "midi": 48,
          "time": 97.19514624999941,
          "velocity": 0.6456692913385826,
          "duration": 0.24390250000000435
        },
        {
          "name": "C3",
          "midi": 48,
          "time": 97.43904874999942,
          "velocity": 0.6456692913385826,
          "duration": 0.12195124999999507
        },
        {
          "name": "C3",
          "midi": 48,
          "time": 97.56099999999941,
          "velocity": 0.6456692913385826,
          "duration": 0.12195124999999507
        },
        {
          "name": "D3",
          "midi": 50,
          "time": 97.6829512499994,
          "velocity": 0.6456692913385826,
          "duration": 0.12195124999999507
        },
        {
          "name": "E3",
          "midi": 52,
          "time": 97.9268537499994,
          "velocity": 0.6456692913385826,
          "duration": 0.12195124999999507
        },
        {
          "name": "D3",
          "midi": 50,
          "time": 98.17075624999939,
          "velocity": 0.6456692913385826,
          "duration": 0.12195124999999507
        },
        {
          "name": "C3",
          "midi": 48,
          "time": 98.41465874999938,
          "velocity": 0.6456692913385826,
          "duration": 0.12195124999999507
        },
        {
          "name": "D3",
          "midi": 50,
          "time": 98.65856124999937,
          "velocity": 0.6456692913385826,
          "duration": 0.12195124999999507
        },
        {
          "name": "D3",
          "midi": 50,
          "time": 98.78051249999936,
          "velocity": 0.6456692913385826,
          "duration": 0.12195124999999507
        },
        {
          "name": "A2",
          "midi": 45,
          "time": 99.02441499999935,
          "velocity": 0.6456692913385826,
          "duration": 0.12195124999999507
        },
        {
          "name": "G#2",
          "midi": 44,
          "time": 99.26831749999934,
          "velocity": 0.6456692913385826,
          "duration": 0.12195124999999507
        },
        {
          "name": "G2",
          "midi": 43,
          "time": 99.39026874999934,
          "velocity": 0.6456692913385826,
          "duration": 0.42682937499999696
        },
        {
          "name": "G2",
          "midi": 43,
          "time": 99.87807374999933,
          "velocity": 0.6692913385826772,
          "duration": 0.12195124999999507
        },
        {
          "name": "F2",
          "midi": 41,
          "time": 100.24392749999933,
          "velocity": 0.6456692913385826,
          "duration": 0.12195124999999507
        },
        {
          "name": "G2",
          "midi": 43,
          "time": 100.36587874999933,
          "velocity": 0.6456692913385826,
          "duration": 0.12195124999999507
        },
        {
          "name": "A2",
          "midi": 45,
          "time": 100.48782999999932,
          "velocity": 0.6456692913385826,
          "duration": 0.12195124999999507
        },
        {
          "name": "C3",
          "midi": 48,
          "time": 100.60978124999932,
          "velocity": 0.6456692913385826,
          "duration": 0.12195124999999507
        },
        {
          "name": "C3",
          "midi": 48,
          "time": 100.8536837499993,
          "velocity": 0.6456692913385826,
          "duration": 0.12195124999999507
        },
        {
          "name": "C3",
          "midi": 48,
          "time": 101.0975862499993,
          "velocity": 0.6456692913385826,
          "duration": 0.24390250000000435
        },
        {
          "name": "C3",
          "midi": 48,
          "time": 101.3414887499993,
          "velocity": 0.6456692913385826,
          "duration": 0.12195124999999507
        },
        {
          "name": "C3",
          "midi": 48,
          "time": 101.4634399999993,
          "velocity": 0.6456692913385826,
          "duration": 0.12195124999999507
        },
        {
          "name": "D3",
          "midi": 50,
          "time": 101.58539124999929,
          "velocity": 0.6456692913385826,
          "duration": 0.12195124999999507
        },
        {
          "name": "E3",
          "midi": 52,
          "time": 101.82929374999928,
          "velocity": 0.6456692913385826,
          "duration": 0.12195124999999507
        },
        {
          "name": "D3",
          "midi": 50,
          "time": 102.07319624999927,
          "velocity": 0.6456692913385826,
          "duration": 0.12195124999999507
        },
        {
          "name": "C3",
          "midi": 48,
          "time": 102.31709874999926,
          "velocity": 0.6456692913385826,
          "duration": 0.12195124999999507
        },
        {
          "name": "D3",
          "midi": 50,
          "time": 102.56100124999925,
          "velocity": 0.6456692913385826,
          "duration": 0.12195124999999507
        },
        {
          "name": "D3",
          "midi": 50,
          "time": 102.68295249999925,
          "velocity": 0.6456692913385826,
          "duration": 0.12195124999999507
        },
        {
          "name": "A2",
          "midi": 45,
          "time": 102.92685499999924,
          "velocity": 0.6456692913385826,
          "duration": 0.12195124999999507
        },
        {
          "name": "G#2",
          "midi": 44,
          "time": 103.17075749999923,
          "velocity": 0.6456692913385826,
          "duration": 0.12195124999999507
        },
        {
          "name": "G2",
          "midi": 43,
          "time": 103.29270874999922,
          "velocity": 0.6456692913385826,
          "duration": 0.12195124999999507
        },
        {
          "name": "G2",
          "midi": 43,
          "time": 103.53661124999921,
          "velocity": 0.6456692913385826,
          "duration": 0.24390250000000435
        },
        {
          "name": "F2",
          "midi": 41,
          "time": 103.90246499999921,
          "velocity": 0.6456692913385826,
          "duration": 0.12195124999999507
        },
        {
          "name": "G2",
          "midi": 43,
          "time": 104.1463674999992,
          "velocity": 0.6456692913385826,
          "duration": 0.12195124999999507
        },
        {
          "name": "A2",
          "midi": 45,
          "time": 104.39026999999919,
          "velocity": 0.6456692913385826,
          "duration": 0.12195124999999507
        },
        {
          "name": "F2",
          "midi": 41,
          "time": 104.51222124999919,
          "velocity": 0.6456692913385826,
          "duration": 0.24390250000000435
        },
        {
          "name": "F2",
          "midi": 41,
          "time": 104.75612374999919,
          "velocity": 0.6456692913385826,
          "duration": 0.24390250000000435
        },
        {
          "name": "C3",
          "midi": 48,
          "time": 105.0000262499992,
          "velocity": 0.6456692913385826,
          "duration": 0.24390250000000435
        },
        {
          "name": "C3",
          "midi": 48,
          "time": 105.2439287499992,
          "velocity": 0.6456692913385826,
          "duration": 0.12195124999999507
        },
        {
          "name": "C3",
          "midi": 48,
          "time": 105.3658799999992,
          "velocity": 0.6456692913385826,
          "duration": 0.12195124999999507
        },
        {
          "name": "D3",
          "midi": 50,
          "time": 105.48783124999919,
          "velocity": 0.6456692913385826,
          "duration": 0.12195124999999507
        },
        {
          "name": "E3",
          "midi": 52,
          "time": 105.73173374999918,
          "velocity": 0.6456692913385826,
          "duration": 0.12195124999999507
        },
        {
          "name": "D3",
          "midi": 50,
          "time": 105.97563624999917,
          "velocity": 0.6456692913385826,
          "duration": 0.12195124999999507
        },
        {
          "name": "C3",
          "midi": 48,
          "time": 106.21953874999916,
          "velocity": 0.6456692913385826,
          "duration": 0.12195124999999507
        },
        {
          "name": "D3",
          "midi": 50,
          "time": 106.46344124999915,
          "velocity": 0.6456692913385826,
          "duration": 0.12195124999999507
        },
        {
          "name": "D3",
          "midi": 50,
          "time": 106.58539249999914,
          "velocity": 0.6456692913385826,
          "duration": 0.12195124999999507
        },
        {
          "name": "A2",
          "midi": 45,
          "time": 106.82929499999914,
          "velocity": 0.6456692913385826,
          "duration": 0.12195124999999507
        },
        {
          "name": "G#2",
          "midi": 44,
          "time": 107.07319749999913,
          "velocity": 0.6456692913385826,
          "duration": 0.12195124999999507
        },
        {
          "name": "G2",
          "midi": 43,
          "time": 107.19514874999912,
          "velocity": 0.6456692913385826,
          "duration": 0.12195124999999507
        },
        {
          "name": "E2",
          "midi": 40,
          "time": 107.31709999999912,
          "velocity": 0.6456692913385826,
          "duration": 0.12195124999999507
        },
        {
          "name": "F2",
          "midi": 41,
          "time": 107.43905124999911,
          "velocity": 0.6456692913385826,
          "duration": 0.12195124999999507
        },
        {
          "name": "E2",
          "midi": 40,
          "time": 107.5610024999991,
          "velocity": 0.6456692913385826,
          "duration": 0.12195124999999507
        },
        {
          "name": "D2",
          "midi": 38,
          "time": 107.6829537499991,
          "velocity": 0.6456692913385826,
          "duration": 0.12195124999999507
        },
        {
          "name": "A3",
          "midi": 57,
          "time": 109.2683199999991,
          "velocity": 0.6456692913385826,
          "duration": 0.24390250000000435
        },
        {
          "name": "A#2",
          "midi": 46,
          "time": 109.2683199999991,
          "velocity": 0.6456692913385826,
          "duration": 0.24390250000000435
        },
        {
          "name": "A#2",
          "midi": 46,
          "time": 109.5122224999991,
          "velocity": 0.6456692913385826,
          "duration": 0.3658537499999994
        },
        {
          "name": "A3",
          "midi": 57,
          "time": 109.63417374999909,
          "velocity": 0.6456692913385826,
          "duration": 0.24390250000000435
        },
        {
          "name": "A2",
          "midi": 45,
          "time": 109.8780762499991,
          "velocity": 0.6456692913385826,
          "duration": 0.24390249999999014
        },
        {
          "name": "G3",
          "midi": 55,
          "time": 110.00002749999909,
          "velocity": 0.6456692913385826,
          "duration": 0.24390249999999014
        },
        {
          "name": "A2",
          "midi": 45,
          "time": 110.12197874999909,
          "velocity": 0.6456692913385826,
          "duration": 0.24390249999999014
        },
        {
          "name": "G3",
          "midi": 55,
          "time": 110.24392999999908,
          "velocity": 0.6456692913385826,
          "duration": 0.24390249999999014
        },
        {
          "name": "A2",
          "midi": 45,
          "time": 110.36588124999908,
          "velocity": 0.7637795275590551,
          "duration": 0.3658537499999994
        },
        {
          "name": "G3",
          "midi": 55,
          "time": 110.48783249999907,
          "velocity": 0.6456692913385826,
          "duration": 0.24390250000000435
        },
        {
          "name": "G3",
          "midi": 55,
          "time": 110.73173499999908,
          "velocity": 0.6456692913385826,
          "duration": 0.4878049999999945
        },
        {
          "name": "A2",
          "midi": 45,
          "time": 110.73173499999908,
          "velocity": 0.6456692913385826,
          "duration": 0.4878049999999945
        },
        {
          "name": "G#2",
          "midi": 44,
          "time": 111.21953999999907,
          "velocity": 0.6456692913385826,
          "duration": 0.24390250000000435
        },
        {
          "name": "G3",
          "midi": 55,
          "time": 111.21953999999907,
          "velocity": 0.6456692913385826,
          "duration": 0.24390250000000435
        },
        {
          "name": "G#2",
          "midi": 44,
          "time": 111.46344249999908,
          "velocity": 0.6456692913385826,
          "duration": 0.3658537499999994
        },
        {
          "name": "G3",
          "midi": 55,
          "time": 111.58539374999907,
          "velocity": 0.6456692913385826,
          "duration": 0.24390250000000435
        },
        {
          "name": "G2",
          "midi": 43,
          "time": 111.82929624999908,
          "velocity": 0.6456692913385826,
          "duration": 0.24390249999999014
        },
        {
          "name": "F3",
          "midi": 53,
          "time": 111.95124749999907,
          "velocity": 0.6456692913385826,
          "duration": 0.24390249999999014
        },
        {
          "name": "G2",
          "midi": 43,
          "time": 112.07319874999907,
          "velocity": 0.6456692913385826,
          "duration": 0.24390249999999014
        },
        {
          "name": "F3",
          "midi": 53,
          "time": 112.19514999999906,
          "velocity": 0.6456692913385826,
          "duration": 0.24390249999999014
        },
        {
          "name": "G2",
          "midi": 43,
          "time": 112.31710124999906,
          "velocity": 0.7637795275590551,
          "duration": 0.3658537499999994
        },
        {
          "name": "F3",
          "midi": 53,
          "time": 112.43905249999905,
          "velocity": 0.6456692913385826,
          "duration": 0.24390250000000435
        },
        {
          "name": "F3",
          "midi": 53,
          "time": 112.68295499999905,
          "velocity": 0.6456692913385826,
          "duration": 0.4878049999999945
        },
        {
          "name": "G2",
          "midi": 43,
          "time": 112.68295499999905,
          "velocity": 0.6456692913385826,
          "duration": 0.4878049999999945
        },
        {
          "name": "A3",
          "midi": 57,
          "time": 113.17075999999905,
          "velocity": 0.6456692913385826,
          "duration": 0.24390250000000435
        },
        {
          "name": "A#2",
          "midi": 46,
          "time": 113.17075999999905,
          "velocity": 0.6456692913385826,
          "duration": 0.24390250000000435
        },
        {
          "name": "A#2",
          "midi": 46,
          "time": 113.41466249999905,
          "velocity": 0.6456692913385826,
          "duration": 0.3658537499999994
        },
        {
          "name": "A3",
          "midi": 57,
          "time": 113.53661374999905,
          "velocity": 0.6456692913385826,
          "duration": 0.24390250000000435
        },
        {
          "name": "A2",
          "midi": 45,
          "time": 113.78051624999905,
          "velocity": 0.6456692913385826,
          "duration": 0.24390249999999014
        },
        {
          "name": "G3",
          "midi": 55,
          "time": 113.90246749999905,
          "velocity": 0.6456692913385826,
          "duration": 0.24390249999999014
        },
        {
          "name": "A2",
          "midi": 45,
          "time": 114.02441874999904,
          "velocity": 0.6456692913385826,
          "duration": 0.24390249999999014
        },
        {
          "name": "G3",
          "midi": 55,
          "time": 114.14636999999904,
          "velocity": 0.6456692913385826,
          "duration": 0.24390249999999014
        },
        {
          "name": "A2",
          "midi": 45,
          "time": 114.26832124999903,
          "velocity": 0.7637795275590551,
          "duration": 0.3658537499999994
        },
        {
          "name": "G3",
          "midi": 55,
          "time": 114.39027249999903,
          "velocity": 0.6456692913385826,
          "duration": 0.24390250000000435
        },
        {
          "name": "G3",
          "midi": 55,
          "time": 114.63417499999903,
          "velocity": 0.6456692913385826,
          "duration": 0.4878049999999945
        },
        {
          "name": "A2",
          "midi": 45,
          "time": 114.63417499999903,
          "velocity": 0.6456692913385826,
          "duration": 0.4878049999999945
        },
        {
          "name": "G#2",
          "midi": 44,
          "time": 115.12197999999903,
          "velocity": 0.6456692913385826,
          "duration": 0.24390250000000435
        },
        {
          "name": "G3",
          "midi": 55,
          "time": 115.12197999999903,
          "velocity": 0.6456692913385826,
          "duration": 0.24390250000000435
        },
        {
          "name": "G#2",
          "midi": 44,
          "time": 115.36588249999903,
          "velocity": 0.6456692913385826,
          "duration": 0.3658537499999994
        },
        {
          "name": "G3",
          "midi": 55,
          "time": 115.48783374999903,
          "velocity": 0.6456692913385826,
          "duration": 0.24390250000000435
        },
        {
          "name": "G2",
          "midi": 43,
          "time": 115.73173624999903,
          "velocity": 0.6456692913385826,
          "duration": 0.24390249999999014
        },
        {
          "name": "F3",
          "midi": 53,
          "time": 115.85368749999903,
          "velocity": 0.6456692913385826,
          "duration": 0.24390249999999014
        },
        {
          "name": "G2",
          "midi": 43,
          "time": 115.97563874999902,
          "velocity": 0.6456692913385826,
          "duration": 0.24390249999999014
        },
        {
          "name": "F3",
          "midi": 53,
          "time": 116.09758999999902,
          "velocity": 0.6456692913385826,
          "duration": 0.24390249999999014
        },
        {
          "name": "G2",
          "midi": 43,
          "time": 116.21954124999901,
          "velocity": 0.7637795275590551,
          "duration": 0.3658537499999994
        },
        {
          "name": "F3",
          "midi": 53,
          "time": 116.341492499999,
          "velocity": 0.6456692913385826,
          "duration": 0.24390250000000435
        },
        {
          "name": "F3",
          "midi": 53,
          "time": 116.58539499999901,
          "velocity": 0.6456692913385826,
          "duration": 0.4878049999999945
        },
        {
          "name": "G2",
          "midi": 43,
          "time": 116.58539499999901,
          "velocity": 0.6456692913385826,
          "duration": 0.4878049999999945
        },
        {
          "name": "A3",
          "midi": 57,
          "time": 117.073199999999,
          "velocity": 0.6456692913385826,
          "duration": 0.24390250000000435
        },
        {
          "name": "A#2",
          "midi": 46,
          "time": 117.073199999999,
          "velocity": 0.6456692913385826,
          "duration": 0.24390250000000435
        },
        {
          "name": "A#2",
          "midi": 46,
          "time": 117.31710249999901,
          "velocity": 0.6456692913385826,
          "duration": 0.3658537499999994
        },
        {
          "name": "A3",
          "midi": 57,
          "time": 117.439053749999,
          "velocity": 0.6456692913385826,
          "duration": 0.24390250000000435
        },
        {
          "name": "A2",
          "midi": 45,
          "time": 117.68295624999901,
          "velocity": 0.6456692913385826,
          "duration": 0.24390249999999014
        },
        {
          "name": "G3",
          "midi": 55,
          "time": 117.804907499999,
          "velocity": 0.6456692913385826,
          "duration": 0.24390249999999014
        },
        {
          "name": "A2",
          "midi": 45,
          "time": 117.926858749999,
          "velocity": 0.6456692913385826,
          "duration": 0.24390249999999014
        },
        {
          "name": "G3",
          "midi": 55,
          "time": 118.048809999999,
          "velocity": 0.6456692913385826,
          "duration": 0.24390249999999014
        },
        {
          "name": "A2",
          "midi": 45,
          "time": 118.17076124999899,
          "velocity": 0.7637795275590551,
          "duration": 0.3658537499999994
        },
        {
          "name": "G3",
          "midi": 55,
          "time": 118.29271249999898,
          "velocity": 0.6456692913385826,
          "duration": 0.24390250000000435
        },
        {
          "name": "G3",
          "midi": 55,
          "time": 118.53661499999899,
          "velocity": 0.6456692913385826,
          "duration": 0.4878049999999945
        },
        {
          "name": "A2",
          "midi": 45,
          "time": 118.53661499999899,
          "velocity": 0.6456692913385826,
          "duration": 0.4878049999999945
        },
        {
          "name": "G#2",
          "midi": 44,
          "time": 119.02441999999898,
          "velocity": 0.6456692913385826,
          "duration": 0.24390250000000435
        },
        {
          "name": "G3",
          "midi": 55,
          "time": 119.02441999999898,
          "velocity": 0.6456692913385826,
          "duration": 0.24390250000000435
        },
        {
          "name": "G#2",
          "midi": 44,
          "time": 119.26832249999899,
          "velocity": 0.6456692913385826,
          "duration": 0.3658537499999994
        },
        {
          "name": "G3",
          "midi": 55,
          "time": 119.39027374999898,
          "velocity": 0.6456692913385826,
          "duration": 0.24390250000000435
        },
        {
          "name": "G2",
          "midi": 43,
          "time": 119.63417624999899,
          "velocity": 0.6456692913385826,
          "duration": 0.24390249999999014
        },
        {
          "name": "F3",
          "midi": 53,
          "time": 119.75612749999898,
          "velocity": 0.6456692913385826,
          "duration": 0.24390249999999014
        },
        {
          "name": "G2",
          "midi": 43,
          "time": 119.87807874999898,
          "velocity": 0.6456692913385826,
          "duration": 0.24390249999999014
        },
        {
          "name": "F3",
          "midi": 53,
          "time": 120.00002999999897,
          "velocity": 0.6456692913385826,
          "duration": 0.24390249999999014
        },
        {
          "name": "G2",
          "midi": 43,
          "time": 120.12198124999897,
          "velocity": 0.7637795275590551,
          "duration": 0.3658537499999994
        },
        {
          "name": "F3",
          "midi": 53,
          "time": 120.24393249999896,
          "velocity": 0.6456692913385826,
          "duration": 0.24390250000000435
        },
        {
          "name": "F3",
          "midi": 53,
          "time": 120.48783499999897,
          "velocity": 0.6456692913385826,
          "duration": 0.4878049999999945
        },
        {
          "name": "G2",
          "midi": 43,
          "time": 120.48783499999897,
          "velocity": 0.6456692913385826,
          "duration": 0.4878049999999945
        },
        {
          "name": "A3",
          "midi": 57,
          "time": 120.97563999999896,
          "velocity": 0.6456692913385826,
          "duration": 0.24390250000000435
        },
        {
          "name": "A#2",
          "midi": 46,
          "time": 120.97563999999896,
          "velocity": 0.6456692913385826,
          "duration": 0.24390250000000435
        },
        {
          "name": "A#2",
          "midi": 46,
          "time": 121.21954249999897,
          "velocity": 0.6456692913385826,
          "duration": 0.3658537499999994
        },
        {
          "name": "A3",
          "midi": 57,
          "time": 121.34149374999896,
          "velocity": 0.6456692913385826,
          "duration": 0.24390250000000435
        },
        {
          "name": "A2",
          "midi": 45,
          "time": 121.58539624999896,
          "velocity": 0.6456692913385826,
          "duration": 0.24390249999999014
        },
        {
          "name": "G3",
          "midi": 55,
          "time": 121.70734749999896,
          "velocity": 0.6456692913385826,
          "duration": 0.24390249999999014
        },
        {
          "name": "A2",
          "midi": 45,
          "time": 121.82929874999896,
          "velocity": 0.6456692913385826,
          "duration": 0.24390249999999014
        },
        {
          "name": "G3",
          "midi": 55,
          "time": 121.95124999999895,
          "velocity": 0.6456692913385826,
          "duration": 0.24390249999999014
        },
        {
          "name": "A2",
          "midi": 45,
          "time": 122.07320124999895,
          "velocity": 0.7637795275590551,
          "duration": 0.3658537499999994
        },
        {
          "name": "G3",
          "midi": 55,
          "time": 122.19515249999894,
          "velocity": 0.6456692913385826,
          "duration": 0.24390250000000435
        },
        {
          "name": "G3",
          "midi": 55,
          "time": 122.43905499999894,
          "velocity": 0.6456692913385826,
          "duration": 0.4878049999999945
        },
        {
          "name": "A2",
          "midi": 45,
          "time": 122.43905499999894,
          "velocity": 0.6456692913385826,
          "duration": 0.4878049999999945
        },
        {
          "name": "G#2",
          "midi": 44,
          "time": 122.92685999999894,
          "velocity": 0.6456692913385826,
          "duration": 0.24390250000000435
        },
        {
          "name": "G3",
          "midi": 55,
          "time": 122.92685999999894,
          "velocity": 0.6456692913385826,
          "duration": 0.24390250000000435
        },
        {
          "name": "G#2",
          "midi": 44,
          "time": 123.17076249999894,
          "velocity": 0.6456692913385826,
          "duration": 0.3658537499999994
        },
        {
          "name": "G3",
          "midi": 55,
          "time": 123.29271374999894,
          "velocity": 0.6456692913385826,
          "duration": 0.24390250000000435
        },
        {
          "name": "G2",
          "midi": 43,
          "time": 123.53661624999894,
          "velocity": 0.6456692913385826,
          "duration": 0.24390249999999014
        },
        {
          "name": "F3",
          "midi": 53,
          "time": 123.65856749999894,
          "velocity": 0.6456692913385826,
          "duration": 0.24390249999999014
        },
        {
          "name": "G2",
          "midi": 43,
          "time": 123.78051874999893,
          "velocity": 0.6456692913385826,
          "duration": 0.24390249999999014
        },
        {
          "name": "F3",
          "midi": 53,
          "time": 123.90246999999893,
          "velocity": 0.6456692913385826,
          "duration": 0.24390249999999014
        },
        {
          "name": "G2",
          "midi": 43,
          "time": 124.02442124999892,
          "velocity": 0.7637795275590551,
          "duration": 0.3658537499999994
        },
        {
          "name": "F3",
          "midi": 53,
          "time": 124.14637249999892,
          "velocity": 0.6456692913385826,
          "duration": 0.24390250000000435
        },
        {
          "name": "F3",
          "midi": 53,
          "time": 124.39027499999892,
          "velocity": 0.6456692913385826,
          "duration": 0.4878049999999945
        },
        {
          "name": "G2",
          "midi": 43,
          "time": 124.39027499999892,
          "velocity": 0.6456692913385826,
          "duration": 0.4878049999999945
        },
        {
          "name": "A3",
          "midi": 57,
          "time": 124.87807999999892,
          "velocity": 0.6456692913385826,
          "duration": 0.24390250000000435
        },
        {
          "name": "A#2",
          "midi": 46,
          "time": 124.87807999999892,
          "velocity": 0.6456692913385826,
          "duration": 0.24390250000000435
        },
        {
          "name": "A#2",
          "midi": 46,
          "time": 125.12198249999892,
          "velocity": 0.6456692913385826,
          "duration": 0.3658537499999994
        },
        {
          "name": "A3",
          "midi": 57,
          "time": 125.24393374999892,
          "velocity": 0.6456692913385826,
          "duration": 0.24390250000000435
        },
        {
          "name": "A2",
          "midi": 45,
          "time": 125.48783624999892,
          "velocity": 0.6456692913385826,
          "duration": 0.24390249999999014
        },
        {
          "name": "G3",
          "midi": 55,
          "time": 125.60978749999892,
          "velocity": 0.6456692913385826,
          "duration": 0.24390249999999014
        },
        {
          "name": "A2",
          "midi": 45,
          "time": 125.73173874999891,
          "velocity": 0.6456692913385826,
          "duration": 0.24390249999999014
        },
        {
          "name": "G3",
          "midi": 55,
          "time": 125.8536899999989,
          "velocity": 0.6456692913385826,
          "duration": 0.24390249999999014
        },
        {
          "name": "A2",
          "midi": 45,
          "time": 125.9756412499989,
          "velocity": 0.7637795275590551,
          "duration": 0.3658537499999994
        },
        {
          "name": "G3",
          "midi": 55,
          "time": 126.0975924999989,
          "velocity": 0.6456692913385826,
          "duration": 0.24390250000000435
        },
        {
          "name": "G3",
          "midi": 55,
          "time": 126.3414949999989,
          "velocity": 0.6456692913385826,
          "duration": 0.4878049999999945
        },
        {
          "name": "A2",
          "midi": 45,
          "time": 126.3414949999989,
          "velocity": 0.6456692913385826,
          "duration": 0.4878049999999945
        },
        {
          "name": "G#2",
          "midi": 44,
          "time": 126.8292999999989,
          "velocity": 0.6456692913385826,
          "duration": 0.24390250000000435
        },
        {
          "name": "G3",
          "midi": 55,
          "time": 126.8292999999989,
          "velocity": 0.6456692913385826,
          "duration": 0.24390250000000435
        },
        {
          "name": "G#2",
          "midi": 44,
          "time": 127.0732024999989,
          "velocity": 0.6456692913385826,
          "duration": 0.3658537499999994
        },
        {
          "name": "G3",
          "midi": 55,
          "time": 127.1951537499989,
          "velocity": 0.6456692913385826,
          "duration": 0.24390250000000435
        },
        {
          "name": "G2",
          "midi": 43,
          "time": 127.4390562499989,
          "velocity": 0.6456692913385826,
          "duration": 0.24390249999999014
        },
        {
          "name": "F3",
          "midi": 53,
          "time": 127.5610074999989,
          "velocity": 0.6456692913385826,
          "duration": 0.24390249999999014
        },
        {
          "name": "G2",
          "midi": 43,
          "time": 127.68295874999889,
          "velocity": 0.6456692913385826,
          "duration": 0.24390249999999014
        },
        {
          "name": "F3",
          "midi": 53,
          "time": 127.80490999999888,
          "velocity": 0.6456692913385826,
          "duration": 0.24390250000000435
        },
        {
          "name": "G2",
          "midi": 43,
          "time": 127.92686124999888,
          "velocity": 0.7637795275590551,
          "duration": 0.3658537499999994
        },
        {
          "name": "F3",
          "midi": 53,
          "time": 128.0488124999989,
          "velocity": 0.6456692913385826,
          "duration": 0.24390249999999014
        },
        {
          "name": "F3",
          "midi": 53,
          "time": 128.29271499999888,
          "velocity": 0.6456692913385826,
          "duration": 0.4878050000000087
        },
        {
          "name": "G2",
          "midi": 43,
          "time": 128.29271499999888,
          "velocity": 0.6456692913385826,
          "duration": 0.4878050000000087
        },
        {
          "name": "A3",
          "midi": 57,
          "time": 128.7805199999989,
          "velocity": 0.6456692913385826,
          "duration": 0.24390249999999014
        },
        {
          "name": "A#2",
          "midi": 46,
          "time": 128.7805199999989,
          "velocity": 0.6456692913385826,
          "duration": 0.24390249999999014
        },
        {
          "name": "A#2",
          "midi": 46,
          "time": 129.02442249999888,
          "velocity": 0.6456692913385826,
          "duration": 0.3658537499999852
        },
        {
          "name": "A3",
          "midi": 57,
          "time": 129.14637374999887,
          "velocity": 0.6456692913385826,
          "duration": 0.24390249999999014
        },
        {
          "name": "A2",
          "midi": 45,
          "time": 129.39027624999886,
          "velocity": 0.6456692913385826,
          "duration": 0.24390249999999014
        },
        {
          "name": "G3",
          "midi": 55,
          "time": 129.51222749999886,
          "velocity": 0.6456692913385826,
          "duration": 0.24390249999999014
        },
        {
          "name": "A2",
          "midi": 45,
          "time": 129.63417874999885,
          "velocity": 0.6456692913385826,
          "duration": 0.24390249999999014
        },
        {
          "name": "G3",
          "midi": 55,
          "time": 129.75612999999885,
          "velocity": 0.6456692913385826,
          "duration": 0.24390249999999014
        },
        {
          "name": "A2",
          "midi": 45,
          "time": 129.87808124999884,
          "velocity": 0.7637795275590551,
          "duration": 0.3658537499999852
        },
        {
          "name": "G3",
          "midi": 55,
          "time": 130.00003249999884,
          "velocity": 0.6456692913385826,
          "duration": 0.24390249999999014
        },
        {
          "name": "G3",
          "midi": 55,
          "time": 130.24393499999883,
          "velocity": 0.6456692913385826,
          "duration": 0.4878050000000087
        },
        {
          "name": "A2",
          "midi": 45,
          "time": 130.24393499999883,
          "velocity": 0.6456692913385826,
          "duration": 0.4878050000000087
        },
        {
          "name": "G#2",
          "midi": 44,
          "time": 130.73173999999884,
          "velocity": 0.6456692913385826,
          "duration": 0.24390249999999014
        },
        {
          "name": "G3",
          "midi": 55,
          "time": 130.73173999999884,
          "velocity": 0.6456692913385826,
          "duration": 0.24390249999999014
        },
        {
          "name": "G#2",
          "midi": 44,
          "time": 130.97564249999883,
          "velocity": 0.6456692913385826,
          "duration": 0.3658537499999852
        },
        {
          "name": "G3",
          "midi": 55,
          "time": 131.09759374999882,
          "velocity": 0.6456692913385826,
          "duration": 0.24390249999999014
        },
        {
          "name": "G2",
          "midi": 43,
          "time": 131.3414962499988,
          "velocity": 0.6456692913385826,
          "duration": 0.24390249999999014
        },
        {
          "name": "F3",
          "midi": 53,
          "time": 131.4634474999988,
          "velocity": 0.6456692913385826,
          "duration": 0.24390249999999014
        },
        {
          "name": "G2",
          "midi": 43,
          "time": 131.5853987499988,
          "velocity": 0.6456692913385826,
          "duration": 0.24390249999999014
        },
        {
          "name": "F3",
          "midi": 53,
          "time": 131.7073499999988,
          "velocity": 0.6456692913385826,
          "duration": 0.24390249999999014
        },
        {
          "name": "G2",
          "midi": 43,
          "time": 131.8293012499988,
          "velocity": 0.7637795275590551,
          "duration": 0.3658537499999852
        },
        {
          "name": "F3",
          "midi": 53,
          "time": 131.9512524999988,
          "velocity": 0.6456692913385826,
          "duration": 0.24390249999999014
        },
        {
          "name": "F3",
          "midi": 53,
          "time": 132.19515499999878,
          "velocity": 0.6456692913385826,
          "duration": 0.4878050000000087
        },
        {
          "name": "G2",
          "midi": 43,
          "time": 132.19515499999878,
          "velocity": 0.6456692913385826,
          "duration": 0.4878050000000087
        },
        {
          "name": "A3",
          "midi": 57,
          "time": 132.6829599999988,
          "velocity": 0.6456692913385826,
          "duration": 0.24390249999999014
        },
        {
          "name": "A#2",
          "midi": 46,
          "time": 132.6829599999988,
          "velocity": 0.6456692913385826,
          "duration": 0.24390249999999014
        },
        {
          "name": "A#2",
          "midi": 46,
          "time": 132.92686249999878,
          "velocity": 0.6456692913385826,
          "duration": 0.3658537499999852
        },
        {
          "name": "A3",
          "midi": 57,
          "time": 133.04881374999877,
          "velocity": 0.6456692913385826,
          "duration": 0.24390249999999014
        },
        {
          "name": "A2",
          "midi": 45,
          "time": 133.29271624999876,
          "velocity": 0.6456692913385826,
          "duration": 0.24390249999999014
        },
        {
          "name": "G3",
          "midi": 55,
          "time": 133.41466749999876,
          "velocity": 0.6456692913385826,
          "duration": 0.24390249999999014
        },
        {
          "name": "A2",
          "midi": 45,
          "time": 133.53661874999875,
          "velocity": 0.6456692913385826,
          "duration": 0.24390249999999014
        },
        {
          "name": "G3",
          "midi": 55,
          "time": 133.65856999999875,
          "velocity": 0.6456692913385826,
          "duration": 0.24390249999999014
        },
        {
          "name": "A2",
          "midi": 45,
          "time": 133.78052124999874,
          "velocity": 0.7637795275590551,
          "duration": 0.3658537499999852
        },
        {
          "name": "G3",
          "midi": 55,
          "time": 133.90247249999874,
          "velocity": 0.6456692913385826,
          "duration": 0.24390249999999014
        },
        {
          "name": "G3",
          "midi": 55,
          "time": 134.14637499999873,
          "velocity": 0.6456692913385826,
          "duration": 0.4878050000000087
        },
        {
          "name": "A2",
          "midi": 45,
          "time": 134.14637499999873,
          "velocity": 0.6456692913385826,
          "duration": 0.4878050000000087
        },
        {
          "name": "G#2",
          "midi": 44,
          "time": 134.63417999999874,
          "velocity": 0.6456692913385826,
          "duration": 0.24390249999999014
        },
        {
          "name": "G3",
          "midi": 55,
          "time": 134.63417999999874,
          "velocity": 0.6456692913385826,
          "duration": 0.24390249999999014
        },
        {
          "name": "G#2",
          "midi": 44,
          "time": 134.87808249999873,
          "velocity": 0.6456692913385826,
          "duration": 0.3658537499999852
        },
        {
          "name": "G3",
          "midi": 55,
          "time": 135.00003374999872,
          "velocity": 0.6456692913385826,
          "duration": 0.24390249999999014
        },
        {
          "name": "G2",
          "midi": 43,
          "time": 135.2439362499987,
          "velocity": 0.6456692913385826,
          "duration": 0.24390249999999014
        },
        {
          "name": "F3",
          "midi": 53,
          "time": 135.3658874999987,
          "velocity": 0.6456692913385826,
          "duration": 0.24390249999999014
        },
        {
          "name": "G2",
          "midi": 43,
          "time": 135.4878387499987,
          "velocity": 0.6456692913385826,
          "duration": 0.24390249999999014
        },
        {
          "name": "F3",
          "midi": 53,
          "time": 135.6097899999987,
          "velocity": 0.6456692913385826,
          "duration": 0.24390249999999014
        },
        {
          "name": "G2",
          "midi": 43,
          "time": 135.7317412499987,
          "velocity": 0.7637795275590551,
          "duration": 0.3658537499999852
        },
        {
          "name": "F3",
          "midi": 53,
          "time": 135.8536924999987,
          "velocity": 0.6456692913385826,
          "duration": 0.24390249999999014
        },
        {
          "name": "F3",
          "midi": 53,
          "time": 136.09759499999868,
          "velocity": 0.6456692913385826,
          "duration": 0.4878050000000087
        },
        {
          "name": "G2",
          "midi": 43,
          "time": 136.09759499999868,
          "velocity": 0.6456692913385826,
          "duration": 0.4878050000000087
        },
        {
          "name": "A3",
          "midi": 57,
          "time": 136.58539999999869,
          "velocity": 0.6456692913385826,
          "duration": 0.24390249999999014
        },
        {
          "name": "A#2",
          "midi": 46,
          "time": 136.58539999999869,
          "velocity": 0.6456692913385826,
          "duration": 0.24390249999999014
        },
        {
          "name": "A#2",
          "midi": 46,
          "time": 136.82930249999868,
          "velocity": 0.6456692913385826,
          "duration": 0.3658537499999852
        },
        {
          "name": "A3",
          "midi": 57,
          "time": 136.95125374999867,
          "velocity": 0.6456692913385826,
          "duration": 0.24390249999999014
        },
        {
          "name": "A2",
          "midi": 45,
          "time": 137.19515624999866,
          "velocity": 0.6456692913385826,
          "duration": 0.24390249999999014
        },
        {
          "name": "G3",
          "midi": 55,
          "time": 137.31710749999866,
          "velocity": 0.6456692913385826,
          "duration": 0.24390249999999014
        },
        {
          "name": "A2",
          "midi": 45,
          "time": 137.43905874999865,
          "velocity": 0.6456692913385826,
          "duration": 0.24390249999999014
        },
        {
          "name": "G3",
          "midi": 55,
          "time": 137.56100999999865,
          "velocity": 0.6456692913385826,
          "duration": 0.24390249999999014
        },
        {
          "name": "A2",
          "midi": 45,
          "time": 137.68296124999864,
          "velocity": 0.7637795275590551,
          "duration": 0.3658537499999852
        },
        {
          "name": "G3",
          "midi": 55,
          "time": 137.80491249999864,
          "velocity": 0.6456692913385826,
          "duration": 0.24390249999999014
        },
        {
          "name": "G3",
          "midi": 55,
          "time": 138.04881499999863,
          "velocity": 0.6456692913385826,
          "duration": 0.4878050000000087
        },
        {
          "name": "A2",
          "midi": 45,
          "time": 138.04881499999863,
          "velocity": 0.6456692913385826,
          "duration": 0.4878050000000087
        },
        {
          "name": "G#2",
          "midi": 44,
          "time": 138.53661999999863,
          "velocity": 0.6456692913385826,
          "duration": 0.24390249999999014
        },
        {
          "name": "G3",
          "midi": 55,
          "time": 138.53661999999863,
          "velocity": 0.6456692913385826,
          "duration": 0.24390249999999014
        },
        {
          "name": "G#2",
          "midi": 44,
          "time": 138.78052249999863,
          "velocity": 0.6456692913385826,
          "duration": 0.3658537499999852
        },
        {
          "name": "G3",
          "midi": 55,
          "time": 138.90247374999862,
          "velocity": 0.6456692913385826,
          "duration": 0.24390249999999014
        },
        {
          "name": "G2",
          "midi": 43,
          "time": 139.1463762499986,
          "velocity": 0.6456692913385826,
          "duration": 0.24390249999999014
        },
        {
          "name": "F3",
          "midi": 53,
          "time": 139.2683274999986,
          "velocity": 0.6456692913385826,
          "duration": 0.24390249999999014
        },
        {
          "name": "G2",
          "midi": 43,
          "time": 139.3902787499986,
          "velocity": 0.6456692913385826,
          "duration": 0.24390249999999014
        },
        {
          "name": "F3",
          "midi": 53,
          "time": 139.5122299999986,
          "velocity": 0.6456692913385826,
          "duration": 0.24390249999999014
        },
        {
          "name": "G2",
          "midi": 43,
          "time": 139.6341812499986,
          "velocity": 0.7637795275590551,
          "duration": 0.3658537499999852
        },
        {
          "name": "F3",
          "midi": 53,
          "time": 139.75613249999859,
          "velocity": 0.6456692913385826,
          "duration": 0.24390249999999014
        },
        {
          "name": "F3",
          "midi": 53,
          "time": 140.00003499999858,
          "velocity": 0.6456692913385826,
          "duration": 0.4878050000000087
        },
        {
          "name": "G2",
          "midi": 43,
          "time": 140.00003499999858,
          "velocity": 0.6456692913385826,
          "duration": 0.4878050000000087
        },
        {
          "name": "A3",
          "midi": 57,
          "time": 140.48783999999858,
          "velocity": 0.6456692913385826,
          "duration": 0.24390249999999014
        },
        {
          "name": "A#2",
          "midi": 46,
          "time": 140.48783999999858,
          "velocity": 0.6456692913385826,
          "duration": 0.24390249999999014
        },
        {
          "name": "A#2",
          "midi": 46,
          "time": 140.73174249999857,
          "velocity": 0.6456692913385826,
          "duration": 0.3658537499999852
        },
        {
          "name": "A3",
          "midi": 57,
          "time": 140.85369374999857,
          "velocity": 0.6456692913385826,
          "duration": 0.24390249999999014
        },
        {
          "name": "A2",
          "midi": 45,
          "time": 141.09759624999856,
          "velocity": 0.6456692913385826,
          "duration": 0.24390249999999014
        },
        {
          "name": "G3",
          "midi": 55,
          "time": 141.21954749999855,
          "velocity": 0.6456692913385826,
          "duration": 0.24390249999999014
        },
        {
          "name": "A2",
          "midi": 45,
          "time": 141.34149874999855,
          "velocity": 0.6456692913385826,
          "duration": 0.24390249999999014
        },
        {
          "name": "G3",
          "midi": 55,
          "time": 141.46344999999855,
          "velocity": 0.6456692913385826,
          "duration": 0.24390249999999014
        },
        {
          "name": "A2",
          "midi": 45,
          "time": 141.58540124999854,
          "velocity": 0.7637795275590551,
          "duration": 0.3658537499999852
        },
        {
          "name": "G3",
          "midi": 55,
          "time": 141.70735249999854,
          "velocity": 0.6456692913385826,
          "duration": 0.24390249999999014
        },
        {
          "name": "G3",
          "midi": 55,
          "time": 141.95125499999853,
          "velocity": 0.6456692913385826,
          "duration": 0.4878050000000087
        },
        {
          "name": "A2",
          "midi": 45,
          "time": 141.95125499999853,
          "velocity": 0.6456692913385826,
          "duration": 0.4878050000000087
        },
        {
          "name": "G#2",
          "midi": 44,
          "time": 142.43905999999853,
          "velocity": 0.6456692913385826,
          "duration": 0.24390249999999014
        },
        {
          "name": "G3",
          "midi": 55,
          "time": 142.43905999999853,
          "velocity": 0.6456692913385826,
          "duration": 0.24390249999999014
        },
        {
          "name": "G#2",
          "midi": 44,
          "time": 142.68296249999852,
          "velocity": 0.6456692913385826,
          "duration": 0.3658537499999852
        },
        {
          "name": "G3",
          "midi": 55,
          "time": 142.80491374999852,
          "velocity": 0.6456692913385826,
          "duration": 0.24390249999999014
        },
        {
          "name": "G2",
          "midi": 43,
          "time": 143.0488162499985,
          "velocity": 0.6456692913385826,
          "duration": 0.24390249999999014
        },
        {
          "name": "F3",
          "midi": 53,
          "time": 143.1707674999985,
          "velocity": 0.6456692913385826,
          "duration": 0.24390249999999014
        },
        {
          "name": "G2",
          "midi": 43,
          "time": 143.2927187499985,
          "velocity": 0.6456692913385826,
          "duration": 0.24390249999999014
        },
        {
          "name": "F3",
          "midi": 53,
          "time": 143.4146699999985,
          "velocity": 0.6456692913385826,
          "duration": 0.24390249999999014
        },
        {
          "name": "G2",
          "midi": 43,
          "time": 143.5366212499985,
          "velocity": 0.7637795275590551,
          "duration": 0.3658537499999852
        },
        {
          "name": "F3",
          "midi": 53,
          "time": 143.65857249999848,
          "velocity": 0.6456692913385826,
          "duration": 0.24390249999999014
        },
        {
          "name": "F3",
          "midi": 53,
          "time": 143.90247499999847,
          "velocity": 0.6456692913385826,
          "duration": 0.4878050000000087
        },
        {
          "name": "G2",
          "midi": 43,
          "time": 143.90247499999847,
          "velocity": 0.6456692913385826,
          "duration": 0.4878050000000087
        },
        {
          "name": "A3",
          "midi": 57,
          "time": 144.39027999999848,
          "velocity": 0.6456692913385826,
          "duration": 0.24390249999999014
        },
        {
          "name": "A#2",
          "midi": 46,
          "time": 144.39027999999848,
          "velocity": 0.6456692913385826,
          "duration": 0.24390249999999014
        },
        {
          "name": "A#2",
          "midi": 46,
          "time": 144.63418249999847,
          "velocity": 0.6456692913385826,
          "duration": 0.3658537499999852
        },
        {
          "name": "A3",
          "midi": 57,
          "time": 144.75613374999847,
          "velocity": 0.6456692913385826,
          "duration": 0.24390249999999014
        },
        {
          "name": "A2",
          "midi": 45,
          "time": 145.00003624999846,
          "velocity": 0.6456692913385826,
          "duration": 0.24390249999999014
        },
        {
          "name": "G3",
          "midi": 55,
          "time": 145.12198749999845,
          "velocity": 0.6456692913385826,
          "duration": 0.24390249999999014
        },
        {
          "name": "A2",
          "midi": 45,
          "time": 145.24393874999845,
          "velocity": 0.6456692913385826,
          "duration": 0.24390249999999014
        },
        {
          "name": "G3",
          "midi": 55,
          "time": 145.36588999999844,
          "velocity": 0.6456692913385826,
          "duration": 0.24390249999999014
        },
        {
          "name": "A2",
          "midi": 45,
          "time": 145.48784124999844,
          "velocity": 0.7637795275590551,
          "duration": 0.3658537499999852
        },
        {
          "name": "G3",
          "midi": 55,
          "time": 145.60979249999843,
          "velocity": 0.6456692913385826,
          "duration": 0.24390249999999014
        },
        {
          "name": "G3",
          "midi": 55,
          "time": 145.85369499999842,
          "velocity": 0.6456692913385826,
          "duration": 0.4878050000000087
        },
        {
          "name": "A2",
          "midi": 45,
          "time": 145.85369499999842,
          "velocity": 0.6456692913385826,
          "duration": 0.4878050000000087
        },
        {
          "name": "G#2",
          "midi": 44,
          "time": 146.34149999999843,
          "velocity": 0.6456692913385826,
          "duration": 0.24390249999999014
        },
        {
          "name": "G3",
          "midi": 55,
          "time": 146.34149999999843,
          "velocity": 0.6456692913385826,
          "duration": 0.24390249999999014
        },
        {
          "name": "G#2",
          "midi": 44,
          "time": 146.58540249999842,
          "velocity": 0.6456692913385826,
          "duration": 0.3658537499999852
        },
        {
          "name": "G3",
          "midi": 55,
          "time": 146.70735374999842,
          "velocity": 0.6456692913385826,
          "duration": 0.24390249999999014
        },
        {
          "name": "G2",
          "midi": 43,
          "time": 146.9512562499984,
          "velocity": 0.6456692913385826,
          "duration": 0.24390249999999014
        },
        {
          "name": "F3",
          "midi": 53,
          "time": 147.0732074999984,
          "velocity": 0.6456692913385826,
          "duration": 0.24390249999999014
        },
        {
          "name": "G2",
          "midi": 43,
          "time": 147.1951587499984,
          "velocity": 0.6456692913385826,
          "duration": 0.24390249999999014
        },
        {
          "name": "F3",
          "midi": 53,
          "time": 147.3171099999984,
          "velocity": 0.6456692913385826,
          "duration": 0.24390249999999014
        },
        {
          "name": "G2",
          "midi": 43,
          "time": 147.4390612499984,
          "velocity": 0.7637795275590551,
          "duration": 0.3658537499999852
        },
        {
          "name": "F3",
          "midi": 53,
          "time": 147.56101249999838,
          "velocity": 0.6456692913385826,
          "duration": 0.24390249999999014
        },
        {
          "name": "F3",
          "midi": 53,
          "time": 147.80491499999837,
          "velocity": 0.6456692913385826,
          "duration": 0.4878050000000087
        },
        {
          "name": "G2",
          "midi": 43,
          "time": 147.80491499999837,
          "velocity": 0.6456692913385826,
          "duration": 0.4878050000000087
        },
        {
          "name": "A3",
          "midi": 57,
          "time": 148.29271999999838,
          "velocity": 0.6456692913385826,
          "duration": 0.24390249999999014
        },
        {
          "name": "A#2",
          "midi": 46,
          "time": 148.29271999999838,
          "velocity": 0.6456692913385826,
          "duration": 0.24390249999999014
        },
        {
          "name": "A#2",
          "midi": 46,
          "time": 148.53662249999837,
          "velocity": 0.6456692913385826,
          "duration": 0.3658537499999852
        },
        {
          "name": "A3",
          "midi": 57,
          "time": 148.65857374999837,
          "velocity": 0.6456692913385826,
          "duration": 0.24390249999999014
        },
        {
          "name": "A2",
          "midi": 45,
          "time": 148.90247624999836,
          "velocity": 0.6456692913385826,
          "duration": 0.24390249999999014
        },
        {
          "name": "G3",
          "midi": 55,
          "time": 149.02442749999835,
          "velocity": 0.6456692913385826,
          "duration": 0.24390249999999014
        },
        {
          "name": "A2",
          "midi": 45,
          "time": 149.14637874999835,
          "velocity": 0.6456692913385826,
          "duration": 0.24390249999999014
        },
        {
          "name": "G3",
          "midi": 55,
          "time": 149.26832999999834,
          "velocity": 0.6456692913385826,
          "duration": 0.24390249999999014
        },
        {
          "name": "A2",
          "midi": 45,
          "time": 149.39028124999834,
          "velocity": 0.7637795275590551,
          "duration": 0.3658537499999852
        },
        {
          "name": "G3",
          "midi": 55,
          "time": 149.51223249999833,
          "velocity": 0.6456692913385826,
          "duration": 0.24390249999999014
        },
        {
          "name": "G3",
          "midi": 55,
          "time": 149.75613499999832,
          "velocity": 0.6456692913385826,
          "duration": 0.4878050000000087
        },
        {
          "name": "A2",
          "midi": 45,
          "time": 149.75613499999832,
          "velocity": 0.6456692913385826,
          "duration": 0.4878050000000087
        },
        {
          "name": "G#2",
          "midi": 44,
          "time": 150.24393999999833,
          "velocity": 0.6456692913385826,
          "duration": 0.24390249999999014
        },
        {
          "name": "G3",
          "midi": 55,
          "time": 150.24393999999833,
          "velocity": 0.6456692913385826,
          "duration": 0.24390249999999014
        },
        {
          "name": "G#2",
          "midi": 44,
          "time": 150.48784249999832,
          "velocity": 0.6456692913385826,
          "duration": 0.3658537499999852
        },
        {
          "name": "G3",
          "midi": 55,
          "time": 150.60979374999832,
          "velocity": 0.6456692913385826,
          "duration": 0.24390249999999014
        },
        {
          "name": "G2",
          "midi": 43,
          "time": 150.8536962499983,
          "velocity": 0.6456692913385826,
          "duration": 0.24390249999999014
        },
        {
          "name": "F3",
          "midi": 53,
          "time": 150.9756474999983,
          "velocity": 0.6456692913385826,
          "duration": 0.24390249999999014
        },
        {
          "name": "G2",
          "midi": 43,
          "time": 151.0975987499983,
          "velocity": 0.6456692913385826,
          "duration": 0.24390249999999014
        },
        {
          "name": "F3",
          "midi": 53,
          "time": 151.2195499999983,
          "velocity": 0.6456692913385826,
          "duration": 0.24390249999999014
        },
        {
          "name": "G2",
          "midi": 43,
          "time": 151.3415012499983,
          "velocity": 0.7637795275590551,
          "duration": 0.3658537499999852
        },
        {
          "name": "F3",
          "midi": 53,
          "time": 151.46345249999828,
          "velocity": 0.6456692913385826,
          "duration": 0.24390249999999014
        },
        {
          "name": "F3",
          "midi": 53,
          "time": 151.70735499999827,
          "velocity": 0.6456692913385826,
          "duration": 0.4878050000000087
        },
        {
          "name": "G2",
          "midi": 43,
          "time": 151.70735499999827,
          "velocity": 0.6456692913385826,
          "duration": 0.4878050000000087
        },
        {
          "name": "A3",
          "midi": 57,
          "time": 152.19515999999828,
          "velocity": 0.6456692913385826,
          "duration": 0.24390249999999014
        },
        {
          "name": "A#2",
          "midi": 46,
          "time": 152.19515999999828,
          "velocity": 0.6456692913385826,
          "duration": 0.24390249999999014
        },
        {
          "name": "A#2",
          "midi": 46,
          "time": 152.43906249999827,
          "velocity": 0.6456692913385826,
          "duration": 0.3658537499999852
        },
        {
          "name": "A3",
          "midi": 57,
          "time": 152.56101374999827,
          "velocity": 0.6456692913385826,
          "duration": 0.24390249999999014
        },
        {
          "name": "A2",
          "midi": 45,
          "time": 152.80491624999826,
          "velocity": 0.6456692913385826,
          "duration": 0.24390249999999014
        },
        {
          "name": "G3",
          "midi": 55,
          "time": 152.92686749999825,
          "velocity": 0.6456692913385826,
          "duration": 0.24390249999999014
        },
        {
          "name": "A2",
          "midi": 45,
          "time": 153.04881874999825,
          "velocity": 0.6456692913385826,
          "duration": 0.24390249999999014
        },
        {
          "name": "G3",
          "midi": 55,
          "time": 153.17076999999824,
          "velocity": 0.6456692913385826,
          "duration": 0.24390249999999014
        },
        {
          "name": "A2",
          "midi": 45,
          "time": 153.29272124999824,
          "velocity": 0.7637795275590551,
          "duration": 0.3658537499999852
        },
        {
          "name": "G3",
          "midi": 55,
          "time": 153.41467249999823,
          "velocity": 0.6456692913385826,
          "duration": 0.24390249999999014
        },
        {
          "name": "G3",
          "midi": 55,
          "time": 153.65857499999822,
          "velocity": 0.6456692913385826,
          "duration": 0.4878050000000087
        },
        {
          "name": "A2",
          "midi": 45,
          "time": 153.65857499999822,
          "velocity": 0.6456692913385826,
          "duration": 0.4878050000000087
        },
        {
          "name": "G#2",
          "midi": 44,
          "time": 154.14637999999823,
          "velocity": 0.6456692913385826,
          "duration": 0.24390249999999014
        },
        {
          "name": "G3",
          "midi": 55,
          "time": 154.14637999999823,
          "velocity": 0.6456692913385826,
          "duration": 0.24390249999999014
        },
        {
          "name": "G#2",
          "midi": 44,
          "time": 154.39028249999822,
          "velocity": 0.6456692913385826,
          "duration": 0.3658537499999852
        },
        {
          "name": "G3",
          "midi": 55,
          "time": 154.51223374999822,
          "velocity": 0.6456692913385826,
          "duration": 0.24390249999999014
        },
        {
          "name": "G2",
          "midi": 43,
          "time": 154.7561362499982,
          "velocity": 0.6456692913385826,
          "duration": 0.24390249999999014
        },
        {
          "name": "F3",
          "midi": 53,
          "time": 154.8780874999982,
          "velocity": 0.6456692913385826,
          "duration": 0.24390249999999014
        },
        {
          "name": "G2",
          "midi": 43,
          "time": 155.0000387499982,
          "velocity": 0.6456692913385826,
          "duration": 0.24390249999999014
        },
        {
          "name": "F3",
          "midi": 53,
          "time": 155.1219899999982,
          "velocity": 0.6456692913385826,
          "duration": 0.24390249999999014
        },
        {
          "name": "G2",
          "midi": 43,
          "time": 155.2439412499982,
          "velocity": 0.7637795275590551,
          "duration": 0.3658537499999852
        },
        {
          "name": "F3",
          "midi": 53,
          "time": 155.36589249999818,
          "velocity": 0.6456692913385826,
          "duration": 0.24390249999999014
        },
        {
          "name": "F3",
          "midi": 53,
          "time": 155.60979499999817,
          "velocity": 0.6456692913385826,
          "duration": 0.4878050000000087
        },
        {
          "name": "G2",
          "midi": 43,
          "time": 155.60979499999817,
          "velocity": 0.6456692913385826,
          "duration": 0.4878050000000087
        },
        {
          "name": "A#1",
          "midi": 34,
          "time": 156.09759999999818,
          "velocity": 0.7637795275590551,
          "duration": 0.1829268749999926
        },
        {
          "name": "F2",
          "midi": 41,
          "time": 156.34150249999817,
          "velocity": 0.7637795275590551,
          "duration": 0.060975624999997535
        },
        {
          "name": "A#2",
          "midi": 46,
          "time": 156.46345374999817,
          "velocity": 0.7637795275590551,
          "duration": 0.1829268749999926
        },
        {
          "name": "F2",
          "midi": 41,
          "time": 156.70735624999816,
          "velocity": 0.7637795275590551,
          "duration": 0.060975624999997535
        },
        {
          "name": "A2",
          "midi": 45,
          "time": 156.82930749999815,
          "velocity": 0.7637795275590551,
          "duration": 0.1829268749999926
        },
        {
          "name": "A2",
          "midi": 45,
          "time": 157.07320999999814,
          "velocity": 0.7637795275590551,
          "duration": 0.060975624999997535
        },
        {
          "name": "E2",
          "midi": 40,
          "time": 157.19516124999814,
          "velocity": 0.7637795275590551,
          "duration": 0.1829268749999926
        },
        {
          "name": "E2",
          "midi": 40,
          "time": 157.43906374999813,
          "velocity": 0.7637795275590551,
          "duration": 0.060975624999997535
        },
        {
          "name": "A1",
          "midi": 33,
          "time": 157.56101499999812,
          "velocity": 0.7637795275590551,
          "duration": 0.1829268749999926
        },
        {
          "name": "E2",
          "midi": 40,
          "time": 157.8049174999981,
          "velocity": 0.7637795275590551,
          "duration": 0.1829268749999926
        },
        {
          "name": "G#2",
          "midi": 44,
          "time": 158.0488199999981,
          "velocity": 0.7637795275590551,
          "duration": 0.1829268749999926
        },
        {
          "name": "G#2",
          "midi": 44,
          "time": 158.2927224999981,
          "velocity": 0.7637795275590551,
          "duration": 0.060975624999997535
        },
        {
          "name": "D#2",
          "midi": 39,
          "time": 158.4146737499981,
          "velocity": 0.7637795275590551,
          "duration": 0.1829268749999926
        },
        {
          "name": "G#2",
          "midi": 44,
          "time": 158.65857624999808,
          "velocity": 0.7637795275590551,
          "duration": 0.1829268749999926
        },
        {
          "name": "G2",
          "midi": 43,
          "time": 158.90247874999807,
          "velocity": 0.7637795275590551,
          "duration": 0.1829268749999926
        },
        {
          "name": "G2",
          "midi": 43,
          "time": 159.14638124999806,
          "velocity": 0.7637795275590551,
          "duration": 0.1829268749999926
        },
        {
          "name": "D2",
          "midi": 38,
          "time": 159.39028374999805,
          "velocity": 0.7637795275590551,
          "duration": 0.060975624999997535
        },
        {
          "name": "D2",
          "midi": 38,
          "time": 159.51223499999804,
          "velocity": 0.7637795275590551,
          "duration": 0.1829268749999926
        },
        {
          "name": "G2",
          "midi": 43,
          "time": 159.75613749999803,
          "velocity": 0.7637795275590551,
          "duration": 0.1829268749999926
        },
        {
          "name": "A#1",
          "midi": 34,
          "time": 160.00003999999802,
          "velocity": 0.7637795275590551,
          "duration": 0.1829268749999926
        },
        {
          "name": "F2",
          "midi": 41,
          "time": 160.243942499998,
          "velocity": 0.7637795275590551,
          "duration": 0.060975624999997535
        },
        {
          "name": "A#2",
          "midi": 46,
          "time": 160.365893749998,
          "velocity": 0.7637795275590551,
          "duration": 0.1829268749999926
        },
        {
          "name": "F2",
          "midi": 41,
          "time": 160.609796249998,
          "velocity": 0.7637795275590551,
          "duration": 0.060975624999997535
        },
        {
          "name": "A2",
          "midi": 45,
          "time": 160.731747499998,
          "velocity": 0.7637795275590551,
          "duration": 0.1829268749999926
        },
        {
          "name": "A2",
          "midi": 45,
          "time": 160.97564999999798,
          "velocity": 0.7637795275590551,
          "duration": 0.060975624999997535
        },
        {
          "name": "E2",
          "midi": 40,
          "time": 161.09760124999798,
          "velocity": 0.7637795275590551,
          "duration": 0.1829268749999926
        },
        {
          "name": "E2",
          "midi": 40,
          "time": 161.34150374999797,
          "velocity": 0.7637795275590551,
          "duration": 0.060975624999997535
        },
        {
          "name": "A1",
          "midi": 33,
          "time": 161.46345499999796,
          "velocity": 0.7637795275590551,
          "duration": 0.1829268749999926
        },
        {
          "name": "E2",
          "midi": 40,
          "time": 161.70735749999795,
          "velocity": 0.7637795275590551,
          "duration": 0.1829268749999926
        },
        {
          "name": "G#2",
          "midi": 44,
          "time": 161.95125999999794,
          "velocity": 0.7637795275590551,
          "duration": 0.1829268749999926
        },
        {
          "name": "G#2",
          "midi": 44,
          "time": 162.19516249999793,
          "velocity": 0.7637795275590551,
          "duration": 0.060975624999997535
        },
        {
          "name": "D#2",
          "midi": 39,
          "time": 162.31711374999793,
          "velocity": 0.7637795275590551,
          "duration": 0.1829268749999926
        },
        {
          "name": "G#2",
          "midi": 44,
          "time": 162.56101624999792,
          "velocity": 0.7637795275590551,
          "duration": 0.1829268749999926
        },
        {
          "name": "G2",
          "midi": 43,
          "time": 162.8049187499979,
          "velocity": 0.7637795275590551,
          "duration": 0.1829268749999926
        },
        {
          "name": "G2",
          "midi": 43,
          "time": 163.0488212499979,
          "velocity": 0.7637795275590551,
          "duration": 0.1829268749999926
        },
        {
          "name": "D2",
          "midi": 38,
          "time": 163.2927237499979,
          "velocity": 0.7637795275590551,
          "duration": 0.060975624999997535
        },
        {
          "name": "D2",
          "midi": 38,
          "time": 163.41467499999789,
          "velocity": 0.7637795275590551,
          "duration": 0.1829268749999926
        },
        {
          "name": "G2",
          "midi": 43,
          "time": 163.65857749999788,
          "velocity": 0.7637795275590551,
          "duration": 0.1829268749999926
        },
        {
          "name": "A#1",
          "midi": 34,
          "time": 163.90247999999787,
          "velocity": 0.7637795275590551,
          "duration": 0.1829268749999926
        },
        {
          "name": "F2",
          "midi": 41,
          "time": 164.14638249999786,
          "velocity": 0.7637795275590551,
          "duration": 0.060975624999997535
        },
        {
          "name": "A#2",
          "midi": 46,
          "time": 164.26833374999785,
          "velocity": 0.7637795275590551,
          "duration": 0.1829268749999926
        },
        {
          "name": "F2",
          "midi": 41,
          "time": 164.51223624999784,
          "velocity": 0.7637795275590551,
          "duration": 0.060975624999997535
        },
        {
          "name": "A2",
          "midi": 45,
          "time": 164.63418749999784,
          "velocity": 0.7637795275590551,
          "duration": 0.1829268749999926
        },
        {
          "name": "A2",
          "midi": 45,
          "time": 164.87808999999783,
          "velocity": 0.7637795275590551,
          "duration": 0.060975624999997535
        },
        {
          "name": "E2",
          "midi": 40,
          "time": 165.00004124999782,
          "velocity": 0.7637795275590551,
          "duration": 0.1829268749999926
        },
        {
          "name": "E2",
          "midi": 40,
          "time": 165.2439437499978,
          "velocity": 0.7637795275590551,
          "duration": 0.060975624999997535
        },
        {
          "name": "A1",
          "midi": 33,
          "time": 165.3658949999978,
          "velocity": 0.7637795275590551,
          "duration": 0.1829268749999926
        },
        {
          "name": "E2",
          "midi": 40,
          "time": 165.6097974999978,
          "velocity": 0.7637795275590551,
          "duration": 0.1829268749999926
        },
        {
          "name": "G#2",
          "midi": 44,
          "time": 165.8536999999978,
          "velocity": 0.7637795275590551,
          "duration": 0.1829268749999926
        },
        {
          "name": "G#2",
          "midi": 44,
          "time": 166.09760249999778,
          "velocity": 0.7637795275590551,
          "duration": 0.060975624999997535
        },
        {
          "name": "D#2",
          "midi": 39,
          "time": 166.21955374999777,
          "velocity": 0.7637795275590551,
          "duration": 0.1829268749999926
        },
        {
          "name": "G#2",
          "midi": 44,
          "time": 166.46345624999776,
          "velocity": 0.7637795275590551,
          "duration": 0.1829268749999926
        },
        {
          "name": "G2",
          "midi": 43,
          "time": 166.70735874999775,
          "velocity": 0.7637795275590551,
          "duration": 0.1829268749999926
        },
        {
          "name": "G2",
          "midi": 43,
          "time": 166.95126124999774,
          "velocity": 0.7637795275590551,
          "duration": 0.1829268749999926
        },
        {
          "name": "D2",
          "midi": 38,
          "time": 167.19516374999773,
          "velocity": 0.7637795275590551,
          "duration": 0.060975624999997535
        },
        {
          "name": "D2",
          "midi": 38,
          "time": 167.31711499999773,
          "velocity": 0.7637795275590551,
          "duration": 0.1829268749999926
        },
        {
          "name": "G2",
          "midi": 43,
          "time": 167.56101749999772,
          "velocity": 0.7637795275590551,
          "duration": 0.1829268749999926
        },
        {
          "name": "A#1",
          "midi": 34,
          "time": 167.8049199999977,
          "velocity": 0.7637795275590551,
          "duration": 0.1829268749999926
        },
        {
          "name": "F2",
          "midi": 41,
          "time": 168.0488224999977,
          "velocity": 0.7637795275590551,
          "duration": 0.060975624999997535
        },
        {
          "name": "A#2",
          "midi": 46,
          "time": 168.1707737499977,
          "velocity": 0.7637795275590551,
          "duration": 0.1829268749999926
        },
        {
          "name": "F2",
          "midi": 41,
          "time": 168.41467624999768,
          "velocity": 0.7637795275590551,
          "duration": 0.060975624999997535
        },
        {
          "name": "A2",
          "midi": 45,
          "time": 168.53662749999768,
          "velocity": 0.7637795275590551,
          "duration": 0.1829268749999926
        },
        {
          "name": "A2",
          "midi": 45,
          "time": 168.78052999999767,
          "velocity": 0.7637795275590551,
          "duration": 0.060975624999997535
        },
        {
          "name": "E2",
          "midi": 40,
          "time": 168.90248124999766,
          "velocity": 0.7637795275590551,
          "duration": 0.1829268749999926
        },
        {
          "name": "E2",
          "midi": 40,
          "time": 169.14638374999765,
          "velocity": 0.7637795275590551,
          "duration": 0.060975624999997535
        },
        {
          "name": "A1",
          "midi": 33,
          "time": 169.26833499999765,
          "velocity": 0.7637795275590551,
          "duration": 0.1829268749999926
        },
        {
          "name": "A2",
          "midi": 45,
          "time": 169.51223749999764,
          "velocity": 0.7637795275590551,
          "duration": 0.24390249999999014
        },
        {
          "name": "G#2",
          "midi": 44,
          "time": 169.75613999999763,
          "velocity": 0.7637795275590551,
          "duration": 2.439025000000015
        },
        {
          "name": "D#2",
          "midi": 39,
          "time": 170.12199374999764,
          "velocity": 0.7637795275590551,
          "duration": 2.0731712500000015
        },
        {
          "name": "G#1",
          "midi": 32,
          "time": 170.48784749999766,
          "velocity": 0.7637795275590551,
          "duration": 1.7073174999999878
        },
        {
          "name": "A3",
          "midi": 57,
          "time": 173.65857999999764,
          "velocity": 0.6456692913385826,
          "duration": 0.24390249999999014
        },
        {
          "name": "A#2",
          "midi": 46,
          "time": 173.65857999999764,
          "velocity": 0.6456692913385826,
          "duration": 0.24390249999999014
        },
        {
          "name": "A#2",
          "midi": 46,
          "time": 173.90248249999763,
          "velocity": 0.6456692913385826,
          "duration": 0.3658537499999852
        },
        {
          "name": "A3",
          "midi": 57,
          "time": 174.02443374999763,
          "velocity": 0.6456692913385826,
          "duration": 0.24390249999999014
        },
        {
          "name": "A2",
          "midi": 45,
          "time": 174.26833624999762,
          "velocity": 0.6456692913385826,
          "duration": 0.24390249999999014
        },
        {
          "name": "G3",
          "midi": 55,
          "time": 174.3902874999976,
          "velocity": 0.6456692913385826,
          "duration": 0.24390249999999014
        },
        {
          "name": "A2",
          "midi": 45,
          "time": 174.5122387499976,
          "velocity": 0.6456692913385826,
          "duration": 0.24390249999999014
        },
        {
          "name": "G3",
          "midi": 55,
          "time": 174.6341899999976,
          "velocity": 0.6456692913385826,
          "duration": 0.24390249999999014
        },
        {
          "name": "A2",
          "midi": 45,
          "time": 174.7561412499976,
          "velocity": 0.7637795275590551,
          "duration": 0.3658537499999852
        },
        {
          "name": "G3",
          "midi": 55,
          "time": 174.8780924999976,
          "velocity": 0.6456692913385826,
          "duration": 0.24390249999999014
        },
        {
          "name": "G3",
          "midi": 55,
          "time": 175.12199499999758,
          "velocity": 0.6456692913385826,
          "duration": 0.4878050000000087
        },
        {
          "name": "A2",
          "midi": 45,
          "time": 175.12199499999758,
          "velocity": 0.6456692913385826,
          "duration": 0.4878050000000087
        },
        {
          "name": "G#2",
          "midi": 44,
          "time": 175.6097999999976,
          "velocity": 0.6456692913385826,
          "duration": 0.24390249999999014
        },
        {
          "name": "G3",
          "midi": 55,
          "time": 175.6097999999976,
          "velocity": 0.6456692913385826,
          "duration": 0.24390249999999014
        },
        {
          "name": "G#2",
          "midi": 44,
          "time": 175.85370249999758,
          "velocity": 0.6456692913385826,
          "duration": 0.3658537499999852
        },
        {
          "name": "G3",
          "midi": 55,
          "time": 175.97565374999758,
          "velocity": 0.6456692913385826,
          "duration": 0.24390249999999014
        },
        {
          "name": "G2",
          "midi": 43,
          "time": 176.21955624999757,
          "velocity": 0.6456692913385826,
          "duration": 0.24390249999999014
        },
        {
          "name": "F3",
          "midi": 53,
          "time": 176.34150749999756,
          "velocity": 0.6456692913385826,
          "duration": 0.24390249999999014
        },
        {
          "name": "G2",
          "midi": 43,
          "time": 176.46345874999756,
          "velocity": 0.6456692913385826,
          "duration": 0.24390249999999014
        },
        {
          "name": "F3",
          "midi": 53,
          "time": 176.58540999999755,
          "velocity": 0.6456692913385826,
          "duration": 0.24390249999999014
        },
        {
          "name": "G2",
          "midi": 43,
          "time": 176.70736124999755,
          "velocity": 0.7637795275590551,
          "duration": 0.3658537499999852
        },
        {
          "name": "F3",
          "midi": 53,
          "time": 176.82931249999754,
          "velocity": 0.6456692913385826,
          "duration": 0.24390249999999014
        },
        {
          "name": "F3",
          "midi": 53,
          "time": 177.07321499999753,
          "velocity": 0.6456692913385826,
          "duration": 0.4878050000000087
        },
        {
          "name": "G2",
          "midi": 43,
          "time": 177.07321499999753,
          "velocity": 0.6456692913385826,
          "duration": 0.4878050000000087
        },
        {
          "name": "A3",
          "midi": 57,
          "time": 177.56101999999754,
          "velocity": 0.6456692913385826,
          "duration": 0.24390249999999014
        },
        {
          "name": "A#2",
          "midi": 46,
          "time": 177.56101999999754,
          "velocity": 0.6456692913385826,
          "duration": 0.24390249999999014
        },
        {
          "name": "A#2",
          "midi": 46,
          "time": 177.80492249999753,
          "velocity": 0.6456692913385826,
          "duration": 0.3658537499999852
        },
        {
          "name": "A3",
          "midi": 57,
          "time": 177.92687374999753,
          "velocity": 0.6456692913385826,
          "duration": 0.24390249999999014
        },
        {
          "name": "A2",
          "midi": 45,
          "time": 178.17077624999752,
          "velocity": 0.6456692913385826,
          "duration": 0.24390249999999014
        },
        {
          "name": "G3",
          "midi": 55,
          "time": 178.2927274999975,
          "velocity": 0.6456692913385826,
          "duration": 0.24390249999999014
        },
        {
          "name": "A2",
          "midi": 45,
          "time": 178.4146787499975,
          "velocity": 0.6456692913385826,
          "duration": 0.24390249999999014
        },
        {
          "name": "G3",
          "midi": 55,
          "time": 178.5366299999975,
          "velocity": 0.6456692913385826,
          "duration": 0.24390249999999014
        },
        {
          "name": "A2",
          "midi": 45,
          "time": 178.6585812499975,
          "velocity": 0.7637795275590551,
          "duration": 0.3658537499999852
        },
        {
          "name": "G3",
          "midi": 55,
          "time": 178.7805324999975,
          "velocity": 0.6456692913385826,
          "duration": 0.24390249999999014
        },
        {
          "name": "G3",
          "midi": 55,
          "time": 179.02443499999748,
          "velocity": 0.6456692913385826,
          "duration": 0.4878050000000087
        },
        {
          "name": "A2",
          "midi": 45,
          "time": 179.02443499999748,
          "velocity": 0.6456692913385826,
          "duration": 0.4878050000000087
        },
        {
          "name": "G#2",
          "midi": 44,
          "time": 179.5122399999975,
          "velocity": 0.6456692913385826,
          "duration": 0.24390249999999014
        },
        {
          "name": "G3",
          "midi": 55,
          "time": 179.5122399999975,
          "velocity": 0.6456692913385826,
          "duration": 0.24390249999999014
        },
        {
          "name": "G#2",
          "midi": 44,
          "time": 179.75614249999748,
          "velocity": 0.6456692913385826,
          "duration": 0.3658537499999852
        },
        {
          "name": "G3",
          "midi": 55,
          "time": 179.87809374999748,
          "velocity": 0.6456692913385826,
          "duration": 0.24390249999999014
        },
        {
          "name": "G2",
          "midi": 43,
          "time": 180.12199624999747,
          "velocity": 0.6456692913385826,
          "duration": 0.24390249999999014
        },
        {
          "name": "F3",
          "midi": 53,
          "time": 180.24394749999746,
          "velocity": 0.6456692913385826,
          "duration": 0.24390249999999014
        },
        {
          "name": "G2",
          "midi": 43,
          "time": 180.36589874999746,
          "velocity": 0.6456692913385826,
          "duration": 0.24390249999999014
        },
        {
          "name": "F3",
          "midi": 53,
          "time": 180.48784999999745,
          "velocity": 0.6456692913385826,
          "duration": 0.24390249999999014
        },
        {
          "name": "G2",
          "midi": 43,
          "time": 180.60980124999745,
          "velocity": 0.7637795275590551,
          "duration": 0.3658537499999852
        },
        {
          "name": "F3",
          "midi": 53,
          "time": 180.73175249999744,
          "velocity": 0.6456692913385826,
          "duration": 0.24390249999999014
        },
        {
          "name": "F3",
          "midi": 53,
          "time": 180.97565499999743,
          "velocity": 0.6456692913385826,
          "duration": 0.4878050000000087
        },
        {
          "name": "G2",
          "midi": 43,
          "time": 180.97565499999743,
          "velocity": 0.6456692913385826,
          "duration": 0.4878050000000087
        },
        {
          "name": "A3",
          "midi": 57,
          "time": 181.46345999999744,
          "velocity": 0.6456692913385826,
          "duration": 0.24390249999999014
        },
        {
          "name": "A#2",
          "midi": 46,
          "time": 181.46345999999744,
          "velocity": 0.6456692913385826,
          "duration": 0.24390249999999014
        },
        {
          "name": "A#2",
          "midi": 46,
          "time": 181.70736249999743,
          "velocity": 0.6456692913385826,
          "duration": 0.3658537499999852
        },
        {
          "name": "A3",
          "midi": 57,
          "time": 181.82931374999743,
          "velocity": 0.6456692913385826,
          "duration": 0.24390249999999014
        },
        {
          "name": "A2",
          "midi": 45,
          "time": 182.07321624999742,
          "velocity": 0.6456692913385826,
          "duration": 0.24390249999999014
        },
        {
          "name": "G3",
          "midi": 55,
          "time": 182.1951674999974,
          "velocity": 0.6456692913385826,
          "duration": 0.24390249999999014
        },
        {
          "name": "A2",
          "midi": 45,
          "time": 182.3171187499974,
          "velocity": 0.6456692913385826,
          "duration": 0.24390249999999014
        },
        {
          "name": "G3",
          "midi": 55,
          "time": 182.4390699999974,
          "velocity": 0.6456692913385826,
          "duration": 0.24390249999999014
        },
        {
          "name": "A2",
          "midi": 45,
          "time": 182.5610212499974,
          "velocity": 0.7637795275590551,
          "duration": 0.3658537499999852
        },
        {
          "name": "G3",
          "midi": 55,
          "time": 182.6829724999974,
          "velocity": 0.6456692913385826,
          "duration": 0.24390249999999014
        },
        {
          "name": "G3",
          "midi": 55,
          "time": 182.92687499999738,
          "velocity": 0.6456692913385826,
          "duration": 0.4878050000000087
        },
        {
          "name": "A2",
          "midi": 45,
          "time": 182.92687499999738,
          "velocity": 0.6456692913385826,
          "duration": 0.4878050000000087
        },
        {
          "name": "G#2",
          "midi": 44,
          "time": 183.4146799999974,
          "velocity": 0.6456692913385826,
          "duration": 0.24390249999999014
        },
        {
          "name": "G3",
          "midi": 55,
          "time": 183.4146799999974,
          "velocity": 0.6456692913385826,
          "duration": 0.24390249999999014
        },
        {
          "name": "G#2",
          "midi": 44,
          "time": 183.65858249999738,
          "velocity": 0.6456692913385826,
          "duration": 0.3658537499999852
        },
        {
          "name": "G3",
          "midi": 55,
          "time": 183.78053374999737,
          "velocity": 0.6456692913385826,
          "duration": 0.24390249999999014
        },
        {
          "name": "G2",
          "midi": 43,
          "time": 184.02443624999736,
          "velocity": 0.6456692913385826,
          "duration": 0.24390249999999014
        },
        {
          "name": "F3",
          "midi": 53,
          "time": 184.14638749999736,
          "velocity": 0.6456692913385826,
          "duration": 0.24390249999999014
        },
        {
          "name": "G2",
          "midi": 43,
          "time": 184.26833874999735,
          "velocity": 0.6456692913385826,
          "duration": 0.24390249999999014
        },
        {
          "name": "F3",
          "midi": 53,
          "time": 184.39028999999735,
          "velocity": 0.6456692913385826,
          "duration": 0.24390249999999014
        },
        {
          "name": "G2",
          "midi": 43,
          "time": 184.51224124999734,
          "velocity": 0.7637795275590551,
          "duration": 0.3658537499999852
        },
        {
          "name": "F3",
          "midi": 53,
          "time": 184.63419249999734,
          "velocity": 0.6456692913385826,
          "duration": 0.24390249999999014
        },
        {
          "name": "F3",
          "midi": 53,
          "time": 184.87809499999733,
          "velocity": 0.6456692913385826,
          "duration": 0.4878050000000087
        },
        {
          "name": "G2",
          "midi": 43,
          "time": 184.87809499999733,
          "velocity": 0.6456692913385826,
          "duration": 0.4878050000000087
        },
        {
          "name": "A3",
          "midi": 57,
          "time": 185.36589999999734,
          "velocity": 0.6456692913385826,
          "duration": 0.24390249999999014
        },
        {
          "name": "A#2",
          "midi": 46,
          "time": 185.36589999999734,
          "velocity": 0.6456692913385826,
          "duration": 0.24390249999999014
        },
        {
          "name": "A#2",
          "midi": 46,
          "time": 185.60980249999733,
          "velocity": 0.6456692913385826,
          "duration": 0.3658537499999852
        },
        {
          "name": "A3",
          "midi": 57,
          "time": 185.73175374999732,
          "velocity": 0.6456692913385826,
          "duration": 0.24390249999999014
        },
        {
          "name": "A2",
          "midi": 45,
          "time": 185.97565624999731,
          "velocity": 0.6456692913385826,
          "duration": 0.24390249999999014
        },
        {
          "name": "G3",
          "midi": 55,
          "time": 186.0976074999973,
          "velocity": 0.6456692913385826,
          "duration": 0.24390249999999014
        },
        {
          "name": "A2",
          "midi": 45,
          "time": 186.2195587499973,
          "velocity": 0.6456692913385826,
          "duration": 0.24390249999999014
        },
        {
          "name": "G3",
          "midi": 55,
          "time": 186.3415099999973,
          "velocity": 0.6456692913385826,
          "duration": 0.24390249999999014
        },
        {
          "name": "A2",
          "midi": 45,
          "time": 186.4634612499973,
          "velocity": 0.7637795275590551,
          "duration": 0.3658537499999852
        },
        {
          "name": "G3",
          "midi": 55,
          "time": 186.5854124999973,
          "velocity": 0.6456692913385826,
          "duration": 0.24390249999999014
        },
        {
          "name": "G3",
          "midi": 55,
          "time": 186.82931499999728,
          "velocity": 0.6456692913385826,
          "duration": 0.4878050000000087
        },
        {
          "name": "A2",
          "midi": 45,
          "time": 186.82931499999728,
          "velocity": 0.6456692913385826,
          "duration": 0.4878050000000087
        },
        {
          "name": "G#2",
          "midi": 44,
          "time": 187.3171199999973,
          "velocity": 0.6456692913385826,
          "duration": 0.24390249999999014
        },
        {
          "name": "G3",
          "midi": 55,
          "time": 187.3171199999973,
          "velocity": 0.6456692913385826,
          "duration": 0.24390249999999014
        },
        {
          "name": "G#2",
          "midi": 44,
          "time": 187.56102249999728,
          "velocity": 0.6456692913385826,
          "duration": 0.3658537499999852
        },
        {
          "name": "G3",
          "midi": 55,
          "time": 187.68297374999727,
          "velocity": 0.6456692913385826,
          "duration": 0.24390249999999014
        },
        {
          "name": "G2",
          "midi": 43,
          "time": 187.92687624999726,
          "velocity": 0.6456692913385826,
          "duration": 0.24390249999999014
        },
        {
          "name": "F3",
          "midi": 53,
          "time": 188.04882749999726,
          "velocity": 0.6456692913385826,
          "duration": 0.24390249999999014
        },
        {
          "name": "G2",
          "midi": 43,
          "time": 188.17077874999725,
          "velocity": 0.6456692913385826,
          "duration": 0.24390249999999014
        },
        {
          "name": "F3",
          "midi": 53,
          "time": 188.29272999999725,
          "velocity": 0.6456692913385826,
          "duration": 0.24390249999999014
        },
        {
          "name": "G2",
          "midi": 43,
          "time": 188.41468124999724,
          "velocity": 0.7637795275590551,
          "duration": 0.3658537499999852
        },
        {
          "name": "F3",
          "midi": 53,
          "time": 188.53663249999724,
          "velocity": 0.6456692913385826,
          "duration": 0.24390249999999014
        },
        {
          "name": "F3",
          "midi": 53,
          "time": 188.78053499999723,
          "velocity": 0.6456692913385826,
          "duration": 0.4878050000000087
        },
        {
          "name": "G2",
          "midi": 43,
          "time": 188.78053499999723,
          "velocity": 0.6456692913385826,
          "duration": 0.4878050000000087
        },
        {
          "name": "A3",
          "midi": 57,
          "time": 189.26833999999724,
          "velocity": 0.6456692913385826,
          "duration": 0.24390249999999014
        },
        {
          "name": "A#2",
          "midi": 46,
          "time": 189.26833999999724,
          "velocity": 0.6456692913385826,
          "duration": 0.24390249999999014
        },
        {
          "name": "A#2",
          "midi": 46,
          "time": 189.51224249999723,
          "velocity": 0.6456692913385826,
          "duration": 0.3658537499999852
        },
        {
          "name": "A3",
          "midi": 57,
          "time": 189.63419374999722,
          "velocity": 0.6456692913385826,
          "duration": 0.24390249999999014
        },
        {
          "name": "A2",
          "midi": 45,
          "time": 189.8780962499972,
          "velocity": 0.6456692913385826,
          "duration": 0.24390249999999014
        },
        {
          "name": "G3",
          "midi": 55,
          "time": 190.0000474999972,
          "velocity": 0.6456692913385826,
          "duration": 0.24390249999999014
        },
        {
          "name": "A2",
          "midi": 45,
          "time": 190.1219987499972,
          "velocity": 0.6456692913385826,
          "duration": 0.24390249999999014
        },
        {
          "name": "G3",
          "midi": 55,
          "time": 190.2439499999972,
          "velocity": 0.6456692913385826,
          "duration": 0.24390249999999014
        },
        {
          "name": "A2",
          "midi": 45,
          "time": 190.3659012499972,
          "velocity": 0.7637795275590551,
          "duration": 0.3658537499999852
        },
        {
          "name": "G3",
          "midi": 55,
          "time": 190.4878524999972,
          "velocity": 0.6456692913385826,
          "duration": 0.24390249999999014
        },
        {
          "name": "G3",
          "midi": 55,
          "time": 190.73175499999718,
          "velocity": 0.6456692913385826,
          "duration": 0.4878050000000087
        },
        {
          "name": "A2",
          "midi": 45,
          "time": 190.73175499999718,
          "velocity": 0.6456692913385826,
          "duration": 0.4878050000000087
        },
        {
          "name": "G#2",
          "midi": 44,
          "time": 191.2195599999972,
          "velocity": 0.6456692913385826,
          "duration": 0.24390249999999014
        },
        {
          "name": "G3",
          "midi": 55,
          "time": 191.2195599999972,
          "velocity": 0.6456692913385826,
          "duration": 0.24390249999999014
        },
        {
          "name": "G#2",
          "midi": 44,
          "time": 191.46346249999718,
          "velocity": 0.6456692913385826,
          "duration": 0.3658537499999852
        },
        {
          "name": "G3",
          "midi": 55,
          "time": 191.58541374999717,
          "velocity": 0.6456692913385826,
          "duration": 0.24390249999999014
        },
        {
          "name": "G2",
          "midi": 43,
          "time": 191.82931624999716,
          "velocity": 0.6456692913385826,
          "duration": 0.24390249999999014
        },
        {
          "name": "F3",
          "midi": 53,
          "time": 191.95126749999716,
          "velocity": 0.6456692913385826,
          "duration": 0.24390249999999014
        },
        {
          "name": "G2",
          "midi": 43,
          "time": 192.07321874999715,
          "velocity": 0.6456692913385826,
          "duration": 0.24390249999999014
        },
        {
          "name": "F3",
          "midi": 53,
          "time": 192.19516999999715,
          "velocity": 0.6456692913385826,
          "duration": 0.24390249999999014
        },
        {
          "name": "G2",
          "midi": 43,
          "time": 192.31712124999714,
          "velocity": 0.7637795275590551,
          "duration": 0.3658537499999852
        },
        {
          "name": "F3",
          "midi": 53,
          "time": 192.43907249999714,
          "velocity": 0.6456692913385826,
          "duration": 0.24390249999999014
        },
        {
          "name": "F3",
          "midi": 53,
          "time": 192.68297499999713,
          "velocity": 0.6456692913385826,
          "duration": 0.4878050000000087
        },
        {
          "name": "G2",
          "midi": 43,
          "time": 192.68297499999713,
          "velocity": 0.6456692913385826,
          "duration": 0.4878050000000087
        },
        {
          "name": "A3",
          "midi": 57,
          "time": 193.17077999999714,
          "velocity": 0.6456692913385826,
          "duration": 0.24390249999999014
        },
        {
          "name": "A#2",
          "midi": 46,
          "time": 193.17077999999714,
          "velocity": 0.6456692913385826,
          "duration": 0.24390249999999014
        },
        {
          "name": "A#2",
          "midi": 46,
          "time": 193.41468249999713,
          "velocity": 0.6456692913385826,
          "duration": 0.3658537499999852
        },
        {
          "name": "A3",
          "midi": 57,
          "time": 193.53663374999712,
          "velocity": 0.6456692913385826,
          "duration": 0.24390249999999014
        },
        {
          "name": "A2",
          "midi": 45,
          "time": 193.7805362499971,
          "velocity": 0.6456692913385826,
          "duration": 0.24390249999999014
        },
        {
          "name": "G3",
          "midi": 55,
          "time": 193.9024874999971,
          "velocity": 0.6456692913385826,
          "duration": 0.24390249999999014
        },
        {
          "name": "A2",
          "midi": 45,
          "time": 194.0244387499971,
          "velocity": 0.6456692913385826,
          "duration": 0.24390249999999014
        },
        {
          "name": "G3",
          "midi": 55,
          "time": 194.1463899999971,
          "velocity": 0.6456692913385826,
          "duration": 0.24390249999999014
        },
        {
          "name": "A2",
          "midi": 45,
          "time": 194.2683412499971,
          "velocity": 0.7637795275590551,
          "duration": 0.3658537499999852
        },
        {
          "name": "G3",
          "midi": 55,
          "time": 194.3902924999971,
          "velocity": 0.6456692913385826,
          "duration": 0.24390249999999014
        },
        {
          "name": "G3",
          "midi": 55,
          "time": 194.63419499999708,
          "velocity": 0.6456692913385826,
          "duration": 0.4878050000000087
        },
        {
          "name": "A2",
          "midi": 45,
          "time": 194.63419499999708,
          "velocity": 0.6456692913385826,
          "duration": 0.4878050000000087
        },
        {
          "name": "G#2",
          "midi": 44,
          "time": 195.1219999999971,
          "velocity": 0.6456692913385826,
          "duration": 0.24390249999999014
        },
        {
          "name": "G3",
          "midi": 55,
          "time": 195.1219999999971,
          "velocity": 0.6456692913385826,
          "duration": 0.24390249999999014
        },
        {
          "name": "G#2",
          "midi": 44,
          "time": 195.36590249999708,
          "velocity": 0.6456692913385826,
          "duration": 0.3658537499999852
        },
        {
          "name": "G3",
          "midi": 55,
          "time": 195.48785374999707,
          "velocity": 0.6456692913385826,
          "duration": 0.24390249999999014
        },
        {
          "name": "G2",
          "midi": 43,
          "time": 195.73175624999706,
          "velocity": 0.6456692913385826,
          "duration": 0.24390249999999014
        },
        {
          "name": "F3",
          "midi": 53,
          "time": 195.85370749999706,
          "velocity": 0.6456692913385826,
          "duration": 0.24390249999999014
        },
        {
          "name": "G2",
          "midi": 43,
          "time": 195.97565874999705,
          "velocity": 0.6456692913385826,
          "duration": 0.24390249999999014
        },
        {
          "name": "F3",
          "midi": 53,
          "time": 196.09760999999705,
          "velocity": 0.6456692913385826,
          "duration": 0.24390249999999014
        },
        {
          "name": "G2",
          "midi": 43,
          "time": 196.21956124999704,
          "velocity": 0.7637795275590551,
          "duration": 0.3658537499999852
        },
        {
          "name": "F3",
          "midi": 53,
          "time": 196.34151249999704,
          "velocity": 0.6456692913385826,
          "duration": 0.24390249999999014
        },
        {
          "name": "F3",
          "midi": 53,
          "time": 196.58541499999703,
          "velocity": 0.6456692913385826,
          "duration": 0.4878050000000087
        },
        {
          "name": "G2",
          "midi": 43,
          "time": 196.58541499999703,
          "velocity": 0.6456692913385826,
          "duration": 0.4878050000000087
        },
        {
          "name": "A3",
          "midi": 57,
          "time": 197.07321999999704,
          "velocity": 0.6456692913385826,
          "duration": 0.24390249999999014
        },
        {
          "name": "A#2",
          "midi": 46,
          "time": 197.07321999999704,
          "velocity": 0.6456692913385826,
          "duration": 0.24390249999999014
        },
        {
          "name": "A#2",
          "midi": 46,
          "time": 197.31712249999703,
          "velocity": 0.6456692913385826,
          "duration": 0.3658537499999852
        },
        {
          "name": "A3",
          "midi": 57,
          "time": 197.43907374999702,
          "velocity": 0.6456692913385826,
          "duration": 0.24390249999999014
        },
        {
          "name": "A2",
          "midi": 45,
          "time": 197.682976249997,
          "velocity": 0.6456692913385826,
          "duration": 0.24390249999999014
        },
        {
          "name": "G3",
          "midi": 55,
          "time": 197.804927499997,
          "velocity": 0.6456692913385826,
          "duration": 0.24390249999999014
        },
        {
          "name": "A2",
          "midi": 45,
          "time": 197.926878749997,
          "velocity": 0.6456692913385826,
          "duration": 0.24390249999999014
        },
        {
          "name": "G3",
          "midi": 55,
          "time": 198.048829999997,
          "velocity": 0.6456692913385826,
          "duration": 0.24390249999999014
        },
        {
          "name": "A2",
          "midi": 45,
          "time": 198.170781249997,
          "velocity": 0.7637795275590551,
          "duration": 0.3658537499999852
        },
        {
          "name": "G3",
          "midi": 55,
          "time": 198.292732499997,
          "velocity": 0.6456692913385826,
          "duration": 0.24390249999999014
        },
        {
          "name": "G3",
          "midi": 55,
          "time": 198.53663499999698,
          "velocity": 0.6456692913385826,
          "duration": 0.4878050000000087
        },
        {
          "name": "A2",
          "midi": 45,
          "time": 198.53663499999698,
          "velocity": 0.6456692913385826,
          "duration": 0.4878050000000087
        },
        {
          "name": "G#2",
          "midi": 44,
          "time": 199.02443999999699,
          "velocity": 0.6456692913385826,
          "duration": 0.24390249999999014
        },
        {
          "name": "G3",
          "midi": 55,
          "time": 199.02443999999699,
          "velocity": 0.6456692913385826,
          "duration": 0.24390249999999014
        },
        {
          "name": "G#2",
          "midi": 44,
          "time": 199.26834249999698,
          "velocity": 0.6456692913385826,
          "duration": 0.3658537499999852
        },
        {
          "name": "G3",
          "midi": 55,
          "time": 199.39029374999697,
          "velocity": 0.6456692913385826,
          "duration": 0.24390249999999014
        },
        {
          "name": "G2",
          "midi": 43,
          "time": 199.63419624999696,
          "velocity": 0.6456692913385826,
          "duration": 0.24390249999999014
        },
        {
          "name": "F3",
          "midi": 53,
          "time": 199.75614749999696,
          "velocity": 0.6456692913385826,
          "duration": 0.24390249999999014
        },
        {
          "name": "G2",
          "midi": 43,
          "time": 199.87809874999695,
          "velocity": 0.6456692913385826,
          "duration": 0.24390249999999014
        },
        {
          "name": "F3",
          "midi": 53,
          "time": 200.00004999999695,
          "velocity": 0.6456692913385826,
          "duration": 0.24390249999999014
        },
        {
          "name": "G2",
          "midi": 43,
          "time": 200.12200124999694,
          "velocity": 0.7637795275590551,
          "duration": 0.3658537499999852
        },
        {
          "name": "F3",
          "midi": 53,
          "time": 200.24395249999694,
          "velocity": 0.6456692913385826,
          "duration": 0.24390249999999014
        },
        {
          "name": "F3",
          "midi": 53,
          "time": 200.48785499999693,
          "velocity": 0.6456692913385826,
          "duration": 0.4878050000000087
        },
        {
          "name": "G2",
          "midi": 43,
          "time": 200.48785499999693,
          "velocity": 0.6456692913385826,
          "duration": 0.4878050000000087
        },
        {
          "name": "A3",
          "midi": 57,
          "time": 200.97565999999694,
          "velocity": 0.6456692913385826,
          "duration": 0.24390249999999014
        },
        {
          "name": "A#2",
          "midi": 46,
          "time": 200.97565999999694,
          "velocity": 0.6456692913385826,
          "duration": 0.24390249999999014
        },
        {
          "name": "A#2",
          "midi": 46,
          "time": 201.21956249999693,
          "velocity": 0.6456692913385826,
          "duration": 0.3658537499999852
        },
        {
          "name": "A3",
          "midi": 57,
          "time": 201.34151374999692,
          "velocity": 0.6456692913385826,
          "duration": 0.24390249999999014
        },
        {
          "name": "A2",
          "midi": 45,
          "time": 201.5854162499969,
          "velocity": 0.6456692913385826,
          "duration": 0.24390249999999014
        },
        {
          "name": "G3",
          "midi": 55,
          "time": 201.7073674999969,
          "velocity": 0.6456692913385826,
          "duration": 0.24390249999999014
        },
        {
          "name": "A2",
          "midi": 45,
          "time": 201.8293187499969,
          "velocity": 0.6456692913385826,
          "duration": 0.24390249999999014
        },
        {
          "name": "G3",
          "midi": 55,
          "time": 201.9512699999969,
          "velocity": 0.6456692913385826,
          "duration": 0.24390249999999014
        },
        {
          "name": "A2",
          "midi": 45,
          "time": 202.0732212499969,
          "velocity": 0.7637795275590551,
          "duration": 0.3658537499999852
        },
        {
          "name": "G3",
          "midi": 55,
          "time": 202.1951724999969,
          "velocity": 0.6456692913385826,
          "duration": 0.24390249999999014
        },
        {
          "name": "G3",
          "midi": 55,
          "time": 202.43907499999688,
          "velocity": 0.6456692913385826,
          "duration": 0.4878050000000087
        },
        {
          "name": "A2",
          "midi": 45,
          "time": 202.43907499999688,
          "velocity": 0.6456692913385826,
          "duration": 0.4878050000000087
        },
        {
          "name": "G#2",
          "midi": 44,
          "time": 202.92687999999688,
          "velocity": 0.6456692913385826,
          "duration": 0.24390249999999014
        },
        {
          "name": "G3",
          "midi": 55,
          "time": 202.92687999999688,
          "velocity": 0.6456692913385826,
          "duration": 0.24390249999999014
        },
        {
          "name": "G#2",
          "midi": 44,
          "time": 203.17078249999688,
          "velocity": 0.6456692913385826,
          "duration": 0.3658537499999852
        },
        {
          "name": "G3",
          "midi": 55,
          "time": 203.29273374999687,
          "velocity": 0.6456692913385826,
          "duration": 0.24390249999999014
        },
        {
          "name": "G2",
          "midi": 43,
          "time": 203.53663624999686,
          "velocity": 0.6456692913385826,
          "duration": 0.24390249999999014
        },
        {
          "name": "F3",
          "midi": 53,
          "time": 203.65858749999686,
          "velocity": 0.6456692913385826,
          "duration": 0.24390249999999014
        },
        {
          "name": "G2",
          "midi": 43,
          "time": 203.78053874999685,
          "velocity": 0.6456692913385826,
          "duration": 0.24390249999999014
        },
        {
          "name": "F3",
          "midi": 53,
          "time": 203.90248999999685,
          "velocity": 0.6456692913385826,
          "duration": 0.24390249999999014
        },
        {
          "name": "G2",
          "midi": 43,
          "time": 204.02444124999684,
          "velocity": 0.7637795275590551,
          "duration": 0.3658537499999852
        },
        {
          "name": "F3",
          "midi": 53,
          "time": 204.14639249999684,
          "velocity": 0.6456692913385826,
          "duration": 0.24390249999999014
        },
        {
          "name": "F3",
          "midi": 53,
          "time": 204.39029499999683,
          "velocity": 0.6456692913385826,
          "duration": 0.4878050000000087
        },
        {
          "name": "G2",
          "midi": 43,
          "time": 204.39029499999683,
          "velocity": 0.6456692913385826,
          "duration": 0.4878050000000087
        },
        {
          "name": "A3",
          "midi": 57,
          "time": 204.87809999999683,
          "velocity": 0.6456692913385826,
          "duration": 0.24390249999999014
        },
        {
          "name": "A#2",
          "midi": 46,
          "time": 204.87809999999683,
          "velocity": 0.6456692913385826,
          "duration": 0.24390249999999014
        },
        {
          "name": "A#2",
          "midi": 46,
          "time": 205.12200249999682,
          "velocity": 0.6456692913385826,
          "duration": 0.3658537499999852
        },
        {
          "name": "A3",
          "midi": 57,
          "time": 205.24395374999682,
          "velocity": 0.6456692913385826,
          "duration": 0.24390249999999014
        },
        {
          "name": "A2",
          "midi": 45,
          "time": 205.4878562499968,
          "velocity": 0.6456692913385826,
          "duration": 0.24390249999999014
        },
        {
          "name": "G3",
          "midi": 55,
          "time": 205.6098074999968,
          "velocity": 0.6456692913385826,
          "duration": 0.24390249999999014
        },
        {
          "name": "A2",
          "midi": 45,
          "time": 205.7317587499968,
          "velocity": 0.6456692913385826,
          "duration": 0.24390249999999014
        },
        {
          "name": "G3",
          "midi": 55,
          "time": 205.8537099999968,
          "velocity": 0.6456692913385826,
          "duration": 0.24390249999999014
        },
        {
          "name": "A2",
          "midi": 45,
          "time": 205.9756612499968,
          "velocity": 0.7637795275590551,
          "duration": 0.3658537499999852
        },
        {
          "name": "G3",
          "midi": 55,
          "time": 206.09761249999679,
          "velocity": 0.6456692913385826,
          "duration": 0.24390249999999014
        },
        {
          "name": "G3",
          "midi": 55,
          "time": 206.34151499999678,
          "velocity": 0.6456692913385826,
          "duration": 0.4878050000000087
        },
        {
          "name": "A2",
          "midi": 45,
          "time": 206.34151499999678,
          "velocity": 0.6456692913385826,
          "duration": 0.4878050000000087
        },
        {
          "name": "G#2",
          "midi": 44,
          "time": 206.82931999999678,
          "velocity": 0.6456692913385826,
          "duration": 0.24390249999999014
        },
        {
          "name": "G3",
          "midi": 55,
          "time": 206.82931999999678,
          "velocity": 0.6456692913385826,
          "duration": 0.24390249999999014
        },
        {
          "name": "G#2",
          "midi": 44,
          "time": 207.07322249999677,
          "velocity": 0.6456692913385826,
          "duration": 0.3658537499999852
        },
        {
          "name": "G3",
          "midi": 55,
          "time": 207.19517374999677,
          "velocity": 0.6456692913385826,
          "duration": 0.24390249999999014
        },
        {
          "name": "G2",
          "midi": 43,
          "time": 207.43907624999676,
          "velocity": 0.6456692913385826,
          "duration": 0.24390249999999014
        },
        {
          "name": "F3",
          "midi": 53,
          "time": 207.56102749999675,
          "velocity": 0.6456692913385826,
          "duration": 0.24390249999999014
        },
        {
          "name": "G2",
          "midi": 43,
          "time": 207.68297874999675,
          "velocity": 0.6456692913385826,
          "duration": 0.24390249999999014
        },
        {
          "name": "F3",
          "midi": 53,
          "time": 207.80492999999674,
          "velocity": 0.6456692913385826,
          "duration": 0.24390249999999014
        },
        {
          "name": "G2",
          "midi": 43,
          "time": 207.92688124999674,
          "velocity": 0.7637795275590551,
          "duration": 0.3658537499999852
        },
        {
          "name": "F3",
          "midi": 53,
          "time": 208.04883249999673,
          "velocity": 0.6456692913385826,
          "duration": 0.24390249999999014
        },
        {
          "name": "F3",
          "midi": 53,
          "time": 208.29273499999672,
          "velocity": 0.6456692913385826,
          "duration": 0.4878050000000087
        },
        {
          "name": "G2",
          "midi": 43,
          "time": 208.29273499999672,
          "velocity": 0.6456692913385826,
          "duration": 0.4878050000000087
        },
        {
          "name": "A3",
          "midi": 57,
          "time": 208.78053999999673,
          "velocity": 0.6456692913385826,
          "duration": 0.24390249999999014
        },
        {
          "name": "A#2",
          "midi": 46,
          "time": 208.78053999999673,
          "velocity": 0.6456692913385826,
          "duration": 0.24390249999999014
        },
        {
          "name": "A#2",
          "midi": 46,
          "time": 209.02444249999672,
          "velocity": 0.6456692913385826,
          "duration": 0.3658537499999852
        },
        {
          "name": "A3",
          "midi": 57,
          "time": 209.14639374999672,
          "velocity": 0.6456692913385826,
          "duration": 0.24390249999999014
        },
        {
          "name": "A2",
          "midi": 45,
          "time": 209.3902962499967,
          "velocity": 0.6456692913385826,
          "duration": 0.24390249999999014
        },
        {
          "name": "G3",
          "midi": 55,
          "time": 209.5122474999967,
          "velocity": 0.6456692913385826,
          "duration": 0.24390249999999014
        },
        {
          "name": "A2",
          "midi": 45,
          "time": 209.6341987499967,
          "velocity": 0.6456692913385826,
          "duration": 0.24390249999999014
        },
        {
          "name": "G3",
          "midi": 55,
          "time": 209.7561499999967,
          "velocity": 0.6456692913385826,
          "duration": 0.24390249999999014
        },
        {
          "name": "A2",
          "midi": 45,
          "time": 209.8781012499967,
          "velocity": 0.7637795275590551,
          "duration": 0.3658537499999852
        },
        {
          "name": "G3",
          "midi": 55,
          "time": 210.00005249999668,
          "velocity": 0.6456692913385826,
          "duration": 0.24390249999999014
        },
        {
          "name": "G3",
          "midi": 55,
          "time": 210.24395499999667,
          "velocity": 0.6456692913385826,
          "duration": 0.4878050000000087
        },
        {
          "name": "A2",
          "midi": 45,
          "time": 210.24395499999667,
          "velocity": 0.6456692913385826,
          "duration": 0.4878050000000087
        },
        {
          "name": "G#2",
          "midi": 44,
          "time": 210.73175999999668,
          "velocity": 0.6456692913385826,
          "duration": 0.24390249999999014
        },
        {
          "name": "G3",
          "midi": 55,
          "time": 210.73175999999668,
          "velocity": 0.6456692913385826,
          "duration": 0.24390249999999014
        },
        {
          "name": "G#2",
          "midi": 44,
          "time": 210.97566249999667,
          "velocity": 0.6456692913385826,
          "duration": 0.3658537499999852
        },
        {
          "name": "G3",
          "midi": 55,
          "time": 211.09761374999667,
          "velocity": 0.6456692913385826,
          "duration": 0.24390249999999014
        },
        {
          "name": "G2",
          "midi": 43,
          "time": 211.34151624999666,
          "velocity": 0.6456692913385826,
          "duration": 0.24390249999999014
        },
        {
          "name": "F3",
          "midi": 53,
          "time": 211.46346749999665,
          "velocity": 0.6456692913385826,
          "duration": 0.24390249999999014
        },
        {
          "name": "G2",
          "midi": 43,
          "time": 211.58541874999665,
          "velocity": 0.6456692913385826,
          "duration": 0.24390249999999014
        },
        {
          "name": "F3",
          "midi": 53,
          "time": 211.70736999999664,
          "velocity": 0.6456692913385826,
          "duration": 0.24390249999999014
        },
        {
          "name": "G2",
          "midi": 43,
          "time": 211.82932124999664,
          "velocity": 0.7637795275590551,
          "duration": 0.3658537499999852
        },
        {
          "name": "F3",
          "midi": 53,
          "time": 211.95127249999663,
          "velocity": 0.6456692913385826,
          "duration": 0.24390249999999014
        },
        {
          "name": "F3",
          "midi": 53,
          "time": 212.19517499999662,
          "velocity": 0.6456692913385826,
          "duration": 0.4878050000000087
        },
        {
          "name": "G2",
          "midi": 43,
          "time": 212.19517499999662,
          "velocity": 0.6456692913385826,
          "duration": 0.4878050000000087
        },
        {
          "name": "A3",
          "midi": 57,
          "time": 212.68297999999663,
          "velocity": 0.6456692913385826,
          "duration": 0.24390249999999014
        },
        {
          "name": "A#2",
          "midi": 46,
          "time": 212.68297999999663,
          "velocity": 0.6456692913385826,
          "duration": 0.24390249999999014
        },
        {
          "name": "A#2",
          "midi": 46,
          "time": 212.92688249999662,
          "velocity": 0.6456692913385826,
          "duration": 0.3658537499999852
        },
        {
          "name": "A3",
          "midi": 57,
          "time": 213.04883374999662,
          "velocity": 0.6456692913385826,
          "duration": 0.24390249999999014
        },
        {
          "name": "A2",
          "midi": 45,
          "time": 213.2927362499966,
          "velocity": 0.6456692913385826,
          "duration": 0.24390249999999014
        },
        {
          "name": "G3",
          "midi": 55,
          "time": 213.4146874999966,
          "velocity": 0.6456692913385826,
          "duration": 0.24390249999999014
        },
        {
          "name": "A2",
          "midi": 45,
          "time": 213.5366387499966,
          "velocity": 0.6456692913385826,
          "duration": 0.24390249999999014
        },
        {
          "name": "G3",
          "midi": 55,
          "time": 213.6585899999966,
          "velocity": 0.6456692913385826,
          "duration": 0.24390249999999014
        },
        {
          "name": "A2",
          "midi": 45,
          "time": 213.7805412499966,
          "velocity": 0.7637795275590551,
          "duration": 0.3658537499999852
        },
        {
          "name": "G3",
          "midi": 55,
          "time": 213.90249249999658,
          "velocity": 0.6456692913385826,
          "duration": 0.24390249999999014
        },
        {
          "name": "G3",
          "midi": 55,
          "time": 214.14639499999657,
          "velocity": 0.6456692913385826,
          "duration": 0.4878050000000087
        },
        {
          "name": "A2",
          "midi": 45,
          "time": 214.14639499999657,
          "velocity": 0.6456692913385826,
          "duration": 0.4878050000000087
        },
        {
          "name": "G#2",
          "midi": 44,
          "time": 214.63419999999658,
          "velocity": 0.6456692913385826,
          "duration": 0.24390249999999014
        },
        {
          "name": "G3",
          "midi": 55,
          "time": 214.63419999999658,
          "velocity": 0.6456692913385826,
          "duration": 0.24390249999999014
        },
        {
          "name": "G#2",
          "midi": 44,
          "time": 214.87810249999657,
          "velocity": 0.6456692913385826,
          "duration": 0.3658537499999852
        },
        {
          "name": "G3",
          "midi": 55,
          "time": 215.00005374999657,
          "velocity": 0.6456692913385826,
          "duration": 0.24390249999999014
        },
        {
          "name": "G2",
          "midi": 43,
          "time": 215.24395624999656,
          "velocity": 0.6456692913385826,
          "duration": 0.24390249999999014
        },
        {
          "name": "F3",
          "midi": 53,
          "time": 215.36590749999655,
          "velocity": 0.6456692913385826,
          "duration": 0.24390249999999014
        },
        {
          "name": "G2",
          "midi": 43,
          "time": 215.48785874999655,
          "velocity": 0.6456692913385826,
          "duration": 0.24390249999999014
        },
        {
          "name": "F3",
          "midi": 53,
          "time": 215.60980999999654,
          "velocity": 0.6456692913385826,
          "duration": 0.24390249999999014
        },
        {
          "name": "G2",
          "midi": 43,
          "time": 215.73176124999654,
          "velocity": 0.7637795275590551,
          "duration": 0.3658537499999852
        },
        {
          "name": "F3",
          "midi": 53,
          "time": 215.85371249999653,
          "velocity": 0.6456692913385826,
          "duration": 0.24390249999999014
        },
        {
          "name": "F3",
          "midi": 53,
          "time": 216.09761499999652,
          "velocity": 0.6456692913385826,
          "duration": 0.4878050000000087
        },
        {
          "name": "G2",
          "midi": 43,
          "time": 216.09761499999652,
          "velocity": 0.6456692913385826,
          "duration": 0.4878050000000087
        },
        {
          "name": "A3",
          "midi": 57,
          "time": 216.58541999999653,
          "velocity": 0.6456692913385826,
          "duration": 0.24390249999999014
        },
        {
          "name": "A#2",
          "midi": 46,
          "time": 216.58541999999653,
          "velocity": 0.6456692913385826,
          "duration": 0.24390249999999014
        },
        {
          "name": "A#2",
          "midi": 46,
          "time": 216.82932249999652,
          "velocity": 0.6456692913385826,
          "duration": 0.3658537499999852
        },
        {
          "name": "A3",
          "midi": 57,
          "time": 216.95127374999652,
          "velocity": 0.6456692913385826,
          "duration": 0.24390249999999014
        },
        {
          "name": "A2",
          "midi": 45,
          "time": 217.1951762499965,
          "velocity": 0.6456692913385826,
          "duration": 0.24390249999999014
        },
        {
          "name": "G3",
          "midi": 55,
          "time": 217.3171274999965,
          "velocity": 0.6456692913385826,
          "duration": 0.24390249999999014
        },
        {
          "name": "A2",
          "midi": 45,
          "time": 217.4390787499965,
          "velocity": 0.6456692913385826,
          "duration": 0.24390249999999014
        },
        {
          "name": "G3",
          "midi": 55,
          "time": 217.5610299999965,
          "velocity": 0.6456692913385826,
          "duration": 0.24390249999999014
        },
        {
          "name": "A2",
          "midi": 45,
          "time": 217.6829812499965,
          "velocity": 0.7637795275590551,
          "duration": 0.3658537499999852
        },
        {
          "name": "G3",
          "midi": 55,
          "time": 217.80493249999648,
          "velocity": 0.6456692913385826,
          "duration": 0.24390249999999014
        },
        {
          "name": "G3",
          "midi": 55,
          "time": 218.04883499999647,
          "velocity": 0.6456692913385826,
          "duration": 0.4878050000000087
        },
        {
          "name": "A2",
          "midi": 45,
          "time": 218.04883499999647,
          "velocity": 0.6456692913385826,
          "duration": 0.4878050000000087
        },
        {
          "name": "G#2",
          "midi": 44,
          "time": 218.53663999999648,
          "velocity": 0.6456692913385826,
          "duration": 0.24390249999999014
        },
        {
          "name": "G3",
          "midi": 55,
          "time": 218.53663999999648,
          "velocity": 0.6456692913385826,
          "duration": 0.24390249999999014
        },
        {
          "name": "G#2",
          "midi": 44,
          "time": 218.78054249999647,
          "velocity": 0.6456692913385826,
          "duration": 0.3658537499999852
        },
        {
          "name": "G3",
          "midi": 55,
          "time": 218.90249374999647,
          "velocity": 0.6456692913385826,
          "duration": 0.24390249999999014
        },
        {
          "name": "G2",
          "midi": 43,
          "time": 219.14639624999646,
          "velocity": 0.6456692913385826,
          "duration": 0.24390249999999014
        },
        {
          "name": "F3",
          "midi": 53,
          "time": 219.26834749999645,
          "velocity": 0.6456692913385826,
          "duration": 0.24390249999999014
        },
        {
          "name": "G2",
          "midi": 43,
          "time": 219.39029874999645,
          "velocity": 0.6456692913385826,
          "duration": 0.24390249999999014
        },
        {
          "name": "F3",
          "midi": 53,
          "time": 219.51224999999644,
          "velocity": 0.6456692913385826,
          "duration": 0.24390249999999014
        },
        {
          "name": "G2",
          "midi": 43,
          "time": 219.63420124999644,
          "velocity": 0.7637795275590551,
          "duration": 0.3658537499999852
        },
        {
          "name": "F3",
          "midi": 53,
          "time": 219.75615249999643,
          "velocity": 0.6456692913385826,
          "duration": 0.24390249999999014
        },
        {
          "name": "F3",
          "midi": 53,
          "time": 220.00005499999642,
          "velocity": 0.6456692913385826,
          "duration": 0.4878050000000087
        },
        {
          "name": "G2",
          "midi": 43,
          "time": 220.00005499999642,
          "velocity": 0.6456692913385826,
          "duration": 0.4878050000000087
        },
        {
          "name": "A3",
          "midi": 57,
          "time": 220.48785999999643,
          "velocity": 0.6456692913385826,
          "duration": 0.7317074999999988
        },
        {
          "name": "A#2",
          "midi": 46,
          "time": 220.48785999999643,
          "velocity": 0.6456692913385826,
          "duration": 0.7317074999999988
        },
        {
          "name": "A2",
          "midi": 45,
          "time": 221.21956749999643,
          "velocity": 0.6456692913385826,
          "duration": 1.2195125000000075
        },
        {
          "name": "G3",
          "midi": 55,
          "time": 221.21956749999643,
          "velocity": 0.6456692913385826,
          "duration": 1.2195125000000075
        },
        {
          "name": "G#2",
          "midi": 44,
          "time": 222.43907999999644,
          "velocity": 0.6456692913385826,
          "duration": 0.7317074999999988
        },
        {
          "name": "G3",
          "midi": 55,
          "time": 222.43907999999644,
          "velocity": 0.6456692913385826,
          "duration": 0.7317074999999988
        },
        {
          "name": "G2",
          "midi": 43,
          "time": 223.17078749999644,
          "velocity": 0.6456692913385826,
          "duration": 1.2195125000000075
        },
        {
          "name": "F3",
          "midi": 53,
          "time": 223.17078749999644,
          "velocity": 0.6456692913385826,
          "duration": 1.2195125000000075
        },
        {
          "name": "A3",
          "midi": 57,
          "time": 224.39029999999644,
          "velocity": 0.6456692913385826,
          "duration": 0.7317074999999988
        },
        {
          "name": "A#2",
          "midi": 46,
          "time": 224.39029999999644,
          "velocity": 0.6456692913385826,
          "duration": 0.7317074999999988
        },
        {
          "name": "G3",
          "midi": 55,
          "time": 225.12200749999644,
          "velocity": 0.6456692913385826,
          "duration": 1.2195125000000075
        },
        {
          "name": "A2",
          "midi": 45,
          "time": 225.12200749999644,
          "velocity": 0.6456692913385826,
          "duration": 1.2195125000000075
        },
        {
          "name": "G#2",
          "midi": 44,
          "time": 226.34151999999645,
          "velocity": 0.6456692913385826,
          "duration": 0.7317074999999988
        },
        {
          "name": "G3",
          "midi": 55,
          "time": 226.34151999999645,
          "velocity": 0.6456692913385826,
          "duration": 0.7317074999999988
        },
        {
          "name": "F3",
          "midi": 53,
          "time": 227.07322749999645,
          "velocity": 0.6456692913385826,
          "duration": 1.2195125000000075
        },
        {
          "name": "G2",
          "midi": 43,
          "time": 227.07322749999645,
          "velocity": 0.6456692913385826,
          "duration": 1.2195125000000075
        },
        {
          "name": "A4",
          "midi": 69,
          "time": 228.29273999999646,
          "velocity": 0.6456692913385826,
          "duration": 0.7317074999999988
        },
        {
          "name": "A#3",
          "midi": 58,
          "time": 228.29273999999646,
          "velocity": 0.6456692913385826,
          "duration": 0.7317074999999988
        },
        {
          "name": "A3",
          "midi": 57,
          "time": 229.02444749999646,
          "velocity": 0.6456692913385826,
          "duration": 1.2195125000000075
        },
        {
          "name": "G4",
          "midi": 67,
          "time": 229.02444749999646,
          "velocity": 0.6456692913385826,
          "duration": 1.2195125000000075
        },
        {
          "name": "G#3",
          "midi": 56,
          "time": 230.24395999999646,
          "velocity": 0.6456692913385826,
          "duration": 0.7317074999999988
        },
        {
          "name": "G4",
          "midi": 67,
          "time": 230.24395999999646,
          "velocity": 0.6456692913385826,
          "duration": 0.7317074999999988
        },
        {
          "name": "G3",
          "midi": 55,
          "time": 230.97566749999646,
          "velocity": 0.6456692913385826,
          "duration": 1.2195125000000075
        },
        {
          "name": "F4",
          "midi": 65,
          "time": 230.97566749999646,
          "velocity": 0.6456692913385826,
          "duration": 1.2195125000000075
        },
        {
          "name": "A4",
          "midi": 69,
          "time": 232.19517999999647,
          "velocity": 0.6456692913385826,
          "duration": 0.7317074999999988
        },
        {
          "name": "A#3",
          "midi": 58,
          "time": 232.19517999999647,
          "velocity": 0.6456692913385826,
          "duration": 0.7317074999999988
        },
        {
          "name": "G4",
          "midi": 67,
          "time": 232.92688749999647,
          "velocity": 0.6456692913385826,
          "duration": 1.2195125000000075
        },
        {
          "name": "A3",
          "midi": 57,
          "time": 232.92688749999647,
          "velocity": 0.6456692913385826,
          "duration": 1.2195125000000075
        },
        {
          "name": "G#3",
          "midi": 56,
          "time": 234.14639999999648,
          "velocity": 0.6456692913385826,
          "duration": 0.7317074999999988
        },
        {
          "name": "G4",
          "midi": 67,
          "time": 234.14639999999648,
          "velocity": 0.6456692913385826,
          "duration": 0.7317074999999988
        },
        {
          "name": "F4",
          "midi": 65,
          "time": 234.87810749999647,
          "velocity": 0.6456692913385826,
          "duration": 1.2195125000000075
        },
        {
          "name": "G3",
          "midi": 55,
          "time": 234.87810749999647,
          "velocity": 0.6456692913385826,
          "duration": 1.2195125000000075
        },
        {
          "name": "D3",
          "midi": 50,
          "time": 236.09761999999648,
          "velocity": 0.6456692913385826,
          "duration": 7.804879999999997
        },
        {
          "name": "C4",
          "midi": 60,
          "time": 236.09761999999648,
          "velocity": 0.6456692913385826,
          "duration": 7.804879999999997
        }
      ],
      "controlChanges": {
        "6": [
          {
            "number": 6,
            "time": 0,
            "value": 0.09448818897637795
          },
          {
            "number": 6,
            "time": 0,
            "value": 0.09448818897637795
          },
          {
            "number": 6,
            "time": 243.90249999999648,
            "value": 0.09448818897637795
          },
          {
            "number": 6,
            "time": 243.91266260416316,
            "value": 0.09448818897637795
          },
          {
            "number": 6,
            "time": 243.91266260416316,
            "value": 0.09448818897637795
          }
        ],
        "7": [
          {
            "number": 7,
            "time": 0,
            "value": 0.7874015748031497
          },
          {
            "number": 7,
            "time": 0,
            "value": 0.7874015748031497
          },
          {
            "number": 7,
            "time": 0,
            "value": 0.7874015748031497
          },
          {
            "number": 7,
            "time": 243.90249999999648,
            "value": 0.7874015748031497
          },
          {
            "number": 7,
            "time": 243.91266260416316,
            "value": 0.7874015748031497
          },
          {
            "number": 7,
            "time": 243.91266260416316,
            "value": 0.7874015748031497
          }
        ],
        "10": [
          {
            "number": 10,
            "time": 0,
            "value": 0.5039370078740157
          },
          {
            "number": 10,
            "time": 0,
            "value": 0.5039370078740157
          },
          {
            "number": 10,
            "time": 0,
            "value": 0.5039370078740157
          },
          {
            "number": 10,
            "time": 243.90249999999648,
            "value": 0.5039370078740157
          },
          {
            "number": 10,
            "time": 243.91266260416316,
            "value": 0.5039370078740157
          },
          {
            "number": 10,
            "time": 243.91266260416316,
            "value": 0.5039370078740157
          }
        ],
        "100": [
          {
            "number": 100,
            "time": 0,
            "value": 0
          },
          {
            "number": 100,
            "time": 0,
            "value": 0
          },
          {
            "number": 100,
            "time": 243.90249999999648,
            "value": 0
          },
          {
            "number": 100,
            "time": 243.91266260416316,
            "value": 0
          },
          {
            "number": 100,
            "time": 243.91266260416316,
            "value": 0
          }
        ],
        "101": [
          {
            "number": 101,
            "time": 0,
            "value": 0
          },
          {
            "number": 101,
            "time": 0,
            "value": 0
          },
          {
            "number": 101,
            "time": 243.90249999999648,
            "value": 0
          },
          {
            "number": 101,
            "time": 243.91266260416316,
            "value": 0
          },
          {
            "number": 101,
            "time": 243.91266260416316,
            "value": 0
          }
        ]
      },
      "id": 3,
      "name": "Left Hand",
      "channelNumber": 1,
      "isPercussion": false
    }
  ]
}