{
  "header": {
    "PPQ": 480,
    "timeSignature": [
      4,
      4
    ],
    "bpm": 120,
    "name": ""
  },
  "startTime": 0,
  "duration": 163.99270833333324,
  "tracks": [
    {
      "startTime": 0,
      "duration": 163.99270833333324,
      "length": 987,
      "notes": [
        {
          "name": "D4",
          "midi": 62,
          "time": 0,
          "velocity": 0.5039370078740157,
          "duration": 0.11770833333333333
        },
        {
          "name": "D4",
          "midi": 62,
          "time": 0.125,
          "velocity": 0.5039370078740157,
          "duration": 0.11770833333333333
        },
        {
          "name": "D5",
          "midi": 74,
          "time": 0.25,
          "velocity": 0.5039370078740157,
          "duration": 0.12395833333333334
        },
        {
          "name": "A4",
          "midi": 69,
          "time": 0.5,
          "velocity": 0.5039370078740157,
          "duration": 0.1864583333333334
        },
        {
          "name": "G#4",
          "midi": 68,
          "time": 0.875,
          "velocity": 0.5039370078740157,
          "duration": 0.1177083333333333
        },
        {
          "name": "G4",
          "midi": 67,
          "time": 1.125,
          "velocity": 0.5039370078740157,
          "duration": 0.12395833333333339
        },
        {
          "name": "F4",
          "midi": 65,
          "time": 1.375,
          "velocity": 0.5039370078740157,
          "duration": 0.23645833333333321
        },
        {
          "name": "D4",
          "midi": 62,
          "time": 1.6249999999999998,
          "velocity": 0.5039370078740157,
          "duration": 0.1177083333333333
        },
        {
          "name": "F4",
          "midi": 65,
          "time": 1.7499999999999998,
          "velocity": 0.5039370078740157,
          "duration": 0.1177083333333333
        },
        {
          "name": "G4",
          "midi": 67,
          "time": 1.8749999999999998,
          "velocity": 0.5039370078740157,
          "duration": 0.1177083333333333
        },
        {
          "name": "C4",
          "midi": 60,
          "time": 1.9999999999999998,
          "velocity": 0.5039370078740157,
          "duration": 0.11770833333333353
        },
        {
          "name": "C4",
          "midi": 60,
          "time": 2.125,
          "velocity": 0.5039370078740157,
          "duration": 0.1177083333333333
        },
        {
          "name": "D5",
          "midi": 74,
          "time": 2.25,
          "velocity": 0.5039370078740157,
          "duration": 0.12395833333333339
        },
        {
          "name": "A4",
          "midi": 69,
          "time": 2.5,
          "velocity": 0.5039370078740157,
          "duration": 0.1864583333333334
        },
        {
          "name": "G#4",
          "midi": 68,
          "time": 2.875,
          "velocity": 0.5039370078740157,
          "duration": 0.1177083333333333
        },
        {
          "name": "G4",
          "midi": 67,
          "time": 3.125,
          "velocity": 0.5039370078740157,
          "duration": 0.12395833333333339
        },
        {
          "name": "F4",
          "midi": 65,
          "time": 3.375,
          "velocity": 0.5039370078740157,
          "duration": 0.23645833333333321
        },
        {
          "name": "D4",
          "midi": 62,
          "time": 3.625,
          "velocity": 0.5039370078740157,
          "duration": 0.1177083333333333
        },
        {
          "name": "F4",
          "midi": 65,
          "time": 3.75,
          "velocity": 0.5039370078740157,
          "duration": 0.1177083333333333
        },
        {
          "name": "G4",
          "midi": 67,
          "time": 3.875,
          "velocity": 0.5039370078740157,
          "duration": 0.1177083333333333
        },
        {
          "name": "B3",
          "midi": 59,
          "time": 4,
          "velocity": 0.5039370078740157,
          "duration": 0.11770833333333375
        },
        {
          "name": "B3",
          "midi": 59,
          "time": 4.125,
          "velocity": 0.5039370078740157,
          "duration": 0.11770833333333375
        },
        {
          "name": "D5",
          "midi": 74,
          "time": 4.25,
          "velocity": 0.5039370078740157,
          "duration": 0.12395833333333339
        },
        {
          "name": "A4",
          "midi": 69,
          "time": 4.5,
          "velocity": 0.5039370078740157,
          "duration": 0.1864583333333334
        },
        {
          "name": "G#4",
          "midi": 68,
          "time": 4.875,
          "velocity": 0.5039370078740157,
          "duration": 0.11770833333333375
        },
        {
          "name": "G4",
          "midi": 67,
          "time": 5.125,
          "velocity": 0.5039370078740157,
          "duration": 0.12395833333333339
        },
        {
          "name": "F4",
          "midi": 65,
          "time": 5.375,
          "velocity": 0.5039370078740157,
          "duration": 0.23645833333333321
        },
        {
          "name": "D4",
          "midi": 62,
          "time": 5.625,
          "velocity": 0.5039370078740157,
          "duration": 0.11770833333333375
        },
        {
          "name": "F4",
          "midi": 65,
          "time": 5.75,
          "velocity": 0.5039370078740157,
          "duration": 0.11770833333333375
        },
        {
          "name": "G4",
          "midi": 67,
          "time": 5.875,
          "velocity": 0.5039370078740157,
          "duration": 0.11770833333333375
        },
        {
          "name": "A#3",
          "midi": 58,
          "time": 6,
          "velocity": 0.5039370078740157,
          "duration": 0.11770833333333375
        },
        {
          "name": "A#3",
          "midi": 58,
          "time": 6.125,
          "velocity": 0.5039370078740157,
          "duration": 0.11770833333333375
        },
        {
          "name": "D5",
          "midi": 74,
          "time": 6.25,
          "velocity": 0.5039370078740157,
          "duration": 0.12395833333333339
        },
        {
          "name": "A4",
          "midi": 69,
          "time": 6.5,
          "velocity": 0.5039370078740157,
          "duration": 0.1864583333333334
        },
        {
          "name": "G#4",
          "midi": 68,
          "time": 6.875,
          "velocity": 0.5039370078740157,
          "duration": 0.11770833333333375
        },
        {
          "name": "G4",
          "midi": 67,
          "time": 7.125,
          "velocity": 0.5039370078740157,
          "duration": 0.12395833333333339
        },
        {
          "name": "F4",
          "midi": 65,
          "time": 7.375,
          "velocity": 0.5039370078740157,
          "duration": 0.23645833333333321
        },
        {
          "name": "D4",
          "midi": 62,
          "time": 7.625,
          "velocity": 0.5039370078740157,
          "duration": 0.11770833333333375
        },
        {
          "name": "F4",
          "midi": 65,
          "time": 7.75,
          "velocity": 0.5039370078740157,
          "duration": 0.11770833333333375
        },
        {
          "name": "G4",
          "midi": 67,
          "time": 7.875,
          "velocity": 0.5039370078740157,
          "duration": 0.11770833333333375
        },
        {
          "name": "D4",
          "midi": 62,
          "time": 8,
          "velocity": 0.5039370078740157,
          "duration": 0.11770833333333286
        },
        {
          "name": "D4",
          "midi": 62,
          "time": 8.125,
          "velocity": 0.5039370078740157,
          "duration": 0.11770833333333286
        },
        {
          "name": "D5",
          "midi": 74,
          "time": 8.25,
          "velocity": 0.5039370078740157,
          "duration": 0.1239583333333325
        },
        {
          "name": "A4",
          "midi": 69,
          "time": 8.5,
          "velocity": 0.5039370078740157,
          "duration": 0.1864583333333325
        },
        {
          "name": "G#4",
          "midi": 68,
          "time": 8.875,
          "velocity": 0.5039370078740157,
          "duration": 0.11770833333333286
        },
        {
          "name": "G4",
          "midi": 67,
          "time": 9.125,
          "velocity": 0.5039370078740157,
          "duration": 0.1239583333333325
        },
        {
          "name": "F4",
          "midi": 65,
          "time": 9.375,
          "velocity": 0.5039370078740157,
          "duration": 0.23645833333333321
        },
        {
          "name": "D4",
          "midi": 62,
          "time": 9.625,
          "velocity": 0.5039370078740157,
          "duration": 0.11770833333333286
        },
        {
          "name": "F4",
          "midi": 65,
          "time": 9.75,
          "velocity": 0.5039370078740157,
          "duration": 0.11770833333333286
        },
        {
          "name": "G4",
          "midi": 67,
          "time": 9.875,
          "velocity": 0.5039370078740157,
          "duration": 0.11770833333333286
        },
        {
          "name": "C4",
          "midi": 60,
          "time": 10,
          "velocity": 0.5039370078740157,
          "duration": 0.11770833333333286
        },
        {
          "name": "C4",
          "midi": 60,
          "time": 10.125,
          "velocity": 0.5039370078740157,
          "duration": 0.11770833333333286
        },
        {
          "name": "D5",
          "midi": 74,
          "time": 10.25,
          "velocity": 0.5039370078740157,
          "duration": 0.1239583333333325
        },
        {
          "name": "A4",
          "midi": 69,
          "time": 10.5,
          "velocity": 0.5039370078740157,
          "duration": 0.1864583333333325
        },
        {
          "name": "G#4",
          "midi": 68,
          "time": 10.875,
          "velocity": 0.5039370078740157,
          "duration": 0.11770833333333286
        },
        {
          "name": "G4",
          "midi": 67,
          "time": 11.125,
          "velocity": 0.5039370078740157,
          "duration": 0.1239583333333325
        },
        {
          "name": "F4",
          "midi": 65,
          "time": 11.375,
          "velocity": 0.5039370078740157,
          "duration": 0.23645833333333321
        },
        {
          "name": "D4",
          "midi": 62,
          "time": 11.625,
          "velocity": 0.5039370078740157,
          "duration": 0.11770833333333286
        },
        {
          "name": "F4",
          "midi": 65,
          "time": 11.75,
          "velocity": 0.5039370078740157,
          "duration": 0.11770833333333286
        },
        {
          "name": "G4",
          "midi": 67,
          "time": 11.875,
          "velocity": 0.5039370078740157,
          "duration": 0.11770833333333286
        },
        {
          "name": "B3",
          "midi": 59,
          "time": 12,
          "velocity": 0.5039370078740157,
          "duration": 0.11770833333333286
        },
        {
          "name": "B3",
          "midi": 59,
          "time": 12.125,
          "velocity": 0.5039370078740157,
          "duration": 0.11770833333333286
        },
        {
          "name": "D5",
          "midi": 74,
          "time": 12.25,
          "velocity": 0.5039370078740157,
          "duration": 0.1239583333333325
        },
        {
          "name": "A4",
          "midi": 69,
          "time": 12.5,
          "velocity": 0.5039370078740157,
          "duration": 0.1864583333333325
        },
        {
          "name": "G#4",
          "midi": 68,
          "time": 12.875,
          "velocity": 0.5039370078740157,
          "duration": 0.11770833333333286
        },
        {
          "name": "G4",
          "midi": 67,
          "time": 13.125,
          "velocity": 0.5039370078740157,
          "duration": 0.1239583333333325
        },
        {
          "name": "F4",
          "midi": 65,
          "time": 13.375,
          "velocity": 0.5039370078740157,
          "duration": 0.23645833333333321
        },
        {
          "name": "D4",
          "midi": 62,
          "time": 13.625,
          "velocity": 0.5039370078740157,
          "duration": 0.11770833333333286
        },
        {
          "name": "F4",
          "midi": 65,
          "time": 13.75,
          "velocity": 0.5039370078740157,
          "duration": 0.11770833333333286
        },
        {
          "name": "G4",
          "midi": 67,
          "time": 13.875,
          "velocity": 0.5039370078740157,
          "duration": 0.11770833333333286
        },
        {
          "name": "A#3",
          "midi": 58,
          "time": 14,
          "velocity": 0.5039370078740157,
          "duration": 0.11770833333333286
        },
        {
          "name": "A#3",
          "midi": 58,
          "time": 14.125,
          "velocity": 0.5039370078740157,
          "duration": 0.11770833333333286
        },
        {
          "name": "D5",
          "midi": 74,
          "time": 14.25,
          "velocity": 0.5039370078740157,
          "duration": 0.1239583333333325
        },
        {
          "name": "A4",
          "midi": 69,
          "time": 14.5,
          "velocity": 0.5039370078740157,
          "duration": 0.1864583333333325
        },
        {
          "name": "G#4",
          "midi": 68,
          "time": 14.875,
          "velocity": 0.5039370078740157,
          "duration": 0.11770833333333286
        },
        {
          "name": "G4",
          "midi": 67,
          "time": 15.125,
          "velocity": 0.5039370078740157,
          "duration": 0.1239583333333325
        },
        {
          "name": "F4",
          "midi": 65,
          "time": 15.375,
          "velocity": 0.5039370078740157,
          "duration": 0.23645833333333321
        },
        {
          "name": "D4",
          "midi": 62,
          "time": 15.625,
          "velocity": 0.5039370078740157,
          "duration": 0.11770833333333286
        },
        {
          "name": "F4",
          "midi": 65,
          "time": 15.75,
          "velocity": 0.5039370078740157,
          "duration": 0.11770833333333286
        },
        {
          "name": "G4",
          "midi": 67,
          "time": 15.875,
          "velocity": 0.5039370078740157,
          "duration": 0.11770833333333286
        },
        {
          "name": "D4",
          "midi": 62,
          "time": 16,
          "velocity": 0.7559055118110236,
          "duration": 0.11770833333333286
        },
        {
          "name": "D5",
          "midi": 74,
          "time": 16,
          "velocity": 0.7559055118110236,
          "duration": 0.11770833333333286
        },
        {
          "name": "D4",
          "midi": 62,
          "time": 16.125,
          "velocity": 0.7559055118110236,
          "duration": 0.11770833333333286
        },
        {
          "name": "D5",
          "midi": 74,
          "time": 16.125,
          "velocity": 0.7559055118110236,
          "duration": 0.11770833333333286
        },
        {
          "name": "D5",
          "midi": 74,
          "time": 16.25,
          "velocity": 0.7559055118110236,
          "duration": 0.12395833333333428
        },
        {
          "name": "D6",
          "midi": 86,
          "time": 16.25,
          "velocity": 0.7559055118110236,
          "duration": 0.12395833333333428
        },
        {
          "name": "A4",
          "midi": 69,
          "time": 16.5,
          "velocity": 0.7559055118110236,
          "duration": 0.18645833333333428
        },
        {
          "name": "A5",
          "midi": 81,
          "time": 16.5,
          "velocity": 0.7559055118110236,
          "duration": 0.18645833333333428
        },
        {
          "name": "G#4",
          "midi": 68,
          "time": 16.875,
          "velocity": 0.7559055118110236,
          "duration": 0.11770833333333286
        },
        {
          "name": "G#5",
          "midi": 80,
          "time": 16.875,
          "velocity": 0.7559055118110236,
          "duration": 0.11770833333333286
        },
        {
          "name": "G4",
          "midi": 67,
          "time": 17.125,
          "velocity": 0.7559055118110236,
          "duration": 0.12395833333333428
        },
        {
          "name": "G5",
          "midi": 79,
          "time": 17.125,
          "velocity": 0.7559055118110236,
          "duration": 0.12395833333333428
        },
        {
          "name": "F4",
          "midi": 65,
          "time": 17.375,
          "velocity": 0.7559055118110236,
          "duration": 0.236458333333335
        },
        {
          "name": "F5",
          "midi": 77,
          "time": 17.375,
          "velocity": 0.7559055118110236,
          "duration": 0.236458333333335
        },
        {
          "name": "D4",
          "midi": 62,
          "time": 17.625,
          "velocity": 0.7559055118110236,
          "duration": 0.11770833333333286
        },
        {
          "name": "D5",
          "midi": 74,
          "time": 17.625,
          "velocity": 0.7559055118110236,
          "duration": 0.11770833333333286
        },
        {
          "name": "F4",
          "midi": 65,
          "time": 17.75,
          "velocity": 0.7559055118110236,
          "duration": 0.11770833333333286
        },
        {
          "name": "F5",
          "midi": 77,
          "time": 17.75,
          "velocity": 0.7559055118110236,
          "duration": 0.11770833333333286
        },
        {
          "name": "G4",
          "midi": 67,
          "time": 17.875,
          "velocity": 0.7559055118110236,
          "duration": 0.11770833333333286
        },
        {
          "name": "G5",
          "midi": 79,
          "time": 17.875,
          "velocity": 0.7559055118110236,
          "duration": 0.11770833333333286
        },
        {
          "name": "C4",
          "midi": 60,
          "time": 18,
          "velocity": 0.7559055118110236,
          "duration": 0.11770833333333286
        },
        {
          "name": "C5",
          "midi": 72,
          "time": 18,
          "velocity": 0.7559055118110236,
          "duration": 0.11770833333333286
        },
        {
          "name": "C4",
          "midi": 60,
          "time": 18.125,
          "velocity": 0.7559055118110236,
          "duration": 0.11770833333333286
        },
        {
          "name": "C5",
          "midi": 72,
          "time": 18.125,
          "velocity": 0.7559055118110236,
          "duration": 0.11770833333333286
        },
        {
          "name": "D5",
          "midi": 74,
          "time": 18.25,
          "velocity": 0.7559055118110236,
          "duration": 0.12395833333333428
        },
        {
          "name": "D6",
          "midi": 86,
          "time": 18.25,
          "velocity": 0.7559055118110236,
          "duration": 0.12395833333333428
        },
        {
          "name": "A4",
          "midi": 69,
          "time": 18.5,
          "velocity": 0.7559055118110236,
          "duration": 0.18645833333333428
        },
        {
          "name": "A5",
          "midi": 81,
          "time": 18.5,
          "velocity": 0.7559055118110236,
          "duration": 0.18645833333333428
        },
        {
          "name": "G#4",
          "midi": 68,
          "time": 18.875,
          "velocity": 0.7559055118110236,
          "duration": 0.11770833333333286
        },
        {
          "name": "G#5",
          "midi": 80,
          "time": 18.875,
          "velocity": 0.7559055118110236,
          "duration": 0.11770833333333286
        },
        {
          "name": "G4",
          "midi": 67,
          "time": 19.125,
          "velocity": 0.7559055118110236,
          "duration": 0.12395833333333428
        },
        {
          "name": "G5",
          "midi": 79,
          "time": 19.125,
          "velocity": 0.7559055118110236,
          "duration": 0.12395833333333428
        },
        {
          "name": "F4",
          "midi": 65,
          "time": 19.375,
          "velocity": 0.7559055118110236,
          "duration": 0.236458333333335
        },
        {
          "name": "F5",
          "midi": 77,
          "time": 19.375,
          "velocity": 0.7559055118110236,
          "duration": 0.236458333333335
        },
        {
          "name": "D4",
          "midi": 62,
          "time": 19.625,
          "velocity": 0.7559055118110236,
          "duration": 0.11770833333333286
        },
        {
          "name": "D5",
          "midi": 74,
          "time": 19.625,
          "velocity": 0.7559055118110236,
          "duration": 0.11770833333333286
        },
        {
          "name": "F4",
          "midi": 65,
          "time": 19.75,
          "velocity": 0.7559055118110236,
          "duration": 0.11770833333333286
        },
        {
          "name": "F5",
          "midi": 77,
          "time": 19.75,
          "velocity": 0.7559055118110236,
          "duration": 0.11770833333333286
        },
        {
          "name": "G4",
          "midi": 67,
          "time": 19.875,
          "velocity": 0.7559055118110236,
          "duration": 0.11770833333333286
        },
        {
          "name": "G5",
          "midi": 79,
          "time": 19.875,
          "velocity": 0.7559055118110236,
          "duration": 0.11770833333333286
        },
        {
          "name": "B3",
          "midi": 59,
          "time": 20,
          "velocity": 0.7559055118110236,
          "duration": 0.11770833333333286
        },
        {
          "name": "B4",
          "midi": 71,
          "time": 20,
          "velocity": 0.7559055118110236,
          "duration": 0.11770833333333286
        },
        {
          "name": "B3",
          "midi": 59,
          "time": 20.125,
          "velocity": 0.7559055118110236,
          "duration": 0.11770833333333286
        },
        {
          "name": "B4",
          "midi": 71,
          "time": 20.125,
          "velocity": 0.7559055118110236,
          "duration": 0.11770833333333286
        },
        {
          "name": "D5",
          "midi": 74,
          "time": 20.25,
          "velocity": 0.7559055118110236,
          "duration": 0.12395833333333428
        },
        {
          "name": "D6",
          "midi": 86,
          "time": 20.25,
          "velocity": 0.7559055118110236,
          "duration": 0.12395833333333428
        },
        {
          "name": "A4",
          "midi": 69,
          "time": 20.5,
          "velocity": 0.7559055118110236,
          "duration": 0.18645833333333428
        },
        {
          "name": "A5",
          "midi": 81,
          "time": 20.5,
          "velocity": 0.7559055118110236,
          "duration": 0.18645833333333428
        },
        {
          "name": "G#4",
          "midi": 68,
          "time": 20.875,
          "velocity": 0.7559055118110236,
          "duration": 0.11770833333333286
        },
        {
          "name": "G#5",
          "midi": 80,
          "time": 20.875,
          "velocity": 0.7559055118110236,
          "duration": 0.11770833333333286
        },
        {
          "name": "G4",
          "midi": 67,
          "time": 21.125,
          "velocity": 0.7559055118110236,
          "duration": 0.12395833333333428
        },
        {
          "name": "G5",
          "midi": 79,
          "time": 21.125,
          "velocity": 0.7559055118110236,
          "duration": 0.12395833333333428
        },
        {
          "name": "F4",
          "midi": 65,
          "time": 21.375,
          "velocity": 0.7559055118110236,
          "duration": 0.236458333333335
        },
        {
          "name": "F5",
          "midi": 77,
          "time": 21.375,
          "velocity": 0.7559055118110236,
          "duration": 0.236458333333335
        },
        {
          "name": "D4",
          "midi": 62,
          "time": 21.625,
          "velocity": 0.7559055118110236,
          "duration": 0.11770833333333286
        },
        {
          "name": "D5",
          "midi": 74,
          "time": 21.625,
          "velocity": 0.7559055118110236,
          "duration": 0.11770833333333286
        },
        {
          "name": "F4",
          "midi": 65,
          "time": 21.75,
          "velocity": 0.7559055118110236,
          "duration": 0.11770833333333286
        },
        {
          "name": "F5",
          "midi": 77,
          "time": 21.75,
          "velocity": 0.7559055118110236,
          "duration": 0.11770833333333286
        },
        {
          "name": "G4",
          "midi": 67,
          "time": 21.875,
          "velocity": 0.7559055118110236,
          "duration": 0.11770833333333286
        },
        {
          "name": "G5",
          "midi": 79,
          "time": 21.875,
          "velocity": 0.7559055118110236,
          "duration": 0.11770833333333286
        },
        {
          "name": "A#3",
          "midi": 58,
          "time": 22,
          "velocity": 0.7559055118110236,
          "duration": 0.11770833333333286
        },
        {
          "name": "A#4",
          "midi": 70,
          "time": 22,
          "velocity": 0.7559055118110236,
          "duration": 0.11770833333333286
        },
        {
          "name": "A#3",
          "midi": 58,
          "time": 22.125,
          "velocity": 0.7559055118110236,
          "duration": 0.11770833333333286
        },
        {
          "name": "A#4",
          "midi": 70,
          "time": 22.125,
          "velocity": 0.7559055118110236,
          "duration": 0.11770833333333286
        },
        {
          "name": "D5",
          "midi": 74,
          "time": 22.25,
          "velocity": 0.7559055118110236,
          "duration": 0.12395833333333428
        },
        {
          "name": "D6",
          "midi": 86,
          "time": 22.25,
          "velocity": 0.7559055118110236,
          "duration": 0.12395833333333428
        },
        {
          "name": "A4",
          "midi": 69,
          "time": 22.5,
          "velocity": 0.7559055118110236,
          "duration": 0.18645833333333428
        },
        {
          "name": "A5",
          "midi": 81,
          "time": 22.5,
          "velocity": 0.7559055118110236,
          "duration": 0.18645833333333428
        },
        {
          "name": "G#4",
          "midi": 68,
          "time": 22.875,
          "velocity": 0.7559055118110236,
          "duration": 0.11770833333333286
        },
        {
          "name": "G#5",
          "midi": 80,
          "time": 22.875,
          "velocity": 0.7559055118110236,
          "duration": 0.11770833333333286
        },
        {
          "name": "G4",
          "midi": 67,
          "time": 23.125,
          "velocity": 0.7559055118110236,
          "duration": 0.12395833333333428
        },
        {
          "name": "G5",
          "midi": 79,
          "time": 23.125,
          "velocity": 0.7559055118110236,
          "duration": 0.12395833333333428
        },
        {
          "name": "F4",
          "midi": 65,
          "time": 23.375,
          "velocity": 0.7559055118110236,
          "duration": 0.236458333333335
        },
        {
          "name": "F5",
          "midi": 77,
          "time": 23.375,
          "velocity": 0.7559055118110236,
          "duration": 0.236458333333335
        },
        {
          "name": "D4",
          "midi": 62,
          "time": 23.625,
          "velocity": 0.7559055118110236,
          "duration": 0.11770833333333286
        },
        {
          "name": "D5",
          "midi": 74,
          "time": 23.625,
          "velocity": 0.7559055118110236,
          "duration": 0.11770833333333286
        },
        {
          "name": "F4",
          "midi": 65,
          "time": 23.75,
          "velocity": 0.7559055118110236,
          "duration": 0.11770833333333286
        },
        {
          "name": "F5",
          "midi": 77,
          "time": 23.75,
          "velocity": 0.7559055118110236,
          "duration": 0.11770833333333286
        },
        {
          "name": "G4",
          "midi": 67,
          "time": 23.875,
          "velocity": 0.7559055118110236,
          "duration": 0.11770833333333286
        },
        {
          "name": "G5",
          "midi": 79,
          "time": 23.875,
          "velocity": 0.7559055118110236,
          "duration": 0.11770833333333286
        },
        {
          "name": "D4",
          "midi": 62,
          "time": 24,
          "velocity": 0.7559055118110236,
          "duration": 0.11770833333333286
        },
        {
          "name": "D5",
          "midi": 74,
          "time": 24,
          "velocity": 0.7559055118110236,
          "duration": 0.11770833333333286
        },
        {
          "name": "D4",
          "midi": 62,
          "time": 24.125,
          "velocity": 0.7559055118110236,
          "duration": 0.11770833333333286
        },
        {
          "name": "D5",
          "midi": 74,
          "time": 24.125,
          "velocity": 0.7559055118110236,
          "duration": 0.11770833333333286
        },
        {
          "name": "D5",
          "midi": 74,
          "time": 24.25,
          "velocity": 0.7559055118110236,
          "duration": 0.12395833333333428
        },
        {
          "name": "D6",
          "midi": 86,
          "time": 24.25,
          "velocity": 0.7559055118110236,
          "duration": 0.12395833333333428
        },
        {
          "name": "A4",
          "midi": 69,
          "time": 24.5,
          "velocity": 0.7559055118110236,
          "duration": 0.18645833333333428
        },
        {
          "name": "A5",
          "midi": 81,
          "time": 24.5,
          "velocity": 0.7559055118110236,
          "duration": 0.18645833333333428
        },
        {
          "name": "G#4",
          "midi": 68,
          "time": 24.875,
          "velocity": 0.7559055118110236,
          "duration": 0.11770833333333286
        },
        {
          "name": "G#5",
          "midi": 80,
          "time": 24.875,
          "velocity": 0.7559055118110236,
          "duration": 0.11770833333333286
        },
        {
          "name": "G4",
          "midi": 67,
          "time": 25.125,
          "velocity": 0.7559055118110236,
          "duration": 0.12395833333333428
        },
        {
          "name": "G5",
          "midi": 79,
          "time": 25.125,
          "velocity": 0.7559055118110236,
          "duration": 0.12395833333333428
        },
        {
          "name": "F4",
          "midi": 65,
          "time": 25.375,
          "velocity": 0.7559055118110236,
          "duration": 0.236458333333335
        },
        {
          "name": "F5",
          "midi": 77,
          "time": 25.375,
          "velocity": 0.7559055118110236,
          "duration": 0.236458333333335
        },
        {
          "name": "D4",
          "midi": 62,
          "time": 25.625,
          "velocity": 0.7559055118110236,
          "duration": 0.11770833333333286
        },
        {
          "name": "D5",
          "midi": 74,
          "time": 25.625,
          "velocity": 0.7559055118110236,
          "duration": 0.11770833333333286
        },
        {
          "name": "F4",
          "midi": 65,
          "time": 25.75,
          "velocity": 0.7559055118110236,
          "duration": 0.11770833333333286
        },
        {
          "name": "F5",
          "midi": 77,
          "time": 25.75,
          "velocity": 0.7559055118110236,
          "duration": 0.11770833333333286
        },
        {
          "name": "G4",
          "midi": 67,
          "time": 25.875,
          "velocity": 0.7559055118110236,
          "duration": 0.11770833333333286
        },
        {
          "name": "G5",
          "midi": 79,
          "time": 25.875,
          "velocity": 0.7559055118110236,
          "duration": 0.11770833333333286
        },
        {
          "name": "C4",
          "midi": 60,
          "time": 26,
          "velocity": 0.7559055118110236,
          "duration": 0.11770833333333286
        },
        {
          "name": "C5",
          "midi": 72,
          "time": 26,
          "velocity": 0.7559055118110236,
          "duration": 0.11770833333333286
        },
        {
          "name": "C4",
          "midi": 60,
          "time": 26.125,
          "velocity": 0.7559055118110236,
          "duration": 0.11770833333333286
        },
        {
          "name": "C5",
          "midi": 72,
          "time": 26.125,
          "velocity": 0.7559055118110236,
          "duration": 0.11770833333333286
        },
        {
          "name": "D5",
          "midi": 74,
          "time": 26.25,
          "velocity": 0.7559055118110236,
          "duration": 0.12395833333333428
        },
        {
          "name": "D6",
          "midi": 86,
          "time": 26.25,
          "velocity": 0.7559055118110236,
          "duration": 0.12395833333333428
        },
        {
          "name": "A4",
          "midi": 69,
          "time": 26.5,
          "velocity": 0.7559055118110236,
          "duration": 0.18645833333333428
        },
        {
          "name": "A5",
          "midi": 81,
          "time": 26.5,
          "velocity": 0.7559055118110236,
          "duration": 0.18645833333333428
        },
        {
          "name": "G#4",
          "midi": 68,
          "time": 26.875,
          "velocity": 0.7559055118110236,
          "duration": 0.11770833333333286
        },
        {
          "name": "G#5",
          "midi": 80,
          "time": 26.875,
          "velocity": 0.7559055118110236,
          "duration": 0.11770833333333286
        },
        {
          "name": "G4",
          "midi": 67,
          "time": 27.125,
          "velocity": 0.7559055118110236,
          "duration": 0.12395833333333428
        },
        {
          "name": "G5",
          "midi": 79,
          "time": 27.125,
          "velocity": 0.7559055118110236,
          "duration": 0.12395833333333428
        },
        {
          "name": "F4",
          "midi": 65,
          "time": 27.375,
          "velocity": 0.7559055118110236,
          "duration": 0.236458333333335
        },
        {
          "name": "F5",
          "midi": 77,
          "time": 27.375,
          "velocity": 0.7559055118110236,
          "duration": 0.236458333333335
        },
        {
          "name": "D4",
          "midi": 62,
          "time": 27.625,
          "velocity": 0.7559055118110236,
          "duration": 0.11770833333333286
        },
        {
          "name": "D5",
          "midi": 74,
          "time": 27.625,
          "velocity": 0.7559055118110236,
          "duration": 0.11770833333333286
        },
        {
          "name": "F4",
          "midi": 65,
          "time": 27.75,
          "velocity": 0.7559055118110236,
          "duration": 0.11770833333333286
        },
        {
          "name": "F5",
          "midi": 77,
          "time": 27.75,
          "velocity": 0.7559055118110236,
          "duration": 0.11770833333333286
        },
        {
          "name": "G4",
          "midi": 67,
          "time": 27.875,
          "velocity": 0.7559055118110236,
          "duration": 0.11770833333333286
        },
        {
          "name": "G5",
          "midi": 79,
          "time": 27.875,
          "velocity": 0.7559055118110236,
          "duration": 0.11770833333333286
        },
        {
          "name": "B3",
          "midi": 59,
          "time": 28,
          "velocity": 0.7559055118110236,
          "duration": 0.11770833333333286
        },
        {
          "name": "B4",
          "midi": 71,
          "time": 28,
          "velocity": 0.7559055118110236,
          "duration": 0.11770833333333286
        },
        {
          "name": "B3",
          "midi": 59,
          "time": 28.125,
          "velocity": 0.7559055118110236,
          "duration": 0.11770833333333286
        },
        {
          "name": "B4",
          "midi": 71,
          "time": 28.125,
          "velocity": 0.7559055118110236,
          "duration": 0.11770833333333286
        },
        {
          "name": "D5",
          "midi": 74,
          "time": 28.25,
          "velocity": 0.7559055118110236,
          "duration": 0.12395833333333428
        },
        {
          "name": "D6",
          "midi": 86,
          "time": 28.25,
          "velocity": 0.7559055118110236,
          "duration": 0.12395833333333428
        },
        {
          "name": "A4",
          "midi": 69,
          "time": 28.5,
          "velocity": 0.7559055118110236,
          "duration": 0.18645833333333428
        },
        {
          "name": "A5",
          "midi": 81,
          "time": 28.5,
          "velocity": 0.7559055118110236,
          "duration": 0.18645833333333428
        },
        {
          "name": "G#4",
          "midi": 68,
          "time": 28.875,
          "velocity": 0.7559055118110236,
          "duration": 0.11770833333333286
        },
        {
          "name": "G#5",
          "midi": 80,
          "time": 28.875,
          "velocity": 0.7559055118110236,
          "duration": 0.11770833333333286
        },
        {
          "name": "G4",
          "midi": 67,
          "time": 29.125,
          "velocity": 0.7559055118110236,
          "duration": 0.12395833333333428
        },
        {
          "name": "G5",
          "midi": 79,
          "time": 29.125,
          "velocity": 0.7559055118110236,
          "duration": 0.12395833333333428
        },
        {
          "name": "F4",
          "midi": 65,
          "time": 29.375,
          "velocity": 0.7559055118110236,
          "duration": 0.236458333333335
        },
        {
          "name": "F5",
          "midi": 77,
          "time": 29.375,
          "velocity": 0.7559055118110236,
          "duration": 0.236458333333335
        },
        {
          "name": "D4",
          "midi": 62,
          "time": 29.625,
          "velocity": 0.7559055118110236,
          "duration": 0.11770833333333286
        },
        {
          "name": "D5",
          "midi": 74,
          "time": 29.625,
          "velocity": 0.7559055118110236,
          "duration": 0.11770833333333286
        },
        {
          "name": "F4",
          "midi": 65,
          "time": 29.75,
          "velocity": 0.7559055118110236,
          "duration": 0.11770833333333286
        },
        {
          "name": "F5",
          "midi": 77,
          "time": 29.75,
          "velocity": 0.7559055118110236,
          "duration": 0.11770833333333286
        },
        {
          "name": "G4",
          "midi": 67,
          "time": 29.875,
          "velocity": 0.7559055118110236,
          "duration": 0.11770833333333286
        },
        {
          "name": "G5",
          "midi": 79,
          "time": 29.875,
          "velocity": 0.7559055118110236,
          "duration": 0.11770833333333286
        },
        {
          "name": "A#3",
          "midi": 58,
          "time": 30,
          "velocity": 0.7559055118110236,
          "duration": 0.11770833333333286
        },
        {
          "name": "A#4",
          "midi": 70,
          "time": 30,
          "velocity": 0.7559055118110236,
          "duration": 0.11770833333333286
        },
        {
          "name": "A#3",
          "midi": 58,
          "time": 30.125,
          "velocity": 0.7559055118110236,
          "duration": 0.11770833333333286
        },
        {
          "name": "A#4",
          "midi": 70,
          "time": 30.125,
          "velocity": 0.7559055118110236,
          "duration": 0.11770833333333286
        },
        {
          "name": "D5",
          "midi": 74,
          "time": 30.25,
          "velocity": 0.7559055118110236,
          "duration": 0.12395833333333428
        },
        {
          "name": "D6",
          "midi": 86,
          "time": 30.25,
          "velocity": 0.7559055118110236,
          "duration": 0.12395833333333428
        },
        {
          "name": "A4",
          "midi": 69,
          "time": 30.5,
          "velocity": 0.7559055118110236,
          "duration": 0.18645833333333428
        },
        {
          "name": "A5",
          "midi": 81,
          "time": 30.5,
          "velocity": 0.7559055118110236,
          "duration": 0.18645833333333428
        },
        {
          "name": "G#4",
          "midi": 68,
          "time": 30.875,
          "velocity": 0.7559055118110236,
          "duration": 0.11770833333333286
        },
        {
          "name": "G#5",
          "midi": 80,
          "time": 30.875,
          "velocity": 0.7559055118110236,
          "duration": 0.11770833333333286
        },
        {
          "name": "G4",
          "midi": 67,
          "time": 31.125,
          "velocity": 0.7559055118110236,
          "duration": 0.12395833333333428
        },
        {
          "name": "G5",
          "midi": 79,
          "time": 31.125,
          "velocity": 0.7559055118110236,
          "duration": 0.12395833333333428
        },
        {
          "name": "F4",
          "midi": 65,
          "time": 31.375,
          "velocity": 0.7559055118110236,
          "duration": 0.236458333333335
        },
        {
          "name": "F5",
          "midi": 77,
          "time": 31.375,
          "velocity": 0.7559055118110236,
          "duration": 0.236458333333335
        },
        {
          "name": "D4",
          "midi": 62,
          "time": 31.625,
          "velocity": 0.7559055118110236,
          "duration": 0.11770833333333286
        },
        {
          "name": "D5",
          "midi": 74,
          "time": 31.625,
          "velocity": 0.7559055118110236,
          "duration": 0.11770833333333286
        },
        {
          "name": "F4",
          "midi": 65,
          "time": 31.75,
          "velocity": 0.7559055118110236,
          "duration": 0.11770833333333286
        },
        {
          "name": "F5",
          "midi": 77,
          "time": 31.75,
          "velocity": 0.7559055118110236,
          "duration": 0.11770833333333286
        },
        {
          "name": "G4",
          "midi": 67,
          "time": 31.875,
          "velocity": 0.7559055118110236,
          "duration": 0.11770833333333286
        },
        {
          "name": "G5",
          "midi": 79,
          "time": 31.875,
          "velocity": 0.7559055118110236,
          "duration": 0.11770833333333286
        },
        {
          "name": "F5",
          "midi": 77,
          "time": 32,
          "velocity": 0.6299212598425197,
          "duration": 0.23645833333333144
        },
        {
          "name": "F5",
          "midi": 77,
          "time": 32.25,
          "velocity": 0.6299212598425197,
          "duration": 0.11770833333333286
        },
        {
          "name": "F5",
          "midi": 77,
          "time": 32.375,
          "velocity": 0.6299212598425197,
          "duration": 0.11770833333333286
        },
        {
          "name": "F5",
          "midi": 77,
          "time": 32.625,
          "velocity": 0.6299212598425197,
          "duration": 0.12395833333333428
        },
        {
          "name": "F5",
          "midi": 77,
          "time": 32.875,
          "velocity": 0.6299212598425197,
          "duration": 0.23645833333333144
        },
        {
          "name": "D5",
          "midi": 74,
          "time": 33.125,
          "velocity": 0.6299212598425197,
          "duration": 0.23645833333333144
        },
        {
          "name": "D5",
          "midi": 74,
          "time": 33.375,
          "velocity": 0.6299212598425197,
          "duration": 0.5927083333333343
        },
        {
          "name": "F5",
          "midi": 77,
          "time": 34,
          "velocity": 0.6299212598425197,
          "duration": 0.23645833333333144
        },
        {
          "name": "F5",
          "midi": 77,
          "time": 34.25,
          "velocity": 0.6299212598425197,
          "duration": 0.11770833333333286
        },
        {
          "name": "F5",
          "midi": 77,
          "time": 34.375,
          "velocity": 0.6299212598425197,
          "duration": 0.11770833333333286
        },
        {
          "name": "G5",
          "midi": 79,
          "time": 34.625,
          "velocity": 0.6299212598425197,
          "duration": 0.12395833333333428
        },
        {
          "name": "G#5",
          "midi": 80,
          "time": 34.875,
          "velocity": 0.6299212598425197,
          "duration": 0.23645833333333144
        },
        {
          "name": "G5",
          "midi": 79,
          "time": 35.125,
          "velocity": 0.6299212598425197,
          "duration": 0.03854166666666714
        },
        {
          "name": "G#5",
          "midi": 80,
          "time": 35.166666666666664,
          "velocity": 0.6299212598425197,
          "duration": 0.03854166666666714
        },
        {
          "name": "G5",
          "midi": 79,
          "time": 35.20833333333333,
          "velocity": 0.6299212598425197,
          "duration": 0.03854166666666714
        },
        {
          "name": "F5",
          "midi": 77,
          "time": 35.24999999999999,
          "velocity": 0.6299212598425197,
          "duration": 0.11770833333333286
        },
        {
          "name": "D5",
          "midi": 74,
          "time": 35.37499999999999,
          "velocity": 0.6299212598425197,
          "duration": 0.11770833333333286
        },
        {
          "name": "F5",
          "midi": 77,
          "time": 35.49999999999999,
          "velocity": 0.6299212598425197,
          "duration": 0.11770833333333286
        },
        {
          "name": "G5",
          "midi": 79,
          "time": 35.62499999999999,
          "velocity": 0.6299212598425197,
          "duration": 0.11770833333333286
        },
        {
          "name": "F5",
          "midi": 77,
          "time": 35.99999999999999,
          "velocity": 0.6299212598425197,
          "duration": 0.23645833333333144
        },
        {
          "name": "F5",
          "midi": 77,
          "time": 36.24999999999999,
          "velocity": 0.6299212598425197,
          "duration": 0.11770833333333286
        },
        {
          "name": "F5",
          "midi": 77,
          "time": 36.37499999999999,
          "velocity": 0.6299212598425197,
          "duration": 0.11770833333333286
        },
        {
          "name": "G5",
          "midi": 79,
          "time": 36.62499999999999,
          "velocity": 0.6299212598425197,
          "duration": 0.12395833333333428
        },
        {
          "name": "G#5",
          "midi": 80,
          "time": 36.87499999999999,
          "velocity": 0.6299212598425197,
          "duration": 0.11770833333333286
        },
        {
          "name": "A5",
          "midi": 81,
          "time": 37.12499999999999,
          "velocity": 0.6299212598425197,
          "duration": 0.12395833333333428
        },
        {
          "name": "C6",
          "midi": 84,
          "time": 37.37499999999999,
          "velocity": 0.6299212598425197,
          "duration": 0.23645833333333144
        },
        {
          "name": "A5",
          "midi": 81,
          "time": 37.62499999999999,
          "velocity": 0.6299212598425197,
          "duration": 0.35520833333333
        },
        {
          "name": "D6",
          "midi": 86,
          "time": 37.99999999999999,
          "velocity": 0.6299212598425197,
          "duration": 0.12395833333333428
        },
        {
          "name": "D6",
          "midi": 86,
          "time": 38.24999999999999,
          "velocity": 0.6456692913385826,
          "duration": 0.12395833333333428
        },
        {
          "name": "D6",
          "midi": 86,
          "time": 38.49999999999999,
          "velocity": 0.6614173228346457,
          "duration": 0.11770833333333286
        },
        {
          "name": "A5",
          "midi": 81,
          "time": 38.62499999999999,
          "velocity": 0.6692913385826772,
          "duration": 0.11770833333333286
        },
        {
          "name": "D6",
          "midi": 86,
          "time": 38.74999999999999,
          "velocity": 0.6771653543307087,
          "duration": 0.11770833333333286
        },
        {
          "name": "C6",
          "midi": 84,
          "time": 38.87499999999999,
          "velocity": 0.6850393700787402,
          "duration": 0.5927083333333343
        },
        {
          "name": "G6",
          "midi": 91,
          "time": 39.49999999999999,
          "velocity": 0.7244094488188977,
          "duration": 0.4739583333333357
        },
        {
          "name": "F5",
          "midi": 77,
          "time": 39.99999999999999,
          "velocity": 0.7559055118110236,
          "duration": 0.23645833333333144
        },
        {
          "name": "A5",
          "midi": 81,
          "time": 39.99999999999999,
          "velocity": 0.7559055118110236,
          "duration": 0.23645833333333144
        },
        {
          "name": "F5",
          "midi": 77,
          "time": 40.24999999999999,
          "velocity": 0.7559055118110236,
          "duration": 0.11770833333333286
        },
        {
          "name": "A5",
          "midi": 81,
          "time": 40.24999999999999,
          "velocity": 0.7559055118110236,
          "duration": 0.11770833333333286
        },
        {
          "name": "F5",
          "midi": 77,
          "time": 40.37499999999999,
          "velocity": 0.7559055118110236,
          "duration": 0.11770833333333286
        },
        {
          "name": "A5",
          "midi": 81,
          "time": 40.37499999999999,
          "velocity": 0.7559055118110236,
          "duration": 0.11770833333333286
        },
        {
          "name": "F5",
          "midi": 77,
          "time": 40.62499999999999,
          "velocity": 0.7559055118110236,
          "duration": 0.12395833333333428
        },
        {
          "name": "A5",
          "midi": 81,
          "time": 40.62499999999999,
          "velocity": 0.7559055118110236,
          "duration": 0.12395833333333428
        },
        {
          "name": "F5",
          "midi": 77,
          "time": 40.87499999999999,
          "velocity": 0.7559055118110236,
          "duration": 0.23645833333333144
        },
        {
          "name": "A5",
          "midi": 81,
          "time": 40.87499999999999,
          "velocity": 0.7559055118110236,
          "duration": 0.23645833333333144
        },
        {
          "name": "D5",
          "midi": 74,
          "time": 41.12499999999999,
          "velocity": 0.7559055118110236,
          "duration": 0.12395833333333428
        },
        {
          "name": "G5",
          "midi": 79,
          "time": 41.12499999999999,
          "velocity": 0.7559055118110236,
          "duration": 0.12395833333333428
        },
        {
          "name": "D5",
          "midi": 74,
          "time": 41.37499999999999,
          "velocity": 0.7559055118110236,
          "duration": 0.5927083333333343
        },
        {
          "name": "G5",
          "midi": 79,
          "time": 41.37499999999999,
          "velocity": 0.7559055118110236,
          "duration": 0.5927083333333343
        },
        {
          "name": "F5",
          "midi": 77,
          "time": 41.99999999999999,
          "velocity": 0.7559055118110236,
          "duration": 0.23645833333333144
        },
        {
          "name": "A5",
          "midi": 81,
          "time": 41.99999999999999,
          "velocity": 0.7559055118110236,
          "duration": 0.23645833333333144
        },
        {
          "name": "F5",
          "midi": 77,
          "time": 42.24999999999999,
          "velocity": 0.7559055118110236,
          "duration": 0.11770833333333286
        },
        {
          "name": "A5",
          "midi": 81,
          "time": 42.24999999999999,
          "velocity": 0.7559055118110236,
          "duration": 0.11770833333333286
        },
        {
          "name": "F5",
          "midi": 77,
          "time": 42.37499999999999,
          "velocity": 0.7559055118110236,
          "duration": 0.11770833333333286
        },
        {
          "name": "A5",
          "midi": 81,
          "time": 42.37499999999999,
          "velocity": 0.7559055118110236,
          "duration": 0.11770833333333286
        },
        {
          "name": "F5",
          "midi": 77,
          "time": 42.62499999999999,
          "velocity": 0.7559055118110236,
          "duration": 0.12395833333333428
        },
        {
          "name": "A5",
          "midi": 81,
          "time": 42.62499999999999,
          "velocity": 0.7559055118110236,
          "duration": 0.12395833333333428
        },
        {
          "name": "D5",
          "midi": 74,
          "time": 42.87499999999999,
          "velocity": 0.7559055118110236,
          "duration": 0.11770833333333286
        },
        {
          "name": "G5",
          "midi": 79,
          "time": 42.87499999999999,
          "velocity": 0.7559055118110236,
          "duration": 0.11770833333333286
        },
        {
          "name": "F5",
          "midi": 77,
          "time": 43.12499999999999,
          "velocity": 0.7559055118110236,
          "duration": 0.12395833333333428
        },
        {
          "name": "A5",
          "midi": 81,
          "time": 43.12499999999999,
          "velocity": 0.7559055118110236,
          "duration": 0.12395833333333428
        },
        {
          "name": "E5",
          "midi": 76,
          "time": 43.37499999999999,
          "velocity": 0.7559055118110236,
          "duration": 0.11770833333333286
        },
        {
          "name": "D6",
          "midi": 86,
          "time": 43.37499999999999,
          "velocity": 0.7559055118110236,
          "duration": 0.11770833333333286
        },
        {
          "name": "D5",
          "midi": 74,
          "time": 43.62499999999999,
          "velocity": 0.7559055118110236,
          "duration": 0.11770833333333286
        },
        {
          "name": "A5",
          "midi": 81,
          "time": 43.62499999999999,
          "velocity": 0.7559055118110236,
          "duration": 0.11770833333333286
        },
        {
          "name": "C5",
          "midi": 72,
          "time": 43.74999999999999,
          "velocity": 0.7559055118110236,
          "duration": 0.23645833333333144
        },
        {
          "name": "G5",
          "midi": 79,
          "time": 43.74999999999999,
          "velocity": 0.7559055118110236,
          "duration": 0.23645833333333144
        },
        {
          "name": "D6",
          "midi": 86,
          "time": 43.99999999999999,
          "velocity": 0.7559055118110236,
          "duration": 0.23645833333333144
        },
        {
          "name": "B5",
          "midi": 83,
          "time": 43.99999999999999,
          "velocity": 0.7559055118110236,
          "duration": 0.11770833333333286
        },
        {
          "name": "G5",
          "midi": 79,
          "time": 44.12499999999999,
          "velocity": 0.7559055118110236,
          "duration": 0.11770833333333286
        },
        {
          "name": "A5",
          "midi": 81,
          "time": 44.24999999999999,
          "velocity": 0.7559055118110236,
          "duration": 0.23645833333333144
        },
        {
          "name": "D5",
          "midi": 74,
          "time": 44.24999999999999,
          "velocity": 0.7559055118110236,
          "duration": 0.11770833333333286
        },
        {
          "name": "E5",
          "midi": 76,
          "time": 44.37499999999999,
          "velocity": 0.7559055118110236,
          "duration": 0.11770833333333286
        },
        {
          "name": "G5",
          "midi": 79,
          "time": 44.49999999999999,
          "velocity": 0.7559055118110236,
          "duration": 0.23645833333333144
        },
        {
          "name": "F5",
          "midi": 77,
          "time": 44.49999999999999,
          "velocity": 0.7559055118110236,
          "duration": 0.11770833333333286
        },
        {
          "name": "D5",
          "midi": 74,
          "time": 44.62499999999999,
          "velocity": 0.7559055118110236,
          "duration": 0.11770833333333286
        },
        {
          "name": "F5",
          "midi": 77,
          "time": 44.74999999999999,
          "velocity": 0.7559055118110236,
          "duration": 0.23645833333333144
        },
        {
          "name": "B4",
          "midi": 71,
          "time": 44.74999999999999,
          "velocity": 0.7559055118110236,
          "duration": 0.11770833333333286
        },
        {
          "name": "D5",
          "midi": 74,
          "time": 44.87499999999999,
          "velocity": 0.7559055118110236,
          "duration": 0.11770833333333286
        },
        {
          "name": "C6",
          "midi": 84,
          "time": 44.99999999999999,
          "velocity": 0.7559055118110236,
          "duration": 0.23645833333333144
        },
        {
          "name": "D5",
          "midi": 74,
          "time": 45.12499999999999,
          "velocity": 0.7559055118110236,
          "duration": 0.11770833333333286
        },
        {
          "name": "G5",
          "midi": 79,
          "time": 45.24999999999999,
          "velocity": 0.7559055118110236,
          "duration": 0.23645833333333144
        },
        {
          "name": "B4",
          "midi": 71,
          "time": 45.24999999999999,
          "velocity": 0.7559055118110236,
          "duration": 0.11770833333333286
        },
        {
          "name": "D5",
          "midi": 74,
          "time": 45.37499999999999,
          "velocity": 0.7559055118110236,
          "duration": 0.11770833333333286
        },
        {
          "name": "F5",
          "midi": 77,
          "time": 45.49999999999999,
          "velocity": 0.7559055118110236,
          "duration": 0.23645833333333144
        },
        {
          "name": "B4",
          "midi": 71,
          "time": 45.49999999999999,
          "velocity": 0.7559055118110236,
          "duration": 0.11770833333333286
        },
        {
          "name": "G4",
          "midi": 67,
          "time": 45.62499999999999,
          "velocity": 0.7559055118110236,
          "duration": 0.11770833333333286
        },
        {
          "name": "E5",
          "midi": 76,
          "time": 45.74999999999999,
          "velocity": 0.7559055118110236,
          "duration": 0.23645833333333144
        },
        {
          "name": "B4",
          "midi": 71,
          "time": 45.74999999999999,
          "velocity": 0.7559055118110236,
          "duration": 0.11770833333333286
        },
        {
          "name": "G4",
          "midi": 67,
          "time": 45.87499999999999,
          "velocity": 0.7559055118110236,
          "duration": 0.11770833333333286
        },
        {
          "name": "A#4",
          "midi": 70,
          "time": 45.99999999999999,
          "velocity": 0.7559055118110236,
          "duration": 0.23645833333333144
        },
        {
          "name": "C5",
          "midi": 72,
          "time": 46.24999999999999,
          "velocity": 0.7559055118110236,
          "duration": 0.11770833333333286
        },
        {
          "name": "A#4",
          "midi": 70,
          "time": 46.37499999999999,
          "velocity": 0.7559055118110236,
          "duration": 0.11770833333333286
        },
        {
          "name": "D5",
          "midi": 74,
          "time": 46.37499999999999,
          "velocity": 0.7559055118110236,
          "duration": 0.11770833333333286
        },
        {
          "name": "D5",
          "midi": 74,
          "time": 46.62499999999999,
          "velocity": 0.7559055118110236,
          "duration": 0.12395833333333428
        },
        {
          "name": "F5",
          "midi": 77,
          "time": 46.62499999999999,
          "velocity": 0.7559055118110236,
          "duration": 0.12395833333333428
        },
        {
          "name": "E5",
          "midi": 76,
          "time": 46.87499999999999,
          "velocity": 0.7559055118110236,
          "duration": 1.0677083333333357
        },
        {
          "name": "C6",
          "midi": 84,
          "time": 46.87499999999999,
          "velocity": 0.7559055118110236,
          "duration": 1.0677083333333357
        },
        {
          "name": "D5",
          "midi": 74,
          "time": 48.99999999999999,
          "velocity": 0.6299212598425197,
          "duration": 0.11770833333333286
        },
        {
          "name": "F5",
          "midi": 77,
          "time": 48.99999999999999,
          "velocity": 0.6299212598425197,
          "duration": 0.11770833333333286
        },
        {
          "name": "A#4",
          "midi": 70,
          "time": 49.12499999999999,
          "velocity": 0.6299212598425197,
          "duration": 0.11770833333333286
        },
        {
          "name": "D5",
          "midi": 74,
          "time": 49.12499999999999,
          "velocity": 0.6299212598425197,
          "duration": 0.11770833333333286
        },
        {
          "name": "D5",
          "midi": 74,
          "time": 49.24999999999999,
          "velocity": 0.6299212598425197,
          "duration": 0.11770833333333286
        },
        {
          "name": "F5",
          "midi": 77,
          "time": 49.24999999999999,
          "velocity": 0.6299212598425197,
          "duration": 0.11770833333333286
        },
        {
          "name": "E5",
          "midi": 76,
          "time": 49.37499999999999,
          "velocity": 0.6299212598425197,
          "duration": 0.11770833333333286
        },
        {
          "name": "G5",
          "midi": 79,
          "time": 49.37499999999999,
          "velocity": 0.6299212598425197,
          "duration": 0.11770833333333286
        },
        {
          "name": "F5",
          "midi": 77,
          "time": 49.49999999999999,
          "velocity": 0.6299212598425197,
          "duration": 0.11770833333333286
        },
        {
          "name": "G#5",
          "midi": 80,
          "time": 49.49999999999999,
          "velocity": 0.6299212598425197,
          "duration": 0.11770833333333286
        },
        {
          "name": "E5",
          "midi": 76,
          "time": 49.62499999999999,
          "velocity": 0.6299212598425197,
          "duration": 0.11770833333333286
        },
        {
          "name": "G5",
          "midi": 79,
          "time": 49.62499999999999,
          "velocity": 0.6299212598425197,
          "duration": 0.11770833333333286
        },
        {
          "name": "D5",
          "midi": 74,
          "time": 49.74999999999999,
          "velocity": 0.6299212598425197,
          "duration": 0.11770833333333286
        },
        {
          "name": "F5",
          "midi": 77,
          "time": 49.74999999999999,
          "velocity": 0.6299212598425197,
          "duration": 0.11770833333333286
        },
        {
          "name": "A#4",
          "midi": 70,
          "time": 49.87499999999999,
          "velocity": 0.6299212598425197,
          "duration": 0.11770833333333286
        },
        {
          "name": "D5",
          "midi": 74,
          "time": 49.87499999999999,
          "velocity": 0.6299212598425197,
          "duration": 0.11770833333333286
        },
        {
          "name": "G#5",
          "midi": 80,
          "time": 49.99999999999999,
          "velocity": 0.6299212598425197,
          "duration": 0.05833333333333002
        },
        {
          "name": "G5",
          "midi": 79,
          "time": 50.06249999999999,
          "velocity": 0.6299212598425197,
          "duration": 0.05833333333333002
        },
        {
          "name": "F5",
          "midi": 77,
          "time": 50.12499999999999,
          "velocity": 0.6299212598425197,
          "duration": 0.05833333333333002
        },
        {
          "name": "D5",
          "midi": 74,
          "time": 50.18749999999999,
          "velocity": 0.6299212598425197,
          "duration": 0.05833333333333002
        },
        {
          "name": "D5",
          "midi": 74,
          "time": 50.24999999999999,
          "velocity": 0.6299212598425197,
          "duration": 0.23645833333333144
        },
        {
          "name": "F5",
          "midi": 77,
          "time": 50.24999999999999,
          "velocity": 0.6299212598425197,
          "duration": 0.23645833333333144
        },
        {
          "name": "E5",
          "midi": 76,
          "time": 50.49999999999999,
          "velocity": 0.6299212598425197,
          "duration": 1.0677083333333357
        },
        {
          "name": "G5",
          "midi": 79,
          "time": 50.49999999999999,
          "velocity": 0.6299212598425197,
          "duration": 1.0677083333333357
        },
        {
          "name": "G#5",
          "midi": 80,
          "time": 51.62499999999999,
          "velocity": 0.6299212598425197,
          "duration": 0.23645833333333144
        },
        {
          "name": "A5",
          "midi": 81,
          "time": 51.87499999999999,
          "velocity": 0.6299212598425197,
          "duration": 0.11770833333333286
        },
        {
          "name": "C6",
          "midi": 84,
          "time": 51.99999999999999,
          "velocity": 0.6299212598425197,
          "duration": 0.12395833333333428
        },
        {
          "name": "A5",
          "midi": 81,
          "time": 52.24999999999999,
          "velocity": 0.6299212598425197,
          "duration": 0.11770833333333286
        },
        {
          "name": "G#5",
          "midi": 80,
          "time": 52.37499999999999,
          "velocity": 0.6299212598425197,
          "duration": 0.11770833333333286
        },
        {
          "name": "G5",
          "midi": 79,
          "time": 52.49999999999999,
          "velocity": 0.6299212598425197,
          "duration": 0.11770833333333286
        },
        {
          "name": "F5",
          "midi": 77,
          "time": 52.62499999999999,
          "velocity": 0.6299212598425197,
          "duration": 0.11770833333333286
        },
        {
          "name": "D5",
          "midi": 74,
          "time": 52.74999999999999,
          "velocity": 0.6299212598425197,
          "duration": 0.11770833333333286
        },
        {
          "name": "E5",
          "midi": 76,
          "time": 52.87499999999999,
          "velocity": 0.6299212598425197,
          "duration": 0.11770833333333286
        },
        {
          "name": "F5",
          "midi": 77,
          "time": 52.99999999999999,
          "velocity": 0.6299212598425197,
          "duration": 0.23645833333333144
        },
        {
          "name": "G5",
          "midi": 79,
          "time": 53.24999999999999,
          "velocity": 0.6299212598425197,
          "duration": 0.23645833333333144
        },
        {
          "name": "A5",
          "midi": 81,
          "time": 53.49999999999999,
          "velocity": 0.6299212598425197,
          "duration": 0.23645833333333144
        },
        {
          "name": "C6",
          "midi": 84,
          "time": 53.74999999999999,
          "velocity": 0.6299212598425197,
          "duration": 0.23645833333333144
        },
        {
          "name": "C#6",
          "midi": 85,
          "time": 53.99999999999999,
          "velocity": 0.6299212598425197,
          "duration": 0.23645833333333144
        },
        {
          "name": "G#5",
          "midi": 80,
          "time": 54.24999999999999,
          "velocity": 0.6299212598425197,
          "duration": 0.12395833333333428
        },
        {
          "name": "G#5",
          "midi": 80,
          "time": 54.49999999999999,
          "velocity": 0.6299212598425197,
          "duration": 0.11770833333333286
        },
        {
          "name": "G5",
          "midi": 79,
          "time": 54.62499999999999,
          "velocity": 0.6299212598425197,
          "duration": 0.11770833333333286
        },
        {
          "name": "F5",
          "midi": 77,
          "time": 54.74999999999999,
          "velocity": 0.6299212598425197,
          "duration": 0.11770833333333286
        },
        {
          "name": "G5",
          "midi": 79,
          "time": 54.87499999999999,
          "velocity": 0.6299212598425197,
          "duration": 1.0677083333333357
        },
        {
          "name": "D4",
          "midi": 62,
          "time": 55.99999999999999,
          "velocity": 0.6299212598425197,
          "duration": 0.23645833333333144
        },
        {
          "name": "F4",
          "midi": 65,
          "time": 55.99999999999999,
          "velocity": 0.6299212598425197,
          "duration": 0.23645833333333144
        },
        {
          "name": "E4",
          "midi": 64,
          "time": 56.24999999999999,
          "velocity": 0.6299212598425197,
          "duration": 0.23645833333333144
        },
        {
          "name": "G4",
          "midi": 67,
          "time": 56.24999999999999,
          "velocity": 0.6299212598425197,
          "duration": 0.23645833333333144
        },
        {
          "name": "F4",
          "midi": 65,
          "time": 56.49999999999999,
          "velocity": 0.6299212598425197,
          "duration": 0.23645833333333144
        },
        {
          "name": "A4",
          "midi": 69,
          "time": 56.49999999999999,
          "velocity": 0.6299212598425197,
          "duration": 0.23645833333333144
        },
        {
          "name": "D5",
          "midi": 74,
          "time": 56.74999999999999,
          "velocity": 0.6299212598425197,
          "duration": 0.23645833333333144
        },
        {
          "name": "F5",
          "midi": 77,
          "time": 56.74999999999999,
          "velocity": 0.6299212598425197,
          "duration": 0.23645833333333144
        },
        {
          "name": "C5",
          "midi": 72,
          "time": 56.99999999999999,
          "velocity": 0.6299212598425197,
          "duration": 0.4739583333333357
        },
        {
          "name": "E5",
          "midi": 76,
          "time": 56.99999999999999,
          "velocity": 0.6299212598425197,
          "duration": 0.4739583333333357
        },
        {
          "name": "A4",
          "midi": 69,
          "time": 57.49999999999999,
          "velocity": 0.6299212598425197,
          "duration": 0.4739583333333357
        },
        {
          "name": "D5",
          "midi": 74,
          "time": 57.49999999999999,
          "velocity": 0.6299212598425197,
          "duration": 0.4739583333333357
        },
        {
          "name": "G4",
          "midi": 67,
          "time": 57.99999999999999,
          "velocity": 0.6299212598425197,
          "duration": 0.4739583333333357
        },
        {
          "name": "E5",
          "midi": 76,
          "time": 57.99999999999999,
          "velocity": 0.6299212598425197,
          "duration": 0.4739583333333357
        },
        {
          "name": "A4",
          "midi": 69,
          "time": 58.49999999999999,
          "velocity": 0.6299212598425197,
          "duration": 0.4739583333333357
        },
        {
          "name": "F5",
          "midi": 77,
          "time": 58.49999999999999,
          "velocity": 0.6299212598425197,
          "duration": 0.4739583333333357
        },
        {
          "name": "C5",
          "midi": 72,
          "time": 58.99999999999999,
          "velocity": 0.6299212598425197,
          "duration": 0.4739583333333357
        },
        {
          "name": "G5",
          "midi": 79,
          "time": 58.99999999999999,
          "velocity": 0.6299212598425197,
          "duration": 0.4739583333333357
        },
        {
          "name": "A4",
          "midi": 69,
          "time": 59.49999999999999,
          "velocity": 0.6299212598425197,
          "duration": 0.4739583333333357
        },
        {
          "name": "E5",
          "midi": 76,
          "time": 59.49999999999999,
          "velocity": 0.6299212598425197,
          "duration": 0.4739583333333357
        },
        {
          "name": "D5",
          "midi": 74,
          "time": 59.99999999999999,
          "velocity": 0.6299212598425197,
          "duration": 0.94895833333333
        },
        {
          "name": "A5",
          "midi": 81,
          "time": 59.99999999999999,
          "velocity": 0.6299212598425197,
          "duration": 0.94895833333333
        },
        {
          "name": "A5",
          "midi": 81,
          "time": 60.99999999999999,
          "velocity": 0.6299212598425197,
          "duration": 0.11770833333333286
        },
        {
          "name": "G#5",
          "midi": 80,
          "time": 61.12499999999999,
          "velocity": 0.6299212598425197,
          "duration": 0.11770833333333286
        },
        {
          "name": "G5",
          "midi": 79,
          "time": 61.24999999999999,
          "velocity": 0.6299212598425197,
          "duration": 0.11770833333333286
        },
        {
          "name": "F#5",
          "midi": 78,
          "time": 61.37499999999999,
          "velocity": 0.6299212598425197,
          "duration": 0.11770833333333286
        },
        {
          "name": "F5",
          "midi": 77,
          "time": 61.49999999999999,
          "velocity": 0.6299212598425197,
          "duration": 0.11770833333333286
        },
        {
          "name": "E5",
          "midi": 76,
          "time": 61.62499999999999,
          "velocity": 0.6299212598425197,
          "duration": 0.11770833333333286
        },
        {
          "name": "D#5",
          "midi": 75,
          "time": 61.74999999999999,
          "velocity": 0.6299212598425197,
          "duration": 0.11770833333333286
        },
        {
          "name": "D5",
          "midi": 74,
          "time": 61.87499999999999,
          "velocity": 0.6299212598425197,
          "duration": 0.11770833333333286
        },
        {
          "name": "G#4",
          "midi": 68,
          "time": 61.99999999999999,
          "velocity": 0.6299212598425197,
          "duration": 0.94895833333333
        },
        {
          "name": "C#5",
          "midi": 73,
          "time": 61.99999999999999,
          "velocity": 0.6299212598425197,
          "duration": 0.94895833333333
        },
        {
          "name": "A#4",
          "midi": 70,
          "time": 62.99999999999999,
          "velocity": 0.6299212598425197,
          "duration": 0.94895833333333
        },
        {
          "name": "D#5",
          "midi": 75,
          "time": 62.99999999999999,
          "velocity": 0.6299212598425197,
          "duration": 0.94895833333333
        },
        {
          "name": "D5",
          "midi": 74,
          "time": 64.99999999999999,
          "velocity": 0.6299212598425197,
          "duration": 0.11770833333333997
        },
        {
          "name": "F5",
          "midi": 77,
          "time": 64.99999999999999,
          "velocity": 0.6299212598425197,
          "duration": 0.11770833333333997
        },
        {
          "name": "A#4",
          "midi": 70,
          "time": 65.12499999999999,
          "velocity": 0.6299212598425197,
          "duration": 0.11770833333333997
        },
        {
          "name": "D5",
          "midi": 74,
          "time": 65.12499999999999,
          "velocity": 0.6299212598425197,
          "duration": 0.11770833333333997
        },
        {
          "name": "D5",
          "midi": 74,
          "time": 65.24999999999999,
          "velocity": 0.6299212598425197,
          "duration": 0.11770833333333997
        },
        {
          "name": "F5",
          "midi": 77,
          "time": 65.24999999999999,
          "velocity": 0.6299212598425197,
          "duration": 0.11770833333333997
        },
        {
          "name": "E5",
          "midi": 76,
          "time": 65.37499999999999,
          "velocity": 0.6299212598425197,
          "duration": 0.11770833333333997
        },
        {
          "name": "G5",
          "midi": 79,
          "time": 65.37499999999999,
          "velocity": 0.6299212598425197,
          "duration": 0.11770833333333997
        },
        {
          "name": "F5",
          "midi": 77,
          "time": 65.49999999999999,
          "velocity": 0.6299212598425197,
          "duration": 0.11770833333333997
        },
        {
          "name": "G#5",
          "midi": 80,
          "time": 65.49999999999999,
          "velocity": 0.6299212598425197,
          "duration": 0.11770833333333997
        },
        {
          "name": "E5",
          "midi": 76,
          "time": 65.62499999999999,
          "velocity": 0.6299212598425197,
          "duration": 0.11770833333333997
        },
        {
          "name": "G5",
          "midi": 79,
          "time": 65.62499999999999,
          "velocity": 0.6299212598425197,
          "duration": 0.11770833333333997
        },
        {
          "name": "D5",
          "midi": 74,
          "time": 65.74999999999999,
          "velocity": 0.6299212598425197,
          "duration": 0.11770833333333997
        },
        {
          "name": "F5",
          "midi": 77,
          "time": 65.74999999999999,
          "velocity": 0.6299212598425197,
          "duration": 0.11770833333333997
        },
        {
          "name": "A#4",
          "midi": 70,
          "time": 65.87499999999999,
          "velocity": 0.6299212598425197,
          "duration": 0.11770833333333997
        },
        {
          "name": "D5",
          "midi": 74,
          "time": 65.87499999999999,
          "velocity": 0.6299212598425197,
          "duration": 0.11770833333333997
        },
        {
          "name": "G#5",
          "midi": 80,
          "time": 65.99999999999999,
          "velocity": 0.6299212598425197,
          "duration": 0.05833333333333712
        },
        {
          "name": "G5",
          "midi": 79,
          "time": 66.06249999999999,
          "velocity": 0.6299212598425197,
          "duration": 0.05833333333333712
        },
        {
          "name": "F5",
          "midi": 77,
          "time": 66.12499999999999,
          "velocity": 0.6299212598425197,
          "duration": 0.05833333333333712
        },
        {
          "name": "D5",
          "midi": 74,
          "time": 66.18749999999999,
          "velocity": 0.6299212598425197,
          "duration": 0.05833333333333712
        },
        {
          "name": "D5",
          "midi": 74,
          "time": 66.24999999999999,
          "velocity": 0.6299212598425197,
          "duration": 0.23645833333333144
        },
        {
          "name": "F5",
          "midi": 77,
          "time": 66.24999999999999,
          "velocity": 0.6299212598425197,
          "duration": 0.23645833333333144
        },
        {
          "name": "E5",
          "midi": 76,
          "time": 66.49999999999999,
          "velocity": 0.6299212598425197,
          "duration": 1.0677083333333286
        },
        {
          "name": "G5",
          "midi": 79,
          "time": 66.49999999999999,
          "velocity": 0.6299212598425197,
          "duration": 1.0677083333333286
        },
        {
          "name": "G#5",
          "midi": 80,
          "time": 67.62499999999999,
          "velocity": 0.6299212598425197,
          "duration": 0.23645833333333144
        },
        {
          "name": "A5",
          "midi": 81,
          "time": 67.87499999999999,
          "velocity": 0.6299212598425197,
          "duration": 0.11770833333333997
        },
        {
          "name": "C6",
          "midi": 84,
          "time": 67.99999999999999,
          "velocity": 0.6299212598425197,
          "duration": 0.12395833333333428
        },
        {
          "name": "A5",
          "midi": 81,
          "time": 68.24999999999999,
          "velocity": 0.6299212598425197,
          "duration": 0.11770833333333997
        },
        {
          "name": "G#5",
          "midi": 80,
          "time": 68.37499999999999,
          "velocity": 0.6299212598425197,
          "duration": 0.11770833333333997
        },
        {
          "name": "G5",
          "midi": 79,
          "time": 68.49999999999999,
          "velocity": 0.6299212598425197,
          "duration": 0.11770833333333997
        },
        {
          "name": "F5",
          "midi": 77,
          "time": 68.62499999999999,
          "velocity": 0.6299212598425197,
          "duration": 0.11770833333333997
        },
        {
          "name": "D5",
          "midi": 74,
          "time": 68.74999999999999,
          "velocity": 0.6299212598425197,
          "duration": 0.11770833333333997
        },
        {
          "name": "E5",
          "midi": 76,
          "time": 68.87499999999999,
          "velocity": 0.6299212598425197,
          "duration": 0.11770833333333997
        },
        {
          "name": "F5",
          "midi": 77,
          "time": 68.99999999999999,
          "velocity": 0.6299212598425197,
          "duration": 0.23645833333333144
        },
        {
          "name": "G5",
          "midi": 79,
          "time": 69.24999999999999,
          "velocity": 0.6299212598425197,
          "duration": 0.23645833333333144
        },
        {
          "name": "A5",
          "midi": 81,
          "time": 69.49999999999999,
          "velocity": 0.6299212598425197,
          "duration": 0.23645833333333144
        },
        {
          "name": "C6",
          "midi": 84,
          "time": 69.74999999999999,
          "velocity": 0.6299212598425197,
          "duration": 0.23645833333333144
        },
        {
          "name": "C#6",
          "midi": 85,
          "time": 69.99999999999999,
          "velocity": 0.6299212598425197,
          "duration": 0.23645833333333144
        },
        {
          "name": "G#5",
          "midi": 80,
          "time": 70.24999999999999,
          "velocity": 0.6299212598425197,
          "duration": 0.12395833333333428
        },
        {
          "name": "G#5",
          "midi": 80,
          "time": 70.49999999999999,
          "velocity": 0.6299212598425197,
          "duration": 0.11770833333333997
        },
        {
          "name": "G5",
          "midi": 79,
          "time": 70.62499999999999,
          "velocity": 0.6299212598425197,
          "duration": 0.11770833333333997
        },
        {
          "name": "F5",
          "midi": 77,
          "time": 70.74999999999999,
          "velocity": 0.6299212598425197,
          "duration": 0.11770833333333997
        },
        {
          "name": "G5",
          "midi": 79,
          "time": 70.87499999999999,
          "velocity": 0.6299212598425197,
          "duration": 1.0677083333333286
        },
        {
          "name": "D4",
          "midi": 62,
          "time": 71.99999999999999,
          "velocity": 0.6299212598425197,
          "duration": 0.23645833333333144
        },
        {
          "name": "F4",
          "midi": 65,
          "time": 71.99999999999999,
          "velocity": 0.6299212598425197,
          "duration": 0.23645833333333144
        },
        {
          "name": "E4",
          "midi": 64,
          "time": 72.24999999999999,
          "velocity": 0.6299212598425197,
          "duration": 0.23645833333333144
        },
        {
          "name": "G4",
          "midi": 67,
          "time": 72.24999999999999,
          "velocity": 0.6299212598425197,
          "duration": 0.23645833333333144
        },
        {
          "name": "F4",
          "midi": 65,
          "time": 72.49999999999999,
          "velocity": 0.6299212598425197,
          "duration": 0.23645833333333144
        },
        {
          "name": "A4",
          "midi": 69,
          "time": 72.49999999999999,
          "velocity": 0.6299212598425197,
          "duration": 0.23645833333333144
        },
        {
          "name": "D5",
          "midi": 74,
          "time": 72.74999999999999,
          "velocity": 0.6299212598425197,
          "duration": 0.23645833333333144
        },
        {
          "name": "F5",
          "midi": 77,
          "time": 72.74999999999999,
          "velocity": 0.6299212598425197,
          "duration": 0.23645833333333144
        },
        {
          "name": "C5",
          "midi": 72,
          "time": 72.99999999999999,
          "velocity": 0.6299212598425197,
          "duration": 0.4739583333333286
        },
        {
          "name": "E5",
          "midi": 76,
          "time": 72.99999999999999,
          "velocity": 0.6299212598425197,
          "duration": 0.4739583333333286
        },
        {
          "name": "A4",
          "midi": 69,
          "time": 73.49999999999999,
          "velocity": 0.6299212598425197,
          "duration": 0.4739583333333286
        },
        {
          "name": "D5",
          "midi": 74,
          "time": 73.49999999999999,
          "velocity": 0.6299212598425197,
          "duration": 0.4739583333333286
        },
        {
          "name": "G4",
          "midi": 67,
          "time": 73.99999999999999,
          "velocity": 0.6299212598425197,
          "duration": 0.4739583333333286
        },
        {
          "name": "E5",
          "midi": 76,
          "time": 73.99999999999999,
          "velocity": 0.6299212598425197,
          "duration": 0.4739583333333286
        },
        {
          "name": "A4",
          "midi": 69,
          "time": 74.49999999999999,
          "velocity": 0.6299212598425197,
          "duration": 0.4739583333333286
        },
        {
          "name": "F5",
          "midi": 77,
          "time": 74.49999999999999,
          "velocity": 0.6299212598425197,
          "duration": 0.4739583333333286
        },
        {
          "name": "C5",
          "midi": 72,
          "time": 74.99999999999999,
          "velocity": 0.6299212598425197,
          "duration": 0.4739583333333286
        },
        {
          "name": "G5",
          "midi": 79,
          "time": 74.99999999999999,
          "velocity": 0.6299212598425197,
          "duration": 0.4739583333333286
        },
        {
          "name": "A4",
          "midi": 69,
          "time": 75.49999999999999,
          "velocity": 0.6299212598425197,
          "duration": 0.4739583333333286
        },
        {
          "name": "E5",
          "midi": 76,
          "time": 75.49999999999999,
          "velocity": 0.6299212598425197,
          "duration": 0.4739583333333286
        },
        {
          "name": "D5",
          "midi": 74,
          "time": 75.99999999999999,
          "velocity": 0.6299212598425197,
          "duration": 0.9489583333333371
        },
        {
          "name": "A5",
          "midi": 81,
          "time": 75.99999999999999,
          "velocity": 0.6299212598425197,
          "duration": 0.9489583333333371
        },
        {
          "name": "A5",
          "midi": 81,
          "time": 76.99999999999999,
          "velocity": 0.6299212598425197,
          "duration": 0.11770833333333997
        },
        {
          "name": "G#5",
          "midi": 80,
          "time": 77.12499999999999,
          "velocity": 0.6299212598425197,
          "duration": 0.11770833333333997
        },
        {
          "name": "G5",
          "midi": 79,
          "time": 77.24999999999999,
          "velocity": 0.6299212598425197,
          "duration": 0.11770833333333997
        },
        {
          "name": "F#5",
          "midi": 78,
          "time": 77.37499999999999,
          "velocity": 0.6299212598425197,
          "duration": 0.11770833333333997
        },
        {
          "name": "F5",
          "midi": 77,
          "time": 77.49999999999999,
          "velocity": 0.6299212598425197,
          "duration": 0.11770833333333997
        },
        {
          "name": "E5",
          "midi": 76,
          "time": 77.62499999999999,
          "velocity": 0.6299212598425197,
          "duration": 0.11770833333333997
        },
        {
          "name": "D#5",
          "midi": 75,
          "time": 77.74999999999999,
          "velocity": 0.6299212598425197,
          "duration": 0.11770833333333997
        },
        {
          "name": "D5",
          "midi": 74,
          "time": 77.87499999999999,
          "velocity": 0.6299212598425197,
          "duration": 0.11770833333333997
        },
        {
          "name": "G#4",
          "midi": 68,
          "time": 77.99999999999999,
          "velocity": 0.6299212598425197,
          "duration": 0.9489583333333371
        },
        {
          "name": "C#5",
          "midi": 73,
          "time": 77.99999999999999,
          "velocity": 0.6299212598425197,
          "duration": 0.9489583333333371
        },
        {
          "name": "A#4",
          "midi": 70,
          "time": 78.99999999999999,
          "velocity": 0.6299212598425197,
          "duration": 0.9489583333333371
        },
        {
          "name": "D#5",
          "midi": 75,
          "time": 78.99999999999999,
          "velocity": 0.6299212598425197,
          "duration": 0.9489583333333371
        },
        {
          "name": "A#3",
          "midi": 58,
          "time": 79.99999999999999,
          "velocity": 0.5039370078740157,
          "duration": 1.4239583333333314
        },
        {
          "name": "F4",
          "midi": 65,
          "time": 81.49999999999999,
          "velocity": 0.5039370078740157,
          "duration": 0.4739583333333286
        },
        {
          "name": "E4",
          "midi": 64,
          "time": 81.99999999999999,
          "velocity": 0.5039370078740157,
          "duration": 0.9489583333333371
        },
        {
          "name": "D4",
          "midi": 62,
          "time": 82.99999999999999,
          "velocity": 0.5039370078740157,
          "duration": 0.9489583333333371
        },
        {
          "name": "F4",
          "midi": 65,
          "time": 83.99999999999999,
          "velocity": 0.5039370078740157,
          "duration": 3.7989583333333314
        },
        {
          "name": "A#3",
          "midi": 58,
          "time": 87.99999999999999,
          "velocity": 0.5039370078740157,
          "duration": 1.4239583333333314
        },
        {
          "name": "F4",
          "midi": 65,
          "time": 89.49999999999999,
          "velocity": 0.5039370078740157,
          "duration": 0.4739583333333286
        },
        {
          "name": "E4",
          "midi": 64,
          "time": 89.99999999999999,
          "velocity": 0.5039370078740157,
          "duration": 0.9489583333333371
        },
        {
          "name": "D4",
          "midi": 62,
          "time": 90.99999999999999,
          "velocity": 0.5039370078740157,
          "duration": 0.9489583333333371
        },
        {
          "name": "D4",
          "midi": 62,
          "time": 91.99999999999999,
          "velocity": 0.5039370078740157,
          "duration": 0.9489583333333371
        },
        {
          "name": "D4",
          "midi": 62,
          "time": 92.99999999999999,
          "velocity": 0.5039370078740157,
          "duration": 0.078125
        },
        {
          "name": "C#4",
          "midi": 61,
          "time": 93.08333333333331,
          "velocity": 0.5039370078740157,
          "duration": 0.078125
        },
        {
          "name": "C4",
          "midi": 60,
          "time": 93.16666666666664,
          "velocity": 0.5039370078740157,
          "duration": 0.078125
        },
        {
          "name": "B3",
          "midi": 59,
          "time": 93.24999999999997,
          "velocity": 0.5039370078740157,
          "duration": 0.078125
        },
        {
          "name": "A#3",
          "midi": 58,
          "time": 93.3333333333333,
          "velocity": 0.5039370078740157,
          "duration": 0.078125
        },
        {
          "name": "A3",
          "midi": 57,
          "time": 93.41666666666663,
          "velocity": 0.5039370078740157,
          "duration": 0.078125
        },
        {
          "name": "G#3",
          "midi": 56,
          "time": 93.49999999999996,
          "velocity": 0.5039370078740157,
          "duration": 0.078125
        },
        {
          "name": "G3",
          "midi": 55,
          "time": 93.58333333333329,
          "velocity": 0.5039370078740157,
          "duration": 0.078125
        },
        {
          "name": "F#3",
          "midi": 54,
          "time": 93.66666666666661,
          "velocity": 0.5039370078740157,
          "duration": 0.078125
        },
        {
          "name": "F3",
          "midi": 53,
          "time": 93.74999999999994,
          "velocity": 0.5039370078740157,
          "duration": 0.078125
        },
        {
          "name": "E3",
          "midi": 52,
          "time": 93.83333333333327,
          "velocity": 0.5039370078740157,
          "duration": 0.078125
        },
        {
          "name": "D#3",
          "midi": 51,
          "time": 93.9166666666666,
          "velocity": 0.5039370078740157,
          "duration": 0.078125
        },
        {
          "name": "D3",
          "midi": 50,
          "time": 93.99999999999993,
          "velocity": 0.5039370078740157,
          "duration": 1.89895833333334
        },
        {
          "name": "A#3",
          "midi": 58,
          "time": 95.99999999999993,
          "velocity": 0.5039370078740157,
          "duration": 1.4239583333333314
        },
        {
          "name": "D3",
          "midi": 50,
          "time": 95.99999999999993,
          "velocity": 0.5039370078740157,
          "duration": 0.11770833333333997
        },
        {
          "name": "D3",
          "midi": 50,
          "time": 96.12499999999993,
          "velocity": 0.5039370078740157,
          "duration": 0.11770833333333997
        },
        {
          "name": "D4",
          "midi": 62,
          "time": 96.24999999999993,
          "velocity": 0.5039370078740157,
          "duration": 0.12395833333333428
        },
        {
          "name": "A3",
          "midi": 57,
          "time": 96.49999999999993,
          "velocity": 0.5039370078740157,
          "duration": 0.18645833333333428
        },
        {
          "name": "G#3",
          "midi": 56,
          "time": 96.87499999999993,
          "velocity": 0.5039370078740157,
          "duration": 0.11770833333333997
        },
        {
          "name": "G3",
          "midi": 55,
          "time": 97.12499999999993,
          "velocity": 0.5039370078740157,
          "duration": 0.12395833333333428
        },
        {
          "name": "F3",
          "midi": 53,
          "time": 97.37499999999993,
          "velocity": 0.5039370078740157,
          "duration": 0.23645833333333144
        },
        {
          "name": "F4",
          "midi": 65,
          "time": 97.49999999999993,
          "velocity": 0.5039370078740157,
          "duration": 0.4739583333333286
        },
        {
          "name": "D3",
          "midi": 50,
          "time": 97.62499999999993,
          "velocity": 0.5039370078740157,
          "duration": 0.11770833333333997
        },
        {
          "name": "F3",
          "midi": 53,
          "time": 97.74999999999993,
          "velocity": 0.5039370078740157,
          "duration": 0.11770833333333997
        },
        {
          "name": "G3",
          "midi": 55,
          "time": 97.87499999999993,
          "velocity": 0.5039370078740157,
          "duration": 0.11770833333332575
        },
        {
          "name": "E4",
          "midi": 64,
          "time": 97.99999999999991,
          "velocity": 0.5039370078740157,
          "duration": 0.9489583333333371
        },
        {
          "name": "C3",
          "midi": 48,
          "time": 97.99999999999991,
          "velocity": 0.5039370078740157,
          "duration": 0.11770833333333997
        },
        {
          "name": "C3",
          "midi": 48,
          "time": 98.12499999999991,
          "velocity": 0.5039370078740157,
          "duration": 0.11770833333333997
        },
        {
          "name": "D4",
          "midi": 62,
          "time": 98.24999999999991,
          "velocity": 0.5039370078740157,
          "duration": 0.12395833333333428
        },
        {
          "name": "A3",
          "midi": 57,
          "time": 98.49999999999991,
          "velocity": 0.5039370078740157,
          "duration": 0.18645833333333428
        },
        {
          "name": "G#3",
          "midi": 56,
          "time": 98.87499999999991,
          "velocity": 0.5039370078740157,
          "duration": 0.11770833333333997
        },
        {
          "name": "D4",
          "midi": 62,
          "time": 98.99999999999991,
          "velocity": 0.5039370078740157,
          "duration": 0.9489583333333371
        },
        {
          "name": "G3",
          "midi": 55,
          "time": 99.12499999999991,
          "velocity": 0.5039370078740157,
          "duration": 0.12395833333333428
        },
        {
          "name": "F3",
          "midi": 53,
          "time": 99.37499999999991,
          "velocity": 0.5039370078740157,
          "duration": 0.23645833333333144
        },
        {
          "name": "D3",
          "midi": 50,
          "time": 99.62499999999991,
          "velocity": 0.5039370078740157,
          "duration": 0.11770833333333997
        },
        {
          "name": "F3",
          "midi": 53,
          "time": 99.74999999999991,
          "velocity": 0.5039370078740157,
          "duration": 0.11770833333333997
        },
        {
          "name": "G3",
          "midi": 55,
          "time": 99.87499999999991,
          "velocity": 0.5039370078740157,
          "duration": 0.11770833333333997
        },
        {
          "name": "F4",
          "midi": 65,
          "time": 99.99999999999991,
          "velocity": 0.5039370078740157,
          "duration": 1.89895833333334
        },
        {
          "name": "B2",
          "midi": 47,
          "time": 99.99999999999991,
          "velocity": 0.5039370078740157,
          "duration": 0.11770833333333997
        },
        {
          "name": "B2",
          "midi": 47,
          "time": 100.12499999999991,
          "velocity": 0.5039370078740157,
          "duration": 0.11770833333333997
        },
        {
          "name": "D4",
          "midi": 62,
          "time": 100.24999999999991,
          "velocity": 0.5039370078740157,
          "duration": 0.12395833333333428
        },
        {
          "name": "A3",
          "midi": 57,
          "time": 100.49999999999991,
          "velocity": 0.5039370078740157,
          "duration": 0.18645833333333428
        },
        {
          "name": "G#3",
          "midi": 56,
          "time": 100.87499999999991,
          "velocity": 0.5039370078740157,
          "duration": 0.11770833333333997
        },
        {
          "name": "G3",
          "midi": 55,
          "time": 101.12499999999991,
          "velocity": 0.5039370078740157,
          "duration": 0.12395833333333428
        },
        {
          "name": "F3",
          "midi": 53,
          "time": 101.37499999999991,
          "velocity": 0.5039370078740157,
          "duration": 0.23645833333333144
        },
        {
          "name": "D3",
          "midi": 50,
          "time": 101.62499999999991,
          "velocity": 0.5039370078740157,
          "duration": 0.11770833333333997
        },
        {
          "name": "F3",
          "midi": 53,
          "time": 101.74999999999991,
          "velocity": 0.5039370078740157,
          "duration": 0.11770833333333997
        },
        {
          "name": "G3",
          "midi": 55,
          "time": 101.87499999999991,
          "velocity": 0.5039370078740157,
          "duration": 0.11770833333333997
        },
        {
          "name": "B2",
          "midi": 47,
          "time": 101.99999999999991,
          "velocity": 0.5039370078740157,
          "duration": 0.11770833333333997
        },
        {
          "name": "G3",
          "midi": 55,
          "time": 102.12499999999991,
          "velocity": 0.5039370078740157,
          "duration": 0.11770833333333997
        },
        {
          "name": "D4",
          "midi": 62,
          "time": 102.24999999999991,
          "velocity": 0.5039370078740157,
          "duration": 0.11770833333333997
        },
        {
          "name": "F4",
          "midi": 65,
          "time": 102.24999999999991,
          "velocity": 0.5039370078740157,
          "duration": 0.11770833333333997
        },
        {
          "name": "D4",
          "midi": 62,
          "time": 102.37499999999991,
          "velocity": 0.5039370078740157,
          "duration": 0.11770833333333997
        },
        {
          "name": "A3",
          "midi": 57,
          "time": 102.49999999999991,
          "velocity": 0.5039370078740157,
          "duration": 0.12395833333333428
        },
        {
          "name": "G4",
          "midi": 67,
          "time": 102.49999999999991,
          "velocity": 0.5039370078740157,
          "duration": 0.12395833333333428
        },
        {
          "name": "F4",
          "midi": 65,
          "time": 102.74999999999991,
          "velocity": 0.5039370078740157,
          "duration": 0.11770833333333997
        },
        {
          "name": "G#3",
          "midi": 56,
          "time": 102.87499999999991,
          "velocity": 0.5039370078740157,
          "duration": 0.11770833333333997
        },
        {
          "name": "C4",
          "midi": 60,
          "time": 102.87499999999991,
          "velocity": 0.5039370078740157,
          "duration": 0.11770833333333997
        },
        {
          "name": "D4",
          "midi": 62,
          "time": 102.99999999999991,
          "velocity": 0.5039370078740157,
          "duration": 0.11770833333333997
        },
        {
          "name": "G3",
          "midi": 55,
          "time": 103.12499999999991,
          "velocity": 0.5039370078740157,
          "duration": 0.12395833333333428
        },
        {
          "name": "C4",
          "midi": 60,
          "time": 103.12499999999991,
          "velocity": 0.5039370078740157,
          "duration": 0.12395833333333428
        },
        {
          "name": "F3",
          "midi": 53,
          "time": 103.37499999999991,
          "velocity": 0.5039370078740157,
          "duration": 0.23645833333333144
        },
        {
          "name": "A3",
          "midi": 57,
          "time": 103.37499999999991,
          "velocity": 0.5039370078740157,
          "duration": 0.23645833333333144
        },
        {
          "name": "D3",
          "midi": 50,
          "time": 103.62499999999991,
          "velocity": 0.5039370078740157,
          "duration": 0.11770833333333997
        },
        {
          "name": "G3",
          "midi": 55,
          "time": 103.62499999999991,
          "velocity": 0.5039370078740157,
          "duration": 0.11770833333333997
        },
        {
          "name": "F3",
          "midi": 53,
          "time": 103.74999999999991,
          "velocity": 0.5039370078740157,
          "duration": 0.11770833333333997
        },
        {
          "name": "A3",
          "midi": 57,
          "time": 103.74999999999991,
          "velocity": 0.5039370078740157,
          "duration": 0.11770833333333997
        },
        {
          "name": "G3",
          "midi": 55,
          "time": 103.87499999999991,
          "velocity": 0.5039370078740157,
          "duration": 0.11770833333333997
        },
        {
          "name": "C4",
          "midi": 60,
          "time": 103.87499999999991,
          "velocity": 0.5039370078740157,
          "duration": 0.11770833333333997
        },
        {
          "name": "A#3",
          "midi": 58,
          "time": 103.99999999999991,
          "velocity": 0.5039370078740157,
          "duration": 1.4239583333333314
        },
        {
          "name": "D3",
          "midi": 50,
          "time": 103.99999999999991,
          "velocity": 0.5039370078740157,
          "duration": 0.11770833333333997
        },
        {
          "name": "D3",
          "midi": 50,
          "time": 104.12499999999991,
          "velocity": 0.5118110236220472,
          "duration": 0.11770833333333997
        },
        {
          "name": "D4",
          "midi": 62,
          "time": 104.24999999999991,
          "velocity": 0.5196850393700787,
          "duration": 0.12395833333333428
        },
        {
          "name": "A3",
          "midi": 57,
          "time": 104.49999999999991,
          "velocity": 0.5354330708661418,
          "duration": 0.18645833333333428
        },
        {
          "name": "G#3",
          "midi": 56,
          "time": 104.87499999999991,
          "velocity": 0.5590551181102362,
          "duration": 0.11770833333333997
        },
        {
          "name": "G3",
          "midi": 55,
          "time": 105.12499999999991,
          "velocity": 0.5748031496062992,
          "duration": 0.12395833333333428
        },
        {
          "name": "F3",
          "midi": 53,
          "time": 105.37499999999991,
          "velocity": 0.5905511811023622,
          "duration": 0.23645833333333144
        },
        {
          "name": "F4",
          "midi": 65,
          "time": 105.49999999999991,
          "velocity": 0.5984251968503937,
          "duration": 0.4739583333333286
        },
        {
          "name": "D3",
          "midi": 50,
          "time": 105.62499999999991,
          "velocity": 0.6062992125984252,
          "duration": 0.11770833333333997
        },
        {
          "name": "F3",
          "midi": 53,
          "time": 105.74999999999991,
          "velocity": 0.6141732283464567,
          "duration": 0.11770833333333997
        },
        {
          "name": "G3",
          "midi": 55,
          "time": 105.87499999999991,
          "velocity": 0.6220472440944882,
          "duration": 0.11770833333332575
        },
        {
          "name": "E4",
          "midi": 64,
          "time": 105.9999999999999,
          "velocity": 0.6299212598425197,
          "duration": 0.9489583333333371
        },
        {
          "name": "C3",
          "midi": 48,
          "time": 105.9999999999999,
          "velocity": 0.6299212598425197,
          "duration": 0.11770833333333997
        },
        {
          "name": "C3",
          "midi": 48,
          "time": 106.1249999999999,
          "velocity": 0.6377952755905512,
          "duration": 0.11770833333333997
        },
        {
          "name": "D4",
          "midi": 62,
          "time": 106.2499999999999,
          "velocity": 0.6456692913385826,
          "duration": 0.12395833333333428
        },
        {
          "name": "A3",
          "midi": 57,
          "time": 106.4999999999999,
          "velocity": 0.6614173228346457,
          "duration": 0.18645833333333428
        },
        {
          "name": "G#3",
          "midi": 56,
          "time": 106.8749999999999,
          "velocity": 0.6850393700787402,
          "duration": 0.11770833333333997
        },
        {
          "name": "D4",
          "midi": 62,
          "time": 106.9999999999999,
          "velocity": 0.6929133858267716,
          "duration": 0.9489583333333371
        },
        {
          "name": "G3",
          "midi": 55,
          "time": 107.1249999999999,
          "velocity": 0.7007874015748031,
          "duration": 0.12395833333333428
        },
        {
          "name": "F3",
          "midi": 53,
          "time": 107.3749999999999,
          "velocity": 0.7165354330708661,
          "duration": 0.23645833333333144
        },
        {
          "name": "D3",
          "midi": 50,
          "time": 107.6249999999999,
          "velocity": 0.7322834645669292,
          "duration": 0.11770833333333997
        },
        {
          "name": "F3",
          "midi": 53,
          "time": 107.7499999999999,
          "velocity": 0.7401574803149606,
          "duration": 0.11770833333333997
        },
        {
          "name": "G3",
          "midi": 55,
          "time": 107.8749999999999,
          "velocity": 0.7480314960629921,
          "duration": 0.11770833333333997
        },
        {
          "name": "D3",
          "midi": 50,
          "time": 107.9999999999999,
          "velocity": 0.7559055118110236,
          "duration": 0.11770833333333997
        },
        {
          "name": "D4",
          "midi": 62,
          "time": 107.9999999999999,
          "velocity": 0.7559055118110236,
          "duration": 0.11770833333333997
        },
        {
          "name": "D3",
          "midi": 50,
          "time": 108.1249999999999,
          "velocity": 0.7559055118110236,
          "duration": 0.11770833333333997
        },
        {
          "name": "D4",
          "midi": 62,
          "time": 108.2499999999999,
          "velocity": 0.905511811023622,
          "duration": 0.12395833333333428
        },
        {
          "name": "F4",
          "midi": 65,
          "time": 108.2499999999999,
          "velocity": 0.905511811023622,
          "duration": 0.12395833333333428
        },
        {
          "name": "A3",
          "midi": 57,
          "time": 108.4999999999999,
          "velocity": 0.905511811023622,
          "duration": 0.18645833333333428
        },
        {
          "name": "E4",
          "midi": 64,
          "time": 108.4999999999999,
          "velocity": 0.905511811023622,
          "duration": 0.18645833333333428
        },
        {
          "name": "G#3",
          "midi": 56,
          "time": 108.8749999999999,
          "velocity": 0.905511811023622,
          "duration": 0.12395833333333428
        },
        {
          "name": "C4",
          "midi": 60,
          "time": 108.8749999999999,
          "velocity": 0.905511811023622,
          "duration": 0.12395833333333428
        },
        {
          "name": "G3",
          "midi": 55,
          "time": 109.1249999999999,
          "velocity": 0.905511811023622,
          "duration": 0.12395833333333428
        },
        {
          "name": "E4",
          "midi": 64,
          "time": 109.1249999999999,
          "velocity": 0.905511811023622,
          "duration": 0.12395833333333428
        },
        {
          "name": "F3",
          "midi": 53,
          "time": 109.3749999999999,
          "velocity": 0.905511811023622,
          "duration": 0.24270833333333997
        },
        {
          "name": "D4",
          "midi": 62,
          "time": 109.3749999999999,
          "velocity": 0.905511811023622,
          "duration": 0.24270833333333997
        },
        {
          "name": "D3",
          "midi": 50,
          "time": 109.6249999999999,
          "velocity": 0.7559055118110236,
          "duration": 0.11770833333333997
        },
        {
          "name": "G3",
          "midi": 55,
          "time": 109.6249999999999,
          "velocity": 0.7559055118110236,
          "duration": 0.11770833333333997
        },
        {
          "name": "F3",
          "midi": 53,
          "time": 109.7499999999999,
          "velocity": 0.7559055118110236,
          "duration": 0.11770833333333997
        },
        {
          "name": "A3",
          "midi": 57,
          "time": 109.7499999999999,
          "velocity": 0.7559055118110236,
          "duration": 0.11770833333333997
        },
        {
          "name": "G3",
          "midi": 55,
          "time": 109.8749999999999,
          "velocity": 0.7559055118110236,
          "duration": 0.11770833333333997
        },
        {
          "name": "C4",
          "midi": 60,
          "time": 109.8749999999999,
          "velocity": 0.7559055118110236,
          "duration": 0.11770833333333997
        },
        {
          "name": "D3",
          "midi": 50,
          "time": 109.9999999999999,
          "velocity": 0.7559055118110236,
          "duration": 0.11770833333333997
        },
        {
          "name": "D3",
          "midi": 50,
          "time": 110.1249999999999,
          "velocity": 0.7559055118110236,
          "duration": 0.11770833333333997
        },
        {
          "name": "D4",
          "midi": 62,
          "time": 110.2499999999999,
          "velocity": 0.905511811023622,
          "duration": 0.12395833333333428
        },
        {
          "name": "F4",
          "midi": 65,
          "time": 110.2499999999999,
          "velocity": 0.905511811023622,
          "duration": 0.12395833333333428
        },
        {
          "name": "A3",
          "midi": 57,
          "time": 110.4999999999999,
          "velocity": 0.905511811023622,
          "duration": 0.18645833333333428
        },
        {
          "name": "E4",
          "midi": 64,
          "time": 110.4999999999999,
          "velocity": 0.905511811023622,
          "duration": 0.18645833333333428
        },
        {
          "name": "G#3",
          "midi": 56,
          "time": 110.8749999999999,
          "velocity": 0.905511811023622,
          "duration": 0.12395833333333428
        },
        {
          "name": "C4",
          "midi": 60,
          "time": 110.8749999999999,
          "velocity": 0.905511811023622,
          "duration": 0.12395833333333428
        },
        {
          "name": "G3",
          "midi": 55,
          "time": 111.1249999999999,
          "velocity": 0.905511811023622,
          "duration": 0.12395833333333428
        },
        {
          "name": "E4",
          "midi": 64,
          "time": 111.1249999999999,
          "velocity": 0.905511811023622,
          "duration": 0.12395833333333428
        },
        {
          "name": "F3",
          "midi": 53,
          "time": 111.3749999999999,
          "velocity": 0.905511811023622,
          "duration": 0.24270833333333997
        },
        {
          "name": "D4",
          "midi": 62,
          "time": 111.3749999999999,
          "velocity": 0.905511811023622,
          "duration": 0.24270833333333997
        },
        {
          "name": "D3",
          "midi": 50,
          "time": 111.6249999999999,
          "velocity": 0.7559055118110236,
          "duration": 0.11770833333333997
        },
        {
          "name": "G3",
          "midi": 55,
          "time": 111.6249999999999,
          "velocity": 0.7559055118110236,
          "duration": 0.11770833333333997
        },
        {
          "name": "F3",
          "midi": 53,
          "time": 111.7499999999999,
          "velocity": 0.7559055118110236,
          "duration": 0.11770833333333997
        },
        {
          "name": "A3",
          "midi": 57,
          "time": 111.7499999999999,
          "velocity": 0.7559055118110236,
          "duration": 0.11770833333333997
        },
        {
          "name": "G3",
          "midi": 55,
          "time": 111.8749999999999,
          "velocity": 0.7559055118110236,
          "duration": 0.11770833333333997
        },
        {
          "name": "C4",
          "midi": 60,
          "time": 111.8749999999999,
          "velocity": 0.7559055118110236,
          "duration": 0.11770833333333997
        },
        {
          "name": "F3",
          "midi": 53,
          "time": 111.9999999999999,
          "velocity": 0.5039370078740157,
          "duration": 0.23645833333333144
        },
        {
          "name": "A#3",
          "midi": 58,
          "time": 111.9999999999999,
          "velocity": 0.5039370078740157,
          "duration": 0.23645833333333144
        },
        {
          "name": "F3",
          "midi": 53,
          "time": 112.2499999999999,
          "velocity": 0.5039370078740157,
          "duration": 0.23645833333333144
        },
        {
          "name": "A#3",
          "midi": 58,
          "time": 112.2499999999999,
          "velocity": 0.5039370078740157,
          "duration": 0.23645833333333144
        },
        {
          "name": "A#2",
          "midi": 46,
          "time": 112.4999999999999,
          "velocity": 0.5039370078740157,
          "duration": 0.11770833333333997
        },
        {
          "name": "F3",
          "midi": 53,
          "time": 112.6249999999999,
          "velocity": 0.5039370078740157,
          "duration": 0.23645833333333144
        },
        {
          "name": "A#3",
          "midi": 58,
          "time": 112.6249999999999,
          "velocity": 0.5039370078740157,
          "duration": 0.23645833333333144
        },
        {
          "name": "F3",
          "midi": 53,
          "time": 112.8749999999999,
          "velocity": 0.5039370078740157,
          "duration": 0.23645833333333144
        },
        {
          "name": "A#3",
          "midi": 58,
          "time": 112.8749999999999,
          "velocity": 0.5039370078740157,
          "duration": 0.23645833333333144
        },
        {
          "name": "F3",
          "midi": 53,
          "time": 113.1249999999999,
          "velocity": 0.5039370078740157,
          "duration": 0.23645833333333144
        },
        {
          "name": "A#3",
          "midi": 58,
          "time": 113.1249999999999,
          "velocity": 0.5039370078740157,
          "duration": 0.23645833333333144
        },
        {
          "name": "A#2",
          "midi": 46,
          "time": 113.3749999999999,
          "velocity": 0.5039370078740157,
          "duration": 0.11770833333333997
        },
        {
          "name": "A#2",
          "midi": 46,
          "time": 113.4999999999999,
          "velocity": 0.5039370078740157,
          "duration": 0.11770833333333997
        },
        {
          "name": "A#2",
          "midi": 46,
          "time": 113.6249999999999,
          "velocity": 0.5039370078740157,
          "duration": 0.11770833333333997
        },
        {
          "name": "F3",
          "midi": 53,
          "time": 113.7499999999999,
          "velocity": 0.5039370078740157,
          "duration": 0.23645833333333144
        },
        {
          "name": "A#3",
          "midi": 58,
          "time": 113.7499999999999,
          "velocity": 0.5039370078740157,
          "duration": 0.23645833333333144
        },
        {
          "name": "G3",
          "midi": 55,
          "time": 113.9999999999999,
          "velocity": 0.5039370078740157,
          "duration": 0.23645833333333144
        },
        {
          "name": "C4",
          "midi": 60,
          "time": 113.9999999999999,
          "velocity": 0.5039370078740157,
          "duration": 0.23645833333333144
        },
        {
          "name": "G3",
          "midi": 55,
          "time": 114.2499999999999,
          "velocity": 0.5039370078740157,
          "duration": 0.23645833333333144
        },
        {
          "name": "C4",
          "midi": 60,
          "time": 114.2499999999999,
          "velocity": 0.5039370078740157,
          "duration": 0.23645833333333144
        },
        {
          "name": "C3",
          "midi": 48,
          "time": 114.4999999999999,
          "velocity": 0.5039370078740157,
          "duration": 0.11770833333333997
        },
        {
          "name": "G3",
          "midi": 55,
          "time": 114.6249999999999,
          "velocity": 0.5039370078740157,
          "duration": 0.23645833333333144
        },
        {
          "name": "C4",
          "midi": 60,
          "time": 114.6249999999999,
          "velocity": 0.5039370078740157,
          "duration": 0.23645833333333144
        },
        {
          "name": "G3",
          "midi": 55,
          "time": 114.8749999999999,
          "velocity": 0.5039370078740157,
          "duration": 0.23645833333333144
        },
        {
          "name": "C4",
          "midi": 60,
          "time": 114.8749999999999,
          "velocity": 0.5039370078740157,
          "duration": 0.23645833333333144
        },
        {
          "name": "G3",
          "midi": 55,
          "time": 115.1249999999999,
          "velocity": 0.5039370078740157,
          "duration": 0.23645833333333144
        },
        {
          "name": "C4",
          "midi": 60,
          "time": 115.1249999999999,
          "velocity": 0.5039370078740157,
          "duration": 0.23645833333333144
        },
        {
          "name": "C3",
          "midi": 48,
          "time": 115.3749999999999,
          "velocity": 0.5039370078740157,
          "duration": 0.11770833333333997
        },
        {
          "name": "C3",
          "midi": 48,
          "time": 115.4999999999999,
          "velocity": 0.5039370078740157,
          "duration": 0.11770833333333997
        },
        {
          "name": "C3",
          "midi": 48,
          "time": 115.6249999999999,
          "velocity": 0.5039370078740157,
          "duration": 0.11770833333333997
        },
        {
          "name": "G3",
          "midi": 55,
          "time": 115.7499999999999,
          "velocity": 0.5039370078740157,
          "duration": 0.23645833333333144
        },
        {
          "name": "C4",
          "midi": 60,
          "time": 115.7499999999999,
          "velocity": 0.5039370078740157,
          "duration": 0.23645833333333144
        },
        {
          "name": "A3",
          "midi": 57,
          "time": 115.9999999999999,
          "velocity": 0.5039370078740157,
          "duration": 0.23645833333333144
        },
        {
          "name": "D4",
          "midi": 62,
          "time": 115.9999999999999,
          "velocity": 0.5039370078740157,
          "duration": 0.23645833333333144
        },
        {
          "name": "A3",
          "midi": 57,
          "time": 116.2499999999999,
          "velocity": 0.5039370078740157,
          "duration": 0.23645833333333144
        },
        {
          "name": "D4",
          "midi": 62,
          "time": 116.2499999999999,
          "velocity": 0.5039370078740157,
          "duration": 0.23645833333333144
        },
        {
          "name": "D3",
          "midi": 50,
          "time": 116.4999999999999,
          "velocity": 0.5039370078740157,
          "duration": 0.11770833333333997
        },
        {
          "name": "A3",
          "midi": 57,
          "time": 116.6249999999999,
          "velocity": 0.5039370078740157,
          "duration": 0.23645833333333144
        },
        {
          "name": "D4",
          "midi": 62,
          "time": 116.6249999999999,
          "velocity": 0.5039370078740157,
          "duration": 0.23645833333333144
        },
        {
          "name": "G#3",
          "midi": 56,
          "time": 116.8749999999999,
          "velocity": 0.5039370078740157,
          "duration": 0.23645833333333144
        },
        {
          "name": "C#4",
          "midi": 61,
          "time": 116.8749999999999,
          "velocity": 0.5039370078740157,
          "duration": 0.23645833333333144
        },
        {
          "name": "G#3",
          "midi": 56,
          "time": 117.1249999999999,
          "velocity": 0.5039370078740157,
          "duration": 0.23645833333333144
        },
        {
          "name": "C#4",
          "midi": 61,
          "time": 117.1249999999999,
          "velocity": 0.5039370078740157,
          "duration": 0.23645833333333144
        },
        {
          "name": "C#3",
          "midi": 49,
          "time": 117.3749999999999,
          "velocity": 0.5039370078740157,
          "duration": 0.11770833333333997
        },
        {
          "name": "C#3",
          "midi": 49,
          "time": 117.4999999999999,
          "velocity": 0.5039370078740157,
          "duration": 0.11770833333333997
        },
        {
          "name": "C#3",
          "midi": 49,
          "time": 117.6249999999999,
          "velocity": 0.5039370078740157,
          "duration": 0.11770833333333997
        },
        {
          "name": "G#3",
          "midi": 56,
          "time": 117.7499999999999,
          "velocity": 0.5039370078740157,
          "duration": 0.23645833333333144
        },
        {
          "name": "C#4",
          "midi": 61,
          "time": 117.7499999999999,
          "velocity": 0.5039370078740157,
          "duration": 0.23645833333333144
        },
        {
          "name": "G3",
          "midi": 55,
          "time": 117.9999999999999,
          "velocity": 0.5039370078740157,
          "duration": 0.23645833333333144
        },
        {
          "name": "C4",
          "midi": 60,
          "time": 117.9999999999999,
          "velocity": 0.5039370078740157,
          "duration": 0.23645833333333144
        },
        {
          "name": "G3",
          "midi": 55,
          "time": 118.2499999999999,
          "velocity": 0.5039370078740157,
          "duration": 0.23645833333333144
        },
        {
          "name": "C4",
          "midi": 60,
          "time": 118.2499999999999,
          "velocity": 0.5039370078740157,
          "duration": 0.23645833333333144
        },
        {
          "name": "C3",
          "midi": 48,
          "time": 118.4999999999999,
          "velocity": 0.5039370078740157,
          "duration": 0.11770833333333997
        },
        {
          "name": "G3",
          "midi": 55,
          "time": 118.6249999999999,
          "velocity": 0.5039370078740157,
          "duration": 0.23645833333333144
        },
        {
          "name": "C4",
          "midi": 60,
          "time": 118.6249999999999,
          "velocity": 0.5039370078740157,
          "duration": 0.23645833333333144
        },
        {
          "name": "F#3",
          "midi": 54,
          "time": 118.8749999999999,
          "velocity": 0.5039370078740157,
          "duration": 0.23645833333333144
        },
        {
          "name": "B3",
          "midi": 59,
          "time": 118.8749999999999,
          "velocity": 0.5039370078740157,
          "duration": 0.23645833333333144
        },
        {
          "name": "F#3",
          "midi": 54,
          "time": 119.1249999999999,
          "velocity": 0.5039370078740157,
          "duration": 0.23645833333333144
        },
        {
          "name": "B3",
          "midi": 59,
          "time": 119.1249999999999,
          "velocity": 0.5039370078740157,
          "duration": 0.23645833333333144
        },
        {
          "name": "B2",
          "midi": 47,
          "time": 119.3749999999999,
          "velocity": 0.5039370078740157,
          "duration": 0.11770833333333997
        },
        {
          "name": "B2",
          "midi": 47,
          "time": 119.4999999999999,
          "velocity": 0.5039370078740157,
          "duration": 0.11770833333333997
        },
        {
          "name": "B2",
          "midi": 47,
          "time": 119.6249999999999,
          "velocity": 0.5039370078740157,
          "duration": 0.11770833333333997
        },
        {
          "name": "F#3",
          "midi": 54,
          "time": 119.7499999999999,
          "velocity": 0.5039370078740157,
          "duration": 0.23645833333333144
        },
        {
          "name": "B3",
          "midi": 59,
          "time": 119.7499999999999,
          "velocity": 0.5039370078740157,
          "duration": 0.23645833333333144
        },
        {
          "name": "F3",
          "midi": 53,
          "time": 119.9999999999999,
          "velocity": 0.5039370078740157,
          "duration": 0.23645833333333144
        },
        {
          "name": "A#3",
          "midi": 58,
          "time": 119.9999999999999,
          "velocity": 0.5039370078740157,
          "duration": 0.23645833333333144
        },
        {
          "name": "F3",
          "midi": 53,
          "time": 120.2499999999999,
          "velocity": 0.5039370078740157,
          "duration": 0.23645833333333144
        },
        {
          "name": "A#3",
          "midi": 58,
          "time": 120.2499999999999,
          "velocity": 0.5039370078740157,
          "duration": 0.23645833333333144
        },
        {
          "name": "A#2",
          "midi": 46,
          "time": 120.4999999999999,
          "velocity": 0.5039370078740157,
          "duration": 0.11770833333333997
        },
        {
          "name": "F3",
          "midi": 53,
          "time": 120.6249999999999,
          "velocity": 0.5039370078740157,
          "duration": 0.23645833333333144
        },
        {
          "name": "A#3",
          "midi": 58,
          "time": 120.6249999999999,
          "velocity": 0.5039370078740157,
          "duration": 0.23645833333333144
        },
        {
          "name": "F3",
          "midi": 53,
          "time": 120.8749999999999,
          "velocity": 0.5039370078740157,
          "duration": 0.23645833333333144
        },
        {
          "name": "A#3",
          "midi": 58,
          "time": 120.8749999999999,
          "velocity": 0.5039370078740157,
          "duration": 0.23645833333333144
        },
        {
          "name": "F3",
          "midi": 53,
          "time": 121.1249999999999,
          "velocity": 0.5039370078740157,
          "duration": 0.23645833333333144
        },
        {
          "name": "A#3",
          "midi": 58,
          "time": 121.1249999999999,
          "velocity": 0.5039370078740157,
          "duration": 0.23645833333333144
        },
        {
          "name": "A#2",
          "midi": 46,
          "time": 121.3749999999999,
          "velocity": 0.5039370078740157,
          "duration": 0.11770833333333997
        },
        {
          "name": "A#2",
          "midi": 46,
          "time": 121.4999999999999,
          "velocity": 0.5039370078740157,
          "duration": 0.11770833333333997
        },
        {
          "name": "A#2",
          "midi": 46,
          "time": 121.6249999999999,
          "velocity": 0.5039370078740157,
          "duration": 0.11770833333333997
        },
        {
          "name": "F3",
          "midi": 53,
          "time": 121.7499999999999,
          "velocity": 0.5039370078740157,
          "duration": 0.23645833333333144
        },
        {
          "name": "A#3",
          "midi": 58,
          "time": 121.7499999999999,
          "velocity": 0.5039370078740157,
          "duration": 0.23645833333333144
        },
        {
          "name": "G3",
          "midi": 55,
          "time": 121.9999999999999,
          "velocity": 0.5039370078740157,
          "duration": 0.23645833333333144
        },
        {
          "name": "C4",
          "midi": 60,
          "time": 121.9999999999999,
          "velocity": 0.5039370078740157,
          "duration": 0.23645833333333144
        },
        {
          "name": "G3",
          "midi": 55,
          "time": 122.2499999999999,
          "velocity": 0.5039370078740157,
          "duration": 0.23645833333333144
        },
        {
          "name": "C4",
          "midi": 60,
          "time": 122.2499999999999,
          "velocity": 0.5039370078740157,
          "duration": 0.23645833333333144
        },
        {
          "name": "C3",
          "midi": 48,
          "time": 122.4999999999999,
          "velocity": 0.5039370078740157,
          "duration": 0.11770833333333997
        },
        {
          "name": "G3",
          "midi": 55,
          "time": 122.6249999999999,
          "velocity": 0.5039370078740157,
          "duration": 0.23645833333333144
        },
        {
          "name": "C4",
          "midi": 60,
          "time": 122.6249999999999,
          "velocity": 0.5039370078740157,
          "duration": 0.23645833333333144
        },
        {
          "name": "G3",
          "midi": 55,
          "time": 122.8749999999999,
          "velocity": 0.5039370078740157,
          "duration": 0.23645833333333144
        },
        {
          "name": "C4",
          "midi": 60,
          "time": 122.8749999999999,
          "velocity": 0.5039370078740157,
          "duration": 0.23645833333333144
        },
        {
          "name": "G3",
          "midi": 55,
          "time": 123.1249999999999,
          "velocity": 0.5039370078740157,
          "duration": 0.23645833333333144
        },
        {
          "name": "C4",
          "midi": 60,
          "time": 123.1249999999999,
          "velocity": 0.5039370078740157,
          "duration": 0.23645833333333144
        },
        {
          "name": "C3",
          "midi": 48,
          "time": 123.3749999999999,
          "velocity": 0.5039370078740157,
          "duration": 0.11770833333333997
        },
        {
          "name": "C3",
          "midi": 48,
          "time": 123.4999999999999,
          "velocity": 0.5039370078740157,
          "duration": 0.11770833333333997
        },
        {
          "name": "C3",
          "midi": 48,
          "time": 123.6249999999999,
          "velocity": 0.5039370078740157,
          "duration": 0.11770833333333997
        },
        {
          "name": "G3",
          "midi": 55,
          "time": 123.7499999999999,
          "velocity": 0.5039370078740157,
          "duration": 0.23645833333333144
        },
        {
          "name": "C4",
          "midi": 60,
          "time": 123.7499999999999,
          "velocity": 0.5039370078740157,
          "duration": 0.23645833333333144
        },
        {
          "name": "A3",
          "midi": 57,
          "time": 123.9999999999999,
          "velocity": 0.5039370078740157,
          "duration": 0.23645833333333144
        },
        {
          "name": "D4",
          "midi": 62,
          "time": 123.9999999999999,
          "velocity": 0.5039370078740157,
          "duration": 0.23645833333333144
        },
        {
          "name": "A3",
          "midi": 57,
          "time": 124.2499999999999,
          "velocity": 0.5039370078740157,
          "duration": 0.23645833333333144
        },
        {
          "name": "D4",
          "midi": 62,
          "time": 124.2499999999999,
          "velocity": 0.5039370078740157,
          "duration": 0.23645833333333144
        },
        {
          "name": "D3",
          "midi": 50,
          "time": 124.4999999999999,
          "velocity": 0.5039370078740157,
          "duration": 0.11770833333333997
        },
        {
          "name": "A3",
          "midi": 57,
          "time": 124.6249999999999,
          "velocity": 0.5039370078740157,
          "duration": 0.23645833333333144
        },
        {
          "name": "D4",
          "midi": 62,
          "time": 124.6249999999999,
          "velocity": 0.5039370078740157,
          "duration": 0.23645833333333144
        },
        {
          "name": "A3",
          "midi": 57,
          "time": 124.8749999999999,
          "velocity": 0.5039370078740157,
          "duration": 0.23645833333333144
        },
        {
          "name": "D4",
          "midi": 62,
          "time": 124.8749999999999,
          "velocity": 0.5039370078740157,
          "duration": 0.23645833333333144
        },
        {
          "name": "A3",
          "midi": 57,
          "time": 125.1249999999999,
          "velocity": 0.5039370078740157,
          "duration": 0.23645833333333144
        },
        {
          "name": "D4",
          "midi": 62,
          "time": 125.1249999999999,
          "velocity": 0.5039370078740157,
          "duration": 0.23645833333333144
        },
        {
          "name": "D3",
          "midi": 50,
          "time": 125.3749999999999,
          "velocity": 0.5039370078740157,
          "duration": 0.11770833333333997
        },
        {
          "name": "D3",
          "midi": 50,
          "time": 125.4999999999999,
          "velocity": 0.5039370078740157,
          "duration": 0.11770833333333997
        },
        {
          "name": "D3",
          "midi": 50,
          "time": 125.6249999999999,
          "velocity": 0.5039370078740157,
          "duration": 0.11770833333333997
        },
        {
          "name": "A3",
          "midi": 57,
          "time": 125.7499999999999,
          "velocity": 0.5039370078740157,
          "duration": 0.23645833333333144
        },
        {
          "name": "D4",
          "midi": 62,
          "time": 125.7499999999999,
          "velocity": 0.5039370078740157,
          "duration": 0.23645833333333144
        },
        {
          "name": "A3",
          "midi": 57,
          "time": 125.9999999999999,
          "velocity": 0.5039370078740157,
          "duration": 0.23645833333333144
        },
        {
          "name": "D4",
          "midi": 62,
          "time": 125.9999999999999,
          "velocity": 0.5039370078740157,
          "duration": 0.23645833333333144
        },
        {
          "name": "A3",
          "midi": 57,
          "time": 126.2499999999999,
          "velocity": 0.5039370078740157,
          "duration": 0.23645833333333144
        },
        {
          "name": "D4",
          "midi": 62,
          "time": 126.2499999999999,
          "velocity": 0.5039370078740157,
          "duration": 0.23645833333333144
        },
        {
          "name": "D3",
          "midi": 50,
          "time": 126.4999999999999,
          "velocity": 0.5039370078740157,
          "duration": 0.11770833333333997
        },
        {
          "name": "A3",
          "midi": 57,
          "time": 126.6249999999999,
          "velocity": 0.5039370078740157,
          "duration": 0.23645833333333144
        },
        {
          "name": "D4",
          "midi": 62,
          "time": 126.6249999999999,
          "velocity": 0.5039370078740157,
          "duration": 0.23645833333333144
        },
        {
          "name": "A3",
          "midi": 57,
          "time": 126.8749999999999,
          "velocity": 0.5039370078740157,
          "duration": 0.23645833333333144
        },
        {
          "name": "D4",
          "midi": 62,
          "time": 126.8749999999999,
          "velocity": 0.5039370078740157,
          "duration": 0.23645833333333144
        },
        {
          "name": "A3",
          "midi": 57,
          "time": 127.1249999999999,
          "velocity": 0.5039370078740157,
          "duration": 0.23645833333333144
        },
        {
          "name": "D4",
          "midi": 62,
          "time": 127.1249999999999,
          "velocity": 0.5039370078740157,
          "duration": 0.23645833333333144
        },
        {
          "name": "D3",
          "midi": 50,
          "time": 127.3749999999999,
          "velocity": 0.5039370078740157,
          "duration": 0.11770833333333997
        },
        {
          "name": "D3",
          "midi": 50,
          "time": 127.4999999999999,
          "velocity": 0.5039370078740157,
          "duration": 0.11770833333333997
        },
        {
          "name": "D3",
          "midi": 50,
          "time": 127.6249999999999,
          "velocity": 0.5039370078740157,
          "duration": 0.11770833333333997
        },
        {
          "name": "A3",
          "midi": 57,
          "time": 127.7499999999999,
          "velocity": 0.5039370078740157,
          "duration": 0.23645833333333144
        },
        {
          "name": "D4",
          "midi": 62,
          "time": 127.7499999999999,
          "velocity": 0.5039370078740157,
          "duration": 0.23645833333333144
        },
        {
          "name": "F3",
          "midi": 53,
          "time": 127.9999999999999,
          "velocity": 0.5039370078740157,
          "duration": 0.23645833333334565
        },
        {
          "name": "A#3",
          "midi": 58,
          "time": 127.9999999999999,
          "velocity": 0.5039370078740157,
          "duration": 0.23645833333334565
        },
        {
          "name": "F3",
          "midi": 53,
          "time": 128.24999999999991,
          "velocity": 0.5039370078740157,
          "duration": 0.23645833333333144
        },
        {
          "name": "A#3",
          "midi": 58,
          "time": 128.24999999999991,
          "velocity": 0.5039370078740157,
          "duration": 0.23645833333333144
        },
        {
          "name": "A#2",
          "midi": 46,
          "time": 128.49999999999991,
          "velocity": 0.5039370078740157,
          "duration": 0.11770833333332575
        },
        {
          "name": "F3",
          "midi": 53,
          "time": 128.62499999999991,
          "velocity": 0.5039370078740157,
          "duration": 0.23645833333333144
        },
        {
          "name": "A#3",
          "midi": 58,
          "time": 128.62499999999991,
          "velocity": 0.5039370078740157,
          "duration": 0.23645833333333144
        },
        {
          "name": "F3",
          "midi": 53,
          "time": 128.87499999999991,
          "velocity": 0.5039370078740157,
          "duration": 0.23645833333333144
        },
        {
          "name": "A#3",
          "midi": 58,
          "time": 128.87499999999991,
          "velocity": 0.5039370078740157,
          "duration": 0.23645833333333144
        },
        {
          "name": "F3",
          "midi": 53,
          "time": 129.12499999999991,
          "velocity": 0.5039370078740157,
          "duration": 0.23645833333333144
        },
        {
          "name": "A#3",
          "midi": 58,
          "time": 129.12499999999991,
          "velocity": 0.5039370078740157,
          "duration": 0.23645833333333144
        },
        {
          "name": "A#2",
          "midi": 46,
          "time": 129.37499999999991,
          "velocity": 0.5039370078740157,
          "duration": 0.11770833333332575
        },
        {
          "name": "A#2",
          "midi": 46,
          "time": 129.49999999999991,
          "velocity": 0.5039370078740157,
          "duration": 0.11770833333332575
        },
        {
          "name": "A#2",
          "midi": 46,
          "time": 129.62499999999991,
          "velocity": 0.5039370078740157,
          "duration": 0.11770833333332575
        },
        {
          "name": "F3",
          "midi": 53,
          "time": 129.74999999999991,
          "velocity": 0.5039370078740157,
          "duration": 0.23645833333333144
        },
        {
          "name": "A#3",
          "midi": 58,
          "time": 129.74999999999991,
          "velocity": 0.5039370078740157,
          "duration": 0.23645833333333144
        },
        {
          "name": "G3",
          "midi": 55,
          "time": 129.99999999999991,
          "velocity": 0.5039370078740157,
          "duration": 0.23645833333333144
        },
        {
          "name": "C4",
          "midi": 60,
          "time": 129.99999999999991,
          "velocity": 0.5039370078740157,
          "duration": 0.23645833333333144
        },
        {
          "name": "G3",
          "midi": 55,
          "time": 130.24999999999991,
          "velocity": 0.5039370078740157,
          "duration": 0.23645833333333144
        },
        {
          "name": "C4",
          "midi": 60,
          "time": 130.24999999999991,
          "velocity": 0.5039370078740157,
          "duration": 0.23645833333333144
        },
        {
          "name": "C3",
          "midi": 48,
          "time": 130.49999999999991,
          "velocity": 0.5039370078740157,
          "duration": 0.11770833333332575
        },
        {
          "name": "G3",
          "midi": 55,
          "time": 130.62499999999991,
          "velocity": 0.5039370078740157,
          "duration": 0.23645833333333144
        },
        {
          "name": "C4",
          "midi": 60,
          "time": 130.62499999999991,
          "velocity": 0.5039370078740157,
          "duration": 0.23645833333333144
        },
        {
          "name": "G3",
          "midi": 55,
          "time": 130.87499999999991,
          "velocity": 0.5039370078740157,
          "duration": 0.23645833333333144
        },
        {
          "name": "C4",
          "midi": 60,
          "time": 130.87499999999991,
          "velocity": 0.5039370078740157,
          "duration": 0.23645833333333144
        },
        {
          "name": "G3",
          "midi": 55,
          "time": 131.12499999999991,
          "velocity": 0.5039370078740157,
          "duration": 0.23645833333333144
        },
        {
          "name": "C4",
          "midi": 60,
          "time": 131.12499999999991,
          "velocity": 0.5039370078740157,
          "duration": 0.23645833333333144
        },
        {
          "name": "C3",
          "midi": 48,
          "time": 131.37499999999991,
          "velocity": 0.5039370078740157,
          "duration": 0.11770833333332575
        },
        {
          "name": "C3",
          "midi": 48,
          "time": 131.49999999999991,
          "velocity": 0.5039370078740157,
          "duration": 0.11770833333332575
        },
        {
          "name": "C3",
          "midi": 48,
          "time": 131.62499999999991,
          "velocity": 0.5039370078740157,
          "duration": 0.11770833333332575
        },
        {
          "name": "G3",
          "midi": 55,
          "time": 131.74999999999991,
          "velocity": 0.5039370078740157,
          "duration": 0.23645833333333144
        },
        {
          "name": "C4",
          "midi": 60,
          "time": 131.74999999999991,
          "velocity": 0.5039370078740157,
          "duration": 0.23645833333333144
        },
        {
          "name": "A3",
          "midi": 57,
          "time": 131.99999999999991,
          "velocity": 0.5039370078740157,
          "duration": 0.23645833333333144
        },
        {
          "name": "D4",
          "midi": 62,
          "time": 131.99999999999991,
          "velocity": 0.5039370078740157,
          "duration": 0.23645833333333144
        },
        {
          "name": "A3",
          "midi": 57,
          "time": 132.24999999999991,
          "velocity": 0.5039370078740157,
          "duration": 0.23645833333333144
        },
        {
          "name": "D4",
          "midi": 62,
          "time": 132.24999999999991,
          "velocity": 0.5039370078740157,
          "duration": 0.23645833333333144
        },
        {
          "name": "D3",
          "midi": 50,
          "time": 132.49999999999991,
          "velocity": 0.5039370078740157,
          "duration": 0.11770833333332575
        },
        {
          "name": "A3",
          "midi": 57,
          "time": 132.62499999999991,
          "velocity": 0.5039370078740157,
          "duration": 0.23645833333333144
        },
        {
          "name": "D4",
          "midi": 62,
          "time": 132.62499999999991,
          "velocity": 0.5039370078740157,
          "duration": 0.23645833333333144
        },
        {
          "name": "G#3",
          "midi": 56,
          "time": 132.87499999999991,
          "velocity": 0.5039370078740157,
          "duration": 0.23645833333333144
        },
        {
          "name": "C#4",
          "midi": 61,
          "time": 132.87499999999991,
          "velocity": 0.5039370078740157,
          "duration": 0.23645833333333144
        },
        {
          "name": "G#3",
          "midi": 56,
          "time": 133.12499999999991,
          "velocity": 0.5039370078740157,
          "duration": 0.23645833333333144
        },
        {
          "name": "C#4",
          "midi": 61,
          "time": 133.12499999999991,
          "velocity": 0.5039370078740157,
          "duration": 0.23645833333333144
        },
        {
          "name": "C#3",
          "midi": 49,
          "time": 133.37499999999991,
          "velocity": 0.5039370078740157,
          "duration": 0.11770833333332575
        },
        {
          "name": "C#3",
          "midi": 49,
          "time": 133.49999999999991,
          "velocity": 0.5039370078740157,
          "duration": 0.11770833333332575
        },
        {
          "name": "C#3",
          "midi": 49,
          "time": 133.62499999999991,
          "velocity": 0.5039370078740157,
          "duration": 0.11770833333332575
        },
        {
          "name": "G#3",
          "midi": 56,
          "time": 133.74999999999991,
          "velocity": 0.5039370078740157,
          "duration": 0.23645833333333144
        },
        {
          "name": "C#4",
          "midi": 61,
          "time": 133.74999999999991,
          "velocity": 0.5039370078740157,
          "duration": 0.23645833333333144
        },
        {
          "name": "G3",
          "midi": 55,
          "time": 133.99999999999991,
          "velocity": 0.5039370078740157,
          "duration": 0.23645833333333144
        },
        {
          "name": "C4",
          "midi": 60,
          "time": 133.99999999999991,
          "velocity": 0.5039370078740157,
          "duration": 0.23645833333333144
        },
        {
          "name": "G3",
          "midi": 55,
          "time": 134.24999999999991,
          "velocity": 0.5039370078740157,
          "duration": 0.23645833333333144
        },
        {
          "name": "C4",
          "midi": 60,
          "time": 134.24999999999991,
          "velocity": 0.5039370078740157,
          "duration": 0.23645833333333144
        },
        {
          "name": "C3",
          "midi": 48,
          "time": 134.49999999999991,
          "velocity": 0.5039370078740157,
          "duration": 0.11770833333332575
        },
        {
          "name": "G3",
          "midi": 55,
          "time": 134.62499999999991,
          "velocity": 0.5039370078740157,
          "duration": 0.23645833333333144
        },
        {
          "name": "C4",
          "midi": 60,
          "time": 134.62499999999991,
          "velocity": 0.5039370078740157,
          "duration": 0.23645833333333144
        },
        {
          "name": "F#3",
          "midi": 54,
          "time": 134.87499999999991,
          "velocity": 0.5039370078740157,
          "duration": 0.23645833333333144
        },
        {
          "name": "B3",
          "midi": 59,
          "time": 134.87499999999991,
          "velocity": 0.5039370078740157,
          "duration": 0.23645833333333144
        },
        {
          "name": "F#3",
          "midi": 54,
          "time": 135.12499999999991,
          "velocity": 0.5039370078740157,
          "duration": 0.23645833333333144
        },
        {
          "name": "B3",
          "midi": 59,
          "time": 135.12499999999991,
          "velocity": 0.5039370078740157,
          "duration": 0.23645833333333144
        },
        {
          "name": "B2",
          "midi": 47,
          "time": 135.37499999999991,
          "velocity": 0.5039370078740157,
          "duration": 0.11770833333332575
        },
        {
          "name": "B2",
          "midi": 47,
          "time": 135.49999999999991,
          "velocity": 0.5039370078740157,
          "duration": 0.11770833333332575
        },
        {
          "name": "B2",
          "midi": 47,
          "time": 135.62499999999991,
          "velocity": 0.5039370078740157,
          "duration": 0.11770833333332575
        },
        {
          "name": "F#3",
          "midi": 54,
          "time": 135.74999999999991,
          "velocity": 0.5039370078740157,
          "duration": 0.23645833333333144
        },
        {
          "name": "B3",
          "midi": 59,
          "time": 135.74999999999991,
          "velocity": 0.5039370078740157,
          "duration": 0.23645833333333144
        },
        {
          "name": "F3",
          "midi": 53,
          "time": 135.99999999999991,
          "velocity": 0.5039370078740157,
          "duration": 0.23645833333333144
        },
        {
          "name": "A#3",
          "midi": 58,
          "time": 135.99999999999991,
          "velocity": 0.5039370078740157,
          "duration": 0.23645833333333144
        },
        {
          "name": "F3",
          "midi": 53,
          "time": 136.24999999999991,
          "velocity": 0.5039370078740157,
          "duration": 0.23645833333333144
        },
        {
          "name": "A#3",
          "midi": 58,
          "time": 136.24999999999991,
          "velocity": 0.5039370078740157,
          "duration": 0.23645833333333144
        },
        {
          "name": "A#2",
          "midi": 46,
          "time": 136.49999999999991,
          "velocity": 0.5039370078740157,
          "duration": 0.11770833333332575
        },
        {
          "name": "F3",
          "midi": 53,
          "time": 136.62499999999991,
          "velocity": 0.5039370078740157,
          "duration": 0.23645833333333144
        },
        {
          "name": "A#3",
          "midi": 58,
          "time": 136.62499999999991,
          "velocity": 0.5039370078740157,
          "duration": 0.23645833333333144
        },
        {
          "name": "F3",
          "midi": 53,
          "time": 136.87499999999991,
          "velocity": 0.5039370078740157,
          "duration": 0.23645833333333144
        },
        {
          "name": "A#3",
          "midi": 58,
          "time": 136.87499999999991,
          "velocity": 0.5039370078740157,
          "duration": 0.23645833333333144
        },
        {
          "name": "F3",
          "midi": 53,
          "time": 137.12499999999991,
          "velocity": 0.5039370078740157,
          "duration": 0.23645833333333144
        },
        {
          "name": "A#3",
          "midi": 58,
          "time": 137.12499999999991,
          "velocity": 0.5039370078740157,
          "duration": 0.23645833333333144
        },
        {
          "name": "A#2",
          "midi": 46,
          "time": 137.37499999999991,
          "velocity": 0.5039370078740157,
          "duration": 0.11770833333332575
        },
        {
          "name": "A#2",
          "midi": 46,
          "time": 137.49999999999991,
          "velocity": 0.5039370078740157,
          "duration": 0.11770833333332575
        },
        {
          "name": "A#2",
          "midi": 46,
          "time": 137.62499999999991,
          "velocity": 0.5039370078740157,
          "duration": 0.11770833333332575
        },
        {
          "name": "F3",
          "midi": 53,
          "time": 137.74999999999991,
          "velocity": 0.5039370078740157,
          "duration": 0.23645833333333144
        },
        {
          "name": "A#3",
          "midi": 58,
          "time": 137.74999999999991,
          "velocity": 0.5039370078740157,
          "duration": 0.23645833333333144
        },
        {
          "name": "G3",
          "midi": 55,
          "time": 137.99999999999991,
          "velocity": 0.5039370078740157,
          "duration": 0.23645833333333144
        },
        {
          "name": "C4",
          "midi": 60,
          "time": 137.99999999999991,
          "velocity": 0.5039370078740157,
          "duration": 0.23645833333333144
        },
        {
          "name": "G3",
          "midi": 55,
          "time": 138.24999999999991,
          "velocity": 0.5039370078740157,
          "duration": 0.23645833333333144
        },
        {
          "name": "C4",
          "midi": 60,
          "time": 138.24999999999991,
          "velocity": 0.5039370078740157,
          "duration": 0.23645833333333144
        },
        {
          "name": "C3",
          "midi": 48,
          "time": 138.49999999999991,
          "velocity": 0.5039370078740157,
          "duration": 0.11770833333332575
        },
        {
          "name": "G3",
          "midi": 55,
          "time": 138.62499999999991,
          "velocity": 0.5039370078740157,
          "duration": 0.23645833333333144
        },
        {
          "name": "C4",
          "midi": 60,
          "time": 138.62499999999991,
          "velocity": 0.5039370078740157,
          "duration": 0.23645833333333144
        },
        {
          "name": "G3",
          "midi": 55,
          "time": 138.87499999999991,
          "velocity": 0.5039370078740157,
          "duration": 0.23645833333333144
        },
        {
          "name": "C4",
          "midi": 60,
          "time": 138.87499999999991,
          "velocity": 0.5039370078740157,
          "duration": 0.23645833333333144
        },
        {
          "name": "G3",
          "midi": 55,
          "time": 139.12499999999991,
          "velocity": 0.5039370078740157,
          "duration": 0.23645833333333144
        },
        {
          "name": "C4",
          "midi": 60,
          "time": 139.12499999999991,
          "velocity": 0.5039370078740157,
          "duration": 0.23645833333333144
        },
        {
          "name": "C3",
          "midi": 48,
          "time": 139.37499999999991,
          "velocity": 0.5039370078740157,
          "duration": 0.11770833333332575
        },
        {
          "name": "C3",
          "midi": 48,
          "time": 139.49999999999991,
          "velocity": 0.5039370078740157,
          "duration": 0.11770833333332575
        },
        {
          "name": "C3",
          "midi": 48,
          "time": 139.62499999999991,
          "velocity": 0.5039370078740157,
          "duration": 0.11770833333332575
        },
        {
          "name": "G3",
          "midi": 55,
          "time": 139.74999999999991,
          "velocity": 0.5039370078740157,
          "duration": 0.23645833333333144
        },
        {
          "name": "C4",
          "midi": 60,
          "time": 139.74999999999991,
          "velocity": 0.5039370078740157,
          "duration": 0.23645833333333144
        },
        {
          "name": "D4",
          "midi": 62,
          "time": 139.99999999999991,
          "velocity": 0.5039370078740157,
          "duration": 0.23645833333333144
        },
        {
          "name": "D3",
          "midi": 50,
          "time": 139.99999999999991,
          "velocity": 0.5039370078740157,
          "duration": 0.11770833333332575
        },
        {
          "name": "D3",
          "midi": 50,
          "time": 140.12499999999991,
          "velocity": 0.5039370078740157,
          "duration": 0.11770833333332575
        },
        {
          "name": "D4",
          "midi": 62,
          "time": 140.24999999999991,
          "velocity": 0.5039370078740157,
          "duration": 0.23645833333333144
        },
        {
          "name": "D4",
          "midi": 62,
          "time": 140.24999999999991,
          "velocity": 0.5039370078740157,
          "duration": 0.23645833333333144
        },
        {
          "name": "A3",
          "midi": 57,
          "time": 140.49999999999991,
          "velocity": 0.5039370078740157,
          "duration": 0.18645833333332007
        },
        {
          "name": "D4",
          "midi": 62,
          "time": 140.62499999999991,
          "velocity": 0.5039370078740157,
          "duration": 0.23645833333333144
        },
        {
          "name": "D4",
          "midi": 62,
          "time": 140.87499999999991,
          "velocity": 0.5039370078740157,
          "duration": 0.23645833333333144
        },
        {
          "name": "G#3",
          "midi": 56,
          "time": 140.87499999999991,
          "velocity": 0.5039370078740157,
          "duration": 0.11770833333332575
        },
        {
          "name": "D4",
          "midi": 62,
          "time": 141.12499999999991,
          "velocity": 0.5039370078740157,
          "duration": 0.23645833333333144
        },
        {
          "name": "G3",
          "midi": 55,
          "time": 141.12499999999991,
          "velocity": 0.5039370078740157,
          "duration": 0.12395833333332007
        },
        {
          "name": "F3",
          "midi": 53,
          "time": 141.37499999999991,
          "velocity": 0.5039370078740157,
          "duration": 0.23645833333333144
        },
        {
          "name": "D3",
          "midi": 50,
          "time": 141.62499999999991,
          "velocity": 0.5039370078740157,
          "duration": 0.11770833333332575
        },
        {
          "name": "D4",
          "midi": 62,
          "time": 141.74999999999991,
          "velocity": 0.5039370078740157,
          "duration": 0.23645833333333144
        },
        {
          "name": "F3",
          "midi": 53,
          "time": 141.74999999999991,
          "velocity": 0.5039370078740157,
          "duration": 0.11770833333332575
        },
        {
          "name": "G3",
          "midi": 55,
          "time": 141.87499999999991,
          "velocity": 0.5039370078740157,
          "duration": 0.11770833333332575
        },
        {
          "name": "D4",
          "midi": 62,
          "time": 141.99999999999991,
          "velocity": 0.5039370078740157,
          "duration": 0.23645833333333144
        },
        {
          "name": "D3",
          "midi": 50,
          "time": 141.99999999999991,
          "velocity": 0.5039370078740157,
          "duration": 0.11770833333332575
        },
        {
          "name": "D3",
          "midi": 50,
          "time": 142.12499999999991,
          "velocity": 0.5039370078740157,
          "duration": 0.11770833333332575
        },
        {
          "name": "D4",
          "midi": 62,
          "time": 142.24999999999991,
          "velocity": 0.5039370078740157,
          "duration": 0.23645833333333144
        },
        {
          "name": "D4",
          "midi": 62,
          "time": 142.24999999999991,
          "velocity": 0.5039370078740157,
          "duration": 0.23645833333333144
        },
        {
          "name": "A3",
          "midi": 57,
          "time": 142.49999999999991,
          "velocity": 0.5039370078740157,
          "duration": 0.18645833333332007
        },
        {
          "name": "D4",
          "midi": 62,
          "time": 142.62499999999991,
          "velocity": 0.5039370078740157,
          "duration": 0.23645833333333144
        },
        {
          "name": "D4",
          "midi": 62,
          "time": 142.87499999999991,
          "velocity": 0.5039370078740157,
          "duration": 0.23645833333333144
        },
        {
          "name": "G#3",
          "midi": 56,
          "time": 142.87499999999991,
          "velocity": 0.5039370078740157,
          "duration": 0.11770833333332575
        },
        {
          "name": "D4",
          "midi": 62,
          "time": 143.12499999999991,
          "velocity": 0.5039370078740157,
          "duration": 0.23645833333333144
        },
        {
          "name": "G3",
          "midi": 55,
          "time": 143.12499999999991,
          "velocity": 0.5039370078740157,
          "duration": 0.12395833333332007
        },
        {
          "name": "F3",
          "midi": 53,
          "time": 143.37499999999991,
          "velocity": 0.5039370078740157,
          "duration": 0.23645833333333144
        },
        {
          "name": "D3",
          "midi": 50,
          "time": 143.62499999999991,
          "velocity": 0.5039370078740157,
          "duration": 0.11770833333332575
        },
        {
          "name": "D4",
          "midi": 62,
          "time": 143.74999999999991,
          "velocity": 0.5039370078740157,
          "duration": 0.23645833333333144
        },
        {
          "name": "F3",
          "midi": 53,
          "time": 143.74999999999991,
          "velocity": 0.5039370078740157,
          "duration": 0.11770833333332575
        },
        {
          "name": "G3",
          "midi": 55,
          "time": 143.87499999999991,
          "velocity": 0.5039370078740157,
          "duration": 0.11770833333332575
        },
        {
          "name": "A#3",
          "midi": 58,
          "time": 143.99999999999991,
          "velocity": 0.5039370078740157,
          "duration": 0.11770833333332575
        },
        {
          "name": "A#3",
          "midi": 58,
          "time": 144.12499999999991,
          "velocity": 0.5039370078740157,
          "duration": 0.11770833333332575
        },
        {
          "name": "D5",
          "midi": 74,
          "time": 144.24999999999991,
          "velocity": 0.5039370078740157,
          "duration": 0.12395833333332007
        },
        {
          "name": "A4",
          "midi": 69,
          "time": 144.49999999999991,
          "velocity": 0.5039370078740157,
          "duration": 0.18645833333332007
        },
        {
          "name": "G#4",
          "midi": 68,
          "time": 144.87499999999991,
          "velocity": 0.5039370078740157,
          "duration": 0.11770833333332575
        },
        {
          "name": "G4",
          "midi": 67,
          "time": 145.12499999999991,
          "velocity": 0.5039370078740157,
          "duration": 0.12395833333332007
        },
        {
          "name": "F4",
          "midi": 65,
          "time": 145.37499999999991,
          "velocity": 0.5039370078740157,
          "duration": 0.23645833333333144
        },
        {
          "name": "D4",
          "midi": 62,
          "time": 145.62499999999991,
          "velocity": 0.5039370078740157,
          "duration": 0.11770833333332575
        },
        {
          "name": "F4",
          "midi": 65,
          "time": 145.74999999999991,
          "velocity": 0.5039370078740157,
          "duration": 0.11770833333332575
        },
        {
          "name": "G4",
          "midi": 67,
          "time": 145.87499999999991,
          "velocity": 0.5039370078740157,
          "duration": 0.11770833333332575
        },
        {
          "name": "C4",
          "midi": 60,
          "time": 145.99999999999991,
          "velocity": 0.5039370078740157,
          "duration": 0.11770833333332575
        },
        {
          "name": "C4",
          "midi": 60,
          "time": 146.12499999999991,
          "velocity": 0.5039370078740157,
          "duration": 0.11770833333332575
        },
        {
          "name": "D5",
          "midi": 74,
          "time": 146.24999999999991,
          "velocity": 0.5039370078740157,
          "duration": 0.12395833333332007
        },
        {
          "name": "A4",
          "midi": 69,
          "time": 146.49999999999991,
          "velocity": 0.5039370078740157,
          "duration": 0.18645833333332007
        },
        {
          "name": "G#4",
          "midi": 68,
          "time": 146.87499999999991,
          "velocity": 0.5039370078740157,
          "duration": 0.11770833333332575
        },
        {
          "name": "G4",
          "midi": 67,
          "time": 147.12499999999991,
          "velocity": 0.5039370078740157,
          "duration": 0.12395833333332007
        },
        {
          "name": "F4",
          "midi": 65,
          "time": 147.37499999999991,
          "velocity": 0.5039370078740157,
          "duration": 0.23645833333333144
        },
        {
          "name": "D4",
          "midi": 62,
          "time": 147.62499999999991,
          "velocity": 0.5039370078740157,
          "duration": 0.11770833333332575
        },
        {
          "name": "F4",
          "midi": 65,
          "time": 147.74999999999991,
          "velocity": 0.5039370078740157,
          "duration": 0.11770833333332575
        },
        {
          "name": "G4",
          "midi": 67,
          "time": 147.87499999999991,
          "velocity": 0.5039370078740157,
          "duration": 0.11770833333332575
        },
        {
          "name": "D4",
          "midi": 62,
          "time": 147.99999999999991,
          "velocity": 0.5039370078740157,
          "duration": 0.11770833333332575
        },
        {
          "name": "D4",
          "midi": 62,
          "time": 148.12499999999991,
          "velocity": 0.5039370078740157,
          "duration": 0.11770833333332575
        },
        {
          "name": "D5",
          "midi": 74,
          "time": 148.24999999999991,
          "velocity": 0.5039370078740157,
          "duration": 0.12395833333332007
        },
        {
          "name": "A4",
          "midi": 69,
          "time": 148.49999999999991,
          "velocity": 0.5039370078740157,
          "duration": 0.18645833333332007
        },
        {
          "name": "G#4",
          "midi": 68,
          "time": 148.87499999999991,
          "velocity": 0.5039370078740157,
          "duration": 0.11770833333332575
        },
        {
          "name": "G4",
          "midi": 67,
          "time": 149.12499999999991,
          "velocity": 0.5039370078740157,
          "duration": 0.12395833333332007
        },
        {
          "name": "F4",
          "midi": 65,
          "time": 149.37499999999991,
          "velocity": 0.5039370078740157,
          "duration": 0.23645833333333144
        },
        {
          "name": "D4",
          "midi": 62,
          "time": 149.62499999999991,
          "velocity": 0.5039370078740157,
          "duration": 0.11770833333332575
        },
        {
          "name": "F4",
          "midi": 65,
          "time": 149.74999999999991,
          "velocity": 0.5039370078740157,
          "duration": 0.11770833333332575
        },
        {
          "name": "G4",
          "midi": 67,
          "time": 149.87499999999991,
          "velocity": 0.5039370078740157,
          "duration": 0.11770833333332575
        },
        {
          "name": "D4",
          "midi": 62,
          "time": 149.99999999999991,
          "velocity": 0.5039370078740157,
          "duration": 0.11770833333332575
        },
        {
          "name": "D4",
          "midi": 62,
          "time": 150.12499999999991,
          "velocity": 0.5039370078740157,
          "duration": 0.11770833333332575
        },
        {
          "name": "D5",
          "midi": 74,
          "time": 150.24999999999991,
          "velocity": 0.5039370078740157,
          "duration": 0.12395833333332007
        },
        {
          "name": "A4",
          "midi": 69,
          "time": 150.49999999999991,
          "velocity": 0.5039370078740157,
          "duration": 0.18645833333332007
        },
        {
          "name": "G#4",
          "midi": 68,
          "time": 150.87499999999991,
          "velocity": 0.5039370078740157,
          "duration": 0.11770833333332575
        },
        {
          "name": "G4",
          "midi": 67,
          "time": 151.12499999999991,
          "velocity": 0.5039370078740157,
          "duration": 0.12395833333332007
        },
        {
          "name": "F4",
          "midi": 65,
          "time": 151.37499999999991,
          "velocity": 0.5039370078740157,
          "duration": 0.23645833333333144
        },
        {
          "name": "D4",
          "midi": 62,
          "time": 151.62499999999991,
          "velocity": 0.5039370078740157,
          "duration": 0.11770833333332575
        },
        {
          "name": "F4",
          "midi": 65,
          "time": 151.74999999999991,
          "velocity": 0.5039370078740157,
          "duration": 0.11770833333332575
        },
        {
          "name": "G4",
          "midi": 67,
          "time": 151.87499999999991,
          "velocity": 0.5039370078740157,
          "duration": 0.11770833333332575
        },
        {
          "name": "A#3",
          "midi": 58,
          "time": 151.99999999999991,
          "velocity": 0.5039370078740157,
          "duration": 0.11770833333332575
        },
        {
          "name": "A#3",
          "midi": 58,
          "time": 152.12499999999991,
          "velocity": 0.5039370078740157,
          "duration": 0.11770833333332575
        },
        {
          "name": "D5",
          "midi": 74,
          "time": 152.24999999999991,
          "velocity": 0.5039370078740157,
          "duration": 0.12395833333332007
        },
        {
          "name": "A4",
          "midi": 69,
          "time": 152.49999999999991,
          "velocity": 0.5039370078740157,
          "duration": 0.18645833333332007
        },
        {
          "name": "G#4",
          "midi": 68,
          "time": 152.87499999999991,
          "velocity": 0.5039370078740157,
          "duration": 0.11770833333332575
        },
        {
          "name": "G4",
          "midi": 67,
          "time": 153.12499999999991,
          "velocity": 0.5039370078740157,
          "duration": 0.12395833333332007
        },
        {
          "name": "F4",
          "midi": 65,
          "time": 153.37499999999991,
          "velocity": 0.5039370078740157,
          "duration": 0.23645833333333144
        },
        {
          "name": "D4",
          "midi": 62,
          "time": 153.62499999999991,
          "velocity": 0.5039370078740157,
          "duration": 0.11770833333332575
        },
        {
          "name": "F4",
          "midi": 65,
          "time": 153.74999999999991,
          "velocity": 0.5039370078740157,
          "duration": 0.11770833333332575
        },
        {
          "name": "G4",
          "midi": 67,
          "time": 153.87499999999991,
          "velocity": 0.5039370078740157,
          "duration": 0.11770833333332575
        },
        {
          "name": "C4",
          "midi": 60,
          "time": 153.99999999999991,
          "velocity": 0.5039370078740157,
          "duration": 0.11770833333332575
        },
        {
          "name": "C4",
          "midi": 60,
          "time": 154.12499999999991,
          "velocity": 0.5039370078740157,
          "duration": 0.11770833333332575
        },
        {
          "name": "D5",
          "midi": 74,
          "time": 154.24999999999991,
          "velocity": 0.5039370078740157,
          "duration": 0.12395833333332007
        },
        {
          "name": "A4",
          "midi": 69,
          "time": 154.49999999999991,
          "velocity": 0.5039370078740157,
          "duration": 0.18645833333332007
        },
        {
          "name": "G#4",
          "midi": 68,
          "time": 154.87499999999991,
          "velocity": 0.5039370078740157,
          "duration": 0.11770833333332575
        },
        {
          "name": "G4",
          "midi": 67,
          "time": 155.12499999999991,
          "velocity": 0.5039370078740157,
          "duration": 0.12395833333332007
        },
        {
          "name": "F4",
          "midi": 65,
          "time": 155.37499999999991,
          "velocity": 0.5039370078740157,
          "duration": 0.23645833333333144
        },
        {
          "name": "D4",
          "midi": 62,
          "time": 155.62499999999991,
          "velocity": 0.5039370078740157,
          "duration": 0.11770833333332575
        },
        {
          "name": "F4",
          "midi": 65,
          "time": 155.74999999999991,
          "velocity": 0.5039370078740157,
          "duration": 0.11770833333332575
        },
        {
          "name": "G4",
          "midi": 67,
          "time": 155.87499999999991,
          "velocity": 0.5039370078740157,
          "duration": 0.11770833333332575
        },
        {
          "name": "D4",
          "midi": 62,
          "time": 155.99999999999991,
          "velocity": 0.5039370078740157,
          "duration": 0.11770833333332575
        },
        {
          "name": "D4",
          "midi": 62,
          "time": 156.12499999999991,
          "velocity": 0.5039370078740157,
          "duration": 0.11770833333332575
        },
        {
          "name": "D5",
          "midi": 74,
          "time": 156.24999999999991,
          "velocity": 0.5039370078740157,
          "duration": 0.12395833333332007
        },
        {
          "name": "A4",
          "midi": 69,
          "time": 156.49999999999991,
          "velocity": 0.5039370078740157,
          "duration": 0.18645833333332007
        },
        {
          "name": "G#4",
          "midi": 68,
          "time": 156.87499999999991,
          "velocity": 0.5039370078740157,
          "duration": 0.11770833333332575
        },
        {
          "name": "G4",
          "midi": 67,
          "time": 157.12499999999991,
          "velocity": 0.5039370078740157,
          "duration": 0.12395833333332007
        },
        {
          "name": "F4",
          "midi": 65,
          "time": 157.37499999999991,
          "velocity": 0.5039370078740157,
          "duration": 0.23645833333333144
        },
        {
          "name": "D4",
          "midi": 62,
          "time": 157.62499999999991,
          "velocity": 0.5039370078740157,
          "duration": 0.11770833333332575
        },
        {
          "name": "F4",
          "midi": 65,
          "time": 157.74999999999991,
          "velocity": 0.5039370078740157,
          "duration": 0.11770833333332575
        },
        {
          "name": "G4",
          "midi": 67,
          "time": 157.87499999999991,
          "velocity": 0.5039370078740157,
          "duration": 0.11770833333332575
        },
        {
          "name": "C4",
          "midi": 60,
          "time": 157.99999999999991,
          "velocity": 0.5039370078740157,
          "duration": 0.11770833333332575
        },
        {
          "name": "C4",
          "midi": 60,
          "time": 158.12499999999991,
          "velocity": 0.5039370078740157,
          "duration": 0.11770833333332575
        },
        {
          "name": "D5",
          "midi": 74,
          "time": 158.24999999999991,
          "velocity": 0.5039370078740157,
          "duration": 0.12395833333332007
        },
        {
          "name": "A4",
          "midi": 69,
          "time": 158.49999999999991,
          "velocity": 0.5039370078740157,
          "duration": 0.18645833333332007
        },
        {
          "name": "G#4",
          "midi": 68,
          "time": 158.87499999999991,
          "velocity": 0.5039370078740157,
          "duration": 0.11770833333332575
        },
        {
          "name": "G4",
          "midi": 67,
          "time": 159.12499999999991,
          "velocity": 0.5039370078740157,
          "duration": 0.12395833333332007
        },
        {
          "name": "F4",
          "midi": 65,
          "time": 159.37499999999991,
          "velocity": 0.5039370078740157,
          "duration": 0.23645833333333144
        },
        {
          "name": "D4",
          "midi": 62,
          "time": 159.62499999999991,
          "velocity": 0.5039370078740157,
          "duration": 0.11770833333332575
        },
        {
          "name": "F4",
          "midi": 65,
          "time": 159.74999999999991,
          "velocity": 0.5039370078740157,
          "duration": 0.11770833333332575
        },
        {
          "name": "G4",
          "midi": 67,
          "time": 159.87499999999991,
          "velocity": 0.5039370078740157,
          "duration": 0.11770833333332575
        },
        {
          "name": "B3",
          "midi": 59,
          "time": 159.99999999999991,
          "velocity": 0.5039370078740157,
          "duration": 0.11770833333332575
        },
        {
          "name": "B3",
          "midi": 59,
          "time": 160.12499999999991,
          "velocity": 0.5039370078740157,
          "duration": 0.11770833333332575
        },
        {
          "name": "D5",
          "midi": 74,
          "time": 160.24999999999991,
          "velocity": 0.5039370078740157,
          "duration": 0.12395833333332007
        },
        {
          "name": "A4",
          "midi": 69,
          "time": 160.49999999999991,
          "velocity": 0.5039370078740157,
          "duration": 0.18645833333332007
        },
        {
          "name": "G#4",
          "midi": 68,
          "time": 160.87499999999991,
          "velocity": 0.5039370078740157,
          "duration": 0.11770833333332575
        },
        {
          "name": "G4",
          "midi": 67,
          "time": 161.12499999999991,
          "velocity": 0.5039370078740157,
          "duration": 0.12395833333332007
        },
        {
          "name": "F4",
          "midi": 65,
          "time": 161.37499999999991,
          "velocity": 0.5039370078740157,
          "duration": 0.23645833333333144
        },
        {
          "name": "D4",
          "midi": 62,
          "time": 161.62499999999991,
          "velocity": 0.5039370078740157,
          "duration": 0.11770833333332575
        },
        {
          "name": "F4",
          "midi": 65,
          "time": 161.74999999999991,
          "velocity": 0.5039370078740157,
          "duration": 0.11770833333332575
        },
        {
          "name": "G4",
          "midi": 67,
          "time": 161.87499999999991,
          "velocity": 0.5039370078740157,
          "duration": 0.11770833333332575
        },
        {
          "name": "A#3",
          "midi": 58,
          "time": 161.99999999999991,
          "velocity": 0.5039370078740157,
          "duration": 0.11770833333332575
        },
        {
          "name": "A#3",
          "midi": 58,
          "time": 162.12499999999991,
          "velocity": 0.5039370078740157,
          "duration": 0.11770833333332575
        },
        {
          "name": "D5",
          "midi": 74,
          "time": 162.24999999999991,
          "velocity": 0.5039370078740157,
          "duration": 0.12395833333332007
        },
        {
          "name": "A4",
          "midi": 69,
          "time": 162.49999999999991,
          "velocity": 0.5039370078740157,
          "duration": 0.18645833333332007
        },
        {
          "name": "G#4",
          "midi": 68,
          "time": 162.87499999999991,
          "velocity": 0.5039370078740157,
          "duration": 0.11770833333332575
        },
        {
          "name": "G4",
          "midi": 67,
          "time": 163.12499999999991,
          "velocity": 0.5039370078740157,
          "duration": 0.12395833333332007
        },
        {
          "name": "F4",
          "midi": 65,
          "time": 163.37499999999991,
          "velocity": 0.5039370078740157,
          "duration": 0.23645833333333144
        },
        {
          "name": "D4",
          "midi": 62,
          "time": 163.62499999999991,
          "velocity": 0.5039370078740157,
          "duration": 0.11770833333332575
        },
        {
          "name": "F4",
          "midi": 65,
          "time": 163.74999999999991,
          "velocity": 0.5039370078740157,
          "duration": 0.11770833333332575
        },
        {
          "name": "G4",
          "midi": 67,
          "time": 163.87499999999991,
          "velocity": 0.5039370078740157,
          "duration": 0.11770833333332575
        }
      ],
      "controlChanges": {
        "7": [
          {
            "number": 7,
            "time": 0,
            "value": 0.7874015748031497
          }
        ],
        "10": [
          {
            "number": 10,
            "time": 0,
            "value": 0.5039370078740157
          }
        ],
        "91": [
          {
            "number": 91,
            "time": 0,
            "value": 0
          }
        ],
        "93": [
          {
            "number": 93,
            "time": 0,
            "value": 0
          }
        ],
        "121": [
          {
            "number": 121,
            "time": 0,
            "value": 0
          }
        ]
      },
      "id": 0,
      "instrumentNumber": 1,
      "instrument": "bright acoustic piano",
      "instrumentFamily": "piano",
      "channelNumber": 0,
      "isPercussion": false
    },
    {
      "startTime": 8,
      "duration": 143.98645833333333,
      "length": 808,
      "notes": [
        {
          "name": "D3",
          "midi": 50,
          "time": 8,
          "velocity": 0.5039370078740157,
          "duration": 0.1239583333333325
        },
        {
          "name": "D3",
          "midi": 50,
          "time": 8.25,
          "velocity": 0.5039370078740157,
          "duration": 0.1239583333333325
        },
        {
          "name": "D3",
          "midi": 50,
          "time": 8.5,
          "velocity": 0.5039370078740157,
          "duration": 0.11770833333333286
        },
        {
          "name": "D3",
          "midi": 50,
          "time": 8.625,
          "velocity": 0.5039370078740157,
          "duration": 0.1239583333333325
        },
        {
          "name": "D3",
          "midi": 50,
          "time": 8.875,
          "velocity": 0.5039370078740157,
          "duration": 0.11770833333333286
        },
        {
          "name": "D3",
          "midi": 50,
          "time": 9.125,
          "velocity": 0.5039370078740157,
          "duration": 0.1239583333333325
        },
        {
          "name": "D3",
          "midi": 50,
          "time": 9.375,
          "velocity": 0.5039370078740157,
          "duration": 0.11770833333333286
        },
        {
          "name": "D3",
          "midi": 50,
          "time": 9.5,
          "velocity": 0.5039370078740157,
          "duration": 0.11770833333333286
        },
        {
          "name": "D3",
          "midi": 50,
          "time": 9.625,
          "velocity": 0.5039370078740157,
          "duration": 0.11770833333333286
        },
        {
          "name": "D3",
          "midi": 50,
          "time": 9.75,
          "velocity": 0.5039370078740157,
          "duration": 0.1239583333333325
        },
        {
          "name": "C3",
          "midi": 48,
          "time": 10,
          "velocity": 0.5039370078740157,
          "duration": 0.1239583333333325
        },
        {
          "name": "C3",
          "midi": 48,
          "time": 10.25,
          "velocity": 0.5039370078740157,
          "duration": 0.1239583333333325
        },
        {
          "name": "C3",
          "midi": 48,
          "time": 10.5,
          "velocity": 0.5039370078740157,
          "duration": 0.11770833333333286
        },
        {
          "name": "C3",
          "midi": 48,
          "time": 10.625,
          "velocity": 0.5039370078740157,
          "duration": 0.1239583333333325
        },
        {
          "name": "C3",
          "midi": 48,
          "time": 10.875,
          "velocity": 0.5039370078740157,
          "duration": 0.11770833333333286
        },
        {
          "name": "C3",
          "midi": 48,
          "time": 11.125,
          "velocity": 0.5039370078740157,
          "duration": 0.1239583333333325
        },
        {
          "name": "C3",
          "midi": 48,
          "time": 11.375,
          "velocity": 0.5039370078740157,
          "duration": 0.11770833333333286
        },
        {
          "name": "C3",
          "midi": 48,
          "time": 11.5,
          "velocity": 0.5039370078740157,
          "duration": 0.11770833333333286
        },
        {
          "name": "C3",
          "midi": 48,
          "time": 11.625,
          "velocity": 0.5039370078740157,
          "duration": 0.11770833333333286
        },
        {
          "name": "C3",
          "midi": 48,
          "time": 11.75,
          "velocity": 0.5039370078740157,
          "duration": 0.1239583333333325
        },
        {
          "name": "B2",
          "midi": 47,
          "time": 12,
          "velocity": 0.5039370078740157,
          "duration": 0.1239583333333325
        },
        {
          "name": "B2",
          "midi": 47,
          "time": 12.25,
          "velocity": 0.5039370078740157,
          "duration": 0.1239583333333325
        },
        {
          "name": "B2",
          "midi": 47,
          "time": 12.5,
          "velocity": 0.5039370078740157,
          "duration": 0.11770833333333286
        },
        {
          "name": "B2",
          "midi": 47,
          "time": 12.625,
          "velocity": 0.5039370078740157,
          "duration": 0.1239583333333325
        },
        {
          "name": "B2",
          "midi": 47,
          "time": 12.875,
          "velocity": 0.5039370078740157,
          "duration": 0.11770833333333286
        },
        {
          "name": "B2",
          "midi": 47,
          "time": 13.125,
          "velocity": 0.5039370078740157,
          "duration": 0.1239583333333325
        },
        {
          "name": "B2",
          "midi": 47,
          "time": 13.375,
          "velocity": 0.5039370078740157,
          "duration": 0.11770833333333286
        },
        {
          "name": "B2",
          "midi": 47,
          "time": 13.5,
          "velocity": 0.5039370078740157,
          "duration": 0.11770833333333286
        },
        {
          "name": "B2",
          "midi": 47,
          "time": 13.625,
          "velocity": 0.5039370078740157,
          "duration": 0.11770833333333286
        },
        {
          "name": "B2",
          "midi": 47,
          "time": 13.75,
          "velocity": 0.5039370078740157,
          "duration": 0.1239583333333325
        },
        {
          "name": "A#2",
          "midi": 46,
          "time": 14,
          "velocity": 0.5039370078740157,
          "duration": 0.1239583333333325
        },
        {
          "name": "A#2",
          "midi": 46,
          "time": 14.25,
          "velocity": 0.5039370078740157,
          "duration": 0.1239583333333325
        },
        {
          "name": "A#2",
          "midi": 46,
          "time": 14.5,
          "velocity": 0.5039370078740157,
          "duration": 0.11770833333333286
        },
        {
          "name": "A#2",
          "midi": 46,
          "time": 14.625,
          "velocity": 0.5039370078740157,
          "duration": 0.1239583333333325
        },
        {
          "name": "C3",
          "midi": 48,
          "time": 14.875,
          "velocity": 0.5039370078740157,
          "duration": 0.11770833333333286
        },
        {
          "name": "C3",
          "midi": 48,
          "time": 15.125,
          "velocity": 0.5039370078740157,
          "duration": 0.1239583333333325
        },
        {
          "name": "C3",
          "midi": 48,
          "time": 15.375,
          "velocity": 0.5039370078740157,
          "duration": 0.11770833333333286
        },
        {
          "name": "C3",
          "midi": 48,
          "time": 15.5,
          "velocity": 0.5039370078740157,
          "duration": 0.11770833333333286
        },
        {
          "name": "C3",
          "midi": 48,
          "time": 15.625,
          "velocity": 0.5039370078740157,
          "duration": 0.11770833333333286
        },
        {
          "name": "C3",
          "midi": 48,
          "time": 15.75,
          "velocity": 0.5039370078740157,
          "duration": 0.1239583333333325
        },
        {
          "name": "D2",
          "midi": 38,
          "time": 16,
          "velocity": 0.7559055118110236,
          "duration": 0.236458333333335
        },
        {
          "name": "D3",
          "midi": 50,
          "time": 16.25,
          "velocity": 0.7559055118110236,
          "duration": 0.236458333333335
        },
        {
          "name": "D2",
          "midi": 38,
          "time": 16.5,
          "velocity": 0.7559055118110236,
          "duration": 0.11770833333333286
        },
        {
          "name": "D2",
          "midi": 38,
          "time": 16.625,
          "velocity": 0.7559055118110236,
          "duration": 0.11770833333333286
        },
        {
          "name": "D3",
          "midi": 50,
          "time": 16.75,
          "velocity": 0.7559055118110236,
          "duration": 0.11770833333333286
        },
        {
          "name": "D2",
          "midi": 38,
          "time": 16.875,
          "velocity": 0.7559055118110236,
          "duration": 0.236458333333335
        },
        {
          "name": "D2",
          "midi": 38,
          "time": 17.125,
          "velocity": 0.7559055118110236,
          "duration": 0.11770833333333286
        },
        {
          "name": "D3",
          "midi": 50,
          "time": 17.25,
          "velocity": 0.7559055118110236,
          "duration": 0.11770833333333286
        },
        {
          "name": "D2",
          "midi": 38,
          "time": 17.375,
          "velocity": 0.7559055118110236,
          "duration": 0.11770833333333286
        },
        {
          "name": "D2",
          "midi": 38,
          "time": 17.5,
          "velocity": 0.7559055118110236,
          "duration": 0.11770833333333286
        },
        {
          "name": "D2",
          "midi": 38,
          "time": 17.625,
          "velocity": 0.7559055118110236,
          "duration": 0.11770833333333286
        },
        {
          "name": "D3",
          "midi": 50,
          "time": 17.75,
          "velocity": 0.7559055118110236,
          "duration": 0.236458333333335
        },
        {
          "name": "C2",
          "midi": 36,
          "time": 18,
          "velocity": 0.7559055118110236,
          "duration": 0.236458333333335
        },
        {
          "name": "C3",
          "midi": 48,
          "time": 18.25,
          "velocity": 0.7559055118110236,
          "duration": 0.236458333333335
        },
        {
          "name": "C2",
          "midi": 36,
          "time": 18.5,
          "velocity": 0.7559055118110236,
          "duration": 0.11770833333333286
        },
        {
          "name": "C2",
          "midi": 36,
          "time": 18.625,
          "velocity": 0.7559055118110236,
          "duration": 0.11770833333333286
        },
        {
          "name": "C3",
          "midi": 48,
          "time": 18.75,
          "velocity": 0.7559055118110236,
          "duration": 0.11770833333333286
        },
        {
          "name": "C2",
          "midi": 36,
          "time": 18.875,
          "velocity": 0.7559055118110236,
          "duration": 0.236458333333335
        },
        {
          "name": "C2",
          "midi": 36,
          "time": 19.125,
          "velocity": 0.7559055118110236,
          "duration": 0.11770833333333286
        },
        {
          "name": "C3",
          "midi": 48,
          "time": 19.25,
          "velocity": 0.7559055118110236,
          "duration": 0.11770833333333286
        },
        {
          "name": "C2",
          "midi": 36,
          "time": 19.375,
          "velocity": 0.7559055118110236,
          "duration": 0.11770833333333286
        },
        {
          "name": "C2",
          "midi": 36,
          "time": 19.5,
          "velocity": 0.7559055118110236,
          "duration": 0.11770833333333286
        },
        {
          "name": "C2",
          "midi": 36,
          "time": 19.625,
          "velocity": 0.7559055118110236,
          "duration": 0.11770833333333286
        },
        {
          "name": "C3",
          "midi": 48,
          "time": 19.75,
          "velocity": 0.7559055118110236,
          "duration": 0.236458333333335
        },
        {
          "name": "B1",
          "midi": 35,
          "time": 20,
          "velocity": 0.7559055118110236,
          "duration": 0.236458333333335
        },
        {
          "name": "B2",
          "midi": 47,
          "time": 20.25,
          "velocity": 0.7559055118110236,
          "duration": 0.236458333333335
        },
        {
          "name": "B1",
          "midi": 35,
          "time": 20.5,
          "velocity": 0.7559055118110236,
          "duration": 0.11770833333333286
        },
        {
          "name": "B1",
          "midi": 35,
          "time": 20.625,
          "velocity": 0.7559055118110236,
          "duration": 0.11770833333333286
        },
        {
          "name": "B2",
          "midi": 47,
          "time": 20.75,
          "velocity": 0.7559055118110236,
          "duration": 0.11770833333333286
        },
        {
          "name": "B1",
          "midi": 35,
          "time": 20.875,
          "velocity": 0.7559055118110236,
          "duration": 0.236458333333335
        },
        {
          "name": "B1",
          "midi": 35,
          "time": 21.125,
          "velocity": 0.7559055118110236,
          "duration": 0.11770833333333286
        },
        {
          "name": "B2",
          "midi": 47,
          "time": 21.25,
          "velocity": 0.7559055118110236,
          "duration": 0.11770833333333286
        },
        {
          "name": "B1",
          "midi": 35,
          "time": 21.375,
          "velocity": 0.7559055118110236,
          "duration": 0.11770833333333286
        },
        {
          "name": "B1",
          "midi": 35,
          "time": 21.5,
          "velocity": 0.7559055118110236,
          "duration": 0.11770833333333286
        },
        {
          "name": "B1",
          "midi": 35,
          "time": 21.625,
          "velocity": 0.7559055118110236,
          "duration": 0.11770833333333286
        },
        {
          "name": "B2",
          "midi": 47,
          "time": 21.75,
          "velocity": 0.7559055118110236,
          "duration": 0.236458333333335
        },
        {
          "name": "A#1",
          "midi": 34,
          "time": 22,
          "velocity": 0.7559055118110236,
          "duration": 0.236458333333335
        },
        {
          "name": "A#2",
          "midi": 46,
          "time": 22.25,
          "velocity": 0.7559055118110236,
          "duration": 0.236458333333335
        },
        {
          "name": "A#1",
          "midi": 34,
          "time": 22.5,
          "velocity": 0.7559055118110236,
          "duration": 0.11770833333333286
        },
        {
          "name": "A#1",
          "midi": 34,
          "time": 22.625,
          "velocity": 0.7559055118110236,
          "duration": 0.11770833333333286
        },
        {
          "name": "A#2",
          "midi": 46,
          "time": 22.75,
          "velocity": 0.7559055118110236,
          "duration": 0.11770833333333286
        },
        {
          "name": "C2",
          "midi": 36,
          "time": 22.875,
          "velocity": 0.7559055118110236,
          "duration": 0.236458333333335
        },
        {
          "name": "C2",
          "midi": 36,
          "time": 23.125,
          "velocity": 0.7559055118110236,
          "duration": 0.11770833333333286
        },
        {
          "name": "C3",
          "midi": 48,
          "time": 23.25,
          "velocity": 0.7559055118110236,
          "duration": 0.11770833333333286
        },
        {
          "name": "C2",
          "midi": 36,
          "time": 23.375,
          "velocity": 0.7559055118110236,
          "duration": 0.11770833333333286
        },
        {
          "name": "C2",
          "midi": 36,
          "time": 23.5,
          "velocity": 0.7559055118110236,
          "duration": 0.11770833333333286
        },
        {
          "name": "C2",
          "midi": 36,
          "time": 23.625,
          "velocity": 0.7559055118110236,
          "duration": 0.11770833333333286
        },
        {
          "name": "C3",
          "midi": 48,
          "time": 23.75,
          "velocity": 0.7559055118110236,
          "duration": 0.236458333333335
        },
        {
          "name": "D2",
          "midi": 38,
          "time": 24,
          "velocity": 0.7559055118110236,
          "duration": 0.236458333333335
        },
        {
          "name": "D3",
          "midi": 50,
          "time": 24.25,
          "velocity": 0.7559055118110236,
          "duration": 0.236458333333335
        },
        {
          "name": "D2",
          "midi": 38,
          "time": 24.5,
          "velocity": 0.7559055118110236,
          "duration": 0.11770833333333286
        },
        {
          "name": "D2",
          "midi": 38,
          "time": 24.625,
          "velocity": 0.7559055118110236,
          "duration": 0.11770833333333286
        },
        {
          "name": "D3",
          "midi": 50,
          "time": 24.75,
          "velocity": 0.7559055118110236,
          "duration": 0.11770833333333286
        },
        {
          "name": "D2",
          "midi": 38,
          "time": 24.875,
          "velocity": 0.7559055118110236,
          "duration": 0.236458333333335
        },
        {
          "name": "D2",
          "midi": 38,
          "time": 25.125,
          "velocity": 0.7559055118110236,
          "duration": 0.11770833333333286
        },
        {
          "name": "D3",
          "midi": 50,
          "time": 25.25,
          "velocity": 0.7559055118110236,
          "duration": 0.11770833333333286
        },
        {
          "name": "D2",
          "midi": 38,
          "time": 25.375,
          "velocity": 0.7559055118110236,
          "duration": 0.11770833333333286
        },
        {
          "name": "D2",
          "midi": 38,
          "time": 25.5,
          "velocity": 0.7559055118110236,
          "duration": 0.11770833333333286
        },
        {
          "name": "D2",
          "midi": 38,
          "time": 25.625,
          "velocity": 0.7559055118110236,
          "duration": 0.11770833333333286
        },
        {
          "name": "D3",
          "midi": 50,
          "time": 25.75,
          "velocity": 0.7559055118110236,
          "duration": 0.236458333333335
        },
        {
          "name": "C2",
          "midi": 36,
          "time": 26,
          "velocity": 0.7559055118110236,
          "duration": 0.236458333333335
        },
        {
          "name": "C3",
          "midi": 48,
          "time": 26.25,
          "velocity": 0.7559055118110236,
          "duration": 0.236458333333335
        },
        {
          "name": "C2",
          "midi": 36,
          "time": 26.5,
          "velocity": 0.7559055118110236,
          "duration": 0.11770833333333286
        },
        {
          "name": "C2",
          "midi": 36,
          "time": 26.625,
          "velocity": 0.7559055118110236,
          "duration": 0.11770833333333286
        },
        {
          "name": "C3",
          "midi": 48,
          "time": 26.75,
          "velocity": 0.7559055118110236,
          "duration": 0.11770833333333286
        },
        {
          "name": "C2",
          "midi": 36,
          "time": 26.875,
          "velocity": 0.7559055118110236,
          "duration": 0.236458333333335
        },
        {
          "name": "C2",
          "midi": 36,
          "time": 27.125,
          "velocity": 0.7559055118110236,
          "duration": 0.11770833333333286
        },
        {
          "name": "C3",
          "midi": 48,
          "time": 27.25,
          "velocity": 0.7559055118110236,
          "duration": 0.11770833333333286
        },
        {
          "name": "C2",
          "midi": 36,
          "time": 27.375,
          "velocity": 0.7559055118110236,
          "duration": 0.11770833333333286
        },
        {
          "name": "C2",
          "midi": 36,
          "time": 27.5,
          "velocity": 0.7559055118110236,
          "duration": 0.11770833333333286
        },
        {
          "name": "C2",
          "midi": 36,
          "time": 27.625,
          "velocity": 0.7559055118110236,
          "duration": 0.11770833333333286
        },
        {
          "name": "C3",
          "midi": 48,
          "time": 27.75,
          "velocity": 0.7559055118110236,
          "duration": 0.236458333333335
        },
        {
          "name": "B1",
          "midi": 35,
          "time": 28,
          "velocity": 0.7559055118110236,
          "duration": 0.236458333333335
        },
        {
          "name": "B2",
          "midi": 47,
          "time": 28.25,
          "velocity": 0.7559055118110236,
          "duration": 0.236458333333335
        },
        {
          "name": "B1",
          "midi": 35,
          "time": 28.5,
          "velocity": 0.7559055118110236,
          "duration": 0.11770833333333286
        },
        {
          "name": "B1",
          "midi": 35,
          "time": 28.625,
          "velocity": 0.7559055118110236,
          "duration": 0.11770833333333286
        },
        {
          "name": "B2",
          "midi": 47,
          "time": 28.75,
          "velocity": 0.7559055118110236,
          "duration": 0.11770833333333286
        },
        {
          "name": "B1",
          "midi": 35,
          "time": 28.875,
          "velocity": 0.7559055118110236,
          "duration": 0.236458333333335
        },
        {
          "name": "B1",
          "midi": 35,
          "time": 29.125,
          "velocity": 0.7559055118110236,
          "duration": 0.11770833333333286
        },
        {
          "name": "B2",
          "midi": 47,
          "time": 29.25,
          "velocity": 0.7559055118110236,
          "duration": 0.11770833333333286
        },
        {
          "name": "B1",
          "midi": 35,
          "time": 29.375,
          "velocity": 0.7559055118110236,
          "duration": 0.11770833333333286
        },
        {
          "name": "B1",
          "midi": 35,
          "time": 29.5,
          "velocity": 0.7559055118110236,
          "duration": 0.11770833333333286
        },
        {
          "name": "B1",
          "midi": 35,
          "time": 29.625,
          "velocity": 0.7559055118110236,
          "duration": 0.11770833333333286
        },
        {
          "name": "B2",
          "midi": 47,
          "time": 29.75,
          "velocity": 0.7559055118110236,
          "duration": 0.236458333333335
        },
        {
          "name": "A#1",
          "midi": 34,
          "time": 30,
          "velocity": 0.7559055118110236,
          "duration": 0.236458333333335
        },
        {
          "name": "A#2",
          "midi": 46,
          "time": 30.25,
          "velocity": 0.7559055118110236,
          "duration": 0.236458333333335
        },
        {
          "name": "A#1",
          "midi": 34,
          "time": 30.5,
          "velocity": 0.7559055118110236,
          "duration": 0.11770833333333286
        },
        {
          "name": "A#1",
          "midi": 34,
          "time": 30.625,
          "velocity": 0.7559055118110236,
          "duration": 0.11770833333333286
        },
        {
          "name": "A#2",
          "midi": 46,
          "time": 30.75,
          "velocity": 0.7559055118110236,
          "duration": 0.11770833333333286
        },
        {
          "name": "C2",
          "midi": 36,
          "time": 30.875,
          "velocity": 0.7559055118110236,
          "duration": 0.236458333333335
        },
        {
          "name": "C2",
          "midi": 36,
          "time": 31.125,
          "velocity": 0.7559055118110236,
          "duration": 0.11770833333333286
        },
        {
          "name": "C3",
          "midi": 48,
          "time": 31.25,
          "velocity": 0.7559055118110236,
          "duration": 0.11770833333333286
        },
        {
          "name": "C2",
          "midi": 36,
          "time": 31.375,
          "velocity": 0.7559055118110236,
          "duration": 0.11770833333333286
        },
        {
          "name": "C2",
          "midi": 36,
          "time": 31.5,
          "velocity": 0.7559055118110236,
          "duration": 0.11770833333333286
        },
        {
          "name": "C2",
          "midi": 36,
          "time": 31.625,
          "velocity": 0.7559055118110236,
          "duration": 0.11770833333333286
        },
        {
          "name": "C3",
          "midi": 48,
          "time": 31.75,
          "velocity": 0.7559055118110236,
          "duration": 0.236458333333335
        },
        {
          "name": "D2",
          "midi": 38,
          "time": 32,
          "velocity": 0.6299212598425197,
          "duration": 0.23645833333333144
        },
        {
          "name": "D3",
          "midi": 50,
          "time": 32.25,
          "velocity": 0.6299212598425197,
          "duration": 0.23645833333333144
        },
        {
          "name": "D2",
          "midi": 38,
          "time": 32.5,
          "velocity": 0.6299212598425197,
          "duration": 0.11770833333333286
        },
        {
          "name": "D2",
          "midi": 38,
          "time": 32.625,
          "velocity": 0.6299212598425197,
          "duration": 0.11770833333333286
        },
        {
          "name": "D3",
          "midi": 50,
          "time": 32.75,
          "velocity": 0.6299212598425197,
          "duration": 0.11770833333333286
        },
        {
          "name": "D2",
          "midi": 38,
          "time": 32.875,
          "velocity": 0.6299212598425197,
          "duration": 0.23645833333333144
        },
        {
          "name": "D2",
          "midi": 38,
          "time": 33.125,
          "velocity": 0.6299212598425197,
          "duration": 0.11770833333333286
        },
        {
          "name": "D3",
          "midi": 50,
          "time": 33.25,
          "velocity": 0.6299212598425197,
          "duration": 0.11770833333333286
        },
        {
          "name": "D2",
          "midi": 38,
          "time": 33.375,
          "velocity": 0.6299212598425197,
          "duration": 0.11770833333333286
        },
        {
          "name": "D2",
          "midi": 38,
          "time": 33.5,
          "velocity": 0.6299212598425197,
          "duration": 0.11770833333333286
        },
        {
          "name": "D2",
          "midi": 38,
          "time": 33.625,
          "velocity": 0.6299212598425197,
          "duration": 0.11770833333333286
        },
        {
          "name": "D3",
          "midi": 50,
          "time": 33.75,
          "velocity": 0.6299212598425197,
          "duration": 0.23645833333333144
        },
        {
          "name": "C2",
          "midi": 36,
          "time": 34,
          "velocity": 0.6299212598425197,
          "duration": 0.23645833333333144
        },
        {
          "name": "C3",
          "midi": 48,
          "time": 34.25,
          "velocity": 0.6299212598425197,
          "duration": 0.23645833333333144
        },
        {
          "name": "C2",
          "midi": 36,
          "time": 34.5,
          "velocity": 0.6299212598425197,
          "duration": 0.11770833333333286
        },
        {
          "name": "C2",
          "midi": 36,
          "time": 34.625,
          "velocity": 0.6299212598425197,
          "duration": 0.11770833333333286
        },
        {
          "name": "C3",
          "midi": 48,
          "time": 34.75,
          "velocity": 0.6299212598425197,
          "duration": 0.11770833333333286
        },
        {
          "name": "C2",
          "midi": 36,
          "time": 34.875,
          "velocity": 0.6299212598425197,
          "duration": 0.23645833333333144
        },
        {
          "name": "C2",
          "midi": 36,
          "time": 35.125,
          "velocity": 0.6299212598425197,
          "duration": 0.11770833333333286
        },
        {
          "name": "C3",
          "midi": 48,
          "time": 35.25,
          "velocity": 0.6299212598425197,
          "duration": 0.11770833333333286
        },
        {
          "name": "C2",
          "midi": 36,
          "time": 35.375,
          "velocity": 0.6299212598425197,
          "duration": 0.11770833333333286
        },
        {
          "name": "C2",
          "midi": 36,
          "time": 35.5,
          "velocity": 0.6299212598425197,
          "duration": 0.11770833333333286
        },
        {
          "name": "C2",
          "midi": 36,
          "time": 35.625,
          "velocity": 0.6299212598425197,
          "duration": 0.11770833333333286
        },
        {
          "name": "C3",
          "midi": 48,
          "time": 35.75,
          "velocity": 0.6299212598425197,
          "duration": 0.23645833333333144
        },
        {
          "name": "B1",
          "midi": 35,
          "time": 36,
          "velocity": 0.6299212598425197,
          "duration": 0.23645833333333144
        },
        {
          "name": "B2",
          "midi": 47,
          "time": 36.25,
          "velocity": 0.6299212598425197,
          "duration": 0.23645833333333144
        },
        {
          "name": "B1",
          "midi": 35,
          "time": 36.5,
          "velocity": 0.6299212598425197,
          "duration": 0.11770833333333286
        },
        {
          "name": "B1",
          "midi": 35,
          "time": 36.625,
          "velocity": 0.6299212598425197,
          "duration": 0.11770833333333286
        },
        {
          "name": "B2",
          "midi": 47,
          "time": 36.75,
          "velocity": 0.6299212598425197,
          "duration": 0.11770833333333286
        },
        {
          "name": "B1",
          "midi": 35,
          "time": 36.875,
          "velocity": 0.6299212598425197,
          "duration": 0.23645833333333144
        },
        {
          "name": "B1",
          "midi": 35,
          "time": 37.125,
          "velocity": 0.6299212598425197,
          "duration": 0.11770833333333286
        },
        {
          "name": "B2",
          "midi": 47,
          "time": 37.25,
          "velocity": 0.6299212598425197,
          "duration": 0.11770833333333286
        },
        {
          "name": "B1",
          "midi": 35,
          "time": 37.375,
          "velocity": 0.6299212598425197,
          "duration": 0.11770833333333286
        },
        {
          "name": "B1",
          "midi": 35,
          "time": 37.5,
          "velocity": 0.6299212598425197,
          "duration": 0.11770833333333286
        },
        {
          "name": "B1",
          "midi": 35,
          "time": 37.625,
          "velocity": 0.6299212598425197,
          "duration": 0.11770833333333286
        },
        {
          "name": "B2",
          "midi": 47,
          "time": 37.75,
          "velocity": 0.6299212598425197,
          "duration": 0.23645833333333144
        },
        {
          "name": "A#1",
          "midi": 34,
          "time": 38,
          "velocity": 0.6299212598425197,
          "duration": 0.23645833333333144
        },
        {
          "name": "A#2",
          "midi": 46,
          "time": 38.25,
          "velocity": 0.6456692913385826,
          "duration": 0.23645833333333144
        },
        {
          "name": "A#1",
          "midi": 34,
          "time": 38.5,
          "velocity": 0.6614173228346457,
          "duration": 0.11770833333333286
        },
        {
          "name": "A#1",
          "midi": 34,
          "time": 38.625,
          "velocity": 0.6692913385826772,
          "duration": 0.11770833333333286
        },
        {
          "name": "A#2",
          "midi": 46,
          "time": 38.75,
          "velocity": 0.6771653543307087,
          "duration": 0.11770833333333286
        },
        {
          "name": "C2",
          "midi": 36,
          "time": 38.875,
          "velocity": 0.6850393700787402,
          "duration": 0.23645833333333144
        },
        {
          "name": "C2",
          "midi": 36,
          "time": 39.125,
          "velocity": 0.7007874015748031,
          "duration": 0.11770833333333286
        },
        {
          "name": "C3",
          "midi": 48,
          "time": 39.25,
          "velocity": 0.7086614173228346,
          "duration": 0.11770833333333286
        },
        {
          "name": "C2",
          "midi": 36,
          "time": 39.375,
          "velocity": 0.7165354330708661,
          "duration": 0.11770833333333286
        },
        {
          "name": "C2",
          "midi": 36,
          "time": 39.5,
          "velocity": 0.7244094488188977,
          "duration": 0.11770833333333286
        },
        {
          "name": "C2",
          "midi": 36,
          "time": 39.625,
          "velocity": 0.7322834645669292,
          "duration": 0.11770833333333286
        },
        {
          "name": "C3",
          "midi": 48,
          "time": 39.75,
          "velocity": 0.7401574803149606,
          "duration": 0.23645833333333144
        },
        {
          "name": "D2",
          "midi": 38,
          "time": 40,
          "velocity": 0.7559055118110236,
          "duration": 0.11770833333333286
        },
        {
          "name": "D2",
          "midi": 38,
          "time": 40.125,
          "velocity": 0.7559055118110236,
          "duration": 0.11770833333333286
        },
        {
          "name": "D3",
          "midi": 50,
          "time": 40.25,
          "velocity": 0.7559055118110236,
          "duration": 0.12395833333333428
        },
        {
          "name": "A2",
          "midi": 45,
          "time": 40.5,
          "velocity": 0.7559055118110236,
          "duration": 0.18645833333333428
        },
        {
          "name": "D2",
          "midi": 38,
          "time": 40.5,
          "velocity": 0.7559055118110236,
          "duration": 0.11770833333333286
        },
        {
          "name": "D2",
          "midi": 38,
          "time": 40.625,
          "velocity": 0.7559055118110236,
          "duration": 0.11770833333333286
        },
        {
          "name": "D3",
          "midi": 50,
          "time": 40.75,
          "velocity": 0.7559055118110236,
          "duration": 0.11770833333333286
        },
        {
          "name": "G#2",
          "midi": 44,
          "time": 40.875,
          "velocity": 0.7559055118110236,
          "duration": 0.11770833333333286
        },
        {
          "name": "D2",
          "midi": 38,
          "time": 40.875,
          "velocity": 0.7559055118110236,
          "duration": 0.23645833333333144
        },
        {
          "name": "G2",
          "midi": 43,
          "time": 41.125,
          "velocity": 0.7559055118110236,
          "duration": 0.12395833333333428
        },
        {
          "name": "D2",
          "midi": 38,
          "time": 41.125,
          "velocity": 0.7559055118110236,
          "duration": 0.11770833333333286
        },
        {
          "name": "D3",
          "midi": 50,
          "time": 41.25,
          "velocity": 0.7559055118110236,
          "duration": 0.11770833333333286
        },
        {
          "name": "F2",
          "midi": 41,
          "time": 41.375,
          "velocity": 0.7559055118110236,
          "duration": 0.23645833333333144
        },
        {
          "name": "D2",
          "midi": 38,
          "time": 41.375,
          "velocity": 0.7559055118110236,
          "duration": 0.11770833333333286
        },
        {
          "name": "D2",
          "midi": 38,
          "time": 41.5,
          "velocity": 0.7559055118110236,
          "duration": 0.11770833333333286
        },
        {
          "name": "D2",
          "midi": 38,
          "time": 41.625,
          "velocity": 0.7559055118110236,
          "duration": 0.11770833333333286
        },
        {
          "name": "D2",
          "midi": 38,
          "time": 41.625,
          "velocity": 0.7559055118110236,
          "duration": 0.11770833333333286
        },
        {
          "name": "F2",
          "midi": 41,
          "time": 41.75,
          "velocity": 0.7559055118110236,
          "duration": 0.11770833333333286
        },
        {
          "name": "D3",
          "midi": 50,
          "time": 41.75,
          "velocity": 0.7559055118110236,
          "duration": 0.23645833333333144
        },
        {
          "name": "G2",
          "midi": 43,
          "time": 41.875,
          "velocity": 0.7559055118110236,
          "duration": 0.11770833333333286
        },
        {
          "name": "C2",
          "midi": 36,
          "time": 42,
          "velocity": 0.7559055118110236,
          "duration": 0.11770833333333286
        },
        {
          "name": "C2",
          "midi": 36,
          "time": 42.125,
          "velocity": 0.7559055118110236,
          "duration": 0.11770833333333286
        },
        {
          "name": "D3",
          "midi": 50,
          "time": 42.25,
          "velocity": 0.7559055118110236,
          "duration": 0.12395833333333428
        },
        {
          "name": "A2",
          "midi": 45,
          "time": 42.5,
          "velocity": 0.7559055118110236,
          "duration": 0.18645833333333428
        },
        {
          "name": "C2",
          "midi": 36,
          "time": 42.5,
          "velocity": 0.7559055118110236,
          "duration": 0.11770833333333286
        },
        {
          "name": "C2",
          "midi": 36,
          "time": 42.625,
          "velocity": 0.7559055118110236,
          "duration": 0.11770833333333286
        },
        {
          "name": "D3",
          "midi": 50,
          "time": 42.75,
          "velocity": 0.7559055118110236,
          "duration": 0.11770833333333286
        },
        {
          "name": "G#2",
          "midi": 44,
          "time": 42.875,
          "velocity": 0.7559055118110236,
          "duration": 0.11770833333333286
        },
        {
          "name": "C2",
          "midi": 36,
          "time": 42.875,
          "velocity": 0.7559055118110236,
          "duration": 0.23645833333333144
        },
        {
          "name": "G2",
          "midi": 43,
          "time": 43.125,
          "velocity": 0.7559055118110236,
          "duration": 0.12395833333333428
        },
        {
          "name": "C2",
          "midi": 36,
          "time": 43.125,
          "velocity": 0.7559055118110236,
          "duration": 0.11770833333333286
        },
        {
          "name": "D3",
          "midi": 50,
          "time": 43.25,
          "velocity": 0.7559055118110236,
          "duration": 0.11770833333333286
        },
        {
          "name": "F2",
          "midi": 41,
          "time": 43.375,
          "velocity": 0.7559055118110236,
          "duration": 0.23645833333333144
        },
        {
          "name": "C2",
          "midi": 36,
          "time": 43.375,
          "velocity": 0.7559055118110236,
          "duration": 0.11770833333333286
        },
        {
          "name": "C2",
          "midi": 36,
          "time": 43.5,
          "velocity": 0.7559055118110236,
          "duration": 0.11770833333333286
        },
        {
          "name": "D2",
          "midi": 38,
          "time": 43.625,
          "velocity": 0.7559055118110236,
          "duration": 0.11770833333333286
        },
        {
          "name": "D2",
          "midi": 38,
          "time": 43.625,
          "velocity": 0.7559055118110236,
          "duration": 0.11770833333333286
        },
        {
          "name": "F2",
          "midi": 41,
          "time": 43.75,
          "velocity": 0.7559055118110236,
          "duration": 0.11770833333333286
        },
        {
          "name": "D3",
          "midi": 50,
          "time": 43.75,
          "velocity": 0.7559055118110236,
          "duration": 0.23645833333333144
        },
        {
          "name": "G2",
          "midi": 43,
          "time": 43.875,
          "velocity": 0.7559055118110236,
          "duration": 0.11770833333333286
        },
        {
          "name": "B1",
          "midi": 35,
          "time": 44,
          "velocity": 0.7559055118110236,
          "duration": 0.11770833333333286
        },
        {
          "name": "B1",
          "midi": 35,
          "time": 44.125,
          "velocity": 0.7559055118110236,
          "duration": 0.11770833333333286
        },
        {
          "name": "D3",
          "midi": 50,
          "time": 44.25,
          "velocity": 0.7559055118110236,
          "duration": 0.12395833333333428
        },
        {
          "name": "A2",
          "midi": 45,
          "time": 44.5,
          "velocity": 0.7559055118110236,
          "duration": 0.18645833333333428
        },
        {
          "name": "B1",
          "midi": 35,
          "time": 44.5,
          "velocity": 0.7559055118110236,
          "duration": 0.11770833333333286
        },
        {
          "name": "B1",
          "midi": 35,
          "time": 44.625,
          "velocity": 0.7559055118110236,
          "duration": 0.11770833333333286
        },
        {
          "name": "D3",
          "midi": 50,
          "time": 44.75,
          "velocity": 0.7559055118110236,
          "duration": 0.11770833333333286
        },
        {
          "name": "G#2",
          "midi": 44,
          "time": 44.875,
          "velocity": 0.7559055118110236,
          "duration": 0.11770833333333286
        },
        {
          "name": "B1",
          "midi": 35,
          "time": 44.875,
          "velocity": 0.7559055118110236,
          "duration": 0.23645833333333144
        },
        {
          "name": "G2",
          "midi": 43,
          "time": 45.125,
          "velocity": 0.7559055118110236,
          "duration": 0.12395833333333428
        },
        {
          "name": "B1",
          "midi": 35,
          "time": 45.125,
          "velocity": 0.7559055118110236,
          "duration": 0.11770833333333286
        },
        {
          "name": "D3",
          "midi": 50,
          "time": 45.25,
          "velocity": 0.7559055118110236,
          "duration": 0.11770833333333286
        },
        {
          "name": "F2",
          "midi": 41,
          "time": 45.375,
          "velocity": 0.7559055118110236,
          "duration": 0.23645833333333144
        },
        {
          "name": "B1",
          "midi": 35,
          "time": 45.375,
          "velocity": 0.7559055118110236,
          "duration": 0.11770833333333286
        },
        {
          "name": "B1",
          "midi": 35,
          "time": 45.5,
          "velocity": 0.7559055118110236,
          "duration": 0.11770833333333286
        },
        {
          "name": "D2",
          "midi": 38,
          "time": 45.625,
          "velocity": 0.7559055118110236,
          "duration": 0.11770833333333286
        },
        {
          "name": "D2",
          "midi": 38,
          "time": 45.625,
          "velocity": 0.7559055118110236,
          "duration": 0.11770833333333286
        },
        {
          "name": "F2",
          "midi": 41,
          "time": 45.75,
          "velocity": 0.7559055118110236,
          "duration": 0.11770833333333286
        },
        {
          "name": "D3",
          "midi": 50,
          "time": 45.75,
          "velocity": 0.7559055118110236,
          "duration": 0.23645833333333144
        },
        {
          "name": "G2",
          "midi": 43,
          "time": 45.875,
          "velocity": 0.7559055118110236,
          "duration": 0.11770833333333286
        },
        {
          "name": "A#1",
          "midi": 34,
          "time": 46,
          "velocity": 0.7559055118110236,
          "duration": 0.11770833333333286
        },
        {
          "name": "A#1",
          "midi": 34,
          "time": 46.125,
          "velocity": 0.7559055118110236,
          "duration": 0.11770833333333286
        },
        {
          "name": "D3",
          "midi": 50,
          "time": 46.25,
          "velocity": 0.7559055118110236,
          "duration": 0.12395833333333428
        },
        {
          "name": "A2",
          "midi": 45,
          "time": 46.5,
          "velocity": 0.7559055118110236,
          "duration": 0.18645833333333428
        },
        {
          "name": "A#1",
          "midi": 34,
          "time": 46.5,
          "velocity": 0.7559055118110236,
          "duration": 0.11770833333333286
        },
        {
          "name": "A#1",
          "midi": 34,
          "time": 46.625,
          "velocity": 0.7559055118110236,
          "duration": 0.11770833333333286
        },
        {
          "name": "D3",
          "midi": 50,
          "time": 46.75,
          "velocity": 0.7559055118110236,
          "duration": 0.11770833333333286
        },
        {
          "name": "G#2",
          "midi": 44,
          "time": 46.875,
          "velocity": 0.7559055118110236,
          "duration": 0.11770833333333286
        },
        {
          "name": "C2",
          "midi": 36,
          "time": 46.875,
          "velocity": 0.7559055118110236,
          "duration": 0.23645833333333144
        },
        {
          "name": "G2",
          "midi": 43,
          "time": 47.125,
          "velocity": 0.7559055118110236,
          "duration": 0.12395833333333428
        },
        {
          "name": "C2",
          "midi": 36,
          "time": 47.125,
          "velocity": 0.7559055118110236,
          "duration": 0.11770833333333286
        },
        {
          "name": "D3",
          "midi": 50,
          "time": 47.25,
          "velocity": 0.7559055118110236,
          "duration": 0.11770833333333286
        },
        {
          "name": "F2",
          "midi": 41,
          "time": 47.375,
          "velocity": 0.7559055118110236,
          "duration": 0.23645833333333144
        },
        {
          "name": "C2",
          "midi": 36,
          "time": 47.375,
          "velocity": 0.7559055118110236,
          "duration": 0.11770833333333286
        },
        {
          "name": "C2",
          "midi": 36,
          "time": 47.5,
          "velocity": 0.7559055118110236,
          "duration": 0.11770833333333286
        },
        {
          "name": "D2",
          "midi": 38,
          "time": 47.625,
          "velocity": 0.7559055118110236,
          "duration": 0.11770833333333286
        },
        {
          "name": "D2",
          "midi": 38,
          "time": 47.625,
          "velocity": 0.7559055118110236,
          "duration": 0.11770833333333286
        },
        {
          "name": "F2",
          "midi": 41,
          "time": 47.75,
          "velocity": 0.7559055118110236,
          "duration": 0.11770833333333286
        },
        {
          "name": "D3",
          "midi": 50,
          "time": 47.75,
          "velocity": 0.7559055118110236,
          "duration": 0.23645833333333144
        },
        {
          "name": "G2",
          "midi": 43,
          "time": 47.875,
          "velocity": 0.7559055118110236,
          "duration": 0.11770833333333286
        },
        {
          "name": "A#1",
          "midi": 34,
          "time": 48,
          "velocity": 0.6299212598425197,
          "duration": 0.23645833333333144
        },
        {
          "name": "A#2",
          "midi": 46,
          "time": 48.25,
          "velocity": 0.6299212598425197,
          "duration": 0.23645833333333144
        },
        {
          "name": "A#1",
          "midi": 34,
          "time": 48.5,
          "velocity": 0.6299212598425197,
          "duration": 0.11770833333333286
        },
        {
          "name": "A#1",
          "midi": 34,
          "time": 48.625,
          "velocity": 0.6299212598425197,
          "duration": 0.11770833333333286
        },
        {
          "name": "A#2",
          "midi": 46,
          "time": 48.75,
          "velocity": 0.6299212598425197,
          "duration": 0.11770833333333286
        },
        {
          "name": "A#1",
          "midi": 34,
          "time": 48.875,
          "velocity": 0.6299212598425197,
          "duration": 0.23645833333333144
        },
        {
          "name": "A#1",
          "midi": 34,
          "time": 49.125,
          "velocity": 0.6299212598425197,
          "duration": 0.11770833333333286
        },
        {
          "name": "A#2",
          "midi": 46,
          "time": 49.25,
          "velocity": 0.6299212598425197,
          "duration": 0.11770833333333286
        },
        {
          "name": "A#1",
          "midi": 34,
          "time": 49.375,
          "velocity": 0.6299212598425197,
          "duration": 0.11770833333333286
        },
        {
          "name": "A#1",
          "midi": 34,
          "time": 49.5,
          "velocity": 0.6299212598425197,
          "duration": 0.11770833333333286
        },
        {
          "name": "A#1",
          "midi": 34,
          "time": 49.625,
          "velocity": 0.6299212598425197,
          "duration": 0.11770833333333286
        },
        {
          "name": "A#2",
          "midi": 46,
          "time": 49.75,
          "velocity": 0.6299212598425197,
          "duration": 0.23645833333333144
        },
        {
          "name": "C2",
          "midi": 36,
          "time": 50,
          "velocity": 0.6299212598425197,
          "duration": 0.23645833333333144
        },
        {
          "name": "C3",
          "midi": 48,
          "time": 50.25,
          "velocity": 0.6299212598425197,
          "duration": 0.23645833333333144
        },
        {
          "name": "C2",
          "midi": 36,
          "time": 50.5,
          "velocity": 0.6299212598425197,
          "duration": 0.11770833333333286
        },
        {
          "name": "C2",
          "midi": 36,
          "time": 50.625,
          "velocity": 0.6299212598425197,
          "duration": 0.11770833333333286
        },
        {
          "name": "C3",
          "midi": 48,
          "time": 50.75,
          "velocity": 0.6299212598425197,
          "duration": 0.11770833333333286
        },
        {
          "name": "C2",
          "midi": 36,
          "time": 50.875,
          "velocity": 0.6299212598425197,
          "duration": 0.23645833333333144
        },
        {
          "name": "C2",
          "midi": 36,
          "time": 51.125,
          "velocity": 0.6299212598425197,
          "duration": 0.11770833333333286
        },
        {
          "name": "C3",
          "midi": 48,
          "time": 51.25,
          "velocity": 0.6299212598425197,
          "duration": 0.11770833333333286
        },
        {
          "name": "C2",
          "midi": 36,
          "time": 51.375,
          "velocity": 0.6299212598425197,
          "duration": 0.11770833333333286
        },
        {
          "name": "C2",
          "midi": 36,
          "time": 51.5,
          "velocity": 0.6299212598425197,
          "duration": 0.11770833333333286
        },
        {
          "name": "C2",
          "midi": 36,
          "time": 51.625,
          "velocity": 0.6299212598425197,
          "duration": 0.11770833333333286
        },
        {
          "name": "C3",
          "midi": 48,
          "time": 51.75,
          "velocity": 0.6299212598425197,
          "duration": 0.23645833333333144
        },
        {
          "name": "D2",
          "midi": 38,
          "time": 52,
          "velocity": 0.6299212598425197,
          "duration": 0.23645833333333144
        },
        {
          "name": "D3",
          "midi": 50,
          "time": 52.25,
          "velocity": 0.6299212598425197,
          "duration": 0.23645833333333144
        },
        {
          "name": "D2",
          "midi": 38,
          "time": 52.5,
          "velocity": 0.6299212598425197,
          "duration": 0.11770833333333286
        },
        {
          "name": "D2",
          "midi": 38,
          "time": 52.625,
          "velocity": 0.6299212598425197,
          "duration": 0.11770833333333286
        },
        {
          "name": "D3",
          "midi": 50,
          "time": 52.75,
          "velocity": 0.6299212598425197,
          "duration": 0.11770833333333286
        },
        {
          "name": "D2",
          "midi": 38,
          "time": 52.875,
          "velocity": 0.6299212598425197,
          "duration": 0.23645833333333144
        },
        {
          "name": "D2",
          "midi": 38,
          "time": 53.125,
          "velocity": 0.6299212598425197,
          "duration": 0.11770833333333286
        },
        {
          "name": "D3",
          "midi": 50,
          "time": 53.25,
          "velocity": 0.6299212598425197,
          "duration": 0.11770833333333286
        },
        {
          "name": "D2",
          "midi": 38,
          "time": 53.375,
          "velocity": 0.6299212598425197,
          "duration": 0.11770833333333286
        },
        {
          "name": "D2",
          "midi": 38,
          "time": 53.5,
          "velocity": 0.6299212598425197,
          "duration": 0.11770833333333286
        },
        {
          "name": "D2",
          "midi": 38,
          "time": 53.625,
          "velocity": 0.6299212598425197,
          "duration": 0.11770833333333286
        },
        {
          "name": "D3",
          "midi": 50,
          "time": 53.75,
          "velocity": 0.6299212598425197,
          "duration": 0.23645833333333144
        },
        {
          "name": "C#2",
          "midi": 37,
          "time": 54,
          "velocity": 0.6299212598425197,
          "duration": 0.23645833333333144
        },
        {
          "name": "C#3",
          "midi": 49,
          "time": 54.25,
          "velocity": 0.6299212598425197,
          "duration": 0.23645833333333144
        },
        {
          "name": "C#2",
          "midi": 37,
          "time": 54.5,
          "velocity": 0.6299212598425197,
          "duration": 0.11770833333333286
        },
        {
          "name": "C#2",
          "midi": 37,
          "time": 54.625,
          "velocity": 0.6299212598425197,
          "duration": 0.11770833333333286
        },
        {
          "name": "C#3",
          "midi": 49,
          "time": 54.75,
          "velocity": 0.6299212598425197,
          "duration": 0.11770833333333286
        },
        {
          "name": "D#2",
          "midi": 39,
          "time": 54.875,
          "velocity": 0.6299212598425197,
          "duration": 0.23645833333333144
        },
        {
          "name": "D#2",
          "midi": 39,
          "time": 55.125,
          "velocity": 0.6299212598425197,
          "duration": 0.11770833333333286
        },
        {
          "name": "D#3",
          "midi": 51,
          "time": 55.25,
          "velocity": 0.6299212598425197,
          "duration": 0.11770833333333286
        },
        {
          "name": "D#2",
          "midi": 39,
          "time": 55.375,
          "velocity": 0.6299212598425197,
          "duration": 0.11770833333333286
        },
        {
          "name": "D#2",
          "midi": 39,
          "time": 55.5,
          "velocity": 0.6299212598425197,
          "duration": 0.11770833333333286
        },
        {
          "name": "D#2",
          "midi": 39,
          "time": 55.625,
          "velocity": 0.6299212598425197,
          "duration": 0.11770833333333286
        },
        {
          "name": "D#3",
          "midi": 51,
          "time": 55.75,
          "velocity": 0.6299212598425197,
          "duration": 0.23645833333333144
        },
        {
          "name": "A#1",
          "midi": 34,
          "time": 56,
          "velocity": 0.6299212598425197,
          "duration": 0.23645833333333144
        },
        {
          "name": "A#2",
          "midi": 46,
          "time": 56.25,
          "velocity": 0.6299212598425197,
          "duration": 0.23645833333333144
        },
        {
          "name": "A#1",
          "midi": 34,
          "time": 56.5,
          "velocity": 0.6299212598425197,
          "duration": 0.11770833333333286
        },
        {
          "name": "A#1",
          "midi": 34,
          "time": 56.625,
          "velocity": 0.6299212598425197,
          "duration": 0.11770833333333286
        },
        {
          "name": "A#2",
          "midi": 46,
          "time": 56.75,
          "velocity": 0.6299212598425197,
          "duration": 0.11770833333333286
        },
        {
          "name": "A#1",
          "midi": 34,
          "time": 56.875,
          "velocity": 0.6299212598425197,
          "duration": 0.23645833333333144
        },
        {
          "name": "A#1",
          "midi": 34,
          "time": 57.125,
          "velocity": 0.6299212598425197,
          "duration": 0.11770833333333286
        },
        {
          "name": "A#2",
          "midi": 46,
          "time": 57.25,
          "velocity": 0.6299212598425197,
          "duration": 0.11770833333333286
        },
        {
          "name": "A#1",
          "midi": 34,
          "time": 57.375,
          "velocity": 0.6299212598425197,
          "duration": 0.11770833333333286
        },
        {
          "name": "A#1",
          "midi": 34,
          "time": 57.5,
          "velocity": 0.6299212598425197,
          "duration": 0.11770833333333286
        },
        {
          "name": "A#1",
          "midi": 34,
          "time": 57.625,
          "velocity": 0.6299212598425197,
          "duration": 0.11770833333333286
        },
        {
          "name": "A#2",
          "midi": 46,
          "time": 57.75,
          "velocity": 0.6299212598425197,
          "duration": 0.23645833333333144
        },
        {
          "name": "C2",
          "midi": 36,
          "time": 58,
          "velocity": 0.6299212598425197,
          "duration": 0.23645833333333144
        },
        {
          "name": "C3",
          "midi": 48,
          "time": 58.25,
          "velocity": 0.6299212598425197,
          "duration": 0.23645833333333144
        },
        {
          "name": "C2",
          "midi": 36,
          "time": 58.5,
          "velocity": 0.6299212598425197,
          "duration": 0.11770833333333286
        },
        {
          "name": "C2",
          "midi": 36,
          "time": 58.625,
          "velocity": 0.6299212598425197,
          "duration": 0.11770833333333286
        },
        {
          "name": "C3",
          "midi": 48,
          "time": 58.75,
          "velocity": 0.6299212598425197,
          "duration": 0.11770833333333286
        },
        {
          "name": "C2",
          "midi": 36,
          "time": 58.875,
          "velocity": 0.6299212598425197,
          "duration": 0.23645833333333144
        },
        {
          "name": "C2",
          "midi": 36,
          "time": 59.125,
          "velocity": 0.6299212598425197,
          "duration": 0.11770833333333286
        },
        {
          "name": "C3",
          "midi": 48,
          "time": 59.25,
          "velocity": 0.6299212598425197,
          "duration": 0.11770833333333286
        },
        {
          "name": "C2",
          "midi": 36,
          "time": 59.375,
          "velocity": 0.6299212598425197,
          "duration": 0.11770833333333286
        },
        {
          "name": "C2",
          "midi": 36,
          "time": 59.5,
          "velocity": 0.6299212598425197,
          "duration": 0.11770833333333286
        },
        {
          "name": "C2",
          "midi": 36,
          "time": 59.625,
          "velocity": 0.6299212598425197,
          "duration": 0.11770833333333286
        },
        {
          "name": "C3",
          "midi": 48,
          "time": 59.75,
          "velocity": 0.6299212598425197,
          "duration": 0.23645833333333144
        },
        {
          "name": "D2",
          "midi": 38,
          "time": 60,
          "velocity": 0.6299212598425197,
          "duration": 0.23645833333333144
        },
        {
          "name": "D3",
          "midi": 50,
          "time": 60.25,
          "velocity": 0.6299212598425197,
          "duration": 0.23645833333333144
        },
        {
          "name": "D2",
          "midi": 38,
          "time": 60.5,
          "velocity": 0.6299212598425197,
          "duration": 0.11770833333333286
        },
        {
          "name": "D2",
          "midi": 38,
          "time": 60.625,
          "velocity": 0.6299212598425197,
          "duration": 0.11770833333333286
        },
        {
          "name": "D3",
          "midi": 50,
          "time": 60.75,
          "velocity": 0.6299212598425197,
          "duration": 0.11770833333333286
        },
        {
          "name": "D2",
          "midi": 38,
          "time": 60.875,
          "velocity": 0.6299212598425197,
          "duration": 0.23645833333333144
        },
        {
          "name": "D2",
          "midi": 38,
          "time": 61.125,
          "velocity": 0.6299212598425197,
          "duration": 0.11770833333333286
        },
        {
          "name": "D3",
          "midi": 50,
          "time": 61.25,
          "velocity": 0.6299212598425197,
          "duration": 0.11770833333333286
        },
        {
          "name": "D2",
          "midi": 38,
          "time": 61.375,
          "velocity": 0.6299212598425197,
          "duration": 0.11770833333333286
        },
        {
          "name": "D2",
          "midi": 38,
          "time": 61.5,
          "velocity": 0.6299212598425197,
          "duration": 0.11770833333333286
        },
        {
          "name": "D2",
          "midi": 38,
          "time": 61.625,
          "velocity": 0.6299212598425197,
          "duration": 0.11770833333333286
        },
        {
          "name": "D3",
          "midi": 50,
          "time": 61.75,
          "velocity": 0.6299212598425197,
          "duration": 0.23645833333333144
        },
        {
          "name": "C#2",
          "midi": 37,
          "time": 62,
          "velocity": 0.6299212598425197,
          "duration": 0.23645833333333144
        },
        {
          "name": "C#3",
          "midi": 49,
          "time": 62.25,
          "velocity": 0.6299212598425197,
          "duration": 0.23645833333333144
        },
        {
          "name": "C#2",
          "midi": 37,
          "time": 62.5,
          "velocity": 0.6299212598425197,
          "duration": 0.11770833333333286
        },
        {
          "name": "C#2",
          "midi": 37,
          "time": 62.625,
          "velocity": 0.6299212598425197,
          "duration": 0.11770833333333286
        },
        {
          "name": "C#3",
          "midi": 49,
          "time": 62.75,
          "velocity": 0.6299212598425197,
          "duration": 0.11770833333333286
        },
        {
          "name": "D#2",
          "midi": 39,
          "time": 62.875,
          "velocity": 0.6299212598425197,
          "duration": 0.23645833333333144
        },
        {
          "name": "D#2",
          "midi": 39,
          "time": 63.125,
          "velocity": 0.6299212598425197,
          "duration": 0.11770833333333286
        },
        {
          "name": "D#3",
          "midi": 51,
          "time": 63.25,
          "velocity": 0.6299212598425197,
          "duration": 0.11770833333333286
        },
        {
          "name": "D#2",
          "midi": 39,
          "time": 63.375,
          "velocity": 0.6299212598425197,
          "duration": 0.11770833333333286
        },
        {
          "name": "D#2",
          "midi": 39,
          "time": 63.5,
          "velocity": 0.6299212598425197,
          "duration": 0.11770833333333286
        },
        {
          "name": "D#2",
          "midi": 39,
          "time": 63.625,
          "velocity": 0.6299212598425197,
          "duration": 0.11770833333333286
        },
        {
          "name": "D#3",
          "midi": 51,
          "time": 63.75,
          "velocity": 0.6299212598425197,
          "duration": 0.23645833333333144
        },
        {
          "name": "A#1",
          "midi": 34,
          "time": 64,
          "velocity": 0.6299212598425197,
          "duration": 0.23645833333333144
        },
        {
          "name": "A#2",
          "midi": 46,
          "time": 64.25,
          "velocity": 0.6299212598425197,
          "duration": 0.23645833333333144
        },
        {
          "name": "A#1",
          "midi": 34,
          "time": 64.5,
          "velocity": 0.6299212598425197,
          "duration": 0.11770833333333997
        },
        {
          "name": "A#1",
          "midi": 34,
          "time": 64.625,
          "velocity": 0.6299212598425197,
          "duration": 0.11770833333333997
        },
        {
          "name": "A#2",
          "midi": 46,
          "time": 64.75,
          "velocity": 0.6299212598425197,
          "duration": 0.11770833333333997
        },
        {
          "name": "A#1",
          "midi": 34,
          "time": 64.875,
          "velocity": 0.6299212598425197,
          "duration": 0.23645833333333144
        },
        {
          "name": "A#1",
          "midi": 34,
          "time": 65.125,
          "velocity": 0.6299212598425197,
          "duration": 0.11770833333333997
        },
        {
          "name": "A#2",
          "midi": 46,
          "time": 65.25,
          "velocity": 0.6299212598425197,
          "duration": 0.11770833333333997
        },
        {
          "name": "A#1",
          "midi": 34,
          "time": 65.375,
          "velocity": 0.6299212598425197,
          "duration": 0.11770833333333997
        },
        {
          "name": "A#1",
          "midi": 34,
          "time": 65.5,
          "velocity": 0.6299212598425197,
          "duration": 0.11770833333333997
        },
        {
          "name": "A#1",
          "midi": 34,
          "time": 65.625,
          "velocity": 0.6299212598425197,
          "duration": 0.11770833333333997
        },
        {
          "name": "A#2",
          "midi": 46,
          "time": 65.75,
          "velocity": 0.6299212598425197,
          "duration": 0.23645833333333144
        },
        {
          "name": "C2",
          "midi": 36,
          "time": 66,
          "velocity": 0.6299212598425197,
          "duration": 0.23645833333333144
        },
        {
          "name": "C3",
          "midi": 48,
          "time": 66.25,
          "velocity": 0.6299212598425197,
          "duration": 0.23645833333333144
        },
        {
          "name": "C2",
          "midi": 36,
          "time": 66.5,
          "velocity": 0.6299212598425197,
          "duration": 0.11770833333333997
        },
        {
          "name": "C2",
          "midi": 36,
          "time": 66.625,
          "velocity": 0.6299212598425197,
          "duration": 0.11770833333333997
        },
        {
          "name": "C3",
          "midi": 48,
          "time": 66.75,
          "velocity": 0.6299212598425197,
          "duration": 0.11770833333333997
        },
        {
          "name": "C2",
          "midi": 36,
          "time": 66.875,
          "velocity": 0.6299212598425197,
          "duration": 0.23645833333333144
        },
        {
          "name": "C2",
          "midi": 36,
          "time": 67.125,
          "velocity": 0.6299212598425197,
          "duration": 0.11770833333333997
        },
        {
          "name": "C3",
          "midi": 48,
          "time": 67.25,
          "velocity": 0.6299212598425197,
          "duration": 0.11770833333333997
        },
        {
          "name": "C2",
          "midi": 36,
          "time": 67.375,
          "velocity": 0.6299212598425197,
          "duration": 0.11770833333333997
        },
        {
          "name": "C2",
          "midi": 36,
          "time": 67.5,
          "velocity": 0.6299212598425197,
          "duration": 0.11770833333333997
        },
        {
          "name": "C2",
          "midi": 36,
          "time": 67.625,
          "velocity": 0.6299212598425197,
          "duration": 0.11770833333333997
        },
        {
          "name": "C3",
          "midi": 48,
          "time": 67.75,
          "velocity": 0.6299212598425197,
          "duration": 0.23645833333333144
        },
        {
          "name": "D2",
          "midi": 38,
          "time": 68,
          "velocity": 0.6299212598425197,
          "duration": 0.23645833333333144
        },
        {
          "name": "D3",
          "midi": 50,
          "time": 68.25,
          "velocity": 0.6299212598425197,
          "duration": 0.23645833333333144
        },
        {
          "name": "D2",
          "midi": 38,
          "time": 68.5,
          "velocity": 0.6299212598425197,
          "duration": 0.11770833333333997
        },
        {
          "name": "D2",
          "midi": 38,
          "time": 68.625,
          "velocity": 0.6299212598425197,
          "duration": 0.11770833333333997
        },
        {
          "name": "D3",
          "midi": 50,
          "time": 68.75,
          "velocity": 0.6299212598425197,
          "duration": 0.11770833333333997
        },
        {
          "name": "D2",
          "midi": 38,
          "time": 68.875,
          "velocity": 0.6299212598425197,
          "duration": 0.23645833333333144
        },
        {
          "name": "D2",
          "midi": 38,
          "time": 69.125,
          "velocity": 0.6299212598425197,
          "duration": 0.11770833333333997
        },
        {
          "name": "D3",
          "midi": 50,
          "time": 69.25,
          "velocity": 0.6299212598425197,
          "duration": 0.11770833333333997
        },
        {
          "name": "D2",
          "midi": 38,
          "time": 69.375,
          "velocity": 0.6299212598425197,
          "duration": 0.11770833333333997
        },
        {
          "name": "D2",
          "midi": 38,
          "time": 69.5,
          "velocity": 0.6299212598425197,
          "duration": 0.11770833333333997
        },
        {
          "name": "D2",
          "midi": 38,
          "time": 69.625,
          "velocity": 0.6299212598425197,
          "duration": 0.11770833333333997
        },
        {
          "name": "D3",
          "midi": 50,
          "time": 69.75,
          "velocity": 0.6299212598425197,
          "duration": 0.23645833333333144
        },
        {
          "name": "C#2",
          "midi": 37,
          "time": 70,
          "velocity": 0.6299212598425197,
          "duration": 0.23645833333333144
        },
        {
          "name": "C#3",
          "midi": 49,
          "time": 70.25,
          "velocity": 0.6299212598425197,
          "duration": 0.23645833333333144
        },
        {
          "name": "C#2",
          "midi": 37,
          "time": 70.5,
          "velocity": 0.6299212598425197,
          "duration": 0.11770833333333997
        },
        {
          "name": "C#2",
          "midi": 37,
          "time": 70.625,
          "velocity": 0.6299212598425197,
          "duration": 0.11770833333333997
        },
        {
          "name": "C#3",
          "midi": 49,
          "time": 70.75,
          "velocity": 0.6299212598425197,
          "duration": 0.11770833333333997
        },
        {
          "name": "D#2",
          "midi": 39,
          "time": 70.875,
          "velocity": 0.6299212598425197,
          "duration": 0.23645833333333144
        },
        {
          "name": "D#2",
          "midi": 39,
          "time": 71.125,
          "velocity": 0.6299212598425197,
          "duration": 0.11770833333333997
        },
        {
          "name": "D#3",
          "midi": 51,
          "time": 71.25,
          "velocity": 0.6299212598425197,
          "duration": 0.11770833333333997
        },
        {
          "name": "D#2",
          "midi": 39,
          "time": 71.375,
          "velocity": 0.6299212598425197,
          "duration": 0.11770833333333997
        },
        {
          "name": "D#2",
          "midi": 39,
          "time": 71.5,
          "velocity": 0.6299212598425197,
          "duration": 0.11770833333333997
        },
        {
          "name": "D#2",
          "midi": 39,
          "time": 71.625,
          "velocity": 0.6299212598425197,
          "duration": 0.11770833333333997
        },
        {
          "name": "D#3",
          "midi": 51,
          "time": 71.75,
          "velocity": 0.6299212598425197,
          "duration": 0.23645833333333144
        },
        {
          "name": "A#1",
          "midi": 34,
          "time": 72,
          "velocity": 0.6299212598425197,
          "duration": 0.23645833333333144
        },
        {
          "name": "A#2",
          "midi": 46,
          "time": 72.25,
          "velocity": 0.6299212598425197,
          "duration": 0.23645833333333144
        },
        {
          "name": "A#1",
          "midi": 34,
          "time": 72.5,
          "velocity": 0.6299212598425197,
          "duration": 0.11770833333333997
        },
        {
          "name": "A#1",
          "midi": 34,
          "time": 72.625,
          "velocity": 0.6299212598425197,
          "duration": 0.11770833333333997
        },
        {
          "name": "A#2",
          "midi": 46,
          "time": 72.75,
          "velocity": 0.6299212598425197,
          "duration": 0.11770833333333997
        },
        {
          "name": "A#1",
          "midi": 34,
          "time": 72.875,
          "velocity": 0.6299212598425197,
          "duration": 0.23645833333333144
        },
        {
          "name": "A#1",
          "midi": 34,
          "time": 73.125,
          "velocity": 0.6299212598425197,
          "duration": 0.11770833333333997
        },
        {
          "name": "A#2",
          "midi": 46,
          "time": 73.25,
          "velocity": 0.6299212598425197,
          "duration": 0.11770833333333997
        },
        {
          "name": "A#1",
          "midi": 34,
          "time": 73.375,
          "velocity": 0.6299212598425197,
          "duration": 0.11770833333333997
        },
        {
          "name": "A#1",
          "midi": 34,
          "time": 73.5,
          "velocity": 0.6299212598425197,
          "duration": 0.11770833333333997
        },
        {
          "name": "A#1",
          "midi": 34,
          "time": 73.625,
          "velocity": 0.6299212598425197,
          "duration": 0.11770833333333997
        },
        {
          "name": "A#2",
          "midi": 46,
          "time": 73.75,
          "velocity": 0.6299212598425197,
          "duration": 0.23645833333333144
        },
        {
          "name": "C2",
          "midi": 36,
          "time": 74,
          "velocity": 0.6299212598425197,
          "duration": 0.23645833333333144
        },
        {
          "name": "C3",
          "midi": 48,
          "time": 74.25,
          "velocity": 0.6299212598425197,
          "duration": 0.23645833333333144
        },
        {
          "name": "C2",
          "midi": 36,
          "time": 74.5,
          "velocity": 0.6299212598425197,
          "duration": 0.11770833333333997
        },
        {
          "name": "C2",
          "midi": 36,
          "time": 74.625,
          "velocity": 0.6299212598425197,
          "duration": 0.11770833333333997
        },
        {
          "name": "C3",
          "midi": 48,
          "time": 74.75,
          "velocity": 0.6299212598425197,
          "duration": 0.11770833333333997
        },
        {
          "name": "C2",
          "midi": 36,
          "time": 74.875,
          "velocity": 0.6299212598425197,
          "duration": 0.23645833333333144
        },
        {
          "name": "C2",
          "midi": 36,
          "time": 75.125,
          "velocity": 0.6299212598425197,
          "duration": 0.11770833333333997
        },
        {
          "name": "C3",
          "midi": 48,
          "time": 75.25,
          "velocity": 0.6299212598425197,
          "duration": 0.11770833333333997
        },
        {
          "name": "C2",
          "midi": 36,
          "time": 75.375,
          "velocity": 0.6299212598425197,
          "duration": 0.11770833333333997
        },
        {
          "name": "C2",
          "midi": 36,
          "time": 75.5,
          "velocity": 0.6299212598425197,
          "duration": 0.11770833333333997
        },
        {
          "name": "C2",
          "midi": 36,
          "time": 75.625,
          "velocity": 0.6299212598425197,
          "duration": 0.11770833333333997
        },
        {
          "name": "C3",
          "midi": 48,
          "time": 75.75,
          "velocity": 0.6299212598425197,
          "duration": 0.23645833333333144
        },
        {
          "name": "D2",
          "midi": 38,
          "time": 76,
          "velocity": 0.6299212598425197,
          "duration": 0.23645833333333144
        },
        {
          "name": "D3",
          "midi": 50,
          "time": 76.25,
          "velocity": 0.6299212598425197,
          "duration": 0.23645833333333144
        },
        {
          "name": "D2",
          "midi": 38,
          "time": 76.5,
          "velocity": 0.6299212598425197,
          "duration": 0.11770833333333997
        },
        {
          "name": "D2",
          "midi": 38,
          "time": 76.625,
          "velocity": 0.6299212598425197,
          "duration": 0.11770833333333997
        },
        {
          "name": "D3",
          "midi": 50,
          "time": 76.75,
          "velocity": 0.6299212598425197,
          "duration": 0.11770833333333997
        },
        {
          "name": "D2",
          "midi": 38,
          "time": 76.875,
          "velocity": 0.6299212598425197,
          "duration": 0.23645833333333144
        },
        {
          "name": "D2",
          "midi": 38,
          "time": 77.125,
          "velocity": 0.6299212598425197,
          "duration": 0.11770833333333997
        },
        {
          "name": "D3",
          "midi": 50,
          "time": 77.25,
          "velocity": 0.6299212598425197,
          "duration": 0.11770833333333997
        },
        {
          "name": "D2",
          "midi": 38,
          "time": 77.375,
          "velocity": 0.6299212598425197,
          "duration": 0.11770833333333997
        },
        {
          "name": "D2",
          "midi": 38,
          "time": 77.5,
          "velocity": 0.6299212598425197,
          "duration": 0.11770833333333997
        },
        {
          "name": "D2",
          "midi": 38,
          "time": 77.625,
          "velocity": 0.6299212598425197,
          "duration": 0.11770833333333997
        },
        {
          "name": "D3",
          "midi": 50,
          "time": 77.75,
          "velocity": 0.6299212598425197,
          "duration": 0.23645833333333144
        },
        {
          "name": "C#2",
          "midi": 37,
          "time": 78,
          "velocity": 0.6299212598425197,
          "duration": 0.23645833333333144
        },
        {
          "name": "C#3",
          "midi": 49,
          "time": 78.25,
          "velocity": 0.6299212598425197,
          "duration": 0.23645833333333144
        },
        {
          "name": "C#2",
          "midi": 37,
          "time": 78.5,
          "velocity": 0.6299212598425197,
          "duration": 0.11770833333333997
        },
        {
          "name": "C#2",
          "midi": 37,
          "time": 78.625,
          "velocity": 0.6299212598425197,
          "duration": 0.11770833333333997
        },
        {
          "name": "C#3",
          "midi": 49,
          "time": 78.75,
          "velocity": 0.6299212598425197,
          "duration": 0.11770833333333997
        },
        {
          "name": "D#2",
          "midi": 39,
          "time": 78.875,
          "velocity": 0.6299212598425197,
          "duration": 0.23645833333333144
        },
        {
          "name": "D#2",
          "midi": 39,
          "time": 79.125,
          "velocity": 0.6299212598425197,
          "duration": 0.11770833333333997
        },
        {
          "name": "D#3",
          "midi": 51,
          "time": 79.25,
          "velocity": 0.6299212598425197,
          "duration": 0.11770833333333997
        },
        {
          "name": "D#2",
          "midi": 39,
          "time": 79.375,
          "velocity": 0.6299212598425197,
          "duration": 0.11770833333333997
        },
        {
          "name": "D#2",
          "midi": 39,
          "time": 79.5,
          "velocity": 0.6299212598425197,
          "duration": 0.11770833333333997
        },
        {
          "name": "D#2",
          "midi": 39,
          "time": 79.625,
          "velocity": 0.6299212598425197,
          "duration": 0.11770833333333997
        },
        {
          "name": "D#3",
          "midi": 51,
          "time": 79.75,
          "velocity": 0.6299212598425197,
          "duration": 0.23645833333333144
        },
        {
          "name": "A#1",
          "midi": 34,
          "time": 80,
          "velocity": 0.5039370078740157,
          "duration": 0.23645833333333144
        },
        {
          "name": "A#1",
          "midi": 34,
          "time": 80.25,
          "velocity": 0.5039370078740157,
          "duration": 0.23645833333333144
        },
        {
          "name": "A#1",
          "midi": 34,
          "time": 80.5,
          "velocity": 0.5039370078740157,
          "duration": 0.11770833333333997
        },
        {
          "name": "A#1",
          "midi": 34,
          "time": 80.625,
          "velocity": 0.5039370078740157,
          "duration": 0.23645833333333144
        },
        {
          "name": "A#1",
          "midi": 34,
          "time": 80.875,
          "velocity": 0.5039370078740157,
          "duration": 0.23645833333333144
        },
        {
          "name": "A#1",
          "midi": 34,
          "time": 81.125,
          "velocity": 0.5039370078740157,
          "duration": 0.23645833333333144
        },
        {
          "name": "A#1",
          "midi": 34,
          "time": 81.375,
          "velocity": 0.5039370078740157,
          "duration": 0.11770833333333997
        },
        {
          "name": "A#1",
          "midi": 34,
          "time": 81.5,
          "velocity": 0.5039370078740157,
          "duration": 0.11770833333333997
        },
        {
          "name": "A#1",
          "midi": 34,
          "time": 81.625,
          "velocity": 0.5039370078740157,
          "duration": 0.11770833333333997
        },
        {
          "name": "A#1",
          "midi": 34,
          "time": 81.75,
          "velocity": 0.5039370078740157,
          "duration": 0.23645833333333144
        },
        {
          "name": "C2",
          "midi": 36,
          "time": 82,
          "velocity": 0.5039370078740157,
          "duration": 0.23645833333333144
        },
        {
          "name": "C2",
          "midi": 36,
          "time": 82.25,
          "velocity": 0.5039370078740157,
          "duration": 0.23645833333333144
        },
        {
          "name": "C2",
          "midi": 36,
          "time": 82.5,
          "velocity": 0.5039370078740157,
          "duration": 0.11770833333333997
        },
        {
          "name": "C2",
          "midi": 36,
          "time": 82.625,
          "velocity": 0.5039370078740157,
          "duration": 0.23645833333333144
        },
        {
          "name": "C2",
          "midi": 36,
          "time": 82.875,
          "velocity": 0.5039370078740157,
          "duration": 0.23645833333333144
        },
        {
          "name": "C2",
          "midi": 36,
          "time": 83.125,
          "velocity": 0.5039370078740157,
          "duration": 0.23645833333333144
        },
        {
          "name": "C2",
          "midi": 36,
          "time": 83.375,
          "velocity": 0.5039370078740157,
          "duration": 0.11770833333333997
        },
        {
          "name": "C2",
          "midi": 36,
          "time": 83.5,
          "velocity": 0.5039370078740157,
          "duration": 0.11770833333333997
        },
        {
          "name": "C2",
          "midi": 36,
          "time": 83.625,
          "velocity": 0.5039370078740157,
          "duration": 0.11770833333333997
        },
        {
          "name": "C2",
          "midi": 36,
          "time": 83.75,
          "velocity": 0.5039370078740157,
          "duration": 0.23645833333333144
        },
        {
          "name": "B1",
          "midi": 35,
          "time": 84,
          "velocity": 0.5039370078740157,
          "duration": 0.23645833333333144
        },
        {
          "name": "B1",
          "midi": 35,
          "time": 84.25,
          "velocity": 0.5039370078740157,
          "duration": 0.23645833333333144
        },
        {
          "name": "B1",
          "midi": 35,
          "time": 84.5,
          "velocity": 0.5039370078740157,
          "duration": 0.11770833333333997
        },
        {
          "name": "B1",
          "midi": 35,
          "time": 84.625,
          "velocity": 0.5039370078740157,
          "duration": 0.23645833333333144
        },
        {
          "name": "B1",
          "midi": 35,
          "time": 84.875,
          "velocity": 0.5039370078740157,
          "duration": 0.23645833333333144
        },
        {
          "name": "B1",
          "midi": 35,
          "time": 85.125,
          "velocity": 0.5039370078740157,
          "duration": 0.23645833333333144
        },
        {
          "name": "B1",
          "midi": 35,
          "time": 85.375,
          "velocity": 0.5039370078740157,
          "duration": 0.11770833333333997
        },
        {
          "name": "B1",
          "midi": 35,
          "time": 85.5,
          "velocity": 0.5039370078740157,
          "duration": 0.11770833333333997
        },
        {
          "name": "B1",
          "midi": 35,
          "time": 85.625,
          "velocity": 0.5039370078740157,
          "duration": 0.11770833333333997
        },
        {
          "name": "B1",
          "midi": 35,
          "time": 85.75,
          "velocity": 0.5039370078740157,
          "duration": 0.23645833333333144
        },
        {
          "name": "B1",
          "midi": 35,
          "time": 86,
          "velocity": 0.5039370078740157,
          "duration": 0.23645833333333144
        },
        {
          "name": "B1",
          "midi": 35,
          "time": 86.25,
          "velocity": 0.5039370078740157,
          "duration": 0.23645833333333144
        },
        {
          "name": "B1",
          "midi": 35,
          "time": 86.5,
          "velocity": 0.5039370078740157,
          "duration": 0.11770833333333997
        },
        {
          "name": "B1",
          "midi": 35,
          "time": 86.625,
          "velocity": 0.5039370078740157,
          "duration": 0.23645833333333144
        },
        {
          "name": "B1",
          "midi": 35,
          "time": 86.875,
          "velocity": 0.5039370078740157,
          "duration": 0.23645833333333144
        },
        {
          "name": "B1",
          "midi": 35,
          "time": 87.125,
          "velocity": 0.5039370078740157,
          "duration": 0.23645833333333144
        },
        {
          "name": "B1",
          "midi": 35,
          "time": 87.375,
          "velocity": 0.5039370078740157,
          "duration": 0.11770833333333997
        },
        {
          "name": "B1",
          "midi": 35,
          "time": 87.5,
          "velocity": 0.5039370078740157,
          "duration": 0.11770833333333997
        },
        {
          "name": "B1",
          "midi": 35,
          "time": 87.625,
          "velocity": 0.5039370078740157,
          "duration": 0.11770833333333997
        },
        {
          "name": "B1",
          "midi": 35,
          "time": 87.75,
          "velocity": 0.5039370078740157,
          "duration": 0.23645833333333144
        },
        {
          "name": "A#1",
          "midi": 34,
          "time": 88,
          "velocity": 0.5039370078740157,
          "duration": 0.23645833333333144
        },
        {
          "name": "A#1",
          "midi": 34,
          "time": 88.25,
          "velocity": 0.5039370078740157,
          "duration": 0.23645833333333144
        },
        {
          "name": "A#1",
          "midi": 34,
          "time": 88.5,
          "velocity": 0.5039370078740157,
          "duration": 0.11770833333333997
        },
        {
          "name": "A#1",
          "midi": 34,
          "time": 88.625,
          "velocity": 0.5039370078740157,
          "duration": 0.23645833333333144
        },
        {
          "name": "A#1",
          "midi": 34,
          "time": 88.875,
          "velocity": 0.5039370078740157,
          "duration": 0.23645833333333144
        },
        {
          "name": "A#1",
          "midi": 34,
          "time": 89.125,
          "velocity": 0.5039370078740157,
          "duration": 0.23645833333333144
        },
        {
          "name": "A#1",
          "midi": 34,
          "time": 89.375,
          "velocity": 0.5039370078740157,
          "duration": 0.11770833333333997
        },
        {
          "name": "A#1",
          "midi": 34,
          "time": 89.5,
          "velocity": 0.5039370078740157,
          "duration": 0.11770833333333997
        },
        {
          "name": "A#1",
          "midi": 34,
          "time": 89.625,
          "velocity": 0.5039370078740157,
          "duration": 0.11770833333333997
        },
        {
          "name": "A#1",
          "midi": 34,
          "time": 89.75,
          "velocity": 0.5039370078740157,
          "duration": 0.23645833333333144
        },
        {
          "name": "C2",
          "midi": 36,
          "time": 90,
          "velocity": 0.5039370078740157,
          "duration": 0.23645833333333144
        },
        {
          "name": "C2",
          "midi": 36,
          "time": 90.25,
          "velocity": 0.5039370078740157,
          "duration": 0.23645833333333144
        },
        {
          "name": "C2",
          "midi": 36,
          "time": 90.5,
          "velocity": 0.5039370078740157,
          "duration": 0.11770833333333997
        },
        {
          "name": "C2",
          "midi": 36,
          "time": 90.625,
          "velocity": 0.5039370078740157,
          "duration": 0.23645833333333144
        },
        {
          "name": "C2",
          "midi": 36,
          "time": 90.875,
          "velocity": 0.5039370078740157,
          "duration": 0.23645833333333144
        },
        {
          "name": "C2",
          "midi": 36,
          "time": 91.125,
          "velocity": 0.5039370078740157,
          "duration": 0.23645833333333144
        },
        {
          "name": "C2",
          "midi": 36,
          "time": 91.375,
          "velocity": 0.5039370078740157,
          "duration": 0.11770833333333997
        },
        {
          "name": "C2",
          "midi": 36,
          "time": 91.5,
          "velocity": 0.5039370078740157,
          "duration": 0.11770833333333997
        },
        {
          "name": "C2",
          "midi": 36,
          "time": 91.625,
          "velocity": 0.5039370078740157,
          "duration": 0.11770833333333997
        },
        {
          "name": "C2",
          "midi": 36,
          "time": 91.75,
          "velocity": 0.5039370078740157,
          "duration": 0.23645833333333144
        },
        {
          "name": "D2",
          "midi": 38,
          "time": 92,
          "velocity": 0.5039370078740157,
          "duration": 0.23645833333333144
        },
        {
          "name": "D2",
          "midi": 38,
          "time": 92.25,
          "velocity": 0.5039370078740157,
          "duration": 0.23645833333333144
        },
        {
          "name": "D2",
          "midi": 38,
          "time": 92.5,
          "velocity": 0.5039370078740157,
          "duration": 0.11770833333333997
        },
        {
          "name": "D2",
          "midi": 38,
          "time": 92.625,
          "velocity": 0.5039370078740157,
          "duration": 0.23645833333333144
        },
        {
          "name": "D2",
          "midi": 38,
          "time": 92.875,
          "velocity": 0.5039370078740157,
          "duration": 0.23645833333333144
        },
        {
          "name": "D2",
          "midi": 38,
          "time": 93.125,
          "velocity": 0.5039370078740157,
          "duration": 0.23645833333333144
        },
        {
          "name": "D2",
          "midi": 38,
          "time": 93.375,
          "velocity": 0.5039370078740157,
          "duration": 0.11770833333333997
        },
        {
          "name": "D2",
          "midi": 38,
          "time": 93.5,
          "velocity": 0.5039370078740157,
          "duration": 0.11770833333333997
        },
        {
          "name": "D2",
          "midi": 38,
          "time": 93.625,
          "velocity": 0.5039370078740157,
          "duration": 0.11770833333333997
        },
        {
          "name": "D2",
          "midi": 38,
          "time": 93.75,
          "velocity": 0.5039370078740157,
          "duration": 0.23645833333333144
        },
        {
          "name": "D2",
          "midi": 38,
          "time": 94,
          "velocity": 0.5039370078740157,
          "duration": 0.23645833333333144
        },
        {
          "name": "D2",
          "midi": 38,
          "time": 94.25,
          "velocity": 0.5039370078740157,
          "duration": 0.23645833333333144
        },
        {
          "name": "D2",
          "midi": 38,
          "time": 94.5,
          "velocity": 0.5039370078740157,
          "duration": 0.11770833333333997
        },
        {
          "name": "D2",
          "midi": 38,
          "time": 94.625,
          "velocity": 0.5039370078740157,
          "duration": 0.23645833333333144
        },
        {
          "name": "D2",
          "midi": 38,
          "time": 94.875,
          "velocity": 0.5039370078740157,
          "duration": 0.23645833333333144
        },
        {
          "name": "D2",
          "midi": 38,
          "time": 95.125,
          "velocity": 0.5039370078740157,
          "duration": 0.23645833333333144
        },
        {
          "name": "D2",
          "midi": 38,
          "time": 95.375,
          "velocity": 0.5039370078740157,
          "duration": 0.11770833333333997
        },
        {
          "name": "D2",
          "midi": 38,
          "time": 95.5,
          "velocity": 0.5039370078740157,
          "duration": 0.11770833333333997
        },
        {
          "name": "D2",
          "midi": 38,
          "time": 95.625,
          "velocity": 0.5039370078740157,
          "duration": 0.11770833333333997
        },
        {
          "name": "D2",
          "midi": 38,
          "time": 95.75,
          "velocity": 0.5039370078740157,
          "duration": 0.23645833333333144
        },
        {
          "name": "A#1",
          "midi": 34,
          "time": 96,
          "velocity": 0.5039370078740157,
          "duration": 0.23645833333333144
        },
        {
          "name": "A#1",
          "midi": 34,
          "time": 96.25,
          "velocity": 0.5039370078740157,
          "duration": 0.23645833333333144
        },
        {
          "name": "A#1",
          "midi": 34,
          "time": 96.5,
          "velocity": 0.5039370078740157,
          "duration": 0.11770833333333997
        },
        {
          "name": "A#1",
          "midi": 34,
          "time": 96.625,
          "velocity": 0.5039370078740157,
          "duration": 0.23645833333333144
        },
        {
          "name": "A#1",
          "midi": 34,
          "time": 96.875,
          "velocity": 0.5039370078740157,
          "duration": 0.23645833333333144
        },
        {
          "name": "A#1",
          "midi": 34,
          "time": 97.125,
          "velocity": 0.5039370078740157,
          "duration": 0.23645833333333144
        },
        {
          "name": "A#1",
          "midi": 34,
          "time": 97.375,
          "velocity": 0.5039370078740157,
          "duration": 0.11770833333333997
        },
        {
          "name": "A#1",
          "midi": 34,
          "time": 97.5,
          "velocity": 0.5039370078740157,
          "duration": 0.11770833333333997
        },
        {
          "name": "A#1",
          "midi": 34,
          "time": 97.625,
          "velocity": 0.5039370078740157,
          "duration": 0.11770833333333997
        },
        {
          "name": "A#1",
          "midi": 34,
          "time": 97.75,
          "velocity": 0.5039370078740157,
          "duration": 0.23645833333333144
        },
        {
          "name": "C2",
          "midi": 36,
          "time": 98,
          "velocity": 0.5039370078740157,
          "duration": 0.23645833333333144
        },
        {
          "name": "C2",
          "midi": 36,
          "time": 98.25,
          "velocity": 0.5039370078740157,
          "duration": 0.23645833333333144
        },
        {
          "name": "C2",
          "midi": 36,
          "time": 98.5,
          "velocity": 0.5039370078740157,
          "duration": 0.11770833333333997
        },
        {
          "name": "C2",
          "midi": 36,
          "time": 98.625,
          "velocity": 0.5039370078740157,
          "duration": 0.23645833333333144
        },
        {
          "name": "C2",
          "midi": 36,
          "time": 98.875,
          "velocity": 0.5039370078740157,
          "duration": 0.23645833333333144
        },
        {
          "name": "C2",
          "midi": 36,
          "time": 99.125,
          "velocity": 0.5039370078740157,
          "duration": 0.23645833333333144
        },
        {
          "name": "C2",
          "midi": 36,
          "time": 99.375,
          "velocity": 0.5039370078740157,
          "duration": 0.11770833333333997
        },
        {
          "name": "C2",
          "midi": 36,
          "time": 99.5,
          "velocity": 0.5039370078740157,
          "duration": 0.11770833333333997
        },
        {
          "name": "C2",
          "midi": 36,
          "time": 99.625,
          "velocity": 0.5039370078740157,
          "duration": 0.11770833333333997
        },
        {
          "name": "C2",
          "midi": 36,
          "time": 99.75,
          "velocity": 0.5039370078740157,
          "duration": 0.23645833333333144
        },
        {
          "name": "B1",
          "midi": 35,
          "time": 100,
          "velocity": 0.5039370078740157,
          "duration": 0.23645833333333144
        },
        {
          "name": "B1",
          "midi": 35,
          "time": 100.25,
          "velocity": 0.5039370078740157,
          "duration": 0.23645833333333144
        },
        {
          "name": "B1",
          "midi": 35,
          "time": 100.5,
          "velocity": 0.5039370078740157,
          "duration": 0.11770833333333997
        },
        {
          "name": "B1",
          "midi": 35,
          "time": 100.625,
          "velocity": 0.5039370078740157,
          "duration": 0.23645833333333144
        },
        {
          "name": "B1",
          "midi": 35,
          "time": 100.875,
          "velocity": 0.5039370078740157,
          "duration": 0.23645833333333144
        },
        {
          "name": "B1",
          "midi": 35,
          "time": 101.125,
          "velocity": 0.5039370078740157,
          "duration": 0.23645833333333144
        },
        {
          "name": "B1",
          "midi": 35,
          "time": 101.375,
          "velocity": 0.5039370078740157,
          "duration": 0.11770833333333997
        },
        {
          "name": "B1",
          "midi": 35,
          "time": 101.5,
          "velocity": 0.5039370078740157,
          "duration": 0.11770833333333997
        },
        {
          "name": "B1",
          "midi": 35,
          "time": 101.625,
          "velocity": 0.5039370078740157,
          "duration": 0.11770833333333997
        },
        {
          "name": "B1",
          "midi": 35,
          "time": 101.75,
          "velocity": 0.5039370078740157,
          "duration": 0.23645833333333144
        },
        {
          "name": "B1",
          "midi": 35,
          "time": 102,
          "velocity": 0.5039370078740157,
          "duration": 0.23645833333333144
        },
        {
          "name": "B1",
          "midi": 35,
          "time": 102.25,
          "velocity": 0.5039370078740157,
          "duration": 0.23645833333333144
        },
        {
          "name": "B1",
          "midi": 35,
          "time": 102.5,
          "velocity": 0.5039370078740157,
          "duration": 0.11770833333333997
        },
        {
          "name": "B1",
          "midi": 35,
          "time": 102.625,
          "velocity": 0.5039370078740157,
          "duration": 0.23645833333333144
        },
        {
          "name": "B1",
          "midi": 35,
          "time": 102.875,
          "velocity": 0.5039370078740157,
          "duration": 0.23645833333333144
        },
        {
          "name": "B1",
          "midi": 35,
          "time": 103.125,
          "velocity": 0.5039370078740157,
          "duration": 0.23645833333333144
        },
        {
          "name": "B1",
          "midi": 35,
          "time": 103.375,
          "velocity": 0.5039370078740157,
          "duration": 0.11770833333333997
        },
        {
          "name": "B1",
          "midi": 35,
          "time": 103.5,
          "velocity": 0.5039370078740157,
          "duration": 0.11770833333333997
        },
        {
          "name": "B1",
          "midi": 35,
          "time": 103.625,
          "velocity": 0.5039370078740157,
          "duration": 0.11770833333333997
        },
        {
          "name": "B1",
          "midi": 35,
          "time": 103.75,
          "velocity": 0.5039370078740157,
          "duration": 0.23645833333333144
        },
        {
          "name": "A#1",
          "midi": 34,
          "time": 104,
          "velocity": 0.5039370078740157,
          "duration": 0.23645833333333144
        },
        {
          "name": "A#1",
          "midi": 34,
          "time": 104.25,
          "velocity": 0.5196850393700787,
          "duration": 0.23645833333333144
        },
        {
          "name": "A#1",
          "midi": 34,
          "time": 104.5,
          "velocity": 0.5354330708661418,
          "duration": 0.11770833333333997
        },
        {
          "name": "A#1",
          "midi": 34,
          "time": 104.625,
          "velocity": 0.5433070866141733,
          "duration": 0.23645833333333144
        },
        {
          "name": "A#1",
          "midi": 34,
          "time": 104.875,
          "velocity": 0.5590551181102362,
          "duration": 0.23645833333333144
        },
        {
          "name": "A#1",
          "midi": 34,
          "time": 105.125,
          "velocity": 0.5748031496062992,
          "duration": 0.23645833333333144
        },
        {
          "name": "A#1",
          "midi": 34,
          "time": 105.375,
          "velocity": 0.5905511811023622,
          "duration": 0.11770833333333997
        },
        {
          "name": "A#1",
          "midi": 34,
          "time": 105.5,
          "velocity": 0.5984251968503937,
          "duration": 0.11770833333333997
        },
        {
          "name": "A#1",
          "midi": 34,
          "time": 105.625,
          "velocity": 0.6062992125984252,
          "duration": 0.11770833333333997
        },
        {
          "name": "A#1",
          "midi": 34,
          "time": 105.75,
          "velocity": 0.6141732283464567,
          "duration": 0.23645833333333144
        },
        {
          "name": "C2",
          "midi": 36,
          "time": 106,
          "velocity": 0.6299212598425197,
          "duration": 0.23645833333333144
        },
        {
          "name": "C2",
          "midi": 36,
          "time": 106.25,
          "velocity": 0.6456692913385826,
          "duration": 0.23645833333333144
        },
        {
          "name": "C2",
          "midi": 36,
          "time": 106.5,
          "velocity": 0.6614173228346457,
          "duration": 0.11770833333333997
        },
        {
          "name": "C2",
          "midi": 36,
          "time": 106.625,
          "velocity": 0.6692913385826772,
          "duration": 0.23645833333333144
        },
        {
          "name": "C2",
          "midi": 36,
          "time": 106.875,
          "velocity": 0.6850393700787402,
          "duration": 0.23645833333333144
        },
        {
          "name": "C2",
          "midi": 36,
          "time": 107.125,
          "velocity": 0.7007874015748031,
          "duration": 0.23645833333333144
        },
        {
          "name": "C2",
          "midi": 36,
          "time": 107.375,
          "velocity": 0.7165354330708661,
          "duration": 0.11770833333333997
        },
        {
          "name": "C2",
          "midi": 36,
          "time": 107.5,
          "velocity": 0.7244094488188977,
          "duration": 0.11770833333333997
        },
        {
          "name": "C2",
          "midi": 36,
          "time": 107.625,
          "velocity": 0.7322834645669292,
          "duration": 0.11770833333333997
        },
        {
          "name": "C2",
          "midi": 36,
          "time": 107.75,
          "velocity": 0.7401574803149606,
          "duration": 0.23645833333333144
        },
        {
          "name": "D2",
          "midi": 38,
          "time": 108,
          "velocity": 0.7559055118110236,
          "duration": 0.23645833333333144
        },
        {
          "name": "D2",
          "midi": 38,
          "time": 108.25,
          "velocity": 0.7559055118110236,
          "duration": 0.23645833333333144
        },
        {
          "name": "D2",
          "midi": 38,
          "time": 108.5,
          "velocity": 0.7559055118110236,
          "duration": 0.11770833333333997
        },
        {
          "name": "D2",
          "midi": 38,
          "time": 108.625,
          "velocity": 0.7559055118110236,
          "duration": 0.23645833333333144
        },
        {
          "name": "D2",
          "midi": 38,
          "time": 108.875,
          "velocity": 0.7559055118110236,
          "duration": 0.23645833333333144
        },
        {
          "name": "D2",
          "midi": 38,
          "time": 109.125,
          "velocity": 0.7559055118110236,
          "duration": 0.23645833333333144
        },
        {
          "name": "D2",
          "midi": 38,
          "time": 109.375,
          "velocity": 0.7559055118110236,
          "duration": 0.11770833333333997
        },
        {
          "name": "D2",
          "midi": 38,
          "time": 109.5,
          "velocity": 0.7559055118110236,
          "duration": 0.11770833333333997
        },
        {
          "name": "D2",
          "midi": 38,
          "time": 109.625,
          "velocity": 0.7559055118110236,
          "duration": 0.11770833333333997
        },
        {
          "name": "D2",
          "midi": 38,
          "time": 109.75,
          "velocity": 0.7559055118110236,
          "duration": 0.23645833333333144
        },
        {
          "name": "D2",
          "midi": 38,
          "time": 110,
          "velocity": 0.7559055118110236,
          "duration": 0.23645833333333144
        },
        {
          "name": "D2",
          "midi": 38,
          "time": 110.25,
          "velocity": 0.7559055118110236,
          "duration": 0.23645833333333144
        },
        {
          "name": "D2",
          "midi": 38,
          "time": 110.5,
          "velocity": 0.7559055118110236,
          "duration": 0.11770833333333997
        },
        {
          "name": "D2",
          "midi": 38,
          "time": 110.625,
          "velocity": 0.7559055118110236,
          "duration": 0.23645833333333144
        },
        {
          "name": "D2",
          "midi": 38,
          "time": 110.875,
          "velocity": 0.7559055118110236,
          "duration": 0.23645833333333144
        },
        {
          "name": "D2",
          "midi": 38,
          "time": 111.125,
          "velocity": 0.7559055118110236,
          "duration": 0.23645833333333144
        },
        {
          "name": "D2",
          "midi": 38,
          "time": 111.375,
          "velocity": 0.7559055118110236,
          "duration": 0.11770833333333997
        },
        {
          "name": "D2",
          "midi": 38,
          "time": 111.5,
          "velocity": 0.7559055118110236,
          "duration": 0.11770833333333997
        },
        {
          "name": "D2",
          "midi": 38,
          "time": 111.625,
          "velocity": 0.7559055118110236,
          "duration": 0.11770833333333997
        },
        {
          "name": "D2",
          "midi": 38,
          "time": 111.75,
          "velocity": 0.7559055118110236,
          "duration": 0.23645833333333144
        },
        {
          "name": "A#1",
          "midi": 34,
          "time": 112,
          "velocity": 0.5039370078740157,
          "duration": 0.23645833333333144
        },
        {
          "name": "A#2",
          "midi": 46,
          "time": 112.25,
          "velocity": 0.5039370078740157,
          "duration": 0.23645833333333144
        },
        {
          "name": "A#1",
          "midi": 34,
          "time": 112.5,
          "velocity": 0.5039370078740157,
          "duration": 0.11770833333333997
        },
        {
          "name": "A#1",
          "midi": 34,
          "time": 112.625,
          "velocity": 0.5039370078740157,
          "duration": 0.11770833333333997
        },
        {
          "name": "A#2",
          "midi": 46,
          "time": 112.75,
          "velocity": 0.5039370078740157,
          "duration": 0.11770833333333997
        },
        {
          "name": "A#1",
          "midi": 34,
          "time": 112.875,
          "velocity": 0.5039370078740157,
          "duration": 0.23645833333333144
        },
        {
          "name": "A#1",
          "midi": 34,
          "time": 113.125,
          "velocity": 0.5039370078740157,
          "duration": 0.11770833333333997
        },
        {
          "name": "A#2",
          "midi": 46,
          "time": 113.25,
          "velocity": 0.5039370078740157,
          "duration": 0.11770833333333997
        },
        {
          "name": "A#1",
          "midi": 34,
          "time": 113.375,
          "velocity": 0.5039370078740157,
          "duration": 0.11770833333333997
        },
        {
          "name": "A#1",
          "midi": 34,
          "time": 113.5,
          "velocity": 0.5039370078740157,
          "duration": 0.11770833333333997
        },
        {
          "name": "A#1",
          "midi": 34,
          "time": 113.625,
          "velocity": 0.5039370078740157,
          "duration": 0.11770833333333997
        },
        {
          "name": "A#2",
          "midi": 46,
          "time": 113.75,
          "velocity": 0.5039370078740157,
          "duration": 0.23645833333333144
        },
        {
          "name": "C2",
          "midi": 36,
          "time": 114,
          "velocity": 0.5039370078740157,
          "duration": 0.23645833333333144
        },
        {
          "name": "C3",
          "midi": 48,
          "time": 114.25,
          "velocity": 0.5039370078740157,
          "duration": 0.23645833333333144
        },
        {
          "name": "C2",
          "midi": 36,
          "time": 114.5,
          "velocity": 0.5039370078740157,
          "duration": 0.11770833333333997
        },
        {
          "name": "C2",
          "midi": 36,
          "time": 114.625,
          "velocity": 0.5039370078740157,
          "duration": 0.11770833333333997
        },
        {
          "name": "C3",
          "midi": 48,
          "time": 114.75,
          "velocity": 0.5039370078740157,
          "duration": 0.11770833333333997
        },
        {
          "name": "C2",
          "midi": 36,
          "time": 114.875,
          "velocity": 0.5039370078740157,
          "duration": 0.23645833333333144
        },
        {
          "name": "C2",
          "midi": 36,
          "time": 115.125,
          "velocity": 0.5039370078740157,
          "duration": 0.11770833333333997
        },
        {
          "name": "C3",
          "midi": 48,
          "time": 115.25,
          "velocity": 0.5039370078740157,
          "duration": 0.11770833333333997
        },
        {
          "name": "C2",
          "midi": 36,
          "time": 115.375,
          "velocity": 0.5039370078740157,
          "duration": 0.11770833333333997
        },
        {
          "name": "C2",
          "midi": 36,
          "time": 115.5,
          "velocity": 0.5039370078740157,
          "duration": 0.11770833333333997
        },
        {
          "name": "C2",
          "midi": 36,
          "time": 115.625,
          "velocity": 0.5039370078740157,
          "duration": 0.11770833333333997
        },
        {
          "name": "C3",
          "midi": 48,
          "time": 115.75,
          "velocity": 0.5039370078740157,
          "duration": 0.23645833333333144
        },
        {
          "name": "D2",
          "midi": 38,
          "time": 116,
          "velocity": 0.5039370078740157,
          "duration": 0.23645833333333144
        },
        {
          "name": "D3",
          "midi": 50,
          "time": 116.25,
          "velocity": 0.5039370078740157,
          "duration": 0.23645833333333144
        },
        {
          "name": "D2",
          "midi": 38,
          "time": 116.5,
          "velocity": 0.5039370078740157,
          "duration": 0.11770833333333997
        },
        {
          "name": "D2",
          "midi": 38,
          "time": 116.625,
          "velocity": 0.5039370078740157,
          "duration": 0.11770833333333997
        },
        {
          "name": "D3",
          "midi": 50,
          "time": 116.75,
          "velocity": 0.5039370078740157,
          "duration": 0.11770833333333997
        },
        {
          "name": "C#2",
          "midi": 37,
          "time": 116.875,
          "velocity": 0.5039370078740157,
          "duration": 0.23645833333333144
        },
        {
          "name": "C#2",
          "midi": 37,
          "time": 117.125,
          "velocity": 0.5039370078740157,
          "duration": 0.11770833333333997
        },
        {
          "name": "C#3",
          "midi": 49,
          "time": 117.25,
          "velocity": 0.5039370078740157,
          "duration": 0.11770833333333997
        },
        {
          "name": "C#2",
          "midi": 37,
          "time": 117.375,
          "velocity": 0.5039370078740157,
          "duration": 0.11770833333333997
        },
        {
          "name": "C#2",
          "midi": 37,
          "time": 117.5,
          "velocity": 0.5039370078740157,
          "duration": 0.11770833333333997
        },
        {
          "name": "C#2",
          "midi": 37,
          "time": 117.625,
          "velocity": 0.5039370078740157,
          "duration": 0.11770833333333997
        },
        {
          "name": "C#3",
          "midi": 49,
          "time": 117.75,
          "velocity": 0.5039370078740157,
          "duration": 0.23645833333333144
        },
        {
          "name": "C2",
          "midi": 36,
          "time": 118,
          "velocity": 0.5039370078740157,
          "duration": 0.23645833333333144
        },
        {
          "name": "C3",
          "midi": 48,
          "time": 118.25,
          "velocity": 0.5039370078740157,
          "duration": 0.23645833333333144
        },
        {
          "name": "C2",
          "midi": 36,
          "time": 118.5,
          "velocity": 0.5039370078740157,
          "duration": 0.11770833333333997
        },
        {
          "name": "C2",
          "midi": 36,
          "time": 118.625,
          "velocity": 0.5039370078740157,
          "duration": 0.11770833333333997
        },
        {
          "name": "C3",
          "midi": 48,
          "time": 118.75,
          "velocity": 0.5039370078740157,
          "duration": 0.11770833333333997
        },
        {
          "name": "B1",
          "midi": 35,
          "time": 118.875,
          "velocity": 0.5039370078740157,
          "duration": 0.23645833333333144
        },
        {
          "name": "B1",
          "midi": 35,
          "time": 119.125,
          "velocity": 0.5039370078740157,
          "duration": 0.11770833333333997
        },
        {
          "name": "B2",
          "midi": 47,
          "time": 119.25,
          "velocity": 0.5039370078740157,
          "duration": 0.11770833333333997
        },
        {
          "name": "B1",
          "midi": 35,
          "time": 119.375,
          "velocity": 0.5039370078740157,
          "duration": 0.11770833333333997
        },
        {
          "name": "B1",
          "midi": 35,
          "time": 119.5,
          "velocity": 0.5039370078740157,
          "duration": 0.11770833333333997
        },
        {
          "name": "B1",
          "midi": 35,
          "time": 119.625,
          "velocity": 0.5039370078740157,
          "duration": 0.11770833333333997
        },
        {
          "name": "B2",
          "midi": 47,
          "time": 119.75,
          "velocity": 0.5039370078740157,
          "duration": 0.23645833333333144
        },
        {
          "name": "A#1",
          "midi": 34,
          "time": 120,
          "velocity": 0.5039370078740157,
          "duration": 0.23645833333333144
        },
        {
          "name": "A#2",
          "midi": 46,
          "time": 120.25,
          "velocity": 0.5039370078740157,
          "duration": 0.23645833333333144
        },
        {
          "name": "A#1",
          "midi": 34,
          "time": 120.5,
          "velocity": 0.5039370078740157,
          "duration": 0.11770833333333997
        },
        {
          "name": "A#1",
          "midi": 34,
          "time": 120.625,
          "velocity": 0.5039370078740157,
          "duration": 0.11770833333333997
        },
        {
          "name": "A#2",
          "midi": 46,
          "time": 120.75,
          "velocity": 0.5039370078740157,
          "duration": 0.11770833333333997
        },
        {
          "name": "A#1",
          "midi": 34,
          "time": 120.875,
          "velocity": 0.5039370078740157,
          "duration": 0.23645833333333144
        },
        {
          "name": "A#1",
          "midi": 34,
          "time": 121.125,
          "velocity": 0.5039370078740157,
          "duration": 0.11770833333333997
        },
        {
          "name": "A#2",
          "midi": 46,
          "time": 121.25,
          "velocity": 0.5039370078740157,
          "duration": 0.11770833333333997
        },
        {
          "name": "A#1",
          "midi": 34,
          "time": 121.375,
          "velocity": 0.5039370078740157,
          "duration": 0.11770833333333997
        },
        {
          "name": "A#1",
          "midi": 34,
          "time": 121.5,
          "velocity": 0.5039370078740157,
          "duration": 0.11770833333333997
        },
        {
          "name": "A#1",
          "midi": 34,
          "time": 121.625,
          "velocity": 0.5039370078740157,
          "duration": 0.11770833333333997
        },
        {
          "name": "A#2",
          "midi": 46,
          "time": 121.75,
          "velocity": 0.5039370078740157,
          "duration": 0.23645833333333144
        },
        {
          "name": "C2",
          "midi": 36,
          "time": 122,
          "velocity": 0.5039370078740157,
          "duration": 0.23645833333333144
        },
        {
          "name": "C3",
          "midi": 48,
          "time": 122.25,
          "velocity": 0.5039370078740157,
          "duration": 0.23645833333333144
        },
        {
          "name": "C2",
          "midi": 36,
          "time": 122.5,
          "velocity": 0.5039370078740157,
          "duration": 0.11770833333333997
        },
        {
          "name": "C2",
          "midi": 36,
          "time": 122.625,
          "velocity": 0.5039370078740157,
          "duration": 0.11770833333333997
        },
        {
          "name": "C3",
          "midi": 48,
          "time": 122.75,
          "velocity": 0.5039370078740157,
          "duration": 0.11770833333333997
        },
        {
          "name": "C2",
          "midi": 36,
          "time": 122.875,
          "velocity": 0.5039370078740157,
          "duration": 0.23645833333333144
        },
        {
          "name": "C2",
          "midi": 36,
          "time": 123.125,
          "velocity": 0.5039370078740157,
          "duration": 0.11770833333333997
        },
        {
          "name": "C3",
          "midi": 48,
          "time": 123.25,
          "velocity": 0.5039370078740157,
          "duration": 0.11770833333333997
        },
        {
          "name": "C2",
          "midi": 36,
          "time": 123.375,
          "velocity": 0.5039370078740157,
          "duration": 0.11770833333333997
        },
        {
          "name": "C2",
          "midi": 36,
          "time": 123.5,
          "velocity": 0.5039370078740157,
          "duration": 0.11770833333333997
        },
        {
          "name": "C2",
          "midi": 36,
          "time": 123.625,
          "velocity": 0.5039370078740157,
          "duration": 0.11770833333333997
        },
        {
          "name": "C3",
          "midi": 48,
          "time": 123.75,
          "velocity": 0.5039370078740157,
          "duration": 0.23645833333333144
        },
        {
          "name": "D2",
          "midi": 38,
          "time": 124,
          "velocity": 0.5039370078740157,
          "duration": 0.23645833333333144
        },
        {
          "name": "D3",
          "midi": 50,
          "time": 124.25,
          "velocity": 0.5039370078740157,
          "duration": 0.23645833333333144
        },
        {
          "name": "D2",
          "midi": 38,
          "time": 124.5,
          "velocity": 0.5039370078740157,
          "duration": 0.11770833333333997
        },
        {
          "name": "D2",
          "midi": 38,
          "time": 124.625,
          "velocity": 0.5039370078740157,
          "duration": 0.11770833333333997
        },
        {
          "name": "D3",
          "midi": 50,
          "time": 124.75,
          "velocity": 0.5039370078740157,
          "duration": 0.11770833333333997
        },
        {
          "name": "D2",
          "midi": 38,
          "time": 124.875,
          "velocity": 0.5039370078740157,
          "duration": 0.23645833333333144
        },
        {
          "name": "D2",
          "midi": 38,
          "time": 125.125,
          "velocity": 0.5039370078740157,
          "duration": 0.11770833333333997
        },
        {
          "name": "D3",
          "midi": 50,
          "time": 125.25,
          "velocity": 0.5039370078740157,
          "duration": 0.11770833333333997
        },
        {
          "name": "D2",
          "midi": 38,
          "time": 125.375,
          "velocity": 0.5039370078740157,
          "duration": 0.11770833333333997
        },
        {
          "name": "D2",
          "midi": 38,
          "time": 125.5,
          "velocity": 0.5039370078740157,
          "duration": 0.11770833333333997
        },
        {
          "name": "D2",
          "midi": 38,
          "time": 125.625,
          "velocity": 0.5039370078740157,
          "duration": 0.11770833333333997
        },
        {
          "name": "D3",
          "midi": 50,
          "time": 125.75,
          "velocity": 0.5039370078740157,
          "duration": 0.23645833333333144
        },
        {
          "name": "D2",
          "midi": 38,
          "time": 126,
          "velocity": 0.5039370078740157,
          "duration": 0.23645833333333144
        },
        {
          "name": "D3",
          "midi": 50,
          "time": 126.25,
          "velocity": 0.5039370078740157,
          "duration": 0.23645833333333144
        },
        {
          "name": "D2",
          "midi": 38,
          "time": 126.5,
          "velocity": 0.5039370078740157,
          "duration": 0.11770833333333997
        },
        {
          "name": "D2",
          "midi": 38,
          "time": 126.625,
          "velocity": 0.5039370078740157,
          "duration": 0.11770833333333997
        },
        {
          "name": "D3",
          "midi": 50,
          "time": 126.75,
          "velocity": 0.5039370078740157,
          "duration": 0.11770833333333997
        },
        {
          "name": "D2",
          "midi": 38,
          "time": 126.875,
          "velocity": 0.5039370078740157,
          "duration": 0.23645833333333144
        },
        {
          "name": "D2",
          "midi": 38,
          "time": 127.125,
          "velocity": 0.5039370078740157,
          "duration": 0.11770833333333997
        },
        {
          "name": "D3",
          "midi": 50,
          "time": 127.25,
          "velocity": 0.5039370078740157,
          "duration": 0.11770833333333997
        },
        {
          "name": "D2",
          "midi": 38,
          "time": 127.375,
          "velocity": 0.5039370078740157,
          "duration": 0.11770833333333997
        },
        {
          "name": "D2",
          "midi": 38,
          "time": 127.5,
          "velocity": 0.5039370078740157,
          "duration": 0.11770833333333997
        },
        {
          "name": "D2",
          "midi": 38,
          "time": 127.625,
          "velocity": 0.5039370078740157,
          "duration": 0.11770833333333997
        },
        {
          "name": "D3",
          "midi": 50,
          "time": 127.75,
          "velocity": 0.5039370078740157,
          "duration": 0.23645833333333144
        },
        {
          "name": "A#1",
          "midi": 34,
          "time": 128,
          "velocity": 0.5039370078740157,
          "duration": 0.23645833333333144
        },
        {
          "name": "A#2",
          "midi": 46,
          "time": 128.25,
          "velocity": 0.5039370078740157,
          "duration": 0.23645833333333144
        },
        {
          "name": "A#1",
          "midi": 34,
          "time": 128.5,
          "velocity": 0.5039370078740157,
          "duration": 0.11770833333332575
        },
        {
          "name": "A#1",
          "midi": 34,
          "time": 128.625,
          "velocity": 0.5039370078740157,
          "duration": 0.11770833333332575
        },
        {
          "name": "A#2",
          "midi": 46,
          "time": 128.75,
          "velocity": 0.5039370078740157,
          "duration": 0.11770833333332575
        },
        {
          "name": "A#1",
          "midi": 34,
          "time": 128.875,
          "velocity": 0.5039370078740157,
          "duration": 0.23645833333333144
        },
        {
          "name": "A#1",
          "midi": 34,
          "time": 129.125,
          "velocity": 0.5039370078740157,
          "duration": 0.11770833333332575
        },
        {
          "name": "A#2",
          "midi": 46,
          "time": 129.25,
          "velocity": 0.5039370078740157,
          "duration": 0.11770833333332575
        },
        {
          "name": "A#1",
          "midi": 34,
          "time": 129.375,
          "velocity": 0.5039370078740157,
          "duration": 0.11770833333332575
        },
        {
          "name": "A#1",
          "midi": 34,
          "time": 129.5,
          "velocity": 0.5039370078740157,
          "duration": 0.11770833333332575
        },
        {
          "name": "A#1",
          "midi": 34,
          "time": 129.625,
          "velocity": 0.5039370078740157,
          "duration": 0.11770833333332575
        },
        {
          "name": "A#2",
          "midi": 46,
          "time": 129.75,
          "velocity": 0.5039370078740157,
          "duration": 0.23645833333333144
        },
        {
          "name": "C2",
          "midi": 36,
          "time": 130,
          "velocity": 0.5039370078740157,
          "duration": 0.23645833333333144
        },
        {
          "name": "C3",
          "midi": 48,
          "time": 130.25,
          "velocity": 0.5039370078740157,
          "duration": 0.23645833333333144
        },
        {
          "name": "C2",
          "midi": 36,
          "time": 130.5,
          "velocity": 0.5039370078740157,
          "duration": 0.11770833333332575
        },
        {
          "name": "C2",
          "midi": 36,
          "time": 130.625,
          "velocity": 0.5039370078740157,
          "duration": 0.11770833333332575
        },
        {
          "name": "C3",
          "midi": 48,
          "time": 130.75,
          "velocity": 0.5039370078740157,
          "duration": 0.11770833333332575
        },
        {
          "name": "C2",
          "midi": 36,
          "time": 130.875,
          "velocity": 0.5039370078740157,
          "duration": 0.23645833333333144
        },
        {
          "name": "C2",
          "midi": 36,
          "time": 131.125,
          "velocity": 0.5039370078740157,
          "duration": 0.11770833333332575
        },
        {
          "name": "C3",
          "midi": 48,
          "time": 131.25,
          "velocity": 0.5039370078740157,
          "duration": 0.11770833333332575
        },
        {
          "name": "C2",
          "midi": 36,
          "time": 131.375,
          "velocity": 0.5039370078740157,
          "duration": 0.11770833333332575
        },
        {
          "name": "C2",
          "midi": 36,
          "time": 131.5,
          "velocity": 0.5039370078740157,
          "duration": 0.11770833333332575
        },
        {
          "name": "C2",
          "midi": 36,
          "time": 131.625,
          "velocity": 0.5039370078740157,
          "duration": 0.11770833333332575
        },
        {
          "name": "C3",
          "midi": 48,
          "time": 131.75,
          "velocity": 0.5039370078740157,
          "duration": 0.23645833333333144
        },
        {
          "name": "D2",
          "midi": 38,
          "time": 132,
          "velocity": 0.5039370078740157,
          "duration": 0.23645833333333144
        },
        {
          "name": "D3",
          "midi": 50,
          "time": 132.25,
          "velocity": 0.5039370078740157,
          "duration": 0.23645833333333144
        },
        {
          "name": "D2",
          "midi": 38,
          "time": 132.5,
          "velocity": 0.5039370078740157,
          "duration": 0.11770833333332575
        },
        {
          "name": "D2",
          "midi": 38,
          "time": 132.625,
          "velocity": 0.5039370078740157,
          "duration": 0.11770833333332575
        },
        {
          "name": "D3",
          "midi": 50,
          "time": 132.75,
          "velocity": 0.5039370078740157,
          "duration": 0.11770833333332575
        },
        {
          "name": "C#2",
          "midi": 37,
          "time": 132.875,
          "velocity": 0.5039370078740157,
          "duration": 0.23645833333333144
        },
        {
          "name": "C#2",
          "midi": 37,
          "time": 133.125,
          "velocity": 0.5039370078740157,
          "duration": 0.11770833333332575
        },
        {
          "name": "C#3",
          "midi": 49,
          "time": 133.25,
          "velocity": 0.5039370078740157,
          "duration": 0.11770833333332575
        },
        {
          "name": "C#2",
          "midi": 37,
          "time": 133.375,
          "velocity": 0.5039370078740157,
          "duration": 0.11770833333332575
        },
        {
          "name": "C#2",
          "midi": 37,
          "time": 133.5,
          "velocity": 0.5039370078740157,
          "duration": 0.11770833333332575
        },
        {
          "name": "C#2",
          "midi": 37,
          "time": 133.625,
          "velocity": 0.5039370078740157,
          "duration": 0.11770833333332575
        },
        {
          "name": "C#3",
          "midi": 49,
          "time": 133.75,
          "velocity": 0.5039370078740157,
          "duration": 0.23645833333333144
        },
        {
          "name": "C2",
          "midi": 36,
          "time": 134,
          "velocity": 0.5039370078740157,
          "duration": 0.23645833333333144
        },
        {
          "name": "C3",
          "midi": 48,
          "time": 134.25,
          "velocity": 0.5039370078740157,
          "duration": 0.23645833333333144
        },
        {
          "name": "C2",
          "midi": 36,
          "time": 134.5,
          "velocity": 0.5039370078740157,
          "duration": 0.11770833333332575
        },
        {
          "name": "C2",
          "midi": 36,
          "time": 134.625,
          "velocity": 0.5039370078740157,
          "duration": 0.11770833333332575
        },
        {
          "name": "C3",
          "midi": 48,
          "time": 134.75,
          "velocity": 0.5039370078740157,
          "duration": 0.11770833333332575
        },
        {
          "name": "B1",
          "midi": 35,
          "time": 134.875,
          "velocity": 0.5039370078740157,
          "duration": 0.23645833333333144
        },
        {
          "name": "B1",
          "midi": 35,
          "time": 135.125,
          "velocity": 0.5039370078740157,
          "duration": 0.11770833333332575
        },
        {
          "name": "B2",
          "midi": 47,
          "time": 135.25,
          "velocity": 0.5039370078740157,
          "duration": 0.11770833333332575
        },
        {
          "name": "B1",
          "midi": 35,
          "time": 135.375,
          "velocity": 0.5039370078740157,
          "duration": 0.11770833333332575
        },
        {
          "name": "B1",
          "midi": 35,
          "time": 135.5,
          "velocity": 0.5039370078740157,
          "duration": 0.11770833333332575
        },
        {
          "name": "B1",
          "midi": 35,
          "time": 135.625,
          "velocity": 0.5039370078740157,
          "duration": 0.11770833333332575
        },
        {
          "name": "B2",
          "midi": 47,
          "time": 135.75,
          "velocity": 0.5039370078740157,
          "duration": 0.23645833333333144
        },
        {
          "name": "A#1",
          "midi": 34,
          "time": 136,
          "velocity": 0.5039370078740157,
          "duration": 0.23645833333333144
        },
        {
          "name": "A#2",
          "midi": 46,
          "time": 136.25,
          "velocity": 0.5039370078740157,
          "duration": 0.23645833333333144
        },
        {
          "name": "A#1",
          "midi": 34,
          "time": 136.5,
          "velocity": 0.5039370078740157,
          "duration": 0.11770833333332575
        },
        {
          "name": "A#1",
          "midi": 34,
          "time": 136.625,
          "velocity": 0.5039370078740157,
          "duration": 0.11770833333332575
        },
        {
          "name": "A#2",
          "midi": 46,
          "time": 136.75,
          "velocity": 0.5039370078740157,
          "duration": 0.11770833333332575
        },
        {
          "name": "A#1",
          "midi": 34,
          "time": 136.875,
          "velocity": 0.5039370078740157,
          "duration": 0.23645833333333144
        },
        {
          "name": "A#1",
          "midi": 34,
          "time": 137.125,
          "velocity": 0.5039370078740157,
          "duration": 0.11770833333332575
        },
        {
          "name": "A#2",
          "midi": 46,
          "time": 137.25,
          "velocity": 0.5039370078740157,
          "duration": 0.11770833333332575
        },
        {
          "name": "A#1",
          "midi": 34,
          "time": 137.375,
          "velocity": 0.5039370078740157,
          "duration": 0.11770833333332575
        },
        {
          "name": "A#1",
          "midi": 34,
          "time": 137.5,
          "velocity": 0.5039370078740157,
          "duration": 0.11770833333332575
        },
        {
          "name": "A#1",
          "midi": 34,
          "time": 137.625,
          "velocity": 0.5039370078740157,
          "duration": 0.11770833333332575
        },
        {
          "name": "A#2",
          "midi": 46,
          "time": 137.75,
          "velocity": 0.5039370078740157,
          "duration": 0.23645833333333144
        },
        {
          "name": "C2",
          "midi": 36,
          "time": 138,
          "velocity": 0.5039370078740157,
          "duration": 0.23645833333333144
        },
        {
          "name": "C3",
          "midi": 48,
          "time": 138.25,
          "velocity": 0.5039370078740157,
          "duration": 0.23645833333333144
        },
        {
          "name": "C2",
          "midi": 36,
          "time": 138.5,
          "velocity": 0.5039370078740157,
          "duration": 0.11770833333332575
        },
        {
          "name": "C2",
          "midi": 36,
          "time": 138.625,
          "velocity": 0.5039370078740157,
          "duration": 0.11770833333332575
        },
        {
          "name": "C3",
          "midi": 48,
          "time": 138.75,
          "velocity": 0.5039370078740157,
          "duration": 0.11770833333332575
        },
        {
          "name": "C2",
          "midi": 36,
          "time": 138.875,
          "velocity": 0.5039370078740157,
          "duration": 0.23645833333333144
        },
        {
          "name": "C2",
          "midi": 36,
          "time": 139.125,
          "velocity": 0.5039370078740157,
          "duration": 0.11770833333332575
        },
        {
          "name": "C3",
          "midi": 48,
          "time": 139.25,
          "velocity": 0.5039370078740157,
          "duration": 0.11770833333332575
        },
        {
          "name": "C2",
          "midi": 36,
          "time": 139.375,
          "velocity": 0.5039370078740157,
          "duration": 0.11770833333332575
        },
        {
          "name": "C2",
          "midi": 36,
          "time": 139.5,
          "velocity": 0.5039370078740157,
          "duration": 0.11770833333332575
        },
        {
          "name": "C2",
          "midi": 36,
          "time": 139.625,
          "velocity": 0.5039370078740157,
          "duration": 0.11770833333332575
        },
        {
          "name": "C3",
          "midi": 48,
          "time": 139.75,
          "velocity": 0.5039370078740157,
          "duration": 0.23645833333333144
        },
        {
          "name": "D2",
          "midi": 38,
          "time": 140,
          "velocity": 0.5039370078740157,
          "duration": 0.23645833333333144
        },
        {
          "name": "D3",
          "midi": 50,
          "time": 140.25,
          "velocity": 0.5039370078740157,
          "duration": 0.23645833333333144
        },
        {
          "name": "D2",
          "midi": 38,
          "time": 140.5,
          "velocity": 0.5039370078740157,
          "duration": 0.11770833333332575
        },
        {
          "name": "D2",
          "midi": 38,
          "time": 140.625,
          "velocity": 0.5039370078740157,
          "duration": 0.11770833333332575
        },
        {
          "name": "D3",
          "midi": 50,
          "time": 140.75,
          "velocity": 0.5039370078740157,
          "duration": 0.11770833333332575
        },
        {
          "name": "D2",
          "midi": 38,
          "time": 140.875,
          "velocity": 0.5039370078740157,
          "duration": 0.23645833333333144
        },
        {
          "name": "D2",
          "midi": 38,
          "time": 141.125,
          "velocity": 0.5039370078740157,
          "duration": 0.11770833333332575
        },
        {
          "name": "D3",
          "midi": 50,
          "time": 141.25,
          "velocity": 0.5039370078740157,
          "duration": 0.11770833333332575
        },
        {
          "name": "D2",
          "midi": 38,
          "time": 141.375,
          "velocity": 0.5039370078740157,
          "duration": 0.11770833333332575
        },
        {
          "name": "D2",
          "midi": 38,
          "time": 141.5,
          "velocity": 0.5039370078740157,
          "duration": 0.11770833333332575
        },
        {
          "name": "D2",
          "midi": 38,
          "time": 141.625,
          "velocity": 0.5039370078740157,
          "duration": 0.11770833333332575
        },
        {
          "name": "D3",
          "midi": 50,
          "time": 141.75,
          "velocity": 0.5039370078740157,
          "duration": 0.23645833333333144
        },
        {
          "name": "D2",
          "midi": 38,
          "time": 142,
          "velocity": 0.5039370078740157,
          "duration": 0.23645833333333144
        },
        {
          "name": "D3",
          "midi": 50,
          "time": 142.25,
          "velocity": 0.5039370078740157,
          "duration": 0.23645833333333144
        },
        {
          "name": "D2",
          "midi": 38,
          "time": 142.5,
          "velocity": 0.5039370078740157,
          "duration": 0.11770833333332575
        },
        {
          "name": "D2",
          "midi": 38,
          "time": 142.625,
          "velocity": 0.5039370078740157,
          "duration": 0.11770833333332575
        },
        {
          "name": "D3",
          "midi": 50,
          "time": 142.75,
          "velocity": 0.5039370078740157,
          "duration": 0.11770833333332575
        },
        {
          "name": "D2",
          "midi": 38,
          "time": 142.875,
          "velocity": 0.5039370078740157,
          "duration": 0.23645833333333144
        },
        {
          "name": "D2",
          "midi": 38,
          "time": 143.125,
          "velocity": 0.5039370078740157,
          "duration": 0.11770833333332575
        },
        {
          "name": "D3",
          "midi": 50,
          "time": 143.25,
          "velocity": 0.5039370078740157,
          "duration": 0.11770833333332575
        },
        {
          "name": "D2",
          "midi": 38,
          "time": 143.375,
          "velocity": 0.5039370078740157,
          "duration": 0.11770833333332575
        },
        {
          "name": "D2",
          "midi": 38,
          "time": 143.5,
          "velocity": 0.5039370078740157,
          "duration": 0.11770833333332575
        },
        {
          "name": "D2",
          "midi": 38,
          "time": 143.625,
          "velocity": 0.5039370078740157,
          "duration": 0.11770833333332575
        },
        {
          "name": "D3",
          "midi": 50,
          "time": 143.75,
          "velocity": 0.5039370078740157,
          "duration": 0.23645833333333144
        }
      ],
      "controlChanges": {},
      "id": 1,
      "channelNumber": 0,
      "isPercussion": false
    }
  ]
}