{
  "header": {
    "PPQ": 384,
    "timeSignature": [
      3,
      4
    ],
    "bpm": 80,
    "name": "MetaTrack"
  },
  "startTime": 0,
  "duration": 578.71875,
  "tracks": [
    {
      "startTime": 0,
      "duration": 0,
      "length": 0,
      "notes": [],
      "controlChanges": {},
      "id": 0,
      "name": "MetaTrack"
    },
    {
      "startTime": 0,
      "duration": 578.71875,
      "length": 1923,
      "notes": [
        {
          "name": "D5",
          "midi": 74,
          "time": 0,
          "velocity": 0.23622047244094488,
          "duration": 0.375
        },
        {
          "name": "D#5",
          "midi": 75,
          "time": 0.375,
          "velocity": 0.29133858267716534,
          "duration": 0.375
        },
        {
          "name": "D5",
          "midi": 74,
          "time": 0.75,
          "velocity": 0.3464566929133858,
          "duration": 0.375
        },
        {
          "name": "D#5",
          "midi": 75,
          "time": 1.125,
          "velocity": 0.4094488188976378,
          "duration": 0.375
        },
        {
          "name": "D5",
          "midi": 74,
          "time": 1.5,
          "velocity": 0.4645669291338583,
          "duration": 0.375
        },
        {
          "name": "D#5",
          "midi": 75,
          "time": 1.875,
          "velocity": 0.5196850393700787,
          "duration": 0.375
        },
        {
          "name": "C5",
          "midi": 72,
          "time": 2.25,
          "velocity": 0.2440944881889764,
          "duration": 0.375
        },
        {
          "name": "D5",
          "midi": 74,
          "time": 2.625,
          "velocity": 0.29133858267716534,
          "duration": 0.375
        },
        {
          "name": "C5",
          "midi": 72,
          "time": 3,
          "velocity": 0.33858267716535434,
          "duration": 0.375
        },
        {
          "name": "D5",
          "midi": 74,
          "time": 3.375,
          "velocity": 0.3937007874015748,
          "duration": 0.375
        },
        {
          "name": "C5",
          "midi": 72,
          "time": 3.75,
          "velocity": 0.4409448818897638,
          "duration": 0.375
        },
        {
          "name": "D5",
          "midi": 74,
          "time": 4.125,
          "velocity": 0.4881889763779528,
          "duration": 0.375
        },
        {
          "name": "A#4",
          "midi": 70,
          "time": 4.5,
          "velocity": 0.2677165354330709,
          "duration": 0.375
        },
        {
          "name": "C5",
          "midi": 72,
          "time": 4.875,
          "velocity": 0.31496062992125984,
          "duration": 0.375
        },
        {
          "name": "A#4",
          "midi": 70,
          "time": 5.25,
          "velocity": 0.36220472440944884,
          "duration": 0.375
        },
        {
          "name": "C5",
          "midi": 72,
          "time": 5.625,
          "velocity": 0.4094488188976378,
          "duration": 0.375
        },
        {
          "name": "A#4",
          "midi": 70,
          "time": 6,
          "velocity": 0.44881889763779526,
          "duration": 0.375
        },
        {
          "name": "C5",
          "midi": 72,
          "time": 6.375,
          "velocity": 0.49606299212598426,
          "duration": 0.375
        },
        {
          "name": "A4",
          "midi": 69,
          "time": 6.75,
          "velocity": 0.4881889763779528,
          "duration": 0.1875
        },
        {
          "name": "G4",
          "midi": 67,
          "time": 6.9375,
          "velocity": 0.4881889763779528,
          "duration": 0.1875
        },
        {
          "name": "F#4",
          "midi": 66,
          "time": 7.125,
          "velocity": 0.5669291338582677,
          "duration": 1.078125
        },
        {
          "name": "A3",
          "midi": 57,
          "time": 8.8125,
          "velocity": 0.31496062992125984,
          "duration": 0.1484375
        },
        {
          "name": "D4",
          "midi": 62,
          "time": 8.9609375,
          "velocity": 0.33858267716535434,
          "duration": 0.15625
        },
        {
          "name": "F#4",
          "midi": 66,
          "time": 9.1171875,
          "velocity": 0.3543307086614173,
          "duration": 0.1484375
        },
        {
          "name": "A5",
          "midi": 81,
          "time": 9.65625,
          "velocity": 0.4409448818897638,
          "duration": 0.1640625
        },
        {
          "name": "D6",
          "midi": 86,
          "time": 9.78125,
          "velocity": 0.48031496062992124,
          "duration": 0.1484375
        },
        {
          "name": "F#6",
          "midi": 90,
          "time": 9.8828125,
          "velocity": 0.5196850393700787,
          "duration": 0.140625
        },
        {
          "name": "A6",
          "midi": 93,
          "time": 10.0234375,
          "velocity": 0.5511811023622047,
          "duration": 0.1484375
        },
        {
          "name": "D5",
          "midi": 74,
          "time": 12.75,
          "velocity": 0.7716535433070866,
          "duration": 0.765625
        },
        {
          "name": "G5",
          "midi": 79,
          "time": 13.5,
          "velocity": 0.6062992125984252,
          "duration": 0.765625
        },
        {
          "name": "A#5",
          "midi": 82,
          "time": 14.25,
          "velocity": 0.5275590551181102,
          "duration": 0.765625
        },
        {
          "name": "D#5",
          "midi": 75,
          "time": 14.8125,
          "velocity": 0.4881889763779528,
          "duration": 1.5625
        },
        {
          "name": "G5",
          "midi": 79,
          "time": 14.90625,
          "velocity": 0.4881889763779528,
          "duration": 1.5625
        },
        {
          "name": "D6",
          "midi": 86,
          "time": 15,
          "velocity": 0.4881889763779528,
          "duration": 1.5
        },
        {
          "name": "D6",
          "midi": 86,
          "time": 16.5,
          "velocity": 0.49606299212598426,
          "duration": 0.75
        },
        {
          "name": "D5",
          "midi": 74,
          "time": 17.109375,
          "velocity": 0.5433070866141733,
          "duration": 0.765625
        },
        {
          "name": "F#5",
          "midi": 78,
          "time": 17.203125,
          "velocity": 0.47244094488188976,
          "duration": 0.765625
        },
        {
          "name": "C6",
          "midi": 84,
          "time": 17.25,
          "velocity": 0.5433070866141733,
          "duration": 0.765625
        },
        {
          "name": "A#5",
          "midi": 82,
          "time": 18,
          "velocity": 0.5590551181102362,
          "duration": 0.765625
        },
        {
          "name": "A5",
          "midi": 81,
          "time": 18.75,
          "velocity": 0.5275590551181102,
          "duration": 0.765625
        },
        {
          "name": "A#4",
          "midi": 70,
          "time": 19.359375,
          "velocity": 0.5748031496062992,
          "duration": 0.765625
        },
        {
          "name": "D5",
          "midi": 74,
          "time": 19.40625,
          "velocity": 0.5748031496062992,
          "duration": 3.015625
        },
        {
          "name": "A#5",
          "midi": 82,
          "time": 19.5,
          "velocity": 0.5748031496062992,
          "duration": 3.015625
        },
        {
          "name": "A#4",
          "midi": 70,
          "time": 20.625,
          "velocity": 0.5196850393700787,
          "duration": 0.390625
        },
        {
          "name": "A#4",
          "midi": 70,
          "time": 21.375,
          "velocity": 0.4330708661417323,
          "duration": 0.390625
        },
        {
          "name": "G5",
          "midi": 79,
          "time": 22.875,
          "velocity": 0.5039370078740157,
          "duration": 0.390625
        },
        {
          "name": "A#5",
          "midi": 82,
          "time": 23.25,
          "velocity": 0.6692913385826772,
          "duration": 0.390625
        },
        {
          "name": "D6",
          "midi": 86,
          "time": 23.625,
          "velocity": 0.8188976377952756,
          "duration": 0.390625
        },
        {
          "name": "G5",
          "midi": 79,
          "time": 23.94140625,
          "velocity": 0.5196850393700787,
          "duration": 1.43359375
        },
        {
          "name": "A#5",
          "midi": 82,
          "time": 23.97265625,
          "velocity": 0.5196850393700787,
          "duration": 1.44921875
        },
        {
          "name": "G6",
          "midi": 91,
          "time": 24,
          "velocity": 0.6535433070866141,
          "duration": 1.478515625
        },
        {
          "name": "G6",
          "midi": 91,
          "time": 25.5,
          "velocity": 0.48031496062992124,
          "duration": 0.71875
        },
        {
          "name": "C6",
          "midi": 84,
          "time": 26.109375,
          "velocity": 0.5196850393700787,
          "duration": 0.765625
        },
        {
          "name": "D#6",
          "midi": 87,
          "time": 26.15625,
          "velocity": 0.4881889763779528,
          "duration": 0.765625
        },
        {
          "name": "G6",
          "midi": 91,
          "time": 26.25,
          "velocity": 0.6850393700787402,
          "duration": 0.69921875
        },
        {
          "name": "F6",
          "midi": 89,
          "time": 27,
          "velocity": 0.6535433070866141,
          "duration": 0.765625
        },
        {
          "name": "D#6",
          "midi": 87,
          "time": 27.75,
          "velocity": 0.4645669291338583,
          "duration": 0.765625
        },
        {
          "name": "A#5",
          "midi": 82,
          "time": 28.3125,
          "velocity": 0.4409448818897638,
          "duration": 1.703125
        },
        {
          "name": "D6",
          "midi": 86,
          "time": 28.40625,
          "velocity": 0.4409448818897638,
          "duration": 2.171875
        },
        {
          "name": "F6",
          "midi": 89,
          "time": 28.5,
          "velocity": 0.7086614173228346,
          "duration": 2.171875
        },
        {
          "name": "A#5",
          "midi": 82,
          "time": 29.625,
          "velocity": 0.5196850393700787,
          "duration": 0.859375
        },
        {
          "name": "A5",
          "midi": 81,
          "time": 30,
          "velocity": 0.6377952755905512,
          "duration": 0.390625
        },
        {
          "name": "F5",
          "midi": 77,
          "time": 30.375,
          "velocity": 0.5196850393700787,
          "duration": 0.390625
        },
        {
          "name": "A5",
          "midi": 81,
          "time": 31.875,
          "velocity": 0.4881889763779528,
          "duration": 0.390625
        },
        {
          "name": "D6",
          "midi": 86,
          "time": 32.25,
          "velocity": 0.5669291338582677,
          "duration": 0.390625
        },
        {
          "name": "F6",
          "midi": 89,
          "time": 32.625,
          "velocity": 0.6141732283464567,
          "duration": 0.390625
        },
        {
          "name": "A6",
          "midi": 93,
          "time": 33,
          "velocity": 0.7716535433070866,
          "duration": 1.515625
        },
        {
          "name": "G6",
          "midi": 91,
          "time": 34.5,
          "velocity": 0.5905511811023622,
          "duration": 0.8125
        },
        {
          "name": "F6",
          "midi": 89,
          "time": 35.25,
          "velocity": 0.5905511811023622,
          "duration": 0.765625
        },
        {
          "name": "E6",
          "midi": 88,
          "time": 36,
          "velocity": 0.5905511811023622,
          "duration": 0.765625
        },
        {
          "name": "F6",
          "midi": 89,
          "time": 36.75,
          "velocity": 0.5905511811023622,
          "duration": 0.765625
        },
        {
          "name": "G5",
          "midi": 79,
          "time": 37.3125,
          "velocity": 0.28346456692913385,
          "duration": 0.34375
        },
        {
          "name": "A5",
          "midi": 81,
          "time": 37.40625,
          "velocity": 0.28346456692913385,
          "duration": 0.859375
        },
        {
          "name": "G6",
          "midi": 91,
          "time": 37.5,
          "velocity": 0.7165354330708661,
          "duration": 1.515625
        },
        {
          "name": "F6",
          "midi": 89,
          "time": 39,
          "velocity": 0.4881889763779528,
          "duration": 0.765625
        },
        {
          "name": "D5",
          "midi": 74,
          "time": 39.5625,
          "velocity": 0.28346456692913385,
          "duration": 0.25
        },
        {
          "name": "E5",
          "midi": 76,
          "time": 39.65625,
          "velocity": 0.28346456692913385,
          "duration": 0.8125
        },
        {
          "name": "E6",
          "midi": 88,
          "time": 39.75,
          "velocity": 0.4881889763779528,
          "duration": 1.515625
        },
        {
          "name": "D6",
          "midi": 86,
          "time": 41.25,
          "velocity": 0.48031496062992124,
          "duration": 0.765625
        },
        {
          "name": "F5",
          "midi": 77,
          "time": 41.8125,
          "velocity": 0.33070866141732286,
          "duration": 0.8125
        },
        {
          "name": "A5",
          "midi": 81,
          "time": 41.90625,
          "velocity": 0.33858267716535434,
          "duration": 0.8125
        },
        {
          "name": "C6",
          "midi": 84,
          "time": 42,
          "velocity": 0.47244094488188976,
          "duration": 0.765625
        },
        {
          "name": "A#5",
          "midi": 82,
          "time": 42.75,
          "velocity": 0.4881889763779528,
          "duration": 0.765625
        },
        {
          "name": "C6",
          "midi": 84,
          "time": 43.453125,
          "velocity": 0.4881889763779528,
          "duration": 0.765625
        },
        {
          "name": "D5",
          "midi": 74,
          "time": 44.04296875,
          "velocity": 0.4015748031496063,
          "duration": 0.69140625
        },
        {
          "name": "F5",
          "midi": 77,
          "time": 44.08984375,
          "velocity": 0.4015748031496063,
          "duration": 0.69140625
        },
        {
          "name": "G5",
          "midi": 79,
          "time": 44.18359375,
          "velocity": 0.4015748031496063,
          "duration": 0.73828125
        },
        {
          "name": "D6",
          "midi": 86,
          "time": 44.25,
          "velocity": 0.5669291338582677,
          "duration": 0.765625
        },
        {
          "name": "C5",
          "midi": 72,
          "time": 45,
          "velocity": 0.2125984251968504,
          "duration": 0.765625
        },
        {
          "name": "C6",
          "midi": 84,
          "time": 45,
          "velocity": 0.4645669291338583,
          "duration": 0.765625
        },
        {
          "name": "G5",
          "midi": 79,
          "time": 45.75,
          "velocity": 0.4645669291338583,
          "duration": 0.765625
        },
        {
          "name": "A4",
          "midi": 69,
          "time": 46.359375,
          "velocity": 0.2125984251968504,
          "duration": 1.515625
        },
        {
          "name": "D5",
          "midi": 74,
          "time": 46.453125,
          "velocity": 0.2125984251968504,
          "duration": 1.515625
        },
        {
          "name": "A5",
          "midi": 81,
          "time": 46.5,
          "velocity": 0.5118110236220472,
          "duration": 1.515625
        },
        {
          "name": "D3",
          "midi": 50,
          "time": 47.484375,
          "velocity": 0.36220472440944884,
          "duration": 0.15625
        },
        {
          "name": "G3",
          "midi": 55,
          "time": 47.6328125,
          "velocity": 0.4094488188976378,
          "duration": 0.1640625
        },
        {
          "name": "A3",
          "midi": 57,
          "time": 47.7734375,
          "velocity": 0.4645669291338583,
          "duration": 0.1640625
        },
        {
          "name": "D4",
          "midi": 62,
          "time": 47.9296875,
          "velocity": 0.5196850393700787,
          "duration": 0.15625
        },
        {
          "name": "D4",
          "midi": 62,
          "time": 48.0703125,
          "velocity": 0.5433070866141733,
          "duration": 0.1640625
        },
        {
          "name": "G4",
          "midi": 67,
          "time": 48.21875,
          "velocity": 0.5511811023622047,
          "duration": 0.15625
        },
        {
          "name": "A4",
          "midi": 69,
          "time": 48.3671875,
          "velocity": 0.5590551181102362,
          "duration": 0.15625
        },
        {
          "name": "D5",
          "midi": 74,
          "time": 48.5078125,
          "velocity": 0.5669291338582677,
          "duration": 0.1640625
        },
        {
          "name": "D5",
          "midi": 74,
          "time": 48.65625,
          "velocity": 0.5748031496062992,
          "duration": 0.1640625
        },
        {
          "name": "G5",
          "midi": 79,
          "time": 48.796875,
          "velocity": 0.5826771653543307,
          "duration": 0.171875
        },
        {
          "name": "A5",
          "midi": 81,
          "time": 48.953125,
          "velocity": 0.5905511811023622,
          "duration": 0.15625
        },
        {
          "name": "D6",
          "midi": 86,
          "time": 49.1015625,
          "velocity": 0.5984251968503937,
          "duration": 0.15625
        },
        {
          "name": "D6",
          "midi": 86,
          "time": 49.2421875,
          "velocity": 0.6062992125984252,
          "duration": 0.15625
        },
        {
          "name": "G6",
          "midi": 91,
          "time": 49.390625,
          "velocity": 0.6141732283464567,
          "duration": 0.1640625
        },
        {
          "name": "A6",
          "midi": 93,
          "time": 49.53125,
          "velocity": 0.6220472440944882,
          "duration": 0.171875
        },
        {
          "name": "D7",
          "midi": 98,
          "time": 49.6796875,
          "velocity": 0.7795275590551181,
          "duration": 2.7890625
        },
        {
          "name": "A6",
          "midi": 93,
          "time": 52.5,
          "velocity": 0.3779527559055118,
          "duration": 0.09375
        },
        {
          "name": "C7",
          "midi": 96,
          "time": 52.59375,
          "velocity": 0.3779527559055118,
          "duration": 0.09375
        },
        {
          "name": "A#6",
          "midi": 94,
          "time": 52.6875,
          "velocity": 0.3779527559055118,
          "duration": 0.5625
        },
        {
          "name": "A6",
          "midi": 93,
          "time": 53.25,
          "velocity": 0.3858267716535433,
          "duration": 1.5
        },
        {
          "name": "A6",
          "midi": 93,
          "time": 54.75,
          "velocity": 0.4094488188976378,
          "duration": 0.09375
        },
        {
          "name": "C7",
          "midi": 96,
          "time": 54.84375,
          "velocity": 0.4094488188976378,
          "duration": 0.09375
        },
        {
          "name": "A#6",
          "midi": 94,
          "time": 54.9375,
          "velocity": 0.4094488188976378,
          "duration": 0.421875
        },
        {
          "name": "A6",
          "midi": 93,
          "time": 55.359375,
          "velocity": 0.4094488188976378,
          "duration": 0.328125
        },
        {
          "name": "G6",
          "midi": 91,
          "time": 55.6875,
          "velocity": 0.4409448818897638,
          "duration": 0.1640625
        },
        {
          "name": "G6",
          "midi": 91,
          "time": 55.8515625,
          "velocity": 0.44881889763779526,
          "duration": 0.15625
        },
        {
          "name": "F#6",
          "midi": 90,
          "time": 56.0078125,
          "velocity": 0.4566929133858268,
          "duration": 0.1640625
        },
        {
          "name": "D#6",
          "midi": 87,
          "time": 56.171875,
          "velocity": 0.4645669291338583,
          "duration": 0.15625
        },
        {
          "name": "D6",
          "midi": 86,
          "time": 56.328125,
          "velocity": 0.48031496062992124,
          "duration": 0.1640625
        },
        {
          "name": "F#6",
          "midi": 90,
          "time": 56.4921875,
          "velocity": 0.4881889763779528,
          "duration": 0.15625
        },
        {
          "name": "D#6",
          "midi": 87,
          "time": 56.6484375,
          "velocity": 0.49606299212598426,
          "duration": 0.1640625
        },
        {
          "name": "D6",
          "midi": 86,
          "time": 56.8125,
          "velocity": 0.5039370078740157,
          "duration": 0.15625
        },
        {
          "name": "C6",
          "midi": 84,
          "time": 56.96875,
          "velocity": 0.5118110236220472,
          "duration": 0.1640625
        },
        {
          "name": "D6",
          "midi": 86,
          "time": 57.1328125,
          "velocity": 0.5275590551181102,
          "duration": 0.15625
        },
        {
          "name": "C6",
          "midi": 84,
          "time": 57.2890625,
          "velocity": 0.5354330708661418,
          "duration": 0.1640625
        },
        {
          "name": "A#5",
          "midi": 82,
          "time": 57.453125,
          "velocity": 0.5433070866141733,
          "duration": 0.15625
        },
        {
          "name": "A5",
          "midi": 81,
          "time": 57.609375,
          "velocity": 0.5511811023622047,
          "duration": 0.1640625
        },
        {
          "name": "G5",
          "midi": 79,
          "time": 57.7734375,
          "velocity": 0.5669291338582677,
          "duration": 0.1640625
        },
        {
          "name": "A#5",
          "midi": 82,
          "time": 57.9375,
          "velocity": 0.5748031496062992,
          "duration": 0.1640625
        },
        {
          "name": "A5",
          "midi": 81,
          "time": 58.1015625,
          "velocity": 0.5826771653543307,
          "duration": 0.15625
        },
        {
          "name": "G5",
          "midi": 79,
          "time": 58.2578125,
          "velocity": 0.5905511811023622,
          "duration": 0.1640625
        },
        {
          "name": "F#5",
          "midi": 78,
          "time": 58.421875,
          "velocity": 0.6062992125984252,
          "duration": 0.15625
        },
        {
          "name": "F#5",
          "midi": 78,
          "time": 58.578125,
          "velocity": 0.6141732283464567,
          "duration": 0.1640625
        },
        {
          "name": "D#5",
          "midi": 75,
          "time": 58.7421875,
          "velocity": 0.6220472440944882,
          "duration": 0.15625
        },
        {
          "name": "D5",
          "midi": 74,
          "time": 58.8984375,
          "velocity": 0.6299212598425197,
          "duration": 0.1640625
        },
        {
          "name": "C5",
          "midi": 72,
          "time": 59.0625,
          "velocity": 0.6377952755905512,
          "duration": 0.15625
        },
        {
          "name": "D#5",
          "midi": 75,
          "time": 59.21875,
          "velocity": 0.6535433070866141,
          "duration": 0.1640625
        },
        {
          "name": "D5",
          "midi": 74,
          "time": 59.3828125,
          "velocity": 0.6614173228346457,
          "duration": 0.15625
        },
        {
          "name": "C5",
          "midi": 72,
          "time": 59.5390625,
          "velocity": 0.6692913385826772,
          "duration": 0.1640625
        },
        {
          "name": "D5",
          "midi": 74,
          "time": 59.703125,
          "velocity": 0.6850393700787402,
          "duration": 0.15625
        },
        {
          "name": "C5",
          "midi": 72,
          "time": 59.859375,
          "velocity": 0.6929133858267716,
          "duration": 0.1640625
        },
        {
          "name": "A#4",
          "midi": 70,
          "time": 60.0234375,
          "velocity": 0.7007874015748031,
          "duration": 0.1484375
        },
        {
          "name": "A4",
          "midi": 69,
          "time": 60.171875,
          "velocity": 0.7007874015748031,
          "duration": 0.1640625
        },
        {
          "name": "G4",
          "midi": 67,
          "time": 60.3359375,
          "velocity": 0.7086614173228346,
          "duration": 0.15625
        },
        {
          "name": "F#4",
          "midi": 66,
          "time": 60.4921875,
          "velocity": 0.7165354330708661,
          "duration": 0.1640625
        },
        {
          "name": "D#4",
          "midi": 63,
          "time": 60.65625,
          "velocity": 0.7244094488188977,
          "duration": 0.15625
        },
        {
          "name": "A4",
          "midi": 69,
          "time": 60.8125,
          "velocity": 0.7244094488188977,
          "duration": 0.1640625
        },
        {
          "name": "G4",
          "midi": 67,
          "time": 60.9765625,
          "velocity": 0.7322834645669292,
          "duration": 0.15625
        },
        {
          "name": "F#4",
          "midi": 66,
          "time": 61.1328125,
          "velocity": 0.7401574803149606,
          "duration": 0.1640625
        },
        {
          "name": "G4",
          "midi": 67,
          "time": 61.296875,
          "velocity": 0.7480314960629921,
          "duration": 0.15625
        },
        {
          "name": "F#4",
          "midi": 66,
          "time": 61.453125,
          "velocity": 0.7480314960629921,
          "duration": 0.1640625
        },
        {
          "name": "D#4",
          "midi": 63,
          "time": 61.6171875,
          "velocity": 0.7559055118110236,
          "duration": 0.15625
        },
        {
          "name": "D4",
          "midi": 62,
          "time": 61.7734375,
          "velocity": 0.7637795275590551,
          "duration": 0.1640625
        },
        {
          "name": "F#4",
          "midi": 66,
          "time": 61.9375,
          "velocity": 0.7716535433070866,
          "duration": 0.15625
        },
        {
          "name": "G4",
          "midi": 67,
          "time": 62.09375,
          "velocity": 0.7716535433070866,
          "duration": 0.1640625
        },
        {
          "name": "D#4",
          "midi": 63,
          "time": 62.2578125,
          "velocity": 0.7795275590551181,
          "duration": 0.1640625
        },
        {
          "name": "D4",
          "midi": 62,
          "time": 62.421875,
          "velocity": 0.7874015748031497,
          "duration": 0.1640625
        },
        {
          "name": "C4",
          "midi": 60,
          "time": 62.5859375,
          "velocity": 0.7952755905511811,
          "duration": 0.15625
        },
        {
          "name": "A#3",
          "midi": 58,
          "time": 62.7421875,
          "velocity": 0.7952755905511811,
          "duration": 0.1640625
        },
        {
          "name": "D4",
          "midi": 62,
          "time": 62.90625,
          "velocity": 0.8031496062992126,
          "duration": 0.15625
        },
        {
          "name": "C4",
          "midi": 60,
          "time": 63.0625,
          "velocity": 0.8110236220472441,
          "duration": 0.1640625
        },
        {
          "name": "A#3",
          "midi": 58,
          "time": 63.2265625,
          "velocity": 0.8110236220472441,
          "duration": 0.15625
        },
        {
          "name": "A3",
          "midi": 57,
          "time": 63.3828125,
          "velocity": 0.8267716535433071,
          "duration": 0.1640625
        },
        {
          "name": "G3",
          "midi": 55,
          "time": 63.546875,
          "velocity": 0.8346456692913385,
          "duration": 0.15625
        },
        {
          "name": "F#3",
          "midi": 54,
          "time": 63.703125,
          "velocity": 0.8503937007874016,
          "duration": 0.1640625
        },
        {
          "name": "D#3",
          "midi": 51,
          "time": 63.8671875,
          "velocity": 0.8661417322834646,
          "duration": 0.15625
        },
        {
          "name": "D3",
          "midi": 50,
          "time": 64.0234375,
          "velocity": 0.8740157480314961,
          "duration": 0.1640625
        },
        {
          "name": "C3",
          "midi": 48,
          "time": 64.1875,
          "velocity": 0.889763779527559,
          "duration": 0.15625
        },
        {
          "name": "A#2",
          "midi": 46,
          "time": 64.34375,
          "velocity": 0.8976377952755905,
          "duration": 0.1640625
        },
        {
          "name": "D4",
          "midi": 62,
          "time": 65.25,
          "velocity": 0.6929133858267716,
          "duration": 0.17578125
        },
        {
          "name": "A#3",
          "midi": 58,
          "time": 65.25,
          "velocity": 0.6929133858267716,
          "duration": 0.17578125
        },
        {
          "name": "G3",
          "midi": 55,
          "time": 65.25,
          "velocity": 0.6929133858267716,
          "duration": 0.17578125
        },
        {
          "name": "D3",
          "midi": 50,
          "time": 65.25,
          "velocity": 0.6929133858267716,
          "duration": 0.17578125
        },
        {
          "name": "D3",
          "midi": 50,
          "time": 66,
          "velocity": 0.7637795275590551,
          "duration": 0.17578125
        },
        {
          "name": "D4",
          "midi": 62,
          "time": 66,
          "velocity": 0.7637795275590551,
          "duration": 0.17578125
        },
        {
          "name": "A#3",
          "midi": 58,
          "time": 66,
          "velocity": 0.7637795275590551,
          "duration": 0.17578125
        },
        {
          "name": "G3",
          "midi": 55,
          "time": 66,
          "velocity": 0.7637795275590551,
          "duration": 0.17578125
        },
        {
          "name": "D4",
          "midi": 62,
          "time": 67.5,
          "velocity": 0.6929133858267716,
          "duration": 0.17578125
        },
        {
          "name": "A#3",
          "midi": 58,
          "time": 67.5,
          "velocity": 0.6929133858267716,
          "duration": 0.17578125
        },
        {
          "name": "G3",
          "midi": 55,
          "time": 67.5,
          "velocity": 0.6929133858267716,
          "duration": 0.17578125
        },
        {
          "name": "D3",
          "midi": 50,
          "time": 67.5,
          "velocity": 0.6929133858267716,
          "duration": 0.17578125
        },
        {
          "name": "D3",
          "midi": 50,
          "time": 68.25,
          "velocity": 0.6771653543307087,
          "duration": 0.17578125
        },
        {
          "name": "G3",
          "midi": 55,
          "time": 68.25,
          "velocity": 0.6771653543307087,
          "duration": 0.17578125
        },
        {
          "name": "A#3",
          "midi": 58,
          "time": 68.25,
          "velocity": 0.6771653543307087,
          "duration": 0.17578125
        },
        {
          "name": "D4",
          "midi": 62,
          "time": 68.25,
          "velocity": 0.6771653543307087,
          "duration": 0.17578125
        },
        {
          "name": "D2",
          "midi": 38,
          "time": 68.84375,
          "velocity": 0.8503937007874016,
          "duration": 0.1328125
        },
        {
          "name": "F#2",
          "midi": 42,
          "time": 68.90625,
          "velocity": 0.8503937007874016,
          "duration": 0.1328125
        },
        {
          "name": "G2",
          "midi": 43,
          "time": 69.0078125,
          "velocity": 0.8503937007874016,
          "duration": 0.140625
        },
        {
          "name": "D4",
          "midi": 62,
          "time": 69.75,
          "velocity": 0.5354330708661418,
          "duration": 0.17578125
        },
        {
          "name": "A#3",
          "midi": 58,
          "time": 69.75,
          "velocity": 0.5354330708661418,
          "duration": 0.17578125
        },
        {
          "name": "G3",
          "midi": 55,
          "time": 69.75,
          "velocity": 0.5354330708661418,
          "duration": 0.17578125
        },
        {
          "name": "D3",
          "midi": 50,
          "time": 69.75,
          "velocity": 0.5354330708661418,
          "duration": 0.17578125
        },
        {
          "name": "D4",
          "midi": 62,
          "time": 70.5,
          "velocity": 0.5354330708661418,
          "duration": 0.17578125
        },
        {
          "name": "A#3",
          "midi": 58,
          "time": 70.5,
          "velocity": 0.5354330708661418,
          "duration": 0.17578125
        },
        {
          "name": "G3",
          "midi": 55,
          "time": 70.5,
          "velocity": 0.5354330708661418,
          "duration": 0.17578125
        },
        {
          "name": "D3",
          "midi": 50,
          "time": 70.5,
          "velocity": 0.5354330708661418,
          "duration": 0.17578125
        },
        {
          "name": "D4",
          "midi": 62,
          "time": 71.25,
          "velocity": 0.6929133858267716,
          "duration": 0.75
        },
        {
          "name": "G4",
          "midi": 67,
          "time": 72,
          "velocity": 0.7795275590551181,
          "duration": 0.75
        },
        {
          "name": "A#4",
          "midi": 70,
          "time": 72.75,
          "velocity": 0.9291338582677166,
          "duration": 0.75
        },
        {
          "name": "D#4",
          "midi": 63,
          "time": 73.125,
          "velocity": 0.5039370078740157,
          "duration": 0.1875
        },
        {
          "name": "G4",
          "midi": 67,
          "time": 73.125,
          "velocity": 0.5039370078740157,
          "duration": 0.1875
        },
        {
          "name": "D5",
          "midi": 74,
          "time": 73.5,
          "velocity": 0.8740157480314961,
          "duration": 1.5
        },
        {
          "name": "G4",
          "midi": 67,
          "time": 74.25,
          "velocity": 0.4881889763779528,
          "duration": 0.75
        },
        {
          "name": "D#4",
          "midi": 63,
          "time": 74.25,
          "velocity": 0.4881889763779528,
          "duration": 0.75
        },
        {
          "name": "D5",
          "midi": 74,
          "time": 75,
          "velocity": 0.7874015748031497,
          "duration": 0.75
        },
        {
          "name": "G4",
          "midi": 67,
          "time": 75.375,
          "velocity": 0.5275590551181102,
          "duration": 0.375
        },
        {
          "name": "D#4",
          "midi": 63,
          "time": 75.375,
          "velocity": 0.5039370078740157,
          "duration": 0.375
        },
        {
          "name": "C5",
          "midi": 72,
          "time": 75.75,
          "velocity": 0.7401574803149606,
          "duration": 0.75
        },
        {
          "name": "F#4",
          "midi": 66,
          "time": 76.125,
          "velocity": 0.5039370078740157,
          "duration": 0.890625
        },
        {
          "name": "D4",
          "midi": 62,
          "time": 76.125,
          "velocity": 0.5039370078740157,
          "duration": 0.890625
        },
        {
          "name": "A#4",
          "midi": 70,
          "time": 76.5,
          "velocity": 0.7007874015748031,
          "duration": 0.75
        },
        {
          "name": "A4",
          "midi": 69,
          "time": 77.25,
          "velocity": 0.7007874015748031,
          "duration": 0.75
        },
        {
          "name": "D4",
          "midi": 62,
          "time": 77.625,
          "velocity": 0.44881889763779526,
          "duration": 0.375
        },
        {
          "name": "F#4",
          "midi": 66,
          "time": 77.625,
          "velocity": 0.44881889763779526,
          "duration": 0.375
        },
        {
          "name": "A#4",
          "midi": 70,
          "time": 78,
          "velocity": 0.6929133858267716,
          "duration": 2.2421875
        },
        {
          "name": "A#3",
          "midi": 58,
          "time": 78.375,
          "velocity": 0.4881889763779528,
          "duration": 0.28125
        },
        {
          "name": "D4",
          "midi": 62,
          "time": 78.375,
          "velocity": 0.4881889763779528,
          "duration": 0.28125
        },
        {
          "name": "D4",
          "midi": 62,
          "time": 79.125,
          "velocity": 0.4881889763779528,
          "duration": 0.28125
        },
        {
          "name": "A#3",
          "midi": 58,
          "time": 79.125,
          "velocity": 0.4881889763779528,
          "duration": 0.28125
        },
        {
          "name": "A#3",
          "midi": 58,
          "time": 79.875,
          "velocity": 0.4881889763779528,
          "duration": 0.28125
        },
        {
          "name": "D4",
          "midi": 62,
          "time": 79.875,
          "velocity": 0.4881889763779528,
          "duration": 0.28125
        },
        {
          "name": "G4",
          "midi": 67,
          "time": 80.25,
          "velocity": 0.937007874015748,
          "duration": 0.75
        },
        {
          "name": "A#4",
          "midi": 70,
          "time": 81,
          "velocity": 0.8503937007874016,
          "duration": 0.75
        },
        {
          "name": "D5",
          "midi": 74,
          "time": 81.75,
          "velocity": 0.7874015748031497,
          "duration": 0.6015625
        },
        {
          "name": "A#4",
          "midi": 70,
          "time": 82.328125,
          "velocity": 0.4645669291338583,
          "duration": 0.140625
        },
        {
          "name": "D5",
          "midi": 74,
          "time": 82.40625,
          "velocity": 0.5275590551181102,
          "duration": 0.09375
        },
        {
          "name": "G5",
          "midi": 79,
          "time": 82.5,
          "velocity": 0.8267716535433071,
          "duration": 1.5
        },
        {
          "name": "D#5",
          "midi": 75,
          "time": 83.25,
          "velocity": 0.47244094488188976,
          "duration": 0.1875
        },
        {
          "name": "A#4",
          "midi": 70,
          "time": 83.25,
          "velocity": 0.47244094488188976,
          "duration": 0.1875
        },
        {
          "name": "G5",
          "midi": 79,
          "time": 84,
          "velocity": 0.7244094488188977,
          "duration": 0.75
        },
        {
          "name": "D#5",
          "midi": 75,
          "time": 84.375,
          "velocity": 0.47244094488188976,
          "duration": 0.1875
        },
        {
          "name": "A#4",
          "midi": 70,
          "time": 84.375,
          "velocity": 0.47244094488188976,
          "duration": 0.1875
        },
        {
          "name": "G5",
          "midi": 79,
          "time": 84.75,
          "velocity": 0.7244094488188977,
          "duration": 0.75
        },
        {
          "name": "C5",
          "midi": 72,
          "time": 85.125,
          "velocity": 0.5039370078740157,
          "duration": 0.1875
        },
        {
          "name": "A4",
          "midi": 69,
          "time": 85.125,
          "velocity": 0.5039370078740157,
          "duration": 0.1875
        },
        {
          "name": "F5",
          "midi": 77,
          "time": 85.5,
          "velocity": 0.7165354330708661,
          "duration": 0.75
        },
        {
          "name": "C5",
          "midi": 72,
          "time": 85.875,
          "velocity": 0.4881889763779528,
          "duration": 0.1875
        },
        {
          "name": "A4",
          "midi": 69,
          "time": 85.875,
          "velocity": 0.4881889763779528,
          "duration": 0.1875
        },
        {
          "name": "D#5",
          "midi": 75,
          "time": 86.25,
          "velocity": 0.7007874015748031,
          "duration": 0.75
        },
        {
          "name": "A4",
          "midi": 69,
          "time": 86.625,
          "velocity": 0.47244094488188976,
          "duration": 0.1875
        },
        {
          "name": "C5",
          "midi": 72,
          "time": 86.625,
          "velocity": 0.47244094488188976,
          "duration": 0.1875
        },
        {
          "name": "F5",
          "midi": 77,
          "time": 87,
          "velocity": 0.7952755905511811,
          "duration": 3
        },
        {
          "name": "D5",
          "midi": 74,
          "time": 87.375,
          "velocity": 0.6062992125984252,
          "duration": 0.375
        },
        {
          "name": "A4",
          "midi": 69,
          "time": 87.75,
          "velocity": 0.5433070866141733,
          "duration": 0.375
        },
        {
          "name": "F4",
          "midi": 65,
          "time": 88.125,
          "velocity": 0.48031496062992124,
          "duration": 0.375
        },
        {
          "name": "A#4",
          "midi": 70,
          "time": 90.375,
          "velocity": 0.7165354330708661,
          "duration": 0.375
        },
        {
          "name": "D5",
          "midi": 74,
          "time": 90.75,
          "velocity": 0.7401574803149606,
          "duration": 0.375
        },
        {
          "name": "F5",
          "midi": 77,
          "time": 91.125,
          "velocity": 0.7637795275590551,
          "duration": 0.375
        },
        {
          "name": "A5",
          "midi": 81,
          "time": 91.5,
          "velocity": 0.8110236220472441,
          "duration": 1.5
        },
        {
          "name": "A#4",
          "midi": 70,
          "time": 91.875,
          "velocity": 0.4645669291338583,
          "duration": 0.1875
        },
        {
          "name": "D5",
          "midi": 74,
          "time": 91.875,
          "velocity": 0.4645669291338583,
          "duration": 0.1875
        },
        {
          "name": "A4",
          "midi": 69,
          "time": 91.875,
          "velocity": 0.4645669291338583,
          "duration": 0.1875
        },
        {
          "name": "A#4",
          "midi": 70,
          "time": 92.25,
          "velocity": 0.4645669291338583,
          "duration": 0.1875
        },
        {
          "name": "D5",
          "midi": 74,
          "time": 92.25,
          "velocity": 0.4645669291338583,
          "duration": 0.1875
        },
        {
          "name": "A4",
          "midi": 69,
          "time": 92.25,
          "velocity": 0.4645669291338583,
          "duration": 0.1875
        },
        {
          "name": "A#4",
          "midi": 70,
          "time": 92.625,
          "velocity": 0.4645669291338583,
          "duration": 0.1875
        },
        {
          "name": "D5",
          "midi": 74,
          "time": 92.625,
          "velocity": 0.4645669291338583,
          "duration": 0.1875
        },
        {
          "name": "A4",
          "midi": 69,
          "time": 92.625,
          "velocity": 0.4645669291338583,
          "duration": 0.1875
        },
        {
          "name": "G5",
          "midi": 79,
          "time": 93,
          "velocity": 0.6929133858267716,
          "duration": 0.75
        },
        {
          "name": "A4",
          "midi": 69,
          "time": 93.375,
          "velocity": 0.4645669291338583,
          "duration": 0.1875
        },
        {
          "name": "A#4",
          "midi": 70,
          "time": 93.375,
          "velocity": 0.4645669291338583,
          "duration": 0.1875
        },
        {
          "name": "D5",
          "midi": 74,
          "time": 93.375,
          "velocity": 0.4645669291338583,
          "duration": 0.1875
        },
        {
          "name": "F5",
          "midi": 77,
          "time": 93.75,
          "velocity": 0.6929133858267716,
          "duration": 0.75
        },
        {
          "name": "F4",
          "midi": 65,
          "time": 94.125,
          "velocity": 0.4645669291338583,
          "duration": 0.515625
        },
        {
          "name": "A4",
          "midi": 69,
          "time": 94.125,
          "velocity": 0.4645669291338583,
          "duration": 0.515625
        },
        {
          "name": "C#5",
          "midi": 73,
          "time": 94.125,
          "velocity": 0.4645669291338583,
          "duration": 0.515625
        },
        {
          "name": "E5",
          "midi": 76,
          "time": 94.5,
          "velocity": 0.6929133858267716,
          "duration": 0.75
        },
        {
          "name": "F4",
          "midi": 65,
          "time": 94.875,
          "velocity": 0.4645669291338583,
          "duration": 0.515625
        },
        {
          "name": "A4",
          "midi": 69,
          "time": 94.875,
          "velocity": 0.4645669291338583,
          "duration": 0.515625
        },
        {
          "name": "C#5",
          "midi": 73,
          "time": 94.875,
          "velocity": 0.4645669291338583,
          "duration": 0.515625
        },
        {
          "name": "F5",
          "midi": 77,
          "time": 95.25,
          "velocity": 0.6929133858267716,
          "duration": 0.75
        },
        {
          "name": "C#5",
          "midi": 73,
          "time": 95.625,
          "velocity": 0.47244094488188976,
          "duration": 0.515625
        },
        {
          "name": "A4",
          "midi": 69,
          "time": 95.625,
          "velocity": 0.47244094488188976,
          "duration": 0.515625
        },
        {
          "name": "F4",
          "midi": 65,
          "time": 95.625,
          "velocity": 0.47244094488188976,
          "duration": 0.515625
        },
        {
          "name": "G5",
          "midi": 79,
          "time": 96,
          "velocity": 0.8267716535433071,
          "duration": 1.5
        },
        {
          "name": "C5",
          "midi": 72,
          "time": 96.375,
          "velocity": 0.4645669291338583,
          "duration": 0.1875
        },
        {
          "name": "A4",
          "midi": 69,
          "time": 96.375,
          "velocity": 0.4645669291338583,
          "duration": 0.1875
        },
        {
          "name": "C5",
          "midi": 72,
          "time": 96.75,
          "velocity": 0.44881889763779526,
          "duration": 0.1875
        },
        {
          "name": "A4",
          "midi": 69,
          "time": 96.75,
          "velocity": 0.44881889763779526,
          "duration": 0.1875
        },
        {
          "name": "C5",
          "midi": 72,
          "time": 97.125,
          "velocity": 0.47244094488188976,
          "duration": 0.1875
        },
        {
          "name": "A4",
          "midi": 69,
          "time": 97.125,
          "velocity": 0.47244094488188976,
          "duration": 0.1875
        },
        {
          "name": "F5",
          "midi": 77,
          "time": 97.5,
          "velocity": 0.6929133858267716,
          "duration": 0.75
        },
        {
          "name": "A4",
          "midi": 69,
          "time": 97.875,
          "velocity": 0.44881889763779526,
          "duration": 0.1875
        },
        {
          "name": "C5",
          "midi": 72,
          "time": 97.875,
          "velocity": 0.44881889763779526,
          "duration": 0.1875
        },
        {
          "name": "E5",
          "midi": 76,
          "time": 98.25,
          "velocity": 0.6929133858267716,
          "duration": 1.5
        },
        {
          "name": "A4",
          "midi": 69,
          "time": 98.578125,
          "velocity": 0.44881889763779526,
          "duration": 0.1875
        },
        {
          "name": "F4",
          "midi": 65,
          "time": 98.578125,
          "velocity": 0.44881889763779526,
          "duration": 0.1875
        },
        {
          "name": "D4",
          "midi": 62,
          "time": 98.578125,
          "velocity": 0.44881889763779526,
          "duration": 0.1875
        },
        {
          "name": "A4",
          "midi": 69,
          "time": 99,
          "velocity": 0.47244094488188976,
          "duration": 0.1875
        },
        {
          "name": "F4",
          "midi": 65,
          "time": 99,
          "velocity": 0.47244094488188976,
          "duration": 0.1875
        },
        {
          "name": "E4",
          "midi": 64,
          "time": 99.375,
          "velocity": 0.4645669291338583,
          "duration": 0.1875
        },
        {
          "name": "D5",
          "midi": 74,
          "time": 99.75,
          "velocity": 0.6614173228346457,
          "duration": 0.75
        },
        {
          "name": "D4",
          "midi": 62,
          "time": 99.75,
          "velocity": 0.6614173228346457,
          "duration": 0.1875
        },
        {
          "name": "A4",
          "midi": 69,
          "time": 100.125,
          "velocity": 0.44881889763779526,
          "duration": 0.1875
        },
        {
          "name": "C5",
          "midi": 72,
          "time": 100.5,
          "velocity": 0.6929133858267716,
          "duration": 0.75
        },
        {
          "name": "D4",
          "midi": 62,
          "time": 100.875,
          "velocity": 0.47244094488188976,
          "duration": 0.375
        },
        {
          "name": "F4",
          "midi": 65,
          "time": 100.875,
          "velocity": 0.47244094488188976,
          "duration": 0.375
        },
        {
          "name": "A#4",
          "midi": 70,
          "time": 101.25,
          "velocity": 0.6929133858267716,
          "duration": 0.75
        },
        {
          "name": "F4",
          "midi": 65,
          "time": 101.625,
          "velocity": 0.4645669291338583,
          "duration": 0.375
        },
        {
          "name": "D4",
          "midi": 62,
          "time": 101.625,
          "velocity": 0.4645669291338583,
          "duration": 0.375
        },
        {
          "name": "C5",
          "midi": 72,
          "time": 102,
          "velocity": 0.6929133858267716,
          "duration": 0.75
        },
        {
          "name": "D4",
          "midi": 62,
          "time": 102.375,
          "velocity": 0.4645669291338583,
          "duration": 0.375
        },
        {
          "name": "F4",
          "midi": 65,
          "time": 102.375,
          "velocity": 0.4645669291338583,
          "duration": 0.375
        },
        {
          "name": "D5",
          "midi": 74,
          "time": 102.75,
          "velocity": 0.7795275590551181,
          "duration": 0.75
        },
        {
          "name": "E4",
          "midi": 64,
          "time": 103.125,
          "velocity": 0.4645669291338583,
          "duration": 0.375
        },
        {
          "name": "C4",
          "midi": 60,
          "time": 103.125,
          "velocity": 0.4645669291338583,
          "duration": 0.375
        },
        {
          "name": "G4",
          "midi": 67,
          "time": 103.125,
          "velocity": 0.4645669291338583,
          "duration": 0.375
        },
        {
          "name": "C5",
          "midi": 72,
          "time": 103.5,
          "velocity": 0.6929133858267716,
          "duration": 0.75
        },
        {
          "name": "C4",
          "midi": 60,
          "time": 103.875,
          "velocity": 0.4645669291338583,
          "duration": 0.375
        },
        {
          "name": "E4",
          "midi": 64,
          "time": 103.875,
          "velocity": 0.4645669291338583,
          "duration": 0.375
        },
        {
          "name": "G4",
          "midi": 67,
          "time": 103.875,
          "velocity": 0.4645669291338583,
          "duration": 0.375
        },
        {
          "name": "G4",
          "midi": 67,
          "time": 104.25,
          "velocity": 0.6929133858267716,
          "duration": 0.75
        },
        {
          "name": "E4",
          "midi": 64,
          "time": 104.625,
          "velocity": 0.5039370078740157,
          "duration": 0.375
        },
        {
          "name": "C4",
          "midi": 60,
          "time": 104.625,
          "velocity": 0.5039370078740157,
          "duration": 0.375
        },
        {
          "name": "A4",
          "midi": 69,
          "time": 105,
          "velocity": 0.6929133858267716,
          "duration": 0.7421875
        },
        {
          "name": "D4",
          "midi": 62,
          "time": 105.75,
          "velocity": 0.4566929133858268,
          "duration": 0.15625
        },
        {
          "name": "F#4",
          "midi": 66,
          "time": 105.90625,
          "velocity": 0.4881889763779528,
          "duration": 0.1484375
        },
        {
          "name": "G4",
          "midi": 67,
          "time": 106.0546875,
          "velocity": 0.5196850393700787,
          "duration": 0.1484375
        },
        {
          "name": "A4",
          "midi": 69,
          "time": 106.203125,
          "velocity": 0.5511811023622047,
          "duration": 0.1484375
        },
        {
          "name": "D5",
          "midi": 74,
          "time": 106.3515625,
          "velocity": 0.5826771653543307,
          "duration": 0.15625
        },
        {
          "name": "F#5",
          "midi": 78,
          "time": 106.5078125,
          "velocity": 0.6141732283464567,
          "duration": 0.15625
        },
        {
          "name": "G5",
          "midi": 79,
          "time": 106.6640625,
          "velocity": 0.6456692913385826,
          "duration": 0.15625
        },
        {
          "name": "A5",
          "midi": 81,
          "time": 106.8125,
          "velocity": 0.6771653543307087,
          "duration": 0.1484375
        },
        {
          "name": "D6",
          "midi": 86,
          "time": 106.9609375,
          "velocity": 0.7086614173228346,
          "duration": 0.1484375
        },
        {
          "name": "F#6",
          "midi": 90,
          "time": 107.109375,
          "velocity": 0.7401574803149606,
          "duration": 0.1484375
        },
        {
          "name": "A5",
          "midi": 81,
          "time": 107.2421875,
          "velocity": 0.7637795275590551,
          "duration": 0.75
        },
        {
          "name": "A6",
          "midi": 93,
          "time": 107.2578125,
          "velocity": 0.7716535433070866,
          "duration": 0.75
        },
        {
          "name": "G5",
          "midi": 79,
          "time": 108,
          "velocity": 0.9921259842519685,
          "duration": 0.75
        },
        {
          "name": "G4",
          "midi": 67,
          "time": 108,
          "velocity": 0.8031496062992126,
          "duration": 0.75
        },
        {
          "name": "A#4",
          "midi": 70,
          "time": 108.75,
          "velocity": 0.7086614173228346,
          "duration": 0.75
        },
        {
          "name": "A#5",
          "midi": 82,
          "time": 108.75,
          "velocity": 0.8976377952755905,
          "duration": 0.75
        },
        {
          "name": "D5",
          "midi": 74,
          "time": 109.359375,
          "velocity": 0.6220472440944882,
          "duration": 0.8359375
        },
        {
          "name": "D#5",
          "midi": 75,
          "time": 109.40625,
          "velocity": 0.6220472440944882,
          "duration": 0.8359375
        },
        {
          "name": "D6",
          "midi": 86,
          "time": 109.5,
          "velocity": 0.9921259842519685,
          "duration": 1.5
        },
        {
          "name": "D#5",
          "midi": 75,
          "time": 110.25,
          "velocity": 0.5118110236220472,
          "duration": 0.75
        },
        {
          "name": "D5",
          "midi": 74,
          "time": 110.25,
          "velocity": 0.5118110236220472,
          "duration": 0.75
        },
        {
          "name": "G5",
          "midi": 79,
          "time": 110.25,
          "velocity": 0.5118110236220472,
          "duration": 0.75
        },
        {
          "name": "D6",
          "midi": 86,
          "time": 111,
          "velocity": 0.8740157480314961,
          "duration": 0.75
        },
        {
          "name": "G5",
          "midi": 79,
          "time": 111,
          "velocity": 0.5118110236220472,
          "duration": 0.75
        },
        {
          "name": "D#5",
          "midi": 75,
          "time": 111,
          "velocity": 0.5118110236220472,
          "duration": 0.75
        },
        {
          "name": "D5",
          "midi": 74,
          "time": 111,
          "velocity": 0.5118110236220472,
          "duration": 0.75
        },
        {
          "name": "C6",
          "midi": 84,
          "time": 111.75,
          "velocity": 0.8976377952755905,
          "duration": 0.75
        },
        {
          "name": "C5",
          "midi": 72,
          "time": 111.75,
          "velocity": 0.7086614173228346,
          "duration": 0.75
        },
        {
          "name": "F#5",
          "midi": 78,
          "time": 111.75,
          "velocity": 0.7086614173228346,
          "duration": 0.75
        },
        {
          "name": "D#5",
          "midi": 75,
          "time": 111.75,
          "velocity": 0.7086614173228346,
          "duration": 0.75
        },
        {
          "name": "A#5",
          "midi": 82,
          "time": 112.5,
          "velocity": 0.8661417322834646,
          "duration": 0.75
        },
        {
          "name": "A#4",
          "midi": 70,
          "time": 112.5,
          "velocity": 0.6771653543307087,
          "duration": 0.75
        },
        {
          "name": "D#5",
          "midi": 75,
          "time": 112.5,
          "velocity": 0.6771653543307087,
          "duration": 0.75
        },
        {
          "name": "F#5",
          "midi": 78,
          "time": 112.5,
          "velocity": 0.6771653543307087,
          "duration": 0.75
        },
        {
          "name": "F#5",
          "midi": 78,
          "time": 113.25,
          "velocity": 0.6535433070866141,
          "duration": 0.75
        },
        {
          "name": "D#5",
          "midi": 75,
          "time": 113.25,
          "velocity": 0.6535433070866141,
          "duration": 0.75
        },
        {
          "name": "A4",
          "midi": 69,
          "time": 113.25,
          "velocity": 0.6535433070866141,
          "duration": 0.75
        },
        {
          "name": "A5",
          "midi": 81,
          "time": 113.25,
          "velocity": 0.84251968503937,
          "duration": 0.75
        },
        {
          "name": "A#4",
          "midi": 70,
          "time": 114,
          "velocity": 0.7480314960629921,
          "duration": 0.734375
        },
        {
          "name": "A#5",
          "midi": 82,
          "time": 114,
          "velocity": 0.937007874015748,
          "duration": 2.25
        },
        {
          "name": "D5",
          "midi": 74,
          "time": 114,
          "velocity": 0.7480314960629921,
          "duration": 0.7265625
        },
        {
          "name": "G5",
          "midi": 79,
          "time": 114,
          "velocity": 0.7480314960629921,
          "duration": 2.25
        },
        {
          "name": "A#4",
          "midi": 70,
          "time": 114.7421875,
          "velocity": 0.5275590551181102,
          "duration": 0.75
        },
        {
          "name": "D5",
          "midi": 74,
          "time": 114.75,
          "velocity": 0.5275590551181102,
          "duration": 0.75
        },
        {
          "name": "F5",
          "midi": 77,
          "time": 114.75,
          "velocity": 0.5275590551181102,
          "duration": 0.75
        },
        {
          "name": "D5",
          "midi": 74,
          "time": 115.5,
          "velocity": 0.5511811023622047,
          "duration": 0.75
        },
        {
          "name": "A#4",
          "midi": 70,
          "time": 115.5,
          "velocity": 0.5511811023622047,
          "duration": 0.75
        },
        {
          "name": "F5",
          "midi": 77,
          "time": 115.5,
          "velocity": 0.5511811023622047,
          "duration": 0.75
        },
        {
          "name": "G5",
          "midi": 79,
          "time": 116.25,
          "velocity": 0.9448818897637795,
          "duration": 0.75
        },
        {
          "name": "A#4",
          "midi": 70,
          "time": 116.25,
          "velocity": 0.7559055118110236,
          "duration": 0.75
        },
        {
          "name": "D5",
          "midi": 74,
          "time": 116.25,
          "velocity": 0.7559055118110236,
          "duration": 0.75
        },
        {
          "name": "G4",
          "midi": 67,
          "time": 116.25,
          "velocity": 0.7559055118110236,
          "duration": 0.75
        },
        {
          "name": "A#5",
          "midi": 82,
          "time": 117,
          "velocity": 0.9291338582677166,
          "duration": 0.75
        },
        {
          "name": "A#4",
          "midi": 70,
          "time": 117,
          "velocity": 0.7401574803149606,
          "duration": 0.75
        },
        {
          "name": "D6",
          "midi": 86,
          "time": 117.75,
          "velocity": 0.9606299212598425,
          "duration": 0.6953125
        },
        {
          "name": "D5",
          "midi": 74,
          "time": 117.75,
          "velocity": 0.7716535433070866,
          "duration": 0.7421875
        },
        {
          "name": "G5",
          "midi": 79,
          "time": 118.3125,
          "velocity": 0.7716535433070866,
          "duration": 1.5
        },
        {
          "name": "A#5",
          "midi": 82,
          "time": 118.40625,
          "velocity": 0.7716535433070866,
          "duration": 1.5
        },
        {
          "name": "D6",
          "midi": 86,
          "time": 118.453125,
          "velocity": 0.7716535433070866,
          "duration": 1.546875
        },
        {
          "name": "G6",
          "midi": 91,
          "time": 118.5,
          "velocity": 0.9606299212598425,
          "duration": 1.5
        },
        {
          "name": "G6",
          "midi": 91,
          "time": 120,
          "velocity": 0.7637795275590551,
          "duration": 0.59375
        },
        {
          "name": "D6",
          "midi": 86,
          "time": 120,
          "velocity": 0.5748031496062992,
          "duration": 0.59375
        },
        {
          "name": "A#5",
          "midi": 82,
          "time": 120,
          "velocity": 0.5748031496062992,
          "duration": 0.59375
        },
        {
          "name": "G5",
          "midi": 79,
          "time": 120,
          "velocity": 0.5748031496062992,
          "duration": 0.59375
        },
        {
          "name": "G5",
          "midi": 79,
          "time": 120.609375,
          "velocity": 0.5748031496062992,
          "duration": 0.75
        },
        {
          "name": "C6",
          "midi": 84,
          "time": 120.65625,
          "velocity": 0.5748031496062992,
          "duration": 0.75
        },
        {
          "name": "D#6",
          "midi": 87,
          "time": 120.703125,
          "velocity": 0.5748031496062992,
          "duration": 0.75
        },
        {
          "name": "G6",
          "midi": 91,
          "time": 120.75,
          "velocity": 0.7637795275590551,
          "duration": 0.75
        },
        {
          "name": "A6",
          "midi": 93,
          "time": 121.5,
          "velocity": 0.7637795275590551,
          "duration": 0.375
        },
        {
          "name": "A5",
          "midi": 81,
          "time": 121.5,
          "velocity": 0.5748031496062992,
          "duration": 0.375
        },
        {
          "name": "F6",
          "midi": 89,
          "time": 122.25,
          "velocity": 0.7637795275590551,
          "duration": 0.375
        },
        {
          "name": "F5",
          "midi": 77,
          "time": 122.25,
          "velocity": 0.5748031496062992,
          "duration": 0.375
        },
        {
          "name": "D#6",
          "midi": 87,
          "time": 122.625,
          "velocity": 0.7637795275590551,
          "duration": 0.375
        },
        {
          "name": "D#5",
          "midi": 75,
          "time": 122.625,
          "velocity": 0.5748031496062992,
          "duration": 0.375
        },
        {
          "name": "F6",
          "midi": 89,
          "time": 123,
          "velocity": 0.7480314960629921,
          "duration": 2.25
        },
        {
          "name": "D6",
          "midi": 86,
          "time": 123,
          "velocity": 0.5590551181102362,
          "duration": 2.25
        },
        {
          "name": "A5",
          "midi": 81,
          "time": 123,
          "velocity": 0.5590551181102362,
          "duration": 2.25
        },
        {
          "name": "F5",
          "midi": 77,
          "time": 123.0078125,
          "velocity": 0.5590551181102362,
          "duration": 2.171875
        },
        {
          "name": "A4",
          "midi": 69,
          "time": 125.015625,
          "velocity": 0.5433070866141733,
          "duration": 0.75
        },
        {
          "name": "D5",
          "midi": 74,
          "time": 125.109375,
          "velocity": 0.5433070866141733,
          "duration": 0.75
        },
        {
          "name": "F5",
          "midi": 77,
          "time": 125.203125,
          "velocity": 0.5433070866141733,
          "duration": 0.75
        },
        {
          "name": "A5",
          "midi": 81,
          "time": 125.25,
          "velocity": 0.7322834645669292,
          "duration": 0.75
        },
        {
          "name": "D6",
          "midi": 86,
          "time": 126,
          "velocity": 0.7874015748031497,
          "duration": 0.375
        },
        {
          "name": "D5",
          "midi": 74,
          "time": 126,
          "velocity": 0.5984251968503937,
          "duration": 0.375
        },
        {
          "name": "F6",
          "midi": 89,
          "time": 126.75,
          "velocity": 0.7874015748031497,
          "duration": 0.375
        },
        {
          "name": "F5",
          "midi": 77,
          "time": 126.75,
          "velocity": 0.5984251968503937,
          "duration": 0.375
        },
        {
          "name": "A5",
          "midi": 81,
          "time": 127.3125,
          "velocity": 0.6535433070866141,
          "duration": 1.5
        },
        {
          "name": "D6",
          "midi": 86,
          "time": 127.359375,
          "velocity": 0.6535433070866141,
          "duration": 1.5
        },
        {
          "name": "F6",
          "midi": 89,
          "time": 127.40625,
          "velocity": 0.6535433070866141,
          "duration": 1.5
        },
        {
          "name": "A6",
          "midi": 93,
          "time": 127.5,
          "velocity": 0.8740157480314961,
          "duration": 1.5
        },
        {
          "name": "G6",
          "midi": 91,
          "time": 129,
          "velocity": 0.7952755905511811,
          "duration": 1.5
        },
        {
          "name": "G5",
          "midi": 79,
          "time": 129,
          "velocity": 0.6062992125984252,
          "duration": 1.5
        },
        {
          "name": "F5",
          "midi": 77,
          "time": 130.5,
          "velocity": 0.6220472440944882,
          "duration": 0.375
        },
        {
          "name": "F6",
          "midi": 89,
          "time": 130.5,
          "velocity": 0.8110236220472441,
          "duration": 0.375
        },
        {
          "name": "E5",
          "midi": 76,
          "time": 130.875,
          "velocity": 0.6220472440944882,
          "duration": 0.375
        },
        {
          "name": "E6",
          "midi": 88,
          "time": 130.875,
          "velocity": 0.8110236220472441,
          "duration": 0.375
        },
        {
          "name": "D#5",
          "midi": 75,
          "time": 131.25,
          "velocity": 0.6220472440944882,
          "duration": 0.375
        },
        {
          "name": "D#6",
          "midi": 87,
          "time": 131.25,
          "velocity": 0.8110236220472441,
          "duration": 0.375
        },
        {
          "name": "E6",
          "midi": 88,
          "time": 131.625,
          "velocity": 0.8110236220472441,
          "duration": 0.375
        },
        {
          "name": "E5",
          "midi": 76,
          "time": 131.625,
          "velocity": 0.6220472440944882,
          "duration": 0.375
        },
        {
          "name": "G6",
          "midi": 91,
          "time": 132,
          "velocity": 0.9133858267716536,
          "duration": 1.5
        },
        {
          "name": "G5",
          "midi": 79,
          "time": 132,
          "velocity": 0.7244094488188977,
          "duration": 1.5
        },
        {
          "name": "C6",
          "midi": 84,
          "time": 132,
          "velocity": 0.7244094488188977,
          "duration": 1.5
        },
        {
          "name": "A5",
          "midi": 81,
          "time": 132,
          "velocity": 0.7244094488188977,
          "duration": 1.5
        },
        {
          "name": "F6",
          "midi": 89,
          "time": 133.5,
          "velocity": 0.7165354330708661,
          "duration": 1.5
        },
        {
          "name": "F5",
          "midi": 77,
          "time": 133.5,
          "velocity": 0.5275590551181102,
          "duration": 1.3125
        },
        {
          "name": "E5",
          "midi": 76,
          "time": 134.8125,
          "velocity": 0.5275590551181102,
          "duration": 0.5625
        },
        {
          "name": "F5",
          "midi": 77,
          "time": 134.859375,
          "velocity": 0.5118110236220472,
          "duration": 0.515625
        },
        {
          "name": "A5",
          "midi": 81,
          "time": 134.90625,
          "velocity": 0.5118110236220472,
          "duration": 0.46875
        },
        {
          "name": "E6",
          "midi": 88,
          "time": 135,
          "velocity": 0.7007874015748031,
          "duration": 0.375
        },
        {
          "name": "D5",
          "midi": 74,
          "time": 135.375,
          "velocity": 0.5433070866141733,
          "duration": 0.375
        },
        {
          "name": "D6",
          "midi": 86,
          "time": 135.375,
          "velocity": 0.7322834645669292,
          "duration": 0.375
        },
        {
          "name": "C#5",
          "midi": 73,
          "time": 135.75,
          "velocity": 0.5433070866141733,
          "duration": 0.375
        },
        {
          "name": "C#6",
          "midi": 85,
          "time": 135.75,
          "velocity": 0.7322834645669292,
          "duration": 0.375
        },
        {
          "name": "D5",
          "midi": 74,
          "time": 136.125,
          "velocity": 0.5433070866141733,
          "duration": 0.375
        },
        {
          "name": "D6",
          "midi": 86,
          "time": 136.125,
          "velocity": 0.7322834645669292,
          "duration": 0.375
        },
        {
          "name": "A5",
          "midi": 81,
          "time": 136.5,
          "velocity": 0.6614173228346457,
          "duration": 1.125
        },
        {
          "name": "F5",
          "midi": 77,
          "time": 136.5,
          "velocity": 0.6614173228346457,
          "duration": 1.125
        },
        {
          "name": "D6",
          "midi": 86,
          "time": 136.5,
          "velocity": 0.8503937007874016,
          "duration": 1.125
        },
        {
          "name": "D5",
          "midi": 74,
          "time": 136.5,
          "velocity": 0.6614173228346457,
          "duration": 1.125
        },
        {
          "name": "C6",
          "midi": 84,
          "time": 137.625,
          "velocity": 0.84251968503937,
          "duration": 0.375
        },
        {
          "name": "C5",
          "midi": 72,
          "time": 137.625,
          "velocity": 0.6535433070866141,
          "duration": 0.375
        },
        {
          "name": "A#4",
          "midi": 70,
          "time": 138,
          "velocity": 0.6535433070866141,
          "duration": 0.75
        },
        {
          "name": "A#5",
          "midi": 82,
          "time": 138,
          "velocity": 0.84251968503937,
          "duration": 0.75
        },
        {
          "name": "E5",
          "midi": 76,
          "time": 138.75,
          "velocity": 0.7637795275590551,
          "duration": 1.125
        },
        {
          "name": "C#5",
          "midi": 73,
          "time": 138.75,
          "velocity": 0.7637795275590551,
          "duration": 1.125
        },
        {
          "name": "A4",
          "midi": 69,
          "time": 138.75,
          "velocity": 0.7637795275590551,
          "duration": 1.125
        },
        {
          "name": "A5",
          "midi": 81,
          "time": 138.75,
          "velocity": 0.889763779527559,
          "duration": 1.125
        },
        {
          "name": "B4",
          "midi": 71,
          "time": 139.875,
          "velocity": 0.7165354330708661,
          "duration": 0.375
        },
        {
          "name": "B5",
          "midi": 83,
          "time": 139.875,
          "velocity": 0.905511811023622,
          "duration": 0.375
        },
        {
          "name": "C#5",
          "midi": 73,
          "time": 140.25,
          "velocity": 0.7795275590551181,
          "duration": 0.75
        },
        {
          "name": "C#6",
          "midi": 85,
          "time": 140.25,
          "velocity": 0.968503937007874,
          "duration": 0.75
        },
        {
          "name": "D5",
          "midi": 74,
          "time": 140.8125,
          "velocity": 0.84251968503937,
          "duration": 2.25
        },
        {
          "name": "F#5",
          "midi": 78,
          "time": 140.859375,
          "velocity": 0.84251968503937,
          "duration": 2.25
        },
        {
          "name": "A5",
          "midi": 81,
          "time": 140.90625,
          "velocity": 0.84251968503937,
          "duration": 2.25
        },
        {
          "name": "D6",
          "midi": 86,
          "time": 141,
          "velocity": 1,
          "duration": 2.25
        },
        {
          "name": "D3",
          "midi": 50,
          "time": 141.75,
          "velocity": 0.3858267716535433,
          "duration": 0.2265625
        },
        {
          "name": "E3",
          "midi": 52,
          "time": 141.9375,
          "velocity": 0.3858267716535433,
          "duration": 0.1796875
        },
        {
          "name": "F3",
          "midi": 53,
          "time": 142.03125,
          "velocity": 0.3858267716535433,
          "duration": 0.1796875
        },
        {
          "name": "F#3",
          "midi": 54,
          "time": 142.1171875,
          "velocity": 0.41732283464566927,
          "duration": 0.1640625
        },
        {
          "name": "A3",
          "midi": 57,
          "time": 142.5,
          "velocity": 0.47244094488188976,
          "duration": 0.3984375
        },
        {
          "name": "A4",
          "midi": 69,
          "time": 143.25,
          "velocity": 0.7086614173228346,
          "duration": 0.375
        },
        {
          "name": "F#4",
          "midi": 66,
          "time": 143.25,
          "velocity": 0.7086614173228346,
          "duration": 0.375
        },
        {
          "name": "D4",
          "midi": 62,
          "time": 143.25,
          "velocity": 0.7086614173228346,
          "duration": 0.375
        },
        {
          "name": "D5",
          "midi": 74,
          "time": 143.25,
          "velocity": 0.7086614173228346,
          "duration": 0.375
        },
        {
          "name": "D5",
          "midi": 74,
          "time": 148.5,
          "velocity": 0.5590551181102362,
          "duration": 0.75
        },
        {
          "name": "D#5",
          "midi": 75,
          "time": 149.25,
          "velocity": 0.5354330708661418,
          "duration": 1.5
        },
        {
          "name": "D5",
          "midi": 74,
          "time": 150.75,
          "velocity": 0.5039370078740157,
          "duration": 0.75
        },
        {
          "name": "C5",
          "midi": 72,
          "time": 151.5,
          "velocity": 0.47244094488188976,
          "duration": 0.75
        },
        {
          "name": "D#4",
          "midi": 63,
          "time": 151.5,
          "velocity": 0.47244094488188976,
          "duration": 0.75
        },
        {
          "name": "A#4",
          "midi": 70,
          "time": 152.25,
          "velocity": 0.47244094488188976,
          "duration": 0.75
        },
        {
          "name": "D4",
          "midi": 62,
          "time": 152.25,
          "velocity": 0.47244094488188976,
          "duration": 0.75
        },
        {
          "name": "A4",
          "midi": 69,
          "time": 153,
          "velocity": 0.5039370078740157,
          "duration": 0.75
        },
        {
          "name": "C4",
          "midi": 60,
          "time": 153,
          "velocity": 0.5039370078740157,
          "duration": 0.75
        },
        {
          "name": "D4",
          "midi": 62,
          "time": 153.75,
          "velocity": 0.5039370078740157,
          "duration": 0.75
        },
        {
          "name": "A#4",
          "midi": 70,
          "time": 153.75,
          "velocity": 0.5039370078740157,
          "duration": 0.75
        },
        {
          "name": "C5",
          "midi": 72,
          "time": 154.5,
          "velocity": 0.5354330708661418,
          "duration": 0.75
        },
        {
          "name": "D5",
          "midi": 74,
          "time": 155.25,
          "velocity": 0.7874015748031497,
          "duration": 0.75
        },
        {
          "name": "C4",
          "midi": 60,
          "time": 156,
          "velocity": 0.5039370078740157,
          "duration": 1.5
        },
        {
          "name": "D4",
          "midi": 62,
          "time": 156,
          "velocity": 0.5039370078740157,
          "duration": 1.5
        },
        {
          "name": "F4",
          "midi": 65,
          "time": 156,
          "velocity": 0.5039370078740157,
          "duration": 1.5
        },
        {
          "name": "F4",
          "midi": 65,
          "time": 157.5,
          "velocity": 0.5039370078740157,
          "duration": 0.75
        },
        {
          "name": "D#5",
          "midi": 75,
          "time": 158.25,
          "velocity": 0.6220472440944882,
          "duration": 1.5
        },
        {
          "name": "G4",
          "midi": 67,
          "time": 158.25,
          "velocity": 0.5039370078740157,
          "duration": 0.75
        },
        {
          "name": "F4",
          "midi": 65,
          "time": 159.375,
          "velocity": 0.4015748031496063,
          "duration": 0.375
        },
        {
          "name": "D5",
          "midi": 74,
          "time": 159.75,
          "velocity": 0.5196850393700787,
          "duration": 0.75
        },
        {
          "name": "F4",
          "midi": 65,
          "time": 160.125,
          "velocity": 0.3779527559055118,
          "duration": 0.375
        },
        {
          "name": "C5",
          "midi": 72,
          "time": 160.5,
          "velocity": 0.5196850393700787,
          "duration": 0.75
        },
        {
          "name": "D#4",
          "midi": 63,
          "time": 160.5,
          "velocity": 0.3858267716535433,
          "duration": 0.75
        },
        {
          "name": "A#4",
          "midi": 70,
          "time": 161.25,
          "velocity": 0.5196850393700787,
          "duration": 0.75
        },
        {
          "name": "D4",
          "midi": 62,
          "time": 161.25,
          "velocity": 0.3858267716535433,
          "duration": 0.75
        },
        {
          "name": "D#4",
          "midi": 63,
          "time": 162,
          "velocity": 0.3858267716535433,
          "duration": 0.75
        },
        {
          "name": "C5",
          "midi": 72,
          "time": 162,
          "velocity": 0.5196850393700787,
          "duration": 0.75
        },
        {
          "name": "F4",
          "midi": 65,
          "time": 162.5625,
          "velocity": 0.5196850393700787,
          "duration": 1.453125
        },
        {
          "name": "A4",
          "midi": 69,
          "time": 162.65625,
          "velocity": 0.5196850393700787,
          "duration": 1.453125
        },
        {
          "name": "A#4",
          "midi": 70,
          "time": 162.703125,
          "velocity": 0.5196850393700787,
          "duration": 1.453125
        },
        {
          "name": "D5",
          "midi": 74,
          "time": 162.75,
          "velocity": 0.6220472440944882,
          "duration": 1.453125
        },
        {
          "name": "A#4",
          "midi": 70,
          "time": 164.25,
          "velocity": 0.41732283464566927,
          "duration": 0.375
        },
        {
          "name": "A4",
          "midi": 69,
          "time": 164.625,
          "velocity": 0.41732283464566927,
          "duration": 0.375
        },
        {
          "name": "F4",
          "midi": 65,
          "time": 165,
          "velocity": 0.41732283464566927,
          "duration": 0.375
        },
        {
          "name": "D4",
          "midi": 62,
          "time": 165.375,
          "velocity": 0.41732283464566927,
          "duration": 0.375
        },
        {
          "name": "D5",
          "midi": 74,
          "time": 166.5,
          "velocity": 0.5196850393700787,
          "duration": 0.65625
        },
        {
          "name": "D5",
          "midi": 74,
          "time": 167.25,
          "velocity": 0.5196850393700787,
          "duration": 0.328125
        },
        {
          "name": "E5",
          "midi": 76,
          "time": 167.53125,
          "velocity": 0.5196850393700787,
          "duration": 0.28125
        },
        {
          "name": "D5",
          "midi": 74,
          "time": 167.765625,
          "velocity": 0.5196850393700787,
          "duration": 0.234375
        },
        {
          "name": "C#5",
          "midi": 73,
          "time": 168,
          "velocity": 0.5196850393700787,
          "duration": 0.84375
        },
        {
          "name": "D5",
          "midi": 74,
          "time": 168.75,
          "velocity": 0.5196850393700787,
          "duration": 0.75
        },
        {
          "name": "F5",
          "midi": 77,
          "time": 169.5,
          "velocity": 0.7086614173228346,
          "duration": 0.75
        },
        {
          "name": "E5",
          "midi": 76,
          "time": 170.25,
          "velocity": 0.5196850393700787,
          "duration": 0.75
        },
        {
          "name": "D5",
          "midi": 74,
          "time": 171,
          "velocity": 0.5196850393700787,
          "duration": 0.75
        },
        {
          "name": "C#5",
          "midi": 73,
          "time": 171.75,
          "velocity": 0.6062992125984252,
          "duration": 1.546875
        },
        {
          "name": "E5",
          "midi": 76,
          "time": 173.25,
          "velocity": 0.5984251968503937,
          "duration": 0.75
        },
        {
          "name": "A4",
          "midi": 69,
          "time": 174,
          "velocity": 0.5196850393700787,
          "duration": 1.515625
        },
        {
          "name": "A4",
          "midi": 69,
          "time": 175.5703125,
          "velocity": 0.33070866141732286,
          "duration": 0.125
        },
        {
          "name": "A#4",
          "midi": 70,
          "time": 175.6875,
          "velocity": 0.4094488188976378,
          "duration": 0.125
        },
        {
          "name": "A4",
          "midi": 69,
          "time": 175.8125,
          "velocity": 0.4251968503937008,
          "duration": 0.1484375
        },
        {
          "name": "G#4",
          "midi": 68,
          "time": 175.953125,
          "velocity": 0.48031496062992124,
          "duration": 0.1484375
        },
        {
          "name": "A4",
          "midi": 69,
          "time": 176.1015625,
          "velocity": 0.5196850393700787,
          "duration": 1.2734375
        },
        {
          "name": "A5",
          "midi": 81,
          "time": 176.25,
          "velocity": 0.6692913385826772,
          "duration": 1.5
        },
        {
          "name": "A4",
          "midi": 69,
          "time": 177.375,
          "velocity": 0.5196850393700787,
          "duration": 0.8984375
        },
        {
          "name": "A5",
          "midi": 81,
          "time": 177.75,
          "velocity": 0.6771653543307087,
          "duration": 0.7109375
        },
        {
          "name": "A4",
          "midi": 69,
          "time": 178.3125,
          "velocity": 0.5039370078740157,
          "duration": 0.9453125
        },
        {
          "name": "D5",
          "midi": 74,
          "time": 178.359375,
          "velocity": 0.5039370078740157,
          "duration": 0.8984375
        },
        {
          "name": "F5",
          "midi": 77,
          "time": 178.40625,
          "velocity": 0.47244094488188976,
          "duration": 0.8515625
        },
        {
          "name": "A5",
          "midi": 81,
          "time": 178.5,
          "velocity": 0.6456692913385826,
          "duration": 0.7578125
        },
        {
          "name": "G5",
          "midi": 79,
          "time": 179.25,
          "velocity": 0.5039370078740157,
          "duration": 0.7578125
        },
        {
          "name": "E5",
          "midi": 76,
          "time": 179.25,
          "velocity": 0.5039370078740157,
          "duration": 0.7578125
        },
        {
          "name": "G4",
          "midi": 67,
          "time": 179.625,
          "velocity": 0.4094488188976378,
          "duration": 0.7578125
        },
        {
          "name": "F5",
          "midi": 77,
          "time": 180,
          "velocity": 0.5039370078740157,
          "duration": 0.7578125
        },
        {
          "name": "D5",
          "midi": 74,
          "time": 180,
          "velocity": 0.5039370078740157,
          "duration": 0.7578125
        },
        {
          "name": "A4",
          "midi": 69,
          "time": 180.375,
          "velocity": 0.48031496062992124,
          "duration": 0.3828125
        },
        {
          "name": "E5",
          "midi": 76,
          "time": 180.75,
          "velocity": 0.5905511811023622,
          "duration": 1.1328125
        },
        {
          "name": "A#4",
          "midi": 70,
          "time": 180.75,
          "velocity": 0.5039370078740157,
          "duration": 1.1328125
        },
        {
          "name": "G4",
          "midi": 67,
          "time": 181.875,
          "velocity": 0.5196850393700787,
          "duration": 0.3828125
        },
        {
          "name": "C#5",
          "midi": 73,
          "time": 182.25,
          "velocity": 0.5748031496062992,
          "duration": 0.3828125
        },
        {
          "name": "A#4",
          "midi": 70,
          "time": 182.625,
          "velocity": 0.6141732283464567,
          "duration": 0.3828125
        },
        {
          "name": "G4",
          "midi": 67,
          "time": 183,
          "velocity": 0.6456692913385826,
          "duration": 0.3828125
        },
        {
          "name": "E4",
          "midi": 64,
          "time": 183.375,
          "velocity": 0.6850393700787402,
          "duration": 0.3828125
        },
        {
          "name": "C#4",
          "midi": 61,
          "time": 183.75,
          "velocity": 0.6299212598425197,
          "duration": 0.3828125
        },
        {
          "name": "A4",
          "midi": 69,
          "time": 184.5,
          "velocity": 0.6614173228346457,
          "duration": 0.7578125
        },
        {
          "name": "F#5",
          "midi": 78,
          "time": 185.25,
          "velocity": 0.7401574803149606,
          "duration": 1.4609375
        },
        {
          "name": "F#4",
          "midi": 66,
          "time": 185.25,
          "velocity": 0.7401574803149606,
          "duration": 1.4609375
        },
        {
          "name": "F#4",
          "midi": 66,
          "time": 186.75,
          "velocity": 0.6299212598425197,
          "duration": 0.75
        },
        {
          "name": "F#5",
          "midi": 78,
          "time": 186.75,
          "velocity": 0.6299212598425197,
          "duration": 0.75
        },
        {
          "name": "F#5",
          "midi": 78,
          "time": 187.5,
          "velocity": 0.6299212598425197,
          "duration": 0.7578125
        },
        {
          "name": "F#4",
          "midi": 66,
          "time": 187.5,
          "velocity": 0.6299212598425197,
          "duration": 0.7578125
        },
        {
          "name": "G4",
          "midi": 67,
          "time": 188.25,
          "velocity": 0.6141732283464567,
          "duration": 0.7578125
        },
        {
          "name": "G5",
          "midi": 79,
          "time": 188.25,
          "velocity": 0.6141732283464567,
          "duration": 0.7578125
        },
        {
          "name": "A5",
          "midi": 81,
          "time": 189,
          "velocity": 0.6141732283464567,
          "duration": 0.7578125
        },
        {
          "name": "A4",
          "midi": 69,
          "time": 189.046875,
          "velocity": 0.6141732283464567,
          "duration": 0.7578125
        },
        {
          "name": "A#5",
          "midi": 82,
          "time": 189.75,
          "velocity": 0.6929133858267716,
          "duration": 2.2578125
        },
        {
          "name": "A#4",
          "midi": 70,
          "time": 189.75,
          "velocity": 0.6929133858267716,
          "duration": 2.2109375
        },
        {
          "name": "G5",
          "midi": 79,
          "time": 189.75,
          "velocity": 0.6929133858267716,
          "duration": 2.2578125
        },
        {
          "name": "D5",
          "midi": 74,
          "time": 189.75,
          "velocity": 0.6929133858267716,
          "duration": 2.2578125
        },
        {
          "name": "A#3",
          "midi": 58,
          "time": 191.25,
          "velocity": 0.7637795275590551,
          "duration": 0.7109375
        },
        {
          "name": "G3",
          "midi": 55,
          "time": 192,
          "velocity": 0.7637795275590551,
          "duration": 2.2109375
        },
        {
          "name": "E5",
          "midi": 76,
          "time": 194.25,
          "velocity": 0.5748031496062992,
          "duration": 1.4609375
        },
        {
          "name": "E4",
          "midi": 64,
          "time": 194.25,
          "velocity": 0.5748031496062992,
          "duration": 1.4609375
        },
        {
          "name": "E5",
          "midi": 76,
          "time": 195.75,
          "velocity": 0.6535433070866141,
          "duration": 0.7109375
        },
        {
          "name": "E4",
          "midi": 64,
          "time": 195.75,
          "velocity": 0.6535433070866141,
          "duration": 0.7109375
        },
        {
          "name": "E5",
          "midi": 76,
          "time": 196.5,
          "velocity": 0.6771653543307087,
          "duration": 0.7578125
        },
        {
          "name": "A#4",
          "midi": 70,
          "time": 196.5,
          "velocity": 0.6771653543307087,
          "duration": 0.7109375
        },
        {
          "name": "C5",
          "midi": 72,
          "time": 196.5,
          "velocity": 0.6771653543307087,
          "duration": 0.7578125
        },
        {
          "name": "E4",
          "midi": 64,
          "time": 196.5,
          "velocity": 0.6771653543307087,
          "duration": 0.7578125
        },
        {
          "name": "F4",
          "midi": 65,
          "time": 197.25,
          "velocity": 0.7165354330708661,
          "duration": 0.7578125
        },
        {
          "name": "F5",
          "midi": 77,
          "time": 197.25,
          "velocity": 0.7165354330708661,
          "duration": 0.7578125
        },
        {
          "name": "A#4",
          "midi": 70,
          "time": 197.25,
          "velocity": 0.7165354330708661,
          "duration": 0.7109375
        },
        {
          "name": "D5",
          "midi": 74,
          "time": 197.25,
          "velocity": 0.7165354330708661,
          "duration": 0.7578125
        },
        {
          "name": "G4",
          "midi": 67,
          "time": 198,
          "velocity": 0.7480314960629921,
          "duration": 0.7578125
        },
        {
          "name": "A#4",
          "midi": 70,
          "time": 198,
          "velocity": 0.7480314960629921,
          "duration": 0.7578125
        },
        {
          "name": "G5",
          "midi": 79,
          "time": 198,
          "velocity": 0.7480314960629921,
          "duration": 0.7578125
        },
        {
          "name": "E5",
          "midi": 76,
          "time": 198,
          "velocity": 0.7480314960629921,
          "duration": 0.7578125
        },
        {
          "name": "A4",
          "midi": 69,
          "time": 198.515625,
          "velocity": 0.8110236220472441,
          "duration": 2.4765625
        },
        {
          "name": "C5",
          "midi": 72,
          "time": 198.609375,
          "velocity": 0.8110236220472441,
          "duration": 2.3828125
        },
        {
          "name": "F5",
          "midi": 77,
          "time": 198.65625,
          "velocity": 0.8110236220472441,
          "duration": 3.0859375
        },
        {
          "name": "A5",
          "midi": 81,
          "time": 198.75,
          "velocity": 0.8110236220472441,
          "duration": 2.9921875
        },
        {
          "name": "C5",
          "midi": 72,
          "time": 201,
          "velocity": 0.6614173228346457,
          "duration": 0.7109375
        },
        {
          "name": "G4",
          "midi": 67,
          "time": 201,
          "velocity": 0.6614173228346457,
          "duration": 0.7109375
        },
        {
          "name": "A4",
          "midi": 69,
          "time": 201,
          "velocity": 0.6614173228346457,
          "duration": 0.7109375
        },
        {
          "name": "G4",
          "midi": 67,
          "time": 201.75,
          "velocity": 0.6929133858267716,
          "duration": 0.7578125
        },
        {
          "name": "G5",
          "midi": 79,
          "time": 201.75,
          "velocity": 0.6929133858267716,
          "duration": 0.7578125
        },
        {
          "name": "F4",
          "midi": 65,
          "time": 202.5,
          "velocity": 0.6929133858267716,
          "duration": 0.7578125
        },
        {
          "name": "F5",
          "midi": 77,
          "time": 202.5,
          "velocity": 0.6929133858267716,
          "duration": 0.7578125
        },
        {
          "name": "E4",
          "midi": 64,
          "time": 203.015625,
          "velocity": 0.6929133858267716,
          "duration": 0.7578125
        },
        {
          "name": "G4",
          "midi": 67,
          "time": 203.109375,
          "velocity": 0.6771653543307087,
          "duration": 0.7578125
        },
        {
          "name": "C5",
          "midi": 72,
          "time": 203.1875,
          "velocity": 0.6771653543307087,
          "duration": 0.7578125
        },
        {
          "name": "E5",
          "midi": 76,
          "time": 203.25,
          "velocity": 0.6299212598425197,
          "duration": 0.7578125
        },
        {
          "name": "D#4",
          "midi": 63,
          "time": 204,
          "velocity": 0.6771653543307087,
          "duration": 0.7578125
        },
        {
          "name": "D#5",
          "midi": 75,
          "time": 204,
          "velocity": 0.6771653543307087,
          "duration": 0.7578125
        },
        {
          "name": "E4",
          "midi": 64,
          "time": 204.75,
          "velocity": 0.6456692913385826,
          "duration": 0.7578125
        },
        {
          "name": "E5",
          "midi": 76,
          "time": 204.75,
          "velocity": 0.6456692913385826,
          "duration": 0.7578125
        },
        {
          "name": "G4",
          "midi": 67,
          "time": 205.2890625,
          "velocity": 0.6614173228346457,
          "duration": 0.7578125
        },
        {
          "name": "A#4",
          "midi": 70,
          "time": 205.3359375,
          "velocity": 0.6929133858267716,
          "duration": 0.7578125
        },
        {
          "name": "D5",
          "midi": 74,
          "time": 205.4140625,
          "velocity": 0.7322834645669292,
          "duration": 0.7578125
        },
        {
          "name": "G5",
          "midi": 79,
          "time": 205.5,
          "velocity": 0.7322834645669292,
          "duration": 0.7578125
        },
        {
          "name": "F4",
          "midi": 65,
          "time": 206.25,
          "velocity": 0.6299212598425197,
          "duration": 0.7578125
        },
        {
          "name": "F5",
          "midi": 77,
          "time": 206.25,
          "velocity": 0.6299212598425197,
          "duration": 0.7578125
        },
        {
          "name": "G#4",
          "midi": 68,
          "time": 206.25,
          "velocity": 0.6299212598425197,
          "duration": 0.7109375
        },
        {
          "name": "B4",
          "midi": 71,
          "time": 206.25,
          "velocity": 0.6299212598425197,
          "duration": 0.7109375
        },
        {
          "name": "B4",
          "midi": 71,
          "time": 207,
          "velocity": 0.6220472440944882,
          "duration": 0.7578125
        },
        {
          "name": "E4",
          "midi": 64,
          "time": 207,
          "velocity": 0.6220472440944882,
          "duration": 0.7578125
        },
        {
          "name": "E5",
          "midi": 76,
          "time": 207,
          "velocity": 0.6220472440944882,
          "duration": 0.7578125
        },
        {
          "name": "B4",
          "midi": 71,
          "time": 207,
          "velocity": 0.6220472440944882,
          "duration": 0.7578125
        },
        {
          "name": "G#4",
          "midi": 68,
          "time": 207,
          "velocity": 0.6220472440944882,
          "duration": 0.6640625
        },
        {
          "name": "D4",
          "midi": 62,
          "time": 207.5625,
          "velocity": 0.6456692913385826,
          "duration": 0.7578125
        },
        {
          "name": "F4",
          "midi": 65,
          "time": 207.65625,
          "velocity": 0.6456692913385826,
          "duration": 0.7578125
        },
        {
          "name": "G#4",
          "midi": 68,
          "time": 207.703125,
          "velocity": 0.6456692913385826,
          "duration": 0.7578125
        },
        {
          "name": "D5",
          "midi": 74,
          "time": 207.75,
          "velocity": 0.6456692913385826,
          "duration": 0.7578125
        },
        {
          "name": "C#4",
          "midi": 61,
          "time": 208.5,
          "velocity": 0.6456692913385826,
          "duration": 0.7578125
        },
        {
          "name": "C#5",
          "midi": 73,
          "time": 208.5,
          "velocity": 0.6456692913385826,
          "duration": 0.7578125
        },
        {
          "name": "A4",
          "midi": 69,
          "time": 208.5,
          "velocity": 0.6456692913385826,
          "duration": 0.7578125
        },
        {
          "name": "F4",
          "midi": 65,
          "time": 208.5,
          "velocity": 0.6456692913385826,
          "duration": 0.7578125
        },
        {
          "name": "D4",
          "midi": 62,
          "time": 209.25,
          "velocity": 0.6771653543307087,
          "duration": 0.7578125
        },
        {
          "name": "D5",
          "midi": 74,
          "time": 209.25,
          "velocity": 0.6771653543307087,
          "duration": 0.7578125
        },
        {
          "name": "E5",
          "midi": 76,
          "time": 210,
          "velocity": 0.6771653543307087,
          "duration": 1.5078125
        },
        {
          "name": "E4",
          "midi": 64,
          "time": 210,
          "velocity": 0.6771653543307087,
          "duration": 1.5078125
        },
        {
          "name": "A4",
          "midi": 69,
          "time": 210,
          "velocity": 0.6771653543307087,
          "duration": 1.4609375
        },
        {
          "name": "A4",
          "midi": 69,
          "time": 211.5,
          "velocity": 0.6614173228346457,
          "duration": 0.7578125
        },
        {
          "name": "A5",
          "midi": 81,
          "time": 211.5,
          "velocity": 0.6614173228346457,
          "duration": 0.7109375
        },
        {
          "name": "C6",
          "midi": 84,
          "time": 212.25,
          "velocity": 0.9133858267716536,
          "duration": 1.5078125
        },
        {
          "name": "C5",
          "midi": 72,
          "time": 212.25,
          "velocity": 0.9133858267716536,
          "duration": 1.5078125
        },
        {
          "name": "D#5",
          "midi": 75,
          "time": 212.25,
          "velocity": 0.9133858267716536,
          "duration": 1.4609375
        },
        {
          "name": "A5",
          "midi": 81,
          "time": 212.25,
          "velocity": 0.9133858267716536,
          "duration": 1.5078125
        },
        {
          "name": "A#4",
          "midi": 70,
          "time": 213.75,
          "velocity": 0.8740157480314961,
          "duration": 0.7578125
        },
        {
          "name": "D#5",
          "midi": 75,
          "time": 213.75,
          "velocity": 0.8740157480314961,
          "duration": 0.7578125
        },
        {
          "name": "F#5",
          "midi": 78,
          "time": 213.75,
          "velocity": 0.8740157480314961,
          "duration": 0.7109375
        },
        {
          "name": "A#5",
          "midi": 82,
          "time": 213.75,
          "velocity": 0.8740157480314961,
          "duration": 0.7578125
        },
        {
          "name": "F#5",
          "midi": 78,
          "time": 214.5,
          "velocity": 0.8582677165354331,
          "duration": 1.5078125
        },
        {
          "name": "A5",
          "midi": 81,
          "time": 214.5,
          "velocity": 0.8582677165354331,
          "duration": 1.5078125
        },
        {
          "name": "C5",
          "midi": 72,
          "time": 214.5,
          "velocity": 0.8582677165354331,
          "duration": 1.3671875
        },
        {
          "name": "A4",
          "midi": 69,
          "time": 214.5,
          "velocity": 0.8582677165354331,
          "duration": 1.3671875
        },
        {
          "name": "G4",
          "midi": 67,
          "time": 215.7890625,
          "velocity": 0.8740157480314961,
          "duration": 0.7578125
        },
        {
          "name": "C5",
          "midi": 72,
          "time": 215.875,
          "velocity": 0.8740157480314961,
          "duration": 0.8046875
        },
        {
          "name": "D#5",
          "midi": 75,
          "time": 215.9375,
          "velocity": 0.8582677165354331,
          "duration": 0.7578125
        },
        {
          "name": "G5",
          "midi": 79,
          "time": 216,
          "velocity": 0.8582677165354331,
          "duration": 0.7109375
        },
        {
          "name": "F#4",
          "midi": 66,
          "time": 216.75,
          "velocity": 0.8582677165354331,
          "duration": 0.3828125
        },
        {
          "name": "D5",
          "midi": 74,
          "time": 216.75,
          "velocity": 0.8582677165354331,
          "duration": 0.3828125
        },
        {
          "name": "F#5",
          "midi": 78,
          "time": 216.75,
          "velocity": 0.8582677165354331,
          "duration": 0.3828125
        },
        {
          "name": "A4",
          "midi": 69,
          "time": 216.75,
          "velocity": 0.8582677165354331,
          "duration": 0.3359375
        },
        {
          "name": "A5",
          "midi": 81,
          "time": 217.125,
          "velocity": 0.8740157480314961,
          "duration": 0.3828125
        },
        {
          "name": "A4",
          "midi": 69,
          "time": 217.125,
          "velocity": 0.8740157480314961,
          "duration": 0.3359375
        },
        {
          "name": "C6",
          "midi": 84,
          "time": 217.5,
          "velocity": 0.8582677165354331,
          "duration": 0.2890625
        },
        {
          "name": "C5",
          "midi": 72,
          "time": 217.5,
          "velocity": 0.8582677165354331,
          "duration": 0.2890625
        },
        {
          "name": "D6",
          "midi": 86,
          "time": 217.78125,
          "velocity": 0.8582677165354331,
          "duration": 0.2890625
        },
        {
          "name": "D5",
          "midi": 74,
          "time": 217.78125,
          "velocity": 0.8582677165354331,
          "duration": 0.2890625
        },
        {
          "name": "C6",
          "midi": 84,
          "time": 218.015625,
          "velocity": 0.8740157480314961,
          "duration": 0.2890625
        },
        {
          "name": "C5",
          "midi": 72,
          "time": 218.015625,
          "velocity": 0.8740157480314961,
          "duration": 0.2890625
        },
        {
          "name": "A#4",
          "midi": 70,
          "time": 218.25,
          "velocity": 0.9448818897637795,
          "duration": 1.4609375
        },
        {
          "name": "A#5",
          "midi": 82,
          "time": 218.25,
          "velocity": 0.9448818897637795,
          "duration": 1.4609375
        },
        {
          "name": "A#4",
          "midi": 70,
          "time": 219.75,
          "velocity": 0.7637795275590551,
          "duration": 0.2421875
        },
        {
          "name": "A#5",
          "midi": 82,
          "time": 219.75,
          "velocity": 0.7637795275590551,
          "duration": 0.2421875
        },
        {
          "name": "C5",
          "midi": 72,
          "time": 219.984375,
          "velocity": 0.7952755905511811,
          "duration": 0.2890625
        },
        {
          "name": "C6",
          "midi": 84,
          "time": 219.984375,
          "velocity": 0.7952755905511811,
          "duration": 0.2890625
        },
        {
          "name": "A#5",
          "midi": 82,
          "time": 220.21875,
          "velocity": 0.7952755905511811,
          "duration": 0.2890625
        },
        {
          "name": "A#4",
          "midi": 70,
          "time": 220.21875,
          "velocity": 0.7952755905511811,
          "duration": 0.2890625
        },
        {
          "name": "A5",
          "midi": 81,
          "time": 220.5,
          "velocity": 0.7952755905511811,
          "duration": 1.5078125
        },
        {
          "name": "A4",
          "midi": 69,
          "time": 220.5,
          "velocity": 0.7952755905511811,
          "duration": 1.5078125
        },
        {
          "name": "G5",
          "midi": 79,
          "time": 222,
          "velocity": 0.7637795275590551,
          "duration": 0.2890625
        },
        {
          "name": "G4",
          "midi": 67,
          "time": 222,
          "velocity": 0.7637795275590551,
          "duration": 0.2890625
        },
        {
          "name": "A5",
          "midi": 81,
          "time": 222.234375,
          "velocity": 0.7637795275590551,
          "duration": 0.2890625
        },
        {
          "name": "A4",
          "midi": 69,
          "time": 222.234375,
          "velocity": 0.7637795275590551,
          "duration": 0.2890625
        },
        {
          "name": "G4",
          "midi": 67,
          "time": 222.46875,
          "velocity": 0.7795275590551181,
          "duration": 0.2890625
        },
        {
          "name": "G5",
          "midi": 79,
          "time": 222.46875,
          "velocity": 0.7795275590551181,
          "duration": 0.2890625
        },
        {
          "name": "F#4",
          "midi": 66,
          "time": 222.75,
          "velocity": 0.7795275590551181,
          "duration": 1.5078125
        },
        {
          "name": "F#5",
          "midi": 78,
          "time": 222.75,
          "velocity": 0.7795275590551181,
          "duration": 1.5078125
        },
        {
          "name": "D#5",
          "midi": 75,
          "time": 224.25,
          "velocity": 0.952755905511811,
          "duration": 0.2890625
        },
        {
          "name": "D#4",
          "midi": 63,
          "time": 224.25,
          "velocity": 0.952755905511811,
          "duration": 0.2890625
        },
        {
          "name": "F#4",
          "midi": 66,
          "time": 224.484375,
          "velocity": 0.952755905511811,
          "duration": 0.2890625
        },
        {
          "name": "F#5",
          "midi": 78,
          "time": 224.484375,
          "velocity": 0.952755905511811,
          "duration": 0.2890625
        },
        {
          "name": "D#5",
          "midi": 75,
          "time": 224.71875,
          "velocity": 0.952755905511811,
          "duration": 0.2890625
        },
        {
          "name": "D#4",
          "midi": 63,
          "time": 224.71875,
          "velocity": 0.952755905511811,
          "duration": 0.2890625
        },
        {
          "name": "A4",
          "midi": 69,
          "time": 225,
          "velocity": 0.968503937007874,
          "duration": 0.7578125
        },
        {
          "name": "F#4",
          "midi": 66,
          "time": 225,
          "velocity": 0.968503937007874,
          "duration": 0.7109375
        },
        {
          "name": "D5",
          "midi": 74,
          "time": 225,
          "velocity": 0.968503937007874,
          "duration": 0.7578125
        },
        {
          "name": "D4",
          "midi": 62,
          "time": 225,
          "velocity": 0.968503937007874,
          "duration": 0.7578125
        },
        {
          "name": "F#5",
          "midi": 78,
          "time": 225.75,
          "velocity": 0.9133858267716536,
          "duration": 0.7578125
        },
        {
          "name": "F#4",
          "midi": 66,
          "time": 225.75,
          "velocity": 0.9133858267716536,
          "duration": 0.7578125
        },
        {
          "name": "A#4",
          "midi": 70,
          "time": 226.5,
          "velocity": 0.937007874015748,
          "duration": 0.7578125
        },
        {
          "name": "A#5",
          "midi": 82,
          "time": 226.5,
          "velocity": 0.937007874015748,
          "duration": 0.7109375
        },
        {
          "name": "D5",
          "midi": 74,
          "time": 227.25,
          "velocity": 1,
          "duration": 1.4609375
        },
        {
          "name": "A#5",
          "midi": 82,
          "time": 227.25,
          "velocity": 1,
          "duration": 1.4609375
        },
        {
          "name": "G5",
          "midi": 79,
          "time": 227.25,
          "velocity": 1,
          "duration": 1.4609375
        },
        {
          "name": "D6",
          "midi": 86,
          "time": 227.25,
          "velocity": 1,
          "duration": 1.4609375
        },
        {
          "name": "D6",
          "midi": 86,
          "time": 228.75,
          "velocity": 0.7637795275590551,
          "duration": 0.7578125
        },
        {
          "name": "A#5",
          "midi": 82,
          "time": 228.75,
          "velocity": 0.7637795275590551,
          "duration": 0.7578125
        },
        {
          "name": "G5",
          "midi": 79,
          "time": 228.75,
          "velocity": 0.7637795275590551,
          "duration": 0.7578125
        },
        {
          "name": "D5",
          "midi": 74,
          "time": 228.75,
          "velocity": 0.7637795275590551,
          "duration": 0.7578125
        },
        {
          "name": "C5",
          "midi": 72,
          "time": 229.5,
          "velocity": 0.7637795275590551,
          "duration": 0.7578125
        },
        {
          "name": "F#5",
          "midi": 78,
          "time": 229.5,
          "velocity": 0.7637795275590551,
          "duration": 0.7109375
        },
        {
          "name": "C6",
          "midi": 84,
          "time": 229.5,
          "velocity": 0.7637795275590551,
          "duration": 0.7578125
        },
        {
          "name": "A#4",
          "midi": 70,
          "time": 230.25,
          "velocity": 0.7637795275590551,
          "duration": 0.3828125
        },
        {
          "name": "A#5",
          "midi": 82,
          "time": 230.25,
          "velocity": 0.7637795275590551,
          "duration": 0.3828125
        },
        {
          "name": "F#5",
          "midi": 78,
          "time": 230.25,
          "velocity": 0.7637795275590551,
          "duration": 0.3828125
        },
        {
          "name": "A5",
          "midi": 81,
          "time": 231,
          "velocity": 0.7637795275590551,
          "duration": 0.3828125
        },
        {
          "name": "A4",
          "midi": 69,
          "time": 231,
          "velocity": 0.7637795275590551,
          "duration": 0.3828125
        },
        {
          "name": "A#5",
          "midi": 82,
          "time": 231.75,
          "velocity": 0.7637795275590551,
          "duration": 2.2578125
        },
        {
          "name": "A#4",
          "midi": 70,
          "time": 231.75,
          "velocity": 0.7637795275590551,
          "duration": 2.2109375
        },
        {
          "name": "D5",
          "midi": 74,
          "time": 231.75,
          "velocity": 0.7637795275590551,
          "duration": 2.2578125
        },
        {
          "name": "G5",
          "midi": 79,
          "time": 231.75,
          "velocity": 0.7637795275590551,
          "duration": 2.2109375
        },
        {
          "name": "G4",
          "midi": 67,
          "time": 234,
          "velocity": 0.7637795275590551,
          "duration": 0.7578125
        },
        {
          "name": "A#4",
          "midi": 70,
          "time": 234,
          "velocity": 0.8346456692913385,
          "duration": 0.7109375
        },
        {
          "name": "G5",
          "midi": 79,
          "time": 234,
          "velocity": 0.8346456692913385,
          "duration": 0.7578125
        },
        {
          "name": "A#5",
          "midi": 82,
          "time": 234.75,
          "velocity": 0.8818897637795275,
          "duration": 0.3828125
        },
        {
          "name": "A#4",
          "midi": 70,
          "time": 234.75,
          "velocity": 0.8818897637795275,
          "duration": 0.3828125
        },
        {
          "name": "D5",
          "midi": 74,
          "time": 235.5,
          "velocity": 0.9291338582677166,
          "duration": 0.3828125
        },
        {
          "name": "D6",
          "midi": 86,
          "time": 235.5,
          "velocity": 0.9291338582677166,
          "duration": 0.3828125
        },
        {
          "name": "G6",
          "midi": 91,
          "time": 236.25,
          "velocity": 0.9763779527559056,
          "duration": 1.4609375
        },
        {
          "name": "G5",
          "midi": 79,
          "time": 236.25,
          "velocity": 0.9763779527559056,
          "duration": 1.4609375
        },
        {
          "name": "A#5",
          "midi": 82,
          "time": 236.25,
          "velocity": 0.9763779527559056,
          "duration": 1.4609375
        },
        {
          "name": "D6",
          "midi": 86,
          "time": 236.25,
          "velocity": 0.9763779527559056,
          "duration": 1.4609375
        },
        {
          "name": "G5",
          "midi": 79,
          "time": 237.75,
          "velocity": 0.7637795275590551,
          "duration": 0.5234375
        },
        {
          "name": "A#5",
          "midi": 82,
          "time": 237.75,
          "velocity": 0.7637795275590551,
          "duration": 0.5234375
        },
        {
          "name": "D6",
          "midi": 86,
          "time": 237.75,
          "velocity": 0.7637795275590551,
          "duration": 0.6171875
        },
        {
          "name": "G6",
          "midi": 91,
          "time": 237.75,
          "velocity": 0.7637795275590551,
          "duration": 0.6640625
        },
        {
          "name": "G5",
          "midi": 79,
          "time": 238.3125,
          "velocity": 0.7637795275590551,
          "duration": 0.7578125
        },
        {
          "name": "C6",
          "midi": 84,
          "time": 238.359375,
          "velocity": 0.7637795275590551,
          "duration": 0.7578125
        },
        {
          "name": "D#6",
          "midi": 87,
          "time": 238.453125,
          "velocity": 0.7637795275590551,
          "duration": 0.7578125
        },
        {
          "name": "G6",
          "midi": 91,
          "time": 238.5,
          "velocity": 0.7637795275590551,
          "duration": 0.7578125
        },
        {
          "name": "A6",
          "midi": 93,
          "time": 239.25,
          "velocity": 0.8818897637795275,
          "duration": 0.3828125
        },
        {
          "name": "A5",
          "midi": 81,
          "time": 239.25,
          "velocity": 0.8818897637795275,
          "duration": 0.3828125
        },
        {
          "name": "C6",
          "midi": 84,
          "time": 239.25,
          "velocity": 0.8818897637795275,
          "duration": 0.3828125
        },
        {
          "name": "F6",
          "midi": 89,
          "time": 240,
          "velocity": 0.7244094488188977,
          "duration": 0.3828125
        },
        {
          "name": "F5",
          "midi": 77,
          "time": 240,
          "velocity": 0.7244094488188977,
          "duration": 0.3828125
        },
        {
          "name": "D#5",
          "midi": 75,
          "time": 240.375,
          "velocity": 0.7244094488188977,
          "duration": 0.3828125
        },
        {
          "name": "D#6",
          "midi": 87,
          "time": 240.375,
          "velocity": 0.7244094488188977,
          "duration": 0.3828125
        },
        {
          "name": "F6",
          "midi": 89,
          "time": 240.75,
          "velocity": 0.8346456692913385,
          "duration": 0.7578125
        },
        {
          "name": "F5",
          "midi": 77,
          "time": 240.75,
          "velocity": 0.8346456692913385,
          "duration": 0.7578125
        },
        {
          "name": "A5",
          "midi": 81,
          "time": 240.75,
          "velocity": 0.8346456692913385,
          "duration": 0.7578125
        },
        {
          "name": "D6",
          "midi": 86,
          "time": 240.75,
          "velocity": 0.8346456692913385,
          "duration": 0.7578125
        },
        {
          "name": "D4",
          "midi": 62,
          "time": 241.5,
          "velocity": 0.6220472440944882,
          "duration": 0.15625
        },
        {
          "name": "F4",
          "midi": 65,
          "time": 241.6484375,
          "velocity": 0.6535433070866141,
          "duration": 0.15625
        },
        {
          "name": "A4",
          "midi": 69,
          "time": 241.796875,
          "velocity": 0.6771653543307087,
          "duration": 0.15625
        },
        {
          "name": "D5",
          "midi": 74,
          "time": 241.953125,
          "velocity": 0.7086614173228346,
          "duration": 0.15625
        },
        {
          "name": "D5",
          "midi": 74,
          "time": 242.1015625,
          "velocity": 0.7401574803149606,
          "duration": 0.15625
        },
        {
          "name": "F5",
          "midi": 77,
          "time": 242.25,
          "velocity": 0.7637795275590551,
          "duration": 0.15625
        },
        {
          "name": "A5",
          "midi": 81,
          "time": 242.3984375,
          "velocity": 0.7952755905511811,
          "duration": 0.15625
        },
        {
          "name": "A5",
          "midi": 81,
          "time": 242.671875,
          "velocity": 0.84251968503937,
          "duration": 0.1796875
        },
        {
          "name": "A6",
          "midi": 93,
          "time": 242.8046875,
          "velocity": 0.8661417322834646,
          "duration": 0.203125
        },
        {
          "name": "A#4",
          "midi": 70,
          "time": 243.75,
          "velocity": 0.8976377952755905,
          "duration": 0.3671875
        },
        {
          "name": "A#5",
          "midi": 82,
          "time": 243.75,
          "velocity": 0.8740157480314961,
          "duration": 0.3671875
        },
        {
          "name": "D6",
          "midi": 86,
          "time": 244.5,
          "velocity": 0.7637795275590551,
          "duration": 0.3671875
        },
        {
          "name": "D5",
          "midi": 74,
          "time": 244.5,
          "velocity": 0.7637795275590551,
          "duration": 0.3671875
        },
        {
          "name": "F6",
          "midi": 89,
          "time": 244.875,
          "velocity": 0.7637795275590551,
          "duration": 0.3671875
        },
        {
          "name": "F5",
          "midi": 77,
          "time": 244.875,
          "velocity": 0.7637795275590551,
          "duration": 0.3671875
        },
        {
          "name": "F6",
          "midi": 89,
          "time": 245.25,
          "velocity": 0.8976377952755905,
          "duration": 0.7421875
        },
        {
          "name": "D6",
          "midi": 86,
          "time": 245.25,
          "velocity": 0.8976377952755905,
          "duration": 0.7421875
        },
        {
          "name": "A5",
          "midi": 81,
          "time": 245.25,
          "velocity": 0.8976377952755905,
          "duration": 0.7421875
        },
        {
          "name": "A6",
          "midi": 93,
          "time": 245.25,
          "velocity": 0.8976377952755905,
          "duration": 0.7421875
        },
        {
          "name": "F6",
          "midi": 89,
          "time": 246,
          "velocity": 0.6220472440944882,
          "duration": 0.34375
        },
        {
          "name": "D6",
          "midi": 86,
          "time": 246,
          "velocity": 0.6220472440944882,
          "duration": 0.34375
        },
        {
          "name": "A5",
          "midi": 81,
          "time": 246,
          "velocity": 0.6220472440944882,
          "duration": 0.34375
        },
        {
          "name": "F6",
          "midi": 89,
          "time": 246.375,
          "velocity": 0.5984251968503937,
          "duration": 0.390625
        },
        {
          "name": "D6",
          "midi": 86,
          "time": 246.375,
          "velocity": 0.5984251968503937,
          "duration": 0.390625
        },
        {
          "name": "A5",
          "midi": 81,
          "time": 246.375,
          "velocity": 0.5984251968503937,
          "duration": 0.390625
        },
        {
          "name": "G5",
          "midi": 79,
          "time": 246.75,
          "velocity": 0.6220472440944882,
          "duration": 0.390625
        },
        {
          "name": "G6",
          "midi": 91,
          "time": 246.75,
          "velocity": 0.6220472440944882,
          "duration": 0.390625
        },
        {
          "name": "D6",
          "midi": 86,
          "time": 247.125,
          "velocity": 0.5984251968503937,
          "duration": 0.390625
        },
        {
          "name": "F6",
          "midi": 89,
          "time": 247.125,
          "velocity": 0.5984251968503937,
          "duration": 0.390625
        },
        {
          "name": "F5",
          "midi": 77,
          "time": 248.0625,
          "velocity": 0.5196850393700787,
          "duration": 0.390625
        },
        {
          "name": "A5",
          "midi": 81,
          "time": 248.109375,
          "velocity": 0.5196850393700787,
          "duration": 0.390625
        },
        {
          "name": "C#6",
          "midi": 85,
          "time": 248.203125,
          "velocity": 0.5196850393700787,
          "duration": 0.390625
        },
        {
          "name": "F6",
          "midi": 89,
          "time": 248.25,
          "velocity": 0.8110236220472441,
          "duration": 0.390625
        },
        {
          "name": "E6",
          "midi": 88,
          "time": 248.625,
          "velocity": 0.7795275590551181,
          "duration": 0.390625
        },
        {
          "name": "D#6",
          "midi": 87,
          "time": 249,
          "velocity": 0.7795275590551181,
          "duration": 0.390625
        },
        {
          "name": "E6",
          "midi": 88,
          "time": 249.375,
          "velocity": 0.7795275590551181,
          "duration": 0.390625
        },
        {
          "name": "A5",
          "midi": 81,
          "time": 249.75,
          "velocity": 0.5433070866141733,
          "duration": 0.3359375
        },
        {
          "name": "C6",
          "midi": 84,
          "time": 249.75,
          "velocity": 0.5433070866141733,
          "duration": 0.3359375
        },
        {
          "name": "G5",
          "midi": 79,
          "time": 249.75,
          "velocity": 0.5433070866141733,
          "duration": 0.3359375
        },
        {
          "name": "G6",
          "midi": 91,
          "time": 249.75,
          "velocity": 0.8818897637795275,
          "duration": 1.4609375
        },
        {
          "name": "C6",
          "midi": 84,
          "time": 250.125,
          "velocity": 0.5905511811023622,
          "duration": 0.34375
        },
        {
          "name": "G5",
          "midi": 79,
          "time": 250.125,
          "velocity": 0.5905511811023622,
          "duration": 0.34375
        },
        {
          "name": "A5",
          "midi": 81,
          "time": 250.125,
          "velocity": 0.5905511811023622,
          "duration": 0.34375
        },
        {
          "name": "A5",
          "midi": 81,
          "time": 250.5,
          "velocity": 0.5748031496062992,
          "duration": 0.34375
        },
        {
          "name": "G5",
          "midi": 79,
          "time": 250.5,
          "velocity": 0.5748031496062992,
          "duration": 0.34375
        },
        {
          "name": "C6",
          "midi": 84,
          "time": 250.5,
          "velocity": 0.5748031496062992,
          "duration": 0.34375
        },
        {
          "name": "C6",
          "midi": 84,
          "time": 250.875,
          "velocity": 0.5748031496062992,
          "duration": 0.34375
        },
        {
          "name": "A5",
          "midi": 81,
          "time": 250.875,
          "velocity": 0.5748031496062992,
          "duration": 0.34375
        },
        {
          "name": "G5",
          "midi": 79,
          "time": 250.875,
          "velocity": 0.5748031496062992,
          "duration": 0.34375
        },
        {
          "name": "F5",
          "midi": 77,
          "time": 251.25,
          "velocity": 0.5590551181102362,
          "duration": 0.765625
        },
        {
          "name": "F6",
          "midi": 89,
          "time": 251.25,
          "velocity": 0.7874015748031497,
          "duration": 0.765625
        },
        {
          "name": "G5",
          "midi": 79,
          "time": 251.625,
          "velocity": 0.5905511811023622,
          "duration": 0.3828125
        },
        {
          "name": "A5",
          "midi": 81,
          "time": 251.625,
          "velocity": 0.5905511811023622,
          "duration": 0.3828125
        },
        {
          "name": "C6",
          "midi": 84,
          "time": 251.625,
          "velocity": 0.5905511811023622,
          "duration": 0.3828125
        },
        {
          "name": "E5",
          "midi": 76,
          "time": 252.375,
          "velocity": 0.4330708661417323,
          "duration": 0.3359375
        },
        {
          "name": "E6",
          "midi": 88,
          "time": 252.75,
          "velocity": 0.7007874015748031,
          "duration": 0.3828125
        },
        {
          "name": "E5",
          "midi": 76,
          "time": 252.75,
          "velocity": 0.7007874015748031,
          "duration": 0.3828125
        },
        {
          "name": "D5",
          "midi": 74,
          "time": 253.125,
          "velocity": 0.7007874015748031,
          "duration": 0.3828125
        },
        {
          "name": "D6",
          "midi": 86,
          "time": 253.125,
          "velocity": 0.7007874015748031,
          "duration": 0.3828125
        },
        {
          "name": "C#6",
          "midi": 85,
          "time": 253.5,
          "velocity": 0.7007874015748031,
          "duration": 0.3828125
        },
        {
          "name": "C#5",
          "midi": 73,
          "time": 253.5,
          "velocity": 0.7007874015748031,
          "duration": 0.3828125
        },
        {
          "name": "D6",
          "midi": 86,
          "time": 253.875,
          "velocity": 0.7007874015748031,
          "duration": 0.3359375
        },
        {
          "name": "D5",
          "midi": 74,
          "time": 253.875,
          "velocity": 0.7007874015748031,
          "duration": 0.3359375
        },
        {
          "name": "D5",
          "midi": 74,
          "time": 254.25,
          "velocity": 0.7716535433070866,
          "duration": 0.7578125
        },
        {
          "name": "F5",
          "midi": 77,
          "time": 254.25,
          "velocity": 0.7716535433070866,
          "duration": 0.7578125
        },
        {
          "name": "A5",
          "midi": 81,
          "time": 254.25,
          "velocity": 0.7716535433070866,
          "duration": 0.7578125
        },
        {
          "name": "D6",
          "midi": 86,
          "time": 254.25,
          "velocity": 0.7716535433070866,
          "duration": 0.7578125
        },
        {
          "name": "C6",
          "midi": 84,
          "time": 255.375,
          "velocity": 0.6220472440944882,
          "duration": 0.3828125
        },
        {
          "name": "C5",
          "midi": 72,
          "time": 255.375,
          "velocity": 0.6220472440944882,
          "duration": 0.3828125
        },
        {
          "name": "A#5",
          "midi": 82,
          "time": 255.75,
          "velocity": 0.6220472440944882,
          "duration": 0.7578125
        },
        {
          "name": "A#4",
          "midi": 70,
          "time": 255.75,
          "velocity": 0.6220472440944882,
          "duration": 0.7578125
        },
        {
          "name": "E5",
          "midi": 76,
          "time": 256.5,
          "velocity": 0.7716535433070866,
          "duration": 0.7578125
        },
        {
          "name": "C#5",
          "midi": 73,
          "time": 256.5,
          "velocity": 0.7716535433070866,
          "duration": 0.7578125
        },
        {
          "name": "A4",
          "midi": 69,
          "time": 256.5,
          "velocity": 0.7716535433070866,
          "duration": 0.7578125
        },
        {
          "name": "A5",
          "midi": 81,
          "time": 256.5,
          "velocity": 0.7716535433070866,
          "duration": 0.7578125
        },
        {
          "name": "A#4",
          "midi": 70,
          "time": 257.625,
          "velocity": 0.6220472440944882,
          "duration": 0.3828125
        },
        {
          "name": "A#5",
          "midi": 82,
          "time": 257.625,
          "velocity": 0.7401574803149606,
          "duration": 0.3828125
        },
        {
          "name": "C#6",
          "midi": 85,
          "time": 258,
          "velocity": 0.7401574803149606,
          "duration": 0.7578125
        },
        {
          "name": "C#5",
          "midi": 73,
          "time": 258,
          "velocity": 0.7401574803149606,
          "duration": 0.7578125
        },
        {
          "name": "D5",
          "midi": 74,
          "time": 258.609375,
          "velocity": 0.84251968503937,
          "duration": 0.673828125
        },
        {
          "name": "F#5",
          "midi": 78,
          "time": 258.65625,
          "velocity": 0.84251968503937,
          "duration": 0.673828125
        },
        {
          "name": "A5",
          "midi": 81,
          "time": 258.703125,
          "velocity": 0.84251968503937,
          "duration": 0.673828125
        },
        {
          "name": "D6",
          "midi": 86,
          "time": 258.75,
          "velocity": 0.84251968503937,
          "duration": 0.673828125
        },
        {
          "name": "D5",
          "midi": 74,
          "time": 259.5,
          "velocity": 0.5433070866141733,
          "duration": 0.3828125
        },
        {
          "name": "F#5",
          "midi": 78,
          "time": 259.5,
          "velocity": 0.5433070866141733,
          "duration": 0.3828125
        },
        {
          "name": "G5",
          "midi": 79,
          "time": 259.875,
          "velocity": 0.5433070866141733,
          "duration": 0.3828125
        },
        {
          "name": "E5",
          "midi": 76,
          "time": 259.875,
          "velocity": 0.5433070866141733,
          "duration": 0.3828125
        },
        {
          "name": "F#5",
          "midi": 78,
          "time": 260.25,
          "velocity": 0.5433070866141733,
          "duration": 0.3828125
        },
        {
          "name": "D5",
          "midi": 74,
          "time": 260.25,
          "velocity": 0.5433070866141733,
          "duration": 0.3828125
        },
        {
          "name": "G5",
          "midi": 79,
          "time": 260.625,
          "velocity": 0.5354330708661418,
          "duration": 0.3828125
        },
        {
          "name": "E5",
          "midi": 76,
          "time": 260.625,
          "velocity": 0.5354330708661418,
          "duration": 0.3828125
        },
        {
          "name": "F#5",
          "midi": 78,
          "time": 261,
          "velocity": 0.5354330708661418,
          "duration": 0.3828125
        },
        {
          "name": "A5",
          "midi": 81,
          "time": 261,
          "velocity": 0.5354330708661418,
          "duration": 0.3828125
        },
        {
          "name": "D5",
          "midi": 74,
          "time": 261.75,
          "velocity": 0.5905511811023622,
          "duration": 0.3828125
        },
        {
          "name": "F#5",
          "midi": 78,
          "time": 261.75,
          "velocity": 0.5905511811023622,
          "duration": 0.3828125
        },
        {
          "name": "D5",
          "midi": 74,
          "time": 262.5,
          "velocity": 0.5748031496062992,
          "duration": 0.3828125
        },
        {
          "name": "F#4",
          "midi": 66,
          "time": 262.5,
          "velocity": 0.5748031496062992,
          "duration": 0.3828125
        },
        {
          "name": "A4",
          "midi": 69,
          "time": 262.5,
          "velocity": 0.5748031496062992,
          "duration": 0.3828125
        },
        {
          "name": "D4",
          "midi": 62,
          "time": 264,
          "velocity": 0.5039370078740157,
          "duration": 0.130859375
        },
        {
          "name": "F#4",
          "midi": 66,
          "time": 264,
          "velocity": 0.5039370078740157,
          "duration": 0.130859375
        },
        {
          "name": "G4",
          "midi": 67,
          "time": 264.375,
          "velocity": 0.5039370078740157,
          "duration": 0.130859375
        },
        {
          "name": "E4",
          "midi": 64,
          "time": 264.375,
          "velocity": 0.5039370078740157,
          "duration": 0.130859375
        },
        {
          "name": "F#4",
          "midi": 66,
          "time": 264.75,
          "velocity": 0.47244094488188976,
          "duration": 0.130859375
        },
        {
          "name": "D4",
          "midi": 62,
          "time": 264.75,
          "velocity": 0.47244094488188976,
          "duration": 0.130859375
        },
        {
          "name": "G4",
          "midi": 67,
          "time": 265.125,
          "velocity": 0.44881889763779526,
          "duration": 0.130859375
        },
        {
          "name": "E4",
          "midi": 64,
          "time": 265.125,
          "velocity": 0.44881889763779526,
          "duration": 0.130859375
        },
        {
          "name": "F#4",
          "midi": 66,
          "time": 265.5,
          "velocity": 0.47244094488188976,
          "duration": 0.203125
        },
        {
          "name": "A4",
          "midi": 69,
          "time": 265.5,
          "velocity": 0.47244094488188976,
          "duration": 0.203125
        },
        {
          "name": "F#4",
          "midi": 66,
          "time": 266.25,
          "velocity": 0.47244094488188976,
          "duration": 0.208984375
        },
        {
          "name": "A3",
          "midi": 57,
          "time": 266.25,
          "velocity": 0.47244094488188976,
          "duration": 0.208984375
        },
        {
          "name": "D4",
          "midi": 62,
          "time": 266.25,
          "velocity": 0.47244094488188976,
          "duration": 0.208984375
        },
        {
          "name": "A3",
          "midi": 57,
          "time": 267,
          "velocity": 0.47244094488188976,
          "duration": 0.19921875
        },
        {
          "name": "D4",
          "midi": 62,
          "time": 267,
          "velocity": 0.47244094488188976,
          "duration": 0.19921875
        },
        {
          "name": "D5",
          "midi": 74,
          "time": 269.25,
          "velocity": 0.2125984251968504,
          "duration": 0.375
        },
        {
          "name": "D#5",
          "midi": 75,
          "time": 269.625,
          "velocity": 0.25984251968503935,
          "duration": 0.375
        },
        {
          "name": "D5",
          "midi": 74,
          "time": 270,
          "velocity": 0.31496062992125984,
          "duration": 0.375
        },
        {
          "name": "D#5",
          "midi": 75,
          "time": 270.375,
          "velocity": 0.3700787401574803,
          "duration": 0.375
        },
        {
          "name": "D5",
          "midi": 74,
          "time": 270.75,
          "velocity": 0.41732283464566927,
          "duration": 0.375
        },
        {
          "name": "D#5",
          "midi": 75,
          "time": 271.125,
          "velocity": 0.47244094488188976,
          "duration": 0.375
        },
        {
          "name": "C5",
          "midi": 72,
          "time": 271.5,
          "velocity": 0.2204724409448819,
          "duration": 0.375
        },
        {
          "name": "D5",
          "midi": 74,
          "time": 271.875,
          "velocity": 0.2755905511811024,
          "duration": 0.375
        },
        {
          "name": "C5",
          "midi": 72,
          "time": 272.25,
          "velocity": 0.3228346456692913,
          "duration": 0.375
        },
        {
          "name": "D5",
          "midi": 74,
          "time": 272.625,
          "velocity": 0.3779527559055118,
          "duration": 0.375
        },
        {
          "name": "C5",
          "midi": 72,
          "time": 273,
          "velocity": 0.4251968503937008,
          "duration": 0.375
        },
        {
          "name": "D5",
          "midi": 74,
          "time": 273.375,
          "velocity": 0.47244094488188976,
          "duration": 0.375
        },
        {
          "name": "A#4",
          "midi": 70,
          "time": 273.75,
          "velocity": 0.28346456692913385,
          "duration": 0.375
        },
        {
          "name": "C5",
          "midi": 72,
          "time": 274.125,
          "velocity": 0.3228346456692913,
          "duration": 0.375
        },
        {
          "name": "A#4",
          "midi": 70,
          "time": 274.5,
          "velocity": 0.36220472440944884,
          "duration": 0.375
        },
        {
          "name": "C5",
          "midi": 72,
          "time": 274.875,
          "velocity": 0.4015748031496063,
          "duration": 0.375
        },
        {
          "name": "A#4",
          "midi": 70,
          "time": 275.25,
          "velocity": 0.4409448818897638,
          "duration": 0.375
        },
        {
          "name": "C5",
          "midi": 72,
          "time": 275.625,
          "velocity": 0.48031496062992124,
          "duration": 0.375
        },
        {
          "name": "A4",
          "midi": 69,
          "time": 276,
          "velocity": 0.44881889763779526,
          "duration": 0.1875
        },
        {
          "name": "G4",
          "midi": 67,
          "time": 276.1875,
          "velocity": 0.4881889763779528,
          "duration": 0.1875
        },
        {
          "name": "F#4",
          "midi": 66,
          "time": 276.375,
          "velocity": 0.5275590551181102,
          "duration": 1.078125
        },
        {
          "name": "D4",
          "midi": 62,
          "time": 278.2109375,
          "velocity": 0.47244094488188976,
          "duration": 0.15625
        },
        {
          "name": "F#4",
          "midi": 66,
          "time": 278.3203125,
          "velocity": 0.5039370078740157,
          "duration": 0.1484375
        },
        {
          "name": "C5",
          "midi": 72,
          "time": 278.4375,
          "velocity": 0.5275590551181102,
          "duration": 0.1484375
        },
        {
          "name": "F#6",
          "midi": 90,
          "time": 278.9453125,
          "velocity": 0.6220472440944882,
          "duration": 0.140625
        },
        {
          "name": "A6",
          "midi": 93,
          "time": 279.0859375,
          "velocity": 0.6456692913385826,
          "duration": 0.1484375
        },
        {
          "name": "C7",
          "midi": 96,
          "time": 279.234375,
          "velocity": 0.6692913385826772,
          "duration": 0.1484375
        },
        {
          "name": "D#5",
          "midi": 75,
          "time": 280.5,
          "velocity": 0.25984251968503935,
          "duration": 0.375
        },
        {
          "name": "F5",
          "midi": 77,
          "time": 280.875,
          "velocity": 0.30708661417322836,
          "duration": 0.375
        },
        {
          "name": "D#5",
          "midi": 75,
          "time": 281.25,
          "velocity": 0.3543307086614173,
          "duration": 0.375
        },
        {
          "name": "F5",
          "midi": 77,
          "time": 281.625,
          "velocity": 0.4094488188976378,
          "duration": 0.375
        },
        {
          "name": "D#5",
          "midi": 75,
          "time": 282,
          "velocity": 0.4566929133858268,
          "duration": 0.375
        },
        {
          "name": "F5",
          "midi": 77,
          "time": 282.375,
          "velocity": 0.5118110236220472,
          "duration": 0.375
        },
        {
          "name": "D5",
          "midi": 74,
          "time": 282.75,
          "velocity": 0.2677165354330709,
          "duration": 0.375
        },
        {
          "name": "D#5",
          "midi": 75,
          "time": 283.125,
          "velocity": 0.31496062992125984,
          "duration": 0.375
        },
        {
          "name": "D5",
          "midi": 74,
          "time": 283.5,
          "velocity": 0.36220472440944884,
          "duration": 0.375
        },
        {
          "name": "D#5",
          "midi": 75,
          "time": 283.875,
          "velocity": 0.41732283464566927,
          "duration": 0.375
        },
        {
          "name": "D5",
          "midi": 74,
          "time": 284.25,
          "velocity": 0.4645669291338583,
          "duration": 0.375
        },
        {
          "name": "D#5",
          "midi": 75,
          "time": 284.625,
          "velocity": 0.5196850393700787,
          "duration": 0.375
        },
        {
          "name": "B4",
          "midi": 71,
          "time": 285,
          "velocity": 0.28346456692913385,
          "duration": 0.375
        },
        {
          "name": "C5",
          "midi": 72,
          "time": 285.375,
          "velocity": 0.33070866141732286,
          "duration": 0.375
        },
        {
          "name": "B4",
          "midi": 71,
          "time": 285.75,
          "velocity": 0.3700787401574803,
          "duration": 0.375
        },
        {
          "name": "C5",
          "midi": 72,
          "time": 286.125,
          "velocity": 0.41732283464566927,
          "duration": 0.375
        },
        {
          "name": "B4",
          "midi": 71,
          "time": 286.5,
          "velocity": 0.4645669291338583,
          "duration": 0.375
        },
        {
          "name": "C5",
          "midi": 72,
          "time": 286.875,
          "velocity": 0.6220472440944882,
          "duration": 0.375
        },
        {
          "name": "B4",
          "midi": 71,
          "time": 287.25,
          "velocity": 0.4409448818897638,
          "duration": 0.375
        },
        {
          "name": "G#4",
          "midi": 68,
          "time": 287.625,
          "velocity": 0.4015748031496063,
          "duration": 0.375
        },
        {
          "name": "G4",
          "midi": 67,
          "time": 288,
          "velocity": 0.36220472440944884,
          "duration": 0.375
        },
        {
          "name": "F4",
          "midi": 65,
          "time": 288.375,
          "velocity": 0.33070866141732286,
          "duration": 0.375
        },
        {
          "name": "F4",
          "midi": 65,
          "time": 288.375,
          "velocity": 0.33070866141732286,
          "duration": 0.375
        },
        {
          "name": "G4",
          "midi": 67,
          "time": 288.75,
          "velocity": 0.3228346456692913,
          "duration": 0.375
        },
        {
          "name": "G#4",
          "midi": 68,
          "time": 289.125,
          "velocity": 0.3937007874015748,
          "duration": 0.375
        },
        {
          "name": "B4",
          "midi": 71,
          "time": 289.5,
          "velocity": 0.4566929133858268,
          "duration": 0.375
        },
        {
          "name": "G#4",
          "midi": 68,
          "time": 289.875,
          "velocity": 0.49606299212598426,
          "duration": 0.375
        },
        {
          "name": "G4",
          "midi": 67,
          "time": 290.25,
          "velocity": 0.4409448818897638,
          "duration": 0.375
        },
        {
          "name": "F4",
          "midi": 65,
          "time": 290.625,
          "velocity": 0.3937007874015748,
          "duration": 0.375
        },
        {
          "name": "G4",
          "midi": 67,
          "time": 291,
          "velocity": 0.3779527559055118,
          "duration": 0.375
        },
        {
          "name": "G#4",
          "midi": 68,
          "time": 291.375,
          "velocity": 0.48031496062992124,
          "duration": 0.375
        },
        {
          "name": "B4",
          "midi": 71,
          "time": 291.75,
          "velocity": 0.5826771653543307,
          "duration": 1.125
        },
        {
          "name": "B3",
          "midi": 59,
          "time": 295.59375,
          "velocity": 0.4881889763779528,
          "duration": 0.171875
        },
        {
          "name": "D4",
          "midi": 62,
          "time": 295.7578125,
          "velocity": 0.5118110236220472,
          "duration": 0.171875
        },
        {
          "name": "F4",
          "midi": 65,
          "time": 295.9140625,
          "velocity": 0.5433070866141733,
          "duration": 0.171875
        },
        {
          "name": "G4",
          "midi": 67,
          "time": 296.078125,
          "velocity": 0.5669291338582677,
          "duration": 0.171875
        },
        {
          "name": "B5",
          "midi": 83,
          "time": 296.71875,
          "velocity": 0.6850393700787402,
          "duration": 0.1328125
        },
        {
          "name": "D6",
          "midi": 86,
          "time": 296.8515625,
          "velocity": 0.7086614173228346,
          "duration": 0.125
        },
        {
          "name": "F6",
          "midi": 89,
          "time": 296.9765625,
          "velocity": 0.9291338582677166,
          "duration": 1.5
        },
        {
          "name": "G4",
          "midi": 67,
          "time": 300.75,
          "velocity": 0.23622047244094488,
          "duration": 0.2734375
        },
        {
          "name": "C5",
          "midi": 72,
          "time": 301.5,
          "velocity": 0.2992125984251969,
          "duration": 0.2734375
        },
        {
          "name": "D#5",
          "midi": 75,
          "time": 302.25,
          "velocity": 0.4094488188976378,
          "duration": 0.2734375
        },
        {
          "name": "G4",
          "midi": 67,
          "time": 303,
          "velocity": 0.3700787401574803,
          "duration": 0.2734375
        },
        {
          "name": "C5",
          "midi": 72,
          "time": 303,
          "velocity": 0.3700787401574803,
          "duration": 0.2734375
        },
        {
          "name": "D#5",
          "midi": 75,
          "time": 303,
          "velocity": 0.3700787401574803,
          "duration": 0.2734375
        },
        {
          "name": "G5",
          "midi": 79,
          "time": 303,
          "velocity": 0.3700787401574803,
          "duration": 0.2734375
        },
        {
          "name": "G5",
          "midi": 79,
          "time": 304.5,
          "velocity": 0.33070866141732286,
          "duration": 0.2734375
        },
        {
          "name": "F5",
          "midi": 77,
          "time": 305.25,
          "velocity": 0.4094488188976378,
          "duration": 0.2734375
        },
        {
          "name": "B4",
          "midi": 71,
          "time": 305.25,
          "velocity": 0.4094488188976378,
          "duration": 0.2734375
        },
        {
          "name": "F4",
          "midi": 65,
          "time": 305.25,
          "velocity": 0.4094488188976378,
          "duration": 0.2734375
        },
        {
          "name": "D#5",
          "midi": 75,
          "time": 306,
          "velocity": 0.4094488188976378,
          "duration": 0.2734375
        },
        {
          "name": "D5",
          "midi": 74,
          "time": 306.75,
          "velocity": 0.4094488188976378,
          "duration": 0.2734375
        },
        {
          "name": "D#5",
          "midi": 75,
          "time": 307.5,
          "velocity": 0.3858267716535433,
          "duration": 0.2734375
        },
        {
          "name": "G4",
          "midi": 67,
          "time": 307.5,
          "velocity": 0.3858267716535433,
          "duration": 0.2734375
        },
        {
          "name": "D#4",
          "midi": 63,
          "time": 307.5,
          "velocity": 0.3858267716535433,
          "duration": 0.2734375
        },
        {
          "name": "C5",
          "midi": 72,
          "time": 309.75,
          "velocity": 0.36220472440944884,
          "duration": 0.2734375
        },
        {
          "name": "D#5",
          "midi": 75,
          "time": 310.5,
          "velocity": 0.4251968503937008,
          "duration": 0.2734375
        },
        {
          "name": "G5",
          "midi": 79,
          "time": 311.25,
          "velocity": 0.5275590551181102,
          "duration": 0.2734375
        },
        {
          "name": "G#5",
          "midi": 80,
          "time": 312,
          "velocity": 0.4409448818897638,
          "duration": 0.2734375
        },
        {
          "name": "D#5",
          "midi": 75,
          "time": 312,
          "velocity": 0.3779527559055118,
          "duration": 0.2734375
        },
        {
          "name": "C5",
          "midi": 72,
          "time": 312,
          "velocity": 0.3779527559055118,
          "duration": 0.2734375
        },
        {
          "name": "C6",
          "midi": 84,
          "time": 312,
          "velocity": 0.4409448818897638,
          "duration": 0.2734375
        },
        {
          "name": "C6",
          "midi": 84,
          "time": 313.5,
          "velocity": 0.44881889763779526,
          "duration": 0.2734375
        },
        {
          "name": "C6",
          "midi": 84,
          "time": 314.25,
          "velocity": 0.4330708661417323,
          "duration": 0.2734375
        },
        {
          "name": "F5",
          "midi": 77,
          "time": 314.25,
          "velocity": 0.4330708661417323,
          "duration": 0.2734375
        },
        {
          "name": "D5",
          "midi": 74,
          "time": 314.25,
          "velocity": 0.4330708661417323,
          "duration": 0.2734375
        },
        {
          "name": "A#5",
          "midi": 82,
          "time": 315,
          "velocity": 0.4645669291338583,
          "duration": 0.2734375
        },
        {
          "name": "G#5",
          "midi": 80,
          "time": 315.75,
          "velocity": 0.41732283464566927,
          "duration": 0.2734375
        },
        {
          "name": "A#5",
          "midi": 82,
          "time": 316.5,
          "velocity": 0.3543307086614173,
          "duration": 1.1171875
        },
        {
          "name": "G5",
          "midi": 79,
          "time": 316.5,
          "velocity": 0.3543307086614173,
          "duration": 1.1171875
        },
        {
          "name": "D#5",
          "midi": 75,
          "time": 316.5,
          "velocity": 0.3543307086614173,
          "duration": 1.1171875
        },
        {
          "name": "D5",
          "midi": 74,
          "time": 318.75,
          "velocity": 0.28346456692913385,
          "duration": 0.2734375
        },
        {
          "name": "G5",
          "midi": 79,
          "time": 319.5,
          "velocity": 0.4094488188976378,
          "duration": 0.2734375
        },
        {
          "name": "A#5",
          "midi": 82,
          "time": 320.25,
          "velocity": 0.49606299212598426,
          "duration": 0.2734375
        },
        {
          "name": "D6",
          "midi": 86,
          "time": 321,
          "velocity": 0.5984251968503937,
          "duration": 1.4921875
        },
        {
          "name": "C6",
          "midi": 84,
          "time": 322.5,
          "velocity": 0.3779527559055118,
          "duration": 0.7421875
        },
        {
          "name": "A#5",
          "midi": 82,
          "time": 323.25,
          "velocity": 0.41732283464566927,
          "duration": 0.7421875
        },
        {
          "name": "A5",
          "midi": 81,
          "time": 324,
          "velocity": 0.36220472440944884,
          "duration": 0.7421875
        },
        {
          "name": "A#5",
          "midi": 82,
          "time": 324.75,
          "velocity": 0.36220472440944884,
          "duration": 0.7421875
        },
        {
          "name": "C6",
          "midi": 84,
          "time": 325.5,
          "velocity": 0.48031496062992124,
          "duration": 1.4921875
        },
        {
          "name": "A#5",
          "midi": 82,
          "time": 327,
          "velocity": 0.3858267716535433,
          "duration": 0.7421875
        },
        {
          "name": "A5",
          "midi": 81,
          "time": 327.75,
          "velocity": 0.3858267716535433,
          "duration": 0.7421875
        },
        {
          "name": "G5",
          "midi": 79,
          "time": 328.5,
          "velocity": 0.3858267716535433,
          "duration": 0.7421875
        },
        {
          "name": "F#5",
          "midi": 78,
          "time": 329.25,
          "velocity": 0.4015748031496063,
          "duration": 0.7421875
        },
        {
          "name": "G5",
          "midi": 79,
          "time": 330,
          "velocity": 0.5118110236220472,
          "duration": 1.4921875
        },
        {
          "name": "G5",
          "midi": 79,
          "time": 331.5,
          "velocity": 0.5905511811023622,
          "duration": 0.7421875
        },
        {
          "name": "G5",
          "midi": 79,
          "time": 332.25,
          "velocity": 0.4881889763779528,
          "duration": 0.7421875
        },
        {
          "name": "F5",
          "midi": 77,
          "time": 333,
          "velocity": 0.4645669291338583,
          "duration": 0.7421875
        },
        {
          "name": "C5",
          "midi": 72,
          "time": 333.75,
          "velocity": 0.5669291338582677,
          "duration": 0.7421875
        },
        {
          "name": "D5",
          "midi": 74,
          "time": 334.5,
          "velocity": 0.4251968503937008,
          "duration": 2.25
        },
        {
          "name": "G4",
          "midi": 67,
          "time": 336.7578125,
          "velocity": 0.8031496062992126,
          "duration": 0.3671875
        },
        {
          "name": "C5",
          "midi": 72,
          "time": 337.5,
          "velocity": 0.6062992125984252,
          "duration": 0.3671875
        },
        {
          "name": "D#5",
          "midi": 75,
          "time": 338.25,
          "velocity": 0.5196850393700787,
          "duration": 0.3671875
        },
        {
          "name": "G5",
          "midi": 79,
          "time": 339,
          "velocity": 0.5433070866141733,
          "duration": 0.7421875
        },
        {
          "name": "D#5",
          "midi": 75,
          "time": 339,
          "velocity": 0.5433070866141733,
          "duration": 0.7421875
        },
        {
          "name": "C5",
          "midi": 72,
          "time": 339,
          "velocity": 0.5433070866141733,
          "duration": 0.7421875
        },
        {
          "name": "G4",
          "midi": 67,
          "time": 339,
          "velocity": 0.5433070866141733,
          "duration": 0.7421875
        },
        {
          "name": "G5",
          "midi": 79,
          "time": 340.5,
          "velocity": 0.4645669291338583,
          "duration": 0.3671875
        },
        {
          "name": "F5",
          "midi": 77,
          "time": 341.25,
          "velocity": 0.4645669291338583,
          "duration": 0.3671875
        },
        {
          "name": "F4",
          "midi": 65,
          "time": 341.25,
          "velocity": 0.4645669291338583,
          "duration": 0.3671875
        },
        {
          "name": "B4",
          "midi": 71,
          "time": 341.25,
          "velocity": 0.4645669291338583,
          "duration": 0.3671875
        },
        {
          "name": "D#5",
          "midi": 75,
          "time": 342,
          "velocity": 0.4645669291338583,
          "duration": 0.3671875
        },
        {
          "name": "D5",
          "midi": 74,
          "time": 342.75,
          "velocity": 0.4645669291338583,
          "duration": 0.3671875
        },
        {
          "name": "D#5",
          "midi": 75,
          "time": 343.5,
          "velocity": 0.4645669291338583,
          "duration": 0.7421875
        },
        {
          "name": "D#4",
          "midi": 63,
          "time": 343.5,
          "velocity": 0.4645669291338583,
          "duration": 0.7421875
        },
        {
          "name": "G4",
          "midi": 67,
          "time": 343.5,
          "velocity": 0.4645669291338583,
          "duration": 0.7421875
        },
        {
          "name": "C5",
          "midi": 72,
          "time": 345.75,
          "velocity": 0.4645669291338583,
          "duration": 0.3671875
        },
        {
          "name": "D#5",
          "midi": 75,
          "time": 346.5,
          "velocity": 0.5354330708661418,
          "duration": 0.3671875
        },
        {
          "name": "G5",
          "midi": 79,
          "time": 347.25,
          "velocity": 0.6771653543307087,
          "duration": 0.3671875
        },
        {
          "name": "C6",
          "midi": 84,
          "time": 348,
          "velocity": 0.5354330708661418,
          "duration": 0.7421875
        },
        {
          "name": "D#5",
          "midi": 75,
          "time": 348,
          "velocity": 0.5354330708661418,
          "duration": 0.7421875
        },
        {
          "name": "C5",
          "midi": 72,
          "time": 348,
          "velocity": 0.5354330708661418,
          "duration": 0.7421875
        },
        {
          "name": "G#5",
          "midi": 80,
          "time": 348,
          "velocity": 0.5354330708661418,
          "duration": 0.7421875
        },
        {
          "name": "C6",
          "midi": 84,
          "time": 349.5,
          "velocity": 0.4645669291338583,
          "duration": 0.3671875
        },
        {
          "name": "F5",
          "midi": 77,
          "time": 350.25,
          "velocity": 0.6062992125984252,
          "duration": 0.3671875
        },
        {
          "name": "D5",
          "midi": 74,
          "time": 350.25,
          "velocity": 0.6062992125984252,
          "duration": 0.3671875
        },
        {
          "name": "C6",
          "midi": 84,
          "time": 350.25,
          "velocity": 0.6062992125984252,
          "duration": 0.3671875
        },
        {
          "name": "A#5",
          "midi": 82,
          "time": 351,
          "velocity": 0.4645669291338583,
          "duration": 0.3671875
        },
        {
          "name": "G#5",
          "midi": 80,
          "time": 351.75,
          "velocity": 0.4094488188976378,
          "duration": 0.3671875
        },
        {
          "name": "A#5",
          "midi": 82,
          "time": 352.5,
          "velocity": 0.3937007874015748,
          "duration": 1.4921875
        },
        {
          "name": "G5",
          "midi": 79,
          "time": 352.5,
          "velocity": 0.3937007874015748,
          "duration": 1.4921875
        },
        {
          "name": "D5",
          "midi": 74,
          "time": 352.5,
          "velocity": 0.3937007874015748,
          "duration": 1.4921875
        },
        {
          "name": "D4",
          "midi": 62,
          "time": 354.75,
          "velocity": 0.28346456692913385,
          "duration": 0.7421875
        },
        {
          "name": "G4",
          "midi": 67,
          "time": 355.5,
          "velocity": 0.3858267716535433,
          "duration": 0.7421875
        },
        {
          "name": "A#4",
          "midi": 70,
          "time": 356.25,
          "velocity": 0.5039370078740157,
          "duration": 0.7421875
        },
        {
          "name": "D4",
          "midi": 62,
          "time": 356.859375,
          "velocity": 0.5826771653543307,
          "duration": 1.4921875
        },
        {
          "name": "G4",
          "midi": 67,
          "time": 356.90625,
          "velocity": 0.5826771653543307,
          "duration": 1.4921875
        },
        {
          "name": "D5",
          "midi": 74,
          "time": 357,
          "velocity": 0.5826771653543307,
          "duration": 1.4921875
        },
        {
          "name": "C5",
          "midi": 72,
          "time": 358.5,
          "velocity": 0.5511811023622047,
          "duration": 0.7421875
        },
        {
          "name": "D4",
          "midi": 62,
          "time": 359.25,
          "velocity": 0.6220472440944882,
          "duration": 0.7421875
        },
        {
          "name": "F#4",
          "midi": 66,
          "time": 359.25,
          "velocity": 0.6220472440944882,
          "duration": 0.7421875
        },
        {
          "name": "A#4",
          "midi": 70,
          "time": 359.25,
          "velocity": 0.6220472440944882,
          "duration": 0.7421875
        },
        {
          "name": "A4",
          "midi": 69,
          "time": 360,
          "velocity": 0.49606299212598426,
          "duration": 0.7421875
        },
        {
          "name": "A#4",
          "midi": 70,
          "time": 360.75,
          "velocity": 0.49606299212598426,
          "duration": 0.7421875
        },
        {
          "name": "D4",
          "midi": 62,
          "time": 361.5,
          "velocity": 0.6614173228346457,
          "duration": 1.4921875
        },
        {
          "name": "G4",
          "midi": 67,
          "time": 361.5,
          "velocity": 0.6614173228346457,
          "duration": 1.4921875
        },
        {
          "name": "A#4",
          "midi": 70,
          "time": 361.5,
          "velocity": 0.6614173228346457,
          "duration": 1.4921875
        },
        {
          "name": "C5",
          "midi": 72,
          "time": 361.5,
          "velocity": 0.6614173228346457,
          "duration": 1.4921875
        },
        {
          "name": "A#3",
          "midi": 58,
          "time": 363,
          "velocity": 0.5984251968503937,
          "duration": 0.7421875
        },
        {
          "name": "A#4",
          "midi": 70,
          "time": 363,
          "velocity": 0.5984251968503937,
          "duration": 0.7421875
        },
        {
          "name": "A3",
          "midi": 57,
          "time": 363.75,
          "velocity": 0.5984251968503937,
          "duration": 1.4921875
        },
        {
          "name": "A4",
          "midi": 69,
          "time": 363.75,
          "velocity": 0.5984251968503937,
          "duration": 1.4921875
        },
        {
          "name": "F4",
          "midi": 65,
          "time": 363.75,
          "velocity": 0.5984251968503937,
          "duration": 1.4921875
        },
        {
          "name": "D4",
          "midi": 62,
          "time": 363.75,
          "velocity": 0.5984251968503937,
          "duration": 1.4921875
        },
        {
          "name": "G4",
          "midi": 67,
          "time": 365.25,
          "velocity": 0.6062992125984252,
          "duration": 0.7421875
        },
        {
          "name": "G3",
          "midi": 55,
          "time": 365.8125,
          "velocity": 0.7322834645669292,
          "duration": 0.7421875
        },
        {
          "name": "A#3",
          "midi": 58,
          "time": 365.859375,
          "velocity": 0.7322834645669292,
          "duration": 0.7421875
        },
        {
          "name": "D4",
          "midi": 62,
          "time": 365.90625,
          "velocity": 0.7322834645669292,
          "duration": 0.7421875
        },
        {
          "name": "G4",
          "midi": 67,
          "time": 366,
          "velocity": 0.7322834645669292,
          "duration": 0.7421875
        },
        {
          "name": "F4",
          "midi": 65,
          "time": 366.75,
          "velocity": 0.6535433070866141,
          "duration": 0.7421875
        },
        {
          "name": "D#4",
          "midi": 63,
          "time": 367.5,
          "velocity": 0.6377952755905512,
          "duration": 0.7421875
        },
        {
          "name": "D4",
          "midi": 62,
          "time": 368.25,
          "velocity": 0.7007874015748031,
          "duration": 0.84375
        },
        {
          "name": "A3",
          "midi": 57,
          "time": 368.25,
          "velocity": 0.7007874015748031,
          "duration": 0.84375
        },
        {
          "name": "F#3",
          "midi": 54,
          "time": 368.25,
          "velocity": 0.7007874015748031,
          "duration": 0.84375
        },
        {
          "name": "E4",
          "midi": 64,
          "time": 369.1015625,
          "velocity": 0.7401574803149606,
          "duration": 0.84375
        },
        {
          "name": "A3",
          "midi": 57,
          "time": 369.1015625,
          "velocity": 0.7401574803149606,
          "duration": 0.84375
        },
        {
          "name": "F#3",
          "midi": 54,
          "time": 369.1015625,
          "velocity": 0.7401574803149606,
          "duration": 0.84375
        },
        {
          "name": "F#4",
          "midi": 66,
          "time": 369.953125,
          "velocity": 0.7716535433070866,
          "duration": 0.921875
        },
        {
          "name": "D4",
          "midi": 62,
          "time": 369.953125,
          "velocity": 0.7716535433070866,
          "duration": 0.921875
        },
        {
          "name": "A3",
          "midi": 57,
          "time": 369.953125,
          "velocity": 0.7716535433070866,
          "duration": 0.921875
        },
        {
          "name": "F#3",
          "midi": 54,
          "time": 369.953125,
          "velocity": 0.7716535433070866,
          "duration": 0.921875
        },
        {
          "name": "B3",
          "midi": 59,
          "time": 370.8828125,
          "velocity": 0.8503937007874016,
          "duration": 1.875
        },
        {
          "name": "G3",
          "midi": 55,
          "time": 370.8828125,
          "velocity": 0.8503937007874016,
          "duration": 1.859375
        },
        {
          "name": "G4",
          "midi": 67,
          "time": 370.8828125,
          "velocity": 0.8503937007874016,
          "duration": 1.859375
        },
        {
          "name": "D4",
          "midi": 62,
          "time": 370.8828125,
          "velocity": 0.8503937007874016,
          "duration": 1.859375
        },
        {
          "name": "D4",
          "midi": 62,
          "time": 372.75,
          "velocity": 0.33858267716535434,
          "duration": 0.3671875
        },
        {
          "name": "B3",
          "midi": 59,
          "time": 373.1328125,
          "velocity": 0.30708661417322836,
          "duration": 0.359375
        },
        {
          "name": "G3",
          "midi": 55,
          "time": 373.5234375,
          "velocity": 0.2755905511811024,
          "duration": 0.3671875
        },
        {
          "name": "D4",
          "midi": 62,
          "time": 375.75,
          "velocity": 0.47244094488188976,
          "duration": 0.3671875
        },
        {
          "name": "G4",
          "midi": 67,
          "time": 376.125,
          "velocity": 0.5275590551181102,
          "duration": 0.3671875
        },
        {
          "name": "B4",
          "midi": 71,
          "time": 376.5,
          "velocity": 0.5905511811023622,
          "duration": 0.3671875
        },
        {
          "name": "D5",
          "midi": 74,
          "time": 376.875,
          "velocity": 0.6456692913385826,
          "duration": 0.3671875
        },
        {
          "name": "B4",
          "midi": 71,
          "time": 377.25,
          "velocity": 0.6062992125984252,
          "duration": 0.3671875
        },
        {
          "name": "G4",
          "midi": 67,
          "time": 377.625,
          "velocity": 0.5511811023622047,
          "duration": 0.3671875
        },
        {
          "name": "D4",
          "midi": 62,
          "time": 378,
          "velocity": 0.4881889763779528,
          "duration": 0.3671875
        },
        {
          "name": "D#5",
          "midi": 75,
          "time": 379.5,
          "velocity": 0.5590551181102362,
          "duration": 1.5078125
        },
        {
          "name": "D#4",
          "midi": 63,
          "time": 379.5,
          "velocity": 0.5590551181102362,
          "duration": 1.5078125
        },
        {
          "name": "G4",
          "midi": 67,
          "time": 379.5,
          "velocity": 0.5590551181102362,
          "duration": 1.5078125
        },
        {
          "name": "A#4",
          "midi": 70,
          "time": 379.5,
          "velocity": 0.5590551181102362,
          "duration": 1.5078125
        },
        {
          "name": "D4",
          "midi": 62,
          "time": 381,
          "velocity": 0.4645669291338583,
          "duration": 0.75
        },
        {
          "name": "D5",
          "midi": 74,
          "time": 381,
          "velocity": 0.4645669291338583,
          "duration": 0.75
        },
        {
          "name": "F4",
          "midi": 65,
          "time": 381.75,
          "velocity": 0.47244094488188976,
          "duration": 0.75
        },
        {
          "name": "A4",
          "midi": 69,
          "time": 381.75,
          "velocity": 0.47244094488188976,
          "duration": 0.75
        },
        {
          "name": "C5",
          "midi": 72,
          "time": 381.7578125,
          "velocity": 0.47244094488188976,
          "duration": 0.75
        },
        {
          "name": "C4",
          "midi": 60,
          "time": 381.7578125,
          "velocity": 0.47244094488188976,
          "duration": 0.75
        },
        {
          "name": "A#4",
          "midi": 70,
          "time": 382.5,
          "velocity": 0.47244094488188976,
          "duration": 0.75
        },
        {
          "name": "A#3",
          "midi": 58,
          "time": 382.5,
          "velocity": 0.47244094488188976,
          "duration": 0.75
        },
        {
          "name": "D4",
          "midi": 62,
          "time": 382.5,
          "velocity": 0.47244094488188976,
          "duration": 0.75
        },
        {
          "name": "A4",
          "midi": 69,
          "time": 383.25,
          "velocity": 0.47244094488188976,
          "duration": 0.75
        },
        {
          "name": "A3",
          "midi": 57,
          "time": 383.25,
          "velocity": 0.47244094488188976,
          "duration": 0.75
        },
        {
          "name": "A#3",
          "midi": 58,
          "time": 384,
          "velocity": 0.48031496062992124,
          "duration": 0.75
        },
        {
          "name": "A#4",
          "midi": 70,
          "time": 384,
          "velocity": 0.48031496062992124,
          "duration": 0.75
        },
        {
          "name": "D4",
          "midi": 62,
          "time": 384,
          "velocity": 0.48031496062992124,
          "duration": 0.75
        },
        {
          "name": "F4",
          "midi": 65,
          "time": 384,
          "velocity": 0.48031496062992124,
          "duration": 0.75
        },
        {
          "name": "C4",
          "midi": 60,
          "time": 384.75,
          "velocity": 0.48031496062992124,
          "duration": 0.75
        },
        {
          "name": "C5",
          "midi": 72,
          "time": 384.75,
          "velocity": 0.48031496062992124,
          "duration": 0.75
        },
        {
          "name": "D4",
          "midi": 62,
          "time": 385.5,
          "velocity": 0.4881889763779528,
          "duration": 0.75
        },
        {
          "name": "F4",
          "midi": 65,
          "time": 385.5,
          "velocity": 0.4881889763779528,
          "duration": 0.75
        },
        {
          "name": "D5",
          "midi": 74,
          "time": 385.5,
          "velocity": 0.4881889763779528,
          "duration": 0.75
        },
        {
          "name": "F4",
          "midi": 65,
          "time": 386.25,
          "velocity": 0.4881889763779528,
          "duration": 1.5
        },
        {
          "name": "D4",
          "midi": 62,
          "time": 386.25,
          "velocity": 0.4881889763779528,
          "duration": 1.5
        },
        {
          "name": "A#3",
          "midi": 58,
          "time": 386.25,
          "velocity": 0.4881889763779528,
          "duration": 1.5
        },
        {
          "name": "F4",
          "midi": 65,
          "time": 387.75,
          "velocity": 0.4881889763779528,
          "duration": 0.75
        },
        {
          "name": "D#5",
          "midi": 75,
          "time": 388.5,
          "velocity": 0.4881889763779528,
          "duration": 1.5
        },
        {
          "name": "D#4",
          "midi": 63,
          "time": 388.5,
          "velocity": 0.4881889763779528,
          "duration": 1.5
        },
        {
          "name": "G4",
          "midi": 67,
          "time": 388.5,
          "velocity": 0.4881889763779528,
          "duration": 1.5
        },
        {
          "name": "A#4",
          "midi": 70,
          "time": 388.5,
          "velocity": 0.4881889763779528,
          "duration": 1.5
        },
        {
          "name": "D4",
          "midi": 62,
          "time": 390,
          "velocity": 0.4881889763779528,
          "duration": 0.75
        },
        {
          "name": "D5",
          "midi": 74,
          "time": 390,
          "velocity": 0.4881889763779528,
          "duration": 0.75
        },
        {
          "name": "C4",
          "midi": 60,
          "time": 390.75,
          "velocity": 0.49606299212598426,
          "duration": 0.75
        },
        {
          "name": "C5",
          "midi": 72,
          "time": 390.75,
          "velocity": 0.49606299212598426,
          "duration": 0.75
        },
        {
          "name": "F4",
          "midi": 65,
          "time": 390.75,
          "velocity": 0.49606299212598426,
          "duration": 0.75
        },
        {
          "name": "A4",
          "midi": 69,
          "time": 390.75,
          "velocity": 0.49606299212598426,
          "duration": 0.75
        },
        {
          "name": "A#3",
          "midi": 58,
          "time": 391.5,
          "velocity": 0.49606299212598426,
          "duration": 0.75
        },
        {
          "name": "A#4",
          "midi": 70,
          "time": 391.5,
          "velocity": 0.49606299212598426,
          "duration": 0.75
        },
        {
          "name": "C4",
          "midi": 60,
          "time": 392.25,
          "velocity": 0.49606299212598426,
          "duration": 0.75
        },
        {
          "name": "C5",
          "midi": 72,
          "time": 392.25,
          "velocity": 0.49606299212598426,
          "duration": 0.75
        },
        {
          "name": "D4",
          "midi": 62,
          "time": 393,
          "velocity": 0.49606299212598426,
          "duration": 1.875
        },
        {
          "name": "D5",
          "midi": 74,
          "time": 393,
          "velocity": 0.49606299212598426,
          "duration": 2.25
        },
        {
          "name": "F4",
          "midi": 65,
          "time": 393,
          "velocity": 0.49606299212598426,
          "duration": 2.25
        },
        {
          "name": "A#4",
          "midi": 70,
          "time": 393,
          "velocity": 0.49606299212598426,
          "duration": 2.25
        },
        {
          "name": "D4",
          "midi": 62,
          "time": 394.5,
          "velocity": 0.49606299212598426,
          "duration": 0.75
        },
        {
          "name": "F4",
          "midi": 65,
          "time": 394.875,
          "velocity": 0.49606299212598426,
          "duration": 0.375
        },
        {
          "name": "A4",
          "midi": 69,
          "time": 395.25,
          "velocity": 0.49606299212598426,
          "duration": 1.5
        },
        {
          "name": "D5",
          "midi": 74,
          "time": 396.75,
          "velocity": 0.5905511811023622,
          "duration": 0.75
        },
        {
          "name": "D5",
          "midi": 74,
          "time": 397.5,
          "velocity": 0.41732283464566927,
          "duration": 0.234375
        },
        {
          "name": "E5",
          "midi": 76,
          "time": 397.734375,
          "velocity": 0.4330708661417323,
          "duration": 0.234375
        },
        {
          "name": "D5",
          "midi": 74,
          "time": 397.96875,
          "velocity": 0.44881889763779526,
          "duration": 0.234375
        },
        {
          "name": "C#5",
          "midi": 73,
          "time": 398.25,
          "velocity": 0.6062992125984252,
          "duration": 0.75
        },
        {
          "name": "D5",
          "midi": 74,
          "time": 399,
          "velocity": 0.6692913385826772,
          "duration": 0.75
        },
        {
          "name": "F5",
          "midi": 77,
          "time": 399.75,
          "velocity": 0.6062992125984252,
          "duration": 0.75
        },
        {
          "name": "F4",
          "midi": 65,
          "time": 399.75,
          "velocity": 0.6062992125984252,
          "duration": 0.75
        },
        {
          "name": "D5",
          "midi": 74,
          "time": 399.75,
          "velocity": 0.6062992125984252,
          "duration": 0.75
        },
        {
          "name": "A4",
          "midi": 69,
          "time": 399.75,
          "velocity": 0.6062992125984252,
          "duration": 0.75
        },
        {
          "name": "E5",
          "midi": 76,
          "time": 400.5,
          "velocity": 0.5826771653543307,
          "duration": 0.75
        },
        {
          "name": "E4",
          "midi": 64,
          "time": 400.5,
          "velocity": 0.5826771653543307,
          "duration": 0.75
        },
        {
          "name": "D4",
          "midi": 62,
          "time": 401.25,
          "velocity": 0.5433070866141733,
          "duration": 0.75
        },
        {
          "name": "D5",
          "midi": 74,
          "time": 401.25,
          "velocity": 0.5433070866141733,
          "duration": 0.75
        },
        {
          "name": "C#5",
          "midi": 73,
          "time": 402,
          "velocity": 0.5905511811023622,
          "duration": 1.5
        },
        {
          "name": "C#4",
          "midi": 61,
          "time": 402,
          "velocity": 0.5905511811023622,
          "duration": 1.5
        },
        {
          "name": "A#4",
          "midi": 70,
          "time": 402,
          "velocity": 0.5905511811023622,
          "duration": 1.5
        },
        {
          "name": "G4",
          "midi": 67,
          "time": 402,
          "velocity": 0.5905511811023622,
          "duration": 1.5
        },
        {
          "name": "G4",
          "midi": 67,
          "time": 403.5,
          "velocity": 0.4566929133858268,
          "duration": 0.75
        },
        {
          "name": "A#4",
          "midi": 70,
          "time": 403.5,
          "velocity": 0.4566929133858268,
          "duration": 0.75
        },
        {
          "name": "E4",
          "midi": 64,
          "time": 403.5,
          "velocity": 0.4566929133858268,
          "duration": 0.75
        },
        {
          "name": "E5",
          "midi": 76,
          "time": 403.5,
          "velocity": 0.4566929133858268,
          "duration": 0.75
        },
        {
          "name": "E4",
          "midi": 64,
          "time": 404.25,
          "velocity": 0.5905511811023622,
          "duration": 1.40625
        },
        {
          "name": "C#4",
          "midi": 61,
          "time": 404.25,
          "velocity": 0.5905511811023622,
          "duration": 1.40625
        },
        {
          "name": "A3",
          "midi": 57,
          "time": 404.25,
          "velocity": 0.5905511811023622,
          "duration": 1.40625
        },
        {
          "name": "A4",
          "midi": 69,
          "time": 404.25,
          "velocity": 0.5905511811023622,
          "duration": 1.40625
        },
        {
          "name": "A4",
          "midi": 69,
          "time": 405.65625,
          "velocity": 0.4881889763779528,
          "duration": 0.171875
        },
        {
          "name": "A#4",
          "midi": 70,
          "time": 405.828125,
          "velocity": 0.4881889763779528,
          "duration": 0.1640625
        },
        {
          "name": "A4",
          "midi": 69,
          "time": 405.9921875,
          "velocity": 0.4881889763779528,
          "duration": 0.171875
        },
        {
          "name": "G#4",
          "midi": 68,
          "time": 406.1640625,
          "velocity": 0.5039370078740157,
          "duration": 0.1640625
        },
        {
          "name": "A4",
          "midi": 69,
          "time": 406.328125,
          "velocity": 0.4881889763779528,
          "duration": 0.171875
        },
        {
          "name": "A5",
          "midi": 81,
          "time": 406.5,
          "velocity": 0.7086614173228346,
          "duration": 1.5
        },
        {
          "name": "A5",
          "midi": 81,
          "time": 408,
          "velocity": 0.6535433070866141,
          "duration": 0.375
        },
        {
          "name": "F5",
          "midi": 77,
          "time": 408,
          "velocity": 0.6535433070866141,
          "duration": 0.375
        },
        {
          "name": "A4",
          "midi": 69,
          "time": 408.375,
          "velocity": 0.6535433070866141,
          "duration": 0.375
        },
        {
          "name": "A5",
          "midi": 81,
          "time": 408.75,
          "velocity": 0.6692913385826772,
          "duration": 0.375
        },
        {
          "name": "F5",
          "midi": 77,
          "time": 408.75,
          "velocity": 0.6692913385826772,
          "duration": 0.375
        },
        {
          "name": "A4",
          "midi": 69,
          "time": 409.125,
          "velocity": 0.6850393700787402,
          "duration": 0.375
        },
        {
          "name": "G5",
          "midi": 79,
          "time": 409.5,
          "velocity": 0.7007874015748031,
          "duration": 0.375
        },
        {
          "name": "E5",
          "midi": 76,
          "time": 409.5,
          "velocity": 0.7007874015748031,
          "duration": 0.375
        },
        {
          "name": "A4",
          "midi": 69,
          "time": 409.875,
          "velocity": 0.7165354330708661,
          "duration": 0.375
        },
        {
          "name": "F5",
          "midi": 77,
          "time": 410.25,
          "velocity": 0.7322834645669292,
          "duration": 0.375
        },
        {
          "name": "D5",
          "midi": 74,
          "time": 410.25,
          "velocity": 0.7322834645669292,
          "duration": 0.375
        },
        {
          "name": "A4",
          "midi": 69,
          "time": 410.625,
          "velocity": 0.7401574803149606,
          "duration": 0.375
        },
        {
          "name": "A4",
          "midi": 69,
          "time": 411,
          "velocity": 0.7559055118110236,
          "duration": 0.75
        },
        {
          "name": "A#4",
          "midi": 70,
          "time": 411,
          "velocity": 0.7559055118110236,
          "duration": 0.75
        },
        {
          "name": "C#5",
          "midi": 73,
          "time": 411,
          "velocity": 0.7559055118110236,
          "duration": 0.75
        },
        {
          "name": "G5",
          "midi": 79,
          "time": 411,
          "velocity": 0.7559055118110236,
          "duration": 0.75
        },
        {
          "name": "A4",
          "midi": 69,
          "time": 411.75,
          "velocity": 0.7874015748031497,
          "duration": 1.5
        },
        {
          "name": "C#5",
          "midi": 73,
          "time": 411.75,
          "velocity": 0.7874015748031497,
          "duration": 1.5
        },
        {
          "name": "E5",
          "midi": 76,
          "time": 411.75,
          "velocity": 0.7874015748031497,
          "duration": 1.5
        },
        {
          "name": "G4",
          "midi": 67,
          "time": 411.75,
          "velocity": 0.7874015748031497,
          "duration": 1.5
        },
        {
          "name": "C#5",
          "midi": 73,
          "time": 413.25,
          "velocity": 0.8503937007874016,
          "duration": 1.5
        },
        {
          "name": "A4",
          "midi": 69,
          "time": 413.25,
          "velocity": 0.8503937007874016,
          "duration": 1.5
        },
        {
          "name": "G4",
          "midi": 67,
          "time": 413.25,
          "velocity": 0.8503937007874016,
          "duration": 1.5
        },
        {
          "name": "A3",
          "midi": 57,
          "time": 414.75,
          "velocity": 0.7401574803149606,
          "duration": 0.75
        },
        {
          "name": "A4",
          "midi": 69,
          "time": 414.75,
          "velocity": 0.7401574803149606,
          "duration": 0.75
        },
        {
          "name": "A4",
          "midi": 69,
          "time": 415.5,
          "velocity": 0.8031496062992126,
          "duration": 1.5
        },
        {
          "name": "F#4",
          "midi": 66,
          "time": 415.5,
          "velocity": 0.8031496062992126,
          "duration": 1.5
        },
        {
          "name": "D5",
          "midi": 74,
          "time": 415.5,
          "velocity": 0.8031496062992126,
          "duration": 1.5
        },
        {
          "name": "F#5",
          "midi": 78,
          "time": 415.5,
          "velocity": 0.8031496062992126,
          "duration": 1.5
        },
        {
          "name": "F#5",
          "midi": 78,
          "time": 417,
          "velocity": 0.6614173228346457,
          "duration": 0.75
        },
        {
          "name": "D5",
          "midi": 74,
          "time": 417,
          "velocity": 0.6614173228346457,
          "duration": 0.75
        },
        {
          "name": "F#4",
          "midi": 66,
          "time": 417,
          "velocity": 0.6614173228346457,
          "duration": 0.75
        },
        {
          "name": "A4",
          "midi": 69,
          "time": 417,
          "velocity": 0.6614173228346457,
          "duration": 0.75
        },
        {
          "name": "F#5",
          "midi": 78,
          "time": 417.75,
          "velocity": 0.7165354330708661,
          "duration": 0.75
        },
        {
          "name": "D5",
          "midi": 74,
          "time": 417.75,
          "velocity": 0.7165354330708661,
          "duration": 0.75
        },
        {
          "name": "F#4",
          "midi": 66,
          "time": 417.75,
          "velocity": 0.7165354330708661,
          "duration": 0.75
        },
        {
          "name": "A4",
          "midi": 69,
          "time": 417.75,
          "velocity": 0.7165354330708661,
          "duration": 0.75
        },
        {
          "name": "D5",
          "midi": 74,
          "time": 418.5,
          "velocity": 0.8110236220472441,
          "duration": 0.75
        },
        {
          "name": "G4",
          "midi": 67,
          "time": 418.5,
          "velocity": 0.8110236220472441,
          "duration": 0.75
        },
        {
          "name": "G5",
          "midi": 79,
          "time": 418.5,
          "velocity": 0.8110236220472441,
          "duration": 0.75
        },
        {
          "name": "A5",
          "midi": 81,
          "time": 419.25,
          "velocity": 0.8661417322834646,
          "duration": 0.75
        },
        {
          "name": "A4",
          "midi": 69,
          "time": 419.25,
          "velocity": 0.8661417322834646,
          "duration": 0.75
        },
        {
          "name": "A#5",
          "midi": 82,
          "time": 420,
          "velocity": 0.9448818897637795,
          "duration": 2.25
        },
        {
          "name": "A#4",
          "midi": 70,
          "time": 420,
          "velocity": 0.9448818897637795,
          "duration": 1.5
        },
        {
          "name": "D5",
          "midi": 74,
          "time": 420,
          "velocity": 0.9448818897637795,
          "duration": 1.5
        },
        {
          "name": "G5",
          "midi": 79,
          "time": 420,
          "velocity": 0.9448818897637795,
          "duration": 2.25
        },
        {
          "name": "G4",
          "midi": 67,
          "time": 421.5,
          "velocity": 0.5984251968503937,
          "duration": 1.5
        },
        {
          "name": "A#4",
          "midi": 70,
          "time": 421.5,
          "velocity": 0.5984251968503937,
          "duration": 1.5
        },
        {
          "name": "D5",
          "midi": 74,
          "time": 421.5,
          "velocity": 0.5984251968503937,
          "duration": 1.5
        },
        {
          "name": "G4",
          "midi": 67,
          "time": 423,
          "velocity": 0.5039370078740157,
          "duration": 0.75
        },
        {
          "name": "D5",
          "midi": 74,
          "time": 423,
          "velocity": 0.5039370078740157,
          "duration": 0.75
        },
        {
          "name": "A#4",
          "midi": 70,
          "time": 423,
          "velocity": 0.5039370078740157,
          "duration": 0.75
        },
        {
          "name": "G4",
          "midi": 67,
          "time": 423.75,
          "velocity": 0.5039370078740157,
          "duration": 0.75
        },
        {
          "name": "D5",
          "midi": 74,
          "time": 423.75,
          "velocity": 0.5039370078740157,
          "duration": 0.75
        },
        {
          "name": "A#4",
          "midi": 70,
          "time": 423.75,
          "velocity": 0.5039370078740157,
          "duration": 0.75
        },
        {
          "name": "E4",
          "midi": 64,
          "time": 424.5,
          "velocity": 0.7952755905511811,
          "duration": 1.5
        },
        {
          "name": "C5",
          "midi": 72,
          "time": 424.5,
          "velocity": 0.7952755905511811,
          "duration": 1.5
        },
        {
          "name": "A#4",
          "midi": 70,
          "time": 424.5,
          "velocity": 0.7952755905511811,
          "duration": 1.5
        },
        {
          "name": "E5",
          "midi": 76,
          "time": 424.5,
          "velocity": 0.7952755905511811,
          "duration": 1.5
        },
        {
          "name": "G4",
          "midi": 67,
          "time": 424.5,
          "velocity": 0.7952755905511811,
          "duration": 1.5
        },
        {
          "name": "G4",
          "midi": 67,
          "time": 426,
          "velocity": 0.7007874015748031,
          "duration": 0.75
        },
        {
          "name": "E5",
          "midi": 76,
          "time": 426,
          "velocity": 0.7007874015748031,
          "duration": 0.75
        },
        {
          "name": "A#4",
          "midi": 70,
          "time": 426,
          "velocity": 0.7007874015748031,
          "duration": 0.75
        },
        {
          "name": "C5",
          "midi": 72,
          "time": 426,
          "velocity": 0.7007874015748031,
          "duration": 0.75
        },
        {
          "name": "E4",
          "midi": 64,
          "time": 426,
          "velocity": 0.7007874015748031,
          "duration": 0.75
        },
        {
          "name": "E5",
          "midi": 76,
          "time": 426.75,
          "velocity": 0.7480314960629921,
          "duration": 0.75
        },
        {
          "name": "E4",
          "midi": 64,
          "time": 426.75,
          "velocity": 0.7480314960629921,
          "duration": 0.75
        },
        {
          "name": "C5",
          "midi": 72,
          "time": 426.75,
          "velocity": 0.7480314960629921,
          "duration": 0.75
        },
        {
          "name": "A#4",
          "midi": 70,
          "time": 426.75,
          "velocity": 0.7480314960629921,
          "duration": 0.75
        },
        {
          "name": "G4",
          "midi": 67,
          "time": 426.75,
          "velocity": 0.7480314960629921,
          "duration": 0.75
        },
        {
          "name": "D5",
          "midi": 74,
          "time": 427.5,
          "velocity": 0.7795275590551181,
          "duration": 0.75
        },
        {
          "name": "A#4",
          "midi": 70,
          "time": 427.5,
          "velocity": 0.7795275590551181,
          "duration": 0.75
        },
        {
          "name": "F4",
          "midi": 65,
          "time": 427.5,
          "velocity": 0.7795275590551181,
          "duration": 0.75
        },
        {
          "name": "F5",
          "midi": 77,
          "time": 427.5,
          "velocity": 0.7795275590551181,
          "duration": 0.75
        },
        {
          "name": "G4",
          "midi": 67,
          "time": 428.25,
          "velocity": 0.8188976377952756,
          "duration": 0.75
        },
        {
          "name": "D5",
          "midi": 74,
          "time": 428.25,
          "velocity": 0.8188976377952756,
          "duration": 0.75
        },
        {
          "name": "C5",
          "midi": 72,
          "time": 428.25,
          "velocity": 0.8188976377952756,
          "duration": 0.75
        },
        {
          "name": "A#4",
          "midi": 70,
          "time": 428.25,
          "velocity": 0.8188976377952756,
          "duration": 0.75
        },
        {
          "name": "G5",
          "midi": 79,
          "time": 428.25,
          "velocity": 0.8188976377952756,
          "duration": 0.75
        },
        {
          "name": "A5",
          "midi": 81,
          "time": 429,
          "velocity": 0.8661417322834646,
          "duration": 2.25
        },
        {
          "name": "A4",
          "midi": 69,
          "time": 429,
          "velocity": 0.8661417322834646,
          "duration": 1.5
        },
        {
          "name": "F5",
          "midi": 77,
          "time": 429,
          "velocity": 0.8661417322834646,
          "duration": 2.25
        },
        {
          "name": "C5",
          "midi": 72,
          "time": 429,
          "velocity": 0.8661417322834646,
          "duration": 2.25
        },
        {
          "name": "A4",
          "midi": 69,
          "time": 430.5,
          "velocity": 0.6377952755905512,
          "duration": 0.75
        },
        {
          "name": "F4",
          "midi": 65,
          "time": 430.5,
          "velocity": 0.6377952755905512,
          "duration": 0.75
        },
        {
          "name": "C4",
          "midi": 60,
          "time": 430.5,
          "velocity": 0.6377952755905512,
          "duration": 0.75
        },
        {
          "name": "A4",
          "midi": 69,
          "time": 431.25,
          "velocity": 0.6456692913385826,
          "duration": 0.75
        },
        {
          "name": "F4",
          "midi": 65,
          "time": 431.25,
          "velocity": 0.6456692913385826,
          "duration": 0.75
        },
        {
          "name": "G5",
          "midi": 79,
          "time": 432,
          "velocity": 0.84251968503937,
          "duration": 0.75
        },
        {
          "name": "G4",
          "midi": 67,
          "time": 432,
          "velocity": 0.84251968503937,
          "duration": 0.75
        },
        {
          "name": "A#4",
          "midi": 70,
          "time": 432,
          "velocity": 0.84251968503937,
          "duration": 0.75
        },
        {
          "name": "D5",
          "midi": 74,
          "time": 432,
          "velocity": 0.84251968503937,
          "duration": 0.75
        },
        {
          "name": "D5",
          "midi": 74,
          "time": 432.75,
          "velocity": 0.6614173228346457,
          "duration": 0.75
        },
        {
          "name": "A#4",
          "midi": 70,
          "time": 432.75,
          "velocity": 0.6614173228346457,
          "duration": 0.75
        },
        {
          "name": "F4",
          "midi": 65,
          "time": 432.75,
          "velocity": 0.6614173228346457,
          "duration": 0.75
        },
        {
          "name": "F5",
          "midi": 77,
          "time": 432.75,
          "velocity": 0.6614173228346457,
          "duration": 0.75
        },
        {
          "name": "E5",
          "midi": 76,
          "time": 433.5,
          "velocity": 0.6692913385826772,
          "duration": 0.75
        },
        {
          "name": "E4",
          "midi": 64,
          "time": 433.5,
          "velocity": 0.6692913385826772,
          "duration": 0.75
        },
        {
          "name": "G4",
          "midi": 67,
          "time": 433.5,
          "velocity": 0.6692913385826772,
          "duration": 0.75
        },
        {
          "name": "A#4",
          "midi": 70,
          "time": 433.5,
          "velocity": 0.6692913385826772,
          "duration": 0.75
        },
        {
          "name": "D#4",
          "midi": 63,
          "time": 434.25,
          "velocity": 0.6535433070866141,
          "duration": 0.75
        },
        {
          "name": "D#5",
          "midi": 75,
          "time": 434.25,
          "velocity": 0.6535433070866141,
          "duration": 0.75
        },
        {
          "name": "A4",
          "midi": 69,
          "time": 434.25,
          "velocity": 0.6535433070866141,
          "duration": 0.75
        },
        {
          "name": "F#4",
          "midi": 66,
          "time": 434.25,
          "velocity": 0.6535433070866141,
          "duration": 0.75
        },
        {
          "name": "E4",
          "midi": 64,
          "time": 435,
          "velocity": 0.6535433070866141,
          "duration": 0.75
        },
        {
          "name": "G4",
          "midi": 67,
          "time": 435,
          "velocity": 0.6535433070866141,
          "duration": 0.75
        },
        {
          "name": "A#4",
          "midi": 70,
          "time": 435,
          "velocity": 0.6535433070866141,
          "duration": 0.75
        },
        {
          "name": "E5",
          "midi": 76,
          "time": 435,
          "velocity": 0.6535433070866141,
          "duration": 0.75
        },
        {
          "name": "G4",
          "midi": 67,
          "time": 435.75,
          "velocity": 0.8740157480314961,
          "duration": 0.75
        },
        {
          "name": "G5",
          "midi": 79,
          "time": 435.75,
          "velocity": 0.8740157480314961,
          "duration": 0.75
        },
        {
          "name": "A#4",
          "midi": 70,
          "time": 435.75,
          "velocity": 0.8740157480314961,
          "duration": 0.75
        },
        {
          "name": "E5",
          "midi": 76,
          "time": 435.75,
          "velocity": 0.8740157480314961,
          "duration": 0.75
        },
        {
          "name": "F5",
          "midi": 77,
          "time": 436.5,
          "velocity": 0.7086614173228346,
          "duration": 0.75
        },
        {
          "name": "F4",
          "midi": 65,
          "time": 436.5,
          "velocity": 0.7086614173228346,
          "duration": 0.75
        },
        {
          "name": "A#4",
          "midi": 70,
          "time": 436.5,
          "velocity": 0.7086614173228346,
          "duration": 0.75
        },
        {
          "name": "E4",
          "midi": 64,
          "time": 437.25,
          "velocity": 0.7007874015748031,
          "duration": 0.75
        },
        {
          "name": "E5",
          "midi": 76,
          "time": 437.25,
          "velocity": 0.7007874015748031,
          "duration": 0.75
        },
        {
          "name": "G4",
          "midi": 67,
          "time": 437.25,
          "velocity": 0.7007874015748031,
          "duration": 0.75
        },
        {
          "name": "A#4",
          "midi": 70,
          "time": 437.25,
          "velocity": 0.7007874015748031,
          "duration": 0.75
        },
        {
          "name": "D4",
          "midi": 62,
          "time": 438,
          "velocity": 0.8110236220472441,
          "duration": 0.75
        },
        {
          "name": "D5",
          "midi": 74,
          "time": 438,
          "velocity": 0.8110236220472441,
          "duration": 0.75
        },
        {
          "name": "A4",
          "midi": 69,
          "time": 438,
          "velocity": 0.8110236220472441,
          "duration": 0.75
        },
        {
          "name": "F4",
          "midi": 65,
          "time": 438,
          "velocity": 0.8110236220472441,
          "duration": 0.75
        },
        {
          "name": "C#5",
          "midi": 73,
          "time": 438.75,
          "velocity": 0.6771653543307087,
          "duration": 0.75
        },
        {
          "name": "C#4",
          "midi": 61,
          "time": 438.75,
          "velocity": 0.6771653543307087,
          "duration": 0.75
        },
        {
          "name": "F4",
          "midi": 65,
          "time": 438.75,
          "velocity": 0.6771653543307087,
          "duration": 0.75
        },
        {
          "name": "A4",
          "midi": 69,
          "time": 438.75,
          "velocity": 0.6771653543307087,
          "duration": 0.75
        },
        {
          "name": "D5",
          "midi": 74,
          "time": 439.5,
          "velocity": 0.6692913385826772,
          "duration": 0.75
        },
        {
          "name": "D4",
          "midi": 62,
          "time": 439.5,
          "velocity": 0.6692913385826772,
          "duration": 0.75
        },
        {
          "name": "A4",
          "midi": 69,
          "time": 439.5,
          "velocity": 0.6692913385826772,
          "duration": 0.75
        },
        {
          "name": "F4",
          "midi": 65,
          "time": 439.5,
          "velocity": 0.6692913385826772,
          "duration": 0.75
        },
        {
          "name": "E5",
          "midi": 76,
          "time": 440.25,
          "velocity": 0.8503937007874016,
          "duration": 1.5
        },
        {
          "name": "E4",
          "midi": 64,
          "time": 440.25,
          "velocity": 0.8503937007874016,
          "duration": 0.984375
        },
        {
          "name": "A4",
          "midi": 69,
          "time": 440.25,
          "velocity": 0.8503937007874016,
          "duration": 1.1640625
        },
        {
          "name": "C#5",
          "midi": 73,
          "time": 440.25,
          "velocity": 0.8503937007874016,
          "duration": 1.5
        },
        {
          "name": "A3",
          "midi": 57,
          "time": 440.953125,
          "velocity": 0.3858267716535433,
          "duration": 0.1640625
        },
        {
          "name": "C#4",
          "midi": 61,
          "time": 441.1171875,
          "velocity": 0.41732283464566927,
          "duration": 0.1484375
        },
        {
          "name": "E4",
          "midi": 64,
          "time": 441.265625,
          "velocity": 0.4330708661417323,
          "duration": 0.15625
        },
        {
          "name": "A4",
          "midi": 69,
          "time": 441.421875,
          "velocity": 0.5590551181102362,
          "duration": 0.171875
        },
        {
          "name": "A4",
          "midi": 69,
          "time": 441.59375,
          "velocity": 0.5826771653543307,
          "duration": 0.90625
        },
        {
          "name": "A5",
          "midi": 81,
          "time": 441.7421875,
          "velocity": 0.984251968503937,
          "duration": 0.7578125
        },
        {
          "name": "C6",
          "midi": 84,
          "time": 442.4921875,
          "velocity": 0.968503937007874,
          "duration": 1.5078125
        },
        {
          "name": "C5",
          "midi": 72,
          "time": 442.5,
          "velocity": 0.968503937007874,
          "duration": 1.5078125
        },
        {
          "name": "G5",
          "midi": 79,
          "time": 442.5,
          "velocity": 0.968503937007874,
          "duration": 1.5
        },
        {
          "name": "D#5",
          "midi": 75,
          "time": 442.5,
          "velocity": 0.968503937007874,
          "duration": 1.5
        },
        {
          "name": "A#5",
          "midi": 82,
          "time": 444,
          "velocity": 0.7952755905511811,
          "duration": 0.75
        },
        {
          "name": "G5",
          "midi": 79,
          "time": 444,
          "velocity": 0.7952755905511811,
          "duration": 0.7578125
        },
        {
          "name": "D#5",
          "midi": 75,
          "time": 444,
          "velocity": 0.7952755905511811,
          "duration": 0.7109375
        },
        {
          "name": "A#4",
          "midi": 70,
          "time": 444,
          "velocity": 0.7952755905511811,
          "duration": 0.75
        },
        {
          "name": "A5",
          "midi": 81,
          "time": 444.75,
          "velocity": 0.8976377952755905,
          "duration": 1.5
        },
        {
          "name": "A4",
          "midi": 69,
          "time": 444.75,
          "velocity": 0.8976377952755905,
          "duration": 1.5
        },
        {
          "name": "D#5",
          "midi": 75,
          "time": 444.75,
          "velocity": 0.8976377952755905,
          "duration": 1.5
        },
        {
          "name": "C5",
          "midi": 72,
          "time": 444.75,
          "velocity": 0.8976377952755905,
          "duration": 1.5
        },
        {
          "name": "C5",
          "midi": 72,
          "time": 446.25,
          "velocity": 0.7952755905511811,
          "duration": 0.75
        },
        {
          "name": "D#5",
          "midi": 75,
          "time": 446.25,
          "velocity": 0.7952755905511811,
          "duration": 0.75
        },
        {
          "name": "G5",
          "midi": 79,
          "time": 446.25,
          "velocity": 0.7952755905511811,
          "duration": 0.75
        },
        {
          "name": "G4",
          "midi": 67,
          "time": 446.25,
          "velocity": 0.7952755905511811,
          "duration": 0.75
        },
        {
          "name": "D5",
          "midi": 74,
          "time": 447,
          "velocity": 0.968503937007874,
          "duration": 0.375
        },
        {
          "name": "F#4",
          "midi": 66,
          "time": 447,
          "velocity": 0.968503937007874,
          "duration": 0.375
        },
        {
          "name": "F#5",
          "midi": 78,
          "time": 447,
          "velocity": 0.968503937007874,
          "duration": 0.375
        },
        {
          "name": "A4",
          "midi": 69,
          "time": 447.375,
          "velocity": 0.8031496062992126,
          "duration": 0.375
        },
        {
          "name": "A5",
          "midi": 81,
          "time": 447.375,
          "velocity": 0.7480314960629921,
          "duration": 0.375
        },
        {
          "name": "C6",
          "midi": 84,
          "time": 447.75,
          "velocity": 0.7480314960629921,
          "duration": 0.234375
        },
        {
          "name": "C5",
          "midi": 72,
          "time": 447.75,
          "velocity": 0.8031496062992126,
          "duration": 0.234375
        },
        {
          "name": "D5",
          "midi": 74,
          "time": 447.984375,
          "velocity": 0.8188976377952756,
          "duration": 0.234375
        },
        {
          "name": "D6",
          "midi": 86,
          "time": 447.984375,
          "velocity": 0.7480314960629921,
          "duration": 0.234375
        },
        {
          "name": "C6",
          "midi": 84,
          "time": 448.21875,
          "velocity": 0.7480314960629921,
          "duration": 0.234375
        },
        {
          "name": "C5",
          "midi": 72,
          "time": 448.21875,
          "velocity": 0.8031496062992126,
          "duration": 0.234375
        },
        {
          "name": "A#4",
          "midi": 70,
          "time": 448.5,
          "velocity": 0.8031496062992126,
          "duration": 1.5
        },
        {
          "name": "A#5",
          "midi": 82,
          "time": 448.5,
          "velocity": 0.7480314960629921,
          "duration": 1.5
        },
        {
          "name": "A#5",
          "midi": 82,
          "time": 450,
          "velocity": 0.7480314960629921,
          "duration": 0.234375
        },
        {
          "name": "A#4",
          "midi": 70,
          "time": 450,
          "velocity": 0.7480314960629921,
          "duration": 0.234375
        },
        {
          "name": "C5",
          "midi": 72,
          "time": 450.234375,
          "velocity": 0.7480314960629921,
          "duration": 0.234375
        },
        {
          "name": "C6",
          "midi": 84,
          "time": 450.234375,
          "velocity": 0.7480314960629921,
          "duration": 0.234375
        },
        {
          "name": "A#4",
          "midi": 70,
          "time": 450.46875,
          "velocity": 0.7480314960629921,
          "duration": 0.234375
        },
        {
          "name": "A#5",
          "midi": 82,
          "time": 450.46875,
          "velocity": 0.7480314960629921,
          "duration": 0.234375
        },
        {
          "name": "A5",
          "midi": 81,
          "time": 450.75,
          "velocity": 0.8267716535433071,
          "duration": 1.5
        },
        {
          "name": "A4",
          "midi": 69,
          "time": 450.75,
          "velocity": 0.84251968503937,
          "duration": 1.5
        },
        {
          "name": "G5",
          "midi": 79,
          "time": 452.25,
          "velocity": 0.7244094488188977,
          "duration": 0.234375
        },
        {
          "name": "G4",
          "midi": 67,
          "time": 452.25,
          "velocity": 0.7244094488188977,
          "duration": 0.234375
        },
        {
          "name": "A5",
          "midi": 81,
          "time": 452.484375,
          "velocity": 0.7322834645669292,
          "duration": 0.234375
        },
        {
          "name": "A4",
          "midi": 69,
          "time": 452.484375,
          "velocity": 0.7322834645669292,
          "duration": 0.234375
        },
        {
          "name": "G5",
          "midi": 79,
          "time": 452.71875,
          "velocity": 0.7322834645669292,
          "duration": 0.234375
        },
        {
          "name": "G4",
          "midi": 67,
          "time": 452.71875,
          "velocity": 0.7322834645669292,
          "duration": 0.234375
        },
        {
          "name": "F#4",
          "midi": 66,
          "time": 453,
          "velocity": 0.8503937007874016,
          "duration": 1.5
        },
        {
          "name": "F#5",
          "midi": 78,
          "time": 453,
          "velocity": 0.8503937007874016,
          "duration": 1.5
        },
        {
          "name": "D#4",
          "midi": 63,
          "time": 454.5,
          "velocity": 0.7165354330708661,
          "duration": 0.234375
        },
        {
          "name": "D#5",
          "midi": 75,
          "time": 454.5,
          "velocity": 0.7165354330708661,
          "duration": 0.234375
        },
        {
          "name": "F#4",
          "midi": 66,
          "time": 454.734375,
          "velocity": 0.7480314960629921,
          "duration": 0.234375
        },
        {
          "name": "F#5",
          "midi": 78,
          "time": 454.734375,
          "velocity": 0.7480314960629921,
          "duration": 0.234375
        },
        {
          "name": "D#4",
          "midi": 63,
          "time": 454.96875,
          "velocity": 0.7637795275590551,
          "duration": 0.234375
        },
        {
          "name": "D#5",
          "midi": 75,
          "time": 454.96875,
          "velocity": 0.7637795275590551,
          "duration": 0.234375
        },
        {
          "name": "D5",
          "midi": 74,
          "time": 455.25,
          "velocity": 0.9212598425196851,
          "duration": 1
        },
        {
          "name": "A4",
          "midi": 69,
          "time": 455.25,
          "velocity": 0.9212598425196851,
          "duration": 1
        },
        {
          "name": "F#4",
          "midi": 66,
          "time": 455.25,
          "velocity": 0.9212598425196851,
          "duration": 1
        },
        {
          "name": "D4",
          "midi": 62,
          "time": 455.25,
          "velocity": 0.9212598425196851,
          "duration": 1
        },
        {
          "name": "F#5",
          "midi": 78,
          "time": 456.25,
          "velocity": 1,
          "duration": 1
        },
        {
          "name": "F#4",
          "midi": 66,
          "time": 456.25,
          "velocity": 1,
          "duration": 1
        },
        {
          "name": "A4",
          "midi": 69,
          "time": 456.25,
          "velocity": 1,
          "duration": 1
        },
        {
          "name": "D5",
          "midi": 74,
          "time": 456.25,
          "velocity": 1,
          "duration": 1
        },
        {
          "name": "F#5",
          "midi": 78,
          "time": 457.25,
          "velocity": 1,
          "duration": 1
        },
        {
          "name": "D5",
          "midi": 74,
          "time": 457.25,
          "velocity": 1,
          "duration": 1
        },
        {
          "name": "A4",
          "midi": 69,
          "time": 457.25,
          "velocity": 1,
          "duration": 1
        },
        {
          "name": "A#5",
          "midi": 82,
          "time": 457.25,
          "velocity": 1,
          "duration": 0.953125
        },
        {
          "name": "D6",
          "midi": 86,
          "time": 458.25,
          "velocity": 1,
          "duration": 1.5
        },
        {
          "name": "D5",
          "midi": 74,
          "time": 458.25,
          "velocity": 1,
          "duration": 1.5
        },
        {
          "name": "A#5",
          "midi": 82,
          "time": 458.25,
          "velocity": 1,
          "duration": 1.5
        },
        {
          "name": "G5",
          "midi": 79,
          "time": 458.25,
          "velocity": 1,
          "duration": 1.5
        },
        {
          "name": "D6",
          "midi": 86,
          "time": 459.75,
          "velocity": 0.9291338582677166,
          "duration": 0.7578125
        },
        {
          "name": "D5",
          "midi": 74,
          "time": 459.75,
          "velocity": 0.9291338582677166,
          "duration": 0.7578125
        },
        {
          "name": "A#5",
          "midi": 82,
          "time": 459.75,
          "velocity": 0.9291338582677166,
          "duration": 0.7578125
        },
        {
          "name": "G5",
          "midi": 79,
          "time": 459.75,
          "velocity": 0.9291338582677166,
          "duration": 0.7578125
        },
        {
          "name": "C6",
          "midi": 84,
          "time": 460.5,
          "velocity": 0.8976377952755905,
          "duration": 0.7578125
        },
        {
          "name": "A5",
          "midi": 81,
          "time": 460.5,
          "velocity": 0.8976377952755905,
          "duration": 0.7578125
        },
        {
          "name": "F#5",
          "midi": 78,
          "time": 460.5,
          "velocity": 0.8976377952755905,
          "duration": 0.7109375
        },
        {
          "name": "C5",
          "midi": 72,
          "time": 460.5,
          "velocity": 0.8976377952755905,
          "duration": 0.7578125
        },
        {
          "name": "A#4",
          "midi": 70,
          "time": 461.25,
          "velocity": 0.8740157480314961,
          "duration": 0.7578125
        },
        {
          "name": "A#5",
          "midi": 82,
          "time": 461.25,
          "velocity": 0.8740157480314961,
          "duration": 0.7578125
        },
        {
          "name": "D5",
          "midi": 74,
          "time": 461.25,
          "velocity": 0.8740157480314961,
          "duration": 0.7109375
        },
        {
          "name": "F#5",
          "midi": 78,
          "time": 461.25,
          "velocity": 0.8740157480314961,
          "duration": 0.7109375
        },
        {
          "name": "A4",
          "midi": 69,
          "time": 462,
          "velocity": 0.905511811023622,
          "duration": 0.7578125
        },
        {
          "name": "A5",
          "midi": 81,
          "time": 462,
          "velocity": 0.905511811023622,
          "duration": 0.7578125
        },
        {
          "name": "F#5",
          "midi": 78,
          "time": 462,
          "velocity": 0.905511811023622,
          "duration": 0.7109375
        },
        {
          "name": "D5",
          "midi": 74,
          "time": 462,
          "velocity": 0.905511811023622,
          "duration": 0.7109375
        },
        {
          "name": "G5",
          "midi": 79,
          "time": 462.75,
          "velocity": 0.9448818897637795,
          "duration": 0.7109375
        },
        {
          "name": "D5",
          "midi": 74,
          "time": 462.75,
          "velocity": 0.9448818897637795,
          "duration": 0.7109375
        },
        {
          "name": "A#4",
          "midi": 70,
          "time": 462.75,
          "velocity": 0.9448818897637795,
          "duration": 0.7109375
        },
        {
          "name": "A#5",
          "midi": 82,
          "time": 462.75,
          "velocity": 0.9448818897637795,
          "duration": 2.9609375
        },
        {
          "name": "G5",
          "midi": 79,
          "time": 463.5,
          "velocity": 0.6692913385826772,
          "duration": 0.7109375
        },
        {
          "name": "D5",
          "midi": 74,
          "time": 463.5,
          "velocity": 0.6692913385826772,
          "duration": 0.7109375
        },
        {
          "name": "A#4",
          "midi": 70,
          "time": 463.5,
          "velocity": 0.6692913385826772,
          "duration": 0.7109375
        },
        {
          "name": "A#4",
          "midi": 70,
          "time": 464.25,
          "velocity": 0.6614173228346457,
          "duration": 0.7109375
        },
        {
          "name": "D5",
          "midi": 74,
          "time": 464.25,
          "velocity": 0.6614173228346457,
          "duration": 0.703125
        },
        {
          "name": "G5",
          "midi": 79,
          "time": 464.25,
          "velocity": 0.6614173228346457,
          "duration": 0.7109375
        },
        {
          "name": "D5",
          "midi": 74,
          "time": 464.9921875,
          "velocity": 0.8740157480314961,
          "duration": 0.7109375
        },
        {
          "name": "A#4",
          "midi": 70,
          "time": 465,
          "velocity": 0.8740157480314961,
          "duration": 0.7109375
        },
        {
          "name": "G5",
          "midi": 79,
          "time": 465,
          "velocity": 0.8740157480314961,
          "duration": 0.7109375
        },
        {
          "name": "G4",
          "midi": 67,
          "time": 465,
          "velocity": 0.8740157480314961,
          "duration": 0.7578125
        },
        {
          "name": "D5",
          "midi": 74,
          "time": 465.7421875,
          "velocity": 0.9212598425196851,
          "duration": 0.7109375
        },
        {
          "name": "G5",
          "midi": 79,
          "time": 465.75,
          "velocity": 0.9212598425196851,
          "duration": 0.7109375
        },
        {
          "name": "A#5",
          "midi": 82,
          "time": 465.75,
          "velocity": 0.9212598425196851,
          "duration": 0.7578125
        },
        {
          "name": "A#4",
          "midi": 70,
          "time": 465.75,
          "velocity": 0.9212598425196851,
          "duration": 0.7109375
        },
        {
          "name": "D5",
          "midi": 74,
          "time": 466.4921875,
          "velocity": 0.984251968503937,
          "duration": 0.7109375
        },
        {
          "name": "D6",
          "midi": 86,
          "time": 466.5,
          "velocity": 0.984251968503937,
          "duration": 0.7109375
        },
        {
          "name": "D6",
          "midi": 86,
          "time": 467.25,
          "velocity": 0.9763779527559056,
          "duration": 0.7578125
        },
        {
          "name": "G6",
          "midi": 91,
          "time": 467.25,
          "velocity": 0.9763779527559056,
          "duration": 1.4609375
        },
        {
          "name": "G5",
          "midi": 79,
          "time": 467.25,
          "velocity": 0.9763779527559056,
          "duration": 0.7109375
        },
        {
          "name": "A#5",
          "midi": 82,
          "time": 467.25,
          "velocity": 0.9763779527559056,
          "duration": 0.7109375
        },
        {
          "name": "A#5",
          "midi": 82,
          "time": 468,
          "velocity": 0.6614173228346457,
          "duration": 0.7109375
        },
        {
          "name": "G5",
          "midi": 79,
          "time": 468,
          "velocity": 0.6614173228346457,
          "duration": 0.7109375
        },
        {
          "name": "D#6",
          "midi": 87,
          "time": 468,
          "velocity": 0.6614173228346457,
          "duration": 0.7578125
        },
        {
          "name": "G6",
          "midi": 91,
          "time": 468.75,
          "velocity": 0.9291338582677166,
          "duration": 0.7109375
        },
        {
          "name": "G5",
          "midi": 79,
          "time": 468.75,
          "velocity": 0.9291338582677166,
          "duration": 0.7109375
        },
        {
          "name": "A#5",
          "midi": 82,
          "time": 469.125,
          "velocity": 0.6614173228346457,
          "duration": 0.3359375
        },
        {
          "name": "D#6",
          "midi": 87,
          "time": 469.125,
          "velocity": 0.6614173228346457,
          "duration": 0.3359375
        },
        {
          "name": "G5",
          "midi": 79,
          "time": 469.5,
          "velocity": 0.9291338582677166,
          "duration": 0.7578125
        },
        {
          "name": "A#5",
          "midi": 82,
          "time": 469.5,
          "velocity": 0.6771653543307087,
          "duration": 0.7109375
        },
        {
          "name": "D#6",
          "midi": 87,
          "time": 469.5,
          "velocity": 0.6771653543307087,
          "duration": 0.7109375
        },
        {
          "name": "G6",
          "midi": 91,
          "time": 469.5,
          "velocity": 0.9291338582677166,
          "duration": 0.7578125
        },
        {
          "name": "A5",
          "midi": 81,
          "time": 470.25,
          "velocity": 0.9448818897637795,
          "duration": 0.7109375
        },
        {
          "name": "A6",
          "midi": 93,
          "time": 470.25,
          "velocity": 0.9448818897637795,
          "duration": 0.7578125
        },
        {
          "name": "C6",
          "midi": 84,
          "time": 470.25,
          "velocity": 0.9448818897637795,
          "duration": 0.7109375
        },
        {
          "name": "D#6",
          "midi": 87,
          "time": 470.25,
          "velocity": 0.9448818897637795,
          "duration": 0.7578125
        },
        {
          "name": "F6",
          "midi": 89,
          "time": 471,
          "velocity": 0.8267716535433071,
          "duration": 0.3828125
        },
        {
          "name": "F5",
          "midi": 77,
          "time": 471,
          "velocity": 0.8267716535433071,
          "duration": 0.3828125
        },
        {
          "name": "A5",
          "midi": 81,
          "time": 471,
          "velocity": 0.8267716535433071,
          "duration": 0.3359375
        },
        {
          "name": "C6",
          "midi": 84,
          "time": 471,
          "velocity": 0.8267716535433071,
          "duration": 0.3828125
        },
        {
          "name": "D#6",
          "midi": 87,
          "time": 471.375,
          "velocity": 0.8582677165354331,
          "duration": 0.3828125
        },
        {
          "name": "D#5",
          "midi": 75,
          "time": 471.375,
          "velocity": 0.8582677165354331,
          "duration": 0.3828125
        },
        {
          "name": "A5",
          "midi": 81,
          "time": 471.375,
          "velocity": 0.8582677165354331,
          "duration": 0.3359375
        },
        {
          "name": "F6",
          "midi": 89,
          "time": 471.75,
          "velocity": 0.952755905511811,
          "duration": 2.2578125
        },
        {
          "name": "F5",
          "midi": 77,
          "time": 471.75,
          "velocity": 0.952755905511811,
          "duration": 2.2109375
        },
        {
          "name": "D6",
          "midi": 86,
          "time": 471.75,
          "velocity": 0.952755905511811,
          "duration": 2.2578125
        },
        {
          "name": "A5",
          "midi": 81,
          "time": 471.75,
          "velocity": 0.952755905511811,
          "duration": 2.2109375
        },
        {
          "name": "A5",
          "midi": 81,
          "time": 474,
          "velocity": 1,
          "duration": 0.7109375
        },
        {
          "name": "A4",
          "midi": 69,
          "time": 474,
          "velocity": 1,
          "duration": 0.7578125
        },
        {
          "name": "F5",
          "midi": 77,
          "time": 474,
          "velocity": 1,
          "duration": 0.7109375
        },
        {
          "name": "D5",
          "midi": 74,
          "time": 474,
          "velocity": 1,
          "duration": 0.7109375
        },
        {
          "name": "D5",
          "midi": 74,
          "time": 474.75,
          "velocity": 0.9212598425196851,
          "duration": 0.7109375
        },
        {
          "name": "D6",
          "midi": 86,
          "time": 474.75,
          "velocity": 0.9212598425196851,
          "duration": 0.7109375
        },
        {
          "name": "A5",
          "midi": 81,
          "time": 474.75,
          "velocity": 0.9212598425196851,
          "duration": 0.7109375
        },
        {
          "name": "F5",
          "midi": 77,
          "time": 474.75,
          "velocity": 0.9212598425196851,
          "duration": 0.7109375
        },
        {
          "name": "A5",
          "midi": 81,
          "time": 475.5,
          "velocity": 0.8503937007874016,
          "duration": 0.7109375
        },
        {
          "name": "F5",
          "midi": 77,
          "time": 475.5,
          "velocity": 0.8503937007874016,
          "duration": 0.7578125
        },
        {
          "name": "D6",
          "midi": 86,
          "time": 475.5,
          "velocity": 0.8503937007874016,
          "duration": 0.7109375
        },
        {
          "name": "F6",
          "midi": 89,
          "time": 475.5,
          "velocity": 0.8503937007874016,
          "duration": 0.7578125
        },
        {
          "name": "A6",
          "midi": 93,
          "time": 476.25,
          "velocity": 1,
          "duration": 1.5078125
        },
        {
          "name": "A5",
          "midi": 81,
          "time": 476.25,
          "velocity": 1,
          "duration": 1.4609375
        },
        {
          "name": "A#5",
          "midi": 82,
          "time": 476.25,
          "velocity": 1,
          "duration": 1.4140625
        },
        {
          "name": "D6",
          "midi": 86,
          "time": 476.25,
          "velocity": 1,
          "duration": 1.4609375
        },
        {
          "name": "G6",
          "midi": 91,
          "time": 477.75,
          "velocity": 0.8503937007874016,
          "duration": 0.7578125
        },
        {
          "name": "G5",
          "midi": 79,
          "time": 477.75,
          "velocity": 0.8503937007874016,
          "duration": 0.7578125
        },
        {
          "name": "D6",
          "midi": 86,
          "time": 477.75,
          "velocity": 0.8503937007874016,
          "duration": 0.7109375
        },
        {
          "name": "A#5",
          "midi": 82,
          "time": 477.75,
          "velocity": 0.8503937007874016,
          "duration": 0.7109375
        },
        {
          "name": "F5",
          "midi": 77,
          "time": 478.3125,
          "velocity": 0.7716535433070866,
          "duration": 0.7578125
        },
        {
          "name": "A5",
          "midi": 81,
          "time": 478.40625,
          "velocity": 0.7716535433070866,
          "duration": 0.7578125
        },
        {
          "name": "C#6",
          "midi": 85,
          "time": 478.453125,
          "velocity": 0.7716535433070866,
          "duration": 0.7578125
        },
        {
          "name": "F6",
          "midi": 89,
          "time": 478.5,
          "velocity": 0.8503937007874016,
          "duration": 0.7578125
        },
        {
          "name": "E6",
          "midi": 88,
          "time": 479.25,
          "velocity": 0.8503937007874016,
          "duration": 0.7578125
        },
        {
          "name": "E5",
          "midi": 76,
          "time": 479.25,
          "velocity": 0.8503937007874016,
          "duration": 0.7578125
        },
        {
          "name": "A5",
          "midi": 81,
          "time": 479.25,
          "velocity": 0.8503937007874016,
          "duration": 0.7109375
        },
        {
          "name": "C#6",
          "midi": 85,
          "time": 479.25,
          "velocity": 0.8503937007874016,
          "duration": 0.7109375
        },
        {
          "name": "F6",
          "midi": 89,
          "time": 480,
          "velocity": 0.9133858267716536,
          "duration": 0.7578125
        },
        {
          "name": "C#6",
          "midi": 85,
          "time": 480,
          "velocity": 0.9133858267716536,
          "duration": 0.7578125
        },
        {
          "name": "A5",
          "midi": 81,
          "time": 480,
          "velocity": 0.9133858267716536,
          "duration": 0.7578125
        },
        {
          "name": "F5",
          "midi": 77,
          "time": 480,
          "velocity": 0.9133858267716536,
          "duration": 0.3828125
        },
        {
          "name": "G5",
          "midi": 79,
          "time": 480.375,
          "velocity": 0.6456692913385826,
          "duration": 0.3828125
        },
        {
          "name": "G6",
          "midi": 91,
          "time": 480.75,
          "velocity": 1,
          "duration": 0.3828125
        },
        {
          "name": "C6",
          "midi": 84,
          "time": 481.125,
          "velocity": 0.6456692913385826,
          "duration": 0.3828125
        },
        {
          "name": "A5",
          "midi": 81,
          "time": 481.5,
          "velocity": 0.6456692913385826,
          "duration": 0.3828125
        },
        {
          "name": "G5",
          "midi": 79,
          "time": 481.875,
          "velocity": 0.6456692913385826,
          "duration": 0.3828125
        },
        {
          "name": "F6",
          "midi": 89,
          "time": 482.25,
          "velocity": 0.937007874015748,
          "duration": 0.3828125
        },
        {
          "name": "F5",
          "midi": 77,
          "time": 482.25,
          "velocity": 0.6456692913385826,
          "duration": 0.3828125
        },
        {
          "name": "C#6",
          "midi": 85,
          "time": 482.625,
          "velocity": 0.937007874015748,
          "duration": 0.3828125
        },
        {
          "name": "A5",
          "midi": 81,
          "time": 482.625,
          "velocity": 0.6456692913385826,
          "duration": 0.3828125
        },
        {
          "name": "E6",
          "midi": 88,
          "time": 483,
          "velocity": 1,
          "duration": 0.3828125
        },
        {
          "name": "E5",
          "midi": 76,
          "time": 483,
          "velocity": 0.7244094488188977,
          "duration": 0.3828125
        },
        {
          "name": "A5",
          "midi": 81,
          "time": 483.375,
          "velocity": 0.6456692913385826,
          "duration": 0.3828125
        },
        {
          "name": "F5",
          "midi": 77,
          "time": 483.375,
          "velocity": 0.6456692913385826,
          "duration": 0.3828125
        },
        {
          "name": "E5",
          "midi": 76,
          "time": 483.75,
          "velocity": 0.6456692913385826,
          "duration": 0.3828125
        },
        {
          "name": "F5",
          "midi": 77,
          "time": 484.125,
          "velocity": 0.6456692913385826,
          "duration": 0.3828125
        },
        {
          "name": "A5",
          "midi": 81,
          "time": 484.125,
          "velocity": 0.6456692913385826,
          "duration": 0.3828125
        },
        {
          "name": "D5",
          "midi": 74,
          "time": 484.5,
          "velocity": 0.6456692913385826,
          "duration": 0.3828125
        },
        {
          "name": "D6",
          "midi": 86,
          "time": 484.5,
          "velocity": 0.937007874015748,
          "duration": 0.3828125
        },
        {
          "name": "F5",
          "midi": 77,
          "time": 484.875,
          "velocity": 0.6456692913385826,
          "duration": 0.3828125
        },
        {
          "name": "A5",
          "midi": 81,
          "time": 484.875,
          "velocity": 0.6456692913385826,
          "duration": 0.3828125
        },
        {
          "name": "C6",
          "midi": 84,
          "time": 485.25,
          "velocity": 1,
          "duration": 0.2890625
        },
        {
          "name": "C5",
          "midi": 72,
          "time": 485.25,
          "velocity": 0.7244094488188977,
          "duration": 0.2890625
        },
        {
          "name": "F5",
          "midi": 77,
          "time": 485.484375,
          "velocity": 0.6456692913385826,
          "duration": 0.2890625
        },
        {
          "name": "D5",
          "midi": 74,
          "time": 485.484375,
          "velocity": 0.6456692913385826,
          "duration": 0.2890625
        },
        {
          "name": "C5",
          "midi": 72,
          "time": 485.765625,
          "velocity": 0.6456692913385826,
          "duration": 0.2421875
        },
        {
          "name": "A#4",
          "midi": 70,
          "time": 486,
          "velocity": 0.6456692913385826,
          "duration": 0.2890625
        },
        {
          "name": "A#5",
          "midi": 82,
          "time": 486,
          "velocity": 0.937007874015748,
          "duration": 0.2890625
        },
        {
          "name": "F5",
          "midi": 77,
          "time": 486.234375,
          "velocity": 0.6299212598425197,
          "duration": 0.2890625
        },
        {
          "name": "D5",
          "midi": 74,
          "time": 486.234375,
          "velocity": 0.6299212598425197,
          "duration": 0.2890625
        },
        {
          "name": "A#4",
          "midi": 70,
          "time": 486.515625,
          "velocity": 0.6456692913385826,
          "duration": 0.2421875
        },
        {
          "name": "D5",
          "midi": 74,
          "time": 486.75,
          "velocity": 0.6456692913385826,
          "duration": 0.2890625
        },
        {
          "name": "D6",
          "midi": 86,
          "time": 486.75,
          "velocity": 0.937007874015748,
          "duration": 0.2890625
        },
        {
          "name": "G5",
          "midi": 79,
          "time": 486.984375,
          "velocity": 0.6456692913385826,
          "duration": 0.2890625
        },
        {
          "name": "E5",
          "midi": 76,
          "time": 486.984375,
          "velocity": 0.6456692913385826,
          "duration": 0.2890625
        },
        {
          "name": "D5",
          "midi": 74,
          "time": 487.265625,
          "velocity": 0.6456692913385826,
          "duration": 0.2421875
        },
        {
          "name": "E6",
          "midi": 88,
          "time": 487.5,
          "velocity": 1,
          "duration": 0.2890625
        },
        {
          "name": "E5",
          "midi": 76,
          "time": 487.5,
          "velocity": 0.7322834645669292,
          "duration": 0.2890625
        },
        {
          "name": "C6",
          "midi": 84,
          "time": 487.734375,
          "velocity": 0.6456692913385826,
          "duration": 0.2890625
        },
        {
          "name": "A5",
          "midi": 81,
          "time": 487.734375,
          "velocity": 0.6456692913385826,
          "duration": 0.2890625
        },
        {
          "name": "E5",
          "midi": 76,
          "time": 488.015625,
          "velocity": 0.6456692913385826,
          "duration": 0.2421875
        },
        {
          "name": "C6",
          "midi": 84,
          "time": 488.25,
          "velocity": 0.9291338582677166,
          "duration": 0.2890625
        },
        {
          "name": "C5",
          "midi": 72,
          "time": 488.25,
          "velocity": 0.6456692913385826,
          "duration": 0.2890625
        },
        {
          "name": "D5",
          "midi": 74,
          "time": 488.484375,
          "velocity": 0.6456692913385826,
          "duration": 0.2890625
        },
        {
          "name": "E5",
          "midi": 76,
          "time": 488.484375,
          "velocity": 0.6456692913385826,
          "duration": 0.2890625
        },
        {
          "name": "G5",
          "midi": 79,
          "time": 488.484375,
          "velocity": 0.6456692913385826,
          "duration": 0.2890625
        },
        {
          "name": "C5",
          "midi": 72,
          "time": 488.765625,
          "velocity": 0.6456692913385826,
          "duration": 0.2421875
        },
        {
          "name": "G4",
          "midi": 67,
          "time": 489,
          "velocity": 0.6456692913385826,
          "duration": 0.2890625
        },
        {
          "name": "G5",
          "midi": 79,
          "time": 489,
          "velocity": 0.9291338582677166,
          "duration": 0.2890625
        },
        {
          "name": "C5",
          "midi": 72,
          "time": 489.234375,
          "velocity": 0.6456692913385826,
          "duration": 0.2890625
        },
        {
          "name": "G4",
          "midi": 67,
          "time": 489.515625,
          "velocity": 0.6456692913385826,
          "duration": 0.2421875
        },
        {
          "name": "A4",
          "midi": 69,
          "time": 489.75,
          "velocity": 0.9763779527559056,
          "duration": 0.7578125
        },
        {
          "name": "D5",
          "midi": 74,
          "time": 489.75,
          "velocity": 0.9763779527559056,
          "duration": 0.7578125
        },
        {
          "name": "F#5",
          "midi": 78,
          "time": 489.75,
          "velocity": 0.9763779527559056,
          "duration": 0.7578125
        },
        {
          "name": "A5",
          "midi": 81,
          "time": 489.75,
          "velocity": 0.9763779527559056,
          "duration": 0.7578125
        },
        {
          "name": "D3",
          "midi": 50,
          "time": 490.5,
          "velocity": 0.6141732283464567,
          "duration": 0.140625
        },
        {
          "name": "F#3",
          "midi": 54,
          "time": 490.640625,
          "velocity": 0.6299212598425197,
          "duration": 0.1484375
        },
        {
          "name": "A3",
          "midi": 57,
          "time": 490.7890625,
          "velocity": 0.6535433070866141,
          "duration": 0.140625
        },
        {
          "name": "D4",
          "midi": 62,
          "time": 490.9140625,
          "velocity": 0.6692913385826772,
          "duration": 0.3515625
        },
        {
          "name": "D4",
          "midi": 62,
          "time": 491.25,
          "velocity": 0.7165354330708661,
          "duration": 0.15625
        },
        {
          "name": "F#4",
          "midi": 66,
          "time": 491.3828125,
          "velocity": 0.7322834645669292,
          "duration": 0.140625
        },
        {
          "name": "A4",
          "midi": 69,
          "time": 491.5234375,
          "velocity": 0.7480314960629921,
          "duration": 0.1484375
        },
        {
          "name": "D5",
          "midi": 74,
          "time": 491.671875,
          "velocity": 0.7716535433070866,
          "duration": 0.328125
        },
        {
          "name": "D4",
          "midi": 62,
          "time": 492,
          "velocity": 0.937007874015748,
          "duration": 0.7109375
        },
        {
          "name": "A4",
          "midi": 69,
          "time": 492,
          "velocity": 0.937007874015748,
          "duration": 0.7109375
        },
        {
          "name": "F#4",
          "midi": 66,
          "time": 492,
          "velocity": 0.937007874015748,
          "duration": 0.7109375
        },
        {
          "name": "D5",
          "midi": 74,
          "time": 492,
          "velocity": 0.937007874015748,
          "duration": 0.7109375
        },
        {
          "name": "D5",
          "midi": 74,
          "time": 492.75,
          "velocity": 0.968503937007874,
          "duration": 0.7109375
        },
        {
          "name": "A4",
          "midi": 69,
          "time": 492.75,
          "velocity": 0.968503937007874,
          "duration": 0.7578125
        },
        {
          "name": "F#5",
          "midi": 78,
          "time": 492.75,
          "velocity": 0.968503937007874,
          "duration": 0.7578125
        },
        {
          "name": "F#4",
          "midi": 66,
          "time": 492.75,
          "velocity": 0.968503937007874,
          "duration": 0.7578125
        },
        {
          "name": "D5",
          "midi": 74,
          "time": 493.5,
          "velocity": 0.9763779527559056,
          "duration": 0.7109375
        },
        {
          "name": "G5",
          "midi": 79,
          "time": 493.5,
          "velocity": 0.9763779527559056,
          "duration": 0.7109375
        },
        {
          "name": "A#5",
          "midi": 82,
          "time": 493.5,
          "velocity": 0.9763779527559056,
          "duration": 0.7578125
        },
        {
          "name": "A#4",
          "midi": 70,
          "time": 493.5,
          "velocity": 0.9763779527559056,
          "duration": 0.7578125
        },
        {
          "name": "D#5",
          "midi": 75,
          "time": 494.25,
          "velocity": 0.9763779527559056,
          "duration": 0.7109375
        },
        {
          "name": "G5",
          "midi": 79,
          "time": 494.25,
          "velocity": 0.9763779527559056,
          "duration": 0.7578125
        },
        {
          "name": "D6",
          "midi": 86,
          "time": 494.25,
          "velocity": 0.9763779527559056,
          "duration": 1.5078125
        },
        {
          "name": "D5",
          "midi": 74,
          "time": 494.25,
          "velocity": 0.9763779527559056,
          "duration": 0.7109375
        },
        {
          "name": "A#5",
          "midi": 82,
          "time": 495,
          "velocity": 0.6299212598425197,
          "duration": 0.25
        },
        {
          "name": "D#5",
          "midi": 75,
          "time": 495,
          "velocity": 0.6299212598425197,
          "duration": 0.25
        },
        {
          "name": "D5",
          "midi": 74,
          "time": 495,
          "velocity": 0.6299212598425197,
          "duration": 0.25
        },
        {
          "name": "A#5",
          "midi": 82,
          "time": 495.25,
          "velocity": 0.6456692913385826,
          "duration": 0.25
        },
        {
          "name": "D#5",
          "midi": 75,
          "time": 495.25,
          "velocity": 0.6456692913385826,
          "duration": 0.25
        },
        {
          "name": "D5",
          "midi": 74,
          "time": 495.25,
          "velocity": 0.6456692913385826,
          "duration": 0.25
        },
        {
          "name": "D5",
          "midi": 74,
          "time": 495.5,
          "velocity": 0.6456692913385826,
          "duration": 0.25
        },
        {
          "name": "D#5",
          "midi": 75,
          "time": 495.5,
          "velocity": 0.6456692913385826,
          "duration": 0.25
        },
        {
          "name": "A#5",
          "midi": 82,
          "time": 495.5,
          "velocity": 0.6456692913385826,
          "duration": 0.25
        },
        {
          "name": "C5",
          "midi": 72,
          "time": 495.75,
          "velocity": 0.8188976377952756,
          "duration": 0.25
        },
        {
          "name": "F#5",
          "midi": 78,
          "time": 495.75,
          "velocity": 0.8188976377952756,
          "duration": 0.25
        },
        {
          "name": "C6",
          "midi": 84,
          "time": 495.75,
          "velocity": 0.8346456692913385,
          "duration": 0.25
        },
        {
          "name": "C6",
          "midi": 84,
          "time": 496,
          "velocity": 0.8346456692913385,
          "duration": 0.25
        },
        {
          "name": "F#5",
          "midi": 78,
          "time": 496,
          "velocity": 0.8188976377952756,
          "duration": 0.25
        },
        {
          "name": "C5",
          "midi": 72,
          "time": 496,
          "velocity": 0.8188976377952756,
          "duration": 0.25
        },
        {
          "name": "C6",
          "midi": 84,
          "time": 496.25,
          "velocity": 0.8267716535433071,
          "duration": 0.25
        },
        {
          "name": "F#5",
          "midi": 78,
          "time": 496.25,
          "velocity": 0.8110236220472441,
          "duration": 0.25
        },
        {
          "name": "C5",
          "midi": 72,
          "time": 496.25,
          "velocity": 0.8110236220472441,
          "duration": 0.25
        },
        {
          "name": "C6",
          "midi": 84,
          "time": 496.5,
          "velocity": 0.8267716535433071,
          "duration": 0.25
        },
        {
          "name": "F#5",
          "midi": 78,
          "time": 496.5,
          "velocity": 0.8110236220472441,
          "duration": 0.25
        },
        {
          "name": "C5",
          "midi": 72,
          "time": 496.5,
          "velocity": 0.8110236220472441,
          "duration": 0.25
        },
        {
          "name": "C6",
          "midi": 84,
          "time": 496.75,
          "velocity": 0.8267716535433071,
          "duration": 0.25
        },
        {
          "name": "F#5",
          "midi": 78,
          "time": 496.75,
          "velocity": 0.8110236220472441,
          "duration": 0.25
        },
        {
          "name": "C5",
          "midi": 72,
          "time": 496.75,
          "velocity": 0.8110236220472441,
          "duration": 0.25
        },
        {
          "name": "C6",
          "midi": 84,
          "time": 497,
          "velocity": 0.8188976377952756,
          "duration": 0.25
        },
        {
          "name": "F#5",
          "midi": 78,
          "time": 497,
          "velocity": 0.8031496062992126,
          "duration": 0.25
        },
        {
          "name": "C5",
          "midi": 72,
          "time": 497,
          "velocity": 0.8031496062992126,
          "duration": 0.25
        },
        {
          "name": "A#5",
          "midi": 82,
          "time": 497.25,
          "velocity": 0.8188976377952756,
          "duration": 0.25
        },
        {
          "name": "F#5",
          "midi": 78,
          "time": 497.25,
          "velocity": 0.8031496062992126,
          "duration": 0.25
        },
        {
          "name": "A#4",
          "midi": 70,
          "time": 497.25,
          "velocity": 0.8031496062992126,
          "duration": 0.25
        },
        {
          "name": "A#4",
          "midi": 70,
          "time": 497.5,
          "velocity": 0.8031496062992126,
          "duration": 0.25
        },
        {
          "name": "F#5",
          "midi": 78,
          "time": 497.5,
          "velocity": 0.8031496062992126,
          "duration": 0.25
        },
        {
          "name": "A#5",
          "midi": 82,
          "time": 497.5,
          "velocity": 0.8188976377952756,
          "duration": 0.25
        },
        {
          "name": "A#5",
          "midi": 82,
          "time": 497.75,
          "velocity": 0.8110236220472441,
          "duration": 0.25
        },
        {
          "name": "F#5",
          "midi": 78,
          "time": 497.75,
          "velocity": 0.7952755905511811,
          "duration": 0.25
        },
        {
          "name": "A#4",
          "midi": 70,
          "time": 497.75,
          "velocity": 0.7952755905511811,
          "duration": 0.25
        },
        {
          "name": "A5",
          "midi": 81,
          "time": 498,
          "velocity": 0.8110236220472441,
          "duration": 0.25
        },
        {
          "name": "F#5",
          "midi": 78,
          "time": 498,
          "velocity": 0.7952755905511811,
          "duration": 0.25
        },
        {
          "name": "A4",
          "midi": 69,
          "time": 498,
          "velocity": 0.7952755905511811,
          "duration": 0.25
        },
        {
          "name": "A5",
          "midi": 81,
          "time": 498.25,
          "velocity": 0.8110236220472441,
          "duration": 0.25
        },
        {
          "name": "F#5",
          "midi": 78,
          "time": 498.25,
          "velocity": 0.7952755905511811,
          "duration": 0.25
        },
        {
          "name": "A4",
          "midi": 69,
          "time": 498.25,
          "velocity": 0.7952755905511811,
          "duration": 0.25
        },
        {
          "name": "A4",
          "midi": 69,
          "time": 498.5,
          "velocity": 0.7952755905511811,
          "duration": 0.25
        },
        {
          "name": "F#5",
          "midi": 78,
          "time": 498.5,
          "velocity": 0.7952755905511811,
          "duration": 0.25
        },
        {
          "name": "A5",
          "midi": 81,
          "time": 498.5,
          "velocity": 0.8110236220472441,
          "duration": 0.25
        },
        {
          "name": "A#5",
          "midi": 82,
          "time": 498.75,
          "velocity": 0.8188976377952756,
          "duration": 0.25
        },
        {
          "name": "F5",
          "midi": 77,
          "time": 498.75,
          "velocity": 0.8031496062992126,
          "duration": 0.25
        },
        {
          "name": "D5",
          "midi": 74,
          "time": 498.75,
          "velocity": 0.8031496062992126,
          "duration": 0.25
        },
        {
          "name": "A#4",
          "midi": 70,
          "time": 498.75,
          "velocity": 0.8031496062992126,
          "duration": 0.25
        },
        {
          "name": "A#5",
          "midi": 82,
          "time": 499,
          "velocity": 0.8267716535433071,
          "duration": 0.25
        },
        {
          "name": "F5",
          "midi": 77,
          "time": 499,
          "velocity": 0.8110236220472441,
          "duration": 0.25
        },
        {
          "name": "D5",
          "midi": 74,
          "time": 499,
          "velocity": 0.8110236220472441,
          "duration": 0.25
        },
        {
          "name": "A#4",
          "midi": 70,
          "time": 499,
          "velocity": 0.8110236220472441,
          "duration": 0.25
        },
        {
          "name": "A#4",
          "midi": 70,
          "time": 499.25,
          "velocity": 0.8110236220472441,
          "duration": 0.25
        },
        {
          "name": "D5",
          "midi": 74,
          "time": 499.25,
          "velocity": 0.8110236220472441,
          "duration": 0.25
        },
        {
          "name": "F5",
          "midi": 77,
          "time": 499.25,
          "velocity": 0.8110236220472441,
          "duration": 0.25
        },
        {
          "name": "A#5",
          "midi": 82,
          "time": 499.25,
          "velocity": 0.8267716535433071,
          "duration": 0.25
        },
        {
          "name": "A#5",
          "midi": 82,
          "time": 499.5,
          "velocity": 0.8346456692913385,
          "duration": 0.25
        },
        {
          "name": "F5",
          "midi": 77,
          "time": 499.5,
          "velocity": 0.8188976377952756,
          "duration": 0.25
        },
        {
          "name": "D5",
          "midi": 74,
          "time": 499.5,
          "velocity": 0.8188976377952756,
          "duration": 0.25
        },
        {
          "name": "A#4",
          "midi": 70,
          "time": 499.5,
          "velocity": 0.8188976377952756,
          "duration": 0.25
        },
        {
          "name": "A#5",
          "midi": 82,
          "time": 499.75,
          "velocity": 0.84251968503937,
          "duration": 0.25
        },
        {
          "name": "F5",
          "midi": 77,
          "time": 499.75,
          "velocity": 0.8267716535433071,
          "duration": 0.25
        },
        {
          "name": "D5",
          "midi": 74,
          "time": 499.75,
          "velocity": 0.8267716535433071,
          "duration": 0.25
        },
        {
          "name": "A#4",
          "midi": 70,
          "time": 499.75,
          "velocity": 0.8267716535433071,
          "duration": 0.25
        },
        {
          "name": "A#5",
          "midi": 82,
          "time": 500,
          "velocity": 0.84251968503937,
          "duration": 0.25
        },
        {
          "name": "F5",
          "midi": 77,
          "time": 500,
          "velocity": 0.8267716535433071,
          "duration": 0.25
        },
        {
          "name": "D5",
          "midi": 74,
          "time": 500,
          "velocity": 0.8267716535433071,
          "duration": 0.25
        },
        {
          "name": "A#4",
          "midi": 70,
          "time": 500,
          "velocity": 0.8267716535433071,
          "duration": 0.25
        },
        {
          "name": "A#5",
          "midi": 82,
          "time": 500.25,
          "velocity": 0.8503937007874016,
          "duration": 0.25
        },
        {
          "name": "F5",
          "midi": 77,
          "time": 500.25,
          "velocity": 0.8346456692913385,
          "duration": 0.25
        },
        {
          "name": "D5",
          "midi": 74,
          "time": 500.25,
          "velocity": 0.8346456692913385,
          "duration": 0.25
        },
        {
          "name": "A#4",
          "midi": 70,
          "time": 500.25,
          "velocity": 0.8346456692913385,
          "duration": 0.25
        },
        {
          "name": "A#4",
          "midi": 70,
          "time": 500.5,
          "velocity": 0.84251968503937,
          "duration": 0.25
        },
        {
          "name": "D5",
          "midi": 74,
          "time": 500.5,
          "velocity": 0.84251968503937,
          "duration": 0.25
        },
        {
          "name": "F5",
          "midi": 77,
          "time": 500.5,
          "velocity": 0.84251968503937,
          "duration": 0.25
        },
        {
          "name": "A#5",
          "midi": 82,
          "time": 500.5,
          "velocity": 0.8582677165354331,
          "duration": 0.25
        },
        {
          "name": "A#4",
          "midi": 70,
          "time": 500.75,
          "velocity": 0.84251968503937,
          "duration": 0.25
        },
        {
          "name": "D5",
          "midi": 74,
          "time": 500.75,
          "velocity": 0.84251968503937,
          "duration": 0.25
        },
        {
          "name": "F5",
          "midi": 77,
          "time": 500.75,
          "velocity": 0.84251968503937,
          "duration": 0.25
        },
        {
          "name": "A#5",
          "midi": 82,
          "time": 500.75,
          "velocity": 0.8582677165354331,
          "duration": 0.25
        },
        {
          "name": "G4",
          "midi": 67,
          "time": 501,
          "velocity": 0.9763779527559056,
          "duration": 0.75
        },
        {
          "name": "G5",
          "midi": 79,
          "time": 501,
          "velocity": 0.9921259842519685,
          "duration": 0.75
        },
        {
          "name": "A#5",
          "midi": 82,
          "time": 501.75,
          "velocity": 0.905511811023622,
          "duration": 0.75
        },
        {
          "name": "A#4",
          "midi": 70,
          "time": 501.75,
          "velocity": 0.905511811023622,
          "duration": 0.75
        },
        {
          "name": "D5",
          "midi": 74,
          "time": 502.5,
          "velocity": 0.8740157480314961,
          "duration": 0.375
        },
        {
          "name": "G5",
          "midi": 79,
          "time": 502.5,
          "velocity": 0.8740157480314961,
          "duration": 0.75
        },
        {
          "name": "A#5",
          "midi": 82,
          "time": 502.5,
          "velocity": 0.8740157480314961,
          "duration": 0.75
        },
        {
          "name": "D6",
          "midi": 86,
          "time": 502.5,
          "velocity": 0.8740157480314961,
          "duration": 0.75
        },
        {
          "name": "D5",
          "midi": 74,
          "time": 502.875,
          "velocity": 0.6771653543307087,
          "duration": 0.375
        },
        {
          "name": "G6",
          "midi": 91,
          "time": 503.25,
          "velocity": 1,
          "duration": 0.25
        },
        {
          "name": "D#6",
          "midi": 87,
          "time": 503.25,
          "velocity": 0.6771653543307087,
          "duration": 0.25
        },
        {
          "name": "A#5",
          "midi": 82,
          "time": 503.25,
          "velocity": 0.6771653543307087,
          "duration": 0.25
        },
        {
          "name": "G5",
          "midi": 79,
          "time": 503.25,
          "velocity": 0.6771653543307087,
          "duration": 0.25
        },
        {
          "name": "G5",
          "midi": 79,
          "time": 503.5,
          "velocity": 0.6771653543307087,
          "duration": 0.25
        },
        {
          "name": "A#5",
          "midi": 82,
          "time": 503.5,
          "velocity": 0.6771653543307087,
          "duration": 0.25
        },
        {
          "name": "D#6",
          "midi": 87,
          "time": 503.5,
          "velocity": 0.6771653543307087,
          "duration": 0.25
        },
        {
          "name": "G5",
          "midi": 79,
          "time": 503.75,
          "velocity": 0.6771653543307087,
          "duration": 0.25
        },
        {
          "name": "A#5",
          "midi": 82,
          "time": 503.75,
          "velocity": 0.6771653543307087,
          "duration": 0.25
        },
        {
          "name": "D#6",
          "midi": 87,
          "time": 503.75,
          "velocity": 0.6771653543307087,
          "duration": 0.25
        },
        {
          "name": "G5",
          "midi": 79,
          "time": 504,
          "velocity": 0.6771653543307087,
          "duration": 0.25
        },
        {
          "name": "A#5",
          "midi": 82,
          "time": 504,
          "velocity": 0.6771653543307087,
          "duration": 0.25
        },
        {
          "name": "D#6",
          "midi": 87,
          "time": 504,
          "velocity": 0.6771653543307087,
          "duration": 0.25
        },
        {
          "name": "G5",
          "midi": 79,
          "time": 504.25,
          "velocity": 0.6771653543307087,
          "duration": 0.25
        },
        {
          "name": "A#5",
          "midi": 82,
          "time": 504.25,
          "velocity": 0.6771653543307087,
          "duration": 0.25
        },
        {
          "name": "D#6",
          "midi": 87,
          "time": 504.25,
          "velocity": 0.6771653543307087,
          "duration": 0.25
        },
        {
          "name": "D#6",
          "midi": 87,
          "time": 504.5,
          "velocity": 0.6771653543307087,
          "duration": 0.25
        },
        {
          "name": "A#5",
          "midi": 82,
          "time": 504.5,
          "velocity": 0.6771653543307087,
          "duration": 0.25
        },
        {
          "name": "G5",
          "midi": 79,
          "time": 504.5,
          "velocity": 0.6771653543307087,
          "duration": 0.25
        },
        {
          "name": "D#6",
          "midi": 87,
          "time": 504.75,
          "velocity": 0.6771653543307087,
          "duration": 0.25
        },
        {
          "name": "A#5",
          "midi": 82,
          "time": 504.75,
          "velocity": 0.6771653543307087,
          "duration": 0.25
        },
        {
          "name": "G5",
          "midi": 79,
          "time": 504.75,
          "velocity": 0.6771653543307087,
          "duration": 0.25
        },
        {
          "name": "G5",
          "midi": 79,
          "time": 505,
          "velocity": 0.6771653543307087,
          "duration": 0.25
        },
        {
          "name": "A#5",
          "midi": 82,
          "time": 505,
          "velocity": 0.6771653543307087,
          "duration": 0.25
        },
        {
          "name": "D#6",
          "midi": 87,
          "time": 505,
          "velocity": 0.6771653543307087,
          "duration": 0.25
        },
        {
          "name": "G6",
          "midi": 91,
          "time": 505,
          "velocity": 1,
          "duration": 0.25
        },
        {
          "name": "G5",
          "midi": 79,
          "time": 505.25,
          "velocity": 0.6771653543307087,
          "duration": 0.25
        },
        {
          "name": "A#5",
          "midi": 82,
          "time": 505.25,
          "velocity": 0.6771653543307087,
          "duration": 0.25
        },
        {
          "name": "D#6",
          "midi": 87,
          "time": 505.25,
          "velocity": 0.6771653543307087,
          "duration": 0.25
        },
        {
          "name": "G6",
          "midi": 91,
          "time": 505.25,
          "velocity": 0.8976377952755905,
          "duration": 0.25
        },
        {
          "name": "G5",
          "midi": 79,
          "time": 505.5,
          "velocity": 0.6771653543307087,
          "duration": 0.25
        },
        {
          "name": "A#5",
          "midi": 82,
          "time": 505.5,
          "velocity": 0.6771653543307087,
          "duration": 0.25
        },
        {
          "name": "D#6",
          "midi": 87,
          "time": 505.5,
          "velocity": 0.6771653543307087,
          "duration": 0.25
        },
        {
          "name": "G6",
          "midi": 91,
          "time": 505.5,
          "velocity": 0.8976377952755905,
          "duration": 0.25
        },
        {
          "name": "G6",
          "midi": 91,
          "time": 505.75,
          "velocity": 0.8976377952755905,
          "duration": 0.25
        },
        {
          "name": "D#6",
          "midi": 87,
          "time": 505.75,
          "velocity": 0.6771653543307087,
          "duration": 0.25
        },
        {
          "name": "A#5",
          "midi": 82,
          "time": 505.75,
          "velocity": 0.6771653543307087,
          "duration": 0.25
        },
        {
          "name": "G5",
          "midi": 79,
          "time": 505.75,
          "velocity": 0.6771653543307087,
          "duration": 0.25
        },
        {
          "name": "G5",
          "midi": 79,
          "time": 506,
          "velocity": 0.6614173228346457,
          "duration": 0.25
        },
        {
          "name": "A#5",
          "midi": 82,
          "time": 506,
          "velocity": 0.6614173228346457,
          "duration": 0.25
        },
        {
          "name": "D#6",
          "midi": 87,
          "time": 506,
          "velocity": 0.6614173228346457,
          "duration": 0.25
        },
        {
          "name": "G6",
          "midi": 91,
          "time": 506,
          "velocity": 0.8818897637795275,
          "duration": 0.25
        },
        {
          "name": "A6",
          "midi": 93,
          "time": 506.25,
          "velocity": 0.984251968503937,
          "duration": 0.25
        },
        {
          "name": "F6",
          "midi": 89,
          "time": 506.25,
          "velocity": 0.6614173228346457,
          "duration": 0.25
        },
        {
          "name": "C6",
          "midi": 84,
          "time": 506.25,
          "velocity": 0.6614173228346457,
          "duration": 0.25
        },
        {
          "name": "A5",
          "midi": 81,
          "time": 506.25,
          "velocity": 0.6614173228346457,
          "duration": 0.25
        },
        {
          "name": "A5",
          "midi": 81,
          "time": 506.5,
          "velocity": 0.6614173228346457,
          "duration": 0.25
        },
        {
          "name": "C6",
          "midi": 84,
          "time": 506.5,
          "velocity": 0.6614173228346457,
          "duration": 0.25
        },
        {
          "name": "F6",
          "midi": 89,
          "time": 506.5,
          "velocity": 0.6614173228346457,
          "duration": 0.25
        },
        {
          "name": "A6",
          "midi": 93,
          "time": 506.5,
          "velocity": 0.8740157480314961,
          "duration": 0.25
        },
        {
          "name": "A6",
          "midi": 93,
          "time": 506.75,
          "velocity": 0.8740157480314961,
          "duration": 0.25
        },
        {
          "name": "F6",
          "midi": 89,
          "time": 506.75,
          "velocity": 0.6614173228346457,
          "duration": 0.25
        },
        {
          "name": "C6",
          "midi": 84,
          "time": 506.75,
          "velocity": 0.6614173228346457,
          "duration": 0.25
        },
        {
          "name": "A5",
          "midi": 81,
          "time": 506.75,
          "velocity": 0.6614173228346457,
          "duration": 0.25
        },
        {
          "name": "F5",
          "midi": 77,
          "time": 507,
          "velocity": 0.952755905511811,
          "duration": 0.25
        },
        {
          "name": "F6",
          "midi": 89,
          "time": 507,
          "velocity": 0.952755905511811,
          "duration": 0.25
        },
        {
          "name": "D#5",
          "midi": 75,
          "time": 507.25,
          "velocity": 0.952755905511811,
          "duration": 0.25
        },
        {
          "name": "D#6",
          "midi": 87,
          "time": 507.25,
          "velocity": 0.952755905511811,
          "duration": 0.25
        },
        {
          "name": "F6",
          "midi": 89,
          "time": 507.5,
          "velocity": 0.952755905511811,
          "duration": 1.1875
        },
        {
          "name": "A5",
          "midi": 81,
          "time": 507.5,
          "velocity": 0.952755905511811,
          "duration": 1.1875
        },
        {
          "name": "F5",
          "midi": 77,
          "time": 507.5,
          "velocity": 0.952755905511811,
          "duration": 1.1875
        },
        {
          "name": "D4",
          "midi": 62,
          "time": 508.6875,
          "velocity": 0.6614173228346457,
          "duration": 0.1875
        },
        {
          "name": "F4",
          "midi": 65,
          "time": 508.875,
          "velocity": 0.6614173228346457,
          "duration": 0.1875
        },
        {
          "name": "A4",
          "midi": 69,
          "time": 509.0625,
          "velocity": 0.6614173228346457,
          "duration": 0.1875
        },
        {
          "name": "D5",
          "midi": 74,
          "time": 509.25,
          "velocity": 0.6771653543307087,
          "duration": 0.1484375
        },
        {
          "name": "A4",
          "midi": 69,
          "time": 509.3984375,
          "velocity": 0.6456692913385826,
          "duration": 0.1484375
        },
        {
          "name": "D5",
          "midi": 74,
          "time": 509.546875,
          "velocity": 0.6456692913385826,
          "duration": 0.1484375
        },
        {
          "name": "F5",
          "midi": 77,
          "time": 509.6953125,
          "velocity": 0.6456692913385826,
          "duration": 0.15625
        },
        {
          "name": "A5",
          "midi": 81,
          "time": 509.8515625,
          "velocity": 0.6456692913385826,
          "duration": 0.1484375
        },
        {
          "name": "D5",
          "midi": 74,
          "time": 510,
          "velocity": 0.952755905511811,
          "duration": 0.75
        },
        {
          "name": "F5",
          "midi": 77,
          "time": 510,
          "velocity": 0.952755905511811,
          "duration": 0.75
        },
        {
          "name": "A5",
          "midi": 81,
          "time": 510,
          "velocity": 0.952755905511811,
          "duration": 0.75
        },
        {
          "name": "D6",
          "midi": 86,
          "time": 510,
          "velocity": 0.952755905511811,
          "duration": 0.75
        },
        {
          "name": "D6",
          "midi": 86,
          "time": 510.75,
          "velocity": 0.8740157480314961,
          "duration": 0.375
        },
        {
          "name": "D5",
          "midi": 74,
          "time": 510.75,
          "velocity": 0.8740157480314961,
          "duration": 0.375
        },
        {
          "name": "F6",
          "midi": 89,
          "time": 511.125,
          "velocity": 0.8740157480314961,
          "duration": 0.375
        },
        {
          "name": "F5",
          "midi": 77,
          "time": 511.125,
          "velocity": 0.8740157480314961,
          "duration": 0.375
        },
        {
          "name": "E6",
          "midi": 88,
          "time": 511.5,
          "velocity": 0.8740157480314961,
          "duration": 0.375
        },
        {
          "name": "E5",
          "midi": 76,
          "time": 511.5,
          "velocity": 0.8740157480314961,
          "duration": 0.375
        },
        {
          "name": "F6",
          "midi": 89,
          "time": 511.875,
          "velocity": 0.8740157480314961,
          "duration": 0.375
        },
        {
          "name": "F5",
          "midi": 77,
          "time": 511.875,
          "velocity": 0.8740157480314961,
          "duration": 0.375
        },
        {
          "name": "A6",
          "midi": 93,
          "time": 512.25,
          "velocity": 0.968503937007874,
          "duration": 1.5
        },
        {
          "name": "E6",
          "midi": 88,
          "time": 512.25,
          "velocity": 0.968503937007874,
          "duration": 0.75
        },
        {
          "name": "D6",
          "midi": 86,
          "time": 512.25,
          "velocity": 0.968503937007874,
          "duration": 0.75
        },
        {
          "name": "A5",
          "midi": 81,
          "time": 512.25,
          "velocity": 0.968503937007874,
          "duration": 0.75
        },
        {
          "name": "G5",
          "midi": 79,
          "time": 513,
          "velocity": 0.6929133858267716,
          "duration": 0.75
        },
        {
          "name": "A#5",
          "midi": 82,
          "time": 513,
          "velocity": 0.6929133858267716,
          "duration": 0.75
        },
        {
          "name": "D6",
          "midi": 86,
          "time": 513,
          "velocity": 0.6929133858267716,
          "duration": 0.75
        },
        {
          "name": "G6",
          "midi": 91,
          "time": 513.75,
          "velocity": 0.952755905511811,
          "duration": 0.75
        },
        {
          "name": "D6",
          "midi": 86,
          "time": 513.75,
          "velocity": 0.952755905511811,
          "duration": 0.75
        },
        {
          "name": "A#5",
          "midi": 82,
          "time": 513.75,
          "velocity": 0.952755905511811,
          "duration": 0.75
        },
        {
          "name": "G5",
          "midi": 79,
          "time": 513.75,
          "velocity": 0.952755905511811,
          "duration": 0.75
        },
        {
          "name": "F5",
          "midi": 77,
          "time": 515.25,
          "velocity": 0.889763779527559,
          "duration": 0.375
        },
        {
          "name": "A5",
          "midi": 81,
          "time": 515.3046875,
          "velocity": 0.889763779527559,
          "duration": 0.375
        },
        {
          "name": "C#6",
          "midi": 85,
          "time": 515.3671875,
          "velocity": 0.889763779527559,
          "duration": 0.375
        },
        {
          "name": "F6",
          "midi": 89,
          "time": 515.421875,
          "velocity": 0.889763779527559,
          "duration": 0.375
        },
        {
          "name": "E5",
          "midi": 76,
          "time": 515.671875,
          "velocity": 0.889763779527559,
          "duration": 0.375
        },
        {
          "name": "E6",
          "midi": 88,
          "time": 515.6796875,
          "velocity": 0.889763779527559,
          "duration": 0.375
        },
        {
          "name": "D#5",
          "midi": 75,
          "time": 516.046875,
          "velocity": 0.889763779527559,
          "duration": 0.375
        },
        {
          "name": "D#6",
          "midi": 87,
          "time": 516.0546875,
          "velocity": 0.889763779527559,
          "duration": 0.375
        },
        {
          "name": "E5",
          "midi": 76,
          "time": 516.421875,
          "velocity": 0.905511811023622,
          "duration": 0.375
        },
        {
          "name": "E6",
          "midi": 88,
          "time": 516.4296875,
          "velocity": 0.905511811023622,
          "duration": 0.375
        },
        {
          "name": "G5",
          "midi": 79,
          "time": 516.75,
          "velocity": 0.984251968503937,
          "duration": 0.75
        },
        {
          "name": "A5",
          "midi": 81,
          "time": 516.75,
          "velocity": 0.984251968503937,
          "duration": 0.75
        },
        {
          "name": "C6",
          "midi": 84,
          "time": 516.75,
          "velocity": 0.984251968503937,
          "duration": 0.75
        },
        {
          "name": "G6",
          "midi": 91,
          "time": 516.75,
          "velocity": 0.984251968503937,
          "duration": 1.5
        },
        {
          "name": "G5",
          "midi": 79,
          "time": 517.5,
          "velocity": 0.6771653543307087,
          "duration": 0.75
        },
        {
          "name": "A5",
          "midi": 81,
          "time": 517.5,
          "velocity": 0.6771653543307087,
          "duration": 0.75
        },
        {
          "name": "C6",
          "midi": 84,
          "time": 517.5,
          "velocity": 0.6771653543307087,
          "duration": 0.75
        },
        {
          "name": "F6",
          "midi": 89,
          "time": 518.25,
          "velocity": 0.9448818897637795,
          "duration": 0.75
        },
        {
          "name": "C6",
          "midi": 84,
          "time": 518.25,
          "velocity": 0.9448818897637795,
          "duration": 0.75
        },
        {
          "name": "A5",
          "midi": 81,
          "time": 518.25,
          "velocity": 0.9448818897637795,
          "duration": 0.75
        },
        {
          "name": "F5",
          "midi": 77,
          "time": 518.25,
          "velocity": 0.9448818897637795,
          "duration": 0.75
        },
        {
          "name": "E6",
          "midi": 88,
          "time": 519.75,
          "velocity": 0.905511811023622,
          "duration": 0.375
        },
        {
          "name": "A#5",
          "midi": 82,
          "time": 519.75,
          "velocity": 0.905511811023622,
          "duration": 0.375
        },
        {
          "name": "G5",
          "midi": 79,
          "time": 519.75,
          "velocity": 0.905511811023622,
          "duration": 0.375
        },
        {
          "name": "E5",
          "midi": 76,
          "time": 519.75,
          "velocity": 0.905511811023622,
          "duration": 0.375
        },
        {
          "name": "D5",
          "midi": 74,
          "time": 520.125,
          "velocity": 0.905511811023622,
          "duration": 0.375
        },
        {
          "name": "D6",
          "midi": 86,
          "time": 520.125,
          "velocity": 0.905511811023622,
          "duration": 0.375
        },
        {
          "name": "C#6",
          "midi": 85,
          "time": 520.5,
          "velocity": 0.905511811023622,
          "duration": 0.375
        },
        {
          "name": "C#5",
          "midi": 73,
          "time": 520.5,
          "velocity": 0.905511811023622,
          "duration": 0.375
        },
        {
          "name": "D5",
          "midi": 74,
          "time": 520.875,
          "velocity": 0.905511811023622,
          "duration": 0.375
        },
        {
          "name": "D6",
          "midi": 86,
          "time": 520.875,
          "velocity": 0.905511811023622,
          "duration": 0.375
        },
        {
          "name": "D6",
          "midi": 86,
          "time": 521.25,
          "velocity": 0.968503937007874,
          "duration": 1.125
        },
        {
          "name": "A#5",
          "midi": 82,
          "time": 521.25,
          "velocity": 0.968503937007874,
          "duration": 1.125
        },
        {
          "name": "F5",
          "midi": 77,
          "time": 521.25,
          "velocity": 0.968503937007874,
          "duration": 1.125
        },
        {
          "name": "D5",
          "midi": 74,
          "time": 521.25,
          "velocity": 0.968503937007874,
          "duration": 1.125
        },
        {
          "name": "C6",
          "midi": 84,
          "time": 522.375,
          "velocity": 0.8503937007874016,
          "duration": 0.375
        },
        {
          "name": "F5",
          "midi": 77,
          "time": 522.375,
          "velocity": 0.8503937007874016,
          "duration": 0.375
        },
        {
          "name": "C5",
          "midi": 72,
          "time": 522.375,
          "velocity": 0.8503937007874016,
          "duration": 0.375
        },
        {
          "name": "A#4",
          "midi": 70,
          "time": 522.75,
          "velocity": 0.8031496062992126,
          "duration": 0.75
        },
        {
          "name": "A#5",
          "midi": 82,
          "time": 522.75,
          "velocity": 0.8031496062992126,
          "duration": 0.75
        },
        {
          "name": "G4",
          "midi": 67,
          "time": 523.5,
          "velocity": 0.9448818897637795,
          "duration": 1.125
        },
        {
          "name": "A4",
          "midi": 69,
          "time": 523.5,
          "velocity": 0.9448818897637795,
          "duration": 1.125
        },
        {
          "name": "C#5",
          "midi": 73,
          "time": 523.5,
          "velocity": 0.9448818897637795,
          "duration": 1.125
        },
        {
          "name": "E5",
          "midi": 76,
          "time": 523.5,
          "velocity": 0.9448818897637795,
          "duration": 1.125
        },
        {
          "name": "A5",
          "midi": 81,
          "time": 523.5,
          "velocity": 0.9448818897637795,
          "duration": 1.125
        },
        {
          "name": "B4",
          "midi": 71,
          "time": 524.625,
          "velocity": 0.9606299212598425,
          "duration": 0.375
        },
        {
          "name": "C#5",
          "midi": 73,
          "time": 524.625,
          "velocity": 0.9606299212598425,
          "duration": 0.375
        },
        {
          "name": "E5",
          "midi": 76,
          "time": 524.625,
          "velocity": 0.9606299212598425,
          "duration": 0.375
        },
        {
          "name": "G5",
          "midi": 79,
          "time": 524.625,
          "velocity": 0.9606299212598425,
          "duration": 0.375
        },
        {
          "name": "B5",
          "midi": 83,
          "time": 524.625,
          "velocity": 0.9606299212598425,
          "duration": 0.375
        },
        {
          "name": "C#5",
          "midi": 73,
          "time": 525,
          "velocity": 0.952755905511811,
          "duration": 0.75
        },
        {
          "name": "E5",
          "midi": 76,
          "time": 525,
          "velocity": 0.952755905511811,
          "duration": 0.75
        },
        {
          "name": "C#6",
          "midi": 85,
          "time": 525,
          "velocity": 0.952755905511811,
          "duration": 0.75
        },
        {
          "name": "G5",
          "midi": 79,
          "time": 525,
          "velocity": 0.952755905511811,
          "duration": 0.75
        },
        {
          "name": "D6",
          "midi": 86,
          "time": 526.359375,
          "velocity": 0.8188976377952756,
          "duration": 0.46875
        },
        {
          "name": "A5",
          "midi": 81,
          "time": 526.359375,
          "velocity": 0.8188976377952756,
          "duration": 0.46875
        },
        {
          "name": "F#5",
          "midi": 78,
          "time": 526.359375,
          "velocity": 0.8188976377952756,
          "duration": 0.46875
        },
        {
          "name": "D5",
          "midi": 74,
          "time": 526.359375,
          "velocity": 0.8188976377952756,
          "duration": 0.46875
        },
        {
          "name": "D5",
          "midi": 74,
          "time": 526.828125,
          "velocity": 0.6614173228346457,
          "duration": 0.1875
        },
        {
          "name": "D6",
          "midi": 86,
          "time": 526.828125,
          "velocity": 0.6614173228346457,
          "duration": 0.1875
        },
        {
          "name": "C#6",
          "midi": 85,
          "time": 527.078125,
          "velocity": 0.6692913385826772,
          "duration": 0.1875
        },
        {
          "name": "C#5",
          "midi": 73,
          "time": 527.078125,
          "velocity": 0.6692913385826772,
          "duration": 0.1875
        },
        {
          "name": "C5",
          "midi": 72,
          "time": 527.34375,
          "velocity": 0.6850393700787402,
          "duration": 0.1875
        },
        {
          "name": "C6",
          "midi": 84,
          "time": 527.34375,
          "velocity": 0.6850393700787402,
          "duration": 0.1875
        },
        {
          "name": "A#5",
          "midi": 82,
          "time": 527.640625,
          "velocity": 0.6929133858267716,
          "duration": 0.1875
        },
        {
          "name": "A#4",
          "midi": 70,
          "time": 527.640625,
          "velocity": 0.6929133858267716,
          "duration": 0.1875
        },
        {
          "name": "A4",
          "midi": 69,
          "time": 527.859375,
          "velocity": 0.7007874015748031,
          "duration": 0.15625
        },
        {
          "name": "A5",
          "midi": 81,
          "time": 527.859375,
          "velocity": 0.7007874015748031,
          "duration": 0.15625
        },
        {
          "name": "G5",
          "midi": 79,
          "time": 528.0625,
          "velocity": 0.7086614173228346,
          "duration": 0.15625
        },
        {
          "name": "G4",
          "midi": 67,
          "time": 528.0625,
          "velocity": 0.7086614173228346,
          "duration": 0.15625
        },
        {
          "name": "F#5",
          "midi": 78,
          "time": 528.375,
          "velocity": 0.7244094488188977,
          "duration": 0.15625
        },
        {
          "name": "F#4",
          "midi": 66,
          "time": 528.375,
          "velocity": 0.7244094488188977,
          "duration": 0.15625
        },
        {
          "name": "D#4",
          "midi": 63,
          "time": 528.6875,
          "velocity": 0.7322834645669292,
          "duration": 0.1640625
        },
        {
          "name": "D#5",
          "midi": 75,
          "time": 528.6875,
          "velocity": 0.7322834645669292,
          "duration": 0.1640625
        },
        {
          "name": "D4",
          "midi": 62,
          "time": 528.984375,
          "velocity": 0.7480314960629921,
          "duration": 0.1640625
        },
        {
          "name": "D5",
          "midi": 74,
          "time": 528.984375,
          "velocity": 0.7480314960629921,
          "duration": 0.1640625
        },
        {
          "name": "C4",
          "midi": 60,
          "time": 529.3125,
          "velocity": 0.7559055118110236,
          "duration": 0.140625
        },
        {
          "name": "C5",
          "midi": 72,
          "time": 529.3125,
          "velocity": 0.7559055118110236,
          "duration": 0.140625
        },
        {
          "name": "A#3",
          "midi": 58,
          "time": 529.6171875,
          "velocity": 0.7716535433070866,
          "duration": 0.15625
        },
        {
          "name": "A#4",
          "midi": 70,
          "time": 529.6171875,
          "velocity": 0.7716535433070866,
          "duration": 0.15625
        },
        {
          "name": "A3",
          "midi": 57,
          "time": 529.921875,
          "velocity": 0.7795275590551181,
          "duration": 0.1484375
        },
        {
          "name": "A4",
          "midi": 69,
          "time": 529.921875,
          "velocity": 0.7795275590551181,
          "duration": 0.1484375
        },
        {
          "name": "G4",
          "midi": 67,
          "time": 530.21875,
          "velocity": 0.7952755905511811,
          "duration": 0.1640625
        },
        {
          "name": "G3",
          "midi": 55,
          "time": 530.21875,
          "velocity": 0.7952755905511811,
          "duration": 0.1640625
        },
        {
          "name": "F#4",
          "midi": 66,
          "time": 530.546875,
          "velocity": 0.8031496062992126,
          "duration": 0.140625
        },
        {
          "name": "F#3",
          "midi": 54,
          "time": 530.546875,
          "velocity": 0.8031496062992126,
          "duration": 0.140625
        },
        {
          "name": "D#4",
          "midi": 63,
          "time": 530.859375,
          "velocity": 0.8188976377952756,
          "duration": 0.1484375
        },
        {
          "name": "D#3",
          "midi": 51,
          "time": 530.859375,
          "velocity": 0.8188976377952756,
          "duration": 0.1484375
        },
        {
          "name": "D4",
          "midi": 62,
          "time": 531.15625,
          "velocity": 0.8267716535433071,
          "duration": 0.15625
        },
        {
          "name": "D3",
          "midi": 50,
          "time": 531.15625,
          "velocity": 0.8267716535433071,
          "duration": 0.15625
        },
        {
          "name": "C4",
          "midi": 60,
          "time": 531.46875,
          "velocity": 0.84251968503937,
          "duration": 0.15625
        },
        {
          "name": "C3",
          "midi": 48,
          "time": 531.46875,
          "velocity": 0.84251968503937,
          "duration": 0.15625
        },
        {
          "name": "A#2",
          "midi": 46,
          "time": 531.765625,
          "velocity": 0.8503937007874016,
          "duration": 0.1640625
        },
        {
          "name": "A#3",
          "midi": 58,
          "time": 531.765625,
          "velocity": 0.8503937007874016,
          "duration": 0.1640625
        },
        {
          "name": "A2",
          "midi": 45,
          "time": 532.09375,
          "velocity": 0.8661417322834646,
          "duration": 0.1484375
        },
        {
          "name": "A3",
          "midi": 57,
          "time": 532.09375,
          "velocity": 0.8661417322834646,
          "duration": 0.1484375
        },
        {
          "name": "G2",
          "midi": 43,
          "time": 532.3828125,
          "velocity": 0.8740157480314961,
          "duration": 0.1640625
        },
        {
          "name": "G3",
          "midi": 55,
          "time": 532.3828125,
          "velocity": 0.8740157480314961,
          "duration": 0.1640625
        },
        {
          "name": "F#2",
          "midi": 42,
          "time": 532.703125,
          "velocity": 0.889763779527559,
          "duration": 0.15625
        },
        {
          "name": "F#3",
          "midi": 54,
          "time": 532.703125,
          "velocity": 0.889763779527559,
          "duration": 0.15625
        },
        {
          "name": "D#2",
          "midi": 39,
          "time": 532.875,
          "velocity": 0.984251968503937,
          "duration": 1.8203125
        },
        {
          "name": "D#3",
          "midi": 51,
          "time": 532.8828125,
          "velocity": 0.984251968503937,
          "duration": 1.7890625
        },
        {
          "name": "D2",
          "midi": 38,
          "time": 534.75,
          "velocity": 0.9448818897637795,
          "duration": 1.453125
        },
        {
          "name": "A2",
          "midi": 45,
          "time": 534.75,
          "velocity": 0.9448818897637795,
          "duration": 1.5546875
        },
        {
          "name": "F#2",
          "midi": 42,
          "time": 534.75,
          "velocity": 0.9448818897637795,
          "duration": 1.5546875
        },
        {
          "name": "D3",
          "midi": 50,
          "time": 534.75,
          "velocity": 0.9448818897637795,
          "duration": 1.3203125
        },
        {
          "name": "D3",
          "midi": 50,
          "time": 536.109375,
          "velocity": 0.968503937007874,
          "duration": 1.5546875
        },
        {
          "name": "C3",
          "midi": 48,
          "time": 536.109375,
          "velocity": 0.968503937007874,
          "duration": 1.5546875
        },
        {
          "name": "G#3",
          "midi": 56,
          "time": 536.1171875,
          "velocity": 0.968503937007874,
          "duration": 1.5546875
        },
        {
          "name": "D4",
          "midi": 62,
          "time": 536.1171875,
          "velocity": 0.968503937007874,
          "duration": 1.5546875
        },
        {
          "name": "F#3",
          "midi": 54,
          "time": 536.1171875,
          "velocity": 0.968503937007874,
          "duration": 1.5546875
        },
        {
          "name": "C4",
          "midi": 60,
          "time": 537.703125,
          "velocity": 0.9921259842519685,
          "duration": 2.625
        },
        {
          "name": "D4",
          "midi": 62,
          "time": 537.703125,
          "velocity": 0.9921259842519685,
          "duration": 2.625
        },
        {
          "name": "F#4",
          "midi": 66,
          "time": 537.703125,
          "velocity": 0.9921259842519685,
          "duration": 2.625
        },
        {
          "name": "A4",
          "midi": 69,
          "time": 537.703125,
          "velocity": 0.9921259842519685,
          "duration": 2.625
        },
        {
          "name": "D5",
          "midi": 74,
          "time": 537.703125,
          "velocity": 0.9921259842519685,
          "duration": 2.625
        },
        {
          "name": "E5",
          "midi": 76,
          "time": 539.25,
          "velocity": 0.7795275590551181,
          "duration": 1.125
        },
        {
          "name": "E6",
          "midi": 88,
          "time": 539.25,
          "velocity": 0.7795275590551181,
          "duration": 1.125
        },
        {
          "name": "D6",
          "midi": 86,
          "time": 540.375,
          "velocity": 0.7480314960629921,
          "duration": 1.3125
        },
        {
          "name": "D5",
          "midi": 74,
          "time": 540.375,
          "velocity": 0.7480314960629921,
          "duration": 1.3125
        },
        {
          "name": "C#6",
          "midi": 85,
          "time": 541.6875,
          "velocity": 0.7165354330708661,
          "duration": 1.875
        },
        {
          "name": "C#5",
          "midi": 73,
          "time": 541.6875,
          "velocity": 0.7165354330708661,
          "duration": 1.875
        },
        {
          "name": "D6",
          "midi": 86,
          "time": 543.5625,
          "velocity": 0.5354330708661418,
          "duration": 1.875
        },
        {
          "name": "D5",
          "midi": 74,
          "time": 543.5625,
          "velocity": 0.5354330708661418,
          "duration": 1.875
        },
        {
          "name": "D5",
          "midi": 74,
          "time": 547.21875,
          "velocity": 0.5669291338582677,
          "duration": 0.15625
        },
        {
          "name": "G5",
          "midi": 79,
          "time": 547.375,
          "velocity": 0.5826771653543307,
          "duration": 0.1640625
        },
        {
          "name": "A#5",
          "midi": 82,
          "time": 547.5390625,
          "velocity": 0.6062992125984252,
          "duration": 0.1640625
        },
        {
          "name": "D6",
          "midi": 86,
          "time": 547.703125,
          "velocity": 0.6220472440944882,
          "duration": 0.15625
        },
        {
          "name": "D6",
          "midi": 86,
          "time": 548.296875,
          "velocity": 0.7007874015748031,
          "duration": 0.125
        },
        {
          "name": "G6",
          "midi": 91,
          "time": 548.421875,
          "velocity": 0.7165354330708661,
          "duration": 0.125
        },
        {
          "name": "A#6",
          "midi": 94,
          "time": 548.546875,
          "velocity": 0.7322834645669292,
          "duration": 0.1171875
        },
        {
          "name": "D7",
          "midi": 98,
          "time": 548.6640625,
          "velocity": 0.905511811023622,
          "duration": 3.3125
        },
        {
          "name": "C7",
          "midi": 96,
          "time": 552,
          "velocity": 0.36220472440944884,
          "duration": 1.484375
        },
        {
          "name": "C6",
          "midi": 84,
          "time": 552,
          "velocity": 0.36220472440944884,
          "duration": 1.484375
        },
        {
          "name": "A#6",
          "midi": 94,
          "time": 553.5,
          "velocity": 0.3779527559055118,
          "duration": 2.234375
        },
        {
          "name": "A#5",
          "midi": 82,
          "time": 553.5,
          "velocity": 0.3779527559055118,
          "duration": 2.234375
        },
        {
          "name": "A5",
          "midi": 81,
          "time": 555.75,
          "velocity": 0.4881889763779528,
          "duration": 2.234375
        },
        {
          "name": "A6",
          "midi": 93,
          "time": 555.75,
          "velocity": 0.4881889763779528,
          "duration": 2.234375
        },
        {
          "name": "G4",
          "midi": 67,
          "time": 557.0625,
          "velocity": 0.4881889763779528,
          "duration": 0.15625
        },
        {
          "name": "A#4",
          "midi": 70,
          "time": 557.2265625,
          "velocity": 0.5039370078740157,
          "duration": 0.1640625
        },
        {
          "name": "C#5",
          "midi": 73,
          "time": 557.3984375,
          "velocity": 0.5196850393700787,
          "duration": 0.1640625
        },
        {
          "name": "E5",
          "midi": 76,
          "time": 557.5703125,
          "velocity": 0.5433070866141733,
          "duration": 0.15625
        },
        {
          "name": "G5",
          "midi": 79,
          "time": 558.234375,
          "velocity": 0.6062992125984252,
          "duration": 0.203125
        },
        {
          "name": "A#5",
          "midi": 82,
          "time": 558.4453125,
          "velocity": 0.6299212598425197,
          "duration": 0.2109375
        },
        {
          "name": "C#6",
          "midi": 85,
          "time": 558.6640625,
          "velocity": 0.6535433070866141,
          "duration": 1.5625
        },
        {
          "name": "D6",
          "midi": 86,
          "time": 560.25,
          "velocity": 0.4881889763779528,
          "duration": 1.484375
        },
        {
          "name": "B6",
          "midi": 95,
          "time": 560.25,
          "velocity": 0.4881889763779528,
          "duration": 1.484375
        },
        {
          "name": "E6",
          "midi": 88,
          "time": 561.75,
          "velocity": 0.47244094488188976,
          "duration": 1.484375
        },
        {
          "name": "C#7",
          "midi": 97,
          "time": 561.75,
          "velocity": 0.47244094488188976,
          "duration": 1.484375
        },
        {
          "name": "A3",
          "midi": 57,
          "time": 563.625,
          "velocity": 0.8818897637795275,
          "duration": 0.9375
        },
        {
          "name": "A4",
          "midi": 69,
          "time": 563.625,
          "velocity": 0.8818897637795275,
          "duration": 0.9375
        },
        {
          "name": "D4",
          "midi": 62,
          "time": 564.84375,
          "velocity": 0.9763779527559056,
          "duration": 0.75
        },
        {
          "name": "A3",
          "midi": 57,
          "time": 564.84375,
          "velocity": 0.9763779527559056,
          "duration": 0.75
        },
        {
          "name": "F#3",
          "midi": 54,
          "time": 564.84375,
          "velocity": 0.9763779527559056,
          "duration": 0.75
        },
        {
          "name": "D3",
          "midi": 50,
          "time": 564.84375,
          "velocity": 0.9763779527559056,
          "duration": 0.75
        },
        {
          "name": "D5",
          "midi": 74,
          "time": 565.59375,
          "velocity": 0.8740157480314961,
          "duration": 0.75
        },
        {
          "name": "A4",
          "midi": 69,
          "time": 565.59375,
          "velocity": 0.8740157480314961,
          "duration": 0.75
        },
        {
          "name": "F#4",
          "midi": 66,
          "time": 565.59375,
          "velocity": 0.8740157480314961,
          "duration": 0.75
        },
        {
          "name": "D4",
          "midi": 62,
          "time": 565.59375,
          "velocity": 0.8740157480314961,
          "duration": 0.75
        },
        {
          "name": "F#4",
          "midi": 66,
          "time": 566.34375,
          "velocity": 0.8346456692913385,
          "duration": 0.75
        },
        {
          "name": "A4",
          "midi": 69,
          "time": 566.34375,
          "velocity": 0.8346456692913385,
          "duration": 0.75
        },
        {
          "name": "D5",
          "midi": 74,
          "time": 566.34375,
          "velocity": 0.8346456692913385,
          "duration": 0.75
        },
        {
          "name": "D4",
          "midi": 62,
          "time": 566.34375,
          "velocity": 0.8346456692913385,
          "duration": 0.75
        },
        {
          "name": "D3",
          "midi": 50,
          "time": 567.09375,
          "velocity": 0.984251968503937,
          "duration": 0.75
        },
        {
          "name": "D4",
          "midi": 62,
          "time": 567.09375,
          "velocity": 0.984251968503937,
          "duration": 0.75
        },
        {
          "name": "A3",
          "midi": 57,
          "time": 567.09375,
          "velocity": 0.984251968503937,
          "duration": 0.75
        },
        {
          "name": "F#3",
          "midi": 54,
          "time": 567.09375,
          "velocity": 0.984251968503937,
          "duration": 0.75
        },
        {
          "name": "D5",
          "midi": 74,
          "time": 567.84375,
          "velocity": 0.8976377952755905,
          "duration": 0.75
        },
        {
          "name": "A4",
          "midi": 69,
          "time": 567.84375,
          "velocity": 0.8976377952755905,
          "duration": 0.75
        },
        {
          "name": "F#4",
          "midi": 66,
          "time": 567.84375,
          "velocity": 0.8976377952755905,
          "duration": 0.75
        },
        {
          "name": "D4",
          "midi": 62,
          "time": 567.84375,
          "velocity": 0.8976377952755905,
          "duration": 0.75
        },
        {
          "name": "D4",
          "midi": 62,
          "time": 568.59375,
          "velocity": 0.889763779527559,
          "duration": 0.75
        },
        {
          "name": "D5",
          "midi": 74,
          "time": 568.59375,
          "velocity": 0.889763779527559,
          "duration": 0.75
        },
        {
          "name": "A4",
          "midi": 69,
          "time": 568.59375,
          "velocity": 0.889763779527559,
          "duration": 0.75
        },
        {
          "name": "F#4",
          "midi": 66,
          "time": 568.59375,
          "velocity": 0.889763779527559,
          "duration": 0.75
        },
        {
          "name": "D5",
          "midi": 74,
          "time": 569.34375,
          "velocity": 0.5196850393700787,
          "duration": 0.265625
        },
        {
          "name": "D4",
          "midi": 62,
          "time": 569.34375,
          "velocity": 0.5196850393700787,
          "duration": 0.265625
        },
        {
          "name": "C#4",
          "midi": 61,
          "time": 569.59375,
          "velocity": 0.5354330708661418,
          "duration": 0.265625
        },
        {
          "name": "C#5",
          "midi": 73,
          "time": 569.59375,
          "velocity": 0.5354330708661418,
          "duration": 0.265625
        },
        {
          "name": "D5",
          "midi": 74,
          "time": 569.84375,
          "velocity": 0.5511811023622047,
          "duration": 0.265625
        },
        {
          "name": "D4",
          "midi": 62,
          "time": 569.84375,
          "velocity": 0.5511811023622047,
          "duration": 0.265625
        },
        {
          "name": "E4",
          "midi": 64,
          "time": 570.09375,
          "velocity": 0.5669291338582677,
          "duration": 0.25
        },
        {
          "name": "E5",
          "midi": 76,
          "time": 570.09375,
          "velocity": 0.5669291338582677,
          "duration": 0.25
        },
        {
          "name": "F#4",
          "midi": 66,
          "time": 570.34375,
          "velocity": 0.5826771653543307,
          "duration": 0.25
        },
        {
          "name": "F#5",
          "midi": 78,
          "time": 570.34375,
          "velocity": 0.5826771653543307,
          "duration": 0.25
        },
        {
          "name": "A#5",
          "midi": 82,
          "time": 570.59375,
          "velocity": 0.5984251968503937,
          "duration": 0.25
        },
        {
          "name": "A#4",
          "midi": 70,
          "time": 570.59375,
          "velocity": 0.5984251968503937,
          "duration": 0.25
        },
        {
          "name": "A4",
          "midi": 69,
          "time": 570.84375,
          "velocity": 0.6141732283464567,
          "duration": 0.25
        },
        {
          "name": "A5",
          "midi": 81,
          "time": 570.84375,
          "velocity": 0.6141732283464567,
          "duration": 0.25
        },
        {
          "name": "G#4",
          "midi": 68,
          "time": 571.09375,
          "velocity": 0.6299212598425197,
          "duration": 0.25
        },
        {
          "name": "G#5",
          "midi": 80,
          "time": 571.09375,
          "velocity": 0.6299212598425197,
          "duration": 0.25
        },
        {
          "name": "A5",
          "midi": 81,
          "time": 571.34375,
          "velocity": 0.6456692913385826,
          "duration": 0.25
        },
        {
          "name": "A4",
          "midi": 69,
          "time": 571.34375,
          "velocity": 0.6456692913385826,
          "duration": 0.25
        },
        {
          "name": "C#6",
          "midi": 85,
          "time": 571.59375,
          "velocity": 0.6614173228346457,
          "duration": 0.25
        },
        {
          "name": "C#5",
          "midi": 73,
          "time": 571.59375,
          "velocity": 0.6614173228346457,
          "duration": 0.25
        },
        {
          "name": "D6",
          "midi": 86,
          "time": 571.84375,
          "velocity": 0.6771653543307087,
          "duration": 0.25
        },
        {
          "name": "D5",
          "midi": 74,
          "time": 571.84375,
          "velocity": 0.6771653543307087,
          "duration": 0.25
        },
        {
          "name": "D#6",
          "midi": 87,
          "time": 572.09375,
          "velocity": 0.6850393700787402,
          "duration": 0.25
        },
        {
          "name": "D#5",
          "midi": 75,
          "time": 572.09375,
          "velocity": 0.6850393700787402,
          "duration": 0.25
        },
        {
          "name": "D6",
          "midi": 86,
          "time": 572.34375,
          "velocity": 0.7007874015748031,
          "duration": 0.25
        },
        {
          "name": "D5",
          "midi": 74,
          "time": 572.34375,
          "velocity": 0.7007874015748031,
          "duration": 0.25
        },
        {
          "name": "C#6",
          "midi": 85,
          "time": 572.59375,
          "velocity": 0.7165354330708661,
          "duration": 0.25
        },
        {
          "name": "C#5",
          "midi": 73,
          "time": 572.59375,
          "velocity": 0.7165354330708661,
          "duration": 0.25
        },
        {
          "name": "D5",
          "midi": 74,
          "time": 572.84375,
          "velocity": 0.7322834645669292,
          "duration": 0.25
        },
        {
          "name": "D6",
          "midi": 86,
          "time": 572.84375,
          "velocity": 0.7322834645669292,
          "duration": 0.25
        },
        {
          "name": "E5",
          "midi": 76,
          "time": 573.09375,
          "velocity": 0.7480314960629921,
          "duration": 0.25
        },
        {
          "name": "E6",
          "midi": 88,
          "time": 573.09375,
          "velocity": 0.7480314960629921,
          "duration": 0.25
        },
        {
          "name": "F#6",
          "midi": 90,
          "time": 573.34375,
          "velocity": 0.7637795275590551,
          "duration": 0.25
        },
        {
          "name": "F#5",
          "midi": 78,
          "time": 573.34375,
          "velocity": 0.7637795275590551,
          "duration": 0.25
        },
        {
          "name": "G5",
          "midi": 79,
          "time": 573.59375,
          "velocity": 0.7795275590551181,
          "duration": 0.25
        },
        {
          "name": "G6",
          "midi": 91,
          "time": 573.59375,
          "velocity": 0.7795275590551181,
          "duration": 0.25
        },
        {
          "name": "G#6",
          "midi": 92,
          "time": 573.84375,
          "velocity": 0.7952755905511811,
          "duration": 0.25
        },
        {
          "name": "G#5",
          "midi": 80,
          "time": 573.84375,
          "velocity": 0.7952755905511811,
          "duration": 0.25
        },
        {
          "name": "A6",
          "midi": 93,
          "time": 574.09375,
          "velocity": 0.8110236220472441,
          "duration": 0.25
        },
        {
          "name": "A5",
          "midi": 81,
          "time": 574.09375,
          "velocity": 0.8110236220472441,
          "duration": 0.25
        },
        {
          "name": "G#6",
          "midi": 92,
          "time": 574.34375,
          "velocity": 0.8267716535433071,
          "duration": 0.25
        },
        {
          "name": "G#5",
          "midi": 80,
          "time": 574.34375,
          "velocity": 0.8267716535433071,
          "duration": 0.25
        },
        {
          "name": "A5",
          "midi": 81,
          "time": 574.59375,
          "velocity": 0.84251968503937,
          "duration": 0.25
        },
        {
          "name": "A6",
          "midi": 93,
          "time": 574.59375,
          "velocity": 0.84251968503937,
          "duration": 0.25
        },
        {
          "name": "A#5",
          "midi": 82,
          "time": 574.84375,
          "velocity": 0.8582677165354331,
          "duration": 0.25
        },
        {
          "name": "A#6",
          "midi": 94,
          "time": 574.84375,
          "velocity": 0.8582677165354331,
          "duration": 0.25
        },
        {
          "name": "C#6",
          "midi": 85,
          "time": 575.09375,
          "velocity": 0.8740157480314961,
          "duration": 0.25
        },
        {
          "name": "C#7",
          "midi": 97,
          "time": 575.09375,
          "velocity": 0.8740157480314961,
          "duration": 0.25
        },
        {
          "name": "D6",
          "midi": 86,
          "time": 575.34375,
          "velocity": 1,
          "duration": 1.125
        },
        {
          "name": "D7",
          "midi": 98,
          "time": 575.34375,
          "velocity": 1,
          "duration": 1.125
        },
        {
          "name": "D5",
          "midi": 74,
          "time": 576.46875,
          "velocity": 0.9212598425196851,
          "duration": 0.75
        },
        {
          "name": "A4",
          "midi": 69,
          "time": 576.46875,
          "velocity": 0.9212598425196851,
          "duration": 0.75
        },
        {
          "name": "F#4",
          "midi": 66,
          "time": 576.46875,
          "velocity": 0.9212598425196851,
          "duration": 0.75
        },
        {
          "name": "D4",
          "midi": 62,
          "time": 576.46875,
          "velocity": 0.9212598425196851,
          "duration": 0.75
        },
        {
          "name": "D3",
          "midi": 50,
          "time": 577.21875,
          "velocity": 0.9921259842519685,
          "duration": 1.5
        },
        {
          "name": "A3",
          "midi": 57,
          "time": 577.21875,
          "velocity": 0.9921259842519685,
          "duration": 1.5
        },
        {
          "name": "D4",
          "midi": 62,
          "time": 577.21875,
          "velocity": 0.9921259842519685,
          "duration": 1.5
        },
        {
          "name": "F#3",
          "midi": 54,
          "time": 577.21875,
          "velocity": 0.9921259842519685,
          "duration": 1.5
        }
      ],
      "controlChanges": {
        "6": [
          {
            "number": 6,
            "time": 0,
            "value": 0.09448818897637795
          },
          {
            "number": 6,
            "time": 0,
            "value": 0.09448818897637795
          },
          {
            "number": 6,
            "time": 0,
            "value": 0.09448818897637795
          },
          {
            "number": 6,
            "time": 582,
            "value": 0.09448818897637795
          },
          {
            "number": 6,
            "time": 582.0078125,
            "value": 0.09448818897637795
          },
          {
            "number": 6,
            "time": 582.0078125,
            "value": 0.09448818897637795
          }
        ],
        "7": [
          {
            "number": 7,
            "time": 0,
            "value": 0.7874015748031497
          },
          {
            "number": 7,
            "time": 0,
            "value": 0.7874015748031497
          },
          {
            "number": 7,
            "time": 0,
            "value": 0.7874015748031497
          },
          {
            "number": 7,
            "time": 0,
            "value": 0.7874015748031497
          },
          {
            "number": 7,
            "time": 0,
            "value": 0.7874015748031497
          },
          {
            "number": 7,
            "time": 0,
            "value": 0.7874015748031497
          },
          {
            "number": 7,
            "time": 582,
            "value": 0.7874015748031497
          },
          {
            "number": 7,
            "time": 582.0078125,
            "value": 0.7874015748031497
          },
          {
            "number": 7,
            "time": 582.0078125,
            "value": 0.7874015748031497
          }
        ],
        "10": [
          {
            "number": 10,
            "time": 0,
            "value": 0.5039370078740157
          },
          {
            "number": 10,
            "time": 0,
            "value": 0.5039370078740157
          },
          {
            "number": 10,
            "time": 0,
            "value": 0.5039370078740157
          },
          {
            "number": 10,
            "time": 0,
            "value": 0.5039370078740157
          },
          {
            "number": 10,
            "time": 0,
            "value": 0.5039370078740157
          },
          {
            "number": 10,
            "time": 0,
            "value": 0.5039370078740157
          },
          {
            "number": 10,
            "time": 582,
            "value": 0.5039370078740157
          },
          {
            "number": 10,
            "time": 582.0078125,
            "value": 0.5039370078740157
          },
          {
            "number": 10,
            "time": 582.0078125,
            "value": 0.5039370078740157
          }
        ],
        "100": [
          {
            "number": 100,
            "time": 0,
            "value": 0
          },
          {
            "number": 100,
            "time": 0,
            "value": 0
          },
          {
            "number": 100,
            "time": 0,
            "value": 0
          },
          {
            "number": 100,
            "time": 582,
            "value": 0
          },
          {
            "number": 100,
            "time": 582.0078125,
            "value": 0
          },
          {
            "number": 100,
            "time": 582.0078125,
            "value": 0
          }
        ],
        "101": [
          {
            "number": 101,
            "time": 0,
            "value": 0
          },
          {
            "number": 101,
            "time": 0,
            "value": 0
          },
          {
            "number": 101,
            "time": 0,
            "value": 0
          },
          {
            "number": 101,
            "time": 582,
            "value": 0
          },
          {
            "number": 101,
            "time": 582.0078125,
            "value": 0
          },
          {
            "number": 101,
            "time": 582.0078125,
            "value": 0
          }
        ]
      },
      "id": 1,
      "name": "S:  1",
      "instrumentNumber": 0,
      "instrument": "acoustic grand piano",
      "instrumentFamily": "piano",
      "channelNumber": 0,
      "isPercussion": false
    },
    {
      "startTime": 0,
      "duration": 578.71875,
      "length": 1293,
      "notes": [
        {
          "name": "A#4",
          "midi": 70,
          "time": 0,
          "velocity": 0.23622047244094488,
          "duration": 0.375
        },
        {
          "name": "C5",
          "midi": 72,
          "time": 0.375,
          "velocity": 0.29133858267716534,
          "duration": 0.375
        },
        {
          "name": "A#4",
          "midi": 70,
          "time": 0.75,
          "velocity": 0.3464566929133858,
          "duration": 0.375
        },
        {
          "name": "C5",
          "midi": 72,
          "time": 1.125,
          "velocity": 0.4094488188976378,
          "duration": 0.375
        },
        {
          "name": "A#4",
          "midi": 70,
          "time": 1.5,
          "velocity": 0.4645669291338583,
          "duration": 0.375
        },
        {
          "name": "C5",
          "midi": 72,
          "time": 1.875,
          "velocity": 0.5196850393700787,
          "duration": 0.375
        },
        {
          "name": "A4",
          "midi": 69,
          "time": 2.25,
          "velocity": 0.2440944881889764,
          "duration": 0.375
        },
        {
          "name": "A#4",
          "midi": 70,
          "time": 2.625,
          "velocity": 0.29133858267716534,
          "duration": 0.375
        },
        {
          "name": "A4",
          "midi": 69,
          "time": 3,
          "velocity": 0.33858267716535434,
          "duration": 0.375
        },
        {
          "name": "A#4",
          "midi": 70,
          "time": 3.375,
          "velocity": 0.3937007874015748,
          "duration": 0.375
        },
        {
          "name": "A4",
          "midi": 69,
          "time": 3.75,
          "velocity": 0.4409448818897638,
          "duration": 0.375
        },
        {
          "name": "A#4",
          "midi": 70,
          "time": 4.125,
          "velocity": 0.4881889763779528,
          "duration": 0.375
        },
        {
          "name": "G4",
          "midi": 67,
          "time": 4.5,
          "velocity": 0.2677165354330709,
          "duration": 0.375
        },
        {
          "name": "A4",
          "midi": 69,
          "time": 4.875,
          "velocity": 0.31496062992125984,
          "duration": 0.375
        },
        {
          "name": "G4",
          "midi": 67,
          "time": 5.25,
          "velocity": 0.36220472440944884,
          "duration": 0.375
        },
        {
          "name": "A4",
          "midi": 69,
          "time": 5.625,
          "velocity": 0.4094488188976378,
          "duration": 0.375
        },
        {
          "name": "G4",
          "midi": 67,
          "time": 6,
          "velocity": 0.44881889763779526,
          "duration": 0.375
        },
        {
          "name": "A4",
          "midi": 69,
          "time": 6.375,
          "velocity": 0.49606299212598426,
          "duration": 0.375
        },
        {
          "name": "F#4",
          "midi": 66,
          "time": 6.75,
          "velocity": 0.4330708661417323,
          "duration": 0.1875
        },
        {
          "name": "E4",
          "midi": 64,
          "time": 6.9375,
          "velocity": 0.4330708661417323,
          "duration": 0.1875
        },
        {
          "name": "D4",
          "midi": 62,
          "time": 7.125,
          "velocity": 0.5118110236220472,
          "duration": 1.078125
        },
        {
          "name": "D2",
          "midi": 38,
          "time": 8.25,
          "velocity": 0.23622047244094488,
          "duration": 0.296875
        },
        {
          "name": "A2",
          "midi": 45,
          "time": 8.546875,
          "velocity": 0.2755905511811024,
          "duration": 0.1796875
        },
        {
          "name": "F#3",
          "midi": 54,
          "time": 8.6953125,
          "velocity": 0.2992125984251969,
          "duration": 0.1875
        },
        {
          "name": "A4",
          "midi": 69,
          "time": 9.234375,
          "velocity": 0.3779527559055118,
          "duration": 0.1640625
        },
        {
          "name": "D5",
          "midi": 74,
          "time": 9.3828125,
          "velocity": 0.3937007874015748,
          "duration": 0.1640625
        },
        {
          "name": "F#5",
          "midi": 78,
          "time": 9.53125,
          "velocity": 0.41732283464566927,
          "duration": 0.1953125
        },
        {
          "name": "F#7",
          "midi": 102,
          "time": 10.1640625,
          "velocity": 0.5748031496062992,
          "duration": 4.046875
        },
        {
          "name": "C4",
          "midi": 60,
          "time": 15,
          "velocity": 0.5196850393700787,
          "duration": 0.734375
        },
        {
          "name": "A#4",
          "midi": 70,
          "time": 15.75,
          "velocity": 0.25984251968503935,
          "duration": 1.53125
        },
        {
          "name": "D5",
          "midi": 74,
          "time": 15.75,
          "velocity": 0.25984251968503935,
          "duration": 1.53125
        },
        {
          "name": "D4",
          "midi": 62,
          "time": 17.25,
          "velocity": 0.5118110236220472,
          "duration": 0.734375
        },
        {
          "name": "A4",
          "midi": 69,
          "time": 18,
          "velocity": 0.5275590551181102,
          "duration": 1.53125
        },
        {
          "name": "C5",
          "midi": 72,
          "time": 18,
          "velocity": 0.5275590551181102,
          "duration": 1.53125
        },
        {
          "name": "G3",
          "midi": 55,
          "time": 19.5,
          "velocity": 0.2125984251968504,
          "duration": 0.40625
        },
        {
          "name": "D4",
          "midi": 62,
          "time": 19.875,
          "velocity": 0.28346456692913385,
          "duration": 0.40625
        },
        {
          "name": "A4",
          "midi": 69,
          "time": 20.25,
          "velocity": 0.3937007874015748,
          "duration": 0.40625
        },
        {
          "name": "G4",
          "midi": 67,
          "time": 21,
          "velocity": 0.3700787401574803,
          "duration": 0.40625
        },
        {
          "name": "D4",
          "midi": 62,
          "time": 21.75,
          "velocity": 0.28346456692913385,
          "duration": 1.484375
        },
        {
          "name": "C4",
          "midi": 60,
          "time": 24,
          "velocity": 0.33070866141732286,
          "duration": 0.734375
        },
        {
          "name": "D#5",
          "midi": 75,
          "time": 24.75,
          "velocity": 0.3543307086614173,
          "duration": 1.484375
        },
        {
          "name": "G4",
          "midi": 67,
          "time": 24.75,
          "velocity": 0.3543307086614173,
          "duration": 1.484375
        },
        {
          "name": "F4",
          "midi": 65,
          "time": 26.25,
          "velocity": 0.3858267716535433,
          "duration": 1.484375
        },
        {
          "name": "C5",
          "midi": 72,
          "time": 27.75,
          "velocity": 0.3464566929133858,
          "duration": 0.734375
        },
        {
          "name": "A#3",
          "midi": 58,
          "time": 28.5,
          "velocity": 0.3228346456692913,
          "duration": 0.40625
        },
        {
          "name": "F4",
          "midi": 65,
          "time": 28.875,
          "velocity": 0.28346456692913385,
          "duration": 0.40625
        },
        {
          "name": "A#4",
          "midi": 70,
          "time": 29.25,
          "velocity": 0.4094488188976378,
          "duration": 0.734375
        },
        {
          "name": "D5",
          "midi": 74,
          "time": 30.75,
          "velocity": 0.3937007874015748,
          "duration": 0.390625
        },
        {
          "name": "A#4",
          "midi": 70,
          "time": 31.125,
          "velocity": 0.31496062992125984,
          "duration": 0.390625
        },
        {
          "name": "D5",
          "midi": 74,
          "time": 31.5,
          "velocity": 0.4094488188976378,
          "duration": 0.390625
        },
        {
          "name": "E4",
          "midi": 64,
          "time": 33,
          "velocity": 0.31496062992125984,
          "duration": 0.734375
        },
        {
          "name": "D5",
          "midi": 74,
          "time": 33.75,
          "velocity": 0.31496062992125984,
          "duration": 0.40625
        },
        {
          "name": "A#4",
          "midi": 70,
          "time": 34.125,
          "velocity": 0.31496062992125984,
          "duration": 0.40625
        },
        {
          "name": "G5",
          "midi": 79,
          "time": 34.5,
          "velocity": 0.31496062992125984,
          "duration": 0.734375
        },
        {
          "name": "A3",
          "midi": 57,
          "time": 35.25,
          "velocity": 0.31496062992125984,
          "duration": 0.40625
        },
        {
          "name": "G4",
          "midi": 67,
          "time": 35.625,
          "velocity": 0.31496062992125984,
          "duration": 0.40625
        },
        {
          "name": "E4",
          "midi": 64,
          "time": 36,
          "velocity": 0.31496062992125984,
          "duration": 0.40625
        },
        {
          "name": "C#5",
          "midi": 73,
          "time": 36.375,
          "velocity": 0.31496062992125984,
          "duration": 1.015625
        },
        {
          "name": "D4",
          "midi": 62,
          "time": 37.5,
          "velocity": 0.31496062992125984,
          "duration": 0.40625
        },
        {
          "name": "C5",
          "midi": 72,
          "time": 37.875,
          "velocity": 0.31496062992125984,
          "duration": 0.40625
        },
        {
          "name": "A4",
          "midi": 69,
          "time": 38.25,
          "velocity": 0.31496062992125984,
          "duration": 0.40625
        },
        {
          "name": "F5",
          "midi": 77,
          "time": 38.625,
          "velocity": 0.31496062992125984,
          "duration": 1.015625
        },
        {
          "name": "C4",
          "midi": 60,
          "time": 39.75,
          "velocity": 0.31496062992125984,
          "duration": 0.40625
        },
        {
          "name": "A4",
          "midi": 69,
          "time": 40.125,
          "velocity": 0.31496062992125984,
          "duration": 0.40625
        },
        {
          "name": "F4",
          "midi": 65,
          "time": 40.5,
          "velocity": 0.31496062992125984,
          "duration": 0.40625
        },
        {
          "name": "D5",
          "midi": 74,
          "time": 40.875,
          "velocity": 0.31496062992125984,
          "duration": 1.0625
        },
        {
          "name": "A#3",
          "midi": 58,
          "time": 42,
          "velocity": 0.2677165354330709,
          "duration": 0.40625
        },
        {
          "name": "F4",
          "midi": 65,
          "time": 42.375,
          "velocity": 0.2677165354330709,
          "duration": 0.40625
        },
        {
          "name": "A#4",
          "midi": 70,
          "time": 42.75,
          "velocity": 0.2677165354330709,
          "duration": 0.40625
        },
        {
          "name": "C5",
          "midi": 72,
          "time": 43.125,
          "velocity": 0.2677165354330709,
          "duration": 1.0625
        },
        {
          "name": "A3",
          "midi": 57,
          "time": 44.25,
          "velocity": 0.2677165354330709,
          "duration": 0.40625
        },
        {
          "name": "E4",
          "midi": 64,
          "time": 44.625,
          "velocity": 0.2677165354330709,
          "duration": 0.40625
        },
        {
          "name": "C5",
          "midi": 72,
          "time": 45,
          "velocity": 0.2677165354330709,
          "duration": 0.40625
        },
        {
          "name": "G4",
          "midi": 67,
          "time": 45.375,
          "velocity": 0.2677165354330709,
          "duration": 0.40625
        },
        {
          "name": "D3",
          "midi": 50,
          "time": 46.5,
          "velocity": 0.44881889763779526,
          "duration": 1.484375
        },
        {
          "name": "A3",
          "midi": 57,
          "time": 47.25,
          "velocity": 0.33858267716535434,
          "duration": 0.78125
        },
        {
          "name": "D2",
          "midi": 38,
          "time": 49.6875,
          "velocity": 0.7795275590551181,
          "duration": 5.8125
        },
        {
          "name": "D3",
          "midi": 50,
          "time": 49.6875,
          "velocity": 0.7795275590551181,
          "duration": 1.3125
        },
        {
          "name": "D3",
          "midi": 50,
          "time": 50.578125,
          "velocity": 0.5039370078740157,
          "duration": 4.90625
        },
        {
          "name": "D#4",
          "midi": 63,
          "time": 51.28125,
          "velocity": 0.5196850393700787,
          "duration": 4.21875
        },
        {
          "name": "A3",
          "midi": 57,
          "time": 51.28125,
          "velocity": 0.5196850393700787,
          "duration": 4.21875
        },
        {
          "name": "D4",
          "midi": 62,
          "time": 55.5,
          "velocity": 0.4881889763779528,
          "duration": 2.25
        },
        {
          "name": "C4",
          "midi": 60,
          "time": 57.75,
          "velocity": 0.6377952755905512,
          "duration": 2.25
        },
        {
          "name": "A#3",
          "midi": 58,
          "time": 60,
          "velocity": 0.7086614173228346,
          "duration": 2.25
        },
        {
          "name": "A3",
          "midi": 57,
          "time": 62.25,
          "velocity": 0.9921259842519685,
          "duration": 2.25
        },
        {
          "name": "D2",
          "midi": 38,
          "time": 64.5,
          "velocity": 1,
          "duration": 2.109375
        },
        {
          "name": "A#1",
          "midi": 34,
          "time": 64.5,
          "velocity": 1,
          "duration": 2.109375
        },
        {
          "name": "G1",
          "midi": 31,
          "time": 64.5,
          "velocity": 1,
          "duration": 2.109375
        },
        {
          "name": "G2",
          "midi": 43,
          "time": 64.5,
          "velocity": 1,
          "duration": 2.109375
        },
        {
          "name": "D2",
          "midi": 38,
          "time": 66.75,
          "velocity": 0.8346456692913385,
          "duration": 1.46875
        },
        {
          "name": "D1",
          "midi": 26,
          "time": 66.75,
          "velocity": 0.8346456692913385,
          "duration": 1.46875
        },
        {
          "name": "D1",
          "midi": 26,
          "time": 68.84375,
          "velocity": 0.8503937007874016,
          "duration": 0.1328125
        },
        {
          "name": "F#1",
          "midi": 30,
          "time": 68.90625,
          "velocity": 0.8503937007874016,
          "duration": 0.1328125
        },
        {
          "name": "G1",
          "midi": 31,
          "time": 69.0078125,
          "velocity": 0.8503937007874016,
          "duration": 0.140625
        },
        {
          "name": "D2",
          "midi": 38,
          "time": 71.25,
          "velocity": 0.6929133858267716,
          "duration": 0.75
        },
        {
          "name": "D3",
          "midi": 50,
          "time": 71.25,
          "velocity": 0.6929133858267716,
          "duration": 0.75
        },
        {
          "name": "G3",
          "midi": 55,
          "time": 72,
          "velocity": 0.6062992125984252,
          "duration": 0.1875
        },
        {
          "name": "A#3",
          "midi": 58,
          "time": 72,
          "velocity": 0.6062992125984252,
          "duration": 0.1875
        },
        {
          "name": "D4",
          "midi": 62,
          "time": 72,
          "velocity": 0.6062992125984252,
          "duration": 0.1875
        },
        {
          "name": "G3",
          "midi": 55,
          "time": 72.75,
          "velocity": 0.5905511811023622,
          "duration": 0.1875
        },
        {
          "name": "A#3",
          "midi": 58,
          "time": 72.75,
          "velocity": 0.5905511811023622,
          "duration": 0.1875
        },
        {
          "name": "D4",
          "midi": 62,
          "time": 72.75,
          "velocity": 0.5905511811023622,
          "duration": 0.1875
        },
        {
          "name": "C2",
          "midi": 36,
          "time": 73.5,
          "velocity": 0.6929133858267716,
          "duration": 1.125
        },
        {
          "name": "D3",
          "midi": 50,
          "time": 74.625,
          "velocity": 0.5748031496062992,
          "duration": 0.1875
        },
        {
          "name": "A#2",
          "midi": 46,
          "time": 74.625,
          "velocity": 0.5748031496062992,
          "duration": 0.1875
        },
        {
          "name": "D2",
          "midi": 38,
          "time": 75.75,
          "velocity": 0.5748031496062992,
          "duration": 0.1875
        },
        {
          "name": "D3",
          "midi": 50,
          "time": 76.875,
          "velocity": 0.5433070866141733,
          "duration": 0.1875
        },
        {
          "name": "F#3",
          "midi": 54,
          "time": 76.875,
          "velocity": 0.5433070866141733,
          "duration": 0.1875
        },
        {
          "name": "A3",
          "midi": 57,
          "time": 76.875,
          "velocity": 0.5433070866141733,
          "duration": 0.1875
        },
        {
          "name": "G2",
          "midi": 43,
          "time": 78,
          "velocity": 0.5905511811023622,
          "duration": 0.75
        },
        {
          "name": "A3",
          "midi": 57,
          "time": 78.75,
          "velocity": 0.5039370078740157,
          "duration": 0.1875
        },
        {
          "name": "G3",
          "midi": 55,
          "time": 79.5,
          "velocity": 0.5039370078740157,
          "duration": 0.1875
        },
        {
          "name": "D3",
          "midi": 50,
          "time": 80.25,
          "velocity": 0.6614173228346457,
          "duration": 0.75
        },
        {
          "name": "G2",
          "midi": 43,
          "time": 80.25,
          "velocity": 0.6614173228346457,
          "duration": 0.75
        },
        {
          "name": "G3",
          "midi": 55,
          "time": 81.375,
          "velocity": 0.5905511811023622,
          "duration": 0.1875
        },
        {
          "name": "A#3",
          "midi": 58,
          "time": 81.375,
          "velocity": 0.5905511811023622,
          "duration": 0.1875
        },
        {
          "name": "D4",
          "midi": 62,
          "time": 81.375,
          "velocity": 0.5905511811023622,
          "duration": 0.1875
        },
        {
          "name": "C2",
          "midi": 36,
          "time": 82.5,
          "velocity": 0.6614173228346457,
          "duration": 0.75
        },
        {
          "name": "G3",
          "midi": 55,
          "time": 83.625,
          "velocity": 0.5905511811023622,
          "duration": 0.1875
        },
        {
          "name": "A#3",
          "midi": 58,
          "time": 83.625,
          "velocity": 0.5905511811023622,
          "duration": 0.1875
        },
        {
          "name": "D#4",
          "midi": 63,
          "time": 83.625,
          "velocity": 0.5905511811023622,
          "duration": 0.1875
        },
        {
          "name": "F2",
          "midi": 41,
          "time": 84.75,
          "velocity": 0.6614173228346457,
          "duration": 0.75
        },
        {
          "name": "A3",
          "midi": 57,
          "time": 85.875,
          "velocity": 0.6771653543307087,
          "duration": 0.1875
        },
        {
          "name": "C4",
          "midi": 60,
          "time": 85.875,
          "velocity": 0.6771653543307087,
          "duration": 0.1875
        },
        {
          "name": "F4",
          "midi": 65,
          "time": 85.875,
          "velocity": 0.6771653543307087,
          "duration": 0.1875
        },
        {
          "name": "A#1",
          "midi": 34,
          "time": 87,
          "velocity": 0.6614173228346457,
          "duration": 0.75
        },
        {
          "name": "D#4",
          "midi": 63,
          "time": 88.5,
          "velocity": 0.4409448818897638,
          "duration": 0.375
        },
        {
          "name": "D4",
          "midi": 62,
          "time": 88.875,
          "velocity": 0.49606299212598426,
          "duration": 0.375
        },
        {
          "name": "F3",
          "midi": 53,
          "time": 89.25,
          "velocity": 0.5433070866141733,
          "duration": 0.375
        },
        {
          "name": "A3",
          "midi": 57,
          "time": 89.625,
          "velocity": 0.5984251968503937,
          "duration": 0.375
        },
        {
          "name": "D4",
          "midi": 62,
          "time": 90,
          "velocity": 0.6771653543307087,
          "duration": 0.375
        },
        {
          "name": "E2",
          "midi": 40,
          "time": 91.5,
          "velocity": 0.6614173228346457,
          "duration": 0.75
        },
        {
          "name": "E3",
          "midi": 52,
          "time": 92.625,
          "velocity": 0.6771653543307087,
          "duration": 0.1875
        },
        {
          "name": "A3",
          "midi": 57,
          "time": 92.625,
          "velocity": 0.6771653543307087,
          "duration": 0.1875
        },
        {
          "name": "C#4",
          "midi": 61,
          "time": 92.625,
          "velocity": 0.6771653543307087,
          "duration": 0.1875
        },
        {
          "name": "A2",
          "midi": 45,
          "time": 93.75,
          "velocity": 0.6614173228346457,
          "duration": 0.75
        },
        {
          "name": "G3",
          "midi": 55,
          "time": 94.5,
          "velocity": 0.6614173228346457,
          "duration": 0.375
        },
        {
          "name": "E3",
          "midi": 52,
          "time": 94.875,
          "velocity": 0.6614173228346457,
          "duration": 0.375
        },
        {
          "name": "C#3",
          "midi": 49,
          "time": 95.25,
          "velocity": 0.6614173228346457,
          "duration": 0.375
        },
        {
          "name": "D2",
          "midi": 38,
          "time": 96,
          "velocity": 0.5590551181102362,
          "duration": 0.28125
        },
        {
          "name": "D4",
          "midi": 62,
          "time": 97.5,
          "velocity": 0.6062992125984252,
          "duration": 0.1875
        },
        {
          "name": "A3",
          "midi": 57,
          "time": 97.5,
          "velocity": 0.6062992125984252,
          "duration": 0.1875
        },
        {
          "name": "C2",
          "midi": 36,
          "time": 98.25,
          "velocity": 0.5433070866141733,
          "duration": 0.75
        },
        {
          "name": "D4",
          "midi": 62,
          "time": 99.75,
          "velocity": 0.5039370078740157,
          "duration": 0.1875
        },
        {
          "name": "A3",
          "midi": 57,
          "time": 99.75,
          "velocity": 0.5039370078740157,
          "duration": 0.1875
        },
        {
          "name": "F3",
          "midi": 53,
          "time": 99.75,
          "velocity": 0.5039370078740157,
          "duration": 0.1875
        },
        {
          "name": "A#2",
          "midi": 46,
          "time": 100.5,
          "velocity": 0.6062992125984252,
          "duration": 0.375
        },
        {
          "name": "F3",
          "midi": 53,
          "time": 100.875,
          "velocity": 0.6062992125984252,
          "duration": 0.375
        },
        {
          "name": "A#3",
          "midi": 58,
          "time": 101.25,
          "velocity": 0.6062992125984252,
          "duration": 0.375
        },
        {
          "name": "C4",
          "midi": 60,
          "time": 101.625,
          "velocity": 0.6062992125984252,
          "duration": 0.375
        },
        {
          "name": "A#3",
          "midi": 58,
          "time": 102,
          "velocity": 0.6062992125984252,
          "duration": 0.375
        },
        {
          "name": "F3",
          "midi": 53,
          "time": 102.375,
          "velocity": 0.6062992125984252,
          "duration": 0.375
        },
        {
          "name": "A2",
          "midi": 45,
          "time": 102.75,
          "velocity": 0.6062992125984252,
          "duration": 0.375
        },
        {
          "name": "G3",
          "midi": 55,
          "time": 103.125,
          "velocity": 0.6062992125984252,
          "duration": 0.375
        },
        {
          "name": "E3",
          "midi": 52,
          "time": 103.5,
          "velocity": 0.6062992125984252,
          "duration": 0.75
        },
        {
          "name": "D2",
          "midi": 38,
          "time": 105,
          "velocity": 0.5590551181102362,
          "duration": 1.875
        },
        {
          "name": "D3",
          "midi": 50,
          "time": 107.2578125,
          "velocity": 0.7716535433070866,
          "duration": 0.703125
        },
        {
          "name": "A3",
          "midi": 57,
          "time": 107.2578125,
          "velocity": 0.7716535433070866,
          "duration": 0.703125
        },
        {
          "name": "D4",
          "midi": 62,
          "time": 107.2578125,
          "velocity": 0.7716535433070866,
          "duration": 0.703125
        },
        {
          "name": "A3",
          "midi": 57,
          "time": 108.375,
          "velocity": 0.5433070866141733,
          "duration": 0.75
        },
        {
          "name": "D4",
          "midi": 62,
          "time": 108.375,
          "velocity": 0.5433070866141733,
          "duration": 0.75
        },
        {
          "name": "F#3",
          "midi": 54,
          "time": 108.375,
          "velocity": 0.5433070866141733,
          "duration": 0.75
        },
        {
          "name": "C2",
          "midi": 36,
          "time": 109.5,
          "velocity": 0.7401574803149606,
          "duration": 0.75
        },
        {
          "name": "G3",
          "midi": 55,
          "time": 110.625,
          "velocity": 0.5433070866141733,
          "duration": 0.75
        },
        {
          "name": "A#3",
          "midi": 58,
          "time": 110.625,
          "velocity": 0.5433070866141733,
          "duration": 0.75
        },
        {
          "name": "D#4",
          "midi": 63,
          "time": 110.625,
          "velocity": 0.5433070866141733,
          "duration": 0.75
        },
        {
          "name": "D2",
          "midi": 38,
          "time": 111.75,
          "velocity": 0.5433070866141733,
          "duration": 0.75
        },
        {
          "name": "D3",
          "midi": 50,
          "time": 112.875,
          "velocity": 0.5590551181102362,
          "duration": 0.75
        },
        {
          "name": "F#3",
          "midi": 54,
          "time": 112.875,
          "velocity": 0.5590551181102362,
          "duration": 0.75
        },
        {
          "name": "A3",
          "midi": 57,
          "time": 112.875,
          "velocity": 0.5590551181102362,
          "duration": 0.75
        },
        {
          "name": "D4",
          "midi": 62,
          "time": 112.875,
          "velocity": 0.5590551181102362,
          "duration": 0.75
        },
        {
          "name": "G2",
          "midi": 43,
          "time": 114,
          "velocity": 0.5590551181102362,
          "duration": 0.75
        },
        {
          "name": "G3",
          "midi": 55,
          "time": 114.75,
          "velocity": 0.5590551181102362,
          "duration": 0.375
        },
        {
          "name": "A#3",
          "midi": 58,
          "time": 114.75,
          "velocity": 0.5590551181102362,
          "duration": 0.375
        },
        {
          "name": "D4",
          "midi": 62,
          "time": 114.75,
          "velocity": 0.5590551181102362,
          "duration": 0.375
        },
        {
          "name": "G3",
          "midi": 55,
          "time": 115.5,
          "velocity": 0.5590551181102362,
          "duration": 0.375
        },
        {
          "name": "A#3",
          "midi": 58,
          "time": 115.5,
          "velocity": 0.5590551181102362,
          "duration": 0.375
        },
        {
          "name": "D4",
          "midi": 62,
          "time": 115.5,
          "velocity": 0.5590551181102362,
          "duration": 0.375
        },
        {
          "name": "D#4",
          "midi": 63,
          "time": 116.25,
          "velocity": 0.5590551181102362,
          "duration": 0.984375
        },
        {
          "name": "A#3",
          "midi": 58,
          "time": 116.25,
          "velocity": 0.5590551181102362,
          "duration": 0.984375
        },
        {
          "name": "G3",
          "midi": 55,
          "time": 116.25,
          "velocity": 0.5590551181102362,
          "duration": 0.984375
        },
        {
          "name": "D4",
          "midi": 62,
          "time": 117.375,
          "velocity": 0.5590551181102362,
          "duration": 0.9375
        },
        {
          "name": "G3",
          "midi": 55,
          "time": 117.375,
          "velocity": 0.5590551181102362,
          "duration": 0.9375
        },
        {
          "name": "A#3",
          "midi": 58,
          "time": 117.375,
          "velocity": 0.5590551181102362,
          "duration": 0.9375
        },
        {
          "name": "D#2",
          "midi": 39,
          "time": 118.5,
          "velocity": 0.5354330708661418,
          "duration": 0.75
        },
        {
          "name": "D#3",
          "midi": 51,
          "time": 118.5,
          "velocity": 0.5354330708661418,
          "duration": 0.75
        },
        {
          "name": "D#4",
          "midi": 63,
          "time": 119.25,
          "velocity": 0.5354330708661418,
          "duration": 0.375
        },
        {
          "name": "G3",
          "midi": 55,
          "time": 119.25,
          "velocity": 0.5354330708661418,
          "duration": 0.375
        },
        {
          "name": "A#3",
          "midi": 58,
          "time": 119.25,
          "velocity": 0.5354330708661418,
          "duration": 0.375
        },
        {
          "name": "A#3",
          "midi": 58,
          "time": 120,
          "velocity": 0.5039370078740157,
          "duration": 0.3671875
        },
        {
          "name": "G3",
          "midi": 55,
          "time": 120,
          "velocity": 0.5039370078740157,
          "duration": 0.3671875
        },
        {
          "name": "D#4",
          "midi": 63,
          "time": 120,
          "velocity": 0.5039370078740157,
          "duration": 0.3671875
        },
        {
          "name": "F2",
          "midi": 41,
          "time": 120.75,
          "velocity": 0.5039370078740157,
          "duration": 0.75
        },
        {
          "name": "F3",
          "midi": 53,
          "time": 121.5,
          "velocity": 0.5039370078740157,
          "duration": 0.375
        },
        {
          "name": "A3",
          "midi": 57,
          "time": 121.5,
          "velocity": 0.5039370078740157,
          "duration": 0.375
        },
        {
          "name": "D#4",
          "midi": 63,
          "time": 121.5,
          "velocity": 0.5039370078740157,
          "duration": 0.375
        },
        {
          "name": "D#4",
          "midi": 63,
          "time": 122.25,
          "velocity": 0.5196850393700787,
          "duration": 0.375
        },
        {
          "name": "F3",
          "midi": 53,
          "time": 122.25,
          "velocity": 0.5196850393700787,
          "duration": 0.375
        },
        {
          "name": "A3",
          "midi": 57,
          "time": 122.25,
          "velocity": 0.5196850393700787,
          "duration": 0.375
        },
        {
          "name": "A#2",
          "midi": 46,
          "time": 123,
          "velocity": 0.5196850393700787,
          "duration": 0.75
        },
        {
          "name": "F3",
          "midi": 53,
          "time": 123.75,
          "velocity": 0.5354330708661418,
          "duration": 0.375
        },
        {
          "name": "D4",
          "midi": 62,
          "time": 123.75,
          "velocity": 0.5354330708661418,
          "duration": 0.375
        },
        {
          "name": "A#3",
          "midi": 58,
          "time": 123.75,
          "velocity": 0.5354330708661418,
          "duration": 0.375
        },
        {
          "name": "A#3",
          "midi": 58,
          "time": 124.5,
          "velocity": 0.5433070866141733,
          "duration": 0.3671875
        },
        {
          "name": "D4",
          "midi": 62,
          "time": 124.5,
          "velocity": 0.5433070866141733,
          "duration": 0.3671875
        },
        {
          "name": "F3",
          "midi": 53,
          "time": 124.5,
          "velocity": 0.5433070866141733,
          "duration": 0.3671875
        },
        {
          "name": "F2",
          "midi": 41,
          "time": 125.25,
          "velocity": 0.4881889763779528,
          "duration": 0.75
        },
        {
          "name": "D4",
          "midi": 62,
          "time": 126,
          "velocity": 0.4881889763779528,
          "duration": 0.375
        },
        {
          "name": "A#3",
          "midi": 58,
          "time": 126,
          "velocity": 0.4881889763779528,
          "duration": 0.375
        },
        {
          "name": "F3",
          "midi": 53,
          "time": 126,
          "velocity": 0.4881889763779528,
          "duration": 0.375
        },
        {
          "name": "F3",
          "midi": 53,
          "time": 126.75,
          "velocity": 0.4881889763779528,
          "duration": 0.3828125
        },
        {
          "name": "A#3",
          "midi": 58,
          "time": 126.75,
          "velocity": 0.4881889763779528,
          "duration": 0.3828125
        },
        {
          "name": "D4",
          "midi": 62,
          "time": 126.75,
          "velocity": 0.4881889763779528,
          "duration": 0.3828125
        },
        {
          "name": "E2",
          "midi": 40,
          "time": 127.5,
          "velocity": 0.5433070866141733,
          "duration": 0.75
        },
        {
          "name": "E3",
          "midi": 52,
          "time": 128.25,
          "velocity": 0.5433070866141733,
          "duration": 0.375
        },
        {
          "name": "C#4",
          "midi": 61,
          "time": 128.25,
          "velocity": 0.5433070866141733,
          "duration": 0.375
        },
        {
          "name": "A3",
          "midi": 57,
          "time": 128.25,
          "velocity": 0.5433070866141733,
          "duration": 0.375
        },
        {
          "name": "C#4",
          "midi": 61,
          "time": 129,
          "velocity": 0.5433070866141733,
          "duration": 0.3828125
        },
        {
          "name": "A3",
          "midi": 57,
          "time": 129,
          "velocity": 0.5433070866141733,
          "duration": 0.3828125
        },
        {
          "name": "E3",
          "midi": 52,
          "time": 129,
          "velocity": 0.5433070866141733,
          "duration": 0.3828125
        },
        {
          "name": "A2",
          "midi": 45,
          "time": 129.75,
          "velocity": 0.5433070866141733,
          "duration": 0.75
        },
        {
          "name": "A3",
          "midi": 57,
          "time": 130.5,
          "velocity": 0.5433070866141733,
          "duration": 0.375
        },
        {
          "name": "C#4",
          "midi": 61,
          "time": 130.5,
          "velocity": 0.5433070866141733,
          "duration": 0.375
        },
        {
          "name": "E3",
          "midi": 52,
          "time": 130.5,
          "velocity": 0.5433070866141733,
          "duration": 0.375
        },
        {
          "name": "C#4",
          "midi": 61,
          "time": 131.25,
          "velocity": 0.5433070866141733,
          "duration": 0.375
        },
        {
          "name": "A3",
          "midi": 57,
          "time": 131.25,
          "velocity": 0.5433070866141733,
          "duration": 0.375
        },
        {
          "name": "E3",
          "midi": 52,
          "time": 131.25,
          "velocity": 0.5433070866141733,
          "duration": 0.375
        },
        {
          "name": "D2",
          "midi": 38,
          "time": 132,
          "velocity": 0.5433070866141733,
          "duration": 0.75
        },
        {
          "name": "A3",
          "midi": 57,
          "time": 132.75,
          "velocity": 0.5433070866141733,
          "duration": 0.375
        },
        {
          "name": "F3",
          "midi": 53,
          "time": 132.75,
          "velocity": 0.5433070866141733,
          "duration": 0.375
        },
        {
          "name": "D4",
          "midi": 62,
          "time": 132.75,
          "velocity": 0.5433070866141733,
          "duration": 0.375
        },
        {
          "name": "F3",
          "midi": 53,
          "time": 133.5,
          "velocity": 0.5196850393700787,
          "duration": 0.390625
        },
        {
          "name": "A3",
          "midi": 57,
          "time": 133.5,
          "velocity": 0.5196850393700787,
          "duration": 0.390625
        },
        {
          "name": "D4",
          "midi": 62,
          "time": 133.5,
          "velocity": 0.5196850393700787,
          "duration": 0.390625
        },
        {
          "name": "D4",
          "midi": 62,
          "time": 133.5,
          "velocity": 0.5196850393700787,
          "duration": 0.390625
        },
        {
          "name": "C2",
          "midi": 36,
          "time": 134.25,
          "velocity": 0.5196850393700787,
          "duration": 0.75
        },
        {
          "name": "D4",
          "midi": 62,
          "time": 135,
          "velocity": 0.5196850393700787,
          "duration": 0.375
        },
        {
          "name": "A3",
          "midi": 57,
          "time": 135,
          "velocity": 0.5196850393700787,
          "duration": 0.375
        },
        {
          "name": "F3",
          "midi": 53,
          "time": 135,
          "velocity": 0.5196850393700787,
          "duration": 0.375
        },
        {
          "name": "D4",
          "midi": 62,
          "time": 135.75,
          "velocity": 0.5196850393700787,
          "duration": 0.359375
        },
        {
          "name": "F3",
          "midi": 53,
          "time": 135.75,
          "velocity": 0.5196850393700787,
          "duration": 0.359375
        },
        {
          "name": "A3",
          "midi": 57,
          "time": 135.75,
          "velocity": 0.5196850393700787,
          "duration": 0.359375
        },
        {
          "name": "D4",
          "midi": 62,
          "time": 135.75,
          "velocity": 0.5196850393700787,
          "duration": 0.359375
        },
        {
          "name": "A#1",
          "midi": 34,
          "time": 136.5,
          "velocity": 0.5196850393700787,
          "duration": 0.75
        },
        {
          "name": "F3",
          "midi": 53,
          "time": 137.25,
          "velocity": 0.5433070866141733,
          "duration": 0.375
        },
        {
          "name": "A#3",
          "midi": 58,
          "time": 137.25,
          "velocity": 0.5433070866141733,
          "duration": 0.375
        },
        {
          "name": "D4",
          "midi": 62,
          "time": 137.25,
          "velocity": 0.5433070866141733,
          "duration": 0.375
        },
        {
          "name": "A#3",
          "midi": 58,
          "time": 138,
          "velocity": 0.5433070866141733,
          "duration": 0.3671875
        },
        {
          "name": "F3",
          "midi": 53,
          "time": 138,
          "velocity": 0.5433070866141733,
          "duration": 0.3671875
        },
        {
          "name": "D4",
          "midi": 62,
          "time": 138,
          "velocity": 0.5433070866141733,
          "duration": 0.3671875
        },
        {
          "name": "A1",
          "midi": 33,
          "time": 138.75,
          "velocity": 0.5748031496062992,
          "duration": 0.75
        },
        {
          "name": "A3",
          "midi": 57,
          "time": 139.5,
          "velocity": 0.5590551181102362,
          "duration": 0.375
        },
        {
          "name": "C#4",
          "midi": 61,
          "time": 139.5,
          "velocity": 0.5590551181102362,
          "duration": 0.375
        },
        {
          "name": "E4",
          "midi": 64,
          "time": 139.5,
          "velocity": 0.5590551181102362,
          "duration": 0.375
        },
        {
          "name": "E4",
          "midi": 64,
          "time": 140.25,
          "velocity": 0.5590551181102362,
          "duration": 0.3671875
        },
        {
          "name": "A3",
          "midi": 57,
          "time": 140.25,
          "velocity": 0.5590551181102362,
          "duration": 0.3671875
        },
        {
          "name": "C#4",
          "midi": 61,
          "time": 140.25,
          "velocity": 0.5590551181102362,
          "duration": 0.3671875
        },
        {
          "name": "D2",
          "midi": 38,
          "time": 141,
          "velocity": 0.6929133858267716,
          "duration": 0.75
        },
        {
          "name": "D2",
          "midi": 38,
          "time": 141.75,
          "velocity": 0.5196850393700787,
          "duration": 0.1875
        },
        {
          "name": "D3",
          "midi": 50,
          "time": 141.75,
          "velocity": 0.5196850393700787,
          "duration": 0.1875
        },
        {
          "name": "A2",
          "midi": 45,
          "time": 141.75,
          "velocity": 0.5196850393700787,
          "duration": 0.1875
        },
        {
          "name": "D3",
          "midi": 50,
          "time": 142.5,
          "velocity": 0.6299212598425197,
          "duration": 0.1875
        },
        {
          "name": "D2",
          "midi": 38,
          "time": 142.5,
          "velocity": 0.6299212598425197,
          "duration": 0.1875
        },
        {
          "name": "A2",
          "midi": 45,
          "time": 142.5,
          "velocity": 0.6299212598425197,
          "duration": 0.1875
        },
        {
          "name": "D3",
          "midi": 50,
          "time": 143.25,
          "velocity": 0.7480314960629921,
          "duration": 0.375
        },
        {
          "name": "A2",
          "midi": 45,
          "time": 143.25,
          "velocity": 0.7480314960629921,
          "duration": 0.375
        },
        {
          "name": "D2",
          "midi": 38,
          "time": 143.25,
          "velocity": 0.7480314960629921,
          "duration": 0.375
        },
        {
          "name": "D3",
          "midi": 50,
          "time": 144.75,
          "velocity": 0.7716535433070866,
          "duration": 0.234375
        },
        {
          "name": "D2",
          "midi": 38,
          "time": 145.5,
          "velocity": 1,
          "duration": 0.375
        },
        {
          "name": "D3",
          "midi": 50,
          "time": 147.0078125,
          "velocity": 0.33070866141732286,
          "duration": 0.75
        },
        {
          "name": "A3",
          "midi": 57,
          "time": 147.7578125,
          "velocity": 0.3700787401574803,
          "duration": 0.421875
        },
        {
          "name": "D4",
          "midi": 62,
          "time": 148.1328125,
          "velocity": 0.41732283464566927,
          "duration": 0.375
        },
        {
          "name": "F#4",
          "midi": 66,
          "time": 148.5078125,
          "velocity": 0.36220472440944884,
          "duration": 0.75
        },
        {
          "name": "F3",
          "midi": 53,
          "time": 149.2578125,
          "velocity": 0.29133858267716534,
          "duration": 0.421875
        },
        {
          "name": "G3",
          "midi": 55,
          "time": 149.6328125,
          "velocity": 0.3228346456692913,
          "duration": 0.421875
        },
        {
          "name": "A#3",
          "midi": 58,
          "time": 150.0078125,
          "velocity": 0.3464566929133858,
          "duration": 0.421875
        },
        {
          "name": "D#4",
          "midi": 63,
          "time": 150.3828125,
          "velocity": 0.33858267716535434,
          "duration": 1.125
        },
        {
          "name": "F2",
          "midi": 41,
          "time": 151.5,
          "velocity": 0.28346456692913385,
          "duration": 0.421875
        },
        {
          "name": "C3",
          "midi": 48,
          "time": 151.875,
          "velocity": 0.28346456692913385,
          "duration": 0.421875
        },
        {
          "name": "F3",
          "midi": 53,
          "time": 152.25,
          "velocity": 0.3464566929133858,
          "duration": 1.40625
        },
        {
          "name": "A#2",
          "midi": 46,
          "time": 153.75,
          "velocity": 0.3464566929133858,
          "duration": 0.421875
        },
        {
          "name": "F3",
          "midi": 53,
          "time": 154.125,
          "velocity": 0.3228346456692913,
          "duration": 0.421875
        },
        {
          "name": "A#3",
          "midi": 58,
          "time": 154.5,
          "velocity": 0.3228346456692913,
          "duration": 0.3828125
        },
        {
          "name": "C4",
          "midi": 60,
          "time": 154.875,
          "velocity": 0.2677165354330709,
          "duration": 1.0859375
        },
        {
          "name": "C4",
          "midi": 60,
          "time": 156,
          "velocity": 0.2283464566929134,
          "duration": 0.7109375
        },
        {
          "name": "C3",
          "midi": 48,
          "time": 156,
          "velocity": 0.2283464566929134,
          "duration": 0.7578125
        },
        {
          "name": "A#3",
          "midi": 58,
          "time": 156.75,
          "velocity": 0.33070866141732286,
          "duration": 0.7578125
        },
        {
          "name": "A3",
          "midi": 57,
          "time": 157.5,
          "velocity": 0.3464566929133858,
          "duration": 0.7109375
        },
        {
          "name": "F3",
          "midi": 53,
          "time": 158.25,
          "velocity": 0.30708661417322836,
          "duration": 2.2109375
        },
        {
          "name": "G3",
          "midi": 55,
          "time": 158.25,
          "velocity": 0.30708661417322836,
          "duration": 2.2109375
        },
        {
          "name": "A#3",
          "midi": 58,
          "time": 158.25,
          "velocity": 0.30708661417322836,
          "duration": 2.2109375
        },
        {
          "name": "D#4",
          "midi": 63,
          "time": 159,
          "velocity": 0.33858267716535434,
          "duration": 1.5078125
        },
        {
          "name": "F3",
          "midi": 53,
          "time": 160.5,
          "velocity": 0.3700787401574803,
          "duration": 2.2578125
        },
        {
          "name": "A#3",
          "midi": 58,
          "time": 161.625,
          "velocity": 0.3700787401574803,
          "duration": 1.1328125
        },
        {
          "name": "A#2",
          "midi": 46,
          "time": 162.75,
          "velocity": 0.4094488188976378,
          "duration": 0.3828125
        },
        {
          "name": "F3",
          "midi": 53,
          "time": 163.125,
          "velocity": 0.3937007874015748,
          "duration": 0.3828125
        },
        {
          "name": "A#3",
          "midi": 58,
          "time": 163.5,
          "velocity": 0.36220472440944884,
          "duration": 0.3828125
        },
        {
          "name": "C4",
          "midi": 60,
          "time": 163.875,
          "velocity": 0.4094488188976378,
          "duration": 1.6953125
        },
        {
          "name": "C4",
          "midi": 60,
          "time": 165.75,
          "velocity": 0.5196850393700787,
          "duration": 0.3828125
        },
        {
          "name": "A#3",
          "midi": 58,
          "time": 166.125,
          "velocity": 0.5039370078740157,
          "duration": 1.0859375
        },
        {
          "name": "D3",
          "midi": 50,
          "time": 167.25,
          "velocity": 0.5039370078740157,
          "duration": 0.7578125
        },
        {
          "name": "D4",
          "midi": 62,
          "time": 168,
          "velocity": 0.4094488188976378,
          "duration": 0.3828125
        },
        {
          "name": "A3",
          "midi": 57,
          "time": 168,
          "velocity": 0.4094488188976378,
          "duration": 0.3828125
        },
        {
          "name": "F3",
          "midi": 53,
          "time": 168,
          "velocity": 0.4094488188976378,
          "duration": 0.3828125
        },
        {
          "name": "D4",
          "midi": 62,
          "time": 168.75,
          "velocity": 0.3937007874015748,
          "duration": 0.3828125
        },
        {
          "name": "A3",
          "midi": 57,
          "time": 168.75,
          "velocity": 0.3937007874015748,
          "duration": 0.3828125
        },
        {
          "name": "F3",
          "midi": 53,
          "time": 168.75,
          "velocity": 0.3937007874015748,
          "duration": 0.3828125
        },
        {
          "name": "D3",
          "midi": 50,
          "time": 169.5,
          "velocity": 0.44881889763779526,
          "duration": 0.3828125
        },
        {
          "name": "F3",
          "midi": 53,
          "time": 169.875,
          "velocity": 0.47244094488188976,
          "duration": 0.3828125
        },
        {
          "name": "A3",
          "midi": 57,
          "time": 170.25,
          "velocity": 0.47244094488188976,
          "duration": 0.3828125
        },
        {
          "name": "D4",
          "midi": 62,
          "time": 170.625,
          "velocity": 0.47244094488188976,
          "duration": 1.0859375
        },
        {
          "name": "E3",
          "midi": 52,
          "time": 171.75,
          "velocity": 0.44881889763779526,
          "duration": 0.3828125
        },
        {
          "name": "G3",
          "midi": 55,
          "time": 172.125,
          "velocity": 0.5196850393700787,
          "duration": 0.3828125
        },
        {
          "name": "A#3",
          "midi": 58,
          "time": 172.5,
          "velocity": 0.5196850393700787,
          "duration": 0.3828125
        },
        {
          "name": "C#4",
          "midi": 61,
          "time": 172.875,
          "velocity": 0.5196850393700787,
          "duration": 0.3828125
        },
        {
          "name": "E4",
          "midi": 64,
          "time": 173.25,
          "velocity": 0.4881889763779528,
          "duration": 0.7578125
        },
        {
          "name": "A3",
          "midi": 57,
          "time": 174,
          "velocity": 0.4881889763779528,
          "duration": 0.3828125
        },
        {
          "name": "C#4",
          "midi": 61,
          "time": 174.375,
          "velocity": 0.4881889763779528,
          "duration": 0.3828125
        },
        {
          "name": "E4",
          "midi": 64,
          "time": 174.75,
          "velocity": 0.4881889763779528,
          "duration": 2.2109375
        },
        {
          "name": "D3",
          "midi": 50,
          "time": 176.25,
          "velocity": 0.5039370078740157,
          "duration": 0.3828125
        },
        {
          "name": "A3",
          "midi": 57,
          "time": 176.625,
          "velocity": 0.5196850393700787,
          "duration": 0.3828125
        },
        {
          "name": "F4",
          "midi": 65,
          "time": 177,
          "velocity": 0.4881889763779528,
          "duration": 3.7578125
        },
        {
          "name": "D3",
          "midi": 50,
          "time": 178.5,
          "velocity": 0.5039370078740157,
          "duration": 0.3828125
        },
        {
          "name": "A3",
          "midi": 57,
          "time": 178.875,
          "velocity": 0.4881889763779528,
          "duration": 1.8359375
        },
        {
          "name": "E3",
          "midi": 52,
          "time": 180.7578125,
          "velocity": 0.5354330708661418,
          "duration": 0.3828125
        },
        {
          "name": "C#4",
          "midi": 61,
          "time": 181.125,
          "velocity": 0.5433070866141733,
          "duration": 0.3828125
        },
        {
          "name": "E4",
          "midi": 64,
          "time": 181.5,
          "velocity": 0.5748031496062992,
          "duration": 0.3828125
        },
        {
          "name": "G4",
          "midi": 67,
          "time": 181.875,
          "velocity": 0.5748031496062992,
          "duration": 1.1328125
        },
        {
          "name": "A#3",
          "midi": 58,
          "time": 184.078125,
          "velocity": 0.6220472440944882,
          "duration": 0.4296875
        },
        {
          "name": "G3",
          "midi": 55,
          "time": 184.5,
          "velocity": 0.6614173228346457,
          "duration": 0.7578125
        },
        {
          "name": "D3",
          "midi": 50,
          "time": 185.25,
          "velocity": 0.5590551181102362,
          "duration": 0.3828125
        },
        {
          "name": "F#3",
          "midi": 54,
          "time": 185.625,
          "velocity": 0.5590551181102362,
          "duration": 0.3828125
        },
        {
          "name": "A3",
          "midi": 57,
          "time": 186,
          "velocity": 0.5590551181102362,
          "duration": 0.3828125
        },
        {
          "name": "E4",
          "midi": 64,
          "time": 186.375,
          "velocity": 0.5433070866141733,
          "duration": 0.3828125
        },
        {
          "name": "D#4",
          "midi": 63,
          "time": 186.75,
          "velocity": 0.5748031496062992,
          "duration": 0.3828125
        },
        {
          "name": "D4",
          "midi": 62,
          "time": 187.125,
          "velocity": 0.5748031496062992,
          "duration": 0.3828125
        },
        {
          "name": "C4",
          "midi": 60,
          "time": 187.5,
          "velocity": 0.5748031496062992,
          "duration": 0.3828125
        },
        {
          "name": "A3",
          "midi": 57,
          "time": 187.875,
          "velocity": 0.5748031496062992,
          "duration": 0.3828125
        },
        {
          "name": "F#3",
          "midi": 54,
          "time": 188.25,
          "velocity": 0.5748031496062992,
          "duration": 0.3828125
        },
        {
          "name": "D#3",
          "midi": 51,
          "time": 188.625,
          "velocity": 0.5748031496062992,
          "duration": 0.3828125
        },
        {
          "name": "D3",
          "midi": 50,
          "time": 189,
          "velocity": 0.5748031496062992,
          "duration": 0.3828125
        },
        {
          "name": "A2",
          "midi": 45,
          "time": 189.375,
          "velocity": 0.5748031496062992,
          "duration": 0.3828125
        },
        {
          "name": "G2",
          "midi": 43,
          "time": 189.75,
          "velocity": 0.7716535433070866,
          "duration": 0.3828125
        },
        {
          "name": "D3",
          "midi": 50,
          "time": 190.125,
          "velocity": 0.5590551181102362,
          "duration": 0.3828125
        },
        {
          "name": "A3",
          "midi": 57,
          "time": 190.5,
          "velocity": 0.5590551181102362,
          "duration": 0.3828125
        },
        {
          "name": "G3",
          "midi": 55,
          "time": 190.875,
          "velocity": 0.5748031496062992,
          "duration": 0.3828125
        },
        {
          "name": "D3",
          "midi": 50,
          "time": 191.25,
          "velocity": 0.5905511811023622,
          "duration": 0.3828125
        },
        {
          "name": "A#2",
          "midi": 46,
          "time": 191.625,
          "velocity": 0.5748031496062992,
          "duration": 0.3828125
        },
        {
          "name": "G2",
          "midi": 43,
          "time": 192,
          "velocity": 0.6929133858267716,
          "duration": 0.3828125
        },
        {
          "name": "A#2",
          "midi": 46,
          "time": 192.375,
          "velocity": 0.7559055118110236,
          "duration": 0.3828125
        },
        {
          "name": "D3",
          "midi": 50,
          "time": 192.75,
          "velocity": 0.8188976377952756,
          "duration": 0.7578125
        },
        {
          "name": "F3",
          "midi": 53,
          "time": 193.5,
          "velocity": 0.8582677165354331,
          "duration": 0.7578125
        },
        {
          "name": "C3",
          "midi": 48,
          "time": 194.25,
          "velocity": 0.41732283464566927,
          "duration": 0.3828125
        },
        {
          "name": "C2",
          "midi": 36,
          "time": 194.25,
          "velocity": 0.5984251968503937,
          "duration": 0.3828125
        },
        {
          "name": "G2",
          "midi": 43,
          "time": 194.625,
          "velocity": 0.44881889763779526,
          "duration": 0.3828125
        },
        {
          "name": "C3",
          "midi": 48,
          "time": 195,
          "velocity": 0.48031496062992124,
          "duration": 0.3828125
        },
        {
          "name": "E3",
          "midi": 52,
          "time": 195.375,
          "velocity": 0.5196850393700787,
          "duration": 0.3828125
        },
        {
          "name": "G3",
          "midi": 55,
          "time": 195.75,
          "velocity": 0.5511811023622047,
          "duration": 0.3828125
        },
        {
          "name": "D4",
          "midi": 62,
          "time": 196.125,
          "velocity": 0.5826771653543307,
          "duration": 0.3828125
        },
        {
          "name": "C4",
          "midi": 60,
          "time": 196.5,
          "velocity": 0.5826771653543307,
          "duration": 0.3828125
        },
        {
          "name": "G3",
          "midi": 55,
          "time": 196.875,
          "velocity": 0.5511811023622047,
          "duration": 0.3828125
        },
        {
          "name": "E3",
          "midi": 52,
          "time": 197.25,
          "velocity": 0.5196850393700787,
          "duration": 0.3828125
        },
        {
          "name": "C3",
          "midi": 48,
          "time": 197.625,
          "velocity": 0.4881889763779528,
          "duration": 0.3828125
        },
        {
          "name": "G2",
          "midi": 43,
          "time": 198,
          "velocity": 0.4566929133858268,
          "duration": 0.3828125
        },
        {
          "name": "C2",
          "midi": 36,
          "time": 198.375,
          "velocity": 0.5826771653543307,
          "duration": 0.3828125
        },
        {
          "name": "F2",
          "midi": 41,
          "time": 198.75,
          "velocity": 0.4015748031496063,
          "duration": 0.3828125
        },
        {
          "name": "C3",
          "midi": 48,
          "time": 199.125,
          "velocity": 0.4409448818897638,
          "duration": 0.3828125
        },
        {
          "name": "F3",
          "midi": 53,
          "time": 199.5,
          "velocity": 0.48031496062992124,
          "duration": 0.3828125
        },
        {
          "name": "G3",
          "midi": 55,
          "time": 199.875,
          "velocity": 0.5196850393700787,
          "duration": 0.3828125
        },
        {
          "name": "A3",
          "midi": 57,
          "time": 200.25,
          "velocity": 0.5511811023622047,
          "duration": 0.3828125
        },
        {
          "name": "C4",
          "midi": 60,
          "time": 200.625,
          "velocity": 0.5905511811023622,
          "duration": 0.7265625
        },
        {
          "name": "F4",
          "midi": 65,
          "time": 201.375,
          "velocity": 0.6220472440944882,
          "duration": 0.3828125
        },
        {
          "name": "C4",
          "midi": 60,
          "time": 201.75,
          "velocity": 0.6220472440944882,
          "duration": 0.3828125
        },
        {
          "name": "A3",
          "midi": 57,
          "time": 202.125,
          "velocity": 0.5748031496062992,
          "duration": 0.3828125
        },
        {
          "name": "G3",
          "midi": 55,
          "time": 202.5,
          "velocity": 0.5354330708661418,
          "duration": 0.3828125
        },
        {
          "name": "F3",
          "midi": 53,
          "time": 202.875,
          "velocity": 0.4881889763779528,
          "duration": 0.3828125
        },
        {
          "name": "B2",
          "midi": 47,
          "time": 203.25,
          "velocity": 0.44881889763779526,
          "duration": 0.3828125
        },
        {
          "name": "F#3",
          "midi": 54,
          "time": 203.625,
          "velocity": 0.5039370078740157,
          "duration": 0.3828125
        },
        {
          "name": "A3",
          "midi": 57,
          "time": 204,
          "velocity": 0.5590551181102362,
          "duration": 0.3828125
        },
        {
          "name": "C4",
          "midi": 60,
          "time": 204.375,
          "velocity": 0.6141732283464567,
          "duration": 1.0859375
        },
        {
          "name": "E2",
          "midi": 40,
          "time": 205.5,
          "velocity": 0.7637795275590551,
          "duration": 0.8046875
        },
        {
          "name": "E3",
          "midi": 52,
          "time": 206.25,
          "velocity": 0.4330708661417323,
          "duration": 1.5078125
        },
        {
          "name": "G#3",
          "midi": 56,
          "time": 206.25,
          "velocity": 0.4330708661417323,
          "duration": 1.5078125
        },
        {
          "name": "B3",
          "midi": 59,
          "time": 206.25,
          "velocity": 0.5354330708661418,
          "duration": 1.5078125
        },
        {
          "name": "D4",
          "midi": 62,
          "time": 206.25,
          "velocity": 0.5354330708661418,
          "duration": 1.5078125
        },
        {
          "name": "A2",
          "midi": 45,
          "time": 207.75,
          "velocity": 0.4566929133858268,
          "duration": 0.3828125
        },
        {
          "name": "E3",
          "midi": 52,
          "time": 208.125,
          "velocity": 0.4566929133858268,
          "duration": 0.3828125
        },
        {
          "name": "A3",
          "midi": 57,
          "time": 208.5,
          "velocity": 0.4566929133858268,
          "duration": 0.3828125
        },
        {
          "name": "E3",
          "midi": 52,
          "time": 208.875,
          "velocity": 0.4881889763779528,
          "duration": 0.3828125
        },
        {
          "name": "A2",
          "midi": 45,
          "time": 209.25,
          "velocity": 0.4566929133858268,
          "duration": 0.3828125
        },
        {
          "name": "E3",
          "midi": 52,
          "time": 209.625,
          "velocity": 0.4566929133858268,
          "duration": 0.3828125
        },
        {
          "name": "A2",
          "midi": 45,
          "time": 210,
          "velocity": 0.4566929133858268,
          "duration": 0.3828125
        },
        {
          "name": "C#3",
          "midi": 49,
          "time": 210.375,
          "velocity": 0.4881889763779528,
          "duration": 0.3828125
        },
        {
          "name": "E3",
          "midi": 52,
          "time": 210.75,
          "velocity": 0.5196850393700787,
          "duration": 0.3828125
        },
        {
          "name": "G3",
          "midi": 55,
          "time": 211.125,
          "velocity": 0.5748031496062992,
          "duration": 1.1328125
        },
        {
          "name": "C2",
          "midi": 36,
          "time": 212.25,
          "velocity": 0.6929133858267716,
          "duration": 0.7578125
        },
        {
          "name": "G2",
          "midi": 43,
          "time": 212.25,
          "velocity": 0.6929133858267716,
          "duration": 0.7578125
        },
        {
          "name": "D#3",
          "midi": 51,
          "time": 213,
          "velocity": 0.6850393700787402,
          "duration": 0.3828125
        },
        {
          "name": "G3",
          "midi": 55,
          "time": 213.375,
          "velocity": 0.7086614173228346,
          "duration": 0.3828125
        },
        {
          "name": "C4",
          "midi": 60,
          "time": 213.75,
          "velocity": 0.7244094488188977,
          "duration": 0.7578125
        },
        {
          "name": "C2",
          "midi": 36,
          "time": 214.5,
          "velocity": 0.6929133858267716,
          "duration": 0.7578125
        },
        {
          "name": "G2",
          "midi": 43,
          "time": 214.5,
          "velocity": 0.6929133858267716,
          "duration": 0.7578125
        },
        {
          "name": "C3",
          "midi": 48,
          "time": 215.25,
          "velocity": 0.6929133858267716,
          "duration": 0.3828125
        },
        {
          "name": "D#3",
          "midi": 51,
          "time": 215.625,
          "velocity": 0.7086614173228346,
          "duration": 0.3828125
        },
        {
          "name": "G3",
          "midi": 55,
          "time": 216,
          "velocity": 0.7086614173228346,
          "duration": 0.7578125
        },
        {
          "name": "G2",
          "midi": 43,
          "time": 216.75,
          "velocity": 0.8188976377952756,
          "duration": 0.7578125
        },
        {
          "name": "D2",
          "midi": 38,
          "time": 216.75,
          "velocity": 0.8188976377952756,
          "duration": 0.7578125
        },
        {
          "name": "D3",
          "midi": 50,
          "time": 217.5,
          "velocity": 0.5905511811023622,
          "duration": 0.7109375
        },
        {
          "name": "F#3",
          "midi": 54,
          "time": 217.5,
          "velocity": 0.5905511811023622,
          "duration": 0.7109375
        },
        {
          "name": "A3",
          "midi": 57,
          "time": 217.5,
          "velocity": 0.5905511811023622,
          "duration": 0.7109375
        },
        {
          "name": "D4",
          "midi": 62,
          "time": 217.5,
          "velocity": 0.5905511811023622,
          "duration": 0.7109375
        },
        {
          "name": "D4",
          "midi": 62,
          "time": 218.25,
          "velocity": 0.6062992125984252,
          "duration": 0.7578125
        },
        {
          "name": "A3",
          "midi": 57,
          "time": 218.25,
          "velocity": 0.5905511811023622,
          "duration": 0.7578125
        },
        {
          "name": "F#3",
          "midi": 54,
          "time": 218.25,
          "velocity": 0.5905511811023622,
          "duration": 0.7578125
        },
        {
          "name": "D3",
          "midi": 50,
          "time": 218.25,
          "velocity": 0.5905511811023622,
          "duration": 0.7578125
        },
        {
          "name": "D2",
          "midi": 38,
          "time": 219,
          "velocity": 1,
          "duration": 0.7578125
        },
        {
          "name": "D3",
          "midi": 50,
          "time": 219.75,
          "velocity": 0.5905511811023622,
          "duration": 0.7109375
        },
        {
          "name": "F#3",
          "midi": 54,
          "time": 219.75,
          "velocity": 0.5905511811023622,
          "duration": 0.7109375
        },
        {
          "name": "A3",
          "midi": 57,
          "time": 219.75,
          "velocity": 0.5905511811023622,
          "duration": 0.7109375
        },
        {
          "name": "D4",
          "midi": 62,
          "time": 219.75,
          "velocity": 0.5905511811023622,
          "duration": 0.7109375
        },
        {
          "name": "F#3",
          "midi": 54,
          "time": 220.5,
          "velocity": 0.5905511811023622,
          "duration": 1.4609375
        },
        {
          "name": "D3",
          "midi": 50,
          "time": 220.5,
          "velocity": 0.5905511811023622,
          "duration": 1.4609375
        },
        {
          "name": "A3",
          "midi": 57,
          "time": 220.5,
          "velocity": 0.5905511811023622,
          "duration": 1.4609375
        },
        {
          "name": "D4",
          "midi": 62,
          "time": 220.5,
          "velocity": 0.5905511811023622,
          "duration": 1.4609375
        },
        {
          "name": "D2",
          "midi": 38,
          "time": 221.25,
          "velocity": 0.9763779527559056,
          "duration": 0.7578125
        },
        {
          "name": "D3",
          "midi": 50,
          "time": 222,
          "velocity": 0.5826771653543307,
          "duration": 0.7109375
        },
        {
          "name": "F#3",
          "midi": 54,
          "time": 222,
          "velocity": 0.5826771653543307,
          "duration": 0.7109375
        },
        {
          "name": "A3",
          "midi": 57,
          "time": 222,
          "velocity": 0.5826771653543307,
          "duration": 0.7109375
        },
        {
          "name": "D4",
          "midi": 62,
          "time": 222,
          "velocity": 0.5826771653543307,
          "duration": 0.7109375
        },
        {
          "name": "D3",
          "midi": 50,
          "time": 222.75,
          "velocity": 0.5669291338582677,
          "duration": 1.4609375
        },
        {
          "name": "F#3",
          "midi": 54,
          "time": 222.75,
          "velocity": 0.5669291338582677,
          "duration": 1.4609375
        },
        {
          "name": "A3",
          "midi": 57,
          "time": 222.75,
          "velocity": 0.5669291338582677,
          "duration": 1.4609375
        },
        {
          "name": "D4",
          "midi": 62,
          "time": 222.75,
          "velocity": 0.5669291338582677,
          "duration": 1.4609375
        },
        {
          "name": "D2",
          "midi": 38,
          "time": 223.5,
          "velocity": 0.9606299212598425,
          "duration": 0.7578125
        },
        {
          "name": "D3",
          "midi": 50,
          "time": 224.25,
          "velocity": 0.9133858267716536,
          "duration": 0.2109375
        },
        {
          "name": "F#3",
          "midi": 54,
          "time": 224.25,
          "velocity": 0.9133858267716536,
          "duration": 0.2109375
        },
        {
          "name": "A3",
          "midi": 57,
          "time": 224.25,
          "velocity": 0.9133858267716536,
          "duration": 0.2109375
        },
        {
          "name": "C4",
          "midi": 60,
          "time": 224.25,
          "velocity": 0.9133858267716536,
          "duration": 0.2109375
        },
        {
          "name": "D3",
          "midi": 50,
          "time": 224.484375,
          "velocity": 0.9133858267716536,
          "duration": 0.203125
        },
        {
          "name": "F#3",
          "midi": 54,
          "time": 224.484375,
          "velocity": 0.9133858267716536,
          "duration": 0.203125
        },
        {
          "name": "A3",
          "midi": 57,
          "time": 224.484375,
          "velocity": 0.9133858267716536,
          "duration": 0.203125
        },
        {
          "name": "C4",
          "midi": 60,
          "time": 224.484375,
          "velocity": 0.9133858267716536,
          "duration": 0.203125
        },
        {
          "name": "D3",
          "midi": 50,
          "time": 224.71875,
          "velocity": 0.9133858267716536,
          "duration": 0.2109375
        },
        {
          "name": "F#3",
          "midi": 54,
          "time": 224.71875,
          "velocity": 0.9133858267716536,
          "duration": 0.2109375
        },
        {
          "name": "A3",
          "midi": 57,
          "time": 224.71875,
          "velocity": 0.9133858267716536,
          "duration": 0.2109375
        },
        {
          "name": "C4",
          "midi": 60,
          "time": 224.71875,
          "velocity": 0.9133858267716536,
          "duration": 0.2109375
        },
        {
          "name": "D3",
          "midi": 50,
          "time": 225,
          "velocity": 0.9448818897637795,
          "duration": 1.0390625
        },
        {
          "name": "F#3",
          "midi": 54,
          "time": 225,
          "velocity": 0.9448818897637795,
          "duration": 1.0390625
        },
        {
          "name": "A3",
          "midi": 57,
          "time": 225,
          "velocity": 0.9448818897637795,
          "duration": 1.0390625
        },
        {
          "name": "C4",
          "midi": 60,
          "time": 225,
          "velocity": 0.9448818897637795,
          "duration": 1.0390625
        },
        {
          "name": "D2",
          "midi": 38,
          "time": 226.125,
          "velocity": 0.6929133858267716,
          "duration": 0.9921875
        },
        {
          "name": "A2",
          "midi": 45,
          "time": 226.125,
          "velocity": 0.6929133858267716,
          "duration": 0.9921875
        },
        {
          "name": "F#2",
          "midi": 42,
          "time": 226.125,
          "velocity": 0.6929133858267716,
          "duration": 0.9921875
        },
        {
          "name": "D3",
          "midi": 50,
          "time": 226.125,
          "velocity": 0.6929133858267716,
          "duration": 0.9921875
        },
        {
          "name": "C1",
          "midi": 24,
          "time": 227.25,
          "velocity": 0.9448818897637795,
          "duration": 0.7578125
        },
        {
          "name": "C2",
          "midi": 36,
          "time": 227.25,
          "velocity": 0.9448818897637795,
          "duration": 0.7578125
        },
        {
          "name": "G3",
          "midi": 55,
          "time": 228,
          "velocity": 0.7795275590551181,
          "duration": 1.5078125
        },
        {
          "name": "A#3",
          "midi": 58,
          "time": 228,
          "velocity": 0.7795275590551181,
          "duration": 1.5078125
        },
        {
          "name": "D#4",
          "midi": 63,
          "time": 228,
          "velocity": 0.7795275590551181,
          "duration": 1.5078125
        },
        {
          "name": "D2",
          "midi": 38,
          "time": 229.5,
          "velocity": 0.7795275590551181,
          "duration": 0.7578125
        },
        {
          "name": "D4",
          "midi": 62,
          "time": 230.25,
          "velocity": 0.7795275590551181,
          "duration": 0.3828125
        },
        {
          "name": "F#3",
          "midi": 54,
          "time": 230.25,
          "velocity": 0.7795275590551181,
          "duration": 0.3828125
        },
        {
          "name": "C4",
          "midi": 60,
          "time": 230.25,
          "velocity": 0.7795275590551181,
          "duration": 0.3828125
        },
        {
          "name": "A3",
          "midi": 57,
          "time": 230.25,
          "velocity": 0.7795275590551181,
          "duration": 0.3828125
        },
        {
          "name": "G2",
          "midi": 43,
          "time": 231.75,
          "velocity": 0.6771653543307087,
          "duration": 0.7578125
        },
        {
          "name": "G1",
          "midi": 31,
          "time": 231.75,
          "velocity": 0.6771653543307087,
          "duration": 0.7578125
        },
        {
          "name": "G3",
          "midi": 55,
          "time": 232.5,
          "velocity": 0.7795275590551181,
          "duration": 0.3828125
        },
        {
          "name": "A#3",
          "midi": 58,
          "time": 232.5,
          "velocity": 0.7795275590551181,
          "duration": 0.3828125
        },
        {
          "name": "D4",
          "midi": 62,
          "time": 232.5,
          "velocity": 0.7795275590551181,
          "duration": 0.3828125
        },
        {
          "name": "G3",
          "midi": 55,
          "time": 233.25,
          "velocity": 0.7795275590551181,
          "duration": 0.3828125
        },
        {
          "name": "A#3",
          "midi": 58,
          "time": 233.25,
          "velocity": 0.7795275590551181,
          "duration": 0.3828125
        },
        {
          "name": "D4",
          "midi": 62,
          "time": 233.25,
          "velocity": 0.7795275590551181,
          "duration": 0.3828125
        },
        {
          "name": "F3",
          "midi": 53,
          "time": 234,
          "velocity": 0.7795275590551181,
          "duration": 0.7578125
        },
        {
          "name": "G#3",
          "midi": 56,
          "time": 234,
          "velocity": 0.7795275590551181,
          "duration": 0.7578125
        },
        {
          "name": "D#4",
          "midi": 63,
          "time": 234,
          "velocity": 0.7795275590551181,
          "duration": 0.7578125
        },
        {
          "name": "D4",
          "midi": 62,
          "time": 235.125,
          "velocity": 0.7795275590551181,
          "duration": 0.7578125
        },
        {
          "name": "A#3",
          "midi": 58,
          "time": 235.125,
          "velocity": 0.7795275590551181,
          "duration": 0.7578125
        },
        {
          "name": "F3",
          "midi": 53,
          "time": 235.125,
          "velocity": 0.7795275590551181,
          "duration": 0.7578125
        },
        {
          "name": "G#3",
          "midi": 56,
          "time": 235.125,
          "velocity": 0.7795275590551181,
          "duration": 0.7578125
        },
        {
          "name": "D#2",
          "midi": 39,
          "time": 236.25,
          "velocity": 0.7795275590551181,
          "duration": 0.7578125
        },
        {
          "name": "G3",
          "midi": 55,
          "time": 237,
          "velocity": 0.7795275590551181,
          "duration": 0.3828125
        },
        {
          "name": "D#4",
          "midi": 63,
          "time": 237,
          "velocity": 0.7795275590551181,
          "duration": 0.3828125
        },
        {
          "name": "A#3",
          "midi": 58,
          "time": 237,
          "velocity": 0.7795275590551181,
          "duration": 0.3828125
        },
        {
          "name": "D#4",
          "midi": 63,
          "time": 237.75,
          "velocity": 0.7795275590551181,
          "duration": 0.3828125
        },
        {
          "name": "A#3",
          "midi": 58,
          "time": 237.75,
          "velocity": 0.7795275590551181,
          "duration": 0.3828125
        },
        {
          "name": "G3",
          "midi": 55,
          "time": 237.75,
          "velocity": 0.7795275590551181,
          "duration": 0.3828125
        },
        {
          "name": "F1",
          "midi": 29,
          "time": 238.5,
          "velocity": 0.7795275590551181,
          "duration": 0.7578125
        },
        {
          "name": "F2",
          "midi": 41,
          "time": 238.5,
          "velocity": 0.7795275590551181,
          "duration": 0.7578125
        },
        {
          "name": "A#3",
          "midi": 58,
          "time": 239.25,
          "velocity": 0.7795275590551181,
          "duration": 0.3828125
        },
        {
          "name": "C4",
          "midi": 60,
          "time": 239.25,
          "velocity": 0.7795275590551181,
          "duration": 0.3828125
        },
        {
          "name": "D#4",
          "midi": 63,
          "time": 239.25,
          "velocity": 0.7795275590551181,
          "duration": 0.3828125
        },
        {
          "name": "G3",
          "midi": 55,
          "time": 239.25,
          "velocity": 0.7795275590551181,
          "duration": 0.3828125
        },
        {
          "name": "A#3",
          "midi": 58,
          "time": 240,
          "velocity": 0.7795275590551181,
          "duration": 0.3828125
        },
        {
          "name": "C4",
          "midi": 60,
          "time": 240,
          "velocity": 0.7795275590551181,
          "duration": 0.3828125
        },
        {
          "name": "G3",
          "midi": 55,
          "time": 240,
          "velocity": 0.7795275590551181,
          "duration": 0.3828125
        },
        {
          "name": "D#4",
          "midi": 63,
          "time": 240,
          "velocity": 0.7795275590551181,
          "duration": 0.3828125
        },
        {
          "name": "A#2",
          "midi": 46,
          "time": 240.75,
          "velocity": 0.7795275590551181,
          "duration": 0.7578125
        },
        {
          "name": "F3",
          "midi": 53,
          "time": 241.5,
          "velocity": 0.7795275590551181,
          "duration": 0.3828125
        },
        {
          "name": "A#3",
          "midi": 58,
          "time": 241.5,
          "velocity": 0.7795275590551181,
          "duration": 0.3828125
        },
        {
          "name": "F3",
          "midi": 53,
          "time": 242.25,
          "velocity": 0.7795275590551181,
          "duration": 0.3828125
        },
        {
          "name": "A#3",
          "midi": 58,
          "time": 242.25,
          "velocity": 0.7795275590551181,
          "duration": 0.3828125
        },
        {
          "name": "D4",
          "midi": 62,
          "time": 242.25,
          "velocity": 0.7795275590551181,
          "duration": 0.3828125
        },
        {
          "name": "A#2",
          "midi": 46,
          "time": 243,
          "velocity": 0.7795275590551181,
          "duration": 0.7578125
        },
        {
          "name": "A#3",
          "midi": 58,
          "time": 243.75,
          "velocity": 0.7795275590551181,
          "duration": 0.3828125
        },
        {
          "name": "F3",
          "midi": 53,
          "time": 243.75,
          "velocity": 0.7795275590551181,
          "duration": 0.3828125
        },
        {
          "name": "A#2",
          "midi": 46,
          "time": 244.5,
          "velocity": 0.7795275590551181,
          "duration": 0.3828125
        },
        {
          "name": "E2",
          "midi": 40,
          "time": 245.25,
          "velocity": 0.6929133858267716,
          "duration": 0.7578125
        },
        {
          "name": "A#3",
          "midi": 58,
          "time": 246,
          "velocity": 0.5118110236220472,
          "duration": 0.3828125
        },
        {
          "name": "G3",
          "midi": 55,
          "time": 246,
          "velocity": 0.5118110236220472,
          "duration": 0.3828125
        },
        {
          "name": "D4",
          "midi": 62,
          "time": 246,
          "velocity": 0.5118110236220472,
          "duration": 0.3828125
        },
        {
          "name": "E3",
          "midi": 52,
          "time": 246,
          "velocity": 0.5118110236220472,
          "duration": 0.3828125
        },
        {
          "name": "D4",
          "midi": 62,
          "time": 246.75,
          "velocity": 0.49606299212598426,
          "duration": 0.3828125
        },
        {
          "name": "G3",
          "midi": 55,
          "time": 246.75,
          "velocity": 0.49606299212598426,
          "duration": 0.3828125
        },
        {
          "name": "E3",
          "midi": 52,
          "time": 246.75,
          "velocity": 0.49606299212598426,
          "duration": 0.3828125
        },
        {
          "name": "A#3",
          "midi": 58,
          "time": 246.75,
          "velocity": 0.49606299212598426,
          "duration": 0.3828125
        },
        {
          "name": "A2",
          "midi": 45,
          "time": 247.5,
          "velocity": 0.6929133858267716,
          "duration": 0.7578125
        },
        {
          "name": "E3",
          "midi": 52,
          "time": 248.25,
          "velocity": 0.5590551181102362,
          "duration": 0.3828125
        },
        {
          "name": "A3",
          "midi": 57,
          "time": 248.25,
          "velocity": 0.5590551181102362,
          "duration": 0.3828125
        },
        {
          "name": "C#4",
          "midi": 61,
          "time": 248.25,
          "velocity": 0.5590551181102362,
          "duration": 0.3828125
        },
        {
          "name": "E3",
          "midi": 52,
          "time": 249,
          "velocity": 0.5590551181102362,
          "duration": 0.3828125
        },
        {
          "name": "A3",
          "midi": 57,
          "time": 249,
          "velocity": 0.5590551181102362,
          "duration": 0.3828125
        },
        {
          "name": "C#4",
          "midi": 61,
          "time": 249,
          "velocity": 0.5590551181102362,
          "duration": 0.3828125
        },
        {
          "name": "D2",
          "midi": 38,
          "time": 249.75,
          "velocity": 0.6929133858267716,
          "duration": 0.7578125
        },
        {
          "name": "D4",
          "midi": 62,
          "time": 250.5,
          "velocity": 0.5433070866141733,
          "duration": 0.3828125
        },
        {
          "name": "A3",
          "midi": 57,
          "time": 250.5,
          "velocity": 0.5433070866141733,
          "duration": 0.3828125
        },
        {
          "name": "F3",
          "midi": 53,
          "time": 250.5,
          "velocity": 0.5433070866141733,
          "duration": 0.3828125
        },
        {
          "name": "C2",
          "midi": 36,
          "time": 252,
          "velocity": 0.6929133858267716,
          "duration": 0.7578125
        },
        {
          "name": "A3",
          "midi": 57,
          "time": 252.75,
          "velocity": 0.5433070866141733,
          "duration": 0.3828125
        },
        {
          "name": "C4",
          "midi": 60,
          "time": 252.75,
          "velocity": 0.5433070866141733,
          "duration": 0.3828125
        },
        {
          "name": "E3",
          "midi": 52,
          "time": 252.75,
          "velocity": 0.5433070866141733,
          "duration": 0.3828125
        },
        {
          "name": "A#1",
          "midi": 34,
          "time": 254.25,
          "velocity": 0.6062992125984252,
          "duration": 0.7578125
        },
        {
          "name": "F3",
          "midi": 53,
          "time": 255,
          "velocity": 0.5118110236220472,
          "duration": 0.7578125
        },
        {
          "name": "A#3",
          "midi": 58,
          "time": 255,
          "velocity": 0.5118110236220472,
          "duration": 0.7578125
        },
        {
          "name": "A3",
          "midi": 57,
          "time": 255,
          "velocity": 0.5118110236220472,
          "duration": 0.7578125
        },
        {
          "name": "D4",
          "midi": 62,
          "time": 255,
          "velocity": 0.5118110236220472,
          "duration": 0.7578125
        },
        {
          "name": "A1",
          "midi": 33,
          "time": 256.5,
          "velocity": 0.5196850393700787,
          "duration": 0.7578125
        },
        {
          "name": "A2",
          "midi": 45,
          "time": 256.5,
          "velocity": 0.5196850393700787,
          "duration": 0.7578125
        },
        {
          "name": "A3",
          "midi": 57,
          "time": 257.25,
          "velocity": 0.5354330708661418,
          "duration": 0.7109375
        },
        {
          "name": "C#4",
          "midi": 61,
          "time": 257.25,
          "velocity": 0.5354330708661418,
          "duration": 0.7109375
        },
        {
          "name": "F#3",
          "midi": 54,
          "time": 257.25,
          "velocity": 0.5354330708661418,
          "duration": 0.7109375
        },
        {
          "name": "E4",
          "midi": 64,
          "time": 257.25,
          "velocity": 0.5354330708661418,
          "duration": 0.7109375
        },
        {
          "name": "A3",
          "midi": 57,
          "time": 258,
          "velocity": 0.5590551181102362,
          "duration": 0.7109375
        },
        {
          "name": "C#4",
          "midi": 61,
          "time": 258,
          "velocity": 0.5590551181102362,
          "duration": 0.7109375
        },
        {
          "name": "F#3",
          "midi": 54,
          "time": 258,
          "velocity": 0.5590551181102362,
          "duration": 0.7109375
        },
        {
          "name": "E4",
          "midi": 64,
          "time": 258,
          "velocity": 0.5590551181102362,
          "duration": 0.7109375
        },
        {
          "name": "D1",
          "midi": 26,
          "time": 258.75,
          "velocity": 0.5196850393700787,
          "duration": 0.7578125
        },
        {
          "name": "A1",
          "midi": 33,
          "time": 258.75,
          "velocity": 0.5196850393700787,
          "duration": 0.7578125
        },
        {
          "name": "D2",
          "midi": 38,
          "time": 258.75,
          "velocity": 0.5196850393700787,
          "duration": 0.7578125
        },
        {
          "name": "F#3",
          "midi": 54,
          "time": 259.5,
          "velocity": 0.5196850393700787,
          "duration": 1.5078125
        },
        {
          "name": "A3",
          "midi": 57,
          "time": 259.5,
          "velocity": 0.5196850393700787,
          "duration": 1.5078125
        },
        {
          "name": "D4",
          "midi": 62,
          "time": 259.5,
          "velocity": 0.5196850393700787,
          "duration": 1.5078125
        },
        {
          "name": "D3",
          "midi": 50,
          "time": 261,
          "velocity": 0.47244094488188976,
          "duration": 0.1953125
        },
        {
          "name": "F#3",
          "midi": 54,
          "time": 261.375,
          "velocity": 0.44881889763779526,
          "duration": 0.1953125
        },
        {
          "name": "D4",
          "midi": 62,
          "time": 261.375,
          "velocity": 0.44881889763779526,
          "duration": 0.1953125
        },
        {
          "name": "D3",
          "midi": 50,
          "time": 261.75,
          "velocity": 0.3858267716535433,
          "duration": 0.1953125
        },
        {
          "name": "D4",
          "midi": 62,
          "time": 262.125,
          "velocity": 0.4015748031496063,
          "duration": 0.1953125
        },
        {
          "name": "F#3",
          "midi": 54,
          "time": 262.125,
          "velocity": 0.4015748031496063,
          "duration": 0.1953125
        },
        {
          "name": "D3",
          "midi": 50,
          "time": 262.5,
          "velocity": 0.41732283464566927,
          "duration": 0.1953125
        },
        {
          "name": "D4",
          "midi": 62,
          "time": 262.875,
          "velocity": 0.3858267716535433,
          "duration": 0.1953125
        },
        {
          "name": "F#3",
          "midi": 54,
          "time": 262.875,
          "velocity": 0.3858267716535433,
          "duration": 0.1953125
        },
        {
          "name": "D3",
          "midi": 50,
          "time": 263.25,
          "velocity": 0.4015748031496063,
          "duration": 0.7578125
        },
        {
          "name": "F#3",
          "midi": 54,
          "time": 264,
          "velocity": 0.4330708661417323,
          "duration": 1.5078125
        },
        {
          "name": "A3",
          "midi": 57,
          "time": 264,
          "velocity": 0.4330708661417323,
          "duration": 1.5078125
        },
        {
          "name": "D3",
          "midi": 50,
          "time": 265.5,
          "velocity": 0.41732283464566927,
          "duration": 0.3828125
        },
        {
          "name": "A3",
          "midi": 57,
          "time": 265.875,
          "velocity": 0.4015748031496063,
          "duration": 0.33203125
        },
        {
          "name": "A2",
          "midi": 45,
          "time": 266.62109375,
          "velocity": 0.4015748031496063,
          "duration": 0.3671875
        },
        {
          "name": "D2",
          "midi": 38,
          "time": 267.75,
          "velocity": 0.23622047244094488,
          "duration": 0.74609375
        },
        {
          "name": "A#4",
          "midi": 70,
          "time": 269.25,
          "velocity": 0.2125984251968504,
          "duration": 0.375
        },
        {
          "name": "C5",
          "midi": 72,
          "time": 269.625,
          "velocity": 0.25984251968503935,
          "duration": 0.375
        },
        {
          "name": "A#4",
          "midi": 70,
          "time": 270,
          "velocity": 0.31496062992125984,
          "duration": 0.375
        },
        {
          "name": "C5",
          "midi": 72,
          "time": 270.375,
          "velocity": 0.3700787401574803,
          "duration": 0.375
        },
        {
          "name": "A#4",
          "midi": 70,
          "time": 270.75,
          "velocity": 0.41732283464566927,
          "duration": 0.375
        },
        {
          "name": "C5",
          "midi": 72,
          "time": 271.125,
          "velocity": 0.47244094488188976,
          "duration": 0.375
        },
        {
          "name": "A4",
          "midi": 69,
          "time": 271.5,
          "velocity": 0.2204724409448819,
          "duration": 0.375
        },
        {
          "name": "A#4",
          "midi": 70,
          "time": 271.875,
          "velocity": 0.2755905511811024,
          "duration": 0.375
        },
        {
          "name": "A4",
          "midi": 69,
          "time": 272.25,
          "velocity": 0.3228346456692913,
          "duration": 0.375
        },
        {
          "name": "A#4",
          "midi": 70,
          "time": 272.625,
          "velocity": 0.3779527559055118,
          "duration": 0.375
        },
        {
          "name": "A4",
          "midi": 69,
          "time": 273,
          "velocity": 0.4251968503937008,
          "duration": 0.375
        },
        {
          "name": "A#4",
          "midi": 70,
          "time": 273.375,
          "velocity": 0.47244094488188976,
          "duration": 0.375
        },
        {
          "name": "G4",
          "midi": 67,
          "time": 273.75,
          "velocity": 0.28346456692913385,
          "duration": 0.375
        },
        {
          "name": "A4",
          "midi": 69,
          "time": 274.125,
          "velocity": 0.3228346456692913,
          "duration": 0.375
        },
        {
          "name": "G4",
          "midi": 67,
          "time": 274.5,
          "velocity": 0.36220472440944884,
          "duration": 0.375
        },
        {
          "name": "A4",
          "midi": 69,
          "time": 274.875,
          "velocity": 0.4015748031496063,
          "duration": 0.375
        },
        {
          "name": "G4",
          "midi": 67,
          "time": 275.25,
          "velocity": 0.4409448818897638,
          "duration": 0.375
        },
        {
          "name": "A4",
          "midi": 69,
          "time": 275.625,
          "velocity": 0.48031496062992124,
          "duration": 0.375
        },
        {
          "name": "F#4",
          "midi": 66,
          "time": 276,
          "velocity": 0.44881889763779526,
          "duration": 0.1875
        },
        {
          "name": "E4",
          "midi": 64,
          "time": 276.1875,
          "velocity": 0.4881889763779528,
          "duration": 0.1875
        },
        {
          "name": "D4",
          "midi": 62,
          "time": 276.375,
          "velocity": 0.5275590551181102,
          "duration": 1.078125
        },
        {
          "name": "D2",
          "midi": 38,
          "time": 277.5,
          "velocity": 0.889763779527559,
          "duration": 0.375
        },
        {
          "name": "A2",
          "midi": 45,
          "time": 277.796875,
          "velocity": 0.3543307086614173,
          "duration": 0.1796875
        },
        {
          "name": "F#3",
          "midi": 54,
          "time": 277.9453125,
          "velocity": 0.3937007874015748,
          "duration": 0.1875
        },
        {
          "name": "A3",
          "midi": 57,
          "time": 278.0625,
          "velocity": 0.4330708661417323,
          "duration": 0.1484375
        },
        {
          "name": "D#5",
          "midi": 75,
          "time": 278.53125,
          "velocity": 0.5511811023622047,
          "duration": 0.1484375
        },
        {
          "name": "A5",
          "midi": 81,
          "time": 278.671875,
          "velocity": 0.5748031496062992,
          "duration": 0.1484375
        },
        {
          "name": "D6",
          "midi": 86,
          "time": 278.8125,
          "velocity": 0.5984251968503937,
          "duration": 0.1484375
        },
        {
          "name": "F#7",
          "midi": 102,
          "time": 279.3671875,
          "velocity": 0.9448818897637795,
          "duration": 1.890625
        },
        {
          "name": "C5",
          "midi": 72,
          "time": 280.5,
          "velocity": 0.25984251968503935,
          "duration": 0.375
        },
        {
          "name": "D5",
          "midi": 74,
          "time": 280.875,
          "velocity": 0.30708661417322836,
          "duration": 0.375
        },
        {
          "name": "C5",
          "midi": 72,
          "time": 281.25,
          "velocity": 0.3543307086614173,
          "duration": 0.375
        },
        {
          "name": "D5",
          "midi": 74,
          "time": 281.578125,
          "velocity": 0.4015748031496063,
          "duration": 0.375
        },
        {
          "name": "C5",
          "midi": 72,
          "time": 282,
          "velocity": 0.4566929133858268,
          "duration": 0.375
        },
        {
          "name": "D5",
          "midi": 74,
          "time": 282.375,
          "velocity": 0.5118110236220472,
          "duration": 0.375
        },
        {
          "name": "B4",
          "midi": 71,
          "time": 282.75,
          "velocity": 0.2677165354330709,
          "duration": 0.375
        },
        {
          "name": "C5",
          "midi": 72,
          "time": 283.125,
          "velocity": 0.31496062992125984,
          "duration": 0.375
        },
        {
          "name": "B4",
          "midi": 71,
          "time": 283.5,
          "velocity": 0.36220472440944884,
          "duration": 0.375
        },
        {
          "name": "C5",
          "midi": 72,
          "time": 283.875,
          "velocity": 0.41732283464566927,
          "duration": 0.375
        },
        {
          "name": "B4",
          "midi": 71,
          "time": 284.25,
          "velocity": 0.4645669291338583,
          "duration": 0.375
        },
        {
          "name": "C5",
          "midi": 72,
          "time": 284.625,
          "velocity": 0.5196850393700787,
          "duration": 0.375
        },
        {
          "name": "G4",
          "midi": 67,
          "time": 285,
          "velocity": 0.28346456692913385,
          "duration": 0.375
        },
        {
          "name": "G#4",
          "midi": 68,
          "time": 285.375,
          "velocity": 0.33070866141732286,
          "duration": 0.375
        },
        {
          "name": "G4",
          "midi": 67,
          "time": 285.75,
          "velocity": 0.3700787401574803,
          "duration": 0.375
        },
        {
          "name": "G#4",
          "midi": 68,
          "time": 286.125,
          "velocity": 0.41732283464566927,
          "duration": 0.375
        },
        {
          "name": "G4",
          "midi": 67,
          "time": 286.5,
          "velocity": 0.4645669291338583,
          "duration": 0.375
        },
        {
          "name": "G#4",
          "midi": 68,
          "time": 286.875,
          "velocity": 0.6220472440944882,
          "duration": 0.375
        },
        {
          "name": "G4",
          "midi": 67,
          "time": 287.25,
          "velocity": 0.4409448818897638,
          "duration": 0.375
        },
        {
          "name": "F4",
          "midi": 65,
          "time": 287.625,
          "velocity": 0.4015748031496063,
          "duration": 0.375
        },
        {
          "name": "D#4",
          "midi": 63,
          "time": 288,
          "velocity": 0.36220472440944884,
          "duration": 0.375
        },
        {
          "name": "D4",
          "midi": 62,
          "time": 288.375,
          "velocity": 0.33070866141732286,
          "duration": 0.375
        },
        {
          "name": "D#4",
          "midi": 63,
          "time": 288.75,
          "velocity": 0.3228346456692913,
          "duration": 0.375
        },
        {
          "name": "F4",
          "midi": 65,
          "time": 289.125,
          "velocity": 0.3937007874015748,
          "duration": 0.375
        },
        {
          "name": "G4",
          "midi": 67,
          "time": 289.5,
          "velocity": 0.4566929133858268,
          "duration": 0.375
        },
        {
          "name": "F4",
          "midi": 65,
          "time": 289.875,
          "velocity": 0.49606299212598426,
          "duration": 0.375
        },
        {
          "name": "D#4",
          "midi": 63,
          "time": 290.25,
          "velocity": 0.4409448818897638,
          "duration": 0.375
        },
        {
          "name": "D4",
          "midi": 62,
          "time": 290.625,
          "velocity": 0.3937007874015748,
          "duration": 0.375
        },
        {
          "name": "D#4",
          "midi": 63,
          "time": 291,
          "velocity": 0.3779527559055118,
          "duration": 0.375
        },
        {
          "name": "F4",
          "midi": 65,
          "time": 291.375,
          "velocity": 0.48031496062992124,
          "duration": 0.375
        },
        {
          "name": "G4",
          "midi": 67,
          "time": 291.75,
          "velocity": 0.5826771653543307,
          "duration": 1.125
        },
        {
          "name": "G2",
          "midi": 43,
          "time": 294,
          "velocity": 0.9212598425196851,
          "duration": 0.75
        },
        {
          "name": "D3",
          "midi": 50,
          "time": 294.75,
          "velocity": 0.33858267716535434,
          "duration": 0.390625
        },
        {
          "name": "F3",
          "midi": 53,
          "time": 295.125,
          "velocity": 0.4015748031496063,
          "duration": 0.296875
        },
        {
          "name": "G3",
          "midi": 55,
          "time": 295.40625,
          "velocity": 0.44881889763779526,
          "duration": 0.296875
        },
        {
          "name": "D5",
          "midi": 74,
          "time": 296.25,
          "velocity": 0.5984251968503937,
          "duration": 0.1484375
        },
        {
          "name": "F5",
          "midi": 77,
          "time": 296.40625,
          "velocity": 0.6299212598425197,
          "duration": 0.1484375
        },
        {
          "name": "G5",
          "midi": 79,
          "time": 296.5625,
          "velocity": 0.6535433070866141,
          "duration": 0.1484375
        },
        {
          "name": "G#3",
          "midi": 56,
          "time": 303,
          "velocity": 0.29133858267716534,
          "duration": 0.3671875
        },
        {
          "name": "C4",
          "midi": 60,
          "time": 303,
          "velocity": 0.29133858267716534,
          "duration": 0.3671875
        },
        {
          "name": "F3",
          "midi": 53,
          "time": 303,
          "velocity": 0.29133858267716534,
          "duration": 0.3671875
        },
        {
          "name": "G2",
          "midi": 43,
          "time": 305.25,
          "velocity": 0.36220472440944884,
          "duration": 0.3671875
        },
        {
          "name": "D3",
          "midi": 50,
          "time": 305.25,
          "velocity": 0.36220472440944884,
          "duration": 0.3671875
        },
        {
          "name": "C3",
          "midi": 48,
          "time": 307.5,
          "velocity": 0.30708661417322836,
          "duration": 0.3671875
        },
        {
          "name": "C4",
          "midi": 60,
          "time": 307.5,
          "velocity": 0.30708661417322836,
          "duration": 0.3671875
        },
        {
          "name": "G3",
          "midi": 55,
          "time": 307.5,
          "velocity": 0.30708661417322836,
          "duration": 0.3671875
        },
        {
          "name": "G#3",
          "midi": 56,
          "time": 312,
          "velocity": 0.2992125984251969,
          "duration": 0.3671875
        },
        {
          "name": "F3",
          "midi": 53,
          "time": 312,
          "velocity": 0.2992125984251969,
          "duration": 0.3671875
        },
        {
          "name": "C4",
          "midi": 60,
          "time": 312,
          "velocity": 0.2992125984251969,
          "duration": 0.3671875
        },
        {
          "name": "G#3",
          "midi": 56,
          "time": 314.25,
          "velocity": 0.3543307086614173,
          "duration": 0.3671875
        },
        {
          "name": "A#2",
          "midi": 46,
          "time": 314.25,
          "velocity": 0.3543307086614173,
          "duration": 0.3671875
        },
        {
          "name": "A#3",
          "midi": 58,
          "time": 316.5,
          "velocity": 0.2755905511811024,
          "duration": 0.7421875
        },
        {
          "name": "G3",
          "midi": 55,
          "time": 316.5,
          "velocity": 0.2755905511811024,
          "duration": 0.7421875
        },
        {
          "name": "D#3",
          "midi": 51,
          "time": 316.5,
          "velocity": 0.2755905511811024,
          "duration": 0.7421875
        },
        {
          "name": "D4",
          "midi": 62,
          "time": 316.5,
          "velocity": 0.2755905511811024,
          "duration": 0.7421875
        },
        {
          "name": "G4",
          "midi": 67,
          "time": 320.994140625,
          "velocity": 0.41732283464566927,
          "duration": 1.498046875
        },
        {
          "name": "D#4",
          "midi": 63,
          "time": 321,
          "velocity": 0.41732283464566927,
          "duration": 1.4921875
        },
        {
          "name": "D4",
          "midi": 62,
          "time": 321.005859375,
          "velocity": 0.41732283464566927,
          "duration": 1.486328125
        },
        {
          "name": "A#3",
          "midi": 58,
          "time": 321.01171875,
          "velocity": 0.41732283464566927,
          "duration": 1.48046875
        },
        {
          "name": "A3",
          "midi": 57,
          "time": 323.25,
          "velocity": 0.33858267716535434,
          "duration": 0.7421875
        },
        {
          "name": "F#4",
          "midi": 66,
          "time": 323.25,
          "velocity": 0.33858267716535434,
          "duration": 0.7421875
        },
        {
          "name": "D4",
          "midi": 62,
          "time": 323.25,
          "velocity": 0.33858267716535434,
          "duration": 0.7421875
        },
        {
          "name": "D#4",
          "midi": 63,
          "time": 323.25,
          "velocity": 0.33858267716535434,
          "duration": 0.7421875
        },
        {
          "name": "G3",
          "midi": 55,
          "time": 325.5,
          "velocity": 0.28346456692913385,
          "duration": 1.4921875
        },
        {
          "name": "A#3",
          "midi": 58,
          "time": 325.5,
          "velocity": 0.28346456692913385,
          "duration": 1.4921875
        },
        {
          "name": "D4",
          "midi": 62,
          "time": 325.5,
          "velocity": 0.28346456692913385,
          "duration": 1.4921875
        },
        {
          "name": "G4",
          "midi": 67,
          "time": 325.5,
          "velocity": 0.28346456692913385,
          "duration": 1.4921875
        },
        {
          "name": "G3",
          "midi": 55,
          "time": 327.75,
          "velocity": 0.2992125984251969,
          "duration": 0.7421875
        },
        {
          "name": "A3",
          "midi": 57,
          "time": 327.75,
          "velocity": 0.2992125984251969,
          "duration": 0.7421875
        },
        {
          "name": "A#3",
          "midi": 58,
          "time": 327.75,
          "velocity": 0.2992125984251969,
          "duration": 0.7421875
        },
        {
          "name": "D4",
          "midi": 62,
          "time": 327.75,
          "velocity": 0.2992125984251969,
          "duration": 0.7421875
        },
        {
          "name": "F4",
          "midi": 65,
          "time": 327.75,
          "velocity": 0.2992125984251969,
          "duration": 0.7421875
        },
        {
          "name": "C4",
          "midi": 60,
          "time": 330,
          "velocity": 0.2992125984251969,
          "duration": 1.4921875
        },
        {
          "name": "D#3",
          "midi": 51,
          "time": 330,
          "velocity": 0.2992125984251969,
          "duration": 1.4921875
        },
        {
          "name": "G3",
          "midi": 55,
          "time": 330,
          "velocity": 0.2992125984251969,
          "duration": 1.4921875
        },
        {
          "name": "A3",
          "midi": 57,
          "time": 330,
          "velocity": 0.2992125984251969,
          "duration": 1.4921875
        },
        {
          "name": "C4",
          "midi": 60,
          "time": 332.25,
          "velocity": 0.2992125984251969,
          "duration": 1.4921875
        },
        {
          "name": "D#4",
          "midi": 63,
          "time": 332.25,
          "velocity": 0.2992125984251969,
          "duration": 1.4921875
        },
        {
          "name": "A3",
          "midi": 57,
          "time": 332.25,
          "velocity": 0.2992125984251969,
          "duration": 1.4921875
        },
        {
          "name": "A3",
          "midi": 57,
          "time": 334.5,
          "velocity": 0.3464566929133858,
          "duration": 1.4921875
        },
        {
          "name": "D4",
          "midi": 62,
          "time": 334.5,
          "velocity": 0.3464566929133858,
          "duration": 1.4921875
        },
        {
          "name": "C4",
          "midi": 60,
          "time": 334.5,
          "velocity": 0.3464566929133858,
          "duration": 1.4921875
        },
        {
          "name": "G#3",
          "midi": 56,
          "time": 339,
          "velocity": 0.4645669291338583,
          "duration": 0.7421875
        },
        {
          "name": "C4",
          "midi": 60,
          "time": 339,
          "velocity": 0.4645669291338583,
          "duration": 0.7421875
        },
        {
          "name": "F3",
          "midi": 53,
          "time": 339,
          "velocity": 0.4645669291338583,
          "duration": 0.7421875
        },
        {
          "name": "D#4",
          "midi": 63,
          "time": 339,
          "velocity": 0.4645669291338583,
          "duration": 0.7421875
        },
        {
          "name": "G2",
          "midi": 43,
          "time": 341.25,
          "velocity": 0.3858267716535433,
          "duration": 0.7421875
        },
        {
          "name": "F3",
          "midi": 53,
          "time": 341.25,
          "velocity": 0.3858267716535433,
          "duration": 0.7421875
        },
        {
          "name": "C3",
          "midi": 48,
          "time": 343.5,
          "velocity": 0.3858267716535433,
          "duration": 0.7421875
        },
        {
          "name": "G3",
          "midi": 55,
          "time": 343.5,
          "velocity": 0.3858267716535433,
          "duration": 0.7421875
        },
        {
          "name": "C4",
          "midi": 60,
          "time": 343.5,
          "velocity": 0.3858267716535433,
          "duration": 0.7421875
        },
        {
          "name": "G#3",
          "midi": 56,
          "time": 348,
          "velocity": 0.4566929133858268,
          "duration": 0.3671875
        },
        {
          "name": "C4",
          "midi": 60,
          "time": 348,
          "velocity": 0.4566929133858268,
          "duration": 0.3671875
        },
        {
          "name": "F3",
          "midi": 53,
          "time": 348,
          "velocity": 0.4566929133858268,
          "duration": 0.3671875
        },
        {
          "name": "A#2",
          "midi": 46,
          "time": 350.25,
          "velocity": 0.3858267716535433,
          "duration": 0.3671875
        },
        {
          "name": "G#3",
          "midi": 56,
          "time": 350.25,
          "velocity": 0.3858267716535433,
          "duration": 0.3671875
        },
        {
          "name": "A#3",
          "midi": 58,
          "time": 352.5,
          "velocity": 0.31496062992125984,
          "duration": 0.7421875
        },
        {
          "name": "G3",
          "midi": 55,
          "time": 352.5,
          "velocity": 0.31496062992125984,
          "duration": 0.7421875
        },
        {
          "name": "D#3",
          "midi": 51,
          "time": 352.5,
          "velocity": 0.31496062992125984,
          "duration": 0.7421875
        },
        {
          "name": "D4",
          "midi": 62,
          "time": 352.5,
          "velocity": 0.31496062992125984,
          "duration": 0.7421875
        },
        {
          "name": "C3",
          "midi": 48,
          "time": 357,
          "velocity": 0.5039370078740157,
          "duration": 1.4921875
        },
        {
          "name": "A#3",
          "midi": 58,
          "time": 357,
          "velocity": 0.5039370078740157,
          "duration": 1.4453125
        },
        {
          "name": "C4",
          "midi": 60,
          "time": 357,
          "velocity": 0.5039370078740157,
          "duration": 1.4453125
        },
        {
          "name": "D3",
          "midi": 50,
          "time": 359.25,
          "velocity": 0.5433070866141733,
          "duration": 1.4921875
        },
        {
          "name": "D2",
          "midi": 38,
          "time": 359.25,
          "velocity": 0.5433070866141733,
          "duration": 1.4921875
        },
        {
          "name": "G2",
          "midi": 43,
          "time": 361.5,
          "velocity": 0.5826771653543307,
          "duration": 1.4921875
        },
        {
          "name": "D3",
          "midi": 50,
          "time": 362.25,
          "velocity": 0.4881889763779528,
          "duration": 0.7421875
        },
        {
          "name": "F2",
          "midi": 41,
          "time": 363.75,
          "velocity": 0.5196850393700787,
          "duration": 1.4921875
        },
        {
          "name": "D3",
          "midi": 50,
          "time": 364.5,
          "velocity": 0.5275590551181102,
          "duration": 0.7421875
        },
        {
          "name": "D3",
          "midi": 50,
          "time": 366,
          "velocity": 0.6535433070866141,
          "duration": 1.4921875
        },
        {
          "name": "E2",
          "midi": 40,
          "time": 366,
          "velocity": 0.6535433070866141,
          "duration": 1.4921875
        },
        {
          "name": "D2",
          "midi": 38,
          "time": 368.25,
          "velocity": 0.7007874015748031,
          "duration": 0.859375
        },
        {
          "name": "D3",
          "midi": 50,
          "time": 368.25,
          "velocity": 0.7007874015748031,
          "duration": 0.859375
        },
        {
          "name": "D3",
          "midi": 50,
          "time": 369.1171875,
          "velocity": 0.7401574803149606,
          "duration": 0.8671875
        },
        {
          "name": "D2",
          "midi": 38,
          "time": 369.1171875,
          "velocity": 0.7401574803149606,
          "duration": 0.8671875
        },
        {
          "name": "D2",
          "midi": 38,
          "time": 370.015625,
          "velocity": 0.7716535433070866,
          "duration": 0.890625
        },
        {
          "name": "C3",
          "midi": 48,
          "time": 370.015625,
          "velocity": 0.7716535433070866,
          "duration": 0.890625
        },
        {
          "name": "G2",
          "midi": 43,
          "time": 370.9140625,
          "velocity": 0.8503937007874016,
          "duration": 2.90625
        },
        {
          "name": "B2",
          "midi": 47,
          "time": 370.9140625,
          "velocity": 0.8503937007874016,
          "duration": 2.90625
        },
        {
          "name": "D3",
          "midi": 50,
          "time": 370.9140625,
          "velocity": 0.8503937007874016,
          "duration": 2.90625
        },
        {
          "name": "D3",
          "midi": 50,
          "time": 373.875,
          "velocity": 0.2440944881889764,
          "duration": 0.3671875
        },
        {
          "name": "B2",
          "midi": 47,
          "time": 374.25,
          "velocity": 0.2283464566929134,
          "duration": 0.3671875
        },
        {
          "name": "D3",
          "midi": 50,
          "time": 374.625,
          "velocity": 0.29133858267716534,
          "duration": 0.3671875
        },
        {
          "name": "G3",
          "midi": 55,
          "time": 375,
          "velocity": 0.3464566929133858,
          "duration": 0.3671875
        },
        {
          "name": "B3",
          "midi": 59,
          "time": 375.375,
          "velocity": 0.4094488188976378,
          "duration": 0.3671875
        },
        {
          "name": "B3",
          "midi": 59,
          "time": 378.375,
          "velocity": 0.31496062992125984,
          "duration": 0.3671875
        },
        {
          "name": "G3",
          "midi": 55,
          "time": 378.75,
          "velocity": 0.3464566929133858,
          "duration": 1.4921875
        },
        {
          "name": "F2",
          "midi": 41,
          "time": 379.5,
          "velocity": 0.3464566929133858,
          "duration": 1.5
        },
        {
          "name": "A#2",
          "midi": 46,
          "time": 379.875,
          "velocity": 0.3464566929133858,
          "duration": 0.3515625
        },
        {
          "name": "D#3",
          "midi": 51,
          "time": 380.25,
          "velocity": 0.3464566929133858,
          "duration": 0.359375
        },
        {
          "name": "G3",
          "midi": 55,
          "time": 380.6328125,
          "velocity": 0.3464566929133858,
          "duration": 0.3515625
        },
        {
          "name": "F2",
          "midi": 41,
          "time": 381.75,
          "velocity": 0.3464566929133858,
          "duration": 1.5
        },
        {
          "name": "A#2",
          "midi": 46,
          "time": 382.125,
          "velocity": 0.3464566929133858,
          "duration": 0.3984375
        },
        {
          "name": "A#2",
          "midi": 46,
          "time": 382.875,
          "velocity": 0.3464566929133858,
          "duration": 1.125
        },
        {
          "name": "A#2",
          "midi": 46,
          "time": 384.75,
          "velocity": 0.3464566929133858,
          "duration": 1.125
        },
        {
          "name": "F3",
          "midi": 53,
          "time": 385.125,
          "velocity": 0.3464566929133858,
          "duration": 0.734375
        },
        {
          "name": "A#3",
          "midi": 58,
          "time": 385.875,
          "velocity": 0.3464566929133858,
          "duration": 1.109375
        },
        {
          "name": "A#2",
          "midi": 46,
          "time": 386.25,
          "velocity": 0.3464566929133858,
          "duration": 0.40625
        },
        {
          "name": "F3",
          "midi": 53,
          "time": 386.625,
          "velocity": 0.3464566929133858,
          "duration": 0.359375
        },
        {
          "name": "A#3",
          "midi": 58,
          "time": 387,
          "velocity": 0.3464566929133858,
          "duration": 0.359375
        },
        {
          "name": "C4",
          "midi": 60,
          "time": 387.375,
          "velocity": 0.3464566929133858,
          "duration": 1.859375
        },
        {
          "name": "F2",
          "midi": 41,
          "time": 388.5,
          "velocity": 0.3464566929133858,
          "duration": 0.40625
        },
        {
          "name": "A#2",
          "midi": 46,
          "time": 388.875,
          "velocity": 0.3464566929133858,
          "duration": 0.40625
        },
        {
          "name": "D#3",
          "midi": 51,
          "time": 389.25,
          "velocity": 0.3464566929133858,
          "duration": 0.40625
        },
        {
          "name": "G3",
          "midi": 55,
          "time": 389.625,
          "velocity": 0.3464566929133858,
          "duration": 1.109375
        },
        {
          "name": "F2",
          "midi": 41,
          "time": 390.75,
          "velocity": 0.3464566929133858,
          "duration": 0.734375
        },
        {
          "name": "C3",
          "midi": 48,
          "time": 391.125,
          "velocity": 0.3464566929133858,
          "duration": 0.40625
        },
        {
          "name": "C3",
          "midi": 48,
          "time": 391.875,
          "velocity": 0.3464566929133858,
          "duration": 1.109375
        },
        {
          "name": "A#2",
          "midi": 46,
          "time": 393,
          "velocity": 0.3464566929133858,
          "duration": 0.40625
        },
        {
          "name": "D3",
          "midi": 50,
          "time": 393.375,
          "velocity": 0.3464566929133858,
          "duration": 0.359375
        },
        {
          "name": "F3",
          "midi": 53,
          "time": 393.75,
          "velocity": 0.3464566929133858,
          "duration": 0.40625
        },
        {
          "name": "A#3",
          "midi": 58,
          "time": 394.125,
          "velocity": 0.3464566929133858,
          "duration": 0.734375
        },
        {
          "name": "A#2",
          "midi": 46,
          "time": 394.875,
          "velocity": 0.3464566929133858,
          "duration": 0.40625
        },
        {
          "name": "D3",
          "midi": 50,
          "time": 395.25,
          "velocity": 0.3464566929133858,
          "duration": 0.40625
        },
        {
          "name": "F3",
          "midi": 53,
          "time": 395.625,
          "velocity": 0.3464566929133858,
          "duration": 0.40625
        },
        {
          "name": "A#3",
          "midi": 58,
          "time": 396,
          "velocity": 0.3464566929133858,
          "duration": 1.109375
        },
        {
          "name": "D3",
          "midi": 50,
          "time": 397.5,
          "velocity": 0.4645669291338583,
          "duration": 1.484375
        },
        {
          "name": "D4",
          "midi": 62,
          "time": 398.25,
          "velocity": 0.4645669291338583,
          "duration": 0.734375
        },
        {
          "name": "F3",
          "midi": 53,
          "time": 398.25,
          "velocity": 0.4645669291338583,
          "duration": 0.734375
        },
        {
          "name": "A3",
          "midi": 57,
          "time": 398.25,
          "velocity": 0.4645669291338583,
          "duration": 0.734375
        },
        {
          "name": "F3",
          "midi": 53,
          "time": 399,
          "velocity": 0.4645669291338583,
          "duration": 0.734375
        },
        {
          "name": "A3",
          "midi": 57,
          "time": 399,
          "velocity": 0.4645669291338583,
          "duration": 0.734375
        },
        {
          "name": "D4",
          "midi": 62,
          "time": 399,
          "velocity": 0.4645669291338583,
          "duration": 0.734375
        },
        {
          "name": "D2",
          "midi": 38,
          "time": 399.75,
          "velocity": 0.4645669291338583,
          "duration": 0.40625
        },
        {
          "name": "F2",
          "midi": 41,
          "time": 400.125,
          "velocity": 0.4645669291338583,
          "duration": 0.40625
        },
        {
          "name": "A2",
          "midi": 45,
          "time": 400.5,
          "velocity": 0.4645669291338583,
          "duration": 0.40625
        },
        {
          "name": "D3",
          "midi": 50,
          "time": 400.875,
          "velocity": 0.4645669291338583,
          "duration": 0.6875
        },
        {
          "name": "D3",
          "midi": 50,
          "time": 401.625,
          "velocity": 0.4645669291338583,
          "duration": 0.78125
        },
        {
          "name": "E2",
          "midi": 40,
          "time": 402,
          "velocity": 0.4645669291338583,
          "duration": 0.40625
        },
        {
          "name": "A2",
          "midi": 45,
          "time": 402.375,
          "velocity": 0.4645669291338583,
          "duration": 0.40625
        },
        {
          "name": "C#3",
          "midi": 49,
          "time": 402.75,
          "velocity": 0.4645669291338583,
          "duration": 0.40625
        },
        {
          "name": "G3",
          "midi": 55,
          "time": 403.125,
          "velocity": 0.4645669291338583,
          "duration": 1.15625
        },
        {
          "name": "A2",
          "midi": 45,
          "time": 404.25,
          "velocity": 0.4645669291338583,
          "duration": 0.40625
        },
        {
          "name": "C#3",
          "midi": 49,
          "time": 404.625,
          "velocity": 0.4645669291338583,
          "duration": 0.40625
        },
        {
          "name": "E3",
          "midi": 52,
          "time": 405,
          "velocity": 0.4645669291338583,
          "duration": 0.40625
        },
        {
          "name": "G3",
          "midi": 55,
          "time": 405.375,
          "velocity": 0.4645669291338583,
          "duration": 1.15625
        },
        {
          "name": "D2",
          "midi": 38,
          "time": 406.5,
          "velocity": 0.4645669291338583,
          "duration": 0.40625
        },
        {
          "name": "A2",
          "midi": 45,
          "time": 406.875,
          "velocity": 0.4645669291338583,
          "duration": 0.40625
        },
        {
          "name": "D3",
          "midi": 50,
          "time": 407.25,
          "velocity": 0.4645669291338583,
          "duration": 0.40625
        },
        {
          "name": "F3",
          "midi": 53,
          "time": 407.625,
          "velocity": 0.4645669291338583,
          "duration": 0.40625
        },
        {
          "name": "A3",
          "midi": 57,
          "time": 408,
          "velocity": 0.4645669291338583,
          "duration": 0.734375
        },
        {
          "name": "D3",
          "midi": 50,
          "time": 408.75,
          "velocity": 0.4645669291338583,
          "duration": 0.40625
        },
        {
          "name": "A3",
          "midi": 57,
          "time": 409.125,
          "velocity": 0.4645669291338583,
          "duration": 0.40625
        },
        {
          "name": "E4",
          "midi": 64,
          "time": 409.5,
          "velocity": 0.4645669291338583,
          "duration": 0.40625
        },
        {
          "name": "C#4",
          "midi": 61,
          "time": 409.875,
          "velocity": 0.4645669291338583,
          "duration": 0.40625
        },
        {
          "name": "A3",
          "midi": 57,
          "time": 410.25,
          "velocity": 0.4645669291338583,
          "duration": 0.734375
        },
        {
          "name": "E2",
          "midi": 40,
          "time": 411,
          "velocity": 0.5826771653543307,
          "duration": 0.359375
        },
        {
          "name": "C#3",
          "midi": 49,
          "time": 411.375,
          "velocity": 0.4645669291338583,
          "duration": 0.359375
        },
        {
          "name": "G3",
          "midi": 55,
          "time": 411.75,
          "velocity": 0.4881889763779528,
          "duration": 0.359375
        },
        {
          "name": "A#3",
          "midi": 58,
          "time": 412.125,
          "velocity": 0.4881889763779528,
          "duration": 0.359375
        },
        {
          "name": "C#4",
          "midi": 61,
          "time": 412.5,
          "velocity": 0.5039370078740157,
          "duration": 1.25
        },
        {
          "name": "E3",
          "midi": 52,
          "time": 413.625,
          "velocity": 0.5590551181102362,
          "duration": 0.359375
        },
        {
          "name": "G3",
          "midi": 55,
          "time": 414,
          "velocity": 0.5748031496062992,
          "duration": 0.359375
        },
        {
          "name": "E3",
          "midi": 52,
          "time": 414.375,
          "velocity": 0.5748031496062992,
          "duration": 0.359375
        },
        {
          "name": "C#3",
          "midi": 49,
          "time": 414.75,
          "velocity": 0.5905511811023622,
          "duration": 0.734375
        },
        {
          "name": "A2",
          "midi": 45,
          "time": 415.5,
          "velocity": 0.5590551181102362,
          "duration": 0.359375
        },
        {
          "name": "D2",
          "midi": 38,
          "time": 415.5,
          "velocity": 0.6771653543307087,
          "duration": 0.359375
        },
        {
          "name": "D3",
          "midi": 50,
          "time": 415.875,
          "velocity": 0.5590551181102362,
          "duration": 0.359375
        },
        {
          "name": "F#3",
          "midi": 54,
          "time": 416.25,
          "velocity": 0.5590551181102362,
          "duration": 0.359375
        },
        {
          "name": "A3",
          "midi": 57,
          "time": 416.625,
          "velocity": 0.5590551181102362,
          "duration": 0.359375
        },
        {
          "name": "D#3",
          "midi": 51,
          "time": 417,
          "velocity": 0.6062992125984252,
          "duration": 0.359375
        },
        {
          "name": "D#4",
          "midi": 63,
          "time": 417,
          "velocity": 0.6062992125984252,
          "duration": 0.359375
        },
        {
          "name": "D4",
          "midi": 62,
          "time": 417.375,
          "velocity": 0.6220472440944882,
          "duration": 0.359375
        },
        {
          "name": "D3",
          "midi": 50,
          "time": 417.375,
          "velocity": 0.6220472440944882,
          "duration": 0.359375
        },
        {
          "name": "C4",
          "midi": 60,
          "time": 417.75,
          "velocity": 0.6220472440944882,
          "duration": 0.359375
        },
        {
          "name": "C3",
          "midi": 48,
          "time": 417.75,
          "velocity": 0.6220472440944882,
          "duration": 0.359375
        },
        {
          "name": "A#3",
          "midi": 58,
          "time": 418.125,
          "velocity": 0.5905511811023622,
          "duration": 0.359375
        },
        {
          "name": "A#2",
          "midi": 46,
          "time": 418.125,
          "velocity": 0.5905511811023622,
          "duration": 0.359375
        },
        {
          "name": "A3",
          "midi": 57,
          "time": 418.5,
          "velocity": 0.5905511811023622,
          "duration": 0.359375
        },
        {
          "name": "A2",
          "midi": 45,
          "time": 418.5,
          "velocity": 0.5905511811023622,
          "duration": 0.359375
        },
        {
          "name": "G3",
          "midi": 55,
          "time": 418.875,
          "velocity": 0.5590551181102362,
          "duration": 0.359375
        },
        {
          "name": "G2",
          "midi": 43,
          "time": 418.875,
          "velocity": 0.5590551181102362,
          "duration": 0.359375
        },
        {
          "name": "F#3",
          "midi": 54,
          "time": 419.25,
          "velocity": 0.5905511811023622,
          "duration": 0.734375
        },
        {
          "name": "F#2",
          "midi": 42,
          "time": 419.25,
          "velocity": 0.5905511811023622,
          "duration": 0.734375
        },
        {
          "name": "G2",
          "midi": 43,
          "time": 420,
          "velocity": 0.5590551181102362,
          "duration": 0.359375
        },
        {
          "name": "A#2",
          "midi": 46,
          "time": 420.375,
          "velocity": 0.5590551181102362,
          "duration": 0.359375
        },
        {
          "name": "D3",
          "midi": 50,
          "time": 420.75,
          "velocity": 0.5590551181102362,
          "duration": 0.359375
        },
        {
          "name": "G3",
          "midi": 55,
          "time": 421.125,
          "velocity": 0.5590551181102362,
          "duration": 0.359375
        },
        {
          "name": "D3",
          "midi": 50,
          "time": 421.5,
          "velocity": 0.5590551181102362,
          "duration": 0.734375
        },
        {
          "name": "G1",
          "midi": 31,
          "time": 422.25,
          "velocity": 0.9448818897637795,
          "duration": 1.109375
        },
        {
          "name": "D4",
          "midi": 62,
          "time": 423.375,
          "velocity": 0.6299212598425197,
          "duration": 0.59375
        },
        {
          "name": "A#3",
          "midi": 58,
          "time": 423.375,
          "velocity": 0.6299212598425197,
          "duration": 0.59375
        },
        {
          "name": "G3",
          "midi": 55,
          "time": 423.375,
          "velocity": 0.6299212598425197,
          "duration": 0.59375
        },
        {
          "name": "C2",
          "midi": 36,
          "time": 424.125,
          "velocity": 0.7952755905511811,
          "duration": 1.109375
        },
        {
          "name": "G3",
          "midi": 55,
          "time": 425.25,
          "velocity": 0.5590551181102362,
          "duration": 0.359375
        },
        {
          "name": "C3",
          "midi": 48,
          "time": 425.625,
          "velocity": 0.5590551181102362,
          "duration": 0.359375
        },
        {
          "name": "C4",
          "midi": 60,
          "time": 425.625,
          "velocity": 0.5590551181102362,
          "duration": 0.359375
        },
        {
          "name": "A#2",
          "midi": 46,
          "time": 426,
          "velocity": 0.5590551181102362,
          "duration": 0.359375
        },
        {
          "name": "A#3",
          "midi": 58,
          "time": 426,
          "velocity": 0.5590551181102362,
          "duration": 0.359375
        },
        {
          "name": "A2",
          "midi": 45,
          "time": 426.375,
          "velocity": 0.5590551181102362,
          "duration": 0.359375
        },
        {
          "name": "A3",
          "midi": 57,
          "time": 426.375,
          "velocity": 0.5590551181102362,
          "duration": 0.359375
        },
        {
          "name": "G2",
          "midi": 43,
          "time": 426.75,
          "velocity": 0.5590551181102362,
          "duration": 0.359375
        },
        {
          "name": "G3",
          "midi": 55,
          "time": 426.75,
          "velocity": 0.5590551181102362,
          "duration": 0.359375
        },
        {
          "name": "F2",
          "midi": 41,
          "time": 427.125,
          "velocity": 0.5590551181102362,
          "duration": 0.359375
        },
        {
          "name": "F3",
          "midi": 53,
          "time": 427.125,
          "velocity": 0.5590551181102362,
          "duration": 0.359375
        },
        {
          "name": "E2",
          "midi": 40,
          "time": 427.5,
          "velocity": 0.5590551181102362,
          "duration": 0.359375
        },
        {
          "name": "E3",
          "midi": 52,
          "time": 427.5,
          "velocity": 0.5590551181102362,
          "duration": 0.359375
        },
        {
          "name": "D#2",
          "midi": 39,
          "time": 427.875,
          "velocity": 0.5590551181102362,
          "duration": 0.359375
        },
        {
          "name": "D#3",
          "midi": 51,
          "time": 427.875,
          "velocity": 0.5590551181102362,
          "duration": 0.359375
        },
        {
          "name": "D2",
          "midi": 38,
          "time": 428.25,
          "velocity": 0.5590551181102362,
          "duration": 0.78125
        },
        {
          "name": "D3",
          "midi": 50,
          "time": 428.25,
          "velocity": 0.5590551181102362,
          "duration": 0.78125
        },
        {
          "name": "F2",
          "midi": 41,
          "time": 429,
          "velocity": 0.5590551181102362,
          "duration": 0.359375
        },
        {
          "name": "A2",
          "midi": 45,
          "time": 429.375,
          "velocity": 0.5590551181102362,
          "duration": 0.359375
        },
        {
          "name": "C3",
          "midi": 48,
          "time": 429.75,
          "velocity": 0.5590551181102362,
          "duration": 0.359375
        },
        {
          "name": "F3",
          "midi": 53,
          "time": 430.125,
          "velocity": 0.5590551181102362,
          "duration": 0.359375
        },
        {
          "name": "F4",
          "midi": 65,
          "time": 430.5,
          "velocity": 0.5590551181102362,
          "duration": 0.359375
        },
        {
          "name": "D#4",
          "midi": 63,
          "time": 430.875,
          "velocity": 0.5590551181102362,
          "duration": 0.359375
        },
        {
          "name": "D4",
          "midi": 62,
          "time": 431.25,
          "velocity": 0.5590551181102362,
          "duration": 0.359375
        },
        {
          "name": "C4",
          "midi": 60,
          "time": 431.625,
          "velocity": 0.5590551181102362,
          "duration": 0.359375
        },
        {
          "name": "A3",
          "midi": 57,
          "time": 432,
          "velocity": 0.5590551181102362,
          "duration": 0.359375
        },
        {
          "name": "G3",
          "midi": 55,
          "time": 432.375,
          "velocity": 0.5590551181102362,
          "duration": 1.15625
        },
        {
          "name": "B1",
          "midi": 35,
          "time": 433.5,
          "velocity": 0.7322834645669292,
          "duration": 0.734375
        },
        {
          "name": "B2",
          "midi": 47,
          "time": 433.5,
          "velocity": 0.6062992125984252,
          "duration": 0.734375
        },
        {
          "name": "A#3",
          "midi": 58,
          "time": 434.25,
          "velocity": 0.4881889763779528,
          "duration": 0.40625
        },
        {
          "name": "C4",
          "midi": 60,
          "time": 434.25,
          "velocity": 0.4881889763779528,
          "duration": 0.40625
        },
        {
          "name": "C4",
          "midi": 60,
          "time": 435,
          "velocity": 0.4881889763779528,
          "duration": 0.40625
        },
        {
          "name": "A3",
          "midi": 57,
          "time": 435,
          "velocity": 0.4881889763779528,
          "duration": 0.40625
        },
        {
          "name": "E1",
          "midi": 28,
          "time": 435.75,
          "velocity": 0.7480314960629921,
          "duration": 0.734375
        },
        {
          "name": "E2",
          "midi": 40,
          "time": 435.75,
          "velocity": 0.6220472440944882,
          "duration": 0.734375
        },
        {
          "name": "B3",
          "midi": 59,
          "time": 436.5,
          "velocity": 0.5590551181102362,
          "duration": 0.40625
        },
        {
          "name": "G#3",
          "midi": 56,
          "time": 436.5,
          "velocity": 0.5590551181102362,
          "duration": 0.40625
        },
        {
          "name": "E3",
          "midi": 52,
          "time": 436.5,
          "velocity": 0.5590551181102362,
          "duration": 0.40625
        },
        {
          "name": "G#3",
          "midi": 56,
          "time": 437.25,
          "velocity": 0.5748031496062992,
          "duration": 0.40625
        },
        {
          "name": "E3",
          "midi": 52,
          "time": 437.25,
          "velocity": 0.5748031496062992,
          "duration": 0.40625
        },
        {
          "name": "B3",
          "midi": 59,
          "time": 437.25,
          "velocity": 0.5748031496062992,
          "duration": 0.40625
        },
        {
          "name": "A1",
          "midi": 33,
          "time": 438,
          "velocity": 0.7322834645669292,
          "duration": 0.734375
        },
        {
          "name": "A3",
          "midi": 57,
          "time": 438.75,
          "velocity": 0.6456692913385826,
          "duration": 0.40625
        },
        {
          "name": "E3",
          "midi": 52,
          "time": 438.75,
          "velocity": 0.6456692913385826,
          "duration": 0.40625
        },
        {
          "name": "A3",
          "midi": 57,
          "time": 439.5,
          "velocity": 0.6456692913385826,
          "duration": 0.40625
        },
        {
          "name": "E3",
          "midi": 52,
          "time": 439.5,
          "velocity": 0.6456692913385826,
          "duration": 0.40625
        },
        {
          "name": "A1",
          "midi": 33,
          "time": 440.25,
          "velocity": 0.8031496062992126,
          "duration": 0.734375
        },
        {
          "name": "C#3",
          "midi": 49,
          "time": 441,
          "velocity": 0.6771653543307087,
          "duration": 0.734375
        },
        {
          "name": "E3",
          "midi": 52,
          "time": 441,
          "velocity": 0.6771653543307087,
          "duration": 0.734375
        },
        {
          "name": "A2",
          "midi": 45,
          "time": 441.75,
          "velocity": 0.6771653543307087,
          "duration": 0.734375
        },
        {
          "name": "C2",
          "midi": 36,
          "time": 442.5,
          "velocity": 0.8188976377952756,
          "duration": 0.734375
        },
        {
          "name": "C1",
          "midi": 24,
          "time": 442.5,
          "velocity": 0.8188976377952756,
          "duration": 0.734375
        },
        {
          "name": "G2",
          "midi": 43,
          "time": 443.25,
          "velocity": 0.7165354330708661,
          "duration": 1.53125
        },
        {
          "name": "A#2",
          "midi": 46,
          "time": 443.25,
          "velocity": 0.7165354330708661,
          "duration": 1.53125
        },
        {
          "name": "D#3",
          "midi": 51,
          "time": 443.25,
          "velocity": 0.7165354330708661,
          "duration": 1.53125
        },
        {
          "name": "C2",
          "midi": 36,
          "time": 444.75,
          "velocity": 0.7480314960629921,
          "duration": 0.734375
        },
        {
          "name": "C1",
          "midi": 24,
          "time": 444.75,
          "velocity": 0.7480314960629921,
          "duration": 0.734375
        },
        {
          "name": "G2",
          "midi": 43,
          "time": 445.5,
          "velocity": 0.6614173228346457,
          "duration": 0.359375
        },
        {
          "name": "A#2",
          "midi": 46,
          "time": 445.5,
          "velocity": 0.6614173228346457,
          "duration": 0.359375
        },
        {
          "name": "D#3",
          "midi": 51,
          "time": 445.5,
          "velocity": 0.6614173228346457,
          "duration": 0.359375
        },
        {
          "name": "G2",
          "midi": 43,
          "time": 446.25,
          "velocity": 0.6614173228346457,
          "duration": 0.359375
        },
        {
          "name": "A#2",
          "midi": 46,
          "time": 446.25,
          "velocity": 0.6614173228346457,
          "duration": 0.359375
        },
        {
          "name": "D#3",
          "midi": 51,
          "time": 446.25,
          "velocity": 0.6614173228346457,
          "duration": 0.359375
        },
        {
          "name": "D1",
          "midi": 26,
          "time": 447,
          "velocity": 0.7086614173228346,
          "duration": 0.2265625
        },
        {
          "name": "D2",
          "midi": 38,
          "time": 447.2578125,
          "velocity": 0.6614173228346457,
          "duration": 0.2265625
        },
        {
          "name": "F#2",
          "midi": 42,
          "time": 447.46875,
          "velocity": 0.6771653543307087,
          "duration": 0.2109375
        },
        {
          "name": "A2",
          "midi": 45,
          "time": 447.6953125,
          "velocity": 0.6614173228346457,
          "duration": 0.21875
        },
        {
          "name": "C3",
          "midi": 48,
          "time": 447.921875,
          "velocity": 0.6614173228346457,
          "duration": 0.2265625
        },
        {
          "name": "D3",
          "midi": 50,
          "time": 448.15625,
          "velocity": 0.6614173228346457,
          "duration": 0.2265625
        },
        {
          "name": "F#3",
          "midi": 54,
          "time": 448.390625,
          "velocity": 0.6614173228346457,
          "duration": 0.234375
        },
        {
          "name": "A3",
          "midi": 57,
          "time": 448.6328125,
          "velocity": 0.6614173228346457,
          "duration": 0.2109375
        },
        {
          "name": "C4",
          "midi": 60,
          "time": 448.8515625,
          "velocity": 0.6614173228346457,
          "duration": 0.21875
        },
        {
          "name": "A#3",
          "midi": 58,
          "time": 449.0859375,
          "velocity": 0.6614173228346457,
          "duration": 0.2265625
        },
        {
          "name": "A3",
          "midi": 57,
          "time": 449.3203125,
          "velocity": 0.6614173228346457,
          "duration": 0.21875
        },
        {
          "name": "F#3",
          "midi": 54,
          "time": 449.546875,
          "velocity": 0.6614173228346457,
          "duration": 0.2265625
        },
        {
          "name": "D3",
          "midi": 50,
          "time": 449.78125,
          "velocity": 0.6614173228346457,
          "duration": 0.2265625
        },
        {
          "name": "D2",
          "midi": 38,
          "time": 450.015625,
          "velocity": 0.6614173228346457,
          "duration": 0.21875
        },
        {
          "name": "F#2",
          "midi": 42,
          "time": 450.2109375,
          "velocity": 0.6614173228346457,
          "duration": 0.2265625
        },
        {
          "name": "A2",
          "midi": 45,
          "time": 450.4453125,
          "velocity": 0.6614173228346457,
          "duration": 0.234375
        },
        {
          "name": "C3",
          "midi": 48,
          "time": 450.6875,
          "velocity": 0.6614173228346457,
          "duration": 0.2109375
        },
        {
          "name": "D3",
          "midi": 50,
          "time": 450.9140625,
          "velocity": 0.6614173228346457,
          "duration": 0.21875
        },
        {
          "name": "F#3",
          "midi": 54,
          "time": 451.1484375,
          "velocity": 0.6614173228346457,
          "duration": 0.21875
        },
        {
          "name": "A3",
          "midi": 57,
          "time": 451.375,
          "velocity": 0.6614173228346457,
          "duration": 0.21875
        },
        {
          "name": "C4",
          "midi": 60,
          "time": 451.6015625,
          "velocity": 0.6614173228346457,
          "duration": 0.234375
        },
        {
          "name": "A#3",
          "midi": 58,
          "time": 451.84375,
          "velocity": 0.6614173228346457,
          "duration": 0.2265625
        },
        {
          "name": "A3",
          "midi": 57,
          "time": 452.0625,
          "velocity": 0.6614173228346457,
          "duration": 0.2265625
        },
        {
          "name": "F#3",
          "midi": 54,
          "time": 452.2890625,
          "velocity": 0.6614173228346457,
          "duration": 0.2109375
        },
        {
          "name": "D3",
          "midi": 50,
          "time": 452.53125,
          "velocity": 0.6614173228346457,
          "duration": 0.2109375
        },
        {
          "name": "C3",
          "midi": 48,
          "time": 452.765625,
          "velocity": 0.6614173228346457,
          "duration": 0.234375
        },
        {
          "name": "D2",
          "midi": 38,
          "time": 453.03125,
          "velocity": 0.6614173228346457,
          "duration": 0.2265625
        },
        {
          "name": "F#2",
          "midi": 42,
          "time": 453.265625,
          "velocity": 0.6614173228346457,
          "duration": 0.2265625
        },
        {
          "name": "G#2",
          "midi": 44,
          "time": 453.5,
          "velocity": 0.6614173228346457,
          "duration": 0.21875
        },
        {
          "name": "A2",
          "midi": 45,
          "time": 453.734375,
          "velocity": 0.6614173228346457,
          "duration": 0.2109375
        },
        {
          "name": "A#2",
          "midi": 46,
          "time": 453.9609375,
          "velocity": 0.6614173228346457,
          "duration": 0.21875
        },
        {
          "name": "C3",
          "midi": 48,
          "time": 454.1875,
          "velocity": 0.6614173228346457,
          "duration": 0.2265625
        },
        {
          "name": "A#2",
          "midi": 46,
          "time": 454.40625,
          "velocity": 0.6614173228346457,
          "duration": 0.2265625
        },
        {
          "name": "C3",
          "midi": 48,
          "time": 454.546875,
          "velocity": 0.6456692913385826,
          "duration": 0.4609375
        },
        {
          "name": "F#3",
          "midi": 54,
          "time": 455.25,
          "velocity": 0.6062992125984252,
          "duration": 0.7890625
        },
        {
          "name": "A3",
          "midi": 57,
          "time": 455.25,
          "velocity": 0.6062992125984252,
          "duration": 0.7890625
        },
        {
          "name": "D3",
          "midi": 50,
          "time": 455.25,
          "velocity": 0.6062992125984252,
          "duration": 0.7890625
        },
        {
          "name": "D3",
          "midi": 50,
          "time": 456.28125,
          "velocity": 0.7716535433070866,
          "duration": 0.8828125
        },
        {
          "name": "A2",
          "midi": 45,
          "time": 456.28125,
          "velocity": 0.7716535433070866,
          "duration": 0.8828125
        },
        {
          "name": "F#2",
          "midi": 42,
          "time": 456.28125,
          "velocity": 0.7716535433070866,
          "duration": 0.8828125
        },
        {
          "name": "D2",
          "midi": 38,
          "time": 456.28125,
          "velocity": 0.7716535433070866,
          "duration": 0.8828125
        },
        {
          "name": "D2",
          "midi": 38,
          "time": 457.265625,
          "velocity": 0.84251968503937,
          "duration": 0.8828125
        },
        {
          "name": "D1",
          "midi": 26,
          "time": 457.265625,
          "velocity": 0.84251968503937,
          "duration": 0.8828125
        },
        {
          "name": "F#1",
          "midi": 30,
          "time": 457.265625,
          "velocity": 0.84251968503937,
          "duration": 0.8828125
        },
        {
          "name": "A1",
          "midi": 33,
          "time": 457.265625,
          "velocity": 0.84251968503937,
          "duration": 0.8828125
        },
        {
          "name": "C1",
          "midi": 24,
          "time": 458.25,
          "velocity": 0.9606299212598425,
          "duration": 0.7890625
        },
        {
          "name": "C2",
          "midi": 36,
          "time": 458.25,
          "velocity": 0.9606299212598425,
          "duration": 0.7890625
        },
        {
          "name": "G1",
          "midi": 31,
          "time": 458.25,
          "velocity": 0.9606299212598425,
          "duration": 0.7890625
        },
        {
          "name": "G3",
          "midi": 55,
          "time": 459,
          "velocity": 0.6614173228346457,
          "duration": 0.3828125
        },
        {
          "name": "A#3",
          "midi": 58,
          "time": 459,
          "velocity": 0.6614173228346457,
          "duration": 0.3828125
        },
        {
          "name": "C4",
          "midi": 60,
          "time": 459,
          "velocity": 0.6614173228346457,
          "duration": 0.3828125
        },
        {
          "name": "D#4",
          "midi": 63,
          "time": 459,
          "velocity": 0.6614173228346457,
          "duration": 0.3828125
        },
        {
          "name": "G3",
          "midi": 55,
          "time": 459.75,
          "velocity": 0.6614173228346457,
          "duration": 0.3828125
        },
        {
          "name": "C4",
          "midi": 60,
          "time": 459.75,
          "velocity": 0.6614173228346457,
          "duration": 0.3828125
        },
        {
          "name": "D#4",
          "midi": 63,
          "time": 459.75,
          "velocity": 0.6614173228346457,
          "duration": 0.3828125
        },
        {
          "name": "A#3",
          "midi": 58,
          "time": 459.75,
          "velocity": 0.6614173228346457,
          "duration": 0.3828125
        },
        {
          "name": "D1",
          "midi": 26,
          "time": 460.5,
          "velocity": 0.7716535433070866,
          "duration": 0.7578125
        },
        {
          "name": "F#1",
          "midi": 30,
          "time": 460.5,
          "velocity": 0.7716535433070866,
          "duration": 0.7578125
        },
        {
          "name": "A1",
          "midi": 33,
          "time": 460.5,
          "velocity": 0.7716535433070866,
          "duration": 0.7578125
        },
        {
          "name": "D2",
          "midi": 38,
          "time": 460.5,
          "velocity": 0.7716535433070866,
          "duration": 0.7578125
        },
        {
          "name": "D3",
          "midi": 50,
          "time": 461.25,
          "velocity": 0.6614173228346457,
          "duration": 0.3828125
        },
        {
          "name": "F#3",
          "midi": 54,
          "time": 461.25,
          "velocity": 0.6614173228346457,
          "duration": 0.3828125
        },
        {
          "name": "A3",
          "midi": 57,
          "time": 461.25,
          "velocity": 0.6614173228346457,
          "duration": 0.3828125
        },
        {
          "name": "D4",
          "midi": 62,
          "time": 461.25,
          "velocity": 0.6614173228346457,
          "duration": 0.3828125
        },
        {
          "name": "A3",
          "midi": 57,
          "time": 462,
          "velocity": 0.6614173228346457,
          "duration": 0.3828125
        },
        {
          "name": "F#3",
          "midi": 54,
          "time": 462,
          "velocity": 0.6614173228346457,
          "duration": 0.3828125
        },
        {
          "name": "D3",
          "midi": 50,
          "time": 462,
          "velocity": 0.6614173228346457,
          "duration": 0.3828125
        },
        {
          "name": "D4",
          "midi": 62,
          "time": 462,
          "velocity": 0.6614173228346457,
          "duration": 0.3828125
        },
        {
          "name": "G1",
          "midi": 31,
          "time": 462.75,
          "velocity": 0.7716535433070866,
          "duration": 0.7578125
        },
        {
          "name": "D2",
          "midi": 38,
          "time": 462.75,
          "velocity": 0.7716535433070866,
          "duration": 0.7578125
        },
        {
          "name": "G2",
          "midi": 43,
          "time": 462.75,
          "velocity": 0.7716535433070866,
          "duration": 0.7578125
        },
        {
          "name": "G3",
          "midi": 55,
          "time": 463.5,
          "velocity": 0.6614173228346457,
          "duration": 0.3828125
        },
        {
          "name": "A#3",
          "midi": 58,
          "time": 463.5,
          "velocity": 0.6614173228346457,
          "duration": 0.3828125
        },
        {
          "name": "D4",
          "midi": 62,
          "time": 463.5,
          "velocity": 0.6614173228346457,
          "duration": 0.3828125
        },
        {
          "name": "G4",
          "midi": 67,
          "time": 463.5,
          "velocity": 0.6614173228346457,
          "duration": 0.3828125
        },
        {
          "name": "G3",
          "midi": 55,
          "time": 464.25,
          "velocity": 0.6614173228346457,
          "duration": 0.3828125
        },
        {
          "name": "A#3",
          "midi": 58,
          "time": 464.25,
          "velocity": 0.6614173228346457,
          "duration": 0.3828125
        },
        {
          "name": "D4",
          "midi": 62,
          "time": 464.25,
          "velocity": 0.6614173228346457,
          "duration": 0.3828125
        },
        {
          "name": "F4",
          "midi": 65,
          "time": 464.25,
          "velocity": 0.6614173228346457,
          "duration": 0.3828125
        },
        {
          "name": "G2",
          "midi": 43,
          "time": 465,
          "velocity": 0.7716535433070866,
          "duration": 0.7578125
        },
        {
          "name": "D2",
          "midi": 38,
          "time": 465,
          "velocity": 0.7716535433070866,
          "duration": 0.7578125
        },
        {
          "name": "G1",
          "midi": 31,
          "time": 465,
          "velocity": 0.7716535433070866,
          "duration": 0.7578125
        },
        {
          "name": "G3",
          "midi": 55,
          "time": 466.125,
          "velocity": 0.6614173228346457,
          "duration": 0.7578125
        },
        {
          "name": "A#3",
          "midi": 58,
          "time": 466.125,
          "velocity": 0.6614173228346457,
          "duration": 0.7578125
        },
        {
          "name": "D4",
          "midi": 62,
          "time": 466.125,
          "velocity": 0.6614173228346457,
          "duration": 0.7578125
        },
        {
          "name": "F4",
          "midi": 65,
          "time": 466.125,
          "velocity": 0.6614173228346457,
          "duration": 0.7578125
        },
        {
          "name": "C2",
          "midi": 36,
          "time": 467.25,
          "velocity": 0.7716535433070866,
          "duration": 0.7578125
        },
        {
          "name": "C1",
          "midi": 24,
          "time": 467.25,
          "velocity": 0.7716535433070866,
          "duration": 0.7578125
        },
        {
          "name": "G1",
          "midi": 31,
          "time": 467.25,
          "velocity": 0.7716535433070866,
          "duration": 0.7578125
        },
        {
          "name": "G3",
          "midi": 55,
          "time": 468.375,
          "velocity": 0.6614173228346457,
          "duration": 0.7578125
        },
        {
          "name": "A#3",
          "midi": 58,
          "time": 468.375,
          "velocity": 0.6614173228346457,
          "duration": 0.7578125
        },
        {
          "name": "D#4",
          "midi": 63,
          "time": 468.375,
          "velocity": 0.6614173228346457,
          "duration": 0.7578125
        },
        {
          "name": "C4",
          "midi": 60,
          "time": 468.375,
          "velocity": 0.6614173228346457,
          "duration": 0.7578125
        },
        {
          "name": "F2",
          "midi": 41,
          "time": 469.5,
          "velocity": 0.7716535433070866,
          "duration": 0.7578125
        },
        {
          "name": "F1",
          "midi": 29,
          "time": 469.5,
          "velocity": 0.7716535433070866,
          "duration": 0.7578125
        },
        {
          "name": "C2",
          "midi": 36,
          "time": 469.5,
          "velocity": 0.7716535433070866,
          "duration": 0.7578125
        },
        {
          "name": "C4",
          "midi": 60,
          "time": 470.625,
          "velocity": 0.6614173228346457,
          "duration": 0.7578125
        },
        {
          "name": "A3",
          "midi": 57,
          "time": 470.625,
          "velocity": 0.6614173228346457,
          "duration": 0.7578125
        },
        {
          "name": "F4",
          "midi": 65,
          "time": 470.625,
          "velocity": 0.6614173228346457,
          "duration": 0.7578125
        },
        {
          "name": "F3",
          "midi": 53,
          "time": 471,
          "velocity": 0.6771653543307087,
          "duration": 0.7578125
        },
        {
          "name": "A#2",
          "midi": 46,
          "time": 471.75,
          "velocity": 0.6771653543307087,
          "duration": 0.3828125
        },
        {
          "name": "F3",
          "midi": 53,
          "time": 472.125,
          "velocity": 0.6456692913385826,
          "duration": 0.3828125
        },
        {
          "name": "A#3",
          "midi": 58,
          "time": 472.5,
          "velocity": 0.6456692913385826,
          "duration": 0.3828125
        },
        {
          "name": "D4",
          "midi": 62,
          "time": 472.875,
          "velocity": 0.6456692913385826,
          "duration": 0.3828125
        },
        {
          "name": "A#3",
          "midi": 58,
          "time": 473.25,
          "velocity": 0.6456692913385826,
          "duration": 0.3828125
        },
        {
          "name": "F3",
          "midi": 53,
          "time": 473.625,
          "velocity": 0.6456692913385826,
          "duration": 0.3828125
        },
        {
          "name": "A#3",
          "midi": 58,
          "time": 474,
          "velocity": 0.6456692913385826,
          "duration": 1.0859375
        },
        {
          "name": "D4",
          "midi": 62,
          "time": 474,
          "velocity": 0.6456692913385826,
          "duration": 1.0859375
        },
        {
          "name": "F4",
          "midi": 65,
          "time": 474,
          "velocity": 0.6456692913385826,
          "duration": 1.0859375
        },
        {
          "name": "F3",
          "midi": 53,
          "time": 475.125,
          "velocity": 0.6456692913385826,
          "duration": 1.1328125
        },
        {
          "name": "A#3",
          "midi": 58,
          "time": 475.125,
          "velocity": 0.6456692913385826,
          "duration": 1.1328125
        },
        {
          "name": "D4",
          "midi": 62,
          "time": 475.125,
          "velocity": 0.6456692913385826,
          "duration": 1.1328125
        },
        {
          "name": "F4",
          "midi": 65,
          "time": 475.125,
          "velocity": 0.6456692913385826,
          "duration": 1.1328125
        },
        {
          "name": "E1",
          "midi": 28,
          "time": 476.25,
          "velocity": 0.7559055118110236,
          "duration": 1.1328125
        },
        {
          "name": "G1",
          "midi": 31,
          "time": 476.25,
          "velocity": 0.7559055118110236,
          "duration": 1.1328125
        },
        {
          "name": "E2",
          "midi": 40,
          "time": 476.25,
          "velocity": 0.7559055118110236,
          "duration": 1.1328125
        },
        {
          "name": "F4",
          "midi": 65,
          "time": 477,
          "velocity": 0.6456692913385826,
          "duration": 1.1328125
        },
        {
          "name": "D4",
          "midi": 62,
          "time": 477,
          "velocity": 0.6456692913385826,
          "duration": 1.1328125
        },
        {
          "name": "A#3",
          "midi": 58,
          "time": 477,
          "velocity": 0.6456692913385826,
          "duration": 1.1328125
        },
        {
          "name": "F3",
          "midi": 53,
          "time": 477,
          "velocity": 0.6456692913385826,
          "duration": 1.1328125
        },
        {
          "name": "A1",
          "midi": 33,
          "time": 478.5,
          "velocity": 0.7716535433070866,
          "duration": 1.1328125
        },
        {
          "name": "A2",
          "midi": 45,
          "time": 478.5,
          "velocity": 0.7716535433070866,
          "duration": 1.1328125
        },
        {
          "name": "E3",
          "midi": 52,
          "time": 479.625,
          "velocity": 0.6929133858267716,
          "duration": 1.1328125
        },
        {
          "name": "A3",
          "midi": 57,
          "time": 479.625,
          "velocity": 0.6929133858267716,
          "duration": 1.1328125
        },
        {
          "name": "C#4",
          "midi": 61,
          "time": 479.625,
          "velocity": 0.6929133858267716,
          "duration": 1.1328125
        },
        {
          "name": "E4",
          "midi": 64,
          "time": 479.625,
          "velocity": 0.6929133858267716,
          "duration": 1.1328125
        },
        {
          "name": "D1",
          "midi": 26,
          "time": 480.75,
          "velocity": 0.7874015748031497,
          "duration": 1.1328125
        },
        {
          "name": "D2",
          "midi": 38,
          "time": 480.75,
          "velocity": 0.7874015748031497,
          "duration": 1.1328125
        },
        {
          "name": "F3",
          "midi": 53,
          "time": 481.875,
          "velocity": 0.6771653543307087,
          "duration": 0.6640625
        },
        {
          "name": "A3",
          "midi": 57,
          "time": 481.875,
          "velocity": 0.6771653543307087,
          "duration": 0.6640625
        },
        {
          "name": "C4",
          "midi": 60,
          "time": 481.875,
          "velocity": 0.6771653543307087,
          "duration": 0.6640625
        },
        {
          "name": "D4",
          "midi": 62,
          "time": 481.875,
          "velocity": 0.6771653543307087,
          "duration": 0.6640625
        },
        {
          "name": "C2",
          "midi": 36,
          "time": 483,
          "velocity": 0.84251968503937,
          "duration": 2.2109375
        },
        {
          "name": "A#1",
          "midi": 34,
          "time": 485.25,
          "velocity": 0.6771653543307087,
          "duration": 0.7109375
        },
        {
          "name": "A#2",
          "midi": 46,
          "time": 486,
          "velocity": 0.6771653543307087,
          "duration": 0.7109375
        },
        {
          "name": "A#1",
          "midi": 34,
          "time": 486,
          "velocity": 0.7952755905511811,
          "duration": 0.7109375
        },
        {
          "name": "F2",
          "midi": 41,
          "time": 486,
          "velocity": 0.6771653543307087,
          "duration": 0.7109375
        },
        {
          "name": "A#2",
          "midi": 46,
          "time": 486.75,
          "velocity": 0.6771653543307087,
          "duration": 0.7578125
        },
        {
          "name": "F2",
          "midi": 41,
          "time": 486.75,
          "velocity": 0.6771653543307087,
          "duration": 0.7578125
        },
        {
          "name": "A#1",
          "midi": 34,
          "time": 486.75,
          "velocity": 0.8740157480314961,
          "duration": 0.7578125
        },
        {
          "name": "A1",
          "midi": 33,
          "time": 487.5,
          "velocity": 0.6771653543307087,
          "duration": 0.7109375
        },
        {
          "name": "A2",
          "midi": 45,
          "time": 488.25,
          "velocity": 0.6771653543307087,
          "duration": 0.7109375
        },
        {
          "name": "A1",
          "midi": 33,
          "time": 488.25,
          "velocity": 0.8188976377952756,
          "duration": 0.7109375
        },
        {
          "name": "A2",
          "midi": 45,
          "time": 489,
          "velocity": 0.6771653543307087,
          "duration": 0.7109375
        },
        {
          "name": "A1",
          "midi": 33,
          "time": 489,
          "velocity": 0.8740157480314961,
          "duration": 0.7109375
        },
        {
          "name": "D2",
          "midi": 38,
          "time": 489.75,
          "velocity": 0.8267716535433071,
          "duration": 0.7109375
        },
        {
          "name": "G2",
          "midi": 43,
          "time": 489.75,
          "velocity": 0.8267716535433071,
          "duration": 0.7578125
        },
        {
          "name": "A2",
          "midi": 45,
          "time": 489.75,
          "velocity": 0.8267716535433071,
          "duration": 0.7109375
        },
        {
          "name": "A2",
          "midi": 45,
          "time": 490.5,
          "velocity": 0.6771653543307087,
          "duration": 0.7109375
        },
        {
          "name": "F#2",
          "midi": 42,
          "time": 490.5,
          "velocity": 0.6771653543307087,
          "duration": 0.7578125
        },
        {
          "name": "D2",
          "midi": 38,
          "time": 490.5,
          "velocity": 0.6771653543307087,
          "duration": 0.7109375
        },
        {
          "name": "D1",
          "midi": 26,
          "time": 491.25,
          "velocity": 0.7244094488188977,
          "duration": 0.7578125
        },
        {
          "name": "F#1",
          "midi": 30,
          "time": 491.25,
          "velocity": 0.7244094488188977,
          "duration": 0.7578125
        },
        {
          "name": "A1",
          "midi": 33,
          "time": 491.25,
          "velocity": 0.7244094488188977,
          "duration": 0.7578125
        },
        {
          "name": "D2",
          "midi": 38,
          "time": 491.25,
          "velocity": 0.7244094488188977,
          "duration": 0.7578125
        },
        {
          "name": "D4",
          "midi": 62,
          "time": 492,
          "velocity": 0.8267716535433071,
          "duration": 2.2109375
        },
        {
          "name": "A3",
          "midi": 57,
          "time": 492,
          "velocity": 0.8267716535433071,
          "duration": 2.2109375
        },
        {
          "name": "F#3",
          "midi": 54,
          "time": 492,
          "velocity": 0.8267716535433071,
          "duration": 2.2109375
        },
        {
          "name": "D3",
          "midi": 50,
          "time": 492,
          "velocity": 0.8267716535433071,
          "duration": 2.2109375
        },
        {
          "name": "C2",
          "midi": 36,
          "time": 494.25,
          "velocity": 0.7716535433070866,
          "duration": 0.75
        },
        {
          "name": "G2",
          "midi": 43,
          "time": 494.25,
          "velocity": 0.7716535433070866,
          "duration": 0.75
        },
        {
          "name": "D#4",
          "midi": 63,
          "time": 495,
          "velocity": 0.6614173228346457,
          "duration": 1.5
        },
        {
          "name": "C4",
          "midi": 60,
          "time": 495,
          "velocity": 0.6614173228346457,
          "duration": 1.5
        },
        {
          "name": "A#3",
          "midi": 58,
          "time": 495,
          "velocity": 0.6614173228346457,
          "duration": 1.5
        },
        {
          "name": "G3",
          "midi": 55,
          "time": 495,
          "velocity": 0.6614173228346457,
          "duration": 1.5
        },
        {
          "name": "C2",
          "midi": 36,
          "time": 495.75,
          "velocity": 0.7716535433070866,
          "duration": 0.75
        },
        {
          "name": "D2",
          "midi": 38,
          "time": 496.5,
          "velocity": 0.7716535433070866,
          "duration": 0.75
        },
        {
          "name": "D3",
          "midi": 50,
          "time": 497.25,
          "velocity": 0.6614173228346457,
          "duration": 0.75
        },
        {
          "name": "F#3",
          "midi": 54,
          "time": 498,
          "velocity": 0.6614173228346457,
          "duration": 0.328125
        },
        {
          "name": "A3",
          "midi": 57,
          "time": 498.0078125,
          "velocity": 0.6614173228346457,
          "duration": 0.34375
        },
        {
          "name": "D4",
          "midi": 62,
          "time": 498.015625,
          "velocity": 0.6614173228346457,
          "duration": 0.3359375
        },
        {
          "name": "G2",
          "midi": 43,
          "time": 498.75,
          "velocity": 0.7716535433070866,
          "duration": 0.75
        },
        {
          "name": "G4",
          "midi": 67,
          "time": 499.5,
          "velocity": 0.6614173228346457,
          "duration": 0.25
        },
        {
          "name": "D4",
          "midi": 62,
          "time": 499.5,
          "velocity": 0.6614173228346457,
          "duration": 0.25
        },
        {
          "name": "A#3",
          "midi": 58,
          "time": 499.5,
          "velocity": 0.6614173228346457,
          "duration": 0.25
        },
        {
          "name": "F4",
          "midi": 65,
          "time": 499.75,
          "velocity": 0.6614173228346457,
          "duration": 0.25
        },
        {
          "name": "D4",
          "midi": 62,
          "time": 500,
          "velocity": 0.6614173228346457,
          "duration": 0.25
        },
        {
          "name": "A#3",
          "midi": 58,
          "time": 500.25,
          "velocity": 0.6614173228346457,
          "duration": 0.75
        },
        {
          "name": "D#4",
          "midi": 63,
          "time": 501,
          "velocity": 0.6614173228346457,
          "duration": 1.125
        },
        {
          "name": "C4",
          "midi": 60,
          "time": 501,
          "velocity": 0.6614173228346457,
          "duration": 1.125
        },
        {
          "name": "G#3",
          "midi": 56,
          "time": 501,
          "velocity": 0.6614173228346457,
          "duration": 1.125
        },
        {
          "name": "F3",
          "midi": 53,
          "time": 501,
          "velocity": 0.6614173228346457,
          "duration": 1.125
        },
        {
          "name": "F3",
          "midi": 53,
          "time": 502.125,
          "velocity": 0.6614173228346457,
          "duration": 1.125
        },
        {
          "name": "A#3",
          "midi": 58,
          "time": 502.125,
          "velocity": 0.6614173228346457,
          "duration": 1.125
        },
        {
          "name": "D4",
          "midi": 62,
          "time": 502.125,
          "velocity": 0.6614173228346457,
          "duration": 1.125
        },
        {
          "name": "G#3",
          "midi": 56,
          "time": 502.125,
          "velocity": 0.6614173228346457,
          "duration": 1.125
        },
        {
          "name": "C1",
          "midi": 24,
          "time": 503.25,
          "velocity": 0.7559055118110236,
          "duration": 0.75
        },
        {
          "name": "C2",
          "midi": 36,
          "time": 503.25,
          "velocity": 0.7559055118110236,
          "duration": 0.75
        },
        {
          "name": "D#4",
          "midi": 63,
          "time": 504.75,
          "velocity": 0.6456692913385826,
          "duration": 0.75
        },
        {
          "name": "A#3",
          "midi": 58,
          "time": 504.75,
          "velocity": 0.6456692913385826,
          "duration": 0.75
        },
        {
          "name": "C4",
          "midi": 60,
          "time": 504.75,
          "velocity": 0.6456692913385826,
          "duration": 0.75
        },
        {
          "name": "F2",
          "midi": 41,
          "time": 505.5,
          "velocity": 0.7716535433070866,
          "duration": 0.75
        },
        {
          "name": "F3",
          "midi": 53,
          "time": 507,
          "velocity": 0.6299212598425197,
          "duration": 0.75
        },
        {
          "name": "A3",
          "midi": 57,
          "time": 507,
          "velocity": 0.6299212598425197,
          "duration": 0.75
        },
        {
          "name": "C4",
          "midi": 60,
          "time": 507,
          "velocity": 0.6299212598425197,
          "duration": 0.75
        },
        {
          "name": "F4",
          "midi": 65,
          "time": 507,
          "velocity": 0.6299212598425197,
          "duration": 0.75
        },
        {
          "name": "A#2",
          "midi": 46,
          "time": 507.75,
          "velocity": 0.7401574803149606,
          "duration": 0.75
        },
        {
          "name": "C4",
          "midi": 60,
          "time": 508.5,
          "velocity": 0.6299212598425197,
          "duration": 0.75
        },
        {
          "name": "A#3",
          "midi": 58,
          "time": 509.25,
          "velocity": 0.6299212598425197,
          "duration": 0.421875
        },
        {
          "name": "A#2",
          "midi": 46,
          "time": 510,
          "velocity": 0.7716535433070866,
          "duration": 0.75
        },
        {
          "name": "F3",
          "midi": 53,
          "time": 510.75,
          "velocity": 0.6614173228346457,
          "duration": 0.75
        },
        {
          "name": "C4",
          "midi": 60,
          "time": 510.75,
          "velocity": 0.6614173228346457,
          "duration": 0.75
        },
        {
          "name": "A#3",
          "midi": 58,
          "time": 511.5,
          "velocity": 0.6614173228346457,
          "duration": 0.75
        },
        {
          "name": "E3",
          "midi": 52,
          "time": 512.25,
          "velocity": 0.7716535433070866,
          "duration": 1.5
        },
        {
          "name": "E2",
          "midi": 40,
          "time": 512.25,
          "velocity": 0.7716535433070866,
          "duration": 1.5
        },
        {
          "name": "E4",
          "midi": 64,
          "time": 513.75,
          "velocity": 0.6299212598425197,
          "duration": 0.75
        },
        {
          "name": "A#3",
          "midi": 58,
          "time": 513.75,
          "velocity": 0.6299212598425197,
          "duration": 0.75
        },
        {
          "name": "G3",
          "midi": 55,
          "time": 513.75,
          "velocity": 0.6299212598425197,
          "duration": 0.75
        },
        {
          "name": "A1",
          "midi": 33,
          "time": 514.5,
          "velocity": 0.9212598425196851,
          "duration": 0.75
        },
        {
          "name": "A2",
          "midi": 45,
          "time": 514.5,
          "velocity": 0.9212598425196851,
          "duration": 0.75
        },
        {
          "name": "E4",
          "midi": 64,
          "time": 515.234375,
          "velocity": 0.6299212598425197,
          "duration": 0.3984375
        },
        {
          "name": "G3",
          "midi": 55,
          "time": 515.2578125,
          "velocity": 0.6299212598425197,
          "duration": 0.3984375
        },
        {
          "name": "A3",
          "midi": 57,
          "time": 515.2578125,
          "velocity": 0.6299212598425197,
          "duration": 0.3828125
        },
        {
          "name": "C#4",
          "midi": 61,
          "time": 515.2578125,
          "velocity": 0.6299212598425197,
          "duration": 0.375
        },
        {
          "name": "D2",
          "midi": 38,
          "time": 516.75,
          "velocity": 0.7716535433070866,
          "duration": 1.125
        },
        {
          "name": "A1",
          "midi": 33,
          "time": 516.75,
          "velocity": 0.7716535433070866,
          "duration": 1.125
        },
        {
          "name": "D1",
          "midi": 26,
          "time": 516.75,
          "velocity": 0.7716535433070866,
          "duration": 1.125
        },
        {
          "name": "D4",
          "midi": 62,
          "time": 517.875,
          "velocity": 0.6614173228346457,
          "duration": 1.125
        },
        {
          "name": "A3",
          "midi": 57,
          "time": 517.875,
          "velocity": 0.6614173228346457,
          "duration": 1.125
        },
        {
          "name": "F3",
          "midi": 53,
          "time": 517.875,
          "velocity": 0.6614173228346457,
          "duration": 1.125
        },
        {
          "name": "C1",
          "midi": 24,
          "time": 519,
          "velocity": 0.905511811023622,
          "duration": 0.75
        },
        {
          "name": "G1",
          "midi": 31,
          "time": 519,
          "velocity": 0.905511811023622,
          "duration": 0.75
        },
        {
          "name": "C2",
          "midi": 36,
          "time": 519,
          "velocity": 0.905511811023622,
          "duration": 0.75
        },
        {
          "name": "A#3",
          "midi": 58,
          "time": 519.75,
          "velocity": 0.6456692913385826,
          "duration": 1.5
        },
        {
          "name": "C4",
          "midi": 60,
          "time": 519.75,
          "velocity": 0.6456692913385826,
          "duration": 1.5
        },
        {
          "name": "E4",
          "midi": 64,
          "time": 519.75,
          "velocity": 0.6456692913385826,
          "duration": 1.5
        },
        {
          "name": "A#1",
          "midi": 34,
          "time": 521.25,
          "velocity": 0.7559055118110236,
          "duration": 0.75
        },
        {
          "name": "F1",
          "midi": 29,
          "time": 521.25,
          "velocity": 0.7559055118110236,
          "duration": 0.75
        },
        {
          "name": "A#0",
          "midi": 22,
          "time": 521.25,
          "velocity": 0.7559055118110236,
          "duration": 0.75
        },
        {
          "name": "F3",
          "midi": 53,
          "time": 522,
          "velocity": 0.6456692913385826,
          "duration": 0.75
        },
        {
          "name": "A#3",
          "midi": 58,
          "time": 522,
          "velocity": 0.6456692913385826,
          "duration": 0.75
        },
        {
          "name": "D4",
          "midi": 62,
          "time": 522,
          "velocity": 0.6456692913385826,
          "duration": 0.75
        },
        {
          "name": "F3",
          "midi": 53,
          "time": 522.75,
          "velocity": 0.6456692913385826,
          "duration": 0.75
        },
        {
          "name": "A#3",
          "midi": 58,
          "time": 522.75,
          "velocity": 0.6456692913385826,
          "duration": 0.75
        },
        {
          "name": "D4",
          "midi": 62,
          "time": 522.75,
          "velocity": 0.6456692913385826,
          "duration": 0.75
        },
        {
          "name": "A0",
          "midi": 21,
          "time": 523.5,
          "velocity": 0.7559055118110236,
          "duration": 0.75
        },
        {
          "name": "A1",
          "midi": 33,
          "time": 523.5,
          "velocity": 0.7559055118110236,
          "duration": 0.75
        },
        {
          "name": "E4",
          "midi": 64,
          "time": 524.25,
          "velocity": 0.6456692913385826,
          "duration": 0.75
        },
        {
          "name": "C#4",
          "midi": 61,
          "time": 524.25,
          "velocity": 0.6456692913385826,
          "duration": 0.75
        },
        {
          "name": "A3",
          "midi": 57,
          "time": 524.25,
          "velocity": 0.6456692913385826,
          "duration": 0.75
        },
        {
          "name": "G3",
          "midi": 55,
          "time": 524.25,
          "velocity": 0.6456692913385826,
          "duration": 0.75
        },
        {
          "name": "E4",
          "midi": 64,
          "time": 525,
          "velocity": 0.6456692913385826,
          "duration": 0.75
        },
        {
          "name": "C#4",
          "midi": 61,
          "time": 525,
          "velocity": 0.6456692913385826,
          "duration": 0.75
        },
        {
          "name": "A3",
          "midi": 57,
          "time": 525,
          "velocity": 0.6456692913385826,
          "duration": 0.75
        },
        {
          "name": "G3",
          "midi": 55,
          "time": 525,
          "velocity": 0.6456692913385826,
          "duration": 0.75
        },
        {
          "name": "D2",
          "midi": 38,
          "time": 525.75,
          "velocity": 0.937007874015748,
          "duration": 0.75
        },
        {
          "name": "D1",
          "midi": 26,
          "time": 525.75,
          "velocity": 0.937007874015748,
          "duration": 0.75
        },
        {
          "name": "D5",
          "midi": 74,
          "time": 526.546875,
          "velocity": 0.6535433070866141,
          "duration": 0.1875
        },
        {
          "name": "D4",
          "midi": 62,
          "time": 526.546875,
          "velocity": 0.6535433070866141,
          "duration": 0.1875
        },
        {
          "name": "C#5",
          "midi": 73,
          "time": 526.703125,
          "velocity": 0.6614173228346457,
          "duration": 0.1875
        },
        {
          "name": "C#4",
          "midi": 61,
          "time": 526.703125,
          "velocity": 0.6614173228346457,
          "duration": 0.1875
        },
        {
          "name": "C5",
          "midi": 72,
          "time": 526.96875,
          "velocity": 0.6692913385826772,
          "duration": 0.1875
        },
        {
          "name": "C4",
          "midi": 60,
          "time": 526.96875,
          "velocity": 0.6692913385826772,
          "duration": 0.1875
        },
        {
          "name": "A#4",
          "midi": 70,
          "time": 527.21875,
          "velocity": 0.6771653543307087,
          "duration": 0.1875
        },
        {
          "name": "A#3",
          "midi": 58,
          "time": 527.21875,
          "velocity": 0.6771653543307087,
          "duration": 0.1875
        },
        {
          "name": "A4",
          "midi": 69,
          "time": 527.484375,
          "velocity": 0.6850393700787402,
          "duration": 0.1875
        },
        {
          "name": "A3",
          "midi": 57,
          "time": 527.484375,
          "velocity": 0.6850393700787402,
          "duration": 0.1875
        },
        {
          "name": "G4",
          "midi": 67,
          "time": 527.921875,
          "velocity": 0.7007874015748031,
          "duration": 0.15625
        },
        {
          "name": "G3",
          "midi": 55,
          "time": 527.921875,
          "velocity": 0.7007874015748031,
          "duration": 0.15625
        },
        {
          "name": "F#4",
          "midi": 66,
          "time": 528.2265625,
          "velocity": 0.7165354330708661,
          "duration": 0.15625
        },
        {
          "name": "F#3",
          "midi": 54,
          "time": 528.2265625,
          "velocity": 0.7165354330708661,
          "duration": 0.15625
        },
        {
          "name": "D#4",
          "midi": 63,
          "time": 528.53125,
          "velocity": 0.7244094488188977,
          "duration": 0.15625
        },
        {
          "name": "D#3",
          "midi": 51,
          "time": 528.53125,
          "velocity": 0.7244094488188977,
          "duration": 0.15625
        },
        {
          "name": "D3",
          "midi": 50,
          "time": 528.84375,
          "velocity": 0.7401574803149606,
          "duration": 0.1484375
        },
        {
          "name": "D4",
          "midi": 62,
          "time": 528.84375,
          "velocity": 0.7401574803149606,
          "duration": 0.1484375
        },
        {
          "name": "C3",
          "midi": 48,
          "time": 529.1484375,
          "velocity": 0.7480314960629921,
          "duration": 0.1484375
        },
        {
          "name": "C4",
          "midi": 60,
          "time": 529.1484375,
          "velocity": 0.7480314960629921,
          "duration": 0.1484375
        },
        {
          "name": "A#2",
          "midi": 46,
          "time": 529.453125,
          "velocity": 0.7637795275590551,
          "duration": 0.15625
        },
        {
          "name": "A#3",
          "midi": 58,
          "time": 529.453125,
          "velocity": 0.7637795275590551,
          "duration": 0.15625
        },
        {
          "name": "A2",
          "midi": 45,
          "time": 529.7578125,
          "velocity": 0.7716535433070866,
          "duration": 0.15625
        },
        {
          "name": "A3",
          "midi": 57,
          "time": 529.7578125,
          "velocity": 0.7716535433070866,
          "duration": 0.15625
        },
        {
          "name": "G3",
          "midi": 55,
          "time": 530.0703125,
          "velocity": 0.7874015748031497,
          "duration": 0.1484375
        },
        {
          "name": "G2",
          "midi": 43,
          "time": 530.0703125,
          "velocity": 0.7874015748031497,
          "duration": 0.1484375
        },
        {
          "name": "F#3",
          "midi": 54,
          "time": 530.375,
          "velocity": 0.7952755905511811,
          "duration": 0.1484375
        },
        {
          "name": "F#2",
          "midi": 42,
          "time": 530.375,
          "velocity": 0.7952755905511811,
          "duration": 0.1484375
        },
        {
          "name": "D#3",
          "midi": 51,
          "time": 530.6796875,
          "velocity": 0.8110236220472441,
          "duration": 0.15625
        },
        {
          "name": "D#2",
          "midi": 39,
          "time": 530.6796875,
          "velocity": 0.8110236220472441,
          "duration": 0.15625
        },
        {
          "name": "D3",
          "midi": 50,
          "time": 530.984375,
          "velocity": 0.8188976377952756,
          "duration": 0.15625
        },
        {
          "name": "D2",
          "midi": 38,
          "time": 530.984375,
          "velocity": 0.8188976377952756,
          "duration": 0.15625
        },
        {
          "name": "C3",
          "midi": 48,
          "time": 531.2890625,
          "velocity": 0.8346456692913385,
          "duration": 0.15625
        },
        {
          "name": "C2",
          "midi": 36,
          "time": 531.2890625,
          "velocity": 0.8346456692913385,
          "duration": 0.15625
        },
        {
          "name": "A#1",
          "midi": 34,
          "time": 531.6015625,
          "velocity": 0.84251968503937,
          "duration": 0.1484375
        },
        {
          "name": "A#2",
          "midi": 46,
          "time": 531.6015625,
          "velocity": 0.84251968503937,
          "duration": 0.1484375
        },
        {
          "name": "A2",
          "midi": 45,
          "time": 531.90625,
          "velocity": 0.8582677165354331,
          "duration": 0.1484375
        },
        {
          "name": "A1",
          "midi": 33,
          "time": 531.90625,
          "velocity": 0.8582677165354331,
          "duration": 0.1484375
        },
        {
          "name": "G2",
          "midi": 43,
          "time": 532.2109375,
          "velocity": 0.8661417322834646,
          "duration": 0.15625
        },
        {
          "name": "G1",
          "midi": 31,
          "time": 532.2109375,
          "velocity": 0.8661417322834646,
          "duration": 0.15625
        },
        {
          "name": "F#2",
          "midi": 42,
          "time": 532.515625,
          "velocity": 0.8818897637795275,
          "duration": 0.15625
        },
        {
          "name": "F#1",
          "midi": 30,
          "time": 532.515625,
          "velocity": 0.8818897637795275,
          "duration": 0.15625
        },
        {
          "name": "D#1",
          "midi": 27,
          "time": 532.8671875,
          "velocity": 0.984251968503937,
          "duration": 1.890625
        },
        {
          "name": "C2",
          "midi": 36,
          "time": 534.75,
          "velocity": 0.9448818897637795,
          "duration": 1.3828125
        },
        {
          "name": "A1",
          "midi": 33,
          "time": 534.75,
          "velocity": 0.9448818897637795,
          "duration": 1.3828125
        },
        {
          "name": "F#1",
          "midi": 30,
          "time": 534.75,
          "velocity": 0.9448818897637795,
          "duration": 1.3828125
        },
        {
          "name": "D1",
          "midi": 26,
          "time": 534.75,
          "velocity": 0.9448818897637795,
          "duration": 1.3828125
        },
        {
          "name": "C2",
          "midi": 36,
          "time": 536.1328125,
          "velocity": 0.968503937007874,
          "duration": 1.5546875
        },
        {
          "name": "A1",
          "midi": 33,
          "time": 536.1328125,
          "velocity": 0.968503937007874,
          "duration": 1.5546875
        },
        {
          "name": "F#1",
          "midi": 30,
          "time": 536.1328125,
          "velocity": 0.968503937007874,
          "duration": 1.5546875
        },
        {
          "name": "D1",
          "midi": 26,
          "time": 536.1328125,
          "velocity": 0.968503937007874,
          "duration": 1.5546875
        },
        {
          "name": "C2",
          "midi": 36,
          "time": 537.6875,
          "velocity": 0.9921259842519685,
          "duration": 1.5703125
        },
        {
          "name": "A1",
          "midi": 33,
          "time": 537.6875,
          "velocity": 0.9921259842519685,
          "duration": 1.5703125
        },
        {
          "name": "F#1",
          "midi": 30,
          "time": 537.6875,
          "velocity": 0.9921259842519685,
          "duration": 1.5703125
        },
        {
          "name": "D1",
          "midi": 26,
          "time": 537.6875,
          "velocity": 0.9921259842519685,
          "duration": 1.5703125
        },
        {
          "name": "E3",
          "midi": 52,
          "time": 539.25,
          "velocity": 0.7795275590551181,
          "duration": 1.125
        },
        {
          "name": "E4",
          "midi": 64,
          "time": 539.25,
          "velocity": 0.7795275590551181,
          "duration": 1.125
        },
        {
          "name": "D4",
          "midi": 62,
          "time": 540.375,
          "velocity": 0.7480314960629921,
          "duration": 1.3125
        },
        {
          "name": "D3",
          "midi": 50,
          "time": 540.375,
          "velocity": 0.7480314960629921,
          "duration": 1.3125
        },
        {
          "name": "C#4",
          "midi": 61,
          "time": 541.6875,
          "velocity": 0.7165354330708661,
          "duration": 1.875
        },
        {
          "name": "C#3",
          "midi": 49,
          "time": 541.6875,
          "velocity": 0.7165354330708661,
          "duration": 1.875
        },
        {
          "name": "D4",
          "midi": 62,
          "time": 543.5625,
          "velocity": 0.5354330708661418,
          "duration": 1.875
        },
        {
          "name": "D3",
          "midi": 50,
          "time": 543.5625,
          "velocity": 0.5354330708661418,
          "duration": 1.875
        },
        {
          "name": "E3",
          "midi": 52,
          "time": 545.4375,
          "velocity": 1,
          "duration": 0.75
        },
        {
          "name": "A#3",
          "midi": 58,
          "time": 546.1875,
          "velocity": 0.4409448818897638,
          "duration": 0.375
        },
        {
          "name": "E4",
          "midi": 64,
          "time": 546.5625,
          "velocity": 0.4881889763779528,
          "duration": 0.2265625
        },
        {
          "name": "G4",
          "midi": 67,
          "time": 546.7890625,
          "velocity": 0.5118110236220472,
          "duration": 0.234375
        },
        {
          "name": "A#4",
          "midi": 70,
          "time": 547.0234375,
          "velocity": 0.5433070866141733,
          "duration": 0.2265625
        },
        {
          "name": "E5",
          "midi": 76,
          "time": 547.875,
          "velocity": 0.6456692913385826,
          "duration": 0.1328125
        },
        {
          "name": "G5",
          "midi": 79,
          "time": 548.015625,
          "velocity": 0.6692913385826772,
          "duration": 0.140625
        },
        {
          "name": "A#5",
          "midi": 82,
          "time": 548.15625,
          "velocity": 0.6850393700787402,
          "duration": 0.140625
        },
        {
          "name": "A2",
          "midi": 45,
          "time": 555,
          "velocity": 0.8346456692913385,
          "duration": 0.734375
        },
        {
          "name": "C#3",
          "midi": 49,
          "time": 555.75,
          "velocity": 0.3464566929133858,
          "duration": 0.359375
        },
        {
          "name": "E3",
          "midi": 52,
          "time": 556.125,
          "velocity": 0.3858267716535433,
          "duration": 0.2265625
        },
        {
          "name": "G3",
          "midi": 55,
          "time": 556.359375,
          "velocity": 0.4094488188976378,
          "duration": 0.2265625
        },
        {
          "name": "A#3",
          "midi": 58,
          "time": 556.6015625,
          "velocity": 0.4330708661417323,
          "duration": 0.2265625
        },
        {
          "name": "C#4",
          "midi": 61,
          "time": 556.8359375,
          "velocity": 0.4645669291338583,
          "duration": 0.2265625
        },
        {
          "name": "A#4",
          "midi": 70,
          "time": 557.71875,
          "velocity": 0.5511811023622047,
          "duration": 0.171875
        },
        {
          "name": "C#5",
          "midi": 73,
          "time": 557.875,
          "velocity": 0.5669291338582677,
          "duration": 0.171875
        },
        {
          "name": "E5",
          "midi": 76,
          "time": 558.046875,
          "velocity": 0.5905511811023622,
          "duration": 0.171875
        },
        {
          "name": "A2",
          "midi": 45,
          "time": 563.625,
          "velocity": 0.8818897637795275,
          "duration": 0.9375
        },
        {
          "name": "A1",
          "midi": 33,
          "time": 563.625,
          "velocity": 0.8818897637795275,
          "duration": 0.9375
        },
        {
          "name": "F#1",
          "midi": 30,
          "time": 564.84375,
          "velocity": 0.9763779527559056,
          "duration": 0.75
        },
        {
          "name": "A1",
          "midi": 33,
          "time": 564.84375,
          "velocity": 0.9763779527559056,
          "duration": 0.75
        },
        {
          "name": "D2",
          "midi": 38,
          "time": 564.84375,
          "velocity": 0.9763779527559056,
          "duration": 0.75
        },
        {
          "name": "D1",
          "midi": 26,
          "time": 564.84375,
          "velocity": 0.9763779527559056,
          "duration": 0.75
        },
        {
          "name": "A3",
          "midi": 57,
          "time": 565.59375,
          "velocity": 0.8740157480314961,
          "duration": 0.75
        },
        {
          "name": "C4",
          "midi": 60,
          "time": 565.59375,
          "velocity": 0.8740157480314961,
          "duration": 0.7421875
        },
        {
          "name": "D3",
          "midi": 50,
          "time": 565.59375,
          "velocity": 0.8740157480314961,
          "duration": 0.75
        },
        {
          "name": "F#3",
          "midi": 54,
          "time": 565.59375,
          "velocity": 0.8740157480314961,
          "duration": 0.75
        },
        {
          "name": "C4",
          "midi": 60,
          "time": 566.3359375,
          "velocity": 0.8346456692913385,
          "duration": 0.7578125
        },
        {
          "name": "F#3",
          "midi": 54,
          "time": 566.34375,
          "velocity": 0.8346456692913385,
          "duration": 0.75
        },
        {
          "name": "A3",
          "midi": 57,
          "time": 566.34375,
          "velocity": 0.8346456692913385,
          "duration": 0.75
        },
        {
          "name": "D3",
          "midi": 50,
          "time": 566.34375,
          "velocity": 0.8346456692913385,
          "duration": 0.75
        },
        {
          "name": "D1",
          "midi": 26,
          "time": 567.09375,
          "velocity": 0.984251968503937,
          "duration": 0.75
        },
        {
          "name": "F#1",
          "midi": 30,
          "time": 567.09375,
          "velocity": 0.984251968503937,
          "duration": 0.75
        },
        {
          "name": "A1",
          "midi": 33,
          "time": 567.09375,
          "velocity": 0.984251968503937,
          "duration": 0.75
        },
        {
          "name": "D2",
          "midi": 38,
          "time": 567.09375,
          "velocity": 0.984251968503937,
          "duration": 0.75
        },
        {
          "name": "D3",
          "midi": 50,
          "time": 567.84375,
          "velocity": 0.8976377952755905,
          "duration": 0.75
        },
        {
          "name": "F#3",
          "midi": 54,
          "time": 567.84375,
          "velocity": 0.8976377952755905,
          "duration": 0.75
        },
        {
          "name": "A3",
          "midi": 57,
          "time": 567.84375,
          "velocity": 0.8976377952755905,
          "duration": 0.75
        },
        {
          "name": "C4",
          "midi": 60,
          "time": 567.84375,
          "velocity": 0.8976377952755905,
          "duration": 0.75
        },
        {
          "name": "F#3",
          "midi": 54,
          "time": 568.59375,
          "velocity": 0.889763779527559,
          "duration": 0.75
        },
        {
          "name": "A3",
          "midi": 57,
          "time": 568.59375,
          "velocity": 0.889763779527559,
          "duration": 0.75
        },
        {
          "name": "C4",
          "midi": 60,
          "time": 568.59375,
          "velocity": 0.889763779527559,
          "duration": 0.75
        },
        {
          "name": "D3",
          "midi": 50,
          "time": 568.59375,
          "velocity": 0.889763779527559,
          "duration": 0.75
        },
        {
          "name": "D3",
          "midi": 50,
          "time": 569.34375,
          "velocity": 0.5196850393700787,
          "duration": 0.265625
        },
        {
          "name": "D2",
          "midi": 38,
          "time": 569.34375,
          "velocity": 0.5196850393700787,
          "duration": 0.265625
        },
        {
          "name": "C#3",
          "midi": 49,
          "time": 569.59375,
          "velocity": 0.5354330708661418,
          "duration": 0.265625
        },
        {
          "name": "C#2",
          "midi": 37,
          "time": 569.59375,
          "velocity": 0.5354330708661418,
          "duration": 0.265625
        },
        {
          "name": "D2",
          "midi": 38,
          "time": 569.84375,
          "velocity": 0.5511811023622047,
          "duration": 0.265625
        },
        {
          "name": "D3",
          "midi": 50,
          "time": 569.84375,
          "velocity": 0.5511811023622047,
          "duration": 0.265625
        },
        {
          "name": "E3",
          "midi": 52,
          "time": 570.09375,
          "velocity": 0.5669291338582677,
          "duration": 0.25
        },
        {
          "name": "E2",
          "midi": 40,
          "time": 570.09375,
          "velocity": 0.5669291338582677,
          "duration": 0.25
        },
        {
          "name": "F#2",
          "midi": 42,
          "time": 570.34375,
          "velocity": 0.5826771653543307,
          "duration": 0.25
        },
        {
          "name": "F#3",
          "midi": 54,
          "time": 570.34375,
          "velocity": 0.5826771653543307,
          "duration": 0.25
        },
        {
          "name": "A#3",
          "midi": 58,
          "time": 570.59375,
          "velocity": 0.5984251968503937,
          "duration": 0.25
        },
        {
          "name": "A#2",
          "midi": 46,
          "time": 570.59375,
          "velocity": 0.5984251968503937,
          "duration": 0.25
        },
        {
          "name": "A2",
          "midi": 45,
          "time": 570.84375,
          "velocity": 0.6141732283464567,
          "duration": 0.25
        },
        {
          "name": "A3",
          "midi": 57,
          "time": 570.84375,
          "velocity": 0.6141732283464567,
          "duration": 0.25
        },
        {
          "name": "G#3",
          "midi": 56,
          "time": 571.09375,
          "velocity": 0.6299212598425197,
          "duration": 0.25
        },
        {
          "name": "G#2",
          "midi": 44,
          "time": 571.09375,
          "velocity": 0.6299212598425197,
          "duration": 0.25
        },
        {
          "name": "A2",
          "midi": 45,
          "time": 571.34375,
          "velocity": 0.6456692913385826,
          "duration": 0.25
        },
        {
          "name": "A3",
          "midi": 57,
          "time": 571.34375,
          "velocity": 0.6456692913385826,
          "duration": 0.25
        },
        {
          "name": "C#3",
          "midi": 49,
          "time": 571.59375,
          "velocity": 0.6614173228346457,
          "duration": 0.25
        },
        {
          "name": "C#4",
          "midi": 61,
          "time": 571.59375,
          "velocity": 0.6614173228346457,
          "duration": 0.25
        },
        {
          "name": "D4",
          "midi": 62,
          "time": 571.84375,
          "velocity": 0.6771653543307087,
          "duration": 0.25
        },
        {
          "name": "D3",
          "midi": 50,
          "time": 571.84375,
          "velocity": 0.6771653543307087,
          "duration": 0.25
        },
        {
          "name": "D#3",
          "midi": 51,
          "time": 572.09375,
          "velocity": 0.6850393700787402,
          "duration": 0.25
        },
        {
          "name": "D#4",
          "midi": 63,
          "time": 572.09375,
          "velocity": 0.6850393700787402,
          "duration": 0.25
        },
        {
          "name": "D3",
          "midi": 50,
          "time": 572.34375,
          "velocity": 0.7007874015748031,
          "duration": 0.25
        },
        {
          "name": "D4",
          "midi": 62,
          "time": 572.34375,
          "velocity": 0.7007874015748031,
          "duration": 0.25
        },
        {
          "name": "C#3",
          "midi": 49,
          "time": 572.59375,
          "velocity": 0.7165354330708661,
          "duration": 0.25
        },
        {
          "name": "C#4",
          "midi": 61,
          "time": 572.59375,
          "velocity": 0.7165354330708661,
          "duration": 0.25
        },
        {
          "name": "D3",
          "midi": 50,
          "time": 572.84375,
          "velocity": 0.7322834645669292,
          "duration": 0.25
        },
        {
          "name": "D4",
          "midi": 62,
          "time": 572.84375,
          "velocity": 0.7322834645669292,
          "duration": 0.25
        },
        {
          "name": "E3",
          "midi": 52,
          "time": 573.09375,
          "velocity": 0.7480314960629921,
          "duration": 0.25
        },
        {
          "name": "E4",
          "midi": 64,
          "time": 573.09375,
          "velocity": 0.7480314960629921,
          "duration": 0.25
        },
        {
          "name": "F#3",
          "midi": 54,
          "time": 573.34375,
          "velocity": 0.7637795275590551,
          "duration": 0.25
        },
        {
          "name": "F#4",
          "midi": 66,
          "time": 573.34375,
          "velocity": 0.7637795275590551,
          "duration": 0.25
        },
        {
          "name": "G4",
          "midi": 67,
          "time": 573.59375,
          "velocity": 0.7795275590551181,
          "duration": 0.25
        },
        {
          "name": "G3",
          "midi": 55,
          "time": 573.59375,
          "velocity": 0.7795275590551181,
          "duration": 0.25
        },
        {
          "name": "G#3",
          "midi": 56,
          "time": 573.84375,
          "velocity": 0.7952755905511811,
          "duration": 0.25
        },
        {
          "name": "G#4",
          "midi": 68,
          "time": 573.84375,
          "velocity": 0.7952755905511811,
          "duration": 0.25
        },
        {
          "name": "A3",
          "midi": 57,
          "time": 574.09375,
          "velocity": 0.8110236220472441,
          "duration": 0.25
        },
        {
          "name": "A4",
          "midi": 69,
          "time": 574.09375,
          "velocity": 0.8110236220472441,
          "duration": 0.25
        },
        {
          "name": "G#3",
          "midi": 56,
          "time": 574.34375,
          "velocity": 0.8267716535433071,
          "duration": 0.25
        },
        {
          "name": "G#4",
          "midi": 68,
          "time": 574.34375,
          "velocity": 0.8267716535433071,
          "duration": 0.25
        },
        {
          "name": "A3",
          "midi": 57,
          "time": 574.59375,
          "velocity": 0.84251968503937,
          "duration": 0.25
        },
        {
          "name": "A4",
          "midi": 69,
          "time": 574.59375,
          "velocity": 0.84251968503937,
          "duration": 0.25
        },
        {
          "name": "A#3",
          "midi": 58,
          "time": 574.84375,
          "velocity": 0.8582677165354331,
          "duration": 0.25
        },
        {
          "name": "A#4",
          "midi": 70,
          "time": 574.84375,
          "velocity": 0.8582677165354331,
          "duration": 0.25
        },
        {
          "name": "C#4",
          "midi": 61,
          "time": 575.09375,
          "velocity": 0.8740157480314961,
          "duration": 0.25
        },
        {
          "name": "C#5",
          "midi": 73,
          "time": 575.09375,
          "velocity": 0.8740157480314961,
          "duration": 0.25
        },
        {
          "name": "D4",
          "midi": 62,
          "time": 575.34375,
          "velocity": 1,
          "duration": 1.125
        },
        {
          "name": "D5",
          "midi": 74,
          "time": 575.34375,
          "velocity": 1,
          "duration": 1.125
        },
        {
          "name": "F#2",
          "midi": 42,
          "time": 576.46875,
          "velocity": 0.9212598425196851,
          "duration": 0.75
        },
        {
          "name": "A2",
          "midi": 45,
          "time": 576.46875,
          "velocity": 0.9212598425196851,
          "duration": 0.75
        },
        {
          "name": "D3",
          "midi": 50,
          "time": 576.46875,
          "velocity": 0.9212598425196851,
          "duration": 0.75
        },
        {
          "name": "D1",
          "midi": 26,
          "time": 577.21875,
          "velocity": 0.9921259842519685,
          "duration": 1.5
        },
        {
          "name": "D2",
          "midi": 38,
          "time": 577.21875,
          "velocity": 0.9921259842519685,
          "duration": 1.5
        },
        {
          "name": "A1",
          "midi": 33,
          "time": 577.21875,
          "velocity": 0.9921259842519685,
          "duration": 1.5
        },
        {
          "name": "F#1",
          "midi": 30,
          "time": 577.21875,
          "velocity": 0.9921259842519685,
          "duration": 1.5
        }
      ],
      "controlChanges": {
        "6": [
          {
            "number": 6,
            "time": 0,
            "value": 0.09448818897637795
          },
          {
            "number": 6,
            "time": 0,
            "value": 0.09448818897637795
          },
          {
            "number": 6,
            "time": 0,
            "value": 0.09448818897637795
          },
          {
            "number": 6,
            "time": 582,
            "value": 0.09448818897637795
          },
          {
            "number": 6,
            "time": 582.0078125,
            "value": 0.09448818897637795
          },
          {
            "number": 6,
            "time": 582.0078125,
            "value": 0.09448818897637795
          }
        ],
        "7": [
          {
            "number": 7,
            "time": 0,
            "value": 0.7874015748031497
          },
          {
            "number": 7,
            "time": 0,
            "value": 0.7874015748031497
          },
          {
            "number": 7,
            "time": 0,
            "value": 0.7874015748031497
          },
          {
            "number": 7,
            "time": 0,
            "value": 0.7874015748031497
          },
          {
            "number": 7,
            "time": 0,
            "value": 0.7874015748031497
          },
          {
            "number": 7,
            "time": 0,
            "value": 0.7874015748031497
          },
          {
            "number": 7,
            "time": 582,
            "value": 0.7874015748031497
          },
          {
            "number": 7,
            "time": 582.0078125,
            "value": 0.7874015748031497
          },
          {
            "number": 7,
            "time": 582.0078125,
            "value": 0.7874015748031497
          }
        ],
        "10": [
          {
            "number": 10,
            "time": 0,
            "value": 0.5039370078740157
          },
          {
            "number": 10,
            "time": 0,
            "value": 0.5039370078740157
          },
          {
            "number": 10,
            "time": 0,
            "value": 0.5039370078740157
          },
          {
            "number": 10,
            "time": 0,
            "value": 0.5039370078740157
          },
          {
            "number": 10,
            "time": 0,
            "value": 0.5039370078740157
          },
          {
            "number": 10,
            "time": 0,
            "value": 0.5039370078740157
          },
          {
            "number": 10,
            "time": 582,
            "value": 0.5039370078740157
          },
          {
            "number": 10,
            "time": 582.0078125,
            "value": 0.5039370078740157
          },
          {
            "number": 10,
            "time": 582.0078125,
            "value": 0.5039370078740157
          }
        ],
        "100": [
          {
            "number": 100,
            "time": 0,
            "value": 0
          },
          {
            "number": 100,
            "time": 0,
            "value": 0
          },
          {
            "number": 100,
            "time": 0,
            "value": 0
          },
          {
            "number": 100,
            "time": 582,
            "value": 0
          },
          {
            "number": 100,
            "time": 582.0078125,
            "value": 0
          },
          {
            "number": 100,
            "time": 582.0078125,
            "value": 0
          }
        ],
        "101": [
          {
            "number": 101,
            "time": 0,
            "value": 0
          },
          {
            "number": 101,
            "time": 0,
            "value": 0
          },
          {
            "number": 101,
            "time": 0,
            "value": 0
          },
          {
            "number": 101,
            "time": 582,
            "value": 0
          },
          {
            "number": 101,
            "time": 582.0078125,
            "value": 0
          },
          {
            "number": 101,
            "time": 582.0078125,
            "value": 0
          }
        ]
      },
      "id": 2,
      "name": "S:  2",
      "instrumentNumber": 0,
      "instrument": "acoustic grand piano",
      "instrumentFamily": "piano",
      "channelNumber": 1,
      "isPercussion": false
    }
  ]
}