{
  "header": {
    "PPQ": 480,
    "timeSignature": [
      4,
      4
    ],
    "bpm": 165.000165000165,
    "name": ""
  },
  "startTime": 0,
  "duration": 216.72175297499956,
  "tracks": [
    {
      "startTime": 0,
      "duration": 0,
      "length": 0,
      "notes": [],
      "controlChanges": {},
      "id": 0
    },
    {
      "startTime": 0,
      "duration": 216.72175297499956,
      "length": 756,
      "notes": [
        {
          "name": "C#5",
          "midi": 73,
          "time": 0,
          "velocity": 0.7559055118110236,
          "duration": 0.17651497500000002
        },
        {
          "name": "G#4",
          "midi": 68,
          "time": 0,
          "velocity": 0.7559055118110236,
          "duration": 0.17651497500000002
        },
        {
          "name": "C#5",
          "midi": 73,
          "time": 0.181818,
          "velocity": 0.7559055118110236,
          "duration": 0.17651497500000005
        },
        {
          "name": "G#4",
          "midi": 68,
          "time": 0.181818,
          "velocity": 0.7559055118110236,
          "duration": 0.17651497500000005
        },
        {
          "name": "A4",
          "midi": 69,
          "time": 0.5454540000000001,
          "velocity": 0.7559055118110236,
          "duration": 0.17651497500000002
        },
        {
          "name": "E4",
          "midi": 64,
          "time": 0.5454540000000001,
          "velocity": 0.7559055118110236,
          "duration": 0.17651497500000002
        },
        {
          "name": "E4",
          "midi": 64,
          "time": 0.7272720000000001,
          "velocity": 0.7559055118110236,
          "duration": 0.17651497500000002
        },
        {
          "name": "A4",
          "midi": 69,
          "time": 0.7272720000000001,
          "velocity": 0.7559055118110236,
          "duration": 0.17651497500000002
        },
        {
          "name": "B4",
          "midi": 71,
          "time": 1.0909080000000002,
          "velocity": 0.7559055118110236,
          "duration": 0.1765149749999999
        },
        {
          "name": "F#4",
          "midi": 66,
          "time": 1.0909080000000002,
          "velocity": 0.7559055118110236,
          "duration": 0.1765149749999999
        },
        {
          "name": "B4",
          "midi": 71,
          "time": 1.272726,
          "velocity": 0.7559055118110236,
          "duration": 0.1765149749999999
        },
        {
          "name": "F#4",
          "midi": 66,
          "time": 1.272726,
          "velocity": 0.7559055118110236,
          "duration": 0.1765149749999999
        },
        {
          "name": "A5",
          "midi": 81,
          "time": 2.181816,
          "velocity": 0.7559055118110236,
          "duration": 0.7219689749999998
        },
        {
          "name": "D#5",
          "midi": 75,
          "time": 2.181816,
          "velocity": 0.7559055118110236,
          "duration": 0.7219689749999998
        },
        {
          "name": "G#5",
          "midi": 80,
          "time": 2.9090879999999997,
          "velocity": 0.7559055118110236,
          "duration": 7.267416975000001
        },
        {
          "name": "C#5",
          "midi": 73,
          "time": 2.9090879999999997,
          "velocity": 0.7559055118110236,
          "duration": 7.267416975000001
        },
        {
          "name": "A3",
          "midi": 57,
          "time": 10.181808,
          "velocity": 0.7559055118110236,
          "duration": 0.1765149749999999
        },
        {
          "name": "G#3",
          "midi": 56,
          "time": 10.363626,
          "velocity": 0.7559055118110236,
          "duration": 0.1765149749999999
        },
        {
          "name": "A3",
          "midi": 57,
          "time": 10.545444,
          "velocity": 0.7559055118110236,
          "duration": 0.1765149749999999
        },
        {
          "name": "B3",
          "midi": 59,
          "time": 10.727262,
          "velocity": 0.7559055118110236,
          "duration": 0.3583329749999997
        },
        {
          "name": "A3",
          "midi": 57,
          "time": 11.090898,
          "velocity": 0.7559055118110236,
          "duration": 0.1765149749999999
        },
        {
          "name": "B3",
          "midi": 59,
          "time": 11.272715999999999,
          "velocity": 0.7559055118110236,
          "duration": 0.1765149749999999
        },
        {
          "name": "C#4",
          "midi": 61,
          "time": 11.454533999999999,
          "velocity": 0.7559055118110236,
          "duration": 0.3583329749999997
        },
        {
          "name": "B3",
          "midi": 59,
          "time": 11.818169999999999,
          "velocity": 0.7559055118110236,
          "duration": 0.1765149749999999
        },
        {
          "name": "C#4",
          "midi": 61,
          "time": 11.999987999999998,
          "velocity": 0.7559055118110236,
          "duration": 0.1765149749999999
        },
        {
          "name": "D#4",
          "midi": 63,
          "time": 12.181805999999998,
          "velocity": 0.7559055118110236,
          "duration": 0.1765149749999999
        },
        {
          "name": "E4",
          "midi": 64,
          "time": 12.363623999999998,
          "velocity": 0.7559055118110236,
          "duration": 0.1765149749999999
        },
        {
          "name": "D#4",
          "midi": 63,
          "time": 12.545441999999998,
          "velocity": 0.7559055118110236,
          "duration": 0.1765149749999999
        },
        {
          "name": "C#4",
          "midi": 61,
          "time": 12.727259999999998,
          "velocity": 0.7559055118110236,
          "duration": 0.1765149749999999
        },
        {
          "name": "B3",
          "midi": 59,
          "time": 12.909077999999997,
          "velocity": 0.7559055118110236,
          "duration": 0.1765149749999999
        },
        {
          "name": "A3",
          "midi": 57,
          "time": 13.090895999999997,
          "velocity": 0.7559055118110236,
          "duration": 0.1765149749999999
        },
        {
          "name": "G#3",
          "midi": 56,
          "time": 13.272713999999997,
          "velocity": 0.7559055118110236,
          "duration": 0.1765149749999999
        },
        {
          "name": "A3",
          "midi": 57,
          "time": 13.454531999999997,
          "velocity": 0.7559055118110236,
          "duration": 0.1765149749999999
        },
        {
          "name": "B3",
          "midi": 59,
          "time": 13.636349999999997,
          "velocity": 0.7559055118110236,
          "duration": 0.3583329749999997
        },
        {
          "name": "A3",
          "midi": 57,
          "time": 13.999985999999996,
          "velocity": 0.7559055118110236,
          "duration": 0.1765149749999999
        },
        {
          "name": "B3",
          "midi": 59,
          "time": 14.181803999999996,
          "velocity": 0.7559055118110236,
          "duration": 0.1765149749999999
        },
        {
          "name": "C#4",
          "midi": 61,
          "time": 14.363621999999996,
          "velocity": 0.7559055118110236,
          "duration": 0.5401509749999995
        },
        {
          "name": "G#5",
          "midi": 80,
          "time": 15.999983999999996,
          "velocity": 0.7559055118110236,
          "duration": 0.3583329750000015
        },
        {
          "name": "E5",
          "midi": 76,
          "time": 15.999983999999996,
          "velocity": 0.7559055118110236,
          "duration": 0.3583329750000015
        },
        {
          "name": "C#5",
          "midi": 73,
          "time": 15.999983999999996,
          "velocity": 0.7559055118110236,
          "duration": 0.3583329750000015
        },
        {
          "name": "A5",
          "midi": 81,
          "time": 16.363619999999997,
          "velocity": 0.7559055118110236,
          "duration": 0.3583329749999997
        },
        {
          "name": "B4",
          "midi": 71,
          "time": 16.727255999999997,
          "velocity": 0.7559055118110236,
          "duration": 0.3583329749999997
        },
        {
          "name": "D#5",
          "midi": 75,
          "time": 16.727255999999997,
          "velocity": 0.7559055118110236,
          "duration": 0.3583329749999997
        },
        {
          "name": "F#5",
          "midi": 78,
          "time": 16.727255999999997,
          "velocity": 0.7559055118110236,
          "duration": 0.3583329749999997
        },
        {
          "name": "F#5",
          "midi": 78,
          "time": 17.090891999999997,
          "velocity": 0.7559055118110236,
          "duration": 0.2674239749999998
        },
        {
          "name": "C#5",
          "midi": 73,
          "time": 17.363618999999996,
          "velocity": 0.7559055118110236,
          "duration": 0.085605975
        },
        {
          "name": "E5",
          "midi": 76,
          "time": 17.454527999999996,
          "velocity": 0.7559055118110236,
          "duration": 0.1765149749999999
        },
        {
          "name": "E5",
          "midi": 76,
          "time": 17.636345999999996,
          "velocity": 0.7559055118110236,
          "duration": 0.1765149749999999
        },
        {
          "name": "F#5",
          "midi": 78,
          "time": 17.818163999999996,
          "velocity": 0.7559055118110236,
          "duration": 0.1765149749999999
        },
        {
          "name": "E5",
          "midi": 76,
          "time": 17.999981999999996,
          "velocity": 0.7559055118110236,
          "duration": 0.1765149749999999
        },
        {
          "name": "D#5",
          "midi": 75,
          "time": 18.181799999999996,
          "velocity": 0.7559055118110236,
          "duration": 0.1765149749999999
        },
        {
          "name": "C#5",
          "midi": 73,
          "time": 18.363617999999995,
          "velocity": 0.7559055118110236,
          "duration": 0.1765149749999999
        },
        {
          "name": "B4",
          "midi": 71,
          "time": 18.727253999999995,
          "velocity": 0.7559055118110236,
          "duration": 0.1765149749999999
        },
        {
          "name": "A4",
          "midi": 69,
          "time": 18.909071999999995,
          "velocity": 0.7559055118110236,
          "duration": 0.3583329749999997
        },
        {
          "name": "C#5",
          "midi": 73,
          "time": 18.909071999999995,
          "velocity": 0.7559055118110236,
          "duration": 0.3583329749999997
        },
        {
          "name": "C#5",
          "midi": 73,
          "time": 19.272707999999994,
          "velocity": 0.7559055118110236,
          "duration": 0.1765149749999999
        },
        {
          "name": "F#4",
          "midi": 66,
          "time": 19.454525999999994,
          "velocity": 0.7559055118110236,
          "duration": 0.3583329749999997
        },
        {
          "name": "B4",
          "midi": 71,
          "time": 19.454525999999994,
          "velocity": 0.7559055118110236,
          "duration": 0.3583329749999997
        },
        {
          "name": "E5",
          "midi": 76,
          "time": 19.454525999999994,
          "velocity": 0.7559055118110236,
          "duration": 0.3583329749999997
        },
        {
          "name": "E5",
          "midi": 76,
          "time": 19.818161999999994,
          "velocity": 0.7559055118110236,
          "duration": 0.1765149749999999
        },
        {
          "name": "F#5",
          "midi": 78,
          "time": 19.999979999999994,
          "velocity": 0.7559055118110236,
          "duration": 0.3583329749999997
        },
        {
          "name": "G#4",
          "midi": 68,
          "time": 20.363615999999993,
          "velocity": 0.7559055118110236,
          "duration": 0.7219689749999993
        },
        {
          "name": "C#5",
          "midi": 73,
          "time": 20.363615999999993,
          "velocity": 0.7559055118110236,
          "duration": 0.7219689749999993
        },
        {
          "name": "C#5",
          "midi": 73,
          "time": 21.272705999999992,
          "velocity": 0.7559055118110236,
          "duration": 0.1765149749999999
        },
        {
          "name": "E5",
          "midi": 76,
          "time": 21.454523999999992,
          "velocity": 0.7559055118110236,
          "duration": 0.1765149749999999
        },
        {
          "name": "F#5",
          "midi": 78,
          "time": 21.636341999999992,
          "velocity": 0.7559055118110236,
          "duration": 0.1765149749999999
        },
        {
          "name": "G#5",
          "midi": 80,
          "time": 21.818159999999992,
          "velocity": 0.7559055118110236,
          "duration": 0.3583329749999997
        },
        {
          "name": "E5",
          "midi": 76,
          "time": 21.818159999999992,
          "velocity": 0.7559055118110236,
          "duration": 0.3583329749999997
        },
        {
          "name": "C#5",
          "midi": 73,
          "time": 21.818159999999992,
          "velocity": 0.7559055118110236,
          "duration": 0.3583329749999997
        },
        {
          "name": "A5",
          "midi": 81,
          "time": 22.18179599999999,
          "velocity": 0.7559055118110236,
          "duration": 0.3583329749999997
        },
        {
          "name": "B4",
          "midi": 71,
          "time": 22.54543199999999,
          "velocity": 0.7559055118110236,
          "duration": 0.3583329749999997
        },
        {
          "name": "D#5",
          "midi": 75,
          "time": 22.54543199999999,
          "velocity": 0.7559055118110236,
          "duration": 0.3583329749999997
        },
        {
          "name": "F#5",
          "midi": 78,
          "time": 22.54543199999999,
          "velocity": 0.7559055118110236,
          "duration": 0.3583329749999997
        },
        {
          "name": "F#5",
          "midi": 78,
          "time": 22.90906799999999,
          "velocity": 0.7559055118110236,
          "duration": 0.2674239749999998
        },
        {
          "name": "C#5",
          "midi": 73,
          "time": 23.18179499999999,
          "velocity": 0.7559055118110236,
          "duration": 0.085605975
        },
        {
          "name": "E5",
          "midi": 76,
          "time": 23.27270399999999,
          "velocity": 0.7559055118110236,
          "duration": 0.1765149749999999
        },
        {
          "name": "E5",
          "midi": 76,
          "time": 23.45452199999999,
          "velocity": 0.7559055118110236,
          "duration": 0.1765149749999999
        },
        {
          "name": "F#5",
          "midi": 78,
          "time": 23.63633999999999,
          "velocity": 0.7559055118110236,
          "duration": 0.1765149749999999
        },
        {
          "name": "E5",
          "midi": 76,
          "time": 23.81815799999999,
          "velocity": 0.7559055118110236,
          "duration": 0.1765149749999999
        },
        {
          "name": "D#5",
          "midi": 75,
          "time": 23.99997599999999,
          "velocity": 0.7559055118110236,
          "duration": 0.1765149749999999
        },
        {
          "name": "C#5",
          "midi": 73,
          "time": 24.18179399999999,
          "velocity": 0.7559055118110236,
          "duration": 0.1765149749999999
        },
        {
          "name": "B4",
          "midi": 71,
          "time": 24.54542999999999,
          "velocity": 0.7559055118110236,
          "duration": 0.1765149749999999
        },
        {
          "name": "A4",
          "midi": 69,
          "time": 24.72724799999999,
          "velocity": 0.7559055118110236,
          "duration": 0.3583329749999997
        },
        {
          "name": "C#5",
          "midi": 73,
          "time": 24.72724799999999,
          "velocity": 0.7559055118110236,
          "duration": 0.3583329749999997
        },
        {
          "name": "C#5",
          "midi": 73,
          "time": 25.09088399999999,
          "velocity": 0.7559055118110236,
          "duration": 0.1765149749999999
        },
        {
          "name": "F#4",
          "midi": 66,
          "time": 25.27270199999999,
          "velocity": 0.7559055118110236,
          "duration": 0.3583329749999997
        },
        {
          "name": "B4",
          "midi": 71,
          "time": 25.27270199999999,
          "velocity": 0.7559055118110236,
          "duration": 0.3583329749999997
        },
        {
          "name": "E5",
          "midi": 76,
          "time": 25.27270199999999,
          "velocity": 0.7559055118110236,
          "duration": 0.3583329749999997
        },
        {
          "name": "E5",
          "midi": 76,
          "time": 25.636337999999988,
          "velocity": 0.7559055118110236,
          "duration": 0.1765149749999999
        },
        {
          "name": "F#5",
          "midi": 78,
          "time": 25.818155999999988,
          "velocity": 0.7559055118110236,
          "duration": 0.3583329749999997
        },
        {
          "name": "G#4",
          "midi": 68,
          "time": 26.181791999999987,
          "velocity": 0.7559055118110236,
          "duration": 1.4492409749999986
        },
        {
          "name": "C#5",
          "midi": 73,
          "time": 26.181791999999987,
          "velocity": 0.7559055118110236,
          "duration": 1.4492409749999986
        },
        {
          "name": "C5",
          "midi": 72,
          "time": 27.636335999999986,
          "velocity": 0.7559055118110236,
          "duration": 1.4492409749999986
        },
        {
          "name": "D#5",
          "midi": 75,
          "time": 27.636335999999986,
          "velocity": 0.7559055118110236,
          "duration": 1.4492409749999986
        },
        {
          "name": "G5",
          "midi": 79,
          "time": 27.636335999999986,
          "velocity": 0.7559055118110236,
          "duration": 1.4492409749999986
        },
        {
          "name": "D#5",
          "midi": 75,
          "time": 29.090879999999984,
          "velocity": 0.7559055118110236,
          "duration": 1.4492409749999986
        },
        {
          "name": "G5",
          "midi": 79,
          "time": 29.090879999999984,
          "velocity": 0.7559055118110236,
          "duration": 1.4492409749999986
        },
        {
          "name": "A#5",
          "midi": 82,
          "time": 29.090879999999984,
          "velocity": 0.7559055118110236,
          "duration": 1.4492409749999986
        },
        {
          "name": "C#5",
          "midi": 73,
          "time": 30.545423999999983,
          "velocity": 0.7559055118110236,
          "duration": 1.085604974999999
        },
        {
          "name": "F5",
          "midi": 77,
          "time": 30.545423999999983,
          "velocity": 0.7559055118110236,
          "duration": 1.085604974999999
        },
        {
          "name": "G#5",
          "midi": 80,
          "time": 30.545423999999983,
          "velocity": 0.7559055118110236,
          "duration": 1.085604974999999
        },
        {
          "name": "F5",
          "midi": 77,
          "time": 31.63633199999998,
          "velocity": 0.7559055118110236,
          "duration": 0.3583329749999997
        },
        {
          "name": "C5",
          "midi": 72,
          "time": 31.99996799999998,
          "velocity": 0.7559055118110236,
          "duration": 1.4492409750000022
        },
        {
          "name": "D#5",
          "midi": 75,
          "time": 31.99996799999998,
          "velocity": 0.7559055118110236,
          "duration": 1.4492409750000022
        },
        {
          "name": "G5",
          "midi": 79,
          "time": 31.99996799999998,
          "velocity": 0.7559055118110236,
          "duration": 1.4492409750000022
        },
        {
          "name": "C5",
          "midi": 72,
          "time": 33.45451199999999,
          "velocity": 0.7559055118110236,
          "duration": 1.4492409750000022
        },
        {
          "name": "D#5",
          "midi": 75,
          "time": 33.45451199999999,
          "velocity": 0.7559055118110236,
          "duration": 1.4492409750000022
        },
        {
          "name": "G5",
          "midi": 79,
          "time": 33.45451199999999,
          "velocity": 0.7559055118110236,
          "duration": 1.4492409750000022
        },
        {
          "name": "D#5",
          "midi": 75,
          "time": 34.90905599999999,
          "velocity": 0.7559055118110236,
          "duration": 1.4492409750000022
        },
        {
          "name": "G5",
          "midi": 79,
          "time": 34.90905599999999,
          "velocity": 0.7559055118110236,
          "duration": 1.4492409750000022
        },
        {
          "name": "A#5",
          "midi": 82,
          "time": 34.90905599999999,
          "velocity": 0.7559055118110236,
          "duration": 1.4492409750000022
        },
        {
          "name": "C#5",
          "midi": 73,
          "time": 36.3636,
          "velocity": 0.7559055118110236,
          "duration": 1.0856049750000025
        },
        {
          "name": "F5",
          "midi": 77,
          "time": 36.3636,
          "velocity": 0.7559055118110236,
          "duration": 1.0856049750000025
        },
        {
          "name": "G#5",
          "midi": 80,
          "time": 36.3636,
          "velocity": 0.7559055118110236,
          "duration": 1.0856049750000025
        },
        {
          "name": "A#5",
          "midi": 82,
          "time": 37.454508000000004,
          "velocity": 0.7559055118110236,
          "duration": 0.3583329750000033
        },
        {
          "name": "C5",
          "midi": 72,
          "time": 37.81814400000001,
          "velocity": 0.7559055118110236,
          "duration": 1.4492409750000022
        },
        {
          "name": "D#5",
          "midi": 75,
          "time": 37.81814400000001,
          "velocity": 0.7559055118110236,
          "duration": 1.4492409750000022
        },
        {
          "name": "G5",
          "midi": 79,
          "time": 37.81814400000001,
          "velocity": 0.7559055118110236,
          "duration": 1.4492409750000022
        },
        {
          "name": "G5",
          "midi": 79,
          "time": 39.27268800000002,
          "velocity": 0.7559055118110236,
          "duration": 0.3583329750000033
        },
        {
          "name": "F5",
          "midi": 77,
          "time": 39.63632400000002,
          "velocity": 0.7559055118110236,
          "duration": 0.17651497500000346
        },
        {
          "name": "D#5",
          "midi": 75,
          "time": 39.81814200000003,
          "velocity": 0.7559055118110236,
          "duration": 0.3583329750000033
        },
        {
          "name": "C5",
          "midi": 72,
          "time": 40.18177800000004,
          "velocity": 0.7559055118110236,
          "duration": 0.17651497500000346
        },
        {
          "name": "C5",
          "midi": 72,
          "time": 40.363596000000044,
          "velocity": 0.7559055118110236,
          "duration": 0.17651497500000346
        },
        {
          "name": "A#4",
          "midi": 70,
          "time": 40.54541400000005,
          "velocity": 0.7559055118110236,
          "duration": 0.17651497500000346
        },
        {
          "name": "C5",
          "midi": 72,
          "time": 40.72723200000006,
          "velocity": 0.7559055118110236,
          "duration": 0.3583329750000033
        },
        {
          "name": "A#4",
          "midi": 70,
          "time": 41.090868000000064,
          "velocity": 0.7559055118110236,
          "duration": 0.17651497500000346
        },
        {
          "name": "D#5",
          "midi": 75,
          "time": 41.27268600000007,
          "velocity": 0.7559055118110236,
          "duration": 0.3583329750000033
        },
        {
          "name": "A#4",
          "midi": 70,
          "time": 41.63632200000008,
          "velocity": 0.7559055118110236,
          "duration": 0.17651497500000346
        },
        {
          "name": "C5",
          "midi": 72,
          "time": 41.818140000000085,
          "velocity": 0.7559055118110236,
          "duration": 0.17651497500000346
        },
        {
          "name": "D#5",
          "midi": 75,
          "time": 41.99995800000009,
          "velocity": 0.7559055118110236,
          "duration": 0.17651497500000346
        },
        {
          "name": "F5",
          "midi": 77,
          "time": 42.1817760000001,
          "velocity": 0.7559055118110236,
          "duration": 0.17651497500000346
        },
        {
          "name": "F5",
          "midi": 77,
          "time": 42.363594000000106,
          "velocity": 0.7559055118110236,
          "duration": 0.17651497500000346
        },
        {
          "name": "D#5",
          "midi": 75,
          "time": 42.54541200000011,
          "velocity": 0.7559055118110236,
          "duration": 0.17651497500000346
        },
        {
          "name": "F5",
          "midi": 77,
          "time": 42.72723000000012,
          "velocity": 0.7559055118110236,
          "duration": 0.3583329750000033
        },
        {
          "name": "F5",
          "midi": 77,
          "time": 43.090866000000126,
          "velocity": 0.7559055118110236,
          "duration": 0.17651497500000346
        },
        {
          "name": "G5",
          "midi": 79,
          "time": 43.27268400000013,
          "velocity": 0.7559055118110236,
          "duration": 0.3583329750000033
        },
        {
          "name": "C5",
          "midi": 72,
          "time": 43.63632000000014,
          "velocity": 0.7559055118110236,
          "duration": 0.3583329750000033
        },
        {
          "name": "C5",
          "midi": 72,
          "time": 43.99995600000015,
          "velocity": 0.7559055118110236,
          "duration": 0.17651497500000346
        },
        {
          "name": "D#5",
          "midi": 75,
          "time": 44.18177400000015,
          "velocity": 0.7559055118110236,
          "duration": 0.9037869750000027
        },
        {
          "name": "G5",
          "midi": 79,
          "time": 45.09086400000016,
          "velocity": 0.7559055118110236,
          "duration": 0.17651497500000346
        },
        {
          "name": "G5",
          "midi": 79,
          "time": 45.27268200000017,
          "velocity": 0.7559055118110236,
          "duration": 0.17651497500000346
        },
        {
          "name": "F5",
          "midi": 77,
          "time": 45.45450000000017,
          "velocity": 0.7559055118110236,
          "duration": 0.17651497500000346
        },
        {
          "name": "D#5",
          "midi": 75,
          "time": 45.63631800000018,
          "velocity": 0.7559055118110236,
          "duration": 0.3583329750000033
        },
        {
          "name": "C5",
          "midi": 72,
          "time": 45.99995400000019,
          "velocity": 0.7559055118110236,
          "duration": 0.17651497500000346
        },
        {
          "name": "C5",
          "midi": 72,
          "time": 46.181772000000194,
          "velocity": 0.7559055118110236,
          "duration": 0.17651497500000346
        },
        {
          "name": "A#4",
          "midi": 70,
          "time": 46.3635900000002,
          "velocity": 0.7559055118110236,
          "duration": 0.17651497500000346
        },
        {
          "name": "C5",
          "midi": 72,
          "time": 46.54540800000021,
          "velocity": 0.7559055118110236,
          "duration": 0.17651497500000346
        },
        {
          "name": "C5",
          "midi": 72,
          "time": 46.727226000000215,
          "velocity": 0.7559055118110236,
          "duration": 0.17651497500000346
        },
        {
          "name": "A#4",
          "midi": 70,
          "time": 46.90904400000022,
          "velocity": 0.7559055118110236,
          "duration": 0.17651497500000346
        },
        {
          "name": "C5",
          "midi": 72,
          "time": 47.09086200000023,
          "velocity": 0.7559055118110236,
          "duration": 0.17651497500000346
        },
        {
          "name": "C5",
          "midi": 72,
          "time": 47.454498000000235,
          "velocity": 0.7559055118110236,
          "duration": 0.17651497500000346
        },
        {
          "name": "C5",
          "midi": 72,
          "time": 47.63631600000024,
          "velocity": 0.7559055118110236,
          "duration": 0.17651497500000346
        },
        {
          "name": "D#5",
          "midi": 75,
          "time": 47.81813400000025,
          "velocity": 0.7559055118110236,
          "duration": 0.17651497500000346
        },
        {
          "name": "F5",
          "midi": 77,
          "time": 47.999952000000256,
          "velocity": 0.7559055118110236,
          "duration": 0.17651497500000346
        },
        {
          "name": "F5",
          "midi": 77,
          "time": 48.18177000000026,
          "velocity": 0.7559055118110236,
          "duration": 0.17651497500000346
        },
        {
          "name": "D#5",
          "midi": 75,
          "time": 48.36358800000027,
          "velocity": 0.7559055118110236,
          "duration": 0.17651497500000346
        },
        {
          "name": "F5",
          "midi": 77,
          "time": 48.54540600000028,
          "velocity": 0.7559055118110236,
          "duration": 0.3583329750000033
        },
        {
          "name": "F5",
          "midi": 77,
          "time": 48.909042000000284,
          "velocity": 0.7559055118110236,
          "duration": 0.17651497500000346
        },
        {
          "name": "G5",
          "midi": 79,
          "time": 49.09086000000029,
          "velocity": 0.7559055118110236,
          "duration": 0.3583329750000033
        },
        {
          "name": "C5",
          "midi": 72,
          "time": 49.4544960000003,
          "velocity": 0.7559055118110236,
          "duration": 1.4492409750000022
        },
        {
          "name": "C5",
          "midi": 72,
          "time": 50.9090400000003,
          "velocity": 0.7559055118110236,
          "duration": 0.2674239749999998
        },
        {
          "name": "D#5",
          "midi": 75,
          "time": 50.9090400000003,
          "velocity": 0.7559055118110236,
          "duration": 0.2674239749999998
        },
        {
          "name": "F5",
          "midi": 77,
          "time": 51.181767000000306,
          "velocity": 0.7559055118110236,
          "duration": 0.2674239749999998
        },
        {
          "name": "D#5",
          "midi": 75,
          "time": 51.45449400000031,
          "velocity": 0.7559055118110236,
          "duration": 0.17651497500000346
        },
        {
          "name": "F5",
          "midi": 77,
          "time": 51.636312000000316,
          "velocity": 0.7559055118110236,
          "duration": 0.7219689750000029
        },
        {
          "name": "A#4",
          "midi": 70,
          "time": 52.36358400000032,
          "velocity": 0.7559055118110236,
          "duration": 0.2674239749999998
        },
        {
          "name": "D#5",
          "midi": 75,
          "time": 52.36358400000032,
          "velocity": 0.7559055118110236,
          "duration": 0.2674239749999998
        },
        {
          "name": "F5",
          "midi": 77,
          "time": 52.636311000000326,
          "velocity": 0.7559055118110236,
          "duration": 0.2674239749999998
        },
        {
          "name": "D#5",
          "midi": 75,
          "time": 52.90903800000033,
          "velocity": 0.7559055118110236,
          "duration": 0.17651497500000346
        },
        {
          "name": "F5",
          "midi": 77,
          "time": 53.090856000000336,
          "velocity": 0.7559055118110236,
          "duration": 0.3583329750000033
        },
        {
          "name": "D#5",
          "midi": 75,
          "time": 53.45449200000034,
          "velocity": 0.7559055118110236,
          "duration": 0.3583329750000033
        },
        {
          "name": "A#4",
          "midi": 70,
          "time": 53.81812800000035,
          "velocity": 0.7559055118110236,
          "duration": 0.5401509750000031
        },
        {
          "name": "D5",
          "midi": 74,
          "time": 53.81812800000035,
          "velocity": 0.7559055118110236,
          "duration": 0.5401509750000031
        },
        {
          "name": "A#4",
          "midi": 70,
          "time": 54.363582000000356,
          "velocity": 0.7559055118110236,
          "duration": 0.5401509750000031
        },
        {
          "name": "F4",
          "midi": 65,
          "time": 54.90903600000036,
          "velocity": 0.7559055118110236,
          "duration": 0.3583329750000033
        },
        {
          "name": "G4",
          "midi": 67,
          "time": 55.27267200000037,
          "velocity": 0.7559055118110236,
          "duration": 0.7219689750000029
        },
        {
          "name": "C5",
          "midi": 72,
          "time": 55.999944000000376,
          "velocity": 0.7559055118110236,
          "duration": 0.3583329750000033
        },
        {
          "name": "D5",
          "midi": 74,
          "time": 56.36358000000038,
          "velocity": 0.7559055118110236,
          "duration": 0.3583329750000033
        },
        {
          "name": "C5",
          "midi": 72,
          "time": 56.72721600000039,
          "velocity": 0.7559055118110236,
          "duration": 0.2674239749999998
        },
        {
          "name": "D#5",
          "midi": 75,
          "time": 56.72721600000039,
          "velocity": 0.7559055118110236,
          "duration": 0.2674239749999998
        },
        {
          "name": "F5",
          "midi": 77,
          "time": 56.99994300000039,
          "velocity": 0.7559055118110236,
          "duration": 0.2674239749999998
        },
        {
          "name": "D#5",
          "midi": 75,
          "time": 57.272670000000396,
          "velocity": 0.7559055118110236,
          "duration": 0.17651497500000346
        },
        {
          "name": "F5",
          "midi": 77,
          "time": 57.4544880000004,
          "velocity": 0.7559055118110236,
          "duration": 0.7219689750000029
        },
        {
          "name": "A#4",
          "midi": 70,
          "time": 58.18176000000041,
          "velocity": 0.7559055118110236,
          "duration": 0.2674239749999998
        },
        {
          "name": "D#5",
          "midi": 75,
          "time": 58.18176000000041,
          "velocity": 0.7559055118110236,
          "duration": 0.2674239749999998
        },
        {
          "name": "F5",
          "midi": 77,
          "time": 58.45448700000041,
          "velocity": 0.7559055118110236,
          "duration": 0.2674239749999998
        },
        {
          "name": "D#5",
          "midi": 75,
          "time": 58.727214000000416,
          "velocity": 0.7559055118110236,
          "duration": 0.17651497500000346
        },
        {
          "name": "D5",
          "midi": 74,
          "time": 58.90903200000042,
          "velocity": 0.7559055118110236,
          "duration": 0.3583329750000033
        },
        {
          "name": "C5",
          "midi": 72,
          "time": 59.27266800000043,
          "velocity": 0.7559055118110236,
          "duration": 0.3583329750000033
        },
        {
          "name": "C4",
          "midi": 60,
          "time": 59.636304000000436,
          "velocity": 0.7559055118110236,
          "duration": 0.17651497500000346
        },
        {
          "name": "C4",
          "midi": 60,
          "time": 59.81812200000044,
          "velocity": 0.7559055118110236,
          "duration": 0.17651497500000346
        },
        {
          "name": "G#3",
          "midi": 56,
          "time": 60.18175800000045,
          "velocity": 0.7559055118110236,
          "duration": 0.17651497500000346
        },
        {
          "name": "G#3",
          "midi": 56,
          "time": 60.36357600000046,
          "velocity": 0.7559055118110236,
          "duration": 0.17651497500000346
        },
        {
          "name": "A#3",
          "midi": 58,
          "time": 60.72721200000046,
          "velocity": 0.7559055118110236,
          "duration": 0.17651497500000346
        },
        {
          "name": "A#3",
          "midi": 58,
          "time": 60.90903000000047,
          "velocity": 0.7559055118110236,
          "duration": 0.17651497500000346
        },
        {
          "name": "G3",
          "midi": 55,
          "time": 61.45448400000048,
          "velocity": 0.7559055118110236,
          "duration": 0.085605975
        },
        {
          "name": "C4",
          "midi": 60,
          "time": 61.54539300000048,
          "velocity": 0.7559055118110236,
          "duration": 0.085605975
        },
        {
          "name": "D4",
          "midi": 62,
          "time": 61.636302000000484,
          "velocity": 0.7559055118110236,
          "duration": 0.17651497500000346
        },
        {
          "name": "G4",
          "midi": 67,
          "time": 61.81812000000049,
          "velocity": 0.7559055118110236,
          "duration": 0.085605975
        },
        {
          "name": "C5",
          "midi": 72,
          "time": 61.909029000000494,
          "velocity": 0.7559055118110236,
          "duration": 0.085605975
        },
        {
          "name": "D5",
          "midi": 74,
          "time": 61.9999380000005,
          "velocity": 0.7559055118110236,
          "duration": 0.17651497500000346
        },
        {
          "name": "G5",
          "midi": 79,
          "time": 62.181756000000505,
          "velocity": 0.7559055118110236,
          "duration": 0.3583329750000033
        },
        {
          "name": "G#5",
          "midi": 80,
          "time": 62.54539200000051,
          "velocity": 0.7559055118110236,
          "duration": 0.3583329750000033
        },
        {
          "name": "E5",
          "midi": 76,
          "time": 62.54539200000051,
          "velocity": 0.7559055118110236,
          "duration": 0.3583329750000033
        },
        {
          "name": "C#5",
          "midi": 73,
          "time": 62.54539200000051,
          "velocity": 0.7559055118110236,
          "duration": 0.3583329750000033
        },
        {
          "name": "A5",
          "midi": 81,
          "time": 62.90902800000052,
          "velocity": 0.7559055118110236,
          "duration": 0.3583329750000033
        },
        {
          "name": "B4",
          "midi": 71,
          "time": 63.272664000000525,
          "velocity": 0.7559055118110236,
          "duration": 0.3583329750000033
        },
        {
          "name": "D#5",
          "midi": 75,
          "time": 63.272664000000525,
          "velocity": 0.7559055118110236,
          "duration": 0.3583329750000033
        },
        {
          "name": "F#5",
          "midi": 78,
          "time": 63.272664000000525,
          "velocity": 0.7559055118110236,
          "duration": 0.3583329750000033
        },
        {
          "name": "F#5",
          "midi": 78,
          "time": 63.63630000000053,
          "velocity": 0.7559055118110236,
          "duration": 0.2674239749999998
        },
        {
          "name": "C#5",
          "midi": 73,
          "time": 63.909027000000535,
          "velocity": 0.7559055118110236,
          "duration": 0.085605975
        },
        {
          "name": "E5",
          "midi": 76,
          "time": 63.99993600000054,
          "velocity": 0.7559055118110236,
          "duration": 0.17651497499999635
        },
        {
          "name": "E5",
          "midi": 76,
          "time": 64.18175400000054,
          "velocity": 0.7559055118110236,
          "duration": 0.17651497500000346
        },
        {
          "name": "F#5",
          "midi": 78,
          "time": 64.36357200000054,
          "velocity": 0.7559055118110236,
          "duration": 0.17651497500000346
        },
        {
          "name": "E5",
          "midi": 76,
          "time": 64.54539000000055,
          "velocity": 0.7559055118110236,
          "duration": 0.17651497500000346
        },
        {
          "name": "D#5",
          "midi": 75,
          "time": 64.72720800000056,
          "velocity": 0.7559055118110236,
          "duration": 0.17651497500000346
        },
        {
          "name": "C#5",
          "midi": 73,
          "time": 64.90902600000057,
          "velocity": 0.7559055118110236,
          "duration": 0.17651497500000346
        },
        {
          "name": "B4",
          "midi": 71,
          "time": 65.27266200000057,
          "velocity": 0.7559055118110236,
          "duration": 0.17651497500000346
        },
        {
          "name": "A4",
          "midi": 69,
          "time": 65.45448000000057,
          "velocity": 0.7559055118110236,
          "duration": 0.35833297499999617
        },
        {
          "name": "C#5",
          "midi": 73,
          "time": 65.45448000000057,
          "velocity": 0.7559055118110236,
          "duration": 0.35833297499999617
        },
        {
          "name": "C#5",
          "midi": 73,
          "time": 65.81811600000057,
          "velocity": 0.7559055118110236,
          "duration": 0.17651497500000346
        },
        {
          "name": "F#4",
          "midi": 66,
          "time": 65.99993400000058,
          "velocity": 0.7559055118110236,
          "duration": 0.35833297499999617
        },
        {
          "name": "B4",
          "midi": 71,
          "time": 65.99993400000058,
          "velocity": 0.7559055118110236,
          "duration": 0.35833297499999617
        },
        {
          "name": "E5",
          "midi": 76,
          "time": 65.99993400000058,
          "velocity": 0.7559055118110236,
          "duration": 0.35833297499999617
        },
        {
          "name": "E5",
          "midi": 76,
          "time": 66.36357000000058,
          "velocity": 0.7559055118110236,
          "duration": 0.17651497500000346
        },
        {
          "name": "F#5",
          "midi": 78,
          "time": 66.54538800000059,
          "velocity": 0.7559055118110236,
          "duration": 0.35833297499999617
        },
        {
          "name": "G#4",
          "midi": 68,
          "time": 66.90902400000058,
          "velocity": 0.7559055118110236,
          "duration": 0.7219689749999958
        },
        {
          "name": "C#5",
          "midi": 73,
          "time": 66.90902400000058,
          "velocity": 0.7559055118110236,
          "duration": 0.7219689749999958
        },
        {
          "name": "C#5",
          "midi": 73,
          "time": 67.81811400000058,
          "velocity": 0.7559055118110236,
          "duration": 0.17651497500000346
        },
        {
          "name": "E5",
          "midi": 76,
          "time": 67.99993200000058,
          "velocity": 0.7559055118110236,
          "duration": 0.17651497500000346
        },
        {
          "name": "F#5",
          "midi": 78,
          "time": 68.18175000000059,
          "velocity": 0.7559055118110236,
          "duration": 0.17651497500000346
        },
        {
          "name": "G#5",
          "midi": 80,
          "time": 68.3635680000006,
          "velocity": 0.7559055118110236,
          "duration": 0.35833297499999617
        },
        {
          "name": "E5",
          "midi": 76,
          "time": 68.3635680000006,
          "velocity": 0.7559055118110236,
          "duration": 0.35833297499999617
        },
        {
          "name": "C#5",
          "midi": 73,
          "time": 68.3635680000006,
          "velocity": 0.7559055118110236,
          "duration": 0.35833297499999617
        },
        {
          "name": "A5",
          "midi": 81,
          "time": 68.7272040000006,
          "velocity": 0.7559055118110236,
          "duration": 0.35833297499999617
        },
        {
          "name": "B4",
          "midi": 71,
          "time": 69.0908400000006,
          "velocity": 0.7559055118110236,
          "duration": 0.35833297499999617
        },
        {
          "name": "D#5",
          "midi": 75,
          "time": 69.0908400000006,
          "velocity": 0.7559055118110236,
          "duration": 0.35833297499999617
        },
        {
          "name": "F#5",
          "midi": 78,
          "time": 69.0908400000006,
          "velocity": 0.7559055118110236,
          "duration": 0.35833297499999617
        },
        {
          "name": "F#5",
          "midi": 78,
          "time": 69.4544760000006,
          "velocity": 0.7559055118110236,
          "duration": 0.2674239749999998
        },
        {
          "name": "C#5",
          "midi": 73,
          "time": 69.7272030000006,
          "velocity": 0.7559055118110236,
          "duration": 0.0856059749999929
        },
        {
          "name": "E5",
          "midi": 76,
          "time": 69.8181120000006,
          "velocity": 0.7559055118110236,
          "duration": 0.17651497500000346
        },
        {
          "name": "E5",
          "midi": 76,
          "time": 69.9999300000006,
          "velocity": 0.7559055118110236,
          "duration": 0.17651497500000346
        },
        {
          "name": "F#5",
          "midi": 78,
          "time": 70.18174800000061,
          "velocity": 0.7559055118110236,
          "duration": 0.17651497500000346
        },
        {
          "name": "E5",
          "midi": 76,
          "time": 70.36356600000062,
          "velocity": 0.7559055118110236,
          "duration": 0.17651497500000346
        },
        {
          "name": "D#5",
          "midi": 75,
          "time": 70.54538400000062,
          "velocity": 0.7559055118110236,
          "duration": 0.17651497500000346
        },
        {
          "name": "C#5",
          "midi": 73,
          "time": 70.72720200000063,
          "velocity": 0.7559055118110236,
          "duration": 0.17651497500000346
        },
        {
          "name": "B4",
          "midi": 71,
          "time": 71.09083800000063,
          "velocity": 0.7559055118110236,
          "duration": 0.17651497500000346
        },
        {
          "name": "A4",
          "midi": 69,
          "time": 71.27265600000064,
          "velocity": 0.7559055118110236,
          "duration": 0.35833297499999617
        },
        {
          "name": "C#5",
          "midi": 73,
          "time": 71.27265600000064,
          "velocity": 0.7559055118110236,
          "duration": 0.35833297499999617
        },
        {
          "name": "C#5",
          "midi": 73,
          "time": 71.63629200000064,
          "velocity": 0.7559055118110236,
          "duration": 0.17651497500000346
        },
        {
          "name": "F#4",
          "midi": 66,
          "time": 71.81811000000064,
          "velocity": 0.7559055118110236,
          "duration": 0.35833297499999617
        },
        {
          "name": "B4",
          "midi": 71,
          "time": 71.81811000000064,
          "velocity": 0.7559055118110236,
          "duration": 0.35833297499999617
        },
        {
          "name": "E5",
          "midi": 76,
          "time": 71.81811000000064,
          "velocity": 0.7559055118110236,
          "duration": 0.35833297499999617
        },
        {
          "name": "E5",
          "midi": 76,
          "time": 72.18174600000064,
          "velocity": 0.7559055118110236,
          "duration": 0.17651497500000346
        },
        {
          "name": "F#5",
          "midi": 78,
          "time": 72.36356400000065,
          "velocity": 0.7559055118110236,
          "duration": 0.35833297499999617
        },
        {
          "name": "G#4",
          "midi": 68,
          "time": 72.72720000000065,
          "velocity": 0.7559055118110236,
          "duration": 1.449240974999995
        },
        {
          "name": "C#5",
          "midi": 73,
          "time": 72.72720000000065,
          "velocity": 0.7559055118110236,
          "duration": 1.449240974999995
        },
        {
          "name": "C#5",
          "midi": 73,
          "time": 74.18174400000065,
          "velocity": 0.7559055118110236,
          "duration": 0.35833297499999617
        },
        {
          "name": "E5",
          "midi": 76,
          "time": 74.18174400000065,
          "velocity": 0.7559055118110236,
          "duration": 0.35833297499999617
        },
        {
          "name": "G#5",
          "midi": 80,
          "time": 74.18174400000065,
          "velocity": 0.7559055118110236,
          "duration": 0.35833297499999617
        },
        {
          "name": "G#5",
          "midi": 80,
          "time": 74.54538000000065,
          "velocity": 0.7559055118110236,
          "duration": 0.17651497500000346
        },
        {
          "name": "A5",
          "midi": 81,
          "time": 74.72719800000066,
          "velocity": 0.7559055118110236,
          "duration": 0.17651497500000346
        },
        {
          "name": "B4",
          "midi": 71,
          "time": 74.90901600000066,
          "velocity": 0.7559055118110236,
          "duration": 0.35833297499999617
        },
        {
          "name": "D#5",
          "midi": 75,
          "time": 74.90901600000066,
          "velocity": 0.7559055118110236,
          "duration": 0.35833297499999617
        },
        {
          "name": "F#5",
          "midi": 78,
          "time": 74.90901600000066,
          "velocity": 0.7559055118110236,
          "duration": 0.35833297499999617
        },
        {
          "name": "D#5",
          "midi": 75,
          "time": 75.27265200000066,
          "velocity": 0.7559055118110236,
          "duration": 0.2674239749999998
        },
        {
          "name": "C#5",
          "midi": 73,
          "time": 75.54537900000066,
          "velocity": 0.7559055118110236,
          "duration": 0.0856059750000071
        },
        {
          "name": "E5",
          "midi": 76,
          "time": 75.63628800000068,
          "velocity": 0.7559055118110236,
          "duration": 0.35833297499999617
        },
        {
          "name": "F#5",
          "midi": 78,
          "time": 75.99992400000068,
          "velocity": 0.7559055118110236,
          "duration": 0.2674239749999998
        },
        {
          "name": "E5",
          "midi": 76,
          "time": 76.27265100000068,
          "velocity": 0.7559055118110236,
          "duration": 0.0856059749999929
        },
        {
          "name": "D#5",
          "midi": 75,
          "time": 76.36356000000067,
          "velocity": 0.7559055118110236,
          "duration": 0.17651497500000346
        },
        {
          "name": "C#5",
          "midi": 73,
          "time": 76.54537800000068,
          "velocity": 0.7559055118110236,
          "duration": 0.17651497500000346
        },
        {
          "name": "B4",
          "midi": 71,
          "time": 76.90901400000068,
          "velocity": 0.7559055118110236,
          "duration": 0.17651497500000346
        },
        {
          "name": "A4",
          "midi": 69,
          "time": 77.09083200000069,
          "velocity": 0.7559055118110236,
          "duration": 0.35833297499999617
        },
        {
          "name": "C#5",
          "midi": 73,
          "time": 77.09083200000069,
          "velocity": 0.7559055118110236,
          "duration": 0.35833297499999617
        },
        {
          "name": "C#5",
          "midi": 73,
          "time": 77.45446800000069,
          "velocity": 0.7559055118110236,
          "duration": 0.17651497500000346
        },
        {
          "name": "F#4",
          "midi": 66,
          "time": 77.6362860000007,
          "velocity": 0.7559055118110236,
          "duration": 0.35833297499999617
        },
        {
          "name": "B4",
          "midi": 71,
          "time": 77.6362860000007,
          "velocity": 0.7559055118110236,
          "duration": 0.35833297499999617
        },
        {
          "name": "E5",
          "midi": 76,
          "time": 77.6362860000007,
          "velocity": 0.7559055118110236,
          "duration": 0.35833297499999617
        },
        {
          "name": "E5",
          "midi": 76,
          "time": 77.9999220000007,
          "velocity": 0.7559055118110236,
          "duration": 0.17651497500000346
        },
        {
          "name": "F#5",
          "midi": 78,
          "time": 78.1817400000007,
          "velocity": 0.7559055118110236,
          "duration": 0.35833297499999617
        },
        {
          "name": "G#4",
          "midi": 68,
          "time": 78.5453760000007,
          "velocity": 0.7559055118110236,
          "duration": 0.7219689749999958
        },
        {
          "name": "C#5",
          "midi": 73,
          "time": 78.5453760000007,
          "velocity": 0.7559055118110236,
          "duration": 0.7219689749999958
        },
        {
          "name": "C#5",
          "midi": 73,
          "time": 79.45446600000069,
          "velocity": 0.7559055118110236,
          "duration": 0.17651497500000346
        },
        {
          "name": "E5",
          "midi": 76,
          "time": 79.6362840000007,
          "velocity": 0.7559055118110236,
          "duration": 0.17651497500000346
        },
        {
          "name": "F#5",
          "midi": 78,
          "time": 79.8181020000007,
          "velocity": 0.7559055118110236,
          "duration": 0.17651497500000346
        },
        {
          "name": "G#5",
          "midi": 80,
          "time": 79.99992000000071,
          "velocity": 0.7559055118110236,
          "duration": 0.35833297499999617
        },
        {
          "name": "E5",
          "midi": 76,
          "time": 79.99992000000071,
          "velocity": 0.7559055118110236,
          "duration": 0.35833297499999617
        },
        {
          "name": "C#5",
          "midi": 73,
          "time": 79.99992000000071,
          "velocity": 0.7559055118110236,
          "duration": 0.35833297499999617
        },
        {
          "name": "A5",
          "midi": 81,
          "time": 80.36355600000071,
          "velocity": 0.7559055118110236,
          "duration": 0.35833297499999617
        },
        {
          "name": "B4",
          "midi": 71,
          "time": 80.72719200000071,
          "velocity": 0.7559055118110236,
          "duration": 0.35833297499999617
        },
        {
          "name": "D#5",
          "midi": 75,
          "time": 80.72719200000071,
          "velocity": 0.7559055118110236,
          "duration": 0.35833297499999617
        },
        {
          "name": "F#5",
          "midi": 78,
          "time": 80.72719200000071,
          "velocity": 0.7559055118110236,
          "duration": 0.35833297499999617
        },
        {
          "name": "F#5",
          "midi": 78,
          "time": 81.09082800000071,
          "velocity": 0.7559055118110236,
          "duration": 0.2674239749999998
        },
        {
          "name": "C#5",
          "midi": 73,
          "time": 81.36355500000072,
          "velocity": 0.7559055118110236,
          "duration": 0.0856059750000071
        },
        {
          "name": "E5",
          "midi": 76,
          "time": 81.45446400000073,
          "velocity": 0.7559055118110236,
          "duration": 0.17651497500000346
        },
        {
          "name": "E5",
          "midi": 76,
          "time": 81.63628200000073,
          "velocity": 0.7559055118110236,
          "duration": 0.17651497500000346
        },
        {
          "name": "F#5",
          "midi": 78,
          "time": 81.81810000000074,
          "velocity": 0.7559055118110236,
          "duration": 0.17651497500000346
        },
        {
          "name": "E5",
          "midi": 76,
          "time": 81.99991800000075,
          "velocity": 0.7559055118110236,
          "duration": 0.17651497500000346
        },
        {
          "name": "D#5",
          "midi": 75,
          "time": 82.18173600000075,
          "velocity": 0.7559055118110236,
          "duration": 0.17651497500000346
        },
        {
          "name": "C#5",
          "midi": 73,
          "time": 82.36355400000076,
          "velocity": 0.7559055118110236,
          "duration": 0.17651497500000346
        },
        {
          "name": "B4",
          "midi": 71,
          "time": 82.72719000000076,
          "velocity": 0.7559055118110236,
          "duration": 0.17651497500000346
        },
        {
          "name": "A4",
          "midi": 69,
          "time": 82.90900800000077,
          "velocity": 0.7559055118110236,
          "duration": 0.35833297499999617
        },
        {
          "name": "C#5",
          "midi": 73,
          "time": 82.90900800000077,
          "velocity": 0.7559055118110236,
          "duration": 0.35833297499999617
        },
        {
          "name": "C#5",
          "midi": 73,
          "time": 83.27264400000077,
          "velocity": 0.7559055118110236,
          "duration": 0.17651497500000346
        },
        {
          "name": "F#4",
          "midi": 66,
          "time": 83.45446200000077,
          "velocity": 0.7559055118110236,
          "duration": 0.35833297499999617
        },
        {
          "name": "B4",
          "midi": 71,
          "time": 83.45446200000077,
          "velocity": 0.7559055118110236,
          "duration": 0.35833297499999617
        },
        {
          "name": "E5",
          "midi": 76,
          "time": 83.45446200000077,
          "velocity": 0.7559055118110236,
          "duration": 0.35833297499999617
        },
        {
          "name": "E5",
          "midi": 76,
          "time": 83.81809800000077,
          "velocity": 0.7559055118110236,
          "duration": 0.17651497500000346
        },
        {
          "name": "F#5",
          "midi": 78,
          "time": 83.99991600000078,
          "velocity": 0.7559055118110236,
          "duration": 0.35833297499999617
        },
        {
          "name": "G#4",
          "midi": 68,
          "time": 84.36355200000078,
          "velocity": 0.7559055118110236,
          "duration": 1.449240974999995
        },
        {
          "name": "C#5",
          "midi": 73,
          "time": 84.36355200000078,
          "velocity": 0.7559055118110236,
          "duration": 1.449240974999995
        },
        {
          "name": "C5",
          "midi": 72,
          "time": 85.81809600000078,
          "velocity": 0.7559055118110236,
          "duration": 1.449240974999995
        },
        {
          "name": "D#5",
          "midi": 75,
          "time": 85.81809600000078,
          "velocity": 0.7559055118110236,
          "duration": 1.449240974999995
        },
        {
          "name": "G5",
          "midi": 79,
          "time": 85.81809600000078,
          "velocity": 0.7559055118110236,
          "duration": 1.449240974999995
        },
        {
          "name": "D#5",
          "midi": 75,
          "time": 87.27264000000078,
          "velocity": 0.7559055118110236,
          "duration": 1.449240974999995
        },
        {
          "name": "G5",
          "midi": 79,
          "time": 87.27264000000078,
          "velocity": 0.7559055118110236,
          "duration": 1.449240974999995
        },
        {
          "name": "A#5",
          "midi": 82,
          "time": 87.27264000000078,
          "velocity": 0.7559055118110236,
          "duration": 1.449240974999995
        },
        {
          "name": "C#5",
          "midi": 73,
          "time": 88.72718400000078,
          "velocity": 0.7559055118110236,
          "duration": 1.0856049749999954
        },
        {
          "name": "F5",
          "midi": 77,
          "time": 88.72718400000078,
          "velocity": 0.7559055118110236,
          "duration": 1.0856049749999954
        },
        {
          "name": "G#5",
          "midi": 80,
          "time": 88.72718400000078,
          "velocity": 0.7559055118110236,
          "duration": 1.0856049749999954
        },
        {
          "name": "F5",
          "midi": 77,
          "time": 89.81809200000077,
          "velocity": 0.7559055118110236,
          "duration": 0.35833297499999617
        },
        {
          "name": "C5",
          "midi": 72,
          "time": 90.18172800000077,
          "velocity": 0.7559055118110236,
          "duration": 1.449240974999995
        },
        {
          "name": "D#5",
          "midi": 75,
          "time": 90.18172800000077,
          "velocity": 0.7559055118110236,
          "duration": 1.449240974999995
        },
        {
          "name": "G5",
          "midi": 79,
          "time": 90.18172800000077,
          "velocity": 0.7559055118110236,
          "duration": 1.449240974999995
        },
        {
          "name": "C5",
          "midi": 72,
          "time": 91.63627200000077,
          "velocity": 0.7559055118110236,
          "duration": 1.449240974999995
        },
        {
          "name": "D#5",
          "midi": 75,
          "time": 91.63627200000077,
          "velocity": 0.7559055118110236,
          "duration": 1.449240974999995
        },
        {
          "name": "G5",
          "midi": 79,
          "time": 91.63627200000077,
          "velocity": 0.7559055118110236,
          "duration": 1.449240974999995
        },
        {
          "name": "D#5",
          "midi": 75,
          "time": 93.09081600000077,
          "velocity": 0.7559055118110236,
          "duration": 1.449240974999995
        },
        {
          "name": "G5",
          "midi": 79,
          "time": 93.09081600000077,
          "velocity": 0.7559055118110236,
          "duration": 1.449240974999995
        },
        {
          "name": "A#5",
          "midi": 82,
          "time": 93.09081600000077,
          "velocity": 0.7559055118110236,
          "duration": 1.449240974999995
        },
        {
          "name": "C#5",
          "midi": 73,
          "time": 94.54536000000077,
          "velocity": 0.7559055118110236,
          "duration": 1.0856049749999954
        },
        {
          "name": "F5",
          "midi": 77,
          "time": 94.54536000000077,
          "velocity": 0.7559055118110236,
          "duration": 1.0856049749999954
        },
        {
          "name": "G#5",
          "midi": 80,
          "time": 94.54536000000077,
          "velocity": 0.7559055118110236,
          "duration": 1.0856049749999954
        },
        {
          "name": "A#5",
          "midi": 82,
          "time": 95.63626800000077,
          "velocity": 0.7559055118110236,
          "duration": 0.35833297499999617
        },
        {
          "name": "C5",
          "midi": 72,
          "time": 95.99990400000077,
          "velocity": 0.7559055118110236,
          "duration": 1.449240974999995
        },
        {
          "name": "D#5",
          "midi": 75,
          "time": 95.99990400000077,
          "velocity": 0.7559055118110236,
          "duration": 1.449240974999995
        },
        {
          "name": "G5",
          "midi": 79,
          "time": 95.99990400000077,
          "velocity": 0.7559055118110236,
          "duration": 1.449240974999995
        },
        {
          "name": "G5",
          "midi": 79,
          "time": 97.45444800000077,
          "velocity": 0.7559055118110236,
          "duration": 0.35833297499999617
        },
        {
          "name": "F5",
          "midi": 77,
          "time": 97.81808400000077,
          "velocity": 0.7559055118110236,
          "duration": 0.17651497500000346
        },
        {
          "name": "D#5",
          "midi": 75,
          "time": 97.99990200000077,
          "velocity": 0.7559055118110236,
          "duration": 0.35833297499999617
        },
        {
          "name": "C5",
          "midi": 72,
          "time": 98.36353800000077,
          "velocity": 0.7559055118110236,
          "duration": 0.17651497500000346
        },
        {
          "name": "C5",
          "midi": 72,
          "time": 98.54535600000078,
          "velocity": 0.7559055118110236,
          "duration": 0.17651497500000346
        },
        {
          "name": "A#4",
          "midi": 70,
          "time": 98.72717400000079,
          "velocity": 0.7559055118110236,
          "duration": 0.17651497500000346
        },
        {
          "name": "C5",
          "midi": 72,
          "time": 98.9089920000008,
          "velocity": 0.7559055118110236,
          "duration": 0.35833297499999617
        },
        {
          "name": "A#4",
          "midi": 70,
          "time": 99.2726280000008,
          "velocity": 0.7559055118110236,
          "duration": 0.13106047499999818
        },
        {
          "name": "C5",
          "midi": 72,
          "time": 99.4089915000008,
          "velocity": 0.7559055118110236,
          "duration": 0.040151475000001824
        },
        {
          "name": "D#5",
          "midi": 75,
          "time": 99.4544460000008,
          "velocity": 0.7559055118110236,
          "duration": 0.35833297499999617
        },
        {
          "name": "A#4",
          "midi": 70,
          "time": 99.8180820000008,
          "velocity": 0.7559055118110236,
          "duration": 0.13106047499999818
        },
        {
          "name": "C5",
          "midi": 72,
          "time": 99.9544455000008,
          "velocity": 0.7559055118110236,
          "duration": 0.040151475000001824
        },
        {
          "name": "C5",
          "midi": 72,
          "time": 99.9999000000008,
          "velocity": 0.7559055118110236,
          "duration": 0.17651497500000346
        },
        {
          "name": "D#5",
          "midi": 75,
          "time": 100.18171800000081,
          "velocity": 0.7559055118110236,
          "duration": 0.17651497500000346
        },
        {
          "name": "F5",
          "midi": 77,
          "time": 100.36353600000082,
          "velocity": 0.7559055118110236,
          "duration": 0.17651497500000346
        },
        {
          "name": "F5",
          "midi": 77,
          "time": 100.54535400000083,
          "velocity": 0.7559055118110236,
          "duration": 0.17651497500000346
        },
        {
          "name": "D#5",
          "midi": 75,
          "time": 100.72717200000083,
          "velocity": 0.7559055118110236,
          "duration": 0.17651497500000346
        },
        {
          "name": "F5",
          "midi": 77,
          "time": 100.90899000000084,
          "velocity": 0.7559055118110236,
          "duration": 0.35833297499999617
        },
        {
          "name": "F5",
          "midi": 77,
          "time": 101.27262600000084,
          "velocity": 0.7559055118110236,
          "duration": 0.17651497500000346
        },
        {
          "name": "G5",
          "midi": 79,
          "time": 101.45444400000085,
          "velocity": 0.7559055118110236,
          "duration": 0.35833297499999617
        },
        {
          "name": "C5",
          "midi": 72,
          "time": 101.81808000000085,
          "velocity": 0.7559055118110236,
          "duration": 0.35833297499999617
        },
        {
          "name": "C5",
          "midi": 72,
          "time": 102.18171600000085,
          "velocity": 0.7559055118110236,
          "duration": 0.17651497500000346
        },
        {
          "name": "D#5",
          "midi": 75,
          "time": 102.36353400000085,
          "velocity": 0.7559055118110236,
          "duration": 0.9037869750000027
        },
        {
          "name": "G5",
          "midi": 79,
          "time": 103.27262400000086,
          "velocity": 0.7559055118110236,
          "duration": 0.17651497500000346
        },
        {
          "name": "G5",
          "midi": 79,
          "time": 103.45444200000087,
          "velocity": 0.7559055118110236,
          "duration": 0.17651497500000346
        },
        {
          "name": "F5",
          "midi": 77,
          "time": 103.63626000000087,
          "velocity": 0.7559055118110236,
          "duration": 0.17651497500000346
        },
        {
          "name": "D#5",
          "midi": 75,
          "time": 103.81807800000088,
          "velocity": 0.7559055118110236,
          "duration": 0.35833297499999617
        },
        {
          "name": "C5",
          "midi": 72,
          "time": 104.18171400000088,
          "velocity": 0.7559055118110236,
          "duration": 0.17651497500000346
        },
        {
          "name": "C5",
          "midi": 72,
          "time": 104.36353200000089,
          "velocity": 0.7559055118110236,
          "duration": 0.17651497500000346
        },
        {
          "name": "A#4",
          "midi": 70,
          "time": 104.5453500000009,
          "velocity": 0.7559055118110236,
          "duration": 0.17651497500000346
        },
        {
          "name": "C5",
          "midi": 72,
          "time": 104.7271680000009,
          "velocity": 0.7559055118110236,
          "duration": 0.17651497500000346
        },
        {
          "name": "C5",
          "midi": 72,
          "time": 104.90898600000091,
          "velocity": 0.7559055118110236,
          "duration": 0.17651497500000346
        },
        {
          "name": "A#4",
          "midi": 70,
          "time": 105.09080400000092,
          "velocity": 0.7559055118110236,
          "duration": 0.17651497500000346
        },
        {
          "name": "C5",
          "midi": 72,
          "time": 105.27262200000092,
          "velocity": 0.7559055118110236,
          "duration": 0.17651497500000346
        },
        {
          "name": "C5",
          "midi": 72,
          "time": 105.63625800000092,
          "velocity": 0.7559055118110236,
          "duration": 0.17651497500000346
        },
        {
          "name": "C5",
          "midi": 72,
          "time": 105.81807600000093,
          "velocity": 0.7559055118110236,
          "duration": 0.17651497500000346
        },
        {
          "name": "D#5",
          "midi": 75,
          "time": 105.99989400000094,
          "velocity": 0.7559055118110236,
          "duration": 0.17651497500000346
        },
        {
          "name": "F5",
          "midi": 77,
          "time": 106.18171200000094,
          "velocity": 0.7559055118110236,
          "duration": 0.17651497500000346
        },
        {
          "name": "F5",
          "midi": 77,
          "time": 106.36353000000095,
          "velocity": 0.7559055118110236,
          "duration": 0.17651497500000346
        },
        {
          "name": "D#5",
          "midi": 75,
          "time": 106.54534800000096,
          "velocity": 0.7559055118110236,
          "duration": 0.17651497500000346
        },
        {
          "name": "F5",
          "midi": 77,
          "time": 106.72716600000096,
          "velocity": 0.7559055118110236,
          "duration": 0.35833297499999617
        },
        {
          "name": "F5",
          "midi": 77,
          "time": 107.09080200000096,
          "velocity": 0.7559055118110236,
          "duration": 0.17651497500000346
        },
        {
          "name": "G5",
          "midi": 79,
          "time": 107.27262000000097,
          "velocity": 0.7559055118110236,
          "duration": 0.35833297499999617
        },
        {
          "name": "C5",
          "midi": 72,
          "time": 107.63625600000097,
          "velocity": 0.7559055118110236,
          "duration": 1.449240974999995
        },
        {
          "name": "C5",
          "midi": 72,
          "time": 109.09080000000097,
          "velocity": 0.7559055118110236,
          "duration": 0.2674239749999998
        },
        {
          "name": "D#5",
          "midi": 75,
          "time": 109.09080000000097,
          "velocity": 0.7559055118110236,
          "duration": 0.2674239749999998
        },
        {
          "name": "F5",
          "midi": 77,
          "time": 109.36352700000097,
          "velocity": 0.7559055118110236,
          "duration": 0.2674239749999998
        },
        {
          "name": "D#5",
          "midi": 75,
          "time": 109.63625400000097,
          "velocity": 0.7559055118110236,
          "duration": 0.17651497500000346
        },
        {
          "name": "F5",
          "midi": 77,
          "time": 109.81807200000098,
          "velocity": 0.7559055118110236,
          "duration": 0.7219689749999958
        },
        {
          "name": "A#4",
          "midi": 70,
          "time": 110.54534400000098,
          "velocity": 0.7559055118110236,
          "duration": 0.2674239749999998
        },
        {
          "name": "D#5",
          "midi": 75,
          "time": 110.54534400000098,
          "velocity": 0.7559055118110236,
          "duration": 0.2674239749999998
        },
        {
          "name": "F5",
          "midi": 77,
          "time": 110.81807100000098,
          "velocity": 0.7559055118110236,
          "duration": 0.2674239749999998
        },
        {
          "name": "D#5",
          "midi": 75,
          "time": 111.09079800000099,
          "velocity": 0.7559055118110236,
          "duration": 0.17651497500000346
        },
        {
          "name": "F5",
          "midi": 77,
          "time": 111.272616000001,
          "velocity": 0.7559055118110236,
          "duration": 0.35833297499999617
        },
        {
          "name": "D#5",
          "midi": 75,
          "time": 111.636252000001,
          "velocity": 0.7559055118110236,
          "duration": 0.35833297499999617
        },
        {
          "name": "A#4",
          "midi": 70,
          "time": 111.999888000001,
          "velocity": 0.7559055118110236,
          "duration": 0.5401509750000031
        },
        {
          "name": "D5",
          "midi": 74,
          "time": 111.999888000001,
          "velocity": 0.7559055118110236,
          "duration": 0.5401509750000031
        },
        {
          "name": "A#4",
          "midi": 70,
          "time": 112.545342000001,
          "velocity": 0.7559055118110236,
          "duration": 0.5401509750000031
        },
        {
          "name": "F4",
          "midi": 65,
          "time": 113.090796000001,
          "velocity": 0.7559055118110236,
          "duration": 0.35833297499999617
        },
        {
          "name": "G4",
          "midi": 67,
          "time": 113.454432000001,
          "velocity": 0.7559055118110236,
          "duration": 0.7219689749999958
        },
        {
          "name": "C5",
          "midi": 72,
          "time": 114.181704000001,
          "velocity": 0.7559055118110236,
          "duration": 0.35833297499999617
        },
        {
          "name": "D5",
          "midi": 74,
          "time": 114.545340000001,
          "velocity": 0.7559055118110236,
          "duration": 0.35833297499999617
        },
        {
          "name": "C5",
          "midi": 72,
          "time": 114.908976000001,
          "velocity": 0.7559055118110236,
          "duration": 0.2674239749999998
        },
        {
          "name": "D#5",
          "midi": 75,
          "time": 114.908976000001,
          "velocity": 0.7559055118110236,
          "duration": 0.2674239749999998
        },
        {
          "name": "F5",
          "midi": 77,
          "time": 115.18170300000101,
          "velocity": 0.7559055118110236,
          "duration": 0.2674239749999998
        },
        {
          "name": "D#5",
          "midi": 75,
          "time": 115.45443000000101,
          "velocity": 0.7559055118110236,
          "duration": 0.17651497500000346
        },
        {
          "name": "F5",
          "midi": 77,
          "time": 115.63624800000102,
          "velocity": 0.7559055118110236,
          "duration": 0.7219689749999958
        },
        {
          "name": "A#4",
          "midi": 70,
          "time": 116.36352000000102,
          "velocity": 0.7559055118110236,
          "duration": 0.2674239749999998
        },
        {
          "name": "D#5",
          "midi": 75,
          "time": 116.36352000000102,
          "velocity": 0.7559055118110236,
          "duration": 0.2674239749999998
        },
        {
          "name": "F5",
          "midi": 77,
          "time": 116.63624700000102,
          "velocity": 0.7559055118110236,
          "duration": 0.2674239749999998
        },
        {
          "name": "D#5",
          "midi": 75,
          "time": 116.90897400000102,
          "velocity": 0.7559055118110236,
          "duration": 0.17651497500000346
        },
        {
          "name": "D5",
          "midi": 74,
          "time": 117.09079200000103,
          "velocity": 0.7559055118110236,
          "duration": 0.35833297499999617
        },
        {
          "name": "C5",
          "midi": 72,
          "time": 117.45442800000103,
          "velocity": 0.7559055118110236,
          "duration": 0.35833297499999617
        },
        {
          "name": "C4",
          "midi": 60,
          "time": 117.81806400000103,
          "velocity": 0.7559055118110236,
          "duration": 0.17651497500000346
        },
        {
          "name": "C4",
          "midi": 60,
          "time": 117.99988200000104,
          "velocity": 0.7559055118110236,
          "duration": 0.17651497500000346
        },
        {
          "name": "G#3",
          "midi": 56,
          "time": 118.36351800000104,
          "velocity": 0.7559055118110236,
          "duration": 0.17651497500000346
        },
        {
          "name": "G#3",
          "midi": 56,
          "time": 118.54533600000104,
          "velocity": 0.7559055118110236,
          "duration": 0.17651497500000346
        },
        {
          "name": "A#3",
          "midi": 58,
          "time": 118.90897200000104,
          "velocity": 0.7559055118110236,
          "duration": 0.17651497500000346
        },
        {
          "name": "A#3",
          "midi": 58,
          "time": 119.09079000000105,
          "velocity": 0.7559055118110236,
          "duration": 0.17651497500000346
        },
        {
          "name": "G3",
          "midi": 55,
          "time": 119.63624400000106,
          "velocity": 0.7559055118110236,
          "duration": 0.0856059749999929
        },
        {
          "name": "C4",
          "midi": 60,
          "time": 119.72715300000105,
          "velocity": 0.7559055118110236,
          "duration": 0.0856059750000071
        },
        {
          "name": "D4",
          "midi": 62,
          "time": 119.81806200000106,
          "velocity": 0.7559055118110236,
          "duration": 0.17651497500000346
        },
        {
          "name": "G4",
          "midi": 67,
          "time": 119.99988000000107,
          "velocity": 0.7559055118110236,
          "duration": 0.0856059749999929
        },
        {
          "name": "C5",
          "midi": 72,
          "time": 120.09078900000107,
          "velocity": 0.7559055118110236,
          "duration": 0.0856059750000071
        },
        {
          "name": "D5",
          "midi": 74,
          "time": 120.18169800000108,
          "velocity": 0.7559055118110236,
          "duration": 0.17651497500000346
        },
        {
          "name": "G5",
          "midi": 79,
          "time": 120.36351600000108,
          "velocity": 0.7559055118110236,
          "duration": 0.35833297499999617
        },
        {
          "name": "G#5",
          "midi": 80,
          "time": 120.72715200000108,
          "velocity": 0.7559055118110236,
          "duration": 0.35833297499999617
        },
        {
          "name": "E5",
          "midi": 76,
          "time": 120.72715200000108,
          "velocity": 0.7559055118110236,
          "duration": 0.35833297499999617
        },
        {
          "name": "C#5",
          "midi": 73,
          "time": 120.72715200000108,
          "velocity": 0.7559055118110236,
          "duration": 0.35833297499999617
        },
        {
          "name": "A5",
          "midi": 81,
          "time": 121.09078800000108,
          "velocity": 0.7559055118110236,
          "duration": 0.35833297499999617
        },
        {
          "name": "B4",
          "midi": 71,
          "time": 121.45442400000108,
          "velocity": 0.7559055118110236,
          "duration": 0.35833297499999617
        },
        {
          "name": "D#5",
          "midi": 75,
          "time": 121.45442400000108,
          "velocity": 0.7559055118110236,
          "duration": 0.35833297499999617
        },
        {
          "name": "F#5",
          "midi": 78,
          "time": 121.45442400000108,
          "velocity": 0.7559055118110236,
          "duration": 0.35833297499999617
        },
        {
          "name": "F#5",
          "midi": 78,
          "time": 121.81806000000108,
          "velocity": 0.7559055118110236,
          "duration": 0.2674239749999998
        },
        {
          "name": "C#5",
          "midi": 73,
          "time": 122.09078700000109,
          "velocity": 0.7559055118110236,
          "duration": 0.0856059749999929
        },
        {
          "name": "E5",
          "midi": 76,
          "time": 122.18169600000108,
          "velocity": 0.7559055118110236,
          "duration": 0.17651497500000346
        },
        {
          "name": "E5",
          "midi": 76,
          "time": 122.36351400000109,
          "velocity": 0.7559055118110236,
          "duration": 0.17651497500000346
        },
        {
          "name": "F#5",
          "midi": 78,
          "time": 122.5453320000011,
          "velocity": 0.7559055118110236,
          "duration": 0.17651497500000346
        },
        {
          "name": "E5",
          "midi": 76,
          "time": 122.7271500000011,
          "velocity": 0.7559055118110236,
          "duration": 0.17651497500000346
        },
        {
          "name": "D#5",
          "midi": 75,
          "time": 122.90896800000111,
          "velocity": 0.7559055118110236,
          "duration": 0.17651497500000346
        },
        {
          "name": "C#5",
          "midi": 73,
          "time": 123.09078600000112,
          "velocity": 0.7559055118110236,
          "duration": 0.17651497500000346
        },
        {
          "name": "B4",
          "midi": 71,
          "time": 123.45442200000112,
          "velocity": 0.7559055118110236,
          "duration": 0.17651497500000346
        },
        {
          "name": "A4",
          "midi": 69,
          "time": 123.63624000000112,
          "velocity": 0.7559055118110236,
          "duration": 0.35833297499999617
        },
        {
          "name": "C#5",
          "midi": 73,
          "time": 123.63624000000112,
          "velocity": 0.7559055118110236,
          "duration": 0.35833297499999617
        },
        {
          "name": "C#5",
          "midi": 73,
          "time": 123.99987600000112,
          "velocity": 0.7559055118110236,
          "duration": 0.17651497500000346
        },
        {
          "name": "F#4",
          "midi": 66,
          "time": 124.18169400000113,
          "velocity": 0.7559055118110236,
          "duration": 0.35833297499999617
        },
        {
          "name": "B4",
          "midi": 71,
          "time": 124.18169400000113,
          "velocity": 0.7559055118110236,
          "duration": 0.35833297499999617
        },
        {
          "name": "E5",
          "midi": 76,
          "time": 124.18169400000113,
          "velocity": 0.7559055118110236,
          "duration": 0.35833297499999617
        },
        {
          "name": "E5",
          "midi": 76,
          "time": 124.54533000000113,
          "velocity": 0.7559055118110236,
          "duration": 0.17651497500000346
        },
        {
          "name": "F#5",
          "midi": 78,
          "time": 124.72714800000114,
          "velocity": 0.7559055118110236,
          "duration": 0.35833297499999617
        },
        {
          "name": "G#4",
          "midi": 68,
          "time": 125.09078400000114,
          "velocity": 0.7559055118110236,
          "duration": 0.7219689749999958
        },
        {
          "name": "C#5",
          "midi": 73,
          "time": 125.09078400000114,
          "velocity": 0.7559055118110236,
          "duration": 0.7219689749999958
        },
        {
          "name": "C#5",
          "midi": 73,
          "time": 125.99987400000113,
          "velocity": 0.7559055118110236,
          "duration": 0.17651497500000346
        },
        {
          "name": "E5",
          "midi": 76,
          "time": 126.18169200000114,
          "velocity": 0.7559055118110236,
          "duration": 0.17651497500000346
        },
        {
          "name": "F#5",
          "midi": 78,
          "time": 126.36351000000114,
          "velocity": 0.7559055118110236,
          "duration": 0.17651497500000346
        },
        {
          "name": "G#5",
          "midi": 80,
          "time": 126.54532800000115,
          "velocity": 0.7559055118110236,
          "duration": 0.35833297499999617
        },
        {
          "name": "E5",
          "midi": 76,
          "time": 126.54532800000115,
          "velocity": 0.7559055118110236,
          "duration": 0.35833297499999617
        },
        {
          "name": "C#5",
          "midi": 73,
          "time": 126.54532800000115,
          "velocity": 0.7559055118110236,
          "duration": 0.35833297499999617
        },
        {
          "name": "A5",
          "midi": 81,
          "time": 126.90896400000115,
          "velocity": 0.7559055118110236,
          "duration": 0.35833297499999617
        },
        {
          "name": "B4",
          "midi": 71,
          "time": 127.27260000000115,
          "velocity": 0.7559055118110236,
          "duration": 0.35833297499999617
        },
        {
          "name": "D#5",
          "midi": 75,
          "time": 127.27260000000115,
          "velocity": 0.7559055118110236,
          "duration": 0.35833297499999617
        },
        {
          "name": "F#5",
          "midi": 78,
          "time": 127.27260000000115,
          "velocity": 0.7559055118110236,
          "duration": 0.35833297499999617
        },
        {
          "name": "F#5",
          "midi": 78,
          "time": 127.63623600000115,
          "velocity": 0.7559055118110236,
          "duration": 0.2674239749999998
        },
        {
          "name": "C#5",
          "midi": 73,
          "time": 127.90896300000115,
          "velocity": 0.7559055118110236,
          "duration": 0.0856059750000071
        },
        {
          "name": "E5",
          "midi": 76,
          "time": 127.99987200000116,
          "velocity": 0.7559055118110236,
          "duration": 0.17651497499998925
        },
        {
          "name": "E5",
          "midi": 76,
          "time": 128.18169000000114,
          "velocity": 0.7559055118110236,
          "duration": 0.17651497500000346
        },
        {
          "name": "F#5",
          "midi": 78,
          "time": 128.36350800000113,
          "velocity": 0.7559055118110236,
          "duration": 0.17651497500000346
        },
        {
          "name": "E5",
          "midi": 76,
          "time": 128.54532600000113,
          "velocity": 0.7559055118110236,
          "duration": 0.17651497500000346
        },
        {
          "name": "D#5",
          "midi": 75,
          "time": 128.72714400000112,
          "velocity": 0.7559055118110236,
          "duration": 0.17651497500000346
        },
        {
          "name": "C#5",
          "midi": 73,
          "time": 128.9089620000011,
          "velocity": 0.7559055118110236,
          "duration": 0.17651497500000346
        },
        {
          "name": "B4",
          "midi": 71,
          "time": 129.27259800000112,
          "velocity": 0.7559055118110236,
          "duration": 0.17651497500000346
        },
        {
          "name": "A4",
          "midi": 69,
          "time": 129.45441600000112,
          "velocity": 0.7559055118110236,
          "duration": 0.35833297499999617
        },
        {
          "name": "C#5",
          "midi": 73,
          "time": 129.45441600000112,
          "velocity": 0.7559055118110236,
          "duration": 0.35833297499999617
        },
        {
          "name": "C#5",
          "midi": 73,
          "time": 129.8180520000011,
          "velocity": 0.7559055118110236,
          "duration": 0.17651497500000346
        },
        {
          "name": "F#4",
          "midi": 66,
          "time": 129.9998700000011,
          "velocity": 0.7559055118110236,
          "duration": 0.35833297499999617
        },
        {
          "name": "B4",
          "midi": 71,
          "time": 129.9998700000011,
          "velocity": 0.7559055118110236,
          "duration": 0.35833297499999617
        },
        {
          "name": "E5",
          "midi": 76,
          "time": 129.9998700000011,
          "velocity": 0.7559055118110236,
          "duration": 0.35833297499999617
        },
        {
          "name": "E5",
          "midi": 76,
          "time": 130.36350600000108,
          "velocity": 0.7559055118110236,
          "duration": 0.17651497500000346
        },
        {
          "name": "F#5",
          "midi": 78,
          "time": 130.54532400000107,
          "velocity": 0.7559055118110236,
          "duration": 0.35833297499999617
        },
        {
          "name": "G#4",
          "midi": 68,
          "time": 130.90896000000106,
          "velocity": 0.7559055118110236,
          "duration": 1.4492409750000093
        },
        {
          "name": "C#5",
          "midi": 73,
          "time": 130.90896000000106,
          "velocity": 0.7559055118110236,
          "duration": 1.4492409750000093
        },
        {
          "name": "C#5",
          "midi": 73,
          "time": 132.36350400000106,
          "velocity": 0.7559055118110236,
          "duration": 0.72196897500001
        },
        {
          "name": "B4",
          "midi": 71,
          "time": 133.09077600000106,
          "velocity": 0.7559055118110236,
          "duration": 0.72196897500001
        },
        {
          "name": "G#4",
          "midi": 68,
          "time": 133.81804800000106,
          "velocity": 0.7559055118110236,
          "duration": 1.4492409750000093
        },
        {
          "name": "F#4",
          "midi": 66,
          "time": 135.27259200000105,
          "velocity": 0.7559055118110236,
          "duration": 0.72196897500001
        },
        {
          "name": "G#4",
          "midi": 68,
          "time": 135.99986400000105,
          "velocity": 0.7559055118110236,
          "duration": 0.72196897500001
        },
        {
          "name": "C#4",
          "midi": 61,
          "time": 136.72713600000105,
          "velocity": 0.7559055118110236,
          "duration": 1.4492409750000093
        },
        {
          "name": "C#5",
          "midi": 73,
          "time": 138.18168000000105,
          "velocity": 0.7559055118110236,
          "duration": 0.72196897500001
        },
        {
          "name": "B4",
          "midi": 71,
          "time": 138.90895200000105,
          "velocity": 0.7559055118110236,
          "duration": 0.72196897500001
        },
        {
          "name": "G#4",
          "midi": 68,
          "time": 139.63622400000105,
          "velocity": 0.7559055118110236,
          "duration": 1.4492409750000093
        },
        {
          "name": "F#4",
          "midi": 66,
          "time": 141.09076800000105,
          "velocity": 0.7559055118110236,
          "duration": 0.72196897500001
        },
        {
          "name": "G#4",
          "midi": 68,
          "time": 141.81804000000105,
          "velocity": 0.7559055118110236,
          "duration": 0.72196897500001
        },
        {
          "name": "C#4",
          "midi": 61,
          "time": 142.54531200000105,
          "velocity": 0.7559055118110236,
          "duration": 1.4492409750000093
        },
        {
          "name": "D#5",
          "midi": 75,
          "time": 143.99985600000105,
          "velocity": 0.7559055118110236,
          "duration": 1.4492409750000093
        },
        {
          "name": "C5",
          "midi": 72,
          "time": 143.99985600000105,
          "velocity": 0.7559055118110236,
          "duration": 1.4492409750000093
        },
        {
          "name": "A5",
          "midi": 81,
          "time": 143.99985600000105,
          "velocity": 0.7559055118110236,
          "duration": 1.4492409750000093
        },
        {
          "name": "G#5",
          "midi": 80,
          "time": 145.45440000000104,
          "velocity": 0.7559055118110236,
          "duration": 1.4492409750000093
        },
        {
          "name": "E5",
          "midi": 76,
          "time": 145.45440000000104,
          "velocity": 0.7559055118110236,
          "duration": 1.4492409750000093
        },
        {
          "name": "C#5",
          "midi": 73,
          "time": 145.45440000000104,
          "velocity": 0.7559055118110236,
          "duration": 1.4492409750000093
        },
        {
          "name": "F#4",
          "midi": 66,
          "time": 147.09076200000106,
          "velocity": 0.7559055118110236,
          "duration": 0.17651497500000346
        },
        {
          "name": "C5",
          "midi": 72,
          "time": 147.27258000000106,
          "velocity": 0.7559055118110236,
          "duration": 0.17651497500000346
        },
        {
          "name": "A4",
          "midi": 69,
          "time": 147.45439800000105,
          "velocity": 0.7559055118110236,
          "duration": 0.17651497500000346
        },
        {
          "name": "D#5",
          "midi": 75,
          "time": 147.63621600000104,
          "velocity": 0.7559055118110236,
          "duration": 0.17651497500000346
        },
        {
          "name": "C5",
          "midi": 72,
          "time": 147.81803400000103,
          "velocity": 0.7559055118110236,
          "duration": 0.17651497500000346
        },
        {
          "name": "F#5",
          "midi": 78,
          "time": 147.99985200000103,
          "velocity": 0.7559055118110236,
          "duration": 0.17651497500000346
        },
        {
          "name": "D#5",
          "midi": 75,
          "time": 148.18167000000102,
          "velocity": 0.7559055118110236,
          "duration": 0.17651497500000346
        },
        {
          "name": "E5",
          "midi": 76,
          "time": 148.363488000001,
          "velocity": 0.7559055118110236,
          "duration": 0.17651497500000346
        },
        {
          "name": "C#5",
          "midi": 73,
          "time": 148.545306000001,
          "velocity": 0.7559055118110236,
          "duration": 0.17651497500000346
        },
        {
          "name": "F#5",
          "midi": 78,
          "time": 148.727124000001,
          "velocity": 0.7559055118110236,
          "duration": 0.17651497500000346
        },
        {
          "name": "C#5",
          "midi": 73,
          "time": 148.908942000001,
          "velocity": 0.7559055118110236,
          "duration": 0.17651497500000346
        },
        {
          "name": "G#5",
          "midi": 80,
          "time": 149.09076000000098,
          "velocity": 0.7559055118110236,
          "duration": 0.17651497500000346
        },
        {
          "name": "C#5",
          "midi": 73,
          "time": 149.27257800000098,
          "velocity": 0.7559055118110236,
          "duration": 0.17651497500000346
        },
        {
          "name": "B5",
          "midi": 83,
          "time": 149.45439600000097,
          "velocity": 0.7559055118110236,
          "duration": 0.17651497500000346
        },
        {
          "name": "C#5",
          "midi": 73,
          "time": 149.63621400000096,
          "velocity": 0.7559055118110236,
          "duration": 0.17651497500000346
        },
        {
          "name": "A4",
          "midi": 69,
          "time": 149.81803200000095,
          "velocity": 0.7559055118110236,
          "duration": 1.4492409750000093
        },
        {
          "name": "C#5",
          "midi": 73,
          "time": 149.81803200000095,
          "velocity": 0.7559055118110236,
          "duration": 1.4492409750000093
        },
        {
          "name": "E5",
          "midi": 76,
          "time": 149.81803200000095,
          "velocity": 0.7559055118110236,
          "duration": 1.4492409750000093
        },
        {
          "name": "B4",
          "midi": 71,
          "time": 151.27257600000095,
          "velocity": 0.7559055118110236,
          "duration": 1.4492409750000093
        },
        {
          "name": "B5",
          "midi": 83,
          "time": 151.27257600000095,
          "velocity": 0.7559055118110236,
          "duration": 1.4492409750000093
        },
        {
          "name": "E5",
          "midi": 76,
          "time": 151.27257600000095,
          "velocity": 0.7559055118110236,
          "duration": 1.4492409750000093
        },
        {
          "name": "E5",
          "midi": 76,
          "time": 152.72712000000095,
          "velocity": 0.7559055118110236,
          "duration": 0.17651497500000346
        },
        {
          "name": "C#5",
          "midi": 73,
          "time": 152.90893800000094,
          "velocity": 0.7559055118110236,
          "duration": 0.17651497500000346
        },
        {
          "name": "G5",
          "midi": 79,
          "time": 153.09075600000094,
          "velocity": 0.7559055118110236,
          "duration": 0.17651497500000346
        },
        {
          "name": "E5",
          "midi": 76,
          "time": 153.27257400000093,
          "velocity": 0.7559055118110236,
          "duration": 0.17651497500000346
        },
        {
          "name": "A#5",
          "midi": 82,
          "time": 153.45439200000092,
          "velocity": 0.7559055118110236,
          "duration": 0.17651497500000346
        },
        {
          "name": "E5",
          "midi": 76,
          "time": 153.63621000000091,
          "velocity": 0.7559055118110236,
          "duration": 0.17651497500000346
        },
        {
          "name": "G5",
          "midi": 79,
          "time": 153.8180280000009,
          "velocity": 0.7559055118110236,
          "duration": 0.17651497500000346
        },
        {
          "name": "C#5",
          "midi": 73,
          "time": 153.9998460000009,
          "velocity": 0.7559055118110236,
          "duration": 0.17651497500000346
        },
        {
          "name": "C#5",
          "midi": 73,
          "time": 154.1816640000009,
          "velocity": 0.7559055118110236,
          "duration": 1.0856049749999954
        },
        {
          "name": "D#5",
          "midi": 75,
          "time": 154.1816640000009,
          "velocity": 0.7559055118110236,
          "duration": 1.0856049749999954
        },
        {
          "name": "G#5",
          "midi": 80,
          "time": 154.1816640000009,
          "velocity": 0.7559055118110236,
          "duration": 1.0856049749999954
        },
        {
          "name": "G#5",
          "midi": 80,
          "time": 155.27257200000088,
          "velocity": 0.7559055118110236,
          "duration": 0.0856059749999929
        },
        {
          "name": "A5",
          "midi": 81,
          "time": 155.36348100000086,
          "velocity": 0.7559055118110236,
          "duration": 0.0856059749999929
        },
        {
          "name": "G#5",
          "midi": 80,
          "time": 155.45439000000084,
          "velocity": 0.7559055118110236,
          "duration": 0.0856059749999929
        },
        {
          "name": "G5",
          "midi": 79,
          "time": 155.54529900000082,
          "velocity": 0.7559055118110236,
          "duration": 0.0856059749999929
        },
        {
          "name": "C5",
          "midi": 72,
          "time": 155.6362080000008,
          "velocity": 0.7559055118110236,
          "duration": 1.4492409750000093
        },
        {
          "name": "G#5",
          "midi": 80,
          "time": 155.6362080000008,
          "velocity": 0.7559055118110236,
          "duration": 1.4492409750000093
        },
        {
          "name": "D#5",
          "midi": 75,
          "time": 155.6362080000008,
          "velocity": 0.7559055118110236,
          "duration": 1.4492409750000093
        },
        {
          "name": "A2",
          "midi": 45,
          "time": 157.0907520000008,
          "velocity": 0.7559055118110236,
          "duration": 0.17651497500000346
        },
        {
          "name": "G#2",
          "midi": 44,
          "time": 157.2725700000008,
          "velocity": 0.7559055118110236,
          "duration": 0.17651497500000346
        },
        {
          "name": "A2",
          "midi": 45,
          "time": 157.4543880000008,
          "velocity": 0.7559055118110236,
          "duration": 0.17651497500000346
        },
        {
          "name": "B2",
          "midi": 47,
          "time": 157.63620600000078,
          "velocity": 0.7559055118110236,
          "duration": 0.35833297499999617
        },
        {
          "name": "A2",
          "midi": 45,
          "time": 157.99984200000077,
          "velocity": 0.7559055118110236,
          "duration": 0.17651497500000346
        },
        {
          "name": "B2",
          "midi": 47,
          "time": 158.18166000000076,
          "velocity": 0.7559055118110236,
          "duration": 0.17651497500000346
        },
        {
          "name": "C#3",
          "midi": 49,
          "time": 158.36347800000075,
          "velocity": 0.7559055118110236,
          "duration": 0.35833297499999617
        },
        {
          "name": "B2",
          "midi": 47,
          "time": 158.72711400000074,
          "velocity": 0.7559055118110236,
          "duration": 0.17651497500000346
        },
        {
          "name": "C#3",
          "midi": 49,
          "time": 158.90893200000073,
          "velocity": 0.7559055118110236,
          "duration": 0.17651497500000346
        },
        {
          "name": "D#3",
          "midi": 51,
          "time": 159.09075000000072,
          "velocity": 0.7559055118110236,
          "duration": 0.17651497500000346
        },
        {
          "name": "E3",
          "midi": 52,
          "time": 159.27256800000072,
          "velocity": 0.7559055118110236,
          "duration": 0.17651497500000346
        },
        {
          "name": "D#3",
          "midi": 51,
          "time": 159.4543860000007,
          "velocity": 0.7559055118110236,
          "duration": 0.17651497500000346
        },
        {
          "name": "C#3",
          "midi": 49,
          "time": 159.6362040000007,
          "velocity": 0.7559055118110236,
          "duration": 0.17651497500000346
        },
        {
          "name": "B2",
          "midi": 47,
          "time": 159.8180220000007,
          "velocity": 0.7559055118110236,
          "duration": 0.17651497500000346
        },
        {
          "name": "A2",
          "midi": 45,
          "time": 159.9998400000007,
          "velocity": 0.7559055118110236,
          "duration": 0.17651497500000346
        },
        {
          "name": "G#2",
          "midi": 44,
          "time": 160.18165800000068,
          "velocity": 0.7559055118110236,
          "duration": 0.17651497500000346
        },
        {
          "name": "A2",
          "midi": 45,
          "time": 160.36347600000067,
          "velocity": 0.7559055118110236,
          "duration": 0.17651497500000346
        },
        {
          "name": "B2",
          "midi": 47,
          "time": 160.54529400000067,
          "velocity": 0.7559055118110236,
          "duration": 0.35833297499999617
        },
        {
          "name": "A2",
          "midi": 45,
          "time": 160.90893000000065,
          "velocity": 0.7559055118110236,
          "duration": 0.17651497500000346
        },
        {
          "name": "B2",
          "midi": 47,
          "time": 161.09074800000064,
          "velocity": 0.7559055118110236,
          "duration": 0.17651497500000346
        },
        {
          "name": "C#3",
          "midi": 49,
          "time": 161.27256600000064,
          "velocity": 0.7559055118110236,
          "duration": 0.35833297499999617
        },
        {
          "name": "B2",
          "midi": 47,
          "time": 161.63620200000062,
          "velocity": 0.7559055118110236,
          "duration": 0.17651497500000346
        },
        {
          "name": "C#3",
          "midi": 49,
          "time": 161.81802000000062,
          "velocity": 0.7559055118110236,
          "duration": 0.17651497500000346
        },
        {
          "name": "D#3",
          "midi": 51,
          "time": 161.9998380000006,
          "velocity": 0.7559055118110236,
          "duration": 0.17651497500000346
        },
        {
          "name": "E3",
          "midi": 52,
          "time": 162.1816560000006,
          "velocity": 0.7559055118110236,
          "duration": 0.17651497500000346
        },
        {
          "name": "D#3",
          "midi": 51,
          "time": 162.3634740000006,
          "velocity": 0.7559055118110236,
          "duration": 0.17651497500000346
        },
        {
          "name": "C#3",
          "midi": 49,
          "time": 162.5452920000006,
          "velocity": 0.7559055118110236,
          "duration": 0.17651497500000346
        },
        {
          "name": "B2",
          "midi": 47,
          "time": 162.72711000000058,
          "velocity": 0.7559055118110236,
          "duration": 0.17651497500000346
        },
        {
          "name": "A2",
          "midi": 45,
          "time": 162.90892800000057,
          "velocity": 0.7559055118110236,
          "duration": 0.17651497500000346
        },
        {
          "name": "G#2",
          "midi": 44,
          "time": 163.09074600000056,
          "velocity": 0.7559055118110236,
          "duration": 0.17651497500000346
        },
        {
          "name": "A2",
          "midi": 45,
          "time": 163.27256400000056,
          "velocity": 0.7559055118110236,
          "duration": 0.17651497500000346
        },
        {
          "name": "B2",
          "midi": 47,
          "time": 163.45438200000055,
          "velocity": 0.7559055118110236,
          "duration": 0.35833297499999617
        },
        {
          "name": "A2",
          "midi": 45,
          "time": 163.81801800000054,
          "velocity": 0.7559055118110236,
          "duration": 0.17651497500000346
        },
        {
          "name": "B2",
          "midi": 47,
          "time": 163.99983600000053,
          "velocity": 0.7559055118110236,
          "duration": 0.17651497500000346
        },
        {
          "name": "C#3",
          "midi": 49,
          "time": 164.18165400000052,
          "velocity": 0.7559055118110236,
          "duration": 0.35833297499999617
        },
        {
          "name": "B2",
          "midi": 47,
          "time": 164.5452900000005,
          "velocity": 0.7559055118110236,
          "duration": 0.17651497500000346
        },
        {
          "name": "C#3",
          "midi": 49,
          "time": 164.7271080000005,
          "velocity": 0.7559055118110236,
          "duration": 0.17651497500000346
        },
        {
          "name": "D#3",
          "midi": 51,
          "time": 164.9089260000005,
          "velocity": 0.7559055118110236,
          "duration": 0.17651497500000346
        },
        {
          "name": "E3",
          "midi": 52,
          "time": 165.09074400000048,
          "velocity": 0.7559055118110236,
          "duration": 0.17651497500000346
        },
        {
          "name": "D#3",
          "midi": 51,
          "time": 165.27256200000048,
          "velocity": 0.7559055118110236,
          "duration": 0.17651497500000346
        },
        {
          "name": "C#3",
          "midi": 49,
          "time": 165.45438000000047,
          "velocity": 0.7559055118110236,
          "duration": 0.17651497500000346
        },
        {
          "name": "B2",
          "midi": 47,
          "time": 165.63619800000046,
          "velocity": 0.7559055118110236,
          "duration": 0.17651497500000346
        },
        {
          "name": "A2",
          "midi": 45,
          "time": 165.81801600000045,
          "velocity": 0.7559055118110236,
          "duration": 0.17651497500000346
        },
        {
          "name": "G#2",
          "midi": 44,
          "time": 165.99983400000045,
          "velocity": 0.7559055118110236,
          "duration": 0.17651497500000346
        },
        {
          "name": "A2",
          "midi": 45,
          "time": 166.18165200000044,
          "velocity": 0.7559055118110236,
          "duration": 0.17651497500000346
        },
        {
          "name": "B2",
          "midi": 47,
          "time": 166.36347000000043,
          "velocity": 0.7559055118110236,
          "duration": 0.35833297499999617
        },
        {
          "name": "A2",
          "midi": 45,
          "time": 166.72710600000042,
          "velocity": 0.7559055118110236,
          "duration": 0.17651497500000346
        },
        {
          "name": "B2",
          "midi": 47,
          "time": 166.9089240000004,
          "velocity": 0.7559055118110236,
          "duration": 0.17651497500000346
        },
        {
          "name": "C#3",
          "midi": 49,
          "time": 167.0907420000004,
          "velocity": 0.7559055118110236,
          "duration": 0.5401509749999889
        },
        {
          "name": "C#4",
          "midi": 61,
          "time": 167.63619600000038,
          "velocity": 0.7559055118110236,
          "duration": 0.0856059749999929
        },
        {
          "name": "F#4",
          "midi": 66,
          "time": 167.72710500000036,
          "velocity": 0.7559055118110236,
          "duration": 0.0856059749999929
        },
        {
          "name": "G#4",
          "midi": 68,
          "time": 167.81801400000035,
          "velocity": 0.7559055118110236,
          "duration": 0.17651497500000346
        },
        {
          "name": "C#5",
          "midi": 73,
          "time": 167.99983200000034,
          "velocity": 0.7559055118110236,
          "duration": 0.0856059749999929
        },
        {
          "name": "F#5",
          "midi": 78,
          "time": 168.09074100000032,
          "velocity": 0.7559055118110236,
          "duration": 0.0856059749999929
        },
        {
          "name": "G#5",
          "midi": 80,
          "time": 168.1816500000003,
          "velocity": 0.7559055118110236,
          "duration": 0.17651497500000346
        },
        {
          "name": "C#6",
          "midi": 85,
          "time": 168.3634680000003,
          "velocity": 0.7559055118110236,
          "duration": 0.35833297499999617
        },
        {
          "name": "G#5",
          "midi": 80,
          "time": 168.72710400000028,
          "velocity": 0.7559055118110236,
          "duration": 0.35833297499999617
        },
        {
          "name": "E5",
          "midi": 76,
          "time": 168.72710400000028,
          "velocity": 0.7559055118110236,
          "duration": 0.35833297499999617
        },
        {
          "name": "C#5",
          "midi": 73,
          "time": 168.72710400000028,
          "velocity": 0.7559055118110236,
          "duration": 0.35833297499999617
        },
        {
          "name": "A5",
          "midi": 81,
          "time": 169.09074000000027,
          "velocity": 0.7559055118110236,
          "duration": 0.35833297499999617
        },
        {
          "name": "B4",
          "midi": 71,
          "time": 169.45437600000025,
          "velocity": 0.7559055118110236,
          "duration": 0.35833297499999617
        },
        {
          "name": "D#5",
          "midi": 75,
          "time": 169.45437600000025,
          "velocity": 0.7559055118110236,
          "duration": 0.35833297499999617
        },
        {
          "name": "F#5",
          "midi": 78,
          "time": 169.45437600000025,
          "velocity": 0.7559055118110236,
          "duration": 0.35833297499999617
        },
        {
          "name": "F#5",
          "midi": 78,
          "time": 169.81801200000024,
          "velocity": 0.7559055118110236,
          "duration": 0.267423975000014
        },
        {
          "name": "C#5",
          "midi": 73,
          "time": 170.09073900000024,
          "velocity": 0.7559055118110236,
          "duration": 0.0856059749999929
        },
        {
          "name": "E5",
          "midi": 76,
          "time": 170.18164800000022,
          "velocity": 0.7559055118110236,
          "duration": 0.17651497500000346
        },
        {
          "name": "E5",
          "midi": 76,
          "time": 170.36346600000022,
          "velocity": 0.7559055118110236,
          "duration": 0.17651497500000346
        },
        {
          "name": "F#5",
          "midi": 78,
          "time": 170.5452840000002,
          "velocity": 0.7559055118110236,
          "duration": 0.17651497500000346
        },
        {
          "name": "E5",
          "midi": 76,
          "time": 170.7271020000002,
          "velocity": 0.7559055118110236,
          "duration": 0.17651497500000346
        },
        {
          "name": "D#5",
          "midi": 75,
          "time": 170.9089200000002,
          "velocity": 0.7559055118110236,
          "duration": 0.17651497500000346
        },
        {
          "name": "C#5",
          "midi": 73,
          "time": 171.0907380000002,
          "velocity": 0.7559055118110236,
          "duration": 0.17651497500000346
        },
        {
          "name": "B4",
          "midi": 71,
          "time": 171.4543740000002,
          "velocity": 0.7559055118110236,
          "duration": 0.17651497500000346
        },
        {
          "name": "A4",
          "midi": 69,
          "time": 171.6361920000002,
          "velocity": 0.7559055118110236,
          "duration": 0.35833297499999617
        },
        {
          "name": "C#5",
          "midi": 73,
          "time": 171.6361920000002,
          "velocity": 0.7559055118110236,
          "duration": 0.35833297499999617
        },
        {
          "name": "C#5",
          "midi": 73,
          "time": 171.99982800000018,
          "velocity": 0.7559055118110236,
          "duration": 0.17651497500000346
        },
        {
          "name": "F#4",
          "midi": 66,
          "time": 172.18164600000017,
          "velocity": 0.7559055118110236,
          "duration": 0.35833297499999617
        },
        {
          "name": "B4",
          "midi": 71,
          "time": 172.18164600000017,
          "velocity": 0.7559055118110236,
          "duration": 0.35833297499999617
        },
        {
          "name": "E5",
          "midi": 76,
          "time": 172.18164600000017,
          "velocity": 0.7559055118110236,
          "duration": 0.35833297499999617
        },
        {
          "name": "E5",
          "midi": 76,
          "time": 172.54528200000016,
          "velocity": 0.7559055118110236,
          "duration": 0.17651497500000346
        },
        {
          "name": "F#5",
          "midi": 78,
          "time": 172.72710000000015,
          "velocity": 0.7559055118110236,
          "duration": 0.35833297499999617
        },
        {
          "name": "G#4",
          "midi": 68,
          "time": 173.09073600000013,
          "velocity": 0.7559055118110236,
          "duration": 0.72196897500001
        },
        {
          "name": "C#5",
          "midi": 73,
          "time": 173.09073600000013,
          "velocity": 0.7559055118110236,
          "duration": 0.72196897500001
        },
        {
          "name": "C#5",
          "midi": 73,
          "time": 173.99982600000016,
          "velocity": 0.7559055118110236,
          "duration": 0.17651497500000346
        },
        {
          "name": "E5",
          "midi": 76,
          "time": 174.18164400000015,
          "velocity": 0.7559055118110236,
          "duration": 0.17651497500000346
        },
        {
          "name": "F#5",
          "midi": 78,
          "time": 174.36346200000014,
          "velocity": 0.7559055118110236,
          "duration": 0.17651497500000346
        },
        {
          "name": "G#5",
          "midi": 80,
          "time": 174.54528000000013,
          "velocity": 0.7559055118110236,
          "duration": 0.35833297499999617
        },
        {
          "name": "E5",
          "midi": 76,
          "time": 174.54528000000013,
          "velocity": 0.7559055118110236,
          "duration": 0.35833297499999617
        },
        {
          "name": "C#5",
          "midi": 73,
          "time": 174.54528000000013,
          "velocity": 0.7559055118110236,
          "duration": 0.35833297499999617
        },
        {
          "name": "A5",
          "midi": 81,
          "time": 174.90891600000012,
          "velocity": 0.7559055118110236,
          "duration": 0.35833297499999617
        },
        {
          "name": "B4",
          "midi": 71,
          "time": 175.2725520000001,
          "velocity": 0.7559055118110236,
          "duration": 0.35833297499999617
        },
        {
          "name": "D#5",
          "midi": 75,
          "time": 175.2725520000001,
          "velocity": 0.7559055118110236,
          "duration": 0.35833297499999617
        },
        {
          "name": "F#5",
          "midi": 78,
          "time": 175.2725520000001,
          "velocity": 0.7559055118110236,
          "duration": 0.35833297499999617
        },
        {
          "name": "F#5",
          "midi": 78,
          "time": 175.6361880000001,
          "velocity": 0.7559055118110236,
          "duration": 0.267423975000014
        },
        {
          "name": "C#5",
          "midi": 73,
          "time": 175.9089150000001,
          "velocity": 0.7559055118110236,
          "duration": 0.0856059749999929
        },
        {
          "name": "E5",
          "midi": 76,
          "time": 175.99982400000007,
          "velocity": 0.7559055118110236,
          "duration": 0.17651497500000346
        },
        {
          "name": "E5",
          "midi": 76,
          "time": 176.18164200000007,
          "velocity": 0.7559055118110236,
          "duration": 0.17651497500000346
        },
        {
          "name": "F#5",
          "midi": 78,
          "time": 176.36346000000006,
          "velocity": 0.7559055118110236,
          "duration": 0.17651497500000346
        },
        {
          "name": "E5",
          "midi": 76,
          "time": 176.54527800000005,
          "velocity": 0.7559055118110236,
          "duration": 0.17651497500000346
        },
        {
          "name": "D#5",
          "midi": 75,
          "time": 176.72709600000005,
          "velocity": 0.7559055118110236,
          "duration": 0.17651497500000346
        },
        {
          "name": "C#5",
          "midi": 73,
          "time": 176.90891400000004,
          "velocity": 0.7559055118110236,
          "duration": 0.17651497500000346
        },
        {
          "name": "B4",
          "midi": 71,
          "time": 177.27255000000005,
          "velocity": 0.7559055118110236,
          "duration": 0.17651497500000346
        },
        {
          "name": "A4",
          "midi": 69,
          "time": 177.45436800000004,
          "velocity": 0.7559055118110236,
          "duration": 0.35833297499999617
        },
        {
          "name": "C#5",
          "midi": 73,
          "time": 177.45436800000004,
          "velocity": 0.7559055118110236,
          "duration": 0.35833297499999617
        },
        {
          "name": "C#5",
          "midi": 73,
          "time": 177.81800400000003,
          "velocity": 0.7559055118110236,
          "duration": 0.17651497500000346
        },
        {
          "name": "F#4",
          "midi": 66,
          "time": 177.99982200000002,
          "velocity": 0.7559055118110236,
          "duration": 0.35833297499999617
        },
        {
          "name": "B4",
          "midi": 71,
          "time": 177.99982200000002,
          "velocity": 0.7559055118110236,
          "duration": 0.35833297499999617
        },
        {
          "name": "E5",
          "midi": 76,
          "time": 177.99982200000002,
          "velocity": 0.7559055118110236,
          "duration": 0.35833297499999617
        },
        {
          "name": "E5",
          "midi": 76,
          "time": 178.363458,
          "velocity": 0.7559055118110236,
          "duration": 0.17651497500000346
        },
        {
          "name": "F#5",
          "midi": 78,
          "time": 178.545276,
          "velocity": 0.7559055118110236,
          "duration": 0.35833297499999617
        },
        {
          "name": "G#4",
          "midi": 68,
          "time": 178.908912,
          "velocity": 0.7559055118110236,
          "duration": 1.4492409750000093
        },
        {
          "name": "C#5",
          "midi": 73,
          "time": 178.908912,
          "velocity": 0.7559055118110236,
          "duration": 1.4492409750000093
        },
        {
          "name": "C#5",
          "midi": 73,
          "time": 180.36345599999999,
          "velocity": 0.7559055118110236,
          "duration": 0.35833297499999617
        },
        {
          "name": "E5",
          "midi": 76,
          "time": 180.36345599999999,
          "velocity": 0.7559055118110236,
          "duration": 0.35833297499999617
        },
        {
          "name": "G#5",
          "midi": 80,
          "time": 180.36345599999999,
          "velocity": 0.7559055118110236,
          "duration": 0.35833297499999617
        },
        {
          "name": "G#5",
          "midi": 80,
          "time": 180.72709199999997,
          "velocity": 0.7559055118110236,
          "duration": 0.17651497500000346
        },
        {
          "name": "A5",
          "midi": 81,
          "time": 180.90890999999996,
          "velocity": 0.7559055118110236,
          "duration": 0.17651497500000346
        },
        {
          "name": "B4",
          "midi": 71,
          "time": 181.09072799999996,
          "velocity": 0.7559055118110236,
          "duration": 0.35833297499999617
        },
        {
          "name": "D#5",
          "midi": 75,
          "time": 181.09072799999996,
          "velocity": 0.7559055118110236,
          "duration": 0.35833297499999617
        },
        {
          "name": "F#5",
          "midi": 78,
          "time": 181.09072799999996,
          "velocity": 0.7559055118110236,
          "duration": 0.35833297499999617
        },
        {
          "name": "D#5",
          "midi": 75,
          "time": 181.45436399999994,
          "velocity": 0.7559055118110236,
          "duration": 0.267423975000014
        },
        {
          "name": "C#5",
          "midi": 73,
          "time": 181.72709099999994,
          "velocity": 0.7559055118110236,
          "duration": 0.0856059749999929
        },
        {
          "name": "E5",
          "midi": 76,
          "time": 181.81799999999993,
          "velocity": 0.7559055118110236,
          "duration": 0.35833297499999617
        },
        {
          "name": "F#5",
          "midi": 78,
          "time": 182.1816359999999,
          "velocity": 0.7559055118110236,
          "duration": 0.267423975000014
        },
        {
          "name": "E5",
          "midi": 76,
          "time": 182.45436299999992,
          "velocity": 0.7559055118110236,
          "duration": 0.0856059749999929
        },
        {
          "name": "D#5",
          "midi": 75,
          "time": 182.5452719999999,
          "velocity": 0.7559055118110236,
          "duration": 0.17651497500000346
        },
        {
          "name": "C#5",
          "midi": 73,
          "time": 182.7270899999999,
          "velocity": 0.7559055118110236,
          "duration": 0.17651497500000346
        },
        {
          "name": "B4",
          "midi": 71,
          "time": 183.0907259999999,
          "velocity": 0.7559055118110236,
          "duration": 0.17651497500000346
        },
        {
          "name": "A4",
          "midi": 69,
          "time": 183.2725439999999,
          "velocity": 0.7559055118110236,
          "duration": 0.35833297499999617
        },
        {
          "name": "C#5",
          "midi": 73,
          "time": 183.2725439999999,
          "velocity": 0.7559055118110236,
          "duration": 0.35833297499999617
        },
        {
          "name": "C#5",
          "midi": 73,
          "time": 183.63617999999988,
          "velocity": 0.7559055118110236,
          "duration": 0.17651497500000346
        },
        {
          "name": "F#4",
          "midi": 66,
          "time": 183.81799799999987,
          "velocity": 0.7559055118110236,
          "duration": 0.35833297499999617
        },
        {
          "name": "B4",
          "midi": 71,
          "time": 183.81799799999987,
          "velocity": 0.7559055118110236,
          "duration": 0.35833297499999617
        },
        {
          "name": "E5",
          "midi": 76,
          "time": 183.81799799999987,
          "velocity": 0.7559055118110236,
          "duration": 0.35833297499999617
        },
        {
          "name": "E5",
          "midi": 76,
          "time": 184.18163399999986,
          "velocity": 0.7559055118110236,
          "duration": 0.17651497500000346
        },
        {
          "name": "F#5",
          "midi": 78,
          "time": 184.36345199999985,
          "velocity": 0.7559055118110236,
          "duration": 0.35833297499999617
        },
        {
          "name": "G#4",
          "midi": 68,
          "time": 184.72708799999984,
          "velocity": 0.7559055118110236,
          "duration": 0.72196897500001
        },
        {
          "name": "C#5",
          "midi": 73,
          "time": 184.72708799999984,
          "velocity": 0.7559055118110236,
          "duration": 0.72196897500001
        },
        {
          "name": "C#5",
          "midi": 73,
          "time": 185.63617799999986,
          "velocity": 0.7559055118110236,
          "duration": 0.17651497500000346
        },
        {
          "name": "E5",
          "midi": 76,
          "time": 185.81799599999985,
          "velocity": 0.7559055118110236,
          "duration": 0.17651497500000346
        },
        {
          "name": "F#5",
          "midi": 78,
          "time": 185.99981399999984,
          "velocity": 0.7559055118110236,
          "duration": 0.17651497500000346
        },
        {
          "name": "G#5",
          "midi": 80,
          "time": 186.18163199999984,
          "velocity": 0.7559055118110236,
          "duration": 0.35833297499999617
        },
        {
          "name": "E5",
          "midi": 76,
          "time": 186.18163199999984,
          "velocity": 0.7559055118110236,
          "duration": 0.35833297499999617
        },
        {
          "name": "C#5",
          "midi": 73,
          "time": 186.18163199999984,
          "velocity": 0.7559055118110236,
          "duration": 0.35833297499999617
        },
        {
          "name": "A5",
          "midi": 81,
          "time": 186.54526799999982,
          "velocity": 0.7559055118110236,
          "duration": 0.35833297499999617
        },
        {
          "name": "B4",
          "midi": 71,
          "time": 186.9089039999998,
          "velocity": 0.7559055118110236,
          "duration": 0.35833297499999617
        },
        {
          "name": "D#5",
          "midi": 75,
          "time": 186.9089039999998,
          "velocity": 0.7559055118110236,
          "duration": 0.35833297499999617
        },
        {
          "name": "F#5",
          "midi": 78,
          "time": 186.9089039999998,
          "velocity": 0.7559055118110236,
          "duration": 0.35833297499999617
        },
        {
          "name": "F#5",
          "midi": 78,
          "time": 187.2725399999998,
          "velocity": 0.7559055118110236,
          "duration": 0.267423975000014
        },
        {
          "name": "C#5",
          "midi": 73,
          "time": 187.5452669999998,
          "velocity": 0.7559055118110236,
          "duration": 0.0856059749999929
        },
        {
          "name": "E5",
          "midi": 76,
          "time": 187.63617599999978,
          "velocity": 0.7559055118110236,
          "duration": 0.17651497500000346
        },
        {
          "name": "E5",
          "midi": 76,
          "time": 187.81799399999977,
          "velocity": 0.7559055118110236,
          "duration": 0.17651497500000346
        },
        {
          "name": "F#5",
          "midi": 78,
          "time": 187.99981199999976,
          "velocity": 0.7559055118110236,
          "duration": 0.17651497500000346
        },
        {
          "name": "E5",
          "midi": 76,
          "time": 188.18162999999976,
          "velocity": 0.7559055118110236,
          "duration": 0.17651497500000346
        },
        {
          "name": "D#5",
          "midi": 75,
          "time": 188.36344799999975,
          "velocity": 0.7559055118110236,
          "duration": 0.17651497500000346
        },
        {
          "name": "C#5",
          "midi": 73,
          "time": 188.54526599999974,
          "velocity": 0.7559055118110236,
          "duration": 0.17651497500000346
        },
        {
          "name": "B4",
          "midi": 71,
          "time": 188.90890199999976,
          "velocity": 0.7559055118110236,
          "duration": 0.17651497500000346
        },
        {
          "name": "A4",
          "midi": 69,
          "time": 189.09071999999975,
          "velocity": 0.7559055118110236,
          "duration": 0.35833297499999617
        },
        {
          "name": "C#5",
          "midi": 73,
          "time": 189.09071999999975,
          "velocity": 0.7559055118110236,
          "duration": 0.35833297499999617
        },
        {
          "name": "C#5",
          "midi": 73,
          "time": 189.45435599999973,
          "velocity": 0.7559055118110236,
          "duration": 0.17651497500000346
        },
        {
          "name": "F#4",
          "midi": 66,
          "time": 189.63617399999973,
          "velocity": 0.7559055118110236,
          "duration": 0.35833297499999617
        },
        {
          "name": "B4",
          "midi": 71,
          "time": 189.63617399999973,
          "velocity": 0.7559055118110236,
          "duration": 0.35833297499999617
        },
        {
          "name": "E5",
          "midi": 76,
          "time": 189.63617399999973,
          "velocity": 0.7559055118110236,
          "duration": 0.35833297499999617
        },
        {
          "name": "E5",
          "midi": 76,
          "time": 189.9998099999997,
          "velocity": 0.7559055118110236,
          "duration": 0.17651497500000346
        },
        {
          "name": "F#5",
          "midi": 78,
          "time": 190.1816279999997,
          "velocity": 0.7559055118110236,
          "duration": 0.35833297499999617
        },
        {
          "name": "G#4",
          "midi": 68,
          "time": 190.5452639999997,
          "velocity": 0.7559055118110236,
          "duration": 1.4492409750000093
        },
        {
          "name": "C#5",
          "midi": 73,
          "time": 190.5452639999997,
          "velocity": 0.7559055118110236,
          "duration": 1.4492409750000093
        },
        {
          "name": "C5",
          "midi": 72,
          "time": 191.9998079999997,
          "velocity": 0.7559055118110236,
          "duration": 1.4492409750000093
        },
        {
          "name": "D#5",
          "midi": 75,
          "time": 191.9998079999997,
          "velocity": 0.7559055118110236,
          "duration": 1.4492409750000093
        },
        {
          "name": "G5",
          "midi": 79,
          "time": 191.9998079999997,
          "velocity": 0.7559055118110236,
          "duration": 1.4492409750000093
        },
        {
          "name": "D#5",
          "midi": 75,
          "time": 193.4543519999997,
          "velocity": 0.7559055118110236,
          "duration": 1.4492409750000093
        },
        {
          "name": "G5",
          "midi": 79,
          "time": 193.4543519999997,
          "velocity": 0.7559055118110236,
          "duration": 1.4492409750000093
        },
        {
          "name": "A#5",
          "midi": 82,
          "time": 193.4543519999997,
          "velocity": 0.7559055118110236,
          "duration": 1.4492409750000093
        },
        {
          "name": "C#5",
          "midi": 73,
          "time": 194.9088959999997,
          "velocity": 0.7559055118110236,
          "duration": 1.0856049749999954
        },
        {
          "name": "F5",
          "midi": 77,
          "time": 194.9088959999997,
          "velocity": 0.7559055118110236,
          "duration": 1.0856049749999954
        },
        {
          "name": "G#5",
          "midi": 80,
          "time": 194.9088959999997,
          "velocity": 0.7559055118110236,
          "duration": 1.0856049749999954
        },
        {
          "name": "F5",
          "midi": 77,
          "time": 195.99980399999967,
          "velocity": 0.7559055118110236,
          "duration": 0.35833297499999617
        },
        {
          "name": "C5",
          "midi": 72,
          "time": 196.36343999999966,
          "velocity": 0.7559055118110236,
          "duration": 1.4492409750000093
        },
        {
          "name": "D#5",
          "midi": 75,
          "time": 196.36343999999966,
          "velocity": 0.7559055118110236,
          "duration": 1.4492409750000093
        },
        {
          "name": "G5",
          "midi": 79,
          "time": 196.36343999999966,
          "velocity": 0.7559055118110236,
          "duration": 1.4492409750000093
        },
        {
          "name": "C5",
          "midi": 72,
          "time": 197.81798399999965,
          "velocity": 0.7559055118110236,
          "duration": 1.4492409750000093
        },
        {
          "name": "D#5",
          "midi": 75,
          "time": 197.81798399999965,
          "velocity": 0.7559055118110236,
          "duration": 1.4492409750000093
        },
        {
          "name": "G5",
          "midi": 79,
          "time": 197.81798399999965,
          "velocity": 0.7559055118110236,
          "duration": 1.4492409750000093
        },
        {
          "name": "D#5",
          "midi": 75,
          "time": 199.27252799999965,
          "velocity": 0.7559055118110236,
          "duration": 1.4492409750000093
        },
        {
          "name": "G5",
          "midi": 79,
          "time": 199.27252799999965,
          "velocity": 0.7559055118110236,
          "duration": 1.4492409750000093
        },
        {
          "name": "A#5",
          "midi": 82,
          "time": 199.27252799999965,
          "velocity": 0.7559055118110236,
          "duration": 1.4492409750000093
        },
        {
          "name": "C#5",
          "midi": 73,
          "time": 200.72707199999965,
          "velocity": 0.7559055118110236,
          "duration": 1.0856049749999954
        },
        {
          "name": "F5",
          "midi": 77,
          "time": 200.72707199999965,
          "velocity": 0.7559055118110236,
          "duration": 1.0856049749999954
        },
        {
          "name": "G#5",
          "midi": 80,
          "time": 200.72707199999965,
          "velocity": 0.7559055118110236,
          "duration": 1.0856049749999954
        },
        {
          "name": "A#5",
          "midi": 82,
          "time": 201.81797999999964,
          "velocity": 0.7559055118110236,
          "duration": 0.35833297499999617
        },
        {
          "name": "C5",
          "midi": 72,
          "time": 202.18161599999962,
          "velocity": 0.7559055118110236,
          "duration": 1.4492409750000093
        },
        {
          "name": "D#5",
          "midi": 75,
          "time": 202.18161599999962,
          "velocity": 0.7559055118110236,
          "duration": 1.4492409750000093
        },
        {
          "name": "G5",
          "midi": 79,
          "time": 202.18161599999962,
          "velocity": 0.7559055118110236,
          "duration": 1.4492409750000093
        },
        {
          "name": "C5",
          "midi": 72,
          "time": 203.63615999999962,
          "velocity": 0.7559055118110236,
          "duration": 1.4492409750000093
        },
        {
          "name": "D#5",
          "midi": 75,
          "time": 203.63615999999962,
          "velocity": 0.7559055118110236,
          "duration": 1.4492409750000093
        },
        {
          "name": "G5",
          "midi": 79,
          "time": 203.63615999999962,
          "velocity": 0.7559055118110236,
          "duration": 1.4492409750000093
        },
        {
          "name": "D#5",
          "midi": 75,
          "time": 205.09070399999962,
          "velocity": 0.7559055118110236,
          "duration": 1.4492409750000093
        },
        {
          "name": "G5",
          "midi": 79,
          "time": 205.09070399999962,
          "velocity": 0.7559055118110236,
          "duration": 1.4492409750000093
        },
        {
          "name": "A#5",
          "midi": 82,
          "time": 205.09070399999962,
          "velocity": 0.7559055118110236,
          "duration": 1.4492409750000093
        },
        {
          "name": "C#5",
          "midi": 73,
          "time": 206.54524799999962,
          "velocity": 0.7559055118110236,
          "duration": 1.0856049749999954
        },
        {
          "name": "F5",
          "midi": 77,
          "time": 206.54524799999962,
          "velocity": 0.7559055118110236,
          "duration": 1.0856049749999954
        },
        {
          "name": "G#5",
          "midi": 80,
          "time": 206.54524799999962,
          "velocity": 0.7559055118110236,
          "duration": 1.0856049749999954
        },
        {
          "name": "F5",
          "midi": 77,
          "time": 207.6361559999996,
          "velocity": 0.7559055118110236,
          "duration": 0.35833297499999617
        },
        {
          "name": "C5",
          "midi": 72,
          "time": 207.9997919999996,
          "velocity": 0.7559055118110236,
          "duration": 1.4492409750000093
        },
        {
          "name": "D#5",
          "midi": 75,
          "time": 207.9997919999996,
          "velocity": 0.7559055118110236,
          "duration": 1.4492409750000093
        },
        {
          "name": "G5",
          "midi": 79,
          "time": 207.9997919999996,
          "velocity": 0.7559055118110236,
          "duration": 1.4492409750000093
        },
        {
          "name": "C5",
          "midi": 72,
          "time": 209.45433599999959,
          "velocity": 0.7559055118110236,
          "duration": 1.4492409750000093
        },
        {
          "name": "D#5",
          "midi": 75,
          "time": 209.45433599999959,
          "velocity": 0.7559055118110236,
          "duration": 1.4492409750000093
        },
        {
          "name": "G5",
          "midi": 79,
          "time": 209.45433599999959,
          "velocity": 0.7559055118110236,
          "duration": 1.4492409750000093
        },
        {
          "name": "D#5",
          "midi": 75,
          "time": 210.90887999999958,
          "velocity": 0.7559055118110236,
          "duration": 1.4492409750000093
        },
        {
          "name": "G5",
          "midi": 79,
          "time": 210.90887999999958,
          "velocity": 0.7559055118110236,
          "duration": 1.4492409750000093
        },
        {
          "name": "A#5",
          "midi": 82,
          "time": 210.90887999999958,
          "velocity": 0.7559055118110236,
          "duration": 1.4492409750000093
        },
        {
          "name": "C#5",
          "midi": 73,
          "time": 212.36342399999958,
          "velocity": 0.7559055118110236,
          "duration": 1.0856049749999954
        },
        {
          "name": "F5",
          "midi": 77,
          "time": 212.36342399999958,
          "velocity": 0.7559055118110236,
          "duration": 1.0856049749999954
        },
        {
          "name": "G#5",
          "midi": 80,
          "time": 212.36342399999958,
          "velocity": 0.7559055118110236,
          "duration": 1.0856049749999954
        },
        {
          "name": "A#5",
          "midi": 82,
          "time": 213.45433199999957,
          "velocity": 0.7559055118110236,
          "duration": 0.35833297499999617
        },
        {
          "name": "C5",
          "midi": 72,
          "time": 213.81796799999955,
          "velocity": 0.7559055118110236,
          "duration": 1.4492409750000093
        },
        {
          "name": "D#5",
          "midi": 75,
          "time": 213.81796799999955,
          "velocity": 0.7559055118110236,
          "duration": 1.4492409750000093
        },
        {
          "name": "G5",
          "midi": 79,
          "time": 213.81796799999955,
          "velocity": 0.7559055118110236,
          "duration": 1.4492409750000093
        },
        {
          "name": "G4",
          "midi": 67,
          "time": 215.27251199999955,
          "velocity": 0.7559055118110236,
          "duration": 1.4492409750000093
        },
        {
          "name": "C4",
          "midi": 60,
          "time": 215.27251199999955,
          "velocity": 0.7559055118110236,
          "duration": 1.4492409750000093
        }
      ],
      "controlChanges": {},
      "id": 1,
      "name": "Piano RH",
      "instrumentNumber": 0,
      "instrument": "acoustic grand piano",
      "instrumentFamily": "piano",
      "channelNumber": 0,
      "isPercussion": false
    },
    {
      "startTime": 0,
      "duration": 216.72175297499868,
      "length": 834,
      "notes": [
        {
          "name": "C#3",
          "midi": 49,
          "time": 0,
          "velocity": 0.7559055118110236,
          "duration": 0.17651497500000002
        },
        {
          "name": "G#3",
          "midi": 56,
          "time": 0,
          "velocity": 0.7559055118110236,
          "duration": 0.17651497500000002
        },
        {
          "name": "C#3",
          "midi": 49,
          "time": 0.181818,
          "velocity": 0.7559055118110236,
          "duration": 0.17651497500000005
        },
        {
          "name": "G#3",
          "midi": 56,
          "time": 0.181818,
          "velocity": 0.7559055118110236,
          "duration": 0.17651497500000005
        },
        {
          "name": "E3",
          "midi": 52,
          "time": 0.5454540000000001,
          "velocity": 0.7559055118110236,
          "duration": 0.17651497500000002
        },
        {
          "name": "A2",
          "midi": 45,
          "time": 0.5454540000000001,
          "velocity": 0.7559055118110236,
          "duration": 0.17651497500000002
        },
        {
          "name": "E3",
          "midi": 52,
          "time": 0.7272720000000001,
          "velocity": 0.7559055118110236,
          "duration": 0.17651497500000002
        },
        {
          "name": "A2",
          "midi": 45,
          "time": 0.7272720000000001,
          "velocity": 0.7559055118110236,
          "duration": 0.17651497500000002
        },
        {
          "name": "F#3",
          "midi": 54,
          "time": 1.0909080000000002,
          "velocity": 0.7559055118110236,
          "duration": 0.1765149749999999
        },
        {
          "name": "B2",
          "midi": 47,
          "time": 1.0909080000000002,
          "velocity": 0.7559055118110236,
          "duration": 0.1765149749999999
        },
        {
          "name": "B2",
          "midi": 47,
          "time": 1.272726,
          "velocity": 0.7559055118110236,
          "duration": 0.1765149749999999
        },
        {
          "name": "F#3",
          "midi": 54,
          "time": 1.272726,
          "velocity": 0.7559055118110236,
          "duration": 0.1765149749999999
        },
        {
          "name": "A2",
          "midi": 45,
          "time": 4.363632,
          "velocity": 0.7559055118110236,
          "duration": 0.1765149749999999
        },
        {
          "name": "G#2",
          "midi": 44,
          "time": 4.54545,
          "velocity": 0.7559055118110236,
          "duration": 0.1765149749999999
        },
        {
          "name": "A2",
          "midi": 45,
          "time": 4.727268,
          "velocity": 0.7559055118110236,
          "duration": 0.1765149749999999
        },
        {
          "name": "B2",
          "midi": 47,
          "time": 4.909085999999999,
          "velocity": 0.7559055118110236,
          "duration": 0.3583329749999997
        },
        {
          "name": "A2",
          "midi": 45,
          "time": 5.272721999999999,
          "velocity": 0.7559055118110236,
          "duration": 0.1765149749999999
        },
        {
          "name": "B2",
          "midi": 47,
          "time": 5.454539999999999,
          "velocity": 0.7559055118110236,
          "duration": 0.1765149749999999
        },
        {
          "name": "C#3",
          "midi": 49,
          "time": 5.636357999999999,
          "velocity": 0.7559055118110236,
          "duration": 0.3583329749999997
        },
        {
          "name": "B2",
          "midi": 47,
          "time": 5.999993999999998,
          "velocity": 0.7559055118110236,
          "duration": 0.1765149749999999
        },
        {
          "name": "C#3",
          "midi": 49,
          "time": 6.181811999999998,
          "velocity": 0.7559055118110236,
          "duration": 0.1765149749999999
        },
        {
          "name": "D#3",
          "midi": 51,
          "time": 6.363629999999998,
          "velocity": 0.7559055118110236,
          "duration": 0.1765149749999999
        },
        {
          "name": "E3",
          "midi": 52,
          "time": 6.545447999999998,
          "velocity": 0.7559055118110236,
          "duration": 0.1765149749999999
        },
        {
          "name": "D#3",
          "midi": 51,
          "time": 6.7272659999999975,
          "velocity": 0.7559055118110236,
          "duration": 0.1765149749999999
        },
        {
          "name": "C#3",
          "midi": 49,
          "time": 6.909083999999997,
          "velocity": 0.7559055118110236,
          "duration": 0.1765149749999999
        },
        {
          "name": "B2",
          "midi": 47,
          "time": 7.090901999999997,
          "velocity": 0.7559055118110236,
          "duration": 0.1765149749999999
        },
        {
          "name": "A2",
          "midi": 45,
          "time": 7.272719999999997,
          "velocity": 0.7559055118110236,
          "duration": 0.1765149749999999
        },
        {
          "name": "G#2",
          "midi": 44,
          "time": 7.454537999999997,
          "velocity": 0.7559055118110236,
          "duration": 0.1765149749999999
        },
        {
          "name": "A2",
          "midi": 45,
          "time": 7.636355999999997,
          "velocity": 0.7559055118110236,
          "duration": 0.1765149749999999
        },
        {
          "name": "B2",
          "midi": 47,
          "time": 7.818173999999996,
          "velocity": 0.7559055118110236,
          "duration": 0.3583329750000006
        },
        {
          "name": "A2",
          "midi": 45,
          "time": 8.181809999999997,
          "velocity": 0.7559055118110236,
          "duration": 0.1765149749999999
        },
        {
          "name": "B2",
          "midi": 47,
          "time": 8.363627999999997,
          "velocity": 0.7559055118110236,
          "duration": 0.1765149749999999
        },
        {
          "name": "C#3",
          "midi": 49,
          "time": 8.545445999999997,
          "velocity": 0.7559055118110236,
          "duration": 0.3583329749999997
        },
        {
          "name": "B2",
          "midi": 47,
          "time": 8.909081999999996,
          "velocity": 0.7559055118110236,
          "duration": 0.1765149749999999
        },
        {
          "name": "C#3",
          "midi": 49,
          "time": 9.090899999999996,
          "velocity": 0.7559055118110236,
          "duration": 0.1765149749999999
        },
        {
          "name": "D#3",
          "midi": 51,
          "time": 9.272717999999996,
          "velocity": 0.7559055118110236,
          "duration": 0.1765149749999999
        },
        {
          "name": "E3",
          "midi": 52,
          "time": 9.454535999999996,
          "velocity": 0.7559055118110236,
          "duration": 0.1765149749999999
        },
        {
          "name": "D#3",
          "midi": 51,
          "time": 9.636353999999995,
          "velocity": 0.7559055118110236,
          "duration": 0.1765149749999999
        },
        {
          "name": "C#3",
          "midi": 49,
          "time": 9.818171999999995,
          "velocity": 0.7559055118110236,
          "duration": 0.1765149749999999
        },
        {
          "name": "B2",
          "midi": 47,
          "time": 9.999989999999995,
          "velocity": 0.7559055118110236,
          "duration": 0.1765149749999999
        },
        {
          "name": "C#3",
          "midi": 49,
          "time": 10.181807999999995,
          "velocity": 0.7559055118110236,
          "duration": 2.9037849750000007
        },
        {
          "name": "C#2",
          "midi": 37,
          "time": 13.090895999999995,
          "velocity": 0.7559055118110236,
          "duration": 1.812876975
        },
        {
          "name": "G#2",
          "midi": 44,
          "time": 13.090895999999995,
          "velocity": 0.7559055118110236,
          "duration": 1.812876975
        },
        {
          "name": "C#2",
          "midi": 37,
          "time": 14.909075999999995,
          "velocity": 0.7559055118110236,
          "duration": 0.3583329749999997
        },
        {
          "name": "G#2",
          "midi": 44,
          "time": 14.909075999999995,
          "velocity": 0.7559055118110236,
          "duration": 0.3583329749999997
        },
        {
          "name": "C#2",
          "midi": 37,
          "time": 15.272711999999995,
          "velocity": 0.7559055118110236,
          "duration": 0.1765149749999999
        },
        {
          "name": "C#2",
          "midi": 37,
          "time": 15.454529999999995,
          "velocity": 0.7559055118110236,
          "duration": 0.1765149749999999
        },
        {
          "name": "A1",
          "midi": 33,
          "time": 15.999983999999994,
          "velocity": 0.7559055118110236,
          "duration": 0.1765149749999999
        },
        {
          "name": "A2",
          "midi": 45,
          "time": 16.181801999999994,
          "velocity": 0.7559055118110236,
          "duration": 0.1765149749999999
        },
        {
          "name": "A1",
          "midi": 33,
          "time": 16.363619999999994,
          "velocity": 0.7559055118110236,
          "duration": 0.3583329749999997
        },
        {
          "name": "B1",
          "midi": 35,
          "time": 16.727255999999993,
          "velocity": 0.7559055118110236,
          "duration": 0.1765149749999999
        },
        {
          "name": "B2",
          "midi": 47,
          "time": 16.909073999999993,
          "velocity": 0.7559055118110236,
          "duration": 0.1765149749999999
        },
        {
          "name": "B1",
          "midi": 35,
          "time": 17.090891999999993,
          "velocity": 0.7559055118110236,
          "duration": 0.3583329749999997
        },
        {
          "name": "C#2",
          "midi": 37,
          "time": 17.454527999999993,
          "velocity": 0.7559055118110236,
          "duration": 0.1765149749999999
        },
        {
          "name": "C#3",
          "midi": 49,
          "time": 17.636345999999993,
          "velocity": 0.7559055118110236,
          "duration": 0.1765149749999999
        },
        {
          "name": "C#2",
          "midi": 37,
          "time": 17.818163999999992,
          "velocity": 0.7559055118110236,
          "duration": 0.3583329749999997
        },
        {
          "name": "C#2",
          "midi": 37,
          "time": 18.181799999999992,
          "velocity": 0.7559055118110236,
          "duration": 0.1765149749999999
        },
        {
          "name": "C#3",
          "midi": 49,
          "time": 18.363617999999992,
          "velocity": 0.7559055118110236,
          "duration": 0.1765149749999999
        },
        {
          "name": "C#2",
          "midi": 37,
          "time": 18.54543599999999,
          "velocity": 0.7559055118110236,
          "duration": 0.3583329749999997
        },
        {
          "name": "A1",
          "midi": 33,
          "time": 18.90907199999999,
          "velocity": 0.7559055118110236,
          "duration": 0.1765149749999999
        },
        {
          "name": "A2",
          "midi": 45,
          "time": 19.09088999999999,
          "velocity": 0.7559055118110236,
          "duration": 0.1765149749999999
        },
        {
          "name": "A1",
          "midi": 33,
          "time": 19.27270799999999,
          "velocity": 0.7559055118110236,
          "duration": 0.3583329749999997
        },
        {
          "name": "B1",
          "midi": 35,
          "time": 19.63634399999999,
          "velocity": 0.7559055118110236,
          "duration": 0.1765149749999999
        },
        {
          "name": "B2",
          "midi": 47,
          "time": 19.81816199999999,
          "velocity": 0.7559055118110236,
          "duration": 0.1765149749999999
        },
        {
          "name": "B1",
          "midi": 35,
          "time": 19.99997999999999,
          "velocity": 0.7559055118110236,
          "duration": 0.3583329749999997
        },
        {
          "name": "C#2",
          "midi": 37,
          "time": 20.36361599999999,
          "velocity": 0.7559055118110236,
          "duration": 0.1765149749999999
        },
        {
          "name": "C#3",
          "midi": 49,
          "time": 20.54543399999999,
          "velocity": 0.7559055118110236,
          "duration": 0.1765149749999999
        },
        {
          "name": "C#2",
          "midi": 37,
          "time": 20.72725199999999,
          "velocity": 0.7559055118110236,
          "duration": 0.1765149749999999
        },
        {
          "name": "D#2",
          "midi": 39,
          "time": 20.90906999999999,
          "velocity": 0.7559055118110236,
          "duration": 0.1765149749999999
        },
        {
          "name": "E2",
          "midi": 40,
          "time": 21.09088799999999,
          "velocity": 0.7559055118110236,
          "duration": 0.1765149749999999
        },
        {
          "name": "D#2",
          "midi": 39,
          "time": 21.27270599999999,
          "velocity": 0.7559055118110236,
          "duration": 0.1765149749999999
        },
        {
          "name": "C#2",
          "midi": 37,
          "time": 21.45452399999999,
          "velocity": 0.7559055118110236,
          "duration": 0.3583329749999997
        },
        {
          "name": "A1",
          "midi": 33,
          "time": 21.81815999999999,
          "velocity": 0.7559055118110236,
          "duration": 0.1765149749999999
        },
        {
          "name": "A2",
          "midi": 45,
          "time": 21.999977999999988,
          "velocity": 0.7559055118110236,
          "duration": 0.1765149749999999
        },
        {
          "name": "A1",
          "midi": 33,
          "time": 22.181795999999988,
          "velocity": 0.7559055118110236,
          "duration": 0.3583329749999997
        },
        {
          "name": "B1",
          "midi": 35,
          "time": 22.545431999999987,
          "velocity": 0.7559055118110236,
          "duration": 0.1765149749999999
        },
        {
          "name": "B2",
          "midi": 47,
          "time": 22.727249999999987,
          "velocity": 0.7559055118110236,
          "duration": 0.1765149749999999
        },
        {
          "name": "B1",
          "midi": 35,
          "time": 22.909067999999987,
          "velocity": 0.7559055118110236,
          "duration": 0.3583329749999997
        },
        {
          "name": "C#2",
          "midi": 37,
          "time": 23.272703999999987,
          "velocity": 0.7559055118110236,
          "duration": 0.1765149749999999
        },
        {
          "name": "C#3",
          "midi": 49,
          "time": 23.454521999999987,
          "velocity": 0.7559055118110236,
          "duration": 0.1765149749999999
        },
        {
          "name": "C#2",
          "midi": 37,
          "time": 23.636339999999986,
          "velocity": 0.7559055118110236,
          "duration": 0.3583329749999997
        },
        {
          "name": "C#2",
          "midi": 37,
          "time": 23.999975999999986,
          "velocity": 0.7559055118110236,
          "duration": 0.1765149749999999
        },
        {
          "name": "C#3",
          "midi": 49,
          "time": 24.181793999999986,
          "velocity": 0.7559055118110236,
          "duration": 0.1765149749999999
        },
        {
          "name": "C#2",
          "midi": 37,
          "time": 24.363611999999986,
          "velocity": 0.7559055118110236,
          "duration": 0.3583329749999997
        },
        {
          "name": "A1",
          "midi": 33,
          "time": 24.727247999999985,
          "velocity": 0.7559055118110236,
          "duration": 0.1765149749999999
        },
        {
          "name": "A2",
          "midi": 45,
          "time": 24.909065999999985,
          "velocity": 0.7559055118110236,
          "duration": 0.1765149749999999
        },
        {
          "name": "A1",
          "midi": 33,
          "time": 25.090883999999985,
          "velocity": 0.7559055118110236,
          "duration": 0.3583329749999997
        },
        {
          "name": "B1",
          "midi": 35,
          "time": 25.454519999999984,
          "velocity": 0.7559055118110236,
          "duration": 0.1765149749999999
        },
        {
          "name": "B2",
          "midi": 47,
          "time": 25.636337999999984,
          "velocity": 0.7559055118110236,
          "duration": 0.1765149749999999
        },
        {
          "name": "B1",
          "midi": 35,
          "time": 25.818155999999984,
          "velocity": 0.7559055118110236,
          "duration": 0.3583329749999997
        },
        {
          "name": "C#2",
          "midi": 37,
          "time": 26.181791999999984,
          "velocity": 0.7559055118110236,
          "duration": 0.1765149749999999
        },
        {
          "name": "C#3",
          "midi": 49,
          "time": 26.363609999999984,
          "velocity": 0.7559055118110236,
          "duration": 0.1765149749999999
        },
        {
          "name": "C#2",
          "midi": 37,
          "time": 26.545427999999983,
          "velocity": 0.7559055118110236,
          "duration": 0.1765149749999999
        },
        {
          "name": "D#2",
          "midi": 39,
          "time": 26.727245999999983,
          "velocity": 0.7559055118110236,
          "duration": 0.1765149749999999
        },
        {
          "name": "E2",
          "midi": 40,
          "time": 26.909063999999983,
          "velocity": 0.7559055118110236,
          "duration": 0.1765149749999999
        },
        {
          "name": "D#2",
          "midi": 39,
          "time": 27.090881999999983,
          "velocity": 0.7559055118110236,
          "duration": 0.1765149749999999
        },
        {
          "name": "C#2",
          "midi": 37,
          "time": 27.272699999999983,
          "velocity": 0.7559055118110236,
          "duration": 0.3583329749999997
        },
        {
          "name": "C3",
          "midi": 48,
          "time": 27.636335999999982,
          "velocity": 0.7559055118110236,
          "duration": 0.3583329749999997
        },
        {
          "name": "D#3",
          "midi": 51,
          "time": 27.999971999999982,
          "velocity": 0.7559055118110236,
          "duration": 0.1765149749999999
        },
        {
          "name": "A#2",
          "midi": 46,
          "time": 28.18178999999998,
          "velocity": 0.7559055118110236,
          "duration": 0.1765149749999999
        },
        {
          "name": "C3",
          "midi": 48,
          "time": 28.36360799999998,
          "velocity": 0.7559055118110236,
          "duration": 0.3583329749999997
        },
        {
          "name": "D#3",
          "midi": 51,
          "time": 28.72724399999998,
          "velocity": 0.7559055118110236,
          "duration": 0.1765149749999999
        },
        {
          "name": "A#2",
          "midi": 46,
          "time": 28.90906199999998,
          "velocity": 0.7559055118110236,
          "duration": 0.1765149749999999
        },
        {
          "name": "D#3",
          "midi": 51,
          "time": 29.09087999999998,
          "velocity": 0.7559055118110236,
          "duration": 0.1765149749999999
        },
        {
          "name": "D#3",
          "midi": 51,
          "time": 29.27269799999998,
          "velocity": 0.7559055118110236,
          "duration": 0.1765149749999999
        },
        {
          "name": "C3",
          "midi": 48,
          "time": 29.45451599999998,
          "velocity": 0.7559055118110236,
          "duration": 0.1765149749999999
        },
        {
          "name": "D#3",
          "midi": 51,
          "time": 29.63633399999998,
          "velocity": 0.7559055118110236,
          "duration": 0.3583329749999997
        },
        {
          "name": "C#3",
          "midi": 49,
          "time": 29.99996999999998,
          "velocity": 0.7559055118110236,
          "duration": 0.1765149749999999
        },
        {
          "name": "C#3",
          "midi": 49,
          "time": 30.18178799999998,
          "velocity": 0.7559055118110236,
          "duration": 0.1765149749999999
        },
        {
          "name": "D#3",
          "midi": 51,
          "time": 30.36360599999998,
          "velocity": 0.7559055118110236,
          "duration": 0.1765149749999999
        },
        {
          "name": "C#3",
          "midi": 49,
          "time": 30.54542399999998,
          "velocity": 0.7559055118110236,
          "duration": 0.1765149749999999
        },
        {
          "name": "C#3",
          "midi": 49,
          "time": 30.72724199999998,
          "velocity": 0.7559055118110236,
          "duration": 0.1765149749999999
        },
        {
          "name": "A#2",
          "midi": 46,
          "time": 30.90905999999998,
          "velocity": 0.7559055118110236,
          "duration": 0.1765149749999999
        },
        {
          "name": "C#3",
          "midi": 49,
          "time": 31.09087799999998,
          "velocity": 0.7559055118110236,
          "duration": 0.3583329749999997
        },
        {
          "name": "A#2",
          "midi": 46,
          "time": 31.45451399999998,
          "velocity": 0.7559055118110236,
          "duration": 0.1765149749999999
        },
        {
          "name": "C#3",
          "midi": 49,
          "time": 31.636331999999978,
          "velocity": 0.7559055118110236,
          "duration": 0.1765149749999999
        },
        {
          "name": "D#3",
          "midi": 51,
          "time": 31.818149999999978,
          "velocity": 0.7559055118110236,
          "duration": 0.1765149749999999
        },
        {
          "name": "C3",
          "midi": 48,
          "time": 31.999967999999978,
          "velocity": 0.7559055118110236,
          "duration": 0.3583329749999997
        },
        {
          "name": "D#3",
          "midi": 51,
          "time": 32.36360399999998,
          "velocity": 0.7559055118110236,
          "duration": 0.17651497500000346
        },
        {
          "name": "A#2",
          "midi": 46,
          "time": 32.54542199999999,
          "velocity": 0.7559055118110236,
          "duration": 0.17651497500000346
        },
        {
          "name": "C3",
          "midi": 48,
          "time": 32.727239999999995,
          "velocity": 0.7559055118110236,
          "duration": 0.3583329750000033
        },
        {
          "name": "D#3",
          "midi": 51,
          "time": 33.090876,
          "velocity": 0.7559055118110236,
          "duration": 0.17651497500000346
        },
        {
          "name": "A#2",
          "midi": 46,
          "time": 33.27269400000001,
          "velocity": 0.7559055118110236,
          "duration": 0.17651497500000346
        },
        {
          "name": "C3",
          "midi": 48,
          "time": 33.454512000000015,
          "velocity": 0.7559055118110236,
          "duration": 0.3583329750000033
        },
        {
          "name": "D#3",
          "midi": 51,
          "time": 33.81814800000002,
          "velocity": 0.7559055118110236,
          "duration": 0.17651497500000346
        },
        {
          "name": "A#2",
          "midi": 46,
          "time": 33.99996600000003,
          "velocity": 0.7559055118110236,
          "duration": 0.17651497500000346
        },
        {
          "name": "C3",
          "midi": 48,
          "time": 34.181784000000036,
          "velocity": 0.7559055118110236,
          "duration": 0.3583329750000033
        },
        {
          "name": "D#3",
          "midi": 51,
          "time": 34.54542000000004,
          "velocity": 0.7559055118110236,
          "duration": 0.17651497500000346
        },
        {
          "name": "A#2",
          "midi": 46,
          "time": 34.72723800000005,
          "velocity": 0.7559055118110236,
          "duration": 0.17651497500000346
        },
        {
          "name": "D#3",
          "midi": 51,
          "time": 34.90905600000006,
          "velocity": 0.7559055118110236,
          "duration": 0.17651497500000346
        },
        {
          "name": "D#3",
          "midi": 51,
          "time": 35.09087400000006,
          "velocity": 0.7559055118110236,
          "duration": 0.17651497500000346
        },
        {
          "name": "C3",
          "midi": 48,
          "time": 35.27269200000007,
          "velocity": 0.7559055118110236,
          "duration": 0.17651497500000346
        },
        {
          "name": "D#3",
          "midi": 51,
          "time": 35.45451000000008,
          "velocity": 0.7559055118110236,
          "duration": 0.3583329750000033
        },
        {
          "name": "C#3",
          "midi": 49,
          "time": 35.818146000000084,
          "velocity": 0.7559055118110236,
          "duration": 0.17651497500000346
        },
        {
          "name": "C#3",
          "midi": 49,
          "time": 35.99996400000009,
          "velocity": 0.7559055118110236,
          "duration": 0.17651497500000346
        },
        {
          "name": "D#3",
          "midi": 51,
          "time": 36.1817820000001,
          "velocity": 0.7559055118110236,
          "duration": 0.17651497500000346
        },
        {
          "name": "C#3",
          "midi": 49,
          "time": 36.363600000000105,
          "velocity": 0.7559055118110236,
          "duration": 0.17651497500000346
        },
        {
          "name": "C#3",
          "midi": 49,
          "time": 36.54541800000011,
          "velocity": 0.7559055118110236,
          "duration": 0.17651497500000346
        },
        {
          "name": "A#2",
          "midi": 46,
          "time": 36.72723600000012,
          "velocity": 0.7559055118110236,
          "duration": 0.17651497500000346
        },
        {
          "name": "C#3",
          "midi": 49,
          "time": 36.909054000000125,
          "velocity": 0.7559055118110236,
          "duration": 0.3583329750000033
        },
        {
          "name": "A#2",
          "midi": 46,
          "time": 37.27269000000013,
          "velocity": 0.7559055118110236,
          "duration": 0.17651497500000346
        },
        {
          "name": "C#3",
          "midi": 49,
          "time": 37.45450800000014,
          "velocity": 0.7559055118110236,
          "duration": 0.17651497500000346
        },
        {
          "name": "D#3",
          "midi": 51,
          "time": 37.636326000000146,
          "velocity": 0.7559055118110236,
          "duration": 0.17651497500000346
        },
        {
          "name": "C3",
          "midi": 48,
          "time": 37.81814400000015,
          "velocity": 0.7559055118110236,
          "duration": 0.3583329750000033
        },
        {
          "name": "D#3",
          "midi": 51,
          "time": 38.18178000000016,
          "velocity": 0.7559055118110236,
          "duration": 0.17651497500000346
        },
        {
          "name": "A#2",
          "midi": 46,
          "time": 38.36359800000017,
          "velocity": 0.7559055118110236,
          "duration": 0.17651497500000346
        },
        {
          "name": "C3",
          "midi": 48,
          "time": 38.54541600000017,
          "velocity": 0.7559055118110236,
          "duration": 0.3583329750000033
        },
        {
          "name": "D#3",
          "midi": 51,
          "time": 38.90905200000018,
          "velocity": 0.7559055118110236,
          "duration": 0.17651497500000346
        },
        {
          "name": "A#2",
          "midi": 46,
          "time": 39.09087000000019,
          "velocity": 0.7559055118110236,
          "duration": 0.17651497500000346
        },
        {
          "name": "C3",
          "midi": 48,
          "time": 39.272688000000194,
          "velocity": 0.7559055118110236,
          "duration": 0.3583329750000033
        },
        {
          "name": "D#3",
          "midi": 51,
          "time": 39.272688000000194,
          "velocity": 0.7559055118110236,
          "duration": 0.3583329750000033
        },
        {
          "name": "C3",
          "midi": 48,
          "time": 39.6363240000002,
          "velocity": 0.7559055118110236,
          "duration": 0.3583329750000033
        },
        {
          "name": "D#3",
          "midi": 51,
          "time": 39.6363240000002,
          "velocity": 0.7559055118110236,
          "duration": 0.3583329750000033
        },
        {
          "name": "C3",
          "midi": 48,
          "time": 39.99996000000021,
          "velocity": 0.7559055118110236,
          "duration": 0.3583329750000033
        },
        {
          "name": "D#3",
          "midi": 51,
          "time": 39.99996000000021,
          "velocity": 0.7559055118110236,
          "duration": 0.3583329750000033
        },
        {
          "name": "C3",
          "midi": 48,
          "time": 40.363596000000214,
          "velocity": 0.7559055118110236,
          "duration": 0.3583329750000033
        },
        {
          "name": "D#3",
          "midi": 51,
          "time": 40.363596000000214,
          "velocity": 0.7559055118110236,
          "duration": 0.3583329750000033
        },
        {
          "name": "D#3",
          "midi": 51,
          "time": 40.72723200000022,
          "velocity": 0.7559055118110236,
          "duration": 0.3583329750000033
        },
        {
          "name": "G3",
          "midi": 55,
          "time": 40.72723200000022,
          "velocity": 0.7559055118110236,
          "duration": 0.3583329750000033
        },
        {
          "name": "D#3",
          "midi": 51,
          "time": 41.09086800000023,
          "velocity": 0.7559055118110236,
          "duration": 0.3583329750000033
        },
        {
          "name": "G3",
          "midi": 55,
          "time": 41.09086800000023,
          "velocity": 0.7559055118110236,
          "duration": 0.3583329750000033
        },
        {
          "name": "D#3",
          "midi": 51,
          "time": 41.454504000000234,
          "velocity": 0.7559055118110236,
          "duration": 0.3583329750000033
        },
        {
          "name": "G3",
          "midi": 55,
          "time": 41.454504000000234,
          "velocity": 0.7559055118110236,
          "duration": 0.3583329750000033
        },
        {
          "name": "D#3",
          "midi": 51,
          "time": 41.81814000000024,
          "velocity": 0.7559055118110236,
          "duration": 0.3583329750000033
        },
        {
          "name": "G3",
          "midi": 55,
          "time": 41.81814000000024,
          "velocity": 0.7559055118110236,
          "duration": 0.3583329750000033
        },
        {
          "name": "C#3",
          "midi": 49,
          "time": 42.18177600000025,
          "velocity": 0.7559055118110236,
          "duration": 0.3583329750000033
        },
        {
          "name": "F3",
          "midi": 53,
          "time": 42.18177600000025,
          "velocity": 0.7559055118110236,
          "duration": 0.3583329750000033
        },
        {
          "name": "C#3",
          "midi": 49,
          "time": 42.545412000000255,
          "velocity": 0.7559055118110236,
          "duration": 0.3583329750000033
        },
        {
          "name": "F3",
          "midi": 53,
          "time": 42.545412000000255,
          "velocity": 0.7559055118110236,
          "duration": 0.3583329750000033
        },
        {
          "name": "C#3",
          "midi": 49,
          "time": 42.90904800000026,
          "velocity": 0.7559055118110236,
          "duration": 0.3583329750000033
        },
        {
          "name": "F3",
          "midi": 53,
          "time": 42.90904800000026,
          "velocity": 0.7559055118110236,
          "duration": 0.3583329750000033
        },
        {
          "name": "C#3",
          "midi": 49,
          "time": 43.27268400000027,
          "velocity": 0.7559055118110236,
          "duration": 0.3583329750000033
        },
        {
          "name": "F3",
          "midi": 53,
          "time": 43.27268400000027,
          "velocity": 0.7559055118110236,
          "duration": 0.3583329750000033
        },
        {
          "name": "C3",
          "midi": 48,
          "time": 43.636320000000275,
          "velocity": 0.7559055118110236,
          "duration": 0.3583329750000033
        },
        {
          "name": "D#3",
          "midi": 51,
          "time": 43.636320000000275,
          "velocity": 0.7559055118110236,
          "duration": 0.3583329750000033
        },
        {
          "name": "C3",
          "midi": 48,
          "time": 43.99995600000028,
          "velocity": 0.7559055118110236,
          "duration": 0.3583329750000033
        },
        {
          "name": "D#3",
          "midi": 51,
          "time": 43.99995600000028,
          "velocity": 0.7559055118110236,
          "duration": 0.3583329750000033
        },
        {
          "name": "C3",
          "midi": 48,
          "time": 44.36359200000029,
          "velocity": 0.7559055118110236,
          "duration": 0.3583329750000033
        },
        {
          "name": "D#3",
          "midi": 51,
          "time": 44.36359200000029,
          "velocity": 0.7559055118110236,
          "duration": 0.3583329750000033
        },
        {
          "name": "D#3",
          "midi": 51,
          "time": 44.727228000000295,
          "velocity": 0.7559055118110236,
          "duration": 0.17651497500000346
        },
        {
          "name": "A#2",
          "midi": 46,
          "time": 44.9090460000003,
          "velocity": 0.7559055118110236,
          "duration": 0.17651497500000346
        },
        {
          "name": "C3",
          "midi": 48,
          "time": 45.09086400000031,
          "velocity": 0.7559055118110236,
          "duration": 0.3583329750000033
        },
        {
          "name": "D#3",
          "midi": 51,
          "time": 45.09086400000031,
          "velocity": 0.7559055118110236,
          "duration": 0.3583329750000033
        },
        {
          "name": "C3",
          "midi": 48,
          "time": 45.454500000000316,
          "velocity": 0.7559055118110236,
          "duration": 0.3583329750000033
        },
        {
          "name": "D#3",
          "midi": 51,
          "time": 45.454500000000316,
          "velocity": 0.7559055118110236,
          "duration": 0.3583329750000033
        },
        {
          "name": "C3",
          "midi": 48,
          "time": 45.81813600000032,
          "velocity": 0.7559055118110236,
          "duration": 0.3583329750000033
        },
        {
          "name": "D#3",
          "midi": 51,
          "time": 45.81813600000032,
          "velocity": 0.7559055118110236,
          "duration": 0.3583329750000033
        },
        {
          "name": "C3",
          "midi": 48,
          "time": 46.18177200000033,
          "velocity": 0.7559055118110236,
          "duration": 0.3583329750000033
        },
        {
          "name": "D#3",
          "midi": 51,
          "time": 46.18177200000033,
          "velocity": 0.7559055118110236,
          "duration": 0.3583329750000033
        },
        {
          "name": "D#3",
          "midi": 51,
          "time": 46.545408000000336,
          "velocity": 0.7559055118110236,
          "duration": 0.3583329750000033
        },
        {
          "name": "G3",
          "midi": 55,
          "time": 46.545408000000336,
          "velocity": 0.7559055118110236,
          "duration": 0.3583329750000033
        },
        {
          "name": "D#3",
          "midi": 51,
          "time": 46.90904400000034,
          "velocity": 0.7559055118110236,
          "duration": 0.3583329750000033
        },
        {
          "name": "G3",
          "midi": 55,
          "time": 46.90904400000034,
          "velocity": 0.7559055118110236,
          "duration": 0.3583329750000033
        },
        {
          "name": "D#3",
          "midi": 51,
          "time": 47.27268000000035,
          "velocity": 0.7559055118110236,
          "duration": 0.3583329750000033
        },
        {
          "name": "G3",
          "midi": 55,
          "time": 47.27268000000035,
          "velocity": 0.7559055118110236,
          "duration": 0.3583329750000033
        },
        {
          "name": "D#3",
          "midi": 51,
          "time": 47.636316000000356,
          "velocity": 0.7559055118110236,
          "duration": 0.3583329750000033
        },
        {
          "name": "G3",
          "midi": 55,
          "time": 47.636316000000356,
          "velocity": 0.7559055118110236,
          "duration": 0.3583329750000033
        },
        {
          "name": "C#3",
          "midi": 49,
          "time": 47.99995200000036,
          "velocity": 0.7559055118110236,
          "duration": 0.3583329750000033
        },
        {
          "name": "F3",
          "midi": 53,
          "time": 47.99995200000036,
          "velocity": 0.7559055118110236,
          "duration": 0.3583329750000033
        },
        {
          "name": "C#3",
          "midi": 49,
          "time": 48.36358800000037,
          "velocity": 0.7559055118110236,
          "duration": 0.3583329750000033
        },
        {
          "name": "F3",
          "midi": 53,
          "time": 48.36358800000037,
          "velocity": 0.7559055118110236,
          "duration": 0.3583329750000033
        },
        {
          "name": "C#3",
          "midi": 49,
          "time": 48.727224000000376,
          "velocity": 0.7559055118110236,
          "duration": 0.3583329750000033
        },
        {
          "name": "F3",
          "midi": 53,
          "time": 48.727224000000376,
          "velocity": 0.7559055118110236,
          "duration": 0.3583329750000033
        },
        {
          "name": "C#3",
          "midi": 49,
          "time": 49.09086000000038,
          "velocity": 0.7559055118110236,
          "duration": 0.3583329750000033
        },
        {
          "name": "F3",
          "midi": 53,
          "time": 49.09086000000038,
          "velocity": 0.7559055118110236,
          "duration": 0.3583329750000033
        },
        {
          "name": "C3",
          "midi": 48,
          "time": 49.45449600000039,
          "velocity": 0.7559055118110236,
          "duration": 0.3583329750000033
        },
        {
          "name": "D#3",
          "midi": 51,
          "time": 49.45449600000039,
          "velocity": 0.7559055118110236,
          "duration": 0.3583329750000033
        },
        {
          "name": "D#3",
          "midi": 51,
          "time": 49.818132000000396,
          "velocity": 0.7559055118110236,
          "duration": 0.17651497500000346
        },
        {
          "name": "A#2",
          "midi": 46,
          "time": 49.9999500000004,
          "velocity": 0.7559055118110236,
          "duration": 0.17651497500000346
        },
        {
          "name": "C3",
          "midi": 48,
          "time": 50.18176800000041,
          "velocity": 0.7559055118110236,
          "duration": 0.3583329750000033
        },
        {
          "name": "D#3",
          "midi": 51,
          "time": 50.54540400000042,
          "velocity": 0.7559055118110236,
          "duration": 0.17651497500000346
        },
        {
          "name": "A#2",
          "midi": 46,
          "time": 50.727222000000424,
          "velocity": 0.7559055118110236,
          "duration": 0.17651497500000346
        },
        {
          "name": "G#2",
          "midi": 44,
          "time": 50.90904000000043,
          "velocity": 0.7559055118110236,
          "duration": 0.5401509750000031
        },
        {
          "name": "D#3",
          "midi": 51,
          "time": 51.45449400000044,
          "velocity": 0.7559055118110236,
          "duration": 0.5401509750000031
        },
        {
          "name": "G#3",
          "midi": 56,
          "time": 51.999948000000444,
          "velocity": 0.7559055118110236,
          "duration": 0.3583329750000033
        },
        {
          "name": "A#3",
          "midi": 58,
          "time": 52.36358400000045,
          "velocity": 0.7559055118110236,
          "duration": 0.5401509750000031
        },
        {
          "name": "F3",
          "midi": 53,
          "time": 52.90903800000046,
          "velocity": 0.7559055118110236,
          "duration": 0.5401509750000031
        },
        {
          "name": "A#2",
          "midi": 46,
          "time": 53.454492000000464,
          "velocity": 0.7559055118110236,
          "duration": 0.3583329750000033
        },
        {
          "name": "C3",
          "midi": 48,
          "time": 53.81812800000047,
          "velocity": 0.7559055118110236,
          "duration": 0.5401509750000031
        },
        {
          "name": "D#3",
          "midi": 51,
          "time": 53.81812800000047,
          "velocity": 0.7559055118110236,
          "duration": 0.5401509750000031
        },
        {
          "name": "G3",
          "midi": 55,
          "time": 54.36358200000048,
          "velocity": 0.7559055118110236,
          "duration": 0.5401509750000031
        },
        {
          "name": "D#3",
          "midi": 51,
          "time": 54.909036000000484,
          "velocity": 0.7559055118110236,
          "duration": 0.3583329750000033
        },
        {
          "name": "D3",
          "midi": 50,
          "time": 55.27267200000049,
          "velocity": 0.7559055118110236,
          "duration": 0.5401509750000031
        },
        {
          "name": "A#3",
          "midi": 58,
          "time": 55.27267200000049,
          "velocity": 0.7559055118110236,
          "duration": 0.5401509750000031
        },
        {
          "name": "A#2",
          "midi": 46,
          "time": 55.8181260000005,
          "velocity": 0.7559055118110236,
          "duration": 0.5401509750000031
        },
        {
          "name": "F2",
          "midi": 41,
          "time": 56.3635800000005,
          "velocity": 0.7559055118110236,
          "duration": 0.3583329750000033
        },
        {
          "name": "G#2",
          "midi": 44,
          "time": 56.72721600000051,
          "velocity": 0.7559055118110236,
          "duration": 0.5401509750000031
        },
        {
          "name": "D#3",
          "midi": 51,
          "time": 57.27267000000052,
          "velocity": 0.7559055118110236,
          "duration": 0.5401509750000031
        },
        {
          "name": "G#3",
          "midi": 56,
          "time": 57.81812400000052,
          "velocity": 0.7559055118110236,
          "duration": 0.3583329750000033
        },
        {
          "name": "A#3",
          "midi": 58,
          "time": 58.18176000000053,
          "velocity": 0.7559055118110236,
          "duration": 0.5401509750000031
        },
        {
          "name": "F3",
          "midi": 53,
          "time": 58.72721400000054,
          "velocity": 0.7559055118110236,
          "duration": 0.5401509750000031
        },
        {
          "name": "A#2",
          "midi": 46,
          "time": 59.27266800000054,
          "velocity": 0.7559055118110236,
          "duration": 0.3583329750000033
        },
        {
          "name": "C3",
          "midi": 48,
          "time": 59.63630400000055,
          "velocity": 0.7559055118110236,
          "duration": 0.17651497500000346
        },
        {
          "name": "C3",
          "midi": 48,
          "time": 59.81812200000056,
          "velocity": 0.7559055118110236,
          "duration": 0.17651497500000346
        },
        {
          "name": "G#2",
          "midi": 44,
          "time": 60.18175800000056,
          "velocity": 0.7559055118110236,
          "duration": 0.17651497500000346
        },
        {
          "name": "G#2",
          "midi": 44,
          "time": 60.36357600000057,
          "velocity": 0.7559055118110236,
          "duration": 0.17651497500000346
        },
        {
          "name": "A#2",
          "midi": 46,
          "time": 60.72721200000058,
          "velocity": 0.7559055118110236,
          "duration": 0.17651497500000346
        },
        {
          "name": "A#2",
          "midi": 46,
          "time": 60.909030000000584,
          "velocity": 0.7559055118110236,
          "duration": 0.17651497500000346
        },
        {
          "name": "G2",
          "midi": 43,
          "time": 61.27266600000059,
          "velocity": 0.7559055118110236,
          "duration": 1.2674229750000023
        },
        {
          "name": "A1",
          "midi": 33,
          "time": 62.5453920000006,
          "velocity": 0.7559055118110236,
          "duration": 0.17651497500000346
        },
        {
          "name": "A2",
          "midi": 45,
          "time": 62.7272100000006,
          "velocity": 0.7559055118110236,
          "duration": 0.17651497500000346
        },
        {
          "name": "A1",
          "midi": 33,
          "time": 62.90902800000061,
          "velocity": 0.7559055118110236,
          "duration": 0.3583329750000033
        },
        {
          "name": "B1",
          "midi": 35,
          "time": 63.27266400000062,
          "velocity": 0.7559055118110236,
          "duration": 0.17651497500000346
        },
        {
          "name": "B2",
          "midi": 47,
          "time": 63.454482000000624,
          "velocity": 0.7559055118110236,
          "duration": 0.17651497500000346
        },
        {
          "name": "B1",
          "midi": 35,
          "time": 63.63630000000063,
          "velocity": 0.7559055118110236,
          "duration": 0.3583329750000033
        },
        {
          "name": "C#2",
          "midi": 37,
          "time": 63.99993600000064,
          "velocity": 0.7559055118110236,
          "duration": 0.17651497499999635
        },
        {
          "name": "C#3",
          "midi": 49,
          "time": 64.18175400000064,
          "velocity": 0.7559055118110236,
          "duration": 0.17651497500000346
        },
        {
          "name": "C#2",
          "midi": 37,
          "time": 64.36357200000064,
          "velocity": 0.7559055118110236,
          "duration": 0.35833297499999617
        },
        {
          "name": "C#2",
          "midi": 37,
          "time": 64.72720800000064,
          "velocity": 0.7559055118110236,
          "duration": 0.17651497500000346
        },
        {
          "name": "C#3",
          "midi": 49,
          "time": 64.90902600000065,
          "velocity": 0.7559055118110236,
          "duration": 0.17651497500000346
        },
        {
          "name": "C#2",
          "midi": 37,
          "time": 65.09084400000066,
          "velocity": 0.7559055118110236,
          "duration": 0.35833297499999617
        },
        {
          "name": "A1",
          "midi": 33,
          "time": 65.45448000000066,
          "velocity": 0.7559055118110236,
          "duration": 0.17651497500000346
        },
        {
          "name": "A2",
          "midi": 45,
          "time": 65.63629800000066,
          "velocity": 0.7559055118110236,
          "duration": 0.17651497500000346
        },
        {
          "name": "A1",
          "midi": 33,
          "time": 65.81811600000067,
          "velocity": 0.7559055118110236,
          "duration": 0.35833297499999617
        },
        {
          "name": "B1",
          "midi": 35,
          "time": 66.18175200000067,
          "velocity": 0.7559055118110236,
          "duration": 0.17651497500000346
        },
        {
          "name": "B2",
          "midi": 47,
          "time": 66.36357000000068,
          "velocity": 0.7559055118110236,
          "duration": 0.17651497500000346
        },
        {
          "name": "B1",
          "midi": 35,
          "time": 66.54538800000068,
          "velocity": 0.7559055118110236,
          "duration": 0.35833297499999617
        },
        {
          "name": "C#2",
          "midi": 37,
          "time": 66.90902400000068,
          "velocity": 0.7559055118110236,
          "duration": 0.17651497500000346
        },
        {
          "name": "C#3",
          "midi": 49,
          "time": 67.09084200000069,
          "velocity": 0.7559055118110236,
          "duration": 0.17651497500000346
        },
        {
          "name": "C#2",
          "midi": 37,
          "time": 67.2726600000007,
          "velocity": 0.7559055118110236,
          "duration": 0.17651497500000346
        },
        {
          "name": "D#2",
          "midi": 39,
          "time": 67.4544780000007,
          "velocity": 0.7559055118110236,
          "duration": 0.17651497500000346
        },
        {
          "name": "E2",
          "midi": 40,
          "time": 67.63629600000071,
          "velocity": 0.7559055118110236,
          "duration": 0.17651497500000346
        },
        {
          "name": "D#2",
          "midi": 39,
          "time": 67.81811400000072,
          "velocity": 0.7559055118110236,
          "duration": 0.17651497500000346
        },
        {
          "name": "C#2",
          "midi": 37,
          "time": 67.99993200000073,
          "velocity": 0.7559055118110236,
          "duration": 0.35833297499999617
        },
        {
          "name": "A1",
          "midi": 33,
          "time": 68.36356800000073,
          "velocity": 0.7559055118110236,
          "duration": 0.17651497500000346
        },
        {
          "name": "A2",
          "midi": 45,
          "time": 68.54538600000073,
          "velocity": 0.7559055118110236,
          "duration": 0.17651497500000346
        },
        {
          "name": "A1",
          "midi": 33,
          "time": 68.72720400000074,
          "velocity": 0.7559055118110236,
          "duration": 0.35833297499999617
        },
        {
          "name": "B1",
          "midi": 35,
          "time": 69.09084000000074,
          "velocity": 0.7559055118110236,
          "duration": 0.17651497500000346
        },
        {
          "name": "B2",
          "midi": 47,
          "time": 69.27265800000075,
          "velocity": 0.7559055118110236,
          "duration": 0.17651497500000346
        },
        {
          "name": "B1",
          "midi": 35,
          "time": 69.45447600000075,
          "velocity": 0.7559055118110236,
          "duration": 0.35833297499999617
        },
        {
          "name": "C#2",
          "midi": 37,
          "time": 69.81811200000075,
          "velocity": 0.7559055118110236,
          "duration": 0.17651497500000346
        },
        {
          "name": "C#3",
          "midi": 49,
          "time": 69.99993000000076,
          "velocity": 0.7559055118110236,
          "duration": 0.17651497500000346
        },
        {
          "name": "C#2",
          "midi": 37,
          "time": 70.18174800000077,
          "velocity": 0.7559055118110236,
          "duration": 0.35833297499999617
        },
        {
          "name": "C#2",
          "midi": 37,
          "time": 70.54538400000077,
          "velocity": 0.7559055118110236,
          "duration": 0.17651497500000346
        },
        {
          "name": "C#3",
          "midi": 49,
          "time": 70.72720200000077,
          "velocity": 0.7559055118110236,
          "duration": 0.17651497500000346
        },
        {
          "name": "C#2",
          "midi": 37,
          "time": 70.90902000000078,
          "velocity": 0.7559055118110236,
          "duration": 0.35833297499999617
        },
        {
          "name": "A1",
          "midi": 33,
          "time": 71.27265600000078,
          "velocity": 0.7559055118110236,
          "duration": 0.17651497500000346
        },
        {
          "name": "A2",
          "midi": 45,
          "time": 71.45447400000079,
          "velocity": 0.7559055118110236,
          "duration": 0.17651497500000346
        },
        {
          "name": "A1",
          "midi": 33,
          "time": 71.6362920000008,
          "velocity": 0.7559055118110236,
          "duration": 0.35833297499999617
        },
        {
          "name": "B1",
          "midi": 35,
          "time": 71.99992800000079,
          "velocity": 0.7559055118110236,
          "duration": 0.17651497500000346
        },
        {
          "name": "B2",
          "midi": 47,
          "time": 72.1817460000008,
          "velocity": 0.7559055118110236,
          "duration": 0.17651497500000346
        },
        {
          "name": "B1",
          "midi": 35,
          "time": 72.3635640000008,
          "velocity": 0.7559055118110236,
          "duration": 0.35833297499999617
        },
        {
          "name": "C#2",
          "midi": 37,
          "time": 72.7272000000008,
          "velocity": 0.7559055118110236,
          "duration": 0.17651497500000346
        },
        {
          "name": "C#3",
          "midi": 49,
          "time": 72.90901800000081,
          "velocity": 0.7559055118110236,
          "duration": 0.17651497500000346
        },
        {
          "name": "C#2",
          "midi": 37,
          "time": 73.09083600000082,
          "velocity": 0.7559055118110236,
          "duration": 0.17651497500000346
        },
        {
          "name": "D#2",
          "midi": 39,
          "time": 73.27265400000083,
          "velocity": 0.7559055118110236,
          "duration": 0.17651497500000346
        },
        {
          "name": "E2",
          "midi": 40,
          "time": 73.45447200000083,
          "velocity": 0.7559055118110236,
          "duration": 0.17651497500000346
        },
        {
          "name": "D#2",
          "midi": 39,
          "time": 73.63629000000084,
          "velocity": 0.7559055118110236,
          "duration": 0.17651497500000346
        },
        {
          "name": "C#2",
          "midi": 37,
          "time": 73.81810800000085,
          "velocity": 0.7559055118110236,
          "duration": 0.35833297499999617
        },
        {
          "name": "A1",
          "midi": 33,
          "time": 74.18174400000085,
          "velocity": 0.7559055118110236,
          "duration": 0.17651497500000346
        },
        {
          "name": "A2",
          "midi": 45,
          "time": 74.36356200000085,
          "velocity": 0.7559055118110236,
          "duration": 0.17651497500000346
        },
        {
          "name": "A1",
          "midi": 33,
          "time": 74.54538000000086,
          "velocity": 0.7559055118110236,
          "duration": 0.35833297499999617
        },
        {
          "name": "B1",
          "midi": 35,
          "time": 74.90901600000086,
          "velocity": 0.7559055118110236,
          "duration": 0.17651497500000346
        },
        {
          "name": "B2",
          "midi": 47,
          "time": 75.09083400000087,
          "velocity": 0.7559055118110236,
          "duration": 0.17651497500000346
        },
        {
          "name": "B1",
          "midi": 35,
          "time": 75.27265200000087,
          "velocity": 0.7559055118110236,
          "duration": 0.35833297499999617
        },
        {
          "name": "C#2",
          "midi": 37,
          "time": 75.63628800000087,
          "velocity": 0.7559055118110236,
          "duration": 0.17651497500000346
        },
        {
          "name": "C#3",
          "midi": 49,
          "time": 75.81810600000088,
          "velocity": 0.7559055118110236,
          "duration": 0.17651497500000346
        },
        {
          "name": "C#2",
          "midi": 37,
          "time": 75.99992400000089,
          "velocity": 0.7559055118110236,
          "duration": 0.35833297499999617
        },
        {
          "name": "C#2",
          "midi": 37,
          "time": 76.36356000000089,
          "velocity": 0.7559055118110236,
          "duration": 0.17651497500000346
        },
        {
          "name": "C#3",
          "midi": 49,
          "time": 76.5453780000009,
          "velocity": 0.7559055118110236,
          "duration": 0.17651497500000346
        },
        {
          "name": "C#2",
          "midi": 37,
          "time": 76.7271960000009,
          "velocity": 0.7559055118110236,
          "duration": 0.35833297499999617
        },
        {
          "name": "A1",
          "midi": 33,
          "time": 77.0908320000009,
          "velocity": 0.7559055118110236,
          "duration": 0.17651497500000346
        },
        {
          "name": "A2",
          "midi": 45,
          "time": 77.27265000000091,
          "velocity": 0.7559055118110236,
          "duration": 0.17651497500000346
        },
        {
          "name": "A1",
          "midi": 33,
          "time": 77.45446800000092,
          "velocity": 0.7559055118110236,
          "duration": 0.35833297499999617
        },
        {
          "name": "B1",
          "midi": 35,
          "time": 77.81810400000091,
          "velocity": 0.7559055118110236,
          "duration": 0.17651497500000346
        },
        {
          "name": "B2",
          "midi": 47,
          "time": 77.99992200000092,
          "velocity": 0.7559055118110236,
          "duration": 0.17651497500000346
        },
        {
          "name": "B1",
          "midi": 35,
          "time": 78.18174000000093,
          "velocity": 0.7559055118110236,
          "duration": 0.35833297499999617
        },
        {
          "name": "C#2",
          "midi": 37,
          "time": 78.54537600000093,
          "velocity": 0.7559055118110236,
          "duration": 0.17651497500000346
        },
        {
          "name": "C#3",
          "midi": 49,
          "time": 78.72719400000094,
          "velocity": 0.7559055118110236,
          "duration": 0.17651497500000346
        },
        {
          "name": "C#2",
          "midi": 37,
          "time": 78.90901200000094,
          "velocity": 0.7559055118110236,
          "duration": 0.17651497500000346
        },
        {
          "name": "D#2",
          "midi": 39,
          "time": 79.09083000000095,
          "velocity": 0.7559055118110236,
          "duration": 0.17651497500000346
        },
        {
          "name": "E2",
          "midi": 40,
          "time": 79.27264800000096,
          "velocity": 0.7559055118110236,
          "duration": 0.17651497500000346
        },
        {
          "name": "D#2",
          "midi": 39,
          "time": 79.45446600000096,
          "velocity": 0.7559055118110236,
          "duration": 0.17651497500000346
        },
        {
          "name": "C#2",
          "midi": 37,
          "time": 79.63628400000097,
          "velocity": 0.7559055118110236,
          "duration": 0.35833297499999617
        },
        {
          "name": "A1",
          "midi": 33,
          "time": 79.99992000000097,
          "velocity": 0.7559055118110236,
          "duration": 0.17651497500000346
        },
        {
          "name": "A2",
          "midi": 45,
          "time": 80.18173800000098,
          "velocity": 0.7559055118110236,
          "duration": 0.17651497500000346
        },
        {
          "name": "A1",
          "midi": 33,
          "time": 80.36355600000098,
          "velocity": 0.7559055118110236,
          "duration": 0.35833297499999617
        },
        {
          "name": "B1",
          "midi": 35,
          "time": 80.72719200000098,
          "velocity": 0.7559055118110236,
          "duration": 0.17651497500000346
        },
        {
          "name": "B2",
          "midi": 47,
          "time": 80.90901000000099,
          "velocity": 0.7559055118110236,
          "duration": 0.17651497500000346
        },
        {
          "name": "B1",
          "midi": 35,
          "time": 81.090828000001,
          "velocity": 0.7559055118110236,
          "duration": 0.35833297499999617
        },
        {
          "name": "C#2",
          "midi": 37,
          "time": 81.454464000001,
          "velocity": 0.7559055118110236,
          "duration": 0.17651497500000346
        },
        {
          "name": "C#3",
          "midi": 49,
          "time": 81.636282000001,
          "velocity": 0.7559055118110236,
          "duration": 0.17651497500000346
        },
        {
          "name": "C#2",
          "midi": 37,
          "time": 81.81810000000101,
          "velocity": 0.7559055118110236,
          "duration": 0.35833297499999617
        },
        {
          "name": "C#2",
          "midi": 37,
          "time": 82.18173600000101,
          "velocity": 0.7559055118110236,
          "duration": 0.17651497500000346
        },
        {
          "name": "C#3",
          "midi": 49,
          "time": 82.36355400000102,
          "velocity": 0.7559055118110236,
          "duration": 0.17651497500000346
        },
        {
          "name": "C#2",
          "midi": 37,
          "time": 82.54537200000102,
          "velocity": 0.7559055118110236,
          "duration": 0.35833297499999617
        },
        {
          "name": "A1",
          "midi": 33,
          "time": 82.90900800000102,
          "velocity": 0.7559055118110236,
          "duration": 0.17651497500000346
        },
        {
          "name": "A2",
          "midi": 45,
          "time": 83.09082600000103,
          "velocity": 0.7559055118110236,
          "duration": 0.17651497500000346
        },
        {
          "name": "A1",
          "midi": 33,
          "time": 83.27264400000104,
          "velocity": 0.7559055118110236,
          "duration": 0.35833297499999617
        },
        {
          "name": "B1",
          "midi": 35,
          "time": 83.63628000000104,
          "velocity": 0.7559055118110236,
          "duration": 0.17651497500000346
        },
        {
          "name": "B2",
          "midi": 47,
          "time": 83.81809800000104,
          "velocity": 0.7559055118110236,
          "duration": 0.17651497500000346
        },
        {
          "name": "B1",
          "midi": 35,
          "time": 83.99991600000105,
          "velocity": 0.7559055118110236,
          "duration": 0.35833297499999617
        },
        {
          "name": "C#2",
          "midi": 37,
          "time": 84.36355200000105,
          "velocity": 0.7559055118110236,
          "duration": 0.17651497500000346
        },
        {
          "name": "C#3",
          "midi": 49,
          "time": 84.54537000000106,
          "velocity": 0.7559055118110236,
          "duration": 0.17651497500000346
        },
        {
          "name": "C#2",
          "midi": 37,
          "time": 84.72718800000106,
          "velocity": 0.7559055118110236,
          "duration": 0.17651497500000346
        },
        {
          "name": "D#2",
          "midi": 39,
          "time": 84.90900600000107,
          "velocity": 0.7559055118110236,
          "duration": 0.17651497500000346
        },
        {
          "name": "E2",
          "midi": 40,
          "time": 85.09082400000108,
          "velocity": 0.7559055118110236,
          "duration": 0.17651497500000346
        },
        {
          "name": "D#2",
          "midi": 39,
          "time": 85.27264200000108,
          "velocity": 0.7559055118110236,
          "duration": 0.17651497500000346
        },
        {
          "name": "C#2",
          "midi": 37,
          "time": 85.45446000000109,
          "velocity": 0.7559055118110236,
          "duration": 0.35833297499999617
        },
        {
          "name": "C3",
          "midi": 48,
          "time": 85.81809600000109,
          "velocity": 0.7559055118110236,
          "duration": 0.35833297499999617
        },
        {
          "name": "D#3",
          "midi": 51,
          "time": 86.18173200000109,
          "velocity": 0.7559055118110236,
          "duration": 0.17651497500000346
        },
        {
          "name": "A#2",
          "midi": 46,
          "time": 86.3635500000011,
          "velocity": 0.7559055118110236,
          "duration": 0.17651497500000346
        },
        {
          "name": "C3",
          "midi": 48,
          "time": 86.5453680000011,
          "velocity": 0.7559055118110236,
          "duration": 0.35833297499999617
        },
        {
          "name": "D#3",
          "midi": 51,
          "time": 86.9090040000011,
          "velocity": 0.7559055118110236,
          "duration": 0.17651497500000346
        },
        {
          "name": "A#2",
          "midi": 46,
          "time": 87.09082200000111,
          "velocity": 0.7559055118110236,
          "duration": 0.17651497500000346
        },
        {
          "name": "D#3",
          "midi": 51,
          "time": 87.27264000000112,
          "velocity": 0.7559055118110236,
          "duration": 0.17651497500000346
        },
        {
          "name": "D#3",
          "midi": 51,
          "time": 87.45445800000113,
          "velocity": 0.7559055118110236,
          "duration": 0.17651497500000346
        },
        {
          "name": "C3",
          "midi": 48,
          "time": 87.63627600000113,
          "velocity": 0.7559055118110236,
          "duration": 0.17651497500000346
        },
        {
          "name": "D#3",
          "midi": 51,
          "time": 87.81809400000114,
          "velocity": 0.7559055118110236,
          "duration": 0.35833297499999617
        },
        {
          "name": "C#3",
          "midi": 49,
          "time": 88.18173000000114,
          "velocity": 0.7559055118110236,
          "duration": 0.17651497500000346
        },
        {
          "name": "C#3",
          "midi": 49,
          "time": 88.36354800000115,
          "velocity": 0.7559055118110236,
          "duration": 0.17651497500000346
        },
        {
          "name": "D#3",
          "midi": 51,
          "time": 88.54536600000115,
          "velocity": 0.7559055118110236,
          "duration": 0.17651497500000346
        },
        {
          "name": "C#3",
          "midi": 49,
          "time": 88.72718400000116,
          "velocity": 0.7559055118110236,
          "duration": 0.17651497500000346
        },
        {
          "name": "C#3",
          "midi": 49,
          "time": 88.90900200000117,
          "velocity": 0.7559055118110236,
          "duration": 0.17651497500000346
        },
        {
          "name": "A#2",
          "midi": 46,
          "time": 89.09082000000117,
          "velocity": 0.7559055118110236,
          "duration": 0.17651497500000346
        },
        {
          "name": "C#3",
          "midi": 49,
          "time": 89.27263800000118,
          "velocity": 0.7559055118110236,
          "duration": 0.35833297499999617
        },
        {
          "name": "A#2",
          "midi": 46,
          "time": 89.63627400000118,
          "velocity": 0.7559055118110236,
          "duration": 0.17651497500000346
        },
        {
          "name": "C#3",
          "midi": 49,
          "time": 89.81809200000119,
          "velocity": 0.7559055118110236,
          "duration": 0.17651497500000346
        },
        {
          "name": "D#3",
          "midi": 51,
          "time": 89.9999100000012,
          "velocity": 0.7559055118110236,
          "duration": 0.17651497500000346
        },
        {
          "name": "C3",
          "midi": 48,
          "time": 90.1817280000012,
          "velocity": 0.7559055118110236,
          "duration": 0.35833297499999617
        },
        {
          "name": "D#3",
          "midi": 51,
          "time": 90.5453640000012,
          "velocity": 0.7559055118110236,
          "duration": 0.17651497500000346
        },
        {
          "name": "A#2",
          "midi": 46,
          "time": 90.7271820000012,
          "velocity": 0.7559055118110236,
          "duration": 0.17651497500000346
        },
        {
          "name": "C3",
          "midi": 48,
          "time": 90.90900000000121,
          "velocity": 0.7559055118110236,
          "duration": 0.35833297499999617
        },
        {
          "name": "D#3",
          "midi": 51,
          "time": 91.27263600000121,
          "velocity": 0.7559055118110236,
          "duration": 0.17651497500000346
        },
        {
          "name": "A#2",
          "midi": 46,
          "time": 91.45445400000122,
          "velocity": 0.7559055118110236,
          "duration": 0.17651497500000346
        },
        {
          "name": "C3",
          "midi": 48,
          "time": 91.63627200000123,
          "velocity": 0.7559055118110236,
          "duration": 0.35833297499999617
        },
        {
          "name": "D#3",
          "midi": 51,
          "time": 91.99990800000123,
          "velocity": 0.7559055118110236,
          "duration": 0.17651497500000346
        },
        {
          "name": "A#2",
          "midi": 46,
          "time": 92.18172600000123,
          "velocity": 0.7559055118110236,
          "duration": 0.17651497500000346
        },
        {
          "name": "C3",
          "midi": 48,
          "time": 92.36354400000124,
          "velocity": 0.7559055118110236,
          "duration": 0.35833297499999617
        },
        {
          "name": "D#3",
          "midi": 51,
          "time": 92.72718000000124,
          "velocity": 0.7559055118110236,
          "duration": 0.17651497500000346
        },
        {
          "name": "A#2",
          "midi": 46,
          "time": 92.90899800000125,
          "velocity": 0.7559055118110236,
          "duration": 0.17651497500000346
        },
        {
          "name": "D#3",
          "midi": 51,
          "time": 93.09081600000125,
          "velocity": 0.7559055118110236,
          "duration": 0.17651497500000346
        },
        {
          "name": "D#3",
          "midi": 51,
          "time": 93.27263400000126,
          "velocity": 0.7559055118110236,
          "duration": 0.17651497500000346
        },
        {
          "name": "C3",
          "midi": 48,
          "time": 93.45445200000127,
          "velocity": 0.7559055118110236,
          "duration": 0.17651497500000346
        },
        {
          "name": "D#3",
          "midi": 51,
          "time": 93.63627000000128,
          "velocity": 0.7559055118110236,
          "duration": 0.35833297499999617
        },
        {
          "name": "C#3",
          "midi": 49,
          "time": 93.99990600000127,
          "velocity": 0.7559055118110236,
          "duration": 0.17651497500000346
        },
        {
          "name": "C#3",
          "midi": 49,
          "time": 94.18172400000128,
          "velocity": 0.7559055118110236,
          "duration": 0.17651497500000346
        },
        {
          "name": "D#3",
          "midi": 51,
          "time": 94.36354200000129,
          "velocity": 0.7559055118110236,
          "duration": 0.17651497500000346
        },
        {
          "name": "C#3",
          "midi": 49,
          "time": 94.5453600000013,
          "velocity": 0.7559055118110236,
          "duration": 0.17651497500000346
        },
        {
          "name": "C#3",
          "midi": 49,
          "time": 94.7271780000013,
          "velocity": 0.7559055118110236,
          "duration": 0.17651497500000346
        },
        {
          "name": "A#2",
          "midi": 46,
          "time": 94.90899600000131,
          "velocity": 0.7559055118110236,
          "duration": 0.17651497500000346
        },
        {
          "name": "C#3",
          "midi": 49,
          "time": 95.09081400000132,
          "velocity": 0.7559055118110236,
          "duration": 0.35833297499999617
        },
        {
          "name": "A#2",
          "midi": 46,
          "time": 95.45445000000132,
          "velocity": 0.7559055118110236,
          "duration": 0.17651497500000346
        },
        {
          "name": "C#3",
          "midi": 49,
          "time": 95.63626800000132,
          "velocity": 0.7559055118110236,
          "duration": 0.17651497500000346
        },
        {
          "name": "D#3",
          "midi": 51,
          "time": 95.81808600000133,
          "velocity": 0.7559055118110236,
          "duration": 0.17651497500000346
        },
        {
          "name": "C3",
          "midi": 48,
          "time": 95.99990400000134,
          "velocity": 0.7559055118110236,
          "duration": 0.35833297499999617
        },
        {
          "name": "D#3",
          "midi": 51,
          "time": 96.36354000000134,
          "velocity": 0.7559055118110236,
          "duration": 0.17651497500000346
        },
        {
          "name": "A#2",
          "midi": 46,
          "time": 96.54535800000134,
          "velocity": 0.7559055118110236,
          "duration": 0.17651497500000346
        },
        {
          "name": "C3",
          "midi": 48,
          "time": 96.72717600000135,
          "velocity": 0.7559055118110236,
          "duration": 0.35833297499999617
        },
        {
          "name": "D#3",
          "midi": 51,
          "time": 97.09081200000135,
          "velocity": 0.7559055118110236,
          "duration": 0.17651497500000346
        },
        {
          "name": "A#2",
          "midi": 46,
          "time": 97.27263000000136,
          "velocity": 0.7559055118110236,
          "duration": 0.17651497500000346
        },
        {
          "name": "C3",
          "midi": 48,
          "time": 97.45444800000136,
          "velocity": 0.7559055118110236,
          "duration": 0.35833297499999617
        },
        {
          "name": "D#3",
          "midi": 51,
          "time": 97.45444800000136,
          "velocity": 0.7559055118110236,
          "duration": 0.35833297499999617
        },
        {
          "name": "C3",
          "midi": 48,
          "time": 97.81808400000136,
          "velocity": 0.7559055118110236,
          "duration": 0.35833297499999617
        },
        {
          "name": "D#3",
          "midi": 51,
          "time": 97.81808400000136,
          "velocity": 0.7559055118110236,
          "duration": 0.35833297499999617
        },
        {
          "name": "C3",
          "midi": 48,
          "time": 98.18172000000136,
          "velocity": 0.7559055118110236,
          "duration": 0.35833297499999617
        },
        {
          "name": "D#3",
          "midi": 51,
          "time": 98.18172000000136,
          "velocity": 0.7559055118110236,
          "duration": 0.35833297499999617
        },
        {
          "name": "C3",
          "midi": 48,
          "time": 98.54535600000136,
          "velocity": 0.7559055118110236,
          "duration": 0.35833297499999617
        },
        {
          "name": "D#3",
          "midi": 51,
          "time": 98.54535600000136,
          "velocity": 0.7559055118110236,
          "duration": 0.35833297499999617
        },
        {
          "name": "D#3",
          "midi": 51,
          "time": 98.90899200000136,
          "velocity": 0.7559055118110236,
          "duration": 0.35833297499999617
        },
        {
          "name": "G3",
          "midi": 55,
          "time": 98.90899200000136,
          "velocity": 0.7559055118110236,
          "duration": 0.35833297499999617
        },
        {
          "name": "D#3",
          "midi": 51,
          "time": 99.27262800000136,
          "velocity": 0.7559055118110236,
          "duration": 0.35833297499999617
        },
        {
          "name": "G3",
          "midi": 55,
          "time": 99.27262800000136,
          "velocity": 0.7559055118110236,
          "duration": 0.35833297499999617
        },
        {
          "name": "D#3",
          "midi": 51,
          "time": 99.63626400000136,
          "velocity": 0.7559055118110236,
          "duration": 0.35833297499999617
        },
        {
          "name": "G3",
          "midi": 55,
          "time": 99.63626400000136,
          "velocity": 0.7559055118110236,
          "duration": 0.35833297499999617
        },
        {
          "name": "D#3",
          "midi": 51,
          "time": 99.99990000000136,
          "velocity": 0.7559055118110236,
          "duration": 0.35833297499999617
        },
        {
          "name": "G3",
          "midi": 55,
          "time": 99.99990000000136,
          "velocity": 0.7559055118110236,
          "duration": 0.35833297499999617
        },
        {
          "name": "C#3",
          "midi": 49,
          "time": 100.36353600000136,
          "velocity": 0.7559055118110236,
          "duration": 0.35833297499999617
        },
        {
          "name": "F3",
          "midi": 53,
          "time": 100.36353600000136,
          "velocity": 0.7559055118110236,
          "duration": 0.35833297499999617
        },
        {
          "name": "C#3",
          "midi": 49,
          "time": 100.72717200000136,
          "velocity": 0.7559055118110236,
          "duration": 0.35833297499999617
        },
        {
          "name": "F3",
          "midi": 53,
          "time": 100.72717200000136,
          "velocity": 0.7559055118110236,
          "duration": 0.35833297499999617
        },
        {
          "name": "C#3",
          "midi": 49,
          "time": 101.09080800000136,
          "velocity": 0.7559055118110236,
          "duration": 0.35833297499999617
        },
        {
          "name": "F3",
          "midi": 53,
          "time": 101.09080800000136,
          "velocity": 0.7559055118110236,
          "duration": 0.35833297499999617
        },
        {
          "name": "C#3",
          "midi": 49,
          "time": 101.45444400000136,
          "velocity": 0.7559055118110236,
          "duration": 0.35833297499999617
        },
        {
          "name": "F3",
          "midi": 53,
          "time": 101.45444400000136,
          "velocity": 0.7559055118110236,
          "duration": 0.35833297499999617
        },
        {
          "name": "C3",
          "midi": 48,
          "time": 101.81808000000136,
          "velocity": 0.7559055118110236,
          "duration": 0.35833297499999617
        },
        {
          "name": "D#3",
          "midi": 51,
          "time": 101.81808000000136,
          "velocity": 0.7559055118110236,
          "duration": 0.35833297499999617
        },
        {
          "name": "C3",
          "midi": 48,
          "time": 102.18171600000136,
          "velocity": 0.7559055118110236,
          "duration": 0.35833297499999617
        },
        {
          "name": "D#3",
          "midi": 51,
          "time": 102.18171600000136,
          "velocity": 0.7559055118110236,
          "duration": 0.35833297499999617
        },
        {
          "name": "C3",
          "midi": 48,
          "time": 102.54535200000136,
          "velocity": 0.7559055118110236,
          "duration": 0.35833297499999617
        },
        {
          "name": "D#3",
          "midi": 51,
          "time": 102.54535200000136,
          "velocity": 0.7559055118110236,
          "duration": 0.35833297499999617
        },
        {
          "name": "D#3",
          "midi": 51,
          "time": 102.90898800000136,
          "velocity": 0.7559055118110236,
          "duration": 0.17651497500000346
        },
        {
          "name": "A#2",
          "midi": 46,
          "time": 103.09080600000136,
          "velocity": 0.7559055118110236,
          "duration": 0.17651497500000346
        },
        {
          "name": "C3",
          "midi": 48,
          "time": 103.27262400000137,
          "velocity": 0.7559055118110236,
          "duration": 0.35833297499999617
        },
        {
          "name": "D#3",
          "midi": 51,
          "time": 103.27262400000137,
          "velocity": 0.7559055118110236,
          "duration": 0.35833297499999617
        },
        {
          "name": "C3",
          "midi": 48,
          "time": 103.63626000000137,
          "velocity": 0.7559055118110236,
          "duration": 0.35833297499999617
        },
        {
          "name": "D#3",
          "midi": 51,
          "time": 103.63626000000137,
          "velocity": 0.7559055118110236,
          "duration": 0.35833297499999617
        },
        {
          "name": "C3",
          "midi": 48,
          "time": 103.99989600000137,
          "velocity": 0.7559055118110236,
          "duration": 0.35833297499999617
        },
        {
          "name": "D#3",
          "midi": 51,
          "time": 103.99989600000137,
          "velocity": 0.7559055118110236,
          "duration": 0.35833297499999617
        },
        {
          "name": "C3",
          "midi": 48,
          "time": 104.36353200000137,
          "velocity": 0.7559055118110236,
          "duration": 0.35833297499999617
        },
        {
          "name": "D#3",
          "midi": 51,
          "time": 104.36353200000137,
          "velocity": 0.7559055118110236,
          "duration": 0.35833297499999617
        },
        {
          "name": "D#3",
          "midi": 51,
          "time": 104.72716800000137,
          "velocity": 0.7559055118110236,
          "duration": 0.35833297499999617
        },
        {
          "name": "G3",
          "midi": 55,
          "time": 104.72716800000137,
          "velocity": 0.7559055118110236,
          "duration": 0.35833297499999617
        },
        {
          "name": "D#3",
          "midi": 51,
          "time": 105.09080400000137,
          "velocity": 0.7559055118110236,
          "duration": 0.35833297499999617
        },
        {
          "name": "G3",
          "midi": 55,
          "time": 105.09080400000137,
          "velocity": 0.7559055118110236,
          "duration": 0.35833297499999617
        },
        {
          "name": "D#3",
          "midi": 51,
          "time": 105.45444000000137,
          "velocity": 0.7559055118110236,
          "duration": 0.35833297499999617
        },
        {
          "name": "G3",
          "midi": 55,
          "time": 105.45444000000137,
          "velocity": 0.7559055118110236,
          "duration": 0.35833297499999617
        },
        {
          "name": "D#3",
          "midi": 51,
          "time": 105.81807600000137,
          "velocity": 0.7559055118110236,
          "duration": 0.35833297499999617
        },
        {
          "name": "G3",
          "midi": 55,
          "time": 105.81807600000137,
          "velocity": 0.7559055118110236,
          "duration": 0.35833297499999617
        },
        {
          "name": "C#3",
          "midi": 49,
          "time": 106.18171200000137,
          "velocity": 0.7559055118110236,
          "duration": 0.35833297499999617
        },
        {
          "name": "F3",
          "midi": 53,
          "time": 106.18171200000137,
          "velocity": 0.7559055118110236,
          "duration": 0.35833297499999617
        },
        {
          "name": "C#3",
          "midi": 49,
          "time": 106.54534800000137,
          "velocity": 0.7559055118110236,
          "duration": 0.35833297499999617
        },
        {
          "name": "F3",
          "midi": 53,
          "time": 106.54534800000137,
          "velocity": 0.7559055118110236,
          "duration": 0.35833297499999617
        },
        {
          "name": "C#3",
          "midi": 49,
          "time": 106.90898400000137,
          "velocity": 0.7559055118110236,
          "duration": 0.35833297499999617
        },
        {
          "name": "F3",
          "midi": 53,
          "time": 106.90898400000137,
          "velocity": 0.7559055118110236,
          "duration": 0.35833297499999617
        },
        {
          "name": "C#3",
          "midi": 49,
          "time": 107.27262000000137,
          "velocity": 0.7559055118110236,
          "duration": 0.35833297499999617
        },
        {
          "name": "F3",
          "midi": 53,
          "time": 107.27262000000137,
          "velocity": 0.7559055118110236,
          "duration": 0.35833297499999617
        },
        {
          "name": "C3",
          "midi": 48,
          "time": 107.63625600000137,
          "velocity": 0.7559055118110236,
          "duration": 0.35833297499999617
        },
        {
          "name": "D#3",
          "midi": 51,
          "time": 107.63625600000137,
          "velocity": 0.7559055118110236,
          "duration": 0.35833297499999617
        },
        {
          "name": "D#3",
          "midi": 51,
          "time": 107.99989200000137,
          "velocity": 0.7559055118110236,
          "duration": 0.17651497500000346
        },
        {
          "name": "A#2",
          "midi": 46,
          "time": 108.18171000000137,
          "velocity": 0.7559055118110236,
          "duration": 0.17651497500000346
        },
        {
          "name": "C3",
          "midi": 48,
          "time": 108.36352800000138,
          "velocity": 0.7559055118110236,
          "duration": 0.35833297499999617
        },
        {
          "name": "D#3",
          "midi": 51,
          "time": 108.72716400000138,
          "velocity": 0.7559055118110236,
          "duration": 0.17651497500000346
        },
        {
          "name": "A#2",
          "midi": 46,
          "time": 108.90898200000139,
          "velocity": 0.7559055118110236,
          "duration": 0.17651497500000346
        },
        {
          "name": "G#2",
          "midi": 44,
          "time": 109.0908000000014,
          "velocity": 0.7559055118110236,
          "duration": 0.5401509750000031
        },
        {
          "name": "D#3",
          "midi": 51,
          "time": 109.6362540000014,
          "velocity": 0.7559055118110236,
          "duration": 0.5401509750000031
        },
        {
          "name": "G#3",
          "midi": 56,
          "time": 110.18170800000141,
          "velocity": 0.7559055118110236,
          "duration": 0.35833297499999617
        },
        {
          "name": "A#3",
          "midi": 58,
          "time": 110.5453440000014,
          "velocity": 0.7559055118110236,
          "duration": 0.5401509750000031
        },
        {
          "name": "F3",
          "midi": 53,
          "time": 111.09079800000141,
          "velocity": 0.7559055118110236,
          "duration": 0.5401509750000031
        },
        {
          "name": "A#2",
          "midi": 46,
          "time": 111.63625200000142,
          "velocity": 0.7559055118110236,
          "duration": 0.35833297499999617
        },
        {
          "name": "C3",
          "midi": 48,
          "time": 111.99988800000142,
          "velocity": 0.7559055118110236,
          "duration": 0.5401509750000031
        },
        {
          "name": "D#3",
          "midi": 51,
          "time": 111.99988800000142,
          "velocity": 0.7559055118110236,
          "duration": 0.5401509750000031
        },
        {
          "name": "G3",
          "midi": 55,
          "time": 112.54534200000143,
          "velocity": 0.7559055118110236,
          "duration": 0.5401509750000031
        },
        {
          "name": "D#3",
          "midi": 51,
          "time": 113.09079600000143,
          "velocity": 0.7559055118110236,
          "duration": 0.35833297499999617
        },
        {
          "name": "D3",
          "midi": 50,
          "time": 113.45443200000143,
          "velocity": 0.7559055118110236,
          "duration": 0.5401509750000031
        },
        {
          "name": "A#3",
          "midi": 58,
          "time": 113.45443200000143,
          "velocity": 0.7559055118110236,
          "duration": 0.5401509750000031
        },
        {
          "name": "A#2",
          "midi": 46,
          "time": 113.99988600000144,
          "velocity": 0.7559055118110236,
          "duration": 0.5401509750000031
        },
        {
          "name": "F2",
          "midi": 41,
          "time": 114.54534000000145,
          "velocity": 0.7559055118110236,
          "duration": 0.35833297499999617
        },
        {
          "name": "G#2",
          "midi": 44,
          "time": 114.90897600000145,
          "velocity": 0.7559055118110236,
          "duration": 0.5401509750000031
        },
        {
          "name": "D#3",
          "midi": 51,
          "time": 115.45443000000145,
          "velocity": 0.7559055118110236,
          "duration": 0.5401509750000031
        },
        {
          "name": "G#3",
          "midi": 56,
          "time": 115.99988400000146,
          "velocity": 0.7559055118110236,
          "duration": 0.35833297499999617
        },
        {
          "name": "A#3",
          "midi": 58,
          "time": 116.36352000000146,
          "velocity": 0.7559055118110236,
          "duration": 0.5401509750000031
        },
        {
          "name": "F3",
          "midi": 53,
          "time": 116.90897400000146,
          "velocity": 0.7559055118110236,
          "duration": 0.5401509750000031
        },
        {
          "name": "A#2",
          "midi": 46,
          "time": 117.45442800000147,
          "velocity": 0.7559055118110236,
          "duration": 0.35833297499999617
        },
        {
          "name": "C3",
          "midi": 48,
          "time": 117.81806400000147,
          "velocity": 0.7559055118110236,
          "duration": 0.17651497500000346
        },
        {
          "name": "C3",
          "midi": 48,
          "time": 117.99988200000148,
          "velocity": 0.7559055118110236,
          "duration": 0.17651497500000346
        },
        {
          "name": "G#2",
          "midi": 44,
          "time": 118.36351800000148,
          "velocity": 0.7559055118110236,
          "duration": 0.17651497500000346
        },
        {
          "name": "G#2",
          "midi": 44,
          "time": 118.54533600000148,
          "velocity": 0.7559055118110236,
          "duration": 0.17651497500000346
        },
        {
          "name": "A#2",
          "midi": 46,
          "time": 118.90897200000148,
          "velocity": 0.7559055118110236,
          "duration": 0.17651497500000346
        },
        {
          "name": "A#2",
          "midi": 46,
          "time": 119.09079000000149,
          "velocity": 0.7559055118110236,
          "duration": 0.17651497500000346
        },
        {
          "name": "G2",
          "midi": 43,
          "time": 119.45442600000149,
          "velocity": 0.7559055118110236,
          "duration": 1.2674229750000023
        },
        {
          "name": "A1",
          "midi": 33,
          "time": 120.7271520000015,
          "velocity": 0.7559055118110236,
          "duration": 0.17651497500000346
        },
        {
          "name": "A2",
          "midi": 45,
          "time": 120.9089700000015,
          "velocity": 0.7559055118110236,
          "duration": 0.17651497500000346
        },
        {
          "name": "A1",
          "midi": 33,
          "time": 121.09078800000151,
          "velocity": 0.7559055118110236,
          "duration": 0.35833297499999617
        },
        {
          "name": "B1",
          "midi": 35,
          "time": 121.45442400000151,
          "velocity": 0.7559055118110236,
          "duration": 0.17651497500000346
        },
        {
          "name": "B2",
          "midi": 47,
          "time": 121.63624200000152,
          "velocity": 0.7559055118110236,
          "duration": 0.17651497500000346
        },
        {
          "name": "B1",
          "midi": 35,
          "time": 121.81806000000152,
          "velocity": 0.7559055118110236,
          "duration": 0.35833297499999617
        },
        {
          "name": "C#2",
          "midi": 37,
          "time": 122.18169600000152,
          "velocity": 0.7559055118110236,
          "duration": 0.17651497500000346
        },
        {
          "name": "C#3",
          "midi": 49,
          "time": 122.36351400000153,
          "velocity": 0.7559055118110236,
          "duration": 0.17651497500000346
        },
        {
          "name": "C#2",
          "midi": 37,
          "time": 122.54533200000154,
          "velocity": 0.7559055118110236,
          "duration": 0.35833297499999617
        },
        {
          "name": "C#2",
          "midi": 37,
          "time": 122.90896800000154,
          "velocity": 0.7559055118110236,
          "duration": 0.17651497500000346
        },
        {
          "name": "C#3",
          "midi": 49,
          "time": 123.09078600000154,
          "velocity": 0.7559055118110236,
          "duration": 0.17651497500000346
        },
        {
          "name": "C#2",
          "midi": 37,
          "time": 123.27260400000155,
          "velocity": 0.7559055118110236,
          "duration": 0.35833297499999617
        },
        {
          "name": "A1",
          "midi": 33,
          "time": 123.63624000000155,
          "velocity": 0.7559055118110236,
          "duration": 0.17651497500000346
        },
        {
          "name": "A2",
          "midi": 45,
          "time": 123.81805800000156,
          "velocity": 0.7559055118110236,
          "duration": 0.17651497500000346
        },
        {
          "name": "A1",
          "midi": 33,
          "time": 123.99987600000156,
          "velocity": 0.7559055118110236,
          "duration": 0.35833297499999617
        },
        {
          "name": "B1",
          "midi": 35,
          "time": 124.36351200000156,
          "velocity": 0.7559055118110236,
          "duration": 0.17651497500000346
        },
        {
          "name": "B2",
          "midi": 47,
          "time": 124.54533000000157,
          "velocity": 0.7559055118110236,
          "duration": 0.17651497500000346
        },
        {
          "name": "B1",
          "midi": 35,
          "time": 124.72714800000158,
          "velocity": 0.7559055118110236,
          "duration": 0.35833297499999617
        },
        {
          "name": "C#2",
          "midi": 37,
          "time": 125.09078400000158,
          "velocity": 0.7559055118110236,
          "duration": 0.17651497500000346
        },
        {
          "name": "C#3",
          "midi": 49,
          "time": 125.27260200000158,
          "velocity": 0.7559055118110236,
          "duration": 0.17651497500000346
        },
        {
          "name": "C#2",
          "midi": 37,
          "time": 125.45442000000159,
          "velocity": 0.7559055118110236,
          "duration": 0.17651497500000346
        },
        {
          "name": "D#2",
          "midi": 39,
          "time": 125.6362380000016,
          "velocity": 0.7559055118110236,
          "duration": 0.17651497500000346
        },
        {
          "name": "E2",
          "midi": 40,
          "time": 125.8180560000016,
          "velocity": 0.7559055118110236,
          "duration": 0.17651497500000346
        },
        {
          "name": "D#2",
          "midi": 39,
          "time": 125.99987400000161,
          "velocity": 0.7559055118110236,
          "duration": 0.17651497500000346
        },
        {
          "name": "C#2",
          "midi": 37,
          "time": 126.18169200000162,
          "velocity": 0.7559055118110236,
          "duration": 0.35833297499999617
        },
        {
          "name": "A1",
          "midi": 33,
          "time": 126.54532800000162,
          "velocity": 0.7559055118110236,
          "duration": 0.17651497500000346
        },
        {
          "name": "A2",
          "midi": 45,
          "time": 126.72714600000162,
          "velocity": 0.7559055118110236,
          "duration": 0.17651497500000346
        },
        {
          "name": "A1",
          "midi": 33,
          "time": 126.90896400000163,
          "velocity": 0.7559055118110236,
          "duration": 0.35833297499999617
        },
        {
          "name": "B1",
          "midi": 35,
          "time": 127.27260000000163,
          "velocity": 0.7559055118110236,
          "duration": 0.17651497500000346
        },
        {
          "name": "B2",
          "midi": 47,
          "time": 127.45441800000164,
          "velocity": 0.7559055118110236,
          "duration": 0.17651497500000346
        },
        {
          "name": "B1",
          "midi": 35,
          "time": 127.63623600000165,
          "velocity": 0.7559055118110236,
          "duration": 0.35833297499999617
        },
        {
          "name": "C#2",
          "midi": 37,
          "time": 127.99987200000164,
          "velocity": 0.7559055118110236,
          "duration": 0.17651497499998925
        },
        {
          "name": "C#3",
          "midi": 49,
          "time": 128.18169000000162,
          "velocity": 0.7559055118110236,
          "duration": 0.17651497500000346
        },
        {
          "name": "C#2",
          "midi": 37,
          "time": 128.36350800000162,
          "velocity": 0.7559055118110236,
          "duration": 0.35833297499999617
        },
        {
          "name": "C#2",
          "midi": 37,
          "time": 128.7271440000016,
          "velocity": 0.7559055118110236,
          "duration": 0.17651497500000346
        },
        {
          "name": "C#3",
          "midi": 49,
          "time": 128.9089620000016,
          "velocity": 0.7559055118110236,
          "duration": 0.17651497500000346
        },
        {
          "name": "C#2",
          "midi": 37,
          "time": 129.0907800000016,
          "velocity": 0.7559055118110236,
          "duration": 0.35833297499999617
        },
        {
          "name": "A1",
          "midi": 33,
          "time": 129.45441600000157,
          "velocity": 0.7559055118110236,
          "duration": 0.17651497500000346
        },
        {
          "name": "A2",
          "midi": 45,
          "time": 129.63623400000156,
          "velocity": 0.7559055118110236,
          "duration": 0.17651497500000346
        },
        {
          "name": "A1",
          "midi": 33,
          "time": 129.81805200000156,
          "velocity": 0.7559055118110236,
          "duration": 0.35833297499999617
        },
        {
          "name": "B1",
          "midi": 35,
          "time": 130.18168800000154,
          "velocity": 0.7559055118110236,
          "duration": 0.17651497500000346
        },
        {
          "name": "B2",
          "midi": 47,
          "time": 130.36350600000154,
          "velocity": 0.7559055118110236,
          "duration": 0.17651497500000346
        },
        {
          "name": "B1",
          "midi": 35,
          "time": 130.54532400000153,
          "velocity": 0.7559055118110236,
          "duration": 0.35833297499999617
        },
        {
          "name": "C#2",
          "midi": 37,
          "time": 130.9089600000015,
          "velocity": 0.7559055118110236,
          "duration": 0.17651497500000346
        },
        {
          "name": "C#3",
          "midi": 49,
          "time": 131.0907780000015,
          "velocity": 0.7559055118110236,
          "duration": 0.17651497500000346
        },
        {
          "name": "C#2",
          "midi": 37,
          "time": 131.2725960000015,
          "velocity": 0.7559055118110236,
          "duration": 0.17651497500000346
        },
        {
          "name": "D#2",
          "midi": 39,
          "time": 131.4544140000015,
          "velocity": 0.7559055118110236,
          "duration": 0.17651497500000346
        },
        {
          "name": "E2",
          "midi": 40,
          "time": 131.63623200000148,
          "velocity": 0.7559055118110236,
          "duration": 0.17651497500000346
        },
        {
          "name": "D#2",
          "midi": 39,
          "time": 131.81805000000148,
          "velocity": 0.7559055118110236,
          "duration": 0.17651497500000346
        },
        {
          "name": "C#2",
          "midi": 37,
          "time": 131.99986800000147,
          "velocity": 0.7559055118110236,
          "duration": 0.35833297499999617
        },
        {
          "name": "A2",
          "midi": 45,
          "time": 132.36350400000146,
          "velocity": 0.7559055118110236,
          "duration": 0.17651497500000346
        },
        {
          "name": "G#2",
          "midi": 44,
          "time": 132.54532200000145,
          "velocity": 0.7559055118110236,
          "duration": 0.17651497500000346
        },
        {
          "name": "A2",
          "midi": 45,
          "time": 132.72714000000144,
          "velocity": 0.7559055118110236,
          "duration": 0.17651497500000346
        },
        {
          "name": "B2",
          "midi": 47,
          "time": 132.90895800000143,
          "velocity": 0.7559055118110236,
          "duration": 0.35833297499999617
        },
        {
          "name": "A2",
          "midi": 45,
          "time": 133.27259400000142,
          "velocity": 0.7559055118110236,
          "duration": 0.17651497500000346
        },
        {
          "name": "B2",
          "midi": 47,
          "time": 133.4544120000014,
          "velocity": 0.7559055118110236,
          "duration": 0.17651497500000346
        },
        {
          "name": "C#3",
          "midi": 49,
          "time": 133.6362300000014,
          "velocity": 0.7559055118110236,
          "duration": 0.35833297499999617
        },
        {
          "name": "B2",
          "midi": 47,
          "time": 133.9998660000014,
          "velocity": 0.7559055118110236,
          "duration": 0.17651497500000346
        },
        {
          "name": "C#3",
          "midi": 49,
          "time": 134.18168400000138,
          "velocity": 0.7559055118110236,
          "duration": 0.17651497500000346
        },
        {
          "name": "D#3",
          "midi": 51,
          "time": 134.36350200000138,
          "velocity": 0.7559055118110236,
          "duration": 0.17651497500000346
        },
        {
          "name": "E3",
          "midi": 52,
          "time": 134.54532000000137,
          "velocity": 0.7559055118110236,
          "duration": 0.17651497500000346
        },
        {
          "name": "D#3",
          "midi": 51,
          "time": 134.72713800000136,
          "velocity": 0.7559055118110236,
          "duration": 0.17651497500000346
        },
        {
          "name": "C#3",
          "midi": 49,
          "time": 134.90895600000135,
          "velocity": 0.7559055118110236,
          "duration": 0.17651497500000346
        },
        {
          "name": "B2",
          "midi": 47,
          "time": 135.09077400000135,
          "velocity": 0.7559055118110236,
          "duration": 0.17651497500000346
        },
        {
          "name": "A2",
          "midi": 45,
          "time": 135.27259200000134,
          "velocity": 0.7559055118110236,
          "duration": 0.17651497500000346
        },
        {
          "name": "G#2",
          "midi": 44,
          "time": 135.45441000000133,
          "velocity": 0.7559055118110236,
          "duration": 0.17651497500000346
        },
        {
          "name": "A2",
          "midi": 45,
          "time": 135.63622800000132,
          "velocity": 0.7559055118110236,
          "duration": 0.17651497500000346
        },
        {
          "name": "B2",
          "midi": 47,
          "time": 135.81804600000132,
          "velocity": 0.7559055118110236,
          "duration": 0.35833297499999617
        },
        {
          "name": "A2",
          "midi": 45,
          "time": 136.1816820000013,
          "velocity": 0.7559055118110236,
          "duration": 0.17651497500000346
        },
        {
          "name": "B2",
          "midi": 47,
          "time": 136.3635000000013,
          "velocity": 0.7559055118110236,
          "duration": 0.17651497500000346
        },
        {
          "name": "C#3",
          "midi": 49,
          "time": 136.5453180000013,
          "velocity": 0.7559055118110236,
          "duration": 0.35833297499999617
        },
        {
          "name": "B2",
          "midi": 47,
          "time": 136.90895400000127,
          "velocity": 0.7559055118110236,
          "duration": 0.17651497500000346
        },
        {
          "name": "C#3",
          "midi": 49,
          "time": 137.09077200000127,
          "velocity": 0.7559055118110236,
          "duration": 0.17651497500000346
        },
        {
          "name": "D#3",
          "midi": 51,
          "time": 137.27259000000126,
          "velocity": 0.7559055118110236,
          "duration": 0.17651497500000346
        },
        {
          "name": "E3",
          "midi": 52,
          "time": 137.45440800000125,
          "velocity": 0.7559055118110236,
          "duration": 0.17651497500000346
        },
        {
          "name": "D#3",
          "midi": 51,
          "time": 137.63622600000124,
          "velocity": 0.7559055118110236,
          "duration": 0.17651497500000346
        },
        {
          "name": "C#3",
          "midi": 49,
          "time": 137.81804400000124,
          "velocity": 0.7559055118110236,
          "duration": 0.17651497500000346
        },
        {
          "name": "B2",
          "midi": 47,
          "time": 137.99986200000123,
          "velocity": 0.7559055118110236,
          "duration": 0.17651497500000346
        },
        {
          "name": "A2",
          "midi": 45,
          "time": 138.18168000000122,
          "velocity": 0.7559055118110236,
          "duration": 0.17651497500000346
        },
        {
          "name": "G#2",
          "midi": 44,
          "time": 138.36349800000121,
          "velocity": 0.7559055118110236,
          "duration": 0.17651497500000346
        },
        {
          "name": "A2",
          "midi": 45,
          "time": 138.5453160000012,
          "velocity": 0.7559055118110236,
          "duration": 0.17651497500000346
        },
        {
          "name": "B2",
          "midi": 47,
          "time": 138.7271340000012,
          "velocity": 0.7559055118110236,
          "duration": 0.35833297499999617
        },
        {
          "name": "A2",
          "midi": 45,
          "time": 139.09077000000119,
          "velocity": 0.7559055118110236,
          "duration": 0.17651497500000346
        },
        {
          "name": "B2",
          "midi": 47,
          "time": 139.27258800000118,
          "velocity": 0.7559055118110236,
          "duration": 0.17651497500000346
        },
        {
          "name": "C#3",
          "midi": 49,
          "time": 139.45440600000117,
          "velocity": 0.7559055118110236,
          "duration": 0.35833297499999617
        },
        {
          "name": "B2",
          "midi": 47,
          "time": 139.81804200000116,
          "velocity": 0.7559055118110236,
          "duration": 0.17651497500000346
        },
        {
          "name": "C#3",
          "midi": 49,
          "time": 139.99986000000115,
          "velocity": 0.7559055118110236,
          "duration": 0.17651497500000346
        },
        {
          "name": "D#3",
          "midi": 51,
          "time": 140.18167800000114,
          "velocity": 0.7559055118110236,
          "duration": 0.17651497500000346
        },
        {
          "name": "E3",
          "midi": 52,
          "time": 140.36349600000113,
          "velocity": 0.7559055118110236,
          "duration": 0.17651497500000346
        },
        {
          "name": "D#3",
          "midi": 51,
          "time": 140.54531400000113,
          "velocity": 0.7559055118110236,
          "duration": 0.17651497500000346
        },
        {
          "name": "C#3",
          "midi": 49,
          "time": 140.72713200000112,
          "velocity": 0.7559055118110236,
          "duration": 0.17651497500000346
        },
        {
          "name": "B2",
          "midi": 47,
          "time": 140.9089500000011,
          "velocity": 0.7559055118110236,
          "duration": 0.17651497500000346
        },
        {
          "name": "A2",
          "midi": 45,
          "time": 141.0907680000011,
          "velocity": 0.7559055118110236,
          "duration": 0.17651497500000346
        },
        {
          "name": "G#2",
          "midi": 44,
          "time": 141.2725860000011,
          "velocity": 0.7559055118110236,
          "duration": 0.17651497500000346
        },
        {
          "name": "A2",
          "midi": 45,
          "time": 141.4544040000011,
          "velocity": 0.7559055118110236,
          "duration": 0.17651497500000346
        },
        {
          "name": "B2",
          "midi": 47,
          "time": 141.63622200000108,
          "velocity": 0.7559055118110236,
          "duration": 0.35833297499999617
        },
        {
          "name": "A2",
          "midi": 45,
          "time": 141.99985800000107,
          "velocity": 0.7559055118110236,
          "duration": 0.17651497500000346
        },
        {
          "name": "B2",
          "midi": 47,
          "time": 142.18167600000106,
          "velocity": 0.7559055118110236,
          "duration": 0.17651497500000346
        },
        {
          "name": "C#3",
          "midi": 49,
          "time": 142.36349400000105,
          "velocity": 0.7559055118110236,
          "duration": 0.35833297499999617
        },
        {
          "name": "B2",
          "midi": 47,
          "time": 142.72713000000104,
          "velocity": 0.7559055118110236,
          "duration": 0.17651497500000346
        },
        {
          "name": "C#3",
          "midi": 49,
          "time": 142.90894800000103,
          "velocity": 0.7559055118110236,
          "duration": 0.17651497500000346
        },
        {
          "name": "D#3",
          "midi": 51,
          "time": 143.09076600000103,
          "velocity": 0.7559055118110236,
          "duration": 0.17651497500000346
        },
        {
          "name": "E3",
          "midi": 52,
          "time": 143.27258400000102,
          "velocity": 0.7559055118110236,
          "duration": 0.17651497500000346
        },
        {
          "name": "D#3",
          "midi": 51,
          "time": 143.454402000001,
          "velocity": 0.7559055118110236,
          "duration": 0.17651497500000346
        },
        {
          "name": "C#3",
          "midi": 49,
          "time": 143.636220000001,
          "velocity": 0.7559055118110236,
          "duration": 0.17651497500000346
        },
        {
          "name": "B2",
          "midi": 47,
          "time": 143.818038000001,
          "velocity": 0.7559055118110236,
          "duration": 0.17651497500000346
        },
        {
          "name": "C3",
          "midi": 48,
          "time": 143.999856000001,
          "velocity": 0.7559055118110236,
          "duration": 0.5401509749999889
        },
        {
          "name": "D#3",
          "midi": 51,
          "time": 144.54531000000097,
          "velocity": 0.7559055118110236,
          "duration": 0.5401509749999889
        },
        {
          "name": "F#3",
          "midi": 54,
          "time": 145.09076400000095,
          "velocity": 0.7559055118110236,
          "duration": 0.35833297499999617
        },
        {
          "name": "C#3",
          "midi": 49,
          "time": 145.45440000000093,
          "velocity": 0.7559055118110236,
          "duration": 0.35833297499999617
        },
        {
          "name": "C#3",
          "midi": 49,
          "time": 145.81803600000092,
          "velocity": 0.7559055118110236,
          "duration": 0.17651497500000346
        },
        {
          "name": "C#3",
          "midi": 49,
          "time": 145.9998540000009,
          "velocity": 0.7559055118110236,
          "duration": 0.35833297499999617
        },
        {
          "name": "C#3",
          "midi": 49,
          "time": 146.3634900000009,
          "velocity": 0.7559055118110236,
          "duration": 0.17651497500000346
        },
        {
          "name": "C#3",
          "midi": 49,
          "time": 146.5453080000009,
          "velocity": 0.7559055118110236,
          "duration": 0.35833297499999617
        },
        {
          "name": "C3",
          "midi": 48,
          "time": 146.90894400000087,
          "velocity": 0.7559055118110236,
          "duration": 0.35833297499999617
        },
        {
          "name": "C3",
          "midi": 48,
          "time": 147.27258000000086,
          "velocity": 0.7559055118110236,
          "duration": 0.35833297499999617
        },
        {
          "name": "G#2",
          "midi": 44,
          "time": 147.63621600000084,
          "velocity": 0.7559055118110236,
          "duration": 0.35833297499999617
        },
        {
          "name": "G#2",
          "midi": 44,
          "time": 147.99985200000083,
          "velocity": 0.7559055118110236,
          "duration": 0.35833297499999617
        },
        {
          "name": "C#3",
          "midi": 49,
          "time": 148.3634880000008,
          "velocity": 0.7559055118110236,
          "duration": 0.35833297499999617
        },
        {
          "name": "C#3",
          "midi": 49,
          "time": 148.7271240000008,
          "velocity": 0.7559055118110236,
          "duration": 0.35833297499999617
        },
        {
          "name": "B2",
          "midi": 47,
          "time": 149.09076000000078,
          "velocity": 0.7559055118110236,
          "duration": 0.35833297499999617
        },
        {
          "name": "B2",
          "midi": 47,
          "time": 149.45439600000077,
          "velocity": 0.7559055118110236,
          "duration": 0.35833297499999617
        },
        {
          "name": "A2",
          "midi": 45,
          "time": 149.81803200000076,
          "velocity": 0.7559055118110236,
          "duration": 0.35833297499999617
        },
        {
          "name": "E3",
          "midi": 52,
          "time": 150.18166800000074,
          "velocity": 0.7559055118110236,
          "duration": 0.17651497500000346
        },
        {
          "name": "A3",
          "midi": 57,
          "time": 150.36348600000073,
          "velocity": 0.7559055118110236,
          "duration": 0.5401509749999889
        },
        {
          "name": "A2",
          "midi": 45,
          "time": 150.9089400000007,
          "velocity": 0.7559055118110236,
          "duration": 0.35833297499999617
        },
        {
          "name": "G#2",
          "midi": 44,
          "time": 151.2725760000007,
          "velocity": 0.7559055118110236,
          "duration": 0.35833297499999617
        },
        {
          "name": "E3",
          "midi": 52,
          "time": 151.63621200000068,
          "velocity": 0.7559055118110236,
          "duration": 0.17651497500000346
        },
        {
          "name": "G#3",
          "midi": 56,
          "time": 151.81803000000068,
          "velocity": 0.7559055118110236,
          "duration": 0.5401509749999889
        },
        {
          "name": "G#2",
          "midi": 44,
          "time": 152.36348400000065,
          "velocity": 0.7559055118110236,
          "duration": 0.35833297499999617
        },
        {
          "name": "G2",
          "midi": 43,
          "time": 152.72712000000064,
          "velocity": 0.7559055118110236,
          "duration": 0.35833297499999617
        },
        {
          "name": "C#3",
          "midi": 49,
          "time": 152.72712000000064,
          "velocity": 0.7559055118110236,
          "duration": 1.4492409749999524
        },
        {
          "name": "G2",
          "midi": 43,
          "time": 153.09075600000062,
          "velocity": 0.7559055118110236,
          "duration": 0.35833297499999617
        },
        {
          "name": "G2",
          "midi": 43,
          "time": 153.4543920000006,
          "velocity": 0.7559055118110236,
          "duration": 0.35833297499999617
        },
        {
          "name": "G2",
          "midi": 43,
          "time": 153.8180280000006,
          "velocity": 0.7559055118110236,
          "duration": 0.35833297499999617
        },
        {
          "name": "G#2",
          "midi": 44,
          "time": 154.18166400000058,
          "velocity": 0.7559055118110236,
          "duration": 0.35833297499999617
        },
        {
          "name": "D#3",
          "midi": 51,
          "time": 154.18166400000058,
          "velocity": 0.7559055118110236,
          "duration": 1.4492409749999524
        },
        {
          "name": "G#2",
          "midi": 44,
          "time": 154.54530000000057,
          "velocity": 0.7559055118110236,
          "duration": 0.35833297499999617
        },
        {
          "name": "G#2",
          "midi": 44,
          "time": 154.90893600000055,
          "velocity": 0.7559055118110236,
          "duration": 0.35833297499999617
        },
        {
          "name": "G#2",
          "midi": 44,
          "time": 155.27257200000054,
          "velocity": 0.7559055118110236,
          "duration": 0.35833297499999617
        },
        {
          "name": "G#2",
          "midi": 44,
          "time": 155.63620800000052,
          "velocity": 0.7559055118110236,
          "duration": 1.4492409750000093
        },
        {
          "name": "D#3",
          "midi": 51,
          "time": 155.63620800000052,
          "velocity": 0.7559055118110236,
          "duration": 1.4492409750000093
        },
        {
          "name": "A1",
          "midi": 33,
          "time": 162.90892800000054,
          "velocity": 0.7559055118110236,
          "duration": 0.72196897500001
        },
        {
          "name": "B1",
          "midi": 35,
          "time": 163.63620000000054,
          "velocity": 0.7559055118110236,
          "duration": 0.72196897500001
        },
        {
          "name": "C#2",
          "midi": 37,
          "time": 164.36347200000054,
          "velocity": 0.7559055118110236,
          "duration": 1.4492409750000093
        },
        {
          "name": "A1",
          "midi": 33,
          "time": 165.81801600000054,
          "velocity": 0.7559055118110236,
          "duration": 0.72196897500001
        },
        {
          "name": "B1",
          "midi": 35,
          "time": 166.54528800000054,
          "velocity": 0.7559055118110236,
          "duration": 0.72196897500001
        },
        {
          "name": "C#2",
          "midi": 37,
          "time": 167.27256000000054,
          "velocity": 0.7559055118110236,
          "duration": 0.35833297499999617
        },
        {
          "name": "A1",
          "midi": 33,
          "time": 168.72710400000054,
          "velocity": 0.7559055118110236,
          "duration": 0.17651497500000346
        },
        {
          "name": "A2",
          "midi": 45,
          "time": 168.90892200000053,
          "velocity": 0.7559055118110236,
          "duration": 0.17651497500000346
        },
        {
          "name": "A1",
          "midi": 33,
          "time": 169.09074000000052,
          "velocity": 0.7559055118110236,
          "duration": 0.35833297499999617
        },
        {
          "name": "B1",
          "midi": 35,
          "time": 169.4543760000005,
          "velocity": 0.7559055118110236,
          "duration": 0.17651497500000346
        },
        {
          "name": "B2",
          "midi": 47,
          "time": 169.6361940000005,
          "velocity": 0.7559055118110236,
          "duration": 0.17651497500000346
        },
        {
          "name": "B1",
          "midi": 35,
          "time": 169.8180120000005,
          "velocity": 0.7559055118110236,
          "duration": 0.35833297499999617
        },
        {
          "name": "C#2",
          "midi": 37,
          "time": 170.18164800000048,
          "velocity": 0.7559055118110236,
          "duration": 0.17651497500000346
        },
        {
          "name": "C#3",
          "midi": 49,
          "time": 170.36346600000047,
          "velocity": 0.7559055118110236,
          "duration": 0.17651497500000346
        },
        {
          "name": "C#2",
          "midi": 37,
          "time": 170.54528400000046,
          "velocity": 0.7559055118110236,
          "duration": 0.35833297499999617
        },
        {
          "name": "C#2",
          "midi": 37,
          "time": 170.90892000000045,
          "velocity": 0.7559055118110236,
          "duration": 0.17651497500000346
        },
        {
          "name": "C#3",
          "midi": 49,
          "time": 171.09073800000044,
          "velocity": 0.7559055118110236,
          "duration": 0.17651497500000346
        },
        {
          "name": "C#2",
          "midi": 37,
          "time": 171.27255600000044,
          "velocity": 0.7559055118110236,
          "duration": 0.35833297499999617
        },
        {
          "name": "A1",
          "midi": 33,
          "time": 171.63619200000042,
          "velocity": 0.7559055118110236,
          "duration": 0.17651497500000346
        },
        {
          "name": "A2",
          "midi": 45,
          "time": 171.8180100000004,
          "velocity": 0.7559055118110236,
          "duration": 0.17651497500000346
        },
        {
          "name": "A1",
          "midi": 33,
          "time": 171.9998280000004,
          "velocity": 0.7559055118110236,
          "duration": 0.35833297499999617
        },
        {
          "name": "B1",
          "midi": 35,
          "time": 172.3634640000004,
          "velocity": 0.7559055118110236,
          "duration": 0.17651497500000346
        },
        {
          "name": "B2",
          "midi": 47,
          "time": 172.54528200000038,
          "velocity": 0.7559055118110236,
          "duration": 0.17651497500000346
        },
        {
          "name": "B1",
          "midi": 35,
          "time": 172.72710000000038,
          "velocity": 0.7559055118110236,
          "duration": 0.35833297499999617
        },
        {
          "name": "C#2",
          "midi": 37,
          "time": 173.09073600000036,
          "velocity": 0.7559055118110236,
          "duration": 0.17651497500000346
        },
        {
          "name": "C#3",
          "midi": 49,
          "time": 173.27255400000035,
          "velocity": 0.7559055118110236,
          "duration": 0.17651497500000346
        },
        {
          "name": "C#2",
          "midi": 37,
          "time": 173.45437200000035,
          "velocity": 0.7559055118110236,
          "duration": 0.17651497500000346
        },
        {
          "name": "D#2",
          "midi": 39,
          "time": 173.63619000000034,
          "velocity": 0.7559055118110236,
          "duration": 0.17651497500000346
        },
        {
          "name": "E2",
          "midi": 40,
          "time": 173.81800800000033,
          "velocity": 0.7559055118110236,
          "duration": 0.17651497500000346
        },
        {
          "name": "D#2",
          "midi": 39,
          "time": 173.99982600000033,
          "velocity": 0.7559055118110236,
          "duration": 0.17651497500000346
        },
        {
          "name": "C#2",
          "midi": 37,
          "time": 174.18164400000032,
          "velocity": 0.7559055118110236,
          "duration": 0.35833297499999617
        },
        {
          "name": "A1",
          "midi": 33,
          "time": 174.5452800000003,
          "velocity": 0.7559055118110236,
          "duration": 0.17651497500000346
        },
        {
          "name": "A2",
          "midi": 45,
          "time": 174.7270980000003,
          "velocity": 0.7559055118110236,
          "duration": 0.17651497500000346
        },
        {
          "name": "A1",
          "midi": 33,
          "time": 174.9089160000003,
          "velocity": 0.7559055118110236,
          "duration": 0.35833297499999617
        },
        {
          "name": "B1",
          "midi": 35,
          "time": 175.27255200000027,
          "velocity": 0.7559055118110236,
          "duration": 0.17651497500000346
        },
        {
          "name": "B2",
          "midi": 47,
          "time": 175.45437000000027,
          "velocity": 0.7559055118110236,
          "duration": 0.17651497500000346
        },
        {
          "name": "B1",
          "midi": 35,
          "time": 175.63618800000026,
          "velocity": 0.7559055118110236,
          "duration": 0.35833297499999617
        },
        {
          "name": "C#2",
          "midi": 37,
          "time": 175.99982400000025,
          "velocity": 0.7559055118110236,
          "duration": 0.17651497500000346
        },
        {
          "name": "C#3",
          "midi": 49,
          "time": 176.18164200000024,
          "velocity": 0.7559055118110236,
          "duration": 0.17651497500000346
        },
        {
          "name": "C#2",
          "midi": 37,
          "time": 176.36346000000023,
          "velocity": 0.7559055118110236,
          "duration": 0.35833297499999617
        },
        {
          "name": "C#2",
          "midi": 37,
          "time": 176.72709600000022,
          "velocity": 0.7559055118110236,
          "duration": 0.17651497500000346
        },
        {
          "name": "C#3",
          "midi": 49,
          "time": 176.9089140000002,
          "velocity": 0.7559055118110236,
          "duration": 0.17651497500000346
        },
        {
          "name": "C#2",
          "midi": 37,
          "time": 177.0907320000002,
          "velocity": 0.7559055118110236,
          "duration": 0.35833297499999617
        },
        {
          "name": "A1",
          "midi": 33,
          "time": 177.4543680000002,
          "velocity": 0.7559055118110236,
          "duration": 0.17651497500000346
        },
        {
          "name": "A2",
          "midi": 45,
          "time": 177.63618600000018,
          "velocity": 0.7559055118110236,
          "duration": 0.17651497500000346
        },
        {
          "name": "A1",
          "midi": 33,
          "time": 177.81800400000017,
          "velocity": 0.7559055118110236,
          "duration": 0.35833297499999617
        },
        {
          "name": "B1",
          "midi": 35,
          "time": 178.18164000000016,
          "velocity": 0.7559055118110236,
          "duration": 0.17651497500000346
        },
        {
          "name": "B2",
          "midi": 47,
          "time": 178.36345800000015,
          "velocity": 0.7559055118110236,
          "duration": 0.17651497500000346
        },
        {
          "name": "B1",
          "midi": 35,
          "time": 178.54527600000014,
          "velocity": 0.7559055118110236,
          "duration": 0.35833297499999617
        },
        {
          "name": "C#2",
          "midi": 37,
          "time": 178.90891200000013,
          "velocity": 0.7559055118110236,
          "duration": 0.17651497500000346
        },
        {
          "name": "C#3",
          "midi": 49,
          "time": 179.09073000000012,
          "velocity": 0.7559055118110236,
          "duration": 0.17651497500000346
        },
        {
          "name": "C#2",
          "midi": 37,
          "time": 179.2725480000001,
          "velocity": 0.7559055118110236,
          "duration": 0.17651497500000346
        },
        {
          "name": "D#2",
          "midi": 39,
          "time": 179.4543660000001,
          "velocity": 0.7559055118110236,
          "duration": 0.17651497500000346
        },
        {
          "name": "E2",
          "midi": 40,
          "time": 179.6361840000001,
          "velocity": 0.7559055118110236,
          "duration": 0.17651497500000346
        },
        {
          "name": "D#2",
          "midi": 39,
          "time": 179.8180020000001,
          "velocity": 0.7559055118110236,
          "duration": 0.17651497500000346
        },
        {
          "name": "C#2",
          "midi": 37,
          "time": 179.99982000000008,
          "velocity": 0.7559055118110236,
          "duration": 0.35833297499999617
        },
        {
          "name": "A1",
          "midi": 33,
          "time": 180.36345600000007,
          "velocity": 0.7559055118110236,
          "duration": 0.17651497500000346
        },
        {
          "name": "A2",
          "midi": 45,
          "time": 180.54527400000006,
          "velocity": 0.7559055118110236,
          "duration": 0.17651497500000346
        },
        {
          "name": "A1",
          "midi": 33,
          "time": 180.72709200000006,
          "velocity": 0.7559055118110236,
          "duration": 0.35833297499999617
        },
        {
          "name": "B1",
          "midi": 35,
          "time": 181.09072800000004,
          "velocity": 0.7559055118110236,
          "duration": 0.17651497500000346
        },
        {
          "name": "B2",
          "midi": 47,
          "time": 181.27254600000003,
          "velocity": 0.7559055118110236,
          "duration": 0.17651497500000346
        },
        {
          "name": "B1",
          "midi": 35,
          "time": 181.45436400000003,
          "velocity": 0.7559055118110236,
          "duration": 0.35833297499999617
        },
        {
          "name": "C#2",
          "midi": 37,
          "time": 181.818,
          "velocity": 0.7559055118110236,
          "duration": 0.17651497500000346
        },
        {
          "name": "C#3",
          "midi": 49,
          "time": 181.999818,
          "velocity": 0.7559055118110236,
          "duration": 0.17651497500000346
        },
        {
          "name": "C#2",
          "midi": 37,
          "time": 182.181636,
          "velocity": 0.7559055118110236,
          "duration": 0.35833297499999617
        },
        {
          "name": "C#2",
          "midi": 37,
          "time": 182.54527199999998,
          "velocity": 0.7559055118110236,
          "duration": 0.17651497500000346
        },
        {
          "name": "C#3",
          "midi": 49,
          "time": 182.72708999999998,
          "velocity": 0.7559055118110236,
          "duration": 0.17651497500000346
        },
        {
          "name": "C#2",
          "midi": 37,
          "time": 182.90890799999997,
          "velocity": 0.7559055118110236,
          "duration": 0.35833297499999617
        },
        {
          "name": "A1",
          "midi": 33,
          "time": 183.27254399999995,
          "velocity": 0.7559055118110236,
          "duration": 0.17651497500000346
        },
        {
          "name": "A2",
          "midi": 45,
          "time": 183.45436199999995,
          "velocity": 0.7559055118110236,
          "duration": 0.17651497500000346
        },
        {
          "name": "A1",
          "midi": 33,
          "time": 183.63617999999994,
          "velocity": 0.7559055118110236,
          "duration": 0.35833297499999617
        },
        {
          "name": "B1",
          "midi": 35,
          "time": 183.99981599999992,
          "velocity": 0.7559055118110236,
          "duration": 0.17651497500000346
        },
        {
          "name": "B2",
          "midi": 47,
          "time": 184.18163399999992,
          "velocity": 0.7559055118110236,
          "duration": 0.17651497500000346
        },
        {
          "name": "B1",
          "midi": 35,
          "time": 184.3634519999999,
          "velocity": 0.7559055118110236,
          "duration": 0.35833297499999617
        },
        {
          "name": "C#2",
          "midi": 37,
          "time": 184.7270879999999,
          "velocity": 0.7559055118110236,
          "duration": 0.17651497500000346
        },
        {
          "name": "C#3",
          "midi": 49,
          "time": 184.9089059999999,
          "velocity": 0.7559055118110236,
          "duration": 0.17651497500000346
        },
        {
          "name": "C#2",
          "midi": 37,
          "time": 185.09072399999988,
          "velocity": 0.7559055118110236,
          "duration": 0.17651497500000346
        },
        {
          "name": "D#2",
          "midi": 39,
          "time": 185.27254199999987,
          "velocity": 0.7559055118110236,
          "duration": 0.17651497500000346
        },
        {
          "name": "E2",
          "midi": 40,
          "time": 185.45435999999987,
          "velocity": 0.7559055118110236,
          "duration": 0.17651497500000346
        },
        {
          "name": "D#2",
          "midi": 39,
          "time": 185.63617799999986,
          "velocity": 0.7559055118110236,
          "duration": 0.17651497500000346
        },
        {
          "name": "C#2",
          "midi": 37,
          "time": 185.81799599999985,
          "velocity": 0.7559055118110236,
          "duration": 0.35833297499999617
        },
        {
          "name": "A1",
          "midi": 33,
          "time": 186.18163199999984,
          "velocity": 0.7559055118110236,
          "duration": 0.17651497500000346
        },
        {
          "name": "A2",
          "midi": 45,
          "time": 186.36344999999983,
          "velocity": 0.7559055118110236,
          "duration": 0.17651497500000346
        },
        {
          "name": "A1",
          "midi": 33,
          "time": 186.54526799999982,
          "velocity": 0.7559055118110236,
          "duration": 0.35833297499999617
        },
        {
          "name": "B1",
          "midi": 35,
          "time": 186.9089039999998,
          "velocity": 0.7559055118110236,
          "duration": 0.17651497500000346
        },
        {
          "name": "B2",
          "midi": 47,
          "time": 187.0907219999998,
          "velocity": 0.7559055118110236,
          "duration": 0.17651497500000346
        },
        {
          "name": "B1",
          "midi": 35,
          "time": 187.2725399999998,
          "velocity": 0.7559055118110236,
          "duration": 0.35833297499999617
        },
        {
          "name": "C#2",
          "midi": 37,
          "time": 187.63617599999978,
          "velocity": 0.7559055118110236,
          "duration": 0.17651497500000346
        },
        {
          "name": "C#3",
          "midi": 49,
          "time": 187.81799399999977,
          "velocity": 0.7559055118110236,
          "duration": 0.17651497500000346
        },
        {
          "name": "C#2",
          "midi": 37,
          "time": 187.99981199999976,
          "velocity": 0.7559055118110236,
          "duration": 0.35833297499999617
        },
        {
          "name": "C#2",
          "midi": 37,
          "time": 188.36344799999975,
          "velocity": 0.7559055118110236,
          "duration": 0.17651497500000346
        },
        {
          "name": "C#3",
          "midi": 49,
          "time": 188.54526599999974,
          "velocity": 0.7559055118110236,
          "duration": 0.17651497500000346
        },
        {
          "name": "C#2",
          "midi": 37,
          "time": 188.72708399999973,
          "velocity": 0.7559055118110236,
          "duration": 0.35833297499999617
        },
        {
          "name": "A1",
          "midi": 33,
          "time": 189.09071999999972,
          "velocity": 0.7559055118110236,
          "duration": 0.17651497500000346
        },
        {
          "name": "A2",
          "midi": 45,
          "time": 189.2725379999997,
          "velocity": 0.7559055118110236,
          "duration": 0.17651497500000346
        },
        {
          "name": "A1",
          "midi": 33,
          "time": 189.4543559999997,
          "velocity": 0.7559055118110236,
          "duration": 0.35833297499999617
        },
        {
          "name": "B1",
          "midi": 35,
          "time": 189.8179919999997,
          "velocity": 0.7559055118110236,
          "duration": 0.17651497500000346
        },
        {
          "name": "B2",
          "midi": 47,
          "time": 189.99980999999968,
          "velocity": 0.7559055118110236,
          "duration": 0.17651497500000346
        },
        {
          "name": "B1",
          "midi": 35,
          "time": 190.18162799999968,
          "velocity": 0.7559055118110236,
          "duration": 0.35833297499999617
        },
        {
          "name": "C#2",
          "midi": 37,
          "time": 190.54526399999966,
          "velocity": 0.7559055118110236,
          "duration": 0.17651497500000346
        },
        {
          "name": "C#3",
          "midi": 49,
          "time": 190.72708199999965,
          "velocity": 0.7559055118110236,
          "duration": 0.17651497500000346
        },
        {
          "name": "C#2",
          "midi": 37,
          "time": 190.90889999999965,
          "velocity": 0.7559055118110236,
          "duration": 0.17651497500000346
        },
        {
          "name": "D#2",
          "midi": 39,
          "time": 191.09071799999964,
          "velocity": 0.7559055118110236,
          "duration": 0.17651497500000346
        },
        {
          "name": "E2",
          "midi": 40,
          "time": 191.27253599999963,
          "velocity": 0.7559055118110236,
          "duration": 0.17651497500000346
        },
        {
          "name": "D#2",
          "midi": 39,
          "time": 191.45435399999963,
          "velocity": 0.7559055118110236,
          "duration": 0.17651497500000346
        },
        {
          "name": "C#2",
          "midi": 37,
          "time": 191.63617199999962,
          "velocity": 0.7559055118110236,
          "duration": 0.35833297499999617
        },
        {
          "name": "C3",
          "midi": 48,
          "time": 191.9998079999996,
          "velocity": 0.7559055118110236,
          "duration": 0.35833297499999617
        },
        {
          "name": "D#3",
          "midi": 51,
          "time": 192.3634439999996,
          "velocity": 0.7559055118110236,
          "duration": 0.17651497500000346
        },
        {
          "name": "A#2",
          "midi": 46,
          "time": 192.54526199999958,
          "velocity": 0.7559055118110236,
          "duration": 0.17651497500000346
        },
        {
          "name": "C3",
          "midi": 48,
          "time": 192.72707999999957,
          "velocity": 0.7559055118110236,
          "duration": 0.35833297499999617
        },
        {
          "name": "D#3",
          "midi": 51,
          "time": 193.09071599999956,
          "velocity": 0.7559055118110236,
          "duration": 0.17651497500000346
        },
        {
          "name": "A#2",
          "midi": 46,
          "time": 193.27253399999955,
          "velocity": 0.7559055118110236,
          "duration": 0.17651497500000346
        },
        {
          "name": "D#3",
          "midi": 51,
          "time": 193.45435199999955,
          "velocity": 0.7559055118110236,
          "duration": 0.17651497500000346
        },
        {
          "name": "D#3",
          "midi": 51,
          "time": 193.63616999999954,
          "velocity": 0.7559055118110236,
          "duration": 0.17651497500000346
        },
        {
          "name": "C3",
          "midi": 48,
          "time": 193.81798799999953,
          "velocity": 0.7559055118110236,
          "duration": 0.17651497500000346
        },
        {
          "name": "D#3",
          "midi": 51,
          "time": 193.99980599999952,
          "velocity": 0.7559055118110236,
          "duration": 0.35833297499999617
        },
        {
          "name": "C#3",
          "midi": 49,
          "time": 194.3634419999995,
          "velocity": 0.7559055118110236,
          "duration": 0.17651497500000346
        },
        {
          "name": "C#3",
          "midi": 49,
          "time": 194.5452599999995,
          "velocity": 0.7559055118110236,
          "duration": 0.17651497500000346
        },
        {
          "name": "D#3",
          "midi": 51,
          "time": 194.7270779999995,
          "velocity": 0.7559055118110236,
          "duration": 0.17651497500000346
        },
        {
          "name": "C#3",
          "midi": 49,
          "time": 194.9088959999995,
          "velocity": 0.7559055118110236,
          "duration": 0.17651497500000346
        },
        {
          "name": "C#3",
          "midi": 49,
          "time": 195.09071399999948,
          "velocity": 0.7559055118110236,
          "duration": 0.17651497500000346
        },
        {
          "name": "A#2",
          "midi": 46,
          "time": 195.27253199999947,
          "velocity": 0.7559055118110236,
          "duration": 0.17651497500000346
        },
        {
          "name": "C#3",
          "midi": 49,
          "time": 195.45434999999947,
          "velocity": 0.7559055118110236,
          "duration": 0.35833297499999617
        },
        {
          "name": "A#2",
          "midi": 46,
          "time": 195.81798599999945,
          "velocity": 0.7559055118110236,
          "duration": 0.17651497500000346
        },
        {
          "name": "C#3",
          "midi": 49,
          "time": 195.99980399999944,
          "velocity": 0.7559055118110236,
          "duration": 0.17651497500000346
        },
        {
          "name": "D#3",
          "midi": 51,
          "time": 196.18162199999944,
          "velocity": 0.7559055118110236,
          "duration": 0.17651497500000346
        },
        {
          "name": "C3",
          "midi": 48,
          "time": 196.36343999999943,
          "velocity": 0.7559055118110236,
          "duration": 0.35833297499999617
        },
        {
          "name": "D#3",
          "midi": 51,
          "time": 196.7270759999994,
          "velocity": 0.7559055118110236,
          "duration": 0.17651497500000346
        },
        {
          "name": "A#2",
          "midi": 46,
          "time": 196.9088939999994,
          "velocity": 0.7559055118110236,
          "duration": 0.17651497500000346
        },
        {
          "name": "C3",
          "midi": 48,
          "time": 197.0907119999994,
          "velocity": 0.7559055118110236,
          "duration": 0.35833297499999617
        },
        {
          "name": "D#3",
          "midi": 51,
          "time": 197.45434799999938,
          "velocity": 0.7559055118110236,
          "duration": 0.17651497500000346
        },
        {
          "name": "A#2",
          "midi": 46,
          "time": 197.63616599999938,
          "velocity": 0.7559055118110236,
          "duration": 0.17651497500000346
        },
        {
          "name": "C3",
          "midi": 48,
          "time": 197.81798399999937,
          "velocity": 0.7559055118110236,
          "duration": 0.35833297499999617
        },
        {
          "name": "D#3",
          "midi": 51,
          "time": 198.18161999999936,
          "velocity": 0.7559055118110236,
          "duration": 0.17651497500000346
        },
        {
          "name": "A#2",
          "midi": 46,
          "time": 198.36343799999935,
          "velocity": 0.7559055118110236,
          "duration": 0.17651497500000346
        },
        {
          "name": "C3",
          "midi": 48,
          "time": 198.54525599999934,
          "velocity": 0.7559055118110236,
          "duration": 0.35833297499999617
        },
        {
          "name": "D#3",
          "midi": 51,
          "time": 198.90889199999933,
          "velocity": 0.7559055118110236,
          "duration": 0.17651497500000346
        },
        {
          "name": "A#2",
          "midi": 46,
          "time": 199.09070999999932,
          "velocity": 0.7559055118110236,
          "duration": 0.17651497500000346
        },
        {
          "name": "D#3",
          "midi": 51,
          "time": 199.2725279999993,
          "velocity": 0.7559055118110236,
          "duration": 0.17651497500000346
        },
        {
          "name": "D#3",
          "midi": 51,
          "time": 199.4543459999993,
          "velocity": 0.7559055118110236,
          "duration": 0.17651497500000346
        },
        {
          "name": "C3",
          "midi": 48,
          "time": 199.6361639999993,
          "velocity": 0.7559055118110236,
          "duration": 0.17651497500000346
        },
        {
          "name": "D#3",
          "midi": 51,
          "time": 199.8179819999993,
          "velocity": 0.7559055118110236,
          "duration": 0.35833297499999617
        },
        {
          "name": "C#3",
          "midi": 49,
          "time": 200.18161799999928,
          "velocity": 0.7559055118110236,
          "duration": 0.17651497500000346
        },
        {
          "name": "C#3",
          "midi": 49,
          "time": 200.36343599999927,
          "velocity": 0.7559055118110236,
          "duration": 0.17651497500000346
        },
        {
          "name": "D#3",
          "midi": 51,
          "time": 200.54525399999926,
          "velocity": 0.7559055118110236,
          "duration": 0.17651497500000346
        },
        {
          "name": "C#3",
          "midi": 49,
          "time": 200.72707199999925,
          "velocity": 0.7559055118110236,
          "duration": 0.17651497500000346
        },
        {
          "name": "C#3",
          "midi": 49,
          "time": 200.90888999999925,
          "velocity": 0.7559055118110236,
          "duration": 0.17651497500000346
        },
        {
          "name": "A#2",
          "midi": 46,
          "time": 201.09070799999924,
          "velocity": 0.7559055118110236,
          "duration": 0.17651497500000346
        },
        {
          "name": "C#3",
          "midi": 49,
          "time": 201.27252599999923,
          "velocity": 0.7559055118110236,
          "duration": 0.35833297499999617
        },
        {
          "name": "A#2",
          "midi": 46,
          "time": 201.63616199999922,
          "velocity": 0.7559055118110236,
          "duration": 0.17651497500000346
        },
        {
          "name": "C#3",
          "midi": 49,
          "time": 201.8179799999992,
          "velocity": 0.7559055118110236,
          "duration": 0.17651497500000346
        },
        {
          "name": "D#3",
          "midi": 51,
          "time": 201.9997979999992,
          "velocity": 0.7559055118110236,
          "duration": 0.17651497500000346
        },
        {
          "name": "C3",
          "midi": 48,
          "time": 202.1816159999992,
          "velocity": 0.7559055118110236,
          "duration": 0.35833297499999617
        },
        {
          "name": "D#3",
          "midi": 51,
          "time": 202.54525199999918,
          "velocity": 0.7559055118110236,
          "duration": 0.17651497500000346
        },
        {
          "name": "A#2",
          "midi": 46,
          "time": 202.72706999999917,
          "velocity": 0.7559055118110236,
          "duration": 0.17651497500000346
        },
        {
          "name": "C3",
          "midi": 48,
          "time": 202.90888799999917,
          "velocity": 0.7559055118110236,
          "duration": 0.35833297499999617
        },
        {
          "name": "D#3",
          "midi": 51,
          "time": 203.27252399999915,
          "velocity": 0.7559055118110236,
          "duration": 0.17651497500000346
        },
        {
          "name": "A#2",
          "midi": 46,
          "time": 203.45434199999914,
          "velocity": 0.7559055118110236,
          "duration": 0.17651497500000346
        },
        {
          "name": "C3",
          "midi": 48,
          "time": 203.63615999999914,
          "velocity": 0.7559055118110236,
          "duration": 0.35833297499999617
        },
        {
          "name": "D#3",
          "midi": 51,
          "time": 203.99979599999912,
          "velocity": 0.7559055118110236,
          "duration": 0.17651497500000346
        },
        {
          "name": "A#2",
          "midi": 46,
          "time": 204.18161399999912,
          "velocity": 0.7559055118110236,
          "duration": 0.17651497500000346
        },
        {
          "name": "C3",
          "midi": 48,
          "time": 204.3634319999991,
          "velocity": 0.7559055118110236,
          "duration": 0.35833297499999617
        },
        {
          "name": "D#3",
          "midi": 51,
          "time": 204.7270679999991,
          "velocity": 0.7559055118110236,
          "duration": 0.17651497500000346
        },
        {
          "name": "A#2",
          "midi": 46,
          "time": 204.9088859999991,
          "velocity": 0.7559055118110236,
          "duration": 0.17651497500000346
        },
        {
          "name": "D#3",
          "midi": 51,
          "time": 205.09070399999908,
          "velocity": 0.7559055118110236,
          "duration": 0.17651497500000346
        },
        {
          "name": "D#3",
          "midi": 51,
          "time": 205.27252199999907,
          "velocity": 0.7559055118110236,
          "duration": 0.17651497500000346
        },
        {
          "name": "C3",
          "midi": 48,
          "time": 205.45433999999906,
          "velocity": 0.7559055118110236,
          "duration": 0.17651497500000346
        },
        {
          "name": "D#3",
          "midi": 51,
          "time": 205.63615799999906,
          "velocity": 0.7559055118110236,
          "duration": 0.35833297499999617
        },
        {
          "name": "C#3",
          "midi": 49,
          "time": 205.99979399999904,
          "velocity": 0.7559055118110236,
          "duration": 0.17651497500000346
        },
        {
          "name": "C#3",
          "midi": 49,
          "time": 206.18161199999903,
          "velocity": 0.7559055118110236,
          "duration": 0.17651497500000346
        },
        {
          "name": "D#3",
          "midi": 51,
          "time": 206.36342999999903,
          "velocity": 0.7559055118110236,
          "duration": 0.17651497500000346
        },
        {
          "name": "C#3",
          "midi": 49,
          "time": 206.54524799999902,
          "velocity": 0.7559055118110236,
          "duration": 0.17651497500000346
        },
        {
          "name": "C#3",
          "midi": 49,
          "time": 206.727065999999,
          "velocity": 0.7559055118110236,
          "duration": 0.17651497500000346
        },
        {
          "name": "A#2",
          "midi": 46,
          "time": 206.908883999999,
          "velocity": 0.7559055118110236,
          "duration": 0.17651497500000346
        },
        {
          "name": "C#3",
          "midi": 49,
          "time": 207.090701999999,
          "velocity": 0.7559055118110236,
          "duration": 0.35833297499999617
        },
        {
          "name": "A#2",
          "midi": 46,
          "time": 207.45433799999898,
          "velocity": 0.7559055118110236,
          "duration": 0.17651497500000346
        },
        {
          "name": "C#3",
          "midi": 49,
          "time": 207.63615599999898,
          "velocity": 0.7559055118110236,
          "duration": 0.17651497500000346
        },
        {
          "name": "D#3",
          "midi": 51,
          "time": 207.81797399999897,
          "velocity": 0.7559055118110236,
          "duration": 0.17651497500000346
        },
        {
          "name": "C3",
          "midi": 48,
          "time": 207.99979199999896,
          "velocity": 0.7559055118110236,
          "duration": 0.35833297499999617
        },
        {
          "name": "D#3",
          "midi": 51,
          "time": 208.36342799999895,
          "velocity": 0.7559055118110236,
          "duration": 0.17651497500000346
        },
        {
          "name": "A#2",
          "midi": 46,
          "time": 208.54524599999894,
          "velocity": 0.7559055118110236,
          "duration": 0.17651497500000346
        },
        {
          "name": "C3",
          "midi": 48,
          "time": 208.72706399999893,
          "velocity": 0.7559055118110236,
          "duration": 0.35833297499999617
        },
        {
          "name": "D#3",
          "midi": 51,
          "time": 209.09069999999892,
          "velocity": 0.7559055118110236,
          "duration": 0.17651497500000346
        },
        {
          "name": "A#2",
          "midi": 46,
          "time": 209.2725179999989,
          "velocity": 0.7559055118110236,
          "duration": 0.17651497500000346
        },
        {
          "name": "C3",
          "midi": 48,
          "time": 209.4543359999989,
          "velocity": 0.7559055118110236,
          "duration": 0.35833297499999617
        },
        {
          "name": "D#3",
          "midi": 51,
          "time": 209.8179719999989,
          "velocity": 0.7559055118110236,
          "duration": 0.17651497500000346
        },
        {
          "name": "A#2",
          "midi": 46,
          "time": 209.99978999999888,
          "velocity": 0.7559055118110236,
          "duration": 0.17651497500000346
        },
        {
          "name": "C3",
          "midi": 48,
          "time": 210.18160799999887,
          "velocity": 0.7559055118110236,
          "duration": 0.35833297499999617
        },
        {
          "name": "D#3",
          "midi": 51,
          "time": 210.54524399999886,
          "velocity": 0.7559055118110236,
          "duration": 0.17651497500000346
        },
        {
          "name": "A#2",
          "midi": 46,
          "time": 210.72706199999885,
          "velocity": 0.7559055118110236,
          "duration": 0.17651497500000346
        },
        {
          "name": "D#3",
          "midi": 51,
          "time": 210.90887999999885,
          "velocity": 0.7559055118110236,
          "duration": 0.17651497500000346
        },
        {
          "name": "D#3",
          "midi": 51,
          "time": 211.09069799999884,
          "velocity": 0.7559055118110236,
          "duration": 0.17651497500000346
        },
        {
          "name": "C3",
          "midi": 48,
          "time": 211.27251599999883,
          "velocity": 0.7559055118110236,
          "duration": 0.17651497500000346
        },
        {
          "name": "D#3",
          "midi": 51,
          "time": 211.45433399999882,
          "velocity": 0.7559055118110236,
          "duration": 0.35833297499999617
        },
        {
          "name": "C#3",
          "midi": 49,
          "time": 211.8179699999988,
          "velocity": 0.7559055118110236,
          "duration": 0.17651497500000346
        },
        {
          "name": "C#3",
          "midi": 49,
          "time": 211.9997879999988,
          "velocity": 0.7559055118110236,
          "duration": 0.17651497500000346
        },
        {
          "name": "D#3",
          "midi": 51,
          "time": 212.1816059999988,
          "velocity": 0.7559055118110236,
          "duration": 0.17651497500000346
        },
        {
          "name": "C#3",
          "midi": 49,
          "time": 212.3634239999988,
          "velocity": 0.7559055118110236,
          "duration": 0.17651497500000346
        },
        {
          "name": "C#3",
          "midi": 49,
          "time": 212.54524199999878,
          "velocity": 0.7559055118110236,
          "duration": 0.17651497500000346
        },
        {
          "name": "A#2",
          "midi": 46,
          "time": 212.72705999999877,
          "velocity": 0.7559055118110236,
          "duration": 0.17651497500000346
        },
        {
          "name": "C#3",
          "midi": 49,
          "time": 212.90887799999877,
          "velocity": 0.7559055118110236,
          "duration": 0.35833297499999617
        },
        {
          "name": "A#2",
          "midi": 46,
          "time": 213.27251399999875,
          "velocity": 0.7559055118110236,
          "duration": 0.17651497500000346
        },
        {
          "name": "C#3",
          "midi": 49,
          "time": 213.45433199999874,
          "velocity": 0.7559055118110236,
          "duration": 0.17651497500000346
        },
        {
          "name": "D#3",
          "midi": 51,
          "time": 213.63614999999874,
          "velocity": 0.7559055118110236,
          "duration": 0.17651497500000346
        },
        {
          "name": "C3",
          "midi": 48,
          "time": 213.81796799999873,
          "velocity": 0.7559055118110236,
          "duration": 0.35833297499999617
        },
        {
          "name": "D#3",
          "midi": 51,
          "time": 214.1816039999987,
          "velocity": 0.7559055118110236,
          "duration": 0.17651497500000346
        },
        {
          "name": "A#2",
          "midi": 46,
          "time": 214.3634219999987,
          "velocity": 0.7559055118110236,
          "duration": 0.17651497500000346
        },
        {
          "name": "C3",
          "midi": 48,
          "time": 214.5452399999987,
          "velocity": 0.7559055118110236,
          "duration": 0.35833297499999617
        },
        {
          "name": "D#3",
          "midi": 51,
          "time": 214.90887599999868,
          "velocity": 0.7559055118110236,
          "duration": 0.17651497500000346
        },
        {
          "name": "A#2",
          "midi": 46,
          "time": 215.09069399999868,
          "velocity": 0.7559055118110236,
          "duration": 0.17651497500000346
        },
        {
          "name": "C3",
          "midi": 48,
          "time": 215.27251199999867,
          "velocity": 0.7559055118110236,
          "duration": 1.4492409750000093
        }
      ],
      "controlChanges": {},
      "id": 2,
      "name": "Piano LH",
      "instrumentNumber": 0,
      "instrument": "acoustic grand piano",
      "instrumentFamily": "piano",
      "channelNumber": 1,
      "isPercussion": false
    }
  ]
}