{
  "header": {
    "PPQ": 96,
    "timeSignature": [
      4,
      4
    ],
    "bpm": 132.000132000132,
    "name": ""
  },
  "startTime": 0,
  "duration": 233.40885749999856,
  "tracks": [
    {
      "startTime": 0,
      "duration": 0,
      "length": 0,
      "notes": [],
      "controlChanges": {},
      "id": 0
    },
    {
      "startTime": 0,
      "duration": 0,
      "length": 0,
      "notes": [],
      "controlChanges": {},
      "id": 1
    },
    {
      "startTime": 0,
      "duration": 229.31795249999902,
      "length": 763,
      "notes": [
        {
          "name": "A4",
          "midi": 69,
          "time": 0,
          "velocity": 0.7874015748031497,
          "duration": 0.22727250000000002
        },
        {
          "name": "F#5",
          "midi": 78,
          "time": 0.023674218750000003,
          "velocity": 0.7874015748031497,
          "duration": 0.4545450000000001
        },
        {
          "name": "D5",
          "midi": 74,
          "time": 0.028409062500000005,
          "velocity": 0.7874015748031497,
          "duration": 0.22727250000000002
        },
        {
          "name": "E5",
          "midi": 76,
          "time": 1.1363625000000002,
          "velocity": 0.7874015748031497,
          "duration": 0.2272725
        },
        {
          "name": "F#5",
          "midi": 78,
          "time": 1.3636350000000002,
          "velocity": 0.7874015748031497,
          "duration": 0.2272725
        },
        {
          "name": "E5",
          "midi": 76,
          "time": 3.4090875,
          "velocity": 0.7874015748031497,
          "duration": 0.2272725000000002
        },
        {
          "name": "C#5",
          "midi": 73,
          "time": 3.6363600000000003,
          "velocity": 0.7874015748031497,
          "duration": 0.2272725000000002
        },
        {
          "name": "B4",
          "midi": 71,
          "time": 4.7727225,
          "velocity": 0.7874015748031497,
          "duration": 0.22727249999999977
        },
        {
          "name": "C#5",
          "midi": 73,
          "time": 4.999995,
          "velocity": 0.7874015748031497,
          "duration": 0.22727249999999977
        },
        {
          "name": "A4",
          "midi": 69,
          "time": 7.0454475,
          "velocity": 0.7874015748031497,
          "duration": 0.22727249999999977
        },
        {
          "name": "B4",
          "midi": 71,
          "time": 7.27272,
          "velocity": 0.7874015748031497,
          "duration": 0.22727249999999977
        },
        {
          "name": "A4",
          "midi": 69,
          "time": 8.4090825,
          "velocity": 0.7874015748031497,
          "duration": 0.22727249999999977
        },
        {
          "name": "B4",
          "midi": 71,
          "time": 8.636355,
          "velocity": 0.7874015748031497,
          "duration": 0.22727249999999977
        },
        {
          "name": "A4",
          "midi": 69,
          "time": 10.6818075,
          "velocity": 0.7874015748031497,
          "duration": 0.22727249999999977
        },
        {
          "name": "C#5",
          "midi": 73,
          "time": 10.90908,
          "velocity": 0.7874015748031497,
          "duration": 0.22727249999999977
        },
        {
          "name": "E5",
          "midi": 76,
          "time": 12.0454425,
          "velocity": 0.7874015748031497,
          "duration": 0.22727249999999977
        },
        {
          "name": "C#5",
          "midi": 73,
          "time": 12.272715,
          "velocity": 0.7874015748031497,
          "duration": 0.22727249999999977
        },
        {
          "name": "F#4",
          "midi": 66,
          "time": 14.090895,
          "velocity": 0.7874015748031497,
          "duration": 0.22727249999999977
        },
        {
          "name": "G#4",
          "midi": 68,
          "time": 14.3181675,
          "velocity": 0.7874015748031497,
          "duration": 0.22727249999999977
        },
        {
          "name": "A4",
          "midi": 69,
          "time": 14.54544,
          "velocity": 0.7874015748031497,
          "duration": 0.22727249999999977
        },
        {
          "name": "G#4",
          "midi": 68,
          "time": 14.772712499999999,
          "velocity": 0.7874015748031497,
          "duration": 0.22727249999999977
        },
        {
          "name": "A4",
          "midi": 69,
          "time": 14.999984999999999,
          "velocity": 0.7874015748031497,
          "duration": 0.22727249999999977
        },
        {
          "name": "G#4",
          "midi": 68,
          "time": 15.227257499999999,
          "velocity": 0.7874015748031497,
          "duration": 0.22727249999999977
        },
        {
          "name": "A4",
          "midi": 69,
          "time": 15.454529999999998,
          "velocity": 0.7874015748031497,
          "duration": 0.22727249999999977
        },
        {
          "name": "B4",
          "midi": 71,
          "time": 15.681802499999998,
          "velocity": 0.7874015748031497,
          "duration": 0.22727249999999977
        },
        {
          "name": "F#4",
          "midi": 66,
          "time": 16.1363475,
          "velocity": 0.7874015748031497,
          "duration": 0.22727250000000154
        },
        {
          "name": "A4",
          "midi": 69,
          "time": 16.36362,
          "velocity": 0.7874015748031497,
          "duration": 0.22727250000000154
        },
        {
          "name": "G#4",
          "midi": 68,
          "time": 16.590892500000002,
          "velocity": 0.7874015748031497,
          "duration": 0.22727250000000154
        },
        {
          "name": "A4",
          "midi": 69,
          "time": 16.818165000000004,
          "velocity": 0.7874015748031497,
          "duration": 0.22727250000000154
        },
        {
          "name": "G#4",
          "midi": 68,
          "time": 17.045437500000006,
          "velocity": 0.7874015748031497,
          "duration": 0.22727250000000154
        },
        {
          "name": "A4",
          "midi": 69,
          "time": 17.272710000000007,
          "velocity": 0.7874015748031497,
          "duration": 0.45454499999999953
        },
        {
          "name": "F#4",
          "midi": 66,
          "time": 17.954527500000008,
          "velocity": 0.7874015748031497,
          "duration": 0.22727250000000154
        },
        {
          "name": "A4",
          "midi": 69,
          "time": 18.18180000000001,
          "velocity": 0.7874015748031497,
          "duration": 0.22727250000000154
        },
        {
          "name": "G#4",
          "midi": 68,
          "time": 18.40907250000001,
          "velocity": 0.7874015748031497,
          "duration": 0.22727250000000154
        },
        {
          "name": "A4",
          "midi": 69,
          "time": 18.636345000000013,
          "velocity": 0.7874015748031497,
          "duration": 0.22727250000000154
        },
        {
          "name": "G#4",
          "midi": 68,
          "time": 18.863617500000014,
          "velocity": 0.7874015748031497,
          "duration": 0.22727250000000154
        },
        {
          "name": "A4",
          "midi": 69,
          "time": 19.090890000000016,
          "velocity": 0.7874015748031497,
          "duration": 0.22727250000000154
        },
        {
          "name": "B4",
          "midi": 71,
          "time": 19.318162500000017,
          "velocity": 0.7874015748031497,
          "duration": 0.22727250000000154
        },
        {
          "name": "F#4",
          "midi": 66,
          "time": 19.77270750000002,
          "velocity": 0.7874015748031497,
          "duration": 0.22727250000000154
        },
        {
          "name": "A4",
          "midi": 69,
          "time": 19.999980000000022,
          "velocity": 0.7874015748031497,
          "duration": 0.22727250000000154
        },
        {
          "name": "G#4",
          "midi": 68,
          "time": 20.227252500000024,
          "velocity": 0.7874015748031497,
          "duration": 0.22727250000000154
        },
        {
          "name": "A4",
          "midi": 69,
          "time": 20.454525000000025,
          "velocity": 0.7874015748031497,
          "duration": 0.22727250000000154
        },
        {
          "name": "G#4",
          "midi": 68,
          "time": 20.681797500000027,
          "velocity": 0.7874015748031497,
          "duration": 0.22727250000000154
        },
        {
          "name": "A4",
          "midi": 69,
          "time": 20.90907000000003,
          "velocity": 0.7874015748031497,
          "duration": 0.45454499999999953
        },
        {
          "name": "F#4",
          "midi": 66,
          "time": 21.59088750000003,
          "velocity": 0.7874015748031497,
          "duration": 0.22727250000000154
        },
        {
          "name": "A4",
          "midi": 69,
          "time": 21.81816000000003,
          "velocity": 0.7874015748031497,
          "duration": 0.22727250000000154
        },
        {
          "name": "G#4",
          "midi": 68,
          "time": 22.045432500000032,
          "velocity": 0.7874015748031497,
          "duration": 0.22727250000000154
        },
        {
          "name": "F#4",
          "midi": 66,
          "time": 22.272705000000034,
          "velocity": 0.7874015748031497,
          "duration": 0.22727250000000154
        },
        {
          "name": "A4",
          "midi": 69,
          "time": 22.499977500000035,
          "velocity": 0.7874015748031497,
          "duration": 0.22727250000000154
        },
        {
          "name": "G#4",
          "midi": 68,
          "time": 22.727250000000037,
          "velocity": 0.7874015748031497,
          "duration": 0.22727250000000154
        },
        {
          "name": "F#4",
          "midi": 66,
          "time": 22.95452250000004,
          "velocity": 0.7874015748031497,
          "duration": 0.22727250000000154
        },
        {
          "name": "F#4",
          "midi": 66,
          "time": 23.40906750000004,
          "velocity": 0.7874015748031497,
          "duration": 0.22727250000000154
        },
        {
          "name": "A4",
          "midi": 69,
          "time": 23.636340000000043,
          "velocity": 0.7874015748031497,
          "duration": 0.22727250000000154
        },
        {
          "name": "G#4",
          "midi": 68,
          "time": 23.863612500000045,
          "velocity": 0.7874015748031497,
          "duration": 0.22727250000000154
        },
        {
          "name": "F#4",
          "midi": 66,
          "time": 24.090885000000046,
          "velocity": 0.7874015748031497,
          "duration": 0.22727250000000154
        },
        {
          "name": "A4",
          "midi": 69,
          "time": 24.318157500000048,
          "velocity": 0.7874015748031497,
          "duration": 0.22727250000000154
        },
        {
          "name": "G#4",
          "midi": 68,
          "time": 24.54543000000005,
          "velocity": 0.7874015748031497,
          "duration": 0.22727250000000154
        },
        {
          "name": "F#4",
          "midi": 66,
          "time": 24.77270250000005,
          "velocity": 0.7874015748031497,
          "duration": 0.22727250000000154
        },
        {
          "name": "F#4",
          "midi": 66,
          "time": 25.227247500000054,
          "velocity": 0.7874015748031497,
          "duration": 0.22727250000000154
        },
        {
          "name": "A4",
          "midi": 69,
          "time": 25.454520000000056,
          "velocity": 0.7874015748031497,
          "duration": 0.22727250000000154
        },
        {
          "name": "G#4",
          "midi": 68,
          "time": 25.681792500000057,
          "velocity": 0.7874015748031497,
          "duration": 0.22727250000000154
        },
        {
          "name": "A4",
          "midi": 69,
          "time": 25.90906500000006,
          "velocity": 0.7874015748031497,
          "duration": 0.22727250000000154
        },
        {
          "name": "G#4",
          "midi": 68,
          "time": 26.13633750000006,
          "velocity": 0.7874015748031497,
          "duration": 0.22727250000000154
        },
        {
          "name": "A4",
          "midi": 69,
          "time": 26.36361000000006,
          "velocity": 0.7874015748031497,
          "duration": 0.45454499999999953
        },
        {
          "name": "F#4",
          "midi": 66,
          "time": 26.81815500000006,
          "velocity": 0.7874015748031497,
          "duration": 0.22727250000000154
        },
        {
          "name": "B4",
          "midi": 71,
          "time": 27.045427500000063,
          "velocity": 0.7874015748031497,
          "duration": 0.22727250000000154
        },
        {
          "name": "A4",
          "midi": 69,
          "time": 27.499972500000066,
          "velocity": 0.7874015748031497,
          "duration": 0.22727250000000154
        },
        {
          "name": "G#4",
          "midi": 68,
          "time": 27.95451750000007,
          "velocity": 0.7874015748031497,
          "duration": 0.22727250000000154
        },
        {
          "name": "F#4",
          "midi": 66,
          "time": 28.18179000000007,
          "velocity": 0.7874015748031497,
          "duration": 0.22727250000000154
        },
        {
          "name": "F#6",
          "midi": 90,
          "time": 29.090880000000073,
          "velocity": 0.7874015748031497,
          "duration": 0.45454499999999953
        },
        {
          "name": "F#5",
          "midi": 78,
          "time": 29.090880000000073,
          "velocity": 0.7874015748031497,
          "duration": 0.45454499999999953
        },
        {
          "name": "E6",
          "midi": 88,
          "time": 30.227242500000074,
          "velocity": 0.7874015748031497,
          "duration": 0.22727250000000154
        },
        {
          "name": "E5",
          "midi": 76,
          "time": 30.227242500000074,
          "velocity": 0.7874015748031497,
          "duration": 0.22727250000000154
        },
        {
          "name": "F#6",
          "midi": 90,
          "time": 30.454515000000075,
          "velocity": 0.7874015748031497,
          "duration": 0.45454499999999953
        },
        {
          "name": "F#5",
          "midi": 78,
          "time": 30.454515000000075,
          "velocity": 0.7874015748031497,
          "duration": 0.45454499999999953
        },
        {
          "name": "E6",
          "midi": 88,
          "time": 32.499967500000075,
          "velocity": 0.7874015748031497,
          "duration": 0.227272499999998
        },
        {
          "name": "E5",
          "midi": 76,
          "time": 32.499967500000075,
          "velocity": 0.7874015748031497,
          "duration": 0.227272499999998
        },
        {
          "name": "C#6",
          "midi": 85,
          "time": 32.72724000000007,
          "velocity": 0.7874015748031497,
          "duration": 0.227272499999998
        },
        {
          "name": "C#5",
          "midi": 73,
          "time": 32.72724000000007,
          "velocity": 0.7874015748031497,
          "duration": 0.227272499999998
        },
        {
          "name": "B5",
          "midi": 83,
          "time": 33.86360250000007,
          "velocity": 0.7874015748031497,
          "duration": 0.227272499999998
        },
        {
          "name": "B4",
          "midi": 71,
          "time": 33.86360250000007,
          "velocity": 0.7874015748031497,
          "duration": 0.227272499999998
        },
        {
          "name": "C#6",
          "midi": 85,
          "time": 34.09087500000007,
          "velocity": 0.7874015748031497,
          "duration": 0.227272499999998
        },
        {
          "name": "C#5",
          "midi": 73,
          "time": 34.09087500000007,
          "velocity": 0.7874015748031497,
          "duration": 0.227272499999998
        },
        {
          "name": "A5",
          "midi": 81,
          "time": 36.136327500000064,
          "velocity": 0.7874015748031497,
          "duration": 0.227272499999998
        },
        {
          "name": "A4",
          "midi": 69,
          "time": 36.136327500000064,
          "velocity": 0.7874015748031497,
          "duration": 0.227272499999998
        },
        {
          "name": "B5",
          "midi": 83,
          "time": 36.36360000000006,
          "velocity": 0.7874015748031497,
          "duration": 0.227272499999998
        },
        {
          "name": "B4",
          "midi": 71,
          "time": 36.36360000000006,
          "velocity": 0.7874015748031497,
          "duration": 0.227272499999998
        },
        {
          "name": "A5",
          "midi": 81,
          "time": 37.49996250000006,
          "velocity": 0.7874015748031497,
          "duration": 0.227272499999998
        },
        {
          "name": "A4",
          "midi": 69,
          "time": 37.49996250000006,
          "velocity": 0.7874015748031497,
          "duration": 0.227272499999998
        },
        {
          "name": "B5",
          "midi": 83,
          "time": 37.72723500000006,
          "velocity": 0.7874015748031497,
          "duration": 0.227272499999998
        },
        {
          "name": "B4",
          "midi": 71,
          "time": 37.72723500000006,
          "velocity": 0.7874015748031497,
          "duration": 0.227272499999998
        },
        {
          "name": "A5",
          "midi": 81,
          "time": 39.77268750000005,
          "velocity": 0.7874015748031497,
          "duration": 0.227272499999998
        },
        {
          "name": "A4",
          "midi": 69,
          "time": 39.77268750000005,
          "velocity": 0.7874015748031497,
          "duration": 0.227272499999998
        },
        {
          "name": "C#6",
          "midi": 85,
          "time": 39.99996000000005,
          "velocity": 0.7874015748031497,
          "duration": 0.227272499999998
        },
        {
          "name": "C#5",
          "midi": 73,
          "time": 39.99996000000005,
          "velocity": 0.7874015748031497,
          "duration": 0.227272499999998
        },
        {
          "name": "E6",
          "midi": 88,
          "time": 41.13632250000005,
          "velocity": 0.7874015748031497,
          "duration": 0.227272499999998
        },
        {
          "name": "E5",
          "midi": 76,
          "time": 41.13632250000005,
          "velocity": 0.7874015748031497,
          "duration": 0.227272499999998
        },
        {
          "name": "C#6",
          "midi": 85,
          "time": 41.363595000000046,
          "velocity": 0.7874015748031497,
          "duration": 0.227272499999998
        },
        {
          "name": "C#5",
          "midi": 73,
          "time": 41.363595000000046,
          "velocity": 0.7874015748031497,
          "duration": 0.227272499999998
        },
        {
          "name": "A4",
          "midi": 69,
          "time": 43.63632000000005,
          "velocity": 0.7874015748031497,
          "duration": 0.340908749999997
        },
        {
          "name": "C#5",
          "midi": 73,
          "time": 43.63632000000005,
          "velocity": 0.7874015748031497,
          "duration": 0.340908749999997
        },
        {
          "name": "E5",
          "midi": 76,
          "time": 43.63632000000005,
          "velocity": 0.7874015748031497,
          "duration": 0.340908749999997
        },
        {
          "name": "C#5",
          "midi": 73,
          "time": 44.54541000000005,
          "velocity": 0.7874015748031497,
          "duration": 0.227272499999998
        },
        {
          "name": "C#5",
          "midi": 73,
          "time": 44.99995500000004,
          "velocity": 0.7874015748031497,
          "duration": 0.227272499999998
        },
        {
          "name": "A4",
          "midi": 69,
          "time": 45.22722750000004,
          "velocity": 0.7874015748031497,
          "duration": 0.4545450000000031
        },
        {
          "name": "C#5",
          "midi": 73,
          "time": 45.22722750000004,
          "velocity": 0.7874015748031497,
          "duration": 0.4545450000000031
        },
        {
          "name": "A4",
          "midi": 69,
          "time": 45.681772500000044,
          "velocity": 0.7874015748031497,
          "duration": 0.227272499999998
        },
        {
          "name": "C#5",
          "midi": 73,
          "time": 47.272680000000044,
          "velocity": 0.7874015748031497,
          "duration": 0.4545450000000031
        },
        {
          "name": "E5",
          "midi": 76,
          "time": 47.272680000000044,
          "velocity": 0.7874015748031497,
          "duration": 0.4545450000000031
        },
        {
          "name": "A4",
          "midi": 69,
          "time": 48.18177000000005,
          "velocity": 0.7874015748031497,
          "duration": 0.227272499999998
        },
        {
          "name": "C#5",
          "midi": 73,
          "time": 48.18177000000005,
          "velocity": 0.7874015748031497,
          "duration": 0.227272499999998
        },
        {
          "name": "A4",
          "midi": 69,
          "time": 48.636315000000046,
          "velocity": 0.7874015748031497,
          "duration": 0.227272499999998
        },
        {
          "name": "C#5",
          "midi": 73,
          "time": 48.636315000000046,
          "velocity": 0.7874015748031497,
          "duration": 0.227272499999998
        },
        {
          "name": "A4",
          "midi": 69,
          "time": 48.863587500000044,
          "velocity": 0.7874015748031497,
          "duration": 0.4545450000000031
        },
        {
          "name": "C#5",
          "midi": 73,
          "time": 48.863587500000044,
          "velocity": 0.7874015748031497,
          "duration": 0.4545450000000031
        },
        {
          "name": "F#4",
          "midi": 66,
          "time": 49.31813250000005,
          "velocity": 0.7874015748031497,
          "duration": 0.4545450000000031
        },
        {
          "name": "B4",
          "midi": 71,
          "time": 49.31813250000005,
          "velocity": 0.7874015748031497,
          "duration": 0.4545450000000031
        },
        {
          "name": "A4",
          "midi": 69,
          "time": 50.68176750000005,
          "velocity": 0.7874015748031497,
          "duration": 0.227272499999998
        },
        {
          "name": "E4",
          "midi": 64,
          "time": 50.90904000000005,
          "velocity": 0.7874015748031497,
          "duration": 0.227272499999998
        },
        {
          "name": "B4",
          "midi": 71,
          "time": 50.90904000000005,
          "velocity": 0.7874015748031497,
          "duration": 0.227272499999998
        },
        {
          "name": "A4",
          "midi": 69,
          "time": 51.136312500000045,
          "velocity": 0.7874015748031497,
          "duration": 0.227272499999998
        },
        {
          "name": "E4",
          "midi": 64,
          "time": 51.36358500000004,
          "velocity": 0.7874015748031497,
          "duration": 0.227272499999998
        },
        {
          "name": "B4",
          "midi": 71,
          "time": 51.36358500000004,
          "velocity": 0.7874015748031497,
          "duration": 0.227272499999998
        },
        {
          "name": "A4",
          "midi": 69,
          "time": 51.59085750000004,
          "velocity": 0.7874015748031497,
          "duration": 0.227272499999998
        },
        {
          "name": "E4",
          "midi": 64,
          "time": 51.81813000000004,
          "velocity": 0.7874015748031497,
          "duration": 0.227272499999998
        },
        {
          "name": "B4",
          "midi": 71,
          "time": 51.81813000000004,
          "velocity": 0.7874015748031497,
          "duration": 0.227272499999998
        },
        {
          "name": "E4",
          "midi": 64,
          "time": 52.49994750000004,
          "velocity": 0.7874015748031497,
          "duration": 0.227272499999998
        },
        {
          "name": "A4",
          "midi": 69,
          "time": 52.49994750000004,
          "velocity": 0.7874015748031497,
          "duration": 0.227272499999998
        },
        {
          "name": "F#4",
          "midi": 66,
          "time": 52.72722000000004,
          "velocity": 0.7874015748031497,
          "duration": 0.227272499999998
        },
        {
          "name": "B4",
          "midi": 71,
          "time": 52.72722000000004,
          "velocity": 0.7874015748031497,
          "duration": 0.227272499999998
        },
        {
          "name": "A4",
          "midi": 69,
          "time": 52.954492500000036,
          "velocity": 0.7874015748031497,
          "duration": 0.227272499999998
        },
        {
          "name": "C#5",
          "midi": 73,
          "time": 52.954492500000036,
          "velocity": 0.7874015748031497,
          "duration": 0.227272499999998
        },
        {
          "name": "F#4",
          "midi": 66,
          "time": 53.181765000000034,
          "velocity": 0.7874015748031497,
          "duration": 0.227272499999998
        },
        {
          "name": "B4",
          "midi": 71,
          "time": 53.181765000000034,
          "velocity": 0.7874015748031497,
          "duration": 0.227272499999998
        },
        {
          "name": "G#4",
          "midi": 68,
          "time": 54.09085500000003,
          "velocity": 0.7874015748031497,
          "duration": 0.227272499999998
        },
        {
          "name": "A4",
          "midi": 69,
          "time": 54.31812750000003,
          "velocity": 0.7874015748031497,
          "duration": 0.227272499999998
        },
        {
          "name": "G#4",
          "midi": 68,
          "time": 54.54540000000003,
          "velocity": 0.7874015748031497,
          "duration": 0.227272499999998
        },
        {
          "name": "B4",
          "midi": 71,
          "time": 54.54540000000003,
          "velocity": 0.7874015748031497,
          "duration": 0.227272499999998
        },
        {
          "name": "E4",
          "midi": 64,
          "time": 54.54540000000003,
          "velocity": 0.7874015748031497,
          "duration": 0.227272499999998
        },
        {
          "name": "G#4",
          "midi": 68,
          "time": 54.77267250000003,
          "velocity": 0.7874015748031497,
          "duration": 0.227272499999998
        },
        {
          "name": "B4",
          "midi": 71,
          "time": 54.77267250000003,
          "velocity": 0.7874015748031497,
          "duration": 0.227272499999998
        },
        {
          "name": "E4",
          "midi": 64,
          "time": 54.77267250000003,
          "velocity": 0.7874015748031497,
          "duration": 0.227272499999998
        },
        {
          "name": "G#4",
          "midi": 68,
          "time": 54.999945000000025,
          "velocity": 0.7874015748031497,
          "duration": 0.227272499999998
        },
        {
          "name": "B4",
          "midi": 71,
          "time": 54.999945000000025,
          "velocity": 0.7874015748031497,
          "duration": 0.227272499999998
        },
        {
          "name": "E4",
          "midi": 64,
          "time": 54.999945000000025,
          "velocity": 0.7874015748031497,
          "duration": 0.227272499999998
        },
        {
          "name": "G#4",
          "midi": 68,
          "time": 55.45449000000002,
          "velocity": 0.7874015748031497,
          "duration": 0.227272499999998
        },
        {
          "name": "E4",
          "midi": 64,
          "time": 55.45449000000002,
          "velocity": 0.7874015748031497,
          "duration": 0.227272499999998
        },
        {
          "name": "B4",
          "midi": 71,
          "time": 55.45449000000002,
          "velocity": 0.7874015748031497,
          "duration": 0.227272499999998
        },
        {
          "name": "A4",
          "midi": 69,
          "time": 56.13630750000002,
          "velocity": 0.7874015748031497,
          "duration": 0.227272499999998
        },
        {
          "name": "B4",
          "midi": 71,
          "time": 56.36358000000002,
          "velocity": 0.7874015748031497,
          "duration": 0.227272499999998
        },
        {
          "name": "C#5",
          "midi": 73,
          "time": 56.59085250000002,
          "velocity": 0.7874015748031497,
          "duration": 0.227272499999998
        },
        {
          "name": "C#4",
          "midi": 61,
          "time": 56.818125000000016,
          "velocity": 0.7874015748031497,
          "duration": 0.227272499999998
        },
        {
          "name": "F#4",
          "midi": 66,
          "time": 56.818125000000016,
          "velocity": 0.7874015748031497,
          "duration": 0.227272499999998
        },
        {
          "name": "B4",
          "midi": 71,
          "time": 56.818125000000016,
          "velocity": 0.7874015748031497,
          "duration": 0.227272499999998
        },
        {
          "name": "C#5",
          "midi": 73,
          "time": 57.727215000000015,
          "velocity": 0.7874015748031497,
          "duration": 0.227272499999998
        },
        {
          "name": "E5",
          "midi": 76,
          "time": 57.95448750000001,
          "velocity": 0.7874015748031497,
          "duration": 0.227272499999998
        },
        {
          "name": "F#4",
          "midi": 66,
          "time": 58.18176000000001,
          "velocity": 0.7007874015748031,
          "duration": 0.227272499999998
        },
        {
          "name": "C#5",
          "midi": 73,
          "time": 58.18176000000001,
          "velocity": 0.7007874015748031,
          "duration": 0.227272499999998
        },
        {
          "name": "F#5",
          "midi": 78,
          "time": 58.18176000000001,
          "velocity": 0.7874015748031497,
          "duration": 0.227272499999998
        },
        {
          "name": "F#4",
          "midi": 66,
          "time": 58.63630500000001,
          "velocity": 0.6299212598425197,
          "duration": 0.227272499999998
        },
        {
          "name": "C#5",
          "midi": 73,
          "time": 58.63630500000001,
          "velocity": 0.6299212598425197,
          "duration": 0.227272499999998
        },
        {
          "name": "F#5",
          "midi": 78,
          "time": 58.63630500000001,
          "velocity": 0.7874015748031497,
          "duration": 0.227272499999998
        },
        {
          "name": "F#5",
          "midi": 78,
          "time": 59.09085,
          "velocity": 0.7874015748031497,
          "duration": 0.227272499999998
        },
        {
          "name": "F#4",
          "midi": 66,
          "time": 59.09085,
          "velocity": 0.7007874015748031,
          "duration": 0.227272499999998
        },
        {
          "name": "C#5",
          "midi": 73,
          "time": 59.09085,
          "velocity": 0.7007874015748031,
          "duration": 0.227272499999998
        },
        {
          "name": "E5",
          "midi": 76,
          "time": 59.772667500000004,
          "velocity": 0.7874015748031497,
          "duration": 0.227272499999998
        },
        {
          "name": "E5",
          "midi": 76,
          "time": 59.99994,
          "velocity": 0.7874015748031497,
          "duration": 0.227272499999998
        },
        {
          "name": "C#5",
          "midi": 73,
          "time": 60.2272125,
          "velocity": 0.7874015748031497,
          "duration": 0.227272499999998
        },
        {
          "name": "F#5",
          "midi": 78,
          "time": 60.2272125,
          "velocity": 0.7874015748031497,
          "duration": 0.227272499999998
        },
        {
          "name": "F#5",
          "midi": 78,
          "time": 60.454485,
          "velocity": 0.7874015748031497,
          "duration": 0.227272499999998
        },
        {
          "name": "E5",
          "midi": 76,
          "time": 60.681757499999996,
          "velocity": 0.7874015748031497,
          "duration": 0.227272499999998
        },
        {
          "name": "C#5",
          "midi": 73,
          "time": 60.909029999999994,
          "velocity": 0.7874015748031497,
          "duration": 0.227272499999998
        },
        {
          "name": "F#5",
          "midi": 78,
          "time": 60.909029999999994,
          "velocity": 0.7874015748031497,
          "duration": 0.454544999999996
        },
        {
          "name": "C#5",
          "midi": 73,
          "time": 61.36357499999999,
          "velocity": 0.7874015748031497,
          "duration": 0.227272499999998
        },
        {
          "name": "C#5",
          "midi": 73,
          "time": 61.36357499999999,
          "velocity": 0.7874015748031497,
          "duration": 0.227272499999998
        },
        {
          "name": "E5",
          "midi": 76,
          "time": 61.59084749999999,
          "velocity": 0.7874015748031497,
          "duration": 0.227272499999998
        },
        {
          "name": "F#4",
          "midi": 66,
          "time": 61.818119999999986,
          "velocity": 0.7086614173228346,
          "duration": 0.227272499999998
        },
        {
          "name": "C#5",
          "midi": 73,
          "time": 61.818119999999986,
          "velocity": 0.7086614173228346,
          "duration": 0.227272499999998
        },
        {
          "name": "F#5",
          "midi": 78,
          "time": 61.818119999999986,
          "velocity": 0.7874015748031497,
          "duration": 0.227272499999998
        },
        {
          "name": "F#4",
          "midi": 66,
          "time": 62.27266499999998,
          "velocity": 0.7244094488188977,
          "duration": 0.227272499999998
        },
        {
          "name": "C#5",
          "midi": 73,
          "time": 62.27266499999998,
          "velocity": 0.7244094488188977,
          "duration": 0.227272499999998
        },
        {
          "name": "F#5",
          "midi": 78,
          "time": 62.27266499999998,
          "velocity": 0.7874015748031497,
          "duration": 0.227272499999998
        },
        {
          "name": "F#5",
          "midi": 78,
          "time": 62.72720999999998,
          "velocity": 0.7874015748031497,
          "duration": 0.227272499999998
        },
        {
          "name": "F#4",
          "midi": 66,
          "time": 62.72720999999998,
          "velocity": 0.7322834645669292,
          "duration": 0.227272499999998
        },
        {
          "name": "C#5",
          "midi": 73,
          "time": 62.72720999999998,
          "velocity": 0.7322834645669292,
          "duration": 0.227272499999998
        },
        {
          "name": "E5",
          "midi": 76,
          "time": 63.40902749999998,
          "velocity": 0.7874015748031497,
          "duration": 0.227272499999998
        },
        {
          "name": "E5",
          "midi": 76,
          "time": 63.63629999999998,
          "velocity": 0.7874015748031497,
          "duration": 0.227272499999998
        },
        {
          "name": "C#5",
          "midi": 73,
          "time": 63.863572499999975,
          "velocity": 0.7874015748031497,
          "duration": 0.227272499999998
        },
        {
          "name": "F#5",
          "midi": 78,
          "time": 63.863572499999975,
          "velocity": 0.7874015748031497,
          "duration": 0.227272499999998
        },
        {
          "name": "F#5",
          "midi": 78,
          "time": 64.09084499999997,
          "velocity": 0.7874015748031497,
          "duration": 0.227272499999998
        },
        {
          "name": "E5",
          "midi": 76,
          "time": 64.31811749999997,
          "velocity": 0.7874015748031497,
          "duration": 0.227272499999998
        },
        {
          "name": "C#5",
          "midi": 73,
          "time": 64.54538999999997,
          "velocity": 0.7874015748031497,
          "duration": 0.227272499999998
        },
        {
          "name": "F#5",
          "midi": 78,
          "time": 64.54538999999997,
          "velocity": 0.7874015748031497,
          "duration": 0.454544999999996
        },
        {
          "name": "C#5",
          "midi": 73,
          "time": 64.99993499999997,
          "velocity": 0.7874015748031497,
          "duration": 0.227272499999998
        },
        {
          "name": "C#5",
          "midi": 73,
          "time": 65.45447999999996,
          "velocity": 0.7401574803149606,
          "duration": 0.227272499999998
        },
        {
          "name": "G#5",
          "midi": 80,
          "time": 65.45447999999996,
          "velocity": 0.7874015748031497,
          "duration": 0.227272499999998
        },
        {
          "name": "C#5",
          "midi": 73,
          "time": 65.68175249999996,
          "velocity": 0.7322834645669292,
          "duration": 0.227272499999998
        },
        {
          "name": "G#5",
          "midi": 80,
          "time": 65.68175249999996,
          "velocity": 0.7874015748031497,
          "duration": 0.227272499999998
        },
        {
          "name": "C#5",
          "midi": 73,
          "time": 65.90902499999996,
          "velocity": 0.7165354330708661,
          "duration": 0.227272499999998
        },
        {
          "name": "G#5",
          "midi": 80,
          "time": 65.90902499999996,
          "velocity": 0.7874015748031497,
          "duration": 0.227272499999998
        },
        {
          "name": "C#5",
          "midi": 73,
          "time": 66.13629749999996,
          "velocity": 0.6929133858267716,
          "duration": 0.227272499999998
        },
        {
          "name": "G#5",
          "midi": 80,
          "time": 66.13629749999996,
          "velocity": 0.7874015748031497,
          "duration": 0.227272499999998
        },
        {
          "name": "C#5",
          "midi": 73,
          "time": 66.36356999999995,
          "velocity": 0.7165354330708661,
          "duration": 0.227272499999998
        },
        {
          "name": "G#5",
          "midi": 80,
          "time": 66.36356999999995,
          "velocity": 0.7874015748031497,
          "duration": 0.227272499999998
        },
        {
          "name": "E5",
          "midi": 76,
          "time": 66.59084249999995,
          "velocity": 0.7874015748031497,
          "duration": 0.227272499999998
        },
        {
          "name": "E5",
          "midi": 76,
          "time": 66.81811499999995,
          "velocity": 0.7874015748031497,
          "duration": 0.227272499999998
        },
        {
          "name": "E5",
          "midi": 76,
          "time": 67.04538749999995,
          "velocity": 0.7874015748031497,
          "duration": 0.227272499999998
        },
        {
          "name": "C#5",
          "midi": 73,
          "time": 67.49993249999994,
          "velocity": 0.7874015748031497,
          "duration": 0.227272499999998
        },
        {
          "name": "F#5",
          "midi": 78,
          "time": 67.49993249999994,
          "velocity": 0.7874015748031497,
          "duration": 0.227272499999998
        },
        {
          "name": "C#5",
          "midi": 73,
          "time": 68.63629499999995,
          "velocity": 0.7874015748031497,
          "duration": 0.227272499999998
        },
        {
          "name": "E5",
          "midi": 76,
          "time": 68.86356749999995,
          "velocity": 0.7874015748031497,
          "duration": 0.227272499999998
        },
        {
          "name": "G#5",
          "midi": 80,
          "time": 69.09083999999994,
          "velocity": 0.7874015748031497,
          "duration": 0.227272499999998
        },
        {
          "name": "G#5",
          "midi": 80,
          "time": 69.31811249999994,
          "velocity": 0.7874015748031497,
          "duration": 0.227272499999998
        },
        {
          "name": "G#5",
          "midi": 80,
          "time": 69.54538499999994,
          "velocity": 0.7874015748031497,
          "duration": 0.227272499999998
        },
        {
          "name": "G#5",
          "midi": 80,
          "time": 69.77265749999994,
          "velocity": 0.7874015748031497,
          "duration": 0.227272499999998
        },
        {
          "name": "G#5",
          "midi": 80,
          "time": 69.99992999999994,
          "velocity": 0.7874015748031497,
          "duration": 0.227272499999998
        },
        {
          "name": "E5",
          "midi": 76,
          "time": 70.22720249999993,
          "velocity": 0.7874015748031497,
          "duration": 0.227272499999998
        },
        {
          "name": "E5",
          "midi": 76,
          "time": 70.45447499999993,
          "velocity": 0.7874015748031497,
          "duration": 0.227272499999998
        },
        {
          "name": "E5",
          "midi": 76,
          "time": 70.68174749999993,
          "velocity": 0.7874015748031497,
          "duration": 0.454544999999996
        },
        {
          "name": "F#5",
          "midi": 78,
          "time": 71.13629249999993,
          "velocity": 0.7874015748031497,
          "duration": 0.227272499999998
        },
        {
          "name": "C#5",
          "midi": 73,
          "time": 72.27265499999993,
          "velocity": 0.7874015748031497,
          "duration": 0.227272499999998
        },
        {
          "name": "E5",
          "midi": 76,
          "time": 72.49992749999993,
          "velocity": 0.7874015748031497,
          "duration": 0.227272499999998
        },
        {
          "name": "F#5",
          "midi": 78,
          "time": 72.72719999999993,
          "velocity": 0.7874015748031497,
          "duration": 0.227272499999998
        },
        {
          "name": "C#5",
          "midi": 73,
          "time": 72.72719999999993,
          "velocity": 0.6929133858267716,
          "duration": 0.227272499999998
        },
        {
          "name": "F#4",
          "midi": 66,
          "time": 72.72719999999993,
          "velocity": 0.6929133858267716,
          "duration": 0.227272499999998
        },
        {
          "name": "F#4",
          "midi": 66,
          "time": 73.18174499999992,
          "velocity": 0.7401574803149606,
          "duration": 0.227272499999998
        },
        {
          "name": "C#5",
          "midi": 73,
          "time": 73.18174499999992,
          "velocity": 0.7401574803149606,
          "duration": 0.227272499999998
        },
        {
          "name": "F#5",
          "midi": 78,
          "time": 73.18174499999992,
          "velocity": 0.7874015748031497,
          "duration": 0.227272499999998
        },
        {
          "name": "F#5",
          "midi": 78,
          "time": 73.63628999999992,
          "velocity": 0.7874015748031497,
          "duration": 0.227272499999998
        },
        {
          "name": "F#4",
          "midi": 66,
          "time": 73.63628999999992,
          "velocity": 0.6850393700787402,
          "duration": 0.227272499999998
        },
        {
          "name": "C#5",
          "midi": 73,
          "time": 73.63628999999992,
          "velocity": 0.6850393700787402,
          "duration": 0.227272499999998
        },
        {
          "name": "E5",
          "midi": 76,
          "time": 74.31810749999991,
          "velocity": 0.7874015748031497,
          "duration": 0.227272499999998
        },
        {
          "name": "E5",
          "midi": 76,
          "time": 74.54537999999991,
          "velocity": 0.7874015748031497,
          "duration": 0.227272499999998
        },
        {
          "name": "F#5",
          "midi": 78,
          "time": 74.77265249999991,
          "velocity": 0.7874015748031497,
          "duration": 0.227272499999998
        },
        {
          "name": "F#5",
          "midi": 78,
          "time": 74.9999249999999,
          "velocity": 0.7874015748031497,
          "duration": 0.227272499999998
        },
        {
          "name": "E5",
          "midi": 76,
          "time": 75.2271974999999,
          "velocity": 0.7874015748031497,
          "duration": 0.227272499999998
        },
        {
          "name": "C#5",
          "midi": 73,
          "time": 75.4544699999999,
          "velocity": 0.7874015748031497,
          "duration": 0.454544999999996
        },
        {
          "name": "F#5",
          "midi": 78,
          "time": 75.4544699999999,
          "velocity": 0.7874015748031497,
          "duration": 0.454544999999996
        },
        {
          "name": "C#5",
          "midi": 73,
          "time": 75.9090149999999,
          "velocity": 0.7874015748031497,
          "duration": 0.227272499999998
        },
        {
          "name": "C#5",
          "midi": 73,
          "time": 75.9090149999999,
          "velocity": 0.7874015748031497,
          "duration": 0.227272499999998
        },
        {
          "name": "E5",
          "midi": 76,
          "time": 76.1362874999999,
          "velocity": 0.7874015748031497,
          "duration": 0.227272499999998
        },
        {
          "name": "F#5",
          "midi": 78,
          "time": 76.3635599999999,
          "velocity": 0.7874015748031497,
          "duration": 0.227272499999998
        },
        {
          "name": "C#5",
          "midi": 73,
          "time": 76.3635599999999,
          "velocity": 0.7480314960629921,
          "duration": 0.227272499999998
        },
        {
          "name": "F#4",
          "midi": 66,
          "time": 76.3635599999999,
          "velocity": 0.7480314960629921,
          "duration": 0.227272499999998
        },
        {
          "name": "F#4",
          "midi": 66,
          "time": 76.81810499999989,
          "velocity": 0.6377952755905512,
          "duration": 0.227272499999998
        },
        {
          "name": "C#5",
          "midi": 73,
          "time": 76.81810499999989,
          "velocity": 0.6377952755905512,
          "duration": 0.227272499999998
        },
        {
          "name": "F#5",
          "midi": 78,
          "time": 76.81810499999989,
          "velocity": 0.7874015748031497,
          "duration": 0.227272499999998
        },
        {
          "name": "F#5",
          "midi": 78,
          "time": 77.27264999999989,
          "velocity": 0.7874015748031497,
          "duration": 0.227272499999998
        },
        {
          "name": "F#4",
          "midi": 66,
          "time": 77.27264999999989,
          "velocity": 0.7322834645669292,
          "duration": 0.227272499999998
        },
        {
          "name": "C#5",
          "midi": 73,
          "time": 77.27264999999989,
          "velocity": 0.7322834645669292,
          "duration": 0.227272499999998
        },
        {
          "name": "E5",
          "midi": 76,
          "time": 77.95446749999988,
          "velocity": 0.7874015748031497,
          "duration": 0.227272499999998
        },
        {
          "name": "E5",
          "midi": 76,
          "time": 78.18173999999988,
          "velocity": 0.7874015748031497,
          "duration": 0.227272499999998
        },
        {
          "name": "F#5",
          "midi": 78,
          "time": 78.40901249999987,
          "velocity": 0.7874015748031497,
          "duration": 0.227272499999998
        },
        {
          "name": "F#5",
          "midi": 78,
          "time": 78.63628499999987,
          "velocity": 0.7874015748031497,
          "duration": 0.227272499999998
        },
        {
          "name": "E5",
          "midi": 76,
          "time": 78.86355749999987,
          "velocity": 0.7874015748031497,
          "duration": 0.227272499999998
        },
        {
          "name": "F#5",
          "midi": 78,
          "time": 79.09082999999987,
          "velocity": 0.7874015748031497,
          "duration": 0.454544999999996
        },
        {
          "name": "C#5",
          "midi": 73,
          "time": 79.54537499999986,
          "velocity": 0.7874015748031497,
          "duration": 0.227272499999998
        },
        {
          "name": "C#5",
          "midi": 73,
          "time": 79.99991999999986,
          "velocity": 0.6850393700787402,
          "duration": 0.227272499999998
        },
        {
          "name": "G#5",
          "midi": 80,
          "time": 79.99991999999986,
          "velocity": 0.7874015748031497,
          "duration": 0.227272499999998
        },
        {
          "name": "C#5",
          "midi": 73,
          "time": 80.22719249999986,
          "velocity": 0.6771653543307087,
          "duration": 0.227272499999998
        },
        {
          "name": "G#5",
          "midi": 80,
          "time": 80.22719249999986,
          "velocity": 0.7874015748031497,
          "duration": 0.227272499999998
        },
        {
          "name": "C#5",
          "midi": 73,
          "time": 80.45446499999986,
          "velocity": 0.6771653543307087,
          "duration": 0.227272499999998
        },
        {
          "name": "G#5",
          "midi": 80,
          "time": 80.45446499999986,
          "velocity": 0.7874015748031497,
          "duration": 0.227272499999998
        },
        {
          "name": "C#5",
          "midi": 73,
          "time": 80.68173749999985,
          "velocity": 0.6929133858267716,
          "duration": 0.227272499999998
        },
        {
          "name": "G#5",
          "midi": 80,
          "time": 80.68173749999985,
          "velocity": 0.7874015748031497,
          "duration": 0.227272499999998
        },
        {
          "name": "C#5",
          "midi": 73,
          "time": 80.90900999999985,
          "velocity": 0.6771653543307087,
          "duration": 0.227272499999998
        },
        {
          "name": "G#5",
          "midi": 80,
          "time": 80.90900999999985,
          "velocity": 0.7874015748031497,
          "duration": 0.227272499999998
        },
        {
          "name": "E5",
          "midi": 76,
          "time": 81.13628249999985,
          "velocity": 0.7874015748031497,
          "duration": 0.227272499999998
        },
        {
          "name": "E5",
          "midi": 76,
          "time": 81.36355499999985,
          "velocity": 0.7874015748031497,
          "duration": 0.227272499999998
        },
        {
          "name": "E5",
          "midi": 76,
          "time": 81.59082749999985,
          "velocity": 0.7874015748031497,
          "duration": 0.227272499999998
        },
        {
          "name": "F#5",
          "midi": 78,
          "time": 82.04537249999984,
          "velocity": 0.7874015748031497,
          "duration": 0.227272499999998
        },
        {
          "name": "C#5",
          "midi": 73,
          "time": 83.18173499999985,
          "velocity": 0.7874015748031497,
          "duration": 0.227272499999998
        },
        {
          "name": "E5",
          "midi": 76,
          "time": 83.40900749999984,
          "velocity": 0.7874015748031497,
          "duration": 0.227272499999998
        },
        {
          "name": "G#5",
          "midi": 80,
          "time": 83.63627999999984,
          "velocity": 0.7874015748031497,
          "duration": 0.227272499999998
        },
        {
          "name": "G#5",
          "midi": 80,
          "time": 83.86355249999984,
          "velocity": 0.7874015748031497,
          "duration": 0.227272499999998
        },
        {
          "name": "G#5",
          "midi": 80,
          "time": 84.09082499999984,
          "velocity": 0.7874015748031497,
          "duration": 0.227272499999998
        },
        {
          "name": "G#5",
          "midi": 80,
          "time": 84.31809749999984,
          "velocity": 0.7874015748031497,
          "duration": 0.227272499999998
        },
        {
          "name": "G#5",
          "midi": 80,
          "time": 84.54536999999983,
          "velocity": 0.7874015748031497,
          "duration": 0.227272499999998
        },
        {
          "name": "E5",
          "midi": 76,
          "time": 84.77264249999983,
          "velocity": 0.7874015748031497,
          "duration": 0.227272499999998
        },
        {
          "name": "E5",
          "midi": 76,
          "time": 84.99991499999983,
          "velocity": 0.7874015748031497,
          "duration": 0.227272499999998
        },
        {
          "name": "E5",
          "midi": 76,
          "time": 85.22718749999983,
          "velocity": 0.7874015748031497,
          "duration": 0.454544999999996
        },
        {
          "name": "F#5",
          "midi": 78,
          "time": 85.68173249999982,
          "velocity": 0.7874015748031497,
          "duration": 0.227272499999998
        },
        {
          "name": "B4",
          "midi": 71,
          "time": 87.27263999999983,
          "velocity": 0.7874015748031497,
          "duration": 0.9090900000000062
        },
        {
          "name": "F#4",
          "midi": 66,
          "time": 87.27263999999983,
          "velocity": 0.7874015748031497,
          "duration": 0.9090900000000062
        },
        {
          "name": "C#5",
          "midi": 73,
          "time": 87.27263999999983,
          "velocity": 0.7874015748031497,
          "duration": 0.9090900000000062
        },
        {
          "name": "B4",
          "midi": 71,
          "time": 88.18172999999983,
          "velocity": 0.7874015748031497,
          "duration": 0.454544999999996
        },
        {
          "name": "F#4",
          "midi": 66,
          "time": 88.18172999999983,
          "velocity": 0.7874015748031497,
          "duration": 0.454544999999996
        },
        {
          "name": "C#5",
          "midi": 73,
          "time": 88.63627499999983,
          "velocity": 0.7874015748031497,
          "duration": 0.227272499999998
        },
        {
          "name": "F#4",
          "midi": 66,
          "time": 88.86354749999983,
          "velocity": 0.7874015748031497,
          "duration": 0.227272499999998
        },
        {
          "name": "B4",
          "midi": 71,
          "time": 90.90899999999982,
          "velocity": 0.7874015748031497,
          "duration": 0.9090900000000062
        },
        {
          "name": "F#4",
          "midi": 66,
          "time": 90.90899999999982,
          "velocity": 0.7874015748031497,
          "duration": 0.9090900000000062
        },
        {
          "name": "C#5",
          "midi": 73,
          "time": 90.90899999999982,
          "velocity": 0.7874015748031497,
          "duration": 0.9090900000000062
        },
        {
          "name": "F#4",
          "midi": 66,
          "time": 91.81808999999983,
          "velocity": 0.7874015748031497,
          "duration": 0.454544999999996
        },
        {
          "name": "B4",
          "midi": 71,
          "time": 91.81808999999983,
          "velocity": 0.7874015748031497,
          "duration": 0.454544999999996
        },
        {
          "name": "C#5",
          "midi": 73,
          "time": 92.27263499999982,
          "velocity": 0.7874015748031497,
          "duration": 0.227272499999998
        },
        {
          "name": "F#4",
          "midi": 66,
          "time": 92.49990749999982,
          "velocity": 0.7874015748031497,
          "duration": 0.227272499999998
        },
        {
          "name": "C#5",
          "midi": 73,
          "time": 94.54535999999982,
          "velocity": 0.7874015748031497,
          "duration": 0.227272499999998
        },
        {
          "name": "C#5",
          "midi": 73,
          "time": 94.54535999999982,
          "velocity": 0.7874015748031497,
          "duration": 0.909089999999992
        },
        {
          "name": "F#4",
          "midi": 66,
          "time": 94.54535999999982,
          "velocity": 0.7874015748031497,
          "duration": 0.909089999999992
        },
        {
          "name": "B4",
          "midi": 71,
          "time": 94.54535999999982,
          "velocity": 0.7874015748031497,
          "duration": 0.909089999999992
        },
        {
          "name": "B4",
          "midi": 71,
          "time": 95.45444999999981,
          "velocity": 0.7874015748031497,
          "duration": 0.454544999999996
        },
        {
          "name": "F#4",
          "midi": 66,
          "time": 95.45444999999981,
          "velocity": 0.7874015748031497,
          "duration": 0.454544999999996
        },
        {
          "name": "C#5",
          "midi": 73,
          "time": 95.9089949999998,
          "velocity": 0.7874015748031497,
          "duration": 0.227272499999998
        },
        {
          "name": "F#4",
          "midi": 66,
          "time": 96.1362674999998,
          "velocity": 0.7874015748031497,
          "duration": 0.454544999999996
        },
        {
          "name": "B4",
          "midi": 71,
          "time": 96.1362674999998,
          "velocity": 0.7874015748031497,
          "duration": 0.454544999999996
        },
        {
          "name": "F#4",
          "midi": 66,
          "time": 101.1362624999998,
          "velocity": 0.7874015748031497,
          "duration": 0.227272499999998
        },
        {
          "name": "F#4",
          "midi": 66,
          "time": 101.3635349999998,
          "velocity": 0.7874015748031497,
          "duration": 0.227272499999998
        },
        {
          "name": "G#4",
          "midi": 68,
          "time": 101.5908074999998,
          "velocity": 0.7874015748031497,
          "duration": 0.227272499999998
        },
        {
          "name": "A4",
          "midi": 69,
          "time": 101.8180799999998,
          "velocity": 0.7874015748031497,
          "duration": 0.227272499999998
        },
        {
          "name": "G#4",
          "midi": 68,
          "time": 102.0453524999998,
          "velocity": 0.7874015748031497,
          "duration": 0.227272499999998
        },
        {
          "name": "F#4",
          "midi": 66,
          "time": 102.27262499999979,
          "velocity": 0.7874015748031497,
          "duration": 0.227272499999998
        },
        {
          "name": "A4",
          "midi": 69,
          "time": 102.49989749999979,
          "velocity": 0.7874015748031497,
          "duration": 0.227272499999998
        },
        {
          "name": "F#4",
          "midi": 66,
          "time": 102.95444249999979,
          "velocity": 0.7874015748031497,
          "duration": 0.227272499999998
        },
        {
          "name": "F#4",
          "midi": 66,
          "time": 103.18171499999978,
          "velocity": 0.7874015748031497,
          "duration": 0.227272499999998
        },
        {
          "name": "G#4",
          "midi": 68,
          "time": 103.40898749999978,
          "velocity": 0.7874015748031497,
          "duration": 0.227272499999998
        },
        {
          "name": "A4",
          "midi": 69,
          "time": 103.63625999999978,
          "velocity": 0.7874015748031497,
          "duration": 0.227272499999998
        },
        {
          "name": "G#4",
          "midi": 68,
          "time": 103.86353249999978,
          "velocity": 0.7874015748031497,
          "duration": 0.227272499999998
        },
        {
          "name": "F#4",
          "midi": 66,
          "time": 104.09080499999978,
          "velocity": 0.7874015748031497,
          "duration": 0.227272499999998
        },
        {
          "name": "A4",
          "midi": 69,
          "time": 104.31807749999977,
          "velocity": 0.7874015748031497,
          "duration": 0.227272499999998
        },
        {
          "name": "F#4",
          "midi": 66,
          "time": 104.77262249999977,
          "velocity": 0.7874015748031497,
          "duration": 0.227272499999998
        },
        {
          "name": "F#4",
          "midi": 66,
          "time": 104.99989499999977,
          "velocity": 0.7874015748031497,
          "duration": 0.227272499999998
        },
        {
          "name": "A4",
          "midi": 69,
          "time": 105.22716749999977,
          "velocity": 0.7874015748031497,
          "duration": 0.227272499999998
        },
        {
          "name": "B4",
          "midi": 71,
          "time": 105.45443999999976,
          "velocity": 0.7874015748031497,
          "duration": 0.227272499999998
        },
        {
          "name": "B4",
          "midi": 71,
          "time": 105.68171249999976,
          "velocity": 0.7874015748031497,
          "duration": 0.227272499999998
        },
        {
          "name": "C#5",
          "midi": 73,
          "time": 105.90898499999976,
          "velocity": 0.7874015748031497,
          "duration": 0.227272499999998
        },
        {
          "name": "F#4",
          "midi": 66,
          "time": 106.13625749999976,
          "velocity": 0.7874015748031497,
          "duration": 0.227272499999998
        },
        {
          "name": "F#4",
          "midi": 66,
          "time": 106.59080249999975,
          "velocity": 0.7874015748031497,
          "duration": 0.227272499999998
        },
        {
          "name": "F#4",
          "midi": 66,
          "time": 106.81807499999975,
          "velocity": 0.7874015748031497,
          "duration": 0.227272499999998
        },
        {
          "name": "A4",
          "midi": 69,
          "time": 107.04534749999975,
          "velocity": 0.7874015748031497,
          "duration": 0.227272499999998
        },
        {
          "name": "B4",
          "midi": 71,
          "time": 107.27261999999975,
          "velocity": 0.7874015748031497,
          "duration": 0.227272499999998
        },
        {
          "name": "B4",
          "midi": 71,
          "time": 107.49989249999975,
          "velocity": 0.7874015748031497,
          "duration": 0.227272499999998
        },
        {
          "name": "C#5",
          "midi": 73,
          "time": 107.72716499999974,
          "velocity": 0.7874015748031497,
          "duration": 0.227272499999998
        },
        {
          "name": "F#4",
          "midi": 66,
          "time": 107.95443749999974,
          "velocity": 0.7874015748031497,
          "duration": 0.227272499999998
        },
        {
          "name": "A4",
          "midi": 69,
          "time": 116.36351999999974,
          "velocity": 0.7874015748031497,
          "duration": 0.340908749999997
        },
        {
          "name": "C#5",
          "midi": 73,
          "time": 116.36351999999974,
          "velocity": 0.7874015748031497,
          "duration": 0.340908749999997
        },
        {
          "name": "E5",
          "midi": 76,
          "time": 116.36351999999974,
          "velocity": 0.7874015748031497,
          "duration": 0.340908749999997
        },
        {
          "name": "C#5",
          "midi": 73,
          "time": 117.27260999999973,
          "velocity": 0.7874015748031497,
          "duration": 0.227272499999998
        },
        {
          "name": "C#5",
          "midi": 73,
          "time": 117.72715499999973,
          "velocity": 0.7874015748031497,
          "duration": 0.227272499999998
        },
        {
          "name": "A4",
          "midi": 69,
          "time": 117.95442749999972,
          "velocity": 0.7874015748031497,
          "duration": 0.454544999999996
        },
        {
          "name": "C#5",
          "midi": 73,
          "time": 117.95442749999972,
          "velocity": 0.7874015748031497,
          "duration": 0.454544999999996
        },
        {
          "name": "A4",
          "midi": 69,
          "time": 118.40897249999972,
          "velocity": 0.7874015748031497,
          "duration": 0.227272499999998
        },
        {
          "name": "C#5",
          "midi": 73,
          "time": 119.99987999999972,
          "velocity": 0.7874015748031497,
          "duration": 0.454544999999996
        },
        {
          "name": "E5",
          "midi": 76,
          "time": 119.99987999999972,
          "velocity": 0.7874015748031497,
          "duration": 0.454544999999996
        },
        {
          "name": "A4",
          "midi": 69,
          "time": 120.90896999999971,
          "velocity": 0.7874015748031497,
          "duration": 0.227272499999998
        },
        {
          "name": "C#5",
          "midi": 73,
          "time": 120.90896999999971,
          "velocity": 0.7874015748031497,
          "duration": 0.227272499999998
        },
        {
          "name": "A4",
          "midi": 69,
          "time": 121.36351499999971,
          "velocity": 0.7874015748031497,
          "duration": 0.227272499999998
        },
        {
          "name": "C#5",
          "midi": 73,
          "time": 121.36351499999971,
          "velocity": 0.7874015748031497,
          "duration": 0.227272499999998
        },
        {
          "name": "A4",
          "midi": 69,
          "time": 121.5907874999997,
          "velocity": 0.7874015748031497,
          "duration": 0.454544999999996
        },
        {
          "name": "C#5",
          "midi": 73,
          "time": 121.5907874999997,
          "velocity": 0.7874015748031497,
          "duration": 0.454544999999996
        },
        {
          "name": "F#4",
          "midi": 66,
          "time": 122.0453324999997,
          "velocity": 0.7874015748031497,
          "duration": 0.454544999999996
        },
        {
          "name": "B4",
          "midi": 71,
          "time": 122.0453324999997,
          "velocity": 0.7874015748031497,
          "duration": 0.454544999999996
        },
        {
          "name": "A4",
          "midi": 69,
          "time": 123.4089674999997,
          "velocity": 0.7874015748031497,
          "duration": 0.227272499999998
        },
        {
          "name": "E4",
          "midi": 64,
          "time": 123.6362399999997,
          "velocity": 0.7874015748031497,
          "duration": 0.227272499999998
        },
        {
          "name": "B4",
          "midi": 71,
          "time": 123.6362399999997,
          "velocity": 0.7874015748031497,
          "duration": 0.227272499999998
        },
        {
          "name": "A4",
          "midi": 69,
          "time": 123.8635124999997,
          "velocity": 0.7874015748031497,
          "duration": 0.227272499999998
        },
        {
          "name": "E4",
          "midi": 64,
          "time": 124.0907849999997,
          "velocity": 0.7874015748031497,
          "duration": 0.227272499999998
        },
        {
          "name": "B4",
          "midi": 71,
          "time": 124.0907849999997,
          "velocity": 0.7874015748031497,
          "duration": 0.227272499999998
        },
        {
          "name": "A4",
          "midi": 69,
          "time": 124.3180574999997,
          "velocity": 0.7874015748031497,
          "duration": 0.227272499999998
        },
        {
          "name": "E4",
          "midi": 64,
          "time": 124.5453299999997,
          "velocity": 0.7874015748031497,
          "duration": 0.227272499999998
        },
        {
          "name": "B4",
          "midi": 71,
          "time": 124.5453299999997,
          "velocity": 0.7874015748031497,
          "duration": 0.227272499999998
        },
        {
          "name": "E4",
          "midi": 64,
          "time": 125.22714749999969,
          "velocity": 0.7874015748031497,
          "duration": 0.227272499999998
        },
        {
          "name": "A4",
          "midi": 69,
          "time": 125.22714749999969,
          "velocity": 0.7874015748031497,
          "duration": 0.227272499999998
        },
        {
          "name": "F#4",
          "midi": 66,
          "time": 125.45441999999969,
          "velocity": 0.7874015748031497,
          "duration": 0.227272499999998
        },
        {
          "name": "B4",
          "midi": 71,
          "time": 125.45441999999969,
          "velocity": 0.7874015748031497,
          "duration": 0.227272499999998
        },
        {
          "name": "A4",
          "midi": 69,
          "time": 125.68169249999968,
          "velocity": 0.7874015748031497,
          "duration": 0.227272499999998
        },
        {
          "name": "C#5",
          "midi": 73,
          "time": 125.68169249999968,
          "velocity": 0.7874015748031497,
          "duration": 0.227272499999998
        },
        {
          "name": "F#4",
          "midi": 66,
          "time": 125.90896499999968,
          "velocity": 0.7874015748031497,
          "duration": 0.227272499999998
        },
        {
          "name": "B4",
          "midi": 71,
          "time": 125.90896499999968,
          "velocity": 0.7874015748031497,
          "duration": 0.227272499999998
        },
        {
          "name": "G#4",
          "midi": 68,
          "time": 126.81805499999967,
          "velocity": 0.7874015748031497,
          "duration": 0.227272499999998
        },
        {
          "name": "A4",
          "midi": 69,
          "time": 127.04532749999967,
          "velocity": 0.7874015748031497,
          "duration": 0.227272499999998
        },
        {
          "name": "G#4",
          "midi": 68,
          "time": 127.27259999999967,
          "velocity": 0.7874015748031497,
          "duration": 0.227272499999998
        },
        {
          "name": "B4",
          "midi": 71,
          "time": 127.27259999999967,
          "velocity": 0.7874015748031497,
          "duration": 0.227272499999998
        },
        {
          "name": "E4",
          "midi": 64,
          "time": 127.27259999999967,
          "velocity": 0.7874015748031497,
          "duration": 0.227272499999998
        },
        {
          "name": "G#4",
          "midi": 68,
          "time": 127.49987249999967,
          "velocity": 0.7874015748031497,
          "duration": 0.227272499999998
        },
        {
          "name": "B4",
          "midi": 71,
          "time": 127.49987249999967,
          "velocity": 0.7874015748031497,
          "duration": 0.227272499999998
        },
        {
          "name": "E4",
          "midi": 64,
          "time": 127.49987249999967,
          "velocity": 0.7874015748031497,
          "duration": 0.227272499999998
        },
        {
          "name": "G#4",
          "midi": 68,
          "time": 127.72714499999967,
          "velocity": 0.7874015748031497,
          "duration": 0.227272499999998
        },
        {
          "name": "B4",
          "midi": 71,
          "time": 127.72714499999967,
          "velocity": 0.7874015748031497,
          "duration": 0.227272499999998
        },
        {
          "name": "E4",
          "midi": 64,
          "time": 127.72714499999967,
          "velocity": 0.7874015748031497,
          "duration": 0.227272499999998
        },
        {
          "name": "G#4",
          "midi": 68,
          "time": 128.18168999999966,
          "velocity": 0.7874015748031497,
          "duration": 0.227272499999998
        },
        {
          "name": "E4",
          "midi": 64,
          "time": 128.18168999999966,
          "velocity": 0.7874015748031497,
          "duration": 0.227272499999998
        },
        {
          "name": "B4",
          "midi": 71,
          "time": 128.18168999999966,
          "velocity": 0.7874015748031497,
          "duration": 0.227272499999998
        },
        {
          "name": "A4",
          "midi": 69,
          "time": 128.86350749999966,
          "velocity": 0.7874015748031497,
          "duration": 0.227272499999998
        },
        {
          "name": "B4",
          "midi": 71,
          "time": 129.09077999999965,
          "velocity": 0.7874015748031497,
          "duration": 0.227272499999998
        },
        {
          "name": "C#5",
          "midi": 73,
          "time": 129.31805249999965,
          "velocity": 0.7874015748031497,
          "duration": 0.227272499999998
        },
        {
          "name": "C#4",
          "midi": 61,
          "time": 129.54532499999965,
          "velocity": 0.7874015748031497,
          "duration": 0.227272499999998
        },
        {
          "name": "F#4",
          "midi": 66,
          "time": 129.54532499999965,
          "velocity": 0.7874015748031497,
          "duration": 0.227272499999998
        },
        {
          "name": "B4",
          "midi": 71,
          "time": 129.54532499999965,
          "velocity": 0.7874015748031497,
          "duration": 0.227272499999998
        },
        {
          "name": "C#5",
          "midi": 73,
          "time": 130.45441499999964,
          "velocity": 0.7874015748031497,
          "duration": 0.227272499999998
        },
        {
          "name": "E5",
          "midi": 76,
          "time": 130.68168749999964,
          "velocity": 0.7874015748031497,
          "duration": 0.227272499999998
        },
        {
          "name": "F#4",
          "midi": 66,
          "time": 130.90895999999964,
          "velocity": 0.7007874015748031,
          "duration": 0.227272499999998
        },
        {
          "name": "C#5",
          "midi": 73,
          "time": 130.90895999999964,
          "velocity": 0.7007874015748031,
          "duration": 0.227272499999998
        },
        {
          "name": "F#5",
          "midi": 78,
          "time": 130.90895999999964,
          "velocity": 0.7874015748031497,
          "duration": 0.227272499999998
        },
        {
          "name": "F#4",
          "midi": 66,
          "time": 131.36350499999963,
          "velocity": 0.6299212598425197,
          "duration": 0.227272499999998
        },
        {
          "name": "C#5",
          "midi": 73,
          "time": 131.36350499999963,
          "velocity": 0.6299212598425197,
          "duration": 0.227272499999998
        },
        {
          "name": "F#5",
          "midi": 78,
          "time": 131.36350499999963,
          "velocity": 0.7874015748031497,
          "duration": 0.227272499999998
        },
        {
          "name": "F#5",
          "midi": 78,
          "time": 131.81804999999963,
          "velocity": 0.7874015748031497,
          "duration": 0.227272499999998
        },
        {
          "name": "F#4",
          "midi": 66,
          "time": 131.81804999999963,
          "velocity": 0.7007874015748031,
          "duration": 0.227272499999998
        },
        {
          "name": "C#5",
          "midi": 73,
          "time": 131.81804999999963,
          "velocity": 0.7007874015748031,
          "duration": 0.227272499999998
        },
        {
          "name": "E5",
          "midi": 76,
          "time": 132.49986749999962,
          "velocity": 0.7874015748031497,
          "duration": 0.227272499999998
        },
        {
          "name": "E5",
          "midi": 76,
          "time": 132.72713999999962,
          "velocity": 0.7874015748031497,
          "duration": 0.227272499999998
        },
        {
          "name": "C#5",
          "midi": 73,
          "time": 132.95441249999962,
          "velocity": 0.7874015748031497,
          "duration": 0.227272499999998
        },
        {
          "name": "F#5",
          "midi": 78,
          "time": 132.95441249999962,
          "velocity": 0.7874015748031497,
          "duration": 0.227272499999998
        },
        {
          "name": "F#5",
          "midi": 78,
          "time": 133.18168499999962,
          "velocity": 0.7874015748031497,
          "duration": 0.227272499999998
        },
        {
          "name": "E5",
          "midi": 76,
          "time": 133.40895749999962,
          "velocity": 0.7874015748031497,
          "duration": 0.227272499999998
        },
        {
          "name": "C#5",
          "midi": 73,
          "time": 133.6362299999996,
          "velocity": 0.7874015748031497,
          "duration": 0.227272499999998
        },
        {
          "name": "F#5",
          "midi": 78,
          "time": 133.6362299999996,
          "velocity": 0.7874015748031497,
          "duration": 0.454544999999996
        },
        {
          "name": "C#5",
          "midi": 73,
          "time": 134.0907749999996,
          "velocity": 0.7874015748031497,
          "duration": 0.227272499999998
        },
        {
          "name": "C#5",
          "midi": 73,
          "time": 134.0907749999996,
          "velocity": 0.7874015748031497,
          "duration": 0.227272499999998
        },
        {
          "name": "E5",
          "midi": 76,
          "time": 134.3180474999996,
          "velocity": 0.7874015748031497,
          "duration": 0.227272499999998
        },
        {
          "name": "F#4",
          "midi": 66,
          "time": 134.5453199999996,
          "velocity": 0.7086614173228346,
          "duration": 0.227272499999998
        },
        {
          "name": "C#5",
          "midi": 73,
          "time": 134.5453199999996,
          "velocity": 0.7086614173228346,
          "duration": 0.227272499999998
        },
        {
          "name": "F#5",
          "midi": 78,
          "time": 134.5453199999996,
          "velocity": 0.7874015748031497,
          "duration": 0.227272499999998
        },
        {
          "name": "F#4",
          "midi": 66,
          "time": 134.9998649999996,
          "velocity": 0.7244094488188977,
          "duration": 0.227272499999998
        },
        {
          "name": "C#5",
          "midi": 73,
          "time": 134.9998649999996,
          "velocity": 0.7244094488188977,
          "duration": 0.227272499999998
        },
        {
          "name": "F#5",
          "midi": 78,
          "time": 134.9998649999996,
          "velocity": 0.7874015748031497,
          "duration": 0.227272499999998
        },
        {
          "name": "F#5",
          "midi": 78,
          "time": 135.4544099999996,
          "velocity": 0.7874015748031497,
          "duration": 0.227272499999998
        },
        {
          "name": "F#4",
          "midi": 66,
          "time": 135.4544099999996,
          "velocity": 0.7322834645669292,
          "duration": 0.227272499999998
        },
        {
          "name": "C#5",
          "midi": 73,
          "time": 135.4544099999996,
          "velocity": 0.7322834645669292,
          "duration": 0.227272499999998
        },
        {
          "name": "E5",
          "midi": 76,
          "time": 136.1362274999996,
          "velocity": 0.7874015748031497,
          "duration": 0.227272499999998
        },
        {
          "name": "E5",
          "midi": 76,
          "time": 136.3634999999996,
          "velocity": 0.7874015748031497,
          "duration": 0.227272499999998
        },
        {
          "name": "C#5",
          "midi": 73,
          "time": 136.5907724999996,
          "velocity": 0.7874015748031497,
          "duration": 0.227272499999998
        },
        {
          "name": "F#5",
          "midi": 78,
          "time": 136.5907724999996,
          "velocity": 0.7874015748031497,
          "duration": 0.227272499999998
        },
        {
          "name": "F#5",
          "midi": 78,
          "time": 136.8180449999996,
          "velocity": 0.7874015748031497,
          "duration": 0.227272499999998
        },
        {
          "name": "E5",
          "midi": 76,
          "time": 137.04531749999958,
          "velocity": 0.7874015748031497,
          "duration": 0.227272499999998
        },
        {
          "name": "C#5",
          "midi": 73,
          "time": 137.27258999999958,
          "velocity": 0.7874015748031497,
          "duration": 0.227272499999998
        },
        {
          "name": "F#5",
          "midi": 78,
          "time": 137.27258999999958,
          "velocity": 0.7874015748031497,
          "duration": 0.454544999999996
        },
        {
          "name": "C#5",
          "midi": 73,
          "time": 137.72713499999958,
          "velocity": 0.7874015748031497,
          "duration": 0.227272499999998
        },
        {
          "name": "C#5",
          "midi": 73,
          "time": 138.18167999999957,
          "velocity": 0.7401574803149606,
          "duration": 0.227272499999998
        },
        {
          "name": "G#5",
          "midi": 80,
          "time": 138.18167999999957,
          "velocity": 0.7874015748031497,
          "duration": 0.227272499999998
        },
        {
          "name": "C#5",
          "midi": 73,
          "time": 138.40895249999957,
          "velocity": 0.7322834645669292,
          "duration": 0.227272499999998
        },
        {
          "name": "G#5",
          "midi": 80,
          "time": 138.40895249999957,
          "velocity": 0.7874015748031497,
          "duration": 0.227272499999998
        },
        {
          "name": "C#5",
          "midi": 73,
          "time": 138.63622499999957,
          "velocity": 0.7165354330708661,
          "duration": 0.227272499999998
        },
        {
          "name": "G#5",
          "midi": 80,
          "time": 138.63622499999957,
          "velocity": 0.7874015748031497,
          "duration": 0.227272499999998
        },
        {
          "name": "C#5",
          "midi": 73,
          "time": 138.86349749999957,
          "velocity": 0.6929133858267716,
          "duration": 0.227272499999998
        },
        {
          "name": "G#5",
          "midi": 80,
          "time": 138.86349749999957,
          "velocity": 0.7874015748031497,
          "duration": 0.227272499999998
        },
        {
          "name": "C#5",
          "midi": 73,
          "time": 139.09076999999957,
          "velocity": 0.7165354330708661,
          "duration": 0.227272499999998
        },
        {
          "name": "G#5",
          "midi": 80,
          "time": 139.09076999999957,
          "velocity": 0.7874015748031497,
          "duration": 0.227272499999998
        },
        {
          "name": "E5",
          "midi": 76,
          "time": 139.31804249999956,
          "velocity": 0.7874015748031497,
          "duration": 0.227272499999998
        },
        {
          "name": "E5",
          "midi": 76,
          "time": 139.54531499999956,
          "velocity": 0.7874015748031497,
          "duration": 0.227272499999998
        },
        {
          "name": "E5",
          "midi": 76,
          "time": 139.77258749999956,
          "velocity": 0.7874015748031497,
          "duration": 0.227272499999998
        },
        {
          "name": "C#5",
          "midi": 73,
          "time": 140.22713249999956,
          "velocity": 0.7874015748031497,
          "duration": 0.227272499999998
        },
        {
          "name": "F#5",
          "midi": 78,
          "time": 140.22713249999956,
          "velocity": 0.7874015748031497,
          "duration": 0.227272499999998
        },
        {
          "name": "C#5",
          "midi": 73,
          "time": 141.36349499999955,
          "velocity": 0.7874015748031497,
          "duration": 0.227272499999998
        },
        {
          "name": "E5",
          "midi": 76,
          "time": 141.59076749999954,
          "velocity": 0.7874015748031497,
          "duration": 0.227272499999998
        },
        {
          "name": "G#5",
          "midi": 80,
          "time": 141.81803999999954,
          "velocity": 0.7874015748031497,
          "duration": 0.227272499999998
        },
        {
          "name": "G#5",
          "midi": 80,
          "time": 142.04531249999954,
          "velocity": 0.7874015748031497,
          "duration": 0.227272499999998
        },
        {
          "name": "G#5",
          "midi": 80,
          "time": 142.27258499999954,
          "velocity": 0.7874015748031497,
          "duration": 0.227272499999998
        },
        {
          "name": "G#5",
          "midi": 80,
          "time": 142.49985749999954,
          "velocity": 0.7874015748031497,
          "duration": 0.227272499999998
        },
        {
          "name": "G#5",
          "midi": 80,
          "time": 142.72712999999953,
          "velocity": 0.7874015748031497,
          "duration": 0.227272499999998
        },
        {
          "name": "E5",
          "midi": 76,
          "time": 142.95440249999953,
          "velocity": 0.7874015748031497,
          "duration": 0.227272499999998
        },
        {
          "name": "E5",
          "midi": 76,
          "time": 143.18167499999953,
          "velocity": 0.7874015748031497,
          "duration": 0.227272499999998
        },
        {
          "name": "E5",
          "midi": 76,
          "time": 143.40894749999953,
          "velocity": 0.7874015748031497,
          "duration": 0.454544999999996
        },
        {
          "name": "F#5",
          "midi": 78,
          "time": 143.86349249999952,
          "velocity": 0.7874015748031497,
          "duration": 0.227272499999998
        },
        {
          "name": "C#5",
          "midi": 73,
          "time": 144.9998549999995,
          "velocity": 0.7874015748031497,
          "duration": 0.227272499999998
        },
        {
          "name": "E5",
          "midi": 76,
          "time": 145.2271274999995,
          "velocity": 0.7874015748031497,
          "duration": 0.227272499999998
        },
        {
          "name": "F#5",
          "midi": 78,
          "time": 145.4543999999995,
          "velocity": 0.7874015748031497,
          "duration": 0.227272499999998
        },
        {
          "name": "C#5",
          "midi": 73,
          "time": 145.4543999999995,
          "velocity": 0.6929133858267716,
          "duration": 0.227272499999998
        },
        {
          "name": "F#4",
          "midi": 66,
          "time": 145.4543999999995,
          "velocity": 0.6929133858267716,
          "duration": 0.227272499999998
        },
        {
          "name": "F#4",
          "midi": 66,
          "time": 145.9089449999995,
          "velocity": 0.7401574803149606,
          "duration": 0.227272499999998
        },
        {
          "name": "C#5",
          "midi": 73,
          "time": 145.9089449999995,
          "velocity": 0.7401574803149606,
          "duration": 0.227272499999998
        },
        {
          "name": "F#5",
          "midi": 78,
          "time": 145.9089449999995,
          "velocity": 0.7874015748031497,
          "duration": 0.227272499999998
        },
        {
          "name": "F#5",
          "midi": 78,
          "time": 146.3634899999995,
          "velocity": 0.7874015748031497,
          "duration": 0.227272499999998
        },
        {
          "name": "F#4",
          "midi": 66,
          "time": 146.3634899999995,
          "velocity": 0.6850393700787402,
          "duration": 0.227272499999998
        },
        {
          "name": "C#5",
          "midi": 73,
          "time": 146.3634899999995,
          "velocity": 0.6850393700787402,
          "duration": 0.227272499999998
        },
        {
          "name": "E5",
          "midi": 76,
          "time": 147.0453074999995,
          "velocity": 0.7874015748031497,
          "duration": 0.227272499999998
        },
        {
          "name": "E5",
          "midi": 76,
          "time": 147.2725799999995,
          "velocity": 0.7874015748031497,
          "duration": 0.227272499999998
        },
        {
          "name": "F#5",
          "midi": 78,
          "time": 147.4998524999995,
          "velocity": 0.7874015748031497,
          "duration": 0.227272499999998
        },
        {
          "name": "F#5",
          "midi": 78,
          "time": 147.7271249999995,
          "velocity": 0.7874015748031497,
          "duration": 0.227272499999998
        },
        {
          "name": "E5",
          "midi": 76,
          "time": 147.9543974999995,
          "velocity": 0.7874015748031497,
          "duration": 0.227272499999998
        },
        {
          "name": "C#5",
          "midi": 73,
          "time": 148.18166999999949,
          "velocity": 0.7874015748031497,
          "duration": 0.454544999999996
        },
        {
          "name": "F#5",
          "midi": 78,
          "time": 148.18166999999949,
          "velocity": 0.7874015748031497,
          "duration": 0.454544999999996
        },
        {
          "name": "C#5",
          "midi": 73,
          "time": 148.63621499999948,
          "velocity": 0.7874015748031497,
          "duration": 0.227272499999998
        },
        {
          "name": "C#5",
          "midi": 73,
          "time": 148.63621499999948,
          "velocity": 0.7874015748031497,
          "duration": 0.227272499999998
        },
        {
          "name": "E5",
          "midi": 76,
          "time": 148.86348749999948,
          "velocity": 0.7874015748031497,
          "duration": 0.227272499999998
        },
        {
          "name": "F#5",
          "midi": 78,
          "time": 149.09075999999948,
          "velocity": 0.7874015748031497,
          "duration": 0.227272499999998
        },
        {
          "name": "C#5",
          "midi": 73,
          "time": 149.09075999999948,
          "velocity": 0.7480314960629921,
          "duration": 0.227272499999998
        },
        {
          "name": "F#4",
          "midi": 66,
          "time": 149.09075999999948,
          "velocity": 0.7480314960629921,
          "duration": 0.227272499999998
        },
        {
          "name": "F#4",
          "midi": 66,
          "time": 149.54530499999947,
          "velocity": 0.6377952755905512,
          "duration": 0.227272499999998
        },
        {
          "name": "C#5",
          "midi": 73,
          "time": 149.54530499999947,
          "velocity": 0.6377952755905512,
          "duration": 0.227272499999998
        },
        {
          "name": "F#5",
          "midi": 78,
          "time": 149.54530499999947,
          "velocity": 0.7874015748031497,
          "duration": 0.227272499999998
        },
        {
          "name": "F#5",
          "midi": 78,
          "time": 149.99984999999947,
          "velocity": 0.7874015748031497,
          "duration": 0.227272499999998
        },
        {
          "name": "F#4",
          "midi": 66,
          "time": 149.99984999999947,
          "velocity": 0.7322834645669292,
          "duration": 0.227272499999998
        },
        {
          "name": "C#5",
          "midi": 73,
          "time": 149.99984999999947,
          "velocity": 0.7322834645669292,
          "duration": 0.227272499999998
        },
        {
          "name": "E5",
          "midi": 76,
          "time": 150.68166749999946,
          "velocity": 0.7874015748031497,
          "duration": 0.227272499999998
        },
        {
          "name": "E5",
          "midi": 76,
          "time": 150.90893999999946,
          "velocity": 0.7874015748031497,
          "duration": 0.227272499999998
        },
        {
          "name": "F#5",
          "midi": 78,
          "time": 151.13621249999946,
          "velocity": 0.7874015748031497,
          "duration": 0.227272499999998
        },
        {
          "name": "F#5",
          "midi": 78,
          "time": 151.36348499999946,
          "velocity": 0.7874015748031497,
          "duration": 0.227272499999998
        },
        {
          "name": "E5",
          "midi": 76,
          "time": 151.59075749999946,
          "velocity": 0.7874015748031497,
          "duration": 0.227272499999998
        },
        {
          "name": "F#5",
          "midi": 78,
          "time": 151.81802999999945,
          "velocity": 0.7874015748031497,
          "duration": 0.454544999999996
        },
        {
          "name": "C#5",
          "midi": 73,
          "time": 152.27257499999945,
          "velocity": 0.7874015748031497,
          "duration": 0.227272499999998
        },
        {
          "name": "C#5",
          "midi": 73,
          "time": 152.72711999999945,
          "velocity": 0.6850393700787402,
          "duration": 0.227272499999998
        },
        {
          "name": "G#5",
          "midi": 80,
          "time": 152.72711999999945,
          "velocity": 0.7874015748031497,
          "duration": 0.227272499999998
        },
        {
          "name": "C#5",
          "midi": 73,
          "time": 152.95439249999944,
          "velocity": 0.6771653543307087,
          "duration": 0.227272499999998
        },
        {
          "name": "G#5",
          "midi": 80,
          "time": 152.95439249999944,
          "velocity": 0.7874015748031497,
          "duration": 0.227272499999998
        },
        {
          "name": "C#5",
          "midi": 73,
          "time": 153.18166499999944,
          "velocity": 0.6771653543307087,
          "duration": 0.227272499999998
        },
        {
          "name": "G#5",
          "midi": 80,
          "time": 153.18166499999944,
          "velocity": 0.7874015748031497,
          "duration": 0.227272499999998
        },
        {
          "name": "C#5",
          "midi": 73,
          "time": 153.40893749999944,
          "velocity": 0.6929133858267716,
          "duration": 0.227272499999998
        },
        {
          "name": "G#5",
          "midi": 80,
          "time": 153.40893749999944,
          "velocity": 0.7874015748031497,
          "duration": 0.227272499999998
        },
        {
          "name": "C#5",
          "midi": 73,
          "time": 153.63620999999944,
          "velocity": 0.6771653543307087,
          "duration": 0.227272499999998
        },
        {
          "name": "G#5",
          "midi": 80,
          "time": 153.63620999999944,
          "velocity": 0.7874015748031497,
          "duration": 0.227272499999998
        },
        {
          "name": "E5",
          "midi": 76,
          "time": 153.86348249999944,
          "velocity": 0.7874015748031497,
          "duration": 0.227272499999998
        },
        {
          "name": "E5",
          "midi": 76,
          "time": 154.09075499999943,
          "velocity": 0.7874015748031497,
          "duration": 0.227272499999998
        },
        {
          "name": "E5",
          "midi": 76,
          "time": 154.31802749999943,
          "velocity": 0.7874015748031497,
          "duration": 0.227272499999998
        },
        {
          "name": "F#5",
          "midi": 78,
          "time": 154.77257249999943,
          "velocity": 0.7874015748031497,
          "duration": 0.227272499999998
        },
        {
          "name": "C#5",
          "midi": 73,
          "time": 155.90893499999942,
          "velocity": 0.7874015748031497,
          "duration": 0.227272499999998
        },
        {
          "name": "E5",
          "midi": 76,
          "time": 156.13620749999941,
          "velocity": 0.7874015748031497,
          "duration": 0.227272499999998
        },
        {
          "name": "G#5",
          "midi": 80,
          "time": 156.3634799999994,
          "velocity": 0.7874015748031497,
          "duration": 0.227272499999998
        },
        {
          "name": "G#5",
          "midi": 80,
          "time": 156.5907524999994,
          "velocity": 0.7874015748031497,
          "duration": 0.227272499999998
        },
        {
          "name": "G#5",
          "midi": 80,
          "time": 156.8180249999994,
          "velocity": 0.7874015748031497,
          "duration": 0.227272499999998
        },
        {
          "name": "G#5",
          "midi": 80,
          "time": 157.0452974999994,
          "velocity": 0.7874015748031497,
          "duration": 0.227272499999998
        },
        {
          "name": "G#5",
          "midi": 80,
          "time": 157.2725699999994,
          "velocity": 0.7874015748031497,
          "duration": 0.227272499999998
        },
        {
          "name": "E5",
          "midi": 76,
          "time": 157.4998424999994,
          "velocity": 0.7874015748031497,
          "duration": 0.227272499999998
        },
        {
          "name": "E5",
          "midi": 76,
          "time": 157.7271149999994,
          "velocity": 0.7874015748031497,
          "duration": 0.227272499999998
        },
        {
          "name": "E5",
          "midi": 76,
          "time": 157.9543874999994,
          "velocity": 0.7874015748031497,
          "duration": 0.454544999999996
        },
        {
          "name": "F#5",
          "midi": 78,
          "time": 158.4089324999994,
          "velocity": 0.7874015748031497,
          "duration": 0.227272499999998
        },
        {
          "name": "C#5",
          "midi": 73,
          "time": 160.4543849999994,
          "velocity": 0.7874015748031497,
          "duration": 0.227272499999998
        },
        {
          "name": "B4",
          "midi": 71,
          "time": 160.6816574999994,
          "velocity": 0.7874015748031497,
          "duration": 0.227272499999998
        },
        {
          "name": "C#5",
          "midi": 73,
          "time": 160.9089299999994,
          "velocity": 0.7874015748031497,
          "duration": 0.227272499999998
        },
        {
          "name": "B4",
          "midi": 71,
          "time": 161.1362024999994,
          "velocity": 0.7874015748031497,
          "duration": 0.227272499999998
        },
        {
          "name": "C#5",
          "midi": 73,
          "time": 161.3634749999994,
          "velocity": 0.7874015748031497,
          "duration": 0.227272499999998
        },
        {
          "name": "B4",
          "midi": 71,
          "time": 161.5907474999994,
          "velocity": 0.7874015748031497,
          "duration": 0.227272499999998
        },
        {
          "name": "C#5",
          "midi": 73,
          "time": 161.8180199999994,
          "velocity": 0.7874015748031497,
          "duration": 0.227272499999998
        },
        {
          "name": "B4",
          "midi": 71,
          "time": 162.0452924999994,
          "velocity": 0.7874015748031497,
          "duration": 0.227272499999998
        },
        {
          "name": "E5",
          "midi": 76,
          "time": 162.0452924999994,
          "velocity": 0.7874015748031497,
          "duration": 0.227272499999998
        },
        {
          "name": "C#5",
          "midi": 73,
          "time": 162.2725649999994,
          "velocity": 0.7874015748031497,
          "duration": 0.227272499999998
        },
        {
          "name": "B4",
          "midi": 71,
          "time": 162.4998374999994,
          "velocity": 0.7874015748031497,
          "duration": 0.227272499999998
        },
        {
          "name": "E4",
          "midi": 64,
          "time": 163.63619999999938,
          "velocity": 0.7874015748031497,
          "duration": 0.227272499999998
        },
        {
          "name": "A4",
          "midi": 69,
          "time": 163.63619999999938,
          "velocity": 0.7874015748031497,
          "duration": 0.227272499999998
        },
        {
          "name": "E4",
          "midi": 64,
          "time": 164.09074499999937,
          "velocity": 0.7874015748031497,
          "duration": 0.227272499999998
        },
        {
          "name": "A4",
          "midi": 69,
          "time": 164.09074499999937,
          "velocity": 0.7874015748031497,
          "duration": 0.227272499999998
        },
        {
          "name": "F#4",
          "midi": 66,
          "time": 164.31801749999937,
          "velocity": 0.7874015748031497,
          "duration": 0.227272499999998
        },
        {
          "name": "E4",
          "midi": 64,
          "time": 164.54528999999937,
          "velocity": 0.7874015748031497,
          "duration": 0.227272499999998
        },
        {
          "name": "A4",
          "midi": 69,
          "time": 164.54528999999937,
          "velocity": 0.7874015748031497,
          "duration": 0.227272499999998
        },
        {
          "name": "B4",
          "midi": 71,
          "time": 164.77256249999937,
          "velocity": 0.7874015748031497,
          "duration": 0.227272499999998
        },
        {
          "name": "F#4",
          "midi": 66,
          "time": 164.99983499999936,
          "velocity": 0.7874015748031497,
          "duration": 0.227272499999998
        },
        {
          "name": "C#5",
          "midi": 73,
          "time": 164.99983499999936,
          "velocity": 0.7874015748031497,
          "duration": 0.227272499999998
        },
        {
          "name": "F#4",
          "midi": 66,
          "time": 165.22710749999936,
          "velocity": 0.7874015748031497,
          "duration": 0.227272499999998
        },
        {
          "name": "C#5",
          "midi": 73,
          "time": 165.22710749999936,
          "velocity": 0.7874015748031497,
          "duration": 0.227272499999998
        },
        {
          "name": "F#4",
          "midi": 66,
          "time": 165.68165249999936,
          "velocity": 0.7874015748031497,
          "duration": 0.454544999999996
        },
        {
          "name": "B4",
          "midi": 71,
          "time": 165.68165249999936,
          "velocity": 0.7874015748031497,
          "duration": 0.454544999999996
        },
        {
          "name": "A4",
          "midi": 69,
          "time": 167.04528749999935,
          "velocity": 0.7874015748031497,
          "duration": 0.227272499999998
        },
        {
          "name": "B4",
          "midi": 71,
          "time": 167.27255999999934,
          "velocity": 0.7874015748031497,
          "duration": 0.227272499999998
        },
        {
          "name": "B4",
          "midi": 71,
          "time": 167.61346874999936,
          "velocity": 0.7874015748031497,
          "duration": 0.227272499999998
        },
        {
          "name": "A4",
          "midi": 69,
          "time": 167.95437749999937,
          "velocity": 0.7874015748031497,
          "duration": 0.227272499999998
        },
        {
          "name": "B4",
          "midi": 71,
          "time": 168.18164999999937,
          "velocity": 0.7874015748031497,
          "duration": 0.227272499999998
        },
        {
          "name": "A4",
          "midi": 69,
          "time": 168.86346749999936,
          "velocity": 0.7874015748031497,
          "duration": 0.227272499999998
        },
        {
          "name": "B4",
          "midi": 71,
          "time": 169.09073999999936,
          "velocity": 0.7874015748031497,
          "duration": 0.227272499999998
        },
        {
          "name": "B4",
          "midi": 71,
          "time": 169.43164874999937,
          "velocity": 0.7874015748031497,
          "duration": 0.227272499999998
        },
        {
          "name": "A4",
          "midi": 69,
          "time": 169.77255749999938,
          "velocity": 0.7874015748031497,
          "duration": 0.227272499999998
        },
        {
          "name": "B4",
          "midi": 71,
          "time": 169.99982999999938,
          "velocity": 0.7874015748031497,
          "duration": 0.227272499999998
        },
        {
          "name": "A4",
          "midi": 69,
          "time": 170.68164749999937,
          "velocity": 0.7874015748031497,
          "duration": 0.227272499999998
        },
        {
          "name": "B4",
          "midi": 71,
          "time": 170.90891999999937,
          "velocity": 0.7874015748031497,
          "duration": 0.227272499999998
        },
        {
          "name": "A4",
          "midi": 69,
          "time": 171.13619249999937,
          "velocity": 0.7874015748031497,
          "duration": 0.227272499999998
        },
        {
          "name": "B4",
          "midi": 71,
          "time": 171.36346499999937,
          "velocity": 0.7874015748031497,
          "duration": 0.227272499999998
        },
        {
          "name": "A4",
          "midi": 69,
          "time": 171.59073749999936,
          "velocity": 0.7874015748031497,
          "duration": 0.227272499999998
        },
        {
          "name": "B4",
          "midi": 71,
          "time": 171.81800999999936,
          "velocity": 0.7874015748031497,
          "duration": 0.1136362500000132
        },
        {
          "name": "E5",
          "midi": 76,
          "time": 172.2725549999994,
          "velocity": 0.7874015748031497,
          "duration": 0.454544999999996
        },
        {
          "name": "E5",
          "midi": 76,
          "time": 172.72709999999938,
          "velocity": 0.7874015748031497,
          "duration": 0.227272499999998
        },
        {
          "name": "D5",
          "midi": 74,
          "time": 172.95437249999938,
          "velocity": 0.7874015748031497,
          "duration": 0.227272499999998
        },
        {
          "name": "C#5",
          "midi": 73,
          "time": 173.18164499999938,
          "velocity": 0.7874015748031497,
          "duration": 0.227272499999998
        },
        {
          "name": "A4",
          "midi": 69,
          "time": 174.09073499999937,
          "velocity": 0.7874015748031497,
          "duration": 0.227272499999998
        },
        {
          "name": "A4",
          "midi": 69,
          "time": 174.31800749999937,
          "velocity": 0.7874015748031497,
          "duration": 0.227272499999998
        },
        {
          "name": "A4",
          "midi": 69,
          "time": 174.54527999999937,
          "velocity": 0.7874015748031497,
          "duration": 0.227272499999998
        },
        {
          "name": "C#5",
          "midi": 73,
          "time": 174.54527999999937,
          "velocity": 0.7874015748031497,
          "duration": 0.227272499999998
        },
        {
          "name": "E5",
          "midi": 76,
          "time": 174.54527999999937,
          "velocity": 0.7874015748031497,
          "duration": 0.227272499999998
        },
        {
          "name": "D5",
          "midi": 74,
          "time": 174.77255249999936,
          "velocity": 0.7874015748031497,
          "duration": 0.227272499999998
        },
        {
          "name": "C#5",
          "midi": 73,
          "time": 174.99982499999936,
          "velocity": 0.7874015748031497,
          "duration": 0.227272499999998
        },
        {
          "name": "C#5",
          "midi": 73,
          "time": 175.22709749999936,
          "velocity": 0.7874015748031497,
          "duration": 0.227272499999998
        },
        {
          "name": "A4",
          "midi": 69,
          "time": 175.68164249999936,
          "velocity": 0.7874015748031497,
          "duration": 0.227272499999998
        },
        {
          "name": "C#5",
          "midi": 73,
          "time": 176.13618749999935,
          "velocity": 0.7874015748031497,
          "duration": 0.227272499999998
        },
        {
          "name": "A4",
          "midi": 69,
          "time": 176.36345999999935,
          "velocity": 0.7874015748031497,
          "duration": 0.227272499999998
        },
        {
          "name": "C#5",
          "midi": 73,
          "time": 176.36345999999935,
          "velocity": 0.7874015748031497,
          "duration": 0.227272499999998
        },
        {
          "name": "E5",
          "midi": 76,
          "time": 176.36345999999935,
          "velocity": 0.7874015748031497,
          "duration": 0.227272499999998
        },
        {
          "name": "D5",
          "midi": 74,
          "time": 176.59073249999935,
          "velocity": 0.7874015748031497,
          "duration": 0.227272499999998
        },
        {
          "name": "C#5",
          "midi": 73,
          "time": 176.81800499999935,
          "velocity": 0.7874015748031497,
          "duration": 0.227272499999998
        },
        {
          "name": "C#5",
          "midi": 73,
          "time": 177.04527749999934,
          "velocity": 0.7874015748031497,
          "duration": 0.227272499999998
        },
        {
          "name": "A4",
          "midi": 69,
          "time": 177.49982249999934,
          "velocity": 0.7874015748031497,
          "duration": 0.227272499999998
        },
        {
          "name": "A4",
          "midi": 69,
          "time": 177.95436749999934,
          "velocity": 0.7874015748031497,
          "duration": 0.227272499999998
        },
        {
          "name": "A4",
          "midi": 69,
          "time": 178.18163999999933,
          "velocity": 0.7874015748031497,
          "duration": 0.227272499999998
        },
        {
          "name": "C#5",
          "midi": 73,
          "time": 178.18163999999933,
          "velocity": 0.7874015748031497,
          "duration": 0.227272499999998
        },
        {
          "name": "E5",
          "midi": 76,
          "time": 178.18163999999933,
          "velocity": 0.7874015748031497,
          "duration": 0.227272499999998
        },
        {
          "name": "D5",
          "midi": 74,
          "time": 178.40891249999933,
          "velocity": 0.7874015748031497,
          "duration": 0.227272499999998
        },
        {
          "name": "C#5",
          "midi": 73,
          "time": 178.63618499999933,
          "velocity": 0.7874015748031497,
          "duration": 0.227272499999998
        },
        {
          "name": "B4",
          "midi": 71,
          "time": 178.86345749999933,
          "velocity": 0.7874015748031497,
          "duration": 0.227272499999998
        },
        {
          "name": "D5",
          "midi": 74,
          "time": 179.31800249999932,
          "velocity": 0.7874015748031497,
          "duration": 0.227272499999998
        },
        {
          "name": "C#5",
          "midi": 73,
          "time": 179.54527499999932,
          "velocity": 0.7874015748031497,
          "duration": 0.227272499999998
        },
        {
          "name": "B4",
          "midi": 71,
          "time": 179.77254749999932,
          "velocity": 0.7874015748031497,
          "duration": 0.227272499999998
        },
        {
          "name": "B4",
          "midi": 71,
          "time": 180.22709249999932,
          "velocity": 0.7874015748031497,
          "duration": 0.227272499999998
        },
        {
          "name": "A3",
          "midi": 57,
          "time": 181.5907274999993,
          "velocity": 0.7874015748031497,
          "duration": 0.227272499999998
        },
        {
          "name": "A3",
          "midi": 57,
          "time": 181.8179999999993,
          "velocity": 0.7874015748031497,
          "duration": 0.227272499999998
        },
        {
          "name": "B3",
          "midi": 59,
          "time": 182.1589087499993,
          "velocity": 0.7874015748031497,
          "duration": 0.227272499999998
        },
        {
          "name": "C#4",
          "midi": 61,
          "time": 182.49981749999932,
          "velocity": 0.7874015748031497,
          "duration": 0.227272499999998
        },
        {
          "name": "C#4",
          "midi": 61,
          "time": 182.72708999999932,
          "velocity": 0.7874015748031497,
          "duration": 0.227272499999998
        },
        {
          "name": "A3",
          "midi": 57,
          "time": 183.40890749999932,
          "velocity": 0.7874015748031497,
          "duration": 0.227272499999998
        },
        {
          "name": "A3",
          "midi": 57,
          "time": 183.6361799999993,
          "velocity": 0.7874015748031497,
          "duration": 0.227272499999998
        },
        {
          "name": "B3",
          "midi": 59,
          "time": 183.97708874999933,
          "velocity": 0.7874015748031497,
          "duration": 0.227272499999998
        },
        {
          "name": "C#4",
          "midi": 61,
          "time": 184.31799749999934,
          "velocity": 0.7874015748031497,
          "duration": 0.227272499999998
        },
        {
          "name": "C#4",
          "midi": 61,
          "time": 184.54526999999933,
          "velocity": 0.7874015748031497,
          "duration": 0.227272499999998
        },
        {
          "name": "A4",
          "midi": 69,
          "time": 185.22708749999933,
          "velocity": 0.7874015748031497,
          "duration": 0.227272499999998
        },
        {
          "name": "A3",
          "midi": 57,
          "time": 185.22708749999933,
          "velocity": 0.7874015748031497,
          "duration": 0.227272499999998
        },
        {
          "name": "B4",
          "midi": 71,
          "time": 185.45435999999933,
          "velocity": 0.7874015748031497,
          "duration": 0.227272499999998
        },
        {
          "name": "B3",
          "midi": 59,
          "time": 185.45435999999933,
          "velocity": 0.7874015748031497,
          "duration": 0.227272499999998
        },
        {
          "name": "C#5",
          "midi": 73,
          "time": 185.90890499999932,
          "velocity": 0.7874015748031497,
          "duration": 0.227272499999998
        },
        {
          "name": "C#4",
          "midi": 61,
          "time": 185.90890499999932,
          "velocity": 0.7874015748031497,
          "duration": 0.227272499999998
        },
        {
          "name": "C#4",
          "midi": 61,
          "time": 186.36344999999932,
          "velocity": 0.7874015748031497,
          "duration": 0.227272499999998
        },
        {
          "name": "C#5",
          "midi": 73,
          "time": 186.36344999999932,
          "velocity": 0.7874015748031497,
          "duration": 0.227272499999998
        },
        {
          "name": "D5",
          "midi": 74,
          "time": 186.8179949999993,
          "velocity": 0.7874015748031497,
          "duration": 0.227272499999998
        },
        {
          "name": "D4",
          "midi": 62,
          "time": 186.8179949999993,
          "velocity": 0.7874015748031497,
          "duration": 0.227272499999998
        },
        {
          "name": "B4",
          "midi": 71,
          "time": 187.2725399999993,
          "velocity": 0.7874015748031497,
          "duration": 1.8181800000000123
        },
        {
          "name": "E5",
          "midi": 76,
          "time": 187.2725399999993,
          "velocity": 0.7874015748031497,
          "duration": 1.8181800000000123
        },
        {
          "name": "E4",
          "midi": 64,
          "time": 187.2725399999993,
          "velocity": 0.7874015748031497,
          "duration": 1.8181800000000123
        },
        {
          "name": "C#5",
          "midi": 73,
          "time": 190.4543549999993,
          "velocity": 0.7874015748031497,
          "duration": 0.227272499999998
        },
        {
          "name": "E5",
          "midi": 76,
          "time": 190.6816274999993,
          "velocity": 0.7874015748031497,
          "duration": 0.227272499999998
        },
        {
          "name": "F#4",
          "midi": 66,
          "time": 190.9088999999993,
          "velocity": 0.7007874015748031,
          "duration": 0.227272499999998
        },
        {
          "name": "C#5",
          "midi": 73,
          "time": 190.9088999999993,
          "velocity": 0.7007874015748031,
          "duration": 0.227272499999998
        },
        {
          "name": "F#5",
          "midi": 78,
          "time": 190.9088999999993,
          "velocity": 0.7874015748031497,
          "duration": 0.227272499999998
        },
        {
          "name": "F#4",
          "midi": 66,
          "time": 191.3634449999993,
          "velocity": 0.6299212598425197,
          "duration": 0.227272499999998
        },
        {
          "name": "C#5",
          "midi": 73,
          "time": 191.3634449999993,
          "velocity": 0.6299212598425197,
          "duration": 0.227272499999998
        },
        {
          "name": "F#5",
          "midi": 78,
          "time": 191.3634449999993,
          "velocity": 0.7874015748031497,
          "duration": 0.227272499999998
        },
        {
          "name": "F#5",
          "midi": 78,
          "time": 191.8179899999993,
          "velocity": 0.7874015748031497,
          "duration": 0.227272499999998
        },
        {
          "name": "F#4",
          "midi": 66,
          "time": 191.8179899999993,
          "velocity": 0.7007874015748031,
          "duration": 0.227272499999998
        },
        {
          "name": "C#5",
          "midi": 73,
          "time": 191.8179899999993,
          "velocity": 0.7007874015748031,
          "duration": 0.227272499999998
        },
        {
          "name": "E5",
          "midi": 76,
          "time": 192.4998074999993,
          "velocity": 0.7874015748031497,
          "duration": 0.227272499999998
        },
        {
          "name": "E5",
          "midi": 76,
          "time": 192.7270799999993,
          "velocity": 0.7874015748031497,
          "duration": 0.227272499999998
        },
        {
          "name": "C#5",
          "midi": 73,
          "time": 192.9543524999993,
          "velocity": 0.7874015748031497,
          "duration": 0.227272499999998
        },
        {
          "name": "F#5",
          "midi": 78,
          "time": 192.9543524999993,
          "velocity": 0.7874015748031497,
          "duration": 0.227272499999998
        },
        {
          "name": "F#5",
          "midi": 78,
          "time": 193.1816249999993,
          "velocity": 0.7874015748031497,
          "duration": 0.227272499999998
        },
        {
          "name": "E5",
          "midi": 76,
          "time": 193.40889749999928,
          "velocity": 0.7874015748031497,
          "duration": 0.227272499999998
        },
        {
          "name": "C#5",
          "midi": 73,
          "time": 193.63616999999928,
          "velocity": 0.7874015748031497,
          "duration": 0.227272499999998
        },
        {
          "name": "F#5",
          "midi": 78,
          "time": 193.63616999999928,
          "velocity": 0.7874015748031497,
          "duration": 0.454544999999996
        },
        {
          "name": "C#5",
          "midi": 73,
          "time": 194.09071499999928,
          "velocity": 0.7874015748031497,
          "duration": 0.227272499999998
        },
        {
          "name": "C#5",
          "midi": 73,
          "time": 194.09071499999928,
          "velocity": 0.7874015748031497,
          "duration": 0.227272499999998
        },
        {
          "name": "E5",
          "midi": 76,
          "time": 194.31798749999928,
          "velocity": 0.7874015748031497,
          "duration": 0.227272499999998
        },
        {
          "name": "F#4",
          "midi": 66,
          "time": 194.54525999999927,
          "velocity": 0.7086614173228346,
          "duration": 0.227272499999998
        },
        {
          "name": "C#5",
          "midi": 73,
          "time": 194.54525999999927,
          "velocity": 0.7086614173228346,
          "duration": 0.227272499999998
        },
        {
          "name": "F#5",
          "midi": 78,
          "time": 194.54525999999927,
          "velocity": 0.7874015748031497,
          "duration": 0.227272499999998
        },
        {
          "name": "F#4",
          "midi": 66,
          "time": 194.99980499999927,
          "velocity": 0.7244094488188977,
          "duration": 0.227272499999998
        },
        {
          "name": "C#5",
          "midi": 73,
          "time": 194.99980499999927,
          "velocity": 0.7244094488188977,
          "duration": 0.227272499999998
        },
        {
          "name": "F#5",
          "midi": 78,
          "time": 194.99980499999927,
          "velocity": 0.7874015748031497,
          "duration": 0.227272499999998
        },
        {
          "name": "F#5",
          "midi": 78,
          "time": 195.45434999999927,
          "velocity": 0.7874015748031497,
          "duration": 0.227272499999998
        },
        {
          "name": "F#4",
          "midi": 66,
          "time": 195.45434999999927,
          "velocity": 0.7322834645669292,
          "duration": 0.227272499999998
        },
        {
          "name": "C#5",
          "midi": 73,
          "time": 195.45434999999927,
          "velocity": 0.7322834645669292,
          "duration": 0.227272499999998
        },
        {
          "name": "E5",
          "midi": 76,
          "time": 196.13616749999926,
          "velocity": 0.7874015748031497,
          "duration": 0.227272499999998
        },
        {
          "name": "E5",
          "midi": 76,
          "time": 196.36343999999926,
          "velocity": 0.7874015748031497,
          "duration": 0.227272499999998
        },
        {
          "name": "C#5",
          "midi": 73,
          "time": 196.59071249999926,
          "velocity": 0.7874015748031497,
          "duration": 0.227272499999998
        },
        {
          "name": "F#5",
          "midi": 78,
          "time": 196.59071249999926,
          "velocity": 0.7874015748031497,
          "duration": 0.227272499999998
        },
        {
          "name": "F#5",
          "midi": 78,
          "time": 196.81798499999925,
          "velocity": 0.7874015748031497,
          "duration": 0.227272499999998
        },
        {
          "name": "E5",
          "midi": 76,
          "time": 197.04525749999925,
          "velocity": 0.7874015748031497,
          "duration": 0.227272499999998
        },
        {
          "name": "C#5",
          "midi": 73,
          "time": 197.27252999999925,
          "velocity": 0.7874015748031497,
          "duration": 0.227272499999998
        },
        {
          "name": "F#5",
          "midi": 78,
          "time": 197.27252999999925,
          "velocity": 0.7874015748031497,
          "duration": 0.454544999999996
        },
        {
          "name": "C#5",
          "midi": 73,
          "time": 197.72707499999925,
          "velocity": 0.7874015748031497,
          "duration": 0.227272499999998
        },
        {
          "name": "C#5",
          "midi": 73,
          "time": 198.18161999999924,
          "velocity": 0.7401574803149606,
          "duration": 0.227272499999998
        },
        {
          "name": "G#5",
          "midi": 80,
          "time": 198.18161999999924,
          "velocity": 0.7874015748031497,
          "duration": 0.227272499999998
        },
        {
          "name": "C#5",
          "midi": 73,
          "time": 198.40889249999924,
          "velocity": 0.7322834645669292,
          "duration": 0.227272499999998
        },
        {
          "name": "G#5",
          "midi": 80,
          "time": 198.40889249999924,
          "velocity": 0.7874015748031497,
          "duration": 0.227272499999998
        },
        {
          "name": "C#5",
          "midi": 73,
          "time": 198.63616499999924,
          "velocity": 0.7165354330708661,
          "duration": 0.227272499999998
        },
        {
          "name": "G#5",
          "midi": 80,
          "time": 198.63616499999924,
          "velocity": 0.7874015748031497,
          "duration": 0.227272499999998
        },
        {
          "name": "C#5",
          "midi": 73,
          "time": 198.86343749999924,
          "velocity": 0.6929133858267716,
          "duration": 0.227272499999998
        },
        {
          "name": "G#5",
          "midi": 80,
          "time": 198.86343749999924,
          "velocity": 0.7874015748031497,
          "duration": 0.227272499999998
        },
        {
          "name": "C#5",
          "midi": 73,
          "time": 199.09070999999923,
          "velocity": 0.7165354330708661,
          "duration": 0.227272499999998
        },
        {
          "name": "G#5",
          "midi": 80,
          "time": 199.09070999999923,
          "velocity": 0.7874015748031497,
          "duration": 0.227272499999998
        },
        {
          "name": "E5",
          "midi": 76,
          "time": 199.31798249999923,
          "velocity": 0.7874015748031497,
          "duration": 0.227272499999998
        },
        {
          "name": "E5",
          "midi": 76,
          "time": 199.54525499999923,
          "velocity": 0.7874015748031497,
          "duration": 0.227272499999998
        },
        {
          "name": "E5",
          "midi": 76,
          "time": 199.77252749999923,
          "velocity": 0.7874015748031497,
          "duration": 0.227272499999998
        },
        {
          "name": "C#5",
          "midi": 73,
          "time": 200.22707249999922,
          "velocity": 0.7874015748031497,
          "duration": 0.227272499999998
        },
        {
          "name": "F#5",
          "midi": 78,
          "time": 200.22707249999922,
          "velocity": 0.7874015748031497,
          "duration": 0.227272499999998
        },
        {
          "name": "C#5",
          "midi": 73,
          "time": 201.3634349999992,
          "velocity": 0.7874015748031497,
          "duration": 0.227272499999998
        },
        {
          "name": "E5",
          "midi": 76,
          "time": 201.5907074999992,
          "velocity": 0.7874015748031497,
          "duration": 0.227272499999998
        },
        {
          "name": "G#5",
          "midi": 80,
          "time": 201.8179799999992,
          "velocity": 0.7874015748031497,
          "duration": 0.227272499999998
        },
        {
          "name": "G#5",
          "midi": 80,
          "time": 202.0452524999992,
          "velocity": 0.7874015748031497,
          "duration": 0.227272499999998
        },
        {
          "name": "G#5",
          "midi": 80,
          "time": 202.2725249999992,
          "velocity": 0.7874015748031497,
          "duration": 0.227272499999998
        },
        {
          "name": "G#5",
          "midi": 80,
          "time": 202.4997974999992,
          "velocity": 0.7874015748031497,
          "duration": 0.227272499999998
        },
        {
          "name": "G#5",
          "midi": 80,
          "time": 202.7270699999992,
          "velocity": 0.7874015748031497,
          "duration": 0.227272499999998
        },
        {
          "name": "E5",
          "midi": 76,
          "time": 202.9543424999992,
          "velocity": 0.7874015748031497,
          "duration": 0.227272499999998
        },
        {
          "name": "E5",
          "midi": 76,
          "time": 203.1816149999992,
          "velocity": 0.7874015748031497,
          "duration": 0.227272499999998
        },
        {
          "name": "E5",
          "midi": 76,
          "time": 203.4088874999992,
          "velocity": 0.7874015748031497,
          "duration": 0.454544999999996
        },
        {
          "name": "F#5",
          "midi": 78,
          "time": 203.8634324999992,
          "velocity": 0.7874015748031497,
          "duration": 0.227272499999998
        },
        {
          "name": "C#5",
          "midi": 73,
          "time": 204.99979499999918,
          "velocity": 0.7874015748031497,
          "duration": 0.227272499999998
        },
        {
          "name": "E5",
          "midi": 76,
          "time": 205.22706749999918,
          "velocity": 0.7874015748031497,
          "duration": 0.227272499999998
        },
        {
          "name": "F#5",
          "midi": 78,
          "time": 205.45433999999918,
          "velocity": 0.7874015748031497,
          "duration": 0.227272499999998
        },
        {
          "name": "C#5",
          "midi": 73,
          "time": 205.45433999999918,
          "velocity": 0.6929133858267716,
          "duration": 0.227272499999998
        },
        {
          "name": "F#4",
          "midi": 66,
          "time": 205.45433999999918,
          "velocity": 0.6929133858267716,
          "duration": 0.227272499999998
        },
        {
          "name": "F#4",
          "midi": 66,
          "time": 205.90888499999917,
          "velocity": 0.7401574803149606,
          "duration": 0.227272499999998
        },
        {
          "name": "C#5",
          "midi": 73,
          "time": 205.90888499999917,
          "velocity": 0.7401574803149606,
          "duration": 0.227272499999998
        },
        {
          "name": "F#5",
          "midi": 78,
          "time": 205.90888499999917,
          "velocity": 0.7874015748031497,
          "duration": 0.227272499999998
        },
        {
          "name": "F#5",
          "midi": 78,
          "time": 206.36342999999917,
          "velocity": 0.7874015748031497,
          "duration": 0.227272499999998
        },
        {
          "name": "F#4",
          "midi": 66,
          "time": 206.36342999999917,
          "velocity": 0.6850393700787402,
          "duration": 0.227272499999998
        },
        {
          "name": "C#5",
          "midi": 73,
          "time": 206.36342999999917,
          "velocity": 0.6850393700787402,
          "duration": 0.227272499999998
        },
        {
          "name": "E5",
          "midi": 76,
          "time": 207.04524749999916,
          "velocity": 0.7874015748031497,
          "duration": 0.227272499999998
        },
        {
          "name": "E5",
          "midi": 76,
          "time": 207.27251999999916,
          "velocity": 0.7874015748031497,
          "duration": 0.227272499999998
        },
        {
          "name": "F#5",
          "midi": 78,
          "time": 207.49979249999916,
          "velocity": 0.7874015748031497,
          "duration": 0.227272499999998
        },
        {
          "name": "F#5",
          "midi": 78,
          "time": 207.72706499999916,
          "velocity": 0.7874015748031497,
          "duration": 0.227272499999998
        },
        {
          "name": "E5",
          "midi": 76,
          "time": 207.95433749999916,
          "velocity": 0.7874015748031497,
          "duration": 0.227272499999998
        },
        {
          "name": "C#5",
          "midi": 73,
          "time": 208.18160999999915,
          "velocity": 0.7874015748031497,
          "duration": 0.454544999999996
        },
        {
          "name": "F#5",
          "midi": 78,
          "time": 208.18160999999915,
          "velocity": 0.7874015748031497,
          "duration": 0.454544999999996
        },
        {
          "name": "C#5",
          "midi": 73,
          "time": 208.63615499999915,
          "velocity": 0.7874015748031497,
          "duration": 0.227272499999998
        },
        {
          "name": "C#5",
          "midi": 73,
          "time": 208.63615499999915,
          "velocity": 0.7874015748031497,
          "duration": 0.227272499999998
        },
        {
          "name": "E5",
          "midi": 76,
          "time": 208.86342749999915,
          "velocity": 0.7874015748031497,
          "duration": 0.227272499999998
        },
        {
          "name": "F#5",
          "midi": 78,
          "time": 209.09069999999915,
          "velocity": 0.7874015748031497,
          "duration": 0.227272499999998
        },
        {
          "name": "C#5",
          "midi": 73,
          "time": 209.09069999999915,
          "velocity": 0.7480314960629921,
          "duration": 0.227272499999998
        },
        {
          "name": "F#4",
          "midi": 66,
          "time": 209.09069999999915,
          "velocity": 0.7480314960629921,
          "duration": 0.227272499999998
        },
        {
          "name": "F#4",
          "midi": 66,
          "time": 209.54524499999914,
          "velocity": 0.6377952755905512,
          "duration": 0.227272499999998
        },
        {
          "name": "C#5",
          "midi": 73,
          "time": 209.54524499999914,
          "velocity": 0.6377952755905512,
          "duration": 0.227272499999998
        },
        {
          "name": "F#5",
          "midi": 78,
          "time": 209.54524499999914,
          "velocity": 0.7874015748031497,
          "duration": 0.227272499999998
        },
        {
          "name": "F#5",
          "midi": 78,
          "time": 209.99978999999914,
          "velocity": 0.7874015748031497,
          "duration": 0.227272499999998
        },
        {
          "name": "F#4",
          "midi": 66,
          "time": 209.99978999999914,
          "velocity": 0.7322834645669292,
          "duration": 0.227272499999998
        },
        {
          "name": "C#5",
          "midi": 73,
          "time": 209.99978999999914,
          "velocity": 0.7322834645669292,
          "duration": 0.227272499999998
        },
        {
          "name": "E5",
          "midi": 76,
          "time": 210.68160749999913,
          "velocity": 0.7874015748031497,
          "duration": 0.227272499999998
        },
        {
          "name": "E5",
          "midi": 76,
          "time": 210.90887999999913,
          "velocity": 0.7874015748031497,
          "duration": 0.227272499999998
        },
        {
          "name": "F#5",
          "midi": 78,
          "time": 211.13615249999913,
          "velocity": 0.7874015748031497,
          "duration": 0.227272499999998
        },
        {
          "name": "F#5",
          "midi": 78,
          "time": 211.36342499999913,
          "velocity": 0.7874015748031497,
          "duration": 0.227272499999998
        },
        {
          "name": "E5",
          "midi": 76,
          "time": 211.59069749999912,
          "velocity": 0.7874015748031497,
          "duration": 0.227272499999998
        },
        {
          "name": "F#5",
          "midi": 78,
          "time": 211.81796999999912,
          "velocity": 0.7874015748031497,
          "duration": 0.454544999999996
        },
        {
          "name": "C#5",
          "midi": 73,
          "time": 212.27251499999912,
          "velocity": 0.7874015748031497,
          "duration": 0.227272499999998
        },
        {
          "name": "C#5",
          "midi": 73,
          "time": 212.7270599999991,
          "velocity": 0.6850393700787402,
          "duration": 0.227272499999998
        },
        {
          "name": "G#5",
          "midi": 80,
          "time": 212.7270599999991,
          "velocity": 0.7874015748031497,
          "duration": 0.227272499999998
        },
        {
          "name": "C#5",
          "midi": 73,
          "time": 212.9543324999991,
          "velocity": 0.6771653543307087,
          "duration": 0.227272499999998
        },
        {
          "name": "G#5",
          "midi": 80,
          "time": 212.9543324999991,
          "velocity": 0.7874015748031497,
          "duration": 0.227272499999998
        },
        {
          "name": "C#5",
          "midi": 73,
          "time": 213.1816049999991,
          "velocity": 0.6771653543307087,
          "duration": 0.227272499999998
        },
        {
          "name": "G#5",
          "midi": 80,
          "time": 213.1816049999991,
          "velocity": 0.7874015748031497,
          "duration": 0.227272499999998
        },
        {
          "name": "C#5",
          "midi": 73,
          "time": 213.4088774999991,
          "velocity": 0.6929133858267716,
          "duration": 0.227272499999998
        },
        {
          "name": "G#5",
          "midi": 80,
          "time": 213.4088774999991,
          "velocity": 0.7874015748031497,
          "duration": 0.227272499999998
        },
        {
          "name": "C#5",
          "midi": 73,
          "time": 213.6361499999991,
          "velocity": 0.6771653543307087,
          "duration": 0.227272499999998
        },
        {
          "name": "G#5",
          "midi": 80,
          "time": 213.6361499999991,
          "velocity": 0.7874015748031497,
          "duration": 0.227272499999998
        },
        {
          "name": "E5",
          "midi": 76,
          "time": 213.8634224999991,
          "velocity": 0.7874015748031497,
          "duration": 0.227272499999998
        },
        {
          "name": "E5",
          "midi": 76,
          "time": 214.0906949999991,
          "velocity": 0.7874015748031497,
          "duration": 0.227272499999998
        },
        {
          "name": "E5",
          "midi": 76,
          "time": 214.3179674999991,
          "velocity": 0.7874015748031497,
          "duration": 0.227272499999998
        },
        {
          "name": "F#5",
          "midi": 78,
          "time": 214.7725124999991,
          "velocity": 0.7874015748031497,
          "duration": 0.227272499999998
        },
        {
          "name": "C#5",
          "midi": 73,
          "time": 215.90887499999909,
          "velocity": 0.7874015748031497,
          "duration": 0.227272499999998
        },
        {
          "name": "E5",
          "midi": 76,
          "time": 216.13614749999908,
          "velocity": 0.7874015748031497,
          "duration": 0.227272499999998
        },
        {
          "name": "G#5",
          "midi": 80,
          "time": 216.36341999999908,
          "velocity": 0.7874015748031497,
          "duration": 0.227272499999998
        },
        {
          "name": "G#5",
          "midi": 80,
          "time": 216.59069249999908,
          "velocity": 0.7874015748031497,
          "duration": 0.227272499999998
        },
        {
          "name": "G#5",
          "midi": 80,
          "time": 216.81796499999908,
          "velocity": 0.7874015748031497,
          "duration": 0.227272499999998
        },
        {
          "name": "G#5",
          "midi": 80,
          "time": 217.04523749999908,
          "velocity": 0.7874015748031497,
          "duration": 0.227272499999998
        },
        {
          "name": "G#5",
          "midi": 80,
          "time": 217.27250999999907,
          "velocity": 0.7874015748031497,
          "duration": 0.227272499999998
        },
        {
          "name": "E5",
          "midi": 76,
          "time": 217.49978249999907,
          "velocity": 0.7874015748031497,
          "duration": 0.227272499999998
        },
        {
          "name": "E5",
          "midi": 76,
          "time": 217.72705499999907,
          "velocity": 0.7874015748031497,
          "duration": 0.227272499999998
        },
        {
          "name": "E5",
          "midi": 76,
          "time": 217.95432749999907,
          "velocity": 0.7874015748031497,
          "duration": 0.454544999999996
        },
        {
          "name": "F#5",
          "midi": 78,
          "time": 218.40887249999906,
          "velocity": 0.7874015748031497,
          "duration": 0.227272499999998
        },
        {
          "name": "B4",
          "midi": 71,
          "time": 219.99977999999905,
          "velocity": 0.7874015748031497,
          "duration": 0.909089999999992
        },
        {
          "name": "F#4",
          "midi": 66,
          "time": 219.99977999999905,
          "velocity": 0.7874015748031497,
          "duration": 0.909089999999992
        },
        {
          "name": "C#5",
          "midi": 73,
          "time": 219.99977999999905,
          "velocity": 0.7874015748031497,
          "duration": 0.909089999999992
        },
        {
          "name": "B4",
          "midi": 71,
          "time": 220.90886999999904,
          "velocity": 0.7874015748031497,
          "duration": 0.454544999999996
        },
        {
          "name": "F#4",
          "midi": 66,
          "time": 220.90886999999904,
          "velocity": 0.7874015748031497,
          "duration": 0.454544999999996
        },
        {
          "name": "C#5",
          "midi": 73,
          "time": 221.36341499999904,
          "velocity": 0.7874015748031497,
          "duration": 0.227272499999998
        },
        {
          "name": "F#4",
          "midi": 66,
          "time": 221.59068749999904,
          "velocity": 0.7874015748031497,
          "duration": 0.227272499999998
        },
        {
          "name": "B4",
          "midi": 71,
          "time": 223.63613999999905,
          "velocity": 0.7874015748031497,
          "duration": 0.909089999999992
        },
        {
          "name": "F#4",
          "midi": 66,
          "time": 223.63613999999905,
          "velocity": 0.7874015748031497,
          "duration": 0.909089999999992
        },
        {
          "name": "C#5",
          "midi": 73,
          "time": 223.63613999999905,
          "velocity": 0.7874015748031497,
          "duration": 0.909089999999992
        },
        {
          "name": "F#4",
          "midi": 66,
          "time": 224.54522999999904,
          "velocity": 0.7874015748031497,
          "duration": 0.454544999999996
        },
        {
          "name": "B4",
          "midi": 71,
          "time": 224.54522999999904,
          "velocity": 0.7874015748031497,
          "duration": 0.454544999999996
        },
        {
          "name": "C#5",
          "midi": 73,
          "time": 224.99977499999903,
          "velocity": 0.7874015748031497,
          "duration": 0.227272499999998
        },
        {
          "name": "F#4",
          "midi": 66,
          "time": 225.22704749999903,
          "velocity": 0.7874015748031497,
          "duration": 0.227272499999998
        },
        {
          "name": "C#5",
          "midi": 73,
          "time": 227.27249999999904,
          "velocity": 0.7874015748031497,
          "duration": 0.227272499999998
        },
        {
          "name": "C#5",
          "midi": 73,
          "time": 227.27249999999904,
          "velocity": 0.7874015748031497,
          "duration": 0.909089999999992
        },
        {
          "name": "F#4",
          "midi": 66,
          "time": 227.27249999999904,
          "velocity": 0.7874015748031497,
          "duration": 0.909089999999992
        },
        {
          "name": "B4",
          "midi": 71,
          "time": 227.27249999999904,
          "velocity": 0.7874015748031497,
          "duration": 0.909089999999992
        },
        {
          "name": "B4",
          "midi": 71,
          "time": 228.18158999999903,
          "velocity": 0.7874015748031497,
          "duration": 0.454544999999996
        },
        {
          "name": "F#4",
          "midi": 66,
          "time": 228.18158999999903,
          "velocity": 0.7874015748031497,
          "duration": 0.454544999999996
        },
        {
          "name": "C#5",
          "midi": 73,
          "time": 228.63613499999903,
          "velocity": 0.7874015748031497,
          "duration": 0.227272499999998
        },
        {
          "name": "F#4",
          "midi": 66,
          "time": 228.86340749999903,
          "velocity": 0.7874015748031497,
          "duration": 0.454544999999996
        },
        {
          "name": "B4",
          "midi": 71,
          "time": 228.86340749999903,
          "velocity": 0.7874015748031497,
          "duration": 0.454544999999996
        }
      ],
      "controlChanges": {
        "6": [
          {
            "number": 6,
            "time": 0,
            "value": 0.09448818897637795
          },
          {
            "number": 6,
            "time": 0,
            "value": 0.09448818897637795
          },
          {
            "number": 6,
            "time": 0,
            "value": 0.09448818897637795
          },
          {
            "number": 6,
            "time": 233.863402499999,
            "value": 0.09448818897637795
          },
          {
            "number": 6,
            "time": 233.868137343749,
            "value": 0.09448818897637795
          },
          {
            "number": 6,
            "time": 233.868137343749,
            "value": 0.09448818897637795
          }
        ],
        "7": [
          {
            "number": 7,
            "time": 0,
            "value": 0.7874015748031497
          },
          {
            "number": 7,
            "time": 0,
            "value": 0.7874015748031497
          },
          {
            "number": 7,
            "time": 0,
            "value": 0.7874015748031497
          },
          {
            "number": 7,
            "time": 0,
            "value": 0.7874015748031497
          },
          {
            "number": 7,
            "time": 233.863402499999,
            "value": 0.7874015748031497
          },
          {
            "number": 7,
            "time": 233.868137343749,
            "value": 0.7874015748031497
          },
          {
            "number": 7,
            "time": 233.868137343749,
            "value": 0.7874015748031497
          }
        ],
        "10": [
          {
            "number": 10,
            "time": 0,
            "value": 0.5039370078740157
          },
          {
            "number": 10,
            "time": 0,
            "value": 0.5039370078740157
          },
          {
            "number": 10,
            "time": 0,
            "value": 0.5039370078740157
          },
          {
            "number": 10,
            "time": 0,
            "value": 0.5039370078740157
          },
          {
            "number": 10,
            "time": 233.863402499999,
            "value": 0.5039370078740157
          },
          {
            "number": 10,
            "time": 233.868137343749,
            "value": 0.5039370078740157
          },
          {
            "number": 10,
            "time": 233.868137343749,
            "value": 0.5039370078740157
          }
        ],
        "100": [
          {
            "number": 100,
            "time": 0,
            "value": 0
          },
          {
            "number": 100,
            "time": 0,
            "value": 0
          },
          {
            "number": 100,
            "time": 0,
            "value": 0
          },
          {
            "number": 100,
            "time": 233.863402499999,
            "value": 0
          },
          {
            "number": 100,
            "time": 233.868137343749,
            "value": 0
          },
          {
            "number": 100,
            "time": 233.868137343749,
            "value": 0
          }
        ],
        "101": [
          {
            "number": 101,
            "time": 0,
            "value": 0
          },
          {
            "number": 101,
            "time": 0,
            "value": 0
          },
          {
            "number": 101,
            "time": 0,
            "value": 0
          },
          {
            "number": 101,
            "time": 233.863402499999,
            "value": 0
          },
          {
            "number": 101,
            "time": 233.868137343749,
            "value": 0
          },
          {
            "number": 101,
            "time": 233.868137343749,
            "value": 0
          }
        ]
      },
      "id": 0,
      "name": "MIDI out #2",
      "channelNumber": 1,
      "isPercussion": false
    },
    {
      "startTime": 0,
      "duration": 233.40885749999856,
      "length": 1062,
      "notes": [
        {
          "name": "D3",
          "midi": 50,
          "time": 0,
          "velocity": 0.7874015748031497,
          "duration": 3.6363600000000003
        },
        {
          "name": "F#3",
          "midi": 54,
          "time": 0,
          "velocity": 0.7874015748031497,
          "duration": 3.6363600000000003
        },
        {
          "name": "A3",
          "midi": 57,
          "time": 0,
          "velocity": 0.7874015748031497,
          "duration": 3.6363600000000003
        },
        {
          "name": "D2",
          "midi": 38,
          "time": 0,
          "velocity": 0.7874015748031497,
          "duration": 3.6363600000000003
        },
        {
          "name": "B3",
          "midi": 59,
          "time": 3.6363600000000003,
          "velocity": 0.7874015748031497,
          "duration": 3.6363600000000003
        },
        {
          "name": "F#3",
          "midi": 54,
          "time": 3.6363600000000003,
          "velocity": 0.7874015748031497,
          "duration": 3.6363600000000003
        },
        {
          "name": "B2",
          "midi": 47,
          "time": 3.6363600000000003,
          "velocity": 0.7874015748031497,
          "duration": 3.6363600000000003
        },
        {
          "name": "B1",
          "midi": 35,
          "time": 3.6363600000000003,
          "velocity": 0.7874015748031497,
          "duration": 3.6363600000000003
        },
        {
          "name": "G#3",
          "midi": 56,
          "time": 7.2727200000000005,
          "velocity": 0.7874015748031497,
          "duration": 3.6363600000000007
        },
        {
          "name": "E3",
          "midi": 52,
          "time": 7.2727200000000005,
          "velocity": 0.7874015748031497,
          "duration": 3.6363600000000007
        },
        {
          "name": "C#3",
          "midi": 49,
          "time": 7.2727200000000005,
          "velocity": 0.7874015748031497,
          "duration": 3.6363600000000007
        },
        {
          "name": "C#2",
          "midi": 37,
          "time": 7.2727200000000005,
          "velocity": 0.7874015748031497,
          "duration": 3.6363600000000007
        },
        {
          "name": "E4",
          "midi": 64,
          "time": 10.909080000000001,
          "velocity": 0.7874015748031497,
          "duration": 3.63636
        },
        {
          "name": "C#4",
          "midi": 61,
          "time": 10.909080000000001,
          "velocity": 0.7874015748031497,
          "duration": 3.63636
        },
        {
          "name": "A3",
          "midi": 57,
          "time": 10.909080000000001,
          "velocity": 0.7874015748031497,
          "duration": 3.63636
        },
        {
          "name": "F#3",
          "midi": 54,
          "time": 10.909080000000001,
          "velocity": 0.7874015748031497,
          "duration": 3.63636
        },
        {
          "name": "F#2",
          "midi": 42,
          "time": 10.909080000000001,
          "velocity": 0.7874015748031497,
          "duration": 3.63636
        },
        {
          "name": "D3",
          "midi": 50,
          "time": 14.545440000000001,
          "velocity": 0.7874015748031497,
          "duration": 0.22727249999999977
        },
        {
          "name": "D2",
          "midi": 38,
          "time": 14.545440000000001,
          "velocity": 0.7874015748031497,
          "duration": 0.22727249999999977
        },
        {
          "name": "D3",
          "midi": 50,
          "time": 14.7727125,
          "velocity": 0.7874015748031497,
          "duration": 0.22727249999999977
        },
        {
          "name": "D3",
          "midi": 50,
          "time": 14.999985,
          "velocity": 0.7874015748031497,
          "duration": 0.22727249999999977
        },
        {
          "name": "D2",
          "midi": 38,
          "time": 15.2272575,
          "velocity": 0.7874015748031497,
          "duration": 0.22727249999999977
        },
        {
          "name": "D3",
          "midi": 50,
          "time": 15.45453,
          "velocity": 0.7874015748031497,
          "duration": 0.22727249999999977
        },
        {
          "name": "D3",
          "midi": 50,
          "time": 15.6818025,
          "velocity": 0.7874015748031497,
          "duration": 0.22727249999999977
        },
        {
          "name": "D3",
          "midi": 50,
          "time": 15.909075,
          "velocity": 0.7874015748031497,
          "duration": 0.22727249999999977
        },
        {
          "name": "D2",
          "midi": 38,
          "time": 15.909075,
          "velocity": 0.7874015748031497,
          "duration": 0.22727249999999977
        },
        {
          "name": "D2",
          "midi": 38,
          "time": 16.1363475,
          "velocity": 0.7874015748031497,
          "duration": 0.22727250000000154
        },
        {
          "name": "D2",
          "midi": 38,
          "time": 16.36362,
          "velocity": 0.7874015748031497,
          "duration": 0.22727250000000154
        },
        {
          "name": "D3",
          "midi": 50,
          "time": 16.36362,
          "velocity": 0.7874015748031497,
          "duration": 0.22727250000000154
        },
        {
          "name": "D3",
          "midi": 50,
          "time": 16.590892500000002,
          "velocity": 0.7874015748031497,
          "duration": 0.22727250000000154
        },
        {
          "name": "D3",
          "midi": 50,
          "time": 16.818165000000004,
          "velocity": 0.7874015748031497,
          "duration": 0.22727250000000154
        },
        {
          "name": "D2",
          "midi": 38,
          "time": 17.045437500000006,
          "velocity": 0.7874015748031497,
          "duration": 0.22727250000000154
        },
        {
          "name": "D3",
          "midi": 50,
          "time": 17.272710000000007,
          "velocity": 0.7874015748031497,
          "duration": 0.22727250000000154
        },
        {
          "name": "D3",
          "midi": 50,
          "time": 17.49998250000001,
          "velocity": 0.7874015748031497,
          "duration": 0.22727250000000154
        },
        {
          "name": "D3",
          "midi": 50,
          "time": 17.72725500000001,
          "velocity": 0.7874015748031497,
          "duration": 0.22727250000000154
        },
        {
          "name": "D2",
          "midi": 38,
          "time": 17.72725500000001,
          "velocity": 0.7874015748031497,
          "duration": 0.22727250000000154
        },
        {
          "name": "D2",
          "midi": 38,
          "time": 17.95452750000001,
          "velocity": 0.7874015748031497,
          "duration": 0.22727250000000154
        },
        {
          "name": "B1",
          "midi": 35,
          "time": 18.181800000000013,
          "velocity": 0.7874015748031497,
          "duration": 0.22727250000000154
        },
        {
          "name": "B2",
          "midi": 47,
          "time": 18.181800000000013,
          "velocity": 0.7874015748031497,
          "duration": 0.22727250000000154
        },
        {
          "name": "B2",
          "midi": 47,
          "time": 18.409072500000015,
          "velocity": 0.7874015748031497,
          "duration": 0.22727250000000154
        },
        {
          "name": "B2",
          "midi": 47,
          "time": 18.636345000000016,
          "velocity": 0.7874015748031497,
          "duration": 0.22727250000000154
        },
        {
          "name": "B1",
          "midi": 35,
          "time": 18.863617500000018,
          "velocity": 0.7874015748031497,
          "duration": 0.22727250000000154
        },
        {
          "name": "B2",
          "midi": 47,
          "time": 19.09089000000002,
          "velocity": 0.7874015748031497,
          "duration": 0.22727250000000154
        },
        {
          "name": "B2",
          "midi": 47,
          "time": 19.31816250000002,
          "velocity": 0.7874015748031497,
          "duration": 0.22727250000000154
        },
        {
          "name": "B2",
          "midi": 47,
          "time": 19.545435000000023,
          "velocity": 0.7874015748031497,
          "duration": 0.22727250000000154
        },
        {
          "name": "B1",
          "midi": 35,
          "time": 19.545435000000023,
          "velocity": 0.7874015748031497,
          "duration": 0.22727250000000154
        },
        {
          "name": "B1",
          "midi": 35,
          "time": 19.772707500000024,
          "velocity": 0.7874015748031497,
          "duration": 0.22727250000000154
        },
        {
          "name": "B2",
          "midi": 47,
          "time": 19.999980000000026,
          "velocity": 0.7874015748031497,
          "duration": 0.22727250000000154
        },
        {
          "name": "B1",
          "midi": 35,
          "time": 19.999980000000026,
          "velocity": 0.7874015748031497,
          "duration": 0.22727250000000154
        },
        {
          "name": "B2",
          "midi": 47,
          "time": 20.227252500000027,
          "velocity": 0.7874015748031497,
          "duration": 0.22727250000000154
        },
        {
          "name": "B2",
          "midi": 47,
          "time": 20.45452500000003,
          "velocity": 0.7874015748031497,
          "duration": 0.22727250000000154
        },
        {
          "name": "B1",
          "midi": 35,
          "time": 20.68179750000003,
          "velocity": 0.7874015748031497,
          "duration": 0.22727250000000154
        },
        {
          "name": "B2",
          "midi": 47,
          "time": 20.909070000000032,
          "velocity": 0.7874015748031497,
          "duration": 0.22727250000000154
        },
        {
          "name": "B2",
          "midi": 47,
          "time": 21.136342500000033,
          "velocity": 0.7874015748031497,
          "duration": 0.22727250000000154
        },
        {
          "name": "B2",
          "midi": 47,
          "time": 21.363615000000035,
          "velocity": 0.7874015748031497,
          "duration": 0.22727250000000154
        },
        {
          "name": "B1",
          "midi": 35,
          "time": 21.363615000000035,
          "velocity": 0.7874015748031497,
          "duration": 0.22727250000000154
        },
        {
          "name": "B1",
          "midi": 35,
          "time": 21.590887500000036,
          "velocity": 0.7874015748031497,
          "duration": 0.22727250000000154
        },
        {
          "name": "C#3",
          "midi": 49,
          "time": 21.818160000000038,
          "velocity": 0.7874015748031497,
          "duration": 0.22727250000000154
        },
        {
          "name": "C#2",
          "midi": 37,
          "time": 21.818160000000038,
          "velocity": 0.7874015748031497,
          "duration": 0.22727250000000154
        },
        {
          "name": "C#3",
          "midi": 49,
          "time": 22.04543250000004,
          "velocity": 0.7874015748031497,
          "duration": 0.22727250000000154
        },
        {
          "name": "C#3",
          "midi": 49,
          "time": 22.27270500000004,
          "velocity": 0.7874015748031497,
          "duration": 0.22727250000000154
        },
        {
          "name": "C#2",
          "midi": 37,
          "time": 22.499977500000043,
          "velocity": 0.7874015748031497,
          "duration": 0.22727250000000154
        },
        {
          "name": "C#3",
          "midi": 49,
          "time": 22.727250000000044,
          "velocity": 0.7874015748031497,
          "duration": 0.22727250000000154
        },
        {
          "name": "C#3",
          "midi": 49,
          "time": 22.954522500000046,
          "velocity": 0.7874015748031497,
          "duration": 0.22727250000000154
        },
        {
          "name": "C#2",
          "midi": 37,
          "time": 23.181795000000047,
          "velocity": 0.7874015748031497,
          "duration": 0.22727250000000154
        },
        {
          "name": "C#3",
          "midi": 49,
          "time": 23.181795000000047,
          "velocity": 0.7874015748031497,
          "duration": 0.22727250000000154
        },
        {
          "name": "C#2",
          "midi": 37,
          "time": 23.40906750000005,
          "velocity": 0.7874015748031497,
          "duration": 0.22727250000000154
        },
        {
          "name": "C#2",
          "midi": 37,
          "time": 23.63634000000005,
          "velocity": 0.7874015748031497,
          "duration": 0.22727250000000154
        },
        {
          "name": "C#3",
          "midi": 49,
          "time": 23.63634000000005,
          "velocity": 0.7874015748031497,
          "duration": 0.22727250000000154
        },
        {
          "name": "C#3",
          "midi": 49,
          "time": 23.863612500000052,
          "velocity": 0.7874015748031497,
          "duration": 0.22727250000000154
        },
        {
          "name": "C#3",
          "midi": 49,
          "time": 24.090885000000053,
          "velocity": 0.7874015748031497,
          "duration": 0.22727250000000154
        },
        {
          "name": "C#2",
          "midi": 37,
          "time": 24.318157500000055,
          "velocity": 0.7874015748031497,
          "duration": 0.22727250000000154
        },
        {
          "name": "C#3",
          "midi": 49,
          "time": 24.545430000000056,
          "velocity": 0.7874015748031497,
          "duration": 0.22727250000000154
        },
        {
          "name": "C#3",
          "midi": 49,
          "time": 24.772702500000058,
          "velocity": 0.7874015748031497,
          "duration": 0.22727250000000154
        },
        {
          "name": "C#2",
          "midi": 37,
          "time": 24.99997500000006,
          "velocity": 0.7874015748031497,
          "duration": 0.22727250000000154
        },
        {
          "name": "C#3",
          "midi": 49,
          "time": 24.99997500000006,
          "velocity": 0.7874015748031497,
          "duration": 0.22727250000000154
        },
        {
          "name": "C#2",
          "midi": 37,
          "time": 25.22724750000006,
          "velocity": 0.7874015748031497,
          "duration": 0.22727250000000154
        },
        {
          "name": "F#2",
          "midi": 42,
          "time": 25.454520000000063,
          "velocity": 0.7874015748031497,
          "duration": 0.22727250000000154
        },
        {
          "name": "F#3",
          "midi": 54,
          "time": 25.454520000000063,
          "velocity": 0.7874015748031497,
          "duration": 0.22727250000000154
        },
        {
          "name": "F#3",
          "midi": 54,
          "time": 25.681792500000064,
          "velocity": 0.7874015748031497,
          "duration": 0.22727250000000154
        },
        {
          "name": "F#3",
          "midi": 54,
          "time": 25.909065000000066,
          "velocity": 0.7874015748031497,
          "duration": 0.22727250000000154
        },
        {
          "name": "F#2",
          "midi": 42,
          "time": 26.136337500000067,
          "velocity": 0.7874015748031497,
          "duration": 0.22727250000000154
        },
        {
          "name": "F#3",
          "midi": 54,
          "time": 26.36361000000007,
          "velocity": 0.7874015748031497,
          "duration": 0.22727250000000154
        },
        {
          "name": "F#3",
          "midi": 54,
          "time": 26.59088250000007,
          "velocity": 0.7874015748031497,
          "duration": 0.22727250000000154
        },
        {
          "name": "F#3",
          "midi": 54,
          "time": 26.818155000000072,
          "velocity": 0.7874015748031497,
          "duration": 0.22727250000000154
        },
        {
          "name": "F#2",
          "midi": 42,
          "time": 26.818155000000072,
          "velocity": 0.7874015748031497,
          "duration": 0.22727250000000154
        },
        {
          "name": "F#2",
          "midi": 42,
          "time": 27.045427500000073,
          "velocity": 0.7874015748031497,
          "duration": 0.22727250000000154
        },
        {
          "name": "F#3",
          "midi": 54,
          "time": 27.272700000000075,
          "velocity": 0.7874015748031497,
          "duration": 0.22727250000000154
        },
        {
          "name": "F#2",
          "midi": 42,
          "time": 27.272700000000075,
          "velocity": 0.7874015748031497,
          "duration": 0.22727250000000154
        },
        {
          "name": "F#3",
          "midi": 54,
          "time": 27.499972500000077,
          "velocity": 0.7874015748031497,
          "duration": 0.22727250000000154
        },
        {
          "name": "F#3",
          "midi": 54,
          "time": 27.727245000000078,
          "velocity": 0.7874015748031497,
          "duration": 0.22727250000000154
        },
        {
          "name": "F#2",
          "midi": 42,
          "time": 27.95451750000008,
          "velocity": 0.7874015748031497,
          "duration": 0.22727250000000154
        },
        {
          "name": "F#3",
          "midi": 54,
          "time": 28.18179000000008,
          "velocity": 0.7874015748031497,
          "duration": 0.22727250000000154
        },
        {
          "name": "F#3",
          "midi": 54,
          "time": 28.409062500000083,
          "velocity": 0.7874015748031497,
          "duration": 0.22727250000000154
        },
        {
          "name": "F#3",
          "midi": 54,
          "time": 28.636335000000084,
          "velocity": 0.7874015748031497,
          "duration": 0.22727250000000154
        },
        {
          "name": "F#2",
          "midi": 42,
          "time": 28.636335000000084,
          "velocity": 0.7874015748031497,
          "duration": 0.22727250000000154
        },
        {
          "name": "F#2",
          "midi": 42,
          "time": 28.863607500000086,
          "velocity": 0.7874015748031497,
          "duration": 0.22727250000000154
        },
        {
          "name": "D2",
          "midi": 38,
          "time": 29.090880000000087,
          "velocity": 0.7874015748031497,
          "duration": 0.22727250000000154
        },
        {
          "name": "D3",
          "midi": 50,
          "time": 29.31815250000009,
          "velocity": 0.7874015748031497,
          "duration": 0.22727250000000154
        },
        {
          "name": "F#4",
          "midi": 66,
          "time": 29.54542500000009,
          "velocity": 0.7874015748031497,
          "duration": 0.22727250000000154
        },
        {
          "name": "D4",
          "midi": 62,
          "time": 29.54542500000009,
          "velocity": 0.7874015748031497,
          "duration": 0.22727250000000154
        },
        {
          "name": "A3",
          "midi": 57,
          "time": 29.54542500000009,
          "velocity": 0.7874015748031497,
          "duration": 0.22727250000000154
        },
        {
          "name": "D3",
          "midi": 50,
          "time": 29.772697500000092,
          "velocity": 0.7874015748031497,
          "duration": 0.22727250000000154
        },
        {
          "name": "D2",
          "midi": 38,
          "time": 29.999970000000094,
          "velocity": 0.7874015748031497,
          "duration": 0.22727250000000154
        },
        {
          "name": "D3",
          "midi": 50,
          "time": 29.999970000000094,
          "velocity": 0.7874015748031497,
          "duration": 0.22727250000000154
        },
        {
          "name": "D3",
          "midi": 50,
          "time": 30.227242500000095,
          "velocity": 0.7874015748031497,
          "duration": 0.22727250000000154
        },
        {
          "name": "D3",
          "midi": 50,
          "time": 30.454515000000097,
          "velocity": 0.7874015748031497,
          "duration": 0.22727250000000154
        },
        {
          "name": "D2",
          "midi": 38,
          "time": 30.681787500000098,
          "velocity": 0.7874015748031497,
          "duration": 0.22727250000000154
        },
        {
          "name": "D2",
          "midi": 38,
          "time": 30.9090600000001,
          "velocity": 0.7874015748031497,
          "duration": 0.22727250000000154
        },
        {
          "name": "D3",
          "midi": 50,
          "time": 31.1363325000001,
          "velocity": 0.7874015748031497,
          "duration": 0.22727250000000154
        },
        {
          "name": "F#4",
          "midi": 66,
          "time": 31.363605000000103,
          "velocity": 0.7874015748031497,
          "duration": 0.22727250000000154
        },
        {
          "name": "D4",
          "midi": 62,
          "time": 31.363605000000103,
          "velocity": 0.7874015748031497,
          "duration": 0.22727250000000154
        },
        {
          "name": "A3",
          "midi": 57,
          "time": 31.363605000000103,
          "velocity": 0.7874015748031497,
          "duration": 0.22727250000000154
        },
        {
          "name": "D3",
          "midi": 50,
          "time": 31.590877500000104,
          "velocity": 0.7874015748031497,
          "duration": 0.22727250000000154
        },
        {
          "name": "D3",
          "midi": 50,
          "time": 31.818150000000106,
          "velocity": 0.7874015748031497,
          "duration": 0.22727250000000154
        },
        {
          "name": "D2",
          "midi": 38,
          "time": 31.818150000000106,
          "velocity": 0.7874015748031497,
          "duration": 0.22727250000000154
        },
        {
          "name": "F#4",
          "midi": 66,
          "time": 32.04542250000011,
          "velocity": 0.7874015748031497,
          "duration": 0.227272499999998
        },
        {
          "name": "D4",
          "midi": 62,
          "time": 32.04542250000011,
          "velocity": 0.7874015748031497,
          "duration": 0.227272499999998
        },
        {
          "name": "A3",
          "midi": 57,
          "time": 32.04542250000011,
          "velocity": 0.7874015748031497,
          "duration": 0.227272499999998
        },
        {
          "name": "D3",
          "midi": 50,
          "time": 32.272695000000105,
          "velocity": 0.7874015748031497,
          "duration": 0.227272499999998
        },
        {
          "name": "D2",
          "midi": 38,
          "time": 32.4999675000001,
          "velocity": 0.7874015748031497,
          "duration": 0.227272499999998
        },
        {
          "name": "B1",
          "midi": 35,
          "time": 32.7272400000001,
          "velocity": 0.7874015748031497,
          "duration": 0.227272499999998
        },
        {
          "name": "B2",
          "midi": 47,
          "time": 32.9545125000001,
          "velocity": 0.7874015748031497,
          "duration": 0.227272499999998
        },
        {
          "name": "F#3",
          "midi": 54,
          "time": 33.1817850000001,
          "velocity": 0.7874015748031497,
          "duration": 0.227272499999998
        },
        {
          "name": "B3",
          "midi": 59,
          "time": 33.409057500000095,
          "velocity": 0.7874015748031497,
          "duration": 0.227272499999998
        },
        {
          "name": "B2",
          "midi": 47,
          "time": 33.409057500000095,
          "velocity": 0.7874015748031497,
          "duration": 0.227272499999998
        },
        {
          "name": "B1",
          "midi": 35,
          "time": 33.63633000000009,
          "velocity": 0.7874015748031497,
          "duration": 0.227272499999998
        },
        {
          "name": "B2",
          "midi": 47,
          "time": 33.63633000000009,
          "velocity": 0.7874015748031497,
          "duration": 0.227272499999998
        },
        {
          "name": "F#3",
          "midi": 54,
          "time": 33.63633000000009,
          "velocity": 0.7874015748031497,
          "duration": 0.227272499999998
        },
        {
          "name": "B3",
          "midi": 59,
          "time": 33.63633000000009,
          "velocity": 0.7874015748031497,
          "duration": 0.227272499999998
        },
        {
          "name": "D4",
          "midi": 62,
          "time": 33.63633000000009,
          "velocity": 0.7874015748031497,
          "duration": 0.227272499999998
        },
        {
          "name": "B2",
          "midi": 47,
          "time": 33.86360250000009,
          "velocity": 0.7874015748031497,
          "duration": 0.227272499999998
        },
        {
          "name": "B2",
          "midi": 47,
          "time": 34.09087500000009,
          "velocity": 0.7874015748031497,
          "duration": 0.227272499999998
        },
        {
          "name": "B1",
          "midi": 35,
          "time": 34.31814750000009,
          "velocity": 0.7874015748031497,
          "duration": 0.227272499999998
        },
        {
          "name": "B1",
          "midi": 35,
          "time": 34.545420000000085,
          "velocity": 0.7874015748031497,
          "duration": 0.227272499999998
        },
        {
          "name": "B2",
          "midi": 47,
          "time": 34.77269250000008,
          "velocity": 0.7874015748031497,
          "duration": 0.227272499999998
        },
        {
          "name": "F#3",
          "midi": 54,
          "time": 34.99996500000008,
          "velocity": 0.7874015748031497,
          "duration": 0.227272499999998
        },
        {
          "name": "B3",
          "midi": 59,
          "time": 34.99996500000008,
          "velocity": 0.7874015748031497,
          "duration": 0.227272499999998
        },
        {
          "name": "D4",
          "midi": 62,
          "time": 34.99996500000008,
          "velocity": 0.7874015748031497,
          "duration": 0.227272499999998
        },
        {
          "name": "B1",
          "midi": 35,
          "time": 34.99996500000008,
          "velocity": 0.7874015748031497,
          "duration": 0.227272499999998
        },
        {
          "name": "B2",
          "midi": 47,
          "time": 35.22723750000008,
          "velocity": 0.7874015748031497,
          "duration": 0.227272499999998
        },
        {
          "name": "B2",
          "midi": 47,
          "time": 35.45451000000008,
          "velocity": 0.7874015748031497,
          "duration": 0.227272499999998
        },
        {
          "name": "B1",
          "midi": 35,
          "time": 35.45451000000008,
          "velocity": 0.7874015748031497,
          "duration": 0.227272499999998
        },
        {
          "name": "F#3",
          "midi": 54,
          "time": 35.681782500000075,
          "velocity": 0.7874015748031497,
          "duration": 0.227272499999998
        },
        {
          "name": "B3",
          "midi": 59,
          "time": 35.681782500000075,
          "velocity": 0.7874015748031497,
          "duration": 0.227272499999998
        },
        {
          "name": "D4",
          "midi": 62,
          "time": 35.681782500000075,
          "velocity": 0.7874015748031497,
          "duration": 0.227272499999998
        },
        {
          "name": "B2",
          "midi": 47,
          "time": 35.90905500000007,
          "velocity": 0.7874015748031497,
          "duration": 0.227272499999998
        },
        {
          "name": "B1",
          "midi": 35,
          "time": 36.13632750000007,
          "velocity": 0.7874015748031497,
          "duration": 0.227272499999998
        },
        {
          "name": "C#2",
          "midi": 37,
          "time": 36.36360000000007,
          "velocity": 0.7874015748031497,
          "duration": 0.227272499999998
        },
        {
          "name": "C#3",
          "midi": 49,
          "time": 36.59087250000007,
          "velocity": 0.7874015748031497,
          "duration": 0.227272499999998
        },
        {
          "name": "B3",
          "midi": 59,
          "time": 36.818145000000065,
          "velocity": 0.7874015748031497,
          "duration": 0.227272499999998
        },
        {
          "name": "C#4",
          "midi": 61,
          "time": 36.818145000000065,
          "velocity": 0.7874015748031497,
          "duration": 0.227272499999998
        },
        {
          "name": "G#3",
          "midi": 56,
          "time": 36.818145000000065,
          "velocity": 0.7874015748031497,
          "duration": 0.227272499999998
        },
        {
          "name": "C#3",
          "midi": 49,
          "time": 37.04541750000006,
          "velocity": 0.7874015748031497,
          "duration": 0.227272499999998
        },
        {
          "name": "C#3",
          "midi": 49,
          "time": 37.27269000000006,
          "velocity": 0.7874015748031497,
          "duration": 0.227272499999998
        },
        {
          "name": "C#2",
          "midi": 37,
          "time": 37.27269000000006,
          "velocity": 0.7874015748031497,
          "duration": 0.227272499999998
        },
        {
          "name": "C#3",
          "midi": 49,
          "time": 37.49996250000006,
          "velocity": 0.7874015748031497,
          "duration": 0.227272499999998
        },
        {
          "name": "C#3",
          "midi": 49,
          "time": 37.72723500000006,
          "velocity": 0.7874015748031497,
          "duration": 0.227272499999998
        },
        {
          "name": "C#3",
          "midi": 49,
          "time": 37.954507500000055,
          "velocity": 0.7874015748031497,
          "duration": 0.227272499999998
        },
        {
          "name": "C#2",
          "midi": 37,
          "time": 37.954507500000055,
          "velocity": 0.7874015748031497,
          "duration": 0.227272499999998
        },
        {
          "name": "C#2",
          "midi": 37,
          "time": 38.18178000000005,
          "velocity": 0.7874015748031497,
          "duration": 0.227272499999998
        },
        {
          "name": "C#3",
          "midi": 49,
          "time": 38.40905250000005,
          "velocity": 0.7874015748031497,
          "duration": 0.227272499999998
        },
        {
          "name": "G#3",
          "midi": 56,
          "time": 38.63632500000005,
          "velocity": 0.7874015748031497,
          "duration": 0.227272499999998
        },
        {
          "name": "B3",
          "midi": 59,
          "time": 38.63632500000005,
          "velocity": 0.7874015748031497,
          "duration": 0.227272499999998
        },
        {
          "name": "C#4",
          "midi": 61,
          "time": 38.63632500000005,
          "velocity": 0.7874015748031497,
          "duration": 0.227272499999998
        },
        {
          "name": "C#3",
          "midi": 49,
          "time": 38.86359750000005,
          "velocity": 0.7874015748031497,
          "duration": 0.227272499999998
        },
        {
          "name": "C#2",
          "midi": 37,
          "time": 39.090870000000045,
          "velocity": 0.7874015748031497,
          "duration": 0.227272499999998
        },
        {
          "name": "C#3",
          "midi": 49,
          "time": 39.090870000000045,
          "velocity": 0.7874015748031497,
          "duration": 0.227272499999998
        },
        {
          "name": "B3",
          "midi": 59,
          "time": 39.31814250000004,
          "velocity": 0.7874015748031497,
          "duration": 0.227272499999998
        },
        {
          "name": "C#4",
          "midi": 61,
          "time": 39.31814250000004,
          "velocity": 0.7874015748031497,
          "duration": 0.227272499999998
        },
        {
          "name": "G#3",
          "midi": 56,
          "time": 39.31814250000004,
          "velocity": 0.7874015748031497,
          "duration": 0.227272499999998
        },
        {
          "name": "C#3",
          "midi": 49,
          "time": 39.54541500000004,
          "velocity": 0.7874015748031497,
          "duration": 0.227272499999998
        },
        {
          "name": "C#2",
          "midi": 37,
          "time": 39.77268750000004,
          "velocity": 0.7874015748031497,
          "duration": 0.227272499999998
        },
        {
          "name": "F#2",
          "midi": 42,
          "time": 39.99996000000004,
          "velocity": 0.7874015748031497,
          "duration": 0.227272499999998
        },
        {
          "name": "F#3",
          "midi": 54,
          "time": 40.227232500000035,
          "velocity": 0.7874015748031497,
          "duration": 0.227272499999998
        },
        {
          "name": "F#2",
          "midi": 42,
          "time": 40.45450500000003,
          "velocity": 0.7874015748031497,
          "duration": 0.227272499999998
        },
        {
          "name": "F#3",
          "midi": 54,
          "time": 40.68177750000003,
          "velocity": 0.7874015748031497,
          "duration": 0.227272499999998
        },
        {
          "name": "F#3",
          "midi": 54,
          "time": 40.90905000000003,
          "velocity": 0.7874015748031497,
          "duration": 0.227272499999998
        },
        {
          "name": "F#2",
          "midi": 42,
          "time": 40.90905000000003,
          "velocity": 0.7874015748031497,
          "duration": 0.227272499999998
        },
        {
          "name": "F#3",
          "midi": 54,
          "time": 41.13632250000003,
          "velocity": 0.7874015748031497,
          "duration": 0.227272499999998
        },
        {
          "name": "F#3",
          "midi": 54,
          "time": 41.363595000000025,
          "velocity": 0.7874015748031497,
          "duration": 0.227272499999998
        },
        {
          "name": "F#2",
          "midi": 42,
          "time": 41.59086750000002,
          "velocity": 0.7874015748031497,
          "duration": 0.227272499999998
        },
        {
          "name": "F#2",
          "midi": 42,
          "time": 41.81814000000002,
          "velocity": 0.8346456692913385,
          "duration": 0.227272499999998
        },
        {
          "name": "F#1",
          "midi": 30,
          "time": 41.81814000000002,
          "velocity": 0.8346456692913385,
          "duration": 0.227272499999998
        },
        {
          "name": "F#2",
          "midi": 42,
          "time": 42.04541250000002,
          "velocity": 0.8661417322834646,
          "duration": 0.227272499999998
        },
        {
          "name": "F#1",
          "midi": 30,
          "time": 42.04541250000002,
          "velocity": 0.8661417322834646,
          "duration": 0.227272499999998
        },
        {
          "name": "F#2",
          "midi": 42,
          "time": 42.27268500000002,
          "velocity": 0.889763779527559,
          "duration": 0.227272499999998
        },
        {
          "name": "F#1",
          "midi": 30,
          "time": 42.27268500000002,
          "velocity": 0.889763779527559,
          "duration": 0.227272499999998
        },
        {
          "name": "F#1",
          "midi": 30,
          "time": 42.499957500000015,
          "velocity": 0.937007874015748,
          "duration": 0.227272499999998
        },
        {
          "name": "F#2",
          "midi": 42,
          "time": 42.499957500000015,
          "velocity": 0.937007874015748,
          "duration": 0.227272499999998
        },
        {
          "name": "F#2",
          "midi": 42,
          "time": 42.72723000000001,
          "velocity": 0.9606299212598425,
          "duration": 0.113636249999999
        },
        {
          "name": "F#1",
          "midi": 30,
          "time": 42.72723000000001,
          "velocity": 0.9606299212598425,
          "duration": 0.113636249999999
        },
        {
          "name": "F#1",
          "midi": 30,
          "time": 42.84086625000001,
          "velocity": 0.968503937007874,
          "duration": 0.113636249999999
        },
        {
          "name": "F#2",
          "midi": 42,
          "time": 42.84086625000001,
          "velocity": 0.968503937007874,
          "duration": 0.113636249999999
        },
        {
          "name": "F#1",
          "midi": 30,
          "time": 42.95450250000001,
          "velocity": 0.984251968503937,
          "duration": 0.113636249999999
        },
        {
          "name": "F#2",
          "midi": 42,
          "time": 42.95450250000001,
          "velocity": 0.984251968503937,
          "duration": 0.113636249999999
        },
        {
          "name": "F#2",
          "midi": 42,
          "time": 43.06813875000001,
          "velocity": 1,
          "duration": 0.113636249999999
        },
        {
          "name": "F#1",
          "midi": 30,
          "time": 43.06813875000001,
          "velocity": 1,
          "duration": 0.113636249999999
        },
        {
          "name": "F#2",
          "midi": 42,
          "time": 43.18177500000001,
          "velocity": 1,
          "duration": 0.113636249999999
        },
        {
          "name": "F#1",
          "midi": 30,
          "time": 43.18177500000001,
          "velocity": 1,
          "duration": 0.113636249999999
        },
        {
          "name": "F#2",
          "midi": 42,
          "time": 43.29541125000001,
          "velocity": 1,
          "duration": 0.113636249999999
        },
        {
          "name": "F#1",
          "midi": 30,
          "time": 43.29541125000001,
          "velocity": 1,
          "duration": 0.113636249999999
        },
        {
          "name": "F#2",
          "midi": 42,
          "time": 43.40904750000001,
          "velocity": 1,
          "duration": 0.113636249999999
        },
        {
          "name": "F#1",
          "midi": 30,
          "time": 43.40904750000001,
          "velocity": 1,
          "duration": 0.113636249999999
        },
        {
          "name": "F#2",
          "midi": 42,
          "time": 43.522683750000006,
          "velocity": 1,
          "duration": 0.113636249999999
        },
        {
          "name": "F#1",
          "midi": 30,
          "time": 43.522683750000006,
          "velocity": 1,
          "duration": 0.113636249999999
        },
        {
          "name": "D2",
          "midi": 38,
          "time": 43.636320000000005,
          "velocity": 0.7874015748031497,
          "duration": 1.136362499999997
        },
        {
          "name": "A2",
          "midi": 45,
          "time": 43.8635925,
          "velocity": 0.7874015748031497,
          "duration": 1.136362499999997
        },
        {
          "name": "D3",
          "midi": 50,
          "time": 44.090865,
          "velocity": 0.7874015748031497,
          "duration": 1.136362499999997
        },
        {
          "name": "F#3",
          "midi": 54,
          "time": 44.999955,
          "velocity": 0.7874015748031497,
          "duration": 0.9090899999999991
        },
        {
          "name": "A2",
          "midi": 45,
          "time": 45.6817725,
          "velocity": 0.7874015748031497,
          "duration": 0.9090899999999991
        },
        {
          "name": "D3",
          "midi": 50,
          "time": 45.909045,
          "velocity": 0.7874015748031497,
          "duration": 0.9090899999999991
        },
        {
          "name": "D2",
          "midi": 38,
          "time": 46.36359,
          "velocity": 0.7874015748031497,
          "duration": 0.9090899999999991
        },
        {
          "name": "F#3",
          "midi": 54,
          "time": 46.818135,
          "velocity": 0.7874015748031497,
          "duration": 0.4545450000000031
        },
        {
          "name": "B1",
          "midi": 35,
          "time": 47.27268,
          "velocity": 0.7874015748031497,
          "duration": 1.8181799999999981
        },
        {
          "name": "F#2",
          "midi": 42,
          "time": 47.4999525,
          "velocity": 0.7874015748031497,
          "duration": 1.8181799999999981
        },
        {
          "name": "B2",
          "midi": 47,
          "time": 47.727225,
          "velocity": 0.7874015748031497,
          "duration": 1.8181799999999981
        },
        {
          "name": "D3",
          "midi": 50,
          "time": 48.636314999999996,
          "velocity": 0.7874015748031497,
          "duration": 1.8181800000000052
        },
        {
          "name": "F#2",
          "midi": 42,
          "time": 49.3181325,
          "velocity": 0.7874015748031497,
          "duration": 1.4772712500000011
        },
        {
          "name": "B2",
          "midi": 47,
          "time": 49.545404999999995,
          "velocity": 0.7874015748031497,
          "duration": 1.3636350000000022
        },
        {
          "name": "B1",
          "midi": 35,
          "time": 49.99995,
          "velocity": 0.7874015748031497,
          "duration": 0.4545450000000031
        },
        {
          "name": "D3",
          "midi": 50,
          "time": 50.454495,
          "velocity": 0.7874015748031497,
          "duration": 0.454544999999996
        },
        {
          "name": "C#2",
          "midi": 37,
          "time": 50.90904,
          "velocity": 0.7874015748031497,
          "duration": 1.136362499999997
        },
        {
          "name": "G#2",
          "midi": 44,
          "time": 51.136312499999995,
          "velocity": 0.7874015748031497,
          "duration": 1.136362499999997
        },
        {
          "name": "C#3",
          "midi": 49,
          "time": 51.36358499999999,
          "velocity": 0.7874015748031497,
          "duration": 1.136362499999997
        },
        {
          "name": "E3",
          "midi": 52,
          "time": 51.59085749999999,
          "velocity": 0.7874015748031497,
          "duration": 1.136362499999997
        },
        {
          "name": "C#2",
          "midi": 37,
          "time": 52.72721999999999,
          "velocity": 0.7874015748031497,
          "duration": 1.136362499999997
        },
        {
          "name": "G#2",
          "midi": 44,
          "time": 52.954492499999986,
          "velocity": 0.7874015748031497,
          "duration": 1.136362499999997
        },
        {
          "name": "C#3",
          "midi": 49,
          "time": 53.181764999999984,
          "velocity": 0.7874015748031497,
          "duration": 1.136362499999997
        },
        {
          "name": "E3",
          "midi": 52,
          "time": 53.40903749999998,
          "velocity": 0.7874015748031497,
          "duration": 1.136362499999997
        },
        {
          "name": "F#2",
          "midi": 42,
          "time": 54.54539999999998,
          "velocity": 0.7874015748031497,
          "duration": 1.136362499999997
        },
        {
          "name": "C#3",
          "midi": 49,
          "time": 54.77267249999998,
          "velocity": 0.7874015748031497,
          "duration": 1.136362499999997
        },
        {
          "name": "F#3",
          "midi": 54,
          "time": 54.999944999999975,
          "velocity": 0.7874015748031497,
          "duration": 1.136362499999997
        },
        {
          "name": "A3",
          "midi": 57,
          "time": 55.22721749999997,
          "velocity": 0.7874015748031497,
          "duration": 1.136362499999997
        },
        {
          "name": "C#3",
          "midi": 49,
          "time": 56.36357999999997,
          "velocity": 0.7874015748031497,
          "duration": 0.227272499999998
        },
        {
          "name": "F#2",
          "midi": 42,
          "time": 56.36357999999997,
          "velocity": 0.7874015748031497,
          "duration": 0.227272499999998
        },
        {
          "name": "F#3",
          "midi": 54,
          "time": 56.36357999999997,
          "velocity": 0.7874015748031497,
          "duration": 0.227272499999998
        },
        {
          "name": "D1",
          "midi": 26,
          "time": 58.18175999999997,
          "velocity": 0.7874015748031497,
          "duration": 0.227272499999998
        },
        {
          "name": "D2",
          "midi": 38,
          "time": 58.18175999999997,
          "velocity": 0.7874015748031497,
          "duration": 0.227272499999998
        },
        {
          "name": "D3",
          "midi": 50,
          "time": 58.40903249999997,
          "velocity": 0.7874015748031497,
          "duration": 0.227272499999998
        },
        {
          "name": "D2",
          "midi": 38,
          "time": 58.40903249999997,
          "velocity": 0.7874015748031497,
          "duration": 0.227272499999998
        },
        {
          "name": "D3",
          "midi": 50,
          "time": 58.636304999999965,
          "velocity": 0.7874015748031497,
          "duration": 0.227272499999998
        },
        {
          "name": "D2",
          "midi": 38,
          "time": 58.636304999999965,
          "velocity": 0.7874015748031497,
          "duration": 0.227272499999998
        },
        {
          "name": "D2",
          "midi": 38,
          "time": 58.86357749999996,
          "velocity": 0.7874015748031497,
          "duration": 0.227272499999998
        },
        {
          "name": "D3",
          "midi": 50,
          "time": 58.86357749999996,
          "velocity": 0.7874015748031497,
          "duration": 0.681817499999994
        },
        {
          "name": "D2",
          "midi": 38,
          "time": 59.09084999999996,
          "velocity": 0.7874015748031497,
          "duration": 0.227272499999998
        },
        {
          "name": "D2",
          "midi": 38,
          "time": 59.31812249999996,
          "velocity": 0.7874015748031497,
          "duration": 0.227272499999998
        },
        {
          "name": "D3",
          "midi": 50,
          "time": 59.54539499999996,
          "velocity": 0.7874015748031497,
          "duration": 0.227272499999998
        },
        {
          "name": "D2",
          "midi": 38,
          "time": 59.54539499999996,
          "velocity": 0.7874015748031497,
          "duration": 0.454544999999996
        },
        {
          "name": "D2",
          "midi": 38,
          "time": 59.99993999999995,
          "velocity": 0.7874015748031497,
          "duration": 0.227272499999998
        },
        {
          "name": "D3",
          "midi": 50,
          "time": 59.99993999999995,
          "velocity": 0.7874015748031497,
          "duration": 0.681817499999994
        },
        {
          "name": "D2",
          "midi": 38,
          "time": 60.22721249999995,
          "velocity": 0.7874015748031497,
          "duration": 0.227272499999998
        },
        {
          "name": "D2",
          "midi": 38,
          "time": 60.45448499999995,
          "velocity": 0.7874015748031497,
          "duration": 0.227272499999998
        },
        {
          "name": "D3",
          "midi": 50,
          "time": 60.68175749999995,
          "velocity": 0.7874015748031497,
          "duration": 0.681817499999994
        },
        {
          "name": "D2",
          "midi": 38,
          "time": 60.68175749999995,
          "velocity": 0.7874015748031497,
          "duration": 0.227272499999998
        },
        {
          "name": "D2",
          "midi": 38,
          "time": 60.909029999999944,
          "velocity": 0.7874015748031497,
          "duration": 0.227272499999998
        },
        {
          "name": "D2",
          "midi": 38,
          "time": 61.13630249999994,
          "velocity": 0.7874015748031497,
          "duration": 0.227272499999998
        },
        {
          "name": "D3",
          "midi": 50,
          "time": 61.36357499999994,
          "velocity": 0.7874015748031497,
          "duration": 0.4545450000000031
        },
        {
          "name": "D2",
          "midi": 38,
          "time": 61.36357499999994,
          "velocity": 0.7874015748031497,
          "duration": 0.4545450000000031
        },
        {
          "name": "B0",
          "midi": 23,
          "time": 61.818119999999944,
          "velocity": 0.7874015748031497,
          "duration": 0.227272499999998
        },
        {
          "name": "B2",
          "midi": 47,
          "time": 61.818119999999944,
          "velocity": 0.7874015748031497,
          "duration": 0.681817499999994
        },
        {
          "name": "B1",
          "midi": 35,
          "time": 61.818119999999944,
          "velocity": 0.7874015748031497,
          "duration": 0.227272499999998
        },
        {
          "name": "B1",
          "midi": 35,
          "time": 62.04539249999994,
          "velocity": 0.7874015748031497,
          "duration": 0.227272499999998
        },
        {
          "name": "B1",
          "midi": 35,
          "time": 62.27266499999994,
          "velocity": 0.7874015748031497,
          "duration": 0.227272499999998
        },
        {
          "name": "B2",
          "midi": 47,
          "time": 62.49993749999994,
          "velocity": 0.7874015748031497,
          "duration": 0.681817499999994
        },
        {
          "name": "B1",
          "midi": 35,
          "time": 62.49993749999994,
          "velocity": 0.7874015748031497,
          "duration": 0.227272499999998
        },
        {
          "name": "B1",
          "midi": 35,
          "time": 62.727209999999936,
          "velocity": 0.7874015748031497,
          "duration": 0.227272499999998
        },
        {
          "name": "B1",
          "midi": 35,
          "time": 62.95448249999993,
          "velocity": 0.7874015748031497,
          "duration": 0.227272499999998
        },
        {
          "name": "B2",
          "midi": 47,
          "time": 63.18175499999993,
          "velocity": 0.7874015748031497,
          "duration": 0.4545450000000031
        },
        {
          "name": "B1",
          "midi": 35,
          "time": 63.18175499999993,
          "velocity": 0.7874015748031497,
          "duration": 0.4545450000000031
        },
        {
          "name": "B1",
          "midi": 35,
          "time": 63.636299999999935,
          "velocity": 0.7874015748031497,
          "duration": 0.227272499999998
        },
        {
          "name": "B2",
          "midi": 47,
          "time": 63.636299999999935,
          "velocity": 0.7874015748031497,
          "duration": 0.681817499999994
        },
        {
          "name": "B1",
          "midi": 35,
          "time": 63.86357249999993,
          "velocity": 0.7874015748031497,
          "duration": 0.227272499999998
        },
        {
          "name": "B1",
          "midi": 35,
          "time": 64.09084499999993,
          "velocity": 0.7874015748031497,
          "duration": 0.227272499999998
        },
        {
          "name": "B2",
          "midi": 47,
          "time": 64.31811749999993,
          "velocity": 0.7874015748031497,
          "duration": 0.681817499999994
        },
        {
          "name": "B1",
          "midi": 35,
          "time": 64.31811749999993,
          "velocity": 0.7874015748031497,
          "duration": 0.227272499999998
        },
        {
          "name": "B1",
          "midi": 35,
          "time": 64.54538999999993,
          "velocity": 0.7874015748031497,
          "duration": 0.227272499999998
        },
        {
          "name": "B1",
          "midi": 35,
          "time": 64.77266249999992,
          "velocity": 0.7874015748031497,
          "duration": 0.227272499999998
        },
        {
          "name": "B2",
          "midi": 47,
          "time": 64.99993499999992,
          "velocity": 0.7874015748031497,
          "duration": 0.454544999999996
        },
        {
          "name": "B1",
          "midi": 35,
          "time": 64.99993499999992,
          "velocity": 0.7874015748031497,
          "duration": 0.454544999999996
        },
        {
          "name": "C#1",
          "midi": 25,
          "time": 65.45447999999992,
          "velocity": 0.7874015748031497,
          "duration": 0.227272499999998
        },
        {
          "name": "C#3",
          "midi": 49,
          "time": 65.45447999999992,
          "velocity": 0.7874015748031497,
          "duration": 0.681817499999994
        },
        {
          "name": "C#2",
          "midi": 37,
          "time": 65.45447999999992,
          "velocity": 0.7874015748031497,
          "duration": 0.227272499999998
        },
        {
          "name": "C#2",
          "midi": 37,
          "time": 65.68175249999992,
          "velocity": 0.7874015748031497,
          "duration": 0.227272499999998
        },
        {
          "name": "C#2",
          "midi": 37,
          "time": 65.90902499999991,
          "velocity": 0.7874015748031497,
          "duration": 0.227272499999998
        },
        {
          "name": "C#3",
          "midi": 49,
          "time": 66.13629749999991,
          "velocity": 0.7874015748031497,
          "duration": 0.681817499999994
        },
        {
          "name": "C#2",
          "midi": 37,
          "time": 66.13629749999991,
          "velocity": 0.7874015748031497,
          "duration": 0.227272499999998
        },
        {
          "name": "C#2",
          "midi": 37,
          "time": 66.36356999999991,
          "velocity": 0.7874015748031497,
          "duration": 0.227272499999998
        },
        {
          "name": "C#2",
          "midi": 37,
          "time": 66.59084249999991,
          "velocity": 0.7874015748031497,
          "duration": 0.227272499999998
        },
        {
          "name": "C#2",
          "midi": 37,
          "time": 66.8181149999999,
          "velocity": 0.7874015748031497,
          "duration": 0.454544999999996
        },
        {
          "name": "C#3",
          "midi": 49,
          "time": 66.8181149999999,
          "velocity": 0.7874015748031497,
          "duration": 0.454544999999996
        },
        {
          "name": "C#2",
          "midi": 37,
          "time": 67.2726599999999,
          "velocity": 0.7874015748031497,
          "duration": 0.227272499999998
        },
        {
          "name": "C#3",
          "midi": 49,
          "time": 67.2726599999999,
          "velocity": 0.7874015748031497,
          "duration": 0.681817499999994
        },
        {
          "name": "C#2",
          "midi": 37,
          "time": 67.4999324999999,
          "velocity": 0.7874015748031497,
          "duration": 0.227272499999998
        },
        {
          "name": "C#2",
          "midi": 37,
          "time": 67.7272049999999,
          "velocity": 0.7874015748031497,
          "duration": 0.227272499999998
        },
        {
          "name": "C#3",
          "midi": 49,
          "time": 67.9544774999999,
          "velocity": 0.7874015748031497,
          "duration": 0.681817499999994
        },
        {
          "name": "C#2",
          "midi": 37,
          "time": 67.9544774999999,
          "velocity": 0.7874015748031497,
          "duration": 0.227272499999998
        },
        {
          "name": "C#2",
          "midi": 37,
          "time": 68.1817499999999,
          "velocity": 0.7874015748031497,
          "duration": 0.227272499999998
        },
        {
          "name": "C#2",
          "midi": 37,
          "time": 68.40902249999989,
          "velocity": 0.7874015748031497,
          "duration": 0.227272499999998
        },
        {
          "name": "C#3",
          "midi": 49,
          "time": 68.63629499999989,
          "velocity": 0.7874015748031497,
          "duration": 0.454544999999996
        },
        {
          "name": "C#2",
          "midi": 37,
          "time": 68.63629499999989,
          "velocity": 0.7874015748031497,
          "duration": 0.454544999999996
        },
        {
          "name": "F#1",
          "midi": 30,
          "time": 69.09083999999989,
          "velocity": 0.7874015748031497,
          "duration": 0.227272499999998
        },
        {
          "name": "F#3",
          "midi": 54,
          "time": 69.09083999999989,
          "velocity": 0.7874015748031497,
          "duration": 0.681817499999994
        },
        {
          "name": "F#2",
          "midi": 42,
          "time": 69.09083999999989,
          "velocity": 0.7874015748031497,
          "duration": 0.227272499999998
        },
        {
          "name": "F#2",
          "midi": 42,
          "time": 69.31811249999988,
          "velocity": 0.7874015748031497,
          "duration": 0.227272499999998
        },
        {
          "name": "F#2",
          "midi": 42,
          "time": 69.54538499999988,
          "velocity": 0.7874015748031497,
          "duration": 0.227272499999998
        },
        {
          "name": "F#2",
          "midi": 42,
          "time": 69.77265749999988,
          "velocity": 0.7874015748031497,
          "duration": 0.227272499999998
        },
        {
          "name": "F#3",
          "midi": 54,
          "time": 69.77265749999988,
          "velocity": 0.7874015748031497,
          "duration": 0.681817499999994
        },
        {
          "name": "F#2",
          "midi": 42,
          "time": 69.99992999999988,
          "velocity": 0.7874015748031497,
          "duration": 0.227272499999998
        },
        {
          "name": "F#2",
          "midi": 42,
          "time": 70.22720249999988,
          "velocity": 0.7874015748031497,
          "duration": 0.227272499999998
        },
        {
          "name": "F#2",
          "midi": 42,
          "time": 70.45447499999987,
          "velocity": 0.7874015748031497,
          "duration": 0.454544999999996
        },
        {
          "name": "F#3",
          "midi": 54,
          "time": 70.45447499999987,
          "velocity": 0.7874015748031497,
          "duration": 0.454544999999996
        },
        {
          "name": "F#3",
          "midi": 54,
          "time": 70.90901999999987,
          "velocity": 0.7874015748031497,
          "duration": 0.681817499999994
        },
        {
          "name": "F#2",
          "midi": 42,
          "time": 70.90901999999987,
          "velocity": 0.7874015748031497,
          "duration": 0.227272499999998
        },
        {
          "name": "F#2",
          "midi": 42,
          "time": 71.13629249999987,
          "velocity": 0.7874015748031497,
          "duration": 0.227272499999998
        },
        {
          "name": "F#2",
          "midi": 42,
          "time": 71.36356499999987,
          "velocity": 0.7874015748031497,
          "duration": 0.227272499999998
        },
        {
          "name": "F#3",
          "midi": 54,
          "time": 71.59083749999986,
          "velocity": 0.7874015748031497,
          "duration": 0.681817499999994
        },
        {
          "name": "F#2",
          "midi": 42,
          "time": 71.59083749999986,
          "velocity": 0.7874015748031497,
          "duration": 0.227272499999998
        },
        {
          "name": "F#2",
          "midi": 42,
          "time": 71.81810999999986,
          "velocity": 0.7874015748031497,
          "duration": 0.227272499999998
        },
        {
          "name": "F#2",
          "midi": 42,
          "time": 72.04538249999986,
          "velocity": 0.7874015748031497,
          "duration": 0.227272499999998
        },
        {
          "name": "F#2",
          "midi": 42,
          "time": 72.27265499999986,
          "velocity": 0.7874015748031497,
          "duration": 0.454544999999996
        },
        {
          "name": "F#3",
          "midi": 54,
          "time": 72.27265499999986,
          "velocity": 0.7874015748031497,
          "duration": 0.454544999999996
        },
        {
          "name": "D3",
          "midi": 50,
          "time": 72.72719999999985,
          "velocity": 0.7874015748031497,
          "duration": 0.681817499999994
        },
        {
          "name": "D2",
          "midi": 38,
          "time": 72.72719999999985,
          "velocity": 0.7874015748031497,
          "duration": 0.227272499999998
        },
        {
          "name": "D2",
          "midi": 38,
          "time": 72.95447249999985,
          "velocity": 0.7874015748031497,
          "duration": 0.227272499999998
        },
        {
          "name": "D2",
          "midi": 38,
          "time": 73.18174499999985,
          "velocity": 0.7874015748031497,
          "duration": 0.227272499999998
        },
        {
          "name": "D3",
          "midi": 50,
          "time": 73.40901749999985,
          "velocity": 0.7874015748031497,
          "duration": 0.681817499999994
        },
        {
          "name": "D2",
          "midi": 38,
          "time": 73.40901749999985,
          "velocity": 0.7874015748031497,
          "duration": 0.227272499999998
        },
        {
          "name": "D2",
          "midi": 38,
          "time": 73.63628999999985,
          "velocity": 0.7874015748031497,
          "duration": 0.227272499999998
        },
        {
          "name": "D2",
          "midi": 38,
          "time": 73.86356249999984,
          "velocity": 0.7874015748031497,
          "duration": 0.227272499999998
        },
        {
          "name": "D3",
          "midi": 50,
          "time": 74.09083499999984,
          "velocity": 0.7874015748031497,
          "duration": 0.454544999999996
        },
        {
          "name": "D2",
          "midi": 38,
          "time": 74.09083499999984,
          "velocity": 0.7874015748031497,
          "duration": 0.454544999999996
        },
        {
          "name": "D2",
          "midi": 38,
          "time": 74.54537999999984,
          "velocity": 0.7874015748031497,
          "duration": 0.227272499999998
        },
        {
          "name": "D3",
          "midi": 50,
          "time": 74.54537999999984,
          "velocity": 0.7874015748031497,
          "duration": 0.681817499999994
        },
        {
          "name": "D2",
          "midi": 38,
          "time": 74.77265249999984,
          "velocity": 0.7874015748031497,
          "duration": 0.227272499999998
        },
        {
          "name": "D2",
          "midi": 38,
          "time": 74.99992499999983,
          "velocity": 0.7874015748031497,
          "duration": 0.227272499999998
        },
        {
          "name": "D3",
          "midi": 50,
          "time": 75.22719749999983,
          "velocity": 0.7874015748031497,
          "duration": 0.681817499999994
        },
        {
          "name": "D2",
          "midi": 38,
          "time": 75.22719749999983,
          "velocity": 0.7874015748031497,
          "duration": 0.227272499999998
        },
        {
          "name": "D2",
          "midi": 38,
          "time": 75.45446999999983,
          "velocity": 0.7874015748031497,
          "duration": 0.227272499999998
        },
        {
          "name": "D2",
          "midi": 38,
          "time": 75.68174249999983,
          "velocity": 0.7874015748031497,
          "duration": 0.227272499999998
        },
        {
          "name": "D2",
          "midi": 38,
          "time": 75.90901499999983,
          "velocity": 0.7874015748031497,
          "duration": 0.454544999999996
        },
        {
          "name": "D3",
          "midi": 50,
          "time": 75.90901499999983,
          "velocity": 0.7874015748031497,
          "duration": 0.454544999999996
        },
        {
          "name": "B1",
          "midi": 35,
          "time": 76.36355999999982,
          "velocity": 0.7874015748031497,
          "duration": 0.227272499999998
        },
        {
          "name": "B2",
          "midi": 47,
          "time": 76.36355999999982,
          "velocity": 0.7874015748031497,
          "duration": 0.681817499999994
        },
        {
          "name": "B1",
          "midi": 35,
          "time": 76.59083249999982,
          "velocity": 0.7874015748031497,
          "duration": 0.227272499999998
        },
        {
          "name": "B1",
          "midi": 35,
          "time": 76.81810499999982,
          "velocity": 0.7874015748031497,
          "duration": 0.227272499999998
        },
        {
          "name": "B2",
          "midi": 47,
          "time": 77.04537749999982,
          "velocity": 0.7874015748031497,
          "duration": 0.681817499999994
        },
        {
          "name": "B1",
          "midi": 35,
          "time": 77.04537749999982,
          "velocity": 0.7874015748031497,
          "duration": 0.227272499999998
        },
        {
          "name": "B1",
          "midi": 35,
          "time": 77.27264999999981,
          "velocity": 0.7874015748031497,
          "duration": 0.227272499999998
        },
        {
          "name": "B1",
          "midi": 35,
          "time": 77.49992249999981,
          "velocity": 0.7874015748031497,
          "duration": 0.227272499999998
        },
        {
          "name": "B2",
          "midi": 47,
          "time": 77.72719499999981,
          "velocity": 0.7874015748031497,
          "duration": 0.454544999999996
        },
        {
          "name": "B1",
          "midi": 35,
          "time": 77.72719499999981,
          "velocity": 0.7874015748031497,
          "duration": 0.454544999999996
        },
        {
          "name": "B1",
          "midi": 35,
          "time": 78.1817399999998,
          "velocity": 0.7874015748031497,
          "duration": 0.227272499999998
        },
        {
          "name": "B2",
          "midi": 47,
          "time": 78.1817399999998,
          "velocity": 0.7874015748031497,
          "duration": 0.681817499999994
        },
        {
          "name": "B1",
          "midi": 35,
          "time": 78.4090124999998,
          "velocity": 0.7874015748031497,
          "duration": 0.227272499999998
        },
        {
          "name": "B1",
          "midi": 35,
          "time": 78.6362849999998,
          "velocity": 0.7874015748031497,
          "duration": 0.227272499999998
        },
        {
          "name": "B1",
          "midi": 35,
          "time": 78.8635574999998,
          "velocity": 0.7874015748031497,
          "duration": 0.227272499999998
        },
        {
          "name": "B2",
          "midi": 47,
          "time": 78.8635574999998,
          "velocity": 0.7874015748031497,
          "duration": 0.681817499999994
        },
        {
          "name": "B1",
          "midi": 35,
          "time": 79.0908299999998,
          "velocity": 0.7874015748031497,
          "duration": 0.227272499999998
        },
        {
          "name": "B1",
          "midi": 35,
          "time": 79.3181024999998,
          "velocity": 0.7874015748031497,
          "duration": 0.227272499999998
        },
        {
          "name": "B1",
          "midi": 35,
          "time": 79.5453749999998,
          "velocity": 0.7874015748031497,
          "duration": 0.454544999999996
        },
        {
          "name": "B2",
          "midi": 47,
          "time": 79.5453749999998,
          "velocity": 0.7874015748031497,
          "duration": 0.454544999999996
        },
        {
          "name": "C#2",
          "midi": 37,
          "time": 79.99991999999979,
          "velocity": 0.7874015748031497,
          "duration": 0.227272499999998
        },
        {
          "name": "C#3",
          "midi": 49,
          "time": 79.99991999999979,
          "velocity": 0.7874015748031497,
          "duration": 0.681817499999994
        },
        {
          "name": "C#2",
          "midi": 37,
          "time": 80.22719249999979,
          "velocity": 0.7874015748031497,
          "duration": 0.227272499999998
        },
        {
          "name": "C#2",
          "midi": 37,
          "time": 80.45446499999979,
          "velocity": 0.7874015748031497,
          "duration": 0.227272499999998
        },
        {
          "name": "C#3",
          "midi": 49,
          "time": 80.68173749999978,
          "velocity": 0.7874015748031497,
          "duration": 0.681817499999994
        },
        {
          "name": "C#2",
          "midi": 37,
          "time": 80.68173749999978,
          "velocity": 0.7874015748031497,
          "duration": 0.227272499999998
        },
        {
          "name": "C#2",
          "midi": 37,
          "time": 80.90900999999978,
          "velocity": 0.7874015748031497,
          "duration": 0.227272499999998
        },
        {
          "name": "C#2",
          "midi": 37,
          "time": 81.13628249999978,
          "velocity": 0.7874015748031497,
          "duration": 0.227272499999998
        },
        {
          "name": "C#3",
          "midi": 49,
          "time": 81.36355499999978,
          "velocity": 0.7874015748031497,
          "duration": 0.454544999999996
        },
        {
          "name": "C#2",
          "midi": 37,
          "time": 81.36355499999978,
          "velocity": 0.7874015748031497,
          "duration": 0.454544999999996
        },
        {
          "name": "C#3",
          "midi": 49,
          "time": 81.81809999999977,
          "velocity": 0.7874015748031497,
          "duration": 0.681817499999994
        },
        {
          "name": "C#2",
          "midi": 37,
          "time": 81.81809999999977,
          "velocity": 0.7874015748031497,
          "duration": 0.227272499999998
        },
        {
          "name": "C#2",
          "midi": 37,
          "time": 82.04537249999977,
          "velocity": 0.7874015748031497,
          "duration": 0.227272499999998
        },
        {
          "name": "C#2",
          "midi": 37,
          "time": 82.27264499999977,
          "velocity": 0.7874015748031497,
          "duration": 0.227272499999998
        },
        {
          "name": "C#3",
          "midi": 49,
          "time": 82.49991749999977,
          "velocity": 0.7874015748031497,
          "duration": 0.681817499999994
        },
        {
          "name": "C#2",
          "midi": 37,
          "time": 82.49991749999977,
          "velocity": 0.7874015748031497,
          "duration": 0.227272499999998
        },
        {
          "name": "C#2",
          "midi": 37,
          "time": 82.72718999999977,
          "velocity": 0.7874015748031497,
          "duration": 0.227272499999998
        },
        {
          "name": "C#2",
          "midi": 37,
          "time": 82.95446249999976,
          "velocity": 0.7874015748031497,
          "duration": 0.227272499999998
        },
        {
          "name": "C#2",
          "midi": 37,
          "time": 83.18173499999976,
          "velocity": 0.7874015748031497,
          "duration": 0.454544999999996
        },
        {
          "name": "C#3",
          "midi": 49,
          "time": 83.18173499999976,
          "velocity": 0.7874015748031497,
          "duration": 0.454544999999996
        },
        {
          "name": "F#2",
          "midi": 42,
          "time": 83.63627999999976,
          "velocity": 0.7874015748031497,
          "duration": 0.227272499999998
        },
        {
          "name": "F#3",
          "midi": 54,
          "time": 83.63627999999976,
          "velocity": 0.7874015748031497,
          "duration": 0.681817499999994
        },
        {
          "name": "F#2",
          "midi": 42,
          "time": 83.86355249999976,
          "velocity": 0.7874015748031497,
          "duration": 0.227272499999998
        },
        {
          "name": "F#2",
          "midi": 42,
          "time": 84.09082499999975,
          "velocity": 0.7874015748031497,
          "duration": 0.227272499999998
        },
        {
          "name": "F#3",
          "midi": 54,
          "time": 84.31809749999975,
          "velocity": 0.7874015748031497,
          "duration": 0.681817499999994
        },
        {
          "name": "F#2",
          "midi": 42,
          "time": 84.31809749999975,
          "velocity": 0.7874015748031497,
          "duration": 0.227272499999998
        },
        {
          "name": "F#2",
          "midi": 42,
          "time": 84.54536999999975,
          "velocity": 0.7874015748031497,
          "duration": 0.227272499999998
        },
        {
          "name": "F#2",
          "midi": 42,
          "time": 84.77264249999975,
          "velocity": 0.7874015748031497,
          "duration": 0.227272499999998
        },
        {
          "name": "F#3",
          "midi": 54,
          "time": 84.99991499999975,
          "velocity": 0.7874015748031497,
          "duration": 0.454544999999996
        },
        {
          "name": "F#2",
          "midi": 42,
          "time": 84.99991499999975,
          "velocity": 0.7874015748031497,
          "duration": 0.454544999999996
        },
        {
          "name": "F#2",
          "midi": 42,
          "time": 85.45445999999974,
          "velocity": 0.7874015748031497,
          "duration": 0.227272499999998
        },
        {
          "name": "F#3",
          "midi": 54,
          "time": 85.45445999999974,
          "velocity": 0.7874015748031497,
          "duration": 0.681817499999994
        },
        {
          "name": "F#2",
          "midi": 42,
          "time": 85.68173249999974,
          "velocity": 0.7874015748031497,
          "duration": 0.227272499999998
        },
        {
          "name": "F#2",
          "midi": 42,
          "time": 85.90900499999974,
          "velocity": 0.7874015748031497,
          "duration": 0.227272499999998
        },
        {
          "name": "F#2",
          "midi": 42,
          "time": 86.13627749999974,
          "velocity": 0.7874015748031497,
          "duration": 0.227272499999998
        },
        {
          "name": "F#3",
          "midi": 54,
          "time": 86.13627749999974,
          "velocity": 0.7874015748031497,
          "duration": 0.681817499999994
        },
        {
          "name": "F#2",
          "midi": 42,
          "time": 86.36354999999973,
          "velocity": 0.7874015748031497,
          "duration": 0.227272499999998
        },
        {
          "name": "F#2",
          "midi": 42,
          "time": 86.59082249999973,
          "velocity": 0.7874015748031497,
          "duration": 0.227272499999998
        },
        {
          "name": "F#3",
          "midi": 54,
          "time": 86.81809499999973,
          "velocity": 0.7874015748031497,
          "duration": 0.454544999999996
        },
        {
          "name": "F#2",
          "midi": 42,
          "time": 86.81809499999973,
          "velocity": 0.7874015748031497,
          "duration": 0.454544999999996
        },
        {
          "name": "D2",
          "midi": 38,
          "time": 87.27263999999973,
          "velocity": 0.7874015748031497,
          "duration": 0.227272499999998
        },
        {
          "name": "D2",
          "midi": 38,
          "time": 87.49991249999972,
          "velocity": 0.7874015748031497,
          "duration": 0.227272499999998
        },
        {
          "name": "D2",
          "midi": 38,
          "time": 87.72718499999972,
          "velocity": 0.7874015748031497,
          "duration": 0.227272499999998
        },
        {
          "name": "D2",
          "midi": 38,
          "time": 87.95445749999972,
          "velocity": 0.7874015748031497,
          "duration": 0.227272499999998
        },
        {
          "name": "D2",
          "midi": 38,
          "time": 88.18172999999972,
          "velocity": 0.7874015748031497,
          "duration": 0.227272499999998
        },
        {
          "name": "D2",
          "midi": 38,
          "time": 88.40900249999972,
          "velocity": 0.7874015748031497,
          "duration": 0.227272499999998
        },
        {
          "name": "D3",
          "midi": 50,
          "time": 88.63627499999971,
          "velocity": 0.7874015748031497,
          "duration": 0.227272499999998
        },
        {
          "name": "D2",
          "midi": 38,
          "time": 88.86354749999971,
          "velocity": 0.7874015748031497,
          "duration": 0.227272499999998
        },
        {
          "name": "D2",
          "midi": 38,
          "time": 89.09081999999971,
          "velocity": 0.7874015748031497,
          "duration": 0.227272499999998
        },
        {
          "name": "D2",
          "midi": 38,
          "time": 89.31809249999971,
          "velocity": 0.7874015748031497,
          "duration": 0.227272499999998
        },
        {
          "name": "D2",
          "midi": 38,
          "time": 89.5453649999997,
          "velocity": 0.7874015748031497,
          "duration": 0.227272499999998
        },
        {
          "name": "D2",
          "midi": 38,
          "time": 89.7726374999997,
          "velocity": 0.7874015748031497,
          "duration": 0.227272499999998
        },
        {
          "name": "D2",
          "midi": 38,
          "time": 89.9999099999997,
          "velocity": 0.7874015748031497,
          "duration": 0.227272499999998
        },
        {
          "name": "D2",
          "midi": 38,
          "time": 90.2271824999997,
          "velocity": 0.7874015748031497,
          "duration": 0.227272499999998
        },
        {
          "name": "D3",
          "midi": 50,
          "time": 90.4544549999997,
          "velocity": 0.7874015748031497,
          "duration": 0.227272499999998
        },
        {
          "name": "D2",
          "midi": 38,
          "time": 90.6817274999997,
          "velocity": 0.7874015748031497,
          "duration": 0.227272499999998
        },
        {
          "name": "B1",
          "midi": 35,
          "time": 90.9089999999997,
          "velocity": 0.7874015748031497,
          "duration": 0.227272499999998
        },
        {
          "name": "B1",
          "midi": 35,
          "time": 91.13627249999969,
          "velocity": 0.7874015748031497,
          "duration": 0.227272499999998
        },
        {
          "name": "B1",
          "midi": 35,
          "time": 91.36354499999969,
          "velocity": 0.7874015748031497,
          "duration": 0.227272499999998
        },
        {
          "name": "B1",
          "midi": 35,
          "time": 91.59081749999969,
          "velocity": 0.7874015748031497,
          "duration": 0.227272499999998
        },
        {
          "name": "B1",
          "midi": 35,
          "time": 91.81808999999969,
          "velocity": 0.7874015748031497,
          "duration": 0.227272499999998
        },
        {
          "name": "B1",
          "midi": 35,
          "time": 92.04536249999968,
          "velocity": 0.7874015748031497,
          "duration": 0.227272499999998
        },
        {
          "name": "B2",
          "midi": 47,
          "time": 92.27263499999968,
          "velocity": 0.7874015748031497,
          "duration": 0.227272499999998
        },
        {
          "name": "B1",
          "midi": 35,
          "time": 92.49990749999968,
          "velocity": 0.7874015748031497,
          "duration": 0.227272499999998
        },
        {
          "name": "B1",
          "midi": 35,
          "time": 92.72717999999968,
          "velocity": 0.7874015748031497,
          "duration": 0.227272499999998
        },
        {
          "name": "B1",
          "midi": 35,
          "time": 92.95445249999968,
          "velocity": 0.7874015748031497,
          "duration": 0.227272499999998
        },
        {
          "name": "B1",
          "midi": 35,
          "time": 93.18172499999967,
          "velocity": 0.7874015748031497,
          "duration": 0.227272499999998
        },
        {
          "name": "B1",
          "midi": 35,
          "time": 93.40899749999967,
          "velocity": 0.7874015748031497,
          "duration": 0.227272499999998
        },
        {
          "name": "B1",
          "midi": 35,
          "time": 93.63626999999967,
          "velocity": 0.7874015748031497,
          "duration": 0.227272499999998
        },
        {
          "name": "B1",
          "midi": 35,
          "time": 93.86354249999967,
          "velocity": 0.7874015748031497,
          "duration": 0.227272499999998
        },
        {
          "name": "B2",
          "midi": 47,
          "time": 94.09081499999967,
          "velocity": 0.7874015748031497,
          "duration": 0.227272499999998
        },
        {
          "name": "B1",
          "midi": 35,
          "time": 94.31808749999966,
          "velocity": 0.7874015748031497,
          "duration": 0.227272499999998
        },
        {
          "name": "C#2",
          "midi": 37,
          "time": 94.54535999999966,
          "velocity": 0.7874015748031497,
          "duration": 0.227272499999998
        },
        {
          "name": "C#2",
          "midi": 37,
          "time": 94.77263249999966,
          "velocity": 0.7874015748031497,
          "duration": 0.227272499999998
        },
        {
          "name": "C#2",
          "midi": 37,
          "time": 94.99990499999966,
          "velocity": 0.7874015748031497,
          "duration": 0.227272499999998
        },
        {
          "name": "C#2",
          "midi": 37,
          "time": 95.22717749999966,
          "velocity": 0.7874015748031497,
          "duration": 0.227272499999998
        },
        {
          "name": "C#2",
          "midi": 37,
          "time": 95.45444999999965,
          "velocity": 0.7874015748031497,
          "duration": 0.227272499999998
        },
        {
          "name": "C#2",
          "midi": 37,
          "time": 95.68172249999965,
          "velocity": 0.7874015748031497,
          "duration": 0.227272499999998
        },
        {
          "name": "C#3",
          "midi": 49,
          "time": 95.90899499999965,
          "velocity": 0.7874015748031497,
          "duration": 0.227272499999998
        },
        {
          "name": "C#2",
          "midi": 37,
          "time": 96.13626749999965,
          "velocity": 0.7874015748031497,
          "duration": 0.227272499999998
        },
        {
          "name": "C#2",
          "midi": 37,
          "time": 96.36353999999965,
          "velocity": 0.7874015748031497,
          "duration": 0.227272499999998
        },
        {
          "name": "C#2",
          "midi": 37,
          "time": 96.59081249999964,
          "velocity": 0.7874015748031497,
          "duration": 0.227272499999998
        },
        {
          "name": "C#2",
          "midi": 37,
          "time": 96.81808499999964,
          "velocity": 0.7874015748031497,
          "duration": 0.227272499999998
        },
        {
          "name": "C#2",
          "midi": 37,
          "time": 97.04535749999964,
          "velocity": 0.7874015748031497,
          "duration": 0.227272499999998
        },
        {
          "name": "C#2",
          "midi": 37,
          "time": 97.27262999999964,
          "velocity": 0.7874015748031497,
          "duration": 0.227272499999998
        },
        {
          "name": "C#2",
          "midi": 37,
          "time": 97.49990249999964,
          "velocity": 0.7874015748031497,
          "duration": 0.227272499999998
        },
        {
          "name": "F#2",
          "midi": 42,
          "time": 98.18171999999963,
          "velocity": 0.7874015748031497,
          "duration": 0.227272499999998
        },
        {
          "name": "F#1",
          "midi": 30,
          "time": 98.18171999999963,
          "velocity": 0.7874015748031497,
          "duration": 0.227272499999998
        },
        {
          "name": "C#3",
          "midi": 49,
          "time": 98.18171999999963,
          "velocity": 0.7874015748031497,
          "duration": 0.227272499999998
        },
        {
          "name": "F#2",
          "midi": 42,
          "time": 98.40899249999963,
          "velocity": 0.7874015748031497,
          "duration": 0.227272499999998
        },
        {
          "name": "C#3",
          "midi": 49,
          "time": 98.40899249999963,
          "velocity": 0.7874015748031497,
          "duration": 0.227272499999998
        },
        {
          "name": "F#1",
          "midi": 30,
          "time": 98.40899249999963,
          "velocity": 0.7874015748031497,
          "duration": 0.227272499999998
        },
        {
          "name": "F#2",
          "midi": 42,
          "time": 98.63626499999963,
          "velocity": 0.7874015748031497,
          "duration": 0.227272499999998
        },
        {
          "name": "F#1",
          "midi": 30,
          "time": 98.63626499999963,
          "velocity": 0.7874015748031497,
          "duration": 0.227272499999998
        },
        {
          "name": "C#3",
          "midi": 49,
          "time": 98.63626499999963,
          "velocity": 0.7874015748031497,
          "duration": 0.227272499999998
        },
        {
          "name": "F#2",
          "midi": 42,
          "time": 99.09080999999962,
          "velocity": 0.7874015748031497,
          "duration": 0.227272499999998
        },
        {
          "name": "F#1",
          "midi": 30,
          "time": 99.09080999999962,
          "velocity": 0.7874015748031497,
          "duration": 0.227272499999998
        },
        {
          "name": "C#3",
          "midi": 49,
          "time": 99.09080999999962,
          "velocity": 0.7874015748031497,
          "duration": 0.227272499999998
        },
        {
          "name": "F#2",
          "midi": 42,
          "time": 99.31808249999962,
          "velocity": 0.7874015748031497,
          "duration": 0.227272499999998
        },
        {
          "name": "C#3",
          "midi": 49,
          "time": 99.31808249999962,
          "velocity": 0.7874015748031497,
          "duration": 0.227272499999998
        },
        {
          "name": "F#1",
          "midi": 30,
          "time": 99.31808249999962,
          "velocity": 0.7874015748031497,
          "duration": 0.227272499999998
        },
        {
          "name": "F#2",
          "midi": 42,
          "time": 99.54535499999962,
          "velocity": 0.7874015748031497,
          "duration": 0.227272499999998
        },
        {
          "name": "F#1",
          "midi": 30,
          "time": 99.54535499999962,
          "velocity": 0.7874015748031497,
          "duration": 0.227272499999998
        },
        {
          "name": "C#3",
          "midi": 49,
          "time": 99.54535499999962,
          "velocity": 0.7874015748031497,
          "duration": 0.227272499999998
        },
        {
          "name": "F#2",
          "midi": 42,
          "time": 99.99989999999961,
          "velocity": 0.7874015748031497,
          "duration": 0.227272499999998
        },
        {
          "name": "F#1",
          "midi": 30,
          "time": 99.99989999999961,
          "velocity": 0.7874015748031497,
          "duration": 0.227272499999998
        },
        {
          "name": "C#3",
          "midi": 49,
          "time": 99.99989999999961,
          "velocity": 0.7874015748031497,
          "duration": 0.227272499999998
        },
        {
          "name": "F#2",
          "midi": 42,
          "time": 100.22717249999961,
          "velocity": 0.7874015748031497,
          "duration": 0.227272499999998
        },
        {
          "name": "F#1",
          "midi": 30,
          "time": 100.22717249999961,
          "velocity": 0.7874015748031497,
          "duration": 0.227272499999998
        },
        {
          "name": "C#3",
          "midi": 49,
          "time": 100.22717249999961,
          "velocity": 0.7874015748031497,
          "duration": 0.227272499999998
        },
        {
          "name": "F#2",
          "midi": 42,
          "time": 100.45444499999961,
          "velocity": 0.7874015748031497,
          "duration": 0.227272499999998
        },
        {
          "name": "F#1",
          "midi": 30,
          "time": 100.45444499999961,
          "velocity": 0.7874015748031497,
          "duration": 0.227272499999998
        },
        {
          "name": "C#3",
          "midi": 49,
          "time": 100.45444499999961,
          "velocity": 0.7874015748031497,
          "duration": 0.227272499999998
        },
        {
          "name": "D3",
          "midi": 50,
          "time": 101.81807999999961,
          "velocity": 0.7874015748031497,
          "duration": 0.227272499999998
        },
        {
          "name": "D2",
          "midi": 38,
          "time": 101.81807999999961,
          "velocity": 0.7874015748031497,
          "duration": 0.227272499999998
        },
        {
          "name": "D3",
          "midi": 50,
          "time": 102.04535249999961,
          "velocity": 0.7874015748031497,
          "duration": 0.227272499999998
        },
        {
          "name": "D3",
          "midi": 50,
          "time": 102.2726249999996,
          "velocity": 0.7874015748031497,
          "duration": 0.227272499999998
        },
        {
          "name": "D2",
          "midi": 38,
          "time": 102.4998974999996,
          "velocity": 0.7874015748031497,
          "duration": 0.227272499999998
        },
        {
          "name": "D3",
          "midi": 50,
          "time": 102.7271699999996,
          "velocity": 0.7874015748031497,
          "duration": 0.227272499999998
        },
        {
          "name": "D3",
          "midi": 50,
          "time": 102.9544424999996,
          "velocity": 0.7874015748031497,
          "duration": 0.227272499999998
        },
        {
          "name": "D3",
          "midi": 50,
          "time": 103.1817149999996,
          "velocity": 0.7874015748031497,
          "duration": 0.227272499999998
        },
        {
          "name": "D2",
          "midi": 38,
          "time": 103.1817149999996,
          "velocity": 0.7874015748031497,
          "duration": 0.227272499999998
        },
        {
          "name": "D2",
          "midi": 38,
          "time": 103.4089874999996,
          "velocity": 0.7874015748031497,
          "duration": 0.227272499999998
        },
        {
          "name": "D2",
          "midi": 38,
          "time": 103.6362599999996,
          "velocity": 0.7874015748031497,
          "duration": 0.227272499999998
        },
        {
          "name": "D3",
          "midi": 50,
          "time": 103.6362599999996,
          "velocity": 0.7874015748031497,
          "duration": 0.227272499999998
        },
        {
          "name": "D3",
          "midi": 50,
          "time": 103.8635324999996,
          "velocity": 0.7874015748031497,
          "duration": 0.227272499999998
        },
        {
          "name": "D3",
          "midi": 50,
          "time": 104.09080499999959,
          "velocity": 0.7874015748031497,
          "duration": 0.227272499999998
        },
        {
          "name": "D2",
          "midi": 38,
          "time": 104.31807749999959,
          "velocity": 0.7874015748031497,
          "duration": 0.227272499999998
        },
        {
          "name": "D3",
          "midi": 50,
          "time": 104.54534999999959,
          "velocity": 0.7874015748031497,
          "duration": 0.227272499999998
        },
        {
          "name": "D3",
          "midi": 50,
          "time": 104.77262249999958,
          "velocity": 0.7874015748031497,
          "duration": 0.227272499999998
        },
        {
          "name": "D3",
          "midi": 50,
          "time": 104.99989499999958,
          "velocity": 0.7874015748031497,
          "duration": 0.227272499999998
        },
        {
          "name": "D2",
          "midi": 38,
          "time": 104.99989499999958,
          "velocity": 0.7874015748031497,
          "duration": 0.227272499999998
        },
        {
          "name": "D2",
          "midi": 38,
          "time": 105.22716749999958,
          "velocity": 0.7874015748031497,
          "duration": 0.227272499999998
        },
        {
          "name": "B1",
          "midi": 35,
          "time": 105.45443999999958,
          "velocity": 0.7874015748031497,
          "duration": 0.227272499999998
        },
        {
          "name": "B2",
          "midi": 47,
          "time": 105.45443999999958,
          "velocity": 0.7874015748031497,
          "duration": 0.227272499999998
        },
        {
          "name": "B2",
          "midi": 47,
          "time": 105.68171249999958,
          "velocity": 0.7874015748031497,
          "duration": 0.227272499999998
        },
        {
          "name": "B2",
          "midi": 47,
          "time": 105.90898499999957,
          "velocity": 0.7874015748031497,
          "duration": 0.227272499999998
        },
        {
          "name": "B1",
          "midi": 35,
          "time": 106.13625749999957,
          "velocity": 0.7874015748031497,
          "duration": 0.227272499999998
        },
        {
          "name": "B2",
          "midi": 47,
          "time": 106.36352999999957,
          "velocity": 0.7874015748031497,
          "duration": 0.227272499999998
        },
        {
          "name": "B2",
          "midi": 47,
          "time": 106.59080249999957,
          "velocity": 0.7874015748031497,
          "duration": 0.227272499999998
        },
        {
          "name": "B2",
          "midi": 47,
          "time": 106.81807499999957,
          "velocity": 0.7874015748031497,
          "duration": 0.227272499999998
        },
        {
          "name": "B1",
          "midi": 35,
          "time": 106.81807499999957,
          "velocity": 0.7874015748031497,
          "duration": 0.227272499999998
        },
        {
          "name": "B1",
          "midi": 35,
          "time": 107.04534749999956,
          "velocity": 0.7874015748031497,
          "duration": 0.227272499999998
        },
        {
          "name": "B2",
          "midi": 47,
          "time": 107.27261999999956,
          "velocity": 0.7874015748031497,
          "duration": 0.227272499999998
        },
        {
          "name": "B1",
          "midi": 35,
          "time": 107.27261999999956,
          "velocity": 0.7874015748031497,
          "duration": 0.227272499999998
        },
        {
          "name": "B2",
          "midi": 47,
          "time": 107.49989249999956,
          "velocity": 0.7874015748031497,
          "duration": 0.227272499999998
        },
        {
          "name": "B2",
          "midi": 47,
          "time": 107.72716499999956,
          "velocity": 0.7874015748031497,
          "duration": 0.227272499999998
        },
        {
          "name": "B1",
          "midi": 35,
          "time": 107.95443749999956,
          "velocity": 0.7874015748031497,
          "duration": 0.227272499999998
        },
        {
          "name": "B2",
          "midi": 47,
          "time": 108.18170999999955,
          "velocity": 0.7874015748031497,
          "duration": 0.227272499999998
        },
        {
          "name": "B2",
          "midi": 47,
          "time": 108.40898249999955,
          "velocity": 0.7874015748031497,
          "duration": 0.227272499999998
        },
        {
          "name": "B2",
          "midi": 47,
          "time": 108.63625499999955,
          "velocity": 0.7874015748031497,
          "duration": 0.227272499999998
        },
        {
          "name": "B1",
          "midi": 35,
          "time": 108.63625499999955,
          "velocity": 0.7874015748031497,
          "duration": 0.227272499999998
        },
        {
          "name": "B1",
          "midi": 35,
          "time": 108.86352749999955,
          "velocity": 0.7874015748031497,
          "duration": 0.227272499999998
        },
        {
          "name": "B1",
          "midi": 35,
          "time": 109.09079999999955,
          "velocity": 0.7874015748031497,
          "duration": 0.227272499999998
        },
        {
          "name": "B2",
          "midi": 47,
          "time": 109.31807249999954,
          "velocity": 0.7874015748031497,
          "duration": 0.227272499999998
        },
        {
          "name": "F#3",
          "midi": 54,
          "time": 109.54534499999954,
          "velocity": 0.7874015748031497,
          "duration": 0.227272499999998
        },
        {
          "name": "B3",
          "midi": 59,
          "time": 109.77261749999954,
          "velocity": 0.7874015748031497,
          "duration": 0.227272499999998
        },
        {
          "name": "B2",
          "midi": 47,
          "time": 109.77261749999954,
          "velocity": 0.7874015748031497,
          "duration": 0.227272499999998
        },
        {
          "name": "B1",
          "midi": 35,
          "time": 109.99988999999954,
          "velocity": 0.7874015748031497,
          "duration": 0.227272499999998
        },
        {
          "name": "B2",
          "midi": 47,
          "time": 109.99988999999954,
          "velocity": 0.7874015748031497,
          "duration": 0.227272499999998
        },
        {
          "name": "F#3",
          "midi": 54,
          "time": 109.99988999999954,
          "velocity": 0.7874015748031497,
          "duration": 0.227272499999998
        },
        {
          "name": "B3",
          "midi": 59,
          "time": 109.99988999999954,
          "velocity": 0.7874015748031497,
          "duration": 0.227272499999998
        },
        {
          "name": "D4",
          "midi": 62,
          "time": 109.99988999999954,
          "velocity": 0.7874015748031497,
          "duration": 0.227272499999998
        },
        {
          "name": "B2",
          "midi": 47,
          "time": 110.22716249999954,
          "velocity": 0.7874015748031497,
          "duration": 0.227272499999998
        },
        {
          "name": "B2",
          "midi": 47,
          "time": 110.45443499999953,
          "velocity": 0.7874015748031497,
          "duration": 0.227272499999998
        },
        {
          "name": "B1",
          "midi": 35,
          "time": 110.68170749999953,
          "velocity": 0.7874015748031497,
          "duration": 0.227272499999998
        },
        {
          "name": "B1",
          "midi": 35,
          "time": 110.90897999999953,
          "velocity": 0.7874015748031497,
          "duration": 0.227272499999998
        },
        {
          "name": "B2",
          "midi": 47,
          "time": 111.13625249999953,
          "velocity": 0.7874015748031497,
          "duration": 0.227272499999998
        },
        {
          "name": "F#3",
          "midi": 54,
          "time": 111.36352499999953,
          "velocity": 0.7874015748031497,
          "duration": 0.227272499999998
        },
        {
          "name": "B3",
          "midi": 59,
          "time": 111.36352499999953,
          "velocity": 0.7874015748031497,
          "duration": 0.227272499999998
        },
        {
          "name": "D4",
          "midi": 62,
          "time": 111.36352499999953,
          "velocity": 0.7874015748031497,
          "duration": 0.227272499999998
        },
        {
          "name": "B1",
          "midi": 35,
          "time": 111.36352499999953,
          "velocity": 0.7874015748031497,
          "duration": 0.227272499999998
        },
        {
          "name": "B2",
          "midi": 47,
          "time": 111.59079749999952,
          "velocity": 0.7874015748031497,
          "duration": 0.227272499999998
        },
        {
          "name": "B2",
          "midi": 47,
          "time": 111.81806999999952,
          "velocity": 0.7874015748031497,
          "duration": 0.227272499999998
        },
        {
          "name": "B1",
          "midi": 35,
          "time": 111.81806999999952,
          "velocity": 0.7874015748031497,
          "duration": 0.227272499999998
        },
        {
          "name": "F#3",
          "midi": 54,
          "time": 112.04534249999952,
          "velocity": 0.7874015748031497,
          "duration": 0.227272499999998
        },
        {
          "name": "B3",
          "midi": 59,
          "time": 112.04534249999952,
          "velocity": 0.7874015748031497,
          "duration": 0.227272499999998
        },
        {
          "name": "D4",
          "midi": 62,
          "time": 112.04534249999952,
          "velocity": 0.7874015748031497,
          "duration": 0.227272499999998
        },
        {
          "name": "B2",
          "midi": 47,
          "time": 112.27261499999952,
          "velocity": 0.7874015748031497,
          "duration": 0.227272499999998
        },
        {
          "name": "B1",
          "midi": 35,
          "time": 112.49988749999952,
          "velocity": 0.7874015748031497,
          "duration": 0.227272499999998
        },
        {
          "name": "C#2",
          "midi": 37,
          "time": 112.72715999999951,
          "velocity": 0.7874015748031497,
          "duration": 0.227272499999998
        },
        {
          "name": "C#3",
          "midi": 49,
          "time": 112.95443249999951,
          "velocity": 0.7874015748031497,
          "duration": 0.227272499999998
        },
        {
          "name": "B3",
          "midi": 59,
          "time": 113.18170499999951,
          "velocity": 0.7874015748031497,
          "duration": 0.227272499999998
        },
        {
          "name": "C#4",
          "midi": 61,
          "time": 113.18170499999951,
          "velocity": 0.7874015748031497,
          "duration": 0.227272499999998
        },
        {
          "name": "G#3",
          "midi": 56,
          "time": 113.18170499999951,
          "velocity": 0.7874015748031497,
          "duration": 0.227272499999998
        },
        {
          "name": "C#3",
          "midi": 49,
          "time": 113.40897749999951,
          "velocity": 0.7874015748031497,
          "duration": 0.227272499999998
        },
        {
          "name": "C#3",
          "midi": 49,
          "time": 113.6362499999995,
          "velocity": 0.7874015748031497,
          "duration": 0.227272499999998
        },
        {
          "name": "C#2",
          "midi": 37,
          "time": 113.6362499999995,
          "velocity": 0.7874015748031497,
          "duration": 0.227272499999998
        },
        {
          "name": "C#3",
          "midi": 49,
          "time": 113.8635224999995,
          "velocity": 0.7874015748031497,
          "duration": 0.227272499999998
        },
        {
          "name": "C#3",
          "midi": 49,
          "time": 114.0907949999995,
          "velocity": 0.7874015748031497,
          "duration": 0.227272499999998
        },
        {
          "name": "C#3",
          "midi": 49,
          "time": 114.3180674999995,
          "velocity": 0.7874015748031497,
          "duration": 0.227272499999998
        },
        {
          "name": "C#2",
          "midi": 37,
          "time": 114.3180674999995,
          "velocity": 0.7874015748031497,
          "duration": 0.227272499999998
        },
        {
          "name": "C#2",
          "midi": 37,
          "time": 114.5453399999995,
          "velocity": 0.7874015748031497,
          "duration": 0.227272499999998
        },
        {
          "name": "C#3",
          "midi": 49,
          "time": 114.7726124999995,
          "velocity": 0.7874015748031497,
          "duration": 0.227272499999998
        },
        {
          "name": "G#3",
          "midi": 56,
          "time": 114.9998849999995,
          "velocity": 0.7874015748031497,
          "duration": 0.227272499999998
        },
        {
          "name": "B3",
          "midi": 59,
          "time": 114.9998849999995,
          "velocity": 0.7874015748031497,
          "duration": 0.227272499999998
        },
        {
          "name": "C#4",
          "midi": 61,
          "time": 114.9998849999995,
          "velocity": 0.7874015748031497,
          "duration": 0.227272499999998
        },
        {
          "name": "C#3",
          "midi": 49,
          "time": 115.22715749999949,
          "velocity": 0.7874015748031497,
          "duration": 0.227272499999998
        },
        {
          "name": "C#2",
          "midi": 37,
          "time": 115.45442999999949,
          "velocity": 0.7874015748031497,
          "duration": 0.227272499999998
        },
        {
          "name": "C#3",
          "midi": 49,
          "time": 115.45442999999949,
          "velocity": 0.7874015748031497,
          "duration": 0.227272499999998
        },
        {
          "name": "B3",
          "midi": 59,
          "time": 115.68170249999949,
          "velocity": 0.7874015748031497,
          "duration": 0.227272499999998
        },
        {
          "name": "C#4",
          "midi": 61,
          "time": 115.68170249999949,
          "velocity": 0.7874015748031497,
          "duration": 0.227272499999998
        },
        {
          "name": "G#3",
          "midi": 56,
          "time": 115.68170249999949,
          "velocity": 0.7874015748031497,
          "duration": 0.227272499999998
        },
        {
          "name": "C#3",
          "midi": 49,
          "time": 115.90897499999949,
          "velocity": 0.7874015748031497,
          "duration": 0.227272499999998
        },
        {
          "name": "C#2",
          "midi": 37,
          "time": 116.13624749999948,
          "velocity": 0.7874015748031497,
          "duration": 0.227272499999998
        },
        {
          "name": "D2",
          "midi": 38,
          "time": 116.36351999999948,
          "velocity": 0.7874015748031497,
          "duration": 1.13636249999999
        },
        {
          "name": "A2",
          "midi": 45,
          "time": 116.59079249999948,
          "velocity": 0.7874015748031497,
          "duration": 1.13636249999999
        },
        {
          "name": "D3",
          "midi": 50,
          "time": 116.81806499999948,
          "velocity": 0.7874015748031497,
          "duration": 1.13636249999999
        },
        {
          "name": "F#3",
          "midi": 54,
          "time": 117.72715499999947,
          "velocity": 0.7874015748031497,
          "duration": 0.909089999999992
        },
        {
          "name": "A2",
          "midi": 45,
          "time": 118.40897249999946,
          "velocity": 0.7874015748031497,
          "duration": 0.909089999999992
        },
        {
          "name": "D3",
          "midi": 50,
          "time": 118.63624499999946,
          "velocity": 0.7874015748031497,
          "duration": 0.909089999999992
        },
        {
          "name": "D2",
          "midi": 38,
          "time": 119.09078999999946,
          "velocity": 0.7874015748031497,
          "duration": 0.909089999999992
        },
        {
          "name": "F#3",
          "midi": 54,
          "time": 119.54533499999945,
          "velocity": 0.7874015748031497,
          "duration": 0.454544999999996
        },
        {
          "name": "B1",
          "midi": 35,
          "time": 119.99987999999945,
          "velocity": 0.7874015748031497,
          "duration": 1.8181799999999981
        },
        {
          "name": "F#2",
          "midi": 42,
          "time": 120.22715249999945,
          "velocity": 0.7874015748031497,
          "duration": 1.8181799999999981
        },
        {
          "name": "B2",
          "midi": 47,
          "time": 120.45442499999945,
          "velocity": 0.7874015748031497,
          "duration": 1.8181799999999981
        },
        {
          "name": "D3",
          "midi": 50,
          "time": 121.36351499999945,
          "velocity": 0.7874015748031497,
          "duration": 1.818179999999984
        },
        {
          "name": "F#2",
          "midi": 42,
          "time": 122.04533249999945,
          "velocity": 0.7874015748031497,
          "duration": 1.477271249999987
        },
        {
          "name": "B2",
          "midi": 47,
          "time": 122.27260499999944,
          "velocity": 0.7874015748031497,
          "duration": 1.363634999999988
        },
        {
          "name": "B1",
          "midi": 35,
          "time": 122.72714999999944,
          "velocity": 0.7874015748031497,
          "duration": 0.454544999999996
        },
        {
          "name": "D3",
          "midi": 50,
          "time": 123.18169499999944,
          "velocity": 0.7874015748031497,
          "duration": 0.454544999999996
        },
        {
          "name": "C#2",
          "midi": 37,
          "time": 123.63623999999943,
          "velocity": 0.7874015748031497,
          "duration": 1.13636249999999
        },
        {
          "name": "G#2",
          "midi": 44,
          "time": 123.86351249999943,
          "velocity": 0.7874015748031497,
          "duration": 1.13636249999999
        },
        {
          "name": "C#3",
          "midi": 49,
          "time": 124.09078499999943,
          "velocity": 0.7874015748031497,
          "duration": 1.13636249999999
        },
        {
          "name": "E3",
          "midi": 52,
          "time": 124.31805749999943,
          "velocity": 0.7874015748031497,
          "duration": 1.13636249999999
        },
        {
          "name": "C#2",
          "midi": 37,
          "time": 125.45441999999942,
          "velocity": 0.7874015748031497,
          "duration": 1.13636249999999
        },
        {
          "name": "G#2",
          "midi": 44,
          "time": 125.68169249999941,
          "velocity": 0.7874015748031497,
          "duration": 1.13636249999999
        },
        {
          "name": "C#3",
          "midi": 49,
          "time": 125.90896499999941,
          "velocity": 0.7874015748031497,
          "duration": 1.13636249999999
        },
        {
          "name": "E3",
          "midi": 52,
          "time": 126.13623749999941,
          "velocity": 0.7874015748031497,
          "duration": 1.13636249999999
        },
        {
          "name": "F#2",
          "midi": 42,
          "time": 127.2725999999994,
          "velocity": 0.7874015748031497,
          "duration": 1.1363625000000042
        },
        {
          "name": "C#3",
          "midi": 49,
          "time": 127.4998724999994,
          "velocity": 0.7874015748031497,
          "duration": 1.1363625000000042
        },
        {
          "name": "F#3",
          "midi": 54,
          "time": 127.7271449999994,
          "velocity": 0.7874015748031497,
          "duration": 1.1363625000000042
        },
        {
          "name": "A3",
          "midi": 57,
          "time": 127.9544174999994,
          "velocity": 0.7874015748031497,
          "duration": 1.1363625000000042
        },
        {
          "name": "C#3",
          "midi": 49,
          "time": 129.0907799999994,
          "velocity": 0.7874015748031497,
          "duration": 0.227272499999998
        },
        {
          "name": "F#2",
          "midi": 42,
          "time": 129.0907799999994,
          "velocity": 0.7874015748031497,
          "duration": 0.227272499999998
        },
        {
          "name": "F#3",
          "midi": 54,
          "time": 129.0907799999994,
          "velocity": 0.7874015748031497,
          "duration": 0.227272499999998
        },
        {
          "name": "D1",
          "midi": 26,
          "time": 130.9089599999994,
          "velocity": 0.7874015748031497,
          "duration": 0.227272499999998
        },
        {
          "name": "D2",
          "midi": 38,
          "time": 130.9089599999994,
          "velocity": 0.7874015748031497,
          "duration": 0.227272499999998
        },
        {
          "name": "D3",
          "midi": 50,
          "time": 131.1362324999994,
          "velocity": 0.7874015748031497,
          "duration": 0.227272499999998
        },
        {
          "name": "D2",
          "midi": 38,
          "time": 131.1362324999994,
          "velocity": 0.7874015748031497,
          "duration": 0.227272499999998
        },
        {
          "name": "D3",
          "midi": 50,
          "time": 131.3635049999994,
          "velocity": 0.7874015748031497,
          "duration": 0.227272499999998
        },
        {
          "name": "D2",
          "midi": 38,
          "time": 131.3635049999994,
          "velocity": 0.7874015748031497,
          "duration": 0.227272499999998
        },
        {
          "name": "D2",
          "midi": 38,
          "time": 131.5907774999994,
          "velocity": 0.7874015748031497,
          "duration": 0.227272499999998
        },
        {
          "name": "D3",
          "midi": 50,
          "time": 131.5907774999994,
          "velocity": 0.7874015748031497,
          "duration": 0.681817499999994
        },
        {
          "name": "D2",
          "midi": 38,
          "time": 131.8180499999994,
          "velocity": 0.7874015748031497,
          "duration": 0.227272499999998
        },
        {
          "name": "D2",
          "midi": 38,
          "time": 132.0453224999994,
          "velocity": 0.7874015748031497,
          "duration": 0.227272499999998
        },
        {
          "name": "D3",
          "midi": 50,
          "time": 132.2725949999994,
          "velocity": 0.7874015748031497,
          "duration": 0.227272499999998
        },
        {
          "name": "D2",
          "midi": 38,
          "time": 132.2725949999994,
          "velocity": 0.7874015748031497,
          "duration": 0.454544999999996
        },
        {
          "name": "D2",
          "midi": 38,
          "time": 132.7271399999994,
          "velocity": 0.7874015748031497,
          "duration": 0.227272499999998
        },
        {
          "name": "D3",
          "midi": 50,
          "time": 132.7271399999994,
          "velocity": 0.7874015748031497,
          "duration": 0.681817499999994
        },
        {
          "name": "D2",
          "midi": 38,
          "time": 132.9544124999994,
          "velocity": 0.7874015748031497,
          "duration": 0.227272499999998
        },
        {
          "name": "D2",
          "midi": 38,
          "time": 133.1816849999994,
          "velocity": 0.7874015748031497,
          "duration": 0.227272499999998
        },
        {
          "name": "D3",
          "midi": 50,
          "time": 133.4089574999994,
          "velocity": 0.7874015748031497,
          "duration": 0.681817499999994
        },
        {
          "name": "D2",
          "midi": 38,
          "time": 133.4089574999994,
          "velocity": 0.7874015748031497,
          "duration": 0.227272499999998
        },
        {
          "name": "D2",
          "midi": 38,
          "time": 133.6362299999994,
          "velocity": 0.7874015748031497,
          "duration": 0.227272499999998
        },
        {
          "name": "D2",
          "midi": 38,
          "time": 133.86350249999938,
          "velocity": 0.7874015748031497,
          "duration": 0.227272499999998
        },
        {
          "name": "D3",
          "midi": 50,
          "time": 134.09077499999938,
          "velocity": 0.7874015748031497,
          "duration": 0.454544999999996
        },
        {
          "name": "D2",
          "midi": 38,
          "time": 134.09077499999938,
          "velocity": 0.7874015748031497,
          "duration": 0.454544999999996
        },
        {
          "name": "B0",
          "midi": 23,
          "time": 134.54531999999938,
          "velocity": 0.7874015748031497,
          "duration": 0.227272499999998
        },
        {
          "name": "B2",
          "midi": 47,
          "time": 134.54531999999938,
          "velocity": 0.7874015748031497,
          "duration": 0.681817499999994
        },
        {
          "name": "B1",
          "midi": 35,
          "time": 134.54531999999938,
          "velocity": 0.7874015748031497,
          "duration": 0.227272499999998
        },
        {
          "name": "B1",
          "midi": 35,
          "time": 134.77259249999938,
          "velocity": 0.7874015748031497,
          "duration": 0.227272499999998
        },
        {
          "name": "B1",
          "midi": 35,
          "time": 134.99986499999937,
          "velocity": 0.7874015748031497,
          "duration": 0.227272499999998
        },
        {
          "name": "B2",
          "midi": 47,
          "time": 135.22713749999937,
          "velocity": 0.7874015748031497,
          "duration": 0.681817499999994
        },
        {
          "name": "B1",
          "midi": 35,
          "time": 135.22713749999937,
          "velocity": 0.7874015748031497,
          "duration": 0.227272499999998
        },
        {
          "name": "B1",
          "midi": 35,
          "time": 135.45440999999937,
          "velocity": 0.7874015748031497,
          "duration": 0.227272499999998
        },
        {
          "name": "B1",
          "midi": 35,
          "time": 135.68168249999937,
          "velocity": 0.7874015748031497,
          "duration": 0.227272499999998
        },
        {
          "name": "B2",
          "midi": 47,
          "time": 135.90895499999937,
          "velocity": 0.7874015748031497,
          "duration": 0.454544999999996
        },
        {
          "name": "B1",
          "midi": 35,
          "time": 135.90895499999937,
          "velocity": 0.7874015748031497,
          "duration": 0.454544999999996
        },
        {
          "name": "B1",
          "midi": 35,
          "time": 136.36349999999936,
          "velocity": 0.7874015748031497,
          "duration": 0.227272499999998
        },
        {
          "name": "B2",
          "midi": 47,
          "time": 136.36349999999936,
          "velocity": 0.7874015748031497,
          "duration": 0.681817499999994
        },
        {
          "name": "B1",
          "midi": 35,
          "time": 136.59077249999936,
          "velocity": 0.7874015748031497,
          "duration": 0.227272499999998
        },
        {
          "name": "B1",
          "midi": 35,
          "time": 136.81804499999936,
          "velocity": 0.7874015748031497,
          "duration": 0.227272499999998
        },
        {
          "name": "B2",
          "midi": 47,
          "time": 137.04531749999936,
          "velocity": 0.7874015748031497,
          "duration": 0.681817499999994
        },
        {
          "name": "B1",
          "midi": 35,
          "time": 137.04531749999936,
          "velocity": 0.7874015748031497,
          "duration": 0.227272499999998
        },
        {
          "name": "B1",
          "midi": 35,
          "time": 137.27258999999935,
          "velocity": 0.7874015748031497,
          "duration": 0.227272499999998
        },
        {
          "name": "B1",
          "midi": 35,
          "time": 137.49986249999935,
          "velocity": 0.7874015748031497,
          "duration": 0.227272499999998
        },
        {
          "name": "B2",
          "midi": 47,
          "time": 137.72713499999935,
          "velocity": 0.7874015748031497,
          "duration": 0.454544999999996
        },
        {
          "name": "B1",
          "midi": 35,
          "time": 137.72713499999935,
          "velocity": 0.7874015748031497,
          "duration": 0.454544999999996
        },
        {
          "name": "C#1",
          "midi": 25,
          "time": 138.18167999999935,
          "velocity": 0.7874015748031497,
          "duration": 0.227272499999998
        },
        {
          "name": "C#3",
          "midi": 49,
          "time": 138.18167999999935,
          "velocity": 0.7874015748031497,
          "duration": 0.681817499999994
        },
        {
          "name": "C#2",
          "midi": 37,
          "time": 138.18167999999935,
          "velocity": 0.7874015748031497,
          "duration": 0.227272499999998
        },
        {
          "name": "C#2",
          "midi": 37,
          "time": 138.40895249999934,
          "velocity": 0.7874015748031497,
          "duration": 0.227272499999998
        },
        {
          "name": "C#2",
          "midi": 37,
          "time": 138.63622499999934,
          "velocity": 0.7874015748031497,
          "duration": 0.227272499999998
        },
        {
          "name": "C#3",
          "midi": 49,
          "time": 138.86349749999934,
          "velocity": 0.7874015748031497,
          "duration": 0.681817499999994
        },
        {
          "name": "C#2",
          "midi": 37,
          "time": 138.86349749999934,
          "velocity": 0.7874015748031497,
          "duration": 0.227272499999998
        },
        {
          "name": "C#2",
          "midi": 37,
          "time": 139.09076999999934,
          "velocity": 0.7874015748031497,
          "duration": 0.227272499999998
        },
        {
          "name": "C#2",
          "midi": 37,
          "time": 139.31804249999934,
          "velocity": 0.7874015748031497,
          "duration": 0.227272499999998
        },
        {
          "name": "C#2",
          "midi": 37,
          "time": 139.54531499999933,
          "velocity": 0.7874015748031497,
          "duration": 0.454544999999996
        },
        {
          "name": "C#3",
          "midi": 49,
          "time": 139.54531499999933,
          "velocity": 0.7874015748031497,
          "duration": 0.454544999999996
        },
        {
          "name": "C#2",
          "midi": 37,
          "time": 139.99985999999933,
          "velocity": 0.7874015748031497,
          "duration": 0.227272499999998
        },
        {
          "name": "C#3",
          "midi": 49,
          "time": 139.99985999999933,
          "velocity": 0.7874015748031497,
          "duration": 0.681817499999994
        },
        {
          "name": "C#2",
          "midi": 37,
          "time": 140.22713249999933,
          "velocity": 0.7874015748031497,
          "duration": 0.227272499999998
        },
        {
          "name": "C#2",
          "midi": 37,
          "time": 140.45440499999933,
          "velocity": 0.7874015748031497,
          "duration": 0.227272499999998
        },
        {
          "name": "C#3",
          "midi": 49,
          "time": 140.68167749999932,
          "velocity": 0.7874015748031497,
          "duration": 0.681817499999994
        },
        {
          "name": "C#2",
          "midi": 37,
          "time": 140.68167749999932,
          "velocity": 0.7874015748031497,
          "duration": 0.227272499999998
        },
        {
          "name": "C#2",
          "midi": 37,
          "time": 140.90894999999932,
          "velocity": 0.7874015748031497,
          "duration": 0.227272499999998
        },
        {
          "name": "C#2",
          "midi": 37,
          "time": 141.13622249999932,
          "velocity": 0.7874015748031497,
          "duration": 0.227272499999998
        },
        {
          "name": "C#3",
          "midi": 49,
          "time": 141.36349499999932,
          "velocity": 0.7874015748031497,
          "duration": 0.454544999999996
        },
        {
          "name": "C#2",
          "midi": 37,
          "time": 141.36349499999932,
          "velocity": 0.7874015748031497,
          "duration": 0.454544999999996
        },
        {
          "name": "F#1",
          "midi": 30,
          "time": 141.8180399999993,
          "velocity": 0.7874015748031497,
          "duration": 0.227272499999998
        },
        {
          "name": "F#3",
          "midi": 54,
          "time": 141.8180399999993,
          "velocity": 0.7874015748031497,
          "duration": 0.681817499999994
        },
        {
          "name": "F#2",
          "midi": 42,
          "time": 141.8180399999993,
          "velocity": 0.7874015748031497,
          "duration": 0.227272499999998
        },
        {
          "name": "F#2",
          "midi": 42,
          "time": 142.0453124999993,
          "velocity": 0.7874015748031497,
          "duration": 0.227272499999998
        },
        {
          "name": "F#2",
          "midi": 42,
          "time": 142.2725849999993,
          "velocity": 0.7874015748031497,
          "duration": 0.227272499999998
        },
        {
          "name": "F#2",
          "midi": 42,
          "time": 142.4998574999993,
          "velocity": 0.7874015748031497,
          "duration": 0.227272499999998
        },
        {
          "name": "F#3",
          "midi": 54,
          "time": 142.4998574999993,
          "velocity": 0.7874015748031497,
          "duration": 0.681817499999994
        },
        {
          "name": "F#2",
          "midi": 42,
          "time": 142.7271299999993,
          "velocity": 0.7874015748031497,
          "duration": 0.227272499999998
        },
        {
          "name": "F#2",
          "midi": 42,
          "time": 142.9544024999993,
          "velocity": 0.7874015748031497,
          "duration": 0.227272499999998
        },
        {
          "name": "F#2",
          "midi": 42,
          "time": 143.1816749999993,
          "velocity": 0.7874015748031497,
          "duration": 0.454544999999996
        },
        {
          "name": "F#3",
          "midi": 54,
          "time": 143.1816749999993,
          "velocity": 0.7874015748031497,
          "duration": 0.454544999999996
        },
        {
          "name": "F#3",
          "midi": 54,
          "time": 143.6362199999993,
          "velocity": 0.7874015748031497,
          "duration": 0.681817499999994
        },
        {
          "name": "F#2",
          "midi": 42,
          "time": 143.6362199999993,
          "velocity": 0.7874015748031497,
          "duration": 0.227272499999998
        },
        {
          "name": "F#2",
          "midi": 42,
          "time": 143.8634924999993,
          "velocity": 0.7874015748031497,
          "duration": 0.227272499999998
        },
        {
          "name": "F#2",
          "midi": 42,
          "time": 144.0907649999993,
          "velocity": 0.7874015748031497,
          "duration": 0.227272499999998
        },
        {
          "name": "F#3",
          "midi": 54,
          "time": 144.3180374999993,
          "velocity": 0.7874015748031497,
          "duration": 0.681817499999994
        },
        {
          "name": "F#2",
          "midi": 42,
          "time": 144.3180374999993,
          "velocity": 0.7874015748031497,
          "duration": 0.227272499999998
        },
        {
          "name": "F#2",
          "midi": 42,
          "time": 144.5453099999993,
          "velocity": 0.7874015748031497,
          "duration": 0.227272499999998
        },
        {
          "name": "F#2",
          "midi": 42,
          "time": 144.7725824999993,
          "velocity": 0.7874015748031497,
          "duration": 0.227272499999998
        },
        {
          "name": "F#2",
          "midi": 42,
          "time": 144.9998549999993,
          "velocity": 0.7874015748031497,
          "duration": 0.454544999999996
        },
        {
          "name": "F#3",
          "midi": 54,
          "time": 144.9998549999993,
          "velocity": 0.7874015748031497,
          "duration": 0.454544999999996
        },
        {
          "name": "D3",
          "midi": 50,
          "time": 145.45439999999928,
          "velocity": 0.7874015748031497,
          "duration": 0.681817499999994
        },
        {
          "name": "D2",
          "midi": 38,
          "time": 145.45439999999928,
          "velocity": 0.7874015748031497,
          "duration": 0.227272499999998
        },
        {
          "name": "D2",
          "midi": 38,
          "time": 145.68167249999928,
          "velocity": 0.7874015748031497,
          "duration": 0.227272499999998
        },
        {
          "name": "D2",
          "midi": 38,
          "time": 145.90894499999928,
          "velocity": 0.7874015748031497,
          "duration": 0.227272499999998
        },
        {
          "name": "D3",
          "midi": 50,
          "time": 146.13621749999928,
          "velocity": 0.7874015748031497,
          "duration": 0.681817499999994
        },
        {
          "name": "D2",
          "midi": 38,
          "time": 146.13621749999928,
          "velocity": 0.7874015748031497,
          "duration": 0.227272499999998
        },
        {
          "name": "D2",
          "midi": 38,
          "time": 146.36348999999927,
          "velocity": 0.7874015748031497,
          "duration": 0.227272499999998
        },
        {
          "name": "D2",
          "midi": 38,
          "time": 146.59076249999927,
          "velocity": 0.7874015748031497,
          "duration": 0.227272499999998
        },
        {
          "name": "D3",
          "midi": 50,
          "time": 146.81803499999927,
          "velocity": 0.7874015748031497,
          "duration": 0.454544999999996
        },
        {
          "name": "D2",
          "midi": 38,
          "time": 146.81803499999927,
          "velocity": 0.7874015748031497,
          "duration": 0.454544999999996
        },
        {
          "name": "D2",
          "midi": 38,
          "time": 147.27257999999927,
          "velocity": 0.7874015748031497,
          "duration": 0.227272499999998
        },
        {
          "name": "D3",
          "midi": 50,
          "time": 147.27257999999927,
          "velocity": 0.7874015748031497,
          "duration": 0.681817499999994
        },
        {
          "name": "D2",
          "midi": 38,
          "time": 147.49985249999926,
          "velocity": 0.7874015748031497,
          "duration": 0.227272499999998
        },
        {
          "name": "D2",
          "midi": 38,
          "time": 147.72712499999926,
          "velocity": 0.7874015748031497,
          "duration": 0.227272499999998
        },
        {
          "name": "D3",
          "midi": 50,
          "time": 147.95439749999926,
          "velocity": 0.7874015748031497,
          "duration": 0.681817499999994
        },
        {
          "name": "D2",
          "midi": 38,
          "time": 147.95439749999926,
          "velocity": 0.7874015748031497,
          "duration": 0.227272499999998
        },
        {
          "name": "D2",
          "midi": 38,
          "time": 148.18166999999926,
          "velocity": 0.7874015748031497,
          "duration": 0.227272499999998
        },
        {
          "name": "D2",
          "midi": 38,
          "time": 148.40894249999926,
          "velocity": 0.7874015748031497,
          "duration": 0.227272499999998
        },
        {
          "name": "D2",
          "midi": 38,
          "time": 148.63621499999925,
          "velocity": 0.7874015748031497,
          "duration": 0.454544999999996
        },
        {
          "name": "D3",
          "midi": 50,
          "time": 148.63621499999925,
          "velocity": 0.7874015748031497,
          "duration": 0.454544999999996
        },
        {
          "name": "B1",
          "midi": 35,
          "time": 149.09075999999925,
          "velocity": 0.7874015748031497,
          "duration": 0.227272499999998
        },
        {
          "name": "B2",
          "midi": 47,
          "time": 149.09075999999925,
          "velocity": 0.7874015748031497,
          "duration": 0.681817499999994
        },
        {
          "name": "B1",
          "midi": 35,
          "time": 149.31803249999925,
          "velocity": 0.7874015748031497,
          "duration": 0.227272499999998
        },
        {
          "name": "B1",
          "midi": 35,
          "time": 149.54530499999925,
          "velocity": 0.7874015748031497,
          "duration": 0.227272499999998
        },
        {
          "name": "B2",
          "midi": 47,
          "time": 149.77257749999924,
          "velocity": 0.7874015748031497,
          "duration": 0.681817499999994
        },
        {
          "name": "B1",
          "midi": 35,
          "time": 149.77257749999924,
          "velocity": 0.7874015748031497,
          "duration": 0.227272499999998
        },
        {
          "name": "B1",
          "midi": 35,
          "time": 149.99984999999924,
          "velocity": 0.7874015748031497,
          "duration": 0.227272499999998
        },
        {
          "name": "B1",
          "midi": 35,
          "time": 150.22712249999924,
          "velocity": 0.7874015748031497,
          "duration": 0.227272499999998
        },
        {
          "name": "B2",
          "midi": 47,
          "time": 150.45439499999924,
          "velocity": 0.7874015748031497,
          "duration": 0.454544999999996
        },
        {
          "name": "B1",
          "midi": 35,
          "time": 150.45439499999924,
          "velocity": 0.7874015748031497,
          "duration": 0.454544999999996
        },
        {
          "name": "B1",
          "midi": 35,
          "time": 150.90893999999923,
          "velocity": 0.7874015748031497,
          "duration": 0.227272499999998
        },
        {
          "name": "B2",
          "midi": 47,
          "time": 150.90893999999923,
          "velocity": 0.7874015748031497,
          "duration": 0.681817499999994
        },
        {
          "name": "B1",
          "midi": 35,
          "time": 151.13621249999923,
          "velocity": 0.7874015748031497,
          "duration": 0.227272499999998
        },
        {
          "name": "B1",
          "midi": 35,
          "time": 151.36348499999923,
          "velocity": 0.7874015748031497,
          "duration": 0.227272499999998
        },
        {
          "name": "B1",
          "midi": 35,
          "time": 151.59075749999923,
          "velocity": 0.7874015748031497,
          "duration": 0.227272499999998
        },
        {
          "name": "B2",
          "midi": 47,
          "time": 151.59075749999923,
          "velocity": 0.7874015748031497,
          "duration": 0.681817499999994
        },
        {
          "name": "B1",
          "midi": 35,
          "time": 151.81802999999923,
          "velocity": 0.7874015748031497,
          "duration": 0.227272499999998
        },
        {
          "name": "B1",
          "midi": 35,
          "time": 152.04530249999922,
          "velocity": 0.7874015748031497,
          "duration": 0.227272499999998
        },
        {
          "name": "B1",
          "midi": 35,
          "time": 152.27257499999922,
          "velocity": 0.7874015748031497,
          "duration": 0.454544999999996
        },
        {
          "name": "B2",
          "midi": 47,
          "time": 152.27257499999922,
          "velocity": 0.7874015748031497,
          "duration": 0.454544999999996
        },
        {
          "name": "C#2",
          "midi": 37,
          "time": 152.72711999999922,
          "velocity": 0.7874015748031497,
          "duration": 0.227272499999998
        },
        {
          "name": "C#3",
          "midi": 49,
          "time": 152.72711999999922,
          "velocity": 0.7874015748031497,
          "duration": 0.681817499999994
        },
        {
          "name": "C#2",
          "midi": 37,
          "time": 152.95439249999922,
          "velocity": 0.7874015748031497,
          "duration": 0.227272499999998
        },
        {
          "name": "C#2",
          "midi": 37,
          "time": 153.1816649999992,
          "velocity": 0.7874015748031497,
          "duration": 0.227272499999998
        },
        {
          "name": "C#3",
          "midi": 49,
          "time": 153.4089374999992,
          "velocity": 0.7874015748031497,
          "duration": 0.681817499999994
        },
        {
          "name": "C#2",
          "midi": 37,
          "time": 153.4089374999992,
          "velocity": 0.7874015748031497,
          "duration": 0.227272499999998
        },
        {
          "name": "C#2",
          "midi": 37,
          "time": 153.6362099999992,
          "velocity": 0.7874015748031497,
          "duration": 0.227272499999998
        },
        {
          "name": "C#2",
          "midi": 37,
          "time": 153.8634824999992,
          "velocity": 0.7874015748031497,
          "duration": 0.227272499999998
        },
        {
          "name": "C#3",
          "midi": 49,
          "time": 154.0907549999992,
          "velocity": 0.7874015748031497,
          "duration": 0.454544999999996
        },
        {
          "name": "C#2",
          "midi": 37,
          "time": 154.0907549999992,
          "velocity": 0.7874015748031497,
          "duration": 0.454544999999996
        },
        {
          "name": "C#3",
          "midi": 49,
          "time": 154.5452999999992,
          "velocity": 0.7874015748031497,
          "duration": 0.681817499999994
        },
        {
          "name": "C#2",
          "midi": 37,
          "time": 154.5452999999992,
          "velocity": 0.7874015748031497,
          "duration": 0.227272499999998
        },
        {
          "name": "C#2",
          "midi": 37,
          "time": 154.7725724999992,
          "velocity": 0.7874015748031497,
          "duration": 0.227272499999998
        },
        {
          "name": "C#2",
          "midi": 37,
          "time": 154.9998449999992,
          "velocity": 0.7874015748031497,
          "duration": 0.227272499999998
        },
        {
          "name": "C#3",
          "midi": 49,
          "time": 155.2271174999992,
          "velocity": 0.7874015748031497,
          "duration": 0.681817499999994
        },
        {
          "name": "C#2",
          "midi": 37,
          "time": 155.2271174999992,
          "velocity": 0.7874015748031497,
          "duration": 0.227272499999998
        },
        {
          "name": "C#2",
          "midi": 37,
          "time": 155.4543899999992,
          "velocity": 0.7874015748031497,
          "duration": 0.227272499999998
        },
        {
          "name": "C#2",
          "midi": 37,
          "time": 155.6816624999992,
          "velocity": 0.7874015748031497,
          "duration": 0.227272499999998
        },
        {
          "name": "C#2",
          "midi": 37,
          "time": 155.9089349999992,
          "velocity": 0.7874015748031497,
          "duration": 0.454544999999996
        },
        {
          "name": "C#3",
          "midi": 49,
          "time": 155.9089349999992,
          "velocity": 0.7874015748031497,
          "duration": 0.454544999999996
        },
        {
          "name": "F#2",
          "midi": 42,
          "time": 156.36347999999919,
          "velocity": 0.7874015748031497,
          "duration": 0.227272499999998
        },
        {
          "name": "F#3",
          "midi": 54,
          "time": 156.36347999999919,
          "velocity": 0.7874015748031497,
          "duration": 0.681817499999994
        },
        {
          "name": "F#2",
          "midi": 42,
          "time": 156.59075249999918,
          "velocity": 0.7874015748031497,
          "duration": 0.227272499999998
        },
        {
          "name": "F#2",
          "midi": 42,
          "time": 156.81802499999918,
          "velocity": 0.7874015748031497,
          "duration": 0.227272499999998
        },
        {
          "name": "F#3",
          "midi": 54,
          "time": 157.04529749999918,
          "velocity": 0.7874015748031497,
          "duration": 0.681817499999994
        },
        {
          "name": "F#2",
          "midi": 42,
          "time": 157.04529749999918,
          "velocity": 0.7874015748031497,
          "duration": 0.227272499999998
        },
        {
          "name": "F#2",
          "midi": 42,
          "time": 157.27256999999918,
          "velocity": 0.7874015748031497,
          "duration": 0.227272499999998
        },
        {
          "name": "F#2",
          "midi": 42,
          "time": 157.49984249999918,
          "velocity": 0.7874015748031497,
          "duration": 0.227272499999998
        },
        {
          "name": "F#3",
          "midi": 54,
          "time": 157.72711499999917,
          "velocity": 0.7874015748031497,
          "duration": 0.454544999999996
        },
        {
          "name": "F#2",
          "midi": 42,
          "time": 157.72711499999917,
          "velocity": 0.7874015748031497,
          "duration": 0.454544999999996
        },
        {
          "name": "F#2",
          "midi": 42,
          "time": 158.18165999999917,
          "velocity": 0.7874015748031497,
          "duration": 0.227272499999998
        },
        {
          "name": "F#3",
          "midi": 54,
          "time": 158.18165999999917,
          "velocity": 0.7874015748031497,
          "duration": 0.681817499999994
        },
        {
          "name": "F#2",
          "midi": 42,
          "time": 158.40893249999917,
          "velocity": 0.7874015748031497,
          "duration": 0.227272499999998
        },
        {
          "name": "F#2",
          "midi": 42,
          "time": 158.63620499999917,
          "velocity": 0.7874015748031497,
          "duration": 0.227272499999998
        },
        {
          "name": "F#2",
          "midi": 42,
          "time": 158.86347749999916,
          "velocity": 0.7874015748031497,
          "duration": 0.227272499999998
        },
        {
          "name": "F#3",
          "midi": 54,
          "time": 158.86347749999916,
          "velocity": 0.7874015748031497,
          "duration": 0.681817499999994
        },
        {
          "name": "F#2",
          "midi": 42,
          "time": 159.09074999999916,
          "velocity": 0.7874015748031497,
          "duration": 0.227272499999998
        },
        {
          "name": "F#2",
          "midi": 42,
          "time": 159.31802249999916,
          "velocity": 0.7874015748031497,
          "duration": 0.227272499999998
        },
        {
          "name": "F#3",
          "midi": 54,
          "time": 159.54529499999916,
          "velocity": 0.7874015748031497,
          "duration": 0.454544999999996
        },
        {
          "name": "F#2",
          "midi": 42,
          "time": 159.54529499999916,
          "velocity": 0.7874015748031497,
          "duration": 0.454544999999996
        },
        {
          "name": "D4",
          "midi": 62,
          "time": 159.99983999999915,
          "velocity": 0.7874015748031497,
          "duration": 1.818179999999984
        },
        {
          "name": "D3",
          "midi": 50,
          "time": 159.99983999999915,
          "velocity": 0.7874015748031497,
          "duration": 1.363634999999988
        },
        {
          "name": "D3",
          "midi": 50,
          "time": 161.36347499999914,
          "velocity": 0.7874015748031497,
          "duration": 0.227272499999998
        },
        {
          "name": "D3",
          "midi": 50,
          "time": 161.81801999999914,
          "velocity": 0.7874015748031497,
          "duration": 0.909089999999992
        },
        {
          "name": "D4",
          "midi": 62,
          "time": 161.81801999999914,
          "velocity": 0.7874015748031497,
          "duration": 0.681817499999994
        },
        {
          "name": "D4",
          "midi": 62,
          "time": 162.49983749999913,
          "velocity": 0.7874015748031497,
          "duration": 0.681817499999994
        },
        {
          "name": "D3",
          "midi": 50,
          "time": 163.18165499999913,
          "velocity": 0.7874015748031497,
          "duration": 0.227272499999998
        },
        {
          "name": "D4",
          "midi": 62,
          "time": 163.18165499999913,
          "velocity": 0.7874015748031497,
          "duration": 0.454544999999996
        },
        {
          "name": "B3",
          "midi": 59,
          "time": 163.63619999999912,
          "velocity": 0.7874015748031497,
          "duration": 1.818179999999984
        },
        {
          "name": "B2",
          "midi": 47,
          "time": 163.63619999999912,
          "velocity": 0.7874015748031497,
          "duration": 1.363634999999988
        },
        {
          "name": "B2",
          "midi": 47,
          "time": 164.9998349999991,
          "velocity": 0.7874015748031497,
          "duration": 0.227272499999998
        },
        {
          "name": "B3",
          "midi": 59,
          "time": 165.4543799999991,
          "velocity": 0.7874015748031497,
          "duration": 0.681817499999994
        },
        {
          "name": "B2",
          "midi": 47,
          "time": 165.4543799999991,
          "velocity": 0.7874015748031497,
          "duration": 0.909089999999992
        },
        {
          "name": "B3",
          "midi": 59,
          "time": 166.1361974999991,
          "velocity": 0.7874015748031497,
          "duration": 0.681817499999994
        },
        {
          "name": "B3",
          "midi": 59,
          "time": 166.8180149999991,
          "velocity": 0.7874015748031497,
          "duration": 0.454544999999996
        },
        {
          "name": "B2",
          "midi": 47,
          "time": 166.8180149999991,
          "velocity": 0.7874015748031497,
          "duration": 0.227272499999998
        },
        {
          "name": "C#3",
          "midi": 49,
          "time": 167.2725599999991,
          "velocity": 0.7874015748031497,
          "duration": 1.363634999999988
        },
        {
          "name": "C#4",
          "midi": 61,
          "time": 167.2725599999991,
          "velocity": 0.7874015748031497,
          "duration": 1.818179999999984
        },
        {
          "name": "C#3",
          "midi": 49,
          "time": 168.63619499999908,
          "velocity": 0.7874015748031497,
          "duration": 0.227272499999998
        },
        {
          "name": "C#3",
          "midi": 49,
          "time": 169.09073999999907,
          "velocity": 0.7874015748031497,
          "duration": 0.909089999999992
        },
        {
          "name": "C#4",
          "midi": 61,
          "time": 169.09073999999907,
          "velocity": 0.7874015748031497,
          "duration": 0.681817499999994
        },
        {
          "name": "C#4",
          "midi": 61,
          "time": 169.77255749999907,
          "velocity": 0.7874015748031497,
          "duration": 0.681817499999994
        },
        {
          "name": "C#4",
          "midi": 61,
          "time": 170.45437499999906,
          "velocity": 0.7874015748031497,
          "duration": 0.454544999999996
        },
        {
          "name": "C#3",
          "midi": 49,
          "time": 170.45437499999906,
          "velocity": 0.7874015748031497,
          "duration": 0.227272499999998
        },
        {
          "name": "F#3",
          "midi": 54,
          "time": 170.90891999999906,
          "velocity": 0.7874015748031497,
          "duration": 1.363634999999988
        },
        {
          "name": "F#4",
          "midi": 66,
          "time": 170.90891999999906,
          "velocity": 0.7874015748031497,
          "duration": 1.818179999999984
        },
        {
          "name": "F#3",
          "midi": 54,
          "time": 172.27255499999904,
          "velocity": 0.7874015748031497,
          "duration": 0.227272499999998
        },
        {
          "name": "F#3",
          "midi": 54,
          "time": 172.72709999999904,
          "velocity": 0.7874015748031497,
          "duration": 0.909089999999992
        },
        {
          "name": "F#4",
          "midi": 66,
          "time": 172.72709999999904,
          "velocity": 0.7874015748031497,
          "duration": 0.681817499999994
        },
        {
          "name": "F#4",
          "midi": 66,
          "time": 173.40891749999903,
          "velocity": 0.7874015748031497,
          "duration": 0.681817499999994
        },
        {
          "name": "F#4",
          "midi": 66,
          "time": 174.09073499999903,
          "velocity": 0.7874015748031497,
          "duration": 0.454544999999996
        },
        {
          "name": "F#3",
          "midi": 54,
          "time": 174.09073499999903,
          "velocity": 0.7874015748031497,
          "duration": 0.227272499999998
        },
        {
          "name": "D2",
          "midi": 38,
          "time": 174.54527999999902,
          "velocity": 0.7874015748031497,
          "duration": 1.818179999999984
        },
        {
          "name": "A2",
          "midi": 45,
          "time": 174.77255249999902,
          "velocity": 0.7874015748031497,
          "duration": 1.13636249999999
        },
        {
          "name": "D3",
          "midi": 50,
          "time": 174.99982499999902,
          "velocity": 0.7874015748031497,
          "duration": 1.13636249999999
        },
        {
          "name": "F#3",
          "midi": 54,
          "time": 175.22709749999902,
          "velocity": 0.7874015748031497,
          "duration": 1.13636249999999
        },
        {
          "name": "D2",
          "midi": 38,
          "time": 176.363459999999,
          "velocity": 0.7874015748031497,
          "duration": 1.818179999999984
        },
        {
          "name": "A2",
          "midi": 45,
          "time": 176.590732499999,
          "velocity": 0.7874015748031497,
          "duration": 1.13636249999999
        },
        {
          "name": "D3",
          "midi": 50,
          "time": 176.818004999999,
          "velocity": 0.7874015748031497,
          "duration": 1.13636249999999
        },
        {
          "name": "F#3",
          "midi": 54,
          "time": 177.045277499999,
          "velocity": 0.7874015748031497,
          "duration": 1.13636249999999
        },
        {
          "name": "B1",
          "midi": 35,
          "time": 178.181639999999,
          "velocity": 0.7874015748031497,
          "duration": 1.818179999999984
        },
        {
          "name": "F#2",
          "midi": 42,
          "time": 178.408912499999,
          "velocity": 0.7874015748031497,
          "duration": 1.13636249999999
        },
        {
          "name": "B2",
          "midi": 47,
          "time": 178.636184999999,
          "velocity": 0.7874015748031497,
          "duration": 1.13636249999999
        },
        {
          "name": "E3",
          "midi": 52,
          "time": 178.863457499999,
          "velocity": 0.7874015748031497,
          "duration": 1.13636249999999
        },
        {
          "name": "B1",
          "midi": 35,
          "time": 179.99981999999898,
          "velocity": 0.7874015748031497,
          "duration": 1.818179999999984
        },
        {
          "name": "F#2",
          "midi": 42,
          "time": 180.22709249999897,
          "velocity": 0.7874015748031497,
          "duration": 1.13636249999999
        },
        {
          "name": "B2",
          "midi": 47,
          "time": 180.45436499999897,
          "velocity": 0.7874015748031497,
          "duration": 1.13636249999999
        },
        {
          "name": "E3",
          "midi": 52,
          "time": 180.68163749999897,
          "velocity": 0.7874015748031497,
          "duration": 1.13636249999999
        },
        {
          "name": "C#2",
          "midi": 37,
          "time": 181.81799999999896,
          "velocity": 0.7874015748031497,
          "duration": 1.818179999999984
        },
        {
          "name": "G#2",
          "midi": 44,
          "time": 182.04527249999896,
          "velocity": 0.7874015748031497,
          "duration": 1.13636249999999
        },
        {
          "name": "C#3",
          "midi": 49,
          "time": 182.27254499999896,
          "velocity": 0.7874015748031497,
          "duration": 1.13636249999999
        },
        {
          "name": "F#3",
          "midi": 54,
          "time": 182.49981749999895,
          "velocity": 0.7874015748031497,
          "duration": 1.13636249999999
        },
        {
          "name": "C#2",
          "midi": 37,
          "time": 183.63617999999894,
          "velocity": 0.7874015748031497,
          "duration": 1.818179999999984
        },
        {
          "name": "G#2",
          "midi": 44,
          "time": 183.86345249999894,
          "velocity": 0.7874015748031497,
          "duration": 1.13636249999999
        },
        {
          "name": "C#3",
          "midi": 49,
          "time": 184.09072499999894,
          "velocity": 0.7874015748031497,
          "duration": 1.13636249999999
        },
        {
          "name": "F#3",
          "midi": 54,
          "time": 184.31799749999894,
          "velocity": 0.7874015748031497,
          "duration": 1.13636249999999
        },
        {
          "name": "F#3",
          "midi": 54,
          "time": 185.45435999999893,
          "velocity": 0.7874015748031497,
          "duration": 0.681817499999994
        },
        {
          "name": "F#2",
          "midi": 42,
          "time": 185.45435999999893,
          "velocity": 0.7874015748031497,
          "duration": 3.6363599999999963
        },
        {
          "name": "F#3",
          "midi": 54,
          "time": 186.13617749999892,
          "velocity": 0.7874015748031497,
          "duration": 0.681817499999994
        },
        {
          "name": "F#3",
          "midi": 54,
          "time": 186.81799499999892,
          "velocity": 0.7874015748031497,
          "duration": 0.454544999999996
        },
        {
          "name": "F#3",
          "midi": 54,
          "time": 187.2725399999989,
          "velocity": 0.7874015748031497,
          "duration": 1.8181800000000123
        },
        {
          "name": "D1",
          "midi": 26,
          "time": 190.90889999999894,
          "velocity": 0.7874015748031497,
          "duration": 0.227272499999998
        },
        {
          "name": "D2",
          "midi": 38,
          "time": 190.90889999999894,
          "velocity": 0.7874015748031497,
          "duration": 0.227272499999998
        },
        {
          "name": "D3",
          "midi": 50,
          "time": 191.13617249999893,
          "velocity": 0.7874015748031497,
          "duration": 0.227272499999998
        },
        {
          "name": "D2",
          "midi": 38,
          "time": 191.13617249999893,
          "velocity": 0.7874015748031497,
          "duration": 0.227272499999998
        },
        {
          "name": "D3",
          "midi": 50,
          "time": 191.36344499999893,
          "velocity": 0.7874015748031497,
          "duration": 0.227272499999998
        },
        {
          "name": "D2",
          "midi": 38,
          "time": 191.36344499999893,
          "velocity": 0.7874015748031497,
          "duration": 0.227272499999998
        },
        {
          "name": "D2",
          "midi": 38,
          "time": 191.59071749999893,
          "velocity": 0.7874015748031497,
          "duration": 0.227272499999998
        },
        {
          "name": "D3",
          "midi": 50,
          "time": 191.59071749999893,
          "velocity": 0.7874015748031497,
          "duration": 0.681817499999994
        },
        {
          "name": "D2",
          "midi": 38,
          "time": 191.81798999999893,
          "velocity": 0.7874015748031497,
          "duration": 0.227272499999998
        },
        {
          "name": "D2",
          "midi": 38,
          "time": 192.04526249999893,
          "velocity": 0.7874015748031497,
          "duration": 0.227272499999998
        },
        {
          "name": "D3",
          "midi": 50,
          "time": 192.27253499999892,
          "velocity": 0.7874015748031497,
          "duration": 0.227272499999998
        },
        {
          "name": "D2",
          "midi": 38,
          "time": 192.27253499999892,
          "velocity": 0.7874015748031497,
          "duration": 0.454544999999996
        },
        {
          "name": "D2",
          "midi": 38,
          "time": 192.72707999999892,
          "velocity": 0.7874015748031497,
          "duration": 0.227272499999998
        },
        {
          "name": "D3",
          "midi": 50,
          "time": 192.72707999999892,
          "velocity": 0.7874015748031497,
          "duration": 0.681817499999994
        },
        {
          "name": "D2",
          "midi": 38,
          "time": 192.95435249999892,
          "velocity": 0.7874015748031497,
          "duration": 0.227272499999998
        },
        {
          "name": "D2",
          "midi": 38,
          "time": 193.18162499999892,
          "velocity": 0.7874015748031497,
          "duration": 0.227272499999998
        },
        {
          "name": "D3",
          "midi": 50,
          "time": 193.40889749999891,
          "velocity": 0.7874015748031497,
          "duration": 0.681817499999994
        },
        {
          "name": "D2",
          "midi": 38,
          "time": 193.40889749999891,
          "velocity": 0.7874015748031497,
          "duration": 0.227272499999998
        },
        {
          "name": "D2",
          "midi": 38,
          "time": 193.6361699999989,
          "velocity": 0.7874015748031497,
          "duration": 0.227272499999998
        },
        {
          "name": "D2",
          "midi": 38,
          "time": 193.8634424999989,
          "velocity": 0.7874015748031497,
          "duration": 0.227272499999998
        },
        {
          "name": "D3",
          "midi": 50,
          "time": 194.0907149999989,
          "velocity": 0.7874015748031497,
          "duration": 0.454544999999996
        },
        {
          "name": "D2",
          "midi": 38,
          "time": 194.0907149999989,
          "velocity": 0.7874015748031497,
          "duration": 0.454544999999996
        },
        {
          "name": "B0",
          "midi": 23,
          "time": 194.5452599999989,
          "velocity": 0.7874015748031497,
          "duration": 0.227272499999998
        },
        {
          "name": "B2",
          "midi": 47,
          "time": 194.5452599999989,
          "velocity": 0.7874015748031497,
          "duration": 0.681817499999994
        },
        {
          "name": "B1",
          "midi": 35,
          "time": 194.5452599999989,
          "velocity": 0.7874015748031497,
          "duration": 0.227272499999998
        },
        {
          "name": "B1",
          "midi": 35,
          "time": 194.7725324999989,
          "velocity": 0.7874015748031497,
          "duration": 0.227272499999998
        },
        {
          "name": "B1",
          "midi": 35,
          "time": 194.9998049999989,
          "velocity": 0.7874015748031497,
          "duration": 0.227272499999998
        },
        {
          "name": "B2",
          "midi": 47,
          "time": 195.2270774999989,
          "velocity": 0.7874015748031497,
          "duration": 0.681817499999994
        },
        {
          "name": "B1",
          "midi": 35,
          "time": 195.2270774999989,
          "velocity": 0.7874015748031497,
          "duration": 0.227272499999998
        },
        {
          "name": "B1",
          "midi": 35,
          "time": 195.4543499999989,
          "velocity": 0.7874015748031497,
          "duration": 0.227272499999998
        },
        {
          "name": "B1",
          "midi": 35,
          "time": 195.6816224999989,
          "velocity": 0.7874015748031497,
          "duration": 0.227272499999998
        },
        {
          "name": "B2",
          "midi": 47,
          "time": 195.9088949999989,
          "velocity": 0.7874015748031497,
          "duration": 0.454544999999996
        },
        {
          "name": "B1",
          "midi": 35,
          "time": 195.9088949999989,
          "velocity": 0.7874015748031497,
          "duration": 0.454544999999996
        },
        {
          "name": "B1",
          "midi": 35,
          "time": 196.3634399999989,
          "velocity": 0.7874015748031497,
          "duration": 0.227272499999998
        },
        {
          "name": "B2",
          "midi": 47,
          "time": 196.3634399999989,
          "velocity": 0.7874015748031497,
          "duration": 0.681817499999994
        },
        {
          "name": "B1",
          "midi": 35,
          "time": 196.5907124999989,
          "velocity": 0.7874015748031497,
          "duration": 0.227272499999998
        },
        {
          "name": "B1",
          "midi": 35,
          "time": 196.81798499999888,
          "velocity": 0.7874015748031497,
          "duration": 0.227272499999998
        },
        {
          "name": "B2",
          "midi": 47,
          "time": 197.04525749999888,
          "velocity": 0.7874015748031497,
          "duration": 0.681817499999994
        },
        {
          "name": "B1",
          "midi": 35,
          "time": 197.04525749999888,
          "velocity": 0.7874015748031497,
          "duration": 0.227272499999998
        },
        {
          "name": "B1",
          "midi": 35,
          "time": 197.27252999999888,
          "velocity": 0.7874015748031497,
          "duration": 0.227272499999998
        },
        {
          "name": "B1",
          "midi": 35,
          "time": 197.49980249999888,
          "velocity": 0.7874015748031497,
          "duration": 0.227272499999998
        },
        {
          "name": "B2",
          "midi": 47,
          "time": 197.72707499999888,
          "velocity": 0.7874015748031497,
          "duration": 0.454544999999996
        },
        {
          "name": "B1",
          "midi": 35,
          "time": 197.72707499999888,
          "velocity": 0.7874015748031497,
          "duration": 0.454544999999996
        },
        {
          "name": "C#1",
          "midi": 25,
          "time": 198.18161999999887,
          "velocity": 0.7874015748031497,
          "duration": 0.227272499999998
        },
        {
          "name": "C#3",
          "midi": 49,
          "time": 198.18161999999887,
          "velocity": 0.7874015748031497,
          "duration": 0.681817499999994
        },
        {
          "name": "C#2",
          "midi": 37,
          "time": 198.18161999999887,
          "velocity": 0.7874015748031497,
          "duration": 0.227272499999998
        },
        {
          "name": "C#2",
          "midi": 37,
          "time": 198.40889249999887,
          "velocity": 0.7874015748031497,
          "duration": 0.227272499999998
        },
        {
          "name": "C#2",
          "midi": 37,
          "time": 198.63616499999887,
          "velocity": 0.7874015748031497,
          "duration": 0.227272499999998
        },
        {
          "name": "C#3",
          "midi": 49,
          "time": 198.86343749999887,
          "velocity": 0.7874015748031497,
          "duration": 0.681817499999994
        },
        {
          "name": "C#2",
          "midi": 37,
          "time": 198.86343749999887,
          "velocity": 0.7874015748031497,
          "duration": 0.227272499999998
        },
        {
          "name": "C#2",
          "midi": 37,
          "time": 199.09070999999886,
          "velocity": 0.7874015748031497,
          "duration": 0.227272499999998
        },
        {
          "name": "C#2",
          "midi": 37,
          "time": 199.31798249999886,
          "velocity": 0.7874015748031497,
          "duration": 0.227272499999998
        },
        {
          "name": "C#2",
          "midi": 37,
          "time": 199.54525499999886,
          "velocity": 0.7874015748031497,
          "duration": 0.454544999999996
        },
        {
          "name": "C#3",
          "midi": 49,
          "time": 199.54525499999886,
          "velocity": 0.7874015748031497,
          "duration": 0.454544999999996
        },
        {
          "name": "C#2",
          "midi": 37,
          "time": 199.99979999999886,
          "velocity": 0.7874015748031497,
          "duration": 0.227272499999998
        },
        {
          "name": "C#3",
          "midi": 49,
          "time": 199.99979999999886,
          "velocity": 0.7874015748031497,
          "duration": 0.681817499999994
        },
        {
          "name": "C#2",
          "midi": 37,
          "time": 200.22707249999885,
          "velocity": 0.7874015748031497,
          "duration": 0.227272499999998
        },
        {
          "name": "C#2",
          "midi": 37,
          "time": 200.45434499999885,
          "velocity": 0.7874015748031497,
          "duration": 0.227272499999998
        },
        {
          "name": "C#3",
          "midi": 49,
          "time": 200.68161749999885,
          "velocity": 0.7874015748031497,
          "duration": 0.681817499999994
        },
        {
          "name": "C#2",
          "midi": 37,
          "time": 200.68161749999885,
          "velocity": 0.7874015748031497,
          "duration": 0.227272499999998
        },
        {
          "name": "C#2",
          "midi": 37,
          "time": 200.90888999999885,
          "velocity": 0.7874015748031497,
          "duration": 0.227272499999998
        },
        {
          "name": "C#2",
          "midi": 37,
          "time": 201.13616249999885,
          "velocity": 0.7874015748031497,
          "duration": 0.227272499999998
        },
        {
          "name": "C#3",
          "midi": 49,
          "time": 201.36343499999884,
          "velocity": 0.7874015748031497,
          "duration": 0.454544999999996
        },
        {
          "name": "C#2",
          "midi": 37,
          "time": 201.36343499999884,
          "velocity": 0.7874015748031497,
          "duration": 0.454544999999996
        },
        {
          "name": "F#1",
          "midi": 30,
          "time": 201.81797999999884,
          "velocity": 0.7874015748031497,
          "duration": 0.227272499999998
        },
        {
          "name": "F#3",
          "midi": 54,
          "time": 201.81797999999884,
          "velocity": 0.7874015748031497,
          "duration": 0.681817499999994
        },
        {
          "name": "F#2",
          "midi": 42,
          "time": 201.81797999999884,
          "velocity": 0.7874015748031497,
          "duration": 0.227272499999998
        },
        {
          "name": "F#2",
          "midi": 42,
          "time": 202.04525249999884,
          "velocity": 0.7874015748031497,
          "duration": 0.227272499999998
        },
        {
          "name": "F#2",
          "midi": 42,
          "time": 202.27252499999884,
          "velocity": 0.7874015748031497,
          "duration": 0.227272499999998
        },
        {
          "name": "F#2",
          "midi": 42,
          "time": 202.49979749999883,
          "velocity": 0.7874015748031497,
          "duration": 0.227272499999998
        },
        {
          "name": "F#3",
          "midi": 54,
          "time": 202.49979749999883,
          "velocity": 0.7874015748031497,
          "duration": 0.681817499999994
        },
        {
          "name": "F#2",
          "midi": 42,
          "time": 202.72706999999883,
          "velocity": 0.7874015748031497,
          "duration": 0.227272499999998
        },
        {
          "name": "F#2",
          "midi": 42,
          "time": 202.95434249999883,
          "velocity": 0.7874015748031497,
          "duration": 0.227272499999998
        },
        {
          "name": "F#2",
          "midi": 42,
          "time": 203.18161499999883,
          "velocity": 0.7874015748031497,
          "duration": 0.454544999999996
        },
        {
          "name": "F#3",
          "midi": 54,
          "time": 203.18161499999883,
          "velocity": 0.7874015748031497,
          "duration": 0.454544999999996
        },
        {
          "name": "F#3",
          "midi": 54,
          "time": 203.63615999999882,
          "velocity": 0.7874015748031497,
          "duration": 0.681817499999994
        },
        {
          "name": "F#2",
          "midi": 42,
          "time": 203.63615999999882,
          "velocity": 0.7874015748031497,
          "duration": 0.227272499999998
        },
        {
          "name": "F#2",
          "midi": 42,
          "time": 203.86343249999882,
          "velocity": 0.7874015748031497,
          "duration": 0.227272499999998
        },
        {
          "name": "F#2",
          "midi": 42,
          "time": 204.09070499999882,
          "velocity": 0.7874015748031497,
          "duration": 0.227272499999998
        },
        {
          "name": "F#3",
          "midi": 54,
          "time": 204.31797749999882,
          "velocity": 0.7874015748031497,
          "duration": 0.681817499999994
        },
        {
          "name": "F#2",
          "midi": 42,
          "time": 204.31797749999882,
          "velocity": 0.7874015748031497,
          "duration": 0.227272499999998
        },
        {
          "name": "F#2",
          "midi": 42,
          "time": 204.54524999999882,
          "velocity": 0.7874015748031497,
          "duration": 0.227272499999998
        },
        {
          "name": "F#2",
          "midi": 42,
          "time": 204.77252249999881,
          "velocity": 0.7874015748031497,
          "duration": 0.227272499999998
        },
        {
          "name": "F#2",
          "midi": 42,
          "time": 204.9997949999988,
          "velocity": 0.7874015748031497,
          "duration": 0.454544999999996
        },
        {
          "name": "F#3",
          "midi": 54,
          "time": 204.9997949999988,
          "velocity": 0.7874015748031497,
          "duration": 0.454544999999996
        },
        {
          "name": "D3",
          "midi": 50,
          "time": 205.4543399999988,
          "velocity": 0.7874015748031497,
          "duration": 0.681817499999994
        },
        {
          "name": "D2",
          "midi": 38,
          "time": 205.4543399999988,
          "velocity": 0.7874015748031497,
          "duration": 0.227272499999998
        },
        {
          "name": "D2",
          "midi": 38,
          "time": 205.6816124999988,
          "velocity": 0.7874015748031497,
          "duration": 0.227272499999998
        },
        {
          "name": "D2",
          "midi": 38,
          "time": 205.9088849999988,
          "velocity": 0.7874015748031497,
          "duration": 0.227272499999998
        },
        {
          "name": "D3",
          "midi": 50,
          "time": 206.1361574999988,
          "velocity": 0.7874015748031497,
          "duration": 0.681817499999994
        },
        {
          "name": "D2",
          "midi": 38,
          "time": 206.1361574999988,
          "velocity": 0.7874015748031497,
          "duration": 0.227272499999998
        },
        {
          "name": "D2",
          "midi": 38,
          "time": 206.3634299999988,
          "velocity": 0.7874015748031497,
          "duration": 0.227272499999998
        },
        {
          "name": "D2",
          "midi": 38,
          "time": 206.5907024999988,
          "velocity": 0.7874015748031497,
          "duration": 0.227272499999998
        },
        {
          "name": "D3",
          "midi": 50,
          "time": 206.8179749999988,
          "velocity": 0.7874015748031497,
          "duration": 0.454544999999996
        },
        {
          "name": "D2",
          "midi": 38,
          "time": 206.8179749999988,
          "velocity": 0.7874015748031497,
          "duration": 0.454544999999996
        },
        {
          "name": "D2",
          "midi": 38,
          "time": 207.2725199999988,
          "velocity": 0.7874015748031497,
          "duration": 0.227272499999998
        },
        {
          "name": "D3",
          "midi": 50,
          "time": 207.2725199999988,
          "velocity": 0.7874015748031497,
          "duration": 0.681817499999994
        },
        {
          "name": "D2",
          "midi": 38,
          "time": 207.4997924999988,
          "velocity": 0.7874015748031497,
          "duration": 0.227272499999998
        },
        {
          "name": "D2",
          "midi": 38,
          "time": 207.7270649999988,
          "velocity": 0.7874015748031497,
          "duration": 0.227272499999998
        },
        {
          "name": "D3",
          "midi": 50,
          "time": 207.9543374999988,
          "velocity": 0.7874015748031497,
          "duration": 0.681817499999994
        },
        {
          "name": "D2",
          "midi": 38,
          "time": 207.9543374999988,
          "velocity": 0.7874015748031497,
          "duration": 0.227272499999998
        },
        {
          "name": "D2",
          "midi": 38,
          "time": 208.18160999999878,
          "velocity": 0.7874015748031497,
          "duration": 0.227272499999998
        },
        {
          "name": "D2",
          "midi": 38,
          "time": 208.40888249999878,
          "velocity": 0.7874015748031497,
          "duration": 0.227272499999998
        },
        {
          "name": "D2",
          "midi": 38,
          "time": 208.63615499999878,
          "velocity": 0.7874015748031497,
          "duration": 0.454544999999996
        },
        {
          "name": "D3",
          "midi": 50,
          "time": 208.63615499999878,
          "velocity": 0.7874015748031497,
          "duration": 0.454544999999996
        },
        {
          "name": "B1",
          "midi": 35,
          "time": 209.09069999999878,
          "velocity": 0.7874015748031497,
          "duration": 0.227272499999998
        },
        {
          "name": "B2",
          "midi": 47,
          "time": 209.09069999999878,
          "velocity": 0.7874015748031497,
          "duration": 0.681817499999994
        },
        {
          "name": "B1",
          "midi": 35,
          "time": 209.31797249999877,
          "velocity": 0.7874015748031497,
          "duration": 0.227272499999998
        },
        {
          "name": "B1",
          "midi": 35,
          "time": 209.54524499999877,
          "velocity": 0.7874015748031497,
          "duration": 0.227272499999998
        },
        {
          "name": "B2",
          "midi": 47,
          "time": 209.77251749999877,
          "velocity": 0.7874015748031497,
          "duration": 0.681817499999994
        },
        {
          "name": "B1",
          "midi": 35,
          "time": 209.77251749999877,
          "velocity": 0.7874015748031497,
          "duration": 0.227272499999998
        },
        {
          "name": "B1",
          "midi": 35,
          "time": 209.99978999999877,
          "velocity": 0.7874015748031497,
          "duration": 0.227272499999998
        },
        {
          "name": "B1",
          "midi": 35,
          "time": 210.22706249999877,
          "velocity": 0.7874015748031497,
          "duration": 0.227272499999998
        },
        {
          "name": "B2",
          "midi": 47,
          "time": 210.45433499999876,
          "velocity": 0.7874015748031497,
          "duration": 0.454544999999996
        },
        {
          "name": "B1",
          "midi": 35,
          "time": 210.45433499999876,
          "velocity": 0.7874015748031497,
          "duration": 0.454544999999996
        },
        {
          "name": "B1",
          "midi": 35,
          "time": 210.90887999999876,
          "velocity": 0.7874015748031497,
          "duration": 0.227272499999998
        },
        {
          "name": "B2",
          "midi": 47,
          "time": 210.90887999999876,
          "velocity": 0.7874015748031497,
          "duration": 0.681817499999994
        },
        {
          "name": "B1",
          "midi": 35,
          "time": 211.13615249999876,
          "velocity": 0.7874015748031497,
          "duration": 0.227272499999998
        },
        {
          "name": "B1",
          "midi": 35,
          "time": 211.36342499999876,
          "velocity": 0.7874015748031497,
          "duration": 0.227272499999998
        },
        {
          "name": "B1",
          "midi": 35,
          "time": 211.59069749999875,
          "velocity": 0.7874015748031497,
          "duration": 0.227272499999998
        },
        {
          "name": "B2",
          "midi": 47,
          "time": 211.59069749999875,
          "velocity": 0.7874015748031497,
          "duration": 0.681817499999994
        },
        {
          "name": "B1",
          "midi": 35,
          "time": 211.81796999999875,
          "velocity": 0.7874015748031497,
          "duration": 0.227272499999998
        },
        {
          "name": "B1",
          "midi": 35,
          "time": 212.04524249999875,
          "velocity": 0.7874015748031497,
          "duration": 0.227272499999998
        },
        {
          "name": "B1",
          "midi": 35,
          "time": 212.27251499999875,
          "velocity": 0.7874015748031497,
          "duration": 0.454544999999996
        },
        {
          "name": "B2",
          "midi": 47,
          "time": 212.27251499999875,
          "velocity": 0.7874015748031497,
          "duration": 0.454544999999996
        },
        {
          "name": "C#2",
          "midi": 37,
          "time": 212.72705999999874,
          "velocity": 0.7874015748031497,
          "duration": 0.227272499999998
        },
        {
          "name": "C#3",
          "midi": 49,
          "time": 212.72705999999874,
          "velocity": 0.7874015748031497,
          "duration": 0.681817499999994
        },
        {
          "name": "C#2",
          "midi": 37,
          "time": 212.95433249999874,
          "velocity": 0.7874015748031497,
          "duration": 0.227272499999998
        },
        {
          "name": "C#2",
          "midi": 37,
          "time": 213.18160499999874,
          "velocity": 0.7874015748031497,
          "duration": 0.227272499999998
        },
        {
          "name": "C#3",
          "midi": 49,
          "time": 213.40887749999874,
          "velocity": 0.7874015748031497,
          "duration": 0.681817499999994
        },
        {
          "name": "C#2",
          "midi": 37,
          "time": 213.40887749999874,
          "velocity": 0.7874015748031497,
          "duration": 0.227272499999998
        },
        {
          "name": "C#2",
          "midi": 37,
          "time": 213.63614999999874,
          "velocity": 0.7874015748031497,
          "duration": 0.227272499999998
        },
        {
          "name": "C#2",
          "midi": 37,
          "time": 213.86342249999873,
          "velocity": 0.7874015748031497,
          "duration": 0.227272499999998
        },
        {
          "name": "C#3",
          "midi": 49,
          "time": 214.09069499999873,
          "velocity": 0.7874015748031497,
          "duration": 0.454544999999996
        },
        {
          "name": "C#2",
          "midi": 37,
          "time": 214.09069499999873,
          "velocity": 0.7874015748031497,
          "duration": 0.454544999999996
        },
        {
          "name": "C#3",
          "midi": 49,
          "time": 214.54523999999873,
          "velocity": 0.7874015748031497,
          "duration": 0.681817499999994
        },
        {
          "name": "C#2",
          "midi": 37,
          "time": 214.54523999999873,
          "velocity": 0.7874015748031497,
          "duration": 0.227272499999998
        },
        {
          "name": "C#2",
          "midi": 37,
          "time": 214.77251249999873,
          "velocity": 0.7874015748031497,
          "duration": 0.227272499999998
        },
        {
          "name": "C#2",
          "midi": 37,
          "time": 214.99978499999872,
          "velocity": 0.7874015748031497,
          "duration": 0.227272499999998
        },
        {
          "name": "C#3",
          "midi": 49,
          "time": 215.22705749999872,
          "velocity": 0.7874015748031497,
          "duration": 0.681817499999994
        },
        {
          "name": "C#2",
          "midi": 37,
          "time": 215.22705749999872,
          "velocity": 0.7874015748031497,
          "duration": 0.227272499999998
        },
        {
          "name": "C#2",
          "midi": 37,
          "time": 215.45432999999872,
          "velocity": 0.7874015748031497,
          "duration": 0.227272499999998
        },
        {
          "name": "C#2",
          "midi": 37,
          "time": 215.68160249999872,
          "velocity": 0.7874015748031497,
          "duration": 0.227272499999998
        },
        {
          "name": "C#2",
          "midi": 37,
          "time": 215.90887499999872,
          "velocity": 0.7874015748031497,
          "duration": 0.454544999999996
        },
        {
          "name": "C#3",
          "midi": 49,
          "time": 215.90887499999872,
          "velocity": 0.7874015748031497,
          "duration": 0.454544999999996
        },
        {
          "name": "F#2",
          "midi": 42,
          "time": 216.3634199999987,
          "velocity": 0.7874015748031497,
          "duration": 0.227272499999998
        },
        {
          "name": "F#3",
          "midi": 54,
          "time": 216.3634199999987,
          "velocity": 0.7874015748031497,
          "duration": 0.681817499999994
        },
        {
          "name": "F#2",
          "midi": 42,
          "time": 216.5906924999987,
          "velocity": 0.7874015748031497,
          "duration": 0.227272499999998
        },
        {
          "name": "F#2",
          "midi": 42,
          "time": 216.8179649999987,
          "velocity": 0.7874015748031497,
          "duration": 0.227272499999998
        },
        {
          "name": "F#3",
          "midi": 54,
          "time": 217.0452374999987,
          "velocity": 0.7874015748031497,
          "duration": 0.681817499999994
        },
        {
          "name": "F#2",
          "midi": 42,
          "time": 217.0452374999987,
          "velocity": 0.7874015748031497,
          "duration": 0.227272499999998
        },
        {
          "name": "F#2",
          "midi": 42,
          "time": 217.2725099999987,
          "velocity": 0.7874015748031497,
          "duration": 0.227272499999998
        },
        {
          "name": "F#2",
          "midi": 42,
          "time": 217.4997824999987,
          "velocity": 0.7874015748031497,
          "duration": 0.227272499999998
        },
        {
          "name": "F#3",
          "midi": 54,
          "time": 217.7270549999987,
          "velocity": 0.7874015748031497,
          "duration": 0.454544999999996
        },
        {
          "name": "F#2",
          "midi": 42,
          "time": 217.7270549999987,
          "velocity": 0.7874015748031497,
          "duration": 0.454544999999996
        },
        {
          "name": "F#2",
          "midi": 42,
          "time": 218.1815999999987,
          "velocity": 0.7874015748031497,
          "duration": 0.227272499999998
        },
        {
          "name": "F#3",
          "midi": 54,
          "time": 218.1815999999987,
          "velocity": 0.7874015748031497,
          "duration": 0.681817499999994
        },
        {
          "name": "F#2",
          "midi": 42,
          "time": 218.4088724999987,
          "velocity": 0.7874015748031497,
          "duration": 0.227272499999998
        },
        {
          "name": "F#2",
          "midi": 42,
          "time": 218.6361449999987,
          "velocity": 0.7874015748031497,
          "duration": 0.227272499999998
        },
        {
          "name": "F#2",
          "midi": 42,
          "time": 218.8634174999987,
          "velocity": 0.7874015748031497,
          "duration": 0.227272499999998
        },
        {
          "name": "F#3",
          "midi": 54,
          "time": 218.8634174999987,
          "velocity": 0.7874015748031497,
          "duration": 0.681817499999994
        },
        {
          "name": "F#2",
          "midi": 42,
          "time": 219.0906899999987,
          "velocity": 0.7874015748031497,
          "duration": 0.227272499999998
        },
        {
          "name": "F#2",
          "midi": 42,
          "time": 219.31796249999869,
          "velocity": 0.7874015748031497,
          "duration": 0.227272499999998
        },
        {
          "name": "F#3",
          "midi": 54,
          "time": 219.54523499999868,
          "velocity": 0.7874015748031497,
          "duration": 0.454544999999996
        },
        {
          "name": "F#2",
          "midi": 42,
          "time": 219.54523499999868,
          "velocity": 0.7874015748031497,
          "duration": 0.454544999999996
        },
        {
          "name": "D2",
          "midi": 38,
          "time": 219.99977999999868,
          "velocity": 0.7874015748031497,
          "duration": 0.227272499999998
        },
        {
          "name": "D2",
          "midi": 38,
          "time": 220.22705249999868,
          "velocity": 0.7874015748031497,
          "duration": 0.227272499999998
        },
        {
          "name": "D2",
          "midi": 38,
          "time": 220.45432499999868,
          "velocity": 0.7874015748031497,
          "duration": 0.227272499999998
        },
        {
          "name": "D2",
          "midi": 38,
          "time": 220.68159749999867,
          "velocity": 0.7874015748031497,
          "duration": 0.227272499999998
        },
        {
          "name": "D2",
          "midi": 38,
          "time": 220.90886999999867,
          "velocity": 0.7874015748031497,
          "duration": 0.227272499999998
        },
        {
          "name": "D2",
          "midi": 38,
          "time": 221.13614249999867,
          "velocity": 0.7874015748031497,
          "duration": 0.227272499999998
        },
        {
          "name": "D3",
          "midi": 50,
          "time": 221.36341499999867,
          "velocity": 0.7874015748031497,
          "duration": 0.227272499999998
        },
        {
          "name": "D2",
          "midi": 38,
          "time": 221.59068749999867,
          "velocity": 0.7874015748031497,
          "duration": 0.227272499999998
        },
        {
          "name": "D2",
          "midi": 38,
          "time": 221.81795999999866,
          "velocity": 0.7874015748031497,
          "duration": 0.227272499999998
        },
        {
          "name": "D2",
          "midi": 38,
          "time": 222.04523249999866,
          "velocity": 0.7874015748031497,
          "duration": 0.227272499999998
        },
        {
          "name": "D2",
          "midi": 38,
          "time": 222.27250499999866,
          "velocity": 0.7874015748031497,
          "duration": 0.227272499999998
        },
        {
          "name": "D2",
          "midi": 38,
          "time": 222.49977749999866,
          "velocity": 0.7874015748031497,
          "duration": 0.227272499999998
        },
        {
          "name": "D2",
          "midi": 38,
          "time": 222.72704999999866,
          "velocity": 0.7874015748031497,
          "duration": 0.227272499999998
        },
        {
          "name": "D2",
          "midi": 38,
          "time": 222.95432249999865,
          "velocity": 0.7874015748031497,
          "duration": 0.227272499999998
        },
        {
          "name": "D3",
          "midi": 50,
          "time": 223.18159499999865,
          "velocity": 0.7874015748031497,
          "duration": 0.227272499999998
        },
        {
          "name": "D2",
          "midi": 38,
          "time": 223.40886749999865,
          "velocity": 0.7874015748031497,
          "duration": 0.227272499999998
        },
        {
          "name": "B1",
          "midi": 35,
          "time": 223.63613999999865,
          "velocity": 0.7874015748031497,
          "duration": 0.227272499999998
        },
        {
          "name": "B1",
          "midi": 35,
          "time": 223.86341249999865,
          "velocity": 0.7874015748031497,
          "duration": 0.227272499999998
        },
        {
          "name": "B1",
          "midi": 35,
          "time": 224.09068499999864,
          "velocity": 0.7874015748031497,
          "duration": 0.227272499999998
        },
        {
          "name": "B1",
          "midi": 35,
          "time": 224.31795749999864,
          "velocity": 0.7874015748031497,
          "duration": 0.227272499999998
        },
        {
          "name": "B1",
          "midi": 35,
          "time": 224.54522999999864,
          "velocity": 0.7874015748031497,
          "duration": 0.227272499999998
        },
        {
          "name": "B1",
          "midi": 35,
          "time": 224.77250249999864,
          "velocity": 0.7874015748031497,
          "duration": 0.227272499999998
        },
        {
          "name": "B2",
          "midi": 47,
          "time": 224.99977499999864,
          "velocity": 0.7874015748031497,
          "duration": 0.227272499999998
        },
        {
          "name": "B1",
          "midi": 35,
          "time": 225.22704749999863,
          "velocity": 0.7874015748031497,
          "duration": 0.227272499999998
        },
        {
          "name": "B1",
          "midi": 35,
          "time": 225.45431999999863,
          "velocity": 0.7874015748031497,
          "duration": 0.227272499999998
        },
        {
          "name": "B1",
          "midi": 35,
          "time": 225.68159249999863,
          "velocity": 0.7874015748031497,
          "duration": 0.227272499999998
        },
        {
          "name": "B1",
          "midi": 35,
          "time": 225.90886499999863,
          "velocity": 0.7874015748031497,
          "duration": 0.227272499999998
        },
        {
          "name": "B1",
          "midi": 35,
          "time": 226.13613749999863,
          "velocity": 0.7874015748031497,
          "duration": 0.227272499999998
        },
        {
          "name": "B1",
          "midi": 35,
          "time": 226.36340999999862,
          "velocity": 0.7874015748031497,
          "duration": 0.227272499999998
        },
        {
          "name": "B1",
          "midi": 35,
          "time": 226.59068249999862,
          "velocity": 0.7874015748031497,
          "duration": 0.227272499999998
        },
        {
          "name": "B2",
          "midi": 47,
          "time": 226.81795499999862,
          "velocity": 0.7874015748031497,
          "duration": 0.227272499999998
        },
        {
          "name": "B1",
          "midi": 35,
          "time": 227.04522749999862,
          "velocity": 0.7874015748031497,
          "duration": 0.227272499999998
        },
        {
          "name": "C#2",
          "midi": 37,
          "time": 227.27249999999862,
          "velocity": 0.7874015748031497,
          "duration": 0.227272499999998
        },
        {
          "name": "C#2",
          "midi": 37,
          "time": 227.4997724999986,
          "velocity": 0.7874015748031497,
          "duration": 0.227272499999998
        },
        {
          "name": "C#2",
          "midi": 37,
          "time": 227.7270449999986,
          "velocity": 0.7874015748031497,
          "duration": 0.227272499999998
        },
        {
          "name": "C#2",
          "midi": 37,
          "time": 227.9543174999986,
          "velocity": 0.7874015748031497,
          "duration": 0.227272499999998
        },
        {
          "name": "C#2",
          "midi": 37,
          "time": 228.1815899999986,
          "velocity": 0.7874015748031497,
          "duration": 0.227272499999998
        },
        {
          "name": "C#2",
          "midi": 37,
          "time": 228.4088624999986,
          "velocity": 0.7874015748031497,
          "duration": 0.227272499999998
        },
        {
          "name": "C#3",
          "midi": 49,
          "time": 228.6361349999986,
          "velocity": 0.7874015748031497,
          "duration": 0.227272499999998
        },
        {
          "name": "C#2",
          "midi": 37,
          "time": 228.8634074999986,
          "velocity": 0.7874015748031497,
          "duration": 0.227272499999998
        },
        {
          "name": "C#2",
          "midi": 37,
          "time": 229.0906799999986,
          "velocity": 0.7874015748031497,
          "duration": 0.227272499999998
        },
        {
          "name": "C#2",
          "midi": 37,
          "time": 229.3179524999986,
          "velocity": 0.7874015748031497,
          "duration": 0.227272499999998
        },
        {
          "name": "C#2",
          "midi": 37,
          "time": 229.5452249999986,
          "velocity": 0.7874015748031497,
          "duration": 0.227272499999998
        },
        {
          "name": "C#2",
          "midi": 37,
          "time": 229.7724974999986,
          "velocity": 0.7874015748031497,
          "duration": 0.227272499999998
        },
        {
          "name": "C#2",
          "midi": 37,
          "time": 229.9997699999986,
          "velocity": 0.7874015748031497,
          "duration": 0.227272499999998
        },
        {
          "name": "C#2",
          "midi": 37,
          "time": 230.2270424999986,
          "velocity": 0.7874015748031497,
          "duration": 0.227272499999998
        },
        {
          "name": "F#2",
          "midi": 42,
          "time": 230.90885999999858,
          "velocity": 0.7874015748031497,
          "duration": 0.227272499999998
        },
        {
          "name": "F#1",
          "midi": 30,
          "time": 230.90885999999858,
          "velocity": 0.7874015748031497,
          "duration": 0.227272499999998
        },
        {
          "name": "C#3",
          "midi": 49,
          "time": 230.90885999999858,
          "velocity": 0.7874015748031497,
          "duration": 0.227272499999998
        },
        {
          "name": "F#2",
          "midi": 42,
          "time": 231.13613249999858,
          "velocity": 0.7874015748031497,
          "duration": 0.227272499999998
        },
        {
          "name": "C#3",
          "midi": 49,
          "time": 231.13613249999858,
          "velocity": 0.7874015748031497,
          "duration": 0.227272499999998
        },
        {
          "name": "F#1",
          "midi": 30,
          "time": 231.13613249999858,
          "velocity": 0.7874015748031497,
          "duration": 0.227272499999998
        },
        {
          "name": "F#2",
          "midi": 42,
          "time": 231.36340499999858,
          "velocity": 0.7874015748031497,
          "duration": 0.227272499999998
        },
        {
          "name": "F#1",
          "midi": 30,
          "time": 231.36340499999858,
          "velocity": 0.7874015748031497,
          "duration": 0.227272499999998
        },
        {
          "name": "C#3",
          "midi": 49,
          "time": 231.36340499999858,
          "velocity": 0.7874015748031497,
          "duration": 0.227272499999998
        },
        {
          "name": "F#2",
          "midi": 42,
          "time": 231.81794999999858,
          "velocity": 0.7874015748031497,
          "duration": 0.227272499999998
        },
        {
          "name": "F#1",
          "midi": 30,
          "time": 231.81794999999858,
          "velocity": 0.7874015748031497,
          "duration": 0.227272499999998
        },
        {
          "name": "C#3",
          "midi": 49,
          "time": 231.81794999999858,
          "velocity": 0.7874015748031497,
          "duration": 0.227272499999998
        },
        {
          "name": "F#2",
          "midi": 42,
          "time": 232.04522249999857,
          "velocity": 0.7874015748031497,
          "duration": 0.227272499999998
        },
        {
          "name": "C#3",
          "midi": 49,
          "time": 232.04522249999857,
          "velocity": 0.7874015748031497,
          "duration": 0.227272499999998
        },
        {
          "name": "F#1",
          "midi": 30,
          "time": 232.04522249999857,
          "velocity": 0.7874015748031497,
          "duration": 0.227272499999998
        },
        {
          "name": "F#2",
          "midi": 42,
          "time": 232.27249499999857,
          "velocity": 0.7874015748031497,
          "duration": 0.227272499999998
        },
        {
          "name": "F#1",
          "midi": 30,
          "time": 232.27249499999857,
          "velocity": 0.7874015748031497,
          "duration": 0.227272499999998
        },
        {
          "name": "C#3",
          "midi": 49,
          "time": 232.27249499999857,
          "velocity": 0.7874015748031497,
          "duration": 0.227272499999998
        },
        {
          "name": "F#2",
          "midi": 42,
          "time": 232.72703999999857,
          "velocity": 0.7874015748031497,
          "duration": 0.227272499999998
        },
        {
          "name": "F#1",
          "midi": 30,
          "time": 232.72703999999857,
          "velocity": 0.7874015748031497,
          "duration": 0.227272499999998
        },
        {
          "name": "C#3",
          "midi": 49,
          "time": 232.72703999999857,
          "velocity": 0.7874015748031497,
          "duration": 0.227272499999998
        },
        {
          "name": "F#2",
          "midi": 42,
          "time": 232.95431249999857,
          "velocity": 0.7874015748031497,
          "duration": 0.227272499999998
        },
        {
          "name": "F#1",
          "midi": 30,
          "time": 232.95431249999857,
          "velocity": 0.7874015748031497,
          "duration": 0.227272499999998
        },
        {
          "name": "C#3",
          "midi": 49,
          "time": 232.95431249999857,
          "velocity": 0.7874015748031497,
          "duration": 0.227272499999998
        },
        {
          "name": "F#2",
          "midi": 42,
          "time": 233.18158499999856,
          "velocity": 0.7874015748031497,
          "duration": 0.227272499999998
        },
        {
          "name": "F#1",
          "midi": 30,
          "time": 233.18158499999856,
          "velocity": 0.7874015748031497,
          "duration": 0.227272499999998
        },
        {
          "name": "C#3",
          "midi": 49,
          "time": 233.18158499999856,
          "velocity": 0.7874015748031497,
          "duration": 0.227272499999998
        }
      ],
      "controlChanges": {
        "6": [
          {
            "number": 6,
            "time": 0,
            "value": 0.09448818897637795
          },
          {
            "number": 6,
            "time": 0,
            "value": 0.09448818897637795
          },
          {
            "number": 6,
            "time": 0,
            "value": 0.09448818897637795
          },
          {
            "number": 6,
            "time": 233.86340249999856,
            "value": 0.09448818897637795
          },
          {
            "number": 6,
            "time": 233.86813734374854,
            "value": 0.09448818897637795
          },
          {
            "number": 6,
            "time": 233.86813734374854,
            "value": 0.09448818897637795
          }
        ],
        "7": [
          {
            "number": 7,
            "time": 0,
            "value": 0.7874015748031497
          },
          {
            "number": 7,
            "time": 0,
            "value": 0.7874015748031497
          },
          {
            "number": 7,
            "time": 0,
            "value": 0.7874015748031497
          },
          {
            "number": 7,
            "time": 0,
            "value": 0.7874015748031497
          },
          {
            "number": 7,
            "time": 233.86340249999856,
            "value": 0.7874015748031497
          },
          {
            "number": 7,
            "time": 233.86813734374854,
            "value": 0.7874015748031497
          },
          {
            "number": 7,
            "time": 233.86813734374854,
            "value": 0.7874015748031497
          }
        ],
        "10": [
          {
            "number": 10,
            "time": 0,
            "value": 0.4251968503937008
          },
          {
            "number": 10,
            "time": 0,
            "value": 0.4251968503937008
          },
          {
            "number": 10,
            "time": 0,
            "value": 0.4251968503937008
          },
          {
            "number": 10,
            "time": 0,
            "value": 0.4251968503937008
          },
          {
            "number": 10,
            "time": 233.86340249999856,
            "value": 0.4251968503937008
          },
          {
            "number": 10,
            "time": 233.86813734374854,
            "value": 0.4251968503937008
          },
          {
            "number": 10,
            "time": 233.86813734374854,
            "value": 0.4251968503937008
          }
        ],
        "100": [
          {
            "number": 100,
            "time": 0,
            "value": 0
          },
          {
            "number": 100,
            "time": 0,
            "value": 0
          },
          {
            "number": 100,
            "time": 0,
            "value": 0
          },
          {
            "number": 100,
            "time": 233.86340249999856,
            "value": 0
          },
          {
            "number": 100,
            "time": 233.86813734374854,
            "value": 0
          },
          {
            "number": 100,
            "time": 233.86813734374854,
            "value": 0
          }
        ],
        "101": [
          {
            "number": 101,
            "time": 0,
            "value": 0
          },
          {
            "number": 101,
            "time": 0,
            "value": 0
          },
          {
            "number": 101,
            "time": 0,
            "value": 0
          },
          {
            "number": 101,
            "time": 233.86340249999856,
            "value": 0
          },
          {
            "number": 101,
            "time": 233.86813734374854,
            "value": 0
          },
          {
            "number": 101,
            "time": 233.86813734374854,
            "value": 0
          }
        ]
      },
      "id": 1,
      "name": "MIDI out",
      "channelNumber": 0,
      "isPercussion": false
    }
  ]
}