{
  "header": {
    "PPQ": 480,
    "timeSignature": [
      4,
      4
    ],
    "bpm": 160,
    "name": ""
  },
  "startTime": 0,
  "duration": 157.49921875,
  "tracks": [
    {
      "startTime": 0,
      "duration": 157.49921875,
      "length": 1243,
      "notes": [
        {
          "name": "C5",
          "midi": 72,
          "time": 0,
          "velocity": 0.6299212598425197,
          "duration": 0.18671875
        },
        {
          "name": "E5",
          "midi": 76,
          "time": 0,
          "velocity": 0.6299212598425197,
          "duration": 0.18671875
        },
        {
          "name": "B4",
          "midi": 71,
          "time": 0.1875,
          "velocity": 0.6299212598425197,
          "duration": 0.18671875
        },
        {
          "name": "D#5",
          "midi": 75,
          "time": 0.1875,
          "velocity": 0.6299212598425197,
          "duration": 0.18671875
        },
        {
          "name": "C5",
          "midi": 72,
          "time": 0.75,
          "velocity": 0.6299212598425197,
          "duration": 0.18671875000000004
        },
        {
          "name": "E5",
          "midi": 76,
          "time": 0.75,
          "velocity": 0.6299212598425197,
          "duration": 0.18671875000000004
        },
        {
          "name": "B4",
          "midi": 71,
          "time": 0.9375,
          "velocity": 0.6299212598425197,
          "duration": 0.18671875000000004
        },
        {
          "name": "D#5",
          "midi": 75,
          "time": 0.9375,
          "velocity": 0.6299212598425197,
          "duration": 0.18671875000000004
        },
        {
          "name": "C5",
          "midi": 72,
          "time": 1.5,
          "velocity": 0.6299212598425197,
          "duration": 0.18671875000000004
        },
        {
          "name": "E5",
          "midi": 76,
          "time": 1.5,
          "velocity": 0.6299212598425197,
          "duration": 0.18671875000000004
        },
        {
          "name": "B4",
          "midi": 71,
          "time": 1.6875,
          "velocity": 0.6299212598425197,
          "duration": 0.18671875000000004
        },
        {
          "name": "D#5",
          "midi": 75,
          "time": 1.6875,
          "velocity": 0.6299212598425197,
          "duration": 0.18671875000000004
        },
        {
          "name": "A#4",
          "midi": 70,
          "time": 1.875,
          "velocity": 0.6299212598425197,
          "duration": 0.18671874999999982
        },
        {
          "name": "D5",
          "midi": 74,
          "time": 1.875,
          "velocity": 0.6299212598425197,
          "duration": 0.18671874999999982
        },
        {
          "name": "A4",
          "midi": 69,
          "time": 2.0625,
          "velocity": 0.6299212598425197,
          "duration": 0.18671874999999982
        },
        {
          "name": "C#5",
          "midi": 73,
          "time": 2.0625,
          "velocity": 0.6299212598425197,
          "duration": 0.18671874999999982
        },
        {
          "name": "G#4",
          "midi": 68,
          "time": 2.25,
          "velocity": 0.6299212598425197,
          "duration": 0.18671874999999982
        },
        {
          "name": "C5",
          "midi": 72,
          "time": 2.25,
          "velocity": 0.6299212598425197,
          "duration": 0.18671874999999982
        },
        {
          "name": "A4",
          "midi": 69,
          "time": 2.4375,
          "velocity": 0.6299212598425197,
          "duration": 0.18671874999999982
        },
        {
          "name": "C#5",
          "midi": 73,
          "time": 2.4375,
          "velocity": 0.6299212598425197,
          "duration": 0.18671874999999982
        },
        {
          "name": "A#4",
          "midi": 70,
          "time": 2.625,
          "velocity": 0.6299212598425197,
          "duration": 0.18671874999999982
        },
        {
          "name": "D5",
          "midi": 74,
          "time": 2.625,
          "velocity": 0.6299212598425197,
          "duration": 0.18671874999999982
        },
        {
          "name": "B4",
          "midi": 71,
          "time": 2.8125,
          "velocity": 0.6299212598425197,
          "duration": 0.18671874999999982
        },
        {
          "name": "D#5",
          "midi": 75,
          "time": 2.8125,
          "velocity": 0.6299212598425197,
          "duration": 0.18671874999999982
        },
        {
          "name": "C5",
          "midi": 72,
          "time": 3,
          "velocity": 0.6299212598425197,
          "duration": 0.18671874999999982
        },
        {
          "name": "E5",
          "midi": 76,
          "time": 3,
          "velocity": 0.6299212598425197,
          "duration": 0.18671874999999982
        },
        {
          "name": "B4",
          "midi": 71,
          "time": 3.1875,
          "velocity": 0.6299212598425197,
          "duration": 0.18671874999999982
        },
        {
          "name": "D#5",
          "midi": 75,
          "time": 3.1875,
          "velocity": 0.6299212598425197,
          "duration": 0.18671874999999982
        },
        {
          "name": "C5",
          "midi": 72,
          "time": 3.75,
          "velocity": 0.6299212598425197,
          "duration": 0.18671874999999982
        },
        {
          "name": "E5",
          "midi": 76,
          "time": 3.75,
          "velocity": 0.6299212598425197,
          "duration": 0.18671874999999982
        },
        {
          "name": "B4",
          "midi": 71,
          "time": 3.9375,
          "velocity": 0.6299212598425197,
          "duration": 0.18671874999999982
        },
        {
          "name": "D#5",
          "midi": 75,
          "time": 3.9375,
          "velocity": 0.6299212598425197,
          "duration": 0.18671874999999982
        },
        {
          "name": "C5",
          "midi": 72,
          "time": 4.5,
          "velocity": 0.6299212598425197,
          "duration": 0.18671874999999982
        },
        {
          "name": "E5",
          "midi": 76,
          "time": 4.5,
          "velocity": 0.6299212598425197,
          "duration": 0.18671874999999982
        },
        {
          "name": "B4",
          "midi": 71,
          "time": 4.6875,
          "velocity": 0.6299212598425197,
          "duration": 0.18671874999999982
        },
        {
          "name": "D#5",
          "midi": 75,
          "time": 4.6875,
          "velocity": 0.6299212598425197,
          "duration": 0.18671874999999982
        },
        {
          "name": "A#4",
          "midi": 70,
          "time": 4.875,
          "velocity": 0.6299212598425197,
          "duration": 0.18671874999999982
        },
        {
          "name": "D5",
          "midi": 74,
          "time": 4.875,
          "velocity": 0.6299212598425197,
          "duration": 0.18671874999999982
        },
        {
          "name": "A4",
          "midi": 69,
          "time": 5.0625,
          "velocity": 0.6299212598425197,
          "duration": 0.18671874999999982
        },
        {
          "name": "C#5",
          "midi": 73,
          "time": 5.0625,
          "velocity": 0.6299212598425197,
          "duration": 0.18671874999999982
        },
        {
          "name": "G#4",
          "midi": 68,
          "time": 5.25,
          "velocity": 0.6299212598425197,
          "duration": 0.18671874999999982
        },
        {
          "name": "C5",
          "midi": 72,
          "time": 5.25,
          "velocity": 0.6299212598425197,
          "duration": 0.18671874999999982
        },
        {
          "name": "A4",
          "midi": 69,
          "time": 5.4375,
          "velocity": 0.6299212598425197,
          "duration": 0.18671874999999982
        },
        {
          "name": "C#5",
          "midi": 73,
          "time": 5.4375,
          "velocity": 0.6299212598425197,
          "duration": 0.18671874999999982
        },
        {
          "name": "A#4",
          "midi": 70,
          "time": 5.625,
          "velocity": 0.6299212598425197,
          "duration": 0.18671874999999982
        },
        {
          "name": "D5",
          "midi": 74,
          "time": 5.625,
          "velocity": 0.6299212598425197,
          "duration": 0.18671874999999982
        },
        {
          "name": "B4",
          "midi": 71,
          "time": 5.8125,
          "velocity": 0.6299212598425197,
          "duration": 0.18671874999999982
        },
        {
          "name": "D#5",
          "midi": 75,
          "time": 5.8125,
          "velocity": 0.6299212598425197,
          "duration": 0.18671874999999982
        },
        {
          "name": "C5",
          "midi": 72,
          "time": 6,
          "velocity": 0.6299212598425197,
          "duration": 0.18671874999999982
        },
        {
          "name": "E5",
          "midi": 76,
          "time": 6,
          "velocity": 0.6299212598425197,
          "duration": 0.18671874999999982
        },
        {
          "name": "B4",
          "midi": 71,
          "time": 6.1875,
          "velocity": 0.6299212598425197,
          "duration": 0.18671874999999982
        },
        {
          "name": "D#5",
          "midi": 75,
          "time": 6.1875,
          "velocity": 0.6299212598425197,
          "duration": 0.18671874999999982
        },
        {
          "name": "C5",
          "midi": 72,
          "time": 6.75,
          "velocity": 0.6299212598425197,
          "duration": 0.18671874999999982
        },
        {
          "name": "E5",
          "midi": 76,
          "time": 6.75,
          "velocity": 0.6299212598425197,
          "duration": 0.18671874999999982
        },
        {
          "name": "B4",
          "midi": 71,
          "time": 6.9375,
          "velocity": 0.6299212598425197,
          "duration": 0.18671874999999982
        },
        {
          "name": "D#5",
          "midi": 75,
          "time": 6.9375,
          "velocity": 0.6299212598425197,
          "duration": 0.18671874999999982
        },
        {
          "name": "C5",
          "midi": 72,
          "time": 7.5,
          "velocity": 0.6299212598425197,
          "duration": 0.18671874999999982
        },
        {
          "name": "E5",
          "midi": 76,
          "time": 7.5,
          "velocity": 0.6299212598425197,
          "duration": 0.18671874999999982
        },
        {
          "name": "B4",
          "midi": 71,
          "time": 7.6875,
          "velocity": 0.6299212598425197,
          "duration": 0.18671874999999982
        },
        {
          "name": "D#5",
          "midi": 75,
          "time": 7.6875,
          "velocity": 0.6299212598425197,
          "duration": 0.18671874999999982
        },
        {
          "name": "A#4",
          "midi": 70,
          "time": 7.875,
          "velocity": 0.6299212598425197,
          "duration": 0.1867187500000007
        },
        {
          "name": "D5",
          "midi": 74,
          "time": 7.875,
          "velocity": 0.6299212598425197,
          "duration": 0.1867187500000007
        },
        {
          "name": "A4",
          "midi": 69,
          "time": 8.0625,
          "velocity": 0.6299212598425197,
          "duration": 0.1867187500000007
        },
        {
          "name": "C#5",
          "midi": 73,
          "time": 8.0625,
          "velocity": 0.6299212598425197,
          "duration": 0.1867187500000007
        },
        {
          "name": "G#4",
          "midi": 68,
          "time": 8.25,
          "velocity": 0.6299212598425197,
          "duration": 0.1867187500000007
        },
        {
          "name": "C5",
          "midi": 72,
          "time": 8.25,
          "velocity": 0.6299212598425197,
          "duration": 0.1867187500000007
        },
        {
          "name": "A4",
          "midi": 69,
          "time": 8.4375,
          "velocity": 0.6299212598425197,
          "duration": 0.1867187500000007
        },
        {
          "name": "C#5",
          "midi": 73,
          "time": 8.4375,
          "velocity": 0.6299212598425197,
          "duration": 0.1867187500000007
        },
        {
          "name": "A#4",
          "midi": 70,
          "time": 8.625,
          "velocity": 0.6299212598425197,
          "duration": 0.1867187500000007
        },
        {
          "name": "D5",
          "midi": 74,
          "time": 8.625,
          "velocity": 0.6299212598425197,
          "duration": 0.1867187500000007
        },
        {
          "name": "B4",
          "midi": 71,
          "time": 8.8125,
          "velocity": 0.6299212598425197,
          "duration": 0.1867187500000007
        },
        {
          "name": "D#5",
          "midi": 75,
          "time": 8.8125,
          "velocity": 0.6299212598425197,
          "duration": 0.1867187500000007
        },
        {
          "name": "C5",
          "midi": 72,
          "time": 9,
          "velocity": 0.6299212598425197,
          "duration": 0.1867187500000007
        },
        {
          "name": "E5",
          "midi": 76,
          "time": 9,
          "velocity": 0.6299212598425197,
          "duration": 0.1867187500000007
        },
        {
          "name": "B4",
          "midi": 71,
          "time": 9.1875,
          "velocity": 0.6299212598425197,
          "duration": 0.1867187500000007
        },
        {
          "name": "D#5",
          "midi": 75,
          "time": 9.1875,
          "velocity": 0.6299212598425197,
          "duration": 0.1867187500000007
        },
        {
          "name": "C5",
          "midi": 72,
          "time": 9.75,
          "velocity": 0.6299212598425197,
          "duration": 0.1867187500000007
        },
        {
          "name": "E5",
          "midi": 76,
          "time": 9.75,
          "velocity": 0.6299212598425197,
          "duration": 0.1867187500000007
        },
        {
          "name": "B4",
          "midi": 71,
          "time": 9.9375,
          "velocity": 0.6299212598425197,
          "duration": 0.1867187500000007
        },
        {
          "name": "D#5",
          "midi": 75,
          "time": 9.9375,
          "velocity": 0.6299212598425197,
          "duration": 0.1867187500000007
        },
        {
          "name": "C5",
          "midi": 72,
          "time": 10.5,
          "velocity": 0.6299212598425197,
          "duration": 0.1867187500000007
        },
        {
          "name": "E5",
          "midi": 76,
          "time": 10.5,
          "velocity": 0.6299212598425197,
          "duration": 0.1867187500000007
        },
        {
          "name": "B4",
          "midi": 71,
          "time": 10.6875,
          "velocity": 0.6299212598425197,
          "duration": 0.1867187500000007
        },
        {
          "name": "D#5",
          "midi": 75,
          "time": 10.6875,
          "velocity": 0.6299212598425197,
          "duration": 0.1867187500000007
        },
        {
          "name": "A#4",
          "midi": 70,
          "time": 10.875,
          "velocity": 0.6299212598425197,
          "duration": 0.1867187500000007
        },
        {
          "name": "D5",
          "midi": 74,
          "time": 10.875,
          "velocity": 0.6299212598425197,
          "duration": 0.1867187500000007
        },
        {
          "name": "A4",
          "midi": 69,
          "time": 11.0625,
          "velocity": 0.6299212598425197,
          "duration": 0.1867187500000007
        },
        {
          "name": "C#5",
          "midi": 73,
          "time": 11.0625,
          "velocity": 0.6299212598425197,
          "duration": 0.1867187500000007
        },
        {
          "name": "G#4",
          "midi": 68,
          "time": 11.25,
          "velocity": 0.6299212598425197,
          "duration": 0.1867187500000007
        },
        {
          "name": "C5",
          "midi": 72,
          "time": 11.25,
          "velocity": 0.6299212598425197,
          "duration": 0.1867187500000007
        },
        {
          "name": "A4",
          "midi": 69,
          "time": 11.4375,
          "velocity": 0.6299212598425197,
          "duration": 0.1867187500000007
        },
        {
          "name": "C#5",
          "midi": 73,
          "time": 11.4375,
          "velocity": 0.6299212598425197,
          "duration": 0.1867187500000007
        },
        {
          "name": "A#4",
          "midi": 70,
          "time": 11.625,
          "velocity": 0.6299212598425197,
          "duration": 0.1867187500000007
        },
        {
          "name": "D5",
          "midi": 74,
          "time": 11.625,
          "velocity": 0.6299212598425197,
          "duration": 0.1867187500000007
        },
        {
          "name": "B4",
          "midi": 71,
          "time": 11.8125,
          "velocity": 0.6299212598425197,
          "duration": 0.1867187500000007
        },
        {
          "name": "D#5",
          "midi": 75,
          "time": 11.8125,
          "velocity": 0.6299212598425197,
          "duration": 0.1867187500000007
        },
        {
          "name": "A4",
          "midi": 69,
          "time": 12,
          "velocity": 0.6299212598425197,
          "duration": 0.1867187500000007
        },
        {
          "name": "A4",
          "midi": 69,
          "time": 12.1875,
          "velocity": 0.6299212598425197,
          "duration": 0.09296875000000071
        },
        {
          "name": "E5",
          "midi": 76,
          "time": 12.28125,
          "velocity": 0.6299212598425197,
          "duration": 0.09296875000000071
        },
        {
          "name": "D5",
          "midi": 74,
          "time": 12.375,
          "velocity": 0.6299212598425197,
          "duration": 0.09296875000000071
        },
        {
          "name": "C5",
          "midi": 72,
          "time": 12.46875,
          "velocity": 0.6299212598425197,
          "duration": 0.09296875000000071
        },
        {
          "name": "G4",
          "midi": 67,
          "time": 12.5625,
          "velocity": 0.6299212598425197,
          "duration": 0.1867187500000007
        },
        {
          "name": "A4",
          "midi": 69,
          "time": 12.75,
          "velocity": 0.6299212598425197,
          "duration": 0.1867187500000007
        },
        {
          "name": "A4",
          "midi": 69,
          "time": 12.9375,
          "velocity": 0.6299212598425197,
          "duration": 0.09296875000000071
        },
        {
          "name": "E5",
          "midi": 76,
          "time": 13.03125,
          "velocity": 0.6299212598425197,
          "duration": 0.09296875000000071
        },
        {
          "name": "D5",
          "midi": 74,
          "time": 13.125,
          "velocity": 0.6299212598425197,
          "duration": 0.09296875000000071
        },
        {
          "name": "C5",
          "midi": 72,
          "time": 13.21875,
          "velocity": 0.6299212598425197,
          "duration": 0.09296875000000071
        },
        {
          "name": "G4",
          "midi": 67,
          "time": 13.3125,
          "velocity": 0.6299212598425197,
          "duration": 0.1867187500000007
        },
        {
          "name": "C5",
          "midi": 72,
          "time": 13.5,
          "velocity": 0.6299212598425197,
          "duration": 0.09296875000000071
        },
        {
          "name": "B4",
          "midi": 71,
          "time": 13.59375,
          "velocity": 0.6299212598425197,
          "duration": 0.09296875000000071
        },
        {
          "name": "G4",
          "midi": 67,
          "time": 13.6875,
          "velocity": 0.6299212598425197,
          "duration": 0.09296875000000071
        },
        {
          "name": "C5",
          "midi": 72,
          "time": 13.78125,
          "velocity": 0.6299212598425197,
          "duration": 0.1867187500000007
        },
        {
          "name": "B4",
          "midi": 71,
          "time": 13.96875,
          "velocity": 0.6299212598425197,
          "duration": 0.09296875000000071
        },
        {
          "name": "G4",
          "midi": 67,
          "time": 14.0625,
          "velocity": 0.6299212598425197,
          "duration": 0.1867187500000007
        },
        {
          "name": "C5",
          "midi": 72,
          "time": 14.25,
          "velocity": 0.6299212598425197,
          "duration": 0.09296875000000071
        },
        {
          "name": "B4",
          "midi": 71,
          "time": 14.34375,
          "velocity": 0.6299212598425197,
          "duration": 0.09296875000000071
        },
        {
          "name": "G4",
          "midi": 67,
          "time": 14.4375,
          "velocity": 0.6299212598425197,
          "duration": 0.09296875000000071
        },
        {
          "name": "D5",
          "midi": 74,
          "time": 14.53125,
          "velocity": 0.6299212598425197,
          "duration": 0.1867187500000007
        },
        {
          "name": "B4",
          "midi": 71,
          "time": 14.71875,
          "velocity": 0.6299212598425197,
          "duration": 0.09296875000000071
        },
        {
          "name": "G4",
          "midi": 67,
          "time": 14.8125,
          "velocity": 0.6299212598425197,
          "duration": 0.1867187500000007
        },
        {
          "name": "A4",
          "midi": 69,
          "time": 15,
          "velocity": 0.6299212598425197,
          "duration": 0.1867187500000007
        },
        {
          "name": "A4",
          "midi": 69,
          "time": 15.1875,
          "velocity": 0.6299212598425197,
          "duration": 0.09296875000000071
        },
        {
          "name": "E5",
          "midi": 76,
          "time": 15.28125,
          "velocity": 0.6299212598425197,
          "duration": 0.09296875000000071
        },
        {
          "name": "D5",
          "midi": 74,
          "time": 15.375,
          "velocity": 0.6299212598425197,
          "duration": 0.09296875000000071
        },
        {
          "name": "C5",
          "midi": 72,
          "time": 15.46875,
          "velocity": 0.6299212598425197,
          "duration": 0.09296875000000071
        },
        {
          "name": "G4",
          "midi": 67,
          "time": 15.5625,
          "velocity": 0.6299212598425197,
          "duration": 0.1867187500000007
        },
        {
          "name": "A4",
          "midi": 69,
          "time": 15.75,
          "velocity": 0.6299212598425197,
          "duration": 0.1867187500000007
        },
        {
          "name": "A4",
          "midi": 69,
          "time": 15.9375,
          "velocity": 0.6299212598425197,
          "duration": 0.09296875000000071
        },
        {
          "name": "E5",
          "midi": 76,
          "time": 16.03125,
          "velocity": 0.6299212598425197,
          "duration": 0.09296875000000071
        },
        {
          "name": "D5",
          "midi": 74,
          "time": 16.125,
          "velocity": 0.6299212598425197,
          "duration": 0.09296875000000071
        },
        {
          "name": "C5",
          "midi": 72,
          "time": 16.21875,
          "velocity": 0.6299212598425197,
          "duration": 0.09296875000000071
        },
        {
          "name": "G4",
          "midi": 67,
          "time": 16.3125,
          "velocity": 0.6299212598425197,
          "duration": 0.1867187500000007
        },
        {
          "name": "C5",
          "midi": 72,
          "time": 16.5,
          "velocity": 0.6299212598425197,
          "duration": 0.7492187500000007
        },
        {
          "name": "C5",
          "midi": 72,
          "time": 17.25,
          "velocity": 0.6299212598425197,
          "duration": 0.3742187500000007
        },
        {
          "name": "B4",
          "midi": 71,
          "time": 17.625,
          "velocity": 0.6299212598425197,
          "duration": 0.3742187500000007
        },
        {
          "name": "A4",
          "midi": 69,
          "time": 18,
          "velocity": 0.6299212598425197,
          "duration": 0.1867187500000007
        },
        {
          "name": "A4",
          "midi": 69,
          "time": 18.1875,
          "velocity": 0.6299212598425197,
          "duration": 0.09296875000000071
        },
        {
          "name": "E5",
          "midi": 76,
          "time": 18.28125,
          "velocity": 0.6299212598425197,
          "duration": 0.09296875000000071
        },
        {
          "name": "D5",
          "midi": 74,
          "time": 18.375,
          "velocity": 0.6299212598425197,
          "duration": 0.09296875000000071
        },
        {
          "name": "C5",
          "midi": 72,
          "time": 18.46875,
          "velocity": 0.6299212598425197,
          "duration": 0.09296875000000071
        },
        {
          "name": "G4",
          "midi": 67,
          "time": 18.5625,
          "velocity": 0.6299212598425197,
          "duration": 0.1867187500000007
        },
        {
          "name": "A4",
          "midi": 69,
          "time": 18.75,
          "velocity": 0.6299212598425197,
          "duration": 0.1867187500000007
        },
        {
          "name": "A4",
          "midi": 69,
          "time": 18.9375,
          "velocity": 0.6299212598425197,
          "duration": 0.09296875000000071
        },
        {
          "name": "E5",
          "midi": 76,
          "time": 19.03125,
          "velocity": 0.6299212598425197,
          "duration": 0.09296875000000071
        },
        {
          "name": "D5",
          "midi": 74,
          "time": 19.125,
          "velocity": 0.6299212598425197,
          "duration": 0.09296875000000071
        },
        {
          "name": "C5",
          "midi": 72,
          "time": 19.21875,
          "velocity": 0.6299212598425197,
          "duration": 0.09296875000000071
        },
        {
          "name": "G4",
          "midi": 67,
          "time": 19.3125,
          "velocity": 0.6299212598425197,
          "duration": 0.1867187500000007
        },
        {
          "name": "C5",
          "midi": 72,
          "time": 19.5,
          "velocity": 0.6299212598425197,
          "duration": 0.09296875000000071
        },
        {
          "name": "B4",
          "midi": 71,
          "time": 19.59375,
          "velocity": 0.6299212598425197,
          "duration": 0.09296875000000071
        },
        {
          "name": "G4",
          "midi": 67,
          "time": 19.6875,
          "velocity": 0.6299212598425197,
          "duration": 0.09296875000000071
        },
        {
          "name": "C5",
          "midi": 72,
          "time": 19.78125,
          "velocity": 0.6299212598425197,
          "duration": 0.1867187500000007
        },
        {
          "name": "B4",
          "midi": 71,
          "time": 19.96875,
          "velocity": 0.6299212598425197,
          "duration": 0.09296875000000071
        },
        {
          "name": "G4",
          "midi": 67,
          "time": 20.0625,
          "velocity": 0.6299212598425197,
          "duration": 0.1867187500000007
        },
        {
          "name": "C5",
          "midi": 72,
          "time": 20.25,
          "velocity": 0.6299212598425197,
          "duration": 0.09296875000000071
        },
        {
          "name": "B4",
          "midi": 71,
          "time": 20.34375,
          "velocity": 0.6299212598425197,
          "duration": 0.09296875000000071
        },
        {
          "name": "G4",
          "midi": 67,
          "time": 20.4375,
          "velocity": 0.6299212598425197,
          "duration": 0.09296875000000071
        },
        {
          "name": "D5",
          "midi": 74,
          "time": 20.53125,
          "velocity": 0.6299212598425197,
          "duration": 0.1867187500000007
        },
        {
          "name": "B4",
          "midi": 71,
          "time": 20.71875,
          "velocity": 0.6299212598425197,
          "duration": 0.09296875000000071
        },
        {
          "name": "G4",
          "midi": 67,
          "time": 20.8125,
          "velocity": 0.6299212598425197,
          "duration": 0.1867187500000007
        },
        {
          "name": "A4",
          "midi": 69,
          "time": 21,
          "velocity": 0.6299212598425197,
          "duration": 0.1867187500000007
        },
        {
          "name": "A4",
          "midi": 69,
          "time": 21.1875,
          "velocity": 0.6299212598425197,
          "duration": 0.09296875000000071
        },
        {
          "name": "E5",
          "midi": 76,
          "time": 21.28125,
          "velocity": 0.6299212598425197,
          "duration": 0.09296875000000071
        },
        {
          "name": "D5",
          "midi": 74,
          "time": 21.375,
          "velocity": 0.6299212598425197,
          "duration": 0.09296875000000071
        },
        {
          "name": "C5",
          "midi": 72,
          "time": 21.46875,
          "velocity": 0.6299212598425197,
          "duration": 0.09296875000000071
        },
        {
          "name": "G4",
          "midi": 67,
          "time": 21.5625,
          "velocity": 0.6299212598425197,
          "duration": 0.1867187500000007
        },
        {
          "name": "A4",
          "midi": 69,
          "time": 21.75,
          "velocity": 0.6299212598425197,
          "duration": 0.1867187500000007
        },
        {
          "name": "A4",
          "midi": 69,
          "time": 21.9375,
          "velocity": 0.6299212598425197,
          "duration": 0.09296875000000071
        },
        {
          "name": "E5",
          "midi": 76,
          "time": 22.03125,
          "velocity": 0.6299212598425197,
          "duration": 0.09296875000000071
        },
        {
          "name": "D5",
          "midi": 74,
          "time": 22.125,
          "velocity": 0.6299212598425197,
          "duration": 0.09296875000000071
        },
        {
          "name": "C5",
          "midi": 72,
          "time": 22.21875,
          "velocity": 0.6299212598425197,
          "duration": 0.09296875000000071
        },
        {
          "name": "G4",
          "midi": 67,
          "time": 22.3125,
          "velocity": 0.6299212598425197,
          "duration": 0.1867187500000007
        },
        {
          "name": "C5",
          "midi": 72,
          "time": 22.5,
          "velocity": 0.6299212598425197,
          "duration": 0.1867187500000007
        },
        {
          "name": "E5",
          "midi": 76,
          "time": 22.5,
          "velocity": 0.6299212598425197,
          "duration": 0.1867187500000007
        },
        {
          "name": "B4",
          "midi": 71,
          "time": 22.6875,
          "velocity": 0.6299212598425197,
          "duration": 0.1867187500000007
        },
        {
          "name": "D#5",
          "midi": 75,
          "time": 22.6875,
          "velocity": 0.6299212598425197,
          "duration": 0.1867187500000007
        },
        {
          "name": "A#4",
          "midi": 70,
          "time": 22.875,
          "velocity": 0.6299212598425197,
          "duration": 0.1867187500000007
        },
        {
          "name": "D5",
          "midi": 74,
          "time": 22.875,
          "velocity": 0.6299212598425197,
          "duration": 0.1867187500000007
        },
        {
          "name": "A4",
          "midi": 69,
          "time": 23.0625,
          "velocity": 0.6299212598425197,
          "duration": 0.1867187500000007
        },
        {
          "name": "C#5",
          "midi": 73,
          "time": 23.0625,
          "velocity": 0.6299212598425197,
          "duration": 0.1867187500000007
        },
        {
          "name": "G#4",
          "midi": 68,
          "time": 23.25,
          "velocity": 0.6299212598425197,
          "duration": 0.1867187500000007
        },
        {
          "name": "C5",
          "midi": 72,
          "time": 23.25,
          "velocity": 0.6299212598425197,
          "duration": 0.1867187500000007
        },
        {
          "name": "A4",
          "midi": 69,
          "time": 23.4375,
          "velocity": 0.6299212598425197,
          "duration": 0.1867187500000007
        },
        {
          "name": "C#5",
          "midi": 73,
          "time": 23.4375,
          "velocity": 0.6299212598425197,
          "duration": 0.1867187500000007
        },
        {
          "name": "A#4",
          "midi": 70,
          "time": 23.625,
          "velocity": 0.6299212598425197,
          "duration": 0.1867187500000007
        },
        {
          "name": "D5",
          "midi": 74,
          "time": 23.625,
          "velocity": 0.6299212598425197,
          "duration": 0.1867187500000007
        },
        {
          "name": "B4",
          "midi": 71,
          "time": 23.8125,
          "velocity": 0.6299212598425197,
          "duration": 0.1867187500000007
        },
        {
          "name": "D#5",
          "midi": 75,
          "time": 23.8125,
          "velocity": 0.6299212598425197,
          "duration": 0.1867187500000007
        },
        {
          "name": "A4",
          "midi": 69,
          "time": 24,
          "velocity": 0.7559055118110236,
          "duration": 0.09296875000000071
        },
        {
          "name": "E4",
          "midi": 64,
          "time": 24.09375,
          "velocity": 0.7559055118110236,
          "duration": 0.09296875000000071
        },
        {
          "name": "A4",
          "midi": 69,
          "time": 24.1875,
          "velocity": 0.7559055118110236,
          "duration": 0.09296875000000071
        },
        {
          "name": "E5",
          "midi": 76,
          "time": 24.28125,
          "velocity": 0.7559055118110236,
          "duration": 0.09296875000000071
        },
        {
          "name": "D5",
          "midi": 74,
          "time": 24.375,
          "velocity": 0.7559055118110236,
          "duration": 0.09296875000000071
        },
        {
          "name": "C5",
          "midi": 72,
          "time": 24.46875,
          "velocity": 0.7559055118110236,
          "duration": 0.09296875000000071
        },
        {
          "name": "G4",
          "midi": 67,
          "time": 24.5625,
          "velocity": 0.7559055118110236,
          "duration": 0.1867187500000007
        },
        {
          "name": "A4",
          "midi": 69,
          "time": 24.75,
          "velocity": 0.7559055118110236,
          "duration": 0.09296875000000071
        },
        {
          "name": "E4",
          "midi": 64,
          "time": 24.84375,
          "velocity": 0.7559055118110236,
          "duration": 0.09296875000000071
        },
        {
          "name": "A4",
          "midi": 69,
          "time": 24.9375,
          "velocity": 0.7559055118110236,
          "duration": 0.09296875000000071
        },
        {
          "name": "E5",
          "midi": 76,
          "time": 25.03125,
          "velocity": 0.7559055118110236,
          "duration": 0.09296875000000071
        },
        {
          "name": "D5",
          "midi": 74,
          "time": 25.125,
          "velocity": 0.7559055118110236,
          "duration": 0.09296875000000071
        },
        {
          "name": "C5",
          "midi": 72,
          "time": 25.21875,
          "velocity": 0.7559055118110236,
          "duration": 0.09296875000000071
        },
        {
          "name": "G4",
          "midi": 67,
          "time": 25.3125,
          "velocity": 0.7559055118110236,
          "duration": 0.1867187500000007
        },
        {
          "name": "C5",
          "midi": 72,
          "time": 25.5,
          "velocity": 0.7559055118110236,
          "duration": 0.09296875000000071
        },
        {
          "name": "B4",
          "midi": 71,
          "time": 25.59375,
          "velocity": 0.7559055118110236,
          "duration": 0.09296875000000071
        },
        {
          "name": "G4",
          "midi": 67,
          "time": 25.6875,
          "velocity": 0.7559055118110236,
          "duration": 0.09296875000000071
        },
        {
          "name": "C5",
          "midi": 72,
          "time": 25.78125,
          "velocity": 0.7559055118110236,
          "duration": 0.1867187500000007
        },
        {
          "name": "B4",
          "midi": 71,
          "time": 25.96875,
          "velocity": 0.7559055118110236,
          "duration": 0.09296875000000071
        },
        {
          "name": "G4",
          "midi": 67,
          "time": 26.0625,
          "velocity": 0.7559055118110236,
          "duration": 0.1867187500000007
        },
        {
          "name": "C5",
          "midi": 72,
          "time": 26.25,
          "velocity": 0.7559055118110236,
          "duration": 0.09296875000000071
        },
        {
          "name": "B4",
          "midi": 71,
          "time": 26.34375,
          "velocity": 0.7559055118110236,
          "duration": 0.09296875000000071
        },
        {
          "name": "G4",
          "midi": 67,
          "time": 26.4375,
          "velocity": 0.7559055118110236,
          "duration": 0.09296875000000071
        },
        {
          "name": "D5",
          "midi": 74,
          "time": 26.53125,
          "velocity": 0.7559055118110236,
          "duration": 0.1867187500000007
        },
        {
          "name": "B4",
          "midi": 71,
          "time": 26.71875,
          "velocity": 0.7559055118110236,
          "duration": 0.09296875000000071
        },
        {
          "name": "G4",
          "midi": 67,
          "time": 26.8125,
          "velocity": 0.7559055118110236,
          "duration": 0.1867187500000007
        },
        {
          "name": "A4",
          "midi": 69,
          "time": 27,
          "velocity": 0.7559055118110236,
          "duration": 0.09296875000000071
        },
        {
          "name": "E4",
          "midi": 64,
          "time": 27.09375,
          "velocity": 0.7559055118110236,
          "duration": 0.09296875000000071
        },
        {
          "name": "A4",
          "midi": 69,
          "time": 27.1875,
          "velocity": 0.7559055118110236,
          "duration": 0.09296875000000071
        },
        {
          "name": "E5",
          "midi": 76,
          "time": 27.28125,
          "velocity": 0.7559055118110236,
          "duration": 0.09296875000000071
        },
        {
          "name": "D5",
          "midi": 74,
          "time": 27.375,
          "velocity": 0.7559055118110236,
          "duration": 0.09296875000000071
        },
        {
          "name": "C5",
          "midi": 72,
          "time": 27.46875,
          "velocity": 0.7559055118110236,
          "duration": 0.09296875000000071
        },
        {
          "name": "G4",
          "midi": 67,
          "time": 27.5625,
          "velocity": 0.7559055118110236,
          "duration": 0.1867187500000007
        },
        {
          "name": "A4",
          "midi": 69,
          "time": 27.75,
          "velocity": 0.7559055118110236,
          "duration": 0.09296875000000071
        },
        {
          "name": "E4",
          "midi": 64,
          "time": 27.84375,
          "velocity": 0.7559055118110236,
          "duration": 0.09296875000000071
        },
        {
          "name": "A4",
          "midi": 69,
          "time": 27.9375,
          "velocity": 0.7559055118110236,
          "duration": 0.09296875000000071
        },
        {
          "name": "E5",
          "midi": 76,
          "time": 28.03125,
          "velocity": 0.7559055118110236,
          "duration": 0.09296875000000071
        },
        {
          "name": "D5",
          "midi": 74,
          "time": 28.125,
          "velocity": 0.7559055118110236,
          "duration": 0.09296875000000071
        },
        {
          "name": "C5",
          "midi": 72,
          "time": 28.21875,
          "velocity": 0.7559055118110236,
          "duration": 0.09296875000000071
        },
        {
          "name": "G4",
          "midi": 67,
          "time": 28.3125,
          "velocity": 0.7559055118110236,
          "duration": 0.1867187500000007
        },
        {
          "name": "A4",
          "midi": 69,
          "time": 28.5,
          "velocity": 0.7559055118110236,
          "duration": 0.09296875000000071
        },
        {
          "name": "C5",
          "midi": 72,
          "time": 28.5,
          "velocity": 0.7559055118110236,
          "duration": 0.09296875000000071
        },
        {
          "name": "A4",
          "midi": 69,
          "time": 28.59375,
          "velocity": 0.7559055118110236,
          "duration": 0.1867187500000007
        },
        {
          "name": "C5",
          "midi": 72,
          "time": 28.59375,
          "velocity": 0.7559055118110236,
          "duration": 0.1867187500000007
        },
        {
          "name": "A4",
          "midi": 69,
          "time": 28.78125,
          "velocity": 0.7559055118110236,
          "duration": 0.09296875000000071
        },
        {
          "name": "C5",
          "midi": 72,
          "time": 28.78125,
          "velocity": 0.7559055118110236,
          "duration": 0.09296875000000071
        },
        {
          "name": "B4",
          "midi": 71,
          "time": 28.875,
          "velocity": 0.7559055118110236,
          "duration": 0.1867187500000007
        },
        {
          "name": "D5",
          "midi": 74,
          "time": 28.875,
          "velocity": 0.7559055118110236,
          "duration": 0.1867187500000007
        },
        {
          "name": "B4",
          "midi": 71,
          "time": 29.0625,
          "velocity": 0.7559055118110236,
          "duration": 0.1867187500000007
        },
        {
          "name": "D5",
          "midi": 74,
          "time": 29.0625,
          "velocity": 0.7559055118110236,
          "duration": 0.1867187500000007
        },
        {
          "name": "C5",
          "midi": 72,
          "time": 29.25,
          "velocity": 0.7559055118110236,
          "duration": 0.09296875000000071
        },
        {
          "name": "E5",
          "midi": 76,
          "time": 29.25,
          "velocity": 0.7559055118110236,
          "duration": 0.09296875000000071
        },
        {
          "name": "C5",
          "midi": 72,
          "time": 29.34375,
          "velocity": 0.7559055118110236,
          "duration": 0.1867187500000007
        },
        {
          "name": "E5",
          "midi": 76,
          "time": 29.34375,
          "velocity": 0.7559055118110236,
          "duration": 0.1867187500000007
        },
        {
          "name": "C5",
          "midi": 72,
          "time": 29.53125,
          "velocity": 0.7559055118110236,
          "duration": 0.09296875000000071
        },
        {
          "name": "E5",
          "midi": 76,
          "time": 29.53125,
          "velocity": 0.7559055118110236,
          "duration": 0.09296875000000071
        },
        {
          "name": "B4",
          "midi": 71,
          "time": 29.625,
          "velocity": 0.7559055118110236,
          "duration": 0.1867187500000007
        },
        {
          "name": "D5",
          "midi": 74,
          "time": 29.625,
          "velocity": 0.7559055118110236,
          "duration": 0.1867187500000007
        },
        {
          "name": "B4",
          "midi": 71,
          "time": 29.8125,
          "velocity": 0.7559055118110236,
          "duration": 0.1867187500000007
        },
        {
          "name": "D5",
          "midi": 74,
          "time": 29.8125,
          "velocity": 0.7559055118110236,
          "duration": 0.1867187500000007
        },
        {
          "name": "A4",
          "midi": 69,
          "time": 30,
          "velocity": 0.7559055118110236,
          "duration": 0.09296875000000071
        },
        {
          "name": "E4",
          "midi": 64,
          "time": 30.09375,
          "velocity": 0.7559055118110236,
          "duration": 0.09296875000000071
        },
        {
          "name": "A4",
          "midi": 69,
          "time": 30.1875,
          "velocity": 0.7559055118110236,
          "duration": 0.09296875000000071
        },
        {
          "name": "E5",
          "midi": 76,
          "time": 30.28125,
          "velocity": 0.7559055118110236,
          "duration": 0.09296875000000071
        },
        {
          "name": "D5",
          "midi": 74,
          "time": 30.375,
          "velocity": 0.7559055118110236,
          "duration": 0.09296875000000071
        },
        {
          "name": "C5",
          "midi": 72,
          "time": 30.46875,
          "velocity": 0.7559055118110236,
          "duration": 0.09296875000000071
        },
        {
          "name": "G4",
          "midi": 67,
          "time": 30.5625,
          "velocity": 0.7559055118110236,
          "duration": 0.1867187500000007
        },
        {
          "name": "A4",
          "midi": 69,
          "time": 30.75,
          "velocity": 0.7559055118110236,
          "duration": 0.09296875000000071
        },
        {
          "name": "E4",
          "midi": 64,
          "time": 30.84375,
          "velocity": 0.7559055118110236,
          "duration": 0.09296875000000071
        },
        {
          "name": "A4",
          "midi": 69,
          "time": 30.9375,
          "velocity": 0.7559055118110236,
          "duration": 0.09296875000000071
        },
        {
          "name": "E5",
          "midi": 76,
          "time": 31.03125,
          "velocity": 0.7559055118110236,
          "duration": 0.09296875000000071
        },
        {
          "name": "D5",
          "midi": 74,
          "time": 31.125,
          "velocity": 0.7559055118110236,
          "duration": 0.09296875000000071
        },
        {
          "name": "C5",
          "midi": 72,
          "time": 31.21875,
          "velocity": 0.7559055118110236,
          "duration": 0.09296875000000071
        },
        {
          "name": "G4",
          "midi": 67,
          "time": 31.3125,
          "velocity": 0.7559055118110236,
          "duration": 0.1867187500000007
        },
        {
          "name": "C5",
          "midi": 72,
          "time": 31.5,
          "velocity": 0.7559055118110236,
          "duration": 0.09296875000000071
        },
        {
          "name": "B4",
          "midi": 71,
          "time": 31.59375,
          "velocity": 0.7559055118110236,
          "duration": 0.09296875000000071
        },
        {
          "name": "G4",
          "midi": 67,
          "time": 31.6875,
          "velocity": 0.7559055118110236,
          "duration": 0.09296875000000071
        },
        {
          "name": "C5",
          "midi": 72,
          "time": 31.78125,
          "velocity": 0.7559055118110236,
          "duration": 0.1867187500000007
        },
        {
          "name": "B4",
          "midi": 71,
          "time": 31.96875,
          "velocity": 0.7559055118110236,
          "duration": 0.09296874999999716
        },
        {
          "name": "G4",
          "midi": 67,
          "time": 32.0625,
          "velocity": 0.7559055118110236,
          "duration": 0.18671874999999716
        },
        {
          "name": "C5",
          "midi": 72,
          "time": 32.25,
          "velocity": 0.7559055118110236,
          "duration": 0.09296874999999716
        },
        {
          "name": "B4",
          "midi": 71,
          "time": 32.34375,
          "velocity": 0.7559055118110236,
          "duration": 0.09296874999999716
        },
        {
          "name": "G4",
          "midi": 67,
          "time": 32.4375,
          "velocity": 0.7559055118110236,
          "duration": 0.09296874999999716
        },
        {
          "name": "D5",
          "midi": 74,
          "time": 32.53125,
          "velocity": 0.7559055118110236,
          "duration": 0.18671874999999716
        },
        {
          "name": "B4",
          "midi": 71,
          "time": 32.71875,
          "velocity": 0.7559055118110236,
          "duration": 0.09296874999999716
        },
        {
          "name": "G4",
          "midi": 67,
          "time": 32.8125,
          "velocity": 0.7559055118110236,
          "duration": 0.18671874999999716
        },
        {
          "name": "A4",
          "midi": 69,
          "time": 33,
          "velocity": 0.7559055118110236,
          "duration": 0.09296874999999716
        },
        {
          "name": "E4",
          "midi": 64,
          "time": 33.09375,
          "velocity": 0.7559055118110236,
          "duration": 0.09296874999999716
        },
        {
          "name": "A4",
          "midi": 69,
          "time": 33.1875,
          "velocity": 0.7559055118110236,
          "duration": 0.09296874999999716
        },
        {
          "name": "E5",
          "midi": 76,
          "time": 33.28125,
          "velocity": 0.7559055118110236,
          "duration": 0.09296874999999716
        },
        {
          "name": "D5",
          "midi": 74,
          "time": 33.375,
          "velocity": 0.7559055118110236,
          "duration": 0.09296874999999716
        },
        {
          "name": "C5",
          "midi": 72,
          "time": 33.46875,
          "velocity": 0.7559055118110236,
          "duration": 0.09296874999999716
        },
        {
          "name": "G4",
          "midi": 67,
          "time": 33.5625,
          "velocity": 0.7559055118110236,
          "duration": 0.18671874999999716
        },
        {
          "name": "A4",
          "midi": 69,
          "time": 33.75,
          "velocity": 0.7559055118110236,
          "duration": 0.09296874999999716
        },
        {
          "name": "E4",
          "midi": 64,
          "time": 33.84375,
          "velocity": 0.7559055118110236,
          "duration": 0.09296874999999716
        },
        {
          "name": "A4",
          "midi": 69,
          "time": 33.9375,
          "velocity": 0.7559055118110236,
          "duration": 0.09296874999999716
        },
        {
          "name": "E5",
          "midi": 76,
          "time": 34.03125,
          "velocity": 0.7559055118110236,
          "duration": 0.09296874999999716
        },
        {
          "name": "D5",
          "midi": 74,
          "time": 34.125,
          "velocity": 0.7559055118110236,
          "duration": 0.09296874999999716
        },
        {
          "name": "C5",
          "midi": 72,
          "time": 34.21875,
          "velocity": 0.7559055118110236,
          "duration": 0.09296874999999716
        },
        {
          "name": "G4",
          "midi": 67,
          "time": 34.3125,
          "velocity": 0.7559055118110236,
          "duration": 0.18671874999999716
        },
        {
          "name": "C5",
          "midi": 72,
          "time": 34.5,
          "velocity": 0.7559055118110236,
          "duration": 0.18671874999999716
        },
        {
          "name": "E5",
          "midi": 76,
          "time": 34.5,
          "velocity": 0.7559055118110236,
          "duration": 0.18671874999999716
        },
        {
          "name": "B4",
          "midi": 71,
          "time": 34.6875,
          "velocity": 0.7559055118110236,
          "duration": 0.18671874999999716
        },
        {
          "name": "D#5",
          "midi": 75,
          "time": 34.6875,
          "velocity": 0.7559055118110236,
          "duration": 0.18671874999999716
        },
        {
          "name": "A#4",
          "midi": 70,
          "time": 34.875,
          "velocity": 0.7559055118110236,
          "duration": 0.18671874999999716
        },
        {
          "name": "D5",
          "midi": 74,
          "time": 34.875,
          "velocity": 0.7559055118110236,
          "duration": 0.18671874999999716
        },
        {
          "name": "A4",
          "midi": 69,
          "time": 35.0625,
          "velocity": 0.7559055118110236,
          "duration": 0.18671874999999716
        },
        {
          "name": "C#5",
          "midi": 73,
          "time": 35.0625,
          "velocity": 0.7559055118110236,
          "duration": 0.18671874999999716
        },
        {
          "name": "G#4",
          "midi": 68,
          "time": 35.25,
          "velocity": 0.7559055118110236,
          "duration": 0.18671874999999716
        },
        {
          "name": "C5",
          "midi": 72,
          "time": 35.25,
          "velocity": 0.7559055118110236,
          "duration": 0.18671874999999716
        },
        {
          "name": "A4",
          "midi": 69,
          "time": 35.4375,
          "velocity": 0.7559055118110236,
          "duration": 0.18671874999999716
        },
        {
          "name": "C#5",
          "midi": 73,
          "time": 35.4375,
          "velocity": 0.7559055118110236,
          "duration": 0.18671874999999716
        },
        {
          "name": "A#4",
          "midi": 70,
          "time": 35.625,
          "velocity": 0.7559055118110236,
          "duration": 0.18671874999999716
        },
        {
          "name": "D5",
          "midi": 74,
          "time": 35.625,
          "velocity": 0.7559055118110236,
          "duration": 0.18671874999999716
        },
        {
          "name": "B4",
          "midi": 71,
          "time": 35.8125,
          "velocity": 0.7559055118110236,
          "duration": 0.18671874999999716
        },
        {
          "name": "D#5",
          "midi": 75,
          "time": 35.8125,
          "velocity": 0.7559055118110236,
          "duration": 0.18671874999999716
        },
        {
          "name": "E4",
          "midi": 64,
          "time": 36.375,
          "velocity": 0.7559055118110236,
          "duration": 0.18671874999999716
        },
        {
          "name": "A4",
          "midi": 69,
          "time": 36.375,
          "velocity": 0.7559055118110236,
          "duration": 0.18671874999999716
        },
        {
          "name": "E4",
          "midi": 64,
          "time": 36.5625,
          "velocity": 0.7559055118110236,
          "duration": 0.18671874999999716
        },
        {
          "name": "A4",
          "midi": 69,
          "time": 36.5625,
          "velocity": 0.7559055118110236,
          "duration": 0.18671874999999716
        },
        {
          "name": "E4",
          "midi": 64,
          "time": 36.75,
          "velocity": 0.7559055118110236,
          "duration": 0.18671874999999716
        },
        {
          "name": "B4",
          "midi": 71,
          "time": 36.75,
          "velocity": 0.7559055118110236,
          "duration": 0.18671874999999716
        },
        {
          "name": "E4",
          "midi": 64,
          "time": 36.9375,
          "velocity": 0.7559055118110236,
          "duration": 0.5617187499999972
        },
        {
          "name": "C5",
          "midi": 72,
          "time": 36.9375,
          "velocity": 0.7559055118110236,
          "duration": 0.5617187499999972
        },
        {
          "name": "E4",
          "midi": 64,
          "time": 37.875,
          "velocity": 0.7559055118110236,
          "duration": 0.18671874999999716
        },
        {
          "name": "A4",
          "midi": 69,
          "time": 37.875,
          "velocity": 0.7559055118110236,
          "duration": 0.18671874999999716
        },
        {
          "name": "E4",
          "midi": 64,
          "time": 38.0625,
          "velocity": 0.7559055118110236,
          "duration": 0.18671874999999716
        },
        {
          "name": "A4",
          "midi": 69,
          "time": 38.0625,
          "velocity": 0.7559055118110236,
          "duration": 0.18671874999999716
        },
        {
          "name": "E4",
          "midi": 64,
          "time": 38.25,
          "velocity": 0.7559055118110236,
          "duration": 0.18671874999999716
        },
        {
          "name": "B4",
          "midi": 71,
          "time": 38.25,
          "velocity": 0.7559055118110236,
          "duration": 0.18671874999999716
        },
        {
          "name": "E4",
          "midi": 64,
          "time": 38.4375,
          "velocity": 0.7559055118110236,
          "duration": 0.37421874999999716
        },
        {
          "name": "C5",
          "midi": 72,
          "time": 38.4375,
          "velocity": 0.7559055118110236,
          "duration": 0.37421874999999716
        },
        {
          "name": "F4",
          "midi": 65,
          "time": 38.8125,
          "velocity": 0.7559055118110236,
          "duration": 0.37421874999999716
        },
        {
          "name": "B4",
          "midi": 71,
          "time": 38.8125,
          "velocity": 0.7559055118110236,
          "duration": 0.37421874999999716
        },
        {
          "name": "F4",
          "midi": 65,
          "time": 39.1875,
          "velocity": 0.7559055118110236,
          "duration": 0.37421874999999716
        },
        {
          "name": "A4",
          "midi": 69,
          "time": 39.1875,
          "velocity": 0.7559055118110236,
          "duration": 0.37421874999999716
        },
        {
          "name": "F4",
          "midi": 65,
          "time": 39.5625,
          "velocity": 0.7559055118110236,
          "duration": 0.9367187499999972
        },
        {
          "name": "A4",
          "midi": 69,
          "time": 39.5625,
          "velocity": 0.7559055118110236,
          "duration": 0.9367187499999972
        },
        {
          "name": "C4",
          "midi": 60,
          "time": 40.5,
          "velocity": 0.7559055118110236,
          "duration": 0.37421874999999716
        },
        {
          "name": "F4",
          "midi": 65,
          "time": 40.5,
          "velocity": 0.7559055118110236,
          "duration": 0.37421874999999716
        },
        {
          "name": "C4",
          "midi": 60,
          "time": 40.875,
          "velocity": 0.7559055118110236,
          "duration": 0.37421874999999716
        },
        {
          "name": "G4",
          "midi": 67,
          "time": 40.875,
          "velocity": 0.7559055118110236,
          "duration": 0.37421874999999716
        },
        {
          "name": "B3",
          "midi": 59,
          "time": 41.25,
          "velocity": 0.7559055118110236,
          "duration": 0.18671874999999716
        },
        {
          "name": "F4",
          "midi": 65,
          "time": 41.25,
          "velocity": 0.7559055118110236,
          "duration": 0.18671874999999716
        },
        {
          "name": "B3",
          "midi": 59,
          "time": 41.4375,
          "velocity": 0.7559055118110236,
          "duration": 0.5617187499999972
        },
        {
          "name": "E4",
          "midi": 64,
          "time": 41.4375,
          "velocity": 0.7559055118110236,
          "duration": 0.5617187499999972
        },
        {
          "name": "E4",
          "midi": 64,
          "time": 42.375,
          "velocity": 0.7559055118110236,
          "duration": 0.18671874999999716
        },
        {
          "name": "A4",
          "midi": 69,
          "time": 42.375,
          "velocity": 0.7559055118110236,
          "duration": 0.18671874999999716
        },
        {
          "name": "C5",
          "midi": 72,
          "time": 42.375,
          "velocity": 0.7559055118110236,
          "duration": 0.18671874999999716
        },
        {
          "name": "E4",
          "midi": 64,
          "time": 42.5625,
          "velocity": 0.7559055118110236,
          "duration": 0.18671874999999716
        },
        {
          "name": "A4",
          "midi": 69,
          "time": 42.5625,
          "velocity": 0.7559055118110236,
          "duration": 0.18671874999999716
        },
        {
          "name": "C5",
          "midi": 72,
          "time": 42.5625,
          "velocity": 0.7559055118110236,
          "duration": 0.18671874999999716
        },
        {
          "name": "E4",
          "midi": 64,
          "time": 42.75,
          "velocity": 0.7559055118110236,
          "duration": 0.18671874999999716
        },
        {
          "name": "B4",
          "midi": 71,
          "time": 42.75,
          "velocity": 0.7559055118110236,
          "duration": 0.18671874999999716
        },
        {
          "name": "D5",
          "midi": 74,
          "time": 42.75,
          "velocity": 0.7559055118110236,
          "duration": 0.18671874999999716
        },
        {
          "name": "E4",
          "midi": 64,
          "time": 42.9375,
          "velocity": 0.7559055118110236,
          "duration": 0.5617187499999972
        },
        {
          "name": "C5",
          "midi": 72,
          "time": 42.9375,
          "velocity": 0.7559055118110236,
          "duration": 0.5617187499999972
        },
        {
          "name": "E5",
          "midi": 76,
          "time": 42.9375,
          "velocity": 0.7559055118110236,
          "duration": 0.5617187499999972
        },
        {
          "name": "E4",
          "midi": 64,
          "time": 43.875,
          "velocity": 0.7559055118110236,
          "duration": 0.18671874999999716
        },
        {
          "name": "A4",
          "midi": 69,
          "time": 43.875,
          "velocity": 0.7559055118110236,
          "duration": 0.18671874999999716
        },
        {
          "name": "C5",
          "midi": 72,
          "time": 43.875,
          "velocity": 0.7559055118110236,
          "duration": 0.18671874999999716
        },
        {
          "name": "E4",
          "midi": 64,
          "time": 44.0625,
          "velocity": 0.7559055118110236,
          "duration": 0.18671874999999716
        },
        {
          "name": "A4",
          "midi": 69,
          "time": 44.0625,
          "velocity": 0.7559055118110236,
          "duration": 0.18671874999999716
        },
        {
          "name": "C5",
          "midi": 72,
          "time": 44.0625,
          "velocity": 0.7559055118110236,
          "duration": 0.18671874999999716
        },
        {
          "name": "E4",
          "midi": 64,
          "time": 44.25,
          "velocity": 0.7559055118110236,
          "duration": 0.18671874999999716
        },
        {
          "name": "B4",
          "midi": 71,
          "time": 44.25,
          "velocity": 0.7559055118110236,
          "duration": 0.18671874999999716
        },
        {
          "name": "D5",
          "midi": 74,
          "time": 44.25,
          "velocity": 0.7559055118110236,
          "duration": 0.18671874999999716
        },
        {
          "name": "E4",
          "midi": 64,
          "time": 44.4375,
          "velocity": 0.7559055118110236,
          "duration": 0.37421874999999716
        },
        {
          "name": "C5",
          "midi": 72,
          "time": 44.4375,
          "velocity": 0.7559055118110236,
          "duration": 0.37421874999999716
        },
        {
          "name": "E5",
          "midi": 76,
          "time": 44.4375,
          "velocity": 0.7559055118110236,
          "duration": 0.37421874999999716
        },
        {
          "name": "F4",
          "midi": 65,
          "time": 44.8125,
          "velocity": 0.7559055118110236,
          "duration": 0.37421874999999716
        },
        {
          "name": "B4",
          "midi": 71,
          "time": 44.8125,
          "velocity": 0.7559055118110236,
          "duration": 0.37421874999999716
        },
        {
          "name": "D5",
          "midi": 74,
          "time": 44.8125,
          "velocity": 0.7559055118110236,
          "duration": 0.37421874999999716
        },
        {
          "name": "F4",
          "midi": 65,
          "time": 45.1875,
          "velocity": 0.7559055118110236,
          "duration": 0.37421874999999716
        },
        {
          "name": "A4",
          "midi": 69,
          "time": 45.1875,
          "velocity": 0.7559055118110236,
          "duration": 0.37421874999999716
        },
        {
          "name": "C5",
          "midi": 72,
          "time": 45.1875,
          "velocity": 0.7559055118110236,
          "duration": 0.37421874999999716
        },
        {
          "name": "F4",
          "midi": 65,
          "time": 45.5625,
          "velocity": 0.7559055118110236,
          "duration": 0.9367187499999972
        },
        {
          "name": "A4",
          "midi": 69,
          "time": 45.5625,
          "velocity": 0.7559055118110236,
          "duration": 0.9367187499999972
        },
        {
          "name": "C5",
          "midi": 72,
          "time": 45.5625,
          "velocity": 0.7559055118110236,
          "duration": 0.9367187499999972
        },
        {
          "name": "C4",
          "midi": 60,
          "time": 46.5,
          "velocity": 0.7559055118110236,
          "duration": 0.37421874999999716
        },
        {
          "name": "F4",
          "midi": 65,
          "time": 46.5,
          "velocity": 0.7559055118110236,
          "duration": 0.37421874999999716
        },
        {
          "name": "C4",
          "midi": 60,
          "time": 46.875,
          "velocity": 0.7559055118110236,
          "duration": 0.37421874999999716
        },
        {
          "name": "G4",
          "midi": 67,
          "time": 46.875,
          "velocity": 0.7559055118110236,
          "duration": 0.37421874999999716
        },
        {
          "name": "B3",
          "midi": 59,
          "time": 47.25,
          "velocity": 0.7559055118110236,
          "duration": 0.18671874999999716
        },
        {
          "name": "F4",
          "midi": 65,
          "time": 47.25,
          "velocity": 0.7559055118110236,
          "duration": 0.18671874999999716
        },
        {
          "name": "B3",
          "midi": 59,
          "time": 47.4375,
          "velocity": 0.7559055118110236,
          "duration": 0.5617187499999972
        },
        {
          "name": "E4",
          "midi": 64,
          "time": 47.4375,
          "velocity": 0.7559055118110236,
          "duration": 0.5617187499999972
        },
        {
          "name": "F4",
          "midi": 65,
          "time": 48,
          "velocity": 0.7559055118110236,
          "duration": 0.37421874999999716
        },
        {
          "name": "A4",
          "midi": 69,
          "time": 48,
          "velocity": 0.7559055118110236,
          "duration": 0.37421874999999716
        },
        {
          "name": "C5",
          "midi": 72,
          "time": 48,
          "velocity": 0.7559055118110236,
          "duration": 0.37421874999999716
        },
        {
          "name": "F4",
          "midi": 65,
          "time": 48.375,
          "velocity": 0.7559055118110236,
          "duration": 0.37421874999999716
        },
        {
          "name": "A4",
          "midi": 69,
          "time": 48.375,
          "velocity": 0.7559055118110236,
          "duration": 0.37421874999999716
        },
        {
          "name": "C5",
          "midi": 72,
          "time": 48.375,
          "velocity": 0.7559055118110236,
          "duration": 0.37421874999999716
        },
        {
          "name": "F4",
          "midi": 65,
          "time": 48.75,
          "velocity": 0.7559055118110236,
          "duration": 0.18671874999999716
        },
        {
          "name": "B4",
          "midi": 71,
          "time": 48.75,
          "velocity": 0.7559055118110236,
          "duration": 0.18671874999999716
        },
        {
          "name": "F4",
          "midi": 65,
          "time": 48.9375,
          "velocity": 0.7559055118110236,
          "duration": 0.18671874999999716
        },
        {
          "name": "A4",
          "midi": 69,
          "time": 48.9375,
          "velocity": 0.7559055118110236,
          "duration": 0.18671874999999716
        },
        {
          "name": "C5",
          "midi": 72,
          "time": 48.9375,
          "velocity": 0.7559055118110236,
          "duration": 0.18671874999999716
        },
        {
          "name": "F4",
          "midi": 65,
          "time": 49.125,
          "velocity": 0.7559055118110236,
          "duration": 0.37421874999999716
        },
        {
          "name": "A4",
          "midi": 69,
          "time": 49.125,
          "velocity": 0.7559055118110236,
          "duration": 0.37421874999999716
        },
        {
          "name": "C5",
          "midi": 72,
          "time": 49.125,
          "velocity": 0.7559055118110236,
          "duration": 0.37421874999999716
        },
        {
          "name": "G4",
          "midi": 67,
          "time": 49.5,
          "velocity": 0.7559055118110236,
          "duration": 0.18671874999999716
        },
        {
          "name": "B4",
          "midi": 71,
          "time": 49.5,
          "velocity": 0.7559055118110236,
          "duration": 0.18671874999999716
        },
        {
          "name": "D5",
          "midi": 74,
          "time": 49.5,
          "velocity": 0.7559055118110236,
          "duration": 0.18671874999999716
        },
        {
          "name": "G4",
          "midi": 67,
          "time": 49.6875,
          "velocity": 0.7559055118110236,
          "duration": 0.18671874999999716
        },
        {
          "name": "B4",
          "midi": 71,
          "time": 49.6875,
          "velocity": 0.7559055118110236,
          "duration": 0.18671874999999716
        },
        {
          "name": "E5",
          "midi": 76,
          "time": 49.6875,
          "velocity": 0.7559055118110236,
          "duration": 0.18671874999999716
        },
        {
          "name": "G4",
          "midi": 67,
          "time": 49.875,
          "velocity": 0.7559055118110236,
          "duration": 0.18671874999999716
        },
        {
          "name": "B4",
          "midi": 71,
          "time": 49.875,
          "velocity": 0.7559055118110236,
          "duration": 0.18671874999999716
        },
        {
          "name": "D5",
          "midi": 74,
          "time": 49.875,
          "velocity": 0.7559055118110236,
          "duration": 0.18671874999999716
        },
        {
          "name": "G4",
          "midi": 67,
          "time": 50.0625,
          "velocity": 0.7559055118110236,
          "duration": 0.18671874999999716
        },
        {
          "name": "C5",
          "midi": 72,
          "time": 50.0625,
          "velocity": 0.7559055118110236,
          "duration": 0.18671874999999716
        },
        {
          "name": "G4",
          "midi": 67,
          "time": 50.25,
          "velocity": 0.7559055118110236,
          "duration": 0.18671874999999716
        },
        {
          "name": "B4",
          "midi": 71,
          "time": 50.25,
          "velocity": 0.7559055118110236,
          "duration": 0.18671874999999716
        },
        {
          "name": "D5",
          "midi": 74,
          "time": 50.25,
          "velocity": 0.7559055118110236,
          "duration": 0.18671874999999716
        },
        {
          "name": "G4",
          "midi": 67,
          "time": 50.4375,
          "velocity": 0.7559055118110236,
          "duration": 0.5617187499999972
        },
        {
          "name": "C5",
          "midi": 72,
          "time": 50.4375,
          "velocity": 0.7559055118110236,
          "duration": 0.5617187499999972
        },
        {
          "name": "C4",
          "midi": 60,
          "time": 51,
          "velocity": 0.7559055118110236,
          "duration": 0.37421874999999716
        },
        {
          "name": "E4",
          "midi": 64,
          "time": 51,
          "velocity": 0.7559055118110236,
          "duration": 0.37421874999999716
        },
        {
          "name": "A4",
          "midi": 69,
          "time": 51,
          "velocity": 0.7559055118110236,
          "duration": 0.37421874999999716
        },
        {
          "name": "C4",
          "midi": 60,
          "time": 51.375,
          "velocity": 0.7559055118110236,
          "duration": 0.37421874999999716
        },
        {
          "name": "E4",
          "midi": 64,
          "time": 51.375,
          "velocity": 0.7559055118110236,
          "duration": 0.37421874999999716
        },
        {
          "name": "A4",
          "midi": 69,
          "time": 51.375,
          "velocity": 0.7559055118110236,
          "duration": 0.37421874999999716
        },
        {
          "name": "C4",
          "midi": 60,
          "time": 51.75,
          "velocity": 0.7559055118110236,
          "duration": 0.18671874999999716
        },
        {
          "name": "E4",
          "midi": 64,
          "time": 51.75,
          "velocity": 0.7559055118110236,
          "duration": 0.18671874999999716
        },
        {
          "name": "G4",
          "midi": 67,
          "time": 51.75,
          "velocity": 0.7559055118110236,
          "duration": 0.18671874999999716
        },
        {
          "name": "C4",
          "midi": 60,
          "time": 51.9375,
          "velocity": 0.7559055118110236,
          "duration": 0.18671874999999716
        },
        {
          "name": "E4",
          "midi": 64,
          "time": 51.9375,
          "velocity": 0.7559055118110236,
          "duration": 0.18671874999999716
        },
        {
          "name": "A4",
          "midi": 69,
          "time": 51.9375,
          "velocity": 0.7559055118110236,
          "duration": 0.18671874999999716
        },
        {
          "name": "C4",
          "midi": 60,
          "time": 52.125,
          "velocity": 0.7559055118110236,
          "duration": 0.37421874999999716
        },
        {
          "name": "E4",
          "midi": 64,
          "time": 52.125,
          "velocity": 0.7559055118110236,
          "duration": 0.37421874999999716
        },
        {
          "name": "A4",
          "midi": 69,
          "time": 52.125,
          "velocity": 0.7559055118110236,
          "duration": 0.37421874999999716
        },
        {
          "name": "C4",
          "midi": 60,
          "time": 52.5,
          "velocity": 0.7559055118110236,
          "duration": 0.18671874999999716
        },
        {
          "name": "E4",
          "midi": 64,
          "time": 52.5,
          "velocity": 0.7559055118110236,
          "duration": 0.18671874999999716
        },
        {
          "name": "A4",
          "midi": 69,
          "time": 52.5,
          "velocity": 0.7559055118110236,
          "duration": 0.18671874999999716
        },
        {
          "name": "C4",
          "midi": 60,
          "time": 52.6875,
          "velocity": 0.7559055118110236,
          "duration": 0.18671874999999716
        },
        {
          "name": "E4",
          "midi": 64,
          "time": 52.6875,
          "velocity": 0.7559055118110236,
          "duration": 0.18671874999999716
        },
        {
          "name": "G4",
          "midi": 67,
          "time": 52.6875,
          "velocity": 0.7559055118110236,
          "duration": 0.18671874999999716
        },
        {
          "name": "C4",
          "midi": 60,
          "time": 52.875,
          "velocity": 0.7559055118110236,
          "duration": 0.18671874999999716
        },
        {
          "name": "E4",
          "midi": 64,
          "time": 52.875,
          "velocity": 0.7559055118110236,
          "duration": 0.18671874999999716
        },
        {
          "name": "B3",
          "midi": 59,
          "time": 53.0625,
          "velocity": 0.7559055118110236,
          "duration": 0.37421874999999716
        },
        {
          "name": "D4",
          "midi": 62,
          "time": 53.0625,
          "velocity": 0.7559055118110236,
          "duration": 0.37421874999999716
        },
        {
          "name": "G4",
          "midi": 67,
          "time": 53.0625,
          "velocity": 0.7559055118110236,
          "duration": 0.37421874999999716
        },
        {
          "name": "B3",
          "midi": 59,
          "time": 53.4375,
          "velocity": 0.7559055118110236,
          "duration": 0.18671874999999716
        },
        {
          "name": "E4",
          "midi": 64,
          "time": 53.4375,
          "velocity": 0.7559055118110236,
          "duration": 0.18671874999999716
        },
        {
          "name": "B3",
          "midi": 59,
          "time": 53.625,
          "velocity": 0.7559055118110236,
          "duration": 0.18671874999999716
        },
        {
          "name": "D4",
          "midi": 62,
          "time": 53.625,
          "velocity": 0.7559055118110236,
          "duration": 0.18671874999999716
        },
        {
          "name": "G4",
          "midi": 67,
          "time": 53.625,
          "velocity": 0.7559055118110236,
          "duration": 0.18671874999999716
        },
        {
          "name": "F4",
          "midi": 65,
          "time": 54,
          "velocity": 0.7559055118110236,
          "duration": 0.37421874999999716
        },
        {
          "name": "A4",
          "midi": 69,
          "time": 54,
          "velocity": 0.7559055118110236,
          "duration": 0.37421874999999716
        },
        {
          "name": "C5",
          "midi": 72,
          "time": 54,
          "velocity": 0.7559055118110236,
          "duration": 0.37421874999999716
        },
        {
          "name": "F4",
          "midi": 65,
          "time": 54.375,
          "velocity": 0.7559055118110236,
          "duration": 0.37421874999999716
        },
        {
          "name": "A4",
          "midi": 69,
          "time": 54.375,
          "velocity": 0.7559055118110236,
          "duration": 0.37421874999999716
        },
        {
          "name": "C5",
          "midi": 72,
          "time": 54.375,
          "velocity": 0.7559055118110236,
          "duration": 0.37421874999999716
        },
        {
          "name": "F4",
          "midi": 65,
          "time": 54.75,
          "velocity": 0.7559055118110236,
          "duration": 0.18671874999999716
        },
        {
          "name": "B4",
          "midi": 71,
          "time": 54.75,
          "velocity": 0.7559055118110236,
          "duration": 0.18671874999999716
        },
        {
          "name": "F4",
          "midi": 65,
          "time": 54.9375,
          "velocity": 0.7559055118110236,
          "duration": 0.18671874999999716
        },
        {
          "name": "A4",
          "midi": 69,
          "time": 54.9375,
          "velocity": 0.7559055118110236,
          "duration": 0.18671874999999716
        },
        {
          "name": "C5",
          "midi": 72,
          "time": 54.9375,
          "velocity": 0.7559055118110236,
          "duration": 0.18671874999999716
        },
        {
          "name": "F4",
          "midi": 65,
          "time": 55.125,
          "velocity": 0.7559055118110236,
          "duration": 0.37421874999999716
        },
        {
          "name": "A4",
          "midi": 69,
          "time": 55.125,
          "velocity": 0.7559055118110236,
          "duration": 0.37421874999999716
        },
        {
          "name": "C5",
          "midi": 72,
          "time": 55.125,
          "velocity": 0.7559055118110236,
          "duration": 0.37421874999999716
        },
        {
          "name": "G4",
          "midi": 67,
          "time": 55.5,
          "velocity": 0.7559055118110236,
          "duration": 0.18671874999999716
        },
        {
          "name": "B4",
          "midi": 71,
          "time": 55.5,
          "velocity": 0.7559055118110236,
          "duration": 0.18671874999999716
        },
        {
          "name": "D5",
          "midi": 74,
          "time": 55.5,
          "velocity": 0.7559055118110236,
          "duration": 0.18671874999999716
        },
        {
          "name": "G4",
          "midi": 67,
          "time": 55.6875,
          "velocity": 0.7559055118110236,
          "duration": 0.18671874999999716
        },
        {
          "name": "B4",
          "midi": 71,
          "time": 55.6875,
          "velocity": 0.7559055118110236,
          "duration": 0.18671874999999716
        },
        {
          "name": "E5",
          "midi": 76,
          "time": 55.6875,
          "velocity": 0.7559055118110236,
          "duration": 0.18671874999999716
        },
        {
          "name": "G4",
          "midi": 67,
          "time": 55.875,
          "velocity": 0.7559055118110236,
          "duration": 0.18671874999999716
        },
        {
          "name": "B4",
          "midi": 71,
          "time": 55.875,
          "velocity": 0.7559055118110236,
          "duration": 0.18671874999999716
        },
        {
          "name": "D5",
          "midi": 74,
          "time": 55.875,
          "velocity": 0.7559055118110236,
          "duration": 0.18671874999999716
        },
        {
          "name": "G4",
          "midi": 67,
          "time": 56.0625,
          "velocity": 0.7559055118110236,
          "duration": 0.18671874999999716
        },
        {
          "name": "C5",
          "midi": 72,
          "time": 56.0625,
          "velocity": 0.7559055118110236,
          "duration": 0.18671874999999716
        },
        {
          "name": "G4",
          "midi": 67,
          "time": 56.25,
          "velocity": 0.7559055118110236,
          "duration": 0.18671874999999716
        },
        {
          "name": "B4",
          "midi": 71,
          "time": 56.25,
          "velocity": 0.7559055118110236,
          "duration": 0.18671874999999716
        },
        {
          "name": "D5",
          "midi": 74,
          "time": 56.25,
          "velocity": 0.7559055118110236,
          "duration": 0.18671874999999716
        },
        {
          "name": "G4",
          "midi": 67,
          "time": 56.4375,
          "velocity": 0.7559055118110236,
          "duration": 0.5617187499999972
        },
        {
          "name": "C5",
          "midi": 72,
          "time": 56.4375,
          "velocity": 0.7559055118110236,
          "duration": 0.5617187499999972
        },
        {
          "name": "D4",
          "midi": 62,
          "time": 57,
          "velocity": 0.7559055118110236,
          "duration": 0.37421874999999716
        },
        {
          "name": "A4",
          "midi": 69,
          "time": 57,
          "velocity": 0.7559055118110236,
          "duration": 0.37421874999999716
        },
        {
          "name": "D4",
          "midi": 62,
          "time": 57.375,
          "velocity": 0.7559055118110236,
          "duration": 0.37421874999999716
        },
        {
          "name": "A4",
          "midi": 69,
          "time": 57.375,
          "velocity": 0.7559055118110236,
          "duration": 0.37421874999999716
        },
        {
          "name": "D4",
          "midi": 62,
          "time": 57.75,
          "velocity": 0.7559055118110236,
          "duration": 0.18671874999999716
        },
        {
          "name": "G4",
          "midi": 67,
          "time": 57.75,
          "velocity": 0.7559055118110236,
          "duration": 0.18671874999999716
        },
        {
          "name": "D4",
          "midi": 62,
          "time": 57.9375,
          "velocity": 0.7559055118110236,
          "duration": 0.18671874999999716
        },
        {
          "name": "A4",
          "midi": 69,
          "time": 57.9375,
          "velocity": 0.7559055118110236,
          "duration": 0.18671874999999716
        },
        {
          "name": "D4",
          "midi": 62,
          "time": 58.125,
          "velocity": 0.7559055118110236,
          "duration": 0.37421874999999716
        },
        {
          "name": "A4",
          "midi": 69,
          "time": 58.125,
          "velocity": 0.7559055118110236,
          "duration": 0.37421874999999716
        },
        {
          "name": "D4",
          "midi": 62,
          "time": 58.5,
          "velocity": 0.7559055118110236,
          "duration": 0.37421874999999716
        },
        {
          "name": "A4",
          "midi": 69,
          "time": 58.5,
          "velocity": 0.7559055118110236,
          "duration": 0.37421874999999716
        },
        {
          "name": "E4",
          "midi": 64,
          "time": 58.875,
          "velocity": 0.7874015748031497,
          "duration": 0.37421874999999716
        },
        {
          "name": "B4",
          "midi": 71,
          "time": 58.875,
          "velocity": 0.7874015748031497,
          "duration": 0.37421874999999716
        },
        {
          "name": "F4",
          "midi": 65,
          "time": 59.25,
          "velocity": 0.8188976377952756,
          "duration": 0.37421874999999716
        },
        {
          "name": "A4",
          "midi": 69,
          "time": 59.25,
          "velocity": 0.8188976377952756,
          "duration": 0.37421874999999716
        },
        {
          "name": "C5",
          "midi": 72,
          "time": 59.25,
          "velocity": 0.8188976377952756,
          "duration": 0.37421874999999716
        },
        {
          "name": "G4",
          "midi": 67,
          "time": 59.625,
          "velocity": 0.8503937007874016,
          "duration": 0.37421874999999716
        },
        {
          "name": "B4",
          "midi": 71,
          "time": 59.625,
          "velocity": 0.8503937007874016,
          "duration": 0.37421874999999716
        },
        {
          "name": "D5",
          "midi": 74,
          "time": 59.625,
          "velocity": 0.8503937007874016,
          "duration": 0.37421874999999716
        },
        {
          "name": "A4",
          "midi": 69,
          "time": 60,
          "velocity": 1,
          "duration": 0.37421874999999716
        },
        {
          "name": "C5",
          "midi": 72,
          "time": 60,
          "velocity": 1,
          "duration": 0.37421874999999716
        },
        {
          "name": "E5",
          "midi": 76,
          "time": 60,
          "velocity": 1,
          "duration": 0.37421874999999716
        },
        {
          "name": "A4",
          "midi": 69,
          "time": 60.375,
          "velocity": 1,
          "duration": 0.37421874999999716
        },
        {
          "name": "C5",
          "midi": 72,
          "time": 60.375,
          "velocity": 1,
          "duration": 0.37421874999999716
        },
        {
          "name": "E5",
          "midi": 76,
          "time": 60.375,
          "velocity": 1,
          "duration": 0.37421874999999716
        },
        {
          "name": "G4",
          "midi": 67,
          "time": 60.75,
          "velocity": 1,
          "duration": 0.37421874999999716
        },
        {
          "name": "B4",
          "midi": 71,
          "time": 60.75,
          "velocity": 1,
          "duration": 0.37421874999999716
        },
        {
          "name": "D5",
          "midi": 74,
          "time": 60.75,
          "velocity": 1,
          "duration": 0.37421874999999716
        },
        {
          "name": "G4",
          "midi": 67,
          "time": 61.125,
          "velocity": 1,
          "duration": 0.18671874999999716
        },
        {
          "name": "B4",
          "midi": 71,
          "time": 61.125,
          "velocity": 1,
          "duration": 0.18671874999999716
        },
        {
          "name": "D5",
          "midi": 74,
          "time": 61.125,
          "velocity": 1,
          "duration": 0.18671874999999716
        },
        {
          "name": "G4",
          "midi": 67,
          "time": 61.3125,
          "velocity": 1,
          "duration": 0.37421874999999716
        },
        {
          "name": "B4",
          "midi": 71,
          "time": 61.3125,
          "velocity": 1,
          "duration": 0.37421874999999716
        },
        {
          "name": "D5",
          "midi": 74,
          "time": 61.3125,
          "velocity": 1,
          "duration": 0.37421874999999716
        },
        {
          "name": "E4",
          "midi": 64,
          "time": 61.6875,
          "velocity": 1,
          "duration": 0.5617187499999972
        },
        {
          "name": "A4",
          "midi": 69,
          "time": 61.6875,
          "velocity": 1,
          "duration": 0.5617187499999972
        },
        {
          "name": "C5",
          "midi": 72,
          "time": 61.6875,
          "velocity": 1,
          "duration": 0.5617187499999972
        },
        {
          "name": "A4",
          "midi": 69,
          "time": 62.625,
          "velocity": 0.8818897637795275,
          "duration": 0.18671874999999716
        },
        {
          "name": "C5",
          "midi": 72,
          "time": 62.8125,
          "velocity": 0.8818897637795275,
          "duration": 0.18671874999999716
        },
        {
          "name": "F4",
          "midi": 65,
          "time": 63,
          "velocity": 0.8818897637795275,
          "duration": 0.37421874999999716
        },
        {
          "name": "A4",
          "midi": 69,
          "time": 63,
          "velocity": 0.8818897637795275,
          "duration": 0.37421874999999716
        },
        {
          "name": "D5",
          "midi": 74,
          "time": 63,
          "velocity": 0.8818897637795275,
          "duration": 0.37421874999999716
        },
        {
          "name": "F4",
          "midi": 65,
          "time": 63.375,
          "velocity": 0.8818897637795275,
          "duration": 0.18671874999999716
        },
        {
          "name": "A4",
          "midi": 69,
          "time": 63.375,
          "velocity": 0.8818897637795275,
          "duration": 0.18671874999999716
        },
        {
          "name": "D5",
          "midi": 74,
          "time": 63.375,
          "velocity": 0.8818897637795275,
          "duration": 0.18671874999999716
        },
        {
          "name": "F4",
          "midi": 65,
          "time": 63.5625,
          "velocity": 0.8818897637795275,
          "duration": 0.18671874999999716
        },
        {
          "name": "A4",
          "midi": 69,
          "time": 63.5625,
          "velocity": 0.8818897637795275,
          "duration": 0.18671874999999716
        },
        {
          "name": "C5",
          "midi": 72,
          "time": 63.5625,
          "velocity": 0.8818897637795275,
          "duration": 0.18671874999999716
        },
        {
          "name": "G4",
          "midi": 67,
          "time": 63.75,
          "velocity": 0.8818897637795275,
          "duration": 0.37421874999999716
        },
        {
          "name": "B4",
          "midi": 71,
          "time": 63.75,
          "velocity": 0.8818897637795275,
          "duration": 0.37421874999999716
        },
        {
          "name": "D5",
          "midi": 74,
          "time": 63.75,
          "velocity": 0.8818897637795275,
          "duration": 0.37421874999999716
        },
        {
          "name": "B4",
          "midi": 71,
          "time": 64.125,
          "velocity": 0.8818897637795275,
          "duration": 0.18671874999999716
        },
        {
          "name": "D5",
          "midi": 74,
          "time": 64.125,
          "velocity": 0.8818897637795275,
          "duration": 0.18671874999999716
        },
        {
          "name": "G5",
          "midi": 79,
          "time": 64.125,
          "velocity": 0.8818897637795275,
          "duration": 0.18671874999999716
        },
        {
          "name": "A4",
          "midi": 69,
          "time": 64.3125,
          "velocity": 0.8818897637795275,
          "duration": 0.5617187499999972
        },
        {
          "name": "C5",
          "midi": 72,
          "time": 64.3125,
          "velocity": 0.8818897637795275,
          "duration": 0.5617187499999972
        },
        {
          "name": "E5",
          "midi": 76,
          "time": 64.3125,
          "velocity": 0.8818897637795275,
          "duration": 0.5617187499999972
        },
        {
          "name": "A4",
          "midi": 69,
          "time": 65.25,
          "velocity": 0.8818897637795275,
          "duration": 0.37421874999999716
        },
        {
          "name": "G5",
          "midi": 79,
          "time": 65.25,
          "velocity": 0.8818897637795275,
          "duration": 0.37421874999999716
        },
        {
          "name": "A4",
          "midi": 69,
          "time": 65.625,
          "velocity": 0.8818897637795275,
          "duration": 0.37421874999999716
        },
        {
          "name": "F5",
          "midi": 77,
          "time": 65.625,
          "velocity": 0.8818897637795275,
          "duration": 0.37421874999999716
        },
        {
          "name": "A4",
          "midi": 69,
          "time": 66,
          "velocity": 1,
          "duration": 0.37421874999999716
        },
        {
          "name": "C5",
          "midi": 72,
          "time": 66,
          "velocity": 1,
          "duration": 0.37421874999999716
        },
        {
          "name": "E5",
          "midi": 76,
          "time": 66,
          "velocity": 1,
          "duration": 0.37421874999999716
        },
        {
          "name": "A4",
          "midi": 69,
          "time": 66.375,
          "velocity": 1,
          "duration": 0.37421874999999716
        },
        {
          "name": "C5",
          "midi": 72,
          "time": 66.375,
          "velocity": 1,
          "duration": 0.37421874999999716
        },
        {
          "name": "E5",
          "midi": 76,
          "time": 66.375,
          "velocity": 1,
          "duration": 0.37421874999999716
        },
        {
          "name": "G4",
          "midi": 67,
          "time": 66.75,
          "velocity": 1,
          "duration": 0.37421874999999716
        },
        {
          "name": "B4",
          "midi": 71,
          "time": 66.75,
          "velocity": 1,
          "duration": 0.37421874999999716
        },
        {
          "name": "D5",
          "midi": 74,
          "time": 66.75,
          "velocity": 1,
          "duration": 0.37421874999999716
        },
        {
          "name": "G4",
          "midi": 67,
          "time": 67.125,
          "velocity": 1,
          "duration": 0.18671874999999716
        },
        {
          "name": "B4",
          "midi": 71,
          "time": 67.125,
          "velocity": 1,
          "duration": 0.18671874999999716
        },
        {
          "name": "D5",
          "midi": 74,
          "time": 67.125,
          "velocity": 1,
          "duration": 0.18671874999999716
        },
        {
          "name": "G4",
          "midi": 67,
          "time": 67.3125,
          "velocity": 1,
          "duration": 0.37421874999999716
        },
        {
          "name": "B4",
          "midi": 71,
          "time": 67.3125,
          "velocity": 1,
          "duration": 0.37421874999999716
        },
        {
          "name": "D5",
          "midi": 74,
          "time": 67.3125,
          "velocity": 1,
          "duration": 0.37421874999999716
        },
        {
          "name": "E4",
          "midi": 64,
          "time": 67.6875,
          "velocity": 1,
          "duration": 0.5617187499999972
        },
        {
          "name": "A4",
          "midi": 69,
          "time": 67.6875,
          "velocity": 1,
          "duration": 0.5617187499999972
        },
        {
          "name": "C5",
          "midi": 72,
          "time": 67.6875,
          "velocity": 1,
          "duration": 0.5617187499999972
        },
        {
          "name": "F4",
          "midi": 65,
          "time": 68.8125,
          "velocity": 0.8818897637795275,
          "duration": 0.37421874999999716
        },
        {
          "name": "A4",
          "midi": 69,
          "time": 68.8125,
          "velocity": 0.8818897637795275,
          "duration": 0.37421874999999716
        },
        {
          "name": "D5",
          "midi": 74,
          "time": 68.8125,
          "velocity": 0.8818897637795275,
          "duration": 0.37421874999999716
        },
        {
          "name": "F4",
          "midi": 65,
          "time": 69.1875,
          "velocity": 0.8818897637795275,
          "duration": 0.18671874999999716
        },
        {
          "name": "A4",
          "midi": 69,
          "time": 69.1875,
          "velocity": 0.8818897637795275,
          "duration": 0.18671874999999716
        },
        {
          "name": "C5",
          "midi": 72,
          "time": 69.1875,
          "velocity": 0.8818897637795275,
          "duration": 0.18671874999999716
        },
        {
          "name": "F4",
          "midi": 65,
          "time": 69.375,
          "velocity": 0.8818897637795275,
          "duration": 0.18671874999999716
        },
        {
          "name": "A4",
          "midi": 69,
          "time": 69.375,
          "velocity": 0.8818897637795275,
          "duration": 0.18671874999999716
        },
        {
          "name": "D5",
          "midi": 74,
          "time": 69.375,
          "velocity": 0.8818897637795275,
          "duration": 0.18671874999999716
        },
        {
          "name": "F4",
          "midi": 65,
          "time": 69.5625,
          "velocity": 0.8818897637795275,
          "duration": 0.18671874999999716
        },
        {
          "name": "A4",
          "midi": 69,
          "time": 69.5625,
          "velocity": 0.8818897637795275,
          "duration": 0.18671874999999716
        },
        {
          "name": "C5",
          "midi": 72,
          "time": 69.5625,
          "velocity": 0.8818897637795275,
          "duration": 0.18671874999999716
        },
        {
          "name": "F4",
          "midi": 65,
          "time": 69.75,
          "velocity": 0.8818897637795275,
          "duration": 0.37421874999999716
        },
        {
          "name": "A4",
          "midi": 69,
          "time": 69.75,
          "velocity": 0.8818897637795275,
          "duration": 0.37421874999999716
        },
        {
          "name": "D5",
          "midi": 74,
          "time": 69.75,
          "velocity": 0.8818897637795275,
          "duration": 0.37421874999999716
        },
        {
          "name": "F4",
          "midi": 65,
          "time": 70.125,
          "velocity": 0.8818897637795275,
          "duration": 0.18671874999999716
        },
        {
          "name": "A4",
          "midi": 69,
          "time": 70.125,
          "velocity": 0.8818897637795275,
          "duration": 0.18671874999999716
        },
        {
          "name": "C5",
          "midi": 72,
          "time": 70.125,
          "velocity": 0.8818897637795275,
          "duration": 0.18671874999999716
        },
        {
          "name": "G4",
          "midi": 67,
          "time": 70.3125,
          "velocity": 0.8818897637795275,
          "duration": 0.5617187499999972
        },
        {
          "name": "E5",
          "midi": 76,
          "time": 70.3125,
          "velocity": 0.8818897637795275,
          "duration": 0.5617187499999972
        },
        {
          "name": "G4",
          "midi": 67,
          "time": 71.25,
          "velocity": 0.8818897637795275,
          "duration": 0.37421874999999716
        },
        {
          "name": "G5",
          "midi": 79,
          "time": 71.25,
          "velocity": 0.8818897637795275,
          "duration": 0.37421874999999716
        },
        {
          "name": "G4",
          "midi": 67,
          "time": 71.625,
          "velocity": 0.8818897637795275,
          "duration": 0.37421874999999716
        },
        {
          "name": "F5",
          "midi": 77,
          "time": 71.625,
          "velocity": 0.8818897637795275,
          "duration": 0.37421874999999716
        },
        {
          "name": "A4",
          "midi": 69,
          "time": 72,
          "velocity": 1,
          "duration": 0.37421874999999716
        },
        {
          "name": "C5",
          "midi": 72,
          "time": 72,
          "velocity": 1,
          "duration": 0.37421874999999716
        },
        {
          "name": "E5",
          "midi": 76,
          "time": 72,
          "velocity": 1,
          "duration": 0.37421874999999716
        },
        {
          "name": "A4",
          "midi": 69,
          "time": 72.375,
          "velocity": 1,
          "duration": 0.37421874999999716
        },
        {
          "name": "C5",
          "midi": 72,
          "time": 72.375,
          "velocity": 1,
          "duration": 0.37421874999999716
        },
        {
          "name": "E5",
          "midi": 76,
          "time": 72.375,
          "velocity": 1,
          "duration": 0.37421874999999716
        },
        {
          "name": "G4",
          "midi": 67,
          "time": 72.75,
          "velocity": 1,
          "duration": 0.37421874999999716
        },
        {
          "name": "B4",
          "midi": 71,
          "time": 72.75,
          "velocity": 1,
          "duration": 0.37421874999999716
        },
        {
          "name": "D5",
          "midi": 74,
          "time": 72.75,
          "velocity": 1,
          "duration": 0.37421874999999716
        },
        {
          "name": "G4",
          "midi": 67,
          "time": 73.125,
          "velocity": 1,
          "duration": 0.18671874999999716
        },
        {
          "name": "B4",
          "midi": 71,
          "time": 73.125,
          "velocity": 1,
          "duration": 0.18671874999999716
        },
        {
          "name": "D5",
          "midi": 74,
          "time": 73.125,
          "velocity": 1,
          "duration": 0.18671874999999716
        },
        {
          "name": "G4",
          "midi": 67,
          "time": 73.3125,
          "velocity": 1,
          "duration": 0.37421874999999716
        },
        {
          "name": "B4",
          "midi": 71,
          "time": 73.3125,
          "velocity": 1,
          "duration": 0.37421874999999716
        },
        {
          "name": "D5",
          "midi": 74,
          "time": 73.3125,
          "velocity": 1,
          "duration": 0.37421874999999716
        },
        {
          "name": "E4",
          "midi": 64,
          "time": 73.6875,
          "velocity": 1,
          "duration": 0.5617187499999972
        },
        {
          "name": "A4",
          "midi": 69,
          "time": 73.6875,
          "velocity": 1,
          "duration": 0.5617187499999972
        },
        {
          "name": "C5",
          "midi": 72,
          "time": 73.6875,
          "velocity": 1,
          "duration": 0.5617187499999972
        },
        {
          "name": "A4",
          "midi": 69,
          "time": 74.625,
          "velocity": 0.8818897637795275,
          "duration": 0.18671874999999716
        },
        {
          "name": "C5",
          "midi": 72,
          "time": 74.8125,
          "velocity": 0.8818897637795275,
          "duration": 0.18671874999999716
        },
        {
          "name": "F4",
          "midi": 65,
          "time": 75,
          "velocity": 0.8818897637795275,
          "duration": 0.37421874999999716
        },
        {
          "name": "A4",
          "midi": 69,
          "time": 75,
          "velocity": 0.8818897637795275,
          "duration": 0.37421874999999716
        },
        {
          "name": "D5",
          "midi": 74,
          "time": 75,
          "velocity": 0.8818897637795275,
          "duration": 0.37421874999999716
        },
        {
          "name": "F4",
          "midi": 65,
          "time": 75.375,
          "velocity": 0.8818897637795275,
          "duration": 0.18671874999999716
        },
        {
          "name": "A4",
          "midi": 69,
          "time": 75.375,
          "velocity": 0.8818897637795275,
          "duration": 0.18671874999999716
        },
        {
          "name": "D5",
          "midi": 74,
          "time": 75.375,
          "velocity": 0.8818897637795275,
          "duration": 0.18671874999999716
        },
        {
          "name": "F4",
          "midi": 65,
          "time": 75.5625,
          "velocity": 0.8818897637795275,
          "duration": 0.18671874999999716
        },
        {
          "name": "A4",
          "midi": 69,
          "time": 75.5625,
          "velocity": 0.8818897637795275,
          "duration": 0.18671874999999716
        },
        {
          "name": "C5",
          "midi": 72,
          "time": 75.5625,
          "velocity": 0.8818897637795275,
          "duration": 0.18671874999999716
        },
        {
          "name": "G4",
          "midi": 67,
          "time": 75.75,
          "velocity": 0.8818897637795275,
          "duration": 0.37421874999999716
        },
        {
          "name": "B4",
          "midi": 71,
          "time": 75.75,
          "velocity": 0.8818897637795275,
          "duration": 0.37421874999999716
        },
        {
          "name": "D5",
          "midi": 74,
          "time": 75.75,
          "velocity": 0.8818897637795275,
          "duration": 0.37421874999999716
        },
        {
          "name": "B4",
          "midi": 71,
          "time": 76.125,
          "velocity": 0.8818897637795275,
          "duration": 0.18671874999999716
        },
        {
          "name": "D5",
          "midi": 74,
          "time": 76.125,
          "velocity": 0.8818897637795275,
          "duration": 0.18671874999999716
        },
        {
          "name": "G5",
          "midi": 79,
          "time": 76.125,
          "velocity": 0.8818897637795275,
          "duration": 0.18671874999999716
        },
        {
          "name": "A4",
          "midi": 69,
          "time": 76.3125,
          "velocity": 0.8818897637795275,
          "duration": 0.5617187499999972
        },
        {
          "name": "C5",
          "midi": 72,
          "time": 76.3125,
          "velocity": 0.8818897637795275,
          "duration": 0.5617187499999972
        },
        {
          "name": "E5",
          "midi": 76,
          "time": 76.3125,
          "velocity": 0.8818897637795275,
          "duration": 0.5617187499999972
        },
        {
          "name": "A4",
          "midi": 69,
          "time": 77.25,
          "velocity": 0.8818897637795275,
          "duration": 0.37421874999999716
        },
        {
          "name": "G5",
          "midi": 79,
          "time": 77.25,
          "velocity": 0.8818897637795275,
          "duration": 0.37421874999999716
        },
        {
          "name": "A4",
          "midi": 69,
          "time": 77.625,
          "velocity": 0.8818897637795275,
          "duration": 0.37421874999999716
        },
        {
          "name": "F5",
          "midi": 77,
          "time": 77.625,
          "velocity": 0.8818897637795275,
          "duration": 0.37421874999999716
        },
        {
          "name": "A4",
          "midi": 69,
          "time": 78,
          "velocity": 1,
          "duration": 0.37421874999999716
        },
        {
          "name": "C5",
          "midi": 72,
          "time": 78,
          "velocity": 1,
          "duration": 0.37421874999999716
        },
        {
          "name": "E5",
          "midi": 76,
          "time": 78,
          "velocity": 1,
          "duration": 0.37421874999999716
        },
        {
          "name": "A4",
          "midi": 69,
          "time": 78.375,
          "velocity": 1,
          "duration": 0.37421874999999716
        },
        {
          "name": "C5",
          "midi": 72,
          "time": 78.375,
          "velocity": 1,
          "duration": 0.37421874999999716
        },
        {
          "name": "E5",
          "midi": 76,
          "time": 78.375,
          "velocity": 1,
          "duration": 0.37421874999999716
        },
        {
          "name": "G4",
          "midi": 67,
          "time": 78.75,
          "velocity": 1,
          "duration": 0.37421874999999716
        },
        {
          "name": "B4",
          "midi": 71,
          "time": 78.75,
          "velocity": 1,
          "duration": 0.37421874999999716
        },
        {
          "name": "D5",
          "midi": 74,
          "time": 78.75,
          "velocity": 1,
          "duration": 0.37421874999999716
        },
        {
          "name": "G4",
          "midi": 67,
          "time": 79.125,
          "velocity": 1,
          "duration": 0.18671874999999716
        },
        {
          "name": "B4",
          "midi": 71,
          "time": 79.125,
          "velocity": 1,
          "duration": 0.18671874999999716
        },
        {
          "name": "D5",
          "midi": 74,
          "time": 79.125,
          "velocity": 1,
          "duration": 0.18671874999999716
        },
        {
          "name": "G4",
          "midi": 67,
          "time": 79.3125,
          "velocity": 1,
          "duration": 0.37421874999999716
        },
        {
          "name": "B4",
          "midi": 71,
          "time": 79.3125,
          "velocity": 1,
          "duration": 0.37421874999999716
        },
        {
          "name": "D5",
          "midi": 74,
          "time": 79.3125,
          "velocity": 1,
          "duration": 0.37421874999999716
        },
        {
          "name": "E4",
          "midi": 64,
          "time": 79.6875,
          "velocity": 1,
          "duration": 0.5617187499999972
        },
        {
          "name": "A4",
          "midi": 69,
          "time": 79.6875,
          "velocity": 1,
          "duration": 0.5617187499999972
        },
        {
          "name": "C5",
          "midi": 72,
          "time": 79.6875,
          "velocity": 1,
          "duration": 0.5617187499999972
        },
        {
          "name": "F4",
          "midi": 65,
          "time": 80.8125,
          "velocity": 0.8818897637795275,
          "duration": 0.37421874999999716
        },
        {
          "name": "A4",
          "midi": 69,
          "time": 80.8125,
          "velocity": 0.8818897637795275,
          "duration": 0.37421874999999716
        },
        {
          "name": "D5",
          "midi": 74,
          "time": 80.8125,
          "velocity": 0.8818897637795275,
          "duration": 0.37421874999999716
        },
        {
          "name": "F4",
          "midi": 65,
          "time": 81.1875,
          "velocity": 0.8818897637795275,
          "duration": 0.18671874999999716
        },
        {
          "name": "A4",
          "midi": 69,
          "time": 81.1875,
          "velocity": 0.8818897637795275,
          "duration": 0.18671874999999716
        },
        {
          "name": "C5",
          "midi": 72,
          "time": 81.1875,
          "velocity": 0.8818897637795275,
          "duration": 0.18671874999999716
        },
        {
          "name": "F4",
          "midi": 65,
          "time": 81.375,
          "velocity": 0.8818897637795275,
          "duration": 0.18671874999999716
        },
        {
          "name": "A4",
          "midi": 69,
          "time": 81.375,
          "velocity": 0.8818897637795275,
          "duration": 0.18671874999999716
        },
        {
          "name": "D5",
          "midi": 74,
          "time": 81.375,
          "velocity": 0.8818897637795275,
          "duration": 0.18671874999999716
        },
        {
          "name": "F4",
          "midi": 65,
          "time": 81.5625,
          "velocity": 0.8818897637795275,
          "duration": 0.18671874999999716
        },
        {
          "name": "A4",
          "midi": 69,
          "time": 81.5625,
          "velocity": 0.8818897637795275,
          "duration": 0.18671874999999716
        },
        {
          "name": "C5",
          "midi": 72,
          "time": 81.5625,
          "velocity": 0.8818897637795275,
          "duration": 0.18671874999999716
        },
        {
          "name": "F4",
          "midi": 65,
          "time": 81.75,
          "velocity": 0.8818897637795275,
          "duration": 0.37421874999999716
        },
        {
          "name": "A4",
          "midi": 69,
          "time": 81.75,
          "velocity": 0.8818897637795275,
          "duration": 0.37421874999999716
        },
        {
          "name": "D5",
          "midi": 74,
          "time": 81.75,
          "velocity": 0.8818897637795275,
          "duration": 0.37421874999999716
        },
        {
          "name": "G4",
          "midi": 67,
          "time": 82.3125,
          "velocity": 0.8818897637795275,
          "duration": 0.37421874999999716
        },
        {
          "name": "E5",
          "midi": 76,
          "time": 82.3125,
          "velocity": 0.8818897637795275,
          "duration": 0.37421874999999716
        },
        {
          "name": "G4",
          "midi": 67,
          "time": 82.6875,
          "velocity": 0.8818897637795275,
          "duration": 0.18671874999999716
        },
        {
          "name": "D5",
          "midi": 74,
          "time": 82.6875,
          "velocity": 0.8818897637795275,
          "duration": 0.18671874999999716
        },
        {
          "name": "G4",
          "midi": 67,
          "time": 82.875,
          "velocity": 0.8818897637795275,
          "duration": 0.18671874999999716
        },
        {
          "name": "E5",
          "midi": 76,
          "time": 82.875,
          "velocity": 0.8818897637795275,
          "duration": 0.18671874999999716
        },
        {
          "name": "G4",
          "midi": 67,
          "time": 83.0625,
          "velocity": 0.8818897637795275,
          "duration": 0.18671874999999716
        },
        {
          "name": "D5",
          "midi": 74,
          "time": 83.0625,
          "velocity": 0.8818897637795275,
          "duration": 0.18671874999999716
        },
        {
          "name": "G#4",
          "midi": 68,
          "time": 83.25,
          "velocity": 0.8818897637795275,
          "duration": 0.7492187499999972
        },
        {
          "name": "B4",
          "midi": 71,
          "time": 83.25,
          "velocity": 0.8818897637795275,
          "duration": 0.7492187499999972
        },
        {
          "name": "E5",
          "midi": 76,
          "time": 83.25,
          "velocity": 0.8818897637795275,
          "duration": 0.7492187499999972
        },
        {
          "name": "A4",
          "midi": 69,
          "time": 84,
          "velocity": 0.7559055118110236,
          "duration": 0.09296874999999716
        },
        {
          "name": "E4",
          "midi": 64,
          "time": 84.09375,
          "velocity": 0.7559055118110236,
          "duration": 0.09296874999999716
        },
        {
          "name": "A4",
          "midi": 69,
          "time": 84.1875,
          "velocity": 0.7559055118110236,
          "duration": 0.09296874999999716
        },
        {
          "name": "E5",
          "midi": 76,
          "time": 84.28125,
          "velocity": 0.7559055118110236,
          "duration": 0.09296874999999716
        },
        {
          "name": "D5",
          "midi": 74,
          "time": 84.375,
          "velocity": 0.7559055118110236,
          "duration": 0.09296874999999716
        },
        {
          "name": "C5",
          "midi": 72,
          "time": 84.46875,
          "velocity": 0.7559055118110236,
          "duration": 0.09296874999999716
        },
        {
          "name": "G4",
          "midi": 67,
          "time": 84.5625,
          "velocity": 0.7559055118110236,
          "duration": 0.18671874999999716
        },
        {
          "name": "A4",
          "midi": 69,
          "time": 84.75,
          "velocity": 0.7559055118110236,
          "duration": 0.09296874999999716
        },
        {
          "name": "E4",
          "midi": 64,
          "time": 84.84375,
          "velocity": 0.7559055118110236,
          "duration": 0.09296874999999716
        },
        {
          "name": "A4",
          "midi": 69,
          "time": 84.9375,
          "velocity": 0.7559055118110236,
          "duration": 0.09296874999999716
        },
        {
          "name": "E5",
          "midi": 76,
          "time": 85.03125,
          "velocity": 0.7559055118110236,
          "duration": 0.09296874999999716
        },
        {
          "name": "D5",
          "midi": 74,
          "time": 85.125,
          "velocity": 0.7559055118110236,
          "duration": 0.09296874999999716
        },
        {
          "name": "C5",
          "midi": 72,
          "time": 85.21875,
          "velocity": 0.7559055118110236,
          "duration": 0.09296874999999716
        },
        {
          "name": "G4",
          "midi": 67,
          "time": 85.3125,
          "velocity": 0.7559055118110236,
          "duration": 0.18671874999999716
        },
        {
          "name": "C5",
          "midi": 72,
          "time": 85.5,
          "velocity": 0.7559055118110236,
          "duration": 0.09296874999999716
        },
        {
          "name": "B4",
          "midi": 71,
          "time": 85.59375,
          "velocity": 0.7559055118110236,
          "duration": 0.09296874999999716
        },
        {
          "name": "G4",
          "midi": 67,
          "time": 85.6875,
          "velocity": 0.7559055118110236,
          "duration": 0.09296874999999716
        },
        {
          "name": "C5",
          "midi": 72,
          "time": 85.78125,
          "velocity": 0.7559055118110236,
          "duration": 0.18671874999999716
        },
        {
          "name": "B4",
          "midi": 71,
          "time": 85.96875,
          "velocity": 0.7559055118110236,
          "duration": 0.09296874999999716
        },
        {
          "name": "G4",
          "midi": 67,
          "time": 86.0625,
          "velocity": 0.7559055118110236,
          "duration": 0.18671874999999716
        },
        {
          "name": "C5",
          "midi": 72,
          "time": 86.25,
          "velocity": 0.7559055118110236,
          "duration": 0.09296874999999716
        },
        {
          "name": "B4",
          "midi": 71,
          "time": 86.34375,
          "velocity": 0.7559055118110236,
          "duration": 0.09296874999999716
        },
        {
          "name": "G4",
          "midi": 67,
          "time": 86.4375,
          "velocity": 0.7559055118110236,
          "duration": 0.09296874999999716
        },
        {
          "name": "D5",
          "midi": 74,
          "time": 86.53125,
          "velocity": 0.7559055118110236,
          "duration": 0.18671874999999716
        },
        {
          "name": "B4",
          "midi": 71,
          "time": 86.71875,
          "velocity": 0.7559055118110236,
          "duration": 0.09296874999999716
        },
        {
          "name": "G4",
          "midi": 67,
          "time": 86.8125,
          "velocity": 0.7559055118110236,
          "duration": 0.18671874999999716
        },
        {
          "name": "A4",
          "midi": 69,
          "time": 87,
          "velocity": 0.7559055118110236,
          "duration": 0.09296874999999716
        },
        {
          "name": "E4",
          "midi": 64,
          "time": 87.09375,
          "velocity": 0.7559055118110236,
          "duration": 0.09296874999999716
        },
        {
          "name": "A4",
          "midi": 69,
          "time": 87.1875,
          "velocity": 0.7559055118110236,
          "duration": 0.09296874999999716
        },
        {
          "name": "E5",
          "midi": 76,
          "time": 87.28125,
          "velocity": 0.7559055118110236,
          "duration": 0.09296874999999716
        },
        {
          "name": "D5",
          "midi": 74,
          "time": 87.375,
          "velocity": 0.7559055118110236,
          "duration": 0.09296874999999716
        },
        {
          "name": "C5",
          "midi": 72,
          "time": 87.46875,
          "velocity": 0.7559055118110236,
          "duration": 0.09296874999999716
        },
        {
          "name": "G4",
          "midi": 67,
          "time": 87.5625,
          "velocity": 0.7559055118110236,
          "duration": 0.18671874999999716
        },
        {
          "name": "A4",
          "midi": 69,
          "time": 87.75,
          "velocity": 0.7559055118110236,
          "duration": 0.09296874999999716
        },
        {
          "name": "E4",
          "midi": 64,
          "time": 87.84375,
          "velocity": 0.7559055118110236,
          "duration": 0.09296874999999716
        },
        {
          "name": "A4",
          "midi": 69,
          "time": 87.9375,
          "velocity": 0.7559055118110236,
          "duration": 0.09296874999999716
        },
        {
          "name": "E5",
          "midi": 76,
          "time": 88.03125,
          "velocity": 0.7559055118110236,
          "duration": 0.09296874999999716
        },
        {
          "name": "D5",
          "midi": 74,
          "time": 88.125,
          "velocity": 0.7559055118110236,
          "duration": 0.09296874999999716
        },
        {
          "name": "C5",
          "midi": 72,
          "time": 88.21875,
          "velocity": 0.7559055118110236,
          "duration": 0.09296874999999716
        },
        {
          "name": "G4",
          "midi": 67,
          "time": 88.3125,
          "velocity": 0.7559055118110236,
          "duration": 0.18671874999999716
        },
        {
          "name": "A4",
          "midi": 69,
          "time": 88.5,
          "velocity": 0.7559055118110236,
          "duration": 0.09296874999999716
        },
        {
          "name": "C5",
          "midi": 72,
          "time": 88.5,
          "velocity": 0.7559055118110236,
          "duration": 0.09296874999999716
        },
        {
          "name": "A4",
          "midi": 69,
          "time": 88.59375,
          "velocity": 0.7559055118110236,
          "duration": 0.18671874999999716
        },
        {
          "name": "C5",
          "midi": 72,
          "time": 88.59375,
          "velocity": 0.7559055118110236,
          "duration": 0.18671874999999716
        },
        {
          "name": "A4",
          "midi": 69,
          "time": 88.78125,
          "velocity": 0.7559055118110236,
          "duration": 0.09296874999999716
        },
        {
          "name": "C5",
          "midi": 72,
          "time": 88.78125,
          "velocity": 0.7559055118110236,
          "duration": 0.09296874999999716
        },
        {
          "name": "B4",
          "midi": 71,
          "time": 88.875,
          "velocity": 0.7559055118110236,
          "duration": 0.18671874999999716
        },
        {
          "name": "D5",
          "midi": 74,
          "time": 88.875,
          "velocity": 0.7559055118110236,
          "duration": 0.18671874999999716
        },
        {
          "name": "B4",
          "midi": 71,
          "time": 89.0625,
          "velocity": 0.7559055118110236,
          "duration": 0.18671874999999716
        },
        {
          "name": "D5",
          "midi": 74,
          "time": 89.0625,
          "velocity": 0.7559055118110236,
          "duration": 0.18671874999999716
        },
        {
          "name": "C5",
          "midi": 72,
          "time": 89.25,
          "velocity": 0.7559055118110236,
          "duration": 0.09296874999999716
        },
        {
          "name": "E5",
          "midi": 76,
          "time": 89.25,
          "velocity": 0.7559055118110236,
          "duration": 0.09296874999999716
        },
        {
          "name": "C5",
          "midi": 72,
          "time": 89.34375,
          "velocity": 0.7559055118110236,
          "duration": 0.18671874999999716
        },
        {
          "name": "E5",
          "midi": 76,
          "time": 89.34375,
          "velocity": 0.7559055118110236,
          "duration": 0.18671874999999716
        },
        {
          "name": "C5",
          "midi": 72,
          "time": 89.53125,
          "velocity": 0.7559055118110236,
          "duration": 0.09296874999999716
        },
        {
          "name": "E5",
          "midi": 76,
          "time": 89.53125,
          "velocity": 0.7559055118110236,
          "duration": 0.09296874999999716
        },
        {
          "name": "B4",
          "midi": 71,
          "time": 89.625,
          "velocity": 0.7559055118110236,
          "duration": 0.18671874999999716
        },
        {
          "name": "D5",
          "midi": 74,
          "time": 89.625,
          "velocity": 0.7559055118110236,
          "duration": 0.18671874999999716
        },
        {
          "name": "B4",
          "midi": 71,
          "time": 89.8125,
          "velocity": 0.7559055118110236,
          "duration": 0.18671874999999716
        },
        {
          "name": "D5",
          "midi": 74,
          "time": 89.8125,
          "velocity": 0.7559055118110236,
          "duration": 0.18671874999999716
        },
        {
          "name": "A4",
          "midi": 69,
          "time": 90,
          "velocity": 0.7559055118110236,
          "duration": 0.09296874999999716
        },
        {
          "name": "E4",
          "midi": 64,
          "time": 90.09375,
          "velocity": 0.7559055118110236,
          "duration": 0.09296874999999716
        },
        {
          "name": "A4",
          "midi": 69,
          "time": 90.1875,
          "velocity": 0.7559055118110236,
          "duration": 0.09296874999999716
        },
        {
          "name": "E5",
          "midi": 76,
          "time": 90.28125,
          "velocity": 0.7559055118110236,
          "duration": 0.09296874999999716
        },
        {
          "name": "D5",
          "midi": 74,
          "time": 90.375,
          "velocity": 0.7559055118110236,
          "duration": 0.09296874999999716
        },
        {
          "name": "C5",
          "midi": 72,
          "time": 90.46875,
          "velocity": 0.7559055118110236,
          "duration": 0.09296874999999716
        },
        {
          "name": "G4",
          "midi": 67,
          "time": 90.5625,
          "velocity": 0.7559055118110236,
          "duration": 0.18671874999999716
        },
        {
          "name": "A4",
          "midi": 69,
          "time": 90.75,
          "velocity": 0.7559055118110236,
          "duration": 0.09296874999999716
        },
        {
          "name": "E4",
          "midi": 64,
          "time": 90.84375,
          "velocity": 0.7559055118110236,
          "duration": 0.09296874999999716
        },
        {
          "name": "A4",
          "midi": 69,
          "time": 90.9375,
          "velocity": 0.7559055118110236,
          "duration": 0.09296874999999716
        },
        {
          "name": "E5",
          "midi": 76,
          "time": 91.03125,
          "velocity": 0.7559055118110236,
          "duration": 0.09296874999999716
        },
        {
          "name": "D5",
          "midi": 74,
          "time": 91.125,
          "velocity": 0.7559055118110236,
          "duration": 0.09296874999999716
        },
        {
          "name": "C5",
          "midi": 72,
          "time": 91.21875,
          "velocity": 0.7559055118110236,
          "duration": 0.09296874999999716
        },
        {
          "name": "G4",
          "midi": 67,
          "time": 91.3125,
          "velocity": 0.7559055118110236,
          "duration": 0.18671874999999716
        },
        {
          "name": "C5",
          "midi": 72,
          "time": 91.5,
          "velocity": 0.7559055118110236,
          "duration": 0.09296874999999716
        },
        {
          "name": "B4",
          "midi": 71,
          "time": 91.59375,
          "velocity": 0.7559055118110236,
          "duration": 0.09296874999999716
        },
        {
          "name": "G4",
          "midi": 67,
          "time": 91.6875,
          "velocity": 0.7559055118110236,
          "duration": 0.09296874999999716
        },
        {
          "name": "C5",
          "midi": 72,
          "time": 91.78125,
          "velocity": 0.7559055118110236,
          "duration": 0.18671874999999716
        },
        {
          "name": "B4",
          "midi": 71,
          "time": 91.96875,
          "velocity": 0.7559055118110236,
          "duration": 0.09296874999999716
        },
        {
          "name": "G4",
          "midi": 67,
          "time": 92.0625,
          "velocity": 0.7559055118110236,
          "duration": 0.18671874999999716
        },
        {
          "name": "C5",
          "midi": 72,
          "time": 92.25,
          "velocity": 0.7559055118110236,
          "duration": 0.09296874999999716
        },
        {
          "name": "B4",
          "midi": 71,
          "time": 92.34375,
          "velocity": 0.7559055118110236,
          "duration": 0.09296874999999716
        },
        {
          "name": "G4",
          "midi": 67,
          "time": 92.4375,
          "velocity": 0.7559055118110236,
          "duration": 0.09296874999999716
        },
        {
          "name": "D5",
          "midi": 74,
          "time": 92.53125,
          "velocity": 0.7559055118110236,
          "duration": 0.18671874999999716
        },
        {
          "name": "B4",
          "midi": 71,
          "time": 92.71875,
          "velocity": 0.7559055118110236,
          "duration": 0.09296874999999716
        },
        {
          "name": "G4",
          "midi": 67,
          "time": 92.8125,
          "velocity": 0.7559055118110236,
          "duration": 0.18671874999999716
        },
        {
          "name": "A4",
          "midi": 69,
          "time": 93,
          "velocity": 0.7559055118110236,
          "duration": 0.09296874999999716
        },
        {
          "name": "E4",
          "midi": 64,
          "time": 93.09375,
          "velocity": 0.7559055118110236,
          "duration": 0.09296874999999716
        },
        {
          "name": "A4",
          "midi": 69,
          "time": 93.1875,
          "velocity": 0.7559055118110236,
          "duration": 0.09296874999999716
        },
        {
          "name": "E5",
          "midi": 76,
          "time": 93.28125,
          "velocity": 0.7559055118110236,
          "duration": 0.09296874999999716
        },
        {
          "name": "D5",
          "midi": 74,
          "time": 93.375,
          "velocity": 0.7559055118110236,
          "duration": 0.09296874999999716
        },
        {
          "name": "C5",
          "midi": 72,
          "time": 93.46875,
          "velocity": 0.7559055118110236,
          "duration": 0.09296874999999716
        },
        {
          "name": "G4",
          "midi": 67,
          "time": 93.5625,
          "velocity": 0.7559055118110236,
          "duration": 0.18671874999999716
        },
        {
          "name": "A4",
          "midi": 69,
          "time": 93.75,
          "velocity": 0.7559055118110236,
          "duration": 0.09296874999999716
        },
        {
          "name": "E4",
          "midi": 64,
          "time": 93.84375,
          "velocity": 0.7559055118110236,
          "duration": 0.09296874999999716
        },
        {
          "name": "A4",
          "midi": 69,
          "time": 93.9375,
          "velocity": 0.7559055118110236,
          "duration": 0.09296874999999716
        },
        {
          "name": "E5",
          "midi": 76,
          "time": 94.03125,
          "velocity": 0.7559055118110236,
          "duration": 0.09296874999999716
        },
        {
          "name": "D5",
          "midi": 74,
          "time": 94.125,
          "velocity": 0.7559055118110236,
          "duration": 0.09296874999999716
        },
        {
          "name": "C5",
          "midi": 72,
          "time": 94.21875,
          "velocity": 0.7559055118110236,
          "duration": 0.09296874999999716
        },
        {
          "name": "G4",
          "midi": 67,
          "time": 94.3125,
          "velocity": 0.7559055118110236,
          "duration": 0.18671874999999716
        },
        {
          "name": "C5",
          "midi": 72,
          "time": 94.5,
          "velocity": 0.7559055118110236,
          "duration": 0.18671874999999716
        },
        {
          "name": "E5",
          "midi": 76,
          "time": 94.5,
          "velocity": 0.7559055118110236,
          "duration": 0.18671874999999716
        },
        {
          "name": "B4",
          "midi": 71,
          "time": 94.6875,
          "velocity": 0.7559055118110236,
          "duration": 0.18671874999999716
        },
        {
          "name": "D#5",
          "midi": 75,
          "time": 94.6875,
          "velocity": 0.7559055118110236,
          "duration": 0.18671874999999716
        },
        {
          "name": "A#4",
          "midi": 70,
          "time": 94.875,
          "velocity": 0.7559055118110236,
          "duration": 0.18671874999999716
        },
        {
          "name": "D5",
          "midi": 74,
          "time": 94.875,
          "velocity": 0.7559055118110236,
          "duration": 0.18671874999999716
        },
        {
          "name": "A4",
          "midi": 69,
          "time": 95.0625,
          "velocity": 0.7559055118110236,
          "duration": 0.18671874999999716
        },
        {
          "name": "C#5",
          "midi": 73,
          "time": 95.0625,
          "velocity": 0.7559055118110236,
          "duration": 0.18671874999999716
        },
        {
          "name": "G#4",
          "midi": 68,
          "time": 95.25,
          "velocity": 0.7559055118110236,
          "duration": 0.18671874999999716
        },
        {
          "name": "C5",
          "midi": 72,
          "time": 95.25,
          "velocity": 0.7559055118110236,
          "duration": 0.18671874999999716
        },
        {
          "name": "A4",
          "midi": 69,
          "time": 95.4375,
          "velocity": 0.7559055118110236,
          "duration": 0.18671874999999716
        },
        {
          "name": "C#5",
          "midi": 73,
          "time": 95.4375,
          "velocity": 0.7559055118110236,
          "duration": 0.18671874999999716
        },
        {
          "name": "A#4",
          "midi": 70,
          "time": 95.625,
          "velocity": 0.7559055118110236,
          "duration": 0.18671874999999716
        },
        {
          "name": "D5",
          "midi": 74,
          "time": 95.625,
          "velocity": 0.7559055118110236,
          "duration": 0.18671874999999716
        },
        {
          "name": "B4",
          "midi": 71,
          "time": 95.8125,
          "velocity": 0.7559055118110236,
          "duration": 0.18671874999999716
        },
        {
          "name": "D#5",
          "midi": 75,
          "time": 95.8125,
          "velocity": 0.7559055118110236,
          "duration": 0.18671874999999716
        },
        {
          "name": "E4",
          "midi": 64,
          "time": 96.375,
          "velocity": 0.7559055118110236,
          "duration": 0.18671874999999716
        },
        {
          "name": "A4",
          "midi": 69,
          "time": 96.375,
          "velocity": 0.7559055118110236,
          "duration": 0.18671874999999716
        },
        {
          "name": "E4",
          "midi": 64,
          "time": 96.5625,
          "velocity": 0.7559055118110236,
          "duration": 0.18671874999999716
        },
        {
          "name": "A4",
          "midi": 69,
          "time": 96.5625,
          "velocity": 0.7559055118110236,
          "duration": 0.18671874999999716
        },
        {
          "name": "E4",
          "midi": 64,
          "time": 96.75,
          "velocity": 0.7559055118110236,
          "duration": 0.18671874999999716
        },
        {
          "name": "B4",
          "midi": 71,
          "time": 96.75,
          "velocity": 0.7559055118110236,
          "duration": 0.18671874999999716
        },
        {
          "name": "E4",
          "midi": 64,
          "time": 96.9375,
          "velocity": 0.7559055118110236,
          "duration": 0.5617187499999972
        },
        {
          "name": "C5",
          "midi": 72,
          "time": 96.9375,
          "velocity": 0.7559055118110236,
          "duration": 0.5617187499999972
        },
        {
          "name": "E4",
          "midi": 64,
          "time": 97.875,
          "velocity": 0.7559055118110236,
          "duration": 0.18671874999999716
        },
        {
          "name": "A4",
          "midi": 69,
          "time": 97.875,
          "velocity": 0.7559055118110236,
          "duration": 0.18671874999999716
        },
        {
          "name": "E4",
          "midi": 64,
          "time": 98.0625,
          "velocity": 0.7559055118110236,
          "duration": 0.18671874999999716
        },
        {
          "name": "A4",
          "midi": 69,
          "time": 98.0625,
          "velocity": 0.7559055118110236,
          "duration": 0.18671874999999716
        },
        {
          "name": "E4",
          "midi": 64,
          "time": 98.25,
          "velocity": 0.7559055118110236,
          "duration": 0.18671874999999716
        },
        {
          "name": "B4",
          "midi": 71,
          "time": 98.25,
          "velocity": 0.7559055118110236,
          "duration": 0.18671874999999716
        },
        {
          "name": "E4",
          "midi": 64,
          "time": 98.4375,
          "velocity": 0.7559055118110236,
          "duration": 0.37421874999999716
        },
        {
          "name": "C5",
          "midi": 72,
          "time": 98.4375,
          "velocity": 0.7559055118110236,
          "duration": 0.37421874999999716
        },
        {
          "name": "F4",
          "midi": 65,
          "time": 98.8125,
          "velocity": 0.7559055118110236,
          "duration": 0.37421874999999716
        },
        {
          "name": "B4",
          "midi": 71,
          "time": 98.8125,
          "velocity": 0.7559055118110236,
          "duration": 0.37421874999999716
        },
        {
          "name": "F4",
          "midi": 65,
          "time": 99.1875,
          "velocity": 0.7559055118110236,
          "duration": 0.37421874999999716
        },
        {
          "name": "A4",
          "midi": 69,
          "time": 99.1875,
          "velocity": 0.7559055118110236,
          "duration": 0.37421874999999716
        },
        {
          "name": "F4",
          "midi": 65,
          "time": 99.5625,
          "velocity": 0.7559055118110236,
          "duration": 0.9367187499999972
        },
        {
          "name": "A4",
          "midi": 69,
          "time": 99.5625,
          "velocity": 0.7559055118110236,
          "duration": 0.9367187499999972
        },
        {
          "name": "C4",
          "midi": 60,
          "time": 100.5,
          "velocity": 0.7559055118110236,
          "duration": 0.37421874999999716
        },
        {
          "name": "F4",
          "midi": 65,
          "time": 100.5,
          "velocity": 0.7559055118110236,
          "duration": 0.37421874999999716
        },
        {
          "name": "C4",
          "midi": 60,
          "time": 100.875,
          "velocity": 0.7559055118110236,
          "duration": 0.37421874999999716
        },
        {
          "name": "G4",
          "midi": 67,
          "time": 100.875,
          "velocity": 0.7559055118110236,
          "duration": 0.37421874999999716
        },
        {
          "name": "B3",
          "midi": 59,
          "time": 101.25,
          "velocity": 0.7559055118110236,
          "duration": 0.18671874999999716
        },
        {
          "name": "F4",
          "midi": 65,
          "time": 101.25,
          "velocity": 0.7559055118110236,
          "duration": 0.18671874999999716
        },
        {
          "name": "B3",
          "midi": 59,
          "time": 101.4375,
          "velocity": 0.7559055118110236,
          "duration": 0.5617187499999972
        },
        {
          "name": "E4",
          "midi": 64,
          "time": 101.4375,
          "velocity": 0.7559055118110236,
          "duration": 0.5617187499999972
        },
        {
          "name": "E4",
          "midi": 64,
          "time": 102.375,
          "velocity": 0.7559055118110236,
          "duration": 0.18671874999999716
        },
        {
          "name": "A4",
          "midi": 69,
          "time": 102.375,
          "velocity": 0.7559055118110236,
          "duration": 0.18671874999999716
        },
        {
          "name": "C5",
          "midi": 72,
          "time": 102.375,
          "velocity": 0.7559055118110236,
          "duration": 0.18671874999999716
        },
        {
          "name": "E4",
          "midi": 64,
          "time": 102.5625,
          "velocity": 0.7559055118110236,
          "duration": 0.18671874999999716
        },
        {
          "name": "A4",
          "midi": 69,
          "time": 102.5625,
          "velocity": 0.7559055118110236,
          "duration": 0.18671874999999716
        },
        {
          "name": "C5",
          "midi": 72,
          "time": 102.5625,
          "velocity": 0.7559055118110236,
          "duration": 0.18671874999999716
        },
        {
          "name": "E4",
          "midi": 64,
          "time": 102.75,
          "velocity": 0.7559055118110236,
          "duration": 0.18671874999999716
        },
        {
          "name": "B4",
          "midi": 71,
          "time": 102.75,
          "velocity": 0.7559055118110236,
          "duration": 0.18671874999999716
        },
        {
          "name": "D5",
          "midi": 74,
          "time": 102.75,
          "velocity": 0.7559055118110236,
          "duration": 0.18671874999999716
        },
        {
          "name": "E4",
          "midi": 64,
          "time": 102.9375,
          "velocity": 0.7559055118110236,
          "duration": 0.5617187499999972
        },
        {
          "name": "C5",
          "midi": 72,
          "time": 102.9375,
          "velocity": 0.7559055118110236,
          "duration": 0.5617187499999972
        },
        {
          "name": "E5",
          "midi": 76,
          "time": 102.9375,
          "velocity": 0.7559055118110236,
          "duration": 0.5617187499999972
        },
        {
          "name": "E4",
          "midi": 64,
          "time": 103.875,
          "velocity": 0.7559055118110236,
          "duration": 0.18671874999999716
        },
        {
          "name": "A4",
          "midi": 69,
          "time": 103.875,
          "velocity": 0.7559055118110236,
          "duration": 0.18671874999999716
        },
        {
          "name": "C5",
          "midi": 72,
          "time": 103.875,
          "velocity": 0.7559055118110236,
          "duration": 0.18671874999999716
        },
        {
          "name": "E4",
          "midi": 64,
          "time": 104.0625,
          "velocity": 0.7559055118110236,
          "duration": 0.18671874999999716
        },
        {
          "name": "A4",
          "midi": 69,
          "time": 104.0625,
          "velocity": 0.7559055118110236,
          "duration": 0.18671874999999716
        },
        {
          "name": "C5",
          "midi": 72,
          "time": 104.0625,
          "velocity": 0.7559055118110236,
          "duration": 0.18671874999999716
        },
        {
          "name": "E4",
          "midi": 64,
          "time": 104.25,
          "velocity": 0.7559055118110236,
          "duration": 0.18671874999999716
        },
        {
          "name": "B4",
          "midi": 71,
          "time": 104.25,
          "velocity": 0.7559055118110236,
          "duration": 0.18671874999999716
        },
        {
          "name": "D5",
          "midi": 74,
          "time": 104.25,
          "velocity": 0.7559055118110236,
          "duration": 0.18671874999999716
        },
        {
          "name": "E4",
          "midi": 64,
          "time": 104.4375,
          "velocity": 0.7559055118110236,
          "duration": 0.37421874999999716
        },
        {
          "name": "C5",
          "midi": 72,
          "time": 104.4375,
          "velocity": 0.7559055118110236,
          "duration": 0.37421874999999716
        },
        {
          "name": "E5",
          "midi": 76,
          "time": 104.4375,
          "velocity": 0.7559055118110236,
          "duration": 0.37421874999999716
        },
        {
          "name": "F4",
          "midi": 65,
          "time": 104.8125,
          "velocity": 0.7559055118110236,
          "duration": 0.37421874999999716
        },
        {
          "name": "B4",
          "midi": 71,
          "time": 104.8125,
          "velocity": 0.7559055118110236,
          "duration": 0.37421874999999716
        },
        {
          "name": "D5",
          "midi": 74,
          "time": 104.8125,
          "velocity": 0.7559055118110236,
          "duration": 0.37421874999999716
        },
        {
          "name": "F4",
          "midi": 65,
          "time": 105.1875,
          "velocity": 0.7559055118110236,
          "duration": 0.37421874999999716
        },
        {
          "name": "A4",
          "midi": 69,
          "time": 105.1875,
          "velocity": 0.7559055118110236,
          "duration": 0.37421874999999716
        },
        {
          "name": "C5",
          "midi": 72,
          "time": 105.1875,
          "velocity": 0.7559055118110236,
          "duration": 0.37421874999999716
        },
        {
          "name": "F4",
          "midi": 65,
          "time": 105.5625,
          "velocity": 0.7559055118110236,
          "duration": 0.9367187499999972
        },
        {
          "name": "A4",
          "midi": 69,
          "time": 105.5625,
          "velocity": 0.7559055118110236,
          "duration": 0.9367187499999972
        },
        {
          "name": "C5",
          "midi": 72,
          "time": 105.5625,
          "velocity": 0.7559055118110236,
          "duration": 0.9367187499999972
        },
        {
          "name": "C4",
          "midi": 60,
          "time": 106.5,
          "velocity": 0.7559055118110236,
          "duration": 0.37421874999999716
        },
        {
          "name": "F4",
          "midi": 65,
          "time": 106.5,
          "velocity": 0.7559055118110236,
          "duration": 0.37421874999999716
        },
        {
          "name": "C4",
          "midi": 60,
          "time": 106.875,
          "velocity": 0.7559055118110236,
          "duration": 0.37421874999999716
        },
        {
          "name": "G4",
          "midi": 67,
          "time": 106.875,
          "velocity": 0.7559055118110236,
          "duration": 0.37421874999999716
        },
        {
          "name": "B3",
          "midi": 59,
          "time": 107.25,
          "velocity": 0.7559055118110236,
          "duration": 0.18671874999999716
        },
        {
          "name": "F4",
          "midi": 65,
          "time": 107.25,
          "velocity": 0.7559055118110236,
          "duration": 0.18671874999999716
        },
        {
          "name": "B3",
          "midi": 59,
          "time": 107.4375,
          "velocity": 0.7559055118110236,
          "duration": 0.5617187499999972
        },
        {
          "name": "E4",
          "midi": 64,
          "time": 107.4375,
          "velocity": 0.7559055118110236,
          "duration": 0.5617187499999972
        },
        {
          "name": "F4",
          "midi": 65,
          "time": 108,
          "velocity": 0.7559055118110236,
          "duration": 0.37421874999999716
        },
        {
          "name": "A4",
          "midi": 69,
          "time": 108,
          "velocity": 0.7559055118110236,
          "duration": 0.37421874999999716
        },
        {
          "name": "C5",
          "midi": 72,
          "time": 108,
          "velocity": 0.7559055118110236,
          "duration": 0.37421874999999716
        },
        {
          "name": "F4",
          "midi": 65,
          "time": 108.375,
          "velocity": 0.7559055118110236,
          "duration": 0.37421874999999716
        },
        {
          "name": "A4",
          "midi": 69,
          "time": 108.375,
          "velocity": 0.7559055118110236,
          "duration": 0.37421874999999716
        },
        {
          "name": "C5",
          "midi": 72,
          "time": 108.375,
          "velocity": 0.7559055118110236,
          "duration": 0.37421874999999716
        },
        {
          "name": "F4",
          "midi": 65,
          "time": 108.75,
          "velocity": 0.7559055118110236,
          "duration": 0.18671874999999716
        },
        {
          "name": "B4",
          "midi": 71,
          "time": 108.75,
          "velocity": 0.7559055118110236,
          "duration": 0.18671874999999716
        },
        {
          "name": "F4",
          "midi": 65,
          "time": 108.9375,
          "velocity": 0.7559055118110236,
          "duration": 0.18671874999999716
        },
        {
          "name": "A4",
          "midi": 69,
          "time": 108.9375,
          "velocity": 0.7559055118110236,
          "duration": 0.18671874999999716
        },
        {
          "name": "C5",
          "midi": 72,
          "time": 108.9375,
          "velocity": 0.7559055118110236,
          "duration": 0.18671874999999716
        },
        {
          "name": "F4",
          "midi": 65,
          "time": 109.125,
          "velocity": 0.7559055118110236,
          "duration": 0.37421874999999716
        },
        {
          "name": "A4",
          "midi": 69,
          "time": 109.125,
          "velocity": 0.7559055118110236,
          "duration": 0.37421874999999716
        },
        {
          "name": "C5",
          "midi": 72,
          "time": 109.125,
          "velocity": 0.7559055118110236,
          "duration": 0.37421874999999716
        },
        {
          "name": "G4",
          "midi": 67,
          "time": 109.5,
          "velocity": 0.7559055118110236,
          "duration": 0.18671874999999716
        },
        {
          "name": "B4",
          "midi": 71,
          "time": 109.5,
          "velocity": 0.7559055118110236,
          "duration": 0.18671874999999716
        },
        {
          "name": "D5",
          "midi": 74,
          "time": 109.5,
          "velocity": 0.7559055118110236,
          "duration": 0.18671874999999716
        },
        {
          "name": "G4",
          "midi": 67,
          "time": 109.6875,
          "velocity": 0.7559055118110236,
          "duration": 0.18671874999999716
        },
        {
          "name": "B4",
          "midi": 71,
          "time": 109.6875,
          "velocity": 0.7559055118110236,
          "duration": 0.18671874999999716
        },
        {
          "name": "E5",
          "midi": 76,
          "time": 109.6875,
          "velocity": 0.7559055118110236,
          "duration": 0.18671874999999716
        },
        {
          "name": "G4",
          "midi": 67,
          "time": 109.875,
          "velocity": 0.7559055118110236,
          "duration": 0.18671874999999716
        },
        {
          "name": "B4",
          "midi": 71,
          "time": 109.875,
          "velocity": 0.7559055118110236,
          "duration": 0.18671874999999716
        },
        {
          "name": "D5",
          "midi": 74,
          "time": 109.875,
          "velocity": 0.7559055118110236,
          "duration": 0.18671874999999716
        },
        {
          "name": "G4",
          "midi": 67,
          "time": 110.0625,
          "velocity": 0.7559055118110236,
          "duration": 0.18671874999999716
        },
        {
          "name": "C5",
          "midi": 72,
          "time": 110.0625,
          "velocity": 0.7559055118110236,
          "duration": 0.18671874999999716
        },
        {
          "name": "G4",
          "midi": 67,
          "time": 110.25,
          "velocity": 0.7559055118110236,
          "duration": 0.18671874999999716
        },
        {
          "name": "B4",
          "midi": 71,
          "time": 110.25,
          "velocity": 0.7559055118110236,
          "duration": 0.18671874999999716
        },
        {
          "name": "D5",
          "midi": 74,
          "time": 110.25,
          "velocity": 0.7559055118110236,
          "duration": 0.18671874999999716
        },
        {
          "name": "G4",
          "midi": 67,
          "time": 110.4375,
          "velocity": 0.7559055118110236,
          "duration": 0.5617187499999972
        },
        {
          "name": "C5",
          "midi": 72,
          "time": 110.4375,
          "velocity": 0.7559055118110236,
          "duration": 0.5617187499999972
        },
        {
          "name": "C4",
          "midi": 60,
          "time": 111,
          "velocity": 0.7559055118110236,
          "duration": 0.37421874999999716
        },
        {
          "name": "E4",
          "midi": 64,
          "time": 111,
          "velocity": 0.7559055118110236,
          "duration": 0.37421874999999716
        },
        {
          "name": "A4",
          "midi": 69,
          "time": 111,
          "velocity": 0.7559055118110236,
          "duration": 0.37421874999999716
        },
        {
          "name": "C4",
          "midi": 60,
          "time": 111.375,
          "velocity": 0.7559055118110236,
          "duration": 0.37421874999999716
        },
        {
          "name": "E4",
          "midi": 64,
          "time": 111.375,
          "velocity": 0.7559055118110236,
          "duration": 0.37421874999999716
        },
        {
          "name": "A4",
          "midi": 69,
          "time": 111.375,
          "velocity": 0.7559055118110236,
          "duration": 0.37421874999999716
        },
        {
          "name": "C4",
          "midi": 60,
          "time": 111.75,
          "velocity": 0.7559055118110236,
          "duration": 0.18671874999999716
        },
        {
          "name": "E4",
          "midi": 64,
          "time": 111.75,
          "velocity": 0.7559055118110236,
          "duration": 0.18671874999999716
        },
        {
          "name": "G4",
          "midi": 67,
          "time": 111.75,
          "velocity": 0.7559055118110236,
          "duration": 0.18671874999999716
        },
        {
          "name": "C4",
          "midi": 60,
          "time": 111.9375,
          "velocity": 0.7559055118110236,
          "duration": 0.18671874999999716
        },
        {
          "name": "E4",
          "midi": 64,
          "time": 111.9375,
          "velocity": 0.7559055118110236,
          "duration": 0.18671874999999716
        },
        {
          "name": "A4",
          "midi": 69,
          "time": 111.9375,
          "velocity": 0.7559055118110236,
          "duration": 0.18671874999999716
        },
        {
          "name": "C4",
          "midi": 60,
          "time": 112.125,
          "velocity": 0.7559055118110236,
          "duration": 0.37421874999999716
        },
        {
          "name": "E4",
          "midi": 64,
          "time": 112.125,
          "velocity": 0.7559055118110236,
          "duration": 0.37421874999999716
        },
        {
          "name": "A4",
          "midi": 69,
          "time": 112.125,
          "velocity": 0.7559055118110236,
          "duration": 0.37421874999999716
        },
        {
          "name": "C4",
          "midi": 60,
          "time": 112.5,
          "velocity": 0.7559055118110236,
          "duration": 0.18671874999999716
        },
        {
          "name": "E4",
          "midi": 64,
          "time": 112.5,
          "velocity": 0.7559055118110236,
          "duration": 0.18671874999999716
        },
        {
          "name": "A4",
          "midi": 69,
          "time": 112.5,
          "velocity": 0.7559055118110236,
          "duration": 0.18671874999999716
        },
        {
          "name": "C4",
          "midi": 60,
          "time": 112.6875,
          "velocity": 0.7559055118110236,
          "duration": 0.18671874999999716
        },
        {
          "name": "E4",
          "midi": 64,
          "time": 112.6875,
          "velocity": 0.7559055118110236,
          "duration": 0.18671874999999716
        },
        {
          "name": "G4",
          "midi": 67,
          "time": 112.6875,
          "velocity": 0.7559055118110236,
          "duration": 0.18671874999999716
        },
        {
          "name": "C4",
          "midi": 60,
          "time": 112.875,
          "velocity": 0.7559055118110236,
          "duration": 0.18671874999999716
        },
        {
          "name": "E4",
          "midi": 64,
          "time": 112.875,
          "velocity": 0.7559055118110236,
          "duration": 0.18671874999999716
        },
        {
          "name": "B3",
          "midi": 59,
          "time": 113.0625,
          "velocity": 0.7559055118110236,
          "duration": 0.37421874999999716
        },
        {
          "name": "D4",
          "midi": 62,
          "time": 113.0625,
          "velocity": 0.7559055118110236,
          "duration": 0.37421874999999716
        },
        {
          "name": "G4",
          "midi": 67,
          "time": 113.0625,
          "velocity": 0.7559055118110236,
          "duration": 0.37421874999999716
        },
        {
          "name": "B3",
          "midi": 59,
          "time": 113.4375,
          "velocity": 0.7559055118110236,
          "duration": 0.18671874999999716
        },
        {
          "name": "E4",
          "midi": 64,
          "time": 113.4375,
          "velocity": 0.7559055118110236,
          "duration": 0.18671874999999716
        },
        {
          "name": "B3",
          "midi": 59,
          "time": 113.625,
          "velocity": 0.7559055118110236,
          "duration": 0.18671874999999716
        },
        {
          "name": "D4",
          "midi": 62,
          "time": 113.625,
          "velocity": 0.7559055118110236,
          "duration": 0.18671874999999716
        },
        {
          "name": "G4",
          "midi": 67,
          "time": 113.625,
          "velocity": 0.7559055118110236,
          "duration": 0.18671874999999716
        },
        {
          "name": "F4",
          "midi": 65,
          "time": 114,
          "velocity": 0.7559055118110236,
          "duration": 0.37421874999999716
        },
        {
          "name": "A4",
          "midi": 69,
          "time": 114,
          "velocity": 0.7559055118110236,
          "duration": 0.37421874999999716
        },
        {
          "name": "C5",
          "midi": 72,
          "time": 114,
          "velocity": 0.7559055118110236,
          "duration": 0.37421874999999716
        },
        {
          "name": "F4",
          "midi": 65,
          "time": 114.375,
          "velocity": 0.7559055118110236,
          "duration": 0.37421874999999716
        },
        {
          "name": "A4",
          "midi": 69,
          "time": 114.375,
          "velocity": 0.7559055118110236,
          "duration": 0.37421874999999716
        },
        {
          "name": "C5",
          "midi": 72,
          "time": 114.375,
          "velocity": 0.7559055118110236,
          "duration": 0.37421874999999716
        },
        {
          "name": "F4",
          "midi": 65,
          "time": 114.75,
          "velocity": 0.7559055118110236,
          "duration": 0.18671874999999716
        },
        {
          "name": "B4",
          "midi": 71,
          "time": 114.75,
          "velocity": 0.7559055118110236,
          "duration": 0.18671874999999716
        },
        {
          "name": "F4",
          "midi": 65,
          "time": 114.9375,
          "velocity": 0.7559055118110236,
          "duration": 0.18671874999999716
        },
        {
          "name": "A4",
          "midi": 69,
          "time": 114.9375,
          "velocity": 0.7559055118110236,
          "duration": 0.18671874999999716
        },
        {
          "name": "C5",
          "midi": 72,
          "time": 114.9375,
          "velocity": 0.7559055118110236,
          "duration": 0.18671874999999716
        },
        {
          "name": "F4",
          "midi": 65,
          "time": 115.125,
          "velocity": 0.7559055118110236,
          "duration": 0.37421874999999716
        },
        {
          "name": "A4",
          "midi": 69,
          "time": 115.125,
          "velocity": 0.7559055118110236,
          "duration": 0.37421874999999716
        },
        {
          "name": "C5",
          "midi": 72,
          "time": 115.125,
          "velocity": 0.7559055118110236,
          "duration": 0.37421874999999716
        },
        {
          "name": "G4",
          "midi": 67,
          "time": 115.5,
          "velocity": 0.7559055118110236,
          "duration": 0.18671874999999716
        },
        {
          "name": "B4",
          "midi": 71,
          "time": 115.5,
          "velocity": 0.7559055118110236,
          "duration": 0.18671874999999716
        },
        {
          "name": "D5",
          "midi": 74,
          "time": 115.5,
          "velocity": 0.7559055118110236,
          "duration": 0.18671874999999716
        },
        {
          "name": "G4",
          "midi": 67,
          "time": 115.6875,
          "velocity": 0.7559055118110236,
          "duration": 0.18671874999999716
        },
        {
          "name": "B4",
          "midi": 71,
          "time": 115.6875,
          "velocity": 0.7559055118110236,
          "duration": 0.18671874999999716
        },
        {
          "name": "E5",
          "midi": 76,
          "time": 115.6875,
          "velocity": 0.7559055118110236,
          "duration": 0.18671874999999716
        },
        {
          "name": "G4",
          "midi": 67,
          "time": 115.875,
          "velocity": 0.7559055118110236,
          "duration": 0.18671874999999716
        },
        {
          "name": "B4",
          "midi": 71,
          "time": 115.875,
          "velocity": 0.7559055118110236,
          "duration": 0.18671874999999716
        },
        {
          "name": "D5",
          "midi": 74,
          "time": 115.875,
          "velocity": 0.7559055118110236,
          "duration": 0.18671874999999716
        },
        {
          "name": "G4",
          "midi": 67,
          "time": 116.0625,
          "velocity": 0.7559055118110236,
          "duration": 0.18671874999999716
        },
        {
          "name": "C5",
          "midi": 72,
          "time": 116.0625,
          "velocity": 0.7559055118110236,
          "duration": 0.18671874999999716
        },
        {
          "name": "G4",
          "midi": 67,
          "time": 116.25,
          "velocity": 0.7559055118110236,
          "duration": 0.18671874999999716
        },
        {
          "name": "B4",
          "midi": 71,
          "time": 116.25,
          "velocity": 0.7559055118110236,
          "duration": 0.18671874999999716
        },
        {
          "name": "D5",
          "midi": 74,
          "time": 116.25,
          "velocity": 0.7559055118110236,
          "duration": 0.18671874999999716
        },
        {
          "name": "G4",
          "midi": 67,
          "time": 116.4375,
          "velocity": 0.7559055118110236,
          "duration": 0.5617187499999972
        },
        {
          "name": "C5",
          "midi": 72,
          "time": 116.4375,
          "velocity": 0.7559055118110236,
          "duration": 0.5617187499999972
        },
        {
          "name": "D4",
          "midi": 62,
          "time": 117,
          "velocity": 0.7559055118110236,
          "duration": 0.37421874999999716
        },
        {
          "name": "A4",
          "midi": 69,
          "time": 117,
          "velocity": 0.7559055118110236,
          "duration": 0.37421874999999716
        },
        {
          "name": "D4",
          "midi": 62,
          "time": 117.375,
          "velocity": 0.7559055118110236,
          "duration": 0.37421874999999716
        },
        {
          "name": "A4",
          "midi": 69,
          "time": 117.375,
          "velocity": 0.7559055118110236,
          "duration": 0.37421874999999716
        },
        {
          "name": "D4",
          "midi": 62,
          "time": 117.75,
          "velocity": 0.7559055118110236,
          "duration": 0.18671874999999716
        },
        {
          "name": "G4",
          "midi": 67,
          "time": 117.75,
          "velocity": 0.7559055118110236,
          "duration": 0.18671874999999716
        },
        {
          "name": "D4",
          "midi": 62,
          "time": 117.9375,
          "velocity": 0.7559055118110236,
          "duration": 0.18671874999999716
        },
        {
          "name": "A4",
          "midi": 69,
          "time": 117.9375,
          "velocity": 0.7559055118110236,
          "duration": 0.18671874999999716
        },
        {
          "name": "D4",
          "midi": 62,
          "time": 118.125,
          "velocity": 0.7559055118110236,
          "duration": 0.37421874999999716
        },
        {
          "name": "A4",
          "midi": 69,
          "time": 118.125,
          "velocity": 0.7559055118110236,
          "duration": 0.37421874999999716
        },
        {
          "name": "D4",
          "midi": 62,
          "time": 118.5,
          "velocity": 0.7559055118110236,
          "duration": 0.37421874999999716
        },
        {
          "name": "A4",
          "midi": 69,
          "time": 118.5,
          "velocity": 0.7559055118110236,
          "duration": 0.37421874999999716
        },
        {
          "name": "E4",
          "midi": 64,
          "time": 118.875,
          "velocity": 0.7874015748031497,
          "duration": 0.37421874999999716
        },
        {
          "name": "B4",
          "midi": 71,
          "time": 118.875,
          "velocity": 0.7874015748031497,
          "duration": 0.37421874999999716
        },
        {
          "name": "F4",
          "midi": 65,
          "time": 119.25,
          "velocity": 0.8188976377952756,
          "duration": 0.37421874999999716
        },
        {
          "name": "A4",
          "midi": 69,
          "time": 119.25,
          "velocity": 0.8188976377952756,
          "duration": 0.37421874999999716
        },
        {
          "name": "C5",
          "midi": 72,
          "time": 119.25,
          "velocity": 0.8188976377952756,
          "duration": 0.37421874999999716
        },
        {
          "name": "G4",
          "midi": 67,
          "time": 119.625,
          "velocity": 0.8503937007874016,
          "duration": 0.37421874999999716
        },
        {
          "name": "B4",
          "midi": 71,
          "time": 119.625,
          "velocity": 0.8503937007874016,
          "duration": 0.37421874999999716
        },
        {
          "name": "D5",
          "midi": 74,
          "time": 119.625,
          "velocity": 0.8503937007874016,
          "duration": 0.37421874999999716
        },
        {
          "name": "A4",
          "midi": 69,
          "time": 120,
          "velocity": 1,
          "duration": 0.37421874999999716
        },
        {
          "name": "C5",
          "midi": 72,
          "time": 120,
          "velocity": 1,
          "duration": 0.37421874999999716
        },
        {
          "name": "E5",
          "midi": 76,
          "time": 120,
          "velocity": 1,
          "duration": 0.37421874999999716
        },
        {
          "name": "A4",
          "midi": 69,
          "time": 120.375,
          "velocity": 1,
          "duration": 0.37421874999999716
        },
        {
          "name": "C5",
          "midi": 72,
          "time": 120.375,
          "velocity": 1,
          "duration": 0.37421874999999716
        },
        {
          "name": "E5",
          "midi": 76,
          "time": 120.375,
          "velocity": 1,
          "duration": 0.37421874999999716
        },
        {
          "name": "G4",
          "midi": 67,
          "time": 120.75,
          "velocity": 1,
          "duration": 0.37421874999999716
        },
        {
          "name": "B4",
          "midi": 71,
          "time": 120.75,
          "velocity": 1,
          "duration": 0.37421874999999716
        },
        {
          "name": "D5",
          "midi": 74,
          "time": 120.75,
          "velocity": 1,
          "duration": 0.37421874999999716
        },
        {
          "name": "G4",
          "midi": 67,
          "time": 121.125,
          "velocity": 1,
          "duration": 0.18671874999999716
        },
        {
          "name": "B4",
          "midi": 71,
          "time": 121.125,
          "velocity": 1,
          "duration": 0.18671874999999716
        },
        {
          "name": "D5",
          "midi": 74,
          "time": 121.125,
          "velocity": 1,
          "duration": 0.18671874999999716
        },
        {
          "name": "G4",
          "midi": 67,
          "time": 121.3125,
          "velocity": 1,
          "duration": 0.37421874999999716
        },
        {
          "name": "B4",
          "midi": 71,
          "time": 121.3125,
          "velocity": 1,
          "duration": 0.37421874999999716
        },
        {
          "name": "D5",
          "midi": 74,
          "time": 121.3125,
          "velocity": 1,
          "duration": 0.37421874999999716
        },
        {
          "name": "E4",
          "midi": 64,
          "time": 121.6875,
          "velocity": 1,
          "duration": 0.5617187499999972
        },
        {
          "name": "A4",
          "midi": 69,
          "time": 121.6875,
          "velocity": 1,
          "duration": 0.5617187499999972
        },
        {
          "name": "C5",
          "midi": 72,
          "time": 121.6875,
          "velocity": 1,
          "duration": 0.5617187499999972
        },
        {
          "name": "A4",
          "midi": 69,
          "time": 122.625,
          "velocity": 0.8818897637795275,
          "duration": 0.18671874999999716
        },
        {
          "name": "C5",
          "midi": 72,
          "time": 122.8125,
          "velocity": 0.8818897637795275,
          "duration": 0.18671874999999716
        },
        {
          "name": "F4",
          "midi": 65,
          "time": 123,
          "velocity": 0.8818897637795275,
          "duration": 0.37421874999999716
        },
        {
          "name": "A4",
          "midi": 69,
          "time": 123,
          "velocity": 0.8818897637795275,
          "duration": 0.37421874999999716
        },
        {
          "name": "D5",
          "midi": 74,
          "time": 123,
          "velocity": 0.8818897637795275,
          "duration": 0.37421874999999716
        },
        {
          "name": "F4",
          "midi": 65,
          "time": 123.375,
          "velocity": 0.8818897637795275,
          "duration": 0.18671874999999716
        },
        {
          "name": "A4",
          "midi": 69,
          "time": 123.375,
          "velocity": 0.8818897637795275,
          "duration": 0.18671874999999716
        },
        {
          "name": "D5",
          "midi": 74,
          "time": 123.375,
          "velocity": 0.8818897637795275,
          "duration": 0.18671874999999716
        },
        {
          "name": "F4",
          "midi": 65,
          "time": 123.5625,
          "velocity": 0.8818897637795275,
          "duration": 0.18671874999999716
        },
        {
          "name": "A4",
          "midi": 69,
          "time": 123.5625,
          "velocity": 0.8818897637795275,
          "duration": 0.18671874999999716
        },
        {
          "name": "C5",
          "midi": 72,
          "time": 123.5625,
          "velocity": 0.8818897637795275,
          "duration": 0.18671874999999716
        },
        {
          "name": "G4",
          "midi": 67,
          "time": 123.75,
          "velocity": 0.8818897637795275,
          "duration": 0.37421874999999716
        },
        {
          "name": "B4",
          "midi": 71,
          "time": 123.75,
          "velocity": 0.8818897637795275,
          "duration": 0.37421874999999716
        },
        {
          "name": "D5",
          "midi": 74,
          "time": 123.75,
          "velocity": 0.8818897637795275,
          "duration": 0.37421874999999716
        },
        {
          "name": "B4",
          "midi": 71,
          "time": 124.125,
          "velocity": 0.8818897637795275,
          "duration": 0.18671874999999716
        },
        {
          "name": "D5",
          "midi": 74,
          "time": 124.125,
          "velocity": 0.8818897637795275,
          "duration": 0.18671874999999716
        },
        {
          "name": "G5",
          "midi": 79,
          "time": 124.125,
          "velocity": 0.8818897637795275,
          "duration": 0.18671874999999716
        },
        {
          "name": "A4",
          "midi": 69,
          "time": 124.3125,
          "velocity": 0.8818897637795275,
          "duration": 0.5617187499999972
        },
        {
          "name": "C5",
          "midi": 72,
          "time": 124.3125,
          "velocity": 0.8818897637795275,
          "duration": 0.5617187499999972
        },
        {
          "name": "E5",
          "midi": 76,
          "time": 124.3125,
          "velocity": 0.8818897637795275,
          "duration": 0.5617187499999972
        },
        {
          "name": "A4",
          "midi": 69,
          "time": 125.25,
          "velocity": 0.8818897637795275,
          "duration": 0.37421874999999716
        },
        {
          "name": "G5",
          "midi": 79,
          "time": 125.25,
          "velocity": 0.8818897637795275,
          "duration": 0.37421874999999716
        },
        {
          "name": "A4",
          "midi": 69,
          "time": 125.625,
          "velocity": 0.8818897637795275,
          "duration": 0.37421874999999716
        },
        {
          "name": "F5",
          "midi": 77,
          "time": 125.625,
          "velocity": 0.8818897637795275,
          "duration": 0.37421874999999716
        },
        {
          "name": "A4",
          "midi": 69,
          "time": 126,
          "velocity": 1,
          "duration": 0.37421874999999716
        },
        {
          "name": "C5",
          "midi": 72,
          "time": 126,
          "velocity": 1,
          "duration": 0.37421874999999716
        },
        {
          "name": "E5",
          "midi": 76,
          "time": 126,
          "velocity": 1,
          "duration": 0.37421874999999716
        },
        {
          "name": "A4",
          "midi": 69,
          "time": 126.375,
          "velocity": 1,
          "duration": 0.37421874999999716
        },
        {
          "name": "C5",
          "midi": 72,
          "time": 126.375,
          "velocity": 1,
          "duration": 0.37421874999999716
        },
        {
          "name": "E5",
          "midi": 76,
          "time": 126.375,
          "velocity": 1,
          "duration": 0.37421874999999716
        },
        {
          "name": "G4",
          "midi": 67,
          "time": 126.75,
          "velocity": 1,
          "duration": 0.37421874999999716
        },
        {
          "name": "B4",
          "midi": 71,
          "time": 126.75,
          "velocity": 1,
          "duration": 0.37421874999999716
        },
        {
          "name": "D5",
          "midi": 74,
          "time": 126.75,
          "velocity": 1,
          "duration": 0.37421874999999716
        },
        {
          "name": "G4",
          "midi": 67,
          "time": 127.125,
          "velocity": 1,
          "duration": 0.18671874999999716
        },
        {
          "name": "B4",
          "midi": 71,
          "time": 127.125,
          "velocity": 1,
          "duration": 0.18671874999999716
        },
        {
          "name": "D5",
          "midi": 74,
          "time": 127.125,
          "velocity": 1,
          "duration": 0.18671874999999716
        },
        {
          "name": "G4",
          "midi": 67,
          "time": 127.3125,
          "velocity": 1,
          "duration": 0.37421874999999716
        },
        {
          "name": "B4",
          "midi": 71,
          "time": 127.3125,
          "velocity": 1,
          "duration": 0.37421874999999716
        },
        {
          "name": "D5",
          "midi": 74,
          "time": 127.3125,
          "velocity": 1,
          "duration": 0.37421874999999716
        },
        {
          "name": "E4",
          "midi": 64,
          "time": 127.6875,
          "velocity": 1,
          "duration": 0.5617187500000114
        },
        {
          "name": "A4",
          "midi": 69,
          "time": 127.6875,
          "velocity": 1,
          "duration": 0.5617187500000114
        },
        {
          "name": "C5",
          "midi": 72,
          "time": 127.6875,
          "velocity": 1,
          "duration": 0.5617187500000114
        },
        {
          "name": "F4",
          "midi": 65,
          "time": 128.8125,
          "velocity": 0.8818897637795275,
          "duration": 0.37421875000001137
        },
        {
          "name": "A4",
          "midi": 69,
          "time": 128.8125,
          "velocity": 0.8818897637795275,
          "duration": 0.37421875000001137
        },
        {
          "name": "D5",
          "midi": 74,
          "time": 128.8125,
          "velocity": 0.8818897637795275,
          "duration": 0.37421875000001137
        },
        {
          "name": "F4",
          "midi": 65,
          "time": 129.1875,
          "velocity": 0.8818897637795275,
          "duration": 0.18671875000001137
        },
        {
          "name": "A4",
          "midi": 69,
          "time": 129.1875,
          "velocity": 0.8818897637795275,
          "duration": 0.18671875000001137
        },
        {
          "name": "C5",
          "midi": 72,
          "time": 129.1875,
          "velocity": 0.8818897637795275,
          "duration": 0.18671875000001137
        },
        {
          "name": "F4",
          "midi": 65,
          "time": 129.375,
          "velocity": 0.8818897637795275,
          "duration": 0.18671875000001137
        },
        {
          "name": "A4",
          "midi": 69,
          "time": 129.375,
          "velocity": 0.8818897637795275,
          "duration": 0.18671875000001137
        },
        {
          "name": "D5",
          "midi": 74,
          "time": 129.375,
          "velocity": 0.8818897637795275,
          "duration": 0.18671875000001137
        },
        {
          "name": "F4",
          "midi": 65,
          "time": 129.5625,
          "velocity": 0.8818897637795275,
          "duration": 0.18671875000001137
        },
        {
          "name": "A4",
          "midi": 69,
          "time": 129.5625,
          "velocity": 0.8818897637795275,
          "duration": 0.18671875000001137
        },
        {
          "name": "C5",
          "midi": 72,
          "time": 129.5625,
          "velocity": 0.8818897637795275,
          "duration": 0.18671875000001137
        },
        {
          "name": "F4",
          "midi": 65,
          "time": 129.75,
          "velocity": 0.8818897637795275,
          "duration": 0.37421875000001137
        },
        {
          "name": "A4",
          "midi": 69,
          "time": 129.75,
          "velocity": 0.8818897637795275,
          "duration": 0.37421875000001137
        },
        {
          "name": "D5",
          "midi": 74,
          "time": 129.75,
          "velocity": 0.8818897637795275,
          "duration": 0.37421875000001137
        },
        {
          "name": "F4",
          "midi": 65,
          "time": 130.125,
          "velocity": 0.8818897637795275,
          "duration": 0.18671875000001137
        },
        {
          "name": "A4",
          "midi": 69,
          "time": 130.125,
          "velocity": 0.8818897637795275,
          "duration": 0.18671875000001137
        },
        {
          "name": "C5",
          "midi": 72,
          "time": 130.125,
          "velocity": 0.8818897637795275,
          "duration": 0.18671875000001137
        },
        {
          "name": "G4",
          "midi": 67,
          "time": 130.3125,
          "velocity": 0.8818897637795275,
          "duration": 0.5617187500000114
        },
        {
          "name": "E5",
          "midi": 76,
          "time": 130.3125,
          "velocity": 0.8818897637795275,
          "duration": 0.5617187500000114
        },
        {
          "name": "G4",
          "midi": 67,
          "time": 131.25,
          "velocity": 0.8818897637795275,
          "duration": 0.37421875000001137
        },
        {
          "name": "G5",
          "midi": 79,
          "time": 131.25,
          "velocity": 0.8818897637795275,
          "duration": 0.37421875000001137
        },
        {
          "name": "G4",
          "midi": 67,
          "time": 131.625,
          "velocity": 0.8818897637795275,
          "duration": 0.37421875000001137
        },
        {
          "name": "F5",
          "midi": 77,
          "time": 131.625,
          "velocity": 0.8818897637795275,
          "duration": 0.37421875000001137
        },
        {
          "name": "A4",
          "midi": 69,
          "time": 132,
          "velocity": 1,
          "duration": 0.37421875000001137
        },
        {
          "name": "C5",
          "midi": 72,
          "time": 132,
          "velocity": 1,
          "duration": 0.37421875000001137
        },
        {
          "name": "E5",
          "midi": 76,
          "time": 132,
          "velocity": 1,
          "duration": 0.37421875000001137
        },
        {
          "name": "A4",
          "midi": 69,
          "time": 132.375,
          "velocity": 1,
          "duration": 0.37421875000001137
        },
        {
          "name": "C5",
          "midi": 72,
          "time": 132.375,
          "velocity": 1,
          "duration": 0.37421875000001137
        },
        {
          "name": "E5",
          "midi": 76,
          "time": 132.375,
          "velocity": 1,
          "duration": 0.37421875000001137
        },
        {
          "name": "G4",
          "midi": 67,
          "time": 132.75,
          "velocity": 1,
          "duration": 0.37421875000001137
        },
        {
          "name": "B4",
          "midi": 71,
          "time": 132.75,
          "velocity": 1,
          "duration": 0.37421875000001137
        },
        {
          "name": "D5",
          "midi": 74,
          "time": 132.75,
          "velocity": 1,
          "duration": 0.37421875000001137
        },
        {
          "name": "G4",
          "midi": 67,
          "time": 133.125,
          "velocity": 1,
          "duration": 0.18671875000001137
        },
        {
          "name": "B4",
          "midi": 71,
          "time": 133.125,
          "velocity": 1,
          "duration": 0.18671875000001137
        },
        {
          "name": "D5",
          "midi": 74,
          "time": 133.125,
          "velocity": 1,
          "duration": 0.18671875000001137
        },
        {
          "name": "G4",
          "midi": 67,
          "time": 133.3125,
          "velocity": 1,
          "duration": 0.37421875000001137
        },
        {
          "name": "B4",
          "midi": 71,
          "time": 133.3125,
          "velocity": 1,
          "duration": 0.37421875000001137
        },
        {
          "name": "D5",
          "midi": 74,
          "time": 133.3125,
          "velocity": 1,
          "duration": 0.37421875000001137
        },
        {
          "name": "E4",
          "midi": 64,
          "time": 133.6875,
          "velocity": 1,
          "duration": 0.5617187500000114
        },
        {
          "name": "A4",
          "midi": 69,
          "time": 133.6875,
          "velocity": 1,
          "duration": 0.5617187500000114
        },
        {
          "name": "C5",
          "midi": 72,
          "time": 133.6875,
          "velocity": 1,
          "duration": 0.5617187500000114
        },
        {
          "name": "A4",
          "midi": 69,
          "time": 134.625,
          "velocity": 0.8818897637795275,
          "duration": 0.18671875000001137
        },
        {
          "name": "C5",
          "midi": 72,
          "time": 134.8125,
          "velocity": 0.8818897637795275,
          "duration": 0.18671875000001137
        },
        {
          "name": "F4",
          "midi": 65,
          "time": 135,
          "velocity": 0.8818897637795275,
          "duration": 0.37421875000001137
        },
        {
          "name": "A4",
          "midi": 69,
          "time": 135,
          "velocity": 0.8818897637795275,
          "duration": 0.37421875000001137
        },
        {
          "name": "D5",
          "midi": 74,
          "time": 135,
          "velocity": 0.8818897637795275,
          "duration": 0.37421875000001137
        },
        {
          "name": "F4",
          "midi": 65,
          "time": 135.375,
          "velocity": 0.8818897637795275,
          "duration": 0.18671875000001137
        },
        {
          "name": "A4",
          "midi": 69,
          "time": 135.375,
          "velocity": 0.8818897637795275,
          "duration": 0.18671875000001137
        },
        {
          "name": "D5",
          "midi": 74,
          "time": 135.375,
          "velocity": 0.8818897637795275,
          "duration": 0.18671875000001137
        },
        {
          "name": "F4",
          "midi": 65,
          "time": 135.5625,
          "velocity": 0.8818897637795275,
          "duration": 0.18671875000001137
        },
        {
          "name": "A4",
          "midi": 69,
          "time": 135.5625,
          "velocity": 0.8818897637795275,
          "duration": 0.18671875000001137
        },
        {
          "name": "C5",
          "midi": 72,
          "time": 135.5625,
          "velocity": 0.8818897637795275,
          "duration": 0.18671875000001137
        },
        {
          "name": "G4",
          "midi": 67,
          "time": 135.75,
          "velocity": 0.8818897637795275,
          "duration": 0.37421875000001137
        },
        {
          "name": "B4",
          "midi": 71,
          "time": 135.75,
          "velocity": 0.8818897637795275,
          "duration": 0.37421875000001137
        },
        {
          "name": "D5",
          "midi": 74,
          "time": 135.75,
          "velocity": 0.8818897637795275,
          "duration": 0.37421875000001137
        },
        {
          "name": "B4",
          "midi": 71,
          "time": 136.125,
          "velocity": 0.8818897637795275,
          "duration": 0.18671875000001137
        },
        {
          "name": "D5",
          "midi": 74,
          "time": 136.125,
          "velocity": 0.8818897637795275,
          "duration": 0.18671875000001137
        },
        {
          "name": "G5",
          "midi": 79,
          "time": 136.125,
          "velocity": 0.8818897637795275,
          "duration": 0.18671875000001137
        },
        {
          "name": "A4",
          "midi": 69,
          "time": 136.3125,
          "velocity": 0.8818897637795275,
          "duration": 0.5617187500000114
        },
        {
          "name": "C5",
          "midi": 72,
          "time": 136.3125,
          "velocity": 0.8818897637795275,
          "duration": 0.5617187500000114
        },
        {
          "name": "E5",
          "midi": 76,
          "time": 136.3125,
          "velocity": 0.8818897637795275,
          "duration": 0.5617187500000114
        },
        {
          "name": "A4",
          "midi": 69,
          "time": 137.25,
          "velocity": 0.8818897637795275,
          "duration": 0.37421875000001137
        },
        {
          "name": "G5",
          "midi": 79,
          "time": 137.25,
          "velocity": 0.8818897637795275,
          "duration": 0.37421875000001137
        },
        {
          "name": "A4",
          "midi": 69,
          "time": 137.625,
          "velocity": 0.8818897637795275,
          "duration": 0.37421875000001137
        },
        {
          "name": "F5",
          "midi": 77,
          "time": 137.625,
          "velocity": 0.8818897637795275,
          "duration": 0.37421875000001137
        },
        {
          "name": "A4",
          "midi": 69,
          "time": 138,
          "velocity": 1,
          "duration": 0.37421875000001137
        },
        {
          "name": "C5",
          "midi": 72,
          "time": 138,
          "velocity": 1,
          "duration": 0.37421875000001137
        },
        {
          "name": "E5",
          "midi": 76,
          "time": 138,
          "velocity": 1,
          "duration": 0.37421875000001137
        },
        {
          "name": "A4",
          "midi": 69,
          "time": 138.375,
          "velocity": 1,
          "duration": 0.37421875000001137
        },
        {
          "name": "C5",
          "midi": 72,
          "time": 138.375,
          "velocity": 1,
          "duration": 0.37421875000001137
        },
        {
          "name": "E5",
          "midi": 76,
          "time": 138.375,
          "velocity": 1,
          "duration": 0.37421875000001137
        },
        {
          "name": "G4",
          "midi": 67,
          "time": 138.75,
          "velocity": 1,
          "duration": 0.37421875000001137
        },
        {
          "name": "B4",
          "midi": 71,
          "time": 138.75,
          "velocity": 1,
          "duration": 0.37421875000001137
        },
        {
          "name": "D5",
          "midi": 74,
          "time": 138.75,
          "velocity": 1,
          "duration": 0.37421875000001137
        },
        {
          "name": "G4",
          "midi": 67,
          "time": 139.125,
          "velocity": 1,
          "duration": 0.18671875000001137
        },
        {
          "name": "B4",
          "midi": 71,
          "time": 139.125,
          "velocity": 1,
          "duration": 0.18671875000001137
        },
        {
          "name": "D5",
          "midi": 74,
          "time": 139.125,
          "velocity": 1,
          "duration": 0.18671875000001137
        },
        {
          "name": "G4",
          "midi": 67,
          "time": 139.3125,
          "velocity": 1,
          "duration": 0.37421875000001137
        },
        {
          "name": "B4",
          "midi": 71,
          "time": 139.3125,
          "velocity": 1,
          "duration": 0.37421875000001137
        },
        {
          "name": "D5",
          "midi": 74,
          "time": 139.3125,
          "velocity": 1,
          "duration": 0.37421875000001137
        },
        {
          "name": "E4",
          "midi": 64,
          "time": 139.6875,
          "velocity": 1,
          "duration": 0.5617187500000114
        },
        {
          "name": "A4",
          "midi": 69,
          "time": 139.6875,
          "velocity": 1,
          "duration": 0.5617187500000114
        },
        {
          "name": "C5",
          "midi": 72,
          "time": 139.6875,
          "velocity": 1,
          "duration": 0.5617187500000114
        },
        {
          "name": "F4",
          "midi": 65,
          "time": 140.8125,
          "velocity": 0.8818897637795275,
          "duration": 0.37421875000001137
        },
        {
          "name": "A4",
          "midi": 69,
          "time": 140.8125,
          "velocity": 0.8818897637795275,
          "duration": 0.37421875000001137
        },
        {
          "name": "D5",
          "midi": 74,
          "time": 140.8125,
          "velocity": 0.8818897637795275,
          "duration": 0.37421875000001137
        },
        {
          "name": "F4",
          "midi": 65,
          "time": 141.1875,
          "velocity": 0.8818897637795275,
          "duration": 0.18671875000001137
        },
        {
          "name": "A4",
          "midi": 69,
          "time": 141.1875,
          "velocity": 0.8818897637795275,
          "duration": 0.18671875000001137
        },
        {
          "name": "C5",
          "midi": 72,
          "time": 141.1875,
          "velocity": 0.8818897637795275,
          "duration": 0.18671875000001137
        },
        {
          "name": "F4",
          "midi": 65,
          "time": 141.375,
          "velocity": 0.8818897637795275,
          "duration": 0.18671875000001137
        },
        {
          "name": "A4",
          "midi": 69,
          "time": 141.375,
          "velocity": 0.8818897637795275,
          "duration": 0.18671875000001137
        },
        {
          "name": "D5",
          "midi": 74,
          "time": 141.375,
          "velocity": 0.8818897637795275,
          "duration": 0.18671875000001137
        },
        {
          "name": "F4",
          "midi": 65,
          "time": 141.5625,
          "velocity": 0.8818897637795275,
          "duration": 0.18671875000001137
        },
        {
          "name": "A4",
          "midi": 69,
          "time": 141.5625,
          "velocity": 0.8818897637795275,
          "duration": 0.18671875000001137
        },
        {
          "name": "C5",
          "midi": 72,
          "time": 141.5625,
          "velocity": 0.8818897637795275,
          "duration": 0.18671875000001137
        },
        {
          "name": "F4",
          "midi": 65,
          "time": 141.75,
          "velocity": 0.8818897637795275,
          "duration": 0.37421875000001137
        },
        {
          "name": "A4",
          "midi": 69,
          "time": 141.75,
          "velocity": 0.8818897637795275,
          "duration": 0.37421875000001137
        },
        {
          "name": "D5",
          "midi": 74,
          "time": 141.75,
          "velocity": 0.8818897637795275,
          "duration": 0.37421875000001137
        },
        {
          "name": "G4",
          "midi": 67,
          "time": 142.3125,
          "velocity": 0.8818897637795275,
          "duration": 0.37421875000001137
        },
        {
          "name": "E5",
          "midi": 76,
          "time": 142.3125,
          "velocity": 0.8818897637795275,
          "duration": 0.37421875000001137
        },
        {
          "name": "G4",
          "midi": 67,
          "time": 142.6875,
          "velocity": 0.8818897637795275,
          "duration": 0.18671875000001137
        },
        {
          "name": "D5",
          "midi": 74,
          "time": 142.6875,
          "velocity": 0.8818897637795275,
          "duration": 0.18671875000001137
        },
        {
          "name": "G4",
          "midi": 67,
          "time": 142.875,
          "velocity": 0.8818897637795275,
          "duration": 0.18671875000001137
        },
        {
          "name": "E5",
          "midi": 76,
          "time": 142.875,
          "velocity": 0.8818897637795275,
          "duration": 0.18671875000001137
        },
        {
          "name": "G4",
          "midi": 67,
          "time": 143.0625,
          "velocity": 0.8818897637795275,
          "duration": 0.18671875000001137
        },
        {
          "name": "D5",
          "midi": 74,
          "time": 143.0625,
          "velocity": 0.8818897637795275,
          "duration": 0.18671875000001137
        },
        {
          "name": "G#4",
          "midi": 68,
          "time": 143.25,
          "velocity": 0.8818897637795275,
          "duration": 0.7492187500000114
        },
        {
          "name": "B4",
          "midi": 71,
          "time": 143.25,
          "velocity": 0.8818897637795275,
          "duration": 0.7492187500000114
        },
        {
          "name": "E5",
          "midi": 76,
          "time": 143.25,
          "velocity": 0.8818897637795275,
          "duration": 0.7492187500000114
        },
        {
          "name": "A4",
          "midi": 69,
          "time": 144,
          "velocity": 0.8818897637795275,
          "duration": 0.09296875000001137
        },
        {
          "name": "E4",
          "midi": 64,
          "time": 144.09375,
          "velocity": 0.8818897637795275,
          "duration": 0.09296875000001137
        },
        {
          "name": "A4",
          "midi": 69,
          "time": 144.1875,
          "velocity": 0.8818897637795275,
          "duration": 0.09296875000001137
        },
        {
          "name": "E5",
          "midi": 76,
          "time": 144.28125,
          "velocity": 0.8818897637795275,
          "duration": 0.09296875000001137
        },
        {
          "name": "D5",
          "midi": 74,
          "time": 144.375,
          "velocity": 0.8818897637795275,
          "duration": 0.09296875000001137
        },
        {
          "name": "C5",
          "midi": 72,
          "time": 144.46875,
          "velocity": 0.8818897637795275,
          "duration": 0.09296875000001137
        },
        {
          "name": "G4",
          "midi": 67,
          "time": 144.5625,
          "velocity": 0.8818897637795275,
          "duration": 0.18671875000001137
        },
        {
          "name": "A4",
          "midi": 69,
          "time": 144.75,
          "velocity": 0.8818897637795275,
          "duration": 0.09296875000001137
        },
        {
          "name": "E4",
          "midi": 64,
          "time": 144.84375,
          "velocity": 0.8818897637795275,
          "duration": 0.09296875000001137
        },
        {
          "name": "A4",
          "midi": 69,
          "time": 144.9375,
          "velocity": 0.8818897637795275,
          "duration": 0.09296875000001137
        },
        {
          "name": "E5",
          "midi": 76,
          "time": 145.03125,
          "velocity": 0.8818897637795275,
          "duration": 0.09296875000001137
        },
        {
          "name": "D5",
          "midi": 74,
          "time": 145.125,
          "velocity": 0.8818897637795275,
          "duration": 0.09296875000001137
        },
        {
          "name": "C5",
          "midi": 72,
          "time": 145.21875,
          "velocity": 0.8818897637795275,
          "duration": 0.09296875000001137
        },
        {
          "name": "G4",
          "midi": 67,
          "time": 145.3125,
          "velocity": 0.8818897637795275,
          "duration": 0.18671875000001137
        },
        {
          "name": "C5",
          "midi": 72,
          "time": 145.5,
          "velocity": 0.8818897637795275,
          "duration": 0.09296875000001137
        },
        {
          "name": "B4",
          "midi": 71,
          "time": 145.59375,
          "velocity": 0.8818897637795275,
          "duration": 0.09296875000001137
        },
        {
          "name": "G4",
          "midi": 67,
          "time": 145.6875,
          "velocity": 0.8818897637795275,
          "duration": 0.09296875000001137
        },
        {
          "name": "C5",
          "midi": 72,
          "time": 145.78125,
          "velocity": 0.8818897637795275,
          "duration": 0.18671875000001137
        },
        {
          "name": "B4",
          "midi": 71,
          "time": 145.96875,
          "velocity": 0.8818897637795275,
          "duration": 0.09296875000001137
        },
        {
          "name": "G4",
          "midi": 67,
          "time": 146.0625,
          "velocity": 0.8818897637795275,
          "duration": 0.18671875000001137
        },
        {
          "name": "C5",
          "midi": 72,
          "time": 146.25,
          "velocity": 0.8818897637795275,
          "duration": 0.09296875000001137
        },
        {
          "name": "B4",
          "midi": 71,
          "time": 146.34375,
          "velocity": 0.8818897637795275,
          "duration": 0.09296875000001137
        },
        {
          "name": "G4",
          "midi": 67,
          "time": 146.4375,
          "velocity": 0.8818897637795275,
          "duration": 0.09296875000001137
        },
        {
          "name": "D5",
          "midi": 74,
          "time": 146.53125,
          "velocity": 0.8818897637795275,
          "duration": 0.18671875000001137
        },
        {
          "name": "B4",
          "midi": 71,
          "time": 146.71875,
          "velocity": 0.8818897637795275,
          "duration": 0.09296875000001137
        },
        {
          "name": "G4",
          "midi": 67,
          "time": 146.8125,
          "velocity": 0.8818897637795275,
          "duration": 0.18671875000001137
        },
        {
          "name": "A4",
          "midi": 69,
          "time": 147,
          "velocity": 0.8818897637795275,
          "duration": 0.09296875000001137
        },
        {
          "name": "E4",
          "midi": 64,
          "time": 147.09375,
          "velocity": 0.8818897637795275,
          "duration": 0.09296875000001137
        },
        {
          "name": "A4",
          "midi": 69,
          "time": 147.1875,
          "velocity": 0.8818897637795275,
          "duration": 0.09296875000001137
        },
        {
          "name": "E5",
          "midi": 76,
          "time": 147.28125,
          "velocity": 0.8818897637795275,
          "duration": 0.09296875000001137
        },
        {
          "name": "D5",
          "midi": 74,
          "time": 147.375,
          "velocity": 0.8818897637795275,
          "duration": 0.09296875000001137
        },
        {
          "name": "C5",
          "midi": 72,
          "time": 147.46875,
          "velocity": 0.8818897637795275,
          "duration": 0.09296875000001137
        },
        {
          "name": "G4",
          "midi": 67,
          "time": 147.5625,
          "velocity": 0.8818897637795275,
          "duration": 0.18671875000001137
        },
        {
          "name": "A4",
          "midi": 69,
          "time": 147.75,
          "velocity": 0.8818897637795275,
          "duration": 0.09296875000001137
        },
        {
          "name": "E4",
          "midi": 64,
          "time": 147.84375,
          "velocity": 0.8818897637795275,
          "duration": 0.09296875000001137
        },
        {
          "name": "A4",
          "midi": 69,
          "time": 147.9375,
          "velocity": 0.8818897637795275,
          "duration": 0.09296875000001137
        },
        {
          "name": "E5",
          "midi": 76,
          "time": 148.03125,
          "velocity": 0.8818897637795275,
          "duration": 0.09296875000001137
        },
        {
          "name": "D5",
          "midi": 74,
          "time": 148.125,
          "velocity": 0.8818897637795275,
          "duration": 0.09296875000001137
        },
        {
          "name": "C5",
          "midi": 72,
          "time": 148.21875,
          "velocity": 0.8818897637795275,
          "duration": 0.09296875000001137
        },
        {
          "name": "G4",
          "midi": 67,
          "time": 148.3125,
          "velocity": 0.8818897637795275,
          "duration": 0.18671875000001137
        },
        {
          "name": "A4",
          "midi": 69,
          "time": 148.5,
          "velocity": 0.8818897637795275,
          "duration": 0.09296875000001137
        },
        {
          "name": "C5",
          "midi": 72,
          "time": 148.5,
          "velocity": 0.8818897637795275,
          "duration": 0.09296875000001137
        },
        {
          "name": "A4",
          "midi": 69,
          "time": 148.59375,
          "velocity": 0.8818897637795275,
          "duration": 0.18671875000001137
        },
        {
          "name": "C5",
          "midi": 72,
          "time": 148.59375,
          "velocity": 0.8818897637795275,
          "duration": 0.18671875000001137
        },
        {
          "name": "A4",
          "midi": 69,
          "time": 148.78125,
          "velocity": 0.8818897637795275,
          "duration": 0.09296875000001137
        },
        {
          "name": "C5",
          "midi": 72,
          "time": 148.78125,
          "velocity": 0.8818897637795275,
          "duration": 0.09296875000001137
        },
        {
          "name": "B4",
          "midi": 71,
          "time": 148.875,
          "velocity": 0.8818897637795275,
          "duration": 0.18671875000001137
        },
        {
          "name": "D5",
          "midi": 74,
          "time": 148.875,
          "velocity": 0.8818897637795275,
          "duration": 0.18671875000001137
        },
        {
          "name": "B4",
          "midi": 71,
          "time": 149.0625,
          "velocity": 0.8818897637795275,
          "duration": 0.18671875000001137
        },
        {
          "name": "D5",
          "midi": 74,
          "time": 149.0625,
          "velocity": 0.8818897637795275,
          "duration": 0.18671875000001137
        },
        {
          "name": "C5",
          "midi": 72,
          "time": 149.25,
          "velocity": 0.8818897637795275,
          "duration": 0.09296875000001137
        },
        {
          "name": "E5",
          "midi": 76,
          "time": 149.25,
          "velocity": 0.8818897637795275,
          "duration": 0.09296875000001137
        },
        {
          "name": "C5",
          "midi": 72,
          "time": 149.34375,
          "velocity": 0.8818897637795275,
          "duration": 0.18671875000001137
        },
        {
          "name": "E5",
          "midi": 76,
          "time": 149.34375,
          "velocity": 0.8818897637795275,
          "duration": 0.18671875000001137
        },
        {
          "name": "C5",
          "midi": 72,
          "time": 149.53125,
          "velocity": 0.8818897637795275,
          "duration": 0.09296875000001137
        },
        {
          "name": "E5",
          "midi": 76,
          "time": 149.53125,
          "velocity": 0.8818897637795275,
          "duration": 0.09296875000001137
        },
        {
          "name": "B4",
          "midi": 71,
          "time": 149.625,
          "velocity": 0.8818897637795275,
          "duration": 0.18671875000001137
        },
        {
          "name": "D5",
          "midi": 74,
          "time": 149.625,
          "velocity": 0.8818897637795275,
          "duration": 0.18671875000001137
        },
        {
          "name": "B4",
          "midi": 71,
          "time": 149.8125,
          "velocity": 0.8818897637795275,
          "duration": 0.18671875000001137
        },
        {
          "name": "D5",
          "midi": 74,
          "time": 149.8125,
          "velocity": 0.8818897637795275,
          "duration": 0.18671875000001137
        },
        {
          "name": "A4",
          "midi": 69,
          "time": 150,
          "velocity": 0.8818897637795275,
          "duration": 0.09296875000001137
        },
        {
          "name": "E4",
          "midi": 64,
          "time": 150.09375,
          "velocity": 0.8818897637795275,
          "duration": 0.09296875000001137
        },
        {
          "name": "A4",
          "midi": 69,
          "time": 150.1875,
          "velocity": 0.8818897637795275,
          "duration": 0.09296875000001137
        },
        {
          "name": "E5",
          "midi": 76,
          "time": 150.28125,
          "velocity": 0.8818897637795275,
          "duration": 0.09296875000001137
        },
        {
          "name": "D5",
          "midi": 74,
          "time": 150.375,
          "velocity": 0.8818897637795275,
          "duration": 0.09296875000001137
        },
        {
          "name": "C5",
          "midi": 72,
          "time": 150.46875,
          "velocity": 0.8818897637795275,
          "duration": 0.09296875000001137
        },
        {
          "name": "G4",
          "midi": 67,
          "time": 150.5625,
          "velocity": 0.8818897637795275,
          "duration": 0.18671875000001137
        },
        {
          "name": "A4",
          "midi": 69,
          "time": 150.75,
          "velocity": 0.8818897637795275,
          "duration": 0.09296875000001137
        },
        {
          "name": "E4",
          "midi": 64,
          "time": 150.84375,
          "velocity": 0.8818897637795275,
          "duration": 0.09296875000001137
        },
        {
          "name": "A4",
          "midi": 69,
          "time": 150.9375,
          "velocity": 0.8818897637795275,
          "duration": 0.09296875000001137
        },
        {
          "name": "E5",
          "midi": 76,
          "time": 151.03125,
          "velocity": 0.8818897637795275,
          "duration": 0.09296875000001137
        },
        {
          "name": "D5",
          "midi": 74,
          "time": 151.125,
          "velocity": 0.8818897637795275,
          "duration": 0.09296875000001137
        },
        {
          "name": "C5",
          "midi": 72,
          "time": 151.21875,
          "velocity": 0.8818897637795275,
          "duration": 0.09296875000001137
        },
        {
          "name": "G4",
          "midi": 67,
          "time": 151.3125,
          "velocity": 0.8818897637795275,
          "duration": 0.18671875000001137
        },
        {
          "name": "C5",
          "midi": 72,
          "time": 151.5,
          "velocity": 0.8818897637795275,
          "duration": 0.09296875000001137
        },
        {
          "name": "B4",
          "midi": 71,
          "time": 151.59375,
          "velocity": 0.8818897637795275,
          "duration": 0.09296875000001137
        },
        {
          "name": "G4",
          "midi": 67,
          "time": 151.6875,
          "velocity": 0.8818897637795275,
          "duration": 0.09296875000001137
        },
        {
          "name": "C5",
          "midi": 72,
          "time": 151.78125,
          "velocity": 0.8818897637795275,
          "duration": 0.18671875000001137
        },
        {
          "name": "B4",
          "midi": 71,
          "time": 151.96875,
          "velocity": 0.8818897637795275,
          "duration": 0.09296875000001137
        },
        {
          "name": "G4",
          "midi": 67,
          "time": 152.0625,
          "velocity": 0.8818897637795275,
          "duration": 0.18671875000001137
        },
        {
          "name": "C5",
          "midi": 72,
          "time": 152.25,
          "velocity": 0.8818897637795275,
          "duration": 0.09296875000001137
        },
        {
          "name": "B4",
          "midi": 71,
          "time": 152.34375,
          "velocity": 0.8818897637795275,
          "duration": 0.09296875000001137
        },
        {
          "name": "G4",
          "midi": 67,
          "time": 152.4375,
          "velocity": 0.8818897637795275,
          "duration": 0.09296875000001137
        },
        {
          "name": "D5",
          "midi": 74,
          "time": 152.53125,
          "velocity": 0.8818897637795275,
          "duration": 0.18671875000001137
        },
        {
          "name": "B4",
          "midi": 71,
          "time": 152.71875,
          "velocity": 0.8818897637795275,
          "duration": 0.09296875000001137
        },
        {
          "name": "G4",
          "midi": 67,
          "time": 152.8125,
          "velocity": 0.8818897637795275,
          "duration": 0.18671875000001137
        },
        {
          "name": "A4",
          "midi": 69,
          "time": 153,
          "velocity": 0.8818897637795275,
          "duration": 0.09296875000001137
        },
        {
          "name": "E4",
          "midi": 64,
          "time": 153.09375,
          "velocity": 0.8818897637795275,
          "duration": 0.09296875000001137
        },
        {
          "name": "A4",
          "midi": 69,
          "time": 153.1875,
          "velocity": 0.8818897637795275,
          "duration": 0.09296875000001137
        },
        {
          "name": "E5",
          "midi": 76,
          "time": 153.28125,
          "velocity": 0.8818897637795275,
          "duration": 0.09296875000001137
        },
        {
          "name": "D5",
          "midi": 74,
          "time": 153.375,
          "velocity": 0.8818897637795275,
          "duration": 0.09296875000001137
        },
        {
          "name": "C5",
          "midi": 72,
          "time": 153.46875,
          "velocity": 0.8818897637795275,
          "duration": 0.09296875000001137
        },
        {
          "name": "G4",
          "midi": 67,
          "time": 153.5625,
          "velocity": 0.8818897637795275,
          "duration": 0.18671875000001137
        },
        {
          "name": "A4",
          "midi": 69,
          "time": 153.75,
          "velocity": 0.8818897637795275,
          "duration": 0.09296875000001137
        },
        {
          "name": "E4",
          "midi": 64,
          "time": 153.84375,
          "velocity": 0.8818897637795275,
          "duration": 0.09296875000001137
        },
        {
          "name": "A4",
          "midi": 69,
          "time": 153.9375,
          "velocity": 0.8818897637795275,
          "duration": 0.09296875000001137
        },
        {
          "name": "E5",
          "midi": 76,
          "time": 154.03125,
          "velocity": 0.8818897637795275,
          "duration": 0.09296875000001137
        },
        {
          "name": "D5",
          "midi": 74,
          "time": 154.125,
          "velocity": 0.8818897637795275,
          "duration": 0.09296875000001137
        },
        {
          "name": "C5",
          "midi": 72,
          "time": 154.21875,
          "velocity": 0.8818897637795275,
          "duration": 0.09296875000001137
        },
        {
          "name": "G4",
          "midi": 67,
          "time": 154.3125,
          "velocity": 0.8818897637795275,
          "duration": 0.18671875000001137
        },
        {
          "name": "C5",
          "midi": 72,
          "time": 154.5,
          "velocity": 0.6299212598425197,
          "duration": 0.18671875000001137
        },
        {
          "name": "E5",
          "midi": 76,
          "time": 154.5,
          "velocity": 0.6299212598425197,
          "duration": 0.18671875000001137
        },
        {
          "name": "B4",
          "midi": 71,
          "time": 154.6875,
          "velocity": 0.6299212598425197,
          "duration": 0.18671875000001137
        },
        {
          "name": "D#5",
          "midi": 75,
          "time": 154.6875,
          "velocity": 0.6299212598425197,
          "duration": 0.18671875000001137
        },
        {
          "name": "A#4",
          "midi": 70,
          "time": 154.875,
          "velocity": 0.6299212598425197,
          "duration": 0.18671875000001137
        },
        {
          "name": "D5",
          "midi": 74,
          "time": 154.875,
          "velocity": 0.6299212598425197,
          "duration": 0.18671875000001137
        },
        {
          "name": "A4",
          "midi": 69,
          "time": 155.0625,
          "velocity": 0.6299212598425197,
          "duration": 0.18671875000001137
        },
        {
          "name": "C#5",
          "midi": 73,
          "time": 155.0625,
          "velocity": 0.6299212598425197,
          "duration": 0.18671875000001137
        },
        {
          "name": "G#4",
          "midi": 68,
          "time": 155.25,
          "velocity": 0.6299212598425197,
          "duration": 0.18671875000001137
        },
        {
          "name": "C5",
          "midi": 72,
          "time": 155.25,
          "velocity": 0.6299212598425197,
          "duration": 0.18671875000001137
        },
        {
          "name": "A4",
          "midi": 69,
          "time": 155.4375,
          "velocity": 0.6299212598425197,
          "duration": 0.18671875000001137
        },
        {
          "name": "C#5",
          "midi": 73,
          "time": 155.4375,
          "velocity": 0.6299212598425197,
          "duration": 0.18671875000001137
        },
        {
          "name": "A#4",
          "midi": 70,
          "time": 155.625,
          "velocity": 0.6299212598425197,
          "duration": 0.18671875000001137
        },
        {
          "name": "D5",
          "midi": 74,
          "time": 155.625,
          "velocity": 0.6299212598425197,
          "duration": 0.18671875000001137
        },
        {
          "name": "B4",
          "midi": 71,
          "time": 155.8125,
          "velocity": 0.6299212598425197,
          "duration": 0.18671875000001137
        },
        {
          "name": "D#5",
          "midi": 75,
          "time": 155.8125,
          "velocity": 0.6299212598425197,
          "duration": 0.18671875000001137
        },
        {
          "name": "A4",
          "midi": 69,
          "time": 156.375,
          "velocity": 0.3858267716535433,
          "duration": 0.18671875000001137
        },
        {
          "name": "A5",
          "midi": 81,
          "time": 156.5625,
          "velocity": 0.3858267716535433,
          "duration": 0.18671875000001137
        },
        {
          "name": "A4",
          "midi": 69,
          "time": 157.125,
          "velocity": 0.3858267716535433,
          "duration": 0.18671875000001137
        },
        {
          "name": "A5",
          "midi": 81,
          "time": 157.3125,
          "velocity": 0.3858267716535433,
          "duration": 0.18671875000001137
        }
      ],
      "controlChanges": {
        "7": [
          {
            "number": 7,
            "time": 0,
            "value": 0.7874015748031497
          }
        ],
        "10": [
          {
            "number": 10,
            "time": 0,
            "value": 0.5039370078740157
          }
        ],
        "91": [
          {
            "number": 91,
            "time": 0,
            "value": 0.23622047244094488
          }
        ],
        "93": [
          {
            "number": 93,
            "time": 0,
            "value": 0.23622047244094488
          }
        ],
        "121": [
          {
            "number": 121,
            "time": 0,
            "value": 0
          }
        ]
      },
      "id": 0,
      "instrumentNumber": 0,
      "instrument": "acoustic grand piano",
      "instrumentFamily": "piano",
      "channelNumber": 0,
      "isPercussion": false
    },
    {
      "startTime": 0.375,
      "duration": 157.12421875,
      "length": 797,
      "notes": [
        {
          "name": "A2",
          "midi": 45,
          "time": 0.375,
          "velocity": 0.6299212598425197,
          "duration": 0.37421875000000004
        },
        {
          "name": "A3",
          "midi": 57,
          "time": 0.375,
          "velocity": 0.6299212598425197,
          "duration": 0.37421875000000004
        },
        {
          "name": "A2",
          "midi": 45,
          "time": 1.125,
          "velocity": 0.6299212598425197,
          "duration": 0.37421875000000004
        },
        {
          "name": "A3",
          "midi": 57,
          "time": 1.125,
          "velocity": 0.6299212598425197,
          "duration": 0.37421875000000004
        },
        {
          "name": "A2",
          "midi": 45,
          "time": 1.875,
          "velocity": 0.6299212598425197,
          "duration": 0.3742187499999998
        },
        {
          "name": "A3",
          "midi": 57,
          "time": 1.875,
          "velocity": 0.6299212598425197,
          "duration": 0.3742187499999998
        },
        {
          "name": "A2",
          "midi": 45,
          "time": 2.625,
          "velocity": 0.6299212598425197,
          "duration": 0.3742187499999998
        },
        {
          "name": "A3",
          "midi": 57,
          "time": 2.625,
          "velocity": 0.6299212598425197,
          "duration": 0.3742187499999998
        },
        {
          "name": "A2",
          "midi": 45,
          "time": 3.375,
          "velocity": 0.6299212598425197,
          "duration": 0.3742187499999998
        },
        {
          "name": "A3",
          "midi": 57,
          "time": 3.375,
          "velocity": 0.6299212598425197,
          "duration": 0.3742187499999998
        },
        {
          "name": "A2",
          "midi": 45,
          "time": 4.125,
          "velocity": 0.6299212598425197,
          "duration": 0.3742187499999998
        },
        {
          "name": "A3",
          "midi": 57,
          "time": 4.125,
          "velocity": 0.6299212598425197,
          "duration": 0.3742187499999998
        },
        {
          "name": "A2",
          "midi": 45,
          "time": 4.875,
          "velocity": 0.6299212598425197,
          "duration": 0.3742187499999998
        },
        {
          "name": "A3",
          "midi": 57,
          "time": 4.875,
          "velocity": 0.6299212598425197,
          "duration": 0.3742187499999998
        },
        {
          "name": "A2",
          "midi": 45,
          "time": 5.625,
          "velocity": 0.6299212598425197,
          "duration": 0.3742187499999998
        },
        {
          "name": "A3",
          "midi": 57,
          "time": 5.625,
          "velocity": 0.6299212598425197,
          "duration": 0.3742187499999998
        },
        {
          "name": "A2",
          "midi": 45,
          "time": 6.375,
          "velocity": 0.6299212598425197,
          "duration": 0.3742187499999998
        },
        {
          "name": "A3",
          "midi": 57,
          "time": 6.375,
          "velocity": 0.6299212598425197,
          "duration": 0.3742187499999998
        },
        {
          "name": "A2",
          "midi": 45,
          "time": 7.125,
          "velocity": 0.6299212598425197,
          "duration": 0.3742187499999998
        },
        {
          "name": "A3",
          "midi": 57,
          "time": 7.125,
          "velocity": 0.6299212598425197,
          "duration": 0.3742187499999998
        },
        {
          "name": "A2",
          "midi": 45,
          "time": 7.875,
          "velocity": 0.6299212598425197,
          "duration": 0.3742187500000007
        },
        {
          "name": "A3",
          "midi": 57,
          "time": 7.875,
          "velocity": 0.6299212598425197,
          "duration": 0.3742187500000007
        },
        {
          "name": "A2",
          "midi": 45,
          "time": 8.625,
          "velocity": 0.6299212598425197,
          "duration": 0.3742187500000007
        },
        {
          "name": "A3",
          "midi": 57,
          "time": 8.625,
          "velocity": 0.6299212598425197,
          "duration": 0.3742187500000007
        },
        {
          "name": "A2",
          "midi": 45,
          "time": 9.375,
          "velocity": 0.6299212598425197,
          "duration": 0.3742187500000007
        },
        {
          "name": "A3",
          "midi": 57,
          "time": 9.375,
          "velocity": 0.6299212598425197,
          "duration": 0.3742187500000007
        },
        {
          "name": "A2",
          "midi": 45,
          "time": 10.125,
          "velocity": 0.6299212598425197,
          "duration": 0.3742187500000007
        },
        {
          "name": "A3",
          "midi": 57,
          "time": 10.125,
          "velocity": 0.6299212598425197,
          "duration": 0.3742187500000007
        },
        {
          "name": "A2",
          "midi": 45,
          "time": 10.875,
          "velocity": 0.6299212598425197,
          "duration": 0.3742187500000007
        },
        {
          "name": "A3",
          "midi": 57,
          "time": 10.875,
          "velocity": 0.6299212598425197,
          "duration": 0.3742187500000007
        },
        {
          "name": "A2",
          "midi": 45,
          "time": 11.625,
          "velocity": 0.6299212598425197,
          "duration": 0.3742187500000007
        },
        {
          "name": "A3",
          "midi": 57,
          "time": 11.625,
          "velocity": 0.6299212598425197,
          "duration": 0.3742187500000007
        },
        {
          "name": "F3",
          "midi": 53,
          "time": 12,
          "velocity": 0.6299212598425197,
          "duration": 0.7492187500000007
        },
        {
          "name": "G3",
          "midi": 55,
          "time": 12.75,
          "velocity": 0.6299212598425197,
          "duration": 0.7492187500000007
        },
        {
          "name": "A3",
          "midi": 57,
          "time": 13.5,
          "velocity": 0.6299212598425197,
          "duration": 0.7492187500000007
        },
        {
          "name": "A3",
          "midi": 57,
          "time": 14.25,
          "velocity": 0.6299212598425197,
          "duration": 0.3742187500000007
        },
        {
          "name": "G3",
          "midi": 55,
          "time": 14.625,
          "velocity": 0.6299212598425197,
          "duration": 0.3742187500000007
        },
        {
          "name": "F3",
          "midi": 53,
          "time": 15,
          "velocity": 0.6299212598425197,
          "duration": 0.7492187500000007
        },
        {
          "name": "G3",
          "midi": 55,
          "time": 15.75,
          "velocity": 0.6299212598425197,
          "duration": 0.7492187500000007
        },
        {
          "name": "A3",
          "midi": 57,
          "time": 16.5,
          "velocity": 0.6299212598425197,
          "duration": 0.7492187500000007
        },
        {
          "name": "A3",
          "midi": 57,
          "time": 17.25,
          "velocity": 0.6299212598425197,
          "duration": 0.3742187500000007
        },
        {
          "name": "G3",
          "midi": 55,
          "time": 17.625,
          "velocity": 0.6299212598425197,
          "duration": 0.3742187500000007
        },
        {
          "name": "F3",
          "midi": 53,
          "time": 18,
          "velocity": 0.6299212598425197,
          "duration": 0.7492187500000007
        },
        {
          "name": "G3",
          "midi": 55,
          "time": 18.75,
          "velocity": 0.6299212598425197,
          "duration": 0.7492187500000007
        },
        {
          "name": "A3",
          "midi": 57,
          "time": 19.5,
          "velocity": 0.6299212598425197,
          "duration": 0.7492187500000007
        },
        {
          "name": "A3",
          "midi": 57,
          "time": 20.25,
          "velocity": 0.6299212598425197,
          "duration": 0.3742187500000007
        },
        {
          "name": "G3",
          "midi": 55,
          "time": 20.625,
          "velocity": 0.6299212598425197,
          "duration": 0.3742187500000007
        },
        {
          "name": "D3",
          "midi": 50,
          "time": 21,
          "velocity": 0.6299212598425197,
          "duration": 0.7492187500000007
        },
        {
          "name": "D3",
          "midi": 50,
          "time": 21.75,
          "velocity": 0.6299212598425197,
          "duration": 0.7492187500000007
        },
        {
          "name": "C3",
          "midi": 48,
          "time": 22.5,
          "velocity": 0.6299212598425197,
          "duration": 0.1867187500000007
        },
        {
          "name": "E3",
          "midi": 52,
          "time": 22.5,
          "velocity": 0.6299212598425197,
          "duration": 0.1867187500000007
        },
        {
          "name": "B2",
          "midi": 47,
          "time": 22.6875,
          "velocity": 0.6299212598425197,
          "duration": 0.1867187500000007
        },
        {
          "name": "D#3",
          "midi": 51,
          "time": 22.6875,
          "velocity": 0.6299212598425197,
          "duration": 0.1867187500000007
        },
        {
          "name": "A#2",
          "midi": 46,
          "time": 22.875,
          "velocity": 0.6299212598425197,
          "duration": 0.1867187500000007
        },
        {
          "name": "D3",
          "midi": 50,
          "time": 22.875,
          "velocity": 0.6299212598425197,
          "duration": 0.1867187500000007
        },
        {
          "name": "A2",
          "midi": 45,
          "time": 23.0625,
          "velocity": 0.6299212598425197,
          "duration": 0.1867187500000007
        },
        {
          "name": "C#3",
          "midi": 49,
          "time": 23.0625,
          "velocity": 0.6299212598425197,
          "duration": 0.1867187500000007
        },
        {
          "name": "G#2",
          "midi": 44,
          "time": 23.25,
          "velocity": 0.6299212598425197,
          "duration": 0.1867187500000007
        },
        {
          "name": "C3",
          "midi": 48,
          "time": 23.25,
          "velocity": 0.6299212598425197,
          "duration": 0.1867187500000007
        },
        {
          "name": "A2",
          "midi": 45,
          "time": 23.4375,
          "velocity": 0.6299212598425197,
          "duration": 0.1867187500000007
        },
        {
          "name": "C#3",
          "midi": 49,
          "time": 23.4375,
          "velocity": 0.6299212598425197,
          "duration": 0.1867187500000007
        },
        {
          "name": "A#2",
          "midi": 46,
          "time": 23.625,
          "velocity": 0.6299212598425197,
          "duration": 0.1867187500000007
        },
        {
          "name": "D3",
          "midi": 50,
          "time": 23.625,
          "velocity": 0.6299212598425197,
          "duration": 0.1867187500000007
        },
        {
          "name": "B2",
          "midi": 47,
          "time": 23.8125,
          "velocity": 0.6299212598425197,
          "duration": 0.1867187500000007
        },
        {
          "name": "D#3",
          "midi": 51,
          "time": 23.8125,
          "velocity": 0.6299212598425197,
          "duration": 0.1867187500000007
        },
        {
          "name": "F2",
          "midi": 41,
          "time": 24,
          "velocity": 0.7559055118110236,
          "duration": 0.3742187500000007
        },
        {
          "name": "F3",
          "midi": 53,
          "time": 24,
          "velocity": 0.7559055118110236,
          "duration": 0.3742187500000007
        },
        {
          "name": "F2",
          "midi": 41,
          "time": 24.375,
          "velocity": 0.7559055118110236,
          "duration": 0.3742187500000007
        },
        {
          "name": "F3",
          "midi": 53,
          "time": 24.375,
          "velocity": 0.7559055118110236,
          "duration": 0.3742187500000007
        },
        {
          "name": "G2",
          "midi": 43,
          "time": 24.75,
          "velocity": 0.7559055118110236,
          "duration": 0.3742187500000007
        },
        {
          "name": "G3",
          "midi": 55,
          "time": 24.75,
          "velocity": 0.7559055118110236,
          "duration": 0.3742187500000007
        },
        {
          "name": "G2",
          "midi": 43,
          "time": 25.125,
          "velocity": 0.7559055118110236,
          "duration": 0.3742187500000007
        },
        {
          "name": "G3",
          "midi": 55,
          "time": 25.125,
          "velocity": 0.7559055118110236,
          "duration": 0.3742187500000007
        },
        {
          "name": "A2",
          "midi": 45,
          "time": 25.5,
          "velocity": 0.7559055118110236,
          "duration": 0.3742187500000007
        },
        {
          "name": "A3",
          "midi": 57,
          "time": 25.5,
          "velocity": 0.7559055118110236,
          "duration": 0.3742187500000007
        },
        {
          "name": "A2",
          "midi": 45,
          "time": 25.875,
          "velocity": 0.7559055118110236,
          "duration": 0.3742187500000007
        },
        {
          "name": "A3",
          "midi": 57,
          "time": 25.875,
          "velocity": 0.7559055118110236,
          "duration": 0.3742187500000007
        },
        {
          "name": "A2",
          "midi": 45,
          "time": 26.25,
          "velocity": 0.7559055118110236,
          "duration": 0.3742187500000007
        },
        {
          "name": "A3",
          "midi": 57,
          "time": 26.25,
          "velocity": 0.7559055118110236,
          "duration": 0.3742187500000007
        },
        {
          "name": "G2",
          "midi": 43,
          "time": 26.625,
          "velocity": 0.7559055118110236,
          "duration": 0.3742187500000007
        },
        {
          "name": "G3",
          "midi": 55,
          "time": 26.625,
          "velocity": 0.7559055118110236,
          "duration": 0.3742187500000007
        },
        {
          "name": "F2",
          "midi": 41,
          "time": 27,
          "velocity": 0.7559055118110236,
          "duration": 0.3742187500000007
        },
        {
          "name": "F3",
          "midi": 53,
          "time": 27,
          "velocity": 0.7559055118110236,
          "duration": 0.3742187500000007
        },
        {
          "name": "F2",
          "midi": 41,
          "time": 27.375,
          "velocity": 0.7559055118110236,
          "duration": 0.3742187500000007
        },
        {
          "name": "F3",
          "midi": 53,
          "time": 27.375,
          "velocity": 0.7559055118110236,
          "duration": 0.3742187500000007
        },
        {
          "name": "G2",
          "midi": 43,
          "time": 27.75,
          "velocity": 0.7559055118110236,
          "duration": 0.3742187500000007
        },
        {
          "name": "G3",
          "midi": 55,
          "time": 27.75,
          "velocity": 0.7559055118110236,
          "duration": 0.3742187500000007
        },
        {
          "name": "G2",
          "midi": 43,
          "time": 28.125,
          "velocity": 0.7559055118110236,
          "duration": 0.3742187500000007
        },
        {
          "name": "G3",
          "midi": 55,
          "time": 28.125,
          "velocity": 0.7559055118110236,
          "duration": 0.3742187500000007
        },
        {
          "name": "A2",
          "midi": 45,
          "time": 28.5,
          "velocity": 0.7559055118110236,
          "duration": 0.3742187500000007
        },
        {
          "name": "A3",
          "midi": 57,
          "time": 28.5,
          "velocity": 0.7559055118110236,
          "duration": 0.3742187500000007
        },
        {
          "name": "A2",
          "midi": 45,
          "time": 28.875,
          "velocity": 0.7559055118110236,
          "duration": 0.3742187500000007
        },
        {
          "name": "A3",
          "midi": 57,
          "time": 28.875,
          "velocity": 0.7559055118110236,
          "duration": 0.3742187500000007
        },
        {
          "name": "A2",
          "midi": 45,
          "time": 29.25,
          "velocity": 0.7559055118110236,
          "duration": 0.3742187500000007
        },
        {
          "name": "A3",
          "midi": 57,
          "time": 29.25,
          "velocity": 0.7559055118110236,
          "duration": 0.3742187500000007
        },
        {
          "name": "G2",
          "midi": 43,
          "time": 29.625,
          "velocity": 0.7559055118110236,
          "duration": 0.3742187500000007
        },
        {
          "name": "G3",
          "midi": 55,
          "time": 29.625,
          "velocity": 0.7559055118110236,
          "duration": 0.3742187500000007
        },
        {
          "name": "F2",
          "midi": 41,
          "time": 30,
          "velocity": 0.7559055118110236,
          "duration": 0.3742187500000007
        },
        {
          "name": "F3",
          "midi": 53,
          "time": 30,
          "velocity": 0.7559055118110236,
          "duration": 0.3742187500000007
        },
        {
          "name": "F2",
          "midi": 41,
          "time": 30.375,
          "velocity": 0.7559055118110236,
          "duration": 0.3742187500000007
        },
        {
          "name": "F3",
          "midi": 53,
          "time": 30.375,
          "velocity": 0.7559055118110236,
          "duration": 0.3742187500000007
        },
        {
          "name": "G2",
          "midi": 43,
          "time": 30.75,
          "velocity": 0.7559055118110236,
          "duration": 0.3742187500000007
        },
        {
          "name": "G3",
          "midi": 55,
          "time": 30.75,
          "velocity": 0.7559055118110236,
          "duration": 0.3742187500000007
        },
        {
          "name": "G2",
          "midi": 43,
          "time": 31.125,
          "velocity": 0.7559055118110236,
          "duration": 0.3742187500000007
        },
        {
          "name": "G3",
          "midi": 55,
          "time": 31.125,
          "velocity": 0.7559055118110236,
          "duration": 0.3742187500000007
        },
        {
          "name": "A2",
          "midi": 45,
          "time": 31.5,
          "velocity": 0.7559055118110236,
          "duration": 0.3742187500000007
        },
        {
          "name": "A3",
          "midi": 57,
          "time": 31.5,
          "velocity": 0.7559055118110236,
          "duration": 0.3742187500000007
        },
        {
          "name": "A2",
          "midi": 45,
          "time": 31.875,
          "velocity": 0.7559055118110236,
          "duration": 0.37421874999999716
        },
        {
          "name": "A3",
          "midi": 57,
          "time": 31.875,
          "velocity": 0.7559055118110236,
          "duration": 0.37421874999999716
        },
        {
          "name": "A2",
          "midi": 45,
          "time": 32.25,
          "velocity": 0.7559055118110236,
          "duration": 0.37421874999999716
        },
        {
          "name": "A3",
          "midi": 57,
          "time": 32.25,
          "velocity": 0.7559055118110236,
          "duration": 0.37421874999999716
        },
        {
          "name": "G2",
          "midi": 43,
          "time": 32.625,
          "velocity": 0.7559055118110236,
          "duration": 0.37421874999999716
        },
        {
          "name": "G3",
          "midi": 55,
          "time": 32.625,
          "velocity": 0.7559055118110236,
          "duration": 0.37421874999999716
        },
        {
          "name": "D2",
          "midi": 38,
          "time": 33,
          "velocity": 0.7559055118110236,
          "duration": 0.37421874999999716
        },
        {
          "name": "D3",
          "midi": 50,
          "time": 33,
          "velocity": 0.7559055118110236,
          "duration": 0.37421874999999716
        },
        {
          "name": "D2",
          "midi": 38,
          "time": 33.375,
          "velocity": 0.7559055118110236,
          "duration": 0.37421874999999716
        },
        {
          "name": "D3",
          "midi": 50,
          "time": 33.375,
          "velocity": 0.7559055118110236,
          "duration": 0.37421874999999716
        },
        {
          "name": "D2",
          "midi": 38,
          "time": 33.75,
          "velocity": 0.7559055118110236,
          "duration": 0.37421874999999716
        },
        {
          "name": "D3",
          "midi": 50,
          "time": 33.75,
          "velocity": 0.7559055118110236,
          "duration": 0.37421874999999716
        },
        {
          "name": "D2",
          "midi": 38,
          "time": 34.125,
          "velocity": 0.7559055118110236,
          "duration": 0.37421874999999716
        },
        {
          "name": "D3",
          "midi": 50,
          "time": 34.125,
          "velocity": 0.7559055118110236,
          "duration": 0.37421874999999716
        },
        {
          "name": "C3",
          "midi": 48,
          "time": 34.5,
          "velocity": 0.7559055118110236,
          "duration": 0.18671874999999716
        },
        {
          "name": "E3",
          "midi": 52,
          "time": 34.5,
          "velocity": 0.7559055118110236,
          "duration": 0.18671874999999716
        },
        {
          "name": "B2",
          "midi": 47,
          "time": 34.6875,
          "velocity": 0.7559055118110236,
          "duration": 0.18671874999999716
        },
        {
          "name": "D#3",
          "midi": 51,
          "time": 34.6875,
          "velocity": 0.7559055118110236,
          "duration": 0.18671874999999716
        },
        {
          "name": "A#2",
          "midi": 46,
          "time": 34.875,
          "velocity": 0.7559055118110236,
          "duration": 0.18671874999999716
        },
        {
          "name": "D3",
          "midi": 50,
          "time": 34.875,
          "velocity": 0.7559055118110236,
          "duration": 0.18671874999999716
        },
        {
          "name": "A2",
          "midi": 45,
          "time": 35.0625,
          "velocity": 0.7559055118110236,
          "duration": 0.18671874999999716
        },
        {
          "name": "C#3",
          "midi": 49,
          "time": 35.0625,
          "velocity": 0.7559055118110236,
          "duration": 0.18671874999999716
        },
        {
          "name": "G#2",
          "midi": 44,
          "time": 35.25,
          "velocity": 0.7559055118110236,
          "duration": 0.18671874999999716
        },
        {
          "name": "C3",
          "midi": 48,
          "time": 35.25,
          "velocity": 0.7559055118110236,
          "duration": 0.18671874999999716
        },
        {
          "name": "A2",
          "midi": 45,
          "time": 35.4375,
          "velocity": 0.7559055118110236,
          "duration": 0.18671874999999716
        },
        {
          "name": "C#3",
          "midi": 49,
          "time": 35.4375,
          "velocity": 0.7559055118110236,
          "duration": 0.18671874999999716
        },
        {
          "name": "A#2",
          "midi": 46,
          "time": 35.625,
          "velocity": 0.7559055118110236,
          "duration": 0.18671874999999716
        },
        {
          "name": "D3",
          "midi": 50,
          "time": 35.625,
          "velocity": 0.7559055118110236,
          "duration": 0.18671874999999716
        },
        {
          "name": "B2",
          "midi": 47,
          "time": 35.8125,
          "velocity": 0.7559055118110236,
          "duration": 0.18671874999999716
        },
        {
          "name": "D#3",
          "midi": 51,
          "time": 35.8125,
          "velocity": 0.7559055118110236,
          "duration": 0.18671874999999716
        },
        {
          "name": "A2",
          "midi": 45,
          "time": 36,
          "velocity": 0.7559055118110236,
          "duration": 0.18671874999999716
        },
        {
          "name": "A3",
          "midi": 57,
          "time": 36.1875,
          "velocity": 0.7559055118110236,
          "duration": 0.18671874999999716
        },
        {
          "name": "A2",
          "midi": 45,
          "time": 36.375,
          "velocity": 0.7559055118110236,
          "duration": 0.18671874999999716
        },
        {
          "name": "A3",
          "midi": 57,
          "time": 36.5625,
          "velocity": 0.7559055118110236,
          "duration": 0.18671874999999716
        },
        {
          "name": "A2",
          "midi": 45,
          "time": 36.75,
          "velocity": 0.7559055118110236,
          "duration": 0.18671874999999716
        },
        {
          "name": "A3",
          "midi": 57,
          "time": 36.9375,
          "velocity": 0.7559055118110236,
          "duration": 0.18671874999999716
        },
        {
          "name": "A2",
          "midi": 45,
          "time": 37.125,
          "velocity": 0.7559055118110236,
          "duration": 0.18671874999999716
        },
        {
          "name": "A3",
          "midi": 57,
          "time": 37.3125,
          "velocity": 0.7559055118110236,
          "duration": 0.18671874999999716
        },
        {
          "name": "A2",
          "midi": 45,
          "time": 37.5,
          "velocity": 0.7559055118110236,
          "duration": 0.18671874999999716
        },
        {
          "name": "A3",
          "midi": 57,
          "time": 37.6875,
          "velocity": 0.7559055118110236,
          "duration": 0.18671874999999716
        },
        {
          "name": "A2",
          "midi": 45,
          "time": 37.875,
          "velocity": 0.7559055118110236,
          "duration": 0.18671874999999716
        },
        {
          "name": "A3",
          "midi": 57,
          "time": 38.0625,
          "velocity": 0.7559055118110236,
          "duration": 0.18671874999999716
        },
        {
          "name": "A2",
          "midi": 45,
          "time": 38.25,
          "velocity": 0.7559055118110236,
          "duration": 0.18671874999999716
        },
        {
          "name": "A3",
          "midi": 57,
          "time": 38.4375,
          "velocity": 0.7559055118110236,
          "duration": 0.18671874999999716
        },
        {
          "name": "G2",
          "midi": 43,
          "time": 38.625,
          "velocity": 0.7559055118110236,
          "duration": 0.18671874999999716
        },
        {
          "name": "G3",
          "midi": 55,
          "time": 38.8125,
          "velocity": 0.7559055118110236,
          "duration": 0.18671874999999716
        },
        {
          "name": "F2",
          "midi": 41,
          "time": 39,
          "velocity": 0.7559055118110236,
          "duration": 0.18671874999999716
        },
        {
          "name": "F3",
          "midi": 53,
          "time": 39.1875,
          "velocity": 0.7559055118110236,
          "duration": 0.18671874999999716
        },
        {
          "name": "F2",
          "midi": 41,
          "time": 39.375,
          "velocity": 0.7559055118110236,
          "duration": 0.18671874999999716
        },
        {
          "name": "F3",
          "midi": 53,
          "time": 39.5625,
          "velocity": 0.7559055118110236,
          "duration": 0.18671874999999716
        },
        {
          "name": "F2",
          "midi": 41,
          "time": 39.75,
          "velocity": 0.7559055118110236,
          "duration": 0.18671874999999716
        },
        {
          "name": "F3",
          "midi": 53,
          "time": 39.9375,
          "velocity": 0.7559055118110236,
          "duration": 0.18671874999999716
        },
        {
          "name": "F2",
          "midi": 41,
          "time": 40.125,
          "velocity": 0.7559055118110236,
          "duration": 0.18671874999999716
        },
        {
          "name": "F3",
          "midi": 53,
          "time": 40.3125,
          "velocity": 0.7559055118110236,
          "duration": 0.18671874999999716
        },
        {
          "name": "F2",
          "midi": 41,
          "time": 40.5,
          "velocity": 0.7559055118110236,
          "duration": 0.18671874999999716
        },
        {
          "name": "F3",
          "midi": 53,
          "time": 40.6875,
          "velocity": 0.7559055118110236,
          "duration": 0.18671874999999716
        },
        {
          "name": "F2",
          "midi": 41,
          "time": 40.875,
          "velocity": 0.7559055118110236,
          "duration": 0.18671874999999716
        },
        {
          "name": "F3",
          "midi": 53,
          "time": 41.0625,
          "velocity": 0.7559055118110236,
          "duration": 0.18671874999999716
        },
        {
          "name": "E2",
          "midi": 40,
          "time": 41.25,
          "velocity": 0.7559055118110236,
          "duration": 0.18671874999999716
        },
        {
          "name": "E3",
          "midi": 52,
          "time": 41.4375,
          "velocity": 0.7559055118110236,
          "duration": 0.18671874999999716
        },
        {
          "name": "E2",
          "midi": 40,
          "time": 41.625,
          "velocity": 0.7559055118110236,
          "duration": 0.18671874999999716
        },
        {
          "name": "E3",
          "midi": 52,
          "time": 41.8125,
          "velocity": 0.7559055118110236,
          "duration": 0.18671874999999716
        },
        {
          "name": "A2",
          "midi": 45,
          "time": 42,
          "velocity": 0.7559055118110236,
          "duration": 0.18671874999999716
        },
        {
          "name": "A3",
          "midi": 57,
          "time": 42.1875,
          "velocity": 0.7559055118110236,
          "duration": 0.18671874999999716
        },
        {
          "name": "A2",
          "midi": 45,
          "time": 42.375,
          "velocity": 0.7559055118110236,
          "duration": 0.18671874999999716
        },
        {
          "name": "A3",
          "midi": 57,
          "time": 42.5625,
          "velocity": 0.7559055118110236,
          "duration": 0.18671874999999716
        },
        {
          "name": "A2",
          "midi": 45,
          "time": 42.75,
          "velocity": 0.7559055118110236,
          "duration": 0.18671874999999716
        },
        {
          "name": "A3",
          "midi": 57,
          "time": 42.9375,
          "velocity": 0.7559055118110236,
          "duration": 0.18671874999999716
        },
        {
          "name": "A2",
          "midi": 45,
          "time": 43.125,
          "velocity": 0.7559055118110236,
          "duration": 0.18671874999999716
        },
        {
          "name": "A3",
          "midi": 57,
          "time": 43.3125,
          "velocity": 0.7559055118110236,
          "duration": 0.18671874999999716
        },
        {
          "name": "A2",
          "midi": 45,
          "time": 43.5,
          "velocity": 0.7559055118110236,
          "duration": 0.18671874999999716
        },
        {
          "name": "A3",
          "midi": 57,
          "time": 43.6875,
          "velocity": 0.7559055118110236,
          "duration": 0.18671874999999716
        },
        {
          "name": "A2",
          "midi": 45,
          "time": 43.875,
          "velocity": 0.7559055118110236,
          "duration": 0.18671874999999716
        },
        {
          "name": "A3",
          "midi": 57,
          "time": 44.0625,
          "velocity": 0.7559055118110236,
          "duration": 0.18671874999999716
        },
        {
          "name": "A2",
          "midi": 45,
          "time": 44.25,
          "velocity": 0.7559055118110236,
          "duration": 0.18671874999999716
        },
        {
          "name": "A3",
          "midi": 57,
          "time": 44.4375,
          "velocity": 0.7559055118110236,
          "duration": 0.18671874999999716
        },
        {
          "name": "G2",
          "midi": 43,
          "time": 44.625,
          "velocity": 0.7559055118110236,
          "duration": 0.18671874999999716
        },
        {
          "name": "G3",
          "midi": 55,
          "time": 44.8125,
          "velocity": 0.7559055118110236,
          "duration": 0.18671874999999716
        },
        {
          "name": "F2",
          "midi": 41,
          "time": 45,
          "velocity": 0.7559055118110236,
          "duration": 0.18671874999999716
        },
        {
          "name": "F3",
          "midi": 53,
          "time": 45.1875,
          "velocity": 0.7559055118110236,
          "duration": 0.18671874999999716
        },
        {
          "name": "F2",
          "midi": 41,
          "time": 45.375,
          "velocity": 0.7559055118110236,
          "duration": 0.18671874999999716
        },
        {
          "name": "F3",
          "midi": 53,
          "time": 45.5625,
          "velocity": 0.7559055118110236,
          "duration": 0.18671874999999716
        },
        {
          "name": "F2",
          "midi": 41,
          "time": 45.75,
          "velocity": 0.7559055118110236,
          "duration": 0.18671874999999716
        },
        {
          "name": "F3",
          "midi": 53,
          "time": 45.9375,
          "velocity": 0.7559055118110236,
          "duration": 0.18671874999999716
        },
        {
          "name": "F2",
          "midi": 41,
          "time": 46.125,
          "velocity": 0.7559055118110236,
          "duration": 0.18671874999999716
        },
        {
          "name": "F3",
          "midi": 53,
          "time": 46.3125,
          "velocity": 0.7559055118110236,
          "duration": 0.18671874999999716
        },
        {
          "name": "F2",
          "midi": 41,
          "time": 46.5,
          "velocity": 0.7559055118110236,
          "duration": 0.18671874999999716
        },
        {
          "name": "F3",
          "midi": 53,
          "time": 46.6875,
          "velocity": 0.7559055118110236,
          "duration": 0.18671874999999716
        },
        {
          "name": "F2",
          "midi": 41,
          "time": 46.875,
          "velocity": 0.7559055118110236,
          "duration": 0.18671874999999716
        },
        {
          "name": "F3",
          "midi": 53,
          "time": 47.0625,
          "velocity": 0.7559055118110236,
          "duration": 0.18671874999999716
        },
        {
          "name": "E2",
          "midi": 40,
          "time": 47.25,
          "velocity": 0.7559055118110236,
          "duration": 0.18671874999999716
        },
        {
          "name": "E3",
          "midi": 52,
          "time": 47.4375,
          "velocity": 0.7559055118110236,
          "duration": 0.18671874999999716
        },
        {
          "name": "E2",
          "midi": 40,
          "time": 47.625,
          "velocity": 0.7559055118110236,
          "duration": 0.18671874999999716
        },
        {
          "name": "E3",
          "midi": 52,
          "time": 47.8125,
          "velocity": 0.7559055118110236,
          "duration": 0.18671874999999716
        },
        {
          "name": "F2",
          "midi": 41,
          "time": 48,
          "velocity": 0.7559055118110236,
          "duration": 0.18671874999999716
        },
        {
          "name": "F3",
          "midi": 53,
          "time": 48.1875,
          "velocity": 0.7559055118110236,
          "duration": 0.18671874999999716
        },
        {
          "name": "F2",
          "midi": 41,
          "time": 48.375,
          "velocity": 0.7559055118110236,
          "duration": 0.18671874999999716
        },
        {
          "name": "F3",
          "midi": 53,
          "time": 48.5625,
          "velocity": 0.7559055118110236,
          "duration": 0.18671874999999716
        },
        {
          "name": "F2",
          "midi": 41,
          "time": 48.75,
          "velocity": 0.7559055118110236,
          "duration": 0.18671874999999716
        },
        {
          "name": "F3",
          "midi": 53,
          "time": 48.9375,
          "velocity": 0.7559055118110236,
          "duration": 0.18671874999999716
        },
        {
          "name": "F2",
          "midi": 41,
          "time": 49.125,
          "velocity": 0.7559055118110236,
          "duration": 0.18671874999999716
        },
        {
          "name": "F3",
          "midi": 53,
          "time": 49.3125,
          "velocity": 0.7559055118110236,
          "duration": 0.18671874999999716
        },
        {
          "name": "G2",
          "midi": 43,
          "time": 49.5,
          "velocity": 0.7559055118110236,
          "duration": 0.18671874999999716
        },
        {
          "name": "G3",
          "midi": 55,
          "time": 49.6875,
          "velocity": 0.7559055118110236,
          "duration": 0.18671874999999716
        },
        {
          "name": "G2",
          "midi": 43,
          "time": 49.875,
          "velocity": 0.7559055118110236,
          "duration": 0.18671874999999716
        },
        {
          "name": "G3",
          "midi": 55,
          "time": 50.0625,
          "velocity": 0.7559055118110236,
          "duration": 0.18671874999999716
        },
        {
          "name": "G2",
          "midi": 43,
          "time": 50.25,
          "velocity": 0.7559055118110236,
          "duration": 0.18671874999999716
        },
        {
          "name": "G3",
          "midi": 55,
          "time": 50.4375,
          "velocity": 0.7559055118110236,
          "duration": 0.18671874999999716
        },
        {
          "name": "G2",
          "midi": 43,
          "time": 50.625,
          "velocity": 0.7559055118110236,
          "duration": 0.18671874999999716
        },
        {
          "name": "G3",
          "midi": 55,
          "time": 50.8125,
          "velocity": 0.7559055118110236,
          "duration": 0.18671874999999716
        },
        {
          "name": "A2",
          "midi": 45,
          "time": 51,
          "velocity": 0.7559055118110236,
          "duration": 0.18671874999999716
        },
        {
          "name": "A3",
          "midi": 57,
          "time": 51.1875,
          "velocity": 0.7559055118110236,
          "duration": 0.18671874999999716
        },
        {
          "name": "A2",
          "midi": 45,
          "time": 51.375,
          "velocity": 0.7559055118110236,
          "duration": 0.18671874999999716
        },
        {
          "name": "A3",
          "midi": 57,
          "time": 51.5625,
          "velocity": 0.7559055118110236,
          "duration": 0.18671874999999716
        },
        {
          "name": "A2",
          "midi": 45,
          "time": 51.75,
          "velocity": 0.7559055118110236,
          "duration": 0.18671874999999716
        },
        {
          "name": "A3",
          "midi": 57,
          "time": 51.9375,
          "velocity": 0.7559055118110236,
          "duration": 0.18671874999999716
        },
        {
          "name": "A2",
          "midi": 45,
          "time": 52.125,
          "velocity": 0.7559055118110236,
          "duration": 0.18671874999999716
        },
        {
          "name": "A3",
          "midi": 57,
          "time": 52.3125,
          "velocity": 0.7559055118110236,
          "duration": 0.18671874999999716
        },
        {
          "name": "A2",
          "midi": 45,
          "time": 52.5,
          "velocity": 0.7559055118110236,
          "duration": 0.18671874999999716
        },
        {
          "name": "A3",
          "midi": 57,
          "time": 52.6875,
          "velocity": 0.7559055118110236,
          "duration": 0.18671874999999716
        },
        {
          "name": "A2",
          "midi": 45,
          "time": 52.875,
          "velocity": 0.7559055118110236,
          "duration": 0.18671874999999716
        },
        {
          "name": "A3",
          "midi": 57,
          "time": 53.0625,
          "velocity": 0.7559055118110236,
          "duration": 0.18671874999999716
        },
        {
          "name": "G2",
          "midi": 43,
          "time": 53.25,
          "velocity": 0.7559055118110236,
          "duration": 0.18671874999999716
        },
        {
          "name": "G3",
          "midi": 55,
          "time": 53.4375,
          "velocity": 0.7559055118110236,
          "duration": 0.18671874999999716
        },
        {
          "name": "G2",
          "midi": 43,
          "time": 53.625,
          "velocity": 0.7559055118110236,
          "duration": 0.18671874999999716
        },
        {
          "name": "G3",
          "midi": 55,
          "time": 53.8125,
          "velocity": 0.7559055118110236,
          "duration": 0.18671874999999716
        },
        {
          "name": "F2",
          "midi": 41,
          "time": 54,
          "velocity": 0.7559055118110236,
          "duration": 0.18671874999999716
        },
        {
          "name": "F3",
          "midi": 53,
          "time": 54.1875,
          "velocity": 0.7559055118110236,
          "duration": 0.18671874999999716
        },
        {
          "name": "F2",
          "midi": 41,
          "time": 54.375,
          "velocity": 0.7559055118110236,
          "duration": 0.18671874999999716
        },
        {
          "name": "F3",
          "midi": 53,
          "time": 54.5625,
          "velocity": 0.7559055118110236,
          "duration": 0.18671874999999716
        },
        {
          "name": "F2",
          "midi": 41,
          "time": 54.75,
          "velocity": 0.7559055118110236,
          "duration": 0.18671874999999716
        },
        {
          "name": "F3",
          "midi": 53,
          "time": 54.9375,
          "velocity": 0.7559055118110236,
          "duration": 0.18671874999999716
        },
        {
          "name": "F2",
          "midi": 41,
          "time": 55.125,
          "velocity": 0.7559055118110236,
          "duration": 0.18671874999999716
        },
        {
          "name": "F3",
          "midi": 53,
          "time": 55.3125,
          "velocity": 0.7559055118110236,
          "duration": 0.18671874999999716
        },
        {
          "name": "G2",
          "midi": 43,
          "time": 55.5,
          "velocity": 0.7559055118110236,
          "duration": 0.18671874999999716
        },
        {
          "name": "G3",
          "midi": 55,
          "time": 55.6875,
          "velocity": 0.7559055118110236,
          "duration": 0.18671874999999716
        },
        {
          "name": "G2",
          "midi": 43,
          "time": 55.875,
          "velocity": 0.7559055118110236,
          "duration": 0.18671874999999716
        },
        {
          "name": "G3",
          "midi": 55,
          "time": 56.0625,
          "velocity": 0.7559055118110236,
          "duration": 0.18671874999999716
        },
        {
          "name": "G2",
          "midi": 43,
          "time": 56.25,
          "velocity": 0.7559055118110236,
          "duration": 0.18671874999999716
        },
        {
          "name": "G3",
          "midi": 55,
          "time": 56.4375,
          "velocity": 0.7559055118110236,
          "duration": 0.18671874999999716
        },
        {
          "name": "G2",
          "midi": 43,
          "time": 56.625,
          "velocity": 0.7559055118110236,
          "duration": 0.18671874999999716
        },
        {
          "name": "G3",
          "midi": 55,
          "time": 56.8125,
          "velocity": 0.7559055118110236,
          "duration": 0.18671874999999716
        },
        {
          "name": "D2",
          "midi": 38,
          "time": 57,
          "velocity": 0.7559055118110236,
          "duration": 0.18671874999999716
        },
        {
          "name": "D3",
          "midi": 50,
          "time": 57.1875,
          "velocity": 0.7559055118110236,
          "duration": 0.18671874999999716
        },
        {
          "name": "D2",
          "midi": 38,
          "time": 57.375,
          "velocity": 0.7559055118110236,
          "duration": 0.18671874999999716
        },
        {
          "name": "D3",
          "midi": 50,
          "time": 57.5625,
          "velocity": 0.7559055118110236,
          "duration": 0.18671874999999716
        },
        {
          "name": "D2",
          "midi": 38,
          "time": 57.75,
          "velocity": 0.7559055118110236,
          "duration": 0.18671874999999716
        },
        {
          "name": "D3",
          "midi": 50,
          "time": 57.9375,
          "velocity": 0.7559055118110236,
          "duration": 0.18671874999999716
        },
        {
          "name": "D2",
          "midi": 38,
          "time": 58.125,
          "velocity": 0.7559055118110236,
          "duration": 0.18671874999999716
        },
        {
          "name": "D3",
          "midi": 50,
          "time": 58.3125,
          "velocity": 0.7559055118110236,
          "duration": 0.18671874999999716
        },
        {
          "name": "D2",
          "midi": 38,
          "time": 58.5,
          "velocity": 0.7559055118110236,
          "duration": 0.18671874999999716
        },
        {
          "name": "D3",
          "midi": 50,
          "time": 58.6875,
          "velocity": 0.7716535433070866,
          "duration": 0.18671874999999716
        },
        {
          "name": "E2",
          "midi": 40,
          "time": 58.875,
          "velocity": 0.7874015748031497,
          "duration": 0.18671874999999716
        },
        {
          "name": "E3",
          "midi": 52,
          "time": 59.0625,
          "velocity": 0.8031496062992126,
          "duration": 0.18671874999999716
        },
        {
          "name": "F2",
          "midi": 41,
          "time": 59.25,
          "velocity": 0.8188976377952756,
          "duration": 0.18671874999999716
        },
        {
          "name": "F3",
          "midi": 53,
          "time": 59.4375,
          "velocity": 0.8346456692913385,
          "duration": 0.18671874999999716
        },
        {
          "name": "G2",
          "midi": 43,
          "time": 59.625,
          "velocity": 0.8503937007874016,
          "duration": 0.18671874999999716
        },
        {
          "name": "G3",
          "midi": 55,
          "time": 59.8125,
          "velocity": 0.8661417322834646,
          "duration": 0.18671874999999716
        },
        {
          "name": "F2",
          "midi": 41,
          "time": 60,
          "velocity": 0.8818897637795275,
          "duration": 0.18671874999999716
        },
        {
          "name": "F3",
          "midi": 53,
          "time": 60.1875,
          "velocity": 0.8818897637795275,
          "duration": 0.18671874999999716
        },
        {
          "name": "F2",
          "midi": 41,
          "time": 60.375,
          "velocity": 0.8818897637795275,
          "duration": 0.18671874999999716
        },
        {
          "name": "F3",
          "midi": 53,
          "time": 60.5625,
          "velocity": 0.8818897637795275,
          "duration": 0.18671874999999716
        },
        {
          "name": "G2",
          "midi": 43,
          "time": 60.75,
          "velocity": 0.8818897637795275,
          "duration": 0.18671874999999716
        },
        {
          "name": "G3",
          "midi": 55,
          "time": 60.9375,
          "velocity": 0.8818897637795275,
          "duration": 0.18671874999999716
        },
        {
          "name": "G2",
          "midi": 43,
          "time": 61.125,
          "velocity": 0.8818897637795275,
          "duration": 0.18671874999999716
        },
        {
          "name": "G3",
          "midi": 55,
          "time": 61.3125,
          "velocity": 0.8818897637795275,
          "duration": 0.18671874999999716
        },
        {
          "name": "A2",
          "midi": 45,
          "time": 61.5,
          "velocity": 0.8818897637795275,
          "duration": 0.18671874999999716
        },
        {
          "name": "A3",
          "midi": 57,
          "time": 61.6875,
          "velocity": 0.8818897637795275,
          "duration": 0.18671874999999716
        },
        {
          "name": "A2",
          "midi": 45,
          "time": 61.875,
          "velocity": 0.8818897637795275,
          "duration": 0.18671874999999716
        },
        {
          "name": "A3",
          "midi": 57,
          "time": 62.0625,
          "velocity": 0.8818897637795275,
          "duration": 0.18671874999999716
        },
        {
          "name": "A2",
          "midi": 45,
          "time": 62.25,
          "velocity": 0.8818897637795275,
          "duration": 0.18671874999999716
        },
        {
          "name": "A3",
          "midi": 57,
          "time": 62.4375,
          "velocity": 0.8818897637795275,
          "duration": 0.18671874999999716
        },
        {
          "name": "A2",
          "midi": 45,
          "time": 62.625,
          "velocity": 0.8818897637795275,
          "duration": 0.18671874999999716
        },
        {
          "name": "A3",
          "midi": 57,
          "time": 62.8125,
          "velocity": 0.8818897637795275,
          "duration": 0.18671874999999716
        },
        {
          "name": "F2",
          "midi": 41,
          "time": 63,
          "velocity": 0.8818897637795275,
          "duration": 0.18671874999999716
        },
        {
          "name": "F3",
          "midi": 53,
          "time": 63.1875,
          "velocity": 0.8818897637795275,
          "duration": 0.18671874999999716
        },
        {
          "name": "F2",
          "midi": 41,
          "time": 63.375,
          "velocity": 0.8818897637795275,
          "duration": 0.18671874999999716
        },
        {
          "name": "F3",
          "midi": 53,
          "time": 63.5625,
          "velocity": 0.8818897637795275,
          "duration": 0.18671874999999716
        },
        {
          "name": "G2",
          "midi": 43,
          "time": 63.75,
          "velocity": 0.8818897637795275,
          "duration": 0.18671874999999716
        },
        {
          "name": "G3",
          "midi": 55,
          "time": 63.9375,
          "velocity": 0.8818897637795275,
          "duration": 0.18671874999999716
        },
        {
          "name": "G2",
          "midi": 43,
          "time": 64.125,
          "velocity": 0.8818897637795275,
          "duration": 0.18671874999999716
        },
        {
          "name": "G3",
          "midi": 55,
          "time": 64.3125,
          "velocity": 0.8818897637795275,
          "duration": 0.18671874999999716
        },
        {
          "name": "A2",
          "midi": 45,
          "time": 64.5,
          "velocity": 0.8818897637795275,
          "duration": 0.18671874999999716
        },
        {
          "name": "A3",
          "midi": 57,
          "time": 64.6875,
          "velocity": 0.8818897637795275,
          "duration": 0.18671874999999716
        },
        {
          "name": "A2",
          "midi": 45,
          "time": 64.875,
          "velocity": 0.8818897637795275,
          "duration": 0.18671874999999716
        },
        {
          "name": "A3",
          "midi": 57,
          "time": 65.0625,
          "velocity": 0.8818897637795275,
          "duration": 0.18671874999999716
        },
        {
          "name": "A2",
          "midi": 45,
          "time": 65.25,
          "velocity": 0.8818897637795275,
          "duration": 0.18671874999999716
        },
        {
          "name": "A3",
          "midi": 57,
          "time": 65.4375,
          "velocity": 0.8818897637795275,
          "duration": 0.18671874999999716
        },
        {
          "name": "A2",
          "midi": 45,
          "time": 65.625,
          "velocity": 0.8818897637795275,
          "duration": 0.18671874999999716
        },
        {
          "name": "A3",
          "midi": 57,
          "time": 65.8125,
          "velocity": 0.8818897637795275,
          "duration": 0.18671874999999716
        },
        {
          "name": "F2",
          "midi": 41,
          "time": 66,
          "velocity": 0.8818897637795275,
          "duration": 0.18671874999999716
        },
        {
          "name": "F3",
          "midi": 53,
          "time": 66.1875,
          "velocity": 0.8818897637795275,
          "duration": 0.18671874999999716
        },
        {
          "name": "F2",
          "midi": 41,
          "time": 66.375,
          "velocity": 0.8818897637795275,
          "duration": 0.18671874999999716
        },
        {
          "name": "F3",
          "midi": 53,
          "time": 66.5625,
          "velocity": 0.8818897637795275,
          "duration": 0.18671874999999716
        },
        {
          "name": "G2",
          "midi": 43,
          "time": 66.75,
          "velocity": 0.8818897637795275,
          "duration": 0.18671874999999716
        },
        {
          "name": "G3",
          "midi": 55,
          "time": 66.9375,
          "velocity": 0.8818897637795275,
          "duration": 0.18671874999999716
        },
        {
          "name": "G2",
          "midi": 43,
          "time": 67.125,
          "velocity": 0.8818897637795275,
          "duration": 0.18671874999999716
        },
        {
          "name": "G3",
          "midi": 55,
          "time": 67.3125,
          "velocity": 0.8818897637795275,
          "duration": 0.18671874999999716
        },
        {
          "name": "A2",
          "midi": 45,
          "time": 67.5,
          "velocity": 0.8818897637795275,
          "duration": 0.18671874999999716
        },
        {
          "name": "A3",
          "midi": 57,
          "time": 67.6875,
          "velocity": 0.8818897637795275,
          "duration": 0.18671874999999716
        },
        {
          "name": "A2",
          "midi": 45,
          "time": 67.875,
          "velocity": 0.8818897637795275,
          "duration": 0.18671874999999716
        },
        {
          "name": "A3",
          "midi": 57,
          "time": 68.0625,
          "velocity": 0.8818897637795275,
          "duration": 0.18671874999999716
        },
        {
          "name": "A2",
          "midi": 45,
          "time": 68.25,
          "velocity": 0.8818897637795275,
          "duration": 0.18671874999999716
        },
        {
          "name": "A3",
          "midi": 57,
          "time": 68.4375,
          "velocity": 0.8818897637795275,
          "duration": 0.18671874999999716
        },
        {
          "name": "A2",
          "midi": 45,
          "time": 68.625,
          "velocity": 0.8818897637795275,
          "duration": 0.18671874999999716
        },
        {
          "name": "A3",
          "midi": 57,
          "time": 68.8125,
          "velocity": 0.8818897637795275,
          "duration": 0.18671874999999716
        },
        {
          "name": "F2",
          "midi": 41,
          "time": 69,
          "velocity": 0.8818897637795275,
          "duration": 0.18671874999999716
        },
        {
          "name": "F3",
          "midi": 53,
          "time": 69.1875,
          "velocity": 0.8818897637795275,
          "duration": 0.18671874999999716
        },
        {
          "name": "F2",
          "midi": 41,
          "time": 69.375,
          "velocity": 0.8818897637795275,
          "duration": 0.18671874999999716
        },
        {
          "name": "F3",
          "midi": 53,
          "time": 69.5625,
          "velocity": 0.8818897637795275,
          "duration": 0.18671874999999716
        },
        {
          "name": "F2",
          "midi": 41,
          "time": 69.75,
          "velocity": 0.8818897637795275,
          "duration": 0.18671874999999716
        },
        {
          "name": "F3",
          "midi": 53,
          "time": 69.9375,
          "velocity": 0.8818897637795275,
          "duration": 0.18671874999999716
        },
        {
          "name": "F2",
          "midi": 41,
          "time": 70.125,
          "velocity": 0.8818897637795275,
          "duration": 0.18671874999999716
        },
        {
          "name": "F3",
          "midi": 53,
          "time": 70.3125,
          "velocity": 0.8818897637795275,
          "duration": 0.18671874999999716
        },
        {
          "name": "G2",
          "midi": 43,
          "time": 70.5,
          "velocity": 0.8818897637795275,
          "duration": 0.18671874999999716
        },
        {
          "name": "G3",
          "midi": 55,
          "time": 70.6875,
          "velocity": 0.8818897637795275,
          "duration": 0.18671874999999716
        },
        {
          "name": "G2",
          "midi": 43,
          "time": 70.875,
          "velocity": 0.8818897637795275,
          "duration": 0.18671874999999716
        },
        {
          "name": "G3",
          "midi": 55,
          "time": 71.0625,
          "velocity": 0.8818897637795275,
          "duration": 0.18671874999999716
        },
        {
          "name": "G2",
          "midi": 43,
          "time": 71.25,
          "velocity": 0.8818897637795275,
          "duration": 0.18671874999999716
        },
        {
          "name": "G3",
          "midi": 55,
          "time": 71.4375,
          "velocity": 0.8818897637795275,
          "duration": 0.18671874999999716
        },
        {
          "name": "G2",
          "midi": 43,
          "time": 71.625,
          "velocity": 0.8818897637795275,
          "duration": 0.18671874999999716
        },
        {
          "name": "G3",
          "midi": 55,
          "time": 71.8125,
          "velocity": 0.8818897637795275,
          "duration": 0.18671874999999716
        },
        {
          "name": "F2",
          "midi": 41,
          "time": 72,
          "velocity": 0.8818897637795275,
          "duration": 0.18671874999999716
        },
        {
          "name": "F3",
          "midi": 53,
          "time": 72.1875,
          "velocity": 0.8818897637795275,
          "duration": 0.18671874999999716
        },
        {
          "name": "F2",
          "midi": 41,
          "time": 72.375,
          "velocity": 0.8818897637795275,
          "duration": 0.18671874999999716
        },
        {
          "name": "F3",
          "midi": 53,
          "time": 72.5625,
          "velocity": 0.8818897637795275,
          "duration": 0.18671874999999716
        },
        {
          "name": "G2",
          "midi": 43,
          "time": 72.75,
          "velocity": 0.8818897637795275,
          "duration": 0.18671874999999716
        },
        {
          "name": "G3",
          "midi": 55,
          "time": 72.9375,
          "velocity": 0.8818897637795275,
          "duration": 0.18671874999999716
        },
        {
          "name": "G2",
          "midi": 43,
          "time": 73.125,
          "velocity": 0.8818897637795275,
          "duration": 0.18671874999999716
        },
        {
          "name": "G3",
          "midi": 55,
          "time": 73.3125,
          "velocity": 0.8818897637795275,
          "duration": 0.18671874999999716
        },
        {
          "name": "A2",
          "midi": 45,
          "time": 73.5,
          "velocity": 0.8818897637795275,
          "duration": 0.18671874999999716
        },
        {
          "name": "A3",
          "midi": 57,
          "time": 73.6875,
          "velocity": 0.8818897637795275,
          "duration": 0.18671874999999716
        },
        {
          "name": "A2",
          "midi": 45,
          "time": 73.875,
          "velocity": 0.8818897637795275,
          "duration": 0.18671874999999716
        },
        {
          "name": "A3",
          "midi": 57,
          "time": 74.0625,
          "velocity": 0.8818897637795275,
          "duration": 0.18671874999999716
        },
        {
          "name": "A2",
          "midi": 45,
          "time": 74.25,
          "velocity": 0.8818897637795275,
          "duration": 0.18671874999999716
        },
        {
          "name": "A3",
          "midi": 57,
          "time": 74.4375,
          "velocity": 0.8818897637795275,
          "duration": 0.18671874999999716
        },
        {
          "name": "A2",
          "midi": 45,
          "time": 74.625,
          "velocity": 0.8818897637795275,
          "duration": 0.18671874999999716
        },
        {
          "name": "A3",
          "midi": 57,
          "time": 74.8125,
          "velocity": 0.8818897637795275,
          "duration": 0.18671874999999716
        },
        {
          "name": "F2",
          "midi": 41,
          "time": 75,
          "velocity": 0.8818897637795275,
          "duration": 0.18671874999999716
        },
        {
          "name": "F3",
          "midi": 53,
          "time": 75.1875,
          "velocity": 0.8818897637795275,
          "duration": 0.18671874999999716
        },
        {
          "name": "F2",
          "midi": 41,
          "time": 75.375,
          "velocity": 0.8818897637795275,
          "duration": 0.18671874999999716
        },
        {
          "name": "F3",
          "midi": 53,
          "time": 75.5625,
          "velocity": 0.8818897637795275,
          "duration": 0.18671874999999716
        },
        {
          "name": "G2",
          "midi": 43,
          "time": 75.75,
          "velocity": 0.8818897637795275,
          "duration": 0.18671874999999716
        },
        {
          "name": "G3",
          "midi": 55,
          "time": 75.9375,
          "velocity": 0.8818897637795275,
          "duration": 0.18671874999999716
        },
        {
          "name": "G2",
          "midi": 43,
          "time": 76.125,
          "velocity": 0.8818897637795275,
          "duration": 0.18671874999999716
        },
        {
          "name": "G3",
          "midi": 55,
          "time": 76.3125,
          "velocity": 0.8818897637795275,
          "duration": 0.18671874999999716
        },
        {
          "name": "A2",
          "midi": 45,
          "time": 76.5,
          "velocity": 0.8818897637795275,
          "duration": 0.18671874999999716
        },
        {
          "name": "A3",
          "midi": 57,
          "time": 76.6875,
          "velocity": 0.8818897637795275,
          "duration": 0.18671874999999716
        },
        {
          "name": "A2",
          "midi": 45,
          "time": 76.875,
          "velocity": 0.8818897637795275,
          "duration": 0.18671874999999716
        },
        {
          "name": "A3",
          "midi": 57,
          "time": 77.0625,
          "velocity": 0.8818897637795275,
          "duration": 0.18671874999999716
        },
        {
          "name": "A2",
          "midi": 45,
          "time": 77.25,
          "velocity": 0.8818897637795275,
          "duration": 0.18671874999999716
        },
        {
          "name": "A3",
          "midi": 57,
          "time": 77.4375,
          "velocity": 0.8818897637795275,
          "duration": 0.18671874999999716
        },
        {
          "name": "A2",
          "midi": 45,
          "time": 77.625,
          "velocity": 0.8818897637795275,
          "duration": 0.18671874999999716
        },
        {
          "name": "A3",
          "midi": 57,
          "time": 77.8125,
          "velocity": 0.8818897637795275,
          "duration": 0.18671874999999716
        },
        {
          "name": "F2",
          "midi": 41,
          "time": 78,
          "velocity": 0.8818897637795275,
          "duration": 0.18671874999999716
        },
        {
          "name": "F3",
          "midi": 53,
          "time": 78.1875,
          "velocity": 0.8818897637795275,
          "duration": 0.18671874999999716
        },
        {
          "name": "F2",
          "midi": 41,
          "time": 78.375,
          "velocity": 0.8818897637795275,
          "duration": 0.18671874999999716
        },
        {
          "name": "F3",
          "midi": 53,
          "time": 78.5625,
          "velocity": 0.8818897637795275,
          "duration": 0.18671874999999716
        },
        {
          "name": "G2",
          "midi": 43,
          "time": 78.75,
          "velocity": 0.8818897637795275,
          "duration": 0.18671874999999716
        },
        {
          "name": "G3",
          "midi": 55,
          "time": 78.9375,
          "velocity": 0.8818897637795275,
          "duration": 0.18671874999999716
        },
        {
          "name": "G2",
          "midi": 43,
          "time": 79.125,
          "velocity": 0.8818897637795275,
          "duration": 0.18671874999999716
        },
        {
          "name": "G3",
          "midi": 55,
          "time": 79.3125,
          "velocity": 0.8818897637795275,
          "duration": 0.18671874999999716
        },
        {
          "name": "A2",
          "midi": 45,
          "time": 79.5,
          "velocity": 0.8818897637795275,
          "duration": 0.18671874999999716
        },
        {
          "name": "A3",
          "midi": 57,
          "time": 79.6875,
          "velocity": 0.8818897637795275,
          "duration": 0.18671874999999716
        },
        {
          "name": "A2",
          "midi": 45,
          "time": 79.875,
          "velocity": 0.8818897637795275,
          "duration": 0.18671874999999716
        },
        {
          "name": "A3",
          "midi": 57,
          "time": 80.0625,
          "velocity": 0.8818897637795275,
          "duration": 0.18671874999999716
        },
        {
          "name": "A2",
          "midi": 45,
          "time": 80.25,
          "velocity": 0.8818897637795275,
          "duration": 0.18671874999999716
        },
        {
          "name": "A3",
          "midi": 57,
          "time": 80.4375,
          "velocity": 0.8818897637795275,
          "duration": 0.18671874999999716
        },
        {
          "name": "A2",
          "midi": 45,
          "time": 80.625,
          "velocity": 0.8818897637795275,
          "duration": 0.18671874999999716
        },
        {
          "name": "A3",
          "midi": 57,
          "time": 80.8125,
          "velocity": 0.8818897637795275,
          "duration": 0.18671874999999716
        },
        {
          "name": "F2",
          "midi": 41,
          "time": 81,
          "velocity": 0.8818897637795275,
          "duration": 0.18671874999999716
        },
        {
          "name": "F3",
          "midi": 53,
          "time": 81.1875,
          "velocity": 0.8818897637795275,
          "duration": 0.18671874999999716
        },
        {
          "name": "F2",
          "midi": 41,
          "time": 81.375,
          "velocity": 0.8818897637795275,
          "duration": 0.18671874999999716
        },
        {
          "name": "F3",
          "midi": 53,
          "time": 81.5625,
          "velocity": 0.8818897637795275,
          "duration": 0.18671874999999716
        },
        {
          "name": "F2",
          "midi": 41,
          "time": 81.75,
          "velocity": 0.8818897637795275,
          "duration": 0.18671874999999716
        },
        {
          "name": "F3",
          "midi": 53,
          "time": 81.9375,
          "velocity": 0.8818897637795275,
          "duration": 0.18671874999999716
        },
        {
          "name": "F2",
          "midi": 41,
          "time": 82.125,
          "velocity": 0.8818897637795275,
          "duration": 0.18671874999999716
        },
        {
          "name": "F3",
          "midi": 53,
          "time": 82.3125,
          "velocity": 0.8818897637795275,
          "duration": 0.18671874999999716
        },
        {
          "name": "G2",
          "midi": 43,
          "time": 82.5,
          "velocity": 0.8818897637795275,
          "duration": 0.18671874999999716
        },
        {
          "name": "G3",
          "midi": 55,
          "time": 82.6875,
          "velocity": 0.8818897637795275,
          "duration": 0.18671874999999716
        },
        {
          "name": "G2",
          "midi": 43,
          "time": 82.875,
          "velocity": 0.8818897637795275,
          "duration": 0.18671874999999716
        },
        {
          "name": "G3",
          "midi": 55,
          "time": 83.0625,
          "velocity": 0.8818897637795275,
          "duration": 0.18671874999999716
        },
        {
          "name": "G#2",
          "midi": 44,
          "time": 83.25,
          "velocity": 0.8818897637795275,
          "duration": 0.18671874999999716
        },
        {
          "name": "G#3",
          "midi": 56,
          "time": 83.4375,
          "velocity": 0.8818897637795275,
          "duration": 0.18671874999999716
        },
        {
          "name": "G#2",
          "midi": 44,
          "time": 83.625,
          "velocity": 0.8818897637795275,
          "duration": 0.18671874999999716
        },
        {
          "name": "G#3",
          "midi": 56,
          "time": 83.8125,
          "velocity": 0.8818897637795275,
          "duration": 0.18671874999999716
        },
        {
          "name": "F2",
          "midi": 41,
          "time": 84,
          "velocity": 0.7559055118110236,
          "duration": 0.37421874999999716
        },
        {
          "name": "F3",
          "midi": 53,
          "time": 84,
          "velocity": 0.7559055118110236,
          "duration": 0.37421874999999716
        },
        {
          "name": "F2",
          "midi": 41,
          "time": 84.375,
          "velocity": 0.7559055118110236,
          "duration": 0.37421874999999716
        },
        {
          "name": "F3",
          "midi": 53,
          "time": 84.375,
          "velocity": 0.7559055118110236,
          "duration": 0.37421874999999716
        },
        {
          "name": "G2",
          "midi": 43,
          "time": 84.75,
          "velocity": 0.7559055118110236,
          "duration": 0.37421874999999716
        },
        {
          "name": "G3",
          "midi": 55,
          "time": 84.75,
          "velocity": 0.7559055118110236,
          "duration": 0.37421874999999716
        },
        {
          "name": "G2",
          "midi": 43,
          "time": 85.125,
          "velocity": 0.7559055118110236,
          "duration": 0.37421874999999716
        },
        {
          "name": "G3",
          "midi": 55,
          "time": 85.125,
          "velocity": 0.7559055118110236,
          "duration": 0.37421874999999716
        },
        {
          "name": "A2",
          "midi": 45,
          "time": 85.5,
          "velocity": 0.7559055118110236,
          "duration": 0.37421874999999716
        },
        {
          "name": "A3",
          "midi": 57,
          "time": 85.5,
          "velocity": 0.7559055118110236,
          "duration": 0.37421874999999716
        },
        {
          "name": "A2",
          "midi": 45,
          "time": 85.875,
          "velocity": 0.7559055118110236,
          "duration": 0.37421874999999716
        },
        {
          "name": "A3",
          "midi": 57,
          "time": 85.875,
          "velocity": 0.7559055118110236,
          "duration": 0.37421874999999716
        },
        {
          "name": "A2",
          "midi": 45,
          "time": 86.25,
          "velocity": 0.7559055118110236,
          "duration": 0.37421874999999716
        },
        {
          "name": "A3",
          "midi": 57,
          "time": 86.25,
          "velocity": 0.7559055118110236,
          "duration": 0.37421874999999716
        },
        {
          "name": "G2",
          "midi": 43,
          "time": 86.625,
          "velocity": 0.7559055118110236,
          "duration": 0.37421874999999716
        },
        {
          "name": "G3",
          "midi": 55,
          "time": 86.625,
          "velocity": 0.7559055118110236,
          "duration": 0.37421874999999716
        },
        {
          "name": "F2",
          "midi": 41,
          "time": 87,
          "velocity": 0.7559055118110236,
          "duration": 0.37421874999999716
        },
        {
          "name": "F3",
          "midi": 53,
          "time": 87,
          "velocity": 0.7559055118110236,
          "duration": 0.37421874999999716
        },
        {
          "name": "F2",
          "midi": 41,
          "time": 87.375,
          "velocity": 0.7559055118110236,
          "duration": 0.37421874999999716
        },
        {
          "name": "F3",
          "midi": 53,
          "time": 87.375,
          "velocity": 0.7559055118110236,
          "duration": 0.37421874999999716
        },
        {
          "name": "G2",
          "midi": 43,
          "time": 87.75,
          "velocity": 0.7559055118110236,
          "duration": 0.37421874999999716
        },
        {
          "name": "G3",
          "midi": 55,
          "time": 87.75,
          "velocity": 0.7559055118110236,
          "duration": 0.37421874999999716
        },
        {
          "name": "G2",
          "midi": 43,
          "time": 88.125,
          "velocity": 0.7559055118110236,
          "duration": 0.37421874999999716
        },
        {
          "name": "G3",
          "midi": 55,
          "time": 88.125,
          "velocity": 0.7559055118110236,
          "duration": 0.37421874999999716
        },
        {
          "name": "A2",
          "midi": 45,
          "time": 88.5,
          "velocity": 0.7559055118110236,
          "duration": 0.37421874999999716
        },
        {
          "name": "A3",
          "midi": 57,
          "time": 88.5,
          "velocity": 0.7559055118110236,
          "duration": 0.37421874999999716
        },
        {
          "name": "A2",
          "midi": 45,
          "time": 88.875,
          "velocity": 0.7559055118110236,
          "duration": 0.37421874999999716
        },
        {
          "name": "A3",
          "midi": 57,
          "time": 88.875,
          "velocity": 0.7559055118110236,
          "duration": 0.37421874999999716
        },
        {
          "name": "A2",
          "midi": 45,
          "time": 89.25,
          "velocity": 0.7559055118110236,
          "duration": 0.37421874999999716
        },
        {
          "name": "A3",
          "midi": 57,
          "time": 89.25,
          "velocity": 0.7559055118110236,
          "duration": 0.37421874999999716
        },
        {
          "name": "G2",
          "midi": 43,
          "time": 89.625,
          "velocity": 0.7559055118110236,
          "duration": 0.37421874999999716
        },
        {
          "name": "G3",
          "midi": 55,
          "time": 89.625,
          "velocity": 0.7559055118110236,
          "duration": 0.37421874999999716
        },
        {
          "name": "F2",
          "midi": 41,
          "time": 90,
          "velocity": 0.7559055118110236,
          "duration": 0.37421874999999716
        },
        {
          "name": "F3",
          "midi": 53,
          "time": 90,
          "velocity": 0.7559055118110236,
          "duration": 0.37421874999999716
        },
        {
          "name": "F2",
          "midi": 41,
          "time": 90.375,
          "velocity": 0.7559055118110236,
          "duration": 0.37421874999999716
        },
        {
          "name": "F3",
          "midi": 53,
          "time": 90.375,
          "velocity": 0.7559055118110236,
          "duration": 0.37421874999999716
        },
        {
          "name": "G2",
          "midi": 43,
          "time": 90.75,
          "velocity": 0.7559055118110236,
          "duration": 0.37421874999999716
        },
        {
          "name": "G3",
          "midi": 55,
          "time": 90.75,
          "velocity": 0.7559055118110236,
          "duration": 0.37421874999999716
        },
        {
          "name": "G2",
          "midi": 43,
          "time": 91.125,
          "velocity": 0.7559055118110236,
          "duration": 0.37421874999999716
        },
        {
          "name": "G3",
          "midi": 55,
          "time": 91.125,
          "velocity": 0.7559055118110236,
          "duration": 0.37421874999999716
        },
        {
          "name": "A2",
          "midi": 45,
          "time": 91.5,
          "velocity": 0.7559055118110236,
          "duration": 0.37421874999999716
        },
        {
          "name": "A3",
          "midi": 57,
          "time": 91.5,
          "velocity": 0.7559055118110236,
          "duration": 0.37421874999999716
        },
        {
          "name": "A2",
          "midi": 45,
          "time": 91.875,
          "velocity": 0.7559055118110236,
          "duration": 0.37421874999999716
        },
        {
          "name": "A3",
          "midi": 57,
          "time": 91.875,
          "velocity": 0.7559055118110236,
          "duration": 0.37421874999999716
        },
        {
          "name": "A2",
          "midi": 45,
          "time": 92.25,
          "velocity": 0.7559055118110236,
          "duration": 0.37421874999999716
        },
        {
          "name": "A3",
          "midi": 57,
          "time": 92.25,
          "velocity": 0.7559055118110236,
          "duration": 0.37421874999999716
        },
        {
          "name": "G2",
          "midi": 43,
          "time": 92.625,
          "velocity": 0.7559055118110236,
          "duration": 0.37421874999999716
        },
        {
          "name": "G3",
          "midi": 55,
          "time": 92.625,
          "velocity": 0.7559055118110236,
          "duration": 0.37421874999999716
        },
        {
          "name": "D2",
          "midi": 38,
          "time": 93,
          "velocity": 0.7559055118110236,
          "duration": 0.37421874999999716
        },
        {
          "name": "D3",
          "midi": 50,
          "time": 93,
          "velocity": 0.7559055118110236,
          "duration": 0.37421874999999716
        },
        {
          "name": "D2",
          "midi": 38,
          "time": 93.375,
          "velocity": 0.7559055118110236,
          "duration": 0.37421874999999716
        },
        {
          "name": "D3",
          "midi": 50,
          "time": 93.375,
          "velocity": 0.7559055118110236,
          "duration": 0.37421874999999716
        },
        {
          "name": "D2",
          "midi": 38,
          "time": 93.75,
          "velocity": 0.7559055118110236,
          "duration": 0.37421874999999716
        },
        {
          "name": "D3",
          "midi": 50,
          "time": 93.75,
          "velocity": 0.7559055118110236,
          "duration": 0.37421874999999716
        },
        {
          "name": "D2",
          "midi": 38,
          "time": 94.125,
          "velocity": 0.7559055118110236,
          "duration": 0.37421874999999716
        },
        {
          "name": "D3",
          "midi": 50,
          "time": 94.125,
          "velocity": 0.7559055118110236,
          "duration": 0.37421874999999716
        },
        {
          "name": "C3",
          "midi": 48,
          "time": 94.5,
          "velocity": 0.7559055118110236,
          "duration": 0.18671874999999716
        },
        {
          "name": "E3",
          "midi": 52,
          "time": 94.5,
          "velocity": 0.7559055118110236,
          "duration": 0.18671874999999716
        },
        {
          "name": "B2",
          "midi": 47,
          "time": 94.6875,
          "velocity": 0.7559055118110236,
          "duration": 0.18671874999999716
        },
        {
          "name": "D#3",
          "midi": 51,
          "time": 94.6875,
          "velocity": 0.7559055118110236,
          "duration": 0.18671874999999716
        },
        {
          "name": "A#2",
          "midi": 46,
          "time": 94.875,
          "velocity": 0.7559055118110236,
          "duration": 0.18671874999999716
        },
        {
          "name": "D3",
          "midi": 50,
          "time": 94.875,
          "velocity": 0.7559055118110236,
          "duration": 0.18671874999999716
        },
        {
          "name": "A2",
          "midi": 45,
          "time": 95.0625,
          "velocity": 0.7559055118110236,
          "duration": 0.18671874999999716
        },
        {
          "name": "C#3",
          "midi": 49,
          "time": 95.0625,
          "velocity": 0.7559055118110236,
          "duration": 0.18671874999999716
        },
        {
          "name": "G#2",
          "midi": 44,
          "time": 95.25,
          "velocity": 0.7559055118110236,
          "duration": 0.18671874999999716
        },
        {
          "name": "C3",
          "midi": 48,
          "time": 95.25,
          "velocity": 0.7559055118110236,
          "duration": 0.18671874999999716
        },
        {
          "name": "A2",
          "midi": 45,
          "time": 95.4375,
          "velocity": 0.7559055118110236,
          "duration": 0.18671874999999716
        },
        {
          "name": "C#3",
          "midi": 49,
          "time": 95.4375,
          "velocity": 0.7559055118110236,
          "duration": 0.18671874999999716
        },
        {
          "name": "A#2",
          "midi": 46,
          "time": 95.625,
          "velocity": 0.7559055118110236,
          "duration": 0.18671874999999716
        },
        {
          "name": "D3",
          "midi": 50,
          "time": 95.625,
          "velocity": 0.7559055118110236,
          "duration": 0.18671874999999716
        },
        {
          "name": "B2",
          "midi": 47,
          "time": 95.8125,
          "velocity": 0.7559055118110236,
          "duration": 0.18671874999999716
        },
        {
          "name": "D#3",
          "midi": 51,
          "time": 95.8125,
          "velocity": 0.7559055118110236,
          "duration": 0.18671874999999716
        },
        {
          "name": "A2",
          "midi": 45,
          "time": 96,
          "velocity": 0.7559055118110236,
          "duration": 0.18671874999999716
        },
        {
          "name": "A3",
          "midi": 57,
          "time": 96.1875,
          "velocity": 0.7559055118110236,
          "duration": 0.18671874999999716
        },
        {
          "name": "A2",
          "midi": 45,
          "time": 96.375,
          "velocity": 0.7559055118110236,
          "duration": 0.18671874999999716
        },
        {
          "name": "A3",
          "midi": 57,
          "time": 96.5625,
          "velocity": 0.7559055118110236,
          "duration": 0.18671874999999716
        },
        {
          "name": "A2",
          "midi": 45,
          "time": 96.75,
          "velocity": 0.7559055118110236,
          "duration": 0.18671874999999716
        },
        {
          "name": "A3",
          "midi": 57,
          "time": 96.9375,
          "velocity": 0.7559055118110236,
          "duration": 0.18671874999999716
        },
        {
          "name": "A2",
          "midi": 45,
          "time": 97.125,
          "velocity": 0.7559055118110236,
          "duration": 0.18671874999999716
        },
        {
          "name": "A3",
          "midi": 57,
          "time": 97.3125,
          "velocity": 0.7559055118110236,
          "duration": 0.18671874999999716
        },
        {
          "name": "A2",
          "midi": 45,
          "time": 97.5,
          "velocity": 0.7559055118110236,
          "duration": 0.18671874999999716
        },
        {
          "name": "A3",
          "midi": 57,
          "time": 97.6875,
          "velocity": 0.7559055118110236,
          "duration": 0.18671874999999716
        },
        {
          "name": "A2",
          "midi": 45,
          "time": 97.875,
          "velocity": 0.7559055118110236,
          "duration": 0.18671874999999716
        },
        {
          "name": "A3",
          "midi": 57,
          "time": 98.0625,
          "velocity": 0.7559055118110236,
          "duration": 0.18671874999999716
        },
        {
          "name": "A2",
          "midi": 45,
          "time": 98.25,
          "velocity": 0.7559055118110236,
          "duration": 0.18671874999999716
        },
        {
          "name": "A3",
          "midi": 57,
          "time": 98.4375,
          "velocity": 0.7559055118110236,
          "duration": 0.18671874999999716
        },
        {
          "name": "G2",
          "midi": 43,
          "time": 98.625,
          "velocity": 0.7559055118110236,
          "duration": 0.18671874999999716
        },
        {
          "name": "G3",
          "midi": 55,
          "time": 98.8125,
          "velocity": 0.7559055118110236,
          "duration": 0.18671874999999716
        },
        {
          "name": "F2",
          "midi": 41,
          "time": 99,
          "velocity": 0.7559055118110236,
          "duration": 0.18671874999999716
        },
        {
          "name": "F3",
          "midi": 53,
          "time": 99.1875,
          "velocity": 0.7559055118110236,
          "duration": 0.18671874999999716
        },
        {
          "name": "F2",
          "midi": 41,
          "time": 99.375,
          "velocity": 0.7559055118110236,
          "duration": 0.18671874999999716
        },
        {
          "name": "F3",
          "midi": 53,
          "time": 99.5625,
          "velocity": 0.7559055118110236,
          "duration": 0.18671874999999716
        },
        {
          "name": "F2",
          "midi": 41,
          "time": 99.75,
          "velocity": 0.7559055118110236,
          "duration": 0.18671874999999716
        },
        {
          "name": "F3",
          "midi": 53,
          "time": 99.9375,
          "velocity": 0.7559055118110236,
          "duration": 0.18671874999999716
        },
        {
          "name": "F2",
          "midi": 41,
          "time": 100.125,
          "velocity": 0.7559055118110236,
          "duration": 0.18671874999999716
        },
        {
          "name": "F3",
          "midi": 53,
          "time": 100.3125,
          "velocity": 0.7559055118110236,
          "duration": 0.18671874999999716
        },
        {
          "name": "F2",
          "midi": 41,
          "time": 100.5,
          "velocity": 0.7559055118110236,
          "duration": 0.18671874999999716
        },
        {
          "name": "F3",
          "midi": 53,
          "time": 100.6875,
          "velocity": 0.7559055118110236,
          "duration": 0.18671874999999716
        },
        {
          "name": "F2",
          "midi": 41,
          "time": 100.875,
          "velocity": 0.7559055118110236,
          "duration": 0.18671874999999716
        },
        {
          "name": "F3",
          "midi": 53,
          "time": 101.0625,
          "velocity": 0.7559055118110236,
          "duration": 0.18671874999999716
        },
        {
          "name": "E2",
          "midi": 40,
          "time": 101.25,
          "velocity": 0.7559055118110236,
          "duration": 0.18671874999999716
        },
        {
          "name": "E3",
          "midi": 52,
          "time": 101.4375,
          "velocity": 0.7559055118110236,
          "duration": 0.18671874999999716
        },
        {
          "name": "E2",
          "midi": 40,
          "time": 101.625,
          "velocity": 0.7559055118110236,
          "duration": 0.18671874999999716
        },
        {
          "name": "E3",
          "midi": 52,
          "time": 101.8125,
          "velocity": 0.7559055118110236,
          "duration": 0.18671874999999716
        },
        {
          "name": "A2",
          "midi": 45,
          "time": 102,
          "velocity": 0.7559055118110236,
          "duration": 0.18671874999999716
        },
        {
          "name": "A3",
          "midi": 57,
          "time": 102.1875,
          "velocity": 0.7559055118110236,
          "duration": 0.18671874999999716
        },
        {
          "name": "A2",
          "midi": 45,
          "time": 102.375,
          "velocity": 0.7559055118110236,
          "duration": 0.18671874999999716
        },
        {
          "name": "A3",
          "midi": 57,
          "time": 102.5625,
          "velocity": 0.7559055118110236,
          "duration": 0.18671874999999716
        },
        {
          "name": "A2",
          "midi": 45,
          "time": 102.75,
          "velocity": 0.7559055118110236,
          "duration": 0.18671874999999716
        },
        {
          "name": "A3",
          "midi": 57,
          "time": 102.9375,
          "velocity": 0.7559055118110236,
          "duration": 0.18671874999999716
        },
        {
          "name": "A2",
          "midi": 45,
          "time": 103.125,
          "velocity": 0.7559055118110236,
          "duration": 0.18671874999999716
        },
        {
          "name": "A3",
          "midi": 57,
          "time": 103.3125,
          "velocity": 0.7559055118110236,
          "duration": 0.18671874999999716
        },
        {
          "name": "A2",
          "midi": 45,
          "time": 103.5,
          "velocity": 0.7559055118110236,
          "duration": 0.18671874999999716
        },
        {
          "name": "A3",
          "midi": 57,
          "time": 103.6875,
          "velocity": 0.7559055118110236,
          "duration": 0.18671874999999716
        },
        {
          "name": "A2",
          "midi": 45,
          "time": 103.875,
          "velocity": 0.7559055118110236,
          "duration": 0.18671874999999716
        },
        {
          "name": "A3",
          "midi": 57,
          "time": 104.0625,
          "velocity": 0.7559055118110236,
          "duration": 0.18671874999999716
        },
        {
          "name": "A2",
          "midi": 45,
          "time": 104.25,
          "velocity": 0.7559055118110236,
          "duration": 0.18671874999999716
        },
        {
          "name": "A3",
          "midi": 57,
          "time": 104.4375,
          "velocity": 0.7559055118110236,
          "duration": 0.18671874999999716
        },
        {
          "name": "G2",
          "midi": 43,
          "time": 104.625,
          "velocity": 0.7559055118110236,
          "duration": 0.18671874999999716
        },
        {
          "name": "G3",
          "midi": 55,
          "time": 104.8125,
          "velocity": 0.7559055118110236,
          "duration": 0.18671874999999716
        },
        {
          "name": "F2",
          "midi": 41,
          "time": 105,
          "velocity": 0.7559055118110236,
          "duration": 0.18671874999999716
        },
        {
          "name": "F3",
          "midi": 53,
          "time": 105.1875,
          "velocity": 0.7559055118110236,
          "duration": 0.18671874999999716
        },
        {
          "name": "F2",
          "midi": 41,
          "time": 105.375,
          "velocity": 0.7559055118110236,
          "duration": 0.18671874999999716
        },
        {
          "name": "F3",
          "midi": 53,
          "time": 105.5625,
          "velocity": 0.7559055118110236,
          "duration": 0.18671874999999716
        },
        {
          "name": "F2",
          "midi": 41,
          "time": 105.75,
          "velocity": 0.7559055118110236,
          "duration": 0.18671874999999716
        },
        {
          "name": "F3",
          "midi": 53,
          "time": 105.9375,
          "velocity": 0.7559055118110236,
          "duration": 0.18671874999999716
        },
        {
          "name": "F2",
          "midi": 41,
          "time": 106.125,
          "velocity": 0.7559055118110236,
          "duration": 0.18671874999999716
        },
        {
          "name": "F3",
          "midi": 53,
          "time": 106.3125,
          "velocity": 0.7559055118110236,
          "duration": 0.18671874999999716
        },
        {
          "name": "F2",
          "midi": 41,
          "time": 106.5,
          "velocity": 0.7559055118110236,
          "duration": 0.18671874999999716
        },
        {
          "name": "F3",
          "midi": 53,
          "time": 106.6875,
          "velocity": 0.7559055118110236,
          "duration": 0.18671874999999716
        },
        {
          "name": "F2",
          "midi": 41,
          "time": 106.875,
          "velocity": 0.7559055118110236,
          "duration": 0.18671874999999716
        },
        {
          "name": "F3",
          "midi": 53,
          "time": 107.0625,
          "velocity": 0.7559055118110236,
          "duration": 0.18671874999999716
        },
        {
          "name": "E2",
          "midi": 40,
          "time": 107.25,
          "velocity": 0.7559055118110236,
          "duration": 0.18671874999999716
        },
        {
          "name": "E3",
          "midi": 52,
          "time": 107.4375,
          "velocity": 0.7559055118110236,
          "duration": 0.18671874999999716
        },
        {
          "name": "E2",
          "midi": 40,
          "time": 107.625,
          "velocity": 0.7559055118110236,
          "duration": 0.18671874999999716
        },
        {
          "name": "E3",
          "midi": 52,
          "time": 107.8125,
          "velocity": 0.7559055118110236,
          "duration": 0.18671874999999716
        },
        {
          "name": "F2",
          "midi": 41,
          "time": 108,
          "velocity": 0.7559055118110236,
          "duration": 0.18671874999999716
        },
        {
          "name": "F3",
          "midi": 53,
          "time": 108.1875,
          "velocity": 0.7559055118110236,
          "duration": 0.18671874999999716
        },
        {
          "name": "F2",
          "midi": 41,
          "time": 108.375,
          "velocity": 0.7559055118110236,
          "duration": 0.18671874999999716
        },
        {
          "name": "F3",
          "midi": 53,
          "time": 108.5625,
          "velocity": 0.7559055118110236,
          "duration": 0.18671874999999716
        },
        {
          "name": "F2",
          "midi": 41,
          "time": 108.75,
          "velocity": 0.7559055118110236,
          "duration": 0.18671874999999716
        },
        {
          "name": "F3",
          "midi": 53,
          "time": 108.9375,
          "velocity": 0.7559055118110236,
          "duration": 0.18671874999999716
        },
        {
          "name": "F2",
          "midi": 41,
          "time": 109.125,
          "velocity": 0.7559055118110236,
          "duration": 0.18671874999999716
        },
        {
          "name": "F3",
          "midi": 53,
          "time": 109.3125,
          "velocity": 0.7559055118110236,
          "duration": 0.18671874999999716
        },
        {
          "name": "G2",
          "midi": 43,
          "time": 109.5,
          "velocity": 0.7559055118110236,
          "duration": 0.18671874999999716
        },
        {
          "name": "G3",
          "midi": 55,
          "time": 109.6875,
          "velocity": 0.7559055118110236,
          "duration": 0.18671874999999716
        },
        {
          "name": "G2",
          "midi": 43,
          "time": 109.875,
          "velocity": 0.7559055118110236,
          "duration": 0.18671874999999716
        },
        {
          "name": "G3",
          "midi": 55,
          "time": 110.0625,
          "velocity": 0.7559055118110236,
          "duration": 0.18671874999999716
        },
        {
          "name": "G2",
          "midi": 43,
          "time": 110.25,
          "velocity": 0.7559055118110236,
          "duration": 0.18671874999999716
        },
        {
          "name": "G3",
          "midi": 55,
          "time": 110.4375,
          "velocity": 0.7559055118110236,
          "duration": 0.18671874999999716
        },
        {
          "name": "G2",
          "midi": 43,
          "time": 110.625,
          "velocity": 0.7559055118110236,
          "duration": 0.18671874999999716
        },
        {
          "name": "G3",
          "midi": 55,
          "time": 110.8125,
          "velocity": 0.7559055118110236,
          "duration": 0.18671874999999716
        },
        {
          "name": "A2",
          "midi": 45,
          "time": 111,
          "velocity": 0.7559055118110236,
          "duration": 0.18671874999999716
        },
        {
          "name": "A3",
          "midi": 57,
          "time": 111.1875,
          "velocity": 0.7559055118110236,
          "duration": 0.18671874999999716
        },
        {
          "name": "A2",
          "midi": 45,
          "time": 111.375,
          "velocity": 0.7559055118110236,
          "duration": 0.18671874999999716
        },
        {
          "name": "A3",
          "midi": 57,
          "time": 111.5625,
          "velocity": 0.7559055118110236,
          "duration": 0.18671874999999716
        },
        {
          "name": "A2",
          "midi": 45,
          "time": 111.75,
          "velocity": 0.7559055118110236,
          "duration": 0.18671874999999716
        },
        {
          "name": "A3",
          "midi": 57,
          "time": 111.9375,
          "velocity": 0.7559055118110236,
          "duration": 0.18671874999999716
        },
        {
          "name": "A2",
          "midi": 45,
          "time": 112.125,
          "velocity": 0.7559055118110236,
          "duration": 0.18671874999999716
        },
        {
          "name": "A3",
          "midi": 57,
          "time": 112.3125,
          "velocity": 0.7559055118110236,
          "duration": 0.18671874999999716
        },
        {
          "name": "A2",
          "midi": 45,
          "time": 112.5,
          "velocity": 0.7559055118110236,
          "duration": 0.18671874999999716
        },
        {
          "name": "A3",
          "midi": 57,
          "time": 112.6875,
          "velocity": 0.7559055118110236,
          "duration": 0.18671874999999716
        },
        {
          "name": "A2",
          "midi": 45,
          "time": 112.875,
          "velocity": 0.7559055118110236,
          "duration": 0.18671874999999716
        },
        {
          "name": "A3",
          "midi": 57,
          "time": 113.0625,
          "velocity": 0.7559055118110236,
          "duration": 0.18671874999999716
        },
        {
          "name": "G2",
          "midi": 43,
          "time": 113.25,
          "velocity": 0.7559055118110236,
          "duration": 0.18671874999999716
        },
        {
          "name": "G3",
          "midi": 55,
          "time": 113.4375,
          "velocity": 0.7559055118110236,
          "duration": 0.18671874999999716
        },
        {
          "name": "G2",
          "midi": 43,
          "time": 113.625,
          "velocity": 0.7559055118110236,
          "duration": 0.18671874999999716
        },
        {
          "name": "G3",
          "midi": 55,
          "time": 113.8125,
          "velocity": 0.7559055118110236,
          "duration": 0.18671874999999716
        },
        {
          "name": "F2",
          "midi": 41,
          "time": 114,
          "velocity": 0.7559055118110236,
          "duration": 0.18671874999999716
        },
        {
          "name": "F3",
          "midi": 53,
          "time": 114.1875,
          "velocity": 0.7559055118110236,
          "duration": 0.18671874999999716
        },
        {
          "name": "F2",
          "midi": 41,
          "time": 114.375,
          "velocity": 0.7559055118110236,
          "duration": 0.18671874999999716
        },
        {
          "name": "F3",
          "midi": 53,
          "time": 114.5625,
          "velocity": 0.7559055118110236,
          "duration": 0.18671874999999716
        },
        {
          "name": "F2",
          "midi": 41,
          "time": 114.75,
          "velocity": 0.7559055118110236,
          "duration": 0.18671874999999716
        },
        {
          "name": "F3",
          "midi": 53,
          "time": 114.9375,
          "velocity": 0.7559055118110236,
          "duration": 0.18671874999999716
        },
        {
          "name": "F2",
          "midi": 41,
          "time": 115.125,
          "velocity": 0.7559055118110236,
          "duration": 0.18671874999999716
        },
        {
          "name": "F3",
          "midi": 53,
          "time": 115.3125,
          "velocity": 0.7559055118110236,
          "duration": 0.18671874999999716
        },
        {
          "name": "G2",
          "midi": 43,
          "time": 115.5,
          "velocity": 0.7559055118110236,
          "duration": 0.18671874999999716
        },
        {
          "name": "G3",
          "midi": 55,
          "time": 115.6875,
          "velocity": 0.7559055118110236,
          "duration": 0.18671874999999716
        },
        {
          "name": "G2",
          "midi": 43,
          "time": 115.875,
          "velocity": 0.7559055118110236,
          "duration": 0.18671874999999716
        },
        {
          "name": "G3",
          "midi": 55,
          "time": 116.0625,
          "velocity": 0.7559055118110236,
          "duration": 0.18671874999999716
        },
        {
          "name": "G2",
          "midi": 43,
          "time": 116.25,
          "velocity": 0.7559055118110236,
          "duration": 0.18671874999999716
        },
        {
          "name": "G3",
          "midi": 55,
          "time": 116.4375,
          "velocity": 0.7559055118110236,
          "duration": 0.18671874999999716
        },
        {
          "name": "G2",
          "midi": 43,
          "time": 116.625,
          "velocity": 0.7559055118110236,
          "duration": 0.18671874999999716
        },
        {
          "name": "G3",
          "midi": 55,
          "time": 116.8125,
          "velocity": 0.7559055118110236,
          "duration": 0.18671874999999716
        },
        {
          "name": "D2",
          "midi": 38,
          "time": 117,
          "velocity": 0.7559055118110236,
          "duration": 0.18671874999999716
        },
        {
          "name": "D3",
          "midi": 50,
          "time": 117.1875,
          "velocity": 0.7559055118110236,
          "duration": 0.18671874999999716
        },
        {
          "name": "D2",
          "midi": 38,
          "time": 117.375,
          "velocity": 0.7559055118110236,
          "duration": 0.18671874999999716
        },
        {
          "name": "D3",
          "midi": 50,
          "time": 117.5625,
          "velocity": 0.7559055118110236,
          "duration": 0.18671874999999716
        },
        {
          "name": "D2",
          "midi": 38,
          "time": 117.75,
          "velocity": 0.7559055118110236,
          "duration": 0.18671874999999716
        },
        {
          "name": "D3",
          "midi": 50,
          "time": 117.9375,
          "velocity": 0.7559055118110236,
          "duration": 0.18671874999999716
        },
        {
          "name": "D2",
          "midi": 38,
          "time": 118.125,
          "velocity": 0.7559055118110236,
          "duration": 0.18671874999999716
        },
        {
          "name": "D3",
          "midi": 50,
          "time": 118.3125,
          "velocity": 0.7559055118110236,
          "duration": 0.18671874999999716
        },
        {
          "name": "D2",
          "midi": 38,
          "time": 118.5,
          "velocity": 0.7559055118110236,
          "duration": 0.18671874999999716
        },
        {
          "name": "D3",
          "midi": 50,
          "time": 118.6875,
          "velocity": 0.7716535433070866,
          "duration": 0.18671874999999716
        },
        {
          "name": "E2",
          "midi": 40,
          "time": 118.875,
          "velocity": 0.7874015748031497,
          "duration": 0.18671874999999716
        },
        {
          "name": "E3",
          "midi": 52,
          "time": 119.0625,
          "velocity": 0.8031496062992126,
          "duration": 0.18671874999999716
        },
        {
          "name": "F2",
          "midi": 41,
          "time": 119.25,
          "velocity": 0.8188976377952756,
          "duration": 0.18671874999999716
        },
        {
          "name": "F3",
          "midi": 53,
          "time": 119.4375,
          "velocity": 0.8346456692913385,
          "duration": 0.18671874999999716
        },
        {
          "name": "G2",
          "midi": 43,
          "time": 119.625,
          "velocity": 0.8503937007874016,
          "duration": 0.18671874999999716
        },
        {
          "name": "G3",
          "midi": 55,
          "time": 119.8125,
          "velocity": 0.8661417322834646,
          "duration": 0.18671874999999716
        },
        {
          "name": "F2",
          "midi": 41,
          "time": 120,
          "velocity": 0.8818897637795275,
          "duration": 0.18671874999999716
        },
        {
          "name": "F3",
          "midi": 53,
          "time": 120.1875,
          "velocity": 0.8818897637795275,
          "duration": 0.18671874999999716
        },
        {
          "name": "F2",
          "midi": 41,
          "time": 120.375,
          "velocity": 0.8818897637795275,
          "duration": 0.18671874999999716
        },
        {
          "name": "F3",
          "midi": 53,
          "time": 120.5625,
          "velocity": 0.8818897637795275,
          "duration": 0.18671874999999716
        },
        {
          "name": "G2",
          "midi": 43,
          "time": 120.75,
          "velocity": 0.8818897637795275,
          "duration": 0.18671874999999716
        },
        {
          "name": "G3",
          "midi": 55,
          "time": 120.9375,
          "velocity": 0.8818897637795275,
          "duration": 0.18671874999999716
        },
        {
          "name": "G2",
          "midi": 43,
          "time": 121.125,
          "velocity": 0.8818897637795275,
          "duration": 0.18671874999999716
        },
        {
          "name": "G3",
          "midi": 55,
          "time": 121.3125,
          "velocity": 0.8818897637795275,
          "duration": 0.18671874999999716
        },
        {
          "name": "A2",
          "midi": 45,
          "time": 121.5,
          "velocity": 0.8818897637795275,
          "duration": 0.18671874999999716
        },
        {
          "name": "A3",
          "midi": 57,
          "time": 121.6875,
          "velocity": 0.8818897637795275,
          "duration": 0.18671874999999716
        },
        {
          "name": "A2",
          "midi": 45,
          "time": 121.875,
          "velocity": 0.8818897637795275,
          "duration": 0.18671874999999716
        },
        {
          "name": "A3",
          "midi": 57,
          "time": 122.0625,
          "velocity": 0.8818897637795275,
          "duration": 0.18671874999999716
        },
        {
          "name": "A2",
          "midi": 45,
          "time": 122.25,
          "velocity": 0.8818897637795275,
          "duration": 0.18671874999999716
        },
        {
          "name": "A3",
          "midi": 57,
          "time": 122.4375,
          "velocity": 0.8818897637795275,
          "duration": 0.18671874999999716
        },
        {
          "name": "A2",
          "midi": 45,
          "time": 122.625,
          "velocity": 0.8818897637795275,
          "duration": 0.18671874999999716
        },
        {
          "name": "A3",
          "midi": 57,
          "time": 122.8125,
          "velocity": 0.8818897637795275,
          "duration": 0.18671874999999716
        },
        {
          "name": "F2",
          "midi": 41,
          "time": 123,
          "velocity": 0.8818897637795275,
          "duration": 0.18671874999999716
        },
        {
          "name": "F3",
          "midi": 53,
          "time": 123.1875,
          "velocity": 0.8818897637795275,
          "duration": 0.18671874999999716
        },
        {
          "name": "F2",
          "midi": 41,
          "time": 123.375,
          "velocity": 0.8818897637795275,
          "duration": 0.18671874999999716
        },
        {
          "name": "F3",
          "midi": 53,
          "time": 123.5625,
          "velocity": 0.8818897637795275,
          "duration": 0.18671874999999716
        },
        {
          "name": "G2",
          "midi": 43,
          "time": 123.75,
          "velocity": 0.8818897637795275,
          "duration": 0.18671874999999716
        },
        {
          "name": "G3",
          "midi": 55,
          "time": 123.9375,
          "velocity": 0.8818897637795275,
          "duration": 0.18671874999999716
        },
        {
          "name": "G2",
          "midi": 43,
          "time": 124.125,
          "velocity": 0.8818897637795275,
          "duration": 0.18671874999999716
        },
        {
          "name": "G3",
          "midi": 55,
          "time": 124.3125,
          "velocity": 0.8818897637795275,
          "duration": 0.18671874999999716
        },
        {
          "name": "A2",
          "midi": 45,
          "time": 124.5,
          "velocity": 0.8818897637795275,
          "duration": 0.18671874999999716
        },
        {
          "name": "A3",
          "midi": 57,
          "time": 124.6875,
          "velocity": 0.8818897637795275,
          "duration": 0.18671874999999716
        },
        {
          "name": "A2",
          "midi": 45,
          "time": 124.875,
          "velocity": 0.8818897637795275,
          "duration": 0.18671874999999716
        },
        {
          "name": "A3",
          "midi": 57,
          "time": 125.0625,
          "velocity": 0.8818897637795275,
          "duration": 0.18671874999999716
        },
        {
          "name": "A2",
          "midi": 45,
          "time": 125.25,
          "velocity": 0.8818897637795275,
          "duration": 0.18671874999999716
        },
        {
          "name": "A3",
          "midi": 57,
          "time": 125.4375,
          "velocity": 0.8818897637795275,
          "duration": 0.18671874999999716
        },
        {
          "name": "A2",
          "midi": 45,
          "time": 125.625,
          "velocity": 0.8818897637795275,
          "duration": 0.18671874999999716
        },
        {
          "name": "A3",
          "midi": 57,
          "time": 125.8125,
          "velocity": 0.8818897637795275,
          "duration": 0.18671874999999716
        },
        {
          "name": "F2",
          "midi": 41,
          "time": 126,
          "velocity": 0.8818897637795275,
          "duration": 0.18671874999999716
        },
        {
          "name": "F3",
          "midi": 53,
          "time": 126.1875,
          "velocity": 0.8818897637795275,
          "duration": 0.18671874999999716
        },
        {
          "name": "F2",
          "midi": 41,
          "time": 126.375,
          "velocity": 0.8818897637795275,
          "duration": 0.18671874999999716
        },
        {
          "name": "F3",
          "midi": 53,
          "time": 126.5625,
          "velocity": 0.8818897637795275,
          "duration": 0.18671874999999716
        },
        {
          "name": "G2",
          "midi": 43,
          "time": 126.75,
          "velocity": 0.8818897637795275,
          "duration": 0.18671874999999716
        },
        {
          "name": "G3",
          "midi": 55,
          "time": 126.9375,
          "velocity": 0.8818897637795275,
          "duration": 0.18671874999999716
        },
        {
          "name": "G2",
          "midi": 43,
          "time": 127.125,
          "velocity": 0.8818897637795275,
          "duration": 0.18671874999999716
        },
        {
          "name": "G3",
          "midi": 55,
          "time": 127.3125,
          "velocity": 0.8818897637795275,
          "duration": 0.18671874999999716
        },
        {
          "name": "A2",
          "midi": 45,
          "time": 127.5,
          "velocity": 0.8818897637795275,
          "duration": 0.18671874999999716
        },
        {
          "name": "A3",
          "midi": 57,
          "time": 127.6875,
          "velocity": 0.8818897637795275,
          "duration": 0.18671874999999716
        },
        {
          "name": "A2",
          "midi": 45,
          "time": 127.875,
          "velocity": 0.8818897637795275,
          "duration": 0.18671875000001137
        },
        {
          "name": "A3",
          "midi": 57,
          "time": 128.0625,
          "velocity": 0.8818897637795275,
          "duration": 0.18671875000001137
        },
        {
          "name": "A2",
          "midi": 45,
          "time": 128.25,
          "velocity": 0.8818897637795275,
          "duration": 0.18671875000001137
        },
        {
          "name": "A3",
          "midi": 57,
          "time": 128.4375,
          "velocity": 0.8818897637795275,
          "duration": 0.18671875000001137
        },
        {
          "name": "A2",
          "midi": 45,
          "time": 128.625,
          "velocity": 0.8818897637795275,
          "duration": 0.18671875000001137
        },
        {
          "name": "A3",
          "midi": 57,
          "time": 128.8125,
          "velocity": 0.8818897637795275,
          "duration": 0.18671875000001137
        },
        {
          "name": "F2",
          "midi": 41,
          "time": 129,
          "velocity": 0.8818897637795275,
          "duration": 0.18671875000001137
        },
        {
          "name": "F3",
          "midi": 53,
          "time": 129.1875,
          "velocity": 0.8818897637795275,
          "duration": 0.18671875000001137
        },
        {
          "name": "F2",
          "midi": 41,
          "time": 129.375,
          "velocity": 0.8818897637795275,
          "duration": 0.18671875000001137
        },
        {
          "name": "F3",
          "midi": 53,
          "time": 129.5625,
          "velocity": 0.8818897637795275,
          "duration": 0.18671875000001137
        },
        {
          "name": "F2",
          "midi": 41,
          "time": 129.75,
          "velocity": 0.8818897637795275,
          "duration": 0.18671875000001137
        },
        {
          "name": "F3",
          "midi": 53,
          "time": 129.9375,
          "velocity": 0.8818897637795275,
          "duration": 0.18671875000001137
        },
        {
          "name": "F2",
          "midi": 41,
          "time": 130.125,
          "velocity": 0.8818897637795275,
          "duration": 0.18671875000001137
        },
        {
          "name": "F3",
          "midi": 53,
          "time": 130.3125,
          "velocity": 0.8818897637795275,
          "duration": 0.18671875000001137
        },
        {
          "name": "G2",
          "midi": 43,
          "time": 130.5,
          "velocity": 0.8818897637795275,
          "duration": 0.18671875000001137
        },
        {
          "name": "G3",
          "midi": 55,
          "time": 130.6875,
          "velocity": 0.8818897637795275,
          "duration": 0.18671875000001137
        },
        {
          "name": "G2",
          "midi": 43,
          "time": 130.875,
          "velocity": 0.8818897637795275,
          "duration": 0.18671875000001137
        },
        {
          "name": "G3",
          "midi": 55,
          "time": 131.0625,
          "velocity": 0.8818897637795275,
          "duration": 0.18671875000001137
        },
        {
          "name": "G2",
          "midi": 43,
          "time": 131.25,
          "velocity": 0.8818897637795275,
          "duration": 0.18671875000001137
        },
        {
          "name": "G3",
          "midi": 55,
          "time": 131.4375,
          "velocity": 0.8818897637795275,
          "duration": 0.18671875000001137
        },
        {
          "name": "G2",
          "midi": 43,
          "time": 131.625,
          "velocity": 0.8818897637795275,
          "duration": 0.18671875000001137
        },
        {
          "name": "G3",
          "midi": 55,
          "time": 131.8125,
          "velocity": 0.8818897637795275,
          "duration": 0.18671875000001137
        },
        {
          "name": "F2",
          "midi": 41,
          "time": 132,
          "velocity": 0.8818897637795275,
          "duration": 0.18671875000001137
        },
        {
          "name": "F3",
          "midi": 53,
          "time": 132.1875,
          "velocity": 0.8818897637795275,
          "duration": 0.18671875000001137
        },
        {
          "name": "F2",
          "midi": 41,
          "time": 132.375,
          "velocity": 0.8818897637795275,
          "duration": 0.18671875000001137
        },
        {
          "name": "F3",
          "midi": 53,
          "time": 132.5625,
          "velocity": 0.8818897637795275,
          "duration": 0.18671875000001137
        },
        {
          "name": "G2",
          "midi": 43,
          "time": 132.75,
          "velocity": 0.8818897637795275,
          "duration": 0.18671875000001137
        },
        {
          "name": "G3",
          "midi": 55,
          "time": 132.9375,
          "velocity": 0.8818897637795275,
          "duration": 0.18671875000001137
        },
        {
          "name": "G2",
          "midi": 43,
          "time": 133.125,
          "velocity": 0.8818897637795275,
          "duration": 0.18671875000001137
        },
        {
          "name": "G3",
          "midi": 55,
          "time": 133.3125,
          "velocity": 0.8818897637795275,
          "duration": 0.18671875000001137
        },
        {
          "name": "A2",
          "midi": 45,
          "time": 133.5,
          "velocity": 0.8818897637795275,
          "duration": 0.18671875000001137
        },
        {
          "name": "A3",
          "midi": 57,
          "time": 133.6875,
          "velocity": 0.8818897637795275,
          "duration": 0.18671875000001137
        },
        {
          "name": "A2",
          "midi": 45,
          "time": 133.875,
          "velocity": 0.8818897637795275,
          "duration": 0.18671875000001137
        },
        {
          "name": "A3",
          "midi": 57,
          "time": 134.0625,
          "velocity": 0.8818897637795275,
          "duration": 0.18671875000001137
        },
        {
          "name": "A2",
          "midi": 45,
          "time": 134.25,
          "velocity": 0.8818897637795275,
          "duration": 0.18671875000001137
        },
        {
          "name": "A3",
          "midi": 57,
          "time": 134.4375,
          "velocity": 0.8818897637795275,
          "duration": 0.18671875000001137
        },
        {
          "name": "A2",
          "midi": 45,
          "time": 134.625,
          "velocity": 0.8818897637795275,
          "duration": 0.18671875000001137
        },
        {
          "name": "A3",
          "midi": 57,
          "time": 134.8125,
          "velocity": 0.8818897637795275,
          "duration": 0.18671875000001137
        },
        {
          "name": "F2",
          "midi": 41,
          "time": 135,
          "velocity": 0.8818897637795275,
          "duration": 0.18671875000001137
        },
        {
          "name": "F3",
          "midi": 53,
          "time": 135.1875,
          "velocity": 0.8818897637795275,
          "duration": 0.18671875000001137
        },
        {
          "name": "F2",
          "midi": 41,
          "time": 135.375,
          "velocity": 0.8818897637795275,
          "duration": 0.18671875000001137
        },
        {
          "name": "F3",
          "midi": 53,
          "time": 135.5625,
          "velocity": 0.8818897637795275,
          "duration": 0.18671875000001137
        },
        {
          "name": "G2",
          "midi": 43,
          "time": 135.75,
          "velocity": 0.8818897637795275,
          "duration": 0.18671875000001137
        },
        {
          "name": "G3",
          "midi": 55,
          "time": 135.9375,
          "velocity": 0.8818897637795275,
          "duration": 0.18671875000001137
        },
        {
          "name": "G2",
          "midi": 43,
          "time": 136.125,
          "velocity": 0.8818897637795275,
          "duration": 0.18671875000001137
        },
        {
          "name": "G3",
          "midi": 55,
          "time": 136.3125,
          "velocity": 0.8818897637795275,
          "duration": 0.18671875000001137
        },
        {
          "name": "A2",
          "midi": 45,
          "time": 136.5,
          "velocity": 0.8818897637795275,
          "duration": 0.18671875000001137
        },
        {
          "name": "A3",
          "midi": 57,
          "time": 136.6875,
          "velocity": 0.8818897637795275,
          "duration": 0.18671875000001137
        },
        {
          "name": "A2",
          "midi": 45,
          "time": 136.875,
          "velocity": 0.8818897637795275,
          "duration": 0.18671875000001137
        },
        {
          "name": "A3",
          "midi": 57,
          "time": 137.0625,
          "velocity": 0.8818897637795275,
          "duration": 0.18671875000001137
        },
        {
          "name": "A2",
          "midi": 45,
          "time": 137.25,
          "velocity": 0.8818897637795275,
          "duration": 0.18671875000001137
        },
        {
          "name": "A3",
          "midi": 57,
          "time": 137.4375,
          "velocity": 0.8818897637795275,
          "duration": 0.18671875000001137
        },
        {
          "name": "A2",
          "midi": 45,
          "time": 137.625,
          "velocity": 0.8818897637795275,
          "duration": 0.18671875000001137
        },
        {
          "name": "A3",
          "midi": 57,
          "time": 137.8125,
          "velocity": 0.8818897637795275,
          "duration": 0.18671875000001137
        },
        {
          "name": "F2",
          "midi": 41,
          "time": 138,
          "velocity": 0.8818897637795275,
          "duration": 0.18671875000001137
        },
        {
          "name": "F3",
          "midi": 53,
          "time": 138.1875,
          "velocity": 0.8818897637795275,
          "duration": 0.18671875000001137
        },
        {
          "name": "F2",
          "midi": 41,
          "time": 138.375,
          "velocity": 0.8818897637795275,
          "duration": 0.18671875000001137
        },
        {
          "name": "F3",
          "midi": 53,
          "time": 138.5625,
          "velocity": 0.8818897637795275,
          "duration": 0.18671875000001137
        },
        {
          "name": "G2",
          "midi": 43,
          "time": 138.75,
          "velocity": 0.8818897637795275,
          "duration": 0.18671875000001137
        },
        {
          "name": "G3",
          "midi": 55,
          "time": 138.9375,
          "velocity": 0.8818897637795275,
          "duration": 0.18671875000001137
        },
        {
          "name": "G2",
          "midi": 43,
          "time": 139.125,
          "velocity": 0.8818897637795275,
          "duration": 0.18671875000001137
        },
        {
          "name": "G3",
          "midi": 55,
          "time": 139.3125,
          "velocity": 0.8818897637795275,
          "duration": 0.18671875000001137
        },
        {
          "name": "A2",
          "midi": 45,
          "time": 139.5,
          "velocity": 0.8818897637795275,
          "duration": 0.18671875000001137
        },
        {
          "name": "A3",
          "midi": 57,
          "time": 139.6875,
          "velocity": 0.8818897637795275,
          "duration": 0.18671875000001137
        },
        {
          "name": "A2",
          "midi": 45,
          "time": 139.875,
          "velocity": 0.8818897637795275,
          "duration": 0.18671875000001137
        },
        {
          "name": "A3",
          "midi": 57,
          "time": 140.0625,
          "velocity": 0.8818897637795275,
          "duration": 0.18671875000001137
        },
        {
          "name": "A2",
          "midi": 45,
          "time": 140.25,
          "velocity": 0.8818897637795275,
          "duration": 0.18671875000001137
        },
        {
          "name": "A3",
          "midi": 57,
          "time": 140.4375,
          "velocity": 0.8818897637795275,
          "duration": 0.18671875000001137
        },
        {
          "name": "A2",
          "midi": 45,
          "time": 140.625,
          "velocity": 0.8818897637795275,
          "duration": 0.18671875000001137
        },
        {
          "name": "A3",
          "midi": 57,
          "time": 140.8125,
          "velocity": 0.8818897637795275,
          "duration": 0.18671875000001137
        },
        {
          "name": "F2",
          "midi": 41,
          "time": 141,
          "velocity": 0.8818897637795275,
          "duration": 0.18671875000001137
        },
        {
          "name": "F3",
          "midi": 53,
          "time": 141.1875,
          "velocity": 0.8818897637795275,
          "duration": 0.18671875000001137
        },
        {
          "name": "F2",
          "midi": 41,
          "time": 141.375,
          "velocity": 0.8818897637795275,
          "duration": 0.18671875000001137
        },
        {
          "name": "F3",
          "midi": 53,
          "time": 141.5625,
          "velocity": 0.8818897637795275,
          "duration": 0.18671875000001137
        },
        {
          "name": "F2",
          "midi": 41,
          "time": 141.75,
          "velocity": 0.8818897637795275,
          "duration": 0.18671875000001137
        },
        {
          "name": "F3",
          "midi": 53,
          "time": 141.9375,
          "velocity": 0.8818897637795275,
          "duration": 0.18671875000001137
        },
        {
          "name": "F2",
          "midi": 41,
          "time": 142.125,
          "velocity": 0.8818897637795275,
          "duration": 0.18671875000001137
        },
        {
          "name": "F3",
          "midi": 53,
          "time": 142.3125,
          "velocity": 0.8818897637795275,
          "duration": 0.18671875000001137
        },
        {
          "name": "G2",
          "midi": 43,
          "time": 142.5,
          "velocity": 0.8818897637795275,
          "duration": 0.18671875000001137
        },
        {
          "name": "G3",
          "midi": 55,
          "time": 142.6875,
          "velocity": 0.8818897637795275,
          "duration": 0.18671875000001137
        },
        {
          "name": "G2",
          "midi": 43,
          "time": 142.875,
          "velocity": 0.8818897637795275,
          "duration": 0.18671875000001137
        },
        {
          "name": "G3",
          "midi": 55,
          "time": 143.0625,
          "velocity": 0.8818897637795275,
          "duration": 0.18671875000001137
        },
        {
          "name": "G#2",
          "midi": 44,
          "time": 143.25,
          "velocity": 0.8818897637795275,
          "duration": 0.18671875000001137
        },
        {
          "name": "G#3",
          "midi": 56,
          "time": 143.4375,
          "velocity": 0.8818897637795275,
          "duration": 0.18671875000001137
        },
        {
          "name": "G#2",
          "midi": 44,
          "time": 143.625,
          "velocity": 0.8818897637795275,
          "duration": 0.18671875000001137
        },
        {
          "name": "G#3",
          "midi": 56,
          "time": 143.8125,
          "velocity": 0.8818897637795275,
          "duration": 0.18671875000001137
        },
        {
          "name": "F2",
          "midi": 41,
          "time": 144,
          "velocity": 0.8818897637795275,
          "duration": 0.37421875000001137
        },
        {
          "name": "F3",
          "midi": 53,
          "time": 144,
          "velocity": 0.8818897637795275,
          "duration": 0.37421875000001137
        },
        {
          "name": "F2",
          "midi": 41,
          "time": 144.375,
          "velocity": 0.8818897637795275,
          "duration": 0.37421875000001137
        },
        {
          "name": "F3",
          "midi": 53,
          "time": 144.375,
          "velocity": 0.8818897637795275,
          "duration": 0.37421875000001137
        },
        {
          "name": "G2",
          "midi": 43,
          "time": 144.75,
          "velocity": 0.8818897637795275,
          "duration": 0.37421875000001137
        },
        {
          "name": "G3",
          "midi": 55,
          "time": 144.75,
          "velocity": 0.8818897637795275,
          "duration": 0.37421875000001137
        },
        {
          "name": "G2",
          "midi": 43,
          "time": 145.125,
          "velocity": 0.8818897637795275,
          "duration": 0.37421875000001137
        },
        {
          "name": "G3",
          "midi": 55,
          "time": 145.125,
          "velocity": 0.8818897637795275,
          "duration": 0.37421875000001137
        },
        {
          "name": "A2",
          "midi": 45,
          "time": 145.5,
          "velocity": 0.8818897637795275,
          "duration": 0.37421875000001137
        },
        {
          "name": "A3",
          "midi": 57,
          "time": 145.5,
          "velocity": 0.8818897637795275,
          "duration": 0.37421875000001137
        },
        {
          "name": "A2",
          "midi": 45,
          "time": 145.875,
          "velocity": 0.8818897637795275,
          "duration": 0.37421875000001137
        },
        {
          "name": "A3",
          "midi": 57,
          "time": 145.875,
          "velocity": 0.8818897637795275,
          "duration": 0.37421875000001137
        },
        {
          "name": "A2",
          "midi": 45,
          "time": 146.25,
          "velocity": 0.8818897637795275,
          "duration": 0.37421875000001137
        },
        {
          "name": "A3",
          "midi": 57,
          "time": 146.25,
          "velocity": 0.8818897637795275,
          "duration": 0.37421875000001137
        },
        {
          "name": "G2",
          "midi": 43,
          "time": 146.625,
          "velocity": 0.8818897637795275,
          "duration": 0.37421875000001137
        },
        {
          "name": "G3",
          "midi": 55,
          "time": 146.625,
          "velocity": 0.8818897637795275,
          "duration": 0.37421875000001137
        },
        {
          "name": "F2",
          "midi": 41,
          "time": 147,
          "velocity": 0.8818897637795275,
          "duration": 0.37421875000001137
        },
        {
          "name": "F3",
          "midi": 53,
          "time": 147,
          "velocity": 0.8818897637795275,
          "duration": 0.37421875000001137
        },
        {
          "name": "F2",
          "midi": 41,
          "time": 147.375,
          "velocity": 0.8818897637795275,
          "duration": 0.37421875000001137
        },
        {
          "name": "F3",
          "midi": 53,
          "time": 147.375,
          "velocity": 0.8818897637795275,
          "duration": 0.37421875000001137
        },
        {
          "name": "G2",
          "midi": 43,
          "time": 147.75,
          "velocity": 0.8818897637795275,
          "duration": 0.37421875000001137
        },
        {
          "name": "G3",
          "midi": 55,
          "time": 147.75,
          "velocity": 0.8818897637795275,
          "duration": 0.37421875000001137
        },
        {
          "name": "G2",
          "midi": 43,
          "time": 148.125,
          "velocity": 0.8818897637795275,
          "duration": 0.37421875000001137
        },
        {
          "name": "G3",
          "midi": 55,
          "time": 148.125,
          "velocity": 0.8818897637795275,
          "duration": 0.37421875000001137
        },
        {
          "name": "A2",
          "midi": 45,
          "time": 148.5,
          "velocity": 0.8818897637795275,
          "duration": 0.37421875000001137
        },
        {
          "name": "A3",
          "midi": 57,
          "time": 148.5,
          "velocity": 0.8818897637795275,
          "duration": 0.37421875000001137
        },
        {
          "name": "A2",
          "midi": 45,
          "time": 148.875,
          "velocity": 0.8818897637795275,
          "duration": 0.37421875000001137
        },
        {
          "name": "A3",
          "midi": 57,
          "time": 148.875,
          "velocity": 0.8818897637795275,
          "duration": 0.37421875000001137
        },
        {
          "name": "A2",
          "midi": 45,
          "time": 149.25,
          "velocity": 0.8818897637795275,
          "duration": 0.37421875000001137
        },
        {
          "name": "A3",
          "midi": 57,
          "time": 149.25,
          "velocity": 0.8818897637795275,
          "duration": 0.37421875000001137
        },
        {
          "name": "G2",
          "midi": 43,
          "time": 149.625,
          "velocity": 0.8818897637795275,
          "duration": 0.37421875000001137
        },
        {
          "name": "G3",
          "midi": 55,
          "time": 149.625,
          "velocity": 0.8818897637795275,
          "duration": 0.37421875000001137
        },
        {
          "name": "F2",
          "midi": 41,
          "time": 150,
          "velocity": 0.8818897637795275,
          "duration": 0.37421875000001137
        },
        {
          "name": "F3",
          "midi": 53,
          "time": 150,
          "velocity": 0.8818897637795275,
          "duration": 0.37421875000001137
        },
        {
          "name": "F2",
          "midi": 41,
          "time": 150.375,
          "velocity": 0.8818897637795275,
          "duration": 0.37421875000001137
        },
        {
          "name": "F3",
          "midi": 53,
          "time": 150.375,
          "velocity": 0.8818897637795275,
          "duration": 0.37421875000001137
        },
        {
          "name": "G2",
          "midi": 43,
          "time": 150.75,
          "velocity": 0.8818897637795275,
          "duration": 0.37421875000001137
        },
        {
          "name": "G3",
          "midi": 55,
          "time": 150.75,
          "velocity": 0.8818897637795275,
          "duration": 0.37421875000001137
        },
        {
          "name": "G2",
          "midi": 43,
          "time": 151.125,
          "velocity": 0.8818897637795275,
          "duration": 0.37421875000001137
        },
        {
          "name": "G3",
          "midi": 55,
          "time": 151.125,
          "velocity": 0.8818897637795275,
          "duration": 0.37421875000001137
        },
        {
          "name": "A2",
          "midi": 45,
          "time": 151.5,
          "velocity": 0.8818897637795275,
          "duration": 0.37421875000001137
        },
        {
          "name": "A3",
          "midi": 57,
          "time": 151.5,
          "velocity": 0.8818897637795275,
          "duration": 0.37421875000001137
        },
        {
          "name": "A2",
          "midi": 45,
          "time": 151.875,
          "velocity": 0.8818897637795275,
          "duration": 0.37421875000001137
        },
        {
          "name": "A3",
          "midi": 57,
          "time": 151.875,
          "velocity": 0.8818897637795275,
          "duration": 0.37421875000001137
        },
        {
          "name": "A2",
          "midi": 45,
          "time": 152.25,
          "velocity": 0.8818897637795275,
          "duration": 0.37421875000001137
        },
        {
          "name": "A3",
          "midi": 57,
          "time": 152.25,
          "velocity": 0.8818897637795275,
          "duration": 0.37421875000001137
        },
        {
          "name": "G2",
          "midi": 43,
          "time": 152.625,
          "velocity": 0.8818897637795275,
          "duration": 0.37421875000001137
        },
        {
          "name": "G3",
          "midi": 55,
          "time": 152.625,
          "velocity": 0.8818897637795275,
          "duration": 0.37421875000001137
        },
        {
          "name": "D2",
          "midi": 38,
          "time": 153,
          "velocity": 0.8818897637795275,
          "duration": 0.37421875000001137
        },
        {
          "name": "D3",
          "midi": 50,
          "time": 153,
          "velocity": 0.8818897637795275,
          "duration": 0.37421875000001137
        },
        {
          "name": "D2",
          "midi": 38,
          "time": 153.375,
          "velocity": 0.8818897637795275,
          "duration": 0.37421875000001137
        },
        {
          "name": "D3",
          "midi": 50,
          "time": 153.375,
          "velocity": 0.8818897637795275,
          "duration": 0.37421875000001137
        },
        {
          "name": "D2",
          "midi": 38,
          "time": 153.75,
          "velocity": 0.8818897637795275,
          "duration": 0.37421875000001137
        },
        {
          "name": "D3",
          "midi": 50,
          "time": 153.75,
          "velocity": 0.8818897637795275,
          "duration": 0.37421875000001137
        },
        {
          "name": "D2",
          "midi": 38,
          "time": 154.125,
          "velocity": 0.8818897637795275,
          "duration": 0.37421875000001137
        },
        {
          "name": "D3",
          "midi": 50,
          "time": 154.125,
          "velocity": 0.8818897637795275,
          "duration": 0.37421875000001137
        },
        {
          "name": "C3",
          "midi": 48,
          "time": 154.5,
          "velocity": 0.6299212598425197,
          "duration": 0.18671875000001137
        },
        {
          "name": "E3",
          "midi": 52,
          "time": 154.5,
          "velocity": 0.6299212598425197,
          "duration": 0.18671875000001137
        },
        {
          "name": "B2",
          "midi": 47,
          "time": 154.6875,
          "velocity": 0.6299212598425197,
          "duration": 0.18671875000001137
        },
        {
          "name": "D#3",
          "midi": 51,
          "time": 154.6875,
          "velocity": 0.6299212598425197,
          "duration": 0.18671875000001137
        },
        {
          "name": "A#2",
          "midi": 46,
          "time": 154.875,
          "velocity": 0.6299212598425197,
          "duration": 0.18671875000001137
        },
        {
          "name": "D3",
          "midi": 50,
          "time": 154.875,
          "velocity": 0.6299212598425197,
          "duration": 0.18671875000001137
        },
        {
          "name": "A2",
          "midi": 45,
          "time": 155.0625,
          "velocity": 0.6299212598425197,
          "duration": 0.18671875000001137
        },
        {
          "name": "C#3",
          "midi": 49,
          "time": 155.0625,
          "velocity": 0.6299212598425197,
          "duration": 0.18671875000001137
        },
        {
          "name": "G#2",
          "midi": 44,
          "time": 155.25,
          "velocity": 0.6299212598425197,
          "duration": 0.18671875000001137
        },
        {
          "name": "C3",
          "midi": 48,
          "time": 155.25,
          "velocity": 0.6299212598425197,
          "duration": 0.18671875000001137
        },
        {
          "name": "A2",
          "midi": 45,
          "time": 155.4375,
          "velocity": 0.6299212598425197,
          "duration": 0.18671875000001137
        },
        {
          "name": "C#3",
          "midi": 49,
          "time": 155.4375,
          "velocity": 0.6299212598425197,
          "duration": 0.18671875000001137
        },
        {
          "name": "A#2",
          "midi": 46,
          "time": 155.625,
          "velocity": 0.6299212598425197,
          "duration": 0.18671875000001137
        },
        {
          "name": "D3",
          "midi": 50,
          "time": 155.625,
          "velocity": 0.6299212598425197,
          "duration": 0.18671875000001137
        },
        {
          "name": "B2",
          "midi": 47,
          "time": 155.8125,
          "velocity": 0.6299212598425197,
          "duration": 0.18671875000001137
        },
        {
          "name": "D#3",
          "midi": 51,
          "time": 155.8125,
          "velocity": 0.6299212598425197,
          "duration": 0.18671875000001137
        },
        {
          "name": "A2",
          "midi": 45,
          "time": 156,
          "velocity": 0.3858267716535433,
          "duration": 0.18671875000001137
        },
        {
          "name": "A3",
          "midi": 57,
          "time": 156.1875,
          "velocity": 0.3858267716535433,
          "duration": 0.18671875000001137
        },
        {
          "name": "A2",
          "midi": 45,
          "time": 156.75,
          "velocity": 0.3858267716535433,
          "duration": 0.18671875000001137
        },
        {
          "name": "A3",
          "midi": 57,
          "time": 156.9375,
          "velocity": 0.3858267716535433,
          "duration": 0.18671875000001137
        }
      ],
      "controlChanges": {},
      "id": 1,
      "channelNumber": 0,
      "isPercussion": false
    }
  ]
}