{
  "header": {
    "PPQ": 96,
    "timeSignature": [
      4,
      4
    ],
    "bpm": 125,
    "name": ""
  },
  "startTime": 0,
  "duration": 138.24000000000015,
  "tracks": [
    {
      "startTime": 0,
      "duration": 0,
      "length": 0,
      "notes": [],
      "controlChanges": {},
      "id": 0
    },
    {
      "startTime": 0,
      "duration": 0,
      "length": 0,
      "notes": [],
      "controlChanges": {},
      "id": 1
    },
    {
      "startTime": 23.04,
      "duration": 134.39999999999358,
      "length": 284,
      "notes": [
        {
          "name": "D#4",
          "midi": 63,
          "time": 23.04,
          "velocity": 1,
          "duration": 0.4800000000000004
        },
        {
          "name": "D#4",
          "midi": 63,
          "time": 23.759999999999998,
          "velocity": 1,
          "duration": 0.23999999999999844
        },
        {
          "name": "E4",
          "midi": 64,
          "time": 23.999999999999996,
          "velocity": 1,
          "duration": 0.23999999999999844
        },
        {
          "name": "B3",
          "midi": 59,
          "time": 24.479999999999993,
          "velocity": 1,
          "duration": 0.120000000000001
        },
        {
          "name": "G#3",
          "midi": 56,
          "time": 24.719999999999995,
          "velocity": 1,
          "duration": 0.120000000000001
        },
        {
          "name": "D#4",
          "midi": 63,
          "time": 24.839999999999996,
          "velocity": 1,
          "duration": 0.4800000000000004
        },
        {
          "name": "D#4",
          "midi": 63,
          "time": 25.679999999999996,
          "velocity": 1,
          "duration": 0.23999999999999844
        },
        {
          "name": "E4",
          "midi": 64,
          "time": 25.919999999999995,
          "velocity": 1,
          "duration": 0.23999999999999844
        },
        {
          "name": "B3",
          "midi": 59,
          "time": 26.39999999999999,
          "velocity": 1,
          "duration": 0.120000000000001
        },
        {
          "name": "G#3",
          "midi": 56,
          "time": 26.639999999999993,
          "velocity": 1,
          "duration": 0.120000000000001
        },
        {
          "name": "D#4",
          "midi": 63,
          "time": 26.759999999999994,
          "velocity": 1,
          "duration": 0.4800000000000004
        },
        {
          "name": "D#4",
          "midi": 63,
          "time": 27.599999999999994,
          "velocity": 1,
          "duration": 0.23999999999999844
        },
        {
          "name": "E4",
          "midi": 64,
          "time": 27.839999999999993,
          "velocity": 1,
          "duration": 0.23999999999999844
        },
        {
          "name": "B3",
          "midi": 59,
          "time": 28.31999999999999,
          "velocity": 1,
          "duration": 0.120000000000001
        },
        {
          "name": "G#3",
          "midi": 56,
          "time": 28.55999999999999,
          "velocity": 1,
          "duration": 0.120000000000001
        },
        {
          "name": "D#4",
          "midi": 63,
          "time": 28.679999999999993,
          "velocity": 1,
          "duration": 0.4800000000000004
        },
        {
          "name": "D#4",
          "midi": 63,
          "time": 29.519999999999992,
          "velocity": 1,
          "duration": 0.23999999999999844
        },
        {
          "name": "E4",
          "midi": 64,
          "time": 29.75999999999999,
          "velocity": 1,
          "duration": 0.23999999999999844
        },
        {
          "name": "B3",
          "midi": 59,
          "time": 30.239999999999988,
          "velocity": 1,
          "duration": 0.120000000000001
        },
        {
          "name": "G#3",
          "midi": 56,
          "time": 30.47999999999999,
          "velocity": 1,
          "duration": 0.120000000000001
        },
        {
          "name": "D#4",
          "midi": 63,
          "time": 30.59999999999999,
          "velocity": 1,
          "duration": 0.4800000000000004
        },
        {
          "name": "D#4",
          "midi": 63,
          "time": 31.43999999999999,
          "velocity": 1,
          "duration": 0.23999999999999844
        },
        {
          "name": "E4",
          "midi": 64,
          "time": 31.67999999999999,
          "velocity": 1,
          "duration": 0.23999999999999844
        },
        {
          "name": "B3",
          "midi": 59,
          "time": 32.15999999999999,
          "velocity": 1,
          "duration": 0.11999999999999744
        },
        {
          "name": "G#3",
          "midi": 56,
          "time": 32.399999999999984,
          "velocity": 1,
          "duration": 0.11999999999999744
        },
        {
          "name": "D#4",
          "midi": 63,
          "time": 32.51999999999998,
          "velocity": 1,
          "duration": 0.4799999999999969
        },
        {
          "name": "D#4",
          "midi": 63,
          "time": 33.35999999999998,
          "velocity": 1,
          "duration": 0.240000000000002
        },
        {
          "name": "E4",
          "midi": 64,
          "time": 33.59999999999998,
          "velocity": 1,
          "duration": 0.240000000000002
        },
        {
          "name": "B3",
          "midi": 59,
          "time": 34.079999999999984,
          "velocity": 1,
          "duration": 0.11999999999999744
        },
        {
          "name": "G#3",
          "midi": 56,
          "time": 34.31999999999998,
          "velocity": 1,
          "duration": 0.11999999999999744
        },
        {
          "name": "D#4",
          "midi": 63,
          "time": 34.439999999999976,
          "velocity": 1,
          "duration": 0.4799999999999969
        },
        {
          "name": "D#4",
          "midi": 63,
          "time": 35.27999999999997,
          "velocity": 1,
          "duration": 0.240000000000002
        },
        {
          "name": "E4",
          "midi": 64,
          "time": 35.519999999999975,
          "velocity": 1,
          "duration": 0.240000000000002
        },
        {
          "name": "B3",
          "midi": 59,
          "time": 35.99999999999998,
          "velocity": 1,
          "duration": 0.11999999999999744
        },
        {
          "name": "G#3",
          "midi": 56,
          "time": 36.239999999999974,
          "velocity": 1,
          "duration": 0.11999999999999744
        },
        {
          "name": "D#4",
          "midi": 63,
          "time": 36.35999999999997,
          "velocity": 1,
          "duration": 0.4799999999999969
        },
        {
          "name": "D#4",
          "midi": 63,
          "time": 37.19999999999997,
          "velocity": 1,
          "duration": 0.240000000000002
        },
        {
          "name": "E4",
          "midi": 64,
          "time": 37.43999999999997,
          "velocity": 1,
          "duration": 0.240000000000002
        },
        {
          "name": "D#4",
          "midi": 63,
          "time": 37.67999999999997,
          "velocity": 1,
          "duration": 0.240000000000002
        },
        {
          "name": "B3",
          "midi": 59,
          "time": 37.91999999999997,
          "velocity": 1,
          "duration": 0.11999999999999744
        },
        {
          "name": "G#3",
          "midi": 56,
          "time": 38.15999999999997,
          "velocity": 1,
          "duration": 0.11999999999999744
        },
        {
          "name": "D#4",
          "midi": 63,
          "time": 38.279999999999966,
          "velocity": 1,
          "duration": 0.4799999999999969
        },
        {
          "name": "D#4",
          "midi": 63,
          "time": 39.11999999999996,
          "velocity": 1,
          "duration": 0.240000000000002
        },
        {
          "name": "E4",
          "midi": 64,
          "time": 39.359999999999964,
          "velocity": 1,
          "duration": 0.240000000000002
        },
        {
          "name": "B3",
          "midi": 59,
          "time": 39.83999999999997,
          "velocity": 1,
          "duration": 0.11999999999999744
        },
        {
          "name": "G#3",
          "midi": 56,
          "time": 40.07999999999996,
          "velocity": 1,
          "duration": 0.11999999999999744
        },
        {
          "name": "D#4",
          "midi": 63,
          "time": 40.19999999999996,
          "velocity": 1,
          "duration": 0.4799999999999969
        },
        {
          "name": "D#4",
          "midi": 63,
          "time": 41.03999999999996,
          "velocity": 1,
          "duration": 0.240000000000002
        },
        {
          "name": "E4",
          "midi": 64,
          "time": 41.27999999999996,
          "velocity": 1,
          "duration": 0.240000000000002
        },
        {
          "name": "B3",
          "midi": 59,
          "time": 41.75999999999996,
          "velocity": 1,
          "duration": 0.11999999999999744
        },
        {
          "name": "G#3",
          "midi": 56,
          "time": 41.99999999999996,
          "velocity": 1,
          "duration": 0.11999999999999744
        },
        {
          "name": "D#4",
          "midi": 63,
          "time": 42.119999999999955,
          "velocity": 1,
          "duration": 0.4799999999999969
        },
        {
          "name": "D#4",
          "midi": 63,
          "time": 42.95999999999995,
          "velocity": 1,
          "duration": 0.240000000000002
        },
        {
          "name": "E4",
          "midi": 64,
          "time": 43.19999999999995,
          "velocity": 1,
          "duration": 0.240000000000002
        },
        {
          "name": "B3",
          "midi": 59,
          "time": 43.67999999999996,
          "velocity": 1,
          "duration": 0.11999999999999744
        },
        {
          "name": "G#3",
          "midi": 56,
          "time": 43.91999999999995,
          "velocity": 1,
          "duration": 0.11999999999999744
        },
        {
          "name": "D#4",
          "midi": 63,
          "time": 44.03999999999995,
          "velocity": 1,
          "duration": 0.4799999999999969
        },
        {
          "name": "D#4",
          "midi": 63,
          "time": 44.879999999999946,
          "velocity": 1,
          "duration": 0.240000000000002
        },
        {
          "name": "E4",
          "midi": 64,
          "time": 45.11999999999995,
          "velocity": 1,
          "duration": 0.240000000000002
        },
        {
          "name": "B3",
          "midi": 59,
          "time": 45.59999999999995,
          "velocity": 1,
          "duration": 0.11999999999999744
        },
        {
          "name": "G#3",
          "midi": 56,
          "time": 45.83999999999995,
          "velocity": 1,
          "duration": 0.11999999999999744
        },
        {
          "name": "D#4",
          "midi": 63,
          "time": 45.959999999999944,
          "velocity": 1,
          "duration": 0.4799999999999969
        },
        {
          "name": "D#4",
          "midi": 63,
          "time": 46.79999999999994,
          "velocity": 1,
          "duration": 0.240000000000002
        },
        {
          "name": "E4",
          "midi": 64,
          "time": 47.03999999999994,
          "velocity": 1,
          "duration": 0.240000000000002
        },
        {
          "name": "B3",
          "midi": 59,
          "time": 47.519999999999946,
          "velocity": 1,
          "duration": 0.11999999999999744
        },
        {
          "name": "G#3",
          "midi": 56,
          "time": 47.75999999999994,
          "velocity": 1,
          "duration": 0.11999999999999744
        },
        {
          "name": "D#4",
          "midi": 63,
          "time": 47.87999999999994,
          "velocity": 1,
          "duration": 0.4799999999999969
        },
        {
          "name": "D#4",
          "midi": 63,
          "time": 48.719999999999935,
          "velocity": 1,
          "duration": 0.240000000000002
        },
        {
          "name": "E4",
          "midi": 64,
          "time": 48.95999999999994,
          "velocity": 1,
          "duration": 0.240000000000002
        },
        {
          "name": "B3",
          "midi": 59,
          "time": 49.43999999999994,
          "velocity": 1,
          "duration": 0.11999999999999744
        },
        {
          "name": "G#3",
          "midi": 56,
          "time": 49.679999999999936,
          "velocity": 1,
          "duration": 0.11999999999999744
        },
        {
          "name": "D#4",
          "midi": 63,
          "time": 49.79999999999993,
          "velocity": 1,
          "duration": 0.4799999999999969
        },
        {
          "name": "D#4",
          "midi": 63,
          "time": 50.63999999999993,
          "velocity": 1,
          "duration": 0.240000000000002
        },
        {
          "name": "E4",
          "midi": 64,
          "time": 50.87999999999993,
          "velocity": 1,
          "duration": 0.240000000000002
        },
        {
          "name": "B3",
          "midi": 59,
          "time": 51.359999999999935,
          "velocity": 1,
          "duration": 0.11999999999999744
        },
        {
          "name": "G#3",
          "midi": 56,
          "time": 51.59999999999993,
          "velocity": 1,
          "duration": 0.11999999999999744
        },
        {
          "name": "D#4",
          "midi": 63,
          "time": 51.71999999999993,
          "velocity": 1,
          "duration": 0.4799999999999969
        },
        {
          "name": "D#4",
          "midi": 63,
          "time": 52.559999999999924,
          "velocity": 1,
          "duration": 0.240000000000002
        },
        {
          "name": "E4",
          "midi": 64,
          "time": 52.799999999999926,
          "velocity": 1,
          "duration": 0.240000000000002
        },
        {
          "name": "D#4",
          "midi": 63,
          "time": 53.03999999999993,
          "velocity": 1,
          "duration": 0.240000000000002
        },
        {
          "name": "B3",
          "midi": 59,
          "time": 53.27999999999993,
          "velocity": 1,
          "duration": 0.11999999999999744
        },
        {
          "name": "G#3",
          "midi": 56,
          "time": 53.519999999999925,
          "velocity": 1,
          "duration": 0.11999999999999744
        },
        {
          "name": "F#4",
          "midi": 66,
          "time": 53.63999999999992,
          "velocity": 1,
          "duration": 0.4799999999999969
        },
        {
          "name": "F#4",
          "midi": 66,
          "time": 54.47999999999992,
          "velocity": 1,
          "duration": 0.240000000000002
        },
        {
          "name": "G#4",
          "midi": 68,
          "time": 54.71999999999992,
          "velocity": 1,
          "duration": 0.240000000000002
        },
        {
          "name": "D#4",
          "midi": 63,
          "time": 55.199999999999925,
          "velocity": 1,
          "duration": 0.11999999999999744
        },
        {
          "name": "B3",
          "midi": 59,
          "time": 55.43999999999992,
          "velocity": 1,
          "duration": 0.11999999999999744
        },
        {
          "name": "F#4",
          "midi": 66,
          "time": 55.55999999999992,
          "velocity": 1,
          "duration": 0.4799999999999969
        },
        {
          "name": "F#4",
          "midi": 66,
          "time": 56.39999999999991,
          "velocity": 1,
          "duration": 0.240000000000002
        },
        {
          "name": "G#4",
          "midi": 68,
          "time": 56.639999999999915,
          "velocity": 1,
          "duration": 0.240000000000002
        },
        {
          "name": "D#4",
          "midi": 63,
          "time": 57.11999999999992,
          "velocity": 1,
          "duration": 0.11999999999999744
        },
        {
          "name": "B3",
          "midi": 59,
          "time": 57.359999999999914,
          "velocity": 1,
          "duration": 0.11999999999999744
        },
        {
          "name": "F#4",
          "midi": 66,
          "time": 57.47999999999991,
          "velocity": 1,
          "duration": 0.4799999999999969
        },
        {
          "name": "F#4",
          "midi": 66,
          "time": 58.31999999999991,
          "velocity": 1,
          "duration": 0.240000000000002
        },
        {
          "name": "G#4",
          "midi": 68,
          "time": 58.55999999999991,
          "velocity": 1,
          "duration": 0.240000000000002
        },
        {
          "name": "D#4",
          "midi": 63,
          "time": 59.039999999999914,
          "velocity": 1,
          "duration": 0.11999999999999744
        },
        {
          "name": "B3",
          "midi": 59,
          "time": 59.27999999999991,
          "velocity": 1,
          "duration": 0.11999999999999744
        },
        {
          "name": "F#4",
          "midi": 66,
          "time": 59.399999999999906,
          "velocity": 1,
          "duration": 0.4799999999999969
        },
        {
          "name": "F#4",
          "midi": 66,
          "time": 60.2399999999999,
          "velocity": 1,
          "duration": 0.240000000000002
        },
        {
          "name": "G#4",
          "midi": 68,
          "time": 60.479999999999905,
          "velocity": 1,
          "duration": 0.240000000000002
        },
        {
          "name": "F#4",
          "midi": 66,
          "time": 60.71999999999991,
          "velocity": 1,
          "duration": 0.240000000000002
        },
        {
          "name": "D#4",
          "midi": 63,
          "time": 60.95999999999991,
          "velocity": 1,
          "duration": 0.11999999999999744
        },
        {
          "name": "B3",
          "midi": 59,
          "time": 61.1999999999999,
          "velocity": 1,
          "duration": 0.11999999999999744
        },
        {
          "name": "F#4",
          "midi": 66,
          "time": 61.3199999999999,
          "velocity": 1,
          "duration": 0.4799999999999969
        },
        {
          "name": "F#4",
          "midi": 66,
          "time": 62.1599999999999,
          "velocity": 1,
          "duration": 0.240000000000002
        },
        {
          "name": "G#4",
          "midi": 68,
          "time": 62.3999999999999,
          "velocity": 1,
          "duration": 0.240000000000002
        },
        {
          "name": "D#4",
          "midi": 63,
          "time": 62.8799999999999,
          "velocity": 1,
          "duration": 0.11999999999999744
        },
        {
          "name": "B3",
          "midi": 59,
          "time": 63.1199999999999,
          "velocity": 1,
          "duration": 0.11999999999999744
        },
        {
          "name": "F#4",
          "midi": 66,
          "time": 63.239999999999895,
          "velocity": 1,
          "duration": 0.4799999999999969
        },
        {
          "name": "F#4",
          "midi": 66,
          "time": 64.0799999999999,
          "velocity": 1,
          "duration": 0.23999999999999488
        },
        {
          "name": "G#4",
          "midi": 68,
          "time": 64.3199999999999,
          "velocity": 1,
          "duration": 0.23999999999999488
        },
        {
          "name": "D#4",
          "midi": 63,
          "time": 64.79999999999988,
          "velocity": 1,
          "duration": 0.12000000000000455
        },
        {
          "name": "B3",
          "midi": 59,
          "time": 65.03999999999989,
          "velocity": 1,
          "duration": 0.12000000000000455
        },
        {
          "name": "F#4",
          "midi": 66,
          "time": 65.1599999999999,
          "velocity": 1,
          "duration": 0.480000000000004
        },
        {
          "name": "F#4",
          "midi": 66,
          "time": 65.9999999999999,
          "velocity": 1,
          "duration": 0.23999999999999488
        },
        {
          "name": "G#4",
          "midi": 68,
          "time": 66.2399999999999,
          "velocity": 1,
          "duration": 0.23999999999999488
        },
        {
          "name": "D#4",
          "midi": 63,
          "time": 66.71999999999989,
          "velocity": 1,
          "duration": 0.12000000000000455
        },
        {
          "name": "B3",
          "midi": 59,
          "time": 66.9599999999999,
          "velocity": 1,
          "duration": 0.12000000000000455
        },
        {
          "name": "F#4",
          "midi": 66,
          "time": 67.0799999999999,
          "velocity": 1,
          "duration": 0.480000000000004
        },
        {
          "name": "F#4",
          "midi": 66,
          "time": 67.9199999999999,
          "velocity": 1,
          "duration": 0.23999999999999488
        },
        {
          "name": "G#4",
          "midi": 68,
          "time": 68.1599999999999,
          "velocity": 1,
          "duration": 0.23999999999999488
        },
        {
          "name": "F#4",
          "midi": 66,
          "time": 68.39999999999989,
          "velocity": 1,
          "duration": 0.23999999999999488
        },
        {
          "name": "D#4",
          "midi": 63,
          "time": 68.63999999999989,
          "velocity": 1,
          "duration": 0.12000000000000455
        },
        {
          "name": "B3",
          "midi": 59,
          "time": 68.8799999999999,
          "velocity": 1,
          "duration": 0.12000000000000455
        },
        {
          "name": "F#4",
          "midi": 66,
          "time": 68.9999999999999,
          "velocity": 1,
          "duration": 0.480000000000004
        },
        {
          "name": "F#4",
          "midi": 66,
          "time": 69.8399999999999,
          "velocity": 1,
          "duration": 0.23999999999999488
        },
        {
          "name": "G#4",
          "midi": 68,
          "time": 70.0799999999999,
          "velocity": 1,
          "duration": 0.23999999999999488
        },
        {
          "name": "D#4",
          "midi": 63,
          "time": 70.55999999999989,
          "velocity": 1,
          "duration": 0.12000000000000455
        },
        {
          "name": "B3",
          "midi": 59,
          "time": 70.7999999999999,
          "velocity": 1,
          "duration": 0.12000000000000455
        },
        {
          "name": "F#4",
          "midi": 66,
          "time": 70.9199999999999,
          "velocity": 1,
          "duration": 0.480000000000004
        },
        {
          "name": "F#4",
          "midi": 66,
          "time": 71.7599999999999,
          "velocity": 1,
          "duration": 0.23999999999999488
        },
        {
          "name": "G#4",
          "midi": 68,
          "time": 71.9999999999999,
          "velocity": 1,
          "duration": 0.23999999999999488
        },
        {
          "name": "D#4",
          "midi": 63,
          "time": 72.47999999999989,
          "velocity": 1,
          "duration": 0.12000000000000455
        },
        {
          "name": "B3",
          "midi": 59,
          "time": 72.7199999999999,
          "velocity": 1,
          "duration": 0.12000000000000455
        },
        {
          "name": "A#4",
          "midi": 70,
          "time": 72.8399999999999,
          "velocity": 1,
          "duration": 0.480000000000004
        },
        {
          "name": "A#4",
          "midi": 70,
          "time": 73.67999999999991,
          "velocity": 1,
          "duration": 0.23999999999999488
        },
        {
          "name": "B4",
          "midi": 71,
          "time": 73.9199999999999,
          "velocity": 1,
          "duration": 0.23999999999999488
        },
        {
          "name": "F#4",
          "midi": 66,
          "time": 74.39999999999989,
          "velocity": 1,
          "duration": 0.12000000000000455
        },
        {
          "name": "D#4",
          "midi": 63,
          "time": 74.6399999999999,
          "velocity": 1,
          "duration": 0.12000000000000455
        },
        {
          "name": "A#4",
          "midi": 70,
          "time": 74.7599999999999,
          "velocity": 1,
          "duration": 0.480000000000004
        },
        {
          "name": "A#4",
          "midi": 70,
          "time": 75.59999999999991,
          "velocity": 1,
          "duration": 0.23999999999999488
        },
        {
          "name": "B4",
          "midi": 71,
          "time": 75.8399999999999,
          "velocity": 1,
          "duration": 0.23999999999999488
        },
        {
          "name": "F#4",
          "midi": 66,
          "time": 76.3199999999999,
          "velocity": 1,
          "duration": 0.12000000000000455
        },
        {
          "name": "D#4",
          "midi": 63,
          "time": 76.5599999999999,
          "velocity": 1,
          "duration": 0.12000000000000455
        },
        {
          "name": "A#4",
          "midi": 70,
          "time": 76.67999999999991,
          "velocity": 1,
          "duration": 0.480000000000004
        },
        {
          "name": "A#4",
          "midi": 70,
          "time": 77.51999999999991,
          "velocity": 1,
          "duration": 0.23999999999999488
        },
        {
          "name": "B4",
          "midi": 71,
          "time": 77.7599999999999,
          "velocity": 1,
          "duration": 0.23999999999999488
        },
        {
          "name": "F#4",
          "midi": 66,
          "time": 78.2399999999999,
          "velocity": 1,
          "duration": 0.12000000000000455
        },
        {
          "name": "D#4",
          "midi": 63,
          "time": 78.4799999999999,
          "velocity": 1,
          "duration": 0.12000000000000455
        },
        {
          "name": "A#4",
          "midi": 70,
          "time": 78.59999999999991,
          "velocity": 1,
          "duration": 0.480000000000004
        },
        {
          "name": "A#4",
          "midi": 70,
          "time": 79.43999999999991,
          "velocity": 1,
          "duration": 0.23999999999999488
        },
        {
          "name": "B4",
          "midi": 71,
          "time": 79.67999999999991,
          "velocity": 1,
          "duration": 0.23999999999999488
        },
        {
          "name": "F#4",
          "midi": 66,
          "time": 80.1599999999999,
          "velocity": 1,
          "duration": 0.12000000000000455
        },
        {
          "name": "D#4",
          "midi": 63,
          "time": 80.3999999999999,
          "velocity": 1,
          "duration": 0.12000000000000455
        },
        {
          "name": "A#4",
          "midi": 70,
          "time": 80.51999999999991,
          "velocity": 1,
          "duration": 0.480000000000004
        },
        {
          "name": "A#4",
          "midi": 70,
          "time": 81.35999999999991,
          "velocity": 1,
          "duration": 0.23999999999999488
        },
        {
          "name": "B4",
          "midi": 71,
          "time": 81.59999999999991,
          "velocity": 1,
          "duration": 0.23999999999999488
        },
        {
          "name": "F#4",
          "midi": 66,
          "time": 82.0799999999999,
          "velocity": 1,
          "duration": 0.12000000000000455
        },
        {
          "name": "D#4",
          "midi": 63,
          "time": 82.31999999999991,
          "velocity": 1,
          "duration": 0.12000000000000455
        },
        {
          "name": "A#4",
          "midi": 70,
          "time": 82.43999999999991,
          "velocity": 1,
          "duration": 0.480000000000004
        },
        {
          "name": "A#4",
          "midi": 70,
          "time": 83.27999999999992,
          "velocity": 1,
          "duration": 0.23999999999999488
        },
        {
          "name": "B4",
          "midi": 71,
          "time": 83.51999999999991,
          "velocity": 1,
          "duration": 0.23999999999999488
        },
        {
          "name": "F#4",
          "midi": 66,
          "time": 83.9999999999999,
          "velocity": 1,
          "duration": 0.12000000000000455
        },
        {
          "name": "D#4",
          "midi": 63,
          "time": 84.23999999999991,
          "velocity": 1,
          "duration": 0.12000000000000455
        },
        {
          "name": "D#5",
          "midi": 75,
          "time": 84.35999999999991,
          "velocity": 1,
          "duration": 0.480000000000004
        },
        {
          "name": "D#5",
          "midi": 75,
          "time": 85.19999999999992,
          "velocity": 1,
          "duration": 0.23999999999999488
        },
        {
          "name": "E5",
          "midi": 76,
          "time": 85.43999999999991,
          "velocity": 1,
          "duration": 0.23999999999999488
        },
        {
          "name": "B4",
          "midi": 71,
          "time": 85.9199999999999,
          "velocity": 1,
          "duration": 0.12000000000000455
        },
        {
          "name": "G#4",
          "midi": 68,
          "time": 86.15999999999991,
          "velocity": 1,
          "duration": 0.12000000000000455
        },
        {
          "name": "D#5",
          "midi": 75,
          "time": 86.27999999999992,
          "velocity": 1,
          "duration": 0.480000000000004
        },
        {
          "name": "D#5",
          "midi": 75,
          "time": 87.11999999999992,
          "velocity": 1,
          "duration": 0.23999999999999488
        },
        {
          "name": "E5",
          "midi": 76,
          "time": 87.35999999999991,
          "velocity": 1,
          "duration": 0.23999999999999488
        },
        {
          "name": "B4",
          "midi": 71,
          "time": 87.8399999999999,
          "velocity": 1,
          "duration": 0.12000000000000455
        },
        {
          "name": "G#4",
          "midi": 68,
          "time": 88.07999999999991,
          "velocity": 1,
          "duration": 0.12000000000000455
        },
        {
          "name": "D#5",
          "midi": 75,
          "time": 88.19999999999992,
          "velocity": 1,
          "duration": 0.480000000000004
        },
        {
          "name": "D#5",
          "midi": 75,
          "time": 89.03999999999992,
          "velocity": 1,
          "duration": 0.23999999999999488
        },
        {
          "name": "E5",
          "midi": 76,
          "time": 89.27999999999992,
          "velocity": 1,
          "duration": 0.23999999999999488
        },
        {
          "name": "B4",
          "midi": 71,
          "time": 89.7599999999999,
          "velocity": 1,
          "duration": 0.12000000000000455
        },
        {
          "name": "G#4",
          "midi": 68,
          "time": 89.99999999999991,
          "velocity": 1,
          "duration": 0.12000000000000455
        },
        {
          "name": "D#5",
          "midi": 75,
          "time": 90.11999999999992,
          "velocity": 1,
          "duration": 0.480000000000004
        },
        {
          "name": "D#5",
          "midi": 75,
          "time": 90.95999999999992,
          "velocity": 1,
          "duration": 0.23999999999999488
        },
        {
          "name": "E5",
          "midi": 76,
          "time": 91.19999999999992,
          "velocity": 1,
          "duration": 0.23999999999999488
        },
        {
          "name": "B4",
          "midi": 71,
          "time": 91.67999999999991,
          "velocity": 1,
          "duration": 0.12000000000000455
        },
        {
          "name": "G#4",
          "midi": 68,
          "time": 91.91999999999992,
          "velocity": 1,
          "duration": 0.12000000000000455
        },
        {
          "name": "D#5",
          "midi": 75,
          "time": 92.03999999999992,
          "velocity": 1,
          "duration": 0.480000000000004
        },
        {
          "name": "D#5",
          "midi": 75,
          "time": 92.87999999999992,
          "velocity": 1,
          "duration": 0.23999999999999488
        },
        {
          "name": "E5",
          "midi": 76,
          "time": 93.11999999999992,
          "velocity": 1,
          "duration": 0.23999999999999488
        },
        {
          "name": "B4",
          "midi": 71,
          "time": 93.59999999999991,
          "velocity": 1,
          "duration": 0.12000000000000455
        },
        {
          "name": "G#4",
          "midi": 68,
          "time": 93.83999999999992,
          "velocity": 1,
          "duration": 0.12000000000000455
        },
        {
          "name": "D#5",
          "midi": 75,
          "time": 93.95999999999992,
          "velocity": 1,
          "duration": 0.480000000000004
        },
        {
          "name": "D#5",
          "midi": 75,
          "time": 94.79999999999993,
          "velocity": 1,
          "duration": 0.23999999999999488
        },
        {
          "name": "E5",
          "midi": 76,
          "time": 95.03999999999992,
          "velocity": 1,
          "duration": 0.23999999999999488
        },
        {
          "name": "B4",
          "midi": 71,
          "time": 95.51999999999991,
          "velocity": 1,
          "duration": 0.12000000000000455
        },
        {
          "name": "G#4",
          "midi": 68,
          "time": 95.75999999999992,
          "velocity": 1,
          "duration": 0.12000000000000455
        },
        {
          "name": "D#5",
          "midi": 75,
          "time": 95.87999999999992,
          "velocity": 1,
          "duration": 0.480000000000004
        },
        {
          "name": "D#5",
          "midi": 75,
          "time": 96.71999999999993,
          "velocity": 1,
          "duration": 0.23999999999999488
        },
        {
          "name": "E5",
          "midi": 76,
          "time": 96.95999999999992,
          "velocity": 1,
          "duration": 0.23999999999999488
        },
        {
          "name": "B4",
          "midi": 71,
          "time": 97.43999999999991,
          "velocity": 1,
          "duration": 0.12000000000000455
        },
        {
          "name": "G#4",
          "midi": 68,
          "time": 97.67999999999992,
          "velocity": 1,
          "duration": 0.12000000000000455
        },
        {
          "name": "D#5",
          "midi": 75,
          "time": 97.79999999999993,
          "velocity": 1,
          "duration": 0.480000000000004
        },
        {
          "name": "B4",
          "midi": 71,
          "time": 98.63999999999993,
          "velocity": 1,
          "duration": 0.12000000000000455
        },
        {
          "name": "A#4",
          "midi": 70,
          "time": 98.87999999999994,
          "velocity": 1,
          "duration": 0.12000000000000455
        },
        {
          "name": "B4",
          "midi": 71,
          "time": 99.11999999999995,
          "velocity": 1,
          "duration": 0.12000000000000455
        },
        {
          "name": "B4",
          "midi": 71,
          "time": 99.35999999999996,
          "velocity": 1,
          "duration": 0.12000000000000455
        },
        {
          "name": "G#4",
          "midi": 68,
          "time": 99.59999999999997,
          "velocity": 1,
          "duration": 0.12000000000000455
        },
        {
          "name": "F#5",
          "midi": 78,
          "time": 99.83999999999997,
          "velocity": 1,
          "duration": 0.480000000000004
        },
        {
          "name": "F#5",
          "midi": 78,
          "time": 100.55999999999997,
          "velocity": 1,
          "duration": 0.23999999999999488
        },
        {
          "name": "G#5",
          "midi": 80,
          "time": 100.79999999999997,
          "velocity": 1,
          "duration": 0.23999999999999488
        },
        {
          "name": "D#5",
          "midi": 75,
          "time": 101.27999999999996,
          "velocity": 1,
          "duration": 0.12000000000000455
        },
        {
          "name": "B4",
          "midi": 71,
          "time": 101.51999999999997,
          "velocity": 1,
          "duration": 0.12000000000000455
        },
        {
          "name": "F#5",
          "midi": 78,
          "time": 101.63999999999997,
          "velocity": 1,
          "duration": 0.480000000000004
        },
        {
          "name": "F#5",
          "midi": 78,
          "time": 102.47999999999998,
          "velocity": 1,
          "duration": 0.23999999999999488
        },
        {
          "name": "G#5",
          "midi": 80,
          "time": 102.71999999999997,
          "velocity": 1,
          "duration": 0.23999999999999488
        },
        {
          "name": "D#5",
          "midi": 75,
          "time": 103.19999999999996,
          "velocity": 1,
          "duration": 0.12000000000000455
        },
        {
          "name": "B4",
          "midi": 71,
          "time": 103.43999999999997,
          "velocity": 1,
          "duration": 0.12000000000000455
        },
        {
          "name": "F#5",
          "midi": 78,
          "time": 103.55999999999997,
          "velocity": 1,
          "duration": 0.480000000000004
        },
        {
          "name": "F#5",
          "midi": 78,
          "time": 104.39999999999998,
          "velocity": 1,
          "duration": 0.23999999999999488
        },
        {
          "name": "G#5",
          "midi": 80,
          "time": 104.63999999999997,
          "velocity": 1,
          "duration": 0.23999999999999488
        },
        {
          "name": "D#5",
          "midi": 75,
          "time": 105.11999999999996,
          "velocity": 1,
          "duration": 0.12000000000000455
        },
        {
          "name": "B4",
          "midi": 71,
          "time": 105.35999999999997,
          "velocity": 1,
          "duration": 0.12000000000000455
        },
        {
          "name": "F#5",
          "midi": 78,
          "time": 105.47999999999998,
          "velocity": 1,
          "duration": 0.480000000000004
        },
        {
          "name": "B4",
          "midi": 71,
          "time": 106.31999999999998,
          "velocity": 1,
          "duration": 0.12000000000000455
        },
        {
          "name": "A#4",
          "midi": 70,
          "time": 106.55999999999999,
          "velocity": 1,
          "duration": 0.12000000000000455
        },
        {
          "name": "B4",
          "midi": 71,
          "time": 106.8,
          "velocity": 1,
          "duration": 0.12000000000000455
        },
        {
          "name": "A#4",
          "midi": 70,
          "time": 107.04,
          "velocity": 1,
          "duration": 0.12000000000000455
        },
        {
          "name": "B4",
          "midi": 71,
          "time": 107.28000000000002,
          "velocity": 1,
          "duration": 0.12000000000000455
        },
        {
          "name": "F#5",
          "midi": 78,
          "time": 107.52000000000002,
          "velocity": 1,
          "duration": 0.480000000000004
        },
        {
          "name": "F#5",
          "midi": 78,
          "time": 108.24000000000002,
          "velocity": 1,
          "duration": 0.23999999999999488
        },
        {
          "name": "G#5",
          "midi": 80,
          "time": 108.48000000000002,
          "velocity": 1,
          "duration": 0.23999999999999488
        },
        {
          "name": "D#5",
          "midi": 75,
          "time": 108.96000000000001,
          "velocity": 1,
          "duration": 0.12000000000000455
        },
        {
          "name": "B4",
          "midi": 71,
          "time": 109.20000000000002,
          "velocity": 1,
          "duration": 0.12000000000000455
        },
        {
          "name": "F#5",
          "midi": 78,
          "time": 109.32000000000002,
          "velocity": 1,
          "duration": 0.480000000000004
        },
        {
          "name": "F#5",
          "midi": 78,
          "time": 110.16000000000003,
          "velocity": 1,
          "duration": 0.23999999999999488
        },
        {
          "name": "G#5",
          "midi": 80,
          "time": 110.40000000000002,
          "velocity": 1,
          "duration": 0.23999999999999488
        },
        {
          "name": "D#5",
          "midi": 75,
          "time": 110.88000000000001,
          "velocity": 1,
          "duration": 0.12000000000000455
        },
        {
          "name": "B4",
          "midi": 71,
          "time": 111.12000000000002,
          "velocity": 1,
          "duration": 0.12000000000000455
        },
        {
          "name": "F#5",
          "midi": 78,
          "time": 111.24000000000002,
          "velocity": 1,
          "duration": 0.480000000000004
        },
        {
          "name": "D#4",
          "midi": 63,
          "time": 119.04000000000002,
          "velocity": 1,
          "duration": 0.47999999999956344
        },
        {
          "name": "D#4",
          "midi": 63,
          "time": 119.04000000000002,
          "velocity": 1,
          "duration": 0.47999999999956344
        },
        {
          "name": "D#4",
          "midi": 63,
          "time": 119.75999999999937,
          "velocity": 1,
          "duration": 0.23999999999978172
        },
        {
          "name": "D#4",
          "midi": 63,
          "time": 119.75999999999937,
          "velocity": 1,
          "duration": 0.23999999999978172
        },
        {
          "name": "E4",
          "midi": 64,
          "time": 119.99999999999915,
          "velocity": 1,
          "duration": 0.23999999999978172
        },
        {
          "name": "B3",
          "midi": 59,
          "time": 120.47999999999871,
          "velocity": 1,
          "duration": 0.11999999999989086
        },
        {
          "name": "G#3",
          "midi": 56,
          "time": 120.71999999999849,
          "velocity": 1,
          "duration": 0.11999999999989086
        },
        {
          "name": "G#3",
          "midi": 56,
          "time": 120.71999999999849,
          "velocity": 1,
          "duration": 0.11999999999989086
        },
        {
          "name": "D#4",
          "midi": 63,
          "time": 120.83999999999838,
          "velocity": 1,
          "duration": 0.47999999999956344
        },
        {
          "name": "D#4",
          "midi": 63,
          "time": 120.83999999999838,
          "velocity": 1,
          "duration": 0.47999999999956344
        },
        {
          "name": "D#4",
          "midi": 63,
          "time": 121.67999999999762,
          "velocity": 1,
          "duration": 0.23999999999978172
        },
        {
          "name": "D#4",
          "midi": 63,
          "time": 121.67999999999762,
          "velocity": 1,
          "duration": 0.23999999999978172
        },
        {
          "name": "E4",
          "midi": 64,
          "time": 121.9199999999974,
          "velocity": 1,
          "duration": 0.23999999999978172
        },
        {
          "name": "B3",
          "midi": 59,
          "time": 122.39999999999696,
          "velocity": 1,
          "duration": 0.11999999999989086
        },
        {
          "name": "G#3",
          "midi": 56,
          "time": 122.63999999999675,
          "velocity": 1,
          "duration": 0.11999999999989086
        },
        {
          "name": "G#3",
          "midi": 56,
          "time": 122.63999999999675,
          "velocity": 1,
          "duration": 0.11999999999989086
        },
        {
          "name": "D#4",
          "midi": 63,
          "time": 122.75999999999664,
          "velocity": 1,
          "duration": 0.47999999999956344
        },
        {
          "name": "D#4",
          "midi": 63,
          "time": 122.75999999999664,
          "velocity": 1,
          "duration": 0.47999999999956344
        },
        {
          "name": "D#4",
          "midi": 63,
          "time": 123.59999999999587,
          "velocity": 1,
          "duration": 0.23999999999978172
        },
        {
          "name": "D#4",
          "midi": 63,
          "time": 123.59999999999587,
          "velocity": 1,
          "duration": 0.23999999999978172
        },
        {
          "name": "E4",
          "midi": 64,
          "time": 123.83999999999565,
          "velocity": 1,
          "duration": 0.23999999999978172
        },
        {
          "name": "B3",
          "midi": 59,
          "time": 124.31999999999522,
          "velocity": 1,
          "duration": 0.11999999999989086
        },
        {
          "name": "G#3",
          "midi": 56,
          "time": 124.559999999995,
          "velocity": 1,
          "duration": 0.11999999999989086
        },
        {
          "name": "G#3",
          "midi": 56,
          "time": 124.559999999995,
          "velocity": 1,
          "duration": 0.11999999999989086
        },
        {
          "name": "D#4",
          "midi": 63,
          "time": 124.67999999999489,
          "velocity": 1,
          "duration": 0.4799999999998903
        },
        {
          "name": "D#4",
          "midi": 63,
          "time": 124.67999999999489,
          "velocity": 1,
          "duration": 0.4799999999998903
        },
        {
          "name": "D#4",
          "midi": 63,
          "time": 125.51999999999478,
          "velocity": 1,
          "duration": 0.23999999999999488
        },
        {
          "name": "E4",
          "midi": 64,
          "time": 125.75999999999478,
          "velocity": 1,
          "duration": 0.23999999999999488
        },
        {
          "name": "D#4",
          "midi": 63,
          "time": 125.99999999999477,
          "velocity": 1,
          "duration": 0.23999999999999488
        },
        {
          "name": "B3",
          "midi": 59,
          "time": 126.23999999999477,
          "velocity": 1,
          "duration": 0.12000000000000455
        },
        {
          "name": "G#3",
          "midi": 56,
          "time": 126.47999999999477,
          "velocity": 1,
          "duration": 0.12000000000000455
        },
        {
          "name": "F#4",
          "midi": 66,
          "time": 126.71999999999478,
          "velocity": 1,
          "duration": 0.480000000000004
        },
        {
          "name": "F#4",
          "midi": 66,
          "time": 127.43999999999478,
          "velocity": 1,
          "duration": 0.23999999999999488
        },
        {
          "name": "G#4",
          "midi": 68,
          "time": 127.67999999999478,
          "velocity": 1,
          "duration": 0.23999999999999488
        },
        {
          "name": "D#4",
          "midi": 63,
          "time": 128.15999999999477,
          "velocity": 1,
          "duration": 0.12000000000000455
        },
        {
          "name": "B3",
          "midi": 59,
          "time": 128.39999999999478,
          "velocity": 1,
          "duration": 0.12000000000000455
        },
        {
          "name": "F#4",
          "midi": 66,
          "time": 128.51999999999478,
          "velocity": 1,
          "duration": 0.47999999999998977
        },
        {
          "name": "F#4",
          "midi": 66,
          "time": 129.35999999999478,
          "velocity": 1,
          "duration": 0.2400000000000091
        },
        {
          "name": "G#4",
          "midi": 68,
          "time": 129.5999999999948,
          "velocity": 1,
          "duration": 0.2400000000000091
        },
        {
          "name": "D#4",
          "midi": 63,
          "time": 130.0799999999948,
          "velocity": 1,
          "duration": 0.12000000000000455
        },
        {
          "name": "B3",
          "midi": 59,
          "time": 130.31999999999482,
          "velocity": 1,
          "duration": 0.12000000000000455
        },
        {
          "name": "F#4",
          "midi": 66,
          "time": 130.43999999999482,
          "velocity": 1,
          "duration": 0.47999999999998977
        },
        {
          "name": "F#4",
          "midi": 66,
          "time": 131.27999999999483,
          "velocity": 1,
          "duration": 0.2400000000000091
        },
        {
          "name": "G#4",
          "midi": 68,
          "time": 131.51999999999484,
          "velocity": 1,
          "duration": 0.2400000000000091
        },
        {
          "name": "D#4",
          "midi": 63,
          "time": 131.99999999999486,
          "velocity": 1,
          "duration": 0.12000000000000455
        },
        {
          "name": "B3",
          "midi": 59,
          "time": 132.23999999999486,
          "velocity": 1,
          "duration": 0.12000000000000455
        },
        {
          "name": "F#4",
          "midi": 66,
          "time": 132.35999999999487,
          "velocity": 1,
          "duration": 2.039999999998713
        }
      ],
      "controlChanges": {
        "6": [
          {
            "number": 6,
            "time": 0,
            "value": 0.09448818897637795
          },
          {
            "number": 6,
            "time": 0,
            "value": 0.09448818897637795
          },
          {
            "number": 6,
            "time": 140.30499999999358,
            "value": 0.09448818897637795
          },
          {
            "number": 6,
            "time": 140.30999999999358,
            "value": 0.09448818897637795
          },
          {
            "number": 6,
            "time": 140.30999999999358,
            "value": 0.09448818897637795
          }
        ],
        "7": [
          {
            "number": 7,
            "time": 0,
            "value": 0.8503937007874016
          },
          {
            "number": 7,
            "time": 0,
            "value": 0.8503937007874016
          },
          {
            "number": 7,
            "time": 0,
            "value": 0.8503937007874016
          },
          {
            "number": 7,
            "time": 23.04,
            "value": 0.8503937007874016
          },
          {
            "number": 7,
            "time": 36.959999999999965,
            "value": 0.8503937007874016
          },
          {
            "number": 7,
            "time": 37.91999999999997,
            "value": 0.8503937007874016
          },
          {
            "number": 7,
            "time": 49.43999999999994,
            "value": 0.8503937007874016
          },
          {
            "number": 7,
            "time": 52.199999999999925,
            "value": 0.8503937007874016
          },
          {
            "number": 7,
            "time": 119.04000000000002,
            "value": 0
          },
          {
            "number": 7,
            "time": 119.04500000000002,
            "value": 0
          },
          {
            "number": 7,
            "time": 119.05000000000001,
            "value": 0
          },
          {
            "number": 7,
            "time": 119.055,
            "value": 0
          },
          {
            "number": 7,
            "time": 119.06,
            "value": 0
          },
          {
            "number": 7,
            "time": 119.065,
            "value": 0
          },
          {
            "number": 7,
            "time": 119.07,
            "value": 0
          },
          {
            "number": 7,
            "time": 119.07499999999999,
            "value": 0
          },
          {
            "number": 7,
            "time": 119.07999999999998,
            "value": 0
          },
          {
            "number": 7,
            "time": 119.08499999999998,
            "value": 0
          },
          {
            "number": 7,
            "time": 119.08999999999997,
            "value": 0
          },
          {
            "number": 7,
            "time": 119.09499999999997,
            "value": 0.007874015748031496
          },
          {
            "number": 7,
            "time": 119.09999999999997,
            "value": 0.007874015748031496
          },
          {
            "number": 7,
            "time": 119.10499999999996,
            "value": 0.007874015748031496
          },
          {
            "number": 7,
            "time": 119.10999999999996,
            "value": 0.007874015748031496
          },
          {
            "number": 7,
            "time": 119.11499999999995,
            "value": 0.007874015748031496
          },
          {
            "number": 7,
            "time": 119.11999999999995,
            "value": 0.007874015748031496
          },
          {
            "number": 7,
            "time": 119.12499999999994,
            "value": 0.007874015748031496
          },
          {
            "number": 7,
            "time": 119.12999999999994,
            "value": 0.007874015748031496
          },
          {
            "number": 7,
            "time": 119.13499999999993,
            "value": 0.007874015748031496
          },
          {
            "number": 7,
            "time": 119.13999999999993,
            "value": 0.007874015748031496
          },
          {
            "number": 7,
            "time": 119.14499999999992,
            "value": 0.007874015748031496
          },
          {
            "number": 7,
            "time": 119.14999999999992,
            "value": 0.007874015748031496
          },
          {
            "number": 7,
            "time": 119.15499999999992,
            "value": 0.015748031496062992
          },
          {
            "number": 7,
            "time": 119.15999999999991,
            "value": 0.015748031496062992
          },
          {
            "number": 7,
            "time": 119.1649999999999,
            "value": 0.015748031496062992
          },
          {
            "number": 7,
            "time": 119.1699999999999,
            "value": 0.015748031496062992
          },
          {
            "number": 7,
            "time": 119.1749999999999,
            "value": 0.015748031496062992
          },
          {
            "number": 7,
            "time": 119.1799999999999,
            "value": 0.015748031496062992
          },
          {
            "number": 7,
            "time": 119.18499999999989,
            "value": 0.015748031496062992
          },
          {
            "number": 7,
            "time": 119.18999999999988,
            "value": 0.015748031496062992
          },
          {
            "number": 7,
            "time": 119.19499999999988,
            "value": 0.015748031496062992
          },
          {
            "number": 7,
            "time": 119.19999999999987,
            "value": 0.015748031496062992
          },
          {
            "number": 7,
            "time": 119.20499999999987,
            "value": 0.015748031496062992
          },
          {
            "number": 7,
            "time": 119.20999999999987,
            "value": 0.015748031496062992
          },
          {
            "number": 7,
            "time": 119.21499999999986,
            "value": 0.023622047244094488
          },
          {
            "number": 7,
            "time": 119.21999999999986,
            "value": 0.023622047244094488
          },
          {
            "number": 7,
            "time": 119.22499999999985,
            "value": 0.023622047244094488
          },
          {
            "number": 7,
            "time": 119.22999999999985,
            "value": 0.023622047244094488
          },
          {
            "number": 7,
            "time": 119.23499999999984,
            "value": 0.023622047244094488
          },
          {
            "number": 7,
            "time": 119.23999999999984,
            "value": 0.023622047244094488
          },
          {
            "number": 7,
            "time": 119.24499999999983,
            "value": 0.023622047244094488
          },
          {
            "number": 7,
            "time": 119.24999999999983,
            "value": 0.023622047244094488
          },
          {
            "number": 7,
            "time": 119.25499999999982,
            "value": 0.023622047244094488
          },
          {
            "number": 7,
            "time": 119.25999999999982,
            "value": 0.023622047244094488
          },
          {
            "number": 7,
            "time": 119.26499999999982,
            "value": 0.023622047244094488
          },
          {
            "number": 7,
            "time": 119.26999999999981,
            "value": 0.023622047244094488
          },
          {
            "number": 7,
            "time": 119.2749999999998,
            "value": 0.031496062992125984
          },
          {
            "number": 7,
            "time": 119.2799999999998,
            "value": 0.031496062992125984
          },
          {
            "number": 7,
            "time": 119.2849999999998,
            "value": 0.031496062992125984
          },
          {
            "number": 7,
            "time": 119.2899999999998,
            "value": 0.031496062992125984
          },
          {
            "number": 7,
            "time": 119.29499999999979,
            "value": 0.031496062992125984
          },
          {
            "number": 7,
            "time": 119.29999999999978,
            "value": 0.031496062992125984
          },
          {
            "number": 7,
            "time": 119.30499999999978,
            "value": 0.031496062992125984
          },
          {
            "number": 7,
            "time": 119.30999999999977,
            "value": 0.031496062992125984
          },
          {
            "number": 7,
            "time": 119.31499999999977,
            "value": 0.031496062992125984
          },
          {
            "number": 7,
            "time": 119.31999999999977,
            "value": 0.031496062992125984
          },
          {
            "number": 7,
            "time": 119.32499999999976,
            "value": 0.031496062992125984
          },
          {
            "number": 7,
            "time": 119.32999999999976,
            "value": 0.031496062992125984
          },
          {
            "number": 7,
            "time": 119.33499999999975,
            "value": 0.031496062992125984
          },
          {
            "number": 7,
            "time": 119.33999999999975,
            "value": 0.03937007874015748
          },
          {
            "number": 7,
            "time": 119.34499999999974,
            "value": 0.03937007874015748
          },
          {
            "number": 7,
            "time": 119.34999999999974,
            "value": 0.03937007874015748
          },
          {
            "number": 7,
            "time": 119.35499999999973,
            "value": 0.03937007874015748
          },
          {
            "number": 7,
            "time": 119.35999999999973,
            "value": 0.03937007874015748
          },
          {
            "number": 7,
            "time": 119.36499999999972,
            "value": 0.03937007874015748
          },
          {
            "number": 7,
            "time": 119.36999999999972,
            "value": 0.03937007874015748
          },
          {
            "number": 7,
            "time": 119.37499999999972,
            "value": 0.03937007874015748
          },
          {
            "number": 7,
            "time": 119.37999999999971,
            "value": 0.03937007874015748
          },
          {
            "number": 7,
            "time": 119.3849999999997,
            "value": 0.03937007874015748
          },
          {
            "number": 7,
            "time": 119.3899999999997,
            "value": 0.03937007874015748
          },
          {
            "number": 7,
            "time": 119.3949999999997,
            "value": 0.03937007874015748
          },
          {
            "number": 7,
            "time": 119.3999999999997,
            "value": 0.047244094488188976
          },
          {
            "number": 7,
            "time": 119.40499999999969,
            "value": 0.047244094488188976
          },
          {
            "number": 7,
            "time": 119.40999999999968,
            "value": 0.047244094488188976
          },
          {
            "number": 7,
            "time": 119.41499999999968,
            "value": 0.047244094488188976
          },
          {
            "number": 7,
            "time": 119.41999999999967,
            "value": 0.047244094488188976
          },
          {
            "number": 7,
            "time": 119.42499999999967,
            "value": 0.047244094488188976
          },
          {
            "number": 7,
            "time": 119.42999999999967,
            "value": 0.047244094488188976
          },
          {
            "number": 7,
            "time": 119.43499999999966,
            "value": 0.047244094488188976
          },
          {
            "number": 7,
            "time": 119.43999999999966,
            "value": 0.047244094488188976
          },
          {
            "number": 7,
            "time": 119.44499999999965,
            "value": 0.047244094488188976
          },
          {
            "number": 7,
            "time": 119.44999999999965,
            "value": 0.047244094488188976
          },
          {
            "number": 7,
            "time": 119.45499999999964,
            "value": 0.047244094488188976
          },
          {
            "number": 7,
            "time": 119.45999999999964,
            "value": 0.05511811023622047
          },
          {
            "number": 7,
            "time": 119.46499999999963,
            "value": 0.05511811023622047
          },
          {
            "number": 7,
            "time": 119.46999999999963,
            "value": 0.05511811023622047
          },
          {
            "number": 7,
            "time": 119.47499999999962,
            "value": 0.05511811023622047
          },
          {
            "number": 7,
            "time": 119.47999999999962,
            "value": 0.05511811023622047
          },
          {
            "number": 7,
            "time": 119.48499999999962,
            "value": 0.05511811023622047
          },
          {
            "number": 7,
            "time": 119.48999999999961,
            "value": 0.05511811023622047
          },
          {
            "number": 7,
            "time": 119.4949999999996,
            "value": 0.05511811023622047
          },
          {
            "number": 7,
            "time": 119.4999999999996,
            "value": 0.05511811023622047
          },
          {
            "number": 7,
            "time": 119.5049999999996,
            "value": 0.05511811023622047
          },
          {
            "number": 7,
            "time": 119.5099999999996,
            "value": 0.05511811023622047
          },
          {
            "number": 7,
            "time": 119.51499999999959,
            "value": 0.05511811023622047
          },
          {
            "number": 7,
            "time": 119.51999999999958,
            "value": 0.06299212598425197
          },
          {
            "number": 7,
            "time": 119.52499999999958,
            "value": 0.06299212598425197
          },
          {
            "number": 7,
            "time": 119.52999999999957,
            "value": 0.06299212598425197
          },
          {
            "number": 7,
            "time": 119.53499999999957,
            "value": 0.06299212598425197
          },
          {
            "number": 7,
            "time": 119.53999999999957,
            "value": 0.06299212598425197
          },
          {
            "number": 7,
            "time": 119.54499999999956,
            "value": 0.06299212598425197
          },
          {
            "number": 7,
            "time": 119.54999999999956,
            "value": 0.06299212598425197
          },
          {
            "number": 7,
            "time": 119.55499999999955,
            "value": 0.06299212598425197
          },
          {
            "number": 7,
            "time": 119.55999999999955,
            "value": 0.06299212598425197
          },
          {
            "number": 7,
            "time": 119.56499999999954,
            "value": 0.06299212598425197
          },
          {
            "number": 7,
            "time": 119.56999999999954,
            "value": 0.06299212598425197
          },
          {
            "number": 7,
            "time": 119.57499999999953,
            "value": 0.06299212598425197
          },
          {
            "number": 7,
            "time": 119.57999999999953,
            "value": 0.06299212598425197
          },
          {
            "number": 7,
            "time": 119.58499999999952,
            "value": 0.07086614173228346
          },
          {
            "number": 7,
            "time": 119.58999999999952,
            "value": 0.07086614173228346
          },
          {
            "number": 7,
            "time": 119.59499999999952,
            "value": 0.07086614173228346
          },
          {
            "number": 7,
            "time": 119.59999999999951,
            "value": 0.07086614173228346
          },
          {
            "number": 7,
            "time": 119.6049999999995,
            "value": 0.07086614173228346
          },
          {
            "number": 7,
            "time": 119.6099999999995,
            "value": 0.07086614173228346
          },
          {
            "number": 7,
            "time": 119.6149999999995,
            "value": 0.07086614173228346
          },
          {
            "number": 7,
            "time": 119.6199999999995,
            "value": 0.07086614173228346
          },
          {
            "number": 7,
            "time": 119.62499999999949,
            "value": 0.07086614173228346
          },
          {
            "number": 7,
            "time": 119.62999999999948,
            "value": 0.07086614173228346
          },
          {
            "number": 7,
            "time": 119.63499999999948,
            "value": 0.07086614173228346
          },
          {
            "number": 7,
            "time": 119.63999999999947,
            "value": 0.07086614173228346
          },
          {
            "number": 7,
            "time": 119.64499999999947,
            "value": 0.07874015748031496
          },
          {
            "number": 7,
            "time": 119.64999999999947,
            "value": 0.07874015748031496
          },
          {
            "number": 7,
            "time": 119.65499999999946,
            "value": 0.07874015748031496
          },
          {
            "number": 7,
            "time": 119.65999999999946,
            "value": 0.07874015748031496
          },
          {
            "number": 7,
            "time": 119.66499999999945,
            "value": 0.07874015748031496
          },
          {
            "number": 7,
            "time": 119.66999999999945,
            "value": 0.07874015748031496
          },
          {
            "number": 7,
            "time": 119.67499999999944,
            "value": 0.07874015748031496
          },
          {
            "number": 7,
            "time": 119.67999999999944,
            "value": 0.07874015748031496
          },
          {
            "number": 7,
            "time": 119.68499999999943,
            "value": 0.07874015748031496
          },
          {
            "number": 7,
            "time": 119.68999999999943,
            "value": 0.07874015748031496
          },
          {
            "number": 7,
            "time": 119.69499999999942,
            "value": 0.07874015748031496
          },
          {
            "number": 7,
            "time": 119.69999999999942,
            "value": 0.07874015748031496
          },
          {
            "number": 7,
            "time": 119.70499999999942,
            "value": 0.08661417322834646
          },
          {
            "number": 7,
            "time": 119.70999999999941,
            "value": 0.08661417322834646
          },
          {
            "number": 7,
            "time": 119.7149999999994,
            "value": 0.08661417322834646
          },
          {
            "number": 7,
            "time": 119.7199999999994,
            "value": 0.08661417322834646
          },
          {
            "number": 7,
            "time": 119.7249999999994,
            "value": 0.08661417322834646
          },
          {
            "number": 7,
            "time": 119.7299999999994,
            "value": 0.08661417322834646
          },
          {
            "number": 7,
            "time": 119.73499999999939,
            "value": 0.08661417322834646
          },
          {
            "number": 7,
            "time": 119.73999999999938,
            "value": 0.08661417322834646
          },
          {
            "number": 7,
            "time": 119.74499999999938,
            "value": 0.08661417322834646
          },
          {
            "number": 7,
            "time": 119.74999999999937,
            "value": 0.08661417322834646
          },
          {
            "number": 7,
            "time": 119.75499999999937,
            "value": 0.08661417322834646
          },
          {
            "number": 7,
            "time": 119.75999999999937,
            "value": 0.08661417322834646
          },
          {
            "number": 7,
            "time": 119.76499999999936,
            "value": 0.09448818897637795
          },
          {
            "number": 7,
            "time": 119.76999999999936,
            "value": 0.09448818897637795
          },
          {
            "number": 7,
            "time": 119.77499999999935,
            "value": 0.09448818897637795
          },
          {
            "number": 7,
            "time": 119.77999999999935,
            "value": 0.09448818897637795
          },
          {
            "number": 7,
            "time": 119.78499999999934,
            "value": 0.09448818897637795
          },
          {
            "number": 7,
            "time": 119.78999999999934,
            "value": 0.09448818897637795
          },
          {
            "number": 7,
            "time": 119.79499999999933,
            "value": 0.09448818897637795
          },
          {
            "number": 7,
            "time": 119.79999999999933,
            "value": 0.09448818897637795
          },
          {
            "number": 7,
            "time": 119.80499999999932,
            "value": 0.09448818897637795
          },
          {
            "number": 7,
            "time": 119.80999999999932,
            "value": 0.09448818897637795
          },
          {
            "number": 7,
            "time": 119.81499999999932,
            "value": 0.09448818897637795
          },
          {
            "number": 7,
            "time": 119.81999999999931,
            "value": 0.09448818897637795
          },
          {
            "number": 7,
            "time": 119.8249999999993,
            "value": 0.10236220472440945
          },
          {
            "number": 7,
            "time": 119.8299999999993,
            "value": 0.10236220472440945
          },
          {
            "number": 7,
            "time": 119.8349999999993,
            "value": 0.10236220472440945
          },
          {
            "number": 7,
            "time": 119.83999999999929,
            "value": 0.10236220472440945
          },
          {
            "number": 7,
            "time": 119.84499999999929,
            "value": 0.10236220472440945
          },
          {
            "number": 7,
            "time": 119.84999999999928,
            "value": 0.10236220472440945
          },
          {
            "number": 7,
            "time": 119.85499999999928,
            "value": 0.10236220472440945
          },
          {
            "number": 7,
            "time": 119.85999999999927,
            "value": 0.10236220472440945
          },
          {
            "number": 7,
            "time": 119.86499999999927,
            "value": 0.10236220472440945
          },
          {
            "number": 7,
            "time": 119.86999999999927,
            "value": 0.10236220472440945
          },
          {
            "number": 7,
            "time": 119.87499999999926,
            "value": 0.10236220472440945
          },
          {
            "number": 7,
            "time": 119.87999999999926,
            "value": 0.10236220472440945
          },
          {
            "number": 7,
            "time": 119.88499999999925,
            "value": 0.10236220472440945
          },
          {
            "number": 7,
            "time": 119.88999999999925,
            "value": 0.11023622047244094
          },
          {
            "number": 7,
            "time": 119.89499999999924,
            "value": 0.11023622047244094
          },
          {
            "number": 7,
            "time": 119.89999999999924,
            "value": 0.11023622047244094
          },
          {
            "number": 7,
            "time": 119.90499999999923,
            "value": 0.11023622047244094
          },
          {
            "number": 7,
            "time": 119.90999999999923,
            "value": 0.11023622047244094
          },
          {
            "number": 7,
            "time": 119.91499999999922,
            "value": 0.11023622047244094
          },
          {
            "number": 7,
            "time": 119.91999999999922,
            "value": 0.11023622047244094
          },
          {
            "number": 7,
            "time": 119.92499999999922,
            "value": 0.11023622047244094
          },
          {
            "number": 7,
            "time": 119.92999999999921,
            "value": 0.11023622047244094
          },
          {
            "number": 7,
            "time": 119.9349999999992,
            "value": 0.11023622047244094
          },
          {
            "number": 7,
            "time": 119.9399999999992,
            "value": 0.11023622047244094
          },
          {
            "number": 7,
            "time": 119.9449999999992,
            "value": 0.11023622047244094
          },
          {
            "number": 7,
            "time": 119.94999999999919,
            "value": 0.11811023622047244
          },
          {
            "number": 7,
            "time": 119.95499999999919,
            "value": 0.11811023622047244
          },
          {
            "number": 7,
            "time": 119.95999999999918,
            "value": 0.11811023622047244
          },
          {
            "number": 7,
            "time": 119.96499999999918,
            "value": 0.11811023622047244
          },
          {
            "number": 7,
            "time": 119.96999999999917,
            "value": 0.11811023622047244
          },
          {
            "number": 7,
            "time": 119.97499999999917,
            "value": 0.11811023622047244
          },
          {
            "number": 7,
            "time": 119.97999999999917,
            "value": 0.11811023622047244
          },
          {
            "number": 7,
            "time": 119.98499999999916,
            "value": 0.11811023622047244
          },
          {
            "number": 7,
            "time": 119.98999999999916,
            "value": 0.11811023622047244
          },
          {
            "number": 7,
            "time": 119.99499999999915,
            "value": 0.11811023622047244
          },
          {
            "number": 7,
            "time": 119.99999999999915,
            "value": 0.11811023622047244
          },
          {
            "number": 7,
            "time": 120.00499999999914,
            "value": 0.11811023622047244
          },
          {
            "number": 7,
            "time": 120.00999999999914,
            "value": 0.12598425196850394
          },
          {
            "number": 7,
            "time": 120.01499999999913,
            "value": 0.12598425196850394
          },
          {
            "number": 7,
            "time": 120.01999999999913,
            "value": 0.12598425196850394
          },
          {
            "number": 7,
            "time": 120.02499999999912,
            "value": 0.12598425196850394
          },
          {
            "number": 7,
            "time": 120.02999999999912,
            "value": 0.12598425196850394
          },
          {
            "number": 7,
            "time": 120.03499999999912,
            "value": 0.12598425196850394
          },
          {
            "number": 7,
            "time": 120.03999999999911,
            "value": 0.12598425196850394
          },
          {
            "number": 7,
            "time": 120.0449999999991,
            "value": 0.12598425196850394
          },
          {
            "number": 7,
            "time": 120.0499999999991,
            "value": 0.12598425196850394
          },
          {
            "number": 7,
            "time": 120.0549999999991,
            "value": 0.12598425196850394
          },
          {
            "number": 7,
            "time": 120.05999999999909,
            "value": 0.12598425196850394
          },
          {
            "number": 7,
            "time": 120.06499999999909,
            "value": 0.12598425196850394
          },
          {
            "number": 7,
            "time": 120.06999999999908,
            "value": 0.13385826771653545
          },
          {
            "number": 7,
            "time": 120.07499999999908,
            "value": 0.13385826771653545
          },
          {
            "number": 7,
            "time": 120.07999999999907,
            "value": 0.13385826771653545
          },
          {
            "number": 7,
            "time": 120.08499999999907,
            "value": 0.13385826771653545
          },
          {
            "number": 7,
            "time": 120.08999999999907,
            "value": 0.13385826771653545
          },
          {
            "number": 7,
            "time": 120.09499999999906,
            "value": 0.13385826771653545
          },
          {
            "number": 7,
            "time": 120.09999999999906,
            "value": 0.13385826771653545
          },
          {
            "number": 7,
            "time": 120.10499999999905,
            "value": 0.13385826771653545
          },
          {
            "number": 7,
            "time": 120.10999999999905,
            "value": 0.13385826771653545
          },
          {
            "number": 7,
            "time": 120.11499999999904,
            "value": 0.13385826771653545
          },
          {
            "number": 7,
            "time": 120.11999999999904,
            "value": 0.13385826771653545
          },
          {
            "number": 7,
            "time": 120.12499999999903,
            "value": 0.13385826771653545
          },
          {
            "number": 7,
            "time": 120.12999999999903,
            "value": 0.13385826771653545
          },
          {
            "number": 7,
            "time": 120.13499999999902,
            "value": 0.14173228346456693
          },
          {
            "number": 7,
            "time": 120.13999999999902,
            "value": 0.14173228346456693
          },
          {
            "number": 7,
            "time": 120.14499999999902,
            "value": 0.14173228346456693
          },
          {
            "number": 7,
            "time": 120.14999999999901,
            "value": 0.14173228346456693
          },
          {
            "number": 7,
            "time": 120.154999999999,
            "value": 0.14173228346456693
          },
          {
            "number": 7,
            "time": 120.159999999999,
            "value": 0.14173228346456693
          },
          {
            "number": 7,
            "time": 120.164999999999,
            "value": 0.14173228346456693
          },
          {
            "number": 7,
            "time": 120.16999999999899,
            "value": 0.14173228346456693
          },
          {
            "number": 7,
            "time": 120.17499999999899,
            "value": 0.14173228346456693
          },
          {
            "number": 7,
            "time": 120.17999999999898,
            "value": 0.14173228346456693
          },
          {
            "number": 7,
            "time": 120.18499999999898,
            "value": 0.14173228346456693
          },
          {
            "number": 7,
            "time": 120.18999999999897,
            "value": 0.14173228346456693
          },
          {
            "number": 7,
            "time": 120.19499999999897,
            "value": 0.14960629921259844
          },
          {
            "number": 7,
            "time": 120.19999999999897,
            "value": 0.14960629921259844
          },
          {
            "number": 7,
            "time": 120.20499999999896,
            "value": 0.14960629921259844
          },
          {
            "number": 7,
            "time": 120.20999999999896,
            "value": 0.14960629921259844
          },
          {
            "number": 7,
            "time": 120.21499999999895,
            "value": 0.14960629921259844
          },
          {
            "number": 7,
            "time": 120.21999999999895,
            "value": 0.14960629921259844
          },
          {
            "number": 7,
            "time": 120.22499999999894,
            "value": 0.14960629921259844
          },
          {
            "number": 7,
            "time": 120.22999999999894,
            "value": 0.14960629921259844
          },
          {
            "number": 7,
            "time": 120.23499999999893,
            "value": 0.14960629921259844
          },
          {
            "number": 7,
            "time": 120.23999999999893,
            "value": 0.14960629921259844
          },
          {
            "number": 7,
            "time": 120.24499999999892,
            "value": 0.14960629921259844
          },
          {
            "number": 7,
            "time": 120.24999999999892,
            "value": 0.14960629921259844
          },
          {
            "number": 7,
            "time": 120.25499999999892,
            "value": 0.15748031496062992
          },
          {
            "number": 7,
            "time": 120.25999999999891,
            "value": 0.15748031496062992
          },
          {
            "number": 7,
            "time": 120.2649999999989,
            "value": 0.15748031496062992
          },
          {
            "number": 7,
            "time": 120.2699999999989,
            "value": 0.15748031496062992
          },
          {
            "number": 7,
            "time": 120.2749999999989,
            "value": 0.15748031496062992
          },
          {
            "number": 7,
            "time": 120.27999999999889,
            "value": 0.15748031496062992
          },
          {
            "number": 7,
            "time": 120.28499999999889,
            "value": 0.15748031496062992
          },
          {
            "number": 7,
            "time": 120.28999999999888,
            "value": 0.15748031496062992
          },
          {
            "number": 7,
            "time": 120.29499999999888,
            "value": 0.15748031496062992
          },
          {
            "number": 7,
            "time": 120.29999999999887,
            "value": 0.15748031496062992
          },
          {
            "number": 7,
            "time": 120.30499999999887,
            "value": 0.15748031496062992
          },
          {
            "number": 7,
            "time": 120.30999999999887,
            "value": 0.15748031496062992
          },
          {
            "number": 7,
            "time": 120.31499999999886,
            "value": 0.16535433070866143
          },
          {
            "number": 7,
            "time": 120.31999999999886,
            "value": 0.16535433070866143
          },
          {
            "number": 7,
            "time": 120.32499999999885,
            "value": 0.16535433070866143
          },
          {
            "number": 7,
            "time": 120.32999999999885,
            "value": 0.16535433070866143
          },
          {
            "number": 7,
            "time": 120.33499999999884,
            "value": 0.16535433070866143
          },
          {
            "number": 7,
            "time": 120.33999999999884,
            "value": 0.16535433070866143
          },
          {
            "number": 7,
            "time": 120.34499999999883,
            "value": 0.16535433070866143
          },
          {
            "number": 7,
            "time": 120.34999999999883,
            "value": 0.16535433070866143
          },
          {
            "number": 7,
            "time": 120.35499999999882,
            "value": 0.16535433070866143
          },
          {
            "number": 7,
            "time": 120.35999999999882,
            "value": 0.16535433070866143
          },
          {
            "number": 7,
            "time": 120.36499999999882,
            "value": 0.16535433070866143
          },
          {
            "number": 7,
            "time": 120.36999999999881,
            "value": 0.16535433070866143
          },
          {
            "number": 7,
            "time": 120.3749999999988,
            "value": 0.16535433070866143
          },
          {
            "number": 7,
            "time": 120.3799999999988,
            "value": 0.1732283464566929
          },
          {
            "number": 7,
            "time": 120.3849999999988,
            "value": 0.1732283464566929
          },
          {
            "number": 7,
            "time": 120.38999999999879,
            "value": 0.1732283464566929
          },
          {
            "number": 7,
            "time": 120.39499999999879,
            "value": 0.1732283464566929
          },
          {
            "number": 7,
            "time": 120.39999999999878,
            "value": 0.1732283464566929
          },
          {
            "number": 7,
            "time": 120.40499999999878,
            "value": 0.1732283464566929
          },
          {
            "number": 7,
            "time": 120.40999999999877,
            "value": 0.1732283464566929
          },
          {
            "number": 7,
            "time": 120.41499999999877,
            "value": 0.1732283464566929
          },
          {
            "number": 7,
            "time": 120.41999999999877,
            "value": 0.1732283464566929
          },
          {
            "number": 7,
            "time": 120.42499999999876,
            "value": 0.1732283464566929
          },
          {
            "number": 7,
            "time": 120.42999999999876,
            "value": 0.1732283464566929
          },
          {
            "number": 7,
            "time": 120.43499999999875,
            "value": 0.1732283464566929
          },
          {
            "number": 7,
            "time": 120.43999999999875,
            "value": 0.18110236220472442
          },
          {
            "number": 7,
            "time": 120.44499999999874,
            "value": 0.18110236220472442
          },
          {
            "number": 7,
            "time": 120.44999999999874,
            "value": 0.18110236220472442
          },
          {
            "number": 7,
            "time": 120.45499999999873,
            "value": 0.18110236220472442
          },
          {
            "number": 7,
            "time": 120.45999999999873,
            "value": 0.18110236220472442
          },
          {
            "number": 7,
            "time": 120.46499999999872,
            "value": 0.18110236220472442
          },
          {
            "number": 7,
            "time": 120.46999999999872,
            "value": 0.18110236220472442
          },
          {
            "number": 7,
            "time": 120.47499999999872,
            "value": 0.18110236220472442
          },
          {
            "number": 7,
            "time": 120.47999999999871,
            "value": 0.18110236220472442
          },
          {
            "number": 7,
            "time": 120.4849999999987,
            "value": 0.18110236220472442
          },
          {
            "number": 7,
            "time": 120.4899999999987,
            "value": 0.18110236220472442
          },
          {
            "number": 7,
            "time": 120.4949999999987,
            "value": 0.18110236220472442
          },
          {
            "number": 7,
            "time": 120.49999999999869,
            "value": 0.1889763779527559
          },
          {
            "number": 7,
            "time": 120.50499999999869,
            "value": 0.1889763779527559
          },
          {
            "number": 7,
            "time": 120.50999999999868,
            "value": 0.1889763779527559
          },
          {
            "number": 7,
            "time": 120.51499999999868,
            "value": 0.1889763779527559
          },
          {
            "number": 7,
            "time": 120.51999999999867,
            "value": 0.1889763779527559
          },
          {
            "number": 7,
            "time": 120.52499999999867,
            "value": 0.1889763779527559
          },
          {
            "number": 7,
            "time": 120.52999999999867,
            "value": 0.1889763779527559
          },
          {
            "number": 7,
            "time": 120.53499999999866,
            "value": 0.1889763779527559
          },
          {
            "number": 7,
            "time": 120.53999999999866,
            "value": 0.1889763779527559
          },
          {
            "number": 7,
            "time": 120.54499999999865,
            "value": 0.1889763779527559
          },
          {
            "number": 7,
            "time": 120.54999999999865,
            "value": 0.1889763779527559
          },
          {
            "number": 7,
            "time": 120.55499999999864,
            "value": 0.1889763779527559
          },
          {
            "number": 7,
            "time": 120.55999999999864,
            "value": 0.1968503937007874
          },
          {
            "number": 7,
            "time": 120.56499999999863,
            "value": 0.1968503937007874
          },
          {
            "number": 7,
            "time": 120.56999999999863,
            "value": 0.1968503937007874
          },
          {
            "number": 7,
            "time": 120.57499999999862,
            "value": 0.1968503937007874
          },
          {
            "number": 7,
            "time": 120.57999999999862,
            "value": 0.1968503937007874
          },
          {
            "number": 7,
            "time": 120.58499999999862,
            "value": 0.1968503937007874
          },
          {
            "number": 7,
            "time": 120.58999999999861,
            "value": 0.1968503937007874
          },
          {
            "number": 7,
            "time": 120.5949999999986,
            "value": 0.1968503937007874
          },
          {
            "number": 7,
            "time": 120.5999999999986,
            "value": 0.1968503937007874
          },
          {
            "number": 7,
            "time": 120.6049999999986,
            "value": 0.1968503937007874
          },
          {
            "number": 7,
            "time": 120.60999999999859,
            "value": 0.1968503937007874
          },
          {
            "number": 7,
            "time": 120.61499999999859,
            "value": 0.1968503937007874
          },
          {
            "number": 7,
            "time": 120.61999999999858,
            "value": 0.2047244094488189
          },
          {
            "number": 7,
            "time": 120.62499999999858,
            "value": 0.2047244094488189
          },
          {
            "number": 7,
            "time": 120.62999999999857,
            "value": 0.2047244094488189
          },
          {
            "number": 7,
            "time": 120.63499999999857,
            "value": 0.2047244094488189
          },
          {
            "number": 7,
            "time": 120.63999999999857,
            "value": 0.2047244094488189
          },
          {
            "number": 7,
            "time": 120.64499999999856,
            "value": 0.2047244094488189
          },
          {
            "number": 7,
            "time": 120.64999999999856,
            "value": 0.2047244094488189
          },
          {
            "number": 7,
            "time": 120.65499999999855,
            "value": 0.2047244094488189
          },
          {
            "number": 7,
            "time": 120.65999999999855,
            "value": 0.2047244094488189
          },
          {
            "number": 7,
            "time": 120.66499999999854,
            "value": 0.2047244094488189
          },
          {
            "number": 7,
            "time": 120.66999999999854,
            "value": 0.2047244094488189
          },
          {
            "number": 7,
            "time": 120.67499999999853,
            "value": 0.2047244094488189
          },
          {
            "number": 7,
            "time": 120.67999999999853,
            "value": 0.2047244094488189
          },
          {
            "number": 7,
            "time": 120.68499999999852,
            "value": 0.2125984251968504
          },
          {
            "number": 7,
            "time": 120.68999999999852,
            "value": 0.2125984251968504
          },
          {
            "number": 7,
            "time": 120.69499999999852,
            "value": 0.2125984251968504
          },
          {
            "number": 7,
            "time": 120.69999999999851,
            "value": 0.2125984251968504
          },
          {
            "number": 7,
            "time": 120.7049999999985,
            "value": 0.2125984251968504
          },
          {
            "number": 7,
            "time": 120.7099999999985,
            "value": 0.2125984251968504
          },
          {
            "number": 7,
            "time": 120.7149999999985,
            "value": 0.2125984251968504
          },
          {
            "number": 7,
            "time": 120.71999999999849,
            "value": 0.2125984251968504
          },
          {
            "number": 7,
            "time": 120.72499999999849,
            "value": 0.2125984251968504
          },
          {
            "number": 7,
            "time": 120.72999999999848,
            "value": 0.2125984251968504
          },
          {
            "number": 7,
            "time": 120.73499999999848,
            "value": 0.2125984251968504
          },
          {
            "number": 7,
            "time": 120.73999999999847,
            "value": 0.2125984251968504
          },
          {
            "number": 7,
            "time": 120.74499999999847,
            "value": 0.2204724409448819
          },
          {
            "number": 7,
            "time": 120.74999999999847,
            "value": 0.2204724409448819
          },
          {
            "number": 7,
            "time": 120.75499999999846,
            "value": 0.2204724409448819
          },
          {
            "number": 7,
            "time": 120.75999999999846,
            "value": 0.2204724409448819
          },
          {
            "number": 7,
            "time": 120.76499999999845,
            "value": 0.2204724409448819
          },
          {
            "number": 7,
            "time": 120.76999999999845,
            "value": 0.2204724409448819
          },
          {
            "number": 7,
            "time": 120.77499999999844,
            "value": 0.2204724409448819
          },
          {
            "number": 7,
            "time": 120.77999999999844,
            "value": 0.2204724409448819
          },
          {
            "number": 7,
            "time": 120.78499999999843,
            "value": 0.2204724409448819
          },
          {
            "number": 7,
            "time": 120.78999999999843,
            "value": 0.2204724409448819
          },
          {
            "number": 7,
            "time": 120.79499999999842,
            "value": 0.2204724409448819
          },
          {
            "number": 7,
            "time": 120.79999999999842,
            "value": 0.2204724409448819
          },
          {
            "number": 7,
            "time": 120.80499999999842,
            "value": 0.2283464566929134
          },
          {
            "number": 7,
            "time": 120.80999999999841,
            "value": 0.2283464566929134
          },
          {
            "number": 7,
            "time": 120.8149999999984,
            "value": 0.2283464566929134
          },
          {
            "number": 7,
            "time": 120.8199999999984,
            "value": 0.2283464566929134
          },
          {
            "number": 7,
            "time": 120.8249999999984,
            "value": 0.2283464566929134
          },
          {
            "number": 7,
            "time": 120.82999999999839,
            "value": 0.2283464566929134
          },
          {
            "number": 7,
            "time": 120.83499999999839,
            "value": 0.2283464566929134
          },
          {
            "number": 7,
            "time": 120.83999999999838,
            "value": 0.2283464566929134
          },
          {
            "number": 7,
            "time": 120.84499999999838,
            "value": 0.2283464566929134
          },
          {
            "number": 7,
            "time": 120.84999999999837,
            "value": 0.2283464566929134
          },
          {
            "number": 7,
            "time": 120.85499999999837,
            "value": 0.2283464566929134
          },
          {
            "number": 7,
            "time": 120.85999999999837,
            "value": 0.2283464566929134
          },
          {
            "number": 7,
            "time": 120.86499999999836,
            "value": 0.23622047244094488
          },
          {
            "number": 7,
            "time": 120.86999999999836,
            "value": 0.23622047244094488
          },
          {
            "number": 7,
            "time": 120.87499999999835,
            "value": 0.23622047244094488
          },
          {
            "number": 7,
            "time": 120.87999999999835,
            "value": 0.23622047244094488
          },
          {
            "number": 7,
            "time": 120.88499999999834,
            "value": 0.23622047244094488
          },
          {
            "number": 7,
            "time": 120.88999999999834,
            "value": 0.23622047244094488
          },
          {
            "number": 7,
            "time": 120.89499999999833,
            "value": 0.23622047244094488
          },
          {
            "number": 7,
            "time": 120.89999999999833,
            "value": 0.23622047244094488
          },
          {
            "number": 7,
            "time": 120.90499999999832,
            "value": 0.23622047244094488
          },
          {
            "number": 7,
            "time": 120.90999999999832,
            "value": 0.23622047244094488
          },
          {
            "number": 7,
            "time": 120.91499999999832,
            "value": 0.23622047244094488
          },
          {
            "number": 7,
            "time": 120.91999999999831,
            "value": 0.23622047244094488
          },
          {
            "number": 7,
            "time": 120.9249999999983,
            "value": 0.23622047244094488
          },
          {
            "number": 7,
            "time": 120.9299999999983,
            "value": 0.2440944881889764
          },
          {
            "number": 7,
            "time": 120.9349999999983,
            "value": 0.2440944881889764
          },
          {
            "number": 7,
            "time": 120.93999999999829,
            "value": 0.2440944881889764
          },
          {
            "number": 7,
            "time": 120.94499999999829,
            "value": 0.2440944881889764
          },
          {
            "number": 7,
            "time": 120.94999999999828,
            "value": 0.2440944881889764
          },
          {
            "number": 7,
            "time": 120.95499999999828,
            "value": 0.2440944881889764
          },
          {
            "number": 7,
            "time": 120.95999999999827,
            "value": 0.2440944881889764
          },
          {
            "number": 7,
            "time": 120.96499999999827,
            "value": 0.2440944881889764
          },
          {
            "number": 7,
            "time": 120.96999999999827,
            "value": 0.2440944881889764
          },
          {
            "number": 7,
            "time": 120.97499999999826,
            "value": 0.2440944881889764
          },
          {
            "number": 7,
            "time": 120.97999999999826,
            "value": 0.2440944881889764
          },
          {
            "number": 7,
            "time": 120.98499999999825,
            "value": 0.2440944881889764
          },
          {
            "number": 7,
            "time": 120.98999999999825,
            "value": 0.25196850393700787
          },
          {
            "number": 7,
            "time": 120.99499999999824,
            "value": 0.25196850393700787
          },
          {
            "number": 7,
            "time": 120.99999999999824,
            "value": 0.25196850393700787
          },
          {
            "number": 7,
            "time": 121.00499999999823,
            "value": 0.25196850393700787
          },
          {
            "number": 7,
            "time": 121.00999999999823,
            "value": 0.25196850393700787
          },
          {
            "number": 7,
            "time": 121.01499999999822,
            "value": 0.25196850393700787
          },
          {
            "number": 7,
            "time": 121.01999999999822,
            "value": 0.25196850393700787
          },
          {
            "number": 7,
            "time": 121.02499999999822,
            "value": 0.25196850393700787
          },
          {
            "number": 7,
            "time": 121.02999999999821,
            "value": 0.25196850393700787
          },
          {
            "number": 7,
            "time": 121.0349999999982,
            "value": 0.25196850393700787
          },
          {
            "number": 7,
            "time": 121.0399999999982,
            "value": 0.25196850393700787
          },
          {
            "number": 7,
            "time": 121.0449999999982,
            "value": 0.25196850393700787
          },
          {
            "number": 7,
            "time": 121.04999999999819,
            "value": 0.25984251968503935
          },
          {
            "number": 7,
            "time": 121.05499999999819,
            "value": 0.25984251968503935
          },
          {
            "number": 7,
            "time": 121.05999999999818,
            "value": 0.25984251968503935
          },
          {
            "number": 7,
            "time": 121.06499999999818,
            "value": 0.25984251968503935
          },
          {
            "number": 7,
            "time": 121.06999999999817,
            "value": 0.25984251968503935
          },
          {
            "number": 7,
            "time": 121.07499999999817,
            "value": 0.25984251968503935
          },
          {
            "number": 7,
            "time": 121.07999999999817,
            "value": 0.25984251968503935
          },
          {
            "number": 7,
            "time": 121.08499999999816,
            "value": 0.25984251968503935
          },
          {
            "number": 7,
            "time": 121.08999999999816,
            "value": 0.25984251968503935
          },
          {
            "number": 7,
            "time": 121.09499999999815,
            "value": 0.25984251968503935
          },
          {
            "number": 7,
            "time": 121.09999999999815,
            "value": 0.25984251968503935
          },
          {
            "number": 7,
            "time": 121.10499999999814,
            "value": 0.25984251968503935
          },
          {
            "number": 7,
            "time": 121.10999999999814,
            "value": 0.2677165354330709
          },
          {
            "number": 7,
            "time": 121.11499999999813,
            "value": 0.2677165354330709
          },
          {
            "number": 7,
            "time": 121.11999999999813,
            "value": 0.2677165354330709
          },
          {
            "number": 7,
            "time": 121.12499999999812,
            "value": 0.2677165354330709
          },
          {
            "number": 7,
            "time": 121.12999999999812,
            "value": 0.2677165354330709
          },
          {
            "number": 7,
            "time": 121.13499999999812,
            "value": 0.2677165354330709
          },
          {
            "number": 7,
            "time": 121.13999999999811,
            "value": 0.2677165354330709
          },
          {
            "number": 7,
            "time": 121.1449999999981,
            "value": 0.2677165354330709
          },
          {
            "number": 7,
            "time": 121.1499999999981,
            "value": 0.2677165354330709
          },
          {
            "number": 7,
            "time": 121.1549999999981,
            "value": 0.2677165354330709
          },
          {
            "number": 7,
            "time": 121.15999999999809,
            "value": 0.2677165354330709
          },
          {
            "number": 7,
            "time": 121.16499999999809,
            "value": 0.2677165354330709
          },
          {
            "number": 7,
            "time": 121.16999999999808,
            "value": 0.2755905511811024
          },
          {
            "number": 7,
            "time": 121.17499999999808,
            "value": 0.2755905511811024
          },
          {
            "number": 7,
            "time": 121.17999999999807,
            "value": 0.2755905511811024
          },
          {
            "number": 7,
            "time": 121.18499999999807,
            "value": 0.2755905511811024
          },
          {
            "number": 7,
            "time": 121.18999999999807,
            "value": 0.2755905511811024
          },
          {
            "number": 7,
            "time": 121.19499999999806,
            "value": 0.2755905511811024
          },
          {
            "number": 7,
            "time": 121.19999999999806,
            "value": 0.2755905511811024
          },
          {
            "number": 7,
            "time": 121.20499999999805,
            "value": 0.2755905511811024
          },
          {
            "number": 7,
            "time": 121.20999999999805,
            "value": 0.2755905511811024
          },
          {
            "number": 7,
            "time": 121.21499999999804,
            "value": 0.2755905511811024
          },
          {
            "number": 7,
            "time": 121.21999999999804,
            "value": 0.2755905511811024
          },
          {
            "number": 7,
            "time": 121.22499999999803,
            "value": 0.2755905511811024
          },
          {
            "number": 7,
            "time": 121.22999999999803,
            "value": 0.2755905511811024
          },
          {
            "number": 7,
            "time": 121.23499999999802,
            "value": 0.28346456692913385
          },
          {
            "number": 7,
            "time": 121.23999999999802,
            "value": 0.28346456692913385
          },
          {
            "number": 7,
            "time": 121.24499999999802,
            "value": 0.28346456692913385
          },
          {
            "number": 7,
            "time": 121.24999999999801,
            "value": 0.28346456692913385
          },
          {
            "number": 7,
            "time": 121.254999999998,
            "value": 0.28346456692913385
          },
          {
            "number": 7,
            "time": 121.259999999998,
            "value": 0.28346456692913385
          },
          {
            "number": 7,
            "time": 121.264999999998,
            "value": 0.28346456692913385
          },
          {
            "number": 7,
            "time": 121.26999999999799,
            "value": 0.28346456692913385
          },
          {
            "number": 7,
            "time": 121.27499999999799,
            "value": 0.28346456692913385
          },
          {
            "number": 7,
            "time": 121.27999999999798,
            "value": 0.28346456692913385
          },
          {
            "number": 7,
            "time": 121.28499999999798,
            "value": 0.28346456692913385
          },
          {
            "number": 7,
            "time": 121.28999999999797,
            "value": 0.28346456692913385
          },
          {
            "number": 7,
            "time": 121.29499999999797,
            "value": 0.29133858267716534
          },
          {
            "number": 7,
            "time": 121.29999999999797,
            "value": 0.29133858267716534
          },
          {
            "number": 7,
            "time": 121.30499999999796,
            "value": 0.29133858267716534
          },
          {
            "number": 7,
            "time": 121.30999999999796,
            "value": 0.29133858267716534
          },
          {
            "number": 7,
            "time": 121.31499999999795,
            "value": 0.29133858267716534
          },
          {
            "number": 7,
            "time": 121.31999999999795,
            "value": 0.29133858267716534
          },
          {
            "number": 7,
            "time": 121.32499999999794,
            "value": 0.29133858267716534
          },
          {
            "number": 7,
            "time": 121.32999999999794,
            "value": 0.29133858267716534
          },
          {
            "number": 7,
            "time": 121.33499999999793,
            "value": 0.29133858267716534
          },
          {
            "number": 7,
            "time": 121.33999999999793,
            "value": 0.29133858267716534
          },
          {
            "number": 7,
            "time": 121.34499999999792,
            "value": 0.29133858267716534
          },
          {
            "number": 7,
            "time": 121.34999999999792,
            "value": 0.29133858267716534
          },
          {
            "number": 7,
            "time": 121.35499999999791,
            "value": 0.2992125984251969
          },
          {
            "number": 7,
            "time": 121.35999999999791,
            "value": 0.2992125984251969
          },
          {
            "number": 7,
            "time": 121.3649999999979,
            "value": 0.2992125984251969
          },
          {
            "number": 7,
            "time": 121.3699999999979,
            "value": 0.2992125984251969
          },
          {
            "number": 7,
            "time": 121.3749999999979,
            "value": 0.2992125984251969
          },
          {
            "number": 7,
            "time": 121.37999999999789,
            "value": 0.2992125984251969
          },
          {
            "number": 7,
            "time": 121.38499999999789,
            "value": 0.2992125984251969
          },
          {
            "number": 7,
            "time": 121.38999999999788,
            "value": 0.2992125984251969
          },
          {
            "number": 7,
            "time": 121.39499999999788,
            "value": 0.2992125984251969
          },
          {
            "number": 7,
            "time": 121.39999999999787,
            "value": 0.2992125984251969
          },
          {
            "number": 7,
            "time": 121.40499999999787,
            "value": 0.2992125984251969
          },
          {
            "number": 7,
            "time": 121.40999999999786,
            "value": 0.2992125984251969
          },
          {
            "number": 7,
            "time": 121.41499999999786,
            "value": 0.30708661417322836
          },
          {
            "number": 7,
            "time": 121.41999999999786,
            "value": 0.30708661417322836
          },
          {
            "number": 7,
            "time": 121.42499999999785,
            "value": 0.30708661417322836
          },
          {
            "number": 7,
            "time": 121.42999999999785,
            "value": 0.30708661417322836
          },
          {
            "number": 7,
            "time": 121.43499999999784,
            "value": 0.30708661417322836
          },
          {
            "number": 7,
            "time": 121.43999999999784,
            "value": 0.30708661417322836
          },
          {
            "number": 7,
            "time": 121.44499999999783,
            "value": 0.30708661417322836
          },
          {
            "number": 7,
            "time": 121.44999999999783,
            "value": 0.30708661417322836
          },
          {
            "number": 7,
            "time": 121.45499999999782,
            "value": 0.30708661417322836
          },
          {
            "number": 7,
            "time": 121.45999999999782,
            "value": 0.30708661417322836
          },
          {
            "number": 7,
            "time": 121.46499999999781,
            "value": 0.30708661417322836
          },
          {
            "number": 7,
            "time": 121.46999999999781,
            "value": 0.30708661417322836
          },
          {
            "number": 7,
            "time": 121.4749999999978,
            "value": 0.30708661417322836
          },
          {
            "number": 7,
            "time": 121.4799999999978,
            "value": 0.31496062992125984
          },
          {
            "number": 7,
            "time": 121.4849999999978,
            "value": 0.31496062992125984
          },
          {
            "number": 7,
            "time": 121.48999999999779,
            "value": 0.31496062992125984
          },
          {
            "number": 7,
            "time": 121.49499999999779,
            "value": 0.31496062992125984
          },
          {
            "number": 7,
            "time": 121.49999999999778,
            "value": 0.31496062992125984
          },
          {
            "number": 7,
            "time": 121.50499999999778,
            "value": 0.31496062992125984
          },
          {
            "number": 7,
            "time": 121.50999999999777,
            "value": 0.31496062992125984
          },
          {
            "number": 7,
            "time": 121.51499999999777,
            "value": 0.31496062992125984
          },
          {
            "number": 7,
            "time": 121.51999999999776,
            "value": 0.31496062992125984
          },
          {
            "number": 7,
            "time": 121.52499999999776,
            "value": 0.31496062992125984
          },
          {
            "number": 7,
            "time": 121.52999999999776,
            "value": 0.31496062992125984
          },
          {
            "number": 7,
            "time": 121.53499999999775,
            "value": 0.31496062992125984
          },
          {
            "number": 7,
            "time": 121.53999999999775,
            "value": 0.3228346456692913
          },
          {
            "number": 7,
            "time": 121.54499999999774,
            "value": 0.3228346456692913
          },
          {
            "number": 7,
            "time": 121.54999999999774,
            "value": 0.3228346456692913
          },
          {
            "number": 7,
            "time": 121.55499999999773,
            "value": 0.3228346456692913
          },
          {
            "number": 7,
            "time": 121.55999999999773,
            "value": 0.3228346456692913
          },
          {
            "number": 7,
            "time": 121.56499999999772,
            "value": 0.3228346456692913
          },
          {
            "number": 7,
            "time": 121.56999999999772,
            "value": 0.3228346456692913
          },
          {
            "number": 7,
            "time": 121.57499999999771,
            "value": 0.3228346456692913
          },
          {
            "number": 7,
            "time": 121.57999999999771,
            "value": 0.3228346456692913
          },
          {
            "number": 7,
            "time": 121.5849999999977,
            "value": 0.3228346456692913
          },
          {
            "number": 7,
            "time": 121.5899999999977,
            "value": 0.3228346456692913
          },
          {
            "number": 7,
            "time": 121.5949999999977,
            "value": 0.3228346456692913
          },
          {
            "number": 7,
            "time": 121.59999999999769,
            "value": 0.33070866141732286
          },
          {
            "number": 7,
            "time": 121.60499999999769,
            "value": 0.33070866141732286
          },
          {
            "number": 7,
            "time": 121.60999999999768,
            "value": 0.33070866141732286
          },
          {
            "number": 7,
            "time": 121.61499999999768,
            "value": 0.33070866141732286
          },
          {
            "number": 7,
            "time": 121.61999999999767,
            "value": 0.33070866141732286
          },
          {
            "number": 7,
            "time": 121.62499999999767,
            "value": 0.33070866141732286
          },
          {
            "number": 7,
            "time": 121.62999999999766,
            "value": 0.33070866141732286
          },
          {
            "number": 7,
            "time": 121.63499999999766,
            "value": 0.33070866141732286
          },
          {
            "number": 7,
            "time": 121.63999999999766,
            "value": 0.33070866141732286
          },
          {
            "number": 7,
            "time": 121.64499999999765,
            "value": 0.33070866141732286
          },
          {
            "number": 7,
            "time": 121.64999999999765,
            "value": 0.33070866141732286
          },
          {
            "number": 7,
            "time": 121.65499999999764,
            "value": 0.33070866141732286
          },
          {
            "number": 7,
            "time": 121.65999999999764,
            "value": 0.33858267716535434
          },
          {
            "number": 7,
            "time": 121.66499999999763,
            "value": 0.33858267716535434
          },
          {
            "number": 7,
            "time": 121.66999999999763,
            "value": 0.33858267716535434
          },
          {
            "number": 7,
            "time": 121.67499999999762,
            "value": 0.33858267716535434
          },
          {
            "number": 7,
            "time": 121.67999999999762,
            "value": 0.33858267716535434
          },
          {
            "number": 7,
            "time": 121.68499999999761,
            "value": 0.33858267716535434
          },
          {
            "number": 7,
            "time": 121.68999999999761,
            "value": 0.33858267716535434
          },
          {
            "number": 7,
            "time": 121.6949999999976,
            "value": 0.33858267716535434
          },
          {
            "number": 7,
            "time": 121.6999999999976,
            "value": 0.33858267716535434
          },
          {
            "number": 7,
            "time": 121.7049999999976,
            "value": 0.33858267716535434
          },
          {
            "number": 7,
            "time": 121.70999999999759,
            "value": 0.33858267716535434
          },
          {
            "number": 7,
            "time": 121.71499999999759,
            "value": 0.33858267716535434
          },
          {
            "number": 7,
            "time": 121.71999999999758,
            "value": 0.33858267716535434
          },
          {
            "number": 7,
            "time": 121.72499999999758,
            "value": 0.3464566929133858
          },
          {
            "number": 7,
            "time": 121.72999999999757,
            "value": 0.3464566929133858
          },
          {
            "number": 7,
            "time": 121.73499999999757,
            "value": 0.3464566929133858
          },
          {
            "number": 7,
            "time": 121.73999999999756,
            "value": 0.3464566929133858
          },
          {
            "number": 7,
            "time": 121.74499999999756,
            "value": 0.3464566929133858
          },
          {
            "number": 7,
            "time": 121.74999999999756,
            "value": 0.3464566929133858
          },
          {
            "number": 7,
            "time": 121.75499999999755,
            "value": 0.3464566929133858
          },
          {
            "number": 7,
            "time": 121.75999999999755,
            "value": 0.3464566929133858
          },
          {
            "number": 7,
            "time": 121.76499999999754,
            "value": 0.3464566929133858
          },
          {
            "number": 7,
            "time": 121.76999999999754,
            "value": 0.3464566929133858
          },
          {
            "number": 7,
            "time": 121.77499999999753,
            "value": 0.3464566929133858
          },
          {
            "number": 7,
            "time": 121.77999999999753,
            "value": 0.3464566929133858
          },
          {
            "number": 7,
            "time": 121.78499999999752,
            "value": 0.3543307086614173
          },
          {
            "number": 7,
            "time": 121.78999999999752,
            "value": 0.3543307086614173
          },
          {
            "number": 7,
            "time": 121.79499999999751,
            "value": 0.3543307086614173
          },
          {
            "number": 7,
            "time": 121.79999999999751,
            "value": 0.3543307086614173
          },
          {
            "number": 7,
            "time": 121.8049999999975,
            "value": 0.3543307086614173
          },
          {
            "number": 7,
            "time": 121.8099999999975,
            "value": 0.3543307086614173
          },
          {
            "number": 7,
            "time": 121.8149999999975,
            "value": 0.3543307086614173
          },
          {
            "number": 7,
            "time": 121.81999999999749,
            "value": 0.3543307086614173
          },
          {
            "number": 7,
            "time": 121.82499999999749,
            "value": 0.3543307086614173
          },
          {
            "number": 7,
            "time": 121.82999999999748,
            "value": 0.3543307086614173
          },
          {
            "number": 7,
            "time": 121.83499999999748,
            "value": 0.3543307086614173
          },
          {
            "number": 7,
            "time": 121.83999999999747,
            "value": 0.3543307086614173
          },
          {
            "number": 7,
            "time": 121.84499999999747,
            "value": 0.36220472440944884
          },
          {
            "number": 7,
            "time": 121.84999999999746,
            "value": 0.36220472440944884
          },
          {
            "number": 7,
            "time": 121.85499999999746,
            "value": 0.36220472440944884
          },
          {
            "number": 7,
            "time": 121.85999999999746,
            "value": 0.36220472440944884
          },
          {
            "number": 7,
            "time": 121.86499999999745,
            "value": 0.36220472440944884
          },
          {
            "number": 7,
            "time": 121.86999999999745,
            "value": 0.36220472440944884
          },
          {
            "number": 7,
            "time": 121.87499999999744,
            "value": 0.36220472440944884
          },
          {
            "number": 7,
            "time": 121.87999999999744,
            "value": 0.36220472440944884
          },
          {
            "number": 7,
            "time": 121.88499999999743,
            "value": 0.36220472440944884
          },
          {
            "number": 7,
            "time": 121.88999999999743,
            "value": 0.36220472440944884
          },
          {
            "number": 7,
            "time": 121.89499999999742,
            "value": 0.36220472440944884
          },
          {
            "number": 7,
            "time": 121.89999999999742,
            "value": 0.36220472440944884
          },
          {
            "number": 7,
            "time": 121.90499999999741,
            "value": 0.3700787401574803
          },
          {
            "number": 7,
            "time": 121.90999999999741,
            "value": 0.3700787401574803
          },
          {
            "number": 7,
            "time": 121.9149999999974,
            "value": 0.3700787401574803
          },
          {
            "number": 7,
            "time": 121.9199999999974,
            "value": 0.3700787401574803
          },
          {
            "number": 7,
            "time": 121.9249999999974,
            "value": 0.3700787401574803
          },
          {
            "number": 7,
            "time": 121.92999999999739,
            "value": 0.3700787401574803
          },
          {
            "number": 7,
            "time": 121.93499999999739,
            "value": 0.3700787401574803
          },
          {
            "number": 7,
            "time": 121.93999999999738,
            "value": 0.3700787401574803
          },
          {
            "number": 7,
            "time": 121.94499999999738,
            "value": 0.3700787401574803
          },
          {
            "number": 7,
            "time": 121.94999999999737,
            "value": 0.3700787401574803
          },
          {
            "number": 7,
            "time": 121.95499999999737,
            "value": 0.3700787401574803
          },
          {
            "number": 7,
            "time": 121.95999999999736,
            "value": 0.3700787401574803
          },
          {
            "number": 7,
            "time": 121.96499999999736,
            "value": 0.3779527559055118
          },
          {
            "number": 7,
            "time": 121.96999999999736,
            "value": 0.3779527559055118
          },
          {
            "number": 7,
            "time": 121.97499999999735,
            "value": 0.3779527559055118
          },
          {
            "number": 7,
            "time": 121.97999999999735,
            "value": 0.3779527559055118
          },
          {
            "number": 7,
            "time": 121.98499999999734,
            "value": 0.3779527559055118
          },
          {
            "number": 7,
            "time": 121.98999999999734,
            "value": 0.3779527559055118
          },
          {
            "number": 7,
            "time": 121.99499999999733,
            "value": 0.3779527559055118
          },
          {
            "number": 7,
            "time": 121.99999999999733,
            "value": 0.3779527559055118
          },
          {
            "number": 7,
            "time": 122.00499999999732,
            "value": 0.3779527559055118
          },
          {
            "number": 7,
            "time": 122.00999999999732,
            "value": 0.3779527559055118
          },
          {
            "number": 7,
            "time": 122.01499999999731,
            "value": 0.3779527559055118
          },
          {
            "number": 7,
            "time": 122.01999999999731,
            "value": 0.3779527559055118
          },
          {
            "number": 7,
            "time": 122.0249999999973,
            "value": 0.3779527559055118
          },
          {
            "number": 7,
            "time": 122.0299999999973,
            "value": 0.3858267716535433
          },
          {
            "number": 7,
            "time": 122.0349999999973,
            "value": 0.3858267716535433
          },
          {
            "number": 7,
            "time": 122.03999999999729,
            "value": 0.3858267716535433
          },
          {
            "number": 7,
            "time": 122.04499999999729,
            "value": 0.3858267716535433
          },
          {
            "number": 7,
            "time": 122.04999999999728,
            "value": 0.3858267716535433
          },
          {
            "number": 7,
            "time": 122.05499999999728,
            "value": 0.3858267716535433
          },
          {
            "number": 7,
            "time": 122.05999999999727,
            "value": 0.3858267716535433
          },
          {
            "number": 7,
            "time": 122.06499999999727,
            "value": 0.3858267716535433
          },
          {
            "number": 7,
            "time": 122.06999999999726,
            "value": 0.3858267716535433
          },
          {
            "number": 7,
            "time": 122.07499999999726,
            "value": 0.3858267716535433
          },
          {
            "number": 7,
            "time": 122.07999999999726,
            "value": 0.3858267716535433
          },
          {
            "number": 7,
            "time": 122.08499999999725,
            "value": 0.3858267716535433
          },
          {
            "number": 7,
            "time": 122.08999999999725,
            "value": 0.3937007874015748
          },
          {
            "number": 7,
            "time": 122.09499999999724,
            "value": 0.3937007874015748
          },
          {
            "number": 7,
            "time": 122.09999999999724,
            "value": 0.3937007874015748
          },
          {
            "number": 7,
            "time": 122.10499999999723,
            "value": 0.3937007874015748
          },
          {
            "number": 7,
            "time": 122.10999999999723,
            "value": 0.3937007874015748
          },
          {
            "number": 7,
            "time": 122.11499999999722,
            "value": 0.3937007874015748
          },
          {
            "number": 7,
            "time": 122.11999999999722,
            "value": 0.3937007874015748
          },
          {
            "number": 7,
            "time": 122.12499999999721,
            "value": 0.3937007874015748
          },
          {
            "number": 7,
            "time": 122.12999999999721,
            "value": 0.3937007874015748
          },
          {
            "number": 7,
            "time": 122.1349999999972,
            "value": 0.3937007874015748
          },
          {
            "number": 7,
            "time": 122.1399999999972,
            "value": 0.3937007874015748
          },
          {
            "number": 7,
            "time": 122.1449999999972,
            "value": 0.3937007874015748
          },
          {
            "number": 7,
            "time": 122.14999999999719,
            "value": 0.4015748031496063
          },
          {
            "number": 7,
            "time": 122.15499999999719,
            "value": 0.4015748031496063
          },
          {
            "number": 7,
            "time": 122.15999999999718,
            "value": 0.4015748031496063
          },
          {
            "number": 7,
            "time": 122.16499999999718,
            "value": 0.4015748031496063
          },
          {
            "number": 7,
            "time": 122.16999999999717,
            "value": 0.4015748031496063
          },
          {
            "number": 7,
            "time": 122.17499999999717,
            "value": 0.4015748031496063
          },
          {
            "number": 7,
            "time": 122.17999999999716,
            "value": 0.4015748031496063
          },
          {
            "number": 7,
            "time": 122.18499999999716,
            "value": 0.4015748031496063
          },
          {
            "number": 7,
            "time": 122.18999999999716,
            "value": 0.4015748031496063
          },
          {
            "number": 7,
            "time": 122.19499999999715,
            "value": 0.4015748031496063
          },
          {
            "number": 7,
            "time": 122.19999999999715,
            "value": 0.4015748031496063
          },
          {
            "number": 7,
            "time": 122.20499999999714,
            "value": 0.4015748031496063
          },
          {
            "number": 7,
            "time": 122.20999999999714,
            "value": 0.4094488188976378
          },
          {
            "number": 7,
            "time": 122.21499999999713,
            "value": 0.4094488188976378
          },
          {
            "number": 7,
            "time": 122.21999999999713,
            "value": 0.4094488188976378
          },
          {
            "number": 7,
            "time": 122.22499999999712,
            "value": 0.4094488188976378
          },
          {
            "number": 7,
            "time": 122.22999999999712,
            "value": 0.4094488188976378
          },
          {
            "number": 7,
            "time": 122.23499999999711,
            "value": 0.4094488188976378
          },
          {
            "number": 7,
            "time": 122.23999999999711,
            "value": 0.4094488188976378
          },
          {
            "number": 7,
            "time": 122.2449999999971,
            "value": 0.4094488188976378
          },
          {
            "number": 7,
            "time": 122.2499999999971,
            "value": 0.4094488188976378
          },
          {
            "number": 7,
            "time": 122.2549999999971,
            "value": 0.4094488188976378
          },
          {
            "number": 7,
            "time": 122.25999999999709,
            "value": 0.4094488188976378
          },
          {
            "number": 7,
            "time": 122.26499999999709,
            "value": 0.4094488188976378
          },
          {
            "number": 7,
            "time": 122.26999999999708,
            "value": 0.4094488188976378
          },
          {
            "number": 7,
            "time": 122.27499999999708,
            "value": 0.41732283464566927
          },
          {
            "number": 7,
            "time": 122.27999999999707,
            "value": 0.41732283464566927
          },
          {
            "number": 7,
            "time": 122.28499999999707,
            "value": 0.41732283464566927
          },
          {
            "number": 7,
            "time": 122.28999999999706,
            "value": 0.41732283464566927
          },
          {
            "number": 7,
            "time": 122.29499999999706,
            "value": 0.41732283464566927
          },
          {
            "number": 7,
            "time": 122.29999999999706,
            "value": 0.41732283464566927
          },
          {
            "number": 7,
            "time": 122.30499999999705,
            "value": 0.41732283464566927
          },
          {
            "number": 7,
            "time": 122.30999999999705,
            "value": 0.41732283464566927
          },
          {
            "number": 7,
            "time": 122.31499999999704,
            "value": 0.41732283464566927
          },
          {
            "number": 7,
            "time": 122.31999999999704,
            "value": 0.41732283464566927
          },
          {
            "number": 7,
            "time": 122.32499999999703,
            "value": 0.41732283464566927
          },
          {
            "number": 7,
            "time": 122.32999999999703,
            "value": 0.41732283464566927
          },
          {
            "number": 7,
            "time": 122.33499999999702,
            "value": 0.4251968503937008
          },
          {
            "number": 7,
            "time": 122.33999999999702,
            "value": 0.4251968503937008
          },
          {
            "number": 7,
            "time": 122.34499999999701,
            "value": 0.4251968503937008
          },
          {
            "number": 7,
            "time": 122.34999999999701,
            "value": 0.4251968503937008
          },
          {
            "number": 7,
            "time": 122.354999999997,
            "value": 0.4251968503937008
          },
          {
            "number": 7,
            "time": 122.359999999997,
            "value": 0.4251968503937008
          },
          {
            "number": 7,
            "time": 122.364999999997,
            "value": 0.4251968503937008
          },
          {
            "number": 7,
            "time": 122.36999999999699,
            "value": 0.4251968503937008
          },
          {
            "number": 7,
            "time": 122.37499999999699,
            "value": 0.4251968503937008
          },
          {
            "number": 7,
            "time": 122.37999999999698,
            "value": 0.4251968503937008
          },
          {
            "number": 7,
            "time": 122.38499999999698,
            "value": 0.4251968503937008
          },
          {
            "number": 7,
            "time": 122.38999999999697,
            "value": 0.4251968503937008
          },
          {
            "number": 7,
            "time": 122.39499999999697,
            "value": 0.4330708661417323
          },
          {
            "number": 7,
            "time": 122.39999999999696,
            "value": 0.4330708661417323
          },
          {
            "number": 7,
            "time": 122.40499999999696,
            "value": 0.4330708661417323
          },
          {
            "number": 7,
            "time": 122.40999999999696,
            "value": 0.4330708661417323
          },
          {
            "number": 7,
            "time": 122.41499999999695,
            "value": 0.4330708661417323
          },
          {
            "number": 7,
            "time": 122.41999999999695,
            "value": 0.4330708661417323
          },
          {
            "number": 7,
            "time": 122.42499999999694,
            "value": 0.4330708661417323
          },
          {
            "number": 7,
            "time": 122.42999999999694,
            "value": 0.4330708661417323
          },
          {
            "number": 7,
            "time": 122.43499999999693,
            "value": 0.4330708661417323
          },
          {
            "number": 7,
            "time": 122.43999999999693,
            "value": 0.4330708661417323
          },
          {
            "number": 7,
            "time": 122.44499999999692,
            "value": 0.4330708661417323
          },
          {
            "number": 7,
            "time": 122.44999999999692,
            "value": 0.4330708661417323
          },
          {
            "number": 7,
            "time": 122.45499999999691,
            "value": 0.4409448818897638
          },
          {
            "number": 7,
            "time": 122.45999999999691,
            "value": 0.4409448818897638
          },
          {
            "number": 7,
            "time": 122.4649999999969,
            "value": 0.4409448818897638
          },
          {
            "number": 7,
            "time": 122.4699999999969,
            "value": 0.4409448818897638
          },
          {
            "number": 7,
            "time": 122.4749999999969,
            "value": 0.4409448818897638
          },
          {
            "number": 7,
            "time": 122.47999999999689,
            "value": 0.4409448818897638
          },
          {
            "number": 7,
            "time": 122.48499999999689,
            "value": 0.4409448818897638
          },
          {
            "number": 7,
            "time": 122.48999999999688,
            "value": 0.4409448818897638
          },
          {
            "number": 7,
            "time": 122.49499999999688,
            "value": 0.4409448818897638
          },
          {
            "number": 7,
            "time": 122.49999999999687,
            "value": 0.4409448818897638
          },
          {
            "number": 7,
            "time": 122.50499999999687,
            "value": 0.4409448818897638
          },
          {
            "number": 7,
            "time": 122.50999999999686,
            "value": 0.4409448818897638
          },
          {
            "number": 7,
            "time": 122.51499999999686,
            "value": 0.4409448818897638
          },
          {
            "number": 7,
            "time": 122.51999999999686,
            "value": 0.44881889763779526
          },
          {
            "number": 7,
            "time": 122.52499999999685,
            "value": 0.44881889763779526
          },
          {
            "number": 7,
            "time": 122.52999999999685,
            "value": 0.44881889763779526
          },
          {
            "number": 7,
            "time": 122.53499999999684,
            "value": 0.44881889763779526
          },
          {
            "number": 7,
            "time": 122.53999999999684,
            "value": 0.44881889763779526
          },
          {
            "number": 7,
            "time": 122.54499999999683,
            "value": 0.44881889763779526
          },
          {
            "number": 7,
            "time": 122.54999999999683,
            "value": 0.44881889763779526
          },
          {
            "number": 7,
            "time": 122.55499999999682,
            "value": 0.44881889763779526
          },
          {
            "number": 7,
            "time": 122.55999999999682,
            "value": 0.44881889763779526
          },
          {
            "number": 7,
            "time": 122.56499999999681,
            "value": 0.44881889763779526
          },
          {
            "number": 7,
            "time": 122.56999999999681,
            "value": 0.44881889763779526
          },
          {
            "number": 7,
            "time": 122.5749999999968,
            "value": 0.44881889763779526
          },
          {
            "number": 7,
            "time": 122.5799999999968,
            "value": 0.4566929133858268
          },
          {
            "number": 7,
            "time": 122.5849999999968,
            "value": 0.4566929133858268
          },
          {
            "number": 7,
            "time": 122.58999999999679,
            "value": 0.4566929133858268
          },
          {
            "number": 7,
            "time": 122.59499999999679,
            "value": 0.4566929133858268
          },
          {
            "number": 7,
            "time": 122.59999999999678,
            "value": 0.4566929133858268
          },
          {
            "number": 7,
            "time": 122.60499999999678,
            "value": 0.4566929133858268
          },
          {
            "number": 7,
            "time": 122.60999999999677,
            "value": 0.4566929133858268
          },
          {
            "number": 7,
            "time": 122.61499999999677,
            "value": 0.4566929133858268
          },
          {
            "number": 7,
            "time": 122.61999999999676,
            "value": 0.4566929133858268
          },
          {
            "number": 7,
            "time": 122.62499999999676,
            "value": 0.4566929133858268
          },
          {
            "number": 7,
            "time": 122.62999999999676,
            "value": 0.4566929133858268
          },
          {
            "number": 7,
            "time": 122.63499999999675,
            "value": 0.4566929133858268
          },
          {
            "number": 7,
            "time": 122.63999999999675,
            "value": 0.4645669291338583
          },
          {
            "number": 7,
            "time": 122.64499999999674,
            "value": 0.4645669291338583
          },
          {
            "number": 7,
            "time": 122.64999999999674,
            "value": 0.4645669291338583
          },
          {
            "number": 7,
            "time": 122.65499999999673,
            "value": 0.4645669291338583
          },
          {
            "number": 7,
            "time": 122.65999999999673,
            "value": 0.4645669291338583
          },
          {
            "number": 7,
            "time": 122.66499999999672,
            "value": 0.4645669291338583
          },
          {
            "number": 7,
            "time": 122.66999999999672,
            "value": 0.4645669291338583
          },
          {
            "number": 7,
            "time": 122.67499999999671,
            "value": 0.4645669291338583
          },
          {
            "number": 7,
            "time": 122.67999999999671,
            "value": 0.4645669291338583
          },
          {
            "number": 7,
            "time": 122.6849999999967,
            "value": 0.4645669291338583
          },
          {
            "number": 7,
            "time": 122.6899999999967,
            "value": 0.4645669291338583
          },
          {
            "number": 7,
            "time": 122.6949999999967,
            "value": 0.4645669291338583
          },
          {
            "number": 7,
            "time": 122.69999999999669,
            "value": 0.47244094488188976
          },
          {
            "number": 7,
            "time": 122.70499999999669,
            "value": 0.47244094488188976
          },
          {
            "number": 7,
            "time": 122.70999999999668,
            "value": 0.47244094488188976
          },
          {
            "number": 7,
            "time": 122.71499999999668,
            "value": 0.47244094488188976
          },
          {
            "number": 7,
            "time": 122.71999999999667,
            "value": 0.47244094488188976
          },
          {
            "number": 7,
            "time": 122.72499999999667,
            "value": 0.47244094488188976
          },
          {
            "number": 7,
            "time": 122.72999999999666,
            "value": 0.47244094488188976
          },
          {
            "number": 7,
            "time": 122.73499999999666,
            "value": 0.47244094488188976
          },
          {
            "number": 7,
            "time": 122.73999999999666,
            "value": 0.47244094488188976
          },
          {
            "number": 7,
            "time": 122.74499999999665,
            "value": 0.47244094488188976
          },
          {
            "number": 7,
            "time": 122.74999999999665,
            "value": 0.47244094488188976
          },
          {
            "number": 7,
            "time": 122.75499999999664,
            "value": 0.47244094488188976
          },
          {
            "number": 7,
            "time": 122.75999999999664,
            "value": 0.48031496062992124
          },
          {
            "number": 7,
            "time": 122.76499999999663,
            "value": 0.48031496062992124
          },
          {
            "number": 7,
            "time": 122.76999999999663,
            "value": 0.48031496062992124
          },
          {
            "number": 7,
            "time": 122.77499999999662,
            "value": 0.48031496062992124
          },
          {
            "number": 7,
            "time": 122.77999999999662,
            "value": 0.48031496062992124
          },
          {
            "number": 7,
            "time": 122.78499999999661,
            "value": 0.48031496062992124
          },
          {
            "number": 7,
            "time": 122.78999999999661,
            "value": 0.48031496062992124
          },
          {
            "number": 7,
            "time": 122.7949999999966,
            "value": 0.48031496062992124
          },
          {
            "number": 7,
            "time": 122.7999999999966,
            "value": 0.48031496062992124
          },
          {
            "number": 7,
            "time": 122.8049999999966,
            "value": 0.48031496062992124
          },
          {
            "number": 7,
            "time": 122.80999999999659,
            "value": 0.48031496062992124
          },
          {
            "number": 7,
            "time": 122.81499999999659,
            "value": 0.48031496062992124
          },
          {
            "number": 7,
            "time": 122.81999999999658,
            "value": 0.48031496062992124
          },
          {
            "number": 7,
            "time": 122.82499999999658,
            "value": 0.4881889763779528
          },
          {
            "number": 7,
            "time": 122.82999999999657,
            "value": 0.4881889763779528
          },
          {
            "number": 7,
            "time": 122.83499999999657,
            "value": 0.4881889763779528
          },
          {
            "number": 7,
            "time": 122.83999999999656,
            "value": 0.4881889763779528
          },
          {
            "number": 7,
            "time": 122.84499999999656,
            "value": 0.4881889763779528
          },
          {
            "number": 7,
            "time": 122.84999999999656,
            "value": 0.4881889763779528
          },
          {
            "number": 7,
            "time": 122.85499999999655,
            "value": 0.4881889763779528
          },
          {
            "number": 7,
            "time": 122.85999999999655,
            "value": 0.4881889763779528
          },
          {
            "number": 7,
            "time": 122.86499999999654,
            "value": 0.4881889763779528
          },
          {
            "number": 7,
            "time": 122.86999999999654,
            "value": 0.4881889763779528
          },
          {
            "number": 7,
            "time": 122.87499999999653,
            "value": 0.4881889763779528
          },
          {
            "number": 7,
            "time": 122.87999999999653,
            "value": 0.4881889763779528
          },
          {
            "number": 7,
            "time": 122.88499999999652,
            "value": 0.49606299212598426
          },
          {
            "number": 7,
            "time": 122.88999999999652,
            "value": 0.49606299212598426
          },
          {
            "number": 7,
            "time": 122.89499999999651,
            "value": 0.49606299212598426
          },
          {
            "number": 7,
            "time": 122.89999999999651,
            "value": 0.49606299212598426
          },
          {
            "number": 7,
            "time": 122.9049999999965,
            "value": 0.49606299212598426
          },
          {
            "number": 7,
            "time": 122.9099999999965,
            "value": 0.49606299212598426
          },
          {
            "number": 7,
            "time": 122.9149999999965,
            "value": 0.49606299212598426
          },
          {
            "number": 7,
            "time": 122.91999999999649,
            "value": 0.49606299212598426
          },
          {
            "number": 7,
            "time": 122.92499999999649,
            "value": 0.49606299212598426
          },
          {
            "number": 7,
            "time": 122.92999999999648,
            "value": 0.49606299212598426
          },
          {
            "number": 7,
            "time": 122.93499999999648,
            "value": 0.49606299212598426
          },
          {
            "number": 7,
            "time": 122.93999999999647,
            "value": 0.49606299212598426
          },
          {
            "number": 7,
            "time": 122.94499999999647,
            "value": 0.5039370078740157
          },
          {
            "number": 7,
            "time": 122.94999999999646,
            "value": 0.5039370078740157
          },
          {
            "number": 7,
            "time": 122.95499999999646,
            "value": 0.5039370078740157
          },
          {
            "number": 7,
            "time": 122.95999999999646,
            "value": 0.5039370078740157
          },
          {
            "number": 7,
            "time": 122.96499999999645,
            "value": 0.5039370078740157
          },
          {
            "number": 7,
            "time": 122.96999999999645,
            "value": 0.5039370078740157
          },
          {
            "number": 7,
            "time": 122.97499999999644,
            "value": 0.5039370078740157
          },
          {
            "number": 7,
            "time": 122.97999999999644,
            "value": 0.5039370078740157
          },
          {
            "number": 7,
            "time": 122.98499999999643,
            "value": 0.5039370078740157
          },
          {
            "number": 7,
            "time": 122.98999999999643,
            "value": 0.5039370078740157
          },
          {
            "number": 7,
            "time": 122.99499999999642,
            "value": 0.5039370078740157
          },
          {
            "number": 7,
            "time": 122.99999999999642,
            "value": 0.5039370078740157
          },
          {
            "number": 7,
            "time": 123.00499999999641,
            "value": 0.5118110236220472
          },
          {
            "number": 7,
            "time": 123.00999999999641,
            "value": 0.5118110236220472
          },
          {
            "number": 7,
            "time": 123.0149999999964,
            "value": 0.5118110236220472
          },
          {
            "number": 7,
            "time": 123.0199999999964,
            "value": 0.5118110236220472
          },
          {
            "number": 7,
            "time": 123.0249999999964,
            "value": 0.5118110236220472
          },
          {
            "number": 7,
            "time": 123.02999999999639,
            "value": 0.5118110236220472
          },
          {
            "number": 7,
            "time": 123.03499999999639,
            "value": 0.5118110236220472
          },
          {
            "number": 7,
            "time": 123.03999999999638,
            "value": 0.5118110236220472
          },
          {
            "number": 7,
            "time": 123.04499999999638,
            "value": 0.5118110236220472
          },
          {
            "number": 7,
            "time": 123.04999999999637,
            "value": 0.5118110236220472
          },
          {
            "number": 7,
            "time": 123.05499999999637,
            "value": 0.5118110236220472
          },
          {
            "number": 7,
            "time": 123.05999999999636,
            "value": 0.5118110236220472
          },
          {
            "number": 7,
            "time": 123.06499999999636,
            "value": 0.5118110236220472
          },
          {
            "number": 7,
            "time": 123.06999999999636,
            "value": 0.5196850393700787
          },
          {
            "number": 7,
            "time": 123.07499999999635,
            "value": 0.5196850393700787
          },
          {
            "number": 7,
            "time": 123.07999999999635,
            "value": 0.5196850393700787
          },
          {
            "number": 7,
            "time": 123.08499999999634,
            "value": 0.5196850393700787
          },
          {
            "number": 7,
            "time": 123.08999999999634,
            "value": 0.5196850393700787
          },
          {
            "number": 7,
            "time": 123.09499999999633,
            "value": 0.5196850393700787
          },
          {
            "number": 7,
            "time": 123.09999999999633,
            "value": 0.5196850393700787
          },
          {
            "number": 7,
            "time": 123.10499999999632,
            "value": 0.5196850393700787
          },
          {
            "number": 7,
            "time": 123.10999999999632,
            "value": 0.5196850393700787
          },
          {
            "number": 7,
            "time": 123.11499999999631,
            "value": 0.5196850393700787
          },
          {
            "number": 7,
            "time": 123.11999999999631,
            "value": 0.5196850393700787
          },
          {
            "number": 7,
            "time": 123.1249999999963,
            "value": 0.5196850393700787
          },
          {
            "number": 7,
            "time": 123.1299999999963,
            "value": 0.5275590551181102
          },
          {
            "number": 7,
            "time": 123.1349999999963,
            "value": 0.5275590551181102
          },
          {
            "number": 7,
            "time": 123.13999999999629,
            "value": 0.5275590551181102
          },
          {
            "number": 7,
            "time": 123.14499999999629,
            "value": 0.5275590551181102
          },
          {
            "number": 7,
            "time": 123.14999999999628,
            "value": 0.5275590551181102
          },
          {
            "number": 7,
            "time": 123.15499999999628,
            "value": 0.5275590551181102
          },
          {
            "number": 7,
            "time": 123.15999999999627,
            "value": 0.5275590551181102
          },
          {
            "number": 7,
            "time": 123.16499999999627,
            "value": 0.5275590551181102
          },
          {
            "number": 7,
            "time": 123.16999999999626,
            "value": 0.5275590551181102
          },
          {
            "number": 7,
            "time": 123.17499999999626,
            "value": 0.5275590551181102
          },
          {
            "number": 7,
            "time": 123.17999999999626,
            "value": 0.5275590551181102
          },
          {
            "number": 7,
            "time": 123.18499999999625,
            "value": 0.5275590551181102
          },
          {
            "number": 7,
            "time": 123.18999999999625,
            "value": 0.5354330708661418
          },
          {
            "number": 7,
            "time": 123.19499999999624,
            "value": 0.5354330708661418
          },
          {
            "number": 7,
            "time": 123.19999999999624,
            "value": 0.5354330708661418
          },
          {
            "number": 7,
            "time": 123.20499999999623,
            "value": 0.5354330708661418
          },
          {
            "number": 7,
            "time": 123.20999999999623,
            "value": 0.5354330708661418
          },
          {
            "number": 7,
            "time": 123.21499999999622,
            "value": 0.5354330708661418
          },
          {
            "number": 7,
            "time": 123.21999999999622,
            "value": 0.5354330708661418
          },
          {
            "number": 7,
            "time": 123.22499999999621,
            "value": 0.5354330708661418
          },
          {
            "number": 7,
            "time": 123.22999999999621,
            "value": 0.5354330708661418
          },
          {
            "number": 7,
            "time": 123.2349999999962,
            "value": 0.5354330708661418
          },
          {
            "number": 7,
            "time": 123.2399999999962,
            "value": 0.5354330708661418
          },
          {
            "number": 7,
            "time": 123.2449999999962,
            "value": 0.5354330708661418
          },
          {
            "number": 7,
            "time": 123.24999999999619,
            "value": 0.5433070866141733
          },
          {
            "number": 7,
            "time": 123.25499999999619,
            "value": 0.5433070866141733
          },
          {
            "number": 7,
            "time": 123.25999999999618,
            "value": 0.5433070866141733
          },
          {
            "number": 7,
            "time": 123.26499999999618,
            "value": 0.5433070866141733
          },
          {
            "number": 7,
            "time": 123.26999999999617,
            "value": 0.5433070866141733
          },
          {
            "number": 7,
            "time": 123.27499999999617,
            "value": 0.5433070866141733
          },
          {
            "number": 7,
            "time": 123.27999999999616,
            "value": 0.5433070866141733
          },
          {
            "number": 7,
            "time": 123.28499999999616,
            "value": 0.5433070866141733
          },
          {
            "number": 7,
            "time": 123.28999999999616,
            "value": 0.5433070866141733
          },
          {
            "number": 7,
            "time": 123.29499999999615,
            "value": 0.5433070866141733
          },
          {
            "number": 7,
            "time": 123.29999999999615,
            "value": 0.5433070866141733
          },
          {
            "number": 7,
            "time": 123.30499999999614,
            "value": 0.5433070866141733
          },
          {
            "number": 7,
            "time": 123.30999999999614,
            "value": 0.5511811023622047
          },
          {
            "number": 7,
            "time": 123.31499999999613,
            "value": 0.5511811023622047
          },
          {
            "number": 7,
            "time": 123.31999999999613,
            "value": 0.5511811023622047
          },
          {
            "number": 7,
            "time": 123.32499999999612,
            "value": 0.5511811023622047
          },
          {
            "number": 7,
            "time": 123.32999999999612,
            "value": 0.5511811023622047
          },
          {
            "number": 7,
            "time": 123.33499999999611,
            "value": 0.5511811023622047
          },
          {
            "number": 7,
            "time": 123.33999999999611,
            "value": 0.5511811023622047
          },
          {
            "number": 7,
            "time": 123.3449999999961,
            "value": 0.5511811023622047
          },
          {
            "number": 7,
            "time": 123.3499999999961,
            "value": 0.5511811023622047
          },
          {
            "number": 7,
            "time": 123.3549999999961,
            "value": 0.5511811023622047
          },
          {
            "number": 7,
            "time": 123.35999999999609,
            "value": 0.5511811023622047
          },
          {
            "number": 7,
            "time": 123.36499999999609,
            "value": 0.5511811023622047
          },
          {
            "number": 7,
            "time": 123.36999999999608,
            "value": 0.5511811023622047
          },
          {
            "number": 7,
            "time": 123.37499999999608,
            "value": 0.5590551181102362
          },
          {
            "number": 7,
            "time": 123.37999999999607,
            "value": 0.5590551181102362
          },
          {
            "number": 7,
            "time": 123.38499999999607,
            "value": 0.5590551181102362
          },
          {
            "number": 7,
            "time": 123.38999999999606,
            "value": 0.5590551181102362
          },
          {
            "number": 7,
            "time": 123.39499999999606,
            "value": 0.5590551181102362
          },
          {
            "number": 7,
            "time": 123.39999999999606,
            "value": 0.5590551181102362
          },
          {
            "number": 7,
            "time": 123.40499999999605,
            "value": 0.5590551181102362
          },
          {
            "number": 7,
            "time": 123.40999999999605,
            "value": 0.5590551181102362
          },
          {
            "number": 7,
            "time": 123.41499999999604,
            "value": 0.5590551181102362
          },
          {
            "number": 7,
            "time": 123.41999999999604,
            "value": 0.5590551181102362
          },
          {
            "number": 7,
            "time": 123.42499999999603,
            "value": 0.5590551181102362
          },
          {
            "number": 7,
            "time": 123.42999999999603,
            "value": 0.5590551181102362
          },
          {
            "number": 7,
            "time": 123.43499999999602,
            "value": 0.5669291338582677
          },
          {
            "number": 7,
            "time": 123.43999999999602,
            "value": 0.5669291338582677
          },
          {
            "number": 7,
            "time": 123.44499999999601,
            "value": 0.5669291338582677
          },
          {
            "number": 7,
            "time": 123.44999999999601,
            "value": 0.5669291338582677
          },
          {
            "number": 7,
            "time": 123.454999999996,
            "value": 0.5669291338582677
          },
          {
            "number": 7,
            "time": 123.459999999996,
            "value": 0.5669291338582677
          },
          {
            "number": 7,
            "time": 123.464999999996,
            "value": 0.5669291338582677
          },
          {
            "number": 7,
            "time": 123.46999999999599,
            "value": 0.5669291338582677
          },
          {
            "number": 7,
            "time": 123.47499999999599,
            "value": 0.5669291338582677
          },
          {
            "number": 7,
            "time": 123.47999999999598,
            "value": 0.5669291338582677
          },
          {
            "number": 7,
            "time": 123.48499999999598,
            "value": 0.5669291338582677
          },
          {
            "number": 7,
            "time": 123.48999999999597,
            "value": 0.5669291338582677
          },
          {
            "number": 7,
            "time": 123.49499999999597,
            "value": 0.5748031496062992
          },
          {
            "number": 7,
            "time": 123.49999999999596,
            "value": 0.5748031496062992
          },
          {
            "number": 7,
            "time": 123.50499999999596,
            "value": 0.5748031496062992
          },
          {
            "number": 7,
            "time": 123.50999999999596,
            "value": 0.5748031496062992
          },
          {
            "number": 7,
            "time": 123.51499999999595,
            "value": 0.5748031496062992
          },
          {
            "number": 7,
            "time": 123.51999999999595,
            "value": 0.5748031496062992
          },
          {
            "number": 7,
            "time": 123.52499999999594,
            "value": 0.5748031496062992
          },
          {
            "number": 7,
            "time": 123.52999999999594,
            "value": 0.5748031496062992
          },
          {
            "number": 7,
            "time": 123.53499999999593,
            "value": 0.5748031496062992
          },
          {
            "number": 7,
            "time": 123.53999999999593,
            "value": 0.5748031496062992
          },
          {
            "number": 7,
            "time": 123.54499999999592,
            "value": 0.5748031496062992
          },
          {
            "number": 7,
            "time": 123.54999999999592,
            "value": 0.5748031496062992
          },
          {
            "number": 7,
            "time": 123.55499999999591,
            "value": 0.5826771653543307
          },
          {
            "number": 7,
            "time": 123.55999999999591,
            "value": 0.5826771653543307
          },
          {
            "number": 7,
            "time": 123.5649999999959,
            "value": 0.5826771653543307
          },
          {
            "number": 7,
            "time": 123.5699999999959,
            "value": 0.5826771653543307
          },
          {
            "number": 7,
            "time": 123.5749999999959,
            "value": 0.5826771653543307
          },
          {
            "number": 7,
            "time": 123.57999999999589,
            "value": 0.5826771653543307
          },
          {
            "number": 7,
            "time": 123.58499999999589,
            "value": 0.5826771653543307
          },
          {
            "number": 7,
            "time": 123.58999999999588,
            "value": 0.5826771653543307
          },
          {
            "number": 7,
            "time": 123.59499999999588,
            "value": 0.5826771653543307
          },
          {
            "number": 7,
            "time": 123.59999999999587,
            "value": 0.5826771653543307
          },
          {
            "number": 7,
            "time": 123.60499999999587,
            "value": 0.5826771653543307
          },
          {
            "number": 7,
            "time": 123.60999999999586,
            "value": 0.5826771653543307
          },
          {
            "number": 7,
            "time": 123.61499999999586,
            "value": 0.5826771653543307
          },
          {
            "number": 7,
            "time": 123.61999999999585,
            "value": 0.5905511811023622
          },
          {
            "number": 7,
            "time": 123.62499999999585,
            "value": 0.5905511811023622
          },
          {
            "number": 7,
            "time": 123.62999999999585,
            "value": 0.5905511811023622
          },
          {
            "number": 7,
            "time": 123.63499999999584,
            "value": 0.5905511811023622
          },
          {
            "number": 7,
            "time": 123.63999999999584,
            "value": 0.5905511811023622
          },
          {
            "number": 7,
            "time": 123.64499999999583,
            "value": 0.5905511811023622
          },
          {
            "number": 7,
            "time": 123.64999999999583,
            "value": 0.5905511811023622
          },
          {
            "number": 7,
            "time": 123.65499999999582,
            "value": 0.5905511811023622
          },
          {
            "number": 7,
            "time": 123.65999999999582,
            "value": 0.5905511811023622
          },
          {
            "number": 7,
            "time": 123.66499999999581,
            "value": 0.5905511811023622
          },
          {
            "number": 7,
            "time": 123.66999999999581,
            "value": 0.5905511811023622
          },
          {
            "number": 7,
            "time": 123.6749999999958,
            "value": 0.5905511811023622
          },
          {
            "number": 7,
            "time": 123.6799999999958,
            "value": 0.5984251968503937
          },
          {
            "number": 7,
            "time": 123.6849999999958,
            "value": 0.5984251968503937
          },
          {
            "number": 7,
            "time": 123.68999999999579,
            "value": 0.5984251968503937
          },
          {
            "number": 7,
            "time": 123.69499999999579,
            "value": 0.5984251968503937
          },
          {
            "number": 7,
            "time": 123.69999999999578,
            "value": 0.5984251968503937
          },
          {
            "number": 7,
            "time": 123.70499999999578,
            "value": 0.5984251968503937
          },
          {
            "number": 7,
            "time": 123.70999999999577,
            "value": 0.5984251968503937
          },
          {
            "number": 7,
            "time": 123.71499999999577,
            "value": 0.5984251968503937
          },
          {
            "number": 7,
            "time": 123.71999999999576,
            "value": 0.5984251968503937
          },
          {
            "number": 7,
            "time": 123.72499999999576,
            "value": 0.5984251968503937
          },
          {
            "number": 7,
            "time": 123.72999999999575,
            "value": 0.5984251968503937
          },
          {
            "number": 7,
            "time": 123.73499999999575,
            "value": 0.5984251968503937
          },
          {
            "number": 7,
            "time": 123.73999999999575,
            "value": 0.6062992125984252
          },
          {
            "number": 7,
            "time": 123.74499999999574,
            "value": 0.6062992125984252
          },
          {
            "number": 7,
            "time": 123.74999999999574,
            "value": 0.6062992125984252
          },
          {
            "number": 7,
            "time": 123.75499999999573,
            "value": 0.6062992125984252
          },
          {
            "number": 7,
            "time": 123.75999999999573,
            "value": 0.6062992125984252
          },
          {
            "number": 7,
            "time": 123.76499999999572,
            "value": 0.6062992125984252
          },
          {
            "number": 7,
            "time": 123.76999999999572,
            "value": 0.6062992125984252
          },
          {
            "number": 7,
            "time": 123.77499999999571,
            "value": 0.6062992125984252
          },
          {
            "number": 7,
            "time": 123.77999999999571,
            "value": 0.6062992125984252
          },
          {
            "number": 7,
            "time": 123.7849999999957,
            "value": 0.6062992125984252
          },
          {
            "number": 7,
            "time": 123.7899999999957,
            "value": 0.6062992125984252
          },
          {
            "number": 7,
            "time": 123.7949999999957,
            "value": 0.6062992125984252
          },
          {
            "number": 7,
            "time": 123.79999999999569,
            "value": 0.6141732283464567
          },
          {
            "number": 7,
            "time": 123.80499999999569,
            "value": 0.6141732283464567
          },
          {
            "number": 7,
            "time": 123.80999999999568,
            "value": 0.6141732283464567
          },
          {
            "number": 7,
            "time": 123.81499999999568,
            "value": 0.6141732283464567
          },
          {
            "number": 7,
            "time": 123.81999999999567,
            "value": 0.6141732283464567
          },
          {
            "number": 7,
            "time": 123.82499999999567,
            "value": 0.6141732283464567
          },
          {
            "number": 7,
            "time": 123.82999999999566,
            "value": 0.6141732283464567
          },
          {
            "number": 7,
            "time": 123.83499999999566,
            "value": 0.6141732283464567
          },
          {
            "number": 7,
            "time": 123.83999999999565,
            "value": 0.6141732283464567
          },
          {
            "number": 7,
            "time": 123.84499999999565,
            "value": 0.6141732283464567
          },
          {
            "number": 7,
            "time": 123.84999999999565,
            "value": 0.6141732283464567
          },
          {
            "number": 7,
            "time": 123.85499999999564,
            "value": 0.6141732283464567
          },
          {
            "number": 7,
            "time": 123.85999999999564,
            "value": 0.6141732283464567
          },
          {
            "number": 7,
            "time": 123.86499999999563,
            "value": 0.6220472440944882
          },
          {
            "number": 7,
            "time": 123.86999999999563,
            "value": 0.6220472440944882
          },
          {
            "number": 7,
            "time": 123.87499999999562,
            "value": 0.6220472440944882
          },
          {
            "number": 7,
            "time": 123.87999999999562,
            "value": 0.6220472440944882
          },
          {
            "number": 7,
            "time": 123.88499999999561,
            "value": 0.6220472440944882
          },
          {
            "number": 7,
            "time": 123.88999999999561,
            "value": 0.6220472440944882
          },
          {
            "number": 7,
            "time": 123.8949999999956,
            "value": 0.6220472440944882
          },
          {
            "number": 7,
            "time": 123.8999999999956,
            "value": 0.6220472440944882
          },
          {
            "number": 7,
            "time": 123.9049999999956,
            "value": 0.6220472440944882
          },
          {
            "number": 7,
            "time": 123.90999999999559,
            "value": 0.6220472440944882
          },
          {
            "number": 7,
            "time": 123.91499999999559,
            "value": 0.6220472440944882
          },
          {
            "number": 7,
            "time": 123.91999999999558,
            "value": 0.6220472440944882
          },
          {
            "number": 7,
            "time": 123.92499999999558,
            "value": 0.6299212598425197
          },
          {
            "number": 7,
            "time": 123.92999999999557,
            "value": 0.6299212598425197
          },
          {
            "number": 7,
            "time": 123.93499999999557,
            "value": 0.6299212598425197
          },
          {
            "number": 7,
            "time": 123.93999999999556,
            "value": 0.6299212598425197
          },
          {
            "number": 7,
            "time": 123.94499999999556,
            "value": 0.6299212598425197
          },
          {
            "number": 7,
            "time": 123.94999999999555,
            "value": 0.6299212598425197
          },
          {
            "number": 7,
            "time": 123.95499999999555,
            "value": 0.6299212598425197
          },
          {
            "number": 7,
            "time": 123.95999999999555,
            "value": 0.6299212598425197
          },
          {
            "number": 7,
            "time": 123.96499999999554,
            "value": 0.6299212598425197
          },
          {
            "number": 7,
            "time": 123.96999999999554,
            "value": 0.6299212598425197
          },
          {
            "number": 7,
            "time": 123.97499999999553,
            "value": 0.6299212598425197
          },
          {
            "number": 7,
            "time": 123.97999999999553,
            "value": 0.6299212598425197
          },
          {
            "number": 7,
            "time": 123.98499999999552,
            "value": 0.6377952755905512
          },
          {
            "number": 7,
            "time": 123.98999999999552,
            "value": 0.6377952755905512
          },
          {
            "number": 7,
            "time": 123.99499999999551,
            "value": 0.6377952755905512
          },
          {
            "number": 7,
            "time": 123.99999999999551,
            "value": 0.6377952755905512
          },
          {
            "number": 7,
            "time": 124.0049999999955,
            "value": 0.6377952755905512
          },
          {
            "number": 7,
            "time": 124.0099999999955,
            "value": 0.6377952755905512
          },
          {
            "number": 7,
            "time": 124.0149999999955,
            "value": 0.6377952755905512
          },
          {
            "number": 7,
            "time": 124.01999999999549,
            "value": 0.6377952755905512
          },
          {
            "number": 7,
            "time": 124.02499999999549,
            "value": 0.6377952755905512
          },
          {
            "number": 7,
            "time": 124.02999999999548,
            "value": 0.6377952755905512
          },
          {
            "number": 7,
            "time": 124.03499999999548,
            "value": 0.6377952755905512
          },
          {
            "number": 7,
            "time": 124.03999999999547,
            "value": 0.6377952755905512
          },
          {
            "number": 7,
            "time": 124.04499999999547,
            "value": 0.6456692913385826
          },
          {
            "number": 7,
            "time": 124.04999999999546,
            "value": 0.6456692913385826
          },
          {
            "number": 7,
            "time": 124.05499999999546,
            "value": 0.6456692913385826
          },
          {
            "number": 7,
            "time": 124.05999999999545,
            "value": 0.6456692913385826
          },
          {
            "number": 7,
            "time": 124.06499999999545,
            "value": 0.6456692913385826
          },
          {
            "number": 7,
            "time": 124.06999999999545,
            "value": 0.6456692913385826
          },
          {
            "number": 7,
            "time": 124.07499999999544,
            "value": 0.6456692913385826
          },
          {
            "number": 7,
            "time": 124.07999999999544,
            "value": 0.6456692913385826
          },
          {
            "number": 7,
            "time": 124.08499999999543,
            "value": 0.6456692913385826
          },
          {
            "number": 7,
            "time": 124.08999999999543,
            "value": 0.6456692913385826
          },
          {
            "number": 7,
            "time": 124.09499999999542,
            "value": 0.6456692913385826
          },
          {
            "number": 7,
            "time": 124.09999999999542,
            "value": 0.6456692913385826
          },
          {
            "number": 7,
            "time": 124.10499999999541,
            "value": 0.6535433070866141
          },
          {
            "number": 7,
            "time": 124.10999999999541,
            "value": 0.6535433070866141
          },
          {
            "number": 7,
            "time": 124.1149999999954,
            "value": 0.6535433070866141
          },
          {
            "number": 7,
            "time": 124.1199999999954,
            "value": 0.6535433070866141
          },
          {
            "number": 7,
            "time": 124.1249999999954,
            "value": 0.6535433070866141
          },
          {
            "number": 7,
            "time": 124.12999999999539,
            "value": 0.6535433070866141
          },
          {
            "number": 7,
            "time": 124.13499999999539,
            "value": 0.6535433070866141
          },
          {
            "number": 7,
            "time": 124.13999999999538,
            "value": 0.6535433070866141
          },
          {
            "number": 7,
            "time": 124.14499999999538,
            "value": 0.6535433070866141
          },
          {
            "number": 7,
            "time": 124.14999999999537,
            "value": 0.6535433070866141
          },
          {
            "number": 7,
            "time": 124.15499999999537,
            "value": 0.6535433070866141
          },
          {
            "number": 7,
            "time": 124.15999999999536,
            "value": 0.6535433070866141
          },
          {
            "number": 7,
            "time": 124.16499999999536,
            "value": 0.6535433070866141
          },
          {
            "number": 7,
            "time": 124.16999999999535,
            "value": 0.6614173228346457
          },
          {
            "number": 7,
            "time": 124.17499999999535,
            "value": 0.6614173228346457
          },
          {
            "number": 7,
            "time": 124.17999999999535,
            "value": 0.6614173228346457
          },
          {
            "number": 7,
            "time": 124.18499999999534,
            "value": 0.6614173228346457
          },
          {
            "number": 7,
            "time": 124.18999999999534,
            "value": 0.6614173228346457
          },
          {
            "number": 7,
            "time": 124.19499999999533,
            "value": 0.6614173228346457
          },
          {
            "number": 7,
            "time": 124.19999999999533,
            "value": 0.6614173228346457
          },
          {
            "number": 7,
            "time": 124.20499999999532,
            "value": 0.6614173228346457
          },
          {
            "number": 7,
            "time": 124.20999999999532,
            "value": 0.6614173228346457
          },
          {
            "number": 7,
            "time": 124.21499999999531,
            "value": 0.6614173228346457
          },
          {
            "number": 7,
            "time": 124.21999999999531,
            "value": 0.6614173228346457
          },
          {
            "number": 7,
            "time": 124.2249999999953,
            "value": 0.6614173228346457
          },
          {
            "number": 7,
            "time": 124.2299999999953,
            "value": 0.6692913385826772
          },
          {
            "number": 7,
            "time": 124.2349999999953,
            "value": 0.6692913385826772
          },
          {
            "number": 7,
            "time": 124.23999999999529,
            "value": 0.6692913385826772
          },
          {
            "number": 7,
            "time": 124.24499999999529,
            "value": 0.6692913385826772
          },
          {
            "number": 7,
            "time": 124.24999999999528,
            "value": 0.6692913385826772
          },
          {
            "number": 7,
            "time": 124.25499999999528,
            "value": 0.6692913385826772
          },
          {
            "number": 7,
            "time": 124.25999999999527,
            "value": 0.6692913385826772
          },
          {
            "number": 7,
            "time": 124.26499999999527,
            "value": 0.6692913385826772
          },
          {
            "number": 7,
            "time": 124.26999999999526,
            "value": 0.6692913385826772
          },
          {
            "number": 7,
            "time": 124.27499999999526,
            "value": 0.6692913385826772
          },
          {
            "number": 7,
            "time": 124.27999999999525,
            "value": 0.6692913385826772
          },
          {
            "number": 7,
            "time": 124.28499999999525,
            "value": 0.6692913385826772
          },
          {
            "number": 7,
            "time": 124.28999999999525,
            "value": 0.6771653543307087
          },
          {
            "number": 7,
            "time": 124.29499999999524,
            "value": 0.6771653543307087
          },
          {
            "number": 7,
            "time": 124.29999999999524,
            "value": 0.6771653543307087
          },
          {
            "number": 7,
            "time": 124.30499999999523,
            "value": 0.6771653543307087
          },
          {
            "number": 7,
            "time": 124.30999999999523,
            "value": 0.6771653543307087
          },
          {
            "number": 7,
            "time": 124.31499999999522,
            "value": 0.6771653543307087
          },
          {
            "number": 7,
            "time": 124.31999999999522,
            "value": 0.6771653543307087
          },
          {
            "number": 7,
            "time": 124.32499999999521,
            "value": 0.6771653543307087
          },
          {
            "number": 7,
            "time": 124.32999999999521,
            "value": 0.6771653543307087
          },
          {
            "number": 7,
            "time": 124.3349999999952,
            "value": 0.6771653543307087
          },
          {
            "number": 7,
            "time": 124.3399999999952,
            "value": 0.6771653543307087
          },
          {
            "number": 7,
            "time": 124.3449999999952,
            "value": 0.6771653543307087
          },
          {
            "number": 7,
            "time": 124.34999999999519,
            "value": 0.6850393700787402
          },
          {
            "number": 7,
            "time": 124.35499999999519,
            "value": 0.6850393700787402
          },
          {
            "number": 7,
            "time": 124.35999999999518,
            "value": 0.6850393700787402
          },
          {
            "number": 7,
            "time": 124.36499999999518,
            "value": 0.6850393700787402
          },
          {
            "number": 7,
            "time": 124.36999999999517,
            "value": 0.6850393700787402
          },
          {
            "number": 7,
            "time": 124.37499999999517,
            "value": 0.6850393700787402
          },
          {
            "number": 7,
            "time": 124.37999999999516,
            "value": 0.6850393700787402
          },
          {
            "number": 7,
            "time": 124.38499999999516,
            "value": 0.6850393700787402
          },
          {
            "number": 7,
            "time": 124.38999999999515,
            "value": 0.6850393700787402
          },
          {
            "number": 7,
            "time": 124.39499999999515,
            "value": 0.6850393700787402
          },
          {
            "number": 7,
            "time": 124.39999999999515,
            "value": 0.6850393700787402
          },
          {
            "number": 7,
            "time": 124.40499999999514,
            "value": 0.6850393700787402
          },
          {
            "number": 7,
            "time": 124.40999999999514,
            "value": 0.6850393700787402
          },
          {
            "number": 7,
            "time": 124.41499999999513,
            "value": 0.6929133858267716
          },
          {
            "number": 7,
            "time": 124.41999999999513,
            "value": 0.6929133858267716
          },
          {
            "number": 7,
            "time": 124.42499999999512,
            "value": 0.6929133858267716
          },
          {
            "number": 7,
            "time": 124.42999999999512,
            "value": 0.6929133858267716
          },
          {
            "number": 7,
            "time": 124.43499999999511,
            "value": 0.6929133858267716
          },
          {
            "number": 7,
            "time": 124.43999999999511,
            "value": 0.6929133858267716
          },
          {
            "number": 7,
            "time": 124.4449999999951,
            "value": 0.6929133858267716
          },
          {
            "number": 7,
            "time": 124.4499999999951,
            "value": 0.6929133858267716
          },
          {
            "number": 7,
            "time": 124.4549999999951,
            "value": 0.6929133858267716
          },
          {
            "number": 7,
            "time": 124.45999999999509,
            "value": 0.6929133858267716
          },
          {
            "number": 7,
            "time": 124.46499999999509,
            "value": 0.6929133858267716
          },
          {
            "number": 7,
            "time": 124.46999999999508,
            "value": 0.6929133858267716
          },
          {
            "number": 7,
            "time": 124.47499999999508,
            "value": 0.7007874015748031
          },
          {
            "number": 7,
            "time": 124.47999999999507,
            "value": 0.7007874015748031
          },
          {
            "number": 7,
            "time": 124.48499999999507,
            "value": 0.7007874015748031
          },
          {
            "number": 7,
            "time": 124.48999999999506,
            "value": 0.7007874015748031
          },
          {
            "number": 7,
            "time": 124.49499999999506,
            "value": 0.7007874015748031
          },
          {
            "number": 7,
            "time": 124.49999999999505,
            "value": 0.7007874015748031
          },
          {
            "number": 7,
            "time": 124.50499999999505,
            "value": 0.7007874015748031
          },
          {
            "number": 7,
            "time": 124.50999999999505,
            "value": 0.7007874015748031
          },
          {
            "number": 7,
            "time": 124.51499999999504,
            "value": 0.7007874015748031
          },
          {
            "number": 7,
            "time": 124.51999999999504,
            "value": 0.7007874015748031
          },
          {
            "number": 7,
            "time": 124.52499999999503,
            "value": 0.7007874015748031
          },
          {
            "number": 7,
            "time": 124.52999999999503,
            "value": 0.7007874015748031
          },
          {
            "number": 7,
            "time": 124.53499999999502,
            "value": 0.7086614173228346
          },
          {
            "number": 7,
            "time": 124.53999999999502,
            "value": 0.7086614173228346
          },
          {
            "number": 7,
            "time": 124.54499999999501,
            "value": 0.7086614173228346
          },
          {
            "number": 7,
            "time": 124.54999999999501,
            "value": 0.7086614173228346
          },
          {
            "number": 7,
            "time": 124.554999999995,
            "value": 0.7086614173228346
          },
          {
            "number": 7,
            "time": 124.559999999995,
            "value": 0.7086614173228346
          },
          {
            "number": 7,
            "time": 124.564999999995,
            "value": 0.7086614173228346
          },
          {
            "number": 7,
            "time": 124.56999999999499,
            "value": 0.7086614173228346
          },
          {
            "number": 7,
            "time": 124.57499999999499,
            "value": 0.7086614173228346
          },
          {
            "number": 7,
            "time": 124.57999999999498,
            "value": 0.7086614173228346
          },
          {
            "number": 7,
            "time": 124.58499999999498,
            "value": 0.7086614173228346
          },
          {
            "number": 7,
            "time": 124.58999999999497,
            "value": 0.7086614173228346
          },
          {
            "number": 7,
            "time": 124.59499999999497,
            "value": 0.7165354330708661
          },
          {
            "number": 7,
            "time": 124.59999999999496,
            "value": 0.7165354330708661
          },
          {
            "number": 7,
            "time": 124.60499999999496,
            "value": 0.7165354330708661
          },
          {
            "number": 7,
            "time": 124.60999999999495,
            "value": 0.7165354330708661
          },
          {
            "number": 7,
            "time": 124.61499999999495,
            "value": 0.7165354330708661
          },
          {
            "number": 7,
            "time": 124.61999999999495,
            "value": 0.7165354330708661
          },
          {
            "number": 7,
            "time": 124.62499999999494,
            "value": 0.7165354330708661
          },
          {
            "number": 7,
            "time": 124.62999999999494,
            "value": 0.7165354330708661
          },
          {
            "number": 7,
            "time": 124.63499999999493,
            "value": 0.7165354330708661
          },
          {
            "number": 7,
            "time": 124.63999999999493,
            "value": 0.7165354330708661
          },
          {
            "number": 7,
            "time": 124.64499999999492,
            "value": 0.7165354330708661
          },
          {
            "number": 7,
            "time": 124.64999999999492,
            "value": 0.7165354330708661
          },
          {
            "number": 7,
            "time": 124.65499999999491,
            "value": 0.7165354330708661
          },
          {
            "number": 7,
            "time": 124.65999999999491,
            "value": 0.7244094488188977
          },
          {
            "number": 7,
            "time": 124.6649999999949,
            "value": 0.7244094488188977
          },
          {
            "number": 7,
            "time": 124.6699999999949,
            "value": 0.7244094488188977
          },
          {
            "number": 7,
            "time": 124.6749999999949,
            "value": 0.7244094488188977
          },
          {
            "number": 7,
            "time": 124.67999999999489,
            "value": 0.7244094488188977
          },
          {
            "number": 7,
            "time": 124.68499999999489,
            "value": 0.7244094488188977
          },
          {
            "number": 7,
            "time": 124.68999999999488,
            "value": 0.7244094488188977
          },
          {
            "number": 7,
            "time": 124.69499999999488,
            "value": 0.7244094488188977
          },
          {
            "number": 7,
            "time": 124.69999999999487,
            "value": 0.7244094488188977
          },
          {
            "number": 7,
            "time": 124.70499999999487,
            "value": 0.7244094488188977
          },
          {
            "number": 7,
            "time": 124.70999999999486,
            "value": 0.7244094488188977
          },
          {
            "number": 7,
            "time": 124.71499999999486,
            "value": 0.7244094488188977
          },
          {
            "number": 7,
            "time": 124.71999999999485,
            "value": 0.7322834645669292
          },
          {
            "number": 7,
            "time": 124.72499999999485,
            "value": 0.7322834645669292
          },
          {
            "number": 7,
            "time": 124.72999999999485,
            "value": 0.7322834645669292
          },
          {
            "number": 7,
            "time": 124.73499999999484,
            "value": 0.7322834645669292
          },
          {
            "number": 7,
            "time": 124.73999999999484,
            "value": 0.7322834645669292
          },
          {
            "number": 7,
            "time": 124.74499999999483,
            "value": 0.7322834645669292
          },
          {
            "number": 7,
            "time": 124.74999999999483,
            "value": 0.7322834645669292
          },
          {
            "number": 7,
            "time": 124.75499999999482,
            "value": 0.7322834645669292
          },
          {
            "number": 7,
            "time": 124.75999999999482,
            "value": 0.7322834645669292
          },
          {
            "number": 7,
            "time": 124.76499999999481,
            "value": 0.7322834645669292
          },
          {
            "number": 7,
            "time": 124.76999999999481,
            "value": 0.7322834645669292
          },
          {
            "number": 7,
            "time": 124.7749999999948,
            "value": 0.7322834645669292
          },
          {
            "number": 7,
            "time": 124.7799999999948,
            "value": 0.7401574803149606
          },
          {
            "number": 7,
            "time": 124.7849999999948,
            "value": 0.7401574803149606
          },
          {
            "number": 7,
            "time": 124.78999999999479,
            "value": 0.7401574803149606
          },
          {
            "number": 7,
            "time": 124.79499999999479,
            "value": 0.7401574803149606
          },
          {
            "number": 7,
            "time": 124.79999999999478,
            "value": 0.7401574803149606
          },
          {
            "number": 7,
            "time": 132.99499999999486,
            "value": 0.7401574803149606
          },
          {
            "number": 7,
            "time": 132.99999999999486,
            "value": 0.7322834645669292
          },
          {
            "number": 7,
            "time": 133.00499999999485,
            "value": 0.7322834645669292
          },
          {
            "number": 7,
            "time": 133.00999999999485,
            "value": 0.7322834645669292
          },
          {
            "number": 7,
            "time": 133.01499999999484,
            "value": 0.7244094488188977
          },
          {
            "number": 7,
            "time": 133.01999999999484,
            "value": 0.7244094488188977
          },
          {
            "number": 7,
            "time": 133.02499999999483,
            "value": 0.7244094488188977
          },
          {
            "number": 7,
            "time": 133.02999999999483,
            "value": 0.7165354330708661
          },
          {
            "number": 7,
            "time": 133.03499999999482,
            "value": 0.7165354330708661
          },
          {
            "number": 7,
            "time": 133.03999999999482,
            "value": 0.7165354330708661
          },
          {
            "number": 7,
            "time": 133.04499999999481,
            "value": 0.7086614173228346
          },
          {
            "number": 7,
            "time": 133.0499999999948,
            "value": 0.7086614173228346
          },
          {
            "number": 7,
            "time": 133.0549999999948,
            "value": 0.7086614173228346
          },
          {
            "number": 7,
            "time": 133.0599999999948,
            "value": 0.7007874015748031
          },
          {
            "number": 7,
            "time": 133.0649999999948,
            "value": 0.7007874015748031
          },
          {
            "number": 7,
            "time": 133.0699999999948,
            "value": 0.7007874015748031
          },
          {
            "number": 7,
            "time": 133.0749999999948,
            "value": 0.6929133858267716
          },
          {
            "number": 7,
            "time": 133.07999999999478,
            "value": 0.6929133858267716
          },
          {
            "number": 7,
            "time": 133.08499999999478,
            "value": 0.6929133858267716
          },
          {
            "number": 7,
            "time": 133.08999999999477,
            "value": 0.6850393700787402
          },
          {
            "number": 7,
            "time": 133.09499999999477,
            "value": 0.6850393700787402
          },
          {
            "number": 7,
            "time": 133.09999999999476,
            "value": 0.6850393700787402
          },
          {
            "number": 7,
            "time": 133.10499999999476,
            "value": 0.6771653543307087
          },
          {
            "number": 7,
            "time": 133.10999999999476,
            "value": 0.6771653543307087
          },
          {
            "number": 7,
            "time": 133.11499999999475,
            "value": 0.6771653543307087
          },
          {
            "number": 7,
            "time": 133.11999999999475,
            "value": 0.6692913385826772
          },
          {
            "number": 7,
            "time": 133.12499999999474,
            "value": 0.6692913385826772
          },
          {
            "number": 7,
            "time": 133.12999999999474,
            "value": 0.6692913385826772
          },
          {
            "number": 7,
            "time": 133.13499999999473,
            "value": 0.6614173228346457
          },
          {
            "number": 7,
            "time": 133.13999999999473,
            "value": 0.6614173228346457
          },
          {
            "number": 7,
            "time": 133.14499999999472,
            "value": 0.6614173228346457
          },
          {
            "number": 7,
            "time": 133.14999999999472,
            "value": 0.6535433070866141
          },
          {
            "number": 7,
            "time": 133.15499999999471,
            "value": 0.6535433070866141
          },
          {
            "number": 7,
            "time": 133.1599999999947,
            "value": 0.6535433070866141
          },
          {
            "number": 7,
            "time": 133.1649999999947,
            "value": 0.6456692913385826
          },
          {
            "number": 7,
            "time": 133.1699999999947,
            "value": 0.6456692913385826
          },
          {
            "number": 7,
            "time": 133.1749999999947,
            "value": 0.6456692913385826
          },
          {
            "number": 7,
            "time": 133.1799999999947,
            "value": 0.6377952755905512
          },
          {
            "number": 7,
            "time": 133.1849999999947,
            "value": 0.6377952755905512
          },
          {
            "number": 7,
            "time": 133.18999999999468,
            "value": 0.6377952755905512
          },
          {
            "number": 7,
            "time": 133.19499999999468,
            "value": 0.6299212598425197
          },
          {
            "number": 7,
            "time": 133.19999999999467,
            "value": 0.6299212598425197
          },
          {
            "number": 7,
            "time": 133.20499999999467,
            "value": 0.6299212598425197
          },
          {
            "number": 7,
            "time": 133.20999999999466,
            "value": 0.6220472440944882
          },
          {
            "number": 7,
            "time": 133.21499999999466,
            "value": 0.6220472440944882
          },
          {
            "number": 7,
            "time": 133.21999999999466,
            "value": 0.6220472440944882
          },
          {
            "number": 7,
            "time": 133.22499999999465,
            "value": 0.6141732283464567
          },
          {
            "number": 7,
            "time": 133.22999999999465,
            "value": 0.6141732283464567
          },
          {
            "number": 7,
            "time": 133.23499999999464,
            "value": 0.6141732283464567
          },
          {
            "number": 7,
            "time": 133.23999999999464,
            "value": 0.6062992125984252
          },
          {
            "number": 7,
            "time": 133.24499999999463,
            "value": 0.6062992125984252
          },
          {
            "number": 7,
            "time": 133.24999999999463,
            "value": 0.6062992125984252
          },
          {
            "number": 7,
            "time": 133.25499999999462,
            "value": 0.5984251968503937
          },
          {
            "number": 7,
            "time": 133.25999999999462,
            "value": 0.5984251968503937
          },
          {
            "number": 7,
            "time": 133.26499999999461,
            "value": 0.5984251968503937
          },
          {
            "number": 7,
            "time": 133.2699999999946,
            "value": 0.5905511811023622
          },
          {
            "number": 7,
            "time": 133.2749999999946,
            "value": 0.5905511811023622
          },
          {
            "number": 7,
            "time": 133.2799999999946,
            "value": 0.5905511811023622
          },
          {
            "number": 7,
            "time": 133.2849999999946,
            "value": 0.5826771653543307
          },
          {
            "number": 7,
            "time": 133.2899999999946,
            "value": 0.5826771653543307
          },
          {
            "number": 7,
            "time": 133.2949999999946,
            "value": 0.5826771653543307
          },
          {
            "number": 7,
            "time": 133.29999999999458,
            "value": 0.5748031496062992
          },
          {
            "number": 7,
            "time": 133.30499999999458,
            "value": 0.5748031496062992
          },
          {
            "number": 7,
            "time": 133.30999999999457,
            "value": 0.5748031496062992
          },
          {
            "number": 7,
            "time": 133.31499999999457,
            "value": 0.5669291338582677
          },
          {
            "number": 7,
            "time": 133.31999999999456,
            "value": 0.5669291338582677
          },
          {
            "number": 7,
            "time": 133.32499999999456,
            "value": 0.5669291338582677
          },
          {
            "number": 7,
            "time": 133.32999999999456,
            "value": 0.5590551181102362
          },
          {
            "number": 7,
            "time": 133.33499999999455,
            "value": 0.5590551181102362
          },
          {
            "number": 7,
            "time": 133.33999999999455,
            "value": 0.5590551181102362
          },
          {
            "number": 7,
            "time": 133.34499999999454,
            "value": 0.5511811023622047
          },
          {
            "number": 7,
            "time": 133.34999999999454,
            "value": 0.5511811023622047
          },
          {
            "number": 7,
            "time": 133.35499999999453,
            "value": 0.5511811023622047
          },
          {
            "number": 7,
            "time": 133.35999999999453,
            "value": 0.5433070866141733
          },
          {
            "number": 7,
            "time": 133.36499999999452,
            "value": 0.5433070866141733
          },
          {
            "number": 7,
            "time": 133.36999999999452,
            "value": 0.5433070866141733
          },
          {
            "number": 7,
            "time": 133.37499999999451,
            "value": 0.5354330708661418
          },
          {
            "number": 7,
            "time": 133.3799999999945,
            "value": 0.5354330708661418
          },
          {
            "number": 7,
            "time": 133.3849999999945,
            "value": 0.5354330708661418
          },
          {
            "number": 7,
            "time": 133.3899999999945,
            "value": 0.5275590551181102
          },
          {
            "number": 7,
            "time": 133.3949999999945,
            "value": 0.5275590551181102
          },
          {
            "number": 7,
            "time": 133.3999999999945,
            "value": 0.5275590551181102
          },
          {
            "number": 7,
            "time": 133.4049999999945,
            "value": 0.5196850393700787
          },
          {
            "number": 7,
            "time": 133.40999999999448,
            "value": 0.5196850393700787
          },
          {
            "number": 7,
            "time": 133.41499999999448,
            "value": 0.5196850393700787
          },
          {
            "number": 7,
            "time": 133.41999999999447,
            "value": 0.5196850393700787
          },
          {
            "number": 7,
            "time": 133.42499999999447,
            "value": 0.5118110236220472
          },
          {
            "number": 7,
            "time": 133.42999999999446,
            "value": 0.5118110236220472
          },
          {
            "number": 7,
            "time": 133.43499999999446,
            "value": 0.5118110236220472
          },
          {
            "number": 7,
            "time": 133.43999999999446,
            "value": 0.5039370078740157
          },
          {
            "number": 7,
            "time": 133.44499999999445,
            "value": 0.5039370078740157
          },
          {
            "number": 7,
            "time": 133.44999999999445,
            "value": 0.5039370078740157
          },
          {
            "number": 7,
            "time": 133.45499999999444,
            "value": 0.49606299212598426
          },
          {
            "number": 7,
            "time": 133.45999999999444,
            "value": 0.49606299212598426
          },
          {
            "number": 7,
            "time": 133.46499999999443,
            "value": 0.49606299212598426
          },
          {
            "number": 7,
            "time": 133.46999999999443,
            "value": 0.4881889763779528
          },
          {
            "number": 7,
            "time": 133.47499999999442,
            "value": 0.4881889763779528
          },
          {
            "number": 7,
            "time": 133.47999999999442,
            "value": 0.4881889763779528
          },
          {
            "number": 7,
            "time": 133.48499999999441,
            "value": 0.48031496062992124
          },
          {
            "number": 7,
            "time": 133.4899999999944,
            "value": 0.48031496062992124
          },
          {
            "number": 7,
            "time": 133.4949999999944,
            "value": 0.48031496062992124
          },
          {
            "number": 7,
            "time": 133.4999999999944,
            "value": 0.47244094488188976
          },
          {
            "number": 7,
            "time": 133.5049999999944,
            "value": 0.47244094488188976
          },
          {
            "number": 7,
            "time": 133.5099999999944,
            "value": 0.47244094488188976
          },
          {
            "number": 7,
            "time": 133.5149999999944,
            "value": 0.4645669291338583
          },
          {
            "number": 7,
            "time": 133.51999999999438,
            "value": 0.4645669291338583
          },
          {
            "number": 7,
            "time": 133.52499999999438,
            "value": 0.4645669291338583
          },
          {
            "number": 7,
            "time": 133.52999999999437,
            "value": 0.4566929133858268
          },
          {
            "number": 7,
            "time": 133.53499999999437,
            "value": 0.4566929133858268
          },
          {
            "number": 7,
            "time": 133.53999999999436,
            "value": 0.4566929133858268
          },
          {
            "number": 7,
            "time": 133.54499999999436,
            "value": 0.44881889763779526
          },
          {
            "number": 7,
            "time": 133.54999999999436,
            "value": 0.44881889763779526
          },
          {
            "number": 7,
            "time": 133.55499999999435,
            "value": 0.44881889763779526
          },
          {
            "number": 7,
            "time": 133.55999999999435,
            "value": 0.4409448818897638
          },
          {
            "number": 7,
            "time": 133.56499999999434,
            "value": 0.4409448818897638
          },
          {
            "number": 7,
            "time": 133.56999999999434,
            "value": 0.4409448818897638
          },
          {
            "number": 7,
            "time": 133.57499999999433,
            "value": 0.4330708661417323
          },
          {
            "number": 7,
            "time": 133.57999999999433,
            "value": 0.4330708661417323
          },
          {
            "number": 7,
            "time": 133.58499999999432,
            "value": 0.4330708661417323
          },
          {
            "number": 7,
            "time": 133.58999999999432,
            "value": 0.4251968503937008
          },
          {
            "number": 7,
            "time": 133.59499999999431,
            "value": 0.4251968503937008
          },
          {
            "number": 7,
            "time": 133.5999999999943,
            "value": 0.4251968503937008
          },
          {
            "number": 7,
            "time": 133.6049999999943,
            "value": 0.41732283464566927
          },
          {
            "number": 7,
            "time": 133.6099999999943,
            "value": 0.41732283464566927
          },
          {
            "number": 7,
            "time": 133.6149999999943,
            "value": 0.41732283464566927
          },
          {
            "number": 7,
            "time": 133.6199999999943,
            "value": 0.4094488188976378
          },
          {
            "number": 7,
            "time": 133.6249999999943,
            "value": 0.4094488188976378
          },
          {
            "number": 7,
            "time": 133.62999999999428,
            "value": 0.4094488188976378
          },
          {
            "number": 7,
            "time": 133.63499999999428,
            "value": 0.4015748031496063
          },
          {
            "number": 7,
            "time": 133.63999999999427,
            "value": 0.4015748031496063
          },
          {
            "number": 7,
            "time": 133.64499999999427,
            "value": 0.4015748031496063
          },
          {
            "number": 7,
            "time": 133.64999999999426,
            "value": 0.3937007874015748
          },
          {
            "number": 7,
            "time": 133.65499999999426,
            "value": 0.3937007874015748
          },
          {
            "number": 7,
            "time": 133.65999999999426,
            "value": 0.3937007874015748
          },
          {
            "number": 7,
            "time": 133.66499999999425,
            "value": 0.3858267716535433
          },
          {
            "number": 7,
            "time": 133.66999999999425,
            "value": 0.3858267716535433
          },
          {
            "number": 7,
            "time": 133.67499999999424,
            "value": 0.3858267716535433
          },
          {
            "number": 7,
            "time": 133.67999999999424,
            "value": 0.3779527559055118
          },
          {
            "number": 7,
            "time": 133.68499999999423,
            "value": 0.3779527559055118
          },
          {
            "number": 7,
            "time": 133.68999999999423,
            "value": 0.3779527559055118
          },
          {
            "number": 7,
            "time": 133.69499999999422,
            "value": 0.3700787401574803
          },
          {
            "number": 7,
            "time": 133.69999999999422,
            "value": 0.3700787401574803
          },
          {
            "number": 7,
            "time": 133.70499999999421,
            "value": 0.3700787401574803
          },
          {
            "number": 7,
            "time": 133.7099999999942,
            "value": 0.36220472440944884
          },
          {
            "number": 7,
            "time": 133.7149999999942,
            "value": 0.36220472440944884
          },
          {
            "number": 7,
            "time": 133.7199999999942,
            "value": 0.36220472440944884
          },
          {
            "number": 7,
            "time": 133.7249999999942,
            "value": 0.3543307086614173
          },
          {
            "number": 7,
            "time": 133.7299999999942,
            "value": 0.3543307086614173
          },
          {
            "number": 7,
            "time": 133.7349999999942,
            "value": 0.3543307086614173
          },
          {
            "number": 7,
            "time": 133.73999999999418,
            "value": 0.3464566929133858
          },
          {
            "number": 7,
            "time": 133.74499999999418,
            "value": 0.3464566929133858
          },
          {
            "number": 7,
            "time": 133.74999999999417,
            "value": 0.3464566929133858
          },
          {
            "number": 7,
            "time": 133.75499999999417,
            "value": 0.33858267716535434
          },
          {
            "number": 7,
            "time": 133.75999999999416,
            "value": 0.33858267716535434
          },
          {
            "number": 7,
            "time": 133.76499999999416,
            "value": 0.33858267716535434
          },
          {
            "number": 7,
            "time": 133.76999999999416,
            "value": 0.33070866141732286
          },
          {
            "number": 7,
            "time": 133.77499999999415,
            "value": 0.33070866141732286
          },
          {
            "number": 7,
            "time": 133.77999999999415,
            "value": 0.33070866141732286
          },
          {
            "number": 7,
            "time": 133.78499999999414,
            "value": 0.3228346456692913
          },
          {
            "number": 7,
            "time": 133.78999999999414,
            "value": 0.3228346456692913
          },
          {
            "number": 7,
            "time": 133.79499999999413,
            "value": 0.3228346456692913
          },
          {
            "number": 7,
            "time": 133.79999999999413,
            "value": 0.31496062992125984
          },
          {
            "number": 7,
            "time": 133.80499999999412,
            "value": 0.31496062992125984
          },
          {
            "number": 7,
            "time": 133.80999999999412,
            "value": 0.31496062992125984
          },
          {
            "number": 7,
            "time": 133.81499999999411,
            "value": 0.30708661417322836
          },
          {
            "number": 7,
            "time": 133.8199999999941,
            "value": 0.30708661417322836
          },
          {
            "number": 7,
            "time": 133.8249999999941,
            "value": 0.30708661417322836
          },
          {
            "number": 7,
            "time": 133.8299999999941,
            "value": 0.2992125984251969
          },
          {
            "number": 7,
            "time": 133.8349999999941,
            "value": 0.2992125984251969
          },
          {
            "number": 7,
            "time": 133.8399999999941,
            "value": 0.2992125984251969
          },
          {
            "number": 7,
            "time": 133.8449999999941,
            "value": 0.29133858267716534
          },
          {
            "number": 7,
            "time": 133.84999999999408,
            "value": 0.29133858267716534
          },
          {
            "number": 7,
            "time": 133.85499999999408,
            "value": 0.29133858267716534
          },
          {
            "number": 7,
            "time": 133.85999999999407,
            "value": 0.28346456692913385
          },
          {
            "number": 7,
            "time": 133.86499999999407,
            "value": 0.28346456692913385
          },
          {
            "number": 7,
            "time": 133.86999999999406,
            "value": 0.28346456692913385
          },
          {
            "number": 7,
            "time": 133.87499999999406,
            "value": 0.2755905511811024
          },
          {
            "number": 7,
            "time": 133.87999999999406,
            "value": 0.2755905511811024
          },
          {
            "number": 7,
            "time": 133.88499999999405,
            "value": 0.2755905511811024
          },
          {
            "number": 7,
            "time": 133.88999999999405,
            "value": 0.2677165354330709
          },
          {
            "number": 7,
            "time": 133.89499999999404,
            "value": 0.2677165354330709
          },
          {
            "number": 7,
            "time": 133.89999999999404,
            "value": 0.2677165354330709
          },
          {
            "number": 7,
            "time": 133.90499999999403,
            "value": 0.25984251968503935
          },
          {
            "number": 7,
            "time": 133.90999999999403,
            "value": 0.25984251968503935
          },
          {
            "number": 7,
            "time": 133.91499999999402,
            "value": 0.25984251968503935
          },
          {
            "number": 7,
            "time": 133.91999999999402,
            "value": 0.25984251968503935
          },
          {
            "number": 7,
            "time": 133.92499999999401,
            "value": 0.25196850393700787
          },
          {
            "number": 7,
            "time": 133.929999999994,
            "value": 0.25196850393700787
          },
          {
            "number": 7,
            "time": 133.934999999994,
            "value": 0.25196850393700787
          },
          {
            "number": 7,
            "time": 133.939999999994,
            "value": 0.2440944881889764
          },
          {
            "number": 7,
            "time": 133.944999999994,
            "value": 0.2440944881889764
          },
          {
            "number": 7,
            "time": 133.949999999994,
            "value": 0.2440944881889764
          },
          {
            "number": 7,
            "time": 133.954999999994,
            "value": 0.23622047244094488
          },
          {
            "number": 7,
            "time": 133.95999999999398,
            "value": 0.23622047244094488
          },
          {
            "number": 7,
            "time": 133.96499999999398,
            "value": 0.23622047244094488
          },
          {
            "number": 7,
            "time": 133.96999999999397,
            "value": 0.2283464566929134
          },
          {
            "number": 7,
            "time": 133.97499999999397,
            "value": 0.2283464566929134
          },
          {
            "number": 7,
            "time": 133.97999999999396,
            "value": 0.2283464566929134
          },
          {
            "number": 7,
            "time": 133.98499999999396,
            "value": 0.2204724409448819
          },
          {
            "number": 7,
            "time": 133.98999999999396,
            "value": 0.2204724409448819
          },
          {
            "number": 7,
            "time": 133.99499999999395,
            "value": 0.2204724409448819
          },
          {
            "number": 7,
            "time": 133.99999999999395,
            "value": 0.2125984251968504
          },
          {
            "number": 7,
            "time": 134.00499999999394,
            "value": 0.2125984251968504
          },
          {
            "number": 7,
            "time": 134.00999999999394,
            "value": 0.2125984251968504
          },
          {
            "number": 7,
            "time": 134.01499999999393,
            "value": 0.2047244094488189
          },
          {
            "number": 7,
            "time": 134.01999999999393,
            "value": 0.2047244094488189
          },
          {
            "number": 7,
            "time": 134.02499999999392,
            "value": 0.2047244094488189
          },
          {
            "number": 7,
            "time": 134.02999999999392,
            "value": 0.1968503937007874
          },
          {
            "number": 7,
            "time": 134.03499999999391,
            "value": 0.1968503937007874
          },
          {
            "number": 7,
            "time": 134.0399999999939,
            "value": 0.1968503937007874
          },
          {
            "number": 7,
            "time": 134.0449999999939,
            "value": 0.1889763779527559
          },
          {
            "number": 7,
            "time": 134.0499999999939,
            "value": 0.1889763779527559
          },
          {
            "number": 7,
            "time": 134.0549999999939,
            "value": 0.1889763779527559
          },
          {
            "number": 7,
            "time": 134.0599999999939,
            "value": 0.18110236220472442
          },
          {
            "number": 7,
            "time": 134.0649999999939,
            "value": 0.18110236220472442
          },
          {
            "number": 7,
            "time": 134.06999999999388,
            "value": 0.18110236220472442
          },
          {
            "number": 7,
            "time": 134.07499999999388,
            "value": 0.1732283464566929
          },
          {
            "number": 7,
            "time": 134.07999999999387,
            "value": 0.1732283464566929
          },
          {
            "number": 7,
            "time": 134.08499999999387,
            "value": 0.1732283464566929
          },
          {
            "number": 7,
            "time": 134.08999999999386,
            "value": 0.16535433070866143
          },
          {
            "number": 7,
            "time": 134.09499999999386,
            "value": 0.16535433070866143
          },
          {
            "number": 7,
            "time": 134.09999999999386,
            "value": 0.16535433070866143
          },
          {
            "number": 7,
            "time": 134.10499999999385,
            "value": 0.15748031496062992
          },
          {
            "number": 7,
            "time": 134.10999999999385,
            "value": 0.15748031496062992
          },
          {
            "number": 7,
            "time": 134.11499999999384,
            "value": 0.15748031496062992
          },
          {
            "number": 7,
            "time": 134.11999999999384,
            "value": 0.14960629921259844
          },
          {
            "number": 7,
            "time": 134.12499999999383,
            "value": 0.14960629921259844
          },
          {
            "number": 7,
            "time": 134.12999999999383,
            "value": 0.14960629921259844
          },
          {
            "number": 7,
            "time": 134.13499999999382,
            "value": 0.14173228346456693
          },
          {
            "number": 7,
            "time": 134.13999999999382,
            "value": 0.14173228346456693
          },
          {
            "number": 7,
            "time": 134.14499999999381,
            "value": 0.14173228346456693
          },
          {
            "number": 7,
            "time": 134.1499999999938,
            "value": 0.13385826771653545
          },
          {
            "number": 7,
            "time": 134.1549999999938,
            "value": 0.13385826771653545
          },
          {
            "number": 7,
            "time": 134.1599999999938,
            "value": 0.13385826771653545
          },
          {
            "number": 7,
            "time": 134.1649999999938,
            "value": 0.12598425196850394
          },
          {
            "number": 7,
            "time": 134.1699999999938,
            "value": 0.12598425196850394
          },
          {
            "number": 7,
            "time": 134.1749999999938,
            "value": 0.12598425196850394
          },
          {
            "number": 7,
            "time": 134.17999999999378,
            "value": 0.11811023622047244
          },
          {
            "number": 7,
            "time": 134.18499999999378,
            "value": 0.11811023622047244
          },
          {
            "number": 7,
            "time": 134.18999999999377,
            "value": 0.11811023622047244
          },
          {
            "number": 7,
            "time": 134.19499999999377,
            "value": 0.11023622047244094
          },
          {
            "number": 7,
            "time": 134.19999999999376,
            "value": 0.11023622047244094
          },
          {
            "number": 7,
            "time": 134.20499999999376,
            "value": 0.11023622047244094
          },
          {
            "number": 7,
            "time": 134.20999999999376,
            "value": 0.10236220472440945
          },
          {
            "number": 7,
            "time": 134.21499999999375,
            "value": 0.10236220472440945
          },
          {
            "number": 7,
            "time": 134.21999999999375,
            "value": 0.10236220472440945
          },
          {
            "number": 7,
            "time": 134.22499999999374,
            "value": 0.09448818897637795
          },
          {
            "number": 7,
            "time": 134.22999999999374,
            "value": 0.09448818897637795
          },
          {
            "number": 7,
            "time": 134.23499999999373,
            "value": 0.09448818897637795
          },
          {
            "number": 7,
            "time": 134.23999999999373,
            "value": 0.08661417322834646
          },
          {
            "number": 7,
            "time": 134.24499999999372,
            "value": 0.08661417322834646
          },
          {
            "number": 7,
            "time": 134.24999999999372,
            "value": 0.08661417322834646
          },
          {
            "number": 7,
            "time": 134.25499999999371,
            "value": 0.07874015748031496
          },
          {
            "number": 7,
            "time": 134.2599999999937,
            "value": 0.07874015748031496
          },
          {
            "number": 7,
            "time": 134.2649999999937,
            "value": 0.07874015748031496
          },
          {
            "number": 7,
            "time": 134.2699999999937,
            "value": 0.07086614173228346
          },
          {
            "number": 7,
            "time": 134.2749999999937,
            "value": 0.07086614173228346
          },
          {
            "number": 7,
            "time": 134.2799999999937,
            "value": 0.07086614173228346
          },
          {
            "number": 7,
            "time": 134.2849999999937,
            "value": 0.06299212598425197
          },
          {
            "number": 7,
            "time": 134.28999999999368,
            "value": 0.06299212598425197
          },
          {
            "number": 7,
            "time": 134.29499999999368,
            "value": 0.06299212598425197
          },
          {
            "number": 7,
            "time": 134.29999999999367,
            "value": 0.05511811023622047
          },
          {
            "number": 7,
            "time": 134.30499999999367,
            "value": 0.05511811023622047
          },
          {
            "number": 7,
            "time": 134.30999999999366,
            "value": 0.05511811023622047
          },
          {
            "number": 7,
            "time": 134.31499999999366,
            "value": 0.047244094488188976
          },
          {
            "number": 7,
            "time": 134.31999999999366,
            "value": 0.047244094488188976
          },
          {
            "number": 7,
            "time": 134.32499999999365,
            "value": 0.047244094488188976
          },
          {
            "number": 7,
            "time": 134.32999999999365,
            "value": 0.03937007874015748
          },
          {
            "number": 7,
            "time": 134.33499999999364,
            "value": 0.03937007874015748
          },
          {
            "number": 7,
            "time": 134.33999999999364,
            "value": 0.03937007874015748
          },
          {
            "number": 7,
            "time": 134.34499999999363,
            "value": 0.031496062992125984
          },
          {
            "number": 7,
            "time": 134.34999999999363,
            "value": 0.031496062992125984
          },
          {
            "number": 7,
            "time": 134.35499999999362,
            "value": 0.031496062992125984
          },
          {
            "number": 7,
            "time": 134.35999999999362,
            "value": 0.023622047244094488
          },
          {
            "number": 7,
            "time": 134.3649999999936,
            "value": 0.023622047244094488
          },
          {
            "number": 7,
            "time": 134.3699999999936,
            "value": 0.023622047244094488
          },
          {
            "number": 7,
            "time": 134.3749999999936,
            "value": 0.015748031496062992
          },
          {
            "number": 7,
            "time": 134.3799999999936,
            "value": 0.015748031496062992
          },
          {
            "number": 7,
            "time": 134.3849999999936,
            "value": 0.015748031496062992
          },
          {
            "number": 7,
            "time": 134.3899999999936,
            "value": 0.007874015748031496
          },
          {
            "number": 7,
            "time": 134.3949999999936,
            "value": 0.007874015748031496
          },
          {
            "number": 7,
            "time": 134.39999999999358,
            "value": 0.007874015748031496
          },
          {
            "number": 7,
            "time": 134.5199999999936,
            "value": 0.7637795275590551
          },
          {
            "number": 7,
            "time": 140.30499999999358,
            "value": 0.7637795275590551
          },
          {
            "number": 7,
            "time": 140.30999999999358,
            "value": 0.7637795275590551
          },
          {
            "number": 7,
            "time": 140.30999999999358,
            "value": 0.7637795275590551
          }
        ],
        "10": [
          {
            "number": 10,
            "time": 0,
            "value": 0.5039370078740157
          },
          {
            "number": 10,
            "time": 0,
            "value": 0.5039370078740157
          },
          {
            "number": 10,
            "time": 0,
            "value": 0.5039370078740157
          },
          {
            "number": 10,
            "time": 140.30499999999358,
            "value": 0.5039370078740157
          },
          {
            "number": 10,
            "time": 140.30999999999358,
            "value": 0.5039370078740157
          },
          {
            "number": 10,
            "time": 140.30999999999358,
            "value": 0.5039370078740157
          }
        ],
        "100": [
          {
            "number": 100,
            "time": 0,
            "value": 0
          },
          {
            "number": 100,
            "time": 0,
            "value": 0
          },
          {
            "number": 100,
            "time": 140.30499999999358,
            "value": 0
          },
          {
            "number": 100,
            "time": 140.30999999999358,
            "value": 0
          },
          {
            "number": 100,
            "time": 140.30999999999358,
            "value": 0
          }
        ],
        "101": [
          {
            "number": 101,
            "time": 0,
            "value": 0
          },
          {
            "number": 101,
            "time": 0,
            "value": 0
          },
          {
            "number": 101,
            "time": 140.30499999999358,
            "value": 0
          },
          {
            "number": 101,
            "time": 140.30999999999358,
            "value": 0
          },
          {
            "number": 101,
            "time": 140.30999999999358,
            "value": 0
          }
        ]
      },
      "id": 2,
      "name": "MIDI Out",
      "instrumentNumber": 67,
      "instrument": "baritone sax",
      "instrumentFamily": "reed",
      "channelNumber": 0,
      "isPercussion": false
    },
    {
      "startTime": 23.04,
      "duration": 111.59999999999931,
      "length": 246,
      "notes": [
        {
          "name": "E1",
          "midi": 28,
          "time": 23.04,
          "velocity": 1,
          "duration": 0.23999999999999844
        },
        {
          "name": "E1",
          "midi": 28,
          "time": 23.519999999999996,
          "velocity": 1,
          "duration": 0.23999999999999844
        },
        {
          "name": "E1",
          "midi": 28,
          "time": 23.999999999999993,
          "velocity": 1,
          "duration": 0.23999999999999844
        },
        {
          "name": "E1",
          "midi": 28,
          "time": 24.839999999999993,
          "velocity": 1,
          "duration": 0.23999999999999844
        },
        {
          "name": "E2",
          "midi": 40,
          "time": 25.199999999999992,
          "velocity": 1,
          "duration": 0.23999999999999844
        },
        {
          "name": "E1",
          "midi": 28,
          "time": 25.67999999999999,
          "velocity": 1,
          "duration": 0.23999999999999844
        },
        {
          "name": "E1",
          "midi": 28,
          "time": 25.919999999999987,
          "velocity": 1,
          "duration": 0.23999999999999844
        },
        {
          "name": "E2",
          "midi": 40,
          "time": 26.159999999999986,
          "velocity": 1,
          "duration": 0.23999999999999844
        },
        {
          "name": "D#1",
          "midi": 27,
          "time": 26.399999999999984,
          "velocity": 1,
          "duration": 0.23999999999999844
        },
        {
          "name": "D#2",
          "midi": 39,
          "time": 26.639999999999983,
          "velocity": 1,
          "duration": 0.23999999999999844
        },
        {
          "name": "C#1",
          "midi": 25,
          "time": 26.87999999999998,
          "velocity": 1,
          "duration": 0.23999999999999844
        },
        {
          "name": "C#1",
          "midi": 25,
          "time": 27.359999999999978,
          "velocity": 1,
          "duration": 0.23999999999999844
        },
        {
          "name": "C#1",
          "midi": 25,
          "time": 27.839999999999975,
          "velocity": 1,
          "duration": 0.23999999999999844
        },
        {
          "name": "C#1",
          "midi": 25,
          "time": 28.679999999999975,
          "velocity": 1,
          "duration": 0.23999999999999844
        },
        {
          "name": "C#2",
          "midi": 37,
          "time": 29.039999999999974,
          "velocity": 1,
          "duration": 0.23999999999999844
        },
        {
          "name": "C#1",
          "midi": 25,
          "time": 29.51999999999997,
          "velocity": 1,
          "duration": 0.23999999999999844
        },
        {
          "name": "C#1",
          "midi": 25,
          "time": 29.75999999999997,
          "velocity": 1,
          "duration": 0.23999999999999844
        },
        {
          "name": "C#2",
          "midi": 37,
          "time": 29.999999999999968,
          "velocity": 1,
          "duration": 0.23999999999999844
        },
        {
          "name": "F#1",
          "midi": 30,
          "time": 30.239999999999966,
          "velocity": 1,
          "duration": 0.23999999999999844
        },
        {
          "name": "F#2",
          "midi": 42,
          "time": 30.479999999999965,
          "velocity": 1,
          "duration": 0.23999999999999844
        },
        {
          "name": "G#1",
          "midi": 32,
          "time": 30.719999999999963,
          "velocity": 1,
          "duration": 0.23999999999999844
        },
        {
          "name": "G#1",
          "midi": 32,
          "time": 31.19999999999996,
          "velocity": 1,
          "duration": 0.23999999999999844
        },
        {
          "name": "G#1",
          "midi": 32,
          "time": 31.679999999999957,
          "velocity": 1,
          "duration": 0.23999999999999844
        },
        {
          "name": "G#1",
          "midi": 32,
          "time": 32.51999999999995,
          "velocity": 1,
          "duration": 0.240000000000002
        },
        {
          "name": "G#2",
          "midi": 44,
          "time": 32.87999999999995,
          "velocity": 1,
          "duration": 0.240000000000002
        },
        {
          "name": "G#1",
          "midi": 32,
          "time": 33.35999999999996,
          "velocity": 1,
          "duration": 0.240000000000002
        },
        {
          "name": "G#1",
          "midi": 32,
          "time": 33.59999999999996,
          "velocity": 1,
          "duration": 0.240000000000002
        },
        {
          "name": "G#2",
          "midi": 44,
          "time": 33.83999999999996,
          "velocity": 1,
          "duration": 0.240000000000002
        },
        {
          "name": "A#1",
          "midi": 34,
          "time": 34.07999999999996,
          "velocity": 1,
          "duration": 0.240000000000002
        },
        {
          "name": "A#2",
          "midi": 46,
          "time": 34.319999999999965,
          "velocity": 1,
          "duration": 0.240000000000002
        },
        {
          "name": "B1",
          "midi": 35,
          "time": 34.55999999999997,
          "velocity": 1,
          "duration": 0.240000000000002
        },
        {
          "name": "B1",
          "midi": 35,
          "time": 35.03999999999997,
          "velocity": 1,
          "duration": 0.240000000000002
        },
        {
          "name": "B1",
          "midi": 35,
          "time": 35.519999999999975,
          "velocity": 1,
          "duration": 0.240000000000002
        },
        {
          "name": "B2",
          "midi": 47,
          "time": 35.879999999999974,
          "velocity": 1,
          "duration": 0.240000000000002
        },
        {
          "name": "B1",
          "midi": 35,
          "time": 36.239999999999974,
          "velocity": 1,
          "duration": 0.240000000000002
        },
        {
          "name": "B1",
          "midi": 35,
          "time": 36.479999999999976,
          "velocity": 1,
          "duration": 0.240000000000002
        },
        {
          "name": "B2",
          "midi": 47,
          "time": 36.71999999999998,
          "velocity": 1,
          "duration": 0.240000000000002
        },
        {
          "name": "C#2",
          "midi": 37,
          "time": 36.95999999999998,
          "velocity": 1,
          "duration": 0.240000000000002
        },
        {
          "name": "C#3",
          "midi": 49,
          "time": 37.19999999999998,
          "velocity": 1,
          "duration": 0.240000000000002
        },
        {
          "name": "D#2",
          "midi": 39,
          "time": 37.43999999999998,
          "velocity": 1,
          "duration": 0.240000000000002
        },
        {
          "name": "D#3",
          "midi": 51,
          "time": 37.679999999999986,
          "velocity": 1,
          "duration": 0.240000000000002
        },
        {
          "name": "B1",
          "midi": 35,
          "time": 37.91999999999999,
          "velocity": 1,
          "duration": 0.240000000000002
        },
        {
          "name": "B2",
          "midi": 47,
          "time": 38.15999999999999,
          "velocity": 1,
          "duration": 0.240000000000002
        },
        {
          "name": "E1",
          "midi": 28,
          "time": 38.39999999999999,
          "velocity": 1,
          "duration": 0.240000000000002
        },
        {
          "name": "E1",
          "midi": 28,
          "time": 38.879999999999995,
          "velocity": 1,
          "duration": 0.240000000000002
        },
        {
          "name": "E1",
          "midi": 28,
          "time": 39.36,
          "velocity": 1,
          "duration": 0.240000000000002
        },
        {
          "name": "E1",
          "midi": 28,
          "time": 40.2,
          "velocity": 1,
          "duration": 0.240000000000002
        },
        {
          "name": "E2",
          "midi": 40,
          "time": 40.56,
          "velocity": 1,
          "duration": 0.240000000000002
        },
        {
          "name": "E1",
          "midi": 28,
          "time": 41.040000000000006,
          "velocity": 1,
          "duration": 0.240000000000002
        },
        {
          "name": "E1",
          "midi": 28,
          "time": 41.28000000000001,
          "velocity": 1,
          "duration": 0.240000000000002
        },
        {
          "name": "E2",
          "midi": 40,
          "time": 41.52000000000001,
          "velocity": 1,
          "duration": 0.240000000000002
        },
        {
          "name": "D#1",
          "midi": 27,
          "time": 41.76000000000001,
          "velocity": 1,
          "duration": 0.240000000000002
        },
        {
          "name": "D#2",
          "midi": 39,
          "time": 42.000000000000014,
          "velocity": 1,
          "duration": 0.240000000000002
        },
        {
          "name": "C#1",
          "midi": 25,
          "time": 42.240000000000016,
          "velocity": 1,
          "duration": 0.240000000000002
        },
        {
          "name": "C#1",
          "midi": 25,
          "time": 42.72000000000002,
          "velocity": 1,
          "duration": 0.240000000000002
        },
        {
          "name": "C#1",
          "midi": 25,
          "time": 43.200000000000024,
          "velocity": 1,
          "duration": 0.240000000000002
        },
        {
          "name": "C#1",
          "midi": 25,
          "time": 44.04000000000003,
          "velocity": 1,
          "duration": 0.240000000000002
        },
        {
          "name": "C#2",
          "midi": 37,
          "time": 44.40000000000003,
          "velocity": 1,
          "duration": 0.240000000000002
        },
        {
          "name": "C#1",
          "midi": 25,
          "time": 44.88000000000003,
          "velocity": 1,
          "duration": 0.240000000000002
        },
        {
          "name": "C#1",
          "midi": 25,
          "time": 45.12000000000003,
          "velocity": 1,
          "duration": 0.240000000000002
        },
        {
          "name": "C#2",
          "midi": 37,
          "time": 45.360000000000035,
          "velocity": 1,
          "duration": 0.240000000000002
        },
        {
          "name": "F#1",
          "midi": 30,
          "time": 45.60000000000004,
          "velocity": 1,
          "duration": 0.240000000000002
        },
        {
          "name": "F#2",
          "midi": 42,
          "time": 45.84000000000004,
          "velocity": 1,
          "duration": 0.240000000000002
        },
        {
          "name": "G#1",
          "midi": 32,
          "time": 46.08000000000004,
          "velocity": 1,
          "duration": 0.240000000000002
        },
        {
          "name": "G#1",
          "midi": 32,
          "time": 46.560000000000045,
          "velocity": 1,
          "duration": 0.240000000000002
        },
        {
          "name": "G#1",
          "midi": 32,
          "time": 47.04000000000005,
          "velocity": 1,
          "duration": 0.240000000000002
        },
        {
          "name": "G#1",
          "midi": 32,
          "time": 47.88000000000005,
          "velocity": 1,
          "duration": 0.240000000000002
        },
        {
          "name": "G#2",
          "midi": 44,
          "time": 48.24000000000005,
          "velocity": 1,
          "duration": 0.240000000000002
        },
        {
          "name": "G#1",
          "midi": 32,
          "time": 48.720000000000056,
          "velocity": 1,
          "duration": 0.240000000000002
        },
        {
          "name": "G#1",
          "midi": 32,
          "time": 48.96000000000006,
          "velocity": 1,
          "duration": 0.240000000000002
        },
        {
          "name": "G#2",
          "midi": 44,
          "time": 49.20000000000006,
          "velocity": 1,
          "duration": 0.240000000000002
        },
        {
          "name": "A#1",
          "midi": 34,
          "time": 49.44000000000006,
          "velocity": 1,
          "duration": 0.240000000000002
        },
        {
          "name": "A#2",
          "midi": 46,
          "time": 49.680000000000064,
          "velocity": 1,
          "duration": 0.240000000000002
        },
        {
          "name": "B1",
          "midi": 35,
          "time": 49.920000000000066,
          "velocity": 1,
          "duration": 0.240000000000002
        },
        {
          "name": "B1",
          "midi": 35,
          "time": 50.40000000000007,
          "velocity": 1,
          "duration": 0.240000000000002
        },
        {
          "name": "B1",
          "midi": 35,
          "time": 50.880000000000074,
          "velocity": 1,
          "duration": 0.240000000000002
        },
        {
          "name": "B2",
          "midi": 47,
          "time": 51.24000000000007,
          "velocity": 1,
          "duration": 0.240000000000002
        },
        {
          "name": "B1",
          "midi": 35,
          "time": 51.60000000000007,
          "velocity": 1,
          "duration": 0.240000000000002
        },
        {
          "name": "B1",
          "midi": 35,
          "time": 51.840000000000074,
          "velocity": 1,
          "duration": 0.240000000000002
        },
        {
          "name": "B2",
          "midi": 47,
          "time": 52.08000000000008,
          "velocity": 1,
          "duration": 0.240000000000002
        },
        {
          "name": "C#2",
          "midi": 37,
          "time": 52.32000000000008,
          "velocity": 1,
          "duration": 0.240000000000002
        },
        {
          "name": "C#3",
          "midi": 49,
          "time": 52.56000000000008,
          "velocity": 1,
          "duration": 0.240000000000002
        },
        {
          "name": "D#2",
          "midi": 39,
          "time": 52.80000000000008,
          "velocity": 1,
          "duration": 0.240000000000002
        },
        {
          "name": "D#3",
          "midi": 51,
          "time": 53.040000000000084,
          "velocity": 1,
          "duration": 0.240000000000002
        },
        {
          "name": "B1",
          "midi": 35,
          "time": 53.280000000000086,
          "velocity": 1,
          "duration": 0.240000000000002
        },
        {
          "name": "B2",
          "midi": 47,
          "time": 53.52000000000009,
          "velocity": 1,
          "duration": 0.240000000000002
        },
        {
          "name": "E1",
          "midi": 28,
          "time": 53.76000000000009,
          "velocity": 1,
          "duration": 0.240000000000002
        },
        {
          "name": "E1",
          "midi": 28,
          "time": 54.240000000000094,
          "velocity": 1,
          "duration": 0.240000000000002
        },
        {
          "name": "E1",
          "midi": 28,
          "time": 54.7200000000001,
          "velocity": 1,
          "duration": 0.240000000000002
        },
        {
          "name": "E1",
          "midi": 28,
          "time": 55.5600000000001,
          "velocity": 1,
          "duration": 0.240000000000002
        },
        {
          "name": "E2",
          "midi": 40,
          "time": 55.9200000000001,
          "velocity": 1,
          "duration": 0.240000000000002
        },
        {
          "name": "E1",
          "midi": 28,
          "time": 56.400000000000105,
          "velocity": 1,
          "duration": 0.240000000000002
        },
        {
          "name": "E1",
          "midi": 28,
          "time": 56.64000000000011,
          "velocity": 1,
          "duration": 0.240000000000002
        },
        {
          "name": "E2",
          "midi": 40,
          "time": 56.88000000000011,
          "velocity": 1,
          "duration": 0.240000000000002
        },
        {
          "name": "D#1",
          "midi": 27,
          "time": 57.12000000000011,
          "velocity": 1,
          "duration": 0.240000000000002
        },
        {
          "name": "D#2",
          "midi": 39,
          "time": 57.36000000000011,
          "velocity": 1,
          "duration": 0.240000000000002
        },
        {
          "name": "C#1",
          "midi": 25,
          "time": 57.600000000000115,
          "velocity": 1,
          "duration": 0.240000000000002
        },
        {
          "name": "C#1",
          "midi": 25,
          "time": 58.08000000000012,
          "velocity": 1,
          "duration": 0.240000000000002
        },
        {
          "name": "C#1",
          "midi": 25,
          "time": 58.56000000000012,
          "velocity": 1,
          "duration": 0.240000000000002
        },
        {
          "name": "C#1",
          "midi": 25,
          "time": 59.40000000000013,
          "velocity": 1,
          "duration": 0.240000000000002
        },
        {
          "name": "C#2",
          "midi": 37,
          "time": 59.760000000000126,
          "velocity": 1,
          "duration": 0.240000000000002
        },
        {
          "name": "C#1",
          "midi": 25,
          "time": 60.24000000000013,
          "velocity": 1,
          "duration": 0.240000000000002
        },
        {
          "name": "C#1",
          "midi": 25,
          "time": 60.48000000000013,
          "velocity": 1,
          "duration": 0.240000000000002
        },
        {
          "name": "C#2",
          "midi": 37,
          "time": 60.720000000000134,
          "velocity": 1,
          "duration": 0.240000000000002
        },
        {
          "name": "F#1",
          "midi": 30,
          "time": 60.960000000000136,
          "velocity": 1,
          "duration": 0.240000000000002
        },
        {
          "name": "F#2",
          "midi": 42,
          "time": 61.20000000000014,
          "velocity": 1,
          "duration": 0.240000000000002
        },
        {
          "name": "G#1",
          "midi": 32,
          "time": 61.44000000000014,
          "velocity": 1,
          "duration": 0.240000000000002
        },
        {
          "name": "G#1",
          "midi": 32,
          "time": 61.920000000000144,
          "velocity": 1,
          "duration": 0.240000000000002
        },
        {
          "name": "G#1",
          "midi": 32,
          "time": 62.40000000000015,
          "velocity": 1,
          "duration": 0.240000000000002
        },
        {
          "name": "G#1",
          "midi": 32,
          "time": 63.24000000000015,
          "velocity": 1,
          "duration": 0.240000000000002
        },
        {
          "name": "G#2",
          "midi": 44,
          "time": 63.60000000000015,
          "velocity": 1,
          "duration": 0.240000000000002
        },
        {
          "name": "G#1",
          "midi": 32,
          "time": 64.08000000000015,
          "velocity": 1,
          "duration": 0.23999999999999488
        },
        {
          "name": "G#1",
          "midi": 32,
          "time": 64.32000000000015,
          "velocity": 1,
          "duration": 0.23999999999999488
        },
        {
          "name": "G#2",
          "midi": 44,
          "time": 64.56000000000014,
          "velocity": 1,
          "duration": 0.23999999999999488
        },
        {
          "name": "A#1",
          "midi": 34,
          "time": 64.80000000000014,
          "velocity": 1,
          "duration": 0.23999999999999488
        },
        {
          "name": "A#2",
          "midi": 46,
          "time": 65.04000000000013,
          "velocity": 1,
          "duration": 0.23999999999999488
        },
        {
          "name": "B1",
          "midi": 35,
          "time": 65.28000000000013,
          "velocity": 1,
          "duration": 0.23999999999999488
        },
        {
          "name": "B1",
          "midi": 35,
          "time": 65.76000000000012,
          "velocity": 1,
          "duration": 0.23999999999999488
        },
        {
          "name": "B1",
          "midi": 35,
          "time": 66.24000000000011,
          "velocity": 1,
          "duration": 0.23999999999999488
        },
        {
          "name": "B2",
          "midi": 47,
          "time": 66.60000000000011,
          "velocity": 1,
          "duration": 0.23999999999999488
        },
        {
          "name": "B1",
          "midi": 35,
          "time": 66.96000000000011,
          "velocity": 1,
          "duration": 0.23999999999999488
        },
        {
          "name": "B1",
          "midi": 35,
          "time": 67.2000000000001,
          "velocity": 1,
          "duration": 0.23999999999999488
        },
        {
          "name": "B2",
          "midi": 47,
          "time": 67.4400000000001,
          "velocity": 1,
          "duration": 0.23999999999999488
        },
        {
          "name": "C#2",
          "midi": 37,
          "time": 67.68000000000009,
          "velocity": 1,
          "duration": 0.23999999999999488
        },
        {
          "name": "C#3",
          "midi": 49,
          "time": 67.92000000000009,
          "velocity": 1,
          "duration": 0.23999999999999488
        },
        {
          "name": "D#2",
          "midi": 39,
          "time": 68.16000000000008,
          "velocity": 1,
          "duration": 0.23999999999999488
        },
        {
          "name": "D#3",
          "midi": 51,
          "time": 68.40000000000008,
          "velocity": 1,
          "duration": 0.23999999999999488
        },
        {
          "name": "B1",
          "midi": 35,
          "time": 68.64000000000007,
          "velocity": 1,
          "duration": 0.23999999999999488
        },
        {
          "name": "B2",
          "midi": 47,
          "time": 68.88000000000007,
          "velocity": 1,
          "duration": 0.23999999999999488
        },
        {
          "name": "E1",
          "midi": 28,
          "time": 69.12000000000006,
          "velocity": 1,
          "duration": 0.23999999999999488
        },
        {
          "name": "E1",
          "midi": 28,
          "time": 69.60000000000005,
          "velocity": 1,
          "duration": 0.23999999999999488
        },
        {
          "name": "E1",
          "midi": 28,
          "time": 70.08000000000004,
          "velocity": 1,
          "duration": 0.23999999999999488
        },
        {
          "name": "E1",
          "midi": 28,
          "time": 70.92000000000003,
          "velocity": 1,
          "duration": 0.23999999999999488
        },
        {
          "name": "E2",
          "midi": 40,
          "time": 71.28000000000003,
          "velocity": 1,
          "duration": 0.23999999999999488
        },
        {
          "name": "E1",
          "midi": 28,
          "time": 71.76000000000002,
          "velocity": 1,
          "duration": 0.23999999999999488
        },
        {
          "name": "E1",
          "midi": 28,
          "time": 72.00000000000001,
          "velocity": 1,
          "duration": 0.23999999999999488
        },
        {
          "name": "E2",
          "midi": 40,
          "time": 72.24000000000001,
          "velocity": 1,
          "duration": 0.23999999999999488
        },
        {
          "name": "D#1",
          "midi": 27,
          "time": 72.48,
          "velocity": 1,
          "duration": 0.23999999999999488
        },
        {
          "name": "D#2",
          "midi": 39,
          "time": 72.72,
          "velocity": 1,
          "duration": 0.23999999999999488
        },
        {
          "name": "C#1",
          "midi": 25,
          "time": 72.96,
          "velocity": 1,
          "duration": 0.23999999999999488
        },
        {
          "name": "C#1",
          "midi": 25,
          "time": 73.43999999999998,
          "velocity": 1,
          "duration": 0.23999999999999488
        },
        {
          "name": "C#1",
          "midi": 25,
          "time": 73.91999999999997,
          "velocity": 1,
          "duration": 0.23999999999999488
        },
        {
          "name": "C#1",
          "midi": 25,
          "time": 74.75999999999996,
          "velocity": 1,
          "duration": 0.23999999999999488
        },
        {
          "name": "C#2",
          "midi": 37,
          "time": 75.11999999999996,
          "velocity": 1,
          "duration": 0.23999999999999488
        },
        {
          "name": "C#1",
          "midi": 25,
          "time": 75.59999999999995,
          "velocity": 1,
          "duration": 0.23999999999999488
        },
        {
          "name": "C#1",
          "midi": 25,
          "time": 75.83999999999995,
          "velocity": 1,
          "duration": 0.23999999999999488
        },
        {
          "name": "C#2",
          "midi": 37,
          "time": 76.07999999999994,
          "velocity": 1,
          "duration": 0.23999999999999488
        },
        {
          "name": "F#1",
          "midi": 30,
          "time": 76.31999999999994,
          "velocity": 1,
          "duration": 0.23999999999999488
        },
        {
          "name": "F#2",
          "midi": 42,
          "time": 76.55999999999993,
          "velocity": 1,
          "duration": 0.23999999999999488
        },
        {
          "name": "G#1",
          "midi": 32,
          "time": 76.79999999999993,
          "velocity": 1,
          "duration": 0.23999999999999488
        },
        {
          "name": "G#1",
          "midi": 32,
          "time": 77.27999999999992,
          "velocity": 1,
          "duration": 0.23999999999999488
        },
        {
          "name": "G#1",
          "midi": 32,
          "time": 77.7599999999999,
          "velocity": 1,
          "duration": 0.23999999999999488
        },
        {
          "name": "G#1",
          "midi": 32,
          "time": 78.5999999999999,
          "velocity": 1,
          "duration": 0.23999999999999488
        },
        {
          "name": "G#2",
          "midi": 44,
          "time": 78.9599999999999,
          "velocity": 1,
          "duration": 0.23999999999999488
        },
        {
          "name": "G#1",
          "midi": 32,
          "time": 79.43999999999988,
          "velocity": 1,
          "duration": 0.23999999999999488
        },
        {
          "name": "G#1",
          "midi": 32,
          "time": 79.67999999999988,
          "velocity": 1,
          "duration": 0.23999999999999488
        },
        {
          "name": "G#2",
          "midi": 44,
          "time": 79.91999999999987,
          "velocity": 1,
          "duration": 0.23999999999999488
        },
        {
          "name": "A#1",
          "midi": 34,
          "time": 80.15999999999987,
          "velocity": 1,
          "duration": 0.23999999999999488
        },
        {
          "name": "A#2",
          "midi": 46,
          "time": 80.39999999999986,
          "velocity": 1,
          "duration": 0.23999999999999488
        },
        {
          "name": "B1",
          "midi": 35,
          "time": 80.63999999999986,
          "velocity": 1,
          "duration": 0.23999999999999488
        },
        {
          "name": "B1",
          "midi": 35,
          "time": 81.11999999999985,
          "velocity": 1,
          "duration": 0.23999999999999488
        },
        {
          "name": "B1",
          "midi": 35,
          "time": 81.59999999999984,
          "velocity": 1,
          "duration": 0.23999999999999488
        },
        {
          "name": "B2",
          "midi": 47,
          "time": 81.95999999999984,
          "velocity": 1,
          "duration": 0.23999999999999488
        },
        {
          "name": "B1",
          "midi": 35,
          "time": 82.31999999999984,
          "velocity": 1,
          "duration": 0.23999999999999488
        },
        {
          "name": "B1",
          "midi": 35,
          "time": 82.55999999999983,
          "velocity": 1,
          "duration": 0.23999999999999488
        },
        {
          "name": "B2",
          "midi": 47,
          "time": 82.79999999999983,
          "velocity": 1,
          "duration": 0.23999999999999488
        },
        {
          "name": "C#2",
          "midi": 37,
          "time": 83.03999999999982,
          "velocity": 1,
          "duration": 0.23999999999999488
        },
        {
          "name": "C#3",
          "midi": 49,
          "time": 83.27999999999982,
          "velocity": 1,
          "duration": 0.23999999999999488
        },
        {
          "name": "D#2",
          "midi": 39,
          "time": 83.51999999999981,
          "velocity": 1,
          "duration": 0.23999999999999488
        },
        {
          "name": "D#3",
          "midi": 51,
          "time": 83.7599999999998,
          "velocity": 1,
          "duration": 0.23999999999999488
        },
        {
          "name": "B1",
          "midi": 35,
          "time": 83.9999999999998,
          "velocity": 1,
          "duration": 0.23999999999999488
        },
        {
          "name": "B2",
          "midi": 47,
          "time": 84.2399999999998,
          "velocity": 1,
          "duration": 0.23999999999999488
        },
        {
          "name": "E1",
          "midi": 28,
          "time": 84.47999999999979,
          "velocity": 1,
          "duration": 0.23999999999999488
        },
        {
          "name": "E1",
          "midi": 28,
          "time": 84.95999999999978,
          "velocity": 1,
          "duration": 0.23999999999999488
        },
        {
          "name": "E1",
          "midi": 28,
          "time": 85.43999999999977,
          "velocity": 1,
          "duration": 0.23999999999999488
        },
        {
          "name": "E1",
          "midi": 28,
          "time": 86.27999999999976,
          "velocity": 1,
          "duration": 0.23999999999999488
        },
        {
          "name": "E2",
          "midi": 40,
          "time": 86.63999999999976,
          "velocity": 1,
          "duration": 0.23999999999999488
        },
        {
          "name": "E1",
          "midi": 28,
          "time": 87.11999999999975,
          "velocity": 1,
          "duration": 0.23999999999999488
        },
        {
          "name": "E1",
          "midi": 28,
          "time": 87.35999999999974,
          "velocity": 1,
          "duration": 0.23999999999999488
        },
        {
          "name": "E2",
          "midi": 40,
          "time": 87.59999999999974,
          "velocity": 1,
          "duration": 0.23999999999999488
        },
        {
          "name": "D#1",
          "midi": 27,
          "time": 87.83999999999973,
          "velocity": 1,
          "duration": 0.23999999999999488
        },
        {
          "name": "D#2",
          "midi": 39,
          "time": 88.07999999999973,
          "velocity": 1,
          "duration": 0.23999999999999488
        },
        {
          "name": "C#1",
          "midi": 25,
          "time": 88.31999999999972,
          "velocity": 1,
          "duration": 0.23999999999999488
        },
        {
          "name": "C#1",
          "midi": 25,
          "time": 88.79999999999971,
          "velocity": 1,
          "duration": 0.23999999999999488
        },
        {
          "name": "C#1",
          "midi": 25,
          "time": 89.2799999999997,
          "velocity": 1,
          "duration": 0.23999999999999488
        },
        {
          "name": "C#1",
          "midi": 25,
          "time": 90.11999999999969,
          "velocity": 1,
          "duration": 0.23999999999999488
        },
        {
          "name": "C#2",
          "midi": 37,
          "time": 90.47999999999969,
          "velocity": 1,
          "duration": 0.23999999999999488
        },
        {
          "name": "C#1",
          "midi": 25,
          "time": 90.95999999999968,
          "velocity": 1,
          "duration": 0.23999999999999488
        },
        {
          "name": "C#1",
          "midi": 25,
          "time": 91.19999999999968,
          "velocity": 1,
          "duration": 0.23999999999999488
        },
        {
          "name": "C#2",
          "midi": 37,
          "time": 91.43999999999967,
          "velocity": 1,
          "duration": 0.23999999999999488
        },
        {
          "name": "F#1",
          "midi": 30,
          "time": 91.67999999999967,
          "velocity": 1,
          "duration": 0.23999999999999488
        },
        {
          "name": "F#2",
          "midi": 42,
          "time": 91.91999999999966,
          "velocity": 1,
          "duration": 0.23999999999999488
        },
        {
          "name": "G#1",
          "midi": 32,
          "time": 92.15999999999966,
          "velocity": 1,
          "duration": 0.23999999999999488
        },
        {
          "name": "G#1",
          "midi": 32,
          "time": 92.63999999999965,
          "velocity": 1,
          "duration": 0.23999999999999488
        },
        {
          "name": "G#1",
          "midi": 32,
          "time": 93.11999999999964,
          "velocity": 1,
          "duration": 0.23999999999999488
        },
        {
          "name": "G#1",
          "midi": 32,
          "time": 93.95999999999962,
          "velocity": 1,
          "duration": 0.23999999999999488
        },
        {
          "name": "G#2",
          "midi": 44,
          "time": 94.31999999999962,
          "velocity": 1,
          "duration": 0.23999999999999488
        },
        {
          "name": "G#1",
          "midi": 32,
          "time": 94.79999999999961,
          "velocity": 1,
          "duration": 0.23999999999999488
        },
        {
          "name": "G#1",
          "midi": 32,
          "time": 95.03999999999961,
          "velocity": 1,
          "duration": 0.23999999999999488
        },
        {
          "name": "G#2",
          "midi": 44,
          "time": 95.2799999999996,
          "velocity": 1,
          "duration": 0.23999999999999488
        },
        {
          "name": "A#1",
          "midi": 34,
          "time": 95.5199999999996,
          "velocity": 1,
          "duration": 0.23999999999999488
        },
        {
          "name": "A#2",
          "midi": 46,
          "time": 95.7599999999996,
          "velocity": 1,
          "duration": 0.23999999999999488
        },
        {
          "name": "B1",
          "midi": 35,
          "time": 95.99999999999959,
          "velocity": 1,
          "duration": 0.23999999999999488
        },
        {
          "name": "B1",
          "midi": 35,
          "time": 96.47999999999958,
          "velocity": 1,
          "duration": 0.23999999999999488
        },
        {
          "name": "B1",
          "midi": 35,
          "time": 96.95999999999957,
          "velocity": 1,
          "duration": 0.23999999999999488
        },
        {
          "name": "B2",
          "midi": 47,
          "time": 97.31999999999957,
          "velocity": 1,
          "duration": 0.23999999999999488
        },
        {
          "name": "B1",
          "midi": 35,
          "time": 97.67999999999957,
          "velocity": 1,
          "duration": 0.23999999999999488
        },
        {
          "name": "B1",
          "midi": 35,
          "time": 97.91999999999956,
          "velocity": 1,
          "duration": 0.23999999999999488
        },
        {
          "name": "B2",
          "midi": 47,
          "time": 98.15999999999956,
          "velocity": 1,
          "duration": 0.23999999999999488
        },
        {
          "name": "C#2",
          "midi": 37,
          "time": 98.39999999999955,
          "velocity": 1,
          "duration": 0.23999999999999488
        },
        {
          "name": "C#3",
          "midi": 49,
          "time": 98.63999999999955,
          "velocity": 1,
          "duration": 0.23999999999999488
        },
        {
          "name": "D#2",
          "midi": 39,
          "time": 98.87999999999954,
          "velocity": 1,
          "duration": 0.23999999999999488
        },
        {
          "name": "D#3",
          "midi": 51,
          "time": 99.11999999999954,
          "velocity": 1,
          "duration": 0.23999999999999488
        },
        {
          "name": "B1",
          "midi": 35,
          "time": 99.35999999999953,
          "velocity": 1,
          "duration": 0.23999999999999488
        },
        {
          "name": "B2",
          "midi": 47,
          "time": 99.59999999999953,
          "velocity": 1,
          "duration": 0.23999999999999488
        },
        {
          "name": "E1",
          "midi": 28,
          "time": 99.83999999999952,
          "velocity": 1,
          "duration": 0.23999999999999488
        },
        {
          "name": "E1",
          "midi": 28,
          "time": 100.31999999999951,
          "velocity": 1,
          "duration": 0.23999999999999488
        },
        {
          "name": "E1",
          "midi": 28,
          "time": 100.7999999999995,
          "velocity": 1,
          "duration": 0.23999999999999488
        },
        {
          "name": "E1",
          "midi": 28,
          "time": 101.63999999999949,
          "velocity": 1,
          "duration": 0.23999999999999488
        },
        {
          "name": "E2",
          "midi": 40,
          "time": 101.99999999999949,
          "velocity": 1,
          "duration": 0.23999999999999488
        },
        {
          "name": "E1",
          "midi": 28,
          "time": 102.47999999999948,
          "velocity": 1,
          "duration": 0.23999999999999488
        },
        {
          "name": "E1",
          "midi": 28,
          "time": 102.71999999999947,
          "velocity": 1,
          "duration": 0.23999999999999488
        },
        {
          "name": "E2",
          "midi": 40,
          "time": 102.95999999999947,
          "velocity": 1,
          "duration": 0.23999999999999488
        },
        {
          "name": "D#1",
          "midi": 27,
          "time": 103.19999999999946,
          "velocity": 1,
          "duration": 0.23999999999999488
        },
        {
          "name": "D#2",
          "midi": 39,
          "time": 103.43999999999946,
          "velocity": 1,
          "duration": 0.23999999999999488
        },
        {
          "name": "C#1",
          "midi": 25,
          "time": 103.67999999999945,
          "velocity": 1,
          "duration": 0.23999999999999488
        },
        {
          "name": "C#1",
          "midi": 25,
          "time": 104.15999999999944,
          "velocity": 1,
          "duration": 0.23999999999999488
        },
        {
          "name": "C#1",
          "midi": 25,
          "time": 104.63999999999943,
          "velocity": 1,
          "duration": 0.23999999999999488
        },
        {
          "name": "C#1",
          "midi": 25,
          "time": 105.47999999999942,
          "velocity": 1,
          "duration": 0.23999999999999488
        },
        {
          "name": "C#2",
          "midi": 37,
          "time": 105.83999999999942,
          "velocity": 1,
          "duration": 0.23999999999999488
        },
        {
          "name": "C#1",
          "midi": 25,
          "time": 106.31999999999941,
          "velocity": 1,
          "duration": 0.23999999999999488
        },
        {
          "name": "C#1",
          "midi": 25,
          "time": 106.5599999999994,
          "velocity": 1,
          "duration": 0.23999999999999488
        },
        {
          "name": "C#2",
          "midi": 37,
          "time": 106.7999999999994,
          "velocity": 1,
          "duration": 0.23999999999999488
        },
        {
          "name": "F#1",
          "midi": 30,
          "time": 107.0399999999994,
          "velocity": 1,
          "duration": 0.23999999999999488
        },
        {
          "name": "F#2",
          "midi": 42,
          "time": 107.27999999999939,
          "velocity": 1,
          "duration": 0.23999999999999488
        },
        {
          "name": "G#1",
          "midi": 32,
          "time": 107.51999999999938,
          "velocity": 1,
          "duration": 0.23999999999999488
        },
        {
          "name": "G#1",
          "midi": 32,
          "time": 107.99999999999937,
          "velocity": 1,
          "duration": 0.23999999999999488
        },
        {
          "name": "G#1",
          "midi": 32,
          "time": 108.47999999999936,
          "velocity": 1,
          "duration": 0.23999999999999488
        },
        {
          "name": "G#1",
          "midi": 32,
          "time": 109.31999999999935,
          "velocity": 1,
          "duration": 0.23999999999999488
        },
        {
          "name": "G#2",
          "midi": 44,
          "time": 109.67999999999935,
          "velocity": 1,
          "duration": 0.23999999999999488
        },
        {
          "name": "G#1",
          "midi": 32,
          "time": 110.15999999999934,
          "velocity": 1,
          "duration": 0.23999999999999488
        },
        {
          "name": "G#1",
          "midi": 32,
          "time": 110.39999999999934,
          "velocity": 1,
          "duration": 0.23999999999999488
        },
        {
          "name": "G#2",
          "midi": 44,
          "time": 110.63999999999933,
          "velocity": 1,
          "duration": 0.23999999999999488
        },
        {
          "name": "A#1",
          "midi": 34,
          "time": 110.87999999999933,
          "velocity": 1,
          "duration": 0.23999999999999488
        },
        {
          "name": "A#2",
          "midi": 46,
          "time": 111.11999999999932,
          "velocity": 1,
          "duration": 0.23999999999999488
        },
        {
          "name": "B1",
          "midi": 35,
          "time": 111.35999999999932,
          "velocity": 1,
          "duration": 0.23999999999999488
        }
      ],
      "controlChanges": {
        "6": [
          {
            "number": 6,
            "time": 0,
            "value": 0.09448818897637795
          },
          {
            "number": 6,
            "time": 0,
            "value": 0.09448818897637795
          },
          {
            "number": 6,
            "time": 140.30499999999932,
            "value": 0.09448818897637795
          },
          {
            "number": 6,
            "time": 140.30999999999932,
            "value": 0.09448818897637795
          },
          {
            "number": 6,
            "time": 140.30999999999932,
            "value": 0.09448818897637795
          }
        ],
        "7": [
          {
            "number": 7,
            "time": 0,
            "value": 0.7874015748031497
          },
          {
            "number": 7,
            "time": 0,
            "value": 0.7874015748031497
          },
          {
            "number": 7,
            "time": 0,
            "value": 0.7874015748031497
          },
          {
            "number": 7,
            "time": 140.30499999999932,
            "value": 0.7874015748031497
          },
          {
            "number": 7,
            "time": 140.30999999999932,
            "value": 0.7874015748031497
          },
          {
            "number": 7,
            "time": 140.30999999999932,
            "value": 0.7874015748031497
          }
        ],
        "10": [
          {
            "number": 10,
            "time": 0,
            "value": 0.5039370078740157
          },
          {
            "number": 10,
            "time": 0,
            "value": 0.5039370078740157
          },
          {
            "number": 10,
            "time": 0,
            "value": 0.5039370078740157
          },
          {
            "number": 10,
            "time": 140.30499999999932,
            "value": 0.5039370078740157
          },
          {
            "number": 10,
            "time": 140.30999999999932,
            "value": 0.5039370078740157
          },
          {
            "number": 10,
            "time": 140.30999999999932,
            "value": 0.5039370078740157
          }
        ],
        "100": [
          {
            "number": 100,
            "time": 0,
            "value": 0
          },
          {
            "number": 100,
            "time": 0,
            "value": 0
          },
          {
            "number": 100,
            "time": 140.30499999999932,
            "value": 0
          },
          {
            "number": 100,
            "time": 140.30999999999932,
            "value": 0
          },
          {
            "number": 100,
            "time": 140.30999999999932,
            "value": 0
          }
        ],
        "101": [
          {
            "number": 101,
            "time": 0,
            "value": 0
          },
          {
            "number": 101,
            "time": 0,
            "value": 0
          },
          {
            "number": 101,
            "time": 140.30499999999932,
            "value": 0
          },
          {
            "number": 101,
            "time": 140.30999999999932,
            "value": 0
          },
          {
            "number": 101,
            "time": 140.30999999999932,
            "value": 0
          }
        ]
      },
      "id": 3,
      "name": "MIDI Out #2",
      "instrumentNumber": 39,
      "instrument": "synth bass 2",
      "instrumentFamily": "bass",
      "channelNumber": 1,
      "isPercussion": false
    },
    {
      "startTime": 7.679999999999991,
      "duration": 134.39999999999912,
      "length": 153,
      "notes": [
        {
          "name": "G#3",
          "midi": 56,
          "time": 7.679999999999991,
          "velocity": 1,
          "duration": 1.9200000000002433
        },
        {
          "name": "E4",
          "midi": 64,
          "time": 7.679999999999991,
          "velocity": 1,
          "duration": 1.9200000000002433
        },
        {
          "name": "B3",
          "midi": 59,
          "time": 7.679999999999991,
          "velocity": 1,
          "duration": 1.9200000000002433
        },
        {
          "name": "E4",
          "midi": 64,
          "time": 9.600000000000234,
          "velocity": 1,
          "duration": 1.92
        },
        {
          "name": "C#4",
          "midi": 61,
          "time": 9.600000000000234,
          "velocity": 1,
          "duration": 1.92
        },
        {
          "name": "G#3",
          "midi": 56,
          "time": 9.600000000000234,
          "velocity": 1,
          "duration": 1.92
        },
        {
          "name": "G#3",
          "midi": 56,
          "time": 11.520000000000234,
          "velocity": 1,
          "duration": 1.92
        },
        {
          "name": "E4",
          "midi": 64,
          "time": 11.520000000000234,
          "velocity": 1,
          "duration": 1.92
        },
        {
          "name": "B3",
          "midi": 59,
          "time": 11.520000000000234,
          "velocity": 1,
          "duration": 1.92
        },
        {
          "name": "E4",
          "midi": 64,
          "time": 13.440000000000234,
          "velocity": 1,
          "duration": 1.92
        },
        {
          "name": "C#4",
          "midi": 61,
          "time": 13.440000000000234,
          "velocity": 1,
          "duration": 1.92
        },
        {
          "name": "G#3",
          "midi": 56,
          "time": 13.440000000000234,
          "velocity": 1,
          "duration": 1.92
        },
        {
          "name": "G#3",
          "midi": 56,
          "time": 15.360000000000234,
          "velocity": 1,
          "duration": 1.9200000000000017
        },
        {
          "name": "E4",
          "midi": 64,
          "time": 15.360000000000234,
          "velocity": 1,
          "duration": 1.9200000000000017
        },
        {
          "name": "B3",
          "midi": 59,
          "time": 15.360000000000234,
          "velocity": 1,
          "duration": 1.9200000000000017
        },
        {
          "name": "E4",
          "midi": 64,
          "time": 17.280000000000236,
          "velocity": 1,
          "duration": 1.9200000000000017
        },
        {
          "name": "C#4",
          "midi": 61,
          "time": 17.280000000000236,
          "velocity": 1,
          "duration": 1.9200000000000017
        },
        {
          "name": "G#3",
          "midi": 56,
          "time": 17.280000000000236,
          "velocity": 1,
          "duration": 1.9200000000000017
        },
        {
          "name": "G#3",
          "midi": 56,
          "time": 19.200000000000237,
          "velocity": 1,
          "duration": 1.9200000000000017
        },
        {
          "name": "E4",
          "midi": 64,
          "time": 19.200000000000237,
          "velocity": 1,
          "duration": 1.9200000000000017
        },
        {
          "name": "B3",
          "midi": 59,
          "time": 19.200000000000237,
          "velocity": 1,
          "duration": 1.9200000000000017
        },
        {
          "name": "G#4",
          "midi": 68,
          "time": 23.04000000000024,
          "velocity": 0.7480314960629921,
          "duration": 1.9200000000000017
        },
        {
          "name": "E4",
          "midi": 64,
          "time": 23.04000000000024,
          "velocity": 0.7480314960629921,
          "duration": 1.9200000000000017
        },
        {
          "name": "B4",
          "midi": 71,
          "time": 23.04000000000024,
          "velocity": 0.7480314960629921,
          "duration": 1.9200000000000017
        },
        {
          "name": "G#4",
          "midi": 68,
          "time": 24.960000000000242,
          "velocity": 0.7480314960629921,
          "duration": 1.9200000000000017
        },
        {
          "name": "E4",
          "midi": 64,
          "time": 24.960000000000242,
          "velocity": 0.7480314960629921,
          "duration": 1.9200000000000017
        },
        {
          "name": "B4",
          "midi": 71,
          "time": 24.960000000000242,
          "velocity": 0.7480314960629921,
          "duration": 1.9200000000000017
        },
        {
          "name": "D#5",
          "midi": 75,
          "time": 26.880000000000244,
          "velocity": 0.7480314960629921,
          "duration": 1.9200000000000017
        },
        {
          "name": "G#4",
          "midi": 68,
          "time": 26.880000000000244,
          "velocity": 0.7480314960629921,
          "duration": 1.9200000000000017
        },
        {
          "name": "B4",
          "midi": 71,
          "time": 26.880000000000244,
          "velocity": 0.7480314960629921,
          "duration": 1.9200000000000017
        },
        {
          "name": "B4",
          "midi": 71,
          "time": 28.800000000000246,
          "velocity": 0.7480314960629921,
          "duration": 1.9200000000000017
        },
        {
          "name": "D#5",
          "midi": 75,
          "time": 28.800000000000246,
          "velocity": 0.7480314960629921,
          "duration": 1.9200000000000017
        },
        {
          "name": "G#4",
          "midi": 68,
          "time": 28.800000000000246,
          "velocity": 0.7480314960629921,
          "duration": 1.9200000000000017
        },
        {
          "name": "D#5",
          "midi": 75,
          "time": 30.720000000000248,
          "velocity": 0.7480314960629921,
          "duration": 1.9200000000000017
        },
        {
          "name": "G#4",
          "midi": 68,
          "time": 30.720000000000248,
          "velocity": 0.7480314960629921,
          "duration": 1.9200000000000017
        },
        {
          "name": "B4",
          "midi": 71,
          "time": 30.720000000000248,
          "velocity": 0.7480314960629921,
          "duration": 1.9200000000000017
        },
        {
          "name": "G#4",
          "midi": 68,
          "time": 32.64000000000025,
          "velocity": 0.7480314960629921,
          "duration": 1.9200000000000017
        },
        {
          "name": "D#5",
          "midi": 75,
          "time": 32.64000000000025,
          "velocity": 0.7480314960629921,
          "duration": 1.9200000000000017
        },
        {
          "name": "B4",
          "midi": 71,
          "time": 32.64000000000025,
          "velocity": 0.7480314960629921,
          "duration": 1.9200000000000017
        },
        {
          "name": "D#5",
          "midi": 75,
          "time": 34.56000000000025,
          "velocity": 0.7480314960629921,
          "duration": 1.9200000000000017
        },
        {
          "name": "F#4",
          "midi": 66,
          "time": 34.56000000000025,
          "velocity": 0.7480314960629921,
          "duration": 1.9200000000000017
        },
        {
          "name": "B4",
          "midi": 71,
          "time": 34.56000000000025,
          "velocity": 0.7480314960629921,
          "duration": 1.9200000000000017
        },
        {
          "name": "D#5",
          "midi": 75,
          "time": 36.48000000000025,
          "velocity": 0.7480314960629921,
          "duration": 1.9200000000000017
        },
        {
          "name": "A#4",
          "midi": 70,
          "time": 36.48000000000025,
          "velocity": 0.7480314960629921,
          "duration": 1.9200000000000017
        },
        {
          "name": "F#4",
          "midi": 66,
          "time": 36.48000000000025,
          "velocity": 0.7480314960629921,
          "duration": 1.9200000000000017
        },
        {
          "name": "G#4",
          "midi": 68,
          "time": 38.400000000000254,
          "velocity": 0.7480314960629921,
          "duration": 1.9200000000000017
        },
        {
          "name": "E4",
          "midi": 64,
          "time": 38.400000000000254,
          "velocity": 0.7480314960629921,
          "duration": 1.9200000000000017
        },
        {
          "name": "B4",
          "midi": 71,
          "time": 38.400000000000254,
          "velocity": 0.7480314960629921,
          "duration": 1.9200000000000017
        },
        {
          "name": "G#4",
          "midi": 68,
          "time": 40.320000000000256,
          "velocity": 0.7480314960629921,
          "duration": 1.9200000000000017
        },
        {
          "name": "E4",
          "midi": 64,
          "time": 40.320000000000256,
          "velocity": 0.7480314960629921,
          "duration": 1.9200000000000017
        },
        {
          "name": "B4",
          "midi": 71,
          "time": 40.320000000000256,
          "velocity": 0.7480314960629921,
          "duration": 1.9200000000000017
        },
        {
          "name": "D#5",
          "midi": 75,
          "time": 42.24000000000026,
          "velocity": 0.7480314960629921,
          "duration": 1.9200000000000017
        },
        {
          "name": "G#4",
          "midi": 68,
          "time": 42.24000000000026,
          "velocity": 0.7480314960629921,
          "duration": 1.9200000000000017
        },
        {
          "name": "B4",
          "midi": 71,
          "time": 42.24000000000026,
          "velocity": 0.7480314960629921,
          "duration": 1.9200000000000017
        },
        {
          "name": "B4",
          "midi": 71,
          "time": 44.16000000000026,
          "velocity": 0.7480314960629921,
          "duration": 1.9200000000000017
        },
        {
          "name": "D#5",
          "midi": 75,
          "time": 44.16000000000026,
          "velocity": 0.7480314960629921,
          "duration": 1.9200000000000017
        },
        {
          "name": "G#4",
          "midi": 68,
          "time": 44.16000000000026,
          "velocity": 0.7480314960629921,
          "duration": 1.9200000000000017
        },
        {
          "name": "D#5",
          "midi": 75,
          "time": 46.08000000000026,
          "velocity": 0.7480314960629921,
          "duration": 1.9200000000000017
        },
        {
          "name": "G#4",
          "midi": 68,
          "time": 46.08000000000026,
          "velocity": 0.7480314960629921,
          "duration": 1.9200000000000017
        },
        {
          "name": "B4",
          "midi": 71,
          "time": 46.08000000000026,
          "velocity": 0.7480314960629921,
          "duration": 1.9200000000000017
        },
        {
          "name": "G#4",
          "midi": 68,
          "time": 48.00000000000026,
          "velocity": 0.7480314960629921,
          "duration": 1.9200000000000017
        },
        {
          "name": "D#5",
          "midi": 75,
          "time": 48.00000000000026,
          "velocity": 0.7480314960629921,
          "duration": 1.9200000000000017
        },
        {
          "name": "B4",
          "midi": 71,
          "time": 48.00000000000026,
          "velocity": 0.7480314960629921,
          "duration": 1.9200000000000017
        },
        {
          "name": "D#5",
          "midi": 75,
          "time": 49.920000000000265,
          "velocity": 0.7480314960629921,
          "duration": 1.9200000000000017
        },
        {
          "name": "F#4",
          "midi": 66,
          "time": 49.920000000000265,
          "velocity": 0.7480314960629921,
          "duration": 1.9200000000000017
        },
        {
          "name": "B4",
          "midi": 71,
          "time": 49.920000000000265,
          "velocity": 0.7480314960629921,
          "duration": 1.9200000000000017
        },
        {
          "name": "D#5",
          "midi": 75,
          "time": 51.840000000000266,
          "velocity": 0.7480314960629921,
          "duration": 1.9200000000000017
        },
        {
          "name": "A#4",
          "midi": 70,
          "time": 51.840000000000266,
          "velocity": 0.7480314960629921,
          "duration": 1.9200000000000017
        },
        {
          "name": "F#4",
          "midi": 66,
          "time": 51.840000000000266,
          "velocity": 0.7480314960629921,
          "duration": 1.9200000000000017
        },
        {
          "name": "G#4",
          "midi": 68,
          "time": 53.76000000000027,
          "velocity": 0.7480314960629921,
          "duration": 1.9200000000000017
        },
        {
          "name": "E4",
          "midi": 64,
          "time": 53.76000000000027,
          "velocity": 0.7480314960629921,
          "duration": 1.9200000000000017
        },
        {
          "name": "B4",
          "midi": 71,
          "time": 53.76000000000027,
          "velocity": 0.7480314960629921,
          "duration": 1.9200000000000017
        },
        {
          "name": "G#4",
          "midi": 68,
          "time": 55.68000000000027,
          "velocity": 0.7480314960629921,
          "duration": 1.9200000000000017
        },
        {
          "name": "E4",
          "midi": 64,
          "time": 55.68000000000027,
          "velocity": 0.7480314960629921,
          "duration": 1.9200000000000017
        },
        {
          "name": "B4",
          "midi": 71,
          "time": 55.68000000000027,
          "velocity": 0.7480314960629921,
          "duration": 1.9200000000000017
        },
        {
          "name": "D#5",
          "midi": 75,
          "time": 57.60000000000027,
          "velocity": 0.7480314960629921,
          "duration": 1.9200000000000017
        },
        {
          "name": "G#4",
          "midi": 68,
          "time": 57.60000000000027,
          "velocity": 0.7480314960629921,
          "duration": 1.9200000000000017
        },
        {
          "name": "B4",
          "midi": 71,
          "time": 57.60000000000027,
          "velocity": 0.7480314960629921,
          "duration": 1.9200000000000017
        },
        {
          "name": "B4",
          "midi": 71,
          "time": 59.52000000000027,
          "velocity": 0.7480314960629921,
          "duration": 1.9200000000000017
        },
        {
          "name": "D#5",
          "midi": 75,
          "time": 59.52000000000027,
          "velocity": 0.7480314960629921,
          "duration": 1.9200000000000017
        },
        {
          "name": "G#4",
          "midi": 68,
          "time": 59.52000000000027,
          "velocity": 0.7480314960629921,
          "duration": 1.9200000000000017
        },
        {
          "name": "D#5",
          "midi": 75,
          "time": 61.440000000000275,
          "velocity": 0.7480314960629921,
          "duration": 1.9200000000000017
        },
        {
          "name": "G#4",
          "midi": 68,
          "time": 61.440000000000275,
          "velocity": 0.7480314960629921,
          "duration": 1.9200000000000017
        },
        {
          "name": "B4",
          "midi": 71,
          "time": 61.440000000000275,
          "velocity": 0.7480314960629921,
          "duration": 1.9200000000000017
        },
        {
          "name": "G#4",
          "midi": 68,
          "time": 63.36000000000028,
          "velocity": 0.7480314960629921,
          "duration": 1.9199999999999946
        },
        {
          "name": "D#5",
          "midi": 75,
          "time": 63.36000000000028,
          "velocity": 0.7480314960629921,
          "duration": 1.9199999999999946
        },
        {
          "name": "B4",
          "midi": 71,
          "time": 63.36000000000028,
          "velocity": 0.7480314960629921,
          "duration": 1.9199999999999946
        },
        {
          "name": "D#5",
          "midi": 75,
          "time": 65.28000000000027,
          "velocity": 0.7480314960629921,
          "duration": 1.9200000000000017
        },
        {
          "name": "F#4",
          "midi": 66,
          "time": 65.28000000000027,
          "velocity": 0.7480314960629921,
          "duration": 1.9200000000000017
        },
        {
          "name": "B4",
          "midi": 71,
          "time": 65.28000000000027,
          "velocity": 0.7480314960629921,
          "duration": 1.9200000000000017
        },
        {
          "name": "D#5",
          "midi": 75,
          "time": 67.20000000000027,
          "velocity": 0.7480314960629921,
          "duration": 1.9200000000000017
        },
        {
          "name": "A#4",
          "midi": 70,
          "time": 67.20000000000027,
          "velocity": 0.7480314960629921,
          "duration": 1.9200000000000017
        },
        {
          "name": "F#4",
          "midi": 66,
          "time": 67.20000000000027,
          "velocity": 0.7480314960629921,
          "duration": 1.9200000000000017
        },
        {
          "name": "G#4",
          "midi": 68,
          "time": 69.12000000000027,
          "velocity": 0.7480314960629921,
          "duration": 1.9200000000000017
        },
        {
          "name": "E4",
          "midi": 64,
          "time": 69.12000000000027,
          "velocity": 0.7480314960629921,
          "duration": 1.9200000000000017
        },
        {
          "name": "B4",
          "midi": 71,
          "time": 69.12000000000027,
          "velocity": 0.7480314960629921,
          "duration": 1.9200000000000017
        },
        {
          "name": "G#4",
          "midi": 68,
          "time": 71.04000000000028,
          "velocity": 0.7480314960629921,
          "duration": 1.9200000000000017
        },
        {
          "name": "E4",
          "midi": 64,
          "time": 71.04000000000028,
          "velocity": 0.7480314960629921,
          "duration": 1.9200000000000017
        },
        {
          "name": "B4",
          "midi": 71,
          "time": 71.04000000000028,
          "velocity": 0.7480314960629921,
          "duration": 1.9200000000000017
        },
        {
          "name": "D#5",
          "midi": 75,
          "time": 72.96000000000028,
          "velocity": 0.7480314960629921,
          "duration": 1.9200000000000017
        },
        {
          "name": "G#4",
          "midi": 68,
          "time": 72.96000000000028,
          "velocity": 0.7480314960629921,
          "duration": 1.9200000000000017
        },
        {
          "name": "B4",
          "midi": 71,
          "time": 72.96000000000028,
          "velocity": 0.7480314960629921,
          "duration": 1.9200000000000017
        },
        {
          "name": "B4",
          "midi": 71,
          "time": 74.88000000000028,
          "velocity": 0.7480314960629921,
          "duration": 1.9200000000000017
        },
        {
          "name": "D#5",
          "midi": 75,
          "time": 74.88000000000028,
          "velocity": 0.7480314960629921,
          "duration": 1.9200000000000017
        },
        {
          "name": "G#4",
          "midi": 68,
          "time": 74.88000000000028,
          "velocity": 0.7480314960629921,
          "duration": 1.9200000000000017
        },
        {
          "name": "D#5",
          "midi": 75,
          "time": 76.80000000000028,
          "velocity": 0.7480314960629921,
          "duration": 1.9200000000000017
        },
        {
          "name": "G#4",
          "midi": 68,
          "time": 76.80000000000028,
          "velocity": 0.7480314960629921,
          "duration": 1.9200000000000017
        },
        {
          "name": "B4",
          "midi": 71,
          "time": 76.80000000000028,
          "velocity": 0.7480314960629921,
          "duration": 1.9200000000000017
        },
        {
          "name": "G#4",
          "midi": 68,
          "time": 78.72000000000028,
          "velocity": 0.7480314960629921,
          "duration": 1.9200000000000017
        },
        {
          "name": "D#5",
          "midi": 75,
          "time": 78.72000000000028,
          "velocity": 0.7480314960629921,
          "duration": 1.9200000000000017
        },
        {
          "name": "B4",
          "midi": 71,
          "time": 78.72000000000028,
          "velocity": 0.7480314960629921,
          "duration": 1.9200000000000017
        },
        {
          "name": "D#5",
          "midi": 75,
          "time": 80.64000000000028,
          "velocity": 0.7480314960629921,
          "duration": 1.9200000000000017
        },
        {
          "name": "F#4",
          "midi": 66,
          "time": 80.64000000000028,
          "velocity": 0.7480314960629921,
          "duration": 1.9200000000000017
        },
        {
          "name": "B4",
          "midi": 71,
          "time": 80.64000000000028,
          "velocity": 0.7480314960629921,
          "duration": 1.9200000000000017
        },
        {
          "name": "D#5",
          "midi": 75,
          "time": 82.56000000000029,
          "velocity": 0.7480314960629921,
          "duration": 1.9200000000000017
        },
        {
          "name": "A#4",
          "midi": 70,
          "time": 82.56000000000029,
          "velocity": 0.7480314960629921,
          "duration": 1.9200000000000017
        },
        {
          "name": "F#4",
          "midi": 66,
          "time": 82.56000000000029,
          "velocity": 0.7480314960629921,
          "duration": 1.9200000000000017
        },
        {
          "name": "G#4",
          "midi": 68,
          "time": 84.48000000000029,
          "velocity": 0.7480314960629921,
          "duration": 1.9200000000000017
        },
        {
          "name": "E4",
          "midi": 64,
          "time": 84.48000000000029,
          "velocity": 0.7480314960629921,
          "duration": 1.9200000000000017
        },
        {
          "name": "B4",
          "midi": 71,
          "time": 84.48000000000029,
          "velocity": 0.7480314960629921,
          "duration": 1.9200000000000017
        },
        {
          "name": "G#4",
          "midi": 68,
          "time": 86.40000000000029,
          "velocity": 0.7480314960629921,
          "duration": 1.9200000000000017
        },
        {
          "name": "E4",
          "midi": 64,
          "time": 86.40000000000029,
          "velocity": 0.7480314960629921,
          "duration": 1.9200000000000017
        },
        {
          "name": "B4",
          "midi": 71,
          "time": 86.40000000000029,
          "velocity": 0.7480314960629921,
          "duration": 1.9200000000000017
        },
        {
          "name": "D#5",
          "midi": 75,
          "time": 88.32000000000029,
          "velocity": 0.7480314960629921,
          "duration": 1.9200000000000017
        },
        {
          "name": "G#4",
          "midi": 68,
          "time": 88.32000000000029,
          "velocity": 0.7480314960629921,
          "duration": 1.9200000000000017
        },
        {
          "name": "B4",
          "midi": 71,
          "time": 88.32000000000029,
          "velocity": 0.7480314960629921,
          "duration": 1.9200000000000017
        },
        {
          "name": "B4",
          "midi": 71,
          "time": 90.2400000000003,
          "velocity": 0.7480314960629921,
          "duration": 1.9200000000000017
        },
        {
          "name": "D#5",
          "midi": 75,
          "time": 90.2400000000003,
          "velocity": 0.7480314960629921,
          "duration": 1.9200000000000017
        },
        {
          "name": "G#4",
          "midi": 68,
          "time": 90.2400000000003,
          "velocity": 0.7480314960629921,
          "duration": 1.9200000000000017
        },
        {
          "name": "D#5",
          "midi": 75,
          "time": 92.1600000000003,
          "velocity": 0.7480314960629921,
          "duration": 1.9200000000000017
        },
        {
          "name": "G#4",
          "midi": 68,
          "time": 92.1600000000003,
          "velocity": 0.7480314960629921,
          "duration": 1.9200000000000017
        },
        {
          "name": "B4",
          "midi": 71,
          "time": 92.1600000000003,
          "velocity": 0.7480314960629921,
          "duration": 1.9200000000000017
        },
        {
          "name": "G#4",
          "midi": 68,
          "time": 94.0800000000003,
          "velocity": 0.7480314960629921,
          "duration": 1.9200000000000017
        },
        {
          "name": "D#5",
          "midi": 75,
          "time": 94.0800000000003,
          "velocity": 0.7480314960629921,
          "duration": 1.9200000000000017
        },
        {
          "name": "B4",
          "midi": 71,
          "time": 94.0800000000003,
          "velocity": 0.7480314960629921,
          "duration": 1.9200000000000017
        },
        {
          "name": "D#5",
          "midi": 75,
          "time": 96.0000000000003,
          "velocity": 0.7480314960629921,
          "duration": 1.9200000000000017
        },
        {
          "name": "F#4",
          "midi": 66,
          "time": 96.0000000000003,
          "velocity": 0.7480314960629921,
          "duration": 1.9200000000000017
        },
        {
          "name": "B4",
          "midi": 71,
          "time": 96.0000000000003,
          "velocity": 0.7480314960629921,
          "duration": 1.9200000000000017
        },
        {
          "name": "D#5",
          "midi": 75,
          "time": 97.9200000000003,
          "velocity": 0.7480314960629921,
          "duration": 1.9200000000000017
        },
        {
          "name": "A#4",
          "midi": 70,
          "time": 97.9200000000003,
          "velocity": 0.7480314960629921,
          "duration": 1.9200000000000017
        },
        {
          "name": "F#4",
          "midi": 66,
          "time": 97.9200000000003,
          "velocity": 0.7480314960629921,
          "duration": 1.9200000000000017
        },
        {
          "name": "G#4",
          "midi": 68,
          "time": 126.71999999999916,
          "velocity": 0.7480314960629921,
          "duration": 1.9200000000000017
        },
        {
          "name": "E4",
          "midi": 64,
          "time": 126.71999999999916,
          "velocity": 0.7480314960629921,
          "duration": 1.9200000000000017
        },
        {
          "name": "B4",
          "midi": 71,
          "time": 126.71999999999916,
          "velocity": 0.7480314960629921,
          "duration": 1.9200000000000017
        },
        {
          "name": "G#4",
          "midi": 68,
          "time": 128.63999999999916,
          "velocity": 0.7480314960629921,
          "duration": 1.9199999999999875
        },
        {
          "name": "E4",
          "midi": 64,
          "time": 128.63999999999916,
          "velocity": 0.7480314960629921,
          "duration": 1.9199999999999875
        },
        {
          "name": "B4",
          "midi": 71,
          "time": 128.63999999999916,
          "velocity": 0.7480314960629921,
          "duration": 1.9199999999999875
        },
        {
          "name": "D#5",
          "midi": 75,
          "time": 130.55999999999915,
          "velocity": 0.7480314960629921,
          "duration": 1.9199999999999875
        },
        {
          "name": "G#4",
          "midi": 68,
          "time": 130.55999999999915,
          "velocity": 0.7480314960629921,
          "duration": 1.9199999999999875
        },
        {
          "name": "B4",
          "midi": 71,
          "time": 130.55999999999915,
          "velocity": 0.7480314960629921,
          "duration": 1.9199999999999875
        },
        {
          "name": "B4",
          "midi": 71,
          "time": 132.47999999999914,
          "velocity": 0.7480314960629921,
          "duration": 1.9199999999999875
        },
        {
          "name": "D#5",
          "midi": 75,
          "time": 132.47999999999914,
          "velocity": 0.7480314960629921,
          "duration": 1.9199999999999875
        },
        {
          "name": "G#4",
          "midi": 68,
          "time": 132.47999999999914,
          "velocity": 0.7480314960629921,
          "duration": 1.9199999999999875
        }
      ],
      "controlChanges": {
        "6": [
          {
            "number": 6,
            "time": 0,
            "value": 0.09448818897637795
          },
          {
            "number": 6,
            "time": 0,
            "value": 0.09448818897637795
          },
          {
            "number": 6,
            "time": 140.30499999999913,
            "value": 0.09448818897637795
          },
          {
            "number": 6,
            "time": 140.30999999999912,
            "value": 0.09448818897637795
          },
          {
            "number": 6,
            "time": 140.30999999999912,
            "value": 0.09448818897637795
          }
        ],
        "7": [
          {
            "number": 7,
            "time": 0,
            "value": 0.7480314960629921
          },
          {
            "number": 7,
            "time": 0,
            "value": 0.7480314960629921
          },
          {
            "number": 7,
            "time": 0,
            "value": 0.7480314960629921
          },
          {
            "number": 7,
            "time": 6.635,
            "value": 0
          },
          {
            "number": 7,
            "time": 7.26,
            "value": 0
          },
          {
            "number": 7,
            "time": 7.265,
            "value": 0
          },
          {
            "number": 7,
            "time": 7.27,
            "value": 0
          },
          {
            "number": 7,
            "time": 7.2749999999999995,
            "value": 0
          },
          {
            "number": 7,
            "time": 7.279999999999999,
            "value": 0.007874015748031496
          },
          {
            "number": 7,
            "time": 7.284999999999999,
            "value": 0.007874015748031496
          },
          {
            "number": 7,
            "time": 7.289999999999999,
            "value": 0.007874015748031496
          },
          {
            "number": 7,
            "time": 7.294999999999999,
            "value": 0.007874015748031496
          },
          {
            "number": 7,
            "time": 7.299999999999999,
            "value": 0.007874015748031496
          },
          {
            "number": 7,
            "time": 7.304999999999999,
            "value": 0.015748031496062992
          },
          {
            "number": 7,
            "time": 7.309999999999999,
            "value": 0.015748031496062992
          },
          {
            "number": 7,
            "time": 7.314999999999999,
            "value": 0.015748031496062992
          },
          {
            "number": 7,
            "time": 7.3199999999999985,
            "value": 0.015748031496062992
          },
          {
            "number": 7,
            "time": 7.324999999999998,
            "value": 0.015748031496062992
          },
          {
            "number": 7,
            "time": 7.329999999999998,
            "value": 0.023622047244094488
          },
          {
            "number": 7,
            "time": 7.334999999999998,
            "value": 0.023622047244094488
          },
          {
            "number": 7,
            "time": 7.339999999999998,
            "value": 0.023622047244094488
          },
          {
            "number": 7,
            "time": 7.344999999999998,
            "value": 0.023622047244094488
          },
          {
            "number": 7,
            "time": 7.349999999999998,
            "value": 0.023622047244094488
          },
          {
            "number": 7,
            "time": 7.354999999999998,
            "value": 0.031496062992125984
          },
          {
            "number": 7,
            "time": 7.359999999999998,
            "value": 0.031496062992125984
          },
          {
            "number": 7,
            "time": 7.3649999999999975,
            "value": 0.031496062992125984
          },
          {
            "number": 7,
            "time": 7.369999999999997,
            "value": 0.031496062992125984
          },
          {
            "number": 7,
            "time": 7.374999999999997,
            "value": 0.031496062992125984
          },
          {
            "number": 7,
            "time": 7.379999999999997,
            "value": 0.03937007874015748
          },
          {
            "number": 7,
            "time": 7.384999999999997,
            "value": 0.03937007874015748
          },
          {
            "number": 7,
            "time": 7.389999999999997,
            "value": 0.03937007874015748
          },
          {
            "number": 7,
            "time": 7.394999999999997,
            "value": 0.03937007874015748
          },
          {
            "number": 7,
            "time": 7.399999999999997,
            "value": 0.03937007874015748
          },
          {
            "number": 7,
            "time": 7.404999999999997,
            "value": 0.047244094488188976
          },
          {
            "number": 7,
            "time": 7.409999999999997,
            "value": 0.047244094488188976
          },
          {
            "number": 7,
            "time": 7.4149999999999965,
            "value": 0.047244094488188976
          },
          {
            "number": 7,
            "time": 7.419999999999996,
            "value": 0.047244094488188976
          },
          {
            "number": 7,
            "time": 7.424999999999996,
            "value": 0.05511811023622047
          },
          {
            "number": 7,
            "time": 7.429999999999996,
            "value": 0.05511811023622047
          },
          {
            "number": 7,
            "time": 7.434999999999996,
            "value": 0.05511811023622047
          },
          {
            "number": 7,
            "time": 7.439999999999996,
            "value": 0.05511811023622047
          },
          {
            "number": 7,
            "time": 7.444999999999996,
            "value": 0.05511811023622047
          },
          {
            "number": 7,
            "time": 7.449999999999996,
            "value": 0.06299212598425197
          },
          {
            "number": 7,
            "time": 7.454999999999996,
            "value": 0.06299212598425197
          },
          {
            "number": 7,
            "time": 7.4599999999999955,
            "value": 0.06299212598425197
          },
          {
            "number": 7,
            "time": 7.464999999999995,
            "value": 0.06299212598425197
          },
          {
            "number": 7,
            "time": 7.469999999999995,
            "value": 0.06299212598425197
          },
          {
            "number": 7,
            "time": 7.474999999999995,
            "value": 0.07086614173228346
          },
          {
            "number": 7,
            "time": 7.479999999999995,
            "value": 0.07086614173228346
          },
          {
            "number": 7,
            "time": 7.484999999999995,
            "value": 0.07086614173228346
          },
          {
            "number": 7,
            "time": 7.489999999999995,
            "value": 0.07086614173228346
          },
          {
            "number": 7,
            "time": 7.494999999999995,
            "value": 0.07086614173228346
          },
          {
            "number": 7,
            "time": 7.499999999999995,
            "value": 0.07874015748031496
          },
          {
            "number": 7,
            "time": 7.504999999999995,
            "value": 0.07874015748031496
          },
          {
            "number": 7,
            "time": 7.5099999999999945,
            "value": 0.07874015748031496
          },
          {
            "number": 7,
            "time": 7.514999999999994,
            "value": 0.07874015748031496
          },
          {
            "number": 7,
            "time": 7.519999999999994,
            "value": 0.07874015748031496
          },
          {
            "number": 7,
            "time": 7.524999999999994,
            "value": 0.08661417322834646
          },
          {
            "number": 7,
            "time": 7.529999999999994,
            "value": 0.08661417322834646
          },
          {
            "number": 7,
            "time": 7.534999999999994,
            "value": 0.08661417322834646
          },
          {
            "number": 7,
            "time": 7.539999999999994,
            "value": 0.08661417322834646
          },
          {
            "number": 7,
            "time": 7.544999999999994,
            "value": 0.08661417322834646
          },
          {
            "number": 7,
            "time": 7.549999999999994,
            "value": 0.09448818897637795
          },
          {
            "number": 7,
            "time": 7.5549999999999935,
            "value": 0.09448818897637795
          },
          {
            "number": 7,
            "time": 7.559999999999993,
            "value": 0.09448818897637795
          },
          {
            "number": 7,
            "time": 7.564999999999993,
            "value": 0.09448818897637795
          },
          {
            "number": 7,
            "time": 7.569999999999993,
            "value": 0.09448818897637795
          },
          {
            "number": 7,
            "time": 7.574999999999993,
            "value": 0.10236220472440945
          },
          {
            "number": 7,
            "time": 7.579999999999993,
            "value": 0.10236220472440945
          },
          {
            "number": 7,
            "time": 7.584999999999993,
            "value": 0.10236220472440945
          },
          {
            "number": 7,
            "time": 7.589999999999993,
            "value": 0.10236220472440945
          },
          {
            "number": 7,
            "time": 7.594999999999993,
            "value": 0.11023622047244094
          },
          {
            "number": 7,
            "time": 7.5999999999999925,
            "value": 0.11023622047244094
          },
          {
            "number": 7,
            "time": 7.604999999999992,
            "value": 0.11023622047244094
          },
          {
            "number": 7,
            "time": 7.609999999999992,
            "value": 0.11023622047244094
          },
          {
            "number": 7,
            "time": 7.614999999999992,
            "value": 0.11023622047244094
          },
          {
            "number": 7,
            "time": 7.619999999999992,
            "value": 0.11811023622047244
          },
          {
            "number": 7,
            "time": 7.624999999999992,
            "value": 0.11811023622047244
          },
          {
            "number": 7,
            "time": 7.629999999999992,
            "value": 0.11811023622047244
          },
          {
            "number": 7,
            "time": 7.634999999999992,
            "value": 0.11811023622047244
          },
          {
            "number": 7,
            "time": 7.639999999999992,
            "value": 0.11811023622047244
          },
          {
            "number": 7,
            "time": 7.644999999999992,
            "value": 0.12598425196850394
          },
          {
            "number": 7,
            "time": 7.6499999999999915,
            "value": 0.12598425196850394
          },
          {
            "number": 7,
            "time": 7.654999999999991,
            "value": 0.12598425196850394
          },
          {
            "number": 7,
            "time": 7.659999999999991,
            "value": 0.12598425196850394
          },
          {
            "number": 7,
            "time": 7.664999999999991,
            "value": 0.12598425196850394
          },
          {
            "number": 7,
            "time": 7.669999999999991,
            "value": 0.13385826771653545
          },
          {
            "number": 7,
            "time": 7.674999999999991,
            "value": 0.13385826771653545
          },
          {
            "number": 7,
            "time": 7.679999999999991,
            "value": 0.13385826771653545
          },
          {
            "number": 7,
            "time": 7.679999999999991,
            "value": 0.13385826771653545
          },
          {
            "number": 7,
            "time": 7.684999999999991,
            "value": 0.13385826771653545
          },
          {
            "number": 7,
            "time": 7.689999999999991,
            "value": 0.13385826771653545
          },
          {
            "number": 7,
            "time": 7.6949999999999905,
            "value": 0.14173228346456693
          },
          {
            "number": 7,
            "time": 7.69999999999999,
            "value": 0.14173228346456693
          },
          {
            "number": 7,
            "time": 7.70499999999999,
            "value": 0.14173228346456693
          },
          {
            "number": 7,
            "time": 7.70999999999999,
            "value": 0.14173228346456693
          },
          {
            "number": 7,
            "time": 7.71499999999999,
            "value": 0.14173228346456693
          },
          {
            "number": 7,
            "time": 7.71999999999999,
            "value": 0.14960629921259844
          },
          {
            "number": 7,
            "time": 7.72499999999999,
            "value": 0.14960629921259844
          },
          {
            "number": 7,
            "time": 7.72999999999999,
            "value": 0.14960629921259844
          },
          {
            "number": 7,
            "time": 7.73499999999999,
            "value": 0.14960629921259844
          },
          {
            "number": 7,
            "time": 7.7399999999999896,
            "value": 0.15748031496062992
          },
          {
            "number": 7,
            "time": 7.7449999999999894,
            "value": 0.15748031496062992
          },
          {
            "number": 7,
            "time": 7.749999999999989,
            "value": 0.15748031496062992
          },
          {
            "number": 7,
            "time": 7.754999999999989,
            "value": 0.15748031496062992
          },
          {
            "number": 7,
            "time": 7.759999999999989,
            "value": 0.15748031496062992
          },
          {
            "number": 7,
            "time": 7.764999999999989,
            "value": 0.16535433070866143
          },
          {
            "number": 7,
            "time": 7.769999999999989,
            "value": 0.16535433070866143
          },
          {
            "number": 7,
            "time": 7.774999999999989,
            "value": 0.16535433070866143
          },
          {
            "number": 7,
            "time": 7.779999999999989,
            "value": 0.16535433070866143
          },
          {
            "number": 7,
            "time": 7.784999999999989,
            "value": 0.16535433070866143
          },
          {
            "number": 7,
            "time": 7.7899999999999885,
            "value": 0.1732283464566929
          },
          {
            "number": 7,
            "time": 7.794999999999988,
            "value": 0.1732283464566929
          },
          {
            "number": 7,
            "time": 7.799999999999988,
            "value": 0.1732283464566929
          },
          {
            "number": 7,
            "time": 7.804999999999988,
            "value": 0.1732283464566929
          },
          {
            "number": 7,
            "time": 7.809999999999988,
            "value": 0.1732283464566929
          },
          {
            "number": 7,
            "time": 7.814999999999988,
            "value": 0.18110236220472442
          },
          {
            "number": 7,
            "time": 7.819999999999988,
            "value": 0.18110236220472442
          },
          {
            "number": 7,
            "time": 7.824999999999988,
            "value": 0.18110236220472442
          },
          {
            "number": 7,
            "time": 7.829999999999988,
            "value": 0.18110236220472442
          },
          {
            "number": 7,
            "time": 7.8349999999999875,
            "value": 0.18110236220472442
          },
          {
            "number": 7,
            "time": 7.839999999999987,
            "value": 0.1889763779527559
          },
          {
            "number": 7,
            "time": 7.844999999999987,
            "value": 0.1889763779527559
          },
          {
            "number": 7,
            "time": 7.849999999999987,
            "value": 0.1889763779527559
          },
          {
            "number": 7,
            "time": 7.854999999999987,
            "value": 0.1889763779527559
          },
          {
            "number": 7,
            "time": 7.859999999999987,
            "value": 0.1889763779527559
          },
          {
            "number": 7,
            "time": 7.864999999999987,
            "value": 0.1968503937007874
          },
          {
            "number": 7,
            "time": 7.869999999999987,
            "value": 0.1968503937007874
          },
          {
            "number": 7,
            "time": 7.874999999999987,
            "value": 0.1968503937007874
          },
          {
            "number": 7,
            "time": 7.879999999999987,
            "value": 0.1968503937007874
          },
          {
            "number": 7,
            "time": 7.8849999999999865,
            "value": 0.1968503937007874
          },
          {
            "number": 7,
            "time": 7.889999999999986,
            "value": 0.2047244094488189
          },
          {
            "number": 7,
            "time": 7.894999999999986,
            "value": 0.2047244094488189
          },
          {
            "number": 7,
            "time": 7.899999999999986,
            "value": 0.2047244094488189
          },
          {
            "number": 7,
            "time": 7.904999999999986,
            "value": 0.2047244094488189
          },
          {
            "number": 7,
            "time": 7.909999999999986,
            "value": 0.2125984251968504
          },
          {
            "number": 7,
            "time": 7.914999999999986,
            "value": 0.2125984251968504
          },
          {
            "number": 7,
            "time": 7.919999999999986,
            "value": 0.2125984251968504
          },
          {
            "number": 7,
            "time": 7.924999999999986,
            "value": 0.2125984251968504
          },
          {
            "number": 7,
            "time": 7.9299999999999855,
            "value": 0.2125984251968504
          },
          {
            "number": 7,
            "time": 7.934999999999985,
            "value": 0.2204724409448819
          },
          {
            "number": 7,
            "time": 7.939999999999985,
            "value": 0.2204724409448819
          },
          {
            "number": 7,
            "time": 7.944999999999985,
            "value": 0.2204724409448819
          },
          {
            "number": 7,
            "time": 7.949999999999985,
            "value": 0.2204724409448819
          },
          {
            "number": 7,
            "time": 7.954999999999985,
            "value": 0.2204724409448819
          },
          {
            "number": 7,
            "time": 7.959999999999985,
            "value": 0.2283464566929134
          },
          {
            "number": 7,
            "time": 7.964999999999985,
            "value": 0.2283464566929134
          },
          {
            "number": 7,
            "time": 7.969999999999985,
            "value": 0.2283464566929134
          },
          {
            "number": 7,
            "time": 7.9749999999999845,
            "value": 0.2283464566929134
          },
          {
            "number": 7,
            "time": 7.979999999999984,
            "value": 0.2283464566929134
          },
          {
            "number": 7,
            "time": 7.984999999999984,
            "value": 0.23622047244094488
          },
          {
            "number": 7,
            "time": 7.989999999999984,
            "value": 0.23622047244094488
          },
          {
            "number": 7,
            "time": 7.994999999999984,
            "value": 0.23622047244094488
          },
          {
            "number": 7,
            "time": 7.999999999999984,
            "value": 0.23622047244094488
          },
          {
            "number": 7,
            "time": 8.004999999999985,
            "value": 0.23622047244094488
          },
          {
            "number": 7,
            "time": 8.009999999999986,
            "value": 0.2440944881889764
          },
          {
            "number": 7,
            "time": 8.014999999999986,
            "value": 0.2440944881889764
          },
          {
            "number": 7,
            "time": 8.019999999999987,
            "value": 0.2440944881889764
          },
          {
            "number": 7,
            "time": 8.024999999999988,
            "value": 0.2440944881889764
          },
          {
            "number": 7,
            "time": 8.029999999999989,
            "value": 0.2440944881889764
          },
          {
            "number": 7,
            "time": 8.03499999999999,
            "value": 0.25196850393700787
          },
          {
            "number": 7,
            "time": 8.03999999999999,
            "value": 0.25196850393700787
          },
          {
            "number": 7,
            "time": 8.044999999999991,
            "value": 0.25196850393700787
          },
          {
            "number": 7,
            "time": 8.049999999999992,
            "value": 0.25196850393700787
          },
          {
            "number": 7,
            "time": 8.054999999999993,
            "value": 0.25984251968503935
          },
          {
            "number": 7,
            "time": 8.059999999999993,
            "value": 0.25984251968503935
          },
          {
            "number": 7,
            "time": 8.064999999999994,
            "value": 0.25984251968503935
          },
          {
            "number": 7,
            "time": 8.069999999999995,
            "value": 0.25984251968503935
          },
          {
            "number": 7,
            "time": 8.074999999999996,
            "value": 0.25984251968503935
          },
          {
            "number": 7,
            "time": 8.079999999999997,
            "value": 0.2677165354330709
          },
          {
            "number": 7,
            "time": 8.084999999999997,
            "value": 0.2677165354330709
          },
          {
            "number": 7,
            "time": 8.089999999999998,
            "value": 0.2677165354330709
          },
          {
            "number": 7,
            "time": 8.094999999999999,
            "value": 0.2677165354330709
          },
          {
            "number": 7,
            "time": 8.1,
            "value": 0.2677165354330709
          },
          {
            "number": 7,
            "time": 8.105,
            "value": 0.2755905511811024
          },
          {
            "number": 7,
            "time": 8.110000000000001,
            "value": 0.2755905511811024
          },
          {
            "number": 7,
            "time": 8.115000000000002,
            "value": 0.2755905511811024
          },
          {
            "number": 7,
            "time": 8.120000000000003,
            "value": 0.2755905511811024
          },
          {
            "number": 7,
            "time": 8.125000000000004,
            "value": 0.2755905511811024
          },
          {
            "number": 7,
            "time": 8.130000000000004,
            "value": 0.28346456692913385
          },
          {
            "number": 7,
            "time": 8.135000000000005,
            "value": 0.28346456692913385
          },
          {
            "number": 7,
            "time": 8.140000000000006,
            "value": 0.28346456692913385
          },
          {
            "number": 7,
            "time": 8.145000000000007,
            "value": 0.28346456692913385
          },
          {
            "number": 7,
            "time": 8.150000000000007,
            "value": 0.28346456692913385
          },
          {
            "number": 7,
            "time": 8.155000000000008,
            "value": 0.29133858267716534
          },
          {
            "number": 7,
            "time": 8.160000000000009,
            "value": 0.29133858267716534
          },
          {
            "number": 7,
            "time": 8.16500000000001,
            "value": 0.29133858267716534
          },
          {
            "number": 7,
            "time": 8.17000000000001,
            "value": 0.29133858267716534
          },
          {
            "number": 7,
            "time": 8.175000000000011,
            "value": 0.29133858267716534
          },
          {
            "number": 7,
            "time": 8.180000000000012,
            "value": 0.2992125984251969
          },
          {
            "number": 7,
            "time": 8.185000000000013,
            "value": 0.2992125984251969
          },
          {
            "number": 7,
            "time": 8.190000000000014,
            "value": 0.2992125984251969
          },
          {
            "number": 7,
            "time": 8.195000000000014,
            "value": 0.2992125984251969
          },
          {
            "number": 7,
            "time": 8.200000000000015,
            "value": 0.2992125984251969
          },
          {
            "number": 7,
            "time": 8.205000000000016,
            "value": 0.30708661417322836
          },
          {
            "number": 7,
            "time": 8.210000000000017,
            "value": 0.30708661417322836
          },
          {
            "number": 7,
            "time": 8.215000000000018,
            "value": 0.30708661417322836
          },
          {
            "number": 7,
            "time": 8.220000000000018,
            "value": 0.30708661417322836
          },
          {
            "number": 7,
            "time": 8.22500000000002,
            "value": 0.31496062992125984
          },
          {
            "number": 7,
            "time": 8.23000000000002,
            "value": 0.31496062992125984
          },
          {
            "number": 7,
            "time": 8.23500000000002,
            "value": 0.31496062992125984
          },
          {
            "number": 7,
            "time": 8.240000000000022,
            "value": 0.31496062992125984
          },
          {
            "number": 7,
            "time": 8.245000000000022,
            "value": 0.31496062992125984
          },
          {
            "number": 7,
            "time": 8.250000000000023,
            "value": 0.3228346456692913
          },
          {
            "number": 7,
            "time": 8.255000000000024,
            "value": 0.3228346456692913
          },
          {
            "number": 7,
            "time": 8.260000000000025,
            "value": 0.3228346456692913
          },
          {
            "number": 7,
            "time": 8.265000000000025,
            "value": 0.3228346456692913
          },
          {
            "number": 7,
            "time": 8.270000000000026,
            "value": 0.3228346456692913
          },
          {
            "number": 7,
            "time": 8.275000000000027,
            "value": 0.33070866141732286
          },
          {
            "number": 7,
            "time": 8.280000000000028,
            "value": 0.33070866141732286
          },
          {
            "number": 7,
            "time": 8.285000000000029,
            "value": 0.33070866141732286
          },
          {
            "number": 7,
            "time": 8.29000000000003,
            "value": 0.33070866141732286
          },
          {
            "number": 7,
            "time": 8.29500000000003,
            "value": 0.33070866141732286
          },
          {
            "number": 7,
            "time": 8.300000000000031,
            "value": 0.33858267716535434
          },
          {
            "number": 7,
            "time": 8.305000000000032,
            "value": 0.33858267716535434
          },
          {
            "number": 7,
            "time": 8.310000000000032,
            "value": 0.33858267716535434
          },
          {
            "number": 7,
            "time": 8.315000000000033,
            "value": 0.33858267716535434
          },
          {
            "number": 7,
            "time": 8.320000000000034,
            "value": 0.33858267716535434
          },
          {
            "number": 7,
            "time": 8.325000000000035,
            "value": 0.3464566929133858
          },
          {
            "number": 7,
            "time": 8.330000000000036,
            "value": 0.3464566929133858
          },
          {
            "number": 7,
            "time": 8.335000000000036,
            "value": 0.3464566929133858
          },
          {
            "number": 7,
            "time": 8.340000000000037,
            "value": 0.3464566929133858
          },
          {
            "number": 7,
            "time": 8.345000000000038,
            "value": 0.3464566929133858
          },
          {
            "number": 7,
            "time": 8.350000000000039,
            "value": 0.3543307086614173
          },
          {
            "number": 7,
            "time": 8.35500000000004,
            "value": 0.3543307086614173
          },
          {
            "number": 7,
            "time": 8.36000000000004,
            "value": 0.3543307086614173
          },
          {
            "number": 7,
            "time": 8.365000000000041,
            "value": 0.3543307086614173
          },
          {
            "number": 7,
            "time": 8.370000000000042,
            "value": 0.36220472440944884
          },
          {
            "number": 7,
            "time": 8.375000000000043,
            "value": 0.36220472440944884
          },
          {
            "number": 7,
            "time": 8.380000000000043,
            "value": 0.36220472440944884
          },
          {
            "number": 7,
            "time": 8.385000000000044,
            "value": 0.36220472440944884
          },
          {
            "number": 7,
            "time": 8.390000000000045,
            "value": 0.36220472440944884
          },
          {
            "number": 7,
            "time": 8.395000000000046,
            "value": 0.3700787401574803
          },
          {
            "number": 7,
            "time": 8.400000000000047,
            "value": 0.3700787401574803
          },
          {
            "number": 7,
            "time": 8.405000000000047,
            "value": 0.3700787401574803
          },
          {
            "number": 7,
            "time": 8.410000000000048,
            "value": 0.3700787401574803
          },
          {
            "number": 7,
            "time": 8.415000000000049,
            "value": 0.3700787401574803
          },
          {
            "number": 7,
            "time": 8.42000000000005,
            "value": 0.3779527559055118
          },
          {
            "number": 7,
            "time": 8.42500000000005,
            "value": 0.3779527559055118
          },
          {
            "number": 7,
            "time": 8.430000000000051,
            "value": 0.3779527559055118
          },
          {
            "number": 7,
            "time": 8.435000000000052,
            "value": 0.3779527559055118
          },
          {
            "number": 7,
            "time": 8.440000000000053,
            "value": 0.3779527559055118
          },
          {
            "number": 7,
            "time": 8.445000000000054,
            "value": 0.3858267716535433
          },
          {
            "number": 7,
            "time": 8.450000000000054,
            "value": 0.3858267716535433
          },
          {
            "number": 7,
            "time": 8.455000000000055,
            "value": 0.3858267716535433
          },
          {
            "number": 7,
            "time": 8.460000000000056,
            "value": 0.3858267716535433
          },
          {
            "number": 7,
            "time": 8.465000000000057,
            "value": 0.3858267716535433
          },
          {
            "number": 7,
            "time": 8.470000000000057,
            "value": 0.3937007874015748
          },
          {
            "number": 7,
            "time": 8.475000000000058,
            "value": 0.3937007874015748
          },
          {
            "number": 7,
            "time": 8.480000000000059,
            "value": 0.3937007874015748
          },
          {
            "number": 7,
            "time": 8.48500000000006,
            "value": 0.3937007874015748
          },
          {
            "number": 7,
            "time": 8.49000000000006,
            "value": 0.3937007874015748
          },
          {
            "number": 7,
            "time": 8.495000000000061,
            "value": 0.4015748031496063
          },
          {
            "number": 7,
            "time": 8.500000000000062,
            "value": 0.4015748031496063
          },
          {
            "number": 7,
            "time": 8.505000000000063,
            "value": 0.4015748031496063
          },
          {
            "number": 7,
            "time": 8.510000000000064,
            "value": 0.4015748031496063
          },
          {
            "number": 7,
            "time": 8.515000000000065,
            "value": 0.4015748031496063
          },
          {
            "number": 7,
            "time": 8.520000000000065,
            "value": 0.4094488188976378
          },
          {
            "number": 7,
            "time": 8.525000000000066,
            "value": 0.4094488188976378
          },
          {
            "number": 7,
            "time": 8.530000000000067,
            "value": 0.4094488188976378
          },
          {
            "number": 7,
            "time": 8.535000000000068,
            "value": 0.4094488188976378
          },
          {
            "number": 7,
            "time": 8.540000000000068,
            "value": 0.41732283464566927
          },
          {
            "number": 7,
            "time": 8.54500000000007,
            "value": 0.41732283464566927
          },
          {
            "number": 7,
            "time": 8.55000000000007,
            "value": 0.41732283464566927
          },
          {
            "number": 7,
            "time": 8.55500000000007,
            "value": 0.41732283464566927
          },
          {
            "number": 7,
            "time": 8.560000000000072,
            "value": 0.41732283464566927
          },
          {
            "number": 7,
            "time": 8.565000000000072,
            "value": 0.4251968503937008
          },
          {
            "number": 7,
            "time": 8.570000000000073,
            "value": 0.4251968503937008
          },
          {
            "number": 7,
            "time": 8.575000000000074,
            "value": 0.4251968503937008
          },
          {
            "number": 7,
            "time": 8.580000000000075,
            "value": 0.4251968503937008
          },
          {
            "number": 7,
            "time": 8.585000000000075,
            "value": 0.4251968503937008
          },
          {
            "number": 7,
            "time": 8.590000000000076,
            "value": 0.4330708661417323
          },
          {
            "number": 7,
            "time": 8.595000000000077,
            "value": 0.4330708661417323
          },
          {
            "number": 7,
            "time": 8.600000000000078,
            "value": 0.4330708661417323
          },
          {
            "number": 7,
            "time": 8.605000000000079,
            "value": 0.4330708661417323
          },
          {
            "number": 7,
            "time": 8.61000000000008,
            "value": 0.4330708661417323
          },
          {
            "number": 7,
            "time": 8.61500000000008,
            "value": 0.4409448818897638
          },
          {
            "number": 7,
            "time": 8.620000000000081,
            "value": 0.4409448818897638
          },
          {
            "number": 7,
            "time": 8.625000000000082,
            "value": 0.4409448818897638
          },
          {
            "number": 7,
            "time": 8.630000000000082,
            "value": 0.4409448818897638
          },
          {
            "number": 7,
            "time": 8.635000000000083,
            "value": 0.4409448818897638
          },
          {
            "number": 7,
            "time": 8.640000000000084,
            "value": 0.44881889763779526
          },
          {
            "number": 7,
            "time": 8.645000000000085,
            "value": 0.44881889763779526
          },
          {
            "number": 7,
            "time": 8.650000000000086,
            "value": 0.44881889763779526
          },
          {
            "number": 7,
            "time": 8.655000000000086,
            "value": 0.44881889763779526
          },
          {
            "number": 7,
            "time": 8.660000000000087,
            "value": 0.44881889763779526
          },
          {
            "number": 7,
            "time": 8.665000000000088,
            "value": 0.4566929133858268
          },
          {
            "number": 7,
            "time": 8.670000000000089,
            "value": 0.4566929133858268
          },
          {
            "number": 7,
            "time": 8.67500000000009,
            "value": 0.4566929133858268
          },
          {
            "number": 7,
            "time": 8.68000000000009,
            "value": 0.4566929133858268
          },
          {
            "number": 7,
            "time": 8.685000000000091,
            "value": 0.4566929133858268
          },
          {
            "number": 7,
            "time": 8.690000000000092,
            "value": 0.4645669291338583
          },
          {
            "number": 7,
            "time": 8.695000000000093,
            "value": 0.4645669291338583
          },
          {
            "number": 7,
            "time": 8.700000000000093,
            "value": 0.4645669291338583
          },
          {
            "number": 7,
            "time": 8.705000000000094,
            "value": 0.4645669291338583
          },
          {
            "number": 7,
            "time": 8.710000000000095,
            "value": 0.47244094488188976
          },
          {
            "number": 7,
            "time": 8.715000000000096,
            "value": 0.47244094488188976
          },
          {
            "number": 7,
            "time": 8.720000000000097,
            "value": 0.47244094488188976
          },
          {
            "number": 7,
            "time": 8.725000000000097,
            "value": 0.47244094488188976
          },
          {
            "number": 7,
            "time": 8.730000000000098,
            "value": 0.47244094488188976
          },
          {
            "number": 7,
            "time": 8.735000000000099,
            "value": 0.48031496062992124
          },
          {
            "number": 7,
            "time": 8.7400000000001,
            "value": 0.48031496062992124
          },
          {
            "number": 7,
            "time": 8.7450000000001,
            "value": 0.48031496062992124
          },
          {
            "number": 7,
            "time": 8.750000000000101,
            "value": 0.48031496062992124
          },
          {
            "number": 7,
            "time": 8.755000000000102,
            "value": 0.48031496062992124
          },
          {
            "number": 7,
            "time": 8.760000000000103,
            "value": 0.4881889763779528
          },
          {
            "number": 7,
            "time": 8.765000000000104,
            "value": 0.4881889763779528
          },
          {
            "number": 7,
            "time": 8.770000000000104,
            "value": 0.4881889763779528
          },
          {
            "number": 7,
            "time": 8.775000000000105,
            "value": 0.4881889763779528
          },
          {
            "number": 7,
            "time": 8.780000000000106,
            "value": 0.4881889763779528
          },
          {
            "number": 7,
            "time": 8.785000000000107,
            "value": 0.49606299212598426
          },
          {
            "number": 7,
            "time": 8.790000000000108,
            "value": 0.49606299212598426
          },
          {
            "number": 7,
            "time": 8.795000000000108,
            "value": 0.49606299212598426
          },
          {
            "number": 7,
            "time": 8.800000000000109,
            "value": 0.49606299212598426
          },
          {
            "number": 7,
            "time": 8.80500000000011,
            "value": 0.49606299212598426
          },
          {
            "number": 7,
            "time": 8.81000000000011,
            "value": 0.5039370078740157
          },
          {
            "number": 7,
            "time": 8.815000000000111,
            "value": 0.5039370078740157
          },
          {
            "number": 7,
            "time": 8.820000000000112,
            "value": 0.5039370078740157
          },
          {
            "number": 7,
            "time": 8.825000000000113,
            "value": 0.5039370078740157
          },
          {
            "number": 7,
            "time": 8.830000000000114,
            "value": 0.5039370078740157
          },
          {
            "number": 7,
            "time": 8.835000000000115,
            "value": 0.5118110236220472
          },
          {
            "number": 7,
            "time": 8.840000000000115,
            "value": 0.5118110236220472
          },
          {
            "number": 7,
            "time": 8.845000000000116,
            "value": 0.5118110236220472
          },
          {
            "number": 7,
            "time": 8.850000000000117,
            "value": 0.5118110236220472
          },
          {
            "number": 7,
            "time": 8.855000000000118,
            "value": 0.5196850393700787
          },
          {
            "number": 7,
            "time": 8.860000000000118,
            "value": 0.5196850393700787
          },
          {
            "number": 7,
            "time": 8.86500000000012,
            "value": 0.5196850393700787
          },
          {
            "number": 7,
            "time": 8.87000000000012,
            "value": 0.5196850393700787
          },
          {
            "number": 7,
            "time": 8.87500000000012,
            "value": 0.5196850393700787
          },
          {
            "number": 7,
            "time": 8.880000000000122,
            "value": 0.5275590551181102
          },
          {
            "number": 7,
            "time": 8.885000000000122,
            "value": 0.5275590551181102
          },
          {
            "number": 7,
            "time": 8.890000000000123,
            "value": 0.5275590551181102
          },
          {
            "number": 7,
            "time": 8.895000000000124,
            "value": 0.5275590551181102
          },
          {
            "number": 7,
            "time": 8.900000000000125,
            "value": 0.5275590551181102
          },
          {
            "number": 7,
            "time": 8.905000000000125,
            "value": 0.5354330708661418
          },
          {
            "number": 7,
            "time": 8.910000000000126,
            "value": 0.5354330708661418
          },
          {
            "number": 7,
            "time": 8.915000000000127,
            "value": 0.5354330708661418
          },
          {
            "number": 7,
            "time": 8.920000000000128,
            "value": 0.5354330708661418
          },
          {
            "number": 7,
            "time": 8.925000000000129,
            "value": 0.5354330708661418
          },
          {
            "number": 7,
            "time": 8.93000000000013,
            "value": 0.5433070866141733
          },
          {
            "number": 7,
            "time": 8.93500000000013,
            "value": 0.5433070866141733
          },
          {
            "number": 7,
            "time": 8.940000000000131,
            "value": 0.5433070866141733
          },
          {
            "number": 7,
            "time": 8.945000000000132,
            "value": 0.5433070866141733
          },
          {
            "number": 7,
            "time": 8.950000000000133,
            "value": 0.5433070866141733
          },
          {
            "number": 7,
            "time": 8.955000000000133,
            "value": 0.5511811023622047
          },
          {
            "number": 7,
            "time": 8.960000000000134,
            "value": 0.5511811023622047
          },
          {
            "number": 7,
            "time": 8.965000000000135,
            "value": 0.5511811023622047
          },
          {
            "number": 7,
            "time": 8.970000000000136,
            "value": 0.5511811023622047
          },
          {
            "number": 7,
            "time": 8.975000000000136,
            "value": 0.5511811023622047
          },
          {
            "number": 7,
            "time": 8.980000000000137,
            "value": 0.5590551181102362
          },
          {
            "number": 7,
            "time": 8.985000000000138,
            "value": 0.5590551181102362
          },
          {
            "number": 7,
            "time": 8.990000000000139,
            "value": 0.5590551181102362
          },
          {
            "number": 7,
            "time": 8.99500000000014,
            "value": 0.5590551181102362
          },
          {
            "number": 7,
            "time": 9.00000000000014,
            "value": 0.5590551181102362
          },
          {
            "number": 7,
            "time": 9.005000000000141,
            "value": 0.5669291338582677
          },
          {
            "number": 7,
            "time": 9.010000000000142,
            "value": 0.5669291338582677
          },
          {
            "number": 7,
            "time": 9.015000000000143,
            "value": 0.5669291338582677
          },
          {
            "number": 7,
            "time": 9.020000000000143,
            "value": 0.5669291338582677
          },
          {
            "number": 7,
            "time": 9.025000000000144,
            "value": 0.5748031496062992
          },
          {
            "number": 7,
            "time": 9.030000000000145,
            "value": 0.5748031496062992
          },
          {
            "number": 7,
            "time": 9.035000000000146,
            "value": 0.5748031496062992
          },
          {
            "number": 7,
            "time": 9.040000000000147,
            "value": 0.5748031496062992
          },
          {
            "number": 7,
            "time": 9.045000000000147,
            "value": 0.5748031496062992
          },
          {
            "number": 7,
            "time": 9.050000000000148,
            "value": 0.5826771653543307
          },
          {
            "number": 7,
            "time": 9.055000000000149,
            "value": 0.5826771653543307
          },
          {
            "number": 7,
            "time": 9.06000000000015,
            "value": 0.5826771653543307
          },
          {
            "number": 7,
            "time": 9.06500000000015,
            "value": 0.5826771653543307
          },
          {
            "number": 7,
            "time": 9.070000000000151,
            "value": 0.5826771653543307
          },
          {
            "number": 7,
            "time": 9.075000000000152,
            "value": 0.5905511811023622
          },
          {
            "number": 7,
            "time": 9.080000000000153,
            "value": 0.5905511811023622
          },
          {
            "number": 7,
            "time": 9.085000000000154,
            "value": 0.5905511811023622
          },
          {
            "number": 7,
            "time": 9.090000000000154,
            "value": 0.5905511811023622
          },
          {
            "number": 7,
            "time": 9.095000000000155,
            "value": 0.5905511811023622
          },
          {
            "number": 7,
            "time": 9.100000000000156,
            "value": 0.5984251968503937
          },
          {
            "number": 7,
            "time": 9.105000000000157,
            "value": 0.5984251968503937
          },
          {
            "number": 7,
            "time": 9.110000000000158,
            "value": 0.5984251968503937
          },
          {
            "number": 7,
            "time": 9.115000000000158,
            "value": 0.5984251968503937
          },
          {
            "number": 7,
            "time": 9.120000000000159,
            "value": 0.5984251968503937
          },
          {
            "number": 7,
            "time": 9.12500000000016,
            "value": 0.6062992125984252
          },
          {
            "number": 7,
            "time": 9.13000000000016,
            "value": 0.6062992125984252
          },
          {
            "number": 7,
            "time": 9.135000000000161,
            "value": 0.6062992125984252
          },
          {
            "number": 7,
            "time": 9.140000000000162,
            "value": 0.6062992125984252
          },
          {
            "number": 7,
            "time": 9.145000000000163,
            "value": 0.6062992125984252
          },
          {
            "number": 7,
            "time": 9.150000000000164,
            "value": 0.6141732283464567
          },
          {
            "number": 7,
            "time": 9.155000000000165,
            "value": 0.6141732283464567
          },
          {
            "number": 7,
            "time": 9.160000000000165,
            "value": 0.6141732283464567
          },
          {
            "number": 7,
            "time": 9.165000000000166,
            "value": 0.6141732283464567
          },
          {
            "number": 7,
            "time": 9.170000000000167,
            "value": 0.6220472440944882
          },
          {
            "number": 7,
            "time": 9.175000000000168,
            "value": 0.6220472440944882
          },
          {
            "number": 7,
            "time": 9.180000000000168,
            "value": 0.6220472440944882
          },
          {
            "number": 7,
            "time": 9.18500000000017,
            "value": 0.6220472440944882
          },
          {
            "number": 7,
            "time": 9.19000000000017,
            "value": 0.6220472440944882
          },
          {
            "number": 7,
            "time": 9.19500000000017,
            "value": 0.6299212598425197
          },
          {
            "number": 7,
            "time": 9.200000000000172,
            "value": 0.6299212598425197
          },
          {
            "number": 7,
            "time": 9.205000000000172,
            "value": 0.6299212598425197
          },
          {
            "number": 7,
            "time": 9.210000000000173,
            "value": 0.6299212598425197
          },
          {
            "number": 7,
            "time": 9.215000000000174,
            "value": 0.6299212598425197
          },
          {
            "number": 7,
            "time": 9.220000000000175,
            "value": 0.6377952755905512
          },
          {
            "number": 7,
            "time": 9.225000000000176,
            "value": 0.6377952755905512
          },
          {
            "number": 7,
            "time": 9.230000000000176,
            "value": 0.6377952755905512
          },
          {
            "number": 7,
            "time": 9.235000000000177,
            "value": 0.6377952755905512
          },
          {
            "number": 7,
            "time": 9.240000000000178,
            "value": 0.6377952755905512
          },
          {
            "number": 7,
            "time": 9.245000000000179,
            "value": 0.6456692913385826
          },
          {
            "number": 7,
            "time": 9.25000000000018,
            "value": 0.6456692913385826
          },
          {
            "number": 7,
            "time": 9.25500000000018,
            "value": 0.6456692913385826
          },
          {
            "number": 7,
            "time": 9.260000000000181,
            "value": 0.6456692913385826
          },
          {
            "number": 7,
            "time": 9.265000000000182,
            "value": 0.6456692913385826
          },
          {
            "number": 7,
            "time": 9.270000000000183,
            "value": 0.6535433070866141
          },
          {
            "number": 7,
            "time": 9.275000000000183,
            "value": 0.6535433070866141
          },
          {
            "number": 7,
            "time": 9.280000000000184,
            "value": 0.6535433070866141
          },
          {
            "number": 7,
            "time": 9.285000000000185,
            "value": 0.6535433070866141
          },
          {
            "number": 7,
            "time": 9.290000000000186,
            "value": 0.6535433070866141
          },
          {
            "number": 7,
            "time": 9.295000000000186,
            "value": 0.6614173228346457
          },
          {
            "number": 7,
            "time": 9.300000000000187,
            "value": 0.6614173228346457
          },
          {
            "number": 7,
            "time": 9.305000000000188,
            "value": 0.6614173228346457
          },
          {
            "number": 7,
            "time": 9.310000000000189,
            "value": 0.6614173228346457
          },
          {
            "number": 7,
            "time": 9.31500000000019,
            "value": 0.6614173228346457
          },
          {
            "number": 7,
            "time": 9.32000000000019,
            "value": 0.6692913385826772
          },
          {
            "number": 7,
            "time": 9.325000000000191,
            "value": 0.6692913385826772
          },
          {
            "number": 7,
            "time": 9.330000000000192,
            "value": 0.6692913385826772
          },
          {
            "number": 7,
            "time": 9.335000000000193,
            "value": 0.6692913385826772
          },
          {
            "number": 7,
            "time": 9.340000000000193,
            "value": 0.6771653543307087
          },
          {
            "number": 7,
            "time": 9.345000000000194,
            "value": 0.6771653543307087
          },
          {
            "number": 7,
            "time": 9.350000000000195,
            "value": 0.6771653543307087
          },
          {
            "number": 7,
            "time": 9.355000000000196,
            "value": 0.6771653543307087
          },
          {
            "number": 7,
            "time": 9.360000000000197,
            "value": 0.6771653543307087
          },
          {
            "number": 7,
            "time": 9.365000000000197,
            "value": 0.6850393700787402
          },
          {
            "number": 7,
            "time": 9.370000000000198,
            "value": 0.6850393700787402
          },
          {
            "number": 7,
            "time": 9.375000000000199,
            "value": 0.6850393700787402
          },
          {
            "number": 7,
            "time": 9.3800000000002,
            "value": 0.6850393700787402
          },
          {
            "number": 7,
            "time": 9.3850000000002,
            "value": 0.6850393700787402
          },
          {
            "number": 7,
            "time": 9.390000000000201,
            "value": 0.6929133858267716
          },
          {
            "number": 7,
            "time": 9.395000000000202,
            "value": 0.6929133858267716
          },
          {
            "number": 7,
            "time": 9.400000000000203,
            "value": 0.6929133858267716
          },
          {
            "number": 7,
            "time": 9.405000000000204,
            "value": 0.6929133858267716
          },
          {
            "number": 7,
            "time": 9.410000000000204,
            "value": 0.6929133858267716
          },
          {
            "number": 7,
            "time": 9.415000000000205,
            "value": 0.7007874015748031
          },
          {
            "number": 7,
            "time": 9.420000000000206,
            "value": 0.7007874015748031
          },
          {
            "number": 7,
            "time": 9.425000000000207,
            "value": 0.7007874015748031
          },
          {
            "number": 7,
            "time": 9.430000000000208,
            "value": 0.7007874015748031
          },
          {
            "number": 7,
            "time": 9.435000000000208,
            "value": 0.7007874015748031
          },
          {
            "number": 7,
            "time": 9.44000000000021,
            "value": 0.7086614173228346
          },
          {
            "number": 7,
            "time": 9.44500000000021,
            "value": 0.7086614173228346
          },
          {
            "number": 7,
            "time": 9.45000000000021,
            "value": 0.7086614173228346
          },
          {
            "number": 7,
            "time": 9.455000000000211,
            "value": 0.7086614173228346
          },
          {
            "number": 7,
            "time": 9.460000000000212,
            "value": 0.7086614173228346
          },
          {
            "number": 7,
            "time": 9.465000000000213,
            "value": 0.7165354330708661
          },
          {
            "number": 7,
            "time": 9.470000000000214,
            "value": 0.7165354330708661
          },
          {
            "number": 7,
            "time": 9.475000000000215,
            "value": 0.7165354330708661
          },
          {
            "number": 7,
            "time": 9.480000000000215,
            "value": 0.7165354330708661
          },
          {
            "number": 7,
            "time": 9.485000000000216,
            "value": 0.7244094488188977
          },
          {
            "number": 7,
            "time": 9.490000000000217,
            "value": 0.7244094488188977
          },
          {
            "number": 7,
            "time": 9.495000000000218,
            "value": 0.7244094488188977
          },
          {
            "number": 7,
            "time": 9.500000000000218,
            "value": 0.7244094488188977
          },
          {
            "number": 7,
            "time": 9.50500000000022,
            "value": 0.7244094488188977
          },
          {
            "number": 7,
            "time": 9.51000000000022,
            "value": 0.7322834645669292
          },
          {
            "number": 7,
            "time": 9.51500000000022,
            "value": 0.7322834645669292
          },
          {
            "number": 7,
            "time": 9.520000000000222,
            "value": 0.7322834645669292
          },
          {
            "number": 7,
            "time": 9.525000000000222,
            "value": 0.7322834645669292
          },
          {
            "number": 7,
            "time": 9.530000000000223,
            "value": 0.7322834645669292
          },
          {
            "number": 7,
            "time": 9.535000000000224,
            "value": 0.7401574803149606
          },
          {
            "number": 7,
            "time": 9.540000000000225,
            "value": 0.7401574803149606
          },
          {
            "number": 7,
            "time": 9.545000000000226,
            "value": 0.7401574803149606
          },
          {
            "number": 7,
            "time": 9.550000000000226,
            "value": 0.7401574803149606
          },
          {
            "number": 7,
            "time": 9.555000000000227,
            "value": 0.7401574803149606
          },
          {
            "number": 7,
            "time": 9.560000000000228,
            "value": 0.7480314960629921
          },
          {
            "number": 7,
            "time": 9.565000000000229,
            "value": 0.7480314960629921
          },
          {
            "number": 7,
            "time": 9.57000000000023,
            "value": 0.7480314960629921
          },
          {
            "number": 7,
            "time": 9.57500000000023,
            "value": 0.7480314960629921
          },
          {
            "number": 7,
            "time": 9.580000000000231,
            "value": 0.7480314960629921
          },
          {
            "number": 7,
            "time": 9.585000000000232,
            "value": 0.7559055118110236
          },
          {
            "number": 7,
            "time": 9.590000000000233,
            "value": 0.7559055118110236
          },
          {
            "number": 7,
            "time": 9.595000000000233,
            "value": 0.7559055118110236
          },
          {
            "number": 7,
            "time": 23.04000000000024,
            "value": 0.7480314960629921
          },
          {
            "number": 7,
            "time": 38.400000000000254,
            "value": 0.7480314960629921
          },
          {
            "number": 7,
            "time": 53.76000000000027,
            "value": 0.7480314960629921
          },
          {
            "number": 7,
            "time": 69.12000000000027,
            "value": 0.7480314960629921
          },
          {
            "number": 7,
            "time": 84.48000000000029,
            "value": 0.7480314960629921
          },
          {
            "number": 7,
            "time": 102.6350000000003,
            "value": 0
          },
          {
            "number": 7,
            "time": 103.2600000000003,
            "value": 0
          },
          {
            "number": 7,
            "time": 103.2650000000003,
            "value": 0
          },
          {
            "number": 7,
            "time": 103.2700000000003,
            "value": 0
          },
          {
            "number": 7,
            "time": 103.27500000000029,
            "value": 0
          },
          {
            "number": 7,
            "time": 103.28000000000029,
            "value": 0.007874015748031496
          },
          {
            "number": 7,
            "time": 103.28500000000028,
            "value": 0.007874015748031496
          },
          {
            "number": 7,
            "time": 103.29000000000028,
            "value": 0.007874015748031496
          },
          {
            "number": 7,
            "time": 103.29500000000027,
            "value": 0.007874015748031496
          },
          {
            "number": 7,
            "time": 103.30000000000027,
            "value": 0.007874015748031496
          },
          {
            "number": 7,
            "time": 103.30500000000026,
            "value": 0.015748031496062992
          },
          {
            "number": 7,
            "time": 103.31000000000026,
            "value": 0.015748031496062992
          },
          {
            "number": 7,
            "time": 103.31500000000025,
            "value": 0.015748031496062992
          },
          {
            "number": 7,
            "time": 103.32000000000025,
            "value": 0.015748031496062992
          },
          {
            "number": 7,
            "time": 103.32500000000024,
            "value": 0.015748031496062992
          },
          {
            "number": 7,
            "time": 103.33000000000024,
            "value": 0.023622047244094488
          },
          {
            "number": 7,
            "time": 103.33500000000024,
            "value": 0.023622047244094488
          },
          {
            "number": 7,
            "time": 103.34000000000023,
            "value": 0.023622047244094488
          },
          {
            "number": 7,
            "time": 103.34500000000023,
            "value": 0.023622047244094488
          },
          {
            "number": 7,
            "time": 103.35000000000022,
            "value": 0.023622047244094488
          },
          {
            "number": 7,
            "time": 103.35500000000022,
            "value": 0.031496062992125984
          },
          {
            "number": 7,
            "time": 103.36000000000021,
            "value": 0.031496062992125984
          },
          {
            "number": 7,
            "time": 103.36500000000021,
            "value": 0.031496062992125984
          },
          {
            "number": 7,
            "time": 103.3700000000002,
            "value": 0.031496062992125984
          },
          {
            "number": 7,
            "time": 103.3750000000002,
            "value": 0.031496062992125984
          },
          {
            "number": 7,
            "time": 103.3800000000002,
            "value": 0.03937007874015748
          },
          {
            "number": 7,
            "time": 103.38500000000019,
            "value": 0.03937007874015748
          },
          {
            "number": 7,
            "time": 103.39000000000019,
            "value": 0.03937007874015748
          },
          {
            "number": 7,
            "time": 103.39500000000018,
            "value": 0.03937007874015748
          },
          {
            "number": 7,
            "time": 103.40000000000018,
            "value": 0.03937007874015748
          },
          {
            "number": 7,
            "time": 103.40500000000017,
            "value": 0.047244094488188976
          },
          {
            "number": 7,
            "time": 103.41000000000017,
            "value": 0.047244094488188976
          },
          {
            "number": 7,
            "time": 103.41500000000016,
            "value": 0.047244094488188976
          },
          {
            "number": 7,
            "time": 103.42000000000016,
            "value": 0.047244094488188976
          },
          {
            "number": 7,
            "time": 103.42500000000015,
            "value": 0.05511811023622047
          },
          {
            "number": 7,
            "time": 103.43000000000015,
            "value": 0.05511811023622047
          },
          {
            "number": 7,
            "time": 103.43500000000014,
            "value": 0.05511811023622047
          },
          {
            "number": 7,
            "time": 103.44000000000014,
            "value": 0.05511811023622047
          },
          {
            "number": 7,
            "time": 103.44500000000014,
            "value": 0.05511811023622047
          },
          {
            "number": 7,
            "time": 103.45000000000013,
            "value": 0.06299212598425197
          },
          {
            "number": 7,
            "time": 103.45500000000013,
            "value": 0.06299212598425197
          },
          {
            "number": 7,
            "time": 103.46000000000012,
            "value": 0.06299212598425197
          },
          {
            "number": 7,
            "time": 103.46500000000012,
            "value": 0.06299212598425197
          },
          {
            "number": 7,
            "time": 103.47000000000011,
            "value": 0.06299212598425197
          },
          {
            "number": 7,
            "time": 103.47500000000011,
            "value": 0.07086614173228346
          },
          {
            "number": 7,
            "time": 103.4800000000001,
            "value": 0.07086614173228346
          },
          {
            "number": 7,
            "time": 103.4850000000001,
            "value": 0.07086614173228346
          },
          {
            "number": 7,
            "time": 103.4900000000001,
            "value": 0.07086614173228346
          },
          {
            "number": 7,
            "time": 103.49500000000009,
            "value": 0.07086614173228346
          },
          {
            "number": 7,
            "time": 103.50000000000009,
            "value": 0.07874015748031496
          },
          {
            "number": 7,
            "time": 103.50500000000008,
            "value": 0.07874015748031496
          },
          {
            "number": 7,
            "time": 103.51000000000008,
            "value": 0.07874015748031496
          },
          {
            "number": 7,
            "time": 103.51500000000007,
            "value": 0.07874015748031496
          },
          {
            "number": 7,
            "time": 103.52000000000007,
            "value": 0.07874015748031496
          },
          {
            "number": 7,
            "time": 103.52500000000006,
            "value": 0.08661417322834646
          },
          {
            "number": 7,
            "time": 103.53000000000006,
            "value": 0.08661417322834646
          },
          {
            "number": 7,
            "time": 103.53500000000005,
            "value": 0.08661417322834646
          },
          {
            "number": 7,
            "time": 103.54000000000005,
            "value": 0.08661417322834646
          },
          {
            "number": 7,
            "time": 103.54500000000004,
            "value": 0.08661417322834646
          },
          {
            "number": 7,
            "time": 103.55000000000004,
            "value": 0.09448818897637795
          },
          {
            "number": 7,
            "time": 103.55500000000004,
            "value": 0.09448818897637795
          },
          {
            "number": 7,
            "time": 103.56000000000003,
            "value": 0.09448818897637795
          },
          {
            "number": 7,
            "time": 103.56500000000003,
            "value": 0.09448818897637795
          },
          {
            "number": 7,
            "time": 103.57000000000002,
            "value": 0.09448818897637795
          },
          {
            "number": 7,
            "time": 103.57500000000002,
            "value": 0.10236220472440945
          },
          {
            "number": 7,
            "time": 103.58000000000001,
            "value": 0.10236220472440945
          },
          {
            "number": 7,
            "time": 103.58500000000001,
            "value": 0.10236220472440945
          },
          {
            "number": 7,
            "time": 103.59,
            "value": 0.10236220472440945
          },
          {
            "number": 7,
            "time": 103.595,
            "value": 0.11023622047244094
          },
          {
            "number": 7,
            "time": 103.6,
            "value": 0.11023622047244094
          },
          {
            "number": 7,
            "time": 103.60499999999999,
            "value": 0.11023622047244094
          },
          {
            "number": 7,
            "time": 103.60999999999999,
            "value": 0.11023622047244094
          },
          {
            "number": 7,
            "time": 103.61499999999998,
            "value": 0.11023622047244094
          },
          {
            "number": 7,
            "time": 103.61999999999998,
            "value": 0.11811023622047244
          },
          {
            "number": 7,
            "time": 103.62499999999997,
            "value": 0.11811023622047244
          },
          {
            "number": 7,
            "time": 103.62999999999997,
            "value": 0.11811023622047244
          },
          {
            "number": 7,
            "time": 103.63499999999996,
            "value": 0.11811023622047244
          },
          {
            "number": 7,
            "time": 103.63999999999996,
            "value": 0.11811023622047244
          },
          {
            "number": 7,
            "time": 103.64499999999995,
            "value": 0.12598425196850394
          },
          {
            "number": 7,
            "time": 103.64999999999995,
            "value": 0.12598425196850394
          },
          {
            "number": 7,
            "time": 103.65499999999994,
            "value": 0.12598425196850394
          },
          {
            "number": 7,
            "time": 103.65999999999994,
            "value": 0.12598425196850394
          },
          {
            "number": 7,
            "time": 103.66499999999994,
            "value": 0.12598425196850394
          },
          {
            "number": 7,
            "time": 103.66999999999993,
            "value": 0.13385826771653545
          },
          {
            "number": 7,
            "time": 103.67499999999993,
            "value": 0.13385826771653545
          },
          {
            "number": 7,
            "time": 106.47499999999992,
            "value": 0
          },
          {
            "number": 7,
            "time": 107.09999999999992,
            "value": 0
          },
          {
            "number": 7,
            "time": 107.10499999999992,
            "value": 0
          },
          {
            "number": 7,
            "time": 107.10999999999991,
            "value": 0
          },
          {
            "number": 7,
            "time": 107.11499999999991,
            "value": 0
          },
          {
            "number": 7,
            "time": 107.1199999999999,
            "value": 0.007874015748031496
          },
          {
            "number": 7,
            "time": 107.1249999999999,
            "value": 0.007874015748031496
          },
          {
            "number": 7,
            "time": 107.1299999999999,
            "value": 0.007874015748031496
          },
          {
            "number": 7,
            "time": 107.13499999999989,
            "value": 0.007874015748031496
          },
          {
            "number": 7,
            "time": 107.13999999999989,
            "value": 0.007874015748031496
          },
          {
            "number": 7,
            "time": 107.14499999999988,
            "value": 0.015748031496062992
          },
          {
            "number": 7,
            "time": 107.14999999999988,
            "value": 0.015748031496062992
          },
          {
            "number": 7,
            "time": 107.15499999999987,
            "value": 0.015748031496062992
          },
          {
            "number": 7,
            "time": 107.15999999999987,
            "value": 0.015748031496062992
          },
          {
            "number": 7,
            "time": 107.16499999999986,
            "value": 0.015748031496062992
          },
          {
            "number": 7,
            "time": 107.16999999999986,
            "value": 0.023622047244094488
          },
          {
            "number": 7,
            "time": 107.17499999999986,
            "value": 0.023622047244094488
          },
          {
            "number": 7,
            "time": 107.17999999999985,
            "value": 0.023622047244094488
          },
          {
            "number": 7,
            "time": 107.18499999999985,
            "value": 0.023622047244094488
          },
          {
            "number": 7,
            "time": 107.18999999999984,
            "value": 0.023622047244094488
          },
          {
            "number": 7,
            "time": 107.19499999999984,
            "value": 0.031496062992125984
          },
          {
            "number": 7,
            "time": 107.19999999999983,
            "value": 0.031496062992125984
          },
          {
            "number": 7,
            "time": 107.20499999999983,
            "value": 0.031496062992125984
          },
          {
            "number": 7,
            "time": 107.20999999999982,
            "value": 0.031496062992125984
          },
          {
            "number": 7,
            "time": 107.21499999999982,
            "value": 0.031496062992125984
          },
          {
            "number": 7,
            "time": 107.21999999999981,
            "value": 0.03937007874015748
          },
          {
            "number": 7,
            "time": 107.22499999999981,
            "value": 0.03937007874015748
          },
          {
            "number": 7,
            "time": 107.2299999999998,
            "value": 0.03937007874015748
          },
          {
            "number": 7,
            "time": 107.2349999999998,
            "value": 0.03937007874015748
          },
          {
            "number": 7,
            "time": 107.2399999999998,
            "value": 0.03937007874015748
          },
          {
            "number": 7,
            "time": 107.24499999999979,
            "value": 0.047244094488188976
          },
          {
            "number": 7,
            "time": 107.24999999999979,
            "value": 0.047244094488188976
          },
          {
            "number": 7,
            "time": 107.25499999999978,
            "value": 0.047244094488188976
          },
          {
            "number": 7,
            "time": 107.25999999999978,
            "value": 0.047244094488188976
          },
          {
            "number": 7,
            "time": 107.26499999999977,
            "value": 0.05511811023622047
          },
          {
            "number": 7,
            "time": 107.26999999999977,
            "value": 0.05511811023622047
          },
          {
            "number": 7,
            "time": 107.27499999999976,
            "value": 0.05511811023622047
          },
          {
            "number": 7,
            "time": 107.27999999999976,
            "value": 0.05511811023622047
          },
          {
            "number": 7,
            "time": 107.28499999999976,
            "value": 0.05511811023622047
          },
          {
            "number": 7,
            "time": 107.28999999999975,
            "value": 0.06299212598425197
          },
          {
            "number": 7,
            "time": 107.29499999999975,
            "value": 0.06299212598425197
          },
          {
            "number": 7,
            "time": 107.29999999999974,
            "value": 0.06299212598425197
          },
          {
            "number": 7,
            "time": 107.30499999999974,
            "value": 0.06299212598425197
          },
          {
            "number": 7,
            "time": 107.30999999999973,
            "value": 0.06299212598425197
          },
          {
            "number": 7,
            "time": 107.31499999999973,
            "value": 0.07086614173228346
          },
          {
            "number": 7,
            "time": 107.31999999999972,
            "value": 0.07086614173228346
          },
          {
            "number": 7,
            "time": 107.32499999999972,
            "value": 0.07086614173228346
          },
          {
            "number": 7,
            "time": 107.32999999999971,
            "value": 0.07086614173228346
          },
          {
            "number": 7,
            "time": 107.33499999999971,
            "value": 0.07086614173228346
          },
          {
            "number": 7,
            "time": 107.3399999999997,
            "value": 0.07874015748031496
          },
          {
            "number": 7,
            "time": 107.3449999999997,
            "value": 0.07874015748031496
          },
          {
            "number": 7,
            "time": 107.3499999999997,
            "value": 0.07874015748031496
          },
          {
            "number": 7,
            "time": 107.35499999999969,
            "value": 0.07874015748031496
          },
          {
            "number": 7,
            "time": 107.35999999999969,
            "value": 0.07874015748031496
          },
          {
            "number": 7,
            "time": 107.36499999999968,
            "value": 0.08661417322834646
          },
          {
            "number": 7,
            "time": 107.36999999999968,
            "value": 0.08661417322834646
          },
          {
            "number": 7,
            "time": 107.37499999999967,
            "value": 0.08661417322834646
          },
          {
            "number": 7,
            "time": 107.37999999999967,
            "value": 0.08661417322834646
          },
          {
            "number": 7,
            "time": 107.38499999999966,
            "value": 0.08661417322834646
          },
          {
            "number": 7,
            "time": 107.38999999999966,
            "value": 0.09448818897637795
          },
          {
            "number": 7,
            "time": 107.39499999999965,
            "value": 0.09448818897637795
          },
          {
            "number": 7,
            "time": 107.39999999999965,
            "value": 0.09448818897637795
          },
          {
            "number": 7,
            "time": 107.40499999999965,
            "value": 0.09448818897637795
          },
          {
            "number": 7,
            "time": 107.40999999999964,
            "value": 0.09448818897637795
          },
          {
            "number": 7,
            "time": 107.41499999999964,
            "value": 0.10236220472440945
          },
          {
            "number": 7,
            "time": 107.41999999999963,
            "value": 0.10236220472440945
          },
          {
            "number": 7,
            "time": 107.42499999999963,
            "value": 0.10236220472440945
          },
          {
            "number": 7,
            "time": 107.42999999999962,
            "value": 0.10236220472440945
          },
          {
            "number": 7,
            "time": 107.43499999999962,
            "value": 0.11023622047244094
          },
          {
            "number": 7,
            "time": 107.43999999999961,
            "value": 0.11023622047244094
          },
          {
            "number": 7,
            "time": 107.44499999999961,
            "value": 0.11023622047244094
          },
          {
            "number": 7,
            "time": 107.4499999999996,
            "value": 0.11023622047244094
          },
          {
            "number": 7,
            "time": 107.4549999999996,
            "value": 0.11023622047244094
          },
          {
            "number": 7,
            "time": 107.4599999999996,
            "value": 0.11811023622047244
          },
          {
            "number": 7,
            "time": 107.46499999999959,
            "value": 0.11811023622047244
          },
          {
            "number": 7,
            "time": 107.46999999999959,
            "value": 0.11811023622047244
          },
          {
            "number": 7,
            "time": 107.47499999999958,
            "value": 0.11811023622047244
          },
          {
            "number": 7,
            "time": 107.47999999999958,
            "value": 0.11811023622047244
          },
          {
            "number": 7,
            "time": 107.48499999999957,
            "value": 0.12598425196850394
          },
          {
            "number": 7,
            "time": 107.48999999999957,
            "value": 0.12598425196850394
          },
          {
            "number": 7,
            "time": 107.49499999999956,
            "value": 0.12598425196850394
          },
          {
            "number": 7,
            "time": 107.49999999999956,
            "value": 0.12598425196850394
          },
          {
            "number": 7,
            "time": 107.50499999999955,
            "value": 0.12598425196850394
          },
          {
            "number": 7,
            "time": 107.50999999999955,
            "value": 0.13385826771653545
          },
          {
            "number": 7,
            "time": 107.51499999999955,
            "value": 0.13385826771653545
          },
          {
            "number": 7,
            "time": 110.31499999999954,
            "value": 0
          },
          {
            "number": 7,
            "time": 110.93999999999954,
            "value": 0
          },
          {
            "number": 7,
            "time": 110.94499999999954,
            "value": 0
          },
          {
            "number": 7,
            "time": 110.94999999999953,
            "value": 0
          },
          {
            "number": 7,
            "time": 110.95499999999953,
            "value": 0
          },
          {
            "number": 7,
            "time": 110.95999999999952,
            "value": 0.007874015748031496
          },
          {
            "number": 7,
            "time": 110.96499999999952,
            "value": 0.007874015748031496
          },
          {
            "number": 7,
            "time": 110.96999999999952,
            "value": 0.007874015748031496
          },
          {
            "number": 7,
            "time": 110.97499999999951,
            "value": 0.007874015748031496
          },
          {
            "number": 7,
            "time": 110.9799999999995,
            "value": 0.007874015748031496
          },
          {
            "number": 7,
            "time": 110.9849999999995,
            "value": 0.015748031496062992
          },
          {
            "number": 7,
            "time": 110.9899999999995,
            "value": 0.015748031496062992
          },
          {
            "number": 7,
            "time": 110.9949999999995,
            "value": 0.015748031496062992
          },
          {
            "number": 7,
            "time": 110.99999999999949,
            "value": 0.015748031496062992
          },
          {
            "number": 7,
            "time": 111.00499999999948,
            "value": 0.015748031496062992
          },
          {
            "number": 7,
            "time": 111.00999999999948,
            "value": 0.023622047244094488
          },
          {
            "number": 7,
            "time": 111.01499999999947,
            "value": 0.023622047244094488
          },
          {
            "number": 7,
            "time": 111.01999999999947,
            "value": 0.023622047244094488
          },
          {
            "number": 7,
            "time": 111.02499999999947,
            "value": 0.023622047244094488
          },
          {
            "number": 7,
            "time": 111.02999999999946,
            "value": 0.023622047244094488
          },
          {
            "number": 7,
            "time": 111.03499999999946,
            "value": 0.031496062992125984
          },
          {
            "number": 7,
            "time": 111.03999999999945,
            "value": 0.031496062992125984
          },
          {
            "number": 7,
            "time": 111.04499999999945,
            "value": 0.031496062992125984
          },
          {
            "number": 7,
            "time": 111.04999999999944,
            "value": 0.031496062992125984
          },
          {
            "number": 7,
            "time": 111.05499999999944,
            "value": 0.031496062992125984
          },
          {
            "number": 7,
            "time": 111.05999999999943,
            "value": 0.03937007874015748
          },
          {
            "number": 7,
            "time": 111.06499999999943,
            "value": 0.03937007874015748
          },
          {
            "number": 7,
            "time": 111.06999999999942,
            "value": 0.03937007874015748
          },
          {
            "number": 7,
            "time": 111.07499999999942,
            "value": 0.03937007874015748
          },
          {
            "number": 7,
            "time": 111.07999999999942,
            "value": 0.03937007874015748
          },
          {
            "number": 7,
            "time": 111.08499999999941,
            "value": 0.047244094488188976
          },
          {
            "number": 7,
            "time": 111.0899999999994,
            "value": 0.047244094488188976
          },
          {
            "number": 7,
            "time": 111.0949999999994,
            "value": 0.047244094488188976
          },
          {
            "number": 7,
            "time": 111.0999999999994,
            "value": 0.047244094488188976
          },
          {
            "number": 7,
            "time": 111.1049999999994,
            "value": 0.05511811023622047
          },
          {
            "number": 7,
            "time": 111.10999999999939,
            "value": 0.05511811023622047
          },
          {
            "number": 7,
            "time": 111.11499999999938,
            "value": 0.05511811023622047
          },
          {
            "number": 7,
            "time": 111.11999999999938,
            "value": 0.05511811023622047
          },
          {
            "number": 7,
            "time": 111.12499999999937,
            "value": 0.05511811023622047
          },
          {
            "number": 7,
            "time": 111.12999999999937,
            "value": 0.06299212598425197
          },
          {
            "number": 7,
            "time": 111.13499999999937,
            "value": 0.06299212598425197
          },
          {
            "number": 7,
            "time": 111.13999999999936,
            "value": 0.06299212598425197
          },
          {
            "number": 7,
            "time": 111.14499999999936,
            "value": 0.06299212598425197
          },
          {
            "number": 7,
            "time": 111.14999999999935,
            "value": 0.06299212598425197
          },
          {
            "number": 7,
            "time": 111.15499999999935,
            "value": 0.07086614173228346
          },
          {
            "number": 7,
            "time": 111.15999999999934,
            "value": 0.07086614173228346
          },
          {
            "number": 7,
            "time": 111.16499999999934,
            "value": 0.07086614173228346
          },
          {
            "number": 7,
            "time": 111.16999999999933,
            "value": 0.07086614173228346
          },
          {
            "number": 7,
            "time": 111.17499999999933,
            "value": 0.07086614173228346
          },
          {
            "number": 7,
            "time": 111.17999999999932,
            "value": 0.07874015748031496
          },
          {
            "number": 7,
            "time": 111.18499999999932,
            "value": 0.07874015748031496
          },
          {
            "number": 7,
            "time": 111.18999999999932,
            "value": 0.07874015748031496
          },
          {
            "number": 7,
            "time": 111.19499999999931,
            "value": 0.07874015748031496
          },
          {
            "number": 7,
            "time": 111.1999999999993,
            "value": 0.07874015748031496
          },
          {
            "number": 7,
            "time": 111.2049999999993,
            "value": 0.08661417322834646
          },
          {
            "number": 7,
            "time": 111.2099999999993,
            "value": 0.08661417322834646
          },
          {
            "number": 7,
            "time": 111.21499999999929,
            "value": 0.08661417322834646
          },
          {
            "number": 7,
            "time": 111.21999999999929,
            "value": 0.08661417322834646
          },
          {
            "number": 7,
            "time": 111.22499999999928,
            "value": 0.08661417322834646
          },
          {
            "number": 7,
            "time": 111.22999999999928,
            "value": 0.09448818897637795
          },
          {
            "number": 7,
            "time": 111.23499999999927,
            "value": 0.09448818897637795
          },
          {
            "number": 7,
            "time": 111.23999999999927,
            "value": 0.09448818897637795
          },
          {
            "number": 7,
            "time": 111.24499999999927,
            "value": 0.09448818897637795
          },
          {
            "number": 7,
            "time": 111.24999999999926,
            "value": 0.09448818897637795
          },
          {
            "number": 7,
            "time": 111.25499999999926,
            "value": 0.10236220472440945
          },
          {
            "number": 7,
            "time": 111.25999999999925,
            "value": 0.10236220472440945
          },
          {
            "number": 7,
            "time": 111.26499999999925,
            "value": 0.10236220472440945
          },
          {
            "number": 7,
            "time": 111.26999999999924,
            "value": 0.10236220472440945
          },
          {
            "number": 7,
            "time": 111.27499999999924,
            "value": 0.11023622047244094
          },
          {
            "number": 7,
            "time": 111.27999999999923,
            "value": 0.11023622047244094
          },
          {
            "number": 7,
            "time": 111.28499999999923,
            "value": 0.11023622047244094
          },
          {
            "number": 7,
            "time": 111.28999999999922,
            "value": 0.11023622047244094
          },
          {
            "number": 7,
            "time": 111.29499999999922,
            "value": 0.11023622047244094
          },
          {
            "number": 7,
            "time": 111.29999999999922,
            "value": 0.11811023622047244
          },
          {
            "number": 7,
            "time": 111.30499999999921,
            "value": 0.11811023622047244
          },
          {
            "number": 7,
            "time": 111.3099999999992,
            "value": 0.11811023622047244
          },
          {
            "number": 7,
            "time": 111.3149999999992,
            "value": 0.11811023622047244
          },
          {
            "number": 7,
            "time": 111.3199999999992,
            "value": 0.11811023622047244
          },
          {
            "number": 7,
            "time": 111.32499999999919,
            "value": 0.12598425196850394
          },
          {
            "number": 7,
            "time": 111.32999999999919,
            "value": 0.12598425196850394
          },
          {
            "number": 7,
            "time": 111.33499999999918,
            "value": 0.12598425196850394
          },
          {
            "number": 7,
            "time": 111.33999999999918,
            "value": 0.12598425196850394
          },
          {
            "number": 7,
            "time": 111.34499999999917,
            "value": 0.12598425196850394
          },
          {
            "number": 7,
            "time": 111.34999999999917,
            "value": 0.13385826771653545
          },
          {
            "number": 7,
            "time": 111.35499999999917,
            "value": 0.13385826771653545
          },
          {
            "number": 7,
            "time": 126.71999999999916,
            "value": 0.7480314960629921
          },
          {
            "number": 7,
            "time": 140.30499999999913,
            "value": 0.7480314960629921
          },
          {
            "number": 7,
            "time": 140.30999999999912,
            "value": 0.7480314960629921
          },
          {
            "number": 7,
            "time": 140.30999999999912,
            "value": 0.7480314960629921
          }
        ],
        "10": [
          {
            "number": 10,
            "time": 0,
            "value": 0.5039370078740157
          },
          {
            "number": 10,
            "time": 0,
            "value": 0.5039370078740157
          },
          {
            "number": 10,
            "time": 0,
            "value": 0.5039370078740157
          },
          {
            "number": 10,
            "time": 140.30499999999913,
            "value": 0.5039370078740157
          },
          {
            "number": 10,
            "time": 140.30999999999912,
            "value": 0.5039370078740157
          },
          {
            "number": 10,
            "time": 140.30999999999912,
            "value": 0.5039370078740157
          }
        ],
        "100": [
          {
            "number": 100,
            "time": 0,
            "value": 0
          },
          {
            "number": 100,
            "time": 0,
            "value": 0
          },
          {
            "number": 100,
            "time": 140.30499999999913,
            "value": 0
          },
          {
            "number": 100,
            "time": 140.30999999999912,
            "value": 0
          },
          {
            "number": 100,
            "time": 140.30999999999912,
            "value": 0
          }
        ],
        "101": [
          {
            "number": 101,
            "time": 0,
            "value": 0
          },
          {
            "number": 101,
            "time": 0,
            "value": 0
          },
          {
            "number": 101,
            "time": 140.30499999999913,
            "value": 0
          },
          {
            "number": 101,
            "time": 140.30999999999912,
            "value": 0
          },
          {
            "number": 101,
            "time": 140.30999999999912,
            "value": 0
          }
        ]
      },
      "id": 4,
      "name": "MIDI Out #3",
      "instrumentNumber": 50,
      "instrument": "synthstrings 1",
      "instrumentFamily": "ensemble",
      "channelNumber": 2,
      "isPercussion": false
    },
    {
      "startTime": 0,
      "duration": 138.18000000000174,
      "length": 1285,
      "notes": [
        {
          "name": "F#3",
          "midi": 54,
          "time": 0,
          "velocity": 0.5354330708661418,
          "duration": 0.06
        },
        {
          "name": "B1",
          "midi": 35,
          "time": 0,
          "velocity": 0.7874015748031497,
          "duration": 0.24
        },
        {
          "name": "F#3",
          "midi": 54,
          "time": 0.12,
          "velocity": 0.7874015748031497,
          "duration": 0.06
        },
        {
          "name": "F#3",
          "midi": 54,
          "time": 0.24,
          "velocity": 0.5354330708661418,
          "duration": 0.06
        },
        {
          "name": "F#3",
          "midi": 54,
          "time": 0.36,
          "velocity": 0.7874015748031497,
          "duration": 0.06
        },
        {
          "name": "D#2",
          "midi": 39,
          "time": 0.48,
          "velocity": 0.7874015748031497,
          "duration": 0.2400000000000002
        },
        {
          "name": "F#3",
          "midi": 54,
          "time": 0.48,
          "velocity": 0.5354330708661418,
          "duration": 0.06000000000000005
        },
        {
          "name": "F#3",
          "midi": 54,
          "time": 0.6000000000000001,
          "velocity": 0.7874015748031497,
          "duration": 0.06000000000000005
        },
        {
          "name": "F#3",
          "midi": 54,
          "time": 0.7200000000000002,
          "velocity": 0.5354330708661418,
          "duration": 0.06000000000000005
        },
        {
          "name": "F#3",
          "midi": 54,
          "time": 0.8400000000000003,
          "velocity": 0.7874015748031497,
          "duration": 0.06000000000000005
        },
        {
          "name": "F#3",
          "midi": 54,
          "time": 0.9600000000000004,
          "velocity": 0.5354330708661418,
          "duration": 0.06000000000000005
        },
        {
          "name": "F#3",
          "midi": 54,
          "time": 1.0800000000000005,
          "velocity": 0.7874015748031497,
          "duration": 0.06000000000000005
        },
        {
          "name": "F#3",
          "midi": 54,
          "time": 1.2000000000000006,
          "velocity": 0.5354330708661418,
          "duration": 0.06000000000000005
        },
        {
          "name": "F#3",
          "midi": 54,
          "time": 1.3200000000000007,
          "velocity": 0.7874015748031497,
          "duration": 0.06000000000000005
        },
        {
          "name": "F#3",
          "midi": 54,
          "time": 1.4400000000000008,
          "velocity": 0.5354330708661418,
          "duration": 0.030000000000000027
        },
        {
          "name": "D#2",
          "midi": 39,
          "time": 1.4400000000000008,
          "velocity": 0.7874015748031497,
          "duration": 0.2400000000000002
        },
        {
          "name": "F#3",
          "midi": 54,
          "time": 1.4700000000000009,
          "velocity": 0.5354330708661418,
          "duration": 0.030000000000000027
        },
        {
          "name": "F#3",
          "midi": 54,
          "time": 1.560000000000001,
          "velocity": 0.7874015748031497,
          "duration": 0.06000000000000005
        },
        {
          "name": "F#3",
          "midi": 54,
          "time": 1.680000000000001,
          "velocity": 0.5354330708661418,
          "duration": 0.06000000000000005
        },
        {
          "name": "F#3",
          "midi": 54,
          "time": 1.8000000000000012,
          "velocity": 0.7874015748031497,
          "duration": 0.06000000000000005
        },
        {
          "name": "F#3",
          "midi": 54,
          "time": 1.9200000000000013,
          "velocity": 0.5354330708661418,
          "duration": 0.06000000000000005
        },
        {
          "name": "F#3",
          "midi": 54,
          "time": 2.0400000000000014,
          "velocity": 0.7874015748031497,
          "duration": 0.06000000000000005
        },
        {
          "name": "F#3",
          "midi": 54,
          "time": 2.1600000000000015,
          "velocity": 0.5354330708661418,
          "duration": 0.06000000000000005
        },
        {
          "name": "F#3",
          "midi": 54,
          "time": 2.2800000000000016,
          "velocity": 0.7874015748031497,
          "duration": 0.06000000000000005
        },
        {
          "name": "F#3",
          "midi": 54,
          "time": 2.4000000000000017,
          "velocity": 0.5354330708661418,
          "duration": 0.06000000000000005
        },
        {
          "name": "D#2",
          "midi": 39,
          "time": 2.4000000000000017,
          "velocity": 0.7874015748031497,
          "duration": 0.2400000000000002
        },
        {
          "name": "F#3",
          "midi": 54,
          "time": 2.520000000000002,
          "velocity": 0.7874015748031497,
          "duration": 0.06000000000000005
        },
        {
          "name": "F#3",
          "midi": 54,
          "time": 2.640000000000002,
          "velocity": 0.5354330708661418,
          "duration": 0.06000000000000005
        },
        {
          "name": "F#3",
          "midi": 54,
          "time": 2.760000000000002,
          "velocity": 0.7874015748031497,
          "duration": 0.06000000000000005
        },
        {
          "name": "F#3",
          "midi": 54,
          "time": 2.880000000000002,
          "velocity": 0.5354330708661418,
          "duration": 0.06000000000000005
        },
        {
          "name": "F#3",
          "midi": 54,
          "time": 3.000000000000002,
          "velocity": 0.7874015748031497,
          "duration": 0.06000000000000005
        },
        {
          "name": "F#3",
          "midi": 54,
          "time": 3.1200000000000023,
          "velocity": 0.5354330708661418,
          "duration": 0.06000000000000005
        },
        {
          "name": "F#3",
          "midi": 54,
          "time": 3.2400000000000024,
          "velocity": 0.7874015748031497,
          "duration": 0.06000000000000005
        },
        {
          "name": "D#2",
          "midi": 39,
          "time": 3.3600000000000025,
          "velocity": 0.7874015748031497,
          "duration": 0.23999999999999977
        },
        {
          "name": "F#3",
          "midi": 54,
          "time": 3.3600000000000025,
          "velocity": 0.5354330708661418,
          "duration": 0.029999999999999805
        },
        {
          "name": "F#3",
          "midi": 54,
          "time": 3.3900000000000023,
          "velocity": 0.5354330708661418,
          "duration": 0.029999999999999805
        },
        {
          "name": "F#3",
          "midi": 54,
          "time": 3.480000000000002,
          "velocity": 0.7874015748031497,
          "duration": 0.06000000000000005
        },
        {
          "name": "F#3",
          "midi": 54,
          "time": 3.6000000000000023,
          "velocity": 0.5354330708661418,
          "duration": 0.06000000000000005
        },
        {
          "name": "F#3",
          "midi": 54,
          "time": 3.7200000000000024,
          "velocity": 0.7874015748031497,
          "duration": 0.06000000000000005
        },
        {
          "name": "F#3",
          "midi": 54,
          "time": 3.8400000000000025,
          "velocity": 0.5354330708661418,
          "duration": 0.06000000000000005
        },
        {
          "name": "B1",
          "midi": 35,
          "time": 3.8400000000000025,
          "velocity": 0.7874015748031497,
          "duration": 0.23999999999999932
        },
        {
          "name": "F#3",
          "midi": 54,
          "time": 3.9600000000000026,
          "velocity": 0.7874015748031497,
          "duration": 0.05999999999999961
        },
        {
          "name": "F#3",
          "midi": 54,
          "time": 4.080000000000002,
          "velocity": 0.5354330708661418,
          "duration": 0.05999999999999961
        },
        {
          "name": "F#3",
          "midi": 54,
          "time": 4.200000000000001,
          "velocity": 0.7874015748031497,
          "duration": 0.05999999999999961
        },
        {
          "name": "F#3",
          "midi": 54,
          "time": 4.32,
          "velocity": 0.5354330708661418,
          "duration": 0.05999999999999961
        },
        {
          "name": "D#2",
          "midi": 39,
          "time": 4.32,
          "velocity": 0.7874015748031497,
          "duration": 0.23999999999999844
        },
        {
          "name": "F#3",
          "midi": 54,
          "time": 4.4399999999999995,
          "velocity": 0.7874015748031497,
          "duration": 0.05999999999999961
        },
        {
          "name": "F#3",
          "midi": 54,
          "time": 4.559999999999999,
          "velocity": 0.5354330708661418,
          "duration": 0.05999999999999961
        },
        {
          "name": "F#3",
          "midi": 54,
          "time": 4.679999999999998,
          "velocity": 0.7874015748031497,
          "duration": 0.05999999999999961
        },
        {
          "name": "F#3",
          "midi": 54,
          "time": 4.799999999999997,
          "velocity": 0.5354330708661418,
          "duration": 0.05999999999999961
        },
        {
          "name": "F#3",
          "midi": 54,
          "time": 4.919999999999996,
          "velocity": 0.7874015748031497,
          "duration": 0.05999999999999961
        },
        {
          "name": "F#3",
          "midi": 54,
          "time": 5.039999999999996,
          "velocity": 0.5354330708661418,
          "duration": 0.05999999999999961
        },
        {
          "name": "F#3",
          "midi": 54,
          "time": 5.159999999999995,
          "velocity": 0.7874015748031497,
          "duration": 0.05999999999999961
        },
        {
          "name": "F#3",
          "midi": 54,
          "time": 5.279999999999994,
          "velocity": 0.5354330708661418,
          "duration": 0.03000000000000025
        },
        {
          "name": "D#2",
          "midi": 39,
          "time": 5.279999999999994,
          "velocity": 0.7874015748031497,
          "duration": 0.23999999999999932
        },
        {
          "name": "F#3",
          "midi": 54,
          "time": 5.309999999999994,
          "velocity": 0.5354330708661418,
          "duration": 0.03000000000000025
        },
        {
          "name": "F#3",
          "midi": 54,
          "time": 5.399999999999994,
          "velocity": 0.7874015748031497,
          "duration": 0.05999999999999961
        },
        {
          "name": "F#3",
          "midi": 54,
          "time": 5.519999999999993,
          "velocity": 0.5354330708661418,
          "duration": 0.05999999999999961
        },
        {
          "name": "F#3",
          "midi": 54,
          "time": 5.639999999999993,
          "velocity": 0.7874015748031497,
          "duration": 0.05999999999999961
        },
        {
          "name": "F#3",
          "midi": 54,
          "time": 5.759999999999992,
          "velocity": 0.5354330708661418,
          "duration": 0.05999999999999961
        },
        {
          "name": "F#3",
          "midi": 54,
          "time": 5.879999999999991,
          "velocity": 0.7874015748031497,
          "duration": 0.05999999999999961
        },
        {
          "name": "F#3",
          "midi": 54,
          "time": 5.99999999999999,
          "velocity": 0.5354330708661418,
          "duration": 0.05999999999999961
        },
        {
          "name": "F#3",
          "midi": 54,
          "time": 6.1199999999999894,
          "velocity": 0.7874015748031497,
          "duration": 0.05999999999999961
        },
        {
          "name": "F#3",
          "midi": 54,
          "time": 6.239999999999989,
          "velocity": 0.5354330708661418,
          "duration": 0.05999999999999961
        },
        {
          "name": "D#2",
          "midi": 39,
          "time": 6.239999999999989,
          "velocity": 0.7874015748031497,
          "duration": 0.23999999999999844
        },
        {
          "name": "F#3",
          "midi": 54,
          "time": 6.359999999999988,
          "velocity": 0.7874015748031497,
          "duration": 0.05999999999999961
        },
        {
          "name": "F#3",
          "midi": 54,
          "time": 6.479999999999987,
          "velocity": 0.5354330708661418,
          "duration": 0.05999999999999961
        },
        {
          "name": "F#3",
          "midi": 54,
          "time": 6.599999999999986,
          "velocity": 0.7874015748031497,
          "duration": 0.05999999999999961
        },
        {
          "name": "F#3",
          "midi": 54,
          "time": 6.7199999999999855,
          "velocity": 0.5354330708661418,
          "duration": 0.05999999999999961
        },
        {
          "name": "F#3",
          "midi": 54,
          "time": 6.839999999999985,
          "velocity": 0.7874015748031497,
          "duration": 0.05999999999999961
        },
        {
          "name": "F#3",
          "midi": 54,
          "time": 6.959999999999984,
          "velocity": 0.5354330708661418,
          "duration": 0.05999999999999961
        },
        {
          "name": "F#3",
          "midi": 54,
          "time": 7.079999999999983,
          "velocity": 0.7874015748031497,
          "duration": 0.05999999999999961
        },
        {
          "name": "F#3",
          "midi": 54,
          "time": 7.199999999999982,
          "velocity": 0.5354330708661418,
          "duration": 0.03000000000000025
        },
        {
          "name": "D#2",
          "midi": 39,
          "time": 7.199999999999982,
          "velocity": 0.7874015748031497,
          "duration": 0.23999999999999932
        },
        {
          "name": "F#3",
          "midi": 54,
          "time": 7.229999999999983,
          "velocity": 0.5354330708661418,
          "duration": 0.03000000000000025
        },
        {
          "name": "F#3",
          "midi": 54,
          "time": 7.3199999999999825,
          "velocity": 0.7874015748031497,
          "duration": 0.05999999999999961
        },
        {
          "name": "F#3",
          "midi": 54,
          "time": 7.439999999999982,
          "velocity": 0.5354330708661418,
          "duration": 0.05999999999999961
        },
        {
          "name": "F#3",
          "midi": 54,
          "time": 7.559999999999981,
          "velocity": 0.7874015748031497,
          "duration": 0.05999999999999961
        },
        {
          "name": "B1",
          "midi": 35,
          "time": 7.67999999999998,
          "velocity": 0.7874015748031497,
          "duration": 0.23999999999999844
        },
        {
          "name": "F#3",
          "midi": 54,
          "time": 7.67999999999998,
          "velocity": 0.5354330708661418,
          "duration": 0.05999999999999961
        },
        {
          "name": "F#3",
          "midi": 54,
          "time": 7.799999999999979,
          "velocity": 0.7874015748031497,
          "duration": 0.05999999999999961
        },
        {
          "name": "F#3",
          "midi": 54,
          "time": 7.919999999999979,
          "velocity": 0.5354330708661418,
          "duration": 0.05999999999999961
        },
        {
          "name": "F#3",
          "midi": 54,
          "time": 8.039999999999978,
          "velocity": 0.7874015748031497,
          "duration": 0.0600000000000005
        },
        {
          "name": "F#3",
          "midi": 54,
          "time": 8.159999999999979,
          "velocity": 0.5354330708661418,
          "duration": 0.0600000000000005
        },
        {
          "name": "D#2",
          "midi": 39,
          "time": 8.159999999999979,
          "velocity": 0.7874015748031497,
          "duration": 0.240000000000002
        },
        {
          "name": "B1",
          "midi": 35,
          "time": 8.159999999999979,
          "velocity": 0.7874015748031497,
          "duration": 0.240000000000002
        },
        {
          "name": "F#3",
          "midi": 54,
          "time": 8.27999999999998,
          "velocity": 0.7874015748031497,
          "duration": 0.0600000000000005
        },
        {
          "name": "F#3",
          "midi": 54,
          "time": 8.39999999999998,
          "velocity": 0.5354330708661418,
          "duration": 0.0600000000000005
        },
        {
          "name": "F#3",
          "midi": 54,
          "time": 8.519999999999982,
          "velocity": 0.7874015748031497,
          "duration": 0.0600000000000005
        },
        {
          "name": "B1",
          "midi": 35,
          "time": 8.639999999999983,
          "velocity": 0.7874015748031497,
          "duration": 0.240000000000002
        },
        {
          "name": "F#3",
          "midi": 54,
          "time": 8.639999999999983,
          "velocity": 0.5354330708661418,
          "duration": 0.0600000000000005
        },
        {
          "name": "F#3",
          "midi": 54,
          "time": 8.759999999999984,
          "velocity": 0.7874015748031497,
          "duration": 0.0600000000000005
        },
        {
          "name": "F#3",
          "midi": 54,
          "time": 8.879999999999985,
          "velocity": 0.5354330708661418,
          "duration": 0.0600000000000005
        },
        {
          "name": "F#3",
          "midi": 54,
          "time": 8.999999999999986,
          "velocity": 0.7874015748031497,
          "duration": 0.0600000000000005
        },
        {
          "name": "F#3",
          "midi": 54,
          "time": 9.119999999999987,
          "velocity": 0.5354330708661418,
          "duration": 0.02999999999999936
        },
        {
          "name": "D#2",
          "midi": 39,
          "time": 9.119999999999987,
          "velocity": 0.7874015748031497,
          "duration": 0.2400000000000002
        },
        {
          "name": "B1",
          "midi": 35,
          "time": 9.119999999999987,
          "velocity": 0.7874015748031497,
          "duration": 0.2400000000000002
        },
        {
          "name": "F#3",
          "midi": 54,
          "time": 9.149999999999986,
          "velocity": 0.5354330708661418,
          "duration": 0.02999999999999936
        },
        {
          "name": "F#3",
          "midi": 54,
          "time": 9.239999999999986,
          "velocity": 0.7874015748031497,
          "duration": 0.0600000000000005
        },
        {
          "name": "F#3",
          "midi": 54,
          "time": 9.359999999999987,
          "velocity": 0.5354330708661418,
          "duration": 0.0600000000000005
        },
        {
          "name": "F#3",
          "midi": 54,
          "time": 9.479999999999988,
          "velocity": 0.7874015748031497,
          "duration": 0.0600000000000005
        },
        {
          "name": "B1",
          "midi": 35,
          "time": 9.599999999999989,
          "velocity": 0.7874015748031497,
          "duration": 0.240000000000002
        },
        {
          "name": "F#3",
          "midi": 54,
          "time": 9.599999999999989,
          "velocity": 0.5354330708661418,
          "duration": 0.0600000000000005
        },
        {
          "name": "F#3",
          "midi": 54,
          "time": 9.71999999999999,
          "velocity": 0.7874015748031497,
          "duration": 0.0600000000000005
        },
        {
          "name": "F#3",
          "midi": 54,
          "time": 9.839999999999991,
          "velocity": 0.5354330708661418,
          "duration": 0.0600000000000005
        },
        {
          "name": "F#3",
          "midi": 54,
          "time": 9.959999999999992,
          "velocity": 0.7874015748031497,
          "duration": 0.0600000000000005
        },
        {
          "name": "F#3",
          "midi": 54,
          "time": 10.079999999999993,
          "velocity": 0.5354330708661418,
          "duration": 0.0600000000000005
        },
        {
          "name": "D#2",
          "midi": 39,
          "time": 10.079999999999993,
          "velocity": 0.7874015748031497,
          "duration": 0.240000000000002
        },
        {
          "name": "B1",
          "midi": 35,
          "time": 10.079999999999993,
          "velocity": 0.7874015748031497,
          "duration": 0.240000000000002
        },
        {
          "name": "F#3",
          "midi": 54,
          "time": 10.199999999999994,
          "velocity": 0.7874015748031497,
          "duration": 0.0600000000000005
        },
        {
          "name": "F#3",
          "midi": 54,
          "time": 10.319999999999995,
          "velocity": 0.5354330708661418,
          "duration": 0.0600000000000005
        },
        {
          "name": "F#3",
          "midi": 54,
          "time": 10.439999999999996,
          "velocity": 0.7874015748031497,
          "duration": 0.0600000000000005
        },
        {
          "name": "B1",
          "midi": 35,
          "time": 10.559999999999997,
          "velocity": 0.7874015748031497,
          "duration": 0.240000000000002
        },
        {
          "name": "F#3",
          "midi": 54,
          "time": 10.559999999999997,
          "velocity": 0.5354330708661418,
          "duration": 0.0600000000000005
        },
        {
          "name": "F#3",
          "midi": 54,
          "time": 10.679999999999998,
          "velocity": 0.7874015748031497,
          "duration": 0.0600000000000005
        },
        {
          "name": "F#3",
          "midi": 54,
          "time": 10.799999999999999,
          "velocity": 0.5354330708661418,
          "duration": 0.0600000000000005
        },
        {
          "name": "F#3",
          "midi": 54,
          "time": 10.92,
          "velocity": 0.7874015748031497,
          "duration": 0.0600000000000005
        },
        {
          "name": "F#3",
          "midi": 54,
          "time": 11.040000000000001,
          "velocity": 0.5354330708661418,
          "duration": 0.02999999999999936
        },
        {
          "name": "D#2",
          "midi": 39,
          "time": 11.040000000000001,
          "velocity": 0.7874015748031497,
          "duration": 0.2400000000000002
        },
        {
          "name": "B1",
          "midi": 35,
          "time": 11.040000000000001,
          "velocity": 0.7874015748031497,
          "duration": 0.2400000000000002
        },
        {
          "name": "F#3",
          "midi": 54,
          "time": 11.07,
          "velocity": 0.5354330708661418,
          "duration": 0.02999999999999936
        },
        {
          "name": "F#3",
          "midi": 54,
          "time": 11.16,
          "velocity": 0.7874015748031497,
          "duration": 0.0600000000000005
        },
        {
          "name": "F#3",
          "midi": 54,
          "time": 11.280000000000001,
          "velocity": 0.5354330708661418,
          "duration": 0.0600000000000005
        },
        {
          "name": "F#3",
          "midi": 54,
          "time": 11.400000000000002,
          "velocity": 0.7874015748031497,
          "duration": 0.0600000000000005
        },
        {
          "name": "B1",
          "midi": 35,
          "time": 11.520000000000003,
          "velocity": 0.7874015748031497,
          "duration": 0.240000000000002
        },
        {
          "name": "F#3",
          "midi": 54,
          "time": 11.520000000000003,
          "velocity": 0.5354330708661418,
          "duration": 0.0600000000000005
        },
        {
          "name": "F#3",
          "midi": 54,
          "time": 11.640000000000004,
          "velocity": 0.7874015748031497,
          "duration": 0.0600000000000005
        },
        {
          "name": "F#3",
          "midi": 54,
          "time": 11.760000000000005,
          "velocity": 0.5354330708661418,
          "duration": 0.0600000000000005
        },
        {
          "name": "F#3",
          "midi": 54,
          "time": 11.880000000000006,
          "velocity": 0.7874015748031497,
          "duration": 0.0600000000000005
        },
        {
          "name": "F#3",
          "midi": 54,
          "time": 12.000000000000007,
          "velocity": 0.5354330708661418,
          "duration": 0.0600000000000005
        },
        {
          "name": "D#2",
          "midi": 39,
          "time": 12.000000000000007,
          "velocity": 0.7874015748031497,
          "duration": 0.240000000000002
        },
        {
          "name": "B1",
          "midi": 35,
          "time": 12.000000000000007,
          "velocity": 0.7874015748031497,
          "duration": 0.240000000000002
        },
        {
          "name": "F#3",
          "midi": 54,
          "time": 12.120000000000008,
          "velocity": 0.7874015748031497,
          "duration": 0.0600000000000005
        },
        {
          "name": "F#3",
          "midi": 54,
          "time": 12.240000000000009,
          "velocity": 0.5354330708661418,
          "duration": 0.0600000000000005
        },
        {
          "name": "F#3",
          "midi": 54,
          "time": 12.36000000000001,
          "velocity": 0.7874015748031497,
          "duration": 0.0600000000000005
        },
        {
          "name": "B1",
          "midi": 35,
          "time": 12.480000000000011,
          "velocity": 0.7874015748031497,
          "duration": 0.240000000000002
        },
        {
          "name": "F#3",
          "midi": 54,
          "time": 12.480000000000011,
          "velocity": 0.5354330708661418,
          "duration": 0.0600000000000005
        },
        {
          "name": "F#3",
          "midi": 54,
          "time": 12.600000000000012,
          "velocity": 0.7874015748031497,
          "duration": 0.0600000000000005
        },
        {
          "name": "F#3",
          "midi": 54,
          "time": 12.720000000000013,
          "velocity": 0.5354330708661418,
          "duration": 0.0600000000000005
        },
        {
          "name": "F#3",
          "midi": 54,
          "time": 12.840000000000014,
          "velocity": 0.7874015748031497,
          "duration": 0.0600000000000005
        },
        {
          "name": "F#3",
          "midi": 54,
          "time": 12.960000000000015,
          "velocity": 0.5354330708661418,
          "duration": 0.02999999999999936
        },
        {
          "name": "D#2",
          "midi": 39,
          "time": 12.960000000000015,
          "velocity": 0.7874015748031497,
          "duration": 0.2400000000000002
        },
        {
          "name": "B1",
          "midi": 35,
          "time": 12.960000000000015,
          "velocity": 0.7874015748031497,
          "duration": 0.2400000000000002
        },
        {
          "name": "F#3",
          "midi": 54,
          "time": 12.990000000000014,
          "velocity": 0.5354330708661418,
          "duration": 0.02999999999999936
        },
        {
          "name": "F#3",
          "midi": 54,
          "time": 13.080000000000014,
          "velocity": 0.7874015748031497,
          "duration": 0.0600000000000005
        },
        {
          "name": "F#3",
          "midi": 54,
          "time": 13.200000000000015,
          "velocity": 0.5354330708661418,
          "duration": 0.0600000000000005
        },
        {
          "name": "F#3",
          "midi": 54,
          "time": 13.320000000000016,
          "velocity": 0.7874015748031497,
          "duration": 0.0600000000000005
        },
        {
          "name": "B1",
          "midi": 35,
          "time": 13.440000000000017,
          "velocity": 0.7874015748031497,
          "duration": 0.240000000000002
        },
        {
          "name": "F#3",
          "midi": 54,
          "time": 13.440000000000017,
          "velocity": 0.5354330708661418,
          "duration": 0.0600000000000005
        },
        {
          "name": "F#3",
          "midi": 54,
          "time": 13.560000000000018,
          "velocity": 0.7874015748031497,
          "duration": 0.0600000000000005
        },
        {
          "name": "F#3",
          "midi": 54,
          "time": 13.68000000000002,
          "velocity": 0.5354330708661418,
          "duration": 0.0600000000000005
        },
        {
          "name": "F#3",
          "midi": 54,
          "time": 13.80000000000002,
          "velocity": 0.7874015748031497,
          "duration": 0.0600000000000005
        },
        {
          "name": "F#3",
          "midi": 54,
          "time": 13.920000000000021,
          "velocity": 0.5354330708661418,
          "duration": 0.0600000000000005
        },
        {
          "name": "D#2",
          "midi": 39,
          "time": 13.920000000000021,
          "velocity": 0.7874015748031497,
          "duration": 0.240000000000002
        },
        {
          "name": "B1",
          "midi": 35,
          "time": 13.920000000000021,
          "velocity": 0.7874015748031497,
          "duration": 0.240000000000002
        },
        {
          "name": "F#3",
          "midi": 54,
          "time": 14.040000000000022,
          "velocity": 0.7874015748031497,
          "duration": 0.0600000000000005
        },
        {
          "name": "F#3",
          "midi": 54,
          "time": 14.160000000000023,
          "velocity": 0.5354330708661418,
          "duration": 0.0600000000000005
        },
        {
          "name": "F#3",
          "midi": 54,
          "time": 14.280000000000024,
          "velocity": 0.7874015748031497,
          "duration": 0.0600000000000005
        },
        {
          "name": "B1",
          "midi": 35,
          "time": 14.400000000000025,
          "velocity": 0.7874015748031497,
          "duration": 0.240000000000002
        },
        {
          "name": "F#3",
          "midi": 54,
          "time": 14.400000000000025,
          "velocity": 0.5354330708661418,
          "duration": 0.0600000000000005
        },
        {
          "name": "F#3",
          "midi": 54,
          "time": 14.520000000000026,
          "velocity": 0.7874015748031497,
          "duration": 0.0600000000000005
        },
        {
          "name": "F#3",
          "midi": 54,
          "time": 14.640000000000027,
          "velocity": 0.5354330708661418,
          "duration": 0.0600000000000005
        },
        {
          "name": "F#3",
          "midi": 54,
          "time": 14.760000000000028,
          "velocity": 0.7874015748031497,
          "duration": 0.0600000000000005
        },
        {
          "name": "F#3",
          "midi": 54,
          "time": 14.88000000000003,
          "velocity": 0.5354330708661418,
          "duration": 0.02999999999999936
        },
        {
          "name": "D#2",
          "midi": 39,
          "time": 14.88000000000003,
          "velocity": 0.7874015748031497,
          "duration": 0.2400000000000002
        },
        {
          "name": "B1",
          "midi": 35,
          "time": 14.88000000000003,
          "velocity": 0.7874015748031497,
          "duration": 0.2400000000000002
        },
        {
          "name": "F#3",
          "midi": 54,
          "time": 14.910000000000029,
          "velocity": 0.5354330708661418,
          "duration": 0.02999999999999936
        },
        {
          "name": "F#3",
          "midi": 54,
          "time": 15.000000000000028,
          "velocity": 0.7874015748031497,
          "duration": 0.0600000000000005
        },
        {
          "name": "F#3",
          "midi": 54,
          "time": 15.12000000000003,
          "velocity": 0.5354330708661418,
          "duration": 0.0600000000000005
        },
        {
          "name": "F#3",
          "midi": 54,
          "time": 15.24000000000003,
          "velocity": 0.7874015748031497,
          "duration": 0.0600000000000005
        },
        {
          "name": "B1",
          "midi": 35,
          "time": 15.360000000000031,
          "velocity": 0.7874015748031497,
          "duration": 0.240000000000002
        },
        {
          "name": "F#3",
          "midi": 54,
          "time": 15.360000000000031,
          "velocity": 0.5354330708661418,
          "duration": 0.0600000000000005
        },
        {
          "name": "F#3",
          "midi": 54,
          "time": 15.480000000000032,
          "velocity": 0.7874015748031497,
          "duration": 0.0600000000000005
        },
        {
          "name": "F#3",
          "midi": 54,
          "time": 15.600000000000033,
          "velocity": 0.5354330708661418,
          "duration": 0.0600000000000005
        },
        {
          "name": "F#3",
          "midi": 54,
          "time": 15.720000000000034,
          "velocity": 0.7874015748031497,
          "duration": 0.0600000000000005
        },
        {
          "name": "F#3",
          "midi": 54,
          "time": 15.840000000000035,
          "velocity": 0.5354330708661418,
          "duration": 0.0600000000000005
        },
        {
          "name": "D#2",
          "midi": 39,
          "time": 15.840000000000035,
          "velocity": 0.7874015748031497,
          "duration": 0.23999999999999844
        },
        {
          "name": "B1",
          "midi": 35,
          "time": 15.840000000000035,
          "velocity": 0.7874015748031497,
          "duration": 0.23999999999999844
        },
        {
          "name": "F#3",
          "midi": 54,
          "time": 15.960000000000036,
          "velocity": 0.7874015748031497,
          "duration": 0.05999999999999872
        },
        {
          "name": "F#3",
          "midi": 54,
          "time": 16.080000000000034,
          "velocity": 0.5354330708661418,
          "duration": 0.05999999999999872
        },
        {
          "name": "F#3",
          "midi": 54,
          "time": 16.20000000000003,
          "velocity": 0.7874015748031497,
          "duration": 0.05999999999999872
        },
        {
          "name": "B1",
          "midi": 35,
          "time": 16.32000000000003,
          "velocity": 0.7874015748031497,
          "duration": 0.23999999999999488
        },
        {
          "name": "F#3",
          "midi": 54,
          "time": 16.32000000000003,
          "velocity": 0.5354330708661418,
          "duration": 0.05999999999999872
        },
        {
          "name": "F#3",
          "midi": 54,
          "time": 16.440000000000026,
          "velocity": 0.7874015748031497,
          "duration": 0.05999999999999872
        },
        {
          "name": "F#3",
          "midi": 54,
          "time": 16.560000000000024,
          "velocity": 0.5354330708661418,
          "duration": 0.05999999999999872
        },
        {
          "name": "F#3",
          "midi": 54,
          "time": 16.68000000000002,
          "velocity": 0.7874015748031497,
          "duration": 0.05999999999999872
        },
        {
          "name": "F#3",
          "midi": 54,
          "time": 16.80000000000002,
          "velocity": 0.5354330708661418,
          "duration": 0.030000000000001137
        },
        {
          "name": "D#2",
          "midi": 39,
          "time": 16.80000000000002,
          "velocity": 0.7874015748031497,
          "duration": 0.23999999999999844
        },
        {
          "name": "B1",
          "midi": 35,
          "time": 16.80000000000002,
          "velocity": 0.7874015748031497,
          "duration": 0.23999999999999844
        },
        {
          "name": "F#3",
          "midi": 54,
          "time": 16.83000000000002,
          "velocity": 0.5354330708661418,
          "duration": 0.030000000000001137
        },
        {
          "name": "F#3",
          "midi": 54,
          "time": 16.92000000000002,
          "velocity": 0.7874015748031497,
          "duration": 0.05999999999999872
        },
        {
          "name": "F#3",
          "midi": 54,
          "time": 17.040000000000017,
          "velocity": 0.5354330708661418,
          "duration": 0.05999999999999872
        },
        {
          "name": "F#3",
          "midi": 54,
          "time": 17.160000000000014,
          "velocity": 0.7874015748031497,
          "duration": 0.05999999999999872
        },
        {
          "name": "B1",
          "midi": 35,
          "time": 17.280000000000012,
          "velocity": 0.7874015748031497,
          "duration": 0.23999999999999488
        },
        {
          "name": "F#3",
          "midi": 54,
          "time": 17.280000000000012,
          "velocity": 0.5354330708661418,
          "duration": 0.05999999999999872
        },
        {
          "name": "F#3",
          "midi": 54,
          "time": 17.40000000000001,
          "velocity": 0.7874015748031497,
          "duration": 0.05999999999999872
        },
        {
          "name": "F#3",
          "midi": 54,
          "time": 17.520000000000007,
          "velocity": 0.5354330708661418,
          "duration": 0.05999999999999872
        },
        {
          "name": "F#3",
          "midi": 54,
          "time": 17.640000000000004,
          "velocity": 0.7874015748031497,
          "duration": 0.05999999999999872
        },
        {
          "name": "F#3",
          "midi": 54,
          "time": 17.76,
          "velocity": 0.5354330708661418,
          "duration": 0.05999999999999872
        },
        {
          "name": "D#2",
          "midi": 39,
          "time": 17.76,
          "velocity": 0.7874015748031497,
          "duration": 0.23999999999999488
        },
        {
          "name": "B1",
          "midi": 35,
          "time": 17.76,
          "velocity": 0.7874015748031497,
          "duration": 0.23999999999999488
        },
        {
          "name": "F#3",
          "midi": 54,
          "time": 17.88,
          "velocity": 0.7874015748031497,
          "duration": 0.05999999999999872
        },
        {
          "name": "F#3",
          "midi": 54,
          "time": 17.999999999999996,
          "velocity": 0.5354330708661418,
          "duration": 0.05999999999999872
        },
        {
          "name": "F#3",
          "midi": 54,
          "time": 18.119999999999994,
          "velocity": 0.7874015748031497,
          "duration": 0.05999999999999872
        },
        {
          "name": "B1",
          "midi": 35,
          "time": 18.23999999999999,
          "velocity": 0.7874015748031497,
          "duration": 0.23999999999999488
        },
        {
          "name": "F#3",
          "midi": 54,
          "time": 18.23999999999999,
          "velocity": 0.5354330708661418,
          "duration": 0.05999999999999872
        },
        {
          "name": "F#3",
          "midi": 54,
          "time": 18.35999999999999,
          "velocity": 0.7874015748031497,
          "duration": 0.05999999999999872
        },
        {
          "name": "F#3",
          "midi": 54,
          "time": 18.479999999999986,
          "velocity": 0.5354330708661418,
          "duration": 0.05999999999999872
        },
        {
          "name": "F#3",
          "midi": 54,
          "time": 18.599999999999984,
          "velocity": 0.7874015748031497,
          "duration": 0.05999999999999872
        },
        {
          "name": "F#3",
          "midi": 54,
          "time": 18.71999999999998,
          "velocity": 0.5354330708661418,
          "duration": 0.030000000000001137
        },
        {
          "name": "D#2",
          "midi": 39,
          "time": 18.71999999999998,
          "velocity": 0.7874015748031497,
          "duration": 0.23999999999999844
        },
        {
          "name": "B1",
          "midi": 35,
          "time": 18.71999999999998,
          "velocity": 0.7874015748031497,
          "duration": 0.23999999999999844
        },
        {
          "name": "F#3",
          "midi": 54,
          "time": 18.749999999999982,
          "velocity": 0.5354330708661418,
          "duration": 0.030000000000001137
        },
        {
          "name": "F#3",
          "midi": 54,
          "time": 18.839999999999982,
          "velocity": 0.7874015748031497,
          "duration": 0.05999999999999872
        },
        {
          "name": "F#3",
          "midi": 54,
          "time": 18.95999999999998,
          "velocity": 0.5354330708661418,
          "duration": 0.05999999999999872
        },
        {
          "name": "F#3",
          "midi": 54,
          "time": 19.079999999999977,
          "velocity": 0.7874015748031497,
          "duration": 0.05999999999999872
        },
        {
          "name": "B1",
          "midi": 35,
          "time": 19.199999999999974,
          "velocity": 0.7874015748031497,
          "duration": 0.23999999999999488
        },
        {
          "name": "F#3",
          "midi": 54,
          "time": 19.199999999999974,
          "velocity": 0.5354330708661418,
          "duration": 0.05999999999999872
        },
        {
          "name": "F#3",
          "midi": 54,
          "time": 19.319999999999972,
          "velocity": 0.7874015748031497,
          "duration": 0.05999999999999872
        },
        {
          "name": "F#3",
          "midi": 54,
          "time": 19.43999999999997,
          "velocity": 0.5354330708661418,
          "duration": 0.05999999999999872
        },
        {
          "name": "F#3",
          "midi": 54,
          "time": 19.559999999999967,
          "velocity": 0.7874015748031497,
          "duration": 0.05999999999999872
        },
        {
          "name": "B1",
          "midi": 35,
          "time": 19.679999999999964,
          "velocity": 0.7874015748031497,
          "duration": 0.23999999999999488
        },
        {
          "name": "D#2",
          "midi": 39,
          "time": 19.679999999999964,
          "velocity": 0.7874015748031497,
          "duration": 0.23999999999999488
        },
        {
          "name": "F#3",
          "midi": 54,
          "time": 19.679999999999964,
          "velocity": 0.5354330708661418,
          "duration": 0.05999999999999872
        },
        {
          "name": "F#3",
          "midi": 54,
          "time": 19.79999999999996,
          "velocity": 0.7874015748031497,
          "duration": 0.05999999999999872
        },
        {
          "name": "F#3",
          "midi": 54,
          "time": 19.91999999999996,
          "velocity": 0.5354330708661418,
          "duration": 0.05999999999999872
        },
        {
          "name": "F#3",
          "midi": 54,
          "time": 20.039999999999957,
          "velocity": 0.7874015748031497,
          "duration": 0.05999999999999872
        },
        {
          "name": "B1",
          "midi": 35,
          "time": 20.159999999999954,
          "velocity": 0.7874015748031497,
          "duration": 0.23999999999999488
        },
        {
          "name": "F#3",
          "midi": 54,
          "time": 20.159999999999954,
          "velocity": 0.5354330708661418,
          "duration": 0.05999999999999872
        },
        {
          "name": "F#3",
          "midi": 54,
          "time": 20.27999999999995,
          "velocity": 0.7874015748031497,
          "duration": 0.05999999999999872
        },
        {
          "name": "F#3",
          "midi": 54,
          "time": 20.39999999999995,
          "velocity": 0.5354330708661418,
          "duration": 0.05999999999999872
        },
        {
          "name": "F#3",
          "midi": 54,
          "time": 20.519999999999946,
          "velocity": 0.7874015748031497,
          "duration": 0.05999999999999872
        },
        {
          "name": "B1",
          "midi": 35,
          "time": 20.639999999999944,
          "velocity": 0.7874015748031497,
          "duration": 0.23999999999999844
        },
        {
          "name": "D#2",
          "midi": 39,
          "time": 20.639999999999944,
          "velocity": 0.7874015748031497,
          "duration": 0.23999999999999844
        },
        {
          "name": "F#3",
          "midi": 54,
          "time": 20.639999999999944,
          "velocity": 0.5354330708661418,
          "duration": 0.030000000000001137
        },
        {
          "name": "F#3",
          "midi": 54,
          "time": 20.669999999999945,
          "velocity": 0.5354330708661418,
          "duration": 0.030000000000001137
        },
        {
          "name": "F#3",
          "midi": 54,
          "time": 20.759999999999945,
          "velocity": 0.7874015748031497,
          "duration": 0.05999999999999872
        },
        {
          "name": "F#3",
          "midi": 54,
          "time": 20.879999999999942,
          "velocity": 0.5354330708661418,
          "duration": 0.05999999999999872
        },
        {
          "name": "F#3",
          "midi": 54,
          "time": 20.99999999999994,
          "velocity": 0.7874015748031497,
          "duration": 0.05999999999999872
        },
        {
          "name": "B1",
          "midi": 35,
          "time": 21.119999999999937,
          "velocity": 0.7874015748031497,
          "duration": 0.23999999999999488
        },
        {
          "name": "F#3",
          "midi": 54,
          "time": 21.119999999999937,
          "velocity": 0.5354330708661418,
          "duration": 0.05999999999999872
        },
        {
          "name": "F#3",
          "midi": 54,
          "time": 21.239999999999934,
          "velocity": 0.7874015748031497,
          "duration": 0.05999999999999872
        },
        {
          "name": "F#3",
          "midi": 54,
          "time": 21.359999999999932,
          "velocity": 0.5354330708661418,
          "duration": 0.05999999999999872
        },
        {
          "name": "F#3",
          "midi": 54,
          "time": 21.47999999999993,
          "velocity": 0.7874015748031497,
          "duration": 0.05999999999999872
        },
        {
          "name": "F#3",
          "midi": 54,
          "time": 21.599999999999927,
          "velocity": 0.5354330708661418,
          "duration": 0.030000000000001137
        },
        {
          "name": "F#3",
          "midi": 54,
          "time": 21.629999999999928,
          "velocity": 0.5354330708661418,
          "duration": 0.030000000000001137
        },
        {
          "name": "F#3",
          "midi": 54,
          "time": 21.719999999999928,
          "velocity": 0.7874015748031497,
          "duration": 0.05999999999999872
        },
        {
          "name": "F#3",
          "midi": 54,
          "time": 21.839999999999925,
          "velocity": 0.5039370078740157,
          "duration": 0.05999999999999872
        },
        {
          "name": "F#3",
          "midi": 54,
          "time": 21.959999999999923,
          "velocity": 0.6929133858267716,
          "duration": 0.05999999999999872
        },
        {
          "name": "C2",
          "midi": 36,
          "time": 23.03999999999992,
          "velocity": 0.9133858267716536,
          "duration": 0.120000000000001
        },
        {
          "name": "F#2",
          "midi": 42,
          "time": 23.03999999999992,
          "velocity": 0.6929133858267716,
          "duration": 0.120000000000001
        },
        {
          "name": "F#2",
          "midi": 42,
          "time": 23.279999999999923,
          "velocity": 0.5984251968503937,
          "duration": 0.120000000000001
        },
        {
          "name": "C2",
          "midi": 36,
          "time": 23.519999999999925,
          "velocity": 0.9133858267716536,
          "duration": 0.120000000000001
        },
        {
          "name": "D#2",
          "midi": 39,
          "time": 23.519999999999925,
          "velocity": 0.6929133858267716,
          "duration": 0.120000000000001
        },
        {
          "name": "F#2",
          "midi": 42,
          "time": 23.519999999999925,
          "velocity": 0.6929133858267716,
          "duration": 0.120000000000001
        },
        {
          "name": "D2",
          "midi": 38,
          "time": 23.519999999999925,
          "velocity": 0.5354330708661418,
          "duration": 0.120000000000001
        },
        {
          "name": "F#2",
          "midi": 42,
          "time": 23.759999999999927,
          "velocity": 0.5984251968503937,
          "duration": 0.120000000000001
        },
        {
          "name": "C2",
          "midi": 36,
          "time": 23.99999999999993,
          "velocity": 0.9133858267716536,
          "duration": 0.120000000000001
        },
        {
          "name": "F#2",
          "midi": 42,
          "time": 23.99999999999993,
          "velocity": 0.6929133858267716,
          "duration": 0.120000000000001
        },
        {
          "name": "F#2",
          "midi": 42,
          "time": 24.23999999999993,
          "velocity": 0.5984251968503937,
          "duration": 0.120000000000001
        },
        {
          "name": "C2",
          "midi": 36,
          "time": 24.479999999999933,
          "velocity": 0.9133858267716536,
          "duration": 0.120000000000001
        },
        {
          "name": "D#2",
          "midi": 39,
          "time": 24.479999999999933,
          "velocity": 0.6929133858267716,
          "duration": 0.120000000000001
        },
        {
          "name": "F#2",
          "midi": 42,
          "time": 24.479999999999933,
          "velocity": 0.6929133858267716,
          "duration": 0.120000000000001
        },
        {
          "name": "D2",
          "midi": 38,
          "time": 24.479999999999933,
          "velocity": 0.5354330708661418,
          "duration": 0.120000000000001
        },
        {
          "name": "F#2",
          "midi": 42,
          "time": 24.719999999999935,
          "velocity": 0.5984251968503937,
          "duration": 0.120000000000001
        },
        {
          "name": "F#2",
          "midi": 42,
          "time": 24.959999999999937,
          "velocity": 0.6929133858267716,
          "duration": 0.120000000000001
        },
        {
          "name": "C2",
          "midi": 36,
          "time": 24.959999999999937,
          "velocity": 0.9133858267716536,
          "duration": 0.120000000000001
        },
        {
          "name": "F#2",
          "midi": 42,
          "time": 25.19999999999994,
          "velocity": 0.5984251968503937,
          "duration": 0.120000000000001
        },
        {
          "name": "C2",
          "midi": 36,
          "time": 25.43999999999994,
          "velocity": 0.9133858267716536,
          "duration": 0.120000000000001
        },
        {
          "name": "D#2",
          "midi": 39,
          "time": 25.43999999999994,
          "velocity": 0.6929133858267716,
          "duration": 0.120000000000001
        },
        {
          "name": "F#2",
          "midi": 42,
          "time": 25.43999999999994,
          "velocity": 0.6929133858267716,
          "duration": 0.120000000000001
        },
        {
          "name": "D2",
          "midi": 38,
          "time": 25.43999999999994,
          "velocity": 0.5354330708661418,
          "duration": 0.120000000000001
        },
        {
          "name": "F#2",
          "midi": 42,
          "time": 25.679999999999943,
          "velocity": 0.5984251968503937,
          "duration": 0.120000000000001
        },
        {
          "name": "C2",
          "midi": 36,
          "time": 25.919999999999945,
          "velocity": 0.9133858267716536,
          "duration": 0.120000000000001
        },
        {
          "name": "F#2",
          "midi": 42,
          "time": 25.919999999999945,
          "velocity": 0.6929133858267716,
          "duration": 0.120000000000001
        },
        {
          "name": "F#2",
          "midi": 42,
          "time": 26.159999999999947,
          "velocity": 0.5984251968503937,
          "duration": 0.120000000000001
        },
        {
          "name": "C2",
          "midi": 36,
          "time": 26.39999999999995,
          "velocity": 0.9133858267716536,
          "duration": 0.120000000000001
        },
        {
          "name": "D#2",
          "midi": 39,
          "time": 26.39999999999995,
          "velocity": 0.6929133858267716,
          "duration": 0.120000000000001
        },
        {
          "name": "F#2",
          "midi": 42,
          "time": 26.39999999999995,
          "velocity": 0.6929133858267716,
          "duration": 0.120000000000001
        },
        {
          "name": "D2",
          "midi": 38,
          "time": 26.39999999999995,
          "velocity": 0.5354330708661418,
          "duration": 0.120000000000001
        },
        {
          "name": "F#2",
          "midi": 42,
          "time": 26.63999999999995,
          "velocity": 0.5984251968503937,
          "duration": 0.120000000000001
        },
        {
          "name": "F#2",
          "midi": 42,
          "time": 26.879999999999953,
          "velocity": 0.6929133858267716,
          "duration": 0.120000000000001
        },
        {
          "name": "C2",
          "midi": 36,
          "time": 26.879999999999953,
          "velocity": 0.9133858267716536,
          "duration": 0.120000000000001
        },
        {
          "name": "F#2",
          "midi": 42,
          "time": 27.119999999999955,
          "velocity": 0.5984251968503937,
          "duration": 0.120000000000001
        },
        {
          "name": "C2",
          "midi": 36,
          "time": 27.359999999999957,
          "velocity": 0.9133858267716536,
          "duration": 0.120000000000001
        },
        {
          "name": "D#2",
          "midi": 39,
          "time": 27.359999999999957,
          "velocity": 0.6929133858267716,
          "duration": 0.120000000000001
        },
        {
          "name": "F#2",
          "midi": 42,
          "time": 27.359999999999957,
          "velocity": 0.6929133858267716,
          "duration": 0.120000000000001
        },
        {
          "name": "D2",
          "midi": 38,
          "time": 27.359999999999957,
          "velocity": 0.5354330708661418,
          "duration": 0.120000000000001
        },
        {
          "name": "F#2",
          "midi": 42,
          "time": 27.59999999999996,
          "velocity": 0.5984251968503937,
          "duration": 0.120000000000001
        },
        {
          "name": "C2",
          "midi": 36,
          "time": 27.83999999999996,
          "velocity": 0.9133858267716536,
          "duration": 0.120000000000001
        },
        {
          "name": "F#2",
          "midi": 42,
          "time": 27.83999999999996,
          "velocity": 0.6929133858267716,
          "duration": 0.120000000000001
        },
        {
          "name": "F#2",
          "midi": 42,
          "time": 28.079999999999963,
          "velocity": 0.5984251968503937,
          "duration": 0.120000000000001
        },
        {
          "name": "C2",
          "midi": 36,
          "time": 28.319999999999965,
          "velocity": 0.9133858267716536,
          "duration": 0.120000000000001
        },
        {
          "name": "D#2",
          "midi": 39,
          "time": 28.319999999999965,
          "velocity": 0.6929133858267716,
          "duration": 0.120000000000001
        },
        {
          "name": "F#2",
          "midi": 42,
          "time": 28.319999999999965,
          "velocity": 0.6929133858267716,
          "duration": 0.120000000000001
        },
        {
          "name": "D2",
          "midi": 38,
          "time": 28.319999999999965,
          "velocity": 0.5354330708661418,
          "duration": 0.120000000000001
        },
        {
          "name": "F#2",
          "midi": 42,
          "time": 28.559999999999967,
          "velocity": 0.5984251968503937,
          "duration": 0.120000000000001
        },
        {
          "name": "F#2",
          "midi": 42,
          "time": 28.79999999999997,
          "velocity": 0.6929133858267716,
          "duration": 0.120000000000001
        },
        {
          "name": "C2",
          "midi": 36,
          "time": 28.79999999999997,
          "velocity": 0.9133858267716536,
          "duration": 0.120000000000001
        },
        {
          "name": "F#2",
          "midi": 42,
          "time": 29.03999999999997,
          "velocity": 0.5984251968503937,
          "duration": 0.120000000000001
        },
        {
          "name": "C2",
          "midi": 36,
          "time": 29.279999999999973,
          "velocity": 0.9133858267716536,
          "duration": 0.120000000000001
        },
        {
          "name": "D#2",
          "midi": 39,
          "time": 29.279999999999973,
          "velocity": 0.6929133858267716,
          "duration": 0.120000000000001
        },
        {
          "name": "F#2",
          "midi": 42,
          "time": 29.279999999999973,
          "velocity": 0.6929133858267716,
          "duration": 0.120000000000001
        },
        {
          "name": "D2",
          "midi": 38,
          "time": 29.279999999999973,
          "velocity": 0.5354330708661418,
          "duration": 0.120000000000001
        },
        {
          "name": "F#2",
          "midi": 42,
          "time": 29.519999999999975,
          "velocity": 0.5984251968503937,
          "duration": 0.120000000000001
        },
        {
          "name": "C2",
          "midi": 36,
          "time": 29.759999999999977,
          "velocity": 0.9133858267716536,
          "duration": 0.120000000000001
        },
        {
          "name": "F#2",
          "midi": 42,
          "time": 29.759999999999977,
          "velocity": 0.6929133858267716,
          "duration": 0.120000000000001
        },
        {
          "name": "F#2",
          "midi": 42,
          "time": 29.99999999999998,
          "velocity": 0.5984251968503937,
          "duration": 0.120000000000001
        },
        {
          "name": "C2",
          "midi": 36,
          "time": 30.23999999999998,
          "velocity": 0.9133858267716536,
          "duration": 0.120000000000001
        },
        {
          "name": "D#2",
          "midi": 39,
          "time": 30.23999999999998,
          "velocity": 0.6929133858267716,
          "duration": 0.120000000000001
        },
        {
          "name": "F#2",
          "midi": 42,
          "time": 30.23999999999998,
          "velocity": 0.6929133858267716,
          "duration": 0.120000000000001
        },
        {
          "name": "D2",
          "midi": 38,
          "time": 30.23999999999998,
          "velocity": 0.5354330708661418,
          "duration": 0.120000000000001
        },
        {
          "name": "F#2",
          "midi": 42,
          "time": 30.479999999999983,
          "velocity": 0.5984251968503937,
          "duration": 0.120000000000001
        },
        {
          "name": "F#2",
          "midi": 42,
          "time": 30.719999999999985,
          "velocity": 0.6929133858267716,
          "duration": 0.120000000000001
        },
        {
          "name": "C2",
          "midi": 36,
          "time": 30.719999999999985,
          "velocity": 0.9133858267716536,
          "duration": 0.120000000000001
        },
        {
          "name": "F#2",
          "midi": 42,
          "time": 30.959999999999987,
          "velocity": 0.5984251968503937,
          "duration": 0.120000000000001
        },
        {
          "name": "C2",
          "midi": 36,
          "time": 31.19999999999999,
          "velocity": 0.9133858267716536,
          "duration": 0.120000000000001
        },
        {
          "name": "D#2",
          "midi": 39,
          "time": 31.19999999999999,
          "velocity": 0.6929133858267716,
          "duration": 0.120000000000001
        },
        {
          "name": "F#2",
          "midi": 42,
          "time": 31.19999999999999,
          "velocity": 0.6929133858267716,
          "duration": 0.120000000000001
        },
        {
          "name": "D2",
          "midi": 38,
          "time": 31.19999999999999,
          "velocity": 0.5354330708661418,
          "duration": 0.120000000000001
        },
        {
          "name": "F#2",
          "midi": 42,
          "time": 31.43999999999999,
          "velocity": 0.5984251968503937,
          "duration": 0.120000000000001
        },
        {
          "name": "C2",
          "midi": 36,
          "time": 31.679999999999993,
          "velocity": 0.9133858267716536,
          "duration": 0.120000000000001
        },
        {
          "name": "F#2",
          "midi": 42,
          "time": 31.679999999999993,
          "velocity": 0.6929133858267716,
          "duration": 0.120000000000001
        },
        {
          "name": "F#2",
          "midi": 42,
          "time": 31.919999999999995,
          "velocity": 0.5984251968503937,
          "duration": 0.11999999999999744
        },
        {
          "name": "C2",
          "midi": 36,
          "time": 32.15999999999999,
          "velocity": 0.9133858267716536,
          "duration": 0.11999999999999744
        },
        {
          "name": "D#2",
          "midi": 39,
          "time": 32.15999999999999,
          "velocity": 0.6929133858267716,
          "duration": 0.11999999999999744
        },
        {
          "name": "F#2",
          "midi": 42,
          "time": 32.15999999999999,
          "velocity": 0.6929133858267716,
          "duration": 0.11999999999999744
        },
        {
          "name": "D2",
          "midi": 38,
          "time": 32.15999999999999,
          "velocity": 0.5354330708661418,
          "duration": 0.11999999999999744
        },
        {
          "name": "F#2",
          "midi": 42,
          "time": 32.399999999999984,
          "velocity": 0.5984251968503937,
          "duration": 0.11999999999999744
        },
        {
          "name": "F#2",
          "midi": 42,
          "time": 32.63999999999998,
          "velocity": 0.6929133858267716,
          "duration": 0.11999999999999744
        },
        {
          "name": "C2",
          "midi": 36,
          "time": 32.63999999999998,
          "velocity": 0.9133858267716536,
          "duration": 0.11999999999999744
        },
        {
          "name": "F#2",
          "midi": 42,
          "time": 32.879999999999974,
          "velocity": 0.5984251968503937,
          "duration": 0.11999999999999744
        },
        {
          "name": "C2",
          "midi": 36,
          "time": 33.11999999999997,
          "velocity": 0.9133858267716536,
          "duration": 0.11999999999999744
        },
        {
          "name": "D#2",
          "midi": 39,
          "time": 33.11999999999997,
          "velocity": 0.6929133858267716,
          "duration": 0.11999999999999744
        },
        {
          "name": "F#2",
          "midi": 42,
          "time": 33.11999999999997,
          "velocity": 0.6929133858267716,
          "duration": 0.11999999999999744
        },
        {
          "name": "D2",
          "midi": 38,
          "time": 33.11999999999997,
          "velocity": 0.5354330708661418,
          "duration": 0.11999999999999744
        },
        {
          "name": "F#2",
          "midi": 42,
          "time": 33.359999999999964,
          "velocity": 0.5984251968503937,
          "duration": 0.11999999999999744
        },
        {
          "name": "C2",
          "midi": 36,
          "time": 33.59999999999996,
          "velocity": 0.9133858267716536,
          "duration": 0.11999999999999744
        },
        {
          "name": "F#2",
          "midi": 42,
          "time": 33.59999999999996,
          "velocity": 0.6929133858267716,
          "duration": 0.11999999999999744
        },
        {
          "name": "F#2",
          "midi": 42,
          "time": 33.839999999999954,
          "velocity": 0.5984251968503937,
          "duration": 0.11999999999999744
        },
        {
          "name": "C2",
          "midi": 36,
          "time": 34.07999999999995,
          "velocity": 0.9133858267716536,
          "duration": 0.11999999999999744
        },
        {
          "name": "D#2",
          "midi": 39,
          "time": 34.07999999999995,
          "velocity": 0.6929133858267716,
          "duration": 0.11999999999999744
        },
        {
          "name": "F#2",
          "midi": 42,
          "time": 34.07999999999995,
          "velocity": 0.6929133858267716,
          "duration": 0.11999999999999744
        },
        {
          "name": "D2",
          "midi": 38,
          "time": 34.07999999999995,
          "velocity": 0.5354330708661418,
          "duration": 0.11999999999999744
        },
        {
          "name": "F#2",
          "midi": 42,
          "time": 34.31999999999994,
          "velocity": 0.5984251968503937,
          "duration": 0.11999999999999744
        },
        {
          "name": "F#2",
          "midi": 42,
          "time": 34.55999999999994,
          "velocity": 0.6929133858267716,
          "duration": 0.11999999999999744
        },
        {
          "name": "C2",
          "midi": 36,
          "time": 34.55999999999994,
          "velocity": 0.9133858267716536,
          "duration": 0.11999999999999744
        },
        {
          "name": "F#2",
          "midi": 42,
          "time": 34.79999999999993,
          "velocity": 0.5984251968503937,
          "duration": 0.11999999999999744
        },
        {
          "name": "C2",
          "midi": 36,
          "time": 35.03999999999993,
          "velocity": 0.9133858267716536,
          "duration": 0.11999999999999744
        },
        {
          "name": "D#2",
          "midi": 39,
          "time": 35.03999999999993,
          "velocity": 0.6929133858267716,
          "duration": 0.11999999999999744
        },
        {
          "name": "F#2",
          "midi": 42,
          "time": 35.03999999999993,
          "velocity": 0.6929133858267716,
          "duration": 0.11999999999999744
        },
        {
          "name": "D2",
          "midi": 38,
          "time": 35.03999999999993,
          "velocity": 0.5354330708661418,
          "duration": 0.11999999999999744
        },
        {
          "name": "F#2",
          "midi": 42,
          "time": 35.27999999999992,
          "velocity": 0.5984251968503937,
          "duration": 0.11999999999999744
        },
        {
          "name": "C2",
          "midi": 36,
          "time": 35.51999999999992,
          "velocity": 0.9133858267716536,
          "duration": 0.11999999999999744
        },
        {
          "name": "F#2",
          "midi": 42,
          "time": 35.51999999999992,
          "velocity": 0.6929133858267716,
          "duration": 0.11999999999999744
        },
        {
          "name": "F#2",
          "midi": 42,
          "time": 35.75999999999991,
          "velocity": 0.5984251968503937,
          "duration": 0.11999999999999744
        },
        {
          "name": "C2",
          "midi": 36,
          "time": 35.99999999999991,
          "velocity": 0.9133858267716536,
          "duration": 0.11999999999999744
        },
        {
          "name": "D#2",
          "midi": 39,
          "time": 35.99999999999991,
          "velocity": 0.6929133858267716,
          "duration": 0.11999999999999744
        },
        {
          "name": "F#2",
          "midi": 42,
          "time": 35.99999999999991,
          "velocity": 0.6929133858267716,
          "duration": 0.11999999999999744
        },
        {
          "name": "D2",
          "midi": 38,
          "time": 35.99999999999991,
          "velocity": 0.5354330708661418,
          "duration": 0.11999999999999744
        },
        {
          "name": "F#2",
          "midi": 42,
          "time": 36.2399999999999,
          "velocity": 0.5984251968503937,
          "duration": 0.11999999999999744
        },
        {
          "name": "F#2",
          "midi": 42,
          "time": 36.4799999999999,
          "velocity": 0.6929133858267716,
          "duration": 0.11999999999999744
        },
        {
          "name": "C2",
          "midi": 36,
          "time": 36.4799999999999,
          "velocity": 0.9133858267716536,
          "duration": 0.11999999999999744
        },
        {
          "name": "F#2",
          "midi": 42,
          "time": 36.71999999999989,
          "velocity": 0.5984251968503937,
          "duration": 0.11999999999999744
        },
        {
          "name": "F#2",
          "midi": 42,
          "time": 36.95999999999989,
          "velocity": 0.6929133858267716,
          "duration": 0.11999999999999744
        },
        {
          "name": "D#2",
          "midi": 39,
          "time": 36.95999999999989,
          "velocity": 0.6929133858267716,
          "duration": 0.11999999999999744
        },
        {
          "name": "C2",
          "midi": 36,
          "time": 36.95999999999989,
          "velocity": 0.9133858267716536,
          "duration": 0.11999999999999744
        },
        {
          "name": "D2",
          "midi": 38,
          "time": 36.95999999999989,
          "velocity": 0.5354330708661418,
          "duration": 0.11999999999999744
        },
        {
          "name": "F#2",
          "midi": 42,
          "time": 37.19999999999988,
          "velocity": 0.5984251968503937,
          "duration": 0.11999999999999744
        },
        {
          "name": "F#2",
          "midi": 42,
          "time": 37.43999999999988,
          "velocity": 0.6929133858267716,
          "duration": 0.11999999999999744
        },
        {
          "name": "C2",
          "midi": 36,
          "time": 37.43999999999988,
          "velocity": 0.9133858267716536,
          "duration": 0.11999999999999744
        },
        {
          "name": "F#2",
          "midi": 42,
          "time": 37.67999999999987,
          "velocity": 0.5984251968503937,
          "duration": 0.11999999999999744
        },
        {
          "name": "F#2",
          "midi": 42,
          "time": 37.91999999999987,
          "velocity": 0.6929133858267716,
          "duration": 0.11999999999999744
        },
        {
          "name": "D#2",
          "midi": 39,
          "time": 37.91999999999987,
          "velocity": 0.6929133858267716,
          "duration": 0.11999999999999744
        },
        {
          "name": "C2",
          "midi": 36,
          "time": 37.91999999999987,
          "velocity": 0.9133858267716536,
          "duration": 0.11999999999999744
        },
        {
          "name": "D2",
          "midi": 38,
          "time": 37.91999999999987,
          "velocity": 0.5354330708661418,
          "duration": 0.11999999999999744
        },
        {
          "name": "F#2",
          "midi": 42,
          "time": 38.15999999999986,
          "velocity": 0.5039370078740157,
          "duration": 0.11999999999999744
        },
        {
          "name": "C2",
          "midi": 36,
          "time": 38.39999999999986,
          "velocity": 0.9133858267716536,
          "duration": 0.11999999999999744
        },
        {
          "name": "F#2",
          "midi": 42,
          "time": 38.39999999999986,
          "velocity": 0.6929133858267716,
          "duration": 0.11999999999999744
        },
        {
          "name": "F#2",
          "midi": 42,
          "time": 38.63999999999985,
          "velocity": 0.5984251968503937,
          "duration": 0.11999999999999744
        },
        {
          "name": "C2",
          "midi": 36,
          "time": 38.879999999999846,
          "velocity": 0.9133858267716536,
          "duration": 0.11999999999999744
        },
        {
          "name": "D#2",
          "midi": 39,
          "time": 38.879999999999846,
          "velocity": 0.6929133858267716,
          "duration": 0.11999999999999744
        },
        {
          "name": "F#2",
          "midi": 42,
          "time": 38.879999999999846,
          "velocity": 0.6929133858267716,
          "duration": 0.11999999999999744
        },
        {
          "name": "D2",
          "midi": 38,
          "time": 38.879999999999846,
          "velocity": 0.5354330708661418,
          "duration": 0.11999999999999744
        },
        {
          "name": "F#2",
          "midi": 42,
          "time": 39.11999999999984,
          "velocity": 0.5984251968503937,
          "duration": 0.11999999999999744
        },
        {
          "name": "C2",
          "midi": 36,
          "time": 39.359999999999836,
          "velocity": 0.9133858267716536,
          "duration": 0.11999999999999744
        },
        {
          "name": "F#2",
          "midi": 42,
          "time": 39.359999999999836,
          "velocity": 0.6929133858267716,
          "duration": 0.11999999999999744
        },
        {
          "name": "F#2",
          "midi": 42,
          "time": 39.59999999999983,
          "velocity": 0.5984251968503937,
          "duration": 0.11999999999999744
        },
        {
          "name": "C2",
          "midi": 36,
          "time": 39.839999999999826,
          "velocity": 0.9133858267716536,
          "duration": 0.11999999999999744
        },
        {
          "name": "D#2",
          "midi": 39,
          "time": 39.839999999999826,
          "velocity": 0.6929133858267716,
          "duration": 0.11999999999999744
        },
        {
          "name": "F#2",
          "midi": 42,
          "time": 39.839999999999826,
          "velocity": 0.6929133858267716,
          "duration": 0.11999999999999744
        },
        {
          "name": "D2",
          "midi": 38,
          "time": 39.839999999999826,
          "velocity": 0.5354330708661418,
          "duration": 0.11999999999999744
        },
        {
          "name": "F#2",
          "midi": 42,
          "time": 40.07999999999982,
          "velocity": 0.5984251968503937,
          "duration": 0.11999999999999744
        },
        {
          "name": "F#2",
          "midi": 42,
          "time": 40.319999999999816,
          "velocity": 0.6929133858267716,
          "duration": 0.11999999999999744
        },
        {
          "name": "C2",
          "midi": 36,
          "time": 40.319999999999816,
          "velocity": 0.9133858267716536,
          "duration": 0.11999999999999744
        },
        {
          "name": "F#2",
          "midi": 42,
          "time": 40.55999999999981,
          "velocity": 0.5984251968503937,
          "duration": 0.11999999999999744
        },
        {
          "name": "C2",
          "midi": 36,
          "time": 40.799999999999805,
          "velocity": 0.9133858267716536,
          "duration": 0.11999999999999744
        },
        {
          "name": "D#2",
          "midi": 39,
          "time": 40.799999999999805,
          "velocity": 0.6929133858267716,
          "duration": 0.11999999999999744
        },
        {
          "name": "F#2",
          "midi": 42,
          "time": 40.799999999999805,
          "velocity": 0.6929133858267716,
          "duration": 0.11999999999999744
        },
        {
          "name": "D2",
          "midi": 38,
          "time": 40.799999999999805,
          "velocity": 0.5354330708661418,
          "duration": 0.11999999999999744
        },
        {
          "name": "F#2",
          "midi": 42,
          "time": 41.0399999999998,
          "velocity": 0.5984251968503937,
          "duration": 0.11999999999999744
        },
        {
          "name": "C2",
          "midi": 36,
          "time": 41.279999999999795,
          "velocity": 0.9133858267716536,
          "duration": 0.11999999999999744
        },
        {
          "name": "F#2",
          "midi": 42,
          "time": 41.279999999999795,
          "velocity": 0.6929133858267716,
          "duration": 0.11999999999999744
        },
        {
          "name": "F#2",
          "midi": 42,
          "time": 41.51999999999979,
          "velocity": 0.5984251968503937,
          "duration": 0.11999999999999744
        },
        {
          "name": "C2",
          "midi": 36,
          "time": 41.759999999999785,
          "velocity": 0.9133858267716536,
          "duration": 0.11999999999999744
        },
        {
          "name": "D#2",
          "midi": 39,
          "time": 41.759999999999785,
          "velocity": 0.6929133858267716,
          "duration": 0.11999999999999744
        },
        {
          "name": "F#2",
          "midi": 42,
          "time": 41.759999999999785,
          "velocity": 0.6929133858267716,
          "duration": 0.11999999999999744
        },
        {
          "name": "D2",
          "midi": 38,
          "time": 41.759999999999785,
          "velocity": 0.5354330708661418,
          "duration": 0.11999999999999744
        },
        {
          "name": "F#2",
          "midi": 42,
          "time": 41.99999999999978,
          "velocity": 0.5984251968503937,
          "duration": 0.11999999999999744
        },
        {
          "name": "F#2",
          "midi": 42,
          "time": 42.239999999999775,
          "velocity": 0.6929133858267716,
          "duration": 0.11999999999999744
        },
        {
          "name": "C2",
          "midi": 36,
          "time": 42.239999999999775,
          "velocity": 0.9133858267716536,
          "duration": 0.11999999999999744
        },
        {
          "name": "F#2",
          "midi": 42,
          "time": 42.47999999999977,
          "velocity": 0.5984251968503937,
          "duration": 0.11999999999999744
        },
        {
          "name": "C2",
          "midi": 36,
          "time": 42.719999999999764,
          "velocity": 0.9133858267716536,
          "duration": 0.11999999999999744
        },
        {
          "name": "D#2",
          "midi": 39,
          "time": 42.719999999999764,
          "velocity": 0.6929133858267716,
          "duration": 0.11999999999999744
        },
        {
          "name": "F#2",
          "midi": 42,
          "time": 42.719999999999764,
          "velocity": 0.6929133858267716,
          "duration": 0.11999999999999744
        },
        {
          "name": "D2",
          "midi": 38,
          "time": 42.719999999999764,
          "velocity": 0.5354330708661418,
          "duration": 0.11999999999999744
        },
        {
          "name": "F#2",
          "midi": 42,
          "time": 42.95999999999976,
          "velocity": 0.5984251968503937,
          "duration": 0.11999999999999744
        },
        {
          "name": "C2",
          "midi": 36,
          "time": 43.199999999999754,
          "velocity": 0.9133858267716536,
          "duration": 0.11999999999999744
        },
        {
          "name": "F#2",
          "midi": 42,
          "time": 43.199999999999754,
          "velocity": 0.6929133858267716,
          "duration": 0.11999999999999744
        },
        {
          "name": "F#2",
          "midi": 42,
          "time": 43.43999999999975,
          "velocity": 0.5984251968503937,
          "duration": 0.11999999999999744
        },
        {
          "name": "C2",
          "midi": 36,
          "time": 43.679999999999744,
          "velocity": 0.9133858267716536,
          "duration": 0.11999999999999744
        },
        {
          "name": "D#2",
          "midi": 39,
          "time": 43.679999999999744,
          "velocity": 0.6929133858267716,
          "duration": 0.11999999999999744
        },
        {
          "name": "F#2",
          "midi": 42,
          "time": 43.679999999999744,
          "velocity": 0.6929133858267716,
          "duration": 0.11999999999999744
        },
        {
          "name": "D2",
          "midi": 38,
          "time": 43.679999999999744,
          "velocity": 0.5354330708661418,
          "duration": 0.11999999999999744
        },
        {
          "name": "F#2",
          "midi": 42,
          "time": 43.91999999999974,
          "velocity": 0.5984251968503937,
          "duration": 0.11999999999999744
        },
        {
          "name": "F#2",
          "midi": 42,
          "time": 44.159999999999734,
          "velocity": 0.6929133858267716,
          "duration": 0.11999999999999744
        },
        {
          "name": "C2",
          "midi": 36,
          "time": 44.159999999999734,
          "velocity": 0.9133858267716536,
          "duration": 0.11999999999999744
        },
        {
          "name": "F#2",
          "midi": 42,
          "time": 44.39999999999973,
          "velocity": 0.5984251968503937,
          "duration": 0.11999999999999744
        },
        {
          "name": "C2",
          "midi": 36,
          "time": 44.63999999999972,
          "velocity": 0.9133858267716536,
          "duration": 0.11999999999999744
        },
        {
          "name": "D#2",
          "midi": 39,
          "time": 44.63999999999972,
          "velocity": 0.6929133858267716,
          "duration": 0.11999999999999744
        },
        {
          "name": "F#2",
          "midi": 42,
          "time": 44.63999999999972,
          "velocity": 0.6929133858267716,
          "duration": 0.11999999999999744
        },
        {
          "name": "D2",
          "midi": 38,
          "time": 44.63999999999972,
          "velocity": 0.5354330708661418,
          "duration": 0.11999999999999744
        },
        {
          "name": "F#2",
          "midi": 42,
          "time": 44.87999999999972,
          "velocity": 0.5984251968503937,
          "duration": 0.11999999999999744
        },
        {
          "name": "C2",
          "midi": 36,
          "time": 45.11999999999971,
          "velocity": 0.9133858267716536,
          "duration": 0.11999999999999744
        },
        {
          "name": "F#2",
          "midi": 42,
          "time": 45.11999999999971,
          "velocity": 0.6929133858267716,
          "duration": 0.11999999999999744
        },
        {
          "name": "F#2",
          "midi": 42,
          "time": 45.35999999999971,
          "velocity": 0.5984251968503937,
          "duration": 0.11999999999999744
        },
        {
          "name": "C2",
          "midi": 36,
          "time": 45.5999999999997,
          "velocity": 0.9133858267716536,
          "duration": 0.11999999999999744
        },
        {
          "name": "D#2",
          "midi": 39,
          "time": 45.5999999999997,
          "velocity": 0.6929133858267716,
          "duration": 0.11999999999999744
        },
        {
          "name": "F#2",
          "midi": 42,
          "time": 45.5999999999997,
          "velocity": 0.6929133858267716,
          "duration": 0.11999999999999744
        },
        {
          "name": "D2",
          "midi": 38,
          "time": 45.5999999999997,
          "velocity": 0.5354330708661418,
          "duration": 0.11999999999999744
        },
        {
          "name": "F#2",
          "midi": 42,
          "time": 45.8399999999997,
          "velocity": 0.5984251968503937,
          "duration": 0.11999999999999744
        },
        {
          "name": "F#2",
          "midi": 42,
          "time": 46.07999999999969,
          "velocity": 0.6929133858267716,
          "duration": 0.11999999999999744
        },
        {
          "name": "C2",
          "midi": 36,
          "time": 46.07999999999969,
          "velocity": 0.9133858267716536,
          "duration": 0.11999999999999744
        },
        {
          "name": "F#2",
          "midi": 42,
          "time": 46.31999999999969,
          "velocity": 0.5984251968503937,
          "duration": 0.11999999999999744
        },
        {
          "name": "C2",
          "midi": 36,
          "time": 46.55999999999968,
          "velocity": 0.9133858267716536,
          "duration": 0.11999999999999744
        },
        {
          "name": "D#2",
          "midi": 39,
          "time": 46.55999999999968,
          "velocity": 0.6929133858267716,
          "duration": 0.11999999999999744
        },
        {
          "name": "F#2",
          "midi": 42,
          "time": 46.55999999999968,
          "velocity": 0.6929133858267716,
          "duration": 0.11999999999999744
        },
        {
          "name": "D2",
          "midi": 38,
          "time": 46.55999999999968,
          "velocity": 0.5354330708661418,
          "duration": 0.11999999999999744
        },
        {
          "name": "F#2",
          "midi": 42,
          "time": 46.79999999999968,
          "velocity": 0.5984251968503937,
          "duration": 0.11999999999999744
        },
        {
          "name": "C2",
          "midi": 36,
          "time": 47.03999999999967,
          "velocity": 0.9133858267716536,
          "duration": 0.11999999999999744
        },
        {
          "name": "F#2",
          "midi": 42,
          "time": 47.03999999999967,
          "velocity": 0.6929133858267716,
          "duration": 0.11999999999999744
        },
        {
          "name": "F#2",
          "midi": 42,
          "time": 47.27999999999967,
          "velocity": 0.5984251968503937,
          "duration": 0.11999999999999744
        },
        {
          "name": "C2",
          "midi": 36,
          "time": 47.51999999999966,
          "velocity": 0.9133858267716536,
          "duration": 0.11999999999999744
        },
        {
          "name": "D#2",
          "midi": 39,
          "time": 47.51999999999966,
          "velocity": 0.6929133858267716,
          "duration": 0.11999999999999744
        },
        {
          "name": "F#2",
          "midi": 42,
          "time": 47.51999999999966,
          "velocity": 0.6929133858267716,
          "duration": 0.11999999999999744
        },
        {
          "name": "D2",
          "midi": 38,
          "time": 47.51999999999966,
          "velocity": 0.5354330708661418,
          "duration": 0.11999999999999744
        },
        {
          "name": "F#2",
          "midi": 42,
          "time": 47.75999999999966,
          "velocity": 0.5984251968503937,
          "duration": 0.11999999999999744
        },
        {
          "name": "F#2",
          "midi": 42,
          "time": 47.99999999999965,
          "velocity": 0.6929133858267716,
          "duration": 0.11999999999999744
        },
        {
          "name": "C2",
          "midi": 36,
          "time": 47.99999999999965,
          "velocity": 0.9133858267716536,
          "duration": 0.11999999999999744
        },
        {
          "name": "F#2",
          "midi": 42,
          "time": 48.23999999999965,
          "velocity": 0.5984251968503937,
          "duration": 0.11999999999999744
        },
        {
          "name": "C2",
          "midi": 36,
          "time": 48.47999999999964,
          "velocity": 0.9133858267716536,
          "duration": 0.11999999999999744
        },
        {
          "name": "D#2",
          "midi": 39,
          "time": 48.47999999999964,
          "velocity": 0.6929133858267716,
          "duration": 0.11999999999999744
        },
        {
          "name": "F#2",
          "midi": 42,
          "time": 48.47999999999964,
          "velocity": 0.6929133858267716,
          "duration": 0.11999999999999744
        },
        {
          "name": "D2",
          "midi": 38,
          "time": 48.47999999999964,
          "velocity": 0.5354330708661418,
          "duration": 0.11999999999999744
        },
        {
          "name": "F#2",
          "midi": 42,
          "time": 48.71999999999964,
          "velocity": 0.5984251968503937,
          "duration": 0.11999999999999744
        },
        {
          "name": "C2",
          "midi": 36,
          "time": 48.95999999999963,
          "velocity": 0.9133858267716536,
          "duration": 0.11999999999999744
        },
        {
          "name": "F#2",
          "midi": 42,
          "time": 48.95999999999963,
          "velocity": 0.6929133858267716,
          "duration": 0.11999999999999744
        },
        {
          "name": "F#2",
          "midi": 42,
          "time": 49.199999999999626,
          "velocity": 0.5984251968503937,
          "duration": 0.11999999999999744
        },
        {
          "name": "C2",
          "midi": 36,
          "time": 49.43999999999962,
          "velocity": 0.9133858267716536,
          "duration": 0.11999999999999744
        },
        {
          "name": "D#2",
          "midi": 39,
          "time": 49.43999999999962,
          "velocity": 0.6929133858267716,
          "duration": 0.11999999999999744
        },
        {
          "name": "F#2",
          "midi": 42,
          "time": 49.43999999999962,
          "velocity": 0.6929133858267716,
          "duration": 0.11999999999999744
        },
        {
          "name": "D2",
          "midi": 38,
          "time": 49.43999999999962,
          "velocity": 0.5354330708661418,
          "duration": 0.11999999999999744
        },
        {
          "name": "F#2",
          "midi": 42,
          "time": 49.679999999999616,
          "velocity": 0.5984251968503937,
          "duration": 0.11999999999999744
        },
        {
          "name": "F#2",
          "midi": 42,
          "time": 49.91999999999961,
          "velocity": 0.6929133858267716,
          "duration": 0.11999999999999744
        },
        {
          "name": "C2",
          "midi": 36,
          "time": 49.91999999999961,
          "velocity": 0.9133858267716536,
          "duration": 0.11999999999999744
        },
        {
          "name": "F#2",
          "midi": 42,
          "time": 50.159999999999606,
          "velocity": 0.5984251968503937,
          "duration": 0.11999999999999744
        },
        {
          "name": "C2",
          "midi": 36,
          "time": 50.3999999999996,
          "velocity": 0.9133858267716536,
          "duration": 0.11999999999999744
        },
        {
          "name": "D#2",
          "midi": 39,
          "time": 50.3999999999996,
          "velocity": 0.6929133858267716,
          "duration": 0.11999999999999744
        },
        {
          "name": "F#2",
          "midi": 42,
          "time": 50.3999999999996,
          "velocity": 0.6929133858267716,
          "duration": 0.11999999999999744
        },
        {
          "name": "D2",
          "midi": 38,
          "time": 50.3999999999996,
          "velocity": 0.5354330708661418,
          "duration": 0.11999999999999744
        },
        {
          "name": "F#2",
          "midi": 42,
          "time": 50.639999999999596,
          "velocity": 0.5984251968503937,
          "duration": 0.11999999999999744
        },
        {
          "name": "C2",
          "midi": 36,
          "time": 50.87999999999959,
          "velocity": 0.9133858267716536,
          "duration": 0.11999999999999744
        },
        {
          "name": "F#2",
          "midi": 42,
          "time": 50.87999999999959,
          "velocity": 0.6929133858267716,
          "duration": 0.11999999999999744
        },
        {
          "name": "F#2",
          "midi": 42,
          "time": 51.119999999999585,
          "velocity": 0.5984251968503937,
          "duration": 0.11999999999999744
        },
        {
          "name": "C2",
          "midi": 36,
          "time": 51.35999999999958,
          "velocity": 0.9133858267716536,
          "duration": 0.11999999999999744
        },
        {
          "name": "D#2",
          "midi": 39,
          "time": 51.35999999999958,
          "velocity": 0.6929133858267716,
          "duration": 0.11999999999999744
        },
        {
          "name": "F#2",
          "midi": 42,
          "time": 51.35999999999958,
          "velocity": 0.6929133858267716,
          "duration": 0.11999999999999744
        },
        {
          "name": "D2",
          "midi": 38,
          "time": 51.35999999999958,
          "velocity": 0.5354330708661418,
          "duration": 0.11999999999999744
        },
        {
          "name": "F#2",
          "midi": 42,
          "time": 51.599999999999575,
          "velocity": 0.5984251968503937,
          "duration": 0.11999999999999744
        },
        {
          "name": "F#2",
          "midi": 42,
          "time": 51.83999999999957,
          "velocity": 0.6929133858267716,
          "duration": 0.11999999999999744
        },
        {
          "name": "C2",
          "midi": 36,
          "time": 51.83999999999957,
          "velocity": 0.9133858267716536,
          "duration": 0.11999999999999744
        },
        {
          "name": "F#2",
          "midi": 42,
          "time": 52.079999999999565,
          "velocity": 0.5984251968503937,
          "duration": 0.11999999999999744
        },
        {
          "name": "F#2",
          "midi": 42,
          "time": 52.31999999999956,
          "velocity": 0.6929133858267716,
          "duration": 0.11999999999999744
        },
        {
          "name": "D#2",
          "midi": 39,
          "time": 52.31999999999956,
          "velocity": 0.6929133858267716,
          "duration": 0.11999999999999744
        },
        {
          "name": "C2",
          "midi": 36,
          "time": 52.31999999999956,
          "velocity": 0.9133858267716536,
          "duration": 0.11999999999999744
        },
        {
          "name": "D2",
          "midi": 38,
          "time": 52.31999999999956,
          "velocity": 0.5354330708661418,
          "duration": 0.11999999999999744
        },
        {
          "name": "F#2",
          "midi": 42,
          "time": 52.559999999999555,
          "velocity": 0.5984251968503937,
          "duration": 0.11999999999999744
        },
        {
          "name": "F#2",
          "midi": 42,
          "time": 52.79999999999955,
          "velocity": 0.6929133858267716,
          "duration": 0.11999999999999744
        },
        {
          "name": "C2",
          "midi": 36,
          "time": 52.79999999999955,
          "velocity": 0.9133858267716536,
          "duration": 0.11999999999999744
        },
        {
          "name": "F#2",
          "midi": 42,
          "time": 53.039999999999544,
          "velocity": 0.5984251968503937,
          "duration": 0.11999999999999744
        },
        {
          "name": "F#2",
          "midi": 42,
          "time": 53.27999999999954,
          "velocity": 0.6929133858267716,
          "duration": 0.11999999999999744
        },
        {
          "name": "D#2",
          "midi": 39,
          "time": 53.27999999999954,
          "velocity": 0.6929133858267716,
          "duration": 0.11999999999999744
        },
        {
          "name": "C2",
          "midi": 36,
          "time": 53.27999999999954,
          "velocity": 0.9133858267716536,
          "duration": 0.11999999999999744
        },
        {
          "name": "D2",
          "midi": 38,
          "time": 53.27999999999954,
          "velocity": 0.5354330708661418,
          "duration": 0.11999999999999744
        },
        {
          "name": "F#2",
          "midi": 42,
          "time": 53.519999999999534,
          "velocity": 0.5039370078740157,
          "duration": 0.11999999999999744
        },
        {
          "name": "C2",
          "midi": 36,
          "time": 53.75999999999953,
          "velocity": 0.9133858267716536,
          "duration": 0.11999999999999744
        },
        {
          "name": "F#2",
          "midi": 42,
          "time": 53.75999999999953,
          "velocity": 0.6929133858267716,
          "duration": 0.11999999999999744
        },
        {
          "name": "F#2",
          "midi": 42,
          "time": 53.999999999999524,
          "velocity": 0.5984251968503937,
          "duration": 0.11999999999999744
        },
        {
          "name": "C2",
          "midi": 36,
          "time": 54.23999999999952,
          "velocity": 0.9133858267716536,
          "duration": 0.11999999999999744
        },
        {
          "name": "D#2",
          "midi": 39,
          "time": 54.23999999999952,
          "velocity": 0.6929133858267716,
          "duration": 0.11999999999999744
        },
        {
          "name": "F#2",
          "midi": 42,
          "time": 54.23999999999952,
          "velocity": 0.6929133858267716,
          "duration": 0.11999999999999744
        },
        {
          "name": "D2",
          "midi": 38,
          "time": 54.23999999999952,
          "velocity": 0.5354330708661418,
          "duration": 0.11999999999999744
        },
        {
          "name": "F#2",
          "midi": 42,
          "time": 54.479999999999514,
          "velocity": 0.5984251968503937,
          "duration": 0.11999999999999744
        },
        {
          "name": "C2",
          "midi": 36,
          "time": 54.71999999999951,
          "velocity": 0.9133858267716536,
          "duration": 0.11999999999999744
        },
        {
          "name": "F#2",
          "midi": 42,
          "time": 54.71999999999951,
          "velocity": 0.6929133858267716,
          "duration": 0.11999999999999744
        },
        {
          "name": "F#2",
          "midi": 42,
          "time": 54.9599999999995,
          "velocity": 0.5984251968503937,
          "duration": 0.11999999999999744
        },
        {
          "name": "C2",
          "midi": 36,
          "time": 55.1999999999995,
          "velocity": 0.9133858267716536,
          "duration": 0.11999999999999744
        },
        {
          "name": "D#2",
          "midi": 39,
          "time": 55.1999999999995,
          "velocity": 0.6929133858267716,
          "duration": 0.11999999999999744
        },
        {
          "name": "F#2",
          "midi": 42,
          "time": 55.1999999999995,
          "velocity": 0.6929133858267716,
          "duration": 0.11999999999999744
        },
        {
          "name": "D2",
          "midi": 38,
          "time": 55.1999999999995,
          "velocity": 0.5354330708661418,
          "duration": 0.11999999999999744
        },
        {
          "name": "F#2",
          "midi": 42,
          "time": 55.43999999999949,
          "velocity": 0.5984251968503937,
          "duration": 0.11999999999999744
        },
        {
          "name": "F#2",
          "midi": 42,
          "time": 55.67999999999949,
          "velocity": 0.6929133858267716,
          "duration": 0.11999999999999744
        },
        {
          "name": "C2",
          "midi": 36,
          "time": 55.67999999999949,
          "velocity": 0.9133858267716536,
          "duration": 0.11999999999999744
        },
        {
          "name": "F#2",
          "midi": 42,
          "time": 55.91999999999948,
          "velocity": 0.5984251968503937,
          "duration": 0.11999999999999744
        },
        {
          "name": "C2",
          "midi": 36,
          "time": 56.15999999999948,
          "velocity": 0.9133858267716536,
          "duration": 0.11999999999999744
        },
        {
          "name": "D#2",
          "midi": 39,
          "time": 56.15999999999948,
          "velocity": 0.6929133858267716,
          "duration": 0.11999999999999744
        },
        {
          "name": "F#2",
          "midi": 42,
          "time": 56.15999999999948,
          "velocity": 0.6929133858267716,
          "duration": 0.11999999999999744
        },
        {
          "name": "D2",
          "midi": 38,
          "time": 56.15999999999948,
          "velocity": 0.5354330708661418,
          "duration": 0.11999999999999744
        },
        {
          "name": "F#2",
          "midi": 42,
          "time": 56.39999999999947,
          "velocity": 0.5984251968503937,
          "duration": 0.11999999999999744
        },
        {
          "name": "C2",
          "midi": 36,
          "time": 56.63999999999947,
          "velocity": 0.9133858267716536,
          "duration": 0.11999999999999744
        },
        {
          "name": "F#2",
          "midi": 42,
          "time": 56.63999999999947,
          "velocity": 0.6929133858267716,
          "duration": 0.11999999999999744
        },
        {
          "name": "F#2",
          "midi": 42,
          "time": 56.87999999999946,
          "velocity": 0.5984251968503937,
          "duration": 0.11999999999999744
        },
        {
          "name": "C2",
          "midi": 36,
          "time": 57.11999999999946,
          "velocity": 0.9133858267716536,
          "duration": 0.11999999999999744
        },
        {
          "name": "D#2",
          "midi": 39,
          "time": 57.11999999999946,
          "velocity": 0.6929133858267716,
          "duration": 0.11999999999999744
        },
        {
          "name": "F#2",
          "midi": 42,
          "time": 57.11999999999946,
          "velocity": 0.6929133858267716,
          "duration": 0.11999999999999744
        },
        {
          "name": "D2",
          "midi": 38,
          "time": 57.11999999999946,
          "velocity": 0.5354330708661418,
          "duration": 0.11999999999999744
        },
        {
          "name": "F#2",
          "midi": 42,
          "time": 57.35999999999945,
          "velocity": 0.5984251968503937,
          "duration": 0.11999999999999744
        },
        {
          "name": "F#2",
          "midi": 42,
          "time": 57.59999999999945,
          "velocity": 0.6929133858267716,
          "duration": 0.11999999999999744
        },
        {
          "name": "C2",
          "midi": 36,
          "time": 57.59999999999945,
          "velocity": 0.9133858267716536,
          "duration": 0.11999999999999744
        },
        {
          "name": "F#2",
          "midi": 42,
          "time": 57.83999999999944,
          "velocity": 0.5984251968503937,
          "duration": 0.11999999999999744
        },
        {
          "name": "C2",
          "midi": 36,
          "time": 58.07999999999944,
          "velocity": 0.9133858267716536,
          "duration": 0.11999999999999744
        },
        {
          "name": "D#2",
          "midi": 39,
          "time": 58.07999999999944,
          "velocity": 0.6929133858267716,
          "duration": 0.11999999999999744
        },
        {
          "name": "F#2",
          "midi": 42,
          "time": 58.07999999999944,
          "velocity": 0.6929133858267716,
          "duration": 0.11999999999999744
        },
        {
          "name": "D2",
          "midi": 38,
          "time": 58.07999999999944,
          "velocity": 0.5354330708661418,
          "duration": 0.11999999999999744
        },
        {
          "name": "F#2",
          "midi": 42,
          "time": 58.31999999999943,
          "velocity": 0.5984251968503937,
          "duration": 0.11999999999999744
        },
        {
          "name": "C2",
          "midi": 36,
          "time": 58.55999999999943,
          "velocity": 0.9133858267716536,
          "duration": 0.11999999999999744
        },
        {
          "name": "F#2",
          "midi": 42,
          "time": 58.55999999999943,
          "velocity": 0.6929133858267716,
          "duration": 0.11999999999999744
        },
        {
          "name": "F#2",
          "midi": 42,
          "time": 58.79999999999942,
          "velocity": 0.5984251968503937,
          "duration": 0.11999999999999744
        },
        {
          "name": "C2",
          "midi": 36,
          "time": 59.03999999999942,
          "velocity": 0.9133858267716536,
          "duration": 0.11999999999999744
        },
        {
          "name": "D#2",
          "midi": 39,
          "time": 59.03999999999942,
          "velocity": 0.6929133858267716,
          "duration": 0.11999999999999744
        },
        {
          "name": "F#2",
          "midi": 42,
          "time": 59.03999999999942,
          "velocity": 0.6929133858267716,
          "duration": 0.11999999999999744
        },
        {
          "name": "D2",
          "midi": 38,
          "time": 59.03999999999942,
          "velocity": 0.5354330708661418,
          "duration": 0.11999999999999744
        },
        {
          "name": "F#2",
          "midi": 42,
          "time": 59.27999999999941,
          "velocity": 0.5984251968503937,
          "duration": 0.11999999999999744
        },
        {
          "name": "F#2",
          "midi": 42,
          "time": 59.519999999999406,
          "velocity": 0.6929133858267716,
          "duration": 0.11999999999999744
        },
        {
          "name": "C2",
          "midi": 36,
          "time": 59.519999999999406,
          "velocity": 0.9133858267716536,
          "duration": 0.11999999999999744
        },
        {
          "name": "F#2",
          "midi": 42,
          "time": 59.7599999999994,
          "velocity": 0.5984251968503937,
          "duration": 0.11999999999999744
        },
        {
          "name": "C2",
          "midi": 36,
          "time": 59.999999999999396,
          "velocity": 0.9133858267716536,
          "duration": 0.11999999999999744
        },
        {
          "name": "D#2",
          "midi": 39,
          "time": 59.999999999999396,
          "velocity": 0.6929133858267716,
          "duration": 0.11999999999999744
        },
        {
          "name": "F#2",
          "midi": 42,
          "time": 59.999999999999396,
          "velocity": 0.6929133858267716,
          "duration": 0.11999999999999744
        },
        {
          "name": "D2",
          "midi": 38,
          "time": 59.999999999999396,
          "velocity": 0.5354330708661418,
          "duration": 0.11999999999999744
        },
        {
          "name": "F#2",
          "midi": 42,
          "time": 60.23999999999939,
          "velocity": 0.5984251968503937,
          "duration": 0.11999999999999744
        },
        {
          "name": "C2",
          "midi": 36,
          "time": 60.479999999999386,
          "velocity": 0.9133858267716536,
          "duration": 0.11999999999999744
        },
        {
          "name": "F#2",
          "midi": 42,
          "time": 60.479999999999386,
          "velocity": 0.6929133858267716,
          "duration": 0.11999999999999744
        },
        {
          "name": "F#2",
          "midi": 42,
          "time": 60.71999999999938,
          "velocity": 0.5984251968503937,
          "duration": 0.11999999999999744
        },
        {
          "name": "C2",
          "midi": 36,
          "time": 60.959999999999376,
          "velocity": 0.9133858267716536,
          "duration": 0.11999999999999744
        },
        {
          "name": "D#2",
          "midi": 39,
          "time": 60.959999999999376,
          "velocity": 0.6929133858267716,
          "duration": 0.11999999999999744
        },
        {
          "name": "F#2",
          "midi": 42,
          "time": 60.959999999999376,
          "velocity": 0.6929133858267716,
          "duration": 0.11999999999999744
        },
        {
          "name": "D2",
          "midi": 38,
          "time": 60.959999999999376,
          "velocity": 0.5354330708661418,
          "duration": 0.11999999999999744
        },
        {
          "name": "F#2",
          "midi": 42,
          "time": 61.19999999999937,
          "velocity": 0.5984251968503937,
          "duration": 0.11999999999999744
        },
        {
          "name": "F#2",
          "midi": 42,
          "time": 61.439999999999365,
          "velocity": 0.6929133858267716,
          "duration": 0.11999999999999744
        },
        {
          "name": "C2",
          "midi": 36,
          "time": 61.439999999999365,
          "velocity": 0.9133858267716536,
          "duration": 0.11999999999999744
        },
        {
          "name": "F#2",
          "midi": 42,
          "time": 61.67999999999936,
          "velocity": 0.5984251968503937,
          "duration": 0.11999999999999744
        },
        {
          "name": "C2",
          "midi": 36,
          "time": 61.919999999999355,
          "velocity": 0.9133858267716536,
          "duration": 0.11999999999999744
        },
        {
          "name": "D#2",
          "midi": 39,
          "time": 61.919999999999355,
          "velocity": 0.6929133858267716,
          "duration": 0.11999999999999744
        },
        {
          "name": "F#2",
          "midi": 42,
          "time": 61.919999999999355,
          "velocity": 0.6929133858267716,
          "duration": 0.11999999999999744
        },
        {
          "name": "D2",
          "midi": 38,
          "time": 61.919999999999355,
          "velocity": 0.5354330708661418,
          "duration": 0.11999999999999744
        },
        {
          "name": "F#2",
          "midi": 42,
          "time": 62.15999999999935,
          "velocity": 0.5984251968503937,
          "duration": 0.11999999999999744
        },
        {
          "name": "C2",
          "midi": 36,
          "time": 62.399999999999345,
          "velocity": 0.9133858267716536,
          "duration": 0.11999999999999744
        },
        {
          "name": "F#2",
          "midi": 42,
          "time": 62.399999999999345,
          "velocity": 0.6929133858267716,
          "duration": 0.11999999999999744
        },
        {
          "name": "F#2",
          "midi": 42,
          "time": 62.63999999999934,
          "velocity": 0.5984251968503937,
          "duration": 0.11999999999999744
        },
        {
          "name": "C2",
          "midi": 36,
          "time": 62.879999999999335,
          "velocity": 0.9133858267716536,
          "duration": 0.11999999999999744
        },
        {
          "name": "D#2",
          "midi": 39,
          "time": 62.879999999999335,
          "velocity": 0.6929133858267716,
          "duration": 0.11999999999999744
        },
        {
          "name": "F#2",
          "midi": 42,
          "time": 62.879999999999335,
          "velocity": 0.6929133858267716,
          "duration": 0.11999999999999744
        },
        {
          "name": "D2",
          "midi": 38,
          "time": 62.879999999999335,
          "velocity": 0.5354330708661418,
          "duration": 0.11999999999999744
        },
        {
          "name": "F#2",
          "midi": 42,
          "time": 63.11999999999933,
          "velocity": 0.5984251968503937,
          "duration": 0.11999999999999744
        },
        {
          "name": "F#2",
          "midi": 42,
          "time": 63.359999999999324,
          "velocity": 0.6929133858267716,
          "duration": 0.11999999999999744
        },
        {
          "name": "C2",
          "midi": 36,
          "time": 63.359999999999324,
          "velocity": 0.9133858267716536,
          "duration": 0.11999999999999744
        },
        {
          "name": "F#2",
          "midi": 42,
          "time": 63.59999999999932,
          "velocity": 0.5984251968503937,
          "duration": 0.11999999999999744
        },
        {
          "name": "C2",
          "midi": 36,
          "time": 63.839999999999314,
          "velocity": 0.9133858267716536,
          "duration": 0.11999999999999744
        },
        {
          "name": "D#2",
          "midi": 39,
          "time": 63.839999999999314,
          "velocity": 0.6929133858267716,
          "duration": 0.11999999999999744
        },
        {
          "name": "F#2",
          "midi": 42,
          "time": 63.839999999999314,
          "velocity": 0.6929133858267716,
          "duration": 0.11999999999999744
        },
        {
          "name": "D2",
          "midi": 38,
          "time": 63.839999999999314,
          "velocity": 0.5354330708661418,
          "duration": 0.11999999999999744
        },
        {
          "name": "F#2",
          "midi": 42,
          "time": 64.07999999999932,
          "velocity": 0.5984251968503937,
          "duration": 0.12000000000000455
        },
        {
          "name": "C2",
          "midi": 36,
          "time": 64.31999999999933,
          "velocity": 0.9133858267716536,
          "duration": 0.12000000000000455
        },
        {
          "name": "F#2",
          "midi": 42,
          "time": 64.31999999999933,
          "velocity": 0.6929133858267716,
          "duration": 0.12000000000000455
        },
        {
          "name": "F#2",
          "midi": 42,
          "time": 64.55999999999933,
          "velocity": 0.5984251968503937,
          "duration": 0.12000000000000455
        },
        {
          "name": "C2",
          "midi": 36,
          "time": 64.79999999999934,
          "velocity": 0.9133858267716536,
          "duration": 0.12000000000000455
        },
        {
          "name": "D#2",
          "midi": 39,
          "time": 64.79999999999934,
          "velocity": 0.6929133858267716,
          "duration": 0.12000000000000455
        },
        {
          "name": "F#2",
          "midi": 42,
          "time": 64.79999999999934,
          "velocity": 0.6929133858267716,
          "duration": 0.12000000000000455
        },
        {
          "name": "D2",
          "midi": 38,
          "time": 64.79999999999934,
          "velocity": 0.5354330708661418,
          "duration": 0.12000000000000455
        },
        {
          "name": "F#2",
          "midi": 42,
          "time": 65.03999999999935,
          "velocity": 0.5984251968503937,
          "duration": 0.12000000000000455
        },
        {
          "name": "F#2",
          "midi": 42,
          "time": 65.27999999999936,
          "velocity": 0.6929133858267716,
          "duration": 0.12000000000000455
        },
        {
          "name": "C2",
          "midi": 36,
          "time": 65.27999999999936,
          "velocity": 0.9133858267716536,
          "duration": 0.12000000000000455
        },
        {
          "name": "F#2",
          "midi": 42,
          "time": 65.51999999999937,
          "velocity": 0.5984251968503937,
          "duration": 0.12000000000000455
        },
        {
          "name": "C2",
          "midi": 36,
          "time": 65.75999999999938,
          "velocity": 0.9133858267716536,
          "duration": 0.12000000000000455
        },
        {
          "name": "D#2",
          "midi": 39,
          "time": 65.75999999999938,
          "velocity": 0.6929133858267716,
          "duration": 0.12000000000000455
        },
        {
          "name": "F#2",
          "midi": 42,
          "time": 65.75999999999938,
          "velocity": 0.6929133858267716,
          "duration": 0.12000000000000455
        },
        {
          "name": "D2",
          "midi": 38,
          "time": 65.75999999999938,
          "velocity": 0.5354330708661418,
          "duration": 0.12000000000000455
        },
        {
          "name": "F#2",
          "midi": 42,
          "time": 65.99999999999939,
          "velocity": 0.5984251968503937,
          "duration": 0.12000000000000455
        },
        {
          "name": "C2",
          "midi": 36,
          "time": 66.2399999999994,
          "velocity": 0.9133858267716536,
          "duration": 0.12000000000000455
        },
        {
          "name": "F#2",
          "midi": 42,
          "time": 66.2399999999994,
          "velocity": 0.6929133858267716,
          "duration": 0.12000000000000455
        },
        {
          "name": "F#2",
          "midi": 42,
          "time": 66.47999999999941,
          "velocity": 0.5984251968503937,
          "duration": 0.12000000000000455
        },
        {
          "name": "C2",
          "midi": 36,
          "time": 66.71999999999942,
          "velocity": 0.9133858267716536,
          "duration": 0.12000000000000455
        },
        {
          "name": "D#2",
          "midi": 39,
          "time": 66.71999999999942,
          "velocity": 0.6929133858267716,
          "duration": 0.12000000000000455
        },
        {
          "name": "F#2",
          "midi": 42,
          "time": 66.71999999999942,
          "velocity": 0.6929133858267716,
          "duration": 0.12000000000000455
        },
        {
          "name": "D2",
          "midi": 38,
          "time": 66.71999999999942,
          "velocity": 0.5354330708661418,
          "duration": 0.12000000000000455
        },
        {
          "name": "F#2",
          "midi": 42,
          "time": 66.95999999999943,
          "velocity": 0.5984251968503937,
          "duration": 0.12000000000000455
        },
        {
          "name": "F#2",
          "midi": 42,
          "time": 67.19999999999943,
          "velocity": 0.6929133858267716,
          "duration": 0.12000000000000455
        },
        {
          "name": "C2",
          "midi": 36,
          "time": 67.19999999999943,
          "velocity": 0.9133858267716536,
          "duration": 0.12000000000000455
        },
        {
          "name": "F#2",
          "midi": 42,
          "time": 67.43999999999944,
          "velocity": 0.5984251968503937,
          "duration": 0.12000000000000455
        },
        {
          "name": "F#2",
          "midi": 42,
          "time": 67.67999999999945,
          "velocity": 0.6929133858267716,
          "duration": 0.12000000000000455
        },
        {
          "name": "D#2",
          "midi": 39,
          "time": 67.67999999999945,
          "velocity": 0.6929133858267716,
          "duration": 0.12000000000000455
        },
        {
          "name": "C2",
          "midi": 36,
          "time": 67.67999999999945,
          "velocity": 0.9133858267716536,
          "duration": 0.12000000000000455
        },
        {
          "name": "D2",
          "midi": 38,
          "time": 67.67999999999945,
          "velocity": 0.5354330708661418,
          "duration": 0.12000000000000455
        },
        {
          "name": "F#2",
          "midi": 42,
          "time": 67.91999999999946,
          "velocity": 0.5984251968503937,
          "duration": 0.12000000000000455
        },
        {
          "name": "F#2",
          "midi": 42,
          "time": 68.15999999999947,
          "velocity": 0.6929133858267716,
          "duration": 0.12000000000000455
        },
        {
          "name": "C2",
          "midi": 36,
          "time": 68.15999999999947,
          "velocity": 0.9133858267716536,
          "duration": 0.12000000000000455
        },
        {
          "name": "F#2",
          "midi": 42,
          "time": 68.39999999999948,
          "velocity": 0.5984251968503937,
          "duration": 0.12000000000000455
        },
        {
          "name": "F#2",
          "midi": 42,
          "time": 68.63999999999949,
          "velocity": 0.6929133858267716,
          "duration": 0.12000000000000455
        },
        {
          "name": "D#2",
          "midi": 39,
          "time": 68.63999999999949,
          "velocity": 0.6929133858267716,
          "duration": 0.12000000000000455
        },
        {
          "name": "C2",
          "midi": 36,
          "time": 68.63999999999949,
          "velocity": 0.9133858267716536,
          "duration": 0.12000000000000455
        },
        {
          "name": "D2",
          "midi": 38,
          "time": 68.63999999999949,
          "velocity": 0.5354330708661418,
          "duration": 0.12000000000000455
        },
        {
          "name": "F#2",
          "midi": 42,
          "time": 68.8799999999995,
          "velocity": 0.5039370078740157,
          "duration": 0.12000000000000455
        },
        {
          "name": "C2",
          "midi": 36,
          "time": 69.11999999999951,
          "velocity": 0.9133858267716536,
          "duration": 0.12000000000000455
        },
        {
          "name": "F#2",
          "midi": 42,
          "time": 69.11999999999951,
          "velocity": 0.6929133858267716,
          "duration": 0.12000000000000455
        },
        {
          "name": "F#2",
          "midi": 42,
          "time": 69.35999999999952,
          "velocity": 0.5984251968503937,
          "duration": 0.12000000000000455
        },
        {
          "name": "C2",
          "midi": 36,
          "time": 69.59999999999953,
          "velocity": 0.9133858267716536,
          "duration": 0.12000000000000455
        },
        {
          "name": "D#2",
          "midi": 39,
          "time": 69.59999999999953,
          "velocity": 0.6929133858267716,
          "duration": 0.12000000000000455
        },
        {
          "name": "F#2",
          "midi": 42,
          "time": 69.59999999999953,
          "velocity": 0.6929133858267716,
          "duration": 0.12000000000000455
        },
        {
          "name": "D2",
          "midi": 38,
          "time": 69.59999999999953,
          "velocity": 0.5354330708661418,
          "duration": 0.12000000000000455
        },
        {
          "name": "F#2",
          "midi": 42,
          "time": 69.83999999999953,
          "velocity": 0.5984251968503937,
          "duration": 0.12000000000000455
        },
        {
          "name": "C2",
          "midi": 36,
          "time": 70.07999999999954,
          "velocity": 0.9133858267716536,
          "duration": 0.12000000000000455
        },
        {
          "name": "F#2",
          "midi": 42,
          "time": 70.07999999999954,
          "velocity": 0.6929133858267716,
          "duration": 0.12000000000000455
        },
        {
          "name": "F#2",
          "midi": 42,
          "time": 70.31999999999955,
          "velocity": 0.5984251968503937,
          "duration": 0.12000000000000455
        },
        {
          "name": "C2",
          "midi": 36,
          "time": 70.55999999999956,
          "velocity": 0.9133858267716536,
          "duration": 0.12000000000000455
        },
        {
          "name": "D#2",
          "midi": 39,
          "time": 70.55999999999956,
          "velocity": 0.6929133858267716,
          "duration": 0.12000000000000455
        },
        {
          "name": "F#2",
          "midi": 42,
          "time": 70.55999999999956,
          "velocity": 0.6929133858267716,
          "duration": 0.12000000000000455
        },
        {
          "name": "D2",
          "midi": 38,
          "time": 70.55999999999956,
          "velocity": 0.5354330708661418,
          "duration": 0.12000000000000455
        },
        {
          "name": "F#2",
          "midi": 42,
          "time": 70.79999999999957,
          "velocity": 0.5984251968503937,
          "duration": 0.12000000000000455
        },
        {
          "name": "F#2",
          "midi": 42,
          "time": 71.03999999999958,
          "velocity": 0.6929133858267716,
          "duration": 0.12000000000000455
        },
        {
          "name": "C2",
          "midi": 36,
          "time": 71.03999999999958,
          "velocity": 0.9133858267716536,
          "duration": 0.12000000000000455
        },
        {
          "name": "F#2",
          "midi": 42,
          "time": 71.27999999999959,
          "velocity": 0.5984251968503937,
          "duration": 0.12000000000000455
        },
        {
          "name": "C2",
          "midi": 36,
          "time": 71.5199999999996,
          "velocity": 0.9133858267716536,
          "duration": 0.12000000000000455
        },
        {
          "name": "D#2",
          "midi": 39,
          "time": 71.5199999999996,
          "velocity": 0.6929133858267716,
          "duration": 0.12000000000000455
        },
        {
          "name": "F#2",
          "midi": 42,
          "time": 71.5199999999996,
          "velocity": 0.6929133858267716,
          "duration": 0.12000000000000455
        },
        {
          "name": "D2",
          "midi": 38,
          "time": 71.5199999999996,
          "velocity": 0.5354330708661418,
          "duration": 0.12000000000000455
        },
        {
          "name": "F#2",
          "midi": 42,
          "time": 71.75999999999961,
          "velocity": 0.5984251968503937,
          "duration": 0.12000000000000455
        },
        {
          "name": "C2",
          "midi": 36,
          "time": 71.99999999999962,
          "velocity": 0.9133858267716536,
          "duration": 0.12000000000000455
        },
        {
          "name": "F#2",
          "midi": 42,
          "time": 71.99999999999962,
          "velocity": 0.6929133858267716,
          "duration": 0.12000000000000455
        },
        {
          "name": "F#2",
          "midi": 42,
          "time": 72.23999999999963,
          "velocity": 0.5984251968503937,
          "duration": 0.12000000000000455
        },
        {
          "name": "C2",
          "midi": 36,
          "time": 72.47999999999963,
          "velocity": 0.9133858267716536,
          "duration": 0.12000000000000455
        },
        {
          "name": "D#2",
          "midi": 39,
          "time": 72.47999999999963,
          "velocity": 0.6929133858267716,
          "duration": 0.12000000000000455
        },
        {
          "name": "F#2",
          "midi": 42,
          "time": 72.47999999999963,
          "velocity": 0.6929133858267716,
          "duration": 0.12000000000000455
        },
        {
          "name": "D2",
          "midi": 38,
          "time": 72.47999999999963,
          "velocity": 0.5354330708661418,
          "duration": 0.12000000000000455
        },
        {
          "name": "F#2",
          "midi": 42,
          "time": 72.71999999999964,
          "velocity": 0.5984251968503937,
          "duration": 0.12000000000000455
        },
        {
          "name": "F#2",
          "midi": 42,
          "time": 72.95999999999965,
          "velocity": 0.6929133858267716,
          "duration": 0.12000000000000455
        },
        {
          "name": "C2",
          "midi": 36,
          "time": 72.95999999999965,
          "velocity": 0.9133858267716536,
          "duration": 0.12000000000000455
        },
        {
          "name": "F#2",
          "midi": 42,
          "time": 73.19999999999966,
          "velocity": 0.5984251968503937,
          "duration": 0.12000000000000455
        },
        {
          "name": "C2",
          "midi": 36,
          "time": 73.43999999999967,
          "velocity": 0.9133858267716536,
          "duration": 0.12000000000000455
        },
        {
          "name": "D#2",
          "midi": 39,
          "time": 73.43999999999967,
          "velocity": 0.6929133858267716,
          "duration": 0.12000000000000455
        },
        {
          "name": "F#2",
          "midi": 42,
          "time": 73.43999999999967,
          "velocity": 0.6929133858267716,
          "duration": 0.12000000000000455
        },
        {
          "name": "D2",
          "midi": 38,
          "time": 73.43999999999967,
          "velocity": 0.5354330708661418,
          "duration": 0.12000000000000455
        },
        {
          "name": "F#2",
          "midi": 42,
          "time": 73.67999999999968,
          "velocity": 0.5984251968503937,
          "duration": 0.12000000000000455
        },
        {
          "name": "C2",
          "midi": 36,
          "time": 73.91999999999969,
          "velocity": 0.9133858267716536,
          "duration": 0.12000000000000455
        },
        {
          "name": "F#2",
          "midi": 42,
          "time": 73.91999999999969,
          "velocity": 0.6929133858267716,
          "duration": 0.12000000000000455
        },
        {
          "name": "F#2",
          "midi": 42,
          "time": 74.1599999999997,
          "velocity": 0.5984251968503937,
          "duration": 0.12000000000000455
        },
        {
          "name": "C2",
          "midi": 36,
          "time": 74.39999999999971,
          "velocity": 0.9133858267716536,
          "duration": 0.12000000000000455
        },
        {
          "name": "D#2",
          "midi": 39,
          "time": 74.39999999999971,
          "velocity": 0.6929133858267716,
          "duration": 0.12000000000000455
        },
        {
          "name": "F#2",
          "midi": 42,
          "time": 74.39999999999971,
          "velocity": 0.6929133858267716,
          "duration": 0.12000000000000455
        },
        {
          "name": "D2",
          "midi": 38,
          "time": 74.39999999999971,
          "velocity": 0.5354330708661418,
          "duration": 0.12000000000000455
        },
        {
          "name": "F#2",
          "midi": 42,
          "time": 74.63999999999972,
          "velocity": 0.5984251968503937,
          "duration": 0.12000000000000455
        },
        {
          "name": "F#2",
          "midi": 42,
          "time": 74.87999999999973,
          "velocity": 0.6929133858267716,
          "duration": 0.12000000000000455
        },
        {
          "name": "C2",
          "midi": 36,
          "time": 74.87999999999973,
          "velocity": 0.9133858267716536,
          "duration": 0.12000000000000455
        },
        {
          "name": "F#2",
          "midi": 42,
          "time": 75.11999999999973,
          "velocity": 0.5984251968503937,
          "duration": 0.12000000000000455
        },
        {
          "name": "C2",
          "midi": 36,
          "time": 75.35999999999974,
          "velocity": 0.9133858267716536,
          "duration": 0.12000000000000455
        },
        {
          "name": "D#2",
          "midi": 39,
          "time": 75.35999999999974,
          "velocity": 0.6929133858267716,
          "duration": 0.12000000000000455
        },
        {
          "name": "F#2",
          "midi": 42,
          "time": 75.35999999999974,
          "velocity": 0.6929133858267716,
          "duration": 0.12000000000000455
        },
        {
          "name": "D2",
          "midi": 38,
          "time": 75.35999999999974,
          "velocity": 0.5354330708661418,
          "duration": 0.12000000000000455
        },
        {
          "name": "F#2",
          "midi": 42,
          "time": 75.59999999999975,
          "velocity": 0.5984251968503937,
          "duration": 0.12000000000000455
        },
        {
          "name": "C2",
          "midi": 36,
          "time": 75.83999999999976,
          "velocity": 0.9133858267716536,
          "duration": 0.12000000000000455
        },
        {
          "name": "F#2",
          "midi": 42,
          "time": 75.83999999999976,
          "velocity": 0.6929133858267716,
          "duration": 0.12000000000000455
        },
        {
          "name": "F#2",
          "midi": 42,
          "time": 76.07999999999977,
          "velocity": 0.5984251968503937,
          "duration": 0.12000000000000455
        },
        {
          "name": "C2",
          "midi": 36,
          "time": 76.31999999999978,
          "velocity": 0.9133858267716536,
          "duration": 0.12000000000000455
        },
        {
          "name": "D#2",
          "midi": 39,
          "time": 76.31999999999978,
          "velocity": 0.6929133858267716,
          "duration": 0.12000000000000455
        },
        {
          "name": "F#2",
          "midi": 42,
          "time": 76.31999999999978,
          "velocity": 0.6929133858267716,
          "duration": 0.12000000000000455
        },
        {
          "name": "D2",
          "midi": 38,
          "time": 76.31999999999978,
          "velocity": 0.5354330708661418,
          "duration": 0.12000000000000455
        },
        {
          "name": "F#2",
          "midi": 42,
          "time": 76.55999999999979,
          "velocity": 0.5984251968503937,
          "duration": 0.12000000000000455
        },
        {
          "name": "F#2",
          "midi": 42,
          "time": 76.7999999999998,
          "velocity": 0.6929133858267716,
          "duration": 0.12000000000000455
        },
        {
          "name": "C2",
          "midi": 36,
          "time": 76.7999999999998,
          "velocity": 0.9133858267716536,
          "duration": 0.12000000000000455
        },
        {
          "name": "F#2",
          "midi": 42,
          "time": 77.03999999999981,
          "velocity": 0.5984251968503937,
          "duration": 0.12000000000000455
        },
        {
          "name": "C2",
          "midi": 36,
          "time": 77.27999999999982,
          "velocity": 0.9133858267716536,
          "duration": 0.12000000000000455
        },
        {
          "name": "D#2",
          "midi": 39,
          "time": 77.27999999999982,
          "velocity": 0.6929133858267716,
          "duration": 0.12000000000000455
        },
        {
          "name": "F#2",
          "midi": 42,
          "time": 77.27999999999982,
          "velocity": 0.6929133858267716,
          "duration": 0.12000000000000455
        },
        {
          "name": "D2",
          "midi": 38,
          "time": 77.27999999999982,
          "velocity": 0.5354330708661418,
          "duration": 0.12000000000000455
        },
        {
          "name": "F#2",
          "midi": 42,
          "time": 77.51999999999983,
          "velocity": 0.5984251968503937,
          "duration": 0.12000000000000455
        },
        {
          "name": "C2",
          "midi": 36,
          "time": 77.75999999999983,
          "velocity": 0.9133858267716536,
          "duration": 0.12000000000000455
        },
        {
          "name": "F#2",
          "midi": 42,
          "time": 77.75999999999983,
          "velocity": 0.6929133858267716,
          "duration": 0.12000000000000455
        },
        {
          "name": "F#2",
          "midi": 42,
          "time": 77.99999999999984,
          "velocity": 0.5984251968503937,
          "duration": 0.12000000000000455
        },
        {
          "name": "C2",
          "midi": 36,
          "time": 78.23999999999985,
          "velocity": 0.9133858267716536,
          "duration": 0.12000000000000455
        },
        {
          "name": "D#2",
          "midi": 39,
          "time": 78.23999999999985,
          "velocity": 0.6929133858267716,
          "duration": 0.12000000000000455
        },
        {
          "name": "F#2",
          "midi": 42,
          "time": 78.23999999999985,
          "velocity": 0.6929133858267716,
          "duration": 0.12000000000000455
        },
        {
          "name": "D2",
          "midi": 38,
          "time": 78.23999999999985,
          "velocity": 0.5354330708661418,
          "duration": 0.12000000000000455
        },
        {
          "name": "F#2",
          "midi": 42,
          "time": 78.47999999999986,
          "velocity": 0.5984251968503937,
          "duration": 0.12000000000000455
        },
        {
          "name": "F#2",
          "midi": 42,
          "time": 78.71999999999987,
          "velocity": 0.6929133858267716,
          "duration": 0.12000000000000455
        },
        {
          "name": "C2",
          "midi": 36,
          "time": 78.71999999999987,
          "velocity": 0.9133858267716536,
          "duration": 0.12000000000000455
        },
        {
          "name": "F#2",
          "midi": 42,
          "time": 78.95999999999988,
          "velocity": 0.5984251968503937,
          "duration": 0.12000000000000455
        },
        {
          "name": "C2",
          "midi": 36,
          "time": 79.19999999999989,
          "velocity": 0.9133858267716536,
          "duration": 0.12000000000000455
        },
        {
          "name": "D#2",
          "midi": 39,
          "time": 79.19999999999989,
          "velocity": 0.6929133858267716,
          "duration": 0.12000000000000455
        },
        {
          "name": "F#2",
          "midi": 42,
          "time": 79.19999999999989,
          "velocity": 0.6929133858267716,
          "duration": 0.12000000000000455
        },
        {
          "name": "D2",
          "midi": 38,
          "time": 79.19999999999989,
          "velocity": 0.5354330708661418,
          "duration": 0.12000000000000455
        },
        {
          "name": "F#2",
          "midi": 42,
          "time": 79.4399999999999,
          "velocity": 0.5984251968503937,
          "duration": 0.12000000000000455
        },
        {
          "name": "C2",
          "midi": 36,
          "time": 79.67999999999991,
          "velocity": 0.9133858267716536,
          "duration": 0.12000000000000455
        },
        {
          "name": "F#2",
          "midi": 42,
          "time": 79.67999999999991,
          "velocity": 0.6929133858267716,
          "duration": 0.12000000000000455
        },
        {
          "name": "F#2",
          "midi": 42,
          "time": 79.91999999999992,
          "velocity": 0.5984251968503937,
          "duration": 0.12000000000000455
        },
        {
          "name": "C2",
          "midi": 36,
          "time": 80.15999999999993,
          "velocity": 0.9133858267716536,
          "duration": 0.12000000000000455
        },
        {
          "name": "D#2",
          "midi": 39,
          "time": 80.15999999999993,
          "velocity": 0.6929133858267716,
          "duration": 0.12000000000000455
        },
        {
          "name": "F#2",
          "midi": 42,
          "time": 80.15999999999993,
          "velocity": 0.6929133858267716,
          "duration": 0.12000000000000455
        },
        {
          "name": "D2",
          "midi": 38,
          "time": 80.15999999999993,
          "velocity": 0.5354330708661418,
          "duration": 0.12000000000000455
        },
        {
          "name": "F#2",
          "midi": 42,
          "time": 80.39999999999993,
          "velocity": 0.5984251968503937,
          "duration": 0.12000000000000455
        },
        {
          "name": "F#2",
          "midi": 42,
          "time": 80.63999999999994,
          "velocity": 0.6929133858267716,
          "duration": 0.12000000000000455
        },
        {
          "name": "C2",
          "midi": 36,
          "time": 80.63999999999994,
          "velocity": 0.9133858267716536,
          "duration": 0.12000000000000455
        },
        {
          "name": "F#2",
          "midi": 42,
          "time": 80.87999999999995,
          "velocity": 0.5984251968503937,
          "duration": 0.12000000000000455
        },
        {
          "name": "C2",
          "midi": 36,
          "time": 81.11999999999996,
          "velocity": 0.9133858267716536,
          "duration": 0.12000000000000455
        },
        {
          "name": "D#2",
          "midi": 39,
          "time": 81.11999999999996,
          "velocity": 0.6929133858267716,
          "duration": 0.12000000000000455
        },
        {
          "name": "F#2",
          "midi": 42,
          "time": 81.11999999999996,
          "velocity": 0.6929133858267716,
          "duration": 0.12000000000000455
        },
        {
          "name": "D2",
          "midi": 38,
          "time": 81.11999999999996,
          "velocity": 0.5354330708661418,
          "duration": 0.12000000000000455
        },
        {
          "name": "F#2",
          "midi": 42,
          "time": 81.35999999999997,
          "velocity": 0.5984251968503937,
          "duration": 0.12000000000000455
        },
        {
          "name": "C2",
          "midi": 36,
          "time": 81.59999999999998,
          "velocity": 0.9133858267716536,
          "duration": 0.12000000000000455
        },
        {
          "name": "F#2",
          "midi": 42,
          "time": 81.59999999999998,
          "velocity": 0.6929133858267716,
          "duration": 0.12000000000000455
        },
        {
          "name": "F#2",
          "midi": 42,
          "time": 81.83999999999999,
          "velocity": 0.5984251968503937,
          "duration": 0.12000000000000455
        },
        {
          "name": "C2",
          "midi": 36,
          "time": 82.08,
          "velocity": 0.9133858267716536,
          "duration": 0.12000000000000455
        },
        {
          "name": "D#2",
          "midi": 39,
          "time": 82.08,
          "velocity": 0.6929133858267716,
          "duration": 0.12000000000000455
        },
        {
          "name": "F#2",
          "midi": 42,
          "time": 82.08,
          "velocity": 0.6929133858267716,
          "duration": 0.12000000000000455
        },
        {
          "name": "D2",
          "midi": 38,
          "time": 82.08,
          "velocity": 0.5354330708661418,
          "duration": 0.12000000000000455
        },
        {
          "name": "F#2",
          "midi": 42,
          "time": 82.32000000000001,
          "velocity": 0.5984251968503937,
          "duration": 0.12000000000000455
        },
        {
          "name": "F#2",
          "midi": 42,
          "time": 82.56000000000002,
          "velocity": 0.6929133858267716,
          "duration": 0.12000000000000455
        },
        {
          "name": "C2",
          "midi": 36,
          "time": 82.56000000000002,
          "velocity": 0.9133858267716536,
          "duration": 0.12000000000000455
        },
        {
          "name": "F#2",
          "midi": 42,
          "time": 82.80000000000003,
          "velocity": 0.5984251968503937,
          "duration": 0.12000000000000455
        },
        {
          "name": "F#2",
          "midi": 42,
          "time": 83.04000000000003,
          "velocity": 0.6929133858267716,
          "duration": 0.12000000000000455
        },
        {
          "name": "D#2",
          "midi": 39,
          "time": 83.04000000000003,
          "velocity": 0.6929133858267716,
          "duration": 0.12000000000000455
        },
        {
          "name": "C2",
          "midi": 36,
          "time": 83.04000000000003,
          "velocity": 0.9133858267716536,
          "duration": 0.12000000000000455
        },
        {
          "name": "D2",
          "midi": 38,
          "time": 83.04000000000003,
          "velocity": 0.5354330708661418,
          "duration": 0.12000000000000455
        },
        {
          "name": "F#2",
          "midi": 42,
          "time": 83.28000000000004,
          "velocity": 0.5984251968503937,
          "duration": 0.12000000000000455
        },
        {
          "name": "F#2",
          "midi": 42,
          "time": 83.52000000000005,
          "velocity": 0.6929133858267716,
          "duration": 0.12000000000000455
        },
        {
          "name": "C2",
          "midi": 36,
          "time": 83.52000000000005,
          "velocity": 0.9133858267716536,
          "duration": 0.12000000000000455
        },
        {
          "name": "F#2",
          "midi": 42,
          "time": 83.76000000000006,
          "velocity": 0.5984251968503937,
          "duration": 0.12000000000000455
        },
        {
          "name": "F#2",
          "midi": 42,
          "time": 84.00000000000007,
          "velocity": 0.6929133858267716,
          "duration": 0.12000000000000455
        },
        {
          "name": "D#2",
          "midi": 39,
          "time": 84.00000000000007,
          "velocity": 0.6929133858267716,
          "duration": 0.12000000000000455
        },
        {
          "name": "C2",
          "midi": 36,
          "time": 84.00000000000007,
          "velocity": 0.9133858267716536,
          "duration": 0.12000000000000455
        },
        {
          "name": "D2",
          "midi": 38,
          "time": 84.00000000000007,
          "velocity": 0.5354330708661418,
          "duration": 0.12000000000000455
        },
        {
          "name": "F#2",
          "midi": 42,
          "time": 84.24000000000008,
          "velocity": 0.5039370078740157,
          "duration": 0.12000000000000455
        },
        {
          "name": "C2",
          "midi": 36,
          "time": 84.48000000000009,
          "velocity": 0.9133858267716536,
          "duration": 0.12000000000000455
        },
        {
          "name": "F#2",
          "midi": 42,
          "time": 84.48000000000009,
          "velocity": 0.6929133858267716,
          "duration": 0.12000000000000455
        },
        {
          "name": "F#3",
          "midi": 54,
          "time": 84.48000000000009,
          "velocity": 0.5039370078740157,
          "duration": 0.060000000000002274
        },
        {
          "name": "F#3",
          "midi": 54,
          "time": 84.6000000000001,
          "velocity": 0.7559055118110236,
          "duration": 0.060000000000002274
        },
        {
          "name": "F#2",
          "midi": 42,
          "time": 84.7200000000001,
          "velocity": 0.5984251968503937,
          "duration": 0.12000000000000455
        },
        {
          "name": "F#3",
          "midi": 54,
          "time": 84.7200000000001,
          "velocity": 0.5039370078740157,
          "duration": 0.060000000000002274
        },
        {
          "name": "F#3",
          "midi": 54,
          "time": 84.8400000000001,
          "velocity": 0.7559055118110236,
          "duration": 0.060000000000002274
        },
        {
          "name": "C2",
          "midi": 36,
          "time": 84.96000000000011,
          "velocity": 0.9133858267716536,
          "duration": 0.12000000000000455
        },
        {
          "name": "D2",
          "midi": 38,
          "time": 84.96000000000011,
          "velocity": 0.47244094488188976,
          "duration": 0.12000000000000455
        },
        {
          "name": "F#3",
          "midi": 54,
          "time": 84.96000000000011,
          "velocity": 0.5039370078740157,
          "duration": 0.060000000000002274
        },
        {
          "name": "D#2",
          "midi": 39,
          "time": 84.96000000000011,
          "velocity": 0.6929133858267716,
          "duration": 0.12000000000000455
        },
        {
          "name": "F#2",
          "midi": 42,
          "time": 84.96000000000011,
          "velocity": 0.6929133858267716,
          "duration": 0.12000000000000455
        },
        {
          "name": "F#3",
          "midi": 54,
          "time": 85.08000000000011,
          "velocity": 0.7559055118110236,
          "duration": 0.060000000000002274
        },
        {
          "name": "F#2",
          "midi": 42,
          "time": 85.20000000000012,
          "velocity": 0.5984251968503937,
          "duration": 0.12000000000000455
        },
        {
          "name": "F#3",
          "midi": 54,
          "time": 85.20000000000012,
          "velocity": 0.5039370078740157,
          "duration": 0.060000000000002274
        },
        {
          "name": "F#3",
          "midi": 54,
          "time": 85.32000000000012,
          "velocity": 0.7559055118110236,
          "duration": 0.060000000000002274
        },
        {
          "name": "C2",
          "midi": 36,
          "time": 85.44000000000013,
          "velocity": 0.9133858267716536,
          "duration": 0.12000000000000455
        },
        {
          "name": "F#3",
          "midi": 54,
          "time": 85.44000000000013,
          "velocity": 0.5039370078740157,
          "duration": 0.060000000000002274
        },
        {
          "name": "F#2",
          "midi": 42,
          "time": 85.44000000000013,
          "velocity": 0.6929133858267716,
          "duration": 0.12000000000000455
        },
        {
          "name": "F#3",
          "midi": 54,
          "time": 85.56000000000013,
          "velocity": 0.7559055118110236,
          "duration": 0.060000000000002274
        },
        {
          "name": "F#2",
          "midi": 42,
          "time": 85.68000000000013,
          "velocity": 0.5984251968503937,
          "duration": 0.12000000000000455
        },
        {
          "name": "F#3",
          "midi": 54,
          "time": 85.68000000000013,
          "velocity": 0.5039370078740157,
          "duration": 0.060000000000002274
        },
        {
          "name": "F#3",
          "midi": 54,
          "time": 85.80000000000014,
          "velocity": 0.7559055118110236,
          "duration": 0.060000000000002274
        },
        {
          "name": "C2",
          "midi": 36,
          "time": 85.92000000000014,
          "velocity": 0.9133858267716536,
          "duration": 0.12000000000000455
        },
        {
          "name": "D2",
          "midi": 38,
          "time": 85.92000000000014,
          "velocity": 0.47244094488188976,
          "duration": 0.12000000000000455
        },
        {
          "name": "F#3",
          "midi": 54,
          "time": 85.92000000000014,
          "velocity": 0.5039370078740157,
          "duration": 0.030000000000001137
        },
        {
          "name": "D#2",
          "midi": 39,
          "time": 85.92000000000014,
          "velocity": 0.6929133858267716,
          "duration": 0.12000000000000455
        },
        {
          "name": "F#2",
          "midi": 42,
          "time": 85.92000000000014,
          "velocity": 0.6929133858267716,
          "duration": 0.12000000000000455
        },
        {
          "name": "F#3",
          "midi": 54,
          "time": 85.95000000000014,
          "velocity": 0.5039370078740157,
          "duration": 0.030000000000001137
        },
        {
          "name": "F#3",
          "midi": 54,
          "time": 86.04000000000015,
          "velocity": 0.7559055118110236,
          "duration": 0.060000000000002274
        },
        {
          "name": "F#2",
          "midi": 42,
          "time": 86.16000000000015,
          "velocity": 0.5984251968503937,
          "duration": 0.12000000000000455
        },
        {
          "name": "F#3",
          "midi": 54,
          "time": 86.16000000000015,
          "velocity": 0.5039370078740157,
          "duration": 0.060000000000002274
        },
        {
          "name": "F#3",
          "midi": 54,
          "time": 86.28000000000016,
          "velocity": 0.7559055118110236,
          "duration": 0.060000000000002274
        },
        {
          "name": "C2",
          "midi": 36,
          "time": 86.40000000000016,
          "velocity": 0.9133858267716536,
          "duration": 0.12000000000000455
        },
        {
          "name": "F#3",
          "midi": 54,
          "time": 86.40000000000016,
          "velocity": 0.5039370078740157,
          "duration": 0.060000000000002274
        },
        {
          "name": "F#2",
          "midi": 42,
          "time": 86.40000000000016,
          "velocity": 0.6929133858267716,
          "duration": 0.12000000000000455
        },
        {
          "name": "F#3",
          "midi": 54,
          "time": 86.52000000000017,
          "velocity": 0.7559055118110236,
          "duration": 0.060000000000002274
        },
        {
          "name": "F#2",
          "midi": 42,
          "time": 86.64000000000017,
          "velocity": 0.5984251968503937,
          "duration": 0.12000000000000455
        },
        {
          "name": "F#3",
          "midi": 54,
          "time": 86.64000000000017,
          "velocity": 0.5039370078740157,
          "duration": 0.060000000000002274
        },
        {
          "name": "F#3",
          "midi": 54,
          "time": 86.76000000000018,
          "velocity": 0.7559055118110236,
          "duration": 0.060000000000002274
        },
        {
          "name": "C2",
          "midi": 36,
          "time": 86.88000000000018,
          "velocity": 0.9133858267716536,
          "duration": 0.12000000000000455
        },
        {
          "name": "D2",
          "midi": 38,
          "time": 86.88000000000018,
          "velocity": 0.47244094488188976,
          "duration": 0.12000000000000455
        },
        {
          "name": "F#3",
          "midi": 54,
          "time": 86.88000000000018,
          "velocity": 0.5039370078740157,
          "duration": 0.060000000000002274
        },
        {
          "name": "D#2",
          "midi": 39,
          "time": 86.88000000000018,
          "velocity": 0.6929133858267716,
          "duration": 0.12000000000000455
        },
        {
          "name": "F#2",
          "midi": 42,
          "time": 86.88000000000018,
          "velocity": 0.6929133858267716,
          "duration": 0.12000000000000455
        },
        {
          "name": "F#3",
          "midi": 54,
          "time": 87.00000000000018,
          "velocity": 0.7559055118110236,
          "duration": 0.060000000000002274
        },
        {
          "name": "F#2",
          "midi": 42,
          "time": 87.12000000000019,
          "velocity": 0.5984251968503937,
          "duration": 0.12000000000000455
        },
        {
          "name": "F#3",
          "midi": 54,
          "time": 87.12000000000019,
          "velocity": 0.5039370078740157,
          "duration": 0.060000000000002274
        },
        {
          "name": "F#3",
          "midi": 54,
          "time": 87.2400000000002,
          "velocity": 0.7559055118110236,
          "duration": 0.060000000000002274
        },
        {
          "name": "C2",
          "midi": 36,
          "time": 87.3600000000002,
          "velocity": 0.9133858267716536,
          "duration": 0.12000000000000455
        },
        {
          "name": "F#3",
          "midi": 54,
          "time": 87.3600000000002,
          "velocity": 0.5039370078740157,
          "duration": 0.060000000000002274
        },
        {
          "name": "F#2",
          "midi": 42,
          "time": 87.3600000000002,
          "velocity": 0.6929133858267716,
          "duration": 0.12000000000000455
        },
        {
          "name": "F#3",
          "midi": 54,
          "time": 87.4800000000002,
          "velocity": 0.7559055118110236,
          "duration": 0.060000000000002274
        },
        {
          "name": "F#2",
          "midi": 42,
          "time": 87.60000000000021,
          "velocity": 0.5984251968503937,
          "duration": 0.12000000000000455
        },
        {
          "name": "F#3",
          "midi": 54,
          "time": 87.60000000000021,
          "velocity": 0.5039370078740157,
          "duration": 0.060000000000002274
        },
        {
          "name": "F#3",
          "midi": 54,
          "time": 87.72000000000021,
          "velocity": 0.7559055118110236,
          "duration": 0.060000000000002274
        },
        {
          "name": "C2",
          "midi": 36,
          "time": 87.84000000000022,
          "velocity": 0.9133858267716536,
          "duration": 0.12000000000000455
        },
        {
          "name": "D2",
          "midi": 38,
          "time": 87.84000000000022,
          "velocity": 0.47244094488188976,
          "duration": 0.12000000000000455
        },
        {
          "name": "F#3",
          "midi": 54,
          "time": 87.84000000000022,
          "velocity": 0.5039370078740157,
          "duration": 0.030000000000001137
        },
        {
          "name": "D#2",
          "midi": 39,
          "time": 87.84000000000022,
          "velocity": 0.6929133858267716,
          "duration": 0.12000000000000455
        },
        {
          "name": "F#2",
          "midi": 42,
          "time": 87.84000000000022,
          "velocity": 0.6929133858267716,
          "duration": 0.12000000000000455
        },
        {
          "name": "F#3",
          "midi": 54,
          "time": 87.87000000000022,
          "velocity": 0.5039370078740157,
          "duration": 0.030000000000001137
        },
        {
          "name": "F#3",
          "midi": 54,
          "time": 87.96000000000022,
          "velocity": 0.7559055118110236,
          "duration": 0.060000000000002274
        },
        {
          "name": "F#2",
          "midi": 42,
          "time": 88.08000000000023,
          "velocity": 0.5984251968503937,
          "duration": 0.12000000000000455
        },
        {
          "name": "F#3",
          "midi": 54,
          "time": 88.08000000000023,
          "velocity": 0.5039370078740157,
          "duration": 0.060000000000002274
        },
        {
          "name": "F#3",
          "midi": 54,
          "time": 88.20000000000023,
          "velocity": 0.7559055118110236,
          "duration": 0.060000000000002274
        },
        {
          "name": "C2",
          "midi": 36,
          "time": 88.32000000000023,
          "velocity": 0.9133858267716536,
          "duration": 0.12000000000000455
        },
        {
          "name": "F#3",
          "midi": 54,
          "time": 88.32000000000023,
          "velocity": 0.5039370078740157,
          "duration": 0.060000000000002274
        },
        {
          "name": "F#2",
          "midi": 42,
          "time": 88.32000000000023,
          "velocity": 0.6929133858267716,
          "duration": 0.12000000000000455
        },
        {
          "name": "F#3",
          "midi": 54,
          "time": 88.44000000000024,
          "velocity": 0.7559055118110236,
          "duration": 0.060000000000002274
        },
        {
          "name": "F#2",
          "midi": 42,
          "time": 88.56000000000024,
          "velocity": 0.5984251968503937,
          "duration": 0.12000000000000455
        },
        {
          "name": "F#3",
          "midi": 54,
          "time": 88.56000000000024,
          "velocity": 0.5039370078740157,
          "duration": 0.060000000000002274
        },
        {
          "name": "F#3",
          "midi": 54,
          "time": 88.68000000000025,
          "velocity": 0.7559055118110236,
          "duration": 0.060000000000002274
        },
        {
          "name": "C2",
          "midi": 36,
          "time": 88.80000000000025,
          "velocity": 0.9133858267716536,
          "duration": 0.12000000000000455
        },
        {
          "name": "D2",
          "midi": 38,
          "time": 88.80000000000025,
          "velocity": 0.47244094488188976,
          "duration": 0.12000000000000455
        },
        {
          "name": "F#3",
          "midi": 54,
          "time": 88.80000000000025,
          "velocity": 0.5039370078740157,
          "duration": 0.060000000000002274
        },
        {
          "name": "D#2",
          "midi": 39,
          "time": 88.80000000000025,
          "velocity": 0.6929133858267716,
          "duration": 0.12000000000000455
        },
        {
          "name": "F#2",
          "midi": 42,
          "time": 88.80000000000025,
          "velocity": 0.6929133858267716,
          "duration": 0.12000000000000455
        },
        {
          "name": "F#3",
          "midi": 54,
          "time": 88.92000000000026,
          "velocity": 0.7559055118110236,
          "duration": 0.060000000000002274
        },
        {
          "name": "F#2",
          "midi": 42,
          "time": 89.04000000000026,
          "velocity": 0.5984251968503937,
          "duration": 0.12000000000000455
        },
        {
          "name": "F#3",
          "midi": 54,
          "time": 89.04000000000026,
          "velocity": 0.5039370078740157,
          "duration": 0.060000000000002274
        },
        {
          "name": "F#3",
          "midi": 54,
          "time": 89.16000000000027,
          "velocity": 0.7559055118110236,
          "duration": 0.060000000000002274
        },
        {
          "name": "C2",
          "midi": 36,
          "time": 89.28000000000027,
          "velocity": 0.9133858267716536,
          "duration": 0.12000000000000455
        },
        {
          "name": "F#3",
          "midi": 54,
          "time": 89.28000000000027,
          "velocity": 0.5039370078740157,
          "duration": 0.060000000000002274
        },
        {
          "name": "F#2",
          "midi": 42,
          "time": 89.28000000000027,
          "velocity": 0.6929133858267716,
          "duration": 0.12000000000000455
        },
        {
          "name": "F#3",
          "midi": 54,
          "time": 89.40000000000028,
          "velocity": 0.7559055118110236,
          "duration": 0.060000000000002274
        },
        {
          "name": "F#2",
          "midi": 42,
          "time": 89.52000000000028,
          "velocity": 0.5984251968503937,
          "duration": 0.12000000000000455
        },
        {
          "name": "F#3",
          "midi": 54,
          "time": 89.52000000000028,
          "velocity": 0.5039370078740157,
          "duration": 0.060000000000002274
        },
        {
          "name": "F#3",
          "midi": 54,
          "time": 89.64000000000028,
          "velocity": 0.7559055118110236,
          "duration": 0.060000000000002274
        },
        {
          "name": "C2",
          "midi": 36,
          "time": 89.76000000000029,
          "velocity": 0.9133858267716536,
          "duration": 0.12000000000000455
        },
        {
          "name": "D2",
          "midi": 38,
          "time": 89.76000000000029,
          "velocity": 0.47244094488188976,
          "duration": 0.12000000000000455
        },
        {
          "name": "F#3",
          "midi": 54,
          "time": 89.76000000000029,
          "velocity": 0.5039370078740157,
          "duration": 0.030000000000001137
        },
        {
          "name": "D#2",
          "midi": 39,
          "time": 89.76000000000029,
          "velocity": 0.6929133858267716,
          "duration": 0.12000000000000455
        },
        {
          "name": "F#2",
          "midi": 42,
          "time": 89.76000000000029,
          "velocity": 0.6929133858267716,
          "duration": 0.12000000000000455
        },
        {
          "name": "F#3",
          "midi": 54,
          "time": 89.79000000000029,
          "velocity": 0.5039370078740157,
          "duration": 0.030000000000001137
        },
        {
          "name": "F#3",
          "midi": 54,
          "time": 89.8800000000003,
          "velocity": 0.7559055118110236,
          "duration": 0.060000000000002274
        },
        {
          "name": "F#2",
          "midi": 42,
          "time": 90.0000000000003,
          "velocity": 0.5984251968503937,
          "duration": 0.12000000000000455
        },
        {
          "name": "F#3",
          "midi": 54,
          "time": 90.0000000000003,
          "velocity": 0.5039370078740157,
          "duration": 0.060000000000002274
        },
        {
          "name": "F#3",
          "midi": 54,
          "time": 90.1200000000003,
          "velocity": 0.7559055118110236,
          "duration": 0.060000000000002274
        },
        {
          "name": "C2",
          "midi": 36,
          "time": 90.24000000000031,
          "velocity": 0.9133858267716536,
          "duration": 0.12000000000000455
        },
        {
          "name": "F#3",
          "midi": 54,
          "time": 90.24000000000031,
          "velocity": 0.5039370078740157,
          "duration": 0.060000000000002274
        },
        {
          "name": "F#2",
          "midi": 42,
          "time": 90.24000000000031,
          "velocity": 0.6929133858267716,
          "duration": 0.12000000000000455
        },
        {
          "name": "F#3",
          "midi": 54,
          "time": 90.36000000000031,
          "velocity": 0.7559055118110236,
          "duration": 0.060000000000002274
        },
        {
          "name": "F#2",
          "midi": 42,
          "time": 90.48000000000032,
          "velocity": 0.5984251968503937,
          "duration": 0.12000000000000455
        },
        {
          "name": "F#3",
          "midi": 54,
          "time": 90.48000000000032,
          "velocity": 0.5039370078740157,
          "duration": 0.060000000000002274
        },
        {
          "name": "F#3",
          "midi": 54,
          "time": 90.60000000000032,
          "velocity": 0.7559055118110236,
          "duration": 0.060000000000002274
        },
        {
          "name": "C2",
          "midi": 36,
          "time": 90.72000000000033,
          "velocity": 0.9133858267716536,
          "duration": 0.12000000000000455
        },
        {
          "name": "D2",
          "midi": 38,
          "time": 90.72000000000033,
          "velocity": 0.47244094488188976,
          "duration": 0.12000000000000455
        },
        {
          "name": "F#3",
          "midi": 54,
          "time": 90.72000000000033,
          "velocity": 0.5039370078740157,
          "duration": 0.060000000000002274
        },
        {
          "name": "D#2",
          "midi": 39,
          "time": 90.72000000000033,
          "velocity": 0.6929133858267716,
          "duration": 0.12000000000000455
        },
        {
          "name": "F#2",
          "midi": 42,
          "time": 90.72000000000033,
          "velocity": 0.6929133858267716,
          "duration": 0.12000000000000455
        },
        {
          "name": "F#3",
          "midi": 54,
          "time": 90.84000000000033,
          "velocity": 0.7559055118110236,
          "duration": 0.060000000000002274
        },
        {
          "name": "F#2",
          "midi": 42,
          "time": 90.96000000000033,
          "velocity": 0.5984251968503937,
          "duration": 0.12000000000000455
        },
        {
          "name": "F#3",
          "midi": 54,
          "time": 90.96000000000033,
          "velocity": 0.5039370078740157,
          "duration": 0.060000000000002274
        },
        {
          "name": "F#3",
          "midi": 54,
          "time": 91.08000000000034,
          "velocity": 0.7559055118110236,
          "duration": 0.060000000000002274
        },
        {
          "name": "C2",
          "midi": 36,
          "time": 91.20000000000034,
          "velocity": 0.9133858267716536,
          "duration": 0.12000000000000455
        },
        {
          "name": "F#3",
          "midi": 54,
          "time": 91.20000000000034,
          "velocity": 0.5039370078740157,
          "duration": 0.060000000000002274
        },
        {
          "name": "F#2",
          "midi": 42,
          "time": 91.20000000000034,
          "velocity": 0.6929133858267716,
          "duration": 0.12000000000000455
        },
        {
          "name": "F#3",
          "midi": 54,
          "time": 91.32000000000035,
          "velocity": 0.7559055118110236,
          "duration": 0.060000000000002274
        },
        {
          "name": "F#2",
          "midi": 42,
          "time": 91.44000000000035,
          "velocity": 0.5984251968503937,
          "duration": 0.12000000000000455
        },
        {
          "name": "F#3",
          "midi": 54,
          "time": 91.44000000000035,
          "velocity": 0.5039370078740157,
          "duration": 0.060000000000002274
        },
        {
          "name": "F#3",
          "midi": 54,
          "time": 91.56000000000036,
          "velocity": 0.7559055118110236,
          "duration": 0.060000000000002274
        },
        {
          "name": "C2",
          "midi": 36,
          "time": 91.68000000000036,
          "velocity": 0.9133858267716536,
          "duration": 0.12000000000000455
        },
        {
          "name": "D2",
          "midi": 38,
          "time": 91.68000000000036,
          "velocity": 0.47244094488188976,
          "duration": 0.12000000000000455
        },
        {
          "name": "F#3",
          "midi": 54,
          "time": 91.68000000000036,
          "velocity": 0.5039370078740157,
          "duration": 0.030000000000001137
        },
        {
          "name": "D#2",
          "midi": 39,
          "time": 91.68000000000036,
          "velocity": 0.6929133858267716,
          "duration": 0.12000000000000455
        },
        {
          "name": "F#2",
          "midi": 42,
          "time": 91.68000000000036,
          "velocity": 0.6929133858267716,
          "duration": 0.12000000000000455
        },
        {
          "name": "F#3",
          "midi": 54,
          "time": 91.71000000000036,
          "velocity": 0.5039370078740157,
          "duration": 0.030000000000001137
        },
        {
          "name": "F#3",
          "midi": 54,
          "time": 91.80000000000037,
          "velocity": 0.7559055118110236,
          "duration": 0.060000000000002274
        },
        {
          "name": "F#2",
          "midi": 42,
          "time": 91.92000000000037,
          "velocity": 0.5984251968503937,
          "duration": 0.12000000000000455
        },
        {
          "name": "F#3",
          "midi": 54,
          "time": 91.92000000000037,
          "velocity": 0.5039370078740157,
          "duration": 0.060000000000002274
        },
        {
          "name": "F#3",
          "midi": 54,
          "time": 92.04000000000038,
          "velocity": 0.7559055118110236,
          "duration": 0.060000000000002274
        },
        {
          "name": "C2",
          "midi": 36,
          "time": 92.16000000000038,
          "velocity": 0.9133858267716536,
          "duration": 0.12000000000000455
        },
        {
          "name": "F#3",
          "midi": 54,
          "time": 92.16000000000038,
          "velocity": 0.5039370078740157,
          "duration": 0.060000000000002274
        },
        {
          "name": "F#2",
          "midi": 42,
          "time": 92.16000000000038,
          "velocity": 0.6929133858267716,
          "duration": 0.12000000000000455
        },
        {
          "name": "F#3",
          "midi": 54,
          "time": 92.28000000000038,
          "velocity": 0.7559055118110236,
          "duration": 0.060000000000002274
        },
        {
          "name": "F#3",
          "midi": 54,
          "time": 92.40000000000039,
          "velocity": 0.5039370078740157,
          "duration": 0.060000000000002274
        },
        {
          "name": "F#2",
          "midi": 42,
          "time": 92.40000000000039,
          "velocity": 0.5984251968503937,
          "duration": 0.12000000000000455
        },
        {
          "name": "F#3",
          "midi": 54,
          "time": 92.5200000000004,
          "velocity": 0.7559055118110236,
          "duration": 0.060000000000002274
        },
        {
          "name": "C2",
          "midi": 36,
          "time": 92.6400000000004,
          "velocity": 0.9133858267716536,
          "duration": 0.12000000000000455
        },
        {
          "name": "D2",
          "midi": 38,
          "time": 92.6400000000004,
          "velocity": 0.47244094488188976,
          "duration": 0.12000000000000455
        },
        {
          "name": "F#2",
          "midi": 42,
          "time": 92.6400000000004,
          "velocity": 0.6929133858267716,
          "duration": 0.12000000000000455
        },
        {
          "name": "D#2",
          "midi": 39,
          "time": 92.6400000000004,
          "velocity": 0.6929133858267716,
          "duration": 0.12000000000000455
        },
        {
          "name": "F#3",
          "midi": 54,
          "time": 92.6400000000004,
          "velocity": 0.5039370078740157,
          "duration": 0.060000000000002274
        },
        {
          "name": "F#3",
          "midi": 54,
          "time": 92.7600000000004,
          "velocity": 0.7559055118110236,
          "duration": 0.060000000000002274
        },
        {
          "name": "F#2",
          "midi": 42,
          "time": 92.88000000000041,
          "velocity": 0.5984251968503937,
          "duration": 0.12000000000000455
        },
        {
          "name": "F#3",
          "midi": 54,
          "time": 92.88000000000041,
          "velocity": 0.5039370078740157,
          "duration": 0.060000000000002274
        },
        {
          "name": "F#3",
          "midi": 54,
          "time": 93.00000000000041,
          "velocity": 0.7559055118110236,
          "duration": 0.060000000000002274
        },
        {
          "name": "C2",
          "midi": 36,
          "time": 93.12000000000042,
          "velocity": 0.9133858267716536,
          "duration": 0.12000000000000455
        },
        {
          "name": "F#3",
          "midi": 54,
          "time": 93.12000000000042,
          "velocity": 0.5039370078740157,
          "duration": 0.060000000000002274
        },
        {
          "name": "F#2",
          "midi": 42,
          "time": 93.12000000000042,
          "velocity": 0.6929133858267716,
          "duration": 0.12000000000000455
        },
        {
          "name": "F#3",
          "midi": 54,
          "time": 93.24000000000042,
          "velocity": 0.7559055118110236,
          "duration": 0.060000000000002274
        },
        {
          "name": "F#3",
          "midi": 54,
          "time": 93.36000000000043,
          "velocity": 0.5039370078740157,
          "duration": 0.060000000000002274
        },
        {
          "name": "F#2",
          "midi": 42,
          "time": 93.36000000000043,
          "velocity": 0.5984251968503937,
          "duration": 0.12000000000000455
        },
        {
          "name": "F#3",
          "midi": 54,
          "time": 93.48000000000043,
          "velocity": 0.7559055118110236,
          "duration": 0.060000000000002274
        },
        {
          "name": "C2",
          "midi": 36,
          "time": 93.60000000000043,
          "velocity": 0.9133858267716536,
          "duration": 0.12000000000000455
        },
        {
          "name": "D2",
          "midi": 38,
          "time": 93.60000000000043,
          "velocity": 0.47244094488188976,
          "duration": 0.12000000000000455
        },
        {
          "name": "F#2",
          "midi": 42,
          "time": 93.60000000000043,
          "velocity": 0.6929133858267716,
          "duration": 0.12000000000000455
        },
        {
          "name": "D#2",
          "midi": 39,
          "time": 93.60000000000043,
          "velocity": 0.6929133858267716,
          "duration": 0.12000000000000455
        },
        {
          "name": "F#3",
          "midi": 54,
          "time": 93.60000000000043,
          "velocity": 0.5039370078740157,
          "duration": 0.030000000000001137
        },
        {
          "name": "F#3",
          "midi": 54,
          "time": 93.63000000000044,
          "velocity": 0.5039370078740157,
          "duration": 0.030000000000001137
        },
        {
          "name": "F#3",
          "midi": 54,
          "time": 93.72000000000044,
          "velocity": 0.7559055118110236,
          "duration": 0.060000000000002274
        },
        {
          "name": "F#2",
          "midi": 42,
          "time": 93.84000000000044,
          "velocity": 0.5984251968503937,
          "duration": 0.12000000000000455
        },
        {
          "name": "F#3",
          "midi": 54,
          "time": 93.84000000000044,
          "velocity": 0.5039370078740157,
          "duration": 0.060000000000002274
        },
        {
          "name": "F#3",
          "midi": 54,
          "time": 93.96000000000045,
          "velocity": 0.7559055118110236,
          "duration": 0.060000000000002274
        },
        {
          "name": "C2",
          "midi": 36,
          "time": 94.08000000000045,
          "velocity": 0.9133858267716536,
          "duration": 0.12000000000000455
        },
        {
          "name": "F#3",
          "midi": 54,
          "time": 94.08000000000045,
          "velocity": 0.5039370078740157,
          "duration": 0.060000000000002274
        },
        {
          "name": "F#2",
          "midi": 42,
          "time": 94.08000000000045,
          "velocity": 0.6929133858267716,
          "duration": 0.12000000000000455
        },
        {
          "name": "F#3",
          "midi": 54,
          "time": 94.20000000000046,
          "velocity": 0.7559055118110236,
          "duration": 0.060000000000002274
        },
        {
          "name": "F#3",
          "midi": 54,
          "time": 94.32000000000046,
          "velocity": 0.5039370078740157,
          "duration": 0.060000000000002274
        },
        {
          "name": "F#2",
          "midi": 42,
          "time": 94.32000000000046,
          "velocity": 0.5984251968503937,
          "duration": 0.12000000000000455
        },
        {
          "name": "F#3",
          "midi": 54,
          "time": 94.44000000000047,
          "velocity": 0.7559055118110236,
          "duration": 0.060000000000002274
        },
        {
          "name": "C2",
          "midi": 36,
          "time": 94.56000000000047,
          "velocity": 0.9133858267716536,
          "duration": 0.12000000000000455
        },
        {
          "name": "D2",
          "midi": 38,
          "time": 94.56000000000047,
          "velocity": 0.47244094488188976,
          "duration": 0.12000000000000455
        },
        {
          "name": "F#2",
          "midi": 42,
          "time": 94.56000000000047,
          "velocity": 0.6929133858267716,
          "duration": 0.12000000000000455
        },
        {
          "name": "D#2",
          "midi": 39,
          "time": 94.56000000000047,
          "velocity": 0.6929133858267716,
          "duration": 0.12000000000000455
        },
        {
          "name": "F#3",
          "midi": 54,
          "time": 94.56000000000047,
          "velocity": 0.5039370078740157,
          "duration": 0.060000000000002274
        },
        {
          "name": "F#3",
          "midi": 54,
          "time": 94.68000000000048,
          "velocity": 0.7559055118110236,
          "duration": 0.060000000000002274
        },
        {
          "name": "F#2",
          "midi": 42,
          "time": 94.80000000000048,
          "velocity": 0.5984251968503937,
          "duration": 0.12000000000000455
        },
        {
          "name": "F#3",
          "midi": 54,
          "time": 94.80000000000048,
          "velocity": 0.5039370078740157,
          "duration": 0.060000000000002274
        },
        {
          "name": "F#3",
          "midi": 54,
          "time": 94.92000000000048,
          "velocity": 0.7559055118110236,
          "duration": 0.060000000000002274
        },
        {
          "name": "C2",
          "midi": 36,
          "time": 95.04000000000049,
          "velocity": 0.9133858267716536,
          "duration": 0.12000000000000455
        },
        {
          "name": "F#3",
          "midi": 54,
          "time": 95.04000000000049,
          "velocity": 0.5039370078740157,
          "duration": 0.060000000000002274
        },
        {
          "name": "F#2",
          "midi": 42,
          "time": 95.04000000000049,
          "velocity": 0.6929133858267716,
          "duration": 0.12000000000000455
        },
        {
          "name": "F#3",
          "midi": 54,
          "time": 95.1600000000005,
          "velocity": 0.7559055118110236,
          "duration": 0.060000000000002274
        },
        {
          "name": "F#3",
          "midi": 54,
          "time": 95.2800000000005,
          "velocity": 0.5039370078740157,
          "duration": 0.060000000000002274
        },
        {
          "name": "F#2",
          "midi": 42,
          "time": 95.2800000000005,
          "velocity": 0.5984251968503937,
          "duration": 0.12000000000000455
        },
        {
          "name": "F#3",
          "midi": 54,
          "time": 95.4000000000005,
          "velocity": 0.7559055118110236,
          "duration": 0.060000000000002274
        },
        {
          "name": "C2",
          "midi": 36,
          "time": 95.52000000000051,
          "velocity": 0.9133858267716536,
          "duration": 0.12000000000000455
        },
        {
          "name": "D2",
          "midi": 38,
          "time": 95.52000000000051,
          "velocity": 0.47244094488188976,
          "duration": 0.12000000000000455
        },
        {
          "name": "F#2",
          "midi": 42,
          "time": 95.52000000000051,
          "velocity": 0.6929133858267716,
          "duration": 0.12000000000000455
        },
        {
          "name": "D#2",
          "midi": 39,
          "time": 95.52000000000051,
          "velocity": 0.6929133858267716,
          "duration": 0.12000000000000455
        },
        {
          "name": "F#3",
          "midi": 54,
          "time": 95.52000000000051,
          "velocity": 0.5039370078740157,
          "duration": 0.030000000000001137
        },
        {
          "name": "F#3",
          "midi": 54,
          "time": 95.55000000000051,
          "velocity": 0.5039370078740157,
          "duration": 0.030000000000001137
        },
        {
          "name": "F#3",
          "midi": 54,
          "time": 95.64000000000051,
          "velocity": 0.7559055118110236,
          "duration": 0.060000000000002274
        },
        {
          "name": "F#2",
          "midi": 42,
          "time": 95.76000000000052,
          "velocity": 0.5984251968503937,
          "duration": 0.12000000000000455
        },
        {
          "name": "F#3",
          "midi": 54,
          "time": 95.76000000000052,
          "velocity": 0.5039370078740157,
          "duration": 0.060000000000002274
        },
        {
          "name": "F#3",
          "midi": 54,
          "time": 95.88000000000052,
          "velocity": 0.7559055118110236,
          "duration": 0.060000000000002274
        },
        {
          "name": "C2",
          "midi": 36,
          "time": 96.00000000000053,
          "velocity": 0.9133858267716536,
          "duration": 0.12000000000000455
        },
        {
          "name": "F#3",
          "midi": 54,
          "time": 96.00000000000053,
          "velocity": 0.5039370078740157,
          "duration": 0.060000000000002274
        },
        {
          "name": "F#2",
          "midi": 42,
          "time": 96.00000000000053,
          "velocity": 0.6929133858267716,
          "duration": 0.12000000000000455
        },
        {
          "name": "F#3",
          "midi": 54,
          "time": 96.12000000000053,
          "velocity": 0.7559055118110236,
          "duration": 0.060000000000002274
        },
        {
          "name": "F#3",
          "midi": 54,
          "time": 96.24000000000053,
          "velocity": 0.5039370078740157,
          "duration": 0.060000000000002274
        },
        {
          "name": "F#2",
          "midi": 42,
          "time": 96.24000000000053,
          "velocity": 0.5984251968503937,
          "duration": 0.12000000000000455
        },
        {
          "name": "F#3",
          "midi": 54,
          "time": 96.36000000000054,
          "velocity": 0.7559055118110236,
          "duration": 0.060000000000002274
        },
        {
          "name": "C2",
          "midi": 36,
          "time": 96.48000000000054,
          "velocity": 0.9133858267716536,
          "duration": 0.12000000000000455
        },
        {
          "name": "D2",
          "midi": 38,
          "time": 96.48000000000054,
          "velocity": 0.47244094488188976,
          "duration": 0.12000000000000455
        },
        {
          "name": "F#2",
          "midi": 42,
          "time": 96.48000000000054,
          "velocity": 0.6929133858267716,
          "duration": 0.12000000000000455
        },
        {
          "name": "D#2",
          "midi": 39,
          "time": 96.48000000000054,
          "velocity": 0.6929133858267716,
          "duration": 0.12000000000000455
        },
        {
          "name": "F#3",
          "midi": 54,
          "time": 96.48000000000054,
          "velocity": 0.5039370078740157,
          "duration": 0.060000000000002274
        },
        {
          "name": "F#3",
          "midi": 54,
          "time": 96.60000000000055,
          "velocity": 0.7559055118110236,
          "duration": 0.060000000000002274
        },
        {
          "name": "F#2",
          "midi": 42,
          "time": 96.72000000000055,
          "velocity": 0.5984251968503937,
          "duration": 0.12000000000000455
        },
        {
          "name": "F#3",
          "midi": 54,
          "time": 96.72000000000055,
          "velocity": 0.5039370078740157,
          "duration": 0.060000000000002274
        },
        {
          "name": "F#3",
          "midi": 54,
          "time": 96.84000000000056,
          "velocity": 0.7559055118110236,
          "duration": 0.060000000000002274
        },
        {
          "name": "C2",
          "midi": 36,
          "time": 96.96000000000056,
          "velocity": 0.9133858267716536,
          "duration": 0.12000000000000455
        },
        {
          "name": "F#3",
          "midi": 54,
          "time": 96.96000000000056,
          "velocity": 0.5039370078740157,
          "duration": 0.060000000000002274
        },
        {
          "name": "F#2",
          "midi": 42,
          "time": 96.96000000000056,
          "velocity": 0.6929133858267716,
          "duration": 0.12000000000000455
        },
        {
          "name": "F#3",
          "midi": 54,
          "time": 97.08000000000057,
          "velocity": 0.7559055118110236,
          "duration": 0.060000000000002274
        },
        {
          "name": "F#3",
          "midi": 54,
          "time": 97.20000000000057,
          "velocity": 0.5039370078740157,
          "duration": 0.060000000000002274
        },
        {
          "name": "F#2",
          "midi": 42,
          "time": 97.20000000000057,
          "velocity": 0.5984251968503937,
          "duration": 0.12000000000000455
        },
        {
          "name": "F#3",
          "midi": 54,
          "time": 97.32000000000058,
          "velocity": 0.7559055118110236,
          "duration": 0.060000000000002274
        },
        {
          "name": "C2",
          "midi": 36,
          "time": 97.44000000000058,
          "velocity": 0.9133858267716536,
          "duration": 0.12000000000000455
        },
        {
          "name": "D2",
          "midi": 38,
          "time": 97.44000000000058,
          "velocity": 0.47244094488188976,
          "duration": 0.12000000000000455
        },
        {
          "name": "F#2",
          "midi": 42,
          "time": 97.44000000000058,
          "velocity": 0.6929133858267716,
          "duration": 0.12000000000000455
        },
        {
          "name": "D#2",
          "midi": 39,
          "time": 97.44000000000058,
          "velocity": 0.6929133858267716,
          "duration": 0.12000000000000455
        },
        {
          "name": "F#3",
          "midi": 54,
          "time": 97.44000000000058,
          "velocity": 0.5039370078740157,
          "duration": 0.030000000000001137
        },
        {
          "name": "F#3",
          "midi": 54,
          "time": 97.47000000000058,
          "velocity": 0.5039370078740157,
          "duration": 0.030000000000001137
        },
        {
          "name": "F#3",
          "midi": 54,
          "time": 97.56000000000058,
          "velocity": 0.7559055118110236,
          "duration": 0.060000000000002274
        },
        {
          "name": "F#2",
          "midi": 42,
          "time": 97.68000000000059,
          "velocity": 0.5984251968503937,
          "duration": 0.12000000000000455
        },
        {
          "name": "F#3",
          "midi": 54,
          "time": 97.68000000000059,
          "velocity": 0.5039370078740157,
          "duration": 0.060000000000002274
        },
        {
          "name": "F#3",
          "midi": 54,
          "time": 97.8000000000006,
          "velocity": 0.7559055118110236,
          "duration": 0.060000000000002274
        },
        {
          "name": "C2",
          "midi": 36,
          "time": 97.9200000000006,
          "velocity": 0.9133858267716536,
          "duration": 0.12000000000000455
        },
        {
          "name": "F#3",
          "midi": 54,
          "time": 97.9200000000006,
          "velocity": 0.5039370078740157,
          "duration": 0.060000000000002274
        },
        {
          "name": "F#2",
          "midi": 42,
          "time": 97.9200000000006,
          "velocity": 0.6929133858267716,
          "duration": 0.12000000000000455
        },
        {
          "name": "F#3",
          "midi": 54,
          "time": 98.0400000000006,
          "velocity": 0.7559055118110236,
          "duration": 0.060000000000002274
        },
        {
          "name": "F#3",
          "midi": 54,
          "time": 98.16000000000061,
          "velocity": 0.5039370078740157,
          "duration": 0.060000000000002274
        },
        {
          "name": "F#2",
          "midi": 42,
          "time": 98.16000000000061,
          "velocity": 0.5984251968503937,
          "duration": 0.12000000000000455
        },
        {
          "name": "F#3",
          "midi": 54,
          "time": 98.28000000000061,
          "velocity": 0.7559055118110236,
          "duration": 0.060000000000002274
        },
        {
          "name": "C2",
          "midi": 36,
          "time": 98.40000000000062,
          "velocity": 0.9133858267716536,
          "duration": 0.12000000000000455
        },
        {
          "name": "D2",
          "midi": 38,
          "time": 98.40000000000062,
          "velocity": 0.47244094488188976,
          "duration": 0.12000000000000455
        },
        {
          "name": "D#2",
          "midi": 39,
          "time": 98.40000000000062,
          "velocity": 0.6929133858267716,
          "duration": 0.12000000000000455
        },
        {
          "name": "F#3",
          "midi": 54,
          "time": 98.40000000000062,
          "velocity": 0.5039370078740157,
          "duration": 0.060000000000002274
        },
        {
          "name": "F#2",
          "midi": 42,
          "time": 98.40000000000062,
          "velocity": 0.6929133858267716,
          "duration": 0.12000000000000455
        },
        {
          "name": "F#3",
          "midi": 54,
          "time": 98.52000000000062,
          "velocity": 0.7559055118110236,
          "duration": 0.060000000000002274
        },
        {
          "name": "F#2",
          "midi": 42,
          "time": 98.64000000000063,
          "velocity": 0.5984251968503937,
          "duration": 0.12000000000000455
        },
        {
          "name": "F#3",
          "midi": 54,
          "time": 98.64000000000063,
          "velocity": 0.5039370078740157,
          "duration": 0.060000000000002274
        },
        {
          "name": "F#3",
          "midi": 54,
          "time": 98.76000000000063,
          "velocity": 0.7559055118110236,
          "duration": 0.060000000000002274
        },
        {
          "name": "C2",
          "midi": 36,
          "time": 98.88000000000063,
          "velocity": 0.9133858267716536,
          "duration": 0.12000000000000455
        },
        {
          "name": "F#3",
          "midi": 54,
          "time": 98.88000000000063,
          "velocity": 0.5039370078740157,
          "duration": 0.060000000000002274
        },
        {
          "name": "F#2",
          "midi": 42,
          "time": 98.88000000000063,
          "velocity": 0.6929133858267716,
          "duration": 0.12000000000000455
        },
        {
          "name": "F#3",
          "midi": 54,
          "time": 99.00000000000064,
          "velocity": 0.7559055118110236,
          "duration": 0.060000000000002274
        },
        {
          "name": "F#3",
          "midi": 54,
          "time": 99.12000000000064,
          "velocity": 0.5039370078740157,
          "duration": 0.060000000000002274
        },
        {
          "name": "F#2",
          "midi": 42,
          "time": 99.12000000000064,
          "velocity": 0.5984251968503937,
          "duration": 0.12000000000000455
        },
        {
          "name": "F#3",
          "midi": 54,
          "time": 99.24000000000065,
          "velocity": 0.7559055118110236,
          "duration": 0.060000000000002274
        },
        {
          "name": "C2",
          "midi": 36,
          "time": 99.36000000000065,
          "velocity": 0.9133858267716536,
          "duration": 0.12000000000000455
        },
        {
          "name": "D2",
          "midi": 38,
          "time": 99.36000000000065,
          "velocity": 0.47244094488188976,
          "duration": 0.12000000000000455
        },
        {
          "name": "D#2",
          "midi": 39,
          "time": 99.36000000000065,
          "velocity": 0.6929133858267716,
          "duration": 0.12000000000000455
        },
        {
          "name": "F#3",
          "midi": 54,
          "time": 99.36000000000065,
          "velocity": 0.5039370078740157,
          "duration": 0.030000000000001137
        },
        {
          "name": "F#2",
          "midi": 42,
          "time": 99.36000000000065,
          "velocity": 0.6929133858267716,
          "duration": 0.12000000000000455
        },
        {
          "name": "F#3",
          "midi": 54,
          "time": 99.39000000000065,
          "velocity": 0.5039370078740157,
          "duration": 0.030000000000001137
        },
        {
          "name": "F#3",
          "midi": 54,
          "time": 99.48000000000066,
          "velocity": 0.7559055118110236,
          "duration": 0.060000000000002274
        },
        {
          "name": "F#3",
          "midi": 54,
          "time": 99.60000000000066,
          "velocity": 0.5039370078740157,
          "duration": 0.060000000000002274
        },
        {
          "name": "F#2",
          "midi": 42,
          "time": 99.60000000000066,
          "velocity": 0.5039370078740157,
          "duration": 0.12000000000000455
        },
        {
          "name": "F#3",
          "midi": 54,
          "time": 99.72000000000067,
          "velocity": 0.7559055118110236,
          "duration": 0.060000000000002274
        },
        {
          "name": "C2",
          "midi": 36,
          "time": 99.84000000000067,
          "velocity": 0.9133858267716536,
          "duration": 0.12000000000000455
        },
        {
          "name": "F#3",
          "midi": 54,
          "time": 99.84000000000067,
          "velocity": 0.5039370078740157,
          "duration": 0.060000000000002274
        },
        {
          "name": "F#3",
          "midi": 54,
          "time": 99.96000000000068,
          "velocity": 0.7559055118110236,
          "duration": 0.060000000000002274
        },
        {
          "name": "F#3",
          "midi": 54,
          "time": 100.08000000000068,
          "velocity": 0.5039370078740157,
          "duration": 0.060000000000002274
        },
        {
          "name": "F#3",
          "midi": 54,
          "time": 100.20000000000068,
          "velocity": 0.7559055118110236,
          "duration": 0.060000000000002274
        },
        {
          "name": "C2",
          "midi": 36,
          "time": 100.32000000000069,
          "velocity": 0.9133858267716536,
          "duration": 0.12000000000000455
        },
        {
          "name": "F#3",
          "midi": 54,
          "time": 100.32000000000069,
          "velocity": 0.8818897637795275,
          "duration": 0.12000000000000455
        },
        {
          "name": "D#2",
          "midi": 39,
          "time": 100.32000000000069,
          "velocity": 0.4409448818897638,
          "duration": 0.12000000000000455
        },
        {
          "name": "F#3",
          "midi": 54,
          "time": 100.4400000000007,
          "velocity": 0.7559055118110236,
          "duration": 0.060000000000002274
        },
        {
          "name": "F#3",
          "midi": 54,
          "time": 100.5600000000007,
          "velocity": 0.5039370078740157,
          "duration": 0.060000000000002274
        },
        {
          "name": "F#3",
          "midi": 54,
          "time": 100.6800000000007,
          "velocity": 0.7559055118110236,
          "duration": 0.060000000000002274
        },
        {
          "name": "C2",
          "midi": 36,
          "time": 100.80000000000071,
          "velocity": 0.9133858267716536,
          "duration": 0.12000000000000455
        },
        {
          "name": "F#3",
          "midi": 54,
          "time": 100.80000000000071,
          "velocity": 0.5039370078740157,
          "duration": 0.060000000000002274
        },
        {
          "name": "F#3",
          "midi": 54,
          "time": 100.92000000000071,
          "velocity": 0.7559055118110236,
          "duration": 0.060000000000002274
        },
        {
          "name": "F#3",
          "midi": 54,
          "time": 101.04000000000072,
          "velocity": 0.5039370078740157,
          "duration": 0.060000000000002274
        },
        {
          "name": "F#3",
          "midi": 54,
          "time": 101.16000000000072,
          "velocity": 0.7559055118110236,
          "duration": 0.060000000000002274
        },
        {
          "name": "C2",
          "midi": 36,
          "time": 101.28000000000073,
          "velocity": 0.9133858267716536,
          "duration": 0.12000000000000455
        },
        {
          "name": "F#3",
          "midi": 54,
          "time": 101.28000000000073,
          "velocity": 0.8188976377952756,
          "duration": 0.12000000000000455
        },
        {
          "name": "D#2",
          "midi": 39,
          "time": 101.28000000000073,
          "velocity": 0.3779527559055118,
          "duration": 0.12000000000000455
        },
        {
          "name": "F#3",
          "midi": 54,
          "time": 101.40000000000073,
          "velocity": 0.7559055118110236,
          "duration": 0.060000000000002274
        },
        {
          "name": "F#3",
          "midi": 54,
          "time": 101.52000000000073,
          "velocity": 0.5039370078740157,
          "duration": 0.060000000000002274
        },
        {
          "name": "F#3",
          "midi": 54,
          "time": 101.64000000000074,
          "velocity": 0.7559055118110236,
          "duration": 0.060000000000002274
        },
        {
          "name": "C2",
          "midi": 36,
          "time": 101.76000000000074,
          "velocity": 0.9133858267716536,
          "duration": 0.12000000000000455
        },
        {
          "name": "F#3",
          "midi": 54,
          "time": 101.76000000000074,
          "velocity": 0.5039370078740157,
          "duration": 0.060000000000002274
        },
        {
          "name": "F#3",
          "midi": 54,
          "time": 101.88000000000075,
          "velocity": 0.7559055118110236,
          "duration": 0.060000000000002274
        },
        {
          "name": "F#3",
          "midi": 54,
          "time": 102.00000000000075,
          "velocity": 0.5039370078740157,
          "duration": 0.060000000000002274
        },
        {
          "name": "F#3",
          "midi": 54,
          "time": 102.12000000000076,
          "velocity": 0.7559055118110236,
          "duration": 0.060000000000002274
        },
        {
          "name": "C2",
          "midi": 36,
          "time": 102.24000000000076,
          "velocity": 0.9133858267716536,
          "duration": 0.12000000000000455
        },
        {
          "name": "F#3",
          "midi": 54,
          "time": 102.24000000000076,
          "velocity": 0.7559055118110236,
          "duration": 0.12000000000000455
        },
        {
          "name": "D#2",
          "midi": 39,
          "time": 102.24000000000076,
          "velocity": 0.31496062992125984,
          "duration": 0.12000000000000455
        },
        {
          "name": "F#3",
          "midi": 54,
          "time": 102.36000000000077,
          "velocity": 0.7559055118110236,
          "duration": 0.060000000000002274
        },
        {
          "name": "F#3",
          "midi": 54,
          "time": 102.48000000000077,
          "velocity": 0.5039370078740157,
          "duration": 0.060000000000002274
        },
        {
          "name": "F#3",
          "midi": 54,
          "time": 102.60000000000078,
          "velocity": 0.7559055118110236,
          "duration": 0.060000000000002274
        },
        {
          "name": "C2",
          "midi": 36,
          "time": 102.72000000000078,
          "velocity": 0.9133858267716536,
          "duration": 0.12000000000000455
        },
        {
          "name": "F#3",
          "midi": 54,
          "time": 102.72000000000078,
          "velocity": 0.5039370078740157,
          "duration": 0.060000000000002274
        },
        {
          "name": "F#3",
          "midi": 54,
          "time": 102.84000000000079,
          "velocity": 0.7559055118110236,
          "duration": 0.060000000000002274
        },
        {
          "name": "F#3",
          "midi": 54,
          "time": 102.96000000000079,
          "velocity": 0.5039370078740157,
          "duration": 0.060000000000002274
        },
        {
          "name": "F#3",
          "midi": 54,
          "time": 103.0800000000008,
          "velocity": 0.7559055118110236,
          "duration": 0.060000000000002274
        },
        {
          "name": "C2",
          "midi": 36,
          "time": 103.2000000000008,
          "velocity": 0.9133858267716536,
          "duration": 0.12000000000000455
        },
        {
          "name": "F#3",
          "midi": 54,
          "time": 103.2000000000008,
          "velocity": 0.6929133858267716,
          "duration": 0.12000000000000455
        },
        {
          "name": "D#2",
          "midi": 39,
          "time": 103.2000000000008,
          "velocity": 0.25196850393700787,
          "duration": 0.12000000000000455
        },
        {
          "name": "F#3",
          "midi": 54,
          "time": 103.3200000000008,
          "velocity": 0.7559055118110236,
          "duration": 0.060000000000002274
        },
        {
          "name": "F#3",
          "midi": 54,
          "time": 103.44000000000081,
          "velocity": 0.5039370078740157,
          "duration": 0.060000000000002274
        },
        {
          "name": "F#3",
          "midi": 54,
          "time": 103.56000000000081,
          "velocity": 0.7559055118110236,
          "duration": 0.060000000000002274
        },
        {
          "name": "C2",
          "midi": 36,
          "time": 103.68000000000082,
          "velocity": 0.9133858267716536,
          "duration": 0.12000000000000455
        },
        {
          "name": "F#3",
          "midi": 54,
          "time": 103.68000000000082,
          "velocity": 0.5039370078740157,
          "duration": 0.060000000000002274
        },
        {
          "name": "F#3",
          "midi": 54,
          "time": 103.80000000000082,
          "velocity": 0.7559055118110236,
          "duration": 0.060000000000002274
        },
        {
          "name": "F#3",
          "midi": 54,
          "time": 103.92000000000083,
          "velocity": 0.5039370078740157,
          "duration": 0.060000000000002274
        },
        {
          "name": "F#3",
          "midi": 54,
          "time": 104.04000000000083,
          "velocity": 0.7559055118110236,
          "duration": 0.060000000000002274
        },
        {
          "name": "C2",
          "midi": 36,
          "time": 104.16000000000084,
          "velocity": 0.9133858267716536,
          "duration": 0.12000000000000455
        },
        {
          "name": "F#3",
          "midi": 54,
          "time": 104.16000000000084,
          "velocity": 0.5039370078740157,
          "duration": 0.060000000000002274
        },
        {
          "name": "F#3",
          "midi": 54,
          "time": 104.16000000000084,
          "velocity": 0.6299212598425197,
          "duration": 0.12000000000000455
        },
        {
          "name": "D#2",
          "midi": 39,
          "time": 104.16000000000084,
          "velocity": 0.1889763779527559,
          "duration": 0.12000000000000455
        },
        {
          "name": "F#3",
          "midi": 54,
          "time": 104.28000000000084,
          "velocity": 0.7559055118110236,
          "duration": 0.060000000000002274
        },
        {
          "name": "F#3",
          "midi": 54,
          "time": 104.40000000000084,
          "velocity": 0.5039370078740157,
          "duration": 0.060000000000002274
        },
        {
          "name": "F#3",
          "midi": 54,
          "time": 104.52000000000085,
          "velocity": 0.7559055118110236,
          "duration": 0.060000000000002274
        },
        {
          "name": "C2",
          "midi": 36,
          "time": 104.64000000000085,
          "velocity": 0.9133858267716536,
          "duration": 0.12000000000000455
        },
        {
          "name": "F#3",
          "midi": 54,
          "time": 104.64000000000085,
          "velocity": 0.5039370078740157,
          "duration": 0.060000000000002274
        },
        {
          "name": "F#3",
          "midi": 54,
          "time": 104.76000000000086,
          "velocity": 0.7559055118110236,
          "duration": 0.060000000000002274
        },
        {
          "name": "F#3",
          "midi": 54,
          "time": 104.88000000000086,
          "velocity": 0.5039370078740157,
          "duration": 0.060000000000002274
        },
        {
          "name": "F#3",
          "midi": 54,
          "time": 105.00000000000087,
          "velocity": 0.7559055118110236,
          "duration": 0.060000000000002274
        },
        {
          "name": "C2",
          "midi": 36,
          "time": 105.12000000000087,
          "velocity": 0.9133858267716536,
          "duration": 0.12000000000000455
        },
        {
          "name": "F#3",
          "midi": 54,
          "time": 105.12000000000087,
          "velocity": 0.5669291338582677,
          "duration": 0.12000000000000455
        },
        {
          "name": "D#2",
          "midi": 39,
          "time": 105.12000000000087,
          "velocity": 0.12598425196850394,
          "duration": 0.12000000000000455
        },
        {
          "name": "F#3",
          "midi": 54,
          "time": 105.24000000000088,
          "velocity": 0.7559055118110236,
          "duration": 0.060000000000002274
        },
        {
          "name": "F#3",
          "midi": 54,
          "time": 105.36000000000088,
          "velocity": 0.5039370078740157,
          "duration": 0.060000000000002274
        },
        {
          "name": "F#3",
          "midi": 54,
          "time": 105.48000000000089,
          "velocity": 0.7559055118110236,
          "duration": 0.060000000000002274
        },
        {
          "name": "C2",
          "midi": 36,
          "time": 105.60000000000089,
          "velocity": 0.9133858267716536,
          "duration": 0.12000000000000455
        },
        {
          "name": "F#3",
          "midi": 54,
          "time": 105.60000000000089,
          "velocity": 0.5039370078740157,
          "duration": 0.060000000000002274
        },
        {
          "name": "F#3",
          "midi": 54,
          "time": 105.7200000000009,
          "velocity": 0.7559055118110236,
          "duration": 0.060000000000002274
        },
        {
          "name": "F#3",
          "midi": 54,
          "time": 105.8400000000009,
          "velocity": 0.5039370078740157,
          "duration": 0.060000000000002274
        },
        {
          "name": "F#3",
          "midi": 54,
          "time": 105.9600000000009,
          "velocity": 0.7559055118110236,
          "duration": 0.060000000000002274
        },
        {
          "name": "C2",
          "midi": 36,
          "time": 106.08000000000091,
          "velocity": 0.9133858267716536,
          "duration": 0.12000000000000455
        },
        {
          "name": "F#3",
          "midi": 54,
          "time": 106.08000000000091,
          "velocity": 0.49606299212598426,
          "duration": 0.12000000000000455
        },
        {
          "name": "D#2",
          "midi": 39,
          "time": 106.08000000000091,
          "velocity": 0.05511811023622047,
          "duration": 0.12000000000000455
        },
        {
          "name": "F#3",
          "midi": 54,
          "time": 106.20000000000091,
          "velocity": 0.7559055118110236,
          "duration": 0.060000000000002274
        },
        {
          "name": "F#3",
          "midi": 54,
          "time": 106.32000000000092,
          "velocity": 0.5039370078740157,
          "duration": 0.060000000000002274
        },
        {
          "name": "F#3",
          "midi": 54,
          "time": 106.44000000000092,
          "velocity": 0.7559055118110236,
          "duration": 0.060000000000002274
        },
        {
          "name": "C2",
          "midi": 36,
          "time": 106.56000000000093,
          "velocity": 0.9133858267716536,
          "duration": 0.12000000000000455
        },
        {
          "name": "F#3",
          "midi": 54,
          "time": 106.56000000000093,
          "velocity": 0.5039370078740157,
          "duration": 0.060000000000002274
        },
        {
          "name": "F#3",
          "midi": 54,
          "time": 106.68000000000093,
          "velocity": 0.7559055118110236,
          "duration": 0.060000000000002274
        },
        {
          "name": "F#3",
          "midi": 54,
          "time": 106.80000000000094,
          "velocity": 0.5039370078740157,
          "duration": 0.060000000000002274
        },
        {
          "name": "F#3",
          "midi": 54,
          "time": 106.92000000000094,
          "velocity": 0.7559055118110236,
          "duration": 0.060000000000002274
        },
        {
          "name": "C2",
          "midi": 36,
          "time": 107.04000000000094,
          "velocity": 0.9133858267716536,
          "duration": 0.12000000000000455
        },
        {
          "name": "D#2",
          "midi": 39,
          "time": 107.04000000000094,
          "velocity": 0.007874015748031496,
          "duration": 0.12000000000000455
        },
        {
          "name": "F#3",
          "midi": 54,
          "time": 107.04000000000094,
          "velocity": 0.5039370078740157,
          "duration": 0.030000000000001137
        },
        {
          "name": "F#3",
          "midi": 54,
          "time": 107.07000000000095,
          "velocity": 0.5039370078740157,
          "duration": 0.030000000000001137
        },
        {
          "name": "F#3",
          "midi": 54,
          "time": 107.16000000000095,
          "velocity": 0.7559055118110236,
          "duration": 0.060000000000002274
        },
        {
          "name": "F#3",
          "midi": 54,
          "time": 107.28000000000095,
          "velocity": 0.5039370078740157,
          "duration": 0.060000000000002274
        },
        {
          "name": "F#3",
          "midi": 54,
          "time": 107.40000000000096,
          "velocity": 0.7559055118110236,
          "duration": 0.060000000000002274
        },
        {
          "name": "C2",
          "midi": 36,
          "time": 107.52000000000096,
          "velocity": 0.9133858267716536,
          "duration": 0.12000000000000455
        },
        {
          "name": "F#3",
          "midi": 54,
          "time": 107.52000000000096,
          "velocity": 0.5039370078740157,
          "duration": 0.060000000000002274
        },
        {
          "name": "F#3",
          "midi": 54,
          "time": 107.64000000000097,
          "velocity": 0.7559055118110236,
          "duration": 0.060000000000002274
        },
        {
          "name": "F#3",
          "midi": 54,
          "time": 107.76000000000097,
          "velocity": 0.5039370078740157,
          "duration": 0.060000000000002274
        },
        {
          "name": "F#3",
          "midi": 54,
          "time": 107.88000000000098,
          "velocity": 0.7559055118110236,
          "duration": 0.060000000000002274
        },
        {
          "name": "C2",
          "midi": 36,
          "time": 108.00000000000098,
          "velocity": 0.9133858267716536,
          "duration": 0.12000000000000455
        },
        {
          "name": "F#3",
          "midi": 54,
          "time": 108.00000000000098,
          "velocity": 0.5039370078740157,
          "duration": 0.060000000000002274
        },
        {
          "name": "D#2",
          "midi": 39,
          "time": 108.00000000000098,
          "velocity": 0.007874015748031496,
          "duration": 0.12000000000000455
        },
        {
          "name": "F#3",
          "midi": 54,
          "time": 108.12000000000099,
          "velocity": 0.7559055118110236,
          "duration": 0.060000000000002274
        },
        {
          "name": "F#3",
          "midi": 54,
          "time": 108.24000000000099,
          "velocity": 0.5039370078740157,
          "duration": 0.060000000000002274
        },
        {
          "name": "F#3",
          "midi": 54,
          "time": 108.360000000001,
          "velocity": 0.7559055118110236,
          "duration": 0.060000000000002274
        },
        {
          "name": "C2",
          "midi": 36,
          "time": 108.480000000001,
          "velocity": 0.9133858267716536,
          "duration": 0.12000000000000455
        },
        {
          "name": "F#3",
          "midi": 54,
          "time": 108.480000000001,
          "velocity": 0.5039370078740157,
          "duration": 0.060000000000002274
        },
        {
          "name": "F#3",
          "midi": 54,
          "time": 108.600000000001,
          "velocity": 0.7559055118110236,
          "duration": 0.060000000000002274
        },
        {
          "name": "F#3",
          "midi": 54,
          "time": 108.72000000000101,
          "velocity": 0.5039370078740157,
          "duration": 0.060000000000002274
        },
        {
          "name": "F#3",
          "midi": 54,
          "time": 108.84000000000101,
          "velocity": 0.7559055118110236,
          "duration": 0.060000000000002274
        },
        {
          "name": "C2",
          "midi": 36,
          "time": 108.96000000000102,
          "velocity": 0.9133858267716536,
          "duration": 0.12000000000000455
        },
        {
          "name": "F#3",
          "midi": 54,
          "time": 108.96000000000102,
          "velocity": 0.5039370078740157,
          "duration": 0.030000000000001137
        },
        {
          "name": "D#2",
          "midi": 39,
          "time": 108.96000000000102,
          "velocity": 0.007874015748031496,
          "duration": 0.12000000000000455
        },
        {
          "name": "F#3",
          "midi": 54,
          "time": 108.99000000000102,
          "velocity": 0.5039370078740157,
          "duration": 0.030000000000001137
        },
        {
          "name": "F#3",
          "midi": 54,
          "time": 109.08000000000102,
          "velocity": 0.7559055118110236,
          "duration": 0.060000000000002274
        },
        {
          "name": "F#3",
          "midi": 54,
          "time": 109.20000000000103,
          "velocity": 0.5039370078740157,
          "duration": 0.060000000000002274
        },
        {
          "name": "F#3",
          "midi": 54,
          "time": 109.32000000000103,
          "velocity": 0.7559055118110236,
          "duration": 0.060000000000002274
        },
        {
          "name": "C2",
          "midi": 36,
          "time": 109.44000000000104,
          "velocity": 0.9133858267716536,
          "duration": 0.12000000000000455
        },
        {
          "name": "F#3",
          "midi": 54,
          "time": 109.44000000000104,
          "velocity": 0.5039370078740157,
          "duration": 0.060000000000002274
        },
        {
          "name": "F#3",
          "midi": 54,
          "time": 109.56000000000104,
          "velocity": 0.7559055118110236,
          "duration": 0.060000000000002274
        },
        {
          "name": "F#3",
          "midi": 54,
          "time": 109.68000000000104,
          "velocity": 0.5039370078740157,
          "duration": 0.060000000000002274
        },
        {
          "name": "F#3",
          "midi": 54,
          "time": 109.80000000000105,
          "velocity": 0.7559055118110236,
          "duration": 0.060000000000002274
        },
        {
          "name": "C2",
          "midi": 36,
          "time": 109.92000000000105,
          "velocity": 0.9133858267716536,
          "duration": 0.12000000000000455
        },
        {
          "name": "F#3",
          "midi": 54,
          "time": 109.92000000000105,
          "velocity": 0.5039370078740157,
          "duration": 0.060000000000002274
        },
        {
          "name": "D#2",
          "midi": 39,
          "time": 109.92000000000105,
          "velocity": 0.007874015748031496,
          "duration": 0.12000000000000455
        },
        {
          "name": "F#3",
          "midi": 54,
          "time": 110.04000000000106,
          "velocity": 0.7559055118110236,
          "duration": 0.060000000000002274
        },
        {
          "name": "F#3",
          "midi": 54,
          "time": 110.16000000000106,
          "velocity": 0.5039370078740157,
          "duration": 0.060000000000002274
        },
        {
          "name": "F#3",
          "midi": 54,
          "time": 110.28000000000107,
          "velocity": 0.7559055118110236,
          "duration": 0.060000000000002274
        },
        {
          "name": "C2",
          "midi": 36,
          "time": 110.40000000000107,
          "velocity": 0.9133858267716536,
          "duration": 0.12000000000000455
        },
        {
          "name": "F#3",
          "midi": 54,
          "time": 110.40000000000107,
          "velocity": 0.5039370078740157,
          "duration": 0.060000000000002274
        },
        {
          "name": "F#3",
          "midi": 54,
          "time": 110.52000000000108,
          "velocity": 0.7559055118110236,
          "duration": 0.060000000000002274
        },
        {
          "name": "F#3",
          "midi": 54,
          "time": 110.64000000000108,
          "velocity": 0.5039370078740157,
          "duration": 0.060000000000002274
        },
        {
          "name": "F#3",
          "midi": 54,
          "time": 110.76000000000109,
          "velocity": 0.7559055118110236,
          "duration": 0.060000000000002274
        },
        {
          "name": "C2",
          "midi": 36,
          "time": 110.88000000000109,
          "velocity": 0.9133858267716536,
          "duration": 0.12000000000000455
        },
        {
          "name": "F#3",
          "midi": 54,
          "time": 110.88000000000109,
          "velocity": 0.5039370078740157,
          "duration": 0.030000000000001137
        },
        {
          "name": "D#2",
          "midi": 39,
          "time": 110.88000000000109,
          "velocity": 0.007874015748031496,
          "duration": 0.12000000000000455
        },
        {
          "name": "F#3",
          "midi": 54,
          "time": 110.91000000000109,
          "velocity": 0.5039370078740157,
          "duration": 0.030000000000001137
        },
        {
          "name": "F#3",
          "midi": 54,
          "time": 111.0000000000011,
          "velocity": 0.7559055118110236,
          "duration": 0.060000000000002274
        },
        {
          "name": "F#3",
          "midi": 54,
          "time": 111.1200000000011,
          "velocity": 0.5039370078740157,
          "duration": 0.060000000000002274
        },
        {
          "name": "F#3",
          "midi": 54,
          "time": 111.2400000000011,
          "velocity": 0.7559055118110236,
          "duration": 0.060000000000002274
        },
        {
          "name": "C2",
          "midi": 36,
          "time": 111.36000000000111,
          "velocity": 0.9133858267716536,
          "duration": 0.12000000000000455
        },
        {
          "name": "F#3",
          "midi": 54,
          "time": 111.36000000000111,
          "velocity": 0.5039370078740157,
          "duration": 0.060000000000002274
        },
        {
          "name": "F#3",
          "midi": 54,
          "time": 111.48000000000111,
          "velocity": 0.7559055118110236,
          "duration": 0.060000000000002274
        },
        {
          "name": "F#3",
          "midi": 54,
          "time": 111.60000000000112,
          "velocity": 0.5039370078740157,
          "duration": 0.060000000000002274
        },
        {
          "name": "F#3",
          "midi": 54,
          "time": 111.72000000000112,
          "velocity": 0.7559055118110236,
          "duration": 0.060000000000002274
        },
        {
          "name": "C2",
          "midi": 36,
          "time": 111.84000000000113,
          "velocity": 0.9133858267716536,
          "duration": 0.12000000000000455
        },
        {
          "name": "F#3",
          "midi": 54,
          "time": 111.84000000000113,
          "velocity": 0.5039370078740157,
          "duration": 0.060000000000002274
        },
        {
          "name": "D#2",
          "midi": 39,
          "time": 111.84000000000113,
          "velocity": 0.007874015748031496,
          "duration": 0.12000000000000455
        },
        {
          "name": "F#3",
          "midi": 54,
          "time": 111.96000000000113,
          "velocity": 0.7559055118110236,
          "duration": 0.060000000000002274
        },
        {
          "name": "F#3",
          "midi": 54,
          "time": 112.08000000000114,
          "velocity": 0.5039370078740157,
          "duration": 0.060000000000002274
        },
        {
          "name": "F#3",
          "midi": 54,
          "time": 112.20000000000114,
          "velocity": 0.7559055118110236,
          "duration": 0.060000000000002274
        },
        {
          "name": "C2",
          "midi": 36,
          "time": 112.32000000000114,
          "velocity": 0.8110236220472441,
          "duration": 0.12000000000000455
        },
        {
          "name": "F#3",
          "midi": 54,
          "time": 112.32000000000114,
          "velocity": 0.5039370078740157,
          "duration": 0.060000000000002274
        },
        {
          "name": "F#3",
          "midi": 54,
          "time": 112.44000000000115,
          "velocity": 0.7559055118110236,
          "duration": 0.060000000000002274
        },
        {
          "name": "F#3",
          "midi": 54,
          "time": 112.56000000000115,
          "velocity": 0.5039370078740157,
          "duration": 0.060000000000002274
        },
        {
          "name": "F#3",
          "midi": 54,
          "time": 112.68000000000116,
          "velocity": 0.7559055118110236,
          "duration": 0.060000000000002274
        },
        {
          "name": "C2",
          "midi": 36,
          "time": 112.80000000000116,
          "velocity": 0.6929133858267716,
          "duration": 0.12000000000000455
        },
        {
          "name": "D#2",
          "midi": 39,
          "time": 112.80000000000116,
          "velocity": 0.007874015748031496,
          "duration": 0.12000000000000455
        },
        {
          "name": "F#3",
          "midi": 54,
          "time": 112.80000000000116,
          "velocity": 0.5039370078740157,
          "duration": 0.030000000000001137
        },
        {
          "name": "F#3",
          "midi": 54,
          "time": 112.83000000000116,
          "velocity": 0.5039370078740157,
          "duration": 0.030000000000001137
        },
        {
          "name": "F#3",
          "midi": 54,
          "time": 112.92000000000117,
          "velocity": 0.7559055118110236,
          "duration": 0.060000000000002274
        },
        {
          "name": "F#3",
          "midi": 54,
          "time": 113.04000000000117,
          "velocity": 0.5039370078740157,
          "duration": 0.060000000000002274
        },
        {
          "name": "F#3",
          "midi": 54,
          "time": 113.16000000000118,
          "velocity": 0.7559055118110236,
          "duration": 0.060000000000002274
        },
        {
          "name": "F#3",
          "midi": 54,
          "time": 113.28000000000118,
          "velocity": 0.5039370078740157,
          "duration": 0.060000000000002274
        },
        {
          "name": "C2",
          "midi": 36,
          "time": 113.28000000000118,
          "velocity": 0.5984251968503937,
          "duration": 0.12000000000000455
        },
        {
          "name": "F#3",
          "midi": 54,
          "time": 113.40000000000119,
          "velocity": 0.7559055118110236,
          "duration": 0.060000000000002274
        },
        {
          "name": "F#3",
          "midi": 54,
          "time": 113.52000000000119,
          "velocity": 0.5039370078740157,
          "duration": 0.060000000000002274
        },
        {
          "name": "F#3",
          "midi": 54,
          "time": 113.6400000000012,
          "velocity": 0.7559055118110236,
          "duration": 0.060000000000002274
        },
        {
          "name": "C2",
          "midi": 36,
          "time": 113.7600000000012,
          "velocity": 0.5118110236220472,
          "duration": 0.12000000000000455
        },
        {
          "name": "F#3",
          "midi": 54,
          "time": 113.7600000000012,
          "velocity": 0.5039370078740157,
          "duration": 0.060000000000002274
        },
        {
          "name": "D#2",
          "midi": 39,
          "time": 113.7600000000012,
          "velocity": 0.007874015748031496,
          "duration": 0.12000000000000455
        },
        {
          "name": "F#3",
          "midi": 54,
          "time": 113.8800000000012,
          "velocity": 0.7559055118110236,
          "duration": 0.060000000000002274
        },
        {
          "name": "F#3",
          "midi": 54,
          "time": 114.00000000000121,
          "velocity": 0.5039370078740157,
          "duration": 0.060000000000002274
        },
        {
          "name": "F#3",
          "midi": 54,
          "time": 114.12000000000121,
          "velocity": 0.7559055118110236,
          "duration": 0.060000000000002274
        },
        {
          "name": "F#3",
          "midi": 54,
          "time": 114.24000000000122,
          "velocity": 0.5039370078740157,
          "duration": 0.060000000000002274
        },
        {
          "name": "C2",
          "midi": 36,
          "time": 114.24000000000122,
          "velocity": 0.4330708661417323,
          "duration": 0.12000000000000455
        },
        {
          "name": "F#3",
          "midi": 54,
          "time": 114.36000000000122,
          "velocity": 0.7559055118110236,
          "duration": 0.060000000000002274
        },
        {
          "name": "F#3",
          "midi": 54,
          "time": 114.48000000000123,
          "velocity": 0.5039370078740157,
          "duration": 0.060000000000002274
        },
        {
          "name": "F#3",
          "midi": 54,
          "time": 114.60000000000123,
          "velocity": 0.7559055118110236,
          "duration": 0.060000000000002274
        },
        {
          "name": "C2",
          "midi": 36,
          "time": 114.72000000000124,
          "velocity": 0.3543307086614173,
          "duration": 0.12000000000000455
        },
        {
          "name": "F#3",
          "midi": 54,
          "time": 114.72000000000124,
          "velocity": 0.5039370078740157,
          "duration": 0.030000000000001137
        },
        {
          "name": "D#2",
          "midi": 39,
          "time": 114.72000000000124,
          "velocity": 0.007874015748031496,
          "duration": 0.12000000000000455
        },
        {
          "name": "F#3",
          "midi": 54,
          "time": 114.75000000000124,
          "velocity": 0.5039370078740157,
          "duration": 0.030000000000001137
        },
        {
          "name": "F#3",
          "midi": 54,
          "time": 114.84000000000124,
          "velocity": 0.7559055118110236,
          "duration": 0.060000000000002274
        },
        {
          "name": "F#3",
          "midi": 54,
          "time": 114.96000000000124,
          "velocity": 0.5039370078740157,
          "duration": 0.060000000000002274
        },
        {
          "name": "F#3",
          "midi": 54,
          "time": 115.08000000000125,
          "velocity": 0.7559055118110236,
          "duration": 0.060000000000002274
        },
        {
          "name": "C2",
          "midi": 36,
          "time": 115.20000000000125,
          "velocity": 0.33858267716535434,
          "duration": 0.12000000000000455
        },
        {
          "name": "C2",
          "midi": 36,
          "time": 115.68000000000126,
          "velocity": 0.33858267716535434,
          "duration": 0.12000000000000455
        },
        {
          "name": "C2",
          "midi": 36,
          "time": 116.16000000000126,
          "velocity": 0.33070866141732286,
          "duration": 0.12000000000000455
        },
        {
          "name": "C2",
          "midi": 36,
          "time": 116.64000000000127,
          "velocity": 0.3228346456692913,
          "duration": 0.12000000000000455
        },
        {
          "name": "C2",
          "midi": 36,
          "time": 117.12000000000127,
          "velocity": 0.3228346456692913,
          "duration": 0.12000000000000455
        },
        {
          "name": "C2",
          "midi": 36,
          "time": 117.60000000000127,
          "velocity": 0.31496062992125984,
          "duration": 0.12000000000000455
        },
        {
          "name": "C2",
          "midi": 36,
          "time": 118.08000000000128,
          "velocity": 0.30708661417322836,
          "duration": 0.12000000000000455
        },
        {
          "name": "C2",
          "midi": 36,
          "time": 118.56000000000128,
          "velocity": 0.2992125984251969,
          "duration": 0.12000000000000455
        },
        {
          "name": "C2",
          "midi": 36,
          "time": 119.04000000000129,
          "velocity": 0.2992125984251969,
          "duration": 0.12000000000000455
        },
        {
          "name": "C2",
          "midi": 36,
          "time": 119.52000000000129,
          "velocity": 0.29133858267716534,
          "duration": 0.12000000000000455
        },
        {
          "name": "C2",
          "midi": 36,
          "time": 120.0000000000013,
          "velocity": 0.28346456692913385,
          "duration": 0.12000000000000455
        },
        {
          "name": "C2",
          "midi": 36,
          "time": 120.4800000000013,
          "velocity": 0.2755905511811024,
          "duration": 0.12000000000000455
        },
        {
          "name": "C2",
          "midi": 36,
          "time": 120.9600000000013,
          "velocity": 0.2755905511811024,
          "duration": 0.12000000000000455
        },
        {
          "name": "C2",
          "midi": 36,
          "time": 121.4400000000013,
          "velocity": 0.2677165354330709,
          "duration": 0.12000000000000455
        },
        {
          "name": "C2",
          "midi": 36,
          "time": 121.92000000000131,
          "velocity": 0.25984251968503935,
          "duration": 0.12000000000000455
        },
        {
          "name": "C2",
          "midi": 36,
          "time": 122.40000000000131,
          "velocity": 0.25196850393700787,
          "duration": 0.12000000000000455
        },
        {
          "name": "C2",
          "midi": 36,
          "time": 122.88000000000132,
          "velocity": 0.25196850393700787,
          "duration": 0.12000000000000455
        },
        {
          "name": "C2",
          "midi": 36,
          "time": 123.36000000000132,
          "velocity": 0.2440944881889764,
          "duration": 0.12000000000000455
        },
        {
          "name": "C2",
          "midi": 36,
          "time": 123.84000000000133,
          "velocity": 0.23622047244094488,
          "duration": 0.12000000000000455
        },
        {
          "name": "C2",
          "midi": 36,
          "time": 124.32000000000133,
          "velocity": 0.25984251968503935,
          "duration": 0.12000000000000455
        },
        {
          "name": "C2",
          "midi": 36,
          "time": 124.80000000000133,
          "velocity": 0.28346456692913385,
          "duration": 0.12000000000000455
        },
        {
          "name": "C2",
          "midi": 36,
          "time": 125.28000000000134,
          "velocity": 0.30708661417322836,
          "duration": 0.12000000000000455
        },
        {
          "name": "C2",
          "midi": 36,
          "time": 125.76000000000134,
          "velocity": 0.33070866141732286,
          "duration": 0.12000000000000455
        },
        {
          "name": "C2",
          "midi": 36,
          "time": 126.24000000000134,
          "velocity": 0.3543307086614173,
          "duration": 0.12000000000000455
        },
        {
          "name": "C2",
          "midi": 36,
          "time": 126.72000000000135,
          "velocity": 0.3779527559055118,
          "duration": 0.12000000000000455
        },
        {
          "name": "C2",
          "midi": 36,
          "time": 127.20000000000135,
          "velocity": 0.4015748031496063,
          "duration": 0.12000000000000455
        },
        {
          "name": "C2",
          "midi": 36,
          "time": 127.68000000000136,
          "velocity": 0.41732283464566927,
          "duration": 0.12000000000000455
        },
        {
          "name": "C2",
          "midi": 36,
          "time": 128.16000000000136,
          "velocity": 0.4409448818897638,
          "duration": 0.12000000000000455
        },
        {
          "name": "C2",
          "midi": 36,
          "time": 128.64000000000138,
          "velocity": 0.4645669291338583,
          "duration": 0.12000000000000455
        },
        {
          "name": "C2",
          "midi": 36,
          "time": 129.1200000000014,
          "velocity": 0.4881889763779528,
          "duration": 0.12000000000000455
        },
        {
          "name": "C2",
          "midi": 36,
          "time": 129.60000000000142,
          "velocity": 0.5118110236220472,
          "duration": 0.12000000000000455
        },
        {
          "name": "C2",
          "midi": 36,
          "time": 130.08000000000143,
          "velocity": 0.5354330708661418,
          "duration": 0.12000000000000455
        },
        {
          "name": "C2",
          "midi": 36,
          "time": 130.56000000000145,
          "velocity": 0.5590551181102362,
          "duration": 0.12000000000000455
        },
        {
          "name": "C2",
          "midi": 36,
          "time": 131.04000000000147,
          "velocity": 0.5826771653543307,
          "duration": 0.12000000000000455
        },
        {
          "name": "C2",
          "midi": 36,
          "time": 131.5200000000015,
          "velocity": 0.6062992125984252,
          "duration": 0.12000000000000455
        },
        {
          "name": "C2",
          "midi": 36,
          "time": 132.0000000000015,
          "velocity": 0.6299212598425197,
          "duration": 0.12000000000000455
        },
        {
          "name": "C2",
          "midi": 36,
          "time": 132.48000000000152,
          "velocity": 0.6535433070866141,
          "duration": 0.12000000000000455
        },
        {
          "name": "C2",
          "midi": 36,
          "time": 132.96000000000154,
          "velocity": 0.6771653543307087,
          "duration": 0.12000000000000455
        },
        {
          "name": "C2",
          "midi": 36,
          "time": 133.44000000000156,
          "velocity": 0.7007874015748031,
          "duration": 0.12000000000000455
        },
        {
          "name": "C2",
          "midi": 36,
          "time": 133.92000000000158,
          "velocity": 0.7165354330708661,
          "duration": 0.12000000000000455
        },
        {
          "name": "F#3",
          "midi": 54,
          "time": 134.4000000000016,
          "velocity": 0.5039370078740157,
          "duration": 0.060000000000002274
        },
        {
          "name": "F#3",
          "midi": 54,
          "time": 134.5200000000016,
          "velocity": 0.7559055118110236,
          "duration": 0.060000000000002274
        },
        {
          "name": "F#3",
          "midi": 54,
          "time": 134.6400000000016,
          "velocity": 0.5039370078740157,
          "duration": 0.060000000000002274
        },
        {
          "name": "F#3",
          "midi": 54,
          "time": 134.7600000000016,
          "velocity": 0.7559055118110236,
          "duration": 0.060000000000002274
        },
        {
          "name": "F#3",
          "midi": 54,
          "time": 134.88000000000162,
          "velocity": 0.5039370078740157,
          "duration": 0.060000000000002274
        },
        {
          "name": "D#2",
          "midi": 39,
          "time": 134.88000000000162,
          "velocity": 0.49606299212598426,
          "duration": 0.12000000000000455
        },
        {
          "name": "F#3",
          "midi": 54,
          "time": 135.00000000000162,
          "velocity": 0.7559055118110236,
          "duration": 0.060000000000002274
        },
        {
          "name": "F#3",
          "midi": 54,
          "time": 135.12000000000162,
          "velocity": 0.5039370078740157,
          "duration": 0.060000000000002274
        },
        {
          "name": "F#3",
          "midi": 54,
          "time": 135.24000000000163,
          "velocity": 0.7559055118110236,
          "duration": 0.060000000000002274
        },
        {
          "name": "F#3",
          "midi": 54,
          "time": 135.36000000000163,
          "velocity": 0.5039370078740157,
          "duration": 0.060000000000002274
        },
        {
          "name": "F#3",
          "midi": 54,
          "time": 135.48000000000164,
          "velocity": 0.7559055118110236,
          "duration": 0.060000000000002274
        },
        {
          "name": "F#3",
          "midi": 54,
          "time": 135.60000000000164,
          "velocity": 0.5039370078740157,
          "duration": 0.060000000000002274
        },
        {
          "name": "F#3",
          "midi": 54,
          "time": 135.72000000000165,
          "velocity": 0.7559055118110236,
          "duration": 0.060000000000002274
        },
        {
          "name": "D#2",
          "midi": 39,
          "time": 135.84000000000165,
          "velocity": 0.49606299212598426,
          "duration": 0.12000000000000455
        },
        {
          "name": "F#3",
          "midi": 54,
          "time": 135.84000000000165,
          "velocity": 0.5039370078740157,
          "duration": 0.030000000000001137
        },
        {
          "name": "F#3",
          "midi": 54,
          "time": 135.87000000000165,
          "velocity": 0.5039370078740157,
          "duration": 0.030000000000001137
        },
        {
          "name": "F#3",
          "midi": 54,
          "time": 135.96000000000166,
          "velocity": 0.7559055118110236,
          "duration": 0.060000000000002274
        },
        {
          "name": "F#3",
          "midi": 54,
          "time": 136.08000000000166,
          "velocity": 0.5039370078740157,
          "duration": 0.060000000000002274
        },
        {
          "name": "F#3",
          "midi": 54,
          "time": 136.20000000000167,
          "velocity": 0.7559055118110236,
          "duration": 0.060000000000002274
        },
        {
          "name": "F#3",
          "midi": 54,
          "time": 136.32000000000167,
          "velocity": 0.5039370078740157,
          "duration": 0.060000000000002274
        },
        {
          "name": "F#3",
          "midi": 54,
          "time": 136.44000000000167,
          "velocity": 0.7559055118110236,
          "duration": 0.060000000000002274
        },
        {
          "name": "F#3",
          "midi": 54,
          "time": 136.56000000000168,
          "velocity": 0.5039370078740157,
          "duration": 0.060000000000002274
        },
        {
          "name": "F#3",
          "midi": 54,
          "time": 136.68000000000168,
          "velocity": 0.7559055118110236,
          "duration": 0.060000000000002274
        },
        {
          "name": "F#3",
          "midi": 54,
          "time": 136.8000000000017,
          "velocity": 0.5039370078740157,
          "duration": 0.060000000000002274
        },
        {
          "name": "D#2",
          "midi": 39,
          "time": 136.8000000000017,
          "velocity": 0.49606299212598426,
          "duration": 0.12000000000000455
        },
        {
          "name": "F#3",
          "midi": 54,
          "time": 136.9200000000017,
          "velocity": 0.7559055118110236,
          "duration": 0.060000000000002274
        },
        {
          "name": "F#3",
          "midi": 54,
          "time": 137.0400000000017,
          "velocity": 0.5039370078740157,
          "duration": 0.060000000000002274
        },
        {
          "name": "F#3",
          "midi": 54,
          "time": 137.1600000000017,
          "velocity": 0.7559055118110236,
          "duration": 0.060000000000002274
        },
        {
          "name": "F#3",
          "midi": 54,
          "time": 137.2800000000017,
          "velocity": 0.5039370078740157,
          "duration": 0.060000000000002274
        },
        {
          "name": "F#3",
          "midi": 54,
          "time": 137.4000000000017,
          "velocity": 0.7559055118110236,
          "duration": 0.060000000000002274
        },
        {
          "name": "F#3",
          "midi": 54,
          "time": 137.52000000000172,
          "velocity": 0.5039370078740157,
          "duration": 0.060000000000002274
        },
        {
          "name": "F#3",
          "midi": 54,
          "time": 137.64000000000172,
          "velocity": 0.7559055118110236,
          "duration": 0.060000000000002274
        },
        {
          "name": "D#2",
          "midi": 39,
          "time": 137.76000000000172,
          "velocity": 0.49606299212598426,
          "duration": 0.12000000000000455
        },
        {
          "name": "F#3",
          "midi": 54,
          "time": 137.76000000000172,
          "velocity": 0.5039370078740157,
          "duration": 0.030000000000001137
        },
        {
          "name": "F#3",
          "midi": 54,
          "time": 137.79000000000173,
          "velocity": 0.5039370078740157,
          "duration": 0.030000000000001137
        },
        {
          "name": "F#3",
          "midi": 54,
          "time": 137.88000000000173,
          "velocity": 0.7559055118110236,
          "duration": 0.060000000000002274
        },
        {
          "name": "F#3",
          "midi": 54,
          "time": 138.00000000000173,
          "velocity": 0.5039370078740157,
          "duration": 0.060000000000002274
        },
        {
          "name": "F#3",
          "midi": 54,
          "time": 138.12000000000174,
          "velocity": 0.7559055118110236,
          "duration": 0.060000000000002274
        }
      ],
      "controlChanges": {
        "6": [
          {
            "number": 6,
            "time": 0,
            "value": 0.09448818897637795
          },
          {
            "number": 6,
            "time": 0,
            "value": 0.09448818897637795
          },
          {
            "number": 6,
            "time": 140.30500000000174,
            "value": 0.09448818897637795
          },
          {
            "number": 6,
            "time": 140.31000000000174,
            "value": 0.09448818897637795
          },
          {
            "number": 6,
            "time": 140.31000000000174,
            "value": 0.09448818897637795
          }
        ],
        "7": [
          {
            "number": 7,
            "time": 0,
            "value": 0.7874015748031497
          },
          {
            "number": 7,
            "time": 0,
            "value": 0.7874015748031497
          },
          {
            "number": 7,
            "time": 0,
            "value": 0.7874015748031497
          },
          {
            "number": 7,
            "time": 140.30500000000174,
            "value": 0.7874015748031497
          },
          {
            "number": 7,
            "time": 140.31000000000174,
            "value": 0.7874015748031497
          },
          {
            "number": 7,
            "time": 140.31000000000174,
            "value": 0.7874015748031497
          }
        ],
        "10": [
          {
            "number": 10,
            "time": 0,
            "value": 0.5039370078740157
          },
          {
            "number": 10,
            "time": 0,
            "value": 0.5039370078740157
          },
          {
            "number": 10,
            "time": 0,
            "value": 0.5039370078740157
          },
          {
            "number": 10,
            "time": 140.30500000000174,
            "value": 0.5039370078740157
          },
          {
            "number": 10,
            "time": 140.31000000000174,
            "value": 0.5039370078740157
          },
          {
            "number": 10,
            "time": 140.31000000000174,
            "value": 0.5039370078740157
          }
        ],
        "100": [
          {
            "number": 100,
            "time": 0,
            "value": 0
          },
          {
            "number": 100,
            "time": 0,
            "value": 0
          },
          {
            "number": 100,
            "time": 140.30500000000174,
            "value": 0
          },
          {
            "number": 100,
            "time": 140.31000000000174,
            "value": 0
          },
          {
            "number": 100,
            "time": 140.31000000000174,
            "value": 0
          }
        ],
        "101": [
          {
            "number": 101,
            "time": 0,
            "value": 0
          },
          {
            "number": 101,
            "time": 0,
            "value": 0
          },
          {
            "number": 101,
            "time": 140.30500000000174,
            "value": 0
          },
          {
            "number": 101,
            "time": 140.31000000000174,
            "value": 0
          },
          {
            "number": 101,
            "time": 140.31000000000174,
            "value": 0
          }
        ]
      },
      "id": 5,
      "name": "MIDI Out #4",
      "instrumentNumber": 0,
      "instrument": "standard kit",
      "instrumentFamily": "drums",
      "channelNumber": 9,
      "isPercussion": true
    },
    {
      "startTime": 3.84,
      "duration": 111.36000000000001,
      "length": 22,
      "notes": [
        {
          "name": "B4",
          "midi": 71,
          "time": 3.84,
          "velocity": 0.49606299212598426,
          "duration": 1.92
        },
        {
          "name": "G#4",
          "midi": 68,
          "time": 5.76,
          "velocity": 0.49606299212598426,
          "duration": 1.6799999999999997
        },
        {
          "name": "B4",
          "midi": 71,
          "time": 7.4399999999999995,
          "velocity": 0.5905511811023622,
          "duration": 0.2400000000000002
        },
        {
          "name": "B4",
          "midi": 71,
          "time": 7.68,
          "velocity": 1,
          "duration": 1.92
        },
        {
          "name": "G#4",
          "midi": 68,
          "time": 9.6,
          "velocity": 1,
          "duration": 1.6799999999999997
        },
        {
          "name": "B4",
          "midi": 71,
          "time": 11.28,
          "velocity": 1,
          "duration": 0.2400000000000002
        },
        {
          "name": "B4",
          "midi": 71,
          "time": 11.52,
          "velocity": 1,
          "duration": 1.92
        },
        {
          "name": "G#4",
          "midi": 68,
          "time": 13.44,
          "velocity": 1,
          "duration": 1.6799999999999997
        },
        {
          "name": "B4",
          "midi": 71,
          "time": 15.12,
          "velocity": 1,
          "duration": 0.2400000000000002
        },
        {
          "name": "B4",
          "midi": 71,
          "time": 15.36,
          "velocity": 1,
          "duration": 1.9200000000000017
        },
        {
          "name": "G#4",
          "midi": 68,
          "time": 17.28,
          "velocity": 1,
          "duration": 1.6799999999999997
        },
        {
          "name": "B4",
          "midi": 71,
          "time": 18.96,
          "velocity": 1,
          "duration": 0.23999999999999844
        },
        {
          "name": "B4",
          "midi": 71,
          "time": 19.2,
          "velocity": 1,
          "duration": 1.9199999999999982
        },
        {
          "name": "B4",
          "midi": 71,
          "time": 99.84,
          "velocity": 0.49606299212598426,
          "duration": 1.9200000000000017
        },
        {
          "name": "G#4",
          "midi": 68,
          "time": 101.76,
          "velocity": 0.49606299212598426,
          "duration": 1.6800000000000068
        },
        {
          "name": "B4",
          "midi": 71,
          "time": 103.44000000000001,
          "velocity": 0.5905511811023622,
          "duration": 0.23999999999999488
        },
        {
          "name": "B4",
          "midi": 71,
          "time": 103.68,
          "velocity": 0.49606299212598426,
          "duration": 1.9200000000000017
        },
        {
          "name": "G#4",
          "midi": 68,
          "time": 105.60000000000001,
          "velocity": 0.49606299212598426,
          "duration": 1.6800000000000068
        },
        {
          "name": "B4",
          "midi": 71,
          "time": 107.28000000000002,
          "velocity": 0.5905511811023622,
          "duration": 0.23999999999999488
        },
        {
          "name": "B4",
          "midi": 71,
          "time": 107.52000000000001,
          "velocity": 0.49606299212598426,
          "duration": 1.9200000000000017
        },
        {
          "name": "G#4",
          "midi": 68,
          "time": 109.44000000000001,
          "velocity": 0.49606299212598426,
          "duration": 1.6800000000000068
        },
        {
          "name": "B4",
          "midi": 71,
          "time": 111.12000000000002,
          "velocity": 0.5905511811023622,
          "duration": 0.23999999999999488
        }
      ],
      "controlChanges": {
        "6": [
          {
            "number": 6,
            "time": 0,
            "value": 0.09448818897637795
          },
          {
            "number": 6,
            "time": 0,
            "value": 0.09448818897637795
          },
          {
            "number": 6,
            "time": 140.305,
            "value": 0.09448818897637795
          },
          {
            "number": 6,
            "time": 140.31,
            "value": 0.09448818897637795
          },
          {
            "number": 6,
            "time": 140.31,
            "value": 0.09448818897637795
          }
        ],
        "7": [
          {
            "number": 7,
            "time": 0,
            "value": 0.7874015748031497
          },
          {
            "number": 7,
            "time": 0,
            "value": 0.7874015748031497
          },
          {
            "number": 7,
            "time": 0,
            "value": 0.7874015748031497
          },
          {
            "number": 7,
            "time": 140.305,
            "value": 0.7874015748031497
          },
          {
            "number": 7,
            "time": 140.31,
            "value": 0.7874015748031497
          },
          {
            "number": 7,
            "time": 140.31,
            "value": 0.7874015748031497
          }
        ],
        "10": [
          {
            "number": 10,
            "time": 0,
            "value": 0.5039370078740157
          },
          {
            "number": 10,
            "time": 0,
            "value": 0.5039370078740157
          },
          {
            "number": 10,
            "time": 0,
            "value": 0.5039370078740157
          },
          {
            "number": 10,
            "time": 140.305,
            "value": 0.5039370078740157
          },
          {
            "number": 10,
            "time": 140.31,
            "value": 0.5039370078740157
          },
          {
            "number": 10,
            "time": 140.31,
            "value": 0.5039370078740157
          }
        ],
        "100": [
          {
            "number": 100,
            "time": 0,
            "value": 0
          },
          {
            "number": 100,
            "time": 0,
            "value": 0
          },
          {
            "number": 100,
            "time": 140.305,
            "value": 0
          },
          {
            "number": 100,
            "time": 140.31,
            "value": 0
          },
          {
            "number": 100,
            "time": 140.31,
            "value": 0
          }
        ],
        "101": [
          {
            "number": 101,
            "time": 0,
            "value": 0
          },
          {
            "number": 101,
            "time": 0,
            "value": 0
          },
          {
            "number": 101,
            "time": 140.305,
            "value": 0
          },
          {
            "number": 101,
            "time": 140.31,
            "value": 0
          },
          {
            "number": 101,
            "time": 140.31,
            "value": 0
          }
        ]
      },
      "id": 6,
      "name": "MIDI Out #5",
      "instrumentNumber": 54,
      "instrument": "synth voice",
      "instrumentFamily": "ensemble",
      "channelNumber": 3,
      "isPercussion": false
    },
    {
      "startTime": 111.47999999999999,
      "duration": 130.55999999998264,
      "length": 1,
      "notes": [
        {
          "name": "F#6",
          "midi": 90,
          "time": 111.47999999999999,
          "velocity": 1,
          "duration": 19.079999999982647
        }
      ],
      "controlChanges": {
        "6": [
          {
            "number": 6,
            "time": 0,
            "value": 0.09448818897637795
          },
          {
            "number": 6,
            "time": 0,
            "value": 0.09448818897637795
          },
          {
            "number": 6,
            "time": 140.30499999998264,
            "value": 0.09448818897637795
          },
          {
            "number": 6,
            "time": 140.30999999998264,
            "value": 0.09448818897637795
          },
          {
            "number": 6,
            "time": 140.30999999998264,
            "value": 0.09448818897637795
          }
        ],
        "7": [
          {
            "number": 7,
            "time": 0,
            "value": 0
          },
          {
            "number": 7,
            "time": 111.47999999999999,
            "value": 0.3779527559055118
          },
          {
            "number": 7,
            "time": 111.48499999999999,
            "value": 0.3858267716535433
          },
          {
            "number": 7,
            "time": 111.48999999999998,
            "value": 0.3937007874015748
          },
          {
            "number": 7,
            "time": 111.49499999999998,
            "value": 0.4015748031496063
          },
          {
            "number": 7,
            "time": 111.49999999999997,
            "value": 0.4094488188976378
          },
          {
            "number": 7,
            "time": 111.50499999999997,
            "value": 0.41732283464566927
          },
          {
            "number": 7,
            "time": 111.50999999999996,
            "value": 0.4251968503937008
          },
          {
            "number": 7,
            "time": 111.51499999999996,
            "value": 0.4409448818897638
          },
          {
            "number": 7,
            "time": 111.51999999999995,
            "value": 0.44881889763779526
          },
          {
            "number": 7,
            "time": 111.52499999999995,
            "value": 0.4566929133858268
          },
          {
            "number": 7,
            "time": 111.52999999999994,
            "value": 0.4645669291338583
          },
          {
            "number": 7,
            "time": 111.53499999999994,
            "value": 0.47244094488188976
          },
          {
            "number": 7,
            "time": 111.53999999999994,
            "value": 0.48031496062992124
          },
          {
            "number": 7,
            "time": 111.54499999999993,
            "value": 0.49606299212598426
          },
          {
            "number": 7,
            "time": 111.54999999999993,
            "value": 0.5039370078740157
          },
          {
            "number": 7,
            "time": 111.55499999999992,
            "value": 0.5118110236220472
          },
          {
            "number": 7,
            "time": 111.55999999999992,
            "value": 0.5196850393700787
          },
          {
            "number": 7,
            "time": 111.56499999999991,
            "value": 0.5275590551181102
          },
          {
            "number": 7,
            "time": 111.56999999999991,
            "value": 0.5354330708661418
          },
          {
            "number": 7,
            "time": 111.5749999999999,
            "value": 0.5433070866141733
          },
          {
            "number": 7,
            "time": 111.5799999999999,
            "value": 0.5590551181102362
          },
          {
            "number": 7,
            "time": 111.5849999999999,
            "value": 0.5669291338582677
          },
          {
            "number": 7,
            "time": 111.58999999999989,
            "value": 0.5748031496062992
          },
          {
            "number": 7,
            "time": 111.59499999999989,
            "value": 0.5826771653543307
          },
          {
            "number": 7,
            "time": 111.59999999999988,
            "value": 0.5905511811023622
          },
          {
            "number": 7,
            "time": 111.60499999999988,
            "value": 0.5984251968503937
          },
          {
            "number": 7,
            "time": 111.60999999999987,
            "value": 0.6062992125984252
          },
          {
            "number": 7,
            "time": 111.61499999999987,
            "value": 0.6220472440944882
          },
          {
            "number": 7,
            "time": 111.61999999999986,
            "value": 0.6299212598425197
          },
          {
            "number": 7,
            "time": 111.62499999999986,
            "value": 0.6377952755905512
          },
          {
            "number": 7,
            "time": 111.62999999999985,
            "value": 0.6456692913385826
          },
          {
            "number": 7,
            "time": 111.63499999999985,
            "value": 0.6535433070866141
          },
          {
            "number": 7,
            "time": 111.63999999999984,
            "value": 0.6614173228346457
          },
          {
            "number": 7,
            "time": 111.64499999999984,
            "value": 0.6771653543307087
          },
          {
            "number": 7,
            "time": 111.64999999999984,
            "value": 0.6850393700787402
          },
          {
            "number": 7,
            "time": 111.65499999999983,
            "value": 0.6929133858267716
          },
          {
            "number": 7,
            "time": 111.65999999999983,
            "value": 0.7007874015748031
          },
          {
            "number": 7,
            "time": 111.66499999999982,
            "value": 0.7086614173228346
          },
          {
            "number": 7,
            "time": 111.66999999999982,
            "value": 0.7165354330708661
          },
          {
            "number": 7,
            "time": 111.67499999999981,
            "value": 0.7244094488188977
          },
          {
            "number": 7,
            "time": 111.67999999999981,
            "value": 0.7401574803149606
          },
          {
            "number": 7,
            "time": 111.6849999999998,
            "value": 0.7480314960629921
          },
          {
            "number": 7,
            "time": 111.6899999999998,
            "value": 0.7559055118110236
          },
          {
            "number": 7,
            "time": 111.6949999999998,
            "value": 0.7637795275590551
          },
          {
            "number": 7,
            "time": 111.69999999999979,
            "value": 0.7716535433070866
          },
          {
            "number": 7,
            "time": 111.70499999999979,
            "value": 0.7795275590551181
          },
          {
            "number": 7,
            "time": 111.71999999999977,
            "value": 0.7716535433070866
          },
          {
            "number": 7,
            "time": 116.22999999999567,
            "value": 0.7637795275590551
          },
          {
            "number": 7,
            "time": 116.23499999999567,
            "value": 0.7637795275590551
          },
          {
            "number": 7,
            "time": 116.23999999999566,
            "value": 0.7637795275590551
          },
          {
            "number": 7,
            "time": 116.24499999999566,
            "value": 0.7637795275590551
          },
          {
            "number": 7,
            "time": 116.24999999999565,
            "value": 0.7637795275590551
          },
          {
            "number": 7,
            "time": 116.25499999999565,
            "value": 0.7637795275590551
          },
          {
            "number": 7,
            "time": 116.25999999999564,
            "value": 0.7637795275590551
          },
          {
            "number": 7,
            "time": 116.26499999999564,
            "value": 0.7637795275590551
          },
          {
            "number": 7,
            "time": 116.26999999999563,
            "value": 0.7637795275590551
          },
          {
            "number": 7,
            "time": 116.27499999999563,
            "value": 0.7637795275590551
          },
          {
            "number": 7,
            "time": 116.27999999999562,
            "value": 0.7637795275590551
          },
          {
            "number": 7,
            "time": 116.28499999999562,
            "value": 0.7637795275590551
          },
          {
            "number": 7,
            "time": 116.28999999999562,
            "value": 0.7637795275590551
          },
          {
            "number": 7,
            "time": 116.29499999999561,
            "value": 0.7637795275590551
          },
          {
            "number": 7,
            "time": 116.2999999999956,
            "value": 0.7637795275590551
          },
          {
            "number": 7,
            "time": 116.3049999999956,
            "value": 0.7637795275590551
          },
          {
            "number": 7,
            "time": 116.3099999999956,
            "value": 0.7637795275590551
          },
          {
            "number": 7,
            "time": 116.31499999999559,
            "value": 0.7637795275590551
          },
          {
            "number": 7,
            "time": 116.31999999999559,
            "value": 0.7637795275590551
          },
          {
            "number": 7,
            "time": 116.32499999999558,
            "value": 0.7559055118110236
          },
          {
            "number": 7,
            "time": 116.32999999999558,
            "value": 0.7559055118110236
          },
          {
            "number": 7,
            "time": 116.33499999999557,
            "value": 0.7559055118110236
          },
          {
            "number": 7,
            "time": 116.33999999999557,
            "value": 0.7559055118110236
          },
          {
            "number": 7,
            "time": 116.34499999999557,
            "value": 0.7559055118110236
          },
          {
            "number": 7,
            "time": 116.34999999999556,
            "value": 0.7559055118110236
          },
          {
            "number": 7,
            "time": 116.35499999999556,
            "value": 0.7559055118110236
          },
          {
            "number": 7,
            "time": 116.35999999999555,
            "value": 0.7559055118110236
          },
          {
            "number": 7,
            "time": 116.36499999999555,
            "value": 0.7559055118110236
          },
          {
            "number": 7,
            "time": 116.36999999999554,
            "value": 0.7559055118110236
          },
          {
            "number": 7,
            "time": 116.37499999999554,
            "value": 0.7559055118110236
          },
          {
            "number": 7,
            "time": 116.37999999999553,
            "value": 0.7559055118110236
          },
          {
            "number": 7,
            "time": 116.38499999999553,
            "value": 0.7559055118110236
          },
          {
            "number": 7,
            "time": 116.38999999999552,
            "value": 0.7559055118110236
          },
          {
            "number": 7,
            "time": 116.39499999999552,
            "value": 0.7559055118110236
          },
          {
            "number": 7,
            "time": 116.39999999999552,
            "value": 0.7559055118110236
          },
          {
            "number": 7,
            "time": 116.40499999999551,
            "value": 0.7559055118110236
          },
          {
            "number": 7,
            "time": 116.4099999999955,
            "value": 0.7559055118110236
          },
          {
            "number": 7,
            "time": 116.4149999999955,
            "value": 0.7559055118110236
          },
          {
            "number": 7,
            "time": 116.4199999999955,
            "value": 0.7559055118110236
          },
          {
            "number": 7,
            "time": 116.42499999999549,
            "value": 0.7559055118110236
          },
          {
            "number": 7,
            "time": 116.42999999999549,
            "value": 0.7559055118110236
          },
          {
            "number": 7,
            "time": 116.43499999999548,
            "value": 0.7559055118110236
          },
          {
            "number": 7,
            "time": 116.43999999999548,
            "value": 0.7559055118110236
          },
          {
            "number": 7,
            "time": 116.44499999999547,
            "value": 0.7559055118110236
          },
          {
            "number": 7,
            "time": 116.44999999999547,
            "value": 0.7559055118110236
          },
          {
            "number": 7,
            "time": 116.45499999999547,
            "value": 0.7559055118110236
          },
          {
            "number": 7,
            "time": 116.45999999999546,
            "value": 0.7559055118110236
          },
          {
            "number": 7,
            "time": 116.46499999999546,
            "value": 0.7559055118110236
          },
          {
            "number": 7,
            "time": 116.46999999999545,
            "value": 0.7559055118110236
          },
          {
            "number": 7,
            "time": 116.47499999999545,
            "value": 0.7480314960629921
          },
          {
            "number": 7,
            "time": 116.47999999999544,
            "value": 0.7480314960629921
          },
          {
            "number": 7,
            "time": 116.48499999999544,
            "value": 0.7480314960629921
          },
          {
            "number": 7,
            "time": 116.48999999999543,
            "value": 0.7480314960629921
          },
          {
            "number": 7,
            "time": 116.49499999999543,
            "value": 0.7480314960629921
          },
          {
            "number": 7,
            "time": 116.49999999999542,
            "value": 0.7480314960629921
          },
          {
            "number": 7,
            "time": 116.50499999999542,
            "value": 0.7480314960629921
          },
          {
            "number": 7,
            "time": 116.50999999999542,
            "value": 0.7480314960629921
          },
          {
            "number": 7,
            "time": 116.51499999999541,
            "value": 0.7480314960629921
          },
          {
            "number": 7,
            "time": 116.5199999999954,
            "value": 0.7480314960629921
          },
          {
            "number": 7,
            "time": 116.5249999999954,
            "value": 0.7480314960629921
          },
          {
            "number": 7,
            "time": 116.5299999999954,
            "value": 0.7480314960629921
          },
          {
            "number": 7,
            "time": 116.53499999999539,
            "value": 0.7480314960629921
          },
          {
            "number": 7,
            "time": 116.53999999999539,
            "value": 0.7480314960629921
          },
          {
            "number": 7,
            "time": 116.54499999999538,
            "value": 0.7480314960629921
          },
          {
            "number": 7,
            "time": 116.54999999999538,
            "value": 0.7480314960629921
          },
          {
            "number": 7,
            "time": 116.55499999999537,
            "value": 0.7480314960629921
          },
          {
            "number": 7,
            "time": 116.55999999999537,
            "value": 0.7480314960629921
          },
          {
            "number": 7,
            "time": 116.56499999999536,
            "value": 0.7480314960629921
          },
          {
            "number": 7,
            "time": 116.56999999999536,
            "value": 0.7480314960629921
          },
          {
            "number": 7,
            "time": 116.57499999999536,
            "value": 0.7480314960629921
          },
          {
            "number": 7,
            "time": 116.57999999999535,
            "value": 0.7480314960629921
          },
          {
            "number": 7,
            "time": 116.58499999999535,
            "value": 0.7480314960629921
          },
          {
            "number": 7,
            "time": 116.58999999999534,
            "value": 0.7480314960629921
          },
          {
            "number": 7,
            "time": 116.59499999999534,
            "value": 0.7480314960629921
          },
          {
            "number": 7,
            "time": 116.59999999999533,
            "value": 0.7480314960629921
          },
          {
            "number": 7,
            "time": 116.60499999999533,
            "value": 0.7480314960629921
          },
          {
            "number": 7,
            "time": 116.60999999999532,
            "value": 0.7480314960629921
          },
          {
            "number": 7,
            "time": 116.61499999999532,
            "value": 0.7480314960629921
          },
          {
            "number": 7,
            "time": 116.61999999999531,
            "value": 0.7480314960629921
          },
          {
            "number": 7,
            "time": 116.62499999999531,
            "value": 0.7401574803149606
          },
          {
            "number": 7,
            "time": 116.6299999999953,
            "value": 0.7401574803149606
          },
          {
            "number": 7,
            "time": 116.6349999999953,
            "value": 0.7401574803149606
          },
          {
            "number": 7,
            "time": 116.6399999999953,
            "value": 0.7401574803149606
          },
          {
            "number": 7,
            "time": 116.64499999999529,
            "value": 0.7401574803149606
          },
          {
            "number": 7,
            "time": 116.64999999999529,
            "value": 0.7401574803149606
          },
          {
            "number": 7,
            "time": 116.65499999999528,
            "value": 0.7401574803149606
          },
          {
            "number": 7,
            "time": 116.65999999999528,
            "value": 0.7401574803149606
          },
          {
            "number": 7,
            "time": 116.66499999999527,
            "value": 0.7401574803149606
          },
          {
            "number": 7,
            "time": 116.66999999999527,
            "value": 0.7401574803149606
          },
          {
            "number": 7,
            "time": 116.67499999999526,
            "value": 0.7401574803149606
          },
          {
            "number": 7,
            "time": 116.67999999999526,
            "value": 0.7401574803149606
          },
          {
            "number": 7,
            "time": 116.68499999999526,
            "value": 0.7401574803149606
          },
          {
            "number": 7,
            "time": 116.68999999999525,
            "value": 0.7401574803149606
          },
          {
            "number": 7,
            "time": 116.69499999999525,
            "value": 0.7401574803149606
          },
          {
            "number": 7,
            "time": 116.69999999999524,
            "value": 0.7401574803149606
          },
          {
            "number": 7,
            "time": 116.70499999999524,
            "value": 0.7401574803149606
          },
          {
            "number": 7,
            "time": 116.70999999999523,
            "value": 0.7401574803149606
          },
          {
            "number": 7,
            "time": 116.71499999999523,
            "value": 0.7401574803149606
          },
          {
            "number": 7,
            "time": 116.71999999999522,
            "value": 0.7401574803149606
          },
          {
            "number": 7,
            "time": 116.72499999999522,
            "value": 0.7401574803149606
          },
          {
            "number": 7,
            "time": 116.72999999999521,
            "value": 0.7401574803149606
          },
          {
            "number": 7,
            "time": 116.73499999999521,
            "value": 0.7401574803149606
          },
          {
            "number": 7,
            "time": 116.7399999999952,
            "value": 0.7401574803149606
          },
          {
            "number": 7,
            "time": 116.7449999999952,
            "value": 0.7401574803149606
          },
          {
            "number": 7,
            "time": 116.7499999999952,
            "value": 0.7401574803149606
          },
          {
            "number": 7,
            "time": 116.75499999999519,
            "value": 0.7401574803149606
          },
          {
            "number": 7,
            "time": 116.75999999999519,
            "value": 0.7401574803149606
          },
          {
            "number": 7,
            "time": 116.76499999999518,
            "value": 0.7401574803149606
          },
          {
            "number": 7,
            "time": 116.76999999999518,
            "value": 0.7322834645669292
          },
          {
            "number": 7,
            "time": 116.77499999999517,
            "value": 0.7322834645669292
          },
          {
            "number": 7,
            "time": 116.77999999999517,
            "value": 0.7322834645669292
          },
          {
            "number": 7,
            "time": 116.78499999999516,
            "value": 0.7322834645669292
          },
          {
            "number": 7,
            "time": 116.78999999999516,
            "value": 0.7322834645669292
          },
          {
            "number": 7,
            "time": 116.79499999999516,
            "value": 0.7322834645669292
          },
          {
            "number": 7,
            "time": 116.79999999999515,
            "value": 0.7322834645669292
          },
          {
            "number": 7,
            "time": 116.80499999999515,
            "value": 0.7322834645669292
          },
          {
            "number": 7,
            "time": 116.80999999999514,
            "value": 0.7322834645669292
          },
          {
            "number": 7,
            "time": 116.81499999999514,
            "value": 0.7322834645669292
          },
          {
            "number": 7,
            "time": 116.81999999999513,
            "value": 0.7322834645669292
          },
          {
            "number": 7,
            "time": 116.82499999999513,
            "value": 0.7322834645669292
          },
          {
            "number": 7,
            "time": 116.82999999999512,
            "value": 0.7322834645669292
          },
          {
            "number": 7,
            "time": 116.83499999999512,
            "value": 0.7322834645669292
          },
          {
            "number": 7,
            "time": 116.83999999999511,
            "value": 0.7322834645669292
          },
          {
            "number": 7,
            "time": 116.84499999999511,
            "value": 0.7322834645669292
          },
          {
            "number": 7,
            "time": 116.8499999999951,
            "value": 0.7322834645669292
          },
          {
            "number": 7,
            "time": 116.8549999999951,
            "value": 0.7322834645669292
          },
          {
            "number": 7,
            "time": 116.8599999999951,
            "value": 0.7322834645669292
          },
          {
            "number": 7,
            "time": 116.86499999999509,
            "value": 0.7322834645669292
          },
          {
            "number": 7,
            "time": 116.86999999999509,
            "value": 0.7322834645669292
          },
          {
            "number": 7,
            "time": 116.87499999999508,
            "value": 0.7322834645669292
          },
          {
            "number": 7,
            "time": 116.87999999999508,
            "value": 0.7322834645669292
          },
          {
            "number": 7,
            "time": 116.88499999999507,
            "value": 0.7322834645669292
          },
          {
            "number": 7,
            "time": 116.88999999999507,
            "value": 0.7322834645669292
          },
          {
            "number": 7,
            "time": 116.89499999999506,
            "value": 0.7322834645669292
          },
          {
            "number": 7,
            "time": 116.89999999999506,
            "value": 0.7322834645669292
          },
          {
            "number": 7,
            "time": 116.90499999999506,
            "value": 0.7322834645669292
          },
          {
            "number": 7,
            "time": 116.90999999999505,
            "value": 0.7322834645669292
          },
          {
            "number": 7,
            "time": 116.91499999999505,
            "value": 0.7322834645669292
          },
          {
            "number": 7,
            "time": 116.91999999999504,
            "value": 0.7244094488188977
          },
          {
            "number": 7,
            "time": 116.92499999999504,
            "value": 0.7244094488188977
          },
          {
            "number": 7,
            "time": 116.92999999999503,
            "value": 0.7244094488188977
          },
          {
            "number": 7,
            "time": 116.93499999999503,
            "value": 0.7244094488188977
          },
          {
            "number": 7,
            "time": 116.93999999999502,
            "value": 0.7244094488188977
          },
          {
            "number": 7,
            "time": 116.94499999999502,
            "value": 0.7244094488188977
          },
          {
            "number": 7,
            "time": 116.94999999999501,
            "value": 0.7244094488188977
          },
          {
            "number": 7,
            "time": 116.95499999999501,
            "value": 0.7244094488188977
          },
          {
            "number": 7,
            "time": 116.959999999995,
            "value": 0.7244094488188977
          },
          {
            "number": 7,
            "time": 116.964999999995,
            "value": 0.7244094488188977
          },
          {
            "number": 7,
            "time": 116.969999999995,
            "value": 0.7244094488188977
          },
          {
            "number": 7,
            "time": 116.97499999999499,
            "value": 0.7244094488188977
          },
          {
            "number": 7,
            "time": 116.97999999999499,
            "value": 0.7244094488188977
          },
          {
            "number": 7,
            "time": 116.98499999999498,
            "value": 0.7244094488188977
          },
          {
            "number": 7,
            "time": 116.98999999999498,
            "value": 0.7244094488188977
          },
          {
            "number": 7,
            "time": 116.99499999999497,
            "value": 0.7244094488188977
          },
          {
            "number": 7,
            "time": 116.99999999999497,
            "value": 0.7244094488188977
          },
          {
            "number": 7,
            "time": 117.00499999999496,
            "value": 0.7244094488188977
          },
          {
            "number": 7,
            "time": 117.00999999999496,
            "value": 0.7244094488188977
          },
          {
            "number": 7,
            "time": 117.01499999999496,
            "value": 0.7244094488188977
          },
          {
            "number": 7,
            "time": 117.01999999999495,
            "value": 0.7244094488188977
          },
          {
            "number": 7,
            "time": 117.02499999999495,
            "value": 0.7244094488188977
          },
          {
            "number": 7,
            "time": 117.02999999999494,
            "value": 0.7244094488188977
          },
          {
            "number": 7,
            "time": 117.03499999999494,
            "value": 0.7244094488188977
          },
          {
            "number": 7,
            "time": 117.03999999999493,
            "value": 0.7244094488188977
          },
          {
            "number": 7,
            "time": 117.04499999999493,
            "value": 0.7244094488188977
          },
          {
            "number": 7,
            "time": 117.04999999999492,
            "value": 0.7244094488188977
          },
          {
            "number": 7,
            "time": 117.05499999999492,
            "value": 0.7244094488188977
          },
          {
            "number": 7,
            "time": 117.05999999999491,
            "value": 0.7244094488188977
          },
          {
            "number": 7,
            "time": 117.06499999999491,
            "value": 0.7165354330708661
          },
          {
            "number": 7,
            "time": 117.0699999999949,
            "value": 0.7165354330708661
          },
          {
            "number": 7,
            "time": 117.0749999999949,
            "value": 0.7165354330708661
          },
          {
            "number": 7,
            "time": 117.0799999999949,
            "value": 0.7165354330708661
          },
          {
            "number": 7,
            "time": 117.08499999999489,
            "value": 0.7165354330708661
          },
          {
            "number": 7,
            "time": 117.08999999999489,
            "value": 0.7165354330708661
          },
          {
            "number": 7,
            "time": 117.09499999999488,
            "value": 0.7165354330708661
          },
          {
            "number": 7,
            "time": 117.09999999999488,
            "value": 0.7165354330708661
          },
          {
            "number": 7,
            "time": 117.10499999999487,
            "value": 0.7165354330708661
          },
          {
            "number": 7,
            "time": 117.10999999999487,
            "value": 0.7165354330708661
          },
          {
            "number": 7,
            "time": 117.11499999999486,
            "value": 0.7165354330708661
          },
          {
            "number": 7,
            "time": 117.11999999999486,
            "value": 0.7165354330708661
          },
          {
            "number": 7,
            "time": 117.12499999999486,
            "value": 0.7165354330708661
          },
          {
            "number": 7,
            "time": 117.12999999999485,
            "value": 0.7165354330708661
          },
          {
            "number": 7,
            "time": 117.13499999999485,
            "value": 0.7165354330708661
          },
          {
            "number": 7,
            "time": 117.13999999999484,
            "value": 0.7165354330708661
          },
          {
            "number": 7,
            "time": 117.14499999999484,
            "value": 0.7165354330708661
          },
          {
            "number": 7,
            "time": 117.14999999999483,
            "value": 0.7165354330708661
          },
          {
            "number": 7,
            "time": 117.15499999999483,
            "value": 0.7165354330708661
          },
          {
            "number": 7,
            "time": 117.15999999999482,
            "value": 0.7165354330708661
          },
          {
            "number": 7,
            "time": 117.16499999999482,
            "value": 0.7165354330708661
          },
          {
            "number": 7,
            "time": 117.16999999999481,
            "value": 0.7165354330708661
          },
          {
            "number": 7,
            "time": 117.17499999999481,
            "value": 0.7165354330708661
          },
          {
            "number": 7,
            "time": 117.1799999999948,
            "value": 0.7165354330708661
          },
          {
            "number": 7,
            "time": 117.1849999999948,
            "value": 0.7165354330708661
          },
          {
            "number": 7,
            "time": 117.1899999999948,
            "value": 0.7165354330708661
          },
          {
            "number": 7,
            "time": 117.19499999999479,
            "value": 0.7165354330708661
          },
          {
            "number": 7,
            "time": 117.19999999999479,
            "value": 0.7165354330708661
          },
          {
            "number": 7,
            "time": 117.20499999999478,
            "value": 0.7165354330708661
          },
          {
            "number": 7,
            "time": 117.20999999999478,
            "value": 0.7165354330708661
          },
          {
            "number": 7,
            "time": 117.21499999999477,
            "value": 0.7086614173228346
          },
          {
            "number": 7,
            "time": 117.21999999999477,
            "value": 0.7086614173228346
          },
          {
            "number": 7,
            "time": 117.22499999999476,
            "value": 0.7086614173228346
          },
          {
            "number": 7,
            "time": 117.22999999999476,
            "value": 0.7086614173228346
          },
          {
            "number": 7,
            "time": 117.23499999999476,
            "value": 0.7086614173228346
          },
          {
            "number": 7,
            "time": 117.23999999999475,
            "value": 0.7086614173228346
          },
          {
            "number": 7,
            "time": 117.24499999999475,
            "value": 0.7086614173228346
          },
          {
            "number": 7,
            "time": 117.24999999999474,
            "value": 0.7086614173228346
          },
          {
            "number": 7,
            "time": 117.25499999999474,
            "value": 0.7086614173228346
          },
          {
            "number": 7,
            "time": 117.25999999999473,
            "value": 0.7086614173228346
          },
          {
            "number": 7,
            "time": 117.26499999999473,
            "value": 0.7086614173228346
          },
          {
            "number": 7,
            "time": 117.26999999999472,
            "value": 0.7086614173228346
          },
          {
            "number": 7,
            "time": 117.27499999999472,
            "value": 0.7086614173228346
          },
          {
            "number": 7,
            "time": 117.27999999999471,
            "value": 0.7086614173228346
          },
          {
            "number": 7,
            "time": 117.28499999999471,
            "value": 0.7086614173228346
          },
          {
            "number": 7,
            "time": 117.2899999999947,
            "value": 0.7086614173228346
          },
          {
            "number": 7,
            "time": 117.2949999999947,
            "value": 0.7086614173228346
          },
          {
            "number": 7,
            "time": 117.2999999999947,
            "value": 0.7086614173228346
          },
          {
            "number": 7,
            "time": 117.30499999999469,
            "value": 0.7086614173228346
          },
          {
            "number": 7,
            "time": 117.30999999999469,
            "value": 0.7086614173228346
          },
          {
            "number": 7,
            "time": 117.31499999999468,
            "value": 0.7086614173228346
          },
          {
            "number": 7,
            "time": 117.31999999999468,
            "value": 0.7086614173228346
          },
          {
            "number": 7,
            "time": 117.32499999999467,
            "value": 0.7086614173228346
          },
          {
            "number": 7,
            "time": 117.32999999999467,
            "value": 0.7086614173228346
          },
          {
            "number": 7,
            "time": 117.33499999999466,
            "value": 0.7086614173228346
          },
          {
            "number": 7,
            "time": 117.33999999999466,
            "value": 0.7086614173228346
          },
          {
            "number": 7,
            "time": 117.34499999999466,
            "value": 0.7086614173228346
          },
          {
            "number": 7,
            "time": 117.34999999999465,
            "value": 0.7086614173228346
          },
          {
            "number": 7,
            "time": 117.35499999999465,
            "value": 0.7086614173228346
          },
          {
            "number": 7,
            "time": 117.35999999999464,
            "value": 0.7007874015748031
          },
          {
            "number": 7,
            "time": 117.36499999999464,
            "value": 0.7007874015748031
          },
          {
            "number": 7,
            "time": 117.36999999999463,
            "value": 0.7007874015748031
          },
          {
            "number": 7,
            "time": 117.37499999999463,
            "value": 0.7007874015748031
          },
          {
            "number": 7,
            "time": 117.37999999999462,
            "value": 0.7007874015748031
          },
          {
            "number": 7,
            "time": 117.38499999999462,
            "value": 0.7007874015748031
          },
          {
            "number": 7,
            "time": 117.38999999999461,
            "value": 0.7007874015748031
          },
          {
            "number": 7,
            "time": 117.39499999999461,
            "value": 0.7007874015748031
          },
          {
            "number": 7,
            "time": 117.3999999999946,
            "value": 0.7007874015748031
          },
          {
            "number": 7,
            "time": 117.4049999999946,
            "value": 0.7007874015748031
          },
          {
            "number": 7,
            "time": 117.4099999999946,
            "value": 0.7007874015748031
          },
          {
            "number": 7,
            "time": 117.41499999999459,
            "value": 0.7007874015748031
          },
          {
            "number": 7,
            "time": 117.41999999999459,
            "value": 0.7007874015748031
          },
          {
            "number": 7,
            "time": 117.42499999999458,
            "value": 0.7007874015748031
          },
          {
            "number": 7,
            "time": 117.42999999999458,
            "value": 0.7007874015748031
          },
          {
            "number": 7,
            "time": 117.43499999999457,
            "value": 0.7007874015748031
          },
          {
            "number": 7,
            "time": 117.43999999999457,
            "value": 0.7007874015748031
          },
          {
            "number": 7,
            "time": 117.44499999999456,
            "value": 0.7007874015748031
          },
          {
            "number": 7,
            "time": 117.44999999999456,
            "value": 0.7007874015748031
          },
          {
            "number": 7,
            "time": 117.45499999999456,
            "value": 0.7007874015748031
          },
          {
            "number": 7,
            "time": 117.45999999999455,
            "value": 0.7007874015748031
          },
          {
            "number": 7,
            "time": 117.46499999999455,
            "value": 0.7007874015748031
          },
          {
            "number": 7,
            "time": 117.46999999999454,
            "value": 0.7007874015748031
          },
          {
            "number": 7,
            "time": 117.47499999999454,
            "value": 0.7007874015748031
          },
          {
            "number": 7,
            "time": 117.47999999999453,
            "value": 0.7007874015748031
          },
          {
            "number": 7,
            "time": 117.48499999999453,
            "value": 0.7007874015748031
          },
          {
            "number": 7,
            "time": 117.48999999999452,
            "value": 0.7007874015748031
          },
          {
            "number": 7,
            "time": 117.49499999999452,
            "value": 0.7007874015748031
          },
          {
            "number": 7,
            "time": 117.49999999999451,
            "value": 0.7007874015748031
          },
          {
            "number": 7,
            "time": 117.50499999999451,
            "value": 0.7007874015748031
          },
          {
            "number": 7,
            "time": 117.5099999999945,
            "value": 0.6929133858267716
          },
          {
            "number": 7,
            "time": 117.5149999999945,
            "value": 0.6929133858267716
          },
          {
            "number": 7,
            "time": 117.5199999999945,
            "value": 0.6929133858267716
          },
          {
            "number": 7,
            "time": 117.52499999999449,
            "value": 0.6929133858267716
          },
          {
            "number": 7,
            "time": 117.52999999999449,
            "value": 0.6929133858267716
          },
          {
            "number": 7,
            "time": 117.53499999999448,
            "value": 0.6929133858267716
          },
          {
            "number": 7,
            "time": 117.53999999999448,
            "value": 0.6929133858267716
          },
          {
            "number": 7,
            "time": 117.54499999999447,
            "value": 0.6929133858267716
          },
          {
            "number": 7,
            "time": 117.54999999999447,
            "value": 0.6929133858267716
          },
          {
            "number": 7,
            "time": 117.55499999999446,
            "value": 0.6929133858267716
          },
          {
            "number": 7,
            "time": 117.55999999999446,
            "value": 0.6929133858267716
          },
          {
            "number": 7,
            "time": 117.56499999999446,
            "value": 0.6929133858267716
          },
          {
            "number": 7,
            "time": 117.56999999999445,
            "value": 0.6929133858267716
          },
          {
            "number": 7,
            "time": 117.57499999999445,
            "value": 0.6929133858267716
          },
          {
            "number": 7,
            "time": 117.57999999999444,
            "value": 0.6929133858267716
          },
          {
            "number": 7,
            "time": 117.58499999999444,
            "value": 0.6929133858267716
          },
          {
            "number": 7,
            "time": 117.58999999999443,
            "value": 0.6929133858267716
          },
          {
            "number": 7,
            "time": 117.59499999999443,
            "value": 0.6929133858267716
          },
          {
            "number": 7,
            "time": 117.59999999999442,
            "value": 0.6929133858267716
          },
          {
            "number": 7,
            "time": 117.60499999999442,
            "value": 0.6929133858267716
          },
          {
            "number": 7,
            "time": 117.60999999999441,
            "value": 0.6929133858267716
          },
          {
            "number": 7,
            "time": 117.61499999999441,
            "value": 0.6929133858267716
          },
          {
            "number": 7,
            "time": 117.6199999999944,
            "value": 0.6929133858267716
          },
          {
            "number": 7,
            "time": 117.6249999999944,
            "value": 0.6929133858267716
          },
          {
            "number": 7,
            "time": 117.6299999999944,
            "value": 0.6929133858267716
          },
          {
            "number": 7,
            "time": 117.63499999999439,
            "value": 0.6929133858267716
          },
          {
            "number": 7,
            "time": 117.63999999999439,
            "value": 0.6929133858267716
          },
          {
            "number": 7,
            "time": 117.64499999999438,
            "value": 0.6929133858267716
          },
          {
            "number": 7,
            "time": 117.64999999999438,
            "value": 0.6929133858267716
          },
          {
            "number": 7,
            "time": 117.65499999999437,
            "value": 0.6850393700787402
          },
          {
            "number": 7,
            "time": 117.65999999999437,
            "value": 0.6850393700787402
          },
          {
            "number": 7,
            "time": 117.66499999999436,
            "value": 0.6850393700787402
          },
          {
            "number": 7,
            "time": 117.66999999999436,
            "value": 0.6850393700787402
          },
          {
            "number": 7,
            "time": 117.67499999999436,
            "value": 0.6850393700787402
          },
          {
            "number": 7,
            "time": 117.67999999999435,
            "value": 0.6850393700787402
          },
          {
            "number": 7,
            "time": 117.68499999999435,
            "value": 0.6850393700787402
          },
          {
            "number": 7,
            "time": 117.68999999999434,
            "value": 0.6850393700787402
          },
          {
            "number": 7,
            "time": 117.69499999999434,
            "value": 0.6850393700787402
          },
          {
            "number": 7,
            "time": 117.69999999999433,
            "value": 0.6850393700787402
          },
          {
            "number": 7,
            "time": 117.70499999999433,
            "value": 0.6850393700787402
          },
          {
            "number": 7,
            "time": 117.70999999999432,
            "value": 0.6850393700787402
          },
          {
            "number": 7,
            "time": 117.71499999999432,
            "value": 0.6850393700787402
          },
          {
            "number": 7,
            "time": 117.71999999999431,
            "value": 0.6850393700787402
          },
          {
            "number": 7,
            "time": 117.72499999999431,
            "value": 0.6850393700787402
          },
          {
            "number": 7,
            "time": 117.7299999999943,
            "value": 0.6850393700787402
          },
          {
            "number": 7,
            "time": 117.7349999999943,
            "value": 0.6850393700787402
          },
          {
            "number": 7,
            "time": 117.7399999999943,
            "value": 0.6850393700787402
          },
          {
            "number": 7,
            "time": 117.74499999999429,
            "value": 0.6850393700787402
          },
          {
            "number": 7,
            "time": 117.74999999999429,
            "value": 0.6850393700787402
          },
          {
            "number": 7,
            "time": 117.75499999999428,
            "value": 0.6850393700787402
          },
          {
            "number": 7,
            "time": 117.75999999999428,
            "value": 0.6850393700787402
          },
          {
            "number": 7,
            "time": 117.76499999999427,
            "value": 0.6850393700787402
          },
          {
            "number": 7,
            "time": 117.76999999999427,
            "value": 0.6850393700787402
          },
          {
            "number": 7,
            "time": 117.77499999999426,
            "value": 0.6850393700787402
          },
          {
            "number": 7,
            "time": 117.77999999999426,
            "value": 0.6850393700787402
          },
          {
            "number": 7,
            "time": 117.78499999999426,
            "value": 0.6850393700787402
          },
          {
            "number": 7,
            "time": 117.78999999999425,
            "value": 0.6850393700787402
          },
          {
            "number": 7,
            "time": 117.79499999999425,
            "value": 0.6850393700787402
          },
          {
            "number": 7,
            "time": 117.79999999999424,
            "value": 0.6850393700787402
          },
          {
            "number": 7,
            "time": 117.80499999999424,
            "value": 0.6771653543307087
          },
          {
            "number": 7,
            "time": 117.80999999999423,
            "value": 0.6771653543307087
          },
          {
            "number": 7,
            "time": 117.81499999999423,
            "value": 0.6771653543307087
          },
          {
            "number": 7,
            "time": 117.81999999999422,
            "value": 0.6771653543307087
          },
          {
            "number": 7,
            "time": 117.82499999999422,
            "value": 0.6771653543307087
          },
          {
            "number": 7,
            "time": 117.82999999999421,
            "value": 0.6771653543307087
          },
          {
            "number": 7,
            "time": 117.83499999999421,
            "value": 0.6771653543307087
          },
          {
            "number": 7,
            "time": 117.8399999999942,
            "value": 0.6771653543307087
          },
          {
            "number": 7,
            "time": 117.8449999999942,
            "value": 0.6771653543307087
          },
          {
            "number": 7,
            "time": 117.8499999999942,
            "value": 0.6771653543307087
          },
          {
            "number": 7,
            "time": 117.85499999999419,
            "value": 0.6771653543307087
          },
          {
            "number": 7,
            "time": 117.85999999999419,
            "value": 0.6771653543307087
          },
          {
            "number": 7,
            "time": 117.86499999999418,
            "value": 0.6771653543307087
          },
          {
            "number": 7,
            "time": 117.86999999999418,
            "value": 0.6771653543307087
          },
          {
            "number": 7,
            "time": 117.87499999999417,
            "value": 0.6771653543307087
          },
          {
            "number": 7,
            "time": 117.87999999999417,
            "value": 0.6771653543307087
          },
          {
            "number": 7,
            "time": 117.88499999999416,
            "value": 0.6771653543307087
          },
          {
            "number": 7,
            "time": 117.88999999999416,
            "value": 0.6771653543307087
          },
          {
            "number": 7,
            "time": 117.89499999999416,
            "value": 0.6771653543307087
          },
          {
            "number": 7,
            "time": 117.89999999999415,
            "value": 0.6771653543307087
          },
          {
            "number": 7,
            "time": 117.90499999999415,
            "value": 0.6771653543307087
          },
          {
            "number": 7,
            "time": 117.90999999999414,
            "value": 0.6771653543307087
          },
          {
            "number": 7,
            "time": 117.91499999999414,
            "value": 0.6771653543307087
          },
          {
            "number": 7,
            "time": 117.91999999999413,
            "value": 0.6771653543307087
          },
          {
            "number": 7,
            "time": 117.92499999999413,
            "value": 0.6771653543307087
          },
          {
            "number": 7,
            "time": 117.92999999999412,
            "value": 0.6771653543307087
          },
          {
            "number": 7,
            "time": 117.93499999999412,
            "value": 0.6771653543307087
          },
          {
            "number": 7,
            "time": 117.93999999999411,
            "value": 0.6771653543307087
          },
          {
            "number": 7,
            "time": 117.94499999999411,
            "value": 0.6771653543307087
          },
          {
            "number": 7,
            "time": 117.9499999999941,
            "value": 0.6771653543307087
          },
          {
            "number": 7,
            "time": 117.9549999999941,
            "value": 0.6692913385826772
          },
          {
            "number": 7,
            "time": 117.9599999999941,
            "value": 0.6692913385826772
          },
          {
            "number": 7,
            "time": 117.96499999999409,
            "value": 0.6692913385826772
          },
          {
            "number": 7,
            "time": 117.96999999999409,
            "value": 0.6692913385826772
          },
          {
            "number": 7,
            "time": 117.97499999999408,
            "value": 0.6692913385826772
          },
          {
            "number": 7,
            "time": 117.97999999999408,
            "value": 0.6692913385826772
          },
          {
            "number": 7,
            "time": 117.98499999999407,
            "value": 0.6692913385826772
          },
          {
            "number": 7,
            "time": 117.98999999999407,
            "value": 0.6692913385826772
          },
          {
            "number": 7,
            "time": 117.99499999999406,
            "value": 0.6692913385826772
          },
          {
            "number": 7,
            "time": 117.99999999999406,
            "value": 0.6692913385826772
          },
          {
            "number": 7,
            "time": 118.00499999999406,
            "value": 0.6692913385826772
          },
          {
            "number": 7,
            "time": 118.00999999999405,
            "value": 0.6692913385826772
          },
          {
            "number": 7,
            "time": 118.01499999999405,
            "value": 0.6692913385826772
          },
          {
            "number": 7,
            "time": 118.01999999999404,
            "value": 0.6692913385826772
          },
          {
            "number": 7,
            "time": 118.02499999999404,
            "value": 0.6692913385826772
          },
          {
            "number": 7,
            "time": 118.02999999999403,
            "value": 0.6692913385826772
          },
          {
            "number": 7,
            "time": 118.03499999999403,
            "value": 0.6692913385826772
          },
          {
            "number": 7,
            "time": 118.03999999999402,
            "value": 0.6692913385826772
          },
          {
            "number": 7,
            "time": 118.04499999999402,
            "value": 0.6692913385826772
          },
          {
            "number": 7,
            "time": 118.04999999999401,
            "value": 0.6692913385826772
          },
          {
            "number": 7,
            "time": 118.05499999999401,
            "value": 0.6692913385826772
          },
          {
            "number": 7,
            "time": 118.059999999994,
            "value": 0.6692913385826772
          },
          {
            "number": 7,
            "time": 118.064999999994,
            "value": 0.6692913385826772
          },
          {
            "number": 7,
            "time": 118.069999999994,
            "value": 0.6692913385826772
          },
          {
            "number": 7,
            "time": 118.07499999999399,
            "value": 0.6692913385826772
          },
          {
            "number": 7,
            "time": 118.07999999999399,
            "value": 0.6692913385826772
          },
          {
            "number": 7,
            "time": 118.08499999999398,
            "value": 0.6692913385826772
          },
          {
            "number": 7,
            "time": 118.08999999999398,
            "value": 0.6692913385826772
          },
          {
            "number": 7,
            "time": 118.09499999999397,
            "value": 0.6692913385826772
          },
          {
            "number": 7,
            "time": 118.09999999999397,
            "value": 0.6614173228346457
          },
          {
            "number": 7,
            "time": 118.10499999999396,
            "value": 0.6614173228346457
          },
          {
            "number": 7,
            "time": 118.10999999999396,
            "value": 0.6614173228346457
          },
          {
            "number": 7,
            "time": 118.11499999999396,
            "value": 0.6614173228346457
          },
          {
            "number": 7,
            "time": 118.11999999999395,
            "value": 0.6614173228346457
          },
          {
            "number": 7,
            "time": 118.12499999999395,
            "value": 0.6614173228346457
          },
          {
            "number": 7,
            "time": 118.12999999999394,
            "value": 0.6614173228346457
          },
          {
            "number": 7,
            "time": 118.13499999999394,
            "value": 0.6614173228346457
          },
          {
            "number": 7,
            "time": 118.13999999999393,
            "value": 0.6614173228346457
          },
          {
            "number": 7,
            "time": 118.14499999999393,
            "value": 0.6614173228346457
          },
          {
            "number": 7,
            "time": 118.14999999999392,
            "value": 0.6614173228346457
          },
          {
            "number": 7,
            "time": 118.15499999999392,
            "value": 0.6614173228346457
          },
          {
            "number": 7,
            "time": 118.15999999999391,
            "value": 0.6614173228346457
          },
          {
            "number": 7,
            "time": 118.16499999999391,
            "value": 0.6614173228346457
          },
          {
            "number": 7,
            "time": 118.1699999999939,
            "value": 0.6614173228346457
          },
          {
            "number": 7,
            "time": 118.1749999999939,
            "value": 0.6614173228346457
          },
          {
            "number": 7,
            "time": 118.1799999999939,
            "value": 0.6614173228346457
          },
          {
            "number": 7,
            "time": 118.18499999999389,
            "value": 0.6614173228346457
          },
          {
            "number": 7,
            "time": 118.18999999999389,
            "value": 0.6614173228346457
          },
          {
            "number": 7,
            "time": 118.19499999999388,
            "value": 0.6614173228346457
          },
          {
            "number": 7,
            "time": 118.19999999999388,
            "value": 0.6614173228346457
          },
          {
            "number": 7,
            "time": 118.20499999999387,
            "value": 0.6614173228346457
          },
          {
            "number": 7,
            "time": 118.20999999999387,
            "value": 0.6614173228346457
          },
          {
            "number": 7,
            "time": 118.21499999999386,
            "value": 0.6614173228346457
          },
          {
            "number": 7,
            "time": 118.21999999999386,
            "value": 0.6614173228346457
          },
          {
            "number": 7,
            "time": 118.22499999999386,
            "value": 0.6614173228346457
          },
          {
            "number": 7,
            "time": 118.22999999999385,
            "value": 0.6614173228346457
          },
          {
            "number": 7,
            "time": 118.23499999999385,
            "value": 0.6614173228346457
          },
          {
            "number": 7,
            "time": 118.23999999999384,
            "value": 0.6614173228346457
          },
          {
            "number": 7,
            "time": 118.24499999999384,
            "value": 0.6614173228346457
          },
          {
            "number": 7,
            "time": 118.24999999999383,
            "value": 0.6535433070866141
          },
          {
            "number": 7,
            "time": 118.25499999999383,
            "value": 0.6535433070866141
          },
          {
            "number": 7,
            "time": 118.25999999999382,
            "value": 0.6535433070866141
          },
          {
            "number": 7,
            "time": 118.26499999999382,
            "value": 0.6535433070866141
          },
          {
            "number": 7,
            "time": 118.26999999999381,
            "value": 0.6535433070866141
          },
          {
            "number": 7,
            "time": 118.27499999999381,
            "value": 0.6535433070866141
          },
          {
            "number": 7,
            "time": 118.2799999999938,
            "value": 0.6535433070866141
          },
          {
            "number": 7,
            "time": 118.2849999999938,
            "value": 0.6535433070866141
          },
          {
            "number": 7,
            "time": 118.2899999999938,
            "value": 0.6535433070866141
          },
          {
            "number": 7,
            "time": 118.29499999999379,
            "value": 0.6535433070866141
          },
          {
            "number": 7,
            "time": 118.29999999999379,
            "value": 0.6535433070866141
          },
          {
            "number": 7,
            "time": 118.30499999999378,
            "value": 0.6535433070866141
          },
          {
            "number": 7,
            "time": 118.30999999999378,
            "value": 0.6535433070866141
          },
          {
            "number": 7,
            "time": 118.31499999999377,
            "value": 0.6535433070866141
          },
          {
            "number": 7,
            "time": 118.31999999999377,
            "value": 0.6535433070866141
          },
          {
            "number": 7,
            "time": 118.32499999999376,
            "value": 0.6535433070866141
          },
          {
            "number": 7,
            "time": 118.32999999999376,
            "value": 0.6535433070866141
          },
          {
            "number": 7,
            "time": 118.33499999999376,
            "value": 0.6535433070866141
          },
          {
            "number": 7,
            "time": 118.33999999999375,
            "value": 0.6535433070866141
          },
          {
            "number": 7,
            "time": 118.34499999999375,
            "value": 0.6535433070866141
          },
          {
            "number": 7,
            "time": 118.34999999999374,
            "value": 0.6535433070866141
          },
          {
            "number": 7,
            "time": 118.35499999999374,
            "value": 0.6535433070866141
          },
          {
            "number": 7,
            "time": 118.35999999999373,
            "value": 0.6535433070866141
          },
          {
            "number": 7,
            "time": 118.36499999999373,
            "value": 0.6535433070866141
          },
          {
            "number": 7,
            "time": 118.36999999999372,
            "value": 0.6535433070866141
          },
          {
            "number": 7,
            "time": 118.37499999999372,
            "value": 0.6535433070866141
          },
          {
            "number": 7,
            "time": 118.37999999999371,
            "value": 0.6535433070866141
          },
          {
            "number": 7,
            "time": 118.38499999999371,
            "value": 0.6535433070866141
          },
          {
            "number": 7,
            "time": 118.3899999999937,
            "value": 0.6535433070866141
          },
          {
            "number": 7,
            "time": 118.3949999999937,
            "value": 0.6456692913385826
          },
          {
            "number": 7,
            "time": 118.3999999999937,
            "value": 0.6456692913385826
          },
          {
            "number": 7,
            "time": 118.40499999999369,
            "value": 0.6456692913385826
          },
          {
            "number": 7,
            "time": 118.40999999999369,
            "value": 0.6456692913385826
          },
          {
            "number": 7,
            "time": 118.41499999999368,
            "value": 0.6456692913385826
          },
          {
            "number": 7,
            "time": 118.41999999999368,
            "value": 0.6456692913385826
          },
          {
            "number": 7,
            "time": 118.42499999999367,
            "value": 0.6456692913385826
          },
          {
            "number": 7,
            "time": 118.42999999999367,
            "value": 0.6456692913385826
          },
          {
            "number": 7,
            "time": 118.43499999999366,
            "value": 0.6456692913385826
          },
          {
            "number": 7,
            "time": 118.43999999999366,
            "value": 0.6456692913385826
          },
          {
            "number": 7,
            "time": 118.44499999999366,
            "value": 0.6456692913385826
          },
          {
            "number": 7,
            "time": 118.44999999999365,
            "value": 0.6456692913385826
          },
          {
            "number": 7,
            "time": 118.45499999999365,
            "value": 0.6456692913385826
          },
          {
            "number": 7,
            "time": 118.45999999999364,
            "value": 0.6456692913385826
          },
          {
            "number": 7,
            "time": 118.46499999999364,
            "value": 0.6456692913385826
          },
          {
            "number": 7,
            "time": 118.46999999999363,
            "value": 0.6456692913385826
          },
          {
            "number": 7,
            "time": 118.47499999999363,
            "value": 0.6456692913385826
          },
          {
            "number": 7,
            "time": 118.47999999999362,
            "value": 0.6456692913385826
          },
          {
            "number": 7,
            "time": 118.48499999999362,
            "value": 0.6456692913385826
          },
          {
            "number": 7,
            "time": 118.48999999999361,
            "value": 0.6456692913385826
          },
          {
            "number": 7,
            "time": 118.49499999999361,
            "value": 0.6456692913385826
          },
          {
            "number": 7,
            "time": 118.4999999999936,
            "value": 0.6456692913385826
          },
          {
            "number": 7,
            "time": 118.5049999999936,
            "value": 0.6456692913385826
          },
          {
            "number": 7,
            "time": 118.5099999999936,
            "value": 0.6456692913385826
          },
          {
            "number": 7,
            "time": 118.51499999999359,
            "value": 0.6456692913385826
          },
          {
            "number": 7,
            "time": 118.51999999999359,
            "value": 0.6456692913385826
          },
          {
            "number": 7,
            "time": 118.52499999999358,
            "value": 0.6456692913385826
          },
          {
            "number": 7,
            "time": 118.52999999999358,
            "value": 0.6456692913385826
          },
          {
            "number": 7,
            "time": 118.53499999999357,
            "value": 0.6456692913385826
          },
          {
            "number": 7,
            "time": 118.53999999999357,
            "value": 0.6456692913385826
          },
          {
            "number": 7,
            "time": 118.54499999999356,
            "value": 0.6377952755905512
          },
          {
            "number": 7,
            "time": 118.54999999999356,
            "value": 0.6377952755905512
          },
          {
            "number": 7,
            "time": 118.55499999999356,
            "value": 0.6377952755905512
          },
          {
            "number": 7,
            "time": 118.55999999999355,
            "value": 0.6377952755905512
          },
          {
            "number": 7,
            "time": 118.56499999999355,
            "value": 0.6377952755905512
          },
          {
            "number": 7,
            "time": 118.56999999999354,
            "value": 0.6377952755905512
          },
          {
            "number": 7,
            "time": 118.57499999999354,
            "value": 0.6377952755905512
          },
          {
            "number": 7,
            "time": 118.57999999999353,
            "value": 0.6377952755905512
          },
          {
            "number": 7,
            "time": 118.58499999999353,
            "value": 0.6377952755905512
          },
          {
            "number": 7,
            "time": 118.58999999999352,
            "value": 0.6377952755905512
          },
          {
            "number": 7,
            "time": 118.59499999999352,
            "value": 0.6377952755905512
          },
          {
            "number": 7,
            "time": 118.59999999999351,
            "value": 0.6377952755905512
          },
          {
            "number": 7,
            "time": 118.60499999999351,
            "value": 0.6377952755905512
          },
          {
            "number": 7,
            "time": 118.6099999999935,
            "value": 0.6377952755905512
          },
          {
            "number": 7,
            "time": 118.6149999999935,
            "value": 0.6377952755905512
          },
          {
            "number": 7,
            "time": 118.6199999999935,
            "value": 0.6377952755905512
          },
          {
            "number": 7,
            "time": 118.62499999999349,
            "value": 0.6377952755905512
          },
          {
            "number": 7,
            "time": 118.62999999999349,
            "value": 0.6377952755905512
          },
          {
            "number": 7,
            "time": 118.63499999999348,
            "value": 0.6377952755905512
          },
          {
            "number": 7,
            "time": 118.63999999999348,
            "value": 0.6377952755905512
          },
          {
            "number": 7,
            "time": 118.64499999999347,
            "value": 0.6377952755905512
          },
          {
            "number": 7,
            "time": 118.64999999999347,
            "value": 0.6377952755905512
          },
          {
            "number": 7,
            "time": 118.65499999999346,
            "value": 0.6377952755905512
          },
          {
            "number": 7,
            "time": 118.65999999999346,
            "value": 0.6377952755905512
          },
          {
            "number": 7,
            "time": 118.66499999999346,
            "value": 0.6377952755905512
          },
          {
            "number": 7,
            "time": 118.66999999999345,
            "value": 0.6377952755905512
          },
          {
            "number": 7,
            "time": 118.67499999999345,
            "value": 0.6377952755905512
          },
          {
            "number": 7,
            "time": 118.67999999999344,
            "value": 0.6377952755905512
          },
          {
            "number": 7,
            "time": 118.68499999999344,
            "value": 0.6377952755905512
          },
          {
            "number": 7,
            "time": 118.68999999999343,
            "value": 0.6299212598425197
          },
          {
            "number": 7,
            "time": 118.69499999999343,
            "value": 0.6299212598425197
          },
          {
            "number": 7,
            "time": 118.69999999999342,
            "value": 0.6299212598425197
          },
          {
            "number": 7,
            "time": 118.70499999999342,
            "value": 0.6299212598425197
          },
          {
            "number": 7,
            "time": 118.70999999999341,
            "value": 0.6299212598425197
          },
          {
            "number": 7,
            "time": 118.71499999999341,
            "value": 0.6299212598425197
          },
          {
            "number": 7,
            "time": 118.7199999999934,
            "value": 0.6299212598425197
          },
          {
            "number": 7,
            "time": 118.7249999999934,
            "value": 0.6299212598425197
          },
          {
            "number": 7,
            "time": 118.7299999999934,
            "value": 0.6299212598425197
          },
          {
            "number": 7,
            "time": 118.73499999999339,
            "value": 0.6299212598425197
          },
          {
            "number": 7,
            "time": 118.73999999999339,
            "value": 0.6299212598425197
          },
          {
            "number": 7,
            "time": 118.74499999999338,
            "value": 0.6299212598425197
          },
          {
            "number": 7,
            "time": 118.74999999999338,
            "value": 0.6299212598425197
          },
          {
            "number": 7,
            "time": 118.75499999999337,
            "value": 0.6299212598425197
          },
          {
            "number": 7,
            "time": 118.75999999999337,
            "value": 0.6299212598425197
          },
          {
            "number": 7,
            "time": 118.76499999999336,
            "value": 0.6299212598425197
          },
          {
            "number": 7,
            "time": 118.76999999999336,
            "value": 0.6299212598425197
          },
          {
            "number": 7,
            "time": 118.77499999999336,
            "value": 0.6299212598425197
          },
          {
            "number": 7,
            "time": 118.77999999999335,
            "value": 0.6299212598425197
          },
          {
            "number": 7,
            "time": 118.78499999999335,
            "value": 0.6299212598425197
          },
          {
            "number": 7,
            "time": 118.78999999999334,
            "value": 0.6299212598425197
          },
          {
            "number": 7,
            "time": 118.79499999999334,
            "value": 0.6299212598425197
          },
          {
            "number": 7,
            "time": 118.79999999999333,
            "value": 0.6299212598425197
          },
          {
            "number": 7,
            "time": 118.80499999999333,
            "value": 0.6299212598425197
          },
          {
            "number": 7,
            "time": 118.80999999999332,
            "value": 0.6299212598425197
          },
          {
            "number": 7,
            "time": 118.81499999999332,
            "value": 0.6299212598425197
          },
          {
            "number": 7,
            "time": 118.81999999999331,
            "value": 0.6299212598425197
          },
          {
            "number": 7,
            "time": 118.82499999999331,
            "value": 0.6299212598425197
          },
          {
            "number": 7,
            "time": 118.8299999999933,
            "value": 0.6299212598425197
          },
          {
            "number": 7,
            "time": 118.8349999999933,
            "value": 0.6299212598425197
          },
          {
            "number": 7,
            "time": 118.8399999999933,
            "value": 0.6220472440944882
          },
          {
            "number": 7,
            "time": 118.84499999999329,
            "value": 0.6220472440944882
          },
          {
            "number": 7,
            "time": 118.84999999999329,
            "value": 0.6220472440944882
          },
          {
            "number": 7,
            "time": 118.85499999999328,
            "value": 0.6220472440944882
          },
          {
            "number": 7,
            "time": 118.85999999999328,
            "value": 0.6220472440944882
          },
          {
            "number": 7,
            "time": 118.86499999999327,
            "value": 0.6220472440944882
          },
          {
            "number": 7,
            "time": 118.86999999999327,
            "value": 0.6220472440944882
          },
          {
            "number": 7,
            "time": 118.87499999999326,
            "value": 0.6220472440944882
          },
          {
            "number": 7,
            "time": 118.87999999999326,
            "value": 0.6220472440944882
          },
          {
            "number": 7,
            "time": 118.88499999999325,
            "value": 0.6220472440944882
          },
          {
            "number": 7,
            "time": 118.88999999999325,
            "value": 0.6220472440944882
          },
          {
            "number": 7,
            "time": 118.89499999999325,
            "value": 0.6220472440944882
          },
          {
            "number": 7,
            "time": 118.89999999999324,
            "value": 0.6220472440944882
          },
          {
            "number": 7,
            "time": 118.90499999999324,
            "value": 0.6220472440944882
          },
          {
            "number": 7,
            "time": 118.90999999999323,
            "value": 0.6220472440944882
          },
          {
            "number": 7,
            "time": 118.91499999999323,
            "value": 0.6220472440944882
          },
          {
            "number": 7,
            "time": 118.91999999999322,
            "value": 0.6220472440944882
          },
          {
            "number": 7,
            "time": 118.92499999999322,
            "value": 0.6220472440944882
          },
          {
            "number": 7,
            "time": 118.92999999999321,
            "value": 0.6220472440944882
          },
          {
            "number": 7,
            "time": 118.93499999999321,
            "value": 0.6220472440944882
          },
          {
            "number": 7,
            "time": 118.9399999999932,
            "value": 0.6220472440944882
          },
          {
            "number": 7,
            "time": 118.9449999999932,
            "value": 0.6220472440944882
          },
          {
            "number": 7,
            "time": 118.9499999999932,
            "value": 0.6220472440944882
          },
          {
            "number": 7,
            "time": 118.95499999999319,
            "value": 0.6220472440944882
          },
          {
            "number": 7,
            "time": 118.95999999999319,
            "value": 0.6220472440944882
          },
          {
            "number": 7,
            "time": 118.96499999999318,
            "value": 0.6220472440944882
          },
          {
            "number": 7,
            "time": 118.96999999999318,
            "value": 0.6220472440944882
          },
          {
            "number": 7,
            "time": 118.97499999999317,
            "value": 0.6220472440944882
          },
          {
            "number": 7,
            "time": 118.97999999999317,
            "value": 0.6220472440944882
          },
          {
            "number": 7,
            "time": 118.98499999999316,
            "value": 0.6220472440944882
          },
          {
            "number": 7,
            "time": 118.98999999999316,
            "value": 0.6141732283464567
          },
          {
            "number": 7,
            "time": 118.99499999999315,
            "value": 0.6141732283464567
          },
          {
            "number": 7,
            "time": 118.99999999999315,
            "value": 0.6141732283464567
          },
          {
            "number": 7,
            "time": 119.00499999999315,
            "value": 0.6141732283464567
          },
          {
            "number": 7,
            "time": 119.00999999999314,
            "value": 0.6141732283464567
          },
          {
            "number": 7,
            "time": 119.01499999999314,
            "value": 0.6141732283464567
          },
          {
            "number": 7,
            "time": 119.01999999999313,
            "value": 0.6141732283464567
          },
          {
            "number": 7,
            "time": 119.02499999999313,
            "value": 0.6141732283464567
          },
          {
            "number": 7,
            "time": 119.02999999999312,
            "value": 0.6141732283464567
          },
          {
            "number": 7,
            "time": 119.03499999999312,
            "value": 0.6141732283464567
          },
          {
            "number": 7,
            "time": 119.03999999999311,
            "value": 0.6141732283464567
          },
          {
            "number": 7,
            "time": 119.04499999999311,
            "value": 0.6141732283464567
          },
          {
            "number": 7,
            "time": 119.0499999999931,
            "value": 0.6141732283464567
          },
          {
            "number": 7,
            "time": 119.0549999999931,
            "value": 0.6141732283464567
          },
          {
            "number": 7,
            "time": 119.0599999999931,
            "value": 0.6141732283464567
          },
          {
            "number": 7,
            "time": 119.06499999999309,
            "value": 0.6141732283464567
          },
          {
            "number": 7,
            "time": 119.06999999999309,
            "value": 0.6141732283464567
          },
          {
            "number": 7,
            "time": 119.07499999999308,
            "value": 0.6141732283464567
          },
          {
            "number": 7,
            "time": 119.07999999999308,
            "value": 0.6141732283464567
          },
          {
            "number": 7,
            "time": 119.08499999999307,
            "value": 0.6141732283464567
          },
          {
            "number": 7,
            "time": 119.08999999999307,
            "value": 0.6141732283464567
          },
          {
            "number": 7,
            "time": 119.09499999999306,
            "value": 0.6141732283464567
          },
          {
            "number": 7,
            "time": 119.09999999999306,
            "value": 0.6141732283464567
          },
          {
            "number": 7,
            "time": 119.10499999999305,
            "value": 0.6141732283464567
          },
          {
            "number": 7,
            "time": 119.10999999999305,
            "value": 0.6141732283464567
          },
          {
            "number": 7,
            "time": 119.11499999999305,
            "value": 0.6141732283464567
          },
          {
            "number": 7,
            "time": 119.11999999999304,
            "value": 0.6141732283464567
          },
          {
            "number": 7,
            "time": 119.12499999999304,
            "value": 0.6141732283464567
          },
          {
            "number": 7,
            "time": 119.12999999999303,
            "value": 0.6141732283464567
          },
          {
            "number": 7,
            "time": 119.13499999999303,
            "value": 0.6062992125984252
          },
          {
            "number": 7,
            "time": 119.13999999999302,
            "value": 0.6062992125984252
          },
          {
            "number": 7,
            "time": 119.14499999999302,
            "value": 0.6062992125984252
          },
          {
            "number": 7,
            "time": 119.14999999999301,
            "value": 0.6062992125984252
          },
          {
            "number": 7,
            "time": 119.15499999999301,
            "value": 0.6062992125984252
          },
          {
            "number": 7,
            "time": 119.159999999993,
            "value": 0.6062992125984252
          },
          {
            "number": 7,
            "time": 119.164999999993,
            "value": 0.6062992125984252
          },
          {
            "number": 7,
            "time": 119.169999999993,
            "value": 0.6062992125984252
          },
          {
            "number": 7,
            "time": 119.17499999999299,
            "value": 0.6062992125984252
          },
          {
            "number": 7,
            "time": 119.17999999999299,
            "value": 0.6062992125984252
          },
          {
            "number": 7,
            "time": 119.18499999999298,
            "value": 0.6062992125984252
          },
          {
            "number": 7,
            "time": 119.18999999999298,
            "value": 0.6062992125984252
          },
          {
            "number": 7,
            "time": 119.19499999999297,
            "value": 0.6062992125984252
          },
          {
            "number": 7,
            "time": 119.19999999999297,
            "value": 0.6062992125984252
          },
          {
            "number": 7,
            "time": 119.20499999999296,
            "value": 0.6062992125984252
          },
          {
            "number": 7,
            "time": 119.20999999999296,
            "value": 0.6062992125984252
          },
          {
            "number": 7,
            "time": 119.21499999999295,
            "value": 0.6062992125984252
          },
          {
            "number": 7,
            "time": 119.21999999999295,
            "value": 0.6062992125984252
          },
          {
            "number": 7,
            "time": 119.22499999999295,
            "value": 0.6062992125984252
          },
          {
            "number": 7,
            "time": 119.22999999999294,
            "value": 0.6062992125984252
          },
          {
            "number": 7,
            "time": 119.23499999999294,
            "value": 0.6062992125984252
          },
          {
            "number": 7,
            "time": 119.23999999999293,
            "value": 0.6062992125984252
          },
          {
            "number": 7,
            "time": 119.24499999999293,
            "value": 0.6062992125984252
          },
          {
            "number": 7,
            "time": 119.24999999999292,
            "value": 0.6062992125984252
          },
          {
            "number": 7,
            "time": 119.25499999999292,
            "value": 0.6062992125984252
          },
          {
            "number": 7,
            "time": 119.25999999999291,
            "value": 0.6062992125984252
          },
          {
            "number": 7,
            "time": 119.26499999999291,
            "value": 0.6062992125984252
          },
          {
            "number": 7,
            "time": 119.2699999999929,
            "value": 0.6062992125984252
          },
          {
            "number": 7,
            "time": 119.2749999999929,
            "value": 0.6062992125984252
          },
          {
            "number": 7,
            "time": 119.2799999999929,
            "value": 0.6062992125984252
          },
          {
            "number": 7,
            "time": 119.28499999999289,
            "value": 0.5984251968503937
          },
          {
            "number": 7,
            "time": 119.28999999999289,
            "value": 0.5984251968503937
          },
          {
            "number": 7,
            "time": 119.29499999999288,
            "value": 0.5984251968503937
          },
          {
            "number": 7,
            "time": 119.29999999999288,
            "value": 0.5984251968503937
          },
          {
            "number": 7,
            "time": 119.30499999999287,
            "value": 0.5984251968503937
          },
          {
            "number": 7,
            "time": 119.30999999999287,
            "value": 0.5984251968503937
          },
          {
            "number": 7,
            "time": 119.31499999999286,
            "value": 0.5984251968503937
          },
          {
            "number": 7,
            "time": 119.31999999999286,
            "value": 0.5984251968503937
          },
          {
            "number": 7,
            "time": 119.32499999999285,
            "value": 0.5984251968503937
          },
          {
            "number": 7,
            "time": 119.32999999999285,
            "value": 0.5984251968503937
          },
          {
            "number": 7,
            "time": 119.33499999999285,
            "value": 0.5984251968503937
          },
          {
            "number": 7,
            "time": 119.33999999999284,
            "value": 0.5984251968503937
          },
          {
            "number": 7,
            "time": 119.34499999999284,
            "value": 0.5984251968503937
          },
          {
            "number": 7,
            "time": 119.34999999999283,
            "value": 0.5984251968503937
          },
          {
            "number": 7,
            "time": 119.35499999999283,
            "value": 0.5984251968503937
          },
          {
            "number": 7,
            "time": 119.35999999999282,
            "value": 0.5984251968503937
          },
          {
            "number": 7,
            "time": 119.36499999999282,
            "value": 0.5984251968503937
          },
          {
            "number": 7,
            "time": 119.36999999999281,
            "value": 0.5984251968503937
          },
          {
            "number": 7,
            "time": 119.37499999999281,
            "value": 0.5984251968503937
          },
          {
            "number": 7,
            "time": 119.3799999999928,
            "value": 0.5984251968503937
          },
          {
            "number": 7,
            "time": 119.3849999999928,
            "value": 0.5984251968503937
          },
          {
            "number": 7,
            "time": 119.3899999999928,
            "value": 0.5984251968503937
          },
          {
            "number": 7,
            "time": 119.39499999999279,
            "value": 0.5984251968503937
          },
          {
            "number": 7,
            "time": 119.39999999999279,
            "value": 0.5984251968503937
          },
          {
            "number": 7,
            "time": 119.40499999999278,
            "value": 0.5984251968503937
          },
          {
            "number": 7,
            "time": 119.40999999999278,
            "value": 0.5984251968503937
          },
          {
            "number": 7,
            "time": 119.41499999999277,
            "value": 0.5984251968503937
          },
          {
            "number": 7,
            "time": 119.41999999999277,
            "value": 0.5984251968503937
          },
          {
            "number": 7,
            "time": 119.42499999999276,
            "value": 0.5984251968503937
          },
          {
            "number": 7,
            "time": 119.42999999999276,
            "value": 0.5905511811023622
          },
          {
            "number": 7,
            "time": 119.43499999999275,
            "value": 0.5905511811023622
          },
          {
            "number": 7,
            "time": 119.43999999999275,
            "value": 0.5905511811023622
          },
          {
            "number": 7,
            "time": 119.44499999999275,
            "value": 0.5905511811023622
          },
          {
            "number": 7,
            "time": 119.44999999999274,
            "value": 0.5905511811023622
          },
          {
            "number": 7,
            "time": 119.45499999999274,
            "value": 0.5905511811023622
          },
          {
            "number": 7,
            "time": 119.45999999999273,
            "value": 0.5905511811023622
          },
          {
            "number": 7,
            "time": 119.46499999999273,
            "value": 0.5905511811023622
          },
          {
            "number": 7,
            "time": 119.46999999999272,
            "value": 0.5905511811023622
          },
          {
            "number": 7,
            "time": 119.47499999999272,
            "value": 0.5905511811023622
          },
          {
            "number": 7,
            "time": 119.47999999999271,
            "value": 0.5905511811023622
          },
          {
            "number": 7,
            "time": 119.48499999999271,
            "value": 0.5905511811023622
          },
          {
            "number": 7,
            "time": 119.4899999999927,
            "value": 0.5905511811023622
          },
          {
            "number": 7,
            "time": 119.4949999999927,
            "value": 0.5905511811023622
          },
          {
            "number": 7,
            "time": 119.4999999999927,
            "value": 0.5905511811023622
          },
          {
            "number": 7,
            "time": 119.50499999999269,
            "value": 0.5905511811023622
          },
          {
            "number": 7,
            "time": 119.50999999999269,
            "value": 0.5905511811023622
          },
          {
            "number": 7,
            "time": 119.51499999999268,
            "value": 0.5905511811023622
          },
          {
            "number": 7,
            "time": 119.51999999999268,
            "value": 0.5905511811023622
          },
          {
            "number": 7,
            "time": 119.52499999999267,
            "value": 0.5905511811023622
          },
          {
            "number": 7,
            "time": 119.52999999999267,
            "value": 0.5905511811023622
          },
          {
            "number": 7,
            "time": 119.53499999999266,
            "value": 0.5905511811023622
          },
          {
            "number": 7,
            "time": 119.53999999999266,
            "value": 0.5905511811023622
          },
          {
            "number": 7,
            "time": 119.54499999999265,
            "value": 0.5905511811023622
          },
          {
            "number": 7,
            "time": 119.54999999999265,
            "value": 0.5905511811023622
          },
          {
            "number": 7,
            "time": 119.55499999999265,
            "value": 0.5905511811023622
          },
          {
            "number": 7,
            "time": 119.55999999999264,
            "value": 0.5905511811023622
          },
          {
            "number": 7,
            "time": 119.56499999999264,
            "value": 0.5905511811023622
          },
          {
            "number": 7,
            "time": 119.56999999999263,
            "value": 0.5905511811023622
          },
          {
            "number": 7,
            "time": 119.57499999999263,
            "value": 0.5905511811023622
          },
          {
            "number": 7,
            "time": 119.57999999999262,
            "value": 0.5826771653543307
          },
          {
            "number": 7,
            "time": 119.58499999999262,
            "value": 0.5826771653543307
          },
          {
            "number": 7,
            "time": 119.58999999999261,
            "value": 0.5826771653543307
          },
          {
            "number": 7,
            "time": 119.59499999999261,
            "value": 0.5826771653543307
          },
          {
            "number": 7,
            "time": 119.5999999999926,
            "value": 0.5826771653543307
          },
          {
            "number": 7,
            "time": 119.6049999999926,
            "value": 0.5826771653543307
          },
          {
            "number": 7,
            "time": 119.6099999999926,
            "value": 0.5826771653543307
          },
          {
            "number": 7,
            "time": 119.61499999999259,
            "value": 0.5826771653543307
          },
          {
            "number": 7,
            "time": 119.61999999999259,
            "value": 0.5826771653543307
          },
          {
            "number": 7,
            "time": 119.62499999999258,
            "value": 0.5826771653543307
          },
          {
            "number": 7,
            "time": 119.62999999999258,
            "value": 0.5826771653543307
          },
          {
            "number": 7,
            "time": 119.63499999999257,
            "value": 0.5826771653543307
          },
          {
            "number": 7,
            "time": 119.63999999999257,
            "value": 0.5826771653543307
          },
          {
            "number": 7,
            "time": 119.64499999999256,
            "value": 0.5826771653543307
          },
          {
            "number": 7,
            "time": 119.64999999999256,
            "value": 0.5826771653543307
          },
          {
            "number": 7,
            "time": 119.65499999999255,
            "value": 0.5826771653543307
          },
          {
            "number": 7,
            "time": 119.65999999999255,
            "value": 0.5826771653543307
          },
          {
            "number": 7,
            "time": 119.66499999999255,
            "value": 0.5826771653543307
          },
          {
            "number": 7,
            "time": 119.66999999999254,
            "value": 0.5826771653543307
          },
          {
            "number": 7,
            "time": 119.67499999999254,
            "value": 0.5826771653543307
          },
          {
            "number": 7,
            "time": 119.67999999999253,
            "value": 0.5826771653543307
          },
          {
            "number": 7,
            "time": 119.68499999999253,
            "value": 0.5826771653543307
          },
          {
            "number": 7,
            "time": 119.68999999999252,
            "value": 0.5826771653543307
          },
          {
            "number": 7,
            "time": 119.69499999999252,
            "value": 0.5826771653543307
          },
          {
            "number": 7,
            "time": 119.69999999999251,
            "value": 0.5826771653543307
          },
          {
            "number": 7,
            "time": 119.70499999999251,
            "value": 0.5826771653543307
          },
          {
            "number": 7,
            "time": 119.7099999999925,
            "value": 0.5826771653543307
          },
          {
            "number": 7,
            "time": 119.7149999999925,
            "value": 0.5826771653543307
          },
          {
            "number": 7,
            "time": 119.7199999999925,
            "value": 0.5826771653543307
          },
          {
            "number": 7,
            "time": 119.72499999999249,
            "value": 0.5748031496062992
          },
          {
            "number": 7,
            "time": 119.72999999999249,
            "value": 0.5748031496062992
          },
          {
            "number": 7,
            "time": 119.73499999999248,
            "value": 0.5748031496062992
          },
          {
            "number": 7,
            "time": 119.73999999999248,
            "value": 0.5748031496062992
          },
          {
            "number": 7,
            "time": 119.74499999999247,
            "value": 0.5748031496062992
          },
          {
            "number": 7,
            "time": 119.74999999999247,
            "value": 0.5748031496062992
          },
          {
            "number": 7,
            "time": 119.75499999999246,
            "value": 0.5748031496062992
          },
          {
            "number": 7,
            "time": 119.75999999999246,
            "value": 0.5748031496062992
          },
          {
            "number": 7,
            "time": 119.76499999999245,
            "value": 0.5748031496062992
          },
          {
            "number": 7,
            "time": 119.76999999999245,
            "value": 0.5748031496062992
          },
          {
            "number": 7,
            "time": 119.77499999999245,
            "value": 0.5748031496062992
          },
          {
            "number": 7,
            "time": 119.77999999999244,
            "value": 0.5748031496062992
          },
          {
            "number": 7,
            "time": 119.78499999999244,
            "value": 0.5748031496062992
          },
          {
            "number": 7,
            "time": 119.78999999999243,
            "value": 0.5748031496062992
          },
          {
            "number": 7,
            "time": 119.79499999999243,
            "value": 0.5748031496062992
          },
          {
            "number": 7,
            "time": 119.79999999999242,
            "value": 0.5748031496062992
          },
          {
            "number": 7,
            "time": 119.80499999999242,
            "value": 0.5748031496062992
          },
          {
            "number": 7,
            "time": 119.80999999999241,
            "value": 0.5748031496062992
          },
          {
            "number": 7,
            "time": 119.81499999999241,
            "value": 0.5748031496062992
          },
          {
            "number": 7,
            "time": 119.8199999999924,
            "value": 0.5748031496062992
          },
          {
            "number": 7,
            "time": 119.8249999999924,
            "value": 0.5748031496062992
          },
          {
            "number": 7,
            "time": 119.8299999999924,
            "value": 0.5748031496062992
          },
          {
            "number": 7,
            "time": 119.83499999999239,
            "value": 0.5748031496062992
          },
          {
            "number": 7,
            "time": 119.83999999999239,
            "value": 0.5748031496062992
          },
          {
            "number": 7,
            "time": 119.84499999999238,
            "value": 0.5748031496062992
          },
          {
            "number": 7,
            "time": 119.84999999999238,
            "value": 0.5748031496062992
          },
          {
            "number": 7,
            "time": 119.85499999999237,
            "value": 0.5748031496062992
          },
          {
            "number": 7,
            "time": 119.85999999999237,
            "value": 0.5748031496062992
          },
          {
            "number": 7,
            "time": 119.86499999999236,
            "value": 0.5748031496062992
          },
          {
            "number": 7,
            "time": 119.86999999999236,
            "value": 0.5748031496062992
          },
          {
            "number": 7,
            "time": 119.87499999999235,
            "value": 0.5669291338582677
          },
          {
            "number": 7,
            "time": 119.87999999999235,
            "value": 0.5669291338582677
          },
          {
            "number": 7,
            "time": 119.88499999999235,
            "value": 0.5669291338582677
          },
          {
            "number": 7,
            "time": 119.88999999999234,
            "value": 0.5669291338582677
          },
          {
            "number": 7,
            "time": 119.89499999999234,
            "value": 0.5669291338582677
          },
          {
            "number": 7,
            "time": 119.89999999999233,
            "value": 0.5669291338582677
          },
          {
            "number": 7,
            "time": 119.90499999999233,
            "value": 0.5669291338582677
          },
          {
            "number": 7,
            "time": 119.90999999999232,
            "value": 0.5669291338582677
          },
          {
            "number": 7,
            "time": 119.91499999999232,
            "value": 0.5669291338582677
          },
          {
            "number": 7,
            "time": 119.91999999999231,
            "value": 0.5669291338582677
          },
          {
            "number": 7,
            "time": 119.92499999999231,
            "value": 0.5669291338582677
          },
          {
            "number": 7,
            "time": 119.9299999999923,
            "value": 0.5669291338582677
          },
          {
            "number": 7,
            "time": 119.9349999999923,
            "value": 0.5669291338582677
          },
          {
            "number": 7,
            "time": 119.9399999999923,
            "value": 0.5669291338582677
          },
          {
            "number": 7,
            "time": 119.94499999999229,
            "value": 0.5669291338582677
          },
          {
            "number": 7,
            "time": 119.94999999999229,
            "value": 0.5669291338582677
          },
          {
            "number": 7,
            "time": 119.95499999999228,
            "value": 0.5669291338582677
          },
          {
            "number": 7,
            "time": 119.95999999999228,
            "value": 0.5669291338582677
          },
          {
            "number": 7,
            "time": 119.96499999999227,
            "value": 0.5669291338582677
          },
          {
            "number": 7,
            "time": 119.96999999999227,
            "value": 0.5669291338582677
          },
          {
            "number": 7,
            "time": 119.97499999999226,
            "value": 0.5669291338582677
          },
          {
            "number": 7,
            "time": 119.97999999999226,
            "value": 0.5669291338582677
          },
          {
            "number": 7,
            "time": 119.98499999999225,
            "value": 0.5669291338582677
          },
          {
            "number": 7,
            "time": 119.98999999999225,
            "value": 0.5669291338582677
          },
          {
            "number": 7,
            "time": 119.99499999999225,
            "value": 0.5669291338582677
          },
          {
            "number": 7,
            "time": 119.99999999999224,
            "value": 0.5669291338582677
          },
          {
            "number": 7,
            "time": 120.00499999999224,
            "value": 0.5669291338582677
          },
          {
            "number": 7,
            "time": 120.00999999999223,
            "value": 0.5669291338582677
          },
          {
            "number": 7,
            "time": 120.01499999999223,
            "value": 0.5669291338582677
          },
          {
            "number": 7,
            "time": 120.01999999999222,
            "value": 0.5590551181102362
          },
          {
            "number": 7,
            "time": 120.02499999999222,
            "value": 0.5590551181102362
          },
          {
            "number": 7,
            "time": 120.02999999999221,
            "value": 0.5590551181102362
          },
          {
            "number": 7,
            "time": 120.03499999999221,
            "value": 0.5590551181102362
          },
          {
            "number": 7,
            "time": 120.0399999999922,
            "value": 0.5590551181102362
          },
          {
            "number": 7,
            "time": 120.0449999999922,
            "value": 0.5590551181102362
          },
          {
            "number": 7,
            "time": 120.0499999999922,
            "value": 0.5590551181102362
          },
          {
            "number": 7,
            "time": 120.05499999999219,
            "value": 0.5590551181102362
          },
          {
            "number": 7,
            "time": 120.05999999999219,
            "value": 0.5590551181102362
          },
          {
            "number": 7,
            "time": 120.06499999999218,
            "value": 0.5590551181102362
          },
          {
            "number": 7,
            "time": 120.06999999999218,
            "value": 0.5590551181102362
          },
          {
            "number": 7,
            "time": 120.07499999999217,
            "value": 0.5590551181102362
          },
          {
            "number": 7,
            "time": 120.07999999999217,
            "value": 0.5590551181102362
          },
          {
            "number": 7,
            "time": 120.08499999999216,
            "value": 0.5590551181102362
          },
          {
            "number": 7,
            "time": 120.08999999999216,
            "value": 0.5590551181102362
          },
          {
            "number": 7,
            "time": 120.09499999999215,
            "value": 0.5590551181102362
          },
          {
            "number": 7,
            "time": 120.09999999999215,
            "value": 0.5590551181102362
          },
          {
            "number": 7,
            "time": 120.10499999999215,
            "value": 0.5590551181102362
          },
          {
            "number": 7,
            "time": 120.10999999999214,
            "value": 0.5590551181102362
          },
          {
            "number": 7,
            "time": 120.11499999999214,
            "value": 0.5590551181102362
          },
          {
            "number": 7,
            "time": 120.11999999999213,
            "value": 0.5590551181102362
          },
          {
            "number": 7,
            "time": 120.12499999999213,
            "value": 0.5590551181102362
          },
          {
            "number": 7,
            "time": 120.12999999999212,
            "value": 0.5590551181102362
          },
          {
            "number": 7,
            "time": 120.13499999999212,
            "value": 0.5590551181102362
          },
          {
            "number": 7,
            "time": 120.13999999999211,
            "value": 0.5590551181102362
          },
          {
            "number": 7,
            "time": 120.14499999999211,
            "value": 0.5590551181102362
          },
          {
            "number": 7,
            "time": 120.1499999999921,
            "value": 0.5590551181102362
          },
          {
            "number": 7,
            "time": 120.1549999999921,
            "value": 0.5590551181102362
          },
          {
            "number": 7,
            "time": 120.1599999999921,
            "value": 0.5590551181102362
          },
          {
            "number": 7,
            "time": 120.16499999999209,
            "value": 0.5590551181102362
          },
          {
            "number": 7,
            "time": 120.16999999999209,
            "value": 0.5511811023622047
          },
          {
            "number": 7,
            "time": 120.17499999999208,
            "value": 0.5511811023622047
          },
          {
            "number": 7,
            "time": 120.17999999999208,
            "value": 0.5511811023622047
          },
          {
            "number": 7,
            "time": 120.18499999999207,
            "value": 0.5511811023622047
          },
          {
            "number": 7,
            "time": 120.18999999999207,
            "value": 0.5511811023622047
          },
          {
            "number": 7,
            "time": 120.19499999999206,
            "value": 0.5511811023622047
          },
          {
            "number": 7,
            "time": 120.19999999999206,
            "value": 0.5511811023622047
          },
          {
            "number": 7,
            "time": 120.20499999999205,
            "value": 0.5511811023622047
          },
          {
            "number": 7,
            "time": 120.20999999999205,
            "value": 0.5511811023622047
          },
          {
            "number": 7,
            "time": 120.21499999999205,
            "value": 0.5511811023622047
          },
          {
            "number": 7,
            "time": 120.21999999999204,
            "value": 0.5511811023622047
          },
          {
            "number": 7,
            "time": 120.22499999999204,
            "value": 0.5511811023622047
          },
          {
            "number": 7,
            "time": 120.22999999999203,
            "value": 0.5511811023622047
          },
          {
            "number": 7,
            "time": 120.23499999999203,
            "value": 0.5511811023622047
          },
          {
            "number": 7,
            "time": 120.23999999999202,
            "value": 0.5511811023622047
          },
          {
            "number": 7,
            "time": 120.24499999999202,
            "value": 0.5511811023622047
          },
          {
            "number": 7,
            "time": 120.24999999999201,
            "value": 0.5511811023622047
          },
          {
            "number": 7,
            "time": 120.25499999999201,
            "value": 0.5511811023622047
          },
          {
            "number": 7,
            "time": 120.259999999992,
            "value": 0.5511811023622047
          },
          {
            "number": 7,
            "time": 120.264999999992,
            "value": 0.5511811023622047
          },
          {
            "number": 7,
            "time": 120.269999999992,
            "value": 0.5511811023622047
          },
          {
            "number": 7,
            "time": 120.27499999999199,
            "value": 0.5511811023622047
          },
          {
            "number": 7,
            "time": 120.27999999999199,
            "value": 0.5511811023622047
          },
          {
            "number": 7,
            "time": 120.28499999999198,
            "value": 0.5511811023622047
          },
          {
            "number": 7,
            "time": 120.28999999999198,
            "value": 0.5511811023622047
          },
          {
            "number": 7,
            "time": 120.29499999999197,
            "value": 0.5511811023622047
          },
          {
            "number": 7,
            "time": 120.29999999999197,
            "value": 0.5511811023622047
          },
          {
            "number": 7,
            "time": 120.30499999999196,
            "value": 0.5511811023622047
          },
          {
            "number": 7,
            "time": 120.30999999999196,
            "value": 0.5511811023622047
          },
          {
            "number": 7,
            "time": 120.31499999999195,
            "value": 0.5511811023622047
          },
          {
            "number": 7,
            "time": 120.31999999999195,
            "value": 0.5433070866141733
          },
          {
            "number": 7,
            "time": 120.32499999999195,
            "value": 0.5433070866141733
          },
          {
            "number": 7,
            "time": 120.32999999999194,
            "value": 0.5433070866141733
          },
          {
            "number": 7,
            "time": 120.33499999999194,
            "value": 0.5433070866141733
          },
          {
            "number": 7,
            "time": 120.33999999999193,
            "value": 0.5433070866141733
          },
          {
            "number": 7,
            "time": 120.34499999999193,
            "value": 0.5433070866141733
          },
          {
            "number": 7,
            "time": 120.34999999999192,
            "value": 0.5433070866141733
          },
          {
            "number": 7,
            "time": 120.35499999999192,
            "value": 0.5433070866141733
          },
          {
            "number": 7,
            "time": 120.35999999999191,
            "value": 0.5433070866141733
          },
          {
            "number": 7,
            "time": 120.36499999999191,
            "value": 0.5433070866141733
          },
          {
            "number": 7,
            "time": 120.3699999999919,
            "value": 0.5433070866141733
          },
          {
            "number": 7,
            "time": 120.3749999999919,
            "value": 0.5433070866141733
          },
          {
            "number": 7,
            "time": 120.3799999999919,
            "value": 0.5433070866141733
          },
          {
            "number": 7,
            "time": 120.38499999999189,
            "value": 0.5433070866141733
          },
          {
            "number": 7,
            "time": 120.38999999999189,
            "value": 0.5433070866141733
          },
          {
            "number": 7,
            "time": 120.39499999999188,
            "value": 0.5433070866141733
          },
          {
            "number": 7,
            "time": 120.39999999999188,
            "value": 0.5433070866141733
          },
          {
            "number": 7,
            "time": 120.40499999999187,
            "value": 0.5433070866141733
          },
          {
            "number": 7,
            "time": 120.40999999999187,
            "value": 0.5433070866141733
          },
          {
            "number": 7,
            "time": 120.41499999999186,
            "value": 0.5433070866141733
          },
          {
            "number": 7,
            "time": 120.41999999999186,
            "value": 0.5433070866141733
          },
          {
            "number": 7,
            "time": 120.42499999999185,
            "value": 0.5433070866141733
          },
          {
            "number": 7,
            "time": 120.42999999999185,
            "value": 0.5433070866141733
          },
          {
            "number": 7,
            "time": 120.43499999999185,
            "value": 0.5433070866141733
          },
          {
            "number": 7,
            "time": 120.43999999999184,
            "value": 0.5433070866141733
          },
          {
            "number": 7,
            "time": 120.44499999999184,
            "value": 0.5433070866141733
          },
          {
            "number": 7,
            "time": 120.44999999999183,
            "value": 0.5433070866141733
          },
          {
            "number": 7,
            "time": 120.45499999999183,
            "value": 0.5433070866141733
          },
          {
            "number": 7,
            "time": 120.45999999999182,
            "value": 0.5433070866141733
          },
          {
            "number": 7,
            "time": 120.46499999999182,
            "value": 0.5354330708661418
          },
          {
            "number": 7,
            "time": 120.46999999999181,
            "value": 0.5354330708661418
          },
          {
            "number": 7,
            "time": 120.47499999999181,
            "value": 0.5354330708661418
          },
          {
            "number": 7,
            "time": 120.4799999999918,
            "value": 0.5354330708661418
          },
          {
            "number": 7,
            "time": 120.4849999999918,
            "value": 0.5354330708661418
          },
          {
            "number": 7,
            "time": 120.4899999999918,
            "value": 0.5354330708661418
          },
          {
            "number": 7,
            "time": 120.49499999999179,
            "value": 0.5354330708661418
          },
          {
            "number": 7,
            "time": 120.49999999999179,
            "value": 0.5354330708661418
          },
          {
            "number": 7,
            "time": 120.50499999999178,
            "value": 0.5354330708661418
          },
          {
            "number": 7,
            "time": 120.50999999999178,
            "value": 0.5354330708661418
          },
          {
            "number": 7,
            "time": 120.51499999999177,
            "value": 0.5354330708661418
          },
          {
            "number": 7,
            "time": 120.51999999999177,
            "value": 0.5354330708661418
          },
          {
            "number": 7,
            "time": 120.52499999999176,
            "value": 0.5354330708661418
          },
          {
            "number": 7,
            "time": 120.52999999999176,
            "value": 0.5354330708661418
          },
          {
            "number": 7,
            "time": 120.53499999999175,
            "value": 0.5354330708661418
          },
          {
            "number": 7,
            "time": 120.53999999999175,
            "value": 0.5354330708661418
          },
          {
            "number": 7,
            "time": 120.54499999999175,
            "value": 0.5354330708661418
          },
          {
            "number": 7,
            "time": 120.54999999999174,
            "value": 0.5354330708661418
          },
          {
            "number": 7,
            "time": 120.55499999999174,
            "value": 0.5354330708661418
          },
          {
            "number": 7,
            "time": 120.55999999999173,
            "value": 0.5354330708661418
          },
          {
            "number": 7,
            "time": 120.56499999999173,
            "value": 0.5354330708661418
          },
          {
            "number": 7,
            "time": 120.56999999999172,
            "value": 0.5354330708661418
          },
          {
            "number": 7,
            "time": 120.57499999999172,
            "value": 0.5354330708661418
          },
          {
            "number": 7,
            "time": 120.57999999999171,
            "value": 0.5354330708661418
          },
          {
            "number": 7,
            "time": 120.58499999999171,
            "value": 0.5354330708661418
          },
          {
            "number": 7,
            "time": 120.5899999999917,
            "value": 0.5354330708661418
          },
          {
            "number": 7,
            "time": 120.5949999999917,
            "value": 0.5354330708661418
          },
          {
            "number": 7,
            "time": 120.5999999999917,
            "value": 0.5354330708661418
          },
          {
            "number": 7,
            "time": 120.60499999999169,
            "value": 0.5354330708661418
          },
          {
            "number": 7,
            "time": 120.60999999999169,
            "value": 0.5354330708661418
          },
          {
            "number": 7,
            "time": 120.61499999999168,
            "value": 0.5275590551181102
          },
          {
            "number": 7,
            "time": 120.61999999999168,
            "value": 0.5275590551181102
          },
          {
            "number": 7,
            "time": 120.62499999999167,
            "value": 0.5275590551181102
          },
          {
            "number": 7,
            "time": 120.62999999999167,
            "value": 0.5275590551181102
          },
          {
            "number": 7,
            "time": 120.63499999999166,
            "value": 0.5275590551181102
          },
          {
            "number": 7,
            "time": 120.63999999999166,
            "value": 0.5275590551181102
          },
          {
            "number": 7,
            "time": 120.64499999999165,
            "value": 0.5275590551181102
          },
          {
            "number": 7,
            "time": 120.64999999999165,
            "value": 0.5275590551181102
          },
          {
            "number": 7,
            "time": 120.65499999999165,
            "value": 0.5275590551181102
          },
          {
            "number": 7,
            "time": 120.65999999999164,
            "value": 0.5275590551181102
          },
          {
            "number": 7,
            "time": 120.66499999999164,
            "value": 0.5275590551181102
          },
          {
            "number": 7,
            "time": 120.66999999999163,
            "value": 0.5275590551181102
          },
          {
            "number": 7,
            "time": 120.67499999999163,
            "value": 0.5275590551181102
          },
          {
            "number": 7,
            "time": 120.67999999999162,
            "value": 0.5275590551181102
          },
          {
            "number": 7,
            "time": 120.68499999999162,
            "value": 0.5275590551181102
          },
          {
            "number": 7,
            "time": 120.68999999999161,
            "value": 0.5275590551181102
          },
          {
            "number": 7,
            "time": 120.69499999999161,
            "value": 0.5275590551181102
          },
          {
            "number": 7,
            "time": 120.6999999999916,
            "value": 0.5275590551181102
          },
          {
            "number": 7,
            "time": 120.7049999999916,
            "value": 0.5275590551181102
          },
          {
            "number": 7,
            "time": 120.7099999999916,
            "value": 0.5275590551181102
          },
          {
            "number": 7,
            "time": 120.71499999999159,
            "value": 0.5275590551181102
          },
          {
            "number": 7,
            "time": 120.71999999999159,
            "value": 0.5275590551181102
          },
          {
            "number": 7,
            "time": 120.72499999999158,
            "value": 0.5275590551181102
          },
          {
            "number": 7,
            "time": 120.72999999999158,
            "value": 0.5275590551181102
          },
          {
            "number": 7,
            "time": 120.73499999999157,
            "value": 0.5275590551181102
          },
          {
            "number": 7,
            "time": 120.73999999999157,
            "value": 0.5275590551181102
          },
          {
            "number": 7,
            "time": 120.74499999999156,
            "value": 0.5275590551181102
          },
          {
            "number": 7,
            "time": 120.74999999999156,
            "value": 0.5275590551181102
          },
          {
            "number": 7,
            "time": 120.75499999999155,
            "value": 0.5275590551181102
          },
          {
            "number": 7,
            "time": 120.75999999999155,
            "value": 0.5196850393700787
          },
          {
            "number": 7,
            "time": 120.76499999999155,
            "value": 0.5196850393700787
          },
          {
            "number": 7,
            "time": 120.76999999999154,
            "value": 0.5196850393700787
          },
          {
            "number": 7,
            "time": 120.77499999999154,
            "value": 0.5196850393700787
          },
          {
            "number": 7,
            "time": 120.77999999999153,
            "value": 0.5196850393700787
          },
          {
            "number": 7,
            "time": 120.78499999999153,
            "value": 0.5196850393700787
          },
          {
            "number": 7,
            "time": 120.78999999999152,
            "value": 0.5196850393700787
          },
          {
            "number": 7,
            "time": 120.79499999999152,
            "value": 0.5196850393700787
          },
          {
            "number": 7,
            "time": 120.79999999999151,
            "value": 0.5196850393700787
          },
          {
            "number": 7,
            "time": 120.80499999999151,
            "value": 0.5196850393700787
          },
          {
            "number": 7,
            "time": 120.8099999999915,
            "value": 0.5196850393700787
          },
          {
            "number": 7,
            "time": 120.8149999999915,
            "value": 0.5196850393700787
          },
          {
            "number": 7,
            "time": 120.8199999999915,
            "value": 0.5196850393700787
          },
          {
            "number": 7,
            "time": 120.82499999999149,
            "value": 0.5196850393700787
          },
          {
            "number": 7,
            "time": 120.82999999999149,
            "value": 0.5196850393700787
          },
          {
            "number": 7,
            "time": 120.83499999999148,
            "value": 0.5196850393700787
          },
          {
            "number": 7,
            "time": 120.83999999999148,
            "value": 0.5196850393700787
          },
          {
            "number": 7,
            "time": 120.84499999999147,
            "value": 0.5196850393700787
          },
          {
            "number": 7,
            "time": 120.84999999999147,
            "value": 0.5196850393700787
          },
          {
            "number": 7,
            "time": 120.85499999999146,
            "value": 0.5196850393700787
          },
          {
            "number": 7,
            "time": 120.85999999999146,
            "value": 0.5196850393700787
          },
          {
            "number": 7,
            "time": 120.86499999999145,
            "value": 0.5196850393700787
          },
          {
            "number": 7,
            "time": 120.86999999999145,
            "value": 0.5196850393700787
          },
          {
            "number": 7,
            "time": 120.87499999999145,
            "value": 0.5196850393700787
          },
          {
            "number": 7,
            "time": 120.87999999999144,
            "value": 0.5196850393700787
          },
          {
            "number": 7,
            "time": 120.88499999999144,
            "value": 0.5196850393700787
          },
          {
            "number": 7,
            "time": 120.88999999999143,
            "value": 0.5196850393700787
          },
          {
            "number": 7,
            "time": 120.89499999999143,
            "value": 0.5196850393700787
          },
          {
            "number": 7,
            "time": 120.89999999999142,
            "value": 0.5196850393700787
          },
          {
            "number": 7,
            "time": 120.90499999999142,
            "value": 0.5196850393700787
          },
          {
            "number": 7,
            "time": 120.90999999999141,
            "value": 0.5118110236220472
          },
          {
            "number": 7,
            "time": 120.91499999999141,
            "value": 0.5118110236220472
          },
          {
            "number": 7,
            "time": 120.9199999999914,
            "value": 0.5118110236220472
          },
          {
            "number": 7,
            "time": 120.9249999999914,
            "value": 0.5118110236220472
          },
          {
            "number": 7,
            "time": 120.9299999999914,
            "value": 0.5118110236220472
          },
          {
            "number": 7,
            "time": 120.93499999999139,
            "value": 0.5118110236220472
          },
          {
            "number": 7,
            "time": 120.93999999999139,
            "value": 0.5118110236220472
          },
          {
            "number": 7,
            "time": 120.94499999999138,
            "value": 0.5118110236220472
          },
          {
            "number": 7,
            "time": 120.94999999999138,
            "value": 0.5118110236220472
          },
          {
            "number": 7,
            "time": 120.95499999999137,
            "value": 0.5118110236220472
          },
          {
            "number": 7,
            "time": 120.95999999999137,
            "value": 0.5118110236220472
          },
          {
            "number": 7,
            "time": 120.96499999999136,
            "value": 0.5118110236220472
          },
          {
            "number": 7,
            "time": 120.96999999999136,
            "value": 0.5118110236220472
          },
          {
            "number": 7,
            "time": 120.97499999999135,
            "value": 0.5118110236220472
          },
          {
            "number": 7,
            "time": 120.97999999999135,
            "value": 0.5118110236220472
          },
          {
            "number": 7,
            "time": 120.98499999999135,
            "value": 0.5118110236220472
          },
          {
            "number": 7,
            "time": 120.98999999999134,
            "value": 0.5118110236220472
          },
          {
            "number": 7,
            "time": 120.99499999999134,
            "value": 0.5118110236220472
          },
          {
            "number": 7,
            "time": 120.99999999999133,
            "value": 0.5118110236220472
          },
          {
            "number": 7,
            "time": 121.00499999999133,
            "value": 0.5118110236220472
          },
          {
            "number": 7,
            "time": 121.00999999999132,
            "value": 0.5118110236220472
          },
          {
            "number": 7,
            "time": 121.01499999999132,
            "value": 0.5118110236220472
          },
          {
            "number": 7,
            "time": 121.01999999999131,
            "value": 0.5118110236220472
          },
          {
            "number": 7,
            "time": 121.02499999999131,
            "value": 0.5118110236220472
          },
          {
            "number": 7,
            "time": 121.0299999999913,
            "value": 0.5118110236220472
          },
          {
            "number": 7,
            "time": 121.0349999999913,
            "value": 0.5118110236220472
          },
          {
            "number": 7,
            "time": 121.0399999999913,
            "value": 0.5118110236220472
          },
          {
            "number": 7,
            "time": 121.04499999999129,
            "value": 0.5118110236220472
          },
          {
            "number": 7,
            "time": 121.04999999999129,
            "value": 0.5118110236220472
          },
          {
            "number": 7,
            "time": 121.05499999999128,
            "value": 0.5039370078740157
          },
          {
            "number": 7,
            "time": 121.05999999999128,
            "value": 0.5039370078740157
          },
          {
            "number": 7,
            "time": 121.06499999999127,
            "value": 0.5039370078740157
          },
          {
            "number": 7,
            "time": 121.06999999999127,
            "value": 0.5039370078740157
          },
          {
            "number": 7,
            "time": 121.07499999999126,
            "value": 0.5039370078740157
          },
          {
            "number": 7,
            "time": 121.07999999999126,
            "value": 0.5039370078740157
          },
          {
            "number": 7,
            "time": 121.08499999999125,
            "value": 0.5039370078740157
          },
          {
            "number": 7,
            "time": 121.08999999999125,
            "value": 0.5039370078740157
          },
          {
            "number": 7,
            "time": 121.09499999999124,
            "value": 0.5039370078740157
          },
          {
            "number": 7,
            "time": 121.09999999999124,
            "value": 0.5039370078740157
          },
          {
            "number": 7,
            "time": 121.10499999999124,
            "value": 0.5039370078740157
          },
          {
            "number": 7,
            "time": 121.10999999999123,
            "value": 0.5039370078740157
          },
          {
            "number": 7,
            "time": 121.11499999999123,
            "value": 0.5039370078740157
          },
          {
            "number": 7,
            "time": 121.11999999999122,
            "value": 0.5039370078740157
          },
          {
            "number": 7,
            "time": 121.12499999999122,
            "value": 0.5039370078740157
          },
          {
            "number": 7,
            "time": 121.12999999999121,
            "value": 0.5039370078740157
          },
          {
            "number": 7,
            "time": 121.13499999999121,
            "value": 0.5039370078740157
          },
          {
            "number": 7,
            "time": 121.1399999999912,
            "value": 0.5039370078740157
          },
          {
            "number": 7,
            "time": 121.1449999999912,
            "value": 0.5039370078740157
          },
          {
            "number": 7,
            "time": 121.1499999999912,
            "value": 0.5039370078740157
          },
          {
            "number": 7,
            "time": 121.15499999999119,
            "value": 0.5039370078740157
          },
          {
            "number": 7,
            "time": 121.15999999999119,
            "value": 0.5039370078740157
          },
          {
            "number": 7,
            "time": 121.16499999999118,
            "value": 0.5039370078740157
          },
          {
            "number": 7,
            "time": 121.16999999999118,
            "value": 0.5039370078740157
          },
          {
            "number": 7,
            "time": 121.17499999999117,
            "value": 0.5039370078740157
          },
          {
            "number": 7,
            "time": 121.17999999999117,
            "value": 0.5039370078740157
          },
          {
            "number": 7,
            "time": 121.18499999999116,
            "value": 0.5039370078740157
          },
          {
            "number": 7,
            "time": 121.18999999999116,
            "value": 0.5039370078740157
          },
          {
            "number": 7,
            "time": 121.19499999999115,
            "value": 0.5039370078740157
          },
          {
            "number": 7,
            "time": 121.19999999999115,
            "value": 0.5039370078740157
          },
          {
            "number": 7,
            "time": 121.20499999999114,
            "value": 0.49606299212598426
          },
          {
            "number": 7,
            "time": 121.20999999999114,
            "value": 0.49606299212598426
          },
          {
            "number": 7,
            "time": 121.21499999999114,
            "value": 0.49606299212598426
          },
          {
            "number": 7,
            "time": 121.21999999999113,
            "value": 0.49606299212598426
          },
          {
            "number": 7,
            "time": 121.22499999999113,
            "value": 0.49606299212598426
          },
          {
            "number": 7,
            "time": 121.22999999999112,
            "value": 0.49606299212598426
          },
          {
            "number": 7,
            "time": 121.23499999999112,
            "value": 0.49606299212598426
          },
          {
            "number": 7,
            "time": 121.23999999999111,
            "value": 0.49606299212598426
          },
          {
            "number": 7,
            "time": 121.24499999999111,
            "value": 0.49606299212598426
          },
          {
            "number": 7,
            "time": 121.2499999999911,
            "value": 0.49606299212598426
          },
          {
            "number": 7,
            "time": 121.2549999999911,
            "value": 0.49606299212598426
          },
          {
            "number": 7,
            "time": 121.2599999999911,
            "value": 0.49606299212598426
          },
          {
            "number": 7,
            "time": 121.26499999999109,
            "value": 0.49606299212598426
          },
          {
            "number": 7,
            "time": 121.26999999999109,
            "value": 0.49606299212598426
          },
          {
            "number": 7,
            "time": 121.27499999999108,
            "value": 0.49606299212598426
          },
          {
            "number": 7,
            "time": 121.27999999999108,
            "value": 0.49606299212598426
          },
          {
            "number": 7,
            "time": 121.28499999999107,
            "value": 0.49606299212598426
          },
          {
            "number": 7,
            "time": 121.28999999999107,
            "value": 0.49606299212598426
          },
          {
            "number": 7,
            "time": 121.29499999999106,
            "value": 0.49606299212598426
          },
          {
            "number": 7,
            "time": 121.29999999999106,
            "value": 0.49606299212598426
          },
          {
            "number": 7,
            "time": 121.30499999999105,
            "value": 0.49606299212598426
          },
          {
            "number": 7,
            "time": 121.30999999999105,
            "value": 0.49606299212598426
          },
          {
            "number": 7,
            "time": 121.31499999999104,
            "value": 0.49606299212598426
          },
          {
            "number": 7,
            "time": 121.31999999999104,
            "value": 0.49606299212598426
          },
          {
            "number": 7,
            "time": 121.32499999999104,
            "value": 0.49606299212598426
          },
          {
            "number": 7,
            "time": 121.32999999999103,
            "value": 0.49606299212598426
          },
          {
            "number": 7,
            "time": 121.33499999999103,
            "value": 0.49606299212598426
          },
          {
            "number": 7,
            "time": 121.33999999999102,
            "value": 0.49606299212598426
          },
          {
            "number": 7,
            "time": 121.34499999999102,
            "value": 0.49606299212598426
          },
          {
            "number": 7,
            "time": 121.34999999999101,
            "value": 0.4881889763779528
          },
          {
            "number": 7,
            "time": 121.35499999999101,
            "value": 0.4881889763779528
          },
          {
            "number": 7,
            "time": 121.359999999991,
            "value": 0.4881889763779528
          },
          {
            "number": 7,
            "time": 121.364999999991,
            "value": 0.4881889763779528
          },
          {
            "number": 7,
            "time": 121.369999999991,
            "value": 0.4881889763779528
          },
          {
            "number": 7,
            "time": 121.37499999999099,
            "value": 0.4881889763779528
          },
          {
            "number": 7,
            "time": 121.37999999999099,
            "value": 0.4881889763779528
          },
          {
            "number": 7,
            "time": 121.38499999999098,
            "value": 0.4881889763779528
          },
          {
            "number": 7,
            "time": 121.38999999999098,
            "value": 0.4881889763779528
          },
          {
            "number": 7,
            "time": 121.39499999999097,
            "value": 0.4881889763779528
          },
          {
            "number": 7,
            "time": 121.39999999999097,
            "value": 0.4881889763779528
          },
          {
            "number": 7,
            "time": 121.40499999999096,
            "value": 0.4881889763779528
          },
          {
            "number": 7,
            "time": 121.40999999999096,
            "value": 0.4881889763779528
          },
          {
            "number": 7,
            "time": 121.41499999999095,
            "value": 0.4881889763779528
          },
          {
            "number": 7,
            "time": 121.41999999999095,
            "value": 0.4881889763779528
          },
          {
            "number": 7,
            "time": 121.42499999999094,
            "value": 0.4881889763779528
          },
          {
            "number": 7,
            "time": 121.42999999999094,
            "value": 0.4881889763779528
          },
          {
            "number": 7,
            "time": 121.43499999999094,
            "value": 0.4881889763779528
          },
          {
            "number": 7,
            "time": 121.43999999999093,
            "value": 0.4881889763779528
          },
          {
            "number": 7,
            "time": 121.44499999999093,
            "value": 0.4881889763779528
          },
          {
            "number": 7,
            "time": 121.44999999999092,
            "value": 0.4881889763779528
          },
          {
            "number": 7,
            "time": 121.45499999999092,
            "value": 0.4881889763779528
          },
          {
            "number": 7,
            "time": 121.45999999999091,
            "value": 0.4881889763779528
          },
          {
            "number": 7,
            "time": 121.46499999999091,
            "value": 0.4881889763779528
          },
          {
            "number": 7,
            "time": 121.4699999999909,
            "value": 0.4881889763779528
          },
          {
            "number": 7,
            "time": 121.4749999999909,
            "value": 0.4881889763779528
          },
          {
            "number": 7,
            "time": 121.4799999999909,
            "value": 0.4881889763779528
          },
          {
            "number": 7,
            "time": 121.48499999999089,
            "value": 0.4881889763779528
          },
          {
            "number": 7,
            "time": 121.48999999999089,
            "value": 0.4881889763779528
          },
          {
            "number": 7,
            "time": 121.49499999999088,
            "value": 0.4881889763779528
          },
          {
            "number": 7,
            "time": 121.49999999999088,
            "value": 0.48031496062992124
          },
          {
            "number": 7,
            "time": 121.50499999999087,
            "value": 0.48031496062992124
          },
          {
            "number": 7,
            "time": 121.50999999999087,
            "value": 0.48031496062992124
          },
          {
            "number": 7,
            "time": 121.51499999999086,
            "value": 0.48031496062992124
          },
          {
            "number": 7,
            "time": 121.51999999999086,
            "value": 0.48031496062992124
          },
          {
            "number": 7,
            "time": 121.52499999999085,
            "value": 0.48031496062992124
          },
          {
            "number": 7,
            "time": 121.52999999999085,
            "value": 0.48031496062992124
          },
          {
            "number": 7,
            "time": 121.53499999999084,
            "value": 0.48031496062992124
          },
          {
            "number": 7,
            "time": 121.53999999999084,
            "value": 0.48031496062992124
          },
          {
            "number": 7,
            "time": 121.54499999999084,
            "value": 0.48031496062992124
          },
          {
            "number": 7,
            "time": 121.54999999999083,
            "value": 0.48031496062992124
          },
          {
            "number": 7,
            "time": 121.55499999999083,
            "value": 0.48031496062992124
          },
          {
            "number": 7,
            "time": 121.55999999999082,
            "value": 0.48031496062992124
          },
          {
            "number": 7,
            "time": 121.56499999999082,
            "value": 0.48031496062992124
          },
          {
            "number": 7,
            "time": 121.56999999999081,
            "value": 0.48031496062992124
          },
          {
            "number": 7,
            "time": 121.57499999999081,
            "value": 0.48031496062992124
          },
          {
            "number": 7,
            "time": 121.5799999999908,
            "value": 0.48031496062992124
          },
          {
            "number": 7,
            "time": 121.5849999999908,
            "value": 0.48031496062992124
          },
          {
            "number": 7,
            "time": 121.5899999999908,
            "value": 0.48031496062992124
          },
          {
            "number": 7,
            "time": 121.59499999999079,
            "value": 0.48031496062992124
          },
          {
            "number": 7,
            "time": 121.59999999999079,
            "value": 0.48031496062992124
          },
          {
            "number": 7,
            "time": 121.60499999999078,
            "value": 0.48031496062992124
          },
          {
            "number": 7,
            "time": 121.60999999999078,
            "value": 0.48031496062992124
          },
          {
            "number": 7,
            "time": 121.61499999999077,
            "value": 0.48031496062992124
          },
          {
            "number": 7,
            "time": 121.61999999999077,
            "value": 0.48031496062992124
          },
          {
            "number": 7,
            "time": 121.62499999999076,
            "value": 0.48031496062992124
          },
          {
            "number": 7,
            "time": 121.62999999999076,
            "value": 0.48031496062992124
          },
          {
            "number": 7,
            "time": 121.63499999999075,
            "value": 0.48031496062992124
          },
          {
            "number": 7,
            "time": 121.63999999999075,
            "value": 0.48031496062992124
          },
          {
            "number": 7,
            "time": 121.64499999999074,
            "value": 0.48031496062992124
          },
          {
            "number": 7,
            "time": 121.64999999999074,
            "value": 0.47244094488188976
          },
          {
            "number": 7,
            "time": 121.65499999999074,
            "value": 0.47244094488188976
          },
          {
            "number": 7,
            "time": 121.65999999999073,
            "value": 0.47244094488188976
          },
          {
            "number": 7,
            "time": 121.66499999999073,
            "value": 0.47244094488188976
          },
          {
            "number": 7,
            "time": 121.66999999999072,
            "value": 0.47244094488188976
          },
          {
            "number": 7,
            "time": 121.67499999999072,
            "value": 0.47244094488188976
          },
          {
            "number": 7,
            "time": 121.67999999999071,
            "value": 0.47244094488188976
          },
          {
            "number": 7,
            "time": 121.68499999999071,
            "value": 0.47244094488188976
          },
          {
            "number": 7,
            "time": 121.6899999999907,
            "value": 0.47244094488188976
          },
          {
            "number": 7,
            "time": 121.6949999999907,
            "value": 0.47244094488188976
          },
          {
            "number": 7,
            "time": 121.6999999999907,
            "value": 0.47244094488188976
          },
          {
            "number": 7,
            "time": 121.70499999999069,
            "value": 0.47244094488188976
          },
          {
            "number": 7,
            "time": 121.70999999999069,
            "value": 0.47244094488188976
          },
          {
            "number": 7,
            "time": 121.71499999999068,
            "value": 0.47244094488188976
          },
          {
            "number": 7,
            "time": 121.71999999999068,
            "value": 0.47244094488188976
          },
          {
            "number": 7,
            "time": 121.72499999999067,
            "value": 0.47244094488188976
          },
          {
            "number": 7,
            "time": 121.72999999999067,
            "value": 0.47244094488188976
          },
          {
            "number": 7,
            "time": 121.73499999999066,
            "value": 0.47244094488188976
          },
          {
            "number": 7,
            "time": 121.73999999999066,
            "value": 0.47244094488188976
          },
          {
            "number": 7,
            "time": 121.74499999999065,
            "value": 0.47244094488188976
          },
          {
            "number": 7,
            "time": 121.74999999999065,
            "value": 0.47244094488188976
          },
          {
            "number": 7,
            "time": 121.75499999999064,
            "value": 0.47244094488188976
          },
          {
            "number": 7,
            "time": 121.75999999999064,
            "value": 0.47244094488188976
          },
          {
            "number": 7,
            "time": 121.76499999999064,
            "value": 0.47244094488188976
          },
          {
            "number": 7,
            "time": 121.76999999999063,
            "value": 0.47244094488188976
          },
          {
            "number": 7,
            "time": 121.77499999999063,
            "value": 0.47244094488188976
          },
          {
            "number": 7,
            "time": 121.77999999999062,
            "value": 0.47244094488188976
          },
          {
            "number": 7,
            "time": 121.78499999999062,
            "value": 0.47244094488188976
          },
          {
            "number": 7,
            "time": 121.78999999999061,
            "value": 0.47244094488188976
          },
          {
            "number": 7,
            "time": 121.79499999999061,
            "value": 0.4645669291338583
          },
          {
            "number": 7,
            "time": 121.7999999999906,
            "value": 0.4645669291338583
          },
          {
            "number": 7,
            "time": 121.8049999999906,
            "value": 0.4645669291338583
          },
          {
            "number": 7,
            "time": 121.8099999999906,
            "value": 0.4645669291338583
          },
          {
            "number": 7,
            "time": 121.81499999999059,
            "value": 0.4645669291338583
          },
          {
            "number": 7,
            "time": 121.81999999999059,
            "value": 0.4645669291338583
          },
          {
            "number": 7,
            "time": 121.82499999999058,
            "value": 0.4645669291338583
          },
          {
            "number": 7,
            "time": 121.82999999999058,
            "value": 0.4645669291338583
          },
          {
            "number": 7,
            "time": 121.83499999999057,
            "value": 0.4645669291338583
          },
          {
            "number": 7,
            "time": 121.83999999999057,
            "value": 0.4645669291338583
          },
          {
            "number": 7,
            "time": 121.84499999999056,
            "value": 0.4645669291338583
          },
          {
            "number": 7,
            "time": 121.84999999999056,
            "value": 0.4645669291338583
          },
          {
            "number": 7,
            "time": 121.85499999999055,
            "value": 0.4645669291338583
          },
          {
            "number": 7,
            "time": 121.85999999999055,
            "value": 0.4645669291338583
          },
          {
            "number": 7,
            "time": 121.86499999999054,
            "value": 0.4645669291338583
          },
          {
            "number": 7,
            "time": 121.86999999999054,
            "value": 0.4645669291338583
          },
          {
            "number": 7,
            "time": 121.87499999999054,
            "value": 0.4645669291338583
          },
          {
            "number": 7,
            "time": 121.87999999999053,
            "value": 0.4645669291338583
          },
          {
            "number": 7,
            "time": 121.88499999999053,
            "value": 0.4645669291338583
          },
          {
            "number": 7,
            "time": 121.88999999999052,
            "value": 0.4645669291338583
          },
          {
            "number": 7,
            "time": 121.89499999999052,
            "value": 0.4645669291338583
          },
          {
            "number": 7,
            "time": 121.89999999999051,
            "value": 0.4645669291338583
          },
          {
            "number": 7,
            "time": 121.90499999999051,
            "value": 0.4645669291338583
          },
          {
            "number": 7,
            "time": 121.9099999999905,
            "value": 0.4645669291338583
          },
          {
            "number": 7,
            "time": 121.9149999999905,
            "value": 0.4645669291338583
          },
          {
            "number": 7,
            "time": 121.9199999999905,
            "value": 0.4645669291338583
          },
          {
            "number": 7,
            "time": 121.92499999999049,
            "value": 0.4645669291338583
          },
          {
            "number": 7,
            "time": 121.92999999999049,
            "value": 0.4645669291338583
          },
          {
            "number": 7,
            "time": 121.93499999999048,
            "value": 0.4645669291338583
          },
          {
            "number": 7,
            "time": 121.93999999999048,
            "value": 0.4645669291338583
          },
          {
            "number": 7,
            "time": 121.94499999999047,
            "value": 0.4566929133858268
          },
          {
            "number": 7,
            "time": 121.94999999999047,
            "value": 0.4566929133858268
          },
          {
            "number": 7,
            "time": 121.95499999999046,
            "value": 0.4566929133858268
          },
          {
            "number": 7,
            "time": 121.95999999999046,
            "value": 0.4566929133858268
          },
          {
            "number": 7,
            "time": 121.96499999999045,
            "value": 0.4566929133858268
          },
          {
            "number": 7,
            "time": 121.96999999999045,
            "value": 0.4566929133858268
          },
          {
            "number": 7,
            "time": 121.97499999999044,
            "value": 0.4566929133858268
          },
          {
            "number": 7,
            "time": 121.97999999999044,
            "value": 0.4566929133858268
          },
          {
            "number": 7,
            "time": 121.98499999999044,
            "value": 0.4566929133858268
          },
          {
            "number": 7,
            "time": 121.98999999999043,
            "value": 0.4566929133858268
          },
          {
            "number": 7,
            "time": 121.99499999999043,
            "value": 0.4566929133858268
          },
          {
            "number": 7,
            "time": 121.99999999999042,
            "value": 0.4566929133858268
          },
          {
            "number": 7,
            "time": 122.00499999999042,
            "value": 0.4566929133858268
          },
          {
            "number": 7,
            "time": 122.00999999999041,
            "value": 0.4566929133858268
          },
          {
            "number": 7,
            "time": 122.01499999999041,
            "value": 0.4566929133858268
          },
          {
            "number": 7,
            "time": 122.0199999999904,
            "value": 0.4566929133858268
          },
          {
            "number": 7,
            "time": 122.0249999999904,
            "value": 0.4566929133858268
          },
          {
            "number": 7,
            "time": 122.0299999999904,
            "value": 0.4566929133858268
          },
          {
            "number": 7,
            "time": 122.03499999999039,
            "value": 0.4566929133858268
          },
          {
            "number": 7,
            "time": 122.03999999999039,
            "value": 0.4566929133858268
          },
          {
            "number": 7,
            "time": 122.04499999999038,
            "value": 0.4566929133858268
          },
          {
            "number": 7,
            "time": 122.04999999999038,
            "value": 0.4566929133858268
          },
          {
            "number": 7,
            "time": 122.05499999999037,
            "value": 0.4566929133858268
          },
          {
            "number": 7,
            "time": 122.05999999999037,
            "value": 0.4566929133858268
          },
          {
            "number": 7,
            "time": 122.06499999999036,
            "value": 0.4566929133858268
          },
          {
            "number": 7,
            "time": 122.06999999999036,
            "value": 0.4566929133858268
          },
          {
            "number": 7,
            "time": 122.07499999999035,
            "value": 0.4566929133858268
          },
          {
            "number": 7,
            "time": 122.07999999999035,
            "value": 0.4566929133858268
          },
          {
            "number": 7,
            "time": 122.08499999999034,
            "value": 0.4566929133858268
          },
          {
            "number": 7,
            "time": 122.08999999999034,
            "value": 0.44881889763779526
          },
          {
            "number": 7,
            "time": 122.09499999999034,
            "value": 0.44881889763779526
          },
          {
            "number": 7,
            "time": 122.09999999999033,
            "value": 0.44881889763779526
          },
          {
            "number": 7,
            "time": 122.10499999999033,
            "value": 0.44881889763779526
          },
          {
            "number": 7,
            "time": 122.10999999999032,
            "value": 0.44881889763779526
          },
          {
            "number": 7,
            "time": 122.11499999999032,
            "value": 0.44881889763779526
          },
          {
            "number": 7,
            "time": 122.11999999999031,
            "value": 0.44881889763779526
          },
          {
            "number": 7,
            "time": 122.12499999999031,
            "value": 0.44881889763779526
          },
          {
            "number": 7,
            "time": 122.1299999999903,
            "value": 0.44881889763779526
          },
          {
            "number": 7,
            "time": 122.1349999999903,
            "value": 0.44881889763779526
          },
          {
            "number": 7,
            "time": 122.1399999999903,
            "value": 0.44881889763779526
          },
          {
            "number": 7,
            "time": 122.14499999999029,
            "value": 0.44881889763779526
          },
          {
            "number": 7,
            "time": 122.14999999999029,
            "value": 0.44881889763779526
          },
          {
            "number": 7,
            "time": 122.15499999999028,
            "value": 0.44881889763779526
          },
          {
            "number": 7,
            "time": 122.15999999999028,
            "value": 0.44881889763779526
          },
          {
            "number": 7,
            "time": 122.16499999999027,
            "value": 0.44881889763779526
          },
          {
            "number": 7,
            "time": 122.16999999999027,
            "value": 0.44881889763779526
          },
          {
            "number": 7,
            "time": 122.17499999999026,
            "value": 0.44881889763779526
          },
          {
            "number": 7,
            "time": 122.17999999999026,
            "value": 0.44881889763779526
          },
          {
            "number": 7,
            "time": 122.18499999999025,
            "value": 0.44881889763779526
          },
          {
            "number": 7,
            "time": 122.18999999999025,
            "value": 0.44881889763779526
          },
          {
            "number": 7,
            "time": 122.19499999999024,
            "value": 0.44881889763779526
          },
          {
            "number": 7,
            "time": 122.19999999999024,
            "value": 0.44881889763779526
          },
          {
            "number": 7,
            "time": 122.20499999999024,
            "value": 0.44881889763779526
          },
          {
            "number": 7,
            "time": 122.20999999999023,
            "value": 0.44881889763779526
          },
          {
            "number": 7,
            "time": 122.21499999999023,
            "value": 0.44881889763779526
          },
          {
            "number": 7,
            "time": 122.21999999999022,
            "value": 0.44881889763779526
          },
          {
            "number": 7,
            "time": 122.22499999999022,
            "value": 0.44881889763779526
          },
          {
            "number": 7,
            "time": 122.22999999999021,
            "value": 0.44881889763779526
          },
          {
            "number": 7,
            "time": 122.23499999999021,
            "value": 0.44881889763779526
          },
          {
            "number": 7,
            "time": 122.2399999999902,
            "value": 0.4409448818897638
          },
          {
            "number": 7,
            "time": 122.2449999999902,
            "value": 0.4409448818897638
          },
          {
            "number": 7,
            "time": 122.2499999999902,
            "value": 0.4409448818897638
          },
          {
            "number": 7,
            "time": 122.25499999999019,
            "value": 0.4409448818897638
          },
          {
            "number": 7,
            "time": 122.25999999999019,
            "value": 0.4409448818897638
          },
          {
            "number": 7,
            "time": 122.26499999999018,
            "value": 0.4409448818897638
          },
          {
            "number": 7,
            "time": 122.26999999999018,
            "value": 0.4409448818897638
          },
          {
            "number": 7,
            "time": 122.27499999999017,
            "value": 0.4409448818897638
          },
          {
            "number": 7,
            "time": 122.27999999999017,
            "value": 0.4409448818897638
          },
          {
            "number": 7,
            "time": 122.28499999999016,
            "value": 0.4409448818897638
          },
          {
            "number": 7,
            "time": 122.28999999999016,
            "value": 0.4409448818897638
          },
          {
            "number": 7,
            "time": 122.29499999999015,
            "value": 0.4409448818897638
          },
          {
            "number": 7,
            "time": 122.29999999999015,
            "value": 0.4409448818897638
          },
          {
            "number": 7,
            "time": 122.30499999999014,
            "value": 0.4409448818897638
          },
          {
            "number": 7,
            "time": 122.30999999999014,
            "value": 0.4409448818897638
          },
          {
            "number": 7,
            "time": 122.31499999999014,
            "value": 0.4409448818897638
          },
          {
            "number": 7,
            "time": 122.31999999999013,
            "value": 0.4409448818897638
          },
          {
            "number": 7,
            "time": 122.32499999999013,
            "value": 0.4409448818897638
          },
          {
            "number": 7,
            "time": 122.32999999999012,
            "value": 0.4409448818897638
          },
          {
            "number": 7,
            "time": 122.33499999999012,
            "value": 0.4409448818897638
          },
          {
            "number": 7,
            "time": 122.33999999999011,
            "value": 0.4409448818897638
          },
          {
            "number": 7,
            "time": 122.34499999999011,
            "value": 0.4409448818897638
          },
          {
            "number": 7,
            "time": 122.3499999999901,
            "value": 0.4409448818897638
          },
          {
            "number": 7,
            "time": 122.3549999999901,
            "value": 0.4409448818897638
          },
          {
            "number": 7,
            "time": 122.3599999999901,
            "value": 0.4409448818897638
          },
          {
            "number": 7,
            "time": 122.36499999999009,
            "value": 0.4409448818897638
          },
          {
            "number": 7,
            "time": 122.36999999999009,
            "value": 0.4409448818897638
          },
          {
            "number": 7,
            "time": 122.37499999999008,
            "value": 0.4409448818897638
          },
          {
            "number": 7,
            "time": 122.37999999999008,
            "value": 0.4409448818897638
          },
          {
            "number": 7,
            "time": 122.38499999999007,
            "value": 0.4330708661417323
          },
          {
            "number": 7,
            "time": 122.38999999999007,
            "value": 0.4330708661417323
          },
          {
            "number": 7,
            "time": 122.39499999999006,
            "value": 0.4330708661417323
          },
          {
            "number": 7,
            "time": 122.39999999999006,
            "value": 0.4330708661417323
          },
          {
            "number": 7,
            "time": 122.40499999999005,
            "value": 0.4330708661417323
          },
          {
            "number": 7,
            "time": 122.40999999999005,
            "value": 0.4330708661417323
          },
          {
            "number": 7,
            "time": 122.41499999999004,
            "value": 0.4330708661417323
          },
          {
            "number": 7,
            "time": 122.41999999999004,
            "value": 0.4330708661417323
          },
          {
            "number": 7,
            "time": 122.42499999999004,
            "value": 0.4330708661417323
          },
          {
            "number": 7,
            "time": 122.42999999999003,
            "value": 0.4330708661417323
          },
          {
            "number": 7,
            "time": 122.43499999999003,
            "value": 0.4330708661417323
          },
          {
            "number": 7,
            "time": 122.43999999999002,
            "value": 0.4330708661417323
          },
          {
            "number": 7,
            "time": 122.44499999999002,
            "value": 0.4330708661417323
          },
          {
            "number": 7,
            "time": 122.44999999999001,
            "value": 0.4330708661417323
          },
          {
            "number": 7,
            "time": 122.45499999999001,
            "value": 0.4330708661417323
          },
          {
            "number": 7,
            "time": 122.45999999999,
            "value": 0.4330708661417323
          },
          {
            "number": 7,
            "time": 122.46499999999,
            "value": 0.4330708661417323
          },
          {
            "number": 7,
            "time": 122.46999999999,
            "value": 0.4330708661417323
          },
          {
            "number": 7,
            "time": 122.47499999998999,
            "value": 0.4330708661417323
          },
          {
            "number": 7,
            "time": 122.47999999998999,
            "value": 0.4330708661417323
          },
          {
            "number": 7,
            "time": 122.48499999998998,
            "value": 0.4330708661417323
          },
          {
            "number": 7,
            "time": 122.48999999998998,
            "value": 0.4330708661417323
          },
          {
            "number": 7,
            "time": 122.49499999998997,
            "value": 0.4330708661417323
          },
          {
            "number": 7,
            "time": 122.49999999998997,
            "value": 0.4330708661417323
          },
          {
            "number": 7,
            "time": 122.50499999998996,
            "value": 0.4330708661417323
          },
          {
            "number": 7,
            "time": 122.50999999998996,
            "value": 0.4330708661417323
          },
          {
            "number": 7,
            "time": 122.51499999998995,
            "value": 0.4330708661417323
          },
          {
            "number": 7,
            "time": 122.51999999998995,
            "value": 0.4330708661417323
          },
          {
            "number": 7,
            "time": 122.52499999998994,
            "value": 0.4330708661417323
          },
          {
            "number": 7,
            "time": 122.52999999998994,
            "value": 0.4330708661417323
          },
          {
            "number": 7,
            "time": 122.53499999998994,
            "value": 0.4251968503937008
          },
          {
            "number": 7,
            "time": 122.53999999998993,
            "value": 0.4251968503937008
          },
          {
            "number": 7,
            "time": 122.54499999998993,
            "value": 0.4251968503937008
          },
          {
            "number": 7,
            "time": 122.54999999998992,
            "value": 0.4251968503937008
          },
          {
            "number": 7,
            "time": 122.55499999998992,
            "value": 0.4251968503937008
          },
          {
            "number": 7,
            "time": 122.55999999998991,
            "value": 0.4251968503937008
          },
          {
            "number": 7,
            "time": 122.56499999998991,
            "value": 0.4251968503937008
          },
          {
            "number": 7,
            "time": 122.5699999999899,
            "value": 0.4251968503937008
          },
          {
            "number": 7,
            "time": 122.5749999999899,
            "value": 0.4251968503937008
          },
          {
            "number": 7,
            "time": 122.5799999999899,
            "value": 0.4251968503937008
          },
          {
            "number": 7,
            "time": 122.58499999998989,
            "value": 0.4251968503937008
          },
          {
            "number": 7,
            "time": 122.58999999998989,
            "value": 0.4251968503937008
          },
          {
            "number": 7,
            "time": 122.59499999998988,
            "value": 0.4251968503937008
          },
          {
            "number": 7,
            "time": 122.59999999998988,
            "value": 0.4251968503937008
          },
          {
            "number": 7,
            "time": 122.60499999998987,
            "value": 0.4251968503937008
          },
          {
            "number": 7,
            "time": 122.60999999998987,
            "value": 0.4251968503937008
          },
          {
            "number": 7,
            "time": 122.61499999998986,
            "value": 0.4251968503937008
          },
          {
            "number": 7,
            "time": 122.61999999998986,
            "value": 0.4251968503937008
          },
          {
            "number": 7,
            "time": 122.62499999998985,
            "value": 0.4251968503937008
          },
          {
            "number": 7,
            "time": 122.62999999998985,
            "value": 0.4251968503937008
          },
          {
            "number": 7,
            "time": 122.63499999998984,
            "value": 0.4251968503937008
          },
          {
            "number": 7,
            "time": 122.63999999998984,
            "value": 0.4251968503937008
          },
          {
            "number": 7,
            "time": 122.64499999998984,
            "value": 0.4251968503937008
          },
          {
            "number": 7,
            "time": 122.64999999998983,
            "value": 0.4251968503937008
          },
          {
            "number": 7,
            "time": 122.65499999998983,
            "value": 0.4251968503937008
          },
          {
            "number": 7,
            "time": 122.65999999998982,
            "value": 0.4251968503937008
          },
          {
            "number": 7,
            "time": 122.66499999998982,
            "value": 0.4251968503937008
          },
          {
            "number": 7,
            "time": 122.66999999998981,
            "value": 0.4251968503937008
          },
          {
            "number": 7,
            "time": 122.67499999998981,
            "value": 0.4251968503937008
          },
          {
            "number": 7,
            "time": 122.6799999999898,
            "value": 0.4251968503937008
          },
          {
            "number": 7,
            "time": 122.6849999999898,
            "value": 0.41732283464566927
          },
          {
            "number": 7,
            "time": 122.6899999999898,
            "value": 0.41732283464566927
          },
          {
            "number": 7,
            "time": 122.69499999998979,
            "value": 0.41732283464566927
          },
          {
            "number": 7,
            "time": 122.69999999998979,
            "value": 0.41732283464566927
          },
          {
            "number": 7,
            "time": 122.70499999998978,
            "value": 0.41732283464566927
          },
          {
            "number": 7,
            "time": 122.70999999998978,
            "value": 0.41732283464566927
          },
          {
            "number": 7,
            "time": 122.71499999998977,
            "value": 0.41732283464566927
          },
          {
            "number": 7,
            "time": 122.71999999998977,
            "value": 0.41732283464566927
          },
          {
            "number": 7,
            "time": 122.72499999998976,
            "value": 0.41732283464566927
          },
          {
            "number": 7,
            "time": 122.72999999998976,
            "value": 0.41732283464566927
          },
          {
            "number": 7,
            "time": 122.73499999998975,
            "value": 0.41732283464566927
          },
          {
            "number": 7,
            "time": 122.73999999998975,
            "value": 0.41732283464566927
          },
          {
            "number": 7,
            "time": 122.74499999998974,
            "value": 0.41732283464566927
          },
          {
            "number": 7,
            "time": 122.74999999998974,
            "value": 0.41732283464566927
          },
          {
            "number": 7,
            "time": 122.75499999998974,
            "value": 0.41732283464566927
          },
          {
            "number": 7,
            "time": 122.75999999998973,
            "value": 0.41732283464566927
          },
          {
            "number": 7,
            "time": 122.76499999998973,
            "value": 0.41732283464566927
          },
          {
            "number": 7,
            "time": 122.76999999998972,
            "value": 0.41732283464566927
          },
          {
            "number": 7,
            "time": 122.77499999998972,
            "value": 0.41732283464566927
          },
          {
            "number": 7,
            "time": 122.77999999998971,
            "value": 0.41732283464566927
          },
          {
            "number": 7,
            "time": 122.78499999998971,
            "value": 0.41732283464566927
          },
          {
            "number": 7,
            "time": 122.7899999999897,
            "value": 0.41732283464566927
          },
          {
            "number": 7,
            "time": 122.7949999999897,
            "value": 0.41732283464566927
          },
          {
            "number": 7,
            "time": 122.7999999999897,
            "value": 0.41732283464566927
          },
          {
            "number": 7,
            "time": 122.80499999998969,
            "value": 0.41732283464566927
          },
          {
            "number": 7,
            "time": 122.80999999998969,
            "value": 0.41732283464566927
          },
          {
            "number": 7,
            "time": 122.81499999998968,
            "value": 0.41732283464566927
          },
          {
            "number": 7,
            "time": 122.81999999998968,
            "value": 0.41732283464566927
          },
          {
            "number": 7,
            "time": 122.82499999998967,
            "value": 0.41732283464566927
          },
          {
            "number": 7,
            "time": 122.82999999998967,
            "value": 0.4094488188976378
          },
          {
            "number": 7,
            "time": 122.83499999998966,
            "value": 0.4094488188976378
          },
          {
            "number": 7,
            "time": 122.83999999998966,
            "value": 0.4094488188976378
          },
          {
            "number": 7,
            "time": 122.84499999998965,
            "value": 0.4094488188976378
          },
          {
            "number": 7,
            "time": 122.84999999998965,
            "value": 0.4094488188976378
          },
          {
            "number": 7,
            "time": 122.85499999998964,
            "value": 0.4094488188976378
          },
          {
            "number": 7,
            "time": 122.85999999998964,
            "value": 0.4094488188976378
          },
          {
            "number": 7,
            "time": 122.86499999998964,
            "value": 0.4094488188976378
          },
          {
            "number": 7,
            "time": 122.86999999998963,
            "value": 0.4094488188976378
          },
          {
            "number": 7,
            "time": 122.87499999998963,
            "value": 0.4094488188976378
          },
          {
            "number": 7,
            "time": 122.87999999998962,
            "value": 0.4094488188976378
          },
          {
            "number": 7,
            "time": 122.88499999998962,
            "value": 0.4094488188976378
          },
          {
            "number": 7,
            "time": 122.88999999998961,
            "value": 0.4094488188976378
          },
          {
            "number": 7,
            "time": 122.89499999998961,
            "value": 0.4094488188976378
          },
          {
            "number": 7,
            "time": 122.8999999999896,
            "value": 0.4094488188976378
          },
          {
            "number": 7,
            "time": 122.9049999999896,
            "value": 0.4094488188976378
          },
          {
            "number": 7,
            "time": 122.9099999999896,
            "value": 0.4094488188976378
          },
          {
            "number": 7,
            "time": 122.91499999998959,
            "value": 0.4094488188976378
          },
          {
            "number": 7,
            "time": 122.91999999998959,
            "value": 0.4094488188976378
          },
          {
            "number": 7,
            "time": 122.92499999998958,
            "value": 0.4094488188976378
          },
          {
            "number": 7,
            "time": 122.92999999998958,
            "value": 0.4094488188976378
          },
          {
            "number": 7,
            "time": 122.93499999998957,
            "value": 0.4094488188976378
          },
          {
            "number": 7,
            "time": 122.93999999998957,
            "value": 0.4094488188976378
          },
          {
            "number": 7,
            "time": 122.94499999998956,
            "value": 0.4094488188976378
          },
          {
            "number": 7,
            "time": 122.94999999998956,
            "value": 0.4094488188976378
          },
          {
            "number": 7,
            "time": 122.95499999998955,
            "value": 0.4094488188976378
          },
          {
            "number": 7,
            "time": 122.95999999998955,
            "value": 0.4094488188976378
          },
          {
            "number": 7,
            "time": 122.96499999998954,
            "value": 0.4094488188976378
          },
          {
            "number": 7,
            "time": 122.96999999998954,
            "value": 0.4094488188976378
          },
          {
            "number": 7,
            "time": 122.97499999998954,
            "value": 0.4094488188976378
          },
          {
            "number": 7,
            "time": 122.97999999998953,
            "value": 0.4015748031496063
          },
          {
            "number": 7,
            "time": 122.98499999998953,
            "value": 0.4015748031496063
          },
          {
            "number": 7,
            "time": 122.98999999998952,
            "value": 0.4015748031496063
          },
          {
            "number": 7,
            "time": 122.99499999998952,
            "value": 0.4015748031496063
          },
          {
            "number": 7,
            "time": 122.99999999998951,
            "value": 0.4015748031496063
          },
          {
            "number": 7,
            "time": 123.00499999998951,
            "value": 0.4015748031496063
          },
          {
            "number": 7,
            "time": 123.0099999999895,
            "value": 0.4015748031496063
          },
          {
            "number": 7,
            "time": 123.0149999999895,
            "value": 0.4015748031496063
          },
          {
            "number": 7,
            "time": 123.0199999999895,
            "value": 0.4015748031496063
          },
          {
            "number": 7,
            "time": 123.02499999998949,
            "value": 0.4015748031496063
          },
          {
            "number": 7,
            "time": 123.02999999998949,
            "value": 0.4015748031496063
          },
          {
            "number": 7,
            "time": 123.03499999998948,
            "value": 0.4015748031496063
          },
          {
            "number": 7,
            "time": 123.03999999998948,
            "value": 0.4015748031496063
          },
          {
            "number": 7,
            "time": 123.04499999998947,
            "value": 0.4015748031496063
          },
          {
            "number": 7,
            "time": 123.04999999998947,
            "value": 0.4015748031496063
          },
          {
            "number": 7,
            "time": 123.05499999998946,
            "value": 0.4015748031496063
          },
          {
            "number": 7,
            "time": 123.05999999998946,
            "value": 0.4015748031496063
          },
          {
            "number": 7,
            "time": 123.06499999998945,
            "value": 0.4015748031496063
          },
          {
            "number": 7,
            "time": 123.06999999998945,
            "value": 0.4015748031496063
          },
          {
            "number": 7,
            "time": 123.07499999998944,
            "value": 0.4015748031496063
          },
          {
            "number": 7,
            "time": 123.07999999998944,
            "value": 0.4015748031496063
          },
          {
            "number": 7,
            "time": 123.08499999998944,
            "value": 0.4015748031496063
          },
          {
            "number": 7,
            "time": 123.08999999998943,
            "value": 0.4015748031496063
          },
          {
            "number": 7,
            "time": 123.09499999998943,
            "value": 0.4015748031496063
          },
          {
            "number": 7,
            "time": 123.09999999998942,
            "value": 0.4015748031496063
          },
          {
            "number": 7,
            "time": 123.10499999998942,
            "value": 0.4015748031496063
          },
          {
            "number": 7,
            "time": 123.10999999998941,
            "value": 0.4015748031496063
          },
          {
            "number": 7,
            "time": 123.11499999998941,
            "value": 0.4015748031496063
          },
          {
            "number": 7,
            "time": 123.1199999999894,
            "value": 0.4015748031496063
          },
          {
            "number": 7,
            "time": 123.1249999999894,
            "value": 0.3937007874015748
          },
          {
            "number": 7,
            "time": 123.1299999999894,
            "value": 0.3937007874015748
          },
          {
            "number": 7,
            "time": 123.13499999998939,
            "value": 0.3937007874015748
          },
          {
            "number": 7,
            "time": 123.13999999998939,
            "value": 0.3937007874015748
          },
          {
            "number": 7,
            "time": 123.14499999998938,
            "value": 0.3937007874015748
          },
          {
            "number": 7,
            "time": 123.14999999998938,
            "value": 0.3937007874015748
          },
          {
            "number": 7,
            "time": 123.15499999998937,
            "value": 0.3937007874015748
          },
          {
            "number": 7,
            "time": 123.15999999998937,
            "value": 0.3937007874015748
          },
          {
            "number": 7,
            "time": 123.16499999998936,
            "value": 0.3937007874015748
          },
          {
            "number": 7,
            "time": 123.16999999998936,
            "value": 0.3937007874015748
          },
          {
            "number": 7,
            "time": 123.17499999998935,
            "value": 0.3937007874015748
          },
          {
            "number": 7,
            "time": 123.17999999998935,
            "value": 0.3937007874015748
          },
          {
            "number": 7,
            "time": 123.18499999998934,
            "value": 0.3937007874015748
          },
          {
            "number": 7,
            "time": 123.18999999998934,
            "value": 0.3937007874015748
          },
          {
            "number": 7,
            "time": 123.19499999998934,
            "value": 0.3937007874015748
          },
          {
            "number": 7,
            "time": 123.19999999998933,
            "value": 0.3937007874015748
          },
          {
            "number": 7,
            "time": 123.20499999998933,
            "value": 0.3937007874015748
          },
          {
            "number": 7,
            "time": 123.20999999998932,
            "value": 0.3937007874015748
          },
          {
            "number": 7,
            "time": 123.21499999998932,
            "value": 0.3937007874015748
          },
          {
            "number": 7,
            "time": 123.21999999998931,
            "value": 0.3937007874015748
          },
          {
            "number": 7,
            "time": 123.22499999998931,
            "value": 0.3937007874015748
          },
          {
            "number": 7,
            "time": 123.2299999999893,
            "value": 0.3937007874015748
          },
          {
            "number": 7,
            "time": 123.2349999999893,
            "value": 0.3937007874015748
          },
          {
            "number": 7,
            "time": 123.2399999999893,
            "value": 0.3937007874015748
          },
          {
            "number": 7,
            "time": 123.24499999998929,
            "value": 0.3937007874015748
          },
          {
            "number": 7,
            "time": 123.24999999998929,
            "value": 0.3937007874015748
          },
          {
            "number": 7,
            "time": 123.25499999998928,
            "value": 0.3937007874015748
          },
          {
            "number": 7,
            "time": 123.25999999998928,
            "value": 0.3937007874015748
          },
          {
            "number": 7,
            "time": 123.26499999998927,
            "value": 0.3937007874015748
          },
          {
            "number": 7,
            "time": 123.26999999998927,
            "value": 0.3937007874015748
          },
          {
            "number": 7,
            "time": 123.27499999998926,
            "value": 0.3858267716535433
          },
          {
            "number": 7,
            "time": 123.27999999998926,
            "value": 0.3858267716535433
          },
          {
            "number": 7,
            "time": 123.28499999998925,
            "value": 0.3858267716535433
          },
          {
            "number": 7,
            "time": 123.28999999998925,
            "value": 0.3858267716535433
          },
          {
            "number": 7,
            "time": 123.29499999998924,
            "value": 0.3858267716535433
          },
          {
            "number": 7,
            "time": 123.29999999998924,
            "value": 0.3858267716535433
          },
          {
            "number": 7,
            "time": 123.30499999998923,
            "value": 0.3858267716535433
          },
          {
            "number": 7,
            "time": 123.30999999998923,
            "value": 0.3858267716535433
          },
          {
            "number": 7,
            "time": 123.31499999998923,
            "value": 0.3858267716535433
          },
          {
            "number": 7,
            "time": 123.31999999998922,
            "value": 0.3858267716535433
          },
          {
            "number": 7,
            "time": 123.32499999998922,
            "value": 0.3858267716535433
          },
          {
            "number": 7,
            "time": 123.32999999998921,
            "value": 0.3858267716535433
          },
          {
            "number": 7,
            "time": 123.33499999998921,
            "value": 0.3858267716535433
          },
          {
            "number": 7,
            "time": 123.3399999999892,
            "value": 0.3858267716535433
          },
          {
            "number": 7,
            "time": 123.3449999999892,
            "value": 0.3858267716535433
          },
          {
            "number": 7,
            "time": 123.3499999999892,
            "value": 0.3858267716535433
          },
          {
            "number": 7,
            "time": 123.35499999998919,
            "value": 0.3858267716535433
          },
          {
            "number": 7,
            "time": 123.35999999998918,
            "value": 0.3858267716535433
          },
          {
            "number": 7,
            "time": 123.36499999998918,
            "value": 0.3858267716535433
          },
          {
            "number": 7,
            "time": 123.36999999998918,
            "value": 0.3858267716535433
          },
          {
            "number": 7,
            "time": 123.37499999998917,
            "value": 0.3858267716535433
          },
          {
            "number": 7,
            "time": 123.37999999998917,
            "value": 0.3858267716535433
          },
          {
            "number": 7,
            "time": 123.38499999998916,
            "value": 0.3858267716535433
          },
          {
            "number": 7,
            "time": 123.38999999998916,
            "value": 0.3858267716535433
          },
          {
            "number": 7,
            "time": 123.39499999998915,
            "value": 0.3858267716535433
          },
          {
            "number": 7,
            "time": 123.39999999998915,
            "value": 0.3858267716535433
          },
          {
            "number": 7,
            "time": 123.40499999998914,
            "value": 0.3858267716535433
          },
          {
            "number": 7,
            "time": 123.40999999998914,
            "value": 0.3858267716535433
          },
          {
            "number": 7,
            "time": 123.41499999998913,
            "value": 0.3858267716535433
          },
          {
            "number": 7,
            "time": 123.41999999998913,
            "value": 0.3779527559055118
          },
          {
            "number": 7,
            "time": 123.42499999998913,
            "value": 0.3779527559055118
          },
          {
            "number": 7,
            "time": 123.42999999998912,
            "value": 0.3779527559055118
          },
          {
            "number": 7,
            "time": 123.43499999998912,
            "value": 0.3779527559055118
          },
          {
            "number": 7,
            "time": 123.43999999998911,
            "value": 0.3779527559055118
          },
          {
            "number": 7,
            "time": 123.44499999998911,
            "value": 0.3779527559055118
          },
          {
            "number": 7,
            "time": 123.4499999999891,
            "value": 0.3779527559055118
          },
          {
            "number": 7,
            "time": 123.4549999999891,
            "value": 0.3779527559055118
          },
          {
            "number": 7,
            "time": 123.4599999999891,
            "value": 0.3779527559055118
          },
          {
            "number": 7,
            "time": 123.46499999998909,
            "value": 0.3779527559055118
          },
          {
            "number": 7,
            "time": 123.46999999998908,
            "value": 0.3779527559055118
          },
          {
            "number": 7,
            "time": 123.47499999998908,
            "value": 0.3779527559055118
          },
          {
            "number": 7,
            "time": 123.47999999998908,
            "value": 0.3779527559055118
          },
          {
            "number": 7,
            "time": 123.48499999998907,
            "value": 0.3779527559055118
          },
          {
            "number": 7,
            "time": 123.48999999998907,
            "value": 0.3779527559055118
          },
          {
            "number": 7,
            "time": 123.49499999998906,
            "value": 0.3779527559055118
          },
          {
            "number": 7,
            "time": 123.49999999998906,
            "value": 0.3779527559055118
          },
          {
            "number": 7,
            "time": 123.50499999998905,
            "value": 0.3779527559055118
          },
          {
            "number": 7,
            "time": 123.50999999998905,
            "value": 0.3779527559055118
          },
          {
            "number": 7,
            "time": 123.51499999998904,
            "value": 0.3779527559055118
          },
          {
            "number": 7,
            "time": 123.51999999998904,
            "value": 0.3779527559055118
          },
          {
            "number": 7,
            "time": 123.52499999998903,
            "value": 0.3779527559055118
          },
          {
            "number": 7,
            "time": 123.52999999998903,
            "value": 0.3779527559055118
          },
          {
            "number": 7,
            "time": 123.53499999998903,
            "value": 0.3779527559055118
          },
          {
            "number": 7,
            "time": 123.53999999998902,
            "value": 0.3779527559055118
          },
          {
            "number": 7,
            "time": 123.54499999998902,
            "value": 0.3779527559055118
          },
          {
            "number": 7,
            "time": 123.54999999998901,
            "value": 0.3779527559055118
          },
          {
            "number": 7,
            "time": 123.55499999998901,
            "value": 0.3779527559055118
          },
          {
            "number": 7,
            "time": 123.559999999989,
            "value": 0.3779527559055118
          },
          {
            "number": 7,
            "time": 123.564999999989,
            "value": 0.3779527559055118
          },
          {
            "number": 7,
            "time": 123.569999999989,
            "value": 0.3700787401574803
          },
          {
            "number": 7,
            "time": 123.57499999998899,
            "value": 0.3700787401574803
          },
          {
            "number": 7,
            "time": 123.57999999998898,
            "value": 0.3700787401574803
          },
          {
            "number": 7,
            "time": 123.58499999998898,
            "value": 0.3700787401574803
          },
          {
            "number": 7,
            "time": 123.58999999998898,
            "value": 0.3700787401574803
          },
          {
            "number": 7,
            "time": 123.59499999998897,
            "value": 0.3700787401574803
          },
          {
            "number": 7,
            "time": 123.59999999998897,
            "value": 0.3700787401574803
          },
          {
            "number": 7,
            "time": 123.60499999998896,
            "value": 0.3700787401574803
          },
          {
            "number": 7,
            "time": 123.60999999998896,
            "value": 0.3700787401574803
          },
          {
            "number": 7,
            "time": 123.61499999998895,
            "value": 0.3700787401574803
          },
          {
            "number": 7,
            "time": 123.61999999998895,
            "value": 0.3700787401574803
          },
          {
            "number": 7,
            "time": 123.62499999998894,
            "value": 0.3700787401574803
          },
          {
            "number": 7,
            "time": 123.62999999998894,
            "value": 0.3700787401574803
          },
          {
            "number": 7,
            "time": 123.63499999998893,
            "value": 0.3700787401574803
          },
          {
            "number": 7,
            "time": 123.63999999998893,
            "value": 0.3700787401574803
          },
          {
            "number": 7,
            "time": 123.64499999998893,
            "value": 0.3700787401574803
          },
          {
            "number": 7,
            "time": 123.64999999998892,
            "value": 0.3700787401574803
          },
          {
            "number": 7,
            "time": 123.65499999998892,
            "value": 0.3700787401574803
          },
          {
            "number": 7,
            "time": 123.65999999998891,
            "value": 0.3700787401574803
          },
          {
            "number": 7,
            "time": 123.66499999998891,
            "value": 0.3700787401574803
          },
          {
            "number": 7,
            "time": 123.6699999999889,
            "value": 0.3700787401574803
          },
          {
            "number": 7,
            "time": 123.6749999999889,
            "value": 0.3700787401574803
          },
          {
            "number": 7,
            "time": 123.6799999999889,
            "value": 0.3700787401574803
          },
          {
            "number": 7,
            "time": 123.68499999998889,
            "value": 0.3700787401574803
          },
          {
            "number": 7,
            "time": 123.68999999998888,
            "value": 0.3700787401574803
          },
          {
            "number": 7,
            "time": 123.69499999998888,
            "value": 0.3700787401574803
          },
          {
            "number": 7,
            "time": 123.69999999998888,
            "value": 0.3700787401574803
          },
          {
            "number": 7,
            "time": 123.70499999998887,
            "value": 0.3700787401574803
          },
          {
            "number": 7,
            "time": 123.70999999998887,
            "value": 0.3700787401574803
          },
          {
            "number": 7,
            "time": 123.71499999998886,
            "value": 0.36220472440944884
          },
          {
            "number": 7,
            "time": 123.71999999998886,
            "value": 0.36220472440944884
          },
          {
            "number": 7,
            "time": 123.72499999998885,
            "value": 0.36220472440944884
          },
          {
            "number": 7,
            "time": 123.72999999998885,
            "value": 0.36220472440944884
          },
          {
            "number": 7,
            "time": 123.73499999998884,
            "value": 0.36220472440944884
          },
          {
            "number": 7,
            "time": 123.73999999998884,
            "value": 0.36220472440944884
          },
          {
            "number": 7,
            "time": 123.74499999998883,
            "value": 0.36220472440944884
          },
          {
            "number": 7,
            "time": 123.74999999998883,
            "value": 0.36220472440944884
          },
          {
            "number": 7,
            "time": 123.75499999998883,
            "value": 0.36220472440944884
          },
          {
            "number": 7,
            "time": 123.75999999998882,
            "value": 0.36220472440944884
          },
          {
            "number": 7,
            "time": 123.76499999998882,
            "value": 0.36220472440944884
          },
          {
            "number": 7,
            "time": 123.76999999998881,
            "value": 0.36220472440944884
          },
          {
            "number": 7,
            "time": 123.77499999998881,
            "value": 0.36220472440944884
          },
          {
            "number": 7,
            "time": 123.7799999999888,
            "value": 0.36220472440944884
          },
          {
            "number": 7,
            "time": 123.7849999999888,
            "value": 0.36220472440944884
          },
          {
            "number": 7,
            "time": 123.7899999999888,
            "value": 0.36220472440944884
          },
          {
            "number": 7,
            "time": 123.79499999998879,
            "value": 0.36220472440944884
          },
          {
            "number": 7,
            "time": 123.79999999998878,
            "value": 0.36220472440944884
          },
          {
            "number": 7,
            "time": 123.80499999998878,
            "value": 0.36220472440944884
          },
          {
            "number": 7,
            "time": 123.80999999998878,
            "value": 0.36220472440944884
          },
          {
            "number": 7,
            "time": 123.81499999998877,
            "value": 0.36220472440944884
          },
          {
            "number": 7,
            "time": 123.81999999998877,
            "value": 0.36220472440944884
          },
          {
            "number": 7,
            "time": 123.82499999998876,
            "value": 0.36220472440944884
          },
          {
            "number": 7,
            "time": 123.82999999998876,
            "value": 0.36220472440944884
          },
          {
            "number": 7,
            "time": 123.83499999998875,
            "value": 0.36220472440944884
          },
          {
            "number": 7,
            "time": 123.83999999998875,
            "value": 0.36220472440944884
          },
          {
            "number": 7,
            "time": 123.84499999998874,
            "value": 0.36220472440944884
          },
          {
            "number": 7,
            "time": 123.84999999998874,
            "value": 0.36220472440944884
          },
          {
            "number": 7,
            "time": 123.85499999998873,
            "value": 0.36220472440944884
          },
          {
            "number": 7,
            "time": 123.85999999998873,
            "value": 0.36220472440944884
          },
          {
            "number": 7,
            "time": 123.86499999998873,
            "value": 0.3543307086614173
          },
          {
            "number": 7,
            "time": 123.86999999998872,
            "value": 0.3543307086614173
          },
          {
            "number": 7,
            "time": 123.87499999998872,
            "value": 0.3543307086614173
          },
          {
            "number": 7,
            "time": 123.87999999998871,
            "value": 0.3543307086614173
          },
          {
            "number": 7,
            "time": 123.88499999998871,
            "value": 0.3543307086614173
          },
          {
            "number": 7,
            "time": 123.8899999999887,
            "value": 0.3543307086614173
          },
          {
            "number": 7,
            "time": 123.8949999999887,
            "value": 0.3543307086614173
          },
          {
            "number": 7,
            "time": 123.8999999999887,
            "value": 0.3543307086614173
          },
          {
            "number": 7,
            "time": 123.90499999998869,
            "value": 0.3543307086614173
          },
          {
            "number": 7,
            "time": 123.90999999998868,
            "value": 0.3543307086614173
          },
          {
            "number": 7,
            "time": 123.91499999998868,
            "value": 0.3543307086614173
          },
          {
            "number": 7,
            "time": 123.91999999998868,
            "value": 0.3543307086614173
          },
          {
            "number": 7,
            "time": 123.92499999998867,
            "value": 0.3543307086614173
          },
          {
            "number": 7,
            "time": 123.92999999998867,
            "value": 0.3543307086614173
          },
          {
            "number": 7,
            "time": 123.93499999998866,
            "value": 0.3543307086614173
          },
          {
            "number": 7,
            "time": 123.93999999998866,
            "value": 0.3543307086614173
          },
          {
            "number": 7,
            "time": 123.94499999998865,
            "value": 0.3543307086614173
          },
          {
            "number": 7,
            "time": 123.94999999998865,
            "value": 0.3543307086614173
          },
          {
            "number": 7,
            "time": 123.95499999998864,
            "value": 0.3543307086614173
          },
          {
            "number": 7,
            "time": 123.95999999998864,
            "value": 0.3543307086614173
          },
          {
            "number": 7,
            "time": 123.96499999998863,
            "value": 0.3543307086614173
          },
          {
            "number": 7,
            "time": 123.96999999998863,
            "value": 0.3543307086614173
          },
          {
            "number": 7,
            "time": 123.97499999998863,
            "value": 0.3543307086614173
          },
          {
            "number": 7,
            "time": 123.97999999998862,
            "value": 0.3543307086614173
          },
          {
            "number": 7,
            "time": 123.98499999998862,
            "value": 0.3543307086614173
          },
          {
            "number": 7,
            "time": 123.98999999998861,
            "value": 0.3543307086614173
          },
          {
            "number": 7,
            "time": 123.99499999998861,
            "value": 0.3543307086614173
          },
          {
            "number": 7,
            "time": 123.9999999999886,
            "value": 0.3543307086614173
          },
          {
            "number": 7,
            "time": 124.0049999999886,
            "value": 0.3543307086614173
          },
          {
            "number": 7,
            "time": 124.0099999999886,
            "value": 0.3543307086614173
          },
          {
            "number": 7,
            "time": 124.01499999998859,
            "value": 0.3464566929133858
          },
          {
            "number": 7,
            "time": 124.01999999998858,
            "value": 0.3464566929133858
          },
          {
            "number": 7,
            "time": 124.02499999998858,
            "value": 0.3464566929133858
          },
          {
            "number": 7,
            "time": 124.02999999998858,
            "value": 0.3464566929133858
          },
          {
            "number": 7,
            "time": 124.03499999998857,
            "value": 0.3464566929133858
          },
          {
            "number": 7,
            "time": 124.03999999998857,
            "value": 0.3464566929133858
          },
          {
            "number": 7,
            "time": 124.04499999998856,
            "value": 0.3464566929133858
          },
          {
            "number": 7,
            "time": 124.04999999998856,
            "value": 0.3464566929133858
          },
          {
            "number": 7,
            "time": 124.05499999998855,
            "value": 0.3464566929133858
          },
          {
            "number": 7,
            "time": 124.05999999998855,
            "value": 0.3464566929133858
          },
          {
            "number": 7,
            "time": 124.06499999998854,
            "value": 0.3464566929133858
          },
          {
            "number": 7,
            "time": 124.06999999998854,
            "value": 0.3464566929133858
          },
          {
            "number": 7,
            "time": 124.07499999998853,
            "value": 0.3464566929133858
          },
          {
            "number": 7,
            "time": 124.07999999998853,
            "value": 0.3464566929133858
          },
          {
            "number": 7,
            "time": 124.08499999998853,
            "value": 0.3464566929133858
          },
          {
            "number": 7,
            "time": 124.08999999998852,
            "value": 0.3464566929133858
          },
          {
            "number": 7,
            "time": 124.09499999998852,
            "value": 0.3464566929133858
          },
          {
            "number": 7,
            "time": 124.09999999998851,
            "value": 0.3464566929133858
          },
          {
            "number": 7,
            "time": 124.10499999998851,
            "value": 0.3464566929133858
          },
          {
            "number": 7,
            "time": 124.1099999999885,
            "value": 0.3464566929133858
          },
          {
            "number": 7,
            "time": 124.1149999999885,
            "value": 0.3464566929133858
          },
          {
            "number": 7,
            "time": 124.1199999999885,
            "value": 0.3464566929133858
          },
          {
            "number": 7,
            "time": 124.12499999998849,
            "value": 0.3464566929133858
          },
          {
            "number": 7,
            "time": 124.12999999998848,
            "value": 0.3464566929133858
          },
          {
            "number": 7,
            "time": 124.13499999998848,
            "value": 0.3464566929133858
          },
          {
            "number": 7,
            "time": 124.13999999998848,
            "value": 0.3464566929133858
          },
          {
            "number": 7,
            "time": 124.14499999998847,
            "value": 0.3464566929133858
          },
          {
            "number": 7,
            "time": 124.14999999998847,
            "value": 0.3464566929133858
          },
          {
            "number": 7,
            "time": 124.15499999998846,
            "value": 0.3464566929133858
          },
          {
            "number": 7,
            "time": 124.15999999998846,
            "value": 0.33858267716535434
          },
          {
            "number": 7,
            "time": 124.16499999998845,
            "value": 0.33858267716535434
          },
          {
            "number": 7,
            "time": 124.16999999998845,
            "value": 0.33858267716535434
          },
          {
            "number": 7,
            "time": 124.17499999998844,
            "value": 0.33858267716535434
          },
          {
            "number": 7,
            "time": 124.17999999998844,
            "value": 0.33858267716535434
          },
          {
            "number": 7,
            "time": 124.18499999998843,
            "value": 0.33858267716535434
          },
          {
            "number": 7,
            "time": 124.18999999998843,
            "value": 0.33858267716535434
          },
          {
            "number": 7,
            "time": 124.19499999998843,
            "value": 0.33858267716535434
          },
          {
            "number": 7,
            "time": 124.19999999998842,
            "value": 0.33858267716535434
          },
          {
            "number": 7,
            "time": 124.20499999998842,
            "value": 0.33858267716535434
          },
          {
            "number": 7,
            "time": 124.20999999998841,
            "value": 0.33858267716535434
          },
          {
            "number": 7,
            "time": 124.21499999998841,
            "value": 0.33858267716535434
          },
          {
            "number": 7,
            "time": 124.2199999999884,
            "value": 0.33858267716535434
          },
          {
            "number": 7,
            "time": 124.2249999999884,
            "value": 0.33858267716535434
          },
          {
            "number": 7,
            "time": 124.2299999999884,
            "value": 0.33858267716535434
          },
          {
            "number": 7,
            "time": 124.23499999998839,
            "value": 0.33858267716535434
          },
          {
            "number": 7,
            "time": 124.23999999998838,
            "value": 0.33858267716535434
          },
          {
            "number": 7,
            "time": 124.24499999998838,
            "value": 0.33858267716535434
          },
          {
            "number": 7,
            "time": 124.24999999998838,
            "value": 0.33858267716535434
          },
          {
            "number": 7,
            "time": 124.25499999998837,
            "value": 0.33858267716535434
          },
          {
            "number": 7,
            "time": 124.25999999998837,
            "value": 0.33858267716535434
          },
          {
            "number": 7,
            "time": 124.26499999998836,
            "value": 0.33858267716535434
          },
          {
            "number": 7,
            "time": 124.26999999998836,
            "value": 0.33858267716535434
          },
          {
            "number": 7,
            "time": 124.27499999998835,
            "value": 0.33858267716535434
          },
          {
            "number": 7,
            "time": 124.27999999998835,
            "value": 0.33858267716535434
          },
          {
            "number": 7,
            "time": 124.28499999998834,
            "value": 0.33858267716535434
          },
          {
            "number": 7,
            "time": 124.28999999998834,
            "value": 0.33858267716535434
          },
          {
            "number": 7,
            "time": 124.29499999998833,
            "value": 0.33858267716535434
          },
          {
            "number": 7,
            "time": 124.29999999998833,
            "value": 0.33858267716535434
          },
          {
            "number": 7,
            "time": 124.30499999998833,
            "value": 0.33858267716535434
          },
          {
            "number": 7,
            "time": 124.30999999998832,
            "value": 0.33070866141732286
          },
          {
            "number": 7,
            "time": 124.31499999998832,
            "value": 0.33070866141732286
          },
          {
            "number": 7,
            "time": 124.31999999998831,
            "value": 0.33070866141732286
          },
          {
            "number": 7,
            "time": 124.32499999998831,
            "value": 0.33070866141732286
          },
          {
            "number": 7,
            "time": 124.3299999999883,
            "value": 0.33070866141732286
          },
          {
            "number": 7,
            "time": 124.3349999999883,
            "value": 0.33070866141732286
          },
          {
            "number": 7,
            "time": 124.3399999999883,
            "value": 0.33070866141732286
          },
          {
            "number": 7,
            "time": 124.34499999998829,
            "value": 0.33070866141732286
          },
          {
            "number": 7,
            "time": 124.34999999998828,
            "value": 0.33070866141732286
          },
          {
            "number": 7,
            "time": 124.35499999998828,
            "value": 0.33070866141732286
          },
          {
            "number": 7,
            "time": 124.35999999998828,
            "value": 0.33070866141732286
          },
          {
            "number": 7,
            "time": 124.36499999998827,
            "value": 0.33070866141732286
          },
          {
            "number": 7,
            "time": 124.36999999998827,
            "value": 0.33070866141732286
          },
          {
            "number": 7,
            "time": 124.37499999998826,
            "value": 0.33070866141732286
          },
          {
            "number": 7,
            "time": 124.37999999998826,
            "value": 0.33070866141732286
          },
          {
            "number": 7,
            "time": 124.38499999998825,
            "value": 0.33070866141732286
          },
          {
            "number": 7,
            "time": 124.38999999998825,
            "value": 0.33070866141732286
          },
          {
            "number": 7,
            "time": 124.39499999998824,
            "value": 0.33070866141732286
          },
          {
            "number": 7,
            "time": 124.39999999998824,
            "value": 0.33070866141732286
          },
          {
            "number": 7,
            "time": 124.40499999998823,
            "value": 0.33070866141732286
          },
          {
            "number": 7,
            "time": 124.40999999998823,
            "value": 0.33070866141732286
          },
          {
            "number": 7,
            "time": 124.41499999998823,
            "value": 0.33070866141732286
          },
          {
            "number": 7,
            "time": 124.41999999998822,
            "value": 0.33070866141732286
          },
          {
            "number": 7,
            "time": 124.42499999998822,
            "value": 0.33070866141732286
          },
          {
            "number": 7,
            "time": 124.42999999998821,
            "value": 0.33070866141732286
          },
          {
            "number": 7,
            "time": 124.43499999998821,
            "value": 0.33070866141732286
          },
          {
            "number": 7,
            "time": 124.4399999999882,
            "value": 0.33070866141732286
          },
          {
            "number": 7,
            "time": 124.4449999999882,
            "value": 0.33070866141732286
          },
          {
            "number": 7,
            "time": 124.4499999999882,
            "value": 0.33070866141732286
          },
          {
            "number": 7,
            "time": 124.45499999998819,
            "value": 0.3228346456692913
          },
          {
            "number": 7,
            "time": 124.45999999998818,
            "value": 0.3228346456692913
          },
          {
            "number": 7,
            "time": 124.46499999998818,
            "value": 0.3228346456692913
          },
          {
            "number": 7,
            "time": 124.46999999998818,
            "value": 0.3228346456692913
          },
          {
            "number": 7,
            "time": 124.47499999998817,
            "value": 0.3228346456692913
          },
          {
            "number": 7,
            "time": 124.47999999998817,
            "value": 0.3228346456692913
          },
          {
            "number": 7,
            "time": 124.48499999998816,
            "value": 0.3228346456692913
          },
          {
            "number": 7,
            "time": 124.48999999998816,
            "value": 0.3228346456692913
          },
          {
            "number": 7,
            "time": 124.49499999998815,
            "value": 0.3228346456692913
          },
          {
            "number": 7,
            "time": 124.49999999998815,
            "value": 0.3228346456692913
          },
          {
            "number": 7,
            "time": 124.50499999998814,
            "value": 0.3228346456692913
          },
          {
            "number": 7,
            "time": 124.50999999998814,
            "value": 0.3228346456692913
          },
          {
            "number": 7,
            "time": 124.51499999998813,
            "value": 0.3228346456692913
          },
          {
            "number": 7,
            "time": 124.51999999998813,
            "value": 0.3228346456692913
          },
          {
            "number": 7,
            "time": 124.52499999998813,
            "value": 0.3228346456692913
          },
          {
            "number": 7,
            "time": 124.52999999998812,
            "value": 0.3228346456692913
          },
          {
            "number": 7,
            "time": 124.53499999998812,
            "value": 0.3228346456692913
          },
          {
            "number": 7,
            "time": 124.53999999998811,
            "value": 0.3228346456692913
          },
          {
            "number": 7,
            "time": 124.54499999998811,
            "value": 0.3228346456692913
          },
          {
            "number": 7,
            "time": 124.5499999999881,
            "value": 0.3228346456692913
          },
          {
            "number": 7,
            "time": 124.5549999999881,
            "value": 0.3228346456692913
          },
          {
            "number": 7,
            "time": 124.5599999999881,
            "value": 0.3228346456692913
          },
          {
            "number": 7,
            "time": 124.56499999998809,
            "value": 0.3228346456692913
          },
          {
            "number": 7,
            "time": 124.56999999998808,
            "value": 0.3228346456692913
          },
          {
            "number": 7,
            "time": 124.57499999998808,
            "value": 0.3228346456692913
          },
          {
            "number": 7,
            "time": 124.57999999998808,
            "value": 0.3228346456692913
          },
          {
            "number": 7,
            "time": 124.58499999998807,
            "value": 0.3228346456692913
          },
          {
            "number": 7,
            "time": 124.58999999998807,
            "value": 0.3228346456692913
          },
          {
            "number": 7,
            "time": 124.59499999998806,
            "value": 0.3228346456692913
          },
          {
            "number": 7,
            "time": 124.59999999998806,
            "value": 0.3228346456692913
          },
          {
            "number": 7,
            "time": 124.60499999998805,
            "value": 0.31496062992125984
          },
          {
            "number": 7,
            "time": 124.60999999998805,
            "value": 0.31496062992125984
          },
          {
            "number": 7,
            "time": 124.61499999998804,
            "value": 0.31496062992125984
          },
          {
            "number": 7,
            "time": 124.61999999998804,
            "value": 0.31496062992125984
          },
          {
            "number": 7,
            "time": 124.62499999998803,
            "value": 0.31496062992125984
          },
          {
            "number": 7,
            "time": 124.62999999998803,
            "value": 0.31496062992125984
          },
          {
            "number": 7,
            "time": 124.63499999998803,
            "value": 0.31496062992125984
          },
          {
            "number": 7,
            "time": 124.63999999998802,
            "value": 0.31496062992125984
          },
          {
            "number": 7,
            "time": 124.64499999998802,
            "value": 0.31496062992125984
          },
          {
            "number": 7,
            "time": 124.64999999998801,
            "value": 0.31496062992125984
          },
          {
            "number": 7,
            "time": 124.65499999998801,
            "value": 0.31496062992125984
          },
          {
            "number": 7,
            "time": 124.659999999988,
            "value": 0.31496062992125984
          },
          {
            "number": 7,
            "time": 124.664999999988,
            "value": 0.31496062992125984
          },
          {
            "number": 7,
            "time": 124.669999999988,
            "value": 0.31496062992125984
          },
          {
            "number": 7,
            "time": 124.67499999998799,
            "value": 0.31496062992125984
          },
          {
            "number": 7,
            "time": 124.67999999998798,
            "value": 0.31496062992125984
          },
          {
            "number": 7,
            "time": 124.68499999998798,
            "value": 0.31496062992125984
          },
          {
            "number": 7,
            "time": 124.68999999998798,
            "value": 0.31496062992125984
          },
          {
            "number": 7,
            "time": 124.69499999998797,
            "value": 0.31496062992125984
          },
          {
            "number": 7,
            "time": 124.69999999998797,
            "value": 0.31496062992125984
          },
          {
            "number": 7,
            "time": 124.70499999998796,
            "value": 0.31496062992125984
          },
          {
            "number": 7,
            "time": 124.70999999998796,
            "value": 0.31496062992125984
          },
          {
            "number": 7,
            "time": 124.71499999998795,
            "value": 0.31496062992125984
          },
          {
            "number": 7,
            "time": 124.71999999998795,
            "value": 0.31496062992125984
          },
          {
            "number": 7,
            "time": 124.72499999998794,
            "value": 0.31496062992125984
          },
          {
            "number": 7,
            "time": 124.72999999998794,
            "value": 0.31496062992125984
          },
          {
            "number": 7,
            "time": 124.73499999998793,
            "value": 0.31496062992125984
          },
          {
            "number": 7,
            "time": 124.73999999998793,
            "value": 0.31496062992125984
          },
          {
            "number": 7,
            "time": 124.74499999998793,
            "value": 0.31496062992125984
          },
          {
            "number": 7,
            "time": 124.74999999998792,
            "value": 0.30708661417322836
          },
          {
            "number": 7,
            "time": 124.75499999998792,
            "value": 0.30708661417322836
          },
          {
            "number": 7,
            "time": 124.75999999998791,
            "value": 0.30708661417322836
          },
          {
            "number": 7,
            "time": 124.76499999998791,
            "value": 0.30708661417322836
          },
          {
            "number": 7,
            "time": 124.7699999999879,
            "value": 0.30708661417322836
          },
          {
            "number": 7,
            "time": 124.7749999999879,
            "value": 0.30708661417322836
          },
          {
            "number": 7,
            "time": 124.7799999999879,
            "value": 0.30708661417322836
          },
          {
            "number": 7,
            "time": 124.78499999998789,
            "value": 0.30708661417322836
          },
          {
            "number": 7,
            "time": 124.78999999998788,
            "value": 0.30708661417322836
          },
          {
            "number": 7,
            "time": 124.79499999998788,
            "value": 0.30708661417322836
          },
          {
            "number": 7,
            "time": 124.79999999998788,
            "value": 0.30708661417322836
          },
          {
            "number": 7,
            "time": 124.80499999998787,
            "value": 0.30708661417322836
          },
          {
            "number": 7,
            "time": 124.80999999998787,
            "value": 0.30708661417322836
          },
          {
            "number": 7,
            "time": 124.81499999998786,
            "value": 0.30708661417322836
          },
          {
            "number": 7,
            "time": 124.81999999998786,
            "value": 0.30708661417322836
          },
          {
            "number": 7,
            "time": 124.82499999998785,
            "value": 0.30708661417322836
          },
          {
            "number": 7,
            "time": 124.82999999998785,
            "value": 0.30708661417322836
          },
          {
            "number": 7,
            "time": 124.83499999998784,
            "value": 0.30708661417322836
          },
          {
            "number": 7,
            "time": 124.83999999998784,
            "value": 0.30708661417322836
          },
          {
            "number": 7,
            "time": 124.84499999998783,
            "value": 0.30708661417322836
          },
          {
            "number": 7,
            "time": 124.84999999998783,
            "value": 0.30708661417322836
          },
          {
            "number": 7,
            "time": 124.85499999998783,
            "value": 0.30708661417322836
          },
          {
            "number": 7,
            "time": 124.85999999998782,
            "value": 0.30708661417322836
          },
          {
            "number": 7,
            "time": 124.86499999998782,
            "value": 0.30708661417322836
          },
          {
            "number": 7,
            "time": 124.86999999998781,
            "value": 0.30708661417322836
          },
          {
            "number": 7,
            "time": 124.8749999999878,
            "value": 0.30708661417322836
          },
          {
            "number": 7,
            "time": 124.8799999999878,
            "value": 0.30708661417322836
          },
          {
            "number": 7,
            "time": 124.8849999999878,
            "value": 0.30708661417322836
          },
          {
            "number": 7,
            "time": 124.8899999999878,
            "value": 0.30708661417322836
          },
          {
            "number": 7,
            "time": 124.89499999998779,
            "value": 0.30708661417322836
          },
          {
            "number": 7,
            "time": 124.89999999998778,
            "value": 0.2992125984251969
          },
          {
            "number": 7,
            "time": 124.90499999998778,
            "value": 0.2992125984251969
          },
          {
            "number": 7,
            "time": 124.90999999998778,
            "value": 0.2992125984251969
          },
          {
            "number": 7,
            "time": 124.91499999998777,
            "value": 0.2992125984251969
          },
          {
            "number": 7,
            "time": 124.91999999998777,
            "value": 0.2992125984251969
          },
          {
            "number": 7,
            "time": 124.92499999998776,
            "value": 0.2992125984251969
          },
          {
            "number": 7,
            "time": 124.92999999998776,
            "value": 0.2992125984251969
          },
          {
            "number": 7,
            "time": 124.93499999998775,
            "value": 0.2992125984251969
          },
          {
            "number": 7,
            "time": 124.93999999998775,
            "value": 0.2992125984251969
          },
          {
            "number": 7,
            "time": 124.94499999998774,
            "value": 0.2992125984251969
          },
          {
            "number": 7,
            "time": 124.94999999998774,
            "value": 0.2992125984251969
          },
          {
            "number": 7,
            "time": 124.95499999998773,
            "value": 0.2992125984251969
          },
          {
            "number": 7,
            "time": 124.95999999998773,
            "value": 0.2992125984251969
          },
          {
            "number": 7,
            "time": 124.96499999998773,
            "value": 0.2992125984251969
          },
          {
            "number": 7,
            "time": 124.96999999998772,
            "value": 0.2992125984251969
          },
          {
            "number": 7,
            "time": 124.97499999998772,
            "value": 0.2992125984251969
          },
          {
            "number": 7,
            "time": 124.97999999998771,
            "value": 0.2992125984251969
          },
          {
            "number": 7,
            "time": 124.9849999999877,
            "value": 0.2992125984251969
          },
          {
            "number": 7,
            "time": 124.9899999999877,
            "value": 0.2992125984251969
          },
          {
            "number": 7,
            "time": 124.9949999999877,
            "value": 0.2992125984251969
          },
          {
            "number": 7,
            "time": 124.9999999999877,
            "value": 0.2992125984251969
          },
          {
            "number": 7,
            "time": 125.00499999998769,
            "value": 0.2992125984251969
          },
          {
            "number": 7,
            "time": 125.00999999998768,
            "value": 0.2992125984251969
          },
          {
            "number": 7,
            "time": 125.01499999998768,
            "value": 0.2992125984251969
          },
          {
            "number": 7,
            "time": 125.01999999998768,
            "value": 0.2992125984251969
          },
          {
            "number": 7,
            "time": 125.02499999998767,
            "value": 0.2992125984251969
          },
          {
            "number": 7,
            "time": 125.02999999998767,
            "value": 0.2992125984251969
          },
          {
            "number": 7,
            "time": 125.03499999998766,
            "value": 0.2992125984251969
          },
          {
            "number": 7,
            "time": 125.03999999998766,
            "value": 0.2992125984251969
          },
          {
            "number": 7,
            "time": 125.04499999998765,
            "value": 0.29133858267716534
          },
          {
            "number": 7,
            "time": 125.04999999998765,
            "value": 0.29133858267716534
          },
          {
            "number": 7,
            "time": 125.05499999998764,
            "value": 0.29133858267716534
          },
          {
            "number": 7,
            "time": 125.05999999998764,
            "value": 0.29133858267716534
          },
          {
            "number": 7,
            "time": 125.06499999998763,
            "value": 0.29133858267716534
          },
          {
            "number": 7,
            "time": 125.06999999998763,
            "value": 0.29133858267716534
          },
          {
            "number": 7,
            "time": 125.07499999998763,
            "value": 0.29133858267716534
          },
          {
            "number": 7,
            "time": 125.07999999998762,
            "value": 0.29133858267716534
          },
          {
            "number": 7,
            "time": 125.08499999998762,
            "value": 0.29133858267716534
          },
          {
            "number": 7,
            "time": 125.08999999998761,
            "value": 0.29133858267716534
          },
          {
            "number": 7,
            "time": 125.0949999999876,
            "value": 0.29133858267716534
          },
          {
            "number": 7,
            "time": 125.0999999999876,
            "value": 0.29133858267716534
          },
          {
            "number": 7,
            "time": 125.1049999999876,
            "value": 0.29133858267716534
          },
          {
            "number": 7,
            "time": 125.1099999999876,
            "value": 0.29133858267716534
          },
          {
            "number": 7,
            "time": 125.11499999998759,
            "value": 0.29133858267716534
          },
          {
            "number": 7,
            "time": 125.11999999998758,
            "value": 0.29133858267716534
          },
          {
            "number": 7,
            "time": 125.12499999998758,
            "value": 0.29133858267716534
          },
          {
            "number": 7,
            "time": 125.12999999998758,
            "value": 0.29133858267716534
          },
          {
            "number": 7,
            "time": 125.13499999998757,
            "value": 0.29133858267716534
          },
          {
            "number": 7,
            "time": 125.13999999998757,
            "value": 0.29133858267716534
          },
          {
            "number": 7,
            "time": 125.14499999998756,
            "value": 0.29133858267716534
          },
          {
            "number": 7,
            "time": 125.14999999998756,
            "value": 0.29133858267716534
          },
          {
            "number": 7,
            "time": 125.15499999998755,
            "value": 0.29133858267716534
          },
          {
            "number": 7,
            "time": 125.15999999998755,
            "value": 0.29133858267716534
          },
          {
            "number": 7,
            "time": 125.16499999998754,
            "value": 0.29133858267716534
          },
          {
            "number": 7,
            "time": 125.16999999998754,
            "value": 0.29133858267716534
          },
          {
            "number": 7,
            "time": 125.17499999998753,
            "value": 0.29133858267716534
          },
          {
            "number": 7,
            "time": 125.17999999998753,
            "value": 0.29133858267716534
          },
          {
            "number": 7,
            "time": 125.18499999998753,
            "value": 0.29133858267716534
          },
          {
            "number": 7,
            "time": 125.18999999998752,
            "value": 0.29133858267716534
          },
          {
            "number": 7,
            "time": 125.19499999998752,
            "value": 0.28346456692913385
          },
          {
            "number": 7,
            "time": 125.19999999998751,
            "value": 0.28346456692913385
          },
          {
            "number": 7,
            "time": 125.2049999999875,
            "value": 0.28346456692913385
          },
          {
            "number": 7,
            "time": 125.2099999999875,
            "value": 0.28346456692913385
          },
          {
            "number": 7,
            "time": 125.2149999999875,
            "value": 0.28346456692913385
          },
          {
            "number": 7,
            "time": 125.2199999999875,
            "value": 0.28346456692913385
          },
          {
            "number": 7,
            "time": 125.22499999998749,
            "value": 0.28346456692913385
          },
          {
            "number": 7,
            "time": 125.22999999998748,
            "value": 0.28346456692913385
          },
          {
            "number": 7,
            "time": 125.23499999998748,
            "value": 0.28346456692913385
          },
          {
            "number": 7,
            "time": 125.23999999998748,
            "value": 0.28346456692913385
          },
          {
            "number": 7,
            "time": 125.24499999998747,
            "value": 0.28346456692913385
          },
          {
            "number": 7,
            "time": 125.24999999998747,
            "value": 0.28346456692913385
          },
          {
            "number": 7,
            "time": 125.25499999998746,
            "value": 0.28346456692913385
          },
          {
            "number": 7,
            "time": 125.25999999998746,
            "value": 0.28346456692913385
          },
          {
            "number": 7,
            "time": 125.26499999998745,
            "value": 0.28346456692913385
          },
          {
            "number": 7,
            "time": 125.26999999998745,
            "value": 0.28346456692913385
          },
          {
            "number": 7,
            "time": 125.27499999998744,
            "value": 0.28346456692913385
          },
          {
            "number": 7,
            "time": 125.27999999998744,
            "value": 0.28346456692913385
          },
          {
            "number": 7,
            "time": 125.28499999998743,
            "value": 0.28346456692913385
          },
          {
            "number": 7,
            "time": 125.28999999998743,
            "value": 0.28346456692913385
          },
          {
            "number": 7,
            "time": 125.29499999998743,
            "value": 0.28346456692913385
          },
          {
            "number": 7,
            "time": 125.29999999998742,
            "value": 0.28346456692913385
          },
          {
            "number": 7,
            "time": 125.30499999998742,
            "value": 0.28346456692913385
          },
          {
            "number": 7,
            "time": 125.30999999998741,
            "value": 0.28346456692913385
          },
          {
            "number": 7,
            "time": 125.3149999999874,
            "value": 0.28346456692913385
          },
          {
            "number": 7,
            "time": 125.3199999999874,
            "value": 0.28346456692913385
          },
          {
            "number": 7,
            "time": 125.3249999999874,
            "value": 0.28346456692913385
          },
          {
            "number": 7,
            "time": 125.3299999999874,
            "value": 0.28346456692913385
          },
          {
            "number": 7,
            "time": 125.33499999998739,
            "value": 0.28346456692913385
          },
          {
            "number": 7,
            "time": 125.33999999998738,
            "value": 0.28346456692913385
          },
          {
            "number": 7,
            "time": 125.34499999998738,
            "value": 0.2755905511811024
          },
          {
            "number": 7,
            "time": 125.34999999998738,
            "value": 0.2755905511811024
          },
          {
            "number": 7,
            "time": 125.35499999998737,
            "value": 0.2755905511811024
          },
          {
            "number": 7,
            "time": 125.35999999998737,
            "value": 0.2755905511811024
          },
          {
            "number": 7,
            "time": 125.36499999998736,
            "value": 0.2755905511811024
          },
          {
            "number": 7,
            "time": 125.36999999998736,
            "value": 0.2755905511811024
          },
          {
            "number": 7,
            "time": 125.37499999998735,
            "value": 0.2755905511811024
          },
          {
            "number": 7,
            "time": 125.37999999998735,
            "value": 0.2755905511811024
          },
          {
            "number": 7,
            "time": 125.38499999998734,
            "value": 0.2755905511811024
          },
          {
            "number": 7,
            "time": 125.38999999998734,
            "value": 0.2755905511811024
          },
          {
            "number": 7,
            "time": 125.39499999998733,
            "value": 0.2755905511811024
          },
          {
            "number": 7,
            "time": 125.39999999998733,
            "value": 0.2755905511811024
          },
          {
            "number": 7,
            "time": 125.40499999998733,
            "value": 0.2755905511811024
          },
          {
            "number": 7,
            "time": 125.40999999998732,
            "value": 0.2755905511811024
          },
          {
            "number": 7,
            "time": 125.41499999998732,
            "value": 0.2755905511811024
          },
          {
            "number": 7,
            "time": 125.41999999998731,
            "value": 0.2755905511811024
          },
          {
            "number": 7,
            "time": 125.4249999999873,
            "value": 0.2755905511811024
          },
          {
            "number": 7,
            "time": 125.4299999999873,
            "value": 0.2755905511811024
          },
          {
            "number": 7,
            "time": 125.4349999999873,
            "value": 0.2755905511811024
          },
          {
            "number": 7,
            "time": 125.4399999999873,
            "value": 0.2755905511811024
          },
          {
            "number": 7,
            "time": 125.44499999998729,
            "value": 0.2755905511811024
          },
          {
            "number": 7,
            "time": 125.44999999998728,
            "value": 0.2755905511811024
          },
          {
            "number": 7,
            "time": 125.45499999998728,
            "value": 0.2755905511811024
          },
          {
            "number": 7,
            "time": 125.45999999998728,
            "value": 0.2755905511811024
          },
          {
            "number": 7,
            "time": 125.46499999998727,
            "value": 0.2755905511811024
          },
          {
            "number": 7,
            "time": 125.46999999998727,
            "value": 0.2755905511811024
          },
          {
            "number": 7,
            "time": 125.47499999998726,
            "value": 0.2755905511811024
          },
          {
            "number": 7,
            "time": 125.47999999998726,
            "value": 0.2755905511811024
          },
          {
            "number": 7,
            "time": 125.48499999998725,
            "value": 0.2755905511811024
          },
          {
            "number": 7,
            "time": 125.48999999998725,
            "value": 0.2677165354330709
          },
          {
            "number": 7,
            "time": 125.49499999998724,
            "value": 0.2677165354330709
          },
          {
            "number": 7,
            "time": 125.49999999998724,
            "value": 0.2677165354330709
          },
          {
            "number": 7,
            "time": 125.50499999998723,
            "value": 0.2677165354330709
          },
          {
            "number": 7,
            "time": 125.50999999998723,
            "value": 0.2677165354330709
          },
          {
            "number": 7,
            "time": 125.51499999998723,
            "value": 0.2677165354330709
          },
          {
            "number": 7,
            "time": 125.51999999998722,
            "value": 0.2677165354330709
          },
          {
            "number": 7,
            "time": 125.52499999998722,
            "value": 0.2677165354330709
          },
          {
            "number": 7,
            "time": 125.52999999998721,
            "value": 0.2677165354330709
          },
          {
            "number": 7,
            "time": 125.5349999999872,
            "value": 0.2677165354330709
          },
          {
            "number": 7,
            "time": 125.5399999999872,
            "value": 0.2677165354330709
          },
          {
            "number": 7,
            "time": 125.5449999999872,
            "value": 0.2677165354330709
          },
          {
            "number": 7,
            "time": 125.5499999999872,
            "value": 0.2677165354330709
          },
          {
            "number": 7,
            "time": 125.55499999998719,
            "value": 0.2677165354330709
          },
          {
            "number": 7,
            "time": 125.55999999998718,
            "value": 0.2677165354330709
          },
          {
            "number": 7,
            "time": 125.56499999998718,
            "value": 0.2677165354330709
          },
          {
            "number": 7,
            "time": 125.56999999998717,
            "value": 0.2677165354330709
          },
          {
            "number": 7,
            "time": 125.57499999998717,
            "value": 0.2677165354330709
          },
          {
            "number": 7,
            "time": 125.57999999998717,
            "value": 0.2677165354330709
          },
          {
            "number": 7,
            "time": 125.58499999998716,
            "value": 0.2677165354330709
          },
          {
            "number": 7,
            "time": 125.58999999998716,
            "value": 0.2677165354330709
          },
          {
            "number": 7,
            "time": 125.59499999998715,
            "value": 0.2677165354330709
          },
          {
            "number": 7,
            "time": 125.59999999998715,
            "value": 0.2677165354330709
          },
          {
            "number": 7,
            "time": 125.60499999998714,
            "value": 0.2677165354330709
          },
          {
            "number": 7,
            "time": 125.60999999998714,
            "value": 0.2677165354330709
          },
          {
            "number": 7,
            "time": 125.61499999998713,
            "value": 0.2677165354330709
          },
          {
            "number": 7,
            "time": 125.61999999998713,
            "value": 0.2677165354330709
          },
          {
            "number": 7,
            "time": 125.62499999998712,
            "value": 0.2677165354330709
          },
          {
            "number": 7,
            "time": 125.62999999998712,
            "value": 0.2677165354330709
          },
          {
            "number": 7,
            "time": 125.63499999998712,
            "value": 0.2677165354330709
          },
          {
            "number": 7,
            "time": 125.63999999998711,
            "value": 0.25984251968503935
          },
          {
            "number": 7,
            "time": 125.6449999999871,
            "value": 0.25984251968503935
          },
          {
            "number": 7,
            "time": 125.6499999999871,
            "value": 0.25984251968503935
          },
          {
            "number": 7,
            "time": 125.6549999999871,
            "value": 0.25984251968503935
          },
          {
            "number": 7,
            "time": 125.6599999999871,
            "value": 0.25984251968503935
          },
          {
            "number": 7,
            "time": 125.66499999998709,
            "value": 0.25984251968503935
          },
          {
            "number": 7,
            "time": 125.66999999998708,
            "value": 0.25984251968503935
          },
          {
            "number": 7,
            "time": 125.67499999998708,
            "value": 0.25984251968503935
          },
          {
            "number": 7,
            "time": 125.67999999998707,
            "value": 0.25984251968503935
          },
          {
            "number": 7,
            "time": 125.68499999998707,
            "value": 0.25984251968503935
          },
          {
            "number": 7,
            "time": 125.68999999998707,
            "value": 0.25984251968503935
          },
          {
            "number": 7,
            "time": 125.69499999998706,
            "value": 0.25984251968503935
          },
          {
            "number": 7,
            "time": 125.69999999998706,
            "value": 0.25984251968503935
          },
          {
            "number": 7,
            "time": 125.70499999998705,
            "value": 0.25984251968503935
          },
          {
            "number": 7,
            "time": 125.70999999998705,
            "value": 0.25984251968503935
          },
          {
            "number": 7,
            "time": 125.71499999998704,
            "value": 0.25984251968503935
          },
          {
            "number": 7,
            "time": 125.71999999998704,
            "value": 0.25984251968503935
          },
          {
            "number": 7,
            "time": 125.72499999998703,
            "value": 0.25984251968503935
          },
          {
            "number": 7,
            "time": 125.72999999998703,
            "value": 0.25984251968503935
          },
          {
            "number": 7,
            "time": 125.73499999998702,
            "value": 0.25984251968503935
          },
          {
            "number": 7,
            "time": 125.73999999998702,
            "value": 0.25984251968503935
          },
          {
            "number": 7,
            "time": 125.74499999998702,
            "value": 0.25984251968503935
          },
          {
            "number": 7,
            "time": 125.74999999998701,
            "value": 0.25984251968503935
          },
          {
            "number": 7,
            "time": 125.754999999987,
            "value": 0.25984251968503935
          },
          {
            "number": 7,
            "time": 125.759999999987,
            "value": 0.25984251968503935
          },
          {
            "number": 7,
            "time": 125.764999999987,
            "value": 0.25984251968503935
          },
          {
            "number": 7,
            "time": 125.769999999987,
            "value": 0.25984251968503935
          },
          {
            "number": 7,
            "time": 125.77499999998699,
            "value": 0.25984251968503935
          },
          {
            "number": 7,
            "time": 125.77999999998698,
            "value": 0.25984251968503935
          },
          {
            "number": 7,
            "time": 125.78499999998698,
            "value": 0.25196850393700787
          },
          {
            "number": 7,
            "time": 125.78999999998697,
            "value": 0.25196850393700787
          },
          {
            "number": 7,
            "time": 125.79499999998697,
            "value": 0.25196850393700787
          },
          {
            "number": 7,
            "time": 125.79999999998697,
            "value": 0.25196850393700787
          },
          {
            "number": 7,
            "time": 125.80499999998696,
            "value": 0.25196850393700787
          },
          {
            "number": 7,
            "time": 125.80999999998696,
            "value": 0.25196850393700787
          },
          {
            "number": 7,
            "time": 125.81499999998695,
            "value": 0.25196850393700787
          },
          {
            "number": 7,
            "time": 125.81999999998695,
            "value": 0.25196850393700787
          },
          {
            "number": 7,
            "time": 125.82499999998694,
            "value": 0.25196850393700787
          },
          {
            "number": 7,
            "time": 125.82999999998694,
            "value": 0.25196850393700787
          },
          {
            "number": 7,
            "time": 125.83499999998693,
            "value": 0.25196850393700787
          },
          {
            "number": 7,
            "time": 125.83999999998693,
            "value": 0.25196850393700787
          },
          {
            "number": 7,
            "time": 125.84499999998692,
            "value": 0.25196850393700787
          },
          {
            "number": 7,
            "time": 125.84999999998692,
            "value": 0.25196850393700787
          },
          {
            "number": 7,
            "time": 125.85499999998692,
            "value": 0.25196850393700787
          },
          {
            "number": 7,
            "time": 125.85999999998691,
            "value": 0.25196850393700787
          },
          {
            "number": 7,
            "time": 125.8649999999869,
            "value": 0.25196850393700787
          },
          {
            "number": 7,
            "time": 125.8699999999869,
            "value": 0.25196850393700787
          },
          {
            "number": 7,
            "time": 125.8749999999869,
            "value": 0.25196850393700787
          },
          {
            "number": 7,
            "time": 125.8799999999869,
            "value": 0.25196850393700787
          },
          {
            "number": 7,
            "time": 125.88499999998689,
            "value": 0.25196850393700787
          },
          {
            "number": 7,
            "time": 125.88999999998688,
            "value": 0.25196850393700787
          },
          {
            "number": 7,
            "time": 125.89499999998688,
            "value": 0.25196850393700787
          },
          {
            "number": 7,
            "time": 125.89999999998687,
            "value": 0.25196850393700787
          },
          {
            "number": 7,
            "time": 125.90499999998687,
            "value": 0.25196850393700787
          },
          {
            "number": 7,
            "time": 125.90999999998687,
            "value": 0.25196850393700787
          },
          {
            "number": 7,
            "time": 125.91499999998686,
            "value": 0.25196850393700787
          },
          {
            "number": 7,
            "time": 125.91999999998686,
            "value": 0.25196850393700787
          },
          {
            "number": 7,
            "time": 125.92499999998685,
            "value": 0.25196850393700787
          },
          {
            "number": 7,
            "time": 125.92999999998685,
            "value": 0.25196850393700787
          },
          {
            "number": 7,
            "time": 125.93499999998684,
            "value": 0.2440944881889764
          },
          {
            "number": 7,
            "time": 125.93999999998684,
            "value": 0.2440944881889764
          },
          {
            "number": 7,
            "time": 125.94499999998683,
            "value": 0.2440944881889764
          },
          {
            "number": 7,
            "time": 125.94999999998683,
            "value": 0.2440944881889764
          },
          {
            "number": 7,
            "time": 125.95499999998682,
            "value": 0.2440944881889764
          },
          {
            "number": 7,
            "time": 125.95999999998682,
            "value": 0.2440944881889764
          },
          {
            "number": 7,
            "time": 125.96499999998682,
            "value": 0.2440944881889764
          },
          {
            "number": 7,
            "time": 125.96999999998681,
            "value": 0.2440944881889764
          },
          {
            "number": 7,
            "time": 125.9749999999868,
            "value": 0.2440944881889764
          },
          {
            "number": 7,
            "time": 125.9799999999868,
            "value": 0.2440944881889764
          },
          {
            "number": 7,
            "time": 125.9849999999868,
            "value": 0.2440944881889764
          },
          {
            "number": 7,
            "time": 125.9899999999868,
            "value": 0.2440944881889764
          },
          {
            "number": 7,
            "time": 125.99499999998679,
            "value": 0.2440944881889764
          },
          {
            "number": 7,
            "time": 125.99999999998678,
            "value": 0.2440944881889764
          },
          {
            "number": 7,
            "time": 126.00499999998678,
            "value": 0.2440944881889764
          },
          {
            "number": 7,
            "time": 126.00999999998677,
            "value": 0.2440944881889764
          },
          {
            "number": 7,
            "time": 126.01499999998677,
            "value": 0.2440944881889764
          },
          {
            "number": 7,
            "time": 126.01999999998677,
            "value": 0.2440944881889764
          },
          {
            "number": 7,
            "time": 126.02499999998676,
            "value": 0.2440944881889764
          },
          {
            "number": 7,
            "time": 126.02999999998676,
            "value": 0.2440944881889764
          },
          {
            "number": 7,
            "time": 126.03499999998675,
            "value": 0.2440944881889764
          },
          {
            "number": 7,
            "time": 126.03999999998675,
            "value": 0.2440944881889764
          },
          {
            "number": 7,
            "time": 126.04499999998674,
            "value": 0.2440944881889764
          },
          {
            "number": 7,
            "time": 126.04999999998674,
            "value": 0.2440944881889764
          },
          {
            "number": 7,
            "time": 126.05499999998673,
            "value": 0.2440944881889764
          },
          {
            "number": 7,
            "time": 126.05999999998673,
            "value": 0.2440944881889764
          },
          {
            "number": 7,
            "time": 126.06499999998672,
            "value": 0.2440944881889764
          },
          {
            "number": 7,
            "time": 126.06999999998672,
            "value": 0.2440944881889764
          },
          {
            "number": 7,
            "time": 126.07499999998672,
            "value": 0.2440944881889764
          },
          {
            "number": 7,
            "time": 126.07999999998671,
            "value": 0.23622047244094488
          },
          {
            "number": 7,
            "time": 126.0849999999867,
            "value": 0.23622047244094488
          },
          {
            "number": 7,
            "time": 126.0899999999867,
            "value": 0.23622047244094488
          },
          {
            "number": 7,
            "time": 126.0949999999867,
            "value": 0.23622047244094488
          },
          {
            "number": 7,
            "time": 126.0999999999867,
            "value": 0.23622047244094488
          },
          {
            "number": 7,
            "time": 126.10499999998669,
            "value": 0.23622047244094488
          },
          {
            "number": 7,
            "time": 126.10999999998668,
            "value": 0.23622047244094488
          },
          {
            "number": 7,
            "time": 126.11499999998668,
            "value": 0.23622047244094488
          },
          {
            "number": 7,
            "time": 126.11999999998667,
            "value": 0.23622047244094488
          },
          {
            "number": 7,
            "time": 126.12499999998667,
            "value": 0.23622047244094488
          },
          {
            "number": 7,
            "time": 126.12999999998667,
            "value": 0.23622047244094488
          },
          {
            "number": 7,
            "time": 126.13499999998666,
            "value": 0.23622047244094488
          },
          {
            "number": 7,
            "time": 126.13999999998666,
            "value": 0.23622047244094488
          },
          {
            "number": 7,
            "time": 126.14499999998665,
            "value": 0.23622047244094488
          },
          {
            "number": 7,
            "time": 126.14999999998665,
            "value": 0.23622047244094488
          },
          {
            "number": 7,
            "time": 126.15499999998664,
            "value": 0.23622047244094488
          },
          {
            "number": 7,
            "time": 126.15999999998664,
            "value": 0.23622047244094488
          },
          {
            "number": 7,
            "time": 126.16499999998663,
            "value": 0.23622047244094488
          },
          {
            "number": 7,
            "time": 126.16999999998663,
            "value": 0.23622047244094488
          },
          {
            "number": 7,
            "time": 126.17499999998662,
            "value": 0.23622047244094488
          },
          {
            "number": 7,
            "time": 126.17999999998662,
            "value": 0.23622047244094488
          },
          {
            "number": 7,
            "time": 126.18499999998662,
            "value": 0.23622047244094488
          },
          {
            "number": 7,
            "time": 126.18999999998661,
            "value": 0.23622047244094488
          },
          {
            "number": 7,
            "time": 126.1949999999866,
            "value": 0.23622047244094488
          },
          {
            "number": 7,
            "time": 126.1999999999866,
            "value": 0.23622047244094488
          },
          {
            "number": 7,
            "time": 126.2049999999866,
            "value": 0.23622047244094488
          },
          {
            "number": 7,
            "time": 126.2099999999866,
            "value": 0.23622047244094488
          },
          {
            "number": 7,
            "time": 126.21499999998659,
            "value": 0.23622047244094488
          },
          {
            "number": 7,
            "time": 126.21999999998658,
            "value": 0.23622047244094488
          },
          {
            "number": 7,
            "time": 126.22499999998658,
            "value": 0.23622047244094488
          },
          {
            "number": 7,
            "time": 126.22999999998657,
            "value": 0.2283464566929134
          },
          {
            "number": 7,
            "time": 126.23499999998657,
            "value": 0.2283464566929134
          },
          {
            "number": 7,
            "time": 126.23999999998657,
            "value": 0.2283464566929134
          },
          {
            "number": 7,
            "time": 126.24499999998656,
            "value": 0.2283464566929134
          },
          {
            "number": 7,
            "time": 126.24999999998656,
            "value": 0.2283464566929134
          },
          {
            "number": 7,
            "time": 126.25499999998655,
            "value": 0.2283464566929134
          },
          {
            "number": 7,
            "time": 126.25999999998655,
            "value": 0.2283464566929134
          },
          {
            "number": 7,
            "time": 126.26499999998654,
            "value": 0.2283464566929134
          },
          {
            "number": 7,
            "time": 126.26999999998654,
            "value": 0.2283464566929134
          },
          {
            "number": 7,
            "time": 126.27499999998653,
            "value": 0.2283464566929134
          },
          {
            "number": 7,
            "time": 126.27999999998653,
            "value": 0.2283464566929134
          },
          {
            "number": 7,
            "time": 126.28499999998652,
            "value": 0.2283464566929134
          },
          {
            "number": 7,
            "time": 126.28999999998652,
            "value": 0.2283464566929134
          },
          {
            "number": 7,
            "time": 126.29499999998652,
            "value": 0.2283464566929134
          },
          {
            "number": 7,
            "time": 126.29999999998651,
            "value": 0.2283464566929134
          },
          {
            "number": 7,
            "time": 126.3049999999865,
            "value": 0.2283464566929134
          },
          {
            "number": 7,
            "time": 126.3099999999865,
            "value": 0.2283464566929134
          },
          {
            "number": 7,
            "time": 126.3149999999865,
            "value": 0.2283464566929134
          },
          {
            "number": 7,
            "time": 126.31999999998649,
            "value": 0.2283464566929134
          },
          {
            "number": 7,
            "time": 126.32499999998649,
            "value": 0.2283464566929134
          },
          {
            "number": 7,
            "time": 126.32999999998648,
            "value": 0.2283464566929134
          },
          {
            "number": 7,
            "time": 126.33499999998648,
            "value": 0.2283464566929134
          },
          {
            "number": 7,
            "time": 126.33999999998647,
            "value": 0.2283464566929134
          },
          {
            "number": 7,
            "time": 126.34499999998647,
            "value": 0.2283464566929134
          },
          {
            "number": 7,
            "time": 126.34999999998647,
            "value": 0.2283464566929134
          },
          {
            "number": 7,
            "time": 126.35499999998646,
            "value": 0.2283464566929134
          },
          {
            "number": 7,
            "time": 126.35999999998646,
            "value": 0.2283464566929134
          },
          {
            "number": 7,
            "time": 126.36499999998645,
            "value": 0.2283464566929134
          },
          {
            "number": 7,
            "time": 126.36999999998645,
            "value": 0.2283464566929134
          },
          {
            "number": 7,
            "time": 126.37499999998644,
            "value": 0.2283464566929134
          },
          {
            "number": 7,
            "time": 126.37999999998644,
            "value": 0.2204724409448819
          },
          {
            "number": 7,
            "time": 126.38499999998643,
            "value": 0.2204724409448819
          },
          {
            "number": 7,
            "time": 126.38999999998643,
            "value": 0.2204724409448819
          },
          {
            "number": 7,
            "time": 126.39499999998642,
            "value": 0.2204724409448819
          },
          {
            "number": 7,
            "time": 126.39999999998642,
            "value": 0.2204724409448819
          },
          {
            "number": 7,
            "time": 126.40499999998642,
            "value": 0.2204724409448819
          },
          {
            "number": 7,
            "time": 126.40999999998641,
            "value": 0.2204724409448819
          },
          {
            "number": 7,
            "time": 126.4149999999864,
            "value": 0.2204724409448819
          },
          {
            "number": 7,
            "time": 126.4199999999864,
            "value": 0.2204724409448819
          },
          {
            "number": 7,
            "time": 126.4249999999864,
            "value": 0.2204724409448819
          },
          {
            "number": 7,
            "time": 126.42999999998639,
            "value": 0.2204724409448819
          },
          {
            "number": 7,
            "time": 126.43499999998639,
            "value": 0.2204724409448819
          },
          {
            "number": 7,
            "time": 126.43999999998638,
            "value": 0.2204724409448819
          },
          {
            "number": 7,
            "time": 126.44499999998638,
            "value": 0.2204724409448819
          },
          {
            "number": 7,
            "time": 126.44999999998637,
            "value": 0.2204724409448819
          },
          {
            "number": 7,
            "time": 126.45499999998637,
            "value": 0.2204724409448819
          },
          {
            "number": 7,
            "time": 126.45999999998637,
            "value": 0.2204724409448819
          },
          {
            "number": 7,
            "time": 126.46499999998636,
            "value": 0.2204724409448819
          },
          {
            "number": 7,
            "time": 126.46999999998636,
            "value": 0.2204724409448819
          },
          {
            "number": 7,
            "time": 126.47499999998635,
            "value": 0.2204724409448819
          },
          {
            "number": 7,
            "time": 126.47999999998635,
            "value": 0.2204724409448819
          },
          {
            "number": 7,
            "time": 126.48499999998634,
            "value": 0.2204724409448819
          },
          {
            "number": 7,
            "time": 126.48999999998634,
            "value": 0.2204724409448819
          },
          {
            "number": 7,
            "time": 126.49499999998633,
            "value": 0.2204724409448819
          },
          {
            "number": 7,
            "time": 126.49999999998633,
            "value": 0.2204724409448819
          },
          {
            "number": 7,
            "time": 126.50499999998632,
            "value": 0.2204724409448819
          },
          {
            "number": 7,
            "time": 126.50999999998632,
            "value": 0.2204724409448819
          },
          {
            "number": 7,
            "time": 126.51499999998632,
            "value": 0.2204724409448819
          },
          {
            "number": 7,
            "time": 126.51999999998631,
            "value": 0.2204724409448819
          },
          {
            "number": 7,
            "time": 126.5249999999863,
            "value": 0.2125984251968504
          },
          {
            "number": 7,
            "time": 126.5299999999863,
            "value": 0.2125984251968504
          },
          {
            "number": 7,
            "time": 126.5349999999863,
            "value": 0.2125984251968504
          },
          {
            "number": 7,
            "time": 126.53999999998629,
            "value": 0.2125984251968504
          },
          {
            "number": 7,
            "time": 126.54499999998629,
            "value": 0.2125984251968504
          },
          {
            "number": 7,
            "time": 126.54999999998628,
            "value": 0.2125984251968504
          },
          {
            "number": 7,
            "time": 126.55499999998628,
            "value": 0.2125984251968504
          },
          {
            "number": 7,
            "time": 126.55999999998627,
            "value": 0.2125984251968504
          },
          {
            "number": 7,
            "time": 126.56499999998627,
            "value": 0.2125984251968504
          },
          {
            "number": 7,
            "time": 126.56999999998627,
            "value": 0.2125984251968504
          },
          {
            "number": 7,
            "time": 126.57499999998626,
            "value": 0.2125984251968504
          },
          {
            "number": 7,
            "time": 126.57999999998626,
            "value": 0.2125984251968504
          },
          {
            "number": 7,
            "time": 126.58499999998625,
            "value": 0.2125984251968504
          },
          {
            "number": 7,
            "time": 126.58999999998625,
            "value": 0.2125984251968504
          },
          {
            "number": 7,
            "time": 126.59499999998624,
            "value": 0.2125984251968504
          },
          {
            "number": 7,
            "time": 126.59999999998624,
            "value": 0.2125984251968504
          },
          {
            "number": 7,
            "time": 126.60499999998623,
            "value": 0.2125984251968504
          },
          {
            "number": 7,
            "time": 126.60999999998623,
            "value": 0.2125984251968504
          },
          {
            "number": 7,
            "time": 126.61499999998622,
            "value": 0.2125984251968504
          },
          {
            "number": 7,
            "time": 126.61999999998622,
            "value": 0.2125984251968504
          },
          {
            "number": 7,
            "time": 126.62499999998622,
            "value": 0.2125984251968504
          },
          {
            "number": 7,
            "time": 126.62999999998621,
            "value": 0.2125984251968504
          },
          {
            "number": 7,
            "time": 126.6349999999862,
            "value": 0.2125984251968504
          },
          {
            "number": 7,
            "time": 126.6399999999862,
            "value": 0.2125984251968504
          },
          {
            "number": 7,
            "time": 126.6449999999862,
            "value": 0.2125984251968504
          },
          {
            "number": 7,
            "time": 126.64999999998619,
            "value": 0.2125984251968504
          },
          {
            "number": 7,
            "time": 126.65499999998619,
            "value": 0.2125984251968504
          },
          {
            "number": 7,
            "time": 126.65999999998618,
            "value": 0.2125984251968504
          },
          {
            "number": 7,
            "time": 126.66499999998618,
            "value": 0.2125984251968504
          },
          {
            "number": 7,
            "time": 126.66999999998617,
            "value": 0.2125984251968504
          },
          {
            "number": 7,
            "time": 126.67499999998617,
            "value": 0.2047244094488189
          },
          {
            "number": 7,
            "time": 126.67999999998617,
            "value": 0.2047244094488189
          },
          {
            "number": 7,
            "time": 126.68499999998616,
            "value": 0.2047244094488189
          },
          {
            "number": 7,
            "time": 126.68999999998616,
            "value": 0.2047244094488189
          },
          {
            "number": 7,
            "time": 126.69499999998615,
            "value": 0.2047244094488189
          },
          {
            "number": 7,
            "time": 126.69999999998615,
            "value": 0.2047244094488189
          },
          {
            "number": 7,
            "time": 126.70499999998614,
            "value": 0.2047244094488189
          },
          {
            "number": 7,
            "time": 126.70999999998614,
            "value": 0.2047244094488189
          },
          {
            "number": 7,
            "time": 126.71499999998613,
            "value": 0.2047244094488189
          },
          {
            "number": 7,
            "time": 126.71999999998613,
            "value": 0.2047244094488189
          },
          {
            "number": 7,
            "time": 126.72499999998612,
            "value": 0.2047244094488189
          },
          {
            "number": 7,
            "time": 126.72999999998612,
            "value": 0.2047244094488189
          },
          {
            "number": 7,
            "time": 126.73499999998612,
            "value": 0.2047244094488189
          },
          {
            "number": 7,
            "time": 126.73999999998611,
            "value": 0.2047244094488189
          },
          {
            "number": 7,
            "time": 126.7449999999861,
            "value": 0.2047244094488189
          },
          {
            "number": 7,
            "time": 126.7499999999861,
            "value": 0.2047244094488189
          },
          {
            "number": 7,
            "time": 126.7549999999861,
            "value": 0.2047244094488189
          },
          {
            "number": 7,
            "time": 126.75999999998609,
            "value": 0.2047244094488189
          },
          {
            "number": 7,
            "time": 126.76499999998609,
            "value": 0.2047244094488189
          },
          {
            "number": 7,
            "time": 126.76999999998608,
            "value": 0.2047244094488189
          },
          {
            "number": 7,
            "time": 126.77499999998608,
            "value": 0.2047244094488189
          },
          {
            "number": 7,
            "time": 126.77999999998607,
            "value": 0.2047244094488189
          },
          {
            "number": 7,
            "time": 126.78499999998607,
            "value": 0.2047244094488189
          },
          {
            "number": 7,
            "time": 126.78999999998607,
            "value": 0.2047244094488189
          },
          {
            "number": 7,
            "time": 126.79499999998606,
            "value": 0.2047244094488189
          },
          {
            "number": 7,
            "time": 126.79999999998606,
            "value": 0.2047244094488189
          },
          {
            "number": 7,
            "time": 126.80499999998605,
            "value": 0.2047244094488189
          },
          {
            "number": 7,
            "time": 126.80999999998605,
            "value": 0.2047244094488189
          },
          {
            "number": 7,
            "time": 126.81499999998604,
            "value": 0.2047244094488189
          },
          {
            "number": 7,
            "time": 126.81999999998604,
            "value": 0.1968503937007874
          },
          {
            "number": 7,
            "time": 126.82499999998603,
            "value": 0.1968503937007874
          },
          {
            "number": 7,
            "time": 126.82999999998603,
            "value": 0.1968503937007874
          },
          {
            "number": 7,
            "time": 126.83499999998602,
            "value": 0.1968503937007874
          },
          {
            "number": 7,
            "time": 126.83999999998602,
            "value": 0.1968503937007874
          },
          {
            "number": 7,
            "time": 126.84499999998602,
            "value": 0.1968503937007874
          },
          {
            "number": 7,
            "time": 126.84999999998601,
            "value": 0.1968503937007874
          },
          {
            "number": 7,
            "time": 126.854999999986,
            "value": 0.1968503937007874
          },
          {
            "number": 7,
            "time": 126.859999999986,
            "value": 0.1968503937007874
          },
          {
            "number": 7,
            "time": 126.864999999986,
            "value": 0.1968503937007874
          },
          {
            "number": 7,
            "time": 126.86999999998599,
            "value": 0.1968503937007874
          },
          {
            "number": 7,
            "time": 126.87499999998599,
            "value": 0.1968503937007874
          },
          {
            "number": 7,
            "time": 126.87999999998598,
            "value": 0.1968503937007874
          },
          {
            "number": 7,
            "time": 126.88499999998598,
            "value": 0.1968503937007874
          },
          {
            "number": 7,
            "time": 126.88999999998597,
            "value": 0.1968503937007874
          },
          {
            "number": 7,
            "time": 126.89499999998597,
            "value": 0.1968503937007874
          },
          {
            "number": 7,
            "time": 126.89999999998597,
            "value": 0.1968503937007874
          },
          {
            "number": 7,
            "time": 126.90499999998596,
            "value": 0.1968503937007874
          },
          {
            "number": 7,
            "time": 126.90999999998596,
            "value": 0.1968503937007874
          },
          {
            "number": 7,
            "time": 126.91499999998595,
            "value": 0.1968503937007874
          },
          {
            "number": 7,
            "time": 126.91999999998595,
            "value": 0.1968503937007874
          },
          {
            "number": 7,
            "time": 126.92499999998594,
            "value": 0.1968503937007874
          },
          {
            "number": 7,
            "time": 126.92999999998594,
            "value": 0.1968503937007874
          },
          {
            "number": 7,
            "time": 126.93499999998593,
            "value": 0.1968503937007874
          },
          {
            "number": 7,
            "time": 126.93999999998593,
            "value": 0.1968503937007874
          },
          {
            "number": 7,
            "time": 126.94499999998592,
            "value": 0.1968503937007874
          },
          {
            "number": 7,
            "time": 126.94999999998592,
            "value": 0.1968503937007874
          },
          {
            "number": 7,
            "time": 126.95499999998592,
            "value": 0.1968503937007874
          },
          {
            "number": 7,
            "time": 126.95999999998591,
            "value": 0.1968503937007874
          },
          {
            "number": 7,
            "time": 126.9649999999859,
            "value": 0.1968503937007874
          },
          {
            "number": 7,
            "time": 126.9699999999859,
            "value": 0.1889763779527559
          },
          {
            "number": 7,
            "time": 126.9749999999859,
            "value": 0.1889763779527559
          },
          {
            "number": 7,
            "time": 126.97999999998589,
            "value": 0.1889763779527559
          },
          {
            "number": 7,
            "time": 126.98499999998589,
            "value": 0.1889763779527559
          },
          {
            "number": 7,
            "time": 126.98999999998588,
            "value": 0.1889763779527559
          },
          {
            "number": 7,
            "time": 126.99499999998588,
            "value": 0.1889763779527559
          },
          {
            "number": 7,
            "time": 126.99999999998587,
            "value": 0.1889763779527559
          },
          {
            "number": 7,
            "time": 127.00499999998587,
            "value": 0.1889763779527559
          },
          {
            "number": 7,
            "time": 127.00999999998587,
            "value": 0.1889763779527559
          },
          {
            "number": 7,
            "time": 127.01499999998586,
            "value": 0.1889763779527559
          },
          {
            "number": 7,
            "time": 127.01999999998586,
            "value": 0.1889763779527559
          },
          {
            "number": 7,
            "time": 127.02499999998585,
            "value": 0.1889763779527559
          },
          {
            "number": 7,
            "time": 127.02999999998585,
            "value": 0.1889763779527559
          },
          {
            "number": 7,
            "time": 127.03499999998584,
            "value": 0.1889763779527559
          },
          {
            "number": 7,
            "time": 127.03999999998584,
            "value": 0.1889763779527559
          },
          {
            "number": 7,
            "time": 127.04499999998583,
            "value": 0.1889763779527559
          },
          {
            "number": 7,
            "time": 127.04999999998583,
            "value": 0.1889763779527559
          },
          {
            "number": 7,
            "time": 127.05499999998582,
            "value": 0.1889763779527559
          },
          {
            "number": 7,
            "time": 127.05999999998582,
            "value": 0.1889763779527559
          },
          {
            "number": 7,
            "time": 127.06499999998582,
            "value": 0.1889763779527559
          },
          {
            "number": 7,
            "time": 127.06999999998581,
            "value": 0.1889763779527559
          },
          {
            "number": 7,
            "time": 127.0749999999858,
            "value": 0.1889763779527559
          },
          {
            "number": 7,
            "time": 127.0799999999858,
            "value": 0.1889763779527559
          },
          {
            "number": 7,
            "time": 127.0849999999858,
            "value": 0.1889763779527559
          },
          {
            "number": 7,
            "time": 127.08999999998579,
            "value": 0.1889763779527559
          },
          {
            "number": 7,
            "time": 127.09499999998579,
            "value": 0.1889763779527559
          },
          {
            "number": 7,
            "time": 127.09999999998578,
            "value": 0.1889763779527559
          },
          {
            "number": 7,
            "time": 127.10499999998578,
            "value": 0.1889763779527559
          },
          {
            "number": 7,
            "time": 127.10999999998577,
            "value": 0.1889763779527559
          },
          {
            "number": 7,
            "time": 127.11499999998577,
            "value": 0.18110236220472442
          },
          {
            "number": 7,
            "time": 127.11999999998577,
            "value": 0.18110236220472442
          },
          {
            "number": 7,
            "time": 127.12499999998576,
            "value": 0.18110236220472442
          },
          {
            "number": 7,
            "time": 127.12999999998576,
            "value": 0.18110236220472442
          },
          {
            "number": 7,
            "time": 127.13499999998575,
            "value": 0.18110236220472442
          },
          {
            "number": 7,
            "time": 127.13999999998575,
            "value": 0.18110236220472442
          },
          {
            "number": 7,
            "time": 127.14499999998574,
            "value": 0.18110236220472442
          },
          {
            "number": 7,
            "time": 127.14999999998574,
            "value": 0.18110236220472442
          },
          {
            "number": 7,
            "time": 127.15499999998573,
            "value": 0.18110236220472442
          },
          {
            "number": 7,
            "time": 127.15999999998573,
            "value": 0.18110236220472442
          },
          {
            "number": 7,
            "time": 127.16499999998572,
            "value": 0.18110236220472442
          },
          {
            "number": 7,
            "time": 127.16999999998572,
            "value": 0.18110236220472442
          },
          {
            "number": 7,
            "time": 127.17499999998572,
            "value": 0.18110236220472442
          },
          {
            "number": 7,
            "time": 127.17999999998571,
            "value": 0.18110236220472442
          },
          {
            "number": 7,
            "time": 127.1849999999857,
            "value": 0.18110236220472442
          },
          {
            "number": 7,
            "time": 127.1899999999857,
            "value": 0.18110236220472442
          },
          {
            "number": 7,
            "time": 127.1949999999857,
            "value": 0.18110236220472442
          },
          {
            "number": 7,
            "time": 127.19999999998569,
            "value": 0.18110236220472442
          },
          {
            "number": 7,
            "time": 127.20499999998569,
            "value": 0.18110236220472442
          },
          {
            "number": 7,
            "time": 127.20999999998568,
            "value": 0.18110236220472442
          },
          {
            "number": 7,
            "time": 127.21499999998568,
            "value": 0.18110236220472442
          },
          {
            "number": 7,
            "time": 127.21999999998567,
            "value": 0.18110236220472442
          },
          {
            "number": 7,
            "time": 127.22499999998567,
            "value": 0.18110236220472442
          },
          {
            "number": 7,
            "time": 127.22999999998567,
            "value": 0.18110236220472442
          },
          {
            "number": 7,
            "time": 127.23499999998566,
            "value": 0.18110236220472442
          },
          {
            "number": 7,
            "time": 127.23999999998566,
            "value": 0.18110236220472442
          },
          {
            "number": 7,
            "time": 127.24499999998565,
            "value": 0.18110236220472442
          },
          {
            "number": 7,
            "time": 127.24999999998565,
            "value": 0.18110236220472442
          },
          {
            "number": 7,
            "time": 127.25499999998564,
            "value": 0.18110236220472442
          },
          {
            "number": 7,
            "time": 127.25999999998564,
            "value": 0.18110236220472442
          },
          {
            "number": 7,
            "time": 127.26499999998563,
            "value": 0.1732283464566929
          },
          {
            "number": 7,
            "time": 127.26999999998563,
            "value": 0.1732283464566929
          },
          {
            "number": 7,
            "time": 127.27499999998562,
            "value": 0.1732283464566929
          },
          {
            "number": 7,
            "time": 127.27999999998562,
            "value": 0.1732283464566929
          },
          {
            "number": 7,
            "time": 127.28499999998562,
            "value": 0.1732283464566929
          },
          {
            "number": 7,
            "time": 127.28999999998561,
            "value": 0.1732283464566929
          },
          {
            "number": 7,
            "time": 127.2949999999856,
            "value": 0.1732283464566929
          },
          {
            "number": 7,
            "time": 127.2999999999856,
            "value": 0.1732283464566929
          },
          {
            "number": 7,
            "time": 127.3049999999856,
            "value": 0.1732283464566929
          },
          {
            "number": 7,
            "time": 127.30999999998559,
            "value": 0.1732283464566929
          },
          {
            "number": 7,
            "time": 127.31499999998559,
            "value": 0.1732283464566929
          },
          {
            "number": 7,
            "time": 127.31999999998558,
            "value": 0.1732283464566929
          },
          {
            "number": 7,
            "time": 127.32499999998558,
            "value": 0.1732283464566929
          },
          {
            "number": 7,
            "time": 127.32999999998557,
            "value": 0.1732283464566929
          },
          {
            "number": 7,
            "time": 127.33499999998557,
            "value": 0.1732283464566929
          },
          {
            "number": 7,
            "time": 127.33999999998557,
            "value": 0.1732283464566929
          },
          {
            "number": 7,
            "time": 127.34499999998556,
            "value": 0.1732283464566929
          },
          {
            "number": 7,
            "time": 127.34999999998556,
            "value": 0.1732283464566929
          },
          {
            "number": 7,
            "time": 127.35499999998555,
            "value": 0.1732283464566929
          },
          {
            "number": 7,
            "time": 127.35999999998555,
            "value": 0.1732283464566929
          },
          {
            "number": 7,
            "time": 127.36499999998554,
            "value": 0.1732283464566929
          },
          {
            "number": 7,
            "time": 127.36999999998554,
            "value": 0.1732283464566929
          },
          {
            "number": 7,
            "time": 127.37499999998553,
            "value": 0.1732283464566929
          },
          {
            "number": 7,
            "time": 127.37999999998553,
            "value": 0.1732283464566929
          },
          {
            "number": 7,
            "time": 127.38499999998552,
            "value": 0.1732283464566929
          },
          {
            "number": 7,
            "time": 127.38999999998552,
            "value": 0.1732283464566929
          },
          {
            "number": 7,
            "time": 127.39499999998552,
            "value": 0.1732283464566929
          },
          {
            "number": 7,
            "time": 127.39999999998551,
            "value": 0.1732283464566929
          },
          {
            "number": 7,
            "time": 127.4049999999855,
            "value": 0.1732283464566929
          },
          {
            "number": 7,
            "time": 127.4099999999855,
            "value": 0.16535433070866143
          },
          {
            "number": 7,
            "time": 127.4149999999855,
            "value": 0.16535433070866143
          },
          {
            "number": 7,
            "time": 127.41999999998549,
            "value": 0.16535433070866143
          },
          {
            "number": 7,
            "time": 127.42499999998549,
            "value": 0.16535433070866143
          },
          {
            "number": 7,
            "time": 127.42999999998548,
            "value": 0.16535433070866143
          },
          {
            "number": 7,
            "time": 127.43499999998548,
            "value": 0.16535433070866143
          },
          {
            "number": 7,
            "time": 127.43999999998547,
            "value": 0.16535433070866143
          },
          {
            "number": 7,
            "time": 127.44499999998547,
            "value": 0.16535433070866143
          },
          {
            "number": 7,
            "time": 127.44999999998547,
            "value": 0.16535433070866143
          },
          {
            "number": 7,
            "time": 127.45499999998546,
            "value": 0.16535433070866143
          },
          {
            "number": 7,
            "time": 127.45999999998546,
            "value": 0.16535433070866143
          },
          {
            "number": 7,
            "time": 127.46499999998545,
            "value": 0.16535433070866143
          },
          {
            "number": 7,
            "time": 127.46999999998545,
            "value": 0.16535433070866143
          },
          {
            "number": 7,
            "time": 127.47499999998544,
            "value": 0.16535433070866143
          },
          {
            "number": 7,
            "time": 127.47999999998544,
            "value": 0.16535433070866143
          },
          {
            "number": 7,
            "time": 127.48499999998543,
            "value": 0.16535433070866143
          },
          {
            "number": 7,
            "time": 127.48999999998543,
            "value": 0.16535433070866143
          },
          {
            "number": 7,
            "time": 127.49499999998542,
            "value": 0.16535433070866143
          },
          {
            "number": 7,
            "time": 127.49999999998542,
            "value": 0.16535433070866143
          },
          {
            "number": 7,
            "time": 127.50499999998542,
            "value": 0.16535433070866143
          },
          {
            "number": 7,
            "time": 127.50999999998541,
            "value": 0.16535433070866143
          },
          {
            "number": 7,
            "time": 127.5149999999854,
            "value": 0.16535433070866143
          },
          {
            "number": 7,
            "time": 127.5199999999854,
            "value": 0.16535433070866143
          },
          {
            "number": 7,
            "time": 127.5249999999854,
            "value": 0.16535433070866143
          },
          {
            "number": 7,
            "time": 127.52999999998539,
            "value": 0.16535433070866143
          },
          {
            "number": 7,
            "time": 127.53499999998539,
            "value": 0.16535433070866143
          },
          {
            "number": 7,
            "time": 127.53999999998538,
            "value": 0.16535433070866143
          },
          {
            "number": 7,
            "time": 127.54499999998538,
            "value": 0.16535433070866143
          },
          {
            "number": 7,
            "time": 127.54999999998537,
            "value": 0.16535433070866143
          },
          {
            "number": 7,
            "time": 127.55499999998537,
            "value": 0.16535433070866143
          },
          {
            "number": 7,
            "time": 127.55999999998537,
            "value": 0.15748031496062992
          },
          {
            "number": 7,
            "time": 127.56499999998536,
            "value": 0.15748031496062992
          },
          {
            "number": 7,
            "time": 127.56999999998536,
            "value": 0.15748031496062992
          },
          {
            "number": 7,
            "time": 127.57499999998535,
            "value": 0.15748031496062992
          },
          {
            "number": 7,
            "time": 127.57999999998535,
            "value": 0.15748031496062992
          },
          {
            "number": 7,
            "time": 127.58499999998534,
            "value": 0.15748031496062992
          },
          {
            "number": 7,
            "time": 127.58999999998534,
            "value": 0.15748031496062992
          },
          {
            "number": 7,
            "time": 127.59499999998533,
            "value": 0.15748031496062992
          },
          {
            "number": 7,
            "time": 127.59999999998533,
            "value": 0.15748031496062992
          },
          {
            "number": 7,
            "time": 127.60499999998532,
            "value": 0.15748031496062992
          },
          {
            "number": 7,
            "time": 127.60999999998532,
            "value": 0.15748031496062992
          },
          {
            "number": 7,
            "time": 127.61499999998532,
            "value": 0.15748031496062992
          },
          {
            "number": 7,
            "time": 127.61999999998531,
            "value": 0.15748031496062992
          },
          {
            "number": 7,
            "time": 127.6249999999853,
            "value": 0.15748031496062992
          },
          {
            "number": 7,
            "time": 127.6299999999853,
            "value": 0.15748031496062992
          },
          {
            "number": 7,
            "time": 127.6349999999853,
            "value": 0.15748031496062992
          },
          {
            "number": 7,
            "time": 127.63999999998529,
            "value": 0.15748031496062992
          },
          {
            "number": 7,
            "time": 127.64499999998529,
            "value": 0.15748031496062992
          },
          {
            "number": 7,
            "time": 127.64999999998528,
            "value": 0.15748031496062992
          },
          {
            "number": 7,
            "time": 127.65499999998528,
            "value": 0.15748031496062992
          },
          {
            "number": 7,
            "time": 127.65999999998527,
            "value": 0.15748031496062992
          },
          {
            "number": 7,
            "time": 127.66499999998527,
            "value": 0.15748031496062992
          },
          {
            "number": 7,
            "time": 127.66999999998527,
            "value": 0.15748031496062992
          },
          {
            "number": 7,
            "time": 127.67499999998526,
            "value": 0.15748031496062992
          },
          {
            "number": 7,
            "time": 127.67999999998526,
            "value": 0.15748031496062992
          },
          {
            "number": 7,
            "time": 127.68499999998525,
            "value": 0.15748031496062992
          },
          {
            "number": 7,
            "time": 127.68999999998525,
            "value": 0.15748031496062992
          },
          {
            "number": 7,
            "time": 127.69499999998524,
            "value": 0.15748031496062992
          },
          {
            "number": 7,
            "time": 127.69999999998524,
            "value": 0.15748031496062992
          },
          {
            "number": 7,
            "time": 127.70499999998523,
            "value": 0.15748031496062992
          },
          {
            "number": 7,
            "time": 127.70999999998523,
            "value": 0.14960629921259844
          },
          {
            "number": 7,
            "time": 127.71499999998522,
            "value": 0.14960629921259844
          },
          {
            "number": 7,
            "time": 127.71999999998522,
            "value": 0.14960629921259844
          },
          {
            "number": 7,
            "time": 127.72499999998522,
            "value": 0.14960629921259844
          },
          {
            "number": 7,
            "time": 127.72999999998521,
            "value": 0.14960629921259844
          },
          {
            "number": 7,
            "time": 127.7349999999852,
            "value": 0.14960629921259844
          },
          {
            "number": 7,
            "time": 127.7399999999852,
            "value": 0.14960629921259844
          },
          {
            "number": 7,
            "time": 127.7449999999852,
            "value": 0.14960629921259844
          },
          {
            "number": 7,
            "time": 127.74999999998519,
            "value": 0.14960629921259844
          },
          {
            "number": 7,
            "time": 127.75499999998519,
            "value": 0.14960629921259844
          },
          {
            "number": 7,
            "time": 127.75999999998518,
            "value": 0.14960629921259844
          },
          {
            "number": 7,
            "time": 127.76499999998518,
            "value": 0.14960629921259844
          },
          {
            "number": 7,
            "time": 127.76999999998517,
            "value": 0.14960629921259844
          },
          {
            "number": 7,
            "time": 127.77499999998517,
            "value": 0.14960629921259844
          },
          {
            "number": 7,
            "time": 127.77999999998517,
            "value": 0.14960629921259844
          },
          {
            "number": 7,
            "time": 127.78499999998516,
            "value": 0.14960629921259844
          },
          {
            "number": 7,
            "time": 127.78999999998516,
            "value": 0.14960629921259844
          },
          {
            "number": 7,
            "time": 127.79499999998515,
            "value": 0.14960629921259844
          },
          {
            "number": 7,
            "time": 127.79999999998515,
            "value": 0.14960629921259844
          },
          {
            "number": 7,
            "time": 127.80499999998514,
            "value": 0.14960629921259844
          },
          {
            "number": 7,
            "time": 127.80999999998514,
            "value": 0.14960629921259844
          },
          {
            "number": 7,
            "time": 127.81499999998513,
            "value": 0.14960629921259844
          },
          {
            "number": 7,
            "time": 127.81999999998513,
            "value": 0.14960629921259844
          },
          {
            "number": 7,
            "time": 127.82499999998512,
            "value": 0.14960629921259844
          },
          {
            "number": 7,
            "time": 127.82999999998512,
            "value": 0.14960629921259844
          },
          {
            "number": 7,
            "time": 127.83499999998511,
            "value": 0.14960629921259844
          },
          {
            "number": 7,
            "time": 127.83999999998511,
            "value": 0.14960629921259844
          },
          {
            "number": 7,
            "time": 127.8449999999851,
            "value": 0.14960629921259844
          },
          {
            "number": 7,
            "time": 127.8499999999851,
            "value": 0.14960629921259844
          },
          {
            "number": 7,
            "time": 127.8549999999851,
            "value": 0.14173228346456693
          },
          {
            "number": 7,
            "time": 127.85999999998509,
            "value": 0.14173228346456693
          },
          {
            "number": 7,
            "time": 127.86499999998509,
            "value": 0.14173228346456693
          },
          {
            "number": 7,
            "time": 127.86999999998508,
            "value": 0.14173228346456693
          },
          {
            "number": 7,
            "time": 127.87499999998508,
            "value": 0.14173228346456693
          },
          {
            "number": 7,
            "time": 127.87999999998507,
            "value": 0.14173228346456693
          },
          {
            "number": 7,
            "time": 127.88499999998507,
            "value": 0.14173228346456693
          },
          {
            "number": 7,
            "time": 127.88999999998506,
            "value": 0.14173228346456693
          },
          {
            "number": 7,
            "time": 127.89499999998506,
            "value": 0.14173228346456693
          },
          {
            "number": 7,
            "time": 127.89999999998506,
            "value": 0.14173228346456693
          },
          {
            "number": 7,
            "time": 127.90499999998505,
            "value": 0.14173228346456693
          },
          {
            "number": 7,
            "time": 127.90999999998505,
            "value": 0.14173228346456693
          },
          {
            "number": 7,
            "time": 127.91499999998504,
            "value": 0.14173228346456693
          },
          {
            "number": 7,
            "time": 127.91999999998504,
            "value": 0.14173228346456693
          },
          {
            "number": 7,
            "time": 127.92499999998503,
            "value": 0.14173228346456693
          },
          {
            "number": 7,
            "time": 127.92999999998503,
            "value": 0.14173228346456693
          },
          {
            "number": 7,
            "time": 127.93499999998502,
            "value": 0.14173228346456693
          },
          {
            "number": 7,
            "time": 127.93999999998502,
            "value": 0.14173228346456693
          },
          {
            "number": 7,
            "time": 127.94499999998501,
            "value": 0.14173228346456693
          },
          {
            "number": 7,
            "time": 127.94999999998501,
            "value": 0.14173228346456693
          },
          {
            "number": 7,
            "time": 127.954999999985,
            "value": 0.14173228346456693
          },
          {
            "number": 7,
            "time": 127.959999999985,
            "value": 0.14173228346456693
          },
          {
            "number": 7,
            "time": 127.964999999985,
            "value": 0.14173228346456693
          },
          {
            "number": 7,
            "time": 127.96999999998499,
            "value": 0.14173228346456693
          },
          {
            "number": 7,
            "time": 127.97499999998499,
            "value": 0.14173228346456693
          },
          {
            "number": 7,
            "time": 127.97999999998498,
            "value": 0.14173228346456693
          },
          {
            "number": 7,
            "time": 127.98499999998498,
            "value": 0.14173228346456693
          },
          {
            "number": 7,
            "time": 127.98999999998497,
            "value": 0.14173228346456693
          },
          {
            "number": 7,
            "time": 127.99499999998497,
            "value": 0.14173228346456693
          },
          {
            "number": 7,
            "time": 127.99999999998496,
            "value": 0.14173228346456693
          },
          {
            "number": 7,
            "time": 128.00499999998496,
            "value": 0.13385826771653545
          },
          {
            "number": 7,
            "time": 128.00999999998496,
            "value": 0.13385826771653545
          },
          {
            "number": 7,
            "time": 128.01499999998495,
            "value": 0.13385826771653545
          },
          {
            "number": 7,
            "time": 128.01999999998495,
            "value": 0.13385826771653545
          },
          {
            "number": 7,
            "time": 128.02499999998494,
            "value": 0.13385826771653545
          },
          {
            "number": 7,
            "time": 128.02999999998494,
            "value": 0.13385826771653545
          },
          {
            "number": 7,
            "time": 128.03499999998493,
            "value": 0.13385826771653545
          },
          {
            "number": 7,
            "time": 128.03999999998493,
            "value": 0.13385826771653545
          },
          {
            "number": 7,
            "time": 128.04499999998492,
            "value": 0.13385826771653545
          },
          {
            "number": 7,
            "time": 128.04999999998492,
            "value": 0.13385826771653545
          },
          {
            "number": 7,
            "time": 128.05499999998491,
            "value": 0.13385826771653545
          },
          {
            "number": 7,
            "time": 128.0599999999849,
            "value": 0.13385826771653545
          },
          {
            "number": 7,
            "time": 128.0649999999849,
            "value": 0.13385826771653545
          },
          {
            "number": 7,
            "time": 128.0699999999849,
            "value": 0.13385826771653545
          },
          {
            "number": 7,
            "time": 128.0749999999849,
            "value": 0.13385826771653545
          },
          {
            "number": 7,
            "time": 128.0799999999849,
            "value": 0.13385826771653545
          },
          {
            "number": 7,
            "time": 128.0849999999849,
            "value": 0.13385826771653545
          },
          {
            "number": 7,
            "time": 128.08999999998488,
            "value": 0.13385826771653545
          },
          {
            "number": 7,
            "time": 128.09499999998488,
            "value": 0.13385826771653545
          },
          {
            "number": 7,
            "time": 128.09999999998487,
            "value": 0.13385826771653545
          },
          {
            "number": 7,
            "time": 128.10499999998487,
            "value": 0.13385826771653545
          },
          {
            "number": 7,
            "time": 128.10999999998486,
            "value": 0.13385826771653545
          },
          {
            "number": 7,
            "time": 128.11499999998486,
            "value": 0.13385826771653545
          },
          {
            "number": 7,
            "time": 128.11999999998486,
            "value": 0.13385826771653545
          },
          {
            "number": 7,
            "time": 128.12499999998485,
            "value": 0.13385826771653545
          },
          {
            "number": 7,
            "time": 128.12999999998485,
            "value": 0.13385826771653545
          },
          {
            "number": 7,
            "time": 128.13499999998484,
            "value": 0.13385826771653545
          },
          {
            "number": 7,
            "time": 128.13999999998484,
            "value": 0.13385826771653545
          },
          {
            "number": 7,
            "time": 128.14499999998483,
            "value": 0.13385826771653545
          },
          {
            "number": 7,
            "time": 128.14999999998483,
            "value": 0.12598425196850394
          },
          {
            "number": 7,
            "time": 128.15499999998482,
            "value": 0.12598425196850394
          },
          {
            "number": 7,
            "time": 128.15999999998482,
            "value": 0.12598425196850394
          },
          {
            "number": 7,
            "time": 128.16499999998481,
            "value": 0.12598425196850394
          },
          {
            "number": 7,
            "time": 128.1699999999848,
            "value": 0.12598425196850394
          },
          {
            "number": 7,
            "time": 128.1749999999848,
            "value": 0.12598425196850394
          },
          {
            "number": 7,
            "time": 128.1799999999848,
            "value": 0.12598425196850394
          },
          {
            "number": 7,
            "time": 128.1849999999848,
            "value": 0.12598425196850394
          },
          {
            "number": 7,
            "time": 128.1899999999848,
            "value": 0.12598425196850394
          },
          {
            "number": 7,
            "time": 128.1949999999848,
            "value": 0.12598425196850394
          },
          {
            "number": 7,
            "time": 128.19999999998478,
            "value": 0.12598425196850394
          },
          {
            "number": 7,
            "time": 128.20499999998478,
            "value": 0.12598425196850394
          },
          {
            "number": 7,
            "time": 128.20999999998477,
            "value": 0.12598425196850394
          },
          {
            "number": 7,
            "time": 128.21499999998477,
            "value": 0.12598425196850394
          },
          {
            "number": 7,
            "time": 128.21999999998476,
            "value": 0.12598425196850394
          },
          {
            "number": 7,
            "time": 128.22499999998476,
            "value": 0.12598425196850394
          },
          {
            "number": 7,
            "time": 128.22999999998476,
            "value": 0.12598425196850394
          },
          {
            "number": 7,
            "time": 128.23499999998475,
            "value": 0.12598425196850394
          },
          {
            "number": 7,
            "time": 128.23999999998475,
            "value": 0.12598425196850394
          },
          {
            "number": 7,
            "time": 128.24499999998474,
            "value": 0.12598425196850394
          },
          {
            "number": 7,
            "time": 128.24999999998474,
            "value": 0.12598425196850394
          },
          {
            "number": 7,
            "time": 128.25499999998473,
            "value": 0.12598425196850394
          },
          {
            "number": 7,
            "time": 128.25999999998473,
            "value": 0.12598425196850394
          },
          {
            "number": 7,
            "time": 128.26499999998472,
            "value": 0.12598425196850394
          },
          {
            "number": 7,
            "time": 128.26999999998472,
            "value": 0.12598425196850394
          },
          {
            "number": 7,
            "time": 128.27499999998471,
            "value": 0.12598425196850394
          },
          {
            "number": 7,
            "time": 128.2799999999847,
            "value": 0.12598425196850394
          },
          {
            "number": 7,
            "time": 128.2849999999847,
            "value": 0.12598425196850394
          },
          {
            "number": 7,
            "time": 128.2899999999847,
            "value": 0.12598425196850394
          },
          {
            "number": 7,
            "time": 128.2949999999847,
            "value": 0.12598425196850394
          },
          {
            "number": 7,
            "time": 128.2999999999847,
            "value": 0.11811023622047244
          },
          {
            "number": 7,
            "time": 128.3049999999847,
            "value": 0.11811023622047244
          },
          {
            "number": 7,
            "time": 128.30999999998468,
            "value": 0.11811023622047244
          },
          {
            "number": 7,
            "time": 128.31499999998468,
            "value": 0.11811023622047244
          },
          {
            "number": 7,
            "time": 128.31999999998467,
            "value": 0.11811023622047244
          },
          {
            "number": 7,
            "time": 128.32499999998467,
            "value": 0.11811023622047244
          },
          {
            "number": 7,
            "time": 128.32999999998466,
            "value": 0.11811023622047244
          },
          {
            "number": 7,
            "time": 128.33499999998466,
            "value": 0.11811023622047244
          },
          {
            "number": 7,
            "time": 128.33999999998466,
            "value": 0.11811023622047244
          },
          {
            "number": 7,
            "time": 128.34499999998465,
            "value": 0.11811023622047244
          },
          {
            "number": 7,
            "time": 128.34999999998465,
            "value": 0.11811023622047244
          },
          {
            "number": 7,
            "time": 128.35499999998464,
            "value": 0.11811023622047244
          },
          {
            "number": 7,
            "time": 128.35999999998464,
            "value": 0.11811023622047244
          },
          {
            "number": 7,
            "time": 128.36499999998463,
            "value": 0.11811023622047244
          },
          {
            "number": 7,
            "time": 128.36999999998463,
            "value": 0.11811023622047244
          },
          {
            "number": 7,
            "time": 128.37499999998462,
            "value": 0.11811023622047244
          },
          {
            "number": 7,
            "time": 128.37999999998462,
            "value": 0.11811023622047244
          },
          {
            "number": 7,
            "time": 128.38499999998461,
            "value": 0.11811023622047244
          },
          {
            "number": 7,
            "time": 128.3899999999846,
            "value": 0.11811023622047244
          },
          {
            "number": 7,
            "time": 128.3949999999846,
            "value": 0.11811023622047244
          },
          {
            "number": 7,
            "time": 128.3999999999846,
            "value": 0.11811023622047244
          },
          {
            "number": 7,
            "time": 128.4049999999846,
            "value": 0.11811023622047244
          },
          {
            "number": 7,
            "time": 128.4099999999846,
            "value": 0.11811023622047244
          },
          {
            "number": 7,
            "time": 128.4149999999846,
            "value": 0.11811023622047244
          },
          {
            "number": 7,
            "time": 128.41999999998458,
            "value": 0.11811023622047244
          },
          {
            "number": 7,
            "time": 128.42499999998458,
            "value": 0.11811023622047244
          },
          {
            "number": 7,
            "time": 128.42999999998457,
            "value": 0.11811023622047244
          },
          {
            "number": 7,
            "time": 128.43499999998457,
            "value": 0.11811023622047244
          },
          {
            "number": 7,
            "time": 128.43999999998456,
            "value": 0.11811023622047244
          },
          {
            "number": 7,
            "time": 128.44499999998456,
            "value": 0.11023622047244094
          },
          {
            "number": 7,
            "time": 128.44999999998456,
            "value": 0.11023622047244094
          },
          {
            "number": 7,
            "time": 128.45499999998455,
            "value": 0.11023622047244094
          },
          {
            "number": 7,
            "time": 128.45999999998455,
            "value": 0.11023622047244094
          },
          {
            "number": 7,
            "time": 128.46499999998454,
            "value": 0.11023622047244094
          },
          {
            "number": 7,
            "time": 128.46999999998454,
            "value": 0.11023622047244094
          },
          {
            "number": 7,
            "time": 128.47499999998453,
            "value": 0.11023622047244094
          },
          {
            "number": 7,
            "time": 128.47999999998453,
            "value": 0.11023622047244094
          },
          {
            "number": 7,
            "time": 128.48499999998452,
            "value": 0.11023622047244094
          },
          {
            "number": 7,
            "time": 128.48999999998452,
            "value": 0.11023622047244094
          },
          {
            "number": 7,
            "time": 128.49499999998451,
            "value": 0.11023622047244094
          },
          {
            "number": 7,
            "time": 128.4999999999845,
            "value": 0.11023622047244094
          },
          {
            "number": 7,
            "time": 128.5049999999845,
            "value": 0.11023622047244094
          },
          {
            "number": 7,
            "time": 128.5099999999845,
            "value": 0.11023622047244094
          },
          {
            "number": 7,
            "time": 128.5149999999845,
            "value": 0.11023622047244094
          },
          {
            "number": 7,
            "time": 128.5199999999845,
            "value": 0.11023622047244094
          },
          {
            "number": 7,
            "time": 128.5249999999845,
            "value": 0.11023622047244094
          },
          {
            "number": 7,
            "time": 128.52999999998448,
            "value": 0.11023622047244094
          },
          {
            "number": 7,
            "time": 128.53499999998448,
            "value": 0.11023622047244094
          },
          {
            "number": 7,
            "time": 128.53999999998447,
            "value": 0.11023622047244094
          },
          {
            "number": 7,
            "time": 128.54499999998447,
            "value": 0.11023622047244094
          },
          {
            "number": 7,
            "time": 128.54999999998446,
            "value": 0.11023622047244094
          },
          {
            "number": 7,
            "time": 128.55499999998446,
            "value": 0.11023622047244094
          },
          {
            "number": 7,
            "time": 128.55999999998446,
            "value": 0.11023622047244094
          },
          {
            "number": 7,
            "time": 128.56499999998445,
            "value": 0.11023622047244094
          },
          {
            "number": 7,
            "time": 128.56999999998445,
            "value": 0.11023622047244094
          },
          {
            "number": 7,
            "time": 128.57499999998444,
            "value": 0.11023622047244094
          },
          {
            "number": 7,
            "time": 128.57999999998444,
            "value": 0.11023622047244094
          },
          {
            "number": 7,
            "time": 128.58499999998443,
            "value": 0.11023622047244094
          },
          {
            "number": 7,
            "time": 128.58999999998443,
            "value": 0.11023622047244094
          },
          {
            "number": 7,
            "time": 128.59499999998442,
            "value": 0.10236220472440945
          },
          {
            "number": 7,
            "time": 128.59999999998442,
            "value": 0.10236220472440945
          },
          {
            "number": 7,
            "time": 128.60499999998441,
            "value": 0.10236220472440945
          },
          {
            "number": 7,
            "time": 128.6099999999844,
            "value": 0.10236220472440945
          },
          {
            "number": 7,
            "time": 128.6149999999844,
            "value": 0.10236220472440945
          },
          {
            "number": 7,
            "time": 128.6199999999844,
            "value": 0.10236220472440945
          },
          {
            "number": 7,
            "time": 128.6249999999844,
            "value": 0.10236220472440945
          },
          {
            "number": 7,
            "time": 128.6299999999844,
            "value": 0.10236220472440945
          },
          {
            "number": 7,
            "time": 128.6349999999844,
            "value": 0.10236220472440945
          },
          {
            "number": 7,
            "time": 128.63999999998438,
            "value": 0.10236220472440945
          },
          {
            "number": 7,
            "time": 128.64499999998438,
            "value": 0.10236220472440945
          },
          {
            "number": 7,
            "time": 128.64999999998437,
            "value": 0.10236220472440945
          },
          {
            "number": 7,
            "time": 128.65499999998437,
            "value": 0.10236220472440945
          },
          {
            "number": 7,
            "time": 128.65999999998436,
            "value": 0.10236220472440945
          },
          {
            "number": 7,
            "time": 128.66499999998436,
            "value": 0.10236220472440945
          },
          {
            "number": 7,
            "time": 128.66999999998436,
            "value": 0.10236220472440945
          },
          {
            "number": 7,
            "time": 128.67499999998435,
            "value": 0.10236220472440945
          },
          {
            "number": 7,
            "time": 128.67999999998435,
            "value": 0.10236220472440945
          },
          {
            "number": 7,
            "time": 128.68499999998434,
            "value": 0.10236220472440945
          },
          {
            "number": 7,
            "time": 128.68999999998434,
            "value": 0.10236220472440945
          },
          {
            "number": 7,
            "time": 128.69499999998433,
            "value": 0.10236220472440945
          },
          {
            "number": 7,
            "time": 128.69999999998433,
            "value": 0.10236220472440945
          },
          {
            "number": 7,
            "time": 128.70499999998432,
            "value": 0.10236220472440945
          },
          {
            "number": 7,
            "time": 128.70999999998432,
            "value": 0.10236220472440945
          },
          {
            "number": 7,
            "time": 128.71499999998431,
            "value": 0.10236220472440945
          },
          {
            "number": 7,
            "time": 128.7199999999843,
            "value": 0.10236220472440945
          },
          {
            "number": 7,
            "time": 128.7249999999843,
            "value": 0.10236220472440945
          },
          {
            "number": 7,
            "time": 128.7299999999843,
            "value": 0.10236220472440945
          },
          {
            "number": 7,
            "time": 128.7349999999843,
            "value": 0.10236220472440945
          },
          {
            "number": 7,
            "time": 128.7399999999843,
            "value": 0.10236220472440945
          },
          {
            "number": 7,
            "time": 128.7449999999843,
            "value": 0.09448818897637795
          },
          {
            "number": 7,
            "time": 128.74999999998428,
            "value": 0.09448818897637795
          },
          {
            "number": 7,
            "time": 128.75499999998428,
            "value": 0.09448818897637795
          },
          {
            "number": 7,
            "time": 128.75999999998427,
            "value": 0.09448818897637795
          },
          {
            "number": 7,
            "time": 128.76499999998427,
            "value": 0.09448818897637795
          },
          {
            "number": 7,
            "time": 128.76999999998426,
            "value": 0.09448818897637795
          },
          {
            "number": 7,
            "time": 128.77499999998426,
            "value": 0.09448818897637795
          },
          {
            "number": 7,
            "time": 128.77999999998426,
            "value": 0.09448818897637795
          },
          {
            "number": 7,
            "time": 128.78499999998425,
            "value": 0.09448818897637795
          },
          {
            "number": 7,
            "time": 128.78999999998425,
            "value": 0.09448818897637795
          },
          {
            "number": 7,
            "time": 128.79499999998424,
            "value": 0.09448818897637795
          },
          {
            "number": 7,
            "time": 128.79999999998424,
            "value": 0.09448818897637795
          },
          {
            "number": 7,
            "time": 128.80499999998423,
            "value": 0.09448818897637795
          },
          {
            "number": 7,
            "time": 128.80999999998423,
            "value": 0.09448818897637795
          },
          {
            "number": 7,
            "time": 128.81499999998422,
            "value": 0.09448818897637795
          },
          {
            "number": 7,
            "time": 128.81999999998422,
            "value": 0.09448818897637795
          },
          {
            "number": 7,
            "time": 128.82499999998421,
            "value": 0.09448818897637795
          },
          {
            "number": 7,
            "time": 128.8299999999842,
            "value": 0.09448818897637795
          },
          {
            "number": 7,
            "time": 128.8349999999842,
            "value": 0.09448818897637795
          },
          {
            "number": 7,
            "time": 128.8399999999842,
            "value": 0.09448818897637795
          },
          {
            "number": 7,
            "time": 128.8449999999842,
            "value": 0.09448818897637795
          },
          {
            "number": 7,
            "time": 128.8499999999842,
            "value": 0.09448818897637795
          },
          {
            "number": 7,
            "time": 128.8549999999842,
            "value": 0.09448818897637795
          },
          {
            "number": 7,
            "time": 128.85999999998418,
            "value": 0.09448818897637795
          },
          {
            "number": 7,
            "time": 128.86499999998418,
            "value": 0.09448818897637795
          },
          {
            "number": 7,
            "time": 128.86999999998417,
            "value": 0.09448818897637795
          },
          {
            "number": 7,
            "time": 128.87499999998417,
            "value": 0.09448818897637795
          },
          {
            "number": 7,
            "time": 128.87999999998416,
            "value": 0.09448818897637795
          },
          {
            "number": 7,
            "time": 128.88499999998416,
            "value": 0.09448818897637795
          },
          {
            "number": 7,
            "time": 128.88999999998416,
            "value": 0.08661417322834646
          },
          {
            "number": 7,
            "time": 128.89499999998415,
            "value": 0.08661417322834646
          },
          {
            "number": 7,
            "time": 128.89999999998415,
            "value": 0.08661417322834646
          },
          {
            "number": 7,
            "time": 128.90499999998414,
            "value": 0.08661417322834646
          },
          {
            "number": 7,
            "time": 128.90999999998414,
            "value": 0.08661417322834646
          },
          {
            "number": 7,
            "time": 128.91499999998413,
            "value": 0.08661417322834646
          },
          {
            "number": 7,
            "time": 128.91999999998413,
            "value": 0.08661417322834646
          },
          {
            "number": 7,
            "time": 128.92499999998412,
            "value": 0.08661417322834646
          },
          {
            "number": 7,
            "time": 128.92999999998412,
            "value": 0.08661417322834646
          },
          {
            "number": 7,
            "time": 128.93499999998411,
            "value": 0.08661417322834646
          },
          {
            "number": 7,
            "time": 128.9399999999841,
            "value": 0.08661417322834646
          },
          {
            "number": 7,
            "time": 128.9449999999841,
            "value": 0.08661417322834646
          },
          {
            "number": 7,
            "time": 128.9499999999841,
            "value": 0.08661417322834646
          },
          {
            "number": 7,
            "time": 128.9549999999841,
            "value": 0.08661417322834646
          },
          {
            "number": 7,
            "time": 128.9599999999841,
            "value": 0.08661417322834646
          },
          {
            "number": 7,
            "time": 128.9649999999841,
            "value": 0.08661417322834646
          },
          {
            "number": 7,
            "time": 128.96999999998408,
            "value": 0.08661417322834646
          },
          {
            "number": 7,
            "time": 128.97499999998408,
            "value": 0.08661417322834646
          },
          {
            "number": 7,
            "time": 128.97999999998407,
            "value": 0.08661417322834646
          },
          {
            "number": 7,
            "time": 128.98499999998407,
            "value": 0.08661417322834646
          },
          {
            "number": 7,
            "time": 128.98999999998406,
            "value": 0.08661417322834646
          },
          {
            "number": 7,
            "time": 128.99499999998406,
            "value": 0.08661417322834646
          },
          {
            "number": 7,
            "time": 128.99999999998406,
            "value": 0.08661417322834646
          },
          {
            "number": 7,
            "time": 129.00499999998405,
            "value": 0.08661417322834646
          },
          {
            "number": 7,
            "time": 129.00999999998405,
            "value": 0.08661417322834646
          },
          {
            "number": 7,
            "time": 129.01499999998404,
            "value": 0.08661417322834646
          },
          {
            "number": 7,
            "time": 129.01999999998404,
            "value": 0.08661417322834646
          },
          {
            "number": 7,
            "time": 129.02499999998403,
            "value": 0.08661417322834646
          },
          {
            "number": 7,
            "time": 129.02999999998403,
            "value": 0.08661417322834646
          },
          {
            "number": 7,
            "time": 129.03499999998402,
            "value": 0.08661417322834646
          },
          {
            "number": 7,
            "time": 129.03999999998402,
            "value": 0.07874015748031496
          },
          {
            "number": 7,
            "time": 129.04499999998401,
            "value": 0.07874015748031496
          },
          {
            "number": 7,
            "time": 129.049999999984,
            "value": 0.07874015748031496
          },
          {
            "number": 7,
            "time": 129.054999999984,
            "value": 0.07874015748031496
          },
          {
            "number": 7,
            "time": 129.059999999984,
            "value": 0.07874015748031496
          },
          {
            "number": 7,
            "time": 129.064999999984,
            "value": 0.07874015748031496
          },
          {
            "number": 7,
            "time": 129.069999999984,
            "value": 0.07874015748031496
          },
          {
            "number": 7,
            "time": 129.074999999984,
            "value": 0.07874015748031496
          },
          {
            "number": 7,
            "time": 129.07999999998398,
            "value": 0.07874015748031496
          },
          {
            "number": 7,
            "time": 129.08499999998398,
            "value": 0.07874015748031496
          },
          {
            "number": 7,
            "time": 129.08999999998397,
            "value": 0.07874015748031496
          },
          {
            "number": 7,
            "time": 129.09499999998397,
            "value": 0.07874015748031496
          },
          {
            "number": 7,
            "time": 129.09999999998396,
            "value": 0.07874015748031496
          },
          {
            "number": 7,
            "time": 129.10499999998396,
            "value": 0.07874015748031496
          },
          {
            "number": 7,
            "time": 129.10999999998396,
            "value": 0.07874015748031496
          },
          {
            "number": 7,
            "time": 129.11499999998395,
            "value": 0.07874015748031496
          },
          {
            "number": 7,
            "time": 129.11999999998395,
            "value": 0.07874015748031496
          },
          {
            "number": 7,
            "time": 129.12499999998394,
            "value": 0.07874015748031496
          },
          {
            "number": 7,
            "time": 129.12999999998394,
            "value": 0.07874015748031496
          },
          {
            "number": 7,
            "time": 129.13499999998393,
            "value": 0.07874015748031496
          },
          {
            "number": 7,
            "time": 129.13999999998393,
            "value": 0.07874015748031496
          },
          {
            "number": 7,
            "time": 129.14499999998392,
            "value": 0.07874015748031496
          },
          {
            "number": 7,
            "time": 129.14999999998392,
            "value": 0.07874015748031496
          },
          {
            "number": 7,
            "time": 129.15499999998391,
            "value": 0.07874015748031496
          },
          {
            "number": 7,
            "time": 129.1599999999839,
            "value": 0.07874015748031496
          },
          {
            "number": 7,
            "time": 129.1649999999839,
            "value": 0.07874015748031496
          },
          {
            "number": 7,
            "time": 129.1699999999839,
            "value": 0.07874015748031496
          },
          {
            "number": 7,
            "time": 129.1749999999839,
            "value": 0.07874015748031496
          },
          {
            "number": 7,
            "time": 129.1799999999839,
            "value": 0.07874015748031496
          },
          {
            "number": 7,
            "time": 129.1849999999839,
            "value": 0.07086614173228346
          },
          {
            "number": 7,
            "time": 129.18999999998388,
            "value": 0.07086614173228346
          },
          {
            "number": 7,
            "time": 129.19499999998388,
            "value": 0.07086614173228346
          },
          {
            "number": 7,
            "time": 129.19999999998387,
            "value": 0.07086614173228346
          },
          {
            "number": 7,
            "time": 129.20499999998387,
            "value": 0.07086614173228346
          },
          {
            "number": 7,
            "time": 129.20999999998386,
            "value": 0.07086614173228346
          },
          {
            "number": 7,
            "time": 129.21499999998386,
            "value": 0.07086614173228346
          },
          {
            "number": 7,
            "time": 129.21999999998386,
            "value": 0.07086614173228346
          },
          {
            "number": 7,
            "time": 129.22499999998385,
            "value": 0.07086614173228346
          },
          {
            "number": 7,
            "time": 129.22999999998385,
            "value": 0.07086614173228346
          },
          {
            "number": 7,
            "time": 129.23499999998384,
            "value": 0.07086614173228346
          },
          {
            "number": 7,
            "time": 129.23999999998384,
            "value": 0.07086614173228346
          },
          {
            "number": 7,
            "time": 129.24499999998383,
            "value": 0.07086614173228346
          },
          {
            "number": 7,
            "time": 129.24999999998383,
            "value": 0.07086614173228346
          },
          {
            "number": 7,
            "time": 129.25499999998382,
            "value": 0.07086614173228346
          },
          {
            "number": 7,
            "time": 129.25999999998382,
            "value": 0.07086614173228346
          },
          {
            "number": 7,
            "time": 129.26499999998381,
            "value": 0.07086614173228346
          },
          {
            "number": 7,
            "time": 129.2699999999838,
            "value": 0.07086614173228346
          },
          {
            "number": 7,
            "time": 129.2749999999838,
            "value": 0.07086614173228346
          },
          {
            "number": 7,
            "time": 129.2799999999838,
            "value": 0.07086614173228346
          },
          {
            "number": 7,
            "time": 129.2849999999838,
            "value": 0.07086614173228346
          },
          {
            "number": 7,
            "time": 129.2899999999838,
            "value": 0.07086614173228346
          },
          {
            "number": 7,
            "time": 129.2949999999838,
            "value": 0.07086614173228346
          },
          {
            "number": 7,
            "time": 129.29999999998378,
            "value": 0.07086614173228346
          },
          {
            "number": 7,
            "time": 129.30499999998378,
            "value": 0.07086614173228346
          },
          {
            "number": 7,
            "time": 129.30999999998377,
            "value": 0.07086614173228346
          },
          {
            "number": 7,
            "time": 129.31499999998377,
            "value": 0.07086614173228346
          },
          {
            "number": 7,
            "time": 129.31999999998376,
            "value": 0.07086614173228346
          },
          {
            "number": 7,
            "time": 129.32499999998376,
            "value": 0.07086614173228346
          },
          {
            "number": 7,
            "time": 129.32999999998376,
            "value": 0.07086614173228346
          },
          {
            "number": 7,
            "time": 129.33499999998375,
            "value": 0.06299212598425197
          },
          {
            "number": 7,
            "time": 129.33999999998375,
            "value": 0.06299212598425197
          },
          {
            "number": 7,
            "time": 129.34499999998374,
            "value": 0.06299212598425197
          },
          {
            "number": 7,
            "time": 129.34999999998374,
            "value": 0.06299212598425197
          },
          {
            "number": 7,
            "time": 129.35499999998373,
            "value": 0.06299212598425197
          },
          {
            "number": 7,
            "time": 129.35999999998373,
            "value": 0.06299212598425197
          },
          {
            "number": 7,
            "time": 129.36499999998372,
            "value": 0.06299212598425197
          },
          {
            "number": 7,
            "time": 129.36999999998372,
            "value": 0.06299212598425197
          },
          {
            "number": 7,
            "time": 129.37499999998371,
            "value": 0.06299212598425197
          },
          {
            "number": 7,
            "time": 129.3799999999837,
            "value": 0.06299212598425197
          },
          {
            "number": 7,
            "time": 129.3849999999837,
            "value": 0.06299212598425197
          },
          {
            "number": 7,
            "time": 129.3899999999837,
            "value": 0.06299212598425197
          },
          {
            "number": 7,
            "time": 129.3949999999837,
            "value": 0.06299212598425197
          },
          {
            "number": 7,
            "time": 129.3999999999837,
            "value": 0.06299212598425197
          },
          {
            "number": 7,
            "time": 129.4049999999837,
            "value": 0.06299212598425197
          },
          {
            "number": 7,
            "time": 129.40999999998368,
            "value": 0.06299212598425197
          },
          {
            "number": 7,
            "time": 129.41499999998368,
            "value": 0.06299212598425197
          },
          {
            "number": 7,
            "time": 129.41999999998367,
            "value": 0.06299212598425197
          },
          {
            "number": 7,
            "time": 129.42499999998367,
            "value": 0.06299212598425197
          },
          {
            "number": 7,
            "time": 129.42999999998366,
            "value": 0.06299212598425197
          },
          {
            "number": 7,
            "time": 129.43499999998366,
            "value": 0.06299212598425197
          },
          {
            "number": 7,
            "time": 129.43999999998366,
            "value": 0.06299212598425197
          },
          {
            "number": 7,
            "time": 129.44499999998365,
            "value": 0.06299212598425197
          },
          {
            "number": 7,
            "time": 129.44999999998365,
            "value": 0.06299212598425197
          },
          {
            "number": 7,
            "time": 129.45499999998364,
            "value": 0.06299212598425197
          },
          {
            "number": 7,
            "time": 129.45999999998364,
            "value": 0.06299212598425197
          },
          {
            "number": 7,
            "time": 129.46499999998363,
            "value": 0.06299212598425197
          },
          {
            "number": 7,
            "time": 129.46999999998363,
            "value": 0.06299212598425197
          },
          {
            "number": 7,
            "time": 129.47499999998362,
            "value": 0.06299212598425197
          },
          {
            "number": 7,
            "time": 129.47999999998362,
            "value": 0.05511811023622047
          },
          {
            "number": 7,
            "time": 129.48499999998361,
            "value": 0.05511811023622047
          },
          {
            "number": 7,
            "time": 129.4899999999836,
            "value": 0.05511811023622047
          },
          {
            "number": 7,
            "time": 129.4949999999836,
            "value": 0.05511811023622047
          },
          {
            "number": 7,
            "time": 129.4999999999836,
            "value": 0.05511811023622047
          },
          {
            "number": 7,
            "time": 129.5049999999836,
            "value": 0.05511811023622047
          },
          {
            "number": 7,
            "time": 129.5099999999836,
            "value": 0.05511811023622047
          },
          {
            "number": 7,
            "time": 129.5149999999836,
            "value": 0.05511811023622047
          },
          {
            "number": 7,
            "time": 129.51999999998358,
            "value": 0.05511811023622047
          },
          {
            "number": 7,
            "time": 129.52499999998358,
            "value": 0.05511811023622047
          },
          {
            "number": 7,
            "time": 129.52999999998357,
            "value": 0.05511811023622047
          },
          {
            "number": 7,
            "time": 129.53499999998357,
            "value": 0.05511811023622047
          },
          {
            "number": 7,
            "time": 129.53999999998356,
            "value": 0.05511811023622047
          },
          {
            "number": 7,
            "time": 129.54499999998356,
            "value": 0.05511811023622047
          },
          {
            "number": 7,
            "time": 129.54999999998356,
            "value": 0.05511811023622047
          },
          {
            "number": 7,
            "time": 129.55499999998355,
            "value": 0.05511811023622047
          },
          {
            "number": 7,
            "time": 129.55999999998355,
            "value": 0.05511811023622047
          },
          {
            "number": 7,
            "time": 129.56499999998354,
            "value": 0.05511811023622047
          },
          {
            "number": 7,
            "time": 129.56999999998354,
            "value": 0.05511811023622047
          },
          {
            "number": 7,
            "time": 129.57499999998353,
            "value": 0.05511811023622047
          },
          {
            "number": 7,
            "time": 129.57999999998353,
            "value": 0.05511811023622047
          },
          {
            "number": 7,
            "time": 129.58499999998352,
            "value": 0.05511811023622047
          },
          {
            "number": 7,
            "time": 129.58999999998352,
            "value": 0.05511811023622047
          },
          {
            "number": 7,
            "time": 129.59499999998351,
            "value": 0.05511811023622047
          },
          {
            "number": 7,
            "time": 129.5999999999835,
            "value": 0.05511811023622047
          },
          {
            "number": 7,
            "time": 129.6049999999835,
            "value": 0.05511811023622047
          },
          {
            "number": 7,
            "time": 129.6099999999835,
            "value": 0.05511811023622047
          },
          {
            "number": 7,
            "time": 129.6149999999835,
            "value": 0.05511811023622047
          },
          {
            "number": 7,
            "time": 129.6199999999835,
            "value": 0.05511811023622047
          },
          {
            "number": 7,
            "time": 129.6249999999835,
            "value": 0.05511811023622047
          },
          {
            "number": 7,
            "time": 129.62999999998348,
            "value": 0.047244094488188976
          },
          {
            "number": 7,
            "time": 129.63499999998348,
            "value": 0.047244094488188976
          },
          {
            "number": 7,
            "time": 129.63999999998347,
            "value": 0.047244094488188976
          },
          {
            "number": 7,
            "time": 129.64499999998347,
            "value": 0.047244094488188976
          },
          {
            "number": 7,
            "time": 129.64999999998346,
            "value": 0.047244094488188976
          },
          {
            "number": 7,
            "time": 129.65499999998346,
            "value": 0.047244094488188976
          },
          {
            "number": 7,
            "time": 129.65999999998346,
            "value": 0.047244094488188976
          },
          {
            "number": 7,
            "time": 129.66499999998345,
            "value": 0.047244094488188976
          },
          {
            "number": 7,
            "time": 129.66999999998345,
            "value": 0.047244094488188976
          },
          {
            "number": 7,
            "time": 129.67499999998344,
            "value": 0.047244094488188976
          },
          {
            "number": 7,
            "time": 129.67999999998344,
            "value": 0.047244094488188976
          },
          {
            "number": 7,
            "time": 129.68499999998343,
            "value": 0.047244094488188976
          },
          {
            "number": 7,
            "time": 129.68999999998343,
            "value": 0.047244094488188976
          },
          {
            "number": 7,
            "time": 129.69499999998342,
            "value": 0.047244094488188976
          },
          {
            "number": 7,
            "time": 129.69999999998342,
            "value": 0.047244094488188976
          },
          {
            "number": 7,
            "time": 129.70499999998341,
            "value": 0.047244094488188976
          },
          {
            "number": 7,
            "time": 129.7099999999834,
            "value": 0.047244094488188976
          },
          {
            "number": 7,
            "time": 129.7149999999834,
            "value": 0.047244094488188976
          },
          {
            "number": 7,
            "time": 129.7199999999834,
            "value": 0.047244094488188976
          },
          {
            "number": 7,
            "time": 129.7249999999834,
            "value": 0.047244094488188976
          },
          {
            "number": 7,
            "time": 129.7299999999834,
            "value": 0.047244094488188976
          },
          {
            "number": 7,
            "time": 129.7349999999834,
            "value": 0.047244094488188976
          },
          {
            "number": 7,
            "time": 129.73999999998338,
            "value": 0.047244094488188976
          },
          {
            "number": 7,
            "time": 129.74499999998338,
            "value": 0.047244094488188976
          },
          {
            "number": 7,
            "time": 129.74999999998337,
            "value": 0.047244094488188976
          },
          {
            "number": 7,
            "time": 129.75499999998337,
            "value": 0.047244094488188976
          },
          {
            "number": 7,
            "time": 129.75999999998336,
            "value": 0.047244094488188976
          },
          {
            "number": 7,
            "time": 129.76499999998336,
            "value": 0.047244094488188976
          },
          {
            "number": 7,
            "time": 129.76999999998336,
            "value": 0.047244094488188976
          },
          {
            "number": 7,
            "time": 129.77499999998335,
            "value": 0.03937007874015748
          },
          {
            "number": 7,
            "time": 129.77999999998335,
            "value": 0.03937007874015748
          },
          {
            "number": 7,
            "time": 129.78499999998334,
            "value": 0.03937007874015748
          },
          {
            "number": 7,
            "time": 129.78999999998334,
            "value": 0.03937007874015748
          },
          {
            "number": 7,
            "time": 129.79499999998333,
            "value": 0.03937007874015748
          },
          {
            "number": 7,
            "time": 129.79999999998333,
            "value": 0.03937007874015748
          },
          {
            "number": 7,
            "time": 129.80499999998332,
            "value": 0.03937007874015748
          },
          {
            "number": 7,
            "time": 129.80999999998332,
            "value": 0.03937007874015748
          },
          {
            "number": 7,
            "time": 129.8149999999833,
            "value": 0.03937007874015748
          },
          {
            "number": 7,
            "time": 129.8199999999833,
            "value": 0.03937007874015748
          },
          {
            "number": 7,
            "time": 129.8249999999833,
            "value": 0.03937007874015748
          },
          {
            "number": 7,
            "time": 129.8299999999833,
            "value": 0.03937007874015748
          },
          {
            "number": 7,
            "time": 129.8349999999833,
            "value": 0.03937007874015748
          },
          {
            "number": 7,
            "time": 129.8399999999833,
            "value": 0.03937007874015748
          },
          {
            "number": 7,
            "time": 129.8449999999833,
            "value": 0.03937007874015748
          },
          {
            "number": 7,
            "time": 129.84999999998328,
            "value": 0.03937007874015748
          },
          {
            "number": 7,
            "time": 129.85499999998328,
            "value": 0.03937007874015748
          },
          {
            "number": 7,
            "time": 129.85999999998327,
            "value": 0.03937007874015748
          },
          {
            "number": 7,
            "time": 129.86499999998327,
            "value": 0.03937007874015748
          },
          {
            "number": 7,
            "time": 129.86999999998326,
            "value": 0.03937007874015748
          },
          {
            "number": 7,
            "time": 129.87499999998326,
            "value": 0.03937007874015748
          },
          {
            "number": 7,
            "time": 129.87999999998326,
            "value": 0.03937007874015748
          },
          {
            "number": 7,
            "time": 129.88499999998325,
            "value": 0.03937007874015748
          },
          {
            "number": 7,
            "time": 129.88999999998325,
            "value": 0.03937007874015748
          },
          {
            "number": 7,
            "time": 129.89499999998324,
            "value": 0.03937007874015748
          },
          {
            "number": 7,
            "time": 129.89999999998324,
            "value": 0.03937007874015748
          },
          {
            "number": 7,
            "time": 129.90499999998323,
            "value": 0.03937007874015748
          },
          {
            "number": 7,
            "time": 129.90999999998323,
            "value": 0.03937007874015748
          },
          {
            "number": 7,
            "time": 129.91499999998322,
            "value": 0.03937007874015748
          },
          {
            "number": 7,
            "time": 129.91999999998322,
            "value": 0.03937007874015748
          },
          {
            "number": 7,
            "time": 129.9249999999832,
            "value": 0.031496062992125984
          },
          {
            "number": 7,
            "time": 129.9299999999832,
            "value": 0.031496062992125984
          },
          {
            "number": 7,
            "time": 129.9349999999832,
            "value": 0.031496062992125984
          },
          {
            "number": 7,
            "time": 129.9399999999832,
            "value": 0.031496062992125984
          },
          {
            "number": 7,
            "time": 129.9449999999832,
            "value": 0.031496062992125984
          },
          {
            "number": 7,
            "time": 129.9499999999832,
            "value": 0.031496062992125984
          },
          {
            "number": 7,
            "time": 129.9549999999832,
            "value": 0.031496062992125984
          },
          {
            "number": 7,
            "time": 129.95999999998318,
            "value": 0.031496062992125984
          },
          {
            "number": 7,
            "time": 129.96499999998318,
            "value": 0.031496062992125984
          },
          {
            "number": 7,
            "time": 129.96999999998317,
            "value": 0.031496062992125984
          },
          {
            "number": 7,
            "time": 129.97499999998317,
            "value": 0.031496062992125984
          },
          {
            "number": 7,
            "time": 129.97999999998316,
            "value": 0.031496062992125984
          },
          {
            "number": 7,
            "time": 129.98499999998316,
            "value": 0.031496062992125984
          },
          {
            "number": 7,
            "time": 129.98999999998316,
            "value": 0.031496062992125984
          },
          {
            "number": 7,
            "time": 129.99499999998315,
            "value": 0.031496062992125984
          },
          {
            "number": 7,
            "time": 129.99999999998315,
            "value": 0.031496062992125984
          },
          {
            "number": 7,
            "time": 130.00499999998314,
            "value": 0.031496062992125984
          },
          {
            "number": 7,
            "time": 130.00999999998314,
            "value": 0.031496062992125984
          },
          {
            "number": 7,
            "time": 130.01499999998313,
            "value": 0.031496062992125984
          },
          {
            "number": 7,
            "time": 130.01999999998313,
            "value": 0.031496062992125984
          },
          {
            "number": 7,
            "time": 130.02499999998312,
            "value": 0.031496062992125984
          },
          {
            "number": 7,
            "time": 130.02999999998312,
            "value": 0.031496062992125984
          },
          {
            "number": 7,
            "time": 130.0349999999831,
            "value": 0.031496062992125984
          },
          {
            "number": 7,
            "time": 130.0399999999831,
            "value": 0.031496062992125984
          },
          {
            "number": 7,
            "time": 130.0449999999831,
            "value": 0.031496062992125984
          },
          {
            "number": 7,
            "time": 130.0499999999831,
            "value": 0.031496062992125984
          },
          {
            "number": 7,
            "time": 130.0549999999831,
            "value": 0.031496062992125984
          },
          {
            "number": 7,
            "time": 130.0599999999831,
            "value": 0.031496062992125984
          },
          {
            "number": 7,
            "time": 130.0649999999831,
            "value": 0.031496062992125984
          },
          {
            "number": 7,
            "time": 130.06999999998308,
            "value": 0.031496062992125984
          },
          {
            "number": 7,
            "time": 130.07499999998308,
            "value": 0.023622047244094488
          },
          {
            "number": 7,
            "time": 130.07999999998307,
            "value": 0.023622047244094488
          },
          {
            "number": 7,
            "time": 130.08499999998307,
            "value": 0.023622047244094488
          },
          {
            "number": 7,
            "time": 130.08999999998306,
            "value": 0.023622047244094488
          },
          {
            "number": 7,
            "time": 130.09499999998306,
            "value": 0.023622047244094488
          },
          {
            "number": 7,
            "time": 130.09999999998305,
            "value": 0.023622047244094488
          },
          {
            "number": 7,
            "time": 130.10499999998305,
            "value": 0.023622047244094488
          },
          {
            "number": 7,
            "time": 130.10999999998305,
            "value": 0.023622047244094488
          },
          {
            "number": 7,
            "time": 130.11499999998304,
            "value": 0.023622047244094488
          },
          {
            "number": 7,
            "time": 130.11999999998304,
            "value": 0.023622047244094488
          },
          {
            "number": 7,
            "time": 130.12499999998303,
            "value": 0.023622047244094488
          },
          {
            "number": 7,
            "time": 130.12999999998303,
            "value": 0.023622047244094488
          },
          {
            "number": 7,
            "time": 130.13499999998302,
            "value": 0.023622047244094488
          },
          {
            "number": 7,
            "time": 130.13999999998302,
            "value": 0.023622047244094488
          },
          {
            "number": 7,
            "time": 130.144999999983,
            "value": 0.023622047244094488
          },
          {
            "number": 7,
            "time": 130.149999999983,
            "value": 0.023622047244094488
          },
          {
            "number": 7,
            "time": 130.154999999983,
            "value": 0.023622047244094488
          },
          {
            "number": 7,
            "time": 130.159999999983,
            "value": 0.023622047244094488
          },
          {
            "number": 7,
            "time": 130.164999999983,
            "value": 0.023622047244094488
          },
          {
            "number": 7,
            "time": 130.169999999983,
            "value": 0.023622047244094488
          },
          {
            "number": 7,
            "time": 130.174999999983,
            "value": 0.023622047244094488
          },
          {
            "number": 7,
            "time": 130.17999999998298,
            "value": 0.023622047244094488
          },
          {
            "number": 7,
            "time": 130.18499999998298,
            "value": 0.023622047244094488
          },
          {
            "number": 7,
            "time": 130.18999999998297,
            "value": 0.023622047244094488
          },
          {
            "number": 7,
            "time": 130.19499999998297,
            "value": 0.023622047244094488
          },
          {
            "number": 7,
            "time": 130.19999999998296,
            "value": 0.023622047244094488
          },
          {
            "number": 7,
            "time": 130.20499999998296,
            "value": 0.023622047244094488
          },
          {
            "number": 7,
            "time": 130.20999999998295,
            "value": 0.023622047244094488
          },
          {
            "number": 7,
            "time": 130.21499999998295,
            "value": 0.023622047244094488
          },
          {
            "number": 7,
            "time": 130.21999999998295,
            "value": 0.015748031496062992
          },
          {
            "number": 7,
            "time": 130.22499999998294,
            "value": 0.015748031496062992
          },
          {
            "number": 7,
            "time": 130.22999999998294,
            "value": 0.015748031496062992
          },
          {
            "number": 7,
            "time": 130.23499999998293,
            "value": 0.015748031496062992
          },
          {
            "number": 7,
            "time": 130.23999999998293,
            "value": 0.015748031496062992
          },
          {
            "number": 7,
            "time": 130.24499999998292,
            "value": 0.015748031496062992
          },
          {
            "number": 7,
            "time": 130.24999999998292,
            "value": 0.015748031496062992
          },
          {
            "number": 7,
            "time": 130.2549999999829,
            "value": 0.015748031496062992
          },
          {
            "number": 7,
            "time": 130.2599999999829,
            "value": 0.015748031496062992
          },
          {
            "number": 7,
            "time": 130.2649999999829,
            "value": 0.015748031496062992
          },
          {
            "number": 7,
            "time": 130.2699999999829,
            "value": 0.015748031496062992
          },
          {
            "number": 7,
            "time": 130.2749999999829,
            "value": 0.015748031496062992
          },
          {
            "number": 7,
            "time": 130.2799999999829,
            "value": 0.015748031496062992
          },
          {
            "number": 7,
            "time": 130.2849999999829,
            "value": 0.015748031496062992
          },
          {
            "number": 7,
            "time": 130.28999999998288,
            "value": 0.015748031496062992
          },
          {
            "number": 7,
            "time": 130.29499999998288,
            "value": 0.015748031496062992
          },
          {
            "number": 7,
            "time": 130.29999999998287,
            "value": 0.015748031496062992
          },
          {
            "number": 7,
            "time": 130.30499999998287,
            "value": 0.015748031496062992
          },
          {
            "number": 7,
            "time": 130.30999999998286,
            "value": 0.015748031496062992
          },
          {
            "number": 7,
            "time": 130.31499999998286,
            "value": 0.015748031496062992
          },
          {
            "number": 7,
            "time": 130.31999999998285,
            "value": 0.015748031496062992
          },
          {
            "number": 7,
            "time": 130.32499999998285,
            "value": 0.015748031496062992
          },
          {
            "number": 7,
            "time": 130.32999999998285,
            "value": 0.015748031496062992
          },
          {
            "number": 7,
            "time": 130.33499999998284,
            "value": 0.015748031496062992
          },
          {
            "number": 7,
            "time": 130.33999999998284,
            "value": 0.015748031496062992
          },
          {
            "number": 7,
            "time": 130.34499999998283,
            "value": 0.015748031496062992
          },
          {
            "number": 7,
            "time": 130.34999999998283,
            "value": 0.015748031496062992
          },
          {
            "number": 7,
            "time": 130.35499999998282,
            "value": 0.015748031496062992
          },
          {
            "number": 7,
            "time": 130.35999999998282,
            "value": 0.015748031496062992
          },
          {
            "number": 7,
            "time": 130.3649999999828,
            "value": 0.015748031496062992
          },
          {
            "number": 7,
            "time": 130.3699999999828,
            "value": 0.007874015748031496
          },
          {
            "number": 7,
            "time": 130.3749999999828,
            "value": 0.007874015748031496
          },
          {
            "number": 7,
            "time": 130.3799999999828,
            "value": 0.007874015748031496
          },
          {
            "number": 7,
            "time": 130.3849999999828,
            "value": 0.007874015748031496
          },
          {
            "number": 7,
            "time": 130.3899999999828,
            "value": 0.007874015748031496
          },
          {
            "number": 7,
            "time": 130.3949999999828,
            "value": 0.007874015748031496
          },
          {
            "number": 7,
            "time": 130.39999999998278,
            "value": 0.007874015748031496
          },
          {
            "number": 7,
            "time": 130.40499999998278,
            "value": 0.007874015748031496
          },
          {
            "number": 7,
            "time": 130.40999999998277,
            "value": 0.007874015748031496
          },
          {
            "number": 7,
            "time": 130.41499999998277,
            "value": 0.007874015748031496
          },
          {
            "number": 7,
            "time": 130.41999999998276,
            "value": 0.007874015748031496
          },
          {
            "number": 7,
            "time": 130.42499999998276,
            "value": 0.007874015748031496
          },
          {
            "number": 7,
            "time": 130.42999999998275,
            "value": 0.007874015748031496
          },
          {
            "number": 7,
            "time": 130.43499999998275,
            "value": 0.007874015748031496
          },
          {
            "number": 7,
            "time": 130.43999999998275,
            "value": 0.007874015748031496
          },
          {
            "number": 7,
            "time": 130.44499999998274,
            "value": 0.007874015748031496
          },
          {
            "number": 7,
            "time": 130.44999999998274,
            "value": 0.007874015748031496
          },
          {
            "number": 7,
            "time": 130.45499999998273,
            "value": 0.007874015748031496
          },
          {
            "number": 7,
            "time": 130.45999999998273,
            "value": 0.007874015748031496
          },
          {
            "number": 7,
            "time": 130.46499999998272,
            "value": 0.007874015748031496
          },
          {
            "number": 7,
            "time": 130.46999999998272,
            "value": 0.007874015748031496
          },
          {
            "number": 7,
            "time": 130.4749999999827,
            "value": 0.007874015748031496
          },
          {
            "number": 7,
            "time": 130.4799999999827,
            "value": 0.007874015748031496
          },
          {
            "number": 7,
            "time": 130.4849999999827,
            "value": 0.007874015748031496
          },
          {
            "number": 7,
            "time": 130.4899999999827,
            "value": 0.007874015748031496
          },
          {
            "number": 7,
            "time": 130.4949999999827,
            "value": 0.007874015748031496
          },
          {
            "number": 7,
            "time": 130.4999999999827,
            "value": 0.007874015748031496
          },
          {
            "number": 7,
            "time": 130.5049999999827,
            "value": 0.007874015748031496
          },
          {
            "number": 7,
            "time": 130.50999999998268,
            "value": 0.007874015748031496
          },
          {
            "number": 7,
            "time": 130.51499999998268,
            "value": 0
          },
          {
            "number": 7,
            "time": 130.51999999998267,
            "value": 0
          },
          {
            "number": 7,
            "time": 130.52499999998267,
            "value": 0
          },
          {
            "number": 7,
            "time": 130.52999999998266,
            "value": 0
          },
          {
            "number": 7,
            "time": 130.53499999998266,
            "value": 0
          },
          {
            "number": 7,
            "time": 130.53999999998265,
            "value": 0
          },
          {
            "number": 7,
            "time": 130.54499999998265,
            "value": 0
          },
          {
            "number": 7,
            "time": 130.54999999998265,
            "value": 0
          },
          {
            "number": 7,
            "time": 130.55499999998264,
            "value": 0
          }
        ],
        "10": [
          {
            "number": 10,
            "time": 0,
            "value": 0
          },
          {
            "number": 10,
            "time": 111.47999999999999,
            "value": 0.5039370078740157
          },
          {
            "number": 10,
            "time": 116.12999999999576,
            "value": 0.5118110236220472
          },
          {
            "number": 10,
            "time": 116.13499999999576,
            "value": 0.5039370078740157
          },
          {
            "number": 10,
            "time": 116.13999999999575,
            "value": 0.5039370078740157
          },
          {
            "number": 10,
            "time": 116.14499999999575,
            "value": 0.5039370078740157
          },
          {
            "number": 10,
            "time": 116.14999999999574,
            "value": 0.5039370078740157
          },
          {
            "number": 10,
            "time": 116.15499999999574,
            "value": 0.5196850393700787
          },
          {
            "number": 10,
            "time": 116.15999999999573,
            "value": 0.5196850393700787
          },
          {
            "number": 10,
            "time": 116.16499999999573,
            "value": 0.5196850393700787
          },
          {
            "number": 10,
            "time": 116.16999999999572,
            "value": 0.5196850393700787
          },
          {
            "number": 10,
            "time": 116.17499999999572,
            "value": 0.5118110236220472
          },
          {
            "number": 10,
            "time": 116.17999999999572,
            "value": 0.5118110236220472
          },
          {
            "number": 10,
            "time": 116.18499999999571,
            "value": 0.5118110236220472
          },
          {
            "number": 10,
            "time": 116.1899999999957,
            "value": 0.5118110236220472
          },
          {
            "number": 10,
            "time": 116.1949999999957,
            "value": 0.5118110236220472
          },
          {
            "number": 10,
            "time": 116.1999999999957,
            "value": 0.5118110236220472
          },
          {
            "number": 10,
            "time": 116.20499999999569,
            "value": 0.5118110236220472
          },
          {
            "number": 10,
            "time": 116.20999999999569,
            "value": 0.5118110236220472
          },
          {
            "number": 10,
            "time": 116.21499999999568,
            "value": 0.5118110236220472
          },
          {
            "number": 10,
            "time": 116.21999999999568,
            "value": 0.5118110236220472
          },
          {
            "number": 10,
            "time": 116.22499999999567,
            "value": 0.5118110236220472
          },
          {
            "number": 10,
            "time": 116.22999999999567,
            "value": 0.5118110236220472
          },
          {
            "number": 10,
            "time": 116.23499999999567,
            "value": 0.5118110236220472
          },
          {
            "number": 10,
            "time": 116.23999999999566,
            "value": 0.5118110236220472
          },
          {
            "number": 10,
            "time": 116.24499999999566,
            "value": 0.5118110236220472
          },
          {
            "number": 10,
            "time": 116.24999999999565,
            "value": 0.5118110236220472
          },
          {
            "number": 10,
            "time": 116.25499999999565,
            "value": 0.5118110236220472
          },
          {
            "number": 10,
            "time": 116.25999999999564,
            "value": 0.5118110236220472
          },
          {
            "number": 10,
            "time": 116.26499999999564,
            "value": 0.5118110236220472
          },
          {
            "number": 10,
            "time": 116.26999999999563,
            "value": 0.5118110236220472
          },
          {
            "number": 10,
            "time": 116.27499999999563,
            "value": 0.5039370078740157
          },
          {
            "number": 10,
            "time": 116.27999999999562,
            "value": 0.5039370078740157
          },
          {
            "number": 10,
            "time": 116.28499999999562,
            "value": 0.5039370078740157
          },
          {
            "number": 10,
            "time": 116.28999999999562,
            "value": 0.5039370078740157
          },
          {
            "number": 10,
            "time": 116.29499999999561,
            "value": 0.5039370078740157
          },
          {
            "number": 10,
            "time": 116.2999999999956,
            "value": 0.5039370078740157
          },
          {
            "number": 10,
            "time": 116.3049999999956,
            "value": 0.5039370078740157
          },
          {
            "number": 10,
            "time": 116.3099999999956,
            "value": 0.5039370078740157
          },
          {
            "number": 10,
            "time": 116.31499999999559,
            "value": 0.5039370078740157
          },
          {
            "number": 10,
            "time": 116.31999999999559,
            "value": 0.5039370078740157
          },
          {
            "number": 10,
            "time": 116.32499999999558,
            "value": 0.5039370078740157
          },
          {
            "number": 10,
            "time": 116.32999999999558,
            "value": 0.5039370078740157
          },
          {
            "number": 10,
            "time": 116.33499999999557,
            "value": 0.5039370078740157
          },
          {
            "number": 10,
            "time": 116.33999999999557,
            "value": 0.5039370078740157
          },
          {
            "number": 10,
            "time": 116.34499999999557,
            "value": 0.5039370078740157
          },
          {
            "number": 10,
            "time": 116.34999999999556,
            "value": 0.5039370078740157
          },
          {
            "number": 10,
            "time": 116.35499999999556,
            "value": 0.5039370078740157
          },
          {
            "number": 10,
            "time": 116.35999999999555,
            "value": 0.5039370078740157
          },
          {
            "number": 10,
            "time": 116.36499999999555,
            "value": 0.5039370078740157
          },
          {
            "number": 10,
            "time": 116.36999999999554,
            "value": 0.5039370078740157
          },
          {
            "number": 10,
            "time": 116.37499999999554,
            "value": 0.5039370078740157
          },
          {
            "number": 10,
            "time": 116.37999999999553,
            "value": 0.5039370078740157
          },
          {
            "number": 10,
            "time": 116.38499999999553,
            "value": 0.5039370078740157
          },
          {
            "number": 10,
            "time": 116.38999999999552,
            "value": 0.5039370078740157
          },
          {
            "number": 10,
            "time": 116.39499999999552,
            "value": 0.5039370078740157
          },
          {
            "number": 10,
            "time": 116.39999999999552,
            "value": 0.5039370078740157
          },
          {
            "number": 10,
            "time": 116.40499999999551,
            "value": 0.5039370078740157
          },
          {
            "number": 10,
            "time": 116.4099999999955,
            "value": 0.5039370078740157
          },
          {
            "number": 10,
            "time": 116.4149999999955,
            "value": 0.5039370078740157
          },
          {
            "number": 10,
            "time": 116.4199999999955,
            "value": 0.5039370078740157
          },
          {
            "number": 10,
            "time": 116.42499999999549,
            "value": 0.5039370078740157
          },
          {
            "number": 10,
            "time": 116.42999999999549,
            "value": 0.5039370078740157
          },
          {
            "number": 10,
            "time": 116.43499999999548,
            "value": 0.5039370078740157
          },
          {
            "number": 10,
            "time": 116.43999999999548,
            "value": 0.5039370078740157
          },
          {
            "number": 10,
            "time": 116.44499999999547,
            "value": 0.5039370078740157
          },
          {
            "number": 10,
            "time": 116.44999999999547,
            "value": 0.5039370078740157
          },
          {
            "number": 10,
            "time": 116.45499999999547,
            "value": 0.5039370078740157
          },
          {
            "number": 10,
            "time": 116.45999999999546,
            "value": 0.5039370078740157
          },
          {
            "number": 10,
            "time": 116.46499999999546,
            "value": 0.5039370078740157
          },
          {
            "number": 10,
            "time": 116.46999999999545,
            "value": 0.5039370078740157
          },
          {
            "number": 10,
            "time": 116.47499999999545,
            "value": 0.49606299212598426
          },
          {
            "number": 10,
            "time": 116.47999999999544,
            "value": 0.49606299212598426
          },
          {
            "number": 10,
            "time": 116.48499999999544,
            "value": 0.49606299212598426
          },
          {
            "number": 10,
            "time": 116.48999999999543,
            "value": 0.49606299212598426
          },
          {
            "number": 10,
            "time": 116.49499999999543,
            "value": 0.49606299212598426
          },
          {
            "number": 10,
            "time": 116.49999999999542,
            "value": 0.49606299212598426
          },
          {
            "number": 10,
            "time": 116.50499999999542,
            "value": 0.49606299212598426
          },
          {
            "number": 10,
            "time": 116.50999999999542,
            "value": 0.49606299212598426
          },
          {
            "number": 10,
            "time": 116.51499999999541,
            "value": 0.49606299212598426
          },
          {
            "number": 10,
            "time": 116.5199999999954,
            "value": 0.49606299212598426
          },
          {
            "number": 10,
            "time": 116.5249999999954,
            "value": 0.49606299212598426
          },
          {
            "number": 10,
            "time": 116.5299999999954,
            "value": 0.49606299212598426
          },
          {
            "number": 10,
            "time": 116.53499999999539,
            "value": 0.49606299212598426
          },
          {
            "number": 10,
            "time": 116.53999999999539,
            "value": 0.49606299212598426
          },
          {
            "number": 10,
            "time": 116.54499999999538,
            "value": 0.49606299212598426
          },
          {
            "number": 10,
            "time": 116.54999999999538,
            "value": 0.49606299212598426
          },
          {
            "number": 10,
            "time": 116.55499999999537,
            "value": 0.49606299212598426
          },
          {
            "number": 10,
            "time": 116.55999999999537,
            "value": 0.49606299212598426
          },
          {
            "number": 10,
            "time": 116.56499999999536,
            "value": 0.49606299212598426
          },
          {
            "number": 10,
            "time": 116.56999999999536,
            "value": 0.49606299212598426
          },
          {
            "number": 10,
            "time": 116.57499999999536,
            "value": 0.4881889763779528
          },
          {
            "number": 10,
            "time": 116.57999999999535,
            "value": 0.4881889763779528
          },
          {
            "number": 10,
            "time": 116.58499999999535,
            "value": 0.4881889763779528
          },
          {
            "number": 10,
            "time": 116.58999999999534,
            "value": 0.4881889763779528
          },
          {
            "number": 10,
            "time": 116.59499999999534,
            "value": 0.4881889763779528
          },
          {
            "number": 10,
            "time": 116.59999999999533,
            "value": 0.4881889763779528
          },
          {
            "number": 10,
            "time": 116.60499999999533,
            "value": 0.4881889763779528
          },
          {
            "number": 10,
            "time": 116.60999999999532,
            "value": 0.4881889763779528
          },
          {
            "number": 10,
            "time": 116.61499999999532,
            "value": 0.4881889763779528
          },
          {
            "number": 10,
            "time": 116.61999999999531,
            "value": 0.4881889763779528
          },
          {
            "number": 10,
            "time": 116.62499999999531,
            "value": 0.4881889763779528
          },
          {
            "number": 10,
            "time": 116.6299999999953,
            "value": 0.4881889763779528
          },
          {
            "number": 10,
            "time": 116.6349999999953,
            "value": 0.4881889763779528
          },
          {
            "number": 10,
            "time": 116.6399999999953,
            "value": 0.4881889763779528
          },
          {
            "number": 10,
            "time": 116.64499999999529,
            "value": 0.4881889763779528
          },
          {
            "number": 10,
            "time": 116.64999999999529,
            "value": 0.4881889763779528
          },
          {
            "number": 10,
            "time": 116.65499999999528,
            "value": 0.4881889763779528
          },
          {
            "number": 10,
            "time": 116.65999999999528,
            "value": 0.4881889763779528
          },
          {
            "number": 10,
            "time": 116.66499999999527,
            "value": 0.4881889763779528
          },
          {
            "number": 10,
            "time": 116.66999999999527,
            "value": 0.4881889763779528
          },
          {
            "number": 10,
            "time": 116.67499999999526,
            "value": 0.48031496062992124
          },
          {
            "number": 10,
            "time": 116.67999999999526,
            "value": 0.48031496062992124
          },
          {
            "number": 10,
            "time": 116.68499999999526,
            "value": 0.48031496062992124
          },
          {
            "number": 10,
            "time": 116.68999999999525,
            "value": 0.48031496062992124
          },
          {
            "number": 10,
            "time": 116.69499999999525,
            "value": 0.48031496062992124
          },
          {
            "number": 10,
            "time": 116.69999999999524,
            "value": 0.48031496062992124
          },
          {
            "number": 10,
            "time": 116.70499999999524,
            "value": 0.48031496062992124
          },
          {
            "number": 10,
            "time": 116.70999999999523,
            "value": 0.48031496062992124
          },
          {
            "number": 10,
            "time": 116.71499999999523,
            "value": 0.48031496062992124
          },
          {
            "number": 10,
            "time": 116.71999999999522,
            "value": 0.48031496062992124
          },
          {
            "number": 10,
            "time": 116.72499999999522,
            "value": 0.48031496062992124
          },
          {
            "number": 10,
            "time": 116.72999999999521,
            "value": 0.48031496062992124
          },
          {
            "number": 10,
            "time": 116.73499999999521,
            "value": 0.48031496062992124
          },
          {
            "number": 10,
            "time": 116.7399999999952,
            "value": 0.48031496062992124
          },
          {
            "number": 10,
            "time": 116.7449999999952,
            "value": 0.48031496062992124
          },
          {
            "number": 10,
            "time": 116.7499999999952,
            "value": 0.48031496062992124
          },
          {
            "number": 10,
            "time": 116.75499999999519,
            "value": 0.48031496062992124
          },
          {
            "number": 10,
            "time": 116.75999999999519,
            "value": 0.48031496062992124
          },
          {
            "number": 10,
            "time": 116.76499999999518,
            "value": 0.48031496062992124
          },
          {
            "number": 10,
            "time": 116.76999999999518,
            "value": 0.48031496062992124
          },
          {
            "number": 10,
            "time": 116.77499999999517,
            "value": 0.47244094488188976
          },
          {
            "number": 10,
            "time": 116.77999999999517,
            "value": 0.47244094488188976
          },
          {
            "number": 10,
            "time": 116.78499999999516,
            "value": 0.47244094488188976
          },
          {
            "number": 10,
            "time": 116.78999999999516,
            "value": 0.47244094488188976
          },
          {
            "number": 10,
            "time": 116.79499999999516,
            "value": 0.47244094488188976
          },
          {
            "number": 10,
            "time": 116.79999999999515,
            "value": 0.47244094488188976
          },
          {
            "number": 10,
            "time": 116.80499999999515,
            "value": 0.47244094488188976
          },
          {
            "number": 10,
            "time": 116.80999999999514,
            "value": 0.47244094488188976
          },
          {
            "number": 10,
            "time": 116.81499999999514,
            "value": 0.47244094488188976
          },
          {
            "number": 10,
            "time": 116.81999999999513,
            "value": 0.47244094488188976
          },
          {
            "number": 10,
            "time": 116.82499999999513,
            "value": 0.47244094488188976
          },
          {
            "number": 10,
            "time": 116.82999999999512,
            "value": 0.47244094488188976
          },
          {
            "number": 10,
            "time": 116.83499999999512,
            "value": 0.47244094488188976
          },
          {
            "number": 10,
            "time": 116.83999999999511,
            "value": 0.47244094488188976
          },
          {
            "number": 10,
            "time": 116.84499999999511,
            "value": 0.47244094488188976
          },
          {
            "number": 10,
            "time": 116.8499999999951,
            "value": 0.47244094488188976
          },
          {
            "number": 10,
            "time": 116.8549999999951,
            "value": 0.47244094488188976
          },
          {
            "number": 10,
            "time": 116.8599999999951,
            "value": 0.47244094488188976
          },
          {
            "number": 10,
            "time": 116.86499999999509,
            "value": 0.47244094488188976
          },
          {
            "number": 10,
            "time": 116.86999999999509,
            "value": 0.47244094488188976
          },
          {
            "number": 10,
            "time": 116.87499999999508,
            "value": 0.4645669291338583
          },
          {
            "number": 10,
            "time": 116.87999999999508,
            "value": 0.4645669291338583
          },
          {
            "number": 10,
            "time": 116.88499999999507,
            "value": 0.4645669291338583
          },
          {
            "number": 10,
            "time": 116.88999999999507,
            "value": 0.4645669291338583
          },
          {
            "number": 10,
            "time": 116.89499999999506,
            "value": 0.4645669291338583
          },
          {
            "number": 10,
            "time": 116.89999999999506,
            "value": 0.4645669291338583
          },
          {
            "number": 10,
            "time": 116.90499999999506,
            "value": 0.4645669291338583
          },
          {
            "number": 10,
            "time": 116.90999999999505,
            "value": 0.4645669291338583
          },
          {
            "number": 10,
            "time": 116.91499999999505,
            "value": 0.4645669291338583
          },
          {
            "number": 10,
            "time": 116.91999999999504,
            "value": 0.4645669291338583
          },
          {
            "number": 10,
            "time": 116.92499999999504,
            "value": 0.4645669291338583
          },
          {
            "number": 10,
            "time": 116.92999999999503,
            "value": 0.4645669291338583
          },
          {
            "number": 10,
            "time": 116.93499999999503,
            "value": 0.4645669291338583
          },
          {
            "number": 10,
            "time": 116.93999999999502,
            "value": 0.4645669291338583
          },
          {
            "number": 10,
            "time": 116.94499999999502,
            "value": 0.4645669291338583
          },
          {
            "number": 10,
            "time": 116.94999999999501,
            "value": 0.4645669291338583
          },
          {
            "number": 10,
            "time": 116.95499999999501,
            "value": 0.4645669291338583
          },
          {
            "number": 10,
            "time": 116.959999999995,
            "value": 0.4645669291338583
          },
          {
            "number": 10,
            "time": 116.964999999995,
            "value": 0.4645669291338583
          },
          {
            "number": 10,
            "time": 116.969999999995,
            "value": 0.4645669291338583
          },
          {
            "number": 10,
            "time": 116.97499999999499,
            "value": 0.4566929133858268
          },
          {
            "number": 10,
            "time": 116.97999999999499,
            "value": 0.4566929133858268
          },
          {
            "number": 10,
            "time": 116.98499999999498,
            "value": 0.4566929133858268
          },
          {
            "number": 10,
            "time": 116.98999999999498,
            "value": 0.4566929133858268
          },
          {
            "number": 10,
            "time": 116.99499999999497,
            "value": 0.4566929133858268
          },
          {
            "number": 10,
            "time": 116.99999999999497,
            "value": 0.4566929133858268
          },
          {
            "number": 10,
            "time": 117.00499999999496,
            "value": 0.4566929133858268
          },
          {
            "number": 10,
            "time": 117.00999999999496,
            "value": 0.4566929133858268
          },
          {
            "number": 10,
            "time": 117.01499999999496,
            "value": 0.4566929133858268
          },
          {
            "number": 10,
            "time": 117.01999999999495,
            "value": 0.4566929133858268
          },
          {
            "number": 10,
            "time": 117.02499999999495,
            "value": 0.4566929133858268
          },
          {
            "number": 10,
            "time": 117.02999999999494,
            "value": 0.4566929133858268
          },
          {
            "number": 10,
            "time": 117.03499999999494,
            "value": 0.4566929133858268
          },
          {
            "number": 10,
            "time": 117.03999999999493,
            "value": 0.4566929133858268
          },
          {
            "number": 10,
            "time": 117.04499999999493,
            "value": 0.4566929133858268
          },
          {
            "number": 10,
            "time": 117.04999999999492,
            "value": 0.4566929133858268
          },
          {
            "number": 10,
            "time": 117.05499999999492,
            "value": 0.4566929133858268
          },
          {
            "number": 10,
            "time": 117.05999999999491,
            "value": 0.4566929133858268
          },
          {
            "number": 10,
            "time": 117.06499999999491,
            "value": 0.4566929133858268
          },
          {
            "number": 10,
            "time": 117.0699999999949,
            "value": 0.4566929133858268
          },
          {
            "number": 10,
            "time": 117.0749999999949,
            "value": 0.44881889763779526
          },
          {
            "number": 10,
            "time": 117.0799999999949,
            "value": 0.44881889763779526
          },
          {
            "number": 10,
            "time": 117.08499999999489,
            "value": 0.44881889763779526
          },
          {
            "number": 10,
            "time": 117.08999999999489,
            "value": 0.44881889763779526
          },
          {
            "number": 10,
            "time": 117.09499999999488,
            "value": 0.44881889763779526
          },
          {
            "number": 10,
            "time": 117.09999999999488,
            "value": 0.44881889763779526
          },
          {
            "number": 10,
            "time": 117.10499999999487,
            "value": 0.44881889763779526
          },
          {
            "number": 10,
            "time": 117.10999999999487,
            "value": 0.44881889763779526
          },
          {
            "number": 10,
            "time": 117.11499999999486,
            "value": 0.44881889763779526
          },
          {
            "number": 10,
            "time": 117.11999999999486,
            "value": 0.44881889763779526
          },
          {
            "number": 10,
            "time": 117.12499999999486,
            "value": 0.44881889763779526
          },
          {
            "number": 10,
            "time": 117.12999999999485,
            "value": 0.44881889763779526
          },
          {
            "number": 10,
            "time": 117.13499999999485,
            "value": 0.44881889763779526
          },
          {
            "number": 10,
            "time": 117.13999999999484,
            "value": 0.44881889763779526
          },
          {
            "number": 10,
            "time": 117.14499999999484,
            "value": 0.44881889763779526
          },
          {
            "number": 10,
            "time": 117.14999999999483,
            "value": 0.44881889763779526
          },
          {
            "number": 10,
            "time": 117.15499999999483,
            "value": 0.44881889763779526
          },
          {
            "number": 10,
            "time": 117.15999999999482,
            "value": 0.44881889763779526
          },
          {
            "number": 10,
            "time": 117.16499999999482,
            "value": 0.44881889763779526
          },
          {
            "number": 10,
            "time": 117.16999999999481,
            "value": 0.44881889763779526
          },
          {
            "number": 10,
            "time": 117.17499999999481,
            "value": 0.4409448818897638
          },
          {
            "number": 10,
            "time": 117.1799999999948,
            "value": 0.4409448818897638
          },
          {
            "number": 10,
            "time": 117.1849999999948,
            "value": 0.4409448818897638
          },
          {
            "number": 10,
            "time": 117.1899999999948,
            "value": 0.4409448818897638
          },
          {
            "number": 10,
            "time": 117.19499999999479,
            "value": 0.4409448818897638
          },
          {
            "number": 10,
            "time": 117.19999999999479,
            "value": 0.4409448818897638
          },
          {
            "number": 10,
            "time": 117.20499999999478,
            "value": 0.4409448818897638
          },
          {
            "number": 10,
            "time": 117.20999999999478,
            "value": 0.4409448818897638
          },
          {
            "number": 10,
            "time": 117.21499999999477,
            "value": 0.4409448818897638
          },
          {
            "number": 10,
            "time": 117.21999999999477,
            "value": 0.4409448818897638
          },
          {
            "number": 10,
            "time": 117.22499999999476,
            "value": 0.4409448818897638
          },
          {
            "number": 10,
            "time": 117.22999999999476,
            "value": 0.4409448818897638
          },
          {
            "number": 10,
            "time": 117.23499999999476,
            "value": 0.4409448818897638
          },
          {
            "number": 10,
            "time": 117.23999999999475,
            "value": 0.4409448818897638
          },
          {
            "number": 10,
            "time": 117.24499999999475,
            "value": 0.4409448818897638
          },
          {
            "number": 10,
            "time": 117.24999999999474,
            "value": 0.4409448818897638
          },
          {
            "number": 10,
            "time": 117.25499999999474,
            "value": 0.4409448818897638
          },
          {
            "number": 10,
            "time": 117.25999999999473,
            "value": 0.4409448818897638
          },
          {
            "number": 10,
            "time": 117.26499999999473,
            "value": 0.4409448818897638
          },
          {
            "number": 10,
            "time": 117.26999999999472,
            "value": 0.4409448818897638
          },
          {
            "number": 10,
            "time": 117.27499999999472,
            "value": 0.4330708661417323
          },
          {
            "number": 10,
            "time": 117.27999999999471,
            "value": 0.4330708661417323
          },
          {
            "number": 10,
            "time": 117.28499999999471,
            "value": 0.4330708661417323
          },
          {
            "number": 10,
            "time": 117.2899999999947,
            "value": 0.4330708661417323
          },
          {
            "number": 10,
            "time": 117.2949999999947,
            "value": 0.4330708661417323
          },
          {
            "number": 10,
            "time": 117.2999999999947,
            "value": 0.4330708661417323
          },
          {
            "number": 10,
            "time": 117.30499999999469,
            "value": 0.4330708661417323
          },
          {
            "number": 10,
            "time": 117.30999999999469,
            "value": 0.4330708661417323
          },
          {
            "number": 10,
            "time": 117.31499999999468,
            "value": 0.4330708661417323
          },
          {
            "number": 10,
            "time": 117.31999999999468,
            "value": 0.4330708661417323
          },
          {
            "number": 10,
            "time": 117.32499999999467,
            "value": 0.4330708661417323
          },
          {
            "number": 10,
            "time": 117.32999999999467,
            "value": 0.4330708661417323
          },
          {
            "number": 10,
            "time": 117.33499999999466,
            "value": 0.4330708661417323
          },
          {
            "number": 10,
            "time": 117.33999999999466,
            "value": 0.4330708661417323
          },
          {
            "number": 10,
            "time": 117.34499999999466,
            "value": 0.4330708661417323
          },
          {
            "number": 10,
            "time": 117.34999999999465,
            "value": 0.4330708661417323
          },
          {
            "number": 10,
            "time": 117.35499999999465,
            "value": 0.4330708661417323
          },
          {
            "number": 10,
            "time": 117.35999999999464,
            "value": 0.4330708661417323
          },
          {
            "number": 10,
            "time": 117.36499999999464,
            "value": 0.4330708661417323
          },
          {
            "number": 10,
            "time": 117.36999999999463,
            "value": 0.4330708661417323
          },
          {
            "number": 10,
            "time": 117.37499999999463,
            "value": 0.4251968503937008
          },
          {
            "number": 10,
            "time": 117.37999999999462,
            "value": 0.4251968503937008
          },
          {
            "number": 10,
            "time": 117.38499999999462,
            "value": 0.4251968503937008
          },
          {
            "number": 10,
            "time": 117.38999999999461,
            "value": 0.4251968503937008
          },
          {
            "number": 10,
            "time": 117.39499999999461,
            "value": 0.4251968503937008
          },
          {
            "number": 10,
            "time": 117.3999999999946,
            "value": 0.4251968503937008
          },
          {
            "number": 10,
            "time": 117.4049999999946,
            "value": 0.4251968503937008
          },
          {
            "number": 10,
            "time": 117.4099999999946,
            "value": 0.4251968503937008
          },
          {
            "number": 10,
            "time": 117.41499999999459,
            "value": 0.4251968503937008
          },
          {
            "number": 10,
            "time": 117.41999999999459,
            "value": 0.4251968503937008
          },
          {
            "number": 10,
            "time": 117.42499999999458,
            "value": 0.4251968503937008
          },
          {
            "number": 10,
            "time": 117.42999999999458,
            "value": 0.4251968503937008
          },
          {
            "number": 10,
            "time": 117.43499999999457,
            "value": 0.4251968503937008
          },
          {
            "number": 10,
            "time": 117.43999999999457,
            "value": 0.4251968503937008
          },
          {
            "number": 10,
            "time": 117.44499999999456,
            "value": 0.4251968503937008
          },
          {
            "number": 10,
            "time": 117.44999999999456,
            "value": 0.4251968503937008
          },
          {
            "number": 10,
            "time": 117.45499999999456,
            "value": 0.4251968503937008
          },
          {
            "number": 10,
            "time": 117.45999999999455,
            "value": 0.4251968503937008
          },
          {
            "number": 10,
            "time": 117.46499999999455,
            "value": 0.4251968503937008
          },
          {
            "number": 10,
            "time": 117.46999999999454,
            "value": 0.4251968503937008
          },
          {
            "number": 10,
            "time": 117.47499999999454,
            "value": 0.41732283464566927
          },
          {
            "number": 10,
            "time": 117.47999999999453,
            "value": 0.41732283464566927
          },
          {
            "number": 10,
            "time": 117.48499999999453,
            "value": 0.41732283464566927
          },
          {
            "number": 10,
            "time": 117.48999999999452,
            "value": 0.41732283464566927
          },
          {
            "number": 10,
            "time": 117.49499999999452,
            "value": 0.41732283464566927
          },
          {
            "number": 10,
            "time": 117.49999999999451,
            "value": 0.41732283464566927
          },
          {
            "number": 10,
            "time": 117.50499999999451,
            "value": 0.41732283464566927
          },
          {
            "number": 10,
            "time": 117.5099999999945,
            "value": 0.41732283464566927
          },
          {
            "number": 10,
            "time": 117.5149999999945,
            "value": 0.41732283464566927
          },
          {
            "number": 10,
            "time": 117.5199999999945,
            "value": 0.41732283464566927
          },
          {
            "number": 10,
            "time": 117.52499999999449,
            "value": 0.41732283464566927
          },
          {
            "number": 10,
            "time": 117.52999999999449,
            "value": 0.41732283464566927
          },
          {
            "number": 10,
            "time": 117.53499999999448,
            "value": 0.41732283464566927
          },
          {
            "number": 10,
            "time": 117.53999999999448,
            "value": 0.41732283464566927
          },
          {
            "number": 10,
            "time": 117.54499999999447,
            "value": 0.41732283464566927
          },
          {
            "number": 10,
            "time": 117.54999999999447,
            "value": 0.41732283464566927
          },
          {
            "number": 10,
            "time": 117.55499999999446,
            "value": 0.41732283464566927
          },
          {
            "number": 10,
            "time": 117.55999999999446,
            "value": 0.41732283464566927
          },
          {
            "number": 10,
            "time": 117.56499999999446,
            "value": 0.41732283464566927
          },
          {
            "number": 10,
            "time": 117.56999999999445,
            "value": 0.41732283464566927
          },
          {
            "number": 10,
            "time": 117.57499999999445,
            "value": 0.4094488188976378
          },
          {
            "number": 10,
            "time": 117.57999999999444,
            "value": 0.4094488188976378
          },
          {
            "number": 10,
            "time": 117.58499999999444,
            "value": 0.4094488188976378
          },
          {
            "number": 10,
            "time": 117.58999999999443,
            "value": 0.4094488188976378
          },
          {
            "number": 10,
            "time": 117.59499999999443,
            "value": 0.4094488188976378
          },
          {
            "number": 10,
            "time": 117.59999999999442,
            "value": 0.4094488188976378
          },
          {
            "number": 10,
            "time": 117.60499999999442,
            "value": 0.4094488188976378
          },
          {
            "number": 10,
            "time": 117.60999999999441,
            "value": 0.4094488188976378
          },
          {
            "number": 10,
            "time": 117.61499999999441,
            "value": 0.4094488188976378
          },
          {
            "number": 10,
            "time": 117.6199999999944,
            "value": 0.4094488188976378
          },
          {
            "number": 10,
            "time": 117.6249999999944,
            "value": 0.4094488188976378
          },
          {
            "number": 10,
            "time": 117.6299999999944,
            "value": 0.4094488188976378
          },
          {
            "number": 10,
            "time": 117.63499999999439,
            "value": 0.4094488188976378
          },
          {
            "number": 10,
            "time": 117.63999999999439,
            "value": 0.4094488188976378
          },
          {
            "number": 10,
            "time": 117.64499999999438,
            "value": 0.4094488188976378
          },
          {
            "number": 10,
            "time": 117.64999999999438,
            "value": 0.4094488188976378
          },
          {
            "number": 10,
            "time": 117.65499999999437,
            "value": 0.4094488188976378
          },
          {
            "number": 10,
            "time": 117.65999999999437,
            "value": 0.4094488188976378
          },
          {
            "number": 10,
            "time": 117.66499999999436,
            "value": 0.4094488188976378
          },
          {
            "number": 10,
            "time": 117.66999999999436,
            "value": 0.4094488188976378
          },
          {
            "number": 10,
            "time": 117.67499999999436,
            "value": 0.4015748031496063
          },
          {
            "number": 10,
            "time": 117.67999999999435,
            "value": 0.4015748031496063
          },
          {
            "number": 10,
            "time": 117.68499999999435,
            "value": 0.4015748031496063
          },
          {
            "number": 10,
            "time": 117.68999999999434,
            "value": 0.4015748031496063
          },
          {
            "number": 10,
            "time": 117.69499999999434,
            "value": 0.4015748031496063
          },
          {
            "number": 10,
            "time": 117.69999999999433,
            "value": 0.4015748031496063
          },
          {
            "number": 10,
            "time": 117.70499999999433,
            "value": 0.4015748031496063
          },
          {
            "number": 10,
            "time": 117.70999999999432,
            "value": 0.4015748031496063
          },
          {
            "number": 10,
            "time": 117.71499999999432,
            "value": 0.4015748031496063
          },
          {
            "number": 10,
            "time": 117.71999999999431,
            "value": 0.4015748031496063
          },
          {
            "number": 10,
            "time": 117.72499999999431,
            "value": 0.4015748031496063
          },
          {
            "number": 10,
            "time": 117.7299999999943,
            "value": 0.4015748031496063
          },
          {
            "number": 10,
            "time": 117.7349999999943,
            "value": 0.4015748031496063
          },
          {
            "number": 10,
            "time": 117.7399999999943,
            "value": 0.4015748031496063
          },
          {
            "number": 10,
            "time": 117.74499999999429,
            "value": 0.4015748031496063
          },
          {
            "number": 10,
            "time": 117.74999999999429,
            "value": 0.4015748031496063
          },
          {
            "number": 10,
            "time": 117.75499999999428,
            "value": 0.4015748031496063
          },
          {
            "number": 10,
            "time": 117.75999999999428,
            "value": 0.4015748031496063
          },
          {
            "number": 10,
            "time": 117.76499999999427,
            "value": 0.4015748031496063
          },
          {
            "number": 10,
            "time": 117.76999999999427,
            "value": 0.4015748031496063
          },
          {
            "number": 10,
            "time": 117.77499999999426,
            "value": 0.3937007874015748
          },
          {
            "number": 10,
            "time": 117.77999999999426,
            "value": 0.3937007874015748
          },
          {
            "number": 10,
            "time": 117.78499999999426,
            "value": 0.3937007874015748
          },
          {
            "number": 10,
            "time": 117.78999999999425,
            "value": 0.3937007874015748
          },
          {
            "number": 10,
            "time": 117.79499999999425,
            "value": 0.3937007874015748
          },
          {
            "number": 10,
            "time": 117.79999999999424,
            "value": 0.3937007874015748
          },
          {
            "number": 10,
            "time": 117.80499999999424,
            "value": 0.3937007874015748
          },
          {
            "number": 10,
            "time": 117.80999999999423,
            "value": 0.3937007874015748
          },
          {
            "number": 10,
            "time": 117.81499999999423,
            "value": 0.3937007874015748
          },
          {
            "number": 10,
            "time": 117.81999999999422,
            "value": 0.3937007874015748
          },
          {
            "number": 10,
            "time": 117.82499999999422,
            "value": 0.3937007874015748
          },
          {
            "number": 10,
            "time": 117.82999999999421,
            "value": 0.3937007874015748
          },
          {
            "number": 10,
            "time": 117.83499999999421,
            "value": 0.3937007874015748
          },
          {
            "number": 10,
            "time": 117.8399999999942,
            "value": 0.3937007874015748
          },
          {
            "number": 10,
            "time": 117.8449999999942,
            "value": 0.3937007874015748
          },
          {
            "number": 10,
            "time": 117.8499999999942,
            "value": 0.3937007874015748
          },
          {
            "number": 10,
            "time": 117.85499999999419,
            "value": 0.3937007874015748
          },
          {
            "number": 10,
            "time": 117.85999999999419,
            "value": 0.3937007874015748
          },
          {
            "number": 10,
            "time": 117.86499999999418,
            "value": 0.3937007874015748
          },
          {
            "number": 10,
            "time": 117.86999999999418,
            "value": 0.3937007874015748
          },
          {
            "number": 10,
            "time": 117.87499999999417,
            "value": 0.3858267716535433
          },
          {
            "number": 10,
            "time": 117.87999999999417,
            "value": 0.3858267716535433
          },
          {
            "number": 10,
            "time": 117.88499999999416,
            "value": 0.3858267716535433
          },
          {
            "number": 10,
            "time": 117.88999999999416,
            "value": 0.3858267716535433
          },
          {
            "number": 10,
            "time": 117.89499999999416,
            "value": 0.3858267716535433
          },
          {
            "number": 10,
            "time": 117.89999999999415,
            "value": 0.3858267716535433
          },
          {
            "number": 10,
            "time": 117.90499999999415,
            "value": 0.3858267716535433
          },
          {
            "number": 10,
            "time": 117.90999999999414,
            "value": 0.3858267716535433
          },
          {
            "number": 10,
            "time": 117.91499999999414,
            "value": 0.3858267716535433
          },
          {
            "number": 10,
            "time": 117.91999999999413,
            "value": 0.3858267716535433
          },
          {
            "number": 10,
            "time": 117.92499999999413,
            "value": 0.3858267716535433
          },
          {
            "number": 10,
            "time": 117.92999999999412,
            "value": 0.3858267716535433
          },
          {
            "number": 10,
            "time": 117.93499999999412,
            "value": 0.3858267716535433
          },
          {
            "number": 10,
            "time": 117.93999999999411,
            "value": 0.3858267716535433
          },
          {
            "number": 10,
            "time": 117.94499999999411,
            "value": 0.3858267716535433
          },
          {
            "number": 10,
            "time": 117.9499999999941,
            "value": 0.3858267716535433
          },
          {
            "number": 10,
            "time": 117.9549999999941,
            "value": 0.3858267716535433
          },
          {
            "number": 10,
            "time": 117.9599999999941,
            "value": 0.3858267716535433
          },
          {
            "number": 10,
            "time": 117.96499999999409,
            "value": 0.3858267716535433
          },
          {
            "number": 10,
            "time": 117.96999999999409,
            "value": 0.3858267716535433
          },
          {
            "number": 10,
            "time": 117.97499999999408,
            "value": 0.3779527559055118
          },
          {
            "number": 10,
            "time": 117.97999999999408,
            "value": 0.3779527559055118
          },
          {
            "number": 10,
            "time": 117.98499999999407,
            "value": 0.3779527559055118
          },
          {
            "number": 10,
            "time": 117.98999999999407,
            "value": 0.3779527559055118
          },
          {
            "number": 10,
            "time": 117.99499999999406,
            "value": 0.3779527559055118
          },
          {
            "number": 10,
            "time": 117.99999999999406,
            "value": 0.3779527559055118
          },
          {
            "number": 10,
            "time": 118.00499999999406,
            "value": 0.3779527559055118
          },
          {
            "number": 10,
            "time": 118.00999999999405,
            "value": 0.3779527559055118
          },
          {
            "number": 10,
            "time": 118.01499999999405,
            "value": 0.3779527559055118
          },
          {
            "number": 10,
            "time": 118.01999999999404,
            "value": 0.3779527559055118
          },
          {
            "number": 10,
            "time": 118.02499999999404,
            "value": 0.3779527559055118
          },
          {
            "number": 10,
            "time": 118.02999999999403,
            "value": 0.3779527559055118
          },
          {
            "number": 10,
            "time": 118.03499999999403,
            "value": 0.3779527559055118
          },
          {
            "number": 10,
            "time": 118.03999999999402,
            "value": 0.3779527559055118
          },
          {
            "number": 10,
            "time": 118.04499999999402,
            "value": 0.3779527559055118
          },
          {
            "number": 10,
            "time": 118.04999999999401,
            "value": 0.3779527559055118
          },
          {
            "number": 10,
            "time": 118.05499999999401,
            "value": 0.3779527559055118
          },
          {
            "number": 10,
            "time": 118.059999999994,
            "value": 0.3779527559055118
          },
          {
            "number": 10,
            "time": 118.064999999994,
            "value": 0.3779527559055118
          },
          {
            "number": 10,
            "time": 118.069999999994,
            "value": 0.3779527559055118
          },
          {
            "number": 10,
            "time": 118.07499999999399,
            "value": 0.3700787401574803
          },
          {
            "number": 10,
            "time": 118.07999999999399,
            "value": 0.3700787401574803
          },
          {
            "number": 10,
            "time": 118.08499999999398,
            "value": 0.3700787401574803
          },
          {
            "number": 10,
            "time": 118.08999999999398,
            "value": 0.3700787401574803
          },
          {
            "number": 10,
            "time": 118.09499999999397,
            "value": 0.3700787401574803
          },
          {
            "number": 10,
            "time": 118.09999999999397,
            "value": 0.3700787401574803
          },
          {
            "number": 10,
            "time": 118.10499999999396,
            "value": 0.3700787401574803
          },
          {
            "number": 10,
            "time": 118.10999999999396,
            "value": 0.3700787401574803
          },
          {
            "number": 10,
            "time": 118.11499999999396,
            "value": 0.3700787401574803
          },
          {
            "number": 10,
            "time": 118.11999999999395,
            "value": 0.3700787401574803
          },
          {
            "number": 10,
            "time": 118.12499999999395,
            "value": 0.3700787401574803
          },
          {
            "number": 10,
            "time": 118.12999999999394,
            "value": 0.3700787401574803
          },
          {
            "number": 10,
            "time": 118.13499999999394,
            "value": 0.3700787401574803
          },
          {
            "number": 10,
            "time": 118.13999999999393,
            "value": 0.3700787401574803
          },
          {
            "number": 10,
            "time": 118.14499999999393,
            "value": 0.3700787401574803
          },
          {
            "number": 10,
            "time": 118.14999999999392,
            "value": 0.3700787401574803
          },
          {
            "number": 10,
            "time": 118.15499999999392,
            "value": 0.3700787401574803
          },
          {
            "number": 10,
            "time": 118.15999999999391,
            "value": 0.3700787401574803
          },
          {
            "number": 10,
            "time": 118.16499999999391,
            "value": 0.3700787401574803
          },
          {
            "number": 10,
            "time": 118.1699999999939,
            "value": 0.3700787401574803
          },
          {
            "number": 10,
            "time": 118.1749999999939,
            "value": 0.36220472440944884
          },
          {
            "number": 10,
            "time": 118.1799999999939,
            "value": 0.36220472440944884
          },
          {
            "number": 10,
            "time": 118.18499999999389,
            "value": 0.36220472440944884
          },
          {
            "number": 10,
            "time": 118.18999999999389,
            "value": 0.36220472440944884
          },
          {
            "number": 10,
            "time": 118.19499999999388,
            "value": 0.36220472440944884
          },
          {
            "number": 10,
            "time": 118.19999999999388,
            "value": 0.36220472440944884
          },
          {
            "number": 10,
            "time": 118.20499999999387,
            "value": 0.36220472440944884
          },
          {
            "number": 10,
            "time": 118.20999999999387,
            "value": 0.36220472440944884
          },
          {
            "number": 10,
            "time": 118.21499999999386,
            "value": 0.36220472440944884
          },
          {
            "number": 10,
            "time": 118.21999999999386,
            "value": 0.36220472440944884
          },
          {
            "number": 10,
            "time": 118.22499999999386,
            "value": 0.36220472440944884
          },
          {
            "number": 10,
            "time": 118.22999999999385,
            "value": 0.36220472440944884
          },
          {
            "number": 10,
            "time": 118.23499999999385,
            "value": 0.36220472440944884
          },
          {
            "number": 10,
            "time": 118.23999999999384,
            "value": 0.36220472440944884
          },
          {
            "number": 10,
            "time": 118.24499999999384,
            "value": 0.36220472440944884
          },
          {
            "number": 10,
            "time": 118.24999999999383,
            "value": 0.36220472440944884
          },
          {
            "number": 10,
            "time": 118.25499999999383,
            "value": 0.36220472440944884
          },
          {
            "number": 10,
            "time": 118.25999999999382,
            "value": 0.36220472440944884
          },
          {
            "number": 10,
            "time": 118.26499999999382,
            "value": 0.36220472440944884
          },
          {
            "number": 10,
            "time": 118.26999999999381,
            "value": 0.36220472440944884
          },
          {
            "number": 10,
            "time": 118.27499999999381,
            "value": 0.3543307086614173
          },
          {
            "number": 10,
            "time": 118.2799999999938,
            "value": 0.3543307086614173
          },
          {
            "number": 10,
            "time": 118.2849999999938,
            "value": 0.3543307086614173
          },
          {
            "number": 10,
            "time": 118.2899999999938,
            "value": 0.3543307086614173
          },
          {
            "number": 10,
            "time": 118.29499999999379,
            "value": 0.3543307086614173
          },
          {
            "number": 10,
            "time": 118.29999999999379,
            "value": 0.3543307086614173
          },
          {
            "number": 10,
            "time": 118.30499999999378,
            "value": 0.3543307086614173
          },
          {
            "number": 10,
            "time": 118.30999999999378,
            "value": 0.3543307086614173
          },
          {
            "number": 10,
            "time": 118.31499999999377,
            "value": 0.3543307086614173
          },
          {
            "number": 10,
            "time": 118.31999999999377,
            "value": 0.3543307086614173
          },
          {
            "number": 10,
            "time": 118.32499999999376,
            "value": 0.3543307086614173
          },
          {
            "number": 10,
            "time": 118.32999999999376,
            "value": 0.3543307086614173
          },
          {
            "number": 10,
            "time": 118.33499999999376,
            "value": 0.3543307086614173
          },
          {
            "number": 10,
            "time": 118.33999999999375,
            "value": 0.3543307086614173
          },
          {
            "number": 10,
            "time": 118.34499999999375,
            "value": 0.3543307086614173
          },
          {
            "number": 10,
            "time": 118.34999999999374,
            "value": 0.3543307086614173
          },
          {
            "number": 10,
            "time": 118.35499999999374,
            "value": 0.3543307086614173
          },
          {
            "number": 10,
            "time": 118.35999999999373,
            "value": 0.3543307086614173
          },
          {
            "number": 10,
            "time": 118.36499999999373,
            "value": 0.3543307086614173
          },
          {
            "number": 10,
            "time": 118.36999999999372,
            "value": 0.3543307086614173
          },
          {
            "number": 10,
            "time": 118.37499999999372,
            "value": 0.3464566929133858
          },
          {
            "number": 10,
            "time": 118.37999999999371,
            "value": 0.3464566929133858
          },
          {
            "number": 10,
            "time": 118.38499999999371,
            "value": 0.3464566929133858
          },
          {
            "number": 10,
            "time": 118.3899999999937,
            "value": 0.3464566929133858
          },
          {
            "number": 10,
            "time": 118.3949999999937,
            "value": 0.3464566929133858
          },
          {
            "number": 10,
            "time": 118.3999999999937,
            "value": 0.3464566929133858
          },
          {
            "number": 10,
            "time": 118.40499999999369,
            "value": 0.3464566929133858
          },
          {
            "number": 10,
            "time": 118.40999999999369,
            "value": 0.3464566929133858
          },
          {
            "number": 10,
            "time": 118.41499999999368,
            "value": 0.3464566929133858
          },
          {
            "number": 10,
            "time": 118.41999999999368,
            "value": 0.3464566929133858
          },
          {
            "number": 10,
            "time": 118.42499999999367,
            "value": 0.3464566929133858
          },
          {
            "number": 10,
            "time": 118.42999999999367,
            "value": 0.3464566929133858
          },
          {
            "number": 10,
            "time": 118.43499999999366,
            "value": 0.3464566929133858
          },
          {
            "number": 10,
            "time": 118.43999999999366,
            "value": 0.3464566929133858
          },
          {
            "number": 10,
            "time": 118.44499999999366,
            "value": 0.3464566929133858
          },
          {
            "number": 10,
            "time": 118.44999999999365,
            "value": 0.3464566929133858
          },
          {
            "number": 10,
            "time": 118.45499999999365,
            "value": 0.3464566929133858
          },
          {
            "number": 10,
            "time": 118.45999999999364,
            "value": 0.3464566929133858
          },
          {
            "number": 10,
            "time": 118.46499999999364,
            "value": 0.3464566929133858
          },
          {
            "number": 10,
            "time": 118.46999999999363,
            "value": 0.3464566929133858
          },
          {
            "number": 10,
            "time": 118.47499999999363,
            "value": 0.33858267716535434
          },
          {
            "number": 10,
            "time": 118.47999999999362,
            "value": 0.33858267716535434
          },
          {
            "number": 10,
            "time": 118.48499999999362,
            "value": 0.33858267716535434
          },
          {
            "number": 10,
            "time": 118.48999999999361,
            "value": 0.33858267716535434
          },
          {
            "number": 10,
            "time": 118.49499999999361,
            "value": 0.33858267716535434
          },
          {
            "number": 10,
            "time": 118.4999999999936,
            "value": 0.33858267716535434
          },
          {
            "number": 10,
            "time": 118.5049999999936,
            "value": 0.33858267716535434
          },
          {
            "number": 10,
            "time": 118.5099999999936,
            "value": 0.33858267716535434
          },
          {
            "number": 10,
            "time": 118.51499999999359,
            "value": 0.33858267716535434
          },
          {
            "number": 10,
            "time": 118.51999999999359,
            "value": 0.33858267716535434
          },
          {
            "number": 10,
            "time": 118.52499999999358,
            "value": 0.33858267716535434
          },
          {
            "number": 10,
            "time": 118.52999999999358,
            "value": 0.33858267716535434
          },
          {
            "number": 10,
            "time": 118.53499999999357,
            "value": 0.33858267716535434
          },
          {
            "number": 10,
            "time": 118.53999999999357,
            "value": 0.33858267716535434
          },
          {
            "number": 10,
            "time": 118.54499999999356,
            "value": 0.33858267716535434
          },
          {
            "number": 10,
            "time": 118.54999999999356,
            "value": 0.33858267716535434
          },
          {
            "number": 10,
            "time": 118.55499999999356,
            "value": 0.33858267716535434
          },
          {
            "number": 10,
            "time": 118.55999999999355,
            "value": 0.33858267716535434
          },
          {
            "number": 10,
            "time": 118.56499999999355,
            "value": 0.33858267716535434
          },
          {
            "number": 10,
            "time": 118.56999999999354,
            "value": 0.33858267716535434
          },
          {
            "number": 10,
            "time": 118.57499999999354,
            "value": 0.33070866141732286
          },
          {
            "number": 10,
            "time": 118.57999999999353,
            "value": 0.33070866141732286
          },
          {
            "number": 10,
            "time": 118.58499999999353,
            "value": 0.33070866141732286
          },
          {
            "number": 10,
            "time": 118.58999999999352,
            "value": 0.33070866141732286
          },
          {
            "number": 10,
            "time": 118.59499999999352,
            "value": 0.33070866141732286
          },
          {
            "number": 10,
            "time": 118.59999999999351,
            "value": 0.33070866141732286
          },
          {
            "number": 10,
            "time": 118.60499999999351,
            "value": 0.33070866141732286
          },
          {
            "number": 10,
            "time": 118.6099999999935,
            "value": 0.33070866141732286
          },
          {
            "number": 10,
            "time": 118.6149999999935,
            "value": 0.33070866141732286
          },
          {
            "number": 10,
            "time": 118.6199999999935,
            "value": 0.33070866141732286
          },
          {
            "number": 10,
            "time": 118.62499999999349,
            "value": 0.33070866141732286
          },
          {
            "number": 10,
            "time": 118.62999999999349,
            "value": 0.33070866141732286
          },
          {
            "number": 10,
            "time": 118.63499999999348,
            "value": 0.33070866141732286
          },
          {
            "number": 10,
            "time": 118.63999999999348,
            "value": 0.33070866141732286
          },
          {
            "number": 10,
            "time": 118.64499999999347,
            "value": 0.33070866141732286
          },
          {
            "number": 10,
            "time": 118.64999999999347,
            "value": 0.33070866141732286
          },
          {
            "number": 10,
            "time": 118.65499999999346,
            "value": 0.33070866141732286
          },
          {
            "number": 10,
            "time": 118.65999999999346,
            "value": 0.33070866141732286
          },
          {
            "number": 10,
            "time": 118.66499999999346,
            "value": 0.33070866141732286
          },
          {
            "number": 10,
            "time": 118.66999999999345,
            "value": 0.33070866141732286
          },
          {
            "number": 10,
            "time": 118.67499999999345,
            "value": 0.3228346456692913
          },
          {
            "number": 10,
            "time": 118.67999999999344,
            "value": 0.3228346456692913
          },
          {
            "number": 10,
            "time": 118.68499999999344,
            "value": 0.3228346456692913
          },
          {
            "number": 10,
            "time": 118.68999999999343,
            "value": 0.3228346456692913
          },
          {
            "number": 10,
            "time": 118.69499999999343,
            "value": 0.3228346456692913
          },
          {
            "number": 10,
            "time": 118.69999999999342,
            "value": 0.3228346456692913
          },
          {
            "number": 10,
            "time": 118.70499999999342,
            "value": 0.3228346456692913
          },
          {
            "number": 10,
            "time": 118.70999999999341,
            "value": 0.3228346456692913
          },
          {
            "number": 10,
            "time": 118.71499999999341,
            "value": 0.3228346456692913
          },
          {
            "number": 10,
            "time": 118.7199999999934,
            "value": 0.3228346456692913
          },
          {
            "number": 10,
            "time": 118.7249999999934,
            "value": 0.3228346456692913
          },
          {
            "number": 10,
            "time": 118.7299999999934,
            "value": 0.3228346456692913
          },
          {
            "number": 10,
            "time": 118.73499999999339,
            "value": 0.3228346456692913
          },
          {
            "number": 10,
            "time": 118.73999999999339,
            "value": 0.3228346456692913
          },
          {
            "number": 10,
            "time": 118.74499999999338,
            "value": 0.3228346456692913
          },
          {
            "number": 10,
            "time": 118.74999999999338,
            "value": 0.3228346456692913
          },
          {
            "number": 10,
            "time": 118.75499999999337,
            "value": 0.3228346456692913
          },
          {
            "number": 10,
            "time": 118.75999999999337,
            "value": 0.3228346456692913
          },
          {
            "number": 10,
            "time": 118.76499999999336,
            "value": 0.3228346456692913
          },
          {
            "number": 10,
            "time": 118.76999999999336,
            "value": 0.3228346456692913
          },
          {
            "number": 10,
            "time": 118.77499999999336,
            "value": 0.31496062992125984
          },
          {
            "number": 10,
            "time": 118.77999999999335,
            "value": 0.31496062992125984
          },
          {
            "number": 10,
            "time": 118.78499999999335,
            "value": 0.31496062992125984
          },
          {
            "number": 10,
            "time": 118.78999999999334,
            "value": 0.31496062992125984
          },
          {
            "number": 10,
            "time": 118.79499999999334,
            "value": 0.31496062992125984
          },
          {
            "number": 10,
            "time": 118.79999999999333,
            "value": 0.31496062992125984
          },
          {
            "number": 10,
            "time": 118.80499999999333,
            "value": 0.31496062992125984
          },
          {
            "number": 10,
            "time": 118.80999999999332,
            "value": 0.31496062992125984
          },
          {
            "number": 10,
            "time": 118.81499999999332,
            "value": 0.31496062992125984
          },
          {
            "number": 10,
            "time": 118.81999999999331,
            "value": 0.31496062992125984
          },
          {
            "number": 10,
            "time": 118.82499999999331,
            "value": 0.31496062992125984
          },
          {
            "number": 10,
            "time": 118.8299999999933,
            "value": 0.31496062992125984
          },
          {
            "number": 10,
            "time": 118.8349999999933,
            "value": 0.31496062992125984
          },
          {
            "number": 10,
            "time": 118.8399999999933,
            "value": 0.31496062992125984
          },
          {
            "number": 10,
            "time": 118.84499999999329,
            "value": 0.31496062992125984
          },
          {
            "number": 10,
            "time": 118.84999999999329,
            "value": 0.31496062992125984
          },
          {
            "number": 10,
            "time": 118.85499999999328,
            "value": 0.31496062992125984
          },
          {
            "number": 10,
            "time": 118.85999999999328,
            "value": 0.31496062992125984
          },
          {
            "number": 10,
            "time": 118.86499999999327,
            "value": 0.31496062992125984
          },
          {
            "number": 10,
            "time": 118.86999999999327,
            "value": 0.31496062992125984
          },
          {
            "number": 10,
            "time": 118.87499999999326,
            "value": 0.30708661417322836
          },
          {
            "number": 10,
            "time": 118.87999999999326,
            "value": 0.30708661417322836
          },
          {
            "number": 10,
            "time": 118.88499999999325,
            "value": 0.30708661417322836
          },
          {
            "number": 10,
            "time": 118.88999999999325,
            "value": 0.30708661417322836
          },
          {
            "number": 10,
            "time": 118.89499999999325,
            "value": 0.30708661417322836
          },
          {
            "number": 10,
            "time": 118.89999999999324,
            "value": 0.30708661417322836
          },
          {
            "number": 10,
            "time": 118.90499999999324,
            "value": 0.30708661417322836
          },
          {
            "number": 10,
            "time": 118.90999999999323,
            "value": 0.30708661417322836
          },
          {
            "number": 10,
            "time": 118.91499999999323,
            "value": 0.30708661417322836
          },
          {
            "number": 10,
            "time": 118.91999999999322,
            "value": 0.30708661417322836
          },
          {
            "number": 10,
            "time": 118.92499999999322,
            "value": 0.30708661417322836
          },
          {
            "number": 10,
            "time": 118.92999999999321,
            "value": 0.30708661417322836
          },
          {
            "number": 10,
            "time": 118.93499999999321,
            "value": 0.30708661417322836
          },
          {
            "number": 10,
            "time": 118.9399999999932,
            "value": 0.30708661417322836
          },
          {
            "number": 10,
            "time": 118.9449999999932,
            "value": 0.30708661417322836
          },
          {
            "number": 10,
            "time": 118.9499999999932,
            "value": 0.30708661417322836
          },
          {
            "number": 10,
            "time": 118.95499999999319,
            "value": 0.30708661417322836
          },
          {
            "number": 10,
            "time": 118.95999999999319,
            "value": 0.30708661417322836
          },
          {
            "number": 10,
            "time": 118.96499999999318,
            "value": 0.30708661417322836
          },
          {
            "number": 10,
            "time": 118.96999999999318,
            "value": 0.30708661417322836
          },
          {
            "number": 10,
            "time": 118.97499999999317,
            "value": 0.2992125984251969
          },
          {
            "number": 10,
            "time": 118.97999999999317,
            "value": 0.2992125984251969
          },
          {
            "number": 10,
            "time": 118.98499999999316,
            "value": 0.2992125984251969
          },
          {
            "number": 10,
            "time": 118.98999999999316,
            "value": 0.2992125984251969
          },
          {
            "number": 10,
            "time": 118.99499999999315,
            "value": 0.2992125984251969
          },
          {
            "number": 10,
            "time": 118.99999999999315,
            "value": 0.2992125984251969
          },
          {
            "number": 10,
            "time": 119.00499999999315,
            "value": 0.2992125984251969
          },
          {
            "number": 10,
            "time": 119.00999999999314,
            "value": 0.2992125984251969
          },
          {
            "number": 10,
            "time": 119.01499999999314,
            "value": 0.2992125984251969
          },
          {
            "number": 10,
            "time": 119.01999999999313,
            "value": 0.2992125984251969
          },
          {
            "number": 10,
            "time": 119.02499999999313,
            "value": 0.2992125984251969
          },
          {
            "number": 10,
            "time": 119.02999999999312,
            "value": 0.2992125984251969
          },
          {
            "number": 10,
            "time": 119.03499999999312,
            "value": 0.2992125984251969
          },
          {
            "number": 10,
            "time": 119.03999999999311,
            "value": 0.2992125984251969
          },
          {
            "number": 10,
            "time": 119.04499999999311,
            "value": 0.2992125984251969
          },
          {
            "number": 10,
            "time": 119.0499999999931,
            "value": 0.2992125984251969
          },
          {
            "number": 10,
            "time": 119.0549999999931,
            "value": 0.2992125984251969
          },
          {
            "number": 10,
            "time": 119.0599999999931,
            "value": 0.2992125984251969
          },
          {
            "number": 10,
            "time": 119.06499999999309,
            "value": 0.2992125984251969
          },
          {
            "number": 10,
            "time": 119.06999999999309,
            "value": 0.2992125984251969
          },
          {
            "number": 10,
            "time": 119.07499999999308,
            "value": 0.29133858267716534
          },
          {
            "number": 10,
            "time": 119.07999999999308,
            "value": 0.29133858267716534
          },
          {
            "number": 10,
            "time": 119.08499999999307,
            "value": 0.29133858267716534
          },
          {
            "number": 10,
            "time": 119.08999999999307,
            "value": 0.29133858267716534
          },
          {
            "number": 10,
            "time": 119.09499999999306,
            "value": 0.29133858267716534
          },
          {
            "number": 10,
            "time": 119.09999999999306,
            "value": 0.29133858267716534
          },
          {
            "number": 10,
            "time": 119.10499999999305,
            "value": 0.29133858267716534
          },
          {
            "number": 10,
            "time": 119.10999999999305,
            "value": 0.29133858267716534
          },
          {
            "number": 10,
            "time": 119.11499999999305,
            "value": 0.29133858267716534
          },
          {
            "number": 10,
            "time": 119.11999999999304,
            "value": 0.29133858267716534
          },
          {
            "number": 10,
            "time": 119.12499999999304,
            "value": 0.29133858267716534
          },
          {
            "number": 10,
            "time": 119.12999999999303,
            "value": 0.29133858267716534
          },
          {
            "number": 10,
            "time": 119.13499999999303,
            "value": 0.29133858267716534
          },
          {
            "number": 10,
            "time": 119.13999999999302,
            "value": 0.29133858267716534
          },
          {
            "number": 10,
            "time": 119.14499999999302,
            "value": 0.29133858267716534
          },
          {
            "number": 10,
            "time": 119.14999999999301,
            "value": 0.29133858267716534
          },
          {
            "number": 10,
            "time": 119.15499999999301,
            "value": 0.29133858267716534
          },
          {
            "number": 10,
            "time": 119.159999999993,
            "value": 0.29133858267716534
          },
          {
            "number": 10,
            "time": 119.164999999993,
            "value": 0.29133858267716534
          },
          {
            "number": 10,
            "time": 119.169999999993,
            "value": 0.29133858267716534
          },
          {
            "number": 10,
            "time": 119.17499999999299,
            "value": 0.28346456692913385
          },
          {
            "number": 10,
            "time": 119.17999999999299,
            "value": 0.28346456692913385
          },
          {
            "number": 10,
            "time": 119.18499999999298,
            "value": 0.28346456692913385
          },
          {
            "number": 10,
            "time": 119.18999999999298,
            "value": 0.28346456692913385
          },
          {
            "number": 10,
            "time": 119.19499999999297,
            "value": 0.28346456692913385
          },
          {
            "number": 10,
            "time": 119.19999999999297,
            "value": 0.28346456692913385
          },
          {
            "number": 10,
            "time": 119.20499999999296,
            "value": 0.28346456692913385
          },
          {
            "number": 10,
            "time": 119.20999999999296,
            "value": 0.28346456692913385
          },
          {
            "number": 10,
            "time": 119.21499999999295,
            "value": 0.28346456692913385
          },
          {
            "number": 10,
            "time": 119.21999999999295,
            "value": 0.28346456692913385
          },
          {
            "number": 10,
            "time": 119.22499999999295,
            "value": 0.28346456692913385
          },
          {
            "number": 10,
            "time": 119.22999999999294,
            "value": 0.28346456692913385
          },
          {
            "number": 10,
            "time": 119.23499999999294,
            "value": 0.28346456692913385
          },
          {
            "number": 10,
            "time": 119.23999999999293,
            "value": 0.28346456692913385
          },
          {
            "number": 10,
            "time": 119.24499999999293,
            "value": 0.28346456692913385
          },
          {
            "number": 10,
            "time": 119.24999999999292,
            "value": 0.28346456692913385
          },
          {
            "number": 10,
            "time": 119.25499999999292,
            "value": 0.28346456692913385
          },
          {
            "number": 10,
            "time": 119.25999999999291,
            "value": 0.28346456692913385
          },
          {
            "number": 10,
            "time": 119.26499999999291,
            "value": 0.28346456692913385
          },
          {
            "number": 10,
            "time": 119.2699999999929,
            "value": 0.28346456692913385
          },
          {
            "number": 10,
            "time": 119.2749999999929,
            "value": 0.2755905511811024
          },
          {
            "number": 10,
            "time": 119.2799999999929,
            "value": 0.2755905511811024
          },
          {
            "number": 10,
            "time": 119.28499999999289,
            "value": 0.2755905511811024
          },
          {
            "number": 10,
            "time": 119.28999999999289,
            "value": 0.2755905511811024
          },
          {
            "number": 10,
            "time": 119.29499999999288,
            "value": 0.2755905511811024
          },
          {
            "number": 10,
            "time": 119.29999999999288,
            "value": 0.2755905511811024
          },
          {
            "number": 10,
            "time": 119.30499999999287,
            "value": 0.2755905511811024
          },
          {
            "number": 10,
            "time": 119.30999999999287,
            "value": 0.2755905511811024
          },
          {
            "number": 10,
            "time": 119.31499999999286,
            "value": 0.2755905511811024
          },
          {
            "number": 10,
            "time": 119.31999999999286,
            "value": 0.2755905511811024
          },
          {
            "number": 10,
            "time": 119.32499999999285,
            "value": 0.2755905511811024
          },
          {
            "number": 10,
            "time": 119.32999999999285,
            "value": 0.2755905511811024
          },
          {
            "number": 10,
            "time": 119.33499999999285,
            "value": 0.2755905511811024
          },
          {
            "number": 10,
            "time": 119.33999999999284,
            "value": 0.2755905511811024
          },
          {
            "number": 10,
            "time": 119.34499999999284,
            "value": 0.2755905511811024
          },
          {
            "number": 10,
            "time": 119.34999999999283,
            "value": 0.2755905511811024
          },
          {
            "number": 10,
            "time": 119.35499999999283,
            "value": 0.2755905511811024
          },
          {
            "number": 10,
            "time": 119.35999999999282,
            "value": 0.2755905511811024
          },
          {
            "number": 10,
            "time": 119.36499999999282,
            "value": 0.2755905511811024
          },
          {
            "number": 10,
            "time": 119.36999999999281,
            "value": 0.2755905511811024
          },
          {
            "number": 10,
            "time": 119.37499999999281,
            "value": 0.2677165354330709
          },
          {
            "number": 10,
            "time": 119.3799999999928,
            "value": 0.2677165354330709
          },
          {
            "number": 10,
            "time": 119.3849999999928,
            "value": 0.2677165354330709
          },
          {
            "number": 10,
            "time": 119.3899999999928,
            "value": 0.2677165354330709
          },
          {
            "number": 10,
            "time": 119.39499999999279,
            "value": 0.2677165354330709
          },
          {
            "number": 10,
            "time": 119.39999999999279,
            "value": 0.2677165354330709
          },
          {
            "number": 10,
            "time": 119.40499999999278,
            "value": 0.2677165354330709
          },
          {
            "number": 10,
            "time": 119.40999999999278,
            "value": 0.2677165354330709
          },
          {
            "number": 10,
            "time": 119.41499999999277,
            "value": 0.2677165354330709
          },
          {
            "number": 10,
            "time": 119.41999999999277,
            "value": 0.2677165354330709
          },
          {
            "number": 10,
            "time": 119.42499999999276,
            "value": 0.2677165354330709
          },
          {
            "number": 10,
            "time": 119.42999999999276,
            "value": 0.2677165354330709
          },
          {
            "number": 10,
            "time": 119.43499999999275,
            "value": 0.2677165354330709
          },
          {
            "number": 10,
            "time": 119.43999999999275,
            "value": 0.2677165354330709
          },
          {
            "number": 10,
            "time": 119.44499999999275,
            "value": 0.2677165354330709
          },
          {
            "number": 10,
            "time": 119.44999999999274,
            "value": 0.2677165354330709
          },
          {
            "number": 10,
            "time": 119.45499999999274,
            "value": 0.2677165354330709
          },
          {
            "number": 10,
            "time": 119.45999999999273,
            "value": 0.2677165354330709
          },
          {
            "number": 10,
            "time": 119.46499999999273,
            "value": 0.2677165354330709
          },
          {
            "number": 10,
            "time": 119.46999999999272,
            "value": 0.2677165354330709
          },
          {
            "number": 10,
            "time": 119.47499999999272,
            "value": 0.25984251968503935
          },
          {
            "number": 10,
            "time": 119.47999999999271,
            "value": 0.25984251968503935
          },
          {
            "number": 10,
            "time": 119.48499999999271,
            "value": 0.25984251968503935
          },
          {
            "number": 10,
            "time": 119.4899999999927,
            "value": 0.25984251968503935
          },
          {
            "number": 10,
            "time": 119.4949999999927,
            "value": 0.25984251968503935
          },
          {
            "number": 10,
            "time": 119.4999999999927,
            "value": 0.25984251968503935
          },
          {
            "number": 10,
            "time": 119.50499999999269,
            "value": 0.25984251968503935
          },
          {
            "number": 10,
            "time": 119.50999999999269,
            "value": 0.25984251968503935
          },
          {
            "number": 10,
            "time": 119.51499999999268,
            "value": 0.25984251968503935
          },
          {
            "number": 10,
            "time": 119.51999999999268,
            "value": 0.25984251968503935
          },
          {
            "number": 10,
            "time": 119.52499999999267,
            "value": 0.25984251968503935
          },
          {
            "number": 10,
            "time": 119.52999999999267,
            "value": 0.25984251968503935
          },
          {
            "number": 10,
            "time": 119.53499999999266,
            "value": 0.25984251968503935
          },
          {
            "number": 10,
            "time": 119.53999999999266,
            "value": 0.25984251968503935
          },
          {
            "number": 10,
            "time": 119.54499999999265,
            "value": 0.25984251968503935
          },
          {
            "number": 10,
            "time": 119.54999999999265,
            "value": 0.25984251968503935
          },
          {
            "number": 10,
            "time": 119.55499999999265,
            "value": 0.25984251968503935
          },
          {
            "number": 10,
            "time": 119.55999999999264,
            "value": 0.25984251968503935
          },
          {
            "number": 10,
            "time": 119.56499999999264,
            "value": 0.25984251968503935
          },
          {
            "number": 10,
            "time": 119.56999999999263,
            "value": 0.25984251968503935
          },
          {
            "number": 10,
            "time": 119.57499999999263,
            "value": 0.25196850393700787
          },
          {
            "number": 10,
            "time": 119.57999999999262,
            "value": 0.25196850393700787
          },
          {
            "number": 10,
            "time": 119.58499999999262,
            "value": 0.25196850393700787
          },
          {
            "number": 10,
            "time": 119.58999999999261,
            "value": 0.25196850393700787
          },
          {
            "number": 10,
            "time": 119.59499999999261,
            "value": 0.25196850393700787
          },
          {
            "number": 10,
            "time": 119.5999999999926,
            "value": 0.25196850393700787
          },
          {
            "number": 10,
            "time": 119.6049999999926,
            "value": 0.25196850393700787
          },
          {
            "number": 10,
            "time": 119.6099999999926,
            "value": 0.25196850393700787
          },
          {
            "number": 10,
            "time": 119.61499999999259,
            "value": 0.25196850393700787
          },
          {
            "number": 10,
            "time": 119.61999999999259,
            "value": 0.25196850393700787
          },
          {
            "number": 10,
            "time": 119.62499999999258,
            "value": 0.25196850393700787
          },
          {
            "number": 10,
            "time": 119.62999999999258,
            "value": 0.25196850393700787
          },
          {
            "number": 10,
            "time": 119.63499999999257,
            "value": 0.25196850393700787
          },
          {
            "number": 10,
            "time": 119.63999999999257,
            "value": 0.25196850393700787
          },
          {
            "number": 10,
            "time": 119.64499999999256,
            "value": 0.25196850393700787
          },
          {
            "number": 10,
            "time": 119.64999999999256,
            "value": 0.25196850393700787
          },
          {
            "number": 10,
            "time": 119.65499999999255,
            "value": 0.25196850393700787
          },
          {
            "number": 10,
            "time": 119.65999999999255,
            "value": 0.25196850393700787
          },
          {
            "number": 10,
            "time": 119.66499999999255,
            "value": 0.25196850393700787
          },
          {
            "number": 10,
            "time": 119.66999999999254,
            "value": 0.25196850393700787
          },
          {
            "number": 10,
            "time": 119.67499999999254,
            "value": 0.2440944881889764
          },
          {
            "number": 10,
            "time": 119.67999999999253,
            "value": 0.2440944881889764
          },
          {
            "number": 10,
            "time": 119.68499999999253,
            "value": 0.2440944881889764
          },
          {
            "number": 10,
            "time": 119.68999999999252,
            "value": 0.2440944881889764
          },
          {
            "number": 10,
            "time": 119.69499999999252,
            "value": 0.2440944881889764
          },
          {
            "number": 10,
            "time": 119.69999999999251,
            "value": 0.2440944881889764
          },
          {
            "number": 10,
            "time": 119.70499999999251,
            "value": 0.2440944881889764
          },
          {
            "number": 10,
            "time": 119.7099999999925,
            "value": 0.2440944881889764
          },
          {
            "number": 10,
            "time": 119.7149999999925,
            "value": 0.2440944881889764
          },
          {
            "number": 10,
            "time": 119.7199999999925,
            "value": 0.2440944881889764
          },
          {
            "number": 10,
            "time": 119.72499999999249,
            "value": 0.2440944881889764
          },
          {
            "number": 10,
            "time": 119.72999999999249,
            "value": 0.2440944881889764
          },
          {
            "number": 10,
            "time": 119.73499999999248,
            "value": 0.2440944881889764
          },
          {
            "number": 10,
            "time": 119.73999999999248,
            "value": 0.2440944881889764
          },
          {
            "number": 10,
            "time": 119.74499999999247,
            "value": 0.2440944881889764
          },
          {
            "number": 10,
            "time": 119.74999999999247,
            "value": 0.2440944881889764
          },
          {
            "number": 10,
            "time": 119.75499999999246,
            "value": 0.2440944881889764
          },
          {
            "number": 10,
            "time": 119.75999999999246,
            "value": 0.2440944881889764
          },
          {
            "number": 10,
            "time": 119.76499999999245,
            "value": 0.2440944881889764
          },
          {
            "number": 10,
            "time": 119.76999999999245,
            "value": 0.2440944881889764
          },
          {
            "number": 10,
            "time": 119.77499999999245,
            "value": 0.23622047244094488
          },
          {
            "number": 10,
            "time": 119.77999999999244,
            "value": 0.23622047244094488
          },
          {
            "number": 10,
            "time": 119.78499999999244,
            "value": 0.23622047244094488
          },
          {
            "number": 10,
            "time": 119.78999999999243,
            "value": 0.23622047244094488
          },
          {
            "number": 10,
            "time": 119.79499999999243,
            "value": 0.23622047244094488
          },
          {
            "number": 10,
            "time": 119.79999999999242,
            "value": 0.23622047244094488
          },
          {
            "number": 10,
            "time": 119.80499999999242,
            "value": 0.23622047244094488
          },
          {
            "number": 10,
            "time": 119.80999999999241,
            "value": 0.23622047244094488
          },
          {
            "number": 10,
            "time": 119.81499999999241,
            "value": 0.23622047244094488
          },
          {
            "number": 10,
            "time": 119.8199999999924,
            "value": 0.23622047244094488
          },
          {
            "number": 10,
            "time": 119.8249999999924,
            "value": 0.23622047244094488
          },
          {
            "number": 10,
            "time": 119.8299999999924,
            "value": 0.23622047244094488
          },
          {
            "number": 10,
            "time": 119.83499999999239,
            "value": 0.23622047244094488
          },
          {
            "number": 10,
            "time": 119.83999999999239,
            "value": 0.23622047244094488
          },
          {
            "number": 10,
            "time": 119.84499999999238,
            "value": 0.23622047244094488
          },
          {
            "number": 10,
            "time": 119.84999999999238,
            "value": 0.23622047244094488
          },
          {
            "number": 10,
            "time": 119.85499999999237,
            "value": 0.23622047244094488
          },
          {
            "number": 10,
            "time": 119.85999999999237,
            "value": 0.23622047244094488
          },
          {
            "number": 10,
            "time": 119.86499999999236,
            "value": 0.23622047244094488
          },
          {
            "number": 10,
            "time": 119.86999999999236,
            "value": 0.23622047244094488
          },
          {
            "number": 10,
            "time": 119.87499999999235,
            "value": 0.2283464566929134
          },
          {
            "number": 10,
            "time": 119.87999999999235,
            "value": 0.2283464566929134
          },
          {
            "number": 10,
            "time": 119.88499999999235,
            "value": 0.2283464566929134
          },
          {
            "number": 10,
            "time": 119.88999999999234,
            "value": 0.2283464566929134
          },
          {
            "number": 10,
            "time": 119.89499999999234,
            "value": 0.2283464566929134
          },
          {
            "number": 10,
            "time": 119.89999999999233,
            "value": 0.2283464566929134
          },
          {
            "number": 10,
            "time": 119.90499999999233,
            "value": 0.2283464566929134
          },
          {
            "number": 10,
            "time": 119.90999999999232,
            "value": 0.2283464566929134
          },
          {
            "number": 10,
            "time": 119.91499999999232,
            "value": 0.2283464566929134
          },
          {
            "number": 10,
            "time": 119.91999999999231,
            "value": 0.2283464566929134
          },
          {
            "number": 10,
            "time": 119.92499999999231,
            "value": 0.2283464566929134
          },
          {
            "number": 10,
            "time": 119.9299999999923,
            "value": 0.2283464566929134
          },
          {
            "number": 10,
            "time": 119.9349999999923,
            "value": 0.2283464566929134
          },
          {
            "number": 10,
            "time": 119.9399999999923,
            "value": 0.2283464566929134
          },
          {
            "number": 10,
            "time": 119.94499999999229,
            "value": 0.2283464566929134
          },
          {
            "number": 10,
            "time": 119.94999999999229,
            "value": 0.2283464566929134
          },
          {
            "number": 10,
            "time": 119.95499999999228,
            "value": 0.2283464566929134
          },
          {
            "number": 10,
            "time": 119.95999999999228,
            "value": 0.2283464566929134
          },
          {
            "number": 10,
            "time": 119.96499999999227,
            "value": 0.2283464566929134
          },
          {
            "number": 10,
            "time": 119.96999999999227,
            "value": 0.2283464566929134
          },
          {
            "number": 10,
            "time": 119.97499999999226,
            "value": 0.2204724409448819
          },
          {
            "number": 10,
            "time": 119.97999999999226,
            "value": 0.2204724409448819
          },
          {
            "number": 10,
            "time": 119.98499999999225,
            "value": 0.2204724409448819
          },
          {
            "number": 10,
            "time": 119.98999999999225,
            "value": 0.2204724409448819
          },
          {
            "number": 10,
            "time": 119.99499999999225,
            "value": 0.2204724409448819
          },
          {
            "number": 10,
            "time": 119.99999999999224,
            "value": 0.2204724409448819
          },
          {
            "number": 10,
            "time": 120.00499999999224,
            "value": 0.2204724409448819
          },
          {
            "number": 10,
            "time": 120.00999999999223,
            "value": 0.2204724409448819
          },
          {
            "number": 10,
            "time": 120.01499999999223,
            "value": 0.2204724409448819
          },
          {
            "number": 10,
            "time": 120.01999999999222,
            "value": 0.2204724409448819
          },
          {
            "number": 10,
            "time": 120.02499999999222,
            "value": 0.2204724409448819
          },
          {
            "number": 10,
            "time": 120.02999999999221,
            "value": 0.2204724409448819
          },
          {
            "number": 10,
            "time": 120.03499999999221,
            "value": 0.2204724409448819
          },
          {
            "number": 10,
            "time": 120.0399999999922,
            "value": 0.2204724409448819
          },
          {
            "number": 10,
            "time": 120.0449999999922,
            "value": 0.2204724409448819
          },
          {
            "number": 10,
            "time": 120.0499999999922,
            "value": 0.2204724409448819
          },
          {
            "number": 10,
            "time": 120.05499999999219,
            "value": 0.2204724409448819
          },
          {
            "number": 10,
            "time": 120.05999999999219,
            "value": 0.2204724409448819
          },
          {
            "number": 10,
            "time": 120.06499999999218,
            "value": 0.2204724409448819
          },
          {
            "number": 10,
            "time": 120.06999999999218,
            "value": 0.2204724409448819
          },
          {
            "number": 10,
            "time": 120.07499999999217,
            "value": 0.2125984251968504
          },
          {
            "number": 10,
            "time": 120.07999999999217,
            "value": 0.2125984251968504
          },
          {
            "number": 10,
            "time": 120.08499999999216,
            "value": 0.2125984251968504
          },
          {
            "number": 10,
            "time": 120.08999999999216,
            "value": 0.2125984251968504
          },
          {
            "number": 10,
            "time": 120.09499999999215,
            "value": 0.2125984251968504
          },
          {
            "number": 10,
            "time": 120.09999999999215,
            "value": 0.2125984251968504
          },
          {
            "number": 10,
            "time": 120.10499999999215,
            "value": 0.2125984251968504
          },
          {
            "number": 10,
            "time": 120.10999999999214,
            "value": 0.2125984251968504
          },
          {
            "number": 10,
            "time": 120.11499999999214,
            "value": 0.2125984251968504
          },
          {
            "number": 10,
            "time": 120.11999999999213,
            "value": 0.2125984251968504
          },
          {
            "number": 10,
            "time": 120.12499999999213,
            "value": 0.2125984251968504
          },
          {
            "number": 10,
            "time": 120.12999999999212,
            "value": 0.2125984251968504
          },
          {
            "number": 10,
            "time": 120.13499999999212,
            "value": 0.2125984251968504
          },
          {
            "number": 10,
            "time": 120.13999999999211,
            "value": 0.2125984251968504
          },
          {
            "number": 10,
            "time": 120.14499999999211,
            "value": 0.2125984251968504
          },
          {
            "number": 10,
            "time": 120.1499999999921,
            "value": 0.2125984251968504
          },
          {
            "number": 10,
            "time": 120.1549999999921,
            "value": 0.2125984251968504
          },
          {
            "number": 10,
            "time": 120.1599999999921,
            "value": 0.2125984251968504
          },
          {
            "number": 10,
            "time": 120.16499999999209,
            "value": 0.2125984251968504
          },
          {
            "number": 10,
            "time": 120.16999999999209,
            "value": 0.2125984251968504
          },
          {
            "number": 10,
            "time": 120.17499999999208,
            "value": 0.2047244094488189
          },
          {
            "number": 10,
            "time": 120.17999999999208,
            "value": 0.2047244094488189
          },
          {
            "number": 10,
            "time": 120.18499999999207,
            "value": 0.2047244094488189
          },
          {
            "number": 10,
            "time": 120.18999999999207,
            "value": 0.2047244094488189
          },
          {
            "number": 10,
            "time": 120.19499999999206,
            "value": 0.2047244094488189
          },
          {
            "number": 10,
            "time": 120.19999999999206,
            "value": 0.2047244094488189
          },
          {
            "number": 10,
            "time": 120.20499999999205,
            "value": 0.2047244094488189
          },
          {
            "number": 10,
            "time": 120.20999999999205,
            "value": 0.2047244094488189
          },
          {
            "number": 10,
            "time": 120.21499999999205,
            "value": 0.2047244094488189
          },
          {
            "number": 10,
            "time": 120.21999999999204,
            "value": 0.2047244094488189
          },
          {
            "number": 10,
            "time": 120.22499999999204,
            "value": 0.2047244094488189
          },
          {
            "number": 10,
            "time": 120.22999999999203,
            "value": 0.2047244094488189
          },
          {
            "number": 10,
            "time": 120.23499999999203,
            "value": 0.2047244094488189
          },
          {
            "number": 10,
            "time": 120.23999999999202,
            "value": 0.2047244094488189
          },
          {
            "number": 10,
            "time": 120.24499999999202,
            "value": 0.2047244094488189
          },
          {
            "number": 10,
            "time": 120.24999999999201,
            "value": 0.2047244094488189
          },
          {
            "number": 10,
            "time": 120.25499999999201,
            "value": 0.2047244094488189
          },
          {
            "number": 10,
            "time": 120.259999999992,
            "value": 0.2047244094488189
          },
          {
            "number": 10,
            "time": 120.264999999992,
            "value": 0.2047244094488189
          },
          {
            "number": 10,
            "time": 120.269999999992,
            "value": 0.2047244094488189
          },
          {
            "number": 10,
            "time": 120.27499999999199,
            "value": 0.1968503937007874
          },
          {
            "number": 10,
            "time": 120.27999999999199,
            "value": 0.1968503937007874
          },
          {
            "number": 10,
            "time": 120.28499999999198,
            "value": 0.1968503937007874
          },
          {
            "number": 10,
            "time": 120.28999999999198,
            "value": 0.1968503937007874
          },
          {
            "number": 10,
            "time": 120.29499999999197,
            "value": 0.1968503937007874
          },
          {
            "number": 10,
            "time": 120.29999999999197,
            "value": 0.1968503937007874
          },
          {
            "number": 10,
            "time": 120.30499999999196,
            "value": 0.1968503937007874
          },
          {
            "number": 10,
            "time": 120.30999999999196,
            "value": 0.1968503937007874
          },
          {
            "number": 10,
            "time": 120.31499999999195,
            "value": 0.1968503937007874
          },
          {
            "number": 10,
            "time": 120.31999999999195,
            "value": 0.1968503937007874
          },
          {
            "number": 10,
            "time": 120.32499999999195,
            "value": 0.1968503937007874
          },
          {
            "number": 10,
            "time": 120.32999999999194,
            "value": 0.1968503937007874
          },
          {
            "number": 10,
            "time": 120.33499999999194,
            "value": 0.1968503937007874
          },
          {
            "number": 10,
            "time": 120.33999999999193,
            "value": 0.1968503937007874
          },
          {
            "number": 10,
            "time": 120.34499999999193,
            "value": 0.1968503937007874
          },
          {
            "number": 10,
            "time": 120.34999999999192,
            "value": 0.1968503937007874
          },
          {
            "number": 10,
            "time": 120.35499999999192,
            "value": 0.1968503937007874
          },
          {
            "number": 10,
            "time": 120.35999999999191,
            "value": 0.1968503937007874
          },
          {
            "number": 10,
            "time": 120.36499999999191,
            "value": 0.1968503937007874
          },
          {
            "number": 10,
            "time": 120.3699999999919,
            "value": 0.1968503937007874
          },
          {
            "number": 10,
            "time": 120.3749999999919,
            "value": 0.1889763779527559
          },
          {
            "number": 10,
            "time": 120.3799999999919,
            "value": 0.1889763779527559
          },
          {
            "number": 10,
            "time": 120.38499999999189,
            "value": 0.1889763779527559
          },
          {
            "number": 10,
            "time": 120.38999999999189,
            "value": 0.1889763779527559
          },
          {
            "number": 10,
            "time": 120.39499999999188,
            "value": 0.1889763779527559
          },
          {
            "number": 10,
            "time": 120.39999999999188,
            "value": 0.1889763779527559
          },
          {
            "number": 10,
            "time": 120.40499999999187,
            "value": 0.1889763779527559
          },
          {
            "number": 10,
            "time": 120.40999999999187,
            "value": 0.1889763779527559
          },
          {
            "number": 10,
            "time": 120.41499999999186,
            "value": 0.1889763779527559
          },
          {
            "number": 10,
            "time": 120.41999999999186,
            "value": 0.1889763779527559
          },
          {
            "number": 10,
            "time": 120.42499999999185,
            "value": 0.1889763779527559
          },
          {
            "number": 10,
            "time": 120.42999999999185,
            "value": 0.1889763779527559
          },
          {
            "number": 10,
            "time": 120.43499999999185,
            "value": 0.1889763779527559
          },
          {
            "number": 10,
            "time": 120.43999999999184,
            "value": 0.1889763779527559
          },
          {
            "number": 10,
            "time": 120.44499999999184,
            "value": 0.1889763779527559
          },
          {
            "number": 10,
            "time": 120.44999999999183,
            "value": 0.1889763779527559
          },
          {
            "number": 10,
            "time": 120.45499999999183,
            "value": 0.1889763779527559
          },
          {
            "number": 10,
            "time": 120.45999999999182,
            "value": 0.1889763779527559
          },
          {
            "number": 10,
            "time": 120.46499999999182,
            "value": 0.1889763779527559
          },
          {
            "number": 10,
            "time": 120.46999999999181,
            "value": 0.1889763779527559
          },
          {
            "number": 10,
            "time": 120.47499999999181,
            "value": 0.18110236220472442
          },
          {
            "number": 10,
            "time": 120.4799999999918,
            "value": 0.18110236220472442
          },
          {
            "number": 10,
            "time": 120.4849999999918,
            "value": 0.18110236220472442
          },
          {
            "number": 10,
            "time": 120.4899999999918,
            "value": 0.18110236220472442
          },
          {
            "number": 10,
            "time": 120.49499999999179,
            "value": 0.18110236220472442
          },
          {
            "number": 10,
            "time": 120.49999999999179,
            "value": 0.18110236220472442
          },
          {
            "number": 10,
            "time": 120.50499999999178,
            "value": 0.18110236220472442
          },
          {
            "number": 10,
            "time": 120.50999999999178,
            "value": 0.18110236220472442
          },
          {
            "number": 10,
            "time": 120.51499999999177,
            "value": 0.18110236220472442
          },
          {
            "number": 10,
            "time": 120.51999999999177,
            "value": 0.18110236220472442
          },
          {
            "number": 10,
            "time": 120.52499999999176,
            "value": 0.18110236220472442
          },
          {
            "number": 10,
            "time": 120.52999999999176,
            "value": 0.18110236220472442
          },
          {
            "number": 10,
            "time": 120.53499999999175,
            "value": 0.18110236220472442
          },
          {
            "number": 10,
            "time": 120.53999999999175,
            "value": 0.18110236220472442
          },
          {
            "number": 10,
            "time": 120.54499999999175,
            "value": 0.18110236220472442
          },
          {
            "number": 10,
            "time": 120.54999999999174,
            "value": 0.18110236220472442
          },
          {
            "number": 10,
            "time": 120.55499999999174,
            "value": 0.18110236220472442
          },
          {
            "number": 10,
            "time": 120.55999999999173,
            "value": 0.18110236220472442
          },
          {
            "number": 10,
            "time": 120.56499999999173,
            "value": 0.18110236220472442
          },
          {
            "number": 10,
            "time": 120.56999999999172,
            "value": 0.18110236220472442
          },
          {
            "number": 10,
            "time": 120.57499999999172,
            "value": 0.1732283464566929
          },
          {
            "number": 10,
            "time": 120.57999999999171,
            "value": 0.1732283464566929
          },
          {
            "number": 10,
            "time": 120.58499999999171,
            "value": 0.1732283464566929
          },
          {
            "number": 10,
            "time": 120.5899999999917,
            "value": 0.1732283464566929
          },
          {
            "number": 10,
            "time": 120.5949999999917,
            "value": 0.1732283464566929
          },
          {
            "number": 10,
            "time": 120.5999999999917,
            "value": 0.1732283464566929
          },
          {
            "number": 10,
            "time": 120.60499999999169,
            "value": 0.1732283464566929
          },
          {
            "number": 10,
            "time": 120.60999999999169,
            "value": 0.1732283464566929
          },
          {
            "number": 10,
            "time": 120.61499999999168,
            "value": 0.1732283464566929
          },
          {
            "number": 10,
            "time": 120.61999999999168,
            "value": 0.1732283464566929
          },
          {
            "number": 10,
            "time": 120.62499999999167,
            "value": 0.1732283464566929
          },
          {
            "number": 10,
            "time": 120.62999999999167,
            "value": 0.1732283464566929
          },
          {
            "number": 10,
            "time": 120.63499999999166,
            "value": 0.1732283464566929
          },
          {
            "number": 10,
            "time": 120.63999999999166,
            "value": 0.1732283464566929
          },
          {
            "number": 10,
            "time": 120.64499999999165,
            "value": 0.1732283464566929
          },
          {
            "number": 10,
            "time": 120.64999999999165,
            "value": 0.1732283464566929
          },
          {
            "number": 10,
            "time": 120.65499999999165,
            "value": 0.1732283464566929
          },
          {
            "number": 10,
            "time": 120.65999999999164,
            "value": 0.1732283464566929
          },
          {
            "number": 10,
            "time": 120.66499999999164,
            "value": 0.1732283464566929
          },
          {
            "number": 10,
            "time": 120.66999999999163,
            "value": 0.1732283464566929
          },
          {
            "number": 10,
            "time": 120.67499999999163,
            "value": 0.16535433070866143
          },
          {
            "number": 10,
            "time": 120.67999999999162,
            "value": 0.16535433070866143
          },
          {
            "number": 10,
            "time": 120.68499999999162,
            "value": 0.16535433070866143
          },
          {
            "number": 10,
            "time": 120.68999999999161,
            "value": 0.16535433070866143
          },
          {
            "number": 10,
            "time": 120.69499999999161,
            "value": 0.16535433070866143
          },
          {
            "number": 10,
            "time": 120.6999999999916,
            "value": 0.16535433070866143
          },
          {
            "number": 10,
            "time": 120.7049999999916,
            "value": 0.16535433070866143
          },
          {
            "number": 10,
            "time": 120.7099999999916,
            "value": 0.16535433070866143
          },
          {
            "number": 10,
            "time": 120.71499999999159,
            "value": 0.16535433070866143
          },
          {
            "number": 10,
            "time": 120.71999999999159,
            "value": 0.16535433070866143
          },
          {
            "number": 10,
            "time": 120.72499999999158,
            "value": 0.16535433070866143
          },
          {
            "number": 10,
            "time": 120.72999999999158,
            "value": 0.16535433070866143
          },
          {
            "number": 10,
            "time": 120.73499999999157,
            "value": 0.16535433070866143
          },
          {
            "number": 10,
            "time": 120.73999999999157,
            "value": 0.16535433070866143
          },
          {
            "number": 10,
            "time": 120.74499999999156,
            "value": 0.16535433070866143
          },
          {
            "number": 10,
            "time": 120.74999999999156,
            "value": 0.16535433070866143
          },
          {
            "number": 10,
            "time": 120.75499999999155,
            "value": 0.16535433070866143
          },
          {
            "number": 10,
            "time": 120.75999999999155,
            "value": 0.16535433070866143
          },
          {
            "number": 10,
            "time": 120.76499999999155,
            "value": 0.16535433070866143
          },
          {
            "number": 10,
            "time": 120.76999999999154,
            "value": 0.16535433070866143
          },
          {
            "number": 10,
            "time": 120.77499999999154,
            "value": 0.15748031496062992
          },
          {
            "number": 10,
            "time": 120.77999999999153,
            "value": 0.15748031496062992
          },
          {
            "number": 10,
            "time": 120.78499999999153,
            "value": 0.15748031496062992
          },
          {
            "number": 10,
            "time": 120.78999999999152,
            "value": 0.15748031496062992
          },
          {
            "number": 10,
            "time": 120.79499999999152,
            "value": 0.15748031496062992
          },
          {
            "number": 10,
            "time": 120.79999999999151,
            "value": 0.15748031496062992
          },
          {
            "number": 10,
            "time": 120.80499999999151,
            "value": 0.15748031496062992
          },
          {
            "number": 10,
            "time": 120.8099999999915,
            "value": 0.15748031496062992
          },
          {
            "number": 10,
            "time": 120.8149999999915,
            "value": 0.15748031496062992
          },
          {
            "number": 10,
            "time": 120.8199999999915,
            "value": 0.15748031496062992
          },
          {
            "number": 10,
            "time": 120.82499999999149,
            "value": 0.15748031496062992
          },
          {
            "number": 10,
            "time": 120.82999999999149,
            "value": 0.15748031496062992
          },
          {
            "number": 10,
            "time": 120.83499999999148,
            "value": 0.15748031496062992
          },
          {
            "number": 10,
            "time": 120.83999999999148,
            "value": 0.15748031496062992
          },
          {
            "number": 10,
            "time": 120.84499999999147,
            "value": 0.15748031496062992
          },
          {
            "number": 10,
            "time": 120.84999999999147,
            "value": 0.15748031496062992
          },
          {
            "number": 10,
            "time": 120.85499999999146,
            "value": 0.15748031496062992
          },
          {
            "number": 10,
            "time": 120.85999999999146,
            "value": 0.15748031496062992
          },
          {
            "number": 10,
            "time": 120.86499999999145,
            "value": 0.15748031496062992
          },
          {
            "number": 10,
            "time": 120.86999999999145,
            "value": 0.15748031496062992
          },
          {
            "number": 10,
            "time": 120.87499999999145,
            "value": 0.14960629921259844
          },
          {
            "number": 10,
            "time": 120.87999999999144,
            "value": 0.14960629921259844
          },
          {
            "number": 10,
            "time": 120.88499999999144,
            "value": 0.14960629921259844
          },
          {
            "number": 10,
            "time": 120.88999999999143,
            "value": 0.14960629921259844
          },
          {
            "number": 10,
            "time": 120.89499999999143,
            "value": 0.14960629921259844
          },
          {
            "number": 10,
            "time": 120.89999999999142,
            "value": 0.14960629921259844
          },
          {
            "number": 10,
            "time": 120.90499999999142,
            "value": 0.14960629921259844
          },
          {
            "number": 10,
            "time": 120.90999999999141,
            "value": 0.14960629921259844
          },
          {
            "number": 10,
            "time": 120.91499999999141,
            "value": 0.14960629921259844
          },
          {
            "number": 10,
            "time": 120.9199999999914,
            "value": 0.14960629921259844
          },
          {
            "number": 10,
            "time": 120.9249999999914,
            "value": 0.14960629921259844
          },
          {
            "number": 10,
            "time": 120.9299999999914,
            "value": 0.14960629921259844
          },
          {
            "number": 10,
            "time": 120.93499999999139,
            "value": 0.14960629921259844
          },
          {
            "number": 10,
            "time": 120.93999999999139,
            "value": 0.14960629921259844
          },
          {
            "number": 10,
            "time": 120.94499999999138,
            "value": 0.14960629921259844
          },
          {
            "number": 10,
            "time": 120.94999999999138,
            "value": 0.14960629921259844
          },
          {
            "number": 10,
            "time": 120.95499999999137,
            "value": 0.14960629921259844
          },
          {
            "number": 10,
            "time": 120.95999999999137,
            "value": 0.14960629921259844
          },
          {
            "number": 10,
            "time": 120.96499999999136,
            "value": 0.14960629921259844
          },
          {
            "number": 10,
            "time": 120.96999999999136,
            "value": 0.14960629921259844
          },
          {
            "number": 10,
            "time": 120.97499999999135,
            "value": 0.14173228346456693
          },
          {
            "number": 10,
            "time": 120.97999999999135,
            "value": 0.14173228346456693
          },
          {
            "number": 10,
            "time": 120.98499999999135,
            "value": 0.14173228346456693
          },
          {
            "number": 10,
            "time": 120.98999999999134,
            "value": 0.14173228346456693
          },
          {
            "number": 10,
            "time": 120.99499999999134,
            "value": 0.14173228346456693
          },
          {
            "number": 10,
            "time": 120.99999999999133,
            "value": 0.14173228346456693
          },
          {
            "number": 10,
            "time": 121.00499999999133,
            "value": 0.14173228346456693
          },
          {
            "number": 10,
            "time": 121.00999999999132,
            "value": 0.14173228346456693
          },
          {
            "number": 10,
            "time": 121.01499999999132,
            "value": 0.14173228346456693
          },
          {
            "number": 10,
            "time": 121.01999999999131,
            "value": 0.14173228346456693
          },
          {
            "number": 10,
            "time": 121.02499999999131,
            "value": 0.14173228346456693
          },
          {
            "number": 10,
            "time": 121.0299999999913,
            "value": 0.14173228346456693
          },
          {
            "number": 10,
            "time": 121.0349999999913,
            "value": 0.14173228346456693
          },
          {
            "number": 10,
            "time": 121.0399999999913,
            "value": 0.14173228346456693
          },
          {
            "number": 10,
            "time": 121.04499999999129,
            "value": 0.14173228346456693
          },
          {
            "number": 10,
            "time": 121.04999999999129,
            "value": 0.14173228346456693
          },
          {
            "number": 10,
            "time": 121.05499999999128,
            "value": 0.14173228346456693
          },
          {
            "number": 10,
            "time": 121.05999999999128,
            "value": 0.14173228346456693
          },
          {
            "number": 10,
            "time": 121.06499999999127,
            "value": 0.14173228346456693
          },
          {
            "number": 10,
            "time": 121.06999999999127,
            "value": 0.14173228346456693
          },
          {
            "number": 10,
            "time": 121.07499999999126,
            "value": 0.13385826771653545
          },
          {
            "number": 10,
            "time": 121.07999999999126,
            "value": 0.13385826771653545
          },
          {
            "number": 10,
            "time": 121.08499999999125,
            "value": 0.13385826771653545
          },
          {
            "number": 10,
            "time": 121.08999999999125,
            "value": 0.13385826771653545
          },
          {
            "number": 10,
            "time": 121.09499999999124,
            "value": 0.13385826771653545
          },
          {
            "number": 10,
            "time": 121.09999999999124,
            "value": 0.13385826771653545
          },
          {
            "number": 10,
            "time": 121.10499999999124,
            "value": 0.13385826771653545
          },
          {
            "number": 10,
            "time": 121.10999999999123,
            "value": 0.13385826771653545
          },
          {
            "number": 10,
            "time": 121.11499999999123,
            "value": 0.13385826771653545
          },
          {
            "number": 10,
            "time": 121.11999999999122,
            "value": 0.13385826771653545
          },
          {
            "number": 10,
            "time": 121.12499999999122,
            "value": 0.13385826771653545
          },
          {
            "number": 10,
            "time": 121.12999999999121,
            "value": 0.13385826771653545
          },
          {
            "number": 10,
            "time": 121.13499999999121,
            "value": 0.13385826771653545
          },
          {
            "number": 10,
            "time": 121.1399999999912,
            "value": 0.13385826771653545
          },
          {
            "number": 10,
            "time": 121.1449999999912,
            "value": 0.13385826771653545
          },
          {
            "number": 10,
            "time": 121.1499999999912,
            "value": 0.13385826771653545
          },
          {
            "number": 10,
            "time": 121.15499999999119,
            "value": 0.13385826771653545
          },
          {
            "number": 10,
            "time": 121.15999999999119,
            "value": 0.13385826771653545
          },
          {
            "number": 10,
            "time": 121.16499999999118,
            "value": 0.13385826771653545
          },
          {
            "number": 10,
            "time": 121.16999999999118,
            "value": 0.13385826771653545
          },
          {
            "number": 10,
            "time": 121.17499999999117,
            "value": 0.12598425196850394
          },
          {
            "number": 10,
            "time": 121.17999999999117,
            "value": 0.12598425196850394
          },
          {
            "number": 10,
            "time": 121.18499999999116,
            "value": 0.12598425196850394
          },
          {
            "number": 10,
            "time": 121.18999999999116,
            "value": 0.12598425196850394
          },
          {
            "number": 10,
            "time": 121.19499999999115,
            "value": 0.12598425196850394
          },
          {
            "number": 10,
            "time": 121.19999999999115,
            "value": 0.12598425196850394
          },
          {
            "number": 10,
            "time": 121.20499999999114,
            "value": 0.12598425196850394
          },
          {
            "number": 10,
            "time": 121.20999999999114,
            "value": 0.12598425196850394
          },
          {
            "number": 10,
            "time": 121.21499999999114,
            "value": 0.12598425196850394
          },
          {
            "number": 10,
            "time": 121.21999999999113,
            "value": 0.12598425196850394
          },
          {
            "number": 10,
            "time": 121.22499999999113,
            "value": 0.12598425196850394
          },
          {
            "number": 10,
            "time": 121.22999999999112,
            "value": 0.12598425196850394
          },
          {
            "number": 10,
            "time": 121.23499999999112,
            "value": 0.12598425196850394
          },
          {
            "number": 10,
            "time": 121.23999999999111,
            "value": 0.12598425196850394
          },
          {
            "number": 10,
            "time": 121.24499999999111,
            "value": 0.12598425196850394
          },
          {
            "number": 10,
            "time": 121.2499999999911,
            "value": 0.12598425196850394
          },
          {
            "number": 10,
            "time": 121.2549999999911,
            "value": 0.12598425196850394
          },
          {
            "number": 10,
            "time": 121.2599999999911,
            "value": 0.12598425196850394
          },
          {
            "number": 10,
            "time": 121.26499999999109,
            "value": 0.12598425196850394
          },
          {
            "number": 10,
            "time": 121.26999999999109,
            "value": 0.12598425196850394
          },
          {
            "number": 10,
            "time": 121.27499999999108,
            "value": 0.11811023622047244
          },
          {
            "number": 10,
            "time": 121.27999999999108,
            "value": 0.11811023622047244
          },
          {
            "number": 10,
            "time": 121.28499999999107,
            "value": 0.11811023622047244
          },
          {
            "number": 10,
            "time": 121.28999999999107,
            "value": 0.11811023622047244
          },
          {
            "number": 10,
            "time": 121.29499999999106,
            "value": 0.11811023622047244
          },
          {
            "number": 10,
            "time": 121.29999999999106,
            "value": 0.11811023622047244
          },
          {
            "number": 10,
            "time": 121.30499999999105,
            "value": 0.11811023622047244
          },
          {
            "number": 10,
            "time": 121.30999999999105,
            "value": 0.11811023622047244
          },
          {
            "number": 10,
            "time": 121.31499999999104,
            "value": 0.11811023622047244
          },
          {
            "number": 10,
            "time": 121.31999999999104,
            "value": 0.11811023622047244
          },
          {
            "number": 10,
            "time": 121.32499999999104,
            "value": 0.11811023622047244
          },
          {
            "number": 10,
            "time": 121.32999999999103,
            "value": 0.11811023622047244
          },
          {
            "number": 10,
            "time": 121.33499999999103,
            "value": 0.11811023622047244
          },
          {
            "number": 10,
            "time": 121.33999999999102,
            "value": 0.11811023622047244
          },
          {
            "number": 10,
            "time": 121.34499999999102,
            "value": 0.11811023622047244
          },
          {
            "number": 10,
            "time": 121.34999999999101,
            "value": 0.11811023622047244
          },
          {
            "number": 10,
            "time": 121.35499999999101,
            "value": 0.11811023622047244
          },
          {
            "number": 10,
            "time": 121.359999999991,
            "value": 0.11811023622047244
          },
          {
            "number": 10,
            "time": 121.364999999991,
            "value": 0.11811023622047244
          },
          {
            "number": 10,
            "time": 121.369999999991,
            "value": 0.11811023622047244
          },
          {
            "number": 10,
            "time": 121.37499999999099,
            "value": 0.11023622047244094
          },
          {
            "number": 10,
            "time": 121.37999999999099,
            "value": 0.11023622047244094
          },
          {
            "number": 10,
            "time": 121.38499999999098,
            "value": 0.11023622047244094
          },
          {
            "number": 10,
            "time": 121.38999999999098,
            "value": 0.11023622047244094
          },
          {
            "number": 10,
            "time": 121.39499999999097,
            "value": 0.11023622047244094
          },
          {
            "number": 10,
            "time": 121.39999999999097,
            "value": 0.11023622047244094
          },
          {
            "number": 10,
            "time": 121.40499999999096,
            "value": 0.11023622047244094
          },
          {
            "number": 10,
            "time": 121.40999999999096,
            "value": 0.11023622047244094
          },
          {
            "number": 10,
            "time": 121.41499999999095,
            "value": 0.11023622047244094
          },
          {
            "number": 10,
            "time": 121.41999999999095,
            "value": 0.11023622047244094
          },
          {
            "number": 10,
            "time": 121.42499999999094,
            "value": 0.11023622047244094
          },
          {
            "number": 10,
            "time": 121.42999999999094,
            "value": 0.11023622047244094
          },
          {
            "number": 10,
            "time": 121.43499999999094,
            "value": 0.11023622047244094
          },
          {
            "number": 10,
            "time": 121.43999999999093,
            "value": 0.11023622047244094
          },
          {
            "number": 10,
            "time": 121.44499999999093,
            "value": 0.11023622047244094
          },
          {
            "number": 10,
            "time": 121.44999999999092,
            "value": 0.11023622047244094
          },
          {
            "number": 10,
            "time": 121.45499999999092,
            "value": 0.11023622047244094
          },
          {
            "number": 10,
            "time": 121.45999999999091,
            "value": 0.11023622047244094
          },
          {
            "number": 10,
            "time": 121.46499999999091,
            "value": 0.11023622047244094
          },
          {
            "number": 10,
            "time": 121.4699999999909,
            "value": 0.11023622047244094
          },
          {
            "number": 10,
            "time": 121.4749999999909,
            "value": 0.10236220472440945
          },
          {
            "number": 10,
            "time": 121.4799999999909,
            "value": 0.10236220472440945
          },
          {
            "number": 10,
            "time": 121.48499999999089,
            "value": 0.10236220472440945
          },
          {
            "number": 10,
            "time": 121.48999999999089,
            "value": 0.10236220472440945
          },
          {
            "number": 10,
            "time": 121.49499999999088,
            "value": 0.10236220472440945
          },
          {
            "number": 10,
            "time": 121.49999999999088,
            "value": 0.10236220472440945
          },
          {
            "number": 10,
            "time": 121.50499999999087,
            "value": 0.10236220472440945
          },
          {
            "number": 10,
            "time": 121.50999999999087,
            "value": 0.10236220472440945
          },
          {
            "number": 10,
            "time": 121.51499999999086,
            "value": 0.10236220472440945
          },
          {
            "number": 10,
            "time": 121.51999999999086,
            "value": 0.10236220472440945
          },
          {
            "number": 10,
            "time": 121.52499999999085,
            "value": 0.10236220472440945
          },
          {
            "number": 10,
            "time": 121.52999999999085,
            "value": 0.10236220472440945
          },
          {
            "number": 10,
            "time": 121.53499999999084,
            "value": 0.10236220472440945
          },
          {
            "number": 10,
            "time": 121.53999999999084,
            "value": 0.10236220472440945
          },
          {
            "number": 10,
            "time": 121.54499999999084,
            "value": 0.10236220472440945
          },
          {
            "number": 10,
            "time": 121.54999999999083,
            "value": 0.10236220472440945
          },
          {
            "number": 10,
            "time": 121.55499999999083,
            "value": 0.10236220472440945
          },
          {
            "number": 10,
            "time": 121.55999999999082,
            "value": 0.10236220472440945
          },
          {
            "number": 10,
            "time": 121.56499999999082,
            "value": 0.10236220472440945
          },
          {
            "number": 10,
            "time": 121.56999999999081,
            "value": 0.10236220472440945
          },
          {
            "number": 10,
            "time": 121.57499999999081,
            "value": 0.09448818897637795
          },
          {
            "number": 10,
            "time": 121.5799999999908,
            "value": 0.09448818897637795
          },
          {
            "number": 10,
            "time": 121.5849999999908,
            "value": 0.09448818897637795
          },
          {
            "number": 10,
            "time": 121.5899999999908,
            "value": 0.09448818897637795
          },
          {
            "number": 10,
            "time": 121.59499999999079,
            "value": 0.09448818897637795
          },
          {
            "number": 10,
            "time": 121.59999999999079,
            "value": 0.09448818897637795
          },
          {
            "number": 10,
            "time": 121.60499999999078,
            "value": 0.09448818897637795
          },
          {
            "number": 10,
            "time": 121.60999999999078,
            "value": 0.09448818897637795
          },
          {
            "number": 10,
            "time": 121.61499999999077,
            "value": 0.09448818897637795
          },
          {
            "number": 10,
            "time": 121.61999999999077,
            "value": 0.09448818897637795
          },
          {
            "number": 10,
            "time": 121.62499999999076,
            "value": 0.09448818897637795
          },
          {
            "number": 10,
            "time": 121.62999999999076,
            "value": 0.09448818897637795
          },
          {
            "number": 10,
            "time": 121.63499999999075,
            "value": 0.09448818897637795
          },
          {
            "number": 10,
            "time": 121.63999999999075,
            "value": 0.09448818897637795
          },
          {
            "number": 10,
            "time": 121.64499999999074,
            "value": 0.09448818897637795
          },
          {
            "number": 10,
            "time": 121.64999999999074,
            "value": 0.09448818897637795
          },
          {
            "number": 10,
            "time": 121.65499999999074,
            "value": 0.09448818897637795
          },
          {
            "number": 10,
            "time": 121.65999999999073,
            "value": 0.09448818897637795
          },
          {
            "number": 10,
            "time": 121.66499999999073,
            "value": 0.09448818897637795
          },
          {
            "number": 10,
            "time": 121.66999999999072,
            "value": 0.09448818897637795
          },
          {
            "number": 10,
            "time": 121.67499999999072,
            "value": 0.08661417322834646
          },
          {
            "number": 10,
            "time": 121.67999999999071,
            "value": 0.08661417322834646
          },
          {
            "number": 10,
            "time": 121.68499999999071,
            "value": 0.08661417322834646
          },
          {
            "number": 10,
            "time": 121.6899999999907,
            "value": 0.08661417322834646
          },
          {
            "number": 10,
            "time": 121.6949999999907,
            "value": 0.08661417322834646
          },
          {
            "number": 10,
            "time": 121.6999999999907,
            "value": 0.08661417322834646
          },
          {
            "number": 10,
            "time": 121.70499999999069,
            "value": 0.08661417322834646
          },
          {
            "number": 10,
            "time": 121.70999999999069,
            "value": 0.08661417322834646
          },
          {
            "number": 10,
            "time": 121.71499999999068,
            "value": 0.08661417322834646
          },
          {
            "number": 10,
            "time": 121.71999999999068,
            "value": 0.08661417322834646
          },
          {
            "number": 10,
            "time": 121.72499999999067,
            "value": 0.08661417322834646
          },
          {
            "number": 10,
            "time": 121.72999999999067,
            "value": 0.08661417322834646
          },
          {
            "number": 10,
            "time": 121.73499999999066,
            "value": 0.08661417322834646
          },
          {
            "number": 10,
            "time": 121.73999999999066,
            "value": 0.08661417322834646
          },
          {
            "number": 10,
            "time": 121.74499999999065,
            "value": 0.08661417322834646
          },
          {
            "number": 10,
            "time": 121.74999999999065,
            "value": 0.08661417322834646
          },
          {
            "number": 10,
            "time": 121.75499999999064,
            "value": 0.08661417322834646
          },
          {
            "number": 10,
            "time": 121.75999999999064,
            "value": 0.08661417322834646
          },
          {
            "number": 10,
            "time": 121.76499999999064,
            "value": 0.08661417322834646
          },
          {
            "number": 10,
            "time": 121.76999999999063,
            "value": 0.08661417322834646
          },
          {
            "number": 10,
            "time": 121.77499999999063,
            "value": 0.07874015748031496
          },
          {
            "number": 10,
            "time": 121.77999999999062,
            "value": 0.07874015748031496
          },
          {
            "number": 10,
            "time": 121.78499999999062,
            "value": 0.07874015748031496
          },
          {
            "number": 10,
            "time": 121.78999999999061,
            "value": 0.07874015748031496
          },
          {
            "number": 10,
            "time": 121.79499999999061,
            "value": 0.07874015748031496
          },
          {
            "number": 10,
            "time": 121.7999999999906,
            "value": 0.07874015748031496
          },
          {
            "number": 10,
            "time": 121.8049999999906,
            "value": 0.07874015748031496
          },
          {
            "number": 10,
            "time": 121.8099999999906,
            "value": 0.07874015748031496
          },
          {
            "number": 10,
            "time": 121.81499999999059,
            "value": 0.07874015748031496
          },
          {
            "number": 10,
            "time": 121.81999999999059,
            "value": 0.07874015748031496
          },
          {
            "number": 10,
            "time": 121.82499999999058,
            "value": 0.07874015748031496
          },
          {
            "number": 10,
            "time": 121.82999999999058,
            "value": 0.07874015748031496
          },
          {
            "number": 10,
            "time": 121.83499999999057,
            "value": 0.07874015748031496
          },
          {
            "number": 10,
            "time": 121.83999999999057,
            "value": 0.07874015748031496
          },
          {
            "number": 10,
            "time": 121.84499999999056,
            "value": 0.07874015748031496
          },
          {
            "number": 10,
            "time": 121.84999999999056,
            "value": 0.07874015748031496
          },
          {
            "number": 10,
            "time": 121.85499999999055,
            "value": 0.07874015748031496
          },
          {
            "number": 10,
            "time": 121.85999999999055,
            "value": 0.07874015748031496
          },
          {
            "number": 10,
            "time": 121.86499999999054,
            "value": 0.07874015748031496
          },
          {
            "number": 10,
            "time": 121.86999999999054,
            "value": 0.07874015748031496
          },
          {
            "number": 10,
            "time": 121.87499999999054,
            "value": 0.07086614173228346
          },
          {
            "number": 10,
            "time": 121.87999999999053,
            "value": 0.07086614173228346
          },
          {
            "number": 10,
            "time": 121.88499999999053,
            "value": 0.07086614173228346
          },
          {
            "number": 10,
            "time": 121.88999999999052,
            "value": 0.07086614173228346
          },
          {
            "number": 10,
            "time": 121.89499999999052,
            "value": 0.07086614173228346
          },
          {
            "number": 10,
            "time": 121.89999999999051,
            "value": 0.07086614173228346
          },
          {
            "number": 10,
            "time": 121.90499999999051,
            "value": 0.07086614173228346
          },
          {
            "number": 10,
            "time": 121.9099999999905,
            "value": 0.07086614173228346
          },
          {
            "number": 10,
            "time": 121.9149999999905,
            "value": 0.07086614173228346
          },
          {
            "number": 10,
            "time": 121.9199999999905,
            "value": 0.07086614173228346
          },
          {
            "number": 10,
            "time": 121.92499999999049,
            "value": 0.07086614173228346
          },
          {
            "number": 10,
            "time": 121.92999999999049,
            "value": 0.07086614173228346
          },
          {
            "number": 10,
            "time": 121.93499999999048,
            "value": 0.07086614173228346
          },
          {
            "number": 10,
            "time": 121.93999999999048,
            "value": 0.07086614173228346
          },
          {
            "number": 10,
            "time": 121.94499999999047,
            "value": 0.07086614173228346
          },
          {
            "number": 10,
            "time": 121.94999999999047,
            "value": 0.07086614173228346
          },
          {
            "number": 10,
            "time": 121.95499999999046,
            "value": 0.07086614173228346
          },
          {
            "number": 10,
            "time": 121.95999999999046,
            "value": 0.07086614173228346
          },
          {
            "number": 10,
            "time": 121.96499999999045,
            "value": 0.07086614173228346
          },
          {
            "number": 10,
            "time": 121.96999999999045,
            "value": 0.07086614173228346
          },
          {
            "number": 10,
            "time": 121.97499999999044,
            "value": 0.06299212598425197
          },
          {
            "number": 10,
            "time": 121.97999999999044,
            "value": 0.06299212598425197
          },
          {
            "number": 10,
            "time": 121.98499999999044,
            "value": 0.06299212598425197
          },
          {
            "number": 10,
            "time": 121.98999999999043,
            "value": 0.06299212598425197
          },
          {
            "number": 10,
            "time": 121.99499999999043,
            "value": 0.06299212598425197
          },
          {
            "number": 10,
            "time": 121.99999999999042,
            "value": 0.06299212598425197
          },
          {
            "number": 10,
            "time": 122.00499999999042,
            "value": 0.06299212598425197
          },
          {
            "number": 10,
            "time": 122.00999999999041,
            "value": 0.06299212598425197
          },
          {
            "number": 10,
            "time": 122.01499999999041,
            "value": 0.06299212598425197
          },
          {
            "number": 10,
            "time": 122.0199999999904,
            "value": 0.06299212598425197
          },
          {
            "number": 10,
            "time": 122.0249999999904,
            "value": 0.06299212598425197
          },
          {
            "number": 10,
            "time": 122.0299999999904,
            "value": 0.06299212598425197
          },
          {
            "number": 10,
            "time": 122.03499999999039,
            "value": 0.06299212598425197
          },
          {
            "number": 10,
            "time": 122.03999999999039,
            "value": 0.06299212598425197
          },
          {
            "number": 10,
            "time": 122.04499999999038,
            "value": 0.06299212598425197
          },
          {
            "number": 10,
            "time": 122.04999999999038,
            "value": 0.06299212598425197
          },
          {
            "number": 10,
            "time": 122.05499999999037,
            "value": 0.06299212598425197
          },
          {
            "number": 10,
            "time": 122.05999999999037,
            "value": 0.06299212598425197
          },
          {
            "number": 10,
            "time": 122.06499999999036,
            "value": 0.06299212598425197
          },
          {
            "number": 10,
            "time": 122.06999999999036,
            "value": 0.06299212598425197
          },
          {
            "number": 10,
            "time": 122.07499999999035,
            "value": 0.05511811023622047
          },
          {
            "number": 10,
            "time": 122.07999999999035,
            "value": 0.05511811023622047
          },
          {
            "number": 10,
            "time": 122.08499999999034,
            "value": 0.05511811023622047
          },
          {
            "number": 10,
            "time": 122.08999999999034,
            "value": 0.05511811023622047
          },
          {
            "number": 10,
            "time": 122.09499999999034,
            "value": 0.05511811023622047
          },
          {
            "number": 10,
            "time": 122.09999999999033,
            "value": 0.05511811023622047
          },
          {
            "number": 10,
            "time": 122.10499999999033,
            "value": 0.05511811023622047
          },
          {
            "number": 10,
            "time": 122.10999999999032,
            "value": 0.05511811023622047
          },
          {
            "number": 10,
            "time": 122.11499999999032,
            "value": 0.05511811023622047
          },
          {
            "number": 10,
            "time": 122.11999999999031,
            "value": 0.05511811023622047
          },
          {
            "number": 10,
            "time": 122.12499999999031,
            "value": 0.05511811023622047
          },
          {
            "number": 10,
            "time": 122.1299999999903,
            "value": 0.05511811023622047
          },
          {
            "number": 10,
            "time": 122.1349999999903,
            "value": 0.05511811023622047
          },
          {
            "number": 10,
            "time": 122.1399999999903,
            "value": 0.05511811023622047
          },
          {
            "number": 10,
            "time": 122.14499999999029,
            "value": 0.05511811023622047
          },
          {
            "number": 10,
            "time": 122.14999999999029,
            "value": 0.05511811023622047
          },
          {
            "number": 10,
            "time": 122.15499999999028,
            "value": 0.05511811023622047
          },
          {
            "number": 10,
            "time": 122.15999999999028,
            "value": 0.05511811023622047
          },
          {
            "number": 10,
            "time": 122.16499999999027,
            "value": 0.05511811023622047
          },
          {
            "number": 10,
            "time": 122.16999999999027,
            "value": 0.05511811023622047
          },
          {
            "number": 10,
            "time": 122.17499999999026,
            "value": 0.047244094488188976
          },
          {
            "number": 10,
            "time": 122.17999999999026,
            "value": 0.047244094488188976
          },
          {
            "number": 10,
            "time": 122.18499999999025,
            "value": 0.047244094488188976
          },
          {
            "number": 10,
            "time": 122.18999999999025,
            "value": 0.047244094488188976
          },
          {
            "number": 10,
            "time": 122.19499999999024,
            "value": 0.047244094488188976
          },
          {
            "number": 10,
            "time": 122.19999999999024,
            "value": 0.047244094488188976
          },
          {
            "number": 10,
            "time": 122.20499999999024,
            "value": 0.047244094488188976
          },
          {
            "number": 10,
            "time": 122.20999999999023,
            "value": 0.047244094488188976
          },
          {
            "number": 10,
            "time": 122.21499999999023,
            "value": 0.047244094488188976
          },
          {
            "number": 10,
            "time": 122.21999999999022,
            "value": 0.047244094488188976
          },
          {
            "number": 10,
            "time": 122.22499999999022,
            "value": 0.047244094488188976
          },
          {
            "number": 10,
            "time": 122.22999999999021,
            "value": 0.047244094488188976
          },
          {
            "number": 10,
            "time": 122.23499999999021,
            "value": 0.047244094488188976
          },
          {
            "number": 10,
            "time": 122.2399999999902,
            "value": 0.047244094488188976
          },
          {
            "number": 10,
            "time": 122.2449999999902,
            "value": 0.047244094488188976
          },
          {
            "number": 10,
            "time": 122.2499999999902,
            "value": 0.047244094488188976
          },
          {
            "number": 10,
            "time": 122.25499999999019,
            "value": 0.047244094488188976
          },
          {
            "number": 10,
            "time": 122.25999999999019,
            "value": 0.047244094488188976
          },
          {
            "number": 10,
            "time": 122.26499999999018,
            "value": 0.047244094488188976
          },
          {
            "number": 10,
            "time": 122.26999999999018,
            "value": 0.047244094488188976
          },
          {
            "number": 10,
            "time": 122.27499999999017,
            "value": 0.03937007874015748
          },
          {
            "number": 10,
            "time": 122.27999999999017,
            "value": 0.03937007874015748
          },
          {
            "number": 10,
            "time": 122.28499999999016,
            "value": 0.03937007874015748
          },
          {
            "number": 10,
            "time": 122.28999999999016,
            "value": 0.03937007874015748
          },
          {
            "number": 10,
            "time": 122.29499999999015,
            "value": 0.03937007874015748
          },
          {
            "number": 10,
            "time": 122.29999999999015,
            "value": 0.03937007874015748
          },
          {
            "number": 10,
            "time": 122.30499999999014,
            "value": 0.03937007874015748
          },
          {
            "number": 10,
            "time": 122.30999999999014,
            "value": 0.03937007874015748
          },
          {
            "number": 10,
            "time": 122.31499999999014,
            "value": 0.03937007874015748
          },
          {
            "number": 10,
            "time": 122.31999999999013,
            "value": 0.03937007874015748
          },
          {
            "number": 10,
            "time": 122.32499999999013,
            "value": 0.03937007874015748
          },
          {
            "number": 10,
            "time": 122.32999999999012,
            "value": 0.03937007874015748
          },
          {
            "number": 10,
            "time": 122.33499999999012,
            "value": 0.03937007874015748
          },
          {
            "number": 10,
            "time": 122.33999999999011,
            "value": 0.03937007874015748
          },
          {
            "number": 10,
            "time": 122.34499999999011,
            "value": 0.03937007874015748
          },
          {
            "number": 10,
            "time": 122.3499999999901,
            "value": 0.03937007874015748
          },
          {
            "number": 10,
            "time": 122.3549999999901,
            "value": 0.03937007874015748
          },
          {
            "number": 10,
            "time": 122.3599999999901,
            "value": 0.03937007874015748
          },
          {
            "number": 10,
            "time": 122.36499999999009,
            "value": 0.03937007874015748
          },
          {
            "number": 10,
            "time": 122.36999999999009,
            "value": 0.03937007874015748
          },
          {
            "number": 10,
            "time": 122.37499999999008,
            "value": 0.031496062992125984
          },
          {
            "number": 10,
            "time": 122.37999999999008,
            "value": 0.031496062992125984
          },
          {
            "number": 10,
            "time": 122.38499999999007,
            "value": 0.031496062992125984
          },
          {
            "number": 10,
            "time": 122.38999999999007,
            "value": 0.031496062992125984
          },
          {
            "number": 10,
            "time": 122.39499999999006,
            "value": 0.031496062992125984
          },
          {
            "number": 10,
            "time": 122.39999999999006,
            "value": 0.031496062992125984
          },
          {
            "number": 10,
            "time": 122.40499999999005,
            "value": 0.031496062992125984
          },
          {
            "number": 10,
            "time": 122.40999999999005,
            "value": 0.031496062992125984
          },
          {
            "number": 10,
            "time": 122.41499999999004,
            "value": 0.031496062992125984
          },
          {
            "number": 10,
            "time": 122.41999999999004,
            "value": 0.031496062992125984
          },
          {
            "number": 10,
            "time": 122.42499999999004,
            "value": 0.031496062992125984
          },
          {
            "number": 10,
            "time": 122.42999999999003,
            "value": 0.031496062992125984
          },
          {
            "number": 10,
            "time": 122.43499999999003,
            "value": 0.031496062992125984
          },
          {
            "number": 10,
            "time": 122.43999999999002,
            "value": 0.031496062992125984
          },
          {
            "number": 10,
            "time": 122.44499999999002,
            "value": 0.031496062992125984
          },
          {
            "number": 10,
            "time": 122.44999999999001,
            "value": 0.031496062992125984
          },
          {
            "number": 10,
            "time": 122.45499999999001,
            "value": 0.031496062992125984
          },
          {
            "number": 10,
            "time": 122.45999999999,
            "value": 0.031496062992125984
          },
          {
            "number": 10,
            "time": 122.46499999999,
            "value": 0.031496062992125984
          },
          {
            "number": 10,
            "time": 122.46999999999,
            "value": 0.031496062992125984
          },
          {
            "number": 10,
            "time": 122.47499999998999,
            "value": 0.023622047244094488
          },
          {
            "number": 10,
            "time": 122.47999999998999,
            "value": 0.023622047244094488
          },
          {
            "number": 10,
            "time": 122.48499999998998,
            "value": 0.023622047244094488
          },
          {
            "number": 10,
            "time": 122.48999999998998,
            "value": 0.023622047244094488
          },
          {
            "number": 10,
            "time": 122.49499999998997,
            "value": 0.023622047244094488
          },
          {
            "number": 10,
            "time": 122.49999999998997,
            "value": 0.023622047244094488
          },
          {
            "number": 10,
            "time": 122.50499999998996,
            "value": 0.023622047244094488
          },
          {
            "number": 10,
            "time": 122.50999999998996,
            "value": 0.023622047244094488
          },
          {
            "number": 10,
            "time": 122.51499999998995,
            "value": 0.023622047244094488
          },
          {
            "number": 10,
            "time": 122.51999999998995,
            "value": 0.023622047244094488
          },
          {
            "number": 10,
            "time": 122.52499999998994,
            "value": 0.023622047244094488
          },
          {
            "number": 10,
            "time": 122.52999999998994,
            "value": 0.023622047244094488
          },
          {
            "number": 10,
            "time": 122.53499999998994,
            "value": 0.023622047244094488
          },
          {
            "number": 10,
            "time": 122.53999999998993,
            "value": 0.023622047244094488
          },
          {
            "number": 10,
            "time": 122.54499999998993,
            "value": 0.023622047244094488
          },
          {
            "number": 10,
            "time": 122.54999999998992,
            "value": 0.023622047244094488
          },
          {
            "number": 10,
            "time": 122.55499999998992,
            "value": 0.023622047244094488
          },
          {
            "number": 10,
            "time": 122.55999999998991,
            "value": 0.023622047244094488
          },
          {
            "number": 10,
            "time": 122.56499999998991,
            "value": 0.023622047244094488
          },
          {
            "number": 10,
            "time": 122.5699999999899,
            "value": 0.023622047244094488
          },
          {
            "number": 10,
            "time": 122.5749999999899,
            "value": 0.015748031496062992
          },
          {
            "number": 10,
            "time": 122.5799999999899,
            "value": 0.015748031496062992
          },
          {
            "number": 10,
            "time": 122.58499999998989,
            "value": 0.015748031496062992
          },
          {
            "number": 10,
            "time": 122.58999999998989,
            "value": 0.015748031496062992
          },
          {
            "number": 10,
            "time": 122.59499999998988,
            "value": 0.015748031496062992
          },
          {
            "number": 10,
            "time": 122.59999999998988,
            "value": 0.015748031496062992
          },
          {
            "number": 10,
            "time": 122.60499999998987,
            "value": 0.015748031496062992
          },
          {
            "number": 10,
            "time": 122.60999999998987,
            "value": 0.015748031496062992
          },
          {
            "number": 10,
            "time": 122.61499999998986,
            "value": 0.015748031496062992
          },
          {
            "number": 10,
            "time": 122.61999999998986,
            "value": 0.015748031496062992
          },
          {
            "number": 10,
            "time": 122.62499999998985,
            "value": 0.015748031496062992
          },
          {
            "number": 10,
            "time": 122.62999999998985,
            "value": 0.015748031496062992
          },
          {
            "number": 10,
            "time": 122.63499999998984,
            "value": 0.015748031496062992
          },
          {
            "number": 10,
            "time": 122.63999999998984,
            "value": 0.015748031496062992
          },
          {
            "number": 10,
            "time": 122.64499999998984,
            "value": 0.015748031496062992
          },
          {
            "number": 10,
            "time": 122.64999999998983,
            "value": 0.015748031496062992
          },
          {
            "number": 10,
            "time": 122.65499999998983,
            "value": 0.015748031496062992
          },
          {
            "number": 10,
            "time": 122.65999999998982,
            "value": 0.015748031496062992
          },
          {
            "number": 10,
            "time": 122.66499999998982,
            "value": 0.015748031496062992
          },
          {
            "number": 10,
            "time": 122.66999999998981,
            "value": 0.015748031496062992
          },
          {
            "number": 10,
            "time": 122.67499999998981,
            "value": 0.007874015748031496
          },
          {
            "number": 10,
            "time": 122.6799999999898,
            "value": 0.007874015748031496
          },
          {
            "number": 10,
            "time": 122.6849999999898,
            "value": 0.007874015748031496
          },
          {
            "number": 10,
            "time": 122.6899999999898,
            "value": 0.007874015748031496
          },
          {
            "number": 10,
            "time": 122.69499999998979,
            "value": 0.007874015748031496
          },
          {
            "number": 10,
            "time": 122.69999999998979,
            "value": 0.007874015748031496
          },
          {
            "number": 10,
            "time": 122.70499999998978,
            "value": 0.007874015748031496
          },
          {
            "number": 10,
            "time": 122.70999999998978,
            "value": 0.007874015748031496
          },
          {
            "number": 10,
            "time": 122.71499999998977,
            "value": 0.007874015748031496
          },
          {
            "number": 10,
            "time": 122.71999999998977,
            "value": 0.007874015748031496
          },
          {
            "number": 10,
            "time": 122.72499999998976,
            "value": 0.007874015748031496
          },
          {
            "number": 10,
            "time": 122.72999999998976,
            "value": 0.007874015748031496
          },
          {
            "number": 10,
            "time": 122.73499999998975,
            "value": 0.007874015748031496
          },
          {
            "number": 10,
            "time": 122.73999999998975,
            "value": 0.007874015748031496
          },
          {
            "number": 10,
            "time": 122.74499999998974,
            "value": 0.007874015748031496
          },
          {
            "number": 10,
            "time": 122.74999999998974,
            "value": 0.007874015748031496
          },
          {
            "number": 10,
            "time": 122.75499999998974,
            "value": 0.007874015748031496
          },
          {
            "number": 10,
            "time": 122.75999999998973,
            "value": 0.007874015748031496
          },
          {
            "number": 10,
            "time": 122.76499999998973,
            "value": 0.007874015748031496
          },
          {
            "number": 10,
            "time": 122.76999999998972,
            "value": 0.007874015748031496
          },
          {
            "number": 10,
            "time": 122.77499999998972,
            "value": 0
          }
        ],
        "100": [
          {
            "number": 100,
            "time": 0,
            "value": 0
          },
          {
            "number": 100,
            "time": 0,
            "value": 0
          },
          {
            "number": 100,
            "time": 140.30499999998264,
            "value": 0
          },
          {
            "number": 100,
            "time": 140.30999999998264,
            "value": 0
          },
          {
            "number": 100,
            "time": 140.30999999998264,
            "value": 0
          }
        ],
        "101": [
          {
            "number": 101,
            "time": 0,
            "value": 0
          },
          {
            "number": 101,
            "time": 0,
            "value": 0
          },
          {
            "number": 101,
            "time": 140.30499999998264,
            "value": 0
          },
          {
            "number": 101,
            "time": 140.30999999998264,
            "value": 0
          },
          {
            "number": 101,
            "time": 140.30999999998264,
            "value": 0
          }
        ]
      },
      "id": 7,
      "name": "MIDI Out #6",
      "instrumentNumber": 51,
      "instrument": "synthstrings 2",
      "instrumentFamily": "ensemble",
      "channelNumber": 4,
      "isPercussion": false
    },
    {
      "startTime": 134.4,
      "duration": 138.24000000000015,
      "length": 15,
      "notes": [
        {
          "name": "F#3",
          "midi": 54,
          "time": 134.4,
          "velocity": 0.7874015748031497,
          "duration": 0.2400000000000091
        },
        {
          "name": "F#3",
          "midi": 54,
          "time": 134.88000000000002,
          "velocity": 0.7874015748031497,
          "duration": 0.2400000000000091
        },
        {
          "name": "F#3",
          "midi": 54,
          "time": 135.36000000000004,
          "velocity": 0.7874015748031497,
          "duration": 0.2400000000000091
        },
        {
          "name": "F#3",
          "midi": 54,
          "time": 135.72000000000006,
          "velocity": 0.7874015748031497,
          "duration": 0.2400000000000091
        },
        {
          "name": "F#3",
          "midi": 54,
          "time": 136.08000000000007,
          "velocity": 0.7874015748031497,
          "duration": 0.2400000000000091
        },
        {
          "name": "F#3",
          "midi": 54,
          "time": 136.32000000000008,
          "velocity": 0.7874015748031497,
          "duration": 0.2400000000000091
        },
        {
          "name": "F#4",
          "midi": 66,
          "time": 136.32000000000008,
          "velocity": 0.7874015748031497,
          "duration": 0.2400000000000091
        },
        {
          "name": "F#3",
          "midi": 54,
          "time": 136.8000000000001,
          "velocity": 0.7874015748031497,
          "duration": 0.2400000000000091
        },
        {
          "name": "F#4",
          "midi": 66,
          "time": 136.8000000000001,
          "velocity": 0.7874015748031497,
          "duration": 0.2400000000000091
        },
        {
          "name": "F#3",
          "midi": 54,
          "time": 137.28000000000011,
          "velocity": 0.7874015748031497,
          "duration": 0.2400000000000091
        },
        {
          "name": "F#4",
          "midi": 66,
          "time": 137.28000000000011,
          "velocity": 0.7874015748031497,
          "duration": 0.2400000000000091
        },
        {
          "name": "F#3",
          "midi": 54,
          "time": 137.64000000000013,
          "velocity": 0.7874015748031497,
          "duration": 0.2400000000000091
        },
        {
          "name": "F#4",
          "midi": 66,
          "time": 137.64000000000013,
          "velocity": 0.7874015748031497,
          "duration": 0.2400000000000091
        },
        {
          "name": "F#3",
          "midi": 54,
          "time": 138.00000000000014,
          "velocity": 0.7874015748031497,
          "duration": 0.2400000000000091
        },
        {
          "name": "F#4",
          "midi": 66,
          "time": 138.00000000000014,
          "velocity": 0.7874015748031497,
          "duration": 0.2400000000000091
        }
      ],
      "controlChanges": {
        "6": [
          {
            "number": 6,
            "time": 0,
            "value": 0.09448818897637795
          },
          {
            "number": 6,
            "time": 0,
            "value": 0.09448818897637795
          },
          {
            "number": 6,
            "time": 140.30500000000015,
            "value": 0.09448818897637795
          },
          {
            "number": 6,
            "time": 140.31000000000014,
            "value": 0.09448818897637795
          },
          {
            "number": 6,
            "time": 140.31000000000014,
            "value": 0.09448818897637795
          }
        ],
        "7": [
          {
            "number": 7,
            "time": 0,
            "value": 0.7874015748031497
          },
          {
            "number": 7,
            "time": 0,
            "value": 0.7874015748031497
          },
          {
            "number": 7,
            "time": 0,
            "value": 0.7874015748031497
          },
          {
            "number": 7,
            "time": 140.30500000000015,
            "value": 0.7874015748031497
          },
          {
            "number": 7,
            "time": 140.31000000000014,
            "value": 0.7874015748031497
          },
          {
            "number": 7,
            "time": 140.31000000000014,
            "value": 0.7874015748031497
          }
        ],
        "10": [
          {
            "number": 10,
            "time": 0,
            "value": 0.5039370078740157
          },
          {
            "number": 10,
            "time": 0,
            "value": 0.5039370078740157
          },
          {
            "number": 10,
            "time": 0,
            "value": 0.5039370078740157
          },
          {
            "number": 10,
            "time": 140.30500000000015,
            "value": 0.5039370078740157
          },
          {
            "number": 10,
            "time": 140.31000000000014,
            "value": 0.5039370078740157
          },
          {
            "number": 10,
            "time": 140.31000000000014,
            "value": 0.5039370078740157
          }
        ],
        "100": [
          {
            "number": 100,
            "time": 0,
            "value": 0
          },
          {
            "number": 100,
            "time": 0,
            "value": 0
          },
          {
            "number": 100,
            "time": 140.30500000000015,
            "value": 0
          },
          {
            "number": 100,
            "time": 140.31000000000014,
            "value": 0
          },
          {
            "number": 100,
            "time": 140.31000000000014,
            "value": 0
          }
        ],
        "101": [
          {
            "number": 101,
            "time": 0,
            "value": 0
          },
          {
            "number": 101,
            "time": 0,
            "value": 0
          },
          {
            "number": 101,
            "time": 140.30500000000015,
            "value": 0
          },
          {
            "number": 101,
            "time": 140.31000000000014,
            "value": 0
          },
          {
            "number": 101,
            "time": 140.31000000000014,
            "value": 0
          }
        ]
      },
      "id": 8,
      "name": "MIDI Out #7",
      "instrumentNumber": 27,
      "instrument": "electric guitar (clean)",
      "instrumentFamily": "guitar",
      "channelNumber": 5,
      "isPercussion": false
    }
  ]
}