# This file uses centimeters as units for non-parametric coordinates.

mtllib button.mtl
g default
v 0.450484 -0.157920 -0.216942
v 0.311745 -0.157920 -0.390916
v 0.111261 -0.157920 -0.487464
v -0.111260 -0.157920 -0.487464
v -0.311745 -0.157920 -0.390916
v -0.450484 -0.157920 -0.216942
v -0.500000 -0.157920 -0.000000
v -0.450484 -0.157920 0.216942
v -0.311745 -0.157920 0.390916
v -0.111261 -0.157920 0.487464
v 0.111260 -0.157920 0.487464
v 0.311745 -0.157920 0.390916
v 0.450484 -0.157920 0.216942
v 0.500000 -0.157920 0.000000
v 0.900969 -0.157920 -0.433883
v 0.623490 -0.157920 -0.781831
v 0.222521 -0.157920 -0.974928
v -0.222521 -0.157920 -0.974928
v -0.623490 -0.157920 -0.781832
v -0.900969 -0.157920 -0.433884
v -1.000000 -0.157920 -0.000000
v -0.900969 -0.157920 0.433884
v -0.623490 -0.157920 0.781831
v -0.222521 -0.157920 0.974928
v 0.222521 -0.157920 0.974928
v 0.623490 -0.157920 0.781832
v 0.900969 -0.157920 0.433884
v 1.000000 -0.157920 0.000000
v 0.900969 0.157920 -0.433883
v 0.623490 0.157920 -0.781831
v 0.222521 0.157920 -0.974928
v -0.222521 0.157920 -0.974928
v -0.623490 0.157920 -0.781832
v -0.900969 0.157920 -0.433884
v -1.000000 0.157920 -0.000000
v -0.900969 0.157920 0.433884
v -0.623490 0.157920 0.781831
v -0.222521 0.157920 0.974928
v 0.222521 0.157920 0.974928
v 0.623490 0.157920 0.781832
v 0.900969 0.157920 0.433884
v 1.000000 0.157920 0.000000
v 0.602590 0.157920 -0.290192
v 0.417005 0.157920 -0.522908
v 0.148828 0.157920 -0.652056
v -0.148827 0.157920 -0.652056
v -0.417005 0.157920 -0.522908
v -0.602590 0.157920 -0.290192
v -0.668824 0.157920 -0.000000
v -0.602590 0.157920 0.290192
v -0.417005 0.157920 0.522908
v -0.148828 0.157920 0.652056
v 0.148827 0.157920 0.652056
v 0.417005 0.157920 0.522908
v 0.602590 0.157920 0.290192
v 0.668825 0.157920 -0.000000
v 0.000000 -0.157920 0.000000
v 0.602590 0.266688 -0.290192
v 0.417005 0.266688 -0.522908
v -0.000000 0.266688 -0.000000
v 0.148828 0.266688 -0.652056
v -0.148827 0.266688 -0.652056
v -0.417005 0.266688 -0.522908
v -0.602590 0.266688 -0.290192
v -0.668824 0.266688 -0.000000
v -0.602590 0.266688 0.290192
v -0.417005 0.266688 0.522908
v -0.148828 0.266688 0.652056
v 0.148827 0.266688 0.652056
v 0.417005 0.266688 0.522908
v 0.602590 0.266688 0.290192
v 0.668825 0.266688 -0.000000
vt 0.570388 0.122353
vt 0.548710 0.095169
vt 0.517384 0.080084
vt 0.482616 0.080084
vt 0.451290 0.095169
vt 0.429612 0.122353
vt 0.421875 0.156250
vt 0.429612 0.190147
vt 0.451290 0.217331
vt 0.482616 0.232416
vt 0.517384 0.232416
vt 0.548710 0.217331
vt 0.570388 0.190147
vt 0.578125 0.156250
vt 0.640776 0.088456
vt 0.597420 0.034089
vt 0.534769 0.003918
vt 0.465231 0.003918
vt 0.402580 0.034089
vt 0.359224 0.088456
vt 0.343750 0.156250
vt 0.359224 0.224044
vt 0.402580 0.278411
vt 0.465231 0.308582
vt 0.534769 0.308582
vt 0.597420 0.278411
vt 0.640776 0.224044
vt 0.656250 0.156250
vt 0.375000 0.312500
vt 0.392857 0.312500
vt 0.410714 0.312500
vt 0.428571 0.312500
vt 0.446429 0.312500
vt 0.464286 0.312500
vt 0.482143 0.312500
vt 0.500000 0.312500
vt 0.517857 0.312500
vt 0.535714 0.312500
vt 0.553571 0.312500
vt 0.571428 0.312500
vt 0.589286 0.312500
vt 0.607143 0.312500
vt 0.625000 0.312500
vt 0.375000 0.688440
vt 0.392857 0.688440
vt 0.410714 0.688440
vt 0.428571 0.688440
vt 0.446429 0.688440
vt 0.464286 0.688440
vt 0.482143 0.688440
vt 0.500000 0.688440
vt 0.517857 0.688440
vt 0.535714 0.688440
vt 0.553571 0.688440
vt 0.571428 0.688440
vt 0.589286 0.688440
vt 0.607143 0.688440
vt 0.625000 0.688440
vt 0.640776 0.775956
vt 0.597420 0.721589
vt 0.534769 0.691418
vt 0.465231 0.691418
vt 0.402580 0.721589
vt 0.359224 0.775956
vt 0.343750 0.843750
vt 0.359224 0.911544
vt 0.402580 0.965911
vt 0.465231 0.996082
vt 0.534769 0.996082
vt 0.597420 0.965911
vt 0.640776 0.911544
vt 0.656250 0.843750
vt 0.570388 0.809853
vt 0.548710 0.782669
vt 0.517384 0.767584
vt 0.482616 0.767584
vt 0.451290 0.782669
vt 0.429612 0.809853
vt 0.421875 0.843750
vt 0.429612 0.877647
vt 0.451290 0.904831
vt 0.482616 0.919916
vt 0.517384 0.919916
vt 0.548710 0.904831
vt 0.570388 0.877647
vt 0.578125 0.843750
vt 0.500000 0.150000
vt 0.500000 0.837500
vt 0.570388 0.877647
vt 0.548710 0.904831
vt 0.517384 0.919916
vt 0.482616 0.919916
vt 0.451290 0.904831
vt 0.429612 0.877647
vt 0.421875 0.843750
vt 0.429612 0.809853
vt 0.451290 0.782669
vt 0.482616 0.767584
vt 0.517384 0.767584
vt 0.548710 0.782669
vt 0.570388 0.809853
vt 0.578125 0.843750
vn 0.000000 -1.000000 0.000000
vn 0.000000 -1.000000 -0.000000
vn 0.000000 -1.000000 0.000000
vn 0.000000 -1.000000 0.000000
vn 0.000000 -1.000000 -0.000000
vn 0.000000 -1.000000 -0.000000
vn 0.000000 -1.000000 0.000000
vn 0.000000 -1.000000 0.000000
vn 0.000000 -1.000000 -0.000000
vn 0.000000 -1.000000 -0.000000
vn 0.000000 -1.000000 -0.000000
vn 0.000000 -1.000000 0.000000
vn 0.000000 -1.000000 0.000000
vn 0.000000 -1.000000 0.000000
vn 0.000000 -1.000000 0.000000
vn 0.000000 -1.000000 0.000000
vn 0.000000 -1.000000 0.000000
vn 0.000000 -1.000000 0.000000
vn 0.000000 -1.000000 0.000000
vn 0.000000 -1.000000 0.000000
vn 0.000000 -1.000000 -0.000000
vn 0.000000 -1.000000 -0.000000
vn 0.000000 -1.000000 -0.000000
vn 0.000000 -1.000000 -0.000000
vn 0.000000 -1.000000 0.000000
vn 0.000000 -1.000000 0.000000
vn 0.000000 -1.000000 0.000000
vn 0.000000 -1.000000 0.000000
vn 0.900969 0.000000 -0.433884
vn 0.623490 0.000000 -0.781831
vn 0.623490 0.000000 -0.781831
vn 0.900969 0.000000 -0.433884
vn 0.222521 0.000000 -0.974928
vn 0.222521 0.000000 -0.974928
vn -0.222521 0.000000 -0.974928
vn -0.222521 0.000000 -0.974928
vn -0.623490 0.000000 -0.781832
vn -0.623490 0.000000 -0.781832
vn -0.900969 0.000000 -0.433884
vn -0.900969 0.000000 -0.433884
vn -1.000000 0.000000 -0.000000
vn -1.000000 0.000000 -0.000000
vn -0.900969 0.000000 0.433884
vn -0.900969 0.000000 0.433884
vn -0.623490 0.000000 0.781832
vn -0.623490 0.000000 0.781832
vn -0.222521 0.000000 0.974928
vn -0.222521 0.000000 0.974928
vn 0.222521 0.000000 0.974928
vn 0.222521 0.000000 0.974928
vn 0.623490 0.000000 0.781832
vn 0.623490 0.000000 0.781832
vn 0.900969 0.000000 0.433884
vn 0.900969 0.000000 0.433884
vn 1.000000 0.000000 0.000000
vn 1.000000 0.000000 0.000000
vn 0.000000 1.000000 -0.000000
vn 0.000000 1.000000 -0.000000
vn 0.000000 1.000000 -0.000000
vn 0.000000 1.000000 -0.000000
vn 0.000000 1.000000 0.000000
vn 0.000000 1.000000 0.000000
vn 0.000000 1.000000 0.000000
vn 0.000000 1.000000 0.000000
vn 0.000000 1.000000 -0.000000
vn 0.000000 1.000000 -0.000000
vn 0.000000 1.000000 0.000000
vn 0.000000 1.000000 0.000000
vn 0.000000 1.000000 0.000000
vn 0.000000 1.000000 0.000000
vn 0.000000 1.000000 0.000000
vn 0.000000 1.000000 0.000000
vn 0.000000 1.000000 0.000000
vn 0.000000 1.000000 0.000000
vn 0.000000 1.000000 0.000000
vn 0.000000 1.000000 0.000000
vn 0.000000 1.000000 0.000000
vn 0.000000 1.000000 0.000000
vn 0.000000 1.000000 0.000000
vn 0.000000 1.000000 0.000000
vn 0.000000 1.000000 0.000000
vn 0.000000 1.000000 0.000000
vn 0.000000 1.000000 0.000000
vn 0.000000 1.000000 0.000000
vn 0.000000 -1.000000 0.000000
vn 0.000000 1.000000 0.000000
vn 0.000000 1.000000 0.000000
vn 0.000000 1.000000 -0.000000
vn 0.000000 1.000000 -0.000000
vn 0.000000 1.000000 0.000000
vn 0.000000 1.000000 -0.000000
vn 0.000000 1.000000 -0.000000
vn 0.000000 1.000000 0.000000
vn 0.000000 1.000000 0.000000
vn 0.000000 1.000000 0.000000
vn 0.000000 1.000000 0.000000
vn 0.000000 1.000000 -0.000000
vn 0.000000 1.000000 -0.000000
vn 0.000000 1.000000 0.000000
vn 0.000000 1.000000 0.000000
vn 0.900969 0.000000 -0.433884
vn 0.623490 0.000000 -0.781831
vn 0.623490 0.000000 -0.781831
vn 0.900969 0.000000 -0.433884
vn 0.222521 0.000000 -0.974928
vn 0.222521 0.000000 -0.974928
vn -0.222521 0.000000 -0.974928
vn -0.222521 0.000000 -0.974928
vn -0.623490 0.000000 -0.781832
vn -0.623490 0.000000 -0.781832
vn -0.900969 0.000000 -0.433884
vn -0.900969 0.000000 -0.433884
vn -1.000000 0.000000 -0.000000
vn -1.000000 0.000000 -0.000000
vn -0.900969 0.000000 0.433884
vn -0.900969 0.000000 0.433884
vn -0.623490 0.000000 0.781832
vn -0.623490 0.000000 0.781832
vn -0.222521 0.000000 0.974928
vn -0.222521 0.000000 0.974928
vn 0.222521 0.000000 0.974928
vn 0.222521 0.000000 0.974928
vn 0.623490 0.000000 0.781832
vn 0.623490 0.000000 0.781832
vn 0.900969 0.000000 0.433884
vn 0.900969 0.000000 0.433884
vn 1.000000 0.000000 0.000000
vn 1.000000 0.000000 0.000000
s 1
g pCylinder1
usemtl initialShadingGroup
f 1/1/1 2/2/2 16/16/3 15/15/4
f 2/2/2 3/3/5 17/17/6 16/16/3
f 3/3/5 4/4/7 18/18/8 17/17/6
f 4/4/7 5/5/9 19/19/10 18/18/8
f 5/5/9 6/6/11 20/20/12 19/19/10
f 6/6/11 7/7/13 21/21/14 20/20/12
f 7/7/13 8/8/15 22/22/16 21/21/14
f 8/8/15 9/9/17 23/23/18 22/22/16
f 9/9/17 10/10/19 24/24/20 23/23/18
f 10/10/19 11/11/21 25/25/22 24/24/20
f 11/11/21 12/12/23 26/26/24 25/25/22
f 12/12/23 13/13/25 27/27/26 26/26/24
f 13/13/25 14/14/27 28/28/28 27/27/26
f 14/14/27 1/1/1 15/15/4 28/28/28
s 2
f 15/29/29 16/30/30 30/45/31 29/44/32
f 16/30/30 17/31/33 31/46/34 30/45/31
f 17/31/33 18/32/35 32/47/36 31/46/34
f 18/32/35 19/33/37 33/48/38 32/47/36
f 19/33/37 20/34/39 34/49/40 33/48/38
f 20/34/39 21/35/41 35/50/42 34/49/40
f 21/35/41 22/36/43 36/51/44 35/50/42
f 22/36/43 23/37/45 37/52/46 36/51/44
f 23/37/45 24/38/47 38/53/48 37/52/46
f 24/38/47 25/39/49 39/54/50 38/53/48
f 25/39/49 26/40/51 40/55/52 39/54/50
f 26/40/51 27/41/53 41/56/54 40/55/52
f 27/41/53 28/42/55 42/57/56 41/56/54
f 28/42/55 15/43/29 29/58/32 42/57/56
s 3
f 29/71/57 30/70/58 44/84/59 43/85/60
f 30/70/58 31/69/61 45/83/62 44/84/59
f 31/69/61 32/68/63 46/82/64 45/83/62
f 32/68/63 33/67/65 47/81/66 46/82/64
f 33/67/65 34/66/67 48/80/68 47/81/66
f 34/66/67 35/65/69 49/79/70 48/80/68
f 35/65/69 36/64/71 50/78/72 49/79/70
f 36/64/71 37/63/73 51/77/74 50/78/72
f 37/63/73 38/62/75 52/76/76 51/77/74
f 38/62/75 39/61/77 53/75/78 52/76/76
f 39/61/77 40/60/79 54/74/80 53/75/78
f 40/60/79 41/59/81 55/73/82 54/74/80
f 41/59/81 42/72/83 56/86/84 55/73/82
f 42/72/83 29/71/57 43/85/60 56/86/84
s 1
f 2/2/2 1/1/1 57/87/85
f 3/3/5 2/2/2 57/87/85
f 4/4/7 3/3/5 57/87/85
f 5/5/9 4/4/7 57/87/85
f 6/6/11 5/5/9 57/87/85
f 7/7/13 6/6/11 57/87/85
f 8/8/15 7/7/13 57/87/85
f 9/9/17 8/8/15 57/87/85
f 10/10/19 9/9/17 57/87/85
f 11/11/21 10/10/19 57/87/85
f 12/12/23 11/11/21 57/87/85
f 13/13/25 12/12/23 57/87/85
f 14/14/27 13/13/25 57/87/85
f 1/1/1 14/14/27 57/87/85
s 4
f 58/89/86 59/90/87 60/88/88
f 59/90/87 61/91/89 60/88/88
f 61/91/89 62/92/90 60/88/88
f 62/92/90 63/93/91 60/88/88
f 63/93/91 64/94/92 60/88/88
f 64/94/92 65/95/93 60/88/88
f 65/95/93 66/96/94 60/88/88
f 66/96/94 67/97/95 60/88/88
f 67/97/95 68/98/96 60/88/88
f 68/98/96 69/99/97 60/88/88
f 69/99/97 70/100/98 60/88/88
f 70/100/98 71/101/99 60/88/88
f 71/101/99 72/102/100 60/88/88
f 72/102/100 58/89/86 60/88/88
s 5
f 43/85/101 44/84/102 59/90/103 58/89/104
f 44/84/102 45/83/105 61/91/106 59/90/103
f 45/83/105 46/82/107 62/92/108 61/91/106
f 46/82/107 47/81/109 63/93/110 62/92/108
f 47/81/109 48/80/111 64/94/112 63/93/110
f 48/80/111 49/79/113 65/95/114 64/94/112
f 49/79/113 50/78/115 66/96/116 65/95/114
f 50/78/115 51/77/117 67/97/118 66/96/116
f 51/77/117 52/76/119 68/98/120 67/97/118
f 52/76/119 53/75/121 69/99/122 68/98/120
f 53/75/121 54/74/123 70/100/124 69/99/122
f 54/74/123 55/73/125 71/101/126 70/100/124
f 55/73/125 56/86/127 72/102/128 71/101/126
f 56/86/127 43/85/101 58/89/104 72/102/128
